<?xml version="1.0" encoding="UTF-8" standalone="no"?>
<!-- Created with Inkscape (http://www.inkscape.org/) -->

<svg
   width="231.38646"
   height="235.24007"
   viewBox="0 0 61.221 62.240601"
   version="1.1"
   id="svg1"
   xml:space="preserve"
   xmlns="http://www.w3.org/2000/svg"
   xmlns:svg="http://www.w3.org/2000/svg"><defs
     id="defs1" /><g
     id="g1905"
     transform="matrix(0.26458333,0,0,0.26458333,-4592.6958,-202.28629)"><path
       style="fill:#000000"
       d="m 17446.248,977.0143 c -1.173,-2.21894 -4.976,-6.24319 -7.047,-7.45766 -2.01,-1.17856 -2.362,-1.22776 -6.729,-0.94071 -3.88,0.25505 -4.917,0.50537 -6.564,1.58492 -1.076,0.70511 -2.129,1.57364 -2.341,1.93006 -0.211,0.35642 -0.833,0.64804 -1.381,0.64804 -0.865,0 -0.958,-0.20614 -0.7,-1.56228 0.311,-1.63764 2.255,-3.619 4.832,-4.92556 5.806,-2.94427 6.583,-3.96479 7.445,-9.7823 0.353,-2.38444 0.495,-4.94477 0.316,-5.68962 -0.179,-0.74485 -0.448,-1.89507 -0.598,-2.55603 -0.15,-0.66097 -0.567,-1.43818 -0.927,-1.72714 -0.85,-0.6837 -5.478,-6.477 -5.485,-6.86659 0,-0.16459 -2.483,-2.89105 -5.511,-6.0588 -4.083,-4.27147 -6.138,-6.87962 -7.953,-10.09474 -1.346,-2.38435 -2.815,-4.98414 -3.266,-5.77729 -2.163,-3.80999 -3.077,-8.04771 -2.404,-11.1428 0.53,-2.43912 0.506,-2.54258 -1.159,-5.04737 -0.935,-1.40646 -2.479,-3.35767 -3.432,-4.33601 -1.797,-1.84653 -2.073,-2.51981 -1.242,-3.03359 0.68,-0.42075 -1.022,-2.70168 -3.058,-4.09771 -0.92,-0.63042 -1.546,-1.41092 -1.412,-1.75966 0.266,-0.69507 2.059,-0.87296 2.059,-0.20434 0,0.66386 2.877,1.69782 3.365,1.20929 0.393,-0.39346 -0.711,-3.43512 -1.464,-4.03518 -0.166,-0.1322 -1.094,-1.48837 -2.062,-3.01372 -2.779,-4.37744 -2.31,-5.1245 1.881,-2.99707 1.3,0.65986 2.515,1.20065 2.701,1.20176 0.77,0.005 -2.15,-5.11811 -4.971,-8.7198 -0.754,-0.9634 -1.372,-2.12427 -1.372,-2.57972 0,-0.88519 0.232,-0.86791 4.189,0.31217 1.114,0.33245 2.153,0.4779 2.307,0.32323 0.155,-0.15467 -1.1,-2.52294 -2.79,-5.26281 -2.932,-4.75749 -5.065,-9.92786 -4.731,-11.47106 0.421,-1.94853 1.042,-1.8867 5.651,0.56279 2.508,1.33285 4.656,2.32776 4.773,2.21091 0.672,-0.6723 -2.819,-8.21144 -6.937,-14.98111 -1.428,-2.34736 -1.725,-3.29406 -1.732,-5.51581 -0.01,-4.23398 1.074,-3.9161 5.544,1.61971 1.067,1.32193 2.614,3.65737 3.437,5.18986 1.581,2.94487 4.464,6.14483 6.863,7.62037 3.109,1.9114 3.09,0.98588 -0.116,-5.84006 -5.589,-11.89681 -6.016,-12.99342 -9.246,-23.7232 -1.025,-3.4026 -0.929,-6.56101 0.198,-6.56101 0.317,0 1.736,1.40347 3.155,3.11882 1.418,1.71535 2.651,3.0456 2.741,2.9561 0.09,-0.0895 -0.08,-1.6552 -0.366,-3.47934 -1.912,-11.99507 -0.443,-20.05176 3.218,-17.65166 1.182,0.77508 1.46,1.21846 4.017,6.40345 1.523,3.08857 1.854,4.0601 4.756,13.94035 1.567,5.33689 3.402,10.47945 4.907,13.75266 0.5,1.0865 0.908,2.12276 0.908,2.30279 0,0.45269 1.879,3.11824 3.422,4.85508 0.705,0.79316 2.051,2.6606 2.992,4.14987 3.067,4.85423 12.161,13.29529 15.45,14.33995 1.054,0.3347 3.503,1.26622 5.443,2.07005 4.529,1.87686 8.329,2.23343 18.506,1.73677 7.434,-0.36281 8.54,-0.53874 13.437,-2.13824 6.725,-2.19619 9.035,-3.36091 14.807,-7.46473 4.657,-3.31145 5.691,-4.50975 7.969,-9.23951 1.349,-2.80118 6.216,-10.21218 9.445,-14.38345 2.758,-3.56226 4.738,-5.34948 7.114,-6.42165 1.839,-0.83004 1.902,-0.93198 1.577,-2.57246 -0.646,-3.26091 -0.527,-3.95168 0.86,-4.99726 1.114,-0.84073 1.492,-0.91085 2.275,-0.4219 0.516,0.32253 1.565,0.58642 2.331,0.58642 0.955,0 1.639,0.37739 2.179,1.20175 0.801,1.2235 2.832,1.65315 3.407,0.72106 0.59,-0.95451 2.211,-0.4409 5.31,1.68245 3.516,2.40818 3.691,2.4639 4.539,1.44211 0.829,-1.00022 2.508,-0.90081 3.71,0.2197 2.113,1.96999 3.749,8.69158 2.569,10.55672 -0.272,0.43132 -0.201,1.04924 0.195,1.68245 0.344,0.55043 0.86,2.08236 1.147,3.40429 1.5,6.91776 2.668,11.23564 3.462,12.79925 0.487,0.95871 0.751,1.87805 0.586,2.04298 -0.557,0.55676 -1.957,0.30489 -2.227,-0.40065 -0.148,-0.38529 -1.172,-1.27082 -2.275,-1.96785 l -2.006,-1.26731 -0.967,0.96693 c -0.959,0.96002 -0.959,0.9784 -0.03,2.56872 0.556,0.95723 1.55,1.80504 2.469,2.10688 2.422,0.79549 2.866,1.48438 1.672,2.59737 -1.815,1.69217 -3.235,1.70827 -5.901,0.067 l -2.428,-1.49518 -1.421,1.05141 c -0.782,0.57827 -2.884,1.42337 -4.67,1.87799 -2.491,0.6337 -3.216,1.00949 -3.105,1.6104 0.253,1.3743 -1.332,6.64813 -2.195,7.30405 -0.987,0.74989 -3.659,0.85471 -4.896,0.19206 -0.484,-0.2588 -1.141,-1.17814 -1.461,-2.04298 l -0.582,-1.57243 -1.119,2.40351 c -1.372,2.94702 -2.94,8.73474 -3.841,14.1807 -0.372,2.24728 -1.116,5.60018 -1.654,7.45088 -0.891,3.06776 -1.363,5.01944 -2.383,9.85439 -0.402,1.90627 -5.741,11.1073 -7.584,13.06846 -0.667,0.7102 -1.456,1.72096 -1.753,2.24614 -0.84,1.48649 -4.445,6.84502 -5.928,8.81287 -1.46,1.93784 -11.258,10.62381 -16.88,14.96538 -1.943,1.50014 -5.023,3.51158 -6.846,4.46987 -1.822,0.95828 -3.313,1.91463 -3.313,2.12523 0,0.90548 7.454,1.24958 16.151,0.74556 6.173,-0.35771 6.354,-0.3396 8.75,0.875 2.991,1.51669 4.884,4.0908 4.884,6.64167 0,1.50008 -0.168,1.81122 -0.976,1.81122 -0.537,0 -1.104,-0.33369 -1.26,-0.74153 -0.306,-0.79613 -3.944,-2.84923 -4.342,-2.45035 -0.132,0.13206 0.412,1.18838 1.209,2.34737 2.172,3.15892 2.7,7.51424 0.823,6.79375 -0.406,-0.15602 -0.739,-0.56815 -0.739,-0.91584 0,-0.76629 -3.765,-4.072 -4.638,-4.072 -0.438,0 -0.535,0.4363 -0.327,1.47543 0.366,1.83066 -1.177,6.60787 -2.335,7.22777 -1.001,0.53584 -1.826,-0.71914 -1.83,-2.783 0,-2.14267 -0.91,-4.85177 -2.061,-6.1634 -1.4,-1.59439 -4.718,-2.07097 -7.198,-1.03387 -1.576,0.65891 -1.788,0.9446 -1.788,2.41499 0,2.51678 -0.417,3.1884 -1.98,3.1884 -1.06,0 -1.626,-0.37629 -2.349,-1.56228 -1.151,-1.88911 -1.19,-2.83712 -0.199,-4.75539 0.416,-0.80459 0.655,-1.5639 0.532,-1.68734 -0.124,-0.12344 -2.339,-0.74827 -4.923,-1.38852 -2.584,-0.64024 -5.514,-1.70447 -6.511,-2.36494 -1.786,-1.18248 -1.892,-1.19342 -6.938,-0.7151 -6.052,0.57379 -12.451,0.23645 -15.89,-0.83764 -2.385,-0.74484 -2.517,-0.73642 -3.9,0.24888 -1.229,0.87568 -1.478,1.43371 -1.763,3.94835 -0.412,3.65021 0.704,6.28029 3.839,9.0415 2.043,1.79914 3.731,2.41231 10.088,3.66511 2.127,0.41921 5.974,4.09263 5.974,5.70461 0,1.56835 -0.05,1.56945 -2.636,0.0545 -2.234,-1.3098 -5.051,-2.28456 -5.05,-1.74714 0,0.17983 0.936,0.91786 2.079,1.64006 2.96,1.8713 4.166,3.00766 4.166,3.92592 0,1.39597 -1.226,1.35831 -6.246,-0.19194 -2.692,-0.83113 -4.98,-1.42581 -5.084,-1.32152 -0.104,0.1043 0.276,1.29273 0.846,2.64096 0.949,2.24908 0.978,2.6 0.349,4.25328 -0.834,2.1941 -1.617,2.54229 -2.398,1.06644 z m 0.318,-4.81063 c -0.723,-1.03368 -0.756,-1.03841 -0.756,-0.10852 0,0.53472 0.267,1.23991 0.594,1.56709 0.912,0.91221 1.037,-0.20964 0.162,-1.45857 z m 6.45,-4.01842 c 0,-0.14706 -0.97,-0.69683 -2.156,-1.22172 -1.483,-0.65617 -2.421,-0.81821 -3.003,-0.51863 -1.154,0.59423 -2.047,0.19443 -2.047,-0.91654 0,-1.0039 -0.711,-1.23407 -1.228,-0.39747 -0.186,0.30128 -0.963,0.40678 -1.83,0.2483 -0.828,-0.15157 -1.83,-0.0424 -2.227,0.24252 -0.603,0.43415 -0.581,0.47313 0.139,0.24051 0.493,-0.15932 0.964,-0.004 1.105,0.36513 0.136,0.35349 0.83,0.6594 1.543,0.67979 2.88,0.0823 5.686,0.48083 6.822,0.9687 1.313,0.56419 2.882,0.7326 2.882,0.30941 z m -13.317,-1.67449 c -0.141,-0.53926 -0.364,-0.87306 -0.495,-0.74179 -0.26,0.26006 0.199,1.72226 0.541,1.72226 0.115,0 0.1,-0.44121 -0.05,-0.98047 z m -6.717,-0.42476 c 0.642,-0.2441 1.29,-0.91481 1.44,-1.49047 0.151,-0.57566 0.499,-0.90774 0.773,-0.73795 0.275,0.16978 0.992,-0.004 1.594,-0.38659 0.602,-0.38241 2.229,-0.84436 3.617,-1.02655 1.387,-0.1822 2.401,-0.52726 2.253,-0.7668 -0.148,-0.23955 0.176,-0.43554 0.721,-0.43554 1.396,0 1.245,-0.42597 -0.844,-2.37556 -1.007,-0.94072 -2.224,-2.30905 -2.703,-3.04074 -0.684,-1.04617 -1.011,-1.21329 -1.53,-0.78236 -0.532,0.44169 -0.66,0.29571 -0.66,-0.75271 0,-2.60911 -1.208,-0.87304 -1.851,2.66023 -0.357,1.96355 -0.752,4.10595 -0.877,4.76089 -0.125,0.65494 -1.085,2.00691 -2.133,3.00439 -1.937,1.84409 -1.89,2.16507 0.2,1.36976 z m 4.854,-0.22741 c -0.142,-0.36918 -0.892,-0.76435 -1.666,-0.87815 -1.634,-0.23996 -1.659,-0.21067 -0.654,0.794 0.954,0.95532 2.678,1.01783 2.32,0.0842 z m 10.612,-2.74771 c 0.314,-0.30715 0.232,-0.62169 -0.24,-0.92003 -1.094,-0.69173 -2.398,-0.55409 -2.398,0.25301 0,0.39658 -0.378,0.72436 -0.841,0.72841 -0.72,0.006 -0.737,0.0757 -0.12,0.48549 0.78,0.51759 2.831,0.20602 3.599,-0.54688 z m 49.014,-8.55887 c -0.165,-0.75111 -0.948,-2.09212 -1.74,-2.98003 -1.415,-1.58606 -1.423,-1.62227 -0.431,-2.06504 0.748,-0.33389 1.578,-0.17403 3.205,0.61687 2.492,1.21121 2.965,1.12416 1.732,-0.31858 -0.927,-1.08453 -4.112,-2.12463 -5.212,-1.70215 -0.851,0.32659 -0.901,-0.80936 -0.08,-1.90105 0.544,-0.72616 0.899,-0.74075 3.724,-0.15294 1.717,0.35741 3.663,0.59929 4.323,0.53751 0.667,-0.0624 1.583,0.28536 2.061,0.78212 1.177,1.22572 1.958,1.15978 1.28,-0.10814 -0.295,-0.55141 -0.644,-0.89434 -0.777,-0.76207 -0.132,0.13228 -1.033,-0.30127 -2.002,-0.96344 -1.702,-1.16226 -1.921,-1.18997 -6.327,-0.80021 -2.51,0.22205 -6.942,0.38752 -9.848,0.36771 -4.099,-0.028 -4.988,0.0737 -3.963,0.45332 0.726,0.26914 1.321,0.66391 1.321,0.87726 0,0.57494 -1.814,0.47056 -2.182,-0.12557 -0.175,-0.28241 -0.64,-0.38968 -1.034,-0.23837 -0.449,0.17231 -0.806,-0.0697 -0.957,-0.64757 -0.133,-0.50747 -0.708,-1.03862 -1.277,-1.18032 -2.362,-0.58765 -7.38,-0.79996 -8.722,-0.36905 -1.025,0.32897 -1.164,0.47543 -0.481,0.50692 0.529,0.0244 1.568,0.36086 2.309,0.7478 0.742,0.38694 2.363,0.8225 3.603,0.96791 3.089,0.36217 5.241,1.1171 5.561,1.95116 0.147,0.38379 0.583,0.6978 0.969,0.6978 0.385,0 1.005,0.30401 1.376,0.67557 0.544,0.54467 1.063,0.572 2.677,0.14104 1.1,-0.29399 2.001,-0.70615 2.001,-0.91592 0,-0.20977 0.229,-0.38139 0.509,-0.38139 0.28,0 0.39,0.19172 0.245,0.42605 -0.144,0.23433 0.151,0.53432 0.657,0.66664 0.696,0.18211 0.849,0.0493 0.63,-0.54622 -0.445,-1.20899 -0.994,-1.39954 -3.287,-1.14091 -1.914,0.21593 -2.117,0.14083 -2.117,-0.78515 0,-1.17828 0.331,-1.21086 3.585,-0.35319 1.991,0.5247 2.448,0.85805 2.769,2.02176 0.217,0.78568 1.061,1.81626 1.936,2.36278 1.158,0.72288 1.79,1.67426 2.488,3.74208 0.709,2.10217 1.038,2.58991 1.358,2.01671 0.233,-0.41582 0.288,-1.37059 0.123,-2.1217 z m -4.782,-5.94906 c 0.181,-0.47408 0.449,-0.74087 0.597,-0.59286 0.148,0.148 0,0.53588 -0.328,0.86196 -0.474,0.47121 -0.529,0.416 -0.269,-0.2691 z m -9.398,-0.84886 c 0,-0.27999 0.216,-0.37538 0.48,-0.21199 0.264,0.1634 0.48,0.39249 0.48,0.50908 0,0.11659 -0.216,0.21198 -0.48,0.21198 -0.264,0 -0.48,-0.22908 -0.48,-0.50907 z m -9.849,-2.85585 c -0.163,-0.26438 -0.07,-0.4807 0.212,-0.4807 0.28,0 0.509,0.21632 0.509,0.4807 0,0.26439 -0.09,0.48071 -0.212,0.48071 -0.117,0 -0.345,-0.21632 -0.509,-0.48071 z m 9.849,5.40108 c 0,-0.1443 -0.433,0.12916 -0.961,0.6077 -0.574,0.51921 -0.957,1.46999 -0.95,2.35783 0.01,1.46301 0.03,1.45289 0.96,-0.6077 0.523,-1.15251 0.951,-2.21353 0.951,-2.35783 z m -45.159,-0.12547 c 0,-1.00763 0.133,-2.17668 0.294,-2.59788 0.212,-0.55217 0.08,-0.68582 -0.453,-0.47904 -0.535,0.20554 -0.688,0.74693 -0.539,1.9112 0.165,1.2914 0.06,1.5681 -0.508,1.3497 -0.751,-0.28859 -0.904,0.21769 -0.435,1.44092 0.528,1.37647 1.641,0.27405 1.641,-1.6249 z m 0.759,-6.04426 c 3.037,-1.78125 5.201,-4.52647 6.115,-7.7601 0.632,-2.23683 2.254,-11.10258 2.254,-12.32114 0,-0.16554 0.311,-0.30098 0.692,-0.30098 1.574,0 0.875,7.43003 -1.312,13.93992 -0.881,2.62118 -1.06,3.70449 -0.656,3.97004 1.092,0.71802 2.825,0.96028 3.146,0.43984 0.366,-0.59228 2.454,-0.2063 2.454,0.45363 0,0.23355 0.877,0.42464 1.95,0.42464 1.072,0 1.831,-0.19172 1.687,-0.42605 -0.316,-0.51055 1.617,-1.09138 2.276,-0.68401 0.254,0.15712 -0.05,0.57165 -0.684,0.92118 -1.039,0.57616 -1.056,0.63676 -0.185,0.6489 1.377,0.0192 7.636,-0.7587 15.054,-1.87078 5.194,-0.77889 6.834,-1.22447 8.673,-2.35656 1.247,-0.76783 2.703,-1.53433 3.235,-1.70331 1.796,-0.5703 7.883,-5.13897 12.886,-9.67148 0.583,-0.52877 2.433,-2.15114 4.109,-3.60526 1.677,-1.45412 3.523,-3.07649 4.102,-3.60526 0.58,-0.52878 2.311,-2.90825 3.848,-5.28772 1.537,-2.37948 3.679,-5.51606 4.76,-6.97018 4.773,-6.41816 7.311,-11.26866 7.709,-14.72979 0.177,-1.5487 0.708,-3.8974 1.178,-5.21933 0.471,-1.32193 1.224,-4.56667 1.674,-7.21053 0.9,-5.28827 2.38,-11.10445 3.48,-13.67797 0.391,-0.91323 1.043,-2.64375 1.45,-3.84561 0.406,-1.20185 1.404,-3.02697 2.217,-4.0558 0.812,-1.02884 1.813,-2.54305 2.224,-3.36492 0.673,-1.34677 0.964,-1.4943 2.954,-1.4943 1.214,0 2.511,-0.25121 2.882,-0.55825 0.811,-0.67029 3.073,-0.31529 3.834,0.60139 0.711,0.85767 1.744,0.318 5.368,-2.80533 2.166,-1.86605 2.763,-2.67759 2.763,-3.75639 0,-0.97518 0.613,-2.00738 2.104,-3.54293 1.78,-1.83235 2.153,-2.55868 2.413,-4.70529 0.386,-3.18496 -0.102,-4.86446 -2.309,-7.9383 -1.964,-2.73532 -3.034,-3.55376 -5.811,-4.44431 -1.057,-0.33892 -2.161,-0.80509 -2.453,-1.03592 -0.525,-0.41448 -2.747,-0.93836 -7.851,-1.85151 -1.439,-0.2575 -3.336,-0.80986 -4.216,-1.22745 -0.95,-0.45147 -2.032,-0.62462 -2.667,-0.42713 -1.854,0.57617 -6.569,4.13805 -7.529,5.68776 -0.507,0.81833 -1.315,1.92865 -1.795,2.46737 -1.138,1.27722 -3.034,3.95704 -3.034,4.28741 0,0.14216 -1,1.61105 -2.221,3.2642 -1.222,1.65316 -2.92,4.51995 -3.773,6.37065 -2.868,6.21786 -12.142,13.2265 -20.909,15.80141 -1.453,0.42685 -4.155,1.2272 -6.005,1.77857 -2.651,0.79031 -5.193,1.05701 -12.01,1.26005 -9.458,0.2817 -14.931,-0.2399 -16.965,-1.61687 -1.686,-1.14108 -4.681,-2.0467 -5.8,-1.75383 -0.614,0.16056 -2.688,-1.27949 -6.745,-4.68287 -3.222,-2.70309 -6.224,-5.44299 -6.67,-6.08866 -0.446,-0.64567 -2.496,-3.15655 -4.556,-5.57973 -5.134,-6.04069 -6.831,-9.07907 -8.46,-15.1429 -1.847,-6.87653 -4.149,-14.38491 -5.327,-17.37606 -0.53,-1.34584 -0.964,-2.7602 -0.964,-3.14302 0,-0.60493 -1.01,-2.4773 -3.715,-6.88651 -0.661,-1.07665 -0.721,-1.08773 -1.3,-0.24035 -1.09,1.59286 -1.245,4.81004 -0.51,10.59191 1.355,10.66807 3.893,20.87795 5.771,23.22447 1.124,1.40291 3.65,7.34143 3.4,7.99236 -0.492,1.28236 -1.603,0.63553 -2.376,-1.38271 -0.431,-1.12364 -1.694,-3.77351 -2.807,-5.88859 -2.385,-4.53205 -4.354,-9.63212 -4.335,-11.23356 0,-0.62634 -0.551,-1.77206 -1.24,-2.54603 -0.69,-0.77398 -1.856,-2.31651 -2.593,-3.42786 -1.212,-1.82739 -1.34,-1.9057 -1.342,-0.81887 0,2.47356 2.555,10.50678 4.899,15.38246 4.42,9.19515 7.589,17.03262 7.589,18.77119 0,1.51184 -1.232,1.34981 -4.228,-0.55587 -3.799,-2.41746 -5.654,-4.30782 -7.987,-8.14377 -5.082,-8.35253 -9.308,-11.94302 -5.631,-4.78383 2.008,3.90864 4.443,8.3449 4.882,8.89298 0.212,0.26438 0.982,1.99491 1.71,3.84561 1.284,3.26285 2.898,6.08155 3.67,6.40936 0.719,0.30503 0.374,1.77411 -0.552,2.35317 -0.803,0.50162 -1.096,0.38543 -2.131,-0.84577 -0.66,-0.78501 -1.304,-1.42728 -1.43,-1.42728 -0.126,0 -1.707,-0.84224 -3.514,-1.87164 -4.248,-2.42073 -5.462,-2.80153 -5.222,-1.63862 0.393,1.91044 1.937,4.90921 4.471,8.68557 1.906,2.84045 2.885,3.90382 3.436,3.72903 0.445,-0.14152 1.022,0.15894 1.368,0.71329 0.655,1.04967 0.161,1.29857 -0.756,0.38096 -0.812,-0.81255 -0.721,-0.39047 0.384,1.7786 0.992,1.94514 1.277,4.08596 0.546,4.08596 -0.229,0 -0.993,-0.45422 -1.698,-1.00937 -0.706,-0.55516 -2.178,-1.12946 -3.271,-1.27623 l -1.988,-0.26685 1.644,2.25005 c 0.905,1.23754 1.861,2.61812 2.125,3.06797 0.264,0.44986 1.413,2.29282 2.553,4.09549 1.991,3.14841 2.363,4.63919 1.25,5.01014 -0.287,0.0955 -1.044,-0.34743 -1.682,-0.98431 -1.403,-1.40017 -4.771,-3.34758 -5.145,-2.97408 -0.147,0.14778 0.866,1.89386 2.252,3.88017 1.386,1.98632 2.448,3.98509 2.361,4.44171 -0.1,0.51362 -0.747,0.92189 -1.701,1.07058 l -1.543,0.24035 1.625,2.40028 c 0.893,1.32016 1.513,2.57999 1.377,2.79962 -0.135,0.21964 0.188,0.87004 0.719,1.44533 0.531,0.5753 1.662,2.53062 2.513,4.34515 1.234,2.63054 1.416,3.3801 0.901,3.69858 -0.422,0.26116 -0.627,1.28236 -0.591,2.94997 0.05,2.0895 0.497,3.37602 2.503,7.11721 1.346,2.51167 2.667,5.06974 2.935,5.68462 0.855,1.9659 3.346,5.30793 5.645,7.5762 2.154,2.12451 2.247,2.16442 2.629,1.12997 0.276,-0.74622 0.168,-1.32464 -0.354,-1.90204 -0.686,-0.75856 -0.666,-0.85172 0.23,-1.08617 0.653,-0.17084 0.98,-0.65295 0.98,-1.44433 0,-1.71827 1.091,-2.48982 2.395,-1.69374 0.909,0.55468 1.139,0.49523 1.96,-0.50636 l 0.929,-1.13483 v 1.255 c 0,1.07937 -0.206,1.25501 -1.469,1.25501 -0.809,0 -1.346,0.20137 -1.194,0.44749 0.152,0.24612 0.05,0.59056 -0.237,0.76544 -0.749,0.46293 -0.118,5.60113 1.011,8.23676 0.792,1.84972 1.053,2.10157 1.655,1.60147 0.496,-0.41223 0.715,-0.42868 0.715,-0.0539 0,0.29676 0.324,0.53956 0.72,0.53956 0.396,0 0.721,0.22044 0.721,0.48987 0,0.28248 -0.509,0.36217 -1.201,0.18823 -0.661,-0.16589 -1.201,-0.15579 -1.201,0.0225 0,0.68947 1.154,2.45334 1.998,3.05215 0.486,0.34548 0.884,0.90682 0.884,1.24743 0,0.9888 2.793,3.12723 4.719,3.61346 0.08,0.0215 1.113,-0.52317 2.285,-1.21031 z m -6.303,-1.66684 c -0.174,-0.28197 -0.214,-0.61577 -0.09,-0.74178 0.126,-0.12601 0.357,0.1047 0.514,0.51268 0.325,0.84705 0.05,0.99605 -0.426,0.2291 z m 25.721,-2.37152 c 0,-0.26439 0.229,-0.4807 0.509,-0.4807 0.28,0 0.375,0.21631 0.212,0.4807 -0.163,0.26438 -0.392,0.4807 -0.509,0.4807 -0.116,0 -0.212,-0.21632 -0.212,-0.4807 z m -8.887,-0.4807 c -0.163,-0.26439 -0.07,-0.48071 0.212,-0.48071 0.28,0 0.509,0.21632 0.509,0.48071 0,0.26438 -0.1,0.4807 -0.212,0.4807 -0.117,0 -0.346,-0.21632 -0.509,-0.4807 z m 6.485,0.0284 c 0,-0.24879 0.214,-0.5845 0.475,-0.74602 0.273,-0.16841 0.353,0.0245 0.189,0.45233 -0.319,0.83277 -0.664,0.98514 -0.664,0.29369 z m -4.894,-0.35675 c 0.347,-0.13886 0.761,-0.12178 0.921,0.038 0.16,0.15973 -0.124,0.27335 -0.63,0.25248 -0.56,-0.0231 -0.674,-0.13698 -0.291,-0.29043 z m 27.598,-1.85785 c -0.327,-0.35594 -0.404,-0.76551 -0.17,-0.91016 0.234,-0.14465 0.561,0.0912 0.727,0.52409 0.397,1.03619 0.18,1.18672 -0.557,0.38607 z m -28.285,-0.9929 c -0.349,-1.39285 -0.03,-1.85828 0.989,-1.46512 0.442,0.16973 0.614,0.59112 0.434,1.06107 -0.254,0.66152 -0.03,0.73609 1.505,0.4926 0.993,-0.15781 1.996,-0.40502 2.229,-0.54936 0.233,-0.14433 0.424,-0.0699 0.424,0.16542 0,0.67668 -2.015,1.48005 -3.722,1.48386 -1.261,0.003 -1.617,-0.22468 -1.859,-1.18847 z m 22.249,0.46822 c -0.601,-0.60121 0.226,-1.13448 1.736,-1.11942 1.452,0.0145 1.484,0.0526 0.601,0.72105 -0.996,0.75366 -1.839,0.8973 -2.337,0.39837 z m -13.785,-1.16308 c 0,-0.27999 0.216,-0.37538 0.48,-0.21198 0.265,0.1634 0.481,0.39248 0.481,0.50907 0,0.11659 -0.216,0.21198 -0.481,0.21198 -0.264,0 -0.48,-0.22908 -0.48,-0.50907 z m 21.138,-0.45233 c 0,-0.26439 0.324,-0.4807 0.72,-0.4807 0.397,0 0.721,0.21631 0.721,0.4807 0,0.26439 -0.324,0.4807 -0.721,0.4807 -0.396,0 -0.72,-0.21631 -0.72,-0.4807 z m -26.903,-0.4807 c 0.94,-0.60781 1.922,-0.60781 1.922,0 0,0.26438 -0.595,0.47739 -1.321,0.47334 -1.03,-0.006 -1.163,-0.11023 -0.601,-0.47334 z m 4.564,-2.88421 c -0.163,-0.26439 -0.07,-0.4807 0.212,-0.4807 0.28,0 0.508,0.21631 0.508,0.4807 0,0.26438 -0.09,0.4807 -0.211,0.4807 -0.117,0 -0.346,-0.21632 -0.509,-0.4807 z m -28.584,-0.50178 c 0,-0.27597 -0.356,-0.43821 -0.791,-0.36052 -0.435,0.0777 -0.886,-0.12915 -1.001,-0.45963 -0.133,-0.37986 0.247,-0.60088 1.031,-0.60088 0.921,0 1.241,0.2481 1.241,0.9614 0,0.52878 -0.108,0.96141 -0.24,0.96141 -0.132,0 -0.24,-0.2258 -0.24,-0.50178 z m -2.042,-3.18149 c 0.33,-0.13336 0.6,-0.54891 0.6,-0.92346 0,-0.37454 0.325,-0.68099 0.721,-0.68099 0.396,0 0.721,0.0927 0.721,0.20601 0,0.46154 -1.549,1.71417 -2.076,1.67884 -0.399,-0.0267 -0.389,-0.10982 0.03,-0.2804 z m -5.549,-1.70059 c -0.694,-0.69459 -0.77,-1.52237 -0.101,-1.10902 0.273,0.16887 0.352,-0.0257 0.186,-0.45778 -0.193,-0.5045 -0.07,-0.66882 0.366,-0.49999 0.36,0.13831 0.685,0.78971 0.724,1.44756 0.08,1.31238 -0.29,1.50491 -1.175,0.61923 z m -1.537,-2.33574 c 0,-0.27999 0.216,-0.37538 0.48,-0.21198 0.265,0.1634 0.481,0.39248 0.481,0.50907 0,0.11659 -0.216,0.21198 -0.481,0.21198 -0.264,0 -0.48,-0.22908 -0.48,-0.50907 z m 1.449,-0.81286 c 0,-0.19829 0.216,-0.685 0.473,-1.08158 0.376,-0.58307 0.467,-0.51408 0.473,0.36053 0,0.59487 -0.209,1.08158 -0.473,1.08158 -0.265,0 -0.477,-0.16224 -0.473,-0.36053 z m 15.015,-0.44011 c -1.301,-0.63027 -1.47,-0.89451 -1.062,-1.65706 0.267,-0.49897 0.68,-0.90721 0.918,-0.90721 0.547,0 9.628,-5.44215 9.423,-5.64722 -0.08,-0.0834 -4.994,0.21605 -10.912,0.66542 -11.514,0.87435 -13.39,0.75947 -13.39,-0.82031 0,-1.31773 2.213,-2.16644 6.726,-2.57996 1.982,-0.18157 4.892,-0.65912 6.468,-1.06121 2.544,-0.64902 8.143,-1.72804 12.632,-2.4342 2.875,-0.45209 2.06,-0.97289 -2.416,-1.5444 -2.438,-0.31142 -6.271,-0.99649 -8.517,-1.52239 -2.246,-0.5259 -5.489,-1.28723 -7.206,-1.69184 -1.718,-0.40462 -4.069,-1.15334 -5.226,-1.66382 -1.156,-0.51048 -2.484,-0.92815 -2.951,-0.92815 -2.087,0 -1.151,-2.6005 1.124,-3.12349 0.576,-0.1324 2.453,-0.56216 4.17,-0.95502 3.989,-0.91251 7.395,-0.91666 10.373,-0.0127 3.342,1.01442 8.945,0.91184 13.2,-0.24169 3.875,-1.05049 9.929,-2.45941 14.836,-3.45233 2.768,-0.56028 1.202,-0.62728 -14.697,-0.62884 l -17.795,-0.002 -2.676,-1.77792 c -3.863,-2.56633 -6.198,-5.95143 -5.201,-7.54018 0.429,-0.68463 10.579,-1.05473 29.399,-1.07211 7.606,-0.007 9.444,-0.179 16.759,-1.56804 11.536,-2.19087 15.492,-3.26762 20.078,-5.46548 3.453,-1.65501 7.009,-4.67816 7.565,-6.43177 0.43,-1.35306 1.661,-1.11018 1.661,0.3275 0,1.86162 -4.176,5.76123 -8.053,7.52045 -4.793,2.1744 -7.986,3.08886 -16.591,4.75049 -4.281,0.82664 -8.648,1.69606 -9.705,1.93205 -1.057,0.23598 -9.596,0.54282 -18.976,0.68185 -17.201,0.25495 -20.177,0.42628 -20.177,1.16162 0,0.59236 3.559,3.708 5.214,4.56419 2.204,1.14072 29.758,1.52889 38.19,0.53802 6.311,-0.74168 8,-0.54556 8,0.92926 0,0.9888 -0.76,1.31743 -4.535,1.96052 -9.489,1.61653 -12.489,2.27074 -23.329,5.08736 -6.043,1.57027 -8.734,1.59548 -13.775,0.12908 -1.881,-0.54722 -3.455,-0.6774 -5.372,-0.4443 -3.965,0.48222 -7.311,1.2443 -7.083,1.61341 0.383,0.61935 6.834,2.47902 13.98,4.02954 9.244,2.00596 14.415,2.03895 23.932,0.15265 3.651,-0.72361 6.786,-1.16743 6.966,-0.98625 0.7,0.7027 -2.016,2.1309 -5.8,3.05043 -2.178,0.5293 -5.784,1.5218 -8.014,2.20556 -2.23,0.68375 -7.634,1.99981 -12.01,2.92456 -12.58,2.65833 -13.126,2.96126 -3.873,2.14733 8.909,-0.78372 10.736,-0.97038 12.084,-1.23478 1.441,-0.2826 2.424,0.71139 1.331,1.34616 -0.376,0.21874 -2.522,1.50648 -4.768,2.86165 -2.246,1.35516 -5.164,3.07841 -6.485,3.82945 -1.704,0.96867 -2.123,1.3854 -1.442,1.43389 2.566,0.18251 6.314,-0.22375 9.935,-1.07702 2.199,-0.51788 4.862,-1.12725 5.919,-1.35415 3.185,-0.68389 9.118,-2.51957 10.809,-3.34426 0.396,-0.19334 2.342,-0.83869 4.324,-1.43412 16.735,-5.0284 20.693,-6.67173 25.022,-10.39029 2.357,-2.02351 6.487,-5.04408 6.897,-5.04408 0.09,0 0.29,0.32718 0.444,0.72706 0.193,0.50306 -0.793,1.52017 -3.2,3.30121 -1.913,1.41577 -3.799,2.96465 -4.191,3.44195 -1.108,1.35094 -9.762,5.19555 -15.604,6.93293 -2.907,0.86427 -9.132,2.84613 -13.834,4.40414 -9.268,3.07103 -17.121,5.08352 -21.406,5.48563 -1.492,0.14004 -3.578,0.3442 -4.636,0.45369 -1.149,0.11887 -2.547,-0.10304 -3.471,-0.55076 z m -18.386,-0.21666 c 0,-0.23364 0.307,-0.42481 0.681,-0.42481 0.374,0 0.757,-0.22869 0.85,-0.50821 0.09,-0.27952 0.552,-0.36102 1.021,-0.18112 0.468,0.17989 0.779,0.5452 0.69,0.81178 -0.2,0.60256 -3.242,0.8862 -3.242,0.30236 z m -1.652,-2.94849 c 0.02,-0.85926 -0.172,-1.83268 -0.419,-2.16316 -0.33,-0.44206 -0.115,-0.60088 0.812,-0.60088 1.343,0 1.793,1.26753 0.61,1.72163 -0.397,0.15232 -0.562,0.7076 -0.424,1.42702 0.123,0.64772 0.04,1.17767 -0.192,1.17767 -0.229,0 -0.403,-0.70303 -0.387,-1.56228 z m 7.177,1.08158 c 0.163,-0.26439 0.392,-0.4807 0.509,-0.4807 0.116,0 0.212,0.21631 0.212,0.4807 0,0.26438 -0.229,0.4807 -0.509,0.4807 -0.28,0 -0.375,-0.21632 -0.212,-0.4807 z m -9.833,-5.08193 c 0.634,-0.77879 0.62,-0.83459 -0.135,-0.55123 -0.463,0.17339 -0.841,0.12888 -0.841,-0.0989 0,-0.2278 0.321,-0.5373 0.712,-0.68777 0.456,-0.17483 0.595,-0.58381 0.388,-1.13301 -0.295,-0.7774 -0.254,-0.78824 0.427,-0.11359 1.059,1.04899 0.869,3.04173 -0.311,3.26896 -0.855,0.1647 -0.878,0.0994 -0.24,-0.68444 z m 2.387,-0.68649 c -0.433,-0.27999 -0.492,-0.46892 -0.149,-0.47335 0.315,-0.004 0.706,0.20896 0.869,0.47335 0.369,0.5968 0.203,0.5968 -0.72,0 z m -4.804,-2.40351 c 0,-0.26439 0.209,-0.4807 0.465,-0.4807 0.256,0 0.348,-0.37856 0.204,-0.84123 -0.247,-0.79547 -0.232,-0.79526 0.281,0.004 0.559,0.86956 0.301,1.79883 -0.498,1.79883 -0.249,0 -0.452,-0.21632 -0.452,-0.4807 z m 2.642,-0.96141 c -0.163,-0.26438 -0.07,-0.4807 0.212,-0.4807 0.28,0 0.509,0.21632 0.509,0.4807 0,0.26439 -0.1,0.48071 -0.212,0.48071 -0.117,0 -0.346,-0.21632 -0.509,-0.48071 z m -2.642,-4.32631 c 0,-0.26439 0.229,-0.4807 0.508,-0.4807 0.28,0 0.376,0.21631 0.212,0.4807 -0.163,0.26438 -0.392,0.4807 -0.508,0.4807 -0.117,0 -0.212,-0.21632 -0.212,-0.4807 z m 3.603,-0.96141 c -0.164,-0.26438 -0.07,-0.4807 0.212,-0.4807 0.279,0 0.508,0.21632 0.508,0.4807 0,0.26439 -0.1,0.48071 -0.212,0.48071 -0.116,0 -0.345,-0.21632 -0.508,-0.48071 z m -1.916,-2.53178 c -0.109,-0.32603 -0.44,-1.53625 -0.736,-2.68938 -0.355,-1.38766 -0.851,-2.17871 -1.465,-2.3394 -0.51,-0.13354 -0.928,-0.44665 -0.928,-0.6958 0,-0.24915 0.194,-0.33358 0.43,-0.18761 0.236,0.14597 0.567,-0.28751 0.737,-0.96328 0.186,-0.74068 0.871,-1.46532 1.724,-1.82448 1.346,-0.56639 1.38,-0.64834 0.671,-1.66025 -0.41,-0.58545 -0.98,-0.91925 -1.267,-0.74179 -0.287,0.17747 -0.389,0.10907 -0.228,-0.152 0.161,-0.26107 -0.237,-1.25451 -0.884,-2.20764 -0.647,-0.95312 -1.131,-2.28715 -1.075,-2.96451 0.09,-1.03694 0.339,-1.23155 1.602,-1.23155 0.825,0 2.508,0.30338 3.739,0.67419 1.251,0.37662 2.356,0.48515 2.504,0.24589 0.372,-0.60322 -1.539,-4.76569 -2.189,-4.76569 -0.295,0 -0.405,-0.21092 -0.246,-0.46871 0.159,-0.25779 -0.571,-1.40281 -1.623,-2.54448 -1.347,-1.46241 -1.789,-2.2759 -1.494,-2.75308 0.23,-0.37252 0.33,-0.82099 0.221,-0.99661 -0.29,-0.46976 4.055,0.40346 6.156,1.23706 0.996,0.39534 2.029,0.7188 2.296,0.7188 0.597,0 -2.148,-5.20054 -3.698,-7.00502 -1.163,-1.35416 -1.468,-2.8239 -0.688,-3.30676 0.556,-0.34362 7.419,2.75784 9.383,4.24018 0.805,0.60799 2.869,1.76834 4.587,2.57856 9.333,4.40296 9.495,3.72479 1.201,-5.03688 -3.955,-4.17796 -4.431,-4.99492 -5.625,-9.65338 -1.562,-6.1 0.06,-7.77748 3.916,-4.05133 0.676,0.65265 2.101,1.75836 3.168,2.45713 2.228,1.45968 5.566,4.1055 9.315,7.38395 1.677,1.4658 3.821,2.73373 6.005,3.55043 1.869,0.69871 5.56,2.19744 8.202,3.3305 5.539,2.37537 8.941,3.11023 14.38,3.10633 3.766,-0.003 5.652,-0.24589 12.399,-1.59901 3.135,-0.6287 3.727,-0.59273 3.727,0.22637 0,0.86851 -8.034,2.48239 -15.472,3.10781 -3.816,0.32093 -10.192,-0.89549 -14.124,-2.69475 -1.822,-0.83349 -5.366,-2.28371 -7.876,-3.22272 -4.775,-1.78615 -6.424,-2.83658 -11.921,-7.59211 -4.234,-3.66228 -10.013,-7.93591 -10.318,-7.63034 -0.358,0.35771 1.068,5.44069 2.086,7.43776 0.497,0.97445 1.735,2.498 2.751,3.38566 1.016,0.88767 2.482,2.4792 3.258,3.53674 0.776,1.05754 1.973,2.4663 2.662,3.13057 1.427,1.37724 2.835,3.89356 2.835,5.06589 0,0.64762 -0.375,0.75264 -2.042,0.57177 -2.355,-0.25555 -7.799,-2.25049 -10.468,-3.83545 -6.247,-3.71107 -8.196,-4.75557 -8.608,-4.6128 -0.497,0.17262 1.377,3.28595 3.859,6.40985 2.139,2.69081 2.673,3.97182 1.955,4.68952 -0.449,0.44951 -1.559,0.0721 -5.007,-1.70303 -2.437,-1.25429 -4.689,-2.27713 -5.006,-2.27298 -0.317,0.004 0.317,1.30379 1.41,2.88809 1.651,2.39459 2.021,3.3594 2.192,5.71883 0.183,2.53025 0.1,2.87204 -0.775,3.14941 -0.539,0.17113 -1.778,-0.0229 -2.755,-0.43111 -1.896,-0.79282 -3.581,-0.97259 -3.577,-0.38172 0,0.19829 0.785,1.21323 1.741,2.25542 2.145,2.337 2.806,4.29946 1.792,5.31503 -0.397,0.39691 -1.037,0.72166 -1.423,0.72166 -1.099,0 -1.242,1.06646 -0.445,3.32657 0.404,1.14511 0.735,2.46431 0.735,2.93156 0,1.00217 -1.388,1.68472 -1.676,0.82412 z m 87.668,-5.61469 c 0,-0.25038 1.027,-1.83984 2.282,-3.53212 1.255,-1.69228 2.65,-3.75873 3.1,-4.59212 0.84,-1.5549 1.824,-2.02205 1.824,-0.86579 0,1.24168 -2.489,5.37169 -4.461,7.40229 -1.961,2.01965 -2.745,2.47281 -2.745,1.58774 z m -92.238,-1.46756 c 0,-0.26439 0.216,-0.4807 0.481,-0.4807 0.264,0 0.48,0.21631 0.48,0.4807 0,0.26438 -0.216,0.4807 -0.48,0.4807 -0.265,0 -0.481,-0.21632 -0.481,-0.4807 z m 0,-26.69057 c -0.335,-0.40296 -0.515,-0.82576 -0.401,-0.93954 0.113,-0.11378 0.47,0.21592 0.793,0.73267 0.697,1.1175 0.465,1.24019 -0.392,0.20687 z m -2.393,-6.95855 c 0,-0.26439 0.337,-0.48071 0.749,-0.48071 0.412,0 0.616,0.21632 0.452,0.48071 -0.163,0.26438 -0.5,0.4807 -0.749,0.4807 -0.248,0 -0.452,-0.21632 -0.452,-0.4807 z m -0.961,-0.72106 c 0,-0.39658 0.21,-0.72105 0.466,-0.72105 0.256,0 0.341,0.32447 0.189,0.72105 -0.153,0.39658 -0.362,0.72106 -0.466,0.72106 -0.104,0 -0.189,-0.32448 -0.189,-0.72106 z m 119.082,-9.49386 c -0.316,-0.59487 -0.947,-1.34648 -1.402,-1.67024 -0.456,-0.32377 -0.991,-1.29719 -1.189,-2.16316 -0.468,-2.03798 -0.487,-8.84933 -0.03,-10.70783 0.236,-0.96156 0.202,-1.22478 -0.104,-0.7899 -0.32,0.4558 -0.557,0.49199 -0.786,0.12017 -0.181,-0.29261 -0.05,-0.55697 0.3,-0.58747 1.317,-0.11613 1.619,-0.20614 2.633,-0.78474 0.574,-0.32746 2.563,-1.14379 4.42,-1.81408 l 3.376,-1.2187 2.885,1.17289 c 1.586,0.64509 3.375,1.51651 3.974,1.93648 l 1.089,0.7636 h -1.098 c -0.605,0 -2.167,-0.45954 -3.471,-1.02121 -2.657,-1.14366 -3.952,-1.04071 -8.015,0.63711 -3.377,1.39503 -4.696,3.88247 -4.31,8.13406 0.147,1.62751 0.64,3.40116 1.144,4.11606 2.672,3.79442 3.109,4.95854 1.862,4.95854 -0.387,0 -0.962,-0.48671 -1.277,-1.08158 z m 20.236,-12.25517 c -1.877,-0.33606 -2.402,-1.04235 -2.402,-3.23182 0,-3.54832 2.78,-4.68527 5.297,-2.16657 0.949,0.95026 1.277,3.55178 0.581,4.60983 -0.467,0.70949 -1.989,1.05474 -3.476,0.78856 z m 2.597,-2.66196 c 0.362,-0.57454 0.338,-0.96537 -0.09,-1.38946 -0.466,-0.4663 -0.589,-0.35648 -0.589,0.52351 0,0.95373 -0.189,1.07756 -1.312,0.86263 -1.234,-0.23598 -1.257,-0.21024 -0.38,0.43114 1.082,0.79152 1.665,0.68613 2.367,-0.42782 z m -65.05,106.85134 c 0,-0.26438 -0.229,-0.4807 -0.508,-0.4807 -0.28,0 -0.376,0.21632 -0.212,0.4807 0.163,0.26439 0.392,0.48071 0.509,0.48071 0.116,0 0.211,-0.21632 0.211,-0.48071 z m -57.168,-11.98917 c 0,-0.24878 -0.216,-0.58602 -0.48,-0.74942 -0.265,-0.1634 -0.481,0.0401 -0.481,0.45233 0,0.41218 0.216,0.74942 0.481,0.74942 0.264,0 0.48,-0.20355 0.48,-0.45233 z m 127.788,-79.82486 c 0,-0.26439 -0.378,-0.47739 -0.841,-0.47334 -0.718,0.006 -0.736,0.0751 -0.12,0.47334 0.907,0.58627 0.961,0.58627 0.961,0 z"
       id="path1" /></g></svg>
