<?xml version="1.0" encoding="UTF-8" standalone="no"?>
<!-- Created with Inkscape (http://www.inkscape.org/) -->

<svg
   width="231.38646"
   height="235.24007"
   viewBox="0 0 61.221 62.240601"
   version="1.1"
   id="svg1"
   xml:space="preserve"
   xmlns="http://www.w3.org/2000/svg"
   xmlns:svg="http://www.w3.org/2000/svg"><defs
     id="defs1" /><g
     id="g1727"
     transform="matrix(0.26458333,0,0,0.26458333,-4161.9382,-202.28629)"><path
       style="fill:#000000"
       d="m 15845.854,966.82011 c -3.426,-0.19972 -13.762,-1.99341 -18.763,-3.25605 -4.254,-1.07418 -10.819,-3.37677 -12.837,-4.5023 -0.481,-0.26821 -1.924,-0.94274 -3.207,-1.49895 -3.566,-1.54577 -8.643,-4.93026 -14.746,-9.82943 -5.696,-4.57324 -6.061,-4.91251 -8.783,-8.16633 -8.797,-10.51712 -14.796,-22.1009 -17.661,-34.10399 -3.061,-12.82149 -2.438,-28.31468 1.639,-40.78516 1.81,-5.53587 7.756,-17.06761 10.564,-20.4887 0.556,-0.67738 1.444,-1.8392 1.974,-2.58183 3.829,-5.37361 6.799,-8.58614 12.466,-13.48556 1.83,-1.58135 3.562,-3.10162 3.849,-3.37837 0.288,-0.27675 1.584,-1.22868 2.882,-2.1154 1.298,-0.88672 2.725,-1.95721 3.172,-2.37885 0.94,-0.8868 2.668,-1.87194 7.699,-4.38894 6.436,-3.22024 12.27,-5.38063 18.762,-6.94736 16.175,-3.90342 35.751,-2.05149 50.996,4.82413 3.87,1.74544 5.815,2.86048 12.027,6.89541 5.737,3.72636 12.317,9.6392 15.826,14.22095 0.809,1.05674 1.801,2.26371 2.204,2.68215 0.403,0.41844 0.732,0.93029 0.732,1.13743 0,0.20715 0.596,1.08338 1.323,1.94717 1.739,2.06386 4.605,6.76896 5.411,8.88355 0.353,0.92465 0.898,2.00542 1.213,2.40169 1.835,2.31388 6.474,15.81238 6.498,18.907 0,0.82905 0.222,2.37198 0.479,3.42872 0.928,3.812 1.051,16.20949 0.22,22.21961 -0.763,5.52125 -0.987,6.55803 -3.071,14.18044 -1.105,4.0393 -6.192,14.93763 -7.962,17.05544 -0.599,0.71667 -1.473,2.05188 -1.944,2.96714 -1.437,2.79821 -9.64,12.96335 -12.269,15.20581 -12.778,10.89623 -21.263,15.52881 -34.62,18.90164 -8.171,2.06329 -14.535,2.60498 -24.073,2.04894 z m 14.331,-2.06447 c 7.357,-0.80236 14.579,-2.83527 22.612,-6.36527 4.448,-1.95434 5.988,-2.85887 12.724,-7.47475 4.009,-2.74764 12.369,-10.6008 14.815,-13.91749 0.653,-0.88453 1.64,-2.18144 2.194,-2.88203 3.183,-4.02671 8.023,-12.51373 10.038,-17.60527 4.704,-11.88515 5.758,-17.46878 5.758,-30.50146 -10e-4,-12.46773 -1.33,-20.44381 -4.643,-27.8596 -4.643,-10.39363 -8.811,-17.19692 -14.7,-23.99721 -2.75,-3.17417 -3.104,-3.52281 -6.361,-6.26408 -1.412,-1.18884 -2.915,-2.48575 -3.339,-2.88203 -1.054,-0.98512 -4.755,-3.53895 -10.131,-6.991 -2.076,-1.33288 -7.767,-3.81094 -12.245,-5.33149 -15.126,-5.13667 -32.356,-5.55146 -47.619,-1.14637 -9.998,2.88558 -21.842,9.12366 -28.416,14.96628 -0.794,0.7055 -3.132,2.73503 -5.196,4.51007 -4.875,4.19248 -8.583,8.53314 -13.234,15.49356 -8.143,12.18406 -11.728,22.27171 -12.719,35.78719 -0.425,5.80477 -0.421,8.88937 0.02,13.20929 0.882,8.64812 3.83,19.11218 6.692,23.75925 0.607,0.98544 1.109,1.95813 1.114,2.16152 0.02,0.67698 4.519,8.04581 7.641,12.5138 5.735,8.2066 16.217,16.91465 26.463,21.98571 9.061,4.48455 13.778,5.97817 24.819,7.85945 9.083,1.54749 15.881,1.82612 23.713,0.97193 z m -12.166,-6.72371 c -1.588,-0.21233 -5.052,-0.61652 -7.698,-0.89819 -8.275,-0.88093 -12.301,-1.82914 -18.915,-4.45532 -4.412,-1.75157 -7.034,-3.10074 -8.419,-4.33157 -1.107,-0.9832 -2.235,-1.79377 -2.506,-1.80127 -0.755,-0.0208 -7.79,-5.70395 -11.2,-9.04742 -1.669,-1.63606 -3.252,-2.97466 -3.519,-2.97466 -0.727,0 -5.669,-5.24157 -6.536,-6.9323 -0.416,-0.81049 -0.905,-1.58169 -1.086,-1.71378 -0.484,-0.35293 -2.134,-3.64173 -3.615,-7.20507 -0.713,-1.71721 -1.589,-3.77492 -1.947,-4.57269 -0.357,-0.79778 -1.192,-3.28353 -1.854,-5.52389 -0.663,-2.24036 -1.423,-4.72185 -1.69,-5.5144 -0.266,-0.79256 -0.947,-3.49446 -1.513,-6.00423 -1.18,-5.66719 -1.337,-8.26006 -1.596,-13.69887 0.2,-5.42508 0.471,-7.35063 1.411,-10.03859 0.64,-1.82925 1.808,-5.64328 2.596,-8.47562 1.346,-4.84218 3.175,-8.9063 5.498,-12.21413 1.109,-1.57896 3.942,-6.1324 4.83,-7.76379 1.004,-1.84446 9.011,-10.23027 12.027,-12.59651 6.803,-5.33856 10.419,-7.47896 21.437,-12.69012 5.639,-2.66747 15.66,-5.07853 24.613,-5.92218 5.427,-0.51144 17.484,1.85708 29.052,5.70723 7.335,2.44118 16.135,7.74409 20.628,12.4309 1.612,1.68185 3.941,3.96621 5.176,5.07636 5.599,5.03507 11.579,14.99209 13.645,22.71896 2.603,9.73783 3.056,11.55928 4.082,16.4326 1.344,6.38197 1.145,12.63436 -0.685,21.45806 -0.678,3.2715 -1.126,6.12065 -0.996,6.33145 0.131,0.2108 -0.296,1.16789 -0.948,2.12687 -0.652,0.95899 -1.514,2.87359 -1.916,4.25468 -1.836,6.30736 -8.652,17.55293 -14.51,23.94077 -1.379,1.50365 -3.108,3.5571 -3.842,4.56321 -1.156,1.58556 -4.188,4.43942 -9.593,9.0288 -2.378,2.01943 -9.407,5.32397 -12.749,5.99345 -1.72,0.34458 -5.292,1.12433 -7.938,1.73276 -4.468,1.02747 -16.227,3.16431 -16.651,3.02576 -0.103,-0.0337 -1.486,-0.23493 -3.073,-0.44726 z m 11.33,-3.05331 c 3.558,-0.63806 7.011,-1.36271 7.673,-1.61034 0.661,-0.24763 3.259,-0.84192 5.773,-1.32065 4.269,-0.81307 7.697,-1.87656 7.697,-2.38792 0,-0.12194 -0.648,-0.0923 -1.44,0.0659 -1.692,0.33772 -4.333,-0.6199 -4.333,-1.57076 0,-0.79282 0.683,-0.84538 1.98,-0.15241 1.573,0.84054 5.717,-0.94801 5.717,-2.46731 0,-0.24632 -0.703,-0.393 -1.563,-0.32595 -1.506,0.11746 -1.559,0.0616 -1.43,-1.52653 0.164,-2.0114 0.853,-2.91477 2.224,-2.91477 0.57,0 1.5,-0.32418 2.067,-0.7204 1.095,-0.76586 2.706,-0.487 2.423,0.41933 -0.09,0.29769 -0.833,0.87881 -1.644,1.29138 -1.248,0.63495 -1.385,0.87186 -0.894,1.54281 0.934,1.27578 0.304,3.58926 -1.358,4.98605 -1.406,1.18142 -1.427,1.24191 -0.306,0.89039 2.99,-0.93748 11.896,-8.51526 16.376,-13.93344 6.471,-7.82648 7.295,-8.98153 6.777,-9.49855 -0.298,-0.29728 -0.541,-1.38644 -0.541,-2.42034 v -1.87982 l -2.106,0.31525 c -1.643,0.24605 -2.167,0.15543 -2.385,-0.41279 -0.268,-0.6953 0.151,-4.58555 1.479,-4.55888 1.051,3.59836 2.08,2.86327 2.713,2.23082 1.289,-1.28642 1.992,-3.56242 2.374,-2.56923 0.139,0.36308 0.139,2.22746 0,4.14306 -0.18,2.46866 -0.1,3.38771 0.276,3.156 0.505,-0.31188 5.346,-8.20256 5.346,-8.71448 0,-0.13501 0.621,-1.5874 1.381,-3.22755 1.914,-4.13628 4.757,-12.6319 5.096,-15.2307 0.155,-1.18883 0.524,-3.22863 0.82,-4.53287 0.697,-3.06595 0.178,-13.82837 -0.801,-16.59813 -0.398,-1.1253 -0.723,-2.6807 -0.723,-3.45645 0,-1.2907 -0.965,-4.99448 -1.917,-7.35502 -0.213,-0.52837 -0.769,-2.73847 -1.235,-4.91133 -1.568,-7.30054 -9.446,-19.43534 -14.642,-22.5528 -0.665,-0.39907 -2.075,-1.819 -3.133,-3.15542 -1.986,-2.50754 -8.606,-7.15355 -14.238,-9.99184 -5.985,-3.01646 -22.145,-7.52971 -28.579,-7.98178 -3.446,-0.24207 -3.753,-0.19668 -2.932,0.43315 0.589,0.45189 0.902,1.2564 0.873,2.24909 -0.04,1.45513 0.05,1.53658 1.481,1.39251 1.145,-0.11482 1.566,0.0564 1.688,0.68618 0.195,1.00955 -1.077,1.54922 -4.598,1.95016 -2.398,0.27301 -2.526,0.23164 -2.526,-0.81618 0,-0.60707 0.433,-1.495 0.962,-1.97317 0.529,-0.47817 0.962,-1.09528 0.962,-1.37136 0,-0.30769 -0.223,-0.27888 -0.577,0.0744 -0.317,0.31702 -0.859,0.5764 -1.203,0.5764 -0.785,0 -0.82,-2.01455 -0.05,-2.78596 0.657,-0.65571 -0.06,-0.76724 -1.844,-0.28831 -0.824,0.22078 -1.031,0.6532 -1.053,2.19411 -0.04,2.81025 -0.555,4.72287 -1.275,4.72287 -0.936,0 -1.121,-0.91249 -0.755,-3.72262 0.323,-2.47603 0.306,-2.52147 -0.908,-2.5049 -1.32,0.018 -4.246,0.66492 -11.58,2.5596 -4.739,1.22438 -15.223,6.06178 -20.206,9.32367 -6.961,4.55636 -13.78,10.83734 -17.484,16.10496 -7.668,10.90513 -10.9,16.65038 -10.9,19.37543 0,0.41345 -0.617,2.6209 -1.37,4.90545 -0.754,2.28455 -1.674,5.23448 -2.045,6.55541 -0.837,2.98197 -0.842,13.42947 0,16.81183 0.326,1.32093 0.882,4.13091 1.236,6.24439 0.354,2.11349 1.219,5.35577 1.922,7.20507 0.703,1.8493 1.815,4.98351 2.471,6.9649 1.514,4.57277 4.038,9.89558 5.963,12.57088 1.591,2.21305 14.629,14.71083 17.137,16.4279 0.821,0.56229 2.445,1.66534 3.608,2.45123 1.163,0.78588 2.97,2.13996 4.014,3.00906 1.044,0.86911 2.776,1.81515 3.849,2.10232 1.072,0.28717 3.573,1.23336 5.558,2.10266 4.213,1.84553 13.212,3.58077 19.003,3.66402 2.117,0.0304 4.498,0.22034 5.292,0.42201 2.398,0.60931 3.629,0.52862 10.368,-0.67975 z m -16.81,-1.42513 c -1.561,-1.65971 -1.501,-4.01184 0.139,-5.4204 1.486,-1.27592 3.047,-1.4317 4.406,-0.43957 1.119,0.81719 0.794,1.2347 -1.326,1.70016 l -1.588,0.34867 2.015,0.56704 c 1.301,0.36585 2.127,0.91628 2.329,1.55141 0.83,2.61138 -3.86,3.94014 -5.975,1.69269 z m 2.479,-14.31407 c 0.108,-6.99952 0.161,-7.35778 1.076,-7.35778 0.92,0 0.962,0.32023 0.962,7.20507 0,7.09433 -0.02,7.20742 -1.076,7.35778 l -1.077,0.15271 z m -30.384,4.71262 c -0.523,-0.62939 -0.464,-1.57535 0.267,-4.26491 0.163,-0.60298 1.21,-2.90232 0.493,-2.90232 -0.873,0 -3.17,1.82487 -3.17,-0.28269 0,-2.05712 1.05,-2.45896 1.849,-2.45896 0.514,0 1.068,0.21616 1.231,0.48034 0.164,0.26419 0.725,0.48034 1.247,0.48034 1.354,0 1.549,0.96895 0.632,3.14759 -0.439,1.04278 -0.825,2.85083 -0.858,4.0179 -0.06,2.23512 -0.731,2.93775 -1.691,1.78271 z m -24.587,-22.878 c -1.147,-1.14571 -1.22,-2.07521 -0.239,-3.05442 0.534,-0.53337 0.605,-1.0278 0.274,-1.89738 -0.896,-2.35288 2.643,-4.77812 5.428,-3.72059 1.588,0.60281 1.751,2.80751 0.304,4.11521 -0.738,0.66697 -0.901,1.239 -0.682,2.40224 0.53,2.82267 -2.942,4.29426 -5.085,2.15494 z m 79.492,-13.49741 c -2.158,-1.07368 -9.486,-7.42716 -16.608,-14.4005 -3.312,-3.24337 -4.536,-4.14834 -5.653,-4.18005 -2.173,-0.0617 -3.269,-0.53949 -3.596,-1.56742 -0.163,-0.5133 -0.623,-1.25877 -1.021,-1.65662 -0.399,-0.39784 -0.503,-0.72335 -0.232,-0.72335 0.271,0 0.861,-0.77448 1.311,-1.72108 0.883,-1.85897 2.51,-2.76201 4.209,-2.33639 0.862,0.21614 1.267,-0.09 2.119,-1.60369 0.579,-1.02896 2.087,-3.16194 3.35,-4.73997 2.4,-2.99654 5.997,-7.02598 19.748,-22.1191 1.923,-2.11175 4.63,-4.59063 6.013,-5.50863 7.139,-4.7366 8.776,-5.68189 9.84,-5.68189 0.978,0 1.109,0.16965 0.837,1.08076 -0.413,1.38039 -1.952,4.01895 -4.896,8.39356 -5.07,7.53294 -22.696,25.06605 -30.422,30.26313 -1.268,0.85282 -2.682,2.12324 -3.141,2.82317 -0.821,1.25074 -0.811,1.2923 0.539,2.42148 0.756,0.63189 2.241,1.6037 3.299,2.15958 4.576,2.40365 12.029,9.46742 15.825,14.99954 3.181,4.63623 2.617,6.15577 -1.521,4.09747 z m 42.801,-15.41894 c -1.04,-1.03885 -0.688,-1.9584 0.653,-1.70253 2.109,0.40257 3.686,-2.1336 1.656,-2.66362 -1.125,-0.29398 -1.286,-1.68807 -0.24,-2.08881 1.025,-0.39285 0.893,-0.97758 -0.291,-1.28679 -1.131,-0.29518 -1.038,-1.19303 0.203,-1.97479 0.607,-0.38199 1.146,-0.32892 2.09,0.20585 1.124,0.63732 1.286,1.05328 1.399,3.60254 0.1,2.1742 -0.101,3.25372 -0.804,4.39546 -1.286,2.08644 -3.403,2.7731 -4.666,1.51269 z m -7.312,-3.70963 c -4.45,-0.26987 -4.679,-0.36705 -4.402,-1.86986 0.08,-0.42144 7.957,-0.30478 10.536,0.15599 1.488,0.266 2.29,1.66894 0.962,1.68343 -0.331,0.004 -1.035,0.0743 -1.564,0.15709 -0.529,0.0828 -3.019,0.0258 -5.532,-0.12665 z m -125.778,-0.47399 c -0.435,-0.70239 0.226,-1.90385 1.22,-2.21895 1.057,-0.33499 1.251,-1.6671 0.243,-1.6671 -0.693,0 -1.731,-2.34049 -1.731,-3.90331 0,-1.25778 2.127,-2.51496 3.622,-2.14045 1.387,0.34751 2.319,2.25587 2.04,4.17369 l -0.183,1.25213 5.76,0.30923 c 3.168,0.17008 5.859,0.40787 5.98,0.52842 0.12,0.12056 0.09,0.55274 -0.07,0.96042 -0.416,1.08459 -10.206,1.08091 -11.407,-0.004 -0.758,-0.68454 -0.909,-0.60986 -1.852,0.91301 -1.248,2.01578 -2.965,2.86654 -3.626,1.7972 z m 3.1,-7.00825 c 0,-0.39628 -0.217,-0.72051 -0.481,-0.72051 -0.265,0 -0.481,0.32423 -0.481,0.72051 0,0.39628 0.216,0.72051 0.481,0.72051 0.264,0 0.481,-0.32423 0.481,-0.72051 z m 8.038,-21.19466 c -0.187,-0.18727 -0.341,-1.92561 -0.341,-3.86297 0,-3.20225 0.09,-3.52248 0.962,-3.52248 0.578,0 0.982,0.33623 1.011,0.84059 0.03,0.46233 0.09,1.81328 0.134,3.00212 0.05,1.18883 0.188,2.48061 0.312,2.87062 0.24,0.74817 -1.453,1.29568 -2.078,0.67212 z m 4.435,-0.34486 c -1.468,-0.72705 -1.851,-3.65164 -0.707,-5.39612 1.028,-1.5652 1.799,-1.46874 3.944,0.49317 1.617,1.47912 1.762,1.79812 1.35,2.96718 -0.617,1.74844 -2.964,2.73905 -4.587,1.93577 z m 2.71,-2.2833 c 0.508,-0.82133 -1.096,-2.20275 -1.773,-1.52671 -0.302,0.30115 -0.418,0.88631 -0.259,1.30035 0.333,0.86631 1.552,1.00208 2.032,0.22636 z m 109.446,0.92267 c -1.291,-0.47669 -1.248,-1.08277 0.214,-2.9954 1.362,-1.7838 1.71,-3.70319 0.487,-2.68963 -0.394,0.32609 -1.043,0.46741 -1.443,0.31405 -1.874,-0.71785 0.322,-3.51424 2.358,-3.0039 1.41,0.35319 2.143,2.93743 1.288,4.53412 -0.71,1.32402 -0.661,2.00351 0.145,2.00351 0.541,0 1.254,0.94814 1.254,1.66791 0,0.36393 -3.413,0.49823 -4.303,0.16934 z m -60.355,-19.05134 c -0.137,-0.22124 -0.278,-3.8166 -0.314,-7.9897 -0.05,-5.74947 0.09,-7.68059 0.558,-7.97196 0.343,-0.21149 0.814,-0.26692 1.047,-0.12319 0.406,0.25076 0.403,13.91439 0,15.64652 -0.209,0.88817 -0.87,1.11317 -1.287,0.43833 z m -34.613,-2.8403 c -0.123,-0.1983 -0.106,-1.81944 0.04,-3.60254 0.217,-2.69909 0.405,-3.242 1.123,-3.242 0.755,0 0.857,0.44617 0.824,3.60254 -0.03,3.12873 -0.15,3.60253 -0.899,3.60253 -0.474,0 -0.962,-0.16224 -1.085,-0.36053 z m 3.771,-0.12509 c -0.468,-0.75732 0.245,-8.1042 0.822,-8.46017 0.262,-0.16186 0.789,0.0181 1.172,0.39985 0.554,0.55298 0.586,0.97971 0.159,2.09827 -0.295,0.77227 -0.575,2.46713 -0.622,3.76636 -0.08,2.26096 -0.827,3.33192 -1.531,2.19569 z m 63.566,-7.86177 c -0.555,-5.41175 0.937,-6.3756 1.971,-1.2733 0.457,2.25333 0.477,3.20565 0.08,3.68744 -1.135,1.3655 -1.731,0.6624 -2.047,-2.41414 z"
       id="path1" /></g></svg>
