<?xml version="1.0" encoding="UTF-8" standalone="no"?>
<!-- Created with Inkscape (http://www.inkscape.org/) -->

<svg
   width="231.38646"
   height="235.24007"
   viewBox="0 0 61.221 62.240601"
   version="1.1"
   id="svg1"
   xml:space="preserve"
   xmlns="http://www.w3.org/2000/svg"
   xmlns:svg="http://www.w3.org/2000/svg"><defs
     id="defs1" /><g
     id="g1697"
     transform="matrix(0.26458333,0,0,0.26458333,-4224.7591,-78.037963)"><path
       style="fill:#000000"
       d="m 16043.1,519.12812 c 0.482,-0.28014 1.454,-0.68494 2.161,-0.89956 0.707,-0.21461 4.743,-1.62095 8.97,-3.12518 4.226,-1.50424 9.413,-3.34688 11.526,-4.09477 4.407,-1.5598 13.551,-4.81215 20.892,-7.43138 2.773,-0.98956 5.248,-1.98862 5.499,-2.22013 0.251,-0.23151 0.74,-0.42092 1.086,-0.42092 0.347,0 4.452,-1.42464 9.124,-3.16587 4.672,-1.74123 9.857,-3.62088 11.522,-4.17701 1.666,-0.55613 2.866,-1.16806 2.667,-1.35984 -0.199,-0.19179 -3.651,-0.83648 -7.672,-1.43266 -6.638,-0.98414 -7.39,-1.01503 -8.165,-0.33548 -0.469,0.41166 -1.502,0.86094 -2.295,0.99839 -0.792,0.13746 -3.602,0.89575 -6.243,1.6851 -2.642,0.78934 -10.638,3.08926 -17.77,5.11092 -7.132,2.02167 -13.616,3.88942 -14.408,4.15056 -0.792,0.26115 -4.899,1.45496 -9.125,2.65292 -4.227,1.19796 -13.736,3.89869 -21.132,6.00161 -7.396,2.10292 -15.825,4.47743 -18.73,5.27669 -2.906,0.79925 -6.423,1.79745 -7.816,2.21821 -1.393,0.42075 -2.662,0.63515 -2.821,0.47643 -0.665,-0.66579 0.357,-1.67254 2.014,-1.98345 0.979,-0.18365 3.644,-0.85846 5.922,-1.49957 2.278,-0.64111 4.898,-1.375 5.822,-1.63086 10.605,-2.93486 20.755,-5.81634 26.655,-7.56673 3.962,-1.17555 9.041,-2.63021 11.287,-3.23258 5.175,-1.38847 21.589,-6.08835 28.816,-8.25088 8.31,-2.48686 11.487,-3.41652 14.528,-4.25103 1.519,-0.41684 2.761,-0.93987 2.761,-1.16229 0,-0.22241 -0.918,-0.52092 -2.041,-0.66334 -1.122,-0.14243 -5.322,-0.72887 -9.331,-1.30321 l -7.291,-1.04424 -4.956,1.30287 c -2.726,0.71658 -8.631,2.2548 -13.121,3.41826 -4.491,1.16346 -11.082,2.88505 -14.648,3.82576 -6.276,1.65542 -21.685,5.52345 -36.021,9.0418 -3.83,0.94002 -9.765,2.44837 -13.189,3.35188 -3.424,0.90352 -6.396,1.53757 -6.604,1.40901 -0.846,-0.52289 -0.295,-1.61667 0.943,-1.87052 1.452,-0.29798 10.938,-2.60386 33.258,-8.08477 8.057,-1.97833 15.398,-3.74878 16.314,-3.93434 0.916,-0.18556 1.996,-0.50147 2.401,-0.70203 0.405,-0.20056 2.573,-0.80478 4.819,-1.34272 13.094,-3.13738 27.21,-6.92529 27.725,-7.43983 0.447,-0.44718 0.661,-5.63409 0.855,-20.75746 0.142,-11.08873 0.357,-26.53689 0.476,-34.32925 0.12,-7.79237 0.335,-26.81103 0.478,-42.26368 0.142,-15.45266 0.357,-34.57937 0.478,-42.50381 0.12,-7.92444 0.225,-19.21677 0.232,-25.09406 0.01,-9.62713 0.09,-10.68599 0.809,-10.68599 0.733,0 0.772,1.43805 0.482,18.13016 -0.433,24.93222 -1.038,101.70093 -1.038,131.70858 v 24.72864 l 2.881,0.56093 c 1.585,0.3085 6.664,1.13463 11.287,1.83583 4.622,0.7012 11.754,1.81949 15.849,2.4851 4.094,0.6656 8.848,1.39976 10.565,1.63146 1.717,0.2317 6.04,0.86976 9.606,1.41793 3.566,0.54816 11.477,1.73392 17.581,2.63502 6.104,0.9011 11.615,1.7659 12.247,1.92178 0.632,0.15587 2.338,0.37429 3.791,0.48537 1.452,0.11108 4.37,0.54188 6.483,0.95734 2.113,0.41546 4.349,0.63182 4.969,0.48081 0.62,-0.15101 1.376,-0.0732 1.681,0.17291 0.305,0.24612 2.391,0.69018 4.637,0.98679 5.402,0.71369 6.934,1.16236 7.111,2.08309 0.169,0.87878 -1.134,1.30446 -2.549,0.83257 -0.528,-0.17619 -2.999,-0.60633 -5.491,-0.95586 l -4.53,-0.63551 -1.597,1.84731 c -0.878,1.01602 -3.906,5.15932 -6.729,9.20732 -3.465,4.96769 -5.42,7.36001 -6.017,7.36001 -0.941,0 -0.952,0.0328 0.967,-2.97093 1.16,-1.81436 4.618,-6.8262 4.91,-7.11472 1.066,-1.05435 5.76,-8.25507 5.76,-8.83647 0,-0.0822 -1.965,-0.43098 -4.366,-0.77519 l -4.366,-0.62583 -2.238,2.37222 c -2.074,2.1992 -10.181,10.91505 -14.782,15.89331 -1.41,1.52604 -2.283,2.09436 -3.039,1.97913 -1.162,-0.17727 -1.606,0.3537 8.789,-10.52114 6.092,-6.37359 9.007,-9.68073 8.754,-9.93315 -0.385,-0.38523 -10.505,-2.00955 -10.92,-1.75282 -0.223,0.13745 -0.411,0.5073 -0.418,0.82189 0,0.3146 -2.223,1.97027 -4.923,3.67927 -2.7,1.70901 -6.098,4.00409 -7.551,5.10019 -10.543,7.95482 -17.557,12.68424 -18.811,12.68424 -1.732,0 -1.708,-0.164 0.201,-1.37822 1.875,-1.19265 6.953,-4.84291 10.507,-7.5528 1.419,-1.08191 3.229,-2.30626 4.021,-2.72079 0.793,-0.41452 1.926,-1.21137 2.518,-1.77078 0.593,-0.55941 3.495,-2.69174 6.449,-4.73851 2.954,-2.04676 5.448,-3.95083 5.541,-4.23125 0.104,-0.3103 -1.777,-0.78128 -4.806,-1.20335 -4.611,-0.64263 -5.079,-0.63215 -6.378,0.14285 -1.903,1.13456 -8.58,4.38483 -14.15,6.88794 -2.52,1.13259 -6.518,3.03324 -8.885,4.22368 -2.366,1.19044 -8.517,4.14015 -13.668,6.55493 -5.15,2.41478 -10.013,4.72434 -10.806,5.13236 -0.792,0.40802 -2.089,0.6595 -2.881,0.55886 -1.562,-0.19833 -1.676,-0.13449 10.806,-6.02747 7.884,-3.72207 24.544,-11.67415 25.377,-12.11272 1.697,-0.89357 8.605,-4.07248 11.06,-5.08945 3.054,-1.26517 3.123,-1.23137 -5.35,-2.58819 -7.379,-1.18143 -8.8,-1.20876 -10.676,-0.20514 -0.792,0.42411 -2.845,1.27648 -4.562,1.89417 -1.717,0.61768 -9.39,3.42108 -17.05,6.22977 -7.66,2.80869 -16.953,6.15355 -20.651,7.43303 -3.699,1.27948 -9.102,3.18063 -12.007,4.22476 -15.003,5.39141 -17.907,6.33508 -19.451,6.32169 -1.418,-0.0123 -1.544,-0.0942 -0.805,-0.52392 z m -24.649,-50.2812 c 0,-0.8377 0.552,-1.10327 3.722,-1.78839 3.469,-0.75002 5.888,-1.3167 21.732,-5.0924 3.302,-0.78683 7.408,-1.74269 9.125,-2.12413 6.243,-1.38692 5.998,-1.24573 6.048,-3.48952 0.02,-1.1061 0.183,-2.15012 0.353,-2.32004 0.17,-0.16991 1.663,0.0414 3.318,0.46961 1.654,0.42819 3.927,1.00974 5.049,1.29233 2.533,0.6375 2.664,1.7063 0.33,2.68155 -0.941,0.39322 -2.906,1.68857 -4.367,2.87855 -2.18,1.77553 -2.783,2.05847 -3.363,1.57746 -0.436,-0.36218 -0.599,-1.01266 -0.426,-1.70239 0.154,-0.61393 0.198,-1.11624 0.1,-1.11624 -0.856,0 -13.328,2.76839 -20.486,4.54737 -4.887,1.21436 -11.155,2.73471 -13.928,3.37855 -2.774,0.64384 -5.529,1.31032 -6.124,1.48106 -0.87,0.24992 -1.08,0.11866 -1.08,-0.67337 z m 115.504,-4.94559 c -4.226,-0.76421 -10.493,-1.8165 -13.927,-2.33842 -3.434,-0.52192 -8.837,-1.38572 -12.007,-1.91956 -3.17,-0.53384 -6.466,-0.97067 -7.324,-0.97074 -1.503,-1.1e-4 -1.561,0.0718 -1.561,1.93604 0,3.33166 -1.199,3.12849 -6.508,-1.10278 -2.195,-1.74914 -3.098,-2.79045 -3.098,-3.57217 0,-0.61048 0.292,-1.10335 0.654,-1.10335 0.36,0 2.342,-0.53582 4.405,-1.19071 4.285,-1.35989 5.108,-1.12213 4.706,1.35898 l -0.252,1.54959 9.532,1.54548 c 19.619,3.18101 30.787,4.90123 31.821,4.90123 1.589,0 2.931,0.86625 2.615,1.68827 -0.33,0.85943 0.342,0.91739 -9.056,-0.78186 z"
       id="path1" /></g></svg>
