<?xml version="1.0" encoding="UTF-8" standalone="no"?>
<!-- Created with Inkscape (http://www.inkscape.org/) -->

<svg
   width="231.38646"
   height="235.24007"
   viewBox="0 0 61.221 62.240601"
   version="1.1"
   id="svg1"
   xml:space="preserve"
   xmlns="http://www.w3.org/2000/svg"
   xmlns:svg="http://www.w3.org/2000/svg"><defs
     id="defs1" /><g
     id="g1778"
     transform="matrix(0.26458333,0,0,0.26458333,-4440.151,-24.786159)"><path
       style="fill:#000000"
       d="m 16854.568,278.9734 c -0.614,-0.65397 -1.306,-1.07126 -1.539,-0.92731 -0.233,0.14395 -0.363,0.0575 -0.291,-0.19209 0.07,-0.2496 -1.166,-1.44585 -2.754,-2.65833 -1.587,-1.21248 -3.737,-2.97466 -4.777,-3.91597 -1.041,-0.94131 -2.182,-1.71147 -2.538,-1.71147 -0.355,0 -0.851,-0.54175 -1.103,-1.20389 -0.251,-0.66214 -0.677,-1.20389 -0.946,-1.20389 -1.15,0 -10.591,-8.47645 -10.603,-9.51972 0,-0.55887 -3.4,-3.99443 -3.76,-3.80667 -10.356,5.40209 -17.742,7.73242 -24.617,7.76611 -4.471,0.0219 -4.62,-0.014 -6.911,-1.66305 -1.288,-0.927 -2.533,-2.18713 -2.766,-2.8003 -1.208,-3.17187 0.126,-10.47947 2.276,-12.46599 0.631,-0.58322 1.147,-1.28566 1.147,-1.56098 0,-0.27531 0.433,-0.77123 0.963,-1.10204 0.529,-0.33081 0.962,-0.84153 0.962,-1.13493 0,-0.29339 0.811,-0.89025 1.804,-1.32633 0.992,-0.43609 3.102,-1.55676 4.69,-2.49037 1.587,-0.93361 3.24,-1.82022 3.672,-1.97025 0.518,-0.17987 0.697,-0.6123 0.525,-1.26965 -0.164,-0.6307 -0.07,-0.88098 0.25,-0.68137 0.472,0.29184 1.625,-1.96736 1.752,-3.43143 0.03,-0.33988 0.379,-0.8479 0.776,-1.12893 0.628,-0.44526 0.623,-0.48006 -0.04,-0.27066 -0.448,0.14111 -0.762,-0.0389 -0.762,-0.43613 0,-0.37203 0.154,-0.67642 0.342,-0.67642 0.559,0 1.439,1.26729 1.109,1.59772 -0.168,0.16788 -0.09,0.58134 0.17,0.91881 0.261,0.33747 0.619,1.01693 0.795,1.50992 0.235,0.65657 0.136,0.82525 -0.371,0.63057 -0.84,-0.32276 -1.936,0.87075 -1.479,1.61092 0.223,0.36059 0.507,0.28815 0.883,-0.2253 0.305,-0.41623 1.028,-0.84745 1.606,-0.95826 0.578,-0.11082 1.501,-0.44244 2.051,-0.73693 0.828,-0.4434 0.909,-0.70462 0.473,-1.51958 -0.289,-0.54128 -0.647,-0.86246 -0.796,-0.71375 -0.149,0.14871 -0.02,0.57536 0.292,0.94812 0.438,0.52851 0.4,0.7398 -0.172,0.95963 -0.495,0.19014 -0.734,-0.008 -0.734,-0.60993 0,-0.50943 -0.447,-1.00871 -1.041,-1.1644 -0.88,-0.23023 -0.945,-0.38858 -0.422,-1.01928 0.568,-0.68508 0.364,-0.95742 -0.597,-0.79858 -0.207,0.0342 -0.951,-0.47166 -1.654,-1.12414 -1.253,-1.16305 -1.291,-1.16786 -1.937,-0.24509 -0.714,1.0203 -0.385,2.12252 0.475,1.59074 0.348,-0.21548 0.416,-0.0324 0.198,0.53474 -0.181,0.4743 -0.107,1.1312 0.165,1.45977 0.348,0.41993 0.296,0.76309 -0.176,1.15514 -0.526,0.43684 -0.746,0.37239 -1.016,-0.29727 -0.313,-0.77518 -0.383,-0.75755 -0.748,0.18872 -0.376,0.97694 -0.614,0.83827 -3.718,-2.167 -1.823,-1.76591 -3.453,-3.58996 -3.623,-4.05346 -0.169,-0.4635 -0.598,-0.84272 -0.954,-0.84272 -1.349,0 -3.214,-2.66343 -3.722,-5.31647 -0.682,-3.56399 -0.483,-11.94374 0.321,-13.4642 0.35,-0.66214 0.646,-0.98719 0.658,-0.72233 0.01,0.26485 0.242,0.10233 0.512,-0.36117 0.27,-0.46349 0.804,-0.84272 1.188,-0.84272 0.384,0 0.698,-0.18961 0.698,-0.42136 0,-0.23175 0.666,-0.55484 1.481,-0.71798 0.815,-0.16315 2.276,-0.64573 3.247,-1.07241 0.971,-0.42668 2.307,-0.99567 2.968,-1.26442 0.662,-0.26875 1.604,-0.69606 2.095,-0.94956 0.612,-0.31612 0.793,-0.3002 0.576,0.0507 -0.193,0.31273 -0.02,0.40012 0.431,0.22481 0.411,-0.15773 0.747,-0.45618 0.747,-0.66322 0,-0.20705 0.748,-0.51701 1.663,-0.68882 0.915,-0.17181 2.268,-0.62799 3.006,-1.01374 0.739,-0.38575 1.639,-0.70269 2,-0.70433 0.36,-0.002 1.551,-0.46361 2.645,-1.02661 1.095,-0.56301 2.378,-1.22045 2.851,-1.46099 0.474,-0.24053 1.054,-0.3181 1.29,-0.17238 0.236,0.14572 0.564,0.0447 0.73,-0.22446 0.167,-0.26918 0.624,-0.48941 1.018,-0.48941 0.393,0 2.707,-0.93962 5.142,-2.08805 4.993,-2.35448 7.681,-3.55168 8.036,-3.57825 0.132,-0.01 1.485,-0.56908 3.006,-1.24259 1.522,-0.67351 2.766,-1.13183 2.766,-1.01851 0,0.11333 0.738,-0.20887 1.64,-0.716 1.382,-0.77674 4.269,-1.97992 9.184,-3.8263 0.529,-0.1988 2.152,-0.9154 3.607,-1.59244 1.456,-0.67704 3.404,-1.50493 4.33,-1.83976 0.926,-0.33483 3.415,-1.41932 5.532,-2.40998 5.823,-2.72579 7.31,-3.35812 7.896,-3.35812 0.294,0 0.911,-0.18918 1.37,-0.4204 2.857,-1.43799 7.368,-3.40209 9.013,-3.92403 1.058,-0.33588 2.032,-0.74182 2.165,-0.90208 0.377,-0.45746 4.96,-2.06125 5.86,-2.05086 0.446,0.005 1.065,-0.29877 1.378,-0.67534 0.312,-0.37658 0.744,-0.57519 0.961,-0.44136 0.216,0.13383 0.981,-0.30196 1.699,-0.96842 0.718,-0.66645 1.553,-1.21174 1.856,-1.21174 0.302,0 1.395,-0.43146 2.428,-0.9588 1.033,-0.52735 2.648,-1.07871 3.589,-1.22526 2.554,-0.39783 5.466,-1.28573 6.281,-1.91541 0.396,-0.30661 1.479,-0.83526 2.405,-1.17479 2.779,-1.01916 4.953,-1.95922 6.783,-2.93418 0.954,-0.50754 1.868,-0.7877 2.033,-0.62256 0.165,0.16514 0.576,0.0721 0.913,-0.20684 0.337,-0.27889 1.425,-0.65894 2.417,-0.84454 0.992,-0.18561 1.804,-0.53005 1.804,-0.76543 0,-0.23538 0.436,-0.42796 0.968,-0.42796 0.533,0 1.363,-0.2462 1.844,-0.54711 0.568,-0.35509 1.827,-0.4281 3.586,-0.20803 2.2,0.27511 2.941,0.61239 3.929,1.78794 0.67,0.79688 1.218,1.29246 1.218,1.10129 0,-0.19117 1.136,0.7211 2.525,2.02725 1.389,1.30616 3.388,3.01702 4.443,3.80191 2.177,1.62027 3.657,2.85873 7.314,6.12225 1.411,1.25806 2.766,2.28739 3.012,2.28739 0.246,0 1.488,0.98481 2.761,2.18846 5.385,5.0945 6.254,5.87076 8.085,7.21628 2.213,1.62582 3.134,2.35533 5.304,4.1992 0.857,0.72835 1.681,1.32428 1.831,1.32428 0.303,0 4.372,2.696 5.802,3.84396 0.501,0.40195 1.583,1.27427 2.405,1.93848 0.822,0.66422 3.69,2.69051 6.373,4.50287 2.683,1.81236 5.773,4.20822 6.867,5.32412 1.725,1.75962 2.051,2.4403 2.455,5.12825 0.256,1.70462 0.566,3.67896 0.69,4.3874 0.232,1.33258 0.21,1.35254 -4.646,4.36041 -0.74,0.45812 -1.345,0.70407 -1.345,0.54656 0,-0.1575 -0.487,0.0239 -1.082,0.40317 -0.596,0.37925 -2.382,1.19854 -3.969,1.82066 -1.587,0.62211 -3.969,1.68053 -5.291,2.35204 -1.323,0.67151 -3.38,1.57707 -4.57,2.01235 -1.191,0.43528 -3.464,1.3929 -5.051,2.12805 -1.588,0.73515 -4.077,1.88093 -5.532,2.54619 -1.455,0.66526 -5.027,2.34293 -7.937,3.72816 -2.91,1.38523 -6.008,2.79672 -6.883,3.13665 -1.692,0.65691 -13.48,6.57327 -20.296,10.18614 -2.249,1.19207 -4.846,2.46348 -5.772,2.82537 -0.926,0.36189 -3.216,1.53628 -5.088,2.60975 -3.472,1.9901 -5.82,3.18143 -12.245,6.21153 -1.993,0.93986 -4.483,2.29468 -5.532,3.01071 -2.216,1.51129 -9.955,5.49074 -10.679,5.49074 -0.271,0 -0.762,0.32505 -1.091,0.72233 -0.329,0.39728 -0.975,0.72233 -1.435,0.72233 -0.46,0 -1.678,0.57628 -2.707,1.28061 -1.029,0.70434 -3.278,2.03506 -4.998,2.95717 -1.719,0.92211 -4.75,2.55377 -6.734,3.62591 -1.984,1.07214 -4.798,2.56592 -6.254,3.31952 -3.239,1.67738 -7.817,4.2891 -8.716,4.97181 -0.365,0.27746 -1.53,0.90629 -2.588,1.39741 -1.058,0.49111 -2.499,1.18508 -3.201,1.54214 -1.627,0.82743 -1.49,0.8539 -2.798,-0.53984 z m 6.199,-2.62326 c 0.508,-0.50764 1.034,-0.81099 1.171,-0.67412 0.137,0.13688 0.49,0.0995 0.785,-0.083 0.39,-0.24146 0.38,-0.51996 -0.04,-1.02235 -0.465,-0.56037 -0.424,-0.63333 0.217,-0.38717 0.544,0.20894 0.79,0.0451 0.79,-0.52669 0,-0.58485 0.276,-0.75774 0.934,-0.58532 0.556,0.14545 1.269,-0.12477 1.759,-0.66617 0.453,-0.50098 1.151,-0.91087 1.552,-0.91087 0.402,0 1.072,-0.2904 1.489,-0.64534 0.418,-0.35494 2.117,-1.14153 3.776,-1.74798 1.66,-0.60646 3.135,-1.2943 3.28,-1.52855 0.334,-0.54112 4.046,-2.45172 4.046,-2.08255 0,0.15146 0.487,-0.24463 1.082,-0.8802 0.596,-0.63557 2.923,-2.04082 5.172,-3.12278 2.248,-1.08196 4.552,-2.40202 5.119,-2.93346 0.568,-0.53144 1.154,-0.84375 1.304,-0.69402 0.409,0.4096 7.517,-3.32683 7.226,-3.79844 -0.139,-0.22445 -0.07,-0.35979 0.145,-0.30076 0.733,0.19857 2.572,-0.62797 5.089,-2.28736 1.375,-0.90671 2.872,-1.64856 3.325,-1.64856 0.454,0 0.959,-0.21727 1.123,-0.48282 0.324,-0.52615 4.135,-2.3691 4.638,-2.24332 0.171,0.0427 0.72,-0.29338 1.221,-0.74677 0.5,-0.4534 1.659,-1.15752 2.576,-1.56473 0.916,-0.4072 2.531,-1.2809 3.59,-1.94156 1.058,-0.66065 2.465,-1.44213 3.126,-1.73662 4.027,-1.7929 6.937,-3.37481 7.136,-3.87941 0.09,-0.22372 0.65,-0.40677 1.248,-0.40677 0.599,0 1.48,-0.4334 1.959,-0.96311 0.479,-0.52971 1.058,-0.96311 1.286,-0.96311 0.229,0 1.254,-0.52944 2.278,-1.17654 1.024,-0.64709 1.984,-1.05469 2.132,-0.90578 0.149,0.14891 0.621,-0.0801 1.05,-0.50891 0.428,-0.42881 1.162,-0.77966 1.632,-0.77966 0.469,0 1.24,-0.42829 1.713,-0.95176 0.474,-0.52346 1.024,-0.8509 1.223,-0.72763 0.199,0.12326 0.628,-0.0962 0.952,-0.48761 0.325,-0.39145 0.784,-0.59178 1.021,-0.44517 0.659,0.40795 2.341,-0.26434 2.216,-0.88596 -0.06,-0.30256 0.219,-0.56023 0.621,-0.5726 0.402,-0.0124 1.254,-0.51007 1.894,-1.10599 0.64,-0.59593 1.665,-1.0835 2.276,-1.0835 0.612,0 1.112,-0.17726 1.112,-0.3939 0,-0.58437 6.732,-3.9984 7.251,-3.67725 0.245,0.15155 0.446,-0.037 0.446,-0.41907 0,-0.38204 0.487,-0.80659 1.082,-0.94344 0.595,-0.13686 2.273,-0.71354 3.728,-1.28153 1.455,-0.56798 2.857,-1.0772 3.115,-1.13159 0.258,-0.0544 0.761,-0.36977 1.117,-0.70083 0.356,-0.33107 0.964,-0.60195 1.351,-0.60195 0.387,0 1.238,-0.35022 1.891,-0.77827 0.652,-0.42806 1.611,-0.66713 2.13,-0.53127 0.519,0.13585 1.192,-0.0533 1.497,-0.42031 0.304,-0.36703 0.759,-0.53956 1.012,-0.3834 0.252,0.15617 0.578,-0.17364 0.724,-0.7329 0.15,-0.57353 0.81,-1.15367 1.515,-1.33071 0.687,-0.17264 1.653,-0.69006 2.146,-1.14983 1.201,-1.1202 3.091,-1.4344 3.761,-0.62539 0.417,0.50301 0.375,0.65497 -0.182,0.65497 -0.399,0 -1.346,0.32371 -2.103,0.71937 -0.953,0.49754 -1.114,0.72028 -0.521,0.72233 0.472,0.002 1.933,-0.54243 3.247,-1.20904 2.529,-1.28291 3.205,-1.96389 1.187,-1.19577 -1.458,0.55509 -1.649,-0.20844 -0.24,-0.96311 0.529,-0.2835 0.962,-0.3617 0.962,-0.17378 0,0.18791 0.493,-0.12187 1.095,-0.6884 0.733,-0.68912 1.449,-0.9374 2.165,-0.75011 0.779,0.20406 1.069,0.0689 1.069,-0.49855 0,-0.6852 1.178,-1.06409 2.561,-0.82359 0.218,0.0379 0.269,-0.13814 0.113,-0.39126 -0.157,-0.25311 -0.08,-0.5885 0.176,-0.7453 0.537,-0.33184 0.178,-4.15164 -0.449,-4.78788 -0.25,-0.25361 -1.478,0.0698 -2.977,0.78409 -2.994,1.42713 -5.332,2.45421 -5.695,2.50253 -0.143,0.0189 -2.091,0.92583 -4.33,2.01541 -2.239,1.08958 -4.937,2.35924 -5.995,2.82146 -4.465,1.95024 -15.553,7.80733 -17.345,9.162 -0.809,0.61167 -2.541,1.4307 -3.848,1.82006 -1.308,0.38935 -3.657,1.40123 -5.22,2.2486 -5.227,2.83359 -13.17,6.76694 -13.665,6.76694 -0.269,0 -0.565,0.2285 -0.658,0.50778 -0.09,0.27928 -0.499,0.55622 -0.902,0.61542 -0.403,0.0592 -1.548,0.58915 -2.544,1.17766 -0.997,0.58852 -1.944,1.07003 -2.105,1.07003 -0.728,0 -11.61,5.64734 -12.159,6.30991 -0.301,0.36411 -7.535,3.79736 -8.043,3.81782 -0.646,0.0259 -4.64,2.10236 -6.224,3.23544 -0.833,0.59592 -1.746,1.0835 -2.027,1.0835 -0.282,0 -1.223,0.39092 -2.091,0.86872 -0.868,0.4778 -2.768,1.36932 -4.224,1.98115 -4.745,1.99515 -9.62,4.48661 -9.62,4.91622 0,0.23119 -0.328,0.42035 -0.728,0.42035 -0.686,0 -17.852,8.25865 -20.438,9.83292 -1.625,0.9891 -9.38,4.60991 -9.915,4.62906 -0.235,0.008 -0.821,0.31445 -1.303,0.68006 -0.793,0.60163 -0.81,0.7945 -0.183,2.0313 0.381,0.7516 0.843,2.39587 1.026,3.65394 0.265,1.82781 0.52,2.28739 1.265,2.28739 0.513,0 1.347,-0.41534 1.854,-0.92298 z m -8.081,-3.10247 c -0.284,-0.34219 -0.646,-1.47258 -0.805,-2.51197 -0.311,-2.03012 -1.384,-4.0568 -2.148,-4.0568 -0.259,0 -0.445,0.16252 -0.413,0.36116 0.197,1.24901 -0.08,1.66329 -0.745,1.11141 -0.379,-0.31436 -0.604,-1.00847 -0.502,-1.54246 0.253,-1.31408 -0.757,-2.81945 -1.892,-2.81945 -0.51,0 -0.782,-0.14494 -0.605,-0.32209 0.499,-0.50022 -1.164,-2.08569 -2.189,-2.08569 -0.524,0 -0.781,-0.21886 -0.6,-0.5119 0.315,-0.50914 -1.044,-2.37743 -1.729,-2.37743 -0.197,0 -0.257,0.97515 -0.133,2.167 0.137,1.32013 0.03,2.167 -0.273,2.167 -0.274,0 -0.374,-0.32505 -0.222,-0.72233 0.152,-0.39729 0.06,-0.72234 -0.2,-0.72234 -0.262,0 -0.579,-0.54175 -0.706,-1.20388 -0.126,-0.66214 -0.02,-1.20389 0.243,-1.20389 0.28,0 0.254,-0.26495 -0.06,-0.64626 -0.295,-0.35543 -0.394,-0.78842 -0.22,-0.96219 0.356,-0.35625 -3.479,-4.17022 -4.193,-4.17022 -0.253,0 -0.46,-0.45146 -0.46,-1.00324 0,-0.5852 -0.249,-0.92016 -0.598,-0.80385 -0.34,0.11331 -0.599,1.01424 -0.601,2.08674 0,2.76756 -0.926,2.30604 -1.038,-0.52043 -0.05,-1.32428 -0.111,-2.72199 -0.132,-3.10603 -0.07,-1.34446 -1.058,0.27958 -1.102,1.81251 -0.02,0.81784 -0.294,1.58386 -0.602,1.70227 -0.368,0.14119 -0.533,-0.34796 -0.479,-1.421 0.09,-1.89348 -0.03,-2.0032 -0.745,-0.66406 -0.402,0.75299 -0.329,1.29598 0.328,2.40778 0.465,0.78954 1.098,1.43553 1.406,1.43553 0.307,0 0.826,0.32267 1.153,0.71703 0.327,0.39437 0.786,0.59828 1.021,0.45314 0.235,-0.14514 0.426,-0.0344 0.426,0.24608 0,0.28048 0.231,0.50997 0.512,0.50997 0.281,0 0.443,-0.46743 0.36,-1.03873 -0.08,-0.57131 0.11,-1.12745 0.427,-1.23587 0.427,-0.14583 0.463,0.19874 0.141,1.32383 -0.541,1.88873 -0.1,4.32166 0.785,4.32166 0.364,0 0.662,0.27979 0.662,0.62176 0,0.7028 3.293,3.8777 4.506,4.34335 0.436,0.16774 1.028,0.82125 1.316,1.45226 0.287,0.63101 1.582,1.72059 2.878,2.42129 2.649,1.43226 2.894,1.49815 2.724,0.73226 -0.07,-0.29796 0.103,-0.62525 0.376,-0.72732 0.273,-0.10206 0.545,0.40478 0.604,1.12631 0.06,0.72153 0.453,1.50475 0.874,1.7405 0.421,0.23575 1.227,0.9604 1.791,1.61034 1.02,1.17335 1.849,0.69958 0.861,-0.49175 z m -15.509,-14.51444 c -0.03,-0.39729 -0.09,-1.0835 -0.121,-1.52493 -0.03,-0.44142 0.173,-0.88032 0.458,-0.97532 0.308,-0.1029 0.503,0.51306 0.481,1.52351 -0.04,1.64439 -0.697,2.43399 -0.818,0.97674 z m 18.959,9.72235 c 0.133,-0.3471 1.095,-0.88698 2.138,-1.19973 1.043,-0.31275 2.289,-1.00391 2.77,-1.53591 0.481,-0.532 1.069,-0.96727 1.308,-0.96727 0.911,0 4.709,-1.97429 4.709,-2.44823 0,-0.27387 0.178,-0.38803 0.395,-0.2537 0.217,0.13433 1.088,-0.17793 1.936,-0.69391 0.847,-0.51599 1.834,-0.93816 2.192,-0.93816 1.018,0 1.969,-1.45305 1.857,-2.83589 -0.09,-1.15998 0.07,-0.93934 0.659,0.89617 0.201,0.62408 0.282,0.62408 0.676,0 0.246,-0.38986 0.451,-0.5249 0.455,-0.3001 0,0.2248 0.778,-0.0461 1.719,-0.60194 0.941,-0.55588 2.012,-1.01068 2.381,-1.01068 0.369,0 0.843,-0.3042 1.055,-0.67601 0.211,-0.3718 0.909,-0.75102 1.549,-0.84272 0.641,-0.0917 1.265,-0.46775 1.386,-0.83569 0.147,-0.44562 0.01,-0.54136 -0.398,-0.28676 -0.376,0.23266 -0.499,0.18994 -0.314,-0.10917 0.167,-0.27026 0.85,-0.38683 1.517,-0.25904 0.979,0.18727 1.214,0.0409 1.214,-0.75447 0,-0.89553 1.541,-1.88909 2.526,-1.62866 0.198,0.0525 0.361,-0.0757 0.361,-0.28474 0,-0.20909 0.595,-0.37161 1.322,-0.36117 0.728,0.0104 1.281,-0.21577 1.23,-0.5027 -0.05,-0.28693 0.209,-0.52169 0.58,-0.52169 0.37,0 0.549,0.20221 0.396,0.44934 -0.152,0.24714 0.236,0.17939 0.863,-0.15056 0.627,-0.32994 1.298,-0.86545 1.491,-1.19001 0.192,-0.32456 0.98,-0.51659 1.751,-0.42673 1.082,0.12607 1.461,-0.0598 1.658,-0.81393 0.161,-0.61761 0.578,-0.92209 1.134,-0.82725 0.483,0.0825 0.833,-0.0951 0.778,-0.39463 -0.06,-0.29959 0.918,-0.82942 2.164,-1.17741 1.247,-0.34798 2.661,-1.13219 3.143,-1.74268 0.482,-0.61049 1.24,-1.11132 1.684,-1.11296 0.443,-0.002 1.427,-0.32668 2.184,-0.72233 0.758,-0.39565 1.669,-0.71937 2.025,-0.71937 0.356,0 1.176,-0.57103 1.823,-1.26896 0.837,-0.90402 1.513,-1.20433 2.349,-1.04425 1.007,0.19257 1.156,0.0583 1.047,-0.9383 -0.119,-1.09047 -0.07,-1.11415 0.737,-0.37962 0.799,0.72335 0.888,0.72336 1.165,2.1e-4 0.165,-0.43074 0.557,-0.69743 0.871,-0.59263 0.314,0.10479 0.959,-0.19733 1.432,-0.67137 0.474,-0.47404 1.191,-0.73528 1.594,-0.58052 0.403,0.15476 0.732,0.0415 0.732,-0.2517 0,-0.29319 0.403,-0.53308 0.895,-0.53308 0.492,0 1.274,-0.50563 1.738,-1.12363 0.53,-0.70745 1.34,-1.12363 2.186,-1.12363 1.459,0 2.825,-1.04046 2.53,-1.92652 -0.101,-0.30443 0.08,-0.7152 0.397,-0.91283 0.325,-0.20099 0.456,-0.15725 0.297,0.0993 -0.155,0.25221 -0.08,0.77326 0.159,1.1579 0.258,0.40827 0.445,0.46654 0.45,0.14001 0,-0.30764 0.386,-0.49799 0.849,-0.42301 1.114,0.18048 2.044,-0.60422 2.044,-1.72518 0,-0.49728 0.271,-0.90746 0.601,-0.91152 0.408,-0.005 0.373,-0.15198 -0.106,-0.45537 -0.389,-0.2464 -0.549,-0.60649 -0.356,-0.8002 0.194,-0.1937 0.642,0.0443 0.996,0.52895 0.405,0.55416 0.877,0.73688 1.272,0.49238 0.396,-0.24542 0.511,-0.19953 0.311,0.12448 -0.174,0.28228 0.55,0.094 1.609,-0.41839 1.795,-0.86805 2.805,-2.17929 1.205,-1.56484 -0.397,0.15245 -0.721,0.50682 -0.721,0.78748 0,0.28066 -0.114,0.39684 -0.252,0.25818 -0.139,-0.13866 -0.116,-0.60818 0.05,-1.04337 0.339,-0.8831 1.948,-1.07985 2.218,-0.27105 0.121,0.3641 0.553,0.3467 1.441,-0.058 1,-0.4565 1.22,-0.83592 1.045,-1.80272 -0.172,-0.95381 -0.08,-1.11511 0.404,-0.72961 0.343,0.2722 1.223,0.40807 1.955,0.30193 1.676,-0.24321 5.556,-2.28967 6.728,-3.54834 0.828,-0.8898 0.832,-0.97708 0.07,-1.2715 -0.71,-0.27286 -0.672,-0.37194 0.278,-0.72389 0.813,-0.30098 1.255,-0.19756 1.688,0.3949 0.412,0.56484 0.687,0.63837 0.928,0.24816 0.189,-0.30497 0.738,-0.5545 1.22,-0.5545 0.483,0 0.987,-0.41719 1.12,-0.92708 0.18,-0.68941 0.04,-0.86674 -0.545,-0.69169 -0.433,0.12948 -0.138,-0.1425 0.655,-0.60438 0.794,-0.46188 2,-0.8549 2.681,-0.87338 0.68,-0.0185 1.597,-0.39352 2.036,-0.83344 0.439,-0.43992 1.196,-0.69573 1.682,-0.56846 0.487,0.12726 1.166,-0.10873 1.511,-0.52443 0.344,-0.41569 1.053,-0.75581 1.575,-0.75581 0.542,0 1.055,-0.41041 1.198,-0.95769 0.147,-0.56408 0.475,-0.81721 0.797,-0.61588 0.896,0.56023 2.313,0.65305 1.99,0.13036 -0.259,-0.42031 0.715,-0.71207 1.803,-0.54004 0.199,0.0314 0.361,-0.28081 0.361,-0.69373 0,-0.41291 0.166,-0.64823 0.368,-0.52292 0.203,0.12531 1.448,-0.28281 2.766,-0.90693 1.319,-0.62412 2.646,-1.14726 2.948,-1.16252 0.302,-0.0153 0.668,-0.336 0.812,-0.71274 0.145,-0.37674 0.763,-0.75597 1.375,-0.84272 0.707,-0.10036 1.065,-0.44045 0.985,-0.93484 -0.1,-0.58995 0.165,-0.7214 1.082,-0.54581 0.673,0.12874 1.209,0.006 1.209,-0.27647 0,-0.27927 0.379,-0.51839 0.842,-0.53137 2.209,-0.0619 2.829,-0.21935 3.635,-0.9223 0.479,-0.41696 1.398,-0.82886 2.043,-0.91533 1.197,-0.16059 4.72,-1.61825 5.947,-2.46156 0.559,-0.38381 0.429,-0.73662 -0.72,-1.95514 -0.771,-0.81775 -1.574,-1.48681 -1.784,-1.48681 -0.21,0 -0.847,-0.4334 -1.415,-0.96312 -0.568,-0.52971 -1.307,-0.96311 -1.642,-0.96311 -0.335,0 -1.169,-0.56123 -1.855,-1.24719 -0.693,-0.69429 -1.556,-1.12795 -1.946,-0.97822 -0.385,0.14793 -0.7,0.0817 -0.7,-0.14728 0,-0.22893 -1.051,-1.09141 -2.335,-1.91661 -1.285,-0.8252 -2.721,-1.92618 -3.191,-2.44662 -0.471,-0.52044 -1.029,-0.83939 -1.24,-0.70878 -0.211,0.13062 -0.669,-0.1487 -1.018,-0.62071 -0.348,-0.47201 -1.175,-1.13431 -1.836,-1.47179 -2.133,-1.08799 -3.341,-1.84703 -4.245,-2.66588 -0.487,-0.44056 -1.064,-0.63802 -1.283,-0.4388 -0.22,0.19922 -0.254,0.10869 -0.08,-0.20117 0.181,-0.31691 -0.258,-1.00549 -1.005,-1.57395 -0.73,-0.55581 -2.085,-1.67171 -3.011,-2.47977 -5.342,-4.66148 -5.537,-4.79515 -6.614,-4.53482 -0.615,0.1485 -1.083,0.0372 -1.083,-0.25765 0,-0.28553 0.217,-0.38522 0.481,-0.22153 0.265,0.16368 0.481,-0.0402 0.481,-0.45314 0,-0.41291 -0.27,-0.7519 -0.601,-0.75331 -0.331,-0.001 -2.225,-1.51716 -4.209,-3.36833 -1.984,-1.85118 -3.9,-3.36693 -4.257,-3.36833 -0.357,-0.001 -1.228,-0.59849 -1.935,-1.32684 -1.866,-1.91973 -5.492,-4.93594 -5.935,-4.93594 -0.209,0 -0.38,-0.32505 -0.38,-0.72234 0,-0.39728 -0.281,-0.72233 -0.624,-0.72233 -0.343,0 -1.155,-0.65993 -1.804,-1.46651 -3.617,-4.49584 -5.828,-4.77148 -12.859,-1.60381 -1.397,0.62926 -2.75,1.1441 -3.008,1.1441 -0.4,0 -9.757,3.65213 -14.175,5.53294 -0.794,0.3379 -2.201,0.87857 -3.127,1.20149 -0.926,0.32292 -3.248,1.33301 -5.161,2.24464 -1.912,0.91163 -5.267,2.20475 -7.456,2.87359 -2.188,0.66885 -4.959,1.73023 -6.157,2.35862 -1.732,0.90828 -12.516,5.1358 -14.658,5.74594 -1.373,0.39105 -3.933,1.48063 -5.742,2.44365 -1.12,0.59622 -2.69,1.22758 -3.488,1.40302 -0.797,0.17544 -3.377,1.28167 -5.731,2.45828 -2.354,1.17661 -4.456,2.14161 -4.671,2.14445 -0.215,0.003 -1.514,0.51717 -2.886,1.14297 -1.373,0.62579 -3.253,1.41501 -4.179,1.75382 -2.455,0.89809 -8.837,3.6672 -12.988,5.63583 -1.985,0.94086 -4.637,2.08037 -5.895,2.53226 -1.257,0.45189 -2.43,0.96542 -2.605,1.14117 -0.176,0.17575 -0.736,0.31955 -1.245,0.31955 -0.509,0 -3.016,0.89166 -5.572,1.98146 -7.575,3.23049 -9.702,4.06643 -14.508,5.70416 -5.84,1.99004 -6.575,2.35336 -7.441,3.67582 -0.64,0.97825 -0.619,1.30185 0.212,3.17083 0.508,1.14477 1.315,2.44111 1.792,2.88075 0.477,0.43965 2.383,2.45355 4.235,4.47534 4.702,5.13329 9.649,10.20875 12.645,12.97324 2.445,2.25506 2.949,3.40775 1.504,3.4348 -0.374,0.007 -0.897,0.14106 -1.161,0.29792 -0.265,0.15685 -1.32,0.43682 -2.344,0.62215 -1.025,0.18534 -2.216,0.52303 -2.646,0.75043 -0.431,0.22741 -1.107,0.54002 -1.504,0.6947 -0.397,0.15467 -1.371,0.71616 -2.165,1.24774 -0.794,0.53157 -2.038,1.2268 -2.766,1.54493 -0.728,0.31814 -1.323,0.84319 -1.323,1.16678 0,0.32358 -0.25,0.74295 -0.555,0.93194 -0.361,0.22329 -0.424,0.13088 -0.18,-0.26395 0.657,-1.06428 -1.673,-0.0389 -4.196,1.84623 -1.282,0.95828 -2.788,2.50085 -3.346,3.42792 -1.094,1.81773 -1.643,6.74192 -0.751,6.74192 0.277,0 0.781,0.37923 1.12,0.84272 0.516,0.70655 1.379,0.83919 5.344,0.82083 4.391,-0.0203 5.014,-0.14924 8.721,-1.80583 2.195,-0.98117 4.313,-1.78394 4.705,-1.78394 0.392,0 0.833,-0.31137 0.979,-0.69193 0.145,-0.38056 0.55,-0.58248 0.898,-0.44872 0.348,0.13376 0.778,0.008 0.955,-0.27904 0.178,-0.28723 0.517,-0.40195 0.755,-0.25492 0.237,0.14702 0.707,-0.17449 1.044,-0.71448 0.337,-0.53999 1.075,-0.9818 1.641,-0.9818 0.565,0 1.305,-0.33491 1.645,-0.74425 0.339,-0.40933 0.931,-0.62358 1.315,-0.47609 0.469,0.18004 0.609,0.0371 0.428,-0.43512 -0.174,-0.45431 -0.04,-0.61509 0.379,-0.45418 0.357,0.13699 0.791,0.0176 0.966,-0.26531 0.175,-0.28291 0.738,-0.51438 1.251,-0.51438 0.514,0 0.934,-0.2099 0.934,-0.46644 0,-0.25655 0.325,-0.34171 0.722,-0.18926 0.396,0.15245 0.721,0.57905 0.721,0.948 0,0.36894 0.29,0.67081 0.644,0.67081 0.355,0 0.873,0.50168 1.152,1.11485 0.496,1.08827 5.716,6.96055 7.536,8.47706 0.995,0.829 1.361,1.1958 4.67,4.68477 1.219,1.28534 3.306,3.08059 4.638,3.98945 1.332,0.90885 2.802,2.3174 3.266,3.13011 1.269,2.21975 2.203,3.16309 3.131,3.16309 0.46,0 0.945,-0.28399 1.078,-0.63109 z m 0.342,-9.48157 c 0,-0.26486 0.229,-0.48156 0.51,-0.48156 0.28,0 0.375,0.2167 0.212,0.48156 -0.164,0.26485 -0.393,0.48155 -0.51,0.48155 -0.116,0 -0.212,-0.2167 -0.212,-0.48155 z m 1.443,-0.44911 c 0,-0.2827 -0.3,-0.51401 -0.667,-0.51401 -0.622,0 -1.38,-2.72178 -0.959,-3.44606 0.333,-0.57125 2.107,0.17179 2.107,0.88209 0,0.38203 -0.201,0.56992 -0.447,0.41754 -0.855,-0.52861 -0.942,0.53376 -0.103,1.2527 0.686,0.58796 0.951,0.60706 1.422,0.10239 0.318,-0.34119 0.902,-0.49623 1.297,-0.34453 0.797,0.30614 0.996,-0.56133 0.237,-1.03113 -0.684,-0.42276 -0.597,-1.26118 0.12,-1.16794 1.232,0.16014 1.851,-0.0507 1.556,-0.52943 -0.168,-0.27142 -0.126,-0.45372 0.09,-0.40511 0.218,0.0486 0.721,-0.0383 1.118,-0.19311 0.397,-0.15483 2.453,-0.7724 4.57,-1.37238 2.116,-0.59999 3.961,-1.2539 4.1,-1.45314 0.139,-0.19925 1.329,-0.6132 2.646,-0.91989 4.172,-0.97201 6.224,-1.58352 6.822,-2.03286 0.319,-0.23995 0.821,-0.28746 1.115,-0.10558 0.3,0.18591 0.64,-0.0595 0.776,-0.56049 0.231,-0.85286 2.425,-2.09762 4.985,-2.82865 0.661,-0.1889 1.527,-0.61457 1.924,-0.94594 0.788,-0.65826 2.732,-1.1745 5.172,-1.37357 0.861,-0.0702 1.824,-0.38713 2.141,-0.70428 0.317,-0.31714 0.738,-0.57663 0.937,-0.57663 0.487,0 4.641,-2.82481 4.994,-3.39651 0.155,-0.25076 0.584,-0.45593 0.953,-0.45593 0.369,0 1.187,-0.5162 1.817,-1.14712 0.635,-0.63528 2.201,-1.37461 3.509,-1.65697 1.3,-0.28043 3.23,-0.88874 4.288,-1.3518 2.002,-0.87579 2.309,-0.981 3.155,-1.08103 0.28,-0.0331 0.392,-0.25051 0.249,-0.48312 -0.144,-0.2326 0.351,-0.5456 1.1,-0.69554 1.846,-0.36959 4.831,-2.33134 4.856,-3.19145 0.01,-0.5009 0.168,-0.55095 0.541,-0.17707 0.624,0.62464 2.931,-0.4019 4.771,-2.12311 0.661,-0.61869 1.682,-1.24801 2.267,-1.39849 0.586,-0.15048 1.197,-0.68861 1.358,-1.19583 0.161,-0.50723 0.48,-0.80593 0.71,-0.66378 0.23,0.14214 0.895,-0.23394 1.479,-0.83573 0.584,-0.6018 0.88,-0.76913 0.658,-0.37185 -0.325,0.58268 -0.269,0.61364 0.292,0.16013 0.382,-0.30922 1.452,-0.5061 2.377,-0.43752 1.3,0.0964 2.006,-0.18859 3.108,-1.25543 0.785,-0.75907 1.713,-1.27012 2.063,-1.13566 0.35,0.13446 0.759,-0.0757 0.909,-0.46698 0.15,-0.3913 0.503,-0.5688 0.785,-0.39444 0.321,0.19879 0.398,0.0182 0.205,-0.48432 -0.169,-0.44074 -0.1,-0.80133 0.159,-0.80133 0.256,0 0.466,0.20989 0.466,0.46644 0,0.68842 1.551,-0.01 2.568,-1.15535 0.894,-1.00777 1.091,-1.08189 3.143,-1.18177 0.923,-0.0449 1.034,-0.185 0.581,-0.73105 -0.43,-0.51891 -0.416,-0.72451 0.06,-0.88692 0.588,-0.2002 0.976,-0.0714 3.267,1.08495 0.647,0.32648 0.962,0.32648 0.962,0 0,-0.2671 0.446,-0.48564 0.99,-0.48564 0.627,0 0.865,-0.20447 0.648,-0.55596 -0.211,-0.34087 -0.133,-0.42539 0.202,-0.21845 1.04,0.64373 -0.477,2.10877 -2.523,2.43634 -2.754,0.44082 -8.114,2.87951 -11.103,5.05129 -1.058,0.76905 -2.559,1.52607 -3.335,1.68225 -0.777,0.15618 -1.751,0.58689 -2.165,0.95712 -0.414,0.37024 -1.186,0.74689 -1.715,0.83701 -0.529,0.0901 -1.07,0.28427 -1.203,0.43145 -0.361,0.4024 -4.731,2.38095 -5.259,2.38095 -0.252,0 -0.741,0.37923 -1.087,0.84272 -0.736,0.98606 -2.552,1.97616 -4.192,2.28429 -0.636,0.11969 -1.664,0.6947 -2.284,1.2778 -0.62,0.5831 -1.128,0.88048 -1.128,0.66083 0,-0.21964 -0.379,-0.066 -0.842,0.34151 -1.006,0.88613 -4.876,2.9029 -5.892,3.07132 -2.853,0.47274 -9.683,3.73529 -10.174,4.86027 -0.09,0.21208 -1.232,0.92735 -2.532,1.58948 -1.3,0.66214 -2.855,1.47932 -3.454,1.81595 -0.6,0.33664 -2.316,0.83896 -3.815,1.11627 -2.284,0.42277 -7.547,2.56756 -10.331,4.21005 -2.52,1.48713 -4.208,2.14721 -6.405,2.50469 -3.766,0.6128 -7.064,1.54248 -7.064,1.99151 0,0.22023 -0.3,0.40042 -0.666,0.40042 -0.367,0 -1.287,0.32372 -2.045,0.71937 -0.757,0.39565 -1.919,0.72759 -2.58,0.73765 -1.362,0.0207 -2.886,1.01081 -2.886,1.87499 0,0.3175 -0.194,0.45738 -0.431,0.31085 -0.237,-0.14654 -0.556,0.0606 -0.709,0.46036 -0.401,1.0467 -4.633,2.60668 -4.633,1.7079 z m 17.558,-1.95867 c -0.163,-0.26486 -0.06,-0.48156 0.241,-0.48156 0.295,0 0.383,-0.25018 0.194,-0.55596 -0.212,-0.34445 -0.132,-0.42524 0.212,-0.21236 0.666,0.41189 0.744,1.73143 0.103,1.73143 -0.249,0 -0.586,-0.2167 -0.75,-0.48155 z m -32.417,-3.80983 c -0.513,-0.32462 -0.23,-0.70512 1.202,-1.62114 2.409,-1.54054 3.131,-1.1246 1.166,0.67192 -0.835,0.76349 -1.559,1.38484 -1.609,1.38079 -0.05,-0.004 -0.391,-0.19826 -0.759,-0.43157 z m -43.886,-2.07929 c -0.728,-1.36206 -1.658,-2.29733 -2.284,-2.29733 -0.268,0 -0.643,-0.25352 -0.834,-0.56339 -0.234,-0.37881 -0.09,-0.46265 0.452,-0.25589 0.44,0.16913 0.801,0.0881 0.801,-0.18005 0,-0.26815 0.36,-0.42388 0.801,-0.34605 0.551,0.0974 0.931,-0.34658 1.216,-1.42356 0.452,-1.70448 1.09,-1.87176 3.532,-0.92648 2.098,0.81214 3.743,2.09594 3.399,2.6527 -0.163,0.2634 -0.05,0.56195 0.257,0.66345 0.98,0.32689 -0.493,2.33215 -2.254,3.0686 -2.461,1.02968 -4.406,0.87979 -5.086,-0.392 z m 55.859,0.59201 c 0,-0.26486 0.229,-0.48156 0.51,-0.48156 0.28,0 0.375,0.2167 0.212,0.48156 -0.164,0.26485 -0.393,0.48155 -0.51,0.48155 -0.116,0 -0.212,-0.2167 -0.212,-0.48155 z m 1.301,-0.49306 c -0.137,-0.52339 -0.107,-0.96819 0.07,-0.98845 1.358,-0.15852 2.189,-0.4535 2.445,-0.86884 0.184,-0.29754 0.572,-0.3208 0.994,-0.0596 0.416,0.2576 0.922,0.23813 1.267,-0.0488 0.382,-0.31746 0.679,-0.30823 0.887,0.0276 0.171,0.27771 0.07,0.50493 -0.226,0.50493 -0.296,0 -0.429,0.17732 -0.295,0.39405 0.134,0.21672 -0.503,0.35679 -1.415,0.31126 -0.912,-0.0455 -1.658,0.0946 -1.658,0.31135 0,0.21677 -0.409,0.61327 -0.909,0.88112 -0.732,0.3922 -0.957,0.30176 -1.157,-0.46461 z m -3.225,0.0399 c 0,-0.24922 0.216,-0.58706 0.481,-0.75075 0.265,-0.16369 0.481,0.0402 0.481,0.45313 0,0.41292 -0.216,0.75076 -0.481,0.75076 -0.265,0 -0.481,-0.20391 -0.481,-0.45314 z m -5.773,-0.99153 c 0,-0.26486 0.23,-0.48156 0.51,-0.48156 0.28,0 0.376,0.2167 0.212,0.48156 -0.163,0.26486 -0.393,0.48156 -0.509,0.48156 -0.117,0 -0.213,-0.2167 -0.213,-0.48156 z m -5.352,-0.8125 c -0.575,-0.70737 -0.557,-0.77361 0.142,-0.51196 0.486,0.18225 0.911,0.0162 1.078,-0.42191 0.153,-0.39735 0.496,-0.58722 0.763,-0.42193 0.326,0.20146 0.321,0.60837 -0.01,1.23441 -0.614,1.14723 -1.112,1.17793 -1.97,0.12139 z m 8.078,0.49146 c -0.176,-0.17657 -0.32,-0.54496 -0.32,-0.81864 0,-0.30175 0.224,-0.27331 0.569,0.0722 0.313,0.31341 0.457,0.6818 0.321,0.81865 -0.137,0.13684 -0.393,0.10433 -0.57,-0.0722 z m -5.333,-1.54397 c -0.17,-0.27521 0.01,-1.26836 0.403,-2.20701 0.392,-0.93866 0.669,-1.72447 0.617,-1.74625 -1.421,-0.58787 -2.962,-0.26068 -4.882,1.03688 -1.313,0.88688 -2.537,1.37982 -2.993,1.2049 -0.692,-0.26596 -0.682,-0.39322 0.1,-1.25268 1.914,-2.11803 6.294,-3.426 7.775,-2.32181 0.479,0.35749 0.9,1.1738 0.935,1.81403 0.08,1.38335 -1.504,4.19579 -1.95,3.47194 z m 17.786,-0.0189 c -0.149,-0.2416 0.05,-0.39234 0.439,-0.33497 1.03,0.15133 1.517,0.77425 0.606,0.77425 -0.426,0 -0.896,-0.19767 -1.045,-0.43928 z m -52.699,-0.4612 c 0,-0.2993 0.162,-0.562 0.36,-0.58378 1.975,-0.2167 3.419,-0.55066 4.282,-0.99019 1.672,-0.85121 2.379,-0.23205 0.867,0.75968 -1.61,1.05575 -5.509,1.63214 -5.509,0.81429 z m 40.152,0.0596 c 0.17,-0.33007 0.403,-1.08781 0.518,-1.68385 0.114,-0.59605 0.428,-1.15712 0.697,-1.24683 0.269,-0.0897 0.389,-0.32519 0.266,-0.52328 -0.122,-0.19809 0.06,-0.36016 0.398,-0.36016 0.341,0 0.621,0.2794 0.621,0.62089 0,0.34149 -0.181,0.50928 -0.401,0.37287 -0.221,-0.1364 -0.401,-0.0185 -0.401,0.26196 0,0.64031 0.299,0.64117 1.488,0.004 0.519,-0.27814 0.817,-0.71154 0.662,-0.96311 -0.462,-0.74729 0.567,-0.51935 1.222,0.27088 0.433,0.52184 0.776,0.5853 1.211,0.22388 0.334,-0.27741 0.792,-0.44962 1.018,-0.38269 0.638,0.18849 3.539,-0.95258 3.539,-1.39169 0,-0.60887 1.909,-1.65388 3.358,-1.83734 0.72,-0.0913 2.072,-0.59474 3.004,-1.11886 1.763,-0.99116 4.876,-1.50414 5.477,-0.90244 0.191,0.19078 -0.08,0.34687 -0.604,0.34687 -0.522,0 -1.361,0.30094 -1.863,0.66876 -0.503,0.36782 -1.153,0.57688 -1.446,0.46457 -0.292,-0.1123 -0.93,0.23686 -1.417,0.77591 -0.487,0.53905 -1.259,0.98009 -1.715,0.98009 -0.456,0 -1.089,0.31397 -1.407,0.6977 -0.318,0.38374 -1.373,0.94964 -2.344,1.25756 -0.971,0.30792 -2.252,0.86575 -2.847,1.23962 -0.596,0.37387 -1.083,0.53989 -1.083,0.36893 0,-0.17097 -0.27,-0.0887 -0.601,0.18292 -0.543,0.44551 -2.645,0.83431 -3.247,0.60045 -1.31,-0.50896 -2.77,-0.24341 -3.529,0.64197 -0.486,0.56666 -0.745,0.76024 -0.574,0.43016 z m 15.648,-0.0654 c 0,-0.26485 0.216,-0.61548 0.481,-0.77917 0.264,-0.16369 0.481,-0.0809 0.481,0.18394 0,0.26485 -0.217,0.61548 -0.481,0.77917 -0.265,0.16369 -0.481,0.0809 -0.481,-0.18394 z m 2.405,-1.47938 c 0,-0.65472 2.292,-1.74061 2.736,-1.29621 0.427,0.42773 -0.299,1.08346 -1.654,1.49319 -0.66,0.1996 -1.082,0.12273 -1.082,-0.19698 z m -47.308,-0.62407 c 0.315,-0.5099 2.091,-0.4509 2.091,0.0695 0,0.23684 -0.521,0.39936 -1.157,0.36116 -0.636,-0.0382 -1.056,-0.23197 -0.934,-0.43061 z m 51.637,-1.29586 c 0,-0.67104 0.885,-1.09648 1.495,-0.71898 0.371,0.22963 0.335,0.45479 -0.12,0.74338 -0.859,0.54469 -1.375,0.53553 -1.375,-0.0244 z m -60.009,-0.34734 c -1.028,-0.41547 -0.718,-1.75026 0.342,-1.47262 0.519,0.13585 1.764,-0.0273 2.766,-0.36266 1.003,-0.33531 3.081,-0.73196 4.618,-0.88143 4.001,-0.38897 3.321,0.66098 -0.902,1.3927 -1.835,0.31792 -3.946,0.81764 -4.691,1.11049 -0.744,0.29284 -1.394,0.51534 -1.443,0.49443 -0.05,-0.0209 -0.359,-0.14732 -0.69,-0.28091 z m 37.716,-0.86456 c -0.174,-0.45297 -0.587,-0.60809 -1.098,-0.41201 -0.574,0.22084 -0.709,0.13694 -0.45,-0.28172 0.202,-0.32792 0.72,-0.46107 1.15,-0.29588 0.508,0.19513 0.364,-0.15797 -0.41,-1.00793 -0.655,-0.71955 -0.92,-1.1522 -0.59,-0.96143 0.331,0.19077 0.602,0.1607 0.602,-0.0668 0,-0.22751 -0.271,-0.69181 -0.602,-1.03177 -0.484,-0.49835 -0.415,-0.58699 0.361,-0.45748 0.575,0.096 0.914,-0.0815 0.842,-0.44131 -0.07,-0.33107 0.1,-0.60194 0.361,-0.60194 0.264,0 0.484,-0.37923 0.488,-0.84273 0,-0.59459 0.119,-0.66718 0.386,-0.24654 0.299,0.47136 0.725,0.47339 2.037,0.01 0.912,-0.32257 1.747,-0.64369 1.856,-0.71361 0.109,-0.0699 -0.216,-0.61603 -0.722,-1.21357 l -0.919,-1.08646 1.112,0.94397 c 0.713,0.6051 1.231,0.76307 1.443,0.44004 0.267,-0.40631 3.095,-1.62478 3.771,-1.62478 0.09,0 0.168,0.32505 0.168,0.72233 0,0.39728 -0.223,0.72233 -0.495,0.72233 -0.273,0 -2.167,1.09274 -4.209,2.42831 -3.898,2.54876 -5.418,4.46587 -4.12,5.19349 0.617,0.3453 0.618,0.47049 0.01,0.97428 -0.552,0.45817 -0.754,0.42739 -0.974,-0.14845 z m -19.557,-0.77116 c 0,-0.28049 0.217,-0.37605 0.481,-0.21236 0.265,0.16369 0.481,0.39318 0.481,0.50998 0,0.1168 -0.216,0.21236 -0.481,0.21236 -0.264,0 -0.481,-0.22949 -0.481,-0.50998 z m 45.195,0.0528 c 0.384,-0.24332 0.888,-0.32531 1.119,-0.18219 0.509,0.3153 2.334,-1.54436 1.921,-1.95795 -0.16,-0.16062 0.07,-0.31912 0.51,-0.35223 0.441,-0.0331 0.964,-0.10684 1.163,-0.16385 0.198,-0.057 1.389,-0.39992 2.645,-0.76202 1.257,-0.3621 2.285,-0.91528 2.285,-1.22929 0,-0.67479 1.34,-1.27666 1.971,-0.8858 0.243,0.15008 0.558,-0.0312 0.7,-0.40279 0.152,-0.39678 0.995,-0.69684 2.041,-0.72699 l 1.782,-0.0513 -1.683,0.91706 c -0.926,0.50439 -2.184,0.92615 -2.795,0.93725 -0.632,0.0115 -0.979,0.23275 -0.806,0.51367 0.168,0.27142 0.127,0.45372 -0.09,0.40511 -0.58,-0.1294 -2.199,0.58834 -3.132,1.38878 -0.446,0.38297 -1.026,0.56319 -1.289,0.4005 -0.263,-0.16269 -0.601,-0.098 -0.75,0.14373 -0.465,0.75434 -4.101,2.46587 -5.221,2.45813 -0.836,-0.006 -0.916,-0.10331 -0.369,-0.44978 z m -2.383,-3.63607 c 0,-0.39728 0.21,-0.72233 0.466,-0.72233 0.257,0 0.342,0.32505 0.189,0.72233 -0.152,0.39729 -0.361,0.72234 -0.465,0.72234 -0.104,0 -0.19,-0.32505 -0.19,-0.72234 z M 16820.4,237.304 c 0,-0.53507 0.321,-0.96312 0.722,-0.96312 0.397,0 0.722,-0.18872 0.722,-0.41938 0,-0.56587 -4.526,0.30299 -4.731,0.90814 -0.09,0.2609 -0.568,0.47436 -1.067,0.47436 -1.539,0 -0.55,-1.27794 1.635,-2.1134 2.67,-1.02071 3.83,-0.97887 4.874,0.17582 0.473,0.52346 1.033,0.84498 1.244,0.71448 0.211,-0.13051 0.515,-0.0236 0.676,0.23756 0.162,0.26116 -0.499,0.80644 -1.468,1.21174 -2.291,0.9581 -2.607,0.93069 -2.607,-0.2262 z m 54.536,0.14231 c 0.565,-0.56585 2.708,-0.69148 2.708,-0.15879 0,0.27392 -0.686,0.49803 -1.523,0.49803 -0.838,0 -1.371,-0.15266 -1.185,-0.33924 z m -47.087,-0.6358 c -0.167,-0.27142 -0.126,-0.44208 0.09,-0.37925 0.218,0.0628 0.829,-0.12713 1.359,-0.42214 1.114,-0.62114 1.167,-0.63135 3.276,-0.63135 0.903,0 2.02,-0.39835 2.579,-0.91955 1.292,-1.20475 4.984,-2.98001 5.514,-2.65164 0.229,0.14143 0.441,-0.0265 0.471,-0.37322 0.293,-3.32865 2.705,-5.58057 4.081,-3.81102 0.68,0.87454 1.797,0.20371 1.4,-0.84089 -0.231,-0.60861 -0.169,-0.66225 0.267,-0.2297 0.639,0.63506 2.038,0.30064 1.615,-0.38592 -0.151,-0.24367 -0.1,-0.40267 0.123,-0.35334 0.612,0.13864 2.91,-0.90759 3.269,-1.48865 0.176,-0.28551 0.509,-0.40235 0.74,-0.25965 0.41,0.25378 7.004,-2.42805 7.908,-3.21605 0.721,-0.62897 1.227,-0.46781 1.227,0.39105 0,0.94217 -1.353,2.06298 -2.517,2.08438 -1.02,0.0188 -8.727,3.63666 -10.712,5.02879 -0.794,0.5566 -1.856,1.08212 -2.36,1.16782 -0.505,0.0857 -1.508,0.73444 -2.23,1.44165 -1.226,1.20188 -4.318,2.89451 -9.716,5.31835 -2.399,1.07762 -5.87,1.36586 -6.386,0.53033 z m 37.868,-0.34924 c 0.152,-0.90777 2.089,-3.00972 2.773,-3.00972 0.229,0 0.761,-0.13248 1.183,-0.29439 0.561,-0.21548 0.686,-0.0864 0.469,0.48155 -0.164,0.42677 -0.599,0.77595 -0.968,0.77595 -0.368,0 -0.67,0.3233 -0.67,0.71844 0,0.62551 0.265,0.61615 2.045,-0.0724 1.124,-0.43497 2.25,-0.97497 2.501,-1.19999 0.251,-0.22503 0.919,-0.40914 1.483,-0.40914 0.565,0 1.181,-0.15443 1.369,-0.34317 0.649,-0.64984 4.871,-2.06382 6.163,-2.06421 0.712,-2.2e-4 1.43,-0.22063 1.597,-0.48981 0.166,-0.26917 0.539,-0.34293 0.828,-0.16389 0.529,0.32749 -3.35,2.46973 -5.161,2.84989 -0.528,0.11091 -1.033,0.4205 -1.122,0.68798 -0.09,0.26748 -0.567,0.48632 -1.062,0.48632 -0.902,0 -1.848,0.335 -5.629,1.99443 -1.122,0.4922 -2.917,0.89491 -3.99,0.89491 -1.591,0 -1.924,-0.15543 -1.809,-0.84273 z m 15.134,-0.44142 c -0.542,-0.54194 -0.36,-0.99744 0.521,-1.30856 0.463,-0.16348 1.163,-0.44028 1.555,-0.61511 0.54,-0.24078 0.519,-0.12393 -0.09,0.48187 -0.44,0.43985 -1.044,0.79972 -1.343,0.79972 -0.299,0 -0.41,0.2167 -0.246,0.48156 0.336,0.54501 0.08,0.64605 -0.401,0.16052 z m -67.313,-0.70183 c 0.326,-0.32911 0.714,-0.47707 0.862,-0.3288 0.148,0.14826 -0.119,0.41753 -0.593,0.59837 -0.686,0.26133 -0.741,0.20602 -0.269,-0.26957 z m 33.48,-1.12295 c 0,-0.38564 0.184,-0.58736 0.409,-0.44828 0.224,0.13907 0.284,0.45459 0.131,0.70115 -0.389,0.63006 -0.54,0.55911 -0.54,-0.25287 z m 45.538,0.21959 c 0,-0.26485 0.325,-0.48155 0.722,-0.48155 0.396,0 0.721,-0.22949 0.721,-0.50998 0,-0.28049 0.218,-0.37502 0.485,-0.21007 0.303,0.18748 0.226,0.55916 -0.206,0.99153 -0.799,0.799 -1.722,0.91169 -1.722,0.21007 z m 4.329,-1.5912 c 0,-0.56371 1.864,-1.77969 2.728,-1.77969 0.466,0 -0.91,1.4679 -1.846,1.96946 -0.656,0.35135 -0.882,0.30278 -0.882,-0.18977 z m -10.583,-1.29813 c 0,-0.26486 0.23,-0.48156 0.51,-0.48156 0.28,0 0.376,0.2167 0.212,0.48156 -0.163,0.26485 -0.393,0.48155 -0.509,0.48155 -0.117,0 -0.213,-0.2167 -0.213,-0.48155 z m 39.98,-0.83342 c 0.813,-1.34887 1.483,-1.61713 2.178,-0.87233 0.408,0.43764 0.306,0.7291 -0.414,1.1791 -0.549,0.3435 -0.82,0.3778 -0.637,0.0806 0.44,-0.7117 -0.365,-0.65187 -1.141,0.0848 -0.506,0.4803 -0.503,0.38487 0.01,-0.47225 z m -40.509,-0.97241 c 0.31,-0.59593 0.718,-1.10008 0.907,-1.12035 0.189,-0.0203 0.724,-0.10959 1.188,-0.1985 0.464,-0.0889 0.713,0.0504 0.553,0.30966 -0.16,0.25922 -0.415,0.34657 -0.568,0.1941 -0.152,-0.15247 -0.809,0.21233 -1.46,0.81068 l -1.183,1.08791 z m 17.381,-0.48156 c 0,-0.19864 0.333,-0.78181 0.722,-1.29593 0.509,-0.67368 0.71,-0.74093 0.721,-0.24078 0.01,0.52783 0.128,0.49919 0.488,-0.11961 0.281,-0.48195 0.884,-0.73469 1.478,-0.62001 0.69,0.13303 1.081,-0.10036 1.25,-0.74603 0.135,-0.5168 0.399,-0.84482 0.586,-0.72892 0.187,0.11589 0.92,-0.0904 1.629,-0.45842 1.11,-0.57662 1.288,-0.57322 1.288,0.0246 0,0.38157 -0.183,0.69377 -0.407,0.69377 -0.224,0 -0.907,0.4334 -1.517,0.96311 -0.61,0.52971 -1.584,0.96311 -2.163,0.96311 -0.58,0 -1.447,0.4334 -1.926,0.96312 -0.853,0.94399 -2.179,1.3154 -2.149,0.60194 z m -73.614,-2.04661 c -0.433,-0.28049 -0.493,-0.46975 -0.149,-0.47418 0.316,-0.004 0.707,0.20932 0.871,0.47418 0.369,0.59786 0.202,0.59786 -0.722,0 z m 33.557,-1.83517 c -0.288,-1.10357 0.844,-1.83461 1.74,-1.12301 0.817,0.64927 2.454,0.22638 5.491,-1.41885 4.683,-2.53691 5.094,-2.74258 7.196,-3.60167 1.124,-0.45956 2.044,-1.01936 2.044,-1.24399 0,-0.22463 0.291,-0.40842 0.648,-0.40842 0.85,0 3.681,-1.42092 3.681,-1.8479 0,-0.18297 0.812,-0.71361 1.804,-1.17919 0.992,-0.46559 2.453,-1.27277 3.247,-1.79375 1.662,-1.09064 1.839,-1.17317 4.041,-1.87853 1.98,-0.63455 2.453,-0.65401 2.453,-0.10083 0,0.23272 -0.703,0.71011 -1.563,1.06086 -1.77,0.72204 -6.167,3.19511 -9.741,5.47879 -1.323,0.84527 -3.434,2.00924 -4.69,2.58661 -1.443,0.66293 -2.288,1.35939 -2.293,1.89002 0,0.65341 -0.1,0.69535 -0.419,0.18859 -0.497,-0.78397 -2.02,-0.11821 -3.84,1.6782 -0.628,0.61898 -1.341,1.00178 -1.585,0.85066 -0.244,-0.15113 -0.995,0.0866 -1.668,0.52829 -0.674,0.44169 -2.364,0.92075 -3.756,1.06458 -2.265,0.23408 -2.558,0.15744 -2.79,-0.73046 z m 36.193,-0.11947 c 0,-0.28049 0.217,-0.37605 0.482,-0.21236 0.264,0.16369 0.481,0.39318 0.481,0.50997 0,0.1168 -0.217,0.21236 -0.481,0.21236 -0.265,0 -0.482,-0.22949 -0.482,-0.50997 z m -5.531,-0.45314 c -0.164,-0.26485 -0.08,-0.48155 0.183,-0.48155 0.265,0 0.615,0.2167 0.779,0.48155 0.163,0.26486 0.08,0.48156 -0.184,0.48156 -0.265,0 -0.615,-0.2167 -0.778,-0.48156 z m 18.038,-0.22618 c 0,-0.6388 2.259,-2.00714 2.657,-1.60917 0.139,0.13906 0.124,0.58642 -0.03,0.99414 -0.347,0.90618 -2.625,1.43981 -2.625,0.61503 z m -97.169,-0.43999 c 0,-0.44054 0.392,-0.7785 0.903,-0.7785 0.497,0 1.173,-0.32505 1.502,-0.72233 0.33,-0.39728 0.897,-0.72233 1.262,-0.72233 0.364,0 0.662,-0.2167 0.662,-0.48156 0,-0.59112 0.504,-0.60503 1.397,-0.0386 0.543,0.34386 0.411,0.67439 -0.671,1.67807 -0.741,0.68743 -1.694,1.25282 -2.119,1.25644 -0.424,0.004 -1.258,0.13724 -1.854,0.29694 -0.795,0.21347 -1.082,0.0842 -1.082,-0.48813 z m 21.763,0.0766 c 0.108,-0.32426 0.893,-0.73225 1.745,-0.90664 1.059,-0.21695 1.488,-0.14482 1.357,0.2284 -0.105,0.30001 -0.531,0.48556 -0.947,0.41232 -0.416,-0.0732 -0.893,0.0893 -1.061,0.36116 -0.43,0.69616 -1.332,0.61767 -1.094,-0.0952 z m 105.329,-0.35164 c 0.663,-1.06394 1.131,-0.93132 0.698,0.19811 -0.157,0.40871 -0.51,0.7431 -0.785,0.7431 -0.317,0 -0.285,-0.34549 0.09,-0.94121 z m -120.929,0.1307 c 0.347,-0.13911 0.762,-0.122 0.922,0.038 0.16,0.16001 -0.124,0.27383 -0.631,0.25292 -0.561,-0.0231 -0.674,-0.13722 -0.291,-0.29094 z m 80.333,0 c 0.348,-0.13911 0.763,-0.122 0.922,0.038 0.16,0.16001 -0.124,0.27383 -0.631,0.25292 -0.56,-0.0231 -0.674,-0.13722 -0.291,-0.29094 z m 39.295,-0.63416 c -0.163,-0.26485 0.04,-0.48155 0.453,-0.48155 0.412,0 0.75,0.2167 0.75,0.48155 0,0.26486 -0.204,0.48156 -0.453,0.48156 -0.249,0 -0.586,-0.2167 -0.75,-0.48156 z m -128.138,-0.91664 c -1.02,-0.64726 -0.154,-1.53348 1.174,-1.19992 0.645,0.16211 1.173,0.0892 1.173,-0.16193 0,-0.25118 0.92,-0.7522 2.044,-1.11339 1.993,-0.63994 4.88,-2.05784 5.937,-2.91548 0.289,-0.23433 0.638,-0.31353 0.775,-0.17598 0.138,0.13754 0.81,0.0372 1.493,-0.22305 0.972,-0.36978 1.472,-0.28756 2.291,0.37644 1.014,0.8214 1.022,0.9013 0.242,2.41064 -0.801,1.55042 -1.968,2.38484 -2.538,1.81428 -0.164,-0.16378 0.278,-0.79338 0.983,-1.3991 0.704,-0.60572 1.28,-1.34069 1.28,-1.63326 0,-0.54749 -2.759,-1.17064 -2.995,-0.67653 -0.196,0.41081 -3.254,1.96148 -3.868,1.96148 -0.292,0 -0.978,0.40414 -1.524,0.89809 -0.712,0.64328 -5.24,2.57839 -5.769,2.46542 -0.02,-0.004 -0.333,-0.19652 -0.698,-0.42771 z m 10.351,-0.28724 c 0.152,-0.39729 0.578,-0.72234 0.947,-0.72234 0.368,0 0.67,0.32505 0.67,0.72234 0,0.39745 -0.426,0.72233 -0.947,0.72233 -0.644,0 -0.859,-0.23101 -0.67,-0.72233 z m 93.114,0.18058 c 0.121,-0.36418 0.365,-0.60797 0.541,-0.54175 0.427,0.16012 0.311,0.53299 -0.28,0.90292 -0.265,0.16553 -0.382,0.003 -0.261,-0.36117 z m 28.6,-0.34036 c 0.09,-0.35273 0.162,-0.74474 0.162,-0.87114 0,-0.1264 0.216,-0.0959 0.481,0.0678 0.265,0.16369 0.481,0.51432 0.481,0.77918 0,0.26485 -0.198,0.35906 -0.44,0.20935 -0.242,-0.1497 -0.531,-0.10832 -0.643,0.092 -0.111,0.2003 -0.13,0.0756 -0.04,-0.27716 z m -97.359,-0.5292 c 0.04,-0.51136 0.232,-0.82947 0.43,-0.70691 0.198,0.12256 0.239,0.54095 0.09,0.92975 -0.376,0.98038 -0.603,0.88309 -0.52,-0.22284 z m 70.716,-0.19164 c 0.23,-0.69264 1.791,-1.05406 1.791,-0.41475 0,0.25339 -0.445,0.57728 -0.99,0.71975 -0.629,0.16479 -0.921,0.0538 -0.801,-0.305 z m -38.616,-0.2177 c 0,-0.4804 2.744,-1.53177 3.091,-1.18433 0.386,0.38631 -1.275,1.52727 -2.249,1.545 -0.463,0.008 -0.842,-0.15388 -0.842,-0.36067 z m -30.786,-0.58713 c 0,-0.26485 0.229,-0.48155 0.509,-0.48155 0.28,0 0.376,0.2167 0.212,0.48155 -0.163,0.26486 -0.393,0.48156 -0.509,0.48156 -0.117,0 -0.212,-0.2167 -0.212,-0.48156 z m -16.549,-1.39255 c -0.863,-0.95432 -0.559,-2.73173 0.709,-4.14534 0.475,-0.52971 1.094,-1.57207 1.376,-2.31636 0.281,-0.74429 0.705,-1.23337 0.942,-1.08683 0.237,0.14653 0.57,-0.28932 0.741,-0.96856 0.255,-1.01814 0.552,-1.20945 1.694,-1.08954 0.858,0.0901 1.776,-0.20811 2.411,-0.78345 0.564,-0.51089 1.387,-0.98213 1.83,-1.04718 0.443,-0.0651 1.208,-0.67216 1.701,-1.34912 0.492,-0.67697 1.274,-1.23085 1.736,-1.23085 0.463,0 1.13,-0.54142 1.484,-1.20316 0.354,-0.66174 0.742,-1.10451 0.862,-0.98394 0.121,0.12058 0.916,-0.31315 1.769,-0.96383 0.852,-0.65069 1.766,-1.18307 2.03,-1.18307 0.265,0 0.874,-0.4334 1.352,-0.96311 0.479,-0.52971 1.139,-0.96311 1.468,-0.96311 0.328,0 1.095,-0.51849 1.704,-1.1522 0.609,-0.63372 1.335,-1.06688 1.614,-0.96259 0.278,0.1043 1.155,-0.33353 1.949,-0.97294 l 1.443,-1.16256 -1.443,-0.35678 c -1.6,-0.39561 -2.146,-0.97615 -2.157,-2.29336 0,-0.71721 0.245,-0.82541 1.352,-0.58206 0.748,0.16441 1.992,0.0353 2.766,-0.28695 1.969,-0.82042 6.449,-1.75662 6.159,-1.28722 -0.132,0.21376 -0.552,0.38866 -0.933,0.38866 -0.848,0 -0.933,0.94252 -0.09,1.01471 2.873,0.24649 3.488,0.3171 3.488,0.4005 0,0.32458 2.675,0.37113 2.873,0.05 0.134,-0.21652 1.382,-0.27177 2.774,-0.12277 1.392,0.149 5.128,0.25088 8.303,0.22641 9.114,-0.0703 12.842,-0.0427 14.912,0.11019 1.058,0.0782 5.171,0.28749 9.14,0.46513 3.968,0.17764 7.513,0.42171 7.877,0.54238 0.365,0.12067 0.96,-0.0276 1.323,-0.32943 0.364,-0.30185 0.661,-0.41394 0.661,-0.24908 0,0.16485 0.487,-0.18784 1.082,-0.78376 0.596,-0.59593 1.028,-1.24603 0.962,-1.44467 -0.07,-0.19864 0.178,-0.36117 0.543,-0.36117 0.364,0 0.93,-0.32266 1.257,-0.71703 0.327,-0.39436 0.786,-0.59827 1.021,-0.45313 0.234,0.14514 0.426,-0.1823 0.426,-0.72764 0,-0.54534 0.292,-0.99153 0.648,-0.99153 0.903,0 3.682,-1.43306 3.682,-1.89891 0,-0.44108 3.294,-1.38769 5.772,-1.65865 0.926,-0.10125 2.932,-0.7496 4.457,-1.44077 1.526,-0.69117 2.933,-1.22137 3.127,-1.17823 0.194,0.0431 1.145,-0.0867 2.113,-0.28866 1.171,-0.24433 1.844,-0.69029 2.012,-1.3334 0.139,-0.53145 0.468,-0.83259 0.732,-0.6692 0.265,0.1634 0.608,0.0914 0.763,-0.15988 0.155,-0.25133 0.873,-0.46124 1.596,-0.46646 2.231,-0.0161 4.59,-0.86994 4.191,-1.51682 -0.135,-0.21856 0.461,-0.37012 1.325,-0.33679 1.996,0.077 2.862,-0.1857 3.599,-1.09112 0.323,-0.39728 0.594,-0.52203 0.603,-0.27722 0,0.24481 0.528,-0.0378 1.156,-0.62807 0.969,-0.91131 1.184,-0.96029 1.428,-0.32472 0.181,0.471 0.02,0.74846 -0.431,0.74846 -0.395,0 -0.919,0.52724 -1.164,1.17166 -0.334,0.87945 -1.141,1.38264 -3.235,2.01762 -1.534,0.46527 -3.132,1.12987 -3.549,1.47689 -0.418,0.34702 -1.109,0.63094 -1.535,0.63094 -0.427,0 -0.91,0.2167 -1.073,0.48155 -0.164,0.26486 -0.682,0.48156 -1.152,0.48156 -0.47,0 -2.243,0.43656 -3.94,0.97014 -1.697,0.53357 -4.276,1.3462 -5.732,1.80583 -1.455,0.45963 -2.909,1.16075 -3.231,1.55803 -0.323,0.39728 -0.593,0.55218 -0.602,0.34422 0,-0.20796 -0.465,-0.13716 -1.014,0.15732 -0.594,0.3179 -0.889,0.82406 -0.727,1.24585 0.15,0.39072 0.08,0.58925 -0.163,0.44117 -0.239,-0.14807 -0.995,-0.0563 -1.678,0.20385 -1.409,0.5361 -1.578,0.28133 -0.517,-0.78019 0.399,-0.39971 0.603,-0.92519 0.454,-1.16772 -0.309,-0.49913 -3.104,0.79605 -3.104,1.43792 0,0.22717 -0.487,0.54053 -1.083,0.69637 -1.48,0.38741 -1.343,0.29385 -3.405,2.33735 -1.013,1.0041 -2.041,1.82564 -2.285,1.82564 -0.722,0 -0.504,1.3183 0.268,1.61474 1.272,0.48864 11.643,0.42725 12.58,-0.0745 0.501,-0.26837 1.32,-0.94143 1.821,-1.49567 0.502,-0.55424 1.373,-1.00771 1.938,-1.00771 0.564,0 1.85,-0.42061 2.857,-0.93469 1.008,-0.51408 2.406,-0.99346 3.109,-1.0653 0.702,-0.0718 1.496,-0.28509 1.763,-0.47389 0.268,-0.18879 1.74,-0.81236 3.27,-1.38571 2.333,-0.87375 2.69,-1.15588 2.202,-1.74345 -0.319,-0.38556 -0.871,-0.58961 -1.225,-0.45344 -0.83,0.31881 -0.818,0.0388 0.03,-0.81455 0.73,-0.73079 3.837,-0.56224 3.377,0.18318 -0.145,0.23519 -0.03,0.42762 0.26,0.42762 0.289,0 0.649,-0.32505 0.802,-0.72233 0.152,-0.39728 0.672,-0.72233 1.155,-0.72233 0.483,0 1.016,-0.43655 1.186,-0.97011 0.169,-0.53355 0.508,-0.84582 0.754,-0.69391 0.245,0.1519 0.717,0.10419 1.047,-0.10602 0.331,-0.21022 0.71,-0.40425 0.842,-0.43118 0.866,-0.17631 1.924,-0.86347 1.924,-1.24961 0,-0.25215 -0.216,-0.32453 -0.481,-0.16084 -0.646,0.3997 -0.607,0.11194 0.196,-1.43725 0.55,-1.06024 0.708,-1.14519 0.842,-0.4506 0.151,0.7819 0.231,0.78981 0.929,0.0913 0.486,-0.48669 1.004,-0.61548 1.427,-0.35432 0.388,0.2401 0.919,0.19752 1.28,-0.10267 0.456,-0.37911 0.618,-0.32272 0.618,0.21612 0,0.401 -0.542,0.86506 -1.203,1.03125 -0.661,0.16619 -1.203,0.60847 -1.203,0.98286 0,0.37439 -0.413,0.81211 -0.919,0.97272 -0.505,0.1606 -1.251,0.79986 -1.657,1.42057 -0.64,0.9775 -0.648,1.24893 -0.06,2.02783 0.964,1.27435 0.879,1.82985 -0.542,3.52004 -1.227,1.46001 -1.236,1.52539 -0.458,3.16706 0.437,0.92196 1.013,1.67628 1.281,1.67628 0.268,0 0.351,0.22024 0.185,0.48941 -0.166,0.26918 -0.504,0.36474 -0.75,0.21236 -0.246,-0.15238 -0.448,-0.0621 -0.448,0.20072 0,0.26277 -0.656,0.45908 -1.458,0.43625 -0.844,-0.024 -1.376,-0.26441 -1.263,-0.56974 0.108,-0.29052 0.425,-0.47865 0.706,-0.41806 0.281,0.0606 0.48,-0.30225 0.442,-0.80629 -0.06,-0.76848 -0.228,-0.83185 -1.052,-0.39249 -0.865,0.46148 -0.908,0.43294 -0.354,-0.23932 0.549,-0.66584 0.487,-0.72728 -0.481,-0.48125 -0.61,0.15513 -1.597,0.5964 -2.192,0.98061 -0.595,0.38421 -1.082,0.53876 -1.082,0.34344 0,-0.19531 -0.299,-0.10708 -0.664,0.19608 -0.529,0.43944 -0.71,0.3071 -0.893,-0.65276 -0.167,-0.87331 0.01,-1.28105 0.654,-1.48469 0.485,-0.15441 0.833,-0.43006 0.773,-0.61256 -0.06,-0.1825 0.106,-0.33182 0.37,-0.33182 0.265,0 0.428,0.16109 0.362,0.35798 -0.07,0.1969 0.367,0.28365 0.962,0.1928 0.595,-0.0909 1.108,-0.41448 1.141,-0.71915 0.03,-0.30468 0.115,-0.66231 0.181,-0.79474 0.107,-0.21366 0.228,-0.63496 0.421,-1.46161 0.03,-0.14175 0.484,-0.0306 1.002,0.2469 0.768,0.41142 1.044,0.31283 1.497,-0.53381 0.545,-1.01968 0.508,-1.03245 -2.024,-0.70673 -1.419,0.18243 -2.818,0.6436 -3.108,1.02482 -0.291,0.38122 -0.665,0.55726 -0.831,0.39121 -0.165,-0.16605 -0.631,-0.0278 -1.034,0.30723 -0.404,0.33503 -0.734,0.44772 -0.734,0.25043 0,-0.19728 -0.29,-0.11735 -0.645,0.17764 -0.355,0.29499 -0.788,0.39376 -0.962,0.21948 -0.174,-0.17427 -0.317,-0.064 -0.317,0.24496 0,0.309 -0.311,0.56181 -0.691,0.56181 -0.836,0 -5.044,2.50035 -5.066,3.00973 0,0.19864 0.293,0.36116 0.67,0.36116 0.376,0 1.346,0.55728 2.154,1.2384 0.809,0.68112 1.658,1.12265 1.886,0.98117 0.229,-0.14148 1.21,-0.0377 2.181,0.23069 0.971,0.26835 2.033,0.32239 2.36,0.12007 0.327,-0.20231 1.136,-0.30976 1.797,-0.23877 0.662,0.071 1.793,0.19507 2.513,0.27573 0.72,0.0807 1.194,-0.0396 1.054,-0.2672 -0.141,-0.22763 0.203,-0.41387 0.763,-0.41387 0.56,0 0.885,0.2167 0.722,0.48156 -0.174,0.28167 0.363,0.49712 1.294,0.51906 3.628,0.0855 8.327,0.53157 8.884,0.8433 0.821,0.46009 4.974,0.0863 4.974,-0.44774 0,-0.23818 -0.426,-0.43306 -0.947,-0.43306 -0.603,0 -0.855,-0.2389 -0.694,-0.65905 0.327,-0.85416 -1.793,-1.45006 -2.303,-0.64713 -0.289,0.4565 -0.372,0.45584 -0.378,-0.003 0,-0.34464 -0.332,-0.46203 -0.794,-0.28443 -0.542,0.20794 -0.717,0.0904 -0.561,-0.37628 0.149,-0.4482 1.029,-0.70073 2.591,-0.7436 5.405,-0.14838 5.552,-0.16909 5.205,-0.73182 -0.205,-0.33288 -0.133,-0.42569 0.182,-0.23129 0.288,0.17856 0.493,0.7374 0.455,1.24186 -0.06,0.76449 -0.232,0.83223 -1.051,0.40684 -0.541,-0.28069 -0.823,-0.33841 -0.627,-0.12826 0.197,0.21015 0.116,0.6729 -0.179,1.02834 -0.425,0.5133 -0.27,0.64625 0.754,0.64625 0.793,0 1.168,0.19842 0.973,0.51439 -0.175,0.28291 -0.614,0.40072 -0.975,0.2618 -0.362,-0.13891 -0.786,-0.0453 -0.942,0.20795 -0.157,0.25329 0.153,0.46053 0.687,0.46053 0.534,0 1.517,0.58949 2.184,1.30999 0.991,1.07045 1.087,1.38098 0.52,1.69818 -0.824,0.46169 -0.436,1.80738 0.522,1.80738 0.423,0 0.67,-0.53087 0.67,-1.44466 0,-2.02639 0.03,-2.12453 0.647,-2.5208 0.354,-0.22574 0.24,-0.35646 -0.315,-0.36116 -0.507,-0.004 -0.734,-0.22743 -0.544,-0.53514 0.222,-0.3606 0.561,-0.29199 1.069,0.21661 0.61,0.61009 0.633,0.878 0.13,1.48517 -0.873,1.05259 0.619,1.56705 2.156,0.7436 0.934,-0.50068 1.293,-0.50163 1.891,-0.005 0.851,0.70708 1.012,-0.001 0.188,-0.82623 -0.413,-0.41353 -0.293,-0.48359 0.481,-0.28093 1.104,0.28914 1.337,0.87484 0.542,1.36642 -0.269,0.16636 -0.361,0.50957 -0.204,0.76268 0.156,0.25312 0.105,0.41191 -0.113,0.35287 -0.895,-0.24219 -2.473,0.65915 -2.705,1.5441 -0.2,0.76844 -0.664,0.94716 -2.457,0.94716 -2.108,0 -2.505,0.30082 -2.226,1.68544 0.05,0.26486 -0.06,0.32825 -0.244,0.14087 -0.187,-0.18738 -0.692,0.0776 -1.122,0.58875 -0.68,0.80812 -1.491,0.9388 -6.215,1.00118 -2.989,0.0395 -5.543,-0.0377 -5.677,-0.17141 -0.368,-0.36863 -3.673,0.15898 -4.764,0.76049 -1.684,0.92826 -3.753,0.95884 -4.406,0.0651 -0.364,-0.49908 -1.411,-0.8795 -2.667,-0.96975 -5.114,-0.36739 -8.968,-0.2848 -9.896,0.21207 -1.28,0.68583 -4.761,0.70285 -5.179,0.0253 -0.175,-0.28291 -0.614,-0.40073 -0.975,-0.26181 -0.362,0.13892 -0.788,0.0418 -0.947,-0.2158 -0.159,-0.25761 -0.5,-0.33784 -0.758,-0.17829 -0.258,0.15955 -0.748,0.058 -1.09,-0.22574 -0.341,-0.2837 -1.919,-0.57323 -3.505,-0.6434 -2.778,-0.12283 -2.948,-0.0604 -4.586,1.67826 -0.936,0.99321 -1.947,1.80583 -2.246,1.80583 -0.3,0 -0.552,0.37923 -0.56,0.84272 -0.01,0.79077 -0.05,0.79219 -0.637,0.0231 -0.391,-0.51488 -1,-0.72085 -1.638,-0.55393 -0.558,0.14615 -2.452,-0.0952 -4.209,-0.53621 -2.924,-0.73419 -3.292,-0.73731 -4.36,-0.0369 -0.642,0.42076 -1.167,0.54879 -1.167,0.28451 0,-0.27479 -1.39,-0.46922 -3.247,-0.45414 -1.785,0.0145 -3.833,-0.19891 -4.55,-0.47423 -0.716,-0.27532 -3.151,-0.53705 -5.411,-0.58162 -2.26,-0.0446 -4.109,-0.28282 -4.109,-0.52945 0,-0.24664 -0.201,-0.32375 -0.448,-0.17137 -0.246,0.15237 -0.556,0.10137 -0.689,-0.11335 -0.132,-0.21472 -2.907,-0.45164 -6.166,-0.52648 -3.259,-0.0748 -6.575,-0.2059 -7.369,-0.29124 -7.992,-0.85934 -8.746,-0.86266 -9.062,-0.0398 -0.171,0.44646 -0.529,0.67686 -0.795,0.51202 -0.267,-0.16485 -0.485,-0.0702 -0.485,0.21025 0,0.28049 -0.162,0.46567 -0.361,0.41152 -0.727,-0.19843 -6.363,2.76565 -6.368,3.34896 0,0.84546 0.754,0.75881 4.326,-0.49264 3.42,-1.19808 6.238,-1.25302 5.284,-0.10305 -0.3,0.36236 -0.834,0.5482 -1.186,0.41299 -0.352,-0.13522 -1.581,0.22052 -2.731,0.79052 -1.15,0.57 -3.173,1.35338 -4.496,1.74084 -1.323,0.38747 -2.838,0.89579 -3.367,1.12961 -1.196,0.52841 -6.236,2.0945 -10.222,3.1764 -1.654,0.44878 -3.007,0.94993 -3.007,1.11367 0,0.16374 -0.595,0.32865 -1.322,0.36647 -0.728,0.0378 -3.124,0.63083 -5.324,1.31781 -5.265,1.64386 -7.978,1.8965 -8.94,0.83255 z m 5.004,-1.37151 c 0.397,-0.153 0.873,-0.24726 1.059,-0.20947 0.185,0.0378 1.917,-0.47633 3.848,-1.14248 3.396,-1.17143 9.306,-2.79097 13.003,-3.563 0.987,-0.20619 2.072,-0.60538 2.411,-0.88708 0.339,-0.28171 1.642,-0.77066 2.895,-1.08655 1.253,-0.3159 2.279,-0.75452 2.279,-0.97472 0,-0.22019 -1.245,-0.46534 -2.766,-0.54477 -2.373,-0.12388 -2.767,-0.27812 -2.768,-1.08418 0,-1.09061 1.696,-2.9392 3.113,-3.38933 0.538,-0.17083 0.978,-0.49682 0.978,-0.72443 0,-0.22761 0.649,-0.73815 1.443,-1.13453 1.404,-0.70141 1.443,-0.68948 1.443,0.44629 0,0.64184 -0.228,1.16698 -0.507,1.16698 -0.279,0 -1.188,0.63704 -2.021,1.41565 l -1.513,1.41564 1.85,-0.41771 c 1.018,-0.22974 2.011,-0.67784 2.207,-0.99579 0.197,-0.31794 0.554,-0.45626 0.795,-0.30737 0.534,0.33068 1.812,-0.40619 1.895,-1.09286 0.135,-1.12293 0.213,-1.19227 0.62,-0.54934 0.28,0.44352 0.728,0.54052 1.315,0.28522 0.49,-0.21279 1.161,-0.34322 1.492,-0.28984 0.977,0.15764 0.686,-1.3896 -0.332,-1.76651 -0.513,-0.19011 -0.934,-0.56235 -0.934,-0.8272 0,-0.26486 -0.5,-0.62248 -1.111,-0.79472 -0.611,-0.17225 -0.922,-0.33477 -0.691,-0.36117 0.231,-0.0264 0.148,-0.37573 -0.184,-0.77627 -0.492,-0.59366 -0.742,-0.61591 -1.354,-0.12039 -0.489,0.39619 -0.633,0.41235 -0.414,0.0464 0.427,-0.71283 -2.354,-3.54381 -3.435,-3.49654 -0.443,0.0194 -1.354,0.39859 -2.024,0.84273 -0.671,0.44413 -1.948,1.24092 -2.837,1.77063 -0.89,0.52971 -2.29,1.51598 -3.11,2.19171 -1.738,1.43074 -6.231,4.30929 -6.727,4.30929 -0.187,0 -0.923,0.54175 -1.637,1.20389 -0.713,0.66214 -1.475,1.20389 -1.694,1.20389 -0.219,0 -1.195,0.75657 -2.17,1.68127 -0.974,0.9247 -1.947,1.68315 -2.161,1.68544 -0.762,0.008 -4.738,3.64204 -5.723,5.22989 -0.744,1.19816 -0.852,1.70675 -0.42,1.97388 0.581,0.35937 2.523,0.19321 3.887,-0.33254 z m 28.135,-15.06133 c -0.285,-0.46195 0.437,-1.19266 1.231,-1.24673 0.41,-0.0279 0.774,0.33678 0.81,0.81035 0.04,0.58377 -0.247,0.83757 -0.902,0.78817 -0.531,-0.0401 -1.044,-0.19839 -1.139,-0.35179 z m 93.567,3.37872 c 0,-0.26485 -0.379,-0.47823 -0.842,-0.47418 -0.719,0.006 -0.737,0.0753 -0.12,0.47418 0.908,0.58731 0.962,0.58731 0.962,0 z m -33.296,-1.7561 c 0.603,-0.38169 0.989,-0.86924 0.857,-1.08344 -0.132,-0.2142 0.04,-0.77426 0.384,-1.24457 0.684,-0.93638 2.27,-1.19976 4.184,-0.69467 0.76,0.20082 1.577,0.0719 2.136,-0.33743 0.801,-0.58602 0.811,-0.66245 0.09,-0.66245 -0.447,0 -0.813,-0.2167 -0.813,-0.48156 0,-0.26485 0.31,-0.48155 0.688,-0.48155 0.379,0 0.757,-0.48758 0.842,-1.0835 0.1,-0.69631 0.54,-1.13849 1.236,-1.23739 1.29,-0.18337 1.294,-0.1539 0.315,2.29457 -1.026,2.56836 -0.728,3.23323 0.883,1.96507 1.053,-0.82979 1.242,-1.2846 1.01,-2.44233 -0.176,-0.88203 -0.08,-1.42265 0.242,-1.42265 0.29,0 0.41,-0.30367 0.268,-0.67483 -0.143,-0.37116 -0.623,-0.62074 -1.068,-0.55461 -0.444,0.0661 -1.194,-0.11777 -1.665,-0.40866 -0.66,-0.40771 -0.963,-0.36338 -1.323,0.19344 -0.342,0.53092 -0.563,0.5719 -0.834,0.15463 -0.65,-1.00338 -4.898,0.19878 -5.404,1.52924 -0.522,1.37479 -1.443,2.00873 -1.443,0.9931 0,-0.41291 -0.302,-0.75075 -0.671,-0.75075 -0.644,0 -1.488,-1.29867 -1.33,-2.04661 0.04,-0.19864 -0.411,-0.36702 -1.006,-0.37417 -1.832,-0.022 -7.712,-0.41546 -9.741,-0.65186 -1.881,-0.21912 -18.535,-0.9469 -19.963,-0.87238 -0.397,0.0207 -3.162,0.14908 -6.146,0.28527 -2.983,0.13619 -5.599,0.35603 -5.813,0.48853 -0.215,0.1325 -1.021,0.0704 -1.792,-0.13798 -1.043,-0.28209 -1.546,-0.18456 -1.967,0.38165 -0.499,0.67061 -0.556,0.65106 -0.481,-0.16534 0.07,-0.77452 -0.27,-0.94412 -2.08,-1.03742 -10.424,-0.53704 -13.469,-0.59945 -13.469,-0.27605 0,0.20654 0.757,0.73721 1.683,1.17927 0.926,0.44205 1.684,1.02394 1.684,1.29308 0,0.26914 0.433,0.48934 0.962,0.48934 0.529,0 0.962,0.19184 0.962,0.42631 0,0.73831 6.493,4.38925 7.806,4.38925 0.689,0 1.326,0.21323 1.414,0.47385 0.09,0.26515 2.914,0.55481 6.414,0.65769 7.118,0.20928 21.293,1.11836 23.811,1.52711 0.926,0.15031 2.766,0.35956 4.089,0.46501 3.022,0.2409 6.182,0.75068 6.484,1.04614 0.479,0.46681 7.511,-0.44509 8.564,-1.11035 z m 2.51,-4.71648 c 0,-0.41291 0.216,-0.75075 0.481,-0.75075 0.264,0 0.481,0.20391 0.481,0.45314 0,0.24922 -0.217,0.58706 -0.481,0.75075 -0.265,0.16369 -0.481,-0.0402 -0.481,-0.45314 z m -16.11,-3.16638 c 0.166,-0.26918 0.503,-0.36474 0.75,-0.21236 0.667,0.41281 0.543,0.70177 -0.302,0.70177 -0.413,0 -0.614,-0.22024 -0.448,-0.48941 z m -38.291,-0.5179 c -0.578,-0.37306 -0.572,-0.50708 0.04,-0.91154 0.88,-0.5777 1.785,-0.62235 2.106,-0.10376 0.4,0.64862 -1.399,1.49872 -2.149,1.0153 z m 34.438,0.0442 c 0.163,-0.26486 0.392,-0.48156 0.509,-0.48156 0.117,0 0.212,0.2167 0.212,0.48156 0,0.26485 -0.229,0.48155 -0.509,0.48155 -0.28,0 -0.376,-0.2167 -0.212,-0.48155 z m -37.762,-0.48156 c 0,-0.26485 0.446,-0.48155 0.991,-0.48155 0.544,0 0.856,0.2167 0.693,0.48155 -0.164,0.26486 -0.609,0.48156 -0.991,0.48156 -0.381,0 -0.693,-0.2167 -0.693,-0.48156 z m 79.722,7.89551 c -0.16,-0.16002 -0.575,-0.17713 -0.922,-0.038 -0.384,0.15372 -0.27,0.26783 0.291,0.29094 0.507,0.0209 0.791,-0.0929 0.631,-0.25292 z m -1.457,-3.84986 c 0.09,-0.25791 -0.28,-0.50177 -0.812,-0.54192 -0.969,-0.0731 -1.258,0.37967 -0.637,1.00082 0.418,0.41837 1.244,0.15676 1.449,-0.4589 z m 3.512,-0.1932 c 0,-0.60336 -0.511,-0.60336 -1.444,0 -0.583,0.37747 -0.514,0.46821 0.361,0.47418 0.595,0.004 1.083,-0.20933 1.083,-0.47418 z m -26.107,-3.66183 c -0.16,-0.16002 -0.574,-0.17713 -0.922,-0.038 -0.383,0.15372 -0.27,0.26783 0.291,0.29094 0.507,0.0209 0.791,-0.0929 0.631,-0.25292 z m 15.068,-1.65796 c 1.35,-1.2068 1.515,-1.5475 0.928,-1.91885 -0.908,-0.57481 -1.434,-0.58575 -1.434,-0.0298 0,0.24006 -0.392,0.33405 -0.87,0.20887 -0.478,-0.12518 -1.398,0.23666 -2.044,0.8041 -0.646,0.56744 -0.934,0.91196 -0.638,0.7656 0.295,-0.14636 0.924,0.16218 1.397,0.68565 0.473,0.52346 0.896,0.95175 0.94,0.95175 0.04,0 0.818,-0.6603 1.721,-1.46734 z m -75.678,-2.67604 c -0.16,-0.16002 -0.575,-0.17713 -0.922,-0.038 -0.384,0.15372 -0.27,0.26783 0.29,0.29094 0.507,0.0209 0.791,-0.0929 0.632,-0.25292 z m 92.97,-7.89551 c 0,-0.26485 -0.09,-0.48155 -0.212,-0.48155 -0.117,0 -0.346,0.2167 -0.51,0.48155 -0.163,0.26486 -0.07,0.48156 0.213,0.48156 0.28,0 0.509,-0.2167 0.509,-0.48156 z m -113.525,36.11667 c 0,-0.26486 0.23,-0.48156 0.51,-0.48156 0.28,0 0.375,0.2167 0.212,0.48156 -0.164,0.26486 -0.393,0.48156 -0.51,0.48156 -0.116,0 -0.212,-0.2167 -0.212,-0.48156 z m 105.107,0 c -0.164,-0.26486 0.04,-0.48156 0.453,-0.48156 0.412,0 0.749,0.2167 0.749,0.48156 0,0.26486 -0.203,0.48156 -0.452,0.48156 -0.249,0 -0.587,-0.2167 -0.75,-0.48156 z m -27.66,-0.70725 c 0,-0.89205 0.559,-0.94903 1.367,-0.1395 0.476,0.47619 0.678,0.46797 0.991,-0.0404 0.324,-0.52463 0.44,-0.51938 0.651,0.0295 0.183,0.4775 -0.21,0.69911 -1.377,0.77779 -1.192,0.0804 -1.632,-0.0885 -1.632,-0.62738 z m -38.002,-0.25586 c 0,-0.26486 0.23,-0.48156 0.51,-0.48156 0.28,0 0.375,0.2167 0.212,0.48156 -0.164,0.26485 -0.393,0.48155 -0.51,0.48155 -0.116,0 -0.212,-0.2167 -0.212,-0.48155 z m 2.513,-1.0835 c 0.362,-0.33107 1.352,-0.97109 2.199,-1.42227 1.201,-0.63914 1.542,-0.67785 1.542,-0.17526 0,0.35479 -0.736,0.99481 -1.636,1.42227 -1.997,0.94834 -3.045,1.03562 -2.105,0.17526 z m 19.615,0.12039 c 0,-0.26486 0.229,-0.48156 0.509,-0.48156 0.281,0 0.376,0.2167 0.213,0.48156 -0.164,0.26485 -0.393,0.48155 -0.51,0.48155 -0.117,0 -0.212,-0.2167 -0.212,-0.48155 z m 2.11,-0.69041 c -0.196,-0.51234 -0.06,-1.01885 0.345,-1.27174 0.832,-0.52047 1.251,0.85286 0.492,1.61227 -0.36,0.3602 -0.607,0.25974 -0.837,-0.34053 z m 18.241,0.35386 c -0.316,-0.11398 -0.455,-0.51828 -0.309,-0.89845 0.293,-0.7669 1.401,-0.92846 1.812,-0.26423 0.347,0.56289 -0.77,1.42722 -1.503,1.16268 z m -10.692,-0.90747 c 0.02,-0.56099 0.137,-0.67509 0.29,-0.29094 0.139,0.34762 0.122,0.76296 -0.04,0.92298 -0.159,0.16002 -0.273,-0.1244 -0.252,-0.63204 z m -97.448,-1.16376 c 0.163,-0.26486 0.392,-0.48156 0.509,-0.48156 0.117,0 0.212,0.2167 0.212,0.48156 0,0.26486 -0.229,0.48156 -0.509,0.48156 -0.28,0 -0.376,-0.2167 -0.212,-0.48156 z m 72.877,0 c 0,-0.26486 0.229,-0.48156 0.509,-0.48156 0.28,0 0.376,0.2167 0.212,0.48156 -0.163,0.26486 -0.392,0.48156 -0.509,0.48156 -0.117,0 -0.212,-0.2167 -0.212,-0.48156 z m 20.488,0.0717 c -0.14,-0.22684 0.28,-0.65618 0.933,-0.95409 0.683,-0.3113 1.188,-0.34845 1.188,-0.0874 0,0.64591 -1.815,1.53707 -2.121,1.04145 z m -91.682,-1.27561 c 0.33,-0.39728 0.448,-0.72233 0.262,-0.72233 -0.185,0 0.6,-0.72859 1.745,-1.6191 1.145,-0.8905 2.013,-1.91982 1.928,-2.28738 -0.118,-0.50926 -0.02,-0.53508 0.414,-0.10851 0.438,0.42967 0.25,0.96138 -0.807,2.28738 -0.757,0.95017 -1.624,1.72759 -1.927,1.72759 -0.302,1e-5 -0.674,0.32507 -0.827,0.72235 -0.152,0.39728 -0.526,0.72233 -0.831,0.72233 -0.4,0 -0.388,-0.20191 0.04,-0.72233 z m 74.849,-0.88425 c 0.503,-0.28769 1.214,-0.57063 1.579,-0.62876 0.365,-0.0581 0.896,-0.33741 1.178,-0.62062 0.283,-0.28321 0.717,-0.51493 0.965,-0.51493 0.248,0 -0.07,0.51549 -0.697,1.14552 -0.682,0.68076 -1.715,1.14478 -2.544,1.1437 -1.246,-0.002 -1.298,-0.0581 -0.481,-0.52491 z m 39.638,0.0956 c 0,-0.65155 3.28,-3.53985 4.04,-3.55812 0.292,-0.007 0.801,-0.18231 1.131,-0.38958 0.331,-0.20728 0.602,-0.2308 0.602,-0.0523 0,0.17852 0.54,-0.0299 1.201,-0.46327 1.126,-0.73883 1.193,-0.73478 1.068,0.065 -0.211,1.35785 -0.87,2.14298 -1.572,1.87333 -0.417,-0.16027 -0.553,-2.7e-4 -0.381,0.44872 0.343,0.89563 0.647,0.88022 1.34,-0.068 0.48,-0.65837 0.639,-0.66963 1.127,-0.0803 0.64,0.77184 0.236,0.89846 -2.904,0.90904 -0.992,0.003 -1.804,0.18016 -1.804,0.39292 0,0.21276 -0.586,0.38684 -1.302,0.38684 -0.717,0 -1.384,0.24379 -1.484,0.54175 -0.235,0.70686 -1.062,0.70212 -1.062,-0.006 z m 23.968,-2.1048 c -0.46,-0.46065 0.181,-2.6638 0.743,-2.55132 0.299,0.0599 1.049,-0.17082 1.667,-0.5127 1.292,-0.71478 1.916,-0.39428 1.114,0.5726 -0.3,0.36184 -0.439,0.76436 -0.309,0.89449 0.13,0.13013 -0.08,0.2366 -0.464,0.2366 -0.385,0 -0.568,-0.21407 -0.407,-0.4757 0.168,-0.27187 0.05,-0.32328 -0.281,-0.11999 -0.316,0.19564 -0.443,0.77087 -0.282,1.27829 0.163,0.51574 0.07,0.92258 -0.221,0.92258 -0.283,0 -0.517,-0.27087 -0.521,-0.60194 0,-0.47573 -0.09,-0.47422 -0.394,0.007 -0.212,0.33505 -0.503,0.49248 -0.645,0.34985 z m 6.283,-0.83865 c -0.434,-0.95086 -0.22,-2.74507 0.352,-2.96491 0.482,-0.18532 0.594,-0.0807 0.344,0.32188 -0.204,0.32803 -0.308,1.084 -0.231,1.67992 0.111,0.86202 -0.209,1.52515 -0.465,0.96311 z m -34.159,-0.94591 c -0.207,-1.30011 -0.164,-1.61647 0.261,-1.91164 0.908,-0.63057 1.294,0.18608 0.429,0.90797 -0.65,0.54277 -0.536,0.52825 0.452,-0.0573 1.163,-0.6892 1.323,-0.69536 1.323,-0.0508 0,0.40339 -0.229,0.73344 -0.509,0.73344 -0.281,0 -0.405,0.17026 -0.276,0.37836 0.128,0.2081 -0.184,0.37837 -0.693,0.37837 -0.51,0 -0.954,-0.17027 -0.987,-0.37837 z m 19.032,0.057 c -0.179,-0.29027 0.03,-0.87846 0.453,-1.30708 0.504,-0.5044 0.778,-0.57304 0.778,-0.19456 0,0.32161 -0.239,0.58474 -0.532,0.58474 -0.293,0 -0.408,0.32505 -0.256,0.72233 0.322,0.83914 0.03,0.96585 -0.443,0.19457 z m 13.49,-0.44787 c 0.09,-1.28014 0.512,-1.60007 0.598,-0.45785 0.04,0.51313 -0.1,1.03554 -0.298,1.16089 -0.203,0.12536 -0.338,-0.19101 -0.3,-0.70304 z m -136.607,0.0125 c 0.164,-0.26486 0.514,-0.48156 0.779,-0.48156 0.264,0 0.347,0.2167 0.183,0.48156 -0.163,0.26485 -0.513,0.48155 -0.778,0.48155 -0.264,0 -0.347,-0.2167 -0.184,-0.48155 z m 2.006,-0.51493 c 0.283,-0.28321 0.813,-0.56451 1.179,-0.6251 0.882,-0.14644 2.599,-1.10727 3.392,-1.89896 0.789,-0.78734 3.766,-1.86245 3.766,-1.36006 0,0.75771 -2.786,2.99993 -4.002,3.2206 -0.695,0.12628 -1.826,0.4431 -2.511,0.70403 -1.693,0.64418 -2.49,0.62647 -1.824,-0.0405 z m 123.305,0.0334 c 0,-0.26485 0.229,-0.48155 0.509,-0.48155 0.28,0 0.376,0.2167 0.212,0.48155 -0.163,0.26486 -0.393,0.48156 -0.509,0.48156 -0.117,0 -0.212,-0.2167 -0.212,-0.48156 z m -17.977,-2.15651 c 0.166,-0.4335 0.573,-0.6843 0.903,-0.55735 0.331,0.12695 0.819,0.0122 1.086,-0.25506 0.327,-0.32681 0.598,-0.304 0.829,0.0697 0.437,0.70881 0.33,0.79091 -1.557,1.19571 -1.324,0.28385 -1.517,0.21447 -1.261,-0.45297 z m 12.013,-0.33153 c 0.136,-0.22071 0.452,-0.40129 0.701,-0.40129 0.248,0 0.452,0.18058 0.452,0.40129 0,0.22072 -0.315,0.4013 -0.7,0.4013 -0.385,0 -0.589,-0.18058 -0.453,-0.4013 z m -129.929,-1.3644 c 0.163,-0.26486 0.513,-0.48156 0.778,-0.48156 0.264,0 0.347,0.2167 0.184,0.48156 -0.164,0.26485 -0.514,0.48155 -0.779,0.48155 -0.264,0 -0.347,-0.2167 -0.183,-0.48155 z m 21.86,-0.68999 c 0.588,-0.70988 2.556,-0.86291 2.125,-0.1653 -0.132,0.21419 -0.427,0.27402 -0.655,0.13295 -0.228,-0.14106 -0.551,-0.0362 -0.717,0.23293 -0.166,0.26917 -0.532,0.48941 -0.814,0.48941 -0.333,0 -0.312,-0.24051 0.06,-0.68999 z m -8.632,-0.99502 c 0,-0.87563 4.361,-3.62349 5.707,-3.59608 1.154,0.0235 -1.209,1.9102 -2.393,1.9102 -0.5,0 -0.909,0.32505 -0.909,0.72233 0,0.39728 -0.199,0.72233 -0.441,0.72233 -0.243,0 -0.785,0.13154 -1.203,0.2923 -0.419,0.16077 -0.761,0.13778 -0.761,-0.0511 z m 22.478,-4.06136 c -0.143,-0.54695 -0.06,-1.11675 0.179,-1.26623 0.632,-0.39061 1.135,1.20554 0.561,1.77968 -0.32,0.32031 -0.567,0.14877 -0.74,-0.51345 z m -15.03,-1.00783 c -0.362,-0.58732 1.151,-1.9138 2.183,-1.9138 0.497,0 1.115,-0.37742 1.373,-0.83871 0.258,-0.46129 0.622,-0.68562 0.809,-0.4985 0.187,0.18711 0.796,0.0956 1.354,-0.20334 0.558,-0.29895 1.45,-0.60597 1.981,-0.68227 2.114,-0.30335 3.804,-0.73526 4.649,-1.18794 0.488,-0.26157 0.894,-0.30542 0.902,-0.0975 0,0.20796 0.236,-0.001 0.505,-0.46462 0.27,-0.46349 0.967,-0.84961 1.549,-0.85803 0.582,-0.008 1.479,-0.33348 1.992,-0.72234 1.173,-0.8878 1.712,-0.89781 1.712,-0.0318 0,0.59769 -2.314,1.84036 -3.608,1.93729 -0.264,0.0198 -0.751,0.29136 -1.082,0.60341 -0.33,0.31205 -1.846,0.83543 -3.367,1.16306 -1.521,0.32763 -2.996,0.76899 -3.276,0.9808 -1.146,0.86549 -7.451,3.17729 -7.676,2.81424 z m 126.512,-3.37333 c -0.131,-0.21144 0.03,-0.51129 0.367,-0.66634 0.485,-0.22628 0.485,-0.33755 0,-0.56382 -0.848,-0.39557 -0.253,-1.16276 0.901,-1.16276 0.529,0 0.86,0.16539 0.735,0.36754 -0.124,0.20214 0.563,0.33036 1.528,0.28492 1.6,-0.0753 1.675,-0.0241 0.849,0.58015 -0.498,0.36452 -1.087,0.5501 -1.31,0.4124 -0.222,-0.1377 -0.295,0.0339 -0.162,0.3814 0.268,0.69919 -2.488,1.04656 -2.908,0.36651 z m 16.605,0.0149 c 0,-0.26486 0.445,-0.48156 0.99,-0.48156 0.545,0 0.857,0.2167 0.693,0.48156 -0.163,0.26486 -0.609,0.48156 -0.99,0.48156 -0.381,0 -0.693,-0.2167 -0.693,-0.48156 z m -74.354,-2.94349 c -0.388,-0.62836 1.065,-2.23811 2.382,-2.63959 0.56,-0.17081 2.101,-0.81413 3.424,-1.4296 3.813,-1.77407 9.41,-3.44234 10.712,-3.19311 1.57,0.30051 0.844,0.70719 -4.081,2.28546 -2.06,0.65995 -4.178,1.38994 -4.707,1.62219 -0.529,0.23225 -1.687,0.69617 -2.574,1.03094 -0.886,0.33476 -2.341,1.10436 -3.233,1.71023 -0.987,0.67052 -1.74,0.91058 -1.923,0.61348 z m 55.764,-0.54114 c -0.15,-0.24287 0.183,-0.86682 0.74,-1.38657 0.557,-0.51974 1.013,-0.75797 1.013,-0.5294 0,0.62957 3.043,0.35515 3.259,-0.2939 0.104,-0.31115 0.766,-0.58095 1.472,-0.59957 0.705,-0.0186 1.712,-0.20176 2.237,-0.407 1.133,-0.44307 2.653,-0.12614 2.653,0.55318 0,0.26485 -0.456,0.36227 -1.012,0.21649 -1.202,-0.31464 -4.279,1.04072 -4.279,1.88476 0,0.32479 -0.379,0.52942 -0.842,0.45473 -0.463,-0.0747 -1.058,-0.008 -1.323,0.14897 -0.786,0.46558 -3.624,0.43539 -3.918,-0.0417 z m -92.725,-0.29397 c -0.154,-0.24996 0.07,-0.59064 0.507,-0.75705 1.063,-0.40842 1.312,-0.0665 0.464,0.63797 -0.411,0.34197 -0.804,0.39005 -0.971,0.11908 z m 80.047,-0.0738 c 0,-0.26486 0.446,-0.48156 0.991,-0.48156 0.544,0 0.856,0.2167 0.693,0.48156 -0.164,0.26485 -0.609,0.48155 -0.991,0.48155 -0.381,0 -0.693,-0.2167 -0.693,-0.48155 z m -56.441,-0.32104 c -0.594,-0.59383 -0.329,-1.04934 1.002,-1.72211 0.727,-0.36795 1.81,-0.92557 2.405,-1.23915 2.487,-1.3099 3.029,-1.53326 3.721,-1.53326 0.401,0 0.729,-0.2167 0.729,-0.48156 0,-0.26485 0.298,-0.48155 0.662,-0.48155 0.365,0 0.932,-0.32505 1.262,-0.72233 0.329,-0.39729 0.982,-0.72234 1.45,-0.72234 0.469,0 0.966,-0.29638 1.104,-0.65863 0.139,-0.36225 0.758,-0.77789 1.375,-0.92365 2.104,-0.4972 5.449,-1.86188 6.181,-2.52197 0.402,-0.36234 1.16,-0.59187 1.684,-0.51005 0.524,0.0818 1.528,-0.25505 2.23,-0.74859 0.702,-0.49353 1.609,-0.89733 2.016,-0.89733 0.407,0 0.875,-0.22024 1.041,-0.48941 0.167,-0.26918 0.504,-0.36474 0.75,-0.21236 0.621,0.38403 0.564,-0.43454 -0.07,-1.07379 -0.376,-0.37698 -0.373,-0.61614 0.01,-0.85444 0.294,-0.18201 0.504,-0.15229 0.466,0.066 -0.181,1.04416 0.14,1.16752 1.212,0.46481 0.785,-0.51523 1.225,-0.58943 1.346,-0.2271 0.131,0.39428 0.454,0.39094 1.206,-0.0125 0.566,-0.30284 1.557,-0.55061 2.204,-0.55061 0.646,0 1.444,-0.32505 1.774,-0.72234 0.329,-0.39728 0.935,-0.72233 1.346,-0.72233 0.412,0 2.496,-0.84186 4.632,-1.87079 2.135,-1.02894 4.586,-2.02131 5.446,-2.20527 0.86,-0.18395 1.564,-0.50867 1.564,-0.72159 0,-0.21292 0.487,-0.51464 1.082,-0.67047 0.595,-0.15584 1.191,-0.31192 1.323,-0.34684 0.132,-0.0349 0.836,-0.37165 1.563,-0.7483 0.728,-0.37664 1.323,-0.52947 1.323,-0.33962 0,0.18985 0.318,-0.0755 0.706,-0.58958 0.389,-0.51412 0.73,-0.82641 0.759,-0.69398 0.361,1.66991 0.229,1.92472 -1.392,2.67958 -0.966,0.44998 -2.049,1.05098 -2.406,1.33556 -0.358,0.28458 -0.936,0.55942 -1.286,0.61076 -0.738,0.1085 -6.252,2.28811 -8.246,3.25986 -0.75,0.36546 -2.121,0.99515 -3.047,1.39933 -0.926,0.40417 -2.766,1.23853 -4.089,1.85413 -1.323,0.61561 -2.727,1.04849 -3.121,0.96196 -0.394,-0.0865 -1.693,0.32959 -2.886,0.92471 -1.194,0.59513 -2.546,1.26661 -3.006,1.49219 -0.459,0.22557 -1.248,0.41014 -1.752,0.41014 -0.505,0 -1.051,0.34945 -1.215,0.77657 -0.221,0.57724 -0.459,0.64283 -0.925,0.25553 -0.464,-0.38566 -1.207,-0.21207 -2.858,0.6681 -1.228,0.65402 -2.473,1.18913 -2.768,1.18913 -0.296,0 -1.481,0.6501 -2.635,1.44467 -1.153,0.79456 -2.299,1.44466 -2.547,1.44466 -0.247,0 -0.966,0.39965 -1.597,0.88811 -0.631,0.48846 -2.229,1.29066 -3.552,1.78268 -1.323,0.49201 -3.055,1.2834 -3.848,1.75864 -1.595,0.95503 -1.856,1.01635 -2.325,0.54665 z m -35.918,-0.88285 c 0,-0.4013 0.428,-0.72234 0.962,-0.72234 0.529,0 0.962,-0.22949 0.962,-0.50997 0,-0.28049 0.217,-0.37605 0.481,-0.21236 0.265,0.16369 0.481,0.0681 0.481,-0.21236 0,-0.28048 0.301,-0.50997 0.668,-0.50997 0.368,0 0.639,-0.37923 0.602,-0.84273 -0.05,-0.59775 0.23,-0.80184 0.956,-0.7021 0.58,0.0797 1.146,-0.18092 1.308,-0.60195 0.156,-0.4084 0.778,-0.74389 1.382,-0.74552 0.603,-0.002 1.677,-0.30589 2.386,-0.67612 0.709,-0.37023 1.398,-0.56441 1.53,-0.43151 0.375,0.37519 -0.226,1.61629 -0.654,1.35137 -0.209,-0.12938 -0.504,0.0886 -0.656,0.48432 -0.152,0.39576 -0.797,0.71957 -1.435,0.71957 -0.637,0 -1.416,0.31112 -1.732,0.69138 -0.315,0.38026 -1.189,0.8269 -1.942,0.99254 -0.754,0.16563 -1.49,0.61296 -1.636,0.99406 -0.146,0.3811 -0.813,0.69291 -1.483,0.69291 -0.67,0 -1.218,0.2167 -1.218,0.48155 0,0.26486 -0.216,0.48156 -0.481,0.48156 -0.264,0 -0.481,-0.32505 -0.481,-0.72233 z m 17.799,-1.45633 c 1.547,-0.87051 3.419,-0.92497 3.099,-0.0902 -0.135,0.35271 -1.115,0.65205 -2.27,0.69361 -1.983,0.0713 -2.003,0.0569 -0.829,-0.60344 z m 99.093,0.36292 c 0,-0.75197 1.37,-1.10564 1.745,-0.45062 0.184,0.3195 0.156,0.42027 -0.06,0.22393 -0.217,-0.19635 -0.684,-0.11564 -1.039,0.17935 -0.406,0.33721 -0.646,0.35479 -0.646,0.0473 z m -6.734,-3.24059 c -0.491,-0.5916 -0.458,-0.72234 0.181,-0.72234 0.43,0 0.781,0.32505 0.781,0.72234 0,0.39728 -0.08,0.72233 -0.182,0.72233 -0.1,0 -0.451,-0.32505 -0.78,-0.72233 z m -3.368,-0.50998 c 0,-0.41291 0.22,-0.61464 0.489,-0.44828 0.269,0.16636 0.365,0.5042 0.212,0.75075 -0.412,0.66794 -0.701,0.5434 -0.701,-0.30247 z m -76.745,-0.2444 c -0.328,-0.53224 0.592,-1.38479 2.666,-2.46921 0.661,-0.34587 1.596,-0.984 2.077,-1.41806 0.826,-0.74418 3.446,-1.60343 4.347,-1.42532 0.226,0.0447 0.659,-0.10396 0.962,-0.3304 0.303,-0.22644 1.525,-0.69073 2.715,-1.03175 1.191,-0.34103 2.932,-0.93436 3.869,-1.31851 0.937,-0.38416 2.051,-0.74959 2.477,-0.81208 0.425,-0.0625 1.125,-0.40588 1.555,-0.76308 1.225,-1.01787 1.362,-0.31153 0.155,0.79903 -0.594,0.54671 -2.271,1.47284 -3.726,2.05808 -1.455,0.58524 -3.079,1.23876 -3.608,1.45227 -1.592,0.6424 -2.761,1.01362 -5.411,1.71811 -2.463,0.65469 -5.983,2.54884 -6.603,3.55345 -0.399,0.6461 -1.072,0.64039 -1.475,-0.0125 z m -17.824,-1.00412 c -0.408,-0.66115 1.073,-1.85317 2.302,-1.85317 0.479,0 0.87,0.23032 0.87,0.51183 0,0.2815 -0.487,0.44402 -1.082,0.36116 -0.786,-0.10936 -1.064,0.0804 -1.016,0.69207 0.08,0.95392 -0.558,1.12389 -1.074,0.28811 z m 56.664,-1.46793 c -0.646,-0.6465 -0.769,-1.37859 -0.217,-1.29132 1.296,0.20484 2.548,-0.20441 3.542,-1.15792 0.632,-0.60549 1.689,-1.36237 2.351,-1.68195 1.191,-0.5753 1.741,-0.87411 3.608,-1.95793 2.19,-1.2717 4.129,-1.82639 6.883,-1.96851 0.373,-0.0192 0.482,-0.27801 0.268,-0.63444 -0.245,-0.40902 -0.1,-0.39012 0.453,0.059 0.448,0.3635 0.814,0.46494 0.814,0.22542 0,-0.23952 0.583,-0.4838 1.296,-0.54286 0.712,-0.0591 1.416,-0.28464 1.563,-0.50132 0.431,-0.63485 1.892,-1.03857 2.673,-0.73862 1.195,0.45924 0.822,1.02945 -1.083,1.65448 -0.992,0.32555 -2.236,0.87115 -2.766,1.21244 -0.529,0.34129 -2.149,0.77656 -3.601,0.96727 -2.832,0.37199 -6.151,1.84876 -9.627,4.28362 -1.658,1.16115 -4.753,2.65055 -5.508,2.65055 -0.04,0 -0.332,-0.26004 -0.649,-0.57787 z m -51.568,-1.36346 c 0,-0.25655 0.325,-0.46645 0.722,-0.46645 0.397,0 0.722,0.0852 0.722,0.18926 0,0.10409 -0.325,0.31399 -0.722,0.46644 -0.397,0.15245 -0.722,0.0673 -0.722,-0.18925 z m 2.686,-1.421 c 0.26,-0.26014 1.656,-1.08482 3.102,-1.8326 1.447,-0.74779 3.064,-1.60794 3.593,-1.91146 0.529,-0.30351 1.828,-0.92578 2.886,-1.38281 1.058,-0.45703 2.311,-1.22598 2.785,-1.70877 0.473,-0.48279 1.393,-0.87781 2.044,-0.87781 0.651,0 1.184,-0.2167 1.184,-0.48155 0,-0.26486 0.649,-0.48156 1.443,-0.48156 0.794,0 1.443,0.24198 1.443,0.53772 0,0.31008 -0.43,0.42517 -1.015,0.27186 -0.799,-0.20899 -1.131,0.0391 -1.553,1.15936 -0.316,0.83743 -0.84,1.37574 -1.27,1.30522 -0.402,-0.066 -1.002,0.0499 -1.333,0.25756 -0.331,0.20766 -0.609,0.20225 -0.618,-0.012 -0.01,-0.21427 -0.302,0.12504 -0.651,0.75403 -0.459,0.83011 -1.137,1.18887 -2.47,1.30865 -1.01,0.0908 -1.962,0.35474 -2.116,0.58664 -0.527,0.79777 -5.41,2.98054 -6.667,2.98054 -0.825,0 -1.097,-0.16337 -0.787,-0.473 z m 16.716,-5.59236 c 0,-0.75824 0.604,-0.90479 1.011,-0.24532 0.147,0.2371 -0.02,0.54149 -0.372,0.67642 -0.351,0.13493 -0.639,-0.0591 -0.639,-0.4311 z m 2.356,-1.07674 c -0.447,-0.28609 -0.319,-0.53008 0.481,-0.91439 2.209,-1.06075 2.775,-1.10056 2.775,-0.1951 0,0.47725 -0.27,0.87804 -0.601,0.89064 -0.331,0.0126 -0.926,0.15478 -1.323,0.31598 -0.397,0.16119 -0.996,0.11748 -1.332,-0.0971 z m 20.366,-0.13508 c 0.182,-0.29446 0.05,-0.70701 -0.285,-0.91676 -0.391,-0.24174 -0.162,-0.35426 0.625,-0.30733 1.151,0.0686 1.186,0.13562 0.48,0.91677 -0.855,0.94667 -1.322,1.1218 -0.82,0.30732 z m 3.094,-0.90927 c 0,-0.26485 0.216,-0.48155 0.481,-0.48155 0.265,0 0.481,0.2167 0.481,0.48155 0,0.26486 -0.216,0.48156 -0.481,0.48156 -0.265,0 -0.481,-0.2167 -0.481,-0.48156 z m 2.278,-0.28785 c -0.425,-0.42576 0.145,-1.63837 0.771,-1.63837 0.297,0 1.681,-0.47328 3.075,-1.05172 1.743,-0.72311 2.535,-1.32497 2.535,-1.92623 0,-0.55346 0.353,-0.87449 0.962,-0.87449 0.529,0 0.962,-0.30094 0.962,-0.66874 0,-0.38402 0.722,-0.80444 1.697,-0.98745 0.933,-0.17528 1.579,-0.50885 1.436,-0.74125 -0.144,-0.23241 0.229,-0.57769 0.828,-0.76729 1.755,-0.55528 4.206,-2.64692 4.507,-3.84502 0.152,-0.60885 0.582,-1.22424 0.955,-1.36752 0.373,-0.14328 0.679,-0.50861 0.679,-0.81185 0,-0.78521 -4.099,-0.10367 -6.237,1.03706 -2.338,1.24748 -16.875,8.15206 -17.163,8.15206 -0.129,0 -2.035,1.10182 -4.236,2.4485 -3.933,2.40605 -5.953,2.8821 -6.405,1.50928 -0.112,-0.33935 0.09,-0.55605 0.443,-0.48155 0.356,0.0745 0.599,-0.11564 0.541,-0.4225 -0.06,-0.32549 0.382,-0.50435 1.065,-0.42932 0.643,0.0707 1.602,-0.27412 2.13,-0.76635 0.527,-0.49222 1.185,-0.89495 1.46,-0.89495 0.276,0 0.501,-0.1638 0.501,-0.36401 0,-0.38694 1.046,-0.88775 5.292,-2.53455 1.455,-0.56439 3.092,-1.4433 3.639,-1.95314 0.546,-0.50983 1.28,-0.92697 1.63,-0.92697 0.351,0 0.878,-0.29133 1.172,-0.64739 0.294,-0.35607 2,-1.11458 3.791,-1.68559 1.792,-0.571 4.118,-1.60822 5.17,-2.30494 1.997,-1.32285 4.968,-1.92658 6.986,-1.41955 1.036,0.26032 1.183,0.5646 1.183,2.45498 0,1.47527 -0.203,2.15782 -0.641,2.15782 -0.352,0 -0.908,0.48758 -1.236,1.0835 -0.328,0.59593 -1.447,1.67737 -2.486,2.40321 -1.04,0.72583 -1.891,1.59263 -1.891,1.92622 0,0.33358 -0.534,0.63728 -1.185,0.67487 -0.652,0.0376 -1.535,0.4188 -1.963,0.84714 -0.428,0.42835 -0.952,0.67085 -1.165,0.5389 -0.594,-0.36721 -1.537,1.012 -1.368,2.00116 0.118,0.69606 -0.117,0.84738 -1.134,0.7288 -1.619,-0.18884 -5.211,0.75689 -5.211,1.3721 0,0.51574 -0.645,0.61951 -1.089,0.17514 z m -21.76,-1.18876 c -0.735,-0.29182 -0.776,-0.3899 -0.175,-0.41576 0.432,-0.0186 1.397,-0.35074 2.142,-0.73804 1.645,-0.85411 2.058,-0.60756 0.909,0.54257 -1.002,1.00261 -1.58,1.12559 -2.876,0.61123 z m 30.877,-1.24217 c -0.621,-0.62115 -0.333,-1.07392 0.637,-1.00082 0.532,0.0402 0.897,0.28401 0.811,0.54192 -0.205,0.61566 -1.031,0.87727 -1.448,0.4589 z m -26.307,-0.90492 c 0,-0.43073 0.597,-0.85384 1.443,-1.02331 0.794,-0.15891 1.443,-0.45395 1.443,-0.65564 0,-0.20168 0.649,-0.46212 1.443,-0.57873 2.087,-0.30669 1.774,0.45802 -0.431,1.05249 -1.032,0.27794 -1.999,0.82805 -2.15,1.22245 -0.361,0.94124 -1.748,0.92754 -1.748,-0.0173 z m 13.95,-0.37684 c 0,-0.34632 0.866,-1.0121 1.924,-1.47951 1.058,-0.46742 1.924,-1.02378 1.924,-1.23637 0,-0.21259 0.595,-0.50678 1.323,-0.65377 0.728,-0.14699 1.702,-0.41396 2.165,-0.59327 1.614,-0.62513 0.827,0.5709 -1.083,1.64538 -1.058,0.59543 -1.924,1.28543 -1.924,1.53334 0,0.24791 -0.42,0.45074 -0.933,0.45074 -0.514,0 -1.068,0.2167 -1.231,0.48156 -0.436,0.70607 -2.165,0.58779 -2.165,-0.1481 z m 17.478,-1.07697 c 0,-0.38564 0.18,-0.70115 0.4,-0.70115 0.221,0 0.401,0.20391 0.401,0.45313 0,0.24923 -0.18,0.56474 -0.401,0.70115 -0.22,0.13641 -0.4,-0.0675 -0.4,-0.45313 z m 2.948,-0.2492 c -0.154,-0.24857 -0.212,-0.46853 -0.131,-0.4888 0.793,-0.19652 1.918,-0.4144 3.636,-0.70439 2.425,-0.40909 2.882,0.47539 0.482,0.93027 -0.86,0.16292 -2.046,0.39042 -2.636,0.50555 -0.59,0.11513 -1.198,0.006 -1.351,-0.24263 z m -11.767,-2.34976 c 0,-0.24922 0.18,-0.56474 0.4,-0.70115 0.221,-0.1364 0.401,0.0675 0.401,0.45314 0,0.38563 -0.18,0.70115 -0.401,0.70115 -0.22,0 -0.4,-0.20391 -0.4,-0.45314 z m -117.457,94.55721 c 0.09,0.42579 0.347,0.65622 0.58,0.51207 0.233,-0.14415 0.302,-0.5802 0.153,-0.969 -0.149,-0.38881 -0.03,-0.70692 0.276,-0.70692 0.301,0 0.663,0.29924 0.803,0.66497 0.299,0.78074 2.519,0.40856 5.024,-0.84229 0.865,-0.43218 1.81,-0.793 2.1,-0.80181 0.932,-0.0283 2.692,-1.79518 2.7,-2.70972 0,-0.70739 0.09,-0.74888 0.437,-0.20588 0.367,0.57989 0.539,0.57115 1.169,-0.0594 0.406,-0.40668 1.724,-1.03088 2.93,-1.38712 1.205,-0.35623 2.191,-0.82987 2.191,-1.05254 0,-0.22266 0.198,-0.28235 0.44,-0.13265 0.806,0.49886 0.864,-0.92141 0.09,-2.12295 -0.46,-0.71004 -0.527,-1.03653 -0.166,-0.8143 0.421,0.25968 0.601,10e-4 0.601,-0.86135 0,-1.3237 -0.672,-1.63225 -1.299,-0.59597 -0.212,0.34999 -1.359,1.07361 -2.549,1.60806 -1.191,0.53444 -3.319,1.48515 -4.729,2.11269 -1.997,0.88869 -2.37,1.21115 -1.684,1.45828 0.535,0.19267 1.411,-0.0566 2.231,-0.63457 1.819,-1.28149 2.286,-0.66413 0.539,0.71151 -0.762,0.59964 -1.498,1.1084 -1.637,1.1306 -0.139,0.0222 -0.902,0.32372 -1.695,0.67006 -1.948,0.8498 -2.967,0.92269 -2.967,0.21222 0,-0.32452 0.261,-0.48989 0.58,-0.36749 0.724,0.27845 1.32,-1.13666 0.652,-1.55001 -0.27,-0.16685 -0.856,0.001 -1.302,0.37302 -0.446,0.37202 -1.428,0.94003 -2.182,1.26226 -0.873,0.37352 -1.274,0.83536 -1.106,1.27426 0.155,0.40412 -0.372,1.22429 -1.275,1.98615 -1.318,1.11025 -1.563,1.17978 -1.7,0.48117 -0.09,-0.44913 0.07,-1.09892 0.36,-1.44399 0.408,-0.4921 0.235,-0.60722 -0.802,-0.5338 -1.901,0.13461 -1.944,0.15909 -1.87,1.08707 0.04,0.55334 -0.222,0.79414 -0.775,0.70123 -0.92,-0.15457 -1.055,0.26316 -0.414,1.27641 0.289,0.45546 0.514,0.49192 0.743,0.12039 0.558,-0.90353 1.361,-0.5885 1.095,0.4295 -0.246,0.94393 -0.227,0.94304 1.026,-0.0459 1.107,-0.87372 1.299,-0.90501 1.435,-0.23424 z m 2.826,-3.39446 c -0.626,-0.62624 -0.344,-1.02678 0.889,-1.26259 0.939,-0.17973 1.191,-0.0534 1.076,0.54027 -0.159,0.82617 -1.404,1.2839 -1.965,0.72232 z m 11.208,-4.98355 c 0,-0.65886 2.227,-1.15097 3.246,-0.71715 0.727,0.30994 0.678,0.40918 -0.36,0.72626 -1.75,0.53445 -2.886,0.53087 -2.886,-0.009 z m -24.293,7.21416 c 0.164,-0.26485 0.07,-0.48155 -0.212,-0.48155 -0.28,0 -0.509,0.2167 -0.509,0.48155 0,0.26486 0.09,0.48156 0.212,0.48156 0.116,0 0.346,-0.2167 0.509,-0.48156 z m -1.948,-0.44273 c 0.299,-0.48449 -0.977,-1.96504 -1.694,-1.96504 -0.595,0 -0.563,0.30763 0.15,1.4512 0.651,1.04361 1.121,1.19983 1.544,0.51384 z m 9.632,-28.51576 c -0.289,-1.50355 -0.588,-1.6031 -0.588,-0.19568 0,0.67317 0.176,1.22395 0.393,1.22395 0.216,0 0.304,-0.46272 0.195,-1.02827 z m 129.111,0.30594 c 0.146,-0.58299 -0.604,-0.41423 -0.802,0.18058 -0.121,0.36418 0,0.5267 0.261,0.36117 0.265,-0.16554 0.508,-0.40932 0.541,-0.54175 z m -128.827,-3.2505 c 0.575,1.48493 0.794,1.36347 1.018,-0.56482 0.171,-1.46029 0.09,-1.59569 -0.669,-1.18695 -0.803,0.43072 -1.079,0.11749 -0.94,-1.06928 0.02,-0.16108 -0.622,-0.91953 -1.424,-1.68544 -0.801,-0.76591 -1.415,-1.17587 -1.363,-0.91101 0.187,0.95712 -0.03,1.83835 -0.365,1.5003 -0.19,-0.19011 -0.401,-1.23939 -0.469,-2.33172 -0.117,-1.8858 -0.863,-2.98993 -1.678,-2.48547 -0.964,0.59644 0.269,6.87087 1.5,7.63253 0.281,0.17379 0.511,0.73659 0.511,1.25067 0,1.07743 0.492,1.19288 1.418,0.33274 0.518,-0.48155 0.579,-0.48155 0.308,0 -0.187,0.33107 -0.189,0.84605 0,1.14439 0.201,0.32442 0.617,-0.11107 1.037,-1.0835 0.677,-1.56594 0.718,-1.58596 1.121,-0.54244 z m -4.056,-2.66576 c -0.128,-0.2081 0.168,-0.37836 0.658,-0.37836 0.49,0 0.786,0.17026 0.658,0.37836 -0.129,0.2081 -0.425,0.37837 -0.658,0.37837 -0.233,0 -0.529,-0.17027 -0.658,-0.37837 z m -2.839,-2.32035 c -0.16,-0.16002 -0.575,-0.17712 -0.922,-0.038 -0.384,0.15373 -0.27,0.26784 0.29,0.29094 0.507,0.0209 0.791,-0.0929 0.632,-0.25292 z m 195.219,-11.06493 c 0.854,-0.69696 0.859,-0.73786 0.05,-0.48155 -0.484,0.15405 -1.08,0.28009 -1.323,0.28009 -0.243,0 -0.441,0.2167 -0.441,0.48155 0,0.69727 0.642,0.59213 1.712,-0.28009 z m 3.339,-1.64613 c 0.163,-0.26486 0.07,-0.48156 -0.213,-0.48156 -0.28,0 -0.509,0.2167 -0.509,0.48156 0,0.26486 0.1,0.48156 0.212,0.48156 0.117,0 0.346,-0.2167 0.51,-0.48156 z m -190.732,24.55933 c 0,-0.26485 0.204,-0.48155 0.453,-0.48155 0.249,0 0.586,0.2167 0.75,0.48155 0.164,0.26486 -0.04,0.48156 -0.453,0.48156 -0.412,0 -0.75,-0.2167 -0.75,-0.48156 z"
       id="path1" /></g></svg>
