<?xml version="1.0" encoding="UTF-8" standalone="no"?>
<!-- Created with Inkscape (http://www.inkscape.org/) -->

<svg
   width="231.38646"
   height="235.24007"
   viewBox="0 0 61.221 62.240601"
   version="1.1"
   id="svg1"
   xml:space="preserve"
   xmlns="http://www.w3.org/2000/svg"
   xmlns:svg="http://www.w3.org/2000/svg"><defs
     id="defs1" /><path
     style="fill:#000000;stroke-width:0.264583"
     d="m 52.780303,53.38191 c -0.01897,-0.01868 -2.235634,-0.01385 -4.924772,0.0107 -2.689138,0.02455 -6.119334,0.04847 -7.622746,0.05315 -1.503412,0.0047 -4.535292,0.0177 -6.737776,0.02894 -2.202748,0.01125 -5.750233,-10e-5 -7.883712,-0.02521 -2.133478,-0.0251 -5.508889,-0.02339 -7.501383,0.0038 -1.99223,0.02721 -3.665207,0.04641 -3.717962,0.04269 -0.05249,-0.0037 -0.09748,-0.09249 -0.09997,-0.197241 -0.0053,-0.223563 -0.206515,-0.248029 -0.328597,-0.03994 -0.05925,0.101359 -0.547323,0.133023 -1.625932,0.105492 -0.847686,-0.02163 -2.5847678,-0.01596 -3.8605345,0.01261 l -2.3190226,0.05195 -0.00786,-0.330318 -0.00786,-0.330315 0.8596134,0.05573 c 0.4726155,0.03066 2.2538008,0.05436 3.9581597,0.05268 l 3.098547,-0.003 -0.104079,-0.480905 c -0.246836,-1.141355 -0.324718,-12.062038 -0.11091,-15.599014 0.01716,-0.279906 0.01753,-2.265223 0.0014,-4.411831 -0.01617,-2.146605 0.0023,-4.096318 0.04083,-4.332692 0.09193,-0.563161 -0.218637,-0.890653 -0.726734,-0.766399 -0.536777,0.131298 -0.888061,-0.138962 -0.901259,-0.693398 -0.006,-0.253991 0.05907,-0.520186 0.144713,-0.59155 0.156745,-0.130592 0.742691,-0.342132 1.386798,-0.500791 0.291268,-0.07178 0.345996,-0.151972 0.338338,-0.49588 -0.01749,-0.734632 0.196813,-1.293584 0.560442,-1.471931 0.468537,-0.229605 1.819726,-0.247296 2.149414,-0.02814 0.146831,0.09775 0.375626,0.514584 0.515713,0.940557 l 0.251904,0.765006 0.927102,-0.02207 0.927102,-0.02207 0.07461,-0.456727 c 0.08129,-0.498548 0.515086,-1.031365 1.000263,-1.229052 0.169852,-0.06918 0.576735,-0.131528 0.90395,-0.138547 1.527357,-0.03276 2.098281,0.280857 2.266524,1.244787 0.11831,0.678485 0.267986,0.762379 1.12018,0.628707 0.668676,-0.104904 0.79472,-0.279977 0.748832,-1.040296 -0.02999,-0.481435 0.09872,-0.600438 0.868179,-0.807401 0.619567,-0.166652 1.572968,-0.129024 2.185484,0.08625 0.379253,0.133318 0.925589,0.837174 1.078467,1.389076 0.116411,0.420841 0.277144,0.535605 0.993996,0.709002 0.538772,0.13036 0.622165,0.120313 0.858203,-0.103604 0.220507,-0.209253 0.252482,-0.366959 0.204078,-1.010596 l -0.05732,-0.762651 0.491382,-0.248323 c 0.867956,-0.438772 2.330609,-0.299003 2.71124,0.259099 0.05896,0.08643 0.144631,0.527869 0.190351,0.980963 l 0.08313,0.823811 0.568067,0.02687 c 0.705579,0.03335 0.890378,-0.186178 0.870201,-1.033753 -0.01164,-0.488951 0.03728,-0.635419 0.253239,-0.757663 0.313109,-0.177115 2.367381,-0.366379 2.833833,-0.261094 0.420951,0.09499 0.742106,0.578308 0.755408,1.137084 0.01622,0.681337 0.503211,0.815629 1.360805,0.37518 0.29702,-0.152577 0.308071,-0.344288 0.06137,-1.05758 -0.07702,-0.222435 -0.01241,-0.298916 0.390331,-0.468611 0.782696,-0.329283 1.388468,-0.40842 1.95029,-0.254753 0.677971,0.185502 1.023917,0.609559 1.041931,1.277343 0.02228,0.824703 0.142636,1.111154 0.425623,1.013915 0.13362,-0.04585 0.322129,-0.02058 0.419232,0.05615 0.125422,0.09896 0.200324,0.09911 0.258054,5e-4 0.05112,-0.08702 0.578019,-0.144287 1.409101,-0.153127 1.427999,-0.0152 1.519756,0.02594 1.594902,0.71452 0.06095,0.559201 0.02313,0.638245 -0.455687,0.936204 -0.410485,0.255706 -0.651134,0.297065 -1.903581,0.32688 -0.947469,0.02255 -1.463398,0.08465 -1.521396,0.183086 -0.04807,0.08192 -0.03972,1.310877 0.0187,2.731006 0.234435,5.701235 0.497392,22.006207 0.360856,22.363144 -0.04735,0.123407 -0.03693,0.227565 0.02403,0.231438 0.118751,0.0077 2.04006,0.01422 7.007128,0.02372 3.063824,0.0059 3.21072,0.01739 3.216314,0.252388 0.0055,0.232569 -0.08596,0.246789 -1.648547,0.256126 -0.909766,0.0054 -1.670387,-0.0054 -1.689886,-0.02405 z m -8.734216,-0.621024 c 0.05702,-0.09509 0.100238,-0.358619 0.09589,-0.585608 -0.01041,-0.437143 -0.05406,-0.458666 -0.848161,-0.397351 -0.348708,0.02693 -0.405586,-0.01657 -0.485519,-0.372583 -0.05,-0.221691 -0.09627,-0.553017 -0.103012,-0.736278 -0.02093,-0.545555 -0.423853,-0.895099 -1.017939,-0.880957 -0.381421,0.0091 -0.548376,0.07764 -0.642397,0.263822 -0.197906,0.391583 -0.920639,0.538137 -2.402087,0.487119 -1.497076,-0.05155 -1.752153,-0.127105 -1.820726,-0.539562 -0.07564,-0.453589 -0.583314,-0.433895 -0.975159,0.03782 -0.323662,0.38976 -0.339707,0.393932 -1.779323,0.465876 l -1.452834,0.0726 -0.305247,-0.426511 c -0.401328,-0.560345 -0.873148,-0.602045 -1.713031,-0.151352 -0.606001,0.325185 -0.717308,0.341112 -2.394154,0.342344 l -1.758623,0.0013 L 26.201067,49.841 c -0.204026,-0.421383 -0.308948,-0.50414 -0.662719,-0.52315 -0.347941,-0.01868 -0.529172,0.08389 -1.051353,0.594892 l -0.630803,0.617464 -1.858533,0.01794 c -1.02214,0.0099 -1.901442,0.0165 -1.953886,0.01475 -0.05244,-0.0017 -0.09842,-0.121044 -0.101852,-0.265103 -0.0042,-0.175282 -0.07955,-0.25108 -0.227768,-0.229142 -0.122107,0.01805 -0.316408,-0.0059 -0.431867,-0.05327 -0.115459,-0.04734 -0.455901,-0.06231 -0.756656,-0.03327 -0.539985,0.05214 -0.550072,0.06201 -0.818157,0.807475 -0.323188,0.898859 -0.586727,1.234931 -0.975554,1.244187 -0.478231,0.01138 -0.686274,0.155018 -0.678808,0.468648 0.0096,0.405312 0.04412,0.408117 5.350365,0.434986 2.482794,0.01257 4.829161,0.04198 5.21453,0.06535 0.385105,0.02337 2.874067,0.02824 5.530822,0.01083 2.657019,-0.01742 4.840536,-0.02495 4.85264,-0.01675 0.01343,0.0082 1.578625,-0.0026 3.481272,-0.02405 2.790868,-0.03143 3.479328,-0.07237 3.563344,-0.211872 z m 1.360376,-7.158488 c -0.08127,-3.858626 -0.177195,-8.444231 -0.211879,-10.190263 -0.0841,-4.19987 -0.324961,-10.86042 -0.403866,-11.139916 -0.138144,-0.488849 -1.272427,-0.731661 -2.011332,-0.430586 -0.280465,0.114205 -0.31785,0.200288 -0.288866,0.66184 0.02595,0.423116 -0.02916,0.587124 -0.276081,0.809831 -0.170488,0.153606 -0.282106,0.356586 -0.247833,0.45106 0.04167,0.11621 -0.0071,0.147615 -0.148017,0.097 -0.115576,-0.04113 -0.20838,-0.01505 -0.206642,0.05797 0.0017,0.07301 -0.164425,0.308253 -0.369193,0.522752 -0.204503,0.214491 -0.371137,0.42996 -0.369974,0.478814 0.0012,0.04885 0.245296,0.08717 0.542459,0.08516 0.746745,-0.0051 0.99382,0.06787 1.155413,0.341061 0.179233,0.302697 0.211671,2.521394 0.06301,4.314645 -0.06371,0.770135 -0.106303,2.772095 -0.09471,4.448805 0.03023,4.349514 -0.0115,7.543821 -0.132398,10.103174 -0.02788,0.596296 0.03113,1.307703 0.164003,1.897525 0.114777,0.518997 0.185384,0.983564 0.15664,1.032377 -0.02848,0.04881 0.11916,0.447387 0.328088,0.885734 0.208929,0.438348 0.357596,0.868986 0.33005,0.956987 -0.03517,0.112531 0.122278,0.155895 0.53015,0.146185 0.513675,-0.01223 0.589929,0.02251 0.667817,0.303752 0.04836,0.174656 0.05819,0.443003 0.02214,0.596323 -0.08848,0.374401 0.137727,0.604752 0.583423,0.594142 l 0.366873,-0.0087 z M 42.03725,26.530673 c 0.08396,-0.141749 0.198155,-0.258807 0.253702,-0.260129 0.05555,-0.0013 0.0424,0.113331 -0.02887,0.254777 -0.07153,0.141451 -0.185723,0.258509 -0.253702,0.260127 -0.06851,0.0016 -0.0556,-0.112016 0.02887,-0.254775 z M 15.3797,52.797409 c 0.05163,-0.08804 0.09078,-0.389115 0.08703,-0.669056 l -0.0068,-0.508979 0.679219,-0.08452 c 0.705606,-0.08779 1.02691,-0.343128 1.015864,-0.807147 -0.003,-0.127007 0.106706,-0.331492 0.24352,-0.454406 0.137078,-0.122918 0.246598,-0.325062 0.243643,-0.449211 -0.003,-0.12415 0.03748,-0.226744 0.08985,-0.227988 0.05264,-0.0012 0.05756,-1.673587 0.01131,-3.716315 -0.12468,-5.459889 -0.1786,-15.207249 -0.09412,-16.67233 0.102338,-1.782409 -0.01762,-3.363933 -0.268431,-3.538311 -0.108719,-0.07549 -0.307511,-0.477124 -0.441789,-0.892521 -0.162847,-0.503738 -0.336335,-0.798559 -0.521278,-0.885257 -0.351684,-0.164831 -1.503216,0.0018 -1.73521,0.251057 -0.209537,0.2254 -0.334668,3.485103 -0.316644,8.25578 0.01205,3.118986 -0.01548,4.552673 -0.112585,5.910239 -0.122751,1.71425 0.02322,12.660216 0.184511,13.843435 0.02879,0.20894 0.06276,0.479686 0.07625,0.601645 0.03009,0.26364 0.716654,0.2985 0.865683,0.04388 z m 25.244079,-3.038811 c 0.07875,-0.08269 0.0708,-0.483647 -0.0327,-1.595969 -0.07012,-0.755465 -0.01809,-6.874912 0.05974,-7.007353 0.04018,-0.0688 0.01635,-3.393396 -0.05307,-7.387977 -0.06863,-3.994601 -0.12491,-7.303991 -0.12346,-7.354239 0.0015,-0.05025 0.0816,-0.06316 0.178491,-0.0287 0.09663,0.03446 0.20591,-0.022 0.242881,-0.125452 0.04341,-0.121937 -0.111422,-0.300207 -0.440811,-0.506789 -0.463461,-0.290937 -0.508952,-0.367492 -0.521133,-0.879188 -0.02042,-0.857756 -0.234492,-0.98969 -1.405569,-0.865895 -1.552813,0.164157 -1.53503,0.155164 -1.523787,0.771971 0.007,0.295467 -0.03762,0.76565 -0.09555,1.044761 -0.05767,0.279105 -0.06054,0.536437 -0.0076,0.571879 0.0543,0.03541 0.06106,0.208201 0.01443,0.383998 l -0.08396,0.31961 -0.02172,-0.356353 c -0.01277,-0.202798 -0.07513,-0.321248 -0.146282,-0.27487 -0.186083,0.121134 -0.135564,0.775768 0.07267,0.940239 0.0998,0.07864 0.290445,0.438411 0.424224,0.799486 0.207897,0.561791 0.253124,1.10532 0.313848,3.767403 0.104262,4.602178 0.0719,15.772283 -0.04767,16.097279 -0.13645,0.371653 -0.680224,0.742704 -0.896131,0.611547 -0.309092,-0.18778 -0.739573,-0.116124 -0.7339,0.12218 0.0043,0.181101 0.111072,0.218824 0.56343,0.198976 0.642184,-0.02818 0.840543,0.0551 0.850379,0.357106 0.01683,0.484567 0.233953,0.589036 1.311252,0.628269 1.045777,0.03807 1.935336,-0.0602 2.099308,-0.231847 z m -5.437125,0.01175 c 0.268913,-0.132572 0.322408,-0.264547 0.370387,-0.91732 0.03104,-0.419359 0.0032,-0.864567 -0.06378,-0.989301 -0.06596,-0.12476 -0.132311,-0.666296 -0.147479,-1.203411 -0.01279,-0.537171 -0.08234,-2.347348 -0.148958,-4.022748 -0.06661,-1.675398 -0.19965,-5.273937 -0.295432,-7.996758 -0.09605,-2.722813 -0.184574,-5.007504 -0.197081,-5.077081 -0.06761,-0.383106 0.0048,-2.089081 0.08336,-1.968298 0.06373,0.09766 0.117714,0.07533 0.169564,-0.07017 0.115131,-0.322231 0.08773,-0.450443 -0.08733,-0.411077 -0.09609,0.02158 -0.167329,-0.113924 -0.181829,-0.345044 -0.01292,-0.209315 -0.03779,-0.408818 -0.05502,-0.443345 -0.108677,-0.218278 -0.135466,-1.187981 -0.03999,-1.457572 0.202331,-0.57254 -0.05232,-0.919093 -0.825493,-1.123872 -0.618436,-0.163806 -0.732711,-0.161416 -1.148574,0.02403 l -0.46222,0.205932 0.01961,0.823616 c 0.01558,0.654319 -0.03126,0.877056 -0.228276,1.083607 -0.309607,0.324242 -1.048212,0.35998 -1.807123,0.08743 -0.663077,-0.238015 -0.72022,-0.281493 -0.78841,-0.600064 -0.105935,-0.492209 -0.366818,-0.956185 -0.706096,-1.255785 -0.290612,-0.256451 -0.471124,-0.301529 -1.144033,-0.28551 -0.439613,0.01046 -0.944556,0.07824 -1.122271,0.150615 -0.277581,0.113109 -0.3211,0.208305 -0.309923,0.677853 0.0072,0.300447 -0.0772,0.681581 -0.18733,0.846959 -0.171454,0.257579 -0.271758,0.290993 -0.699502,0.233063 -0.475802,-0.06446 -0.505582,-0.04802 -0.635559,0.350936 -0.134154,0.412551 -0.137294,0.414028 -0.219334,0.102927 -0.0576,-0.218186 -0.219951,-0.356599 -0.526227,-0.448335 -0.428894,-0.128487 -0.446,-0.157778 -0.539073,-0.921295 -0.106985,-0.880912 -0.185942,-0.962471 -1.023195,-1.057267 -1.183036,-0.133991 -2.158284,0.355963 -2.141151,1.075701 0.01426,0.599034 -0.988508,1.10023 -1.824288,0.911696 -0.201962,-0.04562 -0.315897,-0.01781 -0.313649,0.07663 0.0019,0.08153 0.05591,0.114092 0.120025,0.07237 0.06411,-0.04173 0.152205,-0.02112 0.195879,0.04581 0.04367,0.06692 0.176784,0.0886 0.295976,0.04818 0.179577,-0.0609 0.175357,-0.03806 -0.02515,0.133189 -0.133064,0.113684 -0.198891,0.205674 -0.146519,0.204427 0.05237,-0.0012 0.05222,0.07022 0.0011,0.158779 -0.05241,0.08859 -0.104369,0.218459 -0.115402,0.288597 -0.01156,0.07015 -0.06155,0.238482 -0.112044,0.374094 -0.09107,0.243316 -0.08896,0.243266 0.160028,-0.0038 0.138843,-0.137714 0.245072,-0.30024 0.235946,-0.361164 -0.0094,-0.06092 0.05466,-0.138667 0.141185,-0.172753 0.08679,-0.03409 0.159027,-0.0014 0.160783,0.0724 0.0019,0.08147 0.151935,0.100944 0.380962,0.04946 0.405405,-0.0911 1.022722,0.192462 1.030737,0.473569 0.002,0.08569 0.09439,0.31855 0.204461,0.517502 0.12639,0.228533 0.157822,0.414945 0.08563,0.506251 -0.06449,0.08151 -0.076,1.888246 -0.02627,4.144205 0.04972,2.199797 0.07495,4.771794 0.05931,5.71547 -0.145591,8.659522 -0.145956,9.500282 -0.0066,10.274831 0.07017,0.390659 0.05758,0.528867 -0.04333,0.469951 -0.08589,-0.05037 -0.140124,0.01723 -0.136476,0.170468 0.0033,0.139671 -0.04973,0.290246 -0.118012,0.334619 -0.07245,0.0472 -0.01934,0.188267 0.129836,0.339959 0.221895,0.227019 0.442407,0.262575 1.77154,0.285605 l 1.517912,0.02631 0.206981,-0.332772 c 0.113946,-0.18303 0.220136,-0.436117 0.23592,-0.562418 0.01755,-0.151966 0.140779,-0.234271 0.360494,-0.243349 0.182435,-0.0075 0.361773,-0.04511 0.398441,-0.08348 0.03667,-0.03838 0.338657,-0.06003 0.671087,-0.04812 0.564732,0.02022 0.605292,8.09e-4 0.615726,-0.294677 0.0079,-0.222568 -0.0305,-0.280645 -0.131964,-0.195897 -0.23532,0.198506 -0.872726,0.29399 -1.348652,0.2021 -0.777433,-0.150076 -0.782683,-0.192738 -1.007672,-8.321054 -0.192226,-6.941026 -0.201541,-10.667669 -0.02951,-11.623852 0.09302,-0.517265 0.578897,-1.241427 0.909137,-1.35485 0.125219,-0.04298 0.293658,-0.249327 0.374692,-0.458555 0.08103,-0.209228 0.183047,-0.382046 0.226933,-0.384046 0.04388,-0.0021 0.20836,-0.04135 0.365529,-0.08744 0.234701,-0.06883 0.279639,-0.03775 0.252389,0.173904 -0.04866,0.379794 -0.340781,0.693469 -0.5698,0.611893 -0.109972,-0.03922 0.148936,0.230661 0.575088,0.599737 l 0.775014,0.671042 0.02924,2.651484 c 0.04199,3.831951 0.03583,7.831003 -0.01378,9.004725 -0.02373,0.559561 -0.03077,2.532089 -0.01581,4.383404 0.02473,3.017987 0.008,3.837749 -0.08681,4.258052 -0.172586,0.765893 0.505644,1.140174 2.220001,1.224945 l 1.201641,0.05944 0.27971,-0.412764 c 0.255924,-0.37803 0.25969,-0.408854 0.04289,-0.366329 -0.212321,0.04172 -0.240472,-0.05128 -0.277282,-0.919436 -0.02323,-0.531203 -0.111172,-1.090172 -0.197097,-1.24211 -0.11299,-0.199279 -0.119383,-0.323344 -0.02383,-0.445271 0.2672,-0.337938 0.312158,-2.396147 0.149758,-6.872416 -0.136976,-3.775091 -0.46867,-9.570694 -0.568302,-9.931528 -0.01442,-0.04995 0.01952,-0.292005 0.07242,-0.537824 0.0537,-0.245838 0.104558,-0.532899 0.112909,-0.63791 0.0081,-0.105003 0.07588,-0.392466 0.150205,-0.638795 0.07406,-0.246324 0.125983,-0.533409 0.11529,-0.637967 -0.04154,-0.399749 0.0092,-0.801312 0.09129,-0.723193 0.04712,0.04485 0.170115,0.0086 0.273326,-0.08062 0.162343,-0.140023 0.176755,-0.112728 0.106913,0.199768 -0.05646,0.251896 -0.03889,0.33435 0.05833,0.271167 0.08522,-0.05547 0.07888,0.01146 -0.01708,0.172112 -0.08575,0.144581 -0.202145,0.235716 -0.259043,0.202529 -0.05663,-0.03319 -0.101218,0.01726 -0.09896,0.112107 0.0028,0.119677 0.130194,0.154884 0.41587,0.115043 0.517279,-0.0721 1.095521,0.126494 1.21492,0.417176 0.05028,0.122132 0.231754,0.418813 0.403683,0.65928 l 0.312119,0.437225 0.02413,4.827108 c 0.01292,2.654919 0.04079,5.426996 0.06169,6.160181 0.11679,4.127845 0.205811,7.645104 0.205373,8.293784 0.0018,0.518895 0.06212,0.797403 0.205104,0.933609 0.162749,0.154982 0.174908,0.243274 0.06045,0.438061 -0.11446,0.194755 -0.104233,0.2686 0.05027,0.366165 0.236182,0.149023 1.839006,-0.01553 2.282921,-0.234381 z M 31.134788,26.992236 c -0.04017,-0.09755 -0.210601,-0.208412 -0.378768,-0.246365 -0.22032,-0.0497 -0.284397,-0.128746 -0.229569,-0.282563 0.06848,-0.191856 0.0852,-0.189751 0.164845,0.02069 0.06101,0.161476 0.116135,0.186881 0.177944,0.08176 0.129195,-0.2206 0.332847,-0.192946 0.251975,0.0342 -0.09478,0.265519 0.208075,0.235735 0.426161,-0.04191 0.166193,-0.21176 0.172326,-0.209831 0.09492,0.0295 -0.04561,0.140834 -0.08404,0.327552 -0.0854,0.414927 -0.0028,0.21717 -0.331665,0.209197 -0.422109,-0.01025 z m -7.00584,-0.114119 c -0.10253,-0.249124 -0.0258,-0.305386 0.309822,-0.226268 0.354251,0.08363 0.366405,0.238415 0.02652,0.335966 -0.161661,0.0464 -0.288894,0.0048 -0.336081,-0.109704 z m 1.862619,-0.346611 c -0.0052,-0.218917 0.198272,-0.598562 0.273666,-0.511011 0.02776,0.03225 -0.02163,0.203283 -0.109255,0.380054 -0.08815,0.177159 -0.161912,0.235933 -0.164411,0.130957 z M 18.73532,26.315612 c -0.0018,-0.07396 0.05504,-0.10052 0.125895,-0.05902 0.07086,0.0415 0.129432,0.100649 0.130165,0.131443 7.33e-4,0.0308 -0.0558,0.05735 -0.125631,0.05902 -0.06983,0.0017 -0.128669,-0.05748 -0.130429,-0.131437 z m 6.100098,-0.122717 c -0.0017,-0.06984 0.05327,-0.163647 0.122074,-0.208469 0.06907,-0.04483 0.12672,-0.02437 0.128383,0.04547 0.0017,0.06983 -0.05327,0.163644 -0.122338,0.208472 -0.0688,0.04482 -0.126456,0.02437 -0.128119,-0.04547 z m 17.450836,22.716189 c -0.0045,-0.187418 -0.05859,-0.259868 -0.149806,-0.200502 -0.07845,0.05112 -0.344233,0.103699 -0.590318,0.116833 -0.506178,0.027 -0.696459,0.305268 -0.246041,0.359586 0.759632,0.09159 0.993357,0.02621 0.986165,-0.275917 z m -10.975193,0.05231 c -0.224845,-0.161956 -0.221945,-0.173541 0.05813,-0.226414 0.270852,-0.05112 0.256278,-0.0741 -0.175472,-0.278126 -0.301664,-0.142571 -0.553549,-0.184099 -0.701982,-0.11569 -0.22435,0.103417 -0.224235,0.108255 0.0037,0.156396 0.176625,0.03746 0.217362,0.125532 0.164925,0.357546 -0.06441,0.28498 -0.03399,0.306704 0.409241,0.292411 0.435823,-0.01405 0.457656,-0.03077 0.241966,-0.186135 z m -12.340266,0.142669 c -0.142135,-0.345208 0.02917,-0.697994 0.321922,-0.662952 0.145448,0.01742 0.282303,-0.02593 0.304446,-0.09633 0.02214,-0.0704 -0.181361,-0.125262 -0.452027,-0.121918 -0.443437,0.0055 -0.491361,0.03795 -0.485752,0.329174 0.0078,0.328335 0.191522,0.763342 0.323777,0.760193 0.03994,-9.5e-4 0.03427,-0.09462 -0.0129,-0.208156 z m 0.526747,-0.0079 c -0.04333,-0.04118 -0.15294,-0.04309 -0.243851,-0.0042 -0.100342,0.04294 -0.06947,0.07231 0.0788,0.07488 0.133972,0.0023 0.208379,-0.02947 0.165053,-0.07066 z m 0.154373,-0.308053 c -0.0017,-0.06984 -0.103251,-0.12371 -0.225428,-0.119732 -0.190144,0.0061 -0.194206,0.02447 -0.02876,0.125783 0.243331,0.149152 0.257879,0.148806 0.254193,-0.0061 z m 22.071857,-0.62743 c 0.09847,-0.06594 0.142111,-0.445137 0.123614,-1.077649 -0.01542,-0.536754 0.01015,-1.041264 0.05694,-1.121132 0.0468,-0.07987 0.06669,-0.567054 0.04463,-1.082636 -0.02286,-0.515564 0.008,-1.29657 0.0672,-1.735535 0.05942,-0.438972 0.101088,-2.312966 0.09248,-4.164432 -0.01609,-3.499773 0.0081,-5.352505 0.112064,-8.57816 0.07753,-2.413007 0.0337,-2.675714 -0.474635,-2.839344 -0.2619,-0.08424 -0.439706,-0.08238 -0.540827,0.0056 -0.195763,0.170321 -0.245946,3.398742 -0.151605,9.752152 0.03976,2.67094 0.03836,4.913579 -0.0026,4.98363 -0.100971,0.17216 -0.08183,5.045205 0.02178,5.562059 0.08229,0.410574 0.318535,0.517737 0.650946,0.295387 z m -21.495338,0.0421 c -0.026,-0.313827 -0.103967,-0.387282 -0.249599,-0.23454 -0.05861,0.06151 0.169601,0.553966 0.25583,0.551913 0.01058,-2.52e-4 0.0072,-0.143055 -0.0076,-0.317341 z m 16.787514,-0.367955 c 0.0721,-0.09533 0.100551,-1.412792 0.06916,-3.209516 -0.02932,-1.676286 -0.04427,-4.105652 -0.03324,-5.39859 0.01077,-1.292933 -0.02115,-4.179256 -0.07091,-6.41405 -0.08719,-3.885056 -0.10265,-4.089804 -0.376843,-4.668216 -0.264713,-0.558159 -0.317873,-0.601102 -0.688098,-0.555319 -0.307159,0.03798 -0.456809,0.15529 -0.637307,0.499895 -0.207331,0.395913 -0.221021,0.587947 -0.112723,1.590737 0.145985,1.351914 0.164218,1.795412 0.157333,3.807585 -0.0053,1.53202 0.318495,10.221885 0.459381,12.326849 0.0998,1.49089 0.410695,2.199011 0.959815,2.18594 0.08306,-0.002 0.205939,-0.07637 0.273426,-0.165315 z m -5.042662,-0.48342 c 0.17676,-0.390463 0.18727,-0.782818 0.08027,-2.987452 -0.0679,-1.395872 -0.143353,-3.709458 -0.168175,-5.14129 -0.159561,-9.271075 -0.191078,-9.916834 -0.520217,-10.635465 -0.236175,-0.51563 -0.271412,-0.539439 -0.724676,-0.490925 -0.730448,0.07819 -0.814876,0.367188 -0.685274,2.342757 0.08146,1.243001 0.412497,8.96761 0.54092,12.628032 0.01747,0.511338 -0.113743,2.715265 -0.175818,2.942639 -0.07255,0.265327 0.322303,1.365367 0.595533,1.658739 0.331086,0.355706 0.819074,0.209397 1.057438,-0.317035 z m -6.247353,0.340678 c 0.198815,-0.108778 0.389866,-0.29913 0.424764,-0.423005 0.07173,-0.255475 0.07198,-0.133844 -0.0048,-3.971414 -0.03211,-1.571409 -0.04439,-3.14329 -0.0289,-3.493029 0.01549,-0.349742 0.01131,-2.693609 -0.0097,-5.208587 -0.0207,-2.514984 -0.01692,-4.791103 0.0087,-5.05805 0.05684,-0.591732 -0.117403,-1.051797 -0.569333,-1.503148 -0.361922,-0.361377 -0.815712,-0.435043 -1.023685,-0.166199 -0.06881,0.08898 -0.2138,0.535502 -0.322023,0.992261 -0.175087,0.738685 -0.176341,1.797755 -0.01326,9.582237 l 0.184516,8.751743 0.310881,0.351894 c 0.353582,0.400163 0.532289,0.42505 1.043565,0.145278 z m -6.012799,-0.334675 c 0.156783,-0.206823 0.236818,-1.35853 0.31327,-4.506259 0.03368,-1.387018 0.100407,-3.408921 0.147908,-4.493105 0.108866,-2.475413 -0.05004,-10.262384 -0.220908,-10.825267 -0.04794,-0.157225 -0.196793,-0.217642 -0.517907,-0.209998 -0.35497,0.0084 -0.537292,0.109666 -0.857794,0.476524 -0.499825,0.571809 -0.508829,0.66051 -0.451248,4.435752 0.02488,1.600969 0.01899,2.954418 -0.0123,3.007647 -0.03102,0.05322 -0.04819,1.744684 -0.03809,3.758806 0.01036,2.014112 0.01882,3.947872 0.01919,4.297234 0.0013,2.144437 0.102108,3.110901 0.348536,3.345672 0.173852,0.165553 0.208248,0.276338 0.116066,0.372986 -0.212256,0.222358 0.150065,0.522695 0.616922,0.511582 0.227477,-0.0054 0.46886,-0.08262 0.536348,-0.171574 z M 48.452676,26.702031 c -0.04692,-0.114319 -0.0144,-0.160318 0.09022,-0.123409 0.220479,0.07859 0.464486,-0.24416 0.334833,-0.443029 -0.130473,-0.199951 -1.928365,-0.325146 -1.923814,-0.133952 0.0037,0.153875 -0.694209,0.444298 -0.807675,0.336145 -0.168164,-0.160085 -0.06329,-0.24606 0.238825,-0.195798 0.176166,0.02934 0.317699,-0.0065 0.31595,-0.08 -0.0017,-0.07321 -0.160058,-0.108632 -0.351488,-0.07872 -0.191694,0.02992 -0.47704,0.0614 -0.634044,0.06995 -0.230219,0.01252 -0.28398,0.08885 -0.276763,0.392028 l 0.009,0.376475 1.303419,0.01015 c 0.716828,0.0056 1.410038,0.01966 1.539998,0.0313 0.159929,0.0143 0.21241,-0.03798 0.161575,-0.161149 z m -0.472451,-0.312833 c -0.0017,-0.06984 0.08612,-0.129096 0.195094,-0.13169 0.108977,-0.0026 0.164033,0.05327 0.12258,0.124128 -0.04145,0.07086 -0.129232,0.13012 -0.195094,0.131688 -0.06586,0.0016 -0.120918,-0.05429 -0.12258,-0.124126 z m -11.982268,-0.07207 c 0.02553,-0.08358 -0.04406,-0.149817 -0.154623,-0.147185 -0.110565,0.0026 -0.199138,0.09526 -0.196506,0.205831 0.0053,0.224224 0.278175,0.178657 0.351129,-0.05865 z m 0.538161,0.02689 c 0.08582,-0.108346 0.09757,-0.19289 0.02668,-0.191202 -0.06983,0.0017 -0.196341,0.09043 -0.280606,0.197247 -0.08582,0.108345 -0.09757,0.192887 -0.02668,0.191199 0.06983,-0.0017 0.196077,-0.09042 0.280606,-0.197244 z m -1.017838,-0.0318 c -0.0016,-0.06571 -0.06082,-0.15343 -0.131677,-0.19493 -0.07112,-0.04149 -0.126976,0.01364 -0.124384,0.122509 0.0026,0.108872 0.06185,0.196591 0.131941,0.194922 0.06983,-0.0017 0.125684,-0.05679 0.12412,-0.122501 z m -0.44784,-0.123881 c 0.04145,-0.07086 0.01549,-0.127412 -0.0591,-0.125637 -0.07406,0.0018 -0.133275,0.06034 -0.131612,0.130177 0.0017,0.06984 0.02947,0.126342 0.0591,0.125637 0.03068,-7.3e-4 0.08989,-0.05931 0.131612,-0.130177 z M 13.51618,26.47911 c 0.06901,-0.125032 0.127588,-0.154694 0.131801,-0.06666 0.01464,0.281423 0.389222,0.162972 0.382471,-0.120626 -0.0059,-0.246437 -0.05334,-0.261523 -0.54055,-0.171726 -0.589191,0.108588 -0.844935,0.360771 -0.495962,0.489528 0.337496,0.124649 0.388535,0.111866 0.52224,-0.130515 z"
     id="path1" /></svg>
