<?xml version="1.0" encoding="UTF-8" standalone="no"?>
<!-- Created with Inkscape (http://www.inkscape.org/) -->

<svg
   width="231.38646"
   height="235.24007"
   viewBox="0 0 61.221 62.240601"
   version="1.1"
   id="svg1"
   xml:space="preserve"
   xmlns="http://www.w3.org/2000/svg"
   xmlns:svg="http://www.w3.org/2000/svg"><defs
     id="defs1" /><g
     id="g1903"
     transform="matrix(0.26458333,0,0,0.26458333,-4527.5023,-202.30393)"><path
       style="fill:#000000"
       d="m 17292.167,966.48479 c -3.848,-0.81464 -6.449,-1.98278 -7.933,-3.56231 -1.719,-1.83049 -3.844,-4.7603 -3.844,-5.3002 0,-0.24988 -0.314,-0.71467 -0.697,-1.03287 -0.383,-0.31819 -0.939,-1.37313 -1.235,-2.34431 -0.296,-0.97118 -0.738,-2.1988 -0.981,-2.72805 -0.42,-0.91373 -1.472,-4.94167 -2.386,-9.1416 -0.585,-2.68587 -0.244,-19.50026 0.477,-23.57571 0.329,-1.85238 1.007,-5.46646 1.508,-8.03128 0.5,-2.56483 0.91,-6.13727 0.91,-7.93876 0,-6.38934 -2.077,-14.58216 -3.694,-14.58216 -0.348,0 -0.632,-0.19931 -0.632,-0.44291 0,-1.44622 -7.663,-0.3593 -11.512,1.63286 -0.927,0.48011 -2.884,0.88331 -4.551,0.93796 -2.338,0.0766 -3.59,0.45187 -6.242,1.8708 -1.824,0.97621 -3.987,1.77751 -4.807,1.78065 -0.819,0.003 -2.679,0.35439 -4.133,0.78055 -1.454,0.42616 -3.185,0.82239 -3.846,0.88051 -2.574,0.22634 -3.141,0.77624 -5.528,5.36371 -1.322,2.54042 -2.797,4.89752 -3.278,5.23799 -0.709,0.50173 -0.914,1.4717 -1.086,5.11881 -0.117,2.47488 -0.333,4.87972 -0.48,5.3441 -0.381,1.20226 -1.418,1.04438 -2.543,-0.38725 -0.96,-1.2217 -0.986,-1.22559 -3.166,-0.48469 -1.825,0.62006 -2.584,0.64938 -4.475,0.17269 -2.771,-0.69878 -3.254,-1.03482 -4.189,-2.91121 -0.952,-1.90915 -0.924,-2.65067 0.11,-2.87148 0.641,-0.13706 0.463,-0.38062 -0.751,-1.02538 -2.234,-1.18633 -1.904,-2.4674 0.643,-2.49358 1.051,-0.0108 3.208,-0.21561 4.794,-0.45511 1.587,-0.23951 3.038,-0.39598 3.226,-0.34772 0.979,0.25188 4.747,-6.70152 5.421,-10.00311 0.19,-0.92619 0.971,-2.93539 1.737,-4.4649 0.767,-1.52951 1.393,-2.82858 1.393,-2.88683 0,-0.0582 -0.703,-0.13415 -1.562,-0.16869 -3.314,-0.13323 -9.789,-1.03787 -10.936,-1.52777 -0.66,-0.28245 -3.256,-0.98282 -5.768,-1.55638 -2.511,-0.57356 -5.215,-1.28525 -6.007,-1.58153 -0.793,-0.29627 -1.91,-0.4772 -2.483,-0.40205 -0.572,0.0752 -2.127,-0.41414 -3.454,-1.08731 -1.328,-0.67317 -3.672,-1.37112 -5.209,-1.55101 -1.555,-0.18192 -4.318,-1.03953 -6.225,-1.93247 -1.887,-0.88297 -4.191,-1.6054 -5.122,-1.6054 -2.436,0 -5.523,-1.81784 -7.511,-4.42311 -0.948,-1.2419 -1.844,-2.27033 -1.992,-2.2854 -0.148,-0.0151 -1.414,1.07734 -2.814,2.42759 -2.277,2.19743 -6.263,4.52186 -8.214,4.79101 -0.396,0.0547 -1.399,-0.0597 -2.227,-0.25429 -1.288,-0.30235 -1.728,-0.84146 -3.033,-3.70998 -1.18,-2.59463 -2.363,-4.16485 -5.216,-6.91976 -2.029,-1.95995 -4.32,-3.78354 -5.09,-4.05242 -1.794,-0.62577 -4.479,-0.63004 -4.863,-0.008 -0.456,0.73891 -2.163,0.57061 -2.163,-0.21328 0,-0.38194 0.486,-1.04218 1.081,-1.46722 1.058,-0.75588 1.062,-0.78795 0.157,-1.46458 -0.508,-0.38047 -1.629,-0.82406 -2.49,-0.98575 -1.659,-0.31142 -2.481,-1.46722 -1.641,-2.30735 0.35,-0.35075 0.975,-0.30801 2.058,0.14079 0.856,0.35442 2.313,0.74862 3.238,0.87599 l 1.683,0.23158 -2.108,-2.18079 c -1.314,-1.35907 -2.004,-2.45444 -1.83,-2.90707 0.153,-0.39946 0.02,-0.83145 -0.295,-0.95997 -0.34,-0.1384 -0.262,-0.24915 0.192,-0.27165 0.422,-0.0209 1.179,0.42492 1.683,0.9907 0.503,0.56577 1.661,1.34404 2.571,1.72948 1.511,0.63972 1.711,0.62591 2.283,-0.15836 0.761,-1.04154 0.81,-2.80383 0.114,-4.1056 -0.376,-0.70255 -0.357,-1.1507 0.07,-1.66449 0.509,-0.61429 0.69,-0.60602 1.431,0.0655 0.948,0.8584 2.379,4.8303 2.379,6.60242 0,0.63343 0.458,2.61228 1.018,4.39744 0.899,2.86621 1.32,3.4831 3.602,5.27563 1.421,1.11644 3.367,2.31334 4.324,2.65978 l 1.74,0.62989 2.51,-2.69899 2.509,-2.699 -1.352,-3.20745 c -0.743,-1.76411 -1.691,-4.30727 -2.105,-5.65148 -0.414,-1.3442 -1.338,-3.44742 -2.053,-4.67382 -3.226,-5.53293 -6.042,-10.00502 -7.836,-12.44487 -3.048,-4.14401 -4.037,-5.84817 -4.75,-8.17933 -0.364,-1.19081 -0.918,-2.48988 -1.231,-2.88682 -0.659,-0.83653 -2.595,-7.55009 -2.966,-10.28666 l -0.253,-1.86676 2.701,0.33769 c 2.857,0.35731 3.167,0.11595 2.192,-1.70744 -0.28,-0.52269 -0.527,-2.25062 -0.549,-3.83985 -0.04,-2.61227 0.1,-3.02702 1.423,-4.32283 1.405,-1.37409 1.559,-1.41238 3.725,-0.92652 2.9,0.65051 9.549,5.76631 11.822,9.09607 0.898,1.31469 2.408,2.83059 3.356,3.36866 3.269,1.85618 9.822,12.61587 10.986,18.03975 0.233,1.08416 0.562,3.48678 0.731,5.33916 0.17,1.85237 0.431,3.80098 0.58,4.33023 0.264,0.9327 2.439,3.07504 3.159,3.11009 0.195,0.01 1.645,-0.96469 3.222,-2.1649 1.576,-1.20021 3.58,-2.42686 4.451,-2.7259 2.54,-0.871 3.563,-1.72925 4.345,-3.64266 1.279,-3.13142 2.288,-7.10898 2.288,-9.01887 0,-1.01645 0.249,-2.53825 0.554,-3.38176 0.497,-1.37508 0.422,-1.7067 -0.721,-3.20697 -0.702,-0.92031 -1.275,-1.91072 -1.275,-2.20091 0,-1.04075 1.051,-1.14892 2.078,-0.21379 0.575,0.5239 1.576,1.22685 2.224,1.56211 1.1,0.56966 1.304,0.46312 3.124,-1.62777 1.973,-2.26708 3.432,-2.82424 3.938,-1.50408 0.153,0.39898 -0.07,1.25741 -0.496,1.90762 -0.426,0.65021 -0.774,1.29808 -0.774,1.4397 0,0.14162 1.298,0.2575 2.884,0.2575 3.251,0 3.752,0.6904 1.683,2.31972 -0.661,0.52039 -1.202,1.06059 -1.202,1.20045 0,0.13986 0.757,0.50439 1.682,0.81006 0.926,0.30567 1.683,0.83723 1.683,1.18124 0,0.91328 -1.278,1.82586 -2.557,1.82586 -0.823,0 -1.103,0.26551 -1.08,1.02242 0.03,0.91675 -0.192,1.00707 -2.131,0.87391 -1.272,-0.0873 -2.491,0.11091 -2.959,0.48113 -1.235,0.97728 -3.323,6.48567 -4.044,10.67091 -0.706,4.09365 -1.49,5.69497 -3.641,7.43844 -0.761,0.61657 -1.247,1.34142 -1.081,1.61077 0.185,0.29851 2.767,0.45995 6.615,0.41344 3.471,-0.042 10.746,0.0721 16.166,0.25341 13.517,0.45229 14.882,0.44103 16.935,-0.1397 1.399,-0.39553 2.977,-0.30227 7.161,0.42294 2.951,0.51169 5.775,1.14921 6.274,1.41671 0.735,0.39374 9.921,2.35901 11.026,2.35901 0.165,0 0.444,-1.46611 0.62,-3.25803 0.504,-5.11489 1.345,-7.40723 3.176,-8.6568 1.025,-0.69911 1.955,-0.98152 2.597,-0.78847 4.27,1.28354 7.633,4.36336 10.085,9.23672 0.925,1.8396 2.045,3.48413 2.489,3.65452 0.85,0.32669 2.127,-0.4432 2.127,-1.28299 0,-0.27284 0.518,-1.59953 1.152,-2.94819 0.633,-1.34866 1.487,-3.26403 1.898,-4.25637 1.171,-2.83007 3.311,-1.98542 2.224,0.87749 -0.447,1.17745 -0.649,3.57302 -0.301,3.57302 0.453,0 3.215,-1.56181 3.458,-1.95501 0.153,-0.24787 0.698,-0.45067 1.211,-0.45067 1.379,0 1.205,2.19808 -0.333,4.2167 -1.405,1.84402 -1.058,2.49797 1.335,2.51185 1.763,0.0102 2.184,1.3491 0.612,1.94732 -0.674,0.25615 -1.46,0.46573 -1.748,0.46573 -0.288,0 -0.166,0.39594 0.271,0.87988 0.438,0.48393 0.796,1.25316 0.796,1.70939 0,0.7098 -0.447,0.81505 -3.096,0.72921 -2.857,-0.0926 -3.23,0.0171 -4.824,1.41799 -2.934,2.57898 -6.22,1.77972 -10.31,-2.50813 -1.263,-1.32391 -1.795,-1.60245 -2.283,-1.19639 -1.06,0.87999 -0.729,1.72004 1.131,2.8704 0.973,0.6017 2.974,2.096 4.446,3.32065 1.473,1.22466 3.327,2.63404 4.12,3.13196 5.117,3.21232 6.338,4.89839 7.016,9.69212 0.24,1.6939 0.878,4.39414 1.419,6.00053 0.989,2.93869 0.981,5.27925 -0.03,8.83482 -0.226,0.79388 -0.533,5.57155 -0.683,10.61706 -0.268,9.03797 -0.637,13.1853 -1.757,19.73667 -0.744,4.34706 -0.74,14.04328 0,18.00053 1.006,5.33242 3.318,9.79249 7.358,14.19354 1.228,1.33759 1.553,1.43799 4.421,1.36947 3.899,-0.0931 5.665,-1.35606 8.726,-6.2395 1.637,-2.61128 2.321,-4.32852 2.872,-7.21705 0.399,-2.08474 0.929,-4.54967 1.178,-5.47762 0.249,-0.92795 0.493,-2.81455 0.542,-4.19245 0.07,-2.06201 0.331,-2.73763 1.458,-3.81866 2.625,-2.5171 3.149,-0.13719 1.819,8.25488 -1.554,9.80247 -3.659,17.58116 -5.209,19.24548 -0.739,0.79388 -1.623,2.15146 -1.963,3.01685 -0.669,1.70011 -3.029,3.95964 -4.136,3.95964 -0.376,0 -0.684,0.19491 -0.684,0.43315 0,0.48346 -3.426,1.34265 -6.73,1.68793 -1.19,0.12432 -3.461,-0.0488 -5.047,-0.38461 z m 11.316,-3.19014 c 2.167,-1.09489 3.078,-1.89091 3.813,-3.33236 0.53,-1.04161 1.512,-2.7015 2.182,-3.68865 1.352,-1.99451 2.806,-6.46694 2.525,-7.76605 -0.125,-0.57678 -0.573,-0.0865 -1.432,1.56605 -2.891,5.56163 -6.946,9.38217 -9.959,9.38217 -1.559,0 -1.838,0.4064 -0.914,1.33141 0.427,0.42803 0.363,0.6376 -0.271,0.88118 -1.144,0.43915 -3.217,-0.58803 -3.519,-1.74304 -0.136,-0.52288 -0.541,-0.95069 -0.898,-0.95069 -0.38,0 -0.535,0.29951 -0.373,0.72171 0.152,0.39694 0.04,0.7217 -0.256,0.7217 -0.292,0 -0.532,-0.42024 -0.532,-0.93387 0,-1.11855 -0.466,-1.45787 -1.442,-1.05075 -1.243,0.51825 -1.116,1.92733 0.203,2.25873 0.66,0.16579 1.451,0.60497 1.759,0.97594 0.464,0.56003 0.223,0.6745 -1.422,0.6745 -1.09,0 -1.982,-0.18674 -1.982,-0.41498 0,-0.8148 -2.976,-4.16023 -3.911,-4.39639 -0.524,-0.13231 -0.886,-0.45708 -0.804,-0.7217 0.08,-0.26463 0.365,-0.41629 0.629,-0.33702 0.264,0.0793 -0.08,-0.35376 -0.772,-0.96228 -1.74,-1.53673 -3.453,-5.05611 -3.116,-6.4019 0.205,-0.81737 -0.03,-1.2959 -0.938,-1.89 -0.667,-0.43754 -1.084,-1.00418 -0.927,-1.25921 0.157,-0.25503 -0.03,-0.78299 -0.423,-1.17324 -0.408,-0.40852 -0.594,-1.14722 -0.439,-1.74114 0.175,-0.67049 0,-1.18707 -0.523,-1.47578 -1.041,-0.5828 -1.014,-1.35065 0.05,-1.38915 0.644,-0.0234 0.588,-0.13225 -0.241,-0.46564 -1.28,-0.51503 -1.33,-0.85883 -0.333,-2.28363 0.42,-0.59937 0.525,-1.06933 0.241,-1.06933 -0.28,0 -0.508,-0.32477 -0.508,-0.72171 0,-0.39694 -0.217,-0.7217 -0.481,-0.7217 -0.265,0 -0.481,-0.64954 -0.481,-1.44341 0,-0.79388 0.221,-1.44342 0.49,-1.44342 0.282,0 0.362,-0.50867 0.189,-1.19937 -0.241,-0.96005 -0.08,-1.28999 0.832,-1.65348 0.762,-0.30532 0.871,-0.4641 0.334,-0.48461 -0.694,-0.0265 -0.778,-0.59053 -0.641,-4.34157 0.09,-2.3711 0.317,-4.56946 0.512,-4.88524 0.44,-0.71202 1.242,-7.68717 1.409,-12.25862 0.07,-1.87676 0.372,-3.87505 0.675,-4.44064 0.302,-0.56559 0.413,-1.57413 0.246,-2.2412 -0.168,-0.66707 -0.04,-2.56694 0.293,-4.22195 0.557,-2.80463 0.528,-3.12338 -0.427,-4.69095 -0.623,-1.02327 -1.025,-2.48926 -1.026,-3.74378 0,-1.98107 -0.08,-2.09787 -2.138,-2.97833 -1.369,-0.58739 -2.409,-1.44497 -2.896,-2.38859 -0.738,-1.42842 -0.86,-1.47218 -4.109,-1.47218 -3.135,0 -3.434,-0.0948 -4.669,-1.483 -1.386,-1.5568 -1.731,-1.59338 -6.222,-0.66008 -1.823,0.37863 -4.964,-0.55192 -4.964,-1.47034 0,-0.97083 -1.556,-1.28517 -3.831,-0.77368 -1.735,0.39024 -2.129,0.32476 -2.806,-0.46628 -1.083,-1.26677 -2.087,-1.15936 -5.107,0.54639 -2.472,1.39658 -2.675,1.43354 -4.254,0.77352 -1.31,-0.54781 -2.129,-0.58513 -3.906,-0.17801 -1.979,0.45318 -2.513,0.38661 -4.447,-0.55356 -1.951,-0.94911 -2.647,-1.03216 -6.217,-0.74222 -3.844,0.31216 -4.093,0.27104 -5.677,-0.93812 -1.503,-1.14755 -1.923,-1.23671 -4.536,-0.96327 -2.434,0.25459 -3.138,0.14208 -4.54,-0.72524 -0.913,-0.56462 -2.5,-1.05219 -3.526,-1.0835 -3.487,-0.10639 -4.762,-0.59166 -4.636,-1.76517 0.09,-0.79878 -0.139,-1.06473 -0.9,-1.06473 -0.794,0 -0.898,0.14021 -0.479,0.64569 1.377,1.66097 -1.652,1.71757 -4.068,0.076 -1.094,-0.74305 -2.446,-1.20285 -3.537,-1.20285 -1.325,0 -2.103,-0.35178 -3.114,-1.40833 -0.828,-0.86567 -2.465,-1.74327 -4.247,-2.2776 -2.467,-0.73976 -2.997,-1.10343 -3.555,-2.44077 -0.495,-1.18561 -0.954,-1.57149 -1.869,-1.57149 -0.988,0 -1.393,-0.42173 -2.19,-2.2854 -0.538,-1.25697 -1.645,-2.93493 -2.461,-3.72881 -0.815,-0.79388 -1.874,-2.32292 -2.352,-3.39787 -0.479,-1.07495 -1.306,-2.34962 -1.839,-2.83259 -0.533,-0.48297 -1.104,-1.59196 -1.267,-2.46442 -0.168,-0.89762 -0.822,-1.96556 -1.505,-2.45991 -3.104,-2.24531 -3.167,-2.3391 -3.397,-5.12393 -0.201,-2.42338 -0.344,-2.72619 -1.288,-2.72619 -0.584,0 -1.205,-0.14246 -1.379,-0.31658 -0.563,-0.56398 0.721,-1.60797 1.978,-1.60797 0.672,0 1.078,-0.14481 0.901,-0.3218 -0.177,-0.177 0.06,-0.74977 0.521,-1.27284 0.818,-0.92401 0.805,-0.9441 -0.48,-0.70719 -1.59,0.29338 -1.758,-0.44044 -0.24,-1.05113 0.595,-0.23933 0.811,-0.44886 0.481,-0.46563 -0.331,-0.0168 -0.601,-0.27018 -0.601,-0.56312 0,-0.29986 0.351,-0.39787 0.803,-0.22427 0.442,0.16998 0.978,0.0311 1.194,-0.30937 0.687,-1.08356 0.441,-1.36581 -0.916,-1.0509 -1.273,0.29555 -1.286,0.27926 -0.36,-0.44222 l 0.961,-0.74908 -0.961,-0.73616 c -1.32,-1.01031 -1.619,-0.95235 -2.251,0.43609 -0.533,1.17189 -1.835,1.68382 -1.835,0.72171 0,-0.26463 0.243,-0.48114 0.54,-0.48114 0.38,0 0.367,-0.20719 -0.04,-0.70063 -0.319,-0.38535 -0.417,-0.96638 -0.216,-1.29119 0.261,-0.42234 0.468,-0.32555 0.728,0.33978 0.274,0.69794 0.373,0.7393 0.398,0.16557 0.04,-0.82562 2.438,-2.19486 2.438,-1.39004 0,0.25895 0.53,0.47082 1.177,0.47082 0.648,0 1.351,0.30394 1.563,0.67542 0.211,0.37148 0.925,0.77502 1.586,0.89675 l 1.202,0.22134 -1.294,0.0655 c -1.364,0.0691 -2.426,1.0278 -1.138,1.0278 0.412,0 0.749,0.34793 0.749,0.77318 0,0.4896 -0.264,0.6716 -0.721,0.49624 -0.397,-0.15232 -0.721,-0.0884 -0.721,0.14202 0,0.52815 2.663,1.47538 4.148,1.47538 0.84,0 1.186,0.33165 1.379,1.32312 0.141,0.72772 0.483,2.18918 0.758,3.24768 0.276,1.0585 0.621,2.46583 0.767,3.12739 0.146,0.66156 0.89,2.48236 1.654,4.04623 0.764,1.56386 1.39,3.1877 1.392,3.60852 0,1.03165 3.785,4.65396 5.284,5.06343 2.764,0.7551 4.731,1.88671 5.246,3.01946 0.542,1.18952 0.96,1.24513 3.004,0.39965 0.587,-0.24245 1.227,0.25094 2.404,1.85119 1.592,2.1653 1.626,2.18188 4.512,2.20051 1.6,0.0103 3.157,0.26813 3.462,0.57291 0.314,0.31409 3.072,0.69931 6.368,0.88926 3.296,0.18995 6.055,0.57517 6.369,0.88927 0.304,0.30478 0.949,0.55414 1.434,0.55414 0.484,0 1.004,0.32477 1.157,0.72171 0.547,1.42819 4.019,0.459 4.019,-1.12204 0,-0.25799 1.027,-0.58273 2.283,-0.72164 1.256,-0.13892 2.958,-0.3967 3.782,-0.57284 0.991,-0.21182 2.011,-0.055 3.012,0.46305 1.377,0.71278 1.737,0.71686 3.997,0.0453 3.072,-0.91331 4.441,-0.92957 5.81,-0.0691 0.586,0.36795 2.678,0.77524 4.649,0.9051 3.568,0.23512 3.591,0.24533 5.457,2.45839 1.815,2.15155 1.96,2.22229 4.551,2.22229 1.561,0 2.992,0.27212 3.435,0.65357 1.074,0.9249 3.742,1.75211 5.653,1.75211 0.894,0 2.402,0.32477 3.351,0.72171 0.95,0.39693 2.132,0.7217 2.629,0.7217 0.829,0 1.537,0.57656 3.205,2.61177 0.358,0.43691 1.373,0.7593 2.403,0.76356 2.057,0.008 2.464,0.23641 3.592,2.01267 0.454,0.71408 1.801,1.73034 2.994,2.25834 1.192,0.52801 2.173,1.24283 2.179,1.58849 0,0.34566 0.433,1.16976 0.95,1.83132 0.517,0.66156 0.945,1.54036 0.951,1.95287 0,0.41252 0.353,1.17031 0.771,1.68398 0.75,0.92083 0.756,0.92043 0.433,-0.0283 -0.18,-0.52925 -0.648,-2.78568 -1.04,-5.01428 -0.393,-2.2286 -1.074,-4.54056 -1.515,-5.13769 -0.441,-0.59712 -2.207,-2.01316 -3.926,-3.14675 -1.718,-1.13359 -3.557,-2.46955 -4.086,-2.96881 -1.842,-1.73893 -6.42,-5.14307 -6.917,-5.14307 -0.275,0 -1.211,-0.61223 -2.079,-1.3605 -2.084,-1.79526 -7.645,-3.79467 -13.616,-4.89561 -2.655,-0.48942 -5.359,-1.09982 -6.009,-1.35643 -3.487,-1.37629 -5.801,-1.76027 -9.834,-1.63157 -2.38,0.0759 -5.084,0.1615 -6.009,0.19015 -0.925,0.0286 -6.549,-0.12784 -12.498,-0.34773 -5.949,-0.2199 -13.411,-0.34322 -16.584,-0.27404 -6.741,0.14698 -9.668,-0.40399 -12.498,-2.35247 -1.13,-0.77815 -2.998,-1.55912 -4.152,-1.73548 -1.153,-0.17636 -2.367,-0.53412 -2.698,-0.79502 -0.404,-0.31896 -0.837,-0.27814 -1.322,0.12459 -0.575,0.47786 -0.867,0.47786 -1.442,0 -0.396,-0.32942 -0.722,-0.84309 -0.724,-1.14147 0,-0.29838 -0.293,-1.09918 -0.648,-1.77956 -0.355,-0.68039 -1.01,-3.60329 -1.456,-6.49535 -0.446,-2.89206 -1.057,-6.12434 -1.358,-7.18284 -0.622,-2.18918 -5.006,-9.96435 -6.866,-12.17676 -1.22,-1.45131 -1.258,-1.46089 -2.634,-0.67036 -1.341,0.7705 -1.441,0.75952 -2.546,-0.27968 -1.094,-1.0287 -1.188,-1.04007 -1.903,-0.23222 -0.414,0.4672 -0.834,1.28248 -0.934,1.81173 -0.145,0.77061 -0.562,0.96228 -2.093,0.96228 -1.791,0 -1.902,0.0813 -1.761,1.29268 0.147,1.25994 -1.263,3.27812 -2.291,3.27812 -0.429,0 -1.456,-2.92918 -1.462,-4.17071 0,-0.80554 3.022,-2.56521 4.41,-2.56521 0.747,0 1.562,-0.52351 2.236,-1.43659 0.584,-0.79013 1.598,-1.57139 2.254,-1.73614 0.656,-0.16475 1.183,-0.54671 1.172,-0.84881 -0.07,-1.83028 -8.133,-9.47171 -11.088,-10.50296 -1.102,-0.3843 -1.665,-0.321 -2.6,0.29211 -1.512,0.99183 -1.547,2.65381 -0.194,9.17552 0.55,2.64897 1.222,6.00712 1.494,7.46256 0.273,1.45543 0.797,3.60852 1.167,4.78464 1.064,3.38927 -0.77,4.04836 -2.651,0.95254 -0.764,-1.25782 -0.95,-1.3617 -1.102,-0.61758 -0.221,1.07505 0.865,3.03557 4.405,7.95542 2.774,3.8548 8.776,13.14393 9.085,14.06056 0.1,0.29138 0.471,1.17933 0.829,1.9732 0.358,0.79388 1.101,2.91636 1.651,4.71663 0.551,1.80027 1.307,3.39071 1.681,3.53429 0.374,0.14359 1.256,-0.19267 1.96,-0.74725 1.689,-1.32917 3.166,-1.27335 4.898,0.18501 1.146,0.96555 1.463,1.67531 1.659,3.71832 0.147,1.53036 -0.02,3.26367 -0.418,4.40023 -0.881,2.49743 -0.853,2.61987 0.523,2.35653 0.651,-0.12462 1.138,-0.44643 1.081,-0.71513 -0.252,-1.20096 0.958,-0.68374 1.936,0.82761 0.73,1.12718 1.321,1.57065 1.832,1.37446 0.456,-0.17525 1.291,0.2257 2.114,1.01514 0.861,0.82473 1.479,1.11326 1.683,0.78421 0.176,-0.28633 0.579,-0.51215 0.894,-0.50183 0.709,0.0232 3.697,4.02183 3.697,4.94758 0,0.7002 3.445,2.25071 5.002,2.25071 0.758,0 0.792,-0.11035 0.241,-0.77446 -0.401,-0.4845 -0.708,-0.57457 -0.82,-0.24057 -0.325,0.97586 -0.964,0.55757 -3.26,-2.13273 -1.792,-2.09896 -2.151,-2.79032 -1.687,-3.24768 0.463,-0.45554 0.844,-0.28852 1.762,0.77331 0.893,1.0315 1.424,1.2745 2.227,1.0194 0.838,-0.26639 1.389,0.0472 2.69,1.53247 0.9,1.02708 1.523,1.51491 1.383,1.08406 -0.471,-1.45748 0.712,-1.95666 1.928,-0.81338 0.61,0.57352 1.109,1.26536 1.109,1.53742 0,0.60963 2.913,3.66785 3.494,3.66785 0.232,0 -0.03,-0.57048 -0.575,-1.26773 -1.107,-1.40884 -1.323,-3.06953 -0.396,-3.04956 0.331,0.007 1.142,0.89485 1.803,1.97274 1.255,2.04669 3.68,4.11405 4.207,3.58658 0.168,-0.1685 -0.493,-0.96567 -1.47,-1.7715 -0.976,-0.80582 -1.776,-1.66589 -1.776,-1.91125 0,-1.11047 1.738,-0.23391 4.242,2.14019 1.501,1.42246 3.269,2.74585 3.93,2.94085 1.097,0.32352 1.044,0.19014 -0.601,-1.52402 -1.767,-1.84177 -2.285,-3.04085 -1.313,-3.04085 0.269,0 1.832,1.29907 3.474,2.88682 3.305,3.1975 4.522,3.77918 2.583,1.23495 -0.692,-0.90854 -1.259,-1.99109 -1.259,-2.40569 0,-1.2267 1.362,-0.86002 2.114,0.56932 0.806,1.53069 3.807,4.45052 4.575,4.45052 0.811,0 0.618,-0.72618 -0.451,-1.69427 -0.597,-0.54096 -0.801,-1.05327 -0.527,-1.32701 0.273,-0.27374 1.566,0.31626 3.35,1.52827 2.753,1.87121 4.399,2.46035 4.399,1.57431 0,-0.21991 -0.541,-0.68952 -1.202,-1.04358 -0.661,-0.35405 -1.202,-1.04018 -1.202,-1.52471 0,-1.1505 0.539,-1.11201 2.146,0.15344 1.019,0.80222 1.4,0.89491 1.697,0.41295 0.3,-0.48438 0.698,-0.39765 1.808,0.39316 l 1.423,1.01462 2.352,-1.15976 c 1.293,-0.63787 3.649,-1.41668 5.235,-1.73068 1.587,-0.314 4.259,-0.97579 5.94,-1.47065 4.371,-1.28753 6.497,-1.18174 8.507,0.42339 1.822,1.45514 2.096,2.89983 0.936,4.93165 -0.378,0.66157 -0.695,1.47349 -0.704,1.80427 -0.03,0.91603 2.426,0.72281 4.544,-0.3581 2.158,-1.10121 8.367,-2.88958 10.033,-2.88958 1.519,0 4.901,2.52137 5.853,4.36383 1.29,2.49743 2.54,10.37081 2.372,14.93417 -0.08,2.27821 -0.69,6.82495 -1.347,10.10388 -1.635,8.16996 -1.76,9.53115 -1.788,19.45202 l -0.02,8.67896 2.158,6.19769 c 2.187,6.28127 5.292,11.71541 7.837,13.71981 1.156,0.91009 4.756,2.13215 7.598,2.57941 2.892,0.45504 6.538,-0.17169 9.394,-1.6147 z M 17162.62,832.91679 c 0,-0.26462 0.203,-0.48113 0.452,-0.48113 0.249,0 0.586,0.21651 0.749,0.48113 0.164,0.26463 -0.04,0.48114 -0.452,0.48114 -0.412,0 -0.749,-0.21651 -0.749,-0.48114 z m 1.442,-2.88682 c 0,-0.26462 0.216,-0.48114 0.48,-0.48114 0.265,0 0.481,0.21652 0.481,0.48114 0,0.26463 -0.216,0.48114 -0.481,0.48114 -0.264,0 -0.48,-0.21651 -0.48,-0.48114 z m 6.556,-2.16512 c -0.169,-0.43962 0,-0.7217 0.429,-0.7217 0.388,0 0.706,0.32477 0.706,0.7217 0,0.39694 -0.193,0.72171 -0.429,0.72171 -0.237,0 -0.554,-0.32477 -0.706,-0.72171 z m -10.524,-0.36085 c -0.267,-0.79437 0.134,-2.2854 0.614,-2.2854 0.209,0 0.266,0.43302 0.128,0.96228 -0.146,0.5593 -0.01,0.96227 0.314,0.96227 0.311,0 0.431,0.21651 0.268,0.48114 -0.41,0.66379 -1.081,0.60283 -1.324,-0.12029 z m 8.534,-3.24767 c -0.163,-0.26463 -0.07,-0.48114 0.212,-0.48114 0.28,0 0.509,0.21651 0.509,0.48114 0,0.26462 -0.09,0.48113 -0.212,0.48113 -0.116,0 -0.345,-0.21651 -0.509,-0.48113 z m 129.067,135.68062 c 0,-0.26463 -0.229,-0.48114 -0.509,-0.48114 -0.28,0 -0.376,0.21651 -0.212,0.48114 0.163,0.26462 0.392,0.48113 0.509,0.48113 0.116,0 0.212,-0.21651 0.212,-0.48113 z m -9.394,-6.28803 c -0.153,-0.24634 -0.615,-0.44789 -1.029,-0.44789 -0.611,0 -0.64,0.13391 -0.157,0.71641 0.621,0.74852 1.667,0.51149 1.186,-0.26852 z m 1.703,-0.44789 c 0,-0.26463 -0.23,-0.48114 -0.51,-0.48114 -0.28,0 -0.375,0.21651 -0.212,0.48114 0.164,0.26463 0.393,0.48114 0.51,0.48114 0.116,0 0.212,-0.21651 0.212,-0.48114 z m -3.365,-1.17445 c 0,-0.11669 -0.217,-0.34598 -0.481,-0.50953 -0.264,-0.16355 -0.481,-0.0681 -0.481,0.21217 0,0.28025 0.217,0.50954 0.481,0.50954 0.264,0 0.481,-0.0955 0.481,-0.21218 z m -2.085,-3.7572 c -0.134,-0.33079 -0.243,-0.0601 -0.243,0.60142 0,0.66156 0.109,0.9322 0.243,0.60142 0.133,-0.33078 0.133,-0.87206 0,-1.20284 z m 2.442,-1.64171 c -0.662,-1.45407 -0.783,-1.27 -0.479,0.72818 0.157,1.03195 0.38,1.39432 0.619,1.00658 0.206,-0.33322 0.143,-1.11386 -0.14,-1.73476 z m -1.259,0.67141 c -0.475,-0.47164 -0.53,-0.41637 -0.269,0.26934 0.18,0.47451 0.449,0.74154 0.597,0.5934 0.148,-0.14813 0,-0.53637 -0.328,-0.86274 z m 28.276,-7.1864 c 1.104,-6.26608 1.204,-7.53519 0.542,-6.85478 -0.717,0.73576 -2.501,13.40117 -1.791,12.71118 0.144,-0.14051 0.706,-2.77589 1.249,-5.8564 z m -28.558,-0.0226 c -0.19,-1.38928 -0.45,-3.38976 -0.578,-4.4455 -0.127,-1.05573 -0.279,-1.96732 -0.337,-2.02574 -0.324,-0.32393 -2.2,0.53374 -2.42,1.10586 -0.351,0.91551 0.159,2.1177 0.899,2.1177 0.404,0 0.542,0.5553 0.418,1.68398 -0.142,1.28723 0,1.68398 0.568,1.68398 0.414,0 0.718,0.27064 0.675,0.60142 -0.154,1.18513 0.04,1.80427 0.579,1.80427 0.378,0 0.437,-0.76598 0.196,-2.52597 z m -0.527,-8.83769 c 0.164,-0.65459 0.178,-1.38475 0.03,-1.62258 -0.147,-0.23783 0.06,-2.01294 0.465,-3.94469 1.005,-4.82788 1.451,-9.99801 0.779,-9.05047 -0.281,0.39694 -0.514,1.1006 -0.518,1.5637 0,0.46309 -0.296,0.84199 -0.648,0.84199 -0.352,0 -0.869,0.74402 -1.147,1.65338 -0.404,1.31463 -0.371,1.70586 0.159,1.90945 0.373,0.14306 0.667,0.92242 0.667,1.76605 0,1.14454 -0.175,1.44296 -0.721,1.23304 -0.427,-0.16404 -0.721,-0.005 -0.721,0.38957 0,0.36658 0.27,0.77571 0.601,0.90919 0.359,0.14497 0.262,0.25797 -0.241,0.28066 -0.947,0.0428 -1.174,0.99617 -0.24,1.00763 0.466,0.006 0.462,0.0956 -0.02,0.40071 -0.853,0.54179 -0.252,4.43112 0.632,4.09145 0.342,-0.13141 0.756,-0.7745 0.921,-1.42908 z m -2.135,-9.11714 c 0,-0.57221 -0.169,-0.59167 -0.942,-0.10842 -0.648,0.40523 -0.768,0.69679 -0.384,0.93461 0.718,0.4437 1.326,0.0645 1.326,-0.82619 z m 0.481,-4.53832 c 0,-0.26463 -0.216,-0.48114 -0.481,-0.48114 -0.264,0 -0.481,0.21651 -0.481,0.48114 0,0.26462 0.217,0.48113 0.481,0.48113 0.265,0 0.481,-0.21651 0.481,-0.48113 z m -60.22,-4.12484 c 1.219,-0.68091 2.612,-1.13421 3.097,-1.00732 0.675,0.17652 0.882,-0.0412 0.882,-0.9271 0,-0.63679 0.254,-1.1578 0.564,-1.1578 0.311,0 0.07,-0.53166 -0.544,-1.18147 l -1.109,-1.18148 2.246,-2.50044 c 1.287,-1.43314 3.28,-4.62551 4.669,-7.47899 2.254,-4.63066 3.26,-5.7403 4.049,-4.46346 0.336,0.54417 3.678,0.18344 5.071,-0.54734 0.421,-0.2209 2.02,-0.53723 3.553,-0.70296 2.721,-0.29408 6.497,-2.10206 6.497,-3.11075 0,-0.25627 0.529,-0.59893 1.176,-0.76148 1.341,-0.33676 2.669,-2.10627 2.669,-3.55496 0,-1.14782 -1.066,-1.2906 -1.923,-0.2575 -0.329,0.39694 -0.799,0.72171 -1.045,0.72171 -0.246,0 -1.243,0.54128 -2.216,1.20284 -0.973,0.66157 -2.38,1.20284 -3.127,1.20284 -0.849,0 -1.239,0.19473 -1.039,0.51811 0.214,0.34707 -0.203,0.43562 -1.264,0.26824 -0.872,-0.13742 -1.814,-0.10565 -2.095,0.0706 -0.28,0.17626 -0.726,0.3296 -0.991,0.34076 -0.264,0.0112 -1.618,0.30972 -3.009,0.66347 -1.392,0.35374 -2.834,0.52639 -3.205,0.38365 -0.372,-0.14273 -0.787,0.0312 -0.924,0.38644 -0.136,0.35527 -0.94,0.79816 -1.786,0.98419 -0.993,0.21832 -1.327,0.46896 -0.942,0.70693 0.404,0.2502 0.431,0.4703 0.08,0.68482 -0.281,0.17386 -0.39,0.63395 -0.241,1.02242 0.317,0.82522 -0.579,0.96168 -1.072,0.16337 -0.229,-0.37085 -0.474,-0.29339 -0.775,0.24438 -0.242,0.43301 -0.308,1.0021 -0.145,1.26463 0.162,0.26253 0.09,0.47732 -0.161,0.47732 -0.251,0 -0.594,0.73604 -0.762,1.63564 -0.169,0.89959 -0.626,1.90041 -1.015,2.22403 -0.39,0.32361 -0.709,0.92182 -0.709,1.32935 0,1.29375 -2.771,5.12125 -4.42,6.10534 -1.259,0.75164 -1.409,0.98394 -0.724,1.12135 0.475,0.0953 1.184,-0.0919 1.574,-0.41612 0.39,-0.32418 0.814,-0.48503 0.941,-0.35743 0.389,0.38907 -1.37,2.11491 -2.893,2.8385 -0.79,0.37537 -1.512,1.11386 -1.605,1.64109 -0.09,0.52724 -0.637,1.3327 -1.208,1.78991 l -1.038,0.83129 1.349,0.0107 c 0.743,0.006 2.347,-0.54641 3.565,-1.22732 z m 63.104,-2.69839 c 0,-1.18823 -0.127,-1.36866 -0.654,-0.93082 -0.37,0.30791 -0.555,1.06025 -0.426,1.73728 0.308,1.60953 1.08,1.03271 1.08,-0.80646 z m 1.394,-11.58026 c 0.03,-0.72772 -0.143,-1.32313 -0.377,-1.32313 -0.584,0 -0.939,2.12676 -0.621,3.72881 l 0.262,1.32313 0.344,-1.20284 c 0.189,-0.66157 0.366,-1.79825 0.392,-2.52597 z m -2.836,1.08256 c 0,-0.26463 -0.229,-0.48114 -0.509,-0.48114 -0.28,0 -0.376,0.21651 -0.212,0.48114 0.163,0.26462 0.392,0.48113 0.509,0.48113 0.117,0 0.212,-0.21651 0.212,-0.48113 z m 1.202,-5.29251 c 0.163,-0.26463 -0.04,-0.48114 -0.453,-0.48114 -0.412,0 -0.749,0.21651 -0.749,0.48114 0,0.26462 0.203,0.48114 0.452,0.48114 0.249,0 0.586,-0.21652 0.75,-0.48114 z m 2.576,-5.65336 -0.07,-4.20995 -0.366,3.8491 c -0.337,3.54488 -0.272,4.5708 0.288,4.5708 0.117,0 0.182,-1.89448 0.145,-4.20995 z m -48.242,-2.04483 c 0.163,-0.26463 0.07,-0.48114 -0.212,-0.48114 -0.28,0 -0.509,0.21651 -0.509,0.48114 0,0.26462 0.1,0.48113 0.212,0.48113 0.116,0 0.345,-0.21651 0.509,-0.48113 z m 41.734,-4.27239 c -0.13,-0.49743 -0.921,-1.11072 -1.757,-1.36287 -0.837,-0.25214 -1.468,-0.71119 -1.402,-1.02012 0.07,-0.30892 -0.189,-0.56168 -0.568,-0.56168 -0.379,0 -0.811,-0.38468 -0.96,-0.85486 -0.215,-0.67839 -0.673,-0.81647 -2.219,-0.66888 -1.329,0.12678 -2.221,-0.0609 -2.805,-0.58959 -0.471,-0.42658 -1.001,-0.63077 -1.178,-0.45378 -0.177,0.17699 -0.321,0.0992 -0.321,-0.1728 0,-0.27203 -0.507,-0.39767 -1.126,-0.27918 -0.656,0.12545 -1.459,-0.11771 -1.923,-0.58223 -1.125,-1.12632 -0.992,-0.14497 0.183,1.35062 0.868,1.10456 1.375,1.26313 4.439,1.38801 3.306,0.13477 3.501,0.20888 4.428,1.68138 1.404,2.23261 5.694,3.98332 5.209,2.12598 z m 2.249,0.19782 c 0,-0.44704 -0.279,-0.59918 -0.761,-0.41418 -0.613,0.23545 -0.637,0.3717 -0.12,0.69924 0.853,0.5417 0.881,0.53273 0.881,-0.28506 z m -0.812,-2.62243 c -0.304,-1.16304 -2.506,-2.1007 -4.304,-1.83194 -1.168,0.17474 -1.104,0.2162 0.429,0.27752 0.992,0.0396 1.803,0.2886 1.803,0.55323 0,0.6339 1.593,2.29952 1.998,2.08831 0.173,-0.0906 0.207,-0.5798 0.07,-1.08712 z m -20.819,-3.85962 c 0,-0.24901 -0.25,-0.60723 -0.555,-0.79604 -0.344,-0.21271 -0.424,-0.13199 -0.212,0.21217 0.189,0.30551 0.114,0.55548 -0.166,0.55548 -0.28,0 -0.509,-0.86605 -0.509,-1.92455 0,-1.68633 -0.134,-1.91985 -1.082,-1.88657 -0.595,0.0209 -0.813,0.14655 -0.485,0.27924 0.785,0.31722 -0.438,1.60733 -1.523,1.60733 -1.038,0 -0.963,1.79969 0.09,2.07402 1.573,0.4116 4.446,0.33337 4.446,-0.12108 z m 3.605,-0.99067 c -0.163,-0.26462 -0.5,-0.48114 -0.749,-0.48114 -0.249,0 -0.453,0.21652 -0.453,0.48114 0,0.26463 0.338,0.48114 0.75,0.48114 0.412,0 0.616,-0.21651 0.452,-0.48114 z m -83.573,-2.41357 c -1.441,-1.7142 -1.633,-1.3503 -0.493,0.93693 0.53,1.06325 0.933,1.40153 1.269,1.06522 0.336,-0.3363 0.09,-0.9721 -0.776,-2.00215 z m 54.611,1.63012 c 0.992,-0.166 1.803,-0.52091 1.803,-0.7887 0,-0.26778 0.379,-0.78729 0.841,-1.15446 0.789,-0.62572 0.781,-0.65921 -0.12,-0.53418 -0.529,0.0734 -1.321,0.56642 -1.76,1.09567 -0.625,0.75279 -1.385,0.96228 -3.494,0.96228 -2.325,0 -2.578,0.0857 -1.845,0.62446 0.468,0.34345 1.283,0.50572 1.811,0.3606 0.529,-0.14513 1.773,-0.39968 2.764,-0.56567 z m 6.604,0.31586 c 0.506,-0.32008 0.129,-0.42941 -1.287,-0.37289 -1.102,0.044 -1.898,0.25109 -1.769,0.46023 0.321,0.51956 2.181,0.46639 3.056,-0.0873 z m 12.985,0.003 c 0,-0.86848 -1.796,-1.47799 -2.969,-1.00745 -1.108,0.44454 -1.106,0.44865 0.176,0.47889 0.712,0.0168 1.428,0.24701 1.591,0.51163 0.379,0.61435 1.202,0.62593 1.202,0.0169 z m -91.813,-0.9792 c 0,-0.26463 0.541,-0.48114 1.202,-0.48114 0.661,0 1.202,-0.16366 1.202,-0.36368 0,-0.20003 0.602,-0.63074 1.339,-0.95714 1.841,-0.81571 5.873,-6.97299 5.864,-8.95466 -0.01,-2.28295 -1.017,-3.91806 -2.411,-3.91806 -0.867,0 -1.187,0.25968 -1.187,0.96228 0,1.39758 -0.559,2.06293 -2.617,3.11377 -1.936,0.98816 -2.831,2.35526 -1.915,2.92219 0.757,0.46778 0.08,2.38393 -0.84,2.38393 -0.486,0 -0.637,0.26873 -0.44,0.78269 0.165,0.43048 0.05,1.08002 -0.247,1.44341 -0.427,0.51403 -0.375,0.66073 0.232,0.66073 1.08,0 0.976,0.82292 -0.182,1.44341 -1.006,0.53891 -1.307,1.44341 -0.481,1.44341 0.265,0 0.481,-0.21651 0.481,-0.48114 z m 60.373,-0.0743 c 0.21,-0.33918 0.132,-0.42507 -0.198,-0.22057 -0.298,0.1842 -1.058,-0.004 -1.689,-0.41771 -1.386,-0.90882 -3.057,-0.50727 -2.198,0.52824 0.668,0.80586 3.607,0.88501 4.085,0.11004 z m 46.341,-0.31484 c 0,-1.38889 -1.192,-2.69672 -2.129,-2.33663 -0.471,0.18068 -1.129,0.0149 -1.528,-0.38487 -0.517,-0.51719 -1.014,-0.58335 -1.887,-0.25109 -0.91,0.34628 -1.186,0.29473 -1.186,-0.22179 0,-0.56599 -0.229,-0.5585 -1.442,0.0471 -0.793,0.39604 -1.438,0.97485 -1.434,1.28625 0,0.34573 0.177,0.29722 0.444,-0.12459 0.337,-0.53428 0.589,-0.5637 1.112,-0.12986 0.572,0.47533 1.134,0.65448 3.243,1.03281 0.132,0.0237 -0.08,0.24467 -0.467,0.49101 -0.8,0.50633 -0.384,0.75326 1.909,1.13224 2.707,0.44745 3.365,0.34174 3.365,-0.54063 z m -110.559,-0.36092 c 0,-0.41256 -0.22,-0.61411 -0.489,-0.44789 -0.269,0.16621 -0.364,0.50376 -0.212,0.7501 0.412,0.66736 0.701,0.54292 0.701,-0.30221 z m 101.666,0.26896 c 0.164,-0.26462 0.07,-0.48113 -0.212,-0.48113 -0.28,0 -0.509,0.21651 -0.509,0.48113 0,0.26463 0.1,0.48114 0.212,0.48114 0.117,0 0.346,-0.21651 0.509,-0.48114 z m -81.958,-0.18165 c 0,-0.0999 -0.324,-0.45119 -0.721,-0.78062 -0.591,-0.49055 -0.721,-0.45768 -0.721,0.18166 0,0.42934 0.324,0.78061 0.721,0.78061 0.397,0 0.721,-0.0817 0.721,-0.18165 z m 54.798,-0.84943 c 0,-0.513 -1.058,-0.7381 -3.97,-0.84331 -2.896,-0.1046 -3.93,0.18244 -3.452,0.9575 0.31,0.50081 7.421,0.3914 7.422,-0.11419 z m 6.455,-0.47059 c -0.312,-0.50451 -1.166,-0.0995 -1.166,0.55269 0,0.24071 0.323,0.3135 0.718,0.16176 0.395,-0.15173 0.596,-0.47324 0.448,-0.71445 z m -21.516,-0.18231 c 0,-0.39693 -0.423,-0.7217 -0.94,-0.7217 -0.781,0 -0.839,0.12203 -0.341,0.7217 0.329,0.39694 0.752,0.72171 0.94,0.72171 0.188,0 0.341,-0.32477 0.341,-0.72171 z m 24.676,0.0284 c 0,-0.1167 -0.216,-0.34599 -0.481,-0.50953 -0.264,-0.16355 -0.48,-0.0681 -0.48,0.21217 0,0.28024 0.216,0.50953 0.48,0.50953 0.265,0 0.481,-0.0955 0.481,-0.21217 z m 4.134,-1.03878 c -0.171,-0.44623 -0.419,-0.70307 -0.551,-0.57076 -0.133,0.13232 -0.101,0.60567 0.07,1.05189 0.171,0.44623 0.419,0.70307 0.552,0.57076 0.132,-0.13232 0.1,-0.60567 -0.07,-1.05189 z m -87.775,0.28868 c 0,-0.26463 -0.1,-0.48114 -0.212,-0.48114 -0.116,0 -0.345,0.21651 -0.509,0.48114 -0.163,0.26462 -0.07,0.48114 0.212,0.48114 0.28,0 0.509,-0.21652 0.509,-0.48114 z m 17.207,-0.45926 c -0.663,-1.06301 -1.13,-0.93051 -0.697,0.19794 0.156,0.40835 0.509,0.74246 0.784,0.74246 0.317,0 0.285,-0.3452 -0.09,-0.9404 z m 35.539,0.64971 c -0.159,-0.15988 -0.574,-0.17697 -0.921,-0.038 -0.383,0.1536 -0.269,0.2676 0.291,0.29069 0.506,0.0209 0.79,-0.0928 0.63,-0.2527 z m 2.404,0 c -0.16,-0.15988 -0.574,-0.17697 -0.921,-0.038 -0.384,0.1536 -0.27,0.2676 0.29,0.29069 0.507,0.0209 0.791,-0.0928 0.631,-0.2527 z m 29.933,-0.19045 c 0,-0.26463 -0.229,-0.48114 -0.509,-0.48114 -0.28,0 -0.375,0.21651 -0.212,0.48114 0.163,0.26462 0.393,0.48114 0.509,0.48114 0.117,0 0.212,-0.21652 0.212,-0.48114 z m 10.68,-0.58519 c -0.698,-0.34208 -1.265,-0.37064 -1.557,-0.0784 -0.292,0.29226 0.108,0.48832 1.098,0.53814 1.465,0.0738 1.492,0.0468 0.459,-0.45975 z m -45.771,-0.37709 c 0.531,-0.34317 0.15,-0.48837 -1.442,-0.54956 -1.189,-0.0457 -2.484,-0.0646 -2.877,-0.0419 -0.393,0.0227 -0.879,-0.21386 -1.081,-0.52563 -0.27,-0.41639 -0.492,-0.37529 -0.835,0.15487 -0.388,0.59943 -0.04,0.76956 2.043,1.00414 1.38,0.15533 2.726,0.3144 2.991,0.35348 0.264,0.0391 0.805,-0.13882 1.201,-0.39535 z m 15.603,-0.0328 c -0.175,-0.28266 -0.648,-0.38718 -1.051,-0.23226 -0.403,0.15492 -1.033,0.0329 -1.399,-0.27111 -0.559,-0.46465 -0.53,-0.6515 0.181,-1.17194 0.781,-0.57197 0.754,-0.64197 -0.355,-0.91863 -0.661,-0.16471 -2.067,-0.11445 -3.124,0.1117 l -1.923,0.41117 2.043,0.33592 c 1.275,0.2096 2.043,0.59009 2.043,1.01184 0,0.80663 0.726,1.14791 2.552,1.19927 0.842,0.0237 1.231,-0.15537 1.033,-0.47596 z m 2.664,0.32949 c 0,-0.10145 -0.433,-0.29777 -0.962,-0.43627 -0.529,-0.1385 -0.841,-0.0555 -0.693,0.18445 0.259,0.41903 1.655,0.63147 1.655,0.25182 z m 13.579,-0.1342 c -0.33,-0.13347 -0.871,-0.13347 -1.201,0 -0.331,0.13348 -0.06,0.24268 0.601,0.24268 0.66,0 0.931,-0.1092 0.6,-0.24268 z m 16.705,-1.11069 c 0,-0.62594 -3.551,-1.75309 -5.889,-1.86939 -1.921,-0.0955 -2.282,0.0236 -2.276,0.75059 0,0.73544 0.08,0.75666 0.481,0.14246 0.318,-0.4855 0.591,-0.55275 0.834,-0.20548 0.554,0.79417 1.976,1.18361 2.315,0.63426 0.191,-0.30863 0.621,-0.20384 1.157,0.28165 0.47,0.42522 1.151,0.70996 1.515,0.63277 0.363,-0.0772 0.594,0.16693 0.513,0.5425 -0.121,0.56462 -0.02,0.57525 0.601,0.0614 0.412,-0.34183 0.749,-0.77866 0.749,-0.97074 z m -45.426,0.46707 c -0.163,-0.26463 -0.513,-0.48114 -0.778,-0.48114 -0.264,0 -0.347,0.21651 -0.183,0.48114 0.163,0.26462 0.513,0.48113 0.777,0.48113 0.265,0 0.347,-0.21651 0.184,-0.48113 z m 20.135,-0.56949 c 0.49,0.79479 1.096,0.71072 1.096,-0.15222 0,-0.51431 -0.495,-0.71079 -1.723,-0.68372 -0.947,0.0209 -1.452,0.14719 -1.122,0.28066 0.331,0.13348 0.617,0.60354 0.635,1.04458 0.03,0.65065 0.103,0.62642 0.398,-0.12844 0.25,-0.63956 0.474,-0.75234 0.716,-0.36086 z m -34.796,0.0883 c 0,-0.26462 -0.229,-0.48114 -0.509,-0.48114 -0.28,0 -0.376,0.21652 -0.212,0.48114 0.163,0.26463 0.392,0.48114 0.509,0.48114 0.116,0 0.212,-0.21651 0.212,-0.48114 z m 31.485,-0.48114 c 0.352,-0.56908 -0.119,-0.56908 -1.442,0 -0.927,0.39867 -0.923,0.41472 0.09,0.44732 0.579,0.0186 1.187,-0.18269 1.35,-0.44732 z m 6.629,-0.96227 c -0.193,-0.73845 -0.01,-0.96227 0.766,-0.96227 2.155,0 0.89,-0.72553 -1.386,-0.79435 -1.321,-0.04 -2.281,0.12236 -2.134,0.36085 0.147,0.23842 0.711,0.4335 1.252,0.4335 0.647,0 0.896,0.23121 0.726,0.67466 -0.264,0.68999 0.04,1.24988 0.672,1.24988 0.195,0 0.242,-0.43302 0.104,-0.96227 z m 4.187,0.77318 c 0,-0.104 -0.325,-0.31372 -0.721,-0.46603 -0.397,-0.15232 -0.721,-0.0672 -0.721,0.18909 0,0.25632 0.324,0.46603 0.721,0.46603 0.396,0 0.721,-0.0851 0.721,-0.18909 z m -31.984,-1.56729 c -0.48,-0.35165 -0.997,-0.5037 -1.149,-0.33789 -0.151,0.16581 0,0.39857 0.328,0.51726 0.333,0.11868 0.484,0.41133 0.336,0.65032 -0.148,0.239 0.1,0.29394 0.545,0.1221 0.752,-0.28882 0.748,-0.36078 -0.06,-0.95179 z m 4.725,-1.28237 c -1.02,-0.61691 -2.685,-0.17342 -2.818,0.75073 -0.08,0.58274 0.343,0.96177 1.398,1.23972 1.31,0.34511 1.558,0.26246 1.795,-0.59879 0.161,-0.58478 0,-1.16194 -0.375,-1.39166 z m 29.986,0.883 c -0.09,-0.25947 -0.836,-0.52683 -1.665,-0.59413 -1.034,-0.0839 -1.436,0.0642 -1.279,0.47177 0.267,0.6974 3.176,0.81828 2.944,0.12236 z m 3.522,0.18616 c 0,-0.2894 -0.433,-0.63942 -0.962,-0.77782 -0.528,-0.1384 -0.961,-0.4429 -0.961,-0.67666 0,-0.23376 -0.474,-0.42502 -1.053,-0.42502 -1.029,0 -1.032,0.0161 -0.12,0.7064 0.513,0.38852 1.365,0.73891 1.894,0.77863 0.662,0.0497 0.512,0.18678 -0.481,0.43952 l -1.442,0.36728 1.563,0.0569 c 0.859,0.0313 1.562,-0.17986 1.562,-0.46926 z m -93.255,-0.62518 c 0,-0.104 -0.335,-0.31804 -0.746,-0.47563 -0.428,-0.16431 -0.62,-0.0836 -0.452,0.18909 0.282,0.45718 1.198,0.67622 1.198,0.28654 z m 40.158,-0.74117 c -0.174,-0.28224 -0.547,-0.51315 -0.828,-0.51315 -0.319,0 -0.282,0.27607 0.1,0.73333 0.659,0.79513 1.248,0.61769 0.731,-0.22018 z m 22.573,0.44912 c 0.163,-0.26462 -0.148,-0.48113 -0.693,-0.48113 -0.544,0 -0.99,0.21651 -0.99,0.48113 0,0.26463 0.312,0.48114 0.693,0.48114 0.381,0 0.826,-0.21651 0.99,-0.48114 z m 8.412,-0.29668 c 0,-0.10145 -0.554,-0.18445 -1.23,-0.18445 -0.677,0 -1.109,0.19618 -0.961,0.43596 0.246,0.39885 2.191,0.17561 2.191,-0.25151 z m -6.249,-0.18445 c 0,-0.26463 -0.216,-0.48114 -0.481,-0.48114 -0.264,0 -0.48,0.21651 -0.48,0.48114 0,0.26462 0.216,0.48113 0.48,0.48113 0.265,0 0.481,-0.21651 0.481,-0.48113 z m 28.616,-0.45698 c -0.177,-0.28655 -0.546,-0.38214 -0.82,-0.21244 -0.323,0.19979 -0.274,0.44775 0.139,0.7034 0.772,0.47719 1.123,0.22406 0.681,-0.49096 z m -50.956,-1.37465 c -0.148,-0.14814 -0.535,-3.1e-4 -0.862,0.32851 -0.471,0.47518 -0.416,0.53044 0.27,0.26934 0.474,-0.18068 0.74,-0.44972 0.592,-0.59785 z m 16.091,0.65718 c 0,-0.1167 -0.216,-0.34599 -0.481,-0.50953 -0.264,-0.16355 -0.48,-0.0681 -0.48,0.21217 0,0.28024 0.216,0.50953 0.48,0.50953 0.265,0 0.481,-0.0955 0.481,-0.21217 z m 23.904,-0.0785 c -0.159,-0.15987 -0.574,-0.17697 -0.921,-0.038 -0.383,0.15359 -0.269,0.2676 0.291,0.29069 0.506,0.0209 0.79,-0.0928 0.63,-0.25271 z m 9.86,-0.35967 c 0.29,0.1798 0.375,0.0927 0.194,-0.20056 -0.443,-0.7162 -3.193,-1.26634 -3.716,-0.74312 -0.25,0.24971 0,0.4601 0.6,0.50531 0.565,0.0426 1.262,0.31311 1.55,0.60114 0.357,0.35688 0.577,0.36373 0.691,0.0215 0.09,-0.2762 0.398,-0.35912 0.681,-0.18427 z m -35.567,-0.14942 c -0.33,-0.13348 -0.871,-0.13348 -1.201,0 -0.331,0.13347 -0.06,0.24268 0.6,0.24268 0.661,0 0.932,-0.10921 0.601,-0.24268 z m 17.663,-0.34292 c 0,-0.23155 0.652,-0.29109 1.445,-0.13231 2.161,0.43263 1.736,-0.4063 -0.672,-1.32686 -1.862,-0.71166 -2.417,-0.73121 -4.654,-0.16393 -1.397,0.35426 -2.638,0.93949 -2.759,1.30049 -0.14,0.42204 0.03,0.55901 0.492,0.38365 0.39,-0.14999 1.015,-0.0807 1.387,0.15407 0.847,0.533 4.758,0.35626 4.761,-0.21511 z m -1.439,-1.26298 c 0,-0.26463 0.216,-0.48114 0.48,-0.48114 0.265,0 0.481,0.21651 0.481,0.48114 0,0.26462 -0.216,0.48113 -0.481,0.48113 -0.264,0 -0.48,-0.21651 -0.48,-0.48113 z m -41.34,0.64151 c 0,-0.44104 -0.142,-0.65943 -0.316,-0.48531 -0.174,0.17412 -0.553,0.13556 -0.841,-0.0857 -0.289,-0.22125 -0.893,-0.53311 -1.342,-0.69303 -1.197,-0.42594 -0.602,0.76663 0.706,1.41559 1.545,0.7668 1.793,0.74582 1.793,-0.15156 z m 53.837,-0.26373 c 0,-1.12669 -3.894,-1.7596 -5.287,-0.85892 -0.727,0.47044 -0.652,0.51107 1.337,0.71815 0.603,0.0628 1.211,0.22801 1.35,0.36712 0.37,0.37086 2.6,0.17679 2.6,-0.22635 z m -38.796,-0.85892 c -0.16,-0.60994 -0.627,-0.94184 -1.277,-0.90646 -0.812,0.0442 -0.851,0.10153 -0.184,0.27585 0.462,0.12101 0.841,0.52892 0.841,0.90646 0,0.37753 0.196,0.68642 0.436,0.68642 0.239,0 0.322,-0.43302 0.184,-0.96227 z m 7.499,0.30403 c 0.454,-0.54695 0.216,-0.59796 -1.402,-0.30168 -2.556,0.46776 -2.99,0.95992 -0.847,0.95992 0.937,0 1.949,-0.29621 2.249,-0.65824 z m 74.123,-1.35742 c 1.099,-1.31495 1.443,-1.45105 2.949,-1.16827 1.669,0.31337 1.702,0.28905 1.588,-1.16212 -0.06,-0.8152 -0.364,-1.72971 -0.666,-2.03225 -0.835,-0.83608 -0.663,-1.66727 0.519,-2.49545 1.562,-1.09552 0,-0.95461 -1.84,0.1654 -0.912,0.55691 -1.599,1.44417 -1.766,2.2836 -0.201,1.00228 -0.576,1.39455 -1.392,1.45335 -0.615,0.0443 -1.692,0.22787 -2.393,0.40794 -1.399,0.35924 -2.063,-0.16922 -3.939,-3.13473 -1.228,-1.9395 -3.47,-2.59891 -3.777,-1.11059 -0.357,1.7331 0.265,3.16037 2.206,5.06002 4.209,4.11977 6.179,4.521 8.511,1.7331 z m -133.676,0.0911 c 0,-0.26463 -0.271,-0.48283 -0.601,-0.4849 -0.331,-0.002 -0.871,-0.5865 -1.202,-1.29876 -0.884,-1.90583 -0.733,-2.36468 0.364,-1.09965 1.193,1.37743 1.415,1.16719 0.876,-0.8299 -0.391,-1.44835 -0.503,-1.51592 -1.73,-1.04874 -0.722,0.27465 -1.421,0.53827 -1.553,0.58582 -0.132,0.0476 -0.177,0.27594 -0.1,0.50753 0.08,0.23159 -0.214,0.81336 -0.648,1.29281 -0.988,1.09226 -0.596,1.75483 1.373,2.32477 2.099,0.60769 3.221,0.62546 3.221,0.051 z m 31.42,-2.16236 c -0.152,-0.39542 -0.47,-0.59915 -0.706,-0.45274 -0.237,0.14641 -0.431,-0.10743 -0.431,-0.56409 0,-0.45666 -0.128,-0.70226 -0.284,-0.54579 -0.488,0.489 0.315,2.28156 1.023,2.28156 0.4,0 0.561,-0.2919 0.398,-0.71894 z m 88.056,-0.55854 c -0.208,-0.83038 -0.1,-1.41718 0.309,-1.67661 0.424,-0.2695 0.212,-0.40152 -0.653,-0.4065 -0.705,-0.004 -1.371,0.25869 -1.479,0.58387 -0.147,0.4411 -0.494,0.39623 -1.368,-0.17669 -0.965,-0.63258 -1.275,-0.65647 -1.761,-0.13554 -0.583,0.62409 0.09,1.594 0.692,0.99413 0.146,-0.14664 1.047,0.2647 2.002,0.9141 2.214,1.50547 2.655,1.48655 2.258,-0.0968 z m -80.933,-0.27017 c -0.345,-0.34525 -0.569,-0.37366 -0.569,-0.0722 0,0.27344 0.145,0.64151 0.321,0.81793 0.176,0.17642 0.432,0.20889 0.569,0.0722 0.136,-0.13672 0,-0.50479 -0.321,-0.81793 z m 4.238,-0.61746 c 0,-0.39694 -0.209,-0.72171 -0.465,-0.72171 -0.256,0 -0.341,0.32477 -0.189,0.72171 0.152,0.39694 0.362,0.7217 0.465,0.7217 0.104,0 0.189,-0.32476 0.189,-0.7217 z m -5.91,-2.04483 c -0.218,-1.6489 -2.261,-2.24829 -2.261,-0.66328 0,0.53203 0.213,1.09962 0.475,1.26129 0.272,0.16856 0.353,-0.0246 0.189,-0.45274 -0.161,-0.41932 -0.03,-0.74669 0.291,-0.74669 0.317,0 0.69,0.43302 0.828,0.96227 0.368,1.40962 0.681,1.17372 0.478,-0.36085 z m 77.602,-1.15683 c 1.129,-1.61447 1.12,-1.81949 -0.07,-1.50855 -0.529,0.1384 -0.965,0.60528 -0.968,1.03751 0,0.43223 -0.114,1.32716 -0.246,1.98872 -0.131,0.66156 -0.1,0.87807 0.08,0.48114 0.173,-0.39694 0.716,-1.29641 1.207,-1.99882 z m -85.854,-0.21262 c -1.048,-0.76708 -0.579,-1.63145 0.703,-1.29581 1.046,0.27355 1.21,-0.174 0.481,-1.30412 -0.415,-0.64152 -0.471,-0.64152 -0.504,0 -0.02,0.39693 -0.274,0.18042 -0.563,-0.48114 -0.289,-0.66156 -0.492,-1.36523 -0.451,-1.5637 0.04,-0.19846 -0.327,-0.36085 -0.819,-0.36085 -0.678,0 -0.843,-0.27177 -0.68,-1.12265 0.151,-0.79411 0,-1.12265 -0.548,-1.12265 -0.906,0 -1.014,0.62923 -0.161,0.94222 0.451,0.16554 0.465,0.36623 0.05,0.80486 -0.872,0.93032 -3.19,-1.31312 -2.832,-2.74095 0.186,-0.73965 0.08,-1.05741 -0.335,-0.97411 -0.336,0.068 -0.581,-0.25528 -0.544,-0.71837 0.04,-0.4631 -0.211,-0.84199 -0.55,-0.84199 -0.908,0 -1.273,-1.36845 -0.667,-2.50173 0.405,-0.75778 0.376,-1.08494 -0.122,-1.40119 -0.477,-0.30241 -0.37,-0.41455 0.402,-0.41995 0.58,-0.004 1.196,-0.23828 1.37,-0.52051 0.394,-0.63788 0.296,-0.7191 -1.341,-1.11232 -1.001,-0.24039 -1.322,-0.14005 -1.322,0.41346 0,0.40198 -0.302,0.73087 -0.67,0.73087 -0.368,0 -0.799,0.33892 -0.958,0.75317 -0.222,0.57817 -0.07,0.68243 0.669,0.44871 1.115,-0.3542 1.337,0.60759 0.238,1.02981 -1.008,0.38711 -0.898,1.01514 0.24,1.37684 0.529,0.16797 0.961,0.72384 0.961,1.23526 0,0.51142 0.207,0.92985 0.459,0.92985 0.252,0 0.665,0.75173 0.918,1.6705 0.254,0.91877 1.015,2.16371 1.693,2.76653 0.677,0.60283 1.336,1.74558 1.464,2.53946 0.258,1.60286 3.719,5.04896 4.056,4.03826 0.107,-0.32252 -0.181,-0.86151 -0.64,-1.19776 z m -2.147,-3.44192 c 0.03,-1.17246 0.08,-1.21355 0.446,-0.36086 0.565,1.31417 0.565,1.68398 0,1.68398 -0.264,0 -0.465,-0.5954 -0.446,-1.32312 z m 7.65,3.84909 c -0.02,-0.85535 -0.84,-1.65716 -1.163,-1.13392 -0.181,0.29287 -0.195,0.74901 -0.03,1.01364 0.347,0.56121 1.205,0.64767 1.195,0.12028 z m 8.975,-5.63353 c -0.606,-1.28984 -3.76,-2.97081 -4.6,-2.45134 -0.716,0.44281 -0.662,1.35554 0.07,1.1128 0.323,-0.10783 1.459,0.40856 2.524,1.14754 2.394,1.66181 2.716,1.69235 2.011,0.191 z m 76.604,-0.25481 c -0.376,-0.23278 -0.896,-0.29191 -1.155,-0.13141 -0.26,0.1605 -0.05,0.4438 0.457,0.62956 1.15,0.41764 1.628,0.0766 0.698,-0.49815 z m -92.888,-3.25326 c -0.102,-0.19847 -0.556,-1.17277 -1.008,-2.16512 -0.452,-0.99234 -1.02,-1.80426 -1.261,-1.80426 -0.242,0 -0.53,-0.37889 -0.64,-0.84199 -0.185,-0.77412 -0.233,-0.76851 -0.594,0.0696 -0.281,0.65154 -0.139,1.09758 0.498,1.56369 0.49,0.35867 0.687,0.66735 0.438,0.68595 -0.248,0.0186 -0.02,0.21989 0.509,0.44732 0.822,0.35359 0.84,0.4184 0.121,0.44732 -0.51,0.0205 -0.842,0.41328 -0.842,0.99609 0,0.75421 0.321,0.96227 1.482,0.96227 0.816,0 1.399,-0.16238 1.297,-0.36085 z m -1.577,-0.60142 c 0.163,-0.26463 0.393,-0.48114 0.509,-0.48114 0.117,0 0.212,0.21651 0.212,0.48114 0,0.26462 -0.229,0.48114 -0.509,0.48114 -0.28,0 -0.375,-0.21652 -0.212,-0.48114 z m 19.958,-0.95669 c -0.376,-0.23277 -0.897,-0.29191 -1.156,-0.13141 -0.259,0.1605 -0.05,0.44381 0.458,0.62956 1.149,0.41764 1.627,0.0766 0.698,-0.49815 z m 4.317,-2.89241 c 0,-0.26462 -0.229,-0.48113 -0.509,-0.48113 -0.28,0 -0.375,0.21651 -0.212,0.48113 0.163,0.26463 0.393,0.48114 0.509,0.48114 0.117,0 0.212,-0.21651 0.212,-0.48114 z m -31.873,-1.7951 c -0.122,-0.46813 -0.23,-0.20161 -0.24,0.59226 0,0.79388 0.09,1.17689 0.222,0.85115 0.132,-0.32575 0.14,-0.97528 0.02,-1.44341 z m 0.147,-2.48365 c 0,-0.76557 -0.285,-1.50155 -0.634,-1.63551 -0.508,-0.19521 -0.532,0.0812 -0.123,1.39193 0.625,1.99728 0.757,2.03986 0.757,0.24358 z m 3.112,-0.89347 c -0.196,-0.46309 -0.34,-1.22088 -0.322,-1.68398 0.02,-0.46309 -0.261,-0.84199 -0.623,-0.84199 -0.513,0 -0.559,0.34295 -0.21,1.56052 0.246,0.85829 0.447,1.61608 0.447,1.68398 0,0.0679 0.239,0.12346 0.532,0.12346 0.322,0 0.391,-0.3326 0.176,-0.84199 z m 1.052,-1.20284 c -0.133,-0.33078 -0.242,-0.0601 -0.242,0.60142 0,0.66156 0.109,0.9322 0.242,0.60142 0.134,-0.33078 0.134,-0.87206 0,-1.20284 z m 29.485,0.54463 c 0,-0.26463 -0.216,-0.34733 -0.481,-0.18378 -0.264,0.16355 -0.481,0.51387 -0.481,0.7785 0,0.26462 0.217,0.34732 0.481,0.18378 0.265,-0.16355 0.481,-0.51387 0.481,-0.7785 z m 1.065,-2.7122 c 0.382,-1.47379 2.378,-3.48579 3.459,-3.48579 0.303,0 0.938,-0.45328 1.412,-1.00729 0.798,-0.9337 0.804,-1.07074 0.08,-1.87588 -0.732,-0.80974 -0.71,-0.92153 0.327,-1.64986 l 1.112,-0.78126 -1.484,0.29585 c -1.074,0.21414 -1.721,0.0585 -2.342,-0.5633 -0.804,-0.8046 -0.896,-0.80742 -1.453,-0.0444 -0.328,0.44812 -0.95,0.81476 -1.384,0.81476 -0.752,0 -0.871,0.18931 -0.98,1.5637 -0.03,0.33078 -0.331,0.89997 -0.677,1.26488 -0.346,0.3649 -0.479,1.01443 -0.295,1.44341 0.32,0.74994 0.357,2.21549 0.09,3.52498 -0.07,0.34261 0.121,0.5762 0.425,0.51909 0.337,-0.0634 0.449,0.2892 0.287,0.90641 -0.185,0.71082 -0.07,0.94579 0.388,0.79281 0.358,-0.11958 0.827,-0.89274 1.04,-1.71812 z m -30.387,-0.3584 c -0.404,-0.48679 -0.799,-0.59559 -1.094,-0.3009 -0.294,0.29468 -0.223,0.72243 0.196,1.183 0.88,0.96631 1.734,0.12694 0.898,-0.8821 z m -21.327,-10.7053 c -0.138,-0.72772 -0.38,-1.98482 -0.536,-2.79357 -0.179,-0.92367 -0.797,-1.77347 -1.663,-2.2854 -1.732,-1.02398 -1.951,-1.01882 -1.951,0.046 0,0.75053 3.718,6.35613 4.216,6.35613 0.103,0 0.07,-0.59541 -0.07,-1.32313 z"
       id="path1" /></g></svg>
