<?xml version="1.0" encoding="UTF-8" standalone="no"?>
<!-- Created with Inkscape (http://www.inkscape.org/) -->

<svg
   width="231.38646"
   height="235.24007"
   viewBox="0 0 61.221 62.240601"
   version="1.1"
   id="svg1"
   xml:space="preserve"
   xmlns="http://www.w3.org/2000/svg"
   xmlns:svg="http://www.w3.org/2000/svg"><defs
     id="defs1" /><g
     id="g1907"
     transform="matrix(0.26458333,0,0,0.26458333,-4658.2946,-202.26866)"><path
       style="fill:#000000"
       d="m 17676.66,966.24427 c -0.163,-0.26445 0.05,-0.48082 0.481,-0.48082 0.428,0 0.644,0.21637 0.481,0.48082 -0.164,0.26446 -0.38,0.48083 -0.481,0.48083 -0.101,0 -0.317,-0.21637 -0.481,-0.48083 z m 86.203,-15.62954 c -0.115,-0.11514 -3.61,-0.25462 -7.767,-0.30996 -5.926,-0.0789 -7.683,-0.25128 -8.137,-0.79818 -0.468,-0.56398 -0.364,-0.84666 0.542,-1.47622 3.058,-2.12495 5.755,-5.05428 9.103,-9.88593 2.024,-2.92212 4.552,-6.39582 5.618,-7.71933 3.901,-4.84617 4.285,-5.97601 2.716,-7.99122 -0.492,-0.63068 -1.184,-1.95809 -1.539,-2.94979 -0.355,-0.9917 -0.794,-1.80309 -0.975,-1.80309 -0.18,0 -0.686,-1.09275 -1.122,-2.42833 -0.681,-2.08186 -3.01,-7.49245 -3.492,-8.11299 -0.09,-0.11198 -5.642,-0.28376 -12.344,-0.38173 l -12.187,-0.17813 -0.979,2.30502 c -0.539,1.26777 -1.352,3.92781 -1.807,5.91121 -0.455,1.9834 -1.235,5.31279 -1.733,7.39863 -1.048,4.39159 -1.146,8.91146 -0.319,14.63895 l 0.587,4.05657 -1.65,1.37766 c -0.907,0.75771 -1.921,1.37766 -2.252,1.37766 -0.331,0 -1.313,0.62026 -2.181,1.37836 -1.28,1.117 -2.217,1.44438 -4.944,1.7265 -1.851,0.19147 -4.045,0.66664 -4.876,1.05593 -0.83,0.3893 -2.436,0.64014 -3.567,0.55742 -1.841,-0.13459 -2.075,-0.29052 -2.233,-1.48511 -0.184,-1.39238 1.545,-3.8233 5.93,-8.33882 1.478,-1.52244 2.063,-2.57474 2.296,-4.13148 0.44,-2.9302 -0.625,-10.07897 -2.348,-15.76567 -1.06,-3.50207 -1.492,-8.56664 -0.789,-9.26958 0.812,-0.81182 1.408,0.0849 1.642,2.4682 0.113,1.15163 0.476,2.26138 0.807,2.46612 0.425,0.2622 0.442,0.42588 0.06,0.55363 -0.393,0.13099 -0.352,0.84841 0.147,2.58253 1.634,5.67126 2.789,13.43977 2.502,16.82589 -0.261,3.09088 -0.424,3.48883 -1.986,4.87247 -1.653,1.46408 -1.67,1.51427 -0.604,1.77428 2.532,0.61755 9.752,0.49316 10.831,-0.1866 1.112,-0.70039 1.465,-2.56028 0.588,-3.10213 -0.271,-0.1677 -0.441,-0.77549 -0.379,-1.35064 0.06,-0.57515 -0.05,-2.66851 -0.256,-4.65191 -0.267,-2.58909 -0.171,-4.55547 0.339,-6.97196 1.327,-6.29067 3.072,-12.97467 4.049,-15.50672 0.613,-1.58668 0.796,-2.63517 0.493,-2.82246 -0.265,-0.1639 -3.111,-0.49249 -6.323,-0.73021 -3.213,-0.23772 -6.232,-0.55479 -6.71,-0.7046 -1.44,-0.45145 -0.751,-1.85518 0.993,-2.02377 0.86,-0.0832 1.558,-0.42424 1.558,-0.76131 0,-0.33585 0.27,-0.63751 0.601,-0.67035 0.33,-0.0328 1.29,-0.13445 2.133,-0.22581 0.842,-0.0913 1.425,0.008 1.293,0.21999 -0.131,0.21235 0.447,0.38608 1.284,0.38608 1.107,0 1.451,0.18338 1.263,0.67386 -0.154,0.40067 0.118,0.77228 0.67,0.91664 0.51,0.13352 0.928,0.0467 0.928,-0.19304 0,-0.23969 -0.217,-0.43581 -0.481,-0.43581 -0.914,0 -0.477,-0.89805 0.601,-1.23446 0.595,-0.18569 1.24,-0.57892 1.435,-0.87385 0.22,-0.33498 0.356,-0.22043 0.36,0.30522 0,0.4628 -0.209,0.84144 -0.473,0.84144 -0.264,0 -0.481,0.21638 -0.481,0.48083 0,0.879 1.048,0.4964 1.302,-0.47542 0.137,-0.52593 0.441,-0.83772 0.676,-0.69286 0.782,0.48358 0.438,1.58042 -0.599,1.90968 -0.805,0.2556 -0.883,0.41564 -0.361,0.74627 0.973,0.61649 3.018,0.52662 3.764,-0.1654 0.368,-0.34225 0.516,-0.36746 0.344,-0.0585 -0.366,0.65497 1.753,1.1404 4.978,1.1404 1.738,0 2.37,-0.20333 2.618,-0.84144 0.307,-0.7932 0.361,-0.79418 0.933,-0.017 0.629,0.85474 0.651,0.85589 19.273,1.04109 2.38,0.0237 4.759,-0.14486 5.288,-0.3745 0.529,-0.22964 2.724,-0.47014 4.877,-0.53445 2.154,-0.0643 4.116,-0.24067 4.361,-0.3919 0.245,-0.15124 0.794,0.1332 1.221,0.63209 0.55,0.64214 0.61,0.96551 0.206,1.10718 -0.395,0.13854 -0.311,0.4923 0.271,1.14966 0.463,0.52226 0.841,1.14889 0.842,1.39252 0,0.24363 0.774,1.30845 1.719,2.36626 0.946,1.05781 1.915,2.24786 2.154,2.64454 0.315,0.52215 0.537,0.56733 0.806,0.16368 0.412,-0.61913 3.011,-0.63057 3.011,-0.0132 0,0.21496 -0.466,0.32314 -1.036,0.24041 -0.571,-0.0827 -1.115,0.0767 -1.21,0.35429 -0.245,0.71515 2.61,2.7162 3.988,2.79506 0.692,0.0396 1.063,0.30044 0.928,0.6531 -0.124,0.32292 0.09,0.90248 0.475,1.28793 0.386,0.38544 0.701,0.91509 0.701,1.17701 0,1.01622 1.714,3.42882 2.283,3.21451 0.331,-0.12434 0.601,-0.0165 0.601,0.23966 0,0.25615 -0.349,0.46573 -0.777,0.46573 -0.578,0 -0.697,0.27671 -0.463,1.08186 0.172,0.59502 0.441,2.60046 0.597,4.45653 0.314,3.72072 -1.027,10.17854 -2.709,13.04961 l -0.89,1.51872 2.722,0.46931 c 4.008,0.69113 5.584,0.28907 7.846,-2.00148 3.383,-3.42691 3.469,-3.66037 2.603,-7.04343 -1.274,-4.97195 -1.03,-7.74596 1.16,-13.214 1.425,-3.55959 1.949,-5.5751 1.602,-6.16757 -0.217,-0.36949 -1.727,-1.77511 -3.355,-3.1236 -3.327,-2.7551 -4.153,-4.47934 -4.183,-8.73975 -0.03,-3.61343 0.755,-4.87428 6.922,-11.16426 2.901,-2.95867 5.781,-6.14677 6.401,-7.08467 4.786,-7.24072 5.954,-9.56009 6.38,-12.66715 0.24,-1.75051 0.16,-2.2658 -0.356,-2.28295 -0.367,-0.0122 -2.505,-0.11697 -4.752,-0.23286 -5.628,-0.29022 -8.123,0.34078 -9.543,2.41266 -0.793,1.15779 -1.04,2.03081 -0.846,2.98494 0.273,1.33781 -0.96,3.51225 -1.992,3.51225 -0.927,0 -1.996,-1.77657 -2.79,-4.63366 -1.224,-4.40657 -0.604,-6.42885 2.808,-9.1539 0.39,-0.31068 1.762,-0.86983 3.05,-1.24253 2.029,-0.58697 2.917,-0.5824 6.633,0.0342 l 4.291,0.71183 1.047,-1.21756 c 0.576,-0.66966 1.2,-2.16182 1.387,-3.3159 0.422,-2.60568 -1.052,-5.91723 -3.414,-7.6684 -1.605,-1.18982 -1.974,-2.07085 -1.097,-2.61324 0.776,-0.4799 3.142,1.26058 4.771,3.51062 2.74,3.78299 2.403,9.54984 -0.695,11.91365 -1.851,1.4122 -2.86,1.47122 -7.144,0.41783 -4.096,-1.00693 -6.104,-0.52588 -8.498,2.03522 -1.492,1.5965 -1.53,1.69971 -0.363,0.97428 2.136,-1.32811 3.621,-0.92617 2.18,0.58986 -0.331,0.34756 0.156,0.23014 1.081,-0.26093 1.379,-0.73162 2.635,-0.87817 6.955,-0.81155 4.723,0.0728 5.537,-0.0439 7.814,-1.12142 1.398,-0.6615 2.776,-1.64133 3.063,-2.17741 0.287,-0.53607 0.507,-2.49635 0.49,-4.35617 -0.04,-4.07935 -1.137,-6.65226 -4.046,-9.47656 -2.216,-2.15113 -4.432,-2.84406 -6.153,-1.92325 -0.949,0.50816 -1.184,0.46885 -1.612,-0.26944 -1.023,-1.76183 -6.638,-6.4882 -7.71,-6.4882 -0.167,0 -1.426,-0.50963 -2.797,-1.1325 -1.371,-0.62287 -3.358,-1.40945 -4.416,-1.74795 -1.058,-0.3385 -2.68,-0.99553 -3.605,-1.46007 -3.061,-1.53675 -10.941,-2.43337 -21.67,-2.46574 -5.489,-0.0166 -10.216,0.11623 -10.505,0.29511 -0.289,0.17887 -2.957,0.52553 -5.927,0.77035 -2.971,0.24482 -7.565,0.65526 -10.209,0.9121 -6.196,0.60195 -16.715,0.60521 -24.035,0.007 -3.173,-0.25907 -7.823,-0.58122 -10.335,-0.71587 -18.113,-0.97108 -17.239,-1.15571 -23.467,4.95408 -2.531,2.48239 -5.838,5.4852 -7.349,6.67291 -3.372,2.64951 -8.155,4.96909 -10.248,4.96909 -1.377,0 -1.695,0.26718 -2.721,2.28286 -1.055,2.07609 -1.378,2.33322 -3.564,2.83879 -1.322,0.30576 -2.782,0.57669 -3.245,0.60208 -1.181,0.0648 -1.053,-1.31792 0.241,-2.59192 0.594,-0.58601 1.609,-1.76834 2.255,-2.6274 1.034,-1.3756 1.378,-1.5317 2.884,-1.30847 1.441,0.21358 1.572,0.16438 0.827,-0.31269 -1.981,-1.26909 -5.198,-4.71813 -5.673,-6.0822 -0.279,-0.80074 -0.757,-1.45696 -1.062,-1.45827 -0.542,-0.002 -4.238,1.13624 -6.499,2.00212 l -1.139,0.4361 1.716,1.66702 c 1.942,1.88656 3.368,2.08272 5.128,0.70538 1.225,-0.95803 2.884,-1.28296 2.884,-0.56464 0,1.14527 -4.148,3.67217 -9.854,6.00226 l -2.884,1.17783 0.128,3.30361 c 0.07,1.81699 0,3.80582 -0.138,4.41962 -0.364,1.52915 -1.423,1.0403 -1.472,-0.67941 -0.134,-4.71545 -0.195,-5.00443 -1.066,-5.00443 -1.423,0 -2.019,1.02209 -2.019,3.46194 0,1.73096 -0.18,2.30795 -0.721,2.30795 -0.735,0 -0.845,-0.40197 -0.919,-3.36577 -0.04,-1.57907 -0.131,-1.67256 -1.484,-1.51555 -0.794,0.092 -2.308,0.46753 -3.365,0.83444 -1.058,0.36692 -2.518,0.67027 -3.245,0.67411 -1.292,0.007 -1.321,0.0692 -1.286,2.77174 0.02,1.52061 0.182,3.72242 0.36,4.89292 0.323,2.11627 0.34,2.13173 2.969,2.76305 2.889,0.69369 14.511,1.02927 16.185,0.46733 0.804,-0.26981 1.114,-0.1258 1.353,0.628 0.171,0.53795 1.136,2.02266 2.145,3.29935 2.088,2.64223 2.831,5.0374 1.907,6.1504 -0.524,0.6316 -0.438,0.68939 0.626,0.42212 0.879,-0.22058 1.79,0.0418 3.169,0.91193 1.064,0.67188 2.073,1.44673 2.243,1.7219 0.17,0.27517 0.633,0.50031 1.028,0.50031 0.395,0 2.209,0.97367 4.032,2.16371 1.822,1.19004 3.637,2.16371 4.032,2.16371 0.395,0 0.841,0.19972 0.992,0.44383 0.151,0.2441 0.973,0.59726 1.826,0.78478 0.854,0.18753 2.264,0.88368 3.133,1.54701 1.674,1.27689 7,2.76936 7.899,2.21346 0.322,-0.19923 0.397,-0.11003 0.19,0.22569 -0.581,0.94074 0.635,0.61273 1.508,-0.40653 0.985,-1.15093 1.407,-1.19392 2.36,-0.24041 0.659,0.65871 0.511,0.92663 -0.429,0.77817 -0.198,-0.0313 -0.36,0.15264 -0.36,0.4088 0,0.25615 -0.379,0.33249 -0.842,0.16964 -0.591,-0.20807 -0.698,-0.13977 -0.36,0.22978 0.264,0.28923 1.454,0.57274 2.644,0.63003 1.189,0.0573 2.747,0.39342 3.461,0.74696 0.714,0.35354 1.837,0.6428 2.495,0.6428 0.659,0 1.337,0.22585 1.508,0.50189 0.426,0.69046 -0.664,1.90223 -1.713,1.90223 -0.784,0 -0.874,0.68711 -1.022,7.8134 -0.09,4.29737 0.02,7.94556 0.238,8.1071 0.221,0.16154 0.09,0.41473 -0.3,0.56264 -0.385,0.14792 -0.843,1.0976 -1.016,2.11042 -0.364,2.11578 -1.376,4.86956 -2.777,7.55236 -0.774,1.48255 -0.845,1.9437 -0.346,2.25218 0.833,0.51472 1.526,0.0456 1.198,-0.81024 -0.144,-0.37593 0.206,-1.15191 0.778,-1.7244 0.763,-0.76279 1.098,-0.87063 1.253,-0.40362 0.117,0.3505 -0.12,0.82331 -0.526,1.05067 -0.444,0.24837 -0.638,0.79773 -0.487,1.37617 0.175,0.66996 0.02,0.96278 -0.525,0.96278 -0.428,0 -0.777,0.21638 -0.777,0.48083 0,0.26445 -0.433,0.91357 -0.962,1.44247 -0.747,0.74795 -0.961,0.80138 -0.961,0.24041 0,-1.10948 -0.435,-0.89564 -2.934,1.44248 -1.272,1.19004 -2.203,2.16371 -2.07,2.16371 0.134,0 -0.529,0.79583 -1.474,1.76851 -0.944,0.97268 -1.64,2.00044 -1.546,2.28392 0.234,0.70252 5.327,1.34415 8.219,1.03532 1.337,-0.14288 3.105,-0.75386 4.085,-1.41234 0.951,-0.63829 2.321,-1.29707 3.045,-1.46395 1.773,-0.40891 2.64,-1.92637 2.911,-5.09641 0.141,-1.65289 0.878,-4.03396 1.966,-6.3499 0.957,-2.03795 1.969,-4.85078 2.25,-6.25072 0.758,-3.77473 1.398,-5.16313 3.676,-7.97333 1.134,-1.39867 2.063,-2.6969 2.066,-2.88495 0,-0.18805 0.705,-1.0992 1.562,-2.02479 2.157,-2.32974 9.49,-12.17955 9.49,-12.7477 0,-0.15802 0.46,-1.29928 1.024,-2.53613 0.563,-1.23684 1.275,-3.11821 1.581,-4.18083 0.416,-1.44312 0.838,-1.97246 1.667,-2.09182 1.024,-0.14757 1.082,-0.0373 0.758,1.44055 -0.194,0.88018 -0.634,2.25032 -0.979,3.04474 -2.062,4.75208 -3.24,7.14949 -4.195,8.53459 -2.478,3.59587 -6.795,9.32913 -7.737,10.27587 -0.557,0.55991 -1.337,1.49861 -1.733,2.08599 -0.397,0.58738 -1.238,1.63354 -1.87,2.3248 -1.306,1.42816 -3.406,5.69701 -3.413,6.9356 0,1.08313 -1.312,4.93054 -2.495,7.34937 -0.517,1.05782 -1.049,3.11334 -1.183,4.56784 -0.361,3.94183 -1.418,6.058 -3.479,6.96918 -2.94,1.29956 -3.073,1.42458 -4.501,4.24053 -0.762,1.50381 -1.674,2.73419 -2.026,2.73419 -0.352,0 -0.769,0.33743 -0.927,0.74984 -0.248,0.64658 -1.414,0.73007 -8.464,0.6063 -7.504,-0.13174 -8.176,-0.21475 -8.176,-1.01035 0,-0.47675 0.448,-1.34461 0.996,-1.92857 0.548,-0.58396 1.684,-2.44314 2.524,-4.13151 0.917,-1.84192 2.854,-4.43824 4.844,-6.49113 1.824,-1.88175 4.013,-4.53615 4.864,-5.89865 2.052,-3.28557 3.974,-9.38259 4.492,-14.25244 0.468,-4.4029 0.3,-12.54169 -0.279,-13.48233 -0.207,-0.33572 -1.998,-0.97541 -3.981,-1.42154 -6.509,-1.46443 -8.676,-2.20198 -13.667,-4.65235 -2.712,-1.33123 -5.243,-2.42042 -5.624,-2.42042 -0.382,0 -1.444,-0.64032 -2.359,-1.42293 -0.915,-0.78262 -1.912,-1.43173 -2.214,-1.44248 -0.303,-0.0107 -1.219,-0.64426 -2.036,-1.40782 -1.925,-1.79836 -2.598,-2.04747 -6.067,-2.24372 -1.586,-0.0897 -4.831,-0.59291 -7.21,-1.11812 -2.38,-0.52521 -5.516,-1.21255 -6.971,-1.52742 -1.454,-0.31486 -3.446,-0.97857 -4.427,-1.47489 -0.981,-0.49632 -2.12,-0.90241 -2.531,-0.90241 -1.638,0 -4.604,-1.24735 -4.856,-2.04201 -0.147,-0.46361 -0.464,-0.84293 -0.704,-0.84293 -0.24,0 -0.777,-0.65957 -1.194,-1.46571 -0.615,-1.19063 -0.703,-2.47649 -0.469,-6.85174 0.428,-8.00741 0.535,-8.46002 2.065,-8.75145 3.242,-0.61756 8.141,-1.79093 9.265,-2.21888 0.679,-0.2586 1.76,-0.51995 2.403,-0.58078 1.127,-0.10659 3.317,-1.10498 3.813,-1.7384 0.133,-0.16869 1.593,-0.83576 3.245,-1.48237 1.653,-0.64661 3.005,-1.34192 3.005,-1.54513 0,-0.47619 -3.844,-4.21501 -4.333,-4.21501 -0.205,0 -0.51,-0.36135 -0.68,-0.803 -0.364,-0.94992 0.469,-1.58352 2.097,-1.59376 2.028,-0.0127 6.838,-1.5708 7.12,-2.30634 0.149,-0.38775 -0.09,-0.90534 -0.525,-1.1502 -0.93,-0.52073 -1.069,-1.83794 -0.194,-1.84416 0.7,-0.005 10.114,-5.51232 12.068,-7.06051 2.445,-1.9366 3.795,-2.09172 14.25,-1.63699 8.195,0.35641 10.34,0.60494 12.739,1.47549 3.918,1.42212 6.64,1.83954 13.7,2.10085 3.304,0.12232 9.253,0.48247 13.219,0.80033 7.514,0.60225 19.861,0.39467 26.198,-0.44046 23.749,-3.12958 38.946,-2.20937 50.714,3.07085 1.322,0.59312 3.647,1.59571 5.166,2.22799 1.639,0.68224 3.981,2.27391 5.76,3.91507 2.663,2.4555 3.168,2.73367 4.511,2.48178 1.904,-0.35734 3.828,0.60698 6.194,3.10458 3.341,3.52707 4.087,5.39341 4.087,10.23287 0,4.88758 -0.666,6.71316 -2.863,7.84948 -1.248,0.64542 -1.374,0.91261 -1.133,2.39818 0.149,0.91951 0.02,2.70593 -0.292,3.96983 -0.643,2.62453 -2.881,7.34665 -3.482,7.34665 -0.221,0 -0.402,0.27336 -0.402,0.60745 0,1.30518 -3.708,5.99993 -8.723,11.0463 -2.89,2.90736 -5.691,6.14187 -6.225,7.18779 -0.858,1.68406 -0.908,2.1966 -0.435,4.47907 0.459,2.20968 0.892,2.89125 3.032,4.77726 3.933,3.46598 4.053,3.60725 4.362,5.15236 0.358,1.79201 0.08,2.99687 -1.744,7.61985 -1.687,4.2696 -1.906,8.20119 -0.652,11.69421 1.137,3.16654 0.71,4.51678 -2.373,7.51447 -1.444,1.40333 -2.625,2.82523 -2.625,3.15976 0,0.33453 -0.293,0.72098 -0.652,0.85877 -0.359,0.13779 -0.781,0.89216 -0.938,1.67637 -0.532,2.65908 -1.436,3.08661 -5.807,2.74455 -4.74,-0.37093 -5.396,-0.37135 -7.384,-0.005 -1.357,0.25018 -1.562,0.15569 -1.562,-0.7193 0,-1.30437 1.084,-3.38811 3.627,-6.96986 2.646,-3.72705 3.758,-7.51037 3.745,-12.74185 -0.02,-6.52157 -1.715,-10.56889 -5.113,-12.18419 -0.846,-0.40219 -2.166,-1.3877 -2.934,-2.19003 -0.767,-0.80234 -1.572,-1.34933 -1.789,-1.21556 -0.216,0.13378 -0.871,1.26203 -1.454,2.50723 -0.869,1.85463 -1.067,3.16165 -1.095,7.22837 l -0.03,4.96437 -1.923,1.69382 c -5.056,4.45413 -6.104,5.58934 -6.923,7.50077 -0.485,1.13196 -1.323,2.97202 -1.863,4.08903 -0.539,1.11701 -0.784,2.03092 -0.544,2.03092 0.241,0 0.437,0.43275 0.437,0.96165 0,0.62817 -0.32,0.96165 -0.924,0.96165 -0.63,0 -1.101,0.53626 -1.48,1.68658 -0.503,1.5239 -1.957,2.92645 -2.486,2.39768 z m 33.645,-2.8822 c 0.301,-0.66113 0.39,-1.22009 0.197,-1.24213 -0.192,-0.022 -0.783,-0.0946 -1.311,-0.16133 -7.465,-0.94154 -8.043,-0.86221 -8.493,1.1647 -0.167,0.75101 2.1,1.20252 6.853,1.36528 1.923,0.0658 2.277,-0.0789 2.754,-1.12652 z m -33.791,-0.27664 c 0.175,-0.54884 0.181,-1.13423 0.01,-1.30086 -0.166,-0.16664 -2.295,-0.37552 -4.731,-0.46418 -4.333,-0.15776 -4.463,-0.13039 -6.11,1.28793 l -1.682,1.44912 6.096,0.0129 c 5.754,0.0122 6.115,-0.0431 6.413,-0.98495 z m -49.067,-1.91583 c 0.287,-0.28383 0.108,-0.4548 -0.48,-0.45942 -0.782,-0.006 -0.818,-0.085 -0.217,-0.47347 0.397,-0.25635 1.126,-0.46941 1.621,-0.47346 0.746,-0.006 0.798,0.1163 0.302,0.71388 -0.503,0.6068 -0.417,0.72007 0.542,0.71387 1.212,-0.008 2.221,-0.47966 2.296,-1.07449 0.03,-0.19834 0.209,-0.30653 0.407,-0.24041 0.198,0.0661 0.306,0.28248 0.24,0.48082 -0.229,0.68838 1.222,0.35579 2.316,-0.53101 1.094,-0.88542 1.068,-0.89351 -3.672,-1.16306 l -4.773,-0.27144 -1.283,1.51899 c -0.816,0.96542 -1.095,1.63555 -0.767,1.83885 0.644,0.39766 2.854,0.0282 3.468,-0.57965 z m -22.49,-1.09122 c 0.05,-0.0462 0.241,-0.7122 0.434,-1.47994 0.328,-1.30629 0.276,-1.37286 -0.802,-1.03723 -1.486,0.46238 -7.69,0.32849 -9.554,-0.20617 -1.262,-0.36206 -1.557,-0.2456 -2.407,0.94807 -0.533,0.74845 -0.969,1.48059 -0.969,1.62699 0,0.55509 12.749,0.69725 13.298,0.14828 z m 73.59,-0.92352 c 1.353,-1.69397 4.011,-7.23968 3.771,-7.86549 -0.152,-0.3955 -0.07,-0.59361 0.175,-0.44024 0.248,0.15337 0.661,-0.11412 0.918,-0.59442 0.257,-0.4803 1.69,-1.83867 3.185,-3.01862 3.507,-2.76945 4.057,-3.84891 3.627,-7.11446 -0.378,-2.86244 0.292,-6.12705 1.967,-9.58831 0.992,-2.05031 1.004,-2.21861 0.235,-3.41605 -0.445,-0.69273 -1.27,-2.20287 -1.833,-3.35588 -1.012,-2.06944 -1.051,-2.09249 -2.99,-1.79412 -1.081,0.16624 -4.345,0.42962 -7.253,0.58529 -2.909,0.15567 -5.504,0.4949 -5.769,0.75384 -0.316,0.30925 -0.07,0.41529 0.709,0.30903 0.831,-0.113 1.241,0.092 1.358,0.67966 0.102,0.51573 -0.126,0.84144 -0.589,0.84144 -0.909,0 -0.917,0.0831 -0.178,1.70718 0.503,1.10328 0.793,1.23692 2.194,1.00958 1.338,-0.21712 1.587,-0.12213 1.455,0.55411 -0.112,0.57334 -0.541,0.77132 -1.442,0.66549 -1.244,-0.14607 -1.266,-0.10588 -0.727,1.32227 0.402,1.06526 0.867,1.47292 1.68,1.47292 0.64,0 0.995,0.21084 0.823,0.48866 -0.166,0.26877 -0.503,0.36419 -0.749,0.21204 -0.246,-0.15215 -0.448,-0.0407 -0.448,0.24766 0,0.28836 0.325,0.64883 0.721,0.80105 0.397,0.15223 0.721,0.63828 0.721,1.08012 0,0.44184 0.433,1.17387 0.962,1.62673 0.683,0.58507 0.961,1.4184 0.961,2.8791 0,2.36699 -0.968,4.34759 -3.392,6.94237 -1.774,1.89805 -5.261,6.84177 -5.261,7.45806 0,0.19357 0.325,0.2274 0.721,0.0752 0.399,-0.15308 0.722,-0.0139 0.722,0.31158 0,0.34339 -0.385,0.48787 -0.923,0.34701 -1.009,-0.264 -2.371,1.03324 -3.619,3.44694 l -0.748,1.4465 3.246,0.16823 c 1.785,0.0925 3.706,0.21061 4.268,0.26241 0.562,0.0518 1.239,-0.17629 1.502,-0.50686 z m -3.005,-5.64969 c -0.164,-0.26445 -0.08,-0.48082 0.183,-0.48082 0.265,0 0.615,0.21637 0.778,0.48082 0.163,0.26446 0.08,0.48083 -0.184,0.48083 -0.264,0 -0.614,-0.21637 -0.777,-0.48083 z m 3.515,-2.25175 c 0.347,-0.1389 0.761,-0.12182 0.921,0.038 0.16,0.15977 -0.124,0.27341 -0.631,0.25254 -0.56,-0.0231 -0.674,-0.13701 -0.29,-0.2905 z m 0.811,-2.07567 c 0.163,-0.26445 0.609,-0.48082 0.99,-0.48082 0.381,0 0.692,0.21637 0.692,0.48082 0,0.26446 -0.445,0.48083 -0.989,0.48083 -0.545,0 -0.857,-0.21637 -0.693,-0.48083 z m 2.163,-0.48082 c 0,-0.26445 0.325,-0.48082 0.721,-0.48082 0.397,0 0.721,0.21637 0.721,0.48082 0,0.26445 -0.324,0.48082 -0.721,0.48082 -0.396,0 -0.721,-0.21637 -0.721,-0.48082 z m -0.633,-1.62717 c -0.158,-0.41039 -0.09,-0.8648 0.14,-1.00981 0.613,-0.37909 0.979,0.40826 0.528,1.13757 -0.298,0.48304 -0.445,0.45508 -0.668,-0.12776 z m 1.42,-3.90507 c -0.152,-0.39516 -0.08,-0.71848 0.161,-0.71848 0.652,0 1.056,0.85447 0.552,1.16608 -0.241,0.14898 -0.562,-0.0524 -0.713,-0.4476 z m 2.097,-4.56507 c 0,-0.26446 0.217,-0.48083 0.481,-0.48083 0.264,0 0.481,0.21637 0.481,0.48083 0,0.26445 -0.217,0.48082 -0.481,0.48082 -0.264,0 -0.481,-0.21637 -0.481,-0.48082 z m -2.403,-1.9233 c 0,-0.26445 0.229,-0.48082 0.509,-0.48082 0.28,0 0.375,0.21637 0.212,0.48082 -0.164,0.26445 -0.393,0.48082 -0.509,0.48082 -0.117,0 -0.212,-0.21637 -0.212,-0.48082 z m -0.27,-1.48939 c -0.124,-0.2021 0,-0.50337 0.262,-0.66947 0.541,-0.33425 1.45,0.0825 1.45,0.66463 0,0.48159 -1.415,0.48559 -1.712,0.005 z m -3.284,-4.56109 c -0.18,-0.46828 -0.07,-0.6881 0.279,-0.57098 0.718,0.23958 1.114,1.33239 0.482,1.33239 -0.258,0 -0.601,-0.34263 -0.761,-0.76141 z m 1.938,0.0402 c 0.319,-0.83307 0.944,-0.93833 1.38,-0.23257 0.166,0.26876 0.537,0.34352 0.824,0.16612 0.311,-0.19252 0.383,-0.0988 0.179,0.23257 -0.535,0.86586 -2.721,0.71351 -2.383,-0.16612 z m 3.058,-0.47675 c 0,-0.7104 0.275,-1.20614 0.669,-1.20614 1.077,0 1.239,1.22035 0.244,1.84167 -0.806,0.50367 -0.913,0.42913 -0.913,-0.63553 z m -2.884,-1.20614 c -0.434,-0.28006 -0.493,-0.46904 -0.149,-0.47346 0.315,-0.004 0.706,0.20901 0.87,0.47346 0.369,0.59696 0.202,0.59696 -0.721,0 z m 1.442,-3.36577 c 0,-0.26445 0.216,-0.48083 0.48,-0.48083 0.265,0 0.481,0.21638 0.481,0.48083 0,0.26445 -0.216,0.48082 -0.481,0.48082 -0.264,0 -0.48,-0.21637 -0.48,-0.48082 z m -78.048,19.56744 c 0.184,-0.18396 -0.134,-0.33447 -0.707,-0.33447 -0.573,0 -1.042,0.19723 -1.042,0.43828 0,0.48884 1.229,0.41587 1.749,-0.10381 z m 31.9,-27.0486 c 0,-0.41228 -0.216,-0.61588 -0.48,-0.45244 -0.265,0.16344 -0.481,0.50076 -0.481,0.74961 0,0.24885 0.216,0.45245 0.481,0.45245 0.264,0 0.48,-0.33733 0.48,-0.74962 z m -67.173,-20.52686 c 0.207,-0.60831 -1.87,-4.32014 -2.573,-4.59889 -0.21,-0.0832 -0.618,-0.86713 -0.907,-1.74208 -0.455,-1.38085 -0.785,-1.62573 -2.496,-1.85532 -1.085,-0.14547 -2.459,-0.0792 -3.055,0.14732 -1.229,0.4674 -10.29,-0.24618 -12.455,-0.98089 -1.681,-0.57051 -2.14,-0.20638 -2.495,1.97992 l -0.266,1.6421 3.048,0.86556 c 1.676,0.47606 3.805,1.17287 4.73,1.54848 2.423,0.98321 9.174,2.60658 8.883,2.13586 -0.135,-0.21883 -0.03,-0.53379 0.243,-0.69989 0.268,-0.16611 0.488,0.0221 0.488,0.41814 0,0.49539 0.713,0.81618 2.284,1.02784 1.255,0.16923 2.499,0.38178 2.764,0.47233 0.999,0.34229 1.609,0.22068 1.807,-0.36048 z m 144.803,-7.57911 c -0.166,-0.26782 0.04,-1.16843 0.454,-2.00135 0.816,-1.63555 0.743,-2.26667 -0.139,-1.20388 -0.839,1.01166 -1.263,3.69218 -0.583,3.69218 0.313,0 0.433,-0.21913 0.268,-0.48695 z m -169.705,-1.40312 c 0.153,-0.24618 0.06,-0.58351 -0.212,-0.74962 -0.268,-0.1661 -0.488,0.0353 -0.488,0.4476 0,0.84458 0.288,0.96894 0.7,0.30202 z m -0.1,-5.80312 -0.305,-2.16371 -0.375,2.11127 c -0.383,2.16459 -0.121,3.3338 0.587,2.61866 0.219,-0.22138 0.261,-1.37618 0.09,-2.56622 z m 41.461,-16.8756 c 3.467,-1.62824 5.942,-3.56176 11.578,-9.0459 3.057,-2.97443 6.245,-5.69748 7.085,-6.0512 l 1.527,-0.64314 -1.324,-0.33321 c -0.729,-0.18326 -5.704,-0.36359 -11.056,-0.40072 l -9.732,-0.0675 -6.109,3.80129 -6.109,3.80129 1.182,1.40446 c 0.649,0.77246 1.181,1.7118 1.181,2.08743 0,0.92447 3.204,4.41237 5.284,5.7511 1.898,1.22237 3.393,1.15243 6.493,-0.30387 z m 120.589,90.17254 c 0.04,-0.63906 0.313,-1.25647 0.614,-1.37204 0.35,-0.13462 0.45,0.16567 0.277,0.83576 -0.239,0.92922 -0.179,0.97227 0.535,0.38598 0.443,-0.36295 0.805,-0.45177 0.805,-0.19739 0,0.25439 -0.517,0.69811 -1.149,0.98606 -1.044,0.47598 -1.143,0.41797 -1.082,-0.63837 z m -74.901,-2.10171 c -0.153,-0.24618 -0.06,-0.5835 0.212,-0.74961 0.573,-0.35463 1.449,0.0955 1.449,0.74476 0,0.58507 -1.301,0.58887 -1.661,0.005 z m -27.181,-6.22506 c 0,-0.56129 0.204,-1.02053 0.453,-1.02053 0.832,0 0.987,0.8463 0.263,1.44687 -0.596,0.49446 -0.716,0.42292 -0.716,-0.42634 z m 104.553,-1.98218 c 0.163,-0.26445 0.501,-0.48082 0.749,-0.48082 0.249,0 0.453,0.21637 0.453,0.48082 0,0.26446 -0.337,0.48083 -0.75,0.48083 -0.412,0 -0.615,-0.21637 -0.452,-0.48083 z m -75.469,-1.44117 c -0.164,-0.26517 0.02,-0.48212 0.411,-0.48212 0.39,0 0.796,-0.25981 0.902,-0.57735 0.143,-0.42966 0.28,-0.43583 0.534,-0.0241 0.194,0.31403 -0.07,0.77211 -0.604,1.05948 -0.627,0.33594 -1.046,0.34406 -1.243,0.0241 z m 76.486,-0.27022 c -0.384,-1.00082 -0.219,-1.23965 0.534,-0.7741 0.325,0.20087 0.398,0.61207 0.173,0.97582 -0.302,0.48797 -0.46,0.44282 -0.707,-0.20172 z m -76.247,-1.65438 c 0,-0.26445 0.229,-0.48082 0.509,-0.48082 0.28,0 0.376,0.21637 0.212,0.48082 -0.163,0.26446 -0.392,0.48083 -0.509,0.48083 -0.116,0 -0.212,-0.21637 -0.212,-0.48083 z m 4.807,-0.96165 c 0,-0.26445 0.217,-0.48082 0.481,-0.48082 0.264,0 0.481,0.21637 0.481,0.48082 0,0.26446 -0.217,0.48083 -0.481,0.48083 -0.264,0 -0.481,-0.21637 -0.481,-0.48083 z m -30.765,-4.49331 c 0,-0.82168 1.655,-2.34639 2.082,-1.91873 0.554,0.5542 0.352,1.12298 -0.399,1.12298 -0.397,0 -0.721,0.32455 -0.721,0.72123 0,0.39668 -0.217,0.72124 -0.481,0.72124 -0.264,0 -0.481,-0.29102 -0.481,-0.64672 z m 102.01,-0.0928 c -0.512,-0.58078 -0.491,-0.70294 0.12,-0.70294 0.407,0 0.74,0.32455 0.74,0.72123 0,0.87687 -0.07,0.87533 -0.86,-0.0183 z m -2.745,-1.18377 c -0.163,-0.26445 -0.07,-0.48082 0.212,-0.48082 0.28,0 0.509,0.21637 0.509,0.48082 0,0.26445 -0.09,0.48083 -0.212,0.48083 -0.116,0 -0.345,-0.21638 -0.509,-0.48083 z m -73.307,-1.52261 c 0,-0.57298 0.151,-0.89128 0.335,-0.70732 0.519,0.51968 0.592,1.74911 0.103,1.74911 -0.241,0 -0.438,-0.46881 -0.438,-1.04179 z m -1.442,0.0801 c 0,-0.26446 0.229,-0.48083 0.509,-0.48083 0.28,0 0.376,0.21637 0.212,0.48083 -0.163,0.26445 -0.392,0.48082 -0.509,0.48082 -0.117,0 -0.212,-0.21637 -0.212,-0.48082 z m -21.391,-0.48083 c 0.163,-0.26445 0.392,-0.48082 0.509,-0.48082 0.117,0 0.212,0.21637 0.212,0.48082 0,0.26446 -0.229,0.48083 -0.509,0.48083 -0.28,0 -0.376,-0.21637 -0.212,-0.48083 z m 19.949,-0.74961 c 0,-0.41229 0.22,-0.61371 0.489,-0.4476 0.268,0.16611 0.364,0.50343 0.211,0.74961 -0.412,0.66693 -0.7,0.54257 -0.7,-0.30201 z m 75.96,-2.38736 c 0.335,-0.40308 0.708,-0.63384 0.829,-0.51282 0.333,0.33345 -0.344,1.24567 -0.925,1.24567 -0.319,0 -0.283,-0.27589 0.1,-0.73285 z m -3.61,-0.23664 c 0.166,-0.26877 0.504,-0.36418 0.75,-0.21204 0.667,0.41219 0.542,0.70071 -0.302,0.70071 -0.412,0 -0.614,-0.2199 -0.448,-0.48867 z m -2.168,-0.47298 c 0,-0.26445 0.217,-0.48083 0.481,-0.48083 0.265,0 0.481,0.21638 0.481,0.48083 0,0.26445 -0.216,0.48082 -0.481,0.48082 -0.264,0 -0.481,-0.21637 -0.481,-0.48082 z m -69.701,-0.48083 c 0,-0.26445 0.216,-0.48082 0.48,-0.48082 0.265,0 0.481,0.21637 0.481,0.48082 0,0.26446 -0.216,0.48083 -0.481,0.48083 -0.264,0 -0.48,-0.21637 -0.48,-0.48083 z m -21.632,-3.36577 c 0,-0.26445 0.325,-0.48082 0.721,-0.48082 0.397,0 0.721,-0.21637 0.721,-0.48083 0,-0.67006 1.79,-0.60399 2.214,0.0817 0.23,0.37305 0.09,0.46366 -0.417,0.26899 -0.421,-0.16145 -1.024,0.0181 -1.34,0.39911 -0.657,0.79176 -1.899,0.93031 -1.899,0.21183 z m 20.78,-0.0898 c 0.24,-0.71876 1.332,-1.1145 1.332,-0.48251 0,0.2582 -0.342,0.60093 -0.761,0.76163 -0.468,0.1797 -0.688,0.0722 -0.571,-0.27912 z m 2.053,-0.391 c -0.163,-0.26445 0.161,-0.48083 0.721,-0.48083 0.56,0 0.885,0.21638 0.722,0.48083 -0.164,0.26445 -0.488,0.48082 -0.722,0.48082 -0.233,0 -0.557,-0.21637 -0.721,-0.48082 z m 61.05,-4.32742 c -0.164,-0.26445 0.05,-0.48082 0.48,-0.48082 0.428,0 0.644,0.21637 0.481,0.48082 -0.163,0.26445 -0.38,0.48082 -0.481,0.48082 -0.101,0 -0.317,-0.21637 -0.48,-0.48082 z m -24.847,-2.25176 c 0.347,-0.13889 0.762,-0.12181 0.922,0.038 0.159,0.15978 -0.125,0.27342 -0.631,0.25254 -0.56,-0.0231 -0.674,-0.137 -0.291,-0.2905 z m 2.494,-0.15236 c 0,-0.26446 0.216,-0.48083 0.481,-0.48083 0.264,0 0.48,0.21637 0.48,0.48083 0,0.26445 -0.216,0.48082 -0.48,0.48082 -0.265,0 -0.481,-0.21637 -0.481,-0.48082 z m -12.018,-0.5092 c 0,-0.28006 0.217,-0.37548 0.481,-0.21204 0.264,0.16344 0.481,0.39258 0.481,0.5092 0,0.11662 -0.217,0.21204 -0.481,0.21204 -0.264,0 -0.481,-0.22914 -0.481,-0.5092 z m 4.807,0.0284 c 0,-0.26445 0.217,-0.48082 0.481,-0.48082 0.264,0 0.481,0.21637 0.481,0.48082 0,0.26446 -0.217,0.48083 -0.481,0.48083 -0.264,0 -0.481,-0.21637 -0.481,-0.48083 z m -16.824,-0.48082 c 0,-0.26445 0.337,-0.48083 0.749,-0.48083 0.412,0 0.616,0.21638 0.453,0.48083 -0.164,0.26445 -0.501,0.48082 -0.75,0.48082 -0.249,0 -0.452,-0.21637 -0.452,-0.48082 z m 1.923,0.0567 c 0,-0.26445 0.216,-0.61455 0.48,-0.77799 0.265,-0.16344 0.481,-0.0808 0.481,0.18366 0,0.26445 -0.216,0.61455 -0.481,0.77799 -0.264,0.16344 -0.48,0.0808 -0.48,-0.18366 z m -39.899,-1.00331 c 0,-0.25615 0.325,-0.34119 0.721,-0.18897 0.397,0.15222 0.721,0.3618 0.721,0.46574 0,0.10393 -0.324,0.18896 -0.721,0.18896 -0.396,0 -0.721,-0.20958 -0.721,-0.46573 z m 29.558,-1.46728 c -0.439,-0.70929 1.383,-0.98243 2.057,-0.30847 0.584,0.58452 0.504,0.67881 -0.575,0.67881 -0.69,0 -1.357,-0.16666 -1.482,-0.37034 z m -30.519,-3.35605 c -0.397,-0.25636 -1.221,-0.46942 -1.831,-0.47347 -0.61,-0.004 -0.989,-0.20341 -0.841,-0.44303 0.317,-0.51306 3.633,0.3971 3.633,0.99717 0,0.50008 -0.07,0.49401 -0.961,-0.0807 z m 2.884,-1.44248 c -0.381,-0.23569 -0.585,-0.53672 -0.453,-0.66895 0.133,-0.13222 0.553,-0.0476 0.934,0.18813 0.381,0.23569 0.585,0.53672 0.453,0.66895 -0.132,0.13222 -0.553,0.0476 -0.934,-0.18813 z m -14.181,-1.92329 c 0.164,-0.26446 0.501,-0.48083 0.75,-0.48083 0.249,0 0.452,0.21637 0.452,0.48083 0,0.26445 -0.337,0.48082 -0.749,0.48082 -0.412,0 -0.616,-0.21637 -0.453,-0.48082 z m 2.885,0 c -0.164,-0.26446 0.04,-0.48083 0.452,-0.48083 0.412,0 0.749,0.21637 0.749,0.48083 0,0.26445 -0.203,0.48082 -0.452,0.48082 -0.249,0 -0.586,-0.21637 -0.749,-0.48082 z m -5.788,-1.95529 c -0.175,-0.28205 -0.214,-0.61594 -0.09,-0.74198 0.126,-0.12603 0.357,0.10473 0.514,0.51282 0.325,0.84726 0.05,0.9963 -0.426,0.22916 z m -5.749,-0.92966 c -0.52,-0.8409 0.251,-1.55146 1.004,-0.92612 0.373,0.30967 0.678,0.75292 0.678,0.98499 0,0.57968 -1.316,0.53361 -1.682,-0.0589 z m 2.582,-1.32227 c -0.598,-0.76261 -0.581,-0.77962 0.182,-0.18154 0.463,0.36295 0.841,0.7416 0.841,0.84145 0,0.39573 -0.395,0.14102 -1.023,-0.65991 z m 2.856,0.0322 c 0.347,-0.13889 0.761,-0.12181 0.921,0.038 0.16,0.15978 -0.124,0.27342 -0.631,0.25254 -0.56,-0.0231 -0.674,-0.13701 -0.29,-0.2905 z m -19.619,-6.43146 c 0,-0.28006 0.216,-0.37547 0.481,-0.21203 0.264,0.16344 0.481,0.39258 0.481,0.5092 0,0.11662 -0.217,0.21203 -0.481,0.21203 -0.265,0 -0.481,-0.22914 -0.481,-0.5092 z m -1.342,-1.2584 c -0.479,-0.19245 -0.492,-0.40417 -0.06,-0.92962 0.427,-0.51545 0.724,-0.54813 1.222,-0.13478 1.28,1.06322 0.533,1.74609 -1.166,1.0644 z m 85.946,-10.34163 c -5.979,-1.47986 -6.976,-1.46165 -11.813,0.21579 -2.77,0.96057 -3.168,0.97958 -7.767,0.37071 l -4.848,-0.6418 -0.319,-1.49072 c -0.175,-0.81989 -0.425,-2.46438 -0.554,-3.65442 -0.218,-1.99848 -0.1,-2.30674 1.596,-4.03662 1.175,-1.20054 1.833,-2.32254 1.833,-3.12536 0,-1.29686 0.06,-1.31636 2.367,-0.73786 1.245,0.31267 1.36,0.24441 1.122,-0.66647 -0.354,-1.35528 0.803,-2.35705 1.784,-1.54332 0.568,0.47224 0.955,0.39017 1.987,-0.42195 0.705,-0.55451 1.75,-1.00821 2.322,-1.00821 0.573,0 1.301,-0.25955 1.618,-0.57677 0.317,-0.31723 1.45,-0.62166 2.517,-0.67652 1.067,-0.0549 2.213,-0.32675 2.547,-0.6042 0.335,-0.27745 1.571,-0.65446 2.747,-0.8378 1.196,-0.18638 2.614,-0.80055 3.216,-1.39302 1.061,-1.0438 1.607,-1.14991 12.552,-2.43639 1.654,-0.19437 12.894,1.05588 15.694,1.74574 1.322,0.32559 3.052,0.918 3.844,1.31647 0.792,0.39846 2.144,0.698 3.004,0.66565 1.024,-0.0385 1.565,0.16611 1.565,0.59169 0,0.35779 0.378,0.77766 0.841,0.93305 2.071,0.69571 4.514,3.04646 5.444,5.2389 0.309,0.72725 0.859,1.32227 1.224,1.32227 0.789,0 0.869,1.60005 0.149,2.94729 -0.372,0.69469 -0.361,1.14617 0.04,1.63021 0.825,0.99391 0.148,1.7908 -0.999,1.17677 -0.805,-0.4313 -0.932,-0.33764 -0.932,0.69006 0,0.82784 -0.255,1.1764 -0.841,1.14731 -0.463,-0.023 -2.057,0.32233 -3.544,0.76736 -2.129,0.63738 -3.149,0.70613 -4.807,0.32383 -2.767,-0.63815 -8.409,-0.64154 -9.597,-0.006 -0.517,0.27669 -1.205,0.33618 -1.53,0.13221 -0.848,-0.53173 -2.305,-0.1975 -3.809,0.87325 -0.716,0.51036 -2.525,1.46884 -4.02,2.12996 -3.538,1.56522 -7.218,1.47437 -14.634,-0.36133 z m 11.262,-1.14778 c 0.669,-0.66933 1.025,-1.64854 0.599,-1.64854 -0.09,0 -0.665,0.54093 -1.286,1.20206 -1.212,1.29075 -0.573,1.70645 0.687,0.44648 z m -25.479,-0.74512 c -0.312,-0.50419 -1.166,-0.0995 -1.166,0.55234 0,0.24054 0.323,0.31329 0.719,0.16165 0.395,-0.15164 0.596,-0.47293 0.447,-0.71399 z m 22.148,-0.4226 c 0.479,-0.5289 0.654,-0.96165 0.39,-0.96165 -0.265,0 -0.873,0.43275 -1.351,0.96165 -0.479,0.52891 -0.654,0.96165 -0.39,0.96165 0.265,0 0.873,-0.43274 1.351,-0.96165 z m -27.723,-0.13993 c 0.389,-0.46928 0.286,-0.63799 -0.422,-0.69136 -0.937,-0.0705 -1.221,0.387 -0.617,0.99157 0.424,0.42416 0.442,0.41914 1.039,-0.30021 z m 23.41,-0.24803 c -0.148,-0.14804 -0.536,-3.1e-4 -0.862,0.3283 -0.472,0.47487 -0.416,0.5301 0.269,0.26916 0.474,-0.18056 0.741,-0.44942 0.593,-0.59746 z m -20.203,-0.0929 c 0.164,-0.26446 0.07,-0.48083 -0.212,-0.48083 -0.28,0 -0.509,0.21637 -0.509,0.48083 0,0.26445 0.1,0.48082 0.212,0.48082 0.117,0 0.346,-0.21637 0.509,-0.48082 z m 17.325,-0.032 c 0.518,-0.83733 -0.07,-1.01466 -0.731,-0.22004 -0.379,0.45696 -0.415,0.73285 -0.1,0.73285 0.282,0 0.654,-0.23076 0.828,-0.51281 z m -8.062,-1.41049 c 0.33,-0.5289 0.425,-0.96164 0.211,-0.96164 -0.5,0 -1.542,1.03904 -1.542,1.53863 0,0.70845 0.724,0.39448 1.331,-0.57699 z m -7.252,-2.01345 c -0.153,-0.38357 -0.267,-0.26963 -0.29,0.2905 -0.02,0.50687 0.09,0.79086 0.252,0.63108 0.16,-0.15977 0.177,-0.57448 0.04,-0.92158 z m 5.624,0.3056 c 0.164,-0.4279 0.08,-0.6209 -0.189,-0.45245 -0.262,0.16157 -0.475,0.49736 -0.475,0.74621 0,0.69163 0.344,0.53922 0.664,-0.29376 z m 42.836,0.27089 c 0.164,-0.26543 -0.01,-0.35712 -0.404,-0.20763 -0.384,0.14722 -0.834,0.046 -1.002,-0.22492 -0.167,-0.27094 -0.62,-0.3712 -1.007,-0.22281 -0.387,0.14839 -0.583,0.46349 -0.437,0.70023 0.359,0.5816 2.483,0.54815 2.85,-0.0449 z m -43.981,-2.04655 c 0,-0.26822 -0.319,-0.21616 -0.721,0.11774 -0.397,0.32922 -0.721,0.81495 -0.721,1.0794 0,0.26822 0.319,0.21615 0.721,-0.11775 0.396,-0.32921 0.721,-0.81494 0.721,-1.07939 z m 35.442,0.30807 c -0.16,-0.15977 -0.575,-0.17686 -0.922,-0.038 -0.383,0.15349 -0.269,0.26743 0.291,0.2905 0.506,0.0209 0.79,-0.0928 0.631,-0.25254 z m -9.65,-1.89395 c 0.476,-1.24102 -0.266,-1.41507 -1.3,-0.30489 l -0.975,1.04687 h 0.995 c 0.547,0 1.123,-0.33389 1.28,-0.74198 z m 11.703,-0.008 c 0,-0.41229 -0.217,-0.61589 -0.481,-0.45245 -0.264,0.16345 -0.481,0.50077 -0.481,0.74962 0,0.24884 0.217,0.45245 0.481,0.45245 0.264,0 0.481,-0.33733 0.481,-0.74962 z m -45.667,-0.21203 c 0,-0.26446 -0.229,-0.48083 -0.509,-0.48083 -0.28,0 -0.375,0.21637 -0.212,0.48083 0.163,0.26445 0.392,0.48082 0.509,0.48082 0.117,0 0.212,-0.21637 0.212,-0.48082 z m 43.565,-1.78125 c -0.396,-0.39632 -1.744,0.23852 -1.744,0.82142 0,0.3556 0.307,0.34829 1.003,-0.0239 0.551,-0.29519 0.885,-0.65408 0.741,-0.79756 z m 4.47,0.14117 c 0.309,-0.37314 0.379,-0.79188 0.155,-0.93055 -0.225,-0.13866 -0.67,0.16663 -0.989,0.67843 -0.668,1.06946 -0.01,1.26849 0.834,0.25212 z m -38.661,-0.28322 c -0.164,-0.26445 -0.555,-0.47751 -0.87,-0.47346 -0.344,0.004 -0.285,0.1934 0.149,0.47346 0.923,0.59695 1.09,0.59695 0.721,0 z m 31.659,-0.72124 c 0.163,-0.42348 0,-0.72123 -0.377,-0.72123 -0.36,0 -0.779,0.32455 -0.932,0.72123 -0.162,0.42348 0,0.72124 0.378,0.72124 0.36,0 0.779,-0.32456 0.931,-0.72124 z m 4.953,-0.51314 c 0.427,-1.11288 -0.518,-1.84876 -1.246,-0.97077 -0.616,0.74222 -0.337,1.72432 0.489,1.72432 0.258,0 0.598,-0.3391 0.757,-0.75355 z m 4.247,-0.68892 c 0.164,-0.26445 0.08,-0.48082 -0.183,-0.48082 -0.265,0 -0.615,0.21637 -0.778,0.48082 -0.163,0.26445 -0.08,0.48083 0.184,0.48083 0.264,0 0.614,-0.21638 0.777,-0.48083 z m -26.356,-1.28026 c -0.142,-0.14218 -0.512,-0.10161 -0.823,0.0902 -0.418,0.25851 -0.395,0.45345 0.09,0.75397 0.641,0.39835 1.262,-0.31594 0.734,-0.84413 z m 15.06,0.5874 c 0,-0.11662 -0.216,-0.34576 -0.481,-0.5092 -0.264,-0.16344 -0.481,-0.068 -0.481,0.21204 0,0.28006 0.217,0.5092 0.481,0.5092 0.265,0 0.481,-0.0954 0.481,-0.21204 z m 4.641,-0.52994 c 0.448,-1.16673 -0.08,-1.27972 -1.033,-0.22262 -0.797,0.88025 -0.802,0.9646 -0.06,0.9646 0.446,0 0.938,-0.33389 1.095,-0.74198 z m -7.663,-1.4788 c -0.46,-0.46107 -1.831,0.79563 -1.483,1.35975 0.174,0.28106 0.598,0.16622 1.048,-0.28345 0.416,-0.41576 0.612,-0.90009 0.435,-1.0763 z m -14.043,0.7783 c 0.163,-0.26445 -0.04,-0.48082 -0.452,-0.48082 -0.413,0 -0.75,0.21637 -0.75,0.48082 0,0.26446 0.204,0.48083 0.453,0.48083 0.248,0 0.586,-0.21637 0.749,-0.48083 z m 19.74,-1.32367 c 0.294,-0.59111 0.678,-0.93178 0.853,-0.75705 0.175,0.17474 0.317,0.078 0.317,-0.21488 0,-1.1292 -0.988,-1.05378 -2.373,0.18118 -0.795,0.70834 -1.323,1.48584 -1.174,1.72778 0.455,0.7361 1.809,0.20238 2.377,-0.93703 z m -8.444,0.36203 c 0.622,-0.40168 0.609,-0.46712 -0.09,-0.47347 -0.447,-0.004 -0.947,0.20901 -1.11,0.47347 -0.376,0.60853 0.26,0.60853 1.201,0 z m 5.504,-1.60556 c 0.762,-0.55705 0.78,-0.68239 0.137,-0.92922 -0.421,-0.16148 -1.108,0.11801 -1.584,0.6439 -0.682,0.75336 -0.707,0.92923 -0.137,0.92923 0.387,0 1.1,-0.28976 1.584,-0.64391 z m -9.629,-0.6096 c 0.418,-0.16052 0.761,-0.70144 0.761,-1.20206 0,-1.00775 1.005,-1.17799 2.435,-0.41246 0.731,0.39163 0.929,0.34038 0.929,-0.24041 0,-1.11306 -2.975,-0.94226 -4.501,0.25839 -1.842,1.44883 -1.626,2.36494 0.376,1.59654 z m -2.124,-2.11226 c 0,-0.26446 -0.229,-0.48083 -0.509,-0.48083 -0.28,0 -0.375,0.21637 -0.212,0.48083 0.164,0.26445 0.393,0.48082 0.509,0.48082 0.117,0 0.212,-0.21637 0.212,-0.48082 z"
       id="path1" /></g></svg>
