<?xml version="1.0" encoding="UTF-8" standalone="no"?>
<!-- Created with Inkscape (http://www.inkscape.org/) -->

<svg
   width="231.38646"
   height="235.24007"
   viewBox="0 0 61.221 62.240601"
   version="1.1"
   id="svg1"
   xml:space="preserve"
   xmlns="http://www.w3.org/2000/svg"
   xmlns:svg="http://www.w3.org/2000/svg"><defs
     id="defs1" /><g
     id="g1810"
     transform="matrix(0.26458333,0,0,0.26458333,-4377.9211,-148.84046)"><path
       style="fill:#000000"
       d="m 16652.525,773.24195 c -0.454,-0.73545 0.331,-1.42509 1.28,-1.12386 0.529,0.16787 0.92,0.0656 0.92,-0.24054 0,-0.67524 -6.471,-0.19078 -9.712,0.72705 -1.491,0.42228 -2.372,0.47689 -2.569,0.1591 -0.164,-0.26612 -0.59,-0.37212 -0.946,-0.23557 -0.365,0.14015 -0.776,-0.15923 -0.944,-0.68742 -0.163,-0.51463 -0.702,-0.93569 -1.196,-0.93569 -0.495,0 -1.033,-0.21604 -1.197,-0.4801 -0.163,-0.26405 -1.017,-0.48009 -1.897,-0.48009 -0.987,0 -1.708,-0.27887 -1.88,-0.72736 -0.414,-1.07927 -2.764,-1.87284 -3.244,-1.09563 -0.51,0.82517 0.207,1.46291 1.644,1.46291 0.918,0 1.176,0.25026 1.176,1.14023 0,1.15176 -0.616,1.57067 -0.929,0.63157 -0.09,-0.27977 -1.084,-0.52128 -2.201,-0.53669 -2.225,-0.0307 -2.441,-0.22911 -1.221,-1.12134 0.738,-0.53936 0.711,-0.62365 -0.3,-0.94448 -0.618,-0.19615 -1.243,-0.14248 -1.41,0.12111 -0.165,0.26035 -1.488,0.61649 -2.941,0.79143 -2.02,0.24339 -2.441,0.19375 -1.79,-0.21145 0.468,-0.29123 0.723,-0.7358 0.567,-0.98793 -0.156,-0.25214 -0.484,-0.33413 -0.73,-0.18221 -0.246,0.15192 -0.447,0.0329 -0.447,-0.26457 0,-0.34476 -0.392,-0.41354 -1.08,-0.18975 -1.318,0.42809 -6.999,0.54221 -7.628,0.15322 -0.25,-0.15433 0.456,-0.31625 1.568,-0.35983 1.112,-0.0436 2.391,-0.41242 2.841,-0.81965 0.45,-0.40723 1.007,-0.69711 1.238,-0.64417 0.231,0.0529 0.798,-0.0461 1.26,-0.22002 0.462,-0.17395 1.196,-0.42938 1.629,-0.56762 0.997,-0.31759 0.64,-0.68744 -0.939,-0.97382 -0.676,-0.12252 -1.363,-0.005 -1.527,0.26115 -0.165,0.26616 -0.989,0.48526 -1.832,0.48688 -0.842,0.002 -2.173,0.3373 -2.957,0.74594 -0.798,0.41644 -1.924,0.61769 -2.56,0.4579 -0.847,-0.21244 -1.041,-0.12725 -0.764,0.33428 0.275,0.45705 0.16,0.44668 -0.44,-0.0395 -0.446,-0.36239 -0.815,-0.47042 -0.819,-0.24004 0,0.23037 -0.2,0.11472 -0.436,-0.25699 -0.235,-0.37172 -1.192,-0.70241 -2.127,-0.73488 -1.947,-0.0676 -2.74,-0.58472 -1.58,-1.02983 1.256,-0.48186 0.932,-1.26732 -1.357,-3.28894 -2.014,-1.77918 -2.296,-1.88139 -4.865,-1.7624 -1.861,0.0862 -2.856,-0.0764 -3.132,-0.51176 -0.618,-0.97491 -0.512,-1.15766 0.661,-1.13712 0.594,0.0104 1.08,-0.19711 1.08,-0.46117 0,-0.26405 -0.304,-0.44445 -0.675,-0.40089 -0.771,0.0904 -1.965,-0.95817 -1.965,-1.72525 0,-0.28292 -0.27,-0.53931 -0.601,-0.56977 -0.33,-0.0305 -0.816,-0.10557 -1.08,-0.16692 -0.264,-0.0613 -0.696,-0.14776 -0.96,-0.19202 -0.264,-0.0443 -0.156,-0.28876 0.24,-0.54333 0.58,-0.37278 0.417,-0.57868 -0.84,-1.0581 -0.858,-0.32739 -1.561,-0.89217 -1.561,-1.25508 0,-0.36291 -0.44,-0.77514 -0.979,-0.91607 -1.285,-0.33592 -0.943,-1.28953 0.537,-1.49802 0.639,-0.0901 1.514,-0.47717 1.943,-0.86019 0.429,-0.38303 0.969,-0.64756 1.2,-0.58785 0.231,0.0597 1.608,-0.13458 3.061,-0.43174 1.452,-0.29717 3.88,-0.53528 5.395,-0.52915 1.515,0.006 3.412,-0.13319 4.215,-0.3096 2,-0.43922 1.968,-0.62617 -2.318,-13.74689 -0.745,-2.28069 -1.407,-5.29863 -1.471,-6.70655 -0.06,-1.40792 -0.291,-2.78256 -0.503,-3.05476 -0.212,-0.2722 -0.411,-0.81897 -0.441,-1.21505 -0.222,-2.93477 -0.743,-6.08393 -1.075,-6.50453 -0.393,-0.49661 -0.429,-1.01971 -0.467,-6.69814 -0.03,-3.80889 0,-3.29672 -0.54,-11.52233 -0.47,-7.16229 -0.544,-17.02138 -0.164,-21.60437 0.399,-4.80125 2.903,-13.0117 4.755,-15.58917 0.955,-1.32918 1.736,-2.54889 1.736,-2.71046 0,-0.16158 1.043,-1.51135 2.317,-2.9995 2.419,-2.82438 5.81,-7.75691 6.646,-9.66713 0.174,-0.39608 0.766,-1.36524 1.317,-2.15368 1.366,-1.95351 2.203,-3.59628 2.203,-4.32373 0,-0.33356 0.322,-0.87345 0.715,-1.19976 0.393,-0.3263 0.6,-0.7785 0.46,-1.00488 -0.14,-0.22638 0.06,-1.01206 0.433,-1.74596 0.378,-0.73391 0.708,-2.75485 0.733,-4.491 0.04,-2.93454 -0.06,-3.26764 -1.497,-4.73433 -1.862,-1.90436 -3.13,-2.43113 -5.853,-2.43113 -2.125,0 -6.595,1.54517 -8.062,2.78641 -0.475,0.40249 -2.275,0.80425 -4.228,0.94401 -3.752,0.26841 -4.699,-0.046 -7.955,-2.64003 -1.892,-1.507 -1.972,-1.68301 -2.057,-4.5014 -0.05,-1.61319 0.107,-3.18 0.346,-3.48179 0.238,-0.30178 0.575,-1.33716 0.749,-2.30082 0.173,-0.96367 0.634,-2.01633 1.023,-2.33925 0.389,-0.32292 0.707,-0.97733 0.707,-1.45424 0,-0.47692 0.324,-1.19118 0.72,-1.58726 0.396,-0.39608 0.72,-0.9184 0.72,-1.1607 0,-0.5553 4.227,-4.42901 4.832,-4.42901 0.248,0 0.45,-0.20148 0.45,-0.44774 0,-0.24626 0.458,-0.59316 1.018,-0.77089 0.56,-0.17774 1.91,-0.94922 3.001,-1.71441 3.44,-2.41413 8.222,-3.46993 15.905,-3.51171 7.136,-0.0388 12.071,0.64112 21.365,2.94354 2.773,0.68687 7.202,1.43743 9.843,1.66791 2.64,0.23049 5.665,0.70928 6.721,1.06399 4.891,1.64257 5.922,1.79293 11.043,1.61138 5.287,-0.18747 6.01,-0.29606 8.581,-1.29 0.758,-0.29326 2.054,-0.62032 2.88,-0.72681 0.826,-0.10648 3.169,-0.64097 5.206,-1.18776 3.985,-1.06929 6.932,-1.07975 19.581,-0.0695 7.384,0.58967 9.116,0.90953 10.246,1.89152 0.486,0.4224 1.381,0.98687 1.989,1.25437 0.608,0.26749 1.723,0.96709 2.477,1.55466 0.755,0.58757 2.668,2.05348 4.253,3.25759 6.043,4.59272 6.801,5.29898 8.466,7.89122 2.019,3.14205 4.504,8.31186 4.974,10.34745 0.182,0.79216 0.432,2.52051 0.555,3.84078 0.122,1.32026 0.426,3.43732 0.675,4.70457 0.672,3.41616 0.52,10.61484 -0.315,14.97941 -0.405,2.11243 -0.897,5.24506 -1.095,6.96141 -0.354,3.08149 -2.516,7.93377 -4.866,10.92039 -0.524,0.66634 -0.953,1.42187 -0.953,1.67895 0,0.52245 -6.117,8.09655 -6.96,8.61766 -0.296,0.18303 -2.101,1.64133 -4.011,3.24066 -1.909,1.59933 -3.716,2.90787 -4.014,2.90787 -0.298,0 -0.884,0.29587 -1.301,0.6575 -0.416,0.36162 -1.406,0.86586 -2.198,1.12052 -1.422,0.45714 -1.441,0.50826 -1.494,4.02345 -0.03,1.95823 -0.317,5.9369 -0.639,8.84149 -0.322,2.90459 -0.622,6.07344 -0.667,7.0419 -0.04,0.96845 -0.243,1.92264 -0.441,2.12042 -0.198,0.19779 -0.36,1.14457 -0.36,2.10396 0,0.95939 -0.25,1.99459 -0.556,2.30044 -0.306,0.30585 -0.631,1.15922 -0.724,1.89638 -0.09,0.73717 -0.378,3.06865 -0.636,5.18108 -0.257,2.11242 -0.687,4.75896 -0.956,5.88118 -0.269,1.12223 -0.674,2.85058 -0.9,3.84078 -0.596,2.60326 -1.96,6.78342 -2.939,9.00182 -0.466,1.05622 -1.216,3.21665 -1.667,4.80097 -0.45,1.58432 -1.346,3.78887 -1.989,4.89899 -0.644,1.11012 -1.113,2.19033 -1.043,2.40048 0.216,0.65156 -3.029,4.36021 -4.049,4.62695 -1.687,0.4412 -0.647,1.50027 1.93,1.96399 1.368,0.24622 2.487,0.6243 2.487,0.84017 0,0.40684 -0.845,0.59858 -1.681,0.38144 -0.264,-0.0686 -0.89,-0.1052 -1.391,-0.0813 -0.501,0.0239 -1.512,-0.2673 -2.247,-0.64704 -1.542,-0.79769 -3.954,-0.48071 -4.873,0.64047 -0.529,0.64555 -0.456,0.70561 0.544,0.4478 1.618,-0.41748 5.807,0.61955 5.807,1.43777 0,0.52608 -0.601,0.5935 -2.937,0.32931 l -2.936,-0.33222 0.831,1.26857 c 0.954,1.45559 0.808,1.51868 -1.386,0.6018 -1.669,-0.69749 -3.907,-0.5359 -5.04,0.36389 -0.944,0.75021 -2.155,0.66664 -2.567,-0.17721 -0.232,-0.47459 -0.314,-0.31102 -0.24,0.4797 0.09,0.93275 0.532,1.33731 2.002,1.81734 1.039,0.33961 2.227,0.46647 2.64,0.2819 0.413,-0.18457 0.859,-0.36189 0.991,-0.39405 0.132,-0.0322 0.726,-0.32848 1.32,-0.65848 1.572,-0.87333 1.322,0.10519 -0.397,1.55154 -1.633,1.37403 -3.986,1.641 -5.206,0.59076 -1.699,-1.46183 -6.28,-2.00938 -6.28,-0.75067 0,0.53611 3.729,1.52858 4.336,1.15384 0.26,-0.16058 0.612,0.0998 0.782,0.57863 0.17,0.47883 0.615,1.22723 0.988,1.66311 0.971,1.13412 -0.149,1.69362 -1.302,0.65038 -0.726,-0.65731 -1.461,-0.75489 -3.868,-0.51327 -1.634,0.16409 -3.363,0.50815 -3.842,0.76458 -0.479,0.25643 -1.247,0.46624 -1.705,0.46624 -0.459,0 -1.175,0.29394 -1.592,0.6532 -0.417,0.35926 -2.919,1.02843 -5.559,1.48705 -2.641,0.45861 -5.234,1.02136 -5.762,1.25055 -1.626,0.70561 -6.006,1.31 -6.281,0.86652 z m -6.748,-2.34906 c 0.969,-0.89856 -0.414,-1.42704 -3.683,-1.40709 l -3.452,0.0211 1.86,0.66317 c 1.023,0.36474 2.093,0.89601 2.378,1.18059 0.518,0.51791 2.118,0.2651 2.897,-0.45774 z m 13.749,-0.1909 c 0.925,-0.0348 1.681,-0.25412 1.681,-0.48732 0,-0.60464 -2.413,-0.72632 -5.762,-0.29054 -1.584,0.20619 -2.299,0.40322 -1.588,0.43784 0.71,0.0346 1.437,0.29782 1.614,0.58487 0.189,0.30495 0.749,0.3757 1.349,0.1702 0.564,-0.19346 1.782,-0.38023 2.706,-0.41505 z m -10.082,-0.75716 c 0,-0.26406 -0.594,-0.47679 -1.32,-0.47275 -1.029,0.006 -1.162,0.11009 -0.6,0.47275 0.939,0.60703 1.92,0.60703 1.92,0 z m 18.004,-0.4801 c 0.771,-0.33099 0.604,-0.41929 -0.84,-0.44636 -0.99,-0.0186 -1.8,0.1823 -1.8,0.44636 0,0.5733 1.306,0.5733 2.64,0 z m -29.527,-1.92039 c 0,-0.26405 -0.445,-0.4801 -0.988,-0.4801 -0.544,0 -0.855,0.21605 -0.692,0.4801 0.163,0.26405 0.608,0.4801 0.989,0.4801 0.38,0 0.691,-0.21605 0.691,-0.4801 z m 17.044,0 c -1.334,-0.57316 -2.274,-0.57316 -1.92,0 0.163,0.26405 0.878,0.46491 1.589,0.44635 1.153,-0.0301 1.189,-0.0779 0.331,-0.44635 z m 18.485,-0.47608 c 0,-0.69988 -1.595,-0.9736 -3.121,-0.53567 -1.515,0.43466 -1.119,0.80782 1.2,1.13285 1.357,0.1901 1.921,0.0148 1.921,-0.59718 z m -31.007,0.18467 c 1.357,-0.52064 0.803,-1.14888 -1.013,-1.14888 -1.661,0 -1.713,0.0441 -0.84,0.70488 1.116,0.84397 0.928,0.79894 1.853,0.444 z m 18.457,-0.92184 c 0.133,-0.13367 0.04,-0.4289 -0.205,-0.65606 -0.257,-0.2365 -1.064,-0.009 -1.889,0.53321 l -1.44,0.94623 1.645,-0.29016 c 0.905,-0.15959 1.755,-0.39954 1.889,-0.53322 z m 14.95,-0.17568 c 0,-0.2358 -0.342,-0.55986 -0.759,-0.72014 -1.175,-0.45068 -1.33,-0.35297 -0.681,0.42873 0.662,0.7981 1.44,0.9555 1.44,0.29141 z m -42.97,-0.53146 c 0.173,-0.27896 -0.268,-0.46596 -1.052,-0.44635 -1.186,0.0297 -1.233,0.0834 -0.388,0.44635 0.528,0.22694 1.001,0.4278 1.052,0.44635 0.05,0.0186 0.225,-0.1823 0.388,-0.44635 z m 12.963,-0.4801 c -0.165,-0.26652 0.197,-0.48336 0.812,-0.48744 1.36,-0.009 2.993,-0.90085 1.829,-0.99864 -1.029,-0.0865 -3.089,0.10814 -3.3,0.31183 -0.25,0.24012 0.325,1.65435 0.672,1.65435 0.156,0 0.15,-0.21604 -0.01,-0.4801 z m 9.08,-0.50756 c 1.338,-0.31964 1.262,-0.35916 -0.77,-0.40349 -1.238,-0.027 -2.374,0.14845 -2.523,0.38995 -0.318,0.51366 0.733,0.98774 1.373,0.61975 0.241,-0.13853 1.105,-0.41132 1.92,-0.60621 z m -13.241,-0.69204 c 0.1,-0.0972 0.03,-0.40781 -0.141,-0.69014 -0.217,-0.35057 -0.602,-0.36069 -1.217,-0.0319 -1.352,0.72366 -1.75,0.57882 -0.694,-0.25287 0.9,-0.70915 0.891,-0.72967 -0.268,-0.60012 -0.817,0.0913 -1.158,0.39113 -1.068,0.93922 0.07,0.44633 -0.247,0.90151 -0.72,1.02149 -0.469,0.11903 0.223,0.12073 1.539,0.004 1.315,-0.11694 2.471,-0.29219 2.569,-0.38943 z m 24.453,-0.0332 c 0.129,0.12889 0.801,-0.0531 1.494,-0.40432 0.693,-0.35126 2.232,-0.78104 3.42,-0.95506 2.596,-0.38015 4.259,-1.22974 2.43,-1.24122 -1.548,-0.01 -6.925,1.07829 -7.231,1.46309 -0.132,0.16615 -0.834,0.44751 -1.56,0.62522 -0.727,0.17771 -1.321,0.5297 -1.321,0.78218 0,0.28632 0.477,0.27783 1.267,-0.0226 0.697,-0.26491 1.372,-0.3762 1.501,-0.24732 z m -49.38,-0.0312 c 1.724,-0.34481 1.763,-1.25858 0.06,-1.38414 -1.038,-0.0765 -3.857,1.00744 -3.857,1.48306 0,0.30251 2.06,0.24886 3.799,-0.0989 z m -6.311,-2.09668 c -0.71,-1.13613 -1.13,-1.21247 -1.491,-0.27106 -0.26,0.67666 0.29,1.11835 1.486,1.19336 0.484,0.0304 0.485,-0.15304 0,-0.9223 z m 47.726,0.26497 c 4.011,-0.19774 9.015,-1.09705 9.828,-1.76646 0.302,-0.24892 0.734,-0.41942 0.96,-0.37888 1.191,0.21367 2.571,-0.10857 2.571,-0.60013 0,-0.30806 -0.135,-0.42527 -0.299,-0.26046 -0.165,0.16481 -0.689,-0.17726 -1.165,-0.76016 -0.743,-0.91072 -0.907,-0.95163 -1.165,-0.2908 -0.194,0.49915 -0.691,0.69413 -1.416,0.55565 -0.727,-0.1391 -1.453,0.14886 -2.085,0.82746 -1.122,1.20375 -1.571,0.80543 -1.211,-1.07462 0.238,-1.24745 0.954,-1.5918 2.843,-1.36657 0.649,0.0774 1.185,-2.26525 0.601,-2.62625 -0.73,-0.45103 -3.785,0.36439 -3.785,1.01023 0,0.34571 -0.648,0.77092 -1.44,0.94491 -1.075,0.23612 -1.44,0.58778 -1.44,1.38668 0,1.22252 -1.202,3.09273 -1.68,2.61448 -0.175,-0.17501 -0.1,-0.72939 0.171,-1.23196 0.441,-0.82553 0.341,-0.89209 -1.041,-0.6893 -0.964,0.14145 -1.263,0.33103 -0.81,0.51258 1.152,0.46155 0.982,1.24215 -0.288,1.31795 -2.246,0.13408 -3.604,0.66024 -3.263,1.26469 0.258,0.4574 0.193,0.45924 -0.294,0.008 -0.423,-0.39172 -0.9,-0.42993 -1.482,-0.11872 -0.556,0.29789 -0.962,0.28866 -1.157,-0.0263 -0.165,-0.26687 -0.867,-0.38247 -1.559,-0.25689 -0.693,0.12557 -1.524,0.009 -1.847,-0.25954 -0.4,-0.33176 -0.688,-0.3257 -0.901,0.0189 -0.173,0.27874 -0.03,0.60118 0.317,0.71654 1.432,0.47633 5.969,1.08451 6.716,0.90026 0.442,-0.1091 2.387,-0.27637 4.321,-0.37172 z m -30.619,-0.1879 c 0.137,-0.22167 -0.49,-0.43081 -1.393,-0.46477 -0.903,-0.034 -1.771,0.14741 -1.929,0.40303 -0.165,0.26582 0.432,0.46477 1.393,0.46477 0.924,0 1.792,-0.18136 1.929,-0.40303 z m -15.004,-0.67763 c -0.363,-0.36335 -0.714,-0.38973 -1.026,-0.0773 -0.313,0.31244 -0.124,0.50077 0.552,0.55167 0.772,0.0582 0.889,-0.0589 0.474,-0.47438 z m 22.245,0.13454 c 0.351,-0.56742 -1.867,-1.18625 -2.871,-0.80106 -0.397,0.15221 -0.721,0.49958 -0.721,0.77192 0,0.62805 3.206,0.65406 3.592,0.0291 z m 45.859,-1.05202 c 0,-0.8077 -0.23,-0.88445 -1.8,-0.60095 -0.99,0.17874 -2.233,0.56319 -2.761,0.85432 -0.855,0.47169 -0.751,0.55767 0.96,0.78949 2.598,0.35183 3.601,0.0612 3.601,-1.04286 z m -71.641,0.15193 c 0.138,-0.41319 -0.09,-0.5862 -0.64,-0.4801 -0.471,0.0912 -0.953,0.45656 -1.071,0.81185 -0.138,0.41318 0.09,0.58619 0.64,0.48009 0.471,-0.0912 0.953,-0.45656 1.071,-0.81184 z m 10.698,-1.16536 c 0.962,0.25141 1.296,-0.54572 0.449,-1.06925 -0.264,-0.1632 -0.48,-0.0984 -0.48,0.144 0,0.24239 -0.972,0.40021 -2.16,0.35071 -2.246,-0.0935 -2.751,0.32784 -1.339,1.11775 0.561,0.3137 1.105,0.26183 1.711,-0.16312 0.49,-0.34268 1.308,-0.51372 1.819,-0.38009 z m 9.843,0.6618 c -0.447,-0.72245 -4.113,-0.88596 -4.113,-0.18342 0,0.4074 0.734,0.6128 2.189,0.6128 1.204,0 2.07,-0.19322 1.924,-0.42938 z m 12.018,-0.4065 c 0.601,-0.60103 0.892,-0.66847 1.035,-0.24005 0.226,0.67762 1.079,0.81518 1.079,0.17398 0,-0.73306 -2.524,-1.456 -5.965,-1.7085 -1.828,-0.13416 -3.556,-0.49756 -3.841,-0.80756 -0.372,-0.40621 -0.363,-0.47768 0.03,-0.2559 0.303,0.16924 0.674,-0.0151 0.825,-0.40967 0.152,-0.39456 0.668,-0.71739 1.149,-0.71739 0.526,0 0.901,-0.37793 0.944,-0.95074 0.112,-1.47823 -0.661,-1.58722 -1.886,-0.26612 -1.438,1.55084 -4.972,2.12087 -6.383,1.02966 -0.858,-0.66324 -0.87,-0.74408 -0.12,-0.75772 0.462,-0.008 0.84,-0.23132 0.84,-0.49537 0,-0.76164 -1.037,-0.5579 -1.688,0.33145 -0.671,0.91852 -3.97,1.26032 -4.913,0.50911 -0.33,-0.26292 -0.6,-0.33514 -0.6,-0.1605 0,0.17465 -0.45,-0.10107 -0.999,-0.61271 -1.248,-1.16257 -3.162,-1.58975 -3.162,-0.70562 0,0.35105 0.111,0.52722 0.246,0.3915 0.136,-0.13572 0.825,0.3068 1.531,0.98338 0.706,0.67658 1.478,1.18483 1.714,1.12944 0.236,-0.0554 1.021,0.14375 1.743,0.44254 0.723,0.29879 2.343,0.68094 3.601,0.84921 1.258,0.16828 2.411,0.37995 2.563,0.47038 0.632,0.37757 7.526,1.65213 8.938,1.6525 0.843,2.1e-4 1.666,0.21643 1.829,0.48049 0.398,0.64402 0.516,0.61584 1.487,-0.35579 z m 11.446,-0.17258 c -0.143,-0.23146 0.1,-0.28376 0.534,-0.11623 0.593,0.22778 0.749,0.075 0.618,-0.60562 -0.1,-0.50062 -0.301,-0.8022 -0.455,-0.67017 -0.154,0.13202 -0.646,-0.0641 -1.094,-0.43575 -0.617,-0.51187 -0.949,-0.54098 -1.37,-0.12002 -0.306,0.30567 -0.999,0.56264 -1.54,0.57104 -0.92,0.0143 -0.93,0.0567 -0.144,0.65305 0.462,0.35077 0.84,0.8466 0.84,1.10182 0,0.25522 0.646,0.36924 1.436,0.25337 0.789,-0.11587 1.318,-0.40004 1.175,-0.63149 z m 20.435,-0.97071 c 0,-0.23172 -0.162,-0.3673 -0.36,-0.30129 -0.198,0.066 -0.391,-0.096 -0.428,-0.36007 -0.04,-0.26405 0.396,-0.4801 0.961,-0.4801 0.57,0 0.973,0.26896 0.905,0.60526 -0.1,0.48695 0.09,0.48695 0.96,0 0.595,-0.33289 1.235,-0.8182 1.421,-1.07846 0.41,-0.57426 -0.874,-1.37777 -1.543,-0.96474 -0.262,0.1619 -0.476,0.0656 -0.476,-0.21406 0,-0.78213 -1.915,-0.60241 -2.226,0.20895 -0.151,0.39457 -0.483,0.58898 -0.737,0.43203 -0.254,-0.15696 -0.755,0.11434 -1.113,0.60287 -0.568,0.77465 -0.533,0.93232 0.272,1.23285 0.508,0.18953 0.923,0.70208 0.923,1.13901 0,0.6517 0.13,0.68704 0.72,0.19673 0.397,-0.32872 0.721,-0.78726 0.721,-1.01898 z m -48.712,0.09 c -0.13,-0.2104 -0.836,-0.26364 -1.569,-0.11832 l -1.331,0.26422 1.2,0.31591 c 1.312,0.34527 2.071,0.13898 1.7,-0.46181 z m 22.067,-0.51131 c 0.85,0 0.849,-0.0356 -0.03,-0.87157 -0.943,-0.89448 -1.951,-1.03364 -2.962,-0.40883 -0.433,0.2679 -0.441,0.64432 -0.03,1.5409 0.488,1.07077 0.619,1.11589 1.34,0.46295 0.44,-0.3979 1.199,-0.72345 1.686,-0.72345 z m 40.842,0.53464 c 0,-0.49811 -0.224,-0.84022 -0.497,-0.76024 -0.274,0.08 -1.145,0.31168 -1.938,0.51492 l -1.44,0.36951 1.92,0.3226 c 1.057,0.17743 1.929,0.35326 1.938,0.39073 0.01,0.0375 0.02,-0.33941 0.02,-0.83752 z m -80.453,-0.0545 c 0,-0.26406 -0.216,-0.4801 -0.48,-0.4801 -0.264,0 -0.48,0.21604 -0.48,0.4801 0,0.26405 0.216,0.48009 0.48,0.48009 0.264,0 0.48,-0.21604 0.48,-0.48009 z m 7.924,-0.48349 c 0.304,-0.49199 -0.239,-0.79773 -1.873,-1.05402 -1.322,-0.20748 -1.512,0.94376 -0.197,1.19506 0.609,0.11643 1.257,0.24111 1.44,0.27706 0.182,0.036 0.466,-0.15218 0.63,-0.4181 z m 65.753,-0.38968 c 0.461,-0.2677 2.273,-0.59859 3.621,-0.66121 0.396,-0.0184 1.098,-0.36231 1.561,-0.76424 0.462,-0.40193 0.84,-0.5982 0.84,-0.43614 0,0.16205 1.057,-0.23655 2.35,-0.88579 1.293,-0.64923 2.655,-1.18043 3.028,-1.18043 0.851,0 3.652,-2.2918 4.315,-3.53087 0.432,-0.80719 0.364,-0.89532 -0.517,-0.66514 -1.054,0.2756 -1.467,-0.74875 -0.534,-1.3251 0.264,-0.1632 0.48,-0.0415 0.48,0.2705 0,0.42269 0.183,0.41493 0.72,-0.0304 0.396,-0.32872 0.72,-0.96982 0.72,-1.42467 0,-0.45485 0.437,-1.22266 0.972,-1.70623 0.676,-0.61223 0.802,-0.98364 0.415,-1.22305 -0.371,-0.22961 -0.205,-0.53156 0.5,-0.909 0.843,-0.45102 0.942,-0.70273 0.491,-1.24616 -0.443,-0.53357 -0.407,-0.74165 0.165,-0.96121 0.956,-0.36686 1.972,-2.85494 1.581,-3.87277 -0.168,-0.43973 0.02,-1.16054 0.424,-1.60501 0.402,-0.44374 0.778,-1.43871 0.836,-2.21103 0.06,-0.77232 0.436,-1.67017 0.841,-1.99522 0.565,-0.4527 0.599,-0.68255 0.147,-0.98224 -0.438,-0.29064 -0.338,-0.60711 0.391,-1.23085 1.043,-0.89371 1.095,-3.04652 0.07,-2.83705 -0.323,0.066 -0.588,-0.096 -0.588,-0.36008 0,-0.26405 0.284,-0.48009 0.632,-0.48009 0.428,0 0.591,-0.54105 0.502,-1.66527 -0.07,-0.91589 0.07,-1.78844 0.312,-1.939 0.243,-0.15056 0.315,-0.91349 0.158,-1.69542 -0.157,-0.78431 -0.08,-1.42167 0.176,-1.42167 0.253,0 0.491,-0.27006 0.529,-0.60012 0.04,-0.33007 0.177,-1.6004 0.31,-2.82296 0.133,-1.22256 0.445,-2.75921 0.695,-3.41478 0.341,-0.89948 0.267,-1.37795 -0.305,-1.95006 -0.691,-0.69076 -0.645,-0.78656 0.517,-1.07817 0.701,-0.17602 1.275,-0.50589 1.275,-0.73303 0,-0.22714 -0.324,-0.28862 -0.72,-0.13663 -0.453,0.17358 -0.721,-0.005 -0.721,-0.4801 0,-0.47515 0.268,-0.65368 0.721,-0.4801 0.396,0.15199 0.72,0.12978 0.72,-0.0494 0,-0.17914 -0.324,-0.64977 -0.72,-1.04585 -0.952,-0.95168 -0.92,-1.79119 0.05,-1.41763 0.539,0.20694 0.694,0.0891 0.511,-0.389 -0.145,-0.37722 0.06,-0.81023 0.457,-0.96225 0.396,-0.15201 0.567,-0.52333 0.381,-0.82516 -0.187,-0.30182 -0.389,-1.00549 -0.45,-1.5637 -0.06,-0.55822 -0.137,-1.18972 -0.171,-1.40334 -0.03,-0.21363 -0.331,-0.22617 -0.661,-0.0279 -0.408,0.24498 -0.389,0.10019 0.06,-0.45176 0.363,-0.44677 0.932,-0.81231 1.265,-0.81231 0.8,0 1.071,-1.6107 1.009,-5.99141 -0.03,-1.98559 0.126,-3.61024 0.343,-3.61034 0.216,-1.1e-4 0.04,-0.35211 -0.388,-0.78224 -0.475,-0.47456 -0.646,-1.08804 -0.436,-1.56031 0.435,-0.97671 0.576,-3.50161 0.232,-4.13895 -0.142,-0.26405 -0.331,-1.02021 -0.42,-1.68034 -0.09,-0.66013 -0.365,-1.27226 -0.613,-1.36028 -0.247,-0.088 -0.45,-0.44809 -0.45,-0.80016 0,-0.35207 -0.27,-0.7491 -0.6,-0.88228 -0.359,-0.14466 -0.262,-0.25741 0.24,-0.28006 0.462,-0.0208 0.84,-0.3555 0.84,-0.74367 0,-0.81695 -2.735,-2.95618 -3.539,-2.76798 -0.298,0.0698 -0.123,-0.20022 0.39,-0.60012 0.513,-0.39991 1.13,-0.7271 1.372,-0.7271 0.241,0 0.277,-0.37808 0.08,-0.84017 -0.198,-0.46209 -0.416,-1.44077 -0.485,-2.17485 -0.07,-0.73407 -0.411,-1.67958 -0.761,-2.10113 -0.35,-0.42155 -0.681,-1.46322 -0.735,-2.31482 -0.06,-0.8516 -0.525,-2.30699 -1.046,-3.23419 -1.625,-2.89351 -2.225,-3.91177 -2.611,-4.43345 -1.602,-2.16673 -5.71,-8.37258 -6.055,-9.14629 -1.079,-2.41932 -2.013,-4.84321 -2.036,-5.28107 -0.01,-0.26405 -0.34,-1.23368 -0.725,-2.15473 -0.643,-1.53866 -1.497,-4.49138 -1.808,-6.24697 -0.07,-0.39608 -0.507,-1.58432 -0.97,-2.64053 -0.463,-1.05622 -0.877,-2.40634 -0.919,-3.00027 -0.04,-0.59394 -0.235,-1.08003 -0.427,-1.08022 -0.193,-1.9e-4 -0.275,-0.65292 -0.182,-1.45051 0.09,-0.79759 0,-1.5575 -0.217,-1.68868 -0.522,-0.32232 -0.415,-3.10241 0.119,-3.10241 0.233,0 0.208,-0.40368 -0.06,-0.89707 -0.264,-0.49339 -0.326,-1.06814 -0.137,-1.27722 0.189,-0.20908 0.07,-0.22473 -0.257,-0.0348 -0.371,0.21359 -0.6,0.0598 -0.6,-0.40312 0,-0.41167 0.204,-0.74848 0.452,-0.74848 0.249,0 0.364,-0.46132 0.256,-1.02516 -0.272,-1.40782 -0.708,-1.74952 -0.708,-0.55393 0,0.53978 -0.322,1.2484 -0.715,1.5747 -0.393,0.32631 -0.624,0.74 -0.513,0.91932 0.11,0.17932 -0.27,0.35899 -0.846,0.39928 -0.911,0.0637 -0.94,0.0126 -0.227,-0.39314 0.454,-0.25808 0.699,-0.78233 0.549,-1.17382 -0.17,-0.44233 0.02,-0.70745 0.5,-0.70745 0.763,0 1.02,-1.00539 0.828,-3.24065 -0.05,-0.59412 0.144,-1.08022 0.434,-1.08022 0.29,0 0.389,0.27006 0.222,0.60012 -0.168,0.33007 0.143,0.06 0.691,-0.60012 0.549,-0.66013 1.26,-1.51151 1.582,-1.89194 0.754,-0.89184 0.99,-2.42893 0.373,-2.42893 -0.263,0 -0.478,0.18003 -0.478,0.40008 0,0.22004 -0.32,0.40008 -0.711,0.40008 -0.439,0 -0.07,-0.62125 0.96,-1.62344 1.731,-1.68096 2.358,-3.1886 0.832,-2.00108 -2.301,1.79029 -3.255,3.16364 -3.054,4.39522 0.03,0.20384 -0.457,0.56726 -1.089,0.80761 -0.633,0.24035 -1.667,0.95405 -2.299,1.58602 -0.632,0.63196 -1.854,1.39485 -2.716,1.69532 -0.862,0.30047 -2.176,0.97992 -2.921,1.50989 -0.744,0.52997 -1.46,0.85672 -1.59,0.72611 -0.131,-0.1306 -0.511,0.0918 -0.845,0.49428 -0.334,0.40247 -0.914,0.73175 -1.288,0.73175 -0.375,0 -1.317,0.47042 -2.095,1.04538 -1.451,1.07237 -6.083,1.97967 -6.518,1.2765 -0.133,-0.21585 -0.863,0.0664 -1.621,0.62714 -1.241,0.91693 -1.815,0.99357 -5.708,0.76103 -2.381,-0.14222 -4.514,-0.37277 -4.74,-0.51234 -0.226,-0.13958 -0.725,-0.0355 -1.108,0.2312 -0.533,0.3705 -0.555,0.54268 -0.09,0.72947 0.75,0.304 0.3,1.12269 -0.617,1.12269 -0.435,0 -0.566,-0.28642 -0.368,-0.8035 0.23,-0.59972 0.112,-0.72822 -0.465,-0.5067 -0.492,0.18884 -0.828,0.0153 -0.924,-0.47722 -0.185,-0.95829 -3.591,-1.34323 -4.585,-0.51829 -0.502,0.41706 -0.766,0.42231 -1.015,0.0202 -0.496,-0.80251 -3.611,-1.28515 -3.151,-0.48832 0.194,0.33737 0.229,0.50538 0.08,0.37335 -0.152,-0.13202 -0.31,-0.45609 -0.351,-0.72014 -0.157,-1.01585 -1.646,-2.15438 -3.198,-2.44552 -0.891,-0.16713 -1.738,-0.49542 -1.883,-0.72954 -0.144,-0.23412 -0.576,-0.42567 -0.96,-0.42567 -0.383,0 -1.637,-0.44196 -2.786,-0.98213 -1.149,-0.54017 -2.281,-0.92784 -2.516,-0.86149 -0.234,0.0664 -1.074,-0.21183 -1.866,-0.6182 -0.792,-0.40637 -2.434,-0.78915 -3.648,-0.85063 -2.187,-0.11074 -4.034,-0.36387 -4.034,-0.55287 0,-0.67325 -7.387,-0.70237 -8.057,-0.0318 -0.295,0.29502 -1.223,0.5364 -2.062,0.5364 -0.839,0 -1.781,0.30707 -2.092,0.68237 -0.467,0.56285 -0.382,0.6342 0.485,0.4073 0.765,-0.19994 0.991,-0.0913 0.826,0.39784 -0.125,0.37011 0.112,0.9222 0.526,1.22687 0.642,0.47311 0.508,0.65431 -0.918,1.24179 -1.233,0.50767 -1.891,0.5524 -2.511,0.17074 -1.09,-0.67092 -1.09,-1.4442 0,-1.0292 0.669,0.25466 0.719,0.19793 0.247,-0.27834 -0.474,-0.477 -0.838,-0.36889 -1.799,0.53356 -1.265,1.18848 -1.282,2.02512 -0.02,0.97757 0.44,-0.36502 0.732,-0.40753 0.732,-0.10656 0,0.65533 2.681,1.23687 3.466,0.75177 0.335,-0.20708 1.436,-0.39724 2.446,-0.42257 l 1.836,-0.0461 -1.098,0.82802 c -0.79,0.59561 -1.338,0.69949 -1.954,0.37011 -1.026,-0.54936 -1.156,0.16843 -0.178,0.98069 0.463,0.38432 0.776,0.40292 0.989,0.0588 0.171,-0.27687 0.568,-0.48635 0.883,-0.4655 0.412,0.0273 0.404,0.10545 -0.03,0.28005 -0.963,0.38872 -0.69,1.60243 0.361,1.60243 0.894,0 1.202,-0.52563 0.982,-1.68034 -0.05,-0.26405 0.167,-0.22692 0.482,0.0825 0.844,0.82878 2.091,0.25076 1.36,-0.63027 -0.739,-0.89097 -0.478,-1.08608 1.9,-1.41871 1.345,-0.18813 1.997,-0.0994 1.997,0.27179 0,0.30311 0.201,0.42681 0.447,0.27489 0.246,-0.15191 0.586,-0.051 0.756,0.22423 0.17,0.27525 0.887,0.44081 1.594,0.36791 1.274,-0.13152 1.323,-0.0597 1.469,2.14792 0.03,0.51302 0.476,0.86563 1.135,0.90555 l 1.081,0.0654 -1.082,0.2082 c -0.594,0.1145 -1.329,0.6792 -1.632,1.25488 -0.303,0.57568 -0.781,1.19632 -1.063,1.3792 -0.295,0.19189 0.05,0.54682 0.821,0.83927 0.783,0.29748 1.197,0.72658 1.004,1.03902 -0.23,0.37174 -0.453,0.33582 -0.742,-0.11913 -0.576,-0.9097 -0.532,-0.0638 0.05,1.03139 0.322,0.60128 0.322,0.99813 0,1.19701 -0.562,0.3474 -0.66,3.60153 -0.108,3.60153 0.782,0 2.51,-1.52728 2.234,-1.97426 -0.159,-0.25756 0,-0.82436 0.352,-1.25956 0.458,-0.56423 0.47,-0.68782 0.04,-0.43073 -0.331,0.1983 -0.601,0.13175 -0.601,-0.14789 0,-0.27964 0.456,-0.50843 1.012,-0.50843 0.778,0 0.93,0.19404 0.658,0.84017 -0.194,0.46209 -0.395,1.24423 -0.446,1.73808 -0.05,0.49385 -0.577,1.15654 -1.168,1.47266 -0.991,0.53046 -2.926,2.97474 -2.933,3.70572 0,0.17332 0.432,0.20129 0.964,0.0622 0.731,-0.19107 0.897,-0.07 0.681,0.49472 -0.158,0.41123 -0.594,0.6302 -0.968,0.4866 -0.386,-0.14802 -0.68,0.0275 -0.68,0.40515 0,0.36644 0.668,0.91835 1.484,1.22647 0.875,0.3304 1.35,0.77689 1.158,1.08844 -0.18,0.29052 -0.167,0.89596 0.03,1.34541 0.859,1.97615 0.399,2.57753 -1.199,1.56656 -0.557,-0.35232 -0.574,-0.57517 -0.09,-1.15941 0.495,-0.5966 0.427,-0.81615 -0.391,-1.25372 -0.948,-0.50755 -1.181,-0.35024 -1.041,0.70355 0.03,0.26406 -0.253,0.0757 -0.639,-0.41865 -0.66,-0.84379 -0.697,-0.81443 -0.596,0.4801 0.109,1.41495 -0.977,3.20184 -1.682,2.76621 -0.217,-0.13409 -0.394,0.10334 -0.394,0.52761 0,0.42428 -0.526,1.25838 -1.168,1.85358 -1.144,1.06005 -1.148,1.09424 -0.221,1.67311 1.209,0.7554 0.727,1.71297 -0.526,1.04267 -0.493,-0.26383 -1.236,-0.34932 -1.651,-0.18999 -0.843,0.32344 -1.04,1.62726 -0.247,1.62726 0.28,0 0.375,-0.21605 0.212,-0.4801 -0.163,-0.26405 -0.07,-0.4801 0.212,-0.4801 0.279,0 0.508,0.22552 0.508,0.50115 0,0.27562 0.378,0.43766 0.84,0.36007 0.689,-0.11554 0.848,0.23569 0.879,1.94059 0.02,1.23963 0.314,2.2562 0.72,2.51316 0.555,0.35089 0.525,0.43287 -0.158,0.43885 -0.462,0.004 -0.84,-0.2087 -0.84,-0.47275 0,-1.02496 -1.405,-0.41031 -2.059,0.90083 -0.587,1.17599 -0.592,1.61166 -0.03,2.9357 0.845,2.0106 0.843,2.01838 -0.427,1.838 -0.594,-0.0844 -1.08,-0.40546 -1.08,-0.71353 0,-0.97294 -0.67,-1.27927 -1.426,-0.65188 -0.401,0.33285 -1.153,0.49449 -1.67,0.35921 -0.888,-0.23222 -0.899,-0.1816 -0.186,0.90594 0.563,0.85907 0.619,1.31507 0.222,1.79379 -0.293,0.35304 -0.42,0.75481 -0.282,0.89283 0.481,0.48116 0.651,2.32713 0.188,2.04085 -0.254,-0.15733 -0.361,-0.45116 -0.236,-0.65296 0.125,-0.20179 -0.08,-0.3669 -0.465,-0.3669 -0.521,0 -0.561,0.15708 -0.16,0.64013 0.394,0.47413 0.361,0.85077 -0.127,1.45243 -0.568,0.70026 -0.56,0.7558 0.06,0.40268 0.396,-0.22529 0.261,0.11131 -0.299,0.74801 -0.561,0.6367 -0.927,1.40789 -0.815,1.71376 0.112,0.30587 0,0.68443 -0.257,0.84126 -0.273,0.16846 -0.09,1.0577 0.451,2.17333 0.781,1.61592 1.092,1.85559 2.159,1.66204 0.686,-0.12439 1.771,-0.56911 2.411,-0.98825 1.091,-0.71481 1.154,-0.70629 1.023,0.13724 -0.08,0.49463 -0.308,1.16938 -0.514,1.49945 -0.206,0.33006 -0.241,0.81616 -0.08,1.08021 0.163,0.26406 0.04,0.4801 -0.268,0.4801 -0.31,0 -0.464,0.38446 -0.341,0.85435 0.123,0.46989 -0.07,1.12843 -0.429,1.46343 -0.473,0.44258 -0.519,0.85727 -0.166,1.517 0.342,0.63871 0.321,1.00973 -0.07,1.25128 -0.345,0.21303 -0.426,0.13297 -0.213,-0.21091 0.188,-0.30485 0.131,-0.55427 -0.128,-0.55427 -0.471,0 -1.312,2.73696 -1.093,3.55595 0.198,0.74129 -1.053,5.08579 -1.465,5.08579 -0.214,0 -0.389,0.33682 -0.389,0.74848 0,0.41167 0.162,0.64876 0.36,0.52689 0.198,-0.12188 0.416,0.54168 0.485,1.47459 0.105,1.42875 0.02,1.60573 -0.567,1.12246 -0.556,-0.46162 -0.799,-0.37236 -1.243,0.45679 -0.496,0.92732 -0.44,1.01605 0.567,0.88598 0.615,-0.0795 1.402,0.0325 1.75,0.24879 0.348,0.21634 0.766,0.25928 0.93,0.0954 0.521,-0.52086 0.459,-2.19814 -0.08,-2.21333 -0.286,-0.008 -0.142,-0.2348 0.32,-0.50395 0.462,-0.26914 0.841,-0.70741 0.841,-0.97393 0,-0.26651 -0.25,-0.33042 -0.555,-0.14201 -0.362,0.22369 -0.423,0.13035 -0.176,-0.26898 0.208,-0.33634 0.442,-1.80579 0.52,-3.26544 0.08,-1.45964 0.389,-2.80632 0.69,-2.99261 0.302,-0.18629 0.586,-1.55879 0.632,-3.05 0.05,-1.4969 0.306,-2.71129 0.581,-2.71129 0.541,0 1.798,-2.91107 1.42,-3.28902 -0.128,-0.12743 -0.247,0.0744 -0.266,0.44844 -0.02,0.38754 -0.197,0.26706 -0.413,-0.28005 -0.209,-0.52811 -0.279,-1.23025 -0.155,-1.56032 0.273,-0.72865 1.562,-0.80431 1.562,-0.0917 0,0.27964 0.216,0.37491 0.481,0.21172 0.864,-0.53445 0.504,-1.17607 -0.841,-1.49735 -0.726,-0.17347 -1.587,-0.52598 -1.914,-0.78336 -0.413,-0.32458 -0.686,-0.23074 -0.892,0.30625 -0.163,0.42582 -0.76,0.7709 -1.326,0.76686 -0.709,-0.005 -0.839,-0.12803 -0.417,-0.39542 0.467,-0.29643 0.382,-0.59569 -0.36,-1.2673 -0.742,-0.67076 -0.976,-0.7193 -0.987,-0.2047 -0.01,0.4649 -0.171,0.40561 -0.518,-0.19078 -0.352,-0.60634 -0.349,-1.0506 0.01,-1.48446 0.282,-0.34054 0.371,-0.76131 0.198,-0.93506 -0.174,-0.17374 0.05,-0.3159 0.493,-0.3159 0.594,0 0.754,0.30886 0.6,1.15942 -0.269,1.48003 0.08,1.81408 1.245,1.19086 0.663,-0.35445 1.127,-0.3317 1.622,0.0795 0.412,0.34183 1.453,0.47429 2.56,0.32581 1.328,-0.17819 2.086,-0.0294 2.632,0.51695 0.599,0.59919 0.894,0.64026 1.347,0.1876 0.319,-0.31875 0.914,-0.57624 1.324,-0.57219 0.568,0.006 0.598,0.0998 0.127,0.39845 -0.339,0.21561 -0.478,0.75089 -0.308,1.19289 0.169,0.44099 0.09,0.80179 -0.182,0.80179 -0.269,0 -0.635,0.81016 -0.814,1.80036 -0.215,1.19445 -0.827,2.20292 -1.818,2.99647 -1.1,0.88049 -1.412,0.98195 -1.183,0.38452 0.227,-0.58981 0.115,-0.73615 -0.407,-0.53557 -1.23,0.47178 -0.553,1.8383 0.895,1.80879 1.289,-0.0262 1.623,0.27652 0.997,0.90275 -0.174,0.17375 -0.641,0.0477 -1.039,-0.28005 -0.631,-0.52072 -0.681,-0.3328 -0.391,1.48851 0.182,1.14646 0.748,2.90207 1.258,3.90135 0.51,0.99929 0.811,1.93292 0.669,2.07473 -0.142,0.14181 0.109,0.81669 0.556,1.49974 0.448,0.68304 0.616,1.24189 0.375,1.24189 -0.658,0 -1.592,-1.06223 -1.592,-1.81065 0,-0.36213 -0.337,-0.99491 -0.748,-1.40617 -0.411,-0.41127 -0.637,-1.03705 -0.501,-1.39063 0.136,-0.35357 0.04,-0.77055 -0.212,-0.92662 -0.775,-0.47888 -0.511,1.1499 0.511,3.15272 0.533,1.04569 0.852,1.90126 0.709,1.90126 -0.144,0 0.07,0.51095 0.483,1.13544 0.541,0.82591 0.622,1.45446 0.299,2.30572 -0.277,0.72752 -0.272,1.48004 0.01,1.989 0.252,0.45029 0.303,1.06975 0.113,1.37659 -0.23,0.37336 -0.08,0.45648 0.454,0.25131 0.493,-0.18916 0.799,-0.0673 0.799,0.31828 0,0.51101 -0.963,0.65314 -2.339,0.34522 -0.1,-0.022 0.08,-0.35461 0.402,-0.73912 0.735,-0.8864 0.232,-1.75372 -0.79,-1.36142 -0.633,0.24288 -0.72,0.0696 -0.467,-0.93656 0.17,-0.67902 0.442,-1.57944 0.604,-2.00093 0.219,-0.57103 -0.09,-0.84243 -1.198,-1.06481 -1.33,-0.26597 -2.149,-1.13863 -1.069,-1.13863 0.798,0 0.908,-2.37351 0.139,-2.99755 -0.621,-0.5042 -0.694,-0.47435 -0.449,0.1819 0.187,0.49981 -0.158,1.17774 -0.949,1.86569 l -1.243,1.08062 1.279,0.67015 c 1.272,0.66645 1.718,2.23201 0.798,2.80073 -0.714,0.44121 0.35,2.17987 1.147,1.87411 0.759,-0.29126 1.437,1.0762 0.746,1.50356 -0.257,0.15873 -0.343,0.48971 -0.191,0.73552 0.152,0.24581 -0.04,0.44693 -0.42,0.44693 -0.383,0 -0.834,0.54894 -1.003,1.21987 -0.168,0.67094 -0.493,1.10426 -0.722,0.96295 -0.228,-0.1413 -0.546,0.0836 -0.706,0.49973 -0.461,1.20271 -0.344,1.63832 0.442,1.63832 0.651,0 0.647,0.16535 -0.03,1.47277 -0.739,1.43022 -0.734,1.45792 0.199,0.95889 1.057,-0.56566 1.446,-0.23557 1.238,1.05133 -0.07,0.46335 0.02,0.74766 0.205,0.6318 0.188,-0.11586 0.623,-0.0363 0.968,0.17685 0.779,0.48116 1.096,4.00287 0.336,3.72334 -0.291,-0.10679 -1.064,0.31462 -1.719,0.93645 -0.654,0.62183 -0.924,1.13061 -0.6,1.13061 0.325,0 0.59,0.34718 0.59,0.77151 0,0.42433 0.27,0.67002 0.6,0.54598 2.399,-0.90131 2.761,-0.89716 2.761,0.0317 0,0.51357 -0.324,1.20271 -0.72,1.53143 -0.977,0.8111 -0.919,1.13084 0.523,2.84375 0.683,0.81242 1.089,1.47712 0.901,1.47712 -0.188,0 -0.07,0.32407 0.256,0.72015 0.329,0.39608 0.437,0.72015 0.24,0.72015 -0.196,0 -0.08,0.32928 0.25,0.73174 0.937,1.12864 0.287,1.29645 -0.865,0.22338 -1.077,-1.00409 -2.025,-1.2504 -2.025,-0.52639 0,0.2358 -0.355,0.56481 -0.788,0.73113 -0.679,0.26029 -0.698,0.19384 -0.141,-0.47716 0.896,-1.07948 0.977,-2.123 0.166,-2.123 -0.373,0 -0.694,0.16204 -0.713,0.36008 -0.151,1.52071 -0.547,2.76684 -0.96,3.02219 -0.27,0.16682 -0.564,0.93235 -0.653,1.70118 -0.09,0.76882 -0.187,1.57265 -0.217,1.78627 -0.03,0.21363 -0.304,0.23426 -0.609,0.0458 -0.344,-0.21224 -0.424,-0.1317 -0.212,0.21171 0.188,0.30485 0.755,0.55428 1.259,0.55428 1.441,0 0.616,1.29043 -1.036,1.62082 -0.845,0.16904 -1.311,0.49886 -1.127,0.79734 0.222,0.35866 0.496,0.35865 0.929,-4e-5 0.337,-0.28 1.111,-0.45252 1.72,-0.38339 0.896,0.10169 1.123,-0.11965 1.189,-1.15846 0.06,-0.92545 -0.2,-1.37033 -0.924,-1.59263 -0.632,-0.1942 -0.781,-0.4006 -0.401,-0.5572 0.332,-0.13681 0.481,-0.44634 0.332,-0.68784 -0.149,-0.2415 0.01,-0.4424 0.357,-0.44644 0.458,-0.005 0.433,-0.13588 -0.09,-0.4801 -0.626,-0.41141 -0.629,-0.53092 -0.02,-0.92116 0.384,-0.24663 0.901,-0.32266 1.15,-0.16896 0.249,0.15371 1.091,0.2613 1.872,0.23908 1.648,-0.0469 1.56,0.27482 -0.147,0.53531 -1.376,0.20989 -1.512,1.18282 -0.331,2.3635 0.848,0.84787 1.204,3.04204 0.414,2.55413 -0.234,-0.14471 -0.713,0.1126 -1.064,0.57178 -0.351,0.45919 -0.461,0.68584 -0.243,0.50367 0.217,-0.18216 0.662,-0.0815 0.989,0.22375 0.467,0.43634 0.379,0.72919 -0.411,1.37011 -1.151,0.93282 -0.872,1.44424 0.843,1.54676 0.846,0.0506 1.056,0.2327 0.727,0.62935 -0.304,0.36619 -0.215,1.15056 0.257,2.28046 0.679,1.62478 0.668,1.72229 -0.193,1.72229 -0.761,0 -0.872,0.26015 -0.666,1.56032 0.137,0.85817 0.263,1.88438 0.281,2.28046 0.04,0.97131 1.337,2.40049 2.169,2.40049 0.895,0 0.284,0.93686 -0.895,1.37322 -0.823,0.30451 -0.701,0.49877 1.025,1.62882 1.574,1.03091 2.192,1.19457 3.144,0.83273 0.673,-0.25574 1.185,-0.83578 1.185,-1.34239 0,-0.49063 0.314,-0.89206 0.699,-0.89206 0.384,0 0.579,0.19448 0.432,0.43219 -0.147,0.2377 0.02,0.39214 0.381,0.3432 1.481,-0.20336 2.329,0.0676 2.329,0.74492 0,0.39608 0.231,0.72014 0.515,0.72014 0.283,0 0.442,0.37808 0.352,0.84017 -0.09,0.4621 -0.502,0.84364 -0.917,0.84787 -0.415,0.004 -1.129,0.38231 -1.587,0.84017 -0.458,0.45786 -1.237,0.83247 -1.73,0.83247 -1.246,0 -1.525,0.65334 -0.738,1.72964 0.649,0.88695 0.697,0.8825 1.816,-0.16932 0.633,-0.59412 1.514,-1.08022 1.959,-1.08022 0.445,0 0.81,-0.32407 0.81,-0.72015 0,-1.0511 1.286,-0.88159 1.57,0.20704 0.139,0.52932 -0.146,1.34475 -0.664,1.90031 -0.959,1.02982 -1.19,1.97348 -0.482,1.97348 0.233,0 0.53,-0.40724 0.661,-0.90497 0.178,-0.68381 0.544,-0.84613 1.496,-0.66418 1.469,0.28081 1.57,0.0281 0.442,-1.10043 -0.771,-0.77031 -0.751,-0.79649 0.337,-0.45105 1.101,0.34933 1.116,0.32684 0.315,-0.47382 -0.796,-0.79591 -0.796,-0.88912 -0.01,-1.75503 0.894,-0.98687 1.597,-0.49582 1.612,1.12477 0.01,1.18397 1.427,1.84192 2.525,1.17279 0.759,-0.46253 1.055,-0.33889 1.883,0.78652 l 0.982,1.33532 1.075,-1.16005 c 0.747,-0.80617 1.849,-1.26646 3.612,-1.50885 1.834,-0.25233 2.443,-0.19905 2.201,0.19263 -0.184,0.29779 -0.513,0.43104 -0.732,0.29612 -0.218,-0.13492 -0.905,0.20208 -1.527,0.74889 -0.621,0.54681 -0.86,0.85697 -0.53,0.68924 0.33,-0.16773 0.6,-0.0829 0.6,0.18841 0,0.27135 0.27,0.41016 0.6,0.30848 0.33,-0.10169 1.195,-0.31507 1.921,-0.47418 0.726,-0.15911 1.32,-0.59555 1.32,-0.96987 0,-0.41691 0.605,-0.73887 1.561,-0.83103 0.948,-0.0914 1.56,-0.41495 1.56,-0.82449 0,-0.39682 0.592,-0.73341 1.44,-0.81836 0.792,-0.0794 2.251,-0.28578 3.241,-0.45869 1.549,-0.2705 1.799,-0.18978 1.793,0.57831 0,0.70244 -0.1,0.75001 -0.431,0.22323 -0.351,-0.55431 -0.711,-0.49237 -2.09,0.36008 -0.916,0.56624 -1.992,1.02953 -2.391,1.02953 -0.398,0 -0.991,0.32169 -1.318,0.71486 -0.326,0.39317 -0.785,0.59646 -1.019,0.45176 -0.234,-0.1447 -0.425,0.17496 -0.425,0.71037 0,0.63676 -0.233,0.88432 -0.672,0.71575 -0.369,-0.14175 -0.814,-0.0269 -0.989,0.25511 -0.202,0.32701 0.303,0.51283 1.392,0.51283 2.074,0 2.471,-0.11445 2.289,-0.6599 -0.08,-0.23092 0.398,-0.31696 1.056,-0.1912 0.735,0.14049 1.292,-0.02 1.444,-0.41631 0.136,-0.35474 0.741,-0.61698 1.344,-0.58276 0.604,0.0342 1.691,-0.17828 2.418,-0.47222 0.726,-0.29393 1.32,-0.42415 1.32,-0.28937 0,0.13478 0.427,0.0164 0.949,-0.26304 0.758,-0.40528 0.897,-0.36995 0.688,0.17459 -0.144,0.37548 0.02,0.85635 0.362,1.0686 1.019,0.62952 2.393,0.56454 2.658,-0.12568 0.136,-0.35376 0.656,-0.6432 1.156,-0.6432 0.499,0 0.908,-0.19084 0.908,-0.4241 0,-0.78012 1.929,-0.93956 2.649,-0.21901 0.819,0.81858 0.932,1.60331 0.232,1.60331 -0.264,0 -0.48,-0.17994 -0.48,-0.39987 0,-0.62484 -2.082,-0.31541 -2.301,0.34201 -0.108,0.32271 0.07,1.23728 0.403,2.03238 l 0.599,1.44563 1.317,-1.44235 c 0.725,-0.7933 1.419,-1.34074 1.543,-1.21655 0.504,0.50312 2.76,-0.79343 2.767,-1.58954 0,-0.60686 0.118,-0.67901 0.389,-0.25072 0.222,0.34832 1.031,0.52584 1.923,0.4219 0.848,-0.0987 1.658,0.009 1.8,0.23884 0.142,0.23005 -0.108,0.41827 -0.557,0.41827 -0.449,0 -1.087,0.37085 -1.418,0.82412 -0.496,0.67784 -0.466,0.92416 0.168,1.3877 0.646,0.47208 0.676,0.77048 0.19,1.83809 l -0.581,1.27451 1.8,-0.32478 c 0.99,-0.17863 2.007,-0.44491 2.26,-0.59174 z m -2.266,-2.05758 c 0.139,-0.53313 0.662,-0.91126 1.262,-0.91299 0.563,-0.002 1.643,-0.32569 2.4,-0.72014 1.745,-0.91036 2.225,-0.90362 2.225,0.0313 0,0.41166 -0.216,0.61495 -0.48,0.45176 -0.264,-0.16319 -0.48,-0.0931 -0.48,0.15575 0,0.24885 -0.486,0.56489 -1.08,0.70231 -0.594,0.13741 -1.757,0.46409 -2.583,0.72594 -1.352,0.42841 -1.478,0.38494 -1.264,-0.43392 z m -24.84,-6.6712 c 0,-0.26405 0.216,-0.48009 0.48,-0.48009 0.264,0 0.48,0.21604 0.48,0.48009 0,0.26406 -0.216,0.4801 -0.48,0.4801 -0.264,0 -0.48,-0.21604 -0.48,-0.4801 z m 22.35,0.04 c -0.33,-0.5346 -0.138,-0.56348 5.256,-0.78881 3.092,-0.12912 5.229,-0.45412 5.961,-0.9061 0.25,-0.15461 0.581,-0.0765 0.736,0.17365 0.563,0.91064 -0.174,1.05997 -8.924,1.80942 -1.671,0.14315 -2.831,0.0328 -3.029,-0.28816 z m -21.986,-2.06773 c -0.197,-0.5913 0.635,-3.93239 1.094,-4.39091 0.132,-0.13262 0.241,0.60919 0.241,1.64848 0,1.03929 -0.179,1.88961 -0.398,1.88961 -0.218,0 -0.273,0.20112 -0.121,0.44692 0.152,0.24581 0.08,0.57122 -0.171,0.72314 -0.246,0.15192 -0.536,0.009 -0.645,-0.31724 z m 41.796,0.25951 c 0.346,-0.13868 0.761,-0.12163 0.92,0.0379 0.16,0.15954 -0.124,0.27301 -0.63,0.25216 -0.559,-0.023 -0.673,-0.1368 -0.29,-0.29006 z m -74.808,-8.07374 c 0,-0.39608 0.21,-0.72014 0.465,-0.72014 0.256,0 0.341,0.32406 0.189,0.72014 -0.152,0.39608 -0.361,0.72015 -0.465,0.72015 -0.104,0 -0.189,-0.32407 -0.189,-0.72015 z m 34.218,-2.67379 c -0.04,-0.50981 0.133,-0.92693 0.38,-0.92693 0.547,0 0.603,1.28974 0.07,1.61874 -0.209,0.12932 -0.412,-0.182 -0.45,-0.69181 z m 9.826,-2.17411 c -0.406,-0.40617 0.132,-1.63341 0.717,-1.63341 0.307,0 0.289,0.23922 -0.05,0.6443 -0.294,0.35436 -0.393,0.78645 -0.219,0.96019 0.174,0.17375 0.208,0.3159 0.08,0.3159 -0.132,0 -0.369,-0.12914 -0.527,-0.28698 z m -11.202,-0.74739 c -0.212,-0.34342 -0.131,-0.42396 0.212,-0.21172 0.328,0.20299 0.554,0.0376 0.554,-0.40592 0,-1.10229 0.744,-0.91222 0.828,0.21172 0.08,1.03459 -1.031,1.31698 -1.594,0.40592 z m 0.393,-3.77609 c -0.324,-1.27887 -0.326,-2.01536 0,-2.21374 0.321,-0.19845 0.321,-0.39703 0,-0.59734 -0.734,-0.45718 -0.901,-2.58399 -0.221,-2.81595 0.393,-0.13393 0.626,0.34839 0.673,1.39566 0.113,2.46943 0.154,2.7076 0.534,3.08675 0.493,0.493 0.443,2.4823 -0.07,2.79941 -0.233,0.14392 -0.642,-0.60073 -0.91,-1.65479 z m -34.065,0.0428 c 0.04,-0.50981 0.231,-0.82696 0.429,-0.70477 0.198,0.12219 0.238,0.53931 0.09,0.92693 -0.375,0.97741 -0.601,0.88041 -0.518,-0.22216 z m 45.189,0.22297 c 0.151,-1.02799 0.772,-1.51444 0.772,-0.60463 0,0.42451 -0.197,0.89363 -0.438,1.0425 -0.241,0.14887 -0.391,-0.0482 -0.334,-0.43787 z m 0.187,-4.07726 c 0.237,-1.62101 1.065,-2.00925 1.065,-0.49984 0,0.5281 0.05,1.11926 0.12,1.31369 0.07,0.19442 -0.222,0.41935 -0.64,0.49984 -0.594,0.11435 -0.713,-0.17286 -0.545,-1.31369 z m -43.585,-1.24832 c 0,-0.41167 0.216,-0.61496 0.48,-0.45177 0.264,0.1632 0.48,0.50001 0.48,0.74848 0,0.24847 -0.216,0.45177 -0.48,0.45177 -0.264,0 -0.48,-0.33682 -0.48,-0.74848 z m 45.61,-4.05249 c 0,-0.26406 0.229,-0.4801 0.509,-0.4801 0.279,0 0.375,0.21604 0.211,0.4801 -0.163,0.26405 -0.392,0.48009 -0.508,0.48009 -0.116,0 -0.212,-0.21604 -0.212,-0.48009 z m -13.923,-0.4801 c 0,-0.26406 0.229,-0.4801 0.508,-0.4801 0.28,0 0.375,0.21604 0.212,0.4801 -0.163,0.26405 -0.392,0.4801 -0.508,0.4801 -0.117,0 -0.212,-0.21605 -0.212,-0.4801 z m -0.12,-1.59958 c -0.571,-1.3944 -0.458,-3.49136 0.155,-2.87836 0.283,0.28328 0.445,1.24468 0.36,2.13643 -0.12,1.25598 -0.236,1.42318 -0.515,0.74193 z m 14.523,-4.16159 c 0,-0.26405 0.229,-0.48009 0.509,-0.48009 0.279,0 0.375,0.21604 0.212,0.48009 -0.164,0.26406 -0.392,0.4801 -0.509,0.4801 -0.116,0 -0.212,-0.21604 -0.212,-0.4801 z m -15.363,-1.94872 c 0,-0.27964 0.216,-0.37491 0.48,-0.21171 0.264,0.16319 0.48,0.39198 0.48,0.50843 0,0.11644 -0.216,0.21171 -0.48,0.21171 -0.264,0 -0.48,-0.22879 -0.48,-0.50843 z m 15.624,-0.89869 c -0.152,-0.2458 -0.06,-0.58262 0.212,-0.74847 0.268,-0.16586 0.488,0.0353 0.488,0.44692 0,0.8433 -0.288,0.96747 -0.7,0.30155 z m 0.01,-6.6138 c -0.26,-0.68423 -0.205,-0.73938 0.269,-0.26875 0.328,0.32566 0.476,0.71306 0.328,0.86087 -0.148,0.14782 -0.416,-0.11864 -0.597,-0.59212 z m -50.967,-3.09416 c -0.188,-0.30412 -0.363,-1.28065 -0.389,-2.17006 -0.04,-1.38415 0.04,-1.50179 0.538,-0.81662 0.322,0.44028 0.483,0.96626 0.357,1.16886 -0.125,0.2026 0.04,0.49484 0.376,0.64942 0.484,0.22559 0.484,0.33652 0,0.56211 -0.332,0.15458 -0.481,0.47864 -0.332,0.72014 0.149,0.2415 0.163,0.4391 0.03,0.4391 -0.132,0 -0.393,-0.24883 -0.581,-0.55295 z m 70.314,-4.24802 c -0.17,-1.4523 -0.224,-2.73056 -0.12,-2.84058 0.492,-0.52535 0.708,0.56692 0.574,2.90751 l -0.147,2.5736 z m 20.262,-0.86851 c -0.02,-0.6112 -0.246,-0.97543 -0.51,-0.81183 -0.264,0.16319 -0.481,0.0679 -0.481,-0.21172 0,-0.27964 0.235,-0.50843 0.521,-0.50843 0.286,0 0.421,-0.27005 0.3,-0.60012 -0.121,-0.33007 -0.466,-0.54534 -0.766,-0.47839 -0.38,0.085 -0.364,-0.16856 0.06,-0.84017 0.483,-0.7735 0.479,-1.15734 -0.02,-1.95972 -0.449,-0.7192 -0.479,-1.1714 -0.107,-1.61949 0.284,-0.34192 0.39,-0.95127 0.235,-1.3541 -0.281,-0.73351 0.574,-1.64051 1.075,-1.13966 0.146,0.14638 0.327,1.1687 0.402,2.27181 0.08,1.10312 0.319,2.13922 0.542,2.30244 0.629,0.45999 0.772,2.45721 0.175,2.45721 -0.292,0 -0.488,0.27005 -0.436,0.60012 0.05,0.33006 -0.14,1.14023 -0.428,1.80036 -0.524,1.19832 -0.524,1.19847 -0.555,0.0917 z m -40.627,-4.29254 c -0.208,-1.25425 -0.31,-2.4965 -0.227,-2.76056 0.08,-0.26405 0.116,-1.07421 0.07,-1.80036 -0.04,-0.72615 0.09,-1.31998 0.293,-1.31963 0.202,3.6e-4 0.427,1.45865 0.5,3.24066 0.07,1.78201 0.25,3.61809 0.393,4.08018 0.143,0.4621 0.05,0.84017 -0.199,0.84017 -0.252,0 -0.627,-1.0262 -0.834,-2.28046 z m 19.959,-1.44029 c 0,-0.19804 0.217,-0.68414 0.473,-1.08022 0.376,-0.58234 0.467,-0.51343 0.473,0.36007 0,0.59412 -0.209,1.08022 -0.473,1.08022 -0.264,0 -0.477,-0.16203 -0.473,-0.36007 z m -0.168,-4.40336 c -0.423,-2.1153 -0.403,-2.54642 0.103,-2.23379 0.637,0.39348 0.91,1.85513 0.543,2.90159 -0.267,0.76234 -0.384,0.64191 -0.646,-0.6678 z m -20.523,-2.07795 c -0.02,-0.85817 -0.138,-2.15444 -0.257,-2.88058 -0.12,-0.72911 0,-1.32027 0.28,-1.32027 0.273,0 0.512,0.4861 0.53,1.08022 0.02,0.59412 0.133,1.89038 0.254,2.88058 0.128,1.05509 0.01,1.80037 -0.274,1.80037 -0.272,0 -0.512,-0.70215 -0.533,-1.56032 z m 19.984,-1.28709 c -0.152,-0.24581 -0.06,-0.58263 0.212,-0.74848 0.268,-0.16586 0.488,0.0353 0.488,0.44692 0,0.8433 -0.288,0.96747 -0.7,0.30156 z m -0.26,-2.43366 c 0,-0.89618 0.128,-1.02421 0.576,-0.57612 0.448,0.44809 0.448,0.70414 0,1.15223 -0.448,0.44809 -0.576,0.32007 -0.576,-0.57611 z m -0.24,-2.40049 c -0.164,-0.26405 -0.07,-0.4801 0.211,-0.4801 0.28,0 0.509,0.21605 0.509,0.4801 0,0.26406 -0.1,0.4801 -0.212,0.4801 -0.116,0 -0.345,-0.21604 -0.508,-0.4801 z m -0.24,-2.40048 c 0,-0.52811 0.216,-0.9602 0.48,-0.9602 0.264,0 0.48,0.43209 0.48,0.9602 0,0.5281 -0.216,0.96019 -0.48,0.96019 -0.264,0 -0.48,-0.43209 -0.48,-0.96019 z m -0.62,-5.28107 c -0.138,-0.52811 -0.05,-0.9602 0.184,-0.9602 0.24,0 0.436,0.43209 0.436,0.9602 0,0.52811 -0.08,0.96019 -0.185,0.96019 -0.101,0 -0.297,-0.43208 -0.435,-0.96019 z m 16.74,-0.64053 c -0.675,-0.70582 -0.723,-0.88936 -0.179,-0.68058 0.41,0.15723 0.959,0.0722 1.22,-0.18897 0.313,-0.31307 0.569,-0.23046 0.75,0.24246 0.479,1.24814 -0.777,1.68801 -1.791,0.62709 z m -84.681,-2.02433 c -0.594,-0.67335 -0.416,-1.67336 0.293,-1.64075 0.182,0.008 0.763,0.341 1.29,0.73911 0.821,0.62092 0.855,0.78835 0.24,1.17762 -0.933,0.58969 -1.079,0.56769 -1.823,-0.27598 z m -2.016,-0.93587 c -0.485,-0.58404 -0.466,-0.72015 0.101,-0.72015 0.385,0 0.699,0.32407 0.699,0.72015 0,0.39608 -0.04,0.72015 -0.101,0.72015 -0.06,0 -0.37,-0.32407 -0.699,-0.72015 z m 69.582,0.21604 c -0.02,-0.11882 -0.115,-1.08021 -0.214,-2.13643 l -0.181,-1.92039 0.724,1.62753 c 0.509,1.14644 0.573,1.77797 0.214,2.13644 -0.28,0.27989 -0.524,0.41168 -0.543,0.29285 z m -0.888,-6.49731 c 0.02,-0.55929 0.137,-0.67305 0.29,-0.29006 0.139,0.34657 0.122,0.76066 -0.04,0.92019 -0.159,0.15953 -0.273,-0.12403 -0.252,-0.63013 z m -0.551,-2.0004 c -0.02,-0.19804 -0.112,-0.9542 -0.207,-1.68034 -0.1,-0.72615 0.03,-1.32027 0.273,-1.32027 0.246,0 0.45,0.27005 0.454,0.60012 0,0.33007 0.136,1.08622 0.296,1.68034 0.173,0.64813 0.08,1.08022 -0.247,1.08022 -0.295,0 -0.551,-0.16203 -0.569,-0.36007 z m -0.607,-3.80077 c -0.176,-0.17604 -0.32,-0.54331 -0.32,-0.81617 0,-0.30083 0.223,-0.27248 0.568,0.072 0.312,0.31246 0.456,0.67973 0.32,0.81616 -0.136,0.13643 -0.392,0.10402 -0.568,-0.072 z m -0.919,-3.28626 c -0.274,-1.4351 -0.09,-1.51898 0.583,-0.26359 0.282,0.52723 0.313,1.04538 0.07,1.19465 -0.235,0.14497 -0.529,-0.27401 -0.655,-0.93106 z m -57.495,-2.12651 c 0,-0.24847 0.235,-0.59692 0.522,-0.77433 0.287,-0.17741 0.419,-0.71632 0.293,-1.19757 -0.207,-0.79267 0.491,-1.41711 1.585,-1.41711 0.221,0 -0.07,0.86239 -0.639,1.91643 -0.986,1.81654 -1.761,2.46428 -1.761,1.47258 z m -5.018,-1.58706 c 0.114,-0.59325 0.435,-1.15437 0.712,-1.24693 0.335,-0.11141 0.346,-0.36083 0.03,-0.73784 -0.665,-0.80087 0.103,-1.83389 1.083,-1.45772 0.594,0.22808 0.678,0.47645 0.31,0.92039 -0.367,0.44209 -0.295,0.68844 0.263,0.90275 0.683,0.26224 0.689,0.37429 0.05,1.01626 -0.397,0.39684 -0.953,0.72153 -1.236,0.72153 -0.283,0 -0.515,0.21604 -0.515,0.48009 0,0.26406 -0.203,0.4801 -0.452,0.4801 -0.249,0 -0.359,-0.48539 -0.245,-1.07863 z m 6.939,-3.21391 c 0,-0.24847 0.216,-0.58529 0.48,-0.74848 0.264,-0.16319 0.48,0.0401 0.48,0.45176 0,0.41167 -0.216,0.74848 -0.48,0.74848 -0.264,0 -0.48,-0.20329 -0.48,-0.45176 z m -3.786,-0.46418 c -0.531,-0.33608 -0.456,-0.53302 0.37,-0.97504 1.214,-0.64986 2.048,-0.29604 1.663,0.70612 -0.305,0.79424 -1.048,0.89258 -2.033,0.26892 z m 4.106,-3.2449 c -0.176,-0.17603 -0.32,-0.54331 -0.32,-0.81616 0,-0.30083 0.223,-0.27249 0.568,0.072 0.312,0.31246 0.456,0.67974 0.32,0.81617 -0.137,0.13642 -0.392,0.10402 -0.568,-0.072 z m 1.6,-1.97207 c 0,-0.55653 0.179,-1.12263 0.398,-1.25799 0.472,-0.29165 0.41,1.46153 -0.07,1.94002 -0.181,0.18142 -0.33,-0.1255 -0.33,-0.68203 z m 0.488,-5.72116 c 0,-0.57853 0.208,-1.1854 0.472,-1.3486 0.612,-0.37777 0.612,0.7345 0,1.68034 -0.378,0.58547 -0.466,0.52343 -0.472,-0.33174 z m -5.169,-9.39022 c 0.147,-0.73508 0.876,-1.30308 1.684,-1.31292 0.484,-0.006 0.485,0.18363 0,0.95284 -0.659,1.05498 -1.88,1.31532 -1.689,0.36008 z m -9.001,-7.53318 c -0.998,-0.19238 -1.44,-0.55813 -1.441,-1.19184 0,-0.50286 -0.293,-1.01246 -0.651,-1.13245 -0.471,-0.1578 -0.561,0.0632 -0.328,0.79884 0.353,1.11271 -0.304,1.37188 -1.058,0.41688 -0.693,-0.87849 -0.592,-2.38802 0.12,-1.79691 0.311,0.25757 0.705,0.32748 0.878,0.15536 0.172,-0.17213 0.756,0.0887 1.299,0.57951 1.088,0.98445 2.38,1.34256 2.38,0.65949 0,-0.24069 0.324,-0.43762 0.72,-0.43762 0.874,0 0.951,1.14897 0.12,1.77451 -0.33,0.24849 -1.248,0.32689 -2.039,0.17423 z m 3.391,-3.7284 c -0.261,-0.68423 -0.206,-0.73938 0.268,-0.26876 0.328,0.32567 0.476,0.71306 0.328,0.86088 -0.148,0.14782 -0.416,-0.11864 -0.596,-0.59212 z m 39.846,144.14371 c 0.513,-0.38768 1.418,-0.71174 2.012,-0.72014 0.595,-0.008 1.495,-0.42935 2.001,-0.93546 0.506,-0.5061 1.058,-0.78274 1.226,-0.61475 0.168,0.16799 0.169,-0.0494 0,-0.48299 -0.435,-1.13358 -1.571,-1.43072 -2.069,-0.54101 -0.295,0.52755 -0.53,0.59411 -0.764,0.21642 -0.359,-0.58213 -1.716,0.41989 -1.716,1.2678 0,0.23879 -0.486,0.39523 -1.08,0.34764 -1.166,-0.0933 -3.241,0.67772 -3.241,1.20422 0,1.13849 2.253,1.29885 3.629,0.25827 z m -53.303,-0.42206 c 0.591,0.22652 0.751,0.15388 0.513,-0.23176 -0.411,-0.66469 -3.473,-0.75804 -3.869,-0.11792 -0.362,0.58656 1.267,0.93804 1.957,0.42232 0.297,-0.2214 0.927,-0.25409 1.399,-0.0726 z m 45.494,0.0467 c 1.32,-0.613 1.86,-1.63807 0.61,-1.15855 -0.379,0.14544 -0.768,0.0281 -0.864,-0.2607 -0.121,-0.36266 -0.604,-0.38216 -1.561,-0.0631 -2.208,0.73596 -2.107,1.52846 0.258,2.02673 0.146,0.0306 0.846,-0.21436 1.557,-0.54443 z m -8.783,-0.36007 c 0,-0.26405 -0.486,-0.47679 -1.08,-0.47275 -0.874,0.006 -0.943,0.0964 -0.36,0.47275 0.931,0.60152 1.44,0.60152 1.44,0 z m -29.602,-0.60116 c -0.127,-0.20608 -0.417,-0.25963 -0.645,-0.11899 -0.228,0.14065 -0.549,0.0362 -0.715,-0.23221 -0.376,-0.60764 -2.166,-0.64719 -2.166,-0.0478 0,0.24205 0.27,0.53461 0.601,0.65014 0.979,0.34295 3.176,0.15443 2.925,-0.2511 z m 31.932,-0.51449 c 0.386,-0.4641 0.376,-0.78787 -0.04,-1.20024 -0.764,-0.76383 -1.174,-0.71026 -1.523,0.19878 -0.555,1.44723 0.584,2.17828 1.56,1.00146 z m -35.938,-0.32464 c 0,-0.26405 -0.09,-0.4801 -0.211,-0.4801 -0.117,0 -0.346,0.21605 -0.509,0.4801 -0.163,0.26405 -0.07,0.4801 0.212,0.4801 0.279,0 0.508,-0.21605 0.508,-0.4801 z m 17.168,-0.12603 c 0.482,0.18486 0.651,0.0507 0.502,-0.39759 -0.282,-0.84577 -1.767,-1.16812 -2.411,-0.52343 -0.266,0.26581 -0.327,0.73698 -0.135,1.04705 0.234,0.37919 0.507,0.40517 0.833,0.0793 0.266,-0.26643 0.811,-0.35885 1.211,-0.20538 z m -24.229,-0.78207 c 0.549,-0.54897 -2.186,-2.07367 -3.111,-1.73408 -0.804,0.29538 -1.669,-0.2649 -1.895,-1.22695 -0.125,-0.53167 -0.518,-0.66567 -1.358,-0.46258 l -1.183,0.28591 1.028,0.94268 c 3.225,2.9563 5.119,3.59418 6.519,2.19502 z m 38.23,-0.55604 c -1.042,-0.64419 -1.624,0.11413 -0.64,0.83389 0.65,0.47484 0.96,0.50646 1.092,0.11124 0.101,-0.30373 -0.102,-0.72904 -0.452,-0.94513 z m -22.321,-0.46417 c -0.922,-0.92152 -0.954,-0.92219 -1.51,-0.0316 -0.504,0.80745 -0.436,0.89534 0.608,0.78075 0.647,-0.071 1.176,0.0932 1.176,0.36497 0,0.27175 0.15,0.34406 0.334,0.16069 0.183,-0.18337 -0.09,-0.75705 -0.608,-1.27484 z m 6.119,-0.61228 c -0.305,-0.36761 -0.395,-0.85743 -0.199,-1.08849 0.196,-0.23105 0,-0.14136 -0.456,0.1993 -0.446,0.34067 -0.693,0.92767 -0.549,1.30444 0.148,0.3846 -0.02,0.68827 -0.388,0.6924 -0.502,0.006 -0.486,0.11204 0.07,0.46273 1.038,0.6559 2.295,-0.64064 1.524,-1.57038 z m -17.917,0.40979 c -0.09,-0.0827 -0.711,-0.29668 -1.371,-0.47547 l -1.2,-0.32507 1.186,1.02819 c 0.752,0.65208 1.254,0.826 1.37,0.47547 0.102,-0.304 0.108,-0.6204 0.01,-0.70312 z m 8.944,0.1982 c -0.145,-0.23427 -0.598,-0.2973 -1.008,-0.14006 -0.582,0.22332 -0.61,0.36942 -0.128,0.6675 0.728,0.45006 1.515,0.085 1.136,-0.52744 z m -2.785,-1.038 c -0.153,-0.38299 -0.267,-0.26923 -0.29,0.29006 -0.02,0.5061 0.09,0.78966 0.252,0.63012 0.16,-0.15953 0.177,-0.57361 0.04,-0.92018 z m -11.371,-1.76435 c 0,-0.22775 -0.559,-0.3527 -1.242,-0.27767 -1.838,0.20171 -2.035,0.69174 -0.278,0.69174 0.836,0 1.52,-0.18633 1.52,-0.41407 z m 15.561,-0.13513 c -0.119,-0.19244 -0.629,-0.31879 -1.133,-0.28078 -0.505,0.038 -0.821,0.22656 -0.702,0.419 0.119,0.19244 0.629,0.31879 1.134,0.28077 0.505,-0.038 0.82,-0.22656 0.701,-0.41899 z m 12.286,-0.29097 c 0,-0.33006 -0.307,-0.60012 -0.681,-0.60012 -1.094,0 -2.214,0.54847 -1.96,0.9599 0.376,0.60816 2.64,0.29965 2.641,-0.35978 z m -9.602,-0.84017 c 0,-0.39608 -0.204,-0.72014 -0.452,-0.72014 -0.606,0 -1.039,0.74971 -0.656,1.13328 0.541,0.54068 1.108,0.32929 1.108,-0.41314 z m 3.507,0.41314 c 0.169,-0.16886 0.155,-0.54694 -0.03,-0.84017 -0.187,-0.29324 -0.343,-0.7312 -0.347,-0.97325 0,-0.24205 -0.308,-0.54013 -0.675,-0.6624 -0.404,-0.13495 -0.535,-0.009 -0.331,0.32006 0.195,0.31648 0.02,0.54238 -0.431,0.54238 -0.598,0 -0.66,-0.19541 -0.285,-0.89707 0.61,-1.13981 0.106,-1.67928 -0.841,-0.89913 -0.631,0.52016 -0.648,0.45686 -0.14,-0.49771 0.321,-0.60151 0.788,-0.96684 1.039,-0.81183 0.251,0.155 0.456,0.0571 0.456,-0.21746 0,-0.48857 -0.559,-0.66783 -3.721,-1.19409 -1.484,-0.24705 -2.107,0.28163 -1.08,0.91656 0.264,0.1632 0.48,0.71606 0.48,1.22858 0,0.56462 0.331,0.93476 0.84,0.93921 1.189,0.0104 2.084,0.66977 2.226,1.63942 0.188,1.27933 2.049,2.20042 2.842,1.4069 z m -9.429,-3.7527 c 0,-0.38446 -0.183,-0.58558 -0.408,-0.44692 -0.224,0.13866 -0.283,0.45322 -0.131,0.69903 0.388,0.62815 0.539,0.55742 0.539,-0.25211 z m 2.441,-1.02138 c -0.458,-0.45751 -1.375,0.28354 -1.034,0.83522 0.203,0.32791 0.471,0.31963 0.816,-0.0252 0.283,-0.28266 0.381,-0.64718 0.218,-0.81005 z m -2.904,-0.50315 c -0.167,-0.16675 -0.1,-0.68417 0.15,-1.14983 0.313,-0.58579 0.258,-1.00883 -0.181,-1.373 -0.872,-0.7232 -1.337,-0.12376 -0.752,0.96874 0.264,0.49339 0.351,0.89707 0.195,0.89707 -0.157,0 -0.152,0.21604 0.01,0.4801 0.163,0.26405 0.428,0.48009 0.588,0.48009 0.161,0 0.156,-0.13643 -0.01,-0.30317 z m 5.097,-2.06058 c 0.216,-0.0202 0.255,-0.46882 0.09,-0.99693 -0.173,-0.54703 -0.09,-0.96019 0.203,-0.96019 0.28,0 0.14,-0.4295 -0.309,-0.95444 -0.514,-0.59972 -0.986,-0.78571 -1.271,-0.50045 -0.286,0.28527 -0.249,0.70102 0.1,1.11864 0.65,0.7829 0.27,1.29644 -0.96,1.29644 -0.484,0 -0.88,0.19804 -0.88,0.44009 0,0.54328 0.957,0.90595 1.92,0.72725 0.396,-0.0735 0.897,-0.15021 1.113,-0.17041 z m -2.073,-2.67909 c 0,-0.11445 -0.354,-0.0724 -0.786,0.0934 -0.544,0.20897 -0.71,0.0939 -0.54,-0.37514 0.135,-0.37214 0.495,-0.62061 0.799,-0.55214 0.614,0.13806 1.292,-1.19999 0.838,-1.65389 -0.158,-0.15827 -0.572,-0.0519 -0.919,0.23628 -0.486,0.40323 -0.649,0.29182 -0.708,-0.48326 -0.115,-1.52876 -0.841,-1.98218 -1.609,-1.00452 -0.616,0.78437 -0.602,0.80221 0.164,0.20161 1.07,-0.83876 1.093,-0.17627 0.04,0.99252 -0.639,0.70549 -0.683,1.01103 -0.212,1.4781 0.47,0.46634 0.528,0.38911 0.279,-0.37142 -0.25,-0.7664 -0.211,-0.81566 0.192,-0.24406 0.322,0.45668 0.339,0.88283 0.04,1.17624 -0.727,0.72691 -0.536,1.22751 0.339,0.89156 0.566,-0.21723 0.689,-0.12892 0.422,0.30301 -0.297,0.4811 -0.162,0.49474 0.642,0.0647 0.56,-0.29969 1.018,-0.63853 1.018,-0.75298 z m 4.321,0.27021 c 0,-0.24847 -0.216,-0.58529 -0.48,-0.74848 -0.264,-0.1632 -0.48,0.0401 -0.48,0.45176 0,0.41166 0.216,0.74848 0.48,0.74848 0.264,0 0.48,-0.20329 0.48,-0.45176 z m -9.602,-1.20025 c 0,-0.50673 -0.922,-0.71962 -1.196,-0.27621 -0.166,0.26836 0.03,0.48793 0.447,0.48793 0.412,0 0.749,-0.0953 0.749,-0.21172 z m 0.1,-3.03682 c -0.695,-0.23155 -0.776,-2.00754 -0.1,-2.09254 0.264,-0.033 0.696,-0.11403 0.96,-0.18004 0.264,-0.066 0.603,-0.14703 0.754,-0.18004 0.442,-0.0966 -1.116,-1.5003 -1.665,-1.5003 -0.275,0 -0.375,-0.32406 -0.223,-0.72014 0.152,-0.39608 0.02,-0.72015 -0.283,-0.72015 -0.308,0 -0.442,0.19156 -0.297,0.4257 0.361,0.58469 -1.006,1.65075 -1.626,1.26764 -0.79,-0.48811 -0.585,1.08943 0.328,2.5244 1.02,1.60389 1.621,2.04936 2.245,1.6639 0.298,-0.18384 0.261,-0.36919 -0.1,-0.48843 z m 8.066,-1.55243 c -0.661,-0.51637 -1.386,-0.94365 -1.612,-0.94952 -0.227,-0.006 -0.3,-0.30101 -0.164,-0.65587 0.178,-0.46406 -0.08,-0.5821 -0.928,-0.42046 -0.967,0.18486 -1.276,-0.0414 -1.742,-1.2752 -0.585,-1.54984 -1.043,-1.84994 -1.556,-1.01983 -0.163,0.26406 -0.08,0.4801 0.176,0.4801 0.26,0 0.402,0.75543 0.316,1.67874 -0.147,1.58653 -0.08,1.66625 1.135,1.45126 0.744,-0.13099 1.996,0.15021 2.953,0.66291 2.213,1.18601 2.906,1.20935 1.422,0.0479 z m -10.817,-4.68095 c -0.08,-0.9902 -0.171,-2.18696 -0.191,-2.65946 -0.03,-0.70989 -0.151,-0.75158 -0.702,-0.24005 -0.367,0.34048 -0.523,0.72707 -0.348,0.8591 0.176,0.13202 0.295,0.88818 0.266,1.68034 -0.06,1.60214 0.129,2.16043 0.728,2.16043 0.222,0 0.333,-0.81016 0.247,-1.80036 z m 1.078,-4.32087 c -0.05,-1.10118 -0.529,-2.04042 -1.04,-2.04042 -0.638,0 -0.683,1.33446 -0.08,2.31425 0.377,0.6105 1.148,0.42142 1.117,-0.27383 z m -2.264,-0.60013 c 0,-0.26405 -0.1,-0.48009 -0.212,-0.48009 -0.116,0 -0.345,0.21604 -0.508,0.48009 -0.164,0.26406 -0.07,0.4801 0.211,0.4801 0.28,0 0.509,-0.21604 0.509,-0.4801 z m 8.855,-0.999 c 0,-0.70258 -0.279,-1.16143 -0.707,-1.16143 -0.388,0 -0.645,0.29279 -0.57,0.65065 0.08,0.35787 -0.08,0.91561 -0.351,1.23943 -0.363,0.43698 -0.216,0.56866 0.57,0.51077 0.778,-0.0573 1.058,-0.38565 1.058,-1.23942 z m -8.42,-1.40148 c 0.201,0 0.365,-0.31456 0.365,-0.69903 0,-0.38446 -0.18,-0.58776 -0.4,-0.45176 -0.22,0.13599 -0.4,-0.3056 -0.4,-0.98131 0,-0.70354 -0.274,-1.22858 -0.64,-1.22858 -0.699,0 -0.757,1.30662 -0.104,2.36308 0.281,0.45392 0.234,0.55611 -0.146,0.32105 -0.399,-0.24688 -0.387,0.0308 0.05,0.97781 0.451,0.99136 0.642,1.11926 0.759,0.51068 0.09,-0.44657 0.32,-0.81194 0.521,-0.81194 z m 4.15,-2.02859 c -0.05,-0.60062 0.1,-1.47012 0.322,-1.93221 0.322,-0.66236 0.195,-0.84017 -0.598,-0.84017 -0.553,0 -0.872,-0.21605 -0.708,-0.4801 0.163,-0.26405 -0.07,-0.4801 -0.508,-0.4801 -0.568,0 -0.731,0.28214 -0.554,0.95972 0.138,0.52784 0.06,1.0807 -0.184,1.22858 -0.239,0.14787 -0.435,0.60411 -0.435,1.01386 0,0.54716 0.235,0.45447 0.886,-0.34905 0.809,-0.99913 0.88,-1.01342 0.818,-0.16477 -0.04,0.5111 -0.222,1.17708 -0.409,1.47995 -0.187,0.30287 -0.07,0.648 0.263,0.76694 0.907,0.32539 1.202,0.005 1.107,-1.20265 z m 6.177,-0.91722 c -0.137,-0.22213 0.05,-0.2888 0.417,-0.14815 0.466,0.17904 0.63,-0.0746 0.545,-0.84567 -0.07,-0.60576 -0.139,-1.6415 -0.161,-2.30163 -0.04,-1.06649 -0.238,-1.19466 -1.817,-1.15016 -0.978,0.0276 -1.861,0.29895 -1.962,0.60311 -0.102,0.30417 -0.415,0.41028 -0.698,0.23581 -0.31,-0.19163 -0.372,-0.0895 -0.158,0.25809 0.196,0.31642 0.07,0.94392 -0.285,1.39444 -0.554,0.70661 -0.543,0.74569 0.08,0.28446 0.396,-0.29407 1.127,-0.52812 1.624,-0.5201 0.784,0.0126 0.807,0.0858 0.171,0.55073 -0.601,0.43899 -0.624,0.6855 -0.131,1.36027 0.331,0.45327 0.872,0.82412 1.201,0.82412 0.362,0 0.483,0.33282 0.306,0.84017 -0.251,0.72165 -0.193,0.71167 0.414,-0.0707 0.388,-0.501 0.593,-1.09264 0.456,-1.31477 z m -11.723,-3.98726 c 0,-0.11645 -0.216,-0.34524 -0.48,-0.50844 -0.264,-0.16319 -0.48,-0.0679 -0.48,0.21172 0,0.27964 0.216,0.50843 0.48,0.50843 0.264,0 0.48,-0.0953 0.48,-0.21171 z m 1.681,-0.26839 c 0.163,-0.26405 0.07,-0.48009 -0.212,-0.48009 -0.279,0 -0.508,0.21604 -0.508,0.48009 0,0.26406 0.09,0.4801 0.211,0.4801 0.117,0 0.346,-0.21604 0.509,-0.4801 z m 2.881,0 c 0.163,-0.26405 0.07,-0.48009 -0.212,-0.48009 -0.28,0 -0.509,0.21604 -0.509,0.48009 0,0.26406 0.1,0.4801 0.212,0.4801 0.117,0 0.345,-0.21604 0.509,-0.4801 z m -0.553,-2.17581 c -0.375,-0.97741 -0.601,-0.88041 -0.518,0.22216 0.04,0.50982 0.231,0.82697 0.429,0.70478 0.198,-0.12219 0.238,-0.53932 0.09,-0.92694 z m 5.831,-0.21945 c 0.165,-0.26693 -0.102,-0.48532 -0.593,-0.48532 -0.491,0 -1.202,-0.27005 -1.581,-0.60012 -0.378,-0.33007 -0.531,-0.40396 -0.34,-0.1642 0.191,0.23976 0.145,0.68074 -0.104,0.97996 -0.316,0.38129 -0.04,0.57559 0.933,0.64952 0.762,0.058 1.52,-0.11292 1.685,-0.37984 z m -10.855,-2.43962 c -0.77,-0.47615 -1.121,-0.22357 -0.68,0.4899 0.177,0.28593 0.546,0.38132 0.82,0.21198 0.322,-0.19936 0.273,-0.44678 -0.14,-0.70188 z m 13.468,-0.39019 c 0.38,-0.70887 0.238,-1.16957 -0.654,-2.13261 -1.094,-1.18042 -1.149,-1.19046 -1.393,-0.25712 -0.193,0.74012 -0.576,0.93345 -1.609,0.81233 -1.133,-0.13293 -1.382,0.0372 -1.524,1.03999 -0.158,1.12186 -0.112,1.15053 0.72,0.44606 0.622,-0.52598 1.324,-0.65121 2.33,-0.41555 0.792,0.18551 1.265,0.36286 1.052,0.3941 -0.375,0.0548 0,1.017 0.4,1.017 0.107,0 0.412,-0.40689 0.678,-0.9042 z m -7.918,-0.35211 c 0.597,-0.2292 0.647,-0.44619 0.22,-0.96019 -0.437,-0.52687 -0.357,-0.66408 0.388,-0.66408 1.112,0 1.188,-1.74611 0.105,-2.43152 -0.549,-0.34711 -0.502,-0.43584 0.234,-0.44171 1.485,-0.0119 0.428,-0.63445 -1.395,-0.82148 -1.621,-0.16633 -1.658,-0.13378 -1.199,1.0727 0.26,0.68432 0.473,1.98631 0.473,2.89331 0,1.77701 0.02,1.79664 1.174,1.35297 z m -3.608,-2.22439 c 0.02,-0.19804 -0.182,-0.36008 -0.446,-0.36008 -0.264,0 -0.465,0.59412 -0.447,1.32027 0.03,1.16992 0.08,1.21092 0.447,0.36007 0.227,-0.5281 0.427,-1.12222 0.446,-1.32026 z m 8.676,-1.45835 c 0,-0.58935 -0.284,-0.83792 -0.835,-0.73178 -1.217,0.23444 -1.338,1.6243 -0.141,1.6243 0.631,0 0.976,-0.31537 0.976,-0.89252 z m -10.459,-1.39023 c -0.733,-0.73335 -1.274,-0.19222 -0.867,0.86774 0.24,0.62584 0.448,0.68786 0.875,0.26075 0.427,-0.4271 0.425,-0.69549 0,-1.12849 z m 3.026,-1.59224 c 0,-1.18819 -0.08,-2.16039 -0.163,-2.16043 -0.08,-5e-5 -0.498,0.34358 -0.918,0.76363 -0.649,0.64898 -0.662,0.82929 -0.09,1.20024 0.579,0.37265 0.573,0.5057 -0.04,0.90927 -0.64,0.42022 -0.64,0.47438 0,0.48745 0.64,0.0131 0.64,0.0664 0,0.4801 -0.596,0.3849 -0.553,0.46666 0.249,0.47274 0.831,0.006 0.968,-0.30041 0.96,-2.153 z m -3.13,-0.0284 c 0,-0.41166 -0.216,-0.61495 -0.48,-0.45176 -0.264,0.16319 -0.48,0.50001 -0.48,0.74848 0,0.24847 0.216,0.45176 0.48,0.45176 0.264,0 0.48,-0.33681 0.48,-0.74848 z m 6.74,-1.13792 c -0.255,-0.47736 -0.374,-0.95806 -0.264,-1.06823 0.11,-0.11016 -0.222,-0.20029 -0.737,-0.20029 -1.218,0 -1.303,2.04124 -0.1,2.31511 1.247,0.28317 1.62,-0.0721 1.098,-1.04659 z m -6.02,-0.51408 c -0.163,-0.26406 -0.662,-0.47679 -1.108,-0.47275 -0.7,0.006 -0.712,0.0717 -0.09,0.47275 0.94,0.60761 1.576,0.60761 1.2,0 z m 7.336,-2.62968 c -0.01,-1.71037 -0.208,-2.99388 -0.437,-2.85225 -0.23,0.14164 -0.417,0.67686 -0.417,1.18939 0,0.51252 -0.233,0.93186 -0.518,0.93186 -0.326,0 -0.401,-0.53412 -0.202,-1.44029 0.247,-1.12592 0.151,-1.44029 -0.442,-1.44029 -0.765,0 -0.947,0.68477 -0.765,2.88058 l 0.1,1.20024 -1.246,-1.16391 c -0.686,-0.64014 -1.247,-1.00786 -1.247,-0.81714 0,0.19072 0.592,0.85621 1.316,1.47885 0.943,0.81114 1.542,1.01127 2.113,0.70591 0.878,-0.46984 1.706,0.73352 0.863,1.25438 -0.515,0.31816 -0.153,1.18244 0.495,1.18244 0.224,0 0.399,-1.39939 0.388,-3.10977 z m 3.467,0.6057 c 0,-0.0947 -0.432,-0.20472 -0.96,-0.2445 -0.909,-0.0684 -1.308,0.80101 -0.663,1.44545 0.261,0.26093 1.623,-0.74698 1.623,-1.20095 z m -11.829,-1.57675 c -0.152,-0.39608 -0.361,-0.72015 -0.465,-0.72015 -0.104,0 -0.189,0.32407 -0.189,0.72015 0,0.39608 0.209,0.72015 0.465,0.72015 0.256,0 0.341,-0.32407 0.189,-0.72015 z m 12.71,-0.57548 c -0.391,-0.47071 -0.669,-0.53974 -0.784,-0.19432 -0.1,0.29465 -0.431,0.41034 -0.738,0.25709 -0.308,-0.15325 -0.149,0.0545 0.352,0.46173 1.107,0.9002 2.015,0.49344 1.17,-0.5245 z m -8.383,-1.00776 c 0.365,-0.59091 -0.307,-1.37265 -1.5,-1.74508 -1.28,-0.39949 -1.381,0.0402 -0.286,1.2501 0.858,0.94738 1.412,1.10095 1.786,0.49498 z m 0.03,-3.01869 c -0.155,-0.25011 -0.486,-0.32828 -0.736,-0.1737 -0.25,0.15458 -0.328,0.48569 -0.174,0.73581 0.155,0.25011 0.486,0.32828 0.736,0.1737 0.25,-0.15458 0.328,-0.48569 0.174,-0.73581 z m 6.726,0.55428 c 0.152,-0.24581 0.09,-0.56037 -0.131,-0.69903 -0.225,-0.13866 -0.408,0.0625 -0.408,0.44692 0,0.80953 0.151,0.88026 0.539,0.25211 z m -11.305,-1.39345 c 0.356,-0.66488 0.302,-0.88018 -0.223,-0.88018 -0.382,0 -0.694,0.39608 -0.694,0.88018 0,1.11936 0.318,1.11936 0.917,0 z m 2.712,-0.60618 c 0.179,-0.2894 -0.02,-0.8758 -0.452,-1.30313 -0.715,-0.71587 -0.777,-0.6745 -0.777,0.52617 0,1.32588 0.64,1.73028 1.229,0.77696 z m 2.424,-0.23325 c -0.161,-0.41767 -0.292,-0.84976 -0.292,-0.96019 0,-0.11043 -0.196,-0.20079 -0.435,-0.20079 -0.239,0 -0.322,0.43209 -0.184,0.9602 0.138,0.52811 0.465,0.96019 0.727,0.96019 0.261,0 0.344,-0.34173 0.184,-0.75941 z m -3.732,-2.06171 c 0.523,-0.33196 0.512,-0.45502 -0.06,-0.67528 -0.386,-0.14813 -0.944,-0.027 -1.24,0.26926 -0.398,0.39807 -0.539,0.38828 -0.539,-0.0375 0,-0.31686 -0.242,-0.57611 -0.539,-0.57611 -0.372,0 -0.354,0.22259 0.06,0.72014 0.671,0.80833 1.375,0.89917 2.321,0.29951 z m 4.666,-1.53908 c 0.02,-0.37445 0.164,-1.00488 0.329,-1.40096 0.165,-0.39608 0.376,-1.50168 0.469,-2.4569 l 0.169,-1.73674 -1.531,0.77655 c -0.842,0.4271 -1.526,0.88458 -1.52,1.0166 0.08,1.63038 -0.181,2.41151 -0.702,2.1118 -0.349,-0.20065 -0.433,-0.16223 -0.2,0.0917 0.22,0.24038 0.598,0.46405 0.84,0.49706 0.242,0.033 0.636,0.087 0.875,0.12002 0.24,0.033 0.315,0.52103 0.168,1.08448 -0.193,0.73681 -0.08,0.96168 0.403,0.80085 0.369,-0.123 0.684,-0.53 0.7,-0.90445 z m 6.304,-0.0507 c -0.153,-0.38299 -0.267,-0.26923 -0.29,0.29006 -0.02,0.5061 0.09,0.78966 0.252,0.63013 0.16,-0.15954 0.177,-0.57362 0.04,-0.92019 z m -13.051,-0.87017 c -0.141,-0.22757 -0.04,-0.54945 0.232,-0.71531 0.7,-0.43264 0.604,-2.18844 -0.112,-2.04525 -0.722,0.14431 -1.362,2.09248 -0.999,3.03847 0.143,0.37222 0.456,0.55506 0.697,0.4063 0.241,-0.14876 0.323,-0.45665 0.182,-0.68421 z m 14.643,-2.97041 c 0,-0.21465 -0.395,-0.39027 -0.879,-0.39027 -0.594,0 -1.054,0.56842 -1.416,1.74658 l -0.536,1.74659 1.416,-1.35631 c 0.778,-0.74597 1.415,-1.53194 1.415,-1.74659 z m -11.348,1.15662 c 0.127,-0.20542 -0.13,-0.85117 -0.572,-1.435 l -0.803,-1.0615 -0.1,1.435 c -0.1,1.35288 0.867,2.0452 1.475,1.0615 z m 110.511,-1.26496 c 0.539,-0.55114 1.781,-1.41418 2.761,-1.91785 0.979,-0.50368 1.781,-1.08277 1.781,-1.28688 0,-0.2041 0.472,-0.44014 1.05,-0.52452 1.029,-0.15042 1.032,-0.17104 0.142,-1.05692 -0.89,-0.88587 -0.888,-0.89736 0.09,-0.5882 0.756,0.2401 1.581,-0.2246 3.458,-1.94802 1.356,-1.24483 2.466,-2.49245 2.467,-2.77248 0,-0.28003 1.108,-1.64338 2.46,-3.02966 1.352,-1.38628 2.297,-2.52051 2.1,-2.52051 -0.197,0 -0.1,-0.3146 0.222,-0.69912 0.319,-0.38451 0.456,-0.90014 0.304,-1.14584 -0.152,-0.2457 0.04,-0.70943 0.427,-1.0305 1.025,-0.85038 3.607,-6.52621 3.607,-7.92801 0,-0.65943 0.243,-1.19896 0.539,-1.19896 0.385,0 0.377,-0.19517 -0.03,-0.68375 -0.611,-0.736 -0.244,-3.92831 0.504,-4.3909 0.569,-0.3516 0.547,-4.39555 -0.03,-4.74949 -0.268,-0.16542 -0.173,-0.94685 0.234,-1.9209 0.42,-1.00477 0.54,-2.03737 0.31,-2.66068 -0.208,-0.56025 -0.247,-2.20029 -0.09,-3.64453 0.254,-2.30659 0,-4.60407 -1.159,-10.6361 -0.569,-2.95611 -2.263,-6.84083 -2.983,-6.84083 -0.388,0 -0.662,-0.27006 -0.608,-0.60012 0.218,-1.33754 -1.111,-3.31007 -3.281,-4.8692 -1.263,-0.90742 -3.049,-2.54623 -3.968,-3.64182 -0.919,-1.09558 -2.702,-2.55272 -3.961,-3.23808 -1.259,-0.68536 -2.289,-1.39143 -2.289,-1.56904 0,-0.50982 -4.773,-3.46863 -6.619,-4.10325 -2.136,-0.73408 -9.705,-0.93422 -9.705,-0.25661 0,0.58472 -3.7,2.61664 -4.946,2.71681 -0.623,0.05 -0.825,-0.21558 -0.721,-0.94637 0.08,-0.57033 0.499,-1.01855 0.952,-1.02199 0.443,-0.003 0.965,-0.1654 1.16,-0.36007 0.195,-0.19467 0.75,-0.35395 1.234,-0.35395 0.484,0 0.88,-0.24305 0.88,-0.54011 0,-0.35846 -0.524,-0.4267 -1.56,-0.20289 -0.858,0.18547 -2.344,0.45343 -3.302,0.59547 -1.536,0.22763 -1.82,0.49357 -2.399,2.2433 -0.361,1.09178 -0.596,2.17136 -0.521,2.39907 0.08,0.22772 -0.193,0.6598 -0.596,0.9602 -0.403,0.30039 -0.937,1.62639 -1.185,2.94666 -0.249,1.32026 -0.599,2.77856 -0.777,3.24065 -0.204,0.52781 -0.1,0.84017 0.281,0.84017 0.4,0 0.311,0.32617 -0.263,0.9602 -1.131,1.24944 -0.529,1.24944 0.72,0 0.528,-0.52811 0.774,-0.9602 0.547,-0.9602 -0.575,0 -0.07,-2.33867 0.591,-2.75415 0.298,-0.18671 0.829,-0.38292 1.18,-0.43602 1.304,-0.19744 2.056,-0.65721 1.787,-1.09275 -0.153,-0.2469 0.16,-0.58805 0.696,-0.7581 0.536,-0.17005 0.859,-0.49578 0.718,-0.72385 -0.144,-0.23238 0.381,-0.23192 1.193,10e-4 0.798,0.22865 1.45,0.25077 1.45,0.0492 0,-0.20161 0.324,-0.36657 0.72,-0.36657 0.916,0 0.906,0.20334 -0.06,1.16821 -0.72,0.71935 -0.683,0.86325 0.48,1.86307 1.397,1.20192 1.645,1.8601 0.539,1.43604 -0.442,-0.16995 -0.72,9.2e-4 -0.72,0.4438 0,0.87118 1.412,1.50357 1.849,0.82797 0.172,-0.26513 0.684,-0.42464 1.138,-0.35447 0.519,0.0801 0.804,-0.16854 0.765,-0.66812 -0.169,-2.13858 0.07,-2.47604 1.77,-2.47604 0.924,0 1.68,0.22962 1.68,0.51027 0,0.28065 -0.378,0.47182 -0.84,0.42481 -1.469,-0.14935 -1.608,1.7e-4 -1.027,1.10533 0.512,0.9768 1.22,1.64178 1.867,1.75614 0.132,0.0233 0.942,0.24362 1.799,0.48954 1.505,0.4316 1.539,0.41077 0.978,-0.59921 -0.319,-0.57549 -0.535,-1.20838 -0.479,-1.40642 0.06,-0.19804 -0.33,-0.36008 -0.858,-0.36008 -0.528,0 -0.96,0.21605 -0.96,0.4801 0,0.26405 -0.317,0.4801 -0.705,0.4801 -0.997,0 -0.443,-1.1294 0.828,-1.69048 0.849,-0.3747 1.297,-0.25283 2.212,0.60126 0.631,0.58918 1.354,0.94298 1.608,0.78624 0.253,-0.15675 0.418,0.22538 0.366,0.84916 -0.159,1.90493 -0.02,2.3344 0.761,2.3344 0.444,0 0.609,-0.22559 0.405,-0.55572 -0.24,-0.38734 0,-0.46617 0.786,-0.26014 0.622,0.16257 1.393,0.0781 1.713,-0.18774 0.901,-0.74798 1.244,0.26752 0.581,1.72215 -0.474,1.04048 -0.453,1.35 0.114,1.70897 1.018,0.64366 1.894,0.5473 1.894,-0.2083 0,-0.36375 0.324,-0.93031 0.72,-1.25903 0.601,-0.49885 0.72,-0.43168 0.72,0.40625 0,0.66286 0.228,0.91636 0.671,0.7462 0.37,-0.14174 0.835,0.006 1.035,0.32929 0.251,0.40599 0.155,0.46833 -0.312,0.20218 -0.371,-0.21166 -0.188,0.0874 0.406,0.66467 0.594,0.57722 1.081,1.58119 1.081,2.23104 0,0.64985 0.216,1.18154 0.48,1.18154 0.264,0 0.48,0.23188 0.48,0.5153 0,0.28341 -0.378,0.44256 -0.84,0.35366 -0.461,-0.0889 -0.839,-0.57156 -0.84,-1.07259 0,-0.80027 -2.943,-3.01499 -3.4,-2.5587 -0.149,0.14948 1.161,1.90961 2.79,3.7487 0.574,0.64755 2.081,4.13266 2.961,6.84564 0.412,1.2696 1.249,0.50589 1.249,-1.13899 0,-0.77657 0.201,-1.41195 0.446,-1.41195 0.245,0 0.802,-0.35639 1.238,-0.79198 0.736,-0.73591 0.781,-0.72741 0.634,0.12002 -0.09,0.53402 0.09,0.86226 0.443,0.79198 0.954,-0.19079 0.705,0.39536 -0.762,1.79749 -0.749,0.71573 -1.503,1.671 -1.677,2.12282 -0.173,0.45183 -0.501,0.70632 -0.729,0.56555 -0.485,-0.29962 -0.118,2.13043 0.428,2.83562 0.204,0.26406 0.317,1.27837 0.251,2.25403 -0.162,2.38057 0.316,3.09125 1.37,2.03716 0.612,-0.61257 0.959,-0.68246 1.366,-0.27552 0.407,0.40694 0.399,0.54525 -0.03,0.54525 -0.317,0 -0.576,0.21605 -0.576,0.4801 0,0.26406 0.367,0.4801 0.816,0.4801 0.618,0 0.681,0.13481 0.26,0.55577 -0.398,0.39863 -0.731,0.40985 -1.177,0.0397 -0.917,-0.76057 -2.3,0.42908 -2.3,1.97798 0,1.56261 0.135,1.56857 1.632,0.0719 0.711,-0.71083 1.498,-1.07924 1.942,-0.90883 0.954,0.36581 0.972,1.14404 0.03,1.14404 -0.396,0 -0.72,0.21605 -0.72,0.4801 0,0.26405 -0.406,0.4801 -0.902,0.4801 -0.963,0 -2.155,1.10398 -1.692,1.56734 0.154,0.15332 1.07,0.17333 2.037,0.0445 1.41,-0.18805 1.593,-0.12963 0.926,0.29597 -3.104,1.98024 -5.07,5.18554 -3.7,6.03206 0.798,0.49318 0.482,1.19382 -0.75,1.66209 -0.66,0.25098 -1.2,0.76918 -1.2,1.15156 0,0.59621 0.212,0.58909 1.493,-0.05 1.236,-0.6166 1.563,-0.63388 1.893,-0.10012 0.282,0.45587 -0.02,0.82316 -1.046,1.25231 -0.794,0.33398 -1.996,1.04113 -2.67,1.57144 l -1.226,0.9642 1.138,0.4295 c 0.626,0.23622 1.3,0.33409 1.498,0.21748 0.198,-0.11661 0.36,0.0127 0.36,0.28727 0,0.27461 -0.54,0.63484 -1.2,0.80053 -1.2,0.301 -1.47,1.10483 -1.318,3.9179 0.03,0.59412 -0.154,1.08022 -0.413,1.08022 -0.26,0 -0.417,0.27005 -0.35,0.60012 0.171,0.84833 -1.147,2.76056 -1.904,2.76056 -0.348,0 -0.522,-0.18004 -0.386,-0.40008 0.136,-0.22005 -0.06,-0.40008 -0.431,-0.40008 -0.373,0 -0.818,0.63343 -0.988,1.40764 -0.271,1.23552 -0.482,1.38228 -1.722,1.20027 -0.777,-0.11405 -1.524,-0.0266 -1.661,0.19444 -0.137,0.221 -0.803,0.26251 -1.482,0.0923 -0.93,-0.23349 -1.177,-0.14543 -1.003,0.35831 0.148,0.42819 0.773,0.61378 1.743,0.51714 0.843,-0.0841 1.513,0.0752 1.513,0.36007 0,0.28095 0.324,0.51081 0.72,0.51081 0.396,0 0.72,0.27788 0.72,0.6175 0,0.83788 -5.348,0.80369 -6.365,-0.0407 -1.142,-0.94813 -1.276,-0.1588 -0.555,3.26397 0.362,1.71635 0.663,3.59267 0.669,4.1696 0,0.57693 0.214,1.58601 0.463,2.2424 0.357,0.9386 0.69,1.13363 1.561,0.91332 0.608,-0.15408 1.547,-0.73107 2.086,-1.28222 z m 8.669,-17.49042 c -0.166,-0.26882 -0.07,-0.63334 0.218,-0.81006 0.738,-0.45619 1.214,0.16869 0.598,0.78488 -0.345,0.3448 -0.613,0.35308 -0.816,0.0252 z m 2.671,-13.31051 c 0.09,-0.45796 0.663,-0.90862 1.273,-1.00148 1.27,-0.19324 1.02,0.51994 -0.459,1.31161 -0.82,0.43852 -0.95,0.38866 -0.814,-0.31013 z m 0.847,-16.89059 c -0.02,-0.19804 -0.107,-0.72319 -0.193,-1.167 -0.102,-0.52837 0.08,-0.71781 0.517,-0.54876 0.763,0.29277 0.928,2.07583 0.193,2.07583 -0.265,0 -0.497,-0.16203 -0.517,-0.36007 z m 0.588,-10.0409 c -0.768,-0.83479 -0.553,-1.23548 0.361,-0.67068 0.355,0.21915 0.564,0.61821 0.466,0.88679 -0.103,0.2826 -0.452,0.19156 -0.827,-0.21611 z m -25.29,-15.02321 c 0.156,-0.25252 0.601,-0.33743 0.988,-0.18868 0.993,0.38082 0.876,0.64781 -0.284,0.64781 -0.543,0 -0.86,-0.20661 -0.704,-0.45913 z m -7.892,-4.92507 c 0,-0.33936 0.348,-1.15712 0.753,-1.81725 0.405,-0.66014 0.62,-0.82217 0.478,-0.36008 -0.142,0.4621 -0.05,0.84017 0.207,0.84017 0.813,0 0.501,0.90715 -0.495,1.44029 -0.729,0.39035 -0.956,0.36556 -0.943,-0.10313 z m -91.715,75.7162 c 0.565,-0.34893 0.466,-0.49601 -0.489,-0.73067 -0.842,-0.20714 -1.15,-0.56723 -1.042,-1.22075 0.08,-0.50981 0.149,-1.7371 0.145,-2.7273 0,-1.85423 0.668,-2.32247 1.766,-1.22425 0.449,0.44809 0.577,0.44809 0.577,0 0,-0.31686 -0.24,-0.57612 -0.532,-0.57612 -0.292,0 -0.41,-0.31714 -0.261,-0.70477 0.149,-0.38762 0.05,-0.84156 -0.221,-1.00875 -0.271,-0.16719 -0.379,-0.59928 -0.24,-0.9602 0.138,-0.36091 0.07,-0.7699 -0.157,-0.90887 -0.646,-0.39887 -0.975,1.00514 -0.376,1.6037 0.381,0.38118 0.385,0.5386 0.01,0.5386 -0.705,0 -1.088,1.11255 -1.415,4.10565 -0.178,1.63823 -0.08,2.6156 0.281,2.83965 0.384,0.23726 0.401,0.52392 0.06,0.9382 -0.591,0.71104 0.758,0.73661 1.892,0.0359 z m 3.477,-0.55578 c -0.33,-0.13319 -0.87,-0.13319 -1.2,0 -0.33,0.13318 -0.06,0.24215 0.6,0.24215 0.66,0 0.93,-0.10897 0.6,-0.24215 z m 3.283,-0.79244 c -0.638,-0.63732 -0.695,-1.4534 -0.08,-1.07054 0.246,0.15192 0.575,0.0679 0.733,-0.18662 0.162,-0.26189 -0.165,-0.37605 -0.752,-0.26294 -1.43,0.2754 -1.73,0.68056 -0.894,1.20896 0.388,0.24565 0.531,0.44995 0.317,0.45399 -0.213,0.004 -0.252,0.22692 -0.09,0.49528 0.165,0.26836 0.521,0.352 0.79,0.18586 0.327,-0.20198 0.316,-0.47501 -0.03,-0.82399 z m -4.363,-0.56994 c 0,-0.42223 -0.447,-0.72646 -1.08,-0.73542 -0.957,-0.0135 -0.991,-0.0831 -0.304,-0.60624 0.654,-0.49796 0.673,-0.68745 0.12,-1.20391 -0.541,-0.50505 -0.657,-0.4406 -0.657,0.3662 0,0.53852 -0.239,0.97912 -0.533,0.97912 -0.572,0 1.492,1.87772 2.094,1.90442 0.198,0.009 0.36,-0.30809 0.36,-0.70417 z m 2.401,-2.18877 c 0,-0.54369 -0.207,-0.86084 -0.46,-0.70477 -0.252,0.15606 -0.337,0.6009 -0.188,0.98852 0.381,0.99242 0.648,0.87547 0.648,-0.28375 z m 2.88,0.0283 c 0,-0.26405 -0.1,-0.4801 -0.212,-0.4801 -0.116,0 -0.345,0.21605 -0.508,0.4801 -0.163,0.26405 -0.07,0.4801 0.212,0.4801 0.279,0 0.508,-0.21605 0.508,-0.4801 z m -3.212,-2.33921 c 0.477,-0.0337 0.735,-0.27732 0.572,-0.54137 -0.434,-0.70077 -2.435,-0.58674 -3.067,0.17471 -0.434,0.52328 -0.325,0.63203 0.541,0.54137 0.597,-0.0624 1.476,-0.14101 1.954,-0.17471 z m 3.171,-0.28863 c 1.075,-0.0201 1.122,-1.00718 0.05,-1.00718 -0.531,0 -0.966,0.1825 -0.966,0.40555 0,0.22306 -0.18,0.29429 -0.4,0.15829 -0.22,-0.13599 -0.4,0.0578 -0.4,0.43065 0,0.37285 0.234,0.53109 0.52,0.35164 0.286,-0.17945 0.825,-0.33198 1.199,-0.33895 z m 100.81,-2.95874 c -0.459,-0.55381 -0.66,-0.57261 -0.958,-0.09 -0.211,0.34102 -0.133,0.76063 0.175,0.95124 0.865,0.53464 1.428,-0.0844 0.783,-0.86128 z m -105.956,-2.64118 c -1.686,-1.68547 -1.88,-1.40818 -0.495,0.7051 0.703,1.0729 1.233,1.48932 1.449,1.13979 0.189,-0.30653 -0.234,-1.12457 -0.954,-1.84489 z m 104.57,1.9865 c 0,-0.26406 -0.216,-0.4801 -0.48,-0.4801 -0.264,0 -0.48,0.21604 -0.48,0.4801 0,0.26405 0.216,0.4801 0.48,0.4801 0.264,0 0.48,-0.21605 0.48,-0.4801 z m 4.246,-1.96277 c -0.248,-0.15533 -0.116,-0.55986 0.293,-0.89895 0.832,-0.6905 1.011,-2.41935 0.251,-2.41935 -0.271,0 -0.715,0.5868 -0.988,1.304 -0.395,1.03857 -0.584,1.1612 -0.93,0.60246 -0.365,-0.59119 -0.544,-0.55088 -1.14,0.25632 -0.642,0.86987 -0.619,0.9723 0.251,1.11511 0.526,0.0865 1.071,0.45495 1.211,0.81879 0.199,0.51862 0.388,0.5365 0.877,0.0828 0.359,-0.33224 0.433,-0.69902 0.175,-0.86116 z m -3.459,-1.06395 c 0.183,-0.18368 -0.134,-0.33396 -0.707,-0.33396 -0.572,0 -1.04,0.19693 -1.04,0.43761 0,0.4881 1.228,0.41524 1.747,-0.10365 z m 6.415,-0.60234 c 0,-0.41167 -0.216,-0.61496 -0.48,-0.45177 -0.264,0.1632 -0.48,0.50001 -0.48,0.74848 0,0.24847 0.216,0.45177 0.48,0.45177 0.264,0 0.48,-0.33682 0.48,-0.74848 z m 2.641,0.26838 c 0.163,-0.26405 -0.04,-0.4801 -0.452,-0.4801 -0.412,0 -0.749,0.21605 -0.749,0.4801 0,0.26405 0.204,0.4801 0.452,0.4801 0.249,0 0.585,-0.21605 0.749,-0.4801 z m -115.607,-3.36164 c 0.06,-0.79163 0,-1.43933 -0.135,-1.43933 -0.37,0 -1.077,2.119 -0.841,2.52051 0.453,0.76853 0.88,0.29518 0.976,-1.08118 z m 107.1,1.15005 c 0.801,-0.16017 2.386,-1.13236 3.522,-2.16044 1.136,-1.02808 2.206,-1.86923 2.377,-1.86923 0.171,0 1.096,-1.18217 2.056,-2.62703 1.199,-1.8059 1.97,-2.54016 2.468,-2.34912 0.398,0.15285 0.724,0.0568 0.724,-0.21355 0,-0.2703 -0.206,-0.56347 -0.458,-0.65148 -0.27,-0.0942 -0.199,-0.75298 0.171,-1.60033 1.86,-4.25886 2.587,-13.43199 1.669,-21.05062 -0.685,-5.68996 -3.739,-10.24033 -9.324,-13.89405 -3.752,-2.4548 -5.388,-2.96213 -9.582,-2.97302 -3.3,-0.009 -4.179,0.17611 -6.241,1.31095 -1.321,0.72652 -3.416,1.78817 -4.656,2.35924 -2.791,1.28534 -3.493,2.78333 -3.451,7.36206 0.05,5.55226 3.124,16.63978 5.747,20.74082 0.902,1.40939 1.64,2.69143 1.64,2.84897 0,0.32421 3.396,5.08697 3.89,5.45609 0.618,0.46088 2.697,4.57249 3.035,6.00121 0.808,3.40934 2.234,4.14541 6.413,3.30953 z m 6.107,-0.1902 c 0.181,-0.29263 0.615,-0.31628 1.108,-0.0603 0.79,0.41013 2.971,-0.0388 2.492,-0.5131 -0.132,-0.13085 0.06,-0.59517 0.419,-1.03184 0.574,-0.69169 0.54,-0.79393 -0.264,-0.79393 -0.508,0 -1.214,0.27005 -1.57,0.60012 -0.517,0.4801 -0.579,0.4801 -0.308,0 0.586,-1.03775 -0.409,-0.65534 -2.136,0.82066 -1.189,1.01598 -1.431,1.42634 -0.85,1.44029 0.446,0.0107 0.945,-0.19712 1.109,-0.46189 z m 1.489,-0.39878 c -0.136,-0.22004 0.06,-0.40008 0.431,-0.40008 0.372,0 0.566,0.18004 0.43,0.40008 -0.136,0.22005 -0.33,0.40008 -0.43,0.40008 -0.101,0 -0.295,-0.18003 -0.431,-0.40008 z m -112.156,-3.97958 c 0,-0.49577 -0.164,-0.9014 -0.364,-0.9014 -0.599,0 -1.613,1.92081 -1.29,2.44332 0.433,0.70079 1.654,-0.43733 1.654,-1.54192 z m 115.192,-0.13852 c 0.426,-0.51327 0.427,-0.76082 0,-1.0217 -0.517,-0.31918 -1.386,0.51065 -1.403,1.33903 -0.01,0.5917 0.795,0.4084 1.398,-0.31733 z m -113.742,-1.97473 c 0.334,-0.40246 0.474,-0.86533 0.311,-1.02861 -0.349,-0.34869 -1.761,0.72512 -1.761,1.33905 0,0.6613 0.783,0.49377 1.45,-0.31044 z m 1.911,-1.25235 c 0,-0.2991 0.45,-0.93378 0.999,-1.4104 0.55,-0.47663 1.06,-1.42213 1.135,-2.10112 0.118,-1.07253 0.03,-1.1552 -0.639,-0.63001 -1.828,1.4261 -3.181,4.68534 -1.946,4.68534 0.248,0 0.451,-0.24472 0.451,-0.54381 z m 4.226,-4.31585 c -0.477,-0.29511 -0.407,-0.53928 0.304,-1.0594 0.912,-0.66704 0.912,-0.68218 0,-1.15433 -1.802,-0.93004 -2.94,0.52011 -1.407,1.79232 0.842,0.69885 0.98,1.65743 0.166,1.1544 -0.352,-0.21718 -0.424,-0.13115 -0.198,0.23502 0.278,0.44966 0.512,0.44889 1.057,-0.003 0.562,-0.46604 0.578,-0.65697 0.08,-0.96455 z m 4.629,-11.57047 c 0.854,-1.21937 0.969,-1.9676 0.267,-1.73355 -0.264,0.088 -0.426,0.29939 -0.36,0.4697 0.07,0.17032 -0.291,0.76444 -0.794,1.32027 -0.504,0.55583 -0.678,1.0106 -0.388,1.0106 0.29,0 0.864,-0.48016 1.275,-1.06702 z m -17.627,-17.46673 c -0.16,-0.15953 -0.574,-0.17659 -0.92,-0.0379 -0.383,0.15326 -0.269,0.26702 0.29,0.29006 0.506,0.0208 0.79,-0.0926 0.63,-0.25216 z m 20.129,-2.09864 c -0.144,-0.72162 -0.01,-1.5596 0.288,-1.86216 0.413,-0.41342 0.287,-0.55011 -0.506,-0.55011 -0.905,0 -1.057,0.2643 -1.057,1.84037 0,1.01221 0.139,1.97853 0.307,2.14739 0.637,0.63651 1.22,-0.31354 0.968,-1.57549 z m -19.28,-0.009 c 0.447,-0.72314 -0.542,-0.95776 -1.399,-0.33173 -0.757,0.55369 -0.744,0.60607 0.16,0.67422 0.54,0.0406 1.097,-0.11348 1.239,-0.34249 z m -5.299,-0.64975 c 0.803,-0.58668 0.689,-0.6735 -1.219,-0.92938 -2.358,-0.31627 -2.603,-0.22296 -2.197,0.83565 0.35,0.91329 2.225,0.96472 3.416,0.0937 z m 9.572,0.24704 c 0.136,-0.22004 -0.06,-0.40008 -0.431,-0.40008 -0.373,0 -0.567,0.18004 -0.431,0.40008 0.136,0.22005 0.33,0.40009 0.431,0.40009 0.101,0 0.295,-0.18004 0.431,-0.40009 z m 11.559,-0.059 c 0.156,-0.25253 0.601,-0.33743 0.989,-0.18869 0.387,0.14875 0.704,0.0435 0.704,-0.23379 0,-0.72544 -1.987,-2.01417 -2.56,-1.66015 -0.289,0.17864 -0.36,-0.0225 -0.177,-0.50012 0.169,-0.43939 0.214,-0.7989 0.1,-0.7989 -0.448,0 -2.164,2.1371 -2.164,2.69586 0,0.90639 2.615,1.48339 3.108,0.68579 z m -2.148,-0.98117 c 0,-0.26405 0.324,-0.48009 0.721,-0.48009 0.396,0 0.882,0 1.08,0 0.198,0 0.432,0.21604 0.52,0.48009 0.09,0.26406 -0.398,0.4801 -1.08,0.4801 -0.682,0 -1.241,-0.21604 -1.241,-0.4801 z m -6.001,0.4801 c 0.163,-0.26405 -0.04,-0.4801 -0.452,-0.4801 -0.411,0 -0.748,0.21605 -0.748,0.4801 0,0.26405 0.203,0.4801 0.452,0.4801 0.248,0 0.585,-0.21605 0.748,-0.4801 z m 4.561,0 c 0,-0.26405 -0.229,-0.4801 -0.508,-0.4801 -0.28,0 -0.375,0.21605 -0.212,0.4801 0.163,0.26405 0.392,0.4801 0.508,0.4801 0.117,0 0.212,-0.21605 0.212,-0.4801 z m -6.727,-1.20671 c -0.458,-0.55182 -0.759,-0.59508 -1.258,-0.18071 -0.849,0.70392 -0.866,0.68058 0.602,0.80206 1.073,0.0888 1.169,-0.003 0.656,-0.62135 z m 54.594,0.0708 c 0.167,-0.16739 0.17,-0.43831 0,-0.60205 -0.414,-0.41331 -2.743,0.21916 -2.743,0.74468 0,0.46735 2.243,0.35042 2.736,-0.14263 z m -58.256,-0.54439 c -0.152,-0.39608 -0.577,-0.72014 -0.945,-0.72014 -0.368,0 -0.669,0.32406 -0.669,0.72014 0,0.39626 0.425,0.72015 0.945,0.72015 0.643,0 0.857,-0.23031 0.669,-0.72015 z m -5.086,-0.48535 c 0.193,-0.2138 0.08,-0.23333 -0.249,-0.0434 -0.833,0.47986 -0.754,-0.42555 0.1,-1.13415 0.385,-0.31912 0.935,-0.435 1.222,-0.25751 0.863,0.53379 2.033,-0.7257 1.392,-1.4987 -0.298,-0.35814 -0.696,-0.55502 -0.887,-0.43752 -0.5,0.30955 -0.453,-1.32452 0.06,-1.97502 0.238,-0.3028 0.832,-0.44601 1.321,-0.31824 0.854,0.22341 1.694,-0.52904 1.709,-1.53168 0,-0.26406 0.71,-0.5478 1.568,-0.63054 1.022,-0.0986 1.56,-0.40627 1.56,-0.89222 0,-0.57618 0.295,-0.66162 1.321,-0.38273 1.804,0.49056 3.086,0.38356 3.504,-0.29241 0.196,-0.31707 0.616,-0.40053 0.957,-0.18992 0.424,0.26184 0.489,0.18299 0.215,-0.26012 -0.279,-0.45162 -0.178,-0.55354 0.348,-0.35175 0.407,0.15627 1.014,0.0309 1.349,-0.27848 0.475,-0.43862 0.524,-0.41401 0.224,0.11169 -0.26,0.45604 -0.202,0.56162 0.179,0.32618 1.011,-0.6249 9.73,-0.3481 10.818,0.34345 1.361,0.86475 5.785,2.37962 11.442,3.91814 6.467,1.75889 6.827,1.81648 6.133,0.98089 -0.599,-0.72209 -0.28,-1.68204 0.559,-1.68204 0.276,0 0.378,0.32407 0.226,0.72015 -0.168,0.43867 0,0.72014 0.429,0.72014 0.991,0 0.877,-0.65597 -0.298,-1.71958 -0.986,-0.89173 -1.017,-0.8909 -1.736,0.0456 -0.444,0.57939 -0.813,0.74042 -0.938,0.41021 -0.129,-0.34083 -1.138,-0.47936 -2.705,-0.37138 -1.375,0.0947 -2.23,0.0513 -1.9,-0.0965 0.33,-0.14781 0.6,-0.54836 0.6,-0.8901 0,-1.13841 -1.354,-1.76642 -4.171,-1.93482 -1.535,-0.0917 -2.412,-0.0604 -1.95,0.0697 1.123,0.31604 1.074,1.12622 -0.07,1.12622 -0.577,0 -1.022,-0.45372 -1.22,-1.24262 -0.272,-1.08482 -0.413,-1.16102 -1.104,-0.60012 -0.678,0.5491 -0.731,0.53781 -0.369,-0.0777 0.336,-0.57031 0.281,-0.61341 -0.268,-0.20712 -0.385,0.28534 -1.331,0.37208 -2.132,0.19545 -1.207,-0.26617 -1.3,-0.3787 -0.573,-0.69501 0.478,-0.20758 0.761,-0.65691 0.63,-0.99851 -0.167,-0.43519 0.115,-0.55688 0.944,-0.40657 1.074,0.19459 1.154,0.0953 0.861,-1.06891 -0.213,-0.85123 -0.15,-1.17746 0.187,-0.96877 0.28,0.17305 0.603,0.0432 0.717,-0.28847 0.218,-0.63062 -2.021,-3.05961 -2.646,-2.87171 -0.198,0.0595 -0.36,-0.18628 -0.36,-0.54616 0,-1.09156 2.539,-0.68189 3.676,0.59304 0.846,0.94927 1.343,1.11168 2.718,0.88861 1.917,-0.31109 2.479,-0.005 1.705,0.92886 -0.365,0.44 -0.373,0.6443 -0.02,0.6443 0.28,0 0.653,-0.23078 0.827,-0.51283 0.174,-0.28206 0.604,-0.40254 0.956,-0.26774 0.439,0.16838 0.577,-0.0733 0.443,-0.77216 -0.237,-1.22631 -1.034,-1.79074 -2.545,-1.8006 -0.62,-0.004 -1.7,-0.41199 -2.401,-0.90655 -0.701,-0.49455 -2.03,-1.01052 -2.955,-1.1466 -0.924,-0.13608 -2.22,-0.39845 -2.88,-0.58306 -0.661,-0.18461 -3.721,-0.33989 -6.801,-0.34507 -6.041,-0.0102 -9.214,0.74618 -13.794,3.2876 -2.984,1.65644 -3.499,2.1246 -3.198,2.90881 0.141,0.36749 0.05,0.54309 -0.194,0.39022 -0.663,-0.4099 -5.602,4.48339 -6.772,6.70938 -0.555,1.05622 -1.128,3.2668 -1.274,4.91241 -0.24,2.71457 -0.173,3.0262 0.729,3.36068 1.264,0.4685 4.324,0.3939 4.786,-0.11669 z m -3.729,-2.63528 c 0,-0.26405 0.216,-0.4801 0.48,-0.4801 0.264,0 0.48,0.21605 0.48,0.4801 0,0.26405 -0.216,0.4801 -0.48,0.4801 -0.264,0 -0.48,-0.21605 -0.48,-0.4801 z m 3.6,-6.24126 c 0.164,-0.26406 0.392,-0.4801 0.509,-0.4801 0.116,0 0.212,0.21604 0.212,0.4801 0,0.26405 -0.229,0.4801 -0.509,0.4801 -0.279,0 -0.375,-0.21605 -0.212,-0.4801 z m 5.522,-0.0283 c 0,-0.27963 0.216,-0.3749 0.48,-0.21171 0.264,0.16319 0.48,0.39199 0.48,0.50843 0,0.11644 -0.216,0.21172 -0.48,0.21172 -0.264,0 -0.48,-0.2288 -0.48,-0.50844 z m 8.68,-2.25212 c -0.02,-0.33007 -0.35,-0.60012 -0.73,-0.60012 -0.381,0 -0.817,-0.20173 -0.969,-0.44827 -0.152,-0.24655 0.213,-0.39603 0.812,-0.33218 1.361,0.14507 1.562,0.35501 1.207,1.26054 -0.174,0.44431 -0.297,0.49028 -0.32,0.12003 z m -6.28,-4.921 c 0,-0.26405 0.445,-0.4801 0.989,-0.4801 0.544,0 0.855,0.21605 0.692,0.4801 -0.164,0.26406 -0.608,0.4801 -0.989,0.4801 -0.38,0 -0.692,-0.21604 -0.692,-0.4801 z m 12.963,16.3233 c 0,-0.26405 -0.228,-0.48009 -0.508,-0.48009 -0.28,0 -0.375,0.21604 -0.212,0.48009 0.163,0.26406 0.392,0.4801 0.509,0.4801 0.116,0 0.211,-0.21604 0.211,-0.4801 z m 29.767,-0.47095 c 0,-0.46167 -0.965,-0.78624 -3.361,-1.1297 -1.388,-0.19903 -2.541,-0.58847 -4.561,-1.53933 -1.661,-0.78236 -10.86,-3.20304 -11.134,-2.92974 -0.1,0.10057 0.635,0.54567 1.635,0.98911 1,0.44344 2.232,1.03642 2.739,1.31774 0.506,0.28132 1.587,0.61523 2.4,0.74202 0.814,0.12679 1.744,0.44764 2.066,0.71299 0.676,0.55581 3.357,1.28452 6.135,1.66767 1.057,0.14565 2.011,0.34928 2.121,0.45251 0.416,0.39053 1.96,0.16741 1.96,-0.28327 z m 43.69,-0.48924 c -0.93,-0.60153 -1.44,-0.60153 -1.44,0 0,0.26405 0.486,0.47679 1.08,0.47274 0.874,-0.006 0.943,-0.0964 0.36,-0.47274 z m -35.178,-0.77016 c -0.159,-0.15953 -0.573,-0.17659 -0.92,-0.0379 -0.383,0.15326 -0.269,0.26702 0.29,0.29006 0.506,0.0208 0.79,-0.0926 0.63,-0.25216 z m -6.271,-0.88906 c 0,-0.38447 -0.157,-0.60195 -0.349,-0.48329 -0.192,0.11866 -1.183,-0.14777 -2.201,-0.59207 -1.018,-0.44429 -2.121,-0.79393 -2.451,-0.77697 -1.83,0.0941 -2.17,0.18217 -1.867,0.48483 0.385,0.38486 1.435,0.63288 3.289,0.77689 0.716,0.0556 1.569,0.36856 1.896,0.69539 0.805,0.8048 1.683,0.75014 1.683,-0.10478 z m 2.426,-0.22915 c 0.04,-0.51049 -0.24,-1.18508 -0.618,-1.49908 -0.557,-0.4619 -0.688,-0.39468 -0.688,0.35206 0,0.50763 0.259,1.18221 0.576,1.49908 0.714,0.71388 0.647,0.74613 0.73,-0.35206 z m 42.864,-0.27207 c 0.329,-0.39608 0.991,-0.72014 1.471,-0.72014 0.48,0 1.029,-0.25276 1.22,-0.56169 0.234,-0.37767 0.09,-0.46125 -0.451,-0.25511 -0.522,0.20017 -0.799,0.0619 -0.799,-0.39851 0,-0.3878 -0.162,-0.65918 -0.36,-0.60308 -0.198,0.0561 -0.8,-0.14277 -1.338,-0.44193 -0.82,-0.45645 -0.977,-0.40698 -0.977,0.3076 0,0.46835 0.308,0.82925 0.685,0.80201 1.106,-0.0799 1.118,0.86455 0.02,1.54998 -0.556,0.34749 -0.877,0.41474 -0.713,0.14944 0.378,-0.61148 -0.511,-1.18879 -1.187,-0.77101 -0.322,0.19874 -0.189,0.55694 0.36,0.97326 1.115,0.84558 1.345,0.84217 2.069,-0.0308 z m -38.409,-0.50133 c 0,-0.0557 -0.324,-0.37019 -0.72,-0.69891 -0.584,-0.48471 -0.72,-0.46558 -0.72,0.10125 0,0.3844 0.324,0.69891 0.72,0.69891 0.396,0 0.72,-0.0456 0.72,-0.10125 z m 4.081,-0.21881 c 0.164,-0.26406 -0.148,-0.4801 -0.691,-0.4801 -0.544,0 -0.989,0.21604 -0.989,0.4801 0,0.26405 0.311,0.48009 0.692,0.48009 0.38,0 0.825,-0.21604 0.988,-0.48009 z m 13.073,-1.25026 c -0.159,-0.15953 -0.573,-0.17659 -0.92,-0.0379 -0.383,0.15326 -0.269,0.26702 0.29,0.29006 0.506,0.0208 0.79,-0.0926 0.63,-0.25216 z m -71.646,-0.67013 c 0.163,-0.26406 0.07,-0.4801 -0.212,-0.4801 -0.28,0 -0.509,0.21604 -0.509,0.4801 0,0.26405 0.1,0.48009 0.212,0.48009 0.117,0 0.345,-0.21604 0.509,-0.48009 z m 43.813,-0.36886 c 0.11,-0.32968 -0.214,-0.47251 -0.81,-0.35763 -0.794,0.15278 -0.994,-0.0537 -0.994,-1.02636 0,-0.81386 -0.318,-1.30089 -0.96,-1.46872 -0.528,-0.13811 -0.96,-0.47795 -0.96,-0.75522 0,-0.27726 -0.143,-0.36141 -0.317,-0.187 -0.175,0.17442 0.06,0.73692 0.527,1.25001 0.464,0.51309 0.712,1.14776 0.549,1.41038 -0.332,0.53688 1.612,2.07346 2.323,1.83645 0.252,-0.0842 0.541,-0.40002 0.642,-0.70191 z m -18.127,-0.0384 c 0,-0.47473 -3.902,-2.09215 -4.238,-1.75654 -0.124,0.1245 0.724,0.65754 1.886,1.18454 2.47,1.12093 2.352,1.09207 2.352,0.572 z m 21.701,-0.16885 c -0.448,-0.44809 -0.704,-0.44809 -1.153,0 -0.448,0.44809 -0.32,0.57612 0.577,0.57612 0.896,0 1.024,-0.12803 0.576,-0.57612 z m 22.229,0.096 c 0.163,-0.26405 0.07,-0.4801 -0.212,-0.4801 -0.279,0 -0.508,0.21605 -0.508,0.4801 0,0.26405 0.1,0.4801 0.211,0.4801 0.117,0 0.346,-0.21605 0.509,-0.4801 z m -25.118,-2.50451 c -0.437,-0.43742 -0.706,-0.41937 -1.168,0.0784 -0.405,0.43599 -0.416,0.54289 -0.03,0.32823 0.311,-0.17507 0.711,-0.0844 0.888,0.20156 0.177,0.28593 0.447,0.39388 0.601,0.23988 0.154,-0.15399 0.03,-0.53564 -0.288,-0.84811 z m 4.599,-0.56269 c 0.117,-1.4171 -1.575,-2.06205 -2.249,-0.85728 -0.342,0.61005 -0.152,0.91533 0.841,1.35665 0.705,0.3132 1.289,0.587 1.297,0.60845 0,0.0214 0.06,-0.47707 0.111,-1.10782 z m 28.201,0.66672 c 0.163,-0.26406 0.07,-0.4801 -0.212,-0.4801 -0.28,0 -0.508,0.21604 -0.508,0.4801 0,0.26405 0.09,0.48009 0.211,0.48009 0.117,0 0.346,-0.21604 0.509,-0.48009 z m -40.755,-0.74805 c 0.07,-0.59023 -0.847,-2.60102 -1.212,-2.65264 -1.956,-0.27648 -2.326,-0.2125 -2.105,0.36376 0.134,0.35004 0.437,0.63644 0.673,0.63644 0.236,0 0.429,0.52537 0.429,1.16749 0,0.92479 0.224,1.14355 1.08,1.05232 0.594,-0.0633 1.105,-0.31866 1.135,-0.56737 z m 26.144,-1.24723 c 0.557,-0.99629 -0.52,-0.94517 -1.593,0.0756 -0.796,0.75783 -0.787,0.79511 0.174,0.72433 0.557,-0.041 1.195,-0.401 1.419,-0.79991 z m -16.837,-0.16516 c 0.345,-0.41509 0.392,-0.72015 0.111,-0.72015 -0.269,0 -0.612,0.32407 -0.764,0.72015 -0.152,0.39608 -0.202,0.72014 -0.111,0.72014 0.09,0 0.436,-0.32406 0.764,-0.72014 z m -7.201,-0.18869 c 0,-0.2358 -0.324,-0.55308 -0.72,-0.70507 -0.732,-0.28082 -0.984,0.23059 -0.401,0.81374 0.459,0.45883 1.121,0.39467 1.121,-0.10867 z m -8.642,-1.01155 c 0,-0.26406 -0.216,-0.4801 -0.48,-0.4801 -0.265,0 -0.481,0.21604 -0.481,0.4801 0,0.26405 0.216,0.48009 0.481,0.48009 0.264,0 0.48,-0.21604 0.48,-0.48009 z m 10.562,0 c -0.94,-0.60761 -1.576,-0.60761 -1.2,0 0.163,0.26405 0.662,0.47678 1.108,0.47274 0.7,-0.006 0.713,-0.0717 0.09,-0.47274 z m -14.693,-0.40009 c 0.136,-0.22004 -0.06,-0.40008 -0.43,-0.40008 -0.373,0 -0.567,0.18004 -0.431,0.40008 0.136,0.22005 0.33,0.40009 0.431,0.40009 0.1,0 0.294,-0.18004 0.43,-0.40009 z m 18.48,-0.82929 c -0.63,-0.33684 -1.253,-0.50444 -1.385,-0.37243 -0.393,0.39362 1.54,1.59615 2.055,1.27796 0.261,-0.1612 -0.04,-0.56869 -0.67,-0.90553 z m -8.64,10e-6 c 0.425,-0.42301 -1.071,-1.62035 -1.872,-1.49818 -1.02,0.15567 -2.397,1.21816 -2.397,1.84932 0,0.40664 3.824,0.0921 4.269,-0.35114 z m 24.081,0.0577 c -0.315,-0.38038 -0.882,-0.57331 -1.259,-0.42873 -1.127,0.43272 -0.775,1.12034 0.574,1.12034 1.042,0 1.16,-0.11943 0.685,-0.69161 z m -19.228,-0.34244 c 0,0.2881 0.323,0.39994 0.718,0.24853 1.276,-0.48974 0.299,-1.037 -1.434,-0.80342 -1.311,0.17673 -1.684,0.0589 -1.684,-0.53233 0,-0.41762 -0.196,-0.75931 -0.436,-0.75931 -0.239,0 -0.325,0.42051 -0.19,0.93448 0.28,1.07033 1.543,1.50825 2.426,0.8413 0.39,-0.29461 0.6,-0.26987 0.6,0.0707 z m 10.247,-0.9493 c 0.371,0.30779 1.028,0.4237 1.461,0.25758 0.433,-0.16612 1.109,-0.0354 1.501,0.29055 0.594,0.49284 0.714,0.42106 0.714,-0.42638 0,-0.56044 -0.324,-1.05139 -0.72,-1.091 -0.396,-0.0396 -0.99,-0.0936 -1.32,-0.12002 -0.33,-0.0264 -0.762,-0.26406 -0.96,-0.52811 -0.226,-0.3011 -0.537,-0.2116 -0.833,0.24005 -0.26,0.39608 -0.483,0.5041 -0.495,0.24005 -0.01,-0.26406 -0.245,-0.0975 -0.517,0.37017 -0.272,0.46764 -0.695,0.72648 -0.94,0.57518 -0.247,-0.15271 -0.306,0.0863 -0.133,0.53736 0.289,0.75365 0.357,0.7503 0.939,-0.0463 0.492,-0.67196 0.775,-0.73702 1.303,-0.29913 z m 21.663,0.0914 c 0.166,-0.26931 -0.452,-0.33879 -1.532,-0.1721 -2.411,0.37214 -2.604,0.62376 -0.479,0.62376 0.952,0 1.857,-0.20325 2.011,-0.45166 z m 4.039,-0.86861 c 0.03,-0.19804 -0.157,-0.33847 -0.421,-0.31206 -2.77,0.27708 -2.731,0.25881 -1.44,0.66954 1.223,0.38886 1.753,0.28692 1.861,-0.35748 z m -29.018,-1.13053 c -0.146,-0.23638 -0.847,-0.42291 -1.558,-0.41452 -1.21,0.0143 -1.236,0.0578 -0.405,0.68717 0.918,0.69564 2.431,0.48545 1.963,-0.27265 z m 34.119,0.53041 c 0.163,-0.26405 0.07,-0.4801 -0.212,-0.4801 -0.28,0 -0.508,0.21605 -0.508,0.4801 0,0.26405 0.09,0.4801 0.211,0.4801 0.117,0 0.346,-0.21605 0.509,-0.4801 z m 4.081,-0.74848 c 0,-0.44862 -0.507,-0.69181 -1.441,-0.69181 -0.792,0 -1.44,0.21604 -1.44,0.48009 0,0.26406 0.432,0.4801 0.96,0.4801 0.528,0 0.96,0.2288 0.96,0.50843 0,0.27964 0.216,0.37491 0.481,0.21172 0.264,-0.1632 0.48,-0.60803 0.48,-0.98853 z m -48.34,0.086 c 0.195,-0.50828 0.738,-0.57258 2.332,-0.27626 1.201,0.22332 2.27,0.199 2.534,-0.0577 0.284,-0.27683 0.148,-0.46647 -0.361,-0.50389 -1.205,-0.0886 -1.439,-0.15983 -2.542,-0.77434 -0.798,-0.44438 -1.218,-0.41162 -2.032,0.1584 -0.765,0.53607 -1.264,0.59126 -1.963,0.21722 -1.306,-0.69877 -1.961,-0.62574 -1.961,0.21868 0,0.4801 0.481,0.72014 1.441,0.72014 0.792,0 1.44,0.21605 1.44,0.4801 0,0.71478 0.819,0.58042 1.112,-0.18238 z m -0.632,-1.94972 c 0,-0.11644 -0.216,-0.34524 -0.48,-0.50843 -0.264,-0.1632 -0.48,-0.0679 -0.48,0.21171 0,0.27964 0.216,0.50843 0.48,0.50843 0.264,0 0.48,-0.0953 0.48,-0.21171 z m -33.127,166.98137 c 0,-1.0204 0.102,-1.08 0.95,-0.55044 1.436,0.89654 1.536,1.69474 0.212,1.69474 -0.905,0 -1.162,-0.25378 -1.162,-1.1443 z m -5.762,-4.49684 c 0,-0.26405 0.324,-0.4801 0.72,-0.4801 0.396,0 0.72,0.21605 0.72,0.4801 0,0.26405 -0.324,0.4801 -0.72,0.4801 -0.396,0 -0.72,-0.21605 -0.72,-0.4801 z"
       id="path1" /></g></svg>
