<?xml version="1.0" encoding="UTF-8" standalone="no"?>
<!-- Created with Inkscape (http://www.inkscape.org/) -->

<svg
   width="231.38646"
   height="235.24007"
   viewBox="0 0 61.221 62.240601"
   version="1.1"
   id="svg1"
   xml:space="preserve"
   xmlns="http://www.w3.org/2000/svg"
   xmlns:svg="http://www.w3.org/2000/svg"><defs
     id="defs1" /><g
     id="g1729"
     transform="matrix(0.26458333,0,0,0.26458333,-4224.7767,-202.28629)"><path
       style="fill:#000000"
       d="m 16117.964,985.60046 c -0.543,-0.22014 -1.703,-1.23454 -2.577,-2.25424 -0.873,-1.01969 -2.293,-2.64034 -3.154,-3.60143 -0.861,-0.9611 -1.866,-2.15157 -2.234,-2.64548 -1.285,-1.72844 -6.32,-5.46748 -7.362,-5.46748 -1.23,0 -2.207,-0.84285 -2.203,-1.89993 0,-0.65429 1.3,-3.3087 3.908,-7.99553 0.43,-0.77436 1.145,-3.01354 1.587,-4.97594 0.443,-1.96241 1.356,-4.73367 2.03,-6.15837 0.674,-1.4247 1.946,-5.36976 2.827,-8.7668 0.88,-3.39705 2.059,-7.11922 2.619,-8.2715 1.476,-3.03599 3.698,-11.9542 4.297,-17.24641 0.284,-2.5132 0.744,-10.41355 1.022,-17.55634 0.347,-8.93086 0.787,-14.41399 1.408,-17.55633 1.528,-7.73601 2.348,-13.13223 2.328,-15.32411 -0.02,-2.18103 1.084,-6.3312 2.441,-9.17132 0.432,-0.90648 2.312,-3.18329 4.176,-5.05957 3.059,-3.07976 6.908,-8.64954 6.358,-9.20004 -0.295,-0.29443 -24.988,-0.62519 -55.347,-0.74136 -13.702,-0.0524 -25.029,-0.28154 -25.169,-0.50912 -0.141,-0.22759 -0.507,-0.25867 -0.814,-0.0691 -0.611,0.37796 -27.717,0.23485 -28.339,-0.14962 -0.211,-0.13079 -0.148,-0.67912 0.14,-1.21853 0.403,-0.75299 0.823,-0.91182 1.806,-0.68398 2.461,0.57053 83.998,1.30956 84.568,0.7665 0.23,-0.2193 1.609,-0.21715 3.065,0.005 2.709,0.41317 19.22,0.34027 20.892,-0.0923 0.54,-0.13963 1.195,-1.011 1.566,-2.08269 0.552,-1.59281 0.537,-1.954 -0.106,-2.6642 -0.58,-0.64157 -0.679,-1.49358 -0.452,-3.88851 0.16,-1.68681 0.331,-5.10947 0.38,-7.60592 l 0.09,-4.53901 1.613,-0.41794 c 0.888,-0.22986 2.295,-0.35179 3.127,-0.27095 1.412,0.1371 1.517,0.27647 1.558,2.07097 0.02,1.05819 0.08,2.19878 0.121,2.53463 0.142,1.15235 2.601,0.17891 4.359,-1.7257 2.387,-2.585 3.137,-2.9096 5.507,-2.38232 1.097,0.24415 3.168,0.50745 4.602,0.58512 2.7,0.14626 3.888,0.97871 3.888,2.72381 0,0.4566 0.459,1.87625 1.019,3.15479 0.561,1.27853 1.192,2.97395 1.401,3.76759 0.21,0.79364 1.156,3.17457 2.102,5.29095 0.946,2.11638 1.723,4.33497 1.726,4.9302 0,1.00956 0.214,1.08224 3.1,1.08224 2.527,0 3.143,-0.15444 3.357,-0.84174 0.144,-0.46296 0.321,-6.00093 0.393,-12.30662 l 0.131,-11.46487 -1.135,-0.92076 c -1.032,-0.83647 -2.045,-0.92542 -11.065,-0.97172 -5.461,-0.028 -12.094,-0.11998 -14.74,-0.20434 -4.911,-0.15658 -43.644,-0.4815 -118.409,-0.9933 l -41.918,-0.28694 -0.341,11.22942 c -0.188,6.17618 -0.267,12.09522 -0.176,13.15341 l 0.166,1.92398 6.254,0.38225 c 6.727,0.41119 10.339,0.14162 10.35,-0.77247 0,-0.31447 0.136,-1.05597 0.295,-1.64776 0.247,-0.92315 -0.03,-1.2131 -1.964,-2.04133 l -2.253,-0.96535 0.292,-6.79682 c 0.318,-7.38251 0.877,-9.48322 2.871,-10.78987 1.364,-0.89356 4.742,-0.74812 5.737,0.24704 0.297,0.29639 0.649,1.77449 0.784,3.28468 l 0.244,2.74578 1.886,-0.16713 c 1.037,-0.0919 2.126,-0.4166 2.421,-0.72149 1.165,-1.20526 2.669,-3.62668 2.669,-4.29743 0,-1.4746 1.233,-1.87313 3.076,-0.99435 0.954,0.45492 1.735,1.02765 1.735,1.27273 0,0.63106 -3.15,8.95514 -4.027,10.64005 -0.646,1.2436 -0.649,1.59721 -0.02,3.10529 1.826,4.37041 1.893,19.49067 0.164,37.0228 -0.53,5.37392 -0.281,6.32754 1.654,6.32754 0.983,0 1.024,-0.21603 1.035,-5.4112 0,-2.97616 0.115,-11.47174 0.241,-18.87907 0.242,-14.2322 0.01,-16.31539 -2.18,-19.65825 -0.867,-1.3238 -0.618,-2.34301 0.471,-1.92515 1.145,0.43901 2.111,2.34948 3.15,6.22673 0.914,3.41002 0.973,4.5926 0.718,14.52977 -0.152,5.94968 -0.381,12.79043 -0.509,15.20166 -0.127,2.41124 -0.103,4.97924 0.05,5.70667 l 0.285,1.32261 4.051,-0.31133 c 4.977,-0.38249 5.315,0.26419 1.572,3.01097 -3.036,2.2286 -5.405,2.50508 -14.12,1.64829 -4.595,-0.45178 -6.556,-0.45485 -8.682,-0.0136 -2.154,0.44717 -3.56,0.43794 -6.521,-0.0429 -4.335,-0.70393 -5.014,-1.01031 -4.604,-2.07821 0.215,-0.56055 0.934,-0.77003 2.644,-0.77003 1.292,0 3.03,-0.23763 3.864,-0.52805 1.469,-0.51219 1.516,-0.61697 1.563,-3.48722 0.03,-1.62754 0.12,-3.93318 0.207,-5.12365 0.32,-4.37743 0.339,-22.17335 0.02,-22.48867 -0.179,-0.17905 -4.126,-0.3563 -8.77,-0.39391 -6.496,-0.0526 -8.537,-0.21762 -8.845,-0.71506 -0.22,-0.35568 -0.307,-0.79713 -0.193,-0.981 0.114,-0.18386 0.312,-3.22447 0.441,-6.7569 0.129,-3.53243 0.369,-9.36549 0.534,-12.96235 0.228,-4.99792 0.149,-6.77882 -0.335,-7.5538 -0.348,-0.55773 -0.503,-1.14443 -0.343,-1.30377 0.314,-0.31438 22.032,-0.31698 34.07,-0.004 4.101,0.10659 13.246,0.22432 20.322,0.26161 7.075,0.0373 12.977,0.25044 13.115,0.47367 0.138,0.22323 0.86,0.23124 1.605,0.0178 0.744,-0.21344 4.908,-0.32509 9.254,-0.24811 4.345,0.077 31.064,0.2861 59.375,0.46471 29.957,0.189 51.666,0.5086 51.932,0.76454 0.252,0.24189 0.793,0.43978 1.203,0.43976 0.659,-2e-5 0.73,1.57924 0.615,13.58813 -0.07,7.47348 -0.246,14.104 -0.387,14.73448 -0.251,1.1304 -0.311,1.14176 -4.318,0.81665 -2.655,-0.21533 -4.064,-0.15971 -4.064,0.16035 0,0.26952 0.94,1.54829 2.089,2.84173 1.149,1.29343 2.393,2.78081 2.766,3.30528 0.372,0.52447 1.233,1.09095 1.912,1.25884 0.679,0.1679 1.54,0.90634 1.913,1.64098 0.373,0.73465 1.157,2.12167 1.742,3.08228 1.849,3.03746 2.513,6.45979 2.521,12.99032 v 6.07897 l -2.242,2.21014 c -1.874,1.84739 -2.243,2.50752 -2.25,4.02194 -0.01,2.35084 0.467,4.78583 1.357,6.91711 1.102,2.63671 1.366,6.11113 0.744,9.80555 -0.311,1.85183 -0.612,4.23276 -0.667,5.29095 -0.06,1.05819 -0.256,3.87201 -0.445,6.25294 -1.154,14.50678 -1.378,25.12764 -0.594,28.13823 0.747,2.87003 0.46,5.87851 -0.721,7.56452 -0.376,0.53611 -1.656,1.78232 -2.844,2.76936 -1.189,0.98703 -4.136,3.69343 -6.55,6.01423 -5.906,5.67869 -8.077,6.54839 -14.333,5.74152 -7.368,-0.95026 -9.38,0.11595 -12.578,6.66622 -0.997,2.04124 -2.236,4.32345 -2.755,5.07159 -0.518,0.74813 -1.537,2.58855 -2.264,4.08983 -2.798,5.77417 -7.449,10.01626 -12.364,11.27573 -3.624,0.9284 -3.81,0.94161 -5.224,0.3693 z m 5.794,-2.20324 c 1.993,-0.57929 3.277,-1.44318 5.898,-3.96821 3.372,-3.2487 5.395,-6.48874 10.297,-16.49384 1.093,-2.23033 2.406,-4.11518 3.382,-4.85391 2.189,-1.65702 6.735,-3.04677 7.912,-2.41868 0.495,0.26404 2.137,0.63417 3.649,0.82252 2.45,0.30515 3.078,0.18628 5.773,-1.09118 1.819,-0.86234 3.982,-2.42861 5.429,-3.93048 1.323,-1.37327 3.974,-3.79603 5.892,-5.38393 4.405,-3.64686 4.822,-4.36739 3.5,-6.04752 -0.875,-1.11275 -0.962,-1.69148 -0.705,-4.6761 0.804,-9.33018 1.427,-27.47592 0.954,-27.80934 -0.325,-0.22937 -0.29,-0.35597 0.101,-0.36075 0.33,-0.004 0.601,-0.34481 0.601,-0.75725 0,-0.41243 -0.217,-0.6161 -0.481,-0.4526 -0.265,0.1635 -0.481,-0.017 -0.481,-0.40115 0,-0.38413 0.325,-0.82301 0.721,-0.97528 0.436,-0.16716 0.722,-0.89349 0.722,-1.83304 0,-0.85589 0.254,-3.84298 0.565,-6.63797 0.549,-4.93481 0.529,-5.19369 -0.683,-8.9503 -2.385,-7.39449 -2.198,-9.51848 1.127,-12.81053 l 1.824,-1.80528 v -6.14051 -6.14051 l -1.942,-4.13004 c -1.283,-2.72844 -2.383,-4.3908 -3.243,-4.89843 -0.715,-0.42262 -2.441,-1.97316 -3.833,-3.44564 -2.703,-2.85723 -2.963,-2.98378 -4.347,-2.11924 -0.701,0.43751 -1.325,0.38557 -2.89,-0.2405 -2.23,-0.89235 -7.007,-1.05689 -8.974,-0.30914 -1.886,0.71681 -6.333,4.66555 -6.647,5.90149 -0.298,1.17108 -0.487,1.31014 -5.358,3.93887 -1.852,0.99957 -3.772,2.20014 -4.266,2.66792 -0.874,0.82767 -0.867,0.85971 0.241,1.19301 2.118,0.63684 5.28,4.2103 7.2,8.13664 2.405,4.91704 2.688,6.52154 1.702,9.64916 -0.433,1.3746 -0.79,3.02137 -0.794,3.65948 0,0.63812 -0.518,2.78358 -1.144,4.76768 -0.636,2.01531 -1.286,5.6242 -1.473,8.17693 -0.183,2.5132 -0.636,5.86814 -1.006,7.45543 -0.37,1.58728 -1.123,5.37512 -1.674,8.41742 -1.373,7.5793 -3.226,17.15373 -4.346,22.45669 -0.514,2.43064 -0.935,5.13624 -0.936,6.01244 0,1.72642 -1.5,4.58771 -2.629,5.0208 -0.872,0.33462 -5.425,-1.13688 -5.655,-1.82781 -0.09,-0.27917 -1.027,-0.59577 -2.076,-0.70356 -1.048,-0.10779 -2.187,-0.29701 -2.532,-0.42049 -0.345,-0.12348 -1.147,0.11638 -1.783,0.53302 -1.319,0.86394 -2.374,0.48118 -1.921,-0.69678 0.653,-1.70127 3.866,-17.50692 4.267,-20.9949 0.152,-1.32274 0.397,-5.97637 0.544,-10.3414 0.488,-14.45097 1.816,-28.71354 2.862,-30.73602 0.411,-0.7936 0.747,-1.84326 0.747,-2.33259 0,-0.48932 0.187,-1.0953 0.417,-1.34662 0.229,-0.25132 0.759,-1.49165 1.178,-2.75628 0.419,-1.26464 1.422,-3.27763 2.229,-4.47333 0.807,-1.19569 1.467,-2.37689 1.467,-2.62489 0,-0.45037 -4.993,2.54682 -6.136,3.6834 -0.332,0.33037 -1.001,0.72667 -1.487,0.88066 -1.136,0.36067 -1.823,1.78246 -2.449,5.07399 -0.278,1.45501 -0.829,4.37706 -1.225,6.49344 -0.816,4.35371 -1.491,13.00723 -1.95,25.01177 -0.546,14.24265 -1.461,19.6245 -4.86,28.57711 -0.662,1.74272 -1.817,5.54951 -2.566,8.45954 -0.75,2.91002 -1.897,6.48141 -2.55,7.93642 -0.652,1.45501 -1.749,4.49447 -2.436,6.75436 -1.168,3.83796 -2.817,7.47457 -4.437,9.78796 -1.106,1.57859 -0.818,2.54252 1.112,3.71759 3.146,1.91567 6.291,4.86517 9.78,9.17037 1.862,2.29792 3.643,4.28297 3.958,4.41124 1.131,0.46018 3.356,0.29643 5.86,-0.43133 z m -5.676,-5.55922 c -2.85,-0.67048 -3.496,-1.17479 -6.271,-4.89467 -1.426,-1.91179 -3.163,-4.12533 -3.859,-4.91897 -1.448,-1.65114 -1.565,-2.64096 -0.545,-4.61549 0.397,-0.76832 1.032,-2.00092 1.411,-2.73909 0.379,-0.73818 1.006,-2.19921 1.393,-3.24672 0.387,-1.04752 1.177,-3.09504 1.756,-4.55006 0.579,-1.45501 1.353,-3.72635 1.721,-5.04742 0.752,-2.69732 2.158,-5.53448 2.743,-5.53448 0.213,0 0.521,0.37879 0.686,0.84175 0.422,1.19092 1.657,2.5438 2.082,2.28119 0.197,-0.12174 0.482,0.37037 0.634,1.09358 0.503,2.39858 7.162,5.87466 11.267,5.88171 0.86,10e-4 1.559,0.16502 1.553,0.36343 -0.04,1.32964 -2.12,9.51115 -3.363,13.21834 -1.646,4.90874 -4.602,9.55521 -7.197,11.31243 -0.88,0.59523 -1.729,1.06049 -1.888,1.03392 -0.16,-0.0266 -1.115,-0.24233 -2.123,-0.47945 z m 5.216,-4.16194 c 1.214,-1.52115 2.752,-4.06441 3.417,-5.6517 1.497,-3.56923 3.729,-12.04789 3.399,-12.90755 -0.134,-0.34905 -1.656,-1.09823 -3.382,-1.66487 -3.417,-1.12143 -7.539,-3.73965 -7.539,-4.78838 0,-0.3615 -0.184,-0.54367 -0.408,-0.40482 -0.225,0.13886 -0.695,-0.28126 -1.044,-0.9336 -0.349,-0.65234 -0.762,-1.18607 -0.917,-1.18607 -0.347,0 -2.441,4.49871 -2.441,5.24414 0,0.29606 -0.415,1.45583 -0.921,2.57728 -1.88,4.16155 -4.852,11.42402 -4.852,11.85449 0,0.24473 0.974,1.49084 2.164,2.76913 1.191,1.27829 2.165,2.4572 2.165,2.6198 0,0.99552 3.216,4.11211 4.733,4.58619 2.936,0.91793 3.322,0.77293 5.626,-2.11404 z m 42.684,-31.00382 c -0.279,-0.3419 -0.984,-2.98978 -1.567,-5.88417 -1.04,-5.1622 -1.049,-5.50613 -0.439,-18.03733 0.342,-7.02614 0.634,-19.37646 0.65,-27.44516 l 0.03,-14.67036 -1.203,-2.40498 c -0.662,-1.32273 -1.69,-2.61863 -2.285,-2.87978 -0.925,-0.40586 -1.59,-2.17067 -0.818,-2.17067 0.93,0 3.195,1.66987 3.761,2.77387 2.112,4.11482 2.279,5.56291 2.262,19.56276 0,7.42365 -0.238,16.74425 -0.51,20.71247 -0.912,13.31258 -1.04,19.08695 -0.479,21.61257 0.298,1.34046 0.868,3.81653 1.267,5.50238 0.722,3.05031 0.403,4.63941 -0.668,3.3284 z m -12.95,-14.09854 c 0.174,-2.85509 0.317,-6.67933 0.317,-8.49831 0,-2.53713 0.173,-3.37356 0.743,-3.59206 0.408,-0.15665 0.807,-0.20397 0.886,-0.10515 0.08,0.0988 -0.09,3.95032 -0.382,8.55889 -0.403,6.43859 -0.682,8.43115 -1.203,8.60346 -0.569,0.18795 -0.628,-0.61574 -0.361,-4.96683 z m -19.492,11.65556 c 0.283,-0.34038 0.747,-2.45075 1.032,-4.68971 0.285,-2.23896 0.744,-4.93664 1.02,-5.99483 0.502,-1.92343 1.599,-7.49185 2.368,-12.02488 0.426,-2.51063 2.217,-12.50994 2.647,-14.77805 0.137,-0.7206 0.458,-1.86156 0.715,-2.53546 0.256,-0.67391 0.694,-3.65572 0.973,-6.62625 0.279,-2.97053 0.911,-6.80788 1.404,-8.52744 0.494,-1.71956 1.034,-3.99226 1.201,-5.05045 0.166,-1.05819 0.548,-2.93233 0.848,-4.16476 0.454,-1.8692 0.404,-2.68661 -0.301,-4.92931 -0.465,-1.47869 -1.042,-2.80993 -1.282,-2.95831 -0.241,-0.14838 -0.437,-0.71782 -0.437,-1.26543 0,-1.35998 -5.049,-6.16251 -6.479,-6.16251 -0.605,0 -1.397,0.36011 -1.761,0.80025 -0.597,0.72357 -0.559,0.74649 0.393,0.23919 1.65,-0.879 1.71,0.11151 0.1,1.65268 -1.834,1.75524 -3.872,5.35439 -5.15,9.09227 -0.542,1.58729 -1.339,3.7222 -1.771,4.74425 -1.292,3.05968 -3.128,22.15442 -3.135,32.62304 0,2.72817 -0.243,6.36723 -0.536,8.08679 -0.293,1.71955 -0.594,3.55936 -0.67,4.08846 -0.275,1.92754 -1.707,8.74728 -2.576,12.26538 -1.027,4.15639 -0.973,4.23639 2.869,4.29515 1.547,0.0237 2.464,0.31432 3.057,0.96893 1.259,1.39124 4.592,1.9097 5.471,0.851 z m -3.157,-19.22221 c 0.131,-0.59523 0.69,-3.04895 1.243,-5.45271 1.354,-5.88901 1.972,-13.17624 1.977,-23.28677 0,-4.62958 0.22,-10.09552 0.483,-12.14653 0.459,-3.58033 1.541,-6.61229 2.358,-6.61229 0.844,0 0.947,0.64226 0.268,1.67719 -0.914,1.39515 -1.556,9.10029 -1.848,22.18995 -0.186,8.31989 -0.45,11.28017 -1.459,16.35385 -1.335,6.71743 -1.868,8.35955 -2.712,8.35955 -0.317,0 -0.447,-0.45473 -0.31,-1.08224 z m 6.409,-22.08579 c -0.524,-1.66533 -0.626,-3.5798 -0.244,-4.58511 0.669,-1.75795 1.334,-1.28816 1.328,0.93765 0,1.12432 0.07,2.45383 0.157,2.95445 0.186,1.04108 -0.935,1.66678 -1.241,0.69301 z m -110.686,-24.93151 c 0.176,-0.28567 -0.387,-0.481 -1.387,-0.481 -0.926,0 -1.817,0.21645 -1.981,0.481 -0.176,0.28567 0.387,0.48099 1.387,0.48099 0.926,0 1.817,-0.21645 1.981,-0.48099 z m -19.408,-6.61369 c 0.145,-11.6916 0.225,-14.3385 0.617,-20.20181 0.347,-5.19977 0.304,-5.8922 -0.362,-5.8922 -0.415,0 -0.874,0.19296 -1.02,0.4288 -0.375,0.60688 -0.8,29.28351 -0.454,30.6609 0.671,2.67462 1.148,0.71985 1.219,-4.99569 z m 8.584,4.04393 c 0.845,-0.40052 1.228,-0.99622 1.29,-2.00618 0.05,-0.79008 0.394,-5.76547 0.767,-11.05642 1.062,-15.05619 0.51,-27.17624 -1.238,-27.17624 -0.237,0 -1.005,0.4045 -1.707,0.89889 -0.703,0.49438 -1.744,1.04374 -2.315,1.22079 -0.571,0.17706 -1.187,0.69246 -1.368,1.14535 -1.269,3.16382 -2.732,31.25825 -1.899,36.46508 l 0.315,1.96716 2.476,-0.44437 c 1.362,-0.24441 3.017,-0.70074 3.679,-1.01406 z m 114.665,-7.90514 c 1.02,-0.69797 2.035,-1.74576 2.257,-2.32843 0.221,-0.58267 1.202,-1.67401 2.178,-2.42521 0.977,-0.75119 2.528,-2.0034 3.447,-2.78268 0.918,-0.77928 3.001,-2.08928 4.626,-2.91111 2.195,-1.10938 3.177,-1.93769 3.811,-3.21607 0.47,-0.94702 1.715,-2.31795 2.766,-3.04651 1.052,-0.72856 1.912,-1.49377 1.912,-1.70046 0,-0.60132 3.913,-1.91019 6.013,-2.01166 1.059,-0.0511 3.491,0.0834 5.406,0.29885 3.476,0.39123 3.482,0.38993 3.969,-0.89017 0.9,-2.36794 0.535,-4.51322 -1.437,-8.43428 -1.058,-2.10463 -1.924,-4.14852 -1.924,-4.54197 0,-1.60861 -1.625,-5.39891 -2.816,-6.5682 -0.785,-0.77022 -2.104,-1.38565 -3.438,-1.60388 -1.191,-0.19476 -2.814,-0.45838 -3.608,-0.58581 -1.238,-0.19876 -1.783,0.11486 -3.831,2.20512 -1.313,1.34025 -2.64,2.43682 -2.949,2.43682 -1.239,0 -5.635,6.9693 -6.159,9.7652 -1.007,5.36271 -6.039,14.08964 -10.84,18.80011 -2.975,2.91814 -3.975,4.93013 -4.663,9.38016 l -0.326,2.11131 1.876,-0.34105 c 1.032,-0.18757 2.71,-0.91211 3.73,-1.61008 z m 6.097,-9.85369 c -0.03,-0.74599 1.052,-2.29562 4.094,-5.88567 0.673,-0.79364 2.093,-3.25937 3.156,-5.47941 1.353,-2.82404 2.085,-3.88444 2.439,-3.5304 0.898,0.89797 -3.099,8.13823 -6.568,11.89579 -1.71,1.85183 -3.114,3.20169 -3.121,2.99969 z m 20.073,-14.43874 c -0.545,-0.43094 -0.801,-1.83081 -0.967,-5.29451 -0.191,-3.98388 -0.386,-4.87972 -1.269,-5.82 -0.927,-0.98585 -0.961,-1.18045 -0.307,-1.72342 1.651,-1.36972 3.143,2.25012 3.143,7.62382 0,1.58519 0.208,3.42971 0.463,4.09893 0.536,1.40942 0,1.96204 -1.063,1.11518 z m -146.471,-6.83878 c 0.644,-1.85183 1.629,-4.2199 2.189,-5.26237 0.56,-1.04247 0.924,-1.98911 0.81,-2.10365 -1.352,-1.3516 -5.999,7.88723 -6.016,11.95953 0,0.93914 0.264,1.97904 0.595,2.31088 0.481,0.48312 0.666,0.19077 0.926,-1.46704 0.179,-1.13871 0.852,-3.58552 1.496,-5.43735 z m -3.947,-0.2405 c 0.243,0 0.442,-0.33084 0.442,-0.73521 0,-0.40436 0.662,-2.04525 1.47,-3.6464 0.951,-1.88392 1.315,-3.10962 1.031,-3.4735 -0.242,-0.30927 -0.483,-1.75277 -0.536,-3.20779 -0.05,-1.45501 -0.12,-2.92695 -0.149,-3.27097 -0.03,-0.41685 -0.626,-0.5773 -1.772,-0.481 -2.358,0.19806 -2.784,1.33422 -3.109,8.29295 -0.274,5.87798 0.05,7.34029 1.498,6.78431 0.376,-0.14432 0.882,-0.26239 1.125,-0.26239 z m 9.702,-3.72771 c 0.905,-1.25661 2.15,-3.69164 2.766,-5.4112 0.616,-1.71956 1.332,-3.40226 1.591,-3.73934 0.259,-0.33708 0.357,-0.72725 0.217,-0.86704 -0.14,-0.1398 -0.697,0.46066 -1.237,1.33436 -0.541,0.87369 -1.648,2.22426 -2.461,3.00126 -0.812,0.777 -1.477,1.58227 -1.477,1.78948 0,0.20721 -0.541,1.55976 -1.202,3.00566 -1.403,3.06529 -1.42,3.17154 -0.522,3.17154 0.374,0 1.421,-1.02812 2.325,-2.28472 z m 126.042,0.31872 c 0.578,-1.01563 0.842,-2.52146 0.842,-4.80691 0,-2.9736 -0.1,-3.32799 -0.934,-3.32799 -1.548,0 -1.901,0.94324 -2.067,5.53145 -0.152,4.20615 0.677,5.2063 2.159,2.60345 z m -141.556,97.84676 c -3.275,-1.68975 -3.301,-1.80263 -3.34,-14.21721 -0.02,-5.66328 -0.315,-10.92802 -0.801,-14.18937 -0.458,-3.06886 -0.657,-6.32669 -0.486,-7.98181 0.167,-1.61466 -0.02,-4.83166 -0.434,-7.61201 -0.729,-4.85409 -0.667,-5.70479 0.421,-5.70479 0.762,0 1.738,7.63075 1.816,14.19459 0.03,2.64835 0.347,6.86908 0.7,9.37941 0.354,2.51033 0.637,8.42162 0.629,13.13619 -0.01,9.49031 0.17,10.19841 3.055,11.69037 2.216,1.1455 6.977,1.16971 7.806,0.0397 0.544,-0.74228 1.33,-0.85158 5.665,-0.78812 4.989,0.0731 5.053,0.0597 7.315,-1.54318 1.68,-1.18979 2.747,-2.50623 4.04,-4.98384 0.966,-1.85183 2.028,-3.65299 2.358,-4.00257 0.565,-0.59662 0.853,-2.12722 0.606,-3.21236 -1.248,-5.47214 -1.664,-11.10582 -1.546,-20.9233 0.13,-10.84508 0.557,-14.42987 1.721,-14.42987 1.059,0 1.204,0.50088 0.604,2.08346 -0.391,1.03362 -0.569,5.08378 -0.55,12.58691 0.03,10.56617 0.606,17.58171 1.778,21.5022 0.498,1.66604 0.435,1.89294 -0.98,3.50396 -0.832,0.94741 -1.524,1.98559 -1.538,2.30707 -0.06,1.2844 -3.719,5.93062 -5.752,7.29794 -1.826,1.2283 -2.719,1.48078 -5.768,1.63069 -1.985,0.0975 -3.835,0.36075 -4.113,0.58489 -0.277,0.22413 -2.767,0.54447 -5.532,0.71186 -4.868,0.29464 -5.112,0.2608 -7.674,-1.0608 z m 9.622,-17.11775 c 0,-1.08738 1.891,-5.82081 3.97,-9.94038 3.341,-6.62036 7.079,-9.70303 7.487,-6.1746 0.14,1.21904 0.05,1.29261 -1.267,1.02934 -1.262,-0.25243 -1.575,-0.0539 -2.853,1.80948 -2.04,2.97519 -3.716,6.44717 -4.726,9.78895 -0.913,3.02272 -1.484,4.08846 -2.189,4.08846 -0.232,0 -0.422,-0.27056 -0.422,-0.60125 z m 7.067,-0.24051 c -1.108,-1.94252 -0.213,-8.60571 1.37,-10.20054 1.169,-1.17685 1.9,0.0539 1.031,1.73418 -1.069,2.06615 -1.523,5.80225 -0.81,6.66087 0.324,0.39105 0.464,1.03842 0.31,1.43861 -0.29,0.75556 -1.542,0.99714 -1.901,0.36688 z m 77.875,-73.65954 c -0.146,-0.23538 -0.167,-4.28592 -0.05,-9.00119 0.212,-8.36228 0.244,-8.5831 1.302,-8.97421 0.596,-0.22053 1.741,-0.33662 2.544,-0.25796 1.422,0.13932 1.456,0.20078 1.304,2.38342 -0.13,1.883 0.624,4.48136 1.635,5.63063 0.08,0.0963 0.9,-0.28583 1.812,-0.84921 1.817,-1.12309 3.9,-3.61568 4.634,-5.54598 0.265,-0.69577 0.848,-1.23535 1.337,-1.23535 1.134,0 3.005,1.32488 3.005,2.12806 0,0.95439 -4.033,7.03872 -5.851,8.82803 -0.881,0.86717 -2.415,1.79542 -3.408,2.06277 -1.735,0.4671 -1.806,0.56771 -1.806,2.57593 0,1.76064 -0.17,2.13553 -1.082,2.37987 -1.639,0.43922 -5.08,0.35939 -5.379,-0.12481 z m 3.903,-1.87202 c 0.312,-0.19871 0.637,-1.33174 0.721,-2.51786 0.146,-2.04145 0.231,-2.15658 1.597,-2.15658 1.854,0 4.956,-1.82969 5.488,-3.23767 0.616,-1.62833 0.259,-1.61951 -1.632,0.0402 -3.745,3.28742 -5.558,2.4346 -6.537,-3.07505 -0.351,-1.97336 -0.78,-3.58793 -0.953,-3.58793 -0.73,0 -1.316,13.8903 -0.616,14.5902 0.42,0.41902 1.222,0.39603 1.932,-0.0553 z m -52.175,0.46698 c -1.182,-0.77603 0.701,-14.04249 2.385,-16.80556 0.774,-1.27029 1.259,-1.56324 2.588,-1.56324 1.904,0 2.345,0.95704 1.951,4.23071 -0.226,1.87355 0.484,3.47073 1.541,3.46276 1.003,-0.008 4.103,-2.47175 5.626,-4.47284 2.896,-3.80315 4.056,-1.85836 1.954,3.27281 -1.49,3.63383 -2.869,5.12488 -6.385,6.90223 -2.022,1.02162 -2.942,1.80792 -3.33,2.84622 -0.415,1.10814 -0.907,1.49165 -2.165,1.68514 -0.895,0.13777 -2.061,0.38411 -2.59,0.5474 -0.529,0.1633 -1.238,0.11577 -1.575,-0.10563 z m 3.62,-2.31811 c 0.886,-0.23764 1.082,-0.62745 1.082,-2.15792 0,-1.8464 0.02,-1.86788 1.852,-1.86788 1.272,0 2.44,-0.42722 3.728,-1.36279 1.832,-1.33036 3.797,-3.34001 2.839,-2.90327 -0.265,0.12063 -1.511,0.68973 -2.769,1.26467 -3.814,1.74301 -5.459,0.47401 -5.308,-4.09541 0.108,-3.2614 -0.507,-3.83313 -1.635,-1.52188 -0.61,1.24918 -1.594,8.11783 -1.594,11.13129 0,1.91139 0.08,1.97595 1.805,1.51319 z"
       id="path1" /></g></svg>
