<?xml version="1.0" encoding="UTF-8" standalone="no"?>
<!-- Created with Inkscape (http://www.inkscape.org/) -->

<svg
   width="231.38646"
   height="235.24007"
   viewBox="0 0 61.221 62.240601"
   version="1.1"
   id="svg1"
   xml:space="preserve"
   xmlns="http://www.w3.org/2000/svg"
   xmlns:svg="http://www.w3.org/2000/svg"><defs
     id="defs1" /><g
     id="g1709"
     transform="matrix(0.26452966,-0.00532888,0.00532888,0.26452966,-4102.5249,-57.041814)"><path
       style="fill:#000000"
       d="m 15696.442,696.23415 c -3.401,-0.17167 -12.474,-0.45666 -20.161,-0.6333 -68.163,-1.56615 -90.007,-2.12466 -95.343,-2.43765 -7.204,-0.42258 -31.519,-1.18607 -47.523,-1.49223 -8.053,-0.15405 -15.408,-0.47344 -16.345,-0.70976 l -1.704,-0.42968 -0.05,-3.34798 c -0.07,-4.34946 0.215,-4.58082 5.088,-4.17416 l 3.767,0.31431 0.329,-3.34803 c 0.182,-1.84141 0.426,-9.67963 0.544,-17.41826 0.117,-7.73863 0.317,-18.17713 0.444,-23.19666 0.127,-5.01953 0.349,-16.47559 0.494,-25.45791 0.144,-8.98232 0.372,-22.65477 0.507,-30.38322 l 0.244,-14.05173 -1.203,-0.54873 c -1.575,-0.71785 -1.121,-1.36893 0.954,-1.36893 1.281,0 1.652,0.19745 1.652,0.87951 0,1.79247 1.573,1.94128 23.762,2.24762 11.881,0.16403 23.221,0.37806 25.201,0.47563 1.981,0.0976 13.321,0.29933 25.202,0.44835 11.881,0.14902 29.486,0.37988 39.123,0.51301 9.636,0.13313 27.025,0.37195 38.642,0.53071 11.617,0.15876 21.284,0.38757 21.483,0.50848 0.2,0.12091 0.269,1.01711 0.155,1.99155 -0.114,0.97445 -0.34,7.39168 -0.503,14.26051 -0.163,6.86884 -0.499,20.59449 -0.747,30.50146 -0.248,9.90697 -0.573,23.20033 -0.723,29.54079 -0.15,6.34046 -0.355,14.77039 -0.455,18.73318 -0.1,3.96279 -0.197,9.63678 -0.215,12.60887 -0.03,4.99161 -0.104,5.4038 -0.953,5.4038 -0.867,0 -0.908,-0.34706 -0.735,-6.12431 0.102,-3.36837 0.301,-8.50198 0.443,-11.40802 0.142,-2.90605 0.362,-8.85023 0.487,-13.2093 0.126,-4.35906 0.344,-11.92439 0.484,-16.81183 0.141,-4.88743 0.354,-12.12853 0.474,-16.09132 0.119,-3.96279 0.348,-14.01386 0.507,-22.33571 0.159,-8.32186 0.356,-16.80583 0.437,-18.85327 0.08,-2.04744 0.03,-3.72262 -0.111,-3.72262 -0.142,0 -1.412,0.8909 -2.822,1.97977 -2.518,1.94335 -2.565,2.02508 -2.544,4.44313 0.01,1.35484 -0.09,12.83866 -0.232,25.51958 -0.346,31.55211 -0.35,77.05536 0,77.61223 0.165,0.26706 2.064,0.34525 4.57,0.1882 2.358,-0.14777 4.303,-0.205 4.322,-0.12718 0.02,0.0778 0.136,2.11445 0.26,4.52583 0.17,3.31713 0.07,4.43096 -0.395,4.57588 -0.341,0.10534 -3.402,0.0511 -6.803,-0.12061 z m 4.513,-2.36008 c 0.834,-0.44648 0.976,-0.91173 0.856,-2.78723 l -0.145,-2.25128 -3.361,-0.0632 c -1.848,-0.0348 -12.757,-0.19815 -24.241,-0.36305 -11.485,-0.1649 -25.634,-0.40505 -31.442,-0.53366 -5.809,-0.12862 -16.393,-0.35826 -23.522,-0.51032 -14.122,-0.30123 -34.138,-0.88266 -56.644,-1.64536 -13.678,-0.46355 -42.246,-0.82234 -44.042,-0.55312 -0.462,0.0693 -0.84,0.41648 -0.84,0.77161 0,0.42328 0.353,0.55309 1.027,0.37687 0.947,-0.24784 1.002,-0.13521 0.706,1.4437 l -0.321,1.71252 3.494,0.26581 c 3.308,0.25163 10.428,0.45952 35.416,1.03403 5.941,0.13658 12.529,0.35357 14.641,0.4822 2.112,0.12863 11.833,0.4428 21.602,0.69815 9.768,0.25536 21.325,0.57331 25.681,0.70656 4.356,0.13325 18.073,0.47234 30.482,0.75353 12.409,0.28119 23.534,0.55713 24.722,0.61319 8.727,0.41181 25.058,0.31677 25.931,-0.15091 z m -8.958,-7.0908 c 0.296,-0.47839 0.789,-38.70843 0.991,-76.78283 l 0.148,-27.91929 -3.416,-0.28853 c -1.878,-0.1587 -10.544,-0.32997 -19.257,-0.38061 -8.712,-0.0506 -16.921,-0.13345 -18.241,-0.18401 -1.32,-0.0506 -16.009,-0.2348 -32.642,-0.40943 -16.633,-0.17463 -36.182,-0.52187 -43.443,-0.77163 -7.26,-0.24977 -19.496,-0.56848 -27.192,-0.70824 l -13.991,-0.25412 -0.28,6.8417 c -0.154,3.76293 -0.402,16.46046 -0.551,28.21673 -0.148,11.75627 -0.357,23.32041 -0.464,25.69808 -0.108,2.37767 -0.26,13.18528 -0.34,24.0169 l -0.144,19.69385 7.68,0.34253 c 4.224,0.18839 8.275,0.22526 9.001,0.0819 1.244,-0.24567 1.32,-0.40885 1.32,-2.8474 0,-2.12441 0.177,-2.68192 0.994,-3.11897 1.207,-0.64655 13.506,-0.31341 15.381,0.41664 1.413,0.54988 1.891,1.79027 1.543,3.9991 -0.149,0.95038 -10e-4,1.64986 0.404,1.90669 0.898,0.5699 11.92,0.53154 11.92,-0.0415 0,-0.254 0.857,-0.69271 1.904,-0.9749 1.047,-0.2822 2.073,-0.80301 2.28,-1.15737 0.239,-0.40871 1.868,-0.77242 4.456,-0.99477 8.214,-0.7056 9.594,-0.40602 9.608,2.08658 0.02,2.80906 2.41,3.45535 2.874,0.77591 l 0.248,-1.43514 6.716,0.0744 c 7.345,0.0814 11.338,0.57805 11.624,1.44592 0.102,0.30782 -0.259,0.70065 -0.801,0.87296 -2.256,0.71636 -0.67,1.14889 4.294,1.17125 5.237,0.0236 5.28,0.0145 5.28,-1.11115 0,-0.6242 0.27,-1.34825 0.6,-1.60898 1.272,-1.00493 6.372,-1.039 12.841,-0.0858 3.564,0.52524 6.912,0.92375 7.44,0.88559 2.032,-0.14684 2.273,0.003 1.966,1.22643 l -0.298,1.18948 8.287,0.13145 c 22.686,0.35988 31.038,0.36001 31.26,5.2e-4 z m -135.285,-30.65113 c -0.362,-2.89855 -0.218,-3.35421 0.923,-2.916 0.443,0.1698 0.741,0.87124 0.741,1.74052 0,1.7414 0.106,1.76194 1.969,0.38352 1.731,-1.28047 3.786,-1.2078 6.107,0.21588 1.41,0.86489 1.745,0.90358 2.88,0.33269 0.707,-0.35531 1.447,-0.72501 1.645,-0.82155 0.198,-0.0965 0.359,0.11268 0.357,0.46493 0,0.35225 -0.727,1.13329 -1.611,1.73566 -1.29,0.87881 -1.849,1.0033 -2.83,0.63005 -0.673,-0.25584 -1.342,-0.65799 -1.488,-0.89367 -0.522,-0.84635 -4.617,-0.28989 -5.757,0.78259 -1.859,1.747 -2.561,1.35135 -2.936,-1.65462 z m 21.248,0.88103 c -0.403,-1.61399 -0.138,-4.11973 0.458,-4.32066 0.404,-0.13663 0.6,0.34826 0.6,1.49034 0,2.35447 0.672,2.53863 2.88,0.78888 1.884,-1.49307 3.21,-1.55393 2.661,-0.12211 -0.156,0.40776 0.07,1.13792 0.513,1.62258 0.743,0.82172 0.741,0.90239 -0.02,1.1952 -0.45,0.17271 -1.316,0.0471 -1.926,-0.27918 -0.823,-0.44107 -1.361,-0.45744 -2.096,-0.0638 -1.461,0.78246 -2.831,0.64355 -3.069,-0.31122 z m -3.762,-0.63645 c -0.626,-1.16974 -0.171,-2.846 0.772,-2.846 0.378,0 0.687,0.41463 0.687,0.92139 0,0.50677 0.121,1.2354 0.268,1.6192 0.429,1.1199 -1.143,1.39793 -1.727,0.30541 z m -18.067,-20.47259 c -1.493,-0.29074 -2.165,-1.3032 -1.808,-2.72461 0.34,-1.35555 1.613,-1.97439 3.093,-1.50418 1.275,0.40489 1.218,1.39941 -0.12,2.09952 -0.968,0.5068 -0.895,0.54243 0.711,0.34519 2.057,-0.25248 2.862,0.51146 1.551,1.47087 -0.883,0.64613 -1.451,0.69806 -3.427,0.31321 z m 20.061,-2.37091 c -1.111,-0.77919 -1.398,-3.05872 -0.385,-3.05872 0.54,0 2.731,2.44798 2.731,3.05135 0,0.61866 -1.467,0.62327 -2.346,0.007 z m -11.17,-0.86837 c -0.727,-1.59786 0.115,-3.63137 1.504,-3.63137 1.079,0 1.281,0.93819 0.395,1.82529 -0.67,0.67006 -0.129,1.36012 1.262,1.61054 1.598,0.28785 1.074,1.12072 -0.803,1.2763 -1.534,0.12708 -1.88,-0.0314 -2.358,-1.08076 z m 6.944,-0.57446 c -0.329,-0.85788 0.31,-2.16927 1.203,-2.46694 0.632,-0.21099 1.684,2.13098 1.263,2.81271 -0.451,0.73122 -2.144,0.4939 -2.466,-0.34577 z m -17.769,-4.19938 c 0.239,-0.71808 2.063,-1.15529 5.054,-1.21133 2.066,-0.0387 2.526,0.0942 2.401,0.69304 -0.121,0.57514 -0.991,0.77333 -3.891,0.88572 -2.49,0.0965 -3.678,-0.026 -3.564,-0.36743 z m -3.178,-24.51233 c -0.143,-0.37248 -0.02,-1.45707 0.272,-2.4102 0.391,-1.2751 0.386,-2.51104 -0.02,-4.67799 -0.579,-3.11606 -0.468,-3.76269 0.649,-3.76269 0.742,0 0.808,0.50103 0.924,6.9649 0.06,3.48243 -0.227,4.53123 -1.261,4.55586 -0.17,0.004 -0.425,-0.2974 -0.568,-0.66988 z m 122.561,-0.77383 c -0.55,-1.32854 -0.742,-1.42459 -2.271,-1.13752 -1.175,0.22051 -1.795,0.11661 -2.091,-0.35021 -0.655,-1.03485 -0.507,-3.17484 0.238,-3.46128 0.895,-0.34366 1.248,0.0726 1.248,1.47474 0,1.01136 0.168,1.12362 1.32,0.88148 0.726,-0.15262 1.557,-0.11575 1.848,0.0819 0.716,0.48755 1.632,2.28813 1.632,3.20985 0,1.2922 -1.295,0.82191 -1.924,-0.69898 z m -89.421,-0.5229 c -1.003,-1.28314 -1.308,-1.41852 -2.163,-0.96068 -1.66,0.88887 -2.686,0.60375 -3.818,-1.06115 -1.31,-1.92529 -1.339,-2.2486 -0.198,-2.2486 0.486,0 1.13,0.54038 1.43,1.20084 0.632,1.38832 0.993,1.4668 2.276,0.49562 1.428,-1.08076 2.322,-0.87683 3.281,0.74877 0.784,1.32712 1.049,1.45215 2.504,1.17908 2.031,-0.38136 2.149,0.40395 0.211,1.4069 -1.937,1.00245 -2.186,0.94885 -3.523,-0.76078 z m 47.024,1.13337 c -0.579,-0.97225 -0.821,-8.40448 -0.295,-9.03939 0.955,-1.15081 1.305,-0.34669 1.358,3.11402 0.03,1.83135 0.268,3.90081 0.533,4.59878 0.265,0.69798 0.482,1.36305 0.482,1.47794 0,0.36149 -1.853,0.22652 -2.078,-0.15135 z m -69.086,-0.92578 c -0.668,-0.66889 -1.016,-0.70967 -2.046,-0.24017 -2.318,1.05723 -2.793,0.78599 -2.444,-1.39756 0.273,-1.70874 0.188,-1.99606 -0.659,-2.21755 -1.232,-0.32244 -1.313,-2.06376 -0.1,-2.06376 1.078,0 2.964,1.93068 2.964,3.03307 0,1.00381 0.76,1.06355 1.134,0.0891 0.431,-1.12273 1.095,-0.85374 1.74,0.70453 0.324,0.78378 0.999,1.55488 1.498,1.71356 0.5,0.15868 0.909,0.49009 0.909,0.73648 0,0.75358 -2.145,0.49782 -3,-0.35773 z m 33.473,0.31058 c -0.187,-0.3021 -0.121,-0.76845 0.147,-1.03634 0.638,-0.63872 3.569,0.008 3.33,0.73462 -0.245,0.74904 -3.051,0.99245 -3.477,0.30172 z m 46.699,-0.57416 c -0.638,-0.96141 -0.843,-1.00843 -2.032,-0.46614 -1.743,0.79469 -2.656,0.0521 -2.656,-2.16115 0,-1.31946 0.172,-1.6246 0.84,-1.49588 0.461,0.089 0.839,0.48306 0.84,0.87582 0,1.32805 1.499,1.32305 1.921,-0.006 0.463,-1.46009 1.522,-1.14783 1.861,0.54869 0.166,0.83014 0.658,1.77004 1.094,2.08865 0.849,0.62121 0.517,1.68571 -0.525,1.68571 -0.348,0 -0.952,-0.48118 -1.343,-1.06928 z m -70.836,0.0125 c -0.794,-0.79475 -0.725,-3.98557 0.101,-4.67182 0.913,-0.75764 1.431,0.11002 1.028,1.71894 -0.169,0.67072 -0.06,1.51357 0.236,1.87301 0.532,0.64162 0.267,1.65628 -0.433,1.65628 -0.196,0 -0.615,-0.25938 -0.932,-0.57641 z m 85.219,-0.38427 c -0.672,-0.52837 -1.66,-0.96067 -2.197,-0.96067 -1.259,0 -1.752,-0.81404 -1.024,-1.69213 0.379,-0.45583 0.84,-0.54955 1.362,-0.27664 0.434,0.227 1.526,0.30094 2.426,0.16431 1.416,-0.21486 1.593,-0.13398 1.312,0.59873 -0.179,0.46593 -0.09,1.13451 0.205,1.48574 0.533,0.6426 0.243,1.64134 -0.477,1.64134 -0.213,0 -0.936,-0.43231 -1.607,-0.96068 z m 7.934,0.38344 c -0.282,-0.34299 -0.555,-1.38014 -0.607,-2.30479 -0.165,-2.96943 -0.04,-3.44213 0.834,-3.2728 0.664,0.12781 0.801,0.57676 0.681,2.23145 -0.128,1.773 0,2.10986 0.87,2.33806 0.56,0.14664 0.939,0.50929 0.841,0.80589 -0.259,0.79008 -2.023,0.92623 -2.619,0.20219 z m -72.812,-0.70393 c -0.169,-0.44045 -0.1,-1.00953 0.156,-1.26462 0.707,-0.70732 1.969,-0.009 1.969,1.0897 0,1.2048 -1.677,1.34284 -2.125,0.17492 z m 55.596,0.11786 c -0.144,-0.37564 -0.02,-1.13217 0.272,-1.68119 0.582,-1.08766 1.936,-1.36443 1.947,-0.39778 0,0.33023 0.136,1.08676 0.296,1.68118 0.247,0.92161 0.102,1.08076 -0.982,1.08076 -0.699,0 -1.389,-0.30734 -1.533,-0.68297 z m -1.217,84.7948 c 1.012,-0.64124 0.22,-0.86118 -5.355,-1.48872 -5.583,-0.62844 -8.497,-0.38099 -8.497,0.72156 0,0.5409 1.124,0.71489 5.4,0.83623 2.971,0.0843 5.941,0.19612 6.601,0.24855 0.66,0.0524 1.493,-0.0905 1.851,-0.31762 z m -48.693,-0.82459 c 0.984,-0.37806 0.966,-1.35377 -0.04,-2.36464 -0.672,-0.67267 -1.395,-0.75157 -4.44,-0.48465 -4.69,0.41107 -5.318,0.61346 -5.318,1.71418 0,0.81646 0.458,0.92662 4.44,1.06879 2.443,0.0872 4.477,0.20336 4.521,0.25819 0.05,0.0548 0.423,-0.0315 0.841,-0.19187 z m 17.56,-0.42894 c 0,-0.58923 -0.82,-0.72051 -4.502,-0.72051 -3.415,0 -4.645,0.17379 -5.099,0.72051 -0.525,0.63276 0.02,0.7205 4.502,0.7205 4.212,0 5.099,-0.12527 5.099,-0.7205 z m -49.296,-0.71395 c 1.286,-0.006 1.341,-0.0991 1.2,-2.02898 -0.141,-1.93536 -0.23,-2.03942 -2.058,-2.41727 -1.052,-0.21716 -4.076,-0.3338 -6.721,-0.25918 l -4.809,0.13566 v 2.16152 2.16152 l 4.56,0.27718 c 2.508,0.15244 4.993,0.20943 5.521,0.12664 0.528,-0.0828 1.566,-0.15348 2.307,-0.15709 z m -34.176,-10.33383 c 0.29,-9.02247 0.714,-36.43794 1.179,-76.20086 l 0.239,-20.48166 -1.936,-1.53393 c -1.064,-0.84366 -2.205,-1.44387 -2.535,-1.3338 -0.434,0.14449 -0.616,1.85837 -0.655,6.16444 -0.08,9.13807 -0.74,43.45295 -0.909,47.51354 -0.08,1.98139 -0.309,15.23309 -0.504,29.44822 l -0.353,25.84569 2.59,-0.14761 2.59,-0.14761 z m 163.2,-94.74791 c 1.785,-0.74215 4.061,-3.54153 3.234,-3.978 -0.813,-0.42871 -17.485,-0.86311 -46.72,-1.21731 -42.094,-0.50999 -85.073,-1.25579 -110.527,-1.91791 -6.998,-0.18204 -10.681,-0.11192 -10.681,0.20337 0,0.26467 0.702,0.97929 1.56,1.58806 0.859,0.60876 2.045,1.67912 2.636,2.37857 l 1.076,1.27172 16.686,0.30406 c 9.176,0.16722 20.033,0.43588 24.125,0.59701 10.439,0.41101 12.359,0.44074 56.404,0.87336 21.649,0.21264 39.427,0.43998 39.505,0.5052 0.471,0.39176 21.662,-0.1759 22.702,-0.60813 z"
       id="path1" /></g></svg>
