<?xml version="1.0" encoding="UTF-8" standalone="no"?>
<!-- Created with Inkscape (http://www.inkscape.org/) -->

<svg
   width="231.38646"
   height="235.24007"
   viewBox="0 0 61.221 62.240601"
   version="1.1"
   id="svg1"
   xml:space="preserve"
   xmlns="http://www.w3.org/2000/svg"
   xmlns:svg="http://www.w3.org/2000/svg"><defs
     id="defs1" /><g
     id="g2043"
     transform="matrix(0.26458333,0,0,0.26458333,-5177.3471,-10.154699)"><path
       style="fill:#000000"
       d="m 19679.692,240.70058 c -0.486,-0.33219 -1.724,-0.73561 -2.75,-0.8965 -2.847,-0.44609 -7.507,-2.89591 -9.933,-5.22177 -3.383,-3.24405 -4.493,-4.04186 -5.381,-3.86846 -1.477,0.28843 -5.161,-1.68116 -5.675,-3.03464 -0.849,-2.23186 -0.58,-3.04818 1.325,-4.02232 5.841,-2.98733 5.864,-3.00459 6.362,-4.79795 0.948,-3.41471 0.603,-11.23147 -0.695,-15.709 -1.393,-4.80656 -1.855,-5.75686 -3.606,-7.42197 -3.228,-3.06874 -6.154,-9.25542 -6.968,-14.73313 -0.194,-1.31065 -0.679,-3.65909 -1.077,-5.21875 -0.587,-2.3035 -0.611,-3.07105 -0.127,-4.08938 0.327,-0.68949 0.55,-2.15118 0.493,-3.2482 -0.148,-2.88912 0.94,-11.75148 1.615,-13.16017 0.317,-0.66151 1.165,-2.35109 1.883,-3.75461 1.296,-2.53093 1.299,-2.56141 0.391,-3.71567 -0.757,-0.96207 -0.897,-1.85409 -0.809,-5.14579 0.06,-2.19009 0.271,-5.00042 0.472,-6.24517 0.356,-2.21144 0.333,-2.27017 -1.01,-2.56826 -3.121,-0.69278 -7.354,-2.24438 -7.892,-2.89331 -0.317,-0.382 -1.174,-0.69454 -1.903,-0.69454 -1.498,0 -1.917,-0.75976 -3.055,-5.53269 -1.681,-7.05289 -3.557,-37.244379 -2.476,-39.837999 0.2,-0.477763 0.234,-1.81015 0.08,-2.96086 -0.219,-1.599976 -0.103,-2.244514 0.497,-2.739612 0.431,-0.356077 1.296,-1.729895 1.921,-3.052928 3.151,-6.664255 4.144,-7.467163 11.584,-9.365979 4.137,-1.055892 7.721,-1.21682 23.449,-1.053109 5.821,0.0606 12.533,-0.02706 14.915,-0.194785 3.314,-0.233382 7.435,0.05086 17.561,1.211032 13.523,1.549447 15.942,1.962545 18.595,3.17612 1.826,0.835057 6.334,5.65021 6.655,7.108274 1.722,7.820834 2.017,12.329034 1.232,18.856291 -0.254,2.109912 -0.581,7.949635 -0.726,12.977155 -0.145,5.02753 -0.404,10.22344 -0.576,11.54648 -0.172,1.32303 -0.355,2.73026 -0.408,3.12717 -0.294,2.22437 -1,3.40813 -2.799,4.6909 -2.736,1.95169 -4.906,3.02736 -7.925,3.92936 l -2.552,0.76221 -0.166,5.0511 c -0.09,2.7781 -0.423,5.60938 -0.736,6.29172 -0.511,1.11286 -0.349,1.60829 1.575,4.81103 3.484,5.80019 4.452,10.40138 4.241,20.16846 -0.192,8.93553 -0.883,14.96425 -2.04,17.80081 -1.896,4.65067 -4.992,8.55707 -6.365,8.03033 -0.485,-0.18636 -0.766,0.18934 -0.945,1.26469 -0.14,0.84139 -0.807,3.80301 -1.482,6.58138 -0.791,3.25471 -1.231,6.44202 -1.238,8.96054 -0.01,5.92514 0.257,6.74992 2.703,8.18321 2.485,1.45591 5.466,4.77459 5.466,6.0839 0,1.56491 -2.998,4.12477 -5.254,4.48542 -1.524,0.24373 -2.32,0.72328 -3.272,1.97202 -0.692,0.90748 -2.123,2.09107 -3.18,2.63019 -1.057,0.53912 -3.131,1.79639 -4.61,2.79394 -4.483,3.02456 -7.203,3.53395 -15.919,2.98101 -3.308,-0.20984 -6.591,-0.22665 -7.296,-0.0374 -0.784,0.21058 -1.624,0.10973 -2.165,-0.25982 z m 22.394,-3.34667 c 1.424,-0.73178 3.032,-1.74297 3.573,-2.24709 0.541,-0.50412 1.433,-1.05243 1.982,-1.21847 1.461,-0.4422 4.184,-2.59139 3.889,-3.06941 -0.14,-0.22603 0.07,-0.73656 0.469,-1.13452 0.644,-0.64356 0.645,-1.51221 0,-7.85671 -0.953,-9.46787 -0.907,-13.071 0.231,-18.22289 0.524,-2.36805 0.957,-4.5559 0.963,-4.86189 0.01,-0.72398 -1.195,-0.42557 -6.245,1.54267 -3.67,1.43058 -10.39,2.94898 -17.08,3.85927 -1.323,0.18005 -2.642,0.51525 -2.932,0.74489 -0.754,0.59739 -10.537,0.0471 -13.617,-0.76589 -2.398,-0.63291 -2.73,-0.61521 -4.33,0.23057 -1.712,0.9044 -1.717,0.91636 -0.411,0.93735 0.728,0.0117 1.323,0.23085 1.323,0.487 0,0.25616 -0.595,0.80531 -1.323,1.22034 -0.868,0.4955 -0.992,0.67477 -0.36,0.52212 5.198,-1.25582 5.825,-0.65186 1.464,1.41078 -2.236,1.05798 -4.306,2.63536 -3.458,2.63536 0.159,0 2.438,-0.86598 5.063,-1.92441 4.925,-1.98553 5.831,-2.22006 5.831,-1.50901 0,0.44496 -9.667,5.35784 -10.542,5.35784 -0.288,0 -0.524,0.54414 -0.524,1.20921 v 1.20921 l 1.805,-0.78367 c 1.976,-0.8586 5.81,-2.11586 6.451,-2.11586 1.192,0 0.111,1.11836 -1.881,1.94459 -1.257,0.5215 -2.892,1.29041 -3.633,1.70868 -0.741,0.41827 -1.662,0.64017 -2.045,0.49312 -0.455,-0.17475 -0.697,0.0447 -0.697,0.63352 0,0.87463 0.07,0.87584 2.286,0.0414 3.559,-1.33863 5.414,-1.64402 5.407,-0.89046 0,0.35178 -1.573,1.24774 -3.489,1.99102 -4.523,1.75544 -4.896,1.96887 -5.081,2.9098 -0.226,1.14966 0.939,0.99123 4.803,-0.65295 3.925,-1.67009 3.773,-1.63792 3.773,-0.79514 0,0.76541 -6.273,4.16286 -7.686,4.16286 -0.536,0 -0.975,0.21959 -0.975,0.48797 0,0.54605 2.79,0.18625 3.589,-0.46287 0.79,-0.64198 4.564,-1.65534 4.903,-1.31656 0.168,0.1683 0.03,0.63598 -0.303,1.03929 -0.503,0.60572 -0.473,0.73328 0.172,0.73328 0.429,0 0.776,0.27062 0.769,0.60138 -0.01,0.73978 -7.054,4.35973 -7.702,3.95977 -0.882,-0.54517 -0.463,-1.65674 0.737,-1.95808 0.662,-0.16603 1.203,-0.51806 1.203,-0.78229 0,-0.26423 -0.342,-0.34901 -0.761,-0.18839 -0.419,0.16061 -1.285,0.29202 -1.924,0.29202 -0.894,0 -1.164,0.25695 -1.164,1.10654 0,2.59327 2.073,2.87165 7.48,1.00457 2.001,-0.69114 3.789,-1.10549 3.973,-0.92079 0.553,0.55491 -1.685,2.05306 -4.366,2.92265 -3.36,1.08994 -3.666,1.44633 -2.362,2.74809 0.879,0.87759 1.574,1.06531 3.75,1.01328 1.469,-0.0351 2.913,-0.30574 3.208,-0.60137 0.296,-0.29564 1.144,-0.53753 1.885,-0.53753 1.984,0 1.736,1.32673 -0.32,1.71239 -0.916,0.17197 -1.941,0.64293 -2.276,1.04657 -0.531,0.64037 -0.414,0.69119 0.917,0.39875 0.945,-0.20741 1.95,-0.10126 2.637,0.2785 1.886,1.04199 8.532,1.80525 14.582,1.67468 5.228,-0.11282 6.019,-0.25041 8.363,-1.45511 z m -31.096,-3.53427 c -0.331,-0.11093 -0.601,-0.61664 -0.601,-1.12381 0,-0.69492 0.34,-0.92211 1.383,-0.92211 0.761,0 2.06,-0.13531 2.887,-0.30069 1.155,-0.23113 1.503,-0.13174 1.503,0.42963 0,0.40168 -0.379,0.88668 -0.842,1.07779 -1.494,0.61643 -3.712,1.04639 -4.33,0.83919 z m -8.299,-5.39854 c 0,-0.2563 -0.325,-0.34139 -0.722,-0.18908 -0.397,0.15231 -0.722,0.36201 -0.722,0.466 0,0.104 0.325,0.18908 0.722,0.18908 0.397,0 0.722,-0.2097 0.722,-0.466 z m 55.525,-1.54061 c 0.867,-1.23767 0.559,-1.90474 -1.626,-3.51642 -2.091,-1.54306 -2.419,-1.52268 -2.419,0.15071 0,1.67208 0.429,2.16584 1.273,1.4655 0.969,-0.80401 2.187,-0.11664 2.009,1.13341 -0.176,1.23303 -1.757,1.74988 -2.375,0.77606 -0.329,-0.52048 -0.412,-0.5013 -0.418,0.097 -0.02,2.09487 2.058,2.03276 3.556,-0.10625 z m -57.835,0.94818 c -0.317,-0.31752 -0.577,-1.07526 -0.577,-1.68386 0,-1.2095 -0.05,-1.24273 -1.164,-0.81451 -1.116,0.42821 -0.927,1.88613 0.322,2.48851 1.466,0.70721 2.121,0.71176 1.419,0.01 z m 9.976,-1.54978 c 0.466,-0.56109 0.39,-0.63736 -0.422,-0.425 -0.544,0.14235 -0.99,0.45006 -0.99,0.68381 0,0.64892 0.777,0.50654 1.412,-0.25881 z m -7.185,-2.20282 c 0,-1.11589 -0.174,-1.16042 -1.585,-0.40555 -1.017,0.54404 -1.019,0.56508 -0.09,0.92839 1.472,0.57472 1.674,0.51157 1.674,-0.52284 z m 4.691,-20.99066 c 1.34,-0.35929 1.394,-0.97623 0.12,-1.38063 -1.289,-0.40919 -2.887,0.1412 -2.887,0.99463 0,0.72901 0.978,0.8654 2.767,0.386 z m 35.002,-3.57295 c 1.058,-0.30458 2.141,-0.72134 2.406,-0.92613 0.264,-0.2048 2.213,-0.95982 4.33,-1.67783 2.117,-0.71801 4.054,-1.50218 4.306,-1.74259 0.251,-0.24042 0.792,-0.43793 1.203,-0.43892 1.088,-0.003 4.934,-5.07062 6.389,-8.4175 1.454,-3.34636 2.205,-8.12056 1.36,-8.64294 -0.302,-0.18697 -1.284,0.21985 -2.181,0.90405 -0.897,0.6842 -1.775,1.244 -1.951,1.244 -0.176,0 -1.003,0.30967 -1.837,0.68816 -5.336,2.42208 -23.282,4.29025 -38.082,3.96419 -10.067,-0.22181 -11.948,-0.66597 -16.895,-3.99045 -3.299,-2.21706 -3.32,-2.22315 -5.231,-1.56409 -1.157,0.39863 -1.987,1.01613 -2.09,1.55344 -0.152,0.79586 0.05,0.85677 1.919,0.56623 1.15,-0.17906 2.469,-0.43259 2.932,-0.56339 0.53,-0.14961 0.842,0.0262 0.842,0.47396 0,0.45269 -0.685,0.8274 -1.88,1.02941 -1.034,0.1747 -2.279,0.60902 -2.766,0.96516 -1.647,1.20426 -0.197,1.35935 3.042,0.32528 1.772,-0.5657 3.317,-0.93275 3.434,-0.81566 0.625,0.62447 -0.587,1.60949 -2.981,2.4232 -1.484,0.50438 -2.698,1.20195 -2.698,1.55017 0,0.48749 0.268,0.45746 1.165,-0.13055 1.564,-1.02464 6.747,-1.58578 6.452,-0.69843 -0.116,0.34787 -1.251,0.93562 -2.522,1.30612 -3.147,0.91763 -2.573,1.20572 0.828,0.41525 2.965,-0.68924 4.106,-0.20905 2.45,1.03073 -0.846,0.63268 -0.79,0.67312 0.721,0.52839 2.067,-0.19804 2.374,0.5741 0.651,1.64197 -1.161,0.71963 -1.206,0.8297 -0.363,0.88556 0.529,0.0351 1.558,0.0245 2.285,-0.0235 1.6,-0.10547 1.73,0.60626 0.241,1.3177 -0.865,0.4131 -0.574,0.46284 1.443,0.24705 2.673,-0.2859 2.821,-0.15039 2.608,2.38963 -0.08,1.01667 -0.201,1.01118 2.35,0.11095 1.49,-0.52565 2.217,-0.58412 2.587,-0.20816 0.366,0.37252 0.243,0.72282 -0.429,1.21857 -0.863,0.6369 -0.745,0.68504 1.392,0.56899 2.435,-0.13225 3.578,0.72564 1.743,1.30814 -0.544,0.17258 -0.989,0.64711 -0.989,1.0545 0,0.50029 0.266,0.63855 0.82,0.42598 1.73,-0.66391 4.83,-0.85867 5.16,-0.32425 0.184,0.29676 0.838,0.41298 1.454,0.25826 0.617,-0.15471 1.266,-0.0473 1.443,0.23879 0.177,0.28605 0.958,0.52008 1.736,0.52008 0.867,0 1.415,0.2515 1.415,0.64919 0,0.53068 0.9,0.4909 4.932,-0.21789 2.712,-0.4769 5.797,-1.11629 6.856,-1.42086 z m -36.807,-5.95804 c 0,-0.50779 -0.923,-0.72113 -1.198,-0.27679 -0.166,0.26893 0.04,0.48895 0.448,0.48895 0.413,0 0.75,-0.0955 0.75,-0.21216 z m -4.265,-3.3912 1.619,-0.71675 -2.646,0.11537 c -2.215,0.0966 -2.636,-0.0154 -2.586,-0.68619 0.03,-0.44086 -0.329,-0.90317 -0.804,-1.02736 -0.82,-0.21454 -0.823,-0.14521 -0.06,1.3911 0.909,1.82869 1.949,2.04326 4.477,0.92383 z m 36.501,-8.44231 c 2.249,-0.24521 5.119,-0.55368 6.378,-0.68548 3.113,-0.32597 9.617,-1.99893 13.019,-3.34883 5.126,-2.03328 6.639,-6.01668 5.753,-15.14416 -0.445,-4.59015 -0.772,-5.87907 -2.239,-8.84444 -2.158,-4.35931 -2.509,-4.90562 -4.864,-7.56061 -5.242,-5.91026 -7.447,-6.76042 -16.603,-6.40141 -2.779,0.10894 -9.816,0.18571 -15.637,0.17058 -15.98,-0.0415 -14.692,-0.3916 -20.927,5.6877 -6.629,6.46404 -8.463,9.52556 -9.231,15.40804 -0.75,5.75067 -0.66,9.43491 0.266,10.84789 0.949,1.44845 8.217,6.67067 12.046,8.65569 2.69,1.39448 3.233,1.48989 10.104,1.77526 7.925,0.32917 15.567,0.13398 21.935,-0.56023 z m -21.606,-3.86885 c -7.145,-0.97451 -13.023,-3.07289 -13.894,-4.96015 -1.821,-3.9415 -2.143,-5.16072 -1.821,-6.89252 0.186,-1.00135 0.426,-2.63225 0.533,-3.62423 0.201,-1.86253 1.33,-6.24926 2.259,-8.78068 0.291,-0.79382 1.173,-2.09279 1.959,-2.88661 2.273,-2.29524 2.976,-3.56476 2.33,-4.2103 -0.303,-0.30395 -0.552,-1.14004 -0.552,-1.85799 0,-1.1808 0.31,-1.41168 3.247,-2.41943 3.159,-1.08351 3.65,-1.11024 17.923,-0.97474 12.332,0.11709 15.173,0.27714 17.801,1.0028 l 3.128,0.86347 v 1.87979 c 0,1.43185 0.482,2.56621 2.025,4.7603 1.114,1.58428 2.901,4.42385 3.971,6.31016 1.856,3.27225 1.951,3.64063 2.064,8.02637 l 0.119,4.59671 -1.684,1.75463 c -2.997,3.1226 -5.27,4.31158 -10.833,5.66732 -5.378,1.31031 -16.501,2.79441 -20.125,2.68521 -1.1,-0.0331 -4.902,-0.45616 -8.45,-0.94011 z m 21.606,-2.62369 c 9.768,-1.72905 12.923,-2.90398 15.812,-5.88788 l 1.618,-1.67189 -0.196,-4.48401 c -0.137,-3.13302 -0.421,-4.74589 -0.944,-5.3532 -0.411,-0.47805 -0.871,-1.22069 -1.023,-1.6503 -0.346,-0.98147 -4.47,-7.06479 -5.682,-8.38012 -0.871,-0.94638 -1.484,-0.98642 -16.671,-1.08977 -8.672,-0.059 -16.609,0.0963 -17.637,0.34521 -2.135,0.51655 -5.536,3.57342 -7.275,6.53807 -1.333,2.27263 -2.446,6.45405 -2.898,10.88406 -0.475,4.65584 0.653,7.01413 4.181,8.74023 1.439,0.70383 4.229,1.53178 6.201,1.83987 1.972,0.3081 4.668,0.73132 5.991,0.94049 3.334,0.52718 13.605,0.0998 18.523,-0.77076 z m 5.774,-30.77484 c 0,-0.39691 -0.163,-0.72698 -0.361,-0.73349 -8.666,-0.28422 -27.341,-0.30197 -28.748,-0.0273 -1.985,0.38756 11.841,0.7514 21.892,0.57611 2.794,-0.0487 5.374,0.13085 5.773,0.40176 1.012,0.68683 1.444,0.62194 1.444,-0.21705 z m -47.762,32.66488 c -0.16,-0.15986 -0.575,-0.17695 -0.923,-0.038 -0.383,0.15358 -0.269,0.26758 0.291,0.29067 0.507,0.0209 0.791,-0.0928 0.632,-0.25269 z m -2.537,-2.0816 c 0.152,-0.24632 0.06,-0.58384 -0.212,-0.75005 -0.269,-0.1662 -0.489,0.0353 -0.489,0.44786 0,0.84507 0.289,0.9695 0.701,0.30219 z m 4.351,-29.38053 c 0.163,-0.2646 0.722,-0.4811 1.242,-0.4811 1.335,0 5.132,-3.64804 5.489,-5.27337 0.283,-1.28738 0.495,-1.38645 4.001,-1.87355 2.058,-0.286 11.106,-0.5095 20.382,-0.50349 9.175,0.006 17.402,-0.11626 18.283,-0.27155 1.417,-0.24973 1.982,0.025 4.884,2.37747 4.511,3.6572 5.058,3.91819 5.339,2.54819 0.536,-2.61376 0.625,-5.91301 0.192,-7.15262 -0.54,-1.55032 -1.329,-1.81385 -4.001,-1.33706 -5.279,0.94176 -18.043,1.41811 -31.576,1.1784 -8.037,-0.14235 -15.826,-0.3955 -17.309,-0.56256 -1.777,-0.20008 -3.079,-0.0994 -3.816,0.29495 -1.048,0.56073 -1.065,0.63808 -0.269,1.21999 0.787,0.57546 0.749,0.67765 -0.515,1.38483 l -1.364,0.76351 1.804,-0.29893 c 3.208,-0.53141 1.699,1.34873 -2.646,3.29821 -0.728,0.32651 -1.323,0.86554 -1.323,1.19785 0,0.75536 0,0.75524 2.091,-0.11744 2.262,-0.94496 2.72,-0.9107 2.72,0.20324 0,0.62413 -0.528,1.09937 -1.626,1.46142 -1.62,0.53489 -3.808,2.42472 -2.807,2.42472 0.29,0 0.661,-0.2165 0.825,-0.48111 z m 33.524,-13.21256 c 0.708,-0.18983 1.668,-0.13251 2.132,0.12737 0.583,0.32606 1.595,0.24963 3.266,-0.24661 1.696,-0.50356 2.475,-0.56007 2.599,-0.18854 0.249,0.74642 0.822,0.66762 3.081,-0.42372 1.086,-0.52485 2.723,-1.09462 3.637,-1.26616 1.535,-0.2879 1.638,-0.23306 1.337,0.71373 -0.396,1.24995 -0.421,1.249 1.886,0.0731 1.34,-0.6833 2.04,-0.80981 2.476,-0.44761 0.43,0.35642 1.431,0.291 3.406,-0.22246 3.96,-1.02979 6.215,-1.26227 6.778,-0.69892 0.587,0.58637 2.183,-0.15055 4.008,-1.84953 0.689,-0.64176 1.88,-1.33292 2.646,-1.5359 2.723,-0.7214 3.471,-4.26425 3.819,-18.10768 0.133,-5.29213 0.454,-10.798426 0.713,-12.236208 0.776,-4.314899 0.328,-14.286401 -0.688,-15.301758 -0.123,-0.123397 -1.699,0.271398 -3.503,0.877321 -3.014,1.012982 -4.246,1.112296 -15.306,1.233554 -19.634,0.215265 -44.998,0.132014 -48.354,-0.158712 -1.72,-0.149013 -4.534,-0.243129 -6.254,-0.209147 -4.086,0.08071 -11.519,-1.212832 -12.603,-2.192943 -0.693,-0.627534 -0.987,-0.657991 -1.582,-0.16412 -0.402,0.333525 -0.73,0.897731 -0.73,1.253791 0,0.356059 -0.596,0.970371 -1.324,1.365138 l -1.323,0.717757 1.444,0.02252 c 1.133,0.01767 2.162,0.74561 4.784,3.384009 3.485,3.50729 4.816,4.30405 5.705,3.415231 0.834,-0.834445 2.871,-0.589378 4.185,0.503552 1.052,0.874781 1.203,1.384236 1.203,4.056188 0,2.19592 -0.223,3.278703 -0.792,3.848097 -1.056,1.055418 -4.857,1.44075 -7.059,0.715641 -1.533,-0.504618 -2.073,-0.454041 -4.004,0.375043 -1.228,0.527076 -2.377,1.192736 -2.554,1.479236 -0.177,0.28651 -0.65,0.52092 -1.051,0.52092 -1.222,0 -0.524,-1.57386 1.221,-2.749419 1.869,-1.259319 0.848,-1.538994 -1.391,-0.381152 -0.764,0.395037 -1.728,0.588371 -2.141,0.42963 -0.612,-0.234762 -0.751,0.102525 -0.745,1.807541 0.01,3.46094 0.465,3.73957 3.589,2.20765 4.915,-2.41062 6.308,-1.30635 1.638,1.29891 -4.08,2.27591 -4.527,2.58456 -4.208,2.90382 0.164,0.16336 1.548,-0.2562 3.077,-0.93235 1.529,-0.67615 2.909,-1.09891 3.067,-0.93946 0.396,0.40032 -2.148,2.36765 -4.339,3.35597 -1.78,0.80228 -2.599,1.82905 -2.102,2.63323 0.138,0.22362 1.244,-0.0327 2.458,-0.56964 2.728,-1.2066 3.863,-0.55562 1.707,0.97928 -0.789,0.56175 -1.638,1.02136 -1.887,1.02136 -0.852,0 -2.071,1.77934 -1.765,2.57649 0.32,0.83394 1.163,1.09508 1.163,0.36028 0,-0.61244 4.306,-3.28423 5.946,-3.68952 1.269,-0.31361 1.335,-0.26469 0.853,0.63544 -0.287,0.53637 -1.476,1.53418 -2.642,2.21737 -1.166,0.68319 -2.246,1.57264 -2.401,1.97656 -0.311,0.81067 0.418,1.01804 0.89,0.25331 0.442,-0.71528 2.165,-0.58236 2.165,0.16703 0,0.35647 -0.487,0.90337 -1.082,1.21532 l -1.083,0.56719 1.112,-0.21577 c 0.679,-0.13168 1.215,0.0509 1.375,0.46854 0.144,0.37637 0.564,0.68431 0.933,0.68431 0.368,0 0.67,0.23591 0.67,0.52426 0,0.63426 -1.95,2.32399 -2.708,2.34635 -0.298,0.009 -0.812,0.34075 -1.141,0.73766 -0.728,0.87653 -2.224,0.94582 -2.598,0.12027 -0.149,-0.33076 -0.219,-0.17087 -0.155,0.35531 0.178,1.45034 1.349,1.39937 4.867,-0.21183 1.762,-0.80658 3.414,-1.46651 3.672,-1.46651 0.875,0 0.474,0.87815 -0.854,1.86904 -1.463,1.09089 -1.143,1.24348 1.199,0.57192 2.247,-0.64426 2.412,0.23018 0.26,1.37062 l -1.82,0.96454 2.405,-0.25605 2.406,-0.25605 -1.443,1.23907 -1.444,1.23907 2.646,-0.77566 c 1.456,-0.42662 2.782,-0.85719 2.947,-0.95683 0.166,-0.0996 1.303,-0.30136 2.526,-0.44826 1.797,-0.21568 2.226,-0.12476 2.226,0.47236 0,0.40671 -0.318,0.73947 -0.705,0.73947 -0.703,0 -4.12,1.03531 -6.633,2.0093 -0.727,0.28212 -1.323,0.70318 -1.323,0.93568 0,0.73533 2.567,0.43771 4.744,-0.55004 2.326,-1.05556 3.917,-1.22833 3.917,-0.42549 0,0.28938 -0.434,0.63937 -0.963,0.77776 -0.529,0.1384 -0.962,0.44169 -0.962,0.674 0,0.61906 3.119,0.05 7.057,-1.28768 4.03,-1.36885 6.385,-1.57287 5.473,-0.47428 -0.318,0.38337 -1.373,0.95077 -2.344,1.26087 -1.995,0.63674 -3.072,1.4098 -1.966,1.4098 0.393,0 1.977,-0.44378 3.52,-0.98618 1.544,-0.5424 2.943,-0.83751 3.111,-0.65579 0.167,0.18172 0.03,0.42704 -0.297,0.54517 -0.331,0.11813 -0.601,0.39205 -0.601,0.60871 0,0.21666 1.008,0.0904 2.241,-0.28065 2.834,-0.85279 4.454,-0.85792 4.778,-0.0151 0.201,0.52471 0.96,0.38564 3.714,-0.68056 4.701,-1.82062 7.069,-2.24571 7.069,-1.26934 0,0.48427 -0.917,1.0076 -2.647,1.51029 -1.455,0.42307 -2.646,0.95538 -2.646,1.1829 0,0.4561 2.403,0.35693 4.416,-0.18223 z m -28.354,-2.78411 c 0.235,-0.71484 2.287,-1.11473 2.287,-0.44576 0,0.46658 -1.111,1.04714 -2.004,1.04714 -0.265,0 -0.392,-0.27062 -0.283,-0.60138 z m -11.906,0.12027 c 0.164,-0.2646 -0.136,-0.4811 -0.665,-0.4811 -0.529,0 -1.096,0.2165 -1.26,0.4811 -0.163,0.26461 0.136,0.48111 0.665,0.48111 0.53,0 1.096,-0.2165 1.26,-0.48111 z m -7.746,-10.67757 c -0.938,-1.81281 -1.155,-1.70405 -1.155,0.57849 0,1.78314 0.07,1.88489 0.926,1.35 0.848,-0.52944 0.868,-0.69295 0.229,-1.92849 z m 13.038,-22.518532 c 0,-0.39691 -1.001,-1.200119 -2.224,-1.784909 -1.223,-0.58479 -3.28,-2.058958 -4.571,-3.275928 -3.462,-3.264991 -3.838,-3.397719 -4.473,-1.577737 -0.359,1.030684 -0.374,1.684516 -0.04,2.013671 0.268,0.26808 0.487,1.201856 0.487,2.075058 0,1.191153 0.21,1.587737 0.842,1.588031 0.463,2.16e-4 1.924,0.428219 3.248,0.951119 2.853,1.127602 6.735,1.133768 6.735,0.01069 z m -14.433,-0.962579 c 1.031,-0.391633 1.203,-0.683053 0.924,-1.561738 -0.189,-0.594144 -0.69,-1.336251 -1.115,-1.649127 -0.693,-0.511056 -0.674,-0.605458 0.19,-0.92896 1.271,-0.475371 1.668,-1.117142 1.677,-2.707736 v -1.315249 l -1.679,0.800651 c -0.923,0.440358 -1.804,1.196829 -1.958,1.681046 -0.262,0.826419 0.2,6.162589 0.534,6.162589 0.08,0 0.724,-0.216664 1.42,-0.481476 z m 2.044,-9.736149 c 1.135,-0.914216 0.6,-1.19469 -1.308,-0.685476 -2.423,0.646676 -3.196,2.004377 -0.856,1.504162 0.859,-0.183826 1.834,-0.552235 2.164,-0.818686 z m 81.114,-5.478026 c 1.281,-0.155664 2.905,-0.583424 3.609,-0.950577 0.703,-0.367153 1.537,-0.668885 1.852,-0.670515 2.026,-0.01048 0.551,-3.600058 -2.357,-5.73848 l -2.016,-1.482455 -0.505,1.564298 c -0.737,2.280336 -3.927,3.220604 -11.744,3.462162 -3.346,0.103369 -8.14,0.320309 -10.653,0.482088 -6.415,0.412818 -37.675,-0.498375 -43.904,-1.279742 -2.844,-0.356856 -5.172,-0.485019 -5.172,-0.284808 0,0.200211 -0.757,1.053546 -1.684,1.896299 -0.926,0.842754 -1.684,1.689895 -1.684,1.882537 0,0.594211 3.413,1.046158 7.698,1.019517 2.25,-0.01398 5.389,0.157897 6.977,0.381955 3.101,0.437637 55.71,0.188399 59.583,-0.282279 z m -71.647,-1.20112 c -0.195,-0.315347 0.154,-0.937296 0.808,-1.440459 1.952,-1.500419 3.327,-0.928451 1.513,0.629228 -1.393,1.19624 -1.961,1.39464 -2.321,0.811231 z m -9.828,-1.625694 c 0,-1.343696 -0.701,-1.612995 -1.151,-0.441755 -0.462,1.203875 -0.347,1.644513 0.43,1.644513 0.449,0 0.721,-0.454375 0.721,-1.202758 z m 7.673,-1.403821 c 0.974,-1.012978 1.379,-1.723348 0.982,-1.723348 -0.725,0 -4.324,3.298586 -4.324,3.963389 0,0.654561 1.568,-0.39687 3.342,-2.240041 z m -2.66,-1.67163 c -0.1,-0.103858 -0.505,0.08273 -0.905,0.414651 -0.859,0.712882 -2.402,0.276366 -1.899,-0.537306 0.215,-0.34745 0.136,-0.428987 -0.21,-0.215556 -0.794,0.490998 -0.685,1.750931 0.24,2.773487 0.763,0.84277 0.84,0.814662 1.874,-0.683772 0.593,-0.859469 0.998,-1.647646 0.9,-1.751504 z m 33.478,0.479239 c 4.101,0.0066 10.921,0.02052 15.155,0.03095 15.083,0.03713 25.424,-0.824891 26.335,-2.195339 1.152,-1.732292 0.362,-2.0753 -6.849,-2.974055 -19.447,-2.42393 -19.858,-2.450284 -29.108,-1.870524 -7.358,0.461134 -6.808,0.454057 -19.726,0.253846 -9.327,-0.144548 -10.356,-0.07553 -13.382,0.89758 -6.495,2.088532 -2.482,3.814046 13.382,5.75405 1.323,0.161806 3.379,0.248587 4.57,0.192845 1.191,-0.05574 5.521,-0.09595 9.623,-0.08935 z"
       id="path1" /></g></svg>
