<?xml version="1.0" encoding="UTF-8" standalone="no"?>
<!-- Created with Inkscape (http://www.inkscape.org/) -->

<svg
   width="231.38646"
   height="235.24007"
   viewBox="0 0 61.221 62.240601"
   version="1.1"
   id="svg1"
   xml:space="preserve"
   xmlns="http://www.w3.org/2000/svg"
   xmlns:svg="http://www.w3.org/2000/svg"><defs
     id="defs1" /><g
     id="g2047"
     transform="matrix(0.26458333,0,0,0.26458333,-5299.2671,-10.12824)"><g
       id="g2186"
       transform="translate(-1166.5935,-279.06667)"><path
         style="fill:#000000"
         d="m 21316.111,525.56737 c -0.541,-0.64698 -0.592,-3.30028 -0.06,-3.30028 0.214,0 0.169,-0.26622 -0.1,-0.59159 -0.269,-0.32537 -0.477,-1.14381 -0.463,-1.81876 0.01,-0.67494 0.04,-3.15291 0.05,-5.5066 0.03,-5.3526 0.139,-6.9743 0.474,-7.31137 0.145,-0.14611 0.1,-0.70748 -0.107,-1.2475 -0.204,-0.54002 -0.282,-1.07167 -0.173,-1.18144 0.401,-0.40286 0.791,-4.46165 0.636,-6.62633 -0.02,-0.293 -0.872,-0.92721 -1.892,-1.40934 l -1.854,-0.8766 0.362,-1.80024 c 0.199,-0.99013 0.464,-3.60797 0.589,-5.81743 0.125,-2.20946 0.321,-4.17004 0.435,-4.35685 0.115,-0.18681 0.06,-0.43079 -0.117,-0.54218 -0.38,-0.23573 -0.355,-9.17063 0.03,-9.55399 0.141,-0.14182 0.1,-0.56953 -0.1,-0.95048 -0.195,-0.38095 -0.306,-0.99695 -0.246,-1.3689 0.06,-0.37195 -0.272,-0.91574 -0.738,-1.20844 -0.466,-0.29269 -0.725,-0.33351 -0.576,-0.0907 0.149,0.24281 -0.262,0.16192 -0.913,-0.17974 -0.651,-0.34167 -1.481,-0.6224 -1.843,-0.62385 -0.363,-0.001 -0.889,-0.23309 -1.169,-0.51476 -0.28,-0.28167 -2.568,-0.76661 -5.085,-1.07765 -2.516,-0.31105 -5.035,-0.62617 -5.597,-0.70028 -0.562,-0.0741 -1.488,-0.55203 -2.057,-1.06206 -0.57,-0.51002 -1.518,-0.92732 -2.109,-0.92732 -0.795,0 -1.007,-0.1721 -0.819,-0.66414 0.148,-0.3893 0.07,-0.55335 -0.178,-0.39642 -0.236,0.14725 -1.239,-0.0222 -2.228,-0.37659 -0.989,-0.35437 -3.043,-0.7548 -4.564,-0.88985 -1.521,-0.13505 -3.245,-0.34634 -3.83,-0.46953 -0.585,-0.12319 -1.781,-0.24108 -2.659,-0.26198 -0.878,-0.0209 -1.596,-0.22391 -1.596,-0.45114 0,-0.22724 -0.239,-0.32685 -0.531,-0.22135 -0.293,0.10549 -0.915,-0.0136 -1.383,-0.26472 -0.468,-0.25108 -1.119,-0.50112 -1.447,-0.55563 -0.327,-0.0545 -0.725,-0.30916 -0.882,-0.56588 -0.288,-0.46796 -4.06,-0.36828 -4.545,0.12011 -0.202,0.20261 -0.236,2.60256 -0.1,6.92287 0,0.23537 -0.103,1.24563 -0.245,2.24502 -0.142,0.99939 -0.08,2.15981 0.146,2.57871 0.264,0.49504 0.248,1.04478 -0.04,1.57057 -0.247,0.44491 -0.505,3.23227 -0.573,6.19412 -0.07,2.96186 -0.243,8.08124 -0.39,11.3764 -0.146,3.29516 -0.224,7.72438 -0.173,9.84269 0.05,2.11832 0.08,5.63281 0.06,7.80997 -0.02,2.17716 0.102,3.95847 0.268,3.95847 0.166,0 0.294,0.52958 0.285,1.17685 -0.01,0.9694 -0.279,1.25505 -1.506,1.62052 -1.286,0.38308 -1.471,0.60224 -1.353,1.60478 0.123,1.04169 0,1.16112 -1.175,1.16112 -1.439,0 -3.003,-0.72911 -3.596,-1.67663 -0.533,-0.85016 -0.639,-3.45869 -0.141,-3.45869 0.227,0 0.188,-0.27172 -0.09,-0.60382 -0.305,-0.36967 -0.34,-0.70222 -0.09,-0.85758 0.449,-0.27883 0.421,-1.04136 -0.07,-1.82559 -0.172,-0.27795 -0.148,-0.60835 0.05,-0.73423 0.203,-0.12588 0.319,-0.95763 0.259,-1.84833 -0.06,-0.8907 0.112,-1.89714 0.383,-2.23654 0.382,-0.47753 0.373,-0.5444 -0.04,-0.2957 -0.565,0.3418 -0.621,-0.0362 -0.785,-5.2924 -0.214,-6.86031 -0.182,-14.06348 0.07,-15.7805 0.198,-1.35268 0.114,-1.97443 -0.303,-2.24015 -0.357,-0.2277 -0.391,-0.3703 -0.09,-0.37435 0.274,-0.004 0.489,-0.66467 0.489,-1.50436 0,-0.83968 -0.215,-1.50068 -0.489,-1.50435 -0.321,-0.004 -0.3,-0.12745 0.06,-0.3577 0.386,-0.24624 0.536,-1.42688 0.5,-3.95192 -0.06,-3.9591 0.01,-8.22989 0.167,-10.87582 0.06,-0.94147 -0.03,-2.43807 -0.183,-3.32577 -0.157,-0.8877 -0.151,-1.69716 0.01,-1.7988 0.164,-0.10163 0.282,-0.94571 0.264,-1.87572 -0.02,-0.93001 0.111,-1.60074 0.289,-1.4905 0.177,0.11023 0.09,-0.30755 -0.189,-0.9284 -0.403,-0.88925 -0.397,-1.31326 0.03,-1.99779 0.297,-0.47793 0.356,-0.75477 0.131,-0.6152 -0.224,0.13958 -0.5,-0.23002 -0.612,-0.82131 -0.113,-0.5913 -0.05,-1.1736 0.147,-1.294 0.194,-0.1204 0.176,-0.68671 -0.04,-1.25846 -0.222,-0.58683 -0.232,-1.14008 -0.02,-1.27038 0.314,-0.19494 0.315,-1.13521 0,-1.9392 -0.05,-0.11768 -0.05,-0.40242 0,-0.63275 0.04,-0.23034 0.147,-5.10876 0.227,-10.84094 0.08,-5.73219 0.234,-10.51217 0.343,-10.62218 0.11,-0.11002 0.07,-0.81625 -0.09,-1.56942 -0.157,-0.75316 -0.237,-1.94711 -0.177,-2.65322 0.301,-3.55164 0.305,-15.62009 0,-15.62001 -0.19,5e-5 -0.203,-0.2305 -0.03,-0.51233 0.551,-0.89595 0.569,-6.50806 0.02,-6.85764 -0.349,-0.22316 -0.307,-0.32378 0.138,-0.33292 0.567,-0.0116 0.567,-0.0592 0,-0.42795 -0.464,-0.30144 -0.486,-0.41663 -0.08,-0.42139 0.306,-0.004 0.439,-0.1984 0.295,-0.43289 -0.485,-0.78895 -0.59,-2.12129 -0.188,-2.37155 0.563,-0.34975 0.499,-1.90949 -0.08,-1.90949 -0.315,0 -0.339,-0.18199 -0.07,-0.53493 0.223,-0.29421 0.448,-1.4978 0.5,-2.67464 0.05,-1.17684 0.187,-2.46052 0.301,-2.8526 0.114,-0.39209 0.02,-0.82798 -0.204,-0.96865 -0.25,-0.15572 -0.269,-0.75565 -0.05,-1.53381 0.258,-0.90317 0.217,-1.27998 -0.138,-1.28461 -0.383,-0.005 -0.382,-0.0829 0,-0.32956 0.62,-0.39645 0.662,-7.33563 0.05,-8.09814 -0.301,-0.37449 -0.08,-0.59083 0.792,-0.78368 0.664,-0.14652 1.737,-0.46797 2.384,-0.71434 0.99,-0.37669 1.092,-0.55117 0.642,-1.0968 -0.461,-0.55857 -0.395,-0.60411 0.472,-0.32731 0.693,0.22128 0.916,0.17381 0.716,-0.15224 -0.178,-0.28921 0.06,-0.47379 0.606,-0.47379 0.493,0 1.51,-0.32799 2.259,-0.72886 0.749,-0.40088 1.584,-0.68516 1.856,-0.63175 0.29,0.0569 0.408,-0.23569 0.286,-0.70746 -0.166,-0.63582 0.09,-0.86163 1.207,-1.07663 2.513,-0.48277 5.209,-1.35821 6.735,-2.18749 0.819,-0.44507 1.921,-0.85865 2.448,-0.91906 0.527,-0.0604 1.259,-0.41177 1.626,-0.78079 0.367,-0.36902 0.941,-0.67094 1.275,-0.67094 0.334,0 0.608,-0.21504 0.608,-0.47786 0,-0.26727 0.375,-0.37915 0.851,-0.25388 0.469,0.12319 0.75,0.059 0.627,-0.14259 -0.309,-0.50195 1.209,-1.26539 2.515,-1.26539 2.083,0 5.512,-0.92872 4.891,-1.32465 -0.449,-0.2861 -0.387,-0.37617 0.264,-0.3832 0.468,-0.005 1.399,-0.29687 2.069,-0.64847 0.671,-0.3516 1.594,-0.63928 2.052,-0.63928 0.458,0 1.112,-0.28068 1.453,-0.62373 0.341,-0.34305 0.904,-0.51408 1.251,-0.38007 0.347,0.13402 0.868,0.0614 1.158,-0.16145 0.289,-0.22281 1.627,-0.64332 2.973,-0.93445 1.345,-0.29114 2.446,-0.7081 2.446,-0.92659 0,-0.21849 0.958,-0.39726 2.128,-0.39726 1.17,0 2.127,0.15547 2.127,0.34549 0,0.19001 0.568,0.30595 1.262,0.25763 0.913,-0.0636 1.332,0.13667 1.518,0.72438 0.141,0.44672 0.387,0.81222 0.548,0.81222 0.515,0 0.162,5.24533 -0.376,5.57956 -0.347,0.21612 -0.219,0.41154 0.402,0.60964 0.559,0.17856 0.793,0.48696 0.602,0.79569 -0.492,0.79603 -0.415,12.27152 0.08,12.27911 0.247,0.004 0.227,0.13962 -0.05,0.32096 -0.262,0.17292 -0.581,1.31912 -0.71,2.54712 -0.129,1.22799 -0.375,2.46133 -0.547,2.74076 -0.181,0.29356 -0.131,0.39542 0.117,0.24126 0.285,-0.17696 0.375,2.28627 0.269,7.3159 -0.09,4.17048 -0.129,8.16042 -0.09,8.86652 0.08,1.45585 0.01,4.69046 -0.18,8.77284 -0.07,1.5299 0.02,2.99397 0.212,3.25349 0.438,0.60238 0.686,14.72013 0.259,14.72013 -0.176,0 -0.132,0.49759 0.1,1.10577 0.23,0.60817 0.319,1.26602 0.199,1.46189 -0.433,0.70479 0.586,2.5609 1.263,2.29973 0.358,-0.13837 0.652,-0.027 0.652,0.2474 0,0.27444 0.178,0.38819 0.396,0.25277 0.217,-0.13541 0.503,-0.0723 0.633,0.14021 0.131,0.21252 0.891,0.50961 1.689,0.6602 0.798,0.15059 2.042,0.57045 2.765,0.93303 0.722,0.36257 1.516,0.53348 1.763,0.37979 0.247,-0.15369 0.71,-0.0621 1.028,0.20358 0.318,0.26566 1.794,0.78996 3.279,1.16512 1.485,0.37516 2.836,0.91418 3.003,1.19782 0.166,0.28364 1.076,0.4932 2.021,0.46569 0.945,-0.0275 1.718,0.10773 1.718,0.30052 0,0.19279 0.24,0.3099 0.532,0.26026 0.293,-0.0496 1.202,0.038 2.021,0.19486 0.819,0.15681 2.516,0.36874 3.77,0.47095 1.686,0.13741 2.441,0.41635 2.896,1.07022 0.343,0.49322 1.087,0.88437 1.68,0.88437 0.594,0 0.95,0.18733 0.805,0.42304 -0.145,0.23624 0.01,0.31784 0.358,0.1848 0.339,-0.13103 0.743,-0.0325 0.898,0.21887 0.154,0.25142 1.407,0.45712 2.783,0.45712 1.377,0 2.61,0.1745 2.741,0.38777 0.131,0.21327 0.624,0.28635 1.095,0.1624 0.659,-0.17329 0.796,-0.0651 0.593,0.46811 -0.222,0.58227 0.08,0.69349 1.858,0.69349 1.766,0 2.161,0.14424 2.346,0.85589 0.133,0.51208 0.581,0.85589 1.114,0.85589 0.508,0 0.89,0.27572 0.89,0.64191 0,0.35306 -0.186,0.64192 -0.415,0.64192 -0.258,0 -0.273,0.37552 -0.04,0.99859 0.22,0.5817 0.22,1.25167 0,1.60479 -0.208,0.3334 -0.276,0.93592 -0.152,1.33893 0.125,0.403 0,1.1484 -0.264,1.65643 -0.271,0.50803 -0.303,0.80633 -0.07,0.66289 0.23,-0.14344 0.519,0.12264 0.641,0.59128 0.124,0.47776 -0.03,0.99457 -0.355,1.17644 -0.317,0.1784 -0.646,1.00346 -0.73,1.83346 -0.09,0.83 -0.298,1.74274 -0.473,2.02832 -0.178,0.28874 -0.108,0.51922 0.156,0.51922 0.262,0 0.35,0.20535 0.196,0.45632 -0.154,0.25098 -0.281,1.12719 -0.281,1.94714 0,0.94366 -0.179,1.42407 -0.489,1.30895 -0.269,-0.10003 -0.437,-0.41284 -0.372,-0.69512 0.07,-0.29853 -0.09,-0.3819 -0.388,-0.19928 -0.356,0.22103 -0.233,0.53578 0.414,1.06328 0.977,0.79522 1.297,1.9602 0.389,1.41111 -0.403,-0.24311 -0.398,-0.15518 0.02,0.36107 0.45,0.55772 0.45,0.72321 0,0.90546 -0.364,0.14781 -0.402,0.34221 -0.112,0.57654 0.24,0.19445 0.392,0.93126 0.337,1.63737 -0.06,0.7061 -0.119,2.96382 -0.141,5.01713 -0.02,2.05332 -0.231,3.85178 -0.464,3.99658 -0.276,0.17168 -0.279,0.43844 0,0.76682 0.456,0.55255 0.431,4.74468 -0.03,5.20945 -0.159,0.1595 -0.117,0.74483 0.09,1.30071 0.242,0.63913 0.224,1.10895 -0.05,1.27793 -0.288,0.17892 -0.284,0.4444 0.01,0.80343 0.244,0.29491 0.311,0.66849 0.15,0.83017 -0.629,0.63296 -0.464,1.49279 0.236,1.2293 0.602,-0.22692 0.622,-0.16514 0.137,0.43517 -0.396,0.48921 -0.44,0.92483 -0.149,1.44842 0.251,0.45161 0.268,1.1411 0.04,1.73732 -0.495,1.30812 -0.342,4.96404 0.224,5.36211 0.291,0.20417 0.255,0.31671 -0.1,0.32096 -0.422,0.005 -0.49,0.79535 -0.298,3.4301 0.181,2.47649 0.112,3.42355 -0.249,3.42355 -0.366,0 -0.374,0.15122 -0.03,0.56651 0.331,0.40016 0.335,0.70012 0.02,1.02155 -0.319,0.32144 -0.316,0.53948 0.01,0.74258 0.783,0.48671 0.52,0.96527 -0.843,1.5332 -1.934,0.80558 -6.679,0.43709 -6.119,-0.47512 0.133,-0.21622 0.06,-0.39312 -0.171,-0.39312 -0.628,0 -0.288,-1.40314 0.408,-1.68139 0.667,-0.26691 0.757,-0.82015 0.26,-1.6056 -0.175,-0.27795 -0.169,-0.59868 0.01,-0.71273 0.184,-0.11406 0.327,-2.72712 0.319,-5.80681 -0.01,-4.72431 0.09,-5.60045 0.631,-5.60598 0.382,-0.004 0.47,-0.13491 0.216,-0.32096 -0.449,-0.32826 -0.597,-4.70546 -0.184,-5.44972 0.13,-0.23537 0.215,-2.21538 0.189,-4.40003 -0.04,-3.36492 0.05,-3.93449 0.59,-3.72609 0.504,0.19423 0.486,0.0774 -0.08,-0.55501 -0.792,-0.87996 -0.982,-3.73037 -0.278,-4.16793 0.252,-0.15642 0.309,-0.67534 0.134,-1.2021 -0.171,-0.50977 -0.253,-1.98602 -0.184,-3.28054 0.07,-1.29453 0.153,-3.17179 0.186,-4.17169 0.03,-0.9999 0.241,-1.81835 0.464,-1.81876 0.222,-4.2e-4 0.174,-0.23185 -0.107,-0.51429 -0.281,-0.28244 -0.51,-1.04138 -0.51,-1.68652 0,-1.36219 -0.426,-1.75631 -1.297,-1.20181 -0.34,0.21623 -0.427,0.39905 -0.192,0.40626 0.839,0.0258 -0.872,0.84292 -1.778,0.84933 -0.51,0.004 -1.215,0.29542 -1.566,0.64847 -0.351,0.35305 -0.904,0.64191 -1.23,0.64191 -0.325,0 -0.996,0.4333 -1.49,0.96288 -1.526,1.63603 -2.159,2.03273 -3.244,2.03273 -1.431,0 -2.393,0.41651 -2.393,1.03577 0,0.28394 -0.662,0.77729 -1.47,1.09633 -0.809,0.31904 -1.402,0.69199 -1.318,0.82877 0.08,0.13679 -0.398,0.28859 -1.069,0.33734 -1.651,0.11989 -3.802,1.28645 -3.802,2.06207 0,0.34701 -0.286,0.63092 -0.635,0.63092 -0.349,0 -1.162,0.55012 -1.808,1.22249 -0.682,0.70998 -1.856,1.34849 -2.8,1.52304 -0.895,0.1653 -2.144,0.6262 -2.776,1.02421 -1.124,0.70749 -1.414,1.70014 -1.49,5.11009 -0.01,0.52958 -0.186,0.96287 -0.387,0.96287 -0.201,0 -0.227,0.22663 -0.06,0.50362 0.35,0.57003 0.518,3.43457 0.719,12.22769 0.121,5.30398 0.05,6.09904 -0.526,6.10474 -0.585,0.006 -0.588,0.0567 -0.03,0.42139 0.567,0.36875 0.567,0.4163 0,0.42795 -0.405,0.008 -0.471,0.12834 -0.182,0.32751 0.515,0.35376 0.541,4.30513 0.03,5.12904 -0.181,0.29406 -0.137,0.53465 0.1,0.53465 0.235,0 0.353,0.3811 0.264,0.84689 -0.09,0.46579 0,0.95127 0.211,1.07886 0.206,0.12758 0.293,0.65204 0.195,1.16546 -0.1,0.51342 0.06,1.08415 0.345,1.26828 0.358,0.22861 0.37,0.33686 0.04,0.34134 -0.437,0.006 -0.862,6.96928 -0.587,9.63527 0.05,0.47074 0.09,1.38547 0.1,2.03273 0,0.6562 0.247,1.17685 0.546,1.17685 0.295,0 0.775,0.28886 1.066,0.64191 0.434,0.52573 0.405,0.64192 -0.16,0.64192 -0.38,0 -0.691,0.2949 -0.691,0.65534 0,0.36044 -0.286,0.76577 -0.636,0.90073 -0.349,0.13496 -0.538,0.40391 -0.419,0.59767 0.119,0.19376 -0.183,0.47984 -0.671,0.63574 -0.535,0.17076 -0.797,0.52327 -0.658,0.8867 0.127,0.33178 0.02,0.60325 -0.228,0.60325 -0.251,0 -0.347,0.28886 -0.212,0.64191 0.149,0.39102 0,0.64192 -0.38,0.64192 -0.344,0 -0.625,0.28886 -0.625,0.64191 0,0.49115 -0.525,0.6381 -2.234,0.62564 -1.228,-0.009 -2.429,-0.24967 -2.667,-0.53493 z m 3.394,-1.13099 c 0.134,-0.21911 0.08,-0.50311 -0.13,-0.63111 -0.517,-0.32115 -0.488,-3.77036 0.04,-4.4268 0.291,-0.36423 0.279,-0.53493 -0.04,-0.53493 -0.289,0 -0.463,-1.01516 -0.458,-2.67464 0,-1.47106 -0.06,-3.83009 -0.146,-5.24231 -0.08,-1.41221 0.03,-3.27237 0.249,-4.13368 0.441,-1.70992 0.09,-3.92861 -0.589,-3.70173 -0.601,0.20135 -1.045,10.22399 -0.865,19.49687 0.04,1.92351 0.163,2.2467 0.87,2.2467 0.454,0 0.936,-0.17927 1.071,-0.39837 z m 2.145,-3.88106 c -0.145,-0.23537 -0.06,-0.42795 0.187,-0.42795 0.483,0 0.368,-2.9478 -0.148,-3.78764 -0.166,-0.27048 -0.105,-0.49179 0.135,-0.49179 0.241,0 0.317,-0.31671 0.169,-0.7038 -0.16,-0.41925 0.02,-0.91784 0.451,-1.23322 0.602,-0.44221 0.619,-0.56853 0.105,-0.76688 -0.412,-0.15922 -0.615,-0.88202 -0.615,-2.19355 0,-1.28172 0.157,-1.8584 0.456,-1.67276 0.299,0.18641 0.327,0.0777 0.08,-0.31775 -0.206,-0.33057 -0.424,-1.33307 -0.486,-2.22777 -0.08,-1.19892 0.03,-1.54307 0.415,-1.30866 0.393,0.23753 0.413,0.16182 0.08,-0.29903 -0.248,-0.33939 -0.439,-2.10694 -0.425,-3.92787 0.01,-2.05136 -0.155,-3.3805 -0.447,-3.49401 -0.268,-0.10395 -0.441,0.21753 -0.4,0.74314 0.04,0.50949 -0.01,1.09579 -0.119,1.3029 -0.189,0.37151 -0.227,10.83573 -0.06,17.70405 0.05,1.94179 0.266,3.53053 0.489,3.53053 0.222,0 0.286,-0.19258 0.141,-0.42794 z m -56.002,-7.16805 c 0.151,-1.25448 0.103,-9.98783 -0.07,-12.94529 -0.09,-1.52989 -0.01,-4.41851 0.17,-6.41915 0.184,-2.00063 0.443,-7.10385 0.576,-11.34049 0.318,-10.08258 0.633,-16.17018 0.85,-16.38816 0.1,-0.0966 0,-0.63048 -0.208,-1.18637 -0.21,-0.55589 -0.245,-1.09542 -0.08,-1.19896 0.167,-0.10354 0.276,-0.97694 0.242,-1.94089 -0.09,-2.72925 -0.144,-2.88134 -0.649,-2.00595 -0.259,0.4491 -0.514,2.56742 -0.566,4.70738 -0.128,5.19523 -0.679,14.09068 -0.896,14.44587 -0.1,0.15642 0.05,0.3582 0.316,0.44839 0.364,0.12209 0.357,0.41158 -0.03,1.13283 -0.283,0.53285 -0.486,2.06424 -0.451,3.40309 0.03,1.33884 0.02,2.62683 -0.03,2.8622 -0.17,0.79988 -0.366,14.80564 -0.291,20.75525 0.03,2.00063 -0.1,4.26338 -0.28,5.02833 -0.282,1.19889 -0.214,1.39082 0.487,1.39082 0.457,0 0.854,-0.32842 0.905,-0.7489 z m -2.928,-0.26856 c 0,-0.0889 -0.335,-0.42587 -0.744,-0.7489 -0.675,-0.53231 -0.69,-0.51717 -0.161,0.16157 0.556,0.71285 0.905,0.93954 0.905,0.58733 z m 0.426,-2.57428 c 0,-0.0925 -0.287,-0.27903 -0.638,-0.41451 -0.351,-0.13548 -0.638,-0.0598 -0.638,0.16819 0,0.22798 0.287,0.41451 0.638,0.41451 0.351,0 0.638,-0.0757 0.638,-0.16819 z m -0.09,-2.07851 c 0.331,-0.40191 0.195,-0.53493 -0.55,-0.53493 -0.745,0 -0.882,0.13302 -0.55,0.53493 0.243,0.29421 0.49,0.53493 0.55,0.53493 0.06,0 0.307,-0.24072 0.55,-0.53493 z m 0.09,-1.77297 c 0,-0.0925 -0.297,-0.28288 -0.66,-0.42305 -0.379,-0.14614 -0.55,-0.0744 -0.401,0.16819 0.25,0.40663 1.061,0.60145 1.061,0.25486 z m -0.851,-4.53919 c 0,-0.23537 -0.203,-0.42795 -0.451,-0.42795 -0.247,0 -0.332,0.19258 -0.187,0.42795 0.144,0.23536 0.347,0.42794 0.45,0.42794 0.104,0 0.188,-0.19258 0.188,-0.42794 z m 56.788,-1.81876 c 0.555,-4.04572 0.681,-9.66715 0.223,-9.95197 -0.239,-0.14896 -0.312,-0.47137 -0.162,-0.71648 0.151,-0.24511 0.265,-2.49456 0.254,-4.99876 -0.03,-7.29958 -0.162,-9.046 -0.675,-9.05307 -0.35,-0.005 -0.351,-0.09 0,-0.32096 0.394,-0.26125 0.509,-1.85909 0.23,-3.20302 -0.164,-0.79276 -0.97,-0.21867 -0.901,0.64192 0.04,0.52958 0.04,1.15544 0,1.39081 -0.108,0.5818 -0.03,3.81518 0.145,6.41915 0.08,1.17685 -0.04,2.38044 -0.271,2.67465 -0.279,0.35653 -0.267,0.53493 0.03,0.53493 0.249,0 0.38,0.3811 0.291,0.84688 -0.09,0.46579 0.02,0.96053 0.244,1.09943 0.224,0.1389 0.283,0.45285 0.133,0.69766 -0.371,0.60283 -0.505,16.18553 -0.14,16.18553 0.16,0 0.429,-1.01102 0.598,-2.2467 z m 36.592,1.0633 c -0.509,-0.36372 -0.554,-1.16925 -0.09,-1.63389 0.625,-0.62916 0.305,-1.05702 -0.476,-0.63637 -0.438,0.23537 -0.947,0.29029 -1.132,0.12204 -0.186,-0.16824 -0.166,-0.017 0.04,0.33602 0.374,0.6306 0.447,0.85635 0.553,1.71177 0.03,0.23537 0.388,0.42499 0.798,0.42139 0.433,-0.004 0.561,-0.13793 0.305,-0.32096 z m -93.062,-2.66809 c 0.239,-1.05916 0.38,-4.18849 0.314,-6.95408 -0.07,-2.76558 0.03,-5.02833 0.217,-5.02833 0.186,0 0.189,-0.66437 0,-1.47638 -0.182,-0.812 -0.268,-1.53991 -0.191,-1.61756 0.08,-0.0777 0.268,-3.12035 0.425,-6.76153 0.371,-8.6457 0.388,-8.8919 0.665,-9.17052 0.13,-0.13063 0.105,-1.10959 -0.06,-2.17547 -0.161,-1.06588 -0.16,-2.0199 0,-2.12004 0.161,-0.10014 0.251,-0.81544 0.201,-1.58954 -0.05,-0.77411 0.08,-1.74448 0.295,-2.15637 0.271,-0.52439 0.223,-0.75903 -0.16,-0.78269 -0.396,-0.0245 -0.407,-0.091 -0.04,-0.24162 0.28,-0.11431 0.414,-0.4534 0.3,-0.75354 -0.306,-0.80088 0.789,-1.57456 1.547,-1.09284 0.343,0.2183 0.432,0.40739 0.198,0.42021 -0.234,0.0128 0.245,0.32289 1.064,0.68906 0.819,0.36616 2.829,0.74598 4.467,0.84403 1.639,0.0981 3.553,0.25909 4.255,0.35787 0.702,0.0988 2.521,0.19581 4.042,0.21563 1.684,0.0219 2.544,0.17762 2.198,0.39787 -0.452,0.28838 -0.422,0.41765 0.145,0.63675 0.392,0.15121 0.887,0.16664 1.1,0.0343 0.213,-0.13234 0.387,-0.0367 0.387,0.21258 0,0.24926 0.367,0.4532 0.815,0.4532 0.449,0 0.88,0.17989 0.958,0.39974 0.08,0.21986 1.194,0.50844 2.482,0.6413 7.088,0.73175 8.225,0.95071 7.877,1.51752 -0.121,0.19648 0.135,0.26395 0.568,0.14994 0.434,-0.11401 1.09,0.0965 1.46,0.46785 0.369,0.37133 1.052,0.67514 1.517,0.67514 0.465,0 0.912,0.20079 0.994,0.44619 0.08,0.2454 1.372,0.62022 2.868,0.83293 1.496,0.21271 2.834,0.56926 2.972,0.79234 0.139,0.22308 1.784,0.5494 3.656,0.72515 1.872,0.17575 3.802,0.58185 4.288,0.90245 0.487,0.3206 1.349,0.55027 1.915,0.51038 0.567,-0.0399 1.636,0.0675 2.377,0.23875 1.318,0.30453 1.344,0.28051 1.231,-1.10558 -0.06,-0.77927 -0.144,-1.82608 -0.177,-2.32624 -0.04,-0.65167 -0.43,-0.98375 -1.365,-1.17182 -0.89,-0.179 -1.207,-0.4341 -0.996,-0.80239 0.17,-0.29698 0.159,-0.40316 -0.03,-0.23597 -0.184,0.16719 -0.96,0.0413 -1.724,-0.27983 -0.764,-0.3211 -2.702,-0.69914 -4.307,-0.84008 -4.566,-0.40099 -9.938,-1.25912 -9.938,-1.58744 0,-0.16398 -0.383,-0.19742 -0.851,-0.0743 -0.476,0.12513 -0.851,0.0131 -0.851,-0.25404 0,-0.26282 -0.383,-0.47785 -0.851,-0.47785 -0.468,0 -0.851,-0.15434 -0.851,-0.34298 0,-0.18864 -2.143,-0.53973 -4.762,-0.78019 -2.923,-0.26837 -4.826,-0.6317 -4.928,-0.94085 -0.09,-0.277 -0.614,-0.50364 -1.16,-0.50364 -0.546,0 -1.057,-0.1824 -1.135,-0.40533 -0.139,-0.39742 -0.805,-0.55757 -4.563,-1.09739 -1.027,-0.14759 -2.124,-0.5263 -2.438,-0.84157 -0.313,-0.31527 -1.346,-0.70511 -2.295,-0.86632 -0.948,-0.16121 -2.264,-0.56371 -2.923,-0.89445 -0.659,-0.33074 -1.701,-0.64318 -2.315,-0.69432 -0.615,-0.0511 -1.212,-0.34021 -1.327,-0.6424 -0.143,-0.37408 -1.15,-0.54943 -3.156,-0.54943 -2.226,0 -3.006,-0.15684 -3.191,-0.64191 -0.135,-0.35306 -0.01,-0.64487 0.274,-0.64847 0.323,-0.004 0.358,-0.12471 0.09,-0.32096 -0.473,-0.34901 -0.7,-7.35548 -0.753,-23.20937 -0.06,-16.52684 0.3,-41.08192 0.596,-41.08225 0.148,-1.6e-4 0.291,-1.1076 0.319,-2.46097 0.07,-3.35909 0.31,-5.90926 0.609,-6.39595 0.137,-0.22304 0,-0.88156 -0.297,-1.46337 -0.46,-0.89142 -0.442,-1.1554 0.114,-1.67791 0.594,-0.55792 0.583,-0.63513 -0.116,-0.77036 -0.426,-0.0827 -0.955,0.0303 -1.175,0.25106 -0.516,0.51979 -0.786,7.44689 -1.021,26.21138 -0.221,17.71641 -0.226,18.87713 -0.08,21.29037 0.06,1.00042 -0.09,1.83407 -0.319,1.85254 -0.234,0.0185 -0.195,0.12752 0.09,0.2423 0.326,0.13303 0.395,0.54753 0.191,1.14306 -0.177,0.5139 -0.279,2.28238 -0.227,3.92996 0.05,1.64758 0.108,3.57333 0.126,4.27943 0.06,2.62679 -0.35,22.73231 -0.497,24.07181 -0.08,0.76495 -0.04,1.39074 0.09,1.39066 0.131,-9e-5 0.193,2.16637 0.139,4.81436 -0.06,2.64798 -0.197,9.43631 -0.316,15.08516 -0.119,5.64885 -0.203,11.3298 -0.187,12.62432 0.143,11.76565 0.241,12.51163 1.132,8.55887 z m 95.228,-0.15977 c 0.04,-0.84355 -0.09,-1.43019 -0.293,-1.30364 -0.203,0.12655 -0.37,0.61654 -0.37,1.08886 0,0.47232 -0.208,1.25032 -0.463,1.7289 -0.406,0.76406 -0.371,0.81829 0.293,0.44488 0.475,-0.26731 0.784,-0.99491 0.833,-1.959 z m -2.102,-0.77785 c 0.172,-0.28032 0.1,-0.58162 -0.164,-0.66956 -0.587,-0.19677 -0.168,-1.42946 0.71,-2.09101 0.499,-0.37611 0.535,-0.62549 0.158,-1.08295 -0.27,-0.32688 -0.499,-1.35874 -0.509,-2.29301 -0.01,-0.93428 -0.08,-2.33565 -0.158,-3.11416 -0.08,-0.7785 0.02,-1.51396 0.213,-1.63435 0.194,-0.12039 0.222,-0.43089 0.06,-0.68999 -0.192,-0.31168 -0.01,-0.37372 0.524,-0.18335 0.744,0.26289 0.753,0.23912 0.1,-0.27521 -0.608,-0.47726 -0.636,-0.72168 -0.186,-1.60583 0.385,-0.75509 0.407,-1.25316 0.08,-1.80485 -0.339,-0.57044 -0.305,-0.85421 0.134,-1.129 0.322,-0.20187 0.455,-0.58114 0.294,-0.84282 -0.161,-0.26169 -0.07,-0.47579 0.21,-0.47579 0.363,0 0.376,-0.15397 0.05,-0.55329 -0.535,-0.64849 -0.155,-6.40554 0.493,-7.45918 0.164,-0.26799 0.121,-0.59768 -0.1,-0.73264 -0.569,-0.35375 -0.256,-2.41198 0.434,-2.85147 0.472,-0.30048 0.451,-0.374 -0.106,-0.37928 -0.589,-0.006 -0.678,-0.5405 -0.607,-3.63892 0.05,-1.99781 0.19,-3.74062 0.322,-3.87292 0.131,-0.1323 0.09,-0.88535 -0.08,-1.67346 -0.177,-0.7881 -0.173,-1.67545 0,-1.97189 0.347,-0.56463 -0.347,-2.54355 -0.892,-2.54355 -0.174,0 -0.518,0.58432 -0.766,1.29849 -0.308,0.89051 -0.311,1.21196 0,1.02311 0.419,-0.2601 0.138,3.86549 -0.313,4.60291 -0.1,0.16026 0,0.40715 0.236,0.54863 0.228,0.14149 0.321,0.49999 0.208,0.79667 -0.113,0.29668 -0.266,2.01504 -0.339,3.81858 -0.08,1.87132 -0.371,3.5672 -0.687,3.95008 -0.459,0.55636 -0.452,0.63184 0.04,0.44209 0.486,-0.18781 0.554,0.38895 0.379,3.21789 -0.117,1.8957 -0.1,3.77139 0.04,4.1682 0.139,0.39682 -0.03,1.00374 -0.371,1.34871 -0.548,0.55101 -0.527,0.66549 0.173,0.9421 0.438,0.17318 0.557,0.3284 0.265,0.34495 -0.301,0.017 -0.532,0.58818 -0.532,1.3139 0,0.73828 -0.226,1.28662 -0.532,1.29039 -0.34,0.004 -0.374,0.1203 -0.1,0.32095 0.429,0.30926 0.616,4.37904 0.201,4.37959 -0.117,1.5e-4 -0.213,1.71506 -0.213,3.8109 0,2.42529 0.155,3.71783 0.426,3.55537 0.234,-0.14039 0.179,0.0502 -0.121,0.42347 -0.45,0.55856 -0.432,0.79432 0.102,1.33159 0.49,0.49203 0.519,0.70573 0.122,0.86744 -0.385,0.15637 -0.391,0.22374 -0.02,0.24836 0.279,0.0186 0.648,-0.19557 0.82,-0.47589 z m -33.663,-1.2021 c 0.144,-0.23537 -0.05,-0.42794 -0.426,-0.42794 -0.379,0 -0.57,0.19257 -0.425,0.42794 0.144,0.23537 0.336,0.42795 0.425,0.42795 0.09,0 0.281,-0.19258 0.426,-0.42795 z m 36.122,-0.35662 c 0.121,-0.19614 -0.06,-0.35661 -0.4,-0.35661 -0.341,0 -0.62,0.16047 -0.62,0.35661 0,0.19615 0.18,0.35662 0.4,0.35662 0.221,0 0.499,-0.16047 0.62,-0.35662 z m -41.824,-1.24816 c 0.02,-0.4119 0.107,-1.32663 0.185,-2.03273 0.271,-2.42481 0.265,-8.56114 -0.01,-11.12653 -0.396,-3.67505 -0.489,-6.20518 -0.229,-6.20518 0.124,0 0.225,-0.54562 0.225,-1.2125 0,-0.66688 -0.207,-1.21251 -0.461,-1.21251 -0.598,0 -0.56,-0.44981 -0.807,9.70005 -0.117,4.82506 -0.28,9.26612 -0.362,9.86902 -0.179,1.31317 0.366,2.96928 0.978,2.96928 0.242,0 0.459,-0.33701 0.482,-0.7489 z m 6.068,-0.32096 c 0.135,-0.35305 0.108,-0.64187 -0.06,-0.64182 -0.366,1.2e-4 -0.259,-5.37396 0.119,-5.98947 0.145,-0.23637 0.07,-0.42977 -0.173,-0.42977 -0.268,0 -0.306,-0.35467 -0.1,-0.9157 0.185,-0.50363 0.138,-1.66641 -0.106,-2.58396 -0.325,-1.22696 -0.308,-1.88511 0.07,-2.48801 0.328,-0.52839 0.359,-0.91336 0.09,-1.08313 -0.233,-0.14486 -0.314,-0.44265 -0.179,-0.66175 0.134,-0.21911 -0.02,-0.39838 -0.345,-0.39838 -0.437,0 -0.573,0.58405 -0.523,2.24671 0.04,1.23568 -0.111,2.60819 -0.33,3.05002 -0.249,0.50234 -0.245,0.90319 0,1.06986 0.225,0.14825 0.365,2.30816 0.315,4.86692 -0.07,3.45412 0.04,4.60039 0.443,4.60039 0.294,0 0.645,-0.28886 0.779,-0.64191 z m -0.196,-16.5828 c -0.04,-1.0215 -0.667,-3.25011 -0.806,-2.88862 -0.05,0.11769 -0.112,1.03243 -0.149,2.03277 -0.04,1.20539 0.113,1.81879 0.465,1.81876 0.293,-2e-5 0.513,-0.43333 0.49,-0.96291 z m -0.498,-3.57511 c -0.142,-0.1422 -0.509,-0.15741 -0.816,-0.0338 -0.339,0.13661 -0.238,0.23802 0.257,0.25855 0.449,0.0186 0.7,-0.0826 0.559,-0.22476 z m 3.731,-7.44443 c 0.937,-0.45477 1.953,-0.83338 2.259,-0.84137 0.307,-0.008 0.438,-0.20935 0.291,-0.44749 -0.247,-0.40285 2.114,-1.15896 2.907,-0.93066 0.193,0.0555 0.235,-0.0879 0.09,-0.31885 -0.142,-0.23092 -0.587,-0.32602 -0.989,-0.21134 -0.402,0.11469 -0.3,-0.0194 0.226,-0.29805 0.527,-0.27862 0.958,-0.76601 0.958,-1.0831 0,-0.34339 0.516,-0.59815 1.276,-0.63001 1.601,-0.0671 1.56,-0.0556 3.678,-1.01925 1.01,-0.45896 1.679,-1.02538 1.565,-1.32386 -0.21,-0.55097 0.347,-0.78153 2.959,-1.22517 0.884,-0.15013 1.495,-0.45581 1.358,-0.67928 -0.137,-0.22348 0.03,-0.40632 0.368,-0.40632 0.34,0 0.728,-0.28886 0.863,-0.64192 0.135,-0.35305 0.538,-0.64191 0.896,-0.64191 0.359,0 0.652,-0.30947 0.652,-0.6877 0,-0.42881 0.235,-0.59695 0.625,-0.44664 0.343,0.13259 0.737,0.0569 0.876,-0.16818 0.138,-0.22509 0.623,-0.40926 1.077,-0.40926 0.454,0 0.826,-0.22467 0.826,-0.49926 0,-0.2746 0.125,-0.37388 0.277,-0.22063 0.152,0.15326 0.487,0.003 0.745,-0.3331 0.257,-0.33646 0.75,-0.67047 1.095,-0.74225 0.345,-0.0718 0.973,-0.55241 1.394,-1.06808 0.421,-0.51566 1.181,-1.07005 1.688,-1.23196 0.507,-0.16192 1.841,-0.9436 2.963,-1.73707 1.122,-0.79347 2.234,-1.44268 2.471,-1.44268 0.236,0 0.438,-0.0481 0.449,-0.10699 0.384,-2.06742 0.398,-5.411 0.02,-5.64329 -0.458,-0.28433 -1.887,0.75806 -1.531,1.11624 0.1,0.0964 -0.245,0.20704 -0.758,0.24591 -0.513,0.0389 -1,0.2718 -1.081,0.51763 -0.08,0.24582 -0.414,0.44695 -0.738,0.44695 -0.349,0 -0.489,0.2617 -0.344,0.64192 0.167,0.43886 -0.03,0.64191 -0.607,0.64191 -0.469,0 -1.303,0.47811 -1.854,1.06247 -0.565,0.59908 -1.49,1.06569 -2.12,1.06986 -0.615,0.004 -1.364,0.30501 -1.664,0.66878 -0.3,0.36376 -0.812,0.55854 -1.138,0.43284 -0.325,-0.1257 -0.475,-0.0382 -0.332,0.1945 0.143,0.23267 -0.04,0.42304 -0.403,0.42304 -0.365,0 -0.616,0.23615 -0.557,0.52477 0.06,0.28862 -0.351,0.59437 -0.91,0.67943 -0.559,0.0851 -1.516,0.62298 -2.127,1.19537 -0.612,0.57239 -1.716,1.26157 -2.454,1.53152 -0.908,0.33196 -1.265,0.69439 -1.102,1.11988 0.157,0.41133 0.03,0.55809 -0.36,0.42399 -0.623,-0.21302 -3.685,1.51833 -4.429,2.50416 -0.234,0.31007 -0.894,0.63314 -1.467,0.71794 -0.572,0.0848 -1.115,0.37725 -1.205,0.6499 -0.09,0.27266 -0.707,0.49574 -1.371,0.49574 -1.604,0 -2.609,0.41741 -2.282,0.94857 0.341,0.5548 -0.638,1.17619 -1.865,1.18459 -0.527,0.004 -0.958,0.1904 -0.958,0.41511 0,0.2247 -0.718,0.52856 -1.595,0.67525 -2.316,0.38708 -2.915,0.62764 -2.421,0.97195 0.236,0.16386 0.422,0.9238 0.414,1.68875 0,0.76495 0.111,1.39081 0.265,1.39081 0.153,0 0.179,0.38515 0.06,0.85589 -0.29,1.11348 0.776,1.11348 3.067,0 z m -5.004,-4.97584 c 0.524,-0.14123 0.855,-0.41581 0.736,-0.61018 -0.12,-0.19436 0.122,-0.35117 0.536,-0.34845 1.33,0.009 2.458,-0.34098 2.386,-0.73945 -0.15,-0.82564 0.88,-1.457 2.377,-1.457 0.861,0 1.77,-0.20592 2.02,-0.4576 0.25,-0.25168 0.815,-0.51076 1.255,-0.57573 0.44,-0.065 0.8,-0.32443 0.8,-0.57659 0,-0.65475 0.386,-0.95793 1.49,-1.17185 0.532,-0.103 1.291,-0.48211 1.687,-0.84247 0.396,-0.36036 0.914,-0.6552 1.152,-0.6552 0.238,0 0.779,-0.38514 1.203,-0.85588 0.423,-0.47074 1.007,-0.85589 1.296,-0.85589 0.29,0 0.637,-0.28886 0.772,-0.64191 0.135,-0.35306 0.654,-0.64192 1.155,-0.64192 0.634,0 0.835,-0.19465 0.665,-0.64191 -0.189,-0.49378 0.09,-0.64192 1.216,-0.64192 1.023,0 1.597,-0.25528 1.914,-0.85163 0.249,-0.46839 0.591,-0.83073 0.759,-0.8052 0.974,0.14742 1.782,-0.12219 1.69,-0.56337 -0.06,-0.28605 0.593,-0.63127 1.494,-0.78929 1.795,-0.31515 2.587,-0.82772 1.342,-0.86912 -0.667,-0.0222 -0.622,-0.11196 0.248,-0.4948 0.585,-0.25721 1.222,-0.43281 1.415,-0.39021 0.193,0.0426 0.235,-0.11023 0.09,-0.33962 -0.273,-0.44413 0.871,-1.22219 2.959,-2.01361 0.702,-0.26606 1.229,-0.69935 1.17,-0.96288 -0.06,-0.26352 0.256,-0.47913 0.699,-0.47913 0.443,0 0.923,-0.30885 1.067,-0.68632 0.155,-0.4043 0.532,-0.58216 0.919,-0.43284 0.376,0.14505 0.546,0.0725 0.397,-0.16957 -0.143,-0.23268 0,-0.43525 0.297,-0.45017 1.043,-0.0508 -1.564,-0.9222 -3.244,-1.08436 -0.921,-0.0888 -1.793,-0.35534 -1.938,-0.59223 -0.298,-0.48512 -4.245,-1.32818 -4.287,-0.91568 -0.01,0.14614 -0.2,-0.16759 -0.412,-0.69717 -0.331,-0.82783 -0.7,-0.96309 -2.632,-0.96447 -1.493,-10e-4 -2.714,-0.28765 -3.637,-0.85366 -0.764,-0.46863 -1.53,-0.83025 -1.702,-0.80361 -0.874,0.13559 -1.376,-0.11773 -1.376,-0.69482 0,-0.35305 -0.24,-0.65055 -0.532,-0.66111 -1.789,-0.0646 -5.507,-0.50209 -7.254,-0.85372 -1.123,-0.226 -3.283,-0.41091 -4.8,-0.41091 -2.006,0 -2.822,-0.16784 -2.993,-0.61489 -0.135,-0.35394 -0.52,-0.50469 -0.907,-0.35522 -0.443,0.17069 -0.569,0.0898 -0.369,-0.23609 0.195,-0.31648 0.08,-0.40961 -0.312,-0.25753 -0.34,0.13104 -0.749,0.0247 -0.909,-0.23628 -0.16,-0.26099 -0.659,-0.35742 -1.107,-0.21431 -0.502,0.16045 -0.815,0.0577 -0.815,-0.26788 0,-0.29046 -0.126,-0.4014 -0.28,-0.24653 -0.154,0.15487 -0.502,0.0964 -0.773,-0.12986 -0.444,-0.37076 -1.493,-0.47627 -4.372,-0.43962 -0.526,0.007 -0.957,0.18118 -0.957,0.38772 0,0.20653 -0.67,0.50197 -1.489,0.65651 -0.866,0.16328 -1.49,0.53364 -1.49,0.88412 0,0.36227 -0.637,0.71407 -1.595,0.88092 -0.878,0.15278 -2.416,0.54666 -3.419,0.87528 -1.003,0.32862 -2.157,0.59749 -2.565,0.59749 -0.408,0 -1.064,0.337 -1.459,0.7489 -1.53,1.59538 -2.276,2.14961 -3.301,2.45259 -1.814,0.53609 -5.106,2.12609 -5.106,2.46625 0,0.17791 -0.263,0.32346 -0.586,0.32346 -0.322,0 -0.824,0.28887 -1.115,0.64192 -0.292,0.35305 -1.202,0.64191 -2.024,0.64191 -1.019,0 -1.757,0.30581 -2.324,0.96288 -0.456,0.52958 -0.91,0.91473 -1.007,0.85588 -0.1,-0.0588 -0.554,-0.10698 -1.014,-0.10698 -0.537,0 -0.757,0.21182 -0.613,0.58947 0.155,0.40644 -0.246,0.67822 -1.29,0.87528 -0.833,0.15719 -1.515,0.45472 -1.515,0.66117 0,0.20645 -0.642,0.58844 -1.426,0.84887 -0.804,0.26679 -1.632,0.92776 -1.898,1.51401 -0.377,0.83291 -0.905,1.09832 -2.644,1.33034 -1.195,0.15941 -2.408,0.5268 -2.696,0.81641 -0.288,0.28961 -0.97,0.66931 -1.517,0.84378 -0.77,0.24586 -0.861,0.40148 -0.406,0.69182 0.324,0.20603 1.126,0.37756 1.784,0.38116 0.657,0.004 1.084,0.18677 0.949,0.40703 -0.136,0.22027 0.667,0.52532 1.783,0.67789 2.829,0.38671 3.569,0.63269 3.287,1.09216 -0.134,0.21842 0.296,0.39713 0.957,0.39713 0.661,0 1.916,0.38515 2.789,0.85589 0.874,0.47074 2.029,0.85588 2.568,0.85588 0.539,0 1.21,0.23109 1.491,0.51354 0.281,0.28244 0.514,0.33058 0.517,0.10698 0,-0.2236 0.147,-0.18731 0.319,0.0806 0.172,0.26795 1.27,0.61517 2.44,0.7716 2.707,0.36191 4.143,0.70065 4.681,1.1045 0.419,0.31523 3.002,1.02138 3.829,1.04705 0.234,0.007 0.526,0.14667 0.648,0.30979 0.203,0.26939 5.395,0.7148 8.819,0.75646 0.761,0.009 1.383,0.22076 1.383,0.47002 0,0.24926 -0.239,0.30858 -0.532,0.13182 -0.361,-0.21837 -0.345,-0.0893 0.05,0.40269 0.341,0.42303 1.226,0.73838 2.128,0.7585 0.848,0.0189 2.405,0.28265 3.458,0.58603 2.079,0.59899 6.024,0.80542 7.547,0.3949 z m -17.121,-15.13749 c -0.144,-0.23537 -0.07,-0.42795 0.163,-0.42795 0.234,0 0.544,0.19258 0.688,0.42795 0.145,0.23536 0.07,0.42794 -0.162,0.42794 -0.234,0 -0.544,-0.19258 -0.689,-0.42794 z m 54.121,6.50828 c 0.32,-0.20493 0.371,-0.55098 0.136,-0.93326 -0.219,-0.35592 -0.203,-0.92729 0.04,-1.37952 0.465,-0.87379 -0.04,-1.03445 -0.81,-0.25843 -0.555,0.55832 -0.711,2.91412 -0.192,2.90347 0.176,-0.004 0.549,-0.15312 0.829,-0.33226 z m -4.072,-2.12187 c 0.529,-0.67874 0.514,-0.69387 -0.161,-0.16157 -0.708,0.55905 -0.934,0.91048 -0.584,0.91048 0.09,0 0.424,-0.33701 0.745,-0.74891 z m -86.339,-2.19142 c -0.383,-0.23814 -0.222,-0.47972 0.558,-0.83694 0.602,-0.27619 1.367,-0.50217 1.699,-0.50217 0.78,0 1.659,-1.62737 1.618,-2.9956 -0.158,-5.27178 -0.648,-13.49106 -0.82,-13.772 -0.119,-0.19257 0.01,-0.35013 0.287,-0.35013 0.346,0 0.37,-0.16735 0.08,-0.53493 -0.251,-0.31659 -0.372,-2.8897 -0.294,-6.30412 0.08,-3.60667 -0.04,-5.97272 -0.317,-6.31216 -0.246,-0.29864 -0.273,-0.54297 -0.06,-0.54297 0.213,0 0.347,-1.1073 0.297,-2.46068 -0.154,-4.158 -0.616,-9.66051 -0.842,-10.02846 -0.118,-0.19204 -0.03,-0.34916 0.198,-0.34916 0.228,0 0.349,-0.337 0.271,-0.7489 -0.08,-0.4119 -0.173,-0.7489 -0.211,-0.7489 -0.04,0 -0.123,-0.38515 -0.191,-0.85589 -0.07,-0.47073 -0.231,-1.38233 -0.361,-2.02577 -0.13,-0.64343 -0.04,-1.29337 0.205,-1.4443 0.284,-0.17693 0.236,-0.40515 -0.136,-0.64233 -0.318,-0.20234 -0.386,-0.37099 -0.152,-0.37477 0.488,-0.008 0.564,-4.24403 0.09,-5.00499 -0.174,-0.27795 -0.112,-0.6321 0.137,-0.787 0.284,-0.17635 0.306,-0.46738 0.06,-0.77847 -0.351,-0.44145 -0.284,-7.31813 0.1,-10.12556 0.08,-0.58842 0.17,-1.31057 0.2,-1.60479 0.03,-0.29421 0.298,-0.53492 0.596,-0.53492 0.298,0 0.899,-0.66896 1.337,-1.48657 0.808,-1.50815 3.426,-3.23705 4.397,-2.90391 0.293,0.1003 0.532,0.0143 0.532,-0.19112 0,-0.60899 4.84,-0.6317 5.634,-0.0264 0.75,0.57229 0.911,3.97306 0.648,13.70192 -0.07,2.56887 0.05,4.17503 0.313,4.179 0.234,0.004 0.162,0.17456 -0.161,0.38001 -0.322,0.20545 -0.455,0.58789 -0.294,0.84988 0.161,0.26198 0.362,2.93141 0.447,5.93206 0.09,3.00065 0.269,6.99633 0.41,8.87928 0.141,1.88295 0.324,4.86785 0.408,6.63312 0.159,3.34604 0.48,6.57006 0.98,9.84269 0.162,1.05916 0.284,2.45533 0.271,3.10259 -0.01,0.64727 0.106,1.17685 0.265,1.17685 0.158,0 0.275,2.30874 0.258,5.13054 -0.02,3.6998 0.115,5.18711 0.494,5.33336 0.289,0.11154 0.73,-0.18057 0.979,-0.64913 0.249,-0.46857 0.622,-0.74712 0.828,-0.619 0.206,0.12812 0.495,0.0372 0.642,-0.20198 0.147,-0.23921 0.639,-0.43493 1.093,-0.43493 0.454,0 0.826,-0.15053 0.826,-0.33452 0,-0.18398 0.86,-0.58994 1.911,-0.90213 1.052,-0.3122 1.819,-0.71884 1.705,-0.90367 -0.113,-0.18482 0.27,-0.45625 0.852,-0.60318 0.582,-0.14693 1.012,-0.49304 0.954,-0.76914 -0.06,-0.27609 0.279,-0.56907 0.748,-0.65105 2.742,-0.48038 2.555,-0.0991 2.524,-5.14757 -0.02,-2.55152 -0.135,-4.8222 -0.264,-5.04595 -0.13,-0.22376 -0.169,-0.79198 -0.09,-1.26272 0.08,-0.47074 0.03,-1.14475 -0.118,-1.4978 -0.387,-0.93438 -0.427,-2.58544 -0.1,-4.15102 0.157,-0.75317 0.172,-1.48389 0.03,-1.62382 -0.139,-0.13994 -0.273,-1.94131 -0.299,-4.00304 -0.03,-2.06174 -0.185,-3.97494 -0.355,-4.25156 -0.17,-0.27662 -0.125,-0.8489 0.1,-1.27174 0.262,-0.49243 0.261,-1.03403 0,-1.50664 -0.271,-0.48716 -0.262,-0.73785 0.03,-0.73785 0.289,0 0.3,-0.35999 0.03,-1.06986 -0.279,-0.73846 -0.26,-1.06986 0.06,-1.06986 0.312,0 0.291,-0.21414 -0.06,-0.64191 -0.353,-0.42778 -0.374,-0.64192 -0.06,-0.64192 0.297,0 0.349,-0.35046 0.142,-0.96287 -0.389,-1.15253 -0.33,-4.27397 0.09,-4.96446 0.166,-0.2705 0.143,-0.49182 -0.05,-0.49182 -0.195,0 -0.365,-1.34802 -0.376,-2.9956 -0.01,-1.86094 0.152,-2.99808 0.436,-3.00216 0.298,-0.004 0.309,-0.11655 0.03,-0.32095 -0.517,-0.38247 -0.633,-2.24015 -0.14,-2.24015 0.462,0 0.261,-0.97903 -0.285,-1.39082 -0.267,-0.20129 -0.188,-0.47806 0.213,-0.74235 0.351,-0.23176 0.428,-0.42433 0.171,-0.42794 -0.298,-0.004 -0.452,-1.09085 -0.426,-3.00201 0.02,-1.64751 0.197,-2.99553 0.386,-2.99561 0.19,-7e-5 0.195,-0.24086 0.01,-0.53507 -0.613,-0.98772 -0.501,-1.61133 0.377,-2.08355 0.7,-0.37676 0.755,-0.54303 0.282,-0.84451 -0.425,-0.27043 -0.441,-0.37722 -0.06,-0.38194 0.293,-0.004 0.532,-0.29955 0.532,-0.65765 0,-0.3581 0.473,-0.86769 1.051,-1.13243 0.577,-0.26474 0.949,-0.64576 0.825,-0.84671 -0.123,-0.20095 0.25,-0.36537 0.83,-0.36537 1.533,0 2.377,-0.41847 2.133,-1.0577 -0.15,-0.39223 0.332,-0.61124 1.616,-0.73435 1.518,-0.14565 1.991,7.1e-4 2.785,0.86215 0.526,0.57067 0.852,1.20592 0.726,1.41168 -0.126,0.20576 -0.08,0.61028 0.09,0.89893 0.177,0.28866 0.337,1.49225 0.356,2.67465 0.02,1.1824 0.141,2.34239 0.272,2.57776 0.13,0.23537 0.185,1.00567 0.121,1.71177 -0.06,0.70611 -0.188,2.06144 -0.276,3.01185 -0.09,0.95041 -0.302,1.96142 -0.477,2.2467 -0.175,0.28528 -0.127,0.51869 0.107,0.51869 0.235,0 0.332,0.43329 0.217,0.96287 -0.428,1.96404 -0.453,4.40266 -0.05,4.92135 0.228,0.29421 0.247,0.53493 0.04,0.53493 -0.204,0 -0.371,1.05916 -0.371,2.35368 0,1.29453 0.117,2.35369 0.261,2.35369 0.143,0 0.19,0.52958 0.103,1.17685 -0.219,1.63674 -0.224,3.16389 -0.01,4.17244 0.1,0.47074 0,1.07412 -0.204,1.34084 -0.245,0.31227 -0.133,0.58074 0.316,0.75397 0.479,0.18513 0.569,0.43423 0.289,0.79887 -0.232,0.30073 -0.334,2.75062 -0.236,5.66519 0.297,8.86965 0.17,13.02134 -0.425,13.80117 -0.224,0.29421 -0.265,0.53493 -0.09,0.53493 0.174,0 0.07,0.29327 -0.221,0.65171 -0.453,0.54929 -0.42,0.60635 0.21,0.36305 0.615,-0.2372 0.682,-0.1436 0.378,0.52514 -0.617,1.35485 -0.421,2.86397 0.387,2.98323 0.404,0.0597 0.735,-0.061 0.735,-0.26814 0,-0.20715 0.287,-0.26579 0.638,-0.13032 0.378,0.14588 0.639,0.005 0.639,-0.34626 0,-0.32593 0.404,-0.94101 0.899,-1.36684 0.648,-0.55845 0.77,-0.90417 0.435,-1.24037 -0.276,-0.278 -0.31,-0.65159 -0.08,-0.92565 0.208,-0.25274 0.229,-1.28211 0.05,-2.2875 -0.184,-1.00539 -0.179,-1.92416 0.01,-2.04173 0.19,-0.11756 0.268,-0.61252 0.175,-1.0999 -0.129,-0.67011 0,-0.82202 0.511,-0.62312 0.585,0.22574 0.601,0.1645 0.109,-0.43186 -0.703,-0.85128 -0.768,-1.22113 -0.981,-5.57287 -0.09,-1.90659 -0.391,-3.88048 -0.66,-4.38642 -0.285,-0.53658 -0.318,-0.91988 -0.08,-0.91988 0.254,0 0.271,-0.48967 0.04,-1.28383 -0.233,-0.81713 -0.211,-1.28383 0.06,-1.28383 0.235,0 0.371,-0.43329 0.303,-0.96287 -0.07,-0.52958 0.03,-1.21282 0.22,-1.5183 0.189,-0.30548 0.237,-0.83506 0.106,-1.17684 -0.13,-0.34179 -0.01,-0.62142 0.257,-0.62142 0.271,0 0.122,-0.30459 -0.333,-0.67686 -0.712,-0.5841 -0.723,-0.64431 -0.08,-0.43943 0.702,0.22219 0.707,0.15388 0.08,-1.06567 -0.523,-1.01634 -0.559,-1.43756 -0.166,-1.91425 0.395,-0.47904 0.378,-0.61259 -0.08,-0.61772 -0.475,-0.005 -0.47,-0.0786 0.03,-0.39533 0.476,-0.30259 0.5,-0.52332 0.11,-0.9957 -0.275,-0.3338 -0.358,-0.74977 -0.185,-0.92437 0.477,-0.48054 0.378,-8.54451 -0.11,-8.90501 -0.256,-0.18937 -0.193,-0.31701 0.158,-0.32096 0.455,-0.005 0.474,-0.14053 0.09,-0.61036 -0.311,-0.37728 -0.343,-0.70048 -0.08,-0.86145 0.228,-0.1417 0.342,-0.83286 0.254,-1.5359 -0.09,-0.70305 0.03,-1.27827 0.269,-1.27827 0.237,0 0.283,-0.24072 0.101,-0.53493 -0.474,-0.76874 -0.483,-3.4358 -0.01,-4.06546 0.259,-0.34811 0.231,-0.53493 -0.08,-0.53493 -0.262,0 -0.477,-0.28886 -0.477,-0.64192 0,-0.35305 0.215,-0.64191 0.477,-0.64191 0.348,0 0.351,-0.15365 0.01,-0.56664 -0.454,-0.5511 -0.378,-1.99649 0.152,-2.85851 0.144,-0.23449 0.05,-0.42634 -0.219,-0.42634 -0.274,0 -0.187,-0.29622 0.202,-0.68725 0.421,-0.42336 0.541,-0.87525 0.312,-1.17685 -0.204,-0.26927 -0.341,-1.58633 -0.305,-2.9268 0.04,-1.34046 -0.09,-2.34012 -0.282,-2.22144 -0.191,0.11867 -0.347,0.0232 -0.347,-0.21218 0,-0.23537 0.2,-0.55274 0.446,-0.70527 0.274,-0.17014 0.297,-0.46936 0.06,-0.77416 -0.213,-0.27326 -0.413,-1.33251 -0.445,-2.3539 -0.03,-1.02139 -0.145,-1.99816 -0.251,-2.1706 -0.106,-0.17245 -1.016,-0.25324 -2.022,-0.17954 -2.634,0.19286 -3.351,0.35976 -3.673,0.85488 -0.157,0.2414 -0.849,0.57809 -1.539,0.74818 -0.89,0.21949 -1.09,0.41129 -0.689,0.66072 0.374,0.23262 -0.03,0.43973 -1.192,0.61252 -0.967,0.14358 -2.521,0.3738 -3.454,0.51161 -1.018,0.15038 -2.208,0.73233 -2.978,1.45553 -0.706,0.66273 -1.283,1.08918 -1.283,0.94768 0,-0.14151 -0.229,-0.0262 -0.51,0.25625 -0.281,0.28244 -0.862,0.51353 -1.29,0.51353 -0.429,0 -0.89,0.28886 -1.024,0.64191 -0.135,0.35306 -0.655,0.64487 -1.157,0.64847 -0.652,0.005 -0.752,0.10817 -0.352,0.36385 0.359,0.2284 -0.486,0.52777 -2.34,0.82984 -5.074,0.82675 -5.869,1.0191 -6.304,1.52563 -0.755,0.87954 -2.949,2.18944 -4.042,2.41365 -0.585,0.12 -1.064,0.50514 -1.064,0.85589 0,0.71756 -2.624,1.84626 -3.306,1.42218 -0.247,-0.15358 -0.315,-0.069 -0.155,0.1918 0.183,0.29814 -0.417,0.5727 -1.662,0.76048 -1.334,0.20121 -1.882,0.46736 -1.738,0.8441 0.123,0.32337 -0.217,0.65801 -0.826,0.81161 -0.569,0.14375 -1.035,0.45027 -1.035,0.68115 0,0.23089 -0.814,0.44213 -1.809,0.46943 -0.994,0.0273 -1.473,0.1376 -1.065,0.2451 0.618,0.16253 0.705,0.53254 0.512,2.19706 -0.444,3.83932 -0.462,5.25659 -0.07,5.5005 0.222,0.13788 0.166,0.38804 -0.127,0.57033 -0.492,0.30554 -0.697,3.7236 -0.983,16.36389 -0.04,1.82346 -0.257,3.31591 -0.479,3.31656 -0.222,6.5e-4 -0.183,0.22325 0.09,0.49468 0.33,0.33165 0.358,0.74418 0.08,1.25786 -0.223,0.42039 -0.255,0.85849 -0.07,0.97354 0.185,0.11506 0.261,3.0635 0.168,6.55211 -0.362,13.65653 -0.174,27.95405 0.369,27.95405 0.149,0 0.14,0.86659 -0.02,1.92575 -0.16,1.05916 -0.177,1.92572 -0.04,1.92569 0.138,-3e-5 0.239,1.59854 0.223,3.55237 -0.03,3.2866 0.04,3.55738 0.846,3.61863 0.581,0.044 0.693,-0.0461 0.335,-0.26858 z m 7.996,-6.70713 c 0,-0.29172 0.478,-0.65123 1.063,-0.79892 0.585,-0.14768 1.064,-0.55371 1.064,-0.90227 0,-0.41722 0.431,-0.63377 1.261,-0.63377 1.22,0 2.456,-1.25365 1.844,-1.86947 -0.148,-0.14863 0.06,-0.27024 0.466,-0.27024 0.469,0 0.618,-0.18841 0.414,-0.52152 -0.177,-0.28683 -0.373,-2.16443 -0.437,-4.17245 -0.166,-5.23751 -0.439,-8.44121 -0.763,-8.96925 -0.155,-0.2524 -0.03,-0.46186 0.275,-0.46546 0.353,-0.004 0.396,-0.12165 0.117,-0.32096 -0.497,-0.35519 -0.557,-1.16634 -0.119,-1.60657 0.16,-0.1615 0.124,-0.73547 -0.08,-1.27549 -0.204,-0.54002 -0.255,-1.09795 -0.114,-1.23983 0.141,-0.14189 -0.01,-0.26092 -0.347,-0.26453 -0.503,-0.005 -0.499,-0.0721 0.02,-0.40492 0.537,-0.34145 0.522,-0.43864 -0.104,-0.6802 -0.412,-0.1591 -0.598,-0.49527 -0.427,-0.77193 0.469,-0.75866 0.482,-5.82648 0.02,-6.11644 -0.246,-0.15256 -0.182,-0.40291 0.156,-0.61306 0.455,-0.28256 0.472,-0.62166 0.08,-1.65828 -0.285,-0.7596 -0.321,-1.30308 -0.09,-1.30308 0.401,0 0.345,-1.53612 -0.09,-2.35369 -0.124,-0.23537 -0.193,-2.44998 -0.154,-4.92135 0.04,-2.47137 -0.04,-4.68598 -0.176,-4.92135 -0.416,-0.72383 -0.299,-3.2092 0.152,-3.21613 0.234,-0.004 0.194,-0.15447 -0.09,-0.33527 -0.313,-0.20022 -0.468,-1.114 -0.397,-2.33746 0.07,-1.13163 -0.08,-2.09216 -0.336,-2.1998 -0.28,-0.1177 -0.21,-0.36538 0.183,-0.64504 0.455,-0.32347 0.481,-0.45585 0.09,-0.46052 -0.402,-0.005 -0.434,-0.21846 -0.122,-0.80618 0.234,-0.43979 0.334,-0.89232 0.221,-1.00562 -0.357,-0.35876 -0.535,-4.6139 -0.194,-4.6139 0.467,0 0.258,-3.33899 -0.24,-3.83948 -0.27,-0.27132 -0.849,-0.19125 -1.653,0.22873 -0.681,0.35541 -1.501,0.54513 -1.821,0.4216 -0.32,-0.12353 -0.493,-0.0802 -0.385,0.0962 0.308,0.50107 -0.696,1.65335 -1.728,1.98272 -0.514,0.16398 -1.032,0.62529 -1.151,1.02515 -0.417,1.39618 -0.753,5.02483 -0.682,7.36013 0.201,6.57515 0.376,8.86707 0.749,9.8427 0.225,0.58842 0.331,1.55129 0.236,2.13971 -0.233,1.43657 -0.263,10.11984 -0.04,10.56199 0.1,0.19281 0.166,1.93921 0.15,3.88088 -0.02,1.94168 0.07,3.53057 0.183,3.53087 0.325,8.4e-4 0.254,5.28653 -0.08,5.79754 -0.16,0.24661 -0.126,0.71767 0.08,1.0468 0.208,0.3391 0.202,0.90857 -0.01,1.31412 -0.209,0.39363 -0.268,0.82842 -0.131,0.96621 0.137,0.13778 0.352,3.48501 0.478,7.43829 0.125,3.95327 0.246,7.7031 0.267,8.33295 0.03,0.96314 0.225,1.13986 1.209,1.11172 0.644,-0.0184 1.171,-0.27214 1.171,-0.56386 z m 6.204,-1.05113 c 0.332,0 0.603,-0.30946 0.603,-0.6877 0,-0.45127 -0.231,-0.59839 -0.673,-0.42794 -0.37,0.14287 -0.86,0.25976 -1.089,0.25976 -0.228,0 -0.307,0.17612 -0.175,0.39139 0.132,0.21527 0.1,0.47257 -0.08,0.57178 -0.177,0.0992 -0.07,0.11566 0.245,0.0365 0.311,-0.0791 0.838,-0.14384 1.17,-0.14384 z m 2.333,-5.02833 c 0.15,-3.97065 -0.373,-11.75192 -0.812,-12.08873 -0.355,-0.27259 -0.342,-1.36184 0.02,-1.94684 0.154,-0.24661 0.118,-0.71058 -0.08,-1.03105 -0.197,-0.32048 -0.26,-0.84086 -0.14,-1.15642 0.121,-0.31555 0.06,-0.57373 -0.145,-0.57372 -0.201,10e-6 -0.357,-1.74676 -0.348,-3.8817 0.02,-3.48529 -0.278,-4.77082 -0.939,-4.10651 -0.313,0.31524 -0.272,4.94115 0.08,9.05806 0.161,1.88295 0.318,4.1457 0.347,5.02833 0.03,0.88263 0.157,1.60479 0.282,1.60479 0.126,0 0.255,1.29987 0.289,2.88861 0.139,6.70366 0.168,6.95408 0.798,6.95408 0.338,0 0.627,-0.337 0.642,-0.7489 z m 20.821,-6.52613 c 0,-0.23537 -0.191,-0.42795 -0.425,-0.42795 -0.235,0 -0.426,0.19258 -0.426,0.42795 0,0.23536 0.191,0.42794 0.426,0.42794 0.234,0 0.425,-0.19258 0.425,-0.42794 z m -1.1,-1.54677 c 0.871,-0.85073 1.78,-2.05432 2.021,-2.67465 0.557,-1.43631 0.786,-7.27927 0.297,-7.58334 -0.203,-0.12628 -0.225,-0.55492 -0.05,-0.95253 0.176,-0.39761 0.32,-2.4561 0.32,-4.57442 0,-2.11832 0.192,-3.99297 0.426,-4.16589 0.27,-0.19955 0.245,-0.3168 -0.07,-0.32096 -0.282,-0.004 -0.397,-0.37247 -0.269,-0.86244 0.134,-0.51581 0.01,-0.85588 -0.305,-0.85588 -0.366,0 -0.396,-0.16402 -0.101,-0.53493 0.235,-0.29421 0.391,-1.59409 0.348,-2.88862 -0.04,-1.29453 0.09,-2.5821 0.293,-2.86126 0.217,-0.2956 0.195,-0.84139 -0.05,-1.30689 -0.234,-0.43962 -0.285,-1.02772 -0.113,-1.30688 0.258,-0.42027 0.315,-5.00958 0.06,-5.00958 -0.04,0 -0.127,-0.43329 -0.185,-0.96287 -0.06,-0.52958 0.04,-0.96287 0.209,-0.96287 0.174,0 0.226,-0.91473 0.117,-2.03273 -0.369,-3.76918 -0.446,-11.01283 -0.126,-11.89795 0.175,-0.48312 0.136,-1.20528 -0.09,-1.60479 -0.279,-0.50127 -0.249,-0.72638 0.1,-0.72638 0.337,0 0.364,-0.17288 0.08,-0.53493 -0.229,-0.29421 -0.389,-1.43465 -0.355,-2.5343 0.06,-1.76872 -0.02,-1.95386 -0.671,-1.60479 -0.403,0.21702 -1.047,0.39459 -1.43,0.39459 -0.383,0 -0.983,0.28886 -1.334,0.64192 -0.352,0.35305 -0.501,0.64191 -0.333,0.64191 0.167,0 -0.17,0.4425 -0.75,0.98332 -0.58,0.54083 -1.084,1.26299 -1.119,1.60479 -0.317,3.08979 -0.297,3.83181 0.105,3.83759 0.319,0.005 0.32,0.10072 0,0.32096 -0.278,0.19393 -0.441,2.32315 -0.426,5.5565 0.01,2.88315 -0.09,5.24219 -0.235,5.2423 -0.144,1.2e-4 -0.183,0.52979 -0.09,1.17706 0.1,0.64726 0.25,6.28006 0.344,12.51734 0.09,6.23727 0.286,12.59223 0.429,14.12213 0.143,1.52989 0.325,4.99623 0.404,7.70297 0.08,2.70674 0.164,5.06578 0.189,5.24231 0.09,0.65367 0.807,0.28047 2.349,-1.22581 z m 3.653,0.59518 c 0,-0.2331 -0.303,-0.30692 -0.673,-0.16406 -0.37,0.14287 -0.86,0.25976 -1.089,0.25976 -0.229,0 -0.309,0.17449 -0.177,0.38777 0.302,0.49157 1.939,0.0834 1.939,-0.48347 z m 1.24,-13.38451 c -0.02,-1.58595 -0.118,-1.91821 -0.389,-1.28383 -0.531,1.24347 -0.531,4.89229 0,4.06546 0.227,-0.35306 0.402,-1.60479 0.389,-2.78163 z m -0.389,-8.3449 c 0,-0.23537 -0.08,-0.42794 -0.188,-0.42794 -0.103,0 -0.306,0.19257 -0.45,0.42794 -0.145,0.23537 -0.06,0.42795 0.187,0.42795 0.248,0 0.451,-0.19258 0.451,-0.42795 z m 0.326,-2.53199 c -0.281,-0.37267 -0.555,-0.74749 -0.608,-0.83294 -0.05,-0.0854 -0.07,0.21946 -0.04,0.67758 0.03,0.45811 0.309,0.83293 0.609,0.83293 0.43,0 0.437,-0.14436 0.03,-0.67757 z m -26.558,-5.8266 c -0.332,-0.87124 -0.533,-0.78477 -0.459,0.19802 0.03,0.45444 0.205,0.73713 0.381,0.62821 0.175,-0.10891 0.21,-0.48072 0.08,-0.82623 z m -0.405,-4.83632 c 0.121,-0.19614 -0.06,-0.35662 -0.4,-0.35662 -0.341,0 -0.62,0.16048 -0.62,0.35662 0,0.19614 0.181,0.35662 0.401,0.35662 0.22,0 0.499,-0.16048 0.619,-0.35662 z m -0.311,-2.42502 c 0,-0.35305 -0.159,-0.64191 -0.354,-0.64191 -0.425,0 -0.468,0.59963 -0.07,0.99853 0.394,0.39667 0.425,0.37061 0.425,-0.35662 z m 0,-1.72366 c 0,-0.73979 -0.779,-0.63028 -1.037,0.14562 -0.09,0.2795 0.103,0.50819 0.435,0.50819 0.331,0 0.602,-0.29421 0.602,-0.65381 z m -0.04,-2.02084 c -0.1,-0.52958 -0.193,-1.02238 -0.211,-1.09511 -0.02,-0.0727 -0.232,-0.007 -0.477,0.14508 -0.309,0.19214 -0.311,0.44203 0,0.81353 0.243,0.29492 0.316,0.66292 0.162,0.81779 -0.153,0.15487 -0.06,0.28158 0.214,0.28158 0.281,0 0.417,-0.4144 0.316,-0.96287 z m 0.05,-1.88637 c -0.154,-0.15487 -0.106,-0.49242 0.107,-0.75011 0.238,-0.28919 0.175,-0.75964 -0.166,-1.22902 -0.504,-0.69248 -0.57,-0.64431 -0.743,0.53858 -0.198,1.35475 -0.06,1.72213 0.657,1.72213 0.234,0 0.299,-0.12671 0.145,-0.28158 z m 0.211,-5.70962 c 0.09,-0.94148 0.01,-1.71177 -0.168,-1.71177 -0.444,0 -0.224,-0.99127 0.308,-1.38427 0.242,-0.17913 0.117,-0.31722 -0.293,-0.32095 -0.409,-0.004 -0.71,0.31568 -0.701,0.74234 0.01,0.4119 -0.08,1.42291 -0.197,2.24671 -0.222,1.55327 -0.08,2.13971 0.533,2.13971 0.196,0 0.429,-0.7703 0.518,-1.71177 z m 26.811,-1.37655 c -0.305,-0.30708 -0.504,-0.33234 -0.504,-0.0642 0,0.57121 0.504,1.0773 0.788,0.79169 0.12,-0.12161 0,-0.44898 -0.284,-0.7275 z m 0.347,-1.11979 c 0,-0.55721 -0.505,-0.92779 -0.917,-0.67203 -0.44,0.27353 -0.06,1.02865 0.517,1.02865 0.22,0 0.4,-0.16048 0.4,-0.35662 z m -40.579,-7.34636 c 0.756,0 1.684,-0.31178 2.063,-0.69286 0.781,-0.78616 0.53,-1.37444 -0.299,-0.69987 -0.298,0.24256 -1.547,0.5769 -2.775,0.74299 -1.229,0.16609 -2.33,0.45856 -2.447,0.64993 -0.118,0.19136 0.199,0.23927 0.704,0.10646 0.703,-0.18503 0.838,-0.10068 0.576,0.36087 -0.276,0.48736 -0.232,0.50023 0.232,0.0674 0.315,-0.29421 1.191,-0.53493 1.946,-0.53493 z m 5.367,-2.52804 c -0.06,-0.26819 0.483,-0.60678 1.207,-0.75241 0.724,-0.14563 1.416,-0.52627 1.538,-0.84586 0.122,-0.31958 0.657,-0.58106 1.19,-0.58106 0.611,0 1.051,-0.31621 1.191,-0.85589 0.14,-0.53785 0.593,-0.86505 1.22,-0.88055 1.809,-0.0447 6.501,-1.46379 8.068,-2.43986 0.846,-0.52746 1.961,-0.95902 2.477,-0.95902 0.968,0 2.293,-1.00044 1.878,-1.41786 -0.129,-0.12976 0.167,-0.13023 0.658,-10e-4 0.53,0.13931 0.893,0.032 0.893,-0.26362 0,-0.27418 0.623,-0.77054 1.383,-1.10302 1.349,-0.58967 1.356,-0.60492 0.262,-0.62126 -1.524,-0.0228 -5.502,1.30312 -5.231,1.74347 0.119,0.19492 -0.269,0.47722 -0.864,0.62732 -0.594,0.1501 -1.081,0.4446 -1.081,0.65446 0,0.20985 -0.545,0.38155 -1.21,0.38155 -0.666,0 -1.54,0.36527 -1.941,0.81172 -0.653,0.72506 -3.224,1.6465 -5.571,1.99614 -2.105,0.31355 -3.426,0.80799 -4.029,1.50803 -0.358,0.41631 -1.418,1.15767 -2.354,1.64746 -0.936,0.48979 -1.677,1.03344 -1.646,1.20809 0.03,0.17466 -0.105,0.74251 -0.302,1.26189 l -0.357,0.94432 1.366,-0.78769 c 0.75,-0.43323 1.315,-1.00711 1.255,-1.27531 z m 30.958,-13.0461 c 0,-0.0925 -0.298,-0.28287 -0.661,-0.42304 -0.378,-0.14614 -0.549,-0.0744 -0.4,0.16818 0.25,0.40664 1.061,0.60146 1.061,0.25486 z m 2.127,-0.87642 c 0,-0.10379 -0.192,-0.30773 -0.426,-0.4532 -0.234,-0.14546 -0.425,-0.0605 -0.425,0.18872 0,0.24926 0.191,0.4532 0.425,0.4532 0.234,0 0.426,-0.0849 0.426,-0.18872 z m -5.957,158.19061 c 0,-0.25127 -0.766,-0.79671 -1.702,-1.21208 -0.936,-0.41538 -1.702,-1.00704 -1.702,-1.31479 0,-0.30776 -0.145,-0.55956 -0.323,-0.55956 -1.003,0 -1.959,-3.72796 -1.974,-7.70298 -0.01,-3.74416 0.76,-5.56326 2.367,-5.56326 1.206,0 2.635,-1.50829 2.376,-2.50637 -0.176,-0.67793 0.05,-0.8918 1.18,-1.10457 0.769,-0.14512 2.185,-0.1373 3.147,0.0174 1.505,0.24216 1.65,0.35362 1.04,0.80222 -0.561,0.41246 -0.593,0.59292 -0.153,0.86639 0.368,0.22831 0.453,0.17791 0.252,-0.14865 -0.581,-0.94537 0.644,-0.48648 1.787,0.66959 0.633,0.64001 1.534,1.21815 2.002,1.28476 1.464,0.20839 2.652,1.02614 3.194,2.19908 0.287,0.62136 0.717,1.50636 0.956,1.96668 0.682,1.31375 0.788,6.15244 0.144,6.53941 -0.299,0.17965 -0.883,0.85621 -1.297,1.50347 -0.415,0.64727 -0.997,1.17685 -1.294,1.17685 -0.297,0 -0.64,0.38515 -0.762,0.85588 -0.158,0.60519 -0.581,0.85589 -1.445,0.85589 -0.672,0 -1.652,0.30329 -2.178,0.67399 -1.16,0.81741 -5.615,1.37329 -5.615,0.70067 z m -1.401,-7.32472 c -0.06,-0.80184 -0.277,-1.14203 -0.644,-1.0007 -0.306,0.11776 -0.45,0.49388 -0.319,0.83581 0.13,0.34193 0.237,0.90617 0.237,1.25386 0,0.34769 0.183,0.51825 0.407,0.37901 0.224,-0.13924 0.368,-0.79983 0.319,-1.46798 z m 8.304,0.73904 c -0.08,-0.46714 0.22,-0.76588 0.851,-0.85589 0.533,-0.0761 0.969,-0.3446 0.969,-0.59678 0,-0.25218 0.327,-0.78733 0.726,-1.18922 0.783,-0.78735 0.628,-1.74437 -0.475,-2.93211 -0.372,-0.4006 -0.928,-1.0307 -1.234,-1.40022 -0.572,-0.68933 -1.567,-0.48409 -1.127,0.2324 0.135,0.21911 0.08,0.39837 -0.113,0.39837 -0.196,0 -0.4,0.52108 -0.453,1.15795 -0.05,0.63687 -0.27,1.33434 -0.485,1.54995 -0.214,0.2156 -0.293,0.6457 -0.174,0.95578 0.118,0.31007 -0.165,0.80237 -0.629,1.09398 -1.361,0.85488 -0.32,2.63543 1.411,2.41284 0.529,-0.068 0.806,-0.3809 0.733,-0.82705 z m -8.392,-4.20959 c 0,-0.34983 0.191,-0.77754 0.425,-0.95046 0.241,-0.17754 0.102,-0.31726 -0.319,-0.32096 -0.452,-0.004 -0.744,0.31531 -0.744,0.81367 0,0.45113 -0.24,0.92917 -0.532,1.06232 -0.293,0.13314 -0.149,0.1947 0.319,0.13678 0.468,-0.0579 0.851,-0.39152 0.851,-0.74135 z m 3.022,-6.80443 c 0.5,0.41692 0.564,0.38153 0.346,-0.19024 -0.303,-0.79547 -0.849,-0.9126 -1.245,-0.26753 -0.147,0.23921 -0.443,0.3255 -0.658,0.19175 -0.216,-0.13375 -0.27,0.0768 -0.12,0.4678 0.252,0.66229 0.298,0.66219 0.667,-0.002 0.315,-0.56608 0.523,-0.60724 1.01,-0.20028 z"
         id="path1" /></g></g></svg>
