<?xml version="1.0" encoding="UTF-8" standalone="no"?>
<!-- Created with Inkscape (http://www.inkscape.org/) -->

<svg
   width="231.38646"
   height="235.24007"
   viewBox="0 0 61.221 62.240601"
   version="1.1"
   id="svg1"
   xml:space="preserve"
   xmlns="http://www.w3.org/2000/svg"
   xmlns:svg="http://www.w3.org/2000/svg"><defs
     id="defs1" /><g
     id="g1713"
     transform="matrix(0.30754517,0,0,0.30754517,-4916.0595,-167.74447)"><path
       style="fill:#000000"
       d="m 16027.339,698.49423 c -0.214,-0.38313 -0.591,-0.65791 -0.837,-0.61062 -0.525,0.10105 -0.579,-3.03215 -0.963,-56.36228 -0.16,-22.06287 -0.416,-41.31198 -0.57,-42.77581 -0.326,-3.09133 0.443,-4.29541 2.158,-3.37696 0.666,0.35683 19.224,0.51375 60.761,0.51375 h 59.802 l -0.252,12.13037 c -0.138,6.6717 -0.353,16.67025 -0.477,22.21899 -0.19,8.48304 -0.811,64.53462 -0.744,67.1374 0.01,0.4624 -0.303,0.84072 -0.699,0.84072 -0.396,0 -0.72,-0.24249 -0.72,-0.53888 0,-0.52176 -23.765,-0.41577 -67.685,0.30186 -8.052,0.13158 -22.3,0.36166 -31.661,0.5113 -9.361,0.14964 -17.179,0.36987 -17.372,0.48941 -0.193,0.11954 -0.527,-0.0961 -0.741,-0.47925 z m 49.774,-1.99199 c 12.805,-0.15532 27.818,-0.36207 33.363,-0.45943 5.544,-0.0974 14.995,-0.20326 21.001,-0.23532 6.007,-0.0321 10.921,-0.2288 10.921,-0.43721 0,-0.20841 -1.365,-1.76258 -3.034,-3.45371 -1.669,-1.69113 -3.841,-4.08477 -4.828,-5.31919 -0.986,-1.23442 -2.429,-2.46624 -3.206,-2.73737 -0.777,-0.27113 -1.413,-0.81048 -1.413,-1.19854 0,-0.38807 -0.27,-0.803 -0.6,-0.92208 -1.39,-0.50148 -87.033,0.19907 -88.446,0.72348 -1.463,0.54267 -4.682,3.82741 -6.88,7.02143 -3.057,4.44222 -4.881,7.26313 -4.881,7.54716 0,0.17027 5.562,0.18439 12.361,0.0314 6.798,-0.15301 22.837,-0.40528 35.642,-0.56061 z m 67.971,-10.44033 c 0.697,-67.07136 0.722,-86.33629 0.113,-86.33573 -0.351,3.2e-4 -1.219,0.48674 -1.929,1.08092 -0.709,0.59419 -2.928,2.26226 -4.93,3.70683 -4.74,3.41981 -6.474,5.20342 -5.59,5.75046 0.695,0.42954 0.715,-1.66207 -0.425,45.18885 -0.624,25.61187 -0.625,25.46177 0.233,25.46177 0.417,0 0.721,0.43339 0.721,1.0272 0,0.56495 0.885,2.0242 1.966,3.24277 5.156,5.81089 9.281,10.09663 9.504,9.87345 0.135,-0.13559 0.287,-4.18402 0.337,-8.99652 z m -115.921,7.70408 c 0.312,-0.59451 1.13,-1.75535 1.817,-2.57964 0.688,-0.8243 2.114,-2.73589 3.17,-4.24799 1.056,-1.51209 2.259,-2.99952 2.673,-3.30538 0.413,-0.30587 1.31,-1.38507 1.991,-2.39822 l 1.24,-1.84209 -0.201,-12.33002 c -0.111,-6.78152 -0.268,-22.02668 -0.349,-33.87815 l -0.147,-21.54812 -5.964,-6.17291 c -3.28,-3.39511 -6.15,-6.18313 -6.377,-6.1956 -0.231,-0.0127 -0.287,14.27786 -0.127,32.28493 0.158,17.76919 0.31,38.79317 0.337,46.71995 0.05,14.3576 0.178,16.57417 0.959,16.57417 0.226,0 0.666,-0.48642 0.978,-1.08093 z m 100.992,-13.88934 c 0.09,-0.0904 0.289,-7.51429 0.441,-16.4975 0.516,-30.38309 0.769,-41.77628 1.051,-47.31959 l 0.282,-5.52473 -16.007,0.10099 c -8.804,0.0555 -29.216,0.11098 -45.359,0.12319 -25.798,0.0195 -29.386,0.11056 -29.632,0.75195 -0.375,0.97885 0.109,67.94046 0.496,68.56703 0.206,0.33276 14.573,0.4063 44.434,0.22742 24.271,-0.1454 44.203,-0.33834 44.294,-0.42876 z m -53.762,-6.14434 c -0.792,-0.21461 -3.6,-0.41908 -6.24,-0.45439 -2.641,-0.0353 -5.098,-0.2529 -5.462,-0.48354 -1.184,-0.7501 -0.132,-1.36661 2.694,-1.57975 3.026,-0.22824 6.368,-1.57477 6.368,-2.56593 0,-0.74573 -4.477,-1.84177 -4.72,-1.15566 -0.239,0.67201 -1.805,0.5446 -2.42,-0.19682 -0.92,-1.10948 1.942,-2.99765 6.18,-4.07632 1.978,-0.50351 12.077,-1.14461 17.281,-1.09707 2.864,0.0262 8.468,-0.79757 9.499,-1.39635 1.598,-0.92802 8.024,-2.85268 8.162,-2.44461 0.08,0.22762 1.215,-0.14014 2.528,-0.81722 1.944,-1.0026 2.631,-1.14294 3.7,-0.75617 0.82,0.29665 2.092,0.3132 3.387,0.0441 2.497,-0.51863 2.862,-0.26298 1.844,1.29183 -0.737,1.12538 -0.939,1.16735 -4.365,0.90802 -3.535,-0.2676 -3.62,-0.24708 -5.378,1.29722 -2.448,2.15142 -4.668,2.98339 -7.565,2.83518 -3.433,-0.17568 -5.571,-0.0104 -5.571,0.43061 0,0.20659 0.505,0.41746 1.122,0.4686 2.415,0.20003 7.038,3.70214 7.038,5.33158 0,1.93364 -5.136,3.51026 -12.961,3.9788 -3.564,0.21342 -8.1,0.48704 -10.08,0.60806 -1.981,0.12101 -4.249,0.0444 -5.041,-0.17017 z m 15.841,-1.89993 c 6.128,-0.37258 10.801,-1.475 10.801,-2.5477 0,-0.96144 -3.565,-3.73841 -5.248,-4.08766 -0.942,-0.19541 -2.832,-0.34873 -4.201,-0.34071 -2.055,0.012 -2.532,-0.14583 -2.73,-0.90438 -0.207,-0.7925 -0.525,-0.87511 -2.311,-0.60034 -1.139,0.17524 -4.879,0.36237 -8.312,0.41584 -4.595,0.0716 -6.903,0.32804 -8.755,0.97256 -3.46,1.20458 -3.575,1.76269 -0.362,1.76269 4.784,0 5.754,1.33024 2.757,3.78058 l -1.8,1.47173 1.92,0.064 c 1.056,0.0352 2.46,0.24968 3.12,0.47663 0.66,0.22695 2.928,0.30095 5.041,0.16444 2.112,-0.13651 6.648,-0.41896 10.08,-0.62767 z m 14.495,-11.34345 1.347,-1.20964 -1.441,0.31638 c -0.792,0.17401 -2.196,0.7088 -3.12,1.18842 l -1.68,0.87202 1.773,0.0212 c 1.239,0.0148 2.18,-0.3433 3.121,-1.18841 z m -21.282,-4.31508 c -0.198,-0.51728 -1.006,-0.72061 -2.865,-0.72061 -1.997,0 -2.589,-0.16704 -2.589,-0.73071 0,-0.62494 0.967,-0.7127 6.677,-0.60633 5.779,0.10767 6.8,0.0122 7.598,-0.71052 0.985,-0.8919 2.527,-1.12818 2.527,-0.38721 0,0.74411 -2.711,2.43438 -3.915,2.44047 -0.619,0.003 -2.314,0.32485 -3.766,0.71491 -3.277,0.88041 -3.329,0.88041 -3.667,0 z m -25.855,-1.185 c -0.792,-0.19289 -4.44,-0.24092 -8.106,-0.10674 -5.597,0.20482 -6.63,0.13531 -6.442,-0.43318 0.285,-0.86234 9.559,-1.33995 14.744,-0.75932 2.43,0.27213 4.482,0.20882 6.481,-0.2 3.19,-0.65267 5.937,-0.72013 8.253,-0.20264 1.31,0.29279 1.656,0.12778 2.88,-1.37414 0.765,-0.93879 2.363,-3.59616 3.551,-5.90526 1.34,-2.60383 3.278,-5.38855 5.102,-7.33208 2.544,-2.70933 3.045,-3.04824 3.702,-2.50261 0.418,0.34711 0.903,1.08286 1.078,1.63501 0.176,0.55215 1.75,2.99272 3.499,5.42349 1.75,2.43077 3.403,4.79589 3.674,5.25583 0.467,0.79207 0.627,0.78878 3.039,-0.0622 l 2.546,-0.8985 0.878,1.08092 c 1.092,1.34388 1.674,1.36066 2.575,0.0742 0.84,-1.20083 2.5,-0.89166 2.957,0.55091 0.402,1.26709 1.488,1.17726 3.2,-0.26478 1.153,-0.97059 1.949,-1.20183 4.15,-1.2052 1.498,-0.002 3.853,-0.13996 5.233,-0.30592 2.185,-0.26264 2.551,-0.18427 2.82,0.60469 0.17,0.49854 0.872,1.38648 1.56,1.9732 0.894,0.76223 1.104,1.21452 0.734,1.58433 -0.719,0.71968 -2.73,-0.24947 -3.323,-1.60153 -0.343,-0.78242 -0.827,-1.02544 -1.9,-0.95476 -0.792,0.0521 -2.77,0.11437 -4.394,0.13828 -2.471,0.0364 -3.273,0.27552 -4.916,1.46652 -2.396,1.73706 -3.267,1.78566 -3.979,0.22203 -0.661,-1.45181 -0.947,-1.48498 -2.073,-0.2402 -1.172,1.29682 -2.367,1.20925 -3.318,-0.24329 l -0.788,-1.20411 -1.888,0.96391 c -2.646,1.35076 -3.757,1.25508 -4.15,-0.35723 -0.357,-1.46601 -2.531,-4.85019 -3.784,-5.89087 -0.444,-0.36916 -2.352,-1.16649 -4.24,-1.77185 l -3.433,-1.10065 -0.895,1.07886 c -0.491,0.59338 -1.654,2.59216 -2.584,4.44174 -0.93,1.84958 -2.415,4.49784 -3.3,5.88503 -1.761,2.75863 -2.517,3.01189 -5.935,1.98704 -1.412,-0.4232 -2.497,-0.37297 -5.191,0.24021 -3.576,0.81404 -5.625,0.89349 -8.017,0.31093 z m 31.44,-13.82783 c -10e-4,-0.19817 -0.444,-1.08638 -0.984,-1.97379 -0.95,-1.55911 -1.015,-1.58493 -1.919,-0.76626 -1.297,1.17468 -1.194,1.44902 0.865,2.3036 2.182,0.9056 2.041,0.87539 2.038,0.43645 z m -19.932,7.40522 c -0.798,-0.57188 -2.07,-1.5262 -2.824,-2.1207 -1.037,-0.81596 -2.004,-1.08093 -3.948,-1.08093 -2.428,0 -2.576,-0.0692 -2.576,-1.20103 0,-0.99406 -0.227,-1.19809 -1.32,-1.184 -0.726,0.009 -1.86,0.32598 -2.52,0.70359 -1.885,1.0783 -2.549,0.91217 -2.266,-0.56707 0.135,-0.70823 0,-1.67123 -0.286,-2.14 -0.912,-1.46033 0.173,-1.68662 1.377,-0.28726 1.007,1.171 1.37,1.29301 3.049,1.02425 1.665,-0.26642 2.061,-0.13861 3.123,1.00808 0.888,0.95932 1.513,1.23871 2.316,1.03679 1.204,-0.30232 1.789,-0.0251 5.819,2.75559 1.49,1.02826 2.709,2.16323 2.709,2.52216 0,0.91559 -0.954,0.74682 -2.653,-0.46947 z m -27.531,-3.15527 c -1.018,-0.64534 -0.258,-1.34846 1.241,-1.14797 2.051,0.27443 4.344,-1.38818 4.726,-3.42721 0.272,-1.4519 0.548,-1.73552 1.943,-1.99734 1.74,-0.32672 3.073,-0.0263 3.073,0.69269 0,0.24311 -0.719,0.57687 -1.597,0.74168 -1.197,0.22485 -1.766,0.68641 -2.28,1.84878 -1.104,2.50113 -5.292,4.4394 -7.106,3.28937 z m 59.551,-14.38347 c -0.434,-0.2841 -0.537,-0.93913 -0.324,-2.07341 0.274,-1.46002 0.163,-1.72545 -0.925,-2.22171 -0.735,-0.33498 -1.236,-0.95754 -1.236,-1.53472 0,-1.13688 1.603,-2.89276 2.64,-2.89276 1.088,0 0.863,1.33096 -0.333,1.9716 l -1.054,0.56418 1.256,1.01406 c 0.732,0.59099 1.322,1.61534 1.414,2.45529 0.116,1.06838 0.406,1.44123 1.117,1.44123 0.534,0 0.96,0.32028 0.96,0.72062 0,0.82204 -2.503,1.21767 -3.515,0.55562 z m -40.17,-1.03943 c -0.357,-0.57787 -0.08,-0.66935 4.562,-1.50805 4.285,-0.77393 13.04,-0.87504 13.284,-0.1534 0.107,0.31627 -1.535,0.52788 -4.517,0.58191 -2.578,0.0467 -6.414,0.41752 -8.526,0.82405 -4.551,0.87577 -4.424,0.86903 -4.803,0.25549 z m 44.885,-1.67804 c 0,-0.66056 0.216,-1.20103 0.481,-1.20103 0.264,0 0.48,-0.32427 0.48,-0.72061 0,-0.40034 -0.427,-0.72062 -0.961,-0.72062 -1.266,0 -1.238,-1.25628 0.04,-1.58975 0.612,-0.16022 1.341,0.085 1.893,0.63683 0.844,0.84523 0.852,1.01081 0.131,2.84682 -0.854,2.17638 -2.06,2.61435 -2.06,0.74836 z m -26.175,-1.85764 c -1.595,-1.10632 -7.017,-1.4494 -9.105,-0.57617 -2.244,0.93824 -2.642,0.94075 -2.642,0.0167 0,-1.12701 -1.401,-1.42356 -2.114,-0.44753 -0.409,0.5597 -0.928,0.74369 -1.489,0.52813 -0.798,-0.30625 -0.779,-0.41902 0.254,-1.51929 1.373,-1.46272 3.056,-1.52817 4.017,-0.15617 0.7,1.00118 0.761,1.00689 2.008,0.18944 1.077,-0.70651 1.877,-0.7877 4.945,-0.50181 4.039,0.37645 5.07,0.76117 5.826,2.17352 0.618,1.15557 -0.242,1.30391 -1.7,0.2932 z m 28.164,-17.58521 20.469,-0.0138 2.332,-2.08063 c 1.283,-1.14434 4.309,-3.4174 6.724,-5.05124 2.416,-1.63383 4.515,-3.29177 4.665,-3.6843 0.291,-0.75826 -4.452,-0.8051 -74.717,-0.73792 -13.935,0.0133 -28.679,0.0242 -32.762,0.0242 -6.229,0 -7.425,0.11434 -7.425,0.70954 0,0.39025 0.531,1.05814 1.181,1.48421 0.65,0.42607 1.299,1.14599 1.443,1.59983 0.311,0.98191 5.988,6.59596 7.812,7.72636 0.594,0.36817 8.106,0.45135 25.326,0.28045 13.465,-0.13363 33.693,-0.24917 44.952,-0.25675 z"
       id="path1" /></g></svg>
