<?xml version="1.0" encoding="UTF-8" standalone="no"?>
<!-- Created with Inkscape (http://www.inkscape.org/) -->

<svg
   width="231.38646"
   height="235.24007"
   viewBox="0 0 61.221 62.240601"
   version="1.1"
   id="svg1"
   xml:space="preserve"
   xmlns="http://www.w3.org/2000/svg"
   xmlns:svg="http://www.w3.org/2000/svg"><defs
     id="defs1" /><g
     id="g1363"
     transform="matrix(0.26458333,0,0,0.26458333,-3455.8075,-139.90637)"><path
       style="fill:#000000"
       d="m 13187.297,733.2217 c -2.72,-0.86293 -3.38,-1.62706 -3.027,-3.50593 0.463,-2.4698 -0.322,-3.0522 -4.116,-3.0522 -3.808,0 -5.114,-0.90645 -4.629,-3.2119 0.406,-1.93457 -0.231,-2.5944 -2.663,-2.75692 -3.715,-0.2483 -12.996,-2.69844 -17.484,-4.61594 -2.555,-1.09173 -6.19,-2.17425 -8.878,-2.64402 -2.503,-0.4375 -5.361,-1.2086 -6.351,-1.71357 -0.99,-0.50496 -2.156,-0.91811 -2.591,-0.91811 -0.435,0 -1.821,-0.5171 -3.079,-1.1491 -1.259,-0.63201 -3.021,-1.30989 -3.916,-1.50641 -1.433,-0.31465 -2.717,-0.82208 -7.029,-2.77852 -1.349,-0.61243 -3.012,-2.14175 -3.012,-2.77032 0,-0.96663 1.549,-1.02958 2.799,-0.11376 0.708,0.51874 1.936,1.17756 2.729,1.46405 0.794,0.28649 2.957,1.09052 4.808,1.78672 7.902,2.97185 14.39,4.89735 19.307,5.72977 0.835,0.14132 3.539,1.12 6.01,2.17483 4.839,2.06635 14.414,4.53765 16.606,4.28624 1.085,-0.1245 1.613,-0.66799 2.716,-2.79792 1.928,-3.72065 2.228,-5.127 2.722,-12.73644 0.24,-3.70077 0.582,-7.64786 0.76,-8.77131 0.295,-1.85659 0.232,-2.04264 -0.684,-2.04264 -0.554,0 -1.235,-0.42521 -1.514,-0.94492 -0.278,-0.5197 -1.32,-1.16411 -2.315,-1.43203 -0.995,-0.26791 -2.236,-0.80907 -2.756,-1.20258 -0.521,-0.39352 -1.292,-0.72236 -1.714,-0.73077 -0.422,-0.008 -1.135,-0.42225 -1.586,-0.91965 -1.382,-1.52716 -15.45,-4.84606 -20.702,-4.88417 -1.599,-0.0116 -3.773,-0.33276 -4.83,-0.71369 -1.058,-0.38093 -1.971,-0.69586 -2.028,-0.69984 -0.06,-0.004 0.04,0.37125 0.218,0.83385 0.178,0.4626 0.334,4.60639 0.346,9.20842 l 0.02,8.36734 3.121,0.63768 c 2.82,0.57623 7.975,2.23372 11.784,3.78835 4.914,2.00642 6.868,2.67911 8.572,2.95146 l 1.918,0.30661 -0.294,-3.80829 c -0.304,-3.95207 0.04,-5.31776 1.212,-4.86643 0.527,0.20215 0.696,1.33651 0.721,4.84358 0.02,2.51878 0.161,4.7866 0.318,5.03959 0.156,0.253 1.584,0.84932 3.173,1.32517 2.772,0.82987 3.703,1.84318 2.218,2.41276 -0.692,0.26553 -9.309,-2.4865 -10.122,-3.23281 -0.251,-0.23054 -0.788,-0.41916 -1.193,-0.41916 -0.794,0 -7.334,-2.43108 -11.812,-4.39157 -0.529,-0.23151 -2.043,-0.64636 -3.365,-0.9219 -1.323,-0.27553 -3.269,-0.68737 -4.326,-0.91519 -2.16,-0.46582 -2.779,0.006 -2.333,1.77893 0.22,0.87905 0.07,1.08538 -0.78,1.08538 -0.899,0 -1.009,-0.19323 -0.759,-1.33105 0.434,-1.97759 -0.536,-2.7594 -4.303,-3.46619 -1.851,-0.34732 -3.906,-0.84277 -4.567,-1.101 -0.661,-0.25823 -1.689,-0.65885 -2.284,-0.89028 -0.595,-0.23143 -1.568,-0.62023 -2.163,-0.86401 -0.595,-0.24377 -1.653,-0.56633 -2.351,-0.71678 -1.407,-0.30329 -2.164,-1.60832 -1.384,-2.38753 0.35,-0.35037 0.939,-0.33865 1.938,0.0386 l 1.436,0.5417 v -2.12104 c 0,-1.16657 0.223,-2.12104 0.496,-2.12104 0.62,0 0.877,0.70804 1.096,3.0205 0.09,1.00042 0.37,1.99445 0.612,2.20895 0.353,0.31276 5.197,1.7364 9.335,2.74361 1.475,0.35912 1.812,-0.54011 1.987,-5.30934 l 0.176,-4.7859 -3.846,-0.83651 c -4.732,-1.0292 -6.936,-1.59897 -8.124,-2.10054 -0.84,-0.35432 -0.893,-0.20477 -0.66,1.86398 0.244,2.16416 -0.248,3.27513 -1.067,2.40841 -0.215,-0.22809 -0.496,-1.27983 -0.624,-2.33719 -0.127,-1.05737 -0.372,-2.26024 -0.544,-2.67305 -0.319,-0.76666 -2.849,-1.89284 -4.251,-1.89284 -1.162,0 -1.531,-0.95317 -0.694,-1.78978 0.735,-0.7346 1.188,-0.67242 4.305,0.59049 1.023,0.41443 1.115,-0.61992 0.264,-2.9717 -0.457,-1.26497 -0.45,-1.72045 0.03,-2.19692 0.491,-0.48244 0.798,-0.37272 1.557,0.55592 0.752,0.92027 0.883,1.57534 0.639,3.20154 -0.269,1.79711 -0.17,2.13174 0.823,2.76517 0.938,0.59772 9.993,2.729 11.596,2.729 0.292,0 0.355,-0.91259 0.163,-2.35946 -0.227,-1.7051 -0.144,-2.42269 0.298,-2.58746 0.45,-0.16771 0.421,-0.28576 -0.109,-0.44648 -0.397,-0.12016 -1.803,-0.60273 -3.125,-1.07236 -1.322,-0.46963 -4.159,-1.45321 -6.304,-2.18573 -2.144,-0.73252 -4.43,-1.6796 -5.079,-2.10463 -0.649,-0.42503 -2.248,-0.89126 -3.553,-1.03608 -1.305,-0.14481 -3.216,-0.37011 -4.246,-0.50066 l -1.874,-0.23736 0.293,3.13842 c 0.161,1.72613 0.515,3.55375 0.787,4.06136 0.272,0.50762 0.378,1.91492 0.235,3.12733 -0.143,1.21241 0.103,4.1747 0.546,6.58286 0.505,2.75078 0.719,5.70441 0.575,7.94522 -0.125,1.96171 -0.04,3.68062 0.181,3.81979 0.807,0.49851 0.388,1.67002 -0.751,2.10317 -0.639,0.24265 -1.296,0.86616 -1.461,1.38556 -0.474,1.49235 -1.516,1.56905 -4.048,0.2978 l -2.354,-1.18172 -2.258,1.26156 c -1.981,1.10725 -2.638,1.23103 -5.367,1.01202 -3.432,-0.27534 -4.986,-1.22877 -4.986,-3.05748 0,-1.3248 -1.272,-2.10249 -3.454,-2.11257 -1.966,-0.009 -2.464,-0.32476 -3.398,-2.15543 -1.059,-2.07403 -1.216,-9.1238 -0.252,-11.29457 0.411,-0.92519 0.9,-2.87171 1.088,-4.32558 0.187,-1.45388 0.77,-4.48179 1.294,-6.72868 0.524,-2.2469 1.25,-5.92365 1.612,-8.17055 0.363,-2.2469 0.914,-5.49108 1.226,-7.2093 0.311,-1.71822 0.51,-5.71938 0.441,-8.89147 -0.307,-14.09369 -0.107,-16.9555 1.315,-18.8825 2.253,-3.05328 4.614,-4.06654 22.003,-9.44134 3.173,-0.98081 6.272,-1.98688 6.887,-2.2357 1.404,-0.56843 3.918,-1.15457 12.139,-2.83058 3.59,-0.73169 6.945,-1.55422 7.456,-1.82784 1.451,-0.77616 6.644,-2.16668 15.948,-4.26969 1.917,-0.43348 3.686,-1.02913 3.931,-1.32368 0.244,-0.29454 0.661,-1.9383 0.927,-3.6528 1.493,-9.65301 1.96,-13.04019 2.186,-15.8537 0.481,-5.99963 0.817,-8.44673 1.844,-13.45737 1.12,-5.46476 2.544,-8.29938 5.984,-11.91499 1.887,-1.98292 1.89,-1.98377 4.986,-1.7926 1.704,0.1052 3.963,0.42008 5.021,0.69974 1.058,0.27966 5.926,0.83536 10.818,1.23488 14.173,1.15754 17.201,1.63042 28.125,4.39301 4.845,1.22508 10.773,2.11703 16.827,2.53172 4.524,0.30985 6.346,0.65368 8.441,1.59278 3.455,1.54913 7.25,5.41711 9.201,9.37906 2.02,4.1018 2.259,7.66626 1.489,22.16305 -0.332,6.25048 -0.707,13.63545 -0.834,16.41103 -0.33,7.26195 -1.112,15.86941 -1.927,21.22416 -0.39,2.55352 -0.834,5.79771 -0.987,7.2093 -0.154,1.4116 -0.374,2.89096 -0.489,3.28747 -0.244,0.84093 -0.415,3.02351 -1.276,16.34631 -0.714,11.04485 -0.718,20.84207 -0.01,23.90464 0.391,1.68918 0.316,2.34979 -0.438,3.82643 -0.5,0.98163 -0.91,2.58129 -0.91,3.55481 0,2.35222 -2.15,4.75541 -4.255,4.75541 -0.883,0 -1.649,-0.32671 -1.926,-0.82098 -0.421,-0.7517 -0.676,-0.70691 -3.029,0.53085 -3.755,1.9757 -6.139,3.29065 -8.584,4.73383 -1.192,0.70409 -3.594,1.81651 -5.336,2.47205 -4.088,1.53819 -7.949,3.42175 -12.447,6.07149 -3.239,1.90775 -4.511,2.56746 -8.648,4.48266 -0.657,0.30434 -2.673,1.35606 -4.48,2.33715 -2.674,1.452 -3.764,1.77808 -5.862,1.75303 -2.914,-0.0348 -3.607,0.24233 -3.607,1.44192 0,1.0329 -0.905,1.98668 -1.899,2.00093 -0.41,0.006 -1.286,0.43363 -1.947,0.95055 -1.351,1.05627 -1.904,1.09541 -4.38,0.31007 z m 4.306,-3.13001 c 1.385,-1.20075 1.304,-1.60041 -0.287,-1.41741 -0.946,0.10889 -1.366,0.4592 -1.476,1.23348 -0.187,1.31652 0.388,1.37645 1.763,0.18393 z m -2.931,-0.82482 c -0.458,-0.45801 -1.377,0.28385 -1.035,0.83613 0.202,0.32827 0.471,0.31997 0.817,-0.0252 0.283,-0.28297 0.381,-0.64789 0.218,-0.81093 z m 14.543,-3.99598 c 0.662,-0.45535 3.041,-1.75978 5.289,-2.89872 2.248,-1.13895 4.533,-2.47769 5.079,-2.97498 0.546,-0.49729 1.266,-0.90416 1.599,-0.90416 0.333,0 2.105,-0.87479 3.936,-1.94398 1.831,-1.06919 4.199,-2.25074 5.262,-2.62566 3.739,-1.3186 11.086,-4.83503 16.577,-7.93395 2.379,-1.34313 4.976,-2.74017 5.769,-3.10453 0.793,-0.36437 2.416,-1.661 3.606,-2.88141 l 2.163,-2.21892 0.09,-11.39384 c 0.1,-12.90474 0.293,-17.5866 1.085,-25.81244 0.306,-3.17209 0.753,-7.93023 0.995,-10.57364 0.242,-2.64341 0.679,-6.4283 0.972,-8.41086 0.731,-4.95401 1.395,-12.23991 1.663,-18.26356 0.124,-2.77558 0.442,-7.75 0.707,-11.05427 0.481,-6.00338 0.686,-18.94233 0.365,-23.11908 -0.19,-2.47437 -2.386,-6.67937 -3.489,-6.67937 -0.386,0 -0.701,-0.41015 -0.701,-0.91145 0,-1.33344 -2.887,-3.64661 -6.007,-4.81381 -2.038,-0.76227 -3.767,-1.01039 -6.891,-0.98886 -4.082,0.0281 -12.19,-1.16026 -17.731,-2.59892 -9.687,-2.51493 -17.101,-3.66184 -29.949,-4.63274 -3.834,-0.28974 -7.937,-0.84151 -9.116,-1.22615 -1.975,-0.64401 -2.38,-0.62107 -5.119,0.28996 -2.368,0.78765 -3.235,1.36642 -4.256,2.83943 -1.735,2.50267 -3.455,7.76267 -3.865,11.82431 -0.186,1.83825 -0.638,5.50506 -1.005,8.14847 -0.652,4.70293 -0.645,4.82427 0.342,5.64728 0.555,0.4626 1.401,0.84109 1.879,0.84109 1.533,0 2.389,0.5579 2.389,1.55656 0,0.85546 -0.217,0.93815 -1.802,0.68398 -0.992,-0.15902 -2.223,-0.34971 -2.736,-0.42375 -0.828,-0.1195 -1,0.35112 -1.532,4.19096 -0.33,2.37907 -0.737,5.04467 -0.905,5.92356 -0.258,1.34951 -0.15,1.63848 0.691,1.85838 1.343,0.35104 1.256,1.30952 -0.206,2.26689 -1.095,0.71749 -1.203,1.09519 -1.219,4.2607 0,1.91038 -0.327,5.20365 -0.706,7.31838 -0.681,3.7957 -0.676,3.85543 0.377,4.66201 1.062,0.8128 1.062,0.82085 0.106,1.54673 -0.529,0.40132 -1.124,0.73656 -1.322,0.74496 -0.199,0.008 -0.361,1.5922 -0.361,3.51954 v 3.50424 l 2.631,1.33162 c 3.917,1.98266 6.097,2.49043 15.158,3.53026 2.611,0.29965 3.365,0.84166 3.365,2.4182 0,0.95256 -0.17,1.12205 -0.841,0.83784 -1.022,-0.43251 -3.982,-0.99315 -8.701,-1.64792 -4.593,-0.63707 -7.334,-1.38135 -8.317,-2.25823 -0.436,-0.38821 -2.023,-0.83288 -3.528,-0.98817 -2.771,-0.28584 -3.705,-1.02902 -2.75,-2.18782 1.023,-1.24119 0.915,-6.12179 -0.134,-6.12179 -0.74,0 -6.183,2.51056 -7.151,3.29814 -1.601,1.30315 -9.097,5.27144 -9.596,5.08008 -0.894,-0.34273 -1.778,-2.72318 -1.461,-3.93248 0.155,-0.59477 0.1,-1.07906 -0.134,-1.0762 -0.842,0.0105 -4.931,1.38463 -6.439,2.16402 -0.854,0.44164 -2.05,0.70809 -2.656,0.59211 -1.337,-0.2554 -1.642,0.59588 -1.652,4.60337 0,2.40449 -0.125,2.77615 -0.848,2.63795 -1.142,-0.21848 -1.444,-2.70089 -0.832,-6.843 l 0.492,-3.32872 2.574,-0.15327 c 3.427,-0.20406 9.013,-1.89999 9.376,-2.84669 0.159,-0.415 0.29,-1.50969 0.29,-2.43265 0,-1.33854 0.17,-1.64583 0.841,-1.5186 0.507,0.0962 0.902,0.68242 0.994,1.4771 0.08,0.72468 0.351,1.3176 0.595,1.3176 0.862,0 8.873,-4.84073 9.973,-6.02656 0.614,-0.66194 1.32,-1.07794 1.568,-0.92446 0.684,0.42263 0.541,2.32388 -0.254,3.37466 -0.684,0.90357 -1.032,4.05698 -0.448,4.05698 0.159,0 1.565,-0.5857 3.125,-1.30156 2.771,-1.27119 2.837,-1.34689 2.858,-3.24419 0.01,-1.06844 0.313,-3.02402 0.669,-4.34572 0.356,-1.32171 0.497,-2.5667 0.312,-2.76666 -0.184,-0.19995 -2.487,0.39815 -5.116,1.32911 -2.629,0.93097 -7.918,2.45348 -11.752,3.38338 -3.834,0.92989 -7.945,2.09744 -9.135,2.59454 -1.19,0.4971 -3.54,1.25919 -5.223,1.69353 -3.564,0.92014 -9.421,3.67299 -11.363,5.34152 -0.744,0.63856 -1.498,1.16101 -1.676,1.16101 -0.469,0 -2.2,4.03664 -3.4,7.93023 -0.57,1.85039 -1.555,4.93428 -2.187,6.85309 -1.127,3.41565 -1.346,6.12253 -0.729,9.0051 l 0.308,1.43958 0.637,-1.9202 c 0.35,-1.05611 1.157,-2.56885 1.792,-3.36165 1,-1.24838 1.28,-1.36329 2.089,-0.8579 0.514,0.32096 2.41,0.71877 4.214,0.88402 1.803,0.16526 4.524,0.71385 6.047,1.2191 1.523,0.50524 4.768,1.25812 7.212,1.67305 5.319,0.90328 8.989,1.90576 11.84,3.23448 1.159,0.54049 3.214,1.23183 4.567,1.5363 1.73,0.3895 2.509,0.81398 2.629,1.43205 0.154,0.79827 -0.09,0.85088 -2.722,0.5763 -1.591,-0.16619 -4.542,-0.95729 -6.558,-1.758 -2.017,-0.8007 -5.66,-1.75703 -8.096,-2.12517 -2.436,-0.36814 -5.01,-0.93628 -5.72,-1.26254 -2.129,-0.97765 -2.679,-0.3927 -3.033,3.22694 -0.176,1.80137 -0.426,3.65371 -0.555,4.11631 -0.314,1.12935 -1.439,1.0701 -1.743,-0.0918 -0.134,-0.51309 -1.025,-1.25903 -1.979,-1.65765 -0.992,-0.41398 -1.736,-1.06211 -1.736,-1.51153 0,-0.63055 0.406,-0.75472 2.044,-0.6253 l 2.043,0.16148 0.141,-2.90972 0.14,-2.90973 -4.869,-0.0546 -4.869,-0.0546 -0.725,1.73277 c -0.51,1.22197 -0.634,2.52088 -0.42,4.40619 0.626,5.50927 0.377,5.18275 4.26,5.56744 2.202,0.21813 4.156,0.74135 5.38,1.4407 1.058,0.604 2.662,1.25251 3.565,1.44114 0.903,0.18863 3.033,0.96681 4.733,1.72929 1.7,0.76248 3.359,1.38633 3.687,1.38633 0.329,0 1.962,0.44793 3.63,0.99541 2.06,0.67574 4.478,1.02303 7.532,1.08139 3.232,0.0618 4.498,0.25509 4.498,0.68676 0,0.34202 0.599,0.60078 1.39,0.60078 1.625,0 9.92,2.09386 12.402,3.13051 0.941,0.39294 1.752,0.71445 1.802,0.71445 0.05,0 0.142,-0.96066 0.203,-2.13481 0.144,-2.77541 -0.661,-3.20674 -8.266,-4.43396 -1.935,-0.31221 -2.745,-1.29109 -1.828,-2.20806 0.581,-0.58128 4.956,0.31984 10.195,2.09997 1.472,0.50018 3.107,0.90942 3.634,0.90942 0.527,0 1.378,0.3203 1.891,0.71179 0.808,0.61605 0.836,0.77661 0.212,1.19361 -0.396,0.26499 -1.393,0.35893 -2.215,0.20875 -1.377,-0.25156 -1.519,-0.1516 -1.803,1.26957 -0.599,2.99493 -0.399,3.59777 1.56,4.69832 1.079,0.60644 2.703,1.04974 3.846,1.04974 h 1.978 l 0.06,-4.20543 c 0.03,-2.31298 0.127,-4.74612 0.206,-5.40697 0.259,-2.14385 -0.215,-2.88242 -1.862,-2.90076 -0.842,-0.009 -2.071,-0.32612 -2.732,-0.7039 -0.661,-0.37777 -1.671,-0.69453 -2.244,-0.70389 -0.573,-0.009 -1.114,-0.17925 -1.202,-0.3775 -0.293,-0.65885 -6.849,-2.6047 -9.69,-2.87621 -2.237,-0.21374 -2.948,-0.49404 -3.539,-1.39541 -0.406,-0.62036 -0.611,-1.46159 -0.454,-1.86939 0.249,-0.64974 0.449,-0.65791 1.615,-0.0661 0.732,0.37143 2.413,0.83126 3.735,1.02184 1.322,0.19058 4.912,1.29872 7.978,2.46252 3.065,1.16381 6.227,2.24657 7.025,2.40615 l 1.451,0.29013 0.278,-3.53133 c 0.428,-5.44422 1.263,-10.54884 2.065,-12.61848 0.853,-2.20422 0.472,-2.66736 -2.21,-2.68336 -0.926,-0.006 -2.509,-0.2394 -3.519,-0.51973 -1.642,-0.45586 -2.001,-0.38454 -3.39,0.67525 -0.855,0.65172 -3.151,1.9983 -5.102,2.99241 l -3.548,1.80747 2.097,0.61899 c 1.153,0.34044 2.287,0.95921 2.52,1.37503 0.233,0.41582 0.637,0.62418 0.898,0.46303 0.261,-0.16115 0.842,-0.12482 1.292,0.0807 0.45,0.20555 1.792,0.60474 2.982,0.88707 1.656,0.3928 2.164,0.73496 2.164,1.45736 0,0.80329 -0.311,0.93406 -2.082,0.87708 -1.146,-0.0368 -2.461,-0.40909 -2.923,-0.82727 -0.462,-0.41818 -1.094,-0.76033 -1.404,-0.76033 -0.309,0 -0.563,-0.29764 -0.563,-0.66141 0,-0.43912 -0.848,-0.76299 -2.524,-0.96361 -6.999,-0.83792 -7.803,-1.02092 -7.953,-1.80991 -0.107,-0.56174 0.519,-1.04113 2.158,-1.65133 2.476,-0.92182 9.224,-4.34009 9.978,-5.05468 0.279,-0.26388 0.05,-0.4327 -0.584,-0.4327 -0.572,0 -1.274,-0.43577 -1.559,-0.96837 -0.73,-1.36253 0.398,-1.69471 3.258,-0.95994 1.251,0.32145 3.248,0.68025 4.438,0.79735 1.19,0.1171 2.488,0.33842 2.885,0.49183 0.396,0.15341 1.526,0.43788 2.509,0.63215 l 1.789,0.35321 2.03,-3.35919 c 2.112,-3.4937 5.304,-6.44378 8.151,-7.53209 1.714,-0.65536 2.76,-1.09889 7.328,-3.10819 1.549,-0.68135 3.042,-1.09887 3.319,-0.92783 0.287,0.17702 0.361,0.0808 0.173,-0.22343 -0.416,-0.67283 2.103,-2.01721 3.779,-2.01721 0.683,0 1.363,-0.31826 1.512,-0.70724 0.371,-0.96516 14.055,-7.64948 18.17,-8.87544 1.829,-0.54503 4.564,-0.99096 6.077,-0.99096 3.216,0 3.088,0.23119 3.575,-6.48837 0.173,-2.37907 0.609,-5.29884 0.969,-6.48838 0.361,-1.18953 0.905,-4.21744 1.209,-6.72868 0.304,-2.51124 0.769,-5.43101 1.033,-6.48837 0.264,-1.05737 0.777,-3.61482 1.139,-5.68323 0.876,-5.00478 1.017,-5.38352 2.959,-7.9598 0.919,-1.21959 2.118,-2.8122 2.663,-3.53914 1.063,-1.41689 2.771,-1.7872 2.771,-0.60078 0,0.39651 -0.197,0.72093 -0.439,0.72093 -0.902,0 -4.74,7.48258 -5.301,10.33334 -0.312,1.58604 -0.869,4.28953 -1.237,6.00775 -0.705,3.28677 -2.209,12.02594 -3.598,20.90698 -0.966,6.17628 -0.826,6.53347 2.738,6.94628 2.244,0.25992 2.272,0.28432 2.332,2.07069 0.07,2.09352 -0.866,2.99771 -8.197,7.90506 -4.198,2.8099 -5.635,3.63934 -8.654,4.99688 -0.794,0.35664 -2.222,1.12266 -3.175,1.70228 -0.953,0.57962 -3.651,1.73069 -5.995,2.55792 -2.345,0.82724 -5.307,2.14616 -6.583,2.93095 -3.003,1.84718 -8.527,6.18805 -8.527,6.70079 0,0.21864 -0.865,1.29794 -1.923,2.39845 -1.064,1.10725 -1.923,2.47711 -1.923,3.06712 0,0.58642 -0.205,1.27168 -0.456,1.5228 -0.251,0.25113 -0.603,1.37578 -0.783,2.49923 -0.414,2.59072 0.246,2.66554 4.043,0.45827 1.499,-0.8714 4.672,-2.40843 7.052,-3.41562 2.38,-1.0072 4.533,-2.02447 4.784,-2.26061 0.652,-0.61336 2.375,-0.53018 3.053,0.14741 0.449,0.44858 0.577,0.41977 0.577,-0.12966 0,-0.39332 1.758,-1.64461 3.966,-2.82325 2.182,-1.16427 4.94,-2.80156 6.13,-3.63842 2.123,-1.49319 2.161,-1.56559 2,-3.8814 -0.09,-1.2979 -0.318,-2.52275 -0.507,-2.72188 -0.188,-0.19913 -1.881,0.39564 -3.761,1.32171 -3.681,1.81257 -4.455,1.98007 -5.291,1.14457 -0.788,-0.78851 -0.195,-1.86391 1.029,-1.86391 0.582,0 2.596,-0.75698 4.475,-1.68218 3.604,-1.77527 5.632,-2.11702 6.053,-1.02042 0.139,0.36396 0.135,1.54319 0,2.6205 -0.145,1.07732 -0.132,2.30105 0.03,2.71941 0.264,0.68784 0.428,0.69003 1.719,0.0229 1.784,-0.92206 2.436,-0.9328 2.436,-0.0401 0,0.97026 -12.73,9.15206 -15.327,9.85082 -1.206,0.32463 -1.256,0.46987 -1.169,3.42627 0.05,1.69801 0.158,3.84426 0.24,4.76945 0.108,1.21046 -0.04,1.68217 -0.539,1.68217 -0.762,0 -1.93,-3.80809 -1.946,-6.33985 0,-0.84351 -0.243,-1.67843 -0.53,-1.85537 -0.286,-0.17695 -2.179,0.51319 -4.207,1.53365 l -3.686,1.85537 0.122,6.00775 c 0.142,7.02011 0.516,10.95511 1.152,12.14792 0.251,0.46934 0.5,2.6682 0.553,4.88637 0.05,2.21816 0.239,4.1751 0.412,4.34876 0.174,0.17366 0.931,0.005 1.683,-0.37469 0.752,-0.37973 1.637,-0.59393 1.968,-0.476 1.258,0.44884 0.517,1.64626 -1.573,2.54179 -1.195,0.5123 -2.27,1.20752 -2.387,1.54493 -0.118,0.33742 -0.275,2.45185 -0.351,4.69875 -0.108,3.25022 -0.284,4.08527 -0.857,4.08527 -0.755,0 -0.806,-0.67438 -0.388,-5.21486 0.277,-3.0045 -0.337,-3.23922 -3.456,-1.32101 -2.705,1.66432 -3.849,1.87264 -3.849,0.70126 0,-0.99221 0.938,-1.71204 4.586,-3.52075 l 2.902,-1.43924 -0.84,-5.83846 c -0.463,-3.21115 -0.919,-5.91646 -1.014,-6.01179 -0.1,-0.0953 -0.903,0.36483 -1.795,1.02258 -1.964,1.44822 -3.358,1.56015 -3.358,0.26956 0,-1.18001 2.186,-2.9186 3.671,-2.9186 1.01,0 1.141,-0.22728 1.179,-2.04264 0.09,-4.1075 -0.129,-12.1413 -0.329,-12.34186 -0.203,-0.20277 -7.829,3.61071 -8.439,4.21988 -0.172,0.17155 -0.467,3.39388 -0.655,7.16074 l -0.343,6.84884 h 1.737 c 1.104,0 1.737,0.22745 1.737,0.6248 0,0.88083 -1.003,1.7783 -1.987,1.7783 -1.234,0 -1.394,1.14906 -0.937,6.72868 0.407,4.97931 0.283,16.64446 -0.25,23.43023 -0.233,2.96494 -0.406,3.4845 -1.159,3.4845 -1.089,0 -1.294,-0.91664 -0.968,-4.32558 0.274,-2.86519 0.192,-14.77655 -0.187,-27.39535 -0.266,-8.82102 0.345,-22.96891 1.151,-26.689 0.379,-1.74791 1.153,-3.14238 2.791,-5.03368 2.817,-3.25165 7.397,-7.68817 7.937,-7.68817 0.222,0 1.113,-0.5407 1.979,-1.20155 0.867,-0.66086 1.755,-1.20156 1.974,-1.20156 0.218,0 0.746,-0.31544 1.172,-0.70099 0.426,-0.38555 2.809,-1.3655 5.295,-2.17765 2.486,-0.81216 4.769,-1.68286 5.073,-1.93489 0.304,-0.25204 2.863,-1.64289 5.688,-3.0908 4.285,-2.19609 7.818,-4.38343 8.967,-5.55165 0.132,-0.13442 1.179,-0.88138 2.326,-1.65991 1.85,-1.25472 1.996,-1.48206 1.285,-2.0013 -1.769,-1.29366 -8.064,-1.55307 -12.025,-0.49559 -2.901,0.77445 -9.773,3.59925 -10.922,4.48947 -0.339,0.26285 -2.564,1.40465 -4.944,2.53733 -13.912,6.6214 -21.909,10.67659 -23.205,11.76669 -1.272,1.07002 -2.921,3.4843 -5.293,7.75086 -2.152,3.87058 -3.492,14.99606 -3.728,30.95991 -0.219,14.79549 -0.609,21.42612 -1.423,24.14835 -1.103,3.69183 -2.168,9.01768 -2.168,10.84836 0,2.96966 0.47,3.29049 5.39,3.67531 2.455,0.19198 4.681,0.49082 4.945,0.6641 2.457,1.60691 13.348,1.69327 15.626,0.12391 z m -0.961,-11.29051 c 0,-1.10569 1.555,-2.48802 3.846,-3.41954 1.19,-0.48373 2.962,-1.49223 3.938,-2.24111 0.976,-0.74887 1.971,-1.36158 2.21,-1.36158 0.238,0 0.795,-0.39898 1.237,-0.88661 0.886,-0.97916 4.467,-2.32481 4.937,-1.85525 0.625,0.62542 -0.335,1.77766 -2.322,2.7847 -1.137,0.57614 -2.175,1.20219 -2.307,1.39124 -0.486,0.69462 -10.088,6.25584 -10.802,6.25584 -0.405,0 -0.737,-0.30046 -0.737,-0.66769 z m -16.882,-0.1734 c -0.03,-0.19825 -0.142,-5.22674 -0.249,-11.17442 -0.107,-5.94767 -0.254,-14.05814 -0.327,-18.02325 -0.07,-3.96512 -0.313,-9.80465 -0.534,-12.97675 -0.448,-6.42002 0.117,-10.63319 1.607,-11.98092 2.465,-2.22981 7.561,0.83963 6.929,4.17332 -0.162,0.85775 -0.472,1.90695 -0.688,2.33156 -0.216,0.42461 -0.503,3.03688 -0.637,5.80505 -0.134,2.76817 -0.352,5.34053 -0.483,5.71635 -0.648,1.84787 -1.817,13.8887 -1.953,20.10644 -0.08,3.85605 -0.173,7.82204 -0.199,8.81332 -0.03,1.26115 -0.262,1.80233 -0.767,1.80233 -0.799,0 -0.841,0.20194 -0.728,3.48449 0.07,2.01492 -0.04,2.28295 -0.919,2.28295 -0.549,0 -1.022,-0.16221 -1.052,-0.36047 z m 1.463,-50.25317 c 0.02,-0.21386 -0.182,-0.25516 -0.447,-0.0918 -0.264,0.16337 -0.465,0.7709 -0.447,1.35007 0.03,1.01525 0.05,1.01854 0.447,0.0918 0.227,-0.52868 0.429,-1.13621 0.447,-1.35007 z m 3.88,-0.54404 c 0,-0.38092 -0.201,-0.817 -0.447,-0.96908 -0.572,-0.35315 -1.147,0.54684 -0.755,1.18102 0.442,0.7151 1.202,0.58111 1.202,-0.21194 z m 29.595,41.10773 c -0.149,-0.24065 -0.411,-3.05227 -0.583,-6.24806 -0.296,-5.5015 -0.264,-5.81052 0.602,-5.81059 0.793,-7e-5 0.917,0.36985 0.924,2.76356 0,1.52 0.18,4.33167 0.39,6.24814 0.322,2.94775 0.27,3.48449 -0.341,3.48449 -0.397,0 -0.844,-0.19689 -0.992,-0.43754 z m 20.165,-1.9675 c -0.182,-0.29332 -0.223,-1.00764 -0.09,-1.58739 0.131,-0.57974 0.1,-2.52137 -0.07,-4.31473 l -0.313,-3.26065 -2.294,1.57848 c -1.262,0.86816 -2.421,2.06511 -2.577,2.65988 -0.305,1.17084 -0.943,1.42922 -1.25,0.50663 -0.136,-0.40632 -0.797,-0.27567 -2.255,0.44578 -1.135,0.56131 -2.376,0.90088 -2.757,0.7546 -1.372,-0.52621 -0.351,-1.80055 2.241,-2.7983 2.034,-0.78308 2.619,-1.23056 2.543,-1.94542 -0.471,-4.42445 -1.842,-10.3005 -2.404,-10.3005 -1.054,0 -8.089,3.8029 -10.407,5.62545 -1.336,1.05083 -2.715,1.02359 -2.715,-0.0536 0,-0.78007 1.004,-1.72687 1.831,-1.72687 0.372,0 1.178,-0.48663 1.789,-1.0814 0.611,-0.59476 2.998,-2.05486 5.303,-3.24465 l 4.192,-2.16326 0.208,-2.88325 c 0.114,-1.58579 0.39,-3.06988 0.612,-3.29797 0.796,-0.81664 1.449,0.26844 1.449,2.40561 0,1.19596 0.163,2.10032 0.361,2.00969 0.787,-0.35958 5.104,-3.08457 6.027,-3.80361 0.959,-0.7479 0.963,-0.83234 0.181,-3.94374 -0.44,-1.74871 -0.799,-4.37862 -0.799,-5.84426 0,-1.46563 -0.217,-2.66479 -0.483,-2.66479 -0.265,0 -1.29,0.43256 -2.276,0.96124 -0.987,0.52868 -2.073,0.96124 -2.414,0.96124 -0.342,0 -0.75,0.64884 -0.909,1.44186 -0.326,1.62979 -0.344,1.64046 -1.521,0.90574 -0.688,-0.4296 -1.469,-0.22812 -3.93,1.01402 -2.919,1.47295 -5.295,2.97004 -6.568,4.13815 -0.318,0.29192 -0.648,1.24852 -0.734,2.12577 -0.187,1.91588 -1.358,2.57517 -1.358,0.76476 0,-0.7328 -0.386,-1.43132 -0.961,-1.73914 -1.85,-0.98954 -0.874,-3.36434 1.383,-3.36434 0.655,0 2.288,-0.75229 3.63,-1.67175 1.341,-0.91946 3.629,-2.27121 5.083,-3.00388 2.461,-1.23972 2.634,-1.43903 2.496,-2.87346 -0.08,-0.84773 0.1,-1.99716 0.394,-2.55428 0.854,-1.59402 2.083,-0.29948 1.692,1.78185 -0.229,1.22295 -0.133,1.59284 0.416,1.59284 0.393,0 0.848,-0.21558 1.011,-0.47907 0.163,-0.26349 1.497,-1.02837 2.965,-1.69975 2.477,-1.13225 2.648,-1.31515 2.361,-2.5248 -0.17,-0.71727 -0.439,-3.29345 -0.598,-5.72485 -0.259,-3.9673 -0.389,-4.43561 -1.268,-4.56589 -1.581,-0.23413 -1.521,-1.31823 0.103,-1.88425 1.432,-0.49897 1.486,-0.61961 1.486,-3.32609 0,-2.96892 0.528,-3.82323 1.74,-2.81711 0.53,0.43944 0.65,1.07338 0.429,2.25463 -0.236,1.25417 -0.159,1.5809 0.324,1.37978 0.347,-0.14494 1.551,-0.51774 2.675,-0.82845 1.124,-0.31071 2.044,-0.74935 2.044,-0.97475 0,-0.2254 0.703,-0.59212 1.562,-0.81493 l 1.563,-0.4051 0.06,-4.53499 c 0.08,-5.68476 0.495,-10.85401 0.927,-11.55271 0.825,-1.33341 1.146,1.19882 0.89,7.01771 -0.151,3.43643 -0.312,8.51899 -0.357,11.29457 -0.07,4.12887 -0.213,5.04652 -0.803,5.04652 -0.521,0 -0.763,-0.64444 -0.87,-2.32363 -0.125,-1.97245 -0.271,-2.27075 -0.961,-1.97376 -0.448,0.19242 -1.787,0.65549 -2.977,1.02905 -4.479,1.40621 -4.55,1.48444 -4.72,5.20719 -0.23,5.03646 0.281,8.39448 1.276,8.39448 1.158,0 4.187,-1.69742 7.459,-4.17967 2.728,-2.06961 4.158,-2.37875 4.158,-0.89884 0,0.39551 -0.452,0.96096 -1.004,1.25656 -0.553,0.29559 -2.121,1.38519 -3.486,2.42131 -1.365,1.03613 -3.455,2.24495 -4.645,2.68626 -1.19,0.44131 -2.434,1.0079 -2.764,1.25909 -0.762,0.57893 -0.732,7.3512 0.05,10.5482 l 0.555,2.27896 3.527,-1.75998 c 2.586,-1.29059 3.623,-1.60373 3.889,-1.17409 0.324,0.52472 0.287,10.50572 -0.07,18.80251 -0.171,3.9736 -1.046,4.56685 -1.24,0.84109 -0.155,-2.96952 -0.426,-3.19978 -2.311,-1.96527 -0.67,0.43907 -1.906,1.14198 -2.747,1.56202 l -1.529,0.76371 v 5.48336 c 0,3.72597 -0.178,5.54403 -0.557,5.67266 -0.306,0.10411 -0.705,-0.0507 -0.886,-0.34401 z m -0.198,-12.67275 c 0.155,-0.56264 0.309,-3.33058 0.343,-6.15098 l 0.06,-5.128 -1.49,0.42739 c -0.82,0.23507 -1.895,0.79324 -2.39,1.24037 -0.494,0.44714 -1.384,1.06008 -1.977,1.36208 -0.961,0.48958 -1.063,0.85895 -0.943,3.40702 0.123,2.59686 0.823,7.22919 1.323,8.75195 0.275,0.8379 4.706,-2.57672 5.074,-3.90983 z m 5.101,-2.00935 c 1.27,-0.67467 2.454,-1.37757 2.63,-1.56201 0.422,-0.44081 0.878,-12.11638 0.473,-12.09094 -0.172,0.0108 -1.586,0.62827 -3.142,1.37221 l -2.829,1.35262 -0.12,6.0774 c -0.07,3.34257 0.06,6.0774 0.279,6.0774 0.22,0 1.439,-0.552 2.709,-1.22668 z m -21.005,12.88172 c 0,-0.87713 2.229,-2.20512 2.95,-1.76016 0.628,0.38838 -1.152,2.56891 -2.112,2.58614 -0.488,0.009 -0.84,-0.33823 -0.838,-0.82598 z m -5.011,-13.65771 c -0.848,-2.70953 -0.714,-8.57097 0.196,-8.57097 1.08,0 1.661,8.64624 0.605,9.00661 -0.33,0.11281 -0.691,-0.0832 -0.801,-0.43564 z m -65.336,-9.36199 c -0.182,-0.18174 -0.331,-1.82338 -0.331,-3.6481 0,-3.16563 0.05,-3.31062 1.082,-3.16408 0.863,0.12247 1.111,0.50901 1.228,1.908 0.258,3.09049 -0.907,5.97627 -1.979,4.90418 z m -14.914,-4.81622 c -0.177,-0.17623 -0.324,-1.09541 -0.328,-2.04264 0,-0.94722 -0.201,-2.02702 -0.437,-2.39956 -0.6,-0.9479 -0.103,-1.96607 0.959,-1.96607 1.171,0 1.889,1.41249 1.889,3.71724 0,2.2323 -1.109,3.66494 -2.083,2.69103 z m -5.44,-2.56009 c -1.328,-0.53559 -1.651,-1.08443 -1.133,-1.9232 0.355,-0.57426 0.754,-0.56752 2.731,0.0461 2.859,0.88757 3.518,2.37143 1.032,2.32403 -0.879,-0.0168 -2.062,-0.21788 -2.63,-0.44694 z m 21.648,-5.50733 c -0.408,-1.0635 0.216,-1.7059 1.649,-1.69863 2.237,0.0113 3.457,0.53749 3.457,1.49136 0,0.76656 -0.37,0.90518 -2.419,0.90518 -1.671,0 -2.502,-0.21573 -2.687,-0.69791 z m 38.761,-0.54369 c 0,-0.41854 0.257,-0.67537 0.571,-0.57074 0.891,0.29706 1.039,1.33172 0.19,1.33172 -0.419,0 -0.761,-0.34244 -0.761,-0.76098 z m -45.915,-5.76768 c -1.586,-0.34991 -3.533,-0.73452 -4.327,-0.85469 -0.793,-0.12018 -1.55,-0.25964 -1.682,-0.3099 -0.133,-0.0503 -0.782,-0.12415 -1.443,-0.16419 -0.836,-0.0506 -1.247,-0.38859 -1.35,-1.11014 -0.139,-0.97529 0.03,-1.0328 2.885,-0.96124 2.447,0.0614 3.589,-0.18954 5.917,-1.30068 1.587,-0.75723 3.574,-1.89269 4.415,-2.52325 0.842,-0.63056 1.774,-1.14647 2.072,-1.14647 0.298,0 0.42,-0.19602 0.272,-0.4356 -0.148,-0.23957 -1.351,-0.58429 -2.673,-0.76603 -1.897,-0.26085 -2.403,-0.51739 -2.403,-1.21821 0,-0.48828 0.18,-0.99878 0.399,-1.13445 0.506,-0.31216 5.229,0.91649 6.008,1.56263 0.407,0.33726 1.286,0.1284 2.897,-0.68835 1.273,-0.64488 2.513,-1.04991 2.755,-0.90006 0.804,0.49683 0.457,1.58778 -0.613,1.92741 -0.58,0.18404 -2.093,1.06373 -3.361,1.95487 -1.268,0.89115 -2.498,1.62027 -2.733,1.62027 -0.234,0 -0.664,0.28655 -0.955,0.63678 -0.291,0.35022 -1.721,1.2399 -3.179,1.97706 -1.457,0.73716 -2.55,1.50109 -2.429,1.69763 0.122,0.19654 1.44,0.48311 2.93,0.63684 3.038,0.31343 3.328,0.4641 2.923,1.51933 -0.342,0.88964 -2.229,0.8838 -6.325,-0.0196 z m -29.406,-2.87574 c -0.409,-1.0649 0.308,-1.6079 2.758,-2.08826 1.587,-0.31132 1.784,-0.43092 0.773,-0.47018 -1.117,-0.0434 -1.329,-0.24184 -1.202,-1.12956 0.265,-1.8586 4.493,-3.19145 5.839,-1.84095 0.433,0.43435 0.284,0.78251 -0.637,1.49127 l -1.202,0.92462 1.442,-0.42461 c 2.955,-0.86978 6.335,-2.15588 9.143,-3.47841 1.591,-0.74935 3.046,-1.36246 3.233,-1.36246 0.188,0 1.758,-0.64884 3.49,-1.44187 1.732,-0.79302 3.343,-1.44186 3.58,-1.44186 0.989,0 8.865,-2.90082 9.583,-3.52922 1.702,-1.4904 4.866,-1.53263 4.866,-0.0649 0,0.83103 -5.646,3.53132 -11.058,5.28824 -4.221,1.37035 -8.316,2.95057 -11.944,4.60803 -3.367,1.53884 -6.945,2.80004 -12.208,4.30404 -5.706,1.63023 -6.068,1.66704 -6.456,0.65611 z m 17.454,-2.46396 c -0.542,-0.54127 -0.33,-1.10838 0.414,-1.10838 0.396,0 0.721,0.20351 0.721,0.45225 0,0.60605 -0.751,1.04011 -1.135,0.65613 z m 81.514,-1.43133 c 0.123,-1.50279 0.355,-1.86873 1.264,-1.99752 1.018,-0.14423 1.1,-7.4e-4 0.962,1.68217 -0.124,1.5028 -0.356,1.86873 -1.265,1.99752 -1.018,0.14423 -1.1,7.5e-4 -0.961,-1.68217 z m -98.328,-6.24553 c -0.947,-0.94679 -0.107,-1.95021 2.656,-3.17079 2.272,-1.00412 3.066,-1.17301 3.358,-0.71426 0.631,0.99346 0.493,1.17975 -2.015,2.72238 -2.407,1.48064 -3.394,1.76759 -3.999,1.16267 z m 52.111,-6.3578 c -0.75,-1.40063 0.497,-2.21944 2.38,-1.56313 0.807,0.28098 1.737,0.40707 2.068,0.28023 0.845,-0.32446 2.474,0.97155 2.061,1.64014 -0.196,0.31653 -1.558,0.55353 -3.182,0.55353 -2.295,0 -2.933,-0.17465 -3.327,-0.91077 z m 15.91,-1.49233 c 0.04,-1.73992 0.244,-2.4031 0.743,-2.4031 0.388,0 0.628,0.36715 0.55,0.84109 -0.08,0.46259 0.03,1.10696 0.233,1.43192 0.414,0.66013 -0.417,2.53319 -1.125,2.53319 -0.25,0 -0.431,-1.08139 -0.401,-2.4031 z m 38.872,0.24031 c 0,-0.39651 0.324,-0.72093 0.721,-0.72093 0.397,0 0.721,0.32442 0.721,0.72093 0,0.39651 -0.324,0.72093 -0.721,0.72093 -0.397,0 -0.721,-0.32442 -0.721,-0.72093 z m -30.77,-2.72705 c -1.983,-0.24873 -5.55,-0.49609 -7.927,-0.54971 -3.581,-0.0808 -4.348,-0.23308 -4.474,-0.8888 -0.193,-0.99983 0.596,-1.49255 2.487,-1.55382 l 1.484,-0.0481 0.846,-6.48837 c 0.465,-3.56861 0.901,-6.90023 0.969,-7.40361 0.171,-1.25827 -1.489,-1.64904 -8.652,-2.03667 -6.063,-0.32813 -7.376,-0.78661 -6.24,-2.17873 0.501,-0.61324 1.304,-0.65875 5.161,-0.29257 2.512,0.2385 6.298,0.74214 8.413,1.11921 2.116,0.37707 6.492,0.82534 9.727,0.99617 4.778,0.25238 5.923,0.18611 6.109,-0.35358 0.126,-0.3653 0.293,-3.31424 0.37,-6.55321 l 0.141,-5.88904 -1.443,-0.21457 c -0.793,-0.11802 -4.201,-0.47148 -7.572,-0.78546 -4.426,-0.4122 -6.13,-0.74504 -6.13,-1.19748 0,-0.34463 0.23,-0.76851 0.511,-0.94196 0.28,-0.17345 0.708,-0.83505 0.949,-1.47023 0.563,-1.48116 1.425,-1.49243 1.425,-0.0186 0,1.38332 1.139,1.59903 11.72,2.21956 3.934,0.23071 7.366,0.63259 7.626,0.89307 0.886,0.88516 -0.165,1.51859 -2.519,1.51859 -1.291,0 -2.47,0.19807 -2.619,0.44016 -0.15,0.24209 -0.3,3.17112 -0.333,6.50894 -0.05,5.41874 0.04,6.14295 0.845,6.76124 0.875,0.6691 0.869,0.70274 -0.177,0.99673 -0.996,0.28033 -1.081,0.5834 -1.081,3.85286 0,2.8339 -0.146,3.5486 -0.722,3.5486 -0.571,0 -0.721,-0.68925 -0.721,-3.31949 v -3.31949 l -4.687,-0.30347 c -2.579,-0.16691 -5.363,-0.4079 -6.188,-0.53553 -1.294,-0.20026 -1.569,-0.0496 -2.004,1.0997 -0.6,1.58395 -0.911,3.74685 -1.339,9.31139 -0.381,4.95364 -0.937,4.60428 8.064,5.06335 l 6.105,0.3114 0.145,-3.07254 c 0.08,-1.68989 0.361,-3.07253 0.625,-3.07253 0.576,0 0.933,6.96297 0.384,7.46842 -0.695,0.63809 -5.608,0.83839 -9.278,0.37817 z m -26.542,-3.16055 c -0.349,-0.42023 -0.324,-0.81189 0.08,-1.3033 0.463,-0.55843 1.388,-0.64269 4.506,-0.41084 4.65,0.34573 6.172,0.81123 5.802,1.77415 -0.351,0.9161 -9.625,0.86256 -10.392,-0.06 z m 8.231,-6.4483 c 0,-1.40983 0,-3.48801 -0.02,-4.61817 -0.03,-2.12691 1.196,-4.68203 2.009,-4.18017 0.518,0.32024 0.556,5.60264 0.06,8.87212 -0.231,1.53663 -0.574,2.20436 -1.191,2.32302 -0.748,0.14377 -0.866,-0.18375 -0.858,-2.3968 z m 33.93,-0.761 c 0.478,-4.48447 1.643,-6.38089 2.419,-3.93721 0.345,1.08585 -0.574,5.62512 -1.333,6.58062 -1.086,1.36973 -1.426,0.54357 -1.086,-2.64341 z m 32.324,0.0656 c -0.19,-0.19029 -0.346,-0.82214 -0.346,-1.4041 0,-0.88433 0.48,-1.1926 2.919,-1.87694 4.321,-1.2118 4.568,-1.60161 4.916,-7.74324 0.163,-2.87353 0.226,-5.29423 0.141,-5.37935 -0.08,-0.0851 -1.07,0.60931 -2.188,1.54317 -2.082,1.73894 -4.05,2.20068 -4.49,1.05357 -0.357,-0.92989 0.102,-1.38873 2.694,-2.69499 3.445,-1.73581 4.662,-3.04657 4.662,-5.02019 0,-0.92221 0.241,-1.82536 0.535,-2.007 0.741,-0.45789 1.459,0.79222 1.123,1.95569 -0.675,2.33982 -1.203,14.19336 -0.676,15.17779 0.423,0.78981 0.376,1.18124 -0.222,1.8419 -0.418,0.46142 -0.76,1.40392 -0.76,2.09444 0,1.46326 -0.837,2.19706 -1.257,1.10238 -0.387,-1.00891 -1.445,-0.94668 -3.025,0.17789 -1.526,1.086 -3.531,1.67336 -4.026,1.17898 z m -21.015,-4.94869 c -2.796,-0.22016 -3.634,-0.45823 -3.75,-1.06421 -0.207,-1.09119 0.498,-1.21046 5.428,-0.91797 3.921,0.23262 4.327,0.34693 4.327,1.21796 0,1.11294 -0.602,1.18965 -6.005,0.76422 z m -5.467,-10.99017 c -0.381,-0.61565 0.618,-9.05422 1.407,-11.88258 0.368,-1.32171 1.485,-4.89031 2.483,-7.93023 1.587,-4.83875 1.956,-5.54736 2.962,-5.68951 0.932,-0.13174 1.093,0.004 0.854,0.72093 -0.162,0.48582 -1.243,3.61211 -2.401,6.94731 -2.178,6.26763 -2.608,8.23782 -3.137,14.35778 -0.243,2.81233 -0.486,3.6332 -1.108,3.75142 -0.438,0.0832 -0.915,-0.0406 -1.06,-0.27512 z m 10.9,-1.1043 c 0.414,-1.58394 -1.226,-2.84805 -3.696,-2.84805 -2.263,0 -3.397,-0.7992 -2.711,-1.90984 0.348,-0.56329 0.922,-0.58245 3.437,-0.11489 2.314,0.43021 3.1,0.42885 3.369,-0.006 0.193,-0.31184 0.239,-0.74616 0.104,-0.96517 -0.135,-0.21901 0.09,-1.95957 0.495,-3.86791 0.408,-1.90834 0.912,-4.44297 1.12,-5.6325 0.304,-1.7359 0.592,-2.19311 1.46,-2.31638 0.743,-0.10554 1.081,0.0923 1.081,0.63249 0,1.0457 -1.88,9.32544 -2.427,10.68982 -0.633,1.57596 -0.07,2.52895 1.488,2.52895 2.731,0 2.142,2.22398 -0.659,2.49547 -1.162,0.11254 -1.564,0.40674 -1.681,1.22934 -0.08,0.59476 -0.488,1.08139 -0.897,1.08139 -0.516,0 -0.664,-0.30536 -0.483,-0.99691 z m -51.397,-7.72716 c -0.188,-0.30445 0.06,-0.84616 0.548,-1.20381 1.313,-0.95986 4.096,0.06 3.369,1.23484 -0.43,0.69528 -3.483,0.67109 -3.917,-0.031 z m 6.055,-0.19577 c 0,-0.41211 0.216,-0.61562 0.481,-0.45225 0.264,0.16337 0.481,0.50055 0.481,0.74929 0,0.24874 -0.217,0.45226 -0.481,0.45226 -0.265,0 -0.481,-0.33718 -0.481,-0.7493 z m 69.76,-0.80792 c -0.258,-0.67822 -0.681,-1.36452 -0.941,-1.52511 -0.733,-0.45255 0.987,-4.16484 1.855,-4.00465 0.569,0.10485 0.687,0.7434 0.559,3.00926 -0.188,3.30867 -0.784,4.32993 -1.473,2.5205 z m -14.468,-3.48647 c -0.887,-1.06812 0.05,-1.89731 1.677,-1.48845 0.855,0.2146 1.218,0.58707 1.112,1.14233 -0.208,1.08999 -1.988,1.31093 -2.789,0.34612 z m -32.434,-0.20959 c -0.17,-0.2738 -0.165,-1.26086 0.01,-2.19347 0.595,-3.1676 2.261,-2.7442 1.725,0.43828 -0.315,1.86965 -1.145,2.70956 -1.735,1.75519 z m -23.124,-0.55604 c -0.496,-0.8014 0.619,-1.72038 1.282,-1.05736 0.555,0.55459 0.207,1.57986 -0.535,1.57986 -0.233,0 -0.57,-0.23513 -0.747,-0.5225 z m 8.295,-0.31859 c -0.267,-0.48092 -0.02,-3.48327 0.318,-3.8188 0.554,-0.55362 1.844,0.35563 1.559,1.0986 -0.16,0.4159 -0.29,1.27919 -0.29,1.91843 0,1.08981 -1.113,1.65232 -1.587,0.80177 z m -8.327,-3.22117 c -0.343,-0.89203 0.157,-1.70518 1.047,-1.70518 0.419,0 0.693,0.47579 0.693,1.20155 0,1.3206 -1.284,1.69221 -1.74,0.50363 z m 23.592,-1.17924 c -0.252,-0.23942 -2.729,-0.56918 -5.505,-0.7328 -7.364,-0.43397 -10.097,-1.05607 -10.097,-2.29879 0,-1.11002 -0.395,-1.12067 10.578,0.28496 5.104,0.65389 6.25,0.47644 6.25,-0.96801 0,-1.09687 3.338,-7.69172 4.362,-8.61823 0.736,-0.66633 1.078,-0.72994 1.524,-0.28389 0.446,0.44605 0.386,0.86887 -0.271,1.88709 -1.044,1.62139 -3.905,7.49331 -4.679,9.60295 -0.573,1.56294 -1.304,1.94428 -2.162,1.12672 z m -27.861,-4.43907 c -1.587,-0.23737 -3.349,-0.32067 -3.917,-0.18512 -0.68,0.16255 -1.136,-0.0252 -1.338,-0.55143 -0.655,-1.70779 1.299,-2.05729 6.769,-1.21079 3.637,0.56279 4.268,0.89071 3.498,1.81798 -0.62,0.74736 -0.843,0.75312 -5.012,0.12936 z m 14.533,-1.21166 c -0.439,-0.74022 0.564,-6.21983 1.577,-8.61158 1.075,-2.53963 2.069,-3.56596 3.453,-3.56596 1.301,0 1.06,0.87472 -0.813,2.94701 -0.926,1.02408 -1.683,2.36351 -1.683,2.97651 0,1.22496 -1.356,5.61477 -1.933,6.25402 -0.199,0.22128 -0.47,0.22128 -0.601,0 z m -8.759,-1.59606 c -0.355,-0.57356 0.09,-1.4497 0.744,-1.4497 0.585,0 0.589,1.30086 0,1.66165 -0.246,0.15208 -0.583,0.0567 -0.749,-0.21195 z m 0.04,-2.81567 c -1.016,-1.64293 2.406,-9.40745 4.01,-9.09869 1.099,0.21154 1.194,1.68428 0.131,2.02165 -0.864,0.27415 -1.358,1.4309 -2.358,5.52164 -0.405,1.65455 -1.26,2.40106 -1.783,1.5554 z m 41.842,-1.29204 c -0.212,-0.55001 -0.06,-0.73098 0.507,-0.62109 0.794,0.15292 0.858,0.62764 0.152,1.13663 -0.199,0.14334 -0.496,-0.0887 -0.659,-0.51554 z m -122.991,124.12924 c 0.11,-0.57039 -0.146,-0.83557 -0.807,-0.83557 -1.103,0 -1.713,0.71783 -1.249,1.46848 0.468,0.75687 1.872,0.32474 2.056,-0.63291 z m 11.609,-2.17464 c 0.79,-2.84265 0.632,-5.90881 -0.34,-6.61977 -0.728,-0.53197 -0.851,-1.54686 -0.909,-7.50259 -0.04,-3.78807 -0.312,-9.26647 -0.61,-12.17423 -0.843,-8.21403 -1.452,-20.60513 -1.039,-21.14292 0.448,-0.58381 1.766,-4.51825 2.45,-7.31353 0.272,-1.11229 0.705,-2.15238 0.962,-2.31131 0.257,-0.15893 0.469,-0.65469 0.471,-1.10169 0,-0.44699 0.326,-1.43221 0.721,-2.18936 0.395,-0.75715 0.718,-1.77573 0.718,-2.2635 0,-2.1472 8.286,-7.55031 14.424,-9.40584 2.247,-0.67946 5.276,-1.66529 6.731,-2.19073 2.985,-1.07842 6.891,-2.16633 10.096,-2.81147 3.4,-0.6845 6.404,-1.46707 7.452,-1.94115 0.922,-0.41713 8.925,-3.32074 9.153,-3.32074 0.06,0 0.224,-0.59477 0.364,-1.32171 0.412,-2.14698 -0.296,-2.5301 -3.165,-1.71333 -1.378,0.3922 -3.555,0.90153 -4.838,1.13185 -3.147,0.56504 -10.609,2.71694 -13.382,3.85909 -1.239,0.5103 -2.888,0.92782 -3.663,0.92782 -2.033,0 -9.54,1.32576 -12.354,2.18172 -7.033,2.13871 -18.071,5.73242 -20.042,6.52482 -1.239,0.49822 -2.657,0.90586 -3.151,0.90586 -0.494,0 -1.927,0.65188 -3.183,1.44862 -3.639,2.30674 -3.835,3.12577 -3.921,16.33433 -0.08,12.26118 -0.967,19.88658 -3.553,30.51938 -1.689,6.94816 -2.438,12.76071 -2.071,16.07799 l 0.343,3.10125 4.087,0.60319 c 2.247,0.33176 4.703,0.61236 5.456,0.62356 0.753,0.0112 2.052,0.33719 2.885,0.72441 0.833,0.38723 2.488,0.9418 3.678,1.23237 1.19,0.29058 2.813,0.69608 3.606,0.90112 1.858,0.4801 2.03,0.36338 2.624,-1.77351 z m -13.158,-9.16559 c -0.14,-0.2264 -0.147,-6.61599 -0.02,-14.19909 0.146,-8.39312 0.05,-14.48448 -0.237,-15.56898 -0.499,-1.86602 -1.25,-13.57188 -1.127,-17.55493 0.04,-1.27381 0.356,-2.65842 0.704,-3.07691 0.347,-0.41849 0.848,-1.43092 1.113,-2.24986 0.407,-1.25903 0.753,-1.51159 2.238,-1.63537 1.412,-0.11768 2.103,0.15776 3.523,1.40449 1.758,1.54316 1.765,1.56499 1.438,4.38335 -0.181,1.55786 -0.39,3.52119 -0.464,4.36295 -0.402,4.52593 -0.76,8.34263 -0.843,8.9801 -0.05,0.39651 0.184,1.96142 0.525,3.47758 0.341,1.51616 0.485,2.97604 0.319,3.24418 -0.528,0.85436 -1.206,0.52479 -1.221,-0.59385 -0.01,-0.88312 -0.09,-0.94365 -0.454,-0.33011 -0.242,0.41322 -0.481,2.68415 -0.531,5.04652 -0.05,2.36237 -0.374,5.59289 -0.72,7.17893 -0.347,1.58605 -0.78,5.58721 -0.964,8.89148 -0.266,4.78874 -0.522,6.27593 -1.261,7.32945 -0.952,1.35547 -1.574,1.63532 -2.022,0.91007 z m 5.005,-38.03797 c 0,-0.53403 -0.32,-0.96124 -0.721,-0.96124 -0.401,0 -0.721,0.42721 -0.721,0.96124 0,0.53402 0.32,0.96124 0.721,0.96124 0.401,0 0.721,-0.42722 0.721,-0.96124 z m -0.08,-13.03739 c -1.542,-0.97746 -1.935,0.44079 -0.519,1.87193 0.804,0.81218 0.849,0.79845 1,-0.30832 0.09,-0.63709 -0.129,-1.34072 -0.481,-1.56361 z m 8.937,28.05677 c -0.491,-2.73107 -1.284,-3.68714 -0.935,-1.12724 0.159,1.16432 0.402,2.29979 0.54,2.52326 0.545,0.8814 0.703,0.32099 0.395,-1.39602 z m 34.998,-31.12651 c 1.927,-0.92868 3.846,-1.95601 4.264,-2.28294 0.909,-0.71041 1.564,-3.56244 0.911,-3.96576 -0.253,-0.15651 -1.784,0.49069 -3.401,1.43824 -1.617,0.94754 -3.674,2.02943 -4.572,2.4042 -1.42,0.59327 -1.631,0.90211 -1.631,2.38809 0,0.93868 0.208,1.70669 0.462,1.70669 0.255,0 2.04,-0.75983 3.967,-1.68852 z m 3.103,62.88749 c -0.176,-0.17623 -0.32,-2.08619 -0.32,-4.24437 0,-4.4775 -0.03,-4.50753 -4.808,-5.69869 -1.63,-0.40589 -2.701,-0.94485 -2.792,-1.40457 -0.252,-1.27393 1.692,-1.43123 4.724,-0.38224 3.566,1.23339 3.427,1.24483 2.864,-0.23682 -0.62,-1.6292 -0.592,-2.26056 0.145,-3.26735 0.399,-0.54568 0.917,-0.72253 1.481,-0.50592 0.753,0.2886 0.826,0.70001 0.549,3.08321 l -0.319,2.75018 2.203,0.55452 c 3.001,0.75552 3.026,1.98254 0.04,1.98254 -2.363,0 -2.344,-0.0297 -2.183,3.45435 0.151,3.27677 -0.532,4.96588 -1.583,3.91516 z m 16.988,-2.52283 c -2.772,-1.04276 -3.642,-1.59377 -3.76,-2.3808 -0.199,-1.33096 0.584,-1.30919 3.82,0.10613 1.421,0.62157 3.193,1.27814 3.938,1.45903 0.929,0.22557 1.305,0.58597 1.197,1.14728 -0.237,1.2253 -1.225,1.16218 -5.195,-0.33164 z"
       id="path1" /></g></svg>
