<?xml version="1.0" encoding="UTF-8" standalone="no"?>
<!-- Created with Inkscape (http://www.inkscape.org/) -->

<svg
   width="231.38646"
   height="235.24007"
   viewBox="0 0 61.221 62.240601"
   version="1.1"
   id="svg1"
   xml:space="preserve"
   xmlns="http://www.w3.org/2000/svg"
   xmlns:svg="http://www.w3.org/2000/svg"><defs
     id="defs1" /><g
     id="g1365"
     transform="matrix(0.26458333,0,0,0.26458333,-3517.1998,-139.90636)"><path
       style="fill:#000000"
       d="m 13412.185,747.63771 c -2.775,-2.9157 -3.042,-4.89857 -2.353,-17.45637 0.203,-3.69694 0.48,-9.09832 0.616,-12.00306 0.136,-2.90474 0.392,-7.49591 0.569,-10.2026 0.308,-4.70602 0.28,-4.92125 -0.637,-4.92125 -0.527,0 -1.755,-0.54014 -2.728,-1.20031 -0.973,-0.66017 -2.137,-1.20042 -2.588,-1.20057 -0.45,-1.5e-4 -2.223,-0.86425 -3.939,-1.92022 -1.717,-1.05598 -3.353,-1.92007 -3.636,-1.92022 -0.284,-1.5e-4 -1.819,-0.63177 -3.413,-1.40361 -1.593,-0.77183 -3.738,-1.63052 -4.766,-1.90819 -1.028,-0.27767 -2.138,-0.93646 -2.465,-1.46398 -0.381,-0.61333 -0.882,-0.84929 -1.39,-0.65447 -0.461,0.17693 -1.022,-0.007 -1.337,-0.43753 -0.298,-0.40819 -0.964,-0.82331 -1.479,-0.92247 -0.515,-0.0992 -1.181,-0.67244 -1.481,-1.27393 -0.602,-1.20731 -4.047,-3.1842 -4.561,-2.61696 -0.626,0.69236 -1.366,3.76833 -2.107,8.76038 -0.411,2.77271 -0.974,5.9055 -1.251,6.96177 -0.277,1.05627 -0.715,2.78471 -0.974,3.84098 -0.625,2.54879 -2.422,6.03133 -3.446,6.67665 -0.6,0.37856 -1.078,0.35742 -1.776,-0.0785 -0.526,-0.32816 -1.355,-0.59665 -1.842,-0.59665 -0.701,0 -0.991,-0.57578 -1.384,-2.74398 -0.435,-2.3964 -0.365,-3.11102 0.546,-5.64144 0.575,-1.5936 1.32,-4.51787 1.657,-6.49837 0.337,-1.98051 0.922,-5.1133 1.299,-6.96178 0.377,-1.84847 0.889,-4.76521 1.136,-6.48165 0.248,-1.71643 0.773,-4.63318 1.168,-6.48165 0.394,-1.84847 0.846,-4.98127 1.004,-6.96177 0.158,-1.98051 0.505,-5.13954 0.771,-7.02008 0.267,-1.88054 0.562,-5.01334 0.657,-6.96177 0.09,-1.94844 0.423,-7.10752 0.729,-11.46463 0.667,-9.49053 0.177,-26.34737 -0.963,-33.12844 -0.722,-4.28888 -1.14,-9.97075 -1.141,-15.5113 0,-5.17141 0,-5.18774 -1.104,-4.91202 -0.606,0.15215 -2.035,0.40448 -3.175,0.56073 -3.22,0.44145 -3.517,-0.12346 -3.926,-7.46896 -0.245,-4.39982 -0.545,-6.41073 -1.015,-6.80089 -0.367,-0.30467 -0.658,-0.79756 -0.646,-1.09531 0.03,-0.68108 5.106,-4.46296 8.706,-6.48383 2.881,-1.61699 2.897,-1.64554 3.56,-6.47377 0.331,-2.40781 -0.193,-3.37682 -1.545,-2.85781 -0.451,0.1728 -0.547,0.84024 -0.339,2.35619 0.196,1.42886 0.113,2.1151 -0.255,2.1151 -0.3,0 -0.552,-0.59415 -0.561,-1.32034 -0.01,-1.26467 -0.05,-1.28104 -0.72,-0.38835 -0.858,1.13379 -0.919,2.23251 -0.116,2.06878 0.324,-0.066 0.664,0.37942 0.757,0.98985 0.13,0.85483 -0.03,1.0755 -0.709,0.96025 -0.647,-0.11031 -0.917,0.19734 -1.029,1.1707 -0.183,1.58981 -1.321,1.75189 -1.685,0.24006 -0.351,-1.45854 1.697,-7.33562 3.064,-8.7906 1.227,-1.30563 2.703,-1.49903 4.031,-0.52796 0.814,0.59475 0.835,0.89105 0.271,3.87602 -0.352,1.86745 -0.431,3.41092 -0.186,3.6557 0.245,0.24478 1.538,-0.0504 3.062,-0.69902 10.724,-4.5635 21.915,-7.97274 35.438,-10.79577 2.458,-0.51334 4.781,-1.19131 5.161,-1.50659 0.38,-0.31565 0.691,-1.39758 0.691,-2.40772 0,-1.35142 0.281,-2.03128 1.067,-2.58188 2.72,-1.90491 6.557,0.0805 5.903,3.05467 -0.341,1.55496 -0.285,1.60909 2.241,2.16049 0.708,0.15472 1.762,0.94691 2.342,1.76042 1.008,1.4168 1.027,1.63417 0.444,5.16017 -0.838,5.06261 -2.743,11.00166 -3.701,11.53792 -0.847,0.47401 -1.979,6.45309 -2.028,10.71809 -0.01,1.23793 -0.336,3.61454 -0.715,5.28134 -0.379,1.66681 -0.813,5.62322 -0.964,8.79203 -0.486,10.1555 -0.765,14.22656 -1.553,22.64134 -0.425,4.53072 -0.64,8.58176 -0.479,9.0023 0.162,0.42054 0.771,0.76461 1.355,0.76461 1.149,0 5.79,1.38897 10.012,2.99639 3.917,1.49151 13.295,7.77498 16.4,10.9885 4.912,5.08327 4.958,5.27546 5.01,20.58392 0.05,14.66593 0.225,18.0222 1.931,36.72936 2.39,26.22219 2.298,24.72782 1.631,26.59508 -0.713,1.99156 -1.228,2.43471 -2.843,2.44497 -1.51,0.01 -4.981,-2.03811 -5.942,-3.50508 -0.478,-0.72958 -0.877,-2.89074 -1.089,-5.90117 -0.183,-2.61251 -0.4,-5.29015 -0.481,-5.95032 -0.08,-0.66016 -0.161,-2.5426 -0.18,-4.18318 l -0.03,-2.98287 -2.76,-1.87767 c -1.519,-1.03271 -4.274,-3.26665 -6.122,-4.9643 -1.849,-1.69765 -4.118,-3.60461 -5.042,-4.23769 -0.924,-0.63308 -1.836,-1.40181 -2.027,-1.70828 -0.465,-0.74746 -7.952,-6.45273 -8.468,-6.45273 -0.511,0 -1.074,8.70936 -1.273,19.68501 -0.08,4.62118 -0.381,11.10283 -0.66,14.40367 -0.278,3.30084 -0.513,8.67731 -0.521,11.9477 -0.03,10.45105 -1.136,13.67587 -4.92,14.28991 -1.357,0.22016 -1.891,0.0539 -2.76,-0.85922 z m 3.971,-1.74994 c 1.839,-2.03127 2.199,-4.05073 2.288,-12.83602 0.05,-4.71353 0.285,-11.0686 0.527,-14.12237 0.242,-3.05378 0.541,-10.19751 0.663,-15.87495 0.122,-5.67745 0.335,-11.07882 0.472,-12.00306 0.138,-0.92424 0.342,-4.01611 0.454,-6.87083 0.112,-2.85472 0.337,-5.60942 0.5,-6.12156 0.162,-0.51214 0.119,-0.94916 -0.1,-0.97117 -1.324,-0.13497 -2.523,-0.31514 -4.076,-0.61229 -2.199,-0.42073 -2.532,0.068 -1.773,2.60065 0.48,1.60288 0.471,2.04119 -0.05,2.3619 -0.612,0.37869 -0.523,1.99931 0.216,3.90876 0.209,0.53775 -0.02,0.86176 -0.75,1.05191 -0.844,0.22087 -0.982,0.49237 -0.702,1.38344 0.723,2.29976 0.844,3.74931 0.313,3.74931 -0.738,0 -0.664,0.94081 0.206,2.60911 0.899,1.72362 0.582,3.09087 -0.506,2.1874 -0.607,-0.50356 -0.715,-0.36593 -0.715,0.91269 0,0.82812 0.27,1.96307 0.6,2.52213 0.481,0.81316 0.481,1.05992 0,1.2338 -0.909,0.32936 -0.723,3.63078 0.361,6.37891 0.528,1.33989 0.96,2.75224 0.96,3.13857 0,1.10311 -1.424,0.82079 -1.906,-0.37787 -0.8,-1.98996 -0.569,2.35671 0.28,5.27788 0.705,2.42435 0.706,2.70322 0.02,3.08884 -0.592,0.33137 -0.656,0.69158 -0.291,1.6503 0.496,1.30518 0.207,2.30367 -0.534,1.84551 -0.691,-0.42675 -0.519,3.10998 0.278,5.73824 0.394,1.29629 0.715,2.53861 0.715,2.76071 0,0.65283 -1.436,0.46202 -1.478,-0.19634 -0.03,-0.44301 -0.1,-0.45068 -0.27,-0.0293 -0.128,0.31398 0.129,1.12252 0.571,1.79675 0.889,1.35669 0.648,2.67366 -0.488,2.67366 -0.997,0 -0.908,0.95241 0.225,2.40061 1.273,1.62803 1.273,3.07464 0,2.74162 -0.794,-0.2076 -0.96,-0.0147 -0.96,1.11305 0,1.87769 0.802,3.81749 2.012,4.86722 1.274,1.10454 1.953,1.1098 2.936,0.0228 z m 39.757,-19.18732 c 0.318,-0.82605 0.376,-2.66839 0.155,-4.92125 -0.195,-1.98051 -0.405,-4.46514 -0.468,-5.52141 -0.06,-1.05627 -0.342,-3.86498 -0.622,-6.24159 -0.28,-2.3766 -0.737,-6.6977 -1.015,-9.60244 -0.279,-2.90474 -0.737,-7.11782 -1.019,-9.36239 -0.281,-2.24457 -0.615,-9.15051 -0.74,-15.34652 -0.126,-6.19601 -0.335,-11.37091 -0.464,-11.49977 -0.128,-0.12886 -1.219,0.75057 -2.423,1.95429 l -2.188,2.18858 1.005,1.9702 c 1.234,2.41914 1.235,2.48857 0.05,2.48857 -1.198,0 -1.197,0.22455 0.01,2.17809 0.769,1.24459 0.918,2.09662 0.719,4.09836 -0.138,1.3899 -0.351,2.62622 -0.472,2.74736 -0.121,0.12114 0.1,0.8303 0.481,1.57591 0.973,1.88078 0.933,3.51533 -0.08,3.128 -0.606,-0.23266 -0.712,-0.085 -0.48,0.66882 0.164,0.53206 0.431,1.39949 0.594,1.92762 0.212,0.68635 0.08,0.96025 -0.48,0.96025 -0.427,0 -0.773,0.054 -0.769,0.12003 0,0.066 0.297,1.09039 0.652,2.27639 0.48,1.60552 0.509,2.37551 0.113,3.01428 -0.418,0.6739 -0.302,1.27952 0.54,2.82342 1.12,2.05168 1.066,2.80869 -0.199,2.80869 -0.604,0 -0.637,0.13722 -0.169,0.70113 0.701,0.84461 2.418,7.29925 2.042,7.67544 -0.146,0.1461 -0.662,0.26563 -1.146,0.26563 -1.313,0 -1.069,1.33881 0.59,3.2274 1.338,1.5242 1.403,1.74677 0.729,2.49107 -0.666,0.73623 -0.665,0.92319 0,1.88432 0.411,0.58685 0.809,1.92501 0.883,2.9737 0.113,1.58734 -0.01,1.90669 -0.757,1.90669 -0.573,0 -0.893,-0.34423 -0.893,-0.96024 0,-0.52814 -0.216,-0.96025 -0.48,-0.96025 -0.602,0 -0.627,2.91078 -0.04,4.4579 0.527,1.38507 3.204,3.20465 4.732,3.21597 0.753,0.006 1.251,-0.40294 1.601,-1.31225 z m -6.294,-9.24235 c 0,-0.26407 -0.229,-0.48012 -0.508,-0.48012 -0.28,0 -0.375,0.21605 -0.212,0.48012 0.163,0.26407 0.392,0.48012 0.508,0.48012 0.117,0 0.212,-0.21605 0.212,-0.48012 z m 0,-3.09246 c 0,-0.11645 -0.216,-0.34526 -0.48,-0.50846 -0.264,-0.1632 -0.48,-0.0679 -0.48,0.21173 0,0.27965 0.216,0.50845 0.48,0.50845 0.264,0 0.48,-0.0953 0.48,-0.21172 z m -79.786,-6.1499 c 0.609,-2.0103 2.448,-9.89741 2.727,-11.6975 0.119,-0.76221 0.339,-2.35808 0.489,-3.54638 0.35,-2.75994 1.2,-5.71895 2.016,-7.01786 0.569,-0.90558 0.513,-1.0988 -0.516,-1.77312 -0.836,-0.54753 -1.251,-1.39032 -1.499,-3.04793 -0.306,-2.03931 -0.221,-2.3903 0.77,-3.19318 1.157,-0.93696 2.279,-4.27022 2.316,-6.88065 0.01,-0.82916 0.481,-3.63787 1.044,-6.2416 1.528,-7.06774 1.578,-7.7185 0.696,-9.06352 -0.52,-0.7942 -0.648,-1.48498 -0.378,-2.03703 0.225,-0.45943 0.281,-1.48349 0.123,-2.27569 -0.158,-0.7922 0,-2.52064 0.359,-3.84098 0.464,-1.7297 0.563,-4.07789 0.353,-8.40214 -0.161,-3.30084 -0.385,-9.56644 -0.497,-13.92355 -0.113,-4.35711 -0.323,-9.4344 -0.468,-11.28287 -0.145,-1.84847 -0.355,-7.06667 -0.468,-11.59601 -0.215,-8.66451 -0.666,-14.10413 -1.165,-14.07041 -0.164,0.0111 -1.004,0.39668 -1.867,0.85692 -1.455,0.77585 -1.517,0.9055 -0.856,1.78033 0.857,1.13285 0.953,2.47445 0.195,2.72694 -0.405,0.13504 -0.394,0.47197 0.04,1.28575 0.54,1.00979 0.505,1.07596 -0.412,0.78491 -1.239,-0.39339 -1.242,-0.20658 -0.03,2.1666 0.814,1.59613 0.853,1.90136 0.24,1.90136 -0.916,0 -0.934,0.45572 -0.05,1.14738 0.891,0.69254 1.211,2.97684 0.395,2.81363 -0.785,-0.15707 -0.736,0.7834 0.12,2.28058 0.378,0.66017 0.694,1.49683 0.704,1.85925 0.01,0.55467 -0.107,0.55616 -0.766,0.009 -0.707,-0.58654 -0.748,-0.48749 -0.42,1.02148 0.2,0.91906 0.523,1.77904 0.718,1.91107 0.195,0.13204 0.501,0.70862 0.68,1.28129 0.228,0.73232 0.106,1.08842 -0.413,1.20031 -0.659,0.14225 -0.661,0.30561 -0.01,1.54411 0.507,0.9714 0.575,1.56354 0.227,1.98274 -0.351,0.42234 -0.247,1.03993 0.355,2.105 0.674,1.19396 0.723,1.58823 0.234,1.89662 -0.339,0.21414 -0.502,0.69614 -0.363,1.07113 0.381,1.02868 0.786,5.86534 0.945,11.30324 0.08,2.67299 0.284,5.08868 0.457,5.3682 0.172,0.27953 0.09,0.64394 -0.174,0.8098 -0.269,0.16587 -0.488,0.81096 -0.488,1.43353 0,0.62258 -0.27,1.24094 -0.6,1.37413 -0.359,0.14467 -0.262,0.25743 0.24,0.28007 0.876,0.0395 0.879,0.0549 1.116,5.47503 0.103,2.35562 0,2.75154 -0.62,2.51152 -0.64,-0.24571 -0.697,0.11292 -0.415,2.60492 0.229,2.03107 0.164,2.88986 -0.22,2.88986 -0.518,0 -0.344,2.55591 0.337,4.95495 0.168,0.59272 -0.06,0.95372 -0.701,1.12197 -1.184,0.30969 -1.723,3.13015 -1.046,5.47832 0.377,1.31059 0.326,1.75729 -0.249,2.18118 -0.806,0.59407 -0.993,2.58774 -0.243,2.58774 0.264,0 0.48,0.32408 0.48,0.72018 0,0.3961 -0.353,0.72019 -0.785,0.72019 -0.652,0 -0.737,0.35884 -0.496,2.11509 0.23,1.67499 0.131,2.17628 -0.476,2.40912 -0.577,0.22146 -0.7,0.7045 -0.496,1.95715 0.148,0.91472 0.07,1.78786 -0.179,1.94032 -0.247,0.15245 -0.449,0.86939 -0.449,1.5932 0,0.7238 -0.236,1.55207 -0.524,1.8406 -0.38,0.37939 -0.363,0.82738 0.06,1.61842 0.483,0.90374 0.455,1.18883 -0.163,1.64065 -0.513,0.37536 -0.721,1.23155 -0.663,2.73049 0.05,1.20101 -0.228,2.76639 -0.609,3.47862 -0.535,1.00042 -0.575,1.60723 -0.175,2.66785 0.453,1.20049 0.399,1.40404 -0.43,1.62092 -0.783,0.20465 -0.892,0.50569 -0.625,1.72147 0.223,1.0138 0.142,1.47344 -0.26,1.47344 -0.414,0 -0.498,0.61983 -0.29,2.14092 0.233,1.70028 0.158,2.08882 -0.366,1.88776 -0.962,-0.36924 -1.314,0.50937 -0.772,1.93255 0.381,1.00291 0.788,1.2406 2.126,1.2406 1.451,0 1.714,-0.1931 2.128,-1.5604 z m 79.428,-2.16055 c -0.123,-0.33008 -0.405,-0.60015 -0.625,-0.60015 -0.782,0 -0.973,0.95589 -0.404,2.01989 0.559,1.0438 0.589,1.04809 0.916,0.12995 0.186,-0.52224 0.237,-1.2196 0.113,-1.54969 z m -2.675,-5.21435 c 0.09,-3.30996 0.08,-3.34167 -1.522,-4.28148 -0.885,-0.52076 -3.405,-2.32946 -5.599,-4.01935 -2.194,-1.68989 -4.858,-3.53594 -5.92,-4.10234 -1.062,-0.56641 -3.297,-1.93847 -4.966,-3.04904 -1.669,-1.11057 -3.165,-2.01922 -3.323,-2.01922 -0.159,0 -0.67,-0.34524 -1.136,-0.76721 -0.467,-0.42197 -1.078,-0.62528 -1.359,-0.45179 -1.063,0.6572 -0.238,4.57986 0.964,4.57986 0.314,0 0.309,-0.32082 -0.02,-0.92868 -0.273,-0.51078 -0.497,-1.15894 -0.497,-1.44037 0,-0.82809 0.963,-0.58547 1.304,0.32853 0.172,0.46212 0.706,1.12253 1.185,1.46759 0.48,0.34506 0.872,1.00958 0.872,1.47671 0,0.46713 0.552,1.36745 1.226,2.00071 1.029,0.96666 1.296,1.03824 1.661,0.44612 0.369,-0.59679 0.548,-0.55794 1.16,0.25265 0.398,0.52684 0.731,1.11994 0.739,1.31799 0,0.19805 0.27,0.3601 0.581,0.3601 0.311,0 1.166,0.70217 1.901,1.56039 1.011,1.18132 1.341,1.35628 1.355,0.72019 0.01,-0.46212 0.243,-0.84022 0.515,-0.84022 0.519,0 0.679,0.34907 1.154,2.52064 0.161,0.73505 0.614,1.32034 1.02,1.32034 1.173,0 3.573,2.01905 3.573,3.00532 0,0.49734 0.27,1.16349 0.6,1.48034 1.527,1.46541 3.451,2.72615 3.922,2.56947 0.294,-0.0976 0.557,-1.62099 0.607,-3.50725 z m -35.504,0.17307 c 0.638,-0.8105 0.702,-4.20107 0.08,-4.20107 -0.866,0 -5.775,-2.39695 -7.335,-3.58199 -0.826,-0.62738 -3.14,-1.78998 -5.143,-2.58355 -2.003,-0.79358 -4.379,-1.86216 -5.282,-2.37464 -4.067,-2.30996 -5.531,-3.18673 -6.202,-3.71363 -0.396,-0.31125 -2.81,-1.67393 -5.365,-3.02817 -3.135,-1.66201 -4.715,-2.2705 -4.861,-1.87225 -0.171,0.46419 -0.352,0.46203 -0.853,-0.0101 -1.092,-1.03033 -1.884,-0.68897 -1.884,0.81187 0,1.57687 0.77,2.33101 1.566,1.53432 0.618,-0.61711 1.795,0.14798 1.795,1.16626 0,0.93474 1.939,2.12898 3.456,2.12898 0.881,0 1.586,0.40085 2.109,1.20031 0.433,0.66017 1.166,1.2003 1.63,1.2003 0.464,0 1.353,0.74432 1.977,1.65405 1.497,2.1857 3.206,2.99435 4.009,1.89711 0.525,-0.71917 0.694,-0.64764 1.657,0.70497 1.209,1.6985 2.895,2.20979 1.869,0.56693 -0.323,-0.51612 -0.447,-1.0779 -0.276,-1.24838 0.503,-0.50346 1.334,0.2513 1.334,1.2122 0,0.48908 0.665,1.44858 1.477,2.13222 1.69,1.42207 2.909,1.68103 1.718,0.36496 -0.437,-0.48291 -0.794,-1.13107 -0.794,-1.44036 0,-0.99745 0.903,-0.60003 1.996,0.87802 0.586,0.7922 1.334,1.44036 1.662,1.44036 0.328,0 0.665,0.4692 0.75,1.04267 0.08,0.57347 0.477,1.14874 0.873,1.27839 0.603,0.19716 0.618,0.11215 0.1,-0.51981 -0.36,-0.43626 -0.434,-0.87259 -0.175,-1.03257 0.798,-0.49309 3.391,0.72308 3.714,1.74202 0.352,1.10857 2.554,3.21225 3.388,3.2356 0.297,0.008 0.753,-0.2549 1.013,-0.58498 z m -5.876,-2.28058 c -0.163,-0.26407 -0.554,-0.47682 -0.869,-0.47277 -0.343,0.004 -0.284,0.19312 0.149,0.47277 0.922,0.59608 1.088,0.59608 0.72,0 z m 41.359,-6.84175 c -0.159,-1.91448 -0.522,-5.96552 -0.807,-9.00229 -0.285,-3.03677 -0.378,-7.0878 -0.208,-9.00229 0.205,-2.30358 0.14,-3.48089 -0.193,-3.48089 -0.277,0 -1.646,0.4209 -3.042,0.93533 -1.396,0.51443 -4.006,1.2695 -5.799,1.67792 -1.793,0.40843 -3.854,1.05002 -4.581,1.42575 -0.726,0.37573 -2.717,0.94151 -4.422,1.25729 -4.695,0.86927 -5.351,1.21322 -5.173,2.71386 0.217,1.83944 4.312,4.6731 6.206,4.29445 1.061,-0.21237 1.487,-0.0514 1.899,0.71785 0.343,0.64062 0.85,0.90815 1.432,0.75585 1.078,-0.2817 2.024,0.69803 1.64,1.69792 -0.184,0.47981 0.261,0.96793 1.356,1.48757 0.896,0.42538 3.457,2.25955 5.691,4.07592 3.82,3.10567 4.864,3.79735 5.872,3.88875 0.23,0.0208 0.288,-1.5285 0.129,-3.44299 z m -35.007,-0.0523 c 0.06,-1.54716 0.341,-5.11207 0.624,-7.92202 0.283,-2.80995 0.558,-5.62987 0.61,-6.2665 0.09,-1.01901 -0.192,-1.22313 -2.311,-1.70607 -1.324,-0.30171 -3.052,-0.90704 -3.841,-1.34517 -1.742,-0.96749 -5.722,-2.27861 -6.853,-2.25764 -0.452,0.008 -1.242,0.33248 -1.755,0.72018 -0.667,0.50454 -2.237,0.70653 -5.522,0.71059 -2.937,0.004 -5.972,0.34719 -8.431,0.95457 -4.719,1.166 -4.561,1.16569 -4.561,0.009 0,-0.60483 0.393,-1.02656 1.08,-1.15837 0.595,-0.11399 2.269,-0.45012 3.722,-0.74695 1.452,-0.29683 4.693,-0.6205 7.202,-0.71927 2.508,-0.0988 4.939,-0.19887 5.401,-0.22244 1.315,-0.0671 0.988,-0.82556 -0.648,-1.50324 -0.819,-0.33916 -2.201,-1.09993 -3.072,-1.69061 -0.87,-0.59068 -2.091,-1.23398 -2.712,-1.42956 -0.621,-0.19558 -1.67,-0.76981 -2.33,-1.27609 -4.208,-3.22663 -7.709,-5.66629 -8.132,-5.66629 -0.555,0 -0.699,0.58687 -1.469,6.00153 -0.3,2.11254 -0.748,4.74686 -0.994,5.85405 -0.247,1.10718 -0.449,2.78696 -0.449,3.73283 0,1.44171 0.214,1.796 1.321,2.19129 0.726,0.25934 1.914,0.80635 2.641,1.21557 1.131,0.63739 1.32,0.64429 1.32,0.0481 0,-0.74532 1.158,-1.40139 1.634,-0.92566 0.157,0.15785 0.287,0.6831 0.287,1.16723 0,0.48412 0.324,0.88022 0.72,0.88022 0.432,0 0.72,-0.44303 0.72,-1.10655 0,-1.08168 0.104,-1.10553 4.615,-1.06168 3.486,0.0339 4.677,-0.11535 4.867,-0.6096 0.164,-0.42863 0.656,-0.55282 1.425,-0.35992 1.015,0.25476 1.131,0.16233 0.862,-0.68447 -0.384,-1.21245 0.926,-1.37442 1.585,-0.19594 0.389,0.69386 0.788,0.71719 3.505,0.20475 4.301,-0.81097 4.381,-0.81402 4.606,-0.17576 0.324,0.91354 -2.485,2.06868 -5.029,2.06868 -1.286,0 -3.403,0.30243 -4.705,0.67206 -1.303,0.36964 -4.119,0.93119 -6.258,1.2479 -3.634,0.53791 -5.508,1.13267 -4.979,1.57985 0.124,0.10514 2.063,1.26057 4.307,2.56762 3.872,2.25438 5.141,2.8969 10.804,5.46988 1.32,0.59995 2.833,1.46539 3.361,1.9232 1.551,1.34486 4.724,2.84912 5.761,2.73198 0.825,-0.093 0.976,-0.50715 1.071,-2.92141 z m -28.199,-24.28556 c 0,-0.24848 0.216,-0.58531 0.48,-0.74852 0.264,-0.1632 0.481,0.0401 0.481,0.45179 0,0.41169 -0.217,0.74852 -0.481,0.74852 -0.264,0 -0.48,-0.2033 -0.48,-0.45179 z m 64.812,16.89598 c 0,-0.96091 -0.124,-1.13614 -0.435,-0.64369 -0.236,0.37215 -0.318,0.9663 -0.182,1.32033 0.39,1.01528 0.625,0.75712 0.617,-0.67664 z m -0.674,-5.76268 c -0.554,-0.55394 -0.838,0.3136 -0.46,1.4054 l 0.386,1.11645 0.177,-1.1215 c 0.1,-0.61682 0.05,-1.24698 -0.103,-1.40035 z m 0.01,-3.34964 c -0.489,-0.48805 -0.891,0.24673 -0.491,0.89465 0.303,0.48944 0.416,0.48982 0.578,0.002 0.112,-0.33358 0.07,-0.73704 -0.09,-0.89658 z m -25.258,-0.57015 c 0,-0.24206 -0.27,-0.53914 -0.6,-0.66017 -0.474,-0.17388 -0.477,-0.35116 -0.01,-0.84487 0.482,-0.51099 0.751,-0.47819 1.479,0.18005 1.192,1.07902 3.666,1.01438 7.101,-0.18559 1.559,-0.54475 4.826,-1.50718 7.258,-2.13874 5.552,-1.44126 6.595,-1.9873 9.829,-5.14453 3.2,-3.12418 4.103,-4.86199 4.774,-9.19033 0.445,-2.86365 0.394,-3.77625 -0.346,-6.26722 -0.732,-2.46399 -1.39,-3.44163 -4.251,-6.31259 -3.688,-3.70079 -6.429,-5.42662 -7.043,-4.43394 -0.276,0.44633 -0.624,0.45516 -1.473,0.0373 -7.906,-3.89456 -13.449,-5.83074 -8.554,-2.98836 1.453,0.84339 3.796,1.99397 5.208,2.55684 1.411,0.56287 2.596,1.23946 2.632,1.50353 0.04,0.26407 1.148,1.29296 2.47,2.28644 1.322,0.99347 2.406,2.10744 2.409,2.47548 0,0.36805 0.604,1.14068 1.335,1.71697 2.795,2.20212 3.414,5.15271 1.828,8.72519 -1.199,2.70154 -2.581,4.23808 -5.687,6.32252 -6.486,4.35163 -11.319,5.58036 -21.958,5.58218 -10.364,0.002 -16.379,-0.95919 -20.943,-3.34548 -0.427,-0.22337 -1.71,-0.65742 -2.851,-0.96456 -1.829,-0.49258 -5.395,-2.53559 -7.732,-4.43016 -0.437,-0.35501 -1.272,-1.56013 -1.855,-2.67803 -0.854,-1.63753 -1.021,-2.61329 -0.862,-5.02058 0.297,-4.4734 1.793,-6.43741 6.424,-8.4285 2.274,-0.97764 4.005,-1.44856 4.614,-1.25521 1.289,0.40908 0.823,0.73813 -3.372,2.38289 -4.333,1.6988 -5.67,3.2392 -6.118,7.04665 -0.489,4.1607 1.189,6.67035 6.287,9.40467 3.429,1.83935 10.972,4.51988 13.924,4.94844 4.839,0.70238 18.738,0.51631 23.487,-0.31443 6.37,-1.11417 12.365,-4.77225 15.248,-9.3046 1.961,-3.0841 1.8,-4.51068 -0.803,-7.11415 -1.189,-1.1883 -2.161,-2.40819 -2.161,-2.71086 0,-1.07814 -7.571,-6.52518 -9.069,-6.52518 -0.458,0 -2.223,-0.57366 -3.924,-1.2748 -1.701,-0.70114 -4.371,-1.40332 -5.935,-1.5604 -3.238,-0.3252 -4.378,-1.4859 -1.459,-1.4859 1.527,0 1.694,-0.10205 1.181,-0.72018 -0.439,-0.52863 -1.604,-0.72019 -4.38,-0.72019 -2.913,0 -3.782,-0.15374 -3.782,-0.66881 0,-1.07202 1.111,-1.22358 5.365,-0.73191 2.199,0.25407 4.881,0.54738 5.96,0.6518 1.08,0.10443 4.453,1.39593 7.496,2.87001 6.002,2.90736 7.469,3.32706 5.326,1.52373 -1.878,-1.57967 -7.761,-4.39161 -9.923,-4.74241 -0.974,-0.15796 -2.445,-0.62379 -3.27,-1.03517 -0.824,-0.41138 -2.412,-0.74797 -3.527,-0.74797 -2.354,0 -3.031,-0.636 -2.813,-2.64067 0.09,-0.7922 0.381,-3.49289 0.654,-6.00153 0.273,-2.50864 0.823,-9.74648 1.221,-16.0841 0.821,-13.06941 0.949,-14.53629 1.665,-19.20489 0.284,-1.84847 0.796,-5.59677 1.138,-8.32955 0.755,-6.03332 1.081,-5.73532 -5.704,-5.22446 -4.768,0.35903 -5.029,0.52812 -5.029,3.26373 0,2.38325 -0.752,3.29936 -1.057,1.28799 l -0.164,-1.08028 -0.619,1.10262 c -0.34,0.60644 -0.778,2.0108 -0.973,3.12079 -0.249,1.41667 -0.572,1.98224 -1.082,1.89759 -0.85,-0.14094 -2.133,2.30385 -2.62,4.99349 -0.184,1.01685 -0.761,2.25662 -1.282,2.75506 -0.751,0.71909 -0.886,1.28826 -0.651,2.75591 0.273,1.70894 0.213,1.8409 -0.79,1.73443 -0.916,-0.0973 -1.11,0.14519 -1.244,1.56099 -0.09,0.92193 -0.379,1.81191 -0.647,1.97773 -0.268,0.16583 -0.547,1.13996 -0.619,2.16475 -0.07,1.02478 -0.41,3.44761 -0.751,5.38407 -0.484,2.75573 -0.498,4.32071 -0.07,7.20183 0.305,2.02456 0.694,5.24134 0.865,7.1484 0.172,1.90706 0.498,3.35269 0.725,3.21249 0.226,-0.14019 0.418,-2.34868 0.426,-4.90775 0.02,-5.86623 1.844,-15.87437 3.583,-19.63306 0.708,-1.53138 1.832,-4.29671 2.497,-6.14518 2.499,-6.9442 4.545,-11.11648 5.79,-11.80641 0.594,-0.32943 1.08,-0.89659 1.08,-1.26036 0,-0.36376 0.654,-1.02943 1.454,-1.47926 0.799,-0.44984 1.574,-1.35802 1.72,-2.01819 0.474,-2.13108 0.652,-2.46688 1.144,-2.16265 0.266,0.16436 0.483,0.72892 0.483,1.25458 0,0.52567 0.294,1.53918 0.653,2.25225 0.359,0.71307 0.802,1.91797 0.985,2.67755 0.267,1.11312 0.191,1.32717 -0.392,1.10326 -0.578,-0.22155 -0.642,-0.0603 -0.316,0.79642 0.27,0.70992 0.196,1.36479 -0.218,1.93101 -0.6,0.82102 -0.648,0.82032 -1.135,-0.0169 -0.487,-0.83898 -0.508,-0.83922 -0.522,-0.006 -0.02,1.2714 1.009,5.29994 1.491,5.83004 0.543,0.59718 0.535,2.18456 -0.01,2.18456 -0.234,0 -0.828,-0.81021 -1.32,-1.80046 l -0.895,-1.80046 -0.152,1.57301 c -0.09,0.97523 0.226,2.18276 0.841,3.17747 1.107,1.79154 1.335,3.84589 0.391,3.53203 -0.33,-0.10981 -0.727,-0.82999 -0.882,-1.60041 l -0.282,-1.40076 -0.377,1.34488 c -0.273,0.97876 -0.176,1.50157 0.359,1.92049 0.879,0.68881 1.634,4.65665 0.886,4.65665 -0.275,0 -0.644,-0.76627 -0.82,-1.70281 -0.381,-2.03325 -0.634,-1.91708 -0.934,0.43034 -0.154,1.20278 0.07,2.22579 0.732,3.3074 0.525,0.86129 0.955,1.94409 0.956,2.4062 0,1.3725 -1.357,0.9579 -1.575,-0.48012 -0.189,-1.25123 -0.203,-1.24014 -0.272,0.21173 -0.04,0.84263 -0.288,1.66559 -0.552,1.82879 -0.718,0.44408 -0.579,3.13785 0.294,5.70196 0.739,2.16797 0.573,3.62205 -0.26,2.27493 -0.827,-1.33886 -0.99,0.4149 -0.218,2.34544 0.592,1.4793 0.655,2.12197 0.249,2.52829 -0.406,0.40631 -0.545,0.2835 -0.545,-0.48314 0,-0.56536 -0.245,-1.1794 -0.544,-1.36453 -0.389,-0.23986 -0.449,0.13146 -0.209,1.292 0.853,4.14312 0.876,5.70964 0.08,5.70964 -0.859,0 -1.093,2.14301 -0.288,2.64067 0.264,0.1632 0.48,-0.0833 0.48,-0.54781 0,-0.62638 0.14,-0.70479 0.541,-0.30355 0.298,0.29755 0.414,1.04884 0.258,1.66955 -0.242,0.96301 -0.832,1.24972 -4.022,1.95465 -2.057,0.45436 -5.035,0.96259 -6.62,1.1294 -1.584,0.16682 -4.021,0.81543 -5.416,1.44136 -1.394,0.62593 -2.798,1.14336 -3.121,1.14986 -2.546,0.0513 -12.267,4.49962 -15.59,7.13419 -2.191,1.73671 -2.521,2.22157 -2.521,3.69948 0,0.93546 -0.224,2.11874 -0.497,2.62951 -0.419,0.78382 -0.337,0.92868 0.532,0.92868 0.81,0 0.944,0.17823 0.632,0.84022 -0.544,1.15332 -0.414,4.88567 0.19,5.49021 0.338,0.3382 0.47,0.2292 0.419,-0.34604 -0.04,-0.46187 0.195,-0.93503 0.525,-1.05147 0.406,-0.14341 0.6,0.33329 0.6,1.47747 0,1.95233 0.733,4.1523 1.383,4.1523 0.246,0 0.335,-0.43211 0.196,-0.96024 -0.138,-0.52952 -0.01,-0.96025 0.276,-0.96025 0.29,0 0.661,0.53128 0.824,1.18062 0.375,1.49388 1.703,2.70267 2,1.82015 0.272,-0.80736 1.083,-0.76596 1.083,0.0553 0,1.0638 1.98,3.26547 2.691,2.99255 0.36,-0.13826 0.881,0.17046 1.157,0.68602 0.656,1.22682 3.483,2.71945 3.733,1.97105 0.218,-0.65521 1.541,-0.73261 1.541,-0.0902 0,0.89937 3.152,3.76153 4.482,4.0704 1.432,0.33259 1.427,-0.0193 -0.02,-1.71544 -0.495,-0.57876 -0.529,-0.88456 -0.126,-1.13365 0.32,-0.19779 1.132,0.33691 1.932,1.27268 1.035,1.20929 1.385,1.40318 1.4,0.77355 0.03,-1.49848 1.46,-0.96654 1.46,0.54493 0,0.94242 0.378,1.633 1.184,2.16055 1.462,0.95829 1.697,0.96593 1.697,0.0552 0,-1.06208 1.009,-0.87585 1.301,0.24006 0.306,1.17083 0.577,1.20176 1.344,0.15354 0.541,-0.73996 0.636,-0.72009 1.15,0.24006 0.803,1.50032 1.496,1.29043 1.3,-0.3936 -0.204,-1.75479 1.131,-2.03367 1.873,-0.39115 0.641,1.4193 1.675,1.68536 1.675,0.43116 0,-0.55014 0.116,-1.00025 0.259,-1.00025 0.636,0 3.038,2.1144 2.814,2.47696 -0.137,0.22208 0.196,0.40377 0.739,0.40377 0.544,0 0.989,-0.19805 0.989,-0.44011 z m -8.162,-19.72502 c 0,-0.26407 0.324,-0.48013 0.72,-0.48013 0.396,0 0.72,0.21606 0.72,0.48013 0,0.26406 -0.324,0.48012 -0.72,0.48012 -0.396,0 -0.72,-0.21606 -0.72,-0.48012 z m 11.523,-14.67802 c -0.66,-0.36317 -2.451,-0.80295 -3.98,-0.97729 -1.726,-0.19682 -2.709,-0.52017 -2.594,-0.85301 0.434,-1.25383 8.852,0.53599 9.335,1.98482 0.259,0.77822 -1.215,0.69569 -2.761,-0.15452 z m -15.726,-3.68666 c 0.239,-0.71986 4.258,-1.38051 4.881,-0.80237 0.562,0.52107 -1.72,1.40252 -3.631,1.40252 -0.945,0 -1.38,-0.20861 -1.25,-0.60015 z m 37.813,34.68884 c 0,-0.26407 -0.229,-0.48013 -0.509,-0.48013 -0.28,0 -0.375,0.21606 -0.212,0.48013 0.164,0.26406 0.392,0.48012 0.509,0.48012 0.116,0 0.212,-0.21606 0.212,-0.48012 z m -63.139,-32.13421 c 1.32,-0.77221 3.006,-1.74027 3.746,-2.15125 1.499,-0.83284 1.482,-0.19815 0.285,-11.0861 -0.913,-8.29594 -4.076,-19.9699 -6.208,-22.9064 -0.519,-0.71549 -0.944,-1.6356 -0.944,-2.04468 0,-0.97986 -2.729,-4.73112 -3.056,-4.20138 -0.316,0.51128 0.5,22.03125 0.857,22.60937 0.143,0.23159 0.277,5.28579 0.297,11.23156 0.02,5.94576 0.169,10.94361 0.332,11.10632 0.163,0.1627 0.745,-0.0303 1.293,-0.42879 0.548,-0.39855 2.077,-1.35644 3.398,-2.12865 z m -9.515,-1.08426 c -0.154,-0.38301 -0.267,-0.26924 -0.29,0.29008 -0.02,0.50613 0.09,0.7897 0.252,0.63016 0.159,-0.15954 0.176,-0.57365 0.04,-0.92024 z m 20.839,-3.80131 c 1.694,-0.55582 3.701,-1.33138 4.46,-1.72345 1.273,-0.65764 1.357,-0.86759 1.091,-2.71035 -0.159,-1.09862 -0.703,-4.80621 -1.21,-8.23908 -0.506,-3.43288 -1.063,-7.64595 -1.237,-9.36239 -0.576,-5.67134 -1.296,-10.78171 -1.726,-12.24312 -0.233,-0.7922 -0.525,-1.9805 -0.647,-2.64067 -0.786,-4.22525 -3.464,-10.1908 -5.89,-13.12017 -0.618,-0.74645 -1.124,-1.6881 -1.124,-2.09257 0,-0.89077 -2.23,-0.49021 -3.344,0.6006 -0.613,0.60067 -0.479,0.68859 1.052,0.68859 0.966,0 1.889,0.21606 2.052,0.48012 0.166,0.26898 -0.208,0.48013 -0.852,0.48013 -0.632,0 -1.285,0.13693 -1.453,0.30429 -0.167,0.16736 0.877,1.64969 2.321,3.29407 1.444,1.64438 2.625,3.16614 2.625,3.38169 0,0.21555 0.702,0.99302 1.56,1.7277 1.474,1.26132 1.5,1.33688 0.464,1.3553 -1,0.0178 -1.043,0.11574 -0.481,1.09979 0.34,0.59415 0.654,1.62041 0.698,2.28058 0.08,1.13945 0.635,4.34325 1.589,9.12233 0.237,1.1883 0.883,5.18532 1.437,8.88226 0.553,3.69694 1.316,7.4779 1.696,8.40214 0.857,2.088 1.666,6.6777 1.331,7.55145 -0.548,1.42654 -1.346,0.14218 -1.583,-2.54788 -0.138,-1.56366 -0.603,-3.81527 -1.034,-5.00357 -0.43,-1.1883 -1.041,-3.99702 -1.357,-6.24159 -0.316,-2.24457 -0.892,-5.80948 -1.279,-7.92202 -0.386,-2.11254 -0.908,-5.12986 -1.159,-6.70517 -0.251,-1.5753 -0.669,-3.07688 -0.929,-3.33685 -0.26,-0.25996 -0.473,-0.85928 -0.473,-1.33183 0,-1.02573 -2.374,-7.10668 -3.095,-7.92656 -0.278,-0.3166 -1.575,-2.07574 -2.881,-3.9092 l -2.374,-3.33356 -2.067,1.00411 c -1.137,0.55226 -2.067,1.26751 -2.067,1.58946 0,0.32194 0.756,1.0527 1.681,1.62391 0.924,0.57121 1.68,1.35778 1.68,1.74792 0,0.78557 -0.357,0.63355 -2.774,-1.1807 -0.865,-0.64968 -1.728,-1.02647 -1.917,-0.83729 -0.444,0.44413 2.552,3.00498 4.571,3.90698 0.858,0.38339 1.561,1.03564 1.561,1.44944 0,0.43195 0.818,1.07365 1.92,1.50676 1.931,0.75821 2.548,1.56897 1.194,1.56897 -0.4,0 -1.146,-0.26189 -1.659,-0.58198 -0.512,-0.32008 -1.054,-0.45904 -1.205,-0.30878 -0.586,0.58642 0.377,1.80695 1.646,2.08563 1.667,0.36616 3.385,1.92458 3.385,3.07026 0,0.47677 0.54,1.49462 1.2,2.26188 0.66,0.76725 1.2,1.94595 1.2,2.61932 0,0.67337 0.257,1.47998 0.569,1.79246 0.957,0.95707 -0.02,1.27695 -1.048,0.34409 -1.351,-1.22204 -1.733,-0.56613 -0.613,1.05263 0.512,0.74139 1.21,2.96839 1.55,4.9489 0.34,1.9805 0.824,4.43621 1.074,5.45713 0.251,1.02091 0.852,4.25444 1.335,7.18561 0.483,2.93117 1.116,5.40872 1.407,5.50567 1.042,0.34748 0.563,1.60824 -0.552,1.44996 -0.901,-0.12797 -1.135,-0.55172 -1.412,-2.55403 -0.182,-1.32034 -0.545,-3.48089 -0.806,-4.80123 -3.15,-15.90173 -4.145,-18.86404 -6.99,-20.80145 -0.902,-0.61404 -1.991,-1.85635 -2.42,-2.7607 -0.898,-1.8909 -1.328,-2.12763 -1.026,-0.56399 0.453,2.33992 1.789,4.65883 3.492,6.06307 0.983,0.80977 1.633,1.62592 1.445,1.81367 -0.188,0.18774 -0.597,0.0857 -0.909,-0.22679 -1.526,-1.52511 -1.382,0.62812 0.192,2.88829 0.569,0.81743 0.798,1.71303 0.619,2.42573 -0.205,0.81735 0.199,1.83187 1.462,3.66806 1.79,2.60104 1.926,3.74633 0.268,2.24565 -0.897,-0.81141 -0.921,-0.8013 -0.683,0.28302 0.256,1.16817 0.921,2.90544 1.678,4.3839 0.304,0.59376 0.226,1.07274 -0.253,1.55195 -0.782,0.78173 -0.498,2.63051 0.403,2.63051 0.798,0 2.419,1.84102 1.994,2.26535 -0.186,0.18644 -0.761,0.0752 -1.277,-0.24707 -0.8,-0.49936 -0.938,-0.45921 -0.938,0.27143 0,0.47162 0.336,1.33805 0.748,1.9254 0.411,0.58736 0.614,1.2836 0.451,1.5472 -0.427,0.69212 0.187,0.6025 3.643,-0.53132 z m 30.928,0.53048 c -1.326,-0.56999 -2.16,-0.56999 -2.16,0 0,0.26407 0.702,0.46494 1.56,0.44638 1.308,-0.0283 1.405,-0.10059 0.6,-0.44638 z m -20.801,-6.48165 c -0.17,-3.13383 1.811,-15.78542 3.27,-20.88532 3.061,-10.70657 4.546,-14.63105 5.989,-15.82829 1.428,-1.18529 2.156,-3.21914 2.613,-7.29991 0.246,-2.19915 0.366,-4.07922 0.268,-4.17793 -0.1,-0.0987 -0.531,-0.0449 -0.959,0.11951 -0.586,0.22483 -0.701,0.6536 -0.465,1.72895 0.354,1.61306 -0.06,3.37204 -0.788,3.37204 -0.291,0 -0.359,-0.58036 -0.17,-1.44037 0.365,-1.66129 -0.197,-1.85447 -1.43,-0.49188 -0.65,0.71847 -0.8,1.46441 -0.618,3.07602 0.291,2.58517 -0.326,3.98204 -0.979,2.21609 l -0.436,-1.17818 -0.797,1.54156 c -0.439,0.84786 -0.938,2.57154 -1.109,3.83041 -0.171,1.25887 -0.622,2.51805 -1.001,2.79818 -0.379,0.28012 -0.802,1.50405 -0.939,2.71983 -0.175,1.55248 -0.496,2.27502 -1.078,2.42723 -0.608,0.159 -0.913,0.93541 -1.146,2.91484 -0.174,1.48396 -0.659,3.70622 -1.077,4.93834 -0.729,2.14707 -0.713,3.35614 0.08,5.89634 0.308,0.98676 0.233,1.11162 -0.499,0.83092 -0.768,-0.29474 -0.831,-0.10947 -0.588,1.71948 0.151,1.1274 0.42,2.53594 0.6,3.13009 0.236,0.78022 0.13,1.08027 -0.383,1.08027 -0.497,0 -0.799,0.75397 -1.012,2.52065 -0.64,5.32817 -0.08,7.73277 1.731,7.47518 1.003,-0.14244 1.068,-0.35774 0.924,-3.03405 z m 5.408,2.11765 2.077,-0.52302 0.123,-4.15817 c 0.07,-2.287 0.112,-4.69528 0.1,-5.35174 -0.01,-0.65646 0.158,-1.53085 0.379,-1.94309 0.221,-0.41225 0.535,-2.57583 0.699,-4.80797 0.164,-2.23214 0.504,-5.46279 0.756,-7.17923 0.252,-1.71643 0.548,-4.20107 0.657,-5.5214 0.11,-1.32034 0.353,-3.75096 0.542,-5.40138 0.648,-5.67365 -1.044,-3.30235 -4.11,5.7593 -0.826,2.44381 -1.671,4.76738 -1.877,5.16348 -0.206,0.3961 -0.743,2.98876 -1.193,5.76147 -0.451,2.77271 -1.032,5.79748 -1.292,6.72171 -0.599,2.13142 -1.144,10.2282 -0.755,11.23963 0.345,0.90038 1.091,0.94643 3.895,0.24041 z m -20.162,-25.36293 c 0.149,-0.24171 -0.289,-1.10502 -0.973,-1.91847 -0.685,-0.81346 -1.404,-2.07407 -1.599,-2.80136 -0.194,-0.72729 -0.728,-1.39449 -1.185,-1.48266 -0.68,-0.13097 -0.519,0.462 0.881,3.24083 1.641,3.25906 2.283,3.92036 2.876,2.96166 z m 8.9,-0.88087 c 0,-0.19805 -0.217,-0.68417 -0.473,-1.08027 -0.376,-0.58237 -0.467,-0.51346 -0.473,0.36009 0,0.59415 0.209,1.08027 0.473,1.08027 0.264,0 0.477,-0.16204 0.473,-0.36009 z m -13.3,-2.048 c -0.27,-1.03397 -1.097,-1.80292 -1.097,-1.02037 0,0.81886 0.569,1.9881 0.967,1.9881 0.211,0 0.27,-0.43548 0.13,-0.96773 z m -2.825,-5.5744 c -1.712,-3.09394 -4.905,-6.9013 -5.788,-6.9013 -0.519,0 -0.665,0.468 -0.555,1.7815 0.121,1.44835 0.373,1.83348 1.349,2.05951 0.859,0.19903 1.243,0.6477 1.352,1.57935 0.08,0.71575 0.363,1.30135 0.621,1.30135 0.259,0 0.406,0.34149 0.329,0.75885 -0.175,0.9421 3.621,3.26514 3.844,2.35183 0.08,-0.32503 -0.439,-1.64402 -1.152,-2.93109 z m 17.702,-1.37989 c 2.282,-5.96187 4.753,-11.32812 7.407,-16.0841 2.093,-3.7521 2.358,-4.80122 1.213,-4.80122 -0.997,0 -1.997,0.99613 -2.891,2.88073 -0.313,0.66017 -0.774,1.52439 -1.023,1.92049 -0.25,0.3961 -1.02,2.01651 -1.711,3.60092 -0.692,1.5844 -1.902,4.20192 -2.69,5.81671 -1.17,2.39894 -1.471,3.71625 -1.645,7.20183 -0.14,2.81606 -0.07,3.77634 0.196,2.82549 0.225,-0.7922 0.74,-2.30458 1.144,-3.36085 z m -2.842,2.09531 c 0.24,-1.004 0.105,-1.31719 -0.653,-1.51545 -1.098,-0.28722 -1.18,0.0828 -0.397,1.80019 0.64,1.40643 0.645,1.40514 1.05,-0.28474 z m -1.549,-3.42365 c -0.474,-0.47065 -0.529,-0.4155 -0.269,0.26877 0.181,0.47351 0.449,0.73997 0.597,0.59215 0.148,-0.14782 0,-0.53524 -0.328,-0.86092 z m 1.097,-4.15077 c -0.462,-2.39987 -1.019,-4.3634 -1.238,-4.3634 -0.219,0 -0.399,-0.29939 -0.399,-0.6653 0,-0.36592 -0.322,-1.28415 -0.717,-2.04052 -0.394,-0.75637 -0.719,-1.74056 -0.72,-2.1871 0,-1.00203 -0.648,-1.43974 -1.587,-1.07916 -0.425,0.16298 -0.613,0.64637 -0.468,1.20187 0.252,0.96146 -0.545,1.29627 -1.069,0.44911 -0.462,-0.74722 -1.681,-0.56451 -1.681,0.25194 0,0.40264 0.521,0.92982 1.156,1.17152 0.768,0.29176 1.271,0.97352 1.499,2.02864 0.423,1.96388 1.476,4.06484 2.69,5.36814 0.506,0.5437 0.814,1.26621 0.684,1.60556 -0.13,0.33936 0.08,0.61701 0.479,0.61701 0.393,0 0.962,0.54105 1.263,1.20234 0.944,2.07103 0.977,0.95828 0.108,-3.56065 z m -27.705,-0.83048 c 1.112,-0.37217 3.489,-1.54142 5.282,-2.59833 10.475,-6.17268 25.466,-11.84122 36.151,-13.66916 1.981,-0.33884 5.812,-0.77256 8.515,-0.96382 2.702,-0.19125 5.109,-0.59022 5.347,-0.8866 0.767,-0.95102 3.423,-11.20045 3.423,-13.2059 0,-0.52071 -0.587,-1.40858 -1.305,-1.97303 -1.164,-0.91587 -1.693,-0.99416 -4.921,-0.72782 -13.92,1.14863 -39.529,8.6888 -51.541,15.17566 -6.435,3.4747 -8.088,5.21674 -6.332,6.67388 0.396,0.32873 0.72,0.92017 0.72,1.31431 0,0.61678 -0.167,0.60704 -1.2,-0.0699 -1.133,-0.74214 -1.201,-0.73591 -1.201,0.11042 0,0.4933 0.427,1.28335 0.949,1.75567 0.913,0.82629 0.896,1.99685 -0.02,1.43011 -0.682,-0.42179 -0.532,0.44409 0.258,1.48913 0.871,1.15115 0.936,2.46009 0.136,2.74973 -0.48,0.17363 -0.479,0.42308 0,1.24032 0.507,0.85882 0.488,1.02297 -0.12,1.02297 -1.011,0 -0.911,1.80046 0.116,2.07418 1.045,0.27868 3.107,-0.0596 5.741,-0.94187 z m -2.98,-3.0528 c -0.164,-0.26406 -0.07,-0.48012 0.211,-0.48012 0.28,0 0.509,0.21606 0.509,0.48012 0,0.26407 -0.1,0.48013 -0.212,0.48013 -0.116,0 -0.345,-0.21606 -0.508,-0.48013 z m 33.791,1.47139 c 0.56,-1.30327 1.026,-2.65361 1.034,-3.00076 0,-0.34715 0.547,-1.4954 1.198,-2.55167 0.651,-1.05627 1.184,-2.27213 1.185,-2.70191 0,-0.42979 0.327,-1.05039 0.723,-1.37913 0.396,-0.32873 0.72,-0.98467 0.72,-1.45763 0,-0.70669 -0.235,-0.79476 -1.32,-0.49418 -1.03,0.28515 -1.291,0.61763 -1.187,1.50867 0.101,0.86167 0,1.00697 -0.418,0.59049 -0.844,-0.84385 -1.876,-0.19108 -1.876,1.18655 0,0.67714 -0.335,1.60081 -0.744,2.0526 -0.705,0.77926 -1.673,6.88904 -1.278,8.07223 0.356,1.06907 0.958,0.50901 1.963,-1.82526 z m -1.973,-7.0246 c 1.147,-3.1132 0.766,-3.57602 -1.993,-2.42316 -1.693,0.70713 -2.254,1.83862 -1.227,2.47327 0.28,0.17327 0.707,0.83419 0.948,1.4687 0.669,1.75787 1.194,1.40652 2.272,-1.51881 z m 20.811,-1.30653 c -0.392,-0.3921 -0.534,-0.33838 -0.534,0.20205 0,0.95441 0.646,1.60003 0.885,0.88422 0.101,-0.30368 -0.06,-0.7925 -0.351,-1.08627 z m 3.788,-26.89286 c 0,-1.76547 -0.716,-2.73669 -2.017,-2.73669 -0.544,0 -0.864,0.35564 -0.864,0.96024 0,0.52814 -0.216,0.96025 -0.48,0.96025 -0.265,0 -0.481,-0.25207 -0.481,-0.56015 0,-0.30807 -0.128,-0.43155 -0.285,-0.27439 -0.158,0.15716 -0.14,0.94937 0.04,1.76045 0.294,1.34034 0.495,1.4747 2.206,1.4747 1.81,0 1.883,-0.0614 1.883,-1.58441 z m 31.209,112.49266 c 0,-0.26406 0.216,-0.48012 0.48,-0.48012 0.264,0 0.48,0.21606 0.48,0.48012 0,0.26407 -0.216,0.48013 -0.48,0.48013 -0.264,0 -0.48,-0.21606 -0.48,-0.48013 z"
       id="path1" /></g></svg>
