<?xml version="1.0" encoding="UTF-8" standalone="no"?>
<!-- Created with Inkscape (http://www.inkscape.org/) -->

<svg
   width="231.38646"
   height="235.24007"
   viewBox="0 0 61.221 62.240601"
   version="1.1"
   id="svg1"
   xml:space="preserve"
   xmlns="http://www.w3.org/2000/svg"
   xmlns:svg="http://www.w3.org/2000/svg"><defs
     id="defs1" /><g
     id="layer1"
     transform="translate(1472.671,3650.7208)"><g
       id="g1256"
       transform="matrix(0.26458333,0,0,0.26458333,-4834.9712,-3734.2533)"><path
         style="fill:#000000"
         d="m 12802.233,520.21622 c -7.231,-1.18933 -14.738,-3.0924 -20.646,-5.23393 -1.981,-0.7179 -4.438,-1.45475 -5.461,-1.63744 -1.022,-0.18268 -2.211,-0.5263 -2.64,-0.76359 -0.43,-0.23729 -2.51,-1.1032 -4.623,-1.92424 -6.047,-2.35007 -12.037,-5.83207 -12.503,-7.26769 -0.157,-0.48373 -1.015,-0.92931 -2.161,-1.12311 -2.705,-0.45728 -2.379,-2.58578 0.343,-2.23416 0.791,0.10225 0.995,-0.0752 0.846,-0.73541 -0.109,-0.4786 -0.533,-4.76136 -0.942,-9.51724 -1.857,-21.57121 -2.574,-30.75859 -2.907,-37.23039 -0.197,-3.83113 -0.426,-7.72231 -0.509,-8.64706 -0.436,-4.84655 -0.03,-46.20606 0.537,-54.76471 0.443,-6.68913 1.478,-13.75612 2.709,-18.4951 0.773,-2.9772 3.308,-7.92647 4.059,-7.92647 0.371,0 1.919,-0.94092 3.441,-2.09093 3.38,-2.55523 11.015,-5.65538 12.78,-5.18961 0.225,0.0596 0.676,-0.11224 1.001,-0.38187 1.083,-0.89942 15.849,-2.994 23.315,-3.30724 0.396,-0.0166 2.233,-0.3434 4.081,-0.72617 7.526,-1.55828 23.097,-2.31219 26.648,-1.29019 1.189,0.34201 3.457,0.78742 5.042,0.9898 1.584,0.20238 3.529,0.50878 4.321,0.68089 0.793,0.1721 3.596,0.74883 6.231,1.2816 2.634,0.53277 5.052,1.18716 5.374,1.4542 0.747,0.62034 4.969,1.82956 8.12,2.32577 1.342,0.21129 4.147,1.12002 6.234,2.0194 5.578,2.40428 6.966,4.52387 8.204,12.53251 0.132,0.85244 0.308,1.99836 0.392,2.54651 0.08,0.54814 0.401,2.19131 0.704,3.65148 0.302,1.46018 0.462,3.98088 0.353,5.60156 -0.236,3.53162 0.498,4.61992 1.91,2.83363 0.49,-0.61844 1.567,-1.5232 2.395,-2.01059 1.326,-0.78078 1.779,-0.8172 3.807,-0.30623 2.328,0.58656 4.919,2.09384 5.65,3.28753 0.279,0.45506 0.577,0.50343 0.99,0.16056 0.424,-0.35257 1.462,0.0945 3.688,1.58853 3.564,2.39225 3.641,2.47664 5.657,6.20443 1.112,2.05691 1.51,3.41636 1.51,5.16422 0,1.3048 -0.175,2.37237 -0.389,2.37237 -0.213,0 -0.303,1.20094 -0.198,2.66876 0.104,1.46781 -0.07,4.54833 -0.384,6.84559 -0.36,2.62725 -0.631,13.17706 -0.73,28.43663 -0.172,26.69506 -0.223,27.21184 -3.42,34.62141 -1.645,3.81377 -3.001,5.4892 -6.163,7.61448 -1.32,0.88744 -2.617,1.86612 -2.881,2.17484 -1.381,1.61489 -10.246,4.34539 -11.155,3.43592 -0.574,-0.57415 0.752,-1.35759 3.012,-1.78016 3.057,-0.5713 5.539,-1.87753 9.824,-5.16871 4.43,-3.40274 5.279,-4.63436 7.189,-10.42704 1.627,-4.93393 1.624,-4.90644 2.144,-27.34819 0.194,-8.36531 -0.1,-15.13235 -0.655,-15.13235 -0.172,0 -1.157,1.01141 -2.19,2.24758 -1.34,1.60341 -1.848,2.63603 -1.775,3.60294 0.06,0.74545 -0.116,1.35536 -0.384,1.35536 -0.268,0 -0.488,-0.2625 -0.488,-0.58333 0,-0.37316 -0.285,-0.29799 -0.792,0.20861 -0.681,0.68176 -0.706,0.99859 -0.176,2.27709 l 0.615,1.48515 1.654,-1.93396 c 1.575,-1.84112 2.54,-2.41953 2.54,-1.52264 0,0.22622 -0.756,1.40222 -1.68,2.61333 -1.83,2.39736 -2.29,3.92088 -0.768,2.54303 1.498,-1.35628 1.778,0.0814 0.314,1.61048 -1.489,1.55488 -1.323,3.60805 0.327,4.03961 0.946,0.24759 0.955,0.31531 0.197,1.47257 -0.672,1.02612 -0.709,1.5317 -0.242,3.28104 0.535,2.00125 0.504,2.11727 -0.973,3.59472 -1.092,1.09261 -1.46,1.84037 -1.295,2.62982 0.549,2.63397 0.705,6.60459 0.269,6.87419 -0.259,0.15979 -0.497,0.0616 -0.53,-0.21822 -0.03,-0.27981 -0.09,-0.76095 -0.12,-1.0692 -0.126,-1.17937 -1.188,-0.86394 -1.807,0.53726 -0.357,0.80541 -0.893,1.46437 -1.192,1.46437 -1.256,0 -1.786,1.43431 -1.306,3.53442 0.258,1.12832 0.311,2.36193 0.116,2.74137 -0.194,0.37944 -0.687,1.44651 -1.096,2.37127 -1.064,2.40779 -2.914,4.54356 -3.578,4.13247 -0.866,-0.53551 -0.663,-1.64167 0.407,-2.21466 0.532,-0.28487 1.505,-1.36906 2.161,-2.40931 1.651,-2.61665 1.554,-4.96147 -0.135,-3.27131 -0.812,0.81198 -1.359,-0.837 -0.587,-1.76782 0.417,-0.50306 0.432,-0.71447 0.05,-0.71447 -0.299,0 -0.92,0.46625 -1.379,1.0361 -2.768,3.43171 -4.246,4.75963 -6.078,5.45948 l -2.059,0.78701 -0.391,8.48861 c -0.216,4.66873 -0.409,10.25386 -0.431,12.41139 -0.04,3.91742 -0.451,5.28097 -1.218,4.03828 -0.407,-0.65885 -0.387,-1.97837 0.259,-16.95042 0.264,-6.10667 0.204,-8.20035 -0.248,-8.74612 -0.35,-0.42162 -0.43,-0.97386 -0.194,-1.33907 0.221,-0.34184 0.441,-18.56418 0.489,-40.49408 0.05,-21.9299 0.1,-42.79093 0.111,-46.35785 0.02,-6.61091 -0.271,-10.27199 -0.922,-11.48906 -0.27,-0.50371 -0.684,-0.17426 -1.594,1.26945 -2.403,3.80704 -5.785,5.26478 -17.128,7.38189 -9.183,1.71373 -21.157,2.46934 -33.718,2.12774 -6.265,-0.17037 -11.882,-0.39279 -12.484,-0.49427 -0.601,-0.10147 -3.244,-0.41843 -5.874,-0.70435 -2.698,-0.29332 -4.947,-0.77577 -5.161,-1.1071 -0.283,-0.43698 -0.473,-0.44594 -0.741,-0.035 -0.266,0.40823 -2.05,0.43426 -6.842,0.0999 -7.932,-0.55355 -9.331,-0.80947 -16.406,-3.00037 -3.081,-0.95426 -5.713,-1.73502 -5.848,-1.73502 -0.135,0 -0.06,0.59449 0.164,1.32108 2.704,8.73119 2.965,9.83971 2.436,10.36859 -0.416,0.41614 -0.664,0.37563 -1.005,-0.16427 -0.345,-0.54636 -0.454,-0.3888 -0.46,0.66332 0,1.12515 -0.131,1.27729 -0.677,0.82411 -0.517,-0.43001 -0.851,-0.3737 -1.473,0.24878 -1.624,1.62503 -2.225,2.95742 -1.907,4.22637 0.482,1.9207 1.014,1.93496 2.971,0.0796 0.989,-0.93847 2.177,-1.70818 2.639,-1.71047 1.51,-0.007 0.885,1.3603 -1.313,2.87323 -1.184,0.81531 -2.347,1.85253 -2.584,2.30494 -0.523,0.9981 0.141,2.98141 1.001,2.99168 0.339,0.004 0.931,0.20703 1.317,0.45107 0.6,0.37979 0.572,0.58609 -0.193,1.43212 -0.691,0.76395 -1.044,0.86427 -1.553,0.44177 -0.523,-0.43434 -0.594,-0.38097 -0.349,0.25979 0.18,0.46761 -0.04,1.19303 -0.523,1.72657 -0.792,0.87561 -0.78,1.0276 0.242,3.14052 0.778,1.60807 0.93,2.36537 0.549,2.74617 -0.38,0.3808 -0.768,-0.047 -1.407,-1.55144 l -0.882,-2.07724 -1.053,1.34017 c -1.26,1.60233 -1.3,2.21624 -0.273,4.23691 1.051,2.0673 1.009,2.04477 2.049,1.10285 1.274,-1.15368 1.686,-0.18324 0.541,1.27368 l -0.938,1.19225 1.683,4.98922 c 2.706,8.02759 2.31,7.7239 5.607,4.29992 2.539,-2.63589 4.201,-3.62126 4.201,-2.49012 0,0.23294 -1.524,1.97006 -3.388,3.86027 l -3.387,3.43674 1.148,3.22552 c 0.632,1.77403 1.398,3.22552 1.704,3.22552 0.306,0 1.752,-1.15549 3.215,-2.56774 1.849,-1.78592 2.902,-2.47421 3.459,-2.26054 0.827,0.31765 0.426,0.76936 -4.824,5.44042 -1.992,1.77181 -2.051,1.95679 -1.054,3.25927 0.704,0.91902 0.727,0.91774 1.561,-0.0883 0.465,-0.56145 1.44,-1.39698 2.166,-1.85672 2.115,-1.33887 1.646,0.11181 -0.858,2.65576 l -2.179,2.21317 1.459,3.25252 c 1.471,3.28016 1.78,4.60414 1.074,4.60414 -0.736,0 -1.536,-1.16074 -1.536,-2.2295 0,-0.5921 -0.2,-1.19987 -0.444,-1.3506 -0.243,-0.15073 -0.585,-0.92011 -0.758,-1.70973 -0.173,-0.78961 -0.514,-1.43566 -0.757,-1.43566 -0.694,0 -0.522,1.06615 0.472,2.92235 1.092,2.03758 1.454,4.36999 0.717,4.6183 -0.291,0.0981 -0.905,-1.01754 -1.365,-2.47925 -0.459,-1.46171 -1.06,-2.79693 -1.336,-2.96716 -0.582,-0.36008 -4.212,3.3994 -4.212,4.36263 0,0.35772 0.634,1.92832 1.409,3.4902 0.774,1.56189 1.554,3.42362 1.733,4.13718 0.179,0.71355 0.518,1.41618 0.753,1.56138 0.235,0.14521 0.427,0.6355 0.427,1.08955 0,0.45405 0.335,1.30475 0.745,1.89044 l 0.746,1.06489 2.975,-2.04659 c 2.825,-1.9428 4.471,-3.16257 11.121,-8.23953 1.836,-1.40199 3.029,-2.02005 3.325,-1.72324 0.594,0.59399 -0.766,2.1368 -3.305,3.75035 -1.054,0.67026 -3.111,2.2095 -4.571,3.42053 -1.459,1.21104 -4.108,3.14603 -5.885,4.29998 -1.777,1.15395 -3.231,2.15356 -3.231,2.22136 0,0.35735 2.737,5.01765 3.715,6.32606 0.763,1.02087 0.96,1.62629 0.6,1.84853 -0.795,0.49198 -2.08,-0.89325 -3.582,-3.86344 -1.561,-3.0869 -1.768,-3.27019 -2.822,-2.49021 -0.734,0.54289 -0.733,0.71262 0.01,2.3527 0.442,0.97218 1.248,1.8836 1.789,2.02537 0.871,0.22772 0.691,0.52575 -1.541,2.55593 l -2.527,2.29816 0.837,1.80147 c 0.863,1.85966 1.496,2.19074 2.419,1.26685 0.294,-0.29403 0.786,-0.37931 1.092,-0.18951 0.392,0.24183 0.253,0.67043 -0.462,1.43226 l -1.021,1.08717 1.101,2.26756 1.101,2.26756 -1.557,1.39174 c -1.796,1.60574 -1.928,2.36126 -0.619,3.54609 0.898,0.81314 1.005,0.80623 2.577,-0.16574 1.788,-1.10569 2.727,-1.28711 2.727,-0.52682 0,0.43904 -2.412,2.152 -3.591,2.54992 -0.675,0.22767 1.201,4.16851 1.984,4.16851 0.356,0 0.647,-0.20161 0.647,-0.44802 0,-0.24641 0.486,-0.6003 1.08,-0.7864 0.595,-0.18611 1.984,-0.9573 3.088,-1.71375 1.104,-0.75645 2.508,-1.36658 3.121,-1.35584 1.052,0.0184 1.024,0.0961 -0.507,1.40635 -0.891,0.76276 -2.889,2.06329 -4.44,2.89007 l -2.819,1.50324 0.744,1.43865 c 0.936,1.81059 1.927,2.20562 3.03,1.20729 0.473,-0.42837 1.025,-0.77885 1.227,-0.77885 0.201,0 0.915,-0.43235 1.587,-0.96078 1.454,-1.14422 2.052,-1.21596 2.052,-0.24623 0,0.39301 -0.829,1.23797 -1.842,1.87768 -2.397,1.51422 -8.242,6.4783 -8.242,7.00053 0,0.47957 4.059,1.92744 5.488,1.95773 0.547,0.0116 1.859,0.35021 2.915,0.75247 1.056,0.40226 3.109,1.04924 4.561,1.43774 1.453,0.3885 3.073,0.89378 3.601,1.12285 0.996,0.43169 7.92,1.96112 12.993,2.87007 5.716,1.02404 31.698,0.21705 36.222,-1.12503 1.189,-0.35256 3.565,-1.01597 5.282,-1.47424 5.617,-1.49959 10.628,-3.2806 15.604,-5.54525 0.529,-0.24037 2.178,-0.88102 3.665,-1.42366 2.141,-0.78064 3.623,-1.88648 7.1,-5.29663 2.417,-2.37049 4.495,-4.30999 4.617,-4.30999 0.123,0 0.223,0.52847 0.223,1.17438 0,1.19085 -2.919,4.42555 -6.962,7.71554 -2.23,1.81486 -16.219,7.63252 -20.886,8.68603 -1.717,0.38749 -4.85,1.21967 -6.962,1.84929 -2.987,0.8902 -5.871,1.26124 -12.966,1.66858 -10.587,0.60775 -21.425,0.59714 -25.206,-0.0247 z m -28.61,-13.13421 c 0.947,-0.92008 1.721,-1.83883 1.72,-2.04166 0,-0.20283 -0.437,-1.08321 -0.969,-1.95639 l -0.967,-1.58762 -1.552,1.09141 c -2.634,1.85299 -2.655,1.90431 -1.686,4.12548 0.49,1.12292 1.081,2.04167 1.312,2.04167 0.231,0 1.196,-0.7528 2.142,-1.67289 z m -4.047,0.59201 c -0.01,-1.25761 -0.8,-1.8581 -2.026,-1.55021 -1.507,0.37837 -2.303,-0.62208 -1.161,-1.45798 1.077,-0.78754 0.999,-2.24679 -0.172,-3.25025 -1.225,-1.04906 -1.526,-1.03752 -2.847,0.10899 -0.962,0.83453 -1.021,1.10877 -0.539,2.52206 0.579,1.70221 2.208,3.13488 4.271,3.75824 1.89,0.57091 2.482,0.53956 2.474,-0.13085 z m -7.501,-3.48285 c -0.292,-0.76189 -1.134,-0.99962 -1.134,-0.32026 0,0.50802 0.525,1.04085 1.025,1.04085 0.212,0 0.261,-0.32426 0.109,-0.72059 z m -2.101,-2.28186 c -0.01,-1.40932 -0.635,-2.76225 -1.265,-2.76225 -1.092,0 -1.318,1.39652 -0.393,2.41985 0.974,1.07684 1.668,1.22004 1.658,0.3424 z m 10.91,-0.42208 c 1.404,-0.86814 1.607,-1.21274 1.345,-2.28186 -0.5,-2.04431 -1.451,-2.74991 -2.751,-2.04179 -2.882,1.56918 -3.03,1.8217 -2.153,3.66331 0.936,1.96305 1.333,2.0367 3.559,0.66034 z m -7.592,-1.65149 c 1.435,-1.27839 1.524,-2.54608 0.255,-3.60007 -0.498,-0.41298 -0.996,-0.29537 -2.109,0.49737 -1.583,1.12794 -1.782,1.90722 -0.862,3.38132 0.77,1.23357 1.053,1.20459 2.716,-0.27862 z m 5.111,-3.85887 c 1.595,-1.21748 1.618,-1.28337 0.916,-2.64216 -0.396,-0.76644 -0.828,-1.39354 -0.958,-1.39354 -0.308,0 -4.059,2.4804 -4.059,2.68339 0,0.0846 0.251,0.70437 0.557,1.37734 0.705,1.54741 1.491,1.54186 3.544,-0.025 z m -7.667,-0.42703 c 1.459,-1.11349 1.529,-1.29422 1.02,-2.64215 -0.684,-1.814 -1.242,-1.81677 -2.967,-0.0148 -1.208,1.26118 -1.306,1.57658 -0.82,2.64215 0.681,1.49556 0.826,1.49633 2.767,0.0148 z m 5.369,-3.98188 1.563,-1.30816 -0.965,-1.57688 c -1.079,-1.76203 -1.712,-1.66712 -3.804,0.57025 -1.047,1.12084 -1.099,1.36186 -0.519,2.44607 0.822,1.53651 1.772,1.50303 3.725,-0.13128 z m -7.352,-0.69446 c 0.945,-1.34993 0.956,-2.29507 0.03,-2.29507 -0.396,0 -0.72,-0.2575 -0.72,-0.57221 0,-0.31472 -0.283,-0.18441 -0.63,0.28956 -0.654,0.89538 -0.521,3.64539 0.177,3.64539 0.219,0 0.735,-0.48045 1.146,-1.06767 z m 11.511,-2.25139 c 0.768,-0.84909 0.773,-1.02723 0.06,-2.40196 -0.841,-1.62719 -1.533,-1.82619 -2.892,-0.83169 -0.864,0.63205 -0.858,0.70968 0.187,2.40196 1.24,2.0074 1.505,2.09056 2.643,0.83169 z m -7.138,-1.60496 c 1.487,-1.41599 1.585,-1.66949 1.048,-2.72432 -0.862,-1.69248 -1.342,-1.66612 -3.424,0.18811 -1.675,1.49151 -1.801,1.75618 -1.2,2.52166 0.651,0.83035 1.473,1.55349 1.783,1.56847 0.08,0.004 0.89,-0.69522 1.793,-1.55392 z m -2.785,-4.21074 c 1.765,-1.60663 1.887,-2.19415 0.784,-3.76934 l -0.775,-1.10808 -1.625,1.57582 c -1.728,1.67519 -1.923,2.33563 -1.128,3.82089 0.649,1.21401 0.889,1.16856 2.744,-0.51929 z m 6.873,0.95119 c 1.156,-0.6187 1.166,-1.29563 0.05,-2.9968 l -0.878,-1.33233 -1.285,1.01088 -1.284,1.01088 0.998,1.40233 c 1.127,1.58331 1.133,1.58577 2.404,0.90504 z m -2.111,-7.94265 c -0.872,-1.8303 -1.013,-1.82487 -3.08,0.11887 -0.805,0.75721 -0.771,0.96922 0.423,2.64698 l 1.025,1.4399 1.231,-1.23197 c 1.222,-1.22242 1.225,-1.24545 0.401,-2.97378 z m -5.978,-0.33874 c -0.57,-2.17942 -3.002,-1.28057 -2.639,0.97537 0.429,2.67258 0.596,2.7975 1.768,1.32622 0.639,-0.80086 1.008,-1.77743 0.871,-2.30159 z m 10.458,-1.61088 c 0,-0.89942 -1.052,-3.06141 -1.49,-3.06141 -0.207,0 -0.967,0.50777 -1.688,1.12838 l -1.311,1.12838 1.102,1.78366 1.102,1.78367 1.143,-1.07422 c 0.628,-0.59082 1.142,-1.35062 1.142,-1.68846 z m -6.437,-2.81652 c -0.322,-1.28392 -0.33,-1.28608 -1.625,-0.43928 -2.445,1.59997 -2.628,1.95479 -1.723,3.33649 l 0.817,1.24862 1.427,-1.42778 c 1.145,-1.14538 1.363,-1.683 1.104,-2.71805 z m -6.046,0.98444 c 0,-0.38073 -0.216,-0.82584 -0.48,-0.98914 -0.264,-0.16329 -0.481,0.14822 -0.481,0.69224 0,0.54403 0.217,0.98914 0.481,0.98914 0.264,0 0.48,-0.31151 0.48,-0.69224 z m 119.653,-0.55898 c 0.819,-0.42395 2.036,-1.42055 2.704,-2.21468 0.668,-0.79412 1.445,-1.70013 1.727,-2.01335 1.621,-1.79924 2.412,-4.2445 2.967,-9.17271 0.327,-2.90638 0.827,-7.01373 1.11,-9.12745 0.648,-4.83405 0.171,-13.66987 -0.757,-14.02608 -0.878,-0.33726 -0.812,-1.08741 0.194,-2.2005 0.754,-0.83442 0.84,-2.18956 0.84,-13.22406 0,-6.76191 -0.195,-14.2174 -0.433,-16.56777 l -0.433,-4.27338 -1.349,0.26986 c -0.742,0.14843 -1.47,0.0736 -1.618,-0.16629 -0.259,-0.41844 -0.767,-0.23715 -4.488,1.59968 -0.88,0.43423 -1.874,0.78952 -2.209,0.78952 -0.856,0 -1.268,7.98488 -1.04,20.17647 0.101,5.41642 0.207,19.08958 0.235,30.3848 0.03,13.98593 0.213,20.53676 0.556,20.53676 0.277,0 1.174,-0.34686 1.994,-0.77082 z m -114.962,-3.36754 c 0.238,-0.0936 -1.553,-3.06126 -1.85,-3.06448 -0.364,-0.004 -3.321,3.67692 -3.321,4.1344 0,0.19285 0.362,0.75126 0.805,1.24091 0.778,0.86014 0.863,0.83703 2.515,-0.68277 0.941,-0.86516 1.774,-1.59779 1.851,-1.62806 z m 5.102,0.0872 c -0.494,-1.64449 -0.926,-1.78841 -2.247,-0.74886 -1.252,0.98544 -1.303,1.82773 -0.197,3.25475 0.739,0.95436 2.838,-1.19691 2.444,-2.50589 z m 2.702,-1.00718 c 0.47,-0.56609 0.484,-1.01145 0.06,-1.93959 -0.463,-1.01773 -0.698,-1.12477 -1.511,-0.68946 -1.085,0.58111 -1.183,1.09289 -0.465,2.43466 0.599,1.12071 1.104,1.17197 1.915,0.19439 z M 12758,464.72022 c 1.137,-1.37972 1.348,-1.95081 0.978,-2.64216 -1.058,-1.97854 -3.319,-0.0525 -3.319,2.82785 0,2.03063 0.551,1.98695 2.341,-0.18569 z m 6.458,1.06513 c 0.848,-0.64301 0.847,-0.73021 -0.01,-2.69834 l -0.887,-2.03385 -1.263,1.15234 c -1.198,1.09334 -1.228,1.23228 -0.588,2.71361 0.731,1.692 1.386,1.89873 2.748,0.86624 z m 3.685,-3.46625 c 0,-0.3745 -0.442,-1.54837 -0.983,-2.60859 l -0.983,-1.92769 -0.894,1.10518 c -0.842,1.04068 -0.848,1.18934 -0.103,2.54731 1.393,2.5353 1.584,2.70992 2.307,2.10983 0.361,-0.29983 0.656,-0.85155 0.656,-1.22604 z m 119.556,-0.19059 c 0,-0.24862 -0.216,-0.45204 -0.48,-0.45204 -0.264,0 -0.48,0.33702 -0.48,0.74894 0,0.41191 0.216,0.61533 0.48,0.45204 0.264,-0.1633 0.48,-0.50032 0.48,-0.74894 z m -125.805,-1.88614 c 0.804,-0.80446 0.867,-1.14277 0.403,-2.16177 -0.693,-1.52152 -1.045,-1.51465 -2.271,0.0443 -0.756,0.96105 -0.871,1.46384 -0.498,2.16176 0.619,1.1578 1.175,1.1474 2.366,-0.0443 z m 127.946,-0.60507 c 0.438,-0.62644 0.552,-1.14594 0.271,-1.23958 -0.576,-0.19227 -1.932,1.07299 -1.932,1.80326 0,0.86703 0.865,0.57357 1.661,-0.56368 z m -133.271,-0.0617 c 0.551,-0.66443 0.312,-1.93353 -0.582,-3.08608 -0.635,-0.81906 -1.27,0.10566 -1.281,1.86424 -0.01,1.88855 0.845,2.44966 1.863,1.22184 z m 133.04,-4.49981 c 0.01,-1.03026 -0.03,-1.04108 -0.95,-0.25353 -0.574,0.49223 -0.956,1.40684 -0.949,2.27716 l 0.01,1.45451 0.939,-1.20098 c 0.517,-0.66054 0.944,-1.68526 0.95,-2.27716 z m -124.069,0.66273 c -0.394,-1.97094 -1.012,-2.53388 -1.938,-1.76521 -0.865,0.71846 -0.895,0.98866 -0.287,2.5897 0.347,0.91258 0.698,1.13044 1.487,0.92389 0.866,-0.2265 0.985,-0.50971 0.738,-1.74838 z m -5.731,0.10909 c 1.031,-0.96901 1.05,-1.10293 0.352,-2.45416 l -0.739,-1.42921 -1.384,1.32669 c -1.325,1.2703 -1.365,1.63501 -0.325,2.98114 0.625,0.80851 0.828,0.76756 2.096,-0.42446 z m 128.846,-3.05312 c 0.383,-0.46253 0.477,-1.33348 0.265,-2.46453 -0.41,-2.18502 -1.189,-1.58653 -1.562,1.20011 -0.277,2.0624 0.227,2.55377 1.297,1.26442 z m 3.269,0.13885 c 0.317,-0.31706 0.576,-1.10718 0.576,-1.75583 0,-1.14893 -0.02,-1.15692 -0.96,-0.30986 -0.528,0.47823 -0.96,1.26835 -0.96,1.75583 0,1.02037 0.515,1.13919 1.344,0.30986 z m -134.659,-1.26688 c 0.892,-0.93196 1.208,-1.65353 0.999,-2.28186 -0.699,-2.09606 -1.717,-4.04146 -2.114,-4.04146 -0.669,0 -2.411,2.69071 -2.411,3.7234 0,1.09451 1.35,3.96288 1.866,3.96288 0.195,0 0.942,-0.61333 1.66,-1.36296 z m 5.783,0.64591 c 0.799,-0.60576 0.835,-0.85816 0.301,-2.14648 -0.711,-1.7187 -1.005,-1.78549 -2.172,-0.49455 -0.762,0.84203 -0.792,1.11839 -0.234,2.16177 0.737,1.37744 0.877,1.40924 2.105,0.47926 z m 6.055,-7.42185 c 0,-1.74697 -1.285,-1.65163 -3.336,0.24759 -2.138,1.97864 -2.149,2.00794 -1.479,3.77205 l 0.467,1.22761 2.174,-2.11427 c 1.231,-1.19708 2.174,-2.55619 2.174,-3.13298 z m 122.559,1.67711 c -0.265,-1.38705 -0.317,-1.41087 -1.594,-0.72719 -1.055,0.565 -1.176,1.50606 -0.383,2.98833 l 0.546,1.0205 0.832,-1.02858 c 0.507,-0.62622 0.741,-1.50758 0.599,-2.25306 z m -130.836,-2.09449 c -1.131,-2.57443 -1.763,-2.9813 -2.761,-1.77839 -0.7,0.84402 -0.392,2.29273 0.948,4.46601 0.957,1.55086 0.989,1.56231 1.936,0.67995 l 0.963,-0.89747 z m 5.036,-1.47771 c 0.727,-0.65713 1.321,-1.42038 1.321,-1.69611 0,-0.82803 -2.071,-5.56402 -2.433,-5.56402 -0.653,0 -3.809,3.85681 -3.809,4.65363 0,0.44426 0.455,1.74816 1.011,2.89756 1.105,2.28411 1.061,2.28741 3.91,-0.29106 z m -10.69,0.30605 c 0,-0.19816 -0.317,-0.3603 -0.713,-0.3603 -0.813,0 -0.842,0.0842 -0.413,1.20197 0.244,0.63829 0.389,0.67054 0.713,0.15939 0.223,-0.35242 0.409,-0.8029 0.413,-1.00106 z m 15.845,0.72059 c -0.02,-1.19192 -0.68,-2.52206 -1.249,-2.52206 -0.824,0 -0.848,0.68037 -0.07,1.92808 0.592,0.94908 1.331,1.28179 1.318,0.59398 z m 119.516,-1.2878 c -0.126,-0.12638 -0.516,0.24678 -0.865,0.82925 -0.608,1.01186 -0.597,1.02209 0.229,0.22979 0.476,-0.45609 0.762,-0.93265 0.636,-1.05904 z m -1.171,-1.21505 c 0.64,-0.70813 0.773,-1.3632 0.533,-2.64216 -0.351,-1.87119 -0.784,-2.08419 -1.922,-0.94568 -0.775,0.7757 -0.978,2.42666 -0.463,3.76953 0.384,1.00134 0.821,0.95852 1.852,-0.18169 z m -131.55,-0.65987 c 0.6,-0.91662 0.633,-1.42032 0.18,-2.76225 -0.305,-0.90267 -0.634,-1.73452 -0.731,-1.84857 -0.1,-0.11405 -0.914,0.50886 -1.817,1.38424 l -1.641,1.59161 1.288,1.35487 c 1.583,1.66505 1.799,1.68727 2.721,0.2801 z m 11.771,-1.49276 c 0,-0.38073 -0.194,-0.81241 -0.431,-0.9593 -0.238,-0.14689 -0.692,-1.34928 -1.009,-2.67199 -0.65,-2.71037 -1.07,-3.18666 -1.915,-2.16863 -0.467,0.56265 -0.366,1.16152 0.501,2.99717 1.252,2.64779 1.842,3.49499 2.433,3.49499 0.232,0 0.421,-0.31151 0.421,-0.69224 z m -7.112,-3.87149 c 1.061,-1.1439 1.278,-1.73844 1.053,-2.88235 -0.489,-2.48753 -1.024,-2.50919 -3.299,-0.1337 l -2.141,2.23551 0.731,1.75105 c 0.814,1.94754 0.995,1.89934 3.656,-0.97051 z m -7.077,-0.0293 c 0.718,-1.09645 0.733,-1.44916 0.136,-3.24265 -0.376,-1.12737 -1.022,-2.08068 -1.471,-2.16769 -0.686,-0.13319 -0.8,0.32898 -0.8,3.24265 0,3.74742 0.661,4.4188 2.135,2.16769 z m 132.995,-0.16156 c 0.146,-0.23708 0.128,-1.11922 -0.04,-1.96032 -0.357,-1.78551 -1.111,-1.06669 -1.123,1.07029 0,1.28254 0.622,1.76449 1.163,0.89003 z m 2.11,-4.97351 c -0.563,-2.50827 -0.712,-2.65535 -1.693,-1.67329 -0.735,0.73497 -0.729,0.92987 0.08,2.7324 0.651,1.44347 1.027,1.81461 1.469,1.44798 0.437,-0.36273 0.474,-1.02516 0.141,-2.50709 z m -132.439,1.82997 c 0,-0.11651 -0.216,-0.34545 -0.48,-0.50874 -0.264,-0.1633 -0.48,-0.068 -0.48,0.21184 0,0.27981 0.216,0.50875 0.48,0.50875 0.264,0 0.48,-0.0953 0.48,-0.21185 z m 8.368,-0.69376 c 0.228,-0.36874 -0.528,-3.30144 -0.994,-3.85534 -0.09,-0.10847 -0.594,0.19079 -1.118,0.66503 -0.91,0.82335 -0.916,0.92434 -0.14,2.23888 0.808,1.36769 1.75,1.76554 2.252,0.95143 z m -5.949,-1.50957 1.367,-0.974 -1.508,-3.05478 -1.509,-3.05478 -1.574,1.74692 c -0.865,0.9608 -1.578,1.93681 -1.585,2.1689 -0.01,0.383 2.883,4.0048 3.276,4.10108 0.09,0.0224 0.781,-0.39764 1.533,-0.93334 z m 134.785,-3.04852 c 1.33,-1.44483 1.404,-1.78474 1.879,-8.60107 0.161,-2.31921 0.49,-4.33808 0.73,-4.4864 0.253,-0.15679 0.229,-0.51877 -0.06,-0.86478 -0.314,-0.37878 -0.339,-1.13531 -0.07,-2.08108 0.235,-0.81728 0.574,-4.0431 0.754,-7.16849 l 0.327,-5.68252 -1.533,-2.84622 c -2.121,-3.93812 -2.604,-4.37088 -7.475,-6.70018 -2.034,-0.97234 -2.639,-1.27737 -5.524,-2.78183 -2.655,-1.38429 -4.49,-0.92184 -7.476,1.88381 l -2.424,2.27775 0.05,4.56373 0.05,4.56372 1.639,-0.16457 c 0.902,-0.0905 1.943,-0.46882 2.315,-0.84068 0.372,-0.37187 0.822,-0.69331 1.002,-0.71432 0.179,-0.021 2.054,-0.21894 4.167,-0.43984 5.654,-0.59118 7.899,-1.19632 8.703,-2.34604 0.393,-0.56048 0.918,-1.01906 1.167,-1.01906 0.784,0 0.492,1.25632 -0.5,2.15473 -0.657,0.59478 -0.864,1.2143 -0.668,1.99603 0.231,0.92268 0.1,1.13355 -0.728,1.13355 -0.756,0 -1.012,0.29994 -1.012,1.18591 0,1.27662 1.136,1.26123 1.628,-0.0221 0.144,-0.37589 0.485,-0.68344 0.757,-0.68344 0.8,0 0.57,1.20807 -0.455,2.3908 -0.903,1.04129 -0.91,1.16524 -0.148,2.45558 0.694,1.17574 0.714,1.5234 0.149,2.57908 -0.878,1.64157 -0.383,1.97612 1.382,0.93336 2.319,-1.37104 2.265,-0.44663 -0.135,2.29882 -2.306,2.63708 -2.674,3.73784 -1.561,4.66201 0.499,0.41464 0.8,0.37122 1.259,-0.18138 0.331,-0.39958 0.792,-0.72651 1.024,-0.72651 0.774,0 0.433,1.44071 -0.539,2.27323 -1.092,0.93511 -1.165,1.45097 -0.464,3.2934 l 0.496,1.30565 0.963,-1.03418 c 1.137,-1.22124 1.405,-1.28238 1.405,-0.32006 0,0.39277 -1.188,2.11567 -2.64,3.82868 -2.838,3.34658 -2.93,3.61266 -2.086,6.03417 l 0.555,1.59289 0.912,-1.16091 c 0.501,-0.6385 1.483,-1.78207 2.182,-2.54127 z m -6.155,-0.48396 c 0.68,-1.27137 0.266,-3.33702 -0.611,-3.04881 -0.653,0.21484 -1.059,4.19254 -0.428,4.19254 0.235,0 0.702,-0.51468 1.039,-1.14373 z m -124.845,-0.0112 c 0.433,-0.52213 0.327,-1.36334 -0.467,-3.7228 -1.191,-3.53711 -1.673,-3.99235 -2.913,-2.75183 -0.884,0.88456 -1.257,2.82389 -0.543,2.82745 0.198,9.9e-4 0.759,0.97379 1.248,2.16177 0.914,2.22449 1.7,2.6608 2.675,1.48541 z m -8.562,-2.3279 c 0.307,-0.59448 0.946,-1.51323 1.421,-2.04167 0.772,-0.85849 0.794,-1.12701 0.204,-2.52205 -0.364,-0.85871 -0.834,-1.5534 -1.044,-1.54377 -0.672,0.0307 -3.024,3.46445 -3.024,4.41496 0,1.1436 0.846,2.77341 1.44,2.77341 0.246,0 0.697,-0.48639 1.003,-1.08088 z m 136.411,-1.51002 c 0.728,-1.00329 0.73,-3.1738 0,-3.1738 -0.514,0 -2.496,2.08822 -2.496,2.62981 0,0.56574 0.961,1.70465 1.417,1.67862 0.145,-0.008 0.63,-0.51888 1.077,-1.13463 z m -4.096,-2.33312 c -0.133,-0.33027 -0.242,-0.06 -0.242,0.60049 0,0.66054 0.109,0.93076 0.242,0.60049 0.133,-0.33027 0.133,-0.87071 0,-1.20098 z m 3.498,-3.72304 c 0,-0.39632 -0.184,-1.02776 -0.422,-1.40319 -0.71,-1.12325 -2.914,0.6001 -2.914,2.27897 0,2.21007 0.975,2.7184 2.243,1.16921 0.596,-0.72842 1.088,-1.64866 1.093,-2.04499 z m -131.05,1.80148 c 0.942,-1.15781 0.837,-3.44194 -0.209,-4.5704 -0.447,-0.48226 -0.842,-0.31593 -1.919,0.80852 l -1.355,1.41568 1.058,1.71354 c 0.582,0.94245 1.168,1.71354 1.303,1.71354 0.134,0 0.639,-0.4864 1.122,-1.08088 z m -5.954,-0.72059 c 0.847,-1.11686 0.846,-3.00245 0,-3.00245 -0.43,0 -0.735,0.68565 -0.853,1.92156 -0.204,2.14071 -0.07,2.30486 0.855,1.08089 z m 3.317,-4.80392 c 1.284,-1.4599 1.483,-2.51982 0.631,-3.37151 -0.427,-0.42802 -0.895,-0.10618 -1.97,1.35613 -1.148,1.56223 -1.3,2.04875 -0.821,2.62689 0.775,0.9341 0.808,0.92473 2.16,-0.61151 z m 131.923,-1.10818 c -0.28,-1.07422 -0.789,-1.195 -1.401,-0.333 -0.381,0.53682 -0.42,0.95919 -0.226,2.47641 0.03,0.23912 0.464,0.0647 0.963,-0.38758 0.54,-0.48878 0.809,-1.20099 0.664,-1.75583 z m 1.782,-2.25457 c 0,-0.33027 -0.317,-0.60049 -0.713,-0.60049 -0.782,0 -0.89,0.43945 -0.414,1.68236 0.245,0.63829 0.389,0.67054 0.713,0.15939 0.224,-0.35242 0.41,-0.91099 0.414,-1.24126 z m -135.394,-0.59969 c 1.05,-2.05889 0.901,-4.19293 -0.324,-4.66358 -1.078,-0.41361 -2.044,1.34176 -2.061,3.74203 -0.02,3.47176 0.902,3.82967 2.385,0.92155 z m 5.959,-3.36256 c -0.378,-1.65111 -0.533,-1.72139 -1.622,-0.73534 -1.295,1.17216 -1.618,2.41628 -0.951,3.66246 l 0.558,1.04283 1.144,-1.38498 c 0.805,-0.97307 1.063,-1.74186 0.871,-2.58497 z m 127.91,1.56029 c -0.09,-0.46238 -0.372,-0.84069 -0.629,-0.84069 -0.256,0 -0.539,0.37831 -0.628,0.84069 -0.102,0.52584 0.134,0.84069 0.628,0.84069 0.495,0 0.73,-0.31485 0.629,-0.84069 z m 1.355,-2.29159 c -0.163,-0.42447 -0.524,-0.63072 -0.803,-0.45835 -0.348,0.21524 -0.328,0.52938 0.07,1.00285 0.697,0.84107 1.143,0.51231 0.738,-0.5445 z m -131.546,-1.55155 c 0.784,-1.45085 0.876,-2.05859 0.476,-3.12255 -0.619,-1.64178 -0.944,-1.64998 -2.198,-0.0553 -1.119,1.42353 -1.198,1.98184 -0.527,3.74708 0.635,1.67117 1.102,1.55291 2.249,-0.56922 z m 4.485,-0.54877 c 0,-1.64627 -0.432,-2.13064 -1.276,-1.42991 -0.792,0.6577 -0.834,1.95704 -0.09,2.70411 0.798,0.79819 1.364,0.26948 1.364,-1.2742 z m 125.708,-1.1326 c -0.165,-1.71399 -0.73,-1.99863 -1.511,-0.76086 -0.366,0.58086 -0.331,1.00914 0.127,1.56128 1.001,1.20681 1.547,0.89099 1.384,-0.80042 z m -135.252,-0.20417 c -0.419,-0.72 -0.513,-0.74075 -0.525,-0.11609 -0.01,0.80902 0.49,1.53744 0.83,1.19698 0.112,-0.11229 -0.02,-0.59869 -0.305,-1.08089 z m 2.791,-2.82751 c 1.899,-2.64483 1.553,-3.45164 -0.488,-1.14168 -1.381,1.56267 -1.449,1.58684 -1.25,0.45032 0.115,-0.66054 0.531,-1.9576 0.925,-2.88235 0.624,-1.46723 0.628,-1.88941 0.03,-3.31478 -0.615,-1.46089 -0.764,-1.55635 -1.416,-0.9038 -1.107,1.10737 -1.4,6.00428 -0.49,8.18338 0.413,0.98995 0.834,1.7999 0.935,1.7999 0.1,0 0.89,-0.98594 1.755,-2.19099 z m 5.092,0.71865 c 0.48,-0.77838 -0.24,-3.89866 -0.853,-3.69413 -0.964,0.32139 -1.476,1.62725 -1.149,2.93036 0.323,1.28812 1.419,1.70638 2.002,0.76377 z m 126.018,-0.44923 c 0,-0.26421 -0.324,-0.48039 -0.72,-0.48039 -0.396,0 -0.72,0.21618 -0.72,0.48039 0,0.26422 0.324,0.4804 0.72,0.4804 0.396,0 0.72,-0.21618 0.72,-0.4804 z m -127.713,-4.81384 c 0.529,-0.98845 0.289,-1.91165 -0.497,-1.91165 -0.621,0 -1.529,1.85141 -1.182,2.41189 0.461,0.74643 1.117,0.55097 1.679,-0.50024 z m -1.587,-3.30531 c 0.42,-0.67301 0.437,-1.39641 0.06,-2.7498 l -0.507,-1.83654 -1.147,1.33432 c -1.083,1.25906 -1.106,1.41415 -0.416,2.7498 0.855,1.65466 1.229,1.74813 2.006,0.50222 z m 4.618,-1.05141 c 1.447,-2.2115 1.584,-2.83924 0.622,-2.83924 -0.935,0 -3.318,3.26636 -2.995,4.10684 0.432,1.1269 1.006,0.81995 2.373,-1.2676 z m 2.975,-4.17414 c -0.283,-1.12623 -0.384,-1.18657 -0.787,-0.46615 -0.311,0.55613 -0.273,1.1837 0.118,1.9135 0.713,1.33357 1.137,0.41725 0.669,-1.44735 z m -4.211,0.73441 c 0.93,-0.99722 0.956,-1.20497 0.33,-2.68405 -0.765,-1.80783 -1.403,-1.79357 -2.787,0.0623 -0.844,1.13012 -0.88,1.42351 -0.309,2.49177 0.8,1.49428 1.465,1.52556 2.766,0.12994 z m -5.122,-0.9744 c 0.616,-1.35259 -0.158,-3.70942 -1.218,-3.70942 -0.97,0 -1.392,1.89252 -0.78,3.50159 0.604,1.58982 1.334,1.66574 1.998,0.20783 z m 8.603,-1.62553 c 0,-1.22051 -1.833,-5.73034 -2.717,-6.68477 -1.085,-1.1715 -2.564,-1.56978 -2.564,-0.69046 0,0.50081 2.761,6.0729 3.515,7.09281 0.463,0.62654 1.766,0.83494 1.766,0.28242 z m 67.263,-1.14573 c 0.598,-0.32025 0.918,-1.00587 0.918,-1.96725 0,-1.08073 0.183,-1.40527 0.685,-1.21263 0.377,0.14467 0.971,-0.0835 1.32,-0.50712 0.501,-0.6064 0.508,-0.81313 0.04,-0.97226 -0.613,-0.20639 -0.863,-2.04361 -0.278,-2.04361 0.177,0 0.687,0.33035 1.133,0.73411 0.739,0.66896 0.928,0.57973 2.136,-1.00531 1.164,-1.52625 1.24,-1.82552 0.624,-2.44193 -0.616,-0.61641 -1.035,-0.43072 -3.423,1.51517 -2.215,1.80551 -2.776,2.07442 -3.016,1.4469 -0.163,-0.42392 -0.215,-0.83205 -0.117,-0.90694 0.1,-0.0749 1.211,-0.8622 2.471,-1.74956 2.186,-1.53922 2.613,-2.3622 1.43,-2.75654 -0.498,-0.16623 -2.126,1.38178 -3.659,3.47933 -0.35,0.47893 -0.886,0.7169 -1.19,0.52883 -0.819,-0.50679 -0.691,-0.91626 0.775,-2.4759 2.647,-2.81665 2.709,-2.96355 1.82,-4.32063 -0.943,-1.44066 -0.822,-3.33674 0.213,-3.33674 0.929,0 1.424,-0.6941 1.433,-2.00826 0,-0.71766 0.348,-1.0958 1.088,-1.20098 0.78,-0.1109 1.034,-0.42017 0.915,-1.11429 -0.09,-0.52844 -0.233,-1.02981 -0.314,-1.11417 -0.32,-0.33266 -1.983,1.04498 -3.122,2.58566 -1.402,1.89727 -2.649,2.23208 -2.124,0.57017 0.47,-1.48517 2.419,-3.97144 3.85,-4.90936 0.652,-0.4276 1.077,-0.95407 0.943,-1.16993 -0.638,-1.03279 -20.285,-1.78168 -24.275,-0.9253 -1.189,0.25503 -5.834,0.66596 -10.323,0.91318 -4.49,0.24721 -9.459,0.66417 -11.044,0.92659 -1.584,0.26241 -4.393,0.69478 -6.242,0.96083 -3.372,0.48531 -7.808,1.58787 -9.602,2.38653 -0.529,0.23508 -2.149,0.69056 -3.602,1.01217 -2.916,0.64581 -9.579,3.67576 -10.563,4.80357 -0.132,0.15138 -0.605,0.40998 -1.052,0.57467 -0.447,0.16469 -1.163,0.83502 -1.592,1.48963 -0.695,1.06227 -0.703,1.33612 -0.07,2.54788 1.319,2.52666 3.311,3.82841 8.477,5.53888 9.757,3.23073 11.181,3.55229 17.525,3.95757 1.849,0.11809 5.522,0.35078 8.163,0.5171 2.641,0.16632 6.314,0.50668 8.162,0.75637 1.849,0.24968 6.386,0.66947 10.083,0.93286 3.697,0.2634 7.262,0.52953 7.923,0.59141 2.9,0.27181 12.652,-0.18428 13.486,-0.6307 z m 5.43,-1.51387 c -0.712,-1.37694 -0.776,-1.39981 -1.666,-0.59393 -1.651,1.4948 -0.739,2.77718 1.581,2.2232 0.759,-0.18142 0.766,-0.31158 0.09,-1.62927 z m -78.693,0.0924 c 0.629,-1.2164 0.648,-1.63293 0.119,-2.64205 -0.59,-1.12645 -0.691,-1.15334 -1.694,-0.45026 -0.587,0.41124 -1.067,1.06733 -1.067,1.45796 0,0.66846 1.349,3.07841 1.723,3.07841 0.09,0 0.509,-0.64983 0.919,-1.44406 z m 88.105,-1.2541 c 0,-0.98813 -0.235,-1.61942 -0.6,-1.61019 -0.751,0.019 -3.241,2.17712 -3.241,2.80891 0,0.58087 1.327,0.87959 2.761,0.62131 0.869,-0.15661 1.08,-0.5124 1.08,-1.82003 z m -5.885,0.25915 c 0.131,-1.31317 -1.51,-3.56002 -2.261,-3.09539 -1.343,0.83036 -1.429,2.06191 -0.233,3.35303 1.388,1.49821 2.328,1.40113 2.494,-0.25764 z m 11.553,-0.27829 c 1.54,-0.97709 1.797,-1.96104 0.798,-3.0653 -1.228,-1.35758 -1.789,-1.16144 -1.424,0.49829 0.174,0.79264 0.122,1.44117 -0.116,1.44117 -0.553,0 -2.074,-1.83002 -3.024,-3.63823 -0.835,-1.58939 -2.513,-1.90266 -2.78,-0.51881 -0.133,0.6946 0.04,0.82118 0.786,0.58337 0.829,-0.26315 0.956,-0.0829 0.956,1.34985 0,0.90946 0.15,2.3351 0.333,3.16809 0.308,1.40391 0.443,1.49146 1.848,1.19876 0.834,-0.17367 2.014,-0.63141 2.623,-1.01719 z m 4.989,-0.95097 c 1.737,-1.20402 2.203,-2.04069 1.518,-2.72602 -0.324,-0.32363 -3.492,2.22686 -4.156,3.34569 -0.629,1.05875 0.651,0.75806 2.638,-0.61967 z m -13.854,-3.83529 c -0.681,-0.89299 -1.475,-1.47585 -1.778,-1.30422 -1.64,0.93116 -1.733,1.19676 -0.947,2.7311 1.077,2.10466 1.661,2.34453 2.891,1.18849 l 1.065,-1.00084 z m 21.202,1.54914 c 0.874,-0.67381 0.884,-0.74189 0.104,-0.75579 -1.131,-0.0202 -3.289,1.4132 -2.951,1.96014 0.28,0.45299 1.207,0.0609 2.847,-1.20435 z m -108.095,0.0553 c 0.686,-0.50203 0.749,-0.85442 0.343,-1.92157 -0.463,-1.21902 -1.48,-1.82814 -1.48,-0.88646 0,0.23119 -0.135,1.0959 -0.3,1.92157 -0.322,1.61025 0.1,1.86781 1.437,0.88646 z m 99.757,-0.89991 c 1.125,-1.29852 1.119,-1.49739 -0.08,-2.584 -0.952,-0.86183 -1.004,-0.85795 -2.011,0.14908 -0.926,0.92732 -0.966,1.15947 -0.382,2.25156 0.796,1.4877 1.31,1.52579 2.474,0.18336 z m 5.706,-2.07807 c -0.571,-0.68826 -0.745,-0.65681 -1.787,0.32181 -1.083,1.01826 -1.102,1.12246 -0.307,1.70368 0.714,0.5222 0.993,0.47183 1.786,-0.32181 0.793,-0.79301 0.841,-1.06079 0.308,-1.70368 z m -103.741,0.18886 c -0.295,-0.55106 -0.658,-0.88055 -0.806,-0.7322 -0.148,0.14835 0,0.59922 0.338,1.00193 0.863,1.04064 1.097,0.90601 0.468,-0.26973 z m 92.673,0.40144 c -0.03,-1.06551 -1.9,-2.95816 -2.416,-2.44237 -0.311,0.31132 -0.07,0.914 0.716,1.75827 1.316,1.4202 1.724,1.58454 1.7,0.6841 z m -5.245,-1.58539 c 0.51,-0.61517 0.479,-0.88374 -0.182,-1.54412 -0.718,-0.71909 -0.873,-0.72523 -1.536,-0.0612 -0.811,0.81085 -0.49,2.35 0.49,2.35 0.336,0 0.888,-0.33511 1.228,-0.7447 z m 18.906,0.45311 c 0.888,-0.34084 1.037,-2.84272 0.201,-3.35998 -0.323,-0.19955 -1.042,0.21615 -1.702,0.98399 -1.086,1.26343 -1.1,1.36202 -0.281,1.98327 1.035,0.78563 0.859,0.74697 1.782,0.39272 z m -23.728,-1.89853 c 0,-0.91656 0.251,-1.17262 1.149,-1.17262 0.632,0 1.274,-0.32427 1.426,-0.72059 0.477,-1.24319 -1.273,-0.82151 -3.206,0.7726 -1.675,1.3814 -1.747,1.54007 -0.955,2.11917 1.089,0.79698 1.586,0.48412 1.586,-0.99856 z m 12.964,0.20732 c 0,-0.2793 -0.409,-1.0278 -0.908,-1.66335 -0.876,-1.11349 -0.946,-1.12499 -1.938,-0.31597 l -1.029,0.83957 1.049,1.29942 c 0.838,1.0376 1.229,1.20358 1.938,0.82378 0.489,-0.26159 0.888,-0.70415 0.888,-0.98345 z m 5.527,1.01418 c 0.166,-0.26853 0.532,-0.34576 0.813,-0.17162 0.282,0.17413 0.01,-0.36279 -0.603,-1.19315 -1.298,-1.75592 -1.306,-1.75816 -2.462,-0.71118 -0.824,0.74621 -0.829,0.85642 -0.08,1.68137 0.883,0.97688 1.872,1.14393 2.335,0.39458 z m 10.239,-1.6225 c 0.09,-0.45657 -0.182,-1.5522 -0.6,-2.43475 -0.419,-0.88254 -0.761,-2.23408 -0.761,-3.00342 0,-2.33059 -2.594,-4.23982 -8.3,-6.10989 -2.667,-0.87408 -4.634,-0.99388 -2.744,-0.16709 0.66,0.28874 1.363,0.49122 1.561,0.44994 0.198,-0.0413 0.36,0.11727 0.36,0.35233 0,0.23505 0.969,0.71359 2.153,1.06341 4.22,1.24663 6.959,4.97367 6.967,9.47817 0,1.6815 1.054,1.96781 1.364,0.3713 z m -22.008,-1.22367 c 0,-1.15229 -0.554,-1.53701 -1.432,-0.99405 -0.551,0.34079 -0.558,0.54308 -0.04,1.16929 0.851,1.02664 1.47,0.95287 1.47,-0.17524 z m 15.584,-0.86707 c 0.309,-0.80582 -1.169,-2.52402 -2.172,-2.52402 -0.428,0 -1.179,0.44269 -1.669,0.98375 -0.872,0.96415 -0.863,1.00673 0.452,2.1371 1.113,0.957 1.495,1.05708 2.246,0.58786 0.498,-0.31102 1.012,-0.84413 1.143,-1.18469 z m -24.409,0.62153 c 0.147,-0.38367 0.134,-0.91467 -0.03,-1.18 -0.464,-0.75106 -1.708,-0.0459 -1.708,0.9682 0,1.06546 1.348,1.2297 1.738,0.2118 z m 17.468,-0.65177 c 0,-0.47794 -0.311,-1.2886 -0.691,-1.80147 -0.653,-0.88202 -0.736,-0.8878 -1.528,-0.10678 -0.797,0.78527 -0.795,0.87355 0.05,1.80148 1.094,1.20965 2.174,1.26269 2.174,0.10677 z m -6.002,-1.12076 c 0,-0.38977 -0.609,-1.43285 -1.353,-2.31796 l -1.354,-1.60929 -1.27,1.27056 c -1.028,1.02856 -1.153,1.38619 -0.657,1.87761 0.494,0.48975 0.709,0.43576 1.112,-0.27939 0.458,-0.8119 0.578,-0.75844 1.425,0.63573 0.926,1.52223 2.097,1.75843 2.097,0.42274 z m -13.365,-0.68472 c 0.159,-0.41409 0.05,-0.9886 -0.235,-1.2767 -0.693,-0.69362 -2.051,0.3895 -1.685,1.34411 0.352,0.91578 1.559,0.87337 1.92,-0.0674 z m 4.867,0.1764 c 1.452,-1.45287 -0.36,-2.91185 -1.893,-1.52395 -0.676,0.6122 -0.76,0.96026 -0.352,1.45276 0.665,0.80148 1.489,0.8276 2.245,0.0712 z m 17.388,-1.59947 c 0.565,-1.0548 0.546,-1.32009 -0.144,-2.01033 -0.69,-0.69024 -0.955,-0.70935 -2.01,-0.14484 -1.42,0.76041 -1.509,1.28778 -0.42,2.49182 1.084,1.19753 1.804,1.1033 2.574,-0.33665 z m 5.274,0.61013 c 0,-0.33277 -0.432,-0.87504 -0.96,-1.20505 -0.528,-0.33001 -0.96,-1.03054 -0.96,-1.55674 0,-0.71686 -0.322,-0.95671 -1.284,-0.95671 h -1.284 l 0.979,1.08088 c 0.538,0.59449 1.38,1.56728 1.871,2.16177 0.993,1.20407 1.638,1.39142 1.638,0.47585 z m -11.277,-0.84598 c 0.262,-0.42442 -0.313,-1.3251 -2.696,-4.21788 -0.396,-0.48145 -0.67,-0.49551 -1.193,-0.0613 -0.949,0.78809 -0.857,1.32236 0.546,3.16276 1.201,1.57437 2.742,2.08921 3.343,1.11639 z m -91.473,-1.64886 c 1.335,-1.0648 7.887,-3.63393 12.964,-5.08334 7.885,-2.25125 19.877,-4.13037 27.207,-4.2634 5.064,-0.0919 6.962,-0.33353 13.269,-1.68927 4.845,-1.04162 6.699,-1.78909 3.697,-1.49055 -1.189,0.11817 -4.322,0.34066 -6.962,0.49444 -2.641,0.15378 -8.151,0.79457 -12.244,1.42398 -4.093,0.62941 -9.819,1.38882 -12.724,1.68758 -10.668,1.0972 -20.986,3.8358 -24.643,6.54075 -1.849,1.36781 -3.416,3.05424 -3.435,3.69511 -0.01,0.40528 1.692,-0.37508 2.871,-1.3153 z m 77.622,0.42542 c 0.158,-0.41408 0.04,-0.9993 -0.259,-1.30049 -0.676,-0.67612 -2.277,0.70546 -1.769,1.52688 0.479,0.77581 1.695,0.64002 2.028,-0.22639 z m 5.884,-0.40703 1.089,-1.15991 -1.037,-0.5556 c -0.828,-0.44304 -1.275,-0.40045 -2.206,0.2102 -1.38,0.90485 -1.387,0.93637 -0.414,1.91032 1.004,1.00428 1.287,0.95969 2.568,-0.40501 z m 10.506,-1.33813 c 0.317,-0.31706 0.576,-0.8228 0.576,-1.12387 0,-0.76107 -2.146,-1.6624 -3.958,-1.6624 h -1.512 l 1.629,1.68137 c 1.747,1.80391 2.359,2.01097 3.265,1.1049 z m -13.708,-1.225 c 0.623,-0.69775 0.641,-0.94035 0.11,-1.42688 -0.508,-0.46546 -0.86,-0.40727 -1.712,0.28249 -0.606,0.49109 -0.922,1.11133 -0.727,1.42689 0.497,0.80438 1.465,0.68699 2.329,-0.2825 z m 5.641,-1.2185 c -0.132,-0.2078 0.08,-0.57435 0.467,-0.81457 1.003,-0.62026 0.595,-0.83629 -2.26,-1.19596 -1.382,-0.17418 -3.217,-0.51873 -4.078,-0.76565 -2.355,-0.67569 -3.154,-0.55058 -3.503,0.54804 -0.435,1.37158 0.187,1.83953 0.988,0.74334 0.499,-0.68286 0.983,-0.81945 2.001,-0.56547 0.739,0.18418 2.046,0.45119 2.904,0.59335 1.142,0.18915 1.561,0.51104 1.561,1.20012 0,0.70173 0.275,0.90253 1.08,0.78813 0.594,-0.0844 0.972,-0.32353 0.84,-0.53133 z m 2.881,-2.93353 c 0,-0.10384 -0.335,-0.31754 -0.745,-0.47489 -0.427,-0.16405 -0.62,-0.0835 -0.452,0.1888 0.282,0.45647 1.197,0.67516 1.197,0.28609 z m -2.189,-0.75226 c -0.565,-0.56541 -5.875,-1.95718 -8.011,-2.09997 -0.86,-0.0574 -1.803,-0.25531 -2.096,-0.4397 -0.69,-0.43451 -10.964,-1.63439 -13.151,-1.5359 -2.877,0.12951 -5.778,0.75902 -5.509,1.19508 0.142,0.22926 0.521,0.32535 0.843,0.21353 2.687,-0.93422 12.173,-0.21497 19.55,1.48232 3,0.69013 5.793,1.21732 8.379,1.58112 0.284,0.04 0.282,-0.10953 0,-0.39648 z m -72.967,153.6842 c -0.468,-0.75842 4.623,-5.88767 5.235,-5.2746 0.295,0.29426 -0.389,1.3784 -1.891,2.99862 -2.689,2.90163 -2.878,3.03027 -3.344,2.27598 z m 80.918,-12.46863 c 0,-0.26422 0.216,-0.4804 0.48,-0.4804 0.264,0 0.48,0.21618 0.48,0.4804 0,0.26421 -0.216,0.48039 -0.48,0.48039 -0.264,0 -0.48,-0.21618 -0.48,-0.48039 z m -33.37,-81.66667 c 0.163,-0.26422 0.5,-0.48039 0.749,-0.48039 0.248,0 0.451,0.21617 0.451,0.48039 0,0.26422 -0.337,0.48039 -0.748,0.48039 -0.412,0 -0.615,-0.21617 -0.452,-0.48039 z"
         id="path2" /></g></g></svg>
