<?xml version="1.0" encoding="UTF-8" standalone="no"?>
<!-- Created with Inkscape (http://www.inkscape.org/) -->

<svg
   width="231.38646"
   height="235.24007"
   viewBox="0 0 61.221 62.240601"
   version="1.1"
   id="svg1"
   xml:space="preserve"
   xmlns="http://www.w3.org/2000/svg"
   xmlns:svg="http://www.w3.org/2000/svg"><defs
     id="defs1" /><g
     id="g1286"
     transform="matrix(0.26458333,0,0,0.26458333,-3301.9752,-207.5956)"><path
       style="fill:#000000"
       d="m 12652.401,996.05068 c -2.44,-0.84325 -4.427,-2.30387 -6.557,-4.81977 -1.239,-1.46259 -4.59,-6.22437 -4.59,-6.52141 0,-0.12201 -1.362,-2.01312 -3.027,-4.20247 -4.755,-6.25147 -6.908,-9.80272 -12.182,-20.08949 -1.695,-3.30592 -3.272,-6.33535 -3.504,-6.73206 -0.232,-0.39671 -1.461,-2.88516 -2.732,-5.5299 -1.27,-2.64474 -2.77,-5.56597 -3.332,-6.49163 -0.561,-0.92566 -3.094,-5.68618 -5.627,-10.57895 -2.533,-4.89276 -5.16,-9.86967 -5.837,-11.0598 -0.677,-1.19014 -1.374,-2.48846 -1.548,-2.88517 -1.227,-2.79396 -6.279,-12.8604 -7.843,-15.62799 -1.046,-1.85132 -2.245,-4.01519 -2.664,-4.80861 -0.419,-0.79343 -1.239,-2.24809 -1.823,-3.2326 -0.584,-0.98451 -2.357,-4.01394 -3.941,-6.73206 -1.583,-2.71812 -3.539,-5.6994 -4.347,-6.62506 -0.807,-0.92566 -1.831,-2.26167 -2.274,-2.96891 -1.171,-1.86687 -2.588,-2.16347 -4,-0.83678 -1.803,1.69555 -5.46,1.98715 -8.28,0.66028 -2.627,-1.23632 -6.354,-5.66794 -8.995,-10.69479 -0.933,-1.7767 -2.284,-4.25147 -3.002,-5.49947 -4.119,-7.16299 -5.319,-9.39364 -5.634,-10.47372 -0.872,-2.98876 -5.789,-11.98801 -8.29,-15.17586 -1.518,-1.93303 -3.61,-4.88123 -4.649,-6.55155 -1.04,-1.67032 -2.606,-3.92245 -3.48,-5.00472 -1.71,-2.11739 -1.656,-2.60828 0.284,-2.58644 0.97,0.0109 1.872,0.82222 4.125,3.71251 1.586,2.0342 3.816,4.75526 4.956,6.04679 1.14,1.29154 1.968,2.45319 1.84,2.58145 -0.289,0.28869 -2.632,-2.30176 -6.499,-7.18546 -1.624,-2.04967 -3.165,-3.72668 -3.426,-3.72668 -0.73,0 -0.591,0.37891 0.967,2.64474 0.792,1.1532 1.441,2.22625 1.441,2.38457 0,0.15831 1.865,2.82416 4.145,5.92412 2.28,3.09996 5.003,7.47558 6.051,9.72361 4.122,8.83832 5.629,11.85006 6.765,13.51954 0.651,0.95614 2.423,4.0919 3.938,6.96836 1.514,2.87645 3.325,5.90648 4.023,6.7334 0.698,0.82691 1.847,2.25675 2.554,3.17742 1.834,2.39151 4.262,3.4189 7.451,3.15421 1.964,-0.16297 2.774,-0.46894 3.325,-1.2562 0.491,-0.70023 1.235,-1.04075 2.274,-1.04075 1.278,0 1.705,0.29596 2.466,1.71044 0.507,0.94074 1.45,2.28128 2.096,2.97897 2.444,2.63925 12.943,21.03473 20.521,35.95756 4.33,8.52729 8.345,16.34028 8.921,17.36221 0.577,1.02192 2.011,3.69734 3.187,5.94536 1.177,2.24803 2.878,5.30576 3.781,6.79496 0.902,1.4892 1.641,2.8716 1.641,3.07199 0,0.2004 2.234,4.82442 4.964,10.27562 5.187,10.35539 7.849,14.65202 17.72,28.59459 4.163,5.87953 7.638,8.48533 11.318,8.48533 2.536,0 6.193,-2.35331 7.125,-4.5855 0.869,-2.08232 1.083,-5.92918 0.354,-6.38058 -0.296,-0.18379 -1.075,-1.52429 -1.731,-2.97889 -0.656,-1.45461 -2.028,-3.52991 -3.05,-4.61178 -3.173,-3.35797 -7.982,-9.25416 -10.888,-13.34823 -1.53,-2.15555 -3.422,-4.67061 -4.205,-5.58903 -0.783,-0.91842 -1.423,-1.90938 -1.423,-2.20215 0,-0.29276 -1.143,-1.8134 -2.539,-3.37919 -3.383,-3.79235 -5.043,-6.0288 -7.468,-10.05982 -1.114,-1.85131 -3.206,-4.98893 -4.648,-6.97248 -1.443,-1.98356 -2.772,-3.93104 -2.954,-4.32776 -0.183,-0.39671 -0.916,-1.47864 -1.629,-2.4043 -1.53,-1.98397 -12.96,-20.6376 -12.96,-21.14945 0,-0.19305 -0.752,-1.33536 -1.67,-2.53846 -1.695,-2.22195 -9.516,-14.85358 -12.725,-20.55133 -0.968,-1.71907 -2.389,-4.09934 -3.159,-5.28947 -0.769,-1.19013 -2.209,-3.77796 -3.2,-5.75074 -1.702,-3.39152 -1.756,-3.63568 -0.989,-4.48329 1.183,-1.30833 1.365,-6.56582 0.36,-10.443 -1.79,-6.91407 -10.109,-21.9191 -15.302,-27.60086 -0.75,-0.82018 -2.548,-3.97971 -3.997,-7.02115 -3.699,-7.76952 -6.468,-13.05336 -7.511,-14.33601 -0.418,-0.51448 -0.591,-0.49247 -0.933,0.11883 -0.499,0.8919 0.555,3.44321 3.29,7.96598 2.152,3.55995 3.203,5.79263 2.878,6.11759 -0.123,0.12264 -0.833,-0.97558 -1.58,-2.44047 -0.746,-1.4649 -2.319,-4.49521 -3.494,-6.73404 -1.945,-3.70384 -2.097,-4.23361 -1.682,-5.88 0.508,-2.01747 1.657,-2.81856 1.657,-1.15525 0,0.57628 0.404,1.62215 0.899,2.32416 1.011,1.43511 5.633,10.46394 7.423,14.50007 0.645,1.4546 2.639,4.59222 4.43,6.97249 6.89,9.15338 12.117,18.70222 14.214,25.96549 1.655,5.73685 1.775,8.87729 0.42,11.07048 l -0.967,1.56576 0.962,2.09746 c 0.937,2.04458 1.425,2.91721 3.872,6.92429 1.757,2.87832 2.047,3.3661 5.355,9.02339 1.671,2.85709 5.201,8.53936 7.844,12.62725 7.843,12.13023 9.456,14.6992 11.452,18.23958 1.809,3.2096 4.154,6.81956 11.646,17.93079 1.833,2.71947 3.55,5.31835 3.814,5.77529 0.265,0.45695 1.887,2.6501 3.605,4.87369 1.718,2.22358 3.921,5.07601 4.897,6.33872 0.976,1.26271 2.994,4.09351 4.485,6.29067 1.491,2.19716 3.631,5.07678 4.755,6.39915 1.124,1.32236 3.092,3.70263 4.375,5.28947 1.282,1.58684 2.706,3.15549 3.163,3.48589 0.458,0.33039 1.325,1.41233 1.928,2.4043 0.602,0.99198 1.215,1.91178 1.361,2.04402 0.146,0.13224 0.806,1.31474 1.467,2.62778 0.897,1.78268 1.199,3.1358 1.193,5.34242 -0.01,3.81317 -1.63,6.34938 -5.186,8.12273 -2.882,1.43708 -2.751,1.43038 -6.005,0.30576 z m 0.376,-5.75788 c -1.979,-1.63493 -4.089,-5.13702 -3.364,-5.58497 0.923,-0.57118 0.492,-1.99652 -1.204,-3.9794 -1.904,-2.22559 -3.302,-2.87676 -4.335,-2.01901 -1.126,0.93482 -0.827,2.2594 0.624,2.76996 1.124,0.39565 1.195,0.51715 0.474,0.81516 -1.948,0.80531 -3.157,-2.65472 -1.505,-4.30754 0.792,-0.79286 2.087,-0.64662 3.606,0.40739 1.439,0.99877 3.312,3.55515 3.312,4.52138 0,0.52859 0.326,1.0864 0.725,1.23958 0.399,0.15317 0.698,0.4468 0.664,0.65252 -0.267,1.6258 1.201,3.01876 3.18,3.01876 0.991,0 2.639,-1.94222 2.639,-3.10927 0,-1.43213 -1.266,-3.04999 -2.527,-3.22925 -0.691,-0.0982 -1.132,-0.54122 -1.231,-1.23504 -0.08,-0.59507 -0.437,-1.08194 -0.784,-1.08194 -0.756,0 -2.865,-2.67012 -3.369,-4.26757 -0.243,-0.76674 -0.147,-1.27783 0.291,-1.55544 1.036,-0.65716 2.334,-0.49421 2.334,0.2931 0,0.39672 -0.324,0.7213 -0.721,0.7213 -1.081,0 -0.868,1.62092 0.361,2.74708 0.594,0.5452 1.982,1.44357 3.083,1.99638 2.016,1.0124 4.005,3.24451 4.005,4.49544 0,0.37145 0.317,1.09541 0.706,1.60878 0.813,1.07577 0.977,3.57815 0.235,3.57815 -0.275,0 -0.978,0.45356 -1.562,1.0079 -0.977,0.92808 -2.81,1.87727 -3.626,1.87727 -0.187,0 -1.092,-0.62132 -2.011,-1.38072 z m 5.417,-1.42447 c 1.322,-1.22197 1.788,-2.96514 0.793,-2.96514 -0.29,0 -1.134,0.64916 -1.874,1.44258 -0.829,0.88711 -1.828,1.44258 -2.596,1.44258 -1.535,0 -1.637,0.8485 -0.168,1.3949 1.359,0.50549 2.179,0.22525 3.845,-1.31492 z m -11.807,-14.20042 c -1.202,-1.83545 -3.12,-2.99281 -3.812,-2.30032 -0.699,0.69916 -1.802,0.71734 -1.802,0.0297 0,-0.28744 0.649,-0.76766 1.442,-1.06714 0.945,-0.35683 1.444,-0.88111 1.449,-1.52103 0,-1.17678 0.781,-2.5116 1.207,-2.08571 0.168,0.16804 0.06,0.77375 -0.251,1.34601 -0.64,1.19575 -0.331,2.40792 0.613,2.40792 1.021,0 2.648,2.5223 2.289,3.54702 -0.286,0.81697 -0.388,0.78506 -1.135,-0.35646 z m -5.869,-7.0616 c -0.457,-0.73932 0.169,-1.21632 0.786,-0.59914 0.345,0.34534 0.353,0.61431 0.02,0.81729 -0.269,0.1664 -0.634,0.0682 -0.811,-0.21815 z m -2.148,-3.62238 c 0,-0.84917 1.035,-0.70129 1.332,0.19034 0.105,0.31406 -0.152,0.57102 -0.571,0.57102 -0.418,0 -0.761,-0.34261 -0.761,-0.76136 z m -1.441,-2.12381 c 0,-0.26447 0.216,-0.48086 0.48,-0.48086 0.265,0 0.481,0.21639 0.481,0.48086 0,0.26448 -0.216,0.48087 -0.481,0.48087 -0.264,0 -0.48,-0.21639 -0.48,-0.48087 z m -4.855,-1.53471 c -1.09,-2.03662 -1.267,-3.48949 -0.59,-4.8367 0.952,-1.89613 3.543,-1.8568 5.482,0.0832 0.772,0.77308 1.395,1.58453 1.384,1.80323 -0.03,0.54677 -3.251,2.56151 -4.098,2.56151 -0.378,0 -0.687,0.32458 -0.687,0.72129 0,1.06452 -0.845,0.87616 -1.491,-0.33256 z m 2.372,-2.8566 c 0.09,-0.22951 0.574,-0.4173 1.081,-0.4173 1.052,0 1.182,-0.50795 0.344,-1.34641 -0.946,-0.94721 -3.169,-0.69816 -3.768,0.42226 -0.78,1.45905 -0.23,2.50928 1.099,2.0959 0.596,-0.18543 1.156,-0.52494 1.244,-0.75445 z m -4.966,-5.70677 c -0.192,-0.31056 -0.133,-0.78105 0.132,-1.04552 0.32,-0.32058 0.597,-0.29264 0.829,0.0838 0.192,0.31056 0.133,0.78104 -0.132,1.04552 -0.32,0.32057 -0.597,0.29264 -0.829,-0.0838 z m -1.682,-3.84689 c 0,-0.26448 0.216,-0.48086 0.48,-0.48086 0.265,0 0.481,0.21638 0.481,0.48086 0,0.26447 -0.216,0.48086 -0.481,0.48086 -0.264,0 -0.48,-0.21639 -0.48,-0.48086 z m -1.442,-2.40431 c 0,-0.26447 0.216,-0.48086 0.481,-0.48086 0.264,0 0.48,0.21639 0.48,0.48086 0,0.26448 -0.216,0.48086 -0.48,0.48086 -0.265,0 -0.481,-0.21638 -0.481,-0.48086 z m -68.71,-92.63035 c -1.762,-1.48292 -4.548,-5.47774 -6.664,-9.55266 -1.291,-2.48677 -2.882,-5.26934 -4.881,-8.53529 -0.764,-1.24876 0.253,-1.02129 1.075,0.24043 0.387,0.59507 1.848,3.24581 3.246,5.89055 4.089,7.73463 6.694,11.30024 8.258,11.30024 0.482,0 0.873,-0.16229 0.869,-0.36065 -0.02,-0.63286 -2.55,-4.58631 -5.323,-8.30116 -1.478,-1.98008 -3.808,-5.76403 -5.178,-8.40876 -1.369,-2.64474 -4.317,-7.2396 -6.55,-10.2108 -3.338,-4.44074 -3.992,-5.58858 -3.674,-6.44948 0.292,-0.78941 0.868,-1.0921 2.339,-1.22924 1.888,-0.17608 1.993,-0.10779 3.279,2.12173 1.678,2.90933 5.503,10.31617 5.503,10.65557 0,0.58202 -0.984,-0.82114 -2.316,-3.30286 -3.431,-6.39098 -4.473,-8.09553 -5.096,-8.33473 -1.087,-0.41723 -2.68,0.21353 -2.672,1.05768 0,0.43199 1.509,2.7942 3.343,5.24937 1.834,2.45518 4.667,6.9851 6.296,10.06651 1.628,3.08141 3.986,6.83589 5.24,8.34328 1.254,1.5074 2.972,3.95139 3.818,5.43111 0.846,1.47971 1.741,2.81592 1.989,2.96936 0.249,0.15343 0.452,0.80717 0.452,1.45274 0,1.58482 -1.407,1.54583 -3.353,-0.0929 z m 4.613,-4.14297 c -1.131,-1.02314 -7.027,-9.23973 -7.027,-9.79224 0,-0.14228 -0.919,-1.48972 -2.043,-2.99433 -2.11,-2.82704 -3.244,-4.63944 -3.244,-5.18814 0,-0.52273 2.983,3.55445 7.155,9.77904 2.164,3.22824 4.504,6.31796 5.2,6.86606 1.902,1.49707 2.373,0.4804 0.877,-1.89176 -0.698,-1.10523 -2.897,-5.18736 -4.887,-9.07141 -1.99,-3.88404 -3.925,-7.40351 -4.3,-7.82104 -0.374,-0.41754 -0.681,-0.86748 -0.681,-0.99986 0,-0.31072 -3.717,-6.76433 -5.437,-9.4389 -1.491,-2.32022 -1.375,-2.80053 0.915,-3.75785 2.039,-0.85241 2.12,-0.84585 2.12,0.17272 0,0.46472 1.54,3.65644 3.424,7.0927 1.883,3.43627 3.934,7.24637 4.558,8.4669 0.623,1.22052 1.462,2.49125 1.862,2.82383 0.4,0.33258 0.728,0.79038 0.728,1.01734 0,0.22695 0.775,1.62491 1.722,3.10658 0.948,1.48167 1.62,2.79665 1.495,2.92219 -0.28,0.28021 -2.158,-2.24607 -3.457,-4.65078 -0.529,-0.97861 -1.476,-2.72799 -2.106,-3.8875 -0.629,-1.15952 -2.111,-3.60884 -3.291,-5.44294 -1.181,-1.8341 -2.867,-4.97172 -3.747,-6.97249 -1.165,-2.64885 -1.871,-3.67961 -2.598,-3.79171 -0.586,-0.0905 -1.122,0.16976 -1.299,0.63175 -0.323,0.84249 -0.04,1.49121 2.364,5.40993 4.528,7.38491 6.229,10.3577 8.045,14.06801 3.218,6.57008 5.155,9.8472 5.916,10.00437 0.844,0.17442 1.44,2.20284 1.028,3.50064 -0.391,1.23376 -1.828,1.16345 -3.292,-0.16111 z m 5.965,-2.7486 c -1.181,-1.18102 -3.517,-4.84858 -3.256,-5.11003 0.107,-0.10681 0.893,0.77918 1.746,1.96887 0.971,1.35188 1.921,2.16308 2.536,2.16308 0.745,0 0.9,-0.20323 0.641,-0.84151 -0.187,-0.46282 -0.56,-1.44794 -0.828,-2.18914 -0.268,-0.7412 -1.871,-3.98701 -3.563,-7.21292 -1.691,-3.2259 -4.182,-8.13454 -5.535,-10.90807 -1.353,-2.77354 -3.325,-6.41456 -4.383,-8.09116 -1.765,-2.7951 -1.861,-3.11234 -1.155,-3.81821 0.984,-0.98427 2.833,-0.24593 3.768,1.50431 0.353,0.65935 1.722,2.99833 3.044,5.19774 1.321,2.1994 2.486,4.2153 2.589,4.47978 0.102,0.26447 1.36,3.15278 2.796,6.41846 1.436,3.26568 2.493,6.05464 2.351,6.19767 -0.143,0.14304 -0.496,-0.36501 -0.784,-1.12899 -0.926,-2.45989 -7.152,-15.23036 -8.938,-18.33638 -0.828,-1.43869 -1.999,-1.98681 -2.714,-1.27065 -0.163,0.16235 0.807,2.38033 2.154,4.92883 1.347,2.5485 3.426,6.58113 4.619,8.96139 2.11,4.20811 4.705,7.81221 5.457,7.57835 0.204,-0.0635 0.615,0.34128 0.913,0.89948 0.869,1.62385 2.953,3.78413 3.651,3.78413 0.37,0 0.641,-0.52886 0.641,-1.2536 0,-0.94556 0.187,-1.18188 0.76,-0.96172 0.418,0.16053 0.851,0.29188 0.961,0.29188 0.111,0 0.201,0.75735 0.201,1.68301 0,1.46831 -0.151,1.68302 -1.184,1.68302 -0.652,0 -1.926,-0.65073 -2.831,-1.44606 -2.069,-1.81737 -2.405,-1.15275 -1.218,2.40778 0.484,1.4546 0.887,2.80703 0.895,3.00538 0.03,0.75138 -2.43,0.32035 -3.334,-0.58472 z m -11.07,-32.20568 c 0,-0.56735 -0.937,-1.17426 -1.281,-0.82981 -0.345,0.34444 0.262,1.28229 0.829,1.28229 0.249,0 0.452,-0.20361 0.452,-0.45248 z m 15.216,22.69231 c -0.624,-0.99177 -1.505,-2.56058 -1.957,-3.48624 l -0.822,-1.68301 0.972,1.20215 c 1.179,1.45925 3.575,5.77033 3.207,5.77033 -0.146,0 -0.775,-0.81145 -1.4,-1.80323 z m -3.507,-5.97877 c -0.659,-1.03867 -2.561,-5.85906 -2.383,-6.03786 0.09,-0.091 0.857,1.27004 1.703,3.02453 0.846,1.75448 1.435,3.29267 1.31,3.41819 -0.126,0.12551 -0.409,-0.0567 -0.63,-0.40486 z"
       id="path1" /></g></svg>
