<?xml version="1.0" encoding="UTF-8" standalone="no"?>
<!-- Created with Inkscape (http://www.inkscape.org/) -->

<svg
   width="61.221001mm"
   height="62.240601mm"
   viewBox="0 0 61.221 62.240601"
   version="1.1"
   id="svg1"
   xml:space="preserve"
   xmlns="http://www.w3.org/2000/svg"
   xmlns:svg="http://www.w3.org/2000/svg"><defs
     id="defs1" /><g
     id="layer1"
     transform="translate(1472.671,3650.7208)"><g
       id="g1628"
       transform="matrix(0.26458333,0,0,0.26458333,-5422.5773,-3734.5355)"><path
         style="fill:#000000"
         d="m 14993.455,521.02853 c -3.179,-0.8882 -4.367,-1.46912 -5.33,-2.60578 -0.681,-0.80451 -1.483,-1.46275 -1.783,-1.46275 -0.816,0 -1.166,-2.81966 -0.671,-5.39511 0.331,-1.72034 0.211,-3.47598 -0.494,-7.2 -1.327,-7.00741 -1.796,-10.70781 -1.814,-14.31315 0,-1.76616 -0.28,-3.48457 -0.617,-3.91434 -0.331,-0.42134 -1.733,-0.9991 -3.116,-1.28391 -1.383,-0.28481 -3.329,-0.95336 -4.324,-1.48567 -0.996,-0.5323 -2.094,-0.96782 -2.439,-0.96782 -1.033,0 -4.126,-1.74639 -5.23,-2.95329 -1.485,-1.62265 -1.8,-3.77779 -0.948,-6.48888 1.02,-3.2465 1.877,-5.42249 2.851,-7.23783 0.46,-0.858 0.729,-1.56 0.597,-1.56 -0.132,0 0.413,-1.134 1.211,-2.52 1.907,-3.31523 3.043,-5.85708 4.739,-10.60621 1.331,-3.72924 3.643,-8.27387 6.426,-12.63391 0.703,-1.10006 1.424,-2.61206 1.603,-3.36 0.18,-0.74793 0.487,-1.57588 0.683,-1.83988 0.195,-0.264 0.07,-2.1 -0.288,-4.08 -0.882,-4.93028 -0.837,-9.9872 0.122,-13.79436 0.741,-2.94515 1.078,-3.45798 4.364,-6.64011 l 3.56,-3.44845 -2.017,0.36784 c -3.546,0.64661 -5.544,0.10124 -6.928,-1.89074 -1.289,-1.8551 -1.552,-3.13713 -0.746,-3.63418 0.661,-0.40725 0.606,-5.04217 -0.09,-7.63876 -1.353,-5.04626 3.257,-13.84127 8.574,-16.35763 5.628,-2.66329 17.95,1.68709 18.004,6.35639 0,0.726 0.333,1.73928 0.722,2.25174 0.389,0.51246 0.707,1.30446 0.707,1.76 0,0.45554 0.27,0.93782 0.601,1.07172 0.453,0.1831 0.423,0.36787 -0.12,0.74535 -0.595,0.41336 -0.616,0.67267 -0.12,1.47003 0.867,1.3963 0.746,2.24899 -0.482,3.39021 -0.92,0.85513 -1.064,1.4294 -0.96,3.81962 0.104,2.40344 -0.05,3.02122 -1.083,4.24155 -0.663,0.7856 -1.205,1.64373 -1.205,1.90695 0,0.26323 -0.825,0.80758 -1.833,1.20968 -2.6,1.03764 -3.134,1.84669 -2.743,4.15595 0.237,1.39644 0.865,2.43784 2.254,3.73661 1.059,0.99032 2.365,2.72217 2.902,3.84854 1.088,2.27969 1.183,4.54057 0.938,22.19205 -0.153,11.01567 -0.02,11.67223 3.877,19.06563 2.108,3.99847 3.374,7.27968 4.465,11.56808 0.743,2.91977 0.734,3.13609 -0.247,5.76 -1.06,2.83513 -2.597,4.88629 -3.662,4.88629 -0.34,0 -1.114,0.51496 -1.721,1.14436 -0.606,0.62939 -1.914,1.40214 -2.907,1.71722 l -1.805,0.57287 -0.03,4.88277 c -0.02,2.68553 -0.244,5.96278 -0.508,7.28278 -0.263,1.32 -0.6,4.5056 -0.749,7.0791 -0.305,5.28102 0.214,6.74843 2.593,7.31889 0.736,0.17677 2.314,1.022 3.505,1.87828 1.795,1.28973 2.192,1.85829 2.315,3.31354 0.117,1.37906 -0.125,2.03006 -1.126,3.0284 -1.226,1.22272 -1.431,1.26206 -5.308,1.02082 -3.699,-0.23014 -4.057,-0.17318 -4.331,0.68815 -0.386,1.21319 -3,2.79845 -4.545,2.7568 -0.662,-0.0178 -3.044,-0.5468 -5.294,-1.17545 z m 7.15,-1.61595 c 0.795,-0.50221 0.297,-2.45258 -0.626,-2.45258 -0.347,0 -0.887,-0.3079 -1.2,-0.68423 -0.313,-0.37633 -1.375,-1.0816 -2.359,-1.56727 -1.507,-0.7434 -1.978,-0.78813 -2.979,-0.28284 -0.654,0.3301 -2.002,0.60337 -2.994,0.60726 -0.993,0.004 -1.805,0.18235 -1.805,0.39657 0,0.72923 1.959,2.49046 2.786,2.50403 0.453,0.007 2.015,0.42428 3.471,0.92633 2.92,1.00714 4.713,1.18073 5.706,0.55273 z m 10.085,-2.92603 c 0.346,-0.004 0.496,-0.22255 0.332,-0.48655 -0.163,-0.264 -0.07,-0.48 0.213,-0.48 1.198,0 0.356,-1.34922 -1.488,-2.38247 -1.596,-0.89492 -2.172,-1.01005 -2.871,-0.57445 -1.478,0.92064 -4.797,1.47821 -6.026,1.01232 -0.626,-0.2374 -1.138,-0.24743 -1.138,-0.0223 0,0.6754 1.365,1.59191 1.89,1.2686 0.268,-0.16552 1.198,0.0859 2.066,0.55867 1.864,1.01501 4.086,1.54422 5.429,1.29288 0.53,-0.0991 1.246,-0.1831 1.593,-0.18671 z m -12.665,-6.60655 c -0.173,-3.26311 -0.698,-6.69428 -1.633,-10.68 -0.279,-1.188 -0.513,-3.006 -0.519,-4.04 -0.01,-2.10917 -0.427,-2.10063 -0.703,0.0145 -0.1,0.76201 -0.542,4.00128 -0.982,7.19836 -0.784,5.6865 -0.78,5.84694 0.154,7.37947 0.734,1.20255 3.13,3.34074 3.77,3.36449 0.05,0.002 0,-1.45484 -0.09,-3.23684 z m -6.425,-1.12801 c -0.1,-2.13841 0.06,-5.10841 0.345,-6.6 0.716,-3.72456 1.241,-13.50762 0.726,-13.53107 -3.215,-0.14632 -5.445,-0.38545 -6.389,-0.68488 l -1.156,-0.36698 0.287,4.73547 c 0.169,2.79633 0.788,6.50448 1.511,9.05547 0.743,2.62022 1.227,5.56336 1.23,7.48 0,1.738 0.151,3.304 0.327,3.48 0.177,0.176 0.991,0.32 1.809,0.32 h 1.487 z m 11.958,2.45022 c 0.815,-0.43491 0.833,-0.60149 0.206,-1.85615 -0.964,-1.92717 -0.953,-7.80712 0.02,-11.82606 1.063,-4.37861 1.521,-11.51808 0.769,-11.98152 -0.305,-0.18762 -0.815,-0.13689 -1.134,0.11274 -0.32,0.24963 -1.598,0.8331 -2.841,1.29661 -1.766,0.65858 -2.31,1.11911 -2.487,2.10745 -0.547,3.05119 -0.21,7.60294 0.903,12.18155 0.658,2.70774 1.196,5.95613 1.196,7.21864 0,1.93155 0.173,2.36429 1.084,2.72957 1.412,0.56588 1.256,0.56471 2.282,0.0172 z m -7.271,-25.40626 c 0.957,-0.24422 2.606,-0.66924 3.665,-0.94448 2.16,-0.56142 7.461,-4.22836 7.461,-5.16116 0,-0.53369 2.734,-1.60038 4.121,-1.60763 0.878,-0.005 2.957,-2.56377 3.524,-4.33831 0.298,-0.93259 0.445,-2.33659 0.327,-3.12 -0.508,-3.35418 -2.208,-8.26741 -3.535,-10.21608 -1.106,-1.62415 -4.297,-8.97515 -4.728,-10.88829 -0.178,-0.792 -0.484,-1.656 -0.68,-1.92 -0.794,-1.07011 -2.939,-8.12083 -2.723,-8.9476 0.191,-0.72907 0.03,-0.83698 -0.903,-0.60347 -0.625,0.1564 -2.011,0.31737 -3.08,0.35772 -1.069,0.0403 -1.945,0.10118 -1.947,0.1352 0,0.034 0.756,1.3173 1.682,2.85176 0.927,1.53445 1.685,3.26836 1.685,3.85312 0,0.58476 0.867,3.62147 1.928,6.74824 2.154,6.34917 2.826,10.48083 1.965,12.08454 -0.787,1.46699 -3.949,1.45579 -5.327,-0.0189 -1.009,-1.07989 -2.043,-4.09968 -2.051,-5.98725 0,-0.71656 -0.477,-1.24171 -1.502,-1.66528 -1.662,-0.6864 -3.303,-2.32175 -4.465,-4.44976 -0.858,-1.57228 -3.138,-9.48334 -2.822,-9.79753 0.111,-0.11139 -0.119,-0.82314 -0.513,-1.58167 -1.004,-1.93651 -2.655,-1.82845 -4.404,0.28826 -1.958,2.36883 -5.24,8.36517 -5.66,10.34051 -0.196,0.91965 -1.957,4.99558 -3.914,9.05762 -1.956,4.06205 -3.559,7.51805 -3.56,7.68 0,0.16196 -0.537,1.59047 -1.192,3.17447 -0.654,1.584 -1.194,3.4263 -1.201,4.094 -0.02,1.69749 2.838,4.47862 5.373,5.23598 1.137,0.33993 2.497,0.91774 3.021,1.28404 0.525,0.36629 1.54,0.66598 2.257,0.66598 0.717,0 2.889,0.84146 4.827,1.8699 3.128,1.66055 3.92,1.87552 7.076,1.92 1.955,0.0276 4.338,-0.14972 5.295,-0.39395 z m 6.778,-26.73348 c -0.636,-2.26593 -1.311,-2.59696 -2.539,-1.24477 -1.19,1.31235 -0.1,4.67144 1.338,4.12104 0.351,-0.1343 0.817,0.0405 1.037,0.38854 0.701,1.11394 0.806,-0.97687 0.164,-3.26481 z m -2.426,-4.22057 c 0.436,-0.52281 0.386,-1.37471 -0.214,-3.72 -1.617,-6.31134 -2.227,-8.01329 -3.333,-9.2968 -1.378,-1.59938 -1.777,-3.33027 -1.277,-5.53975 0.551,-2.43783 -1.582,-12.52749 -3.611,-17.07789 -0.371,-0.8319 -0.674,-1.65226 -0.674,-1.82303 0,-0.17076 -0.596,-0.82653 -1.324,-1.45725 -1.256,-1.08833 -1.281,-1.18975 -0.491,-1.98994 0.793,-0.80363 0.888,-0.79081 2.024,0.27337 2.528,2.36853 5.64,12.40686 6.184,19.94939 0.08,1.05843 0.41,1.52935 1.257,1.7772 1.377,0.40262 4.204,-0.65787 4.263,-1.59928 0.02,-0.36186 0.08,-4.38096 0.116,-8.93134 0.04,-4.7448 0.273,-8.39621 0.541,-8.56132 0.257,-0.15835 0.816,6.9e-4 1.242,0.35342 0.711,0.5878 0.71,0.51599 0,-0.86051 -0.928,-1.78917 -1.973,-2.29963 -2.763,-1.34964 -0.9,1.08079 -1.983,0.81211 -4.068,-1.00856 -1.058,-0.92489 -2.831,-2.12134 -3.94,-2.65876 -1.108,-0.53743 -2.097,-1.22352 -2.197,-1.52465 -0.302,-0.90363 -3.177,1.4626 -4.195,3.45302 -3.012,5.88885 -2.209,17.58987 1.721,25.07018 0.463,0.88013 1.001,2.46424 1.196,3.52024 1.286,6.95785 3.104,10.94281 5.611,12.29708 0.595,0.32183 1.082,0.76464 1.082,0.98403 0,0.66585 2.25,0.44568 2.853,-0.27921 z m 6.193,-28.6019 c 0,-3.3 -0.15,-6.54 -0.337,-7.2 l -0.34,-1.2 -0.29,1.08537 c -0.16,0.59695 -0.266,4.7544 -0.237,9.23878 0.03,5.15654 -0.133,8.33978 -0.454,8.66042 -0.357,0.35599 -0.279,1.01607 0.263,2.21625 l 0.772,1.70925 0.31,-4.25503 c 0.171,-2.34027 0.312,-6.95504 0.313,-10.25504 z m -5.901,-15.48 c -0.7,-4.62964 -0.663,-4.56441 -3.02,-5.36528 -1.222,-0.41509 -2.285,-0.75472 -2.364,-0.75472 -0.239,0 -1.693,2.95949 -1.526,3.10589 0.763,0.66926 6.84,5.05411 7.005,5.05411 0.118,0 0.08,-0.918 -0.09,-2.04 z m -9.161,-8.18601 c 1.456,-0.74235 2.134,-1.8521 2.151,-3.52195 0.01,-1.17939 -0.226,-1.56829 -1.091,-1.78482 -1.144,-0.28642 -2.869,-2.92029 -3.408,-5.20516 -0.543,-2.29912 2.061,-3.87274 4.698,-2.83985 1.278,0.50062 4.6,-1.24772 5.543,-2.91758 0.523,-0.92673 1.388,-1.52683 2.696,-1.87074 6.473,-1.70236 5.589,-4.39522 -2.095,-6.3822 -6.778,-1.75285 -10.831,0.36253 -14.152,7.38831 -1.091,2.30665 -1.183,3.72485 -0.649,9.95984 0.2,2.33562 0.148,4.29937 -0.126,4.78761 -0.593,1.05778 0.119,2.44833 1.531,2.98976 1.152,0.4415 3.394,0.16555 4.902,-0.60322 z m 11.168,0.5332 c 0.74,-0.31505 1.725,-0.88863 2.189,-1.27463 0.798,-0.66489 0.792,-0.7372 -0.121,-1.37441 -1.348,-0.942 -1.202,-1.54496 0.522,-2.14404 1.144,-0.39777 1.426,-0.73368 1.234,-1.46654 -0.137,-0.52283 -0.02,-1.52142 0.267,-2.21908 0.284,-0.69767 0.489,-1.75449 0.455,-2.34849 -0.03,-0.594 0.154,-1.08 0.415,-1.08 0.262,0 0.476,-0.34116 0.476,-0.75814 0,-0.59716 -0.315,-0.68914 -1.483,-0.43318 -1.353,0.29638 -1.47,0.2263 -1.324,-0.79696 0.1,-0.67923 0.54,-1.18229 1.123,-1.27492 2.046,-0.3252 2.19,-0.47738 1.627,-1.71079 l -0.533,-1.16636 -2.832,0.95366 c -1.898,0.63926 -3.157,1.40953 -3.819,2.33641 -1.464,2.05052 -5.455,3.90968 -7.552,3.51747 -1.595,-0.29843 -1.659,-0.25807 -1.324,0.82956 0.466,1.5148 1.166,2.34325 1.978,2.34325 0.364,0 0.663,0.414 0.663,0.92 0,0.506 0.256,1.00518 0.569,1.10929 0.313,0.10411 0.692,1.23938 0.842,2.52283 0.228,1.94573 0.513,2.47349 1.717,3.17563 1.735,1.01195 3.107,1.10679 4.911,0.33944 z m 0.624,-9.04429 c -0.618,-0.41324 -0.567,-0.61227 0.359,-1.38817 0.626,-0.52406 1.488,-0.79978 2.046,-0.65427 1.161,0.30284 1.217,0.77929 0.208,1.78525 -0.871,0.86887 -1.591,0.93975 -2.613,0.25719 z m -2.406,-2.85183 c 0,-1.06633 2.093,-2.66098 2.866,-2.18412 0.789,0.48632 0.595,1.22233 -0.58,2.20014 -1.411,1.17414 -2.286,1.168 -2.286,-0.016 z m 151.293,113.36245 c -0.166,-0.63281 -1.16,-1.07232 -3.685,-1.62974 -1.902,-0.41978 -6.49,-1.52696 -10.196,-2.46038 -3.706,-0.93343 -13.777,-3.34732 -22.381,-5.3642 -8.603,-2.01689 -19.107,-4.48821 -23.343,-5.49183 -4.235,-1.00362 -11.274,-2.62094 -15.642,-3.59404 -12.363,-2.7542 -20.257,-4.6122 -22.622,-5.32406 -1.191,-0.35864 -3.465,-0.8965 -5.053,-1.19525 -3.114,-0.58558 -15.158,-3.39944 -19.525,-4.56127 -1.473,-0.39201 -3.128,-0.71275 -3.676,-0.71275 -1.387,0 -3.128,-1.51906 -2.63,-2.29382 0.41,-0.637 0.679,-0.59166 8.985,1.51814 2.755,0.6997 17.679,4.21671 24.306,5.72783 23.832,5.43438 32.221,7.38937 47.89,11.15923 3.706,0.8917 8.146,1.93954 9.866,2.32856 6.654,1.50423 24.064,5.53388 28.879,6.68419 2.779,0.66402 6.028,1.39257 7.219,1.619 1.98,0.37628 2.168,0.53384 2.184,1.83108 0.01,0.94964 0.29,1.47179 0.842,1.57778 1.169,0.22462 1.026,1.04801 -0.183,1.04801 -0.567,0 -1.107,-0.37924 -1.235,-0.86648 z m -217.937,-33.86154 c -1.206,-0.87957 -0.508,-1.86894 2.521,-3.57496 1.516,-0.85374 5.15,-3.11482 8.075,-5.02463 2.925,-1.90982 6.445,-4.16547 7.821,-5.01256 2.437,-1.49975 2.504,-1.60055 2.545,-3.84 0.02,-1.26491 0.05,-25.166 0.06,-53.11355 0.02,-42.65654 -0.09,-50.88215 -0.643,-51.24 -0.435,-0.27963 -0.492,-0.55013 -0.166,-0.78628 0.539,-0.39049 0.556,-0.52632 0.646,-5.17506 0.05,-2.34347 0.247,-3.20684 0.802,-3.4193 0.409,-0.15633 0.869,-0.15823 1.024,-0.004 0.154,0.15401 0.338,26.12088 0.409,57.70417 0.07,31.58329 0.314,57.60263 0.541,57.82075 0.492,0.47359 5.267,1.82652 8.496,2.40743 3.526,0.63439 4.189,0.93512 4.189,1.89859 0,1.24004 -0.783,1.37571 -3.842,0.66573 -1.46,-0.33898 -4.282,-0.98389 -6.269,-1.43313 l -3.614,-0.8168 -3.846,2.0796 c -2.116,1.14378 -7.022,4.18603 -10.902,6.76056 -5.936,3.93788 -7.182,4.58932 -7.848,4.10367 z M 15068.298,429.12 c -0.393,-0.63337 0.183,-1.53219 0.755,-1.1795 0.584,0.36032 0.581,1.6595 0,1.6595 -0.249,0 -0.587,-0.216 -0.75,-0.48 z m 13.235,-1.92 c 0,-0.264 0.217,-0.48 0.482,-0.48 0.264,0 0.481,0.216 0.481,0.48 0,0.264 -0.217,0.48 -0.481,0.48 -0.265,0 -0.482,-0.216 -0.482,-0.48 z m -20.696,-0.74833 c 0,-0.41158 0.22,-0.61265 0.49,-0.44683 0.269,0.16582 0.364,0.50257 0.212,0.74833 -0.413,0.66578 -0.702,0.54163 -0.702,-0.3015 z m 46.446,-30.21826 c -3.925,-0.61189 -5.538,-1.39434 -8.182,-3.96935 -4.229,-4.11893 -5.221,-7.53549 -4.963,-17.09586 0.09,-3.49465 -0.03,-5.56897 -0.331,-5.56709 -0.265,0.002 -1.456,0.64915 -2.647,1.43889 -2.427,1.60878 -3.271,1.7741 -3.677,0.72 -0.152,-0.396 -0.674,-0.72 -1.16,-0.72 -1.431,0 -1.569,-0.86991 -0.498,-3.14255 l 1.008,-2.13745 h 3.831 c 4.348,0 4.303,0.0361 5.31,-4.32 0.86,-3.72044 2.017,-5.79024 5.047,-9.03183 2.32,-2.48102 3.022,-2.92536 5.811,-3.67836 5.484,-1.4804 10.273,-0.2879 13.765,3.42737 2.059,2.19187 6.179,8.41843 6.179,9.33996 0,0.46541 0.202,0.97094 0.45,1.1234 0.721,0.44476 1.957,5.2539 1.957,7.6186 0,8.50688 -3.256,18.85436 -7.084,22.51026 -2.912,2.7817 -9.453,4.31996 -14.816,3.48401 z m 2.166,-2.15341 c -0.397,-0.25591 -1.047,-0.45343 -1.444,-0.43891 -0.476,0.0174 -0.394,0.1669 0.241,0.43891 1.323,0.56703 2.083,0.56703 1.203,0 z m -2.406,-0.38763 c 0,-0.21319 -0.838,-0.75596 -1.861,-1.20616 -2.117,-0.93174 -4.351,-2.91573 -5.246,-4.65972 -0.335,-0.65257 -1.141,-2.15849 -1.791,-3.34649 -1.4,-2.55772 -1.526,-5.50878 -0.481,-11.28 0.861,-4.75176 0.861,-4.56 0,-4.56 -1.026,0 -1.438,2.03487 -1.409,6.96 0.05,7.9333 0.408,9.32884 3.397,13.16548 1.464,1.87846 3.454,3.83313 4.423,4.34373 1.89,0.99573 2.966,1.20721 2.966,0.58316 z m 8.83,-2.73268 1.729,-0.72031 -1.189,-1.74667 c -1.422,-2.09008 -1.547,-3.53271 -0.307,-3.53271 1.008,0 2.066,1.69872 2.174,3.4898 0.09,1.54865 0.406,1.33735 1.977,-1.33674 1.209,-2.05793 1.277,-3.11306 0.199,-3.11306 -0.742,0 -1.862,-1.27797 -1.862,-2.12571 0,-0.94899 1.396,-0.97406 2.721,-0.0488 0.959,0.67008 1.049,0.60311 1.791,-1.33605 1.14,-2.97679 1.047,-3.85965 -0.372,-3.50463 -0.763,0.19107 -1.537,-0.0235 -2.286,-0.6339 -1.426,-1.16185 -0.848,-1.83315 1.756,-2.03878 l 1.925,-0.15208 -0.138,-2.85798 c -0.08,-1.57188 -0.206,-2.92491 -0.288,-3.00672 -0.08,-0.0818 -0.704,0.28628 -1.381,0.81798 -2.355,1.84724 -4.461,0.77157 -2.303,-1.17614 0.623,-0.56227 1.441,-0.7789 2.406,-0.63753 1.643,0.24038 1.79,-0.25595 0.825,-2.77312 -0.759,-1.98063 -2.691,-4.50249 -2.732,-3.56649 -0.05,1.09301 -1.838,3.01576 -2.553,2.74196 -0.385,-0.14725 -0.938,0.44176 -1.415,1.50821 -0.431,0.96241 -1.556,2.57185 -2.499,3.57654 -0.943,1.00469 -1.714,2.26089 -1.714,2.79156 0,0.53066 -0.207,1.35097 -0.461,1.8229 -0.366,0.68302 0.03,1.4354 1.921,3.68844 3.15,3.74387 3.759,4.92037 2.844,5.49741 -1.007,0.63564 -0.925,0.67869 -4.001,-2.1099 -2.778,-2.51851 -2.836,-2.6229 -3.395,-6.17822 -0.623,-3.95813 -0.805,-3.29861 2.501,-9.03895 0.843,-1.46303 2.194,-3.29244 3.003,-4.06534 1.252,-1.19632 1.608,-1.31983 2.394,-0.83062 0.743,0.46302 1.067,0.43019 1.668,-0.16895 0.991,-0.98874 1.002,-0.95987 -0.993,-2.70646 -1.893,-1.65755 -3.235,-2.44745 -4.895,-2.88022 -1.112,-0.29001 -1.331,0.10581 -1.655,2.99164 -0.09,0.83521 -0.427,1.2 -1.097,1.2 -0.807,0 -0.986,-0.36877 -1.109,-2.28 -0.134,-2.07866 -0.254,-2.28 -1.361,-2.28 -0.711,0 -1.821,0.6051 -2.677,1.45967 -1.359,1.35457 -1.408,1.521 -0.691,2.3115 0.985,1.08533 1.527,3.69119 0.854,4.10591 -0.28,0.17243 -0.868,-0.23337 -1.307,-0.90178 -1.094,-1.66455 -1.452,-1.53483 -2.03,0.73477 -0.463,1.82172 -0.42,1.98475 0.664,2.47705 0.647,0.2943 1.159,0.9398 1.159,1.46196 0,0.74679 -0.232,0.8769 -1.153,0.64637 -1.373,-0.34388 -1.734,0.32987 -1.734,3.23857 0,1.79867 0.155,2.07399 1.444,2.55905 0.95,0.35763 1.443,0.87625 1.443,1.51626 0,0.77755 -0.362,1.00261 -1.804,1.12169 l -1.805,0.14898 -0.144,3.3003 c -0.131,3.01701 -0.07,3.26984 0.722,2.94554 1.891,-0.775 2.428,-0.77524 2.726,-10e-4 0.372,0.96569 0,1.67536 -0.875,1.67536 -0.819,0 -1.332,1.31208 -0.964,2.46762 0.332,1.0427 0.838,1.11471 2.139,0.3044 1.516,-0.94413 2.177,0.14669 0.996,1.64387 -0.909,1.15211 -0.916,1.26222 -0.134,1.96882 1.408,1.27047 4.843,2.33806 4.204,1.30637 -0.374,-0.60341 0.589,-4.19667 1.231,-4.59214 1.132,-0.69811 1.887,0.81352 1.596,3.19651 l -0.286,2.34455 h 1.435 c 0.789,0 2.212,-0.32414 3.163,-0.72031 z m 10.751,-20.48969 c -0.154,-0.38291 -0.268,-0.26917 -0.291,0.29 -0.02,0.506 0.09,0.7895 0.253,0.63 0.159,-0.1595 0.177,-0.5735 0.04,-0.92 z m -27.613,-6.9783 c 0.154,-0.99643 0.402,-2.3517 0.551,-3.0117 0.226,-1.00195 0.161,-0.96233 -0.393,0.24 -0.865,1.87395 -1.475,5.22204 -0.886,4.85895 0.246,-0.15155 0.574,-1.09081 0.728,-2.08725 z m 5.625,-10.42968 c 1.264,-0.737 2.529,-0.98202 5.069,-0.98202 4.113,0 6.854,1.06438 9.721,3.77558 2.532,2.39362 3.077,2.1103 0.846,-0.43947 -0.913,-1.04286 -1.664,-2.049 -1.669,-2.23588 0,-0.18687 -1.018,-0.9296 -2.252,-1.65051 -2.605,-1.52278 -5.079,-1.64892 -9.514,-0.48518 -3.044,0.79897 -4.439,1.99175 -6.098,5.21634 -1.499,2.91368 -1.04,3.18265 0.648,0.3799 0.88,-1.46058 2.302,-3.02641 3.249,-3.57876 z m -87.919,36.90166 c -0.332,-0.86464 0.92,-2.12368 2.113,-2.12368 0.801,0 1.375,1.36442 0.799,1.89831 -0.999,0.92634 -2.594,1.0498 -2.912,0.22537 z m 6.863,-2.05297 c -0.449,-0.72417 0.875,-1.96917 2.414,-2.27043 1.763,-0.34513 2.524,0.76242 1.338,1.94583 -0.787,0.78424 -3.331,1.00436 -3.752,0.3246 z m 7.503,-2.59071 c 0.113,-0.79227 0.621,-1.19501 1.906,-1.5117 3.464,-0.85363 4.388,1.15215 0.968,2.09965 -2.602,0.72073 -3.047,0.6297 -2.874,-0.58795 z m 8.739,-2.07226 c -0.392,-1.01778 0.158,-1.42019 2.819,-2.06248 2.892,-0.69821 2.795,-0.71306 2.795,0.42674 0,0.69749 -0.411,1.0539 -1.454,1.262 -0.8,0.1595 -1.571,0.4781 -1.713,0.708 -0.434,0.69951 -2.139,0.46655 -2.447,-0.33426 z m 8.202,-2.34754 c -0.412,-1.06997 0.172,-1.55812 2.34,-1.95532 1.439,-0.26375 1.862,-0.16862 2.109,0.47492 0.412,1.06997 -0.172,1.55812 -2.34,1.95532 -1.439,0.26375 -1.861,0.16862 -2.109,-0.47492 z m 7.519,-2.3242 c 0,-1.07013 1.09,-1.776 2.743,-1.776 1.955,0 2.181,1.23902 0.354,1.93188 -1.722,0.65284 -3.097,0.58361 -3.097,-0.15588 z m 7.306,-2.3384 c 0.1,-0.64656 0.673,-1.2139 1.52,-1.494 1.65,-0.54568 2.479,0.0817 2.019,1.52808 -0.246,0.77156 -0.717,1.00832 -2.007,1.00832 -1.456,0 -1.664,-0.14176 -1.532,-1.0424 z m 6.261,-1.71395 c 0.229,-1.1849 2.651,-2.28266 3.495,-1.58412 0.356,0.29467 0.536,0.95983 0.4,1.47812 -0.343,1.30842 -4.147,1.41195 -3.895,0.106 z m 10.017,-1.08365 c 0,-0.264 -0.542,-0.48 -1.203,-0.48 -0.859,0 -1.204,-0.25956 -1.204,-0.90658 0,-0.66226 0.471,-0.99468 1.748,-1.23348 2.185,-0.40888 2.814,0.15187 2.049,1.82704 -0.575,1.25808 -1.39,1.72311 -1.39,0.79302 z"
         id="path2" /></g></g></svg>
