<?xml version="1.0" encoding="UTF-8" standalone="no"?>
<!-- Created with Inkscape (http://www.inkscape.org/) -->

<svg
   width="231.38646"
   height="235.24007"
   viewBox="0 0 61.221 62.240601"
   version="1.1"
   id="svg1"
   xml:space="preserve"
   inkscape:export-filename="teacup.svg"
   inkscape:export-xdpi="96"
   inkscape:export-ydpi="96"
   sodipodi:docname="sm-plate.svg"
   xmlns:inkscape="http://www.inkscape.org/namespaces/inkscape"
   xmlns:sodipodi="http://sodipodi.sourceforge.net/DTD/sodipodi-0.dtd"
   xmlns="http://www.w3.org/2000/svg"
   xmlns:svg="http://www.w3.org/2000/svg"><sodipodi:namedview
     id="namedview1"
     pagecolor="#ffffff"
     bordercolor="#000000"
     borderopacity="0.25"
     inkscape:showpageshadow="2"
     inkscape:pageopacity="0.0"
     inkscape:pagecheckerboard="0"
     inkscape:deskcolor="#d1d1d1"
     inkscape:document-units="mm"><inkscape:page
       x="0"
       y="0"
       width="61.221001"
       height="62.240601"
       id="page2"
       margin="0"
       bleed="0" /></sodipodi:namedview><defs
     id="defs1" /><g
     inkscape:label="Layer 1"
     inkscape:groupmode="layer"
     id="layer1"
     transform="translate(1472.671,3650.7208)"><g
       id="g1252"
       transform="matrix(0.26458333,0,0,0.26458333,-4714.3565,-3734.2445)"><path
         style="fill:#000000"
         d="m 12340.249,499.61334 c 0.111,-0.17967 0.266,-0.32667 0.345,-0.32667 0.08,0 0.143,0.147 0.143,0.32667 0,0.17967 -0.155,0.32667 -0.344,0.32667 -0.19,0 -0.254,-0.147 -0.144,-0.32667 z m -27.049,-7.83955 c -0.386,-0.15665 -0.795,-0.57543 -0.907,-0.93063 -0.112,-0.3552 -0.62,-1.17168 -1.129,-1.81439 -1.253,-1.58361 -1.626,-4.72474 -0.83,-6.97584 1.063,-3.00249 1.143,-3.17385 3.196,-6.85383 4.306,-7.71465 6.89,-11.70853 9.27,-14.32324 3.548,-3.89773 5.479,-6.2042 8.102,-9.67707 1.532,-2.02883 2.889,-3.76228 3.015,-3.85212 0.126,-0.0898 0.744,-0.97183 1.375,-1.96 0.63,-0.98816 2.04,-2.70453 3.133,-3.81414 1.093,-1.10962 1.996,-2.13862 2.007,-2.28667 0.01,-0.14805 1.036,-1.14595 2.277,-2.21754 1.241,-1.07159 2.256,-2.08246 2.256,-2.24637 0,-0.16391 2.086,-2.39168 4.635,-4.9506 2.549,-2.55892 4.998,-5.14956 5.442,-5.75697 1.026,-1.40443 2.705,-3.09526 4.512,-4.54307 0.778,-0.62405 2.234,-2.01664 3.234,-3.09464 4.879,-5.25705 11.882,-11.92089 14.067,-13.38509 1.333,-0.8938 2.498,-1.70802 2.587,-1.80938 0.482,-0.54661 4.227,-3.28445 5.204,-3.80504 1.563,-0.83254 4.901,-3.07054 5.692,-3.81579 1.209,-1.13923 4.133,-3.3104 6.301,-4.67894 3.234,-2.04134 8.249,-4.94494 8.986,-5.2028 0.358,-0.12514 2.187,-0.9032 4.066,-1.72903 3.265,-1.43551 3.542,-1.4997 6.304,-1.46053 2.627,0.0372 4.26,0.32815 6.294,1.12149 0.4,0.15594 0.916,0.74807 1.147,1.31586 0.579,1.4262 0.191,5.54882 -0.737,7.81993 -0.841,2.0569 -3.894,8.23697 -4.19,8.47932 -0.11,0.0898 -0.638,1.11497 -1.175,2.27808 -1.06,2.29704 -4.559,7.77751 -5.359,8.39392 -0.272,0.2101 -0.496,0.50801 -0.496,0.66203 0,0.15401 -0.524,0.93761 -1.165,1.74133 -1.141,1.43108 -2.162,3.48575 -1.995,4.01425 0.05,0.14646 -0.207,0.67755 -0.563,1.18021 -0.357,0.50266 -0.568,0.99494 -0.469,1.09396 0.1,0.099 -0.272,1.15843 -0.823,2.35425 -0.551,1.19582 -1.002,2.36647 -1.002,2.60143 0,0.23497 -0.226,0.61625 -0.504,0.8473 -0.277,0.23104 -0.809,1.09429 -1.182,1.91833 -0.862,1.90137 -1.79,3.27331 -3.395,5.01618 -0.7,0.76013 -2.106,2.50225 -3.124,3.87136 -1.018,1.36912 -2.539,3.13312 -3.381,3.92 -1.522,1.42298 -2.069,2.00509 -5.153,5.48739 -0.888,1.00282 -2.338,2.48482 -3.223,3.29332 -0.885,0.8085 -2.2,2.1315 -2.923,2.94 -1.748,1.95662 -11.183,11.37916 -12.43,12.41333 -1.566,1.29958 -3.012,2.28667 -3.349,2.28667 -0.172,0 -0.361,0.11642 -0.42,0.25871 -0.189,0.44964 -4.848,4.11808 -6.248,4.91887 -0.738,0.42218 -2.073,1.24136 -2.968,1.82041 -0.894,0.57905 -2.504,1.47596 -3.577,1.99314 -1.074,0.51717 -2.074,1.13939 -2.222,1.3827 -0.352,0.57659 -1.627,1.08156 -3.564,1.4119 -2.123,0.3619 -4.572,1.57616 -6.98,3.46112 -2.858,2.2364 -6.084,4.17243 -8.888,5.33336 -1.328,0.55014 -2.68,1.14941 -3.004,1.33169 -3.213,1.80873 -4.848,2.53487 -6.133,2.7236 -0.834,0.12258 -2.647,0.58324 -4.029,1.02368 -2.584,0.82378 -4.334,0.973 -5.565,0.4746 z m 5.582,-1.66161 c 6.019,-2.14304 7.611,-2.87449 9.112,-4.1861 0.539,-0.47116 2.368,-1.70698 4.065,-2.74626 1.698,-1.03929 3.964,-2.51035 5.038,-3.26904 1.073,-0.75869 2.976,-2.02046 4.228,-2.80394 2.889,-1.80757 9.439,-6.65474 13.292,-9.83662 1.634,-1.34921 4.019,-3.15097 5.301,-4.0039 2.678,-1.78161 9.994,-8.725 11.876,-11.27082 0.7,-0.94664 2.206,-2.45773 3.346,-3.35797 1.141,-0.90025 3.354,-3.13922 4.918,-4.9755 2.574,-3.02214 9.862,-10.48354 12.431,-12.72601 0.563,-0.4917 1.394,-1.5942 1.847,-2.45 0.91,-1.71921 3.511,-5.25987 4.983,-6.78268 0.52,-0.539 2.091,-2.5235 3.489,-4.41 1.399,-1.8865 2.628,-3.5035 2.732,-3.59334 0.104,-0.0898 0.7,-0.86413 1.325,-1.72067 0.625,-0.85653 1.744,-2.36206 2.487,-3.3456 0.742,-0.98355 1.756,-2.48775 2.254,-3.34266 0.497,-0.85492 1.61,-2.40728 2.472,-3.44969 0.862,-1.04241 1.567,-2.10163 1.567,-2.35383 0,-0.48375 1.227,-2.53446 2.107,-3.52194 0.286,-0.32142 0.825,-1.12992 1.197,-1.79667 0.372,-0.66675 1.079,-1.72677 1.57,-2.3556 1.309,-1.67436 2.265,-3.72029 2.397,-5.13102 0.06,-0.68144 0.171,-1.38598 0.24,-1.56565 0.07,-0.17967 -0.07,-0.79488 -0.309,-1.36713 -0.52,-1.2489 -1.391,-1.60149 -5.1,-2.06441 -3.173,-0.39594 -4.633,-0.14666 -7.865,1.34267 -1.213,0.55893 -2.864,1.28017 -3.669,1.60277 -1.362,0.54586 -4.16,2.1077 -7.915,4.41856 -0.864,0.53215 -3.206,2.26298 -5.204,3.8463 -1.997,1.58332 -4.803,3.59664 -6.234,4.47404 -2.581,1.58275 -5.105,3.34919 -5.99,4.19307 -0.253,0.24156 -2.156,1.73289 -4.228,3.31406 -2.356,1.7979 -5.973,5.12327 -9.655,8.87682 -3.238,3.30108 -6.531,6.49965 -7.318,7.10794 -0.787,0.60828 -2.09,1.91749 -2.895,2.90936 -0.805,0.99186 -3.439,3.88251 -5.854,6.42366 -2.415,2.54116 -5.032,5.30848 -5.814,6.14962 -0.783,0.84114 -1.526,1.52934 -1.65,1.52934 -0.393,0 -6.778,7.15383 -7.562,8.47224 -0.412,0.69213 -1.627,2.35176 -2.7,3.68806 -1.074,1.3363 -2.863,3.59365 -3.977,5.01633 -1.113,1.42269 -2.577,3.19363 -3.252,3.93542 -4.078,4.48009 -6.952,8.33872 -8.484,11.39128 -0.45,0.89834 -1.61,2.95634 -2.576,4.57334 -2.273,3.80356 -2.258,3.7748 -3.08,5.96892 -0.989,2.64016 -0.956,5.44347 0.08,7.1188 0.436,0.70201 0.94,1.56611 1.121,1.92022 0.62,1.21751 2.71,1.27262 5.851,0.15423 z m 11.951,-18.67552 c -0.539,-0.67819 0.04,-3.56298 0.992,-4.97415 0.484,-0.71546 0.881,-1.42597 0.881,-1.57892 0,-0.15295 1.061,-1.50475 2.358,-3.00399 2.704,-3.12587 4.31,-5.22149 6.353,-8.28806 0.792,-1.18884 2.052,-2.89653 2.8,-3.79487 0.747,-0.89833 1.606,-2.00083 1.908,-2.45 2.18,-3.24342 4.051,-5.60275 6.286,-7.92661 1.423,-1.47953 3.452,-3.7799 4.508,-5.11194 1.056,-1.33203 2.59,-3.09717 3.408,-3.92252 5.364,-5.40764 8.482,-8.8546 8.485,-9.38038 0,-0.921 1.709,-2.89739 7.217,-8.37008 6.532,-6.49086 9.034,-8.74982 11.807,-10.66027 0.894,-0.61625 1.699,-1.22829 1.789,-1.36009 0.09,-0.13179 1.407,-1.00361 2.927,-1.93738 1.521,-0.93377 2.984,-1.8884 3.253,-2.12141 0.883,-0.76705 6.774,-2.78265 8.133,-2.78265 2.555,0 3.913,1.41193 3.894,4.05041 0,1.18757 -1.109,3.78959 -1.603,3.78959 -0.417,0 -0.455,-0.87116 -0.05,-1.12305 0.161,-0.0999 0.465,-0.90268 0.675,-1.78399 0.32,-1.33972 0.301,-1.76177 -0.117,-2.57475 -0.276,-0.53481 -0.738,-1.06369 -1.028,-1.17529 -0.92,-0.35456 -3.428,-0.21898 -4.489,0.24271 -0.564,0.2451 -1.684,0.71634 -2.489,1.04721 -1.398,0.57451 -9.188,5.51349 -10.124,6.41824 -0.246,0.23777 -1.179,0.96925 -2.073,1.62552 -0.894,0.65626 -2.205,1.7925 -2.912,2.52497 -0.707,0.73247 -1.439,1.34672 -1.626,1.365 -0.381,0.0371 -3.324,3.23343 -2.978,3.23343 0.121,0 1.459,-1.17216 2.973,-2.6048 1.515,-1.43264 3.204,-2.83881 3.755,-3.12481 0.55,-0.28601 1.645,-1.01401 2.433,-1.61778 0.788,-0.60378 1.764,-1.20359 2.17,-1.33291 0.406,-0.12933 1.285,-0.58117 1.952,-1.00409 0.667,-0.42292 1.399,-0.7717 1.626,-0.77506 0.227,-0.003 1.438,-0.52996 2.69,-1.17022 2.764,-1.41306 6.415,-1.89205 7.747,-1.01607 0.943,0.62066 1.318,2.45467 0.863,4.22526 -0.174,0.6786 -0.46,1.78506 -0.635,2.45881 -0.297,1.13951 -2.905,5.88915 -3.886,7.07673 -0.239,0.2887 -0.763,1.14212 -1.164,1.89649 -0.693,1.29981 -1.462,1.98513 -1.462,1.30223 0,-0.60275 0.942,-2.57232 1.422,-2.97192 0.266,-0.22154 0.851,-1.10922 1.3,-1.97263 0.45,-0.86342 1.192,-2.12422 1.65,-2.80179 0.458,-0.67757 0.833,-1.39518 0.835,-1.59469 0,-0.19952 0.231,-0.80375 0.511,-1.34275 0.28,-0.539 0.536,-1.77269 0.567,-2.74152 0.05,-1.65426 0,-1.76722 -0.755,-1.85507 -0.447,-0.0514 -1.217,-0.19479 -1.709,-0.31853 -0.493,-0.12374 -1.556,-0.0582 -2.362,0.14564 -1.891,0.47826 -8.215,4.43438 -10.731,6.71286 -1.075,0.97346 -2.612,2.24161 -3.415,2.81812 -2.399,1.72115 -11.469,10.52365 -12.402,12.03592 -0.292,0.47359 -0.643,0.69473 -0.874,0.55134 -0.466,-0.28979 1.063,-2.64384 2.867,-4.41406 3.811,-3.73742 9.58,-9.05289 10.528,-9.69985 0.606,-0.41348 1.531,-1.16348 2.056,-1.66665 1.038,-0.99433 1.779,-1.60037 3.023,-2.47368 0.56,-0.39361 0.648,-0.56452 0.288,-0.56452 -0.284,0 -1.524,0.74849 -2.756,1.66332 -1.232,0.91483 -2.532,1.8164 -2.89,2.00349 -0.358,0.18709 -1.671,1.31284 -2.918,2.50167 -1.247,1.18884 -3.442,3.27774 -4.878,4.64201 -4.02,3.81731 -6.474,6.28905 -11.006,11.08117 -2.29,2.42275 -4.875,5.14 -5.743,6.03834 -0.868,0.89833 -2.308,2.55106 -3.199,3.67273 -0.892,1.12167 -2.898,3.40017 -4.458,5.06334 -1.56,1.66316 -3.223,3.61053 -3.694,4.32749 -0.472,0.71696 -2.253,3.14246 -3.958,5.39 -1.705,2.24754 -3.598,4.82144 -4.208,5.71977 -0.609,0.89834 -1.885,2.56045 -2.835,3.69359 -0.951,1.13314 -1.728,2.1908 -1.728,2.35035 0,0.15955 -0.674,0.92294 -1.498,1.69641 -0.823,0.77348 -1.769,1.92082 -2.101,2.54965 -1.283,2.42894 -1.638,3.35849 -1.542,4.03508 0.09,0.61844 0.273,0.68866 1.563,0.59245 0.805,-0.06 1.889,-0.31727 2.408,-0.57166 1.167,-0.5717 1.915,-0.59489 1.748,-0.0542 -0.345,1.11695 -5.657,2.34452 -6.354,1.46832 z m 41.554,-53.5599 c 0,-0.45986 -0.607,0.0291 -1.022,0.8231 -0.372,0.71183 -0.369,0.71249 0.324,0.0945 0.384,-0.34227 0.698,-0.75519 0.698,-0.91762 z m 3.577,-3.22421 c 0,-0.46707 -0.109,-0.38829 -1.479,1.06577 l -1.285,1.36498 1.382,-1.06576 c 0.76,-0.58617 1.382,-1.20042 1.382,-1.36499 z m -30.248,51.84169 c 0,-0.24883 0.399,-0.71493 0.886,-1.03576 0.488,-0.32083 1.572,-1.22734 2.41,-2.01447 1.919,-1.80283 2.54,-1.26656 0.726,0.62674 -1.123,1.17087 -3.407,2.87592 -3.853,2.87592 -0.09,0 -0.169,-0.20359 -0.169,-0.45243 z m 12.423,-8.0706 c 0.08,-0.24973 0.686,-0.60481 1.34,-0.78905 0.654,-0.18425 1.667,-0.78688 2.251,-1.33919 1.503,-1.42186 5.065,-4.37539 5.276,-4.37539 0.779,0 -0.628,1.58056 -4.175,4.68798 -1.674,1.46635 -2.491,1.95304 -3.512,2.09051 -1.044,0.14065 -1.298,0.0815 -1.18,-0.27486 z m 9.369,-7.4517 c 0,-0.36397 7.835,-8.12099 8.934,-8.84502 0.438,-0.2887 1.242,-1.14214 1.786,-1.89653 0.544,-0.75439 1.282,-1.5552 1.639,-1.77958 0.358,-0.22438 0.651,-0.5441 0.651,-0.71049 0,-0.34375 1.319,-1.82165 2.761,-3.09285 0.535,-0.47161 1.988,-1.84972 3.228,-3.06247 1.24,-1.21275 2.375,-2.205 2.523,-2.205 0.149,0 0.27,-0.1575 0.27,-0.35 0,-0.46107 0.831,-1.28333 1.297,-1.28333 0.202,0 0.283,-0.13684 0.18,-0.30409 -0.103,-0.16726 -0.05,-0.39015 0.121,-0.49533 0.17,-0.10518 0.384,-0.0674 0.478,0.0839 0.09,0.15131 -0.337,0.75442 -0.956,1.34025 -0.618,0.58583 -1.055,1.17789 -0.97,1.31569 0.135,0.2198 -4.115,4.52359 -5.853,5.92623 -0.763,0.61571 -3.079,3.29766 -3.079,3.56501 0,0.10313 -0.439,0.44802 -0.976,0.76642 -0.537,0.31839 -0.976,0.77869 -0.976,1.02288 0,0.24419 -0.619,1.00763 -1.376,1.69653 -0.757,0.68891 -3.07,2.9063 -5.139,4.92755 -3.444,3.36315 -4.543,4.18122 -4.543,3.38027 z m -24.719,-8.52527 c 0,-0.17966 0.146,-0.32666 0.325,-0.32666 0.179,0 0.325,0.147 0.325,0.32666 0,0.17967 -0.146,0.32667 -0.325,0.32667 -0.179,0 -0.325,-0.147 -0.325,-0.32667 z m 13.186,-4.22409 c -0.222,-0.36104 0.291,-0.7509 0.591,-0.44925 0.31,0.31059 0.252,0.75334 -0.1,0.75334 -0.168,0 -0.39,-0.13684 -0.493,-0.30409 z m 35.748,-13.44194 c -0.126,-0.2046 0.492,-1.10267 1.408,-2.04754 0.898,-0.9257 2.026,-2.47415 2.506,-3.441 0.939,-1.89289 1.992,-3.21498 2.308,-2.89812 0.291,0.2922 -1.193,3.09725 -2.822,5.33343 -1.716,2.35489 -3.077,3.57769 -3.4,3.05323 z m -60.054,60.61747 c 1.018,-0.45204 2.216,-1.04601 2.663,-1.31992 0.447,-0.27391 1.524,-0.89631 2.393,-1.3831 0.869,-0.4868 2.333,-1.52413 3.253,-2.30519 0.92,-0.78106 2.404,-1.84308 3.298,-2.36005 0.895,-0.51697 2.212,-1.47162 2.928,-2.12146 0.715,-0.64983 2.114,-1.80696 3.109,-2.5714 2.551,-1.96105 3.184,-2.48575 4.506,-3.73589 l 1.167,-1.10225 -1.139,0.87023 c -0.92,0.70346 -5.009,3.71662 -8.944,6.59171 -0.358,0.26137 -2.407,1.59368 -4.554,2.96069 -2.147,1.36702 -4.196,2.74003 -4.553,3.05114 -0.358,0.31111 -1.383,0.98395 -2.277,1.49521 -1.869,1.0685 -4.274,2.75218 -3.931,2.75218 0.128,0 1.064,-0.36986 2.081,-0.8219 z m 18.38,-9.49881 c 0.837,-0.28639 1.521,-0.70882 1.521,-0.93874 0,-0.22991 0.918,-0.85813 2.039,-1.39603 1.121,-0.5379 2.237,-1.21797 2.479,-1.51126 0.243,-0.2933 0.587,-0.53326 0.765,-0.53326 0.613,0 4.317,-2.42675 6.959,-4.55997 1.455,-1.17519 3.504,-2.7586 4.553,-3.5187 2.189,-1.58608 10.4,-9.61488 13.291,-12.9958 1.074,-1.25521 2.171,-2.413 2.44,-2.57288 0.823,-0.49045 5.718,-5.69865 6.094,-6.48376 1.643,-3.43327 3.013,-6.45724 3.013,-6.65024 0,-0.12828 -0.293,0.0328 -0.651,0.35801 -0.358,0.32519 -0.65,0.76619 -0.65,0.98 0,0.21381 -0.293,0.65497 -0.651,0.98036 -0.637,0.57856 -2.277,3.72421 -2.277,4.36669 0,0.1783 -0.324,0.37115 -0.721,0.42857 -0.494,0.0715 -0.815,0.43847 -1.022,1.16605 -0.377,1.32521 -1.365,1.50345 -1.036,0.18685 0.467,-1.86846 1.633,-3.86255 2.229,-3.81335 0.414,0.0342 0.807,-0.44787 1.331,-1.63333 0.89,-2.01307 2.29,-3.75182 3.346,-4.15521 0.811,-0.30945 1.552,-1.68706 1.017,-1.8893 -0.33,-0.12453 -4.493,3.85734 -4.493,4.29704 0,0.53945 -1.618,2.62312 -4.426,5.70025 -4.24,4.64532 -10.227,10.87836 -11.349,11.81395 -0.536,0.44771 -1.927,1.73531 -3.09,2.86134 -1.163,1.12603 -2.992,2.69041 -4.065,3.4764 -1.074,0.786 -2.556,2.09052 -3.294,2.89893 -0.739,0.80842 -1.836,1.80936 -2.44,2.22431 -0.603,0.41496 -1.755,1.37924 -2.56,2.14284 -0.805,0.7636 -2.415,2.13404 -3.578,3.04543 -1.163,0.91138 -2.261,1.77741 -2.439,1.92451 -0.179,0.14709 -1.35,1.05917 -2.603,2.02683 -1.252,0.96766 -2.415,1.87971 -2.585,2.02678 -0.525,0.45401 1.245,0.29686 2.853,-0.25331 z m 7.405,-9.16342 c 0.4,-0.49466 0.396,-0.53095 -0.03,-0.2812 -1.121,0.65902 -2.277,1.61435 -2.277,1.88234 0,0.34794 1.665,-0.80817 2.306,-1.60114 z m 18.171,-16.259 c 0.798,-0.82328 1.3,-1.49687 1.116,-1.49687 -0.511,0 -2.878,2.13136 -4.088,3.68108 l -1.08,1.38225 1.301,-1.03479 c 0.716,-0.56913 1.954,-1.70838 2.751,-2.53167 z m 9.446,-10.07287 c 3.49,-3.63986 3.52,-3.68554 1.026,-1.55841 -1.136,0.96852 -2.526,2.34039 -3.09,3.04861 -0.564,0.70821 -1.574,1.91043 -2.245,2.6716 -0.671,0.76116 -1.22,1.50727 -1.22,1.65803 0,0.15075 0.622,-0.44813 1.382,-1.33085 0.761,-0.88272 2.627,-2.90277 4.147,-4.48898 z m 7.722,-1.30567 c 0.177,-0.22458 0.317,-0.66325 0.311,-0.97482 -0.01,-0.72905 -0.734,-0.18046 -0.974,0.74052 -0.188,0.72335 0.178,0.85262 0.663,0.2343 z m 1.05,-3.02167 c 0,-0.17966 -0.142,-0.10616 -0.315,0.16334 -0.173,0.2695 -0.315,0.637 -0.315,0.81666 0,0.17967 0.142,0.10617 0.315,-0.16333 0.173,-0.2695 0.315,-0.637 0.315,-0.81667 z m 2.504,-1.08993 c 0.95,-1.09104 1.111,-1.68674 0.458,-1.68674 -0.369,0 -1.839,2.29207 -2.099,3.27096 -0.195,0.73557 -0.176,0.75503 0.198,0.20579 0.227,-0.33362 0.876,-1.13913 1.443,-1.79001 z m -1.351,-1.23738 c 0.915,-2.07789 0.916,-2.08269 0.515,-2.08269 -0.278,0 -0.729,1.01699 -1.339,3.02167 -0.453,1.4896 -0.04,1.01401 0.824,-0.93898 z m 2.598,-2.40936 c 0.864,-0.90657 0.884,-0.98 0.261,-0.98 -0.37,0 -0.764,0.25725 -0.874,0.57167 -0.111,0.31442 -0.286,0.75542 -0.39,0.98 -0.303,0.65241 0,0.47979 1.003,-0.57167 z m 3.74,-2.03999 c 0,-0.18223 -0.216,-0.14685 -0.488,0.08 -0.268,0.22367 -0.488,0.55367 -0.488,0.73334 0,0.18222 0.216,0.14685 0.488,-0.08 0.268,-0.22367 0.488,-0.55367 0.488,-0.73333 z m -2.726,-0.92296 c 1.352,-0.0162 1.722,-0.10377 1.262,-0.2986 -0.357,-0.15159 -1.199,-0.19597 -1.87,-0.0986 -0.671,0.0974 -1.215,0.048 -1.209,-0.10974 0.02,-0.50066 0.914,-1.50734 1.685,-1.89336 0.409,-0.20498 0.744,-0.5521 0.744,-0.77137 0,-0.21928 0.146,-0.40491 0.325,-0.41252 0.179,-0.008 0.588,-0.52704 0.908,-1.15431 0.32,-0.62726 0.723,-1.05336 0.894,-0.94689 0.172,0.10647 0.312,-0.10531 0.312,-0.47063 0,-0.40929 0.379,-0.86094 0.987,-1.17673 0.543,-0.28188 0.946,-0.68991 0.897,-0.90673 -0.119,-0.52032 1.403,-3.04091 2.702,-4.47755 0.569,-0.62883 1.563,-1.93495 2.209,-2.90249 1.665,-2.4943 2.304,-3.36157 3.741,-5.07675 0.696,-0.83087 1.165,-1.61171 1.042,-1.73518 -0.273,-0.2735 -3.121,2.82634 -3.121,3.39616 0,0.22319 -0.198,0.52335 -0.441,0.66703 -0.242,0.14368 -2.07,2.46623 -4.062,5.16123 -1.992,2.695 -4.439,5.8555 -5.438,7.02334 -1.872,2.18981 -5.671,7.15977 -5.671,7.41979 0,0.0808 0.493,-0.15916 1.095,-0.53315 0.767,-0.47616 1.669,-0.68686 3.009,-0.70293 z m 3.864,-0.63038 c 0.111,-0.17967 0.06,-0.32667 -0.124,-0.32667 -0.179,0 -0.416,0.147 -0.526,0.32667 -0.111,0.17967 -0.06,0.32667 0.124,0.32667 0.179,0 0.416,-0.147 0.526,-0.32667 z m 3.08,-6.77833 c 0,-0.22459 -0.12,-0.40834 -0.28,-0.40834 -0.336,0 -0.685,0.79553 -0.685,1.55916 0,0.43396 0.08,0.41505 0.477,-0.10839 0.263,-0.34875 0.482,-0.81785 0.488,-1.04243 z m -61.286,-13.12576 c -0.103,-0.16726 -0.04,-0.39643 0.144,-0.50928 0.181,-0.11285 0.33,0.024 0.33,0.30409 0,0.5738 -0.195,0.65829 -0.474,0.20519 z m 59.182,-29.42258 c 0.111,-0.17966 0.266,-0.32666 0.345,-0.32666 0.08,0 0.143,0.147 0.143,0.32666 0,0.17967 -0.155,0.32667 -0.344,0.32667 -0.19,0 -0.254,-0.147 -0.144,-0.32667 z"
         id="path2" /></g></g></svg>
