<?xml version="1.0" encoding="UTF-8" standalone="no"?>
<!-- Created with Inkscape (http://www.inkscape.org/) -->

<svg
   width="231.38646"
   height="235.24007"
   viewBox="0 0 61.221 62.240601"
   version="1.1"
   id="svg1"
   xml:space="preserve"
   xmlns="http://www.w3.org/2000/svg"
   xmlns:svg="http://www.w3.org/2000/svg"><defs
     id="defs1" /><g
     id="layer1"
     transform="translate(1472.671,3650.7208)"><g
       id="g1270"
       transform="matrix(0.26458333,0,0,0.26458333,-4774.6464,-3796.2804)"><path
         style="fill:#000000"
         d="m 12585.024,768.38439 c -9.919,-1.70711 -12.065,-2.53566 -15.565,-6.0069 -2.371,-2.35213 -2.718,-2.96461 -3.412,-6.01533 -0.478,-2.10107 -0.654,-4.18807 -0.461,-5.47181 0.274,-1.82793 2.16,-5.38607 3.942,-7.43494 0.334,-0.3846 1.377,-1.73361 2.317,-2.9978 2.888,-3.88379 8.976,-6.77099 14.174,-6.72203 2.22,0.0209 2.865,-0.14125 3.04,-0.76416 0.121,-0.4349 0.359,-4.03546 0.528,-8.00125 0.169,-3.96578 0.387,-7.535 0.484,-7.93157 0.1,-0.39658 0.317,-3.45617 0.486,-6.79909 0.218,-4.28471 0.15,-6.1766 -0.232,-6.4121 -0.398,-0.24639 -0.399,-0.50405 0,-0.98179 0.38,-0.45817 0.45,-3.62321 0.239,-10.81438 -0.291,-9.90544 -0.123,-11.52598 1.195,-11.52598 0.486,0 0.925,2.36752 0.489,2.63703 -0.187,0.11581 -0.239,4.43647 -0.114,9.60145 0.276,11.47581 -0.975,38.5331 -2.002,43.28258 -0.807,3.73244 -0.864,3.85752 -4.978,10.98837 -0.803,1.39053 -0.763,3.93032 0.07,4.76731 0.79,0.78998 5.983,1.52178 10.068,1.41885 4.759,-0.1199 7.464,-1.43593 7.502,-3.64983 0.02,-0.92308 -2.191,-5.36989 -3.191,-6.42996 -0.538,-0.57106 -0.734,-2.02732 -1.389,-10.33948 -0.244,-3.09056 -0.174,-3.72544 0.413,-3.72544 0.759,0 1.176,2.55783 1.292,7.93158 0.05,2.43856 0.392,3.48984 2.197,6.80382 2.963,5.43861 2.94,8.06357 -0.08,9.68197 -1.782,0.95355 -7.881,2.12464 -9.226,1.77141 -0.712,-0.18688 -2.802,-0.51185 -4.646,-0.72215 -2.811,-0.32058 -3.537,-0.59719 -4.496,-1.71207 -0.91,-1.05742 -1.087,-1.68163 -0.868,-3.04828 0.276,-1.71976 4.071,-9.74871 4.75,-10.05072 0.198,-0.0881 0.361,-0.53158 0.361,-0.98544 0,-0.45387 0.259,-1.08479 0.577,-1.40205 1.04,-1.04054 -0.406,-1.7827 -3.367,-1.72795 -3.26,0.0603 -7.7,1.90138 -10.112,4.19308 -0.883,0.83858 -2.923,3.34302 -4.534,5.56542 -2.529,3.48907 -2.958,4.39058 -3.141,6.60334 l -0.213,2.56262 2.528,2.28964 c 3.149,2.85187 4.001,3.31344 8.31,4.49994 8.791,2.42054 15.689,2.83013 23.652,1.40438 9.419,-1.6864 18.124,-4.69644 18.819,-6.5075 0.166,-0.43235 0.842,-0.99176 1.504,-1.24312 1.131,-0.43016 1.186,-0.61145 0.931,-3.08283 -0.305,-2.95581 -2.923,-8.24311 -4.298,-8.6793 -0.465,-0.14763 -1.117,-0.53185 -1.449,-0.85382 -0.332,-0.32197 -2.588,-1.58664 -5.012,-2.81036 -3.296,-1.66318 -5.207,-2.31047 -7.572,-2.56367 -2.657,-0.28457 -3.163,-0.48344 -3.163,-1.24412 0,-1.87499 5.56,-0.80956 11.511,2.20566 5.55,2.81223 7.462,4.43137 9.545,8.08322 2.392,4.19186 2.929,6.83497 1.834,9.02923 -0.427,0.85568 -0.776,1.86953 -0.776,2.253 0,0.38348 -1.293,1.96184 -2.873,3.50747 -5.636,5.51534 -12.959,7.73451 -25.971,7.87037 -4.098,0.0428 -8.425,-0.0897 -9.615,-0.29452 z m 17.864,-1.96444 c 7.046,-0.64182 14.87,-3.90787 17.146,-7.1579 0.631,-0.90092 0.384,-0.84783 -2.125,0.45667 -1.561,0.81185 -4.678,2.02215 -6.925,2.68954 -4.961,1.47322 -16.35,3.30051 -18.437,2.95805 -0.833,-0.13659 -3.335,-0.36035 -5.561,-0.49724 -2.226,-0.13689 -5.579,-0.68337 -7.452,-1.2144 -1.872,-0.53104 -4.17,-1.17362 -5.107,-1.42797 -0.938,-0.25434 -2.645,-1.26727 -3.794,-2.25094 -1.287,-1.10109 -1.894,-1.42236 -1.58,-0.83588 1.804,3.37116 7.24,6.30168 12.97,6.99216 2.047,0.24668 3.939,0.51821 4.203,0.60342 0.686,0.22103 13.419,-0.0201 16.662,-0.31551 z m -4.605,-39.22412 c -0.407,-0.65779 0.239,-15.68893 0.706,-16.44496 0.198,-0.32021 0.687,-0.45689 1.086,-0.30374 0.571,0.2191 0.643,0.66954 0.34,2.11303 -0.212,1.00902 -0.529,4.64668 -0.705,8.0837 -0.301,5.87456 -0.703,7.72309 -1.427,6.55197 z m 16.066,-3.93648 c 0,-0.27999 0.216,-0.37538 0.481,-0.21198 0.264,0.1634 0.48,0.39248 0.48,0.50907 0,0.11659 -0.216,0.21198 -0.48,0.21198 -0.265,0 -0.481,-0.22908 -0.481,-0.50907 z m -21.152,-8.14356 c 0,-0.26439 0.216,-0.4807 0.48,-0.4807 0.265,0 0.481,0.21631 0.481,0.4807 0,0.26438 -0.216,0.4807 -0.481,0.4807 -0.264,0 -0.48,-0.21632 -0.48,-0.4807 z m 5.464,-8.29211 c 0.01,-1.38802 -0.152,-6.52552 -0.371,-11.41666 -0.219,-4.89114 -0.456,-10.4072 -0.528,-12.2579 l -0.131,-3.36491 -2.667,0.16257 c -3.791,0.23112 -8.83,-1.43742 -12.574,-4.16354 -2.758,-2.0079 -8.903,-7.9514 -8.903,-8.6108 0,-0.24197 -0.502,-0.9109 -1.114,-1.48652 -0.613,-0.57561 -1.733,-2.39792 -2.489,-4.04958 -0.756,-1.65165 -1.874,-4.08459 -2.486,-5.40652 -1.004,-2.17214 -1.446,-3.79628 -2.401,-8.828 -0.289,-1.52257 -0.239,-1.6004 0.846,-1.32637 0.635,0.16011 0.882,0.16648 0.55,0.0141 -0.332,-0.15233 -0.482,-0.47481 -0.332,-0.71661 0.149,-0.24181 -0.1,-0.43965 -0.545,-0.43965 -0.449,0 -1.104,-0.37855 -1.455,-0.84123 -0.424,-0.55875 -0.644,-0.62993 -0.654,-0.21198 0,0.34609 -0.232,0.49556 -0.496,0.33216 -0.73,-0.45123 -0.575,-1.20176 0.249,-1.20176 0.504,0 0.66,-0.33552 0.505,-1.08157 -0.393,-1.8798 -0.737,-7.6163 -0.802,-13.33948 -0.04,-3.52782 -0.26,-5.65852 -0.608,-5.8886 -0.371,-0.24522 -0.386,-0.47582 -0.05,-0.72105 0.275,-0.19829 0.538,-1.65842 0.585,-3.24473 0.07,-2.431 0.668,-9.21453 1.311,-14.90176 0.09,-0.79316 0.329,-3.28079 0.533,-5.52807 0.204,-2.24728 0.396,-4.19412 0.427,-4.32632 0.03,-0.13219 0.223,-1.27611 0.426,-2.54204 0.506,-3.15203 2.033,-7.44889 3.367,-9.47489 0.609,-0.92568 1.25,-2.25683 1.424,-2.9581 0.174,-0.70127 1.371,-2.21548 2.66,-3.36491 2.332,-2.08008 5.881,-3.51632 11.603,-4.69587 3.096,-0.63843 17.305,-1.21564 17.309,-0.7032 0,0.23374 1.539,0.44837 3.415,0.47696 1.876,0.0286 3.551,0.24491 3.722,0.4807 0.171,0.2358 1.204,0.44541 2.295,0.4658 1.09,0.0204 2.713,0.36725 3.605,0.7708 0.892,0.40355 2.892,1.23357 4.443,1.84449 1.552,0.61092 3.482,1.66657 4.289,2.34589 0.808,0.67932 1.809,1.23867 2.225,1.243 0.728,0.008 2.7,4.57096 3.223,7.45874 0.436,2.40592 2.566,14.77207 3.27,18.98772 0.732,4.37982 1.625,11.78926 1.992,16.53674 0.147,1.90304 0.459,2.7768 1.166,3.27199 1.188,0.83254 1.247,1.58233 0.123,1.58302 -0.732,4.5e-4 -0.836,0.48267 -0.8,3.72543 0.05,4.61597 -0.906,12.76151 -2.246,19.10738 -0.559,2.64386 -1.206,5.74041 -1.44,6.88122 -0.755,3.6909 -2.374,6.54166 -7.875,13.86119 -1.773,2.36049 -5.47,5.31209 -7.566,6.04152 -0.872,0.30342 -2.511,1.13813 -3.643,1.85491 -1.131,0.71677 -2.807,1.44409 -3.725,1.61626 -0.918,0.17217 -1.669,0.49143 -1.669,0.70948 0,0.6177 -4.127,1.6212 -5.711,1.38871 -1.848,-0.27115 -2.008,0.53986 -1.438,7.24891 0.758,8.9169 0.906,20.42383 0.267,20.83007 -1.019,0.64797 -1.142,0.41138 -1.114,-2.14718 z m 5.02,-30.33327 1.11,-0.61588 -0.99,-1.16972 c -0.927,-1.09688 -1.03,-1.11734 -1.643,-0.3285 -0.903,1.16071 -1.715,1.05531 -3.258,-0.42299 -1.22,-1.16862 -1.299,-1.1868 -1.052,-0.24035 0.36,1.37356 0.02,1.29369 -1.983,-0.46097 -0.93,-0.81667 -1.912,-1.41125 -2.181,-1.32131 -0.645,0.21481 3.093,4.17118 4.461,4.72174 1.551,0.62441 4.261,0.54509 5.536,-0.16202 z m 5.048,-0.0638 c 2.016,-0.84243 3.007,-1.99264 1.233,-1.4316 -1.661,0.52543 -4.02,2.14537 -3.123,2.14537 0.1,0 0.95,-0.3212 1.89,-0.71377 z m -17.218,-1.21199 c -0.866,-0.90468 -1.689,-1.34846 -2.198,-1.18673 -0.47,0.14908 -1.426,-0.25623 -2.26,-0.95845 -0.796,-0.66923 -1.671,-1.21678 -1.946,-1.21678 -0.274,0 -0.625,-0.39658 -0.778,-0.88129 -0.269,-0.84711 -1.708,-1.27507 -1.708,-0.50791 0,0.65001 5.332,5.4614 6.414,5.78777 0.571,0.17194 1.672,0.33418 2.449,0.36053 l 1.412,0.0479 z m 2.34,-0.7181 c -0.152,-0.39658 -0.463,-0.72105 -0.691,-0.72105 -0.227,0 -0.289,0.32447 -0.137,0.72105 0.152,0.39658 0.463,0.72105 0.691,0.72105 0.228,0 0.289,-0.32447 0.137,-0.72105 z m 11.878,-0.92582 c -0.603,-0.64139 -0.952,-1.3985 -0.776,-1.68245 0.434,-0.70249 -0.368,-0.6551 -1.088,0.0642 -0.453,0.45356 -0.343,0.81516 0.505,1.6534 1.531,1.51333 2.783,1.48091 1.359,-0.0352 z m 3.222,-0.36607 c -0.298,-0.89132 -1.332,-1.03916 -1.332,-0.19027 0,0.41861 0.342,0.76111 0.761,0.76111 0.418,0 0.675,-0.25688 0.571,-0.57084 z m 11.583,-3.60443 c 0.842,-1.00843 1.817,-2.15798 2.166,-2.55456 1.01,-1.14754 4.612,-6.73215 5.556,-8.6156 2.299,-4.58642 4.722,-18.7834 4.849,-28.4143 0.05,-4.08155 -0.729,-13.84439 -1.143,-14.2587 -0.09,-0.0899 -0.142,4.43708 -0.115,10.05995 0.04,8.14903 -0.13,11.10121 -0.83,14.5497 -1.564,7.70038 -3.065,13.40558 -4.174,15.86316 -1.887,4.18242 -6.377,10.85156 -9.49,14.09459 -1.652,1.72181 -3.004,3.20631 -3.004,3.29889 0,0.67105 4.957,-2.55366 6.185,-4.02313 z m -29.691,2.11008 c -0.617,-0.61698 -1.243,-0.14013 -0.786,0.59894 0.177,0.28629 0.542,0.38442 0.811,0.21808 0.328,-0.20292 0.32,-0.47179 -0.02,-0.81702 z m 5.228,-0.51613 c -0.655,-0.62656 -1.297,-1.0444 -1.425,-0.92852 -0.222,0.20085 1.905,2.0347 2.386,2.05704 0.127,0.006 -0.306,-0.50195 -0.961,-1.12852 z m 11.067,-0.81196 c 0,-0.96612 -0.702,-1.26202 -1.175,-0.49572 -0.384,0.62118 0.228,2.01396 0.744,1.69471 0.237,-0.14628 0.431,-0.68583 0.431,-1.19899 z m 4.217,0.77074 c 0.376,0.66597 0.681,0.79105 1.047,0.42898 0.368,-0.36358 0.166,-0.84138 -0.701,-1.65538 -1.13,-1.06154 -1.275,-1.08716 -2.008,-0.35425 -0.674,0.67411 -0.694,0.9062 -0.133,1.58181 0.607,0.73126 0.681,0.72554 0.961,-0.0747 0.287,-0.81708 0.334,-0.81288 0.834,0.0736 z m -11.428,-0.26167 c 0,-0.26439 -0.337,-0.48071 -0.75,-0.48071 -0.412,0 -0.615,0.21632 -0.452,0.48071 0.163,0.26438 0.501,0.4807 0.75,0.4807 0.248,0 0.452,-0.21632 0.452,-0.4807 z m 3.674,-1.29315 c -0.416,-0.41602 -1.789,0.84233 -1.475,1.3513 0.146,0.23646 0.602,0.0935 1.014,-0.31771 0.411,-0.41119 0.619,-0.87631 0.461,-1.03359 z m -14.937,-0.51506 c -0.16,-0.15997 -0.556,-0.0259 -0.88,0.29799 -0.464,0.46466 -0.437,0.68333 0.129,1.03687 0.511,0.31917 0.764,0.23346 0.879,-0.29799 0.09,-0.41031 0.03,-0.8769 -0.128,-1.03687 z m 3.331,0.8468 c -0.164,-0.26438 -0.514,-0.4807 -0.778,-0.4807 -0.264,0 -0.347,0.21632 -0.184,0.4807 0.164,0.26439 0.514,0.4807 0.778,0.4807 0.265,0 0.347,-0.21631 0.184,-0.4807 z m 9.661,-2.21398 c -0.298,-0.77873 -0.409,-0.76122 -1.387,0.2189 -0.91,0.91136 -0.959,1.13 -0.342,1.51282 0.968,0.60053 2.165,-0.59793 1.729,-1.73172 z m 7.405,0.31424 c 0,-1.13433 -1.273,-1.63771 -1.651,-0.65284 -0.329,0.8577 0.582,2.19513 1.224,1.79787 0.235,-0.14489 0.427,-0.66015 0.427,-1.14503 z m 5.548,0.90636 c 0.174,-0.28198 0.218,-0.61154 0.1,-0.73237 -0.335,-0.33528 -1.799,0.3285 -1.799,0.81578 0,0.60174 1.318,0.53712 1.702,-0.0834 z m -32.469,-0.33309 c 0,-0.20079 -0.433,-0.63525 -0.962,-0.96548 -1.052,-0.65733 -1.303,-0.16533 -0.384,0.75371 0.651,0.65111 1.346,0.76043 1.346,0.21177 z m -4.629,-3.36037 c -1.172,-1.7846 -2.286,-3.19066 -2.477,-3.12456 -0.19,0.0661 -0.531,0.18191 -0.757,0.25737 -0.471,0.15688 4.375,6.11193 4.973,6.11193 0.216,0 -0.566,-1.46013 -1.739,-3.24474 z m 9.557,2.96376 c 0.155,-0.15454 -0.07,-0.69074 -0.499,-1.19156 -0.563,-0.65767 -0.878,-0.751 -1.135,-0.33602 -0.575,0.93063 0.875,2.28643 1.634,1.52758 z m 10.455,0.069 c 0,-0.11659 -0.216,-0.34568 -0.48,-0.50908 -0.265,-0.16339 -0.481,-0.068 -0.481,0.21199 0,0.27999 0.216,0.50907 0.481,0.50907 0.264,0 0.48,-0.0954 0.48,-0.21198 z m 7.692,-0.18861 c 0,-0.62591 -0.572,-1.04217 -1.036,-0.75488 -0.498,0.30725 -0.07,1.15547 0.584,1.15547 0.248,0 0.452,-0.18027 0.452,-0.40059 z m 7.411,-0.86997 c 0.167,-0.43442 0.204,-0.88871 0.08,-1.00954 -0.383,-0.38203 -1.246,0.3851 -1.246,1.10671 0,0.94291 0.788,0.87701 1.162,-0.0972 z m -13.176,-0.65938 c 0.411,-0.76887 0.359,-1.02977 -0.256,-1.26558 -0.989,-0.37943 -1.886,0.5004 -1.509,1.48075 0.397,1.03516 1.145,0.94403 1.765,-0.21517 z m 19.641,-0.73845 c 0.152,-0.78408 0.07,-0.81938 -0.601,-0.26184 -0.918,0.76249 -1.033,1.65369 -0.175,1.36817 0.33,-0.11004 0.68,-0.60789 0.776,-1.10633 z m -30.812,0.17475 c -0.104,-0.31396 -0.447,-0.65651 -0.761,-0.76122 -0.352,-0.11709 -0.459,0.10267 -0.279,0.57083 0.335,0.87378 1.329,1.05558 1.04,0.19039 z m 15.013,-0.15022 c 0,-0.39658 -0.216,-0.72105 -0.481,-0.72105 -0.264,0 -0.48,0.32447 -0.48,0.72105 0,0.39658 0.216,0.72105 0.48,0.72105 0.265,0 0.481,-0.32447 0.481,-0.72105 z m 3.605,-0.24694 c 0,-1.03038 -1.396,-0.88156 -1.599,0.17042 -0.124,0.6424 0.07,0.83818 0.715,0.71447 0.486,-0.0937 0.884,-0.49193 0.884,-0.88489 z m -22.353,-0.2681 c 0,-0.98694 -1.3,-2.27345 -1.914,-1.89405 -0.297,0.18333 -0.186,0.7441 0.292,1.47275 0.878,1.34093 1.622,1.53399 1.622,0.4213 z m 10.095,0.27469 c 0,-0.26439 -0.229,-0.4807 -0.509,-0.4807 -0.28,0 -0.376,0.21631 -0.212,0.4807 0.163,0.26438 0.392,0.4807 0.509,0.4807 0.116,0 0.212,-0.21632 0.212,-0.4807 z m 16.825,-0.74412 c 0,-1.07034 -1.005,-1.3407 -1.848,-0.49713 -0.671,0.67107 -0.69,0.86074 -0.118,1.21416 0.856,0.52928 1.966,0.12443 1.966,-0.71703 z m 6.542,-1.04592 c 1.026,-1.19393 3.554,-5.63577 3.554,-6.24476 0,-0.14017 -0.325,0.0144 -0.721,0.34357 -0.397,0.32913 -0.721,0.86595 -0.721,1.19293 0,0.32699 -0.866,1.57751 -1.923,2.77894 -1.766,2.00623 -2.382,3.23866 -1.619,3.23866 0.168,0 0.811,-0.5892 1.43,-1.30934 z m -28.655,0.64714 c 0,-0.0998 -0.33,-0.45489 -0.732,-0.78904 -0.612,-0.508 -0.683,-0.47826 -0.43,0.18149 0.259,0.67382 1.162,1.1461 1.162,0.60755 z m 7.835,-0.12206 c 0.167,-0.16696 0.08,-0.72569 -0.199,-1.24164 -0.476,-0.88926 -0.549,-0.89514 -1.414,-0.1129 -0.501,0.45385 -0.796,1.01258 -0.654,1.24164 0.298,0.48273 1.821,0.55857 2.267,0.1129 z m 4.183,-0.92657 c 0,-0.38098 -0.433,-0.69268 -0.961,-0.69268 -1.05,0 -1.331,1.22967 -0.361,1.57753 0.813,0.29171 1.322,-0.0488 1.322,-0.88485 z m 3.839,-0.33216 c 0,-0.19829 -0.318,-0.36052 -0.714,-0.36052 -0.736,0 -0.985,1.01804 -0.394,1.60956 0.323,0.32278 1.093,-0.54589 1.108,-1.24904 z m 3.691,-0.15248 c 0.427,-1.11259 -0.518,-1.8483 -1.246,-0.97053 -0.616,0.74204 -0.337,1.72389 0.49,1.72389 0.257,0 0.597,-0.33901 0.756,-0.75336 z m 4.008,-0.44839 c 0,-0.39658 -0.325,-0.72106 -0.722,-0.72106 -0.396,0 -0.721,0.32448 -0.721,0.72106 0,0.39657 0.325,0.72105 0.721,0.72105 0.397,0 0.722,-0.32448 0.722,-0.72105 z m -30.783,-0.12018 c -0.04,-0.90962 -1.963,-2.60517 -2.653,-2.34022 -0.662,0.25403 -0.648,0.4248 0.119,1.47886 0.798,1.09705 2.571,1.69959 2.534,0.86136 z m 2.9,-0.12018 c 0,-0.26438 -0.229,-0.4807 -0.509,-0.4807 -0.28,0 -0.375,0.21632 -0.212,0.4807 0.164,0.26439 0.393,0.48071 0.509,0.48071 0.117,0 0.212,-0.21632 0.212,-0.48071 z m 9.615,-0.4807 c 0,-0.26438 -0.1,-0.4807 -0.212,-0.4807 -0.117,0 -0.346,0.21632 -0.509,0.4807 -0.164,0.26439 -0.07,0.4807 0.212,0.4807 0.28,0 0.509,-0.21631 0.509,-0.4807 z m 3.984,-1.01566 c -0.812,-0.81133 -1.776,-0.0392 -1.047,0.83848 0.402,0.48469 0.733,0.54519 1.081,0.19756 0.347,-0.34764 0.337,-0.6649 -0.03,-1.03604 z m 4.508,0.743 c 0.427,-1.11259 -0.518,-1.84829 -1.247,-0.97052 -0.616,0.74203 -0.337,1.72388 0.49,1.72388 0.257,0 0.598,-0.33901 0.757,-0.75336 z m 13.905,-0.56503 c -0.333,-0.33336 -1.245,0.34397 -1.245,0.92492 0,0.31875 0.276,0.28228 0.733,-0.0969 0.403,-0.33443 0.633,-0.70705 0.512,-0.82805 z m -30.57,0.35699 c 0,-0.26438 -0.229,-0.4807 -0.509,-0.4807 -0.28,0 -0.375,0.21632 -0.212,0.4807 0.164,0.26439 0.393,0.4807 0.509,0.4807 0.117,0 0.212,-0.21631 0.212,-0.4807 z m 20.38,-0.76122 c 0.18,-0.46816 0.07,-0.68792 -0.279,-0.57083 -0.718,0.23952 -1.114,1.33205 -0.482,1.33205 0.258,0 0.601,-0.34255 0.761,-0.76122 z m -32.716,-0.32036 c -0.206,-0.33048 -0.438,-1.00674 -0.515,-1.50279 -0.08,-0.49606 -0.437,-1.57764 -0.8,-2.40351 -1.492,-3.39846 -2.149,-6.42141 -3.463,-15.92265 -0.109,-0.79315 -0.398,-2.09105 -0.642,-2.88421 -0.244,-0.79315 -0.578,-2.31179 -0.742,-3.37474 -0.163,-1.06295 -0.514,-2.25269 -0.779,-2.64386 -0.328,-0.48382 -0.403,1.41783 -0.235,5.94767 0.136,3.6624 0.438,6.90713 0.67,7.21053 0.233,0.3034 0.914,2.174 1.513,4.1569 0.6,1.98289 1.367,4.25421 1.705,5.04736 0.338,0.79316 0.762,1.9829 0.942,2.64386 0.476,1.7519 1.858,4.32632 2.321,4.32632 0.22,0 0.231,-0.2704 0.02,-0.60088 z m 19.282,-0.22767 c 0.477,-1.24295 -1.136,-2.30263 -2.075,-1.36344 -0.576,0.57594 -0.591,0.83513 -0.08,1.44681 0.815,0.98255 1.763,0.94595 2.158,-0.0834 z m 17.572,0.33276 c 0,-0.61959 -1.37,-1.1791 -1.81,-0.73921 -0.179,0.17923 0,0.52711 0.381,0.77307 0.931,0.58848 1.429,0.57668 1.429,-0.0339 z m 4.243,-0.62761 c 0.164,-0.85157 -1.282,-2.34598 -1.9,-1.96394 -0.171,0.10577 -0.428,-0.25407 -0.571,-0.79965 -0.223,-0.85267 -0.405,-0.91403 -1.296,-0.43703 -0.96,0.51359 -0.979,0.61854 -0.264,1.4091 0.519,0.57361 1.204,0.77491 2.083,0.61286 1.273,-0.23438 1.286,-0.21403 0.468,0.70886 -0.463,0.52259 -0.69,1.10233 -0.504,1.2883 0.59,0.58996 1.809,0.0868 1.984,-0.8185 z m -33.073,-0.29193 c -0.275,-0.51405 -0.749,-1.08826 -1.052,-1.27603 -0.371,-0.22876 -0.424,-0.11865 -0.163,0.33375 1.031,1.78725 2.119,2.63083 1.215,0.94228 z m 42.29,-2.4419 c 0,-0.95139 -0.866,-0.43189 -1.148,0.68801 -0.159,0.6364 -0.422,1.55575 -0.584,2.04298 -0.161,0.48724 0.163,0.17763 0.719,-0.68801 0.557,-0.86565 1.013,-1.78499 1.013,-2.04298 z m -23.358,2.1137 c 0.179,-0.46677 -0.04,-1.03639 -0.55,-1.41273 -0.709,-0.52627 -0.969,-0.51131 -1.571,0.0905 -0.641,0.64093 -0.617,0.7979 0.213,1.41272 1.196,0.8871 1.539,0.87087 1.908,-0.0905 z m 4.61,-1.20419 c 0,-0.80625 -1.102,-0.96344 -1.808,-0.25785 -0.64,0.64049 -0.655,0.87236 -0.1,1.54239 0.604,0.72822 0.702,0.72304 1.28,-0.0678 0.345,-0.47098 0.627,-1.01854 0.627,-1.21679 z m -30.243,-0.0635 c -0.428,-1.12624 -1.485,-2.23646 -1.485,-1.55997 0,0.58187 1.518,3.21297 1.731,3.00005 0.12,-0.12009 0,-0.76813 -0.246,-1.44008 z m 21.349,1.08839 c 0.164,-0.26438 0.08,-0.4807 -0.183,-0.4807 -0.265,0 -0.615,0.21632 -0.778,0.4807 -0.164,0.26439 -0.08,0.4807 0.183,0.4807 0.265,0 0.615,-0.21631 0.778,-0.4807 z m -18.027,-0.42184 c 0,-0.23201 -0.325,-0.69113 -0.721,-1.02026 -0.585,-0.48532 -0.721,-0.46617 -0.721,0.10137 0,0.38489 0.144,0.84401 0.32,1.02026 0.457,0.45652 1.122,0.39641 1.122,-0.10137 z m 4.569,-1.01732 c -0.48,-0.53039 -1.093,-0.96435 -1.362,-0.96435 -0.27,0 0.02,0.53994 0.637,1.19986 1.323,1.40789 2.011,1.18455 0.725,-0.23551 z m 35.716,0.86232 c 0.695,-0.69501 0.75,-1.34596 0.113,-1.34596 -0.255,0 -0.695,0.43263 -0.978,0.9614 -0.567,1.0588 -0.04,1.29193 0.865,0.38456 z m -28.462,-1.56045 c 0.06,-0.3877 -0.211,-0.96618 -0.596,-1.2855 -0.552,-0.45856 -0.846,-0.43445 -1.395,0.11471 -0.606,0.6066 -0.596,0.83647 0.08,1.80185 0.802,1.14521 1.694,0.85082 1.911,-0.63106 z m 18.463,1.17589 c 0,-0.26439 -0.325,-0.4807 -0.721,-0.4807 -0.397,0 -0.721,0.21631 -0.721,0.4807 0,0.26438 0.324,0.4807 0.721,0.4807 0.396,0 0.721,-0.21632 0.721,-0.4807 z m -13.799,-1.18665 c -0.951,-1.30731 -1.371,-1.47059 -1.838,-0.7151 -0.438,0.70924 0.676,1.90175 1.777,1.90175 0.896,0 0.898,-0.0368 0.06,-1.18665 z m 7.705,-1.99956 c -0.712,-1.08684 -0.798,-1.10555 -1.403,-0.30746 -0.807,1.0626 -0.834,1.70077 -0.105,2.42956 0.44,0.43991 0.764,0.39481 1.418,-0.19727 0.781,-0.70646 0.788,-0.85968 0.09,-1.92483 z m 14.558,1.86428 c 1.447,-1.90596 0.158,-2.88018 -1.401,-1.05915 -0.845,0.98687 -0.728,1.90038 0.243,1.90038 0.286,0 0.807,-0.37856 1.158,-0.84123 z m -19.04,-0.12018 c 0,-0.26438 -0.1,-0.4807 -0.212,-0.4807 -0.117,0 -0.346,0.21632 -0.509,0.4807 -0.164,0.26439 -0.07,0.48071 0.212,0.48071 0.28,0 0.509,-0.21632 0.509,-0.48071 z m 24.036,-1.01814 c 0,-0.26439 -0.216,-0.34701 -0.481,-0.18361 -0.264,0.1634 -0.48,0.51341 -0.48,0.77779 0,0.26439 0.216,0.34701 0.48,0.18361 0.265,-0.1634 0.481,-0.5134 0.481,-0.77779 z m -15.383,-0.18361 c 0,-0.39658 -0.325,-0.72105 -0.721,-0.72105 -0.397,0 -0.721,0.32447 -0.721,0.72105 0,0.39658 0.324,0.72105 0.721,0.72105 0.396,0 0.721,-0.32447 0.721,-0.72105 z m 3.68,-0.0207 c 0.156,-0.40798 0.155,-0.87144 0,-1.02991 -0.342,-0.34237 -1.753,0.74392 -1.753,1.34985 0,0.72542 1.457,0.45998 1.757,-0.31994 z m -13.632,-0.0425 c 0.475,-0.47537 -0.578,-2.09996 -1.362,-2.09996 -0.857,0 -0.944,1.74606 -0.103,2.08515 0.872,0.35193 1.125,0.35449 1.465,0.0148 z m 18.605,-1.90574 c 0,-1.19965 -1.1,-1.28499 -1.955,-0.15165 -0.631,0.83635 -0.724,1.30868 -0.346,1.76372 0.416,0.50167 0.688,0.46577 1.408,-0.18621 0.491,-0.44422 0.893,-1.08586 0.893,-1.42586 z m -46.801,-0.53877 c -0.39,-0.75412 -0.86,-2.17722 -1.045,-3.16246 -0.185,-0.98523 -0.565,-1.93258 -0.844,-2.10523 -0.326,-0.20139 -0.387,0.002 -0.169,0.56777 0.186,0.48492 0.549,1.82516 0.808,2.97833 0.499,2.22789 1.557,4.30097 1.808,3.54558 0.08,-0.24907 -0.168,-1.06987 -0.558,-1.82399 z m 11.948,1.78666 c -0.163,-0.26439 -0.501,-0.48071 -0.749,-0.48071 -0.249,0 -0.453,0.21632 -0.453,0.48071 0,0.26438 0.338,0.4807 0.75,0.4807 0.412,0 0.616,-0.21632 0.452,-0.4807 z m 6.947,-0.96141 c 0,-0.13219 -0.435,-0.75253 -0.956,-1.37853 -0.791,-0.94901 -1.071,-1.03652 -1.686,-0.52651 -0.649,0.53903 -0.581,0.77426 0.575,1.9806 0.961,1.00303 1.414,1.208 1.694,0.76686 0.21,-0.33114 0.378,-0.71022 0.373,-0.84242 z m 3.801,-0.52326 c -1.091,-0.67382 -1.668,0.44167 -0.627,1.21025 0.821,0.60616 0.956,0.59873 1.103,-0.0608 0.09,-0.41325 -0.122,-0.93052 -0.476,-1.14948 z m 9.202,-0.0332 c 0,-0.24132 -0.438,-0.20398 -0.975,0.083 -0.536,0.28695 -0.841,0.7377 -0.678,1.00166 0.329,0.5319 1.653,-0.33705 1.653,-1.08464 z m -27.226,-0.9575 c -1.012,-1.11786 -1.276,-0.88913 -0.864,0.74912 0.258,1.02775 0.449,1.16359 0.997,0.70885 0.578,-0.48027 0.559,-0.6935 -0.133,-1.45797 z m 31.072,0.31222 c -0.421,-0.50787 -0.792,-0.60157 -1.113,-0.2811 -0.32,0.32047 -0.27,0.73464 0.152,1.2425 0.421,0.50787 0.792,0.60157 1.113,0.2811 0.32,-0.32047 0.27,-0.73464 -0.152,-1.2425 z m 3.723,-0.0888 c -0.75,-0.75015 -0.825,-0.74673 -1.131,0.052 -0.382,0.99561 0.752,1.93307 1.47,1.21513 0.298,-0.29835 0.177,-0.7509 -0.339,-1.26708 z m 17.231,1.22252 c 0.542,-0.87655 0.734,-4.739 0.235,-4.739 -0.571,0 -1.154,1.76315 -0.781,2.36599 0.154,0.24848 0.06,0.58766 -0.209,0.75372 -0.615,0.38012 -0.645,2.168 -0.04,2.168 0.249,0 0.605,-0.24692 0.792,-0.54871 z m -5.57,-0.86502 c 0,-0.51317 -0.192,-1.05158 -0.427,-1.19646 -0.585,-0.36182 -1.653,1.00707 -1.269,1.62773 0.526,0.85137 1.696,0.55393 1.696,-0.43127 z m -41.339,-0.26343 c -0.327,-0.39367 -0.809,-0.58294 -1.071,-0.42061 -0.291,0.17928 -0.222,0.45737 0.174,0.7084 1.037,0.657 1.546,0.49379 0.897,-0.28779 z m 34.142,-0.27229 c 0.846,-1.58182 0.291,-2.20148 -0.903,-1.00735 -0.588,0.58798 -0.941,1.27749 -0.783,1.53223 0.459,0.74316 1.117,0.53844 1.686,-0.52488 z m -19.039,-1.09472 c -0.313,-0.81698 -1.228,-1.05977 -1.808,-0.47992 -0.177,0.17683 0.04,0.72273 0.485,1.21311 0.905,0.99964 1.798,0.50461 1.323,-0.73319 z m 5.083,0.42868 c 0,-1.50163 -0.584,-1.85187 -1.713,-1.02639 -0.759,0.55479 -0.797,0.77055 -0.253,1.42671 0.957,1.1531 1.966,0.94765 1.966,-0.40032 z m -9.614,-0.43456 c 0,-0.35561 -0.397,-1.00545 -0.881,-1.44411 -0.823,-0.74456 -0.883,-0.74152 -0.896,0.0457 -0.02,0.9447 0.712,2.04498 1.355,2.04498 0.232,0 0.422,-0.29095 0.422,-0.64655 z m 16.794,-1.07341 c -0.307,-0.37013 -0.761,-0.54793 -1.008,-0.39511 -0.266,0.16431 -0.221,0.55284 0.109,0.95081 0.307,0.37013 0.761,0.54793 1.008,0.39511 0.266,-0.16431 0.222,-0.55283 -0.109,-0.95081 z m 4.743,0.66241 c 0.317,-0.31726 0.576,-0.95344 0.576,-1.41373 0,-1.38494 -1.051,-1.60862 -2.008,-0.42722 -0.682,0.84295 -0.763,1.25408 -0.344,1.75894 0.672,0.80914 1.032,0.82576 1.776,0.082 z m 7.092,0.0543 c 0.178,-0.28742 0.09,-0.75415 -0.191,-1.03717 -0.6,-0.59987 -2.161,0.4265 -1.724,1.13352 0.366,0.592 1.526,0.53365 1.915,-0.0964 z m -33.436,-0.71923 c 0,-0.41861 -0.257,-0.67548 -0.571,-0.57083 -0.892,0.29711 -1.04,1.33194 -0.191,1.33194 0.419,0 0.762,-0.3425 0.762,-0.76111 z m 37.222,0.33488 c 0.145,-0.23443 -0.04,-0.67757 -0.409,-0.98475 -0.749,-0.62185 -1.517,0.0927 -0.999,0.93028 0.368,0.59517 1.058,0.62185 1.408,0.0545 z m -25.167,-0.8957 c 0.02,-0.19829 0.107,-0.72963 0.194,-1.18075 0.2,-1.0362 -0.947,-2.02089 -1.919,-1.64796 -1.204,0.46233 -1.451,1.81456 -0.462,2.5377 0.972,0.71017 2.128,0.86411 2.187,0.29101 z m -18.795,-0.85284 c -0.335,-0.40297 -0.734,-0.60752 -0.887,-0.45457 -0.152,0.15296 0.04,0.47935 0.43,0.72531 1.017,0.64357 1.15,0.56482 0.457,-0.27074 z m 13.47,0.0861 c 0,-0.35561 -0.446,-1.05003 -0.991,-1.54317 -0.848,-0.76775 -1.055,-0.79573 -1.439,-0.19468 -0.32,0.50026 -0.158,0.94364 0.563,1.54317 1.211,1.00653 1.867,1.07495 1.867,0.19468 z m 9.9,0.0929 c 0.523,-0.84626 -1.249,-1.96584 -2.054,-1.29775 -0.533,0.44173 -0.497,0.64868 0.201,1.17832 1.053,0.79925 1.418,0.82279 1.853,0.11943 z m 13.857,0.26185 c 0.418,-0.16048 0.76,-0.60898 0.76,-0.99665 0,-0.98634 -1.633,-0.58289 -1.833,0.45272 -0.176,0.91628 -0.06,0.97705 1.073,0.54393 z m -32.252,-1.43046 c -0.307,-0.79927 -0.62,-0.83707 -1.601,-0.19321 -0.614,0.4035 -0.621,0.5377 -0.04,0.90957 0.913,0.58824 1.968,0.12862 1.644,-0.71636 z m 25.904,0.005 c 0.456,-1.00081 0.431,-1.31967 -0.13,-1.67465 -1.429,-0.90322 -3.005,0.8529 -1.929,2.14948 0.889,1.07112 1.409,0.95104 2.059,-0.47483 z m -36.158,0.27477 c 0,-0.26438 -0.09,-0.4807 -0.212,-0.4807 -0.116,0 -0.345,0.21632 -0.509,0.4807 -0.163,0.26439 -0.07,0.4807 0.212,0.4807 0.28,0 0.509,-0.21631 0.509,-0.4807 z m 13.676,-0.52176 c -0.155,-0.25043 -0.487,-0.32869 -0.737,-0.17392 -0.25,0.15478 -0.329,0.48631 -0.174,0.73674 0.155,0.25043 0.486,0.32869 0.737,0.17392 0.25,-0.15478 0.329,-0.48631 0.174,-0.73674 z m 18.052,0.52176 c 0,-0.26438 -0.1,-0.4807 -0.212,-0.4807 -0.116,0 -0.345,0.21632 -0.509,0.4807 -0.163,0.26439 -0.07,0.4807 0.212,0.4807 0.28,0 0.509,-0.21631 0.509,-0.4807 z m 15.292,-0.36052 c -0.09,-0.46268 -0.372,-0.84123 -0.629,-0.84123 -0.257,0 -0.541,0.37855 -0.63,0.84123 -0.101,0.52617 0.135,0.84122 0.63,0.84122 0.495,0 0.731,-0.31505 0.629,-0.84122 z m 3.97,-0.18131 c 0.427,-0.79778 0.405,-1.11094 -0.103,-1.42472 -0.855,-0.52865 -2.076,0.68971 -1.693,1.68893 0.405,1.05537 1.149,0.94602 1.796,-0.26421 z m -10.155,-1.91215 c -0.564,-1.05482 -0.997,-1.13695 -1.793,-0.34065 -0.836,0.83633 0.732,2.53682 1.643,1.78105 0.463,-0.38434 0.504,-0.77918 0.15,-1.4404 z m -37.47,1.01188 c 0,-0.26439 -0.229,-0.48071 -0.509,-0.48071 -0.28,0 -0.375,0.21632 -0.212,0.48071 0.164,0.26438 0.393,0.4807 0.509,0.4807 0.117,0 0.212,-0.21632 0.212,-0.4807 z m 17.348,-2.57622 c -0.945,-0.94472 -0.993,-0.94659 -1.955,-0.0762 l -0.986,0.89217 1.083,1.15251 1.083,1.15251 0.872,-1.07627 c 0.844,-1.04342 0.842,-1.10582 -0.1,-2.04467 z m -12.54,1.85516 c 0,-0.39658 -0.204,-0.72105 -0.453,-0.72105 -0.606,0 -1.04,0.75066 -0.656,1.13471 0.541,0.54136 1.109,0.32971 1.109,-0.41366 z m 3.846,0.0284 c 0,-0.86159 -0.795,-1.39019 -1.466,-0.97534 -0.345,0.21295 -0.326,0.52611 0.06,0.98977 0.726,0.87516 1.407,0.86818 1.407,-0.0144 z m 3.305,-0.50907 c 0.145,-0.58196 -0.604,-0.41349 -0.802,0.18027 -0.121,0.36353 0,0.52576 0.261,0.36052 0.264,-0.16524 0.508,-0.40859 0.541,-0.54079 z m 10.035,0.12018 c -0.11,-0.33048 -0.608,-0.67991 -1.106,-0.7765 -0.784,-0.15194 -0.82,-0.0709 -0.262,0.60088 0.762,0.91874 1.654,1.03314 1.368,0.17562 z m 4.564,-0.60088 c -0.245,-1.2813 -0.867,-1.59257 -1.201,-0.60088 -0.151,0.44866 0.74,1.6053 1.377,1.78735 0.03,0.008 -0.05,-0.5255 -0.176,-1.18647 z m 14.785,0.72105 c 0,-0.26438 -0.216,-0.4807 -0.481,-0.4807 -0.264,0 -0.48,0.21632 -0.48,0.4807 0,0.26439 0.216,0.4807 0.48,0.4807 0.265,0 0.481,-0.21631 0.481,-0.4807 z m 4.021,-1.45904 c -0.64,-0.64014 -1.855,0.68474 -1.361,1.48411 0.24,0.38867 0.56,0.32594 1.102,-0.21586 0.533,-0.53319 0.612,-0.91604 0.259,-1.26825 z m 3.969,0.28031 c 0.447,-1.16567 -0.229,-1.77647 -1.32,-1.19255 -0.769,0.41173 -0.848,0.65395 -0.393,1.20305 0.73,0.87938 1.373,0.87544 1.713,-0.0105 z m -46.228,-0.23016 c 0.355,-0.57521 -0.549,-1.14514 -1.189,-0.74942 -0.538,0.33225 -0.185,1.19691 0.488,1.19691 0.233,0 0.549,-0.20137 0.701,-0.44749 z m 32.382,-0.94923 c 0.415,-1.19265 0.356,-1.43084 -0.407,-1.63031 -0.507,-0.1327 -1.245,0.15522 -1.708,0.66665 -0.665,0.735 -0.703,1.03424 -0.209,1.63031 0.93,1.11963 1.787,0.87371 2.324,-0.66665 z m -29.237,0.1666 c 0,-0.41219 -0.216,-0.61574 -0.481,-0.45234 -0.264,0.1634 -0.481,0.50064 -0.481,0.74943 0,0.24878 0.217,0.45233 0.481,0.45233 0.265,0 0.481,-0.33724 0.481,-0.74942 z m 4.099,0.24766 c 0.451,-0.72891 -0.77,-2.05756 -1.354,-1.47373 -0.539,0.53911 -0.12,1.97549 0.577,1.97549 0.257,0 0.607,-0.22579 0.777,-0.50176 z m 29.228,0.18435 c 0.175,-0.17458 -0.127,-0.62927 -0.672,-1.01044 -1.116,-0.78163 -1.667,-0.52156 -1.242,0.58606 0.292,0.75916 1.346,0.9929 1.914,0.42438 z m -25.133,-1.16587 c 0.295,-0.55141 0.452,-1.08723 0.349,-1.1907 -0.364,-0.36416 -2.306,1.30326 -2.033,1.74546 0.452,0.73147 1.112,0.51404 1.684,-0.55476 z m 10.685,-0.40473 c 0.143,-0.55032 -0.108,-1.26202 -0.606,-1.71274 -0.783,-0.70789 -0.916,-0.70732 -1.631,0.007 -0.428,0.42801 -0.778,0.95257 -0.778,1.1657 0,0.60421 1.253,1.49515 1.607,1.14199 0.174,-0.17397 0.316,-0.0512 0.316,0.27289 0,0.86559 0.805,0.22026 1.092,-0.87486 z m 18.535,0.0533 c 0.143,-1.0062 0.07,-1.04869 -0.842,-0.48034 -1.214,0.75806 -1.322,1.96667 -0.157,1.74452 0.463,-0.0882 0.912,-0.65707 0.999,-1.26418 z m -23.559,-0.49428 c 0.09,-0.62584 -0.16,-1.16053 -0.634,-1.34224 -1.064,-0.40843 -1.848,0.47241 -1.473,1.65486 0.4,1.26104 1.907,1.03747 2.107,-0.31262 z m 32.776,0.61817 c 0,-0.41218 -0.217,-0.61573 -0.481,-0.45233 -0.264,0.1634 -0.481,0.50064 -0.481,0.74942 0,0.24878 0.217,0.45233 0.481,0.45233 0.264,0 0.481,-0.33724 0.481,-0.74942 z m -5.601,-0.43694 c 0.308,-0.80321 -0.408,-1.42264 -1.13,-0.97679 -0.718,0.44419 -0.579,1.68245 0.189,1.68245 0.369,0 0.792,-0.31754 0.941,-0.70566 z m -45.597,-0.70297 c 0,-0.37092 -0.216,-0.743 -0.481,-0.82683 -0.788,-0.25006 -1.832,0.64222 -1.459,1.24693 0.464,0.75014 1.94,0.43046 1.94,-0.4201 z m 3.125,0.44723 c 0,-0.26439 -0.217,-0.4807 -0.481,-0.4807 -0.264,0 -0.481,0.21631 -0.481,0.4807 0,0.26438 0.217,0.4807 0.481,0.4807 0.264,0 0.481,-0.21632 0.481,-0.4807 z m 46.63,-1.50097 c 0,-1.1064 -0.638,-1.1565 -1.664,-0.13056 -0.6,0.59957 -0.647,0.92297 -0.211,1.44803 0.704,0.84893 1.875,0.0263 1.875,-1.31747 z m -55.292,-1.06959 c 0.411,-0.42811 -0.932,-3.18958 -1.554,-3.19482 -0.488,-0.004 -0.457,0.48592 0.22,3.45838 0.435,1.91346 0.625,2.2483 0.762,1.3456 0.1,-0.66097 0.357,-1.38509 0.572,-1.60916 z m 16.533,1.39399 c 0.864,-1.31887 0.617,-2.46636 -0.682,-3.16138 -1.023,-0.54751 -2.2,-0.19506 -2.57,0.76985 -0.321,0.83613 -0.08,0.85786 1.134,0.10121 1.263,-0.78873 1.806,-0.11816 0.802,0.99092 -0.456,0.50367 -0.677,1.24041 -0.506,1.6854 0.42,1.09567 0.921,0.98967 1.822,-0.386 z m 28.973,-9.7e-4 c 0.302,-0.51545 0.436,-1.23138 0.298,-1.59095 -0.149,-0.3877 0.159,-0.76088 0.755,-0.91694 0.554,-0.14474 1.284,-0.88894 1.622,-1.65378 0.616,-1.39144 2.174,-2.03607 1.656,-0.68496 -0.489,1.27199 0.587,1.27664 1.42,0.006 0.447,-0.68291 1.396,-1.54293 2.108,-1.91116 1.136,-0.58728 1.391,-0.57302 2.08,0.11614 1.239,1.23845 1.319,0.50698 0.111,-1.00506 -0.909,-1.13701 -1.246,-1.27869 -2,-0.84144 -0.807,0.46768 -3.398,1.4918 -4.032,1.59388 -0.132,0.0213 -0.457,0.32231 -0.721,0.66897 -0.265,0.34665 -1.232,0.75813 -2.149,0.91438 -1.669,0.28419 -2.594,0.71389 -1.537,0.71389 0.942,0 0.594,1.11747 -0.888,2.85055 -1.049,1.22652 -1.278,1.80737 -0.896,2.26796 0.682,0.82102 1.499,0.62251 2.173,-0.52763 z m -10.555,-1.46632 0.996,-2.16316 h -1.653 c -0.947,0 -1.529,0.19936 -1.364,0.46713 0.159,0.25691 -0.08,1.03248 -0.534,1.72348 -0.701,1.06862 -0.722,1.32095 -0.141,1.68867 1.224,0.77438 1.686,0.48038 2.696,-1.71612 z m 1.979,0.86331 c 0.189,-1.27302 2.266,-3.22654 2.97,-2.79197 0.384,0.23771 0.311,0.68803 -0.253,1.54801 -0.741,1.1319 -0.739,1.26517 0.03,1.99847 0.582,0.55389 0.889,0.61714 1.039,0.21438 0.117,-0.31421 0.993,-1.59228 1.945,-2.84015 l 1.733,-2.26884 -1.582,0.31646 c -0.871,0.17406 -2.552,0.31647 -3.737,0.31647 -1.581,0 -2.091,0.16809 -1.913,0.63053 0.133,0.34679 -0.164,1.15797 -0.659,1.80263 -0.496,0.64466 -0.906,1.46052 -0.912,1.81304 -0.02,1.01318 1.175,0.35435 1.337,-0.73903 z m -25.582,-1.3571 c 0.712,-0.93254 1.182,-1.8067 1.047,-1.94256 -0.393,-0.39277 -3.253,2.20952 -3.253,2.95978 0,1.14985 0.853,0.75657 2.206,-1.01722 z m 10.774,-0.73572 c 0,-0.5799 -2.61,-0.87616 -3.227,-0.36624 -0.451,0.37312 -0.409,0.74843 0.188,1.65955 l 0.772,1.17739 1.134,-1.06492 c 0.623,-0.5857 1.133,-1.2183 1.133,-1.40578 z m 27.216,1.06952 c 0.03,-0.57297 -0.08,-1.04177 -0.245,-1.04177 -0.498,0 -1.458,1.79694 -1.133,2.12135 0.563,0.56305 1.323,-0.0326 1.378,-1.07958 z m -23.177,-0.1587 c 0.958,-1.36758 0.59,-1.84447 -1.423,-1.84447 -1.821,0 -2.095,0.63948 -0.859,2.00513 1.026,1.13318 1.394,1.10726 2.282,-0.16066 z m 26.453,0.28435 c 0.797,-0.79646 1.026,-2.12882 0.367,-2.12882 -0.947,0 -2.153,1.35133 -1.868,2.09365 0.376,0.97952 0.553,0.98366 1.501,0.0352 z m -21.85,-0.68671 c 0.478,0 0.994,-0.32448 1.147,-0.72106 0.386,-1.00575 -2.25,-0.97449 -3.089,0.0366 -0.521,0.62796 -0.511,0.83108 0.06,1.18635 0.417,0.25896 0.754,0.24445 0.851,-0.0366 0.09,-0.25591 0.551,-0.46529 1.03,-0.46529 z m -27.39,-0.48071 c 0,-0.26438 -0.217,-0.4807 -0.481,-0.4807 -0.264,0 -0.481,0.21632 -0.481,0.4807 0,0.26439 0.217,0.48071 0.481,0.48071 0.264,0 0.481,-0.21632 0.481,-0.48071 z m 5.752,-0.44909 c 0.686,-1.28174 0.633,-1.47371 -0.405,-1.47371 -1.083,0 -2.189,1.199 -1.755,1.90175 0.497,0.8033 1.62,0.5807 2.16,-0.42804 z m 47.804,0.52265 c 0.138,-0.22392 -0.366,-0.99877 -1.121,-1.72187 -1.604,-1.53649 -2.408,-0.92572 -1.202,0.91368 0.794,1.21289 1.846,1.57884 2.323,0.80819 z m -52.232,-1.63584 c -0.109,-0.33048 -0.722,-0.67197 -1.362,-0.75887 -1.14,-0.15475 -1.144,-0.14267 -0.203,0.58558 1.173,0.90718 1.831,0.98 1.565,0.17329 z m -11.552,-4.3177 c -0.107,-0.86399 -0.197,-0.273 -0.199,1.31332 0,1.58631 0.08,2.29321 0.194,1.57089 0.11,-0.72233 0.112,-2.02022 0,-2.88421 z m 38.916,2.98843 c 10.175,-0.49388 15.133,-1.31989 17.942,-2.9893 2.288,-1.35939 4.829,-3.79036 4.507,-4.31111 -0.144,-0.23407 -0.05,-0.68651 0.214,-1.00541 0.263,-0.3189 0.623,-1.55495 0.8,-2.74679 0.349,-2.34344 -0.194,-3.35863 -2.642,-4.94345 -1.438,-0.93114 -7.671,-2.91887 -8.029,-2.56067 -0.138,0.13784 0.315,0.39275 1.008,0.56648 0.692,0.17372 1.258,0.51551 1.258,0.75953 0,0.81429 -1.32,0.96409 -3.435,0.38967 -1.151,-0.3128 -3.77,-0.54914 -5.819,-0.5252 -2.049,0.0239 -3.726,-0.12395 -3.726,-0.32863 0,-0.99118 1.41,-1.52585 4.022,-1.52585 1.578,0 2.753,-0.11593 2.611,-0.25763 -0.844,-0.84455 -21.345,-1.43127 -24.025,-0.68758 -0.973,0.26996 -2.595,0.58806 -3.605,0.70689 -4.862,0.5718 -9.655,2.01961 -11.81,3.56682 -2.167,1.55587 -3.079,2.76819 -2.511,3.33603 0.152,0.1528 0.428,0.046 0.612,-0.23729 1.023,-1.57534 9.106,-4.93342 10.219,-4.24542 0.203,0.12522 0.441,0.0178 0.53,-0.23872 0.09,-0.25652 1.742,-0.73671 3.675,-1.0671 2.961,-0.50618 3.579,-0.49485 3.929,0.072 0.315,0.50948 0.575,0.54057 1.072,0.12815 1.032,-0.85624 11.338,-1.8469 12.028,-1.15623 0.309,0.30845 0.967,0.56082 1.462,0.56082 1.566,0 0.778,1.66485 -0.857,1.81089 -2.465,0.2202 -9.901,1.60013 -10.983,2.03828 -0.567,0.22963 -2.57,0.87259 -4.452,1.4288 -5.939,1.75579 -5.921,2.20408 0.106,2.65093 7.854,0.5823 9.977,0.67892 16.447,0.74862 4.809,0.0518 5.974,0.20078 6.201,0.79311 0.246,0.63998 0.333,0.63455 0.713,-0.0443 0.305,-0.54439 1.12,-0.77367 2.753,-0.77367 3.264,0 5.324,-0.48824 5.324,-1.26184 0,-0.36354 0.09,-0.66097 0.201,-0.66097 0.11,0 0.56,-0.13792 1,-0.30648 0.649,-0.24907 0.769,-0.0468 0.64,1.07995 -0.201,1.75312 -2.481,2.92016 -5.907,3.02316 -1.333,0.0401 -3.073,0.16284 -3.866,0.27279 -0.793,0.10996 -5.893,0.3538 -11.333,0.54187 -14.327,0.49538 -22.483,-0.68195 -22.616,-3.26483 -0.09,-1.78183 0.1,-2.49597 0.896,-3.38944 1.078,-1.20465 0.114,-1.05577 -3.111,0.4807 -4.296,2.04655 -4.438,2.60623 -1.251,4.95483 4.923,3.62878 5.369,3.82994 10.072,4.53577 3.424,0.51404 7.292,0.62519 15.083,0.43344 6.451,-0.15876 10.588,-0.081 10.763,0.20238 0.775,1.25434 -1.344,1.51754 -12.725,1.5802 -15.405,0.0848 -19.652,-0.72988 -22.703,-4.35484 -0.677,-0.80475 -1.428,-1.46318 -1.668,-1.46318 -0.241,0 -0.829,-0.43264 -1.308,-0.96141 -0.942,-1.04112 -1.682,-1.25032 -1.682,-0.47546 0,1.20542 2.075,4.72955 2.914,4.94899 1.095,0.2862 1.259,1.29489 0.21,1.29489 -0.995,0 -0.908,0.838 0.121,1.16009 1.879,0.5887 12.229,1.71952 13.293,1.45246 0.629,-0.15782 1.288,-0.0531 1.465,0.23271 0.392,0.63474 3.423,0.64073 15.973,0.0316 z m 15.069,-12.85143 c 0,-0.19829 0.427,-0.90131 0.935,-1.56228 0.765,-0.99375 1.034,-1.09184 1.552,-0.56675 0.516,0.52305 0.427,0.79846 -0.508,1.56228 -1.173,0.95865 -1.998,1.19475 -1.979,0.56675 z m -16.992,-0.79423 c -0.272,-0.70729 0.04,-1.24875 0.716,-1.24875 0.221,0 0.401,0.43263 0.401,0.9614 0,1.10221 -0.732,1.29055 -1.117,0.28735 z m 28.366,12.60147 c -0.153,-0.38347 -0.267,-0.26957 -0.29,0.29042 -0.02,0.50674 0.09,0.79066 0.252,0.63092 0.16,-0.15973 0.177,-0.57433 0.04,-0.92134 z m -60.632,-5.05398 c -0.28,-0.60363 -0.671,-1.0992 -0.869,-1.10126 -0.443,-0.005 -0.477,2.97828 -0.05,4.09927 0.257,0.66913 0.414,0.5712 0.869,-0.54188 0.398,-0.97309 0.411,-1.67005 0.05,-2.45613 z m 58.862,1.25844 c 0,-0.97197 -0.207,-1.4133 -0.601,-1.2821 -0.861,0.28655 -1.054,1.85354 -0.288,2.33877 0.904,0.5729 0.889,0.59131 0.889,-1.05667 z m 1.967,-3.83782 c -0.279,-2.82088 -0.359,-2.99675 -0.917,-2.00372 -0.457,0.81408 -0.485,1.54139 -0.112,2.88421 0.274,0.9876 0.518,2.44458 0.542,3.23774 0.04,1.43552 0.05,1.43647 0.419,0.20808 0.206,-0.67871 0.236,-2.62555 0.07,-4.32631 z m -65.472,1.11384 c -0.04,-1.7517 -0.126,-2.00353 -0.386,-1.08158 -0.319,1.13152 -0.153,3.36491 0.25,3.36491 0.101,0 0.163,-1.0275 0.136,-2.28333 z m 3.949,-6.00225 c 0.234,-0.45909 0.434,-1.10803 0.445,-1.4421 0.03,-0.98649 4.229,-3.81084 5.41,-3.63881 0.583,0.085 1.28,-0.12579 1.549,-0.46851 0.911,-1.16433 11.472,-3.02079 18.501,-3.2523 4.309,-0.14194 13.71,0.39627 16.344,0.93573 0.661,0.13536 2.514,0.45339 4.117,0.70673 5.892,0.93128 9.841,2.45686 12.033,4.64879 1.12,1.12055 2.14,2.54793 2.265,3.17197 0.125,0.62404 0.141,-2.00197 0.03,-5.83556 -0.107,-3.8336 -0.197,-7.4265 -0.199,-7.98422 0,-0.55772 -0.332,-2.50456 -0.733,-4.32631 -0.401,-1.82176 -1.075,-5.10555 -1.497,-7.29732 -0.727,-3.77607 -0.722,-4.01801 0.09,-4.61386 0.823,-0.60202 0.824,-0.79072 0.02,-4.42724 -0.46,-2.08913 -1.063,-4.33921 -1.338,-5.00018 -0.493,-1.18389 -0.511,-1.17209 -1.183,0.79328 -1.146,3.35104 -3.861,4.64324 -13.375,6.36448 -2.579,0.46658 -7.892,0.42144 -18.987,-0.16129 -7.844,-0.41201 -14.889,-1.82563 -17.787,-3.56923 -0.661,-0.39771 -1.792,-1.3822 -2.514,-2.18775 -1.156,-1.28925 -1.395,-1.3792 -2.004,-0.75118 -1.158,1.19633 -3.039,7.66347 -3.631,12.49064 -0.309,2.51167 -0.753,5.86456 -0.988,7.45088 -1.287,8.69771 -1.729,20.78106 -0.794,21.71581 0.122,0.12194 0.368,-1.90213 0.547,-4.49793 0.179,-2.5958 0.539,-6.55832 0.8,-8.8056 0.262,-2.24728 0.569,-5.81649 0.683,-7.93158 0.409,-7.60986 0.692,-9.6699 1.819,-13.2499 1.413,-4.48628 2.181,-5.98555 2.766,-5.4003 0.267,0.26718 0.154,1.37594 -0.288,2.81564 -1.458,4.74614 -2.165,8.50694 -2.165,11.51 0,1.68666 -0.445,6.81074 -0.989,11.38684 -0.794,6.66993 -1.436,12.94256 -1.518,14.80965 0,0.13219 0.03,0.8893 0.09,1.68246 0.08,1.18152 0.277,0.87752 1.073,-1.68246 0.535,-1.71851 1.164,-3.50018 1.398,-3.95927 z m 28.308,-11.42319 c 0,-0.26438 0.229,-0.4807 0.509,-0.4807 0.28,0 0.376,0.21632 0.212,0.4807 -0.163,0.26439 -0.392,0.4807 -0.509,0.4807 -0.116,0 -0.212,-0.21631 -0.212,-0.4807 z m -13.273,11.26739 c 2.252,-1.02431 2.337,-1.11869 1.015,-1.1344 -2.147,-0.0255 -5.529,1.65188 -5.529,2.74234 0,1.41418 0.568,1.63542 1.346,0.52447 0.391,-0.55832 1.817,-1.51791 3.168,-2.13241 z m 7.985,-2.82674 c 0,-0.11659 -0.216,-0.34567 -0.48,-0.50907 -0.265,-0.1634 -0.481,-0.068 -0.481,0.21198 0,0.27999 0.216,0.50907 0.481,0.50907 0.264,0 0.48,-0.0954 0.48,-0.21198 z m 2.274,-0.55914 c -0.16,-0.15973 -0.575,-0.17681 -0.922,-0.038 -0.383,0.15345 -0.269,0.26736 0.291,0.29042 0.506,0.0209 0.79,-0.0927 0.631,-0.25247 z m 38.107,-2.83414 c -0.339,-0.40936 -0.716,-0.64513 -0.838,-0.52394 -0.264,0.26484 0.997,1.70688 1.268,1.44848 0.103,-0.0991 -0.09,-0.51518 -0.43,-0.92454 z m -20.911,-27.43249 c 6.013,-0.5284 10.588,-2.3545 11.63,-4.64255 0.801,-1.75853 0.204,-4.1123 -1.317,-5.19517 -1.26,-0.89707 -6.024,-2.88342 -9.352,-3.8991 -7.457,-2.27591 -25.034,-2.10547 -32.209,0.31233 -5.082,1.71263 -6.402,2.53271 -7.492,4.65524 l -0.91,1.7737 1.557,1.63863 c 2.976,3.13164 9.172,4.57112 23.911,5.55501 3.57,0.23827 7.464,0.35771 8.653,0.26541 1.19,-0.0923 3.678,-0.30087 5.529,-0.4635 z m -15.384,109.39214 c 0.164,-0.26438 0.622,-0.4807 1.019,-0.4807 0.396,0 0.587,0.21632 0.424,0.4807 -0.164,0.26439 -0.622,0.4807 -1.019,0.4807 -0.396,0 -0.587,-0.21631 -0.424,-0.4807 z m -11.297,-6.00877 c 0,-0.48233 0.316,-0.73083 0.807,-0.63612 1.072,0.20643 1.095,1.06136 0.03,1.26566 -0.527,0.10133 -0.842,-0.13444 -0.842,-0.62954 z m -23.565,-53.60437 c -0.55,-0.33975 -0.577,-0.56131 -0.122,-1.01565 0.454,-0.45433 0.65,-0.40174 0.896,0.24107 0.402,1.04669 0.121,1.3278 -0.774,0.77458 z m 75.484,-12.01142 c 0,-0.26439 0.216,-0.4807 0.481,-0.4807 0.264,0 0.481,0.21631 0.481,0.4807 0,0.26439 -0.217,0.4807 -0.481,0.4807 -0.265,0 -0.481,-0.21631 -0.481,-0.4807 z"
         id="path2" /></g></g></svg>
