<?xml version="1.0" encoding="UTF-8" standalone="no"?>
<!-- Created with Inkscape (http://www.inkscape.org/) -->

<svg
   width="231.38646"
   height="235.24007"
   viewBox="0 0 61.221 62.240601"
   version="1.1"
   id="svg1"
   xml:space="preserve"
   xmlns="http://www.w3.org/2000/svg"
   xmlns:svg="http://www.w3.org/2000/svg"><defs
     id="defs1" /><g
     id="g1367"
     transform="matrix(0.26458333,0,0,0.26458333,-3578.6448,-139.87991)"><path
       style="fill:#000000"
       d="m 13612.005,750.53217 c -0.177,-0.17626 -0.321,-0.71705 -0.321,-1.20175 0,-0.954 -0.217,-1.01072 -1.68,-0.43991 -0.566,0.22068 -1.595,0.10837 -2.511,-0.27413 -0.854,-0.35638 -2.298,-0.64795 -3.209,-0.64795 -1.195,0 -2.309,-0.51504 -3.996,-1.847 -1.287,-1.01585 -2.813,-2.10006 -3.391,-2.40935 -1.857,-0.9924 -1.942,-4.18492 -0.313,-11.68506 0.462,-2.12531 -4.534,-6.87741 -11.849,-11.27028 -3.308,-1.98698 -6.591,-4.11229 -7.294,-4.72291 -1.449,-1.25907 -3.774,-4.75129 -3.775,-5.67076 0,-0.9689 -2.737,-6.48702 -4.106,-8.27985 -1.986,-2.60099 -3.406,-3.34063 -5.081,-2.64737 -1.184,0.49 -1.4,0.84931 -1.4,2.33657 0,1.93097 -1.105,3.89425 -2.192,3.89425 -1.278,0 -2.62,-1.84723 -2.62,-3.60526 0,-1.48565 -0.144,-1.68246 -1.235,-1.68246 -0.679,0 -1.661,0.2283 -2.183,0.50734 -1.218,0.65087 -2.382,0.24555 -3.425,-1.19225 -0.756,-1.04141 -0.77,-1.45109 -0.163,-4.67476 0.366,-1.94332 0.801,-5.04752 0.965,-6.89822 0.165,-1.8507 0.707,-5.41991 1.205,-7.93158 2.224,-11.21127 2.541,-12.91696 2.945,-15.86316 0.235,-1.71851 0.637,-3.55719 0.893,-4.08596 0.256,-0.52878 0.941,-2.10682 1.522,-3.50677 0.739,-1.77899 1.93,-3.33485 3.958,-5.16754 1.595,-1.4422 3.113,-2.62219 3.373,-2.62219 0.26,0 2.226,-1.01514 4.369,-2.25587 2.144,-1.24073 5.846,-3.25317 8.229,-4.47209 9.632,-4.929 19.397,-10.31079 21.896,-12.06753 1.455,-1.02359 3.946,-2.54048 5.534,-3.37087 1.588,-0.83039 3.429,-1.8841 4.09,-2.34159 0.662,-0.45749 2.286,-1.42766 3.61,-2.15594 1.323,-0.72828 4.384,-2.50167 6.802,-3.94087 3.755,-2.23441 4.442,-2.83995 4.703,-4.14451 0.199,-0.99632 1.234,-2.40476 2.975,-4.04874 2.161,-2.04163 3.317,-2.71376 6.077,-3.53508 4.978,-1.48075 6.632,-1.68848 6.632,-0.83273 0,0.38711 -0.27,0.71938 -0.601,0.73838 -1.602,0.092 -7.591,1.94242 -8.828,2.72771 -1.799,1.14144 -4.005,3.1797 -4.572,4.22374 -0.363,0.66841 -0.07,0.98648 1.606,1.74896 1.127,0.51258 4.02,2.74072 6.428,4.95143 2.756,2.52902 5.968,4.89695 8.662,6.38588 2.356,1.30153 5.583,3.59971 7.171,5.10708 1.588,1.50736 3.645,3.1245 4.571,3.59365 4.542,2.30006 12.063,7.15761 13.567,8.76251 0.928,0.99106 3.182,3.23061 5.009,4.97679 4.085,3.90553 9.817,9.89487 9.817,10.25737 0,0.62763 -1.995,0.19711 -2.657,-0.57346 -0.398,-0.46268 -4.023,-4.21419 -8.056,-8.3367 -5.777,-5.90455 -8.15,-7.97459 -11.183,-9.75285 -2.117,-1.24156 -4.175,-2.4541 -4.572,-2.69454 -0.397,-0.24044 -1.588,-0.89866 -2.646,-1.46273 -1.059,-0.56406 -3.008,-2.07193 -4.332,-3.35083 -1.323,-1.2789 -3.813,-3.1258 -5.534,-4.10422 -4.803,-2.73193 -6.766,-4.0815 -9.386,-6.45349 -4.905,-4.44188 -7.216,-6.26639 -7.929,-6.25949 -0.827,0.008 -0.992,0.0955 -7.803,4.13565 -2.728,1.61753 -7.184,4.21332 -9.904,5.76842 -2.719,1.55509 -6.726,3.96863 -8.903,5.36343 -2.176,1.39479 -6.123,3.64191 -8.77,4.9936 -2.647,1.35169 -6.328,3.3413 -8.181,4.42134 -1.853,1.08005 -4.378,2.43758 -5.613,3.01675 -1.234,0.57916 -3.446,1.82147 -4.916,2.76068 -1.47,0.93921 -3.718,2.23692 -4.996,2.8838 -5.665,2.86758 -9.098,7.5108 -10.222,13.82518 -0.299,1.68157 -1.297,6.73477 -2.217,11.22933 -1.83,8.94252 -3.81,22.9222 -3.399,23.99352 0.209,0.54347 1.23,0.62497 5.224,0.41724 4.598,-0.23906 5.047,-0.35134 6.07,-1.51866 1.054,-1.20211 1.089,-1.48327 0.751,-6.06754 -0.371,-5.02756 -0.403,-8.02937 -0.167,-15.62281 0.16,-5.14785 0.213,-5.35842 1.262,-4.95635 0.647,0.24784 0.707,0.94918 0.418,4.88614 -0.186,2.52822 -0.181,8.55607 0.01,13.39522 0.347,8.78537 0.349,8.79888 1.514,9.09084 1.638,0.41061 4.151,3.89636 5.949,8.25171 2.105,5.09916 3.54,7.2268 6.389,9.47104 2.351,1.85244 3.095,2.31225 8.306,5.13003 1.306,0.70643 3.885,2.81551 5.73,4.68685 1.846,1.87133 3.519,3.40242 3.717,3.40242 0.861,0 4.001,-7.93715 5.944,-15.02491 0.87,-3.17266 1.038,-4.51201 0.686,-5.43919 -0.634,-1.6652 -0.59,-2.12888 0.202,-2.12888 1.769,0 1.661,4.81436 -0.228,10.09473 -0.803,2.24728 -1.982,5.569 -2.619,7.3816 -0.637,1.8126 -1.787,4.4084 -2.555,5.76845 -2.118,3.74938 -3.2,12.32715 -1.554,12.32715 0.206,0 1.404,0.90471 2.662,2.01048 1.799,1.5823 2.813,2.08456 4.759,2.35831 1.361,0.19131 2.807,0.48197 3.214,0.64592 1.226,0.49342 4.841,-2.31875 7.888,-6.13759 4.291,-5.37598 4.684,-7.62211 3.421,-19.5473 -0.872,-8.23435 -0.87,-8.17193 -0.278,-8.17193 0.791,0 1.368,3.3067 1.979,11.34608 0.43,5.64441 0.447,8.14762 0.07,9.24289 -0.736,2.10856 0.1,2.3356 1.32,0.35968 1.292,-2.08888 4.563,-4.25 11.585,-7.65395 5.446,-2.64023 5.664,-2.80934 12.09,-9.39707 6.659,-6.82546 9.474,-8.81955 14.964,-10.59705 1.941,-0.62866 5.344,-2.35103 7.467,-3.77978 0.725,-0.48827 2.889,-1.92242 4.808,-3.187 1.919,-1.26457 3.489,-2.46789 3.489,-2.67402 0,-0.20614 0.72,-0.71624 1.601,-1.13357 1.377,-0.65293 1.673,-1.11315 2.118,-3.29951 0.284,-1.3974 1.104,-5.24468 1.821,-8.54951 1.28,-5.90026 1.294,-6.13804 0.744,-13.1673 -0.309,-3.93719 -0.684,-7.77679 -0.836,-8.53245 -0.206,-1.02873 -0.09,-1.37393 0.456,-1.37393 1.099,0 1.33,1.02769 2.039,9.06291 0.607,6.88443 0.589,7.64365 -0.258,11.29649 -2.948,12.70072 -2.962,12.78884 -2.148,13.60177 0.694,0.69313 0.837,0.69169 1.62,-0.0163 0.473,-0.42706 1.179,-0.77647 1.57,-0.77647 0.391,0 1.42,-0.52286 2.287,-1.16191 0.867,-0.63905 2.737,-1.63239 4.156,-2.20743 3.036,-1.23108 3.072,-1.32889 3.136,-8.6482 0.178,-20.25034 0.131,-20.99558 -1.847,-29.74645 -0.787,-3.47766 -0.864,-3.59713 -3.892,-6.00878 -1.7,-1.35331 -4.215,-3.48806 -5.589,-4.7439 -1.375,-1.25583 -2.738,-2.28333 -3.029,-2.28333 -0.291,0 -2.79,-2.21724 -5.553,-4.92719 -6.871,-6.73891 -10.261,-9.63658 -13.084,-11.18533 -1.318,-0.72267 -2.829,-1.68513 -3.358,-2.13882 -0.53,-0.45368 -2.37,-1.59734 -4.091,-2.54147 -1.72,-0.94412 -3.636,-2.25879 -4.258,-2.92148 -0.622,-0.6627 -1.743,-1.45833 -2.492,-1.76807 -0.748,-0.30974 -1.936,-1.39279 -2.64,-2.40677 -0.703,-1.01399 -2.018,-2.19415 -2.922,-2.6226 -0.904,-0.42845 -1.644,-0.98516 -1.644,-1.23714 0,-1.33536 3.252,0.37796 5.366,2.82686 0.887,1.02747 2.278,2.20861 3.091,2.62477 0.813,0.41616 1.761,1.09619 2.106,1.51118 0.344,0.41499 3.971,2.83085 8.059,5.3686 4.088,2.53774 7.553,4.92722 7.7,5.30997 0.147,0.38274 1.39,1.41331 2.763,2.29015 1.372,0.87684 4.184,3.43832 6.249,5.69218 2.065,2.25386 4.326,4.38512 5.024,4.73613 0.698,0.35102 2.337,1.60942 3.642,2.79645 2.685,2.44297 3.719,1.92442 1.12,-0.56201 -1.89,-1.80778 -5.14,-6.13831 -6.323,-8.42498 -0.595,-1.14928 -1.659,-1.97014 -3.966,-3.05893 -3.233,-1.52579 -3.288,-1.6201 -2.318,-3.98618 0.318,-0.77783 0.231,-0.86482 -0.547,-0.54777 -0.509,0.2073 -1.862,0.49103 -3.005,0.63052 l -2.08,0.25361 -3.864,-4.03216 c -2.125,-2.21768 -4.159,-4.60125 -4.52,-5.29682 -0.966,-1.86033 -3.102,-3.48169 -7.061,-5.35877 -1.935,-0.91736 -3.81,-2.0196 -4.167,-2.44943 -0.357,-0.42984 -1.326,-0.78483 -2.154,-0.78888 -0.828,-0.004 -1.824,-0.20873 -2.214,-0.45484 -0.604,-0.38165 -0.583,-0.49551 0.144,-0.77391 1.346,-0.51623 4.774,0.12494 5.254,0.98306 0.24,0.42786 1.665,1.31903 3.167,1.98037 3.885,1.71059 6.111,3.36806 7.941,5.9117 2.502,3.47729 8.086,9.18554 8.985,9.18554 2.025,0 3.899,-1.56523 5.376,-4.48893 0.822,-1.62907 2.426,-4.17225 3.565,-5.65151 1.884,-2.44726 3.017,-3.52936 6.393,-6.10531 l 1.137,-0.86718 -1.84,-1.4181 c -2.916,-2.24783 -9.336,-8.79949 -9.336,-9.52715 0,-0.61846 -0.762,-1.36186 -6.468,-6.31199 -3.098,-2.68746 -4.755,-3.29001 -8.095,-2.94433 -5.714,0.59126 -8.852,3.38482 -11.88,10.57649 -0.543,1.28944 -0.988,2.59205 -0.988,2.89468 0,0.30264 -0.92,1.55915 -2.045,2.79226 -1.125,1.2331 -2.303,2.63444 -2.618,3.11408 -0.513,0.77926 -0.577,0.72052 -0.602,-0.55183 -0.02,-1.01855 0.499,-1.97648 1.824,-3.36491 1.059,-1.10882 2.438,-3.38368 3.217,-5.30592 0.75,-1.8507 1.649,-3.70642 1.997,-4.12381 0.348,-0.4174 0.634,-0.9718 0.634,-1.232 0,-0.72048 2.341,-2.7603 5.35,-4.66147 2.387,-1.50849 2.77,-1.97398 3.277,-3.98341 0.315,-1.25143 0.681,-4.12927 0.814,-6.39521 0.318,-5.45986 1.464,-12.65382 2.354,-14.78238 0.394,-0.94205 0.717,-2.08593 0.717,-2.54196 0,-1.1808 1.324,-2.52693 4.036,-4.10375 1.951,-1.13442 2.847,-1.35364 5.262,-1.28715 1.601,0.0441 3.033,0.25431 3.183,0.46719 0.351,0.5002 5.616,4.43957 7.49,5.60371 1.269,0.78846 5.759,4.46486 7.958,6.51568 0.425,0.39658 1.585,1.37 2.577,2.16316 4.219,3.37273 7.058,6.20474 6.825,6.80938 -0.153,0.39855 0.106,0.6415 0.684,0.6415 0.512,0 1.172,0.45116 1.468,1.00257 0.295,0.55142 0.654,0.88619 0.796,0.74394 0.142,-0.14224 0.534,10e-4 0.87,0.31936 0.336,0.31789 1.19,0.99713 1.898,1.50941 0.708,0.51229 1.761,1.34634 2.339,1.85345 0.579,0.5071 1.54,1.11011 2.136,1.34001 0.595,0.22989 1.082,0.63966 1.082,0.91059 0,0.83485 -1.408,0.54494 -2.277,-0.46881 -0.453,-0.52877 -1.193,-0.9614 -1.645,-0.9614 -0.451,0 -1.215,-0.48768 -1.697,-1.08372 -0.483,-0.59605 -1.479,-1.35129 -2.214,-1.6783 -0.736,-0.32702 -1.463,-0.92092 -1.616,-1.31979 -0.153,-0.39886 -0.5,-0.72521 -0.77,-0.72521 -0.27,0 -1.601,-1.14537 -2.956,-2.54527 -1.356,-1.3999 -3.656,-3.50682 -5.112,-4.68205 -1.455,-1.17522 -3.44,-2.89604 -4.41,-3.82402 -0.97,-0.92799 -3.09,-2.66068 -4.71,-3.85041 -1.62,-1.18974 -4.443,-3.30246 -6.272,-4.69494 -2.903,-2.21001 -3.623,-2.53846 -5.664,-2.58438 -2.54,-0.0572 -5.066,0.98426 -6.431,2.65208 -1.066,1.30182 -2.696,6.48847 -3.117,9.91496 -0.387,3.14708 -0.141,3.05162 1.238,-0.4807 2.653,-6.79322 3.539,-7.72224 7.304,-7.65248 2.207,0.0409 3.414,0.63045 8.909,4.35169 5.627,3.81128 19.337,16.52123 17.259,16.00025 -0.612,-0.15352 -1.224,-0.0994 -1.359,0.12036 -0.265,0.42995 -1.029,10.69284 -1.032,13.85912 0,1.05755 0.05,4.34179 0.105,7.29831 0.1,4.97071 0.181,5.39935 1.104,5.69214 1.805,0.57212 1.68,1.49178 1.805,-13.35097 0.06,-6.6012 0.255,-9.97456 0.59,-9.97456 0.294,0 0.492,1.0582 0.472,2.52368 -0.02,1.38803 -0.04,6.48374 -0.05,11.32382 0,4.84007 -0.123,9.07717 -0.253,9.41577 -0.134,0.34629 0.615,1.17857 1.709,1.9023 1.071,0.70767 1.947,1.51268 1.947,1.78891 0,0.27624 0.217,0.36831 0.482,0.20461 0.265,-0.16371 0.675,0.20208 0.911,0.81286 0.552,1.42806 2.824,3.54744 3.297,3.07536 0.342,-0.3415 0.424,-2.60233 0.647,-17.82802 0.06,-3.94515 0.289,-6.37933 0.626,-6.60228 0.378,-0.25017 0.364,-0.35532 -0.05,-0.36053 -0.545,-0.007 -3.03,-2.19912 -3.03,-2.67307 0,-0.62859 1.465,-0.0687 2.622,1.00188 0.725,0.67121 2.272,1.66845 3.439,2.21609 1.166,0.54765 2.12,1.14157 2.12,1.31984 0,0.17827 0.704,0.73478 1.564,1.2367 4.298,2.50785 6.18,4.74615 7.099,8.44239 1.626,6.5458 2.848,17.29091 1.966,17.29091 -0.196,0 -0.261,0.64895 -0.144,1.44211 0.116,0.79316 0.349,1.4421 0.518,1.4421 0.168,0 0.34,0.59487 0.381,1.32193 0.638,11.25631 0.874,17.5953 0.809,21.75176 -0.132,8.40288 -0.551,17.92081 -0.871,19.79614 -0.427,2.5013 -0.65,5.42291 -1,13.13193 l -0.306,6.72982 0.944,-1.20175 c 0.519,-0.66097 1.629,-3.98818 2.466,-7.3938 1.522,-6.18856 1.523,-6.19927 1.491,-18.98772 -0.02,-7.03762 -0.257,-16.04041 -0.533,-20.0062 -0.277,-3.96579 -0.602,-10.99605 -0.723,-15.62281 -0.211,-8.02905 -1.031,-15.99772 -2.129,-20.67017 -1.109,-4.72381 -4.456,-9.39522 -8.877,-12.39053 -1.063,-0.72021 -2.353,-1.68803 -2.866,-2.1507 -0.513,-0.46268 -1.152,-0.84123 -1.419,-0.84123 -0.288,0 -0.258,-0.22855 0.07,-0.55743 0.572,-0.5716 0.546,-0.58603 6.228,3.47212 5.793,4.13734 8.613,9.99101 8.9,18.47654 0.08,2.37947 0.347,4.4708 0.592,4.6474 0.245,0.1766 0.515,3.31318 0.599,6.97018 0.08,3.657 0.485,12.1308 0.891,18.83067 0.406,6.69987 0.747,16.75856 0.758,22.35263 0.02,10.92712 -0.392,14.19179 -2.676,21.14633 -1.78,5.42006 -2.461,6.57033 -3.89,6.57033 -1.945,0 -2.306,-1.52205 -1.784,-7.50837 0.251,-2.87662 0.327,-5.38164 0.169,-5.5667 -0.465,-0.54402 -8.348,3.56833 -11.882,6.19854 -0.819,0.60946 -1.673,1.10811 -1.897,1.10811 -0.225,0 -2.045,1.04729 -4.046,2.32732 -2,1.28002 -4.229,2.68881 -4.952,3.13064 -0.724,0.44183 -1.457,1.39546 -1.629,2.11918 -0.358,1.50722 -1.517,2.9983 -2.33,2.9983 -0.627,0 -9.769,4.59382 -10.733,5.39303 -0.455,0.37684 -0.95,0.34813 -1.796,-0.10411 -1.049,-0.56091 -1.349,-0.48271 -2.951,0.76877 -1.638,1.28032 -6.889,4.91254 -9.112,6.30286 -2.916,1.82404 -6.147,3.43159 -8.891,4.4246 -1.71,0.61912 -3.685,1.53022 -4.387,2.02465 -0.703,0.49444 -1.471,0.89897 -1.707,0.89897 -0.465,0 -4.189,3.69918 -8.655,8.59575 -3.552,3.89387 -6.943,6.41029 -10.687,7.92991 -3.506,1.42322 -8.435,4.29408 -10.268,5.98079 -0.722,0.66482 -1.991,2.30823 -2.82,3.65204 -0.828,1.3438 -2.565,3.25774 -3.86,4.25321 l -2.353,1.80994 v 3.04009 c 0,2.79126 -0.1,3.08576 -1.226,3.59796 -1.383,0.62962 -2.312,0.70884 -2.784,0.23739 z m 2.707,-3.22471 c 0.588,-1.76132 0.07,-2.16366 -1.183,-0.91464 -0.624,0.62359 -0.898,1.32367 -0.708,1.8159 0.429,1.11809 1.366,0.67163 1.891,-0.90126 z m -53.163,-45.37114 c 0.117,-0.81774 -0.09,-1.07667 -0.842,-1.07667 -0.749,0 -0.996,0.30662 -0.996,1.23701 0,1.57782 1.61,1.43739 1.838,-0.16034 z m 136.999,-16.94195 c 0.393,-0.63512 7.462,-5.28559 8.035,-5.28559 0.244,0 1.436,-0.75711 2.649,-1.68246 1.213,-0.92535 2.449,-1.68245 2.747,-1.68245 0.297,0 1.403,-0.59255 2.457,-1.31676 1.054,-0.72422 2.999,-1.75305 4.323,-2.2863 l 2.406,-0.96954 0.367,-3.6023 c 0.202,-1.98126 0.543,-4.84075 0.758,-6.35442 0.214,-1.51366 0.23,-3.01033 0.03,-3.32594 -0.424,-0.68603 -3.544,0.36127 -7.657,2.57052 -1.456,0.78197 -4.379,2.04091 -6.496,2.79765 -4.954,1.77029 -8.306,3.258 -8.671,3.84814 -0.419,0.67668 -1.676,0.57363 -1.676,-0.13736 0,-0.73201 3.456,-2.87826 5.969,-3.70663 1.003,-0.33068 2.398,-0.90071 3.101,-1.26672 0.702,-0.36601 1.552,-0.66681 1.889,-0.66844 0.336,-0.002 2.285,-0.83625 4.331,-1.85473 2.045,-1.01847 4.744,-2.23642 5.998,-2.70656 3.374,-1.26548 3.525,-1.59834 2.546,-5.6214 -0.461,-1.89116 -1.239,-4.37622 -1.731,-5.52235 -1.535,-3.57689 -2.715,-3.27421 -19.627,5.03468 l -4.502,2.21189 0.263,2.66548 c 0.145,1.46601 0.454,4.17968 0.686,6.03038 0.233,1.8507 0.375,7.85347 0.316,13.33948 -0.09,8.08086 0.02,9.97456 0.539,9.97456 0.356,0 0.781,-0.21728 0.945,-0.48283 z m -1.902,-33.59076 c 0.372,-0.34509 12.406,-5.92591 19.415,-9.00376 l 1.634,-0.71738 -1.557,-1.60491 c -0.857,-0.88269 -2.296,-2.00195 -3.198,-2.48724 l -1.64,-0.88233 -3.73,3.65786 c -6.14,6.02135 -10.624,8.46672 -13.1,7.14319 -1.045,-0.55853 -1.084,-0.81022 0.501,3.23746 0.452,1.1529 0.936,1.34296 1.675,0.65711 z m 26.524,-11.29711 c -0.153,-4.52515 -0.431,-10.60702 -0.619,-13.51527 -0.189,-2.90824 -0.325,-6.74785 -0.303,-8.53245 0.02,-1.78461 -0.133,-3.24474 -0.344,-3.24474 -0.212,0 -0.542,-1.89276 -0.734,-4.20614 -0.192,-2.31338 -0.625,-4.74693 -0.961,-5.4079 -0.405,-0.79324 -0.468,-1.5843 -0.189,-2.32712 0.621,-1.64664 -1.227,-4.88604 -4.14,-7.2577 -1.318,-1.07361 -2.64,-1.95202 -2.936,-1.95202 -0.366,0 -0.646,2.88484 -0.873,9.01316 -0.185,4.95724 -0.449,10.53447 -0.588,12.39384 -0.242,3.24738 -0.194,3.44641 1.218,5.04737 0.809,0.91668 1.474,1.82892 1.478,2.02721 0,0.19829 0.02,0.52276 0.03,0.72105 0.01,0.19829 0.606,0.96611 1.316,1.70627 0.957,0.998 1.583,1.27251 2.421,1.06232 0.72,-0.18049 1.019,-0.10184 0.822,0.21653 -0.171,0.27499 -0.622,0.49997 -1.003,0.49997 -0.382,0 -0.701,0.37855 -0.71,0.84123 -0.02,1.16315 -1.402,3.89249 -3.037,6.00864 -0.752,0.97447 -1.294,1.96292 -1.203,2.19656 0.09,0.23364 1.357,1.3835 2.813,2.55523 2.154,1.73424 3.049,2.94589 4.811,6.51549 1.191,2.41178 2.354,4.26827 2.585,4.12554 0.231,-0.14274 0.296,-3.96192 0.143,-8.48707 z m -23.517,4.87158 c 2.826,-1.50719 8.321,-6.47429 12.368,-11.17987 3.075,-3.57432 4.591,-7.44733 2.916,-7.44733 -0.382,0 -1.931,1.08158 -3.444,2.40351 -1.512,1.32193 -3.042,2.40351 -3.399,2.40351 -0.894,0 -12.129,11.30339 -12.684,12.76163 -0.247,0.6483 -0.671,1.17872 -0.942,1.17872 -0.854,0 -0.536,-1.73731 0.582,-3.17991 2.786,-3.59408 9.53,-10.02508 12.371,-11.79666 3.585,-2.23538 5.322,-3.69515 5.322,-4.47185 0,-0.60488 -2.054,-2.74025 -5.414,-5.62841 -1.257,-1.0807 -2.286,-2.28498 -2.286,-2.67617 0,-0.42357 -0.282,-0.60316 -0.697,-0.44401 -0.411,0.1577 -0.81,-0.0885 -0.973,-0.60064 -0.652,-2.05332 -10.287,-8.21639 -12.844,-8.21639 -2.713,0 -10.102,5.88481 -12.16,9.68456 -2.99,5.52009 -4.168,8.12292 -3.884,8.58155 0.162,0.26296 1.371,0.94032 2.686,1.50524 2.079,0.89344 2.738,1.56066 5.065,5.12583 4.101,6.2853 8.217,10.87015 11.299,12.58813 2.245,1.25131 2.755,1.20209 6.118,-0.59144 z m 10.079,-26.9193 c 0.261,-0.33049 0.613,-4.71088 0.781,-9.73421 0.168,-5.02334 0.441,-10.65252 0.607,-12.5093 0.254,-2.85427 0.172,-3.48287 -0.534,-4.06782 -0.736,-0.61068 -0.914,-0.5828 -1.515,0.23761 -0.374,0.5112 -0.572,1.21082 -0.44,1.55471 0.405,1.0532 -0.639,19.60903 -1.183,21.03897 -0.428,1.12468 -0.352,1.51073 0.472,2.38646 0.54,0.5746 0.836,1.19091 0.657,1.36959 -0.179,0.17867 -0.1,0.32486 0.177,0.32486 0.277,0 0.717,-0.27039 0.978,-0.60087 z m -19.847,-11.89737 c 0.163,-0.26439 0.88,-0.4804 1.592,-0.48002 l 1.295,6.8e-4 -0.171,-6.61033 c -0.09,-3.63568 0.07,-8.66533 0.358,-11.177 0.291,-2.51167 0.618,-5.66717 0.728,-7.01222 l 0.198,-2.44556 -3.286,-3.25409 c -1.808,-1.78975 -3.507,-3.11829 -3.775,-2.95231 -0.304,0.1874 -0.512,4.26053 -0.55,10.74701 -0.03,5.74488 -0.139,12.71656 -0.234,15.49261 -0.163,4.76416 -0.106,5.13503 1.018,6.60965 1.195,1.56716 2.271,1.97903 2.827,1.08158 z m -5.204,-8.68113 c 0.09,-2.23161 0.255,-8.70826 0.373,-14.39256 0.117,-5.6843 0.348,-10.88455 0.513,-11.55612 0.242,-0.98255 0.06,-1.35041 -0.938,-1.88347 -0.682,-0.36434 -1.34,-0.56191 -1.463,-0.43905 -0.123,0.12287 -0.336,3.45807 -0.473,7.41155 -0.864,24.97836 -0.866,23.32687 0.03,24.31593 0.459,0.50706 1.052,0.84976 1.317,0.76155 0.265,-0.0882 0.553,-1.98623 0.641,-4.21783 z m -3.749,-13.95602 c 0,-9.79981 0.181,-15.15703 0.515,-15.55903 0.593,-0.71384 0.49,-0.81622 -3.603,-3.59098 -1.826,-1.23841 -3.019,-1.76759 -3.315,-1.47145 -0.277,0.27632 -0.451,6.07785 -0.433,14.4141 l 0.03,13.95164 1.262,0.99185 c 0.695,0.54552 1.263,1.18614 1.263,1.42361 0,0.7938 3.064,4.78618 3.674,4.78618 0.467,0 0.602,-3.31759 0.607,-14.94592 z m -8.043,-8.12776 0.06,-14.18071 -1.086,-0.16031 -1.085,-0.1603 0.155,10.97609 c 0.08,6.03686 -0.03,12.21587 -0.256,13.73114 -0.432,2.89809 0.118,4.40936 1.498,4.11558 0.541,-0.11524 0.671,-2.71489 0.718,-14.32149 z m -3.884,11.41666 c 0.03,-0.0661 0.135,-5.90662 0.234,-12.97895 0.143,-10.14306 0.05,-12.85877 -0.428,-12.85877 -1.302,0 -2.701,1.54233 -3.38,3.7257 -2.489,8.00016 -2.716,9.16014 -2.839,14.50334 l -0.126,5.49044 2.881,1.07233 c 2.899,1.07871 3.559,1.26732 3.658,1.04591 z m -7.916,-5.68739 c 0.07,-2.96142 0.01,-3.24007 -0.314,-1.64331 -1.127,5.52505 -1.139,5.66517 -0.439,5.43326 0.488,-0.16195 0.696,-1.20989 0.753,-3.78995 z m 0.01,-5.59995 c -0.122,-0.46771 -0.229,-0.20143 -0.239,0.59173 -0.01,0.79316 0.09,1.17583 0.222,0.85037 0.131,-0.32545 0.139,-0.97439 0.02,-1.4421 z m -51.373,128.90396 c -0.346,-0.4159 -1.509,-1.19767 -2.585,-1.73727 -1.077,-0.5396 -2.899,-1.93665 -4.05,-3.10454 -1.15,-1.1679 -3.207,-2.83795 -4.571,-3.71122 -2.892,-1.85164 -3.898,-2.93317 -3.431,-3.68809 0.224,-0.36166 0.756,-0.14767 1.605,0.64512 0.699,0.65246 2.001,1.55432 2.892,2.00414 0.892,0.44981 2.98,2.0428 4.642,3.53996 4.421,3.98552 6.296,5.0256 8.383,4.65107 0.944,-0.16934 2.799,-1.01391 4.122,-1.87682 1.323,-0.86291 4.247,-2.47145 6.497,-3.57452 4.857,-2.38164 10.112,-5.28617 11.649,-6.43906 4.526,-3.39582 7.27,-5.1843 9.752,-6.35607 1.58,-0.74631 4.385,-2.56186 6.233,-4.03457 1.848,-1.47271 4.174,-3.12017 5.17,-3.66103 0.996,-0.54085 4.106,-2.68902 6.912,-4.77371 3.761,-2.79434 5.242,-3.64908 5.639,-3.25275 0.296,0.29568 0.445,0.60017 0.33,0.67664 -0.115,0.0765 -1.544,1.16166 -3.176,2.41152 -1.632,1.24986 -3.108,2.27248 -3.281,2.27248 -0.172,0 -1.51,0.97342 -2.972,2.16316 -1.462,1.18973 -2.9,2.16315 -3.196,2.16315 -0.295,0 -2.181,1.27308 -4.191,2.82905 -2.01,1.55598 -5.05,3.53168 -6.757,4.39046 -1.707,0.85877 -4.078,2.29894 -5.269,3.20038 -3.692,2.79446 -5.741,4.02763 -14.437,8.69224 -4.632,2.48442 -8.669,4.83461 -8.972,5.22266 -0.303,0.38805 -1.337,0.833 -2.298,0.98877 -0.961,0.15577 -1.863,0.47038 -2.004,0.69913 -0.418,0.67486 -1.958,0.47604 -2.636,-0.34028 z m -23.617,-18.3517 c -0.938,-0.99145 -2.289,-2.82799 -3.003,-4.08119 -0.902,-1.58455 -1.695,-2.36683 -2.603,-2.56837 -2.633,-0.58429 -2.986,-0.76375 -4.299,-2.18422 -0.736,-0.79613 -2.962,-2.76155 -4.948,-4.36761 -1.985,-1.60605 -4.637,-4.09133 -5.895,-5.52285 -1.899,-2.16307 -2.286,-2.92286 -2.286,-4.4976 0,-1.04216 0,-2.00299 0,-2.13518 0,-0.1322 0.157,-0.29443 0.348,-0.36053 0.191,-0.0661 0.511,0.85325 0.711,2.04298 0.39,2.32267 0.678,2.64321 9.509,10.57544 4.879,4.38302 5.274,4.66812 6.749,4.87979 0.71,0.1018 1.8,1.01676 2.778,2.33074 0.886,1.18974 2.466,3.17672 3.511,4.41553 2.92,3.46169 2.451,4.66939 -0.572,1.47307 z M 13688.2,658.0653 c 0,-0.87901 1.576,-1.91091 2.919,-1.91091 0.928,0 0.404,1.00253 -0.753,1.44211 -0.662,0.25129 -1.203,0.67857 -1.203,0.9495 0,0.27093 -0.217,0.4926 -0.481,0.4926 -0.265,0 -0.482,-0.43798 -0.482,-0.9733 z m 12.803,-73.5916 c -1.327,-1.16682 -2.522,-1.85218 -2.946,-1.68963 -0.512,0.19615 -0.713,-0.0621 -0.713,-0.91319 0,-1.89444 0.41,-1.69983 5.186,2.4626 0.982,0.85497 1.494,1.61716 1.206,1.79472 -0.275,0.16974 -1.505,-0.57478 -2.733,-1.6545 z"
       id="path1" /></g></svg>
