<?xml version="1.0" encoding="UTF-8" standalone="no"?>
<!-- Created with Inkscape (http://www.inkscape.org/) -->

<svg
   width="231.38646"
   height="235.24007"
   viewBox="0 0 61.221 62.240601"
   version="1.1"
   id="svg1"
   xml:space="preserve"
   xmlns="http://www.w3.org/2000/svg"
   xmlns:svg="http://www.w3.org/2000/svg"><defs
     id="defs1" /><g
     id="g1333"
     transform="matrix(0.26458333,0,0,0.26458333,-3578.6449,-15.807963)"><path
       style="fill:#000000"
       d="m 13601.669,279.21281 c -0.176,-0.17629 -0.32,-0.6771 -0.32,-1.11292 0,-1.08766 -2.403,-2.13809 -7.749,-3.38783 -7.469,-1.74599 -12.017,-3.34587 -15.918,-5.59988 -5.19,-2.9986 -5.088,-2.65147 -5.167,-17.61627 -0.03,-5.23997 0.04,-9.67876 0.158,-9.86397 0.384,-0.62003 1.223,-13.20627 1.497,-22.43704 0.149,-5.0242 0.365,-9.67578 0.48,-10.33686 0.114,-0.66108 0.543,-7.25985 0.953,-14.66392 0.41,-7.40408 0.931,-16.70726 1.159,-20.67373 0.228,-3.96647 0.446,-9.26712 0.484,-11.77921 0.18,-11.78868 1.076,-23.64019 2.007,-26.55145 0.517,-1.61754 0.822,-3.3129 0.677,-3.76747 -0.179,-0.56466 0.314,-1.2773 1.558,-2.24955 3.579,-2.79906 6.679,-4.79521 8.325,-5.36093 0.92,-0.31621 2.539,-1.10784 3.597,-1.75917 1.059,-0.65134 2.683,-1.52006 3.609,-1.93049 3.116,-1.38107 4.081,-1.89536 6.033,-3.21556 1.069,-0.72305 5.587,-2.83669 10.042,-4.69697 4.454,-1.86028 9.229,-3.91699 10.611,-4.57047 1.382,-0.65348 2.645,-1.18814 2.806,-1.18814 0.161,0 1.656,-0.6214 3.322,-1.3809 8.188,-3.73368 11.888,-5.350291 12.251,-5.352428 0.22,-0.0013 1.81,-0.726015 3.535,-1.610497 1.724,-0.884483 4.972,-2.199791 7.216,-2.922908 2.245,-0.723116 4.839,-1.643098 5.765,-2.044405 7.818,-3.387596 10.537,-3.808322 11.833,-1.831161 0.636,0.970549 0.674,1.343911 0.193,1.923137 -0.692,0.832878 -0.319,0.924179 0.966,0.236685 0.588,-0.314475 1.003,-0.317929 1.194,-0.0099 0.324,0.523709 -0.57,2.467982 -1.374,2.989997 -0.729,0.472436 -0.209,0.846312 1.356,0.975748 1.563,0.129272 2.079,1.030412 1.197,2.092326 -0.404,0.485526 -1.027,0.643746 -1.787,0.453173 -0.857,-0.214825 -2.724,0.498913 -7.012,2.680453 -8.631,4.39074 -12.288,6.20464 -12.511,6.20464 -0.316,0 -21.987,10.54952 -35.308,17.18799 -11.094,5.52845 -13.31,6.41583 -12.418,4.97263 0.302,-0.48687 17.624,-9.14589 37.073,-18.5314 20.288,-9.79025 27.402,-13.397129 26.821,-13.597948 -0.76,-0.262966 -2.264,0.361163 -9.734,4.038988 -9.7,4.77566 -20.649,9.77602 -21.407,9.77602 -0.17,0 -2.19,0.88937 -4.49,1.97639 -2.299,1.08702 -5.911,2.74162 -8.028,3.67689 -2.116,0.93528 -5.875,2.74787 -8.353,4.02798 -2.479,1.28011 -4.683,2.21822 -4.9,2.08467 -0.216,-0.13354 -0.541,-0.002 -0.723,0.29183 -0.182,0.29404 -1.767,1.23383 -3.522,2.08843 -3.213,1.56514 -6.798,3.61312 -6.798,3.88396 0,0.0804 1.176,0.92663 2.614,1.88055 3.82,2.534 6.249,2.74431 10.041,0.86963 1.639,-0.81049 4.279,-2.09965 5.867,-2.8648 1.588,-0.76516 8.338,-4.13558 15.002,-7.48983 6.663,-3.35426 12.251,-6.09865 12.417,-6.09865 0.658,0 13.972,-5.42519 14.201,-5.78706 0.135,-0.21279 0.893,-0.54206 1.684,-0.7317 0.791,-0.18964 1.655,-0.50412 1.92,-0.69885 1.566,-1.15219 8.037,-4.31674 8.387,-4.10097 0.627,0.38779 3.4,-2.23112 3.4,-3.21201 0,-1.05085 -0.326,-1.06167 -2.165,-0.0719 -7.201,3.87495 -13.007,6.67107 -18.282,8.80463 -3.44,1.39137 -6.796,2.81396 -7.457,3.16132 -0.662,0.34735 -2.61,1.28026 -4.33,2.07313 -1.72,0.79288 -7.565,3.59461 -12.99,6.22608 -5.424,2.63147 -11.053,5.28168 -12.509,5.88936 -1.455,0.60768 -3.335,1.61055 -4.177,2.2286 -0.842,0.61805 -1.871,1.12373 -2.285,1.12373 -1.146,0 -0.9,-1.41013 0.328,-1.88179 0.596,-0.2286 5.521,-2.57481 10.945,-5.2138 16.252,-7.90638 28.62,-13.65003 30.791,-14.29957 1.225,-0.36645 9.167,-3.99507 11.787,-5.38526 11.33,-6.012081 12.587,-6.425414 12.097,-3.97533 -0.28,1.39996 -0.23,1.45264 1.291,1.35029 1.089,-0.0733 1.912,0.22247 2.637,0.94712 0.58,0.5795 1.487,1.05363 2.017,1.05363 0.529,0 0.962,0.21986 0.962,0.48857 0,0.2687 0.758,0.84966 1.684,1.291 1.176,0.56071 1.684,1.12355 1.684,1.86833 0,0.7557 0.426,1.21449 1.465,1.57655 0.807,0.28088 2.027,0.9511 2.711,1.48939 0.765,0.60101 1.963,0.97871 3.105,0.97871 1.62,0 1.86,0.14265 1.86,1.10581 0,0.60819 0.265,1.37082 0.589,1.69474 0.465,0.46473 0.461,0.79333 -0.02,1.55807 -0.739,1.1825 -0.314,2.02656 0.838,1.66141 0.467,-0.14811 1.72,-0.35593 2.785,-0.46183 1.065,-0.1059 2.963,-0.34631 4.217,-0.53425 l 2.28,-0.34171 -0.295,2.82731 c -0.162,1.55502 -0.616,7.37073 -1.01,12.92378 -0.393,5.55306 -1.04,13.34177 -1.437,17.30824 -0.693,6.92673 -0.991,13.85462 -1.447,33.6549 -0.184,7.96863 -0.467,13.74502 -1.451,29.56824 -0.123,1.98323 -0.341,7.1757 -0.484,11.53882 -0.363,11.07678 -0.702,18.65569 -0.934,20.91412 -0.67,6.51995 -1.293,15.67205 -1.209,17.75489 0.194,4.80306 0.212,4.76164 -1.879,4.42762 -1.021,-0.16327 -3.998,-0.098 -6.615,0.14508 -2.616,0.24306 -7.68,0.57798 -11.252,0.74426 -3.572,0.16629 -9.526,0.61162 -13.231,0.98963 -3.704,0.37801 -9.874,0.90578 -13.711,1.17282 -3.837,0.26703 -8.816,0.70071 -11.065,0.96372 -2.25,0.26302 -5.822,0.48407 -7.939,0.49124 -4.954,0.0168 -14.317,1.08119 -21.649,2.46118 -3.176,0.5976 -6.64,1.09833 -7.698,1.11275 -2.251,0.0307 -2.681,0.45491 -2.314,2.2873 0.251,1.25301 -0.234,1.76323 -0.974,1.02428 z m -0.125,-5.56909 c 0.494,-3.22225 0.75,-7.63801 1.054,-18.14961 0.172,-5.9497 0.407,-10.97991 0.522,-11.17823 1.299,-2.23375 1.338,4.99105 0.126,23.15329 -0.255,3.80974 -0.382,7.00739 -0.284,7.10587 0.1,0.0985 3.402,-0.376 7.342,-1.05441 10.884,-1.87452 13.157,-2.1456 22.292,-2.6584 4.644,-0.26067 11.366,-0.7807 14.939,-1.15562 3.572,-0.37492 9.634,-0.93223 13.471,-1.23846 3.836,-0.30624 8.058,-0.64455 9.381,-0.75182 1.323,-0.10727 7.169,-0.51633 12.99,-0.90903 5.821,-0.39271 11.613,-0.85525 12.869,-1.02789 l 2.286,-0.31388 v -2.99275 c 0,-2.73588 0.616,-11.88173 1.199,-17.79631 0.13,-1.32216 0.367,-7.92092 0.526,-14.66392 0.16,-6.743 0.362,-13.23359 0.45,-14.42353 0.29,-3.93817 1.157,-20.32679 1.424,-26.92392 0.302,-7.45451 0.596,-14.31289 1.011,-23.55843 0.166,-3.70436 0.501,-6.56717 0.781,-6.66899 0.288,-0.10482 0.232,-0.33818 -0.136,-0.56581 -0.512,-0.31578 -0.518,-1.08288 -0.03,-4.14866 0.326,-2.06869 0.792,-7.33107 1.036,-11.69419 0.244,-4.36312 0.6,-9.44741 0.791,-11.29843 0.191,-1.85102 0.288,-3.58185 0.215,-3.84628 -0.07,-0.26443 0.135,-2.06016 0.464,-3.9905 0.354,-2.07985 0.42,-3.68599 0.164,-3.94239 -0.252,-0.25146 -1.239,-0.25897 -2.358,-0.0179 -3.128,0.67432 -5.892,0.87085 -6.548,0.4657 -0.347,-0.21435 -0.833,-0.11618 -1.122,0.22632 -0.279,0.33268 -1.483,0.89695 -2.673,1.25393 -1.191,0.35698 -2.413,0.83402 -2.716,1.0601 -0.303,0.22608 -0.736,0.35938 -0.962,0.29622 -0.227,-0.0632 -1.602,0.18435 -3.058,0.54999 -1.455,0.36565 -3.122,0.6294 -3.704,0.5861 -0.583,-0.0433 -1.191,0.13433 -1.352,0.39471 -0.442,0.71455 -1.198,0.56769 -1.198,-0.23266 0,-0.4301 0.282,-0.59792 0.722,-0.42934 0.396,0.1522 0.721,0.0654 0.721,-0.193 0,-0.25836 1.029,-0.73427 2.285,-1.05759 1.257,-0.32332 2.719,-0.75278 3.248,-0.95436 0.529,-0.20157 2.694,-0.78394 4.811,-1.29413 3.796,-0.91496 3.851,-0.94961 4.004,-2.53476 0.183,-1.89451 -0.227,-2.39282 -2.666,-3.23974 -1.557,-0.54081 -1.896,-0.52918 -2.353,0.0807 -0.294,0.39194 -0.754,0.71261 -1.023,0.71261 -0.269,0 -1.712,0.54089 -3.208,1.20196 -3.336,1.47453 -3.855,1.51384 -3.173,0.2404 0.283,-0.52887 0.814,-0.96157 1.18,-0.96157 0.366,0 1.387,-0.361 2.269,-0.80221 0.881,-0.44122 1.89,-0.92802 2.241,-1.08177 0.351,-0.15375 0.676,-0.4959 0.721,-0.76034 0.165,-0.95458 -2,-0.74518 -4.718,0.45638 -3.164,1.39835 -3.618,1.47357 -3.618,0.60017 0,-0.34441 1.084,-1.0155 2.408,-1.49132 2.78,-0.99913 3.114,-1.36221 2.431,-2.63864 -0.555,-1.03627 -0.963,-1.03171 -3.396,0.038 -0.926,0.40725 -3.091,1.3335 -4.811,2.05834 -1.719,0.72484 -3.343,1.48517 -3.608,1.68963 -0.264,0.20446 -0.968,0.52098 -1.563,0.70338 -0.8,0.2449 -1.083,0.13695 -1.083,-0.41278 0,-0.41541 0.585,-0.88324 1.323,-1.05854 0.728,-0.17277 1.648,-0.56484 2.045,-0.87127 0.811,-0.62651 1.879,-1.14699 5.953,-2.90302 2.404,-1.03628 2.736,-1.32551 2.226,-1.9394 -0.33,-0.39682 -1.103,-0.72148 -1.719,-0.72148 -0.616,0 -1.318,-0.35265 -1.559,-0.78365 -0.82,-1.464 -2.725,-0.91509 -10.628,3.06218 -4.341,2.18442 -8.184,3.97166 -8.54,3.97166 -0.356,0 -0.647,0.21635 -0.647,0.48079 0,0.26443 -0.211,0.48078 -0.468,0.48078 -0.258,0 -1.611,0.52835 -3.007,1.1741 -1.397,0.64576 -4.596,1.95611 -7.11,2.9119 -3.571,1.35772 -33.647,15.9885 -36.539,17.77456 -0.83,0.51237 0.246,1.11964 3.53,1.99358 4.444,1.18273 8.885,0.63788 17.755,-2.17844 2.436,-0.77357 4.891,-1.53842 5.456,-1.69968 0.579,-0.16531 0.999,-0.6538 0.962,-1.1199 -0.07,-0.97193 3.96,-3.17014 10.52,-5.73112 2.382,-0.92962 5.916,-2.4509 7.855,-3.38063 2.541,-1.21906 3.67,-1.54442 4.048,-1.16683 0.378,0.37758 -0.121,0.79978 -1.788,1.51412 -1.272,0.5448 -2.191,1.11224 -2.042,1.26098 0.255,0.25482 6.087,-1.58472 9.247,-2.9166 4.715,-1.98733 4.57,-1.95566 4.57,-1.00241 0,0.41741 -0.812,0.92124 -2.001,1.24115 -1.1,0.29618 -2.454,0.82696 -3.007,1.17951 -1.179,0.75176 -6.126,2.25651 -6.428,1.95523 -0.113,-0.11375 -1.326,0.37378 -2.695,1.0834 -3.039,1.57595 -3.722,1.74295 -4.17,1.01906 -0.459,-0.74358 -2.815,0.0167 -8.039,2.59436 -3.837,1.89316 -5.121,3.00482 -2.887,2.49769 6.347,-1.44026 12.27,-3.07509 14.794,-4.0834 3.581,-1.4301 6.12,-2.07963 6.708,-1.7163 0.86,0.53112 -0.255,1.58586 -2.05,1.94013 -0.842,0.16607 -2.688,0.75436 -4.102,1.3073 -2.163,0.84536 -2.64,0.89786 -3,0.32993 -0.36,-0.56845 -0.429,-0.5612 -0.436,0.0458 0,0.52962 -2.009,1.21548 -7.543,2.58213 -4.145,1.02352 -10.204,2.69282 -13.465,3.70955 -11.455,3.57144 -14.254,3.77005 -20.875,1.48151 -1.466,-0.50687 -4.222,-1.18395 -6.125,-1.50463 -2.136,-0.36006 -4.06,-1.01886 -5.031,-1.72261 -2.908,-2.10728 -3.962,-2.4913 -7.749,-2.82201 -2.743,-0.23957 -3.97,-0.16397 -4.502,0.27738 -0.597,0.4951 -0.833,0.46767 -1.285,-0.14912 -0.762,-1.04198 -7.918,-1.75167 -8.181,-0.8114 -0.1,0.35307 -0.554,1.92227 -1.013,3.48712 -1.08,3.68898 -1.611,9.98926 -2.212,26.24228 -0.489,13.23394 -0.881,21.05803 -1.869,37.26078 -0.291,4.75976 -0.727,13.84659 -0.969,20.19294 -0.243,6.34635 -0.71,14.56777 -1.039,18.2698 -0.672,7.56707 -0.853,23.823 -0.288,25.84216 0.586,2.09339 1.251,1.54412 1.409,-1.16417 0.09,-1.51087 0.392,-2.56755 0.774,-2.69337 0.89,-0.29334 0.657,5.50951 -0.258,6.42419 -0.923,0.92179 -0.576,1.31012 2.881,3.22657 3.101,1.71859 8.001,3.34654 15.512,5.1534 2.381,0.5729 4.654,1.23142 5.051,1.46338 1.169,0.68296 1.387,0.53498 1.639,-1.11157 z m -7.875,-4.15213 c -0.691,-0.19247 -1.323,-0.82423 -1.516,-1.51462 -0.182,-0.65143 -0.352,-0.91398 -0.378,-0.58344 -0.03,0.33054 -0.481,0.60098 -1.011,0.60098 -0.78,0 -0.962,-0.32053 -0.962,-1.69784 0,-1.78486 1.203,-2.83503 1.919,-1.67612 0.209,0.33685 0.634,0.45478 0.946,0.26208 0.346,-0.21332 0.665,0.0228 0.817,0.60373 0.167,0.63663 0.54,0.87818 1.123,0.72596 0.661,-0.17284 0.951,0.12909 1.197,1.24609 0.317,1.44292 0.04,2.50678 -0.618,2.41131 -0.183,-0.0264 -0.866,-0.19652 -1.517,-0.37813 z m -7.228,-4.0212 c 0.01,-2.49835 0.502,-3.72608 1.493,-3.72608 1.113,0 1.172,1.16975 0.178,3.54717 -0.904,2.16282 -1.68,2.24583 -1.671,0.17891 z m -6.412,0.77 c -0.172,-0.17148 -0.196,-0.77591 -0.05,-1.3432 0.169,-0.67358 -0.09,-1.34188 -0.731,-1.92627 -0.544,-0.49217 -0.989,-1.07768 -0.989,-1.30112 0,-0.60127 2.295,-0.49343 2.678,0.12584 0.233,0.37744 0.437,0.35708 0.701,-0.0701 0.594,-0.96067 1.913,-0.12953 1.913,1.2056 0,0.78651 0.268,1.21705 0.757,1.21705 0.463,0 0.692,0.32604 0.59,0.84137 -0.116,0.58735 -0.623,0.84138 -1.677,0.84138 -0.831,0 -1.674,0.16226 -1.874,0.36059 -0.445,0.44307 -0.904,0.4601 -1.315,0.0488 z m 24.525,-40.6751 c 0.218,-11.87808 0.588,-16.54359 1.363,-17.18662 1.005,-0.83273 1.219,0.1036 0.729,3.1779 -0.249,1.55677 -0.592,7.31981 -0.763,12.80676 -0.23,7.3862 -0.463,9.97628 -0.9,9.97628 -0.45,0 -0.551,-2.08073 -0.429,-8.77432 z m -4.977,-12.81032 c -0.193,-0.73743 -0.646,-1.01223 -1.669,-1.01223 -0.772,0 -1.888,-0.31659 -2.479,-0.70353 -0.591,-0.38694 -3.668,-1.13813 -6.838,-1.6693 -7.413,-1.24183 -7.735,-1.34494 -8.672,-2.7737 -0.702,-1.07191 -0.73,-2.0019 -0.26,-8.72409 0.289,-4.13835 0.471,-7.95698 0.403,-8.48585 -0.08,-0.66108 0.141,-0.9407 0.72,-0.89479 0.975,0.0773 1.08,-0.35719 0.28,-1.15682 -0.908,-0.90688 0.864,-1.30094 2.129,-0.47355 0.593,0.38811 2.525,0.86021 4.292,1.04911 1.768,0.1889 4.366,0.67151 5.774,1.07248 1.407,0.40097 3.641,0.99683 4.965,1.32415 l 2.405,0.59513 0.08,10.30018 c 0.04,5.66511 0.151,10.70961 0.241,11.21001 0.227,1.27114 -1.043,1.58913 -1.369,0.3428 z m -0.674,-3.12347 c -0.604,-0.56649 -11.879,-3.20393 -13.14,-3.07377 -1.076,0.11095 -0.148,0.46378 3.318,1.26151 2.646,0.60911 5.352,1.2913 6.013,1.51596 1.216,0.41303 4.179,0.6435 3.809,0.2963 z m -0.717,-2.63891 c 0.144,-0.23271 0.06,-2.23397 -0.192,-4.44726 -0.25,-2.21328 -0.544,-4.87201 -0.653,-5.90827 -0.145,-1.37455 -0.563,-2.14913 -1.545,-2.864 -1.44,-1.04807 -9.142,-3.31051 -11.514,-3.38205 -1.821,-0.0549 -2.143,1.16111 -0.769,2.90601 0.548,0.69694 0.989,1.72478 0.98,2.28409 -0.02,0.9275 -0.12,0.89174 -1.182,-0.40664 -0.64,-0.78296 -1.269,-1.31831 -1.398,-1.18968 -0.129,0.12863 -0.272,2.71641 -0.318,5.75062 l -0.08,5.51674 3.304,-0.13356 c 2.476,-0.10012 4.207,0.16101 6.912,1.04267 3.818,1.24473 6.027,1.52908 6.459,0.83133 z m 0.757,-14.40405 c 0,-0.57368 -2.253,-1.52616 -3.51,-1.48387 -0.812,0.0273 -0.61,0.24386 0.864,0.92592 2.219,1.02626 2.646,1.11644 2.646,0.55795 z m -6.038,-1.94627 c -0.674,-0.62967 -2.983,-1.24571 -2.381,-0.63553 0.264,0.26849 0.914,0.59224 1.443,0.71945 0.529,0.1272 1.06,0.25638 1.179,0.28706 0.119,0.0307 0.01,-0.13627 -0.241,-0.37098 z m 13.51,8.62369 c -0.325,-0.52483 -0.06,-3.79043 0.714,-8.67773 0.229,-1.45437 0.559,-4.37513 0.732,-6.49058 0.173,-2.11546 0.385,-4.38716 0.472,-5.04824 0.09,-0.66108 0.283,-2.50008 0.439,-4.08667 0.429,-4.38449 0.755,-5.52902 1.575,-5.52902 0.584,0 0.675,0.3359 0.424,1.56255 -0.346,1.69218 -0.398,2.104 -1.549,12.13981 -1.991,17.35723 -2.003,17.4293 -2.807,16.12988 z m -4.008,-15.02408 c -0.317,-0.31732 -0.577,-1.72361 -0.577,-3.1251 0,-2.70937 -0.683,-3.34595 -1.444,-1.34619 -0.774,2.0356 -1.612,1.46897 -1.244,-0.84138 0.179,-1.12383 0.453,-3.01692 0.609,-4.20686 0.299,-2.28678 1.809,-4.30776 2.617,-3.50097 0.341,0.34076 0.999,13.59744 0.675,13.59744 -0.03,0 -0.318,-0.25962 -0.636,-0.57694 z m -0.592,-9.15894 c -0.01,-1.32779 -0.09,-1.43175 -0.521,-0.69197 -0.279,0.47881 -0.387,1.18196 -0.241,1.56254 0.444,1.1581 0.778,0.77771 0.762,-0.87057 z m -8.377,5.45396 c -0.148,-0.23961 -0.702,-0.32255 -1.231,-0.18432 -0.85,0.22211 -0.965,0.007 -0.994,-1.84808 -0.03,-1.87873 -0.09,-1.98427 -0.561,-1.00408 -0.895,1.85784 -1.565,0.8987 -1.714,-2.4558 -0.118,-2.66056 -0.01,-3.20697 0.617,-3.20697 0.418,0 0.94,0.48679 1.161,1.08176 0.352,0.94641 0.445,0.8261 0.749,-0.96157 0.19,-1.12383 0.544,-2.04333 0.785,-2.04333 0.448,0 0.536,0.32842 0.627,2.35986 0.07,1.61113 1.255,1.91687 1.255,0.32452 0,-0.7835 0.267,-1.24203 0.722,-1.24203 0.561,0 0.721,0.64105 0.721,2.88471 0,3.05759 -0.663,3.76176 -1.812,1.92313 -0.863,-1.38105 -1.555,-1.18461 -1.555,0.44147 0,2.18302 0.401,2.8059 1.654,2.56661 1.219,-0.23294 3.157,0.58699 3.157,1.3359 0,0.58783 -3.219,0.6132 -3.581,0.0282 z m -2.192,-5.12175 c 0,-0.41225 -0.217,-0.61583 -0.482,-0.45241 -0.264,0.16343 -0.481,0.50073 -0.481,0.74955 0,0.24883 0.217,0.45241 0.481,0.45241 0.265,0 0.482,-0.33729 0.482,-0.74955 z m -5.354,1.11014 c -0.08,-3.85281 -0.216,-5.12549 -0.595,-5.50417 -0.658,-0.65723 -0.965,0.48831 -0.937,3.49399 0.02,2.65208 -0.09,3.11452 -0.752,2.97956 -0.646,-0.13205 -0.756,-0.71632 -0.633,-3.36815 0.08,-1.76461 -0.08,-3.62783 -0.351,-4.14049 -0.735,-1.37283 0.458,-2.27035 1.976,-1.48546 1.861,0.96315 2.797,1.99149 2.797,3.07504 0,0.56721 0.25,1.28174 0.557,1.58786 0.421,0.42156 0.406,0.73742 -0.06,1.30218 -0.375,0.45179 -0.515,1.38479 -0.356,2.36758 0.246,1.51261 -0.28,2.69696 -1.197,2.69696 -0.211,0 -0.412,-1.3522 -0.446,-3.0049 z m 10.981,0.72118 c -0.111,-0.19832 -0.345,-0.95556 -0.519,-1.68275 -0.281,-1.17608 -0.182,-1.32215 0.896,-1.32215 1.247,0 1.411,0.41208 0.909,2.28372 -0.288,1.07291 -0.897,1.41441 -1.286,0.72118 z m 6.881,-11.00504 c 0,-0.69803 -0.318,-1.50936 -0.707,-1.80294 -0.545,-0.41088 -0.64,-1.1703 -0.414,-3.2983 0.305,-2.86793 1.121,-3.84187 1.121,-1.33724 0,1.0803 0.178,1.359 0.732,1.14647 0.623,-0.23865 0.698,0.17857 0.501,2.7796 -0.128,1.68321 -0.241,3.22265 -0.252,3.42098 -0.01,0.19832 -0.235,0.36059 -0.5,0.36059 -0.264,0 -0.481,-0.57112 -0.481,-1.26916 z m -3.761,-1.94609 c -0.271,-0.74371 -0.51,-1.08176 -0.531,-0.75122 -0.08,1.22937 -2.19,0.61634 -3.045,-0.88338 -1.095,-1.92369 -1.181,-6.68898 -0.12,-6.68898 0.511,0 0.726,0.52765 0.737,1.80294 0.02,2.2575 0.973,3.62549 2.209,3.16852 1.25,-0.46211 1.609,-1.11178 1.617,-2.92812 0,-1.66696 0.735,-2.11836 1.162,-0.72118 0.279,0.91525 -0.736,7.55458 -1.231,8.04935 -0.167,0.16735 -0.526,-0.30422 -0.798,-1.04793 z m -8.51,-1.19444 c -0.171,-0.44209 -0.08,-1.23919 0.207,-1.77133 0.285,-0.53214 0.518,-2.18973 0.518,-3.68352 0,-1.95911 0.167,-2.66016 0.601,-2.51566 0.331,0.11018 0.586,0.66909 0.567,1.24203 -0.158,4.80717 -0.29,5.77997 -0.893,6.59902 -0.622,0.84409 -0.717,0.85646 -1,0.12946 z m -9.694,-1.14032 c -0.345,-0.89813 0.733,-10.23208 1.212,-10.49472 0.559,-0.30659 3.433,1.13319 3.478,1.74277 0.03,0.32978 0.113,1.51902 0.195,2.64275 0.138,1.88104 -0.384,3.02146 -1.069,2.33641 -0.156,-0.1563 -0.304,-1.20275 -0.329,-2.32544 -0.03,-1.47148 -0.261,-2.08287 -0.82,-2.19032 -0.89,-0.17124 -1.375,1.92998 -1.384,5.99744 0,2.51571 -0.712,3.77768 -1.283,2.29111 z m 7.308,0.14118 c -0.107,-0.33054 -0.295,-2.00727 -0.418,-3.72608 -0.124,-1.7188 -0.386,-3.63371 -0.582,-4.25535 -0.295,-0.93458 -0.203,-1.10062 0.533,-0.95903 0.983,0.18917 1.386,1.66043 1.793,6.53654 0.2,2.40766 0.113,3.0049 -0.441,3.0049 -0.38,0 -0.778,-0.27044 -0.885,-0.60098 z m 22.082,-2.43453 c -0.466,-1.2131 0,-5.29383 0.634,-5.50089 0.436,-0.14359 0.601,0.59644 0.601,2.69855 0,2.7623 -0.668,4.27843 -1.235,2.80234 z m 2.077,-11.66463 c -0.198,-0.20044 -0.361,-1.57835 -0.361,-3.06203 0,-2.91641 1.129,-5.341 2.056,-4.4148 0.348,0.34738 0.303,0.73947 -0.145,1.27912 -0.528,0.6354 -0.532,0.84902 -0.02,1.16414 0.511,0.31581 0.511,0.42369 0,0.59368 -0.343,0.11425 -0.746,1.24196 -0.896,2.50603 -0.15,1.26406 -0.436,2.1343 -0.634,1.93386 z m 5.193,-11.86319 c 0.331,-0.86325 10.327,-5.64921 11.798,-5.64921 1.116,0 0.279,1.08015 -1.355,1.75031 -0.992,0.40682 -3.479,1.58572 -5.525,2.61978 -3.837,1.93841 -5.32,2.3242 -4.918,1.27912 z m 9.477,-0.95131 c 0.234,-0.70026 3.41,-2.71102 7.1,-4.49515 1.455,-0.7036 5.713,-2.76788 9.461,-4.58729 6.853,-3.32651 7.859,-3.69144 7.859,-2.85165 0,0.37158 -23.677,12.52481 -24.401,12.52481 -0.119,0 -0.127,-0.26582 -0.02,-0.59072 z m 3.732,-4.9383 c 0,-0.39664 0.217,-0.72117 0.481,-0.72117 0.265,0 0.481,0.32453 0.481,0.72117 0,0.39665 -0.216,0.72118 -0.481,0.72118 -0.264,0 -0.481,-0.32453 -0.481,-0.72118 z m 6.736,-3.12509 c 0,-0.26444 0.216,-0.48079 0.481,-0.48079 0.264,0 0.481,0.21635 0.481,0.48079 0,0.26443 -0.217,0.48078 -0.481,0.48078 -0.265,0 -0.481,-0.21635 -0.481,-0.48078 z m 29.347,-0.46007 c 0,-1.36305 6.775,-4.01949 7.755,-3.04052 0.645,0.64426 -0.762,2.05823 -2.048,2.05823 -0.527,0 -1.324,0.18588 -1.769,0.41307 -1.302,0.66344 -3.938,1.04452 -3.938,0.56922 z m -26.127,-0.32817 c -0.445,-0.44503 0.09,-1.1349 0.882,-1.1349 0.406,0 0.567,0.29032 0.402,0.72117 -0.294,0.76474 -0.777,0.92038 -1.284,0.41373 z m 3.034,-2.09647 c 0,-0.26443 0.338,-0.48079 0.75,-0.48079 0.413,0 0.616,0.21636 0.453,0.48079 -0.164,0.26443 -0.501,0.48078 -0.75,0.48078 -0.249,0 -0.453,-0.21635 -0.453,-0.48078 z m 33.317,-0.1202 c 0.11,-0.33054 0.489,-0.60098 0.841,-0.60098 0.353,0 0.732,0.27044 0.842,0.60098 0.12,0.35751 -0.221,0.60098 -0.842,0.60098 -0.62,0 -0.961,-0.24347 -0.841,-0.60098 z m -31.393,-0.80535 c 0,-0.74413 8.397,-5.32465 9.761,-5.32465 0.274,0 1.507,-0.6467 2.74,-1.43712 2.281,-1.46262 5.302,-2.39075 5.299,-1.62788 0,0.45909 -3.718,2.39816 -10.102,5.27233 -2.249,1.01256 -4.606,2.22825 -5.237,2.70155 -1.236,0.92761 -2.461,1.13443 -2.461,0.41577 z m 29.348,-0.20031 c 0,-0.66602 3.729,-2.03854 4.216,-1.55178 0.151,0.15055 0.184,0.32781 0.07,0.39391 -1.244,0.74554 -3.5,1.80294 -3.848,1.80294 -0.243,0 -0.442,-0.29028 -0.442,-0.64507 z m -22.99,-0.38624 c 0.27,-0.81216 7.964,-4.91518 13.368,-7.12908 1.455,-0.59626 3.022,-1.2758 3.481,-1.51009 1.095,-0.55841 1.811,-0.54045 1.811,0.0454 0,0.25927 -1.461,1.13546 -3.248,1.94708 -1.786,0.81163 -5.52,2.62396 -8.299,4.02742 -5.982,3.02203 -7.424,3.55291 -7.113,2.61924 z m 11.704,-1.33939 c -0.355,-0.5753 0.55,-1.14533 1.19,-0.74955 0.539,0.33231 0.185,1.19712 -0.488,1.19712 -0.234,0 -0.549,-0.20141 -0.702,-0.44757 z m 16.097,-0.0332 c 0,-0.26443 0.216,-0.48078 0.481,-0.48078 0.265,0 0.481,0.21635 0.481,0.48078 0,0.26443 -0.216,0.48079 -0.481,0.48079 -0.265,0 -0.481,-0.21636 -0.481,-0.48079 z m -5.773,-0.95794 c 0,-0.69206 1.767,-1.88346 4.227,-2.85034 2.953,-1.16032 3.472,-1.21998 3.467,-0.39858 0,0.33054 -1.734,1.27223 -3.849,2.09264 -2.115,0.82041 -3.845,1.34074 -3.845,1.15628 z m 8.905,0.004 c -0.344,-0.55488 1.563,-1.68426 4.583,-2.71567 1.446,-0.49372 2.802,-1.16811 3.013,-1.49865 0.463,-0.72252 1.781,-0.80268 1.781,-0.10829 0,0.27097 -0.488,0.71546 -1.083,0.98774 -0.595,0.27228 -1.84,0.90559 -2.766,1.40736 -0.926,0.50176 -2.063,0.92269 -2.526,0.93539 -0.463,0.0127 -0.842,0.21422 -0.842,0.44781 0,0.56485 -1.858,1.03301 -2.16,0.54431 z m -15.529,-0.75992 c 0.667,-0.6672 7.795,-4.0066 8.036,-3.76531 0.39,0.38887 -1.278,1.54604 -4.148,2.87855 -2.25,1.04472 -4.578,1.57554 -3.888,0.88676 z m 11.742,-5.25734 c 0.152,-0.39665 0.339,-0.72118 0.414,-0.72118 0.08,0 0.263,0.32453 0.415,0.72118 0.167,0.43489 0,0.72118 -0.415,0.72118 -0.417,0 -0.581,-0.28629 -0.414,-0.72118 z m -15.222,-0.12474 c 0,-0.48433 0.71,-0.90764 7.358,-4.39073 4.915,-2.57449 5.694,-2.8536 5.97,-2.13648 0.186,0.48641 0.06,0.90912 -0.3,1.0302 -0.339,0.11292 -3.204,1.4781 -6.367,3.03373 -5.719,2.81275 -6.661,3.16092 -6.661,2.46328 z m -64.957,15.51981 c 0.325,-0.39116 1.272,-1.06736 2.104,-1.50267 4.636,-2.42535 8.114,-4.03632 8.714,-4.03632 0.374,0 0.797,-0.18925 0.94,-0.42055 0.143,-0.2313 1.679,-1.12546 3.413,-1.98704 5.345,-2.65615 3.181,-2.0581 -4.61,1.27413 -4.084,1.74687 -9.154,3.89737 -11.268,4.7789 -2.113,0.88153 -3.917,1.82822 -4.009,2.10376 -0.267,0.80276 4.034,0.61102 4.716,-0.21021 z m -5.605,-1.15684 c 0.838,-0.51512 2.498,-1.29816 3.689,-1.74008 1.191,-0.44192 3.68,-1.53031 5.533,-2.41864 1.852,-0.88834 6.047,-2.72138 9.323,-4.07342 6.355,-2.62347 22.699,-10.16715 31.811,-14.68326 5.965,-2.95623 7.896,-3.84625 17.704,-8.162664 6.328,-2.784699 6.397,-2.831735 6.255,-4.286312 -0.133,-1.355694 -0.273,-1.460344 -1.786,-1.338105 -0.903,0.07294 -2.96,0.684661 -4.57,1.35939 -1.611,0.674728 -5.202,2.057429 -7.981,3.072668 -5.453,1.992458 -12.74,5.045723 -16.598,6.953813 -2.886,1.42755 -10.773,4.76012 -19.004,8.02939 -7.173,2.84962 -13.605,5.87753 -15.618,7.35234 -0.803,0.58878 -4.492,2.5362 -8.196,4.32761 -6.646,3.21393 -10.344,5.36485 -10.344,6.01713 0,0.1838 1.858,0.37751 4.129,0.43046 3.363,0.0784 4.41,-0.0773 5.653,-0.84032 z m 65.042,-3.80851 c -0.148,-0.14803 -0.536,-3.1e-4 -0.862,0.32827 -0.472,0.47483 -0.417,0.53005 0.269,0.26914 0.475,-0.18055 0.742,-0.44939 0.593,-0.59741 z m -29.844,-9.70304 c 0.168,-0.27253 -0.02,-0.35314 -0.453,-0.18895 -0.833,0.31962 -0.986,0.66423 -0.294,0.66423 0.249,0 0.585,-0.21387 0.747,-0.47528 z m 9.625,-4.18162 c 3.234,-1.37846 9.148,-4.16121 19.485,-9.16877 3.837,-1.858622 7.785,-3.634681 8.774,-3.946798 1.672,-0.528095 2.636,-1.274948 2.203,-1.707609 -0.102,-0.101603 -1.693,0.555265 -3.536,1.459706 -1.843,0.904441 -3.52,1.651024 -3.726,1.659072 -0.92,0.03597 -28.732,13.310599 -28.732,13.713689 0,0.25502 1.491,-0.28649 5.532,-2.00929 z"
       id="path1" /></g></svg>
