<?xml version="1.0" encoding="UTF-8" standalone="no"?>
<!-- Created with Inkscape (http://www.inkscape.org/) -->

<svg
   width="231.38646"
   height="235.24007"
   viewBox="0 0 61.221 62.240601"
   version="1.1"
   id="svg1"
   xml:space="preserve"
   xmlns="http://www.w3.org/2000/svg"
   xmlns:svg="http://www.w3.org/2000/svg"><defs
     id="defs1" /><g
     id="g1288"
     transform="matrix(0.26458333,0,0,0.26458333,-3362.3267,-207.61324)"><path
       style="fill:#000000"
       d="m 12757.455,995.98009 c 0,-0.26423 0.216,-0.48041 0.48,-0.48041 0.264,0 0.48,0.21618 0.48,0.48041 0,0.26422 -0.216,0.48041 -0.48,0.48041 -0.264,0 -0.48,-0.21619 -0.48,-0.48041 z m -6.241,-1.77772 c -0.924,-0.4155 -2.22,-0.98522 -2.88,-1.26604 -2.036,-0.86631 -4.289,-2.70742 -5.003,-4.08917 -0.768,-1.48713 -0.798,-7.04207 -0.04,-7.03426 0.264,0.003 0.643,1.40791 0.843,3.12267 0.323,2.77091 0.558,3.29054 2.111,4.67102 2.468,2.19427 7.07,3.80564 10.114,3.54194 0.874,-0.0757 2.147,-2.83997 1.805,-3.9182 -0.205,-0.64559 -0.07,-0.93681 0.426,-0.93681 0.397,0 1.42,-0.97284 2.273,-2.16185 0.854,-1.18902 1.785,-2.17839 2.07,-2.19861 2.635,-0.18673 4.717,-1.42562 5.799,-3.45217 0.636,-1.19 1.487,-1.97122 2.521,-2.31382 1.496,-0.49611 1.747,-0.91129 2.147,-3.55974 0.08,-0.52542 0.55,-1.03364 1.047,-1.12938 0.712,-0.13717 0.847,0.0399 0.64,0.8352 -0.416,1.58884 0.813,1.21857 2.261,-0.68175 0.709,-0.93006 1.411,-2.44335 1.56,-3.36287 0.273,-1.68706 0.962,-2.10398 1.909,-1.15628 0.366,0.36717 0.82,0.0214 1.575,-1.20102 0.583,-0.94414 1.366,-1.71661 1.741,-1.71661 0.374,0 0.681,-0.18315 0.681,-0.40699 0,-0.22385 0.486,-0.65201 1.08,-0.95147 0.936,-0.47205 0.84,-0.50665 -0.72,-0.26016 -1.562,0.24666 -1.8,0.16027 -1.8,-0.65221 0,-0.76801 0.493,-1.01535 2.742,-1.37459 2.363,-0.37757 2.781,-0.60394 3.027,-1.6391 0.199,-0.84105 0.564,-1.16225 1.218,-1.07165 0.538,0.0746 1.207,-0.31066 1.581,-0.91027 0.621,-0.99724 0.587,-1.0275 -0.84,-0.7419 -1.245,0.24917 -1.488,0.14917 -1.488,-0.61289 0,-0.64385 0.457,-1.001 1.56,-1.21905 3.025,-0.59791 4.466,-1.38706 6.954,-3.80799 1.583,-1.54037 2.516,-2.85481 2.52,-3.5514 0,-0.78749 0.411,-1.24692 1.411,-1.59563 1.137,-0.39683 1.465,-0.8527 1.726,-2.40331 0.242,-1.43394 0.522,-1.87254 1.117,-1.74982 0.486,0.10036 0.732,0.52898 0.636,1.10716 -0.152,0.9043 -0.122,0.90808 0.714,0.0912 0.48,-0.46873 1.199,-2.07303 1.598,-3.56512 0.677,-2.53297 1.926,-4.05513 1.926,-2.34844 0,1.20774 0.745,0.89273 2.103,-0.88873 1.453,-1.90615 1.523,-2.1939 0.537,-2.1939 -1.479,0 -0.646,-1.39151 1.438,-2.40115 1.187,-0.5751 2.591,-1.59637 3.12,-2.26949 1.116,-1.41985 1.285,-3.49635 0.285,-3.49635 -0.679,0 -2.9,2.3341 -3.266,3.43156 -0.112,0.33739 -0.545,0.45012 -1.023,0.26659 -0.76,-0.29197 -0.767,-0.4347 -0.09,-1.74304 0.405,-0.78377 1.5,-2.00798 2.433,-2.72049 1.489,-1.13668 1.85,-1.22583 2.943,-0.72736 1.002,0.45682 1.398,0.43387 2.024,-0.11714 0.427,-0.37688 1.477,-0.83402 2.332,-1.01587 0.855,-0.18185 1.66,-0.50129 1.789,-0.70988 0.445,-0.72035 -1.579,-2.01661 -3.658,-2.34252 -4.169,-0.65366 -7.65,-3.83554 -8.767,-8.01355 -0.358,-1.33681 0.394,-2.37491 1.431,-1.97671 0.566,0.21768 1.279,-0.0898 2.156,-0.93021 0.958,-0.91923 1.408,-1.0955 1.678,-0.65831 0.233,0.37769 -0.277,1.18882 -1.388,2.20771 -0.966,0.88586 -1.756,2.02935 -1.756,2.5411 0,1.53101 3.993,4.48551 6.979,5.16431 1.449,0.32926 3.283,1.0786 4.076,1.66518 l 1.441,1.06651 0.782,-1.17692 c 0.43,-0.6473 3.721,-4.07478 7.313,-7.61662 3.592,-3.54183 9.777,-9.64905 13.745,-13.5716 3.968,-3.92254 7.478,-7.1319 7.8,-7.1319 0.323,0 0.587,-0.35904 0.587,-0.79787 0,-0.43882 0.613,-1.35761 1.362,-2.04174 0.748,-0.68413 2.874,-2.97336 4.724,-5.08717 1.85,-2.1138 5.18,-5.69853 7.4,-7.96606 13.377,-13.66539 19.445,-20.61416 20.955,-23.9944 2.481,-5.55587 2.746,-7.05697 2.754,-15.55787 0,-5.08778 -0.175,-8.18642 -0.48,-8.28989 -0.57,-0.19283 -21.181,20.1436 -30.157,29.75578 -3.39,3.62997 -8.574,9.07675 -11.521,12.10397 -2.947,3.02721 -6.33,6.61779 -7.518,7.97906 -1.188,1.36127 -2.884,3.15318 -3.77,3.98202 -0.886,0.82884 -2.881,2.71637 -4.435,4.19452 -2.74,2.60691 -3.316,2.8796 -3.316,1.57163 0,-0.60427 11.583,-12.26226 12.506,-12.58629 0.25,-0.0881 0.455,-0.46164 0.455,-0.83016 0,-0.36851 3.85,-4.62015 8.556,-9.44808 4.705,-4.82792 10.041,-10.39943 11.857,-12.38113 1.816,-1.98169 7.632,-7.87802 12.926,-13.10295 5.294,-5.22492 11.032,-10.89977 12.752,-12.61078 1.977,-1.96719 3.521,-3.11091 4.2,-3.11091 1.228,0 1.306,0.35958 0.489,2.25067 -0.385,0.89046 -0.592,4.30612 -0.604,9.9998 -0.02,8.33255 -0.07,8.78719 -1.421,12.48703 -1.456,3.99036 -2.503,6.04018 -4.544,8.89125 -1.265,1.7669 -1.618,2.16039 -8.848,9.84842 -2.485,2.64226 -5.063,5.45266 -5.729,6.24534 -0.666,0.79268 -3.772,4.08545 -6.902,7.31728 -3.13,3.23183 -6.554,6.8806 -7.61,8.10837 -1.057,1.22778 -2.388,2.44719 -2.96,2.7098 -0.572,0.26262 -1.146,0.8835 -1.275,1.37974 -0.14,0.53418 -0.662,0.90226 -1.281,0.90226 -0.622,0 -0.964,0.24279 -0.845,0.59988 0.303,0.9114 -4.736,6.18116 -17.114,17.89594 -7.638,7.22876 -9.665,9.81788 -10.054,12.84121 -0.553,4.29102 -1.347,5.43715 -5.062,7.30937 -1.856,0.93573 -3.618,2.15436 -3.914,2.70805 -0.296,0.55369 -1.288,1.83805 -2.206,2.85414 -0.917,1.01609 -2.291,2.77681 -3.053,3.91271 -1.719,2.56077 -8.172,10.29138 -12.961,15.52634 -8.436,9.22097 -13.682,14.65953 -14.145,14.6626 -0.273,0.002 -0.973,0.7044 -1.557,1.56133 -2.227,3.27292 -14.143,13.38619 -19.877,16.86925 -4.903,2.97865 -10.015,3.88297 -13.385,2.36772 z m 10.209,-2.90629 c 0.966,-1.07259 1.53,-3.29169 0.93,-3.66235 -0.493,-0.30498 -2.978,2.97308 -2.978,3.92838 0,0.85044 1.181,0.69704 2.048,-0.26603 z m 3.246,-1.58651 c 0.29,-0.5423 0.453,-1.35299 0.362,-1.80154 -0.119,-0.58632 -0.398,-0.35596 -0.991,0.8196 -0.961,1.90546 -0.973,1.96794 -0.362,1.96794 0.255,0 0.701,-0.4437 0.991,-0.986 z m 5.557,-5.22517 c 0.381,-0.90599 0.633,-1.80839 0.561,-2.00533 -0.406,-1.10518 -4.212,4.03835 -4.212,5.69158 0,1.17355 2.795,-1.64805 3.651,-3.68625 z m -4.701,-0.4245 c -0.471,-0.21422 -2.31,1.71638 -2.31,2.42491 0,0.32635 0.594,-0.052 1.32,-0.84071 0.726,-0.78874 1.172,-1.50163 0.99,-1.5842 z m 9.287,-2.03645 c 1.602,-1.33473 4.919,-4.41537 7.371,-6.84586 3.79,-3.75711 4.355,-4.51376 3.772,-5.05121 -1.349,-1.2445 -2.766,-0.48635 -3.559,1.90468 -0.932,2.80649 -1.782,3.84523 -3.006,3.66941 -0.718,-0.10323 -1.1,0.27701 -1.52,1.5146 -0.679,2.00468 -1.897,2.68594 -1.423,0.79663 0.172,-0.68642 0.189,-1.24804 0.04,-1.24804 -0.735,0 -3.669,3.09055 -3.669,3.8647 0,0.48549 -0.19,1.00036 -0.423,1.14416 -0.427,0.26441 -1.049,2.67771 -0.69,2.67771 0.107,0 1.506,-1.09205 3.109,-2.42678 z m -1.516,-0.93609 c 0,-0.26423 0.216,-0.48042 0.48,-0.48042 0.264,0 0.48,0.21619 0.48,0.48042 0,0.26422 -0.216,0.48041 -0.48,0.48041 -0.264,0 -0.48,-0.21619 -0.48,-0.48041 z m 7.593,-7.92678 c 0.301,-0.66057 0.379,-1.20103 0.173,-1.20103 -0.589,0 -1.526,1.09071 -1.526,1.77752 0,1.03291 0.77,0.70507 1.353,-0.57649 z m 8.248,-4.58081 c 0,-0.63625 -0.65,-0.5816 -1.344,0.11299 -0.906,0.90682 -0.673,1.43105 0.384,0.86474 0.528,-0.28282 0.96,-0.7228 0.96,-0.97773 z m -2.613,-1.14484 c 0.512,-0.37474 0.764,-0.84914 0.559,-1.05424 -0.205,-0.20509 -0.847,0.10151 -1.426,0.68134 -1.175,1.17518 -0.579,1.4312 0.867,0.3729 z m 3.741,-1.12386 c 0.124,-0.20019 0.386,-1.22706 0.584,-2.28195 0.326,-1.74045 0.286,-1.85772 -0.427,-1.26692 -0.658,0.54589 -2.245,3.1936 -2.245,3.74644 0,0.33309 1.87,0.15619 2.088,-0.19757 z m 3.549,-2.84946 c 1.575,-1.67149 2.422,-3.41219 3.189,-6.55377 l 0.332,-1.36 -1.655,1.26383 c -0.911,0.69511 -1.988,1.96475 -2.394,2.82144 -0.824,1.73785 -1.786,5.60069 -1.394,5.60069 0.138,0 1.003,-0.79748 1.922,-1.77219 z m 6.983,-7.5089 c 0.415,-0.63422 1.04,-1.45892 1.388,-1.83265 3.863,-4.1464 5.633,-7.38207 4.039,-7.38207 -0.723,0 -2.287,2.44509 -2.626,4.10657 -0.179,0.87259 -0.62,1.68492 -0.98,1.80518 -0.492,0.16395 -0.576,-0.0975 -0.339,-1.04501 0.175,-0.69501 0.212,-1.26366 0.08,-1.26366 -0.441,0 -3.601,5.26621 -3.918,6.52907 -0.287,1.14449 -0.228,1.2136 0.641,0.74832 0.526,-0.28194 1.297,-1.03153 1.712,-1.66575 z m 9.382,-12.0562 c 1.367,-0.70712 2.867,-2.93592 2.336,-3.46821 -0.494,-0.49368 -2.425,1.0276 -3.364,2.64969 -0.975,1.68427 -0.844,1.78781 1.028,0.81852 z m 6.287,-7.44141 c 0.546,-0.76741 0.987,-1.90238 0.979,-2.52216 -0.01,-1.08558 -0.07,-1.06938 -1.44,0.44205 -1.365,1.50159 -1.921,3.4754 -0.979,3.4754 0.246,0 0.894,-0.62788 1.44,-1.39529 z m 4.074,-3.70042 c 0.846,-0.32474 1.015,-1.41533 0.289,-1.86411 -0.678,-0.41978 -2.41,0.62334 -2.41,1.452 0,0.73908 0.843,0.90288 2.121,0.41211 z m 3.848,-2.55574 c 0.877,-0.96991 1.824,-4.26915 1.415,-4.93105 -0.528,-0.85469 -2.939,1.0309 -3.239,2.53305 -0.672,3.35946 0.07,4.33612 1.824,2.398 z m -3.171,-1.92622 c 0.389,-1.11612 -0.02,-3.14384 -0.491,-2.41869 -0.852,1.31929 -1.347,2.54123 -1.347,3.32737 0,1.36405 1.264,0.73922 1.838,-0.90868 z m -64.722,55.56222 c 0,-0.5884 2.851,-1.97532 3.247,-1.57935 0.105,0.10489 -0.05,0.64159 -0.345,1.19267 -0.589,1.10137 -2.902,1.40957 -2.902,0.38668 z m -3.1,-0.31227 c -0.361,-0.5839 0.484,-2.34335 1.676,-3.48929 0.465,-0.44757 0.922,-0.98803 1.015,-1.20102 0.09,-0.213 1.664,-1.68437 3.491,-3.26973 5.723,-4.96388 9.879,-9.75278 9.879,-11.38298 0,-1.17906 -0.622,-1.09027 -2.308,0.32954 -1.161,0.97725 -1.52,1.07884 -1.956,0.55333 -0.624,-0.75318 0.205,-1.63926 2.738,-2.92364 2.165,-1.09813 3.164,-0.32316 2.827,2.1934 -0.425,3.16817 -3.263,6.46216 -12.496,14.50299 -1.764,1.53573 -3.207,3.0766 -3.207,3.42416 0,0.91024 -1.277,1.88242 -1.659,1.26324 z m 6.94,-2.19511 c 0,-0.39634 0.24,-0.72062 0.533,-0.72062 0.293,0 6.063,-5.45866 12.823,-12.13037 16.772,-16.55363 19.803,-19.65261 23.843,-24.38084 1.92,-2.24592 4.637,-5.27251 6.039,-6.72575 2.221,-2.30214 2.421,-2.66109 1.552,-2.78857 -0.577,-0.0847 -2.579,0.88708 -4.751,2.30652 -2.065,1.34906 -4.454,2.78476 -5.308,3.19045 -0.854,0.40568 -2.165,1.31341 -2.912,2.01717 -0.748,0.70376 -3.029,2.76531 -5.068,4.58122 -2.04,1.81591 -3.709,3.50171 -3.709,3.74623 0,0.24451 -0.565,0.93042 -1.255,1.52423 -0.689,0.59382 -1.175,1.43891 -1.08,1.87798 0.253,1.15728 7.146,-4.20426 8.066,-6.27316 0.767,-1.72549 1.778,-1.79239 1.585,-0.10483 -0.183,1.59555 -2.215,3.80361 -5.837,6.34347 -5.576,3.91001 -7.514,3.5136 -5.042,-1.03155 2.035,-3.74213 9.12,-10.52432 14.733,-14.10351 1.523,-0.97133 2.885,-1.76606 3.026,-1.76606 0.142,0 1.488,-0.83285 2.991,-1.85076 2.853,-1.93152 5.616,-2.75948 6.771,-2.02896 0.558,0.35274 0.573,0.67974 0.09,1.85751 -0.325,0.78617 -1.062,1.87978 -1.637,2.43025 -1.13,1.08264 -1.316,1.28614 -5.112,5.59709 -5.986,6.7988 -10.554,11.66443 -13.694,14.58949 -1.848,1.7213 -7.457,7.24976 -12.464,12.28547 -11.558,11.62395 -14.178,13.75973 -14.178,11.5579 z m -17.618,-2.9302 c 0.159,-1.55063 0.505,-2.8908 0.766,-2.97817 0.262,-0.0874 0.358,-0.46915 0.212,-0.84842 -0.181,-0.47208 0.07,-0.68958 0.806,-0.68958 0.861,0 0.962,0.13101 0.515,0.67005 -0.306,0.36853 -0.514,0.85494 -0.463,1.08093 0.05,0.22598 -0.04,0.73515 -0.205,1.13149 -0.163,0.39634 -0.36,1.46061 -0.436,2.36506 -0.08,0.90444 -0.442,1.74423 -0.812,1.8662 -0.549,0.18041 -0.62,-0.30388 -0.383,-2.59756 z m 5.399,1.76517 c -0.405,-0.65622 0.58,-2.66861 3.546,-7.24216 2.76,-4.25615 4.718,-6.39052 11.576,-12.62361 2.257,-2.05114 6.794,-6.33649 10.081,-9.52301 3.288,-3.18651 7.705,-7.31451 9.818,-9.17332 3.76,-3.30931 7.43,-6.95433 10.815,-10.74179 2.203,-2.46541 4.306,-3.88391 4.306,-2.9047 0,0.3821 -0.594,1.31788 -1.32,2.0795 -0.726,0.76162 -3.268,3.43089 -5.648,5.93171 -2.381,2.50083 -5.167,5.1876 -6.193,5.97062 -1.026,0.78301 -3.615,3.17582 -5.753,5.31734 -2.138,2.14152 -7.776,7.51121 -12.529,11.93264 -4.752,4.42143 -9.672,9.15134 -10.932,10.51091 -2.585,2.78786 -6.383,8.39458 -5.967,8.80996 0.43,0.43121 2.363,-1.22345 4.061,-3.47764 1.647,-2.1875 7.767,-7.39313 8.691,-7.39313 1.151,0 0.402,1.26738 -1.703,2.88247 -1.206,0.92479 -4.11,3.57305 -6.453,5.88503 -3.947,3.89355 -5.683,4.91367 -6.396,3.75918 z m -2.961,-8.37885 c 0.365,-1.45801 6.971,-9.84421 10.636,-13.5044 1.33,-1.32742 4.002,-3.7106 5.938,-5.29595 3.966,-3.24755 8.257,-7.07555 14.901,-13.29216 2.495,-2.33356 4.764,-4.24283 5.044,-4.24283 0.279,0 0.782,-0.59451 1.118,-1.32113 0.335,-0.72663 1.562,-2.02013 2.726,-2.87447 3.253,-2.38672 8.638,-9.1208 11.09,-13.86798 1.214,-2.35154 2.784,-4.76561 3.489,-5.36461 1.778,-1.51193 3.867,-2.60428 4.377,-2.28901 0.235,0.14534 0.714,-0.0201 1.066,-0.36755 0.351,-0.3475 1.044,-0.78577 1.54,-0.97393 1.094,-0.41493 4.009,0.56621 4.354,1.46536 0.342,0.89071 -0.892,1.27804 -2.066,0.64895 -1.418,-0.75923 -2.754,-0.63692 -4.876,0.44637 -2.999,1.53133 -5.144,3.70521 -6.063,6.14467 -0.468,1.24276 -1.4,3.13411 -2.072,4.20299 -1.362,2.17097 -8.613,10.78618 -9.081,10.78976 -0.368,0.003 -3.201,2.50054 -7.02,6.19112 -5.338,5.15828 -14.874,13.71576 -19.823,17.78871 -4.398,3.62005 -9.193,9.03958 -12.641,14.28941 -0.431,0.65496 -1.273,1.53445 -1.872,1.95442 -1.063,0.7454 -1.081,0.73284 -0.765,-0.52774 z m 56.165,-41.83779 c -0.337,-0.88008 0.496,-2.05578 2.938,-4.14474 1.056,-0.90336 1.999,-1.82555 2.096,-2.04933 0.1,-0.22377 0.798,-1.11705 1.56,-1.98506 1.499,-1.70916 1.836,-3.95043 0.661,-4.40173 -0.996,-0.38255 -2.913,0.96692 -4.202,2.95876 -1.193,1.84409 -2.836,2.32616 -2.413,0.70828 0.343,-1.3112 5.278,-5.76099 6.39,-5.76099 2.038,0 3.066,3.75912 1.702,6.22346 -0.794,1.43468 -7.564,9.06229 -8.089,9.11326 -0.206,0.02 -0.496,-0.27782 -0.643,-0.66191 z m 7.018,-1.68863 c 0,-0.89439 3.514,-6.48229 4.435,-7.05161 0.759,-0.46971 1.017,0.27368 0.493,1.42386 -0.521,1.14541 -4.449,6.57349 -4.757,6.57349 -0.09,0 -0.171,-0.42559 -0.171,-0.94574 z m 3.998,-18.07412 c -0.183,-0.47607 0.185,-1.20799 0.975,-1.94108 0.697,-0.64726 1.268,-1.38428 1.268,-1.63781 0,-0.25353 0.313,-0.46097 0.696,-0.46097 0.383,0 0.869,-0.27086 1.08,-0.6019 0.211,-0.33105 2.004,-2.0839 3.984,-3.89523 1.981,-1.81133 5.189,-5.05348 7.13,-7.20477 3.79,-4.19996 4.391,-4.67073 4.391,-3.44049 0,0.81024 -7.913,10.33828 -8.585,10.33828 -0.205,0 -2.574,2.16185 -5.265,4.80411 -2.69,2.64226 -5.002,4.80411 -5.137,4.80411 -0.134,0 -0.376,-0.34391 -0.537,-0.76425 z m 5.603,-1.54031 c 0,-0.60241 3.576,-3.94078 4.221,-3.94078 1.081,0 0.587,1.44827 -0.981,2.87515 -1.466,1.33473 -3.24,1.91822 -3.24,1.06563 z m 7.696,-7.18355 c 0.02,-0.95524 2.08,-3.48298 2.842,-3.48298 0.976,0 0.487,1.75741 -0.843,3.03279 -1.572,1.50684 -2.02,1.60776 -1.999,0.45019 z m 5.265,-5.41545 c -0.594,-0.39342 -0.327,-0.85289 1.532,-2.6349 2.274,-2.17845 3.279,-2.65929 3.257,-1.55787 -0.01,0.48286 -3.589,4.70365 -3.966,4.67665 -0.06,-0.004 -0.427,-0.22179 -0.823,-0.48388 z m 5.048,-5.26171 c -0.362,-0.58658 3.479,-4.81609 4.374,-4.81609 1.106,0 0.752,0.7614 -1.429,3.07228 -2.201,2.33144 -2.48,2.49686 -2.945,1.74381 z m 5.993,-6.19181 c 0,-1.0372 2.222,-3.42839 3.186,-3.42839 1.173,0 0.691,1.3095 -1.042,2.8327 -1.983,1.74227 -2.144,1.78692 -2.144,0.59569 z m 4.56,-5.35003 c -0.401,-0.65065 0.141,-1.44123 0.989,-1.44123 0.38,0 0.692,-0.28187 0.692,-0.62638 0,-0.77738 2.956,-3.69732 3.743,-3.69732 1.004,0 0.624,1.38804 -0.599,2.19016 -0.647,0.42409 -1.612,1.51 -2.144,2.41313 -0.951,1.61329 -2.095,2.10918 -2.681,1.16164 z m 7.641,-7.85666 c -0.258,-0.67478 16.104,-17.60511 17.015,-17.60511 1.578,0 0.172,1.76103 -7.646,9.57401 -4.778,4.77488 -8.784,8.6816 -8.903,8.6816 -0.119,0 -0.328,-0.29273 -0.466,-0.6505 z m 20.25,-20.40928 c -0.362,-0.58661 1.088,-2.48035 1.899,-2.48035 0.839,0 0.916,1.50651 0.117,2.30597 -0.668,0.66869 -1.658,0.75429 -2.016,0.17438 z m 3.072,-3.51593 c 0,-0.90402 2.39,-3.76852 3.144,-3.76852 1.025,0 0.853,0.81893 -0.561,2.67431 -1.234,1.61846 -2.583,2.19018 -2.583,1.09421 z m 5.54,-6.13835 c -0.273,-0.44253 2.523,-3.38857 3.22,-3.39288 0.646,-0.004 0.381,1.02201 -0.632,2.44577 -0.994,1.39629 -2.068,1.78939 -2.588,0.94711 z m 4.541,-5.03617 c 0,-0.61987 3.343,-3.64345 4.029,-3.64345 0.811,0 0.115,1.70101 -1.2,2.92992 -1.605,1.50031 -2.829,1.80913 -2.829,0.71353 z"
       id="path1" /></g></svg>
