<?xml version="1.0" encoding="UTF-8" standalone="no"?>
<!-- Created with Inkscape (http://www.inkscape.org/) -->

<svg
   width="231.38646"
   height="235.24007"
   viewBox="0 0 61.221 62.240601"
   version="1.1"
   id="svg1"
   xml:space="preserve"
   xmlns="http://www.w3.org/2000/svg"
   xmlns:svg="http://www.w3.org/2000/svg"><defs
     id="defs1" /><g
     id="layer1"
     transform="translate(1472.671,3650.7208)"><g
       id="g1234"
       transform="matrix(0.26458333,0,0,0.26458333,-4714.3655,-3672.2261)"><path
         style="fill:#000000"
         d="m 12327.181,296.49736 c 0.164,-0.26443 0.393,-0.48077 0.509,-0.48077 0.117,0 0.212,0.21634 0.212,0.48077 0,0.26443 -0.229,0.48078 -0.509,0.48078 -0.28,0 -0.375,-0.21635 -0.212,-0.48078 z m -39.943,-11.53795 c -0.571,-0.23054 -1.174,-0.84688 -1.339,-1.36966 -0.166,-0.52277 -0.916,-1.72442 -1.667,-2.67034 -1.851,-2.3307 -2.403,-6.95369 -1.226,-10.26678 1.569,-4.41894 1.687,-4.67114 4.719,-10.08718 6.358,-11.35413 10.175,-17.23216 13.689,-21.0804 5.239,-5.73651 8.091,-9.13109 11.964,-14.24233 2.263,-2.98595 4.266,-5.53718 4.452,-5.66939 0.186,-0.13221 1.1,-1.43031 2.031,-2.88465 0.931,-1.45435 3.013,-3.98042 4.626,-5.61351 1.614,-1.63308 2.948,-3.14753 2.965,-3.36543 0.02,-0.2179 1.529,-1.68655 3.362,-3.26368 1.832,-1.57713 3.332,-3.06488 3.332,-3.30612 0,-0.24123 3.08,-3.51998 6.844,-7.2861 3.764,-3.76612 7.381,-7.57892 8.036,-8.47288 1.515,-2.06699 3.995,-4.55548 6.663,-6.68631 1.149,-0.91846 3.299,-2.96802 4.776,-4.55457 7.204,-7.73712 17.546,-17.54471 20.772,-19.69966 1.969,-1.31546 3.689,-2.5138 3.821,-2.66297 0.712,-0.80448 6.242,-4.83393 7.685,-5.60011 2.307,-1.22529 7.237,-4.5191 8.405,-5.61593 1.785,-1.67667 6.103,-4.87212 9.304,-6.88628 4.776,-3.00437 12.182,-7.27777 13.27,-7.65728 0.529,-0.18417 3.23,-1.32929 6.004,-2.54471 4.822,-2.11273 5.231,-2.2072 9.31,-2.14955 3.879,0.0548 6.29,0.48295 9.295,1.65056 0.591,0.2295 1.353,1.10098 1.693,1.93663 0.856,2.09903 0.282,8.16654 -1.089,11.50906 -1.241,3.02727 -5.75,12.12286 -6.187,12.47954 -0.161,0.13221 -0.942,1.64096 -1.735,3.35278 -1.565,3.3807 -6.732,11.44664 -7.913,12.35385 -0.403,0.30922 -0.732,0.74767 -0.732,0.97434 0,0.22668 -0.775,1.37995 -1.721,2.56283 -1.686,2.10621 -3.193,5.13019 -2.946,5.90802 0.07,0.21554 -0.306,0.99718 -0.832,1.73698 -0.526,0.7398 -0.838,1.46432 -0.692,1.61005 0.145,0.14573 -0.401,1.70493 -1.215,3.46489 -0.814,1.75996 -1.48,3.48287 -1.48,3.82869 0,0.34581 -0.335,0.90696 -0.744,1.24701 -0.409,0.34004 -1.195,1.61054 -1.747,2.82333 -1.272,2.79836 -2.643,4.81752 -5.013,7.38261 -1.033,1.11874 -3.109,3.68272 -4.612,5.69773 -1.503,2.01501 -3.75,4.61119 -4.993,5.7693 -2.248,2.09429 -3.055,2.95101 -7.609,8.07612 -1.312,1.47591 -3.454,3.65705 -4.761,4.84697 -1.307,1.18992 -3.249,3.13706 -4.316,4.32698 -2.581,2.87968 -16.515,16.74741 -18.355,18.26946 -2.313,1.91266 -4.448,3.36542 -4.946,3.36542 -0.253,0 -0.532,0.17135 -0.62,0.38077 -0.279,0.66176 -7.159,6.06083 -9.226,7.2394 -1.09,0.62134 -3.062,1.82698 -4.383,2.67921 -1.321,0.85222 -3.698,2.17226 -5.283,2.93341 -1.585,0.76116 -3.062,1.67691 -3.281,2.03501 -0.52,0.84861 -2.402,1.5918 -5.263,2.07799 -3.135,0.53262 -6.751,2.31972 -10.307,5.09394 -4.22,3.29144 -8.984,6.14081 -13.124,7.84942 -1.962,0.80968 -3.959,1.69165 -4.437,1.95993 -4.744,2.66202 -7.159,3.73072 -9.056,4.00849 -1.232,0.18041 -3.91,0.85838 -5.951,1.50662 -3.816,1.21239 -6.399,1.43201 -8.217,0.69848 z m 8.243,-2.44549 c 8.889,-3.15404 11.24,-4.23055 13.455,-6.16093 0.796,-0.69343 3.498,-2.51226 6.004,-4.04184 2.506,-1.52958 5.853,-3.69464 7.438,-4.81125 1.585,-1.1166 4.395,-2.97363 6.244,-4.12673 4.267,-2.66031 13.939,-9.79417 19.629,-14.47714 2.412,-1.98572 5.935,-4.63747 7.828,-5.89279 3.954,-2.6221 14.758,-12.84111 17.537,-16.58794 1.034,-1.39323 3.258,-3.61719 4.942,-4.94214 1.684,-1.32494 4.952,-4.62018 7.261,-7.32274 3.801,-4.44787 14.564,-15.42926 18.357,-18.72965 0.832,-0.72365 2.06,-2.34627 2.729,-3.60581 1.344,-2.53027 5.184,-7.74127 7.357,-9.98248 0.769,-0.79328 3.088,-3.71399 5.153,-6.49047 2.066,-2.77647 3.881,-5.15631 4.035,-5.28852 0.153,-0.13222 1.034,-1.2718 1.956,-2.53242 0.923,-1.26062 2.575,-3.47638 3.672,-4.92393 1.096,-1.44754 2.594,-3.66136 3.329,-4.9196 0.734,-1.25823 2.377,-3.54293 3.65,-5.07711 1.273,-1.53418 2.315,-3.0931 2.315,-3.46427 0,-0.71196 1.811,-3.73012 3.11,-5.18346 0.423,-0.47306 1.219,-1.66298 1.769,-2.64427 0.549,-0.98129 1.593,-2.54139 2.318,-3.46688 1.933,-2.46425 3.344,-5.47537 3.539,-7.55162 0.09,-1.00293 0.254,-2.03985 0.355,-2.30427 0.101,-0.26443 -0.104,-1.16987 -0.456,-2.01209 -0.768,-1.83808 -2.054,-2.35701 -7.532,-3.03832 -4.685,-0.58273 -6.841,-0.21585 -11.614,1.97609 -1.791,0.82261 -4.229,1.88411 -5.418,2.3589 -2.012,0.80337 -6.143,3.10202 -11.688,6.50306 -1.277,0.78319 -4.735,3.33057 -7.685,5.66084 -2.949,2.33027 -7.092,5.29339 -9.205,6.58471 -3.813,2.32942 -7.539,4.92921 -8.845,6.17119 -0.375,0.35552 -3.184,2.5504 -6.244,4.8775 -3.48,2.64609 -8.821,7.54023 -14.258,13.06457 -4.782,4.85839 -9.645,9.56593 -10.807,10.46118 -1.162,0.89525 -3.086,2.82209 -4.274,4.28188 -1.189,1.45978 -5.08,5.71413 -8.646,9.4541 -3.566,3.73997 -7.43,7.81281 -8.586,9.05076 -1.156,1.23795 -2.252,2.25082 -2.436,2.25082 -0.579,0 -10.008,10.52872 -11.167,12.46911 -0.608,1.01866 -2.402,3.46124 -3.987,5.42795 -1.585,1.96671 -4.228,5.28899 -5.872,7.38284 -1.645,2.09385 -3.806,4.70024 -4.803,5.79199 -6.022,6.59362 -10.266,12.2726 -12.528,16.76524 -0.665,1.32213 -2.378,4.35102 -3.805,6.73085 -3.356,5.59795 -3.334,5.55561 -4.548,8.78483 -1.46,3.88569 -1.411,8.01149 0.126,10.47717 0.644,1.03319 1.389,2.30494 1.655,2.8261 0.915,1.7919 4.003,1.873 8.641,0.22699 z m 17.648,-27.4859 c -0.797,-0.99813 0.05,-5.24384 1.464,-7.32075 0.716,-1.05298 1.301,-2.09869 1.301,-2.3238 0,-0.2251 1.567,-2.21462 3.482,-4.42114 3.994,-4.60054 6.366,-7.68479 9.382,-12.19804 1.169,-1.7497 3.03,-4.26301 4.134,-5.58515 1.105,-1.32213 2.373,-2.94474 2.819,-3.60581 3.219,-4.77354 5.982,-8.24591 9.282,-11.66608 2.102,-2.17751 5.097,-5.56311 6.657,-7.52354 1.559,-1.96044 3.824,-4.55829 5.033,-5.77301 7.921,-7.95875 12.526,-13.03187 12.53,-13.80568 0,-1.3555 2.523,-4.26427 10.656,-12.31876 9.647,-9.55299 13.342,-12.87764 17.437,-15.68936 1.32,-0.90698 2.509,-1.80776 2.641,-2.00173 0.132,-0.19397 2.078,-1.47708 4.323,-2.85136 2.245,-1.37428 4.407,-2.77928 4.803,-3.12221 1.304,-1.12892 10.004,-4.0954 12.011,-4.0954 3.773,0 5.777,2.07802 5.75,5.96124 -0.01,1.74781 -1.638,5.57736 -2.368,5.57736 -0.615,0 -0.671,-1.28213 -0.07,-1.65285 0.238,-0.14701 0.687,-1.32853 0.998,-2.6256 0.472,-1.97176 0.444,-2.59291 -0.174,-3.78943 -0.407,-0.7871 -1.09,-1.56549 -1.517,-1.72975 -1.359,-0.52182 -5.062,-0.32228 -6.63,0.35722 -0.833,0.36073 -2.486,1.05429 -3.675,1.54124 -2.064,0.84555 -13.569,8.11454 -14.95,9.44612 -0.363,0.34994 -1.741,1.42651 -3.062,2.39237 -1.32,0.96586 -3.255,2.63813 -4.3,3.71615 -1.044,1.07802 -2.125,1.98205 -2.401,2.00896 -0.562,0.0546 -4.908,4.75883 -4.397,4.75883 0.178,0 2.154,-1.72514 4.39,-3.83364 2.236,-2.10851 4.731,-4.17804 5.544,-4.59898 0.814,-0.42093 2.431,-1.49237 3.594,-2.38098 1.163,-0.88861 2.605,-1.77139 3.204,-1.96173 0.6,-0.19034 1.897,-0.85534 2.882,-1.47777 0.986,-0.62244 2.066,-1.13575 2.402,-1.1407 0.335,-0.005 2.123,-0.77997 3.972,-1.72229 4.081,-2.07969 9.474,-2.78465 11.44,-1.49541 1.392,0.91346 1.946,3.61268 1.275,6.21857 -0.257,0.99873 -0.679,2.62718 -0.938,3.61878 -0.438,1.67708 -4.29,8.66742 -5.739,10.41526 -0.352,0.4249 -1.126,1.68093 -1.719,2.79118 -1.022,1.913 -2.158,2.92162 -2.158,1.91657 0,-0.88711 1.391,-3.78584 2.099,-4.37396 0.393,-0.32605 1.257,-1.63251 1.921,-2.90325 0.663,-1.27073 1.76,-3.12633 2.436,-4.12355 0.676,-0.99722 1.23,-2.05338 1.232,-2.34701 0,-0.29363 0.342,-1.18293 0.755,-1.97621 0.414,-0.79327 0.791,-2.60896 0.838,-4.03486 0.08,-2.43467 0.01,-2.60091 -1.116,-2.73021 -0.66,-0.0757 -1.796,-0.28668 -2.524,-0.4688 -0.727,-0.18212 -2.297,-0.0857 -3.487,0.21434 -2.792,0.70389 -12.131,6.52635 -15.846,9.87973 -1.588,1.4327 -3.857,3.29911 -5.044,4.14759 -3.542,2.53312 -16.936,15.4883 -18.314,17.71401 -0.431,0.69701 -0.949,1.02247 -1.29,0.81143 -0.689,-0.4265 1.569,-3.89109 4.234,-6.49644 5.627,-5.50058 14.147,-13.32369 15.546,-14.27586 0.895,-0.60854 2.262,-1.71236 3.037,-2.45291 1.532,-1.46341 2.626,-2.35536 4.463,-3.64066 0.828,-0.5793 0.957,-0.83084 0.426,-0.83084 -0.419,0 -2.25,1.1016 -4.069,2.44801 -1.82,1.34641 -3.74,2.67331 -4.269,2.94866 -0.528,0.27535 -2.467,1.93218 -4.308,3.68186 -1.842,1.74968 -5.084,4.82404 -7.205,6.83193 -5.935,5.61816 -9.56,9.25597 -16.251,16.30882 -3.383,3.56572 -7.2,7.56486 -8.482,8.88699 -1.282,1.32214 -3.408,3.75456 -4.724,5.40539 -1.317,1.65083 -4.279,5.00424 -6.583,7.45202 -2.304,2.44777 -4.759,5.31384 -5.455,6.36903 -0.696,1.0552 -3.326,4.62495 -5.844,7.93279 -2.518,3.30785 -5.314,7.09601 -6.214,8.41814 -0.9,1.32213 -2.784,3.76837 -4.187,5.43608 -1.404,1.66771 -2.552,3.22433 -2.552,3.45915 0,0.23482 -0.995,1.35834 -2.211,2.49671 -1.216,1.13837 -2.613,2.82698 -3.103,3.75248 -1.895,3.57481 -2.42,4.94289 -2.278,5.93866 0.13,0.91021 0.403,1.01354 2.309,0.87196 1.188,-0.0883 2.789,-0.46695 3.556,-0.84136 1.723,-0.8414 2.828,-0.87553 2.581,-0.0798 -0.509,1.64388 -8.354,3.45058 -9.383,2.16101 z m 61.362,-78.82734 c 0,-0.67681 -0.896,0.0428 -1.508,1.2114 -0.549,1.04765 -0.546,1.04861 0.478,0.1391 0.567,-0.50373 1.03,-1.11145 1.03,-1.3505 z m 5.284,-4.74527 c 0,-0.68743 -0.162,-0.57147 -2.184,1.56855 l -1.899,2.00893 2.041,-1.56855 c 1.123,-0.8627 2.042,-1.76672 2.042,-2.00893 z m -44.669,76.29856 c 0,-0.36622 0.589,-1.0522 1.309,-1.52439 0.72,-0.47218 2.322,-1.80635 3.559,-2.96481 2.834,-2.65334 3.75,-1.86409 1.071,0.9224 -1.657,1.72324 -5.03,4.23267 -5.689,4.23267 -0.137,0 -0.25,-0.29964 -0.25,-0.66587 z m 18.347,-11.87799 c 0.122,-0.36755 1.012,-0.89013 1.978,-1.1613 0.965,-0.27116 2.461,-1.1581 3.323,-1.97097 2.221,-2.09263 7.48,-6.43953 7.791,-6.43953 1.151,0 -0.927,2.32622 -6.165,6.8996 -2.471,2.15811 -3.679,2.8744 -5.186,3.07673 -1.541,0.20699 -1.916,0.11996 -1.741,-0.40453 z m 13.834,-10.96712 c 0,-0.53567 11.57,-11.95216 13.193,-13.01775 0.647,-0.4249 1.833,-1.68096 2.637,-2.79124 0.803,-1.11028 1.893,-2.28888 2.421,-2.61912 0.529,-0.33023 0.961,-0.80079 0.961,-1.04568 0,-0.5059 1.948,-2.68103 4.078,-4.55193 0.79,-0.69409 2.934,-2.72233 4.766,-4.50721 1.831,-1.78488 3.508,-3.24523 3.727,-3.24523 0.218,0 0.397,-0.23181 0.397,-0.51512 0,-0.67859 1.227,-1.88876 1.915,-1.88876 0.299,0 0.419,-0.2014 0.267,-0.44755 -0.152,-0.24616 -0.07,-0.57421 0.178,-0.72901 0.251,-0.1548 0.568,-0.0993 0.705,0.12343 0.138,0.22268 -0.497,1.11032 -1.41,1.97252 -0.913,0.86221 -1.558,1.73358 -1.433,1.93638 0.2,0.3235 -6.077,6.65764 -8.643,8.72199 -1.126,0.90618 -4.547,4.85337 -4.547,5.24685 0,0.15179 -0.649,0.65938 -1.441,1.12798 -0.793,0.4686 -1.441,1.14605 -1.441,1.50544 0,0.35939 -0.915,1.48299 -2.033,2.49689 -1.118,1.0139 -4.533,4.27738 -7.589,7.25217 -5.085,4.94976 -6.708,6.15376 -6.708,4.97495 z m -36.503,-12.54716 c 0,-0.26442 0.216,-0.48077 0.48,-0.48077 0.264,0 0.48,0.21635 0.48,0.48077 0,0.26443 -0.216,0.48078 -0.48,0.48078 -0.264,0 -0.48,-0.21635 -0.48,-0.48078 z m 19.472,-6.21685 c -0.328,-0.53137 0.43,-1.10514 0.874,-0.66119 0.456,0.45712 0.371,1.10874 -0.145,1.10874 -0.249,0 -0.577,-0.2014 -0.729,-0.44755 z m 52.79,-19.78332 c -0.186,-0.30112 0.726,-1.62287 2.079,-3.01349 1.326,-1.36241 2.991,-3.64136 3.7,-5.06432 1.388,-2.78589 2.943,-4.73169 3.409,-4.26535 0.429,0.43005 -1.763,4.55842 -4.168,7.84954 -2.533,3.46583 -4.544,5.26549 -5.02,4.49362 z m -88.682,89.21441 c 1.502,-0.66529 3.271,-1.53947 3.932,-1.9426 0.66,-0.40313 2.251,-1.31915 3.534,-2.0356 1.283,-0.71644 3.445,-2.24315 4.803,-3.39268 1.358,-1.14954 3.55,-2.71258 4.871,-3.47343 1.321,-0.76086 3.266,-2.16588 4.323,-3.12228 1.057,-0.9564 3.123,-2.65942 4.591,-3.78449 3.767,-2.8862 4.702,-3.65843 6.655,-5.49834 l 1.722,-1.62224 -1.681,1.28077 c -1.359,1.03532 -7.397,5.46997 -13.208,9.70142 -0.529,0.38467 -3.555,2.34552 -6.725,4.35743 -3.17,2.01192 -6.196,4.03266 -6.724,4.49054 -0.528,0.45787 -2.041,1.44814 -3.362,2.2006 -2.76,1.57256 -6.312,4.05054 -5.805,4.05054 0.189,0 1.572,-0.54434 3.074,-1.20964 z m 27.141,-13.97997 c 1.236,-0.4215 2.247,-1.04322 2.247,-1.3816 0,-0.33838 1.355,-1.26296 3.01,-2.05462 1.656,-0.79166 3.303,-1.79256 3.661,-2.22422 0.358,-0.43166 0.866,-0.78484 1.13,-0.78484 0.905,0 6.374,-3.57158 10.276,-6.71118 2.149,-1.72959 5.175,-4.05999 6.724,-5.17868 3.232,-2.33433 15.358,-14.1508 19.627,-19.12671 1.585,-1.84737 3.206,-3.55136 3.602,-3.78665 1.216,-0.72184 8.444,-8.38705 8.999,-9.54256 2.426,-5.05294 4.45,-9.50351 4.45,-9.78755 0,-0.18881 -0.433,0.0483 -0.961,0.5269 -0.528,0.47861 -0.961,1.12765 -0.961,1.44233 0,0.31467 -0.432,0.96396 -0.961,1.44285 -0.94,0.8515 -3.361,5.48115 -3.361,6.42673 0,0.26241 -0.479,0.54624 -1.065,0.63074 -0.73,0.10529 -1.205,0.64532 -1.51,1.71615 -0.557,1.9504 -2.015,2.21271 -1.529,0.275 0.689,-2.74992 2.41,-5.68475 3.291,-5.61234 0.612,0.0503 1.192,-0.65915 1.965,-2.40387 1.314,-2.96276 3.382,-5.52178 4.942,-6.11547 1.197,-0.45544 2.291,-2.48296 1.501,-2.7806 -0.487,-0.18328 -6.635,5.67708 -6.635,6.32421 0,0.79395 -2.389,3.8606 -6.536,8.3894 -6.261,6.83681 -15.102,16.01035 -16.758,17.38732 -0.793,0.65892 -2.846,2.55396 -4.563,4.2112 -1.717,1.65725 -4.419,3.95964 -6.004,5.11644 -1.585,1.15679 -3.774,3.07673 -4.864,4.26653 -1.091,1.18979 -2.712,2.66294 -3.602,3.27365 -0.891,0.61072 -2.593,2.0299 -3.782,3.15374 -1.189,1.12384 -3.566,3.1408 -5.283,4.48214 -1.717,1.34134 -3.338,2.61593 -3.602,2.83242 -0.265,0.21649 -1.994,1.55885 -3.843,2.98302 -1.849,1.42416 -3.567,2.76648 -3.818,2.98293 -0.775,0.6682 1.839,0.43691 4.213,-0.37281 z m 10.935,-13.48636 c 0.59,-0.72803 0.585,-0.78143 -0.04,-0.41386 -1.655,0.96992 -3.362,2.37594 -3.362,2.77034 0,0.5121 2.459,-1.18942 3.405,-2.35648 z m 26.834,-23.92936 c 1.178,-1.21167 1.919,-2.20304 1.648,-2.20304 -0.754,0 -4.25,3.13686 -6.037,5.41767 l -1.595,2.03434 1.922,-1.52296 c 1.056,-0.83763 2.884,-2.51433 4.062,-3.72601 z m 13.949,-14.82486 c 5.153,-5.357 5.197,-5.42424 1.514,-2.2936 -1.677,1.42542 -3.73,3.44449 -4.563,4.48682 -0.832,1.04232 -2.324,2.8117 -3.315,3.93195 -0.991,1.12025 -1.801,2.21835 -1.801,2.44023 0,0.22188 0.918,-0.65953 2.041,-1.95869 1.123,-1.29916 3.879,-4.27218 6.124,-6.60671 z m 11.403,-1.92163 c 0.261,-0.33054 0.467,-0.97615 0.459,-1.4347 -0.02,-1.07298 -1.084,-0.2656 -1.439,1.08987 -0.278,1.06459 0.263,1.25485 0.98,0.34483 z m 1.551,-4.44717 c 0,-0.26443 -0.21,-0.15625 -0.466,0.24038 -0.256,0.39664 -0.466,0.93752 -0.466,1.20194 0,0.26443 0.21,0.15625 0.466,-0.24038 0.256,-0.39664 0.466,-0.93752 0.466,-1.20194 z m 3.697,-1.60412 c 1.402,-1.60576 1.641,-2.48247 0.675,-2.48247 -0.543,0 -2.715,3.37336 -3.098,4.81406 -0.288,1.08259 -0.261,1.11123 0.292,0.30288 0.335,-0.49101 1.294,-1.67653 2.131,-2.63447 z m -1.996,-1.82113 c 1.351,-3.05815 1.353,-3.06522 0.762,-3.06522 -0.411,0 -1.076,1.49677 -1.978,4.44717 -0.67,2.19235 -0.05,1.49239 1.216,-1.38195 z m 3.837,-3.54599 c 1.277,-1.33427 1.306,-1.44233 0.386,-1.44233 -0.547,0 -1.128,0.37861 -1.291,0.84136 -0.163,0.46274 -0.423,1.11179 -0.577,1.44232 -0.447,0.96019 0,0.70614 1.482,-0.84135 z m 5.523,-3.00239 c 0,-0.26819 -0.318,-0.21613 -0.72,0.11774 -0.396,0.32918 -0.721,0.81486 -0.721,1.07928 0,0.26819 0.319,0.21613 0.721,-0.11773 0.396,-0.32919 0.72,-0.81486 0.72,-1.07929 z m -4.026,-1.35838 c 1.997,-0.0239 2.544,-0.15272 1.865,-0.43946 -0.528,-0.22311 -1.771,-0.28843 -2.762,-0.14515 -0.991,0.14329 -1.794,0.0706 -1.786,-0.16151 0.03,-0.73685 1.35,-2.21845 2.488,-2.78657 0.605,-0.30168 1.099,-0.81255 1.099,-1.13528 0,-0.32272 0.216,-0.59593 0.481,-0.60712 0.264,-0.0112 0.867,-0.77568 1.34,-1.69887 0.473,-0.92318 1.068,-1.5503 1.321,-1.3936 0.253,0.15671 0.461,-0.15499 0.461,-0.69266 0,-0.60236 0.559,-1.26709 1.457,-1.73186 0.801,-0.41486 1.397,-1.01538 1.324,-1.33448 -0.175,-0.76579 2.071,-4.47549 3.991,-6.58988 0.84,-0.92549 2.308,-2.8478 3.261,-4.27178 2.458,-3.67102 3.402,-4.94743 5.524,-7.47176 1.028,-1.22285 1.721,-2.37205 1.539,-2.55378 -0.402,-0.40251 -4.609,4.15971 -4.609,4.99834 0,0.32849 -0.292,0.77026 -0.65,0.98172 -0.358,0.21146 -3.057,3.6297 -5.999,7.5961 -2.941,3.96639 -6.555,8.61789 -8.03,10.33666 -2.765,3.22287 -8.375,10.53747 -8.375,10.92016 0,0.11885 0.728,-0.23425 1.618,-0.78467 1.132,-0.70079 2.464,-1.01089 4.442,-1.03455 z m 5.707,-0.92776 c 0.164,-0.26443 0.08,-0.48078 -0.183,-0.48078 -0.264,0 -0.614,0.21635 -0.777,0.48078 -0.164,0.26443 -0.08,0.48078 0.183,0.48078 0.264,0 0.614,-0.21635 0.777,-0.48078 z m 4.548,-9.97609 c 0,-0.33053 -0.178,-0.60096 -0.414,-0.60096 -0.495,0 -1.012,1.17082 -1.012,2.2947 0,0.63869 0.123,0.61085 0.705,-0.15952 0.388,-0.51329 0.712,-1.20368 0.721,-1.53422 z m -90.501,-19.31798 c -0.152,-0.24615 -0.06,-0.58344 0.211,-0.74953 0.269,-0.16609 0.488,0.0353 0.488,0.44755 0,0.8445 -0.288,0.96884 -0.699,0.30198 z m 87.394,-43.30298 c 0.163,-0.26443 0.392,-0.48078 0.509,-0.48078 0.116,0 0.212,0.21635 0.212,0.48078 0,0.26442 -0.229,0.48077 -0.509,0.48077 -0.28,0 -0.375,-0.21635 -0.212,-0.48077 z"
         id="path2" /></g></g></svg>
