<?xml version="1.0" encoding="UTF-8" standalone="no"?>
<!-- Created with Inkscape (http://www.inkscape.org/) -->

<svg
   width="231.38646"
   height="235.24007"
   viewBox="0 0 61.221 62.240601"
   version="1.1"
   id="svg1"
   xml:space="preserve"
   xmlns="http://www.w3.org/2000/svg"
   xmlns:svg="http://www.w3.org/2000/svg"><defs
     id="defs1" /><g
     id="g1347"
     transform="matrix(0.26458333,0,0,0.26458333,-3455.8339,-77.861575)"><path
       style="fill:#000000"
       d="m 13160.366,516.9007 c -0.461,-1.27414 -0.799,-1.57826 -1.539,-1.38497 -0.655,0.17106 -0.948,0.007 -0.948,-0.52885 0,-0.42708 0.309,-0.77651 0.687,-0.77651 0.764,0 0.878,0.46787 -1.815,-7.44512 -0.899,-2.64182 -2.227,-6.64057 -2.952,-8.88611 -0.725,-2.24555 -1.489,-4.29896 -1.698,-4.56314 -0.209,-0.26418 -1.28,-3.18219 -2.379,-6.48446 -1.099,-3.30227 -2.878,-7.94947 -3.955,-10.3271 -2.76,-6.09693 -2.677,-5.89399 -3.961,-9.60661 -2.152,-6.22328 -3.092,-8.66859 -4.529,-11.78678 -1.712,-3.71285 -2.947,-7.88938 -4.568,-15.44912 -0.729,-3.39616 -1.982,-7.34143 -3.165,-9.96752 -1.078,-2.39056 -1.96,-4.54246 -1.96,-4.78199 0,-0.23954 -0.868,-3.45744 -1.929,-7.15089 -1.06,-3.69345 -1.804,-7.03962 -1.652,-7.43593 0.177,-0.46087 -0.99,-2.09318 -3.24,-4.52915 -1.934,-2.09472 -4.813,-5.38949 -6.398,-7.32172 -1.584,-1.93222 -4.405,-4.75743 -6.268,-6.27824 -1.863,-1.5208 -3.704,-3.14942 -4.092,-3.61913 -0.387,-0.46972 -1.475,-1.41359 -2.417,-2.09748 -0.942,-0.6839 -2.729,-2.43109 -3.97,-3.88265 -1.242,-1.45155 -3.365,-3.74041 -4.719,-5.08635 -2.146,-2.13294 -2.347,-2.49106 -1.57,-2.78912 0.925,-0.35451 1.247,-0.0534 5.451,5.09075 1.014,1.24087 3.153,3.40236 4.752,4.80331 1.6,1.40094 4.984,4.35487 7.522,6.56428 2.537,2.2094 5.628,5.34356 6.87,6.96479 1.241,1.62122 3.698,4.47697 5.46,6.3461 1.762,1.86914 3.536,4.03062 3.942,4.80331 0.405,0.77268 2.078,2.5894 3.715,4.03714 1.638,1.44775 3.595,3.71207 4.35,5.03182 0.755,1.31976 2.841,3.91784 4.637,5.77352 8.091,8.35957 17.316,18.90589 22.925,26.20773 2.775,3.61307 4.042,5.09497 13.485,15.76697 7.04,7.95685 7.117,8.03213 9.878,9.67246 1.111,0.66045 3.353,2.25261 4.982,3.53813 1.629,1.28552 5.289,3.48577 8.133,4.88944 5.143,2.53791 5.197,2.55226 9.809,2.57723 2.551,0.0138 4.735,0.12278 4.855,0.24216 0.76,0.75937 -0.975,1.17703 -4.979,1.19871 -4.427,0.024 -4.751,-0.0484 -8.44,-1.8874 -2.11,-1.05178 -3.959,-1.91232 -4.109,-1.91232 -0.487,0 1.971,1.7622 3.944,2.82829 1.058,0.57146 2.681,1.49158 3.607,2.0447 6.729,4.02121 10.976,5.44734 17.247,5.79243 l 2.58,0.14201 0.07,-3.70674 c 0.05,-2.80486 0.267,-3.90814 0.894,-4.53454 1.112,-1.11126 1.449,-0.64159 0.824,1.14986 -0.283,0.80858 -0.446,2.41071 -0.363,3.56029 0.131,1.82677 0.302,2.10665 1.352,2.22119 1.114,0.12144 1.886,-0.43107 4.681,-3.35315 2.725,-2.84764 3.493,-3.45193 3.493,-2.74839 0,0.41477 -1.46,2.27552 -3.245,4.13501 -4.014,4.18143 -5.398,4.68939 -11.702,4.29701 -6.471,-0.40277 -6.772,-0.45765 -8.624,-1.57368 -0.92,-0.55442 -1.89,-1.08907 -2.156,-1.18811 -0.265,-0.099 -3.186,-1.6457 -6.491,-3.43703 -5.758,-3.12066 -10.113,-6.55092 -12.078,-9.51324 -0.428,-0.64588 -2.014,-1.81941 -3.524,-2.60785 -2.784,-1.45366 -6.629,-5.16063 -14.448,-13.93241 -2.115,-2.37196 -3.98,-4.42074 -4.146,-4.55283 -0.165,-0.13209 -2.175,-2.6178 -4.467,-5.5238 -4.344,-5.51016 -6.129,-7.69776 -8.193,-10.04157 -0.676,-0.76759 -1.231,-1.52411 -1.233,-1.68115 0,-0.15705 -1.313,-1.67371 -2.913,-3.37037 -1.601,-1.69666 -4.358,-4.71478 -6.127,-6.70695 -1.77,-1.99216 -4.534,-5.03503 -6.142,-6.76194 -1.608,-1.7269 -3.44,-4.00442 -4.072,-5.06114 -1.44,-2.4097 -1.853,-2.93518 -3.328,-4.2362 -0.653,-0.57609 -1.768,-1.64185 -2.477,-2.36835 -0.709,-0.7265 -1.419,-1.3209 -1.577,-1.3209 -0.966,0 1.161,7.3354 4.71,16.2465 1.095,2.74921 1.638,4.78815 3.991,14.97497 0.97,4.20025 1.649,6.15089 4.013,11.52793 1.103,2.50972 2.961,7.28503 4.13,10.6118 1.168,3.32676 2.877,7.51617 3.796,9.3098 0.92,1.79363 1.672,3.57079 1.672,3.94923 0,0.37845 0.403,1.70083 0.896,2.93862 0.493,1.23779 1.376,3.54742 1.963,5.13251 1.443,3.89875 2.54,6.48446 2.752,6.48446 0.1,0 1.307,-0.6279 2.691,-1.39533 2.345,-1.29974 5.643,-2.35252 5.643,-1.80126 0,0.13312 -1.37,0.9375 -3.045,1.78751 -5.31,2.694 -5.049,2.05571 -3.272,8.00745 1.423,4.76268 2.032,6.49851 3.669,10.45336 0.538,1.29994 1.807,4.90297 2.495,7.08487 0.509,1.61271 -1.088,0.86307 -1.687,-0.79206 z m 18.911,0.20821 c 1.587,-0.738 4.941,-2.03272 7.453,-2.87715 5.609,-1.885 11.07,-4.15563 18.118,-7.53286 2.956,-1.41651 5.515,-2.57547 5.688,-2.57547 0.173,0 2.552,-1.08074 5.286,-2.40165 2.735,-1.32091 5.41,-2.40165 5.944,-2.40165 0.535,0 1.108,-0.21968 1.274,-0.48817 0.166,-0.26849 0.504,-0.36381 0.75,-0.21182 0.246,0.15199 0.447,0.0516 0.447,-0.22318 0,-0.27473 0.595,-0.63743 1.323,-0.80598 0.727,-0.16856 1.755,-0.56539 2.284,-0.88186 0.529,-0.31648 2.26,-1.07786 3.847,-1.69196 1.587,-0.61411 4.537,-1.93955 6.556,-2.94543 2.019,-1.00588 3.786,-1.71381 3.927,-1.57318 0.141,0.14063 0.707,-0.19462 1.258,-0.745 1.093,-1.09248 3.132,-1.38335 2.806,-0.40028 -0.11,0.33023 -0.831,0.81376 -1.603,1.07451 -0.772,0.26075 -1.512,0.59665 -1.644,0.74645 -0.481,0.54432 -4.541,2.4642 -10.251,4.84735 -3.21,1.33986 -6.707,2.83223 -7.771,3.31637 -1.064,0.48415 -2.771,1.10013 -3.794,1.36885 -1.023,0.26872 -2.213,0.78854 -2.645,1.15516 -0.431,0.36661 -2.884,1.57406 -5.451,2.68321 -2.567,1.10915 -7.167,3.19869 -10.222,4.64341 -6.619,3.13094 -23.532,9.36196 -25.251,9.30345 -0.939,-0.032 -0.561,-0.34509 1.671,-1.38312 z m -15.412,-1.49671 c -0.498,-0.8058 2.026,-2.93333 3.269,-2.75442 0.946,0.13626 0.85,0.31243 -0.94,1.72486 -1.327,1.04768 -2.105,1.39155 -2.329,1.02956 z m 9.648,-1.22033 c -0.4,-0.9569 -0.728,-1.91155 -0.728,-2.12146 0,-0.2099 -0.245,-0.46316 -0.544,-0.56281 -0.299,-0.0996 -0.6,-0.89766 -0.669,-1.77338 -0.07,-0.87571 -0.577,-2.20159 -1.128,-2.94639 -1.325,-1.79022 -1.924,-5.26605 -0.907,-5.26605 0.465,0 0.826,0.6574 1.017,1.8508 0.163,1.01794 0.824,2.80117 1.468,3.96273 0.99,1.786 3.168,7.51934 3.168,8.34106 0,0.14043 -0.214,0.25532 -0.475,0.25532 -0.261,0 -0.802,-0.78292 -1.202,-1.73982 z m -3.613,-2.58315 c 0,-0.26419 0.216,-0.48034 0.481,-0.48034 0.264,0 0.481,0.21615 0.481,0.48034 0,0.26418 -0.217,0.48033 -0.481,0.48033 -0.265,0 -0.481,-0.21615 -0.481,-0.48033 z m 6.018,-2.38944 c -0.388,-0.62806 0.719,-1.16061 1.269,-0.61054 0.308,0.30747 0.215,0.56892 -0.267,0.75373 -0.406,0.15563 -0.857,0.0912 -1.002,-0.14319 z m 3.118,-1.93354 c 0,-0.26418 0.217,-0.48033 0.481,-0.48033 0.265,0 0.481,0.21615 0.481,0.48033 0,0.26418 -0.216,0.48033 -0.481,0.48033 -0.264,0 -0.481,-0.21615 -0.481,-0.48033 z m -20.677,-4.54462 c 0,-0.42038 0.82,-0.92002 2.044,-1.24551 1.124,-0.29894 2.368,-0.82346 2.765,-1.16559 1.627,-1.40334 5.777,-3.19313 7.063,-3.04591 1.335,0.15295 1.328,0.16573 -0.571,1.03793 -3.637,1.66944 -7.214,3.44027 -7.454,3.68985 -0.359,0.37399 -2.863,1.43121 -3.388,1.43121 -0.252,0 -0.459,-0.31589 -0.459,-0.70198 z m 14.186,-6.50298 c 0.163,-0.26418 0.609,-0.48033 0.99,-0.48033 0.381,0 0.693,0.21615 0.693,0.48033 0,0.26419 -0.446,0.48033 -0.99,0.48033 -0.545,0 -0.857,-0.21614 -0.693,-0.48033 z m 2.435,-0.91032 c -0.146,-0.2365 0.09,-0.56582 0.522,-0.73181 0.936,-0.35884 1.35,-0.0629 0.909,0.64952 -0.386,0.62461 -1.071,0.66398 -1.431,0.0823 z m 42.766,-1.49133 c 0.163,-0.26418 0.392,-0.48033 0.509,-0.48033 0.117,0 0.212,0.21615 0.212,0.48033 0,0.26418 -0.229,0.48033 -0.509,0.48033 -0.28,0 -0.376,-0.21615 -0.212,-0.48033 z m -54.097,-5.00344 c 0,-0.41829 0.342,-0.76052 0.761,-0.76052 0.419,0 0.676,0.25668 0.571,0.57039 -0.297,0.89064 -1.332,1.03836 -1.332,0.19013 z m 83.189,-0.42756 c 0,-0.55523 3.028,-2.15815 8.175,-4.32702 0.925,-0.3901 2.84,-1.20009 4.256,-1.79998 1.415,-0.59988 2.876,-1.0907 3.246,-1.0907 0.369,0 0.672,-0.14575 0.672,-0.3239 0,-0.59805 6.659,-3.00901 7.462,-2.70146 1.477,0.56608 0.411,1.50176 -2.336,2.0508 -1.503,0.30056 -3.001,0.75067 -3.328,1.00024 -0.328,0.24957 -1.353,0.74463 -2.279,1.10014 -0.925,0.35551 -2.965,1.25633 -4.533,2.00183 -1.567,0.74549 -3.034,1.35544 -3.259,1.35544 -0.225,0 -1.941,0.75652 -3.814,1.68115 -3.753,1.8525 -4.262,1.97836 -4.262,1.05346 z m -84.211,0.003 c -0.1,-0.53464 -0.242,-1.00423 -0.555,-1.77722 -0.16,-0.39627 -0.76,-2.44969 -1.333,-4.56314 -0.573,-2.11345 -1.108,-3.91419 -1.189,-4.00164 -0.08,-0.0874 -0.602,0.0847 -1.159,0.38246 -1.63,0.87128 -2.216,0.0146 -0.678,-0.99136 0.752,-0.49224 1.497,-1.38542 1.655,-1.98486 l 0.287,-1.08989 0.495,1.20083 c 0.273,0.66045 0.742,2.17349 1.044,3.36231 0.302,1.18882 0.958,3.67453 1.458,5.5238 0.548,2.02797 0.735,3.5434 0.472,3.81863 -0.24,0.25097 -0.464,0.30501 -0.497,0.12008 z m 51.252,-0.84852 c -0.338,-0.54612 1.078,-1.84859 2.037,-1.87409 0.316,-0.008 2.084,-0.77179 3.928,-1.69643 1.845,-0.92464 3.779,-1.68116 4.298,-1.68116 0.951,0 1.554,1.16753 1.179,2.28157 -0.28,0.83275 -1.564,0.75637 -1.564,-0.0931 0,-0.56115 -0.436,-0.5023 -2.285,0.30838 -1.256,0.55102 -2.401,1.18095 -2.544,1.39984 -0.209,0.32053 -4.003,1.86725 -4.58,1.86725 -0.08,0 -0.295,-0.23053 -0.469,-0.51229 z m -45.23,-1.16876 c 0.501,-0.37941 1.1,-0.57374 1.33,-0.43186 0.694,0.42828 -0.06,1.15328 -1.189,1.13697 -1.019,-0.0148 -1.024,-0.0379 -0.141,-0.70511 z m 65.409,-0.36366 c 0.07,-0.60817 0.86,-2.11319 1.763,-3.3445 0.902,-1.23131 2.722,-3.9986 4.044,-6.14954 1.323,-2.15094 2.675,-4.20181 3.006,-4.5575 0.33,-0.35568 0.601,-0.7864 0.601,-0.95714 0,-0.90563 4.956,-7.75634 8.327,-11.51032 4.245,-4.72733 7.525,-7.85866 11.937,-11.39582 1.589,-1.27427 3.793,-3.25158 4.897,-4.39402 1.104,-1.14243 3.035,-2.67437 4.292,-3.40429 1.256,-0.72993 2.284,-1.38068 2.284,-1.44611 0,-0.19646 -2.404,-4.4317 -5.065,-8.92456 -1.025,-1.73033 -7.326,-9.0075 -10.819,-12.49568 -1.993,-1.98996 -4.261,-4.47566 -5.04,-5.5238 -0.779,-1.04813 -3.044,-3.84901 -5.033,-6.22418 -4.079,-4.87089 -3.618,-4.33543 -7.413,-8.62064 -1.56,-1.76087 -3.486,-4.09916 -4.282,-5.1962 -0.795,-1.09705 -2.467,-2.97718 -3.715,-4.17807 -1.248,-1.2009 -3.111,-3.37227 -4.141,-4.82527 -3.912,-5.52116 -5.564,-7.68531 -5.869,-7.68621 -0.174,-5.1e-4 -1.062,-1.0945 -1.974,-2.4311 -0.912,-1.33659 -1.887,-2.57903 -2.167,-2.76097 -0.528,-0.34355 -4.234,-5.06319 -5.63,-7.17029 -0.439,-0.66349 -1.954,-2.44701 -3.366,-3.96336 -1.411,-1.51635 -3.865,-4.35 -5.452,-6.29699 -2.751,-3.37548 -8.369,-9.70821 -12.742,-14.3618 -1.117,-1.18881 -2.599,-2.918 -3.294,-3.84264 -0.695,-0.92464 -2.023,-2.509 -2.952,-3.52081 -3.11,-3.38813 -4.075,-4.51637 -7.412,-8.6653 -1.825,-2.26975 -3.719,-4.25357 -4.208,-4.4085 -1.016,-0.32241 -1.152,-0.95809 -0.314,-1.47556 0.361,-0.22244 1.669,0.85079 3.509,2.87892 2.76,3.04183 3.012,3.20406 4.244,2.73609 1.241,-0.47131 6.01,-0.92066 20.284,-1.91116 6.528,-0.45299 7.454,-0.27356 7.454,1.44525 0,1.25578 1.931,6.19902 4.298,10.99975 2.052,4.16227 7.27,16.04783 8.503,19.36631 0.374,1.00884 1.724,4.14299 2.999,6.96479 1.275,2.82179 2.943,6.64358 3.707,8.49285 0.765,1.84927 1.557,3.43436 1.761,3.52242 0.204,0.0881 0.37,0.45975 0.37,0.82597 0,0.36622 0.412,1.39727 0.914,2.29122 0.503,0.89395 1.468,3.15941 2.145,5.03436 0.677,1.87495 1.462,3.79794 1.744,4.2733 0.283,0.47536 1.003,2.53996 1.601,4.58801 0.924,3.1659 1.516,4.20143 3.953,6.91279 1.577,1.75399 3.695,4.29322 4.707,5.64272 1.012,1.34951 2.865,3.5344 4.118,4.85531 1.253,1.3209 2.9,3.26624 3.659,4.32297 0.759,1.05673 3.251,3.86666 5.538,6.24429 4.286,4.45534 9.016,9.98323 10.954,12.80324 1.173,1.70566 3.876,5.83301 4.647,7.09533 0.254,0.4156 0.851,1.34383 1.326,2.06274 0.86,1.29894 0.857,1.31221 -0.461,2.12506 -4.207,2.59383 -6.415,4.27289 -8.748,6.65256 l -2.613,2.66456 0.636,2.51147 c 1.081,4.27096 1.356,4.77208 2.426,4.43267 0.682,-0.21625 0.961,-0.0861 0.961,0.44808 0,0.42259 -0.405,0.75287 -0.924,0.75287 -0.91,0 -0.91,0.0544 0.02,3.48239 2.43,8.93293 4.509,15.54502 5.062,16.10497 0.73,0.7389 0.336,2.0275 -0.621,2.0275 -0.752,0 -0.754,-0.006 -1.861,-3.93739 -0.566,-2.00999 -0.955,-2.66589 -1.465,-2.47035 -0.818,0.31347 -0.921,-0.37871 -0.169,-1.13023 0.381,-0.37998 -0.141,-2.89618 -1.888,-9.10226 -1.328,-4.71741 -2.556,-9.27959 -2.728,-10.13818 -0.172,-0.85859 -0.613,-1.56108 -0.979,-1.56108 -0.972,0 -6.443,5.26094 -11.342,10.90568 -2.346,2.70279 -4.265,4.99925 -4.265,5.10325 0,0.104 0.541,0.0858 1.202,-0.0405 1.842,-0.35174 1.428,0.55842 -0.675,1.48539 -1.454,0.64081 -2.34,1.59331 -3.934,4.2278 -1.131,1.87035 -2.288,3.65242 -2.571,3.96015 -1.013,1.10231 -3.64,5.13646 -3.64,5.58965 0,0.25422 -0.432,0.73219 -0.961,1.06216 -0.529,0.32997 -0.966,0.92621 -0.97,1.32498 0,0.39877 -0.527,1.21625 -1.161,1.81663 l -1.153,1.0916 z m 2.374,-99.18491 c -0.153,-0.46232 -1.11,-2.67784 -2.128,-4.92339 -1.017,-2.24554 -3.133,-7.10888 -4.702,-10.80743 -1.568,-3.69854 -3.742,-8.64615 -4.83,-10.99469 -1.087,-2.34853 -1.977,-4.44958 -1.977,-4.66898 0,-0.21941 -0.515,-1.54011 -1.144,-2.93489 -2.329,-5.16399 -3.287,-7.40926 -4.36,-10.22126 -1.155,-3.02847 -5.175,-11.42678 -5.935,-12.39996 -0.244,-0.31293 -0.566,-1.00126 -0.716,-1.52962 -0.149,-0.52836 -0.8,-2.36563 -1.445,-4.08281 -1.018,-2.7071 -1.327,-3.11098 -2.322,-3.03816 -0.632,0.0462 -4.178,0.21597 -7.881,0.37729 -6.854,0.29865 -14.687,1.02774 -16.255,1.51309 -0.478,0.14775 -0.802,0.4662 -0.722,0.70767 0.08,0.24146 1.64,2.15891 3.464,4.261 2.541,2.92766 3.497,3.73018 4.087,3.42967 0.424,-0.21576 1.596,-0.51916 2.606,-0.67422 2.478,-0.38073 2.125,0.70242 -0.4,1.22639 -1.022,0.21226 -1.951,0.47744 -2.063,0.58928 -0.312,0.31196 1.223,2.11583 7.258,8.53078 3.049,3.2411 7.328,8.05439 9.508,10.69621 2.181,2.64181 4.9,5.75266 6.044,6.913 1.144,1.16033 2.207,2.51126 2.363,3.00206 0.156,0.49081 0.454,0.89237 0.663,0.89237 0.208,0 1.254,1.24286 2.324,2.7619 1.07,1.51904 2.418,3.30227 2.996,3.96273 0.578,0.66045 1.519,1.82865 2.091,2.59599 0.573,0.76734 1.961,2.41087 3.085,3.65229 1.124,1.24142 2.043,2.50489 2.043,2.80772 0,0.30283 0.217,0.5506 0.481,0.5506 0.265,0 0.481,0.30233 0.481,0.67184 0,0.739 6.574,7.97411 7.245,7.97411 0.23,0 0.294,-0.37826 0.141,-0.84058 z m -12.558,-17.53206 c 0.23,-0.70004 3.729,-1.11782 3.729,-0.44526 0,0.4842 -1.594,1.02832 -3.045,1.03912 -0.492,0.004 -0.794,-0.25889 -0.684,-0.59386 z m -11.177,-14.02569 c 0,-0.59081 0.603,-0.74447 2.925,-0.74447 3.884,0 3.717,1.13808 -0.198,1.34488 -2.205,0.11645 -2.727,10e-4 -2.727,-0.60041 z m -5.004,-7.3966 c -0.553,-0.89306 1.485,-1.51348 4.972,-1.51348 3.972,0 4.527,0.70207 0.873,1.10382 -1.388,0.15266 -3.201,0.42082 -4.029,0.59592 -0.882,0.18663 -1.633,0.10957 -1.816,-0.18626 z m 9.572,-1.03315 c 0.163,-0.26418 0.393,-0.48033 0.509,-0.48033 0.117,0 0.212,0.21615 0.212,0.48033 0,0.26418 -0.229,0.48033 -0.509,0.48033 -0.28,0 -0.376,-0.21615 -0.212,-0.48033 z m -18.396,-5.88405 c 0.232,-0.70574 3.249,-1.11626 3.249,-0.44207 0,0.55354 -1.165,1.04249 -2.484,1.04249 -0.555,0 -0.879,-0.25442 -0.765,-0.60042 z m 3.93,-0.42466 c -0.141,-0.22875 -0.19,-0.43369 -0.109,-0.45541 1.352,-0.35921 2.794,-0.37621 2.794,-0.0329 0,0.58865 -2.357,1.01744 -2.685,0.48834 z m -8.285,-9.57221 c 0.116,-0.34674 0.495,-0.725 0.842,-0.84058 0.36,-0.12008 0.541,0.06 0.42,0.42029 -0.115,0.34674 -0.494,0.725 -0.841,0.84058 -0.361,0.12008 -0.541,-0.06 -0.421,-0.42029 z m 3.997,-0.93064 c -0.163,-0.26418 0.05,-0.48033 0.481,-0.48033 0.428,0 0.645,0.21615 0.481,0.48033 -0.163,0.26418 -0.38,0.48033 -0.481,0.48033 -0.101,0 -0.317,-0.21615 -0.481,-0.48033 z m -26.687,155.19809 c 0,-0.53991 1.25,-1.04354 1.636,-0.65874 0.578,0.57821 0.263,1.08768 -0.675,1.08768 -0.529,0 -0.961,-0.19303 -0.961,-0.42894 z m 91.844,-1.49238 c 0,-0.26419 0.216,-0.48033 0.481,-0.48033 0.264,0 0.481,0.21614 0.481,0.48033 0,0.26418 -0.217,0.48033 -0.481,0.48033 -0.265,0 -0.481,-0.21615 -0.481,-0.48033 z m -22.12,-1.62643 c 0,-0.71913 3.261,-2.4818 3.728,-2.0152 0.156,0.1557 -0.224,0.82262 -0.844,1.48203 -1.222,1.29897 -2.884,1.60624 -2.884,0.53317 z m -90.297,-1.81027 c 0.24,-0.71721 4.148,-1.87713 4.486,-1.33121 0.271,0.43924 -2.772,1.88592 -3.968,1.88592 -0.386,0 -0.619,-0.24962 -0.518,-0.55471 z m 94.889,0.17808 c -0.81,-0.80954 1.19,-1.95121 4.042,-2.30667 0.938,-0.11685 2.255,-0.61511 2.928,-1.10724 0.673,-0.49213 2.187,-1.0452 3.366,-1.22903 1.179,-0.18383 2.522,-0.44109 2.984,-0.57168 0.463,-0.1306 0.842,-0.0319 0.842,0.21923 0,0.45153 -0.328,0.59283 -4.087,1.76165 -1.058,0.3289 -3.698,1.25039 -5.867,2.04777 -2.169,0.79737 -4.062,1.33106 -4.208,1.18597 z m -40.643,-3.73056 c -1.927,-1.99348 -2.874,-3.31422 -2.584,-3.60413 0.492,-0.49102 6.418,5.24538 6.418,6.21224 0,1.06134 -0.839,0.49092 -3.834,-2.60811 z m 19.462,0.74488 c 0.163,-0.26418 0.5,-0.48033 0.749,-0.48033 0.249,0 0.453,0.21615 0.453,0.48033 0,0.26418 -0.338,0.48033 -0.75,0.48033 -0.412,0 -0.616,-0.21615 -0.452,-0.48033 z m -63.234,-1.20082 c 0,-0.46948 0.461,-0.71518 1.323,-0.70522 1.266,0.0146 1.283,0.045 0.389,0.72049 -1.19,0.8986 -1.712,0.89394 -1.712,-0.0153 z m 64.436,-0.48298 c 0,-0.45156 5.492,-6.96214 5.873,-6.96214 0.827,0 0.267,1.07305 -2.124,4.06955 -1.376,1.72447 -2.782,3.1354 -3.125,3.1354 -0.343,0 -0.624,-0.10926 -0.624,-0.24281 z m 34.622,-0.71785 c 0,-0.26418 0.216,-0.48033 0.481,-0.48033 0.264,0 0.481,0.21615 0.481,0.48033 0,0.26418 -0.217,0.48033 -0.481,0.48033 -0.265,0 -0.481,-0.21615 -0.481,-0.48033 z m 1.682,-0.48123 c -0.316,-0.51103 0.924,-1.10042 3.487,-1.65723 2.216,-0.48145 1.936,0.007 -0.662,1.15532 -2.593,1.14556 -2.443,1.11895 -2.825,0.50191 z m -112.28,-4.76974 c 0,-0.56444 6.45,-3.87531 7.55,-3.87531 1.218,0 0.334,0.68487 -3.378,2.61598 -3.422,1.78067 -4.172,2.0071 -4.172,1.25933 z m 33.019,-0.83321 c -0.556,-0.55494 -0.365,-0.97637 1.385,-3.06968 1.102,-1.31755 1.541,-2.20473 1.24,-2.50562 -0.791,-0.79024 -0.06,-1.80724 1.096,-1.51824 1.494,0.37467 2.69,-1.79414 1.786,-3.23978 -0.407,-0.65142 -0.455,-1.14945 -0.141,-1.46292 0.313,-0.31347 0.657,-0.13676 1.008,0.51907 0.35,0.65297 0.807,0.8894 1.33,0.68868 0.618,-0.23688 0.723,-0.11124 0.466,0.55823 -0.244,0.63471 0.244,1.42327 1.84,2.9724 2.007,1.94861 2.67,3.0551 1.829,3.0551 -0.188,0 -1.264,-0.90361 -2.39,-2.00803 -2.045,-2.00483 -2.05,-2.00655 -3.088,-1.08074 -1.277,1.13873 -4.469,5.42384 -4.896,6.57117 -0.324,0.86942 -0.908,1.07695 -1.465,0.52036 z m 49.453,-1.12861 c 0.166,-0.26849 0.504,-0.36381 0.75,-0.21182 0.667,0.41176 0.543,0.69998 -0.302,0.69998 -0.412,0 -0.614,-0.21967 -0.448,-0.48816 z m 1.198,-0.74083 c 0,-0.518 3.051,-4.05464 3.498,-4.05464 1.062,0 -1.802,4.24797 -2.897,4.2964 -0.331,0.0146 -0.601,-0.0942 -0.601,-0.24176 z m 17.428,-0.80419 c 0.391,-1.17237 5.172,-3.33027 5.172,-2.33449 0,0.50279 -1.805,1.57974 -4.125,2.46082 -0.946,0.35897 -1.199,0.32841 -1.047,-0.12633 z m -91.962,-0.8488 c 0,-0.26418 0.325,-0.48033 0.721,-0.48033 0.397,0 0.722,0.21615 0.722,0.48033 0,0.26418 -0.325,0.48033 -0.722,0.48033 -0.396,0 -0.721,-0.21615 -0.721,-0.48033 z m 97.615,-1.92132 c 0,-0.26418 0.216,-0.48033 0.481,-0.48033 0.264,0 0.481,0.21615 0.481,0.48033 0,0.26418 -0.217,0.48033 -0.481,0.48033 -0.265,0 -0.481,-0.21615 -0.481,-0.48033 z m -89.921,-0.96066 c 0,-0.26418 0.216,-0.48033 0.481,-0.48033 0.264,0 0.481,0.21615 0.481,0.48033 0,0.26418 -0.217,0.48033 -0.481,0.48033 -0.265,0 -0.481,-0.21615 -0.481,-0.48033 z m 71.278,-1.05072 c 0.297,-0.89064 1.332,-1.03836 1.332,-0.19013 0,0.41829 -0.343,0.76052 -0.761,0.76052 -0.419,0 -0.676,-0.25668 -0.571,-0.57039 z m 1.532,-1.41596 c -0.191,-0.30857 0.01,-0.82226 0.448,-1.14153 0.437,-0.31928 0.795,-0.72836 0.795,-0.90908 0,-0.33663 3.534,-4.81377 9.96,-12.61709 3.438,-4.17448 9.32,-9.76412 10.275,-9.76412 1.122,0 0.204,1.38847 -2.222,3.36231 -2.479,2.01692 -6.121,5.92145 -9.664,10.3592 -6.374,7.98474 -7.517,9.33435 -7.908,9.33435 -0.243,0 -0.441,0.31146 -0.441,0.69215 0,0.93351 -0.812,1.38018 -1.243,0.68381 z m -98.296,-0.40203 c 0,-0.65111 0.855,-1.05544 1.166,-0.55177 0.149,0.24081 -0.05,0.56178 -0.447,0.71326 -0.395,0.15148 -0.719,0.0788 -0.719,-0.16149 z m 10.298,-1.33418 c -0.179,-0.99068 -0.492,-2.01739 -0.696,-2.28157 -0.204,-0.26418 -0.62,-1.453 -0.923,-2.64182 -0.904,-3.54238 -0.802,-3.41688 -2.291,-2.81925 -0.736,0.29547 -1.825,0.7628 -2.42,1.03852 -1.116,0.51727 -1.861,0.24807 -1.395,-0.50413 0.145,-0.2351 1.151,-0.71996 2.236,-1.07745 1.084,-0.35749 2.083,-0.8305 2.22,-1.05114 0.244,-0.394 -1.456,-6.6472 -2.2,-8.0909 -0.208,-0.40494 -0.532,-1.43165 -0.718,-2.28157 -0.263,-1.19179 -0.179,-1.54531 0.365,-1.54531 0.387,0 0.82,0.59441 0.96,1.32091 0.696,3.59946 4.197,14.6746 4.896,15.49065 0.34,0.39628 0.728,1.47702 0.863,2.40166 0.135,0.92463 0.402,2.16749 0.592,2.7619 0.26,0.80915 0.157,1.08074 -0.409,1.08074 -0.494,0 -0.867,-0.62173 -1.08,-1.80124 z m 20.487,-0.49541 c 0,-0.45402 1.22,-2.44661 2.699,-4.42798 4.182,-5.603 4.159,-5.1822 0.471,-8.66673 -1.919,-1.81295 -3.18,-3.39676 -3.18,-3.99459 0,-0.75563 0.846,-0.10961 3.565,2.72364 l 3.565,3.71422 5.281,-5.25593 c 2.905,-2.89077 5.953,-5.60286 6.774,-6.02688 0.821,-0.42402 1.492,-0.69477 1.492,-0.60166 0,0.0931 -2.864,3.0075 -6.365,6.47642 l -6.365,6.30714 1.598,1.64738 c 0.879,0.90606 1.397,1.77213 1.15,1.92461 -0.247,0.15248 -1.06,-0.35957 -1.807,-1.13789 -0.87,-0.90732 -1.543,-1.25971 -1.876,-0.98201 -0.286,0.23821 -1.71,2.27478 -3.165,4.5257 -2.672,4.13555 -3.855,5.29872 -3.837,3.77456 z m 39.421,0.11826 c 0,-0.5386 1.573,-2.62491 1.979,-2.62491 0.736,0 0.463,1.25846 -0.454,2.08704 -0.879,0.79459 -1.525,1.02243 -1.525,0.53787 z m -19.47,-0.69638 c -0.365,-0.58903 11.57,-14.41712 12.443,-14.41712 0.849,0 0,1.48558 -2.182,3.84264 -1.349,1.453 -4.075,4.53312 -6.059,6.84471 -1.984,2.31159 -3.675,4.20289 -3.758,4.20289 -0.08,0 -0.283,-0.2129 -0.444,-0.47312 z m 22.836,-3.37571 c 0,-0.26758 0.736,-1.29429 1.637,-2.28157 3.716,-4.07617 7.728,-8.63058 9.092,-10.32092 1.45,-1.79717 2.254,-2.25743 2.254,-1.29033 0,0.281 -1.893,2.66832 -4.207,5.30515 -2.314,2.63683 -4.965,5.74475 -5.891,6.9065 -1.593,1.99969 -2.885,2.75245 -2.885,1.68117 z m -31.496,-1.43481 c -0.164,-0.26418 -0.07,-0.48033 0.212,-0.48033 0.28,0 0.509,0.21615 0.509,0.48033 0,0.26419 -0.1,0.48033 -0.212,0.48033 -0.117,0 -0.346,-0.21614 -0.509,-0.48033 z m -32.849,-3.87266 c 0.116,-0.34674 0.494,-0.725 0.841,-0.84058 0.361,-0.12008 0.541,0.06 0.421,0.42029 -0.116,0.34674 -0.494,0.725 -0.841,0.84058 -0.361,0.12008 -0.541,-0.06 -0.421,-0.42029 z m 85.385,-1.68923 c -0.284,-0.28331 2.251,-4.32158 2.892,-4.60812 0.193,-0.0864 0.676,-0.73681 1.073,-1.44536 0.914,-1.63281 6.162,-8.01076 9.346,-11.35894 1.339,-1.40815 2.606,-2.86451 2.816,-3.23634 0.516,-0.91533 2.175,-1.76022 2.753,-1.40284 0.259,0.15955 -0.947,1.7058 -2.679,3.43612 -1.732,1.73032 -5.114,5.55449 -7.515,8.49815 -2.401,2.94367 -4.553,5.42417 -4.784,5.51223 -0.23,0.0881 -0.418,0.35536 -0.418,0.594 0,0.53754 -2.54,4.24609 -2.925,4.27113 -0.155,0.01 -0.406,-0.10699 -0.559,-0.26003 z m -99.339,-3.38898 c 0.1,-0.49274 0.386,-0.84186 0.647,-0.77582 0.698,0.17696 0.576,1.20674 -0.173,1.45629 -0.422,0.14028 -0.587,-0.0971 -0.474,-0.68047 z m 68.682,-1.3913 c 0,-0.38798 0.324,-0.70542 0.721,-0.70542 0.397,0 0.721,0.19302 0.721,0.42894 0,0.23591 -0.324,0.55335 -0.721,0.70542 -0.439,0.16841 -0.721,7.6e-4 -0.721,-0.42894 z m 1.923,-1.94891 c 0,-0.98097 3.701,-4.51875 4.729,-4.51981 0.942,-9.8e-4 0.594,0.48456 -2.204,3.07641 -1.945,1.80146 -2.525,2.13271 -2.525,1.4434 z m 21.158,-1.68443 c 0,-0.72532 1.634,-3.02186 4.579,-6.43853 1.367,-1.58509 3.096,-3.85465 3.842,-5.04346 1.909,-3.04203 7.401,-10.2617 8.106,-10.65629 0.323,-0.18105 0.891,-0.14163 1.263,0.0876 0.532,0.32881 0.319,0.7531 -1.011,2.01034 -1.653,1.5623 -7.08,8.43632 -8.777,11.11694 -0.473,0.74677 -1.257,1.82752 -1.742,2.40166 -0.486,0.57413 -1.876,2.21978 -3.091,3.65699 -1.214,1.43721 -2.207,2.78814 -2.207,3.00207 0,0.21392 -0.217,0.38895 -0.481,0.38895 -0.264,0 -0.481,-0.23681 -0.481,-0.52626 z m -56.72,-1.08577 c -0.04,-1.49042 7.154,-9.96495 11.199,-13.19922 1.102,-0.88119 3.82,-3.25883 6.041,-5.28363 2.221,-2.02481 5.178,-4.54606 6.573,-5.60279 1.394,-1.05673 3.797,-2.89015 5.339,-4.07428 5.679,-4.36082 10.013,-7.21348 10.959,-7.21348 0.813,0 0.04,1.04852 -1.27,1.72607 -3.015,1.55731 -17.05,12.46547 -21.771,16.92081 -1.334,1.2586 -3.118,2.77284 -3.965,3.36496 -1.44,1.00709 -7.259,7.24111 -11.302,12.10813 -1.308,1.57507 -1.787,1.90809 -1.803,1.25343 z m 21.136,-3.59715 c 0,-0.57691 1.651,-1.99577 2.322,-1.99577 0.826,0 0.688,0.69921 -0.316,1.60671 -0.94,0.84975 -2.006,1.05648 -2.006,0.38906 z m -38.468,-3.37199 c 0,-0.76431 1.984,-2.94675 2.679,-2.94675 0.936,0 0.883,0.15757 -0.623,1.87193 -1.298,1.47809 -2.056,1.87439 -2.056,1.07482 z m 5.873,-1.62585 c -0.821,-0.85859 -1.775,-1.80511 -2.12,-2.10339 -0.346,-0.29828 -1.248,-1.27094 -2.006,-2.16149 -0.758,-0.89054 -2.219,-2.53296 -3.246,-3.64983 -1.027,-1.11687 -1.868,-2.4678 -1.868,-3.00207 0,-1.46582 0.762,-1.16892 1.757,0.68473 0.488,0.91087 2.782,3.60325 5.096,5.98306 2.314,2.37982 4.207,4.66065 4.207,5.06851 0,1.01505 -0.113,0.96388 -1.82,-0.81952 z m 1.179,-5.48377 c -0.151,-0.15096 0.05,-0.59869 0.447,-0.99497 0.396,-0.39627 0.845,-0.59698 0.996,-0.44602 0.151,0.15096 -0.05,0.5987 -0.447,0.99497 -0.396,0.39627 -0.845,0.59698 -0.996,0.44602 z m 2.084,-2.56176 c 0,-0.26418 0.216,-0.48033 0.481,-0.48033 0.264,0 0.481,0.21615 0.481,0.48033 0,0.26418 -0.217,0.48033 -0.481,0.48033 -0.265,0 -0.481,-0.21615 -0.481,-0.48033 z m 1.442,-1.90084 c 0,-0.25292 0.784,-1.06348 1.741,-1.80124 0.957,-0.73776 2.417,-2.07914 3.245,-2.98083 3.159,-3.43922 12.477,-12.32918 13.813,-13.17788 1.2,-0.76206 1.398,-0.78244 1.398,-0.14395 0,0.40908 -0.313,0.91843 -0.695,1.13187 -0.827,0.46252 -13.541,12.47391 -16.291,15.39048 -1.813,1.92366 -3.211,2.61189 -3.211,1.58155 z m -18.272,-7.13121 c 0,-0.46821 3.034,-3.45654 3.509,-3.45654 0.78,0 0.234,1.0686 -1.225,2.39435 -1.583,1.43804 -2.284,1.76431 -2.284,1.06219 z m 4.808,-4.89753 c 0.46,-0.85822 1.924,-1.38037 1.924,-0.68618 0,0.47849 -1.352,1.64684 -1.906,1.64684 -0.383,0 -0.388,-0.26901 -0.02,-0.96066 z m -13.389,-2.66678 c 0.09,-0.47085 0.457,-0.95293 0.813,-1.07129 0.414,-0.13766 0.587,0.0933 0.481,0.64089 -0.09,0.47085 -0.458,0.95293 -0.814,1.07129 -0.413,0.13765 -0.587,-0.0933 -0.48,-0.64089 z m 19.641,-2.61685 c 0,-0.26418 0.229,-0.48033 0.509,-0.48033 0.28,0 0.375,0.21615 0.212,0.48033 -0.164,0.26418 -0.393,0.48033 -0.509,0.48033 -0.117,0 -0.212,-0.21615 -0.212,-0.48033 z m 54.818,0 c 0,-0.26418 0.216,-0.48033 0.481,-0.48033 0.264,0 0.48,0.21615 0.48,0.48033 0,0.26418 -0.216,0.48033 -0.48,0.48033 -0.265,0 -0.481,-0.21615 -0.481,-0.48033 z m -82.371,-0.32408 c -0.34,-0.54829 0.928,-2.5579 1.613,-2.5579 0.705,0 0.539,0.74967 -0.431,1.94608 -0.501,0.61824 -1.014,0.88363 -1.182,0.61182 z m 3.343,-1.95749 c -1.223,-1.93167 -2.769,-3.5568 -6.278,-6.60077 -1.216,-1.05466 -2.211,-2.16297 -2.211,-2.46292 0,-0.29996 -0.325,-0.81445 -0.721,-1.14333 -0.776,-0.64329 -0.995,-2.40165 -0.299,-2.40165 0.232,0 0.688,0.6392 1.011,1.42044 0.506,1.21896 7.041,7.64249 8.248,8.10611 0.229,0.0881 0.416,0.43717 0.416,0.7758 0,0.33863 0.433,1.16527 0.962,1.83697 0.529,0.67171 0.962,1.45738 0.962,1.74594 0,1.07124 -0.984,0.47015 -2.09,-1.27659 z m 52.58,-0.0928 c 0,-0.2492 0.404,-0.73553 0.897,-1.08074 0.493,-0.34521 2.082,-1.70839 3.531,-3.0293 5.867,-5.34768 8.075,-6.99926 8.075,-6.0401 0,0.57779 -3.831,4.34247 -4.429,4.35295 -0.189,0.003 -0.73,0.41338 -1.203,0.91131 -1.473,1.55096 -6.072,5.33898 -6.481,5.33898 -0.214,0 -0.39,-0.2039 -0.39,-0.4531 z m -20.594,-4.66508 c 0.09,-0.48121 0.545,-0.94729 1.005,-1.03574 1.164,-0.22389 1.047,0.72338 -0.169,1.37357 -0.86,0.45997 -0.98,0.41147 -0.836,-0.33783 z m 5.688,-4.39701 c 0,-0.25794 0.342,-0.60032 0.761,-0.76085 0.468,-0.17951 0.688,-0.0722 0.571,0.27883 -0.239,0.71802 -1.332,1.11336 -1.332,0.48202 z m -17.402,-0.89987 c 0.348,-0.13875 0.762,-0.12169 0.922,0.0379 0.16,0.15961 -0.124,0.27314 -0.631,0.25228 -0.56,-0.0231 -0.674,-0.13687 -0.291,-0.2902 z m 46.734,-2.07353 c 0,-0.26418 0.229,-0.48033 0.509,-0.48033 0.281,0 0.376,0.21615 0.212,0.48033 -0.163,0.26418 -0.392,0.48033 -0.509,0.48033 -0.116,0 -0.212,-0.21615 -0.212,-0.48033 z m 1.443,-1.20083 c 0,-0.39627 0.306,-0.72049 0.681,-0.72049 0.375,0 0.778,-0.27019 0.896,-0.60042 0.118,-0.33022 0.368,-0.45885 0.555,-0.28582 0.366,0.33792 -1.137,2.32723 -1.758,2.32723 -0.206,0 -0.374,-0.32423 -0.374,-0.7205 z m 3.366,-2.72733 c 0,-0.87012 0.957,-1.83581 1.819,-1.83581 0.918,0 0.509,0.97493 -0.764,1.81872 -0.904,0.59992 -1.055,0.60237 -1.055,0.0171 z m -86.074,-1.97241 c 0,-0.71069 2.807,-2.50331 3.241,-2.06979 0.399,0.39873 -1.818,2.68672 -2.604,2.68672 -0.35,0 -0.637,-0.27762 -0.637,-0.61693 z m 3.947,-2.80542 c 0.121,-0.36325 0.364,-0.60642 0.541,-0.54037 0.426,0.15971 0.31,0.53163 -0.281,0.90062 -0.264,0.16511 -0.381,0.003 -0.26,-0.36025 z m 1.342,-1.59277 c 0,-0.41186 0.217,-0.74884 0.481,-0.74884 0.264,0 0.481,0.20339 0.481,0.45198 0,0.24859 -0.217,0.58557 -0.481,0.74885 -0.264,0.16327 -0.481,-0.0401 -0.481,-0.45199 z m -15.957,-3.80472 c -6.247,-6.29446 -8.567,-8.82602 -8.567,-9.35017 0,-1.23489 1.32,-0.36746 3.607,2.36944 1.322,1.58309 3.756,4.18269 5.409,5.7769 1.653,1.59421 3.006,3.09675 3.006,3.33897 0,0.95307 -1.007,0.33068 -3.455,-2.13514 z m -9.769,0.65423 c 0.164,-0.26418 0.393,-0.48033 0.509,-0.48033 0.117,0 0.212,0.21615 0.212,0.48033 0,0.26418 -0.229,0.48033 -0.509,0.48033 -0.28,0 -0.375,-0.21615 -0.212,-0.48033 z m 15.713,-0.30934 c 0.184,-0.93345 2.649,-2.88392 3.089,-2.4442 0.419,0.41879 -1.822,3.17444 -2.608,3.20729 -0.35,0.0146 -0.567,-0.32877 -0.481,-0.76309 z m -28.937,-0.85718 c 0,-0.3774 0.29,-0.97567 0.644,-1.32948 0.355,-0.35382 0.733,-0.90111 0.842,-1.21621 0.109,-0.3151 2.145,-2.56963 4.525,-5.01006 2.38,-2.44044 4.977,-5.23656 5.77,-6.21362 0.794,-0.97705 2.958,-2.92167 4.809,-4.32136 1.851,-1.3997 3.582,-2.81009 3.847,-3.1342 0.264,-0.32411 2.645,-2.04057 5.289,-3.81436 2.645,-1.77379 5.517,-3.84189 6.383,-4.59578 2.051,-1.78597 9.559,-6.76226 11.409,-7.56192 0.794,-0.34288 3.255,-1.81343 5.47,-3.26788 3.973,-2.60829 10.033,-5.97436 14.726,-8.17967 1.323,-0.62134 2.946,-1.45235 3.607,-1.84669 4.366,-2.60381 17.562,-8.80529 17.938,-8.4298 0.539,0.53857 0.02,1.48725 -0.806,1.48725 -0.588,0 -3.934,1.43064 -5.807,2.48286 -0.515,0.28948 -5.55,2.87027 -11.188,5.73509 -10.506,5.33851 -19.102,10.17037 -19.639,11.03971 -0.167,0.26902 -1.755,1.18191 -3.529,2.02864 -1.775,0.84672 -3.864,2.03293 -4.644,2.63601 -0.779,0.60307 -2.525,1.82784 -3.879,2.7217 -1.354,0.89386 -3.017,2.13917 -3.696,2.76737 -0.678,0.62819 -3.573,2.73212 -6.434,4.6754 -5.136,3.49004 -8.693,6.32428 -12.105,9.64766 -3.776,3.67884 -10.925,11.67279 -11.608,12.98208 -0.758,1.45199 -1.924,1.88659 -1.924,0.71726 z m 15.959,-2.22581 c 0.116,-0.34674 0.494,-0.725 0.841,-0.84058 0.361,-0.12009 0.541,0.06 0.421,0.42029 -0.116,0.34673 -0.494,0.72499 -0.841,0.84057 -0.361,0.12009 -0.541,-0.06 -0.421,-0.42028 z m 58.094,-20.17221 c 0,-0.27977 0.216,-0.37509 0.481,-0.21181 0.264,0.16327 0.481,0.39217 0.481,0.50867 0,0.1165 -0.217,0.21182 -0.481,0.21182 -0.265,0 -0.481,-0.2289 -0.481,-0.50868 z m 33.44,-3.30077 c -0.355,-0.57477 0.549,-1.14426 1.19,-0.74884 0.538,0.33199 0.185,1.19598 -0.489,1.19598 -0.233,0 -0.548,-0.20121 -0.701,-0.44714 z m -83.344,-4.95658 c -0.551,-0.67158 -1.346,-3.41382 -2.315,-7.97978 -0.357,-1.68102 -0.902,-3.3614 -1.211,-3.73417 -0.31,-0.37277 -0.442,-0.79952 -0.293,-0.94833 0.601,-0.60007 4.225,-1.09397 13.475,-1.8366 5.342,-0.42891 11.877,-0.97885 14.522,-1.22208 4.584,-0.42156 5.999,-0.19662 5.352,0.8504 -0.158,0.25499 -3.699,0.60516 -7.869,0.77816 -4.17,0.173 -9.42,0.51369 -11.668,0.7571 -2.249,0.2434 -5.528,0.57548 -7.287,0.73795 -4.13,0.38124 -4.84,0.89757 -4.28,3.11083 0.375,1.48293 1.99,6.91259 2.749,9.24636 0.316,0.96968 -0.448,1.12583 -1.175,0.24016 z m 3.741,-2.22275 c 0,-0.74292 1.152,-1.40436 3.067,-1.76202 2.65,-0.49455 2.116,0.69304 -0.687,1.53013 -2.568,0.76688 -2.38,0.74853 -2.38,0.23189 z m 65.987,-1.10524 c 0.279,-0.83617 1.71,-1.62012 2.152,-1.17888 0.21,0.21039 -0.04,0.68908 -0.55,1.06375 -1.135,0.82865 -1.857,0.8806 -1.602,0.11513 z m -59.735,-0.8749 c 0,-0.26418 0.216,-0.48033 0.48,-0.48033 0.265,0 0.481,0.21615 0.481,0.48033 0,0.26418 -0.216,0.48033 -0.481,0.48033 -0.264,0 -0.48,-0.21615 -0.48,-0.48033 z"
       id="path1" /></g></svg>
