<?xml version="1.0" encoding="UTF-8" standalone="no"?>
<!-- Created with Inkscape (http://www.inkscape.org/) -->

<svg
   width="61.221001mm"
   height="62.240601mm"
   viewBox="0 0 61.221 62.240601"
   version="1.1"
   id="svg1"
   xml:space="preserve"
   inkscape:export-filename="take.svg"
   inkscape:export-xdpi="96"
   inkscape:export-ydpi="96"
   xmlns:inkscape="http://www.inkscape.org/namespaces/inkscape"
   xmlns:sodipodi="http://sodipodi.sourceforge.net/DTD/sodipodi-0.dtd"
   xmlns="http://www.w3.org/2000/svg"
   xmlns:svg="http://www.w3.org/2000/svg"><sodipodi:namedview
     id="namedview1"
     pagecolor="#ffffff"
     bordercolor="#000000"
     borderopacity="0.25"
     inkscape:showpageshadow="2"
     inkscape:pageopacity="0.0"
     inkscape:pagecheckerboard="0"
     inkscape:deskcolor="#d1d1d1"
     inkscape:document-units="mm"><inkscape:page
       x="0"
       y="0"
       width="61.221001"
       height="62.240601"
       id="page2"
       margin="0"
       bleed="0" /></sodipodi:namedview><defs
     id="defs1" /><g
     inkscape:label="Layer 1"
     inkscape:groupmode="layer"
     id="layer1"
     transform="translate(1472.671,3650.7208)"><path
       id="path936"
       d="m -1472.5017,-3650.5514 h 60.8824 v -0.1694 h -60.8824 z"
       style="fill:#000000;fill-opacity:1;fill-rule:evenodd;stroke:none;stroke-width:0.352778" /><path
       id="path941-9"
       d="m -1472.671,-3588.6495 h 0.1693 v -61.8984 h -0.1693 z"
       style="fill:#000000;fill-opacity:1;fill-rule:evenodd;stroke:none;stroke-width:0.352778" /><path
       id="path942"
       d="m -1411.6193,-3588.6495 h 0.1693 v -61.8984 h -0.1693 z"
       style="fill:#000000;fill-opacity:1;fill-rule:evenodd;stroke:none;stroke-width:0.352778" /><path
       id="path952"
       d="m -1472.5017,-3588.4802 h 60.8824 v -0.1693 h -60.8824 z"
       style="fill:#000000;fill-opacity:1;fill-rule:evenodd;stroke:none;stroke-width:0.352778" /><g
       id="g1607"
       transform="matrix(0.26458333,0,0,0.26458333,-5422.5951,-3666.5288)"><path
         style="fill:#000000"
         d="m 15073.487,261.93742 c -0.271,-0.77536 -1.382,-2.53426 -2.47,-3.90866 -1.088,-1.37441 -1.902,-2.73943 -1.808,-3.03339 0.09,-0.29395 0.916,-0.94084 1.828,-1.43753 l 1.656,-0.90307 -0.176,-5.1576 c -0.172,-4.99228 0.254,-7.20623 1.385,-7.20623 0.26,0 0.466,1.74038 0.468,3.96279 0,2.17953 0.141,5.09758 0.308,6.48456 0.293,2.43465 0.355,2.52203 1.8,2.52913 2.873,0.0141 2.985,0.68629 0.88,5.27636 -0.303,0.66047 -0.873,2.01142 -1.266,3.00211 -0.857,2.15995 -1.931,2.3214 -2.605,0.39153 z m -52.65,-4.63528 c -0.06,-0.0543 -10.933,-0.25425 -24.162,-0.44441 -13.229,-0.19016 -24.216,-0.44172 -24.414,-0.55904 -0.663,-0.39182 -0.371,-1.52521 0.433,-1.68248 0.437,-0.0854 7.852,-0.0178 16.477,0.15018 21.384,0.41655 50.473,0.88834 55.009,0.8922 3.445,0.003 3.728,0.0785 3.728,0.99455 0,0.98094 -0.142,0.99011 -13.481,0.86953 -7.414,-0.067 -13.53,-0.16627 -13.59,-0.22053 z m 120.791,-2.84797 c -0.136,-0.1358 -13.378,-0.25647 -29.425,-0.26817 -28.558,-0.0208 -29.178,-0.0411 -29.178,-0.95394 0,-0.64583 0.333,-0.93388 1.083,-0.93659 0.595,-0.002 14.45,-0.0562 30.788,-0.12009 16.338,-0.0639 29.489,-0.0441 29.224,0.044 -0.749,0.24906 -0.566,1.04073 0.24,1.04073 0.397,0 0.722,0.32423 0.722,0.72051 0,0.49635 -0.499,0.72051 -1.604,0.72051 -0.881,0 -1.714,-0.11111 -1.85,-0.24691 z m -133.047,-5.40206 c -21.055,-0.12372 -21.287,-0.13574 -21.287,-1.10367 0,-0.9781 0.02,-0.97848 37.643,-0.75806 36.946,0.21644 37.646,0.23797 37.789,1.1632 0.162,1.0471 1.731,1.02686 -54.145,0.69853 z m 87.013,-2.94146 c -0.363,-0.23369 -0.572,-0.68615 -0.466,-1.00547 0.174,-0.51955 7.449,-0.63976 29.87,-0.49355 0.604,0.004 0.402,1.32487 -0.241,1.57026 -1.113,0.42508 -28.496,0.35819 -29.163,-0.0712 z m -30.128,-8.74165 c -5.103,-1.14885 -11.73,-3.08024 -13.371,-3.89652 -1.004,-0.4997 -2.627,-1.60847 -3.608,-2.46392 -0.98,-0.85545 -3.02,-2.48866 -4.534,-3.62937 -1.514,-1.1407 -3.354,-3.02486 -4.089,-4.18703 -0.735,-1.16216 -1.499,-2.11341 -1.698,-2.11388 -0.198,-4.7e-4 -0.362,-0.27105 -0.363,-0.60128 0,-0.33023 -0.283,-1.1408 -0.625,-1.80127 -0.342,-0.66046 -1.449,-3.38941 -2.46,-6.06433 l -1.839,-4.8635 -3.005,0.24079 c -5.923,0.47475 -13.58,-3.27135 -16.657,-8.14891 -1.538,-2.4383 -1.602,-2.72975 -1.604,-7.34247 0,-5.42318 0.167,-6.50804 1.645,-10.56743 0.577,-1.58512 1.483,-4.07087 2.013,-5.52389 0.881,-2.41489 2.413,-6.157 4.029,-9.84693 0.785,-1.78962 1.973,-5.69452 2.413,-7.92557 0.472,-2.39613 1.081,-3.36999 1.909,-3.05292 0.905,0.34678 0.911,2.04018 0.02,4.36413 -0.384,0.99604 -0.946,2.77664 -1.25,3.95689 -0.303,1.18024 -0.943,3.01753 -1.421,4.08287 -0.478,1.06533 -1.305,3.23388 -1.838,4.819 -0.532,1.58511 -1.753,4.76845 -2.713,7.07408 -1.734,4.16698 -3.146,10.04528 -3.146,13.10254 0,5.47516 6.68,11.77288 13.319,12.55806 2.061,0.24375 2.664,0.11787 3.938,-0.82289 0.828,-0.61086 1.505,-1.39338 1.505,-1.73892 0,-1.36975 -2.115,-6.72868 -3.259,-8.25868 -0.97,-1.29661 -1.127,-1.86531 -0.781,-2.83227 0.33,-0.9259 1.768,-2.27009 2.428,-2.27009 0.04,0 -0.117,-1.17575 -0.346,-2.61278 -1.259,-7.86867 4.598,-31.2413 8.328,-33.23457 1.768,-0.94505 1.774,0.29802 0.02,3.909 -1.567,3.22181 -3.009,7.78246 -5.237,16.56753 -0.402,1.58512 -0.771,5.2597 -0.821,8.16575 -0.125,7.33163 1.374,11.93829 5.703,17.53233 2.623,3.39008 4.449,5.09391 6.145,5.7335 3.409,1.28615 4.598,0.33031 4.956,-3.98335 0.389,-4.68547 0,-6.00281 -2.706,-9.20016 -1.519,-1.79375 -2.402,-3.28845 -2.402,-4.06794 0,-0.67774 0.876,-3.71323 1.946,-6.74552 1.155,-3.27246 2.065,-6.8486 2.239,-8.79874 0.211,-2.3808 0.503,-3.36474 1.06,-3.57332 0.64,-0.23981 6.963,-5.39045 7.744,-6.30792 0.132,-0.15551 1.368,-1.30946 2.745,-2.56434 2.072,-1.8873 2.823,-2.28161 4.343,-2.28161 2.422,0 3.72,0.97954 4.703,3.54947 0.868,2.26777 0.821,4.37414 -0.262,11.8671 -0.865,5.98933 -0.43,8.06679 2.194,10.48217 1.172,1.07847 2.582,1.96086 3.135,1.96086 2.695,0 3.547,-1.65798 4.054,-7.88748 0.17,-2.09254 0.597,-4.90251 0.949,-6.2444 0.691,-2.63914 5.359,-16.7194 6.064,-18.29093 0.726,-1.61749 1.941,-5.18019 2.457,-7.20507 0.682,-2.6779 0.619,-12.35959 -0.104,-16.10046 -0.712,-3.67482 -1.991,-5.67358 -6.665,-10.40828 -3.547,-3.59256 -3.675,-3.89376 -3.431,-8.07559 0.147,-2.52115 1.122,-4.52301 3.17,-6.50475 1.886,-1.825 4.273,-7.451108 4.781,-11.267756 0.439,-3.303226 1.143,-4.95721 2.262,-5.311602 1.373,-0.435116 1.637,0.09768 0.917,1.847484 -0.349,0.848521 -0.795,2.51545 -0.991,3.704287 -0.418,2.541724 -0.722,3.323477 -3.368,8.683177 -1.099,2.22518 -2.514,4.58633 -3.146,5.247 -1.215,1.27228 -1.984,4.49308 -1.513,6.34142 0.155,0.60689 1.92,2.83266 3.923,4.94615 4.114,4.33998 5.135,6.01315 6.218,10.18524 0.976,3.76327 1.043,15.06093 0.106,18.01782 -0.359,1.13203 -0.934,3.03091 -1.278,4.21975 -0.344,1.18883 -1.23,3.45843 -1.968,5.04355 -1.688,3.62782 -4.28,11.06684 -4.28,12.28689 0,0.50857 0.331,0.9224 0.738,0.9224 0.405,0 1.786,0.53064 3.068,1.1792 l 2.33,1.17919 28.321,0.10927 c 25.782,0.0995 31.461,0.15929 33.252,0.35026 0.331,0.0353 0.602,0.44814 0.602,0.91751 0,0.81044 -1.489,0.84383 -29.586,0.66341 -16.271,-0.10448 -29.585,-0.0626 -29.585,0.093 0,0.15564 1.353,1.65537 3.007,3.33272 1.653,1.67735 3.587,4.11683 4.296,5.42108 3.222,5.92681 4.551,16.09564 3.092,23.66234 -1.497,7.7719 -1.862,8.96177 -3.724,12.17028 -1.023,1.7633 -1.86,3.33011 -1.86,3.4818 0,0.90219 -4.836,6.25866 -6.691,7.41073 -6.975,4.3326 -10.89,5.97503 -16.16,6.77949 -1.852,0.28273 -3.908,0.59871 -4.57,0.70218 -0.661,0.10346 -2.068,-0.007 -3.127,-0.24508 z m 6.014,-2.59125 c 5.993,-1.0157 7.188,-1.44684 12.875,-4.64373 3.276,-1.84124 5.907,-3.72039 7.195,-5.13902 2.87,-3.15981 5.195,-8.1269 6.913,-14.76816 1.362,-5.26353 1.464,-6.20127 1.272,-11.7253 -0.115,-3.30233 -0.467,-6.6364 -0.782,-7.40907 l -0.574,-1.40484 -2.505,2.44106 c -3.231,3.14756 -6.813,5.39091 -8.08,5.06014 -1.59,-0.41517 -0.907,-2.10897 1.485,-3.68217 2.879,-1.8934 4.725,-3.93198 5.809,-6.41315 0.49,-1.12279 1.121,-2.04143 1.402,-2.04143 2.031,0 -5.646,-8.26571 -10.149,-10.92795 -2.375,-1.40385 -2.773,-1.50076 -3.942,-0.96068 -1.56,0.72092 -1.627,0.90827 -2.223,6.21486 -0.721,6.42489 -2.522,9.03613 -6.231,9.03613 -1.771,0 -5.354,-2.41591 -6.54,-4.41056 -0.732,-1.22956 -0.992,-2.71852 -1.137,-6.51713 -0.22,-5.71839 0.1,-5.50474 -5.516,-3.71473 -4.627,1.47544 -9.783,4.20749 -11.12,5.89154 -1.01,1.27289 -3.167,7.31204 -3.167,8.86958 0,0.46157 0.757,1.67617 1.682,2.69913 2.171,2.3991 3.128,5.17598 3.128,9.0752 0,4.25907 -0.804,6.73393 -2.467,7.59259 -1.804,0.9314 -2.949,0.86827 -5.702,-0.31427 -2.259,-0.9702 -2.633,-1.34429 -9.61,-9.61296 l -0.973,-1.15248 0.717,2.10183 c 0.394,1.15601 0.717,2.94687 0.717,3.97969 0,1.03282 0.309,2.3566 0.688,2.94172 0.378,0.58512 1.324,2.90115 2.102,5.14673 2.908,8.39277 4.679,11.26108 9.196,14.89048 1.151,0.92465 2.876,2.35422 3.833,3.17682 2.58,2.2178 4.28,2.94732 11.02,4.72928 3.363,0.88886 6.222,1.63136 6.354,1.65 0.132,0.0186 2.081,-0.27798 4.33,-0.65915 z m 17.799,-31.31163 c -2.639,-1.13008 -4.757,-3.46728 -5.545,-6.11942 -0.903,-3.03385 -0.906,-5.76917 0,-6.51311 1.095,-0.90785 1.77,-0.13147 1.434,1.652 -0.208,1.10962 0.01,2.30156 0.731,3.91935 1.339,3.02332 2.579,4.2937 5.144,5.27196 2.232,0.8511 2.423,1.10534 1.515,2.01229 -0.715,0.71457 -1.151,0.68487 -3.271,-0.22307 z m -57.342,-9.22841 c -0.341,-1.08931 -0.893,-1.98057 -1.227,-1.98057 -0.416,0 -0.266,0.66322 0.478,2.11098 1.317,2.56266 1.576,2.51758 0.749,-0.13041 z m 21.867,-20.2957 c 2.992,-1.50799 10.286,-3.76327 12.208,-3.77444 0.654,-0.004 1.131,-0.39722 1.316,-1.08673 0.511,-1.902 0.324,-5.14392 -0.394,-6.86025 -0.601,-1.43559 -0.922,-1.66575 -2.325,-1.66575 -1.24,0 -2.135,0.46964 -3.753,1.96842 -3.219,2.98296 -7.233,6.37131 -8.979,7.58138 -1.366,0.94596 -1.564,1.35252 -1.564,3.21186 0,1.17085 0.114,2.12882 0.254,2.12882 0.14,0 1.597,-0.67649 3.237,-1.50331 z m -45.343,26.51366 c -4.389,-0.87871 -6.875,-3.32084 -8.438,-8.29038 -0.749,-2.37863 -0.79,-3.22865 -0.321,-6.54407 0.297,-2.09569 1.219,-5.9451 2.048,-8.55423 0.83,-2.60913 2.154,-6.79732 2.942,-9.30708 0.788,-2.50977 1.607,-4.99552 1.82,-5.52389 0.212,-0.52837 0.625,-1.55509 0.916,-2.2816 0.576,-1.43189 1.855,-1.76231 2.304,-0.59478 0.154,0.39939 -0.254,1.85842 -0.905,3.24229 -1.712,3.63837 -2.911,7.47604 -6.191,19.80829 -1.31,4.92889 -1.193,8.15701 0.413,11.32189 1.036,2.04187 1.789,2.84248 3.469,3.68867 1.181,0.59442 2.858,1.08076 3.728,1.08076 0.978,0 1.582,0.23868 1.582,0.62444 0,0.65171 -0.961,1.81768 -1.419,1.72201 -0.145,-0.0304 -1.022,-0.20693 -1.948,-0.39232 z m 64.344,-18.39726 c -0.328,-0.98473 0.542,-4.74531 1.465,-6.32763 0.476,-0.81747 1.343,-1.55538 1.924,-1.6398 1.444,-0.20937 1.374,0.99537 -0.144,2.51151 -0.82,0.81864 -1.203,1.73038 -1.203,2.86458 0,0.91505 -0.131,2.00564 -0.292,2.42352 -0.346,0.90141 -1.469,1.00906 -1.75,0.16782 z m -76.024,-0.415 c -1.245,-0.72361 -3.115,-3.87863 -3.494,-5.89529 -0.333,-1.77706 -1.029,-2.18463 -2.028,-1.18777 -0.415,0.41418 -0.724,0.41752 -1.212,0.0131 -0.457,-0.37897 -8.31,-0.64299 -25.998,-0.87409 -24.597,-0.32137 -25.342,-0.35835 -25.342,-1.25779 0,-0.90783 0.553,-0.92082 27.18,-0.63814 l 27.18,0.28854 v -1.02295 c 0,-1.74214 3.837,-16.8013 4.821,-18.92005 0.245,-0.52838 0.915,-2.25759 1.488,-3.84271 0.574,-1.58511 1.414,-3.42241 1.867,-4.08287 0.453,-0.66047 0.965,-2.28161 1.138,-3.60254 0.419,-3.19644 2.002,-7.88858 4.052,-12.00844 3.142,-6.31277 8.356,-14.67544 10.866,-17.42674 1.378,-1.5111 3.428,-3.92357 4.554,-5.36105 1.126,-1.43748 3.282,-3.94615 4.791,-5.57483 3.961,-4.275914 8.898,-10.20508 9.607,-11.535847 0.541,-1.015952 1.967,-2.131107 2.726,-2.131107 0.873,0 -0.02,2.217157 -1.968,4.870622 -1.232,1.680225 -2.369,3.16303 -2.526,3.295123 -0.157,0.132093 -1.801,1.968512 -3.653,4.080931 -1.852,2.112418 -3.746,4.260658 -4.209,4.773868 -0.463,0.51321 -0.842,1.09868 -0.842,1.30104 0,0.20236 -0.487,0.8768 -1.082,1.49876 -0.596,0.62195 -1.323,1.55043 -1.616,2.06327 -0.294,0.51284 -0.641,0.82436 -0.772,0.69227 -0.299,-0.3012 -2.784,2.60912 -2.784,3.26023 0,0.26383 -0.303,0.59578 -0.673,0.73767 -1.036,0.39681 -4.641,5.71668 -8.195,12.09342 -3.195,5.7324 -5.118,10.67641 -6.025,15.48929 -0.261,1.38609 -0.894,3.43953 -1.405,4.56321 -2.395,5.2623 -3.289,7.43724 -3.604,8.76778 -0.187,0.79256 -0.951,3.49446 -1.699,6.00422 -2.911,9.77717 -3.375,13.11562 -2.236,16.09257 0.452,1.18231 1.463,2.651 2.247,3.26376 2.136,1.66843 1.152,3.55296 -1.154,2.21258 z m 11.872,-32.18334 c 0.558,-3.48202 1.533,-5.23672 2.91,-5.23672 0.675,0 1.227,0.10329 1.227,0.22953 0,0.12624 -0.527,1.36911 -1.171,2.76194 -0.645,1.39283 -1.288,2.91068 -1.428,3.37301 -0.141,0.46232 -0.616,0.84059 -1.055,0.84059 -0.665,0 -0.746,-0.32853 -0.483,-1.96835 z m 15.516,0.64616 c -0.292,-0.47126 0.901,-3.92573 1.594,-4.61808 0.921,-0.91998 1.432,0.59991 0.683,2.03312 -0.364,0.69591 -0.662,1.64356 -0.664,2.10588 0,0.83023 -1.18,1.17966 -1.613,0.47908 z m 16.523,-0.52181 c 0,-0.96663 2.285,-4.20556 3.247,-4.60248 1.015,-0.41884 0.684,1.53203 -0.607,3.574 -1.266,2.00171 -2.64,2.53713 -2.64,1.02848 z"
         id="path2" /></g></g></svg>
