<?xml version="1.0" encoding="UTF-8" standalone="no"?>
<!-- Created with Inkscape (http://www.inkscape.org/) -->

<svg
   width="231.38646"
   height="235.24007"
   viewBox="0 0 61.221 62.240601"
   version="1.1"
   id="svg1"
   xml:space="preserve"
   xmlns="http://www.w3.org/2000/svg"
   xmlns:svg="http://www.w3.org/2000/svg"><defs
     id="defs1" /><g
     id="g1349"
     transform="matrix(0.26458333,0,0,0.26458333,-3517.1998,-77.888032)"><path
       style="fill:#000000"
       d="m 13386.217,485.68487 c -0.506,-2.01501 -0.381,-12.71305 0.579,-49.40943 0.02,-0.79316 -0.08,-2.7082 -0.212,-4.25564 l -0.25,-2.81353 -1.417,0.28323 c -0.857,0.17143 -1.833,0.0146 -2.472,-0.39726 -0.58,-0.37427 -3.328,-0.93393 -6.106,-1.24368 -2.777,-0.30976 -6.505,-0.8615 -8.283,-1.22609 -1.777,-0.36459 -3.566,-0.53486 -3.974,-0.37838 -0.408,0.15649 -1.01,0.0728 -1.337,-0.18605 -0.565,-0.44714 -1.638,-0.60003 -10.696,-1.52514 -2.116,-0.21615 -4.173,-0.53079 -4.569,-0.69922 -0.397,-0.16842 -2.129,-0.50883 -3.848,-0.75646 -1.72,-0.24764 -4.967,-0.77973 -7.215,-1.18243 -2.249,-0.4027 -5.496,-0.98399 -7.215,-1.29175 -1.72,-0.30776 -3.711,-0.85514 -4.426,-1.21639 -2.62,-1.3251 -3.124,-0.97048 -3.491,2.4541 -0.184,1.711 -0.171,3.37472 0.03,3.69714 0.641,1.03708 0.153,27.55259 -0.565,30.68667 -0.152,0.66097 -0.356,3.46376 -0.454,6.22843 -0.161,4.54806 -0.272,5.06149 -1.167,5.3924 -0.544,0.20115 -0.989,0.58902 -0.989,0.86193 0,0.2729 -0.291,0.49619 -0.647,0.49619 -0.356,0 -1.042,0.43563 -1.524,0.96807 -0.676,0.7469 -1.236,0.90068 -2.45,0.6731 -1.022,-0.19172 -1.923,-0.0497 -2.574,0.4056 -0.55,0.38532 -1.515,0.60222 -2.145,0.48201 -1.13,-0.21595 -1.149,-0.31472 -1.546,-8.22368 -0.734,-14.63226 -0.02,-44.97352 1.228,-51.76127 0.326,-1.78154 -0.367,-8.04994 -1.181,-10.67746 -0.384,-1.24123 -0.485,-1.18726 5.166,-2.77724 2.194,-0.61738 5.505,-1.65513 7.356,-2.30611 3.46,-1.21603 3.953,-1.37872 14.19,-4.67773 3.307,-1.06571 6.393,-2.14885 6.858,-2.40696 1.771,-0.98279 7.922,-3.23558 10.458,-3.83017 1.455,-0.34117 5.134,-1.74385 8.176,-3.11706 3.043,-1.37321 6.939,-2.97879 8.658,-3.56795 1.72,-0.58915 4.534,-1.74123 6.253,-2.56016 3.25,-1.54765 6.745,-2.87823 16.724,-6.36588 3.245,-1.13438 6.167,-2.277 6.493,-2.53914 0.326,-0.26214 2.108,-1.01859 3.961,-1.68099 2.878,-1.02887 7.164,-2.83912 14.073,-5.94352 2.857,-1.28416 7.146,-1.79268 9.519,-1.12875 2.73,0.76399 2.796,1.58689 0.1,1.20521 -3.61,-0.51022 -8.779,0.4713 -12.791,2.4288 -4.063,1.98184 -10.086,4.5311 -10.706,4.5311 -0.218,0 -1.997,0.75917 -3.953,1.68704 -1.956,0.92787 -5.265,2.20711 -7.353,2.84275 -4.488,1.36589 -13.517,4.7526 -15.997,6.00028 -0.962,0.484 -3.156,1.36928 -4.876,1.96728 -1.719,0.598 -5.828,2.27652 -9.129,3.73004 -3.302,1.45352 -7.467,3.04794 -9.255,3.54316 -1.788,0.49522 -5.039,1.63093 -7.224,2.5238 -2.185,0.89288 -8.948,3.2942 -15.028,5.33627 -6.081,2.04208 -11.816,3.99688 -12.747,4.34402 -0.93,0.34713 -2.286,0.76186 -3.013,0.92162 -3.204,0.70356 -0.703,1.50251 12.145,3.88019 3.836,0.70989 9.355,2.02731 12.265,2.92762 5.6,1.73242 10.218,2.76217 14.833,3.30715 1.544,0.18238 4.033,0.72347 5.531,1.20242 2.431,0.77729 9.867,2.30766 13.065,2.68896 0.662,0.0788 2.177,0.39056 3.367,0.69268 1.191,0.30213 3.788,0.73182 5.772,0.95486 1.984,0.22305 6.205,0.9617 9.38,1.64144 6.862,1.46925 9.536,1.54997 11.791,0.35588 0.922,-0.4882 2.326,-1.03901 3.12,-1.22403 0.793,-0.18502 2.849,-0.8479 4.569,-1.47308 1.72,-0.62517 5.075,-1.82831 7.455,-2.67363 5.549,-1.96985 5.39,-1.91184 7.937,-2.90091 1.19,-0.46231 3.896,-1.47905 6.012,-2.25942 2.117,-0.78037 4.931,-1.85579 6.253,-2.38983 12.309,-4.96946 16.021,-5.95891 17.917,-4.77628 0.428,0.26665 0.602,-0.0174 0.602,-0.98374 0,-1.21876 0.309,-1.48147 3.005,-2.55205 1.653,-0.65639 3.439,-1.2411 3.969,-1.29937 2.896,-0.31877 3.362,-0.50141 3.226,-1.26477 -0.08,-0.43585 0.143,-0.79245 0.492,-0.79245 0.348,0 2.342,-0.65789 4.432,-1.46198 2.089,-0.80409 4.087,-1.35167 4.438,-1.21684 0.352,0.13482 0.639,0.0279 0.639,-0.23756 0,-0.64548 2.823,-1.80952 10.342,-4.26484 3.439,-1.12306 6.686,-2.22392 7.215,-2.44635 0.529,-0.22243 2.693,-0.98889 4.81,-1.70324 2.116,-0.71435 4.053,-1.48558 4.305,-1.71383 0.251,-0.22826 0.735,-0.41501 1.076,-0.41501 0.833,0 2.555,-1.51063 2.555,-2.24054 0,-0.33707 -0.968,-0.70571 -2.285,-0.8703 -1.256,-0.15705 -4.99,-0.83569 -8.297,-1.5081 -3.307,-0.6724 -7.96,-1.51764 -10.341,-1.87829 -4.793,-0.72595 -7.399,-1.40916 -12.712,-3.33202 -1.965,-0.71122 -5.537,-1.51429 -7.937,-1.78459 -2.399,-0.27031 -5.731,-0.90215 -7.404,-1.4041 -2.954,-0.88662 -5.918,-1.47854 -11.87,-2.37107 -4.158,-0.62354 -16.634,-3.23745 -16.947,-3.55092 -0.777,-0.776 1.631,-0.68624 5.433,0.20261 2.365,0.5527 6.247,1.30788 8.628,1.67815 6.284,0.97732 9.61,1.63211 13.949,2.74608 2.116,0.5434 5.688,1.19016 7.936,1.43723 2.491,0.27361 6.533,1.26243 10.342,2.52939 3.439,1.14409 7.443,2.22873 8.898,2.41031 1.455,0.18159 6.217,1.04383 10.582,1.91611 4.365,0.87228 9.141,1.72895 10.614,1.90371 l 2.677,0.31774 0.02,13.79667 c 0,7.58817 0.08,21.35773 0.147,30.59902 l 0.131,16.80236 -2.553,1.83534 c -1.404,1.00943 -2.769,1.76301 -3.035,1.67461 -1.237,-0.41228 -0.667,-1.38623 1.308,-2.23213 3.013,-1.29066 3.226,-1.88713 2.687,-7.51824 -0.26,-2.72125 -0.33,-12.72313 -0.163,-23.27833 0.313,-19.70446 0.282,-25.42842 -0.142,-26.11456 -0.609,-0.98418 -8.645,1.73355 -12.403,4.19456 -1.505,0.98545 -6.412,2.34768 -7.271,2.01839 -0.326,-0.12494 -0.711,0.0837 -0.857,0.46354 -0.146,0.37989 -0.581,0.6907 -0.967,0.6907 -0.386,0 -2.342,0.75711 -4.346,1.68246 -2.005,0.92535 -3.831,1.68245 -4.059,1.68245 -0.228,0 -0.93,0.38498 -1.561,0.85551 -0.631,0.47052 -2.338,1.25893 -3.793,1.75202 -1.455,0.49309 -2.986,1.18939 -3.404,1.54735 -0.417,0.35795 -2.257,1.09762 -4.088,1.64369 -1.832,0.54608 -3.871,1.27559 -4.532,1.62112 -0.662,0.34554 -2.069,0.89801 -3.127,1.22772 -1.058,0.3297 -2.573,0.86901 -3.367,1.19846 -0.794,0.32945 -2.417,0.98661 -3.607,1.46037 -1.191,0.47375 -3.464,1.44473 -5.051,2.15774 -1.587,0.71301 -3.439,1.42992 -4.115,1.59315 -0.676,0.16322 -2.3,0.78249 -3.608,1.37615 -1.308,0.59367 -3.005,1.14084 -3.771,1.21595 -0.767,0.0751 -1.661,0.35844 -1.988,0.62963 -0.327,0.27119 -2.514,1.03523 -4.86,1.69788 -6.812,1.92456 -12.238,3.59502 -15.087,4.64504 -1.455,0.53629 -4.377,1.61632 -6.493,2.40008 -2.117,0.78376 -4.795,1.67618 -5.952,1.98316 l -2.103,0.55814 0.269,3.21484 c 0.148,1.76816 0.08,3.28237 -0.146,3.36491 -0.228,0.0825 -0.535,4.26008 -0.681,9.28341 -0.146,5.02333 -0.394,12.48623 -0.552,16.58421 -0.157,4.09798 -0.331,11.66904 -0.387,16.82456 -0.09,8.46859 -0.02,9.46519 0.772,10.32135 0.777,0.84393 0.989,0.87372 1.94,0.2721 0.587,-0.37157 1.663,-0.9761 2.39,-1.3434 1.267,-0.63939 1.324,-0.82498 1.347,-4.35806 0.05,-7.45107 0.53,-30.35839 0.805,-38.25155 l 0.283,-8.12272 -1.277,0.32048 c -0.939,0.23552 -1.278,0.13733 -1.278,-0.37043 0,-0.37999 -0.129,-1.08714 -0.286,-1.57143 -0.205,-0.63194 -0.158,-0.70337 0.165,-0.25301 0.365,0.50681 0.905,0.44565 2.811,-0.31787 5.225,-2.09287 8.638,-3.56747 9.094,-3.92865 0.265,-0.20952 1.347,-0.53613 2.405,-0.72579 1.059,-0.18967 3.007,-0.83606 4.329,-1.43644 1.323,-0.60037 5.111,-2.1188 8.418,-3.37427 3.307,-1.25547 7.311,-2.80968 8.898,-3.45379 1.588,-0.64411 4.227,-1.67785 5.865,-2.29721 1.639,-0.61935 3.695,-1.44067 4.57,-1.82514 0.874,-0.38447 2.781,-1.16912 4.236,-1.74367 1.455,-0.57455 3.078,-1.22925 3.607,-1.45488 0.529,-0.22563 1.936,-0.77259 3.127,-1.21546 1.19,-0.44288 2.813,-1.09963 3.607,-1.45944 1.903,-0.86263 10.247,-4.07388 10.585,-4.07388 0.146,0 1.828,-0.7287 3.738,-1.61934 1.911,-0.89064 5.359,-2.28949 7.663,-3.10855 2.305,-0.81907 4.577,-1.71474 5.051,-1.99037 1.683,-0.97953 6.874,-2.32205 7.164,-1.85271 0.39,0.62966 0.581,0.52707 -5.154,2.75956 -2.818,1.09674 -5.458,1.8513 -5.893,1.68446 -0.45,-0.17276 -0.788,-0.0638 -0.788,0.25444 0,0.67825 -3.227,2.09296 -3.869,1.69628 -0.253,-0.15621 -0.46,-0.0874 -0.46,0.15294 0,0.40004 -5.53,2.98928 -6.378,2.98608 -0.201,-7.6e-4 -1.284,0.40884 -2.405,0.91022 -1.121,0.50138 -5.178,2.13089 -9.013,3.62112 -8.985,3.49032 -12.191,4.93422 -15.152,6.82238 -1.531,0.9767 -4.501,2.08985 -8.177,3.06443 -3.174,0.84181 -5.973,1.72294 -6.219,1.95808 -0.274,0.26213 -0.204,0.88134 0.181,1.60062 0.788,1.47148 0.324,4.31586 -1.026,6.29721 -1.917,2.81246 -6.04,4.9713 -6.885,3.60526 -0.422,-0.68367 -1.702,-0.59021 -3.296,0.24076 -0.755,0.39355 -1.567,0.59576 -1.804,0.44937 -0.609,-0.37626 -0.536,-1.53654 0.111,-1.75197 0.682,-0.22736 1.172,-4.963 0.553,-5.34557 -0.448,-0.27642 -3.527,0.78828 -11.544,3.99155 -4.045,1.61604 -4.926,2.52188 -4.084,4.20033 0.245,0.4895 0.266,2.9284 0.05,5.66641 -0.21,2.64386 -0.513,13.35149 -0.672,23.79473 -0.16,10.44325 -0.441,19.83522 -0.625,20.87105 -0.331,1.86069 -1.534,3.02715 -1.534,1.48731 0,-0.72552 -0.07,-0.72219 -0.834,0.038 -1.478,1.47715 -5.979,3.23219 -8.517,3.32114 -1.841,0.0645 -2.471,0.27963 -2.589,0.88388 -0.237,1.21838 -0.904,0.95283 -1.27,-0.50596 z m 2.628,-3.50241 c 0,-0.26439 -0.324,-0.48071 -0.721,-0.48071 -0.397,0 -0.722,0.21632 -0.722,0.48071 0,0.26438 0.325,0.4807 0.722,0.4807 0.397,0 0.721,-0.21632 0.721,-0.4807 z m 4.14,-0.20152 c 0.364,-0.94826 -1.184,-3.1634 -2.211,-3.1634 -0.601,0 -0.847,0.38015 -0.847,1.31288 0,1.97489 2.443,3.45304 3.058,1.85052 z m -4.14,-3.56398 c 0,-0.62591 -0.572,-1.04218 -1.037,-0.75489 -0.497,0.30726 -0.07,1.15547 0.585,1.15547 0.249,0 0.452,-0.18026 0.452,-0.40058 z m 2.104,-1.26553 c 0.475,1.2357 1.263,0.30754 1.263,-1.48682 0,-1.29766 -0.194,-1.65408 -0.903,-1.65408 -1.03,0 -2.147,1.11786 -1.632,1.63264 0.189,0.18834 0.05,0.52281 -0.306,0.74326 -0.376,0.23203 -0.491,0.65654 -0.274,1.00809 0.289,0.46668 0.513,0.42021 0.967,-0.20074 0.534,-0.72934 0.62,-0.73346 0.885,-0.0423 z m -2.104,-3.1409 c 0,-0.53412 -0.32,-0.96141 -0.721,-0.96141 -0.401,0 -0.722,0.42729 -0.722,0.96141 0,0.53411 0.321,0.9614 0.722,0.9614 0.401,0 0.721,-0.42729 0.721,-0.9614 z m 2.405,-1.16244 c 0,-0.11057 -0.131,-0.5432 -0.292,-0.96141 -0.418,-1.08928 -1.632,-0.93977 -1.632,0.20104 0,0.64093 0.321,0.9614 0.962,0.9614 0.529,0 0.962,-0.0905 0.962,-0.20103 z m 0.746,-4.02044 c -0.158,-0.15838 -0.623,0.0468 -1.032,0.45598 -0.672,0.67145 -0.659,0.82976 0.132,1.62473 0.848,0.85334 0.881,0.83913 1.032,-0.45597 0.09,-0.73523 0.03,-1.46636 -0.132,-1.62474 z m -3.151,0.84328 c 0,-0.24049 -0.323,-0.31321 -0.719,-0.16161 -0.395,0.1516 -0.596,0.47281 -0.447,0.7138 0.311,0.50406 1.166,0.0994 1.166,-0.55219 z m -74.073,-1.42882 c 0,-1.60351 -0.343,-1.76008 -1.694,-0.77308 -0.778,0.56844 -0.819,0.78528 -0.273,1.44211 1.04,1.25296 1.967,0.9378 1.967,-0.66903 z m 3.125,-0.95996 c 0.505,-0.55734 0.843,-1.61581 0.807,-2.52369 -0.03,-0.86005 0.143,-3.18609 0.393,-5.16899 1.113,-8.83792 1.731,-30.02725 0.973,-33.38754 -0.401,-1.78105 -0.394,-2.97509 0.03,-4.73125 0.474,-1.97507 0.449,-2.46375 -0.157,-3.07007 -0.855,-0.85401 -3.481,-0.96697 -6.963,-0.29955 l -2.516,0.48227 0.29,-1.24868 0.29,-1.24869 -1.088,1.04155 c -1.183,1.13344 -1.004,2.87064 0.246,2.39114 0.415,-0.15918 0.92,0.11966 1.216,0.67118 0.65,1.21428 1.454,1.20617 1.775,-0.0179 0.358,-1.37145 1.354,-1.18865 2.533,0.46487 0.926,1.3008 0.952,1.52307 0.294,2.52674 -0.471,0.71847 -0.651,1.85029 -0.519,3.26057 0.279,2.98209 0.29,4.80399 0.06,10.09168 -0.32,7.3696 -0.325,16.04666 -0.01,24.15526 0.306,7.9473 0.542,8.61005 2.352,6.6111 z m 72.872,0.2389 c 0,-0.39658 -0.204,-0.72105 -0.452,-0.72105 -0.607,0 -1.041,0.75066 -0.657,1.13471 0.542,0.54135 1.109,0.3297 1.109,-0.41366 z m -80.326,-0.66219 c 0,-0.9688 -1.279,-2.30574 -1.753,-1.8322 -0.158,0.15755 -0.148,0.83733 0.02,1.5106 0.354,1.41196 1.732,1.66772 1.732,0.3216 z m 78.193,-1.25699 c 0.344,-1.83439 0.04,-3.12819 -0.738,-3.12819 -0.274,0 -0.496,1.07288 -0.496,2.40351 0,2.76006 0.767,3.21059 1.234,0.72468 z m 3.732,1.00478 c 0.272,-0.7073 -0.04,-1.24876 -0.717,-1.24876 -0.22,0 -0.401,0.43264 -0.401,0.96141 0,1.10221 0.733,1.29054 1.118,0.28735 z m -78.127,-0.7269 c 0.817,-0.51731 0.355,-1.96396 -0.628,-1.96396 -0.904,0 -1.408,0.80775 -1.063,1.70548 0.306,0.79822 0.734,0.86367 1.691,0.25848 z m -2.836,-0.97419 c 0,-0.56716 -0.938,-1.17387 -1.283,-0.82954 -0.344,0.34434 0.263,1.28187 0.83,1.28187 0.249,0 0.453,-0.20354 0.453,-0.45233 z m 80.165,-0.78173 c 0.159,-0.41435 0.05,-0.98924 -0.236,-1.27752 -0.694,-0.69406 -2.054,0.38975 -1.687,1.34498 0.352,0.91637 1.561,0.87393 1.923,-0.0675 z m -78.884,-1.85819 c -0.159,-0.41435 -0.519,-0.75336 -0.8,-0.75336 -0.827,0 -1.162,1.50232 -0.435,1.95131 0.854,0.52719 1.614,-0.21066 1.235,-1.19795 z m -3.598,-0.37681 c -0.345,-0.34493 -0.569,-0.37331 -0.569,-0.0721 0,0.64163 0.569,1.21011 0.89,0.88929 0.136,-0.1366 0,-0.50433 -0.321,-0.81719 z m 5.684,-3.23239 c 0,-1.57071 -0.189,-2.97271 -0.421,-3.11556 -0.589,-0.364 -3.065,2.02457 -2.704,2.60861 0.163,0.26322 0.718,0.47858 1.233,0.47858 0.821,0 0.862,0.12203 0.333,0.97607 -0.501,0.80707 -0.481,1.05549 0.116,1.43475 1.273,0.80912 1.443,0.52807 1.443,-2.38245 z m 77.921,-0.0872 c 0,-1.46927 -0.108,-1.53428 -1.804,-1.08027 -1.369,0.36685 -1.56,2.88379 -0.24,3.18111 1.247,0.2809 2.044,-0.53882 2.044,-2.10084 z m -4.491,-0.0613 c -0.134,-0.33048 -0.243,-0.0601 -0.243,0.60088 0,0.66097 0.109,0.93136 0.243,0.60088 0.133,-0.33048 0.133,-0.87127 0,-1.20176 z m -78,-0.36052 c 0,-0.38934 -0.378,-0.78079 -0.841,-0.86989 -0.591,-0.11367 -0.842,0.14588 -0.842,0.86989 0,0.72401 0.251,0.98356 0.842,0.86989 0.463,-0.0891 0.841,-0.48055 0.841,-0.86989 z m 82.491,-3.13273 c 0,-0.81178 -0.752,-1.67429 -1.459,-1.67429 -0.901,0 -2.575,2.67469 -2.127,3.39915 0.209,0.33883 3.586,-1.28526 3.586,-1.72486 z m -80.46,0.60904 c 0.256,-0.33048 0.611,-1.0055 0.788,-1.50003 0.259,-0.72394 0.136,-0.85053 -0.633,-0.64963 -0.748,0.19564 -0.932,0.0307 -0.849,-0.76359 0.133,-1.27142 -1.329,-1.67142 -1.783,-0.48794 -0.207,0.53773 -0.03,1.06673 0.468,1.43372 0.438,0.31987 0.654,0.81229 0.479,1.09426 -0.352,0.56948 0.06,1.47409 0.671,1.47409 0.217,0 0.603,-0.27039 0.859,-0.60088 z m -2.538,-4.84877 c 0.313,-0.88478 0.282,-1.4577 -0.1,-1.83912 -0.762,-0.76178 -2.038,0.3271 -2.038,1.73944 0,2.12654 1.398,2.19173 2.138,0.0997 z m 83.318,0.36997 c 0.159,-0.41435 0.05,-0.98923 -0.236,-1.27752 -0.694,-0.69406 -2.054,0.38976 -1.687,1.34498 0.352,0.91637 1.561,0.87394 1.923,-0.0675 z m -3.206,-0.66037 c 0,-1.05127 -0.751,-1.7193 -1.171,-1.04099 -0.351,0.56831 0.177,1.97402 0.742,1.97402 0.236,0 0.429,-0.41986 0.429,-0.93303 z m -76.959,-0.26872 c 0,-0.39658 -0.325,-0.72105 -0.722,-0.72105 -0.751,0 -0.954,0.56852 -0.4,1.12163 0.553,0.55312 1.122,0.35007 1.122,-0.40058 z m 1.443,-1.68246 c 0,-1.01384 -0.7,-1.29358 -1.203,-0.4807 -0.35,0.56717 0.105,1.44211 0.75,1.44211 0.249,0 0.453,-0.43263 0.453,-0.96141 z m -3.263,-1.04953 c -0.735,-0.73428 -1.277,-0.19247 -0.869,0.86883 0.24,0.62664 0.449,0.68873 0.877,0.26109 0.428,-0.42765 0.426,-0.69637 0,-1.12992 z m 81.622,0.77214 c 0.379,-0.37859 -0.913,-2.63476 -1.676,-2.92745 -0.439,-0.1683 -1.159,0.0996 -1.688,0.62766 -0.859,0.8582 -0.869,0.99714 -0.146,2.0281 0.607,0.86663 1.051,1.0378 2.043,0.78886 0.697,-0.17486 1.357,-0.40758 1.467,-0.51717 z m -79.116,-1.96631 c 0.354,-0.92208 -0.06,-1.60191 -0.97,-1.60191 -0.842,0 -1.372,1.15522 -0.988,2.15505 0.322,0.83902 1.557,0.49004 1.958,-0.55314 z m -4.243,-0.99102 c -0.489,-0.48864 -0.893,0.24703 -0.492,0.89573 0.303,0.49004 0.417,0.49042 0.58,0.002 0.111,-0.33398 0.07,-0.73794 -0.09,-0.89767 z m 2.087,-1.04112 c 0.355,-0.66331 0.312,-1.05692 -0.16,-1.44803 -0.836,-0.69323 -1.887,0.44749 -1.453,1.57698 0.398,1.03797 1.014,0.98871 1.613,-0.12895 z m 78.429,-0.31919 c 0,-0.44756 0.505,-0.69269 1.428,-0.69269 1.026,0 1.355,0.18939 1.17,0.67243 -0.142,0.36984 -0.03,0.81524 0.255,0.98978 0.337,0.20774 0.514,-0.45729 0.514,-1.92562 0,-2.50227 -0.369,-2.57514 -2.908,-0.57436 -1.241,0.97823 -2.079,3.22356 -0.94,2.52023 0.265,-0.1634 0.481,-0.6088 0.481,-0.98977 z m -80.095,-3.59477 c -1.281,-2.47615 -2.009,-2.17537 -1.738,0.71791 0.112,1.20309 1.059,1.79355 1.839,1.14692 0.483,-0.40044 0.462,-0.7764 -0.101,-1.86483 z m 3.525,1.09945 c -0.09,-0.46267 -0.372,-0.84123 -0.63,-0.84123 -0.257,0 -0.54,0.37856 -0.63,0.84123 -0.101,0.52618 0.135,0.84123 0.63,0.84123 0.496,0 0.732,-0.31505 0.63,-0.84123 z m 1.373,-1.77032 c -0.159,-0.41435 -0.512,-0.75336 -0.785,-0.75336 -0.553,0 -0.68,1.57897 -0.167,2.09105 0.528,0.52772 1.269,-0.51312 0.952,-1.33769 z m -3.036,0.32292 c 0.125,-0.20121 -0.06,-0.75494 -0.406,-1.23052 -0.708,-0.96702 -1.479,-0.28946 -1.023,0.89831 0.288,0.74966 1.06,0.92919 1.429,0.33221 z m 81.504,-0.69172 c 0.905,-0.9049 0.677,-1.82667 -0.452,-1.82667 -0.945,0 -2.286,1.1799 -2.323,2.04299 -0.02,0.58218 2.145,0.41304 2.775,-0.21632 z m -80.322,-1.70649 c -0.09,-0.46268 -0.372,-0.84123 -0.63,-0.84123 -0.257,0 -0.54,0.37855 -0.63,0.84123 -0.101,0.52618 0.135,0.84123 0.63,0.84123 0.496,0 0.732,-0.31505 0.63,-0.84123 z m 77.051,-0.12018 c 0,-0.26438 0.314,-0.4807 0.698,-0.4807 0.383,0 0.87,-0.28671 1.082,-0.63713 0.212,-0.35042 0.763,-0.77626 1.226,-0.94631 1.069,-0.39241 1.159,-2.74287 0.106,-2.74287 -0.406,0 -0.862,0.32447 -1.014,0.72105 -0.152,0.39658 -0.693,0.72105 -1.202,0.72105 -0.509,0 -1.051,0.32447 -1.203,0.72105 -0.152,0.39658 -0.578,0.72106 -0.947,0.72106 -0.801,0 -0.829,0.24576 -0.172,1.4737 0.525,0.98051 1.426,1.26425 1.426,0.4491 z m -75.158,-2.648 c 0.148,-2.41321 -1.388,-4.57556 -2.677,-3.76812 -0.444,0.27804 -0.874,0.94811 -0.955,1.48902 -0.08,0.54092 -0.587,1.09836 -1.124,1.23877 -1.343,0.35096 -0.971,1.95934 0.502,2.16828 0.939,0.13325 1.099,-0.01 0.893,-0.79605 -0.194,-0.74345 0.03,-1.01298 1.016,-1.20153 1.32,-0.25357 2.191,0.1257 1.145,0.49894 -0.331,0.11803 -0.601,0.75322 -0.601,1.41154 0,0.88027 0.223,1.15473 0.842,1.03738 0.608,-0.1154 0.874,-0.69066 0.959,-2.07823 z m -5.168,-2.88007 c 0,-0.39658 -0.217,-0.72105 -0.481,-0.72105 -0.265,0 -0.481,0.32447 -0.481,0.72105 0,0.39658 0.216,0.72106 0.481,0.72106 0.264,0 0.481,-0.32448 0.481,-0.72106 z m 82.25,-0.74942 c 0,-1.12883 -0.62,-1.20265 -1.473,-0.17534 -0.521,0.6266 -0.514,0.82902 0.04,1.17003 0.88,0.54332 1.435,0.15835 1.435,-0.99469 z m -80.326,-1.41374 c 0,-1.22907 -0.724,-1.58703 -1.447,-0.71575 -0.472,0.5682 -0.472,0.86331 0,1.43151 0.723,0.87128 1.447,0.51332 1.447,-0.71576 z m 3.176,0.13019 c -0.488,-0.48864 -0.892,0.24703 -0.491,0.89574 0.303,0.49003 0.417,0.49041 0.58,0.002 0.111,-0.33398 0.07,-0.73793 -0.09,-0.89767 z m 79.074,0.0818 c 0,-0.38098 -0.216,-0.69269 -0.481,-0.69269 -0.264,0 -0.481,0.4454 -0.481,0.98978 0,0.54437 0.217,0.85608 0.481,0.69268 0.265,-0.1634 0.481,-0.6088 0.481,-0.98977 z m -3.025,-0.64698 c 0.473,-0.50364 1.402,-0.99035 2.063,-1.08158 0.813,-0.11207 1.213,-0.47778 1.234,-1.12728 0.06,-1.65861 -0.337,-1.79888 -1.647,-0.59059 -1.913,1.76336 -2.853,1.96234 -2.582,0.5467 0.158,-0.82442 0,-1.15787 -0.531,-1.15787 -0.83,0 -3.609,2.35928 -2.917,2.47673 0.237,0.0403 0.647,0.12347 0.912,0.1849 0.264,0.0614 0.751,0.13664 1.082,0.16713 0.331,0.0305 0.601,0.37993 0.601,0.7765 0,0.98673 0.752,0.90474 1.785,-0.19464 z m -80.742,-2.18388 c 0.106,-0.54801 -0.07,-0.77915 -0.481,-0.64139 -0.356,0.11845 -0.722,0.60091 -0.814,1.07213 -0.106,0.548 0.07,0.77914 0.481,0.64138 0.356,-0.11845 0.722,-0.60091 0.814,-1.07212 z m 3.698,0.58162 c 0.94,0.17952 1.186,0.0276 1.186,-0.73206 0,-1.28487 -1.036,-2.10738 -1.94,-1.54048 -0.388,0.24323 -1.084,0.32444 -1.547,0.18046 -0.463,-0.14397 -0.842,-0.12564 -0.842,0.0407 0,0.54488 1.68,2.5669 1.82,2.19117 0.08,-0.20149 0.671,-0.26441 1.323,-0.13982 z m 71.655,-0.36765 c 0.798,-0.3031 1.212,-0.77916 1.114,-1.2821 -0.261,-1.34588 -1.236,-1.24482 -1.715,0.17788 -0.444,1.31516 -0.462,1.32121 -0.802,0.26439 -0.192,-0.59487 -0.605,-1.07827 -0.917,-1.07422 -1.074,0.0139 -1.912,0.85743 -1.616,1.62658 0.335,0.87376 2.062,0.99983 3.936,0.28747 z m 41.375,-1.56088 c 1.968,-1.26483 3.17,-4.18184 2.203,-5.34666 -0.331,-0.39821 -0.441,-1.21833 -0.26,-1.93807 0.172,-0.68625 0.199,-1.24773 0.06,-1.24773 -0.62,0 -4.911,2.03013 -5.168,2.44476 -0.157,0.25374 -0.326,1.97064 -0.375,3.81532 -0.08,3.07671 -0.01,3.35395 0.884,3.35395 0.535,0 1.731,-0.48671 2.656,-1.08157 z m -48.93,0.024 c 0.917,-0.91594 0.673,-1.43954 -0.505,-1.08398 -0.883,0.26659 -0.971,0.21058 -0.481,-0.3041 0.829,-0.86989 0.752,-1.39999 -0.203,-1.39999 -1.108,0 -2.563,1.40594 -2.563,2.47801 0,0.6829 0.365,0.8869 1.588,0.8869 0.873,0 1.847,-0.25958 2.164,-0.57684 z m -5.195,-0.66016 c 0,-0.44765 -0.327,-0.69287 -0.802,-0.60088 -1.206,0.23389 -1.372,1.35718 -0.2,1.35718 0.591,0 1.002,-0.31038 1.002,-0.7563 z m 19.381,0.15542 c 1.409,-0.65401 1.759,-1.80263 0.549,-1.80263 -1.187,0 -2.614,0.92739 -2.614,1.69937 0,0.86061 0.391,0.88016 2.065,0.10326 z m 28.528,-0.71103 c -0.488,-0.48865 -0.892,0.24702 -0.491,0.89573 0.303,0.49003 0.417,0.49041 0.58,0.002 0.111,-0.33398 0.07,-0.73793 -0.09,-0.89766 z m -50.712,0.0356 c 1.026,-0.92778 1.138,-1.60795 0.265,-1.60795 -0.95,0 -2.802,1.45364 -2.492,1.9557 0.415,0.67138 1.243,0.54216 2.227,-0.34775 z m 18.502,0.0745 c 0.153,-0.39658 0.585,-0.72106 0.962,-0.72106 0.377,0 0.81,-0.32447 0.962,-0.72105 0.153,-0.39658 0.579,-0.72105 0.947,-0.72105 0.369,0 0.67,-0.2335 0.67,-0.5189 0,-0.61281 -3.037,-0.0793 -3.287,0.57736 -0.09,0.23223 -0.454,0.42224 -0.813,0.42224 -0.855,0 -1.345,0.82842 -1.008,1.70548 0.349,0.90776 1.215,0.89504 1.567,-0.023 z m -76.064,-0.24035 c 0.164,-0.26439 0.07,-0.48071 -0.212,-0.48071 -0.28,0 -0.509,0.21632 -0.509,0.48071 0,0.26438 0.09,0.4807 0.212,0.4807 0.117,0 0.346,-0.21632 0.509,-0.4807 z m 53.03,-0.12018 c -0.11,-0.33048 -0.381,-0.60088 -0.601,-0.60088 -0.221,0 -0.491,0.2704 -0.601,0.60088 -0.111,0.33048 0.16,0.60088 0.601,0.60088 0.441,0 0.711,-0.2704 0.601,-0.60088 z m -2.886,-0.4807 c -0.11,-0.33048 -0.56,-0.67067 -1,-0.75598 -0.558,-0.10815 -0.712,0.0737 -0.51,0.60088 0.341,0.88865 1.805,1.03895 1.51,0.1551 z m 18.789,-0.48622 c 0.09,-0.48376 -0.133,-0.83571 -0.537,-0.83571 -0.859,0 -1.892,1.16747 -1.436,1.62313 0.575,0.57531 1.805,0.0847 1.973,-0.78742 z m -71.097,0.12569 c 0,-0.26438 0.433,-0.4807 0.962,-0.4807 1.071,0 1.27,-0.94208 0.385,-1.82667 -0.781,-0.78057 -1.347,-0.72633 -1.347,0.12913 0,0.43003 -0.282,0.59781 -0.722,0.42927 -0.527,-0.20235 -0.721,0.06 -0.721,0.97649 0,0.79347 0.265,1.25318 0.721,1.25318 0.397,0 0.722,-0.21631 0.722,-0.4807 z m 49.287,0.0241 c 0.155,-0.25112 -0.162,-0.6941 -0.704,-0.98439 -0.759,-0.40574 -1.146,-0.36896 -1.674,0.15901 -0.378,0.37774 -0.554,0.82072 -0.39,0.98439 0.464,0.46382 2.454,0.34954 2.768,-0.15901 z m 14.685,-0.0241 c 0,-0.26438 -0.09,-0.4807 -0.212,-0.4807 -0.116,0 -0.346,0.21632 -0.509,0.4807 -0.164,0.26439 -0.07,0.4807 0.212,0.4807 0.28,0 0.509,-0.21631 0.509,-0.4807 z m -5.099,-1.09526 c 0.407,-0.65678 0.368,-0.95597 -0.17,-1.29096 -0.844,-0.52619 -3.389,0.82474 -3.389,1.79927 0,0.95509 2.91,0.53947 3.559,-0.50831 z m -53.883,0.23108 c 0.131,-0.21091 0.05,-0.68371 -0.175,-1.05067 -0.341,-0.55176 -0.544,-0.5584 -1.171,-0.0384 -0.417,0.34585 -0.758,0.81865 -0.758,1.05067 0,0.52701 1.782,0.5595 2.104,0.0384 z m 33.49,-0.0972 c 0,-0.26439 -0.23,-0.4807 -0.51,-0.4807 -0.28,0 -0.375,0.21631 -0.212,0.4807 0.164,0.26438 0.393,0.4807 0.509,0.4807 0.117,0 0.213,-0.21632 0.213,-0.4807 z m 24.049,-0.50907 c 0,-0.24879 -0.324,-0.45233 -0.721,-0.45233 -0.744,0 -0.956,0.56721 -0.414,1.10856 0.384,0.38405 1.135,-0.0501 1.135,-0.65623 z m 7.215,-0.50449 c 0,-0.85595 -1.663,-0.22501 -1.841,0.69844 -0.144,0.74988 -0.02,0.79842 0.836,0.33809 0.553,-0.29562 1.005,-0.76207 1.005,-1.03653 z m 4.979,-0.34052 c 0.534,-0.0914 0.763,0.0527 0.573,0.36052 -0.175,0.28207 0,0.51286 0.381,0.51286 0.384,0 0.832,-0.34884 0.996,-0.77519 0.245,-0.63789 0.428,-0.66704 1.034,-0.16459 0.523,0.434 0.885,0.46173 1.251,0.0959 0.366,-0.36587 -0.267,-0.76098 -2.187,-1.36608 -2.633,-0.82939 -2.722,-0.82737 -3.452,0.0785 -0.532,0.66004 -0.822,0.75546 -1,0.32891 -0.362,-0.86952 -2.094,-0.74335 -2.094,0.15256 0,0.55235 0.276,0.66585 1.035,0.42523 0.84,-0.26653 0.976,-0.17412 0.72,0.49169 -0.514,1.33743 0.224,1.969 1.088,0.93136 0.42,-0.5056 1.165,-0.98781 1.655,-1.07159 z m -29.028,0.87338 c 0,-0.26439 -0.338,-0.4807 -0.75,-0.4807 -0.413,0 -0.616,0.21631 -0.453,0.4807 0.164,0.26438 0.501,0.4807 0.75,0.4807 0.249,0 0.453,-0.21632 0.453,-0.4807 z m 7.695,-0.0514 c 0,-0.29268 0.277,-0.42609 0.615,-0.29648 0.999,0.38302 3.273,-1.69385 2.762,-2.52144 -0.376,-0.6077 -0.66,-0.59307 -2.135,0.11025 -1.174,0.55948 -1.615,1.03851 -1.42,1.54469 0.18,0.47023 0,0.73371 -0.492,0.73371 -0.425,0 -0.773,0.21631 -0.773,0.4807 0,0.26438 0.325,0.4807 0.722,0.4807 0.397,0 0.721,-0.23946 0.721,-0.53213 z m 12.266,0.0514 c 0.163,-0.26439 0.07,-0.4807 -0.212,-0.4807 -0.28,0 -0.51,0.21631 -0.51,0.4807 0,0.26438 0.1,0.4807 0.212,0.4807 0.117,0 0.346,-0.21632 0.51,-0.4807 z m -15.361,-0.43033 c -0.146,-0.23669 0.06,-0.55437 0.453,-0.70597 1.033,-0.39634 0.886,-1.26721 -0.215,-1.26721 -1.228,0 -1.701,0.82749 -0.973,1.70351 0.636,0.76599 1.161,0.9586 0.735,0.26967 z m -17.859,-0.48071 c 0.146,-0.23668 -0.04,-0.54625 -0.406,-0.68793 -0.705,-0.27047 -1.246,0.0412 -1.246,0.71768 0,0.53683 1.316,0.51313 1.652,-0.0298 z m 8.208,-0.0504 c -0.163,-0.26438 -0.596,-0.4807 -0.962,-0.4807 -0.366,0 -0.798,0.21632 -0.962,0.4807 -0.169,0.27372 0.245,0.48071 0.962,0.48071 0.717,0 1.131,-0.20699 0.962,-0.48071 z m 24.208,-0.65005 c 0.123,-0.63505 -0.08,-0.83231 -0.71,-0.71001 -0.484,0.0931 -0.956,0.56506 -1.05,1.04871 -0.122,0.63505 0.08,0.83231 0.711,0.71001 0.484,-0.0931 0.956,-0.56506 1.049,-1.04871 z m 45.536,0.65005 c 0.164,-0.26438 -0.03,-0.4807 -0.424,-0.4807 -0.397,0 -0.855,0.21632 -1.019,0.4807 -0.163,0.26439 0.03,0.48071 0.425,0.48071 0.396,0 0.855,-0.21632 1.018,-0.48071 z m -63.972,-0.4807 c -1.324,-0.56856 -1.795,-0.56856 -1.443,0 0.164,0.26439 0.772,0.4655 1.351,0.44692 1.016,-0.0326 1.019,-0.0486 0.09,-0.44692 z m 14.67,0.27967 c 0,-0.75333 -0.689,-1.72177 -1.225,-1.72177 -0.806,0 -1.332,0.8074 -0.939,1.4421 0.283,0.45792 2.164,0.70099 2.164,0.27967 z m 6.995,-0.31165 c 0.564,-0.91206 -0.259,-1.13712 -1.097,-0.29993 -0.75,0.74938 -0.751,0.81261 -0.02,0.81261 0.438,0 0.939,-0.2307 1.114,-0.51268 z m -41.386,-0.92942 c 0,-1.0831 -2.349,-0.9398 -2.561,0.15617 -0.136,0.70932 0.09,0.84734 1.196,0.72106 0.823,-0.0942 1.365,-0.44238 1.365,-0.87723 z m 3.127,0.4807 c 0,-0.26439 -0.325,-0.4807 -0.722,-0.4807 -0.397,0 -0.721,0.21631 -0.721,0.4807 0,0.26439 0.324,0.4807 0.721,0.4807 0.397,0 0.722,-0.21631 0.722,-0.4807 z m -7.755,-0.43432 c 0.843,-0.53348 0.278,-1.48849 -0.88,-1.48849 -1.026,0 -1.685,1.26914 -0.838,1.61345 0.849,0.345 0.992,0.33455 1.718,-0.12496 z m 25.07,-0.0464 c 0,-0.26439 -0.229,-0.4807 -0.509,-0.4807 -0.28,0 -0.376,0.21631 -0.212,0.4807 0.163,0.26438 0.393,0.4807 0.509,0.4807 0.117,0 0.212,-0.21632 0.212,-0.4807 z m 1.924,0 c 0,-0.26439 -0.337,-0.4807 -0.749,-0.4807 -0.413,0 -0.617,0.21631 -0.453,0.4807 0.163,0.26438 0.501,0.4807 0.75,0.4807 0.249,0 0.452,-0.21632 0.452,-0.4807 z m 13.874,-0.69177 c 0.267,-1.37729 -0.754,-2.05043 -1.691,-1.11439 -0.666,0.66572 -0.693,0.92149 -0.164,1.55769 0.766,0.92266 1.63,0.71614 1.855,-0.4433 z m 3.837,-0.18711 c 0.114,-0.77622 -0.1,-1.04393 -0.814,-1.04393 -0.532,0 -1.101,-0.21631 -1.264,-0.4807 -0.164,-0.26439 -0.501,-0.4807 -0.75,-0.4807 -0.249,0 -0.453,0.21631 -0.453,0.4807 0,0.26439 0.325,0.4807 0.722,0.4807 0.397,0 0.721,0.39658 0.721,0.88129 0,1.82745 1.572,1.96657 1.838,0.16264 z m -47.051,-0.5916 c 0,-0.24878 -0.217,-0.45233 -0.481,-0.45233 -0.265,0 -0.481,0.33724 -0.481,0.74942 0,0.41219 0.216,0.61573 0.481,0.45234 0.264,-0.1634 0.481,-0.50064 0.481,-0.74943 z m 11.063,0.50907 c 0,-0.26438 -0.217,-0.4807 -0.481,-0.4807 -0.265,0 -0.481,0.21632 -0.481,0.4807 0,0.26439 0.216,0.48071 0.481,0.48071 0.264,0 0.481,-0.21632 0.481,-0.48071 z m 3.848,0 c 0,-0.26438 -0.312,-0.4807 -0.693,-0.4807 -0.382,0 -0.827,0.21632 -0.991,0.4807 -0.163,0.26439 0.149,0.48071 0.693,0.48071 0.545,0 0.991,-0.21632 0.991,-0.48071 z m 9.86,0 c -0.163,-0.26438 -0.705,-0.4807 -1.202,-0.4807 -0.498,0 -1.039,0.21632 -1.203,0.4807 -0.174,0.28121 0.325,0.48071 1.203,0.48071 0.877,0 1.376,-0.1995 1.202,-0.48071 z m 9.623,-0.48364 c 0.48,-0.5304 0.731,-1.10633 0.557,-1.27984 -0.512,-0.51192 -2.725,0.71651 -2.725,1.51283 0,1.03044 1.134,0.90859 2.168,-0.23299 z m 16.11,0.48364 c 0,-0.26438 -0.09,-0.4807 -0.212,-0.4807 -0.117,0 -0.346,0.21632 -0.509,0.4807 -0.164,0.26439 -0.07,0.48071 0.212,0.48071 0.28,0 0.509,-0.21632 0.509,-0.48071 z m -55.009,-1.24152 c -1.33,-1.16865 -2.981,-1.42968 -2.789,-0.44093 0.09,0.45372 2.644,1.58436 3.686,1.63069 0.265,0.0118 -0.139,-0.52363 -0.897,-1.18976 z m 13.644,0.28012 c 0,-0.62642 -1.244,-0.90213 -1.968,-0.43623 -0.583,0.37529 -0.583,0.49718 0,0.87246 0.724,0.46591 1.968,0.19019 1.968,-0.43623 z m 9.716,0.38456 c -0.449,-0.44865 -0.706,-0.44865 -1.155,0 -0.449,0.44866 -0.32,0.57684 0.578,0.57684 0.897,0 1.026,-0.12818 0.577,-0.57684 z m 10.692,0.15061 c 0.145,-0.23443 -0.04,-0.67757 -0.41,-0.98475 -0.749,-0.62185 -1.517,0.0927 -0.999,0.93028 0.368,0.59517 1.058,0.62185 1.409,0.0545 z m 9.175,-0.0579 c 0.165,-0.26626 -0.05,-0.61745 -0.473,-0.78044 -0.921,-0.35318 -1.435,0.036 -0.992,0.75185 0.4,0.64586 1.075,0.65905 1.465,0.0286 z m -21.406,-1.73792 c 0,-0.77549 -1.245,-0.89164 -1.698,-0.15847 -0.171,0.27704 -0.182,0.84219 -0.02,1.25589 0.234,0.60792 0.426,0.63831 1.005,0.15847 0.393,-0.32653 0.716,-0.89169 0.716,-1.25589 z m 8.046,0.97019 c -0.16,-0.15974 -0.574,-0.17681 -0.922,-0.038 -0.383,0.15345 -0.269,0.26735 0.291,0.29042 0.507,0.0209 0.791,-0.0927 0.631,-0.25247 z m 7.089,-0.65308 c 0.47,-0.51892 0.726,-1.27603 0.57,-1.68245 -0.396,-1.03193 -1.923,-0.92148 -2.951,0.21343 -0.706,0.77939 -0.752,1.08499 -0.256,1.68245 0.816,0.98314 1.611,0.91878 2.637,-0.21343 z m 8.37,0.29839 c 0.674,-0.81103 0.228,-1.2777 -1.219,-1.2777 -1.239,0 -1.427,0.46485 -0.545,1.34597 0.741,0.74105 1.104,0.72702 1.764,-0.0683 z m -35.29,-0.31629 c 0.379,-0.61203 -0.736,-0.61203 -1.683,0 -0.587,0.37883 -0.525,0.46735 0.332,0.47334 0.58,0.004 1.188,-0.20896 1.351,-0.47334 z m 7.937,0 c 0,-0.26439 -0.325,-0.4807 -0.722,-0.4807 -0.397,0 -0.721,0.21631 -0.721,0.4807 0,0.26438 0.324,0.4807 0.721,0.4807 0.397,0 0.722,-0.21632 0.722,-0.4807 z m 9.486,-0.0586 c 0.677,-0.67635 0.258,-1.86423 -0.656,-1.86423 -1.01,0 -3.093,1.47745 -2.785,1.97539 0.376,0.60902 2.798,0.53078 3.441,-0.11116 z m 4.653,-0.22515 c 0.162,-0.42044 0.165,-0.97173 0,-1.2251 -0.368,-0.59526 -1.642,0.43455 -1.642,1.32734 0,0.91473 1.273,0.83501 1.633,-0.10224 z m -42.097,-0.43733 c 0.145,-0.58195 -0.604,-0.41349 -0.802,0.18027 -0.121,0.36353 0,0.52577 0.261,0.36052 0.264,-0.16524 0.508,-0.40859 0.541,-0.54079 z m 5.832,0.24036 c 0,-0.26439 -0.217,-0.48071 -0.481,-0.48071 -0.265,0 -0.481,0.21632 -0.481,0.48071 0,0.26438 0.216,0.4807 0.481,0.4807 0.264,0 0.481,-0.21632 0.481,-0.4807 z m 45.48,-0.0419 c 0.495,-0.80153 -0.619,-1.72068 -1.283,-1.05754 -0.555,0.55469 -0.208,1.58013 0.535,1.58013 0.234,0 0.57,-0.23517 0.748,-0.52259 z m -48.015,-0.24854 c -0.16,-0.15973 -0.575,-0.17681 -0.922,-0.0379 -0.384,0.15345 -0.27,0.26736 0.29,0.29043 0.507,0.0209 0.791,-0.0927 0.632,-0.25248 z m 22.737,-0.43063 c 0,-0.44865 -0.455,-0.72105 -1.203,-0.72105 -1.258,0 -1.636,0.70651 -0.601,1.12375 1.145,0.46195 1.804,0.315 1.804,-0.4027 z m 3.367,0.24035 c 0,-0.26438 -0.217,-0.4807 -0.481,-0.4807 -0.265,0 -0.481,0.21632 -0.481,0.4807 0,0.26439 0.216,0.48071 0.481,0.48071 0.264,0 0.481,-0.21632 0.481,-0.48071 z m -18.278,-1.74131 c 0,-0.86355 -0.692,-0.84519 -1.426,0.0378 -0.792,0.9541 -0.168,1.94626 0.747,1.18729 0.373,-0.30959 0.679,-0.86089 0.679,-1.22509 z m 10.802,1.29383 c 0.517,-0.83707 -0.79,-1.11195 -1.572,-0.33045 -0.717,0.71678 -0.697,0.77793 0.258,0.77793 0.57,0 1.161,-0.20136 1.314,-0.44748 z m 12.368,-0.34807 c 0.813,-0.73576 1.216,-2.08866 0.622,-2.08866 -0.693,0 -2.628,1.63344 -2.628,2.21845 0,0.90002 0.934,0.83956 2.006,-0.12979 z m -39.043,0.11382 c 0,-0.11057 0.131,-0.5432 0.292,-0.96141 0.424,-1.10522 -0.646,-0.93356 -1.254,0.20104 -0.411,0.76734 -0.366,0.9614 0.224,0.9614 0.406,0 0.738,-0.0905 0.738,-0.20103 z m 20.408,-0.2247 c 0.145,-0.23416 -0.28,-0.52962 -0.945,-0.65659 -1.202,-0.22959 -1.92,0.18802 -1.332,0.77492 0.453,0.4528 1.973,0.37382 2.277,-0.11833 z m 24.755,-0.0138 c 0.378,-0.23875 0.539,-0.76986 0.369,-1.21259 -0.186,-0.48379 -0.01,-0.89929 0.451,-1.07681 0.609,-0.2332 0.63,-0.36759 0.113,-0.6955 -1.102,-0.69812 -2.052,-0.43598 -2.967,0.81869 -0.701,0.96194 -0.762,1.35257 -0.301,1.9077 0.659,0.79459 1.365,0.87266 2.335,0.25851 z m 3.898,-0.52185 c 0.435,-0.81065 0.366,-0.9614 -0.435,-0.9614 -1.072,0 -1.695,0.71974 -1.248,1.4421 0.466,0.75426 1.122,0.56693 1.683,-0.4807 z m -38.72,-0.51418 c 0,-0.37092 -0.378,-0.74731 -0.841,-0.83641 -0.83,-0.15958 -1.172,0.86043 -0.511,1.52084 0.504,0.50387 1.352,0.0745 1.352,-0.68443 z m 3.367,0.0335 c 0.164,-0.26439 0.07,-0.4807 -0.212,-0.4807 -0.28,0 -0.509,0.21631 -0.509,0.4807 0,0.26438 0.09,0.4807 0.212,0.4807 0.117,0 0.346,-0.21632 0.509,-0.4807 z m 19.418,-0.16441 c 0.294,-0.35481 0.393,-0.78744 0.219,-0.9614 -0.579,-0.57801 -2.561,-0.32668 -2.561,0.32464 0,1.35084 1.426,1.73877 2.342,0.63676 z m 4.438,-0.34903 c 1.705,-1.21389 1.785,-1.89007 0.221,-1.89007 -1.187,0 -2.849,1.72985 -2.383,2.48185 0.36,0.58216 0.607,0.51439 2.162,-0.59178 z m -8.704,-0.20762 c 0,-0.39657 -0.204,-0.72105 -0.453,-0.72105 -0.606,0 -1.041,0.75066 -0.657,1.13471 0.542,0.54136 1.11,0.32971 1.11,-0.41366 z m -25.016,-1.33701 c 0,-0.72567 -1.541,-0.95878 -1.961,-0.29531 -0.84,1.32499 -0.531,1.82429 0.759,1.22657 0.659,-0.30561 1.2,-0.72467 1.202,-0.93126 z m 1.928,0.81625 c 0,-0.84888 -1.036,-0.70105 -1.333,0.19028 -0.105,0.31396 0.152,0.57084 0.571,0.57084 0.419,0 0.762,-0.3425 0.762,-0.76112 z m 12.025,0.0684 c 0,-0.38097 -0.202,-0.81713 -0.448,-0.96924 -0.572,-0.35321 -1.147,0.54693 -0.755,1.18122 0.443,0.71523 1.203,0.58122 1.203,-0.21198 z m 5.507,-0.30273 c 0.288,-0.28145 0.247,-0.65649 -0.11,-1.01382 -0.436,-0.4357 -0.849,-0.41688 -1.78,0.0812 -1.706,0.91255 -1.627,2.1346 0.11,1.70575 0.728,-0.17956 1.529,-0.52749 1.78,-0.77316 z m 18.913,0.12414 c 0.107,-0.31886 -0.252,-0.57083 -0.811,-0.57083 -1,0 -1.299,0.50477 -0.672,1.13165 0.446,0.44536 1.249,0.14165 1.483,-0.56082 z m -15.712,-0.71321 c -0.618,-0.61698 -1.244,-0.14013 -0.787,0.59894 0.177,0.28629 0.543,0.38442 0.812,0.21808 0.328,-0.20292 0.32,-0.47179 -0.02,-0.81702 z m -13.903,-0.91516 c -0.449,-0.44866 -0.71,-0.44421 -1.174,0.02 -0.476,0.47535 -0.452,0.68658 0.116,1.03753 0.964,0.59577 1.838,-0.27768 1.058,-1.05754 z m 23.166,0.81719 c 0.207,-0.54115 -0.08,-0.72105 -1.151,-0.72105 -1.366,0 -1.795,0.43454 -1.108,1.12163 0.582,0.58114 1.977,0.33372 2.259,-0.40058 z m -25.452,-1.24281 c -0.155,-0.25043 -0.487,-0.3287 -0.737,-0.17392 -0.251,0.15477 -0.329,0.4863 -0.174,0.73673 0.155,0.25043 0.486,0.3287 0.737,0.17392 0.25,-0.15477 0.329,-0.4863 0.174,-0.73673 z m 20.949,0.60187 c 0,-0.6773 -0.542,-0.98803 -1.25,-0.71662 -1.004,0.38497 -0.815,1.11721 0.288,1.11721 0.529,0 0.962,-0.18026 0.962,-0.40059 z m -23.569,-0.29209 c 0,-0.50737 -0.923,-0.72053 -1.198,-0.27657 -0.166,0.2687 0.04,0.48855 0.448,0.48855 0.412,0 0.75,-0.0954 0.75,-0.21198 z m 13.842,-0.96363 c 0.569,-0.56856 -1.352,-0.77242 -2.334,-0.24759 -0.933,0.4991 -1.032,0.46837 -0.761,-0.23646 0.241,-0.62767 0.08,-0.77557 -0.731,-0.6568 -1.376,0.20239 -1.747,1.35505 -0.436,1.35505 0.551,0 1.002,0.20122 1.002,0.44715 0,0.43015 2.72,-0.12167 3.26,-0.66135 z m -15.807,-0.0652 c 0.111,-0.1107 0.08,-0.31996 -0.06,-0.46502 -0.412,-0.41195 -2.782,0.31099 -2.782,0.84867 0,0.43813 2.338,0.12282 2.845,-0.38365 z m 9.422,0.27603 c 0.165,-0.26626 -0.05,-0.61745 -0.473,-0.78044 -0.921,-0.35318 -1.434,0.036 -0.991,0.75185 0.399,0.64586 1.075,0.65905 1.464,0.0286 z m 10.941,-0.23696 c -0.179,-0.71423 -2.652,-0.58238 -2.897,0.15447 -0.154,0.4607 0.231,0.59275 1.402,0.48071 0.889,-0.085 1.561,-0.37079 1.495,-0.63518 z m -24.17,-1.02026 c 0,-1.06604 -0.111,-1.16825 -0.722,-0.66219 -0.396,0.32913 -0.721,0.8964 -0.721,1.26061 0,0.36421 0.325,0.66219 0.721,0.66219 0.458,0 0.722,-0.46053 0.722,-1.26061 z m 7.566,-0.30167 c -0.116,-0.33048 -0.589,-0.53233 -1.051,-0.44855 -0.498,0.0903 -0.711,-0.0564 -0.523,-0.36053 0.186,-0.2999 -0.09,-0.51285 -0.673,-0.51285 -1.211,0 -1.289,0.73956 -0.148,1.4036 1.186,0.69056 2.648,0.64073 2.395,-0.0817 z m 3.858,-0.24035 c 0.117,-0.35244 -0.214,-0.60088 -0.802,-0.60088 -0.591,0 -1.002,0.31039 -1.002,0.7563 0,0.88347 1.501,0.75416 1.804,-0.15542 z m -9.5,-0.60088 c 0,-0.26438 -0.229,-0.4807 -0.509,-0.4807 -0.281,0 -0.376,0.21632 -0.213,0.4807 0.164,0.26439 0.393,0.48071 0.51,0.48071 0.116,0 0.212,-0.21632 0.212,-0.48071 z m -3.127,-0.99487 c 0,-0.37093 -0.378,-0.74732 -0.841,-0.83642 -0.829,-0.15958 -1.172,0.86043 -0.511,1.52084 0.504,0.50388 1.352,0.0745 1.352,-0.68442 z m 20.683,0.0335 c -0.163,-0.26439 -0.609,-0.4807 -0.99,-0.4807 -0.381,0 -0.693,0.21631 -0.693,0.4807 0,0.26439 0.445,0.4807 0.99,0.4807 0.545,0 0.857,-0.21631 0.693,-0.4807 z m -20.923,-3.60526 c 0,-0.39658 -0.325,-0.72106 -0.722,-0.72106 -0.396,0 -0.721,0.32448 -0.721,0.72106 0,0.39658 0.325,0.72105 0.721,0.72105 0.397,0 0.722,-0.32447 0.722,-0.72105 z m 184.062,35.38145 c -1.639,-2.2801 -1.702,-2.53165 -2.023,-8.05175 -0.273,-4.6897 -0.727,-19.061 -0.689,-21.80163 0,-0.39658 0.221,-3.425 0.48,-6.72983 0.258,-3.30482 0.465,-6.60364 0.46,-7.3307 0,-0.79928 0.251,-1.32193 0.647,-1.32193 0.361,0 1.377,-0.35953 2.258,-0.79896 1.523,-0.75931 1.55,-0.81817 0.555,-1.18626 -1.603,-0.59271 -1.309,-2.05369 0.55,-2.72523 0.878,-0.3175 1.707,-0.57727 1.842,-0.57727 0.134,0 0.269,1.08684 0.299,2.4152 0.03,1.48027 -0.129,2.30162 -0.42,2.12178 -0.696,-0.43011 -1.876,0.71779 -1.876,1.82556 0,0.78567 0.253,0.91995 1.414,0.74969 1.41,-0.20677 1.415,-0.19829 1.677,2.70948 0.144,1.60429 0.343,8.75742 0.441,15.89584 0.189,13.75278 -0.345,25.49673 -1.206,26.53445 -1.09,1.31253 -2.667,0.6944 -4.409,-1.72844 z m 2.293,-0.96091 c 0.146,-0.23668 -0.06,-0.55436 -0.453,-0.70596 -0.395,-0.1516 -0.719,-0.68857 -0.719,-1.19327 0,-1.08748 -1.221,-2.26414 -1.642,-1.58277 -0.359,0.57991 0.127,1.97555 1.068,3.07111 0.802,0.93255 1.344,1.06021 1.746,0.41089 z m 1.873,-2.09335 c 0.157,-0.85925 0.427,-2.04899 0.6,-2.64386 0.204,-0.69944 0.11,-1.08158 -0.267,-1.08158 -0.32,0 -0.695,0.43263 -0.833,0.96141 -0.139,0.52877 -0.551,0.9614 -0.917,0.9614 -0.822,0 -0.835,0.40661 -0.07,2.06357 0.79,1.69809 1.136,1.63705 1.482,-0.26094 z m -4.007,-4.68684 c 0,-0.52877 -0.216,-0.96141 -0.481,-0.96141 -0.264,0 -0.481,0.43264 -0.481,0.96141 0,0.52877 0.217,0.9614 0.481,0.9614 0.265,0 0.481,-0.43263 0.481,-0.9614 z m 3.615,-0.0231 c 0.172,-0.54146 0.05,-1.30402 -0.277,-1.69458 -0.518,-0.62339 -0.697,-0.61318 -1.467,0.0836 -0.669,0.60509 -0.763,1.00776 -0.395,1.69458 0.637,1.19048 1.748,1.14707 2.139,-0.0836 z m -2.172,-2.86114 c 0,-0.26439 -0.216,-0.4807 -0.481,-0.4807 -0.264,0 -0.481,0.21631 -0.481,0.4807 0,0.26438 0.217,0.4807 0.481,0.4807 0.265,0 0.481,-0.21632 0.481,-0.4807 z m 3.367,-0.4807 c 0,-0.52878 -0.204,-0.96141 -0.452,-0.96141 -0.646,0 -1.101,0.87494 -0.75,1.44211 0.502,0.81288 1.202,0.53314 1.202,-0.4807 z m -5.1,-1.72584 c 0.352,-0.91841 -0.08,-1.76419 -0.705,-1.3782 -0.572,0.35347 -0.588,2.14263 -0.02,2.14263 0.236,0 0.561,-0.34399 0.723,-0.76443 z m 3.571,-0.56456 c 0.206,-1.44687 -1.27,-2.02054 -2.14,-0.83153 -0.486,0.66516 -0.51,1.04118 -0.09,1.54082 0.791,0.95184 2.055,0.55056 2.235,-0.70929 z m 1.529,-2.48825 c 0,-1.73626 -0.537,-2.12749 -1.726,-1.25814 -0.888,0.64851 -0.888,0.68306 0,1.66705 1.245,1.37461 1.723,1.26115 1.723,-0.40891 z m -5.234,-0.3889 c 0.08,-1.12041 0.07,-1.18961 -0.313,-2.16316 -0.227,-0.58375 -0.1,-0.84122 0.43,-0.84122 0.476,0 0.655,-0.26814 0.481,-0.72106 -0.152,-0.39658 -0.578,-0.72105 -0.947,-0.72105 -0.491,0 -0.67,0.70448 -0.67,2.64386 0,1.45412 0.217,2.64386 0.481,2.64386 0.265,0 0.507,-0.37855 0.538,-0.84123 z m 4.185,-2.9405 c 0.398,-0.25195 0.577,-1.10181 0.481,-2.27597 l -0.153,-1.87388 -1.266,1.92281 c -0.696,1.05754 -1.171,2.08504 -1.054,2.28333 0.278,0.47289 1.198,0.44689 1.992,-0.0563 z m -1.837,-3.22369 c 0,-1.57783 -1.609,-1.4374 -1.837,0.16033 -0.117,0.81774 0.09,1.07667 0.842,1.07667 0.748,0 0.995,-0.30661 0.995,-1.237 z m -2.085,-2.81665 c -0.159,-0.41435 -0.513,-0.75337 -0.786,-0.75337 -0.553,0 -0.68,1.57898 -0.167,2.09105 0.528,0.52772 1.269,-0.51312 0.953,-1.33768 z m 3.45,0.74719 c 0.82,-0.5195 0.537,-2.70231 -0.35,-2.70231 -0.919,0 -1.714,1.38159 -1.347,2.33817 0.337,0.87771 0.747,0.96575 1.697,0.36414 z m -1.765,-3.16878 c 0.71,-1.55607 -0.269,-3.01891 -1.394,-2.08524 -0.59,0.48872 -0.689,0.39105 -0.605,-0.59495 0.184,-2.15682 0.05,-2.63023 -0.566,-2.01353 -0.694,0.69283 -0.597,4.34542 0.137,5.23025 0.829,0.99822 1.829,0.77725 2.428,-0.53653 z m 3.286,-1.25605 c 0,-1.17149 -1.124,-1.0059 -1.358,0.20007 -0.09,0.47434 0.153,0.80139 0.601,0.80139 0.447,0 0.757,-0.41099 0.757,-1.00146 z m -1.443,-2.30459 c 0,-1.08259 -1.2,-2.18865 -1.903,-1.75433 -0.67,0.41391 -0.635,1.36974 0.07,2.08003 0.867,0.86587 1.828,0.69456 1.828,-0.3257 z m 1.246,-3.66087 c -0.214,-0.85221 -0.587,-1.21712 -1.137,-1.11125 -1.152,0.22168 -1.345,1.88191 -0.307,2.64031 1.149,0.83991 1.852,0.0955 1.444,-1.52906 z m -3.471,0.94353 c 0.184,-0.48029 -0.133,-0.92458 -0.913,-1.27984 -1.562,-0.71127 -2.056,-0.16661 -0.953,1.05116 1.047,1.15595 1.489,1.21014 1.866,0.22868 z m 1.263,-3.37866 c 0,-0.73323 -0.276,-1.17338 -0.736,-1.17338 -1.005,0 -1.427,1.29549 -0.706,2.16398 0.775,0.93306 1.442,0.47463 1.442,-0.9906 z m -1.941,-3.29768 c -0.38,-0.37358 -0.722,-0.25738 -1.218,0.41354 -0.752,1.01911 -0.869,2.12524 -0.362,3.44499 0.257,0.6698 0.517,0.40445 1.217,-1.24375 0.646,-1.51923 0.746,-2.23805 0.363,-2.61478 z m 3.384,0.92254 c 0,-0.39658 -0.325,-0.72105 -0.721,-0.72105 -0.751,0 -0.955,0.56852 -0.401,1.12164 0.553,0.55311 1.122,0.35006 1.122,-0.40059 z m -1.924,-2.40351 c 0,-0.39658 -0.325,-0.72105 -0.721,-0.72105 -0.397,0 -0.722,0.32447 -0.722,0.72105 0,0.39658 0.325,0.72106 0.722,0.72106 0.396,0 0.721,-0.32448 0.721,-0.72106 z m 2.405,-0.0284 c 0,-0.41218 -0.22,-0.61355 -0.489,-0.44748 -0.269,0.16606 -0.364,0.5033 -0.212,0.74942 0.413,0.66675 0.701,0.54243 0.701,-0.30194 z m -101.49,34.85088 c 0,-0.27999 0.217,-0.37538 0.481,-0.21198 0.265,0.1634 0.481,0.39248 0.481,0.50907 0,0.11659 -0.216,0.21198 -0.481,0.21198 -0.264,0 -0.481,-0.22908 -0.481,-0.50907 z m -20.923,-0.45233 c 0.163,-0.26439 0.393,-0.4807 0.509,-0.4807 0.117,0 0.212,0.21631 0.212,0.4807 0,0.26438 -0.229,0.4807 -0.509,0.4807 -0.28,0 -0.376,-0.21632 -0.212,-0.4807 z"
       id="path1" /></g></svg>
