<?xml version="1.0" encoding="UTF-8" standalone="no"?>
<!-- Created with Inkscape (http://www.inkscape.org/) -->

<svg
   width="231.38646"
   height="235.24007"
   viewBox="0 0 61.221 62.240601"
   version="1.1"
   id="svg1"
   xml:space="preserve"
   xmlns="http://www.w3.org/2000/svg"
   xmlns:svg="http://www.w3.org/2000/svg"><defs
     id="defs1" /><g
     id="layer1"
     transform="translate(1472.671,3650.7208)"><g
       id="g1268"
       transform="matrix(0.26458333,0,0,0.26458333,-4714.3653,-3796.2981)"><path
         style="fill:#000000"
         d="m 12372.975,764.87811 c -0.08,-0.0731 -2.317,-0.26112 -4.968,-0.41782 -8.408,-0.49706 -11.027,-0.89441 -13.276,-2.01419 -3.243,-1.6151 -5.102,-3.72422 -5.438,-6.17156 -0.23,-1.67124 -0.811,-2.60468 -3.089,-4.96147 -3.998,-4.13675 -8.324,-13.13196 -9.093,-18.90927 -0.496,-3.72942 0.502,-2.78517 1.443,1.36525 1.337,5.89784 5.13,13.06936 8.925,16.87641 5.165,5.1805 6.938,6.08573 12.817,6.54571 7.176,0.56136 11.084,0.6026 12.265,0.12942 0.676,-0.2708 3.087,-0.65621 5.357,-0.85646 6.14,-0.54149 12.116,-3.48567 17.792,-8.76453 2.108,-1.96108 2.928,-3.56258 4.538,-8.86165 0.706,-2.32551 1.483,-4.87674 1.726,-5.66941 0.627,-2.04535 0.522,-19.00778 -0.254,-41.38052 -0.21,-6.06377 -0.143,-8.81115 0.222,-9.03597 0.358,-0.22027 0.531,0.71756 0.545,2.94805 0.01,1.7991 0.107,5.97338 0.212,9.27617 0.105,3.30279 0.326,12.73287 0.492,20.95573 0.32,15.83466 0.431,14.50792 -1.93,23.06366 -1.269,4.59928 -3.194,7.99175 -5.996,10.56557 l -2.679,2.46091 -0.02,3.06375 c -0.03,5.39363 -1.926,6.73945 -12.03,8.54615 -3.181,0.56874 -6.15,1.11168 -6.599,1.20654 -0.448,0.0949 -0.882,0.11264 -0.964,0.0395 z m 7.518,-2.61778 c 6.69,-1.49101 8.183,-1.97085 9.581,-3.07952 0.806,-0.63872 1.79,-3.12694 1.79,-4.52601 0,-1.20463 -1.59,-1.19938 -4.033,0.0133 -4.807,2.38646 -6.374,2.87469 -10.667,3.32339 -8.226,0.85989 -14.461,1.17262 -15.304,0.76775 -0.465,-0.22333 -2.309,-0.53363 -4.097,-0.68956 -1.886,-0.1645 -4.007,-0.69682 -5.052,-1.26813 -1.94,-1.05991 -2.558,-0.92017 -2.084,0.47116 0.982,2.88407 4.295,4.49009 11.197,5.42724 2.341,0.31782 4.581,0.64198 4.978,0.72037 2.772,0.54634 8.037,0.10024 13.691,-1.16001 z m -29.003,-16.48113 c 0.274,-0.86456 4.614,-3.69436 6.1,-3.97759 0.693,-0.13205 2.562,-0.66221 4.152,-1.17813 3.27,-1.0608 9.638,-1.93588 13.964,-1.91881 2.953,0.0117 4.035,0.20846 9.169,1.66821 1.591,0.45217 3.814,1.05229 4.94,1.33359 1.955,0.48798 2.627,1.37766 1.546,2.04401 -0.277,0.17045 -0.785,0.0769 -1.13,-0.20796 -0.344,-0.28482 -2.883,-1.16683 -5.641,-1.96 -4.284,-1.23178 -5.824,-1.44136 -10.558,-1.43677 -8.191,0.008 -16.863,2.11052 -19.989,4.84685 -1.649,1.44321 -2.881,1.8228 -2.553,0.7866 z m 40.101,-12.49056 c 0.285,-1.38717 0.725,-2.84522 0.978,-3.24011 0.254,-0.39488 0.503,-1.4758 0.555,-2.40202 0.05,-0.92623 0.439,-3.52161 0.86,-5.76751 0.421,-2.2459 1.006,-6.24528 1.301,-8.88751 0.67,-6.01409 1.324,-7.86756 1.356,-3.84325 0.02,3.01075 -0.348,5.89125 -1.642,12.73076 -0.425,2.2459 -0.954,5.15601 -1.175,6.46692 -0.222,1.3109 -0.613,2.4534 -0.871,2.53889 -0.257,0.0855 -0.375,0.63486 -0.263,1.22085 0.23,1.19994 -0.588,3.70511 -1.209,3.70511 -0.224,0 -0.174,-1.13496 0.11,-2.52213 z m -7.92,0.7512 c 0,-0.50211 0.736,-4.47566 1.636,-8.83012 0.9,-4.35445 1.99,-10.5063 2.421,-13.67075 0.431,-3.16446 0.995,-7.32972 1.255,-9.25613 0.259,-1.92642 0.474,-4.52061 0.477,-5.76487 0,-2.54531 0.41,-4.42414 0.948,-4.42414 0.197,0 0.308,0.48642 0.246,1.08092 -0.06,0.5945 -0.268,3.34204 -0.457,6.10565 -0.19,2.7636 -0.563,6.22252 -0.829,7.68649 -0.267,1.46397 -0.575,3.85077 -0.685,5.30399 -0.111,1.45323 -0.319,2.95991 -0.463,3.34817 -0.145,0.38826 -0.798,3.631 -1.453,7.20609 -0.654,3.57508 -1.38,7.06358 -1.612,7.75221 -0.591,1.75288 -0.102,2.26165 2.342,2.43798 3.046,0.21981 3.222,1.38143 0.189,1.25192 -1.281,-0.0547 -2.708,0.0772 -3.172,0.29303 -0.646,0.30038 -0.843,0.17825 -0.843,-0.52044 z m -47.231,-5.4068 c 0,-0.24863 0.217,-0.58567 0.482,-0.74896 0.265,-0.1633 0.482,0.0401 0.482,0.45205 0,0.41193 -0.217,0.74896 -0.482,0.74896 -0.265,0 -0.482,-0.20342 -0.482,-0.45205 z m -0.646,-2.78029 c -0.161,-1.00282 -0.311,-6.03631 -0.333,-11.18553 -0.04,-8.17661 0,-10.87769 0.212,-18.00953 0.02,-0.79267 0.228,-1.44122 0.452,-1.44122 0.436,0 0.653,31.77052 0.219,32.20257 -0.142,0.14136 -0.389,-0.56347 -0.55,-1.56629 z m 60.658,-27.39354 c 0.316,-8.2516 0.497,-9.72822 1.189,-9.72822 0.252,0 0.356,0.27023 0.232,0.60051 -0.2,0.53283 -0.549,8.08819 -0.666,14.41218 -0.02,1.25506 -0.268,2.28193 -0.543,2.28193 -0.339,0 -0.407,-2.46156 -0.212,-7.5664 z m -60.635,-4.79622 c -0.113,-0.20248 -0.02,-2.74615 0.205,-5.65261 0.226,-2.90645 0.525,-7.66247 0.665,-10.56893 0.139,-2.90645 0.465,-7.66247 0.722,-10.56893 0.258,-2.90645 0.593,-9.93239 0.744,-15.61319 0.152,-5.6808 0.358,-10.653 0.459,-11.04934 0.101,-0.39633 0.313,-2.88243 0.473,-5.52466 0.41,-6.79616 1.216,-16.20213 1.461,-17.05441 0.115,-0.39634 0.321,-3.31481 0.459,-6.48548 0.138,-3.17068 0.486,-7.49416 0.774,-9.60773 0.467,-3.42717 0.719,-18.73116 0.348,-21.10319 -0.223,-1.42942 2.526,-3.00007 6.25,-3.5705 9.754,-1.4942 11.991,-1.69352 17.944,-1.5993 3.578,0.0566 8.783,0.43613 11.566,0.84331 11.76,1.72044 12.572,1.98581 15.564,5.0859 1.79,1.85438 1.822,1.95302 1.528,4.63357 -0.204,1.8568 0.03,4.62598 0.724,8.59853 0.564,3.22282 1.107,7.87074 1.206,10.32872 0.1,2.45799 0.512,6.95516 0.915,9.99373 0.404,3.03857 0.853,8.6588 0.997,12.48939 0.145,3.8306 0.577,9.99181 0.962,13.69157 0.384,3.69977 0.82,8.67249 0.969,11.0505 0.149,2.37801 0.593,8.21494 0.986,12.97096 0.797,9.63093 0.942,17.24251 0.321,16.86021 -0.224,-0.138 -0.556,-3.66373 -0.738,-7.83495 -0.182,-4.17122 -0.415,-8.34068 -0.518,-9.26546 -0.103,-0.92478 -0.325,-3.62707 -0.494,-6.00508 -0.587,-8.23911 -1.485,-19.16524 -2.172,-26.42232 -0.251,-2.64224 -0.464,-6.74971 -0.475,-9.12772 -0.01,-2.37801 -0.451,-7.24212 -0.979,-10.80913 -0.528,-3.56701 -0.964,-7.78258 -0.969,-9.36791 -0.01,-2.92936 -0.551,-4.64892 -1.157,-3.67268 -0.45,0.72599 -0.36,16.31358 0.123,21.20749 0.221,2.2459 0.448,7.54237 0.504,11.76995 0.06,4.22757 0.409,9.84832 0.784,12.49055 1.243,8.75008 2.352,43.82769 1.354,42.83303 -0.21,-0.20969 -0.412,-2.79887 -0.449,-5.75374 -0.132,-10.57763 -1.01,-29.39477 -1.673,-35.87827 -0.257,-2.51013 -0.574,-7.91469 -0.705,-12.01015 -0.131,-4.09546 -0.432,-11.98613 -0.668,-17.53482 -0.236,-5.54869 -0.425,-11.5593 -0.419,-13.35691 0,-1.79761 -0.108,-3.38658 -0.253,-3.53105 -1.001,-0.99824 -1.169,1.3683 -0.932,13.162 0.142,7.06952 0,21.63679 -0.328,32.3717 -0.323,10.73491 -0.587,22.46083 -0.589,26.05758 0,3.59676 -0.201,6.6624 -0.445,6.81255 -0.415,0.25549 -0.73,-4.07253 -0.58,-7.95061 0.508,-13.07805 0.852,-34.66069 0.823,-51.54041 l -0.04,-21.03463 2.158,0.3226 c 2.101,0.31402 2.149,0.29214 1.837,-0.82384 -0.176,-0.63054 -0.573,-2.71376 -0.882,-4.62938 -0.309,-1.91562 -0.713,-3.48294 -0.897,-3.48294 -0.185,0 -1.275,0.33034 -2.423,0.73408 -1.53,0.53813 -4.087,0.73366 -9.579,0.73249 -7.883,-0.002 -21.398,-0.73814 -22.16,-1.20757 -0.247,-0.15185 -2.74,-0.57614 -5.542,-0.94287 -3.824,-0.5007 -5.642,-0.98779 -7.299,-1.95544 -1.213,-0.70875 -2.315,-1.17951 -2.449,-1.04612 -0.134,0.13339 -0.233,2.5845 -0.22,5.44692 0.01,2.86242 -0.292,7.6905 -0.677,10.72906 -0.386,3.03857 -0.918,8.76741 -1.183,12.73076 -0.265,3.96335 -0.803,11.31356 -1.195,16.3338 -0.392,5.02024 -0.934,14.85656 -1.204,21.85847 -0.271,7.00192 -0.71,15.32495 -0.977,18.49563 -0.267,3.17068 -0.733,9.6077 -1.036,14.30449 -0.492,7.64024 -0.873,9.79787 -1.523,8.64273 z m 54.904,-105.38172 c 3.101,-0.96989 4.024,-3.51593 2.201,-6.06849 -1.403,-1.96426 -4.637,-3.47421 -8.65,-4.03886 -1.789,-0.25171 -4.77,-0.71585 -6.626,-1.03141 -8.82,-1.49999 -32.337,0.28008 -33.747,2.55437 -0.501,0.80797 0.274,3.32821 1.324,4.30285 0.542,0.50362 1.67,1.23914 2.506,1.63448 1.982,0.93786 13.838,2.68723 21.483,3.17007 7.092,0.44786 19.359,0.14957 21.509,-0.52301 z m -0.388,102.59433 c -0.404,-0.61576 -0.271,-7.42848 0.145,-7.42883 0.543,-4.4e-4 0.776,2.59124 0.476,5.28422 -0.163,1.45323 -0.442,2.41831 -0.621,2.14461 z m -0.06,-10.19141 c -0.143,-0.72661 -0.06,-1.52649 0.185,-1.7775 0.274,-0.2813 0.445,0.22553 0.445,1.32112 0,2.10375 -0.268,2.29744 -0.63,0.45638 z"
         id="path1" /></g></g></svg>
