<?xml version="1.0" encoding="UTF-8" standalone="no"?>
<!-- Created with Inkscape (http://www.inkscape.org/) -->

<svg
   width="231.38646"
   height="235.24007"
   viewBox="0 0 61.221 62.240601"
   version="1.1"
   id="svg1"
   xml:space="preserve"
   xmlns="http://www.w3.org/2000/svg"
   xmlns:svg="http://www.w3.org/2000/svg"><defs
     id="defs1" /><g
     id="g1711"
     transform="matrix(0.26458333,0,0,0.26458333,-4161.9381,-140.25032)"><path
       style="fill:#000000"
       d="m 15908.768,752.67835 c -0.274,-0.72207 -1.665,-3.38491 -3.091,-5.91743 -5.177,-9.1975 -6.103,-10.92362 -8.008,-14.9395 -1.066,-2.24724 -2.135,-4.4615 -2.376,-4.92059 -0.509,-0.97142 -0.579,-2.94905 -0.121,-3.40726 0.538,-0.5378 1.606,0.69517 1.606,1.85343 0,0.60444 2.834,6.68877 6.298,13.52075 7.116,14.03474 7.298,14.43898 6.654,14.83715 -0.255,0.15746 -0.688,-0.30449 -0.962,-1.02655 z m -87.287,-7.63785 c 0.674,-6.68531 2.448,-19.84003 2.804,-20.79 0.224,-0.59486 0.763,-1.08156 1.199,-1.08156 0.639,0 0.73,0.30137 0.472,1.56225 -0.177,0.85924 -0.538,3.29275 -0.804,5.40781 -0.711,5.66521 -2.873,16.26992 -3.43,16.82428 -0.323,0.32196 -0.403,-0.31298 -0.241,-1.92278 z m 33.284,0.63134 c -0.115,-0.34724 -0.646,-2.25368 -1.18,-4.23654 -3.27,-12.13262 -3.544,-13.59656 -2.833,-15.15761 0.895,-1.96487 1.566,-1.09429 1.895,2.45739 0.26,2.80595 0.818,5.6196 3.153,15.88856 0.253,1.11684 -0.694,2.07703 -1.035,1.0482 z m 25.027,-3.169 c -2.093,-7.75105 -4.253,-14.71643 -4.859,-15.66442 -0.966,-1.51182 -1.159,-4.87122 -0.28,-4.87122 1.54,0 7.656,22.12024 6.449,23.32776 -0.264,0.26427 -0.785,-0.8453 -1.31,-2.79212 z m -113.128,0.4757 c 0.09,-0.20874 1.274,-2.64225 2.634,-5.4078 1.361,-2.76555 2.813,-6.00168 3.228,-7.1914 2.243,-6.43226 3.139,-8.4245 3.852,-8.56756 1.033,-0.20709 0.982,0.78202 -0.199,3.863 -3.168,8.26729 -8.07,17.6833 -9.204,17.6833 -0.259,0 -0.399,-0.17079 -0.311,-0.37954 z m 34.336,-1.43733 c -0.386,-0.62455 1.865,-12.08181 2.826,-14.38173 0.391,-0.93747 0.711,-2.08673 0.711,-2.55391 0,-1.2589 1.745,-3.22718 2.339,-2.63837 0.325,0.32285 -0.06,2.05912 -1.182,5.28763 -0.917,2.64382 -2.1,6.73309 -2.63,9.08728 -1.05,4.66161 -1.577,5.98855 -2.064,5.1991 z m -62.28,-1.44691 c 0,-0.53104 1.275,-2.37302 2.833,-4.09329 3.554,-3.92438 11.897,-14.32356 15.308,-19.08109 3.511,-4.89794 5.245,-6.72972 6.372,-6.72972 1.714,0 1.016,1.50004 -2.343,5.03878 -1.811,1.90742 -4.24,4.74461 -5.399,6.30486 -3.074,4.13962 -10.475,12.94199 -13.848,16.46905 -2.233,2.33585 -2.923,2.82919 -2.923,2.09141 z m 188.1,-4.78785 c -1.468,-3.70188 -4.996,-10.37576 -5.61,-10.61532 -0.226,-0.0881 -0.411,-0.44865 -0.411,-0.80115 0,-0.35251 -0.163,-0.71303 -0.361,-0.80116 -0.473,-0.21034 -2.062,-2.5321 -3.489,-5.09662 -1.042,-1.87281 -1.075,-2.11881 -0.381,-2.81385 0.543,-0.54279 1.191,-0.66727 2.256,-0.43323 1.731,0.38038 1.872,0.83248 0.549,1.75564 -0.91,0.63517 -0.829,0.84569 2.22,5.70679 3.266,5.20956 4.882,8.44545 6.46,12.93381 1.028,2.92614 1.096,3.40978 0.483,3.40978 -0.236,0 -1.008,-1.46011 -1.716,-3.24469 z m 13.627,-2.70479 c -2.074,-3.28359 -4.558,-6.21124 -11.601,-13.67404 -3.105,-3.2897 -5.645,-6.16878 -5.645,-6.39796 0,-0.86264 1.553,-0.37035 2.558,0.81083 0.575,0.67514 2.315,2.45972 3.867,3.96573 1.551,1.50601 3.993,4.19893 5.426,5.98425 1.432,1.78532 3.005,3.62398 3.494,4.0859 0.853,0.80576 4.352,6.82673 4.352,7.48931 0,0.95219 -1.006,0.0232 -2.451,-2.26402 z m -99.398,-17.0611 c -4.026,-1.3595 -8.716,-3.68553 -10.83,-5.37093 -1.046,-0.83333 -2.485,-1.81854 -3.198,-2.18937 -2.109,-1.09616 -7.59,-0.84685 -12.325,0.56062 -2.284,0.67916 -5.299,1.5679 -6.699,1.97497 -1.645,0.47826 -4.79,0.76406 -8.888,0.80778 -7.398,0.0789 -11.405,-0.8935 -15.47,-3.75438 -8.704,-6.12595 -8.855,-6.20819 -11.813,-6.42225 -1.881,-0.13613 -2.84,-0.41339 -2.84,-0.82117 0,-0.57057 1.386,-2.57958 6.457,-9.36338 1.087,-1.4541 2.608,-3.61722 3.381,-4.80694 3.689,-5.67819 19.488,-19.43977 26.23,-22.84692 1.433,-0.72441 3.471,-1.90376 4.528,-2.62079 3.87,-2.62594 16.026,-8.38468 22.339,-10.58344 l 6.486,-2.25882 -0.07,-21.81493 -0.07,-21.81493 -1.127,-0.71335 c -1.889,-1.19624 -4.496,-4.20384 -5.932,-6.8447 -1.383,-2.54263 -1.843,-4.10896 -2.724,-9.2847 -0.271,-1.58629 -0.888,-4.29019 -1.372,-6.00867 -0.484,-1.71848 -1.142,-6.39589 -1.462,-10.39424 l -0.582,-7.26973 -4.376,-0.28591 c -2.406,-0.15725 -9.023,-0.30261 -14.704,-0.32302 -12.465,-0.0448 -28.665,-0.32626 -43.118,-0.74912 -8.305,-0.24299 -10.689,-0.45252 -10.689,-0.93927 0,-0.88992 3.812,-1.00105 22.099,-0.64429 50.388,0.98303 49.724,0.98403 51.072,-0.0773 0.678,-0.53381 2.664,-1.64045 4.412,-2.45918 5.704,-2.67034 13.329,-2.57102 25.466,0.33168 1.85,0.44233 3.938,0.8125 4.64,0.8226 0.863,0.0124 1.443,0.38434 1.791,1.14884 l 0.515,1.13048 18.867,0.0119 c 23.848,0.0151 46.887,0.36014 47.454,0.71078 0.24,0.14821 0.324,0.56156 0.187,0.91855 -0.206,0.53708 -5.922,0.6381 -33.128,0.58547 -28.903,-0.0559 -32.888,0.0236 -32.954,0.65744 -0.04,0.39658 -0.127,1.26182 -0.189,1.92278 -0.516,5.44841 -1.734,16.24425 -1.898,16.82428 -0.113,0.39658 -0.628,3.14144 -1.144,6.0997 -0.556,3.18799 -1.451,6.41839 -2.198,7.93145 -1.296,2.62583 -4.176,5.6773 -5.358,5.6773 -0.368,0 -0.682,0.27039 -0.698,0.60087 -0.128,2.53258 0,34.13102 0.141,35.45117 0.1,0.92533 0.224,3.10514 0.276,4.84402 l 0.09,3.16159 3.173,0.5849 c 4.414,0.81388 9.447,2.52268 13.467,4.57232 1.875,0.95627 3.58,1.73867 3.787,1.73867 0.538,0 10.292,6.35154 15.075,9.81603 7.279,5.27227 15.122,12.04647 18.545,16.01719 5.208,6.04118 7.042,8.27526 8.34,10.1613 3.376,4.90354 5.18,7.67006 5.994,9.1907 0.496,0.92534 1.31,2.129 1.811,2.6748 1.033,1.1257 1.211,2.62049 0.31,2.59755 -1.043,-0.0266 -2.282,-1.25481 -2.282,-2.26214 0,-0.53334 -0.324,-1.239 -0.721,-1.56812 -0.396,-0.32913 -0.72,-0.8219 -0.72,-1.09505 0,-0.27315 -0.541,-1.20564 -1.202,-2.07219 -0.66,-0.86656 -1.201,-1.78828 -1.201,-2.04827 0,-0.25999 -0.162,-0.54481 -0.36,-0.63294 -0.198,-0.0881 -0.991,-1.13363 -1.761,-2.32335 -2.132,-3.29014 -9.9,-12.40793 -13.107,-15.3822 -4.892,-4.53785 -6.017,-5.48643 -10.87,-9.16289 -5.216,-3.95198 -12.242,-8.53065 -13.176,-8.58672 -0.33,-0.0198 -0.6,0.15499 -0.6,0.38849 0,0.2335 -0.966,1.15283 -2.147,2.04295 -1.181,0.89012 -2.154,1.74467 -2.162,1.89901 0,0.15435 1.161,1.0909 2.598,2.08123 1.437,0.99034 3.037,2.16193 3.555,2.60354 0.518,0.44162 1.972,1.66819 3.231,2.72572 2.627,2.20712 4.533,4.16413 4.533,4.65383 0,0.86313 6.737,10.23342 10.251,14.25795 2.157,2.47004 3.993,4.68724 4.082,4.92712 0.09,0.23987 0.466,0.43613 0.84,0.43613 0.375,0 0.681,0.23435 0.681,0.52077 0,0.28643 0.757,1.25601 1.681,2.15463 0.925,0.89863 1.682,1.94487 1.682,2.325 0,0.99862 5.828,6.05301 6.966,6.04165 0.528,-0.005 1.825,-0.1994 2.882,-0.43139 1.057,-0.23199 3.381,-0.56839 5.165,-0.74755 2.99,-0.30036 3.243,-0.25385 3.243,0.59674 0,1.14871 -1.859,2.03819 -4.258,2.03819 -2.753,0 -7.03,0.87198 -11.993,2.44509 -3.529,1.11853 -5.672,1.47082 -10.089,1.65849 -5.502,0.23377 -5.667,0.21007 -8.731,-1.24715 -1.717,-0.81699 -3.447,-1.77717 -3.843,-2.13372 -1.171,-1.05301 -4.876,-2.15027 -7.286,-2.15779 -1.9,-0.006 -2.795,0.36303 -5.861,2.41459 -1.99,1.33187 -6.061,3.5468 -9.048,4.92205 l -5.429,2.50048 -6.486,0.12204 c -5.28,0.0994 -6.977,-0.0438 -9.128,-0.77025 z m 14.518,-1.73016 c 3.277,-0.85417 11.255,-4.73822 14.552,-7.08512 1.319,-0.93845 2.883,-1.8548 3.476,-2.03633 1.607,-0.49204 2.525,-1.61721 2.525,-3.09553 0,-1.194 -0.451,-1.53545 -4.804,-3.63716 -2.643,-1.2757 -4.805,-2.61409 -4.805,-2.9742 0,-1.07715 1.323,-0.75999 5.392,1.29331 3.668,1.85045 3.846,1.8926 3.552,0.84121 -0.17,-0.60876 -0.45,-2.07324 -0.622,-3.25438 -0.173,-1.18115 -0.729,-3.23612 -1.236,-4.5666 -1.46,-3.83164 -1.505,-4.10148 -0.695,-4.10148 1.308,0 3.586,8.31979 4.039,14.75209 0.269,3.80637 0.336,3.99497 1.424,3.99497 1.823,0 6.299,1.75013 7.879,3.08083 2.857,2.40554 9.867,3.40255 15.338,2.18141 4.121,-0.91994 8.884,-2.53651 8.167,-2.77186 -1.593,-0.52263 -4.089,-2.87013 -6.714,-6.31251 -1.522,-1.99574 -4.158,-5.14281 -5.859,-6.99348 -1.701,-1.85067 -4.372,-5.09535 -5.936,-7.21041 -1.563,-2.11505 -2.96,-3.9537 -3.103,-4.08589 -0.143,-0.13219 -1.122,-1.53675 -2.175,-3.12125 -3.006,-4.52193 -2.705,-4.38697 -6.13,-2.74416 -1.645,0.78932 -4.073,1.7983 -5.394,2.24219 -1.321,0.44388 -3.73,1.44069 -5.353,2.21514 -3.475,1.65791 -3.535,1.66691 -3.535,0.53356 0,-0.89792 4.161,-2.97914 9.369,-4.68601 1.321,-0.43304 3.432,-1.22575 4.691,-1.76159 1.847,-0.78604 2.183,-1.10238 1.739,-1.6376 -0.568,-0.68516 -6.613,-5.32765 -9.507,-7.3011 l -1.64,-1.11895 -2.069,2.08034 -2.068,2.08035 1.83,2.88416 c 1.8,2.83653 2.834,5.54147 2.109,5.51398 -0.204,-0.008 -1.343,-1.62374 -2.532,-3.59121 -1.189,-1.96746 -2.286,-3.5835 -2.438,-3.5912 -0.151,-0.008 -1.118,0.83428 -2.148,1.87107 -1.03,1.03679 -2.041,1.78112 -2.247,1.65406 -0.69,-0.42669 -0.382,-1.46654 0.818,-2.76152 l 1.19,-1.28556 -1.868,-4.04735 c -1.103,-2.38754 -2.773,-5.0144 -4.074,-6.40542 -2.386,-2.55216 -2.596,-2.9794 -1.467,-2.9794 1.153,0 3.851,2.98843 5.261,5.82807 1.119,2.25246 3.792,4.79774 4.965,4.72766 0.18,-0.0108 1.083,-0.67273 2.008,-1.47107 l 1.682,-1.45152 -1.08,-0.88827 c -0.594,-0.48855 -2.702,-1.77898 -4.684,-2.86761 -3.528,-1.93748 -4.453,-2.91587 -2.756,-2.91587 0.883,0 6.455,3.09595 8.575,4.76457 l 1.219,0.95971 2.245,-1.58024 c 3.68,-2.5895 3.419,-2.9378 -5.201,-6.95735 -3.786,-1.76538 -13.437,-4.90172 -14.952,-4.85928 -0.364,0.0102 -1.094,0.69512 -1.622,1.52209 -1.537,2.4053 -3.245,3.38413 -6.295,3.60803 -2.988,0.21935 -4.995,-0.10226 -4.995,-0.80025 0,-0.24214 -0.22,-1.01783 -0.488,-1.72377 -0.464,-1.22188 -0.542,-1.24786 -1.62,-0.541 -0.623,0.4084 -1.555,0.63205 -2.071,0.49701 -3.605,-0.94329 -26.486,10.37182 -36.657,18.1278 -6.563,5.00512 -17.14,15.1828 -18.942,18.22778 -0.704,1.18971 -2.639,3.99991 -4.301,6.24488 l -3.021,4.08177 1.93,0.65262 c 1.061,0.35894 2.738,1.30308 3.727,2.09809 0.989,0.79501 2.036,1.29828 2.327,1.11838 0.291,-0.17989 0.469,-0.11824 0.397,0.13702 -0.462,1.62312 8.588,6.16128 13.522,6.78125 4.014,0.50433 11.369,-0.0606 14.799,-1.13681 1.261,-0.39571 3.046,-0.90122 3.966,-1.12335 1.492,-0.35999 1.71,-0.62034 2.013,-2.39608 0.187,-1.09572 0.601,-2.47981 0.92,-3.07576 0.319,-0.59595 0.562,-1.68757 0.541,-2.42584 -0.02,-0.73826 0.154,-1.3423 0.389,-1.3423 0.234,0 0.578,-0.81117 0.763,-1.8026 0.186,-0.99143 0.653,-2.55802 1.038,-3.48132 0.717,-1.71944 0.86,-2.2828 1.365,-5.41151 l 0.291,-1.80261 h -4.171 c -3.714,0 -4.154,-0.0923 -4.011,-0.84121 0.137,-0.71471 0.814,-0.86181 4.505,-0.97817 l 4.343,-0.13696 1.521,-2.98755 c 0.836,-1.64316 2.176,-4.13398 2.977,-5.53516 0.801,-1.40119 1.447,-2.80722 1.435,-3.12451 -0.01,-0.3173 -1.091,-1.334 -2.397,-2.25933 -1.306,-0.92534 -2.551,-2.20677 -2.768,-2.84764 l -0.394,-1.1652 -1.085,1.52572 c -0.598,0.83915 -1.289,1.52573 -1.538,1.52573 -1.272,0 -13.415,10.93154 -13.415,12.07635 0,0.21835 -0.648,0.73258 -1.441,1.14273 -2.128,1.10092 -1.877,-0.0338 0.6,-2.72226 1.967,-2.13399 8.351,-8.07205 11.223,-10.43975 0.764,-0.62957 2.795,-2.46823 4.514,-4.0859 5.198,-4.89182 12.008,-8.90462 12.008,-7.07566 0,0.23768 -0.919,0.90978 -2.042,1.49354 -2.373,1.23327 -6.021,3.84087 -7.204,5.14933 -0.787,0.86973 -0.708,1.00285 1.86,3.16324 1.474,1.24042 2.881,2.13127 3.126,1.97969 0.245,-0.15159 1.404,-2.25963 2.576,-4.68453 2.064,-4.27153 4.679,-8.04076 5.215,-7.51801 0.276,0.26833 -5.163,11.42305 -5.956,12.21651 -0.763,0.76398 -0.52,2.0543 0.736,3.90695 1.523,2.24496 1.047,3.09452 -0.761,1.36073 -0.761,-0.72946 -1.465,-1.2339 -1.563,-1.12098 -0.172,0.19678 -1.341,2.25197 -4.205,7.39349 -0.73,1.30969 -1.22,2.55349 -1.09,2.76399 0.13,0.21051 0.818,0.3857 1.529,0.38931 1.946,0.01 3.515,0.53299 3.324,1.10779 -0.101,0.30149 -1.284,0.45964 -2.885,0.38546 -2.633,-0.12205 -2.722,-0.0853 -2.979,1.23014 -0.145,0.74577 -0.844,3.13378 -1.553,5.3067 -0.71,2.17293 -1.179,4.06165 -1.043,4.19717 0.135,0.13552 1.412,-0.18014 2.838,-0.70147 1.681,-0.61486 2.756,-0.78342 3.059,-0.47979 0.594,0.59443 0.688,0.52894 -3.422,2.40052 -3.349,1.52504 -3.508,1.67524 -4.444,4.17702 -0.534,1.4273 -0.97,3.02722 -0.97,3.55536 0,0.83895 0.133,0.88913 1.051,0.39713 0.715,-0.38249 2.441,-0.46449 5.382,-0.25563 3.68,0.26138 4.602,0.5055 6.15,1.62778 4.336,3.14491 4.94,3.50978 5.599,3.38 0.382,-0.0753 0.997,-1.17489 1.366,-2.4435 0.616,-2.11536 1.696,-3.27617 2.395,-2.57594 0.156,0.15596 -0.285,1.48647 -0.981,2.95669 -0.696,1.47022 -1.265,2.85729 -1.265,3.08237 0,1.1522 8.329,3.31081 12.99,3.36665 1.993,0.0239 4.842,-0.27434 6.332,-0.66266 z m -4.706,-1.92664 c -0.925,-1.41179 -1.213,-4.68401 -0.444,-5.04134 0.742,-0.34447 2.462,5.16305 1.815,5.81012 -0.379,0.379 -0.759,0.16565 -1.371,-0.76878 z m -7.41,-7.4427 c -4.057,-0.42233 -8.465,-3.02971 -6.83,-4.0407 0.207,-0.12798 1.429,0.30119 2.716,0.95371 1.61,0.81661 3.498,1.27586 6.058,1.47341 3.242,0.2501 4.009,0.14694 5.968,-0.80198 1.546,-0.74867 2.404,-0.93392 2.745,-0.59279 0.341,0.34113 0.142,0.72179 -0.637,1.21808 -1.332,0.84918 -5.474,2.28169 -6.313,2.18353 -0.321,-0.0375 -1.989,-0.2145 -3.707,-0.39326 z m 19.794,-1.05064 c -1.523,-0.976 -1.897,-2.29448 -0.758,-2.67397 0.723,-0.24055 3.544,2.16968 3.544,3.02712 0,0.95083 -0.936,0.83224 -2.786,-0.35315 z m -81.447,-0.73109 c -0.639,-0.63872 -0.283,-1.10312 1.763,-2.30309 2.392,-1.40261 2.72,-1.47094 2.72,-0.56633 0,0.36062 -0.822,1.22587 -1.827,1.92278 -1.967,1.36419 -2.168,1.43561 -2.656,0.94664 z m 73.761,-4.3663 c 2.05,-2.18827 3.273,-5.15702 3.403,-8.25853 0.136,-3.24365 0.502,-3.93692 1.294,-2.45496 0.992,1.85405 -0.962,8.59789 -3.243,11.19418 -0.407,0.46267 -1.179,0.84122 -1.716,0.84122 -0.918,0 -0.902,-0.079 0.262,-1.32191 z m -68.797,0.40091 c 0,-0.24216 0.811,-1.09211 1.801,-1.88876 0.991,-0.79666 2.883,-2.76898 4.204,-4.38294 1.321,-1.61396 3.327,-4.06278 4.457,-5.44181 3.394,-4.1409 4.922,-5.48345 4.906,-4.30995 0,0.49966 -10.38,13.51788 -12.066,15.14186 -1.317,1.26907 -3.302,1.79906 -3.302,0.8816 z m 47.384,-1.10103 c -0.511,-2.76902 -0.844,-9.52919 -0.52,-10.55009 0.659,-2.07563 1.232,0.0868 1.37,5.17029 0.08,2.88129 0.23,5.53614 0.336,5.89966 0.106,0.36352 -0.05,0.75148 -0.351,0.86213 -0.304,0.11269 -0.671,-0.49515 -0.835,-1.38199 z m 23.518,-14.55452 c -0.807,-1.80237 -2.162,-3.68741 -3.627,-5.04729 -1.974,-1.83193 -2.41,-2.56225 -2.792,-4.68188 -0.467,-2.59608 -0.375,-3.01661 0.664,-3.01661 0.36,0 0.75,0.92763 0.949,2.25426 0.274,1.82614 0.774,2.69042 2.633,4.55078 1.71,1.71095 2.496,2.98555 3.081,4.99882 1.111,3.82586 0.615,4.34103 -0.908,0.94192 z m -20.63,-4.46282 c -0.152,-0.2466 0.257,-1.17161 0.908,-2.05558 0.652,-0.88397 1.185,-1.98505 1.185,-2.44684 0,-0.4618 0.241,-0.98827 0.535,-1.16993 0.88,-0.54454 1.303,0.75723 0.734,2.26389 -0.633,1.67781 -2.968,4.04558 -3.362,3.40846 z m 1.966,-10.20433 c -0.787,-0.91964 -1.676,-4.52502 -1.363,-5.52938 0.08,-0.26438 0.199,-1.56225 0.259,-2.88416 0.06,-1.32191 0.146,-3.10649 0.19,-3.96573 0.06,-1.05477 0.322,-1.56225 0.824,-1.56225 0.63,0 0.732,0.79582 0.666,5.21697 -0.08,5.2896 0.387,7.28107 1.702,7.28107 0.999,0 1.378,0.90377 0.715,1.70348 -0.811,0.97755 -2.024,0.87217 -2.993,-0.26 z m 9.496,-0.48209 c -0.475,-0.76808 0.201,-1.44209 1.445,-1.44209 1.516,0 2.156,-1.21555 1.621,-3.08092 -0.233,-0.81363 -0.424,-2.72454 -0.424,-4.24648 0,-1.52432 -0.216,-2.76717 -0.48,-2.76717 -0.734,0 -0.572,-1.72923 0.224,-2.39005 1.481,-1.23049 1.914,-0.27181 2.486,5.50869 0.562,5.68163 0.338,7.55299 -1.019,8.53083 -0.727,0.52352 -3.511,0.44202 -3.853,-0.11281 z m -0.509,-17.6655 1.814,-1.8026 -0.338,-6.24902 c -0.186,-3.43696 -0.412,-7.20494 -0.502,-8.37327 -0.344,-4.43304 -0.336,-12.12021 0.02,-20.46836 l 0.368,-8.65249 -3.549,0.24034 c -3.274,0.22176 -3.561,0.32751 -3.708,1.36678 -0.139,0.9796 -0.01,1.08221 0.961,0.78719 0.879,-0.26626 0.999,-0.21152 0.556,0.25444 -0.42,0.4432 -0.427,0.89209 -0.03,1.77088 0.413,0.90608 0.394,1.26528 -0.08,1.55968 -0.498,0.30768 -0.478,0.65547 0.103,1.77849 0.618,1.19568 0.627,1.56698 0.06,2.58743 -0.751,1.35799 -0.902,3.64933 -0.266,4.04267 0.791,0.48941 1.108,2.80167 0.441,3.22284 -0.505,0.31906 -0.463,0.69012 0.215,1.89076 0.93,1.64931 0.687,2.76123 -0.405,1.85386 -0.924,-0.76737 -0.852,-0.26745 0.283,1.95829 1.413,2.77154 1.209,4.49235 -0.299,2.52364 -1.017,-1.32819 -1.766,0.17632 -0.812,1.63258 0.56,0.85597 0.648,1.79047 0.383,4.07787 -0.298,2.56998 -0.245,2.92911 0.401,2.68131 1.089,-0.4183 1.205,0.51929 0.356,2.88841 -0.603,1.68172 -0.629,2.16726 -0.133,2.47461 0.619,0.38394 0.49,1.23915 -0.499,3.30518 -0.405,0.84654 -0.346,1.26438 0.277,1.95337 0.59,0.65173 0.654,1.01582 0.25,1.41986 -0.404,0.40404 -0.279,0.47426 0.487,0.27386 0.599,-0.15672 1.03,-0.0449 1.03,0.26724 0,0.94701 0.756,0.58082 2.614,-1.26584 z m -6.819,-6.56576 c -0.445,-0.71976 -0.941,1.19233 -0.667,2.567 0.233,1.16306 0.268,1.13775 0.599,-0.43578 0.194,-0.91881 0.224,-1.87785 0.07,-2.13122 z m 1.17,-2.77773 c -0.153,-0.38346 -0.267,-0.26956 -0.29,0.29042 -0.02,0.50673 0.09,0.79064 0.252,0.63091 0.16,-0.15973 0.177,-0.57433 0.04,-0.92133 z m -1.451,-2.9142 c -0.133,-0.33048 -0.242,-0.0601 -0.242,0.60086 0,0.66096 0.109,0.93135 0.242,0.60087 0.133,-0.33048 0.133,-0.87126 0,-1.20173 z m 1.441,-24.51539 c -0.133,-0.33048 -0.242,-0.0601 -0.242,0.60087 0,0.66095 0.109,0.93134 0.242,0.60086 0.133,-0.33047 0.133,-0.87125 0,-1.20173 z m 4.967,-10.8852 c 0.66,-0.18385 1.201,-0.64532 1.201,-1.02549 0,-0.43263 0.711,-0.8069 1.901,-1.00044 1.412,-0.22959 2.303,-0.78809 3.461,-2.16865 2.439,-2.90578 3.423,-6.22474 4.334,-14.60306 0.129,-1.18972 0.413,-3.13167 0.632,-4.31545 0.226,-1.22124 0.211,-2.50227 -0.03,-2.96125 -0.285,-0.5336 -0.19,-1.27349 0.279,-2.17391 0.897,-1.72081 0.896,-2.08605 0,-2.08605 -0.397,0 -0.721,-0.23945 -0.721,-0.53212 0,-0.29267 0.296,-0.41872 0.657,-0.28011 0.67,0.25744 1.265,-3.2134 1.265,-7.38325 v -1.80545 l -3.243,-0.96238 c -5.771,-1.71282 -11.283,-2.57675 -16.298,-2.55452 -2.688,0.0119 -5.444,0.16155 -6.125,0.3325 -1.506,0.37833 -1.657,1.87115 -0.263,2.61728 0.536,0.28694 0.865,0.69827 0.732,0.91405 -0.134,0.21579 0.185,0.77924 0.707,1.25212 0.957,0.86677 1.287,2.15287 0.553,2.15287 -0.218,0 -0.905,-0.54079 -1.525,-1.20174 -0.621,-0.66095 -1.307,-1.20173 -1.525,-1.20173 -0.78,0 -0.379,1.44501 0.564,2.03433 1.128,0.705 1.275,1.81122 0.24,1.81122 -0.958,0 -0.913,0.259 0.336,1.94988 l 1.057,1.43026 -1.052,0.73722 -1.052,0.73722 2.397,3.12942 c 2.715,3.54378 3.344,5.73907 0.836,2.91736 -1.356,-1.52591 -1.668,-1.67409 -2.376,-1.12725 -0.745,0.57462 -0.629,0.85721 1.321,3.23561 2.587,3.15568 3.065,5.66312 0.51,2.67729 -1.254,-1.46583 -1.808,-1.78894 -2.624,-1.52986 -1.022,0.32454 -1.453,1.22505 -0.587,1.22505 0.586,0 4.951,4.5936 5.513,5.8017 0.807,1.73471 -0.04,1.4399 -2.268,-0.79184 -2.012,-2.01265 -3.402,-2.6441 -3.092,-1.40466 0.07,0.26438 0.315,0.41586 0.552,0.33662 0.238,-0.0793 0.729,-0.0301 1.092,0.10926 0.526,0.20176 0.543,0.44013 0.09,1.17077 -0.504,0.80724 -0.231,1.23705 2.271,3.57852 2.018,1.88785 2.697,2.81262 2.336,3.18255 -0.362,0.37206 -0.904,0.10738 -1.891,-0.92379 -0.761,-0.79489 -1.722,-1.44034 -2.135,-1.43433 -0.434,0.006 0.427,1.09888 2.046,2.59423 1.637,1.51196 2.583,2.71531 2.282,2.9016 -0.283,0.17507 -0.785,0.15586 -1.115,-0.0427 -0.408,-0.24529 -0.389,-0.10031 0.06,0.45232 0.362,0.44733 1.065,0.81332 1.561,0.81332 0.558,0 0.93,0.36696 0.974,0.96139 0.04,0.52876 0.09,1.23177 0.12,1.56225 0.03,0.33048 0.913,0.73061 1.97,0.88919 2.58,0.38706 2.702,0.38713 4.084,0.003 z m -13.364,-6.88445 c -0.345,-0.34493 -0.569,-0.37331 -0.569,-0.0721 0,0.64162 0.569,1.21009 0.889,0.88928 0.137,-0.1366 0,-0.50433 -0.32,-0.81718 z m -0.403,-5.44456 c -0.156,-0.40797 -0.387,-0.63868 -0.513,-0.51267 -0.126,0.126 -0.09,0.4598 0.09,0.74177 0.474,0.76693 0.751,0.61794 0.426,-0.2291 z m -0.439,-10.25972 c 0.313,-0.50806 -1.064,-1.76107 -1.479,-1.34543 -0.4,0.40051 0.179,1.77166 0.748,1.77166 0.257,0 0.586,-0.1918 0.731,-0.42623 z m 0.273,-4.37439 c 0.547,-0.34889 0.597,-0.65875 0.206,-1.28593 -0.702,-1.12674 -1.288,-1.25226 -2.32,-0.49694 -0.82,0.5996 -0.824,0.69078 -0.07,1.44856 0.927,0.92834 1.187,0.9681 2.18,0.33431 z m -2.904,-4.85443 c -0.295,-0.5514 -0.654,-0.8852 -0.797,-0.74177 -0.396,0.39622 0.238,1.74433 0.821,1.74433 0.355,0 0.348,-0.30738 -0.02,-1.00256 z m 2.919,-0.89344 c -0.687,-1.28437 -1.442,-1.67498 -2.054,-1.06279 -0.685,0.68509 0.389,1.9974 1.635,1.9974 0.761,0 0.833,-0.16034 0.419,-0.93461 z m -2.897,-2.91094 c 0,-0.26438 -0.229,-0.48069 -0.509,-0.48069 -0.28,0 -0.375,0.21631 -0.212,0.48069 0.164,0.26438 0.393,0.4807 0.509,0.4807 0.117,0 0.212,-0.21632 0.212,-0.4807 z m 1.642,-1.61086 c -0.166,-0.4329 -0.506,-0.66091 -0.755,-0.5067 -0.27,0.16717 -0.222,0.55893 0.119,0.97024 0.703,0.8473 1.044,0.59886 0.636,-0.46354 z m -1.832,-3.06589 c -0.489,-0.48863 -0.892,0.24703 -0.491,0.89572 0.303,0.49003 0.416,0.49041 0.579,0.002 0.111,-0.33398 0.07,-0.73793 -0.09,-0.89766 z m 2.112,-0.34216 c 0,-0.11659 -0.217,-0.34567 -0.481,-0.50907 -0.264,-0.16339 -0.48,-0.068 -0.48,0.21198 0,0.27999 0.216,0.50906 0.48,0.50906 0.264,0 0.481,-0.0954 0.481,-0.21197 z"
       id="path1" /></g></svg>
