<?xml version="1.0" encoding="UTF-8" standalone="no"?>
<!-- Created with Inkscape (http://www.inkscape.org/) -->

<svg
   width="231.38646"
   height="235.24007"
   viewBox="0 0 61.221 62.240601"
   version="1.1"
   id="svg1"
   xml:space="preserve"
   xmlns="http://www.w3.org/2000/svg"
   xmlns:svg="http://www.w3.org/2000/svg"><defs
     id="defs1" /><g
     id="g1889"
     transform="matrix(0.26458333,0,0,0.26458333,-4592.7134,-140.25032)"><path
       style="fill:#000000"
       d="m 17485.917,745.63437 c -0.437,-0.33633 -1.556,-1.52375 -2.487,-2.6387 -0.931,-1.11496 -2.929,-3.08344 -4.44,-4.3744 -2.714,-2.3174 -2.769,-2.33874 -4.344,-1.68004 -0.878,0.36695 -2.286,0.66718 -3.13,0.66718 -0.844,0 -2.691,0.36494 -4.105,0.81099 -2.007,0.63319 -2.698,0.68382 -3.15,0.23094 -1.096,-1.09675 0.7,-3.08414 4.393,-4.86005 4.018,-1.93216 3.916,-0.72556 0.967,-11.46319 -1.037,-3.77708 -1.886,-7.28213 -1.886,-7.789 0,-0.50688 -0.287,-1.09461 -0.638,-1.30608 -0.351,-0.21147 -1.046,-1.08765 -1.545,-1.94707 -0.498,-0.85941 -1.072,-1.56258 -1.274,-1.56258 -0.202,0 -0.902,-1.02769 -1.555,-2.28376 -0.654,-1.25608 -1.198,-2.01333 -1.21,-1.68278 -0.01,0.33054 -0.243,0.60099 -0.513,0.60099 -0.269,0 -0.398,-0.50713 -0.285,-1.12694 0.355,-1.96158 -0.294,-2.28282 -4.629,-2.28957 -1.255,-0.002 -2.282,-0.20765 -2.282,-0.45709 0,-0.24945 -1.189,-0.45354 -2.642,-0.45354 -2.512,0 -3.511,-0.65815 -1.925,-1.26746 0.395,-0.15162 0.604,-0.45992 0.465,-0.6851 -0.139,-0.22518 -0.548,-0.29594 -0.909,-0.15724 -1.055,0.40503 -1.335,-0.64898 -0.357,-1.34306 0.491,-0.34864 1.018,-0.95843 1.171,-1.35508 0.187,-0.4853 0.29,-0.36736 0.316,0.3606 0.04,1.1172 0.717,1.44605 1.239,0.60099 0.458,-0.74282 1.681,-0.56801 1.681,0.24039 0,0.86534 0.953,0.98253 0.978,0.1202 0,-0.33054 0.291,-0.1061 0.627,0.49877 0.694,1.25094 5.373,3.85796 4.952,2.75877 -0.142,-0.36918 -0.05,-0.74203 0.214,-0.82854 0.294,-0.0983 0.185,-1.77682 -0.292,-4.4784 -1.062,-6.01488 -1.066,-6.19167 -0.142,-6.37938 0.528,-0.10717 1.097,0.39364 1.623,1.42738 1.048,2.06127 0.944,1.98655 1.985,1.42857 0.762,-0.4081 0.916,-0.29665 1.001,0.72519 0.127,1.53902 0.505,2.14337 1.234,1.97563 0.58,-0.13323 0.791,0.15616 0.791,1.08595 0,0.33745 -0.31,0.332 -0.961,-0.0169 -0.529,-0.28305 -0.961,-0.35749 -0.961,-0.16542 0,0.19206 -0.306,-0.0702 -0.681,-0.58272 -0.48,-0.65771 -0.534,-1.10915 -0.181,-1.53427 0.375,-0.45227 0.23,-0.60236 -0.582,-0.60236 -1.024,0 -1.064,0.1317 -0.754,2.4688 0.334,2.52122 2.398,9.2117 3.243,10.51263 0.386,0.59385 0.423,0.57263 0.207,-0.1202 -0.286,-0.92171 0.07,-1.05449 1.092,-0.40698 0.364,0.23082 0.529,0.63394 0.368,0.89582 -0.365,0.59048 1.042,3.51712 2.06,4.28673 0.528,0.39885 0.896,0.41679 1.233,0.0601 0.323,-0.34212 0.277,-0.58282 -0.14,-0.73558 -0.861,-0.31512 0.206,-1.57592 1.334,-1.57592 2.071,0 12.064,-13.21213 14.175,-18.7425 0.755,-1.9773 1.569,-3.37401 1.967,-3.37401 1.999,0 -0.433,6.11761 -5.192,13.05946 -1.607,2.3449 -2.826,4.35947 -2.709,4.47681 0.117,0.11734 1.727,0.44848 3.578,0.73588 3.115,0.48362 3.784,0.4153 8.984,-0.91754 3.09,-0.79204 6.376,-1.79985 7.302,-2.23958 1.488,-0.70661 7.223,-5.94973 8.732,-7.98309 4.165,-5.61244 6.983,-20.25546 5.887,-30.59737 -0.215,-2.03467 -0.734,-6.94476 -1.151,-10.91131 -0.418,-3.96655 -0.881,-7.53644 -1.029,-7.9331 -0.428,-1.14545 -0.199,-12.93144 0.312,-16.10658 0.256,-1.58662 0.667,-5.15652 0.914,-7.9331 0.465,-5.23579 1.811,-12.08257 3.354,-17.06817 0.492,-1.58662 1.112,-3.75019 1.379,-4.80794 2.322,-9.19282 3.535,-11.39234 9.147,-16.59377 2.807,-2.60167 3.412,-3.43764 3.651,-5.04194 0.157,-1.05775 0.488,-2.8027 0.735,-3.87768 0.33,-1.434 0.267,-2.48422 -0.236,-3.94367 -1.042,-3.02964 0.125,-7.94581 2.238,-9.42765 1.5,-1.05131 0.907,-1.39928 -2.259,-1.32623 -4.139,0.0955 -9.248,2.67295 -12.808,6.46148 -4.194,4.46382 -8.134,13.28824 -8.799,19.70725 -0.17,1.64118 -0.632,4.82299 -1.027,7.0707 -0.396,2.24771 -0.735,4.35719 -0.754,4.68774 -0.02,0.33055 -0.198,0.60099 -0.397,0.60099 -0.387,0 -1.141,2.1866 -1.576,4.56754 l -0.263,1.44238 0.702,-1.56258 c 0.786,-1.75118 1.22,-2.06182 0.838,-0.60099 -0.193,0.73792 -0.01,0.96159 0.766,0.96159 1.205,0 1.269,0.38749 0.291,1.78463 -0.733,1.0476 -0.249,1.94306 0.726,1.34053 0.264,-0.16343 0.48,-0.068 0.48,0.21202 0,0.66313 -1.292,0.65979 -1.702,-0.004 -0.174,-0.28247 -0.645,-0.38743 -1.047,-0.23325 -0.545,0.20926 -0.665,0.0347 -0.476,-0.68842 0.156,-0.5999 0.02,-0.96873 -0.365,-0.96873 -0.4,0 -0.806,1.27305 -1.156,3.62559 -0.625,4.20573 -0.69,6.52155 -0.178,6.35088 0.198,-0.0661 0.36,0.0962 0.36,0.36059 0,0.26444 -0.27,0.45075 -0.6,0.41402 -0.757,-0.0841 -0.792,0.64398 -0.04,0.89371 0.417,0.13912 0.421,0.42128 0.01,1.12185 -0.534,0.92189 -0.543,0.9215 -0.605,-0.0256 -0.05,-0.80603 -0.125,-0.76714 -0.447,0.2404 -0.556,1.73657 -0.556,2.98808 0,2.64436 0.902,-0.55827 0.483,0.66492 -0.453,1.3212 -0.618,0.43261 -1.198,1.86825 -1.712,4.23421 -0.925,4.25034 -1.592,6.17689 -2.521,7.27137 -0.452,0.53213 -0.559,1.18707 -0.314,1.92317 0.453,1.36518 0.273,3.83707 -0.325,4.45776 -0.242,0.25121 -0.44,0.8197 -0.44,1.26331 0,0.44361 -0.324,1.0759 -0.72,1.40509 -0.397,0.3292 -0.724,1.05885 -0.728,1.62145 0,0.77903 -0.109,0.86292 -0.432,0.35187 -0.234,-0.36908 -0.76,-0.54239 -1.169,-0.38513 -0.466,0.17887 -0.848,-0.0396 -1.02,-0.5834 -0.383,-1.20469 0.173,-2.43969 1.118,-2.48512 0.572,-0.0275 0.61,-0.10938 0.139,-0.29721 -0.373,-0.14866 -1.337,0.53415 -2.258,1.60053 l -1.607,1.85979 1.257,1.00405 c 2.005,1.60254 0.645,1.73099 -4.593,0.43379 -6.699,-1.65879 -9.696,-1.56119 -7.521,0.24494 1.221,1.01434 0.838,2.68227 -0.985,4.28396 -1.892,1.66284 -1.843,2.22435 0.237,2.68146 3.866,0.84997 2.533,3.24475 -2.438,4.37968 -3.333,0.76099 -6.577,2.4306 -5.886,3.02963 0.234,0.20227 1.318,0.6216 2.409,0.93183 3.751,1.06596 4.033,2.96552 0.702,4.72801 -1.164,0.61619 -2.364,1.12035 -2.666,1.12035 -0.302,0 -0.809,0.26098 -1.128,0.57995 -0.452,0.45274 -0.131,0.74515 1.465,1.33309 1.635,0.60211 2.075,1.01467 2.196,2.05729 0.152,1.30887 -0.697,1.94666 -3.985,2.99345 -0.854,0.27187 -0.755,0.46878 0.961,1.92412 1.612,1.36683 1.829,1.75866 1.381,2.4968 -0.291,0.48155 -1.48,1.23461 -2.642,1.67347 -1.72,0.65013 -2.088,0.99837 -1.983,1.88 0.07,0.59626 -0.3,1.48076 -0.825,1.97008 -0.523,0.4884 -0.839,1.18168 -0.702,1.54062 0.662,1.72477 6.24,2.3715 8.841,1.02504 0.944,-0.48842 1.492,-0.55534 1.706,-0.20841 0.379,0.61317 0.402,0.58996 -1.681,1.65115 -0.912,0.46508 -2.966,0.93907 -4.563,1.05331 -5.4,0.38623 -7.483,-2.3017 -5.66,-7.30575 0.825,-2.26649 1.008,-2.43701 3.193,-2.98162 1.275,-0.3177 2.416,-0.67525 2.535,-0.79454 0.119,-0.11929 -0.447,-0.60933 -1.258,-1.08896 -2.707,-1.59996 -2.324,-4.21699 0.699,-4.78457 2.949,-0.55377 2.577,-1.22626 -0.972,-1.75455 -0.651,-0.0969 -1.011,-0.57806 -1.116,-1.49164 -0.195,-1.69436 2.438,-4.35634 4.801,-4.85555 l 1.599,-0.33762 -2.162,-0.73402 c -1.189,-0.40371 -2.575,-1.1344 -3.079,-1.62375 -0.902,-0.87374 -0.889,-0.9193 0.724,-2.53366 0.95,-0.95082 2.907,-2.10527 4.641,-2.73817 1.649,-0.60183 2.999,-1.23031 2.999,-1.39661 0,-0.1663 -0.469,-0.51593 -1.042,-0.77696 -0.573,-0.26104 -1.275,-0.86634 -1.561,-1.34513 -0.543,-0.90998 0.266,-1.89196 3.092,-3.75128 1.023,-0.67295 1.092,-0.87974 0.525,-1.5645 -0.36,-0.43398 -1.33,-0.96324 -2.156,-1.17614 -0.999,-0.25772 -1.55,-0.72585 -1.649,-1.40069 -0.131,-0.89589 -0.521,-1.03216 -3.363,-1.17356 -5.34,-0.26577 -10.562,0.60962 -8.346,1.39905 0.348,0.12397 1.191,0.70627 1.874,1.29399 0.966,0.83163 1.252,1.53978 1.289,3.19345 l 0.05,2.12486 -2.699,0.53462 c -4.247,0.84126 -4.894,1.71774 -2.342,3.17134 1.825,1.03895 1.834,2.33958 0.03,3.72522 -1.206,0.92515 -1.346,1.25427 -0.96,2.26885 0.999,2.63037 -1.162,5.44714 -4.18,5.44714 -1.823,0 -2.077,0.81698 -0.896,2.88476 0.988,1.72975 0.88,2.6637 -0.48,4.13218 -0.891,0.96266 -1.201,1.82641 -1.201,3.351 0,2.7929 0.379,3.57507 1.733,3.57507 1.515,0 1.498,1.26352 -0.02,1.55412 -1.412,0.27004 -1.857,0.0132 -2.678,-1.54559 -1.468,-2.78503 -0.818,-8.10484 1.075,-8.80024 0.469,-0.17216 0.415,-0.58257 -0.23,-1.76518 -1.628,-2.98441 -0.58,-5.16559 2.595,-5.40225 2.738,-0.20404 3.722,-1.63186 2.337,-3.39305 -0.533,-0.67826 -0.969,-1.68589 -0.969,-2.23916 0,-0.8565 0.292,-1.00595 1.962,-1.00595 2.119,0 2.385,-0.78896 0.574,-1.70155 -1.767,-0.88976 -2.536,-1.7591 -2.536,-2.86599 0,-1.31197 0.734,-1.98048 2.645,-2.4085 0.791,-0.17722 2.195,-0.56277 3.12,-0.85677 l 1.681,-0.53453 -1.441,-0.27498 c -1.184,-0.22599 -1.438,-0.50645 -1.423,-1.57442 0.01,-0.99744 -0.293,-1.40803 -1.321,-1.76666 -1.873,-0.65352 -1.817,-2.34344 0.102,-3.06837 2.793,-1.05516 1.39,-1.61074 -3.363,-1.33128 -1.189,0.0699 -3.134,0.51831 -4.323,0.99642 -1.189,0.47811 -3.2,1.13781 -4.468,1.46598 l -2.305,0.59668 1.284,1.34197 c 1.717,1.79376 1.338,3.51802 -0.938,4.27004 -0.893,0.29494 -1.984,0.93409 -2.423,1.42034 -0.71,0.78535 -0.717,0.91588 -0.06,1.16879 1.21,0.46486 0.844,1.27597 -0.58,1.28305 -3.227,0.016 -4.422,1.0986 -2.522,2.28582 0.599,0.37451 0.961,1.12122 0.961,1.98405 0,1.10008 -0.334,1.54203 -1.629,2.15723 -0.896,0.42554 -1.746,1.07839 -1.889,1.45079 -0.29,0.75547 0.113,2.65416 0.722,3.40554 0.218,0.2692 1.188,1.67941 2.154,3.13381 0.967,1.4544 1.885,2.75254 2.04,2.88476 0.156,0.13222 0.341,0.76374 0.412,1.40338 0.169,1.52605 2.761,5.75953 4.368,7.13288 3.445,2.94485 8.231,6.3544 9.9,7.0524 1.338,0.55931 1.719,0.92765 1.347,1.3002 -1.018,1.01906 -4.354,-0.0506 -7.074,-2.26858 -1.43,-1.1658 -2.732,-2.11964 -2.894,-2.11964 -0.603,0 -4.254,-3.66786 -5.264,-5.28873 -0.577,-0.92553 -1.542,-2.87274 -2.145,-4.32715 -0.603,-1.4544 -1.347,-2.86432 -1.653,-3.13315 -0.306,-0.26884 -0.881,-1.07198 -1.278,-1.78476 -0.396,-0.71278 -2.296,-3.61321 -4.223,-6.44541 -1.926,-2.8322 -3.392,-5.43669 -3.257,-5.78775 0.466,-1.21607 1.709,-0.62884 2.975,1.40508 1.676,2.69333 1.612,2.64558 2.302,1.70093 0.33,-0.45196 1.201,-1.05047 1.936,-1.33003 l 1.336,-0.50829 -1.21,-0.95257 c -1.907,-1.50154 -0.98,-4.00075 1.748,-4.70805 1.024,-0.26559 1.566,-0.75032 1.746,-1.56066 0.176,-0.79165 0.927,-1.48583 2.301,-2.12617 2.1,-0.9786 2.409,-1.8026 0.792,-2.1078 -0.507,-0.0956 -1.094,-0.47421 -1.305,-0.84139 -0.593,-1.02961 -1.841,-0.80948 -5.436,0.95891 -2.723,1.33882 -4.046,1.67446 -7.48,1.89759 -2.92,0.18973 -4.789,0.58564 -6.226,1.31939 l -2.053,1.04831 1.422,1.13846 c 0.782,0.62615 1.544,1.13954 1.693,1.14085 0.15,10e-4 0.742,0.8397 1.317,1.86308 0.575,1.02338 1.371,2.13165 1.77,2.46284 0.399,0.33118 0.725,0.90019 0.725,1.26447 0,1.07589 -1.469,0.75736 -2.488,-0.53967 -0.52,-0.66109 -1.261,-1.20198 -1.647,-1.20198 -0.387,0 -1.246,-0.35638 -1.911,-0.79194 -0.664,-0.43557 -1.171,-0.59784 -1.127,-0.3606 0.209,1.12081 -0.165,1.14929 -1.801,0.13708 -1.531,-0.94659 -1.725,-0.97895 -1.442,-0.24028 0.18,0.46947 0.328,1.1732 0.328,1.56383 0,0.39064 0.201,0.58577 0.447,0.43363 0.246,-0.15214 0.601,-0.0277 0.789,0.27662 0.239,0.38756 -0.111,0.48683 -1.168,0.3315 -1.098,-0.1612 -1.51,-0.0323 -1.51,0.47228 0,0.46194 0.328,0.60819 0.981,0.43737 0.795,-0.20809 0.925,-0.0818 0.687,0.66748 -0.189,0.59617 -0.03,1.02613 0.456,1.21158 0.864,0.33177 1.866,3.57558 1.444,4.67544 -0.172,0.44743 0.1,0.98138 0.671,1.34093 0.703,0.43957 0.859,0.86021 0.589,1.59178 -0.544,1.47863 -0.08,2.46011 0.673,1.42715 0.329,-0.45107 0.848,-0.66612 1.152,-0.4779 0.679,0.42013 0.734,1.72786 0.07,1.72786 -0.755,0 -0.561,1.30861 0.24,1.61624 0.396,0.15222 0.721,0.71626 0.721,1.25343 0,0.68574 0.315,0.97668 1.057,0.97668 0.822,0 0.928,-0.12822 0.48,-0.57696 -0.317,-0.31732 -0.57,-0.80412 -0.561,-1.08178 0.02,-0.57511 1.426,1.15415 1.426,1.75063 0,0.21389 -0.41,0.3889 -0.91,0.3889 -0.742,0 -1.492,0.8511 -1.492,1.69222 0,0.39992 2.192,-0.007 2.514,-0.46717 0.209,-0.29713 0.356,-0.15864 0.361,0.33753 0,0.46276 0.354,0.84139 0.779,0.84139 0.507,0 0.672,0.26145 0.48,0.76051 -0.16,0.41828 -0.291,0.851 -0.291,0.96159 0,0.11059 -0.432,0.20107 -0.961,0.20107 -0.528,0 -0.961,0.21636 -0.961,0.4808 0,0.26443 0.385,0.48079 0.854,0.48079 0.47,0 1.349,0.3466 1.953,0.77023 1.33,0.93279 1.867,0.61004 0.785,-0.4726 -0.428,-0.42813 -0.553,-0.77842 -0.278,-0.77842 0.274,0 0.375,-0.32454 0.223,-0.7212 -0.18,-0.46818 0.01,-0.72119 0.547,-0.72119 0.513,0 0.725,0.25673 0.562,0.68141 -0.144,0.37477 0.07,0.81004 0.483,0.96727 0.571,0.21945 0.617,0.43908 0.197,0.94523 -0.419,0.50557 -0.375,0.725 0.187,0.94081 0.403,0.1548 0.732,0.1053 0.732,-0.11 0,-0.48052 2.115,-0.41299 2.282,0.0729 0.379,1.09992 -0.01,1.40026 -1.578,1.2171 -1.348,-0.15748 -1.664,-0.0443 -1.533,0.54839 0.09,0.41076 0.423,0.69275 0.738,0.62664 0.314,-0.0661 0.575,0.15024 0.579,0.48079 0,0.40745 0.172,0.36874 0.517,-0.1202 0.384,-0.54272 0.57,-0.57247 0.753,-0.1202 0.134,0.33055 0.766,0.601 1.405,0.601 0.638,0 1.161,0.21635 1.161,0.48079 0,0.26444 -0.432,0.48079 -0.961,0.48079 -0.528,0 -0.961,0.21636 -0.961,0.4808 0,0.26443 0.433,0.48079 0.961,0.48079 0.529,0 0.961,0.20957 0.961,0.4657 0,0.25614 -0.324,0.34117 -0.721,0.18896 -0.883,-0.33916 -0.905,0.26311 -0.05,1.38871 0.351,0.46277 1.101,0.84139 1.667,0.84139 0.749,0 1.027,0.29669 1.027,1.09513 0,1.13503 1.608,2.90541 2.148,2.36505 0.169,-0.16894 0.508,0.0111 0.754,0.4001 0.345,0.54672 0.449,0.43443 0.456,-0.49472 0,-1.14622 0.06,-1.12625 1.003,0.43051 0.797,1.30853 0.868,1.71403 0.359,2.04337 -0.524,0.33815 -0.525,0.48289 0,0.81769 0.421,0.27199 0.129,0.42104 -0.88,0.44976 -1.125,0.032 -1.442,-0.13308 -1.245,-0.64721 0.146,-0.37958 0.08,-0.69015 -0.149,-0.69015 -0.228,0 -0.544,0.33824 -0.702,0.75166 -0.395,1.02924 -1.223,0.42576 -0.934,-0.68047 0.238,-0.90714 -1.161,-2.75729 -1.686,-2.23152 -0.16,0.15919 0,0.47213 0.367,0.69542 0.434,0.26839 0.56,0.88757 0.372,1.82692 -0.162,0.80921 -0.05,1.6581 0.267,1.97184 0.413,0.41401 0.287,0.55091 -0.507,0.55091 -0.581,0 -1.057,-0.21636 -1.057,-0.4808 0,-0.26443 -0.324,-0.48079 -0.72,-0.48079 -0.397,0 -0.721,-0.19112 -0.721,-0.42472 0,-0.23359 -0.433,-0.53795 -0.961,-0.67635 -1.313,-0.34362 -0.881,0.21111 1.391,1.78703 1.504,1.04316 2.227,1.2576 3.384,1.00336 0.809,-0.17784 1.47,-0.49727 1.47,-0.70986 0,-0.21258 0.433,-0.49967 0.961,-0.63798 0.529,-0.1383 0.961,-0.0399 0.961,0.21867 0,0.92387 -1.618,2.06687 -2.721,1.92223 -1.428,-0.18737 -1.453,0.66759 -0.04,1.44331 1.124,0.61781 7.512,1.96159 13.931,2.93055 2.048,0.3091 3.723,0.7072 3.723,0.88467 0,0.17747 -0.323,0.94238 -0.717,1.69981 -0.528,1.01161 -0.719,1.14016 -0.721,0.48431 0,-0.6161 -0.239,-0.80237 -0.763,-0.60099 -0.418,0.16051 -0.958,0.29183 -1.201,0.29183 -0.242,0 -0.441,0.29749 -0.441,0.66109 0,0.74703 2.912,1.49781 3.331,0.85892 0.15,-0.22796 0.741,-0.66148 1.314,-0.9634 0.801,-0.42168 1.092,-0.4105 1.258,0.0482 0.338,0.93963 -1.157,3.16519 -3.323,4.94596 -1.898,1.55986 -4.22,5.27717 -3.761,6.02029 0.12,0.19439 1.786,-0.0796 3.702,-0.60888 5.687,-1.57096 6.606,-1.63072 6.606,-0.42957 0,0.69693 -0.541,1.2803 -1.701,1.8342 -2.237,1.06724 -2.12,2.55207 0.26,3.32205 0.925,0.29914 1.66,0.78594 1.634,1.08179 -0.03,0.29584 -0.08,0.82961 -0.12,1.18615 -0.04,0.35655 -0.937,0.98821 -1.994,1.40371 -2.101,0.82586 -2.457,1.5422 -0.961,1.93369 1.239,0.3243 1.264,1.78387 0.03,1.78387 -1.231,0 -8.052,-1.66615 -9.879,-2.41294 -0.793,-0.32402 -3.279,-0.725 -5.524,-0.89107 -3.654,-0.27017 -4.099,-0.40715 -4.227,-1.3017 -0.08,-0.54986 0.597,-2.09867 1.5,-3.4418 1.567,-2.331 3.207,-7.72328 3.207,-10.5459 0,-1.55051 -1.299,-4.00389 -2.121,-4.00389 -0.36,0 -0.786,-0.70421 -0.948,-1.5649 -0.26,-1.39016 -0.624,-1.69329 -3.256,-2.71466 -4.309,-1.6722 -6.82,-3.49113 -11.807,-8.55043 -4.411,-4.47536 -5.876,-6.63462 -7.079,-10.43152 -0.346,-1.08909 -1.199,-3.49466 -1.896,-5.34572 -0.698,-1.85105 -2.003,-5.74548 -2.9,-8.65428 -1.977,-6.40707 -3.701,-11.03616 -5.576,-14.97334 -0.774,-1.62443 -1.407,-3.17579 -1.407,-3.44747 0,-0.27168 -0.778,-2.02539 -1.728,-3.89713 -1.328,-2.61731 -2.113,-3.58623 -3.396,-4.19589 -2.977,-1.41369 -5.871,-5.19267 -4.799,-6.26571 0.155,-0.15466 2.288,0.18145 4.742,0.7469 3.335,0.7687 6.036,1.02806 10.705,1.02792 6.657,-1.9e-4 17.311,1.3424 21.74,2.73957 2.091,0.65984 2.829,0.70103 4.128,0.23062 0.871,-0.31498 2.12,-0.57269 2.776,-0.57269 0.656,0 3.559,-0.7899 6.451,-1.75533 4.418,-1.47474 5.873,-1.74696 9.101,-1.70299 3.187,0.0434 3.973,0.21207 4.603,0.98734 0.67,0.82443 1.579,0.96376 7.687,1.17833 7.2,0.25296 8.904,0.42333 13.543,1.35358 1.526,0.30597 2.84,0.47152 2.921,0.36789 0.08,-0.10364 1.372,-1.74547 2.87,-3.64851 1.499,-1.90305 2.724,-3.66997 2.724,-3.92648 0,-0.25652 0.193,-0.53852 0.428,-0.62666 0.727,-0.27299 3.896,-6.66652 3.896,-7.8616 0,-0.62191 0.24,-1.73982 0.534,-2.48423 0.975,-2.47505 2.837,-10.42579 3.568,-15.23584 0.396,-2.611 1.222,-6.6136 1.836,-8.89468 1.458,-5.42464 2.543,-10.50948 3.19,-14.946 0.59,-4.05423 2.155,-8.88598 4.57,-14.11911 2.369,-5.1317 7.594,-10.00279 13.216,-12.32214 4.812,-1.9849 6.715,-2.02794 11.611,-0.26254 4.465,1.61005 5.78,2.7761 5.403,4.78911 -0.541,2.88497 3.711,6.95042 11.115,10.6281 2.501,1.24213 4.683,2.47921 4.85,2.74906 0.71,1.15062 -1.515,1.83176 -5.609,1.71681 -3.112,-0.0874 -4.457,0.0831 -5.655,0.71666 -0.864,0.45722 -4.24,1.37241 -7.502,2.03377 -7.761,1.57353 -10.89,3.21212 -14.501,7.59401 -1.466,1.77852 -2.986,4.14294 -3.378,5.25427 -0.685,1.94293 -3.257,12.3192 -4.792,19.32916 -0.405,1.85106 -0.94,4.2727 -1.189,5.38144 -0.249,1.10873 -0.463,3.27231 -0.474,4.80794 -0.01,1.53563 -0.226,3.76566 -0.476,4.95562 -0.885,4.20672 -0.984,13.47505 -0.212,19.71254 1.992,16.09184 2.223,19.07692 1.936,25.00127 -0.16,3.30546 -0.595,7.09171 -0.966,8.41389 -2.138,7.61009 -3.344,11.24443 -4.229,12.74103 -2.189,3.70304 -4.601,6.43342 -7.837,8.87255 -2.805,2.11442 -4.019,2.69602 -6.965,3.3363 -1.963,0.42651 -4.758,1.10475 -6.211,1.5072 -1.674,0.46377 -3.521,0.62675 -5.044,0.44506 -1.321,-0.15767 -3.591,-0.34969 -5.044,-0.42673 -2.514,-0.13328 -2.741,-0.0453 -4.684,1.81717 -1.123,1.07648 -2.041,2.21443 -2.041,2.52879 0,0.31436 1.189,2.84024 2.642,5.61308 1.453,2.77284 2.645,5.33732 2.649,5.69885 0,0.36153 0.201,0.96287 0.437,1.3363 0.361,0.57027 0.827,0.50791 2.911,-0.38949 1.948,-0.83864 2.629,-0.94617 3.166,-0.4999 0.377,0.31271 0.685,0.83415 0.685,1.15875 0,0.32461 1.351,1.14964 3.002,1.8334 2.357,0.97606 4.016,1.28055 7.718,1.41702 3.407,0.12559 4.832,0.36318 5.137,0.85618 0.582,0.94329 -0.236,1.79245 -2.079,2.15714 -8.601,1.70197 -12.093,6.01293 -11.282,13.92965 0.164,1.60706 -0.769,2.08416 -2.089,1.06766 z m -2.992,-6.83543 c -0.428,-0.42813 -0.778,-0.58989 -0.778,-0.35945 0,0.54451 1.074,1.61962 1.346,1.34737 0.115,-0.11522 -0.14,-0.55978 -0.568,-0.98792 z m 3.736,-3.19377 c -0.172,-0.27953 -0.02,-0.6971 0.348,-0.92792 0.512,-0.32445 0.455,-0.42135 -0.253,-0.42704 -0.874,-0.007 -0.877,-0.0491 -0.08,-0.93652 0.463,-0.51104 1.097,-0.8308 1.41,-0.71058 0.313,0.12022 0.995,-0.10385 1.516,-0.49793 0.887,-0.67123 0.817,-0.71748 -1.11,-0.7318 -1.692,-0.0126 -2.135,0.17672 -2.492,1.06649 -0.355,0.88526 -0.44,0.92199 -0.465,0.2022 -0.03,-0.73727 -0.283,-0.82558 -1.592,-0.54581 -2.743,0.58649 -2.825,0.77884 -1.328,3.11335 0.762,1.18712 1.766,2.57986 2.232,3.09497 0.832,0.919 0.86,0.90724 1.486,-0.6273 0.35,-0.86013 0.496,-1.79258 0.323,-2.07211 z m -1.632,1.04165 c 0,-0.26444 0.229,-0.48079 0.509,-0.48079 0.28,0 0.375,0.21635 0.212,0.48079 -0.163,0.26444 -0.392,0.48079 -0.509,0.48079 -0.116,0 -0.212,-0.21635 -0.212,-0.48079 z m -1.128,-1.66738 c -0.149,-0.38819 -0.06,-0.83367 0.189,-0.98996 0.252,-0.1563 0.459,0.16131 0.459,0.70579 0,1.16091 -0.267,1.27802 -0.648,0.28417 z m -0.07,-2.17897 c 0.164,-0.26444 0.393,-0.48079 0.509,-0.48079 0.117,0 0.212,0.21635 0.212,0.48079 0,0.26444 -0.229,0.48079 -0.509,0.48079 -0.28,0 -0.375,-0.21635 -0.212,-0.48079 z m -2.794,3.7562 c -0.153,-0.38354 -0.267,-0.26962 -0.29,0.29048 -0.02,0.50684 0.09,0.7908 0.252,0.63104 0.16,-0.15976 0.177,-0.57445 0.04,-0.92152 z m -6.381,-1.41794 c 1.014,-0.46211 1.156,-0.77766 0.92,-2.04338 -0.313,-1.68002 -0.928,-2.56325 -1.433,-2.05779 -0.184,0.18511 -0.08,0.59258 0.233,0.90549 1.026,1.02694 0.598,1.77135 -1.353,2.3566 -1.057,0.31691 -1.922,0.75831 -1.922,0.98089 0,0.58351 2.153,0.49763 3.555,-0.14181 z m 5.395,-1.01608 c -0.159,-0.59498 -0.293,-1.24405 -0.296,-1.44238 0,-0.19833 -0.248,-0.36059 -0.543,-0.36059 -0.311,0 -0.442,0.49783 -0.31,1.18521 0.124,0.65186 -0.01,1.28385 -0.305,1.40442 -0.292,0.12057 -0.02,0.23629 0.607,0.25717 0.95,0.0317 1.089,-0.13916 0.847,-1.04383 z m 3.3,-4.18582 c 1.437,-0.34488 1.438,-0.34678 0.24,-0.63825 -1.297,-0.31585 -4.008,-0.79133 -5.476,-0.9605 -0.501,-0.0578 -1.006,0.1653 -1.121,0.49584 -0.123,0.35533 0.201,0.60099 0.792,0.60099 0.551,0 1.001,0.21636 1.001,0.4808 0,0.53759 2.367,0.54854 4.564,0.0211 z m -24.734,-3.86747 c 0.882,-0.8295 0.345,-1.42352 -1.299,-1.43502 -1.222,-0.009 -1.792,0.69325 -1.398,1.72099 0.328,0.85721 1.626,0.71957 2.697,-0.28597 z m 25.805,0.67111 c -0.16,-0.15977 -0.574,-0.17685 -0.921,-0.038 -0.383,0.15348 -0.269,0.26741 0.29,0.29048 0.507,0.0209 0.79,-0.0928 0.631,-0.25252 z m -29.174,-1.13499 c 0,-0.65106 -1.647,-1.45944 -2.971,-1.45855 -0.961,6.5e-4 -0.884,0.12336 0.569,0.90267 2.009,1.07756 2.402,1.16855 2.402,0.55588 z m 18.255,-1.24727 c 0,-0.41226 -0.22,-0.61367 -0.488,-0.44758 -0.269,0.1661 -0.364,0.50341 -0.212,0.74957 0.412,0.66688 0.7,0.54253 0.7,-0.30199 z m -22.578,-0.21203 c 0,-0.26443 -0.487,-0.47748 -1.081,-0.47343 -0.874,0.006 -0.943,0.0966 -0.361,0.47343 0.932,0.6024 1.442,0.6024 1.442,0 z m -3.682,-0.75185 c -0.176,-0.46066 0.116,-1.03477 0.754,-1.48235 0.573,-0.40178 1.572,-1.82973 2.22,-3.17323 1.167,-2.42143 1.169,-2.44857 0.222,-3.11245 -1.145,-0.80256 -1.24,-1.84544 -0.205,-2.24314 0.82,-0.31469 0.504,-1.25933 -0.419,-1.25271 -0.685,0.005 -2.271,4.86334 -2.401,7.35509 -0.05,0.97436 -0.249,1.77254 -0.44,1.77373 -0.192,10e-4 -0.684,0.65122 -1.094,1.44453 -0.731,1.41649 -0.723,1.44238 0.453,1.44238 0.89,0 1.124,-0.19375 0.91,-0.75185 z m 11.761,-1.77231 c -0.187,-1.32077 -1.646,-1.61768 -4.049,-0.82403 -1.894,0.62565 -1.683,1.24055 0.533,1.55638 3.356,0.47823 3.679,0.4111 3.516,-0.73235 z m 12.906,-0.45075 c -0.154,-0.38354 -0.268,-0.26961 -0.291,0.29048 -0.02,0.50684 0.09,0.79081 0.253,0.63104 0.159,-0.15976 0.176,-0.57444 0.04,-0.92152 z m 0.392,-6.64096 c -0.163,-0.26444 -0.717,-0.48079 -1.229,-0.48079 -0.513,0 -0.933,0.21635 -0.933,0.48079 0,0.26444 0.553,0.4808 1.23,0.4808 0.697,0 1.1,-0.20811 0.932,-0.4808 z m -17.266,-4.55225 c 0.525,-0.39763 0.67,-0.71257 0.332,-0.72119 -0.33,-0.008 -0.6,-0.54341 -0.6,-1.1889 0,-1.10067 -0.565,-1.78304 -1.682,-2.03133 -3.751,-0.83426 -6.543,-1.22397 -6.816,-0.95136 -0.186,0.1865 0.244,0.9226 0.957,1.63578 0.713,0.71317 1.296,1.03115 1.296,0.70662 0,-0.32454 0.239,-0.59007 0.531,-0.59007 0.293,0 0.412,0.31432 0.264,0.69848 -0.347,0.90655 2.296,3.14787 3.713,3.14787 0.59,0 1.492,-0.31765 2.005,-0.7059 z m -21.194,-15.36308 c -0.513,-0.36381 -1.571,-1.21554 -2.353,-1.89273 -1.403,-1.21613 -2.115,-1.36649 -1.462,-0.30868 0.523,0.84651 4.206,3.40328 4.492,3.11769 0.14,-0.14015 -0.165,-0.55247 -0.677,-0.91628 z m 4.112,-1.51433 c 0,-0.41554 0.334,-1.09037 0.743,-1.49962 0.409,-0.40924 0.636,-0.85226 0.504,-0.98448 -0.384,-0.38427 -1.727,1.17368 -1.727,2.00331 0,1.12314 -0.736,0.92429 -2.582,-0.69817 -1.879,-1.65066 -2.772,-0.9683 -1.117,0.85271 1.189,1.30749 4.179,1.54095 4.179,0.32625 z m -1.268,-1.88883 c -0.152,-0.39666 -0.361,-0.72119 -0.465,-0.72119 -0.104,0 -0.189,0.32453 -0.189,0.72119 0,0.39665 0.21,0.72119 0.466,0.72119 0.256,0 0.341,-0.32454 0.188,-0.72119 z m -1.134,-0.72119 c 0,-0.53422 -0.32,-0.96159 -0.721,-0.96159 -0.731,0 -0.985,1.01707 -0.4,1.60265 0.609,0.60954 1.121,0.3168 1.121,-0.64106 z m -3.145,-1.47921 c -0.34,-0.55014 1.321,-2.36714 2.164,-2.36714 0.275,0 0.501,-0.21636 0.501,-0.48079 0,-0.77093 -1.039,-0.55478 -1.734,0.36059 -0.592,0.78124 -0.639,0.76608 -0.653,-0.21202 0,-0.57938 -0.232,-1.18713 -0.496,-1.35056 -0.264,-0.16343 -0.48,-0.8125 -0.48,-1.44238 0,-1.50952 -0.861,-1.98863 -1.831,-1.01848 -0.716,0.71692 -0.692,0.77808 0.304,0.77808 0.921,0 1.007,0.13749 0.58,0.93592 -0.381,0.71251 -0.331,1.03104 0.211,1.33441 0.601,0.33703 0.57,0.48686 -0.205,0.97133 -0.817,0.51065 -0.983,0.37885 -1.527,-1.21421 -0.335,-0.98288 -0.562,-2.03288 -0.503,-2.33333 0.06,-0.30046 -0.223,-0.6723 -0.624,-0.8263 -0.439,-0.16874 -0.729,-0.0107 -0.729,0.39771 0,1.29769 -0.967,1.26205 -2.145,-0.0791 -0.874,-0.99354 -1.191,-1.14339 -1.202,-0.5675 -0.02,0.98239 0.97,1.8202 2.716,2.30016 0.779,0.21407 1.303,0.66246 1.236,1.05779 -0.06,0.37741 0.437,1.10121 1.111,1.60844 0.675,0.50723 1.679,1.31436 2.231,1.79361 1.134,0.98376 1.548,1.12016 1.075,0.35375 z m -4.454,-1.16516 c -0.785,-0.66109 -1.607,-1.20198 -1.828,-1.20198 -0.658,0 1.926,2.34333 2.618,2.37491 0.351,0.016 0,-0.51183 -0.79,-1.17293 z m -3.842,-3.22933 c -0.345,-0.345 -0.569,-0.37338 -0.569,-0.0721 0,0.64176 0.568,1.21035 0.889,0.88947 0.136,-0.13662 0,-0.50443 -0.32,-0.81735 z m -0.09,-5.66535 c 0,-0.26443 -0.229,-0.48079 -0.509,-0.48079 -0.28,0 -0.375,0.21636 -0.212,0.48079 0.163,0.26444 0.392,0.4808 0.509,0.4808 0.116,0 0.212,-0.21636 0.212,-0.4808 z m -0.961,-1.17361 c 0,-0.11661 -0.216,-0.34574 -0.481,-0.50917 -0.264,-0.16343 -0.48,-0.068 -0.48,0.21203 0,0.28004 0.216,0.50916 0.48,0.50916 0.265,0 0.481,-0.0954 0.481,-0.21202 z m 1.921,-0.98996 c 0,-0.39665 -0.209,-0.72119 -0.465,-0.72119 -0.256,0 -0.341,0.32454 -0.189,0.72119 0.152,0.39666 0.362,0.72119 0.466,0.72119 0.103,0 0.188,-0.32453 0.188,-0.72119 z m -0.528,-2.52417 c 0.446,-0.85917 0.432,-1.08178 -0.07,-1.08178 -0.348,0 -0.68,0.57756 -0.738,1.28347 -0.117,1.41537 -0.02,1.39085 0.809,-0.20169 z m -1.393,-2.07174 c 0,-0.51327 -0.21,-0.93322 -0.466,-0.93322 -0.255,0 -0.34,0.32454 -0.188,0.72119 0.152,0.39666 0.02,0.72119 -0.284,0.72119 -0.308,0 -0.424,0.21989 -0.258,0.48864 0.441,0.71439 1.196,0.0846 1.196,-0.9978 z m -3.678,-1.67514 c -0.156,-0.40806 -0.387,-0.63881 -0.513,-0.51278 -0.126,0.12603 -0.09,0.45989 0.09,0.74192 0.473,0.76709 0.75,0.61807 0.425,-0.22914 z m 0.05,-7.55177 c -0.388,-1.26208 -0.609,-1.56705 -0.915,-1.26112 -0.367,0.36727 0.299,2.34291 0.79,2.34291 0.252,0 0.308,-0.48531 0.125,-1.08179 z m -2.487,-4.56754 c -0.13,-0.85942 -0.429,-1.56258 -0.663,-1.56258 -0.577,0 -0.536,0.676 0.132,2.14298 0.702,1.54222 0.833,1.39979 0.531,-0.5804 z m -0.47,-3.48623 c -0.138,-0.52861 -0.425,-0.96111 -0.638,-0.96111 -0.213,0 -1.053,-0.56012 -1.866,-1.24472 -1.025,-0.86368 -1.478,-1.03368 -1.478,-0.55531 0,0.80195 1.875,2.63559 2.332,2.28083 0.171,-0.13222 0.517,0.23144 0.77,0.80814 0.557,1.26953 1.232,1.01812 0.88,-0.32783 z m 8.508,-0.47428 c 0,-0.26112 -0.84,-1.00551 -1.866,-1.6542 -1.853,-1.17013 -2.03,-1.70836 -1.549,-4.68781 0.133,-0.82268 5.844,-2.41476 9.18,-2.559 3.725,-0.16109 5.284,-0.52532 5.284,-1.2346 0,-0.50959 -2.27,-1.11092 -8.166,-2.16288 -4.795,-0.85537 -18.736,-1.43189 -18.736,-0.77479 0,0.47924 0.95,1.62651 2.004,2.42066 0.696,0.5243 0.769,0.47312 0.545,-0.38419 -0.281,-1.07367 0.524,-1.30975 1.773,-0.51989 0.616,0.38973 0.582,0.554 -0.237,1.15355 -1.02,0.74637 -0.974,0.8092 2.518,3.43829 0.638,0.48043 0.386,2.15089 -0.325,2.15089 -0.19,0 -0.87,-0.56242 -1.51,-1.24983 -1.646,-1.7662 -4.768,-4.19797 -4.768,-3.71379 0,0.45651 1.288,1.84397 4.491,4.83876 1.43,1.33733 2.446,1.93668 2.953,1.74215 0.464,-0.17833 1.251,0.15396 1.974,0.83345 0.998,0.93878 1.274,1.01262 1.63,0.43632 0.352,-0.57048 0.796,-0.42219 2.497,0.83494 2.368,1.7501 2.308,1.72197 2.308,1.09197 z m -16.758,-11.92148 c -0.276,-0.51675 -0.387,-1.05461 -0.246,-1.19524 0.14,-0.14064 -0.484,-0.49994 -1.388,-0.79845 -2.51,-0.82914 -3.706,-0.98625 -3.706,-0.48707 0,0.24926 0.432,0.45319 0.96,0.45319 0.528,0 1.757,0.75287 2.732,1.67305 1.879,1.77344 2.476,1.9019 1.648,0.35452 z m 99.578,-39.68628 c 0.34,-0.25547 0.271,-0.32703 -0.192,-0.20055 -0.397,0.10815 -0.771,0.61143 -0.832,1.11839 -0.08,0.64765 -0.02,0.70729 0.192,0.20055 0.167,-0.39665 0.541,-0.89993 0.832,-1.11839 z m 28.477,-24.46026 c 0.878,-0.31755 1.595,-0.85845 1.595,-1.20198 0,-0.34353 0.351,-0.6246 0.78,-0.6246 0.67,0 0.687,0.11157 0.122,0.79316 -0.592,0.7135 -0.514,0.76639 0.781,0.52654 2.882,-0.53368 4.273,-0.89829 5.011,-1.31273 0.944,-0.53079 0.647,-0.63526 -4.22,-1.48566 -3.059,-0.53454 -3.699,-0.82756 -4.788,-2.19343 -0.871,-1.09248 -1.37,-1.39813 -1.625,-0.99555 -0.599,0.94258 -0.437,2.2637 0.278,2.2637 1.254,0 1.79,1.19786 0.986,2.20302 -0.717,0.89711 -0.729,0.89439 -0.458,-0.10005 0.203,-0.74542 0.03,-1.08778 -0.648,-1.26447 -0.725,-0.18974 -0.988,0.071 -1.214,1.20248 -0.599,2.99447 0.04,3.40563 3.4,2.18957 z m 15.046,-3.49702 c 0,-0.46402 -2.772,-1.64486 -3.097,-1.31935 -0.186,0.18557 -0.548,-0.0394 -0.806,-0.49997 -0.257,-0.46056 -0.696,-0.83739 -0.975,-0.83739 -0.279,0 -0.933,-0.54089 -1.452,-1.20198 -0.56,-0.71191 -1.437,-1.20199 -2.151,-1.20199 -0.76,0 -1.127,-0.22255 -0.991,-0.60099 0.256,-0.71356 -0.474,-2.28377 -1.062,-2.28377 -0.604,0 -1.01,1.32472 -0.674,2.20041 0.16,0.41691 0.815,0.95763 1.456,1.20159 0.838,0.31864 1.124,0.74644 1.016,1.51881 -0.137,0.97959 0.183,1.14619 3.602,1.87309 2.064,0.43883 3.883,0.92876 4.043,1.08873 0.345,0.34508 1.091,0.38805 1.091,0.0628 z m -9.607,-2.65671 c 0,-0.26443 -0.337,-0.48079 -0.749,-0.48079 -0.412,0 -0.616,0.21636 -0.452,0.48079 0.163,0.26444 0.5,0.4808 0.749,0.4808 0.248,0 0.452,-0.21636 0.452,-0.4808 z m -2.402,-1.414 c 0,-0.51327 -0.214,-1.06544 -0.475,-1.22706 -0.291,-0.17983 -0.172,-0.7575 0.307,-1.48885 0.733,-1.11982 0.725,-1.23676 -0.125,-1.85879 -0.499,-0.36508 -1.003,-0.56741 -1.121,-0.44961 -0.299,0.29958 0,4.47005 0.416,5.83732 0.02,0.0661 0.253,0.1202 0.517,0.1202 0.264,0 0.481,-0.41995 0.481,-0.93321 z m -3.363,-0.56592 c 0,-0.26444 -0.184,-0.36714 -0.408,-0.22823 -0.225,0.13891 -0.361,-0.76784 -0.302,-2.015 0.06,-1.24716 0.01,-1.67258 -0.103,-0.94538 -0.259,1.63676 -1.109,1.75065 -1.109,0.14857 0,-0.64548 -0.249,-1.32798 -0.554,-1.51666 -0.331,-0.20476 -0.425,-0.13267 -0.233,0.1788 0.178,0.28702 0.123,0.6452 -0.12,0.79595 -0.532,0.32892 -0.121,2.19632 0.483,2.19632 0.233,0 0.424,0.41468 0.424,0.92152 0,0.91023 0.862,1.54451 1.562,1.14879 0.198,-0.11214 0.36,-0.42024 0.36,-0.68468 z m 1.019,-0.74858 c -0.566,-0.97467 -0.703,-0.6627 -0.239,0.54634 0.165,0.42969 0.401,0.67997 0.524,0.55618 0.124,-0.12379 0,-0.61992 -0.285,-1.10252 z m -2.46,-5.50174 c 0,-0.26444 -0.216,-0.34708 -0.481,-0.18365 -0.264,0.16344 -0.48,0.51351 -0.48,0.77794 0,0.26444 0.216,0.34708 0.48,0.18365 0.265,-0.16343 0.481,-0.5135 0.481,-0.77794 z m 4.323,0.56592 c 0,-0.24883 -0.216,-0.58613 -0.48,-0.74957 -0.264,-0.16343 -0.481,0.0402 -0.481,0.45242 0,0.41226 0.217,0.74957 0.481,0.74957 0.264,0 0.48,-0.20359 0.48,-0.45242 z m -0.48,-3.34249 c 0,-0.48738 -1.463,-1.15128 -1.798,-0.81594 -0.121,0.12085 -0.08,0.45048 0.1,0.73251 0.383,0.62065 1.701,0.68528 1.701,0.0834 z m -2.592,-1.36361 c -0.489,-0.48873 -0.891,0.24708 -0.491,0.89591 0.303,0.49012 0.416,0.4905 0.579,0.002 0.111,-0.33404 0.07,-0.73807 -0.09,-0.89784 z m -65.864,146.99264 c 0.163,-0.26443 0.392,-0.48079 0.509,-0.48079 0.116,0 0.212,0.21636 0.212,0.48079 0,0.26444 -0.229,0.4808 -0.509,0.4808 -0.28,0 -0.375,-0.21636 -0.212,-0.4808 z m -4.463,-3.12516 c 0.08,-0.52887 0.42,-0.96158 0.747,-0.96158 0.632,0 0.842,0.68955 0.233,0.7671 -0.198,0.0253 -0.534,0.2957 -0.746,0.60099 -0.239,0.34298 -0.328,0.18766 -0.234,-0.40651 z m 4.703,-1.44238 c 0,-0.39665 0.21,-0.72119 0.466,-0.72119 0.255,0 0.34,0.32454 0.188,0.72119 -0.152,0.39666 -0.361,0.72119 -0.465,0.72119 -0.104,0 -0.189,-0.32453 -0.189,-0.72119 z m -5.039,-0.72903 c 0.166,-0.26875 0.503,-0.36416 0.749,-0.21202 0.666,0.41215 0.542,0.70066 -0.302,0.70066 -0.412,0 -0.613,-0.21989 -0.447,-0.48864 z m -20.548,-1.31434 c -0.1,-0.19833 -0.06,-0.96948 0.09,-1.71367 l 0.275,-1.35308 1.08,1.01121 c 1.277,1.19387 1.357,1.72656 0.321,2.1243 -1.012,0.38875 -1.546,0.36797 -1.768,-0.0688 z m 19.342,-0.0883 c 0,-0.282 0.162,-0.52881 0.36,-0.54846 0.199,-0.0196 0.866,-0.1293 1.483,-0.24366 0.75,-0.13911 1.056,-0.008 0.923,0.39632 -0.244,0.74503 -2.766,1.10585 -2.766,0.3958 z m -18.255,-3.70293 c 0,-0.35889 0.308,-0.50789 0.721,-0.34922 0.396,0.15221 0.72,0.43389 0.72,0.62596 0,0.19208 -0.324,0.34923 -0.72,0.34923 -0.397,0 -0.721,-0.28169 -0.721,-0.62597 z m 2.402,-0.62778 c 0,-0.24883 0.216,-0.58613 0.481,-0.74956 0.264,-0.16343 0.48,0.0402 0.48,0.45242 0,0.41226 -0.216,0.74956 -0.48,0.74956 -0.265,0 -0.481,-0.20359 -0.481,-0.45242 z m 14.048,-4.47571 c 0.393,-0.59498 1.23,-1.15091 1.86,-1.2354 l 1.146,-0.1536 -1.3,1.23539 c -1.649,1.567 -2.702,1.66176 -1.706,0.15361 z m -19.733,-0.64191 c -0.5,-0.56682 -0.514,-0.87718 -0.06,-1.4188 0.761,-0.91837 1.427,-0.44871 1.427,1.0073 0,1.33423 -0.432,1.46464 -1.362,0.4115 z m 7.367,-0.68027 c 0.163,-0.26444 0.392,-0.4808 0.508,-0.4808 0.117,0 0.212,0.21636 0.212,0.4808 0,0.26443 -0.229,0.48079 -0.509,0.48079 -0.279,0 -0.375,-0.21636 -0.211,-0.48079 z m 10.328,-1.47076 c 0,-0.28004 0.216,-0.37545 0.48,-0.21202 0.265,0.16343 0.481,0.39255 0.481,0.50917 0,0.11661 -0.216,0.21202 -0.481,0.21202 -0.264,0 -0.48,-0.22913 -0.48,-0.50917 z m 17.852,-3.62794 c 0.1,-0.50117 0.389,-0.89078 0.65,-0.86578 1.448,0.13892 8.67,-3.88453 11.155,-6.21509 0.855,-0.80153 1.667,-1.34439 1.805,-1.20637 0.455,0.45514 -2.515,4.09654 -4.154,5.09288 -3.152,1.91643 -6.438,3.46655 -8.022,3.78361 -1.405,0.28124 -1.587,0.20668 -1.434,-0.58925 z m -43.403,-8.21117 c 0.347,-0.13889 0.761,-0.12181 0.921,0.038 0.159,0.15976 -0.124,0.2734 -0.631,0.25252 -0.559,-0.0231 -0.673,-0.137 -0.29,-0.29048 z m 27.953,-0.0935 c 0,-0.23205 0.324,-0.69126 0.721,-1.02045 0.782,-0.6497 0.879,-0.49429 0.429,0.68186 -0.309,0.80508 -1.15,1.05275 -1.15,0.33859 z m -32.186,-1.26085 c 0,-0.44073 0.216,-0.7292 0.48,-0.64106 0.565,0.18852 0.535,0.76469 -0.06,1.16192 -0.231,0.15425 -0.42,-0.0801 -0.42,-0.52086 z m 16.851,-0.0401 c 0.02,-0.56009 0.137,-0.67402 0.291,-0.29048 0.138,0.34708 0.121,0.76176 -0.04,0.92152 -0.16,0.15977 -0.274,-0.1242 -0.253,-0.63104 z m 48.002,-3.48763 c 0,-0.22139 0.832,-1.27871 1.85,-2.3496 1.018,-1.07089 1.985,-2.62061 2.15,-3.44381 0.338,-1.69206 1.764,-2.0991 1.764,-0.50355 0,1.40132 -0.806,2.81248 -2.796,4.89652 -1.609,1.68463 -2.968,2.32592 -2.968,1.40044 z m -65.063,-0.89891 c -0.26,-0.68522 -0.205,-0.74045 0.269,-0.26914 0.329,0.32614 0.476,0.71409 0.328,0.86212 -0.148,0.14803 -0.416,-0.11881 -0.597,-0.59298 z m -3.767,-0.62722 c -1.014,-1.18545 -1.033,-1.43688 -0.107,-1.43688 0.397,0 0.721,0.32453 0.721,0.72119 0,0.39665 0.216,0.72119 0.48,0.72119 0.265,0 0.481,0.21635 0.481,0.48079 0,0.76895 -0.681,0.55877 -1.575,-0.48629 z m 21.271,-1.43688 c 0,-0.26444 0.229,-0.4808 0.509,-0.4808 0.279,0 0.375,0.21636 0.211,0.4808 -0.163,0.26443 -0.392,0.48079 -0.508,0.48079 -0.117,0 -0.212,-0.21636 -0.212,-0.48079 z m -21.858,-0.96159 c -0.163,-0.26444 -0.07,-0.4808 0.212,-0.4808 0.28,0 0.509,0.21636 0.509,0.4808 0,0.26443 -0.1,0.48079 -0.212,0.48079 -0.117,0 -0.346,-0.21636 -0.509,-0.48079 z m -3.603,-2.88476 c -0.424,-0.27426 -0.487,-0.4691 -0.154,-0.47344 0.312,-0.004 0.661,-0.49416 0.776,-1.08914 0.15,-0.7823 0.226,-0.6492 0.273,0.48079 0.07,1.74928 0.1,1.72257 -0.895,1.08179 z m -0.447,-3.96655 c -0.02,-0.7272 0.183,-1.32218 0.447,-1.32218 0.564,0 0.564,0.36954 0,1.68277 -0.366,0.85209 -0.417,0.81103 -0.447,-0.36059 z m 5.491,0.60099 c -0.163,-0.26444 -0.07,-0.48079 0.212,-0.48079 0.28,0 0.509,0.21635 0.509,0.48079 0,0.26444 -0.1,0.48079 -0.212,0.48079 -0.117,0 -0.346,-0.21635 -0.509,-0.48079 z m 71.338,-3.08286 c 0,-0.10896 -0.317,-1.85674 -0.704,-3.88396 -0.756,-3.95309 -2.073,-6.57002 -3.914,-7.77723 -1.408,-0.9238 -1.451,-1.44146 -0.151,-1.85427 1.357,-0.43112 2.534,0.73493 4.288,4.24852 1.181,2.36398 1.442,3.48379 1.442,6.17628 0,1.87198 -0.207,3.28876 -0.48,3.28876 -0.264,0 -0.481,-0.0892 -0.481,-0.1981 z m 3.363,-33.88725 c 0,-0.79648 0.246,-1.98731 0.546,-2.64629 0.707,-1.55391 1.856,-2.02132 1.856,-0.75518 0,0.52058 -0.216,0.9465 -0.48,0.9465 -0.265,0 -0.481,0.43272 -0.481,0.96159 0,0.52887 -0.209,0.96159 -0.465,0.96159 -0.256,0 -0.349,0.30265 -0.208,0.67255 0.142,0.36991 0.03,0.81539 -0.255,0.98997 -0.32,0.19827 -0.513,-0.22613 -0.513,-1.13073 z m 1.922,-6.30132 c 0,-0.26443 0.229,-0.48079 0.508,-0.48079 0.28,0 0.376,0.21636 0.212,0.48079 -0.163,0.26444 -0.392,0.4808 -0.509,0.4808 -0.116,0 -0.211,-0.21636 -0.211,-0.4808 z m 1.501,-6.49071 c -0.102,-0.73317 -0.122,-2.6742 -0.04,-4.21734 0.02,-0.46848 0.23,-0.73627 0.458,-0.5951 0.228,0.14117 0.514,-0.1246 0.636,-0.5906 0.172,-0.66143 0.233,-0.61622 0.276,0.20613 0.03,0.57938 -0.133,1.17021 -0.364,1.31296 -0.23,0.14275 -0.354,1.23731 -0.274,2.43234 0.08,1.19504 -0.02,2.1728 -0.221,2.1728 -0.201,0 -0.411,-0.32454 -0.466,-0.72119 z m 1.621,-2.64437 c 0.163,-0.26443 0.392,-0.48079 0.509,-0.48079 0.116,0 0.212,0.21636 0.212,0.48079 0,0.26444 -0.229,0.4808 -0.509,0.4808 -0.28,0 -0.375,-0.21636 -0.212,-0.4808 z m -0.24,-10.54908 c 0,-0.24883 0.216,-0.58614 0.48,-0.74957 0.265,-0.16343 0.481,0.0402 0.481,0.45242 0,0.41226 -0.216,0.74957 -0.481,0.74957 -0.264,0 -0.48,-0.20359 -0.48,-0.45242 z m 1.479,-0.92582 c -0.03,-0.9638 0.148,-1.10235 1.175,-0.90586 0.666,0.12758 1.33,0.0411 1.474,-0.19219 0.144,-0.23329 0.486,-0.28541 0.76,-0.11582 0.669,0.41368 -0.493,1.1328 -1.846,1.14236 -0.572,0.004 -1.149,0.27781 -1.283,0.60836 -0.133,0.33054 -0.259,0.089 -0.28,-0.53685 z m 0.443,-4.45261 c 0,-0.43039 0.355,-1.07776 0.789,-1.43861 0.703,-0.58323 0.752,-0.53637 0.448,0.42192 -0.254,0.80383 -0.15,1.07801 0.412,1.07801 0.414,0 0.753,0.19347 0.753,0.42994 0,0.23646 -0.541,0.39873 -1.201,0.36059 -0.76,-0.0439 -1.201,-0.35636 -1.201,-0.85185 z m 2.882,0.54212 c 0,-0.26444 0.337,-0.4808 0.749,-0.4808 0.412,0 0.615,0.21636 0.452,0.4808 -0.163,0.26443 -0.5,0.48079 -0.749,0.48079 -0.249,0 -0.452,-0.21636 -0.452,-0.48079 z m 0,-2.56424 c 0,-0.44544 0.373,-0.79805 0.841,-0.79396 0.479,0.004 0.634,0.16142 0.36,0.36619 -0.264,0.19736 -0.643,0.55464 -0.841,0.79396 -0.198,0.23933 -0.36,0.0745 -0.36,-0.36619 z m -1.201,-2.2437 c 0.163,-0.26444 0.392,-0.48079 0.509,-0.48079 0.116,0 0.212,0.21635 0.212,0.48079 0,0.26444 -0.229,0.48079 -0.509,0.48079 -0.28,0 -0.375,-0.21635 -0.212,-0.48079 z m -0.24,-2.1352 c 0,-0.38104 0.216,-0.82653 0.48,-0.98996 0.264,-0.16343 0.481,-0.068 0.481,0.21202 0,0.28005 0.378,0.51249 0.84,0.51653 0.719,0.006 0.736,0.0751 0.12,0.47344 -1.05,0.67924 -1.921,0.58309 -1.921,-0.21203 z m 1.415,-1.83135 c -0.25,-1.1455 -0.185,-4.31701 0.09,-4.48843 0.205,-0.12656 0.259,-0.52582 0.12,-0.88726 -0.138,-0.36144 0.01,-0.82086 0.337,-1.02094 0.441,-0.27286 0.52,0.10554 0.318,1.51395 l -0.27,1.87772 0.654,-1.44238 c 0.359,-0.79331 0.666,-1.11784 0.682,-0.72119 0.03,0.64106 0.08,0.64106 0.495,0 0.363,-0.56199 0.467,-0.42932 0.473,0.60099 0,0.838 -0.248,1.32219 -0.689,1.32219 -0.911,0 -1.642,1.34181 -1.347,2.47225 0.129,0.49132 0,0.8933 -0.303,0.8933 -0.295,0 -0.548,-0.0541 -0.562,-0.1202 z m 1.467,-7.39097 c 0,-1.06625 0.111,-1.16847 0.721,-0.66232 0.396,0.32919 0.72,0.89658 0.72,1.26085 0,0.36428 -0.324,0.66232 -0.72,0.66232 -0.458,0 -0.721,-0.46062 -0.721,-1.26085 z m 8.877,-9.80912 c -0.855,-0.94503 -0.852,-1.01139 0.09,-2.28377 1.258,-1.69368 2.732,-1.91139 3.688,-0.54494 0.659,0.94066 0.663,1.21566 0.03,2.43132 -0.851,1.64741 -2.528,1.82204 -3.816,0.39739 z"
       id="path1" /></g></svg>
