<?xml version="1.0" encoding="UTF-8" standalone="no"?>
<!-- Created with Inkscape (http://www.inkscape.org/) -->

<svg
   width="231.38646"
   height="235.24007"
   viewBox="0 0 61.221 62.240601"
   version="1.1"
   id="svg1"
   xml:space="preserve"
   xmlns="http://www.w3.org/2000/svg"
   xmlns:svg="http://www.w3.org/2000/svg"><defs
     id="defs1" /><g
     id="g1776"
     transform="matrix(0.26458333,0,0,0.26458333,-4377.9211,-24.759699)"><path
       style="fill:#000000"
       d="m 16656.935,272.14127 c -0.765,-0.22891 -2.602,-0.31562 -4.081,-0.19269 -1.479,0.12294 -3.878,-0.002 -5.33,-0.27779 -1.452,-0.27573 -5.341,-0.69655 -8.642,-0.93516 -4.536,-0.32794 -7.099,-0.79292 -10.501,-1.90474 -2.474,-0.80899 -4.941,-1.47089 -5.482,-1.47089 -1.552,0 -10.585,-2.45961 -11.382,-3.09944 -0.396,-0.31787 -1.963,-1.15173 -3.481,-1.85304 -1.518,-0.7013 -2.76,-1.46451 -2.76,-1.69603 0,-0.23151 -0.815,-0.9854 -1.811,-1.67531 -0.996,-0.68991 -2.22,-1.96128 -2.721,-2.82528 -0.501,-0.86399 -1.414,-2.18147 -2.03,-2.92773 -0.834,-1.00993 -1.12,-1.95378 -1.12,-3.69167 0,-1.28416 -0.225,-2.47377 -0.5,-2.64357 -0.274,-0.1698 -0.368,-0.72254 -0.207,-1.22833 0.16,-0.50578 0.114,-0.9196 -0.102,-0.9196 -0.217,0 -0.338,-1.242 -0.269,-2.76 0.1,-2.17414 -0.05,-2.89138 -0.716,-3.37895 -0.557,-0.40964 -0.665,-0.73429 -0.32,-0.96 0.31,-0.20243 0.45,-1.41411 0.344,-2.98105 -0.204,-3.02198 -0.189,-4.63339 0.07,-7.67471 0.102,-1.18509 -0.05,-2.43204 -0.327,-2.77099 -0.383,-0.46177 -0.336,-0.54919 0.186,-0.34868 0.54,0.20721 0.724,-0.24128 0.815,-1.98756 0.06,-1.24034 0.159,-2.40836 0.21,-2.59561 0.114,-0.4137 -3.418,-3.82245 -3.961,-3.82245 -0.212,0 -0.516,-0.648 -0.674,-1.44 -0.158,-0.792 -0.546,-1.44 -0.862,-1.44 -0.316,0 -0.951,-0.34033 -1.411,-0.75629 -0.459,-0.41596 -1.157,-0.80343 -1.549,-0.86104 -0.393,-0.0576 -1.006,-0.33225 -1.363,-0.6103 -0.608,-0.47433 -8.376,-3.05915 -9.179,-3.05451 -0.998,0.006 -6.112,-2.63708 -6.112,-3.15891 0,-0.32942 -0.238,-0.6783 -0.529,-0.77528 -0.78,-0.25974 -0.866,-5.79199 -0.1,-6.38367 0.342,-0.264 1.109,-1.452 1.706,-2.64 0.803,-1.60079 1.643,-2.43832 3.244,-3.23504 1.188,-0.59127 2.495,-1.07727 2.904,-1.08 0.41,-0.003 0.988,-0.24805 1.285,-0.54515 0.314,-0.31411 2.431,-0.56523 5.058,-0.6 4.038,-0.0535 4.495,-0.14843 4.302,-0.89441 -0.119,-0.45903 -0.372,-0.73782 -0.564,-0.61952 -0.191,0.1183 -0.815,-0.61554 -1.385,-1.63075 -0.794,-1.411 -1.038,-2.65026 -1.038,-5.26048 0,-2.01459 0.202,-3.41465 0.493,-3.41465 0.295,0 0.434,-1.06676 0.346,-2.66167 -0.114,-2.07027 0.04,-2.83336 0.707,-3.43439 0.47,-0.425 0.854,-1.141 0.854,-1.5911 0,-0.4501 0.486,-1.17348 1.081,-1.60751 3.645,-2.66281 4.424,-3.18533 4.752,-3.18533 0.201,0 1.833,-0.67144 3.628,-1.49209 1.794,-0.82066 3.694,-1.67082 4.222,-1.88925 1.761,-0.72853 7.63,-2.29614 12.243,-3.27027 7.338,-1.54971 9.477,-1.90182 16.292,-2.68203 3.548,-0.40615 6.572,-0.92689 6.721,-1.1572 0.149,-0.23032 3.188,-0.40795 6.752,-0.39474 3.565,0.0132 11.609,-0.11013 17.875,-0.27408 6.266,-0.16396 11.505,-0.11664 11.642,0.10516 0.138,0.22179 1.112,0.32027 2.165,0.21883 1.053,-0.10144 2.469,0.0262 3.146,0.28355 0.677,0.25739 4.298,0.58072 8.047,0.71852 7.287,0.26788 9.809,0.52226 12.096,1.22012 0.793,0.24168 3.061,0.54951 5.041,0.68405 14.276,0.9699 18.244,1.51014 18.244,2.48397 0,0.50294 0.294,0.61682 1.008,0.39029 1.909,-0.60582 3.372,-0.57748 4.027,0.078 0.362,0.36142 1.051,0.664 1.532,0.6724 0.481,0.008 1.294,0.33239 1.807,0.72 0.781,0.59119 0.805,0.70473 0.148,0.70473 -0.431,0 -0.926,0.23045 -1.1,0.5121 -0.174,0.28166 -0.03,0.47207 0.332,0.42313 1.408,-0.19325 2.667,0.0559 3.552,0.70274 0.9,0.65824 0.888,0.71419 -0.415,1.92212 -0.79,0.73164 -1.204,1.49044 -1.005,1.84203 0.258,0.45806 0.196,0.46735 -0.268,0.0397 -0.362,-0.33428 -0.444,-0.81561 -0.204,-1.2 0.568,-0.90895 0.656,-1.84182 0.174,-1.84182 -0.472,0 -1.118,0.92751 -1.249,1.79295 -0.258,1.70079 -3.665,5.85244 -5.467,6.66283 -2.932,1.31849 -3.68,1.63744 -5.032,2.14755 -0.792,0.29873 -2.521,0.8316 -3.841,1.18416 -2.006,0.53575 -6.355,2.04125 -9.362,3.24074 -0.396,0.15803 -2.124,0.36984 -3.841,0.4707 -1.716,0.10086 -4.373,0.54286 -5.904,0.98222 -1.531,0.43937 -3.674,0.79885 -4.762,0.79885 -2.297,0 -8.076,0.92612 -8.778,1.40687 -0.264,0.18083 -0.968,0.29165 -1.564,0.24627 -0.924,-0.0703 -0.995,0.0283 -0.481,0.66432 0.365,0.45041 0.389,0.61709 0.06,0.41997 -0.3,-0.17978 -0.812,-0.005 -1.139,0.38786 -0.326,0.39309 -0.898,0.71471 -1.271,0.71471 -1.236,0 -3.045,1.53352 -3.038,2.5752 0,0.60015 0.154,0.80467 0.36,0.49356 0.252,-0.37873 1.515,-0.25894 4.398,0.41722 3.931,0.92163 4.064,0.92334 4.695,0.0605 0.941,-1.28687 0.564,-2.32444 -0.907,-2.49499 -0.705,-0.0817 -1.567,-0.49201 -1.915,-0.91186 -0.565,-0.68072 -0.452,-0.72882 1.045,-0.44424 4.72,0.89724 4.744,0.89414 6.912,-0.88164 1.137,-0.93157 2.467,-1.69377 2.955,-1.69377 0.704,0 0.511,0.38662 -0.933,1.86479 -1.002,1.02563 -1.64,1.9766 -1.418,2.11326 0.222,0.13666 1.447,0.40461 2.723,0.59544 1.406,0.21045 2.431,0.63996 2.604,1.09164 0.239,0.62335 0.345,0.59399 0.648,-0.18022 0.317,-0.80899 0.367,-0.81963 0.396,-0.0849 0.02,0.555 0.422,0.84 1.176,0.84 0.627,0 1.41,0.324 1.739,0.72 0.377,0.45403 0.409,0.72 0.09,0.72 -0.281,0 -0.627,-0.189 -0.77,-0.42 -0.143,-0.231 -0.75,-0.42253 -1.349,-0.42562 -0.599,-0.003 -2.277,-0.34874 -3.729,-0.76811 -1.453,-0.41938 -3.611,-0.82185 -4.797,-0.89439 -1.825,-0.11161 -2.227,0.0296 -2.622,0.91858 -0.256,0.57775 -0.858,1.15315 -1.338,1.27866 -0.48,0.12552 -0.813,0.48812 -0.739,0.80578 0.199,0.85759 -1.526,0.98043 -2.727,0.19416 -1.964,-1.28682 -9.448,-2.51784 -10.42,-1.71404 -0.353,0.29178 -1.353,1.10064 -2.223,1.79747 -1.462,1.17204 -1.632,1.7786 -0.539,1.92751 0.242,0.033 0.656,0.087 0.92,0.12 0.264,0.033 0.48,0.24622 0.48,0.47383 0,0.59025 -3.235,0.15569 -4.778,-0.64175 -1.572,-0.81275 -4.344,-0.80942 -4.657,0.006 -0.125,0.324 -1.099,0.72856 -2.165,0.89902 -1.638,0.26183 -1.847,0.41955 -1.352,1.0166 0.484,0.58236 0.417,0.7067 -0.377,0.7067 -0.53,0 -1.583,-0.32267 -2.339,-0.71704 -0.757,-0.39438 -1.712,-0.71838 -2.124,-0.72 -0.412,-0.002 -1.168,-0.32009 -1.68,-0.70769 -1.25,-0.94514 -3.059,-0.91487 -4.146,0.0694 -0.668,0.60379 -1.027,0.66763 -1.439,0.25573 -0.412,-0.41189 -0.344,-0.62756 0.272,-0.86396 0.773,-0.29644 0.773,-0.36823 0,-1.21574 -0.448,-0.49538 -1.412,-0.90069 -2.142,-0.90069 -1.608,0 -4.278,1.43941 -4.282,2.30833 0,0.34558 -0.213,0.4986 -0.47,0.34005 -0.398,-0.24607 -2.625,0.85631 -3.374,1.6703 -0.796,0.86472 -2.915,1.3418 -4.158,0.93581 -2.678,-0.8751 -3.044,-1.05193 -3.044,-1.47047 0,-0.23321 -0.594,-0.43167 -1.32,-0.44103 -0.726,-0.009 -1.86,-0.3257 -2.52,-0.70299 -1.454,-0.83083 -1.921,-0.88227 -1.921,-0.21167 0,0.27958 0.25,0.3542 0.555,0.16583 0.317,-0.19596 0.424,-0.1332 0.251,0.14671 -0.528,0.85464 -2.503,0.45967 -2.345,-0.46913 0.15,-0.88216 -0.28,-1.02465 -1.582,-0.52494 -0.553,0.21186 -0.628,0.41308 -0.244,0.65025 0.403,0.24888 0.354,0.54515 -0.177,1.07605 -0.403,0.40294 -0.599,0.86633 -0.436,1.02976 0.477,0.47681 -0.802,0.34215 -1.794,-0.18896 -0.707,-0.37834 -1,-0.29854 -1.321,0.36 -0.527,1.08208 -0.477,1.98893 0.132,2.42361 0.264,0.18837 0.546,0.64905 0.627,1.02374 0.126,0.5814 0.03,0.58406 -0.652,0.0181 -0.692,-0.57404 -0.896,-0.5366 -1.517,0.27875 -0.702,0.92043 -0.711,0.91821 -0.409,-0.0977 0.386,-1.2956 -0.363,-1.80917 -1.64,-1.12571 -0.699,0.37385 -0.97,0.37214 -0.97,-0.006 0,-0.28887 -0.185,-0.41073 -0.412,-0.2708 -0.226,0.13994 -1.061,0.0681 -1.856,-0.15972 -1.504,-0.43131 -1.902,-0.29941 -2.878,0.95304 -0.51,0.65458 -0.304,0.76564 1.604,0.86437 1.26,0.0653 2.071,-0.0767 1.912,-0.33477 -0.155,-0.25027 0.408,-0.3952 1.276,-0.32832 1.177,0.0906 1.592,0.37128 1.709,1.15531 0.09,0.56958 -0.02,1.00479 -0.24,0.96712 -0.217,-0.0377 -0.935,-0.0363 -1.595,0.003 -1.051,0.0625 -1.096,0.13215 -0.364,0.55871 0.46,0.26799 1.109,0.45183 1.441,0.40853 0.332,-0.0433 1.008,-0.0531 1.502,-0.0219 0.709,0.0449 0.783,0.19703 0.348,0.72081 -0.426,0.51349 -0.378,0.73027 0.212,0.95661 0.977,0.37484 0.449,1.25945 -0.752,1.25945 -0.588,0 -0.824,-0.24064 -0.659,-0.67145 0.142,-0.36929 0.03,-0.81404 -0.255,-0.98833 -0.301,-0.1857 -0.513,0.0939 -0.513,0.67552 0,0.86551 -0.12,0.91727 -0.941,0.40482 -0.679,-0.4239 -0.779,-0.6904 -0.36,-0.95672 0.373,-0.23717 0.205,-0.37177 -0.471,-0.37649 -0.578,-0.004 -1.153,0.15703 -1.278,0.35794 -0.383,0.62037 0.91,1.98745 1.886,1.99297 0.508,0.003 2.004,0.23477 3.325,0.51533 1.32,0.28055 2.661,0.54077 2.979,0.57825 0.318,0.0375 0.454,0.26992 0.302,0.51652 -0.153,0.24659 -0.868,0.33029 -1.589,0.186 -0.722,-0.1443 -1.565,-0.009 -1.875,0.29962 -0.429,0.42931 -0.801,0.41273 -1.574,-0.0702 -0.84,-0.52451 -1.091,-0.52247 -1.474,0.012 -0.353,0.49426 -0.401,0.45794 -0.206,-0.15604 0.375,-1.17453 -0.857,-1.4233 -1.769,-0.35757 -0.433,0.50482 -0.565,0.91785 -0.295,0.91785 0.27,0 0.686,0.486 0.925,1.08 0.362,0.90228 0.439,0.93332 0.464,0.18865 0.02,-0.65132 0.257,-0.80177 0.871,-0.55868 0.462,0.18297 1.247,0.41531 1.745,0.5163 0.498,0.10099 1.038,0.33281 1.2,0.51516 0.163,0.18234 -0.06,0.20599 -0.486,0.0526 -1.14,-0.40674 -1.922,0.55099 -1.34,1.63954 0.319,0.59584 0.312,0.90614 -0.02,0.94647 -0.273,0.033 -0.695,0.087 -0.937,0.12 -0.748,0.10201 -1.199,0.78 -0.518,0.78 0.353,0 1.025,0.34645 1.493,0.76988 0.685,0.61948 0.743,0.94342 0.296,1.65817 -0.651,1.043 -0.551,1.17108 1.25,1.60366 0.805,0.19339 1.247,0.14352 1.083,-0.12217 -0.153,-0.24692 0.06,-0.57958 0.479,-0.73924 1.074,-0.41211 1.158,-0.37885 1.158,0.45803 0,0.41158 -0.187,0.63267 -0.416,0.49132 -0.229,-0.14136 -0.802,0.16989 -1.275,0.69167 -0.472,0.52177 -0.674,0.94868 -0.448,0.94868 0.226,0 0.157,0.25312 -0.152,0.56248 -0.43,0.42997 -0.311,0.68955 0.504,1.1019 0.834,0.42157 1.219,0.3895 1.766,-0.14676 0.655,-0.64357 0.801,-0.55839 1.101,0.64238 0.07,0.264 -0.528,0.49272 -1.32,0.50827 -1.049,0.0206 -1.422,0.24875 -1.374,0.84 0.04,0.44645 -0.246,0.81173 -0.628,0.81173 -0.382,0 -0.571,0.20107 -0.419,0.44683 0.152,0.24576 0.02,0.60313 -0.286,0.79417 -0.338,0.20903 -0.434,0.13988 -0.24,-0.17367 0.177,-0.28655 0.07,-0.6777 -0.242,-0.86922 -0.401,-0.24834 -0.467,-0.0169 -0.228,0.80683 0.677,2.33098 0.789,4.27506 0.248,4.27506 -0.296,0 -0.03,0.41327 0.595,0.91838 1.213,0.98271 2.498,0.54683 2.024,-0.68674 -0.167,-0.43476 0.08,-0.63342 0.716,-0.58526 0.532,0.0401 0.902,0.19006 0.822,0.33326 -0.08,0.1432 0.259,0.67615 0.754,1.18434 0.494,0.50819 0.898,0.67019 0.898,0.36 0,-0.31019 0.378,-0.55128 0.841,-0.53575 0.76,0.0255 0.752,0.0827 -0.08,0.6 -0.505,0.31447 -1.296,0.93013 -1.757,1.36812 -0.782,0.74224 -0.9,0.73904 -1.744,-0.047 -0.658,-0.61245 -1.204,-0.73303 -1.995,-0.4404 -0.599,0.22162 -0.955,0.62077 -0.79,0.887 0.164,0.26623 0.02,0.48737 -0.329,0.49141 -0.473,0.006 -0.457,0.11608 0.06,0.44542 0.472,0.29905 0.872,0.19197 1.259,-0.33744 0.506,-0.69159 0.704,-0.62777 1.833,0.58982 0.696,0.75092 1.141,1.48949 0.99,1.64126 -0.152,0.15177 -1.454,0.30094 -2.892,0.33148 -1.439,0.0306 -2.757,0.19653 -2.93,0.36883 -0.297,0.2969 1.015,0.42657 4.528,0.44765 1.195,0.007 1.56,0.21741 1.56,0.89749 0,0.48848 -0.162,0.86256 -0.36,0.8313 -1.092,-0.1724 -2.058,0.12051 -1.795,0.54467 0.165,0.26831 0.491,0.37026 0.724,0.22656 0.232,-0.1437 0.646,0.15518 0.918,0.66418 0.382,0.71262 0.325,0.99092 -0.246,1.21006 -0.408,0.15652 -0.617,0.48719 -0.464,0.73481 0.153,0.24763 0.06,0.5859 -0.209,0.75172 -0.605,0.37373 -0.649,2.16484 -0.05,2.16484 0.239,0 0.32,-0.486 0.18,-1.08 -0.252,-1.06764 -0.246,-1.06902 0.532,-0.12 0.54,0.65832 0.747,0.73374 0.66,0.24 -0.08,-0.42901 0.183,-0.66984 0.64,-0.59588 0.604,0.0978 0.742,-0.25804 0.65,-1.68 -0.154,-2.40698 0.568,-3.31173 1.773,-2.22184 1.079,0.97632 1.132,1.78014 0.171,2.57772 -0.844,0.69984 -0.955,1.49273 -0.186,1.32 0.294,-0.066 0.617,0.36552 0.717,0.95894 0.205,1.21225 -0.644,1.27612 -1.61,0.12106 -0.529,-0.63316 -0.687,-0.61016 -1.306,0.19071 -0.388,0.5009 -0.603,1.07645 -0.477,1.27901 0.125,0.20256 -0.04,0.45789 -0.37,0.5674 -0.476,0.15861 -0.475,0.46778 0,1.51989 0.57,1.2493 0.524,1.35034 -0.846,1.86711 -1.411,0.53274 -1.882,1.45062 -1.018,1.98479 0.237,0.14607 0.558,-0.0665 0.713,-0.47237 0.205,-0.53204 0.52,-0.61634 1.131,-0.3021 0.466,0.23971 1.148,0.32886 1.515,0.19812 0.502,-0.17871 0.593,0.062 0.365,0.96994 -0.199,0.7907 -0.06,1.41263 0.412,1.80135 0.764,0.63416 1.006,1.67228 0.286,1.22724 -0.236,-0.14607 -0.554,0.0572 -0.705,0.45167 -0.158,0.41101 0,0.71724 0.352,0.71724 0.395,0 0.597,0.52742 0.544,1.4199 -0.05,0.78094 0.1,1.30725 0.32,1.16957 0.223,-0.13767 0.535,0.0861 0.693,0.49735 0.157,0.41122 0.489,0.62231 0.737,0.4691 0.248,-0.15321 0.8,0.01 1.227,0.36276 0.703,0.58019 0.714,0.54046 0.118,-0.41685 -0.684,-1.09763 -0.412,-1.908 0.46,-1.36951 0.274,0.16965 0.859,1.06684 1.299,1.99376 0.54,1.13801 1.031,1.59633 1.514,1.41133 0.392,-0.15069 1.01,-0.0278 1.373,0.27308 0.363,0.30088 0.659,0.44487 0.659,0.31997 0,-0.1249 1.135,-0.0361 2.521,0.19741 1.386,0.23347 3.469,0.48957 4.629,0.5691 1.377,0.0944 2.336,0.45408 2.761,1.03556 0.615,0.84094 0.654,0.82518 0.689,-0.28079 0.02,-0.64446 0.147,-0.90174 0.28,-0.57174 0.295,0.73023 1.811,0.77909 3.082,0.0993 0.724,-0.38727 1,-0.33353 1.219,0.23724 0.156,0.40587 0.501,0.60351 0.766,0.43921 0.266,-0.16431 0.673,-10e-4 0.903,0.36275 0.319,0.50343 0.421,0.51409 0.426,0.0446 0,-0.45341 0.246,-0.48968 0.905,-0.13689 0.493,0.264 1.014,0.3634 1.156,0.22087 0.143,-0.14252 0.657,-0.31619 1.143,-0.38594 0.487,-0.0697 1.127,-0.60597 1.423,-1.19162 0.361,-0.71574 0.614,-0.85905 0.769,-0.43717 0.339,0.91945 -0.108,1.88388 -0.702,1.51647 -0.304,-0.18746 -0.374,-0.0905 -0.171,0.23701 0.454,0.73464 2.329,0.70728 3.141,-0.0458 0.523,-0.48537 0.573,-0.4712 0.262,0.0742 -0.281,0.4912 -0.208,0.5645 0.269,0.27006 0.36,-0.22226 1.165,-0.45856 1.789,-0.52511 0.991,-0.10565 1.055,-0.0227 0.501,0.65318 -0.562,0.68515 -0.497,0.73486 0.565,0.43227 2.697,-0.76826 4.321,-0.90463 4.321,-0.36283 0,0.34707 0.789,0.50177 2.158,0.4228 1.188,-0.0686 2.159,-0.36462 2.16,-0.65872 0,-0.66308 2.508,-0.62664 3.012,0.0438 0.233,0.30953 0.628,0.15215 1.07,-0.42679 0.385,-0.50443 1.383,-0.9919 2.218,-1.08328 1.567,-0.17151 3.014,0.58561 2.551,1.33482 -0.145,0.23408 0.07,0.42561 0.485,0.42561 0.412,0 0.749,-0.31125 0.749,-0.69167 0,-1.15549 0.887,-1.32442 1.738,-0.3309 0.767,0.8961 2.384,0.90694 1.831,0.0123 -0.146,-0.23633 -0.04,-0.4297 0.243,-0.4297 0.28,0 0.509,0.19578 0.509,0.43506 0,0.23929 0.432,0.32209 0.96,0.18402 0.528,-0.13808 0.96,-0.43645 0.96,-0.66306 0,-0.22661 0.658,-0.28049 1.462,-0.11973 0.804,0.16075 1.426,0.10135 1.383,-0.132 -0.204,-1.10688 0.112,-1.51441 0.996,-1.28337 0.528,0.13808 0.96,0.39549 0.96,0.57204 0,0.65183 3.995,0.29238 4.221,-0.37977 0.153,-0.45418 0.01,-0.54653 -0.438,-0.28959 -0.514,0.29265 -0.537,0.24137 -0.103,-0.22873 0.449,-0.48619 0.766,-0.46166 1.602,0.12407 1.052,0.7367 3.646,0.41888 4.286,-0.52518 0.151,-0.22208 0.676,-0.55248 1.168,-0.73422 0.672,-0.24853 0.824,-0.15063 0.615,0.39502 -0.153,0.39899 -0.09,0.72544 0.135,0.72544 0.227,0 0.543,-0.33769 0.702,-0.75042 0.158,-0.41274 0.487,-0.62719 0.731,-0.47657 0.244,0.15062 1.037,0.0479 1.764,-0.22818 0.998,-0.37949 1.416,-0.35104 1.713,0.11657 0.216,0.34023 0.396,0.39454 0.4,0.1207 0,-0.27385 0.695,-0.5503 1.536,-0.61434 0.84,-0.064 1.803,-0.34458 2.139,-0.62342 0.336,-0.27884 0.825,-0.37503 1.086,-0.21375 0.261,0.16127 1.6,-0.39912 2.975,-1.24532 1.737,-1.06875 3.285,-1.60352 5.068,-1.75135 1.411,-0.11704 2.566,-0.41789 2.566,-0.66855 0,-0.25067 0.378,-0.37949 0.841,-0.28627 0.462,0.0932 1.365,-0.31138 2.007,-0.89912 0.643,-0.58773 1.305,-0.98374 1.473,-0.88 0.168,0.10373 0.615,-0.26746 0.993,-0.82487 0.378,-0.5574 1.064,-1.40775 1.523,-1.88965 0.46,-0.4819 1.296,-1.85508 1.858,-3.05152 0.563,-1.19643 1.544,-2.5853 2.182,-3.08637 0.647,-0.50917 0.947,-1.04164 0.679,-1.20713 -0.295,-0.1823 -0.115,-0.99433 0.468,-2.11301 0.862,-1.6541 1.417,-4.67823 1.415,-7.7178 0,-0.64371 0.271,-1.36215 0.602,-1.59655 0.481,-0.34051 0.482,-0.4751 0,-0.66962 -0.688,-0.2791 -0.822,-1.60346 -0.162,-1.60346 0.485,0 0.395,-1.13406 -0.332,-4.2 -0.266,-1.122 -0.372,-2.04 -0.236,-2.04 0.136,0 0.01,-0.28044 -0.27,-0.62321 -0.284,-0.34277 -0.57,-1.41643 -0.636,-2.38593 -0.06,-0.96949 -0.37,-1.85928 -0.678,-1.9773 -0.307,-0.11802 -0.525,-0.71836 -0.483,-1.33407 0.04,-0.61572 -0.219,-1.85215 -0.579,-2.74762 -0.36,-0.89548 -0.757,-2.51548 -0.881,-3.6 -0.125,-1.08453 -0.547,-2.21536 -0.937,-2.51296 -0.614,-0.46873 -0.596,-0.58112 0.142,-0.84031 0.468,-0.16457 1.116,-0.42336 1.44,-0.57509 0.394,-0.18442 0.705,0.41237 0.94,1.80031 0.193,1.1419 0.297,2.26521 0.231,2.49626 -0.07,0.23104 0.233,0.80956 0.664,1.2856 0.457,0.50505 0.662,1.24778 0.492,1.78333 -0.317,0.99974 1.394,7.09917 2.117,7.54608 0.246,0.15161 0.325,0.59274 0.176,0.98028 -0.149,0.38755 -0.06,0.70463 0.207,0.70463 0.76,0 0.899,9.36368 0.153,10.26259 -0.355,0.42802 -0.344,0.76951 0.04,1.15249 0.344,0.34487 0.381,0.77148 0.101,1.16458 -0.547,0.76448 -0.539,1.84262 0.02,2.7345 0.308,0.49241 0.25,0.56824 -0.214,0.28126 -0.468,-0.28934 -0.551,-0.17095 -0.313,0.44915 0.178,0.46314 0.167,1.09257 -0.02,1.39875 -0.191,0.30617 -0.396,0.87676 -0.455,1.26797 -0.06,0.3912 -0.335,0.7872 -0.614,0.88 -0.278,0.0928 -0.506,0.48514 -0.506,0.8719 0,0.38675 -0.432,1.59732 -0.96,2.69016 -0.528,1.09283 -0.96,2.26749 -0.96,2.61035 0,0.77066 -4.67,6.35528 -7.778,9.30076 -1.267,1.20145 -2.304,2.43012 -2.304,2.73038 0,1.73408 -6.286,5.86826 -8.941,5.88047 -1.275,0.006 -8.035,1.67787 -8.87,2.19404 -0.341,0.21043 -2.144,0.53819 -4.007,0.72836 -1.863,0.19016 -4.252,0.59536 -5.308,0.90043 -2.627,0.7588 -7.158,1.42735 -13.442,1.98326 -2.905,0.25695 -6.203,0.67675 -7.329,0.93289 -2.494,0.56727 -13.74,0.54357 -15.667,-0.033 z m 22.975,-3.22127 c 0.133,-0.34648 -0.144,-0.6 -0.656,-0.6 -0.487,0 -1.11,0.27 -1.384,0.6 -0.375,0.4517 -0.213,0.6 0.656,0.6 0.635,0 1.258,-0.27 1.384,-0.6 z m -34.546,-0.6 c -0.528,-0.22689 -1.501,-0.40618 -2.161,-0.39842 l -1.2,0.0141 1.2,0.38431 c 0.66,0.21137 1.633,0.39066 2.161,0.39842 l 0.96,0.0141 z m 39.247,0.16211 c -0.33,-0.13316 -0.87,-0.13316 -1.2,0 -0.33,0.13315 -0.06,0.2421 0.6,0.2421 0.66,0 0.931,-0.10895 0.6,-0.2421 z m 2.151,0.0279 c -0.16,-0.1595 -0.574,-0.17655 -0.92,-0.0379 -0.383,0.15322 -0.269,0.26696 0.29,0.29 0.506,0.0208 0.789,-0.0926 0.63,-0.25211 z m -46.199,-1.15 c -0.164,-0.264 -0.77,-0.46482 -1.349,-0.44626 -1.014,0.0325 -1.017,0.0485 -0.09,0.44626 1.322,0.56774 1.792,0.56774 1.441,0 z m -4.912,-0.31485 c -0.325,-0.13148 -0.973,-0.13949 -1.44,-0.0178 -0.468,0.12171 -0.202,0.22928 0.591,0.23906 0.792,0.01 1.174,-0.0898 0.849,-0.22127 z m -4.93,-2.56515 c 0,-0.264 -0.216,-0.48 -0.48,-0.48 -0.264,0 -0.48,0.216 -0.48,0.48 0,0.264 0.216,0.48 0.48,0.48 0.264,0 0.48,-0.216 0.48,-0.48 z m 55.451,-0.48 c 0.163,-0.264 0.07,-0.48 -0.212,-0.48 -0.28,0 -0.508,0.216 -0.508,0.48 0,0.264 0.09,0.48 0.211,0.48 0.117,0 0.346,-0.216 0.509,-0.48 z m -73.467,-2.38057 c 0.265,-0.42807 -3.431,-2.41943 -4.49,-2.41943 -0.261,0 -0.611,-0.432 -0.779,-0.96 -0.267,-0.83994 -1.68,-1.41685 -1.68,-0.68571 0,0.69649 4.209,3.572 6.573,4.49009 0.05,0.0196 0.22,-0.17164 0.376,-0.42495 z m 91.238,-0.51216 c 0.168,-0.271 0.559,-0.46141 0.869,-0.42313 1.343,0.16585 3.337,-0.0711 3.046,-0.36199 -0.566,-0.56666 -3.692,-0.21018 -4.769,0.54395 -0.834,0.5845 -0.885,0.7339 -0.249,0.7339 0.439,0 0.936,-0.22173 1.103,-0.49273 z m -85.05,-3.45126 c -0.321,-2.75126 -1.209,-2.79895 -1.045,-0.0561 0.106,1.76328 0.304,2.35108 0.686,2.03406 0.295,-0.24523 0.457,-1.13531 0.359,-1.97797 z m 1.502,2.02949 c 0.168,-0.27209 -0.02,-0.35257 -0.452,-0.18865 -0.831,0.3191 -0.983,0.66315 -0.293,0.66315 0.249,0 0.584,-0.21353 0.745,-0.4745 z m 91.462,-0.9655 c 0,-0.264 -0.229,-0.48 -0.509,-0.48 -0.279,0 -0.374,0.216 -0.211,0.48 0.163,0.264 0.392,0.48 0.508,0.48 0.117,0 0.212,-0.216 0.212,-0.48 z m -96.499,-2.88 c 0.64,-0.4136 0.64,-0.46237 0,-0.43891 -0.396,0.0145 -1.153,0.21202 -1.681,0.43891 l -0.96,0.41253 0.96,0.0264 c 0.528,0.0145 1.285,-0.183 1.681,-0.43891 z m -4.021,-1.21537 c -0.187,-0.48878 0.118,-0.88718 0.909,-1.18812 1.309,-0.49735 1.515,-0.78418 0.591,-0.81934 -0.33,-0.0125 -1.032,-0.18834 -1.56,-0.39064 -0.781,-0.29926 -0.851,-0.24942 -0.372,0.2674 0.42,0.4531 0.443,0.81138 0.08,1.24962 -0.28,0.33792 -0.371,0.83986 -0.2,1.11542 0.473,0.7653 0.872,0.59626 0.553,-0.23434 z m -2.994,-1.93879 c 0.262,-0.6825 -1.519,-2.24953 -2.128,-1.87292 -0.605,0.37386 -0.82,2.58674 -0.269,2.77221 0.856,0.28845 2.124,-0.18704 2.397,-0.89929 z m -4.028,-1.16584 c 0,-0.264 -0.09,-0.48 -0.211,-0.48 -0.117,0 -0.346,0.216 -0.509,0.48 -0.163,0.264 -0.07,0.48 0.212,0.48 0.28,0 0.508,-0.216 0.508,-0.48 z m 6.914,-1.8 c -0.116,-1.44127 -0.244,-1.5082 -1.152,-0.6 -1.213,1.21232 -1.203,1.32112 0.12,1.25446 0.594,-0.0299 1.058,-0.32446 1.032,-0.65446 z m -6.72,-1.00502 c 0.138,-0.22276 0.122,-1.1974 -0.03,-2.16586 -0.231,-1.42031 -0.413,-1.65552 -0.942,-1.21621 -0.361,0.29955 -0.657,0.84219 -0.657,1.20586 0,0.36368 -0.432,0.66123 -0.96,0.66123 -0.528,0 -0.96,0.22875 -0.96,0.50833 0,0.27958 0.184,0.3945 0.409,0.25537 0.225,-0.13912 0.819,0.0573 1.32,0.43641 1.061,0.80274 1.479,0.87485 1.825,0.31487 z m 3.936,-2.18301 c -0.07,-1.31129 -1.531,-2.13204 -2.316,-1.30118 -0.488,0.51605 -0.49,0.69433 -0.01,0.86921 0.33,0.121 0.6,0.53875 0.6,0.92833 0,0.41858 0.23,0.56635 0.562,0.36126 0.37,-0.22902 0.463,-0.0914 0.273,0.40474 -0.159,0.4135 -0.148,0.89217 0.02,1.0637 0.384,0.38401 0.937,-1.09223 0.871,-2.32606 z m 8.544,1.22803 c 0.136,-0.22 -0.07,-0.4 -0.452,-0.4 -0.385,0 -0.699,0.18 -0.699,0.4 0,0.22 0.203,0.4 0.452,0.4 0.248,0 0.563,-0.18 0.699,-0.4 z m -2.657,-2.82858 c 0.599,0.48615 0.674,0.45258 0.433,-0.19293 -0.161,-0.42983 -0.04,-1.05187 0.27,-1.38231 0.31,-0.33044 0,-0.24801 -0.676,0.18319 -1.36,0.86123 -2.195,0.53589 -1.322,-0.51555 0.771,-0.92828 -0.172,-1.77158 -1.507,-1.34803 -0.921,0.29226 -0.963,0.42471 -0.361,1.12768 0.375,0.43809 0.83,1.21065 1.011,1.71679 0.246,0.69047 0.466,0.78322 0.878,0.37143 0.411,-0.4118 0.73,-0.40187 1.274,0.0397 z m -6.296,-2.41117 c 0.284,-0.85178 -1.33,-1.36079 -1.817,-0.57311 -0.22,0.35586 -0.286,0.8313 -0.147,1.05652 0.356,0.57482 1.724,0.238 1.964,-0.48341 z m 7.802,-3.01531 c 0,-0.57464 -1.354,-1.19104 -1.749,-0.79617 -0.421,0.42034 0.292,1.29123 1.057,1.29123 0.38,0 0.692,-0.22278 0.692,-0.49506 z m -7.341,-0.94494 c -0.138,-0.528 -0.03,-0.96 0.243,-0.96 0.292,0 0.25,-0.29376 -0.104,-0.72 -0.776,-0.93465 -2.4,-0.93024 -2.4,0.007 0,1.07638 1.095,2.63349 1.852,2.63349 0.424,0 0.57,-0.34346 0.409,-0.96 z m 6.031,-1.08712 c 0.172,-0.44881 -0.284,-0.55094 -1.749,-0.3917 -1.932,0.20993 -1.946,0.22395 -0.542,0.55033 0.792,0.1842 1.579,0.36046 1.749,0.3917 0.17,0.0312 0.414,-0.21641 0.542,-0.55033 z m -14.297,-1.30738 c 0.168,-0.27209 -0.02,-0.35257 -0.452,-0.18865 -0.831,0.3191 -0.983,0.66315 -0.293,0.66315 0.249,0 0.584,-0.21353 0.745,-0.4745 z m 7.445,-1.93285 c 0.64,-0.42013 0.64,-0.52517 0,-0.9453 -1.037,-0.68065 -1.234,-0.60505 -1.234,0.47265 0,1.0777 0.197,1.1533 1.234,0.47265 z m -2.88,-2.44931 c 0,-0.528 -0.203,-0.835 -0.45,-0.68222 -0.247,0.15278 -0.418,0.69057 -0.38,1.19508 0.09,1.19577 0.83,0.73858 0.83,-0.51286 z m 7.454,0.0776 c -0.156,-0.25247 -0.601,-0.33736 -0.989,-0.18864 -0.992,0.38075 -0.875,0.64768 0.284,0.64768 0.544,0 0.861,-0.20657 0.705,-0.45904 z m -4.574,-1.00399 c 0,-0.22017 -0.24,-0.54873 -0.534,-0.73014 -0.574,-0.35492 -1.469,0.71087 -1.099,1.30929 0.277,0.4491 1.633,-0.0316 1.633,-0.57915 z m -3.141,-0.9038 c 0.152,-0.24576 0.06,-0.58251 -0.212,-0.74833 -0.268,-0.16582 -0.488,0.0353 -0.488,0.44683 0,0.84313 0.288,0.96728 0.7,0.3015 z m 4.581,-2.91317 c 0,-0.264 -0.311,-0.48 -0.691,-0.48 -0.381,0 -0.826,0.216 -0.989,0.48 -0.163,0.264 0.148,0.48 0.692,0.48 0.544,0 0.988,-0.216 0.988,-0.48 z m -4.45,-0.77 c -0.16,-0.1595 -0.574,-0.17655 -0.921,-0.0379 -0.383,0.15322 -0.269,0.26696 0.29,0.29 0.506,0.0208 0.79,-0.0926 0.631,-0.25211 z m 7.112,-1.14426 c -0.02,-1.42385 -0.93,-2.30474 -1.474,-1.42478 -0.156,0.25247 -0.04,0.45904 0.253,0.45904 0.295,0 0.415,0.19651 0.267,0.43668 -0.315,0.50905 0.163,1.96332 0.644,1.96332 0.181,0 0.321,-0.64542 0.31,-1.43426 z m -2.662,0.61115 c 0,-0.0567 -0.436,-0.3367 -0.97,-0.6222 -1.004,-0.53721 -2.112,-0.22887 -1.681,0.46788 0.205,0.33073 2.65,0.47308 2.651,0.15432 z m -1.92,-2.96554 c 0,-0.78174 -1.361,-0.96569 -1.944,-0.26282 -0.475,0.57206 -0.357,0.69147 0.685,0.69147 0.692,0 1.259,-0.19289 1.259,-0.42865 z m -2.641,-1.97135 c 0.164,-0.264 0.08,-0.48 -0.183,-0.48 -0.264,0 -0.614,0.216 -0.777,0.48 -0.163,0.264 -0.08,0.48 0.184,0.48 0.264,0 0.613,-0.216 0.776,-0.48 z m 9.108,-0.3861 c -0.256,-0.18364 -0.458,-1.0359 -0.45,-1.8939 0.02,-1.78141 -0.143,-1.89784 -1.003,-0.72136 -0.431,0.58844 -0.465,1.01804 -0.115,1.44 0.275,0.33075 0.324,0.60136 0.109,0.60136 -0.215,0 0.03,0.30634 0.541,0.68075 0.512,0.37442 1.033,0.57868 1.158,0.45391 0.124,-0.12477 0.02,-0.37711 -0.24,-0.56076 z m -2.332,-0.65414 c -0.05,-1.03376 -1.254,-1.91383 -1.254,-0.91976 0,0.286 0.216,0.52 0.48,0.52 0.264,0 0.454,0.162 0.423,0.36 -0.08,0.53379 0.03,1.08 0.231,1.08 0.1,0 0.15,-0.46811 0.12,-1.04024 z m -3.304,-0.36651 c -0.04,-0.50971 -0.295,-0.81769 -0.571,-0.6844 -0.275,0.13329 -0.109,-0.0769 0.369,-0.46717 0.974,-0.79536 0.528,-1.32091 -0.731,-0.86162 -0.953,0.3477 -0.932,0.92228 0.08,2.09994 0.9,1.05125 0.942,1.04703 0.857,-0.0867 z m -2.1,-1.72057 c -0.151,-0.39197 -0.49,-0.71268 -0.754,-0.71268 -0.264,0 -0.366,0.29768 -0.226,0.66151 0.139,0.36383 0,0.93027 -0.309,1.25875 -0.447,0.47459 -0.344,0.4851 0.5,0.0512 0.648,-0.33334 0.956,-0.82372 0.789,-1.25875 z m 4.63,-0.21762 c 0,-0.25571 -0.324,-0.3406 -0.72,-0.18864 -0.397,0.15196 -0.721,0.36118 -0.721,0.46493 0,0.10376 0.324,0.18865 0.721,0.18865 0.396,0 0.72,-0.20922 0.72,-0.46494 z m 0.699,-2.38189 c 0.355,-0.57437 -0.548,-1.14347 -1.187,-0.74833 -0.537,0.33177 -0.185,1.19516 0.488,1.19516 0.233,0 0.547,-0.20107 0.699,-0.44683 z m -5.98,-0.61532 c 0,-0.20782 -0.432,-0.37785 -0.961,-0.37785 -0.528,0 -0.96,0.20258 -0.96,0.45017 0,0.24759 0.432,0.41763 0.96,0.37785 0.529,-0.0398 0.961,-0.24235 0.961,-0.45017 z m 2.88,-0.82356 c 0,-0.77253 -1.494,-1.97742 -2.037,-1.64222 -0.327,0.20236 -0.116,0.64726 0.572,1.20441 1.237,1.00132 1.465,1.06952 1.465,0.43781 z m -4.321,-1.47429 c 0,-0.264 -0.09,-0.48 -0.211,-0.48 -0.117,0 -0.346,0.216 -0.509,0.48 -0.163,0.264 -0.07,0.48 0.212,0.48 0.28,0 0.508,-0.216 0.508,-0.48 z m -7.201,-1.93188 c 0,-0.27053 -0.55,-0.70103 -1.223,-0.95666 -0.672,-0.25562 -1.915,-1.11328 -2.76,-1.9059 -0.846,-0.79261 -1.88,-1.44212 -2.298,-1.44334 -0.418,-0.001 -0.911,-0.15247 -1.094,-0.33611 -0.184,-0.18364 -0.706,-0.38609 -1.161,-0.44989 -0.513,-0.0721 -0.19,0.41329 0.854,1.28353 0.925,0.76974 2.183,1.89019 2.797,2.48989 0.615,0.5997 1.479,1.23718 1.921,1.41662 1.244,0.50523 2.964,0.4483 2.964,-0.0981 z m 11.388,-0.80755 c -0.66,-0.66079 -0.936,-0.70175 -1.423,-0.21156 -0.485,0.4892 -0.439,0.54544 0.237,0.28807 0.487,-0.18529 0.84,-0.0963 0.84,0.21157 0,0.29224 0.262,0.53135 0.583,0.53135 0.365,0 0.276,-0.30662 -0.237,-0.81943 z m -6.319,-1.2984 c -0.09,-0.80763 0.07,-1.08246 0.523,-0.90865 0.419,0.16087 0.649,-0.10928 0.649,-0.76217 0,-0.55624 -0.216,-1.01135 -0.48,-1.01135 -0.264,0 -0.627,-0.054 -0.806,-0.12 -0.179,-0.066 -0.484,0.474 -0.678,1.2 -0.197,0.73432 -0.159,1.32 0.08,1.32 0.242,0 0.413,0.162 0.382,0.36 -0.09,0.55597 0.04,1.08 0.255,1.08 0.108,0 0.14,-0.52102 0.07,-1.15783 z m 5.973,-0.28217 c 0,-0.264 -0.229,-0.48 -0.508,-0.48 -0.28,0 -0.375,0.216 -0.212,0.48 0.163,0.264 0.392,0.48 0.508,0.48 0.117,0 0.212,-0.216 0.212,-0.48 z m -10.869,-2.0577 c -0.398,-4.91475 -0.79,-6.8608 -1.457,-7.2339 -0.474,-0.26542 -0.566,-0.53553 -0.247,-0.73224 0.688,-0.42552 -0.842,-2.40378 -2.076,-2.68408 -7.441,-1.68948 -9.807,-2.05592 -11.286,-1.74783 -1.661,0.34594 -1.67,0.36204 -1.645,2.93022 0.01,1.56603 0.253,2.65816 0.603,2.77495 0.318,0.10591 0.433,0.42683 0.256,0.71315 -0.205,0.33115 -0.03,0.40904 0.477,0.21407 0.44,-0.16858 0.799,-0.0973 0.799,0.15842 0,0.25572 0.324,0.46494 0.72,0.46494 0.396,0 0.72,0.20922 0.72,0.46494 0,0.25571 0.27,0.36344 0.6,0.23939 0.331,-0.12405 1.663,0.31472 2.962,0.97506 1.299,0.66034 2.654,1.20061 3.011,1.20061 0.767,0 4.247,2.13118 4.714,2.88713 0.492,0.79566 1.925,0.31136 1.849,-0.62483 z m 5.588,-2.53386 c 0,-1.18495 -0.926,-2.60844 -1.697,-2.60844 -0.914,0 -0.891,0.70787 0.07,2.17689 0.881,1.34496 1.625,1.54245 1.625,0.43155 z m -24.356,-2.60844 c -0.857,-1.00003 -2.049,-1.29329 -2.049,-0.50385 0,0.53052 1.409,1.42801 2.276,1.44925 0.394,0.01 0.318,-0.30895 -0.227,-0.9454 z m 32.038,0.48 c 0,-0.264 -0.703,-0.46482 -1.561,-0.44626 -1.307,0.0283 -1.404,0.10056 -0.6,0.44626 1.327,0.56984 2.161,0.56984 2.161,0 z m -8.642,-2.32656 c 0,-0.61089 -1.74,-2.49432 -2.033,-2.20104 -0.418,0.41774 0.783,2.5998 1.433,2.60386 0.33,0.002 0.6,-0.17921 0.6,-0.40282 z m -24.005,-1.89744 c 0,-0.4752 0.259,-1.1232 0.576,-1.44 0.41,-0.40992 0.42,-0.576 0.03,-0.576 -0.3,0 -0.681,0.432 -0.849,0.96 -0.168,0.528 -0.506,0.96 -0.752,0.96 -0.247,0 -0.448,0.216 -0.448,0.48 0,0.264 0.324,0.48 0.72,0.48 0.396,0 0.72,-0.3888 0.72,-0.864 z m 36.007,-1.02767 c 0,-0.80468 -0.851,-1.00394 -1.135,-0.26557 -0.167,0.43567 0,0.71724 0.43,0.71724 0.388,0 0.705,-0.20325 0.705,-0.45167 z m -4.481,-1.20722 c 0,-0.38438 -0.183,-0.58546 -0.408,-0.44683 -0.224,0.13863 -0.283,0.45313 -0.131,0.69889 0.388,0.62802 0.539,0.5573 0.539,-0.25206 z m -2.571,-0.64024 c 0.721,-0.79716 0.71,-0.8642 -0.157,-0.92945 -1.044,-0.0787 -1.644,0.57862 -1.192,1.30858 0.392,0.63531 0.443,0.62097 1.349,-0.37913 z m 28.849,-0.33876 c 0.714,-0.66116 1.695,-1.20211 2.181,-1.20211 0.487,0 1.009,-0.324 1.161,-0.72 0.152,-0.396 0.514,-0.72 0.806,-0.72 0.291,0 0.828,-0.2991 1.194,-0.66466 0.566,-0.56621 0.53,-0.7862 -0.242,-1.48522 -1.423,-1.28733 -5.292,-0.19889 -5.292,1.48865 0,0.38531 0.5,0.66123 1.2,0.66123 0.66,0 1.2,0.18591 1.2,0.41314 0,0.22723 -0.81,0.32113 -1.8,0.20867 -2.946,-0.33451 -4.438,-0.16578 -5.67,0.64078 -1.254,0.82198 -1.143,1.4813 0.343,2.03084 2.047,0.75729 3.624,0.54851 4.919,-0.65132 z m -34.759,-0.0535 c 0,-0.10376 -0.445,-0.18865 -0.989,-0.18865 -0.544,0 -0.861,0.20657 -0.705,0.45904 0.257,0.41443 1.694,0.18495 1.694,-0.27039 z m 12.759,-0.59725 c -0.44,-0.85089 -0.538,-1.5387 -0.258,-1.81828 0.28,-0.27958 0.09,-0.47661 -0.495,-0.52086 -0.52,-0.0392 -1.064,0.12165 -1.21,0.35732 -0.146,0.23567 -0.582,0.30682 -0.97,0.1581 -0.387,-0.14871 -0.705,-0.0185 -0.705,0.28929 0,0.30783 0.197,0.43803 0.438,0.28935 0.241,-0.14869 1.05,0.37857 1.799,1.17167 1.715,1.81727 2.319,1.84891 1.401,0.0734 z m 44.632,0.37588 c 0.175,-0.282 0.598,-0.40488 0.942,-0.27308 0.344,0.13181 0.769,0.0953 0.945,-0.0811 0.177,-0.17644 0.666,-0.32356 1.086,-0.32693 1.575,-0.0126 1.043,-1.06728 -0.854,-1.69326 -1.082,-0.35714 -2.269,-1.07933 -2.637,-1.60487 -0.664,-0.94761 -0.689,-0.94588 -2.966,0.20825 -2.175,1.10187 -2.939,1.8231 -2.504,2.36376 0.232,0.28824 4.289,1.76492 5.1,1.85584 0.314,0.0353 0.714,-0.16657 0.888,-0.44856 z m -43.12,-0.92728 c 0.04,-0.54842 -0.224,-0.96 -0.618,-0.96 -0.848,0 -0.919,1.26784 -0.09,1.60211 0.33,0.13315 0.609,0.25915 0.618,0.28 0.01,0.0208 0.05,-0.39411 0.09,-0.92211 z m -8.51,-0.57135 c 0,-0.63091 -1.091,-0.23585 -1.331,0.48168 -0.116,0.35076 0.103,0.45803 0.571,0.27864 0.418,-0.16042 0.76,-0.50257 0.76,-0.76032 z m 12.758,-0.44659 c 0.144,-0.23213 -0.161,-0.42206 -0.676,-0.42206 -0.516,0 -1.052,0.29955 -1.193,0.66567 -0.179,0.46825 0.02,0.59342 0.677,0.42206 0.512,-0.13398 1.049,-0.43354 1.192,-0.66567 z m 10.25,-0.0621 c 0.888,-1.42151 0.359,-1.89437 -2.124,-1.89814 -2.227,-0.003 -3.121,0.32892 -3.121,1.16029 0,0.85757 0.255,0.96701 2.281,0.98166 0.594,0.004 1.08,0.19419 1.08,0.422 0,0.82274 1.224,0.39001 1.884,-0.66581 z m 39.569,-0.24 c 1.152,-0.93407 1.505,-2.52 0.561,-2.52 -0.335,0 -0.877,0.324 -1.206,0.72 -0.329,0.396 -0.99,0.72 -1.471,0.72 -1.907,0 -1.179,1.5017 0.915,1.88957 0.09,0.0167 0.631,-0.34757 1.201,-0.80957 z m -53.695,-1.08 c 0.163,-0.264 -0.161,-0.48 -0.721,-0.48 -0.559,0 -0.883,0.216 -0.72,0.48 0.164,0.264 0.488,0.48 0.72,0.48 0.233,0 0.557,-0.216 0.721,-0.48 z m 35.641,-0.48 c 0.986,-0.528 2.162,-0.96 2.615,-0.96 0.453,0 0.996,-0.29143 1.208,-0.64761 0.444,-0.74926 4.944,-1.48382 4.944,-0.80706 0,0.24583 -0.378,0.65851 -0.84,0.91707 -0.755,0.42248 -0.718,0.51604 0.36,0.92373 2.849,1.07655 4.995,1.10895 6.722,0.10147 0.924,-0.53918 2.274,-1.2146 3,-1.50092 0.726,-0.28633 1.321,-0.71546 1.321,-0.95364 0,-0.23817 0.178,-0.43304 0.397,-0.43304 0.218,0 0.294,0.70128 0.168,1.55841 -0.21,1.42878 -0.16,1.50144 0.596,0.87353 0.454,-0.37668 0.729,-1.05631 0.61,-1.51029 -0.177,-0.67726 0.238,-0.88212 2.313,-1.14136 2.462,-0.30754 5.2,-1.61348 3.597,-1.71567 -0.396,-0.0252 -1.425,-0.11521 -2.286,-0.19992 -0.862,-0.0847 -1.694,0.0523 -1.85,0.30451 -0.16,0.2592 -1.123,0.31677 -2.214,0.13243 -1.132,-0.19118 -2.055,-0.12834 -2.231,0.15191 -0.282,0.449 -4.024,0.67603 -22.145,1.34374 -4.241,0.15628 -9.506,0.0476 -12.242,-0.25277 -2.641,-0.28984 -6.746,-0.62204 -9.122,-0.73823 -7.925,-0.38746 -17.754,-1.30823 -18.572,-1.73981 -1.367,-0.72085 -2.312,-0.49113 -2.312,0.56185 0,0.65777 -0.201,0.87099 -0.601,0.63749 -0.33,-0.19296 -0.188,0.11829 0.315,0.69167 0.963,1.09842 2.206,1.397 2.206,0.53016 0,-0.29107 0.408,-0.3829 0.944,-0.21263 0.52,0.16484 2.047,0.30824 3.395,0.31868 1.9,0.0147 2.391,0.17002 2.191,0.69264 -0.255,0.664 -0.03,0.79366 1.392,0.79366 2.382,0 2.754,-0.12474 2.234,-0.75066 -0.42,-0.50618 -0.124,-0.60934 1.502,-0.52265 1.512,0.0807 2.008,0.29985 1.959,0.8655 -0.04,0.41661 0.126,0.63906 0.36,0.49432 0.234,-0.14474 0.426,0.18158 0.426,0.72516 0,0.99541 0.397,1.17978 2.16,1.0021 1.692,-0.17053 1.906,-0.90958 0.438,-1.51344 -0.769,-0.31645 -1.56,-0.54047 -1.758,-0.49784 -0.198,0.0426 -0.36,-0.14527 -0.36,-0.41755 0,-0.69925 1.473,-1.18257 1.849,-0.60642 0.171,0.26313 0.851,0.59518 1.512,0.7379 0.66,0.14272 2.547,0.76858 4.194,1.3908 2.309,0.87204 3.189,1.01097 3.841,0.60621 0.466,-0.28881 1.993,-0.79903 3.395,-1.13383 2.221,-0.53071 2.825,-0.50318 4.705,0.21474 1.407,0.53748 2.732,0.71558 3.813,0.51281 1.221,-0.22911 1.656,-0.14114 1.656,0.3351 0,0.82215 0.965,1.79775 1.778,1.79775 0.344,0 1.432,-0.432 2.417,-0.96 z m -43.083,0.056 c 0,-0.5747 -1.857,-1.02677 -2.166,-0.52724 -0.135,0.21923 0.135,0.4979 0.6,0.61925 1.388,0.36213 1.566,0.35169 1.566,-0.092 z m 3.558,-2.52575 c -0.14,-0.22563 -0.665,-0.41023 -1.166,-0.41023 -0.713,0 -0.891,0.30923 -0.812,1.40948 l 0.1,1.40948 1.066,-0.99925 c 0.586,-0.54959 0.951,-1.18386 0.812,-1.40948 z m 8.925,1.74977 c 0,-0.44336 -0.451,-0.72 -1.172,-0.72 -1.672,0 -1.982,0.85586 -0.397,1.09541 0.731,0.11041 1.383,0.23311 1.449,0.27267 0.07,0.0396 0.12,-0.25208 0.12,-0.64808 z m -27.707,-2.64 c -0.138,-0.528 -0.442,-0.96 -0.675,-0.96 -0.233,0 -0.424,0.432 -0.424,0.96 0,0.528 0.304,0.96 0.675,0.96 0.439,0 0.587,-0.33607 0.424,-0.96 z m 7.062,-1.01666 c 0,-0.264 -0.216,-0.3465 -0.48,-0.18334 -0.264,0.16316 -0.48,0.51266 -0.48,0.77666 0,0.264 0.216,0.3465 0.48,0.18334 0.264,-0.16316 0.48,-0.51266 0.48,-0.77666 z m -1.246,-0.82886 c 0.37,-0.59844 -2.95,-4.04774 -3.544,-3.68121 -0.713,0.44084 -0.125,1.20673 0.927,1.20673 0.897,0 1.693,1.19554 1.518,2.28 -0.109,0.67424 0.713,0.8196 1.099,0.19448 z m 50.378,-0.55242 c 0.221,-0.20533 -0.211,-0.3681 -0.96,-0.36171 -0.749,0.006 -6.007,-0.11139 -11.684,-0.26173 -10.845,-0.28719 -11.127,-0.15422 -1.681,0.79235 5.895,0.59068 13.605,0.49977 14.325,-0.16891 z m 19.042,-0.77804 c 0,-0.10121 -0.918,-0.16249 -2.04,-0.13617 -1.663,0.039 -1.818,0.11168 -0.84,0.39259 1.116,0.32055 2.88,0.16347 2.88,-0.25642 z m 8.162,0.29598 c 0,-0.264 -0.1,-0.48 -0.212,-0.48 -0.116,0 -0.345,0.216 -0.508,0.48 -0.164,0.264 -0.07,0.48 0.211,0.48 0.28,0 0.509,-0.216 0.509,-0.48 z m 2.111,0.08 c 0.136,-0.22 -0.06,-0.4 -0.431,-0.4 -0.373,0 -0.567,0.18 -0.431,0.4 0.136,0.22 0.33,0.4 0.431,0.4 0.101,0 0.295,-0.18 0.431,-0.4 z m -53.041,-0.25206 c -0.501,-0.43056 -3.798,-0.69063 -3.544,-0.27951 0.154,0.24836 1.059,0.45157 2.012,0.45157 0.952,0 1.642,-0.0774 1.532,-0.17206 z m -6.017,-0.79521 c -0.268,-0.268 -2.094,-0.60663 -4.057,-0.75251 -1.963,-0.14588 -4.433,-0.46133 -5.49,-0.701 -1.056,-0.23966 -2.46,-0.43446 -3.12,-0.43289 -1.881,0.004 -0.193,0.76802 2.64,1.19399 1.321,0.19851 3.373,0.51629 4.561,0.70617 3.453,0.55176 6.025,0.54529 5.466,-0.0138 z m 47.107,-1.40244 c 2.113,-0.24272 6.218,-0.48356 9.122,-0.53519 2.903,-0.0516 6.319,-0.30402 7.59,-0.56087 l 2.311,-0.46701 -0.254,-2.35361 c -0.272,-2.51944 0.322,-3.165 1.011,-1.09896 l 0.418,1.25466 1.579,-1.3278 1.578,-1.32779 -1.249,-1.15756 -1.248,-1.15756 -1.924,1.52312 c -1.643,1.30106 -1.834,1.63389 -1.308,2.28284 0.444,0.54808 0.452,0.66173 0.03,0.40796 -0.781,-0.46884 -3.332,0.88766 -3.994,2.12344 -0.424,0.79262 -0.663,0.8733 -1.22,0.41135 -0.525,-0.43588 -0.561,-0.7332 -0.148,-1.231 0.407,-0.49052 0.403,-0.82739 -0.02,-1.33358 -0.385,-0.46298 -0.403,-0.77568 -0.06,-0.98832 0.729,-0.45083 1.573,0.20858 1.271,0.99414 -0.371,0.96836 0.384,0.82533 1.365,-0.2583 0.463,-0.51137 0.7,-1.15937 0.527,-1.44 -0.178,-0.28715 0.06,-0.51692 0.553,-0.52552 1.393,-0.0245 2.438,-1.1072 2.309,-2.39362 -0.06,-0.65511 -0.146,-1.46111 -0.179,-1.79111 -0.08,-0.82288 -1.279,-0.75438 -2.157,0.12368 -0.526,0.52608 -0.818,0.57173 -1.068,0.16718 -0.189,-0.30607 0.01,-0.81754 0.449,-1.13659 1.085,-0.79276 1.012,-2.15427 -0.115,-2.15427 -0.5,0 -1.047,-0.36012 -1.216,-0.80026 -0.445,-1.16085 -1.287,-0.13803 -1.337,1.62532 -0.05,1.70895 0.385,2.53494 1.33,2.53494 0.823,0 0.916,0.765 0.15,1.2381 -0.37,0.2283 -0.29,0.47564 0.25,0.77782 0.436,0.2437 0.66,0.6563 0.499,0.91689 -0.186,0.30121 -0.54,0.26906 -0.97,-0.0883 -0.549,-0.4554 -0.678,-0.3581 -0.678,0.51268 0,0.78715 -0.224,1.01605 -0.84,0.85538 -1.42,-0.37094 -4.66,1.7527 -4.832,3.16758 -0.111,0.91448 -0.394,1.20723 -1.068,1.10444 -1.42,-0.21672 -1.6,-0.67527 -0.496,-1.26587 0.732,-0.39187 0.899,-0.7629 0.611,-1.35889 -0.218,-0.45092 -0.358,-1.31117 -0.311,-1.91168 0.05,-0.6005 -0.102,-1.20725 -0.33,-1.34832 -0.228,-0.14108 -0.415,-0.0231 -0.415,0.26211 0,0.28524 -0.54,0.76466 -1.2,1.06538 -0.661,0.30071 -1.201,0.81892 -1.201,1.15157 0,0.33265 -0.642,0.74597 -1.428,0.91849 -0.786,0.17252 -1.38,0.51471 -1.32,0.76042 0.06,0.24571 -0.569,0.88301 -1.397,1.41623 -1.314,0.84708 -1.54,0.87515 -1.791,0.22235 -0.193,-0.50447 0.107,-0.89653 0.924,-1.20712 1.326,-0.50413 3.533,-2.78062 3.557,-3.66928 0,-0.308 -0.255,-0.66895 -0.585,-0.80211 -0.359,-0.14463 -0.262,-0.25736 0.24,-0.28 1.182,-0.0533 1.048,-1.34714 -0.18,-1.73691 -0.64,-0.2031 -1.174,-0.081 -1.433,0.32765 -0.345,0.54421 -0.414,0.54162 -0.42,-0.0157 0,-0.3669 -0.385,-0.97692 -0.848,-1.3556 -0.462,-0.37868 -0.568,-0.5508 -0.236,-0.38249 0.332,0.16831 0.735,-0.0372 0.896,-0.45666 0.186,-0.48364 0.492,-0.60806 0.837,-0.34007 1.048,0.81441 3.789,1.50905 4.876,1.23611 1.14,-0.2859 1.911,-1.9078 1.136,-2.3869 -0.244,-0.1505 -0.334,-0.45024 -0.2,-0.66609 0.133,-0.21584 -0.08,-0.65937 -0.472,-0.98561 -0.394,-0.32623 -0.715,-0.88907 -0.715,-1.25073 0,-0.36167 -0.464,-1.19018 -1.03,-1.84114 -0.845,-0.97158 -1.2,-1.09184 -1.986,-0.67148 -0.86,0.46015 -0.933,0.38613 -0.72,-0.72979 0.179,-0.93265 -0.04,-1.42646 -0.894,-1.98323 -1.339,-0.87717 -1.532,-2.63924 -0.289,-2.63924 0.463,0 1.597,0.96382 2.52,2.14183 0.923,1.17801 1.849,2.15001 2.058,2.16 0.911,0.0436 3.221,2.198 3.221,3.0035 0,0.48664 0.378,1.0258 0.84,1.19812 0.463,0.17233 1.15,0.74369 1.527,1.26968 0.654,0.91095 0.713,0.86686 1.23,-0.92839 0.434,-1.50432 0.415,-1.96336 -0.1,-2.27424 -0.352,-0.21423 -0.494,-0.6256 -0.316,-0.91417 0.195,-0.31567 0.102,-0.3874 -0.233,-0.18007 -0.309,0.19052 -0.68,0.0257 -0.832,-0.36872 -0.15,-0.39232 -0.592,-0.83554 -0.982,-0.98493 -0.389,-0.14939 -0.603,-0.10177 -0.474,0.10581 0.128,0.20758 0.04,0.6893 -0.195,1.07049 -0.333,0.53881 -0.557,0.56495 -1.005,0.11742 -0.432,-0.43233 -0.439,-0.73973 -0.03,-1.23475 0.422,-0.50798 0.329,-0.89327 -0.405,-1.68028 -1.192,-1.27976 -1.253,-2.24816 -0.111,-1.7782 0.462,0.1902 1.164,0.44644 1.56,0.56943 0.396,0.12299 1.153,0.89328 1.681,1.71176 1.211,1.87776 2.16,2.22723 2.16,0.79571 0,-0.594 -0.128,-0.95166 -0.285,-0.79479 -0.39,0.39017 -3.211,-2.87827 -2.907,-3.36908 0.575,-0.93119 -2.347,-0.52322 -3.454,0.48204 -0.655,0.59501 -1.045,0.82924 -0.868,0.52051 0.618,-1.07793 -2.882,-1.6274 -10.54,-1.65461 -4.367,-0.0155 -10.095,0.29698 -13.392,0.73057 -3.169,0.41673 -7.746,0.75942 -10.171,0.76153 -2.425,0.002 -4.922,0.19874 -5.549,0.43697 -0.627,0.23823 -3.503,0.58621 -6.393,0.7733 -3.293,0.21324 -7.313,0.87746 -10.774,1.7803 -3.036,0.79208 -6.493,1.64584 -7.681,1.89725 -3.382,0.71541 -5.42,1.39384 -6.722,2.23755 -0.66,0.42774 -2.112,1.10638 -3.227,1.50808 -1.115,0.40171 -2.898,1.55916 -3.962,2.57212 -3.504,3.33488 -3.094,5.48721 1.3,6.82969 1.523,0.46535 2.985,0.99885 3.249,1.18556 0.264,0.18671 2.64,0.59711 5.281,0.912 2.64,0.31489 5.557,0.78425 6.481,1.04303 2.394,0.67033 12.831,1.89402 18.484,2.16711 2.64,0.12756 4.97,0.2768 5.177,0.33164 1.3,0.34491 31.053,0.24008 34.193,-0.12048 z M 16650.845,179.4 c -0.396,-1.18602 -0.118,-2.41851 0.635,-2.82139 0.817,-0.4376 0.861,-0.38561 0.4,0.47593 -0.349,0.65148 -0.358,1.06588 -0.03,1.2695 0.55,0.33947 0.181,1.19596 -0.514,1.19596 -0.249,0 -0.47,-0.054 -0.492,-0.12 z m 7.673,-2.90298 c 0.502,-1.35886 0.18,-2.24699 -0.832,-2.29491 -0.44,-0.0208 -0.561,-0.13638 -0.27,-0.25675 0.711,-0.29349 0.222,-2.70029 -0.493,-2.42594 -0.309,0.11831 -0.592,-0.19316 -0.629,-0.69216 -0.04,-0.49899 0.134,-0.90726 0.382,-0.90726 0.247,0 0.45,-0.41925 0.45,-0.93167 0,-0.51242 0.189,-1.04848 0.42,-1.19125 0.231,-0.14276 0.42,0.31842 0.42,1.02484 0,0.79264 0.485,1.70135 1.266,2.37336 0.697,0.59891 1.21,1.36699 1.141,1.70683 -0.07,0.33984 0.16,0.55854 0.509,0.486 0.35,-0.0725 0.496,0.0952 0.324,0.37273 -0.171,0.27754 -0.673,0.44489 -1.116,0.37189 -0.624,-0.10314 -0.784,0.20642 -0.717,1.38869 0.05,0.92075 -0.176,1.62233 -0.579,1.77702 -0.509,0.19502 -0.574,0.005 -0.276,-0.80142 z m -20.505,-1.31839 c -0.359,-0.58201 -0.926,-0.90528 -1.32,-0.75386 -0.38,0.1458 -0.691,0.0559 -0.691,-0.19983 0,-0.25572 -0.422,-0.46494 -0.937,-0.46494 -0.515,0 -1.109,-0.27 -1.32,-0.6 -0.456,-0.7132 -1.716,-1.52142 -3.907,-2.50601 -0.885,-0.39804 -1.512,-0.99184 -1.4,-1.32716 0.293,-0.88169 1.894,-1.06251 2.491,-0.2814 0.547,0.71607 2.298,1.96732 5.17,3.69532 l 1.778,1.06946 -0.23,-1.10511 c -0.408,-1.96287 -0.547,-6.6251 -0.197,-6.6251 0.186,0 0.236,-0.54 0.11,-1.2 -0.127,-0.66 -0.02,-1.2 0.23,-1.2 0.253,0 0.488,0.81 0.523,1.8 0.03,0.99 0.104,2.521 0.156,3.40223 0.05,0.88211 -0.184,1.77378 -0.524,1.98392 -0.477,0.29421 -0.426,0.48933 0.221,0.85135 0.594,0.33198 0.674,0.572 0.275,0.81881 -0.421,0.25971 -0.427,0.51588 -0.02,1 0.297,0.35797 0.469,1.1032 0.383,1.65607 l -0.157,1.00522 z m 9.031,-0.45863 c 0,-0.264 0.337,-0.48 0.748,-0.48 0.412,0 0.615,0.216 0.452,0.48 -0.163,0.264 -0.5,0.48 -0.748,0.48 -0.249,0 -0.452,-0.216 -0.452,-0.48 z m 3.961,-0.54787 c -0.33,-0.33227 -0.6,-0.87815 -0.6,-1.21307 0,-0.34407 -0.314,-0.48875 -0.72,-0.33264 -0.847,0.32479 -0.907,-0.022 -0.224,-1.29798 0.274,-0.51064 0.899,-0.92844 1.389,-0.92844 1.153,0 1.705,1.38174 0.707,1.76497 -0.54,0.20684 -0.592,0.38801 -0.185,0.63935 0.312,0.19289 0.492,0.71549 0.4,1.16133 -0.134,0.65082 -0.285,0.69152 -0.767,0.20648 z m -8.512,-1.84081 c -0.472,-0.52178 -1.046,-0.83303 -1.274,-0.69167 -0.229,0.14135 -0.416,-0.18774 -0.416,-0.73132 0,-0.54358 0.115,-0.98833 0.257,-0.98833 0.671,0 2.623,1.62233 2.623,2.18001 0,0.34628 0.378,0.72838 0.84,0.84911 0.678,0.17694 0.646,0.23032 -0.165,0.2752 -0.553,0.0306 -1.392,-0.37123 -1.865,-0.893 z m 18.95,-3.44928 c -1.289,-1.2889 -1.405,-1.58168 -0.764,-1.94029 0.457,-0.25575 1.136,-0.21833 1.722,0.0948 0.653,0.34951 0.966,0.35609 0.966,0.0203 0,-0.723 0.815,-0.60877 1.108,0.15537 0.183,0.47746 -0.125,0.6086 -1.149,0.48937 -1.591,-0.18522 -1.712,0.11796 -0.652,1.63157 1.059,1.51136 0.542,1.32203 -1.231,-0.45116 z m -10.749,0.47796 c 0.136,-0.22 0.451,-0.4 0.699,-0.4 0.249,0 0.452,0.18 0.452,0.4 0,0.22 -0.315,0.4 -0.699,0.4 -0.385,0 -0.588,-0.18 -0.452,-0.4 z m 2.326,-0.61982 c -0.179,-0.5391 -0.356,-1.19618 -0.393,-1.46018 -0.04,-0.264 -0.714,-0.42949 -1.505,-0.36776 -1.209,0.0944 -1.285,0.0426 -0.477,-0.32627 0.528,-0.24117 0.69,-0.48068 0.36,-0.53223 -0.33,-0.0516 -0.816,-0.14774 -1.08,-0.21374 -0.264,-0.066 -0.697,-0.147 -0.961,-0.18 -0.264,-0.033 -0.48,-0.51542 -0.48,-1.07204 0,-1.46365 1.933,-0.86377 4.056,1.25889 0.92,0.92023 1.889,1.67315 2.153,1.67315 0.442,0 1.473,1.49404 1.473,2.13607 0,0.15355 -0.635,0.23083 -1.411,0.17173 -0.934,-0.0712 -1.52,-0.43798 -1.735,-1.08762 z m 15.026,0.38279 c -0.199,-0.30637 -0.396,-1.42872 -0.437,-2.49411 -0.04,-1.06539 -0.283,-1.89473 -0.535,-1.84297 -0.252,0.0518 -0.524,-0.29665 -0.604,-0.77425 -0.109,-0.64919 0.117,-0.83092 0.896,-0.72 0.821,0.11685 1.074,0.52432 1.189,1.9184 0.1,1.17491 0.421,1.84209 0.961,1.98432 0.754,0.19888 0.755,0.21828 0,0.26996 -0.448,0.0309 -0.875,0.53558 -0.961,1.13568 -0.1,0.68602 -0.286,0.8768 -0.515,0.52297 z m -18.121,-1.04297 c 0,-0.22 0.314,-0.4 0.699,-0.4 0.384,0 0.587,0.18 0.451,0.4 -0.136,0.22 -0.45,0.4 -0.699,0.4 -0.248,0 -0.451,-0.18 -0.451,-0.4 z m -9.362,-0.56 c -0.164,-0.264 -0.07,-0.48 0.211,-0.48 0.28,0 0.509,0.216 0.509,0.48 0,0.264 -0.1,0.48 -0.212,0.48 -0.116,0 -0.345,-0.216 -0.508,-0.48 z m 16.563,-1.86123 c 0,-1.34586 -0.395,-1.73959 -1.56,-1.55561 -0.559,0.0881 -0.425,-0.64499 0.24,-1.32145 0.33,-0.33565 0.384,-0.56927 0.12,-0.51915 -0.99,0.18789 -1.681,-0.0397 -1.681,-0.55391 0,-0.31472 0.343,-0.39366 0.841,-0.19363 0.462,0.18576 1.104,0.38261 1.426,0.43746 0.322,0.0549 0.754,0.28462 0.96,0.51058 0.206,0.22597 0.104,0.25547 -0.226,0.0656 -0.352,-0.2023 -0.6,-0.0825 -0.6,0.28922 0,0.34898 0.466,0.84773 1.037,1.10833 0.675,0.30863 1.077,0.97585 1.151,1.91382 0.06,0.792 0,1.16098 -0.123,0.81997 -0.183,-0.47618 -0.394,-0.49038 -0.912,-0.0612 -0.553,0.45921 -0.673,0.29167 -0.673,-0.93997 z m -13.923,-0.53877 c 0,-0.264 0.216,-0.48 0.48,-0.48 0.264,0 0.48,0.216 0.48,0.48 0,0.264 -0.216,0.48 -0.48,0.48 -0.264,0 -0.48,-0.216 -0.48,-0.48 z m 2.507,-2.67299 c -0.866,-0.90586 -1.992,-1.64701 -2.503,-1.64701 -0.512,0 -1.161,-0.432 -1.444,-0.96 -0.444,-0.83005 -0.365,-0.95957 0.583,-0.95684 1.892,0.005 6.513,3.80253 5.878,4.83001 -0.432,0.69873 -0.826,0.50061 -2.514,-1.26616 z m 14.777,1.23299 c 0,-0.264 0.228,-0.48 0.508,-0.48 0.28,0 0.375,0.216 0.212,0.48 -0.163,0.264 -0.392,0.48 -0.509,0.48 -0.116,0 -0.211,-0.216 -0.211,-0.48 z m -8.882,-1.44 c 0.163,-0.264 0.392,-0.48 0.508,-0.48 0.117,0 0.212,0.216 0.212,0.48 0,0.264 -0.229,0.48 -0.508,0.48 -0.28,0 -0.375,-0.216 -0.212,-0.48 z m -58.157,18.00276 c -0.151,-0.39449 -0.469,-0.59774 -0.705,-0.45167 -0.678,0.41885 -0.501,1.16891 0.275,1.16891 0.428,0 0.597,-0.28157 0.43,-0.71724 z m 7.747,-0.72276 c -1.312,-0.56338 -1.681,-0.56338 -1.681,0 0,0.264 0.595,0.46482 1.321,0.44626 1.17,-0.0299 1.211,-0.0807 0.36,-0.44626 z m -3.601,-0.48 c -0.396,-0.25591 -1.26,-0.45343 -1.92,-0.43891 -1.1,0.0242 -1.12,0.0611 -0.24,0.43891 0.528,0.22689 1.392,0.4244 1.92,0.43891 0.793,0.0218 0.834,-0.0549 0.24,-0.43891 z m 92.488,-0.36 c 2.969,-0.97678 3.478,-1.73853 1.865,-2.79506 -1.08,-0.70766 -1.259,-0.68427 -2.745,0.35904 -0.875,0.61381 -1.662,1.27802 -1.75,1.47602 -0.09,0.198 -0.443,0.36 -0.789,0.36 -0.346,0 -0.753,0.324 -0.905,0.72 -0.376,0.97907 1.109,0.93788 4.324,-0.12 z m 3.531,0.62833 c 0,-0.50663 -0.921,-0.71948 -1.195,-0.27616 -0.166,0.26831 0.03,0.48783 0.447,0.48783 0.411,0 0.748,-0.0953 0.748,-0.21167 z m 2.401,-0.74833 c 0,-0.264 -0.445,-0.48 -0.989,-0.48 -0.543,0 -0.855,0.216 -0.692,0.48 0.164,0.264 0.608,0.48 0.989,0.48 0.38,0 0.692,-0.216 0.692,-0.48 z m -102.916,-0.72296 c -0.756,-0.39437 -2.052,-0.69583 -2.88,-0.66992 -1.395,0.0436 -1.346,0.0933 0.655,0.67288 2.96,0.85732 3.873,0.85611 2.225,-0.003 z m 112.208,-0.95745 c 0.753,-0.39297 1.617,-0.56618 1.92,-0.3849 0.305,0.183 0.268,-0.0189 -0.08,-0.45402 -0.639,-0.78813 -2.005,-0.65252 -2.005,0.19901 0,0.25134 -0.192,0.33861 -0.426,0.19393 -0.234,-0.14467 -0.693,0.0586 -1.019,0.45168 -0.755,0.90919 -0.136,0.90701 1.615,-0.006 z m -8.476,-0.42117 c 0.211,-0.36388 1.069,-0.80937 1.907,-0.99 1.36,-0.29324 1.496,-0.22519 1.271,0.63546 -0.195,0.74521 -0.03,0.94719 0.724,0.89035 0.537,-0.0404 0.878,-0.23216 0.758,-0.42606 -0.119,-0.19391 0.544,-0.71368 1.474,-1.15505 0.93,-0.44138 1.691,-1.10189 1.691,-1.46781 0,-0.36592 0.277,-0.66531 0.614,-0.66531 0.536,0 2.267,-1.6143 2.267,-2.11413 0,-0.10074 -0.304,-0.29974 -0.675,-0.44222 -0.38,-0.14561 -1.571,0.56768 -2.721,1.62864 -2.266,2.09182 -3.065,2.37635 -2.605,0.92771 0.512,-1.61417 -1.21,-1.151 -3.721,1.00045 -2.183,1.87066 -2.805,2.83955 -1.824,2.83955 0.251,0 0.629,-0.29771 0.84,-0.66158 z m -21.474,-1.71279 c 0.388,-0.72551 0.325,-1.03256 -0.285,-1.37358 -0.54,-0.30237 -0.615,-0.54421 -0.239,-0.77623 0.3,-0.18537 0.885,0.003 1.3,0.41799 0.99,0.98994 1.638,0.53775 1.638,-1.14336 0,-1.73681 -1.147,-2.7916 -2.139,-1.9679 -0.385,0.31905 -0.958,0.42013 -1.275,0.22461 -0.351,-0.21681 -0.449,-0.15225 -0.253,0.16551 0.177,0.28655 0.09,0.66577 -0.199,0.84272 -0.286,0.17694 -0.369,0.67787 -0.183,1.11316 0.185,0.4353 0.304,1.38545 0.265,2.11145 -0.08,1.53227 0.646,1.73762 1.37,0.38563 z M 16695.7,174.24 c 0.667,-0.792 1.452,-1.44 1.745,-1.44 0.932,0 2.888,-2.31436 2.923,-3.45818 0.03,-0.86662 0.104,-0.93076 0.36,-0.30047 0.301,0.73832 0.412,0.73227 1.407,-0.0769 0.594,-0.48306 1.08,-1.02504 1.08,-1.20441 0,-0.17937 0.484,-0.71814 1.076,-1.19727 1.028,-0.8321 1.039,-0.91257 0.24,-1.79474 -0.903,-0.99769 -1.105,-2.04799 -0.395,-2.04799 0.243,0 0.783,-0.13111 1.2,-0.29135 0.499,-0.19119 0.76,-0.0262 0.76,0.48 0,0.97258 1.377,1.01526 1.745,0.0541 0.152,-0.39449 0.479,-0.59189 0.727,-0.43868 0.248,0.15321 0.746,0.0335 1.107,-0.26606 0.451,-0.3744 0.753,-0.38732 0.967,-0.0413 0.171,0.27682 0.09,0.50331 -0.186,0.50331 -0.274,0 -0.858,0.55109 -1.3,1.22465 -0.635,0.96877 -0.679,1.34485 -0.211,1.8 0.464,0.45048 0.948,0.16734 2.232,-1.30462 0.902,-1.03399 1.64,-2.00726 1.64,-2.16283 0,-0.59261 -2.762,-1.43809 -5.761,-1.76329 -1.716,-0.18613 -3.553,-0.60945 -4.081,-0.94072 -0.783,-0.49135 -6.599,-1.45763 -7.428,-1.23425 -0.125,0.0336 -0.227,0.54656 -0.227,1.13995 0,1.25258 1.286,1.47319 2.949,0.5058 1.086,-0.63202 2.546,-0.39411 2.546,0.41499 0,0.25134 0.201,0.33271 0.447,0.18082 0.245,-0.15189 0.589,-0.0462 0.763,0.23498 0.219,0.35544 0.522,0.33992 0.993,-0.051 0.446,-0.3702 0.677,-0.38783 0.677,-0.0516 0,0.28074 -0.219,0.64612 -0.488,0.81194 -0.268,0.16582 -0.363,0.50257 -0.211,0.74833 0.152,0.24576 -0.169,0.44683 -0.713,0.44683 -0.543,0 -0.988,-0.22875 -0.988,-0.50833 0,-0.27958 -0.249,-0.35461 -0.553,-0.16673 -0.401,0.24807 -0.369,0.48581 0.12,0.86833 0.789,0.61784 1.118,2.68673 0.427,2.68673 -0.261,0 -0.496,0.594 -0.522,1.32 -0.04,1.15532 -0.09,1.19272 -0.36,0.29973 -0.257,-0.83795 -0.512,-0.94558 -1.428,-0.60229 -1.207,0.45219 -1.3,2.10256 -0.118,2.10256 0.37,0 0.775,0.30442 0.899,0.67649 0.165,0.49416 -0.02,0.5816 -0.68,0.32443 -1.04,-0.40412 -1.106,-0.4143 -2.194,-0.33776 -0.444,0.0313 -0.945,0.48884 -1.112,1.01684 -0.168,0.528 -0.615,0.96 -0.993,0.96 -0.911,0 -0.886,1.39418 0.03,1.74642 0.396,0.15196 0.72,0.46383 0.72,0.69305 0,0.22922 -0.539,0.21217 -1.196,-0.0379 -1.367,-0.51956 -2.783,-0.14502 -2.485,0.65756 0.11,0.29747 0.443,0.48686 0.74,0.42086 0.297,-0.066 0.54,0.096 0.54,0.36 0,0.9623 1.385,0.44433 2.567,-0.96 z m 5.895,-6.62292 c -0.13,-0.2106 -0.04,-0.6966 0.204,-1.08 0.345,-0.54425 0.443,-0.4603 0.449,0.38292 0,1.11026 -0.237,1.37073 -0.653,0.69708 z m 7.58,6.86292 c -0.145,-0.80052 0,-1.2 0.438,-1.2 1.233,0 3.808,-1.57116 4.043,-2.46621 0.128,-0.49159 0.424,-0.89379 0.657,-0.89379 0.583,0 2.613,-2.07547 2.465,-2.52 -0.07,-0.198 0.276,-0.36 0.76,-0.36 1.18,0 1.463,-0.35437 1.172,-1.46779 -0.287,-1.09726 -1.092,-1.2537 -1.092,-0.21221 0,0.396 -0.415,0.72 -0.923,0.72 -0.508,0 -1.569,0.594 -2.359,1.32 -2.958,2.71931 -7.655,6.36 -8.206,6.36 -0.314,0 -0.437,0.216 -0.274,0.48 0.163,0.264 0.824,0.48 1.468,0.48 0.645,0 1.172,0.216 1.172,0.48 0,0.264 0.202,0.48 0.449,0.48 0.246,0 0.35,-0.54 0.23,-1.2 z m 3.308,0.40733 c 0.48,0.0906 2.735,-2.04363 2.735,-2.58938 0,-0.87023 -0.908,-0.89847 -1.182,-0.0367 -0.16,0.50333 -0.661,1.04992 -1.115,1.21465 -1.532,0.55675 -2.981,1.56804 -2.678,1.87011 0.165,0.16514 0.65,0.11316 1.077,-0.11551 0.427,-0.22868 0.951,-0.38308 1.163,-0.34312 z m -21.333,-2.25149 c 0.294,-0.35429 0.392,-0.78629 0.219,-0.96 -0.562,-0.56164 -0.999,-0.33756 -1.255,0.64416 -0.288,1.09983 0.249,1.26358 1.036,0.31584 z m 26.642,-0.0758 c 0.152,-0.396 0.03,-0.72 -0.269,-0.72 -0.3,0 -0.406,-0.13878 -0.237,-0.3084 0.17,-0.16962 0.638,-0.0354 1.04,0.29832 0.627,0.51987 0.716,0.42229 0.625,-0.68179 -0.171,-2.06222 -1.091,-2.45091 -2.566,-1.08369 -1.253,1.16192 -1.261,1.20365 -0.383,2.16018 1.1,1.1981 1.435,1.26072 1.79,0.33538 z m 3.269,-2.16437 c 0.113,-1.18136 0,-1.85825 -0.309,-1.75314 -0.271,0.0942 -0.476,0.79814 -0.455,1.56437 0.02,0.76623 -0.195,1.55183 -0.48,1.74579 -0.32,0.21778 -0.217,0.35546 0.271,0.36 0.573,0.005 0.84,-0.52145 0.973,-1.91702 z m -31.288,1.07983 c 0,-0.62151 -1.857,-1.56772 -2.149,-1.09513 -0.15,0.24237 0.11,0.66338 0.578,0.93557 1.024,0.59612 1.571,0.65162 1.571,0.15956 z m 14.522,-0.98286 c 1.101,-0.94532 1.066,-1.5326 -0.09,-1.5326 -1.001,0 -2.554,1.80833 -2.135,2.48605 0.275,0.44524 0.92,0.16946 2.227,-0.95345 z m 21.245,0.02 c 0.264,-0.19396 0.879,-0.82504 1.367,-1.4024 1.177,-1.39237 0.584,-2.34124 -0.676,-1.08174 -0.811,0.8111 -1.113,0.86538 -2.023,0.36349 -0.885,-0.48867 -0.932,-0.61891 -0.27,-0.75833 0.44,-0.0926 0.919,-0.48002 1.066,-0.86099 0.355,-0.92641 -0.183,-0.85739 -1.557,0.19984 -1.098,0.84412 -1.109,0.91832 -0.348,2.38933 0.774,1.49768 1.502,1.84055 2.441,1.1508 z m -33.127,-0.59265 c 0.163,-0.264 0.554,-0.47669 0.869,-0.47265 0.343,0.004 0.284,0.19307 -0.149,0.47265 -0.636,0.4111 -0.634,0.46616 0.02,0.47265 1.091,0.0109 2.548,-2.62886 1.778,-3.22336 -1.237,-0.95656 -1.739,-1.08775 -2.076,-0.54296 -0.196,0.31715 -0.141,0.43433 0.127,0.26895 0.261,-0.16118 0.474,0.01 0.474,0.37991 0,0.50382 -0.221,0.55459 -0.88,0.202 -0.557,-0.29809 -0.88,-0.30149 -0.88,-0.009 0,0.25393 -0.298,0.53153 -0.661,0.61688 -0.475,0.11161 -0.547,0.45851 -0.256,1.2352 0.429,1.14037 1.141,1.40172 1.637,0.6 z m 17.195,-0.8285 c 0.746,0.0774 1.088,-0.18609 1.194,-0.91961 0.113,-0.78549 0.387,-0.96551 1.162,-0.76285 0.823,0.21516 0.953,0.10318 0.686,-0.59272 -0.181,-0.4719 -0.09,-1.15224 0.213,-1.51187 0.63,-0.75811 1.548,-0.39207 1.126,0.44872 -0.157,0.31176 0.153,0.0703 0.688,-0.53663 0.535,-0.6069 0.852,-1.4169 0.705,-1.8 -0.372,-0.96988 -0.999,-0.8688 -1.602,0.25849 -0.281,0.52527 -1.168,1.29451 -1.97,1.70942 -2.033,1.05072 -4.231,3.61494 -3.873,4.51853 0.247,0.62689 0.316,0.61322 0.458,-0.0915 0.106,-0.52525 0.55,-0.78878 1.213,-0.72 z m -22.236,0.14279 c 0,-1.0883 -1.481,-2.3452 -2.07,-1.75649 -0.346,0.34602 -0.23,0.798 0.379,1.47086 1.031,1.13807 1.691,1.24966 1.691,0.28563 z m -12.525,-1.7505 c -1.026,-0.64959 -1.398,-0.53361 -1.398,0.43621 0,1.29776 0.498,1.57112 1.336,0.73358 0.631,-0.63126 0.64,-0.8041 0.06,-1.16979 z m 32.602,-0.36139 c 0.08,-0.57332 -0.08,-1.0424 -0.36,-1.0424 -0.282,0 -0.513,0.324 -0.513,0.72 0,0.396 -0.229,0.72 -0.509,0.72 -0.279,0 -0.367,0.2274 -0.196,0.50534 0.485,0.78319 1.408,0.25477 1.578,-0.90294 z m -16.769,-0.64597 c 1.179,-1.00929 0.994,-3.02063 -0.284,-3.08788 -0.728,-0.0383 -0.918,0.17708 -0.744,0.84256 0.129,0.4917 -0.06,1.24552 -0.415,1.67516 -0.59,0.71091 -0.67,0.69213 -0.896,-0.20889 -0.224,-0.88993 -0.343,-0.92064 -1.181,-0.30371 -0.895,0.65931 -0.897,0.71135 -0.06,1.32188 1.098,0.80274 2.472,0.711 3.582,-0.23912 z m 31.662,-0.39643 c 0.867,-0.792 1.887,-1.44 2.267,-1.44 0.38,0 0.691,-0.324 0.691,-0.72 0,-1.29044 -1.367,-0.7624 -3.707,1.43187 -1.348,1.26373 -1.992,2.15522 -1.561,2.16 0.403,0.004 1.442,-0.63987 2.31,-1.43187 z m -38.853,0.0362 c 0.576,-0.36444 0.563,-0.54413 -0.09,-1.19265 -0.42,-0.41996 -1.051,-0.76356 -1.403,-0.76356 -0.352,0 -1.175,-0.648 -1.829,-1.44 -0.655,-0.792 -1.311,-1.44 -1.459,-1.44 -0.149,0 -0.27,0.756 -0.27,1.68 0,1.78549 0.237,2.01946 1.135,1.12184 0.424,-0.42422 0.67,-0.26352 1.025,0.66966 0.403,1.05984 1.059,1.64747 1.969,1.76326 0.132,0.0168 0.545,-0.16255 0.918,-0.39855 z m 15.261,-1.47621 c -0.09,-0.396 0.125,-1.314 0.481,-2.04 0.687,-1.39898 0.646,-1.48272 -0.507,-1.04028 -0.401,0.15385 -0.62,0.564 -0.487,0.91145 0.304,0.79204 -0.657,1.41171 -2.223,1.43272 -0.894,0.012 -1.242,0.30856 -1.362,1.16005 -0.142,0.9991 0,1.11389 1.08,0.90656 0.683,-0.13055 1.242,-0.0495 1.242,0.18013 0,0.22963 0.437,0.14567 0.971,-0.18656 0.534,-0.33224 0.897,-0.92807 0.805,-1.32407 z m 30.551,1.23509 c 0.144,-0.37669 -0.08,-0.97069 -0.507,-1.32 -0.606,-0.50005 -0.813,-0.50751 -0.972,-0.0351 -0.111,0.33 -0.549,0.6 -0.974,0.6 -0.636,0 -0.608,0.12365 0.16,0.70473 1.19,0.89978 1.96,0.91669 2.293,0.0504 z m -42.617,-2.02035 c 1.134,-0.74268 1.155,-0.83376 0.389,-1.68 -0.766,-0.84669 -0.754,-0.89474 0.225,-0.89474 0.925,0 1.261,-0.48143 1.091,-1.56 -0.133,-0.84418 0.485,-0.2611 0.911,0.85932 0.395,1.03823 0.607,1.14265 1.428,0.70311 0.531,-0.28391 0.968,-0.34661 0.972,-0.13932 0,0.20729 0.208,0.0601 0.453,-0.32701 0.282,-0.44623 0.258,-0.92944 -0.07,-1.32 -0.381,-0.45841 -0.312,-0.6161 0.267,-0.6161 1.354,0 0.842,-0.95757 -0.541,-1.01143 -2.952,-0.11497 -3.743,-0.20913 -4.201,-0.49998 -0.264,-0.1676 -2.1,-0.31231 -4.081,-0.32158 -1.98,-0.009 -4.519,-0.22568 -5.641,-0.48091 -1.122,-0.25523 -2.04,-0.32344 -2.04,-0.15158 0,0.17186 0.968,0.89726 2.152,1.61199 1.231,0.7435 2.056,1.56352 1.929,1.91651 -0.128,0.35348 0.504,0.97785 1.478,1.46193 1.568,0.7788 1.762,0.78409 2.478,0.0675 0.717,-0.71657 0.687,-0.84644 -0.389,-1.65903 -0.912,-0.68924 -1.04,-1.00849 -0.587,-1.46317 0.405,-0.4067 0.766,-0.43228 1.2,-0.0851 0.341,0.27309 1.323,0.44986 2.181,0.39283 0.858,-0.057 1.56,-0.0329 1.56,0.0537 0,0.46841 -1.74,2.08832 -2.243,2.08832 -1.003,0 -1.502,1.44916 -0.927,2.69031 0.632,1.36253 0.512,1.34071 2.002,0.36443 z m 34.679,0.20926 c 0.846,-0.84624 0.704,-1.344 -0.384,-1.344 -0.528,0 -0.96,0.0903 -0.96,0.20074 0,0.11041 -0.132,0.54241 -0.292,0.96 -0.348,0.90771 0.784,1.0346 1.636,0.18326 z m -27.238,-0.40089 c 0.98,-0.52454 1.285,-1.90311 0.42,-1.90311 -0.279,0 -0.356,-0.27 -0.169,-0.6 0.271,-0.48 0.209,-0.48 -0.308,0 -0.356,0.33 -1.159,0.6 -1.786,0.6 -0.835,0 -1.091,0.22435 -0.956,0.84 0.101,0.462 0.441,0.786 0.755,0.72 0.315,-0.066 0.572,0.096 0.572,0.36 0,0.60805 0.311,0.60449 1.472,-0.0169 z m 24.449,-0.69743 c 0.481,-0.57949 0.442,-0.77189 -0.202,-1.0193 -0.892,-0.34204 -1.372,-0.0187 -1.525,1.02751 -0.135,0.91579 0.964,0.91056 1.727,-0.008 z M 16694.573,158.4 c 0,-0.264 -0.216,-0.48 -0.48,-0.48 -0.264,0 -0.48,0.216 -0.48,0.48 0,0.264 0.216,0.48 0.48,0.48 0.264,0 0.48,-0.216 0.48,-0.48 z m -67.022,101.2 c -0.136,-0.22 0.197,-0.4 0.741,-0.4 0.544,0 0.988,0.18 0.988,0.4 0,0.22 -0.333,0.4 -0.741,0.4 -0.408,0 -0.852,-0.18 -0.988,-0.4 z m -4.389,-4.21209 c 0.06,-0.3995 -0.153,-0.75821 -0.483,-0.79714 -0.33,-0.0389 -0.852,-0.0978 -1.16,-0.13077 -0.698,-0.0747 -0.05,-0.78 0.72,-0.78 0.757,0 0.719,-1.42416 -0.04,-1.5 -0.33,-0.033 -1.075,-0.087 -1.656,-0.12 -0.739,-0.042 -0.905,-0.21178 -0.552,-0.56466 0.589,-0.58854 4.641,0.82915 4.237,1.48237 -0.134,0.21777 -0.03,0.52959 0.236,0.69291 0.827,0.51091 0.385,2.44367 -0.558,2.44367 -0.501,0 -0.812,-0.30414 -0.744,-0.72638 z m -0.473,-4.80313 c 0.05,-0.71427 0.221,-0.77397 0.928,-0.33228 1.113,0.69466 1.092,1.04589 -0.06,1.13309 -0.623,0.0469 -0.907,-0.21675 -0.863,-0.80081 z m -2.53,-1.92972 c 0,-0.25571 -0.308,-0.34699 -0.684,-0.20285 -0.465,0.17858 -0.63,-0.0174 -0.516,-0.61506 0.09,-0.48243 0.182,-1.14715 0.203,-1.47715 0.02,-0.33 0.342,-0.6 0.717,-0.6 0.374,0 0.758,-0.23464 0.854,-0.52142 0.1,-0.28677 0.216,0.46923 0.269,1.68 0.05,1.21078 -0.115,2.20142 -0.374,2.20142 -0.258,0 -0.469,-0.20922 -0.469,-0.46494 z m 1.92,-0.18952 c 0,-0.39225 0.433,-0.60911 1.08,-0.54126 1.583,0.16584 1.63,0.20577 0.84,0.71572 -1.032,0.66697 -1.92,0.58628 -1.92,-0.17446 z m 0,-5.55721 c 0,-0.24842 0.18,-0.56292 0.4,-0.69889 0.22,-0.13596 0.4,0.0673 0.4,0.45167 0,0.38439 -0.18,0.69889 -0.4,0.69889 -0.22,0 -0.4,-0.20325 -0.4,-0.45167 z m -26.671,-1.03015 c -0.178,-0.28701 -0.09,-0.75121 0.187,-1.03156 0.36,-0.35965 0.487,-0.206 0.432,0.52182 -0.09,1.17435 -0.168,1.23984 -0.619,0.50974 z m 30.032,-5.71818 c 0,-0.896 0.128,-1.024 0.576,-0.576 0.448,0.448 0.448,0.704 0,1.152 -0.448,0.448 -0.576,0.32 -0.576,-0.576 z m -4.974,0.14695 c -0.461,-0.46046 -0.37,-2.06695 0.117,-2.06695 0.554,0 1.035,1.85134 0.558,2.14647 -0.203,0.12509 -0.507,0.0893 -0.675,-0.0795 z m 0.488,-4.72864 c 0.146,-0.38104 0.459,-0.57329 0.695,-0.42722 0.596,0.36788 0.541,0.5437 -0.266,0.85311 -0.464,0.17804 -0.607,0.0362 -0.429,-0.42589 z m 2.325,-2.61831 c -0.163,-0.264 -0.08,-0.48 0.184,-0.48 0.264,0 0.613,0.216 0.776,0.48 0.164,0.264 0.08,0.48 -0.183,0.48 -0.264,0 -0.614,-0.216 -0.777,-0.48 z m -0.06,-1.32735 c -0.3,-0.19396 -0.632,-0.78465 -0.738,-1.31265 -0.118,-0.59014 -0.51,-0.90566 -1.016,-0.81896 -0.586,0.1006 -0.811,-0.17468 -0.784,-0.96 0.02,-0.60557 0.146,-0.83104 0.28,-0.50104 0.133,0.33 0.508,0.6 0.833,0.6 0.325,0 0.952,0.756 1.393,1.68 0.859,1.80249 0.86,1.84926 0.03,1.31265 z m 2.263,-0.39265 c 0.02,-0.55917 0.136,-0.67291 0.29,-0.29 0.138,0.3465 0.121,0.7605 -0.04,0.92 -0.16,0.1595 -0.273,-0.124 -0.252,-0.63 z m -9.458,-2.59959 c 0.05,-1.926 0.221,-2.39967 0.883,-2.4 0.572,-2.8e-4 0.731,0.24422 0.518,0.79833 -0.205,0.53611 -0.122,0.68492 0.254,0.45257 0.412,-0.25439 0.442,-0.0338 0.112,0.8319 -0.246,0.64795 -0.306,1.32003 -0.132,1.49353 0.296,0.2959 -0.741,1.19978 -1.395,1.21591 -0.164,0.004 -0.272,-1.07246 -0.24,-2.39224 z m 2.82,1.57385 c 0.04,-0.51385 0.348,-0.93426 0.687,-0.93426 0.485,0 0.493,0.16192 0.04,0.76 -0.317,0.418 -0.627,0.83841 -0.687,0.93426 -0.06,0.0958 -0.08,-0.24616 -0.04,-0.76 z m 2.077,-4.24413 c -0.417,-0.41729 -0.758,-0.97202 -0.758,-1.23274 0,-0.26073 -0.202,-0.34978 -0.447,-0.19789 -0.246,0.15189 -0.555,0.10144 -0.687,-0.1121 -0.132,-0.21354 0.409,-0.43769 1.202,-0.4981 0.803,-0.0612 1.318,0.09 1.162,0.34174 -0.153,0.24836 0.05,0.77921 0.449,1.17966 0.401,0.40045 0.528,0.85185 0.283,1.00311 -0.244,0.15126 -0.786,-0.0664 -1.204,-0.48368 z m -25.594,-1.20338 c -0.08,-1.10235 0.143,-1.19933 0.518,-0.22212 0.149,0.38754 0.109,0.80458 -0.09,0.92674 -0.197,0.12217 -0.39,-0.19491 -0.429,-0.70462 z m 27.476,0.0333 c -0.916,-0.39362 -0.911,-0.41407 0.12,-0.44626 0.594,-0.0186 1.08,0.18226 1.08,0.44626 0,0.264 -0.05,0.46482 -0.12,0.44626 -0.07,-0.0186 -0.552,-0.21937 -1.08,-0.44626 z m -6.961,-1.92 c 0,-0.264 0.216,-0.48 0.48,-0.48 0.264,0 0.48,0.216 0.48,0.48 0,0.264 -0.216,0.48 -0.48,0.48 -0.264,0 -0.48,-0.216 -0.48,-0.48 z m 2.272,-2.45956 c 0.326,-0.32804 0.713,-0.47552 0.861,-0.32774 0.148,0.14779 -0.119,0.41618 -0.592,0.59644 -0.684,0.26049 -0.739,0.20535 -0.269,-0.2687 z m 1.889,0.21956 c -0.444,-0.44386 -0.403,-1.6 0.06,-1.6 0.208,0 0.411,0.432 0.451,0.96 0.08,1.03156 0,1.1398 -0.508,0.64 z m -5.001,-1.93875 c -1.364,-0.26264 -1.344,-0.64776 0.09,-1.68777 0.944,-0.68548 1.229,-0.71634 1.674,-0.18084 0.524,0.63141 0.239,2.27144 -0.373,2.14199 -0.169,-0.0359 -0.794,-0.15897 -1.388,-0.27338 z m 6.938,-0.93999 c 0.228,-0.59495 0.132,-0.69778 -0.376,-0.40305 -0.374,0.21764 -0.514,0.21151 -0.309,-0.0136 0.205,-0.22513 0.853,-0.47637 1.44,-0.5583 0.771,-0.10745 0.884,-0.0298 0.407,0.2787 -0.364,0.23522 -0.513,0.66783 -0.332,0.96134 0.187,0.3026 0.01,0.53367 -0.404,0.53367 -0.486,0 -0.63,-0.26857 -0.426,-0.79874 z M 16613.383,213 c -0.325,-0.71191 -0.263,-2.76 0.08,-2.76 0.248,0 0.451,0.22875 0.451,0.50833 0,0.27958 0.201,0.38406 0.447,0.23217 0.246,-0.15189 0.583,-0.0566 0.749,0.21167 0.166,0.26831 0.07,0.48783 -0.207,0.48783 -0.28,0 -0.509,0.324 -0.509,0.72 0,0.58195 -0.805,1.05834 -1.014,0.6 z m 2.033,-2.44945 c -0.583,-0.70304 -0.252,-1.27055 0.742,-1.27055 0.715,0 0.876,1.23737 0.214,1.64639 -0.234,0.14467 -0.664,-0.0245 -0.956,-0.37584 z m 6.183,-0.31055 c 0,-0.264 0.203,-0.48 0.452,-0.48 0.248,0 0.585,0.216 0.748,0.48 0.163,0.264 -0.04,0.48 -0.452,0.48 -0.411,0 -0.748,-0.216 -0.748,-0.48 z m 4.321,0 c 0,-0.264 0.216,-0.48 0.48,-0.48 0.264,0 0.48,0.216 0.48,0.48 0,0.264 -0.216,0.48 -0.48,0.48 -0.264,0 -0.48,-0.216 -0.48,-0.48 z m -6.241,-2.48 c 0,-0.22 0.203,-0.4 0.451,-0.4 0.249,0 0.563,0.18 0.699,0.4 0.136,0.22 -0.07,0.4 -0.451,0.4 -0.385,0 -0.699,-0.18 -0.699,-0.4 z m -0.22,-1.32738 c -0.175,-0.28194 0.02,-0.51262 0.431,-0.51262 0.412,0 0.749,-0.22875 0.749,-0.50833 0,-0.27958 0.27,-0.34612 0.6,-0.14786 0.35,0.21009 0.3,-0.0168 -0.12,-0.54381 -0.563,-0.70648 -0.573,-0.81559 -0.05,-0.49881 0.445,0.26815 0.89,0.10801 1.315,-0.47282 0.353,-0.48306 0.805,-0.71586 1.003,-0.51733 0.199,0.19853 -0.03,0.5782 -0.501,0.84371 -0.679,0.37948 -0.743,0.62734 -0.302,1.15871 0.308,0.37178 0.807,0.53866 1.107,0.37084 0.4,-0.22363 0.398,-0.14581 0,0.29131 -0.731,0.79271 -3.829,1.186 -4.23,0.53701 z M 16728.283,204 c 0.187,-1.27573 0.07,-1.444 -1.026,-1.47508 -2.094,-0.0594 -4.1,-1.54069 -4.261,-3.1456 -0.121,-1.20852 0.238,-1.75142 2.323,-3.50949 1.768,-1.49013 2.292,-2.18848 1.847,-2.46314 -0.341,-0.21084 -0.789,-0.27886 -0.996,-0.15116 -0.207,0.12771 -0.244,-0.42655 -0.08,-1.23167 0.209,-1.04259 0.11,-1.46386 -0.343,-1.46386 -0.485,0 -0.503,-0.13357 -0.08,-0.5593 0.426,-0.42573 0.363,-0.70866 -0.264,-1.18473 -0.773,-0.58692 -0.77,-0.62638 0.05,-0.6407 0.478,-0.008 0.735,-0.23127 0.572,-0.49527 -0.526,-0.85019 0.506,-0.51103 1.63,0.53598 0.752,0.70122 0.936,1.17013 0.593,1.51354 -0.433,0.43283 -0.08,1.77214 0.697,2.6852 0.08,0.0961 0.73,-0.2819 1.44,-0.84 0.71,-0.5581 1.642,-1.01472 2.073,-1.01472 0.43,0 1.535,-0.40017 2.456,-0.88928 0.92,-0.4891 3.617,-1.37808 5.994,-1.97551 4.985,-1.25316 8.398,-2.81747 8.41,-3.85439 0,-0.39645 0.544,-1.22949 1.2,-1.8512 1.358,-1.28749 1.527,-2.55399 0.46,-3.43925 -0.402,-0.33394 -0.618,-0.72086 -0.479,-0.85982 0.55,-0.55023 -1.419,-2.01055 -2.712,-2.01055 -0.755,0 -2.607,0.702 -4.116,1.56 -1.509,0.858 -3.743,2.1 -4.966,2.76 -4.908,2.64993 -6.056,3.4049 -8.356,5.49844 -2.655,2.41624 -2.588,2.38713 -3.617,1.56629 -0.949,-0.75774 -1.116,-3.87199 -0.188,-3.51601 0.358,0.13714 0.778,0.0428 0.934,-0.20968 0.156,-0.25247 -0.03,-0.45904 -0.413,-0.45904 -0.384,0 -0.822,-0.324 -0.974,-0.72 -0.328,-0.85454 0.1,-2.16 0.705,-2.16 0.657,0 0.51,-1.80389 -0.171,-2.10791 -0.33,-0.14735 0.03,-0.21935 0.798,-0.16 0.777,0.0599 1.488,-0.15881 1.6,-0.49209 0.119,-0.3526 -0.21,-0.6 -0.798,-0.6 -1.182,0 -1.249,-0.39129 -0.297,-1.75014 0.387,-0.55207 0.567,-1.14013 0.4,-1.30681 -0.166,-0.16668 -0.09,-0.30305 0.161,-0.30305 0.256,0 0.737,0.27 1.071,0.6 0.488,0.48277 0.512,0.35004 0.123,-0.67939 -0.408,-1.07967 -0.299,-1.47823 0.698,-2.55317 0.649,-0.70058 1.073,-1.44786 0.941,-1.66061 -0.131,-0.21276 0.297,-0.38683 0.953,-0.38683 1.438,0 1.494,0.50733 0.245,2.26008 -0.52,0.73056 -0.834,1.43959 -0.698,1.57564 0.136,0.13605 -0.41,0.90476 -1.214,1.70825 -0.896,0.89519 -1.351,1.74836 -1.176,2.20328 0.393,1.02547 1.069,0.78824 2.855,-1.00188 0.841,-0.84404 2.099,-1.67746 2.795,-1.85203 0.696,-0.17458 1.265,-0.51 1.265,-0.74538 0,-0.23538 0.713,-0.42796 1.584,-0.42796 0.872,0 1.8,-0.21515 2.063,-0.47811 0.263,-0.26295 2.196,-0.50998 4.297,-0.54893 3.359,-0.0623 4.121,0.0931 6.339,1.29241 1.386,0.74978 2.52,1.54662 2.52,1.77075 0,0.22414 0.51,0.91728 1.133,1.54033 2.827,2.82584 3.424,5.1609 1.932,7.54595 -0.219,0.35068 -0.405,0.9616 -0.412,1.3576 0,0.4189 -0.367,0.66029 -0.86,0.57721 -0.466,-0.0785 -0.79,0.0337 -0.72,0.24931 0.173,0.53223 -1.812,3.01348 -2.411,3.01348 -0.264,0 -0.622,0.37195 -0.797,0.82655 -0.249,0.64973 -0.401,0.69047 -0.71,0.19044 -0.314,-0.50845 -0.611,-0.51948 -1.479,-0.055 -0.862,0.46111 -0.949,0.66811 -0.422,1.0022 0.491,0.31076 0.351,0.43903 -0.535,0.48967 -2.704,0.15456 -6.548,1.25507 -4.801,1.37445 0.877,0.0599 -2.217,1.45164 -3.228,1.45164 -0.973,0 -5.414,2.06444 -5.414,2.51719 0,0.19955 -0.411,0.36281 -0.915,0.36281 -0.679,0 -0.85,0.24792 -0.664,0.96 0.193,0.7367 0.01,0.96 -0.765,0.96 -0.559,0 -1.016,0.30598 -1.016,0.67996 0,0.37399 -0.586,1.10668 -1.302,1.62823 -1.097,0.79857 -1.205,1.06524 -0.687,1.68935 0.463,0.55828 0.484,0.98548 0.08,1.73178 -0.756,1.41198 -1.12,1.22482 -0.874,-0.44932 z m 5.658,-10.4711 c 0,-0.2151 0.811,-0.79763 1.801,-1.29451 1.668,-0.83698 1.716,-0.91721 0.654,-1.0909 -0.63,-0.10312 -1.278,0.0132 -1.44,0.25853 -0.162,0.24531 -1.321,0.83355 -2.575,1.30721 -1.254,0.47366 -2.28,0.93985 -2.28,1.03598 0,0.0961 0.864,0.17479 1.92,0.17479 1.056,0 1.92,-0.17599 1.92,-0.3911 z m 19.684,-10.1689 c 0.66,-0.51626 1.012,-0.94346 0.782,-0.94933 -0.231,-0.006 -0.167,-0.31401 0.14,-0.68476 0.607,-0.73132 0.199,-3.32152 -0.46,-2.91476 -0.217,0.13448 -0.531,0.025 -0.697,-0.24332 -0.608,-0.98417 -1.18,-0.48384 -0.747,0.65412 0.239,0.62807 0.358,1.54607 0.265,2.04 -0.09,0.49393 -0.186,1.16805 -0.206,1.49805 -0.02,0.33 -0.361,0.6 -0.757,0.6 -0.396,0 -0.72,0.216 -0.72,0.48 0,0.76022 1.094,0.54137 2.4,-0.48 z m -24.485,-1.92 c 0,-0.264 -0.1,-0.48 -0.211,-0.48 -0.117,0 -0.346,0.216 -0.509,0.48 -0.163,0.264 -0.07,0.48 0.212,0.48 0.28,0 0.508,-0.216 0.508,-0.48 z m 7.202,-4.8 c 0,-0.264 -0.1,-0.48 -0.212,-0.48 -0.116,0 -0.345,0.216 -0.508,0.48 -0.164,0.264 -0.07,0.48 0.211,0.48 0.28,0 0.509,-0.216 0.509,-0.48 z m 4.226,-1.18519 c 0.14,-0.14015 -0.295,-0.25481 -0.967,-0.25481 -0.672,0 -1.482,0.31417 -1.801,0.69815 -0.497,0.59909 -0.36,0.63524 0.967,0.25481 0.85,-0.24384 1.661,-0.558 1.801,-0.69815 z m 11.617,0.91363 c 0,-0.78236 -1.088,-2.12844 -1.72,-2.12844 -0.61,0 -0.588,0.18803 0.137,1.18492 0.804,1.10476 1.583,1.56885 1.583,0.94352 z m -7.481,-1.65744 c 0.309,-0.308 -0.04,-0.471 -1.006,-0.471 -0.813,0 -1.774,0.36043 -2.136,0.80095 -0.6,0.72874 -0.509,0.77121 1.006,0.471 0.916,-0.18147 1.877,-0.5419 2.136,-0.80095 z M 16625.92,204 c 0,-0.264 0.216,-0.48 0.48,-0.48 0.264,0 0.48,0.216 0.48,0.48 0,0.264 -0.216,0.48 -0.48,0.48 -0.264,0 -0.48,-0.216 -0.48,-0.48 z m -10.082,-0.66865 c 0,-0.10375 0.335,-0.31728 0.745,-0.4745 0.427,-0.16392 0.62,-0.0834 0.452,0.18865 -0.282,0.4561 -1.197,0.67461 -1.197,0.28585 z m 0.581,-1.98961 c -0.512,-0.57979 -0.491,-0.70174 0.12,-0.70174 0.406,0 0.739,0.324 0.739,0.72 0,0.87536 -0.07,0.87383 -0.859,-0.0183 z m 5.3,-1.30758 c -1.928,-0.46357 -2.993,-1.41155 -1.2,-1.06841 0.462,0.0884 1.303,0.17733 1.869,0.19752 0.566,0.0202 1.153,0.36073 1.305,0.75673 0.152,0.396 0.229,0.69406 0.171,0.66236 -0.06,-0.0317 -1.023,-0.2784 -2.145,-0.5482 z m 4.544,-2.4174 c -0.263,-0.68635 0.395,-2.16343 0.785,-1.76286 0.122,0.12436 0.295,0.63569 0.386,1.1363 0.195,1.06762 -0.798,1.59854 -1.171,0.62656 z m -6.584,-0.8017 c 0,-0.59024 0.24,-0.85274 0.64,-0.69934 0.352,0.13508 0.64,0.5603 0.64,0.94494 0,0.38464 -0.288,0.69934 -0.64,0.69934 -0.352,0 -0.64,-0.42522 -0.64,-0.94494 z m 3.84,-1.18673 c 0,-0.41158 0.216,-0.74833 0.48,-0.74833 0.264,0 0.48,0.20325 0.48,0.45167 0,0.24842 -0.216,0.58517 -0.48,0.74833 -0.264,0.16316 -0.48,-0.0401 -0.48,-0.45167 z m 20.164,-0.65698 c 0,-0.25775 0.342,-0.5999 0.761,-0.76032 0.467,-0.17939 0.687,-0.0721 0.57,0.27864 -0.24,0.71753 -1.331,1.11259 -1.331,0.48168 z m 29.018,-0.79608 c -0.916,-0.6924 -0.915,-0.70501 0.07,-0.72 0.576,-0.009 1,0.29025 1,0.70473 0,0.87473 0.07,0.87377 -1.068,0.0153 z m 14.434,-2.64977 c -0.168,-0.27209 0.03,-0.35257 0.452,-0.18865 0.832,0.3191 0.984,0.66315 0.293,0.66315 -0.248,0 -0.583,-0.21353 -0.745,-0.4745 z m 1.917,-0.005 c 0.164,-0.264 0.392,-0.48 0.509,-0.48 0.116,0 0.212,0.216 0.212,0.48 0,0.264 -0.229,0.48 -0.509,0.48 -0.28,0 -0.375,-0.216 -0.212,-0.48 z m 10.149,-6 c 0.152,-0.396 0.454,-0.72 0.672,-0.72 0.218,0 1.419,-1.08 2.669,-2.4 1.25,-1.32 2.453,-2.4 2.673,-2.4 1.043,0 0.155,1.38451 -2.36,3.68189 -2.736,2.49876 -4.188,3.22941 -3.654,1.83811 z m 18.417,-0.24 c -1.071,-0.34298 -1.007,-0.38945 0.6,-0.43215 0.99,-0.0263 1.801,0.16815 1.801,0.43215 0,0.54949 -0.685,0.54949 -2.401,0 z m -10.802,-0.35338 c -0.528,-0.13311 -1.348,-0.51321 -1.822,-0.84467 -0.737,-0.51531 -0.756,-0.64313 -0.134,-0.88204 0.401,-0.15367 1.329,-0.0759 2.062,0.17276 0.734,0.24869 3.046,0.51426 5.138,0.59017 2.475,0.0898 3.873,0.3441 4.001,0.72758 0.147,0.43912 -0.885,0.57537 -4.044,0.5339 -2.333,-0.0306 -4.673,-0.16459 -5.201,-0.2977 z m 6.33,-4.32532 c -0.115,-0.19872 -0.03,-0.7933 0.178,-1.3213 0.231,-0.5742 0.399,-0.68201 0.42,-0.26826 0.02,0.50494 0.224,0.44013 0.738,-0.24 0.388,-0.51246 0.712,-0.76133 0.72,-0.55304 0,0.20828 0.488,-0.0617 1.066,-0.6 1.144,-1.06518 1.83,-1.25222 1.83,-0.4987 0,0.264 -0.324,0.48 -0.72,0.48 -1.016,0 -0.901,1.42807 0.12,1.49527 1.603,0.10545 2.762,-0.15703 3.113,-0.70474 0.213,-0.33156 0.356,-0.14167 0.36,0.47743 0,1.23208 -1.673,1.79045 -4.051,1.34446 -0.881,-0.16516 -2.043,-0.0639 -2.583,0.22494 -0.54,0.28888 -1.076,0.36265 -1.191,0.16394 z m 11.017,-2.41844 c -0.128,-0.20743 0.183,-0.37715 0.692,-0.37715 0.508,0 0.925,0.16972 0.925,0.37715 0,0.20743 -0.312,0.37714 -0.692,0.37714 -0.381,0 -0.797,-0.16971 -0.925,-0.37714 z m -2.704,-0.53151 c 0,-0.5298 1.246,-1.04591 1.62,-0.67133 0.151,0.15064 0.159,0.45975 0.02,0.68693 -0.337,0.54525 -1.639,0.53286 -1.639,-0.0156 z m 2.7,-1.87427 c -0.13,-0.2106 -0.04,-0.69388 0.191,-1.07395 0.322,-0.52107 0.407,-0.42689 0.346,0.38292 -0.09,1.16523 -0.174,1.27692 -0.537,0.69103 z m 1.621,-2.01708 c 0,-0.264 0.445,-0.48 0.988,-0.48 0.544,0 0.855,0.216 0.692,0.48 -0.163,0.264 -0.608,0.48 -0.988,0.48 -0.381,0 -0.692,-0.216 -0.692,-0.48 z m 7.681,-7.2 c 0,-0.264 0.229,-0.48 0.509,-0.48 0.279,0 0.375,0.216 0.211,0.48 -0.163,0.264 -0.392,0.48 -0.508,0.48 -0.116,0 -0.212,-0.216 -0.212,-0.48 z"
       id="path1" /></g></svg>
