<?xml version="1.0" encoding="UTF-8" standalone="no"?>
<!-- Created with Inkscape (http://www.inkscape.org/) -->

<svg
   width="231.38646"
   height="235.24007"
   viewBox="0 0 61.221 62.240601"
   version="1.1"
   id="svg1"
   xml:space="preserve"
   xmlns="http://www.w3.org/2000/svg"
   xmlns:svg="http://www.w3.org/2000/svg"><defs
     id="defs1" /><g
     id="g1855"
     transform="matrix(0.26458333,0,0,0.26458333,-4592.6956,-16.1872)"><path
       style="fill:#000000"
       d="m 17429.678,252.84482 c -1.739,-1.36708 -1.391,-2.22425 2.544,-6.26482 1.106,-1.13668 2.084,-2.59412 2.173,-3.23875 0.09,-0.64463 0.319,-1.42364 0.512,-1.73114 0.193,-0.3075 0.08,-0.6489 -0.248,-0.75868 -0.442,-0.14718 -0.395,-0.40388 0.179,-0.97736 0.428,-0.42777 0.931,-1.79421 1.117,-3.03654 0.463,-3.08723 -0.979,-12.23669 -2.435,-15.44447 -0.632,-1.39342 -1.15,-3.39314 -1.15,-4.44382 0,-1.43936 -0.296,-2.1676 -1.2,-2.95387 -0.954,-0.82908 -1.201,-1.49531 -1.201,-3.24183 0,-1.67838 -0.227,-2.34011 -0.96,-2.79791 -0.663,-0.41363 -0.961,-1.11954 -0.961,-2.2758 0,-1.08404 -0.228,-1.67617 -0.646,-1.67617 -0.355,0 -1.057,-0.45505 -1.561,-1.01123 -0.503,-0.55617 -1.718,-1.421 -2.699,-1.92184 -0.982,-0.50084 -2.04,-1.38705 -2.352,-1.96934 -0.312,-0.58229 -0.961,-1.3917 -1.443,-1.79869 -0.482,-0.40699 -1.132,-1.82014 -1.445,-3.14033 -0.313,-1.32019 -0.947,-3.22151 -1.407,-4.22516 -0.56,-1.21956 -0.719,-2.25454 -0.482,-3.12045 0.42,-1.52656 -0.23,-3.74845 -1.206,-4.1225 -0.377,-0.14491 -0.686,-0.79757 -0.686,-1.45037 0,-0.6528 -0.22,-1.3226 -0.489,-1.48845 -0.752,-0.46476 0,-1.29601 0.897,-0.98685 0.617,0.21319 0.593,0.11939 -0.107,-0.42292 -0.766,-0.59411 -0.85,-1.0854 -0.569,-3.33158 0.254,-2.03253 0.152,-2.90444 -0.444,-3.81489 -0.451,-0.68696 -0.728,-1.96699 -0.663,-3.06281 0.07,-1.14698 -0.205,-2.3338 -0.698,-3.03731 -0.445,-0.63508 -0.809,-1.84354 -0.809,-2.68545 0,-1.11148 -0.395,-1.86267 -1.441,-2.7426 -0.792,-0.66653 -1.441,-1.43005 -1.441,-1.69673 0,-0.26668 -0.594,-0.76829 -1.32,-1.1147 -0.917,-0.43718 -1.37,-1.06231 -1.482,-2.04374 -0.393,-3.44245 -6.477,-5.38287 -11.048,-3.52349 -1.376,0.55946 -1.504,0.58756 -5.12,1.12182 -1.321,0.19514 -2.646,0.54681 -2.946,0.78148 -0.686,0.53663 -5.073,-0.55293 -5.602,-1.39124 -0.212,-0.33456 -0.668,-0.60829 -1.014,-0.60829 -0.346,0 -1.037,-0.57126 -1.537,-1.26947 -0.499,-0.6982 -1.461,-1.94038 -2.137,-2.7604 -1.194,-1.44846 -1.766,-3.65125 -0.947,-3.65125 0.223,0 0.312,-0.37805 0.197,-0.84012 -0.42,-1.68993 3.495,-7.91287 7.754,-12.32386 3.357,-3.47782 4.083,-4.48723 3.861,-5.37098 -0.563,-2.24029 2.101,-9.11882 4.397,-11.35539 1.711,-1.66748 4.19,-3.65291 5.071,-4.06153 4.936,-2.29156 17.535,-4.82025 19.834,-3.98071 3.261,1.19136 7.852,3.66297 8.106,4.36351 0.15,0.41575 0.971,1.06384 1.823,1.44021 0.873,0.38607 1.981,1.46203 2.541,2.46875 0.546,0.98144 1.729,2.28106 2.63,2.88805 0.968,0.65199 1.934,1.88024 2.361,3.00142 0.833,2.18598 1.534,2.97393 4.012,4.50452 1.041,0.64334 1.783,1.47988 1.783,2.01045 0,0.54039 0.633,1.2341 1.561,1.71165 0.859,0.44165 2.391,1.51038 3.404,2.37495 3.803,3.24245 8.956,3.46186 38.871,1.65497 6.722,-0.40603 9.92,-0.42582 10.948,-0.0677 1.306,0.45509 1.606,0.35747 2.99,-0.97226 1.49,-1.4314 1.643,-1.46952 4.844,-1.20556 1.818,0.14992 6.084,-0.0503 9.48,-0.44489 4.522,-0.52552 6.434,-0.57822 7.146,-0.19698 0.579,0.30947 1.701,0.3791 2.768,0.17173 2.584,-0.50239 5.95,-0.38072 7.978,0.2884 1.16,0.38242 2.962,0.46691 5.296,0.24824 3.127,-0.29281 3.868,-0.19325 6.355,0.85364 4.088,1.72031 6.08,2.30262 9.571,2.7968 3.17,0.44871 5.623,1.66636 8.196,4.06774 2.104,1.96441 6.385,5.1916 9.088,6.85143 2.347,1.44107 2.477,1.63866 3.91,5.94789 0.816,2.45152 1.63,5.299 1.81,6.32775 0.18,1.02874 0.664,2.38423 1.076,3.01218 0.545,0.83159 0.777,2.60562 0.856,6.53077 0.06,2.96397 0.267,7.65737 0.46,10.42977 0.313,4.48861 0.255,5.16528 -0.531,6.17788 -1.921,2.47351 -2.59,2.94344 -4.194,2.94344 -1.771,0 -2.292,0.6624 -1.699,2.16032 0.209,0.52807 0.395,2.63128 0.413,4.67378 0.02,2.04251 0.242,4.63489 0.496,5.76084 0.253,1.12595 0.665,3.23536 0.914,4.68757 0.249,1.45221 0.84,3.63897 1.314,4.85947 l 0.861,2.21908 -1.295,1.53829 c -0.713,0.84606 -1.295,1.83594 -1.295,2.19974 0,0.36379 -0.541,1.20153 -1.201,1.86162 -1.07,1.06994 -1.201,1.59668 -1.201,4.85405 0,2.44605 0.424,5.23414 1.283,8.43453 l 1.282,4.78066 -1.042,1.40928 c -0.573,0.7751 -1.042,2.03911 -1.042,2.80891 0,2.98517 -0.542,4.40008 -1.684,4.40008 -0.596,0 -1.704,0.61205 -2.462,1.3601 -0.757,0.74806 -2.387,2.06859 -3.621,2.93452 -2.16,1.51611 -2.422,1.57604 -7.079,1.61807 -4.245,0.0383 -4.919,-0.0691 -5.511,-0.87818 -0.584,-0.79853 -0.574,-0.9945 0.07,-1.46513 0.409,-0.29882 0.589,-0.79364 0.4,-1.0996 -0.192,-0.31051 -0.01,-0.68353 0.407,-0.84429 0.413,-0.1584 0.751,-0.58894 0.751,-0.95675 0,-0.36781 0.336,-0.66874 0.748,-0.66874 0.45,0 0.61,-0.22457 0.402,-0.56165 -0.243,-0.39201 -0.07,-0.45592 0.572,-0.2116 0.737,0.28082 0.8,0.23048 0.319,-0.25446 -0.677,-0.68171 -0.82,-1.56475 -0.19,-1.17573 0.49,0.30298 2.016,-1.35939 2.934,-3.19734 0.363,-0.72611 0.839,-1.3202 1.059,-1.3202 0.219,0 0.399,-0.43884 0.399,-0.9752 0,-0.53637 0.27,-1.07898 0.6,-1.20582 0.42,-0.16144 0.628,-1.77696 0.694,-5.38572 0.05,-2.8353 0.22,-6.66732 0.376,-8.51559 l 0.282,-3.36049 -2.001,-2.31195 c -1.362,-1.57377 -2.158,-2.15538 -2.492,-1.82157 -0.524,0.52444 -0.651,9.24327 -0.146,10.06015 0.166,0.26839 0.08,0.62584 -0.195,0.79435 -0.272,0.16851 -0.382,0.49047 -0.243,0.71548 0.139,0.22501 0.33,1.0202 0.424,1.76709 0.09,0.74689 0.425,2.27862 0.736,3.40385 0.851,3.08635 -0.468,5.73215 -3.979,7.97718 -1.793,1.14651 -2.905,2.25846 -3.37,3.36984 -0.608,1.45488 -0.964,1.69935 -2.899,1.98944 -1.214,0.1819 -2.327,0.52535 -2.474,0.76323 -0.147,0.23788 -0.515,0.27974 -0.817,0.093 -0.302,-0.18671 -1.314,-0.40526 -2.248,-0.48566 -4.187,-0.36036 -4.82,-0.60994 -4.82,-1.90007 0,-0.70574 0.56,-1.77103 1.32,-2.5108 2.539,-2.47029 5.163,-5.58581 5.17,-6.13803 0,-0.30625 0.435,-1.04549 0.96,-1.64275 0.525,-0.59726 0.684,-0.92802 0.354,-0.73504 -0.663,0.38725 -0.848,-0.4563 -0.19,-0.86296 0.484,-0.29901 0.377,-7.55956 -0.124,-8.36893 -0.189,-0.30544 -0.195,-0.79553 -0.01,-1.08909 0.181,-0.29356 0.03,-0.72231 -0.332,-0.95279 -0.364,-0.23047 -0.434,-0.42235 -0.155,-0.42639 0.654,-0.01 0.568,-3.80739 -0.1,-4.23961 -0.753,-0.49012 -0.595,-2.00865 0.209,-2.00865 0.567,0 0.586,-0.13609 0.102,-0.7201 -0.48,-0.57794 -0.474,-0.72011 0.03,-0.72011 0.387,0 0.27,-0.27854 -0.302,-0.72128 -0.811,-0.62784 -0.821,-0.68238 -0.07,-0.42099 0.724,0.25242 0.823,0.0887 0.62,-1.02709 -0.253,-1.39642 -3.307,-4.55161 -4.405,-4.55161 -0.368,0 -1.009,-1.21679 -1.5,-2.85179 l -0.858,-2.85179 -2.161,0.86043 c -3.531,1.40593 -6.839,2.52459 -8.885,3.00462 -3.95,0.92696 -8.787,1.89139 -14.168,2.82481 -1.452,0.25202 -3.722,0.67536 -5.042,0.94074 -1.321,0.26538 -3.914,0.69323 -5.763,0.95078 -1.849,0.25756 -4.199,0.6708 -5.222,0.91833 -1.261,0.30508 -2.239,0.27783 -3.034,-0.0846 -0.932,-0.42417 -1.49,-0.3683 -2.703,0.2704 -2.12,1.11657 -13.367,1.57794 -14.892,0.6109 -0.574,-0.36399 -2.316,-0.9392 -3.871,-1.27824 -2.704,-0.58952 -2.865,-0.57065 -3.677,0.43204 -0.625,0.77168 -0.781,1.55903 -0.59,2.98231 0.18,1.3435 0.04,2.187 -0.466,2.76318 -1.032,1.17804 -2.604,6.4852 -3.701,12.49277 -0.304,1.66219 -0.92,3.45146 -1.369,3.97614 -0.45,0.52468 -0.844,1.16299 -0.877,1.41847 -0.03,0.25548 -0.116,0.62653 -0.184,0.82456 -0.244,0.71539 -0.23,4.92062 0.02,4.92067 0.139,2e-5 0.225,1.13421 0.19,2.52041 -0.03,1.3862 0.09,2.93952 0.271,3.45183 0.391,1.08687 -0.508,6.2614 -1.359,7.82484 -0.917,1.6869 -2.865,2.3981 -7.337,2.6796 -5.452,0.34325 -6.42,-0.52316 -4.096,-3.66681 1.83,-2.47534 2.012,-2.90757 0.969,-2.3043 -1.899,1.09931 -2.58,1.88288 -2.594,2.98935 -0.02,1.78761 -2.113,2.99586 -5.486,3.1725 -1.597,0.0836 -4.054,0.22127 -5.459,0.30589 -1.965,0.11828 -2.829,-0.0613 -3.739,-0.77684 z m 4.957,-2.57531 c 0.33,-1.00532 -1.207,-1.0817 -2.092,-0.10399 -0.864,0.95438 -0.856,0.96786 0.518,0.80775 0.768,-0.0896 1.476,-0.40625 1.574,-0.70376 z m 4.247,-5.14868 c 0.18,-0.9881 0.07,-1.18628 -0.533,-0.95529 -0.501,0.19216 -0.598,0.45323 -0.285,0.76628 0.261,0.26115 0.349,0.82655 0.196,1.25645 -0.154,0.42989 -0.127,0.6461 0.06,0.48047 0.186,-0.16563 0.44,-0.86219 0.564,-1.54791 z m 1.653,-1.29972 c 0,-0.54366 -0.207,-0.86079 -0.459,-0.70474 -0.253,0.15606 -0.338,0.60087 -0.189,0.98848 0.381,0.99235 0.648,0.87541 0.648,-0.28374 z m 4.322,0.29669 c 0,-0.11643 -0.216,-0.34521 -0.48,-0.5084 -0.264,-0.16318 -0.48,-0.0679 -0.48,0.21171 0,0.27962 0.216,0.5084 0.48,0.5084 0.264,0 0.48,-0.0953 0.48,-0.21171 z m 3.205,-4.38408 c -0.07,-1.99961 0.06,-3.74415 0.273,-3.87676 0.214,-0.13261 0.349,-0.49486 0.3,-0.80499 -0.05,-0.31014 0.17,-1.19551 0.487,-1.96748 0.318,-0.77198 0.437,-2.04118 0.266,-2.82046 -0.217,-0.99044 -0.148,-1.3163 0.23,-1.08271 0.297,0.18379 0.107,-0.38327 -0.423,-1.26013 -0.53,-0.87686 -1.177,-2.08036 -1.438,-2.67445 -1.04,-2.3667 -1.382,-0.92357 -1.253,5.28077 0.159,7.64807 0.742,12.84186 1.44,12.84186 0.13,0 0.183,-1.63605 0.118,-3.63565 z m -5.606,1.92707 c 0,-0.41164 -0.216,-0.61492 -0.48,-0.45174 -0.264,0.16319 -0.481,0.49999 -0.481,0.74844 0,0.24846 0.217,0.45174 0.481,0.45174 0.264,0 0.48,-0.3368 0.48,-0.74844 z m 118.624,-1.2285 c 0,-0.26404 -0.216,-0.34656 -0.48,-0.18337 -0.264,0.16318 -0.48,0.51273 -0.48,0.77676 0,0.26404 0.216,0.34656 0.48,0.18337 0.264,-0.16318 0.48,-0.51273 0.48,-0.77676 z m -17.529,-3.89098 c 0.274,-0.20446 0.119,-0.36144 -0.36,-0.36564 -0.468,-0.004 -0.841,0.348 -0.841,0.79277 0,0.44006 0.162,0.6046 0.36,0.36564 0.198,-0.23897 0.577,-0.59571 0.841,-0.79277 z m -103.821,-1.04616 c 0.255,-0.66381 -0.03,-1.24711 -0.614,-1.24711 -0.164,0 -0.33,0.43207 -0.37,0.96014 -0.08,1.09755 0.597,1.29572 0.984,0.28697 z m 124.932,-3.13421 c 0.355,-0.57445 -0.549,-1.14364 -1.188,-0.74844 -0.537,0.33182 -0.185,1.19534 0.488,1.19534 0.233,0 0.548,-0.20111 0.7,-0.4469 z m -15.626,-3.06194 c -0.03,-0.40923 -0.107,-0.40033 -0.281,0.0313 -0.134,0.3317 -0.475,0.46034 -0.757,0.28588 -0.306,-0.18906 -0.373,-0.0901 -0.166,0.24487 0.409,0.66092 1.259,0.26407 1.204,-0.56207 z m -109.671,-0.93181 c -0.02,-0.91171 -0.28,-1.56022 -0.631,-1.56022 -0.651,0 -0.704,0.37873 -0.287,2.04029 0.401,1.59864 0.953,1.30994 0.918,-0.48007 z m 125.67,0.70296 c 0.144,-0.55282 -0.05,-0.86784 -0.545,-0.88705 -0.422,-0.0164 -1.065,-0.11667 -1.429,-0.22288 -0.363,-0.10622 -0.759,0.0769 -0.88,0.40697 -0.13,0.35491 0.177,0.60009 0.752,0.60009 0.535,0 1.106,0.21603 1.269,0.48007 0.418,0.67545 0.576,0.60369 0.833,-0.3772 z m -107.053,-1.02874 c 0.358,-0.35766 0.386,-0.67497 0.08,-0.89438 -0.751,-0.5365 -0.696,-1.98269 0.06,-1.69095 0.363,0.13939 0.674,0.0683 0.69,-0.15798 0.02,-0.22628 0.09,-1.38355 0.164,-2.57173 0.141,-2.25574 0.879,-4.51603 1.625,-4.97697 0.24,-0.14826 0.455,-0.95495 0.479,-1.79266 0.02,-0.8377 0.273,-1.75274 0.554,-2.03341 0.281,-0.28067 0.511,-1.45199 0.511,-2.60294 0,-1.47548 0.165,-1.99026 0.561,-1.74551 0.395,0.24395 0.453,0.074 0.193,-0.57176 -0.674,-1.67833 -0.906,-4.51939 -0.37,-4.51939 0.281,0 0.663,-0.476 0.847,-1.05777 0.185,-0.58177 0.631,-1.35299 0.992,-1.71381 0.361,-0.36083 0.765,-1.18102 0.898,-1.82265 0.132,-0.64164 0.355,-1.71594 0.495,-2.38734 0.325,-1.56088 1.611,-2.08131 2.418,-0.97858 0.737,1.00766 0.14,3.11827 -1.232,4.36008 -0.845,0.76376 -0.853,0.91266 -0.132,2.4225 0.629,1.3198 0.921,1.52633 1.625,1.14994 0.605,-0.32409 0.971,-0.26967 1.243,0.18535 0.947,1.58149 12.119,2.27916 16.235,1.01383 1.422,-0.43728 3.967,-0.71263 6.243,-0.6753 2.113,0.0347 5.679,-0.27933 7.924,-0.69776 8.014,-1.49349 9.442,-1.71877 10.896,-1.71877 0.811,0 2.25,-0.32405 3.198,-0.72011 0.948,-0.39605 2.376,-0.7201 3.173,-0.7201 1.67,0 5.368,-0.83587 7.467,-1.68747 0.792,-0.32162 2.629,-0.96428 4.082,-1.42814 1.453,-0.46385 3.614,-1.23856 4.802,-1.72156 2.835,-1.15169 4.886,-1.50288 5.705,-0.97649 0.982,0.63154 0.197,1.49303 -1.361,1.49303 h -1.363 l 0.551,2.1308 c 0.429,1.66 1.057,2.52441 2.841,3.91226 1.26,0.97981 2.864,1.80321 3.563,1.82978 0.699,0.0266 1.361,0.3185 1.471,0.64873 0.133,0.39923 -0.08,0.49253 -0.639,0.27847 -0.568,-0.21777 -0.729,-0.14238 -0.497,0.233 0.189,0.30522 0.819,0.466 1.4,0.35729 0.581,-0.10871 1.646,-0.21371 2.367,-0.23333 1.245,-0.0339 1.282,-0.10114 0.738,-1.35587 -0.315,-0.7261 -1.175,-1.87953 -1.911,-2.56318 -0.736,-0.68365 -1.338,-1.49377 -1.338,-1.80026 0,-0.3065 -0.165,-0.55727 -0.367,-0.55727 -0.201,0 -0.579,-0.48607 -0.84,-1.08016 -0.261,-0.59408 -0.726,-1.08015 -1.035,-1.08015 -0.308,0 -0.722,-0.16203 -0.92,-0.36005 -0.198,-0.19803 -0.108,-0.36006 0.2,-0.36006 0.326,0 0.209,-0.37177 -0.28,-0.88933 -5.653,-5.98174 -7.233,-7.86017 -7.416,-8.81811 -0.321,-1.68054 0.02,-2.22326 1.196,-1.92539 1.328,0.33532 1.761,0.96843 1.77,2.58885 0,1.4632 1.525,2.9111 4.946,4.72266 1.246,0.65971 2.188,1.41582 2.092,1.68024 -0.239,0.66207 1.524,4.08129 2.104,4.08129 0.259,0 0.471,0.33559 0.471,0.74576 0,0.98969 2.472,4.05491 3.27,4.05492 0.346,1e-5 0.496,0.21358 0.335,0.47459 -0.175,0.2824 0.04,0.34585 0.535,0.15669 0.619,-0.23736 0.756,-0.12731 0.54,0.43446 -0.175,0.45632 0.185,1.19747 0.916,1.88361 1.183,1.11075 1.217,1.11432 1.888,0.19692 0.551,-0.75273 0.8,-0.81605 1.282,-0.32576 0.479,0.48707 0.455,0.57777 -0.122,0.45427 -0.404,-0.0866 -0.66,0.13127 -0.583,0.49631 0.08,0.35784 -0.121,0.96105 -0.436,1.34047 -0.465,0.55985 -0.208,1.04023 1.363,2.54929 2.102,2.01859 6.038,4.1659 6.284,3.42798 0.175,-0.52488 3.469,-0.13214 4.154,0.49538 0.869,0.79533 1.829,0.46235 1.566,-0.54325 -0.138,-0.52844 -0.07,-0.84897 0.151,-0.71228 0.733,0.45305 1.043,-0.75579 0.393,-1.53765 -0.555,-0.66889 -0.513,-0.72876 0.326,-0.46263 1.039,0.32973 2.538,-1.31117 1.682,-1.84056 -0.248,-0.15272 -0.315,-0.63023 -0.149,-1.06115 0.222,-0.57851 0.122,-0.68166 -0.381,-0.39426 -0.532,0.30377 -0.559,0.25552 -0.119,-0.21979 0.62,-0.67162 0.309,-2.08251 -0.368,-1.66448 -0.233,0.14422 -0.296,-0.0731 -0.138,-0.48282 0.157,-0.40978 0.05,-0.74504 -0.246,-0.74504 -0.292,0 -0.532,-0.22878 -0.532,-0.5084 0,-0.27963 0.217,-0.37489 0.481,-0.21171 0.846,0.52258 0.513,-0.65179 -0.437,-1.54152 -0.852,-0.79779 -0.908,-1.54121 -0.793,-10.46022 0.07,-5.28076 0.27,-9.93383 0.449,-10.34013 0.179,-0.40631 0.245,-1.2635 0.147,-1.90486 -0.1,-0.64137 0.02,-2.03718 0.265,-3.10182 0.469,-2.04575 0.556,-11.49897 0.128,-13.93744 -0.138,-0.79211 -0.388,-2.80911 -0.555,-4.48221 -0.167,-1.6731 -0.542,-3.13367 -0.834,-3.24571 -0.294,-0.11271 -0.493,-1.12298 -0.445,-2.26168 0.07,-1.77079 -0.16,-2.31929 -1.681,-3.93049 -0.972,-1.02987 -1.659,-1.93695 -1.527,-2.01572 0.132,-0.0788 -0.391,-0.81096 -1.161,-1.6271 -1.025,-1.08507 -1.24,-1.58366 -0.8,-1.85512 0.452,-0.27946 0.406,-0.44574 -0.185,-0.67258 -0.509,-0.19517 -0.669,-0.11219 -0.454,0.2355 0.2,0.32284 0.07,0.44907 -0.335,0.31665 -0.367,-0.12112 -0.903,-0.68794 -1.19,-1.25961 -0.288,-0.57167 -0.682,-0.88046 -0.877,-0.6862 -0.194,0.19427 -0.566,-0.0276 -0.827,-0.49301 -0.26,-0.46542 -0.713,-0.69822 -1.006,-0.51733 -0.328,0.20237 -0.43,0.0633 -0.267,-0.36149 0.151,-0.39286 -0.399,-1.36306 -1.276,-2.25135 -1.206,-1.22229 -2.523,-1.82967 -6.067,-2.79937 -7.904,-2.16295 -7.7,-2.13298 -7.116,-1.04311 0.601,1.12387 0.175,1.76404 -0.635,0.95387 -0.692,-0.69129 -2.297,-0.75281 -2.297,-0.088 0,0.26404 -0.325,0.48007 -0.721,0.48007 -0.953,0 -0.909,-0.32857 0.24,-1.78928 0.529,-0.67134 0.961,-1.42168 0.961,-1.66742 0,-0.25134 -1.944,-0.39907 -4.443,-0.33771 -2.443,0.06 -5.793,-0.0639 -7.444,-0.27524 -1.937,-0.24809 -3.001,-0.21412 -3.001,0.0958 0,0.2641 0.513,0.38211 1.14,0.26225 0.762,-0.14551 1.472,0.13763 2.138,0.85193 l 0.997,1.06987 -0.967,1.89392 c -0.657,1.28792 -0.868,2.34229 -0.658,3.29522 0.236,1.07629 0.136,1.40132 -0.434,1.40132 -0.408,0 -0.945,-0.38036 -1.194,-0.84524 -0.49,-0.91526 -0.182,-3.47539 0.418,-3.47539 0.806,0 0.878,-1.98217 0.08,-2.28284 -0.974,-0.36844 -2.004,-1.34116 -2.004,-1.8927 0,-0.22196 -1.35,-0.43104 -3.001,-0.46462 -1.651,-0.0336 -3.542,-0.13075 -4.202,-0.21591 -0.661,-0.0852 -4.908,0.0272 -9.439,0.24966 l -8.238,0.40452 -1.056,1.42764 c -0.933,1.26179 -1.26,1.39382 -2.808,1.13648 -4.457,-0.74073 -6.941,-0.83965 -8.874,-0.35333 -1.331,0.33516 -2.64,0.36999 -3.597,0.0957 -0.994,-0.28483 -2.788,-0.20721 -5.286,0.22867 -2.079,0.36294 -6.353,0.64489 -9.497,0.62657 -3.143,-0.0183 -6.935,0.12227 -8.426,0.31243 -3.115,0.39725 -10.712,-0.45209 -13.703,-1.53212 -1.103,-0.39837 -2.502,-1.25226 -3.109,-1.89752 -0.606,-0.64526 -2.027,-1.58191 -3.156,-2.08144 -1.276,-0.56387 -2.054,-1.22269 -2.054,-1.73756 0,-0.97765 -1.344,-2.58516 -2.162,-2.58516 -0.314,0 -0.949,-0.4175 -1.411,-0.92777 -0.462,-0.51027 -1.144,-0.8112 -1.515,-0.66874 -0.372,0.14246 -0.676,0.007 -0.676,-0.30074 0,-0.30787 0.19,-0.44294 0.421,-0.30015 0.697,0.43068 0.471,-2.06277 -0.24,-2.6531 -0.364,-0.30131 -0.661,-0.81898 -0.661,-1.15037 0,-0.3314 -0.324,-0.87148 -0.72,-1.20018 -0.589,-0.48821 -0.721,-0.45917 -0.721,0.15867 0,1.09672 1.037,3.20182 1.577,3.20182 0.254,0 0.205,0.31024 -0.11,0.68942 -0.437,0.52582 -0.441,0.93618 -0.02,1.72932 0.306,0.57195 0.45,1.44967 0.319,1.95049 -0.131,0.50082 -0.04,1.03156 0.197,1.17943 0.523,0.32307 0.587,1.22293 0.08,1.0523 -0.199,-0.066 -0.415,0.042 -0.481,0.24003 -0.07,0.19803 0.04,0.3754 0.24,0.39416 0.582,0.055 1.159,1.37106 0.834,1.89781 -0.165,0.26625 -0.501,0.35981 -0.747,0.2079 -0.662,-0.40931 -0.542,1.10213 0.226,2.82836 0.849,1.90896 1.254,3.67328 0.843,3.67241 -0.173,-3.6e-4 -1.288,-0.87724 -2.476,-1.9486 -1.189,-1.07137 -2.81,-2.28559 -3.602,-2.69826 -0.793,-0.41267 -2.427,-1.80413 -3.631,-3.09212 -1.26,-1.34679 -2.614,-2.34181 -3.187,-2.34181 -1.035,0 -3.438,-1.08176 -3.94,-1.77361 -0.159,-0.21803 -1.54,-1.01862 -3.07,-1.77908 -1.529,-0.76046 -3.096,-1.83249 -3.482,-2.38229 -0.385,-0.5498 -0.7,-0.8171 -0.7,-0.594 0,0.2231 -0.29,0.16503 -0.645,-0.12905 -0.354,-0.29408 -0.827,-0.37454 -1.051,-0.1788 -0.223,0.19574 0.379,-0.47463 1.338,-1.4897 1.9,-2.01081 2.759,-1.9688 2.759,0.13489 0,0.7442 0.27,1.55776 0.601,1.8079 0.738,0.5594 4.493,1.68939 6.123,1.84279 2.731,0.25704 4.315,0.87996 5.573,2.19261 0.732,0.76351 1.515,1.3882 1.74,1.3882 0.226,0 1.047,0.47072 1.825,1.04605 1.409,1.04134 2.598,0.89232 1.516,-0.18993 -0.639,-0.63824 -0.778,-1.52252 -0.183,-1.15444 0.213,0.13114 0.411,-0.55822 0.441,-1.53189 0.06,-2.04252 -2.159,-7.29112 -3.088,-7.29112 -0.341,0 -0.637,-0.27004 -0.657,-0.60008 -0.09,-1.49033 -0.414,-2.2509 -1.354,-3.19069 -0.556,-0.55546 -1.01,-1.17646 -1.01,-1.38 0,-0.20354 -1.023,-0.90565 -2.273,-1.56023 -1.25,-0.65458 -2.562,-1.45986 -2.915,-1.78951 -1.286,-1.19934 -3.363,-1.29871 -8.98,-0.42961 -3.359,0.51969 -7.335,1.66787 -9.118,2.6333 -1.053,0.56983 -2.261,1.03606 -2.684,1.03606 -0.822,0 -3.91,3.09752 -3.498,3.5087 0.134,0.1343 -0.21,0.3883 -0.765,0.56444 -0.556,0.17613 -0.95,0.61588 -0.877,0.97722 0.07,0.36134 -0.245,0.93906 -0.706,1.28382 -0.757,0.56526 -2.283,5.16549 -2.283,6.88201 0,0.37814 0.594,0.82945 1.321,1.00291 0.726,0.17346 1.589,0.5269 1.918,0.78544 0.402,0.31679 1.13,0.21694 2.233,-0.30623 1.782,-0.84497 3.876,-1.04595 3.433,-0.32939 -0.152,0.24579 -0.06,0.58259 0.212,0.74843 0.269,0.16585 0.488,0.0573 0.488,-0.24115 0,-0.93483 1.26,-1.90364 1.788,-1.37537 0.316,0.31625 0.765,-0.13946 1.33,-1.35106 1.051,-2.25106 2.199,-3.40375 3.136,-3.14699 0.391,0.10704 0.926,0.25801 1.19,0.33549 0.264,0.0775 0.628,0.11437 0.809,0.082 0.778,-0.13942 3.274,2.84847 3.274,3.91949 0,1.72379 -2.902,4.42283 -4.755,4.42283 -0.819,0 -1.463,-0.16202 -1.432,-0.36005 0.167,-1.05459 -0.18,-0.99782 -1.315,0.2153 -0.693,0.73971 -1.458,1.28784 -1.702,1.21806 -0.243,-0.0698 -0.212,0.30341 0.07,0.82932 0.393,0.7343 0.37,0.90167 -0.1,0.72127 -0.337,-0.12921 -0.917,0.25371 -1.289,0.85092 -0.62,0.99451 -0.61,1.03043 0.121,0.42698 1.382,-1.14227 2.272,0.12919 2.175,3.10859 -0.05,1.40556 0.175,2.86692 0.491,3.24747 0.321,0.38671 0.442,1.21844 0.274,1.88563 -0.353,1.40623 0.47,2.11879 1.48,1.28101 0.761,-0.63143 0.857,-0.4697 0.409,0.69554 -0.16,0.41613 -0.517,0.61645 -0.794,0.44516 -0.282,-0.17416 -0.363,-0.083 -0.184,0.20681 0.578,0.93574 -0.716,2.93141 -2.002,3.08501 -0.67,0.0801 -1.301,0.39864 -1.402,0.70791 -0.113,0.34442 0.164,0.471 0.717,0.32667 0.495,-0.1296 1.183,0.10343 1.527,0.51785 0.344,0.41441 0.849,0.75348 1.121,0.75348 0.273,0 1.219,0.55107 2.103,1.2246 1.176,0.89688 1.606,1.60054 1.606,2.62932 0,0.94329 0.369,1.64667 1.125,2.14131 2.103,1.37798 4.148,4.41846 4.419,6.57168 0.142,1.13251 0.574,2.23549 0.959,2.45107 0.483,0.27022 0.706,1.24188 0.716,3.1285 0,1.62805 0.298,3.10994 0.713,3.65833 0.47,0.62136 0.604,1.50803 0.41,2.72063 -0.192,1.19777 -0.03,2.31804 0.488,3.35259 0.448,0.89777 0.775,2.73867 0.775,4.36039 0,2.16657 0.219,3.02563 0.961,3.7668 0.724,0.72427 0.96,1.60023 0.96,3.56568 0,2.20745 0.184,2.74978 1.201,3.5496 0.858,0.67463 1.2,1.40757 1.2,2.56823 0,1.90607 2.264,4.71858 3.799,4.71858 0.533,0 1.202,0.43206 1.484,0.96014 0.382,0.71229 1.006,0.96014 2.419,0.96014 1.386,0 1.904,0.19911 1.904,0.73211 0,0.42939 0.595,0.8512 1.44,1.02014 2.34,0.46778 1.461,1.60824 -1.239,1.60824 -0.667,0 -1.162,0.28192 -1.162,0.66132 0,0.85967 1.266,1.90396 1.861,1.53591 0.255,-0.15718 0.753,0.004 1.106,0.3573 0.354,0.35369 0.892,0.5603 1.196,0.45914 0.303,-0.10117 0.67,0.007 0.814,0.2396 0.38,0.61561 -1.413,0.39198 -2.219,-0.27667 -0.377,-0.31236 -0.827,-0.42578 -1.001,-0.25204 -0.624,0.62359 -0.319,4.35617 0.404,4.95655 0.397,0.3287 0.721,0.9905 0.721,1.47066 0,0.48016 0.188,0.98929 0.418,1.1314 0.341,0.21087 0.951,2.09282 1.21,3.73486 0.18,1.14281 5.549,2.65392 9.176,2.58228 2.518,-0.0498 2.518,-0.95732 0,-3.91155 -1.937,-2.27391 -2.371,-3.51184 -1.458,-4.16018 0.32,-0.22726 0.284,-0.35531 -0.103,-0.36005 -0.33,-0.004 -0.601,-0.42666 -0.601,-0.93916 0,-0.51249 -0.227,-1.07237 -0.505,-1.24416 -0.278,-0.1718 -0.418,-0.56261 -0.312,-0.86846 0.107,-0.30585 -0.305,-1.15603 -0.915,-1.88928 -0.663,-0.79703 -0.988,-1.64924 -0.807,-2.11905 0.188,-0.49021 0.109,-0.66696 -0.21,-0.46983 -0.282,0.17382 -0.636,-0.007 -0.787,-0.40132 -0.152,-0.39454 -0.642,-0.71734 -1.091,-0.71734 -0.449,0 -0.681,-0.13477 -0.516,-0.29948 0.165,-0.16471 -0.123,-1.12825 -0.64,-2.14119 -0.517,-1.01294 -0.94,-1.96322 -0.94,-2.11174 0,-0.52893 4.732,0.17057 6.165,0.91134 1.882,0.97294 2.33,1.72079 1.032,1.72079 -0.721,0 -0.973,0.2487 -0.852,0.84012 0.1,0.48345 0.523,0.78024 0.996,0.69906 0.453,-0.0776 0.823,0.0844 0.823,0.36005 0,0.27562 -0.216,0.50112 -0.48,0.50112 -0.777,0 -0.564,0.76719 0.84,3.02113 1.042,1.67296 1.61,2.12855 2.69,2.15925 0.753,0.0214 1.79,0.42006 2.305,0.88592 0.753,0.68042 1.194,0.75006 2.243,0.35406 1.397,-0.52695 2.488,-0.37758 2.488,0.34062 0,0.24203 -0.541,0.44006 -1.201,0.44006 -1.664,0 -1.501,0.78323 0.36,1.72792 2.562,1.30042 2.724,1.51906 2.109,2.83425 -0.521,1.11276 -2.913,2.11488 -3.544,1.48439 -0.417,-0.41693 0.02,-0.72059 1.319,-0.91893 1.737,-0.26499 1.645,-1.00997 -0.235,-1.90623 -0.929,-0.44303 -1.69,-1.01466 -1.69,-1.27029 0,-0.64612 -4.081,-3.39132 -5.041,-3.39132 -0.589,0 -0.708,0.272 -0.473,1.08016 0.411,1.41364 4.018,8.90155 5.03,10.44151 0.434,0.6601 0.817,1.71067 0.851,2.3346 0.03,0.62393 0.668,1.76665 1.408,2.53938 1.173,1.22312 1.616,1.37846 3.43,1.20018 1.145,-0.11264 2.332,-0.45424 2.637,-0.75912 z m -22.167,-12.87988 c -1.123,-2.31883 -1.159,-2.51662 -0.458,-2.51662 0.379,0 1.196,0.54008 1.816,1.20018 0.62,0.66009 1.523,1.20017 2.005,1.20017 1.234,0 1.093,0.79031 -0.204,1.13763 -1.915,0.51302 -2.509,0.32106 -3.159,-1.02136 z m 126.39,-3.69149 c 0.227,-0.5909 0.134,-0.77847 -0.301,-0.61157 -1.47,0.56408 -0.632,-1.66352 1.224,-3.25154 1.583,-1.35465 2.065,-1.56025 2.372,-1.01255 0.577,1.03073 0.05,1.90866 -1.563,2.6241 -1.069,0.47285 -1.377,0.8711 -1.173,1.51359 0.152,0.47954 0.01,1.03353 -0.305,1.23109 -0.407,0.25159 -0.483,0.10387 -0.254,-0.49312 z m -110.03,-2.71014 c -1.446,-0.54449 -2.561,-1.734 -3.673,-3.91899 -0.996,-1.95717 -0.635,-3.11519 0.485,-1.5566 1.647,2.29118 3.819,4.5599 4.365,4.5599 0.326,0 1.031,-0.47034 1.567,-1.04522 1.024,-1.09854 1.776,-0.93803 1.308,0.27932 -0.446,1.16399 -2.815,2.14702 -4.052,1.68159 z m 104.553,-3.31284 c -0.618,-0.64491 -0.639,-0.88803 -0.12,-1.37253 0.346,-0.32384 0.63,-0.46466 0.63,-0.31294 0,0.15172 0.458,0.0307 1.019,-0.26901 0.823,-0.44059 0.947,-0.42086 0.646,0.10313 -0.204,0.35639 0.07,0.21592 0.601,-0.31216 0.535,-0.52807 0.91,-1.0324 0.833,-1.12073 -0.209,-0.24236 1.382,-1.99972 1.81,-1.99972 0.65,0 0.405,1.90651 -0.402,3.13734 -0.426,0.65081 -1.045,1.18329 -1.376,1.18329 -0.33,0 -1.115,0.39309 -1.745,0.87353 -1.059,0.80731 -1.203,0.81412 -1.896,0.0898 z m 2.583,-6.17932 c -0.299,-0.47894 -0.402,-1.06784 -0.228,-1.30867 0.603,-0.83444 2.896,-1.76276 3.646,-1.47535 1.159,0.44469 0.898,1.10218 -0.7,1.76381 -0.798,0.3307 -1.614,0.89146 -1.813,1.24614 -0.285,0.50889 -0.476,0.46125 -0.905,-0.22593 z m -8.858,-0.1848 c 0.519,-0.66129 0.536,-0.98892 0.08,-1.53919 -0.319,-0.38449 -0.447,-0.91514 -0.284,-1.17921 0.386,-0.62307 1.556,-0.16816 1.905,0.74016 0.153,0.39796 0.06,0.5795 -0.203,0.41462 -0.261,-0.16132 -0.475,0.017 -0.475,0.39635 0,0.37931 -0.378,0.98615 -0.84,1.34853 -0.762,0.59714 -0.779,0.58016 -0.182,-0.18126 z m -8.644,-0.7201 c -0.598,-0.76142 -0.581,-0.7784 0.181,-0.18125 0.8,0.62715 1.054,1.02137 0.659,1.02137 -0.1,0 -0.478,-0.37805 -0.84,-0.84012 z m -53.028,-0.15196 c -0.174,-0.2816 -0.213,-0.61497 -0.09,-0.74081 0.126,-0.12584 0.357,0.10457 0.513,0.51201 0.325,0.84594 0.05,0.99474 -0.426,0.2288 z m 8.905,-0.4266 c 0,-0.21938 0.342,-0.53 0.76,-0.69027 1.056,-0.40515 1.161,-0.37559 1.161,0.32655 0,0.33987 -0.432,0.65049 -0.961,0.69027 -0.528,0.0398 -0.96,-0.10717 -0.96,-0.32655 z m -73.083,-1.10168 c -0.946,-1.51456 -0.817,-3.91279 0.221,-4.11252 0.886,-0.17069 1.132,0.62467 0.343,1.11208 -0.773,0.47734 -0.576,2.64038 0.24,2.64038 0.396,0 0.72,-0.18135 0.72,-0.40301 0,-0.68534 2.328,-1.54507 2.672,-0.98715 0.374,0.60348 -0.04,1.05934 -1.089,1.2139 -0.435,0.0638 -0.98,0.45359 -1.211,0.86623 -0.577,1.03204 -1.103,0.94059 -1.896,-0.32991 z m 66.01,0.26271 c -0.862,-0.1665 -0.955,-0.33041 -0.48,-0.84437 0.324,-0.35077 0.805,-0.51528 1.069,-0.36559 0.265,0.14969 0.102,-0.16003 -0.36,-0.68828 -1.134,-1.29629 -1.074,-1.47727 0.611,-1.84728 1.022,-0.22429 1.642,-0.76854 2.095,-1.8384 0.354,-0.83588 1.091,-1.91814 1.638,-2.40501 0.547,-0.48688 0.878,-1.18898 0.735,-1.56023 -0.142,-0.37125 -0.02,-0.675 0.273,-0.675 1.014,0 0.793,2.25129 -0.346,3.52377 -0.435,0.48586 -0.794,1.16957 -0.797,1.51935 0,0.73464 -1.796,2.9143 -2.616,3.18737 -0.305,0.10172 -0.591,0.66782 -0.636,1.258 -0.04,0.59017 -0.09,1.04362 -0.1,1.00767 0,-0.036 -0.499,-0.15836 -1.087,-0.272 z m -60.121,-2.11023 c -0.475,-1.58484 -0.77,-1.92041 -1.516,-1.72531 -0.51,0.13322 -1.031,0.0744 -1.158,-0.13078 -0.126,-0.20514 -0.832,-0.4933 -1.567,-0.64034 -1.485,-0.29688 -3.486,-1.83121 -3.486,-2.67337 0,-0.76188 0.497,-0.67761 1.534,0.26007 0.488,0.44211 2.23,1.04633 3.869,1.3427 2.912,0.52648 2.984,0.57582 3.111,2.14729 0.07,0.88464 0.345,1.86652 0.607,2.18197 0.457,0.55095 0.197,1.2053 -0.48,1.2053 -0.178,0 -0.59,-0.88538 -0.914,-1.96753 z m 122.336,0.51958 c -0.761,-0.8358 -0.755,-0.88385 0.1,-0.81952 0.5,0.0376 0.811,0.16522 0.693,0.28362 -0.119,0.1184 0.03,0.50518 0.319,0.85953 0.815,0.98179 -0.189,0.68929 -1.111,-0.32363 z m -84.194,-0.46683 c -0.169,-0.27213 0.02,-0.35261 0.451,-0.18867 0.832,0.31915 0.985,0.66324 0.294,0.66324 -0.249,0 -0.584,-0.21355 -0.745,-0.47457 z m 30.071,-0.44285 c -0.75,-0.47068 -0.325,-1.48292 0.623,-1.48292 0.344,0 1.411,-0.74161 2.373,-1.64801 1.534,-1.44631 1.748,-1.92725 1.748,-3.92963 0,-1.65959 -0.276,-2.57519 -1.012,-3.35841 -1.424,-1.51532 -0.972,-2.4309 0.593,-1.20051 1.002,0.78776 1.297,1.53198 1.544,3.89319 0.266,2.54725 0.161,3.14725 -0.825,4.70838 -1.724,2.72948 -3.659,3.88733 -5.044,3.01791 z m -21.55,-0.3665 c -0.949,-0.37342 -0.701,-1.3246 0.48,-1.84371 1.159,-0.50929 1.26,-1.3863 0.453,-3.91871 -0.386,-1.21106 -0.343,-1.58028 0.206,-1.79109 0.447,-0.17124 0.87,0.20007 1.192,1.04547 1.118,2.9311 1.06,3.77178 -0.362,5.2868 -0.753,0.80164 -1.639,1.3512 -1.969,1.22124 z m -40.462,-0.8204 c 0,-0.10122 0.432,-0.29711 0.961,-0.4353 0.529,-0.13819 0.84,-0.0554 0.692,0.18405 -0.258,0.41809 -1.653,0.63006 -1.653,0.25125 z m 74.92,-0.57035 c 0,-0.36533 1.295,-1.64595 1.664,-1.64595 0.16,0 0.06,0.43206 -0.223,0.96014 -0.47,0.87777 -1.441,1.33989 -1.441,0.68581 z m -62.914,-1.19421 c 0,-0.27963 0.216,-0.37489 0.481,-0.21171 0.264,0.16319 0.48,0.39197 0.48,0.5084 0,0.11644 -0.216,0.21171 -0.48,0.21171 -0.265,0 -0.481,-0.22878 -0.481,-0.5084 z m 107.107,-0.20077 c -0.731,-0.88133 -0.234,-1.69118 1.039,-1.69118 0.826,0 0.892,-0.11958 0.393,-0.72011 -0.338,-0.40677 -0.388,-0.7201 -0.115,-0.7201 0.707,0 1.07,-1.82834 0.424,-2.1373 -0.302,-0.14467 -0.225,-0.18996 0.171,-0.10063 0.397,0.0893 0.743,0.5754 0.77,1.08015 0.1,1.86871 0.207,2.08175 0.911,1.81146 0.984,-0.37732 0.909,0.47313 -0.12,1.37054 -1.695,1.47837 -2.857,1.84871 -3.473,1.10717 z m -111.313,-2.28731 c 0.352,-1.06832 7.088,-1.04878 7.088,0.0206 0,0.20145 -1.64,0.41515 -3.643,0.47488 -2.75,0.082 -3.595,-0.0396 -3.445,-0.49545 z m 42.464,0.24114 c -0.126,-0.20386 0.19,-1.23041 0.701,-2.28123 0.583,-1.19867 0.824,-2.39263 0.645,-3.20432 -0.216,-0.98397 -0.05,-1.41668 0.676,-1.80719 1.376,-0.7364 1.538,-0.64826 1.038,0.5667 -0.244,0.59409 -0.783,2.31134 -1.196,3.81612 -0.728,2.64692 -1.389,3.6781 -1.864,2.90992 z m -59.169,-0.63709 c -0.174,-0.28161 -0.213,-0.61497 -0.09,-0.74081 0.125,-0.12584 0.356,0.10457 0.513,0.51201 0.325,0.84593 0.05,0.99473 -0.426,0.2288 z m 120.325,0.0558 c 0,-0.60773 1.719,-1.94413 2.501,-1.94413 0.861,0 2.011,-1.21846 1.678,-1.77923 -0.343,-0.57988 2.436,-3.10616 2.789,-2.53496 0.442,0.7156 1.309,0.0186 0.995,-0.80003 -0.164,-0.42749 -0.06,-0.57039 0.261,-0.37001 0.29,0.17956 0.711,0.0306 0.935,-0.3311 0.303,-0.49029 0.545,-0.51905 0.951,-0.11305 0.784,0.78388 -0.123,2.25356 -2.172,3.51941 -0.923,0.57054 -2.06,1.51814 -2.527,2.10579 -0.467,0.58765 -1.144,1.24881 -1.505,1.46925 -0.989,0.6029 -3.906,1.18408 -3.906,0.77806 z m -124.905,-2.01407 c -0.413,-0.77096 -0.345,-0.78247 0.876,-0.14877 0.79,0.41012 1.387,0.49584 1.483,0.21276 0.09,-0.26077 0.376,-0.47412 0.64,-0.47412 0.264,0 0.39,0.27004 0.28,0.60009 -0.305,0.91701 -2.762,0.77468 -3.279,-0.18996 z m 8.989,0.30998 c 0.152,-0.39606 0.361,-0.72011 0.465,-0.72011 0.104,0 0.189,0.32405 0.189,0.72011 0,0.39605 -0.21,0.7201 -0.465,0.7201 -0.256,0 -0.341,-0.32405 -0.189,-0.7201 z m 127.072,-1.28986 c 0.239,-0.71763 1.331,-1.11276 1.331,-0.48176 0,0.2578 -0.342,0.59999 -0.761,0.76044 -0.467,0.17942 -0.687,0.0721 -0.57,-0.27868 z m -47.809,-1.55125 c 0.215,-1.32288 0.07,-1.76398 -0.751,-2.27579 -0.559,-0.34918 -1.017,-1.01496 -1.017,-1.47952 0,-1.07365 0.444,-1.07528 1.236,-0.005 0.497,0.67311 0.742,0.72083 1.229,0.24003 0.846,-0.8333 1.625,-0.75597 0.921,0.0914 -0.316,0.38031 -0.515,1.08241 -0.442,1.56022 0.185,1.21281 -0.47,3.50913 -1.002,3.50913 -0.242,0 -0.321,-0.73842 -0.174,-1.64093 z m -67.8,0.76462 c -0.548,-0.54852 -0.165,-0.84569 1.227,-0.95174 0.809,-0.0616 1.619,-0.16156 1.801,-0.22213 0.182,-0.0606 0.416,0.1059 0.52,0.36994 0.196,0.49315 -3.109,1.24201 -3.548,0.80393 z m 17.571,-0.75039 c -0.456,-0.54916 -0.385,-0.87152 0.346,-1.57234 1.981,-1.89924 2.419,-4.48207 0.758,-4.48207 -0.901,0 -0.848,-1.17372 0.09,-1.95065 0.853,-0.70706 1.405,-0.18198 1.946,1.85012 0.383,1.4374 -0.665,5.12673 -1.729,6.08948 -0.724,0.65529 -0.912,0.66403 -1.409,0.0655 z m -20.216,-0.25442 c 0,-0.64014 3.078,-2.44229 4.139,-2.42353 0.81,0.0143 0.786,0.11403 -0.23,0.96014 -0.623,0.51929 -1.434,0.94416 -1.801,0.94416 -0.367,0 -0.667,0.21603 -0.667,0.48007 0,0.26404 -0.324,0.48007 -0.72,0.48007 -0.397,0 -0.721,-0.19841 -0.721,-0.44091 z m -21.291,-1.79941 c -0.526,-0.52559 -0.363,-1.20282 0.205,-0.85192 0.29,0.17869 1.159,-0.14249 1.932,-0.71375 0.773,-0.57126 1.621,-0.90539 1.884,-0.74251 0.628,0.38767 3.83,-0.65017 4.906,-1.59013 1.072,-0.93617 1.557,-0.48511 0.866,0.80575 -0.739,1.38016 -2.044,1.9764 -4.566,2.08611 -1.241,0.054 -2.264,0.35671 -2.399,0.7103 -0.247,0.64167 -2.271,0.85362 -2.828,0.29615 z m 102.669,-0.68192 c -0.177,-0.28705 -0.09,-0.75132 0.188,-1.03171 0.36,-0.3597 0.487,-0.20603 0.432,0.5219 -0.09,1.17451 -0.168,1.24002 -0.62,0.50981 z m 1.943,-1.03833 c 0,-1.22096 -0.178,-1.52955 -0.836,-1.41917 -0.995,0.16691 -0.99,0.19194 -0.297,-1.79742 0.495,-1.4189 0.43,-1.66532 -0.72,-2.73145 -0.695,-0.64451 -1.264,-1.60163 -1.264,-2.12693 0,-0.92479 0.05,-0.92037 1.56,0.13945 2.133,1.49561 2.339,1.83713 2.11,3.49487 -0.118,0.84711 0.09,1.77291 0.511,2.24809 0.485,0.54989 0.608,1.2781 0.388,2.28033 -0.43,1.95888 -1.458,1.89676 -1.452,-0.0878 z m -77.318,-0.36005 c 0.164,-0.26404 0.501,-0.48007 0.749,-0.48007 0.249,0 0.452,0.21603 0.452,0.48007 0,0.26403 -0.337,0.48007 -0.749,0.48007 -0.411,0 -0.615,-0.21604 -0.452,-0.48007 z m 106.858,0 c 0,-0.26404 0.312,-0.48007 0.692,-0.48007 0.381,0 0.826,0.21603 0.989,0.48007 0.164,0.26403 -0.148,0.48007 -0.692,0.48007 -0.544,0 -0.989,-0.21604 -0.989,-0.48007 z m -63.992,-1.80027 c -0.125,-0.7261 -0.388,-1.69824 -0.586,-2.16031 -0.205,-0.47905 -0.153,-0.84012 0.12,-0.84012 0.264,0 0.827,0.8685 1.252,1.92999 0.938,2.34333 0.94,2.39064 0.107,2.39064 -0.367,0 -0.768,-0.59409 -0.893,-1.3202 z m 59.51,1.00015 c -0.176,-0.17603 -0.32,-0.7161 -0.32,-1.20017 0,-0.62417 0.357,-0.88013 1.229,-0.88013 0.697,0 1.1,-0.2078 0.932,-0.48007 -0.163,-0.26404 -0.05,-0.48007 0.263,-0.48007 0.308,0 0.437,-0.31954 0.287,-0.7101 -0.17,-0.44498 0.347,-1.18194 1.386,-1.97395 1.307,-0.99698 1.598,-1.50021 1.376,-2.38308 -0.344,-1.37064 0.22,-2.5432 0.785,-1.63033 0.582,0.94129 0.06,3.80631 -0.956,5.22987 -0.504,0.70737 -1.072,1.92103 -1.262,2.69704 -0.19,0.77601 -0.583,1.56965 -0.872,1.76363 -0.662,0.44294 -2.423,0.47224 -2.848,0.0474 z m -73.8,-1.84027 c 0,-0.39605 0.18,-0.7201 0.399,-0.7201 0.22,0 0.673,-0.51066 1.007,-1.1348 0.505,-0.94338 0.478,-1.38474 -0.159,-2.61654 -0.422,-0.81496 -0.767,-2.00617 -0.767,-2.64713 0,-1.50285 1.31,-4.64313 1.937,-4.64313 0.552,0 0.108,2.31506 -0.621,3.24047 -0.26,0.33004 -0.284,0.60695 -0.05,0.61535 0.231,0.008 0.835,0.32993 1.344,0.71452 0.815,0.61696 0.849,0.83921 0.287,1.88864 -0.524,0.97985 -0.526,1.32262 0,1.94554 0.535,0.64411 0.39,1.00217 -0.982,2.41672 -1.752,1.8067 -2.382,2.05557 -2.382,0.94046 z m 2.903,-6.69534 c -0.853,-1.02699 -1.582,-0.42525 -0.939,0.77515 0.372,0.69499 0.676,0.83292 1.038,0.47128 0.361,-0.36164 0.332,-0.72642 -0.1,-1.24643 z m 19.189,6.62877 c 0,-0.35944 0.309,-0.65353 0.686,-0.65353 0.377,0 1.036,-0.34977 1.464,-0.77726 0.978,-0.97823 1.452,-0.56926 0.785,0.6774 -0.608,1.13562 -2.935,1.73295 -2.935,0.75339 z m 57.631,0.30661 c 0,-0.26404 0.229,-0.48007 0.509,-0.48007 0.279,0 0.375,0.21603 0.212,0.48007 -0.164,0.26404 -0.393,0.48007 -0.509,0.48007 -0.117,0 -0.212,-0.21603 -0.212,-0.48007 z m -134.569,-1.53622 c 0.448,-0.44807 0.705,-0.44807 1.153,0 0.448,0.44806 0.32,0.57608 -0.577,0.57608 -0.896,0 -1.024,-0.12802 -0.576,-0.57608 z m 112.317,-0.70411 c -0.176,-0.17602 -0.32,-0.54328 -0.32,-0.81612 0,-0.30081 0.224,-0.27247 0.568,0.072 0.313,0.31244 0.457,0.67969 0.32,0.81611 -0.136,0.13642 -0.392,0.10402 -0.568,-0.072 z m 12.298,-3.05081 c -0.04,-0.53379 0.122,-0.8502 0.36,-0.70315 0.238,0.14705 0.89,-0.62905 1.449,-1.72468 0.559,-1.09562 1.414,-2.09596 1.9,-2.22298 0.486,-0.12702 1.144,-0.85846 1.461,-1.62544 0.409,-0.98656 0.912,-1.39449 1.721,-1.39449 0.628,0 1.119,-0.16203 1.09,-0.36005 -0.101,-0.70329 0.651,-2.52037 1.043,-2.52037 0.22,0 0.364,0.86413 0.322,1.92028 -0.04,1.05615 -0.258,1.92028 -0.481,1.92028 -0.344,0 -4.393,4.06012 -6.822,6.84099 -0.982,1.12502 -1.953,1.06307 -2.043,-0.13039 z m -125.387,-0.1283 c -1.721,-0.34004 -2.013,-0.57227 -2.013,-1.59705 0,-1.13194 0.06,-1.15854 1.034,-0.47464 0.739,0.51702 1.286,0.59037 1.911,0.25614 0.683,-0.36568 0.817,-0.31574 0.608,0.22784 -0.195,0.50735 0,0.62775 0.698,0.44388 0.639,-0.16711 0.867,-0.50766 0.675,-1.00846 -0.219,-0.56937 -0.08,-0.67627 0.553,-0.43277 0.463,0.17786 1.815,0.32338 3.005,0.32338 3.096,0 2.441,0.92355 -1.329,1.8722 -2.215,0.55728 -3.718,0.6711 -5.142,0.38948 z m 14.536,-2.29289 c -0.318,-0.51427 0.371,-0.89805 1.354,-0.75391 1.353,0.19845 1.411,0.65338 0.115,0.90095 -0.678,0.12951 -1.339,0.0634 -1.469,-0.14704 z m 26.334,-1.83288 c -1.115,-1.95222 -1.029,-2.45653 0.42,-2.45653 0.484,0 0.894,-0.054 0.91,-0.12002 0.02,-0.066 0.139,-1.09216 0.273,-2.28033 0.271,-2.41595 0.939,-3.47924 1.412,-2.24715 0.267,0.69751 0.09,1.96084 -1.073,7.64793 -0.359,1.75431 -0.681,1.66415 -1.942,-0.5439 z m 76.371,0.5439 c -0.192,-0.7261 -0.295,-1.59023 -0.228,-1.92028 0.213,-1.06169 -0.794,-0.64211 -2.284,0.95104 -1.044,1.11707 -1.596,1.40505 -1.972,1.02915 -0.696,-0.69512 2.498,-4.02048 3.861,-4.02048 1.098,0 1.253,0.31655 1.589,3.24047 0.26,2.27038 -0.422,2.77894 -0.966,0.7201 z m -104.847,-1.05182 c 0,-1.21035 0.824,-1.69982 1.674,-0.9947 0.874,0.72544 0.398,1.9265 -0.764,1.9265 -0.58,0 -0.91,-0.3376 -0.91,-0.9318 z m 82.125,-0.26837 c 0.477,-0.57451 0.477,-0.8657 0,-1.44021 -0.418,-0.50339 -0.434,-0.7201 -0.06,-0.7201 0.403,0 0.402,-0.22657 0,-0.87556 -0.428,-0.68583 -0.358,-1.27304 0.324,-2.7098 l 0.871,-1.83424 -1.288,-1.10773 c -1.361,-1.16958 -1.6,-1.86512 -0.809,-2.35342 0.696,-0.43028 2.849,2.20643 2.867,3.51152 0,0.61145 -0.219,1.54918 -0.505,2.08386 -0.382,0.71204 -0.364,1.35159 0.07,2.39042 0.697,1.68342 -0.01,3.77537 -1.276,3.77537 -0.648,0 -0.682,-0.12968 -0.192,-0.72011 z m -10.806,-0.7201 c -0.478,-0.52808 -0.671,-0.96014 -0.43,-0.96014 0.242,0 0.709,0.43206 1.039,0.96014 0.33,0.52807 0.524,0.96014 0.43,0.96014 -0.09,0 -0.561,-0.43207 -1.039,-0.96014 z m -5.415,-0.61489 c -0.697,-0.74869 -0.915,-1.45776 -0.734,-2.38555 0.3,-1.53557 1.385,-1.75203 1.825,-0.36417 1.05,3.30437 0.564,4.52735 -1.091,2.74972 z m -52.831,-0.94534 c -0.758,-0.92392 -0.911,-3.36797 -0.226,-3.59864 0.566,-0.19005 0.66,0.0208 0.806,1.79838 0.04,0.50707 0.518,0.68406 1.608,0.59826 1.821,-0.14326 2.189,1.03838 0.468,1.49951 -1.594,0.42693 -2.109,0.36922 -2.656,-0.29751 z m 40.441,0.0633 c -0.335,-0.54184 2.144,-5.69911 2.741,-5.70241 0.638,-0.004 0.125,2.83431 -0.671,3.71335 -0.459,0.50668 -0.834,1.16151 -0.834,1.45519 0,0.80003 -0.845,1.16525 -1.236,0.53387 z m -37.755,-2.19147 c 0.347,-0.13868 0.761,-0.12163 0.921,0.0379 0.159,0.15952 -0.125,0.27298 -0.631,0.25214 -0.559,-0.023 -0.673,-0.13679 -0.29,-0.29004 z m 1.771,-0.15213 c -0.163,-0.26404 0.05,-0.48007 0.48,-0.48007 0.428,0 0.644,0.21603 0.481,0.48007 -0.164,0.26404 -0.38,0.48007 -0.481,0.48007 -0.101,0 -0.317,-0.21603 -0.48,-0.48007 z m 87.968,0.16002 c -0.176,-0.17602 -0.321,-0.54328 -0.321,-0.81612 0,-0.30081 0.224,-0.27247 0.569,0.072 0.312,0.31245 0.456,0.6797 0.32,0.81612 -0.137,0.13642 -0.392,0.10402 -0.568,-0.072 z m -114.38,-3.52428 c 0.134,-0.21686 -0.03,-0.5037 -0.36,-0.63743 -0.364,-0.14668 -0.269,-0.25817 0.238,-0.28104 0.507,-0.0229 0.84,-0.4181 0.84,-0.99804 0,-0.68581 0.32,-0.96014 1.121,-0.96014 0.616,0 1.252,0.13131 1.412,0.2918 0.526,0.52562 -0.761,2.02114 -1.497,1.73903 -0.427,-0.16389 -0.587,-0.0703 -0.4,0.23336 0.173,0.27889 -0.116,0.6195 -0.642,0.75692 -0.526,0.13741 -0.846,0.0724 -0.712,-0.14446 z m 103.014,-0.38028 c 0,-0.47527 0.197,-1.06936 0.438,-1.3202 0.242,-0.25083 0.512,-0.99614 0.601,-1.65624 0.124,-0.92456 -0.08,-1.23387 -0.869,-1.34691 -1.285,-0.18324 -1.926,-2.49364 -0.691,-2.49364 1.365,0 2.922,1.43136 2.922,2.68673 0,1.12987 -1.68,4.99438 -2.171,4.99438 -0.127,0 -0.23,-0.38885 -0.23,-0.86412 z m -93.34,-2.7239 c -0.307,-0.79999 0.885,-1.90018 1.589,-1.46571 0.737,0.45556 0.615,0.91097 -0.417,1.55517 -0.732,0.45699 -0.969,0.43888 -1.172,-0.0895 z m 101.024,-1.34069 c 0,-0.36562 -0.54,-1.17134 -1.199,-1.79049 -1.375,-1.29157 -1.225,-1.63956 0.751,-1.73893 1.324,-0.0666 1.408,0.0388 1.408,1.765 0,1.00967 -0.216,1.96929 -0.48,2.13247 -0.264,0.16318 -0.48,-0.002 -0.48,-0.36805 z m -96.046,-0.71211 c 0,-0.86412 3.079,-3.17287 3.871,-2.90842 0.57,0.19051 -2.58,3.74855 -3.32,3.74855 -0.306,0 -0.555,-0.37806 -0.551,-0.84013 z m 36.974,-0.14835 c 0,-0.27962 0.216,-0.37488 0.48,-0.2117 0.264,0.16319 0.48,0.39197 0.48,0.5084 0,0.11644 -0.216,0.21171 -0.48,0.21171 -0.264,0 -0.48,-0.22879 -0.48,-0.50841 z m -48.987,-1.73789 c 0,-0.0661 0.432,-0.3515 0.961,-0.63412 0.735,-0.39331 0.96,-0.36509 0.96,0.12027 0,0.34877 -0.432,0.63412 -0.96,0.63412 -0.529,0 -0.961,-0.0541 -0.961,-0.12027 z m -9.969,-1.60275 c 0.8,-1.27909 2.004,-1.74117 1.349,-0.51726 -0.263,0.49107 -0.805,1.0183 -1.205,1.17161 -0.609,0.23353 -0.632,0.12737 -0.144,-0.65435 z m 52.305,-0.11153 c 0.174,-0.90458 -0.554,-2.7604 -1.083,-2.7604 -0.283,0 -0.264,-0.37527 0.05,-0.96014 0.726,-1.35461 1.265,-1.19582 1.875,0.55171 0.759,2.17655 0.668,3.76892 -0.215,3.76892 -0.407,0 -0.689,-0.27004 -0.626,-0.60009 z m -57.104,-0.22225 c -0.594,-0.11252 -1.08,-0.3721 -1.08,-0.57686 0,-0.66234 1.645,-1.87771 3,-2.2156 l 1.319,-0.32912 -0.671,1.59605 c -0.724,1.7198 -0.921,1.83723 -2.568,1.52553 z m 18.61,-0.37377 c 0,-0.39382 0.432,-0.98586 0.961,-1.31565 0.528,-0.32979 0.96,-0.95452 0.96,-1.38829 0,-0.73291 1.845,-1.61703 2.341,-1.12164 0.121,0.12154 -0.03,0.22099 -0.325,0.22099 -0.299,0 -0.425,0.31291 -0.278,0.69536 0.154,0.40034 -0.369,1.31689 -1.232,2.16031 -1.646,1.60811 -2.427,1.84912 -2.427,0.74892 z m 122.306,0.39599 c -0.176,-0.17602 -0.32,-0.84212 -0.32,-1.48021 0,-1.57852 1.157,-1.13628 1.353,0.51709 0.144,1.21709 -0.333,1.66224 -1.033,0.96312 z m -67.242,-2.6208 c -1.416,-2.16205 -1.653,-3.78013 -0.554,-3.78013 0.396,0 0.72,0.40561 0.72,0.90136 0,0.49575 0.3,1.15044 0.667,1.45487 0.755,0.62635 1.304,2.83739 0.783,3.15868 -0.188,0.11618 -0.915,-0.66448 -1.616,-1.73478 z m 55.396,-0.33852 c 0,-0.48925 0.586,-1.15268 1.321,-1.49622 0.726,-0.33946 1.645,-0.77594 2.041,-0.96996 0.396,-0.19402 1.152,-0.19588 1.681,-0.004 0.877,0.31847 0.826,0.42648 -0.598,1.2489 -0.856,0.49514 -1.559,1.05551 -1.56,1.24525 0,0.18974 -0.306,0.22902 -0.675,0.0873 -0.37,-0.14173 -0.815,-0.0269 -0.989,0.2551 -0.502,0.81233 -1.221,0.59676 -1.221,-0.36622 z m -84.809,-0.38296 c 0.165,-0.43006 0.543,-1.74464 0.839,-2.92131 0.485,-1.92382 1.485,-3.05836 2.128,-2.41501 0.133,0.13272 -0.186,1.18555 -0.708,2.33964 -0.523,1.15409 -1.066,2.4764 -1.208,2.93847 -0.141,0.46207 -0.503,0.84012 -0.804,0.84012 -0.308,0 -0.416,-0.3416 -0.247,-0.78191 z m 20.934,0.32201 c 0,-0.3382 -0.369,-0.44778 -0.92,-0.27303 -0.506,0.16056 -1.059,0.0671 -1.229,-0.20768 -0.192,-0.31055 0.342,-0.4996 1.411,-0.4996 2.114,0 3.011,-1.41258 2.22,-3.49411 -0.414,-1.08793 -0.786,-1.30658 -2.225,-1.30658 -1.355,0 -1.695,-0.17285 -1.573,-0.79999 0.09,-0.44512 0.715,-0.87476 1.416,-0.96856 1.899,-0.25381 4.262,2.13386 4.262,4.30551 0,1.32005 0.223,1.72994 1.06,1.94866 1.125,0.29413 0.897,0.85845 -0.473,1.17212 -2.652,0.60685 -3.949,0.64733 -3.949,0.12326 z m -60.307,-1.40661 c 0,-0.52783 0.644,-1.25293 1.542,-1.73617 0.939,-0.50542 1.442,-1.08785 1.288,-1.48993 -0.141,-0.3675 0.141,-0.80835 0.637,-0.99448 0.489,-0.18389 1.176,-0.67178 1.526,-1.0842 0.406,-0.47821 0.509,-0.5056 0.286,-0.0756 -0.23,0.4433 -0.16,0.55693 0.205,0.33172 0.623,-0.38492 0.744,-1.53983 0.194,-1.84743 -0.198,-0.11075 -0.07,-0.12786 0.284,-0.038 0.355,0.0898 0.758,-0.26962 0.897,-0.79878 0.371,-1.41722 1.106,-1.17013 1.065,0.35807 -0.05,1.72784 -1.431,4.07773 -2.755,4.6745 -0.579,0.26064 -1.052,0.74232 -1.052,1.0704 0,0.32808 -0.856,1.03296 -1.902,1.56641 -2.31,1.17811 -2.215,1.17536 -2.215,0.0635 z m 81.76,-1.21671 c -0.144,-0.37557 -0.745,-0.75363 -1.335,-0.84012 -1.519,-0.22275 -1.683,-1.26497 -0.256,-1.62308 0.66,-0.16559 1.317,-0.60562 1.46,-0.97784 0.293,-0.76365 2.691,-0.93894 2.691,-0.19671 0,0.26403 -0.27,0.50498 -0.6,0.53544 -0.33,0.0305 -0.816,0.10557 -1.08,0.16691 -0.265,0.0614 -0.66,0.14445 -0.88,0.18466 -0.22,0.0402 0.07,0.82923 0.639,1.75337 0.823,1.33123 0.892,1.68024 0.331,1.68024 -0.389,0 -0.826,-0.30729 -0.97,-0.68287 z m -54.885,-2.31756 c 0.141,-1.68456 1.193,-4.20061 1.756,-4.20061 0.522,0 0.469,3.88533 -0.07,4.88627 -0.798,1.49105 -1.837,1.06954 -1.689,-0.68566 z m 43.518,0.60008 c -0.616,-0.3977 -0.598,-0.46643 0.12,-0.47271 0.462,-0.004 0.84,0.20868 0.84,0.47271 0,0.5855 -0.05,0.5855 -0.96,0 z m -5.763,-0.74843 c 0,-0.41164 0.216,-0.61492 0.48,-0.45174 0.264,0.16318 0.48,0.49998 0.48,0.74844 0,0.24845 -0.216,0.45173 -0.48,0.45173 -0.264,0 -0.48,-0.33679 -0.48,-0.74843 z m -73.478,-0.21054 c -0.424,-0.26206 -0.437,-0.45268 -0.05,-0.69443 0.296,-0.18327 0.403,-0.55249 0.238,-0.82049 -0.18,-0.29083 0.153,-0.42261 0.827,-0.32688 1.407,0.19989 1.768,1.62712 0.495,1.95976 -0.512,0.13379 -1.194,0.0807 -1.515,-0.11796 z m 24.251,-1.92144 c 0.163,-0.26404 0.5,-0.48007 0.749,-0.48007 0.248,0 0.452,0.21603 0.452,0.48007 0,0.26403 -0.337,0.48007 -0.749,0.48007 -0.412,0 -0.615,-0.21604 -0.452,-0.48007 z m 108.373,-0.64063 c -1.093,-1.16306 -1.359,-2.23979 -0.554,-2.23979 0.264,0 0.48,0.19292 0.48,0.42871 0,0.61772 1.312,1.03067 2.197,0.69133 0.52,-0.19959 0.667,-0.64401 0.471,-1.42514 -0.198,-0.78782 -0.08,-1.13511 0.386,-1.13511 0.874,0 1.913,3.82793 1.105,4.07207 -2.405,0.72645 -3.096,0.66011 -4.085,-0.39207 z m -127.955,-0.0399 c -0.456,-0.45552 -0.829,-1.23211 -0.829,-1.72574 0,-0.49363 -0.22,-1.03321 -0.488,-1.19906 -0.714,-0.44085 -0.08,-1.19533 0.997,-1.19533 1.074,0 1.117,-0.16039 0.425,-1.59179 -0.46,-0.95204 -0.444,-0.97124 0.173,-0.20847 0.795,0.98195 1.345,1.09452 1.174,0.24003 -0.07,-0.33004 0.312,-0.60008 0.841,-0.60008 0.528,0 1.216,-0.32405 1.528,-0.72011 0.474,-0.60043 0.673,-0.61354 1.201,-0.0788 0.525,0.53214 0.288,0.94058 -1.392,2.40034 -1.439,1.25058 -2.137,2.30086 -2.413,3.63319 -0.368,1.7746 -0.433,1.83012 -1.217,1.04586 z m 105.47,-0.0718 c -0.159,-0.4138 -0.04,-0.99709 0.255,-1.29619 0.99,-0.98988 0.634,-2.74154 -0.657,-3.2322 -1.264,-0.48063 -1.618,-1.69065 -0.6,-2.05544 1.679,-0.60162 4.044,2.56041 3.133,4.18792 -0.393,0.70119 -0.321,1.03761 0.321,1.5073 0.773,0.56491 0.764,0.63868 -0.141,1.12281 -1.335,0.71403 -1.972,0.64945 -2.311,-0.2342 z m -42.905,-0.68783 c 0,-0.26404 0.217,-0.48007 0.481,-0.48007 0.264,0 0.48,0.21603 0.48,0.48007 0,0.26404 -0.216,0.48007 -0.48,0.48007 -0.264,0 -0.481,-0.21603 -0.481,-0.48007 z m 32.494,-5.54525 c 0.291,-0.75934 1.125,-0.95711 1.125,-0.26695 0,0.23579 -0.314,0.54883 -0.696,0.69566 -0.465,0.17842 -0.608,0.0363 -0.429,-0.42871 z m -70.674,-5.49635 c -0.164,-0.26404 -0.07,-0.48007 0.211,-0.48007 0.28,0 0.509,0.21603 0.509,0.48007 0,0.26403 -0.09,0.48007 -0.212,0.48007 -0.116,0 -0.345,-0.21604 -0.508,-0.48007 z m -22.607,-8.70596 c 0,-0.63758 0.19,-0.71743 0.858,-0.36031 0.471,0.25234 0.857,0.62093 0.857,0.8191 0,0.19817 -0.386,0.36031 -0.857,0.36031 -0.488,0 -0.858,-0.35281 -0.858,-0.8191 z m -3.281,-4.18092 c -0.166,-0.2688 -0.07,-0.63331 0.218,-0.81001 0.738,-0.45617 1.215,0.16867 0.598,0.78484 -0.345,0.34477 -0.613,0.35306 -0.816,0.0252 z m 137.788,112.74136 c 0.164,-0.26404 0.07,-0.48007 -0.211,-0.48007 -0.28,0 -0.509,0.21603 -0.509,0.48007 0,0.26404 0.09,0.48007 0.212,0.48007 0.116,0 0.345,-0.21603 0.508,-0.48007 z m 16.775,-0.7544 c 0.983,-0.98205 1.06,-2.49666 0.09,-1.689 -0.601,0.49849 -1.398,2.4434 -1.001,2.4434 0.09,0 0.5,-0.33948 0.915,-0.7544 z m -124.113,-2.57776 c 0,-0.56641 -0.937,-1.17232 -1.281,-0.82844 -0.344,0.34388 0.263,1.28018 0.829,1.28018 0.249,0 0.452,-0.20328 0.452,-0.45174 z m 108.059,-0.79979 c 0,-0.10377 -0.445,-0.18868 -0.989,-0.18868 -0.544,0 -0.861,0.2066 -0.705,0.45911 0.256,0.41449 1.694,0.18497 1.694,-0.27043 z m 17.049,-0.18868 c 0.163,-0.26404 0.07,-0.48007 -0.212,-0.48007 -0.28,0 -0.508,0.21603 -0.508,0.48007 0,0.26404 0.1,0.48007 0.211,0.48007 0.117,0 0.346,-0.21603 0.509,-0.48007 z m -17.65,-8.76127 c -0.11,-0.33005 -0.38,-0.60008 -0.6,-0.60008 -0.22,0 -0.49,0.27003 -0.6,0.60008 -0.11,0.33005 0.16,0.60009 0.6,0.60009 0.44,0 0.71,-0.27004 0.6,-0.60009 z m 1.268,-5.43566 c 0.202,-0.52648 0.05,-0.7081 -0.509,-0.60008 -0.44,0.0852 -0.889,0.42493 -0.999,0.75498 -0.294,0.88268 1.167,0.73258 1.508,-0.1549 z m 23.543,-26.16575 c 1.06,-1.25953 1.244,-1.93939 1.244,-4.61665 0,-2.78583 -0.1,-3.11417 -0.864,-2.91386 -1.066,0.27855 -1.355,-1.47016 -0.309,-1.87115 0.381,-0.14609 0.692,-0.45176 0.692,-0.67926 0,-0.22751 -0.27,-0.30987 -0.6,-0.18304 -0.447,0.17162 -0.582,-0.57134 -0.528,-2.90455 0.04,-1.72434 0.205,-3.48251 0.368,-3.90705 0.163,-0.42453 0.05,-1.07349 -0.26,-1.44212 -0.442,-0.53299 -0.403,-0.61123 0.195,-0.38207 0.533,0.20454 0.714,0.0336 0.622,-0.5891 -0.07,-0.4825 -0.367,-0.87728 -0.659,-0.87728 -1.248,0 -1.521,-0.965 -2.173,-7.68111 -0.05,-0.52808 -0.266,-1.22937 -0.477,-1.55842 -0.211,-0.32906 -0.474,-1.06332 -0.583,-1.63171 -0.182,-0.94222 -1.751,-2.81074 -2.361,-2.81074 -0.139,0 0.168,1.06932 0.684,2.37628 0.515,1.30695 1.171,4.2615 1.457,6.56566 0.287,2.30416 0.657,4.40961 0.824,4.67877 0.276,0.447 0.234,12.21194 -0.06,17.72582 -0.07,1.26627 0.05,2.40735 0.254,2.53574 0.208,0.12838 0.256,0.55055 0.107,0.93815 -0.489,1.27517 1.145,0.75607 2.431,-0.77231 z m -2.118,-0.90641 c 0,-0.25475 0.432,-0.69442 0.96,-0.97703 1.058,-0.56591 1.291,-0.042 0.384,0.86412 -0.694,0.6941 -1.344,0.7487 -1.344,0.11291 z m 1.6,-2.97493 c 0.149,-0.57076 0.06,-1.43489 -0.201,-1.92028 -0.564,-1.05293 -0.16,-1.15223 0.797,-0.19587 0.514,0.51367 0.569,0.99742 0.218,1.92028 -0.569,1.49609 -1.194,1.64633 -0.814,0.19587 z m 0.561,-17.68496 c -0.163,-0.26404 -0.5,-0.48007 -0.749,-0.48007 -0.248,0 -0.452,0.21603 -0.452,0.48007 0,0.26404 0.337,0.48007 0.749,0.48007 0.412,0 0.615,-0.21603 0.452,-0.48007 z m -184.662,-11.56614 c 1.903,-0.40796 2.333,-0.66119 1.936,-1.13933 -0.895,-1.07884 0.07,-2.46731 1.548,-2.23354 0.198,0.0313 0.36,-0.37521 0.36,-0.90329 0,-1.1249 -0.735,-1.28041 -1.134,-0.24003 -0.152,0.39606 -0.709,0.7201 -1.237,0.7201 -0.715,0 -0.88,-0.21509 -0.646,-0.84012 0.263,-0.70172 0.195,-0.74277 -0.413,-0.24915 -0.459,0.37227 -0.652,1.11153 -0.522,1.9976 0.242,1.65298 -1.184,2.71367 -3.027,2.25118 -0.62,-0.15544 -1.251,-0.0821 -1.402,0.16288 -0.235,0.38026 0.392,0.71719 1.754,0.94255 0.185,0.0306 1.437,-0.18035 2.783,-0.46885 z m 9.853,-2.44201 c 0,-0.44343 0.166,-0.96551 0.36,-1.16017 1.011,-1.01016 0.218,-1.21281 -1.927,-0.49228 -1.273,0.42769 -1.457,1.29847 -0.24,1.13283 0.462,-0.0629 0.841,0.10168 0.841,0.36572 0,0.26403 -0.379,0.4286 -0.841,0.36571 -0.462,-0.0629 -0.84,0.11347 -0.84,0.39194 0,0.27846 0.594,0.43794 1.32,0.35439 0.853,-0.0981 1.323,-0.43745 1.327,-0.95814 z m 169.886,-0.23181 c -0.33,-0.13318 -0.87,-0.13318 -1.2,0 -0.331,0.13318 -0.06,0.24214 0.6,0.24214 0.66,0 0.93,-0.10896 0.6,-0.24214 z m -174.18,-2.07555 c 0,-0.56379 -0.176,-0.77703 -0.431,-0.5219 -0.238,0.23726 -0.287,0.66624 -0.109,0.95328 0.451,0.73037 0.54,0.65945 0.54,-0.43138 z m -12.281,-2.16717 c -0.478,-0.57626 -0.497,-0.8956 -0.08,-1.31653 0.841,-0.83979 0.671,-1.32385 -0.463,-1.32385 -0.798,0 -0.903,0.13971 -0.484,0.64425 0.294,0.35435 0.398,0.78119 0.23,0.94854 -0.167,0.16736 -0.03,0.6385 0.312,1.04698 0.52,0.62559 0.493,0.69501 -0.171,0.44031 -0.434,-0.16632 -0.789,-0.0812 -0.789,0.18904 0,0.66809 1.099,1.02507 1.637,0.53177 0.257,-0.23581 0.177,-0.71168 -0.196,-1.16051 z m 3.362,-0.35018 c 0,-0.28099 -0.305,-0.23433 -0.72,0.11014 -0.397,0.3287 -0.721,0.67242 -0.721,0.76382 0,0.0914 0.324,0.0418 0.721,-0.11014 0.396,-0.15198 0.72,-0.4957 0.72,-0.76382 z m 10.806,0.59021 c -0.163,-0.26403 -0.122,-0.4805 0.09,-0.48103 0.213,-5.3e-4 0.431,-0.81064 0.482,-1.80026 0.09,-1.68911 0.06,-1.7258 -0.434,-0.59912 -0.291,0.66009 -0.49,1.45392 -0.442,1.76406 0.05,0.31013 -0.168,0.72157 -0.48,0.91429 -0.356,0.21992 -0.44,0.144 -0.225,-0.20383 0.201,-0.32486 0.05,-0.55425 -0.377,-0.55425 -0.396,0 -0.875,-0.24941 -1.063,-0.55424 -0.213,-0.34339 -0.132,-0.42393 0.211,-0.2117 0.305,0.1884 0.555,0.0886 0.555,-0.22185 0,-0.32817 -0.402,-0.45924 -0.961,-0.31314 -0.529,0.13819 -0.854,0.078 -0.723,-0.13374 0.131,-0.21175 -0.08,-0.50887 -0.48,-0.66027 -0.489,-0.18748 -0.718,0.0299 -0.718,0.68169 0,0.57902 0.475,1.13716 1.201,1.41325 0.66,0.25097 1.201,0.67769 1.201,0.94826 0,0.27058 0.553,0.49195 1.229,0.49195 0.697,0 1.1,-0.20779 0.932,-0.48007 z m -16.844,-1.23446 c 1.003,-1.00172 0.963,-1.07251 -0.446,-0.80331 -0.66,0.12618 -1.2,0.52829 -1.2,0.89357 0,0.88071 0.714,0.84155 1.646,-0.0903 z m 9.16,-0.69492 c 0.893,-0.14426 1.973,-0.92061 1.302,-0.93644 -0.395,-0.009 -0.253,-0.40652 0.391,-1.09475 0.937,-1.00202 1.045,-1.01939 1.483,-0.24004 0.609,1.08025 1.231,1.06651 1.824,-0.0402 0.415,-0.77507 0.287,-0.86889 -1.064,-0.78452 -2.913,0.18187 -3.972,0.81529 -3.759,2.24768 0.03,0.18852 -0.257,0.22465 -0.633,0.0803 -0.376,-0.14436 -0.575,-0.5468 -0.442,-0.8943 0.354,-0.9207 -0.598,-1.32592 -1.349,-0.57475 -0.354,0.35369 -0.937,0.54538 -1.295,0.42597 -0.787,-0.26216 -1.508,0.76334 -1.165,1.65664 0.368,0.95946 1.117,0.77866 0.813,-0.1965 -0.244,-0.78406 -0.226,-0.78539 0.268,-0.0199 0.291,0.45111 0.85,0.69709 1.243,0.54664 0.531,-0.20389 0.629,-0.046 0.386,0.62003 -0.309,0.84299 -0.275,0.84795 0.595,0.0877 0.507,-0.44325 1.138,-0.8408 1.402,-0.88344 z m 6.963,-1.67114 c 0.499,-0.60052 0.434,-0.7201 -0.393,-0.7201 -1.051,0 -1.706,0.62129 -1.194,1.13321 0.484,0.48372 0.942,0.36448 1.587,-0.41311 z m 6.141,-1.64716 c 0.428,-0.10346 -0.991,-1.94689 -1.475,-1.91546 -0.44,0.0286 -0.436,0.0975 0.02,0.28004 0.33,0.13318 0.6,0.45292 0.6,0.71054 0,0.25761 -0.162,0.3703 -0.36,0.25041 -0.198,-0.11988 -0.624,0.068 -0.947,0.41761 -0.479,0.51756 -0.345,0.60349 0.72,0.46276 0.719,-0.0951 1.369,-0.18771 1.445,-0.2059 z m -13.605,-0.96005 c 0.152,-0.24579 0.09,-0.56034 -0.132,-0.69899 -0.224,-0.13864 -0.408,0.0625 -0.408,0.4469 0,0.80948 0.152,0.88021 0.54,0.25209 z m 11.307,0.25823 c 0,-0.10377 -0.336,-0.31733 -0.746,-0.47457 -0.427,-0.16395 -0.62,-0.0835 -0.452,0.18867 0.282,0.45616 1.198,0.67471 1.198,0.2859 z m -16.827,-1.44494 c 0.241,-0.63445 0.665,-1.29376 0.943,-1.46514 0.316,-0.1956 0.385,-0.002 0.185,0.5195 -0.284,0.74042 -0.184,0.73004 0.92,-0.0951 1.334,-0.99667 2.86,-3.01443 1.773,-2.34246 -0.37,0.2285 -0.467,0.16552 -0.26,-0.16884 0.181,-0.2933 0.647,-0.41158 1.034,-0.26284 0.388,0.14873 0.705,0.0493 0.705,-0.221 0,-0.27028 -0.24,-0.57133 -0.533,-0.669 -0.331,-0.11049 -0.236,-0.42326 0.251,-0.82801 0.677,-0.56115 0.743,-0.54227 0.482,0.13757 -0.404,1.05373 0.581,1.0112 1.208,-0.0521 0.435,-0.73642 0.562,-0.75124 1.03,-0.12002 0.456,0.61489 0.496,0.59938 0.269,-0.10612 -0.145,-0.45443 0.05,-1.1411 0.435,-1.52594 0.385,-0.38483 0.7,-0.86636 0.7,-1.07004 0,-0.20369 -0.254,-0.11624 -0.565,0.19432 -0.412,0.41234 -0.736,0.42238 -1.2,0.0372 -0.397,-0.32913 -0.636,-0.34589 -0.636,-0.0446 0,0.26558 -0.408,0.58943 -0.906,0.71967 -0.843,0.22035 -2.017,1.8637 -2.74,3.83575 -0.169,0.46207 -0.689,0.84012 -1.156,0.84012 -0.73,0 -3.362,2.79295 -3.362,3.56849 0,0.76593 1.042,0.12053 1.423,-0.88147 z m 11.918,-0.33216 c 0.124,-1.0633 0.08,-1.08819 -0.533,-0.31456 -0.367,0.46206 -0.914,0.84012 -1.215,0.84012 -0.301,0 -0.547,0.21468 -0.547,0.47706 0,0.26238 0.486,0.40393 1.08,0.31456 0.727,-0.10923 1.125,-0.541 1.215,-1.31718 z m -5.739,-0.95242 c 0.117,-0.37528 0.05,-0.52791 -0.156,-0.33917 -0.203,0.18874 -0.759,0.13414 -1.237,-0.12132 -0.898,-0.48055 -1.701,0.11378 -1.215,0.8996 0.397,0.64208 2.374,0.30917 2.608,-0.43911 z m 7.766,-0.73401 c 0,-0.39732 -0.933,-0.62201 -1.146,-0.2762 -0.139,0.22434 0.06,0.40789 0.447,0.40789 0.384,0 0.699,-0.0593 0.699,-0.13169 z m -5.283,-0.66843 c 0,-0.26404 -0.216,-0.48007 -0.48,-0.48007 -0.264,0 -0.48,0.21603 -0.48,0.48007 0,0.26404 0.216,0.48007 0.48,0.48007 0.264,0 0.48,-0.21603 0.48,-0.48007 z m 7.587,-1.5661 c 0.346,-0.72287 0.87,-1.31432 1.164,-1.31432 0.294,0 0.392,-0.14214 0.218,-0.31588 -0.174,-0.17373 -0.05,-0.6598 0.28,-1.08015 0.534,-0.68405 0.504,-0.69163 -0.284,-0.0722 -0.484,0.38066 -1.295,0.75871 -1.801,0.84012 -0.506,0.0814 -1.394,0.21902 -1.974,0.3058 -0.579,0.0868 -1.137,0.41098 -1.24,0.72043 -0.112,0.33374 0.106,0.44971 0.536,0.28505 0.445,-0.17067 0.941,0.1289 1.288,0.77771 0.382,0.7134 0.394,0.94959 0.04,0.72901 -0.29,-0.17947 -0.528,-0.0817 -0.528,0.2173 0,1.01869 1.671,0.22573 2.304,-1.0929 z m 30.888,-1.93241 c -0.392,-0.39205 -0.534,-0.33833 -0.534,0.20203 0,0.95431 0.645,1.59986 0.884,0.88413 0.101,-0.30364 -0.06,-0.79241 -0.35,-1.08616 z m -21.186,-4.66267 c 0,-0.26404 -0.216,-0.48007 -0.48,-0.48007 -0.264,0 -0.48,0.21603 -0.48,0.48007 0,0.26404 0.216,0.48007 0.48,0.48007 0.264,0 0.48,-0.21603 0.48,-0.48007 z m 130.151,87.34434 c 0,-0.27962 0.216,-0.37489 0.48,-0.2117 0.264,0.16318 0.481,0.39196 0.481,0.5084 0,0.11644 -0.217,0.2117 -0.481,0.2117 -0.264,0 -0.48,-0.22878 -0.48,-0.5084 z"
       id="path1" /></g></svg>
