<?xml version="1.0" encoding="UTF-8" standalone="no"?>
<!-- Created with Inkscape (http://www.inkscape.org/) -->

<svg
   width="231.38646"
   height="235.24007"
   viewBox="0 0 61.221 62.240601"
   version="1.1"
   id="svg1"
   xml:space="preserve"
   xmlns="http://www.w3.org/2000/svg"
   xmlns:svg="http://www.w3.org/2000/svg"><defs
     id="defs1" /><g
     id="g1812"
     transform="matrix(0.26458333,0,0,0.26458333,-4440.1686,-148.84046)"><path
       style="fill:#000000"
       d="m 16847.785,729.27413 c 0.523,-0.36876 -0.545,-0.44327 -3.856,-0.26908 -2.823,0.14849 -4.024,0.0889 -3.133,-0.15539 1.234,-0.3383 1.058,-0.39964 -1.205,-0.41929 -1.889,-0.0164 -2.374,0.0953 -1.687,0.38893 0.647,0.27658 -0.343,0.42303 -3.013,0.44565 -2.187,0.0185 -3.976,-0.14992 -3.976,-0.37432 0,-0.22441 -1.031,-0.41759 -2.29,-0.42929 -2.946,-0.0274 -8.88,-0.87483 -11.002,-1.57117 -1.379,-0.45265 -1.651,-0.7726 -1.651,-1.94273 0,-0.77046 0.217,-1.40084 0.482,-1.40084 0.866,0 0.507,-0.72049 -0.6,-1.20451 -1.266,-0.55402 -1.706,-2.09021 -0.773,-2.70134 0.523,-0.34243 0.479,-0.52561 -0.223,-0.93636 -0.527,-0.30873 -0.816,-0.94227 -0.729,-1.60226 0.08,-0.6004 -0.149,-1.44242 -0.506,-1.87117 -0.391,-0.46852 -0.504,-1.11665 -0.283,-1.62448 0.202,-0.46472 0.407,-1.51639 0.456,-2.33706 0.134,-2.27296 1.89,-4.29142 5.615,-6.45455 6.687,-3.88387 13.401,-5.30936 24.518,-5.20608 5.043,0.0468 17.494,0.98385 24.824,1.86808 5.598,0.67538 10.844,2.23697 11.642,3.46588 0.425,0.65355 0.46,0.89068 0.578,3.86426 0.04,1.1375 0.306,1.79751 0.71,1.79751 0.352,0 1.147,0.53712 1.767,1.1936 0.984,1.04106 1.055,1.35278 0.557,2.43918 -0.501,1.09341 -0.456,1.27544 0.369,1.48999 1.257,0.32678 1.61,1.39858 0.745,2.25884 -0.895,0.89022 -0.889,1.24645 0.02,1.24645 1.282,0 0.771,1.23895 -1.144,2.76907 -1.429,1.14247 -1.816,1.75328 -1.651,2.61012 0.279,1.45303 -0.861,2.41035 -4.084,3.42999 -3.953,1.25013 -8.618,1.63798 -20.355,1.69222 -7.785,0.036 -10.642,-0.0938 -10.123,-0.45985 z m 3.504,-0.2899 c -0.326,-0.13131 -0.977,-0.1393 -1.446,-0.0178 -0.469,0.12154 -0.202,0.22896 0.593,0.23873 0.796,0.01 1.179,-0.0897 0.853,-0.22096 z m 18.056,-0.45453 c -0.16,-0.15928 -0.575,-0.1763 -0.923,-0.0378 -0.385,0.15302 -0.271,0.2666 0.291,0.2896 0.508,0.0208 0.793,-0.0925 0.632,-0.25176 z m -2.279,-0.90924 c 9.29,-0.35052 12.602,-0.91113 13.461,-2.27802 0.551,-0.87754 0.505,-0.93822 -0.524,-0.68504 -4.205,1.0355 -9.835,1.37937 -24.747,1.51135 -9.278,0.0821 -18.497,-0.0301 -20.485,-0.24938 -6.629,-0.73106 -18.116,-1.09113 -17.594,-0.55147 1.067,1.10186 7.065,1.67381 23.378,2.22923 9.411,0.32044 17.437,0.52429 17.835,0.45301 0.397,-0.0713 4.302,-0.26464 8.676,-0.42968 z m 0.964,-2.66184 c 8.56,-0.50657 11.71,-0.97186 10.716,-1.58288 -0.333,-0.20477 -2.284,-0.11372 -4.335,0.20232 -2.052,0.31605 -10.779,0.83558 -19.396,1.15451 -13.71,0.50751 -14.913,0.6102 -9.64,0.82295 6.352,0.25625 9.752,0.16668 22.655,-0.5969 z m -30.498,-0.32383 c -1.001,-0.10376 -2.519,-0.10202 -3.375,0.004 -0.855,0.10589 -0.04,0.19079 1.819,0.18866 1.856,-0.002 2.556,-0.0888 1.556,-0.19253 z m -9.751,-0.61642 c -6.043,-0.54716 -6.671,-0.58189 -7.953,-0.43983 -1.73,0.19168 4.441,0.75872 8.435,0.77512 l 3.375,0.0139 z m 34.465,-0.74889 c 6.317,-0.21488 16.831,-1.37694 18.454,-2.03964 0.738,-0.30149 1.497,-0.52512 1.687,-0.49695 0.94,0.13968 1.576,-0.11096 1.322,-0.52071 -0.157,-0.25212 -0.604,-0.33689 -0.993,-0.18838 -0.389,0.14851 -0.708,0.0756 -0.708,-0.16211 0,-0.24827 -2.614,-0.18041 -6.145,0.1595 -18.192,1.7513 -35.305,1.86966 -50.604,0.35 -7.093,-0.70466 -9.287,-0.62352 -9.287,0.34356 0,0.86205 2.262,1.31408 9.446,1.88772 3.951,0.3155 8.702,0.74674 10.558,0.9583 2.965,0.33801 10.092,0.25898 26.27,-0.29129 z m 0,-3.07795 c 10.856,-0.67308 20.736,-1.80813 21.544,-2.4751 0.447,-0.36886 0.509,-0.7118 0.187,-1.0325 -0.323,-0.3207 -1.49,-0.22608 -3.516,0.28488 -1.667,0.4208 -4.659,0.88255 -6.647,1.02613 -1.988,0.14357 -7.086,0.60661 -11.327,1.02898 -4.242,0.42237 -10.641,0.93008 -14.22,1.12825 l -6.507,0.36031 6.266,0.0861 c 3.447,0.0473 9.845,-0.13582 14.22,-0.40703 z m -28.198,-0.99299 c -4.242,-0.48776 -9.733,-1.22182 -12.202,-1.63123 -2.948,-0.48864 -4.769,-0.58855 -5.303,-0.2908 -0.689,0.38488 -0.702,0.48558 -0.09,0.6648 2.102,0.61403 7.449,1.4241 10.845,1.6432 2.121,0.13679 3.947,0.32927 4.057,0.42773 0.111,0.0984 2.497,0.15519 5.303,0.12607 l 5.101,-0.0529 z m 25.547,-0.85953 c 18.573,-1.76677 21.272,-2.15371 22.456,-3.21939 1.268,-1.1406 1.197,-2.92568 -0.133,-3.34535 -0.753,-0.23763 -1.278,-0.0582 -1.837,0.62727 -1.482,1.82036 -4.042,2.67842 -10.605,3.55418 -10.258,1.36884 -21.216,1.97987 -30.367,1.69323 -4.64,-0.14533 -8.206,-0.16789 -7.926,-0.0502 0.281,0.11775 3.209,0.48246 6.507,0.81046 7.104,0.70631 13.972,0.68428 21.905,-0.0702 z m -34.224,-1.97277 c -2.386,-0.47751 -5.559,-1.29679 -7.052,-1.82063 -2.787,-0.97777 -4.898,-0.72813 -2.888,0.34148 1.607,0.85505 9.187,2.35726 11.868,2.35203 2.191,-0.004 2.016,-0.0837 -1.928,-0.87288 z m 40.49,-0.68767 c 8.248,-1.0154 12.983,-2.5257 13.037,-4.15813 0.01,-0.37194 0.283,-1.1474 0.602,-1.72324 0.842,-1.51939 0.725,-2.02363 -0.61,-2.6284 -1.279,-0.57983 -1.219,-1.5112 0.07,-1.02066 0.526,0.20105 0.701,0.0798 0.547,-0.38043 -0.38,-1.13845 -7.522,-3.18035 -14.125,-4.03878 -3.447,-0.44803 -10.889,-0.92795 -16.539,-1.0665 -15.305,-0.37527 -20.713,0.588 -28.379,5.05473 -3.154,1.83749 -5.453,4.05778 -5.453,5.26573 0,1.20966 4.998,3.17287 11.249,4.41893 7.43,1.48082 28.621,1.6289 39.604,0.27675 z m -33.5,-2.20347 c -4.746,-0.61547 -12.689,-1.95118 -13.098,-2.20252 -0.779,-0.47886 -0.383,-2.43249 0.686,-3.38145 4.04,-3.5885 16.9,-5.98674 32.174,-6.00056 7.142,-0.006 16.067,1.4932 20.711,3.48027 3.578,1.53064 3.927,2.1739 2.07,3.82375 -2.252,2.00034 -7.13,3.31901 -15.068,4.07267 -7.254,0.68872 -22.857,0.80676 -27.475,0.20784 z m 28.921,-1.17611 c 5.022,-0.75684 9.046,-1.83483 11.199,-3.00032 1.264,-0.68375 2.297,-1.38999 2.297,-1.56941 0,-1.47061 -17.718,-6.34153 -18.169,-4.99471 -0.08,0.24991 -3.846,0.40201 -8.703,0.3518 -9.381,-0.097 -14.266,0.48656 -20.607,2.46173 -4.623,1.44019 -6.989,2.80283 -6.989,4.02523 0,0.94304 0.673,1.13055 8.918,2.48359 7.225,1.18588 24.905,1.3194 32.054,0.24209 z m -29.411,-0.98445 c -0.497,-0.5953 -0.453,-0.89782 0.24,-1.65964 1.04,-1.14261 2.517,-1.63572 8.617,-2.8768 5.666,-1.1526 5.129,-1.12665 5.129,-0.24794 0,0.51743 -0.574,0.73492 -2.048,0.77577 -1.127,0.0312 -2.238,0.0224 -2.47,-0.0196 -0.231,-0.042 -1.858,0.38948 -3.615,0.95879 -3.344,1.0835 -5.147,2.28757 -4.038,2.69645 0.332,0.12217 0.603,0.41986 0.603,0.66153 0,0.7121 -1.758,0.50229 -2.418,-0.2886 z m 30.115,-0.34631 c -0.357,-0.92354 -1.969,-1.57045 -5.766,-2.31336 -1.59,-0.31125 -3.217,-0.6305 -3.615,-0.70946 -0.397,-0.079 -1.645,-0.16006 -2.771,-0.18023 -1.165,-0.0208 -2.049,-0.26754 -2.049,-0.57185 0,-1.20566 13.396,1.23738 14.922,2.72134 0.538,0.52294 0.57,0.81492 0.136,1.24592 -0.433,0.43099 -0.634,0.38591 -0.857,-0.19236 z m 36.742,12.08947 c -0.379,-0.99792 -0.778,-1.35973 -1.284,-1.16478 -2.16,0.83199 -3.292,0.78468 -3.59,-0.15008 -0.464,-1.45288 0.48,-3.37368 1.745,-3.55205 0.878,-0.1237 1.084,-0.41953 0.983,-1.40947 -0.167,-1.6192 0.389,-2.00051 4.466,-3.06381 1.856,-0.48402 4.459,-1.38035 5.784,-1.99183 1.326,-0.61149 2.692,-1.1139 3.036,-1.11648 0.344,-0.003 1.537,-0.44754 2.651,-0.98883 1.114,-0.54128 3.598,-1.63991 5.52,-2.44141 2.632,-1.09754 3.495,-1.68658 3.495,-2.38625 0,-0.51094 0.379,-1.04474 0.843,-1.18622 0.464,-0.14147 2.832,-1.267 5.263,-2.50117 4.458,-2.26418 6.445,-2.41496 3.775,-0.28661 -1.643,1.30999 -1.336,1.49773 0.72,0.44051 1.354,-0.69632 2.331,-0.31434 1.719,0.67165 -0.154,0.24663 0.565,0.32233 1.666,0.17549 1.575,-0.21006 2.103,-0.0674 2.829,0.7646 0.49,0.56257 1.15,1.02285 1.466,1.02285 0.316,0 0.452,0.19728 0.302,0.4384 -0.15,0.24112 -0.08,0.51074 0.149,0.59917 0.232,0.0884 0.565,0.62093 0.741,1.18335 0.258,0.82846 -0.03,1.22683 -1.503,2.09855 -2.549,1.50482 -6.342,2.7426 -11.785,3.84562 -4.015,0.81371 -6.132,1.67642 -15.283,6.22791 -5.842,2.90585 -10.753,5.49376 -10.913,5.75091 -0.637,1.02544 -2.248,0.46061 -2.795,-0.98002 z m 8.586,-3.33066 c 6.483,-2.9926 14.836,-7.25097 15.735,-8.02084 0.447,-0.3831 2.173,-0.75821 3.962,-0.86125 4.035,-0.23237 8.983,-1.58789 8.983,-2.46061 0,-0.8559 -1.623,-0.837 -3.326,0.0387 -0.743,0.38201 -3.338,1.01263 -5.766,1.40139 -3.823,0.61181 -5.93,1.39741 -15.677,5.84409 -9.974,4.54979 -11.261,5.26445 -11.261,6.2494 0,1.27643 -0.451,1.41088 7.35,-2.1909 z m -7.23,-0.21951 c 1.326,-0.61457 4.145,-1.88087 6.266,-2.814 2.121,-0.93313 6.501,-2.9006 9.733,-4.37214 3.233,-1.47155 6.094,-2.67554 6.359,-2.67554 0.264,0 0.635,-0.24716 0.822,-0.54924 0.692,-1.11356 -4.203,0.57515 -14.745,5.08599 -3.313,1.41808 -7.067,2.97268 -8.342,3.45465 -1.274,0.48198 -3.009,1.48309 -3.856,2.2247 l -1.539,1.34839 1.446,-0.29271 c 0.795,-0.16099 2.531,-0.79553 3.856,-1.4101 z m 2.454,-3.9036 c 1.81,-0.67758 5.836,-2.40319 8.947,-3.83469 3.11,-1.4315 5.857,-2.60273 6.103,-2.60273 0.247,0 1.615,-0.52682 3.041,-1.17073 1.453,-0.65649 2.168,-1.17716 1.628,-1.18537 -0.53,-0.008 -2.482,0.64314 -4.338,1.4471 -6.491,2.81182 -13.993,5.80872 -15.666,6.25788 -2.686,0.72138 -4.338,1.44443 -4.338,1.89932 0,0.69104 1.149,0.4896 4.623,-0.81078 z m 31.983,-9.32944 c 1.473,-0.75674 2.288,-1.38627 1.811,-1.39895 -0.477,-0.0127 -1.527,0.31611 -2.333,0.73063 -1.525,0.78441 -3.123,0.59355 -2.564,-0.30627 0.177,-0.28491 -0.568,-0.0663 -1.656,0.4857 -1.089,0.55204 -1.979,1.17908 -1.979,1.39342 0,1.47909 2.819,1.09971 6.721,-0.90453 z m -7.536,0.26294 c 2.166,-0.89981 2.615,-1.57048 0.882,-1.31757 -1.009,0.14727 -1.441,-0.0568 -1.797,-0.8484 -0.457,-1.0197 -0.491,-1.02319 -1.552,-0.1608 -1.017,0.82554 -1.037,0.94996 -0.321,1.96 0.908,1.27956 0.668,1.2479 2.788,0.36677 z m 32.026,9.78649 c -1.419,-0.74496 -1.806,-1.22981 -1.799,-2.25566 0.02,-2.92539 -2.096,-14.00914 -2.674,-14.00914 -0.325,0 -0.874,-0.33931 -1.22,-0.75404 -0.346,-0.41472 -1.512,-1.19838 -2.59,-1.74146 -1.078,-0.54308 -2.737,-1.59513 -3.686,-2.33789 -0.95,-0.74275 -3.39,-2.24269 -5.423,-3.3332 -3.319,-1.78024 -3.697,-2.1269 -3.697,-3.39416 0,-1.80411 1.169,-2.27526 2.556,-1.03036 1.541,1.38373 12.845,8.75642 13.426,8.75642 0.447,0 0.249,-2.69738 -0.351,-4.79336 -0.244,-0.84943 -4.522,-3.65003 -8.762,-5.73511 -2.685,-1.32076 -3.012,-1.63629 -3.012,-2.90628 0,-0.78357 0.21,-1.42467 0.468,-1.42467 0.257,0 2.155,0.99251 4.217,2.20559 2.063,1.21308 4.355,2.51736 5.095,2.8984 l 1.345,0.69281 -0.329,-2.4684 c -0.38,-2.84547 -0.305,-2.92882 3.645,-4.08297 2.024,-0.59114 4.235,-0.73141 9.56,-0.6064 8.233,0.19331 8.633,0.40935 7.524,4.07223 -1.128,3.72818 -2.13,13.23554 -1.478,14.02836 0.672,0.81741 6.082,4.35117 6.661,4.35117 0.224,0 0.407,-1.32267 0.407,-2.93927 0,-3.33425 1.287,-6.02421 3.052,-6.38062 3.69,-0.74482 7.195,-0.68703 11.825,0.19496 3.456,0.65839 5.266,0.80773 5.873,0.4846 2.074,-1.10398 4.535,-0.44437 5.538,1.48457 1.962,3.77325 -0.165,8.99641 -4.566,11.21429 -2.778,1.39988 -3.191,2.33025 -2.783,6.26441 l 0.267,2.56831 -2.252,0.86426 c -1.616,0.62005 -3.546,0.8604 -6.832,0.85063 -3.882,-0.0116 -5.019,-0.20659 -7.471,-1.28111 l -2.892,-1.2675 0.16,-5.18992 0.159,-5.18993 -3.293,-1.11919 c -1.811,-0.61555 -3.647,-1.22749 -4.081,-1.35987 -0.626,-0.19106 -0.835,0.18792 -1.011,1.83819 -0.258,2.42473 0.02,2.838 3.713,5.46697 4.233,3.01608 3.367,4.11953 -1.407,1.79133 -1.457,-0.7104 -2.817,-1.12383 -3.023,-0.91873 -0.207,0.20509 -0.375,1.76173 -0.375,3.45919 v 3.0863 l -1.687,0.46611 c -2.78,0.7679 -6.796,0.53054 -8.797,-0.51986 z m 6.386,-0.44749 c 0.663,-0.008 1.476,-0.18489 1.807,-0.39389 0.602,-0.37984 1.359,-3.68827 1.776,-7.75404 0.121,-1.18635 0.431,-3.01981 0.687,-4.07435 0.257,-1.05454 0.824,-5.58427 1.261,-10.06607 0.437,-4.48179 0.836,-8.47227 0.886,-8.86772 0.07,-0.51391 -0.322,-0.69651 -1.355,-0.64016 -4.148,0.22615 -15.272,0.16337 -15.682,-0.0885 -1.388,-0.85339 -1.018,3.53985 1.495,17.74509 2.032,11.49085 2.542,13.08749 4.449,13.92697 0.849,0.37382 1.977,0.57772 2.507,0.45311 0.531,-0.12461 1.507,-0.23282 2.169,-0.24045 z m -5.507,-2.33916 c -0.524,-0.84226 1.579,-1.54976 4.158,-1.39946 3.308,0.19272 3.524,1.10047 0.265,1.11206 -1.392,0.005 -2.888,0.18143 -3.325,0.39218 -0.454,0.21855 -0.925,0.17354 -1.098,-0.10478 z m 2.878,-8.01385 c 0.08,-2.08264 0.158,-4.1641 0.18,-4.62546 0.02,-0.46136 0.284,-0.83884 0.584,-0.83884 0.388,0 0.445,1.13261 0.197,3.95453 -0.459,5.23965 -1.139,6.30757 -0.961,1.50977 z m 3.649,-13.22522 c -0.03,-2.02762 0.161,-3.81988 0.427,-3.98282 0.582,-0.35814 0.598,3.00564 0.03,5.75204 -0.351,1.68848 -0.405,1.47729 -0.454,-1.76922 z m 25.365,23.21952 c -0.06,-0.46136 0.102,-0.83884 0.367,-0.83884 0.266,0 0.452,0.26963 0.416,0.59917 -0.08,0.67469 0.1,0.70624 1.633,0.29705 0.597,-0.15896 1.085,-0.5767 1.085,-0.92831 0,-0.3516 0.306,-0.81177 0.681,-1.0226 0.73,-0.41102 1.183,-4.35532 0.607,-5.28293 -0.187,-0.30058 -0.145,-0.66649 0.09,-0.81313 0.238,-0.14664 0.361,-1.72538 0.272,-3.50831 -0.09,-1.78293 -0.174,-4.1045 -0.19,-5.15904 l -0.03,-1.91734 -6.953,-0.11986 c -3.824,-0.0659 -7.484,-0.32041 -8.132,-0.56553 -1.094,-0.41344 -1.201,-0.31806 -1.491,1.31819 -0.171,0.97013 -0.445,4.80053 -0.609,8.51199 l -0.299,6.74812 1.396,0.97919 c 1.676,1.17543 6.398,2.45864 9.223,2.50645 1.679,0.0284 2.023,-0.11492 1.928,-0.80427 z m -4.101,-0.68905 c 0.298,-0.88879 1.335,-1.03621 1.335,-0.18973 0,0.41742 -0.343,0.75895 -0.763,0.75895 -0.42,0 -0.677,-0.25615 -0.572,-0.56922 z m -4.344,-0.94285 c 0.251,-0.74709 1.284,-0.86885 1.462,-0.17218 0.07,0.26003 -0.284,0.55026 -0.779,0.64495 -0.585,0.11212 -0.823,-0.0528 -0.683,-0.47277 z m -2.997,-1.36395 c 0,-0.26364 0.217,-0.47934 0.482,-0.47934 0.265,0 0.482,0.2157 0.482,0.47934 0,0.26363 -0.217,0.47933 -0.482,0.47933 -0.265,0 -0.482,-0.2157 -0.482,-0.47933 z m 7.351,-13.06192 c 0.11,-0.32954 0.381,-0.59917 0.602,-0.59917 0.221,0 0.492,0.26963 0.603,0.59917 0.11,0.32955 -0.161,0.59917 -0.603,0.59917 -0.442,0 -0.713,-0.26962 -0.602,-0.59917 z m 3.364,0.03 c 0.298,-0.8888 1.335,-1.03621 1.335,-0.18974 0,0.41743 -0.343,0.75895 -0.763,0.75895 -0.419,0 -0.677,-0.25614 -0.572,-0.56921 z m 3.972,0.0658 c -0.458,-0.73697 0.169,-1.21246 0.788,-0.59724 0.346,0.34425 0.354,0.61236 0.03,0.8147 -0.27,0.16588 -0.636,0.068 -0.813,-0.21746 z m -10.831,-0.69493 c 0,-0.39545 0.217,-0.719 0.482,-0.719 0.265,0 0.482,0.32355 0.482,0.719 0,0.39545 -0.217,0.71901 -0.482,0.71901 -0.265,0 -0.482,-0.32356 -0.482,-0.71901 z m -2.771,-0.83884 c 0.11,-0.32954 0.381,-0.59917 0.602,-0.59917 0.221,0 0.492,0.26963 0.603,0.59917 0.11,0.32955 -0.161,0.59917 -0.603,0.59917 -0.442,0 -0.713,-0.26962 -0.602,-0.59917 z m 21.458,5.18586 c 1.714,-2.16737 2.158,-3.80741 1.595,-5.88854 -0.645,-2.38071 -2.1,-3.17782 -4.155,-2.27672 l -1.425,0.62469 1.47,0.0389 c 1.964,0.052 2.627,0.81928 2.627,3.04233 0,2.39846 -0.606,3.54101 -3.057,5.76901 l -2.004,1.82204 2.003,-0.96982 c 1.101,-0.5334 2.427,-1.50627 2.946,-2.16192 z m -2.83,-0.52901 c 1.135,-1.28586 1.496,-2.15258 1.496,-3.59502 0,-1.67432 -0.135,-1.90067 -1.131,-1.90067 -0.621,0 -1.456,0.37748 -1.855,0.83884 -0.817,0.94471 -1.22,6.35121 -0.473,6.35121 0.257,0 1.14,-0.76246 1.963,-1.69436 z m -47.67,-5.73153 c 0,-0.12972 -1.573,-1.24387 -3.495,-2.4759 -1.922,-1.23202 -4.362,-2.82016 -5.422,-3.52919 -2.245,-1.50085 -4.097,-2.5058 -4.097,-2.22269 0,0.20073 2.003,1.56284 8.837,6.00758 3.762,2.44719 4.177,2.66769 4.177,2.2202 z m 43.823,-1.50424 c 0.418,-0.36822 -0.472,-0.79164 -2.471,-1.17595 -3.05,-0.58641 -11.35,-0.53552 -11.728,0.0719 -0.47,0.75685 -0.284,0.82454 3.644,1.32185 3.185,0.4032 10.011,0.26233 10.555,-0.21781 z m -26.269,-12.54953 c 2.102,-0.37124 2.778,-1.28406 1.299,-1.75112 -1.738,-0.54852 -11.373,-0.41215 -13.329,0.18866 -3.376,1.03656 -3.458,1.09342 -2.15,1.49018 1.526,0.46304 11.675,0.51477 14.18,0.0723 z m -66.039,23.21977 c -0.166,-0.42979 -0.617,-0.78144 -1.002,-0.78144 -0.385,0 -1.854,-1.08446 -3.263,-2.40992 -4.651,-4.37407 -6.375,-10.70998 -3.436,-12.62518 1.279,-0.83282 9.747,-2.22908 13.344,-2.20013 1.426,0.0115 3.461,0.20543 4.522,0.43099 1.06,0.22557 3.121,0.65205 4.579,0.94774 1.762,0.35739 3.085,0.9762 3.945,1.84586 l 1.293,1.30823 -1.498,3.51613 c -1.177,2.75959 -2.233,4.24584 -4.909,6.90758 l -3.41,3.39146 -4.932,0.22506 c -4.248,0.19385 -4.974,0.11669 -5.233,-0.55638 z m 13.081,-4.27724 c 1.71,-1.65906 3.109,-3.25656 3.109,-3.55001 0,-0.36731 -2.365,-0.54765 -7.592,-0.57887 -4.175,-0.0249 -8.676,-0.15828 -10.002,-0.29631 -2.7,-0.28119 -5.159,-0.28957 -5.432,-0.0185 -0.391,0.38915 2.355,4.09874 3.905,5.27442 1.744,1.32249 5.067,2.02192 10.107,2.12729 l 2.796,0.0585 z m 4.111,-6.15183 c 0.215,-0.34668 0.339,-0.68298 0.274,-0.74733 -0.07,-0.0643 -1.626,0.11894 -3.469,0.40732 -4.311,0.67462 -17.855,0.005 -21.081,-1.04231 -0.849,-0.27568 -1.237,-0.26671 -1.056,0.0244 0.157,0.25307 0.598,0.46012 0.98,0.46012 0.382,0 0.695,0.19411 0.695,0.43136 0,1.29652 22.861,1.74724 23.657,0.46641 z m -4.989,-1.18737 c -0.16,-0.15928 -0.576,-0.1763 -0.924,-0.0378 -0.384,0.15302 -0.27,0.2666 0.291,0.2896 0.509,0.0208 0.793,-0.0925 0.633,-0.25176 z m 4.542,-1.98724 c 0.481,-0.47909 0.344,-0.59917 -0.685,-0.59917 -0.872,0 -1.207,-0.20518 -1.04,-0.63764 0.407,-1.05506 -4.715,-2.00762 -10.361,-1.92682 -6.211,0.0889 -10.473,0.90988 -10.779,2.0767 -0.184,0.69742 0.311,0.92813 2.971,1.38603 4.502,0.77493 5.287,0.80832 12.688,0.53973 4.351,-0.15787 6.81,-0.44414 7.206,-0.83883 z m -124.702,12.77897 c -0.393,-0.6337 2.302,-3.48504 6.535,-6.91136 1.723,-1.39506 4.097,-3.41777 5.275,-4.49491 l 2.142,-1.95842 -1.589,0.45327 c -1.791,0.51071 -3.51,1.74063 -8.581,6.13871 -1.933,1.67608 -3.514,3.32992 -3.514,3.6752 0,0.34529 -0.665,0.90171 -1.477,1.23649 -1.281,0.52749 -1.586,0.49809 -2.29,-0.22038 -0.764,-0.78064 -0.629,-0.99572 2.321,-3.68151 1.723,-1.56884 4.76,-4.06936 6.749,-5.55671 1.988,-1.48734 3.705,-2.77468 3.815,-2.86073 0.111,-0.0861 0.06,-0.29453 -0.107,-0.46328 -0.452,-0.44882 -5.356,3.03491 -8.311,5.90355 -1.859,1.80536 -2.819,2.41258 -3.522,2.22961 -1.196,-0.311 -1.682,-1.42736 -0.897,-2.05985 0.322,-0.25961 1.603,-1.31633 2.845,-2.34828 1.242,-1.03195 3.248,-2.58332 4.458,-3.4475 1.21,-0.86418 2.201,-1.92205 2.201,-2.35082 0,-1.05742 4.637,-5.64229 6.849,-6.77245 1.872,-0.95616 3.343,-1.16202 3.958,-0.55401 0.2,0.19773 1.484,0.3595 2.852,0.3595 h 2.488 l -0.12,1.54121 c -0.09,1.12863 0.138,1.6785 0.844,2.05405 1.156,0.61568 1.253,2.36633 0.237,4.31896 -0.717,1.37896 -3.684,3.3931 -6.022,4.08818 -0.663,0.19702 -1.491,0.76228 -1.841,1.25614 -0.349,0.49386 -0.839,0.77266 -1.088,0.61957 -0.249,-0.15309 -2.88,2.10816 -5.845,5.02501 -4.232,4.16173 -5.678,5.30337 -6.716,5.30337 -0.728,0 -1.47,-0.23517 -1.649,-0.52261 z m 3.898,-2.24647 c 0.803,-0.7179 1.996,-1.93676 2.651,-2.70857 l 1.191,-1.40329 -1.446,1.0021 c -1.821,1.26191 -4.921,4.44515 -4.313,4.42794 0.251,-0.007 1.114,-0.60028 1.917,-1.31818 z m 1.19,-7.15613 c 0,-0.38504 -3.554,2.58007 -5.061,4.222 -0.795,0.86671 0.02,0.32114 1.808,-1.21238 1.789,-1.53352 3.253,-2.88785 3.253,-3.00962 z m -5.03,-0.22032 1.415,-1.51747 -1.807,1.33469 c -1.833,1.3535 -2.122,1.70025 -1.416,1.70025 0.216,0 1.029,-0.68286 1.808,-1.51747 z m 19.25,-4.51495 c 2.566,-1.71845 3.815,-3.4162 3.219,-4.37517 -0.983,-1.58194 -6.834,2.23846 -6.834,4.46237 0,1.03108 0.157,1.13379 1.325,0.8643 0.729,-0.1682 1.76,-0.59638 2.29,-0.9515 z m -4.447,-1.77824 c 0.398,-0.60497 1.506,-1.62955 2.462,-2.27684 0.956,-0.6473 1.739,-1.46588 1.741,-1.81907 0,-0.35319 0.491,-1.03566 1.088,-1.51658 0.596,-0.48093 0.924,-1.03458 0.727,-1.23034 -0.67,-0.66943 -4.418,1.46451 -7.036,4.00627 -2.477,2.40447 -2.568,2.5759 -1.709,3.22279 1.28,0.96339 1.895,0.87627 2.727,-0.38623 z m -1.617,-3.75018 c 1.702,-1.81297 2.972,-3.4173 2.823,-3.56519 -0.562,-0.55887 -3.819,1.25243 -6.148,3.41919 -1.331,1.23822 -2.42,2.42249 -2.42,2.63171 0,0.31167 1.38,0.77178 2.41,0.80322 0.132,0.004 1.633,-1.47597 3.335,-3.28893 z m 63.183,13.43287 c -1.723,-0.19427 -4.121,-0.25359 -5.328,-0.13182 -1.777,0.17926 -2.364,0.0348 -3.087,-0.75941 -0.491,-0.53944 -1.083,-0.9808 -1.315,-0.9808 -1.338,0 -5.694,-6.69334 -5.694,-8.74989 0,-0.61844 -0.245,-1.36748 -0.544,-1.66454 -0.851,-0.84693 -0.08,-2.84035 1.541,-3.98899 0.832,-0.58929 3.229,-1.38724 5.492,-1.8283 l 4.016,-0.78264 -0.267,-1.67872 c -0.146,-0.92329 -0.429,-1.744 -0.629,-1.82381 -0.199,-0.0798 -1.33,-0.78249 -2.513,-1.56152 -2.85,-1.87714 -4.554,-4.42696 -5.245,-7.84818 -0.773,-3.82999 -0.166,-4.29467 5.025,-3.84797 l 3.743,0.3221 -0.502,-1.31318 c -0.277,-0.72225 -0.616,-2.33067 -0.756,-3.57426 -0.412,-3.68292 0.645,-4.0183 14.498,-4.59862 3.977,-0.16658 7.374,-0.38903 7.55,-0.49432 0.176,-0.1053 9.12,-0.20208 19.876,-0.21507 25.03,-0.0302 24.323,-0.27285 21.942,7.52736 -0.972,3.18627 -3.698,8.36884 -6.077,11.55457 -1.352,1.81103 -1.376,1.80468 3.898,1.02464 3.241,-0.47947 3.552,-0.61711 3.082,-1.36567 -0.288,-0.45785 -0.381,-1.39459 -0.208,-2.08164 0.391,-1.54734 2.404,-2.22929 7.659,-2.59405 2.055,-0.14263 3.736,-0.38465 3.736,-0.53783 0,-0.15318 -0.976,-1.16967 -2.169,-2.25886 -1.778,-1.62326 -2.17,-2.28275 -2.17,-3.65733 0,-1.30839 0.257,-1.79302 1.166,-2.205 2.347,-1.06364 7.415,-1.62475 13.533,-1.49846 3.448,0.0712 7.028,-0.0859 7.956,-0.34916 2.338,-0.66309 3.996,-0.15773 4.541,1.38422 0.604,1.70888 -0.261,3.5269 -2.178,4.57461 -2.793,1.52619 -5.737,3.54198 -5.737,3.92761 0,0.21135 1.712,0.53494 3.804,0.71908 4.503,0.3964 6.564,1.43672 7.03,3.54867 0.494,2.23359 -0.868,3.72169 -4.015,4.38726 -1.42,0.30023 -7.438,0.57982 -13.375,0.62131 -9.633,0.0674 -10.793,0.15961 -10.795,0.85852 0,0.43068 -0.838,1.53457 -1.86,2.45308 -2.133,1.91594 -6.75,3.17489 -12.834,3.49908 -1.962,0.10453 -4.935,0.51088 -6.608,0.903 -14.828,3.47591 -15.792,3.5802 -17.49,1.89214 -1.673,-1.6638 -1.103,-1.89555 10.593,-4.30621 3.446,-0.71039 6.659,-1.49037 7.14,-1.7333 0.543,-0.27412 1.091,-0.26548 1.446,0.0228 0.662,0.53728 3.599,0.13533 9.248,-1.26528 2.121,-0.52588 4.869,-1.09567 6.106,-1.26622 2.942,-0.40531 3.964,-1.48647 1.739,-1.83866 -1.102,-0.17446 -1.76,-0.0191 -2.181,0.51478 -0.332,0.42057 -0.603,0.63065 -0.603,0.46685 0,-0.1638 -0.705,-0.0849 -1.566,0.17541 -0.862,0.26028 -4.552,0.78161 -8.202,1.15851 -3.649,0.37691 -7.119,0.98593 -7.712,1.35338 -0.593,0.36745 -4.006,1.24846 -7.585,1.9578 -3.579,0.70933 -7.223,1.51057 -8.099,1.78053 -2.137,0.65876 -3.951,0.17092 -3.951,-1.06251 0,-0.53053 -0.271,-1.05769 -0.603,-1.17149 -0.331,-0.11379 -4.298,-0.49823 -8.815,-0.85431 -8.735,-0.68855 -9.103,-0.80503 -12.758,-4.03023 l -1.209,-1.0665 -1.563,0.98407 c -1.368,0.86124 -1.563,1.24202 -1.563,3.05049 v 2.06641 l 3.495,0.55714 c 4.865,0.77575 8.103,1.78888 8.852,2.77049 1.768,2.31507 -0.516,7.93633 -5.117,12.59682 l -2.651,2.68529 z m 3.744,-2.35134 c 1.666,-1.0096 4.212,-4.27601 5.253,-6.73586 0.561,-1.327 0.54,-1.44785 -0.211,-1.23852 -2.027,0.56466 -13.134,0.82138 -16.016,0.37017 -6.24,-0.97681 -6.748,-1.00069 -6.748,-0.31686 0,0.37388 0.762,0.77467 1.807,0.94996 4.355,0.73049 11.568,1.53048 12.894,1.42999 0.795,-0.0603 2.406,-0.18092 3.579,-0.2681 1.378,-0.1024 2.203,0.0493 2.33,0.42866 0.108,0.32295 -0.09,0.6047 -0.446,0.62612 -0.354,0.0214 -1.293,0.11659 -2.089,0.2115 -3.341,0.39872 -7.93,0.27491 -8.898,-0.24006 -0.581,-0.30958 -1.673,-0.41516 -2.477,-0.23957 -0.791,0.17269 -1.706,0.0923 -2.035,-0.1787 -0.697,-0.57536 -3.701,-0.58768 -3.701,-0.0152 0,0.61531 2.935,3.77842 3.506,3.77842 0.283,0 0.912,0.35762 1.398,0.79472 1.929,1.73593 9.385,2.14056 11.854,0.64331 z m -5.305,-8.47808 c -0.461,-0.11998 -1.328,-0.12433 -1.928,-0.01 -0.6,0.11465 -0.222,0.21281 0.838,0.21813 1.06,0.005 1.551,-0.0885 1.09,-0.20846 z m -3.862,-0.48041 c -0.464,-0.12057 -1.223,-0.12057 -1.687,0 -0.464,0.12056 -0.08,0.21921 0.844,0.21921 0.928,0 1.307,-0.0987 0.843,-0.21921 z m -3.615,-0.46638 c -0.331,-0.13297 -0.873,-0.13297 -1.205,0 -0.331,0.13298 -0.06,0.24177 0.603,0.24177 0.663,0 0.934,-0.10879 0.602,-0.24177 z m -3.869,-0.90806 c -1.128,-0.7853 -1.457,-2.12984 -0.522,-2.12984 0.302,0 0.815,0.36138 1.14,0.80306 1.545,2.10169 19.888,2.79539 22.33,0.84451 0.359,-0.28694 -0.916,-2.03795 -1.713,-2.35096 -0.471,-0.18526 -3.893,-0.71936 -7.605,-1.18689 -5.912,-0.74472 -7.136,-0.76957 -9.881,-0.20053 -1.723,0.35725 -3.676,1.05669 -4.338,1.55432 -1.723,1.29305 -1.139,3.38357 0.95,3.40517 0.467,0.005 0.343,-0.24869 -0.361,-0.73884 z m 48.241,-1.17266 c 5.987,-0.98409 11.051,-2.2785 11.457,-2.92822 0.254,-0.40551 0.212,-0.73493 -0.107,-0.8436 -0.287,-0.0981 -4.281,0.64143 -8.876,1.64333 -7.14,1.55685 -8.235,1.91175 -7.536,2.44165 0.45,0.34101 1.101,0.5205 1.447,0.39887 0.346,-0.12162 1.973,-0.44204 3.615,-0.71203 z m 25.595,-4.51829 c 2.439,-0.70499 5.133,-2.68552 3.616,-2.65795 -0.77,0.014 -6.75,1.38595 -11.764,2.69909 l -3.374,0.88362 2.169,0.24174 c 2.506,0.27927 5.753,-0.1257 9.353,-1.1665 z m -26.344,-0.22758 c 6.964,-1.34235 8.797,-1.90509 8.797,-2.70082 0,-0.8812 0.211,-0.89259 -8.518,0.4595 -7.761,1.20227 -8.353,1.37686 -8.353,2.46328 0,0.95454 2.299,0.89134 8.074,-0.22196 z m -37.477,-1.75196 c 0,-1.33481 -0.188,-2.07001 -0.482,-1.88906 -0.265,0.16294 -0.482,1.14632 -0.482,2.1853 0,1.03898 0.217,1.88906 0.482,1.88906 0.265,0 0.482,-0.98339 0.482,-2.1853 z m 28.908,0.033 c 1.12,-0.39289 4.997,-1.14355 8.616,-1.66813 3.619,-0.52457 8.179,-1.33555 10.132,-1.80217 3.154,-0.75337 3.779,-1.09957 5.586,-3.09107 1.868,-2.05884 5.564,-8.29387 5.564,-9.38541 0,-0.25474 -0.488,-0.37924 -1.084,-0.27667 -4.819,0.82854 -11.303,1.4542 -12.129,1.17027 -0.901,-0.30974 -2.114,-0.29432 -6.053,0.0769 -0.796,0.0751 -1.245,-0.15958 -1.357,-0.70987 -0.127,-0.62377 0.16,-0.81858 1.19,-0.80767 10.465,0.11079 14.141,-0.0303 17.248,-0.66174 2.646,-0.53769 2.912,-0.71011 3.326,-2.1506 0.247,-0.86132 0.363,-1.6376 0.257,-1.72506 -0.106,-0.0875 -5.182,0.0246 -11.279,0.24898 -6.098,0.2244 -20.034,0.40327 -30.97,0.39749 -15.772,-0.008 -19.876,0.11531 -19.849,0.59805 0.08,1.40391 0.743,2.13415 1.863,2.0462 0.646,-0.0507 1.947,0.0793 2.892,0.28891 0.945,0.2096 2.532,0.50983 3.526,0.66717 0.994,0.15735 1.807,0.48932 1.807,0.73771 0,0.37572 -2.801,0.339 -6.748,-0.0885 -0.398,-0.0431 -1.129,-0.0443 -1.626,-0.003 -0.745,0.0624 -0.798,0.20037 -0.302,0.79451 0.426,0.51036 1.553,0.71901 3.884,0.71901 1.806,0 3.868,0.22089 4.582,0.49088 1.188,0.44926 1.276,0.65696 1.034,2.45009 -0.145,1.07756 -0.933,3.02941 -1.751,4.33743 l -1.487,2.37822 1.395,1.28323 c 0.766,0.70577 1.726,1.54546 2.133,1.86597 1.201,0.94746 4.554,1.59076 10.455,2.00599 3.048,0.21452 5.895,0.42085 6.326,0.4585 0.43,0.0377 1.699,-0.253 2.819,-0.64589 z m -5.621,-14.99901 c -0.315,-0.20048 -2.105,-0.32025 -3.977,-0.26616 -2.68,0.0775 -3.403,-0.0477 -3.403,-0.58912 0,-0.63882 2.319,-1.05589 3.615,-0.64994 0.265,0.0831 2.524,0.16255 5.02,0.17659 3.183,0.0179 4.599,0.2045 4.74,0.62471 0.141,0.42026 -0.447,0.59917 -1.968,0.59917 -1.194,0 -2.459,0.10559 -2.812,0.23463 -0.353,0.12905 -0.9,0.0706 -1.215,-0.12988 z m 11.75,0.065 c -0.629,-0.62511 -0.329,-1.12844 0.672,-1.12844 0.561,0 0.92,0.25125 0.814,0.56921 -0.235,0.70048 -1.04,1.00332 -1.486,0.55923 z m -22.142,-0.44867 c -0.163,-0.16219 -1.107,-0.32756 -2.098,-0.3675 -0.991,-0.0399 -1.887,-0.33065 -1.992,-0.64604 -0.137,-0.41068 0.516,-0.52107 2.301,-0.38891 2.716,0.20109 3.308,0.48181 2.567,1.21799 -0.265,0.26364 -0.615,0.34664 -0.778,0.18446 z m 17.472,-0.47525 c 0,-0.44638 0.328,-0.6909 0.804,-0.59917 1.209,0.23322 1.375,1.35332 0.2,1.35332 -0.592,0 -1.004,-0.3095 -1.004,-0.75415 z m 30.79,13.17419 c 2.514,-0.55761 3.915,-1.2462 3.915,-1.92381 0,-0.27212 -0.379,-0.38025 -0.843,-0.24027 -0.464,0.13997 -3.989,0.70585 -7.833,1.25752 -3.844,0.55167 -7.206,1.22103 -7.471,1.48747 -0.583,0.5859 9.029,0.12939 12.232,-0.58091 z m -60.193,-0.92798 c 2.693,-0.77571 5.003,-3.21377 6.12,-6.45903 l 0.494,-1.43801 -5.837,0.1646 c -3.211,0.0905 -7.031,-0.0522 -8.489,-0.31711 -1.458,-0.26494 -2.7,-0.43473 -2.759,-0.37731 -0.06,0.0574 0.11,0.88806 0.376,1.84588 0.834,3.00415 4.863,6.47048 8.167,7.02643 0.133,0.0223 1,-0.17815 1.928,-0.44545 z m 0.587,-2.62434 c 0.456,-1.35761 2.052,-4.07436 2.394,-4.07436 0.822,0 0.337,1.29727 -1.081,2.89413 -0.81,0.91276 -1.401,1.44387 -1.313,1.18023 z m 87.091,2.57334 c 6.945,-0.54062 8.863,-1.24603 8.634,-3.17647 -0.242,-2.04931 -2.408,-2.95868 -7.398,-3.10542 -3.758,-0.11052 -4.31,-0.0223 -4.46,0.7127 -0.119,0.58033 0.131,0.83884 0.811,0.83884 1.164,0 2.308,1.78323 1.597,2.48975 -0.652,0.64853 -7.573,1.06551 -10.876,0.6552 -2.708,-0.33652 -4.165,-1.18584 -4.165,-2.42788 0,-0.35886 0.445,-0.79316 0.99,-0.96511 0.545,-0.17196 0.904,-0.56397 0.797,-0.87114 -0.268,-0.77427 -8.45,-0.66898 -10.399,0.13383 -2.638,1.08655 -1.834,2.97669 1.316,3.09474 0.856,0.0321 1.232,0.28744 1.152,0.78375 -0.06,0.40487 0.261,0.77597 0.724,0.82467 0.462,0.0487 2.359,0.3879 4.215,0.75378 4.075,0.80355 9.087,0.87956 17.062,0.25876 z m -4.168,-2.64133 c 3.135,-0.51542 1.96,-0.99611 -1.843,-0.75342 -2.323,0.14824 -4.344,0.005 -5.558,-0.39314 -1.374,-0.45107 -2.054,-0.48032 -2.432,-0.10464 -1.041,1.03591 5.826,1.90979 9.833,1.2512 z m -0.502,-3.05275 c 0.837,-1.02776 0.838,-1.10598 0.03,-1.70218 -0.67,-0.49181 -0.726,-0.75094 -0.264,-1.21666 0.464,-0.46863 0.65,-0.42705 0.892,0.19984 0.259,0.6704 0.624,0.53174 2.388,-0.90566 2.209,-1.80018 3.865,-3.94003 3.404,-4.39878 -0.153,-0.15177 -0.875,0.003 -1.605,0.34387 -1.483,0.69217 -12.194,0.7366 -16.446,0.0682 -2.745,-0.4315 -3.22,0.0867 -1.5,1.63495 0.748,0.67297 1.108,0.74624 1.542,0.31396 0.312,-0.31013 0.741,-0.56387 0.953,-0.56387 0.564,0 0.472,1.32948 -0.105,1.52067 -0.269,0.0894 0.82,1.51106 2.422,3.15923 2.863,2.94594 2.951,2.99351 5.164,2.81017 1.602,-0.13272 2.504,-0.49704 3.128,-1.26376 z m -4.326,-1.64859 c 0.174,-0.9046 0,-1.20736 -0.749,-1.31818 -0.537,-0.0791 -1.075,-0.442 -1.195,-0.8064 -0.164,-0.49397 0.151,-0.60841 1.237,-0.44981 1.064,0.15524 1.392,0.0428 1.215,-0.41597 -0.133,-0.3465 0.08,-0.62869 0.481,-0.62869 1.039,0 1.407,1.33541 0.505,1.83709 -0.618,0.3443 -0.478,0.523 0.743,0.94642 0.828,0.28708 1.506,0.73616 1.506,0.99795 0,0.80387 -0.97,1.12451 -1.665,0.55056 -0.453,-0.37388 -0.757,-0.38678 -0.972,-0.0413 -0.591,0.95127 -1.331,0.50161 -1.106,-0.6717 z m 2.779,-2.36202 c 0,-0.36317 0.306,-0.9129 0.68,-1.22162 0.917,-0.75681 1.543,0.23254 0.749,1.18393 -0.735,0.88048 -1.429,0.89878 -1.429,0.0377 z m 3.223,-0.12859 c -0.628,-0.62511 -0.328,-1.12844 0.673,-1.12844 0.561,0 0.92,0.25125 0.814,0.56921 -0.235,0.70047 -1.04,1.00332 -1.487,0.55923 z m -10.212,-0.64911 c -0.164,-0.26363 0.148,-0.47933 0.694,-0.47933 0.546,0 0.993,0.2157 0.993,0.47933 0,0.26364 -0.313,0.47934 -0.695,0.47934 -0.382,0 -0.828,-0.2157 -0.992,-0.47934 z m -70.676,1.61776 c 0.828,-0.16477 1.506,-0.50742 1.506,-0.76144 0,-0.28286 -2.286,-0.37815 -5.9,-0.24586 -4.752,0.17397 -5.998,0.0823 -6.406,-0.47139 -0.348,-0.4735 -0.923,-0.58317 -1.847,-0.35245 -0.813,0.20299 -1.168,0.50802 -0.9,0.77433 0.914,0.90858 10.523,1.65823 13.547,1.05681 z m 82.93,-5.49813 c 2.006,-0.59754 2.642,-1.38917 1.122,-1.39626 -0.464,-0.002 -2.796,-0.22788 -5.182,-0.50159 -6.482,-0.74362 -16.883,0.81627 -11.461,1.7189 1.001,0.16673 2.038,0.3581 2.303,0.42527 1.7,0.43077 11.563,0.24698 13.218,-0.24632 z m 6.289,-2.36972 c -0.911,-0.57309 -2.396,-0.5893 -2.396,-0.0261 0,0.23895 0.41,0.32801 0.91,0.19791 0.5,-0.13011 1.064,0.0123 1.253,0.31643 0.189,0.30414 0.479,0.41906 0.643,0.25536 0.165,-0.16369 -0.02,-0.49829 -0.41,-0.74355 z m -38.668,-1.71993 c 2.755,-0.2091 3.977,-0.49067 3.977,-0.91626 0,-1.01289 -6.645,-1.28799 -24.583,-1.01765 -16.588,0.25 -32.019,0.94813 -34.468,1.55942 -0.979,0.24437 -1.135,0.43101 -0.644,0.76975 0.692,0.47768 48.706,0.13708 55.718,-0.39526 z m -97.444,41.19079 c -2.457,-0.39422 -3.727,-1.5398 -3.563,-3.21394 0.123,-1.25364 0.515,-1.6617 2.505,-2.60667 1.298,-0.61619 3.521,-1.23955 4.941,-1.38523 2.315,-0.23765 2.581,-0.38119 2.581,-1.39617 0,-0.81768 -0.272,-1.13128 -0.98,-1.13128 -0.539,0 -1.704,-0.30098 -2.589,-0.66885 -1.498,-0.62218 -1.632,-0.86466 -1.932,-3.47518 -0.565,-4.9213 -0.718,-5.32873 -2.119,-5.65399 -0.714,-0.16558 -1.884,-0.53115 -2.6,-0.81239 l -1.302,-0.51134 0.29,-6.36738 0.289,-6.36738 -2.728,0.0647 c -2.486,0.059 -2.831,-0.0625 -3.897,-1.37332 -1.735,-2.13566 -2.485,-6.88725 -1.749,-11.08335 0.911,-5.18605 2.812,-10.06449 4.459,-11.44302 1.87,-1.56491 2.677,-1.51443 4.543,0.28432 l 1.541,1.4851 0.322,-1.45836 c 0.45,-2.03512 3.138,-5.35916 5.487,-6.78454 1.285,-0.77988 1.979,-1.54902 1.988,-2.20256 0.01,-1.21046 1.256,-2.40593 2.926,-2.82019 1.515,-0.37586 3.835,1.54919 3.835,3.18214 0,0.59465 0.72,1.84523 1.6,2.77907 1.748,1.85378 2.984,4.49378 3.463,7.39465 l 0.307,1.86207 4.184,-0.24786 c 4.31,-0.25536 8.281,-1.45183 8.281,-2.49536 0,-0.32597 0.379,-0.93048 0.843,-1.34337 1.066,-0.94845 5.186,-1.60453 5.626,-0.8959 0.54,0.86771 -1.102,3.3619 -2.988,4.54048 -0.987,0.61656 -3.313,2.06068 -5.169,3.20914 -1.855,1.14847 -4.458,3.08362 -5.784,4.30034 -1.325,1.21671 -2.831,2.44574 -3.346,2.73117 -0.825,0.45736 -0.96,1.1944 -1.14,6.20982 l -0.204,5.69088 1.261,0.67084 c 0.693,0.36896 1.26,1.01513 1.26,1.43593 0,0.4208 -0.632,3.56595 -1.405,6.98922 -0.772,3.42326 -1.545,7.30262 -1.718,8.6208 -0.673,5.14836 -0.544,4.93644 -2.839,4.67916 -2.211,-0.24776 -3.682,0.62774 -3.674,2.18562 0,0.66449 0.596,0.82683 3.399,0.93226 6.073,0.22839 8.646,2.47036 6.18,5.38471 -1.011,1.19443 -1.043,1.19855 -9.998,1.26431 -4.942,0.0363 -9.616,-0.0353 -10.387,-0.15908 z m 17.219,-1.85816 c 0.58,-0.17553 1.434,-0.65071 1.898,-1.05597 0.799,-0.69817 0.79,-0.77393 -0.171,-1.44393 -0.607,-0.42267 -2.438,-0.76637 -4.551,-0.85446 -3.521,-0.14677 -3.535,-0.14216 -3.685,1.14112 -0.134,1.15829 -0.344,1.28849 -2.073,1.28849 -1.76,0 -1.944,-0.12182 -2.172,-1.43801 -0.282,-1.63296 -1.289,-1.95792 -4.535,-1.46347 -2.339,0.35622 -4.625,1.89013 -3.898,2.61571 1.264,1.26219 15.954,2.18899 19.187,1.21052 z m -7.863,-2.56248 c 0,-0.24167 -0.271,-0.53826 -0.603,-0.65909 -0.482,-0.17576 -0.482,-0.34672 0,-0.85482 0.829,-0.87305 0.781,-3.3194 -0.06,-3.3194 -1.012,0 -1.791,4.10641 -0.94,4.95314 0.475,0.47233 1.607,0.38792 1.607,-0.11983 z m 4.955,-6.71057 c 0.908,-0.34344 1.28,-0.99691 1.703,-2.99585 1.935,-9.14295 2.5,-12.14645 2.5,-13.28786 v -1.29151 l -4.218,0.40158 c -4.093,0.3897 -11.447,0.12344 -13.004,-0.47084 -0.681,-0.2599 -0.729,0.16209 -0.418,3.74253 0.192,2.21951 0.439,5.11398 0.548,6.43215 0.109,1.31818 0.442,3.42264 0.741,4.67658 0.447,1.88042 0.766,2.32871 1.819,2.55845 0.702,0.1532 1.494,0.3505 1.759,0.43844 1.078,0.35772 7.488,0.20539 8.57,-0.20367 z m -2.304,-2.17979 c -1.244,-0.5664 -1.3,-0.66389 -0.401,-0.69738 1.331,-0.0496 2.57,0.41853 2.57,0.97102 0,0.5692 -0.44,0.5137 -2.169,-0.27364 z m -9.026,-0.32386 c -1.006,-0.61819 0.681,-0.95294 4.015,-0.79663 l 3.083,0.14451 -3.256,0.5065 c -1.79,0.27858 -3.519,0.3441 -3.842,0.14562 z m 9.514,-2.92897 c 0.146,-0.59318 0.64,-3.11054 1.099,-5.59415 0.514,-2.78023 1.087,-4.59928 1.491,-4.73328 0.496,-0.1645 0.598,0.1773 0.417,1.39996 -0.41,2.7753 -2.504,10.00598 -2.898,10.00598 -0.206,0 -0.255,-0.48533 -0.109,-1.07851 z m -1.693,-6.88273 c 0,-1.54815 1.144,-3.5239 1.712,-2.95828 0.35,0.3481 -0.565,3.11013 -1.307,3.94517 -0.231,0.25889 -0.405,-0.16693 -0.405,-0.98689 z m -10.943,2.32904 c 0.11,-0.19773 -0.06,-2.48208 -0.37,-5.07634 l -0.571,-4.71683 1.242,-0.47221 c 2.599,-0.98789 6.718,-1.44865 11.417,-1.27731 l 4.873,0.17765 0.306,-5.67045 c 0.25,-4.62308 0.169,-5.9361 -0.441,-7.10864 -0.849,-1.63325 -0.756,-4.80224 0.151,-5.09828 0.414,-0.13545 0.602,0.40136 0.602,1.72125 0,4.16449 0.909,4.37367 4.738,1.09015 2.315,-1.98543 4.596,-3.55867 10.983,-7.57368 0.877,-0.55137 0.875,-0.57195 -0.07,-0.59918 -0.537,-0.0155 -1.408,0.27186 -1.934,0.63858 -1.461,1.01776 -5.842,2.21637 -9.862,2.69826 -1.988,0.23836 -4.808,0.78169 -6.266,1.2074 -2.098,0.61258 -3.925,0.71636 -8.757,0.49759 -3.358,-0.15203 -6.424,-0.39754 -6.811,-0.54557 -1.19,-0.45412 -1.879,2.48761 -2.084,8.89697 -0.105,3.29544 -0.372,9.01153 -0.593,12.70242 -0.222,3.69089 -0.316,6.95298 -0.209,7.2491 0.37,1.02798 3.234,2.01462 3.655,1.25912 z m 14.108,-8.29047 c 5.562,-0.97484 5.423,-1.23238 -1.031,-1.90233 -4.777,-0.49589 -11.775,0.0953 -11.775,0.99478 0,1.0853 8.396,1.68034 12.806,0.90755 z m -19.352,-5.54174 c 1.318,-0.50307 0.88,-1.62639 -0.634,-1.62639 -1.59,0 -4.162,-2.5314 -4.687,-4.61493 -0.509,-2.01607 0.143,-7.39113 1.272,-10.48476 1.171,-3.20742 2.583,-4.74293 4.019,-4.36959 0.871,0.22667 0.886,0.18367 0.177,-0.52154 -2.574,-2.55915 -6.584,6.31097 -6.607,14.61368 0,3.3163 0.867,5.95982 2.236,6.75162 0.991,0.57282 3.06,0.69618 4.224,0.25191 z m 1.42,-10.47383 c 0.41,-7.49999 0.399,-7.65451 -0.626,-8.47924 -0.573,-0.46202 -1.338,-0.72757 -1.698,-0.59011 -1.034,0.39461 -2.732,4.83946 -3.239,8.47919 -0.541,3.88325 -0.08,5.45415 2.14,7.31313 2.715,2.27149 2.958,1.79263 3.423,-6.72297 z m 17.9,-6.67442 1.928,-0.58876 -0.141,-2.55351 c -0.156,-2.81792 -1.018,-4.86435 -2.888,-6.85176 -0.935,-0.99397 -1.385,-1.18305 -1.867,-0.78486 -0.476,0.3931 -0.711,0.33084 -0.934,-0.24843 -0.372,-0.96389 -2.987,-1.02848 -5.151,-0.12726 -2.412,1.00396 -5.02,4.21689 -5.919,7.29142 -0.51,1.74712 -0.625,2.86865 -0.322,3.16909 1.142,1.1363 12.202,1.63821 15.294,0.69407 z m 20.525,-5.0896 c 0.244,0 0.443,-0.18579 0.443,-0.41287 0,-0.22707 -0.543,-0.30978 -1.205,-0.18379 -0.663,0.126 -1.205,0.44271 -1.205,0.70382 0,0.26111 0.343,0.34381 0.762,0.18379 0.419,-0.16002 0.962,-0.29095 1.205,-0.29095 z m -23.666,-8.50822 c -0.03,-1.69149 -3.445,-2.12635 -3.759,-0.47934 -0.131,0.68764 0.194,0.83884 1.803,0.83884 1.08,0 1.961,-0.16178 1.956,-0.3595 z"
       id="path1" /></g></svg>
