<?xml version="1.0" encoding="UTF-8" standalone="no"?>
<!-- Created with Inkscape (http://www.inkscape.org/) -->

<svg
   width="61.221001mm"
   height="62.240601mm"
   viewBox="0 0 61.221 62.240601"
   version="1.1"
   id="svg1"
   xml:space="preserve"
   inkscape:export-filename="animals.svg"
   inkscape:export-xdpi="96"
   inkscape:export-ydpi="96"
   xmlns:inkscape="http://www.inkscape.org/namespaces/inkscape"
   xmlns:sodipodi="http://sodipodi.sourceforge.net/DTD/sodipodi-0.dtd"
   xmlns="http://www.w3.org/2000/svg"
   xmlns:svg="http://www.w3.org/2000/svg"><sodipodi:namedview
     id="namedview1"
     pagecolor="#ffffff"
     bordercolor="#000000"
     borderopacity="0.25"
     inkscape:showpageshadow="2"
     inkscape:pageopacity="0.0"
     inkscape:pagecheckerboard="0"
     inkscape:deskcolor="#d1d1d1"
     inkscape:document-units="mm"><inkscape:page
       x="0"
       y="0"
       width="61.221001"
       height="62.240601"
       id="page2"
       margin="0"
       bleed="0" /></sodipodi:namedview><defs
     id="defs1" /><g
     inkscape:label="Layer 1"
     inkscape:groupmode="layer"
     id="layer1"
     transform="translate(1472.671,3650.7208)"><path
       id="path936"
       d="m -1472.5017,-3650.5514 h 60.8824 v -0.1694 h -60.8824 z"
       style="fill:#000000;fill-opacity:1;fill-rule:evenodd;stroke:none;stroke-width:0.352778" /><path
       id="path941-9"
       d="m -1472.671,-3588.6495 h 0.1693 v -61.8984 h -0.1693 z"
       style="fill:#000000;fill-opacity:1;fill-rule:evenodd;stroke:none;stroke-width:0.352778" /><path
       id="path942"
       d="m -1411.6193,-3588.6495 h 0.1693 v -61.8984 h -0.1693 z"
       style="fill:#000000;fill-opacity:1;fill-rule:evenodd;stroke:none;stroke-width:0.352778" /><path
       id="path952"
       d="m -1472.5017,-3588.4802 h 60.8824 v -0.1693 h -60.8824 z"
       style="fill:#000000;fill-opacity:1;fill-rule:evenodd;stroke:none;stroke-width:0.352778" /><g
       id="g1079"
       transform="matrix(0.26458333,0,0,0.26458333,-4298.2745,-3660.8755)"><path
         style="fill:#000000"
         d="m 10777.351,254.40569 c -0.166,-0.43425 0.04,-2.36542 0.462,-4.29148 0.42,-1.92606 1.288,-6.63851 1.929,-10.47211 1.366,-8.16956 4.596,-25.50217 7.658,-41.1 1.194,-6.08087 2.389,-12.35403 2.655,-13.94035 0.714,-4.25591 0.814,-4.76625 2.155,-11.05614 0.676,-3.17263 1.234,-6.29385 1.24,-6.93604 0,-0.6422 0.21,-1.83194 0.455,-2.64386 1.031,-3.41396 2.073,-9.2534 2.026,-11.34971 -0.09,-3.74018 0.389,-3.92821 9.117,-3.61912 4.055,0.14361 21.845,0.38719 39.534,0.54128 36.142,0.31484 33.99,0.0731 33.808,3.7995 -0.05,1.06771 0.03,2.48207 0.183,3.14304 0.153,0.66096 0.402,4.66281 0.553,8.89298 0.152,4.23018 0.38,8.66465 0.508,9.85439 0.128,1.18973 0.444,6.9221 0.701,12.73859 0.9,20.33816 1.081,24.07567 1.433,29.56316 0.329,5.13504 0.288,5.58788 -0.587,6.3693 -1.299,1.15996 -1.861,1.06829 -4.01,-0.65457 -1.026,-0.82269 -3.702,-2.71255 -5.946,-4.1997 -2.245,-1.48714 -5.377,-3.70385 -6.961,-4.92603 -1.584,-1.22217 -3.411,-2.50048 -4.06,-2.84068 -0.648,-0.34021 -2.749,-1.78123 -4.668,-3.20229 l -3.489,-2.58372 -3.372,6.89939 c -1.855,3.79467 -3.372,7.07097 -3.372,7.28067 0,0.7852 -2.644,6.36186 -4.173,8.80293 -0.873,1.39316 -1.587,2.63549 -1.587,2.76074 0,0.12524 -0.375,1.09446 -0.834,2.15382 -0.813,1.88063 -1.683,2.42397 -2.294,1.43378 -0.307,-0.49737 1.986,-5.45823 5.509,-11.92088 1.056,-1.93613 2.456,-5.01109 3.113,-6.83325 0.656,-1.82216 2.065,-4.98896 3.13,-7.03733 1.065,-2.04837 1.936,-3.99469 1.936,-4.32516 0,-0.33046 -1.251,-1.45142 -2.779,-2.49102 -1.529,-1.03959 -3.053,-2.21971 -3.387,-2.62248 -0.334,-0.40277 -2.136,-1.65793 -4.006,-2.78924 -4.977,-3.01142 -7.347,-6.71546 -9.567,-14.95174 -0.924,-3.43147 -1.11,-3.77263 -1.498,-2.74745 -0.244,0.64379 -0.357,2.42089 -0.252,3.94911 0.244,3.54704 -0.324,4.11348 -2.836,2.82727 -1.01,-0.51729 -2.844,-1.8304 -4.076,-2.91802 -3.132,-2.76452 -5.646,-8.09119 -4.405,-9.33337 0.531,-0.5317 1.604,0.68931 1.604,1.82504 0,1.64226 2.445,4.91942 5.057,6.77947 l 2.351,1.67376 0.754,-4.46023 c 0.797,-4.71907 1.142,-5.66198 2.072,-5.66198 0.896,0 1.518,1.31433 2.957,6.24922 1.669,5.72481 3.753,10.40098 5.434,12.19812 0.713,0.7622 2.458,2.13885 3.877,3.05922 1.419,0.92038 3.236,2.30127 4.038,3.06864 2.133,2.04158 5.747,4.33482 6.165,3.91185 0.199,-0.2013 2.099,-3.79321 4.222,-7.98202 2.124,-4.18881 4.594,-8.8396 5.49,-10.33509 0.895,-1.49548 2.246,-4.12511 3.002,-5.84362 1.919,-4.36594 11.087,-22.70154 11.725,-23.44867 0.289,-0.33844 0.453,-0.98739 0.366,-1.44211 -0.236,-1.22996 -2.785,-1.44207 -17.907,-1.49004 -16.94,-0.0537 -43.504,-0.46422 -52.415,-0.80995 l -6.811,-0.26427 -0.819,1.25126 c -0.902,1.37945 -0.8,1.9434 1.525,8.41781 0.618,1.71851 1.693,4.96325 2.39,7.21053 0.697,2.24728 2.004,6.24912 2.905,8.89298 0.9,2.64386 2.947,8.7007 4.548,13.45965 1.601,4.75895 3.765,10.95359 4.809,13.76588 1.045,2.81228 2.412,6.92228 3.038,9.13333 0.626,2.21105 2.44,7.80562 4.032,12.43237 1.591,4.62675 3.152,9.16939 3.467,10.09474 0.316,0.92535 0.853,2.49364 1.193,3.48508 0.34,0.99145 0.42,1.80264 0.177,1.80264 -0.243,0 -0.441,-0.23946 -0.441,-0.53214 0,-0.29267 -0.309,-0.41358 -0.686,-0.26869 -0.707,0.27164 -1.376,-1.34047 -3.861,-9.29391 -3.963,-12.68934 -8.416,-25.9564 -11.778,-35.09123 -0.827,-2.24728 -2.23,-6.35728 -3.119,-9.13333 -0.888,-2.77605 -2.195,-6.66974 -2.905,-8.65263 -0.709,-1.9829 -1.569,-4.68685 -1.909,-6.00878 -0.341,-1.32193 -1.469,-4.88604 -2.507,-7.92026 -2.118,-6.19094 -2.446,-6.23808 -3.425,-0.49202 -0.293,1.71851 -0.835,4.63878 -1.205,6.48948 -1.012,5.05943 -3.214,16.62749 -3.477,18.26666 -0.378,2.34618 -2.995,16.16754 -4.824,25.4772 -2.577,13.11305 -4.544,23.8008 -5.661,30.76491 -1.398,8.71163 -1.569,9.46184 -2.323,10.21716 -0.704,0.70529 -0.793,0.7036 -1.071,-0.0202 z m 102.324,-40.12061 c -0.184,-4.42846 -0.439,-10.53938 -0.568,-13.57982 -0.128,-3.04044 -0.439,-8.23202 -0.691,-11.53684 -0.252,-3.30483 -0.569,-8.38825 -0.706,-11.29649 -0.701,-14.97995 -1.096,-19.29092 -1.709,-18.67206 -0.221,0.22297 -3.73,7.00302 -7.798,15.06679 -4.068,8.06378 -9.146,18.03452 -11.284,22.1572 l -3.889,7.4958 4.897,3.3059 c 2.693,1.81824 5.869,4.08519 7.057,5.03766 1.188,0.95247 3.996,2.93571 6.241,4.4072 2.244,1.47149 4.92,3.34841 5.946,4.17093 1.026,0.82252 2.085,1.49549 2.352,1.49549 0.323,0 0.374,-2.71499 0.152,-8.05176 z m -52.15,32.44737 c -1.27,-2.05946 -1.662,-3.67832 -1.043,-4.29853 0.349,-0.34979 0.809,0.0995 1.511,1.4773 0.554,1.089 1.322,1.98 1.705,1.98 0.384,0 1.322,-1.24381 2.087,-2.76403 2.933,-5.83545 3.712,-7.08396 4.521,-7.23999 1.135,-0.21883 1.051,0.54927 -0.294,2.68288 -0.621,0.98619 -1.299,2.33386 -1.506,2.99483 -0.207,0.66096 -0.778,1.71764 -1.27,2.34816 -0.492,0.63052 -0.894,1.40103 -0.894,1.71223 0,0.63069 -2.557,2.66943 -3.348,2.66943 -0.278,0 -0.94,-0.70302 -1.469,-1.56228 z m -2.623,-5.64824 c -0.164,-0.26439 -0.07,-0.4807 0.211,-0.4807 0.28,0 0.509,0.21631 0.509,0.4807 0,0.26438 -0.1,0.4807 -0.212,0.4807 -0.116,0 -0.345,-0.21632 -0.508,-0.4807 z m -6.121,-39.00932 c -1.315,-0.48661 -1.912,-2.33103 -0.754,-2.33103 1.445,0 3.776,1.21468 3.644,1.8993 -0.176,0.91531 -1.178,1.06503 -2.89,0.43173 z m 0.06,-4.01403 c -2.327,-1.21414 -4.741,-3.67975 -4.741,-4.84336 0,-1.27028 1.578,-0.69564 3.155,1.14863 0.919,1.07549 2.376,2.10042 3.526,2.48045 1.348,0.44566 1.959,0.9235 1.959,1.53211 0,1.19177 -1.191,1.09467 -3.899,-0.31783 z m 1.739,-4.41016 c -2.301,-1.22572 -7.44,-6.50006 -7.44,-7.63648 0,-0.55654 0.129,-1.14119 0.287,-1.29923 0.453,-0.45412 1.633,0.16488 1.633,0.85695 0,0.98849 4.851,5.69468 6.84,6.63561 1.854,0.8767 2.451,2.26349 0.96,2.22934 -0.462,-0.0106 -1.488,-0.36437 -2.28,-0.78619 z m 0.569,-4.84281 c -1.505,-1.52022 -3.304,-3.84561 -3.998,-5.16754 -0.694,-1.32193 -1.664,-2.97769 -2.156,-3.67947 -1.105,-1.57469 -1.141,-2.61256 -0.106,-3.01024 0.965,-0.37082 0.798,-0.57602 2.113,2.60374 1.365,3.30195 4.178,7.16273 6.695,9.18801 1.058,0.85159 1.924,1.83661 1.924,2.18894 0,1.39327 -1.869,0.5061 -4.472,-2.12344 z m 8.792,-43.38478 c -10.173,-1.31314 -20.518,-8.65502 -25.226,-17.90263 -1.641,-3.22203 -2.066,-3.72365 -3.163,-3.72544 -2.897,-0.005 -4.222,-2.71075 -4.239,-8.65469 -0.01,-4.26514 0.686,-6.54849 2.235,-7.31295 1.108,-0.54711 1.374,-1.20217 2.299,-5.666 1.384,-6.684852 3.496,-10.64153 8.281,-15.515854 3.515,-3.581048 4.886,-4.59919 9.762,-7.252496 1.205,-0.655456 2.456,-1.511411 2.779,-1.902124 0.324,-0.390712 1.823,-1.18578 3.331,-1.766818 3.556,-1.370746 3.68,-1.422345 10.269,-4.290214 3.085,-1.342501 5.716,-2.440912 5.847,-2.440912 0.131,0 1.639,-0.648947 3.35,-1.442105 3.345,-1.550239 5.596,-1.86403 5.596,-0.779912 0,0.962369 -1.196,1.804911 -2.08,1.465227 -0.419,-0.160971 -1.904,0.243926 -3.301,0.899772 -1.396,0.655846 -4.051,1.792999 -5.899,2.527007 -1.849,0.734008 -4.441,1.837475 -5.761,2.452151 -2.023,0.941984 -2.197,1.118329 -1.107,1.122287 0.711,0.0026 2.007,-0.404002 2.88,-0.90352 0.873,-0.499519 2.398,-1.050239 3.389,-1.223823 0.991,-0.173584 3.259,-0.934071 5.04,-1.689972 1.782,-0.755901 4.171,-1.623214 5.309,-1.927363 1.139,-0.304149 2.381,-0.672318 2.76,-0.818154 0.41,-0.157547 0.69,0.02589 0.69,0.451995 0,0.443177 -0.962,1.022485 -2.52,1.516387 -3.512,1.113855 -11.4,4.734814 -11.4,5.233129 0,0.784241 8.044,-1.152759 10.641,-2.562303 0.974,-0.528132 8.178,-2.397996 9.24,-2.397996 1.876,0 0.444,0.911552 -2.96,1.885409 -2.047,0.585231 -4.153,1.248889 -4.681,1.474796 -0.528,0.225908 -1.993,0.784101 -3.256,1.24043 -2.309,0.834564 -3.073,1.405883 -2.392,1.789019 0.511,0.287324 4.715,-0.680175 10.742,-2.471837 5.517,-1.640113 6.187,-1.754022 6.187,-1.052135 0,0.254196 -0.918,0.704444 -2.04,1.000553 -2.843,0.750306 -10.921,3.92508 -10.921,4.292267 0,0.166405 1.007,0.792319 2.237,1.39092 4.394,2.137406 10.584,7.670488 12.98,11.601455 1.478,2.424546 4.055,9.011004 4.514,11.536844 0.791,4.35994 0.945,4.79803 2.085,5.93986 1.531,1.5326 1.925,3.90652 1.216,7.32498 -0.633,3.05272 -2.148,5.80477 -3.998,7.26194 -0.654,0.51577 -1.525,1.74003 -1.934,2.72058 -0.409,0.98055 -1.076,2.11593 -1.483,2.52306 -0.407,0.40714 -1.394,1.69333 -2.194,2.85822 -1.743,2.53627 -7.435,7.43432 -10.5,9.03567 -7.866,4.10915 -14.093,5.25391 -22.604,4.15529 z m 15.023,-3.14457 c 8.986,-3.13218 16.138,-9.11811 20.076,-16.8031 2.687,-5.24527 3.372,-8.17568 3.334,-14.27315 -0.05,-8.71796 -3.517,-17.936299 -8.615,-22.92582 -3.981,-3.897356 -9.464,-7.422672 -14.697,-9.449015 -2.915,-1.128942 -4.091,-1.307074 -8.881,-1.345352 -7.904,-0.06317 -15.867,2.07825 -18.48,4.96994 -0.478,0.529095 -1.117,0.961991 -1.42,0.961991 -1.152,0 -6.285,5.181504 -8.502,8.582348 -4.431,6.797133 -6.111,15.720338 -4.71,25.011358 1.854,12.28851 12.038,22.87987 24.952,25.94931 1.188,0.28239 2.592,0.61568 3.12,0.74064 2.304,0.54531 10.642,-0.31077 13.823,-1.41915 z m -16.097,-9.61348 c -1.735,-0.55362 -2.346,-1.01311 -2.578,-1.9371 -0.396,-1.57866 -0.169,-1.75364 2.819,-2.17994 4.25,-0.60629 9.62,-0.46876 10.596,0.27132 3.443,2.61309 -5.147,5.66159 -10.837,3.84572 z m 7.919,-2.07441 c 0.41,-0.41093 0.01,-0.5469 -1.589,-0.54198 -2.72,0.008 -4.369,0.44837 -3.988,1.06465 0.382,0.6196 4.854,0.20045 5.577,-0.52267 z m -4.491,-12.44591 c -0.563,-1.47982 -0.05,-4.01546 0.883,-4.3252 0.416,-0.13907 0.57,0.6367 0.541,2.72637 -0.04,3.11967 -0.606,3.75085 -1.424,1.59883 z m -12.819,-4.06193 c -0.317,-0.31727 -0.576,-0.88454 -0.576,-1.26062 0,-0.54415 -0.143,-0.56515 -0.699,-0.10283 -0.804,0.66828 -1.701,0.28232 -1.701,-0.73194 0,-2.49533 4.986,-3.52432 8.041,-1.65936 1.939,1.18436 2.064,2.14917 0.229,1.78173 -1.105,-0.22134 -1.468,-0.0278 -2.138,1.14167 -0.841,1.46835 -2.17,1.81837 -3.156,0.83135 z m 23.217,-0.50474 c -0.613,-2.05875 -0.709,-2.15821 -1.857,-1.9383 -1.45,0.27745 -1.951,-0.39978 -1.13,-1.52477 0.87,-1.19082 4.57,-1.53121 6.391,-0.58795 2.026,1.04914 2.932,2.20498 2.121,2.70681 -0.342,0.21183 -1.012,0.28311 -1.488,0.15841 -0.545,-0.14269 -1.065,0.1464 -1.404,0.77997 -0.587,1.09834 -2.346,1.36949 -2.633,0.40583 z m -41.105,5.97511 c -0.437,-1.46263 -0.765,-1.85952 -1.353,-1.63925 -0.692,0.25914 -0.699,0.19638 -0.07,-0.57909 1.218,-1.49754 0.783,-7.05386 -0.491,-6.26555 -0.532,0.32914 -0.61,8.38842 -0.09,9.15951 0.41,0.6056 2.191,1.64375 2.422,1.41177 0.09,-0.0866 -0.102,-1.02595 -0.42,-2.08739 z m 69.394,-3.99584 c 0.195,-1.30197 0.141,-2.34562 -0.132,-2.51396 -0.268,-0.1664 -0.603,0.9388 -0.793,2.61948 -0.181,1.59903 -0.438,3.27127 -0.572,3.71609 -0.133,0.44482 0.07,0.26781 0.461,-0.39336 0.386,-0.66117 0.853,-2.20388 1.036,-3.42825 z m -39.828,-40.222398 c -0.148,-0.148002 -0.535,-3.05e-4 -0.861,0.328215 -0.471,0.474749 -0.415,0.529964 0.269,0.269094 0.473,-0.180518 0.739,-0.449308 0.592,-0.597309 z m -82.818,46.560728 c -2.884,-0.89509 -5.924,-2.6924 -7.666,-4.53099 -2.393,-2.5256 -4.449,-5.40973 -5.234,-7.33962 -0.603,-1.48282 -0.675,-1.51096 -3.982,-1.56137 -1.853,-0.0282 -3.577,-0.18027 -3.831,-0.33785 -0.255,-0.15759 -1.892,-0.37652 -3.638,-0.48652 -3.566,-0.22471 -11.264,-1.90532 -13.092,-2.85842 -2.211,-1.15288 -4.775,-4.10746 -5.319,-6.128726 -0.581,-2.162479 0.03,-6.566234 1.282,-9.23663 0.785,-1.674746 4.955,-5.088697 7.534,-6.16754 1.575,-0.659154 7.742,-2.171043 13.064,-3.20322 1.056,-0.20479 5.611,-0.523746 10.121,-0.708792 6.554,-0.268908 9.015,-0.18357 12.259,0.425113 5.024,0.942716 11.806,3.373444 13.308,4.76967 1.705,1.584134 3.387,4.719973 3.842,7.16141 0.468,2.507897 -0.572,5.954289 -2.378,7.879141 -2.116,2.255974 -8.475,4.816434 -14.778,5.950594 -3.784,0.68079 -5.169,1.54968 -5.621,3.52483 -1.113,4.86174 1.207,9.43185 5.143,10.13075 2.159,0.38349 3.872,2.03992 2.807,2.71466 -0.823,0.5214 -2.149,0.52261 -3.821,0.004 z m -5.602,-6.63515 c -0.679,-2.63948 -0.409,-7.69944 0.462,-8.66344 0.451,-0.49837 0.819,-1.15536 0.819,-1.45998 0,-0.59614 0.201,-0.65651 6.001,-1.8073 7.62,-1.51197 11.254,-3.15826 13.658,-6.18731 3.331,-4.197508 0.757,-10.706073 -4.975,-12.577457 -1.344,-0.438629 -2.659,-0.964051 -2.923,-1.167604 -0.976,-0.752491 -4.931,-1.548083 -9.512,-1.91326 -9.582,-0.763938 -26.966,1.397914 -31.299,3.892285 -5.423,3.122746 -6.859,5.118913 -7.289,10.133224 l -0.275,3.202661 2.106,2.205101 c 1.955,2.04679 2.451,2.2889 6.907,3.37219 4.716,1.14661 12.538,2.20549 16.321,2.20929 2.881,0.003 4.08,0.45124 4.08,1.52568 0,0.51923 0.794,2.17045 1.764,3.66937 3.042,4.69912 4.844,6.24551 4.155,3.56655 z"
         id="path1" /></g></g></svg>
