<?xml version="1.0" encoding="UTF-8" standalone="no"?>
<!-- Created with Inkscape (http://www.inkscape.org/) -->

<svg
   width="61.221001mm"
   height="62.240601mm"
   viewBox="0 0 61.221 62.240601"
   version="1.1"
   id="svg1"
   xml:space="preserve"
   xmlns="http://www.w3.org/2000/svg"
   xmlns:svg="http://www.w3.org/2000/svg"><defs
     id="defs1" /><g
     id="layer1"
     transform="translate(1472.671,3650.7208)"><g
       id="g1105"
       transform="matrix(0.1976308,0,0,0.1976308,-3641.0007,-3744.0998)"><path
         style="fill:#000000"
         d="m 11056.252,734.00473 c 0,-0.4651 2.278,-5.36243 4.397,-9.45312 1.699,-3.27946 4.252,-9.2662 4.252,-9.97047 0,-0.25869 -0.487,-0.34977 -1.081,-0.2024 -5.134,1.27242 -7.707,1.6838 -9.97,1.59434 -2.911,-0.11506 -2.811,0.0684 -2.147,-3.92206 0.244,-1.46237 0.02,-2.80444 -0.941,-5.52471 -0.694,-1.97622 -2.133,-6.18733 -3.198,-9.35804 -1.064,-3.1707 -2.222,-6.41346 -2.573,-7.20614 -0.35,-0.79267 -0.894,-2.30596 -1.208,-3.36286 -0.314,-1.0569 -0.739,-2.35401 -0.946,-2.88246 -0.206,-0.52845 -0.969,-2.79838 -1.696,-5.0443 -0.727,-2.24591 -1.623,-4.73203 -1.99,-5.5247 -0.658,-1.42246 -2.682,-7.79313 -3.662,-11.52983 -1.483,-5.65549 -6.58,-20.70457 -7.625,-22.51357 -0.284,-0.49234 -0.598,-1.31471 -0.696,-1.82749 -0.1,-0.51279 -0.731,-2.30868 -1.404,-3.99088 -0.673,-1.6822 -1.224,-3.35867 -1.224,-3.7255 0,-0.36683 -0.317,-1.0866 -0.705,-1.5995 -0.388,-0.51289 -0.716,-1.3649 -0.728,-1.89335 -0.03,-1.49846 -0.952,0.16628 -0.962,1.7455 0,0.8126 -0.318,1.3464 -0.876,1.49241 -0.494,0.12914 -1.241,1.19881 -1.729,2.47693 -0.472,1.23729 -1.651,3.70038 -2.619,5.47353 -0.968,1.77315 -2.184,4.19674 -2.702,5.38575 -0.519,1.18901 -1.06,2.26994 -1.202,2.40205 -0.441,0.41007 -2.891,5.5114 -2.891,6.01963 0,0.26463 -0.817,1.88291 -1.816,3.59618 -1,1.71327 -2.541,4.9526 -3.426,7.19852 -0.885,2.24591 -1.871,4.40775 -2.193,4.80409 -1.463,1.8042 -2.064,4.52235 -1.646,7.44634 0.226,1.58536 0.531,4.28766 0.677,6.00512 0.146,1.71747 0.482,5.2845 0.746,7.92676 0.265,2.64225 0.697,7.07402 0.961,9.84839 0.263,2.77436 0.689,6.3414 0.947,7.92675 0.689,4.24667 1.951,18.51546 1.677,18.95887 -0.13,0.20995 -0.63,0.48469 -1.111,0.61053 -0.711,0.18579 -0.841,-0.007 -0.692,-1.02293 0.164,-1.11916 -0.379,-7.01339 -1.776,-19.26708 -0.256,-2.24591 -0.595,-5.81295 -0.754,-7.92676 -0.159,-2.1138 -0.404,-4.70801 -0.546,-5.76491 -0.142,-1.0569 -0.749,-6.24532 -1.35,-11.52982 -1.068,-9.40387 -1.073,-9.64395 -0.202,-11.28962 0.489,-0.92479 1.985,-4.16755 3.324,-7.20614 2.447,-5.55192 2.872,-6.42693 6.755,-13.93187 1.162,-2.24592 4.455,-9.05993 7.319,-15.14226 4.044,-8.5907 5.476,-11.1859 6.414,-11.62839 0.887,-0.41863 5.429,-0.50835 17.133,-0.33847 l 15.925,0.23115 -3.448,-0.94257 c -1.896,-0.51841 -4.101,-1.28067 -4.901,-1.69391 -0.799,-0.41324 -1.696,-0.75134 -1.994,-0.75134 -0.82,0 -7.667,-4.67136 -9.757,-6.65678 -1.014,-0.96272 -2.282,-2.61513 -2.818,-3.67203 -0.536,-1.0569 -1.491,-2.60981 -2.121,-3.45091 -0.631,-0.8411 -1.147,-1.74301 -1.147,-2.00424 0,-0.26124 -0.486,-1.57248 -1.081,-2.91388 -0.963,-2.1731 -1.243,-2.43898 -2.568,-2.43954 -2.154,-9.2e-4 -3.025,-1.27298 -3.483,-5.08641 -0.756,-6.28759 0.04,-9.56024 2.478,-10.19181 1.283,-0.33262 1.506,-0.70083 2.321,-3.83522 0.495,-1.907 1.728,-5.25061 2.741,-7.43023 2.817,-6.06577 6.092,-9.7997 12.366,-14.10042 1.716,-1.17581 10.371,-5.20535 13.893,-6.46792 1.321,-0.47367 3.916,-1.43802 5.766,-2.14299 9.08,-3.46047 15.135,-4.85185 15.135,-3.478 0,0.4922 -0.941,0.91334 -3.003,1.3438 -4.126,0.86127 -15.793,5.19111 -14.159,5.25466 0.206,0.008 1.715,-0.43664 3.352,-0.98817 5.103,-1.71858 15.683,-4.28173 17.674,-4.28173 2.768,0 2.327,0.71627 -0.861,1.39919 -4.101,0.87852 -13.697,3.92257 -13.376,4.24332 0.489,0.48846 3.713,0.17112 6.486,-0.63824 6.854,-2.00096 15.309,-4.04345 16.739,-4.04345 0.331,0 0.601,0.20703 0.601,0.46007 0,0.25303 -1.567,0.908 -3.483,1.45548 -1.916,0.54749 -4.673,1.33223 -6.126,1.74387 -5.336,1.51102 -7.208,2.19274 -7.208,2.62451 0,0.73009 2.608,0.50123 5.843,-0.51282 3.429,-1.07448 5.474,-1.22299 5.962,-0.4329 0.396,0.64066 -0.628,1.36996 -1.939,1.38016 -1.246,0.01 -5.061,1.47732 -5.061,1.94727 0,0.20248 0.618,0.58332 1.372,0.84632 2.593,0.90373 8.024,6.10523 10.24,9.80676 3.558,5.94356 6.158,12.75032 6.163,16.13646 0,1.32617 0.237,1.66792 1.43,2.08391 1.69,0.58892 2.224,2.47997 1.773,6.2832 -0.373,3.14885 -1.686,5.63049 -3.704,7.00151 -0.967,0.6568 -2.016,2.0158 -2.601,3.36654 -1.322,3.05713 -3.812,7.30789 -5.161,8.80918 -2.254,2.5091 -7.675,6.6888 -10.57,8.15001 -3.336,1.68385 -7.809,3.28027 -9.272,3.30947 -0.529,0.0105 -1.285,0.24022 -1.682,0.5104 -0.494,0.33697 4.937,0.42136 17.297,0.26872 19.307,-0.23843 21.37,-0.0582 22.128,1.93368 0.227,0.5981 1.882,2.65972 3.677,4.58139 1.796,1.92166 4.873,5.22915 6.84,7.34998 3.21,3.4628 9.217,9.7857 17.63,18.55768 1.622,1.69043 4.893,4.97076 7.27,7.28962 l 4.322,4.21611 4.245,-0.74015 c 2.334,-0.40708 4.441,-0.93628 4.681,-1.17601 0.239,-0.23972 0.692,-0.33762 1.005,-0.21755 1.034,0.39707 9.361,-2.12045 11.994,-3.62618 3.12,-1.7852 5.677,-4.78145 6.96,-8.15669 1.301,-3.42543 3.191,-5.80526 4.608,-5.80526 0.625,0 1.231,0.27023 1.345,0.60051 0.252,0.72373 -1.043,5.41267 -2.451,8.88034 l -1.021,2.51491 1.495,0.77291 c 1.088,0.56248 2.091,0.68348 3.686,0.44444 2.895,-0.43418 6.786,-1.98769 8.139,-3.25029 0.817,-0.76165 1.225,-0.87747 1.637,-0.46471 0.883,0.8822 -0.388,1.99394 -4.646,4.06438 -3.912,1.90214 -3.684,1.99698 1.441,0.5998 4.958,-1.35152 5.045,-1.36163 5.045,-0.58545 0,1.0073 -0.971,1.69978 -2.848,2.03042 -0.885,0.1558 -2.036,0.5121 -2.559,0.79178 -1.135,0.60735 -10.533,2.32027 -11.049,2.01382 -0.198,-0.1177 -0.361,-0.52141 -0.361,-0.89712 0,-0.67804 0.386,-0.82658 4.085,-1.57464 l 1.921,-0.38869 -2.996,-0.32183 c -4.349,-0.46706 -5.059,-1.02535 -4.707,-3.70076 l 0.285,-2.16184 -1.255,1.44123 c -3.056,3.50983 -3.84,4.19943 -6.03,5.30938 -3.248,1.64529 -5.665,2.39313 -11.483,3.5514 -2.774,0.55249 -6.088,1.21691 -7.364,1.47648 -4.704,0.95743 -5.12,0.8118 -8.519,-2.98354 -5.336,-5.95697 -16.89,-18.23228 -18.163,-19.29785 -1.352,-1.13088 -10.595,-10.73106 -12.553,-13.03716 -4.29,-5.05429 -5.372,-5.60901 -6.007,-3.07952 -0.281,1.11961 -0.02,1.40226 2.771,3.03613 3.697,2.16176 9.956,8.36915 9.956,9.87444 0,0.57273 -0.234,1.47713 -0.519,2.00978 -0.416,0.77757 -0.29,1.31579 0.641,2.73077 1.711,2.60323 7.815,15.11162 7.733,15.84632 -0.04,0.3479 0.04,0.51847 0.182,0.37904 0.461,-0.46137 2.053,3.24738 2.053,4.78418 0,1.2088 -0.52,1.99301 -2.613,3.94077 -1.911,1.77813 -2.763,2.99145 -3.171,4.51452 -0.306,1.14558 -0.789,2.36559 -1.072,2.71114 -0.859,1.0472 -3.708,2.01398 -5.936,2.01398 -3.296,0 -2.459,1.71903 0.977,2.00595 2.721,0.22713 3.152,1.26889 1.48,3.57198 -1.901,2.6182 -6.677,7.13899 -8.531,8.07555 -0.855,0.43195 -1.967,1.04962 -2.47,1.3726 -0.503,0.32297 -2.012,1.28983 -3.352,2.14856 -1.341,0.85873 -2.835,1.56133 -3.322,1.56133 -0.949,0 -0.879,0.65003 0.385,3.60307 0.951,2.21849 2.397,6.17165 4.572,12.49064 1.091,3.1707 2.266,6.41347 2.61,7.20614 0.345,0.79268 1.435,3.38689 2.423,5.76491 0.988,2.37803 2.311,4.76418 2.941,5.30255 1.554,1.32852 1.443,1.66339 -0.549,1.66339 -1.411,0 -1.773,-0.22026 -2.172,-1.32113 -0.263,-0.72661 -0.663,-1.75349 -0.888,-2.28194 -2.514,-5.8958 -3.895,-9.42854 -3.895,-9.96581 0,-0.35818 -0.19,-0.85661 -0.421,-1.10763 -0.232,-0.25101 -0.801,-1.6454 -1.265,-3.09864 -0.464,-1.45323 -0.997,-2.85843 -1.184,-3.12266 -0.188,-0.26422 -0.842,-2.10179 -1.454,-4.08348 -0.612,-1.98169 -1.265,-3.81925 -1.452,-4.08348 -0.186,-0.26422 -0.729,-1.74527 -1.206,-3.29121 l -0.868,-2.8108 -1.948,0.31153 c -1.072,0.17134 -2.283,0.61457 -2.693,0.98496 -0.451,0.4078 -0.999,0.51588 -1.39,0.27401 -0.449,-0.27741 -1.62,0.54584 -3.833,2.69488 -1.753,1.70187 -4.271,3.67607 -5.596,4.38711 -5.11,2.74213 -11.363,5.49638 -12.48,5.49638 -1.634,0 -2.177,0.78846 -5.041,7.32624 -4.529,10.33998 -6.313,13.69167 -7.286,13.69167 -0.491,0 -0.892,-0.17787 -0.892,-0.39527 z m 6.246,-21.52413 c 2.511,-0.6834 5.096,-1.2396 5.746,-1.23601 1.527,0.008 7.304,-2.29049 10.521,-4.18696 1.383,-0.8152 2.721,-1.48219 2.973,-1.48219 0.823,0 6.27,-5.4806 7.176,-7.2206 0.486,-0.93274 1.247,-2.94543 1.691,-4.47264 l 0.807,-2.77674 -2.312,-6.09637 c -2.737,-7.21811 -2.961,-9.72633 -1.392,-15.58648 2.389,-8.92088 3.87,-12.16008 6.791,-14.8491 7.69,-7.07892 8.593,-8.66689 8.56,-15.05436 -0.02,-4.84314 -0.586,-6.37954 -3.281,-8.98529 -4.213,-4.07319 -18.199,-4.27615 -26.949,-0.39105 -0.529,0.23467 -2.013,0.87198 -3.299,1.41625 -10.287,4.35336 -17.414,15.4328 -17.637,27.41667 -0.113,6.09418 1.349,16.60659 2.516,18.08364 0.238,0.30179 1.103,2.57172 1.921,5.0443 2.02,6.10029 2.067,11.52747 0.177,20.34911 -0.735,3.43492 -1.324,6.60922 -1.309,7.05399 0.02,0.44478 -0.281,1.06575 -0.66,1.37995 -0.378,0.3142 -0.688,0.95916 -0.688,1.43324 0,1.76972 2.562,1.81732 8.648,0.16064 z m -7.653,-10.98864 c 1.605,-7.6642 1.545,-13.28763 -0.195,-18.25556 -0.74,-2.1138 -1.645,-4.49182 -2.01,-5.2845 -0.581,-1.25961 -0.95,-3.1569 -2.433,-12.49064 -0.167,-1.0569 -0.276,-4.08226 -0.242,-6.72301 0.06,-4.36357 0.391,-6.35518 1.529,-9.1305 0.216,-0.52845 0.636,-1.93365 0.931,-3.12266 0.296,-1.18902 1.025,-2.91849 1.62,-3.84328 0.596,-0.92479 1.648,-2.57733 2.339,-3.67231 1.804,-2.85908 5.734,-6.06425 10.439,-8.51227 5.203,-2.70769 7.428,-3.44172 13.805,-4.5547 6.061,-1.05796 10.451,-0.82846 17.132,0.89559 4.836,1.24788 5.33,1.12227 6.429,-1.63306 0.624,-1.56313 0.633,-1.89901 0.06,-2.26081 -0.371,-0.23433 -14.572,-0.43529 -31.663,-0.44804 -17.045,-0.0127 -34.811,-0.13222 -39.48,-0.26557 -4.668,-0.13335 -8.606,-0.0527 -8.749,0.17926 -0.144,0.23195 0.94,3.75304 2.408,7.82467 2.468,6.84446 10.515,30.61138 13.974,41.2718 0.814,2.51014 1.817,5.53672 2.228,6.72573 0.411,1.18902 1.492,4.43178 2.402,7.20614 0.91,2.77437 2.77,8.17897 4.134,12.01024 1.365,3.83126 2.701,7.69445 2.971,8.58486 0.269,0.89041 0.664,1.43087 0.876,1.20103 0.213,-0.22985 0.885,-2.79593 1.493,-5.70241 z m 43.689,-5.16888 c 1.454,-0.56408 3.68,-1.63155 4.946,-2.37215 1.267,-0.7406 2.404,-1.34654 2.527,-1.34654 0.959,0 8.864,-6.82551 8.864,-7.65348 0,-0.26885 -0.617,-0.80759 -1.37,-1.19721 -2.486,-1.28492 -3.734,-4.54574 -2.493,-6.50831 0.382,-0.60446 0.701,-0.61476 2.204,-0.0713 1.407,0.50899 2.169,0.51968 3.833,0.0538 2.163,-0.60541 2.609,-1.21795 3.475,-4.77235 0.284,-1.16297 0.891,-1.92564 2.049,-2.57231 1.414,-0.78999 3.353,-2.55034 3.353,-3.04452 0,-0.64301 -1.627,-4.0197 -1.936,-4.0197 -0.215,0 -0.533,-0.65077 -0.708,-1.44616 -0.175,-0.7954 -0.67,-1.79809 -1.1,-2.22822 -0.43,-0.43013 -0.85,-1.23859 -0.934,-1.79659 -0.156,-1.04515 -3.881,-8.99326 -4.416,-9.42172 -0.164,-0.13211 -0.834,-1.29117 -1.489,-2.57568 -1.377,-2.70453 -5.614,-6.71516 -8.396,-7.94752 l -1.922,-0.85137 v 4.16126 c 0,5.60474 -1.029,7.59919 -6.809,13.21843 -5.06,4.91881 -5.648,5.99948 -7.81,14.34405 -1.814,7.00092 -1.813,9.04046 0,14.24031 3.119,8.90313 3.041,8.49065 2.177,11.5972 -0.428,1.54032 -0.778,3.03902 -0.778,3.33046 0,0.73365 3.415,0.16483 6.726,-1.12037 z m 12.632,-36.23716 c -0.135,-0.35023 0.508,-1.47033 1.429,-2.48912 0.921,-1.01879 1.905,-2.26028 2.188,-2.75886 0.475,-0.83908 0.573,-0.84814 1.309,-0.12184 0.65,0.64242 0.691,0.97723 0.226,1.84686 -0.482,0.8993 -0.407,1.23397 0.484,2.18233 0.579,0.61607 0.911,1.34907 0.738,1.62889 -0.465,0.75165 -6.073,0.49805 -6.374,-0.28826 z m 67.128,-9.33385 c 0,-0.26423 -0.216,-0.3468 -0.481,-0.1835 -0.264,0.1633 -0.48,0.51309 -0.48,0.77731 0,0.26423 0.216,0.3468 0.48,0.1835 0.265,-0.1633 0.481,-0.51309 0.481,-0.77731 z m -62.462,-10.01006 c 0,-0.46665 -0.436,-0.92197 -4.719,-4.93404 -1.98,-1.85535 -7.124,-5.17639 -8.017,-5.17639 -0.121,0 0.208,0.76322 0.732,1.69604 0.524,0.93283 0.953,1.99351 0.953,2.35707 0,0.40984 0.342,0.57151 0.901,0.42545 1.27,-0.33214 4.291,1.32597 7.065,3.87757 2.386,2.19518 3.085,2.5924 3.085,1.7543 z M 11067.88,618.577 c 6.861,-1.41409 11.617,-3.89532 17.077,-8.91088 4.685,-4.30249 6.167,-6.63051 8.829,-13.86422 1.511,-4.10797 1.59,-4.64726 1.582,-10.80921 0,-5.53536 -0.17,-6.92677 -1.105,-9.49728 -3.655,-10.04907 -7.954,-15.28553 -16.149,-19.66895 -4.261,-2.27904 -6.265,-2.98906 -7.516,-2.6621 -0.555,0.14507 -1.162,-0.0182 -1.38,-0.371 -0.428,-0.69143 -3.06,-0.9791 -8.749,-0.95611 -6.282,0.0254 -13.814,2.8587 -19.466,7.32218 -6.682,5.27619 -10.038,10.97229 -11.943,20.27095 -1.61,7.86067 0.26,16.49295 5.437,25.09328 2.454,4.07602 3.19,4.89339 6.612,7.34343 8.195,5.86552 18.426,8.42987 26.771,6.70991 z m -1.722,-10.38889 c -0.19,-0.18954 -2.282,-0.35928 -4.648,-0.37718 -5.058,-0.0383 -6.299,-0.78653 -6.4,-3.85919 l -0.06,-1.78951 4.129,0.0905 c 2.271,0.0498 6.025,-0.1618 8.343,-0.47016 4.009,-0.53347 4.261,-0.51268 5.203,0.42888 0.896,0.8957 0.934,1.17375 0.408,2.93201 -0.399,1.33107 -1.023,2.17017 -1.982,2.66588 -1.456,0.75312 -4.397,0.97613 -4.994,0.37878 z m 4.06,-2.55472 c 0.511,-0.27352 0.929,-0.77477 0.929,-1.11389 0,-0.4828 -1.485,-0.571 -6.847,-0.40655 -3.766,0.1155 -6.937,0.29248 -7.047,0.39327 -0.643,0.58882 1.155,0.9352 6.125,1.17998 3.084,0.15187 5.675,0.31401 5.759,0.36031 0.08,0.0463 0.569,-0.1396 1.081,-0.41312 z m -7.515,-13.11383 c -0.486,-1.26766 0,-3.44339 0.756,-3.44339 0.518,0 0.721,0.52934 0.721,1.8816 0,1.90544 -0.957,2.91719 -1.477,1.56179 z m -13.006,-4.89052 c -0.153,-0.39958 -0.184,-1.37241 -0.07,-2.16184 0.196,-1.33871 0.107,-1.43533 -1.329,-1.43533 -0.847,0 -1.809,0.32428 -2.138,0.72061 -0.676,0.81494 -2.198,0.95931 -2.636,0.25014 -0.488,-0.7886 0.594,-2.24573 2.144,-2.88752 0.941,-0.38988 2.326,-0.49326 3.868,-0.28877 3.268,0.4335 3.759,0.67203 4.557,2.21543 0.603,1.1655 0.601,1.40917 -0.02,1.92225 -0.389,0.32315 -0.708,0.86223 -0.708,1.19795 0,1.25353 -3.213,1.66228 -3.672,0.46708 z m 24.816,-0.47175 c -0.328,-0.39482 -0.493,-1.25956 -0.366,-1.92164 0.282,-1.47775 -0.49,-1.56425 -2.17,-0.24296 -2.503,1.96855 -3.774,0.6729 -1.536,-1.56524 2.12,-2.12003 5.249,-2.22154 8.033,-0.26066 1.635,1.15124 1.652,1.71974 0.101,3.39214 -1.343,1.44826 -3.138,1.71257 -4.062,0.59836 z m -47.26,5.40185 c -0.153,-0.85874 -0.423,-3.23676 -0.601,-5.28451 -0.327,-3.77992 -0.879,-4.73011 -1.443,-2.48348 -0.46,1.83049 0.07,7.76095 0.767,8.60169 1.005,1.21018 1.574,0.83832 1.277,-0.8337 z m 70.776,-1.68144 c 0.626,-2.25693 0.65,-4.44378 0.05,-4.44378 -0.253,0 -0.586,0.81069 -0.741,1.80153 -0.155,0.99085 -0.376,2.39604 -0.49,3.12266 -0.311,1.96881 0.607,1.59664 1.184,-0.48041 z m 132.808,142.72087 c 0.143,-0.484 0.694,-2.60948 1.225,-4.72328 0.531,-2.1138 1.407,-5.35188 1.947,-7.19574 0.54,-1.84386 0.982,-3.58018 0.982,-3.8585 0,-0.47581 -1.36,-0.95597 -6.071,-2.14358 -3.164,-0.79795 -3.377,-1.36271 -2.135,-5.67427 3.177,-11.0264 6.468,-26.012 6.165,-28.07486 -0.107,-0.73381 -0.05,-1.33419 0.132,-1.33419 0.429,0 1.652,-6.03935 2.627,-12.97105 0.427,-3.03859 0.974,-6.27036 1.215,-7.18171 0.241,-0.91135 0.342,-1.75257 0.225,-1.86937 -0.116,-0.1168 -1.342,0.90592 -2.724,2.27272 -2.831,2.80085 -3.486,3.06093 -7.158,2.84021 l -2.607,-0.15671 0.149,-3.83759 c 0.08,-2.11067 -0.09,-5.99942 -0.384,-8.64167 -1.234,-11.1272 -0.84,-18.03343 1.248,-21.86858 l 1.237,-2.27277 -1.292,-3.54263 c -0.711,-1.94845 -1.337,-3.75882 -1.391,-4.02304 -0.345,-1.68849 -1.889,-5.56686 -2.322,-5.83447 -0.37,-0.22837 -0.412,1.53852 -0.146,6.11957 0.532,9.18696 0.305,29.82595 -0.336,30.59899 -1.37,1.64955 -1.568,-0.55112 -1.629,-18.05717 -0.07,-20.51297 -0.17,-22.29898 -1.306,-23.55385 -0.759,-0.8388 -0.768,-1.0011 -0.1,-1.67314 0.576,-0.57562 0.635,-1.03102 0.263,-2.01001 -0.265,-0.69618 -0.481,-1.79216 -0.481,-2.43552 0,-1.06869 0.197,-1.17378 2.282,-1.2163 1.255,-0.0256 3.039,-0.0216 3.964,0.009 2.544,0.0838 3.304,-0.62493 1.758,-1.6382 -0.689,-0.45113 -1.91,-2.21243 -2.714,-3.914 -0.804,-1.70157 -1.837,-3.20929 -2.295,-3.35049 -1.824,-0.56209 -2.295,-1.08402 -2.789,-3.08701 -0.376,-1.52538 -0.601,-1.86024 -0.837,-1.24479 -0.391,1.01891 -1.576,6.04388 -2.506,10.62991 -0.375,1.84958 -1.133,5.30853 -1.684,7.68655 -0.55,2.37803 -1.09,4.95012 -1.199,5.71575 -0.11,0.76563 -0.443,2.13075 -0.741,3.0336 -0.818,2.47917 -0.391,4.65123 3.144,15.99174 1.748,5.61016 3.971,14.35877 4.82,18.97617 0.683,3.71159 2.702,11.44956 5.202,19.93699 0.661,2.24591 1.333,4.67798 1.492,5.4046 0.197,0.89923 0.593,1.32113 1.241,1.32113 0.524,0 0.952,0.29077 0.952,0.64615 0,0.76385 -1.521,2.2363 -2.309,2.2363 -0.881,0 -1.878,-1.98202 -2.174,-4.32368 -0.151,-1.18901 -0.835,-3.83015 -1.521,-5.86919 -1.598,-4.7491 -2.645,-8.77346 -2.645,-10.1679 0,-0.60363 -0.15,-1.24789 -0.334,-1.43169 -0.184,-0.1838 -0.377,-0.59815 -0.429,-0.92079 -0.05,-0.32263 -0.551,-2.39982 -1.107,-4.61598 -0.557,-2.21615 -1.013,-4.4507 -1.013,-4.96566 0,-1.211 -3.072,-12.58385 -5.403,-20.00285 -1.015,-3.22908 -1.782,-3.27812 -1.797,-0.11481 0,0.89842 -0.323,3.27644 -0.709,5.2845 -0.385,2.00805 -1.386,7.21804 -2.223,11.57776 -0.836,4.35971 -1.697,9.22386 -1.911,10.80921 -0.215,1.58535 -0.741,4.39575 -1.17,6.24532 -0.428,1.84958 -0.973,4.44379 -1.209,5.76491 -0.237,1.32113 -0.78,3.80725 -1.206,5.52471 -0.427,1.71747 -0.995,4.20358 -1.262,5.52471 -0.268,1.32113 -0.827,2.78037 -1.242,3.24276 -1.063,1.18372 -4.005,1.11075 -5.064,-0.12559 -1.143,-1.33431 -1.075,-1.43473 0.974,-1.44309 2.933,-0.012 2.908,0.0235 4.485,-6.47817 0.256,-1.0569 0.596,-2.24592 0.756,-2.64226 0.16,-0.39633 0.367,-1.36916 0.459,-2.16184 0.159,-1.36609 1.174,-6.36783 2.144,-10.569 0.459,-1.98783 1.338,-7.38673 1.681,-10.3288 0.109,-0.92479 0.407,-2.54617 0.663,-3.60308 0.896,-3.69622 1.514,-6.73166 1.516,-7.44634 0,-0.39634 0.305,-2.66627 0.677,-5.0443 1.645,-10.53146 1.612,-9.91137 0.65,-12.15621 -0.494,-1.15254 -0.899,-2.50769 -0.899,-3.01146 0,-0.50376 -0.531,-2.26936 -1.181,-3.92355 -0.65,-1.65418 -1.964,-5.818 -2.921,-9.25293 -0.956,-3.43493 -2.046,-6.92655 -2.422,-7.75915 -0.376,-0.83261 -0.683,-1.74652 -0.683,-2.03092 0,-0.28439 -0.649,-1.71583 -1.441,-3.18098 -0.793,-1.46515 -1.442,-2.97188 -1.442,-3.34828 0,-0.3764 -0.512,-1.64663 -1.137,-2.82274 -0.625,-1.1761 -1.416,-2.86297 -1.757,-3.74859 l -0.619,-1.61022 -0.373,2.40205 c -0.205,1.32112 -0.727,4.88816 -1.16,7.92675 -0.432,3.03859 -1.204,6.89863 -1.714,8.57787 -1.112,3.66189 -1.143,4.9351 -0.185,7.68565 0.814,2.33707 4.472,9.37394 6.405,12.32084 0.694,1.0569 1.678,2.74031 2.187,3.74091 0.855,1.68033 0.866,1.87898 0.144,2.60099 -0.645,0.64508 -0.912,0.67368 -1.526,0.16364 -0.41,-0.33994 -0.745,-0.98164 -0.745,-1.42601 0,-0.44437 -0.652,-1.83584 -1.449,-3.09216 -0.797,-1.25633 -2.104,-3.51454 -2.905,-5.01826 -0.801,-1.50371 -1.771,-3.27448 -2.156,-3.93505 -1.466,-2.51906 -3.58,-7.75962 -3.58,-8.87573 0,-0.64081 0.304,-1.338 0.677,-1.5493 1.336,-0.75806 4.27,-17.90626 4.34,-25.36546 0.03,-2.8034 0.06,-2.87684 1.229,-2.67763 2.966,0.50571 19.529,-0.16428 23.724,-0.9596 4.98,-0.94435 6.546,-0.3758 6.546,2.37627 0,1.84609 1.059,1.60355 3.166,-0.72474 1.821,-2.01328 2.078,-2.55445 1.855,-3.89659 -0.193,-1.16452 0,-1.83259 0.751,-2.64225 0.967,-1.03884 1.332,-1.08365 8.826,-1.08365 7.776,0 7.827,0.007 9.54,1.31314 1.673,1.27514 1.707,1.36449 1.178,3.08714 -0.452,1.47335 -0.424,1.81207 0.163,1.99863 2.444,0.7764 6.713,7.40185 6.713,10.4189 0,0.99752 0.428,2.29589 1.022,3.09884 0.821,1.10994 0.954,1.74446 0.678,3.22331 -0.494,2.64265 -2.659,5.88565 -3.944,5.90726 -0.616,0.0104 -2.197,1.17195 -3.865,2.84027 -1.763,1.76204 -3.404,2.95012 -4.367,3.16175 -0.905,0.1987 -1.414,0.54916 -1.23,0.8467 0.209,0.33933 2.097,0.40107 5.691,0.1862 7.082,-0.42331 7.187,-0.37713 6.038,2.64634 -0.666,1.7523 -0.792,2.77275 -0.486,3.91918 0.489,1.82992 1.958,13.09736 2.113,16.20249 0.06,1.18901 0.347,2.59421 0.641,3.12266 0.294,0.52845 0.662,1.56673 0.819,2.3073 0.181,0.85517 0.893,1.70514 1.951,2.3294 0.946,0.5585 1.666,1.36674 1.666,1.87183 0,0.87551 -2.74,3.33986 -3.713,3.33986 -0.742,0 -1.091,1.86172 -0.593,3.17005 0.599,1.57721 0.263,2.19433 -1.94,3.55545 -1.238,0.76523 -1.737,1.33834 -1.431,1.64433 0.258,0.25834 0.47,0.7399 0.47,1.07015 0,1.07435 -2.914,4.95004 -5.086,6.76588 -1.167,0.97501 -2.121,2.00628 -2.121,2.2917 0,0.28542 0.839,2.88789 1.865,5.78328 3.042,8.58739 8.652,26.25271 8.994,28.32398 0.479,2.89481 0.998,3.60307 2.642,3.60307 1.775,0 3.315,0.76534 3.315,1.64694 0,0.89329 -1.168,1.2662 -2.888,0.9222 -1.652,-0.33031 -1.741,-0.0195 -0.741,2.58554 0.383,0.99619 1.049,3.32455 1.481,5.17413 0.431,1.84957 1.344,4.82863 2.028,6.62012 0.832,2.17683 1.085,3.417 0.763,3.73885 -0.265,0.26488 -2.518,0.86294 -5.007,1.32904 l -4.525,0.84745 0.143,2.68783 c 0.14,2.63674 0.414,3.52908 3.416,11.10972 0.818,2.06457 1.486,3.95618 1.486,4.20358 0,0.24739 -0.53,0.44981 -1.178,0.44981 -0.953,0 -1.275,-0.34535 -1.679,-1.80154 -0.275,-0.99084 -0.502,-2.06518 -0.503,-2.38743 0,-0.32224 -0.461,-1.40066 -1.02,-2.39648 -1.09,-1.94068 -2.037,-5.2334 -2.559,-8.89655 -0.178,-1.24892 -0.525,-2.39516 -0.771,-2.54723 -0.762,-0.47104 -14.605,0.81926 -14.99,1.39724 -0.397,0.59545 -1.182,2.99854 -1.824,5.58257 -0.23,0.92479 -0.924,3.73519 -1.544,6.24533 -0.985,3.98988 -1.265,4.58393 -2.228,4.72328 -0.876,0.12659 -1.049,-0.0217 -0.842,-0.72062 z m 18.568,-19.39939 c 7.848,-0.73133 12.069,-1.48865 12.348,-2.21514 0.138,-0.3585 -0.414,-2.75779 -1.226,-5.33175 -0.811,-2.57396 -1.95,-6.4094 -2.529,-8.5232 -0.58,-2.1138 -1.291,-4.07144 -1.58,-4.35031 -0.553,-0.53284 -4.008,-1.92039 -8.454,-3.39536 -3.337,-1.10685 -6.095,-2.77462 -6.427,-3.88623 -0.141,-0.47231 -0.165,-1.72348 -0.05,-2.78038 0.112,-1.0569 0.313,-5.79659 0.446,-10.53265 0.239,-8.51036 0.49,-9.69931 1.949,-9.23628 0.486,0.15415 0.513,1.99476 0.208,14.49083 -0.09,3.70267 0,7.00257 0.207,7.33311 0.204,0.33054 1.167,1.00623 2.141,1.50154 2.26,1.15058 9.226,3.55944 9.5,3.28527 0.275,-0.27457 -2.449,-9.32061 -5.098,-16.93041 -0.552,-1.58536 -1.52,-4.61193 -2.151,-6.72574 -1.052,-3.52456 -3.645,-11.33346 -3.876,-11.67391 -0.05,-0.0793 -1.183,-10e-5 -2.51,0.17589 -2.249,0.29829 -2.428,0.42197 -2.634,1.82552 -0.122,0.82805 -0.778,4.42403 -1.458,7.99107 -1.742,9.13339 -2.778,14.72639 -3.272,17.65505 -1.106,6.55136 -1.341,7.78788 -2.082,10.92931 -0.436,1.84957 -1.225,5.39451 -1.755,7.87763 -0.529,2.48312 -1.25,5.07733 -1.602,5.76491 -0.351,0.68758 -0.785,2.13189 -0.964,3.20956 -0.408,2.4547 0.03,2.85717 4.093,3.72553 3.236,0.69247 7.927,0.64107 16.779,-0.18386 z m -18.799,-53.03051 c 2.352,-1.21581 6.208,-5.99056 5.614,-6.95111 -0.44,-0.71183 0.99,-4.6743 2.312,-6.40782 1.222,-1.6014 1.667,-3.24629 0.879,-3.24629 -1.401,0 -1.838,-7.49105 -0.623,-10.68723 0.258,-0.67952 2.05,-2.48512 3.982,-4.01244 7.972,-6.30341 8.395,-7.15667 5.093,-10.26641 -2.626,-2.47351 -4.004,-2.74481 -7.461,-1.4697 -2.206,0.81349 -3.482,1.76388 -6.273,4.67257 -1.927,2.00825 -3.933,4.59186 -4.456,5.74135 -0.524,1.14949 -1.245,2.08999 -1.603,2.08999 -1.412,0 -1.971,2.93106 -1.877,9.84839 0.129,9.56217 0.637,17.26793 1.15,17.45487 0.242,0.0881 0.44,0.35152 0.44,0.58544 0,0.23391 -0.324,0.30086 -0.72,0.14877 -0.559,-0.2143 -0.721,0.11338 -0.721,1.4563 0,1.61137 0.103,1.73284 1.465,1.73284 0.806,0 2.066,-0.31028 2.799,-0.68952 z m 16.397,-9.66557 c 0.924,-0.63363 2.283,-1.9109 3.018,-2.83836 1.292,-1.63067 1.31,-1.72704 0.527,-2.92129 -0.768,-1.1727 -0.76,-1.30025 0.16,-2.52863 0.653,-0.87105 1.422,-1.29866 2.356,-1.30903 1.344,-0.0149 1.393,-0.10295 1.628,-2.88246 0.261,-3.09335 0.657,-4.06807 1.649,-4.06807 0.349,0 0.878,-0.29371 1.176,-0.6527 0.413,-0.49841 0.313,-0.94343 -0.426,-1.88267 -0.532,-0.67648 -1.109,-1.9501 -1.281,-2.83027 -0.347,-1.77399 -3.667,-5.46744 -4.469,-4.97181 -0.276,0.17038 -0.825,0.93557 -1.221,1.70043 -0.395,0.76485 -2.42,2.68508 -4.498,4.26717 -2.828,2.15248 -3.977,3.3692 -4.563,4.83393 -1.096,2.73854 -1.018,6.05178 0.178,7.57179 1.406,1.78773 1.197,3.65342 -0.721,6.4419 -2.492,3.62285 -2.345,3.95801 1.562,3.55593 2.227,-0.2292 3.77,-0.69479 4.925,-1.48586 z m 5.119,-15.32651 c -0.181,-0.47078 -0.893,-0.74092 -1.953,-0.74092 -2.202,0 -2.668,-0.86788 -1.139,-2.12125 0.672,-0.55078 1.584,-1.7178 2.027,-2.59338 1.098,-2.16803 1.931,-1.70112 2.053,1.15159 0.06,1.29911 0.163,2.8833 0.24,3.52041 0.157,1.31044 -0.793,1.91686 -1.228,0.78355 z m -20.96,-13.78441 c 1.181,-1.36096 2.363,-2.75173 2.627,-3.09059 0.929,-1.1911 5.228,-3.09209 8.253,-3.64933 2.645,-0.48728 3.284,-0.45466 4.746,0.24214 2.148,1.02447 2.136,1.0265 2.136,-0.36737 0,-0.64496 0.217,-1.30628 0.481,-1.46958 0.264,-0.1633 0.484,-1.20293 0.489,-2.31029 0,-1.36083 0.47,-2.79191 1.433,-4.41544 2.57,-4.33265 3.556,-4.03965 -14.095,-4.19072 -8.545,-0.0731 -15.878,-0.0666 -16.295,0.0144 -0.892,0.17335 -0.51,2.04865 0.837,4.10452 0.451,0.68812 0.995,1.95862 1.208,2.82331 0.213,0.8647 1.158,3.38556 2.099,5.60191 0.942,2.21636 2.049,5.18889 2.461,6.60563 0.412,1.41674 0.912,2.57589 1.111,2.57589 0.2,0 1.329,-1.11351 2.509,-2.47448 z m 22.641,-3.13895 c -0.278,-1.80078 -0.645,-4.35259 -0.816,-5.6707 l -0.312,-2.39656 -0.688,1.31317 c -1.304,2.48822 -1.639,5.70458 -0.796,7.64349 0.655,1.50599 2.406,3.01177 2.947,2.53386 0.09,-0.082 -0.06,-1.62249 -0.335,-3.42326 z m -44.047,-5.79629 c 0.151,-0.99084 0.688,-3.20673 1.194,-4.92419 0.505,-1.71747 1.491,-5.82497 2.191,-9.12778 0.699,-3.30282 1.704,-7.73459 2.232,-9.84839 2.422,-9.68797 3.838,-16.17794 3.584,-16.43174 -0.153,-0.15235 -2.499,-0.0316 -5.215,0.26827 -2.716,0.2999 -8.073,0.67249 -11.905,0.82799 -3.831,0.1555 -7.233,0.36456 -7.559,0.46458 -0.598,0.18374 -0.312,0.93649 4.65,12.22865 1.103,2.51013 2.404,5.7529 2.891,7.20614 0.982,2.9354 4.078,13.0189 4.572,14.89269 0.625,2.37001 2.293,6.24532 2.688,6.24532 0.221,0 0.526,-0.81069 0.677,-1.80154 z m 28.598,-13.7946 c 6.479,-2.07669 8.158,-3.0683 10.375,-6.12494 2.423,-3.3419 3.524,-6.61576 3.543,-10.53818 0.01,-2.88373 -0.152,-3.44453 -1.713,-5.76491 -0.951,-1.41373 -2.765,-3.58124 -4.033,-4.81669 -2.106,-2.05334 -2.479,-2.23325 -4.336,-2.09474 -1.118,0.0833 -2.173,0.38015 -2.346,0.65958 -0.433,0.69971 -1.29,0.063 -1.705,-1.26582 -0.213,-0.68243 -0.1,-1.40017 0.295,-1.87966 0.542,-0.6566 0.53,-0.73914 -0.08,-0.53765 -0.396,0.13092 -0.796,0.65249 -0.888,1.15904 -0.09,0.50656 -0.361,1.12558 -0.598,1.3756 -0.627,0.65892 -1.797,-1.1374 -1.495,-2.29331 0.168,-0.64191 0.07,-0.8414 -0.307,-0.61009 -0.306,0.18902 -0.556,0.85862 -0.556,1.48799 0,1.4481 -0.583,1.79992 -2.928,1.76756 -1.142,-0.0158 -1.877,0.19725 -1.877,0.5445 0,0.31372 -0.565,1.21895 -1.255,2.01163 -2.718,3.12226 -3.494,4.45141 -4.489,7.68655 -1.452,4.72314 -1.021,9.33505 1.277,13.66757 2.862,5.39361 7.505,7.36433 13.116,5.56597 z m -2.082,-2.97969 c -0.919,-0.91908 0.196,-5.44464 1.342,-5.44464 1.678,0 2.357,3.59856 0.946,5.00998 -0.793,0.79296 -1.748,0.97441 -2.288,0.43466 z m -4.788,-12.18416 c -0.14,-0.53604 -0.435,-0.9428 -0.656,-0.90393 -1.877,0.33019 -2.119,-0.83258 -0.491,-2.36141 1.389,-1.30531 3.396,-1.34141 4.654,-0.0837 1.295,1.29477 1.305,3.0847 0.02,2.74763 -0.643,-0.16815 -1.036,0.0438 -1.233,0.66458 -0.385,1.21086 -1.968,1.1672 -2.29,-0.0631 z m 11.496,0.24219 c -0.197,-0.51337 -0.643,-0.64147 -1.492,-0.42833 -0.986,0.24734 -1.212,0.12894 -1.212,-0.63435 0,-1.75857 3.155,-3.71691 5.248,-3.25727 0.742,0.16285 1.803,0.71925 2.358,1.23644 1.193,1.11094 0.882,2.57048 -0.472,2.21653 -0.566,-0.14804 -1.083,0.10535 -1.392,0.68191 -0.586,1.09558 -2.64,1.22071 -3.038,0.18507 z m -10.872,-13.22781 c 0,-0.27982 0.216,-0.37515 0.48,-0.21185 0.264,0.1633 0.481,0.39224 0.481,0.50876 0,0.11652 -0.217,0.21185 -0.481,0.21185 -0.264,0 -0.48,-0.22894 -0.48,-0.50876 z m -11.051,17.59165 c 0,-0.11652 -0.217,-0.34546 -0.481,-0.50876 -0.264,-0.1633 -0.48,-0.068 -0.48,0.21185 0,0.27982 0.216,0.50876 0.48,0.50876 0.264,0 0.481,-0.0953 0.481,-0.21185 z m -0.648,-6.03347 c 0.247,0 0.719,-0.91878 1.05,-2.04174 0.332,-1.12296 0.696,-2.25792 0.809,-2.52215 0.114,-0.26422 -0.18,-0.98462 -0.654,-1.60088 l -0.861,-1.12046 -0.808,3.28231 c -1.49,6.05744 -1.453,5.79567 -0.673,4.84364 0.379,-0.4624 0.891,-0.84072 1.137,-0.84072 z m 21.068,-15.3731 c 0.163,-0.26422 0.07,-0.48041 -0.212,-0.48041 -0.28,0 -0.509,0.21619 -0.509,0.48041 0,0.26423 0.1,0.48041 0.212,0.48041 0.117,0 0.346,-0.21618 0.509,-0.48041 z m -64.426,107.43655 c -0.639,-1.66606 1.253,-2.26676 3.933,-1.24823 1.645,0.62542 1.066,1.22161 -1.608,1.65619 -1.607,0.26124 -2.101,0.17458 -2.325,-0.40796 z m -0.03,-2.96823 c -0.473,-1.23219 0.198,-1.42051 5.061,-1.42051 3.633,0 4.949,-0.18589 5.949,-0.84072 1.535,-1.00556 3.239,-1.09968 3.239,-0.17892 0,1.02814 -0.939,1.53558 -4.423,2.39073 -4.243,1.04133 -9.435,1.06745 -9.826,0.0494 z m -0.946,-4.28609 c -0.358,-0.93279 0.575,-1.74714 1.566,-1.36693 1.076,0.41298 8.462,-0.76635 11.117,-1.77527 1.387,-0.52698 2.952,-0.95816 3.478,-0.95816 1.303,0 1.215,1.35103 -0.125,1.92416 -2.295,0.98133 -8.453,2.3536 -12.002,2.67471 -3.271,0.29583 -3.752,0.23632 -4.034,-0.49851 z m 30.315,-17.09554 c -0.456,-0.73862 0.169,-1.21518 0.786,-0.59858 0.345,0.34502 0.353,0.61374 0.02,0.81653 -0.269,0.16624 -0.634,0.0682 -0.811,-0.21795 z m -3.348,-80.79107 c -0.793,-0.28104 -2.016,-0.91252 -2.717,-1.4033 -0.702,-0.49078 -1.475,-0.89232 -1.718,-0.89232 -0.244,0 -0.951,-0.54046 -1.571,-1.20102 -0.621,-0.66057 -1.375,-1.20103 -1.675,-1.20103 -0.734,0 -2.531,-2.48287 -2.921,-4.03528 -0.187,-0.74543 -0.65,-1.24922 -1.148,-1.24922 -2.152,0 -5.066,-6.40805 -3.385,-7.44634 0.264,-0.1633 0.48,-0.71154 0.48,-1.21831 0,-0.50676 0.512,-1.25704 1.139,-1.66729 0.824,-0.54036 1.307,-1.54334 1.752,-3.63971 0.338,-1.59159 1.012,-3.39887 1.498,-4.01617 0.774,-0.98502 0.795,-1.19484 0.169,-1.71469 -0.807,-0.66937 -0.97,-2.39632 -0.227,-2.39632 0.268,0 0.888,0.2503 1.378,0.55623 0.49,0.30592 1.257,0.41572 1.704,0.244 0.761,-0.29181 0.758,-0.40641 -0.04,-1.75254 -0.692,-1.17138 -0.736,-1.55332 -0.234,-2.04553 0.499,-0.48861 0.829,-0.3424 1.715,0.75879 0.931,1.15724 1.144,1.24248 1.405,0.56233 0.169,-0.44092 0.177,-1.32294 0.02,-1.96005 -0.209,-0.83117 -0.06,-1.24726 0.529,-1.47306 0.953,-0.36565 1.666,0.53044 1.677,2.10727 0,1.28137 0.112,1.29981 1.953,0.34797 0.844,-0.43617 1.418,-1.117 1.418,-1.68143 0,-1.38328 1.81,-1.26392 2.008,0.13244 0.22,1.54843 3.048,1.83764 3.518,0.35967 0.221,-0.6976 0.648,-0.96976 1.362,-0.86809 0.811,0.11559 1.011,0.43024 0.907,1.4329 -0.168,1.62446 1.453,2.31396 2.728,1.16056 1.573,-1.4235 3.475,-0.47653 2.413,1.20129 -0.612,0.96585 -0.549,1.25459 0.35,1.59922 0.483,0.18547 1.147,-0.0759 1.7,-0.66922 1.137,-1.21976 2.792,-1.29062 2.792,-0.11952 0,0.46973 -0.433,1.22426 -0.961,1.67673 -0.529,0.45248 -0.961,1.01785 -0.961,1.2564 0,0.7862 1.36,0.97335 1.945,0.26774 0.69,-0.83047 2.379,-0.92235 2.379,-0.12937 0,0.30948 -0.358,0.95803 -0.795,1.44123 -0.717,0.79142 -0.722,0.96191 -0.06,1.71926 0.405,0.46239 1.118,1.59736 1.583,2.52215 0.466,0.92479 1.357,2.29252 1.98,3.03942 1.265,1.51568 1.507,4.22428 0.526,5.90399 -4.078,6.98633 -8.197,10.94901 -14.217,13.67817 -3.326,1.50774 -7.515,1.83484 -10.4,0.81205 z m 10.81,-3.65428 c 3.887,-1.94304 7.663,-5.40176 9.041,-8.2811 1.447,-3.02491 1.496,-8.87926 0.09,-10.66852 -0.529,-0.67182 -0.961,-1.43275 -0.961,-1.69097 0,-0.25822 -0.532,-0.81788 -1.182,-1.2437 -0.65,-0.42582 -2.004,-1.62964 -3.009,-2.67515 -1.227,-1.27729 -3.051,-2.39527 -5.559,-3.40773 -3.713,-1.49897 -3.754,-1.50389 -7.922,-0.94935 -2.451,0.32612 -4.588,0.88609 -5.151,1.34946 -4.442,3.65933 -5.676,5.69835 -6.255,10.33374 -0.353,2.82146 0.431,8.5503 1.54,11.25641 0.852,2.07921 3.394,4.35376 7.017,6.27799 2.653,1.40954 3.328,1.56675 6.106,1.4225 2.34,-0.1215 3.907,-0.55375 6.246,-1.72358 z m -7.666,-4.15942 c -1.881,-0.67905 -2.272,-1.29717 -1.321,-2.08655 0.458,-0.38026 1.145,-0.40184 2.295,-0.0721 2.378,0.68188 4.564,0.5778 5.251,-0.25002 0.751,-0.90451 2.402,-0.94371 2.402,-0.057 0,0.36497 -0.742,1.22971 -1.649,1.92163 -1.831,1.39657 -4.122,1.57513 -6.978,0.54406 z m 1.594,-5.29113 c -0.37,-0.96518 0.22,-2.44916 0.749,-1.88187 0.226,0.24235 0.558,0.92706 0.737,1.52156 0.244,0.80641 0.132,1.08092 -0.441,1.08092 -0.423,0 -0.893,-0.32427 -1.045,-0.72061 z m 2.863,-4.85621 c -0.444,-1.15657 2.334,-3.55095 4.119,-3.55095 2.557,0 3.38,2.74287 1.012,3.37356 -3.61,0.96188 -4.814,1.00349 -5.131,0.17739 z m -10.433,-0.10472 c -0.135,-0.21837 -0.123,-0.8657 0.03,-1.43852 0.362,-1.38143 3.619,-2.44626 4.711,-1.53996 0.882,0.73145 0.954,2.00458 0.16,2.79903 -0.65,0.64934 -4.52,0.79114 -4.898,0.17945 z m -9.368,2.43878 c -0.185,-2.16519 -0.216,-2.20821 -0.597,-0.84072 -0.403,1.44888 -0.157,3.12267 0.46,3.12267 0.182,0 0.244,-1.02688 0.137,-2.28195 z m -176.869,10.20124 c -1.454,-0.60564 -3.291,-1.66617 -4.084,-2.35674 -0.793,-0.69057 -2.278,-1.9792 -3.3,-2.86362 -3.178,-2.7509 -8.237,-4.98516 -13.757,-6.0756 -4.389,-0.86705 -5.253,-1.20176 -6.639,-2.57386 -2.326,-2.30019 -2.604,-4.23408 -1.22,-8.47686 1.383,-4.24254 1.505,-4.39802 4.908,-6.24294 3.544,-1.92131 5.67,-2.61895 11.601,-3.80785 11.99,-2.40328 25.356,0.14687 29.733,5.67307 1.229,1.5509 1.497,2.32367 1.497,4.31925 0,1.33673 -0.265,3.03509 -0.588,3.77414 -0.8,1.82678 -3.769,4.69852 -6.074,5.87425 -2.129,1.08637 -12.374,3.87665 -14.233,3.87665 -1.415,0 -1.54,0.62023 -0.367,1.82226 2.614,2.67714 6.334,7.45061 6.101,7.82748 -0.347,0.5608 -0.426,0.54372 -3.578,-0.76963 z m -4.654,-6.35796 c -0.165,-0.4624 -0.499,-1.09905 -0.743,-1.41479 -0.243,-0.31574 -0.372,-1.07104 -0.286,-1.67844 0.131,-0.91981 0.559,-1.16903 2.56,-1.49124 4.551,-0.73297 9.616,-1.90425 12.332,-2.85204 3.409,-1.18944 7.581,-4.98935 7.661,-6.97731 0.165,-4.09643 -0.88,-5.50306 -5.738,-7.71999 -7.579,-3.45903 -16.086,-3.78421 -26.999,-1.032 -3.314,0.83588 -4.794,1.38297 -8.157,3.01484 -1.144,0.55538 -3.058,3.85324 -3.867,6.66529 -0.503,1.74806 1.092,4.93519 2.813,5.61828 0.712,0.28269 3.443,0.95372 6.069,1.49118 5.283,1.08126 10.89,3.56672 13.078,5.7973 1.616,1.64716 1.666,1.66978 1.277,0.57892 z m 6.095,2.25359 c 0,-0.27982 0.217,-0.37515 0.481,-0.21185 0.264,0.1633 0.48,0.39224 0.48,0.50876 0,0.11652 -0.216,0.21185 -0.48,0.21185 -0.264,0 -0.481,-0.22894 -0.481,-0.50876 z m 212.183,-23.42974 c -0.154,-0.24943 0,-0.68514 0.34,-0.96825 0.76,-0.63051 2.84,-0.15988 2.595,0.58714 -0.224,0.68296 -2.561,0.9864 -2.935,0.38111 z m -245.936,-21.57831 c 2.708,-0.0856 7.141,-0.0856 9.85,0 2.708,0.0856 0.492,0.1557 -4.925,0.1557 -5.418,0 -7.634,-0.0701 -4.925,-0.1557 z"
         id="path2" /></g></g></svg>
