<?xml version="1.0" encoding="UTF-8" standalone="no"?>
<!-- Created with Inkscape (http://www.inkscape.org/) -->

<svg
   width="61.221001mm"
   height="62.240601mm"
   viewBox="0 0 61.221 62.240601"
   version="1.1"
   id="svg1"
   xml:space="preserve"
   inkscape:export-filename="infant_central-asian.svg"
   inkscape:export-xdpi="96"
   inkscape:export-ydpi="96"
   xmlns:inkscape="http://www.inkscape.org/namespaces/inkscape"
   xmlns:sodipodi="http://sodipodi.sourceforge.net/DTD/sodipodi-0.dtd"
   xmlns="http://www.w3.org/2000/svg"
   xmlns:svg="http://www.w3.org/2000/svg"><sodipodi:namedview
     id="namedview1"
     pagecolor="#ffffff"
     bordercolor="#000000"
     borderopacity="0.25"
     inkscape:showpageshadow="2"
     inkscape:pageopacity="0.0"
     inkscape:pagecheckerboard="0"
     inkscape:deskcolor="#d1d1d1"
     inkscape:document-units="mm"><inkscape:page
       x="0"
       y="0"
       width="61.221001"
       height="62.240601"
       id="page2"
       margin="0"
       bleed="0" /></sodipodi:namedview><defs
     id="defs1" /><g
     inkscape:label="Layer 1"
     inkscape:groupmode="layer"
     id="layer1"
     transform="translate(1472.671,3650.7208)"><path
       id="path936"
       d="m -1472.5017,-3650.5514 h 60.8824 v -0.1694 h -60.8824 z"
       style="fill:#000000;fill-opacity:1;fill-rule:evenodd;stroke:none;stroke-width:0.352778" /><path
       id="path941-9"
       d="m -1472.671,-3588.6495 h 0.1693 v -61.8984 h -0.1693 z"
       style="fill:#000000;fill-opacity:1;fill-rule:evenodd;stroke:none;stroke-width:0.352778" /><path
       id="path942"
       d="m -1411.6193,-3588.6495 h 0.1693 v -61.8984 h -0.1693 z"
       style="fill:#000000;fill-opacity:1;fill-rule:evenodd;stroke:none;stroke-width:0.352778" /><path
       id="path952"
       d="m -1472.5017,-3588.4802 h 60.8824 v -0.1693 h -60.8824 z"
       style="fill:#000000;fill-opacity:1;fill-rule:evenodd;stroke:none;stroke-width:0.352778" /><g
       id="g988"
       transform="matrix(0.26458333,0,0,0.26458333,-4066.4167,-3666.3612)"><path
         style="fill:#000000"
         d="m 9863.8267,285.75773 c -0.4664,-0.75461 -0.06,-1.11713 4.0755,-3.63706 2.1362,-1.30157 5.2274,-3.24336 6.8693,-4.31509 1.6419,-1.07174 5.4459,-3.43305 8.4533,-5.24737 3.0073,-1.81432 6.4998,-4.0713 7.7611,-5.01551 1.2612,-0.94421 3.4917,-2.47319 4.9566,-3.39774 1.9435,-1.22668 2.6696,-1.9795 2.6864,-2.78548 0.093,-4.44444 4.33,-6.38657 15.3933,-7.05581 5.3163,-0.3216 8.0428,-1.16773 10.5442,-3.27219 0.7358,-0.6191 2.0691,-1.42097 2.9629,-1.78193 2.5658,-1.03631 13.7801,-8.52648 14.3444,-9.58084 0.8628,-1.61188 0.7761,-5.03356 -0.1639,-6.46793 -0.7782,-1.18758 -1.0378,-1.2769 -2.8305,-0.97407 -1.2843,0.21696 -3.0092,1.137 -4.9389,2.63435 -1.6308,1.26552 -4.2396,3.01053 -5.7971,3.87781 -1.5575,0.86728 -3.4804,2.03609 -4.2729,2.59735 -2.2855,1.61845 -6.7934,3.83218 -12.2489,6.0152 -2.7741,1.11001 -5.2599,2.18096 -5.5241,2.37989 -0.643,0.4842 -6.5069,3.62652 -10.0873,5.40556 -1.5851,0.78764 -3.9629,2.14365 -5.2838,3.01337 -1.321,0.86972 -4.6714,2.75233 -7.4455,4.18358 -2.774,1.43125 -6.4486,3.52446 -8.1659,4.65158 -3.6606,2.40261 -21.3292,11.08779 -22.5564,11.08779 -0.2752,0 -0.5004,-0.42937 -0.5004,-0.95414 0,-0.74052 1.1561,-1.50401 5.1638,-3.41012 9.2639,-4.40611 15.5493,-7.63662 17.5919,-9.04179 1.1025,-0.75839 4.1611,-2.51916 6.7969,-3.91282 2.6358,-1.39365 6.3659,-3.47632 8.2891,-4.62815 4.1261,-2.47122 10.7021,-5.92372 13.0754,-6.86479 0.9246,-0.36666 2.4381,-1.13501 3.3631,-1.70746 0.9251,-0.57245 3.0867,-1.55054 4.8035,-2.17353 2.5776,-0.93533 7.981,-3.71865 11.5826,-5.96637 0.4266,-0.26617 1.7235,-0.99738 2.8821,-1.6249 6.7991,-3.68238 12.4081,-9.16141 11.0517,-10.79555 -0.4672,-0.56291 -2.797,-1.44534 -7.2638,-2.75129 -1.1889,-0.34758 -3.3505,-1.2749 -4.8035,-2.06072 -1.5264,-0.82549 -3.812,-1.57472 -5.413,-1.77444 -1.5241,-0.19013 -3.0912,-0.61135 -3.4825,-0.93606 -0.9349,-0.77577 -0.9042,-3.33373 0.069,-5.76609 0.4293,-1.07293 0.6995,-2.03118 0.6004,-2.12944 -0.8574,-0.84997 -19.8368,0.22361 -24.678,1.39592 -1.5852,0.38384 -4.071,0.93182 -5.5241,1.21772 -1.453,0.2859 -4.9115,1.24977 -7.6855,2.14193 -2.7741,0.89216 -6.6649,2.10061 -8.6463,2.68543 -9.9697,2.94258 -15.1915,5.20003 -26.4192,11.42134 -2.7501,1.52379 -5.6302,2.97776 -7.6856,3.87988 -2.507,1.1003 -9.1469,5.14894 -10.5956,6.4606 -0.831,0.7524 -1.686,1.18466 -1.9,0.96057 -0.3528,-0.36943 -2.9248,-7.11134 -4.2595,-11.16541 -0.7814,-2.37333 -0.686,-3.89068 0.2446,-3.89068 0.4302,0 1.9973,-0.70135 3.4826,-1.55857 1.4852,-0.85721 3.5007,-1.99188 4.4789,-2.52149 3.751,-2.03076 12.4974,-7.49495 15.1461,-9.46233 1.5233,-1.13147 4.0666,-2.89471 5.6518,-3.91831 2.8158,-1.8183 8.0416,-6.30046 12.9604,-11.11617 1.3491,-1.32078 3.308,-3.03022 4.3532,-3.79875 2.6066,-1.91667 3.8467,-3.37315 5.0946,-5.98389 2.3115,-4.83582 7.9447,-11.00112 14.5277,-15.89975 2.4058,-1.79024 5.1307,-4.0626 6.0553,-5.0497 0.9247,-0.98709 3.1528,-2.97836 4.9514,-4.42505 1.7985,-1.44669 4.5288,-3.8539 6.0672,-5.34937 3.0165,-2.93233 10.7868,-10.13141 13.0435,-12.08456 0.763,-0.66039 3.217,-2.49747 5.4533,-4.08241 2.2364,-1.58493 4.3285,-3.36799 4.6491,-3.96234 0.3207,-0.59435 0.8367,-1.08064 1.1468,-1.08064 0.7408,0 5.4228,-4.52141 7.2115,-6.96411 0.7737,-1.05662 2.345,-2.98723 3.4917,-4.29024 2.0751,-2.358 6.7198,-9.23394 9.4659,-14.01315 1.8293,-3.1837 3.9321,-5.75968 8.1882,-10.03055 4.6963,-4.712636 10.4186,-7.447195 15.5839,-7.447195 6.9091,0 14.2147,2.601464 19.0564,6.785755 1.8067,1.56149 3.6093,3.11814 4.0055,3.45923 0.3963,0.34108 1.8502,1.5549 3.2308,2.69737 1.3806,1.14247 2.629,2.45128 2.7741,2.90845 0.1956,0.61639 1.2195,0.9853 3.9595,1.42733 2.033,0.32786 4.243,0.82034 4.912,1.09439 0.668,0.27406 3.485,0.62894 6.259,0.78862 3.963,0.2281 5.044,0.44027 5.044,0.98965 0,0.82117 -3.305,1.93122 -6.56,2.20357 -1.351,0.11305 -2.947,0.6688 -4.03,1.40376 -0.986,0.66915 -2,1.21663 -2.253,1.21663 -0.252,0 -1.621,0.33778 -3.041,0.75063 l -2.583,0.75063 0.279,2.03568 c 0.342,2.49532 -0.866,7.50346 -2.3172,9.60073 -0.5747,0.83104 -1.7638,2.12227 -2.6423,2.8694 -2.8002,2.38139 -2.8586,2.88573 -0.7277,6.28376 1.0403,1.65893 2.4065,4.5084 3.036,6.33214 2.1412,6.20126 1.2814,16.288 -2.0535,24.10942 -3.7958,8.90248 -4.2684,9.66614 -8.8107,14.23822 -4.0324,4.05891 -8.5959,7.45286 -15.2647,11.35276 -1.5266,0.89274 -4.3366,3.00876 -6.2445,4.70226 -1.9079,1.6935 -4.7174,3.87792 -6.2434,4.85426 l -2.7745,1.77516 5.8968,1.94732 c 6.9946,2.30988 8.5386,2.69456 8.5386,2.12735 0,-0.23331 1.0268,-0.80988 2.2817,-1.28128 1.2549,-0.4714 2.822,-1.22317 3.4825,-1.67059 0.6605,-0.44742 2.3898,-1.4351 3.8428,-2.19485 1.4531,-0.75975 3.873,-2.19863 5.3776,-3.1975 1.5046,-0.99888 2.8856,-1.81614 3.0688,-1.81614 0.1832,0 1.8156,-1.2127 3.6275,-2.6949 4.7968,-3.92387 13.4332,-13.17228 14.8262,-15.87641 0.66,-1.28258 2.389,-4.10794 3.842,-6.27858 1.99,-2.97233 2.909,-3.94915 3.723,-3.95688 0.595,-0.006 1.081,0.20587 1.081,0.47003 0,0.26416 0.567,0.48028 1.261,0.48028 1.155,0 1.236,0.12561 0.962,1.49496 -0.289,1.44333 -2.927,5.52137 -4.716,7.28893 -0.478,0.47256 -0.869,1.03448 -0.869,1.24871 0,1.23626 -5.336,9.89066 -7.838,12.71211 -3.962,4.46826 -3.269,4.26275 8.059,-2.38877 1.575,-0.92478 4.164,-2.64766 5.753,-3.8286 3.033,-2.25308 4.274,-2.5067 4.471,-0.91321 0.09,0.69068 -0.542,1.35517 -2.26,2.39651 -1.307,0.79247 -3.954,2.39584 -5.882,3.56305 -1.927,1.16721 -4.585,2.78943 -5.906,3.60494 -4.869,3.00607 -11.4894,5.42879 -12.513,4.57938 -0.4181,-0.34699 -0.9889,-0.16658 -1.9641,0.62088 -4.0849,3.29834 -14.7109,9.48466 -16.2914,9.48466 -0.3821,0 -0.6947,-0.28097 -0.6947,-0.62437 0,-0.85281 0.9916,-1.77705 1.9066,-1.77705 2.007,0 17.4989,-9.75177 20.2196,-12.72752 5.405,-5.91233 7.347,-8.38996 8.778,-11.1949 2.049,-4.01738 3.554,-6.70704 4.619,-8.25659 1.409,-2.04878 1.557,-2.40697 0.887,-2.14994 -0.718,0.27554 -2.783,3.29326 -5.578,8.15349 -1.315,2.28687 -3.674,5.08136 -7.376,8.73864 -5.2637,5.19948 -11.15,10.23257 -11.9677,10.23257 -0.2188,0 -1.6321,0.86451 -3.1407,1.92113 -1.5086,1.05662 -2.8913,1.92113 -3.0727,1.92113 -0.1814,0 -2.5392,1.21129 -5.2394,2.69174 -4.8377,2.65227 -4.8933,2.70263 -3.7936,3.43457 0.6138,0.40856 1.8185,1.40095 2.6771,2.20532 1.2133,1.13658 1.5612,1.28095 1.5612,0.64784 0,-0.44805 0.2433,-0.81464 0.5407,-0.81464 0.5418,0 9.3683,-4.61606 17.4724,-9.13768 2.3777,-1.32664 5.2957,-2.86071 6.4847,-3.40904 1.189,-0.54832 2.702,-1.24471 3.363,-1.54752 0.66,-0.3028 2.477,-1.3619 4.037,-2.35355 1.56,-0.99165 3.015,-1.80299 3.234,-1.80299 0.641,0 6.726,-3.83518 8.87,-5.59064 3.214,-2.63128 4.339,-1.64882 1.637,1.4287 -1.2,1.36648 -9.329,6.56336 -10.266,6.56336 -0.16,0 -1.645,0.82134 -3.301,1.82521 -1.656,1.00386 -4.199,2.32966 -5.652,2.94621 -1.453,0.61655 -7.6496,3.90163 -13.7694,7.30018 -6.1197,3.39854 -11.4738,6.17918 -11.8978,6.17918 -0.5751,0 -0.697,0.29444 -0.48,1.15908 0.4367,1.73956 -2.0709,4.04806 -2.9146,2.68319 -0.4459,-0.7214 -1.963,-0.57776 -2.6509,0.25098 -0.3504,0.42216 -0.9844,0.6115 -1.4998,0.44792 -0.7488,-0.23763 -0.8929,-0.0241 -0.8929,1.32314 0,3.21903 -2.1946,4.52674 -5.4928,3.27296 -1.4812,-0.56307 -1.5604,-1.40757 -0.2714,-2.89359 1.3765,-1.58689 1.1955,-2.91639 -0.7425,-5.45419 -1.8958,-2.48241 -2.3514,-2.66901 -3.1003,-1.26978 -0.2828,0.52831 -0.9389,0.96057 -1.458,0.96057 -0.519,0 -0.9438,0.19659 -0.9438,0.43687 0,0.24028 -1.5671,1.31585 -3.4825,2.39015 -1.9154,1.0743 -3.9783,2.37885 -4.5843,2.899 l -1.1017,0.94574 1.5821,2.41818 c 0.8701,1.33 1.6902,2.36545 1.8223,2.30101 0.132,-0.0644 2.1416,-1.05205 4.4657,-2.19468 2.3241,-1.14262 4.5397,-1.95699 4.9236,-1.80969 1.5473,0.59367 0.4851,1.64781 -3.6953,3.66743 -5.1348,2.48075 -5.694,2.9534 -5.694,4.81276 0,1.4062 -1.464,2.72336 -2.3906,2.1508 -0.6727,-0.41571 -3.2624,0.91721 -6.4959,3.34344 -1.5852,1.18941 -4.1456,2.97536 -5.6898,3.96879 -1.5443,0.99342 -3.922,2.53169 -5.2839,3.41836 -1.3618,0.88667 -3.719,2.24058 -5.2381,3.00868 -1.5191,0.76811 -2.762,1.53136 -2.762,1.69611 0,0.41469 5.3368,-0.17141 9.3772,-1.02981 7.2925,-1.54931 13.3642,-1.77726 24.2959,-0.91212 18.2288,1.44262 17.4405,1.46541 26.1304,-0.75544 4.2271,-1.0803 9.8471,-2.69516 12.4891,-3.58858 7.35,-2.48539 12.666,-4.01686 12.952,-3.73104 0.531,0.5312 0.229,1.44732 -0.583,1.76851 -0.462,0.18286 -2.678,0.86265 -4.923,1.51064 -2.246,0.64798 -4.757,1.49069 -5.5814,1.87268 -0.8239,0.38199 -4.3905,1.48413 -7.9258,2.4492 -3.5354,0.96507 -8.2653,2.25774 -10.5109,2.87261 -4.5255,1.23911 -7.0005,1.38336 -11.2882,0.6579 -1.5851,-0.2682 -6.6648,-0.78345 -11.2882,-1.14499 -9.8222,-0.76808 -15.6499,-0.4024 -29.0611,1.82356 -4.7496,0.78831 -15.0111,1.74601 -18.641,1.73975 -3.1873,-0.005 -6.6166,0.91823 -7.8531,2.11531 -0.5695,0.55141 -1.3801,1.28124 -1.8013,1.62185 -2.2267,1.80073 0.4573,2.8524 5.3722,2.10505 13.4234,-2.04109 17.09,-2.71242 21.2419,-3.88927 7.1884,-2.03752 13.1287,-2.53472 26.3777,-2.20782 7.7972,0.19238 12.5695,0.50203 13.2096,0.8571 0.5513,0.30575 1.2598,0.50399 1.5745,0.44055 0.3148,-0.0634 1.8751,0.32346 3.4674,0.8598 1.5923,0.53633 3.5472,0.97516 4.3442,0.97516 1.4323,0 10.0321,2.63755 10.69,3.27862 0.1872,0.18234 0.1397,0.65392 -0.1054,1.04794 -0.3399,0.54646 -0.6486,0.59404 -1.3009,0.20056 -0.4704,-0.28372 -3.233,-1.01231 -6.1392,-1.61909 -2.9061,-0.60677 -7.1211,-1.64928 -9.3668,-2.31667 -3.1622,-0.93981 -5.8702,-1.31233 -12.0087,-1.65194 -13.1543,-0.72776 -20.9034,-0.16382 -30.5022,2.2198 -6.0628,1.50555 -6.8113,1.65501 -9.8471,1.96617 -1.7173,0.17602 -4.6354,0.64004 -6.4848,1.03116 -1.8493,0.39112 -5.4159,0.83402 -7.9257,0.98421 -4.959,0.29677 -5.5844,0.52022 -10.0785,3.6008 -1.6567,1.13565 -3.9036,2.67328 -4.9931,3.41697 -1.0895,0.74368 -2.7374,1.71764 -3.6621,2.16436 -1.7525,0.84666 -5.5078,3.20976 -14.4468,9.09093 -5.2437,3.44998 -6.3543,3.93111 -6.9287,3.00178 z m -39.392,-50.42429 c 0.1682,-0.27225 -0.025,-0.35277 -0.452,-0.18875 -0.8322,0.31928 -0.9845,0.66353 -0.2935,0.66353 0.2486,0 0.584,-0.21365 0.7455,-0.47478 z m 123.8942,0.18326 c 1.0357,-0.39739 0.9549,-1.76939 -0.1849,-3.13732 l -0.9447,-1.13385 -0.016,2.28135 c -0.017,2.43263 -0.016,2.43531 1.1456,1.98982 z m -117.8282,-4.12179 c 2.9146,-1.97569 3.7845,-2.23246 3.7845,-1.11701 0,0.58208 0.2873,0.53821 1.5612,-0.23834 1.6114,-0.98236 3.2423,-1.26008 3.2423,-0.55212 0,0.22176 -0.5683,0.66211 -1.2629,0.97855 -0.6947,0.31645 -1.1341,0.70421 -0.9766,0.86169 0.1575,0.15748 1.7526,-0.5752 3.5446,-1.62817 5.2034,-3.05744 18.8248,-9.57774 22.232,-10.64202 1.7173,-0.5364 5.3919,-1.65885 8.166,-2.49433 2.774,-0.83549 6.5567,-2.01551 8.4061,-2.62228 10.2912,-3.37652 33.1323,-6.13723 37.8626,-4.57629 1.6833,0.55544 1.9382,0.49812 4.1793,-0.93981 1.3127,-0.84223 2.2876,-1.69158 2.1665,-1.88746 -0.121,-0.19587 -0.9406,-1.42661 -1.8212,-2.73498 -1.8262,-2.71345 -3.172,-7.63622 -2.3203,-8.48778 0.787,-0.78691 1.703,0.40775 2.6927,3.51182 0.9808,3.07651 1.9763,5.18933 2.9898,6.34594 0.6571,0.74982 0.8461,0.75796 2.1342,0.0919 1.5537,-0.8033 4.2993,-0.7429 4.5758,0.10067 0.096,0.29423 -1.1839,1.04311 -2.8451,1.66417 -2.7028,1.01046 -8.1468,4.29168 -9.9425,5.9926 -0.3726,0.35295 -0.9577,1.45685 -1.3002,2.4531 -0.7327,2.13078 -0.5051,2.37743 2.6313,2.85157 1.5317,0.23156 2.2074,0.13852 2.5144,-0.3462 0.231,-0.36456 0.4232,-0.47429 0.4273,-0.24383 0,0.23047 0.2775,0.21365 0.6078,-0.0374 1.2848,-0.97662 5.0849,-1.98804 8.5262,-2.26933 4.0304,-0.32944 6.8899,-1.03082 11.6202,-2.85017 7.054,-2.71308 14.7317,-7.22493 18.7083,-10.99409 1.4165,-1.34261 3.3554,-2.99893 4.3087,-3.68069 0.9532,-0.68177 2.3999,-2.01037 3.2146,-2.95245 1.7514,-2.02494 5.6143,-9.01892 5.2066,-9.42659 -0.2931,-0.29304 -2.1844,1.7364 -2.2127,2.37429 -0.018,0.41094 -1.4571,0.5023 -1.4571,0.0925 0,-0.14723 0.9382,-1.60973 2.0848,-3.25001 3.1417,-4.49406 5.1981,-8.42003 5.0273,-9.5976 -0.1303,-0.89889 -0.3234,-0.75422 -1.3191,0.98815 -0.6415,1.12266 -1.3495,2.0412 -1.5734,2.0412 -0.788,0 -0.9689,-1.4939 -0.2499,-2.06428 1.1184,-0.88727 2.8492,-5.24226 3.4266,-8.62189 0.1994,-1.16692 0.1212,-1.26476 -0.6716,-0.8405 -2.2275,1.19192 -2.5227,0.006 -0.7561,-3.03646 0.6408,-1.10366 1.3176,-2.8399 1.504,-3.8583 0.3226,-1.76254 0.2912,-1.8261 -0.6532,-1.32078 -1.2367,0.66181 -3.9373,0.69685 -3.9373,0.0511 0,-0.26388 -1.2819,0.51559 -2.8487,1.73214 -1.5668,1.21656 -3.0875,2.13233 -3.3794,2.03505 -0.2919,-0.0973 1.3161,-2.11719 3.5734,-4.48869 2.2572,-2.3715 4.2248,-4.69233 4.3724,-5.15739 0.4318,-1.36013 1.6448,-1.01941 1.6448,0.462 v 1.30757 l 0.7963,-1.13678 c 0.7282,-1.03951 0.8468,-1.0678 1.3859,-0.33068 0.5273,0.72105 0.7909,0.57735 2.4983,-1.36213 1.0498,-1.19253 2.3642,-3.41518 2.9208,-4.93924 1.3423,-3.67543 5.3724,-9.73689 8.9303,-13.43175 1.5817,-1.64251 3.2525,-3.91414 3.7129,-5.04806 1.2441,-3.06378 1.1061,-6.79447 -0.3783,-10.22651 -0.6854,-1.58494 -1.3524,-3.58412 -1.4822,-4.44262 -0.1297,-0.85851 -0.4552,-1.56092 -0.7233,-1.56092 -0.543,0 -7.5628,-3.01875 -9.6004,-4.12853 -3.9,-2.12402 -10.9846,-2.764 -15.5596,-1.40556 -1.3144,0.39028 -3.3077,1.49516 -4.4296,2.45528 -1.9182,1.64169 -4.403,5.62297 -4.403,7.05469 0,1.32614 -1.9733,2.67601 -6.0881,4.16473 -2.3309,0.8433 -4.9949,1.8859 -5.9199,2.31691 -1.9295,0.89898 -7.1331,4.75866 -9.6077,7.12638 -0.9247,0.88472 -2.1132,1.91935 -2.6412,2.29917 -1.3734,0.98804 -0.5958,1.441 1.3638,0.79438 4.2369,-1.39812 18.7048,-0.75885 22.0343,0.97361 3.6758,1.91258 6.5413,7.82362 6.9653,14.36821 0.2124,3.27742 0.1047,4.43672 -0.5253,5.65478 -0.8486,1.64084 -5.8566,6.82015 -8.4045,8.6919 -1.9744,1.45056 -1.6266,1.83905 0.6164,0.68846 1.7632,-0.90445 7.9711,-6.68444 7.9711,-7.42165 0,-0.22398 0.2432,-0.40723 0.5404,-0.40723 0.348,0 0.4387,0.55558 0.2546,1.56092 l -0.2857,1.56092 2.0596,-2.28881 c 2.0009,-2.22371 2.7149,-2.45051 2.7149,-0.86242 0,1.90503 -6.1207,7.23364 -8.3089,7.23364 -0.5165,0 -2.2494,0.66579 -3.851,1.47954 -1.7166,0.8722 -3.3717,1.39167 -4.0319,1.26548 -0.8598,-0.16434 -1.855,0.46821 -4.2842,2.72294 -3.6727,3.409 -6.6481,5.14511 -8.9073,5.19733 -1.0618,0.0246 -2.1799,0.5386 -3.3274,1.52988 -0.9505,0.82111 -3.8478,3.00581 -6.4386,4.8549 -2.5907,1.84909 -6.0281,4.38493 -7.6386,5.63519 -1.6105,1.25026 -4.4413,3.19079 -6.2907,4.31229 -1.8493,1.12149 -3.6182,2.28405 -3.9309,2.58345 -0.3127,0.2994 -2.7985,1.90831 -5.524,3.57537 -2.7256,1.66706 -5.6116,3.52415 -6.4134,4.12688 -0.8018,0.60273 -2.9634,1.73244 -4.8035,2.51046 -1.8401,0.77802 -5.6466,2.38941 -8.459,3.58087 -2.9779,1.26164 -6.6448,2.41332 -8.7808,2.75784 -4.6846,0.7556 -10.3839,0.36225 -11.9826,-0.82702 -2.7177,-2.02157 -3.7419,-6.00374 -2.5425,-9.88448 0.3878,-1.25474 0.5269,-2.28134 0.3092,-2.28134 -0.6484,0 -3.9197,2.77381 -10.4789,8.88524 -3.4021,3.16988 -7.5677,6.65749 -9.2568,7.75025 -10.8065,6.99089 -20.6539,13.16669 -22.4053,14.05146 -1.1229,0.56721 -2.0415,1.24303 -2.0415,1.50181 0,0.87902 0.7112,0.54022 8.843,-4.21224 3.6186,-2.11482 4.3409,-1.96254 1.7247,0.36362 -1.837,1.63329 -1.9318,1.79675 -0.6315,1.08836 0.8521,-0.46419 1.7035,-0.64882 1.9214,-0.41664 0.2152,0.22932 0.1264,0.51166 -0.1973,0.62742 -0.3238,0.11576 -2.1611,1.23915 -4.083,2.49642 -1.9219,1.25728 -4.6292,2.89634 -6.0162,3.64238 -1.387,0.74603 -2.5218,1.5382 -2.5218,1.76037 0,0.68743 0.4736,0.48224 4.8875,-2.11753 9.3698,-5.51881 9.5269,-5.59809 9.5197,-4.80284 0,0.19812 -0.8124,0.89225 -1.8013,1.54252 -2.7894,1.83415 -8.2828,5.89072 -8.2828,6.11633 0,0.25555 0.5556,-0.0786 3.9011,-2.34642 z m 146.3725,-115.44596 c -2.1814,-0.94275 -3.2128,-3.02014 -2.3927,-4.81969 0.8105,-1.77857 4.0384,-3.05341 7.763,-3.06595 2.8064,-0.009 3.3222,0.1455 4.9498,1.48688 1.4995,1.23585 1.7913,1.75914 1.6705,2.99574 -0.1177,1.20605 -0.5525,1.72173 -2.2288,2.64359 -2.6837,1.47592 -7.2771,1.83327 -9.7618,0.75943 z m 2.1142,-2.85597 c -0.1265,-0.6619 0.036,-1.52358 0.3604,-1.91482 0.5126,-0.61756 0.3984,-0.64444 -0.8657,-0.20382 -1.7597,0.61337 -2.23,1.59615 -1.2382,2.58779 1.1476,1.14748 2.0083,0.91589 1.7435,-0.46915 z m 8.0489,-0.61116 c 0,-0.43696 -1.5539,-2.02764 -1.9808,-2.02764 -0.2149,0 -0.2688,0.37823 -0.1196,0.8405 0.1491,0.46227 0.3503,1.10701 0.4471,1.43275 0.1657,0.55784 1.6533,0.33684 1.6533,-0.24561 z m -42.0535,119.86011 c -0.3608,-1.64253 -1.0041,-2.98073 -2.0768,-4.32043 -0.7895,-0.98602 -0.3982,-2.29923 0.6852,-2.29923 0.4274,0 2.1635,1.33102 3.8579,2.95783 1.6943,1.6268 3.0807,2.64529 3.0807,2.26329 0,-0.79032 -4.0227,-4.83389 -5.6216,-5.65071 -0.582,-0.29735 -2.0459,-0.6332 -3.2531,-0.74635 -1.6222,-0.15205 -3.0122,-0.77695 -5.3271,-2.39493 -4.1731,-2.91683 -5.6368,-3.63339 -7.4217,-3.63339 -1.5378,0 -3.3547,0.72602 -3.3547,1.34051 0,0.42453 1.8599,1.24977 5.0437,2.23784 6.5521,2.03345 7.4925,2.40165 8.238,3.22533 0.4658,0.51454 0.7773,1.59354 0.7407,2.56544 -0.056,1.48416 0.075,1.67741 1.1331,1.67741 0.8717,0 1.6094,0.58623 2.7198,2.16127 0.838,1.18871 1.6072,2.16128 1.7095,2.16128 0.1022,0 0.033,-0.69532 -0.1536,-1.54516 z m -122.8684,-2.85847 c -0.6028,-0.96509 -1.279,-0.69565 -1.279,0.50966 0,1.18816 0.474,1.53635 1.1861,0.87126 0.4398,-0.41081 0.465,-0.7851 0.093,-1.38092 z m 147.1302,-4.89322 -0.019,-1.50953 -0.7017,1.61606 c -0.8665,1.99535 -0.8662,2.01901 0.019,1.67946 0.4354,-0.16708 0.713,-0.87362 0.7017,-1.78599 z m -17.0025,-2.78451 4.0518,-2.47569 v -2.51127 c 0,-2.70527 -0.4158,-3.08141 -3.4237,-3.09704 -0.6941,-0.004 -1.5312,-0.33075 -1.8601,-0.72698 -0.3289,-0.39623 -0.4274,-0.72043 -0.2189,-0.72043 0.2085,0 0.2684,-0.11056 0.1333,-0.2457 -0.1352,-0.13514 -2.4348,0.72474 -5.1104,1.91085 -4.3909,1.94656 -5.8733,2.43005 -10.3153,3.36428 l -1.3409,0.28204 1.3409,1.07988 c 3.1771,2.55848 5.2984,3.69461 6.8983,3.69461 0.9146,0 2.4161,0.41985 3.3367,0.933 0.9205,0.51315 1.8498,0.94541 2.065,0.96057 0.2153,0.0152 2.2147,-1.08649 4.4433,-2.44812 z m 16.5799,-1.77059 c -1.4179,-2.77884 -1.3133,-3.7635 0.4269,-4.01887 1.7281,-0.25359 3.5721,0.47382 5.6586,2.23211 0.8586,0.72357 1.5611,1.10964 1.5611,0.85793 0,-0.61653 -3.1527,-2.75682 -5.524,-3.75009 -3.3918,-1.42072 -12.6188,-4.52275 -13.453,-4.52275 -0.444,0 -0.9183,-0.42478 -1.0541,-0.94396 -0.2451,-0.9371 -0.2603,-0.93715 -2.084,-0.007 -2.557,1.30427 -2.7834,1.9114 -0.713,1.9114 3.0873,0 8.8321,2.81859 11.7182,5.74941 1.4232,1.44517 2.8027,3.24459 3.0656,3.99873 0.3043,0.87282 0.6451,1.20415 0.9377,0.91163 0.2925,-0.29251 0.096,-1.17157 -0.54,-2.41867 z m 3.9653,-0.63873 c -1.702,-1.77628 -2.2361,-1.71708 -1.8244,0.20224 0.4729,2.20444 0.5932,2.31041 1.9314,1.70079 l 1.1949,-0.54434 z m -12.9421,-2.11839 c 0.4703,-1.22558 0.3403,-1.63028 -0.429,-1.33511 -0.3963,0.15205 -0.7205,0.68559 -0.7205,1.18564 0,1.10339 0.7461,1.20042 1.1495,0.14947 z m -76.5314,-11.04362 c 5.889,-1.70824 16.6733,-6.70163 22.5435,-10.43813 8.1787,-5.20598 16.463,-10.68162 19.9345,-13.17598 1.5851,-1.13898 3.4088,-2.44321 4.0525,-2.89828 0.6438,-0.45507 1.7082,-1.31932 2.3654,-1.92056 0.6571,-0.60124 1.9677,-1.55978 2.9124,-2.13008 0.9448,-0.57031 2.979,-2.07717 4.5207,-3.34859 2.5339,-2.08976 2.9746,-2.28423 4.5911,-2.02577 1.9114,0.3056 2.8477,-0.26222 6.8104,-4.12992 1.7348,-1.69322 6.0022,-5.38832 7.7653,-6.72397 2.617,-1.9825 4.1732,-3.49852 5.3832,-5.24435 1.1088,-1.59977 1.3249,-2.39932 1.2914,-4.77926 -0.081,-5.76695 -1.9982,-11.16941 -4.5923,-12.94187 -2.6559,-1.81464 -6.1623,-2.47762 -13.1369,-2.48386 -7.3031,-0.007 -13.5386,1.24864 -15.2383,3.06733 -0.5284,0.56538 -2.2577,1.9459 -3.8428,3.06784 -1.5852,1.12193 -3.3999,2.73871 -4.0327,3.59284 -1.0122,1.3663 -4.012,3.87057 -11.2107,9.35899 -1.1271,0.85929 -2.3916,1.8859 -2.81,2.28135 -0.4185,0.39545 -0.9649,0.719 -1.2142,0.719 -0.2494,0 -0.8105,0.37823 -1.2469,0.8405 -0.9485,1.00471 -1.2339,1.23357 -4.9441,3.96465 -1.5851,1.16685 -4.1682,3.15657 -5.7401,4.4216 -1.5719,1.26504 -3.0505,2.30006 -3.2859,2.30006 -0.2353,0 -2.0578,1.50175 -4.0501,3.33723 -1.9922,1.83548 -4.2963,3.65878 -5.1202,4.05179 -1.3347,0.63667 -7.7208,6.50441 -7.393,6.79295 0.072,0.0634 2.1103,-0.0523 4.5296,-0.257 3.3522,-0.28364 6.1522,-0.96406 11.7685,-2.85981 4.0534,-1.36819 8.0183,-2.77444 8.8109,-3.12499 0.7926,-0.35056 2.9541,-1.20954 4.8035,-1.90885 1.8493,-0.69931 4.4474,-1.69405 5.7735,-2.21054 1.326,-0.51649 2.5825,-0.93908 2.7922,-0.93908 0.4002,0 1.8587,-0.67119 10.8884,-5.01047 6.1728,-2.96635 9.0882,-4.55393 12.9695,-7.06246 1.453,-0.93913 4.3712,-2.62874 6.4847,-3.75468 2.1135,-1.12594 5.259,-2.99628 6.9899,-4.1563 2.9421,-1.97174 4.7786,-2.63124 4.7786,-1.71599 0,0.68897 -6.0823,4.79772 -10.0695,6.80217 -2.1177,1.06461 -5.4198,2.98742 -7.338,4.27293 -3.9005,2.61393 -17.0823,9.47477 -20.7802,10.8156 -3.162,1.1465 -6.7354,2.51843 -14.8909,5.71703 -11.0546,4.33565 -17.2631,6.17912 -22.3174,6.6266 -3.4138,0.30225 -4.6424,0.25683 -4.9381,-0.18256 -0.9352,-1.39005 -7.9298,9.29135 -7.3272,11.18951 0.1477,0.46533 -0.1804,1.60684 -0.7291,2.53669 -0.6729,1.14029 -1.0238,2.63315 -1.0779,4.58598 -0.091,3.29032 0.6928,4.59138 3.2066,5.32117 2.4218,0.70312 8.5548,0.5733 11.3602,-0.24046 z m -9.5494,-3.44568 c 0.1271,-0.66388 0.7149,-0.86079 2.7972,-0.9371 1.45,-0.0531 3.8251,-0.34285 5.2782,-0.6438 3.7501,-0.77671 11.0558,-3.3193 12.5632,-4.37241 0.7013,-0.4899 1.4787,-0.89073 1.7276,-0.89073 0.5637,0 7.1899,-3.85928 12.6088,-7.34367 2.2456,-1.44398 5.1959,-3.18461 6.5562,-3.86807 3.1793,-1.59734 6.714,-3.95993 8.7008,-5.81556 0.8618,-0.80499 2.2669,-1.84091 3.1222,-2.30204 0.8554,-0.46112 3.2845,-2.03929 5.3981,-3.50704 2.1135,-1.46775 5.6801,-3.83526 7.9257,-5.26114 2.2457,-1.42588 4.8395,-3.15344 5.7642,-3.83903 5.1142,-3.79182 6.0996,-4.45492 7.0852,-4.76737 4.0415,-1.28134 -3.4258,4.66811 -15.1766,12.09168 -1.1479,0.72516 -3.5344,2.39912 -5.3034,3.7199 -1.7689,1.32078 -3.856,2.72561 -4.6378,3.12184 -0.7819,0.39624 -2.2275,1.45331 -3.2126,2.34904 -2.3608,2.14662 -3.0904,2.63937 -6.9543,4.69666 -1.7948,0.95566 -3.5876,1.99781 -3.9839,2.31591 -0.3963,0.31809 -1.0448,0.71468 -1.441,0.88132 -0.8745,0.36771 -3.3225,1.89239 -6.784,4.22527 -1.4206,0.95738 -3.1668,2.03802 -3.8805,2.40142 -0.7137,0.36341 -2.551,1.33704 -4.0829,2.16363 -2.3925,1.29089 -5.9306,2.78768 -10.7112,4.53127 -2.3659,0.86292 -8.2768,1.89052 -10.8744,1.89052 -2.2609,0 -2.6224,-0.12228 -2.4848,-0.8405 z m 0.7103,-9.92974 c -0.3631,-0.94612 -0.036,-1.06943 3.8777,-1.46263 1.6486,-0.16561 3.594,-0.50431 4.3232,-0.75266 0.7292,-0.24834 2.745,-0.64817 4.4796,-0.8885 3.5379,-0.49018 11.4747,-3.35566 17.9815,-6.49205 2.3778,-1.14608 7.3028,-3.44444 10.9444,-5.10746 3.6417,-1.66302 7.2083,-3.57007 7.9258,-4.23789 3.0389,-2.8285 7.9928,-6.32217 11.9522,-8.42909 6.4131,-3.41263 15.4708,-8.79094 17.068,-10.13476 1.5317,-1.28859 2.0905,-1.45106 2.5324,-0.73621 0.6395,1.03463 -8.1346,6.8357 -18.4795,12.21789 -2.7555,1.43359 -7.058,4.33891 -9.1116,6.15277 -3.5988,3.17852 -5.5819,4.70551 -6.1111,4.70551 -0.3461,0 -4.4661,1.8553 -9.1553,4.12288 -7.9754,3.85668 -17.5562,7.90208 -21.1361,8.92459 -1.5881,0.45358 -11.2307,2.17887 -14.8176,2.65121 -1.5466,0.20367 -2.0346,0.0891 -2.2736,-0.5336 z m 15.531,-18.74545 c 0,-0.43349 0.6837,-0.81322 1.8013,-1.0005 3.2424,-0.54332 12.6272,-3.93624 23.1769,-8.37922 1.1889,-0.50068 3.6621,-1.48711 5.496,-2.19205 1.834,-0.70494 4.1534,-1.79858 5.1542,-2.43032 1.0009,-0.63173 2.0432,-1.1486 2.3162,-1.1486 0.273,0 0.8718,-0.20033 1.3305,-0.44518 0.4588,-0.24484 2.3417,-1.12069 4.1843,-1.94633 1.8425,-0.82564 4.0041,-1.98933 4.8035,-2.58599 0.7993,-0.59665 2.884,-1.86239 4.6326,-2.81277 3.8377,-2.08574 10.0308,-6.4368 10.8982,-7.65665 0.6142,-0.86384 2.4945,-1.24774 2.4945,-0.50931 0,1.3583 -4.4472,5.12961 -9.8471,8.35041 -8.7666,5.2289 -8.8883,5.29682 -11.2882,6.30145 -0.9247,0.38707 -4.3832,2.01771 -7.6856,3.62365 -3.3024,1.60594 -7.0852,3.25889 -8.4061,3.67322 -1.321,0.41434 -2.8341,0.95055 -3.3625,1.19159 -1.3416,0.61204 -8.9838,3.70649 -12.7292,5.15432 -4.3608,1.68571 -10.523,3.51095 -11.8532,3.51095 -0.6565,0 -1.1163,-0.28774 -1.1163,-0.69867 z m 15.8516,-6.91143 c 0,-0.82155 3.5654,-3.16448 8.6463,-5.68175 1.1888,-0.589 3.7827,-2.04667 5.7641,-3.23925 1.9815,-1.19258 4.6385,-2.7698 5.9045,-3.50493 5.9947,-3.48101 13.8784,-8.6993 16.992,-11.24723 3.1484,-2.57633 4.9638,-3.45719 4.9638,-2.40843 0,0.22464 -0.6827,0.92706 -1.5171,1.56092 -0.8344,0.63386 -1.7531,1.37171 -2.0415,1.63966 -2.7915,2.59359 -7.322,5.55585 -17.8169,11.64951 -5.5906,3.24603 -7.311,4.20656 -14.4105,8.04569 -1.8494,1.00004 -3.9362,2.21727 -4.6375,2.70496 -1.4055,0.97742 -1.8472,1.09241 -1.8472,0.48085 z m -1.4411,-2.73108 c 0,-0.38794 0.3243,-0.70535 0.7205,-0.70535 0.3963,0 0.7206,0.19301 0.7206,0.4289 0,0.2359 -0.3243,0.5533 -0.7206,0.70535 -0.4389,0.1684 -0.7205,7.6e-4 -0.7205,-0.4289 z m 2.0245,-1.3057 c 0.1007,-0.3302 2.01,-1.82398 4.243,-3.31951 2.233,-1.49554 4.2762,-2.91047 4.5404,-3.1443 0.2642,-0.23383 2.1015,-1.4722 4.0829,-2.75193 1.9815,-1.27974 4.6797,-3.26882 5.9962,-4.42017 1.3164,-1.15136 2.572,-2.09338 2.7901,-2.09338 0.3709,0 4.1343,-2.76121 4.6635,-3.42154 0.4241,-0.5292 8.3646,-5.70385 8.7525,-5.70385 0.677,0 0.3905,1.08188 -0.4664,1.76144 -0.4624,0.36665 -2.2457,1.63633 -3.9629,2.82151 -1.7173,1.18518 -4.3112,3.01412 -5.7642,4.06432 -6.703,4.84457 -8.4378,6.05083 -16.1893,11.25736 -4.545,3.05272 -8.3998,5.5504 -8.5662,5.5504 -0.1665,0 -0.2203,-0.27016 -0.1196,-0.60035 z m 73.6239,26.28346 c 6.266,-4.68719 8.8003,-7.64033 12.3013,-14.33395 1.3673,-2.61432 2.6727,-5.53497 2.9007,-6.49032 2.6533,-11.11533 2.8819,-14.24494 1.4149,-19.37375 -0.9488,-3.31745 -3.0725,-7.66853 -4.1993,-8.60354 -0.959,-0.79579 -2.2248,0.93473 -5.1541,7.04627 -2.029,4.23315 -3.009,5.70081 -4.867,7.28874 -2.0026,1.71156 -2.2389,2.09368 -1.6979,2.7455 0.3865,0.46568 0.5162,1.31899 0.3367,2.21636 -0.166,0.82947 -0.04,1.86233 0.2916,2.39341 0.4754,0.76104 0.3926,1.53657 -0.4461,4.18298 -1.6903,5.33361 -2.0162,6.83054 -1.5496,7.11888 1.0349,0.63952 -0.2485,5.55919 -2.4359,9.33766 -0.6882,1.1887 -1.1718,2.54303 -1.0747,3.00962 0.1917,0.92098 -1.1265,4.81671 -2.146,6.34271 -0.3482,0.52105 -0.633,1.0921 -0.633,1.269 0,0.58883 3.0771,-1.24615 6.9584,-4.14957 z m -72.0458,-34.01944 1.9214,-1.8525 -2.762,2.03028 c -1.5191,1.11665 -2.762,2.2469 -2.762,2.51166 0,0.56995 0.9836,-0.16433 3.6026,-2.68944 z m 7.4455,-5.5988 c 0.1321,-0.15126 2.0775,-1.80323 4.3231,-3.67105 3.8234,-3.18011 6.788,-6.07182 5.3774,-5.24514 -4.2453,2.48801 -14.9844,11.35766 -14.9844,12.37598 0,0.33289 4.6049,-2.68235 5.2839,-3.45979 z m 13.207,-11.03864 c 0.7352,-0.27947 1.2337,-0.61113 1.1078,-0.73701 -0.3652,-0.36517 -3.2668,0.78207 -3.2668,1.29164 0,0.25391 0.185,0.34732 0.4111,0.20758 0.2262,-0.13973 1.0127,-0.48273 1.7479,-0.76221 z m 74.6967,-21.61374 c 0.549,-0.35465 0.358,-0.46733 -0.801,-0.47293 -0.837,-0.004 -1.864,-0.13855 -2.282,-0.29888 -0.4984,-0.19131 -0.7596,-0.0262 -0.7596,0.48028 0,0.88163 2.6216,1.08052 3.8426,0.29153 z m 1.588,-3.57574 c -3.14,-0.98135 -6.2632,-1.34268 -6.6198,-0.7658 -0.5082,0.82219 1.6688,1.39907 5.2718,1.39726 l 3.363,-0.002 z M 9860.9553,282.0062 c -0.5601,-0.56 -0.1974,-1.9293 0.5897,-2.22689 1.2902,-0.48773 7.7925,-4.78499 7.7995,-5.15453 0.01,-0.40537 -4.8992,1.57002 -9.2922,3.7408 -1.8128,0.89581 -3.3804,1.62874 -3.4835,1.62874 -0.1031,0 -0.1855,-0.37822 -0.183,-0.84049 0,-0.78522 4.9703,-3.53611 9.3274,-5.16675 0.8118,-0.30381 2.9736,-1.24604 4.8042,-2.09384 3.3822,-1.56645 4.8145,-1.66831 4.2914,-0.3052 -0.1595,0.41551 -2.3174,2.16884 -4.7954,3.89628 -2.478,1.72744 -4.5055,3.33122 -4.5055,3.56395 0,0.23274 0.8933,0.10805 1.985,-0.27709 2.015,-0.71084 6.2264,-3.43323 13.111,-8.47545 2.0943,-1.53383 3.9857,-2.78878 4.2031,-2.78878 0.9931,0 0.2151,1.06157 -1.6462,2.24617 -1.1229,0.71458 -2.69,1.87625 -3.4826,2.58147 -3.7443,3.33168 -8.1538,6.30962 -10.9049,7.36452 -4.2896,1.6449 -7.5253,2.59974 -7.818,2.30709 z m 154.2597,-9.29805 c -1.014,-0.22039 -3.608,-1.01949 -5.764,-1.77578 -2.157,-0.75629 -5.002,-1.52601 -6.323,-1.71048 -3.2265,-0.45059 -13.7828,-3.5547 -14.5132,-4.26764 -0.3207,-0.31303 -0.4242,-0.82608 -0.23,-1.14012 0.262,-0.42362 1.2524,-0.26818 3.8377,0.6023 1.9165,0.64529 6.4513,1.83028 10.0775,2.63329 6.576,1.45652 15.959,4.55011 15.959,5.26203 0,0.65932 -1.147,0.80874 -3.044,0.3964 z m 8.088,-1.35087 c -0.793,-0.20565 -2.306,-0.75188 -3.363,-1.21386 -1.057,-0.46197 -3.65,-1.33854 -5.764,-1.94791 -2.113,-0.60938 -6.26,-1.95954 -9.215,-3.00035 -2.954,-1.04081 -5.9806,-2.00149 -6.7247,-2.13484 -0.7441,-0.13335 -4.7915,-1.13256 -8.9944,-2.22046 -4.2029,-1.08791 -8.2708,-1.97802 -9.04,-1.97802 -1.1654,0 -1.3728,-0.17527 -1.2449,-1.05217 0.1252,-0.8576 0.7309,-1.1987 3.2758,-1.84451 1.7173,-0.43579 4.4192,-1.24605 6.0044,-1.80058 1.5851,-0.55453 5.0436,-1.67736 7.6856,-2.49516 5.0772,-1.57164 9.5242,-3.31359 14.6562,-5.74101 3.22,-1.52304 6.24,-1.94666 6.237,-0.87472 0,0.33019 -1.028,1.00985 -2.281,1.51034 -1.254,0.50049 -3.469,1.4473 -4.922,2.10402 -5.861,2.64876 -9.583,4.0537 -14.3992,5.43495 -5.717,1.6396 -9.1337,2.91721 -9.1364,3.4163 0,0.18615 0.8088,0.46959 1.7995,0.62988 0.9907,0.16028 3.7467,0.81989 6.1245,1.4658 2.3777,0.6459 4.6029,1.17294 4.9448,1.17118 0.3419,-0.002 2.8278,0.77129 5.5238,1.71788 2.696,0.94658 6.524,2.26351 8.505,2.9265 1.982,0.66299 4.792,1.64079 6.245,2.17287 1.453,0.53209 3.885,1.31777 5.404,1.74597 2.03,0.57218 2.762,1.00403 2.762,1.62933 0,0.92926 -1.445,1.06318 -4.083,0.37857 z m -144.2074,-3.22315 c -0.3306,-0.8616 0.1158,-1.16705 5.1388,-3.5158 3.5432,-1.65676 4.8458,-2.39429 8.1355,-4.60608 1.5591,-1.04821 2.7815,-1.13196 2.1739,-0.14895 -0.5622,0.90952 -7.278,5.15513 -11.1709,7.062 -3.3394,1.63574 -4.0377,1.8331 -4.2773,1.20883 z m 37.3294,-16.43726 c 0,-0.76239 0.7913,-1.51828 2.9539,-2.82167 1.6246,-0.97917 3.7321,-2.45139 4.6834,-3.27161 0.9512,-0.82021 1.9456,-1.57666 2.2098,-1.68099 0.9762,-0.38551 5.0219,-3.49346 4.8157,-3.69954 -0.3255,-0.32554 -5.0215,2.23839 -6.342,3.46266 -1.2539,1.16253 -14.6682,8.45215 -15.5536,8.45215 -1.889,0 2.3512,-2.87775 10.355,-7.02776 1.8494,-0.95889 3.9891,-2.26854 4.755,-2.91032 0.7659,-0.64178 2.6032,-1.79026 4.083,-2.55217 1.4797,-0.76191 3.6631,-2.0446 4.852,-2.85043 2.3185,-1.57151 3.8428,-1.88583 3.8428,-0.79242 0,1.01537 -7.4125,7.96828 -8.4949,7.96828 -0.3626,0 -1.4089,0.82556 -4.4746,3.53063 -0.3962,0.34967 -1.1297,0.78405 -1.6298,0.96529 -0.5002,0.18124 -0.7771,0.46178 -0.6155,0.62342 0.1617,0.16164 0.8951,-0.10858 1.6299,-0.6005 0.7348,-0.49192 2.9571,-1.73501 4.9386,-2.76242 1.9814,-1.02741 4.1764,-2.27516 4.8776,-2.77279 1.3189,-0.93589 2.3276,-1.17189 2.3276,-0.54455 0,1.43452 -13.8322,9.29023 -17.6528,10.02561 -1.3737,0.2644 -1.5611,0.17544 -1.5611,-0.74087 z m 36.9869,-25.66002 c 0,-0.3553 0.3782,-0.97015 0.8406,-1.36635 1.0536,-0.90289 4.6349,-2.31022 5.8789,-2.31022 1.4913,0 0.6572,1.18696 -1.3323,1.89588 -0.9815,0.34977 -2.3584,1.03885 -3.0597,1.53131 -1.5044,1.0565 -2.3275,1.14469 -2.3275,0.24938 z"
         id="path1"
         sodipodi:nodetypes="ccsccccsccccscsccssccsssccssscsccsssssscsssscssscsccsccccsccssccssssssccssccsssssccsccscscssscsssscssccccssccscscccccscsssccccccssscscsssscssccssssscsssssscsssscccsssssssccssssssccccssssscccsssccssssssssssssssssccccsccsccccscssscsccssccsccccsscscccsssccscscccssscsscsssccscssssccccscscsscsccccccssscccssssccscscscsscscsssccsscsssssssccsccsscsccsccsccssccscsscssscsscccsssccsscccccccccscssccsccscsccsssssscscscccssscscsscsccccccsssscccsccscsscsscsssssccssssssscssscssccsccscsccccccccsccscscsscssccsssccssccscsssscsssccscccccssssscssssscccsssccssssssssssccsssccccssccccssssccsssscscscssssccssssscscccsccscccsccsscscsssssscccsscsssscsscsccssscsssscccscsscscscsccsssscsscscsssscssscscsccsssscsscs" /></g></g></svg>
