<?xml version="1.0" encoding="UTF-8" standalone="no"?>
<!-- Created with Inkscape (http://www.inkscape.org/) -->

<svg
   width="61.221001mm"
   height="62.240601mm"
   viewBox="0 0 61.221 62.240601"
   version="1.1"
   id="svg1"
   xml:space="preserve"
   xmlns="http://www.w3.org/2000/svg"
   xmlns:svg="http://www.w3.org/2000/svg"><defs
     id="defs1" /><g
     id="layer1"
     transform="translate(1472.671,3650.7208)"><g
       id="g1176"
       transform="matrix(0.26458333,0,0,0.26458333,-4620.5935,-3728.8029)"><path
         style="fill:#000000"
         d="m 11999.173,515.02835 c 0,-1.42666 9.224,-10.91491 22.153,-22.78727 7.991,-7.33746 17.75,-16.81681 31.497,-30.59239 5.045,-5.05599 6.482,-6.24526 7.21,-5.96794 0.73,0.27799 0.791,0.22684 0.308,-0.25917 -0.482,-0.48543 -0.296,-0.91982 0.936,-2.1903 0.845,-0.87163 1.819,-1.58479 2.164,-1.58479 0.344,0 0.626,-0.2719 0.626,-0.60423 0,-0.56287 11.751,-12.87535 14.421,-15.11086 0.661,-0.55328 1.712,-1.56741 2.334,-2.25362 1.135,-1.25119 1.993,-1.60918 1.993,-0.83204 0,0.76444 -1.984,2.94724 -2.679,2.94724 -0.377,0 -0.686,0.29344 -0.686,0.65209 0,0.35864 -1.244,1.81868 -2.764,3.24454 -1.52,1.42585 -4.495,4.53556 -6.61,6.91046 -2.115,2.37489 -5.535,5.94113 -7.6,7.92497 -2.065,1.98384 -5.418,5.30824 -7.451,7.38756 -2.033,2.07932 -4.753,4.78162 -6.045,6.00512 -1.292,1.22349 -6.375,6.23243 -11.297,11.13096 -4.921,4.89853 -9.921,9.69445 -11.11,10.6576 -1.19,0.96315 -3.594,3.1165 -5.341,4.78524 -1.748,1.66874 -4.636,4.33117 -6.418,5.91652 -2.807,2.49683 -10.85,10.98727 -13.353,14.09442 -0.874,1.0848 -2.288,1.40984 -2.288,0.52589 z m -10.542,-32.59366 c -1.06,-0.81423 -1.175,-1.26986 -1.24,-4.91351 -0.04,-2.20883 -0.236,-4.5928 -0.436,-5.29771 -0.293,-1.02757 -0.166,-1.38791 0.637,-1.8176 0.551,-0.29477 1.44,-1.39345 1.975,-2.44152 0.535,-1.04807 1.207,-1.90558 1.493,-1.90558 0.286,0 1.958,-1.45924 3.715,-3.24276 1.758,-1.78352 4.557,-4.21559 6.22,-5.4046 2.984,-2.13326 3.04,-2.21585 4.249,-6.24533 0.673,-2.24591 1.615,-5.38058 2.092,-6.96593 0.478,-1.58535 0.672,-2.95524 0.433,-3.0442 -1.283,-0.47772 -13.377,4.3679 -23.738,9.51104 -11.926,5.91982 -16.822,8.18564 -17.686,8.18564 -0.276,0 -3.968,1.74872 -8.205,3.88604 -4.236,2.13732 -9.878,4.85281 -12.538,6.03442 -2.659,1.18161 -6.89,3.13327 -9.401,4.33702 -9.765,4.67987 -17.746,7.56113 -18.595,6.7128 -0.782,-0.78188 0.769,-1.9509 3.627,-2.73274 1.654,-0.45246 3.806,-1.15653 4.781,-1.56461 0.976,-0.40807 3.505,-1.43088 5.62,-2.27289 2.115,-0.84201 5.252,-2.23819 6.97,-3.10262 1.719,-0.86443 3.99,-1.95012 5.048,-2.41265 1.057,-0.46252 5.6,-2.63165 10.094,-4.82028 4.495,-2.18863 10.011,-4.73422 12.258,-5.65687 3.89,-1.59706 8.268,-3.61135 10.321,-4.74874 3.154,-1.74777 15.304,-7.58427 17.32,-8.31998 1.321,-0.4826 2.619,-1.0355 2.884,-1.22869 0.264,-0.19318 2.522,-1.03882 5.018,-1.8792 7.529,-2.53536 8.181,-2.86283 8.485,-4.26365 0.151,-0.69697 0.453,-1.80767 0.671,-2.46823 0.398,-1.21017 0.908,-3.30779 1.985,-8.16696 0.322,-1.45324 0.583,-5.23646 0.579,-8.40717 -0.01,-10.82783 -0.777,-29.09754 -1.209,-28.95337 -0.447,0.14877 -2.781,5.53046 -5.229,12.05734 -0.776,2.06886 -2.938,6.87554 -4.804,10.68151 -1.865,3.80598 -3.397,7.30169 -3.403,7.76826 0,0.46657 0.242,2.31909 0.552,4.11671 0.677,3.93531 0.464,4.65835 -1.377,4.65835 -1.593,0 -1.989,-0.66272 -1.989,-3.32865 0,-1.11928 -0.367,-2.23115 -0.962,-2.91667 -0.528,-0.60931 -0.961,-1.54031 -0.961,-2.06889 0,-1.02576 2.125,-5.85916 3.104,-7.05889 0.323,-0.39633 1.092,-2.01771 1.708,-3.60307 0.616,-1.58535 1.505,-3.44057 1.975,-4.12272 0.47,-0.68216 1.308,-2.41163 1.863,-3.84328 0.554,-1.43165 1.304,-3.25155 1.666,-4.04423 0.363,-0.79267 1.238,-2.95452 1.946,-4.80409 0.707,-1.84958 1.475,-3.79524 1.707,-4.32369 1.383,-3.15352 2.227,-6.0815 2.038,-7.0713 -0.132,-0.68682 0.158,-1.6025 0.732,-2.31008 l 0.949,-1.17223 2.368,0.85076 c 1.82,0.65399 3.526,0.81888 7.379,0.71292 l 5.012,-0.13785 0.15,-1.54274 c 0.13,-1.34578 -0.05,-1.63179 -1.443,-2.24017 -1.939,-0.85015 -4.093,-3.13175 -5.863,-6.21022 -2.429,-4.22668 -1.715,-11.02954 1.511,-14.3953 3.11,-3.24493 12.433,-3.21873 16.942,0.0476 4.021,2.91285 5.287,5.34933 5.287,10.17048 0,3.38761 -1.041,6.05663 -3.047,7.8132 -1.381,1.20806 -6.025,2.93737 -8.921,3.32173 -0.634,0.0841 -1.386,0.52533 -1.672,0.98045 -1.039,1.65667 0.276,2.0295 7.205,2.04262 6.342,0.012 6.547,0.0448 7.479,1.19533 0.704,0.86851 0.877,1.57089 0.652,2.64225 -0.844,4.01369 -0.925,6.86656 -0.382,13.4695 0.674,8.18247 0.884,9.36798 1.663,9.36798 0.305,0 3.554,-3.02657 7.219,-6.72573 5.549,-5.60053 6.899,-6.72573 8.072,-6.72573 2.709,0 3.346,3.41928 0.84,4.51103 -1.559,0.67918 -13.82,12.82917 -13.82,13.69475 0,0.86336 -2.49,3.41264 -3.333,3.41264 -1.683,0 -2.352,-1.50555 -2.562,-5.76491 -0.31,-6.29258 -1.474,-17.77515 -1.802,-17.77515 -0.628,0 -2.393,2.91309 -4.533,7.47948 -1.229,2.62403 -2.431,5.09524 -2.672,5.49158 -0.24,0.39634 -1.474,2.7075 -2.742,5.13591 -3.093,5.92553 -3.568,6.77897 -5.087,9.14672 -0.717,1.11771 -1.304,2.25697 -1.304,2.5317 0,0.27472 -0.541,1.35564 -1.202,2.40204 -1.498,2.37146 -1.494,2.48978 0.121,4.2475 0.727,0.79142 1.754,1.99025 2.283,2.66406 l 0.961,1.22511 9.374,-4.68815 c 5.155,-2.57848 11.645,-5.90522 14.421,-7.39275 8.218,-4.40374 26.406,-13.3505 27.14,-13.3505 0.186,0 1.788,-0.72728 3.56,-1.61618 1.772,-0.8889 3.756,-1.78471 4.408,-1.99068 0.652,-0.20597 3.37,-1.42435 6.04,-2.70751 2.67,-1.28315 5.088,-2.333 5.374,-2.333 0.286,0 1.944,-0.65907 3.686,-1.46459 2.988,-1.38233 4.111,-1.49394 4.111,-0.40861 0,0.50565 -5.093,2.92911 -8.652,4.11717 -1.19,0.3971 -3.245,1.219 -4.567,1.82645 -3.167,1.45552 -5.686,2.58083 -11.777,5.26233 -2.776,1.22209 -5.588,2.5204 -6.249,2.88515 -2.152,1.18752 -6.875,3.5479 -11.537,5.76605 -2.512,1.19498 -5.757,2.8518 -7.211,3.68181 -3.984,2.27408 -26.316,13.40412 -26.895,13.40412 -0.831,0 -0.572,1.7065 0.457,3.01355 0.529,0.67181 0.961,1.44102 0.961,1.70936 0,0.26833 0.527,1.11349 1.171,1.87814 1.589,1.88771 2.065,3.86341 1.026,4.2619 -1.219,0.46747 -1.951,2.30262 -3.619,9.07404 -1.434,5.82525 -2.128,8.45408 -3.993,15.13289 -1.315,4.7135 -1.388,5.28451 -0.673,5.28451 0.746,0 2.814,-1.79124 3.517,-3.04653 0.415,-0.74099 0.672,-0.76431 2.36,-0.21372 1.478,0.48222 1.925,0.89001 2.038,1.85609 0.122,1.04834 -0.283,1.50502 -2.644,2.97982 -1.534,0.95796 -3.608,2.5058 -4.611,3.43966 -2.613,2.43422 -3.368,2.7572 -4.537,1.93897 -1.383,-0.96763 -1.689,-2.72241 -0.895,-5.1276 0.375,-1.1368 1.118,-3.90446 1.653,-6.15038 0.534,-2.24591 1.418,-5.95995 1.965,-8.25341 0.546,-2.29347 1.428,-6.40097 1.958,-9.12778 0.531,-2.72681 1.421,-6.26562 1.978,-7.86402 l 1.012,-2.90618 -1.069,-2.4833 c -1.57,-3.64755 -1.755,-3.70995 -5.576,-1.87724 -1.825,0.87554 -4.024,1.87417 -4.885,2.21917 -1.331,0.53312 -1.681,1.03287 -2.332,3.32968 -0.421,1.48632 -1.535,5.08044 -2.475,7.98691 -0.94,2.90648 -1.731,6.29118 -1.759,7.52157 -0.05,2.2624 -1.209,4.24846 -2.478,4.24846 -1.806,0 -5.115,2.14461 -8.239,5.34093 -6.634,6.78758 -7.098,7.6858 -6.625,12.81384 0.227,2.45947 0.15,3.71109 -0.259,4.20358 -0.741,0.89131 -0.934,0.87342 -2.354,-0.21752 z m 30.118,-48.60923 c 4.548,-2.07667 4.646,-2.18548 3.459,-3.85143 -1.18,-1.65601 -1.699,-1.7231 -2.801,-0.36241 -0.706,0.87107 -0.989,0.93979 -1.89,0.45819 -1.379,-0.73773 -1.858,-0.39183 -2.461,1.77716 -0.624,2.2452 -0.635,3.46561 -0.03,3.46561 0.258,0 1.934,-0.66921 3.725,-1.48712 z m 1.91,-15.60692 c 1.11,-2.09207 2.029,-4.16408 2.043,-4.60445 0.01,-0.44038 0.2,-0.87275 0.414,-0.96082 0.213,-0.0881 1.762,-2.75435 3.441,-5.92505 1.68,-3.1707 3.598,-6.62965 4.262,-7.68655 0.665,-1.0569 2.169,-3.8673 3.342,-6.24532 1.173,-2.37803 2.866,-5.32548 3.762,-6.54989 0.896,-1.22442 1.629,-2.46748 1.629,-2.76236 0,-0.47822 -3.697,-0.80679 -7.692,-0.68364 -0.661,0.0204 -4.554,0.13793 -8.652,0.26123 l -7.451,0.22418 0.05,2.11299 c 0.166,6.66584 0.8,15.8109 1.204,17.37703 0.258,0.99693 0.448,4.99633 0.424,8.88758 -0.07,10.78798 -0.07,10.78113 0.602,10.55849 0.331,-0.1098 1.509,-1.91134 2.619,-4.00342 z m 12.263,-47.01693 c 4.161,-1.2617 6.253,-3.58603 4.522,-5.02207 -0.533,-0.44161 -0.73,-0.29521 -0.988,0.73128 -0.223,0.88776 -0.477,1.12954 -0.822,0.78426 -0.346,-0.34528 -0.262,-1.87864 0.27,-4.97385 0.676,-3.9353 0.684,-4.55974 0.06,-5.18032 -0.942,-0.94139 -1.059,-0.58058 -1.835,5.67561 -0.374,3.01505 -0.854,5.0872 -1.206,5.20443 -0.755,0.2514 -0.729,-1.35561 0.108,-6.85121 0.363,-2.37803 0.559,-4.42552 0.438,-4.54998 -0.436,-0.44494 -1.029,1.11058 -1.346,3.53057 -0.543,4.13275 -1.794,8.5181 -2.372,8.31292 -0.296,-0.10493 -0.495,-0.59988 -0.444,-1.0999 0.317,-3.08709 0.969,-6.7294 1.868,-10.43899 0.297,-1.22882 0.219,-1.347 -0.797,-1.20103 -1.01,0.14509 -1.186,0.54483 -1.696,3.84858 -0.313,2.02767 -0.748,3.97332 -0.968,4.32368 -0.219,0.35036 -0.471,1.16081 -0.559,1.80102 -0.221,1.60931 -1.026,3.00063 -1.55,2.67734 -0.239,-0.14798 -0.314,-0.5864 -0.165,-0.97428 0.169,-0.43973 -0.02,-0.70522 -0.501,-0.70522 -0.995,0 -1.008,-1.7771 -0.04,-5.49215 0.403,-1.54635 0.616,-2.92851 0.473,-3.07146 -0.558,-0.55773 -1.247,0.83059 -1.88,3.78984 -0.363,1.70078 -0.813,3.67387 -1,4.38463 -0.28,1.06805 -0.05,1.57725 1.305,2.9345 0.904,0.90321 1.951,1.76385 2.328,1.91254 1.281,0.50538 4.523,0.33797 6.794,-0.35074 z m 6.1,-8.13221 c 0.603,-0.72549 -0.05,-3.1811 -0.845,-3.1811 -0.464,0 -1.011,1.60744 -1.022,3.00256 0,1.00312 1.095,1.10858 1.867,0.17854 z m -16.783,-1.61976 c 0,-1.02949 -0.11,-1.16205 -0.473,-0.60052 -0.608,0.93994 -0.608,1.92164 0,1.92164 0.264,0 0.477,-0.59451 0.473,-1.32112 z m 5.202,-1.81425 c -0.148,-0.14791 -0.417,0.11871 -0.597,0.5925 -0.261,0.68468 -0.206,0.73986 0.269,0.26893 0.329,-0.32587 0.476,-0.71352 0.328,-0.86143 z m -80.905,88.64824 c -0.164,-0.26423 0.04,-0.48041 0.452,-0.48041 0.412,0 0.75,0.21618 0.75,0.48041 0,0.26422 -0.204,0.48041 -0.453,0.48041 -0.249,0 -0.586,-0.21619 -0.749,-0.48041 z m 137.721,-17.28707 c 0,-0.26 1.893,-2.25921 4.206,-4.44269 2.313,-2.18348 6.827,-6.56467 10.03,-9.73597 11.319,-11.20575 16.048,-15.11695 16.048,-13.27171 0,0.42664 -4.726,5.10089 -8.615,8.51967 -1.168,1.02767 -3.98,3.79 -6.249,6.1385 -2.268,2.3485 -5.205,5.13011 -6.527,6.18136 -1.322,1.05124 -3.655,3.0751 -5.185,4.49747 -2.702,2.51279 -3.708,3.08595 -3.708,2.11337 z m -29.323,-49.02131 c 0,-1.01203 1.929,-2.0716 3.293,-1.80903 1.105,0.21271 0.804,1.01115 -0.72,1.90591 -1.855,1.08974 -2.573,1.06271 -2.573,-0.0969 z m 4.807,-1.39758 c 0,-0.66359 3.519,-2.1531 4.741,-2.00663 0.719,0.0863 1.017,-0.0551 0.813,-0.38573 -0.178,-0.28702 0,-0.52186 0.397,-0.52186 0.423,0 0.689,0.39569 0.647,0.96082 -0.04,0.57541 -0.417,0.96082 -0.932,0.96082 -0.472,0 -0.913,0.005 -0.979,0.0109 -0.07,0.006 -1.148,0.31992 -2.404,0.69764 -1.255,0.37772 -2.283,0.50555 -2.283,0.28407 z m 7.211,-2.59283 c 0,-0.79326 3.683,-2.60012 6.729,-3.30129 2.759,-0.63503 6.436,-2.09494 6.604,-2.62217 0.1,-0.30677 -0.318,-1.01905 -0.923,-1.58283 -0.908,-0.84575 -0.981,-1.09947 -0.412,-1.45045 0.404,-0.24964 1.034,-0.24076 1.524,0.0215 0.459,0.24579 2.243,0.44689 3.963,0.44689 1.768,0 3.271,0.23119 3.457,0.5317 0.229,0.37065 0.454,0.33427 0.742,-0.1201 0.315,-0.49647 0.415,-0.4342 0.421,0.2613 0,0.5022 -1.129,2.05177 -2.517,3.4435 -1.388,1.39172 -2.802,2.87244 -3.143,3.29048 -0.948,1.16194 -1.407,0.92075 -1.752,-0.92135 -0.174,-0.92479 -0.405,-1.68143 -0.513,-1.68143 -0.761,0 -9.256,2.62857 -9.746,3.01551 -0.336,0.26635 -0.743,0.353 -0.904,0.19257 -0.16,-0.16044 -0.744,0.0249 -1.297,0.41195 -1.252,0.8766 -2.233,0.90481 -2.233,0.0642 z"
         id="path2" /></g></g></svg>
