<?xml version="1.0" encoding="UTF-8" standalone="no"?>
<!-- Created with Inkscape (http://www.inkscape.org/) -->

<svg
   width="61.221001mm"
   height="62.240601mm"
   viewBox="0 0 61.221 62.240601"
   version="1.1"
   id="svg1"
   xml:space="preserve"
   inkscape:export-filename="run.svg"
   inkscape:export-xdpi="96"
   inkscape:export-ydpi="96"
   xmlns:inkscape="http://www.inkscape.org/namespaces/inkscape"
   xmlns:sodipodi="http://sodipodi.sourceforge.net/DTD/sodipodi-0.dtd"
   xmlns="http://www.w3.org/2000/svg"
   xmlns:svg="http://www.w3.org/2000/svg"><sodipodi:namedview
     id="namedview1"
     pagecolor="#ffffff"
     bordercolor="#000000"
     borderopacity="0.25"
     inkscape:showpageshadow="2"
     inkscape:pageopacity="0.0"
     inkscape:pagecheckerboard="0"
     inkscape:deskcolor="#d1d1d1"
     inkscape:document-units="mm"><inkscape:page
       x="0"
       y="0"
       width="61.221001"
       height="62.240601"
       id="page2"
       margin="0"
       bleed="0" /></sodipodi:namedview><defs
     id="defs1" /><g
     inkscape:label="Layer 1"
     inkscape:groupmode="layer"
     id="layer1"
     transform="translate(1472.671,3650.7208)"><path
       id="path936"
       d="m -1472.5017,-3650.5514 h 60.8824 v -0.1694 h -60.8824 z"
       style="fill:#000000;fill-opacity:1;fill-rule:evenodd;stroke:none;stroke-width:0.352778" /><path
       id="path941-9"
       d="m -1472.671,-3588.6495 h 0.1693 v -61.8984 h -0.1693 z"
       style="fill:#000000;fill-opacity:1;fill-rule:evenodd;stroke:none;stroke-width:0.352778" /><path
       id="path942"
       d="m -1411.6193,-3588.6495 h 0.1693 v -61.8984 h -0.1693 z"
       style="fill:#000000;fill-opacity:1;fill-rule:evenodd;stroke:none;stroke-width:0.352778" /><path
       id="path952"
       d="m -1472.5017,-3588.4802 h 60.8824 v -0.1693 h -60.8824 z"
       style="fill:#000000;fill-opacity:1;fill-rule:evenodd;stroke:none;stroke-width:0.352778" /><g
       id="g1174"
       transform="matrix(0.26458333,0,0,0.26458333,-4557.1975,-3734.1352)"><path
         style="fill:#000000"
         d="m 11706.691,494.20566 c -0.262,-0.26148 -3.974,-0.68702 -6.331,-0.7258 -1.924,-0.0316 -2.974,-1.21526 -1.75,-1.97203 0.801,-0.49523 10.11,-0.0165 10.73,0.55183 0.266,0.24411 0.09,0.79712 -0.435,1.379 -0.825,0.9122 -1.749,1.23223 -2.214,0.767 z m 28.733,-1.05208 c -0.505,-1.10901 -0.442,-1.36265 0.543,-2.16027 0.614,-0.49704 1.795,-0.92515 2.623,-0.95134 6.847,-0.21636 7.16,-0.19037 7.685,0.63869 0.402,0.63524 0.353,1.00481 -0.211,1.56826 -0.593,0.59364 -1.027,0.63598 -2.228,0.21744 -2.374,-0.8277 -5.093,-0.4123 -5.653,0.86363 -0.638,1.45613 -2.057,1.36547 -2.759,-0.17641 z m 38.399,-0.56402 c -0.897,-1.08102 0.274,-1.57221 3.999,-1.67844 3.36,-0.0958 3.567,-0.0413 3.711,0.97869 0.09,0.64351 -0.102,1.09057 -0.48,1.10594 -5.453,0.2222 -6.771,0.14819 -7.23,-0.40619 z m 17.312,0.0374 c -0.276,-0.33269 -0.376,-0.93169 -0.223,-1.3311 0.414,-1.07988 8.373,-1.05619 8.788,0.0262 0.468,1.21845 -0.342,1.54364 -4.311,1.73188 -2.62,0.12426 -3.903,-0.005 -4.254,-0.42694 z m -73.839,-0.90924 c 0,-1.51472 0.605,-1.71654 5.4,-1.79957 3.747,-0.0649 3.969,-0.0113 4.112,0.99459 0.177,1.2514 -0.348,1.41013 -5.792,1.75056 -3.693,0.23091 -3.72,0.22397 -3.72,-0.94558 z m 37.529,0.1721 c 0.147,-1.0337 0.355,-1.08127 4.836,-1.10671 5.019,-0.0285 5.946,0.21132 5.483,1.41831 -0.245,0.6378 -1.161,0.76854 -5.384,0.76854 -5.002,0 -5.086,-0.0183 -4.935,-1.08014 z m 54.325,0.34658 c -0.52,-1.3551 0.543,-1.71141 4.677,-1.56736 3.668,0.12786 4.035,0.22794 4.035,1.10077 0,0.87654 -0.366,0.9722 -4.208,1.09894 -3.506,0.11565 -4.257,0.0101 -4.504,-0.63235 z m 18.24,-0.004 c -0.162,-0.42207 -0.104,-0.95148 0.129,-1.17646 0.706,-0.68091 8.249,-0.77412 8.913,-0.11014 1.114,1.11451 -0.424,1.74136 -4.664,1.90062 -3.392,0.12743 -4.133,0.0235 -4.378,-0.61402 z m 17.114,-0.49382 c 0,-1.19156 0.06,-1.21053 3.24,-1.07109 2.873,0.12586 3.241,0.2508 3.241,1.10207 0,0.85433 -0.357,0.97234 -3.241,1.07109 -3.174,0.10873 -3.24,0.0864 -3.24,-1.10207 z m 11.761,0.75103 c -0.726,-1.17462 0.778,-1.88683 3.765,-1.78296 2.601,0.0905 2.955,0.21787 2.955,1.06291 0,0.84996 -0.367,0.9763 -3.199,1.10112 -1.936,0.0854 -3.326,-0.065 -3.521,-0.38107 z m -127.737,-7.02339 c -1.293,-0.69449 -4.08,-2.15928 -6.192,-3.25509 -7.33,-3.80275 -13.93,-7.34215 -15.601,-8.36617 -0.924,-0.56623 -2.004,-1.15401 -2.4,-1.3062 -0.396,-0.15218 -1.584,-0.66251 -2.64,-1.13405 -2.935,-1.31023 -6.898,-2.21293 -7.419,-1.6897 -0.248,0.24853 -0.732,1.2949 -1.076,2.32527 -0.755,2.26096 -1.931,3.15678 -3.146,2.39627 -1.441,-0.90241 -1.27,-3.12135 0.48,-6.22164 0.885,-1.56675 1.753,-3.22667 1.929,-3.68873 0.331,-0.86633 2.484,-1.18025 2.948,-0.42974 0.14,0.22569 1.611,0.88813 3.269,1.47208 5.006,1.76306 5.778,2.13749 15.736,7.63054 7.901,4.35916 12.795,6.67963 16.371,7.76336 1.284,0.38905 9.076,-1.8729 12.19,-3.53853 0.793,-0.42366 1.705,-0.77162 2.027,-0.77325 0.323,-0.002 1.727,-0.5147 3.121,-1.14017 1.393,-0.62547 4.045,-1.73928 5.893,-2.47512 5.665,-2.2557 9.66,-4.27898 8.786,-4.44998 -0.448,-0.0877 -1.204,0.0419 -1.68,0.28784 -0.862,0.44538 -2.131,0.69619 -12.626,2.49593 -3.036,0.52063 -6.385,1.14858 -7.441,1.39544 -4.148,0.96977 -7.721,2.00302 -8.547,2.47202 -0.476,0.27061 -2.267,0.62284 -3.979,0.78275 -2.863,0.2673 -3.218,0.19396 -4.414,-0.90997 -1.898,-1.75228 -5.663,-4.2323 -9.174,-6.04259 -1.69,-0.8715 -3.958,-2.18754 -5.04,-2.92453 -1.082,-0.73699 -3.156,-2.1158 -4.608,-3.06401 -1.452,-0.94821 -4.044,-2.71023 -5.76,-3.91559 -1.717,-1.20536 -3.357,-2.19288 -3.646,-2.19449 -0.289,-0.002 -0.917,-0.43498 -1.395,-0.96305 -1.448,-1.60019 -2.851,-1.23251 -3.863,1.01222 -0.926,2.05357 -2.704,3.6077 -3.538,3.09232 -0.266,-0.16431 -0.703,-1.0939 -0.972,-2.06574 -0.436,-1.58124 -0.362,-1.89759 0.703,-3.0093 0.654,-0.68326 1.19,-1.77649 1.19,-2.42938 0,-3.01224 3.32,-4.4281 5.525,-2.3563 1.068,1.00381 6.363,4.316 6.899,4.316 0.168,0 0.844,0.49573 1.502,1.10162 0.657,0.60589 2.491,1.87571 4.075,2.82184 6.155,3.67634 10.857,6.44803 12.89,7.59797 1.166,0.66008 3.447,2.02917 5.068,3.04241 2.699,1.68704 3.179,1.82606 5.696,1.65003 1.511,-0.10573 4.894,-0.78924 7.518,-1.5189 4.168,-1.15919 12.821,-2.76621 18.751,-3.48253 1.056,-0.12756 2.244,-0.3587 2.64,-0.51365 0.813,-0.31772 1.191,-0.40441 4.56,-1.04314 1.577,-0.29919 2.598,-0.28926 2.981,0.029 0.996,0.82589 6.309,-1.22718 18.141,-7.00904 6.853,-3.34889 11.409,-5.51273 15.121,-7.18157 0.924,-0.41546 2.112,-1.02643 2.64,-1.35771 0.528,-0.33128 1.878,-1.14573 3,-1.80988 1.121,-0.66414 2.039,-1.46532 2.04,-1.78039 0,-0.31507 0.434,-0.87647 0.964,-1.24755 0.759,-0.5316 1.319,-0.56336 2.64,-0.14979 1.583,0.49562 2.047,1.38315 1.728,3.30729 -0.03,0.20734 0.804,1.8139 1.863,3.57014 1.06,1.75624 1.926,3.31685 1.926,3.46803 0,0.15119 0.454,0.55818 1.008,0.90443 0.976,0.60951 0.998,0.56864 0.685,-1.28463 -0.596,-3.52429 0.118,-6.0298 2.438,-8.55625 1.16,-1.26403 2.11,-2.42059 2.11,-2.57011 0,-0.14952 1.026,-1.04493 2.28,-1.98979 2.68,-2.01899 8.437,-3.50531 12.328,-3.18255 1.978,0.16411 2.947,0.59944 5.184,2.33041 1.544,1.19499 2.983,2.76119 3.28,3.57086 0.291,0.79323 0.734,1.82878 0.985,2.3012 0.874,1.64649 0.629,5.86584 -0.525,9.03662 -2.113,5.80503 -8.249,10.51045 -13.692,10.49842 -0.792,-0.002 -3.166,-0.75664 -5.275,-1.67754 -2.11,-0.92089 -3.872,-1.67434 -3.917,-1.67434 -0.05,0 0.312,0.8101 0.791,1.80022 1.21,2.49523 2.616,3.65883 6.241,5.16442 1.716,0.71278 4.308,1.85766 5.761,2.54419 2.377,1.12384 3.357,1.27158 9.84,1.48251 11.615,0.3779 15.653,0.18253 17.041,-0.82463 2.607,-1.89023 4.801,-1.60607 4.801,0.62171 0,0.96267 -0.643,1.47499 -3.884,3.09728 -3.375,1.6892 -4.019,1.86604 -4.92,1.34997 -0.72,-0.41232 -3.72,-0.59386 -9.815,-0.59386 -9.189,0 -8.815,-0.0783 -10.142,2.12185 -0.235,0.38948 -1.72,0.85726 -3.466,1.09134 -3.198,0.42877 -16.687,0.50221 -20.817,0.11334 -1.32,-0.1243 -4.776,-0.43154 -7.68,-0.68275 -5.471,-0.47325 -9.96,-1.10013 -13.681,-1.91084 -1.188,-0.25881 -2.754,-0.58772 -3.48,-0.73091 -1.027,-0.20242 -1.321,-0.53236 -1.321,-1.48291 0,-0.67241 0.221,-1.63511 0.491,-2.13932 0.411,-0.76788 0.298,-0.96504 -0.694,-1.21402 -0.651,-0.1635 -2.287,-0.0608 -3.634,0.22823 -3.011,0.64583 -10.79,0.67932 -14.555,0.0627 -2.499,-0.40926 -3.072,-0.33338 -5.46,0.72287 -1.468,0.64907 -2.927,1.18013 -3.244,1.18013 -0.316,0 -1.423,0.64207 -2.46,1.42682 -1.037,0.78475 -2.284,1.43283 -2.772,1.44018 -0.487,0.007 -1.459,0.32796 -2.16,0.71249 -2.137,1.17295 -6.604,3.0602 -9.29,3.92543 -1.399,0.45093 -2.717,1.10706 -2.928,1.45807 -0.212,0.35101 -0.82,0.6382 -1.352,0.6382 -0.985,0 -4.916,1.46144 -7.219,2.68403 -1.686,0.89513 -1.804,0.87988 -4.535,-0.58633 z m 105.795,-10.08636 c 1.658,-0.44408 1.081,-1.11534 -1.834,-2.13263 -1.444,-0.50425 -3.311,-1.28179 -4.149,-1.72787 -1.253,-0.66703 -1.655,-0.7016 -2.266,-0.19467 -0.531,0.44088 -1.464,0.51388 -3.277,0.25635 -4.57,-0.64926 -5.327,-0.68648 -14.055,-0.69157 -9.273,-0.005 -11.752,0.18185 -13.287,1.00354 -1.656,0.88648 -0.359,1.38733 5.609,2.16498 8.952,1.1665 30.624,2.02783 33.259,1.32187 z m -44.529,-8.25123 c 4.295,-0.23006 6.247,-0.52804 6.829,-1.04226 3.185,-2.81414 8.03,-7.83494 9.2,-9.53413 1.11,-1.61075 1.654,-2.00523 2.609,-1.89126 0.876,0.10454 1.31,0.53285 1.583,1.56321 0.353,1.3289 0.103,1.68571 -3.928,5.60746 -2.368,2.30353 -4.306,4.42178 -4.306,4.70722 0,0.34788 0.673,0.3984 2.04,0.15325 1.123,-0.20114 5.443,-0.34828 9.601,-0.32696 4.57,0.0234 7.561,-0.14467 7.561,-0.42503 0,-0.25508 -1.587,-2.21676 -3.527,-4.35929 -1.939,-2.14253 -3.616,-4.11154 -3.725,-4.37557 -0.11,-0.26403 -1.139,-1.93824 -2.288,-3.72046 -1.444,-2.24062 -2.387,-3.2404 -3.057,-3.2404 -0.533,0 -2.399,0.74781 -4.147,1.66181 -1.748,0.91399 -7.498,3.75241 -12.778,6.3076 -5.281,2.55518 -9.925,4.90744 -10.321,5.22724 -0.396,0.3198 -2.232,1.08859 -4.08,1.70842 -3.612,1.21116 -4.561,1.73295 -4.561,2.50719 0,0.32865 1.878,0.37637 5.641,0.14338 3.102,-0.19208 8.346,-0.49422 11.654,-0.67142 z m 45.352,-7.43957 c 0.794,-0.30995 2.558,-1.40627 3.921,-2.43627 2.249,-1.70096 2.547,-2.15486 3.249,-4.94898 0.754,-2.99978 0.748,-3.11195 -0.249,-4.512 -0.62,-0.86997 -0.919,-1.83298 -0.759,-2.44379 0.357,-1.36513 -2.083,-3.61082 -4.394,-4.0444 -2.134,-0.40045 -6.229,0.40093 -8.915,1.74471 -1.924,0.96295 -5.941,5.33211 -6.641,7.22378 -0.35,0.94677 0.157,2.85232 1.05,3.94551 0.264,0.32304 1.049,1.2972 1.745,2.16479 2.554,3.18635 7.496,4.67267 10.993,3.30665 z m -7.203,-3.8692 c -1.932,-0.84177 -2.523,-1.65396 -2.663,-3.65521 -0.187,-2.68369 -0.03,-3.29574 0.948,-3.82187 1.542,-0.82546 2.435,-0.1199 2.435,1.92466 0,2.04553 0.394,2.43636 2.859,2.83704 1.102,0.17914 1.748,0.5731 1.856,1.13078 0.4,2.07874 -2.417,2.90007 -5.435,1.5846 z m 8.497,-3.27117 c -0.87,-0.86951 -0.705,-3.16331 0.264,-3.67084 1.144,-0.59989 3,0.16963 3,1.24427 0,1.11405 -1.316,3.00265 -2.092,3.00265 -0.328,0 -0.856,-0.25924 -1.172,-0.57608 z m -4.677,-5.75699 c -0.274,-1.24592 -0.138,-1.69345 0.726,-2.39333 0.807,-0.65332 1.284,-0.74273 1.979,-0.37088 1.054,0.5639 1.145,1.34755 0.358,3.07394 -0.839,1.8415 -2.63,1.66034 -3.063,-0.30973 z m -11.567,10.89363 c -0.152,-0.39605 -0.462,-0.72009 -0.69,-0.72009 -0.227,0 -0.289,0.32404 -0.137,0.72009 0.152,0.39605 0.462,0.72009 0.69,0.72009 0.227,0 0.289,-0.32404 0.137,-0.72009 z m -96.18,-6.00074 c 0,-0.26404 0.229,-0.48006 0.509,-0.48006 0.279,0 0.374,0.21602 0.211,0.48006 -0.163,0.26403 -0.392,0.48006 -0.508,0.48006 -0.117,0 -0.212,-0.21603 -0.212,-0.48006 z m 10.561,-46.08572 c 0,-0.26403 0.216,-0.48006 0.48,-0.48006 0.264,0 0.48,0.21603 0.48,0.48006 0,0.26403 -0.216,0.48006 -0.48,0.48006 -0.264,0 -0.48,-0.21603 -0.48,-0.48006 z"
         id="path2" /></g></g></svg>
