<?xml version="1.0" encoding="UTF-8"?>
<!-- Created with Inkscape (http://www.inkscape.org/) -->
<svg width="61.274mm" height="62.195mm" version="1.1" viewBox="0 0 61.274 62.195" xmlns="http://www.w3.org/2000/svg">
 <g transform="translate(-45.244 -76.729)">
  <path d="m53.842 133.73c0-0.28267 0.30895-1.1985 0.5311-1.5743 0.12414-0.21006 0.33732-0.58587 0.47368-0.83512 0.13639-0.24925 0.39029-0.62163 0.56425-0.82751 0.17396-0.20589 0.70318-0.8613 1.176-1.4565 0.47286-0.59517 1.1922-1.4259 1.5986-1.846 1.2112-1.2522 4.07-5.3444 4.304-6.161 0.16661-0.5813 0.64923-1.3744 1.6207-2.6632 0.95459-1.2665 0.96687-1.2768 2.0731-1.7423 0.45471-0.19136 1.1989-0.59688 1.6537-0.90115 2.623-1.7547 2.5237-1.6732 2.6813-2.1996 0.11287-0.37697 0.11499-0.60707 0.0085-0.9129-0.14145-0.40606-0.07813-1.0153 0.10552-1.0153 0.12713 0 0.40391 1.3949 0.30771 1.5506-0.04125 0.0668 0.02328 0.10329 0.14354 0.0811 0.22177-0.0409 0.25059-4e-3 0.60635 0.78717 0.55248 1.228 0.75189 1.7778 0.92125 2.5406 0.20603 0.92781 0.42566 3.2537 0.37507 3.9721-0.01799 0.25602 0.0069 0.65704 0.05567 0.89117 0.0789 0.37981 0.11282 0.30361 0.31467-0.70694 0.12441-0.62296 0.24141-1.5127 0.25995-1.9773 0.01852-0.46455 0.14941-1.2152 0.29078-1.6682 0.14137-0.45296 0.31832-1.15 0.39322-1.549 0.13684-0.72869 0.53607-1.4543 1.5018-2.7295 0.91932-1.2139 2.5255-2.8649 3.4216-3.5172 1.3111-0.95422 1.5465-1.2016 2.0263-2.1295 0.32867-0.63551 0.39762-0.87154 0.2812-0.96258-0.16777-0.13121-0.85537-1.6268-1.0839-2.3576-0.07821-0.25004-0.14219-0.63675-0.14219-0.85934 0-0.28065-0.06043-0.40472-0.19714-0.40472-0.10845 0-0.37267-0.0908-0.58716-0.2018-0.28678-0.1484-0.35242-0.23936-0.24813-0.34374s0.18224-0.10151 0.29451 0.0108c0.54684 0.54719 1.3171-0.45291 1.6473-2.1388 0.08914-0.45514 0.16431-1.3332 0.16708-1.9512 0.0042-0.97992-0.02754-1.1476-0.24945-1.3106-0.31671-0.23262-0.76205-0.13392-1.2723 0.28196-0.20992 0.17111-0.62278 0.49623-0.91744 0.7225-0.29467 0.22626-0.53798 0.50963-0.5407 0.6297-5e-3 0.2249-0.47884 0.5594-0.60849 0.42966-0.04006-0.04008-0.14232-0.01516-0.22728 0.0554-0.10472 0.08698-0.31276 0.07636-0.64635-0.033l-0.49194-0.16126 0.0254-1.8459c0.01402-1.0153 0.05974-2.1324 0.10168-2.4825 0.06728-0.56197 0.0309-0.7074-0.31041-1.2413-0.21265-0.3326-0.46675-0.60472-0.56467-0.60472-0.09795 0-0.2472-0.08334-0.33168-0.1852-0.51546-0.62151-1.8695-1.0406-4.0761-1.2617-0.63026-0.06313-0.77555-0.02677-1.4631 0.36624-0.41987 0.23998-1.1351 0.62067-1.5895 0.84596-0.45434 0.22529-1.0841 0.64413-1.3995 0.93075-0.9294 0.84462-0.9943 0.88311-1.2005 0.71189-0.14703-0.1221-0.27461-0.05218-0.66797 0.36614-0.26739 0.28438-0.58163 0.51716-0.69829 0.51727-0.11666 1.17e-4 -0.41185 0.24085-0.65601 0.53496-0.36933 0.44492-0.47572 0.50833-0.63328 0.37748-0.15904-0.13209-0.2871-0.02408-0.79984 0.6747-0.33578 0.45758-0.69316 0.83197-0.7942 0.83197-0.30123 0-0.12192-1.5145 0.26032-2.1988 0.30771-0.55095 0.30861-0.56136 0.05837-0.67627-0.27615-0.1268-0.57899-1.069-0.58994-1.8354-0.0034-0.24507-0.09935-1.0185-0.21299-1.7187-0.28273-1.7421-0.30377-2.1006-0.12319-2.1006 0.18801 0 1.0928-0.95431 1.8888-1.9921 0.60174-0.78458 1.7125-1.6734 2.7507-2.2013 1.6371-0.83232 4.145-1.2216 7.109-1.1034 1.8721 0.07464 2.1646 0.11866 3.1171 0.46917 0.57814 0.21274 1.1657 0.4601 1.3056 0.54969 0.13996 0.08959 0.53803 0.27031 0.88461 0.40159 0.34658 0.13128 0.88154 0.4307 1.1888 0.66537 0.30723 0.23467 0.78314 0.54379 1.0576 0.68692 0.58068 0.30287 1.245 1.04 1.781 1.9761l0.37875 0.66148-0.18984 1.0572c-0.35364 1.9694-0.50771 3.9002-0.34054 4.2673 0.58748 1.2902 0.02064 6.5972-0.84008 7.8646-0.27821 0.40969-0.31173 0.56254-0.24072 1.0981 0.142 1.0712 0.56264 1.9853 1.0445 2.2698 0.2358 0.13921 0.4287 0.31233 0.4287 0.38471 0 0.0724 0.10885 0.1316 0.24191 0.1316s0.59108 0.29547 1.0178 0.65659c0.58653 0.49633 0.77592 0.73827 0.77592 0.99124 0 0.24275 0.1461 0.44703 0.53202 0.74383 0.61386 0.47209 0.64429 0.47796 1.0612 0.20462 0.39672-0.26011 1.8715-0.15502 3.1778 0.22646 1.0573 0.30875 1.1585 0.36098 0.9497 0.49012-0.08739 0.0541-0.56584-0.0148-1.0632-0.15291-0.49739-0.13815-1.2797-0.28284-1.7385-0.32154l-0.83415-0.0704-0.75621 0.807c-0.4159 0.44384-1.2345 1.2676-1.8192 1.8306-0.58468 0.56296-1.2707 1.3387-1.5246 1.7238-0.25387 0.38512-0.56272 0.81127-0.68638 0.94701-0.40365 0.44315-0.23604 0.43919 0.20778-5e-3 0.23791-0.23807 0.5471-0.43286 0.68707-0.43286 0.20055 0 0.28715-0.13626 0.40865-0.64307 0.13359-0.5572 0.24498-0.7102 0.83423-1.1458 0.37404-0.2765 0.71496-0.50273 0.75761-0.50273 0.04265 0 0.26519-0.14322 0.49456-0.31827 0.22934-0.17505 0.50035-0.31828 0.60219-0.31828 0.29176 0 0.49054-0.27305 0.49054-0.67376 0-0.36782 0.40944-1.0384 0.54885-0.89889 0.04053 0.0406-0.01746 0.30177-0.1289 0.58045-0.28609 0.71551-0.102 2.1834 0.28075 2.2383 0.14044 0.0202 0.36946-0.048 0.5089-0.15138 0.21013-0.15584 0.22794-0.23004 0.10393-0.43354-0.08226-0.13504-0.21103-0.47387-0.28615-0.75296-0.15621-0.5805 0.02249-1.3086 0.32097-1.3086 0.20592 0 0.23847 0.20244 0.05117 0.31827-0.06998 0.0433-0.12721 0.28148-0.12721 0.52933 0 0.33733 0.09671 0.54106 0.3846 0.81016l0.3846 0.3595-0.23738 0.42361c-0.23143 0.413-0.25622 0.42276-0.98893 0.38967-1.695-0.0766-1.8381-0.0645-2.1048 0.177-0.60216 0.54531-0.74935 1.3221-0.28435 1.5006 0.33475 0.12854 0.46056-0.0582 0.37976-0.56369-0.07482-0.4683-0.06662-0.48058 0.35409-0.52972 0.23686-0.0277 0.49419-0.0291 0.57182-3e-3 0.35748 0.11924 0.02514 1.5463-0.4527 1.9436-0.42376 0.35235-1.1651 0.52813-1.8373 0.43563-0.39026-0.0537-0.76748-0.0313-0.97859 0.0581-0.49578 0.20992-1.1526 1.2415-1.2518 1.966l-0.08308 0.60657 0.43209-0.0413c0.36444-0.0348 0.43836-0.0961 0.47233-0.39138 0.06543-0.56915 0.36624-0.41614 0.46397 0.236 0.12597 0.8406-0.17727 1.1319-1.3766 1.3222-0.49985 0.0793-1.0948 0.19263-1.3222 0.25179-0.22765 0.0592-0.4436 0.0586-0.48067-1e-3 -0.10978-0.17777 0.37145-0.36531 1.1669-0.45477 0.40973-0.0461 0.88792-0.15655 1.0626-0.24551l0.31768-0.16175-0.88985-0.23412 0.0077-0.88139c0.0071-0.79928 0.0485-0.93627 0.44529-1.4706 0.65561-0.88283 0.99629-1.0469 1.9592-0.94376 1.2539 0.13437 1.9175-0.22874 2.0635-1.1292 0.09229-0.56899-0.14925-0.61997-0.2621-0.0553-0.04416 0.22089-0.1442 0.4787-0.22233 0.5729-0.2014 0.24282-0.67061 0.21217-0.91665-0.0599-0.74028-0.81852 0.0335-2.1308 1.3613-2.3087 0.53605-0.0718 0.76533-0.39057 0.48371-0.67239-0.14534-0.14542-1.1866 0.30425-1.5526 0.67045-0.11819 0.11827-0.39362 0.32068-0.61209 0.44981-0.50887 0.3008-0.84582 0.97275-0.66104 1.3183 0.211 0.39454 0.16245 0.45508-0.37005 0.46141-0.57332 7e-3 -0.86908 0.22808-1.4384 1.0762-0.21154 0.3151-0.4703 0.6422-0.57502 0.72691-0.39542 0.31977-0.61958 1.9466-0.26824 1.9466 0.06183 0 0.1124 0.0859 0.1124 0.19097 0 0.1304-0.13113 0.19122-0.41349 0.19178-0.51448 1e-3 -1.5151 0.81787-1.881 1.5355-0.31321 0.61434-0.31263 0.7687 0.0045 1.172 0.13994 0.17804 0.25445 0.38452 0.25445 0.45885 0 0.0743-0.30057 0.33026-0.66794 0.56873-1.4235 0.92403-1.8359 1.7447-1.5014 2.9877 0.17455 0.64857 0.37526 0.75823 0.83556 0.45644l0.34073-0.2234-0.42587-0.20418c-0.37828-0.18135-0.42415-0.25833-0.4104-0.68853 0.03135-0.98012 0.94345-1.8417 2.3677-2.2367 0.576-0.15972 0.71575-0.38976 0.23678-0.38976-0.16163 0-0.28858-0.18883-0.43781-0.65118-0.27263-0.8447-0.26173-1.249 0.04429-1.6404 0.28223-0.36104 0.32112-0.22933 0.11065 0.37481-0.27368 0.78559 0.26606 1.8026 0.83976 1.5823 0.11303-0.0434 0.31872-0.30099 0.45709-0.57244 0.1384-0.27145 0.32491-0.49354 0.41444-0.49354 0.26564 0 0.46815 0.28175 0.46815 0.65132 0 0.45928-0.7533 1.0557-1.738 1.376-1.2882 0.41905-1.6581 0.62366-2.1344 1.1805-0.54721 0.63971-0.56168 1.0373-0.0399 1.0974 0.30125 0.0347 0.34988-5e-3 0.34988-0.28645 0-0.47937 0.44627-0.43531 0.70731 0.0698 0.11271 0.2181 0.15714 0.43748 0.09869 0.48749-0.45268 0.38744-1.3143 1.0043-1.6101 1.1528-0.53446 0.26822-1.2064 1.0734-1.2964 1.5534-0.10568 0.5636 0.11343 1.1202 0.44096 1.1202 0.31147 0 0.45011-0.45241 0.33189-1.083-0.08162-0.43529-0.07445-0.44471 0.33586-0.4428 0.79312 4e-3 1.0141 0.45697 0.63362 1.2995-0.35592 0.78813-0.98272 1.3182-1.9922 1.6845-1.0097 0.36649-1.3406 0.64108-1.3975 1.1598-0.05673 0.51708 0.04101 0.69202 0.38664 0.69202 0.20598 0 0.36359-0.12074 0.49856-0.38193 0.22672-0.43869 0.28496-0.45463 0.67146-0.18375 0.1987 0.13928 0.28276 0.32794 0.28276 0.63475 0 0.36525-0.07795 0.48649-0.47712 0.74224-0.26239 0.16812-0.76335 0.3406-1.1132 0.38327-0.67265 0.082-1.0814 0.40579-1.0814 0.85649 0 0.1535-0.08967 0.24052-0.24784 0.24052-0.22315 0-0.23408-0.0412-0.10962-0.41376 0.21783-0.65195 0.5679-0.95129 1.2263-1.0485 0.70376-0.10395 1.5003-0.54654 1.3158-0.73114-0.08065-0.0807-0.2595-0.024-0.51086 0.16195-0.34346 0.25411-0.42963 0.26837-0.76978 0.12737-0.33975-0.14082-0.42847-0.12638-0.78512 0.12774-0.22116 0.15758-0.48226 0.4785-0.58026 0.71316-0.11732 0.28101-0.26442 0.42666-0.4309 0.42666-0.13983 0-0.25276 0.0853-0.25276 0.19097 0 0.10503-0.05723 0.19097-0.12721 0.19097-0.16587 0-0.16182-0.0315 0.05882-0.45705 0.21201-0.40891 0.16293-0.5438-0.11414-0.3137-0.40272 0.33443-1.2051-0.0808-1.4013-0.72515-0.04797-0.15755-0.17105-0.28645-0.27347-0.28645-0.51099 0-0.25289 1.0675 0.29112 1.2041 0.45545 0.11439 0.93009 0.44941 0.93009 0.65651 0 0.234-0.31009 0.22508-0.5089-0.0146-0.08713-0.10503-0.32594-0.19096-0.5307-0.19096-0.31472 0-0.41032-0.0837-0.61778-0.54107-0.4881-1.076-0.24799-1.6232 0.71226-1.6232 0.58796 0 0.72652 0.17088 0.3575 0.4409-0.17838 0.1305-0.18264 0.18844-0.03183 0.43252 0.41632 0.67375 1.2093 0.38073 1.2805-0.47317 0.03-0.36007 0.0885-0.45553 0.26133-0.4265 0.14526 0.0244 0.22265-0.0444 0.22265-0.19807 0-0.25861 0.45609-1.7496 0.63939-2.0903 0.11618-0.21589-0.11819-1.8821-0.37902-2.6946-0.07088-0.22079-0.27966-1.0889-0.46397-1.9292-0.18431-0.84025-0.49342-2.1006-0.68691-2.8008-0.19349-0.7002-0.44794-1.7314-0.56544-2.2916-0.11748-0.56016-0.32179-1.4768-0.454-2.037-0.21717-0.92018-0.30184-1.586-0.26583-2.09 0.0285-0.39847 0.17492 0.0307 0.39486 1.1573 0.12753 0.65305 0.28903 1.3353 0.35893 1.516 0.0699 0.18077 0.16486 0.63909 0.21098 1.0185 0.04614 0.3794 0.19873 1.1195 0.33909 1.6446 0.14034 0.52516 0.3398 1.2699 0.44323 1.655 0.10345 0.38512 0.26741 1.044 0.36436 1.4641 0.36642 1.5876 0.7289 3.1999 0.82399 3.6652 0.05424 0.26535 0.13052 0.51441 0.16954 0.55346 0.03903 0.0391 0.19423-0.2067 0.34491-0.54612 0.15068-0.33941 0.41772-0.89859 0.59343-1.2426 0.17571-0.34402 0.4594-1.0544 0.63042-1.5787s0.41201-1.1021 0.53552-1.2842c0.12351-0.18202 0.33364-0.58875 0.46694-0.90385 0.32726-0.7736 1.8431-3.7083 2.0386-3.9466 0.08612-0.10504 0.28538-0.44877 0.44278-0.76387 0.15743-0.31509 0.44143-0.77341 0.63114-1.0185s0.63685-0.87526 0.99367-1.4004c0.35679-0.52515 0.83402-1.1553 1.0605-1.4004 0.22648-0.24508 0.65876-0.7808 0.96062-1.1905 0.30186-0.4097 1.1507-1.3263 1.8863-2.037 1.2015-1.1607 1.5449-1.6103 1.23-1.6103-0.05831 0-0.27302-0.17028-0.47712-0.3784-0.2041-0.20811-0.41233-0.37998-0.46276-0.38193-0.05046-2e-3 -0.23866 0.32588-0.41825 0.7285-0.78126 1.7514-1.0442 2.1333-2.5435 3.6932-1.3858 1.4419-2.5954 2.4338-3.205 2.6283-0.3193 0.10187-2.6686 2.6153-3.2644 3.4924-0.26932 0.39652-0.54242 0.75368-0.60688 0.79369-0.2036 0.12636-0.59878 2.5368-0.69252 4.224-0.12515 2.2525-0.474 2.0933-0.40394-0.18435 0.02011-0.65046-0.02328-1.0336-0.1289-1.1394-0.08744-0.0877-0.15901-0.32531-0.15901-0.5281 0-0.36734-0.27064-1.4642-0.54041-2.1902-0.07805-0.21007-0.30329-0.57012-0.50051-0.80012-0.41466-0.48359-0.41661-0.50008-0.16775-1.4278 0.33372-1.2442 0.16544-2.9031-0.36833-3.6306-0.18106-0.24677-0.18804-0.24496-0.31239 0.0809-0.06996 0.18333-0.40344 0.51277-0.74107 0.73211-0.33761 0.21933-1.1864 0.7969-1.8861 1.2835-0.69974 0.48657-1.3744 0.88757-1.4992 0.8911-0.12478 4e-3 -0.50115 0.14549-0.83635 0.31546-0.47141 0.23903-0.82106 0.59071-1.5433 1.5522-0.51361 0.68376-1.1284 1.6475-1.3663 2.1417-0.23783 0.49417-0.49625 1.0131-0.57428 1.1531-0.07803 0.14004-0.20338 0.3692-0.27858 0.50924-0.18825 0.35062-1.4881 2.2768-1.5894 2.3552-0.04522 0.035-0.36306 0.46469-0.70633 0.95483-0.34327 0.49015-1.0129 1.2954-1.488 1.7893-2.0238 2.104-4.0406 5.0394-4.0938 5.9582-0.01852 0.31788-0.33756 0.49969-0.33756 0.1923zm18.763-1.6319c0.18632-0.36057 0.20317-0.80317 0.03688-0.96956-0.08549-0.0856-0.34996 0.76004-0.3511 1.1226 0 0.32114 0.09276 0.27546 0.31422-0.15306zm0.78753-1.1641c0.0603-0.55118 0.41709-1.1079 0.8005-1.249 0.30406-0.11191 0.29535-0.11968-0.14436-0.12912-0.6178-0.0133-0.99523 0.44007-0.99523 1.1953 0 0.80978 0.25543 0.94747 0.33909 0.18279zm0.63825-2.7627c0.0217-0.89049 0.01085-0.93164-0.1741-0.66722-0.20955 0.29938-0.67604 1.4962-0.67604 1.7345 0 0.10195 0.11652 0.10529 0.41349 0.0119l0.41349-0.13008zm1.9938 0.74752c0.22931-0.2275 0.22667-0.23218-0.09615-0.17043-0.44252 0.0847-0.6558-0.11717-0.82206-0.77793-0.18886-0.75053-0.01402-1.2805 0.6437-1.9511 0.36446-0.3716 0.4703-0.54753 0.32943-0.54753-0.63571 0-1.6155 1.5322-1.7278 2.7021-0.08147 0.84822 0.20317 1.1737 0.92646 1.0595 0.28086-0.0444 0.61674-0.18594 0.74642-0.31459zm0.97224-1.5055c0-0.49105-0.34848-0.33089-0.41685 0.19097-0.0344 0.26258-0.10165 0.62064-0.14944 0.79569-0.06263 0.22933 0.0042 0.17596 0.23934-0.19096 0.17947-0.28009 0.32658-0.63815 0.32695-0.7957zm-1.1899-2.3234c0.12848 0 0.1651-0.078 0.1133-0.24139-0.04212-0.13277-0.11845-0.48691-0.16965-0.78699l-0.09308-0.54559-0.21548 0.32907c-0.18889 0.28847-0.86418 2.0571-0.8605 2.2538 0 0.0403 0.23405-0.1702 0.51848-0.46778 0.2844-0.29759 0.60254-0.54107 0.70694-0.54107zm1.3707-3.6566c0.62177-0.57159 0.70445-0.69987 0.5896-0.91464-0.19756-0.3694-0.16391-0.72647 0.12121-1.2857 0.29673-0.58202 1.1591-1.4494 1.6386-1.6482 0.28178-0.11679 0.33486-0.221 0.3447-0.67686 0.0063-0.29634 0.05601-0.66771 0.11025-0.82525 0.17997-0.52273-0.11486-0.29093-0.65154 0.51227-0.52044 0.77882-2.333 3.8707-2.333 3.9797 0 0.0306-0.17177 0.33492-0.38169 0.67631-0.37656 0.61237-0.48646 0.97242-0.27154 0.88962 0.06059-0.0233 0.43558-0.34162 0.83336-0.70727zm3.5095-0.81427c0-0.07-0.05726-0.0919-0.12721-0.0486-0.06998 0.0433-0.12724 0.13598-0.12724 0.206 0 0.07 0.05726 0.0919 0.12724 0.0486 0.06996-0.0433 0.12721-0.13598 0.12721-0.206zm-8.0719-1.7355c-0.10874-1.2412-0.32544-2.5848-0.45601-2.8276-0.06554-0.12183-0.12922 0.0317-0.18486 0.44559-0.0467 0.34729-0.16187 0.87145-0.2559 1.1648-0.16256 0.50699-0.15539 0.55101 0.14481 0.89117 0.17367 0.19682 0.40423 0.57268 0.51236 0.83526 0.10811 0.26258 0.22572 0.47741 0.2613 0.47741 0.03561 0 0.02593-0.44399-0.0217-0.98665zm2.0903-0.75985c0.76562-1.0699 2.6969-3.033 3.2732-3.3272 1.0399-0.53089 3.3688-2.7156 4.3335-4.0652 0.45215-0.63259 1.0468-1.7952 1.0468-2.0466 0-0.0817 0.0663-0.2548 0.14732-0.38461 0.08101-0.12982 0.10594-0.34388 0.0554-0.47569-0.09943-0.25925-0.06792-0.38566 0.08356-0.33514 0.19862 0.0662 0.08541-0.34667-0.12724-0.46402-0.12245-0.0676-0.45167-0.35416-0.73157-0.63684-0.2799-0.28269-0.54724-0.51586-0.5941-0.51816-0.04686-2e-3 -0.17907 0.27864-0.29382 0.62433-0.37574 1.132-1.0758 2.0471-2.117 2.7671-1.8373 1.2707-2.657 2.526-2.7576 4.2228-0.05215 0.8801-0.07546 0.94169-0.39942 1.0547-0.31858 0.11113-2.2369 2.3771-2.4489 2.8927-0.09652 0.23476-0.13637 1.4198-0.04776 1.4198 0.03114 0 0.29107-0.32761 0.57761-0.72802zm0.53673-2.6846c0.16068-0.23144 0.53626-0.67168 0.83458-0.97831 0.40677-0.41805 0.55414-0.67899 0.58925-1.0433 0.02566-0.26716 0.13952-0.70759 0.25276-0.97872 0.11327-0.27113 0.20592-0.52533 0.20592-0.56489 0-0.20034-0.86286 0.7969-1.467 1.6955-0.71684 1.0662-1.0804 1.9011-1.0735 2.4657 0.0045 0.3735-0.04837 0.42141 0.65799-0.59596zm5.6333-0.64772c0.03961-0.0975 0.04146-0.20794 0.0042-0.24533-0.0698-0.0698-0.34504 0.23902-0.5892 0.66112-0.1348 0.23303-0.13054 0.23303 0.18759 0 0.17902-0.13114 0.3579-0.31824 0.39751-0.41579zm-1.9696-19.237c0.08758-0.16378 0.09078-0.25462 9e-3 -0.25462-0.06998 0-0.18852 0.11458-0.26342 0.25462-0.08758 0.16377-0.09078 0.25462-9e-3 0.25462 0.06998 0 0.18852-0.11458 0.26342-0.25462zm-16.279-2.1961c0.82021-0.73306 0.79346-0.71529 2.1104-1.4016 0.63947-0.33326 1.4124-0.65528 1.7176-0.71562 0.3052-0.06033 0.9843-0.22839 1.5091-0.37346 1.4327-0.39603 2.4474-0.52993 4.1349-0.54562 1.9582-0.0182 4.4483 0.45234 5.5245 1.044 0.65143 0.3581 2.7325 1.1793 3.4132 1.3468 0.22614 0.05567 0.28625 0.01606 0.28625-0.18859 0-0.14248 0.03445-0.34887 0.07654-0.45866 0.05117-0.13342-0.02275-0.23757-0.22265-0.31408-0.37312-0.14275-0.76906-0.57183-0.73784-0.7996 0.05924-0.4324-0.0061-0.47154-0.67458-0.40379-0.81825 0.08293-1.5435-0.0898-1.5996-0.38097-0.05427-0.28202 0.64706-0.97823 0.98544-0.97823 0.31671 0 0.34031-0.21413 0.05797-0.5263-0.11417-0.12624-0.17058-0.32115-0.12634-0.43652 0.06813-0.17767 0.24059-0.1992 1.168-0.1458 0.59841 0.03445 1.1195 0.09418 1.158 0.13272 0.03852 0.03854-0.05538 0.24631-0.20865 0.46171l-0.27868 0.39164-0.35878-0.3843c-0.22111-0.23686-0.48562-0.38431-0.6894-0.38431-0.39915 0-0.4159 0.15915-0.06813 0.64786 0.32062 0.45055 0.23418 0.62525-0.3093 0.62525-0.49472 0-0.92467 0.27531-0.78446 0.50232 0.06876 0.11131 0.38841 0.14575 1.0655 0.1148l0.96724-0.04423 0.08117 0.49068c0.08083 0.48874 0.34592 0.79516 0.52922 0.61175 0.053-0.05303 0.17976-0.63787 0.2817-1.2996l0.18537-1.2032-0.36198-0.70021c-0.27821-0.53814-0.42283-0.69342-0.62484-0.67089-0.176 0.01963-0.33827-0.09881-0.4912-0.35849-0.51993-0.883-1.5938-1.3283-4.2996-1.783-0.41987-0.07055-1.0478-0.21202-1.3955-0.31437-0.73377-0.21602-3.9155-0.25918-5.0295-0.06822-1.8099 0.31026-3.8618 0.96032-4.8553 1.5382-1.0128 0.58916-1.0839 0.63622-2.2623 1.4981-0.59875 0.43792-1.199 0.87205-1.3338 0.96474-0.23654 0.16258-0.23794 0.19957-0.03958 1.0498 0.11306 0.48469 0.23932 1.225 0.28056 1.6451 0.16314 1.6614 0.322 2.3552 0.53922 2.3552 0.04109 0 0.34716-0.24348 0.68011-0.54107zm1.4779-2.09c-0.1406-0.14069-0.08705-0.72233 0.09713-1.0552 0.15483-0.27977 0.14206-0.35313-0.12181-0.70021-0.16214-0.21323-0.33406-0.54524-0.38208-0.7378-0.0721-0.28904-0.04548-0.3501 0.15256-0.3501 0.13195 0 0.42796 0.17187 0.65781 0.38193 0.67424 0.61623 1.7644 0.45668 2.0502-0.30007 0.15375-0.40697-0.06808-0.75588-0.37579-0.5911-0.31872 0.17069-0.55991-0.24164-0.44569-0.76197 0.08017-0.36532 0.5684-0.79318 0.86217-0.75557 0.40344 0.05165 0.58695-0.03261 0.62431-0.28667 0.059-0.40116 0.31044-0.42534 0.64675-0.06221 0.2916 0.31483 0.29607 0.31539 0.60719 0.07614 0.1724-0.13257 0.45966-0.2423 0.63836-0.24386 0.40103-0.0035 1.1382 0.72009 1.1382 1.1172 0 0.32544-0.15568 0.36191-0.38169 0.08942-0.22926-0.27642-0.76335-0.2489-0.76335 0.03932 0 0.79443 1.0725 0.94702 2.0924 0.29768 0.64765-0.41238 1.2053-0.52196 1.229-0.24152 0.04069 0.48043-0.06622 0.97616-0.30149 1.3979-0.24993 0.448-0.25268 0.48841-0.04887 0.71378 0.19431 0.21484 0.19624 0.25536 0.01905 0.40246-0.30895 0.25657-2.0035 0.08209-2.976-0.30645l-0.81275-0.32471-0.72977 0.67609c-0.73681 0.6826-1.3391 1.0276-2.452 1.4043-0.66278 0.22436-0.89358 0.25168-1.024 0.12121zm1.6327-0.70282c0.54946-0.22034 1.0537-0.58259 1.8029-1.2951 0.45445-0.43223 0.7298-0.60431 0.89059-0.55655 0.12803 0.03803 0.64677 0.21777 1.1528 0.39943 0.91988 0.33024 2.0698 0.44301 2.0698 0.20298 0-0.07002-0.05726-0.12731-0.12724-0.12731-0.24776 0-0.12216-0.36742 0.25445-0.74428 0.3398-0.34002 0.53922-1.0381 0.29657-1.0381-0.04683 0-0.38949 0.17187-0.76144 0.38193-1.3999 0.79054-2.606 0.31975-2.4754-0.96622 0.0077-0.07629 0.16044-0.20543 0.33933-0.28699 0.17888-0.08156 0.29475-0.19765 0.25749-0.25798-0.09192-0.1488-0.72639-0.02426-0.97475 0.19134-0.11062 0.09604-0.23945 0.1363-0.28625 0.08947-0.04681-0.04683-0.08509-0.01832-0.08509 0.06338 0 0.08169-0.08588 0.14853-0.19084 0.14853-0.10496 0-0.19084-0.1112-0.19084-0.24711 0-0.13591-0.05726-0.28251-0.12724-0.32579-0.07427-0.04593-0.12721 0.08405-0.12721 0.31227 0 0.38472-0.0082 0.38965-0.50824 0.30963-0.3298-0.05277-0.57547-0.02548-0.69974 0.07774-0.29482 0.24484-0.23138 0.50982 0.12205 0.50982 0.3593 0 0.577 0.32238 0.577 0.85448 0 1.0606-1.5616 1.715-2.3493 0.98448-0.19293-0.17893-0.37703-0.29909-0.40907-0.26702-0.10123 0.10128 0.2671 0.59212 0.49974 0.666 0.29197 0.09272 0.28199 0.26021-0.03149 0.52878-0.24535 0.21021-0.33306 0.54959-0.18127 0.70147 0.07818 0.07824 0.63878-0.05906 1.2627-0.30925zm15.585 3.0231c0-0.03088-0.05726-0.09155-0.12721-0.13482-0.06998-0.04327-0.12724-0.01802-0.12724 0.05614 0 0.07415 0.05726 0.13482 0.12724 0.13482 0.06996 0 0.12721-0.02527 0.12721-0.05614zm-16.73-7.4899c0.82568-0.4985 2.9714-1.23 4.543-1.5487 1.3173-0.26717 4.4818-0.27004 5.4987-5e-3 0.4092 0.10665 1.145 0.25082 1.6351 0.32037 0.49011 0.06955 1.0404 0.15687 1.223 0.19404 0.48194 0.09813-0.42807-0.39672-1.7038-0.92649-0.97576-0.40521-1.1072-0.42593-3.1807-0.50141-4.6495-0.16926-7.5082 0.68728-9.4728 2.8383-1.0202 1.117-1.0577 1.3281-0.11798 0.66384 0.44664-0.31572 1.1556-0.78143 1.5755-1.0349zm8.9696 47.585c0.0871-0.10503 0.20862-0.19097 0.27003-0.19097s0.11165 0.0859 0.11165 0.19097c0 0.10976-0.11483 0.19096-0.27003 0.19096-0.22561 0-0.24397-0.0314-0.11165-0.19096zm-3.5526-3.5348c-0.1696-0.0865-0.48226-0.4778-0.69482-0.86958-0.36814-0.67855-0.37835-0.73691-0.21545-1.2309 0.1614-0.48938 0.52337-0.7576 0.79539-0.58937 0.16862 0.10427 0.12121 0.30462-0.0721 0.30462-0.27051 0-0.33457 0.32115-0.12401 0.62194 0.36322 0.5189 1.3191 0.23702 1.3191-0.389 0-0.14196-0.07975-0.43864-0.17722-0.65929-0.09747-0.22064-0.21018-0.50143-0.25048-0.62396-0.05109-0.15547-0.20704-0.2228-0.51604-0.2228-0.35264 0-0.50893-0.0867-0.76737-0.42577-0.17849-0.23418-0.32454-0.50917-0.32454-0.61109 0-0.10193-0.06305-0.2484-0.1401-0.32551-0.08324-0.0833-0.10485-0.30074-0.05329-0.53576 0.09697-0.44177 0.49879-0.74725 0.6535-0.4968 0.05162 0.0836 0.02646 0.17445-0.05591 0.20192-0.26702 0.0891-0.15841 0.37933 0.16513 0.44121 0.34811 0.0666 0.70294-0.22913 0.70294-0.58587 0-0.3319-0.61965-1.4816-0.79851-1.4816-0.08697 0-0.2296 0.11458-0.31702 0.25462-0.2568 0.41149-1.0623 0.3474-1.5312-0.12183-0.48149-0.4818-0.65312-1.3959-0.34925-1.86 0.23558-0.3598 0.77605-0.41496 1.1587-0.11827 0.24056 0.18654 0.23741 0.19945-0.12126 0.49685-0.42828 0.35511-0.38254 0.64828 0.11599 0.74364 0.55713 0.10657 0.80055-0.0284 1.0753-0.59649 0.2236-0.46221 0.23908-0.59883 0.11007-0.97306-0.3035-0.8806-0.93522-1.4169-1.1876-1.0082-0.13623 0.22061-1.033 0.14371-1.3536-0.11606-0.2354-0.19073-0.30036-0.36769-0.30036-0.81818 0-0.74165 0.37603-1.278 0.93498-1.3336 0.4822-0.048 0.51721 0.12532 0.08284 0.41012-0.19756 0.12954-0.31806 0.328-0.31806 0.52388 0 0.36474 0.09242 0.38921 0.47016 0.12447 0.49112-0.34422 0.82518-1.0321 0.78327-1.6128-0.04458-0.61779 0.20182-0.81364 0.31448-0.24997 0.12703 0.63552-0.31012 1.7437-0.83214 2.1096-0.15592 0.10928-0.47114 0.19869-0.70048 0.19869-0.49496 0-0.54433 0.20202-0.09901 0.40506 0.24466 0.11154 0.43855 0.10518 0.84058-0.0276 0.67934-0.22435 1.0597-0.0262 1.4752 0.76832 0.36026 0.68896 0.33374 1.4425-0.0707 2.0109-0.26165 0.36768-0.26244 0.38105-0.02646 0.44283 0.3357 0.0878 0.89842 1.2471 0.89842 1.8508 0 0.62835-0.33938 0.96893-0.88556 0.88872-0.31332-0.046-0.38672-0.0115-0.38672 0.18156 0 0.37441 0.57147 0.86334 1.0091 0.86334 0.44984 0 0.70054 0.31588 0.97504 1.2286 0.3288 1.0932-0.23196 1.8529-1.2216 1.6548-0.4558-0.0912-0.5062 0.11677-0.12697 0.52409 0.31245 0.33559 1.0248 0.48543 1.3866 0.29166 0.21013-0.11254 0.26784-0.10683 0.26784 0.0265 0 0.45852-0.87781 0.64052-1.517 0.31451zm-1.2268-7.464c0.03863-0.0626-0.08681-0.15274-0.27876-0.20041-0.19193-0.0477-0.47781-0.20699-0.63524-0.35405-0.24088-0.22498-0.28628-0.23436-0.28628-0.0592 0 0.46659 0.98126 0.96824 1.2003 0.61363zm-0.69593-1.7004c0.0061-0.12946-0.09345-0.12008-0.38547 0.0363-0.15086 0.0808-0.24585 0.26554-0.24548 0.47742v0.34562l0.31287-0.38193c0.17208-0.21006 0.31493-0.4249 0.31745-0.47742zm4.014 7.384c-0.14436-1.1258-0.30816-1.5884-0.78288-2.2107-0.45273-0.5935-0.4545-0.60076-0.25093-1.0279 0.11276-0.23662 0.20447-0.52853 0.20378-0.64869-0.0026-0.27625-0.58891-1.548-0.84643-1.8327-0.1406-0.15548-0.16782-0.33106-0.09869-0.63696 0.30842-1.3648 0.09631-2.5533-0.58806-3.2951l-0.50467-0.54701 0.21516-0.56373c0.1841-0.4824 0.19352-0.66847 0.06533-1.2896-0.17828-0.86375-0.18502-1.0288-0.04191-1.0288 0.13584 0 0.52824 1.1977 0.52824 1.6123 0 0.17049-0.09086 0.4858-0.20193 0.7007-0.19968 0.3864-0.19672 0.39605 0.26831 0.87259 0.63444 0.65015 0.86572 1.6075 0.68921 2.8529l-0.12576 0.88714 0.51816 1.0249c0.50736 1.0036 0.51501 1.0383 0.36814 1.6708-0.14277 0.61487-0.13309 0.67143 0.20135 1.1771 0.3765 0.5693 0.69461 1.6969 0.69784 2.4737 0.0029 0.71024-0.21577 0.57733-0.31427-0.19097zm14.318 0.0318c-0.06501-0.18634-0.05868-4.074 0.0066-4.074 0.10448 5e-5 0.24246 1.3845 0.23344 2.3421-0.0063 0.67601-0.17756 1.911-0.24006 1.7318zm1.8492-0.80159c-0.05808-0.26582-0.06914-0.81008-0.02461-1.2094 0.20455-1.8336 0.22373-2.7326 0.07959-3.7296-0.18693-1.2928-0.17709-1.7925 0.06025-3.065 0.19619-1.0519 1.0082-3.1415 1.4868-3.8259 0.81907-1.1714 2.7731-2.5934 4.192-3.0507 0.48067-0.1549 0.87392-0.32564 0.87392-0.37941 0-0.0538-0.12883-0.16424-0.28628-0.24548-0.15743-0.0812-0.74427-0.45181-1.3041-0.82351-0.5598-0.3717-1.3854-0.86583-1.8348-1.0981-0.83026-0.42911-1.1175-0.74052-0.683-0.74052 0.42884 0 4.7443 2.6627 4.7443 2.9273 0 0.0705 0.05813 0.12815 0.1292 0.12815 0.07104 0 0.44151 0.20751 0.82325 0.46114 0.6995 0.46475 1.9782 1.9999 2.2403 2.6896 0.07297 0.19206 0.26292 0.52133 0.42206 0.7317 0.56242 0.74336 1.4589 2.4271 1.6061 3.0165 0.19936 0.79852 0.0791 1.0594-0.19431 0.42146-0.46554-1.0864-0.7144-1.5634-1.3283-2.5462-0.34991-0.56017-0.72766-1.1986-0.83947-1.4188-0.11181-0.2202-0.4-0.63033-0.64042-0.91141-0.24043-0.28108-0.43714-0.56762-0.43714-0.63676 0-0.12164-0.28705-0.38508-1.3898-1.2756l-0.52419-0.42329-0.98324 0.3278c-2.0333 0.67789-4.0819 2.3466-4.7567 3.8746-0.20534 0.46499-0.42878 0.96002-0.49654 1.1001-0.46572 0.96245-0.76711 3.1404-0.59896 4.3286 0.11978 0.84642 0.06538 2.7628-0.13909 4.9015-0.08602 0.89955-0.09742 0.92684-0.19688 0.47151zm-23.739-5.0799c0-0.57691-0.25067-2.5178-0.37902-2.9348-0.08117-0.26372-0.0649-0.35011 0.06604-0.35011 0.25387 0 0.42728 0.7717 0.52208 2.3234 0.0608 0.99526 0.04371 1.3686-0.06273 1.3686-0.08049 0-0.14637-0.18322-0.14637-0.40715zm4.3779-11.359c-0.5075-0.2211-1.5452-1.014-1.992-1.522-0.19222-0.21857-0.69114-0.85571-1.1087-1.4159-0.41759-0.56016-0.81852-1.0877-0.89098-1.1722-0.07244-0.0846-0.13171-0.19176-0.13171-0.23821 0-0.0464-0.30059-0.60541-0.66794-1.2421-0.97491-1.6897-1.4848-3.2005-1.4912-4.418-0.0026-0.43489-0.09634-0.88695-0.24543-1.1796-0.27765-0.54495-0.4331-1.9563-0.29607-2.688 0.15219-0.81255 0.35145-0.67524 0.30779 0.21208l-0.03919 0.79595 0.31403-0.38193c0.47961-0.58331 0.55348-0.27692 0.07805 0.32375-0.37452 0.47319-0.40505 0.57264-0.3016 0.98286 0.15288 0.60628 0.31049 0.62716 0.66003 0.08745 0.15976-0.24669 0.44603-0.51258 0.63614-0.59085 0.1901-0.07828 0.57843-0.24805 0.86294-0.37728 0.28451-0.12923 0.65603-0.23496 0.82563-0.23496 0.36759 0 1.3913 0.4025 1.392 0.54729 0 0.11969-0.99909 0.59164-1.2618 0.5957-0.09946 0.0016-0.2712 0.08376-0.38169 0.1827-0.23556 0.21101-1.6953 0.72251-1.79 0.62724-0.03564-0.0359 0.07832-0.17483 0.25326-0.30882 0.55504-0.42513 0.63614-0.50552 0.63614-0.63066 0-0.20873-0.45895-0.13461-0.79259 0.12801-0.50112 0.39443-0.64725 0.9047-0.57597 2.0114 0.08549 1.3277 0.32322 1.9945 1.4858 4.1675 0.53398 0.99807 1.4425 2.3552 1.5766 2.3552 0.05808 0 0.0613-0.32942 0.0071-0.73204-0.21254-1.5811 0.0172-2.0146 1.5089-2.8466 0.74014-0.41284 1.0521-0.6582 1.0521-0.82751 0-0.14915-0.10382-0.25548-0.27297-0.27962-0.15015-0.0214-0.37915-0.15893-0.50893-0.3056-0.23582-0.26653-0.23569-0.26662 0.27297-0.18611 0.41828 0.0662 0.54343 0.035 0.70265-0.17492 0.12502-0.16486 0.43347-0.29337 0.86979-0.36239 0.40426-0.0639 0.78332-0.21426 0.94284-0.37388 0.28747-0.28765 0.31618-0.25139-0.37367-0.47199-0.16113-0.0515-0.17658-0.10339-0.06427-0.21577 0.24456-0.24473 0.84175 0.0365 0.88649 0.41745 0.05326 0.45347-0.45456 0.88887-1.1383 0.97601-0.75745 0.0965-0.99854 0.24461-0.99854 0.61331 0 0.26983 0.05855 0.3138 0.41791 0.3138 0.22984 0 0.7308-0.10829 1.1132-0.24063 0.85058-0.29435 2.0449-0.3339 2.5284-0.0837 0.73562 0.38065 1.7988 1.9578 1.6251 2.4107-0.07369 0.19217-0.80693 0.71293-1.0053 0.71397-0.05038 2.6e-4 -0.29435-0.41488-0.54221-0.92253-0.51977-1.0647-1.0302-1.4959-1.7706-1.4959-0.61235 0-2.3992 0.50816-2.5288 0.71917-0.05416 0.0882-0.44379 0.3445-0.8658 0.56958-0.42204 0.22508-0.83021 0.52684-0.9071 0.67058-0.20579 0.38479-0.14237 1.1327 0.11184 1.3187 0.11983 0.0877 0.23445 0.25967 0.25469 0.38219 0.05072 0.30708-0.19794 0.89006-0.41521 0.97349-0.09856 0.0379-0.17767 0.17086-0.17576 0.2956 4e-3 0.25516 0.66238 1.0079 1.2191 1.3935 0.37801 0.26183 1.267 0.36205 1.3936 0.1571 0.04088-0.0662 0.18283-0.0552 0.33398 0.0257 0.19595 0.10494 0.28676 0.10224 0.35645-0.0106 0.05143-0.0833 0.20161-0.13621 0.33369-0.1176 0.13211 0.0186 0.46839-0.0651 0.74729-0.18604 0.34144-0.14805 0.58854-0.18354 0.75631-0.10863 0.27757 0.12394 0.89183-0.1217 1.0611-0.42434 0.05839-0.10438 0.39502-0.21247 0.79671-0.25579 0.38259-0.0413 0.81431-0.15126 0.95941-0.24446 0.14507-0.0932 0.40272-0.18907 0.57253-0.21307 0.19606-0.0277 0.37838-0.18852 0.49956-0.44061 0.10496-0.21834 0.30382-0.4475 0.44188-0.50924 0.13806-0.0617 0.43685-0.48464 0.66397-0.93978 0.6227-1.2478 0.67638-1.323 0.83304-1.1662 0.19944 0.19958-1.0635 2.5817-1.8486 3.487-0.76981 0.88749-1.0393 1.0516-2.8413 1.7298-1.2807 0.48201-1.5226 0.53217-2.5446 0.52767-0.6554-3e-3 -1.2943-0.0769-1.5225-0.17626zm4.1464-7.712c0-0.07-0.08927-0.12731-0.19836-0.12731s-0.16298 0.0573-0.11972 0.12731c0.04326 0.07 0.1325 0.12731 0.19836 0.12731 0.06583 0 0.11972-0.0573 0.11972-0.12731zm-7.1995-4.6602c0.11028-0.04235 0.16883-0.12828 0.13012-0.19097-0.09287-0.15038-1.2004-0.14786-1.2004 0.0027 0 0.22434 0.66958 0.3421 1.0703 0.18824zm20.813 10.007c0-0.07 0.05726-0.12731 0.12724-0.12731 0.06996 0 0.12721 0.0573 0.12721 0.12731 0 0.07-0.05726 0.12731-0.12721 0.12731-0.06998 0-0.12724-0.0573-0.12724-0.12731zm-17.43-1.8322c0-0.0974-0.14719-0.21413-0.3271-0.25932-0.45924-0.11533-0.31163-0.39059 0.21085-0.39322 0.48448-2e-3 1.643-0.41706 1.643-0.58801 0-0.0605 0.08586-0.11001 0.19082-0.11001 0.10499 0 0.19084 0.0531 0.19084 0.11807 0 0.15658-0.62767 0.64579-0.82854 0.64579-0.08697 0-0.22939 0.0859-0.31649 0.19097-0.1895 0.22846-0.19061 0.22838 0.66167 0.0493 0.37081-0.0779 0.77475-0.23033 0.89765-0.33871 0.29303-0.25845 0.37444-0.16016 0.18373 0.22182-0.10726 0.2148-0.34205 0.35491-0.78886 0.4707-0.86921 0.22527-1.7176 0.22162-1.7176-7e-3zm-2.0357-0.65035c0-0.10503 0.04429-0.19097 0.0984-0.19097s0.41196-0.28503 0.79518-0.63341c0.49848-0.45313 0.80306-0.6343 1.0703-0.63655 0.20542-2e-3 0.49363-0.11611 0.6405-0.25417 0.23884-0.22452 0.37298-0.24132 1.2702-0.15914 1.2942 0.11855 1.4144 0.36294 0.21182 0.43094-0.6051 0.0342-0.96388 0.11979-1.129 0.26931-0.13311 0.12054-0.4264 0.21916-0.6518 0.21916-0.49882 0-1.0913 0.2931-1.579 0.78112-0.39674 0.397-0.72655 0.47585-0.72655 0.17371zm-0.42106-3.7238c-0.02995-0.0525-0.09149-0.30138-0.13679-0.55304-0.06265-0.34799-0.0026-0.63296 0.2527-1.19 0.30152-0.659 0.32964-0.84631 0.2808-1.8688-0.04509-0.94376-0.02566-1.1078 0.11438-0.96765 0.11311 0.11319 0.17137 0.53838 0.1769 1.291 0.0071 0.96757-0.03704 1.2095-0.3202 1.7556-0.34652 0.66837-0.41188 1.0525-0.20119 1.1828 0.16118 0.0997 0.167 0.44559 0.0074 0.44559-0.06585 0-0.1442-0.043-0.17412-0.0955zm13.144-1.7887c0-0.056 0.05673-0.15863 0.1261-0.22804 0.06935-0.0694 0.18449-0.41027 0.25585-0.75749 0.18182-0.8848 0.27046-1.552 0.18111-1.3633-0.04143 0.08752-0.15648 0.15914-0.25561 0.15914-0.24625 0-0.22167-0.25699 0.05961-0.62303 0.39016-0.50777 0.5688-0.23619 0.4845 0.73651-0.11874 1.37-0.3484 2.1781-0.61897 2.1781-0.12793 0-0.2326-0.0458-0.2326-0.10185zm-0.38169-1.2349c0-0.10503 0.05726-0.19096 0.12721-0.19096 0.06998 0 0.12724 0.08593 0.12724 0.19096 0 0.10503-0.05726 0.19097-0.12724 0.19097-0.06996 0-0.12721-0.08594-0.12721-0.19097zm-9.2848-1.6732c0.0026-0.20005 0.10176-0.48671 0.22265-0.63703 0.54904-0.68261 2.0867-1.0442 2.6446-0.62192 0.13584 0.1028 0.38055 0.18874 0.54382 0.19096 0.50562 0.0069 0.23627 0.30772-0.49723 0.55534-0.37962 0.12816-1.091 0.33686-1.5808 0.46379-0.48982 0.12692-0.99078 0.27168-1.1132 0.32167-0.18158 0.07414-0.22212 0.02381-0.21982-0.27282zm1.1422-0.49104c0-0.10503-0.1075-0.19097-0.23889-0.19097s-0.31014 0.08594-0.39724 0.19097c-0.13504 0.16281-0.09983 0.19097 0.23887 0.19097 0.26831 0 0.39727-0.06199 0.39727-0.19097zm1.499-0.42592c0.02995-0.08991-0.10335-0.14698-0.34332-0.14698-0.36258 0-0.52205 0.20964-0.3162 0.41564 0.10795 0.10802 0.60095-0.09281 0.65953-0.26866zm-9.1326 0.5084c0-0.20073 0.12237-0.24025 1.0496-0.33898 0.55129-0.0587 0.85878-0.04562 0.85878 0.03653 0 0.12705-0.32935 0.21329-1.3677 0.35814-0.33491 0.04672-0.5407 0.02553-0.5407-0.05569zm5.7243-0.97483c-0.12557-0.15141-0.11004-0.20305 0.08205-0.27268 0.13033-0.04724 0.52324-0.27159 0.87312-0.49855 0.90882-0.58955 1.4077-0.69601 2.4818-0.52964 0.70525 0.10924 0.89064 0.18236 0.85881 0.33874-0.02619 0.12904-0.1515 0.18681-0.35473 0.16368-1.9079-0.21716-1.9647-0.2086-2.8586 0.43095-0.70289 0.50285-0.91144 0.57366-1.0824 0.3675z" stroke-width=".26458"/>
  <g fill-rule="evenodd">
   <path d="m45.413 76.899h60.935v-0.16933h-60.935z"/>
   <path d="m45.244 138.75h0.16933v-61.856h-0.16933z"/>
   <path d="m106.35 138.75h0.16933v-61.856h-0.16933z"/>
   <path d="m45.413 138.92h60.935v-0.16934h-60.935z"/>
  </g>
 </g>
</svg>
