<?xml version="1.0" encoding="UTF-8" standalone="no"?>
<!-- Created with Inkscape (http://www.inkscape.org/) -->

<svg
   width="61.221001mm"
   height="62.240601mm"
   viewBox="0 0 61.221 62.240601"
   version="1.1"
   id="svg1"
   xml:space="preserve"
   inkscape:export-filename="stand.svg"
   inkscape:export-xdpi="96"
   inkscape:export-ydpi="96"
   xmlns:inkscape="http://www.inkscape.org/namespaces/inkscape"
   xmlns:sodipodi="http://sodipodi.sourceforge.net/DTD/sodipodi-0.dtd"
   xmlns="http://www.w3.org/2000/svg"
   xmlns:svg="http://www.w3.org/2000/svg"><sodipodi:namedview
     id="namedview1"
     pagecolor="#ffffff"
     bordercolor="#000000"
     borderopacity="0.25"
     inkscape:showpageshadow="2"
     inkscape:pageopacity="0.0"
     inkscape:pagecheckerboard="0"
     inkscape:deskcolor="#d1d1d1"
     inkscape:document-units="mm"><inkscape:page
       x="0"
       y="0"
       width="61.221001"
       height="62.240601"
       id="page2"
       margin="0"
       bleed="0" /></sodipodi:namedview><defs
     id="defs1" /><g
     inkscape:label="Layer 1"
     inkscape:groupmode="layer"
     id="layer1"
     transform="translate(1472.671,3650.7208)"><path
       id="path936"
       d="m -1472.5017,-3650.5514 h 60.8824 v -0.1694 h -60.8824 z"
       style="fill:#000000;fill-opacity:1;fill-rule:evenodd;stroke:none;stroke-width:0.352778" /><path
       id="path941-9"
       d="m -1472.671,-3588.6495 h 0.1693 v -61.8984 h -0.1693 z"
       style="fill:#000000;fill-opacity:1;fill-rule:evenodd;stroke:none;stroke-width:0.352778" /><path
       id="path942"
       d="m -1411.6193,-3588.6495 h 0.1693 v -61.8984 h -0.1693 z"
       style="fill:#000000;fill-opacity:1;fill-rule:evenodd;stroke:none;stroke-width:0.352778" /><path
       id="path952"
       d="m -1472.5017,-3588.4802 h 60.8824 v -0.1693 h -60.8824 z"
       style="fill:#000000;fill-opacity:1;fill-rule:evenodd;stroke:none;stroke-width:0.352778" /><g
       id="g1156"
       transform="matrix(0.26458333,0,0,0.26458333,-4557.9844,-3666.2465)"><path
         style="fill:#000000"
         d="m 11747.96,249.32287 -1.323,-0.20043 -0.08,-5.62094 c -0.05,-3.09152 -0.161,-21.64151 -0.256,-41.2222 -0.09,-19.58069 -0.219,-36.44702 -0.278,-37.48073 -0.162,-2.88633 0.906,-2.65373 1.365,0.29729 0.218,1.39941 0.41,19.99338 0.426,41.31993 0.03,40.92295 0,40.36492 2.134,40.36517 0.702,8e-5 0.77,-1.01382 0.661,-9.74224 -0.176,-14.0531 -0.24,-48.09776 -0.118,-62.66311 l 0.105,-12.50855 -2.335,-0.24055 c -2.39,-0.24626 -3.046,-0.96467 -2.15,-2.35715 0.49,-0.76123 4.652,-1.09458 5.887,-0.47149 1.068,0.53863 1.437,3.32216 0.557,4.20125 -0.554,0.55406 -0.661,2.36469 -0.555,9.39906 0.07,4.79204 -0.02,12.71794 -0.211,17.61312 -0.195,5.04839 -0.158,9.18516 0.08,9.55848 0.348,0.53472 3.685,0.67031 17.79,0.72292 10.827,0.0404 17.537,0.24537 17.825,0.54457 0.589,0.61095 1.447,11.64695 1.787,22.97512 0.144,4.82684 0.449,11.90245 0.677,15.72356 0.392,6.57383 0.362,7.01369 -0.555,8.17866 -0.746,0.94882 -1.455,1.25347 -3.091,1.3283 -1.168,0.0534 -2.14,-0.0548 -2.161,-0.24055 -0.02,-0.18571 -0.06,-3.28998 -0.09,-6.89839 l -0.06,-6.56074 -4.358,-0.31738 c -6.998,-0.50957 -24.321,-0.86306 -26.085,-0.53228 -1.616,0.30292 -1.619,0.3082 -1.597,3.04796 0.01,1.50948 0.211,4.36822 0.443,6.35275 0.389,3.31968 0.342,3.6948 -0.586,4.6907 -1,1.07242 -1.282,1.1266 -3.85,0.73789 z m 40.117,-2.56614 c 0.519,-0.27788 0.835,-0.68272 0.701,-0.89963 -0.135,-0.21692 -0.466,-7.07974 -0.736,-15.25073 -0.466,-14.06579 -0.596,-16.38882 -1.373,-24.45844 l -0.322,-3.34783 -1.685,-0.32776 c -0.926,-0.18027 -8.464,-0.43324 -16.751,-0.56215 -12.697,-0.19753 -15.175,-0.12542 -15.76,0.45861 -0.556,0.55568 -0.655,1.99769 -0.502,7.27767 0.104,3.62157 0.211,9.46236 0.236,12.97953 l 0.05,6.39486 15.887,-0.18343 c 8.738,-0.10088 15.968,-0.27239 16.067,-0.38113 0.1,-0.10874 0,-2.4709 -0.227,-5.24924 -0.223,-2.77834 -0.44,-7.93696 -0.481,-11.46361 -0.05,-4.48601 -0.249,-6.47868 -0.654,-6.63379 -0.551,-0.21144 -18.894,0.59032 -25.132,1.0985 -2.989,0.24344 -5.507,-0.46537 -4.661,-1.31152 0.232,-0.23136 2.8,-0.51534 5.708,-0.63108 2.907,-0.11574 9.402,-0.46345 14.432,-0.77269 6.133,-0.37707 9.558,-0.40491 10.399,-0.0845 l 1.253,0.47772 0.347,13.87011 c 0.191,7.62857 0.431,17.08483 0.532,21.01393 0.116,4.45813 0.396,7.39721 0.745,7.81784 0.67,0.80749 0.728,0.81248 1.931,0.1688 z m -3.99,-14.71114 c 0.125,-0.87746 -0.166,-1.07064 -2.031,-1.35018 -1.197,-0.17941 -8.136,-0.27436 -15.42,-0.211 -7.285,0.0634 -13.387,-0.0268 -13.561,-0.20031 -0.55,-0.55016 -1.144,0.15429 -1.144,1.35765 v 1.16142 l 12.051,-0.0498 c 6.628,-0.0274 12.196,0.095 12.373,0.27193 0.177,0.17698 1.956,0.25934 3.954,0.18304 3.286,-0.12554 3.645,-0.23618 3.778,-1.16272 z m 18.866,7.64332 c -1.036,-0.40276 -1.892,-1.65187 -1.91,-2.78723 0,-0.53838 -0.467,-2.26494 -1.02,-3.8368 -0.553,-1.57186 -1.401,-4.37878 -1.886,-6.2376 -0.871,-3.34595 -1.307,-4.68892 -5.463,-16.85041 -3.226,-9.43987 -3.256,-9.5226 -3.974,-10.98397 -0.367,-0.74911 -0.668,-1.63565 -0.668,-1.97011 0,-0.33445 -0.432,-0.99904 -0.961,-1.47686 -0.88,-0.79602 -1.595,-0.83728 -8.543,-0.4927 -4.171,0.20684 -9.392,0.33035 -11.603,0.27446 -3.589,-0.0907 -4.094,0.005 -4.72,0.89923 -0.386,0.55047 -0.89,1.00085 -1.121,1.00085 -0.87,0 -1.957,-1.57059 -1.683,-2.43214 0.155,-0.4881 -0.03,-1.49364 -0.404,-2.23452 -0.528,-1.03818 -0.761,-4.93238 -1.017,-16.98276 -0.444,-20.88598 -0.625,-23.7983 -1.694,-27.18203 -0.502,-1.58763 -0.911,-3.93208 -0.909,-5.2099 0,-1.44872 -0.283,-2.64016 -0.758,-3.16502 -1.102,-1.2173 -0.94,-2.2226 0.512,-3.17343 1.102,-0.72165 1.979,-0.7886 6.498,-0.49588 3.708,0.2402 5.224,0.18356 5.224,-0.19513 0,-0.29346 -0.489,-0.71931 -1.086,-0.94634 -1.011,-0.38422 -3.258,-2.49604 -5.676,-5.33658 -1.623,-1.90619 -2.411,-4.2854 -2.705,-8.17464 -0.377,-4.98226 0.313,-7.16585 3.231,-10.22357 1.312,-1.37466 2.385,-2.66564 2.385,-2.86884 0,-0.2032 0.704,-0.69274 1.565,-1.08788 0.86,-0.39514 1.991,-0.9934 2.514,-1.32948 0.523,-0.33607 2.19,-1.40548 3.706,-2.37646 1.655,-1.06008 3.122,-1.66985 3.671,-1.52621 0.504,0.13156 1.257,-0.10235 1.675,-0.5198 0.418,-0.41745 1.1,-0.759 1.516,-0.759 1.244,0 0.856,1.36707 -0.603,2.12086 -0.747,0.38626 -1.616,1.01263 -1.931,1.39194 -0.487,0.58582 -0.191,0.67332 1.96,0.58115 1.393,-0.0597 3.13,-0.39091 3.859,-0.73608 0.729,-0.34517 1.46,-0.49351 1.624,-0.32963 0.595,0.59511 -0.256,1.66682 -1.587,1.99704 -0.749,0.18597 -1.796,0.73018 -2.325,1.20936 -0.53,0.47918 -1.453,1.01995 -2.053,1.20172 -1.628,0.49346 -0.716,1.36903 1.116,1.07191 0.873,-0.14165 3.585,-1.06583 6.026,-2.05373 4.287,-1.73481 4.461,-1.76513 5.104,-0.88726 1.08,1.4766 0.563,2.21069 -2.492,3.537 -1.588,0.68967 -3.365,1.52351 -3.949,1.85297 l -1.06,0.59903 1.336,3.0019 c 2.112,4.74732 2.639,7.21817 2.282,10.7043 -0.292,2.84803 -0.491,3.27767 -2.352,5.07371 -1.925,1.85791 -8,5.26506 -9.388,5.26506 -0.355,0 -0.493,0.24325 -0.309,0.54224 0.228,0.36865 1.848,0.46943 5.061,0.31481 4.891,-0.23539 5.732,0.01 5.732,1.67067 0,0.79699 -2.359,5.53819 -3.435,6.90495 -0.231,0.29279 -1.5,3.75669 -2.821,7.69756 -1.321,3.94088 -3.053,8.96699 -3.849,11.16915 -1.595,4.41297 -1.803,6.40794 -0.758,7.27516 0.546,0.45228 0.882,0.389 1.607,-0.30191 0.504,-0.48077 1.256,-1.09061 1.672,-1.35521 0.415,-0.26461 2.93,-1.94244 5.589,-3.72851 4.756,-3.19439 6.532,-3.81229 7.675,-2.6701 1.369,1.36858 0.415,3.27147 -1.64,3.27147 -0.382,0 -1.935,0.87138 -3.45,1.93639 -1.516,1.06502 -3.854,2.68358 -5.196,3.5968 -1.341,0.91322 -3.133,2.42328 -3.982,3.35568 -1.654,1.81637 -3.39,2.19987 -4.408,0.97364 -1.059,-1.27534 -1.775,-0.78057 -2.61,1.80412 -0.448,1.38917 -1.644,4.25235 -2.656,6.36263 -1.013,2.11028 -1.725,4.13794 -1.584,4.50592 0.207,0.53964 1.011,0.59548 4.155,0.28869 2.144,-0.2092 4.656,-0.42557 5.583,-0.48083 0.926,-0.0553 2.975,-0.45041 4.553,-0.87814 1.578,-0.42773 3.808,-0.77769 4.955,-0.77769 1.148,0 3.48,-0.34978 5.183,-0.7773 4.065,-1.02078 6.361,-0.62944 6.798,1.1592 0.374,1.52587 3.936,9.48525 7.902,17.65928 1.541,3.17525 3.423,7.28864 4.182,9.14086 1.544,3.76978 3.743,7.45702 4.447,7.45702 0.255,0 1.173,-0.78277 2.039,-1.73949 1.839,-2.02936 3.167,-2.65183 4.344,-2.03551 1.326,0.69457 0.991,2.10453 -0.831,3.49366 -0.921,0.70188 -2.241,2.24303 -2.934,3.42478 -1.041,1.77438 -1.508,2.14864 -2.681,2.14864 -1.093,0 -1.609,-0.34505 -2.24,-1.49636 -0.451,-0.823 -1.293,-2.17609 -1.871,-3.00687 -1,-1.43943 -4.966,-9.26273 -4.966,-9.79759 0,-0.14003 -0.685,-1.68837 -1.523,-3.44077 -5.104,-10.67973 -6.664,-14.06416 -7.616,-16.51774 -1.489,-3.8392 -1.613,-3.90279 -6.346,-3.25505 -2.204,0.30163 -4.069,0.61016 -4.145,0.68561 -0.299,0.29886 3.715,0.72795 4.39,0.46923 0.396,-0.15198 1.3,0.0275 2.009,0.39875 1.384,0.7244 1.842,1.78209 4.851,11.18424 0.931,2.91065 2.109,6.2663 2.617,7.45702 0.507,1.19072 1.266,3.46391 1.686,5.05153 0.419,1.58763 1.377,4.72679 2.128,6.97592 0.751,2.24914 1.634,5.06356 1.963,6.25428 1.858,6.73161 2.239,7.20583 4.615,5.73807 1.498,-0.92513 1.651,-0.93467 2.81,-0.17569 0.674,0.44141 1.225,0.95365 1.225,1.13831 0,0.75678 -2.789,2.81521 -4.829,3.56381 -2.36,0.86588 -2.292,0.85685 -3.354,0.44417 z m -38.574,-60.69118 c 3.542,-9.64362 3.497,-9.41346 3.145,-15.92246 -0.196,-3.61514 -0.677,-7.12816 -1.204,-8.79579 -1.305,-4.12906 -2.077,-8.2684 -1.716,-9.2072 0.501,-1.30702 2.87,-0.81923 3.292,0.678 0.714,2.5347 2.449,9.93154 2.672,11.39333 0.364,2.38805 1.466,2.39483 2.049,0.0126 1.016,-4.1552 3.007,-9.81161 4.418,-12.55314 1.698,-3.29782 1.483,-3.64577 -2.142,-3.46255 -1.311,0.0662 -3.926,-0.14359 -5.813,-0.46629 -1.887,-0.3227 -4.622,-0.55745 -6.078,-0.52166 l -2.647,0.0651 0.05,5.53263 c 0.05,5.11572 0.222,8.75098 0.928,19.06845 0.147,2.15262 0.275,7.45673 0.284,11.7869 0.02,7.44493 0.06,7.81045 0.806,6.72199 0.434,-0.63308 1.314,-2.58153 1.957,-4.32989 z m 10.355,-46.74071 c 2.571,-1.13681 2.789,-1.6692 0.844,-2.05812 -2.427,-0.48504 -2.496,-3.21145 -0.08,-3.21145 0.726,0 2.007,0.23925 2.846,0.53167 2.337,0.81426 2.95,0.0119 2.95,-3.86204 0,-1.79736 -0.246,-3.45863 -0.559,-3.77115 -0.307,-0.30723 -0.913,-1.58276 -1.345,-2.83453 -0.679,-1.96268 -1.13,-2.45321 -3.281,-3.56388 -2.651,-1.36918 -4.342,-1.4738 -8.292,-0.51299 -1.192,0.28977 -2.721,0.63225 -3.398,0.76107 -1.909,0.36322 -3.574,4.04894 -3.507,7.76768 0.08,4.32438 1.093,6.08573 5.929,10.2865 2.045,1.77626 4.592,1.92703 7.894,0.46724 z m -2.588,-10.08176 c -1.307,-1.30673 -1.069,-2.49924 0.618,-3.09223 1.08,-0.37959 1.506,-0.29116 2.267,0.47115 0.516,0.51615 0.998,1.47968 1.073,2.14119 0.116,1.03502 -0.08,1.22348 -1.401,1.35139 -1.065,0.10308 -1.849,-0.16405 -2.557,-0.8715 z"
         id="path2" /></g></g></svg>
