<?xml version="1.0" encoding="UTF-8" standalone="no"?>
<!-- Created with Inkscape (http://www.inkscape.org/) -->

<svg
   width="61.221001mm"
   height="62.240601mm"
   viewBox="0 0 61.221 62.240601"
   version="1.1"
   id="svg1"
   xml:space="preserve"
   inkscape:export-filename="3rdPluralPro.svg"
   inkscape:export-xdpi="96"
   inkscape:export-ydpi="96"
   xmlns:inkscape="http://www.inkscape.org/namespaces/inkscape"
   xmlns:sodipodi="http://sodipodi.sourceforge.net/DTD/sodipodi-0.dtd"
   xmlns="http://www.w3.org/2000/svg"
   xmlns:svg="http://www.w3.org/2000/svg"><sodipodi:namedview
     id="namedview1"
     pagecolor="#ffffff"
     bordercolor="#000000"
     borderopacity="0.25"
     inkscape:showpageshadow="2"
     inkscape:pageopacity="0.0"
     inkscape:pagecheckerboard="0"
     inkscape:deskcolor="#d1d1d1"
     inkscape:document-units="mm"><inkscape:page
       x="0"
       y="0"
       width="61.221001"
       height="62.240601"
       id="page2"
       margin="0"
       bleed="0" /></sodipodi:namedview><defs
     id="defs1" /><g
     inkscape:label="Layer 1"
     inkscape:groupmode="layer"
     id="layer1"
     transform="translate(1472.671,3650.7208)"><path
       id="path936"
       d="m -1472.5017,-3650.5514 h 60.8824 v -0.1694 h -60.8824 z"
       style="fill:#000000;fill-opacity:1;fill-rule:evenodd;stroke:none;stroke-width:0.352778" /><path
       id="path941-9"
       d="m -1472.671,-3588.6495 h 0.1693 v -61.8984 h -0.1693 z"
       style="fill:#000000;fill-opacity:1;fill-rule:evenodd;stroke:none;stroke-width:0.352778" /><path
       id="path942"
       d="m -1411.6193,-3588.6495 h 0.1693 v -61.8984 h -0.1693 z"
       style="fill:#000000;fill-opacity:1;fill-rule:evenodd;stroke:none;stroke-width:0.352778" /><path
       id="path952"
       d="m -1472.5017,-3588.4802 h 60.8824 v -0.1693 h -60.8824 z"
       style="fill:#000000;fill-opacity:1;fill-rule:evenodd;stroke:none;stroke-width:0.352778" /><g
       id="g1154"
       transform="matrix(0.26458333,0,0,0.26458333,-4496.9362,-3666.2554)"><path
         style="fill:#000000"
         d="m 11527.474,263.17295 c -0.19,-0.18871 -1.691,-0.68229 -3.336,-1.09685 -3.333,-0.83965 -4.069,-1.98092 -2.304,-3.5716 0.912,-0.82215 1.072,-0.82786 2.626,-0.0936 3.13,1.47888 2.887,1.84567 4.893,-7.38384 0.373,-1.71724 0.988,-4.20302 1.366,-5.52397 3.094,-10.81474 3.865,-13.96927 4.64,-18.97365 0.306,-1.98143 0.856,-5.33184 1.221,-7.44536 0.732,-4.23788 1.179,-8.10303 1.445,-12.48899 0.171,-2.82742 0.773,-7.24292 1.636,-12.00864 0.239,-1.32095 0.575,-4.35834 0.746,-6.74976 0.171,-2.39143 0.618,-5.50677 0.993,-6.92299 0.625,-2.36031 0.6,-2.87873 -0.308,-6.21956 -0.545,-2.00454 -1.186,-3.84997 -1.425,-4.10095 -0.238,-0.25098 -0.433,-0.94615 -0.433,-1.54482 0,-0.59868 -0.301,-1.79834 -0.67,-2.66592 -0.368,-0.86758 -1.007,-2.6582 -1.418,-3.97915 -1.373,-4.40195 -3.217,-9.58864 -3.98,-11.19257 -0.414,-0.87212 -0.881,-2.38521 -1.037,-3.36242 -0.156,-0.97722 -0.558,-2.20907 -0.895,-2.73745 -0.336,-0.52838 -0.755,-1.82531 -0.93,-2.88207 -0.4,-2.40685 -1.61,-5.14465 -2.131,-4.82362 -0.527,0.32419 -1.47,8.25592 -1.516,12.74932 -0.04,4.2895 -0.442,6.88397 -2.617,17.05227 -0.904,4.22704 -1.905,9.76741 -2.225,12.31194 -0.533,4.25194 -0.72,4.78383 -2.313,6.5712 -0.953,1.06963 -1.996,2.33816 -2.318,2.81894 -0.556,0.82934 -0.636,0.81602 -1.568,-0.25983 -1.328,-1.5338 -1.241,-2.16634 0.501,-3.62617 1.255,-1.05156 1.555,-1.74234 1.945,-4.48589 0.608,-4.28166 0.807,-5.33327 1.374,-7.27417 0.262,-0.89624 0.368,-1.80395 0.235,-2.01715 -0.132,-0.21319 0.181,-2.28994 0.695,-4.61498 2.213,-10.0024 2.491,-11.71252 2.76,-16.95651 0.501,-9.73277 0.949,-13.24712 2.26,-17.71725 0.9,-3.0671 1.288,-3.70956 2.864,-4.74809 l 1.822,-1.20103 7.907,0.54928 c 10.212,0.70942 11.738,0.24502 6.814,-2.07446 -1.501,-0.70749 -3.861,-2.47472 -5.47,-4.09755 -2.468,-2.48781 -2.971,-3.32434 -3.926,-6.5273 -0.871,-2.92358 -1.041,-4.38061 -0.83,-7.13514 0.392,-5.13365 1.22,-7.298698 3.823,-10.000246 1.26,-1.307936 2.291,-2.537403 2.291,-2.732149 0,-0.529164 13.29,-8.682368 14.152,-8.682368 0.409,0 0.9,0.251559 1.091,0.559021 0.344,0.554119 -0.234,1.15718 -3.808,3.970557 -2.373,1.867766 -2.286,2.520759 0.132,1.000422 1.056,-0.663789 2.195,-1.213764 2.532,-1.222166 0.337,-0.0084 1.034,-0.332636 1.549,-0.720519 1.384,-1.042511 3.164,-0.915938 3.164,0.225016 0,0.698414 0.391,0.96777 1.568,1.080777 2.301,0.220942 2.373,1.790615 0.138,2.989397 -0.938,0.503248 -1.706,1.122616 -1.706,1.376375 0,0.253758 0.682,1.235477 1.517,2.181597 2.514,2.85149 3.368,5.391106 3.559,10.576856 0.235,6.37452 -0.805,9.25196 -4.807,13.30446 -2.183,2.21054 -3.562,3.16931 -5.454,3.79142 -1.847,0.60725 -2.533,1.0744 -2.533,1.72554 0,0.82972 0.418,0.88241 5.909,0.74498 3.508,-0.0878 6.447,-0.39965 7.233,-0.76751 1.151,-0.53821 1.452,-0.50515 2.292,0.25156 1.226,1.10564 1.219,1.78669 -0.03,2.91439 -0.803,0.72311 -0.936,1.23331 -0.676,2.59626 0.177,0.93296 0.376,4.18209 0.442,7.22027 0.07,3.03819 0.354,6.49668 0.639,7.68553 0.286,1.18886 0.669,7.24121 0.853,13.44968 0.513,17.35846 0.606,19.22942 1.126,22.50587 0.267,1.67853 0.823,3.42479 1.238,3.88058 1.42,1.56342 0.829,4.84903 -0.867,4.81568 -0.967,-0.019 -3.204,-2.7224 -3.204,-3.87264 0,-0.25517 -0.304,-0.94269 -0.675,-1.52782 -0.511,-0.80412 -0.757,-4.17178 -1.01,-13.79303 -0.472,-17.96627 -0.641,-21.54591 -1.341,-28.34039 l -0.619,-6.00432 -1.255,2.6419 c -2.127,4.47679 -2.702,5.87425 -3.99,9.69978 -0.685,2.03251 -2.083,5.38292 -3.108,7.44536 -1.025,2.06244 -2.125,4.55746 -2.444,5.5445 -0.32,0.98703 -0.782,1.91845 -1.028,2.06981 -0.246,0.15137 -0.447,0.66257 -0.447,1.13601 0,0.47345 -0.576,1.91974 -1.281,3.21399 -2.766,5.08673 -2.717,4.88833 -2.686,10.70547 0.02,3.06776 0.263,6.98275 0.548,8.69998 0.284,1.71724 0.524,5.60804 0.533,8.64622 0.02,5.32857 0.325,11.27424 1.438,27.61987 0.288,4.22704 0.746,11.03594 1.019,15.13089 0.834,12.54453 1.178,15.07553 2.156,15.88372 0.642,0.53044 1.996,0.34876 7.278,-0.97632 2.047,-0.51355 3.777,0.35826 3.777,1.90369 0,0.9934 -0.293,1.21991 -1.93,1.49007 -1.061,0.17522 -3.991,0.6947 -6.511,1.15439 -2.521,0.4597 -4.995,0.75548 -5.499,0.6573 -0.669,-0.13029 -1.081,-0.8922 -1.525,-2.82041 -0.632,-2.73967 -2.079,-17.53983 -2.372,-24.25745 -0.09,-2.11352 -0.3,-6.00432 -0.46,-8.64622 -0.531,-8.74225 -0.78,-13.83919 -1.086,-22.21599 -0.276,-7.56446 -0.73,-10.0312 -1.327,-7.20518 -1.466,6.94726 -1.539,7.51844 -1.945,15.20268 -0.159,3.01162 -0.369,5.60549 -0.468,5.76414 -0.1,0.15866 -0.416,2.45003 -0.707,5.09193 -0.633,5.74087 -1.186,8.69977 -3.455,18.4933 -0.582,2.50981 -1.251,4.94549 -1.487,5.41262 -0.766,1.51517 -2.926,10.5793 -3.432,14.40164 l -0.492,3.72267 h -1.539 c -0.847,0 -1.695,-0.15439 -1.884,-0.3431 z m 18.566,-94.88541 c 0.9,-1.65118 1.909,-3.7587 2.243,-4.68336 0.334,-0.92467 1.348,-3.41046 2.253,-5.52398 0.906,-2.11352 2.127,-5.1397 2.713,-6.72484 0.587,-1.58514 1.227,-3.31438 1.424,-3.84276 0.196,-0.52838 2.032,-4.37167 4.081,-8.54063 2.242,-4.56314 3.606,-7.88985 3.425,-8.35862 -0.262,-0.67916 -0.981,-0.7399 -5.626,-0.47523 -2.929,0.1669 -6.885,0.10769 -8.79,-0.13158 -1.905,-0.23926 -6.645,-0.55204 -10.534,-0.69506 -6.078,-0.2236 -7.109,-0.15647 -7.354,0.47921 -0.156,0.40658 -0.03,1.20484 0.272,1.77392 0.305,0.56907 0.723,1.68823 0.928,2.48701 0.368,1.43063 3.65,10.73521 4.718,13.37216 0.301,0.74372 0.547,1.61915 0.547,1.9454 0,0.32625 0.193,0.79853 0.428,1.04951 0.236,0.25098 1.335,3.59058 2.443,7.42134 1.108,3.83075 2.327,7.67485 2.707,8.54243 0.381,0.86758 0.693,1.90853 0.693,2.31322 0,0.95255 0.883,2.59402 1.396,2.59402 0.219,0 1.134,-1.35097 2.033,-3.00216 z m 8.014,-47.71999 c 2.302,-1.74327 3.885,-3.55726 5.53,-6.33789 1.21,-2.04476 1.28,-2.46853 1.042,-6.31024 -0.339,-5.48499 -0.886,-7.04517 -3.246,-9.259226 -3.871,-3.631932 -7.001,-4.143779 -10.645,-1.740539 -2.052,1.353604 -2.47,1.464722 -3.731,0.990982 -1.626,-0.611479 -2.615,0.08013 -4.041,2.826733 -1.076,2.07126 -1.083,8.61478 -0.01,11.82369 0.959,2.87746 4.739,7.63764 7.02,8.84167 2.417,1.27591 5.75,0.93151 8.083,-0.83518 z m -7.74,-1.49303 c -1.218,-0.31356 -3.006,-4.48097 -2.153,-5.01945 0.957,-0.60489 1.293,-0.50054 2.608,0.80891 0.999,0.99501 1.515,1.16086 2.839,0.91347 0.89,-0.16624 1.735,-0.60525 1.878,-0.97557 0.29,-0.7539 2.011,-0.91555 2.437,-0.22895 0.489,0.78749 -0.702,2.64819 -2.406,3.75868 -1.566,1.0212 -3.211,1.25599 -5.203,0.74291 z m -1.2,-12.55926 c -0.612,-0.17181 -1.101,-0.4745 -1.085,-0.67264 0.02,-0.19814 0.03,-1.00873 0.03,-1.8013 0,-1.19147 0.195,-1.44103 1.131,-1.44103 2.149,0 3.776,3.33923 1.964,4.03154 -0.419,0.16036 -0.799,0.27002 -0.844,0.24369 -0.04,-0.0263 -0.582,-0.18845 -1.195,-0.36026 z m 6.272,-1.63333 c 0.13,-1.79134 0.289,-2.04147 1.301,-2.04147 1.465,0 2.216,1.16941 1.803,2.80773 -0.26,1.03003 -0.603,1.27521 -1.787,1.27521 -1.426,0 -1.462,-0.0553 -1.317,-2.04147 z m 5.213,-12.849245 c 0,-0.26419 -0.1,-0.480346 -0.213,-0.480346 -0.117,0 -0.347,0.216156 -0.511,0.480346 -0.164,0.26419 -0.07,0.480346 0.213,0.480346 0.281,0 0.511,-0.216156 0.511,-0.480346 z"
         id="path2" /></g></g></svg>
