<?xml version="1.0" encoding="UTF-8" standalone="no"?>
<!-- Created with Inkscape (http://www.inkscape.org/) -->

<svg
   width="61.221001mm"
   height="62.240601mm"
   viewBox="0 0 61.221 62.240601"
   version="1.1"
   id="svg1"
   xml:space="preserve"
   xmlns="http://www.w3.org/2000/svg"
   xmlns:svg="http://www.w3.org/2000/svg"><defs
     id="defs1" /><g
     id="layer1"
     transform="translate(1472.671,3650.7208)"><g
       id="g1158"
       transform="matrix(0.26458333,0,0,0.26458333,-4620.6024,-3666.2554)"><path
         style="fill:#000000"
         d="m 12023.659,256.83541 c -0.653,-0.65355 -0.875,-1.35629 -0.706,-2.24322 0.135,-0.71034 0.478,-2.91507 0.761,-4.89938 0.284,-1.98431 0.749,-5.23137 1.035,-7.21569 0.479,-3.33179 2.894,-12.91679 3.818,-15.15294 1.022,-2.47187 1.002,-3.05971 -0.12,-3.63919 -0.608,-0.31404 -2.297,-1.58625 -3.752,-2.82712 -1.456,-1.24088 -3.35,-2.76959 -4.211,-3.39714 -0.86,-0.62755 -1.563,-1.52183 -1.563,-1.98728 0,-0.76043 -0.684,-0.86104 -6.738,-0.99188 -7.305,-0.15789 -7.201,-0.20157 -6.074,2.56164 0.364,0.89218 0.811,3.24568 0.992,5.22999 0.182,1.98432 0.642,5.42208 1.023,7.63949 0.38,2.2174 0.692,4.17015 0.692,4.33945 0,0.1693 -0.929,0.8151 -2.064,1.43511 -1.136,0.62001 -2.545,1.86019 -3.132,2.75596 -0.588,0.89578 -1.283,1.62869 -1.545,1.62869 -0.262,0 -0.477,0.22232 -0.477,0.49405 0,0.27172 -0.64,1.19172 -1.422,2.04444 -3.11,3.38964 -6.268,7.35198 -6.273,7.86882 0,0.30594 1.212,0.69301 2.763,0.8806 3.59,0.43433 4.932,1.29674 4.932,3.16964 0,1.81958 -0.778,2.12685 -3.017,1.19151 -2.252,-0.94037 -4.409,-0.93783 -5.851,0.007 -1.215,0.79577 -3.236,0.56689 -4.091,-0.46331 -0.579,-0.69797 0.779,-4.58975 2.618,-7.50254 0.659,-1.04413 1.199,-2.01597 1.199,-2.15964 0,-0.14367 1.624,-2.18552 3.608,-4.53744 1.985,-2.35192 3.609,-4.46176 3.609,-4.68854 0,-0.22678 1.083,-1.26967 2.406,-2.31754 1.323,-1.04786 2.404,-2.01771 2.401,-2.15521 0,-0.13751 -0.436,-2.71149 -0.962,-5.71995 -0.527,-3.00847 -0.958,-6.04988 -0.958,-6.7587 0,-0.70881 -0.201,-1.4944 -0.446,-1.74574 -0.246,-0.25135 -0.517,-1.19324 -0.602,-2.0931 -0.103,-1.08941 -0.575,-1.94856 -1.413,-2.57122 -1.179,-0.87596 -1.353,-0.88658 -2.743,-0.16782 -2.026,1.04708 -2.326,0.9816 -2.888,-0.63011 -0.356,-1.02245 -0.31,-1.89372 0.173,-3.24706 0.363,-1.01731 0.669,-2.24192 0.681,-2.72135 0.02,-0.93962 0.828,-3.76024 2.704,-9.47078 1.455,-4.4305 3.091,-11.19503 3.091,-12.78343 0,-1.24659 0.743,-3.07514 4.091,-10.06625 1.14,-2.38117 2.617,-5.52 3.282,-6.97516 1.362,-2.97976 6.046,-16.87952 7.296,-21.64706 0.45,-1.71974 1.021,-3.51145 1.267,-3.98159 0.247,-0.47014 0.398,-2.12797 0.337,-3.68407 -0.105,-2.6457 -0.207,-2.87115 -1.575,-3.47462 -0.805,-0.35494 -1.897,-1.33984 -2.427,-2.18866 -0.53,-0.84883 -1.18,-1.48064 -1.445,-1.40402 -0.264,0.0766 -0.536,2.02913 -0.602,4.3389 -0.177,6.07882 -2.218,9.96283 -6.073,11.55064 -2.532,1.04314 -2.903,0.98936 -4.827,-0.69958 -2.854,-2.50524 -3.362,-5.77564 -1.249,-8.04304 1.079,-1.15783 1.771,-1.30737 2.861,-0.61817 0.596,0.37716 0.569,0.6744 -0.191,2.08483 -1.05,1.94922 -0.736,3.90886 0.754,4.70603 0.846,0.45271 1.283,0.31497 2.74,-0.86367 3.122,-2.52636 3.461,-3.64371 3.733,-12.31822 0.134,-4.27536 0.445,-8.85574 0.692,-10.17861 0.247,-1.32288 0.566,-3.17655 0.709,-4.11928 0.325,-2.13665 4.968,-7.41306 7.428,-8.44078 4.94,-2.06335 12.981,0.65775 14.816,5.01341 0.411,0.97575 0.96,3.42374 1.22,5.43996 0.462,3.58083 0.437,3.74042 -1.061,6.87955 -0.844,1.76752 -2.197,3.96818 -3.007,4.89034 -1.848,2.10422 -6.178,5.00869 -7.468,5.00869 -2.2,0 -2.439,2.27309 -0.58,5.51773 0.459,0.80159 1.211,3.51391 1.67,6.02737 0.459,2.51346 1.107,5.01494 1.441,5.55884 0.334,0.5439 1.659,1.51802 2.944,2.16471 1.284,0.64669 3.526,1.93756 4.982,2.86861 1.455,0.93104 4.27,2.44309 6.255,3.36009 1.985,0.91701 4.397,2.14533 5.361,2.72962 0.963,0.58428 2.756,1.53452 3.984,2.11163 2.602,1.22247 4.774,4.3742 4.523,6.56151 -0.239,2.08499 -2.13,1.83821 -3.45,-0.45028 -1.338,-2.31931 -5.436,-5.19952 -11.285,-7.93216 -2.567,-1.19882 -5.533,-2.76669 -6.591,-3.48416 -2.827,-1.91572 -5.176,-2.97406 -5.619,-2.53111 -0.214,0.21402 0.01,1.89501 0.511,3.73553 0.495,1.84051 1.629,6.44844 2.52,10.23985 l 1.62,6.89346 3.787,2.72745 c 9.581,6.8996 9.563,6.88296 10.184,9.37374 0.481,1.92844 0.462,2.43249 -0.112,3.00653 -0.379,0.37932 -0.875,0.68967 -1.102,0.68967 -0.775,0 -1.846,-1.43144 -2.168,-2.89759 -0.216,-0.98106 -1.031,-1.97495 -2.472,-3.01148 -1.183,-0.85093 -3.158,-2.38641 -4.389,-3.41219 -1.231,-1.02578 -2.306,-1.66043 -2.39,-1.41033 -0.183,0.54987 0.837,5.25289 2.275,10.49107 0.581,2.1166 1.67,6.65193 2.419,10.07851 1.609,7.36118 1.443,8.28607 -1.376,7.66206 -0.97,-0.2146 -2.666,-0.35474 -3.768,-0.31143 -2.073,0.0814 -7.332,1.41409 -7.996,2.02603 -0.728,0.67199 0.206,1.73627 3.827,4.35659 5.643,4.08417 6.895,5.26793 6.895,6.52005 0,0.62088 -0.334,1.31603 -0.743,1.54478 -1.58,0.88401 -7.232,25.04673 -6.118,26.15476 0.201,0.20011 1.232,0.64609 2.29,0.99107 1.552,0.50573 1.954,0.88353 2.077,1.95012 0.1,0.83674 -0.08,1.33761 -0.481,1.36297 -1.164,0.0737 -2.541,0.31676 -4.645,0.82025 -1.833,0.43859 -2.203,0.3836 -3.039,-0.45238 z m -4.728,-47.07518 c 0.454,-0.24278 0.925,-0.34177 1.047,-0.21998 0.122,0.12179 1.828,-0.19069 3.792,-0.69439 1.964,-0.50371 4.472,-1.05968 5.573,-1.2355 2.599,-0.41491 3.778,-1.6712 3.264,-3.47725 -0.211,-0.73824 -0.414,-1.7752 -0.453,-2.30435 -0.124,-1.70677 -3.173,-13.89923 -3.884,-15.53005 -0.378,-0.86884 -0.688,-2.04406 -0.688,-2.6116 0,-2.85297 -1.894,-5.6875 -4.812,-7.20152 -0.662,-0.34331 -2.36,-1.34931 -3.774,-2.23556 -2.168,-1.35886 -2.519,-1.77416 -2.241,-2.6503 0.181,-0.57142 0.443,-2.98718 0.581,-5.36836 0.252,-4.31611 0.658,-5.53202 1.85,-5.53202 1.069,0 2.195,1.47699 1.88,2.46814 -0.373,1.17405 -0.641,7.20638 -0.355,7.96742 0.257,0.68065 3.991,2.70576 4.342,2.35459 0.525,-0.52438 0.152,-2.76509 -1.768,-10.62545 -2.512,-10.28726 -2.483,-10.15316 -2.745,-12.74771 -0.33,-3.26907 -0.552,-3.68853 -1.377,-2.59933 -0.381,0.50362 -0.699,1.34861 -0.706,1.87776 -0.02,1.21509 -1.147,4.74213 -3.006,9.38039 -0.796,1.98432 -2.047,5.23138 -2.781,7.21569 -0.733,1.98431 -2.557,6.16422 -4.053,9.28867 -1.884,3.9368 -2.944,6.89046 -3.453,9.62092 -0.703,3.77876 -1.381,6.17254 -3.843,13.561 -0.618,1.85202 -1.449,4.65842 -1.848,6.23643 -0.65,2.57569 -0.648,2.95325 0.02,3.69188 0.668,0.73708 4.295,1.58521 8.601,2.01092 2.562,0.25325 9.987,-0.18557 10.837,-0.64044 z m 4.143,-78.44391 c 1.87,-1.15546 2.014,-1.86072 0.636,-3.10817 -2.304,-2.08417 -0.05,-4.60255 2.578,-2.881 1.13,0.7401 1.221,0.70643 2.726,-1.00748 1.465,-1.66743 1.546,-1.95212 1.366,-4.77394 -0.317,-4.97789 -3.066,-8.06829 -7.722,-8.68001 -2.292,-0.30113 -3.777,0.53742 -6.471,3.65323 -2.414,2.79179 -2.64,3.49791 -1.845,5.75263 0.625,1.77062 0.618,2.2016 -0.06,3.90247 -0.742,1.85156 -0.729,1.96872 0.407,3.70493 0.645,0.98611 1.31,2.16291 1.478,2.61513 0.293,0.79228 2.504,1.69014 4.383,1.78015 0.498,0.0239 1.635,-0.40721 2.526,-0.95794 z m 1.738,-12.54349 c -0.955,-0.95434 -0.744,-3.18084 0.334,-3.52276 1.539,-0.48839 2.975,0.73342 2.815,2.39568 -0.109,1.13654 -0.395,1.47308 -1.345,1.58407 -0.663,0.0775 -1.475,-0.12813 -1.804,-0.45699 z"
         id="path2" /></g></g></svg>
