<?xml version="1.0" encoding="UTF-8"?>
<!-- Created with Inkscape (http://www.inkscape.org/) -->
<svg width="61.221mm" height="62.195mm" version="1.1" viewBox="0 0 61.221 62.195" xmlns="http://www.w3.org/2000/svg">
 <g transform="translate(-67.469 -109.27)">
  <path d="m89.3 167.6c0.04323-0.0699 0.13245-0.12716 0.19828-0.12716 0.06583 0 0.11967 0.0572 0.11967 0.12716 0 0.0699-0.08922 0.12717-0.19828 0.12717-0.10906 0-0.1629-0.0572-0.11967-0.12717zm3.2487 6e-3c-0.18904-0.11955-0.23304-0.38496-0.50697-3.058-0.08242-0.80431-0.22651-1.7485-0.32023-2.0982-0.09369-0.3497-0.24109-0.95055-0.32753-1.3352-0.08644-0.38467-0.25884-0.9283-0.38314-1.2081-0.12427-0.27976-0.2962-0.73755-0.38208-1.0173-0.13682-0.44582-1.4363-3.1054-1.7709-3.6242-0.52861-0.81987-1.1572-1.9832-1.4602-2.7022-0.19889-0.47209-0.37624-0.85835-0.39407-0.85835-0.01773 0-0.17555 0.24421-0.35052 0.54268-0.17494 0.29848-0.50948 0.72191-0.7434 0.94095-1.1238 1.0524-1.4946 1.3626-2.1423 1.7926-0.38476 0.25544-0.95708 0.70204-1.2719 0.99243-0.56978 0.52564-1.0167 0.81785-1.251 0.81785-0.06763 0-0.2431-0.20356-0.38992-0.45234-0.44765-0.75859-0.36343-1.6858 0.28482-3.136 0.29086-0.65064 0.26321-1.1908-0.10102-1.973-0.40164-0.86255-0.61899-2.0085-0.44326-2.3369 0.07181-0.13414 0.09615-0.42907 0.05411-0.6554-0.11351-0.61082 0.27228-1.9172 0.88503-2.9969 0.27887-0.49142 0.99465-1.1727 1.5123-1.4393 0.36332-0.18718 0.46635-0.3058 0.40444-0.46572-0.04567-0.11801-0.1148-0.37193-0.15362-0.56427-0.03884-0.19234-0.14375-0.3497-0.23318-0.3497-0.40997 0-2.7653 0.92741-3.3751 1.329-0.3737 0.24608-0.73716 0.46664-0.80769 0.49015-0.15182 0.0506 0.13108 1.1056 0.29647 1.1056 0.05839 0 0.14264 0.18222 0.18719 0.40494 0.04456 0.22272 0.16047 0.49453 0.2576 0.60403 0.28533 0.32162 0.47813 2.7185 0.37928 4.7149-0.07937 1.6034-0.06736 1.7788 0.12168 1.7788 0.25326 0 0.28451 0.45275 0.03778 0.54742-0.24855 0.0953-0.56383 5.8045-0.36404 6.5925 0.07715 0.30442 0.17418 0.95406 0.21558 1.4436 0.04138 0.48958 0.18428 1.5482 0.31753 2.3525 0.31972 1.9302 0.35377 2.4475 0.16521 2.5104-0.17896 0.0597-0.21847-0.11305-0.41428-1.811-0.08065-0.69941-0.19738-1.5338-0.25937-1.8543-0.06202-0.32045-0.14952-0.94991-0.19444-1.3988-0.04493-0.44889-0.13502-1.0653-0.20021-1.3698-0.07393-0.34534-0.07109-1.5892 0.0074-3.3063 0.29919-6.5359 0.28205-9.4288-0.05593-9.4288-0.20563 0-1.4336 1.2359-1.5302 1.54-0.08258 0.26011-0.3135 0.33106-0.3135 0.0963 0-0.28966 0.5389-1.0036 1.164-1.5421l0.64116-0.5523-0.20238-0.48426c-0.23008-0.55059-0.27644-0.54764-1.2441 0.0793-1.0497 0.68005-1.8707 2.1708-2.541 4.6138-0.33618 1.2252-0.38976 1.6524-0.43061 3.4339-0.0563 2.4551-0.26532 6.9499-0.44056 9.4737-0.0704 1.0141-0.12761 2.2015-0.12708 2.6387 0 0.59553-0.04358 0.79478-0.1765 0.79478-0.33237 0-0.3166-0.91014 0.11565-6.6761 0.10488-1.3988 0.19029-3.6114 0.18981-4.9168 0-2.1826 0.03016-2.5116 0.38476-4.0891 0.73795-3.2831 1.545-4.7521 3.2074-5.8383 0.65019-0.42484 0.7062-0.54986 0.41738-0.93163-0.21966-0.29039-0.25339-0.69192-0.0581-0.69192 0.07519 0 0.53462-0.25736 1.0209-0.57192 0.48633-0.31455 1.3549-0.72101 1.9301-0.90325 1.9042-0.60327 2.9448-1.0954 3.7637-1.7798 0.02593-0.0216-0.05204-0.44321-0.17306-0.93691-0.18627-0.75999-0.19955-1.0707-0.08657-2.0261 0.12475-1.0549 0.45344-2.1673 0.59775-2.023 0.03508 0.0351-0.03159 0.62823-0.14817 1.3181-0.18664 1.1045-0.19156 1.3916-0.0412 2.4037 0.23648 1.5915 0.20693 1.9439-0.23556 2.8097-0.39465 0.77222-1.0021 1.3536-1.8033 1.726-1.139 0.52941-1.9577 1.9388-2.1797 3.7525-0.16634 1.3584-0.07432 2.2868 0.30509 3.0787 0.38997 0.81385 0.38344 2.057-0.01429 2.7075-0.48604 0.795-0.40965 2.6525 0.10906 2.6525 0.05382 0 0.39783-0.26966 0.76446-0.59924s0.94231-0.77306 1.2793-0.98552c0.90331-0.56952 2.5458-2.2254 2.9425-2.9665 0.23566-0.44022 0.44532-1.1944 0.65823-2.3677 0.17182-0.94694 0.34946-1.7817 0.39476-1.855 0.04532-0.0733 0.41373-0.30051 0.81873-0.50491 0.47924-0.24187 0.97565-0.64399 1.4216-1.1516 0.7928-0.90236 0.93684-1.1506 1.0587-1.8248 0.04897-0.27088 0.15666-0.6034 0.23932-0.73893 0.12293-0.20155 0.10994-0.27638-0.07133-0.41096-0.12189-0.0905-0.2426-0.35613-0.26824-0.5903-0.02567-0.23418-0.11192-0.44754-0.19174-0.47414-0.0798-0.0266-0.1451-0.15804-0.1451-0.2921 0-0.13405-0.11658-0.36026-0.25903-0.5027-0.14245-0.14243-0.22492-0.3141-0.18328-0.38149 0.04167-0.0674 0.01508-0.12252-0.05895-0.12252-0.07408 0-0.13467-0.084-0.13467-0.18676 0-0.11376 0.07456-0.15814 0.19076-0.11356 0.31692 0.1216 0.22654-0.40226-0.1269-0.73544-0.39161-0.36917-0.95372-1.4282-1.3401-2.5248-0.16015-0.45461-0.33573-0.87747-0.39013-0.9397-0.0548-0.0626-0.27702 0.0367-0.49795 0.22254-0.21945 0.18462-0.51165 0.33567-0.64937 0.33567-0.3067 0-0.86982-0.54051-0.88823-0.85258-0.03424-0.58001 0.05511-0.98305 0.26879-1.2124 0.12787-0.13722 0.32647-0.53683 0.44138-0.88803 0.2019-0.61719 0.20024-0.64775-0.05003-0.91409-0.22503-0.23951-0.27368-0.53186-0.37182-2.2351-0.13388-2.3235-0.09811-2.7115 0.30779-3.337 0.1692-0.26077 0.30766-0.52261 0.30766-0.58186 0-0.0592 0.14213-0.24123 0.31586-0.40441 0.31522-0.29608 0.31538-0.29748 0.07914-0.68977-0.43656-0.72491-0.55406-1.5755-0.32655-2.3641 0.11099-0.38467 0.25297-1.0161 0.31552-1.4032 0.06255-0.38709 0.20209-1.0429 0.31004-1.4573 0.10798-0.41443 0.19629-0.83855 0.19629-0.9425 0-0.31493 0.63564-1.1287 0.94157-1.2055 0.15777-0.0396 0.58656-0.41647 0.95282-0.8375 0.36626-0.42103 0.93406-0.91848 1.2618-1.1054 0.32769-0.18695 0.68921-0.41881 0.80333-0.51523 0.11414-0.0964 0.60063-0.23096 1.0811-0.29899 0.48046-0.068 1.2029-0.21749 1.6055-0.33214 0.6355-0.181 0.89495-0.18843 1.9696-0.0564 0.68075 0.0836 1.2957 0.21326 1.3667 0.28804 0.09065 0.0956 0.01561 0.11508-0.25262 0.0657-0.90654-0.167-2.0138-0.22886-2.6156-0.14611-0.6859 0.0943-0.70731 0.1386-0.42384 0.8772 0.13401 0.34914-0.18127 0.22038-0.36028-0.14714-0.16335-0.33537-0.20405-0.34801-0.99264-0.30823-0.75417 0.038-0.90887 0.0994-1.8673 0.7401-0.63267 0.42296-1.2232 0.94141-1.4967 1.3139-0.24844 0.33839-0.61817 0.67327-0.82158 0.74417-0.45466 0.15847-0.73149 0.56307-0.89085 1.302-0.06681 0.3099-0.17867 0.82097-0.24852 1.1357-0.06988 0.31473-0.19677 0.98971-0.28199 1.5-0.08525 0.51024-0.20254 0.9571-0.26067 0.99302-0.26022 0.16079-0.07914 0.31901 0.27586 0.24105 0.50533-0.11097 0.4984 0.12382-0.01138 0.38743-0.41817 0.21621-0.43132 0.38537-0.09588 1.2339 0.17896 0.45277 0.25601 0.44121 0.63812-0.0958 0.31144-0.43765 1.7699-1.6413 2.3945-1.9763 0.17486-0.0938 0.5755-0.21078 0.8903-0.26001 0.31478-0.0492 0.9353-0.15969 1.3789-0.24547 0.62082-0.12005 1.2213-0.12354 2.6073-0.0151 0.99042 0.0774 1.9347 0.17835 2.0984 0.22422 0.27403 0.0768 0.29419 0.0501 0.25437-0.33702-0.0571-0.55485 0.18788-0.62177 0.34332-0.0938 0.14094 0.47875 0.35796 0.54577 0.41717 0.12884 0.02222-0.15737 0.1292-0.28612 0.23741-0.28612 0.14007 0 0.17571 0.0806 0.12367 0.2795-0.08422 0.32202 0.10814 0.61003 0.40878 0.61202 0.11385 7.9e-4 0.77933 0.32071 1.4789 0.71103 0.6995 0.39032 1.4699 0.81811 1.7119 0.95066 0.47212 0.25853 2.5488 2.2297 2.5488 2.4193 0 0.22928 0.21738 0.10566 0.3584-0.20382 0.0797-0.17485 0.23196-0.31791 0.33838-0.31791 0.22971 0 0.23828 0.0602 0.0568 0.39927-0.11414 0.21324-0.0932 0.26677 0.12719 0.32438 0.32626 0.0853 0.34806 0.29367 0.0307 0.29367-0.34703 0-0.42328 0.13901-0.23853 0.43492 0.0908 0.14546 0.24144 0.57284 0.3347 0.94972 0.15142 0.612 0.1474 0.69762-0.0375 0.8011-0.11692 0.0654-0.20703 0.27612-0.20703 0.48408 0 0.2765 0.0871 0.40979 0.34975 0.53503 0.58121 0.27718 0.55539 0.93195-0.12687 3.2169-0.14618 0.48958-0.33888 0.99861-0.42823 1.1312-0.22232 0.32984-0.0882 0.91559 0.36039 1.5742 0.20365 0.29898 0.38084 0.69955 0.39378 0.89015 0.013 0.1906 0.10094 0.4073 0.19558 0.48157 0.10877 0.0854 0.17473 0.41521 0.17926 0.8965 6e-3 0.5984-0.0636 0.88265-0.32319 1.3274l-0.33036 0.56588 0.23167 0.9919c0.21238 0.90933 0.21079 1.2471-9e-3 1.9597-0.0427 0.13835 1.6976 1.4356 1.9259 1.4356 0.0517 0 0.17256-0.0951 0.26855-0.21142 0.1361-0.16483 0.13951-0.22322 0.0156-0.26493-0.17262-0.0581-0.22371-0.54096-0.0572-0.54096 0.056 0 0.16396 0.0622 0.24 0.13824 0.0996 0.0995 0.16899 0.0906 0.24802-0.0318 0.17098-0.26489 0.38749-1.9601 0.28395-2.2233-0.15652-0.39784-0.12035-1.4568 0.0863-2.5247 0.10824-0.55952 0.16232-1.2063 0.12015-1.4373-0.0827-0.45275-0.37299-0.65584-0.60537-0.42348-0.19563 0.19558-0.63624 0.18409-0.57121-0.0149 0.0286-0.0874 0.21937-0.21618 0.42397-0.28612 0.31316-0.10705 0.37391-0.1983 0.38409-0.57701 7e-3 -0.26198 0.15923-0.67211 0.36436-0.98203 0.40021-0.60464 0.67522-2.0808 0.53068-2.8483-0.0882-0.4684-0.74481-1.2514-1.0494-1.2514-0.0867 0-0.23913-0.0816-0.33886-0.18129-0.0997-0.0997-0.38875-0.26795-0.64225-0.37385-0.49297-0.20594-0.97395-0.85459-0.97472-1.3146 0-0.15407-0.0653-0.42229-0.14444-0.59605-0.12888-0.28281-0.0822-0.39803 0.44514-1.0995 0.32401-0.43095 0.58912-0.8648 0.58912-0.96411 0-0.37622-1.6626-3.0983-1.8944-3.1016-0.0423-5.3e-4 -0.27728-0.18892-0.5221-0.41848-0.24484-0.22956-0.67249-0.5239-0.95036-0.65409-0.52371-0.24538-1.7522-1.1576-1.8266-1.3563-0.0921-0.24623 0.35248-0.0917 0.88263 0.30668 0.30734 0.231 0.83783 0.58093 1.1788 0.77763 1.1177 0.64476 2.2876 1.9049 2.8361 3.0549 0.22042 0.46215 0.42309 0.59377 0.42309 0.27477 0-0.0978 0.1424-0.42681 0.31645-0.73119 0.17401-0.30439 0.31707-0.69649 0.31784-0.87134 3e-3 -0.32649-0.3597-2.184-0.44035-2.2646-0.0249-0.0247-0.16433 0.0189-0.31022 0.097-0.27331 0.14625-0.32697 0.0602-0.18807-0.30168 0.0425-0.11063 0.18553-0.20115 0.31795-0.20115 0.3388 0 0.31145-0.1254-0.31638-1.4508-0.70538-1.4891-1.1882-2.0524-1.8962-2.2122-0.2945-0.0665-0.6356-0.16257-0.75803-0.21356-0.17314-0.0721-0.22257-0.0298-0.22257 0.19079 0 0.22275 0.0366 0.25315 0.17069 0.14187 0.21196-0.1759 0.38214-0.0323 0.20894 0.17638-0.0698 0.0841-0.26961 0.12558-0.44402 0.0923-0.24239-0.0463-0.31724-0.13959-0.3174-0.3955-1.8e-4 -0.26123-0.13303-0.41847-0.60412-0.71498-0.33216-0.20906-0.7374-0.53765-0.90054-0.7302-0.47194-0.55698-1.5182-0.9342-3.4872-1.2573-0.54213-0.0889-0.98568-0.2078-0.98568-0.2641 0-0.16147 0.51729-0.12147 1.8001 0.13918 1.5899 0.32304 2.5817 0.7123 2.9346 1.1518 0.40265 0.50137 1.447 1.109 2.1933 1.2763 0.34499 0.0773 0.83601 0.25784 1.0911 0.4012 0.82905 0.46585 1.9252 2.6637 2.155 4.3207 0.0715 0.51575 0.1947 1.2328 0.27373 1.5935 0.14002 0.63887 0.13148 0.67761-0.33165 1.5056-0.33512 0.59915-0.4563 0.94968-0.41071 1.1881 0.0769 0.40208-0.13719 0.95504-0.66868 1.7274-0.37201 0.54062-0.38302 0.59356-0.25115 1.2083 0.15309 0.71369 0.31266 0.87461 1.6425 1.6563 1.2479 0.73351 1.3369 0.90314 1.3342 2.5424-3e-3 1.3234-0.0167 1.3954-0.41336 2.0332-0.45329 0.72908-0.4957 0.9974-0.23852 1.509 0.32678 0.65007 0.34229 1.1634 0.0688 2.2744-0.18621 0.75622-0.23865 1.2386-0.17497 1.6091 0.23889 1.3898-0.0185 3.2097-0.5367 3.7949-0.17201 0.19425-0.14158 0.23828 0.33109 0.47938 0.67033 0.34192 1.124 1.0363 1.2503 1.9134 0.0992 0.68904 0.10962 0.70265 0.92708 1.2069 0.45471 0.28049 1.0248 0.69596 1.2668 0.92327 0.24204 0.2273 0.48913 0.41328 0.54911 0.41328 0.22053 0 3.4709 3.4091 3.8283 4.0153 0.20307 0.34442 0.7983 1.4846 1.3227 2.5337s1.0321 1.9992 1.1281 2.1114c0.0961 0.11218 0.40706 0.65581 0.69115 1.208 0.82391 1.6017 0.88257 1.7035 1.727 2.9992 0.44169 0.67766 0.80306 1.2828 0.80306 1.3448 0 0.062 0.14309 0.24713 0.31798 0.4114 0.35435 0.33286 0.41685 0.53861 0.13015 0.42862-0.20302-0.0779-0.92438-1.001-1.5168-1.9411-0.20302-0.32215-0.6391-1.0149-0.96909-1.5395s-0.73208-1.2685-0.89353-1.6531-0.38711-0.84246-0.50144-1.0173c-0.11435-0.17486-0.42513-0.7471-0.69061-1.2716s-0.64826-1.1998-0.85061-1.5006-0.3679-0.60618-0.3679-0.67874c0-0.4307-1.0599-1.9368-2.0235-2.8755-0.59235-0.57701-1.0908-1.0491-1.1076-1.0491-0.0169 0-0.31956-0.30043-0.67278-0.66761-0.35319-0.36719-0.64175-0.61039-0.64117-0.54045 0 0.0699 0.31515 0.46392 0.69911 0.87552 0.38394 0.4116 0.88305 0.97443 1.1091 1.2507 0.22606 0.2763 0.53604 0.63944 0.68884 0.80696 0.53311 0.58444 0.90287 1.144 1.5068 2.2805 0.33452 0.62946 0.70372 1.2875 0.82042 1.4624 0.11671 0.17485 0.28874 0.5182 0.38227 0.76299 0.30435 0.79647 1.7544 3.7392 2.0753 4.2117 0.172 0.2532 0.47194 0.7396 0.66654 1.0809 0.19457 0.3413 0.49765 0.77731 0.67347 0.96891 0.33769 0.36799 0.28506 0.62593-0.0812 0.39818-0.11906-0.074-0.35348-0.32951-0.52094-0.56774-0.16743-0.23823-0.27008-0.33483-0.22812-0.21467 0.042 0.12015 0.0217 0.25228-0.0453 0.29362-0.0669 0.0413-0.12163 0.0254-0.12163-0.0355s-0.10017-0.22334-0.22259-0.36102c-0.25575-0.28763-0.6677-0.99573-0.6677-1.1477 0-0.0565 0.16936 0.0954 0.37637 0.33753 0.50948 0.59594 0.48074 0.40881-0.0941-0.61273-0.26445-0.46995-0.65019-1.1978-0.85723-1.6174-0.20703-0.41965-0.41822-0.79394-0.46934-0.83176-0.0511-0.0378-0.17404-0.29533-0.27318-0.57224-0.0991-0.27691-0.47149-1.0471-0.82741-1.7115-0.35594-0.66443-0.81785-1.5514-1.0265-1.971-0.37822-0.76086-1.3431-1.9728-3.1751-3.9883-0.92937-1.0224-2.2277-2.052-2.5877-2.052-0.18899 0-0.47757-0.24588-0.47757-0.40693 0-0.0559 0.0973-0.10173 0.21622-0.10173 0.16311 0 0.18026-0.036 0.0698-0.14644-0.11052-0.11047-0.22069-0.075-0.44863 0.14433l-0.30215 0.29076 1.2817 1.2996c0.7049 0.71475 1.4211 1.4939 1.5915 1.7313 0.3555 0.49542 0.81407 1.0253 1.2985 1.5005 0.18507 0.18154 0.82661 1.074 1.4256 1.9832 0.59902 0.90922 1.6088 2.397 2.2439 3.3063 1.2257 1.7546 2.1068 3.2427 1.9201 3.2427-0.11044 0-0.90236-1.1513-0.90236-1.3119 0-0.0823-0.9108-1.3834-1.8048-2.5784-0.26649-0.35616-0.4845-0.68773-0.4845-0.73682 0-0.16777-1.9684-2.9379-2.5428-3.5785-0.31531-0.35165-0.74496-0.8582-0.95483-1.1257-1.1349-1.4465-2.8866-3.258-3.1504-3.258-0.37468 0-0.69223 1.7401-0.7488 4.1033l-0.0297 1.2421 0.48842 0.53817c0.26863 0.296 0.63754 0.80652 0.81978 1.1345 0.18228 0.32798 0.7882 1.0924 1.3465 1.6986 0.55829 0.60625 1.098 1.2249 1.1994 1.3747 0.10137 0.14984 0.50875 0.64438 0.90528 1.099 0.39653 0.45461 0.99721 1.2271 1.3348 1.7167 0.33763 0.48958 0.72231 1.0332 0.85487 1.2081 0.4337 0.57211 1.8765 2.6775 1.8765 2.7383 0 0.21121-0.26725-0.0382-0.70337-0.65635-0.27768-0.39362-0.76647-1.066-1.0862-1.4942-0.31972-0.42818-0.87833-1.2155-1.2413-1.7495s-0.75203-1.0474-0.86445-1.1406c-0.11245-0.0933-0.56359-0.62914-1.0026-1.1908-0.43897-0.56162-1.1932-1.4244-1.676-1.9174-0.48282-0.49292-0.99994-1.151-1.1492-1.4624-0.28942-0.60387-0.84875-1.2656-1.0698-1.2656-0.0911 0-0.11538 0.76252-0.0759 2.3843 0.0605 2.4832 0.14814 2.9451 0.91673 4.8298 0.23 0.564 0.83929 1.0515 1.3141 1.0515 0.41761 0 0.43621-0.20386 0.0541-0.59334-0.79391-0.80921-1.9376-2.6384-1.9376-3.0989 0-0.41035 0.21989-0.28277 0.30628 0.1777 0.10676 0.569 1.7991 2.9316 2.6086 3.6417 0.33382 0.29284 2.2293 2.5367 2.2884 2.7089 0.0837 0.2441-0.90646-0.6807-1.4564-1.3602-0.86059-1.0634-1.2265-1.389-1.3472-1.1987-0.22354 0.35254-0.0902 0.80923 0.4798 1.6433 0.32459 0.47497 0.66799 0.89344 0.76311 0.92994 0.279 0.10705 0.19828 0.3501-0.10155 0.30572-0.24299-0.036-0.99668-0.94937-1.1592-1.4048-0.095-0.2662-0.23659-0.026-0.31078 0.52705-0.0464 0.34561-0.1334 0.51916-0.26032 0.51916-0.14979 0-0.17349-0.10224-0.11052-0.47686 0.0441-0.26228 0.11636-0.77472 0.16065-1.1388l0.0805-0.66191-0.52594-0.2104c-0.67271-0.26912-1.2344-0.98038-1.4612-1.8504-0.0982-0.37658-0.27827-0.91357-0.40024-1.1933-0.16997-0.38991-0.23667-0.99852-0.28572-2.6069-0.0387-1.2666-0.11735-2.1322-0.19857-2.1839-0.0934-0.0594-0.09-0.13939 0.0111-0.26106 0.0801-0.0965 0.17759-0.7732 0.21669-1.5039 0.0666-1.244 0.22165-3.4118 0.25422-3.5539 8e-3 -0.035 0.0571-0.27599 0.10906-0.53559 0.13943-0.69637 0.67117-1.8313 0.9499-2.0274 0.56539-0.39781 0.43149-1.4598-0.2822-2.2385-0.3342-0.36459-0.52298-0.46247-0.93001-0.48221-0.28091-0.0136-0.6182-0.11999-0.74954-0.23638s-0.41497-0.3494-0.63029-0.5178l-0.3915-0.30618-0.4726 0.63293c-0.25996 0.34812-0.51009 0.73119-0.55587 0.85128-0.0458 0.12008-0.31511 0.50825-0.59851 0.8626-0.28342 0.35435-0.77285 1.06-1.0876 1.5682-0.67977 1.0974-2.2747 3.5013-2.8411 4.2823-0.22117 0.30494-0.67673 0.99981-1.0124 1.5442-0.33562 0.54434-0.90138 1.4468-1.2572 2.0054-0.35584 0.55864-0.70212 1.1881-0.76957 1.3988-0.06744 0.21071-0.19841 0.55477-0.29102 0.7646-0.09263 0.20982-0.20987 0.55316-0.26056 0.76298-0.05067 0.20982-0.39518 1.0396-0.76555 1.8439-0.37039 0.80431-0.80118 1.863-0.95732 2.3525-0.15613 0.48959-0.38769 0.99188-0.51456 1.1162s-0.26786 0.38184-0.31335 0.57224c-0.04546 0.1904-0.13301 0.41046-0.19452 0.48902-0.06149 0.0786-0.07715 0.23318-0.03477 0.34361 0.11202 0.2919-0.05403 0.51388-0.25789 0.34472-0.11761-0.0976-0.20619-0.0824-0.32012 0.0549-0.12917 0.15563-0.09528 0.26369 0.18841 0.60077 0.40825 0.48512 0.20489 0.66227-0.25953 0.22605-0.273-0.25642-0.34319-0.26916-0.69043-0.12536-0.21259 0.088-0.38653 0.21036-0.38653 0.27182 0 0.146-0.39407 0.14014-0.63048-9e-3zm0.50329-0.51471c0-0.0699-0.05723-0.12716-0.12718-0.12716-0.06996 0-0.12718 0.0572-0.12718 0.12716 0 0.0699 0.05723 0.12717 0.12718 0.12717 0.06996 0 0.12718-0.0572 0.12718-0.12717zm1.0401-0.83316c0.17571-0.30207 0.20804-0.54167 0.14586-1.0809-0.06839-0.59289-0.15727-0.77075-0.61619-1.2332-0.29678-0.2991-0.65736-0.54045-0.8074-0.54045-0.23678 0-0.27109 0.0729-0.27109 0.57623 0 0.59262 0.29205 0.91882 0.50874 0.56825 0.05829-0.0943 0.19558-0.12814 0.32245-0.0795 0.20971 0.0805 0.20968 0.0972 0 0.32933-0.12176 0.13452-0.3397 0.26208-0.48429 0.28347-0.30848 0.0456-0.45871 0.35681-0.17224 0.35681 0.37148 0 0.84328 0.29601 0.84328 0.52906 0 0.29052-0.11536 0.2987-0.31734 0.0225-0.20389-0.27879-0.59888-0.13716-0.48747 0.17481 0.24538 0.68711 0.96171 0.73729 1.3361 0.0936zm1.2062-1.8754c0.09366-0.0559 0.17063-0.19899 0.17105-0.31791 0-0.11893 0.08628-0.38013 0.19076-0.58046 0.24215-0.46422 0.24418-0.72946 5e-3 -0.63765-0.25482 0.0978-0.83238-0.50892-0.83238-0.87436 0-0.35598 0.21908-0.60345 0.53419-0.60345 0.30332 0 0.29173 0.21176-0.02064 0.37895-0.29877 0.15987-0.21672 0.46714 0.15632 0.58552 0.35925 0.11401 0.60206-0.24227 0.60206-0.88339 0-0.57827-0.28416-0.97123-0.70231-0.97123-0.39809 0-1.0008 0.928-0.90702 1.3966 0.03813 0.19063 0.0056 0.4103-0.07226 0.48817-0.14015 0.14012-0.05355 0.74214 0.30416 2.1143 0.11689 0.44843 0.14528 0.47559 0.26593 0.25433 0.07427-0.13624 0.21167-0.29347 0.3053-0.3494zm-1.2285-1.5502c-0.08041-0.38723-0.18489-0.6794-0.2322-0.64928-0.04731 0.0301-0.19809 0.26516-0.33507 0.5223-0.21312 0.40014-0.22228 0.4829-0.06358 0.57407 0.102 0.0586 0.2999 0.19227 0.43982 0.29709 0.33213 0.24882 0.36812 0.10869 0.19103-0.74418zm-0.98803-0.28733c0.108-0.1224 0.23588-0.40845 0.28416-0.63567 0.09676-0.4552-0.26178-1.1636-1.0371-2.0489-0.47104-0.53791-0.71969-0.44189-0.65334 0.25229 0.03665 0.38327 0.0821 0.42945 0.42262 0.42945 0.32221 0 0.38156 0.0495 0.38156 0.31791 0 0.25676-0.05667 0.3118-0.29461 0.28612-0.25167-0.0272-0.28874 0.0186-0.25437 0.31397 0.03363 0.28884 0.10268 0.34641 0.41947 0.3497 0.25781 3e-3 0.39314 0.0752 0.42267 0.22648 0.03016 0.15435-0.03733 0.22254-0.22024 0.22254-0.2527 0-0.35663 0.24618-0.17888 0.42388 0.15592 0.15591 0.50967 0.0871 0.70802-0.13776zm3.8022-1.9075c0.21302-0.47209 0.52316-1.2168 0.68919-1.6549 0.28064-0.74055 0.28493-0.7875 0.06091-0.66762-0.37399 0.20012-0.49027 0.15848-0.70231-0.25144-0.30496-0.58964-0.0386-1.3999 0.46016-1.3999 0.31671 0 0.30403 0.21048-0.02328 0.38558-0.32377 0.17325-0.29766 0.7986 0.03604 0.86186 0.3274 0.0621 0.73814-0.68335 0.64659-1.1734-0.087-0.46564-0.50517-0.96414-0.80878-0.96414-0.28723 0-0.52528 0.30042-0.43154 0.54463 0.04823 0.12567-0.0172 0.22458-0.18301 0.27724-0.1419 0.045-0.40357 0.25487-0.58153 0.46632-0.28641 0.34032-0.32356 0.49891-0.32356 1.3816 0 0.54843 0.03474 1.0877 0.07721 1.1983 0.1229 0.32024 0.66961 0.24889 0.83254-0.10865 0.20794-0.4563 0.05731-0.70751-0.42426-0.70751-0.38153 0-0.39709-0.0157-0.20553-0.20724 0.51406-0.51398 1.3314 0.33963 1.0069 1.0516-0.08128 0.17835-0.31935 0.38903-0.52909 0.46818-0.27075 0.10218-0.35653 0.20006-0.2958 0.33761 0.04704 0.10653 0.11168 0.37967 0.14364 0.60698 0.03199 0.2273 0.08289 0.41328 0.11314 0.41328 0.03024 0 0.22929-0.38626 0.44228-0.85836zm-2.4329-0.24063c0-0.29796 0.08107-0.85293 0.18016-1.2333 0.1765-0.67746 1.2425-2.836 1.758-3.5599 0.23889-0.33543 0.25217-0.46805 0.1596-1.5922-0.05554-0.67447-0.10231-1.4146-0.10393-1.6448-0.0026-0.3069-0.05067-0.40012-0.18206-0.3497-0.09853 0.0378-0.30562 0.0687-0.46019 0.0687-0.27355 0-0.28096 0.0383-0.27707 1.4306 0.0045 1.5839-0.12893 2.6387-0.33361 2.6387-0.08845 0-0.10104-0.20484-0.03709-0.60403 0.05318-0.33222 0.11033-1.2478 0.12697-2.0346l0.03024-1.4306h-1.0997l0.04969 0.60403c0.24495 2.978 0.41823 5.8057 0.35986 5.8729-0.17251 0.19845-0.27932-0.49533-0.42942-2.7891-0.0938-1.4338-0.17386-2.874-0.17788-3.2005-0.0071-0.57995-0.01773-0.59511-0.45315-0.65737-0.24522-0.035-0.61232-0.10536-0.81584-0.15624l-0.36999-0.0925 0.10306 1.0042c0.05667 0.55232 0.11843 1.937 0.13724 3.0771 0.01879 1.1401 0.09094 2.1415 0.16028 2.2254 0.06937 0.0838 0.34115 0.81053 0.60402 1.6148 0.26284 0.80431 0.53676 1.5391 0.6087 1.6328 0.20704 0.26976 0.46215-0.18532 0.46215-0.82435zm-0.76613-0.45877c-0.0026-0.0175-0.02966-0.46097-0.0622-0.98552-0.16184-2.6097-0.32774-4.5891-0.44228-5.2773-0.17439-1.0481-0.16484-1.4956 0.03056-1.431 0.17346 0.0574 0.25805 0.69402 0.46048 3.4656 0.28109 3.8487 0.29599 4.26 0.15444 4.26-0.07588 0-0.13933-0.0143-0.141-0.0318zm1.8325-0.12716c-0.05247-0.15737-0.13277-0.51502-0.17846-0.79478-0.08792-0.53841-0.14589-0.4789-0.37155 0.38149-0.18349 0.69964-0.18357 0.69941 0.2553 0.69941 0.34806 0 0.37984-0.0309 0.29472-0.28612zm-2.5039-0.19075c-0.03863-0.19234-0.13258-0.51329-0.20878-0.71322-0.11523-0.30233-0.17031-0.33717-0.32721-0.20697-0.27728 0.23007-0.23193 0.48391 0.16068 0.89982 0.43095 0.45654 0.46326 0.45829 0.37531 0.0204zm-0.9833-0.97758c0.13986-0.26126 0.13213-0.41326-0.04919-0.96746-0.30292-0.926-0.77634-1.6273-1.1642-1.7246-0.37809-0.0949-0.512 7e-3 -0.62873 0.48031-0.06855 0.27764-0.02117 0.38053 0.26077 0.56518 0.32414 0.21234 0.35401 0.21287 0.50321 9e-3 0.14065-0.1923 0.17669-0.19511 0.31811-0.0247 0.1992 0.23996-0.03114 0.57365-0.39595 0.57365-0.13134 0-0.23879 0.0572-0.23879 0.12716 0 0.07 0.10978 0.12717 0.24397 0.12717 0.33229 0 0.64632 0.13018 0.64632 0.26793 0 0.0625-0.08247 0.11356-0.18328 0.11356-0.27091 0-0.35563 0.21469-0.19968 0.50603 0.19219 0.35906 0.68254 0.32977 0.88744-0.053zm0.31546-3.8864c-0.09546-1.0141-0.1759-2.1423-0.17878-2.507-0.0045-0.55652-0.05125-0.68676-0.29141-0.81004-0.1574-0.0808-0.47218-0.32292-0.69953-0.53807-0.28115-0.26608-0.41891-0.33237-0.43074-0.20728-0.11687 1.2362-0.05715 1.7442 0.29078 2.4728l0.3643 0.76299-0.08004-1.3034c-0.05027-0.81892-0.03379-1.3034 0.04434-1.3034 0.13867 0 0.28602 1.2914 0.28742 2.5188 0 0.77728 0.19693 1.8632 0.38328 2.1227 0.05022 0.0699 0.13097 0.29281 0.17947 0.49526 0.04995 0.2086 0.13502 0.3188 0.1963 0.25433 0.05956-0.0626 0.03016-0.94242-0.06538-1.9576zm6.6028 1.3731c0.17531-0.22399 0.29665-0.44302 0.26964-0.48675-0.02704-0.0437-0.30551-0.02-0.61883 0.0526l-0.56967 0.13215 0.2095 0.35459c0.11523 0.19503 0.25027 0.3546 0.30006 0.3546 0.04979 0 0.234-0.18326 0.40931-0.40724zm-8.9489-0.21301c0-0.16261-0.37399-0.44703-0.46635-0.35467-0.09237 0.0924 0.19209 0.46626 0.35473 0.46626 0.06138 0 0.11163-0.0502 0.11163-0.11159zm1.5245-0.23811c-0.0045-0.24317-0.16505-0.66761-0.25262-0.66761-0.16595 0-0.23273 0.47945-0.08705 0.6251 0.15902 0.15897 0.34221 0.1819 0.33967 0.0425zm-0.88855-0.54044c0.40836-0.40831 0.31914-0.94238-0.33195-1.9868-0.85376-1.3696-1.7176-1.8758-1.9079-1.1179-0.10943 0.436 0.22423 0.80923 0.51086 0.57139 0.21333-0.17702 0.4571-0.0849 0.4571 0.17276 0 0.2757-0.38156 0.50724-0.7852 0.47649-0.33634-0.0256-0.36851 2e-3 -0.28975 0.25026 0.04874 0.15349 0.19606 0.39441 0.3274 0.53537l0.23881 0.25629v-0.27383c0-0.15118 0.12414-0.34025 0.27715-0.42213 0.49948-0.26727 1.4582 0.46112 1.1862 0.9012-0.11324 0.1832-0.31866 0.15861-0.31866-0.0381 0-0.0915-0.08236-0.27752-0.18301-0.41328-0.17468-0.23562-0.19333-0.23668-0.40989-0.0232-0.21772 0.21458-0.21754 0.241 0.0048 0.65379 0.2028 0.37652 0.57568 0.67659 0.87424 0.70353 0.05247 5e-3 0.20987-0.10584 0.34978-0.24572zm7.0554 0.0318c-0.05181-0.1224-0.09012-0.32268-0.08512-0.44508 5e-3 -0.12239-0.02408-0.22253-0.06437-0.22253-0.08271 0-0.35825 0.33245-0.5533 0.66761-0.11343 0.19491-0.07199 0.22253 0.33372 0.22253 0.39227 0 0.44881-0.0341 0.36907-0.22253zm1.3717-0.0138c0.16542-0.16539 0.17309-0.81137 0.01032-0.86924-0.08115-0.0289-0.28866 0.0997-0.46114 0.28567-0.35203 0.37958-0.53663 0.26361-0.30565-0.19202 0.34721-0.68497 1.1496-0.67795 1.3283 0.0116l0.10245 0.39527 0.34594-0.49909c0.43283-0.6245 0.43117-0.67616-0.022-0.67616-0.29001 0-0.38531-0.0699-0.45079-0.33072-0.11904-0.47426 0.146-1.1952 0.43936-1.1952 0.34978 0 0.42455 0.22111 0.1284 0.37958-0.32493 0.17386-0.34602 0.63773-0.029 0.63773 0.32914 0 0.53416-0.2519 0.53416-0.6563 0-0.35802-0.42251-0.86967-0.71815-0.86967-0.23812 0-1.1896 0.94472-1.1896 1.1812 0 0.11177-0.11253 0.28203-0.25008 0.37835-0.55367 0.38775-0.77772 1.2414-0.51035 1.9446 0.11448 0.30103 0.17814 0.3319 0.53658 0.26022 0.22368-0.0447 0.45368-0.1283 0.51112-0.18573zm-1.7644-1.0144c0.3152-0.45475 0.33237-0.54946 0.25342-1.3988-0.08583-0.92334-0.12377-0.97255-0.64233-0.83349-0.21119 0.0566-0.26633 0.15348-0.23434 0.41155 0.02302 0.18562 0.08313 0.78097 0.13361 1.323 0.05051 0.54204 0.10525 0.98552 0.12168 0.98552 0.0164 0 0.18201-0.2195 0.36796-0.48778zm1.1563-1.973c0.20825-0.38659 0.34843-0.73312 0.31149-0.77007-0.03696-0.0369-0.2789-2e-3 -0.53769 0.0772-0.45463 0.13951-0.47046 0.16432-0.47046 0.73766 0 0.98653 0.14608 0.97714 0.69665-0.0448zm-10.453-0.0259c0.06495-0.3423 0.02932-0.40522-0.29969-0.5294-0.22119-0.0835-0.37343-0.23355-0.37343-0.36815 0-0.16958-0.03664-0.19059-0.14444-0.0828-0.10782 0.10779-0.09168 0.19719 0.06358 0.35243 0.11443 0.1144 0.20804 0.27701 0.20804 0.36137 0 0.15966 0.38317 0.76515 0.43987 0.69504 0.01773-0.022 0.06551-0.21483 0.10607-0.42849zm13.459 0.0388c0.0828-0.15737 0.28749-0.45067 0.45484-0.65179 0.37807-0.45429 0.31015-0.5416-0.21151-0.2719-0.58123 0.30053-1.0326 0.20619-1.3371-0.27947-0.14084-0.22461-0.29065-0.41059-0.3329-0.41328-0.04225-3e-3 -0.22826 0.13542-0.41336 0.30694-0.38658 0.35821-0.45246 0.65424-0.11396 0.51197 0.70728-0.29724 1.0938-0.1053 1.4618 0.72604 0.19146 0.43241 0.29443 0.44737 0.49221 0.0715zm-11.025-1.2081c-0.0085-0.83281-0.22664-1.5577-0.46871-1.5577-0.06964 0-0.08215 0.27592-0.03024 0.66761 0.06707 0.50602 0.05265 0.63338-0.05956 0.52619-0.08141-0.0778-0.16759-0.54338-0.1915-1.0346-0.06982-1.4345-0.57666-1.9851-0.57666-0.62654 0 0.47423 0.09157 0.82386 0.32276 1.2323 0.17751 0.31365 0.43773 0.81347 0.57827 1.1107 0.14055 0.29725 0.2958 0.54042 0.34499 0.54039 0.04919-3e-5 0.08549-0.38629 0.08065-0.85835zm4.6511 0.27732c0-0.39743-0.03543-0.44886-0.28485-0.41328-0.48845 0.0697-0.46408 0.8672 0.02648 0.8672 0.21146 0 0.25836-0.0824 0.25836-0.45392zm0.8903 0.27358c0-0.31077-0.1478-0.58264-0.31673-0.58264-0.17314 0-0.35052 0.48227-0.24196 0.65789 0.10946 0.17706 0.55869 0.11655 0.55869-0.0753zm-6.485-0.45343c-0.22418-0.31478-0.31655-0.3643-0.45902-0.24607-0.29067 0.24118-0.20556 0.45339 0.23498 0.58586 0.22736 0.0684 0.43392 0.10855 0.45903 0.0893 0.02513-0.0192-0.08062-0.21234-0.23498-0.42909zm4.7044 0.32626c0-0.35232-0.15777-0.58263-0.39915-0.58263-0.27321 0-0.42958 0.28141-0.31798 0.57223 0.09422 0.24548 0.71713 0.25451 0.71713 0.0104zm2.5466-0.14521c0.1256-0.33028 0.37867-0.32015 0.37867 0.0152 0 0.10078 0.05723 0.18324 0.12718 0.18324 0.15394 0 0.16425-0.38047 0.01667-0.61328-0.0748-0.11794-0.24564-0.14213-0.57179-0.081-0.5339 0.10015-0.63831 0.21303-0.52554 0.56821 0.11266 0.35496 0.42744 0.31533 0.57486-0.0724zm-3.587-0.27977c0.03053-0.21402-0.02302-0.28482-0.21508-0.28482-0.30443 0-0.44892 0.19235-0.34597 0.46056 0.1088 0.28347 0.51361 0.15666 0.56105-0.17574zm-4.7809 0.0649c0.50096-0.38844 0.48239-1.7769-0.02593-1.9382-0.3356-0.1065-0.75226 0.136-0.89966 0.52362-0.18481 0.486-0.14632 0.6834 0.13327 0.6834 0.28464 0 0.32636 0.13148 0.1103 0.34751-0.37407 0.374 0.24522 0.72238 0.68199 0.38368zm10.031 0.0144c0.58782-0.1965 0.67003-0.29323 0.50736-0.5971-0.18611-0.3477 0.05345-0.49866 0.35634-0.22457 0.3275 0.29633 0.39873 0.25199 0.30975-0.19283-0.07173-0.35864-0.05406-0.38804 0.18735-0.31144 0.21077 0.0669 0.30859 3e-3 0.46723-0.30337 0.25815-0.49913 0.0409-0.52183-0.57608-0.0602-0.24093 0.18027-0.65794 0.44161-0.92665 0.58076-0.41076 0.21269-0.47654 0.30104-0.41288 0.55459 0.09316 0.3712-0.12972 0.54748-0.24262 0.19186-0.09141-0.28801-0.20323-0.32061-0.40558-0.11829-0.17182 0.17179-0.06559 0.6251 0.14647 0.6251 0.08633 0 0.35152-0.065 0.58931-0.14452zm-6.1177-0.36414c0-0.43951-0.31697-0.53095-0.44479-0.1283-0.09612 0.30283 0.01005 0.50979 0.26151 0.50979 0.11885 0 0.18328-0.1341 0.18328-0.38149zm9.2967 0.16333c0.41461-0.24487 0.48694-0.66344 0.16952-0.98081-0.26667-0.26663-0.4024-0.25183-0.49964 0.0545-0.0895 0.28197-0.2695 0.3361-0.34679 0.10428-0.0799-0.23969-0.47992-0.012-0.47992 0.27322 0 0.27504 0.41568 0.76697 0.64809 0.76697 0.0767 0 0.3056-0.0982 0.50874-0.21816zm1.2589-0.69107c0.21029-0.29025 0.38235-0.56357 0.38235-0.60738 0-0.0438-0.22627-0.0581-0.50281-0.0317-0.45593 0.0435-0.52708 8e-3 -0.76264-0.37814-0.3298-0.54086-0.33044-0.53486 0.10454-1.0216 0.35991-0.40274 0.37023-0.40554 0.6995-0.18982 0.18384 0.12042 0.33422 0.27148 0.33422 0.33568 0 0.21171-0.28067 0.2949-0.39213 0.11624-0.0835-0.13378-0.16288-0.14194-0.33555-0.0344-0.32811 0.20422-0.34576 0.51971-0.0383 0.68423 0.54784 0.29316 1.2622-0.23365 1.366-1.0073 0.0834-0.62148-0.084-0.86182-0.67744-0.97314-0.35123-0.0659-0.51924-0.0158-0.88667 0.26442-0.24932 0.19013-0.48837 0.43979-0.53123 0.55478-0.0429 0.115-0.25239 0.39585-0.46564 0.62412-0.4264 0.45645-0.62839 0.877-0.46866 0.97571 0.0566 0.035 0.28774-6e-3 0.51358-0.0913 0.38839-0.14656 0.43069-0.13247 0.78174 0.26034 0.20413 0.22841 0.37113 0.55745 0.37113 0.7312 0 0.17374 0.0283 0.3159 0.0628 0.3159s0.23484-0.23748 0.44513-0.52774zm-6.1438 0.20554c1.3187-0.29687 3.1228-1.3235 3.2891-1.8716 0.04768-0.15722 0.19167-0.40087 0.31996-0.54146 0.1283-0.14059 0.38156-0.59838 0.5628-1.0173 0.44053-1.0183 0.7063-1.5554 1.0569-2.1361 0.29152-0.48273 0.28861-0.83333-0.0101-1.2061-0.13433-0.16769-0.15111-3.6422-0.0185-3.8566 0.0381-0.0616 0.127-0.11196 0.19762-0.11196 0.0831 0 0.0971 0.35877 0.0397 1.0173-0.0743 0.8517-0.0582 1.0173 0.0988 1.0173 0.1031 0 0.28958-0.1128 0.41439-0.25067 0.20013-0.22113 0.20846-0.31478 0.0706-0.79477-0.086-0.29926-0.22082-0.78731-0.2997-1.0846-0.0789-0.29724-0.1733-0.54039-0.20986-0.54031-0.0366 7e-5 -0.3569 0.27188-0.71187 0.60403-1.6899 1.5812-2.47 2.0897-3.8697 2.5224-0.67162 0.20762-1.0175 0.22742-1.0175 0.0583 0-0.0668 0.21463-0.15756 0.47696-0.20175 0.78282-0.13188 2.4954-1.047 3.2271-1.7244 1.5496-1.4346 2.6552-2.6049 2.6552-2.8104 0-0.12026 0.10745-0.32103 0.23876-0.44614 0.40259-0.38357 0.89898-1.5576 1.3329-3.1523 0.0381-0.13988 0.18484-0.65489 0.32618-1.1445 0.34096-1.1811 0.32983-1.4735-0.10176-2.6715-0.7556-2.0974-1.1093-2.6733-2.5074-4.0831-0.72015-0.72616-1.3478-1.3203-1.3948-1.3203-0.047 0-0.29343-0.21972-0.54766-0.48827-0.6099-0.64426-1.2706-0.86707-3.2596-1.0992-3.2134-0.37499-4.3248-0.2298-5.9977 0.78356-1.4857 0.89999-2.0958 1.5657-2.4265 2.6478-0.43535 1.4245-0.82182 3.3-0.77608 3.7663 0.03088 0.31467-5e-3 0.42009-0.13396 0.39265-0.13928-0.0297-0.15714 0.0768-0.08538 0.50865 0.04993 0.30039 0.11917 1.004 0.15386 1.5635 0.03469 0.55952 0.1197 1.2462 0.18886 1.526 0.06919 0.27976 0.17544 0.73755 0.23614 1.0173 0.06069 0.27976 0.26297 0.85199 0.44953 1.2716 0.18653 0.41964 0.45368 1.0205 0.59364 1.3352 0.13999 0.31473 0.46863 0.85835 0.7303 1.2081 0.2617 0.3497 0.55652 0.79009 0.65514 0.97865 0.2309 0.44142 1.8632 1.8161 2.2779 1.9183 0.17489 0.0431 0.8903 0.0909 1.5898 0.1062 0.6995 0.0153 1.4149 0.0655 1.5898 0.11147 0.29189 0.0768 0.27945 0.0899-0.1515 0.16024-0.25821 0.0421-1.1265 0.0664-1.9295 0.054-1.3536-0.0209-1.4839-0.045-1.7876-0.33039-0.18013-0.1693-0.35129-0.28375-0.38028-0.25433-0.02902 0.0294-0.14425 0.49715-0.25606 1.0394-0.28215 1.3683-0.52821 1.9486-1.1914 2.81-0.34205 0.44429-0.51943 0.77728-0.44027 0.82656 0.07289 0.0454 0.19584 0.31143 0.27321 0.59119 0.07736 0.27976 0.31422 0.76348 0.52639 1.0749 1.1647 1.7099 1.8168 2.168 3.2099 2.2552 0.50334 0.0315 0.93985 0.082 0.97002 0.11211 0.11269 0.11267 0.9149 0.0485 1.7533-0.14023zm-5.8108-4.3268c0-0.10904 0.05723-0.16289 0.12718-0.11966 0.06996 0.0432 0.12718 0.13244 0.12718 0.19825 0 0.0658-0.05723 0.11966-0.12718 0.11966-0.06996 0-0.12718-0.0892-0.12718-0.19825zm3.0287-7.3746c-0.32917-0.10338-0.71361-0.33657-0.85852-0.52076-0.27231-0.34612-0.35748-0.93508-0.13523-0.93508 0.06996 0 0.12718 0.0814 0.12718 0.18096 0 0.0995 0.17275 0.35369 0.38391 0.5648 0.59288 0.59278 1.6243 0.66682 2.8275 0.20298 0.36346-0.14011 0.25559 0.1723-0.12718 0.36831-0.56049 0.28701-1.5488 0.34886-2.2177 0.13879zm3.0524-1.1429c-0.2486-0.13495-0.62989-0.17103-1.399-0.13239-0.86556 0.0435-1.1265 0.0109-1.4389-0.17987-0.20987-0.12815-0.72496-0.29542-1.1447-0.37172-0.68733-0.12493-1.0811-0.36917-1.0811-0.67061 0-0.17174 0.26003-0.11536 0.47937 0.10393 0.16446 0.16444 0.36708 0.19183 0.98944 0.13372 0.58293-0.0544 0.85198-0.0245 1.0543 0.11719 0.18489 0.12948 0.41288 0.16377 0.71377 0.10734 0.32496-0.061 0.55282-0.0164 0.86013 0.16834 0.22992 0.13819 0.58941 0.29183 0.79888 0.3414 0.41254 0.0976 0.70025 0.28942 0.70025 0.46676 0 0.15388-0.13274 0.13292-0.5325-0.0841zm-1.2163-0.52435c-0.08744-0.0353-0.23053-0.0353-0.31795 0-0.08745 0.0353-0.01588 0.0641 0.15896 0.0641 0.17489 0 0.24643-0.0289 0.15899-0.0641zm0.47736-1.7124c-0.25842-0.21645-0.42855-0.25282-0.91379-0.19536-0.4736 0.0561-0.66204 0.0189-0.91596-0.18082-0.22069-0.17356-0.41981-0.2263-0.64304-0.17028-0.23609 0.0592-0.34536 0.0237-0.405-0.13164-0.16748-0.43637 0.15798-0.49086 0.9008-0.15084 0.45241 0.20708 0.8432 0.30377 1.0603 0.26235 0.21071-0.0402 0.53901 0.0354 0.84775 0.1951 0.2771 0.14338 0.58235 0.26068 0.67831 0.26068 0.22503 0 0.12586 0.30857-0.11163 0.34735-0.09914 0.0162-0.32314-0.0903-0.49779-0.23654zm0.8899-0.43622c0-0.18456 0.05503-0.2914 0.12718-0.24683 0.06993 0.0432 0.12719 0.18967 0.12719 0.32542s-0.05726 0.24682-0.12719 0.24682c-0.06996 0-0.12718-0.14643-0.12718-0.32541zm-0.44032-1.3688c-0.10086-0.2275-0.0026-1.7213 0.12263-1.8455 0.17039-0.17035 0.20095 0.17479 0.09575 1.081-0.07956 0.68558-0.14766 0.92398-0.21839 0.76448zm-1.9762-0.12852c0-0.0933 0.0408-0.21033 0.09065-0.26018 0.15785-0.15782 0.54507-1.2752 0.54517-1.5731 7.9e-5 -0.15737 0.06488-0.28612 0.14404-0.28612 0.20913 0 0.07064 0.83063-0.2708 1.6242-0.27191 0.63199-0.50906 0.86267-0.50906 0.4952zm4.7059-1.9922c-0.10493-0.0678-0.43402-0.12414-0.73134-0.12522-0.71779-3e-3 -0.68636-0.18944 0.06361-0.37789 0.33226-0.0835 0.70051-0.23879 0.81828-0.3451 0.56303-0.50815 2.4591-0.74577 2.9701-0.37221 0.347 0.25367 0.12486 0.80473-0.44775 1.1108-0.48972 0.26171-2.3213 0.33687-2.6729 0.10967zm0.63593-0.52423c0-0.22549-0.0314-0.24385-0.19079-0.11159-0.10491 0.0871-0.19076 0.20852-0.19076 0.2699 0 0.0614 0.08586 0.11159 0.19076 0.11159 0.10967 0 0.19079-0.11476 0.19079-0.2699zm1.8568 0.0647c0.62936-0.2986 0.56441-0.55775-0.13976-0.55775-0.3148 0-0.57311 0.0429-0.57409 0.0954 0 0.0525-0.0362 0.22413-0.0784 0.38149-0.0945 0.35278 0.16364 0.37914 0.79227 0.0809zm-8.4704-0.22929c-0.37129-0.0998-0.70636-0.11427-0.9539-0.0412-0.88868 0.26254-2.1558-0.73811-2.4061-1.9001-0.06469-0.30029-0.02302-0.38323 0.25776-0.51251 0.51147-0.23555 1.0729 0.0674 2.1316 1.1503 0.70922 0.7254 1.0239 0.9567 1.3964 1.0266 0.27093 0.0508 0.45998 0.15295 0.43299 0.23391-0.06937 0.20804-0.21728 0.21545-0.85873 0.043zm-0.76311-0.58082c0-0.17303-0.36592-0.40814-0.50318-0.32332-0.1832 0.1132-0.16677 0.41545 0.02619 0.48277 0.19497 0.068 0.47694-0.0263 0.47694-0.15945zm-1.4398-0.88724c0.16161-0.4281 0.07117-0.5528-0.49977-0.68917-0.42188-0.10076-0.46564 0.131-0.13155 0.69646 0.27726 0.46931 0.45215 0.46729 0.63132-7e-3zm7.4152-0.19845c-0.13507-0.16272-0.08181-0.2632 0.3342-0.63038 0.66455-0.58659 1.5539-0.88174 2.342-0.77722 0.81801 0.1085 1.4181 0.32708 1.3618 0.49601-0.0763 0.22886-0.70459 0.32923-1.108 0.177-0.49837-0.18808-1.3599 0.0369-2.1054 0.54975-0.64074 0.44076-0.61661 0.43536-0.82457 0.18484zm-5.3395-1.3332c-1.0504-0.80583-1.8143-1.172-2.2282-1.0682-0.26114 0.0655-0.31549 0.033-0.31549-0.18894 0-0.22791 0.07609-0.26812 0.50736-0.26812 0.72139 0 1.6504 0.38823 2.5538 1.0672 0.42878 0.32226 0.86397 0.58593 0.96708 0.58593 0.37431 0 0.11538 0.44409-0.27734 0.47568-0.28826 0.0232-0.58095-0.12315-1.2072-0.6036zm-1.9585 22.065c0.03577-0.24372-0.12679-0.24714-0.32626-7e-3 -0.19114 0.23028-0.04278 0.53966 0.16108 0.33584 0.07533-0.0753 0.14968-0.22337 0.16518-0.32899zm-0.54401-0.37035c0.07951-0.20716-0.02733-0.35395-0.18616-0.2558-0.14446 0.0893-0.14118 0.43411 0.0042 0.43411 0.06247 0 0.14438-0.0802 0.18203-0.17831zm20.69-0.0124c-0.41616-0.23785-0.64164-0.23505-0.32546 4e-3 0.13578 0.10269 0.3361 0.18468 0.44516 0.1822 0.12708-3e-3 0.0841-0.0697-0.1197-0.18624zm-20.986-0.8577c0-0.0709-0.08438-0.0572-0.19079 0.0311-0.10493 0.0871-0.19076 0.21553-0.19076 0.28547 0 0.0709 0.08435 0.0572 0.19076-0.0311 0.10493-0.0871 0.19079-0.21553 0.19079-0.28547zm-1.5618-0.0554c-0.03585-0.18747-0.0032-0.44033 0.07292-0.56191 0.10147-0.16246 0.09655-0.27111-0.01852-0.40981-0.13838-0.16672-0.21495-0.16586-0.65606 7e-3 -0.38084 0.14958-0.53353 0.2996-0.64326 0.63201-0.16661 0.50475-0.11448 0.60222 0.25876 0.48378 0.18936-0.0601 0.24728-0.15469 0.19518-0.31882-0.1366-0.43031 0.14626-0.37618 0.3584 0.0686 0.25146 0.52724 0.52657 0.59005 0.43265 0.0988zm1.1802-0.35856c0-0.10491-0.05387-0.19074-0.1197-0.19074-0.16036 0-0.27525 0.19858-0.17362 0.30017 0.14322 0.14321 0.29332 0.0872 0.29332-0.10943zm14.512-0.66761c0.15854-0.26227 0.42384-0.64853 0.5895-0.85835 0.68945-0.87315 1.1436-1.6936 1.0316-1.8635-0.0914-0.13869-0.14515-0.12894-0.28339 0.0514-0.22109 0.28842-0.46051 0.28511-0.46051-6e-3 0-0.12589-0.0687-0.29757-0.15264-0.3815-0.21664-0.21661-0.48993-0.19068-0.40211 0.0381 0.0403 0.10491 0.0378 0.28303-6e-3 0.39582-0.0626 0.16315-0.11626 0.17391-0.26241 0.0526-0.21177-0.17571-0.44921-0.0727-0.44921 0.19488 0 0.24129-0.24217 0.23587-0.33557-8e-3 -0.0953-0.2482-0.28771-0.24163-0.57653 0.0197-0.28033 0.25365-0.29607 0.66309-0.0483 1.256 0.16153 0.38653 0.2404 0.44099 0.63866 0.44099 0.36253 0 0.48394-0.0649 0.60081-0.32136 0.10533-0.23116 0.10769-0.36011 8e-3 -0.45942-0.1668-0.16679-0.41463-0.0377-0.41463 0.21605 0 0.10078-0.0858 0.18324-0.19077 0.18324-0.23457 0-0.24873-0.38079-0.0254-0.68601 0.10946-0.14966 0.29062-0.21154 0.5365-0.18326 0.73337 0.0844 0.73512 1.395 3e-3 1.579-0.25199 0.0632-0.32232 0.1611-0.32232 0.44858 0 0.499 0.17661 0.46206 0.52192-0.10916zm-2.1282-0.78937c0.3233-0.12215 0.35608-0.18316 0.28615-0.53265-0.0434-0.21708-0.079-0.48224-0.079-0.58925 0-0.3077-0.47339 0.17718-0.90384 0.92575-0.47393 0.82416-0.48173 1.1098-0.0183 0.6677 0.19238-0.18348 0.51409-0.39568 0.7149-0.47155zm-0.11075-1.5314c0.0432-0.0699 0.018-0.12716-0.0561-0.12716s-0.1347 0.0572-0.1347 0.12716c0 0.0699 0.0251 0.12716 0.0561 0.12716 0.0309 0 0.0915-0.0572 0.1347-0.12716zm1.2146-0.70267c0.40494-0.20936 0.45199-0.31421 0.23733-0.52883-0.17947-0.17943-0.62521-0.0615-0.62521 0.16543 0 0.0968-0.0511 0.17592-0.11356 0.17592-0.0625 0-0.14653 0.0858-0.18679 0.19075-0.0955 0.2488 0.20346 0.24737 0.68823-3e-3zm-0.20868-1.0589c0.0369-0.0596-0.0159-0.21701-0.11726-0.3497-0.15314-0.20049-0.20421-0.21098-0.30213-0.0621-0.0648 0.0986-0.0884 0.25593-0.0524 0.3497 0.0731 0.1904 0.36844 0.22925 0.47178 0.0621zm-0.94231-0.39273c0-0.0658-0.0572-0.15502-0.12719-0.19825-0.07-0.0432-0.12718 0.0106-0.12718 0.11966 0 0.10904 0.0572 0.19825 0.12718 0.19825 0.07 0 0.12719-0.0538 0.12719-0.11966zm-17.931-0.20063c0.13118-0.15805 0.11888-0.2389-0.06773-0.44508-0.26749-0.29551-0.48268-0.31984-0.684-0.0773-0.25128 0.30271-0.03432 0.59987 0.5116 0.70077 0.0439 8e-3 0.15195-0.0722 0.24014-0.17838zm6.6434-0.37607c-0.08342-0.43636-0.15888-0.40404-0.15888 0.068 0 0.21395 0.04956 0.35837 0.11012 0.32094 0.06056-0.0374 0.08252-0.21247 0.04876-0.38899zm14.467 0.13163c0-0.0308-0.0572-0.0914-0.12719-0.13467-0.07-0.0432-0.12718-0.018-0.12718 0.0561s0.0572 0.13467 0.12718 0.13467c0.07 0 0.12719-0.0252 0.12719-0.0561zm-20.604-0.69651c0-0.0642 0.03545-0.20917 0.07882-0.32211 0.06863-0.17886 0.0358-0.18577-0.25437-0.0536-0.39283 0.17896-0.44302 0.49246-0.07882 0.49246 0.13991 0 0.25437-0.0525 0.25437-0.11677zm20.198-0.48726c-0.0236-0.1224-0.0985-0.22254-0.16658-0.22254-0.068 0-0.14298 0.10014-0.16656 0.22254-0.0268 0.13919 0.0356 0.22253 0.16656 0.22253 0.13099 0 0.19338-0.0833 0.16658-0.22253zm-0.80251-0.28612c0.0432-0.0699 0.018-0.12717-0.0561-0.12717s-0.13467 0.0572-0.13467 0.12717c0 0.0699 0.0251 0.12716 0.0561 0.12716 0.0309 0 0.0915-0.0572 0.1347-0.12716zm-0.38155-0.76299c0.0432-0.0699 0.018-0.12716-0.0561-0.12716s-0.1347 0.0572-0.1347 0.12716c0 0.0699 0.0251 0.12717 0.0561 0.12717 0.0309 0 0.0915-0.0572 0.1347-0.12717zm0.31797-0.60752c0-0.12432 0.0901-0.35469 0.20027-0.51193 0.25349-0.36186 0.1914-0.60124-0.0983-0.37913-0.25543 0.1958-0.45606 1.1171-0.24326 1.1171 0.0777 0 0.14134-0.10171 0.14134-0.22603zm-0.38158-0.53695c0-0.20982-0.0222-0.3815-0.0491-0.3815-0.027 0-0.0744 0.17168-0.10517 0.3815-0.0308 0.20982-9e-3 0.38149 0.0492 0.38149 0.0578 0 0.10514-0.17167 0.10514-0.38149zm-0.6995-0.57224c0-0.19817-0.0716-0.38414-0.15899-0.41329-0.10793-0.036-0.15899 0.0968-0.15899 0.41329 0 0.3165 0.0511 0.44925 0.15899 0.41328 0.0874-0.0291 0.15899-0.21512 0.15899-0.41328zm1.2769-0.3235c0.15275-0.16875 0.2336-0.44753 0.23051-0.79478-6e-3 -0.68281-0.25636-1.3279-0.44284-1.1414-0.0942 0.0942-0.0905 0.21601 0.0124 0.40842 0.11025 0.20598 0.11073 0.38341 3e-3 0.71306-0.16076 0.487-0.31247 0.55801-0.79285 0.37108-0.36414-0.14169-0.24894 0.10985 0.19119 0.41747 0.49917 0.34888 0.50723 0.34915 0.79955 0.0262zm-0.47291-1.1305c0.0284-0.29027-7e-3 -0.401-0.11811-0.36413-0.24935 0.0831-0.41664 0.42691-0.32452 0.66695 0.13095 0.34111 0.39738 0.15881 0.44263-0.30282zm-16.71-1.144c0.21254-0.23481 0.21146-0.24268-0.02487-0.18087-0.34089 0.0891-0.70876-0.30132-0.60455-0.64171 0.04498-0.14694 0.11507-0.37394 0.15573-0.50446 0.07189-0.23059 0.06628-0.23069-0.19907-4e-3 -0.35465 0.30358-0.38759 1.2424-0.05051 1.4387 0.3248 0.18915 0.4745 0.16677 0.72332-0.10813zm17.574-0.48766c0.2286-0.15121 0.52996-0.82356 0.81868-1.8265 0.42915-1.4907 0.47514-1.7238 0.40862-2.0717-0.0689-0.36014-0.41463-0.45652-0.41463-0.11556 0 0.11689-0.0789 0.30286-0.17544 0.41328-0.0965 0.11042-0.35875 0.80161-0.58278 1.536-0.22402 0.73437-0.46058 1.4683-0.52567 1.6309-0.1792 0.44752 0.084 0.68972 0.47122 0.43359zm-17.383-0.33267c0.21161-0.39535 0.06625-1.1754-0.18084-0.97036-0.09131 0.0758-0.20341 0.33699-0.2491 0.58048-0.13094 0.69788 0.13568 0.93965 0.42995 0.38988zm-0.28945-1.3253c0.15896-0.15892 0.24553-0.78796 0.10845-0.78796-0.09903 0-0.44783 0.9009-0.4368 1.1282 0.0082 0.17141 0.02275 0.1746 0.08403 0.0185 0.04069-0.10366 0.15063-0.26511 0.24432-0.35878zm0.11885-1.8371c-0.22233-1.8366-0.32525-3.3913-0.2558-3.8635 0.08451-0.57451-0.08554-0.80998-0.3978-0.55086-0.36206 0.30043-0.17142 4.424 0.22757 4.923 0.0699 0.0874 0.21254 0.15896 0.31697 0.15896 0.15452 0 0.17481-0.12431 0.10906-0.66761zm2.5952 35.458c0-0.11074 0.09062-0.20134 0.20137-0.20134 0.11076 0 0.17873 0.0679 0.15102 0.15101-0.07861 0.23579-0.3524 0.2749-0.3524 0.0503zm-6.5589-0.21556c-0.10964-0.17736 0.22143-0.39629 0.37184-0.24589 0.12234 0.12232 0.0045 0.38727-0.17227 0.38727-0.0617 0-0.1515-0.0636-0.19958-0.14138zm16.352 0.0142c0-0.0699 0.05723-0.12716 0.12719-0.12716 0.06995 0 0.12718 0.0572 0.12718 0.12716 0 0.0699-0.05723 0.12716-0.12718 0.12716-0.06996 0-0.12719-0.0572-0.12719-0.12716zm-24.7-0.91444c-0.03524-1.2649 0.01455-3.8538 0.08755-4.5536 0.03284-0.31473 0.14602-1.9119 0.25151-3.5492 0.10549-1.6374 0.24675-3.2968 0.31395-3.6878 0.06718-0.39093 0.15118-1.1113 0.18664-1.6009 0.03545-0.48958 0.09334-1.0618 0.12864-1.2716 0.2925-1.7393 0.37301-2.1101 0.47133-2.1709 0.06189-0.0382 0.11136-0.0232 0.10996 0.0334-0.0034 0.13879-0.24424 1.8036-0.31845 2.2011-0.03262 0.17485-0.09297 0.7757-0.13409 1.3352-0.04112 0.55953-0.12459 1.189-0.18553 1.3988-0.09975 0.34357-0.23757 2.0853-0.4377 5.5316-0.03858 0.66443-0.13282 1.9234-0.20939 2.7976-0.07768 0.88648-0.10062 2.1882-0.05188 2.943 0.05937 0.91929 0.04345 1.3806-0.04964 1.4381-0.09231 0.0571-0.14547-0.2185-0.1629-0.84478zm28.476 0.83231c-0.16587-0.16583-0.0867-0.29936 0.17753-0.29936 0.14801 0 0.24276 0.0667 0.21463 0.151-0.062 0.18583-0.27432 0.26618-0.39216 0.14836zm3.9845-0.0768c0-0.0874 0.0512-0.23659 0.11129-0.33148 0.14123-0.22287 0.29744 0.0122 0.19153 0.28822-0.0921 0.23988-0.30562 0.27039-0.30282 0.0433zm-28.278-2.8612c0.02646-2.8906 0.02355-2.8474 0.16788-2.5115 0.20439 0.47554 0.10096 5.023-0.11425 5.023-0.0421-1e-5 -0.06623-1.1302-0.05363-2.5115zm17.592 2.3314c0-0.11073 0.09062-0.20134 0.2014-0.20134 0.11076 0 0.1787 0.0679 0.15102 0.15101-0.07861 0.23579-0.35242 0.2749-0.35242 0.0503zm17.993-0.73639c-0.41748-0.5041-0.94416-1.1098-1.1704-1.3459-0.36928-0.38546-0.97414-1.2077-2.6759-3.6376-0.89564-1.2789-1.5746-2.5994-1.5309-2.9776 0.0352-0.30509 0.0647-0.27637 0.27472 0.26796 0.57219 1.4829 2.7198 4.5255 5.5554 7.8704 0.27778 0.32771 0.50509 0.62813 0.50509 0.66761 0 0.22051-0.28057-0.0269-0.95793-0.84477zm-7.9451 0.66972c0-0.0658 0.0572-0.15503 0.12718-0.19825 0.07-0.0432 0.12719 0.0106 0.12719 0.11966 0 0.10903-0.0572 0.19825-0.12719 0.19825-0.0699 0-0.12718-0.0538-0.12718-0.11966zm-30.987-0.48437c0.04384-0.26228 0.11171-1.9933 0.15079-3.8467 0.0722-3.4229 0.34906-7.7346 0.56343-8.7743 0.0649-0.31473 0.15309-0.85835 0.196-1.208 0.04289-0.34971 0.17576-1.0078 0.29525-1.4624 0.17066-0.64935 0.26879-0.82657 0.45776-0.82657 0.13227 0 0.26437 0.0715 0.2935 0.15896 0.02916 0.0874-0.03318 0.15895-0.13851 0.15895-0.22984 0-0.38679 0.4657-0.64286 1.9075-0.50856 2.8633-0.54536 3.3813-0.78174 11-0.07922 2.5527-0.162 3.3698-0.34144 3.3698-0.08181 0-0.10163-0.18115-0.05217-0.47687zm5.4347 0.3572c-0.12647-0.0782-0.12999-0.12542-0.01455-0.1967 0.0835-0.0516 0.20907-0.0366 0.27903 0.0333 0.16576 0.16572-0.04741 0.29745-0.2644 0.16337zm21.26-0.29362c0.0292-0.0874 0.1293-0.15896 0.22256-0.15896 0.0933 0 0.19344 0.0715 0.2226 0.15896 0.0315 0.0946-0.0587 0.15896-0.2226 0.15896s-0.25407-0.0644-0.22256-0.15896zm-25.469-0.0954c0-0.0699 0.06062-0.12717 0.13467-0.12717 0.07408 0 0.09932 0.0572 0.05609 0.12717-0.04323 0.0699-0.10385 0.12716-0.13467 0.12716-0.03085 0-0.05609-0.0572-0.05609-0.12716zm39.466-1.5425c-1.5225-2.2702-1.777-2.6592-2.0156-3.0806-0.24156-0.42665-2.8408-3.9642-4.6245-6.294-0.49895-0.65172-0.65013-1.0363-0.40732-1.0363 0.0625 0 0.14115 0.0719 0.17489 0.15975 0.0337 0.0879 0.59788 0.88077 1.2537 1.762 2.0706 2.7824 3.4648 4.7179 3.9904 5.5397 1.0193 1.5936 2.6187 4.054 2.8168 4.333 0.1142 0.16086 0.14367 0.28612 0.0673 0.28612-0.0747 0-0.63971-0.75133-1.2556-1.6696zm-29.037 1.4153c0-0.0699 0.08586-0.12716 0.19079-0.12716 0.10493 0 0.19076 0.0572 0.19076 0.12716 0 0.07-0.08583 0.12717-0.19076 0.12717s-0.19079-0.0572-0.19079-0.12717zm22.639-0.19074c0-0.10491 0.0859-0.19075 0.19079-0.19075 0.10494 0 0.19077 0.0858 0.19077 0.19075 0 0.10491-0.0858 0.19074-0.19077 0.19074-0.10493 0-0.19079-0.0858-0.19079-0.19074zm8.1942-0.65433c-0.35-0.4794-0.78968-1.1005-0.97706-1.3803s-0.65812-0.96644-1.0461-1.526c-0.38798-0.55952-1.0323-1.5609-1.4318-2.2254s-0.77322-1.2653-0.83047-1.3352c-0.0573-0.0699-0.76306-1.0428-1.5684-2.1618-0.80536-1.119-1.6185-2.1818-1.8069-2.3617-0.35126-0.33536-0.91495-1.0708-0.91495-1.1937 0-0.0378 0.0859-0.0687 0.19079-0.0687 0.10493 0 0.19076 0.0577 0.19076 0.12827 0 0.0705 0.30065 0.45681 0.66808 0.85836 0.36742 0.40155 0.8782 1.018 1.135 1.3698 0.83513 1.1441 1.878 2.65 2.3638 3.4134 0.60881 0.95662 2.9874 4.5158 3.9859 5.9642 0.91803 1.3318 0.95274 1.767 0.0414 0.51872zm-32.411 0.61061c-0.04403-0.0712-0.01799-0.16775 0.05768-0.21456 0.19555-0.12083 0.32173 0.0447 0.15848 0.20789-0.09133 0.0913-0.16248 0.0935-0.21616 7e-3zm-8.7881-0.14703c-0.04323-0.0699-0.01799-0.12716 0.05609-0.12716s0.1347 0.0572 0.1347 0.12716c0 0.0699-0.02514 0.12716-0.05609 0.12716-0.03085 0-0.09147-0.0572-0.1347-0.12716zm0.13798-1.526c0.04913-0.73437 0.1357-1.4497 0.1924-1.5896 0.05667-0.13988 0.06982 0.40375 0.02918 1.2081s-0.12721 1.5196-0.19238 1.5896c-0.07337 0.0787-0.08448-0.38148-0.02921-1.2081zm1.3883 1.1445c-0.04323-0.0699-0.01799-0.12717 0.05606-0.12717 0.07408 0 0.1347 0.0572 0.1347 0.12717 0 0.0699-0.02513 0.12716-0.05609 0.12716-0.03085 0-0.09147-0.0572-0.13467-0.12716zm10.522-0.0238c0.07861-0.23579 0.3524-0.2749 0.3524-0.0503 0 0.11074-0.09062 0.20134-0.20137 0.20134-0.11076 0-0.1787-0.0679-0.15102-0.151zm8.8103-0.10332c0.04323-0.0699 0.10385-0.12717 0.1347-0.12717s0.05609 0.0572 0.05609 0.12717c0 0.0699-0.06062 0.12716-0.1347 0.12716-0.07408 0-0.09933-0.0572-0.05609-0.12716zm4.9849 0.0458c-0.10162-0.10159 0.0132-0.30017 0.17362-0.30017 0.0658 0 0.11968 0.0858 0.11968 0.19074 0 0.19665-0.15008 0.25264-0.2933 0.10943zm5.6982-0.30107c-0.0435-0.0704 0.0127-0.16334 0.12515-0.20646 0.24352-0.0934 0.37923 0.01 0.26217 0.1989-0.10559 0.17085-0.28424 0.17434-0.38732 8e-3zm-30.058-0.3488c0.0058-0.19234 0-1.8166-0.01085-3.6094-0.01164-1.7928 0.0098-3.7671 0.04794-4.3872 0.03807-0.6201 0.09964-1.6711 0.13684-2.3355 0.12036-2.15 0.19635-2.8579 0.31999-2.9816 0.15391-0.15389 0.15468 0.24624 0.0037 1.9642-0.22881 2.6048-0.3212 5.445-0.27816 8.5518 0.03035 2.1883 0.0026 3.1473-0.09321 3.1473-0.07525 0-0.13211-0.15736-0.12634-0.3497zm40.613-0.32794c-0.5698-0.9206-1.4306-2.1817-2.1849-3.2009-0.15529-0.20983-0.37717-0.55317-0.49305-0.76299-0.11589-0.20982-0.54758-0.84894-0.9593-1.4203s-0.75158-1.0863-0.75523-1.1445c-0.014-0.22431-2.6432-3.418-3.5122-4.2664-1.7907-1.7484-2.0674-2.0471-1.9989-2.1579 0.10178-0.16467 2.5759 2.2111 3.3933 3.2584 0.22191 0.28431 0.46643 0.57416 0.5434 0.6441 0.32885 0.29878 1.1463 1.4335 2.7942 3.8785 0.96631 1.4338 1.9346 2.8644 2.1516 3.1791 0.7878 1.1421 1.4527 2.2835 1.3627 2.3392-0.0507 0.0313-0.20441-0.12455-0.34171-0.34635zm-33.455 0.0307c-0.12348-0.19977 0.11811-0.39294 0.37036-0.29615 0.16722 0.0642 0.18269 0.12188 0.06929 0.2585-0.17563 0.21157-0.3243 0.2243-0.43966 0.0376zm14.951-0.37041c0-0.0699 0.0825-0.12717 0.18328-0.12717 0.1008 0 0.21865 0.0572 0.26188 0.12717 0.0432 0.0699-0.0392 0.12716-0.18327 0.12716-0.14404 0-0.26189-0.0572-0.26189-0.12716zm-20.141-0.2154c-0.14322-0.14321-0.08723-0.29326 0.10946-0.29326 0.10493 0 0.19076 0.0538 0.19076 0.11966 0 0.16035-0.1986 0.27519-0.30022 0.1736zm2.0133-0.0453c-0.12086-0.19551 0.04469-0.32166 0.20794-0.15844 0.09133 0.0913 0.09353 0.16246 0.0066 0.21613-0.07122 0.044-0.1678 0.018-0.2146-0.0577zm22.961-0.31903c0-0.10904 0.0581-0.1623 0.12924-0.11837 0.0711 0.0439 0.0963 0.13314 0.0561 0.19825-0.10904 0.17638-0.18534 0.14349-0.18534-0.0799zm-18.315-0.36339c0-0.11074 0.09062-0.20134 0.20138-0.20134 0.11075 0 0.17873 0.0679 0.15105 0.15101-0.07861 0.23579-0.35242 0.2749-0.35242 0.0503zm-3.3068-0.0742c0-0.0699 0.05723-0.12716 0.12718-0.12716 0.06996 0 0.12718 0.0572 0.12718 0.12716 0 0.0699-0.05723 0.12717-0.12718 0.12717-0.06996 0-0.12718-0.0572-0.12718-0.12717zm14.181 0c0.04323-0.0699 0.13248-0.12716 0.19828-0.12716 0.06583 0 0.1197 0.0572 0.1197 0.12716 0 0.0699-0.08924 0.12717-0.1983 0.12717-0.10904 0-0.1629-0.0572-0.11967-0.12717zm4.5699-0.14138c-0.0801-0.1296 0.14192-0.36069 0.35102-0.36532 0.18841-4e-3 0.25332 0.28675 0.0874 0.39181-0.23437 0.14844-0.33401 0.14241-0.43842-0.0265zm4.81-0.14473c0.0291-0.0874 0.10067-0.15896 0.15896-0.15896 0.0583 0 0.12986 0.0715 0.15899 0.15896 0.0292 0.0874-0.0424 0.15895-0.15899 0.15895-0.11658 0-0.18812-0.0715-0.15896-0.15895zm-18.153-0.21743c-0.10784-0.17449-0.01243-0.30549 0.1756-0.2409 0.07699 0.0265 0.08681 0.11623 0.02381 0.21757-0.07948 0.12793-0.13105 0.13396-0.19944 0.0233zm8.2003-5e-3c0-0.0699 0.05723-0.12717 0.12718-0.12717 0.06993 0 0.12718 0.0572 0.12718 0.12717 0 0.0699-0.05725 0.12716-0.12718 0.12716-0.06996 0-0.12718-0.0572-0.12718-0.12716zm-16.025-0.12725c0-0.0699 0.05726-0.12716 0.12718-0.12716 0.06996 0 0.12718 0.0572 0.12718 0.12716 0 0.0699-0.05723 0.12717-0.12718 0.12717-0.06993 0-0.12718-0.0572-0.12718-0.12717zm-4.0699-0.63582c0-0.23737 0.03392-0.27128 0.15261-0.15259 0.11872 0.11868 0.11872 0.1865 0 0.30519-0.11869 0.11869-0.15261 0.0848-0.15261-0.1526zm27.631-0.0318c0.0292-0.0874 0.1007-0.15895 0.15899-0.15895 0.0583 0 0.12983 0.0715 0.15899 0.15895 0.0292 0.0874-0.0424 0.15896-0.15899 0.15896-0.11658 0-0.18812-0.0715-0.15899-0.15896zm-25.087-0.29671c0-0.11074 0.06797-0.17869 0.15105-0.15101 0.23582 0.0786 0.27493 0.35235 0.05032 0.35235-0.11075 0-0.20137-0.0906-0.20137-0.20134zm19.548-7e-3c-0.1016-0.10159 0.01323-0.30017 0.17365-0.30017 0.0658 0 0.11967 0.0858 0.11967 0.19075 0 0.19664-0.15007 0.25263-0.29332 0.10942zm-22.028-0.52271c0.0254-0.19233 0.05009-0.39261 0.05493-0.44507 0.0048-0.0524 0.06795-0.0954 0.14028-0.0954 0.07265 0 0.10581 0.15658 0.07406 0.3497-0.03162 0.19233-0.06218 0.39262-0.06794 0.44507-0.0058 0.0525-0.06379 0.0954-0.12896 0.0954-0.06519 0-0.09774-0.15737-0.07236-0.34971zm29.348 0.25837c-0.25098-0.09-0.18521-0.29016 0.0954-0.29016 0.13991 0 0.25437 0.0539 0.25437 0.11966 0 0.16278-0.15737 0.23949-0.34975 0.1705zm-18.578-0.24783c0.06186-0.31903 0.35907-0.36283 0.35907-0.0529 0 0.1562-0.0821 0.26492-0.2001 0.26492-0.11843 0-0.1833-0.0865-0.15896-0.212zm-2.8206-0.28915c0-0.0658 0.05723-0.15503 0.12719-0.19825 0.06995-0.0432 0.12718 0.0106 0.12718 0.11966 0 0.10903-0.05723 0.19825-0.12718 0.19825-0.06996 0-0.12719-0.0538-0.12719-0.11966zm19.489-0.15851c0.0786-0.23579 0.35243-0.2749 0.35243-0.0503 0 0.11074-0.0906 0.20135-0.20138 0.20135s-0.17873-0.068-0.15105-0.15101zm-1.9051-0.13512c0.0292-0.0874 0.1293-0.15895 0.22257-0.15895 0.0933 0 0.19343 0.0715 0.22259 0.15895 0.0315 0.0946-0.0587 0.15896-0.22259 0.15896-0.16391 0-0.25408-0.0644-0.22257-0.15896zm-22.671-0.20893c0-0.23778 0.28956-0.4447 0.42825-0.30603 0.09774 0.0977-0.15319 0.54676-0.30554 0.54676-0.06749 0-0.12271-0.10833-0.12271-0.24073zm2.7192 0.0561c-0.08768-0.22845 0.05445-0.48126 0.21484-0.38215 0.16116 0.0996 0.15063 0.56681-0.0127 0.56681-0.07215 0-0.16306-0.0831-0.20206-0.18466zm-1.9561-0.324c0-0.0699 0.08924-0.12716 0.1983-0.12716 0.10904 0 0.1629 0.0572 0.11967 0.12716-0.04323 0.0699-0.13248 0.12717-0.19828 0.12717-0.06583 0-0.1197-0.0572-0.1197-0.12717zm18.315-0.19075c0-0.10491 0.08586-0.19074 0.19076-0.19074 0.10493 0 0.19079 0.0858 0.19079 0.19074 0 0.10491-0.08586 0.19075-0.19079 0.19075-0.10491 0-0.19076-0.0858-0.19076-0.19075zm7.3768-0.11656c0-0.11074 0.0906-0.20135 0.20137-0.20135 0.11076 0 0.17873 0.068 0.15103 0.15101-0.0786 0.23579-0.3524 0.2749-0.3524 0.0503zm-29.113-0.48747c-0.0069-0.26227 0.04456-0.47686 0.11451-0.47686 0.1456 0 0.1456 0.18127 0 0.63582-0.09089 0.28372-0.10319 0.26663-0.11451-0.15896zm10.798-0.0848c0-0.1562 0.08213-0.26493 0.2001-0.26493 0.11845 0 0.18333 0.0865 0.15899 0.212-0.06189 0.31903-0.35909 0.36283-0.35909 0.0529zm18.06-0.0106c0-0.0699 0.0572-0.12716 0.12718-0.12716 0.07 0 0.12719 0.0572 0.12719 0.12716 0 0.0699-0.0572 0.12716-0.12719 0.12716-0.07 0-0.12718-0.0572-0.12718-0.12716zm-24.674-0.19075c0-0.10491 0.05726-0.19075 0.12718-0.19075 0.06996 0 0.12719 0.0858 0.12719 0.19075 0 0.10491-0.05723 0.19075-0.12719 0.19075-0.06993 0-0.12718-0.0858-0.12718-0.19075zm4.3879 0.0636c-0.09276-0.15004 0.02754-0.3815 0.19828-0.3815 0.06583 0 0.11967 0.11445 0.11967 0.25433 0 0.2682-0.18505 0.3422-0.31795 0.12717zm-1.641-0.0935c-0.15309-0.15308-0.06956-0.28796 0.17836-0.28796 0.13991 0 0.25437 0.0511 0.25437 0.11356 0 0.14294-0.33084 0.27627-0.43273 0.1744zm14.932-0.54229c0-0.0699 0.05723-0.12716 0.12718-0.12716 0.06996 0 0.12719 0.0572 0.12719 0.12716 0 0.07-0.05723 0.12717-0.12719 0.12717-0.06996 0-0.12718-0.0572-0.12718-0.12717zm-21.867-0.3497c5e-3 -0.19233 0.05813-0.46415 0.11824-0.60403 0.08223-0.19136 0.11152-0.10478 0.11824 0.3497 5e-3 0.33222-0.04829 0.60403-0.11824 0.60403-0.06996 0-0.12316-0.15736-0.11824-0.3497zm30.036 0.0715c0.0786-0.23579 0.3524-0.2749 0.3524-0.0503 0 0.11073-0.0906 0.20134-0.20137 0.20134-0.11076 0-0.17873-0.0679-0.15103-0.15101zm-6.0458-0.3118c-0.10162-0.1016 0.0132-0.30018 0.17362-0.30018 0.0658 0 0.11967 0.0858 0.11967 0.19075 0 0.19665-0.15007 0.25264-0.29329 0.10943zm-18.657-0.35443c0-0.11797 0.10874-0.20007 0.26495-0.20007 0.30996 0 0.26614 0.29715-0.05292 0.35902-0.12552 0.0243-0.21204-0.0405-0.21204-0.15895zm24.42-0.26366c0-0.11656 0.0572-0.19286 0.12719-0.16955 0.14959 0.0499 0.14171 0.20225-0.0159 0.30731-0.0612 0.0408-0.11128-0.0212-0.11128-0.13776zm-0.4205-0.14489c-0.1016-0.1016 0.0132-0.30018 0.17365-0.30018 0.0658 0 0.11967 0.0858 0.11967 0.19075 0 0.19665-0.15007 0.25263-0.29332 0.10943zm-3.2073-0.17792c-0.12819-0.20739 0.15658-0.46469 0.32639-0.2949 0.092 0.092 0.076 0.17952-0.0523 0.28594-0.13663 0.11337-0.20814 0.1157-0.27413 9e-3zm-17.842-0.3448c0.02355-0.12239 0.09853-0.22253 0.16658-0.22253 0.06802 0 0.14298 0.10014 0.16656 0.22253 0.0268 0.1392-0.03556 0.22254-0.16656 0.22254s-0.19338-0.0833-0.16658-0.22254zm-8.0269-0.23313c0.0061-0.14814 0.03625-0.17827 0.07686-0.0768 0.03672 0.0918 0.0322 0.20148-0.01005 0.24373-0.04225 0.0423-0.07231-0.0328-0.06681-0.1669zm3.5054-0.21785c-0.12896-0.51375 0.09038-1.0362 0.46466-1.1068 0.26318-0.0496 0.31046-0.10544 0.21545-0.25432-0.18084-0.28337-0.151-0.76299 0.04747-0.76299 0.11986 0 0.19526 0.24417 0.24508 0.79347 0.0793 0.87435 0.05384 0.96587-0.20823 0.74843-0.31147-0.25845-0.54462-0.0517-0.48805 0.43279 0.05731 0.49085-0.16105 0.60889-0.27638 0.1494zm-3.4582-1.3929c0.09819-1.2811 0.32499-1.8345 0.32314-0.78841-0.0026 0.96791-0.1475 1.9647-0.28739 1.9647-0.08046 0-0.09334-0.42433-0.03575-1.1763zm25.45 1.06c-0.041-0.0662-0.0201-0.15395 0.046-0.1949 0.0662-0.0409 0.15396-0.0202 0.19492 0.046 0.0409 0.0662 0.0201 0.15395-0.046 0.1949-0.0663 0.0409-0.15399 0.0202-0.19492-0.046zm-1.4798-0.29698c-6e-3 -0.0175-0.0371-0.19483-0.0696-0.3941-0.0425-0.26023-0.0127-0.34533 0.10586-0.30202 0.0908 0.0332 0.15071 0.12468 0.13322 0.20336-0.0175 0.0787 0.0254 0.14306 0.0954 0.14306s0.12719 0.0858 0.12719 0.19074c0 0.15004-0.34846 0.29133-0.39201 0.15896zm3.7836-0.43448c-0.14634-0.14632-0.0926-0.29671 0.106-0.29671 0.10493 0 0.19079 0.0858 0.19079 0.19074 0 0.19858-0.15042 0.25229-0.29679 0.10597zm-23.036-0.2881c-0.04024-0.0651-0.01508-0.15432 0.05609-0.19825 0.07109-0.0439 0.12928-0.22135 0.12928-0.39427s0.08832-0.34828 0.19624-0.3897c0.28072-0.10769 0.35536 0.0199 0.19114 0.32673-0.0943 0.17618-0.09776 0.26521-0.01032 0.26521 0.20862 0 0.15285 0.34615-0.06953 0.43147-0.27974 0.10733-0.40772 0.0966-0.49292-0.0412zm24.096-1.0937c0-0.10272 0.0858-0.18675 0.19076-0.18675 0.10494 0 0.19079 0.0511 0.19079 0.11355 0 0.0625-0.0859 0.1465-0.19079 0.18676-0.1162 0.0446-0.19076 2e-4 -0.19076-0.11356zm-28.617-0.69541c0-0.13988 0.05723-0.25433 0.12718-0.25433 0.06996 0 0.12719 0.11445 0.12719 0.25433s-0.05723 0.25433-0.12719 0.25433c-0.06995 0-0.12718-0.11445-0.12718-0.25433zm25.889-0.4978c-0.041-0.0663-0.0201-0.15395 0.046-0.19489 0.0663-0.041 0.15399-0.0202 0.19492 0.046 0.041 0.0662 0.0201 0.15395-0.046 0.19489-0.0662 0.0409-0.15399 0.0202-0.19492-0.046zm-18.608-0.0951c-0.19711-0.0795-0.2077-0.37932-0.01773-0.4968 0.14925-0.0922 0.36211 0.15366 0.36539 0.42207 0.0026 0.16552-0.0794 0.18302-0.3478 0.0747zm-7.1002-0.51372c0.02011-0.18898 0.1112-0.36846 0.20235-0.39884 0.11189-0.0373 0.13851 0.0157 0.08189 0.16326-0.04614 0.12018-0.08387 0.29966-0.08387 0.39885 0 0.0992-0.05334 0.18034-0.11851 0.18034-0.06519 0-0.10202-0.15462-0.08186-0.34361zm6.2417-0.0379c-0.10732-0.1736 0.03784-0.38149 0.26636-0.38149 0.14486 0 0.1583-0.055 0.05876-0.24098-0.09578-0.17891-0.08054-0.28117 0.05911-0.39706 0.10348-0.0858 0.19042-0.10616 0.1932-0.0451 0.0029 0.061 0.09049-0.0464 0.19484-0.23876 0.19248-0.35471 0.56555-0.4817 0.56036-0.19075-0.0026 0.0874-0.11475 0.30202-0.25154 0.47687-0.13679 0.17485-0.24998 0.38944-0.25154 0.47686-0.0034 0.18678-0.45797 0.66762-0.63124 0.66762-0.06583 0-0.15507-0.0572-0.19831-0.12717zm22.533-0.0848c-0.15492-0.15487-0.0877-0.42387 0.10596-0.42387 0.10599 0 0.19079 0.11303 0.19079 0.25432 0 0.25335-0.13552 0.33077-0.29675 0.16955zm-21.41-0.3697c-0.05326-0.13876 0.0029-0.28136 0.15441-0.39213 0.31869-0.23299 0.503-0.15152 0.50165 0.22177-0.0026 0.37917-0.52385 0.51484-0.65606 0.17036zm18.862-0.26951c-0.14325-0.14321-0.0873-0.29326 0.10943-0.29326 0.10493 0 0.19079 0.0539 0.19079 0.11966 0 0.16035-0.19862 0.27519-0.30022 0.1736zm-21.966-0.88743c-0.14613-0.38428-0.05321-0.78988 0.13732-0.59939 0.06636 0.0663 0.15748 0.3048 0.20251 0.52992 0.10186 0.50923-0.1528 0.56129-0.33983 0.0695zm-5.2063-0.16131c0-0.14401 0.05723-0.26183 0.12718-0.26183 0.06996 0 0.12718 0.0825 0.12718 0.18324 0 0.10078-0.05723 0.2186-0.12718 0.26183-0.06996 0.0432-0.12718-0.0392-0.12718-0.18324zm4.3243-0.38452c0-0.29507 0.4473-0.58828 0.57708-0.3783 0.08641 0.13979-0.27869 0.62815-0.46961 0.62815-0.05911 0-0.10747-0.11244-0.10747-0.24985zm1.1931-0.53281c0.09377-0.4688 0.293-0.74331 0.53946-0.74331 0.24574 0 0.21923 0.37258-0.03342 0.46952-0.19069 0.0731-0.1896 0.094 0.0127 0.24187 0.2857 0.20887 0.14454 0.43309-0.27265 0.43309-0.29834 0-0.31948-0.0344-0.24612-0.40117zm25.452 0.0188c-0.0435-0.0704 0.0127-0.16334 0.12515-0.20646 0.24352-0.0934 0.37923 0.01 0.26217 0.1989-0.10559 0.17085-0.28424 0.17434-0.38732 8e-3zm-31.732-0.12627c0-0.0699 0.06062-0.12716 0.13467-0.12716 0.07408 0 0.09932 0.0572 0.05609 0.12716-0.04323 0.0699-0.10385 0.12717-0.13467 0.12717-0.03085 0-0.05609-0.0572-0.05609-0.12717zm5.4372-0.26451c-0.29874-0.17397-0.28329-0.49847 0.02381-0.49847 0.18492 0 0.25625-0.103 0.28617-0.41328 0.02196-0.22731 0.09708-0.38468 0.16703-0.34971 0.18828 0.0941 0.0368 1.4032-0.1614 1.3949-0.05114-2e-3 -0.19315-0.0622-0.31554-0.13348zm28.649-0.0534c0-0.11657 0.0572-0.19286 0.12718-0.16955 0.14963 0.0499 0.14174 0.20225-0.0159 0.30731-0.0612 0.0408-0.11131-0.0212-0.11131-0.13776zm-33.704-0.57224c0.13444-0.25114 0.38156-0.34997 0.38156-0.15259 0 0.13373-0.27625 0.40692-0.41148 0.40692-0.05842 0-0.04495-0.11445 0.02992-0.25433zm28.696 0.0371c-0.0399-0.0399-0.0421-0.1218-5e-3 -0.18199 0.0893-0.14445 0.43419-0.14116 0.43419 4e-3 0 0.14036-0.33002 0.27709-0.42926 0.17785zm2.5226-0.17271c-0.0461-0.0746-0.052-0.1675-0.013-0.20646 0.10461-0.10461 0.46336 0.0587 0.46336 0.21093 0 0.17259-0.34303 0.16919-0.45037-4e-3zm-23.626-0.67009c-0.0707-0.18423 0.12679-0.46595 0.32666-0.46595 0.15976 0 0.05641 0.5434-0.11401 0.59945-0.07882 0.0259-0.17452-0.0342-0.21265-0.1335zm22.931-0.2752c0-0.10491 0.0572-0.19075 0.12718-0.19075 0.07 0 0.12719 0.0858 0.12719 0.19075 0 0.10491-0.0572 0.19075-0.12719 0.19075-0.0699 0-0.12718-0.0858-0.12718-0.19075zm-22.187-0.0521c-0.10724-0.17346 0.06683-0.53778 0.23114-0.48375 0.22773 0.0749 0.25614 0.59944 0.03246 0.59944-0.10565 0-0.22429-0.0521-0.2636-0.11569zm-0.81158-0.73234c0.0539-0.27991 0.5501-0.3179 0.5501-0.0421 0 0.10491-0.13385 0.2097-0.29747 0.23287-0.23069 0.0327-0.28742-0.0102-0.25262-0.19075zm1.083-0.13034c-0.46995-0.33432-0.70019-0.7857-0.53612-1.0511 0.04641-0.0751 0.13764-0.10354 0.20275-0.0633 0.06511 0.0402 0.1184 0.0126 0.1184-0.0615s0.08586-0.13467 0.19076-0.13467c0.12967 0 0.19079 0.12978 0.19079 0.40509 0 0.2416 0.11224 0.52454 0.27813 0.70108 0.43788 0.46602 0.12512 0.60978-0.44471 0.20441zm-5.9383-0.47545c0-0.18774 0.47167-0.40594 0.60005-0.27758 0.10604 0.10603-0.22082 0.45976-0.42484 0.45976-0.09636 0-0.17521-0.082-0.17521-0.18218zm27.905-0.85443c-0.0856-0.13842 0.25964-0.48936 0.48138-0.48936 0.15529 0 0.12335 0.31016-0.0497 0.48322-0.19158 0.19154-0.31594 0.19331-0.43164 6e-3zm-25.998-0.21565c0-0.25586 0.17195-0.43651 0.54054-0.56789 0.36481-0.13002 0.25985 0.2188-0.15899 0.5284-0.36158 0.26729-0.38156 0.26936-0.38156 0.0395zm6.6985 0.023c-0.04665-0.0466-0.0848-0.18952-0.0848-0.31754 0-0.26398 0.69622-0.60588 1.0493-0.51528 0.32491 0.0834 0.27331 0.40895-0.0648 0.40895-0.15804 0-0.35885 0.11444-0.44622 0.25432-0.16423 0.26292-0.30678 0.31622-0.45347 0.16955zm19.333-0.60219c-0.0798-0.20797 0.014-0.33034 0.25321-0.33034 0.0933 0 0.16957 0.11445 0.16957 0.25433 0 0.28915-0.31896 0.3465-0.42278 0.076zm0.65003-0.33034c0.0308-0.20982 0.10673-0.38149 0.16875-0.38149 0.062 0 0.11274 0.17167 0.11274 0.38149 0 0.2322-0.066 0.38149-0.16875 0.38149-0.11515 0-0.15097-0.12116-0.11274-0.38149zm-20.577 0.12716c0-0.0699 0.12742-0.25456 0.28316-0.41028 0.1656-0.16556 0.26744-0.40316 0.2453-0.57224-0.0504-0.38454 0.14957-0.36781 0.36269 0.0303 0.15661 0.29259 0.14036 0.35141-0.19309 0.69941-0.36042 0.37613-0.69805 0.4984-0.69805 0.25278zm1.1464-0.66761c4e-3 -0.37006 0.16756-0.73119 0.33107-0.73119 0.19053 0 0.21548 0.15739 0.09578 0.60403-0.08017 0.29905-0.42987 0.40323-0.42685 0.12716zm18.958-3.1791c-0.13398-0.34915 0.0686-0.63327 0.24855-0.34864 0.16047 0.25378 0.156 0.63476-7e-3 0.63476-0.0722 0-0.18068-0.12876-0.24109-0.28612zm-0.81468-0.18015c-0.12237-0.12234 0.16148-0.55104 0.36484-0.55104 0.10244 0 0.18629 0.0838 0.18629 0.18627 0 0.20332-0.42879 0.48711-0.55113 0.36477zm-20.618-0.15761c-0.0395-0.0639-0.03707-0.20667 0.0053-0.31731 0.04644-0.12103-4e-3 -0.23232-0.12679-0.2794-0.26408-0.10133-0.26509-0.43254 0-0.43254 0.11147 0 0.2326-0.11445 0.26919-0.25433 0.11613-0.44401 0.29107-0.27449 0.29528 0.28612 0.0034 0.47665 0.02408 0.51418 0.17301 0.31791 0.26876-0.35399 0.5007-0.28026 0.40008 0.12716-0.04752 0.19234-0.12525 0.38523-0.17277 0.42866-0.16449 0.15033-0.77063 0.23939-0.84212 0.12373zm21.574-0.48881c0.0535-0.28206 0.73957-0.39213 0.73957-0.11865 0 0.1014-0.12878 0.21887-0.28618 0.26104-0.43817 0.11741-0.49903 0.0983-0.45339-0.14239zm-0.70186-0.24373c-0.12528-0.12524-0.10303-0.55104 0.0288-0.55104 0.11358 0 0.26797 0.29902 0.26797 0.51905 0 0.136-0.17399 0.15475-0.29676 0.032zm0.35359-0.45923c-0.10012-0.26083 9e-3 -0.60047 0.19354-0.60047 0.16267 0 0.16801 0.38068 9e-3 0.63226-0.10142 0.16035-0.13044 0.15579-0.20243-0.0318zm-0.18227-2.9212c4e-3 -0.37189 0.16793-0.7312 0.33348-0.7312 0.13004 0 0.15571 0.0947 0.0948 0.3497-0.046 0.19234-0.10766 0.39262-0.13711 0.44508-0.0866 0.15428-0.29303 0.10919-0.29112-0.0636zm0.79317-0.61487c-0.30843-0.11653-0.39656-0.49782-0.1151-0.49782 0.2158 0 0.64437 0.46228 0.50493 0.54468-0.057 0.0337-0.23243 0.0126-0.38983-0.0469zm-1.1765-0.62498c0-0.13988 0.0572-0.25433 0.12718-0.25433 0.07 0 0.12719-0.20028 0.12719-0.44508 0-0.46058 0.16917-0.59616 0.30435-0.24392 0.12422 0.32363 0.082 0.73556-0.0999 0.97512-0.22627 0.29802-0.45886 0.28191-0.45886-0.0318zm1.2718-0.13031c0-0.145 0.63439-0.42229 0.73528-0.3214 0.0352 0.0352-8e-3 0.15129-0.0968 0.25789-0.18103 0.21808-0.63849 0.26358-0.63849 0.0635zm-0.38156-0.56452c0-0.24447 0.30107-0.38057 0.5936-0.26834 0.24524 0.0941 0.11464 0.25771-0.30742 0.3852-0.21349 0.0645-0.28618 0.0348-0.28618-0.11686zm-4.4197-8.224c-0.24839-0.25099-0.18709-0.71148 0.12369-0.92913 0.15547-0.10888 0.32716-0.19796 0.38156-0.19796 0.17028 0 0.10776 0.36384-0.0809 0.47055-0.0988 0.0559-0.19902 0.26268-0.22257 0.45943-0.0344 0.28721-0.0742 0.32607-0.20182 0.19711zm-1.2472-0.96168c-0.10096-0.10097-0.18359-0.26532-0.18359-0.36524 0-0.24107 0.36952-0.23381 0.46275 9e-3 0.11145 0.29039 0.26332 0.22852 0.35722-0.14556 0.0563-0.2242 0.12681-0.29391 0.21161-0.20914 0.0699 0.0699 0.0906 0.27274 0.046 0.45067-0.0968 0.38581-0.6169 0.53718-0.89395 0.26018zm4.3527 4e-3c-0.15566-0.15563-0.0872-0.55105 0.0954-0.55105 0.20365 0 0.32017 0.23884 0.23262 0.47687-0.0644 0.17504-0.19711 0.20506-0.328 0.0742zm-17.888-0.26493c0.0061-0.20849 0.46622-0.63696 0.88749-0.82659 0.24482-0.1102 0.78854-0.29835 1.2082-0.41811 1.1394-0.32508 1.4626-0.52147 1.4626-0.88856 0-0.38316 0.16335-0.40475 0.39783-0.0526 0.16481 0.24752 0.22392 0.25415 1.0648 0.11947 0.90371-0.14475 2.6824-0.06 2.802 0.13345 0.13031 0.21082-0.21095 0.25624-0.93668 0.12467-0.91702-0.16626-2.0955-0.0186-3.5976 0.45078-1.6567 0.5177-2.4366 0.84202-2.7898 1.1602-0.33208 0.29912-0.50398 0.3671-0.49895 0.1973zm18.512-0.35243c-0.13478-0.10196-0.209-0.22146-0.16489-0.26556 0.14192-0.14191 0.72795 0.076 0.72795 0.27072 0 0.23752-0.24519 0.23527-0.56306-5e-3zm-1.4719-0.74647c0-0.0973 0.13583-0.21104 0.30186-0.25271 0.35081-0.088 0.62172-0.64471 0.56436-1.1597-0.0228-0.2045 0.0293-0.37904 0.12279-0.41179 0.12303-0.0431 0.1538 0.14389 0.12718 0.77303-0.0338 0.79947-0.0504 0.83714-0.4528 1.029-0.51467 0.24543-0.66339 0.2504-0.66339 0.0222zm-4.4295-0.41552c0.0249-0.12874 0.13015-0.23408 0.23413-0.23408 0.27263 0 0.23326 0.36949-0.0451 0.42309-0.16997 0.0327-0.22177-0.0191-0.18905-0.18901zm-10.384-0.41941c-0.06363-0.10293 0.53898-0.51407 0.75345-0.51407 0.21087 0 0.02223 0.36232-0.25405 0.48824-0.39177 0.17847-0.40465 0.17914-0.4994 0.0258zm9.6552-0.0176c-0.12792-0.20697 0.26832-0.54561 0.52375-0.44761 0.20431 0.0784 0.20367 0.0994-0.01 0.3353-0.25805 0.28507-0.38936 0.31377-0.5139 0.11231zm0.70216-0.69314c-0.0829-0.0999-0.117-0.26943-0.0758-0.37682 0.0625-0.16281 0.11766-0.16856 0.33218-0.0346 0.1415 0.0883 0.25726 0.22658 0.25726 0.30719 0 0.23289-0.34822 0.30356-0.51366 0.10424zm-9.9154-0.27714c-0.17105-0.2174-0.21915-0.36451-0.12906-0.39454 0.18333-0.0611 0.6377 0.34513 0.6377 0.57016 0 0.27299-0.21378 0.19917-0.50864-0.17562zm1.4573 0.21103c-0.04612-0.0746-0.05215-0.1673-0.01349-0.20601 0.10832-0.1083 0.71818 0.0759 0.71818 0.2169 0 0.16865-0.59949 0.15939-0.70474-0.0109zm-4.2934-0.0718c-0.15698-0.15697 0.16817-0.53282 0.85572-0.9891 0.38346-0.2545 0.73755-0.53287 0.78682-0.6186 0.04927-0.0857 0.04426-0.11497-0.01111-0.065-0.1501 0.13548-0.576-0.13328-0.576-0.36348 0-0.14738 0.07993-0.18 0.30364-0.12387 0.23066 0.0579 0.29943 0.0263 0.28615-0.13148-0.0095-0.11422 0.05408-0.23291 0.14153-0.26375 0.10493-0.037 0.15899 0.0772 0.15899 0.33601 0 0.21565 0.03426 0.39209 0.07615 0.39209 0.11816 0 0.99714-0.42189 1.0685-0.51287 0.06522-0.0831 0.31657-0.16085 2.1255-0.65719 0.96787-0.26556 1.0391-0.30776 0.97189-0.57557-0.05292-0.21083-0.0172-0.28899 0.13203-0.28899 0.1334 0 0.20455 0.11057 0.20455 0.31791 0 0.29721 0.04191 0.31791 0.64344 0.31791 0.35388 0 0.61285 0.0495 0.57544 0.10998-0.03739 0.0605-0.27739 0.0869-0.53335 0.0587-0.59566-0.0656-2.2913 0.27858-2.9574 0.60036-0.28268 0.13655-0.58825 0.25115-0.67908 0.25466-0.09081 4e-3 -0.56576 0.22181-1.0554 0.48511-0.72948 0.39225-0.89257 0.53697-0.90286 0.80122-0.02011 0.51443-0.16579 0.6654-0.42013 0.43526-0.19735-0.17857-0.2536-0.1623-0.63114 0.18246-0.45572 0.41615-0.44932 0.41277-0.56391 0.29821zm14.855-0.75226c-0.48967-0.23607-0.96184-0.43143-1.0493-0.43414-0.0874-3e-3 -0.15899-0.0622-0.15899-0.1321 0-0.23712 0.56923-0.11594 1.3895 0.2958 0.44948 0.2256 0.84056 0.48023 0.86911 0.56585 0.0739 0.22174-0.05 0.1869-1.0504-0.29541zm-11.36-0.14315c0.05863-0.49507 0.35822-0.53872 0.35822-0.0522 0 0.27114-0.06146 0.39209-0.19923 0.39209-0.14118 0-0.18751-0.099-0.15899-0.33989zm0.99414 0.24176c0-0.18253 0.49974-0.58907 0.60042-0.48842 0.04956 0.0496 0.02876 0.18749-0.04622 0.30653-0.14893 0.23649-0.5542 0.36949-0.5542 0.18189zm1.6534-0.44386c0-0.22365 0.61074-0.34475 1.7488-0.34676 1.162-2e-3 0.97144 0.2105-0.25437 0.28369-0.57711 0.0344-1.1495 0.10497-1.2719 0.15671-0.15393 0.0651-0.22257 0.0362-0.22257-0.0936zm4.5116-0.60805c-0.11919-0.19283 0.20389-0.54431 0.35835-0.38986 0.14264 0.14261 0.03167 0.52259-0.15264 0.52259-0.068 0-0.16058-0.0597-0.20571-0.13273zm0.98277-0.27419c-0.19339-0.19335-0.19796-0.48323-8e-3 -0.48323 0.14799 0 0.47961 0.36808 0.48692 0.54045 6e-3 0.14948-0.31033 0.11167-0.47927-0.0572zm-2.0604-0.59679c0-0.13775 0.31403-0.26793 0.64632-0.26793 0.33629 0 0.30718 0.20773-0.0422 0.30134-0.40614 0.10882-0.60412 0.0979-0.60412-0.0334zm2.5437-0.0727c0-0.0325 0.11565-0.12099 0.25699-0.19663 0.30078-0.16093 0.6327-0.0298 0.36073 0.14252-0.1828 0.11581-0.61772 0.15391-0.61772 0.0541zm-1.5959-0.58853c-0.11187-0.21632-0.16666-0.43005-0.12174-0.47496 0.09819-0.0982 0.56616 0.48399 0.57018 0.70932 0.0053 0.2927-0.24289 0.16303-0.44844-0.23436zm0.65569-0.0933c-0.09178-0.14847 0.05689-0.65789 0.19198-0.65789 0.0618 0 0.11235 0.17167 0.11235 0.3815 0 0.36033-0.16169 0.50716-0.30433 0.27639zm-6.4715-0.60809c-0.04691-0.0469-0.05485-0.13451-0.01773-0.1947 0.09446-0.1528 0.68855-0.13749 0.68855 0.0177 0 0.0699-0.05255 0.12716-0.11679 0.12716-0.06421 0-0.19598 0.0304-0.29281 0.0675-0.09681 0.0371-0.21439 0.0292-0.2613-0.0177zm1.3068-0.79869c0-0.0622 0.11258-0.24817 0.25014-0.41329 0.26696-0.3204 0.35018-0.13663 0.12695 0.28039-0.13449 0.25128-0.37708 0.33677-0.37708 0.1329z" stroke-width=".26458"/>
  <g fill-rule="evenodd">
   <path d="m67.638 109.44h60.882v-0.16933h-60.882z"/>
   <path d="m67.469 171.3h0.16933v-61.856h-0.16933z"/>
   <path d="m128.52 171.3h0.16934v-61.856h-0.16934z"/>
   <path d="m67.638 171.47h60.882v-0.16934h-60.882z"/>
  </g>
 </g>
</svg>
