<?xml version="1.0" encoding="UTF-8" standalone="no"?>
<!-- Created with Inkscape (http://www.inkscape.org/) -->

<svg
   width="231.38646"
   height="235.24007"
   viewBox="0 0 61.221 62.240601"
   version="1.1"
   id="svg1"
   xml:space="preserve"
   xmlns="http://www.w3.org/2000/svg"
   xmlns:svg="http://www.w3.org/2000/svg"><defs
     id="defs1" /><g
     id="g2047"
     transform="matrix(0.26458333,0,0,0.26458333,-5299.2671,-10.12824)"><g
       id="g2188"
       transform="translate(-1397.3268,-279.16667)"><g
         id="g2202"
         transform="translate(230.7,-304.1146)"><path
           style="fill:#000000"
           d="m 21325.353,840.07765 c -0.826,-0.12931 -1.084,-0.35532 -0.914,-0.79978 0.153,-0.3988 -0.05,-0.69572 -0.578,-0.83335 -0.448,-0.1176 -0.815,-0.376 -0.815,-0.57422 0,-0.64926 0.197,-0.97427 0.526,-0.86455 0.177,0.0593 0.154,-0.21608 -0.05,-0.61197 -0.206,-0.39588 -0.334,-1.27056 -0.285,-1.94372 0.05,-0.67317 -0.09,-1.45343 -0.303,-1.73392 -0.265,-0.34423 -0.233,-0.50997 0.1,-0.50997 0.437,0 0.432,-1.11985 -0.01,-3.50781 -0.04,-0.2024 -0.03,-0.4598 0.02,-0.57199 0.286,-0.65982 0.262,-2.75388 -0.04,-3.33292 -0.232,-0.4479 -0.181,-0.75113 0.152,-0.88575 0.384,-0.15583 0.378,-0.21238 -0.03,-0.2369 -0.31,-0.0188 -0.405,-0.2381 -0.227,-0.52696 0.167,-0.27211 0.345,-1.73223 0.395,-3.24472 0.05,-1.51248 0.226,-2.97053 0.392,-3.2401 0.205,-0.33294 0.129,-0.38303 -0.237,-0.15618 -0.371,0.23027 -0.471,0.15485 -0.322,-0.24295 0.119,-0.3173 0.08,-0.94409 -0.08,-1.39286 -0.165,-0.44878 -0.118,-1.04545 0.106,-1.32594 0.277,-0.34789 0.259,-0.50997 -0.06,-0.50997 -0.43,0 -0.281,-2.34623 0.177,-2.80593 0.515,-0.51634 -0.946,-1.27387 -2.457,-1.27387 h -1.729 l 0.05,-3.77381 c 0.03,-2.0756 0.232,-3.9087 0.457,-4.07355 0.253,-0.18448 0.205,-0.30214 -0.122,-0.30599 -0.293,-0.003 -0.432,-0.17077 -0.308,-0.37185 0.219,-0.3552 0.678,-4.90756 0.787,-7.79399 0.05,-1.38488 0,-1.43144 -1.574,-1.5442 -0.895,-0.0639 -1.902,-0.2306 -2.237,-0.37033 -0.336,-0.13974 -0.865,-0.21101 -1.177,-0.15839 -0.312,0.0526 -0.695,-0.11174 -0.851,-0.36526 -0.284,-0.46049 -2.721,-0.8944 -8.953,-1.59371 -3.526,-0.39565 -4.199,-0.66783 -3.244,-1.31105 0.523,-0.35222 0.522,-0.38992 -0.01,-0.3002 -0.335,0.0564 -1.067,-0.15657 -1.627,-0.47334 -1.163,-0.65882 -0.947,-0.61301 -4.604,-0.97847 -1.526,-0.15248 -3.082,-0.45018 -3.458,-0.66156 -0.801,-0.45043 -4.205,-1.39592 -4.649,-1.29112 -0.168,0.0396 -0.305,-0.0881 -0.305,-0.28377 0,-0.19571 -0.769,-0.47914 -1.709,-0.62986 -0.939,-0.15071 -1.919,-0.44999 -2.178,-0.66505 -0.351,-0.29201 -0.48,0.97794 -0.511,5.01565 -0.09,11.68755 -0.211,15.40217 -0.505,15.40217 -0.169,0 -0.316,0.68847 -0.328,1.52993 -0.09,6.24145 -0.06,8.58601 0.109,9.38353 0.107,0.50488 0.07,0.91795 -0.09,0.91794 -0.255,-2e-5 -0.241,12.25083 0.02,14.68729 0.09,0.84376 -0.09,1.0424 -1.019,1.1499 -0.628,0.0724 -1.402,0.55001 -1.747,1.07783 -0.752,1.15211 -2.243,1.50306 -3.25,0.765 -0.408,-0.29967 -0.57,-0.55069 -0.36,-0.55783 0.211,-0.007 0.04,-0.27678 -0.389,-0.59921 -0.558,-0.42373 -0.656,-0.73116 -0.353,-1.10897 0.231,-0.2875 0.356,-1.40173 0.278,-2.47606 -0.1,-1.30903 0,-1.86471 0.292,-1.68468 0.279,0.17317 0.266,-0.0444 -0.04,-0.61212 -0.282,-0.52795 -0.359,-1.48738 -0.192,-2.39512 0.329,-1.79517 0.343,-8.35133 0.03,-14.45622 -0.123,-2.40587 -0.06,-4.47513 0.138,-4.59835 0.355,-0.21976 0.284,-1.13034 -0.209,-2.68737 -0.136,-0.43085 -0.09,-0.78337 0.105,-0.78337 0.194,0 0.28,-0.62166 0.192,-1.38148 -0.09,-0.75981 0.04,-1.75842 0.286,-2.21913 0.259,-0.48608 0.292,-0.93382 0.08,-1.0668 -0.203,-0.12604 -0.269,-0.61495 -0.146,-1.08647 0.131,-0.5021 -0.01,-1.00646 -0.343,-1.21729 -0.406,-0.25774 -0.423,-0.36174 -0.06,-0.36622 0.332,-0.004 0.509,-0.65356 0.509,-1.86623 0,-1.30205 0.141,-1.77266 0.469,-1.56888 0.319,0.19777 0.358,0.10968 0.121,-0.27474 -0.477,-0.77531 -0.533,-1.99632 -0.153,-3.33404 0.195,-0.68365 0.162,-1.12195 -0.08,-1.12195 -0.221,0 -0.264,-0.22382 -0.1,-0.49738 0.169,-0.27355 0.296,-2.20126 0.283,-4.28378 -0.01,-2.08253 0.145,-3.78641 0.351,-3.78641 0.207,0 0.26,-0.18872 0.118,-0.41937 -0.142,-0.23064 -0.344,-1.46988 -0.449,-2.75386 -0.105,-1.28398 -0.261,-3.11476 -0.346,-4.06842 -0.103,-1.14412 0,-1.73604 0.323,-1.74016 0.302,-0.004 0.329,-0.11683 0.07,-0.30598 -0.224,-0.16486 -0.475,-0.57513 -0.558,-0.91171 -0.08,-0.33658 -0.249,-0.96196 -0.369,-1.38973 -0.165,-0.58805 -0.08,-0.69334 0.354,-0.43166 0.488,0.2949 0.49,0.24398 0.01,-0.34418 -0.359,-0.44308 -0.425,-0.87292 -0.184,-1.20026 0.206,-0.28049 0.347,-1.47979 0.313,-2.66513 -0.03,-1.18533 0.05,-2.22346 0.184,-2.30695 0.135,-0.0835 0.241,-1.91344 0.237,-4.06655 0,-2.39046 0.153,-3.91716 0.407,-3.92098 0.274,-0.004 0.277,-0.10755 0,-0.30598 -0.236,-0.17368 -0.43,-2.9011 -0.462,-6.48516 -0.03,-3.40198 -0.184,-6.39338 -0.341,-6.64755 -0.156,-0.25416 -0.04,-0.7647 0.259,-1.13453 0.349,-0.43136 0.368,-0.56673 0.05,-0.37761 -0.379,0.22824 -0.471,-3.43889 -0.407,-16.23986 0.05,-9.09407 0.195,-16.53513 0.332,-16.53569 0.137,-5.5e-4 0.199,-0.46089 0.138,-1.02297 -0.06,-0.56208 0.06,-0.91842 0.259,-0.79188 0.204,0.12654 0.371,0.0357 0.371,-0.20198 0,-0.23763 0.294,-0.43206 0.654,-0.43206 0.384,0 0.566,-0.22887 0.441,-0.55511 -0.218,-0.57032 0.833,-0.89328 6.633,-2.03885 2.096,-0.4139 2.632,-0.67009 2.583,-1.23602 -0.04,-0.44975 0.145,-0.63463 0.496,-0.49967 0.306,0.11782 0.659,0.0467 0.786,-0.15813 0.126,-0.20478 0.474,-0.27801 0.774,-0.16272 0.299,0.11529 0.661,-0.0954 0.804,-0.46813 0.142,-0.37276 0.487,-0.5899 0.766,-0.48254 0.569,0.21914 1.607,-0.70262 1.224,-1.08702 -0.135,-0.13611 0.104,-0.2533 0.533,-0.26044 0.429,-0.007 1.135,-0.28252 1.569,-0.61197 0.435,-0.32945 1.556,-0.59899 2.493,-0.59899 2.228,0 4.799,-1.06184 4.495,-1.85635 -0.125,-0.32534 -0.175,-0.59153 -0.111,-0.59153 0.06,0 1.202,-0.18658 2.53,-0.41463 1.327,-0.22804 3.013,-0.51271 3.747,-0.63258 0.832,-0.13617 1.229,-0.38698 1.055,-0.66836 -0.156,-0.25421 -0.09,-0.33604 0.146,-0.18787 0.233,0.14439 0.653,-0.015 0.934,-0.35415 0.294,-0.35495 0.831,-0.51454 1.266,-0.376 0.518,0.16472 0.756,0.0388 0.756,-0.39877 0,-0.46464 0.417,-0.64301 1.526,-0.65244 0.839,-0.007 1.872,-0.27664 2.297,-0.5989 0.424,-0.32226 0.915,-0.49701 1.09,-0.38835 0.176,0.10867 0.434,0.011 0.575,-0.21706 0.404,-0.65553 1.898,-0.48299 2.457,0.28371 0.342,0.469 0.975,0.66688 1.927,0.60256 1.756,-0.11863 2.25,1.03016 1.082,2.51906 -0.799,1.01914 -0.967,3.55405 -0.32,4.82485 0.193,0.37906 0.199,0.78364 0.01,0.89905 -0.358,0.2215 -0.279,3.8464 0.09,4.21765 0.119,0.1194 0.04,0.54899 -0.177,0.95465 -0.24,0.44852 -0.246,0.82899 -0.02,0.97089 0.207,0.12834 0.367,1.19513 0.356,2.37065 -0.01,1.17551 0.02,2.32089 0.08,2.54528 0.06,0.22439 0.05,0.49978 0,0.61197 -0.242,0.47052 -0.289,13.70223 -0.05,14.0753 0.366,0.57023 0.482,2.91217 0.582,11.83142 0.05,4.59003 0.253,7.87386 0.494,8.05135 0.271,0.19983 0.271,0.30208 0,0.30675 -0.249,0.004 -0.419,2.07164 -0.437,5.30998 -0.02,2.91664 0.121,5.30298 0.305,5.30298 0.185,0 0.335,0.25397 0.335,0.56438 0,0.61216 1.204,1.05313 2.899,1.06197 0.588,0.003 1.281,0.26175 1.54,0.57486 0.259,0.31311 1.151,0.69714 1.981,0.8534 0.831,0.15627 1.615,0.45405 1.743,0.66175 0.128,0.2077 1.776,0.48351 3.662,0.61291 1.886,0.12941 4.005,0.49339 4.71,0.80886 0.705,0.31547 2.005,0.57359 2.889,0.57359 1.936,0 4.206,0.73583 4.818,1.5618 0.262,0.35258 0.66,0.47052 0.961,0.28417 0.283,-0.17523 0.631,-0.15738 0.774,0.0397 0.552,0.76242 3.415,1.78618 4.994,1.78618 1.251,0 1.604,0.13949 1.439,0.56999 -0.159,0.41487 0.278,0.64469 1.607,0.84452 1.004,0.15099 1.926,0.53707 2.049,0.85794 0.122,0.32088 0.638,0.58341 1.145,0.58341 0.508,0 1.453,0.10645 2.102,0.23655 1.082,0.21696 1.172,0.36924 1.09,1.83892 -0.05,0.88131 -0.194,1.77192 -0.322,1.97915 -0.127,0.20723 -0.06,0.48504 0.156,0.61736 0.227,0.14039 0.289,1.55387 0.149,3.39402 -0.426,5.60996 -0.378,18.21096 0.07,18.83699 0.327,0.45535 0.293,0.51025 -0.149,0.24295 -0.426,-0.25729 -0.48,-0.19923 -0.215,0.22767 0.476,0.76473 0.591,1.65733 0.28,2.16302 -0.14,0.22699 -0.27,2.16518 -0.288,4.3071 -0.02,2.14192 -0.196,4.15226 -0.394,4.46742 -0.27,0.42772 -0.216,0.48544 0.21,0.22766 0.477,-0.28812 0.484,-0.23698 0.04,0.30863 -0.355,0.43966 -0.388,0.7406 -0.101,0.91835 0.558,0.34597 0.554,2.66411 0,2.66411 -0.236,0 -0.298,0.21395 -0.137,0.47543 0.215,0.35006 0.334,10.14841 0.173,14.31384 0,0.16829 -0.378,0.30598 -0.825,0.30598 -0.447,0 -0.814,0.1836 -0.814,0.40798 0,0.22439 -0.743,0.40798 -1.651,0.40798 -0.911,0 -1.546,-0.16953 -1.417,-0.3786 0.128,-0.20824 -0.182,-0.50982 -0.688,-0.67019 -1.975,-0.62521 -3.45,-3.01103 -2.469,-3.99476 0.156,-0.15609 0.341,-2.71106 0.412,-5.67772 0.112,-4.67402 0.289,-7.02585 0.529,-7.02585 0.04,0 0.101,-0.91795 0.143,-2.0399 0.04,-1.12194 0.221,-2.26938 0.397,-2.54987 0.179,-0.28732 0.131,-0.50997 -0.11,-0.50997 -0.446,0 -0.383,-1.41096 0.08,-1.87904 0.147,-0.14748 0.08,-0.61119 -0.139,-1.03047 -0.224,-0.41927 -0.251,-0.76231 -0.06,-0.76231 0.19,0 0.269,-1.01351 0.174,-2.25223 -0.109,-1.43665 0.01,-2.47439 0.336,-2.86572 0.279,-0.33742 0.39,-0.73145 0.246,-0.87562 -0.143,-0.14417 -0.279,-0.002 -0.301,0.31585 -0.02,0.31788 -0.177,0.11899 -0.343,-0.44198 -0.165,-0.56097 -0.131,-1.2414 0.08,-1.51205 0.207,-0.27066 0.267,-0.67105 0.132,-0.88977 -0.135,-0.21871 -0.08,-0.50232 0.13,-0.63024 0.207,-0.12793 0.272,-0.6283 0.146,-1.11194 -0.171,-0.65497 -0.09,-0.79494 0.305,-0.54853 0.386,0.23947 0.437,0.17371 0.183,-0.23816 -0.193,-0.31295 -0.404,-1.21309 -0.468,-2.00032 -0.06,-0.78723 -0.3,-1.49232 -0.523,-1.56686 -0.249,-0.0835 -0.266,-0.397 -0.04,-0.81658 0.416,-0.78273 0.373,-3.1333 -0.07,-3.57326 -0.162,-0.16311 -0.07,-0.57478 0.21,-0.91482 0.433,-0.53088 0.361,-0.58022 -0.512,-0.34909 -0.56,0.14804 -1.149,0.27167 -1.31,0.27474 -0.16,0.003 -0.187,0.28095 -0.06,0.61754 0.129,0.33658 0.06,0.61197 -0.159,0.61197 -0.216,0 -1.073,0.64256 -1.903,1.42793 -0.83,0.78536 -1.727,1.42792 -1.993,1.42792 -0.266,0 -0.941,0.42519 -1.5,0.94486 -0.558,0.51967 -1.867,1.44528 -2.907,2.05691 -1.041,0.61163 -1.995,1.37979 -2.12,1.70701 -0.125,0.32723 -0.527,0.59496 -0.894,0.59496 -0.423,0 -0.582,0.22186 -0.434,0.60708 0.128,0.33389 0.101,0.58753 -0.06,0.56365 -0.826,-0.12341 -1.308,0.11491 -1.308,0.64669 0,0.35952 -0.583,0.70323 -1.479,0.87185 -1.583,0.29783 -3.181,1.57402 -2.782,2.22137 0.133,0.2162 -0.1,0.3931 -0.514,0.3931 -0.416,0 -0.949,0.19323 -1.185,0.4294 -0.356,0.3577 -1.261,0.58401 -3.063,0.76643 -0.152,0.0155 -0.393,0.39529 -0.535,0.84407 -0.143,0.44878 -0.481,0.81596 -0.753,0.81596 -0.339,0 -0.505,0.92898 -0.529,2.95785 -0.02,1.62682 -0.157,4.33479 -0.306,6.0177 -0.809,9.1549 -0.854,10.16665 -0.494,11.28711 0.156,0.48599 0.107,0.99334 -0.109,1.12744 -0.223,0.13823 -0.262,0.72736 -0.09,1.36027 0.167,0.61405 0.25,2.0344 0.185,3.15635 -0.344,5.88578 -0.355,6.80368 -0.08,6.97224 0.446,0.2762 0.237,1.7984 -0.247,1.80557 -0.278,0.004 -0.283,0.1087 -0.01,0.30598 0.469,0.34562 0.736,3.25159 0.636,6.93166 -0.05,1.74095 0.132,2.8396 0.563,3.45661 0.904,1.29554 0.781,1.94688 -0.37,1.94688 -0.55,0 -1.328,0.35228 -1.728,0.78285 -0.825,0.88692 -2.224,1.23346 -3.912,0.96893 z m 0.947,-2.18384 c 0,-0.23763 0.229,-0.29787 0.508,-0.13386 0.28,0.16401 0.188,-0.0691 -0.203,-0.51802 -0.729,-0.83534 -0.966,-1.56947 -0.392,-1.21398 0.175,0.10896 0.319,-0.15559 0.319,-0.5879 0,-0.4323 -0.189,-0.78881 -0.421,-0.79225 -0.232,-0.003 -0.173,-0.16408 0.13,-0.35698 0.385,-0.2445 0.416,-0.43527 0.102,-0.6298 -0.589,-0.36493 -0.583,-1.86283 0,-1.86283 0.328,0 0.322,-0.16179 -0.02,-0.57565 -0.262,-0.31661 -0.325,-0.66957 -0.14,-0.78437 0.185,-0.11479 0.224,-1.46217 0.09,-2.99417 -0.138,-1.532 -0.123,-2.96905 0.03,-3.19344 0.219,-0.31365 0.231,-12.48134 0.01,-15.19725 -0.02,-0.28048 -0.04,-0.92305 -0.04,-1.42793 0,-0.50487 -0.06,-1.65231 -0.122,-2.54987 -0.07,-0.89755 0.02,-2.13679 0.185,-2.75386 0.184,-0.67426 0.145,-1.12195 -0.1,-1.12195 -0.221,0 -0.291,-0.17979 -0.156,-0.39955 0.136,-0.21975 0.06,-0.75571 -0.176,-1.19102 -0.309,-0.57994 -0.287,-0.83707 0.08,-0.96204 0.402,-0.13581 0.402,-0.29559 0,-0.78441 -0.277,-0.33762 -0.38,-0.73846 -0.229,-0.89075 0.152,-0.15229 0.328,-1.19883 0.392,-2.32565 0.09,-1.63366 -0.03,-2.10121 -0.585,-2.30768 -0.385,-0.14241 -0.825,-0.4474 -0.978,-0.67776 -0.368,-0.55302 -0.158,27.19072 0.21,27.78822 0.157,0.25373 0.129,0.55804 -0.06,0.67624 -0.409,0.25339 -0.369,1.47989 0.07,2.19453 0.17,0.27654 0.141,0.5028 -0.07,0.5028 -0.482,0 -0.528,4.95735 -0.05,5.53796 0.198,0.24102 0.249,0.88358 0.114,1.42793 -0.135,0.54435 -0.268,1.54049 -0.296,2.21366 -0.03,0.67316 -0.215,1.48179 -0.418,1.79695 -0.254,0.39576 -0.222,0.48296 0.102,0.28191 0.284,-0.17604 0.494,6.3e-4 0.53,0.44693 0.176,2.16087 0.697,3.7979 1.207,3.7979 0.198,0 0.36,-0.19443 0.36,-0.43206 z m 2.677,-0.34991 c -0.07,-0.13089 0,-0.60517 0.166,-1.05394 0.166,-0.44878 0.147,-1.22904 -0.04,-1.73392 -0.193,-0.51966 -0.185,-0.91795 0.02,-0.91795 0.406,0 0.337,-1.04841 -0.1,-1.48412 -0.155,-0.15609 -0.283,-0.64002 -0.283,-1.07541 0,-0.57665 0.194,-0.72409 0.712,-0.54297 0.631,0.22037 0.64,0.19055 0.08,-0.26234 -0.493,-0.39623 -0.632,-1.32854 -0.62,-4.152 0.02,-4.58456 -0.756,-5.20217 -0.942,-0.74991 -0.257,6.17585 -0.331,11.33255 -0.169,11.76857 0.09,0.24309 0.422,0.44198 0.739,0.44198 0.316,0 0.514,-0.10709 0.44,-0.23799 z m -51.234,-8.84136 c 0.03,-0.65348 0.09,-1.27994 0.136,-1.39213 0.191,-0.45837 0.454,-4.99598 0.569,-9.79151 0.07,-2.80487 0.254,-7.85362 0.415,-11.21945 0.484,-10.08066 0.493,-12.03454 0.05,-12.04781 -0.225,-0.007 -0.115,-0.18537 0.245,-0.39678 0.713,-0.41773 0.715,-3.09318 0,-4.96905 -0.226,-0.597 -0.228,-1.25184 0,-1.65369 0.205,-0.36591 0.226,-0.75573 0.05,-0.86626 -0.178,-0.11053 -0.293,-1.31825 -0.254,-2.68381 0.04,-1.36556 -0.08,-2.57656 -0.267,-2.69111 -0.185,-0.11454 -0.146,-0.75498 0.09,-1.42318 0.571,-1.64135 1.81,-1.6094 1.634,0.0421 -0.01,0.13041 1.005,0.27889 2.263,0.32997 1.301,0.0528 2.476,0.32524 2.723,0.63131 0.383,0.47482 1.09,0.66563 4.502,1.2149 0.447,0.072 1.271,0.32606 1.83,0.56452 1.356,0.57818 3.337,1.05094 3.966,0.94659 0.28,-0.0464 0.509,0.0949 0.509,0.31402 0,0.21911 0.412,0.52729 0.915,0.68485 0.503,0.15756 1.017,0.4448 1.142,0.63833 0.124,0.19352 1.909,0.47165 3.966,0.61807 2.056,0.14642 3.739,0.41399 3.739,0.59462 0,0.18062 0.655,0.45169 1.456,0.60239 0.801,0.15069 1.546,0.50909 1.656,0.79643 0.299,0.78251 7.394,1.65021 14.684,1.79598 1.042,0.0208 1.321,0.19923 1.321,0.84239 0,0.5085 0.272,0.81596 0.72,0.81596 0.577,0 0.718,-0.34441 0.712,-1.73392 0,-0.95365 -0.179,-1.85761 -0.388,-2.0088 -0.228,-0.16439 -0.185,-0.51205 0.107,-0.86487 0.409,-0.49358 0.218,-0.63327 -1.164,-0.85494 -0.908,-0.14574 -1.563,-0.40884 -1.455,-0.58467 0.109,-0.17584 -0.341,-0.28234 -0.999,-0.23667 -0.657,0.0457 -1.297,-0.0823 -1.422,-0.28438 -0.124,-0.20207 -0.843,-0.36741 -1.597,-0.36741 -0.754,0 -1.612,-0.22949 -1.908,-0.50997 -0.897,-0.85143 -4.86,-2.03394 -7.544,-2.2511 -1.599,-0.12936 -2.436,-0.36057 -2.272,-0.62716 0.155,-0.25188 0,-0.32483 -0.367,-0.18081 -0.345,0.13279 -0.833,0.0355 -1.084,-0.21625 -0.251,-0.25174 -0.456,-0.35289 -0.456,-0.22479 0,0.41957 -3.786,-0.46569 -4.443,-1.03888 -0.353,-0.30764 -1.997,-0.75538 -3.653,-0.99499 -1.657,-0.23961 -3.121,-0.60179 -3.255,-0.80485 -0.282,-0.42987 -2,-0.89227 -4.309,-1.15951 -0.895,-0.10357 -1.822,-0.44319 -2.059,-0.75472 -0.238,-0.31152 -0.923,-0.68996 -1.523,-0.84097 -0.6,-0.151 -1.012,-0.40102 -0.917,-0.55559 0.1,-0.15457 -0.318,-0.26161 -0.918,-0.23787 -0.6,0.0237 -1.274,-0.0548 -1.498,-0.17464 -0.224,-0.11979 -0.59,-0.22787 -0.814,-0.24019 -0.223,-0.0123 -1.001,-0.16945 -1.728,-0.34918 -1.363,-0.33694 -1.705,-0.85013 -0.814,-1.22228 0.366,-0.15284 0.3,-0.38165 -0.235,-0.81631 -0.524,-0.42497 -0.782,-1.27978 -0.872,-2.8844 -0.07,-1.25425 0.02,-2.37166 0.199,-2.48315 0.357,-0.22125 0.32,-0.98389 -0.08,-1.62739 -0.139,-0.22439 -0.169,-2.79466 -0.07,-5.71172 0.103,-2.91705 0.182,-7.32323 0.175,-9.79151 v -5.71172 c 0,-0.67317 -0.01,-1.49932 -0.03,-1.83591 -0.187,-2.61215 -0.151,-21.21411 0.04,-21.21448 0.135,-2.6e-4 0.252,-1.97407 0.26,-4.38625 0,-2.41218 0.1,-5.76272 0.205,-7.44563 0.105,-1.68292 0.04,-3.47293 -0.148,-3.9778 -0.205,-0.5563 -0.182,-0.91796 0.06,-0.91796 0.56,0 2.005,-1.51463 1.718,-1.80191 -0.13,-0.13089 0,-0.23799 0.278,-0.23799 0.283,0 1.091,-0.26291 1.796,-0.58425 0.705,-0.32134 1.648,-0.64928 2.096,-0.72876 0.477,-0.0848 0.768,-0.4139 0.704,-0.79634 -0.118,-0.70769 -0.262,-0.66469 6.21,-1.85037 2.632,-0.48213 4.034,-0.91774 3.971,-1.23414 -0.05,-0.26895 0.639,-0.68765 1.538,-0.93045 0.899,-0.24279 1.526,-0.61647 1.395,-0.83039 -0.132,-0.21391 0.04,-0.38893 0.394,-0.38893 0.349,0 1.007,-0.37388 1.463,-0.83085 0.455,-0.45696 1.033,-0.70398 1.283,-0.54893 0.276,0.17138 0.341,0.0972 0.164,-0.18911 -0.159,-0.25906 -0.142,-0.47547 0.04,-0.48092 2.224,-0.0669 4.949,-0.62041 5.515,-1.1204 0.392,-0.34544 0.715,-0.46193 0.718,-0.25886 0,0.20307 0.141,0.18563 0.305,-0.0388 0.67,-0.91417 4.127,-2.10557 8.186,-2.82076 0.31,-0.0547 0.788,-0.40631 1.061,-0.78127 0.274,-0.37497 0.752,-0.69626 1.063,-0.71397 0.311,-0.0177 0.03,-0.22657 -0.62,-0.46412 -0.966,-0.35206 -1.274,-0.30865 -1.671,0.23479 -0.267,0.36668 -1.061,0.78208 -1.764,0.9231 -0.703,0.14101 -1.278,0.41704 -1.278,0.61338 0,0.19634 -0.52,0.35698 -1.156,0.35698 -0.635,0 -1.998,0.25449 -3.029,0.56555 -1.03,0.31105 -1.989,0.44903 -2.131,0.30662 -0.142,-0.1424 -0.472,0.0239 -0.734,0.3695 -0.705,0.93296 -3.317,2.05007 -6.215,2.65821 -2.243,0.47067 -4.728,1.72062 -5.489,2.76073 -0.135,0.1853 -0.981,0.43576 -1.879,0.55657 -1.138,0.15306 -1.618,0.41052 -1.584,0.84928 0.05,0.62355 -0.4,0.75537 -7.326,2.15586 -1.492,0.30149 -2.072,0.6049 -2.034,1.06243 0.03,0.41546 -0.683,0.92442 -2.042,1.44893 -1.889,0.72854 -2.121,0.95592 -2.348,2.299 -0.218,1.28714 -0.32,3.84558 -0.206,5.16232 0.02,0.22439 -0.04,6.19109 -0.143,13.25934 -0.1,7.06825 -0.06,14.1001 0.08,15.62633 0.142,1.52623 0.129,2.98619 -0.03,3.24436 -0.159,0.25817 -0.186,0.63683 -0.06,0.84147 0.126,0.20464 0.252,2.14111 0.281,4.30327 0.03,2.16215 0.198,4.16068 0.378,4.44116 0.179,0.28049 0.166,0.50998 -0.03,0.50998 -0.196,0 -0.359,0.68846 -0.363,1.52992 0,1.68505 -0.55,9.8373 -0.731,10.9982 -0.06,0.40217 0.03,1.13067 0.215,1.61888 0.181,0.48821 0.191,2.18643 0.02,3.77381 -0.169,1.58739 -0.199,2.88616 -0.07,2.88616 0.399,0 0.437,1.16651 0.317,9.68952 -0.04,2.97315 -0.175,5.40575 -0.294,5.40578 -0.119,3e-5 -0.238,2.4326 -0.265,5.40573 -0.03,2.97313 -0.128,6.04825 -0.226,6.83361 -0.1,0.78537 -0.05,2.02558 0.107,2.75604 0.158,0.73046 0.144,1.41619 -0.03,1.52384 -0.173,0.10766 -0.245,2.17208 -0.16,4.5876 0.264,7.45978 0.252,11.62638 -0.04,14.38737 -0.155,1.45853 -0.269,2.92726 -0.252,3.26384 0.02,0.33659 0.03,1.77694 0.02,3.2008 0,1.93264 0.123,2.54402 0.514,2.41208 0.288,-0.0972 0.546,-0.71141 0.574,-1.36489 z m 2.186,0.46786 c 0,-0.0989 -0.183,-0.29338 -0.406,-0.43206 -0.224,-0.13868 -0.407,-0.0577 -0.407,0.17991 0,0.23763 0.183,0.43206 0.407,0.43206 0.223,0 0.406,-0.081 0.406,-0.17991 z m 1.22,-1.97634 c 0,-0.0482 -0.457,-0.11412 -1.017,-0.14648 -0.984,-0.057 -1.289,0.26136 -0.759,0.79245 0.212,0.21247 1.777,-0.35682 1.776,-0.64597 z m -1.174,-1.00559 c 0.231,-1.5374 0.181,-2.95786 -0.104,-2.95786 -0.192,0 -0.348,0.44396 -0.348,0.98658 0,0.54262 -0.112,1.27699 -0.247,1.63192 -0.136,0.35494 -0.05,0.64534 0.203,0.64534 0.248,0 0.471,-0.13769 0.496,-0.30598 z m 0.233,-5.00827 c 0.07,-0.443 -0.06,-0.80545 -0.277,-0.80545 -0.219,0 -0.362,0.45026 -0.317,1.00057 0.09,1.12616 0.409,1.02238 0.594,-0.19512 z m 48.522,-0.57085 c -0.547,-0.54876 -0.954,0.007 -0.628,0.85832 0.233,0.61079 0.331,0.62947 0.643,0.123 0.222,-0.36018 0.216,-0.74958 -0.01,-0.98132 z m 0.03,-2.1725 c 0.07,-5.416 0.351,-15.19046 0.46,-16.2172 0.07,-0.67316 0.295,-1.48179 0.497,-1.79695 0.265,-0.41235 0.224,-0.48383 -0.145,-0.25494 -0.392,0.24305 -0.445,0.01 -0.227,-0.98885 0.447,-2.04176 0.53,-3.28741 0.23,-3.4733 -0.151,-0.0938 -0.228,-1.09685 -0.171,-2.22905 l 0.104,-2.05853 -0.851,0.79518 c -0.804,0.75166 -0.85,1.20362 -0.84,8.25667 0,4.10382 0.06,9.11381 0.123,11.13331 0.06,2.0195 0.06,3.85541 0,4.0798 -0.06,0.22438 -0.09,1.28003 -0.06,2.34588 0.06,2.27971 0.852,2.64742 0.882,0.40798 z m 32.927,-1.32593 c 0,-0.44878 0.137,-0.81598 0.305,-0.81599 0.168,-2e-5 0.299,-3.8693 0.292,-8.59841 0,-4.7291 0.139,-8.69264 0.325,-8.80786 0.185,-0.11521 0.137,-0.45218 -0.109,-0.74881 -0.314,-0.37937 -0.318,-0.61895 -0.01,-0.80782 0.238,-0.14768 0.293,-0.48531 0.122,-0.75029 -0.352,-0.54376 -0.43,-3.13335 -0.09,-3.13353 0.12,-7e-5 0.218,-0.36731 0.218,-0.81608 0,-0.44878 -0.105,-0.81596 -0.233,-0.81596 -0.128,0 -0.232,-0.37173 -0.232,-0.82606 0,-0.54793 0.195,-0.75083 0.58,-0.60263 0.45,0.17318 0.477,0.0982 0.12,-0.33342 -0.253,-0.30627 -0.34,-0.67766 -0.193,-0.8253 0.147,-0.14765 0.03,-0.26845 -0.257,-0.26845 -0.39,0 -0.409,-0.13906 -0.08,-0.54173 0.287,-0.34672 0.325,-0.97226 0.106,-1.73768 -0.188,-0.65777 -0.192,-1.60149 0,-2.09715 0.183,-0.49567 0.176,-0.99787 -0.01,-1.11601 -0.191,-0.11814 -0.202,-0.85835 -0.03,-1.6449 0.229,-1.02053 0.181,-1.43011 -0.168,-1.43011 -0.507,0 -0.546,-2.02707 -0.05,-2.82568 0.149,-0.24098 0.183,-0.43816 0.08,-0.43816 -0.107,0 -0.47,-0.10629 -0.808,-0.23621 -0.461,-0.17739 -0.558,-0.025 -0.392,0.61197 0.144,0.55202 0.03,0.85037 -0.335,0.85443 -0.433,0.005 -0.421,0.0918 0.05,0.39311 0.813,0.51525 0.736,15.16878 -0.18,34.23419 -0.112,2.33147 -0.107,4.39687 0.01,4.58977 0.395,0.64072 0.982,0.3626 0.982,-0.46523 z m -81.52,-1.42793 c -0.136,-0.74978 0,-1.02849 0.5,-1.05216 0.423,-0.0199 0.491,-0.11081 0.177,-0.23799 -0.28,-0.11318 -0.512,-0.60356 -0.515,-1.08974 0,-0.576 -0.116,-0.7105 -0.322,-0.38608 -0.173,0.27383 -0.281,1.09999 -0.24,1.83591 0.102,1.80819 0.129,1.95001 0.373,1.95001 0.116,0 0.128,-0.45898 0.03,-1.01995 z m 78.707,-0.50998 c 0.02,-0.61707 0.109,-2.31528 0.2,-3.77381 0.09,-1.45853 0.242,-4.21239 0.337,-6.1197 0.1,-1.9073 0.21,-3.55962 0.254,-3.67182 0.04,-0.11219 0.05,-0.54534 0,-0.96255 -0.04,-0.41721 0.09,-0.65477 0.292,-0.52792 0.204,0.12685 0.372,-0.0367 0.372,-0.36338 0,-0.32672 -0.123,-0.59403 -0.273,-0.59403 -0.492,0 -0.398,-2.98421 0.113,-3.61804 0.403,-0.49959 0.394,-0.55479 -0.05,-0.28737 -0.432,0.26075 -0.506,0.0176 -0.35,-1.14563 0.127,-0.94795 0.03,-1.47887 -0.265,-1.48288 -0.323,-0.004 -0.331,-0.0975 -0.03,-0.30598 0.633,-0.43479 1.012,-1.6643 0.593,-1.9241 -0.204,-0.12662 -0.209,-0.74776 -0.01,-1.44099 0.192,-0.67014 0.195,-1.21844 0,-1.21844 -0.188,0 -0.281,-0.32128 -0.206,-0.71397 0.08,-0.39268 0.166,-0.71396 0.201,-0.71396 0.04,0 0.111,-0.41308 0.167,-0.91795 0.06,-0.50488 -0.07,-0.91796 -0.287,-0.91796 -0.214,0 -0.161,-0.27539 0.118,-0.61197 0.404,-0.48823 0.404,-0.7357 0,-1.22394 -0.409,-0.49337 -0.399,-0.61318 0.05,-0.61821 0.35,-0.004 0.401,-0.11774 0.135,-0.30599 -0.232,-0.16486 -0.398,-1.0341 -0.369,-1.93166 0.03,-0.89755 -0.123,-1.8614 -0.339,-2.14189 -0.259,-0.33704 -0.242,-0.50998 0.05,-0.50998 0.609,0 0.139,-1.10741 -0.588,-1.3872 -0.459,-0.1766 -0.501,-0.0628 -0.191,0.51793 0.271,0.50775 0.248,0.89378 -0.07,1.21475 -0.354,0.35532 -0.353,0.47048 0,0.47048 0.262,0 0.369,0.27773 0.24,0.61717 -0.13,0.33944 -0.03,0.86121 0.212,1.15948 0.247,0.29828 0.346,0.64542 0.22,0.77142 -0.125,0.12601 -0.302,2.67939 -0.392,5.67418 -0.197,6.4885 -0.538,14.82861 -0.608,14.82861 -0.264,0 -0.761,14.10428 -0.519,14.73834 0.364,0.95123 0.94,0.62054 0.976,-0.56104 z m -36.148,-8.11824 c -0.155,-0.81451 -0.08,-0.9999 0.323,-0.75292 0.385,0.23879 0.428,0.17225 0.16,-0.24535 -0.202,-0.31515 -0.397,-3.23508 -0.433,-6.48872 -0.09,-8.33348 -0.08,-8.15959 -0.674,-8.15959 -0.372,0 -0.562,0.71865 -0.62,2.34588 -0.114,3.19005 -0.31,4.8137 -0.645,5.35724 -0.154,0.25106 -0.09,0.45647 0.14,0.45647 0.261,0 0.298,0.3482 0.1,0.91796 -0.408,1.15705 -0.354,6.45834 0.07,7.13964 0.176,0.28049 0.65,0.50998 1.053,0.50998 0.573,0 0.688,-0.23509 0.527,-1.08059 z m -41.34,-7.22621 c 0.06,-0.39322 -0.09,-0.6487 -0.336,-0.56774 -0.242,0.081 -0.488,0.46893 -0.545,0.86215 -0.06,0.39322 0.09,0.6487 0.336,0.56774 0.242,-0.081 0.487,-0.46893 0.545,-0.86215 z m -0.02,-3.14378 c 0.417,-0.67733 0.04,-0.77125 -0.541,-0.1357 -0.289,0.31396 -0.346,0.57083 -0.126,0.57083 0.219,0 0.519,-0.19581 0.667,-0.43513 z m 0.186,-4.23256 c 0,-0.099 -0.183,-0.29338 -0.406,-0.43206 -0.224,-0.13868 -0.407,-0.0577 -0.407,0.17991 0,0.23763 0.183,0.43206 0.407,0.43206 0.223,0 0.406,-0.081 0.406,-0.17991 z m 0.09,-1.85999 c -0.116,-0.79185 -0.414,-1.22174 -0.845,-1.21769 -0.394,0.004 -0.494,0.12829 -0.245,0.30598 0.231,0.16486 0.408,0.57512 0.393,0.91171 -0.02,0.46602 0.446,1.13782 0.845,1.21769 0.02,0.003 -0.05,-0.54453 -0.148,-1.21769 z m 47.139,-0.15416 c -0.557,-0.67316 0.156,-0.9746 4.001,-1.69103 0.848,-0.15797 1.899,-0.80799 2.668,-1.65021 0.705,-0.77223 1.846,-1.50525 2.567,-1.64995 0.714,-0.14321 1.304,-0.46692 1.311,-0.71936 0.02,-0.75152 2.016,-1.9834 2.855,-1.7632 0.638,0.16723 0.71,0.0745 0.396,-0.51217 -0.298,-0.56032 -0.164,-0.8332 0.618,-1.25284 0.549,-0.29506 0.999,-0.68905 0.999,-0.87552 0,-0.18647 0.372,-0.33904 0.826,-0.33904 0.455,0 0.929,-0.26839 1.055,-0.59644 0.125,-0.32804 0.58,-0.70844 1.01,-0.84533 0.43,-0.13689 0.668,-0.43421 0.528,-0.6607 -0.15,-0.24423 0.135,-0.35679 0.701,-0.27661 0.626,0.0885 0.957,-0.0699 0.96,-0.45838 0,-0.32647 0.462,-0.70637 1.021,-0.84422 0.62,-0.15271 0.995,-0.51856 0.961,-0.93635 -0.03,-0.37714 0.198,-0.6857 0.508,-0.6857 0.311,0 0.565,-0.25549 0.565,-0.56775 0,-0.31225 0.496,-0.6925 1.102,-0.84498 0.605,-0.15248 1.796,-0.90675 2.645,-1.67615 0.849,-0.76939 1.909,-1.3989 2.356,-1.3989 0.447,0 0.812,-0.23459 0.812,-0.5213 0,-0.72881 1.598,-2.02496 2.208,-1.79039 0.546,0.21019 0.552,0.18772 0.764,-2.70499 0.08,-1.07626 0.04,-2.01316 -0.09,-2.082 -0.65,-0.34487 -2.88,0.65816 -2.884,1.29663 0,0.68968 -3.316,2.46465 -4.147,2.22212 -0.211,-0.0617 -0.276,0.0628 -0.144,0.27661 0.132,0.21379 -0.129,0.5061 -0.58,0.64957 -0.451,0.14347 -0.819,0.43207 -0.819,0.64134 0,0.20927 -0.254,0.38049 -0.563,0.38049 -0.31,0 -0.653,0.3477 -0.764,0.77267 -0.125,0.47691 -0.727,0.88458 -1.573,1.06505 -1.689,0.36005 -5.881,2.84493 -6.198,3.67395 -0.128,0.33441 -0.604,0.60803 -1.059,0.60803 -0.454,0 -0.827,0.22948 -0.828,0.50997 0,0.28049 -0.505,0.826 -1.119,1.21225 -0.614,0.38626 -1.391,0.88159 -1.726,1.10074 -0.649,0.42387 -2.212,1.23417 -4.373,2.26756 -0.727,0.34768 -1.322,0.83291 -1.322,1.0783 0,0.24538 -0.274,0.34048 -0.61,0.21132 -0.336,-0.12916 -0.612,-0.10291 -0.615,0.0583 0,0.16125 -0.735,0.644 -1.627,1.07278 -0.892,0.42878 -1.622,0.9382 -1.622,1.13205 0,0.19384 -0.412,0.50949 -0.915,0.70143 -0.82,0.31272 -0.907,0.59792 -0.834,2.74377 0.04,1.31712 0.113,2.44067 0.152,2.49676 0.04,0.0561 0.1,0.23969 0.129,0.40798 0.09,0.48629 0.68,1.32594 0.931,1.32594 0.127,0 0.02,-0.25296 -0.235,-0.56214 z m -47.515,-2.7017 c 0.121,-0.46119 0,-0.82996 -0.257,-0.84817 -0.316,-0.0216 -0.304,-0.0998 0.04,-0.23799 0.652,-0.26391 0.648,-1.01459 -0.01,-1.91818 -0.444,-0.60888 -0.518,-0.3831 -0.508,1.55383 0.01,2.28926 0.347,2.95044 0.738,1.45051 z m 0.09,-4.48778 c -0.138,-0.22439 -0.434,-0.40798 -0.658,-0.40798 -0.224,0 -0.294,0.18359 -0.156,0.40798 0.139,0.22439 0.435,0.40798 0.659,0.40798 0.223,0 0.293,-0.18359 0.155,-0.40798 z m 45.852,-0.96612 c 0.511,-0.51223 2.103,-1.20949 2.872,-1.25771 0.176,-0.011 0.451,-0.23104 0.61,-0.4889 0.16,-0.25787 0.748,-0.53334 1.307,-0.61217 0.675,-0.095 0.998,-0.38506 0.96,-0.86055 -0.06,-0.70382 0.485,-0.94774 2.701,-1.21775 0.6,-0.073 0.969,-0.34986 0.899,-0.67424 -0.07,-0.33588 0.113,-0.46138 0.475,-0.32206 0.326,0.12556 0.694,-0.0355 0.817,-0.35793 0.123,-0.32241 0.505,-0.5862 0.847,-0.5862 0.343,0 0.623,-0.27539 0.623,-0.61197 0,-0.37871 0.383,-0.61197 1.004,-0.61197 0.769,0 0.943,-0.1589 0.745,-0.67755 -0.204,-0.53236 -0.08,-0.62968 0.593,-0.45416 0.58,0.15237 0.789,0.0595 0.654,-0.29206 -0.115,-0.30063 0.232,-0.62352 0.833,-0.77473 0.566,-0.14259 1.355,-0.60332 1.753,-1.02383 0.397,-0.42052 1.501,-0.89354 2.453,-1.05117 0.952,-0.15762 1.633,-0.4447 1.514,-0.63795 -0.268,-0.43527 1.315,-1.32959 1.811,-1.02257 0.198,0.12289 0.264,-0.14401 0.147,-0.5931 -0.148,-0.56804 -0.01,-0.81652 0.445,-0.81652 0.362,0 0.659,-0.13769 0.662,-0.30599 0,-0.16829 1.022,-0.76035 2.267,-1.31569 1.245,-0.55535 2.067,-1.07552 1.827,-1.15595 -0.612,-0.20449 -0.55,-0.94806 0.07,-0.84773 0.279,0.0452 0.783,-0.0278 1.118,-0.16222 0.336,-0.13444 0.961,-0.30109 1.39,-0.37033 0.429,-0.0692 0.856,-0.35537 0.949,-0.63585 0.15,-0.45186 -1.673,-0.71635 -4.271,-0.61958 -0.466,0.0174 -0.678,-0.44509 -0.556,-1.21633 0.03,-0.16829 -0.364,-0.32003 -0.867,-0.3372 -2.022,-0.0689 -3.711,-0.61652 -3.41,-1.10522 0.11,-0.17942 -0.29,-0.36957 -0.889,-0.42254 -2.685,-0.2371 -3.439,-0.40946 -3.709,-0.84745 -0.159,-0.2577 -0.681,-0.54419 -1.159,-0.63663 -0.479,-0.0924 -1.472,-0.42953 -2.207,-0.74907 -3.122,-1.35644 -3.721,-1.51161 -5.831,-1.51161 -1.22,0 -2.218,-0.1377 -2.218,-0.30599 0,-0.16829 -0.412,-0.33568 -0.915,-0.37198 -3.512,-0.25322 -7.893,-1.16481 -8.326,-1.73259 -0.404,-0.52892 -0.498,-0.54049 -0.508,-0.0624 0,0.41315 -0.261,0.31988 -0.851,-0.31503 -0.461,-0.49607 -0.997,-0.80307 -1.192,-0.68224 -0.195,0.12083 -0.47,0.0331 -0.61,-0.19495 -0.383,-0.62207 -2.072,-0.49893 -2.644,0.19284 -0.277,0.33412 -0.665,0.50687 -0.864,0.38391 -0.198,-0.12297 -0.36,0.0179 -0.36,0.31313 0,0.55808 -2.616,1.55135 -4.086,1.55135 -0.464,0 -0.736,0.17431 -0.605,0.38736 0.131,0.21305 -0.453,0.50447 -1.298,0.6476 -2.47,0.41824 -2.821,0.56899 -3.936,1.68695 -0.582,0.58364 -1.065,0.89844 -1.074,0.69955 0,-0.19889 -0.297,0.15774 -0.64,0.79251 -0.362,0.66929 -0.853,1.06573 -1.17,0.94371 -0.301,-0.11572 -0.651,0.0621 -0.779,0.39515 -0.127,0.33306 -0.792,0.80167 -1.478,1.04136 -0.685,0.23969 -1.147,0.53538 -1.026,0.65708 0.429,0.42969 -0.698,1.3163 -1.672,1.3163 -0.543,0 -1.482,0.25629 -2.086,0.56954 -0.604,0.31325 -1.624,0.63453 -2.266,0.71397 -0.641,0.0794 -1.798,0.74109 -2.571,1.47036 -0.772,0.72926 -1.665,1.32593 -1.985,1.32593 -0.32,0 -0.581,0.16013 -0.581,0.35584 0,0.19571 -0.741,0.47464 -1.646,0.61986 -0.906,0.14521 -1.539,0.43868 -1.407,0.65215 0.131,0.21347 -0.209,0.50085 -0.756,0.63863 -0.548,0.13778 -1.087,0.60214 -1.199,1.03191 -0.188,0.72073 -1.337,1.03027 -3.019,0.81336 -0.294,-0.0379 -0.403,0.19519 -0.262,0.56363 0.211,0.55039 1.197,0.80137 2.899,0.73796 0.28,-0.0104 0.509,0.13562 0.509,0.32453 0,0.45095 2.7,1.19262 4.352,1.19551 0.777,10e-4 1.451,0.26962 1.672,0.66524 0.203,0.36464 0.853,0.66297 1.444,0.66297 0.663,0 1.074,0.22457 1.074,0.58662 0,0.32711 0.315,0.53968 0.711,0.48053 0.912,-0.13592 4.814,0.77516 6.435,1.50262 1.045,0.46916 2.914,0.78083 5.792,0.96583 0.293,0.0188 0.427,0.20513 0.299,0.41401 -0.129,0.20889 -0.02,0.51264 0.242,0.67501 0.297,0.18437 0.367,0.11837 0.186,-0.1758 -0.185,-0.30066 0.03,-0.47102 0.591,-0.47102 0.616,0 0.81,0.18408 0.647,0.61197 -0.189,0.49207 0.151,0.61197 1.736,0.61197 2.538,0 4.559,0.40898 4.278,0.86564 -0.121,0.19706 0.385,0.38971 1.125,0.42809 2.53,0.13118 2.727,0.15904 2.991,0.42433 0.146,0.14609 0.552,0.15528 0.902,0.0204 0.405,-0.15585 0.536,-0.08 0.358,0.20819 -0.184,0.2981 0.316,0.50704 1.459,0.61002 3.594,0.3239 4.338,0.2844 4.88,-0.25896 z m 34.889,-6.37751 c 0,-0.44878 -0.193,-0.81596 -0.43,-0.81596 -0.237,0 -0.318,0.18359 -0.18,0.40798 0.139,0.22438 0.01,0.41079 -0.281,0.41422 -0.387,0.005 -0.365,0.11436 0.08,0.40174 0.814,0.52776 0.813,0.52812 0.813,-0.40798 z m -1.918,-1.91936 c -0.275,-0.71837 -1.336,-0.67224 -1.336,0.0581 0,0.32375 0.345,0.56059 0.769,0.52853 0.449,-0.0339 0.685,-0.27783 0.567,-0.58662 z m 2.163,-0.31864 c 0.06,-0.42121 -0.06,-1.08858 -0.271,-1.48305 -0.245,-0.45903 -0.236,-0.80823 0.03,-0.97004 0.604,-0.3745 0.495,-1.02063 -0.173,-1.02063 -0.439,0 -0.571,0.55259 -0.539,2.25413 0.04,2.11436 0.703,2.95949 0.958,1.21959 z m -80.552,-3.83818 c -0.124,-0.20045 0.236,-0.48051 0.799,-0.62235 2.174,-0.54723 2.473,-1.31101 2.415,-6.1731 -0.03,-2.45713 0.09,-4.8806 0.274,-5.38547 0.186,-0.51856 0.169,-0.91796 -0.04,-0.91796 -0.204,0 -0.234,-0.50136 -0.07,-1.12194 0.166,-0.61707 0.258,-2.22099 0.205,-3.56428 -0.06,-1.52618 0.08,-2.55684 0.382,-2.74761 0.358,-0.22848 0.35,-0.30686 -0.03,-0.31153 -0.356,-0.004 -0.465,-0.6147 -0.367,-2.04615 0.08,-1.12195 0,-2.0399 -0.155,-2.0399 -0.163,0 -0.246,-1.05565 -0.185,-2.34588 0.06,-1.29024 0.139,-2.34589 0.174,-2.34589 0.03,0 0.139,-4.68157 0.234,-10.40348 0.296,-17.92756 0.391,-19.654 1.162,-21.13048 0.385,-0.73891 1.196,-1.55382 1.8,-1.81092 1.522,-0.64727 4.579,-0.77511 5.656,-0.23652 1.079,0.54 1.274,1.36807 1.564,6.65474 0.123,2.24388 0.271,4.67646 0.329,5.40573 0.06,0.72926 0,1.32603 -0.122,1.32615 -0.124,1.2e-4 -0.186,1.97372 -0.137,4.38578 0.132,6.54618 0.515,19.23373 0.641,21.24545 0.06,0.97055 0,1.83811 -0.154,1.92791 -0.266,0.16509 -0.102,2.81294 0.233,3.75309 0.1,0.28049 0.05,0.51002 -0.11,0.51006 -0.161,5e-5 -0.31,2.38673 -0.332,5.30374 -0.03,4.61659 0.05,5.29838 0.61,5.26298 0.926,-0.058 2.785,-0.68586 2.175,-0.73462 -0.919,-0.0735 -0.532,-0.6688 0.749,-1.1538 0.703,-0.26611 1.141,-0.6654 0.993,-0.9054 -0.154,-0.24997 0.103,-0.42935 0.616,-0.42935 0.953,0 3.348,-1.79023 2.941,-2.19851 -0.137,-0.13715 0.04,-0.24937 0.386,-0.24937 0.349,0 0.735,-0.26246 0.857,-0.58324 0.123,-0.32079 1.012,-0.76011 1.976,-0.97626 0.964,-0.21616 1.468,-0.41267 1.121,-0.4367 -0.521,-0.0361 -0.589,-0.43522 -0.385,-2.28758 0.135,-1.23414 0.1,-2.24389 -0.08,-2.24389 -0.179,0 -0.326,-0.27539 -0.326,-0.61197 0,-0.33659 0.205,-0.61197 0.456,-0.61197 0.316,0 0.301,-0.18916 -0.05,-0.61197 -0.416,-0.50271 -0.385,-0.61197 0.177,-0.61197 0.445,0 0.574,-0.1787 0.369,-0.50998 -0.508,-0.81993 -0.482,-11.47912 0.03,-11.82516 0.3,-0.20357 0.304,-0.30174 0.01,-0.30599 -0.284,-0.004 -0.395,-1.70073 -0.328,-5.004 0.06,-2.74876 0.09,-6.83366 0.07,-9.07755 -0.09,-12.31674 -0.07,-15.4908 0.124,-19.47706 0.119,-2.41 0.294,-4.43727 0.389,-4.50505 0.749,-0.53237 4.113,-1.00577 5.276,-0.74261 0.773,0.17489 1.543,0.34767 1.711,0.38396 0.168,0.0363 0.499,0.066 0.736,0.066 0.236,0 0.317,0.18359 0.179,0.40798 -0.138,0.22439 -0.09,0.40798 0.116,0.40798 0.445,0 0.68,16.99065 0.476,34.36482 -0.07,5.73361 0.05,8.21792 0.389,8.63325 0.265,0.32072 0.335,0.67404 0.156,0.78516 -0.415,0.2576 -0.339,8.36176 0.08,8.7555 0.174,0.16206 0.405,0.0444 0.513,-0.26148 0.166,-0.46953 0.252,-0.46953 0.548,0 0.257,0.40725 0.353,0.41961 0.358,0.0462 0,-0.28048 0.326,-0.52447 0.718,-0.54218 0.429,-0.0194 0.509,-0.11427 0.201,-0.23875 -0.352,-0.14227 -0.225,-0.4454 0.407,-0.97416 0.663,-0.55473 0.748,-0.77313 0.307,-0.78746 -0.542,-0.0176 -0.542,-0.0638 0,-0.4153 0.479,-0.31063 0.49,-0.39683 0.05,-0.40173 -0.39,-0.004 -0.437,-0.16017 -0.156,-0.51623 0.221,-0.28048 0.343,-1.19267 0.271,-2.02708 -0.07,-0.83442 0.05,-1.63013 0.274,-1.76825 0.223,-0.13813 0.299,-0.58742 0.169,-0.99843 -0.13,-0.41101 -0.04,-0.86722 0.194,-1.0138 0.236,-0.14659 0.325,-0.43673 0.196,-0.64477 -0.128,-0.20804 -0.29,-0.70023 -0.359,-1.09376 -0.07,-0.39352 -0.251,-1.40396 -0.402,-2.24542 -0.19,-1.05222 -0.128,-1.52992 0.199,-1.52992 0.348,0 0.34,-0.16335 -0.03,-0.61197 -0.407,-0.49151 -0.401,-0.61197 0.03,-0.61197 0.399,0 0.42,-0.11873 0.08,-0.45979 -0.303,-0.30373 -0.334,-0.78838 -0.09,-1.42793 0.227,-0.598 0.219,-0.96814 -0.02,-0.96814 -0.244,0 -0.245,-0.37504 0,-1.01641 0.212,-0.55902 0.294,-1.25598 0.182,-1.54879 -0.112,-0.2928 -0.267,-2.17621 -0.345,-4.18533 -0.08,-2.00913 -0.24,-3.92834 -0.361,-4.26493 -0.354,-0.98585 -0.459,-10.0709 -0.186,-16.21719 0.07,-1.52239 -0.05,-2.5524 -0.3,-2.55613 -0.226,-0.003 -0.193,-0.14567 0.07,-0.31608 0.365,-0.23291 0.476,-1.92156 0.126,-1.92156 -0.03,0 -0.09,-0.67109 -0.133,-1.49132 -0.04,-0.82023 0.09,-1.39391 0.276,-1.27485 0.52,0.32233 -0.18,-1.6721 -0.708,-2.02134 -0.259,-0.17074 -0.278,-0.30243 -0.05,-0.30599 0.224,-0.003 0.415,-0.55702 0.424,-1.23018 0,-0.67317 -0.118,-1.22394 -0.283,-1.22394 -0.164,0 -0.204,-0.41308 -0.09,-0.91796 0.489,-2.14651 0.487,-2.14921 -1.859,-2.02019 -1.641,0.0903 -2.356,0.32721 -2.769,0.91795 -0.305,0.43794 -0.797,0.79626 -1.093,0.79626 -0.295,0 -0.765,0.27538 -1.043,0.61197 -0.325,0.3924 -1.226,0.61197 -2.51,0.61197 -1.601,0 -2.459,0.29172 -4.266,1.45136 -1.244,0.79825 -2.355,1.35777 -2.469,1.24337 -0.114,-0.1144 -0.474,0.0586 -0.799,0.38454 -0.324,0.3259 -0.96,0.59254 -1.413,0.59254 -0.466,0 -0.91,0.33612 -1.025,0.77681 -0.156,0.59986 -0.819,0.88229 -2.911,1.23984 -6.34,1.08391 -7.317,1.3456 -7.5,2.00949 -0.101,0.3661 -1.078,1.02298 -2.17,1.45974 -1.093,0.43675 -2.312,1.20571 -2.709,1.7088 -0.406,0.51484 -1.276,0.97026 -1.991,1.0418 -1.148,0.11499 -1.321,0.32167 -1.813,2.16701 -0.864,3.24368 -1.488,35.48635 -0.777,40.18601 0.274,1.81621 0.274,1.65362 0.01,5.50773 -0.245,3.62417 -0.352,16.50191 -0.152,18.25709 0.07,0.61707 0.373,1.12195 0.673,1.12195 0.3,0 0.444,-0.16401 0.321,-0.36446 z m 7.396,-4.27509 c 0.727,-0.37683 1.322,-0.80282 1.322,-0.94665 0,-0.14383 -0.12,-0.14071 -0.268,0.007 -0.147,0.14765 -0.513,0.064 -0.813,-0.18594 -0.416,-0.34634 -0.546,-0.30648 -0.546,0.16762 0,0.3421 -0.549,0.81401 -1.22,1.04868 -1.208,0.42212 -1.496,0.87237 -0.927,1.44386 0.162,0.16214 0.482,0.0374 0.712,-0.27728 0.23,-0.31464 1.013,-0.88039 1.74,-1.25722 z m 0.474,-2.61927 c 0.988,-0.47593 1.91,-0.79499 2.049,-0.70902 0.138,0.086 0.266,-0.15149 0.283,-0.5277 0.02,-0.3762 0.08,-1.80196 0.151,-3.16834 0.07,-1.36638 -0.01,-2.69742 -0.171,-2.95785 -0.16,-0.26044 -0.128,-0.47352 0.07,-0.47352 0.2,0 0.363,-0.27539 0.363,-0.61197 0,-0.33659 -0.107,-0.61182 -0.237,-0.61162 -0.285,4.2e-4 -0.175,-3.93836 0.132,-4.74038 0.118,-0.31004 0.06,-0.56371 -0.138,-0.56371 -0.195,0 -0.281,-0.59667 -0.192,-1.32594 0.09,-0.72926 0.155,-1.55542 0.149,-1.83591 -0.06,-2.32522 -0.05,-9.52779 0,-12.34138 0.04,-1.90731 -0.04,-5.85451 -0.169,-8.77157 -0.133,-2.91706 -0.301,-7.74356 -0.374,-10.72556 -0.146,-5.97359 -0.499,-6.97634 -1.883,-5.35296 -0.9,1.05663 -2.172,3.22716 -1.891,3.22716 0.09,0 0.03,0.64354 -0.151,1.4301 -0.182,0.81014 -0.16,1.52981 0.05,1.66011 0.204,0.1265 0.291,0.35985 0.193,0.51855 -0.462,0.75016 -0.743,9.56006 -0.827,26.00029 -0.05,9.88989 -0.198,18.15307 -0.327,18.36262 -0.13,0.20955 -0.09,1.16362 0.08,2.12016 0.174,0.95655 0.158,1.83785 -0.04,1.95845 -0.688,0.42656 -0.365,1.02167 0.358,0.66056 0.392,-0.19537 1.52,-0.74463 2.508,-1.22057 z m 2.882,0.89148 c 0,-0.0882 -0.275,-0.16034 -0.61,-0.16034 -0.336,0 -0.61,0.17783 -0.61,0.39518 0,0.21734 0.274,0.2895 0.61,0.16034 0.335,-0.12916 0.61,-0.30699 0.61,-0.39518 z m 1.423,-2.60822 c -0.119,-0.19338 -0.03,-0.46691 0.197,-0.60785 0.623,-0.38609 0.496,-1.43205 -0.173,-1.43205 -0.368,0 -0.528,0.30447 -0.43,0.81596 0.09,0.44878 -0.01,0.81596 -0.214,0.81596 -0.204,0 -0.266,0.27433 -0.138,0.60963 0.129,0.33529 0.4,0.5062 0.604,0.37979 0.204,-0.12641 0.274,-0.38806 0.154,-0.58144 z m 0.253,-9.47226 c 0.06,-1.05854 -0.01,-2.05299 -0.171,-2.20989 -0.297,-0.29701 -0.36,0.13179 -0.44,2.99144 -0.06,2.31946 0.47,1.63493 0.611,-0.78155 z m 18.555,1.87268 c 0.501,-0.13464 0.811,-0.40752 0.688,-0.6064 -0.122,-0.19888 -0.03,-0.36159 0.208,-0.36159 0.237,0 0.431,-0.18359 0.431,-0.40798 0,-0.62209 -1.136,-0.48606 -1.508,0.18055 -0.181,0.32369 -0.785,0.77103 -1.342,0.99409 -0.861,0.34409 -0.891,0.40863 -0.201,0.42584 0.448,0.0112 1.224,-0.0899 1.724,-0.22451 z m -1.52,-2.39592 c 0.559,-0.32068 1.439,-0.58956 1.956,-0.59752 0.516,-0.008 0.835,-0.18324 0.708,-0.38954 -0.127,-0.2063 0.04,-0.65052 0.379,-0.98717 0.458,-0.45912 0.484,-0.65466 0.105,-0.7825 -0.378,-0.12776 -0.39,-0.3147 -0.05,-0.74675 0.351,-0.44186 0.483,-2.61622 0.159,-2.61622 -0.293,0 -0.266,-2.28669 0.03,-2.46962 0.212,-0.13125 0.25,-0.45543 0.08,-0.72041 -0.475,-0.76385 -0.445,-2.31708 0.04,-2.32394 0.282,-0.004 0.263,-0.12263 -0.05,-0.32213 -0.293,-0.18672 -0.436,-0.93485 -0.349,-1.82966 0.08,-0.83258 0,-1.51379 -0.167,-1.51379 -0.171,0 -0.24,-0.59667 -0.152,-1.32593 0.33,-2.73823 0.341,-5.20174 0.02,-5.20174 -0.181,0 -0.234,-0.15569 -0.117,-0.34598 0.118,-0.19028 0.247,-1.47542 0.289,-2.85586 0.04,-1.38043 0.241,-2.50988 0.445,-2.50988 0.203,0 0.254,-0.18754 0.113,-0.41675 -0.428,-0.69437 -0.533,-4.88322 -0.129,-5.13373 0.227,-0.14089 0.23,-0.42219 0,-0.70753 -0.203,-0.26051 -0.398,-2.30957 -0.432,-4.55345 -0.07,-4.44063 -0.323,-8.50515 -0.616,-9.79152 -0.103,-0.44878 -0.2,-1.85196 -0.217,-3.11819 -0.02,-1.64881 -0.205,-2.36889 -0.642,-2.53707 -1.06,-0.40799 -1.74,0.15542 -2.06,1.70572 -0.47,2.28397 -0.53,42.61266 -0.06,43.2176 0.223,0.28935 0.233,0.50997 0.02,0.50997 -0.203,0 -0.417,0.78026 -0.474,1.73392 -0.229,3.79647 -0.261,7.2412 -0.07,7.22734 0.112,-0.008 0.661,-0.27699 1.221,-0.59767 z m -16.881,-2.65187 c -0.138,-0.22439 -0.423,-0.40798 -0.634,-0.40798 -0.21,0 -0.383,0.18359 -0.383,0.40798 0,0.22439 0.286,0.40798 0.635,0.40798 0.348,0 0.521,-0.18359 0.382,-0.40798 z m 0.09,-3.10235 c -0.135,-0.13557 -0.486,-0.15006 -0.779,-0.0322 -0.325,0.13024 -0.228,0.22691 0.246,0.24649 0.428,0.0177 0.669,-0.0787 0.533,-0.21428 z m -0.08,-4.80029 c 0.06,-1.90618 0.22,-3.64906 0.358,-3.87308 0.138,-0.22401 0.09,-0.50872 -0.113,-0.63268 -0.2,-0.12396 -0.335,-1.32999 -0.301,-2.68006 0.03,-1.35007 -0.08,-2.45467 -0.253,-2.45467 -0.174,0 -0.316,0.73436 -0.316,1.63192 0,0.93464 -0.195,1.63192 -0.456,1.63192 -0.315,0 -0.328,0.15895 -0.04,0.50997 0.235,0.29007 0.388,2.56837 0.355,5.28344 -0.07,5.45739 0.605,5.96565 0.77,0.58324 z m -0.353,-12.70034 c -0.01,-1.23414 -0.167,-2.24389 -0.348,-2.24389 -0.182,0 -0.309,0.13769 -0.282,0.30598 0.03,0.1683 0.01,0.39778 -0.03,0.50998 -0.251,0.63122 -0.197,2.44788 0.07,2.44788 0.175,0 0.296,0.13769 0.27,0.30598 -0.07,0.45056 0.03,0.91796 0.193,0.91796 0.08,0 0.137,-1.00975 0.127,-2.24389 z m -0.09,-3.77381 c -0.06,-0.61707 -0.118,-1.47995 -0.141,-1.91751 -0.03,-0.58416 -0.16,-0.67492 -0.493,-0.34153 -0.262,0.26295 -0.31,0.68361 -0.114,0.99955 0.186,0.30004 0.285,0.9586 0.22,1.46348 -0.06,0.50487 0.05,0.91795 0.255,0.91795 0.205,0 0.328,-0.50488 0.273,-1.12194 z m 0.01,-4.1266 c 0.09,-0.47913 0.02,-0.87116 -0.169,-0.87116 -0.409,0 -0.839,1.49414 -0.522,1.81229 0.316,0.31716 0.496,0.0717 0.691,-0.94113 z m 0,-2.91429 c -0.138,-0.22261 -0.01,-0.41924 0.283,-0.43696 0.409,-0.0248 0.415,-0.0797 0.02,-0.23798 -0.28,-0.11318 -0.509,-0.74126 -0.509,-1.39572 0,-0.65447 -0.151,-1.18994 -0.335,-1.18994 -0.185,0 -0.295,0.87205 -0.246,1.9379 0.152,3.26316 0.149,3.24874 0.616,2.44465 0.229,-0.39446 0.304,-0.89934 0.167,-1.12195 z m -0.202,-4.56614 c 0,-0.65906 -0.12,-0.77691 -0.453,-0.44353 -0.249,0.24972 -0.329,0.65362 -0.179,0.89756 0.421,0.68283 0.632,0.53104 0.632,-0.45403 z m 21.744,-11.31365 c 0.129,-0.20888 0.05,-0.4951 -0.179,-0.63605 -0.227,-0.14094 -0.413,0.03 -0.413,0.37979 0,0.71663 0.244,0.82215 0.592,0.25626 z m -2.423,-47.66463 c -1.932,-0.22081 -3.678,-1.19941 -4.204,-2.35643 -0.266,-0.58616 -0.379,-1.23558 -0.251,-1.44316 0.128,-0.20757 0.03,-0.3774 -0.207,-0.3774 -0.244,0 -0.358,-0.44646 -0.256,-1.01037 0.115,-0.63509 0,-0.97604 -0.297,-0.91795 -0.65,0.12517 -0.576,-5.11122 0.08,-5.32893 0.256,-0.0858 0.371,-0.31077 0.255,-0.49984 -0.117,-0.18907 0.166,-0.46406 0.628,-0.61108 0.461,-0.14702 1.465,-0.8946 2.229,-1.66129 0.764,-0.76669 1.751,-1.39398 2.193,-1.39398 0.442,0 0.934,-0.21196 1.093,-0.47101 0.196,-0.3179 0.105,-0.36142 -0.281,-0.13386 -0.314,0.1856 -0.239,-0.043 0.167,-0.50843 0.49,-0.56046 0.59,-0.93754 0.299,-1.11827 -0.242,-0.14998 -0.333,-0.44626 -0.203,-0.65839 0.131,-0.21214 0.444,-7.7331 0.429,-12.16275 0,-0.76086 1.389,-1.14255 1.402,-0.19995 l 0.15,14.30312 1.852,0.003 c 2.847,0.004 6.223,1.66862 5.824,2.87095 -0.08,0.24479 0.28,0.87588 0.803,1.40243 0.691,0.69546 0.985,1.51448 1.074,2.99389 0.07,1.1201 0.196,2.15487 0.286,2.29951 0.09,0.14463 -0.202,0.35844 -0.647,0.47514 -0.445,0.1167 -0.809,0.50475 -0.809,0.86234 0,0.35759 -0.178,0.65017 -0.394,0.65017 -0.217,0 -0.285,0.28566 -0.151,0.63481 0.141,0.36861 -0.118,0.97212 -0.618,1.43922 -0.474,0.44242 -0.975,1.2583 -1.114,1.81307 -0.283,1.13154 -0.579,1.24296 -1.327,0.49868 -0.41,-0.40857 -0.465,-0.38584 -0.275,0.11429 0.2,0.529 -0.277,0.62487 -3.129,0.62828 -1.85,0.002 -3.914,-0.0587 -4.585,-0.1354 z m 6.046,-3.56744 c 0.337,-0.33791 0.72,-0.95422 0.851,-1.36957 0.132,-0.41534 0.947,-1.03385 1.811,-1.37444 l 1.572,-0.61927 -0.184,-2.14699 c -0.286,-3.33339 -1.726,-4.20021 -5.011,-3.01537 -1.992,0.71834 -1.994,0.72156 -2.309,2.99167 -0.508,3.65327 -0.462,3.8892 0.786,4.03356 0.876,0.10131 1.116,0.34282 1.116,1.12195 0,1.13468 0.481,1.26782 1.368,0.37846 z m -7.354,-8.075 c -0.276,-0.47851 -1.336,0.52401 -1.336,1.2631 0,0.51843 0.138,0.49085 0.762,-0.15195 0.419,-0.43194 0.677,-0.93196 0.574,-1.11115 z"
           id="path1" /></g></g></g></svg>
