<?xml version="1.0" encoding="UTF-8" standalone="no"?>
<!-- Created with Inkscape (http://www.inkscape.org/) -->

<svg
   width="231.38646"
   height="235.24007"
   viewBox="0 0 61.221 62.240601"
   version="1.1"
   id="svg1"
   xml:space="preserve"
   xmlns="http://www.w3.org/2000/svg"
   xmlns:svg="http://www.w3.org/2000/svg"><defs
     id="defs1" /><g
     id="g2047"
     transform="matrix(0.26458333,0,0,0.26458333,-5299.2671,-10.12824)"><g
       id="g2061"
       transform="translate(460.8332,-234.50001)"><path
         style="fill:#000000"
         d="m 19673.965,478.70452 c -13.18,-0.91147 -19.291,-1.49132 -27.548,-2.61401 -4.958,-0.67419 -9.614,-1.34604 -10.346,-1.49299 -1.531,-0.30729 -4.683,-3.08172 -4.683,-4.12219 0,-1.92676 4.746,-7.46051 9.593,-11.18697 8.875,-6.82208 12.516,-10.25344 16.197,-15.26107 5.779,-7.86057 8.027,-12.80386 9.544,-20.98333 0.417,-2.24427 0.987,-5.08872 1.268,-6.32101 0.523,-2.29341 0.651,-15.99577 0.157,-16.79294 -0.253,-0.40904 -0.555,-2.17413 -1.671,-9.77003 -1.015,-6.90063 -0.687,-6.31404 -3.742,-6.69602 -6.546,-0.81854 -16.886,-1.4009 -25.573,-1.44028 -13.38,-0.0607 -14.651,-0.545 -16.854,-6.41999 -2.022,-5.39221 -2.088,-15.43188 -0.121,-18.22294 0.473,-0.66987 1.348,-2.08589 1.947,-3.14671 1.246,-2.21137 2.913,-3.93329 7.331,-7.5731 1.72,-1.41705 5.122,-4.57843 7.559,-7.0253 l 4.433,-4.44884 -0.03,-6.83758 c -0.03,-6.79579 0.09,-8.43859 1.117,-15.13547 0.451,-2.938 0.764,-3.68753 1.954,-4.68665 1.599,-1.34237 2.464,-1.35002 14.558,-0.12859 3.44,0.34739 8.419,0.61159 11.065,0.58711 7.034,-0.0651 22.301,-0.0901 32.233,-0.0529 6.339,0.0238 9.789,-0.18846 12.875,-0.79187 3.229,-0.63118 4.638,-0.70796 6.014,-0.32768 2.333,0.64465 2.551,0.81656 4.289,3.37726 3.631,5.35049 3.701,5.627 3.984,15.68355 0.143,5.06152 0.368,9.29196 0.5,9.40098 0.807,0.66513 6.524,3.86243 9.321,5.21301 4.169,2.01336 7.089,5.38464 8.401,9.70005 0.746,2.45316 0.882,4.25754 0.78,10.40852 -0.136,8.24042 -0.66,10.3949 -3.542,14.57429 -1.858,2.69545 -2.839,3.37889 -6.572,4.58086 -4.739,1.52586 -7.73,1.91203 -17.288,2.2316 -5.027,0.1681 -10.007,0.39183 -11.065,0.49718 -10.927,1.08774 -15.733,1.33365 -26.778,1.37028 -11.869,0.0394 -12.901,0.11025 -13.831,0.95008 -0.553,0.49915 -1.005,1.3218 -1.005,1.8281 0,0.88855 0.04,0.88596 1.268,-0.0744 1.378,-1.08206 2.581,-1.30189 2.581,-0.47184 0,0.75278 -2.016,2.32246 -3.007,2.34126 -0.463,0.009 -0.842,0.21925 -0.842,0.4677 0,0.87903 1.018,1.06213 2.073,0.37269 1.407,-0.92007 4.181,-1.52274 4.181,-0.90839 0,0.25981 -1.19,1.14292 -2.646,1.96248 -2.285,1.28669 -2.646,1.68614 -2.646,2.92618 0,0.78983 0.1,1.43607 0.215,1.43607 0.119,0 1.233,-0.54007 2.477,-1.20015 2.358,-1.25082 3.562,-1.50824 3.562,-0.76126 0,0.50201 -4.864,3.64691 -5.412,3.49901 -0.198,-0.0536 -0.361,0.22661 -0.361,0.62266 0,0.92701 0.1,0.9139 2.142,-0.28984 0.943,-0.55546 2.068,-0.87499 2.498,-0.71008 0.712,0.27265 0.706,0.38546 -0.07,1.24376 -0.471,0.51915 -1.59,1.20865 -2.486,1.53222 -1.042,0.37593 -1.575,0.85476 -1.477,1.32636 0.18,0.86758 1.691,0.72445 2.802,-0.2654 0.965,-0.85955 1.405,-0.85861 1.405,0.003 0,0.37386 -0.866,1.36413 -1.924,2.2006 -2.254,1.7816 -2.541,2.74324 -0.505,1.69253 1.76,-0.90848 1.948,-0.91009 1.948,-0.0167 0,0.39362 -0.755,1.20372 -1.678,1.80022 -2.136,1.38083 -2.354,2.65221 -0.27,1.57693 3.008,-1.55207 3.477,-0.0565 0.505,1.61019 -3.003,1.6842 -2.538,3.03063 0.601,1.74099 1.505,-0.61823 0.898,0.5924 -1.082,2.15716 -2.171,1.71527 -2.799,3.47401 -0.766,2.14524 0.803,-0.52506 1.258,-0.5956 1.484,-0.23006 0.419,0.67584 -0.518,1.79743 -2.247,2.68935 -0.794,0.40987 -1.358,1.09421 -1.358,1.64856 0,1.173 0.08,1.17228 2.425,-0.0221 2.928,-1.49069 2.52,0.12112 -0.5,1.9756 -1.558,0.95644 -2.406,1.80671 -2.406,2.41275 0,0.81786 0.137,0.8646 1.083,0.37082 0.595,-0.31076 1.69,-0.99001 2.433,-1.50944 0.743,-0.51943 1.481,-0.81417 1.641,-0.65497 0.445,0.44422 -1.283,2.1447 -4.029,3.96526 -1.365,0.90448 -2.617,1.99707 -2.782,2.42798 -0.584,1.51705 0.541,1.67573 3.014,0.42532 1.352,-0.68399 2.562,-1.03286 2.716,-0.78349 0.285,0.46013 -2.939,2.90132 -3.832,2.90132 -0.629,0 -3.269,2.42176 -2.968,2.72252 0.124,0.12379 1.153,-0.22211 2.287,-0.76866 2.458,-1.18516 2.362,-1.1737 2.362,-0.28009 0,0.3925 -0.704,1.05216 -1.564,1.46592 -3.78,1.81889 -4.83,2.68816 -6.661,5.51356 l -1.943,3.00117 1.596,-0.34369 c 3.537,-0.76179 5.353,-0.89901 5.032,-0.38026 -0.316,0.51008 -2.48,1.36247 -6.45,2.54063 -1.972,0.58516 -3.401,1.64999 -2.895,2.15583 0.134,0.13302 0.828,0.0198 1.544,-0.25163 1.552,-0.58878 4.032,-0.6623 3.379,-0.10017 -0.252,0.21633 -2.002,0.98166 -3.889,1.70072 -1.888,0.71907 -3.816,1.73022 -4.284,2.247 -1.05,1.15776 -1.039,1.15765 2.068,-0.0208 4.652,-1.76454 4.586,-0.93078 -0.136,1.70435 -2,1.11563 -3.429,1.62204 -4.036,1.42977 -0.645,-0.20439 -1.44,0.14825 -2.536,1.12488 -2.04,1.81907 -1.593,2.2553 1.121,1.09425 2.721,-1.16373 5.221,-1.71542 5.221,-1.1521 0,0.2402 -1.783,1.23705 -3.963,2.21523 -3.431,1.53968 -4.034,1.68163 -4.492,1.05708 -0.455,-0.62076 -0.84,-0.5059 -2.763,0.82328 -1.229,0.84958 -2.329,1.78702 -2.445,2.08318 -0.116,0.29617 1.881,-0.16996 4.438,-1.03583 2.557,-0.86588 4.842,-1.45545 5.078,-1.31017 0.551,0.3398 -0.945,1.15009 -5.662,3.06731 -3.446,1.4002 -3.849,1.47032 -4.37,0.75952 -0.515,-0.70319 -0.742,-0.63647 -2.218,0.6539 l -1.644,1.43699 1.684,-0.23122 c 0.926,-0.12717 3.473,-0.75656 5.659,-1.39865 2.187,-0.64209 4.08,-0.9998 4.207,-0.7949 0.29,0.46903 -10.464,4.43531 -12.026,4.43531 -1.136,0 -3.132,1.43706 -3.132,2.25553 0,0.37179 0.961,0.16269 6.495,-1.41295 0.793,-0.22603 2.796,-0.83918 4.449,-1.36257 1.653,-0.52338 3.118,-0.77044 3.255,-0.54901 0.322,0.51982 0.02,0.68999 -3.406,1.92548 -1.57,0.56611 -3.721,1.41525 -4.779,1.887 -1.059,0.47174 -2.626,1.00918 -3.483,1.1943 -2.346,0.50696 -2.629,1.44069 -0.319,1.05734 1.032,-0.17145 2.689,-0.44864 3.681,-0.61598 2.318,-0.39094 2.317,0.32078 0,1.30957 l -1.802,0.76811 2.406,0.32161 c 1.323,0.17688 4.474,0.63595 7.002,1.02014 2.528,0.3842 7.291,0.92455 10.584,1.20079 3.293,0.27624 8.152,0.71205 10.798,0.96848 10.241,0.99251 18.073,1.07951 25.738,0.28593 8.484,-0.87835 17.132,-2.07103 19.965,-2.7534 10.949,-2.63704 12.148,-3.12738 12.148,-4.97012 0,-0.67518 -0.19,-1.34442 -0.421,-1.48721 -0.232,-0.14278 -0.421,-0.63849 -0.421,-1.10157 0,-1.12938 -2.072,-2.9904 -5.292,-4.75401 -10.943,-5.99269 -11.432,-6.49753 -16.97,-17.52754 -5.032,-10.02159 -5.756,-11.8682 -7.482,-19.06494 -0.538,-2.24427 -1.444,-6.02473 -2.014,-8.40102 -2.451,-10.23272 -2.717,-14.2197 -1.39,-20.88253 1.171,-5.88085 3.137,-10.42432 4.096,-9.46761 0.149,0.14871 -0.212,2.06972 -0.803,4.26892 -0.59,2.1992 -1.242,5.07867 -1.45,6.39883 -0.529,3.37134 -0.512,11.67448 0.03,13.68166 0.249,0.92411 1.012,4.05649 1.695,6.96085 2.617,11.12257 4.282,15.75369 9.023,25.10419 4.08,8.04605 6.666,11.55133 9.838,13.33506 10.633,5.98024 11.142,6.356 12.651,9.33851 2.162,4.27463 1.937,5.7101 -1.145,7.27878 -2.629,1.33822 -9.768,3.20834 -14.256,3.73406 -1.984,0.23249 -4.69,0.67092 -6.013,0.97428 -6.515,1.49387 -22.322,2.1683 -33.195,1.41634 z m 6.735,-95.98545 c -0.376,-0.60672 -1.705,-0.60672 -2.646,0 -0.536,0.34545 -0.25,0.46725 1.111,0.47271 1.1,0.004 1.713,-0.18435 1.535,-0.47271 z m -5.773,-0.48005 c 0.355,-0.57312 -0.588,-0.57312 -1.925,0 -0.859,0.36839 -0.823,0.41618 0.333,0.44631 0.712,0.0186 1.428,-0.18228 1.592,-0.44631 z m 18.281,0 c 0.399,-0.6441 2.507,-0.61284 2.913,0.0432 0.333,0.53723 4.214,0.32797 10.076,-0.54331 1.588,-0.23595 4.402,-0.46229 6.255,-0.50297 1.852,-0.0407 7.372,-0.35812 12.267,-0.70542 11.013,-0.78135 14.543,-1.72856 17.486,-4.69109 3.603,-3.62751 4.112,-5.28882 4.34,-14.15284 0.11,-4.27405 0.03,-7.771 -0.17,-7.771 -0.204,0 -0.655,0.70208 -1.003,1.56019 -1.971,4.86705 -4.422,6.54789 -9.828,6.73886 -2.218,0.0783 -2.887,-0.0556 -2.887,-0.57798 0,-0.45794 1.1,-0.89885 3.368,-1.3504 5.049,-1.00524 6.569,-2.26306 7.877,-6.51649 0.869,-2.82447 0.974,-3.75919 0.551,-4.87054 -1.102,-2.89201 -2.499,-3.84084 -14.73,-10.00681 l -1.973,-0.99427 -0.07,-7.71319 c -0.117,-12.16074 -0.44,-13.75883 -3.563,-17.63698 -2.179,-2.70703 -3.498,-3.06437 -8.704,-2.358 -4.316,0.58562 -11.889,0.76457 -30.62,0.72353 -5.16,-0.0113 -11.654,-0.008 -14.433,0.008 -2.778,0.0158 -9.029,-0.27588 -13.891,-0.64816 l -8.84,-0.67687 -0.916,1.15693 c -2.054,2.5956 -2.044,2.83588 0.08,2.0017 1.059,-0.41495 2.062,-0.61797 2.229,-0.45117 0.462,0.46135 -0.662,1.59488 -2.22,2.23902 -0.766,0.31661 -1.506,0.87056 -1.645,1.231 -0.204,0.53104 -0.03,0.55249 0.941,0.11309 0.825,-0.3751 1.346,-0.38849 1.692,-0.0435 0.346,0.34504 -0.211,0.91443 -1.805,1.84703 -2.273,1.32901 -2.161,2.37551 0.123,1.1556 0.635,-0.33912 1.294,-0.47745 1.465,-0.30741 0.438,0.43699 -0.687,1.67081 -2.169,2.37955 -0.69,0.33024 -1.331,0.9921 -1.423,1.47079 -0.159,0.82634 -0.09,0.83016 1.372,0.0755 2.406,-1.24127 2.769,-0.1442 0.477,1.44057 -2.256,1.56029 -2.255,2.12574 0,0.96121 1.033,-0.53304 1.703,-0.63697 2.026,-0.31432 0.323,0.32265 -0.167,0.81283 -1.483,1.48259 -1.081,0.55032 -2.196,1.43193 -2.479,1.95913 -0.603,1.12457 -0.137,1.2132 1.175,0.2232 1.431,-1.08029 2.033,-0.84905 2.033,0.78149 0,1.19143 -0.366,1.72792 -1.844,2.70411 -2.155,1.42271 -2.293,1.70101 -0.642,1.28735 1.627,-0.40746 1.516,0.3512 -0.24,1.64719 -0.794,0.58562 -1.443,1.33186 -1.443,1.6583 0,0.67579 -9.208,9.81877 -14.041,13.94271 -4.025,3.43387 -5.364,5.51691 -5.322,8.2807 0.06,3.97249 2.28,5.58969 7.807,5.688 1.158,0.0206 1.723,0.27459 1.83,0.82326 0.238,1.20762 -2.988,1.5918 -5.609,0.6682 -2.738,-0.96424 -3.377,-0.9335 -5.112,0.24582 l -1.443,0.98109 1.684,-0.14415 c 2.402,-0.20565 2.236,1.09023 -0.241,1.87527 l -1.924,0.61 2.045,-0.27677 c 1.584,-0.21449 2.044,-0.12173 2.044,0.41215 0,0.3789 -0.487,0.92312 -1.082,1.20937 -0.985,0.47336 -0.93,0.51257 0.601,0.4334 2.537,-0.13114 2.466,0.78276 -0.12,1.55778 -2.439,0.73066 -3.175,1.75218 -0.962,1.33517 0.727,-0.13715 2.168,-0.41141 3.202,-0.60947 2.51,-0.48118 1.939,0.48829 -1.038,1.76177 -2.708,1.15803 -2.45,1.65805 0.347,0.67341 1.133,-0.39886 2.492,-0.72521 3.02,-0.72521 0.8,0 0.86,0.1209 0.362,0.72009 -0.329,0.39605 -0.762,0.72009 -0.962,0.72009 -0.2,0 -1.192,0.34511 -2.203,0.76692 -1.538,0.64121 -1.707,0.84087 -1.032,1.21811 0.551,0.30779 1.156,0.23059 1.901,-0.2429 1.394,-0.8852 6.414,-1.90941 7.706,-1.57226 0.542,0.14155 1.841,-0.17787 2.886,-0.70984 1.045,-0.53197 2.258,-0.82829 2.695,-0.65849 0.671,0.26049 0.574,0.49982 -0.622,1.53181 l -1.417,1.2231 2.018,-0.34037 c 2.243,-0.37813 2.741,0.2847 0.938,1.24775 -2.225,1.18823 0.108,0.87741 3.661,-0.48777 3.3,-1.26802 3.762,-1.3398 4.418,-0.68566 0.52,0.51861 1.216,0.64004 2.4,0.41845 1.613,-0.30194 2.337,0.30204 1.066,0.88934 -0.331,0.15285 0.901,0.14922 2.738,-0.008 1.837,-0.15728 4.759,-0.3723 6.495,-0.47784 1.735,-0.10553 3.588,-0.23043 4.117,-0.27755 2.935,-0.26134 4.422,0.11239 5.041,1.26672 0.568,1.05888 0.851,1.15157 2.728,0.89486 1.75,-0.23937 2.093,-0.15471 2.093,0.51587 0,0.63038 0.19,0.7009 0.886,0.32923 0.487,-0.26015 1.84,-0.46431 3.007,-0.45368 1.166,0.0106 3.463,0.003 5.104,-0.0163 1.641,-0.0196 3.115,0.17695 3.276,0.43679 0.161,0.25983 1.025,0.47242 1.919,0.47242 0.895,0 1.761,0.21602 1.925,0.48006 0.163,0.26403 0.488,0.48005 0.721,0.48005 0.234,0 0.559,-0.21602 0.722,-0.48005 z m -3.849,-18.28515 c -3.175,-0.21731 -14.324,-0.41007 -24.776,-0.42837 -30.699,-0.0538 -31.448,-0.0822 -33.035,-1.25721 -1.102,-0.81555 -1.39,-1.43779 -1.509,-3.25343 -0.123,-1.87457 0.135,-2.70988 1.567,-5.0622 1.67,-2.74298 1.886,-2.90275 8.203,-6.065 l 6.488,-3.24782 2.58,0.61757 c 2.02,0.48359 6.012,0.52899 18.404,0.20931 8.703,-0.22455 18.663,-0.34765 22.132,-0.27358 3.469,0.0741 9.855,-0.12389 14.192,-0.43993 4.336,-0.31603 8.426,-0.57447 9.087,-0.5743 0.662,1.6e-4 3.68,-0.1774 6.707,-0.39459 6.455,-0.46316 12.03,0.14948 14.356,1.57776 0.868,0.53313 2.004,1.80305 2.525,2.82205 2.698,5.27658 -0.357,10.85381 -7.472,13.641 -3.122,1.22343 -4.101,1.34843 -13.47,1.72038 -5.556,0.2206 -12.376,0.49162 -15.154,0.60227 -2.778,0.11065 -7.649,0.0234 -10.825,-0.19391 z m 20.447,-2.27613 c 4.365,-0.22912 9.09,-0.44837 10.498,-0.48721 2.126,-0.0586 2.796,-0.30468 3.94,-1.44606 0.939,-0.93733 1.221,-1.53181 0.886,-1.8664 -0.335,-0.33459 -0.211,-0.6998 0.391,-1.1466 1.205,-0.89541 1.54,-8.80216 0.432,-10.20429 -0.783,-0.99077 -2.736,-0.97331 -20.958,0.18735 -4.102,0.26123 -19.339,0.59392 -33.861,0.73931 l -26.404,0.26434 -4.422,2.32241 c -6.142,3.22528 -6.214,3.27889 -7.391,5.49655 -1.22,2.29819 -1.348,4.25276 -0.334,5.0923 1.081,0.89585 15.419,1.2568 40.797,1.0271 6.461,-0.0585 6.619,-0.0846 6.12,-1.01448 -0.281,-0.52494 -1.101,-1.07996 -1.821,-1.23337 -3.883,-0.82725 -4.434,-2.09906 -1.622,-3.73823 1.242,-0.72332 2.505,-0.93644 5.531,-0.93311 4.2,0.005 6.409,0.60458 6.897,1.87277 0.382,0.99507 -1.414,2.41233 -3.57,2.81582 -0.863,0.16161 -1.569,0.50704 -1.569,0.76762 0,0.26057 -0.487,0.66915 -1.083,0.90793 -0.905,0.36309 -0.728,0.4481 1.083,0.51932 1.19,0.0468 4.979,0.23392 8.419,0.41574 3.44,0.18182 7.12,0.2692 8.178,0.19418 1.059,-0.075 5.497,-0.32386 9.863,-0.55299 z m -62.722,-1.55619 c -0.95,-3.02338 -1.279,-5.81297 -0.995,-8.45344 0.368,-3.43024 1.164,-4.09084 1.197,-0.99292 0.04,3.96324 0.349,6.45738 0.929,7.53896 0.483,0.90035 0.454,1.22676 -0.164,1.84339 -0.635,0.63354 -0.785,0.64343 -0.967,0.064 z m 42.342,-2.12548 c 0.152,-0.39604 0.47,-0.72008 0.706,-0.72008 0.237,0 0.43,0.32404 0.43,0.72008 0,0.39605 -0.318,0.72009 -0.706,0.72009 -0.431,0 -0.599,-0.28145 -0.43,-0.72009 z m 41.547,-0.0338 c 0,-0.13201 -0.433,-0.009 -0.962,0.27381 -0.529,0.28261 -0.962,0.62186 -0.962,0.75387 0,0.13202 0.433,0.009 0.962,-0.27381 0.529,-0.28261 0.962,-0.62185 0.962,-0.75387 z m 3.553,-2.82967 c 0.795,-1.21009 0.973,-3.67277 0.375,-5.18002 -0.298,-0.75298 -0.606,-0.66364 -2.894,0.84011 -1.409,0.92548 -2.813,1.69975 -3.12,1.72059 -0.419,0.0283 -0.417,0.0959 0,0.26808 0.311,0.1266 1.439,-0.21449 2.506,-0.75798 2.14,-1.0892 2.942,-1.2304 2.942,-0.51787 0,0.25867 -0.826,0.89096 -1.836,1.40509 -1.01,0.51413 -2.145,1.30563 -2.522,1.75889 -0.562,0.67557 -0.321,0.63863 1.336,-0.20494 2.392,-1.21774 2.541,-1.23772 2.541,-0.34131 0,0.37825 -0.433,0.82486 -0.962,0.99246 -1.218,0.38571 -1.256,1.20015 -0.06,1.20015 0.499,0 1.257,-0.53246 1.684,-1.18325 z m -5.607,0.41316 c -0.16,-0.15952 -0.575,-0.17658 -0.922,-0.0379 -0.384,0.15325 -0.27,0.267 0.29,0.29003 0.507,0.0208 0.792,-0.0926 0.632,-0.25213 z m 3.377,-6.79522 c 0.596,-0.38835 1.083,-0.77419 1.083,-0.85741 0,-0.41898 -3.181,0.83475 -3.826,1.50778 -0.68,0.70937 -0.64,0.74573 0.458,0.41648 0.662,-0.1984 1.69,-0.67849 2.285,-1.06685 z m -1.283,-1.5558 c 0.243,0 0.441,-0.23105 0.441,-0.51344 0,-0.74617 -2.048,-0.32995 -2.313,0.46993 -0.157,0.47486 0.02,0.5822 0.603,0.36004 0.455,-0.17409 1.026,-0.31653 1.269,-0.31653 z m -78.675,-5.26906 c -0.781,-0.25348 -1.88,-0.34589 -2.441,-0.20536 -1.387,0.34729 -2.44,-0.8901 -1.453,-1.70729 0.561,-0.46447 1.632,-0.46259 5.09,0.009 3.119,0.42537 6.204,0.47696 10.721,0.17931 3.488,-0.22983 10.564,-0.43844 15.723,-0.46356 8.773,-0.0427 23.92,-0.7325 32.277,-1.46986 3.065,-0.27039 3.699,-0.20171 3.941,0.42677 0.519,1.3517 -0.767,1.66825 -8.074,1.98608 -3.969,0.17263 -8.085,0.42963 -9.147,0.5711 -1.062,0.14147 -7.232,0.32585 -13.711,0.40974 -6.479,0.0839 -16.219,0.28134 -21.643,0.43878 -5.846,0.1697 -10.441,0.0986 -11.283,-0.17462 z m 25.956,-8.48697 c -0.529,-0.11167 -1.425,-0.30077 -1.991,-0.42023 -1.256,-0.26497 -1.829,-1.55199 -1.088,-2.44294 0.315,-0.37919 0.645,-3.3389 0.783,-7.02001 0.255,-6.83528 0.709,-8.28951 2.743,-8.79892 1.64,-0.41071 4.503,1.08523 5.404,2.8234 0.427,0.8253 0.927,3.59481 1.15,6.37301 0.217,2.70239 0.677,5.36559 1.023,5.91824 1.627,2.59927 -2.956,4.63681 -8.024,3.56745 z m 5.766,-2.07445 c 0.731,-1.17922 -0.852,-12.0825 -1.941,-13.37195 -0.281,-0.33331 -2.141,0.93913 -2.141,1.46502 0,0.30373 -0.47,1.05137 -1.044,1.66142 -1.279,1.35848 -0.827,1.98397 0.804,1.11297 1.323,-0.7065 2.19,-0.31386 1.291,0.58407 -0.314,0.31243 -0.57,0.95691 -0.57,1.43217 0,0.47526 -0.433,1.29616 -0.962,1.82422 -0.748,0.74676 -0.802,0.96012 -0.24,0.96012 1.092,0 0.867,0.77578 -0.546,1.88539 -1.174,0.92089 -1.194,0.99496 -0.269,0.99496 0.549,0 1.132,0.21602 1.296,0.48006 0.163,0.26403 0.06,0.48005 -0.241,0.48005 -0.296,0 -0.429,0.17501 -0.297,0.38891 0.368,0.59361 4.502,0.68088 4.86,0.10259 z m -19.741,-10.69273 c -2.272,-2.09303 -2.683,-4.46819 -1.135,-6.55707 2.387,-3.22129 6.599,-2.95256 8.24,0.52569 0.457,0.96664 1.057,1.89785 1.335,2.06935 0.982,0.60519 -1.458,3.98494 -3.451,4.78051 -2.586,1.03271 -3.065,0.95422 -4.989,-0.81848 z m 2.67,-1.80022 c 0,-0.26403 -0.338,-0.48006 -0.75,-0.48006 -0.413,0 -0.616,0.21603 -0.453,0.48006 0.164,0.26403 0.501,0.48006 0.75,0.48006 0.249,0 0.453,-0.21603 0.453,-0.48006 z m 0.481,-3.36504 c 0,-0.20499 -0.361,-0.51091 -0.802,-0.67983 -0.917,-0.35115 -1.858,0.36476 -1.417,1.07762 0.328,0.5295 2.219,0.1905 2.219,-0.39779 z m 2.573,-0.25077 c -0.149,-0.38759 -0.464,-0.70472 -0.7,-0.70472 -0.494,0 -0.581,1.12964 -0.122,1.58715 0.513,0.5121 1.112,-0.13014 0.822,-0.88243 z m 21.516,5.76219 c -1.492,-0.81742 -2.401,-2.45857 -2.423,-4.37348 -0.05,-4.78371 7.812,-5.82052 10.556,-1.39124 0.81,1.30763 0.884,1.81032 0.45,3.05248 -0.418,1.19509 -1.035,1.67939 -3.144,2.46663 -2.978,1.11211 -3.79,1.14877 -5.439,0.24561 z m 1.649,-2.62644 c -0.163,-0.26403 -0.501,-0.48006 -0.75,-0.48006 -0.249,0 -0.453,0.21603 -0.453,0.48006 0,0.26403 0.338,0.48006 0.75,0.48006 0.413,0 0.617,-0.21603 0.453,-0.48006 z m 4.58,-0.25163 c 0.793,-0.95368 0.527,-1.16059 -1.092,-0.85016 -0.728,0.13948 -1.323,0.55246 -1.323,0.91772 0,0.89233 1.655,0.84602 2.415,-0.0676 z m -1.453,-3.10878 c 0,-0.26403 -0.325,-0.48006 -0.721,-0.48006 -0.397,0 -0.722,0.21603 -0.722,0.48006 0,0.26403 0.325,0.48006 0.722,0.48006 0.396,0 0.721,-0.21603 0.721,-0.48006 z m -33.195,65.76798 c 0,-0.56991 -0.836,-0.56991 -2.165,0 -0.806,0.34574 -0.709,0.41804 0.602,0.44632 0.86,0.0186 1.563,-0.18229 1.563,-0.44632 z m -33.676,-1.44017 c 0,-0.60148 -0.51,-0.60148 -1.443,0 -0.584,0.3763 -0.515,0.46676 0.361,0.4727 0.595,0.004 1.082,-0.20867 1.082,-0.4727 z m -7.697,-18.51058 c 0,-0.41163 -0.217,-0.61491 -0.481,-0.45172 -0.265,0.16318 -0.481,0.49996 -0.481,0.74841 0,0.24845 0.216,0.45173 0.481,0.45173 0.264,0 0.481,-0.33679 0.481,-0.74842 z m 42.335,78.8299 c 0,-0.61611 5.345,-3.19669 6.615,-3.19377 1.488,0.003 0.34,1.0921 -2.537,2.40717 -3.521,1.60915 -4.078,1.71648 -4.078,0.7866 z"
         id="path1" /></g></g></svg>
