<?xml version="1.0" encoding="UTF-8" standalone="no"?>
<!-- Created with Inkscape (http://www.inkscape.org/) -->

<svg
   width="231.38646"
   height="235.24007"
   viewBox="0 0 61.221 62.240601"
   version="1.1"
   id="svg1"
   xml:space="preserve"
   xmlns="http://www.w3.org/2000/svg"
   xmlns:svg="http://www.w3.org/2000/svg"><defs
     id="defs1" /><g
     id="g2047"
     transform="matrix(0.26458333,0,0,0.26458333,-5299.2671,-10.12824)"><g
       id="g2188"
       transform="translate(-1397.3268,-279.16667)"><g
         id="g2190"
         transform="matrix(0.88755756,0,0,0.88755756,2217.21,49.008711)"
         style="opacity:1"><path
           style="fill:#000000"
           d="m 21726.078,544.88961 c -0.103,-0.10038 -0.854,-0.28637 -1.668,-0.41331 -0.814,-0.12694 -1.893,-0.62333 -2.397,-1.1031 -0.504,-0.47976 -1.568,-1.22357 -2.365,-1.6529 -1.126,-0.60695 -1.419,-1.05189 -1.315,-2.00009 0.07,-0.67072 -0.06,-1.21949 -0.308,-1.21949 -0.243,0 -0.397,-0.79415 -0.343,-1.76478 0.06,-0.97064 -0.06,-2.14465 -0.257,-2.60892 -0.427,-1.01082 0.01,-4.14411 0.639,-4.5298 0.437,-0.27001 0.533,-0.52972 0.533,-1.4499 0,-0.25884 0.264,-0.47078 0.588,-0.47098 0.323,-2e-4 1.421,-0.74141 2.438,-1.64713 l 1.85,-1.64677 h 5.118 5.117 l 1.385,1.51671 c 0.762,0.83419 1.412,1.68129 1.445,1.88244 0.09,0.54998 0.227,0.99756 0.55,1.77755 0.733,1.76917 1.339,6.80171 0.839,6.96847 -0.282,0.0941 -0.404,0.34768 -0.27,0.56354 0.133,0.21586 -0.03,0.67426 -0.356,1.01867 -0.329,0.34441 -0.85,1.1956 -1.157,1.89152 -0.395,0.89272 -1.571,1.74287 -3.995,2.88707 -3.378,1.59472 -5.701,2.36075 -6.071,2.0012 z m -3.246,-3.27958 c 0,-0.10172 -0.329,-0.31107 -0.73,-0.46522 -0.419,-0.16071 -0.608,-0.0818 -0.443,0.18496 0.276,0.44717 1.173,0.66141 1.173,0.28026 z m 9.059,-3.36428 c 1.229,-0.17738 2.261,-0.51024 2.294,-0.73968 0.03,-0.22945 0.09,-0.6819 0.127,-1.00544 0.04,-0.32354 -0.429,-1.32947 -1.036,-2.23539 -0.7,-1.04462 -1.035,-2.11637 -0.916,-2.9299 0.159,-1.08913 0.08,-1.19569 -0.512,-0.70592 -0.553,0.45623 -0.74,0.45385 -0.897,-0.0114 -0.109,-0.32354 -0.366,-0.58826 -0.571,-0.58826 -0.693,0 -2.535,4.9252 -2.608,6.97211 -0.07,1.83243 0.02,2.00804 0.906,1.79856 0.537,-0.12769 1.983,-0.37729 3.213,-0.55467 z m 3.189,-4.6457 c -0.303,-0.9182 -0.417,-1.88537 -0.254,-2.14927 0.163,-0.26389 0.1,-0.47981 -0.141,-0.47981 -0.24,0 -0.435,-0.3706 -0.433,-0.82357 0,-2.07297 -0.167,-2.47069 -1.088,-2.47069 -1.116,0 -1.104,1.30342 0.02,2.22645 0.627,0.51495 0.627,0.6318 0,1.05166 -0.474,0.31701 -0.513,0.47472 -0.118,0.47955 0.324,0.004 0.549,0.16604 0.501,0.36017 -0.148,0.59808 1.494,4.04437 1.787,3.75101 0.152,-0.15182 0.03,-1.02729 -0.275,-1.9455 z m 67.734,-30.11582 c 0.372,-0.97999 0.273,-1.17218 -0.739,-1.42623 -0.644,-0.16148 -1.384,-0.1613 -1.646,4e-4 -0.261,0.16171 -0.993,0.16415 -1.625,0.005 -1.549,-0.38883 -1.603,-2.15308 -0.07,-2.15308 1.019,0 1.088,-0.19132 1.144,-3.17662 0.102,-5.4529 0.354,-8.32855 0.791,-9.01429 0.289,-0.45377 0.251,-0.55632 -0.12,-0.32712 -0.695,0.42966 -0.559,-2.15962 0.14,-2.65192 0.311,-0.21898 0.317,-0.34839 0.02,-0.35296 -0.455,-0.007 -0.531,-2.70169 -0.172,-6.12512 0.171,-1.63273 0.155,-1.6484 -1.827,-1.79185 -1.1,-0.0796 -2.027,-0.29136 -2.06,-0.47061 -0.271,-1.46828 -0.215,-2.5091 0.146,-2.73243 0.241,-0.14838 0.16,-0.59856 -0.181,-1.01996 -0.516,-0.63658 -0.501,-0.69274 0.1,-0.35968 0.574,0.32099 0.596,0.27634 0.118,-0.23908 -0.324,-0.34858 -0.589,-1.12086 -0.589,-1.71618 0,-0.59532 0.265,-1.08564 0.589,-1.08961 0.378,-0.005 0.414,-0.13044 0.101,-0.35295 -0.441,-0.31353 -0.515,-0.90771 -0.234,-1.87523 0.1,-0.32753 0.122,-9.75799 0.05,-16.4125 -0.03,-2.85188 -0.05,-2.88647 -1.561,-3.25808 -0.842,-0.20657 -1.792,-0.36284 -2.113,-0.34726 -0.321,0.0156 -0.478,-0.14135 -0.35,-0.34874 0.128,-0.20738 -1.41,-0.54053 -3.417,-0.74033 -2.007,-0.1998 -3.861,-0.39751 -4.12,-0.43935 -0.259,-0.0418 -0.841,-0.10832 -1.294,-0.14774 -0.453,-0.0394 -0.824,-0.36198 -0.824,-0.71679 0,-0.45592 -0.996,-0.74329 -3.397,-0.97988 -1.869,-0.18413 -3.722,-0.50721 -4.118,-0.71796 -0.396,-0.21076 -2.988,-0.47828 -5.761,-0.5945 -3.273,-0.13722 -5.31,-0.43507 -5.809,-0.84958 -0.423,-0.35106 -1.437,-0.66942 -2.254,-0.70748 -4.037,-0.18818 -8.799,-0.80669 -9.025,-1.17211 -0.14,-0.22561 -0.567,-0.28987 -0.951,-0.1428 -0.383,0.14707 -1.023,-0.004 -1.423,-0.33552 -0.399,-0.3316 -0.689,-0.40824 -0.644,-0.1703 0.04,0.23794 0.03,0.53851 -0.03,0.66792 -0.139,0.28797 -0.328,2.3897 -0.642,7.15404 -0.131,1.99345 -0.454,4.02581 -0.716,4.51634 -0.327,0.61064 -0.32,1.04922 0.02,1.39082 0.531,0.53152 0.59,3.96915 0.178,10.46927 -0.139,2.2001 -0.266,4.21195 -0.282,4.47079 -0.125,1.97966 0.634,17.55932 0.973,19.97909 0.467,3.32833 0.22,3.98178 -1.686,4.46022 -0.647,0.1624 -1.066,0.4735 -0.932,0.69134 0.135,0.21784 -0.174,0.87935 -0.686,1.47004 -0.513,0.59068 -0.932,1.35923 -0.932,1.70788 0,0.38503 -0.533,0.6339 -1.358,0.6339 -1.082,0 -1.513,-0.32539 -2.118,-1.6006 -0.913,-1.92439 -0.95,-2.33475 -0.171,-1.8664 0.4,0.24014 0.381,0.0982 -0.06,-0.44284 -0.356,-0.43794 -0.45,-0.79625 -0.21,-0.79625 0.24,0 0.401,-0.79415 0.357,-1.76479 -0.04,-0.97063 0.09,-2.2195 0.297,-2.77526 0.207,-0.55577 0.246,-1.14072 0.09,-1.29989 -0.159,-0.15917 -0.348,-2.16368 -0.419,-4.45447 -0.07,-2.29078 -0.232,-4.72361 -0.356,-5.40629 -0.139,-0.767 -0.01,-1.24399 0.332,-1.24844 0.395,-0.005 0.406,-0.10823 0.04,-0.35296 -0.285,-0.19016 -0.49,-0.92813 -0.455,-1.63993 0.03,-0.71179 -0.08,-1.29417 -0.25,-1.29417 -0.173,0 -0.268,-0.68827 -0.213,-1.52948 0.05,-0.84122 -0.101,-1.7942 -0.348,-2.11774 -0.277,-0.36287 -0.279,-0.58827 0,-0.58827 0.53,0 0.52,-6.5711 -0.01,-7.41209 -0.205,-0.32355 -0.198,-0.58826 0.01,-0.58826 0.212,0 0.375,-0.95299 0.361,-2.11775 -0.01,-1.16475 0.157,-2.11774 0.377,-2.11774 0.22,0 0.269,-0.21177 0.109,-0.47061 -0.16,-0.25883 -0.06,-0.47061 0.224,-0.47061 0.362,0 0.352,-0.30584 -0.04,-1.02919 -0.303,-0.56605 -0.607,-2.94851 -0.677,-5.29435 -0.07,-2.34584 -0.205,-4.90049 -0.302,-5.67699 -0.1,-0.77651 -0.03,-1.85306 0.149,-2.39233 0.178,-0.53928 0.154,-1.25591 -0.05,-1.59251 -0.208,-0.3366 -0.21,-1.19754 0,-1.91319 0.232,-0.81068 0.178,-1.49655 -0.145,-1.81941 -0.336,-0.33603 -0.348,-0.51823 -0.03,-0.51823 0.267,0 0.486,-0.31766 0.486,-0.70591 0,-0.38825 -0.131,-0.70592 -0.291,-0.70592 -0.16,0 -0.292,-0.408 -0.292,-0.90666 0,-0.49867 0.167,-0.80383 0.37,-0.67814 0.204,0.12569 0.37,0.004 0.37,-0.26986 0,-0.27411 -0.265,-0.50163 -0.588,-0.50559 -0.365,-0.004 -0.409,-0.13883 -0.118,-0.35296 0.654,-0.48079 0.7,-2.4619 0.06,-2.47069 -0.289,-0.004 -0.209,-0.2125 0.179,-0.46341 0.555,-0.35832 0.568,-0.45774 0.06,-0.4634 -0.486,-0.005 -0.516,-0.16271 -0.121,-0.63877 0.288,-0.34736 0.389,-0.7659 0.225,-0.93008 -0.426,-0.42582 -0.5,-4.0116 -0.1,-4.66422 0.186,-0.30099 0.141,-0.91642 -0.101,-1.36762 -0.293,-0.54728 -0.258,-0.93241 0.106,-1.15694 0.361,-0.22299 0.416,-0.12869 0.164,0.27946 -0.258,0.4165 -0.198,0.50269 0.185,0.26612 0.439,-0.27127 0.434,-0.50865 -0.02,-1.05614 -0.753,-0.9075 -1.053,-4.38669 -0.378,-4.38669 0.277,0 0.36,-0.23222 0.185,-0.51605 -0.462,-0.74689 -0.599,-3.71305 -0.183,-3.96976 0.194,-0.11994 0.258,-1.01272 0.142,-1.98396 -0.423,-3.54044 -0.455,-8.17651 -0.06,-8.42188 0.224,-0.1384 0.171,-0.53691 -0.118,-0.88557 -0.367,-0.44193 -0.381,-0.9063 -0.05,-1.53314 0.338,-0.63282 0.32,-1.05999 -0.06,-1.44191 -0.339,-0.33893 -0.359,-0.54271 -0.06,-0.54271 0.642,0 0.77,-3.58817 0.168,-4.71226 -0.318,-0.59464 -0.31,-0.97659 0.02,-1.18369 0.335,-0.2072 0.304,-0.53513 -0.1,-1.01726 -0.751,-0.90534 -0.909,-1.94699 -0.347,-2.29432 0.24,-0.14833 0.28,-0.51978 0.09,-0.82544 -0.637,-1.01956 -0.534,-1.73192 0.256,-1.76534 0.675,-0.0285 0.683,-0.0769 0.06,-0.35296 -0.73,-0.32275 -0.858,-1.04455 -1.186,-6.6731 -0.1,-1.68243 -0.264,-3.48251 -0.367,-4.00018 -0.104,-0.51767 -0.08,-1.13219 0.06,-1.36559 0.322,-0.55379 0.408,-3.57646 0.103,-3.57609 -0.335,4e-4 -0.401,-1.07038 -0.656,-10.70608 -0.17,-6.44237 -0.09,-8.59042 0.332,-8.59583 0.363,-0.005 0.331,-0.15174 -0.09,-0.42002 -0.521,-0.32983 -0.45,-0.52093 0.353,-0.95057 0.553,-0.29577 1.005,-0.43477 1.005,-0.3089 0,0.12587 0.9,-0.17969 2,-0.67902 1.1,-0.49933 2.582,-0.91253 3.294,-0.91821 0.712,-0.006 1.294,-0.20139 1.294,-0.43491 0,-0.47827 2.761,-1.63473 3.611,-1.51243 0.304,0.0437 0.687,-0.13786 0.852,-0.40356 0.164,-0.2657 1.08,-0.49981 2.035,-0.52025 0.955,-0.0204 1.472,-0.14397 1.149,-0.27452 -0.324,-0.13055 -0.588,-0.46679 -0.588,-0.74719 0,-0.28041 0.141,-0.36819 0.314,-0.19506 0.173,0.17312 0.676,-0.0119 1.117,-0.4111 0.441,-0.39923 1.917,-0.90215 3.28,-1.11761 1.494,-0.23618 2.65,-0.69979 2.912,-1.16749 0.239,-0.42667 0.633,-0.65292 0.876,-0.50279 0.243,0.15014 0.442,0.0554 0.442,-0.21063 0,-0.26599 0.264,-0.41908 0.588,-0.34021 0.323,0.0789 0.429,0.0546 0.235,-0.054 -1.17,-0.65458 0.946,-1.57 5.176,-2.23861 1.546,-0.24427 2,-0.52065 2,-1.21598 0,-0.71782 0.34,-0.89985 1.678,-0.89985 0.923,0 2.098,-0.2245 2.61,-0.49889 0.513,-0.27439 1.823,-0.65545 2.911,-0.8468 1.432,-0.25201 1.943,-0.5533 1.852,-1.09292 -0.101,-0.60221 0.479,-0.7835 3.029,-0.94587 1.924,-0.12253 3.23,-0.42707 3.348,-0.78088 0.148,-0.44366 0.348,-0.45122 0.853,-0.0321 0.522,0.43314 0.66,0.38231 0.66,-0.24272 0,-0.63908 0.384,-0.76286 2,-0.64589 1.292,0.0935 1.959,0.35303 1.883,0.73297 -0.07,0.32355 0.2,0.61474 0.588,0.64709 0.388,0.0324 0.917,0.11177 1.176,0.17648 0.259,0.0647 0.69,0.14413 0.958,0.17648 0.33,0.0399 0.324,0.3642 -0.02,1.00703 -0.399,0.74554 -0.353,1.00754 0.216,1.22583 0.398,0.1527 0.589,0.49545 0.424,0.76167 -0.164,0.26621 -0.373,5.80309 -0.464,12.30418 -0.09,6.50108 -0.176,12.03193 -0.19,12.29076 -0.01,0.25884 0.111,2.37658 0.274,4.70609 0.164,2.32952 0.301,5.50613 0.305,7.05914 0,1.60169 0.24,2.97329 0.546,3.16941 0.346,0.22193 0.36,0.34833 0.04,0.35296 -0.295,0.004 -0.452,0.83163 -0.38,2.00729 0.487,7.96447 0.619,10.00045 0.647,10.00045 0.02,0 0.135,1.6942 0.262,3.76488 0.126,2.07068 0.314,4.40019 0.418,5.1767 0.208,1.5467 0.598,4.81433 1.012,8.47097 0.147,1.29417 0.471,2.56482 0.719,2.82365 0.249,0.25884 2.19,0.68239 4.314,0.94122 2.78,0.33871 3.826,0.64529 3.733,1.09385 -0.07,0.34279 0.08,0.49716 0.324,0.34306 0.249,-0.1541 0.645,0.0629 0.88,0.48212 0.289,0.51623 1.475,0.88889 3.676,1.15446 1.787,0.21569 3.778,0.52979 4.426,0.69801 0.647,0.16822 2.178,0.42095 3.402,0.56161 1.225,0.14067 2.116,0.43475 1.981,0.65353 -0.135,0.21878 0.345,0.54248 1.068,0.71934 0.722,0.17686 1.431,0.50015 1.575,0.71844 0.295,0.44529 6.302,2.17026 9.069,2.60394 1.225,0.19204 1.602,0.40927 1.177,0.67887 -0.464,0.29396 -0.382,0.40846 0.315,0.44288 1.644,0.0811 2.773,0.3413 4.706,1.08499 1.035,0.39827 2.451,0.73342 3.146,0.74478 0.695,0.0114 1.788,0.22018 2.43,0.46404 1.129,0.42933 1.16,0.564 0.999,4.24705 -0.09,2.09201 -0.299,4.22358 -0.462,4.73681 -0.163,0.51323 -0.364,3.5974 -0.446,6.85371 -0.08,3.25631 -0.364,6.13511 -0.627,6.39735 -0.273,0.27375 -0.326,1.00761 -0.122,1.72335 0.552,1.94624 0.261,6.98125 -0.453,7.84203 -0.466,0.56115 -0.494,0.86077 -0.104,1.10196 0.528,0.32595 0.456,3.83273 -0.1,4.72644 -0.149,0.24062 -0.07,0.50852 0.17,0.59534 0.514,0.184 0.742,6.1969 0.301,7.9229 -0.165,0.64709 -0.318,2.55306 -0.341,4.23549 -0.02,1.68242 -0.152,3.24989 -0.289,3.48325 -0.243,0.4133 -0.231,1.58494 0.08,7.73129 0.137,2.71292 0.06,3.01433 -0.894,3.37587 -0.574,0.21834 -1.172,0.73087 -1.329,1.13895 -0.341,0.88874 -2.196,1.0014 -2.196,0.13337 0,-0.33473 -0.688,-0.81122 -1.529,-1.05887 l -1.53,-0.45028 0.139,-5.1767 c 0.08,-2.84719 0.299,-5.91792 0.495,-6.82384 0.195,-0.90592 0.213,-2.60011 0.04,-3.76487 -0.358,-2.3964 -0.231,-10.48714 0.175,-11.14391 0.147,-0.23703 0.09,-0.71393 -0.122,-1.05978 -0.214,-0.34585 -0.215,-1.23578 0,-1.97762 0.213,-0.74184 0.243,-1.34888 0.07,-1.34897 -0.246,-1.3e-4 -0.294,-10.05533 -0.07,-14.58872 0.02,-0.38825 -0.05,-1.29344 -0.163,-2.01153 -0.108,-0.7181 -0.02,-1.41314 0.19,-1.54456 0.213,-0.13141 0.267,-0.54981 0.121,-0.92977 -0.294,-0.76828 -2.517,-0.96272 -2.517,-0.22023 0,0.25883 -0.159,0.44553 -0.353,0.41488 -0.929,-0.14679 -1.223,0.11594 -0.588,0.52634 0.571,0.36889 0.503,0.45757 -0.353,0.4634 -0.582,0.004 -1.461,0.40928 -1.952,0.90071 -0.492,0.49142 -1.709,1.16943 -2.706,1.50667 -2.03,0.68666 -3.93,2.36068 -3.93,3.4619 0,0.48476 -0.446,0.72646 -1.34,0.72646 -0.737,0 -1.821,0.41726 -2.409,0.92724 -0.588,0.50999 -1.467,1.05369 -1.954,1.20824 -0.487,0.15454 -0.885,0.56081 -0.885,0.90282 0,0.342 -0.747,0.76198 -1.66,0.93328 -0.913,0.1713 -1.55,0.48994 -1.415,0.70809 0.135,0.21814 -0.283,0.52914 -0.928,0.6911 -0.646,0.16196 -1.174,0.58514 -1.174,0.9404 0,0.35526 -0.551,0.78438 -1.225,0.95359 -0.92,0.23094 -1.167,0.53427 -0.988,1.21625 0.13,0.49972 0.07,1.65487 -0.137,2.56701 -0.206,0.91213 -0.227,1.65843 -0.05,1.65843 0.18,0 0.342,1.74713 0.36,3.88252 0.02,2.13539 0.06,5.7885 0.09,8.11802 0.09,7.36735 -0.152,12.22422 -0.639,12.58159 -0.289,0.21232 -0.237,0.34853 0.134,0.35296 0.46,0.005 0.484,0.23414 0.1,0.95158 -0.278,0.5194 -0.603,3.21952 -0.721,6.00026 -0.119,2.78075 -0.297,5.74751 -0.396,6.5928 -0.1,0.8453 -0.03,1.62698 0.145,1.73706 0.178,0.11009 0.191,1.40013 0.03,2.86676 -0.249,2.26277 -0.164,2.74737 0.56,3.19989 1.023,0.63869 1.13,1.71871 0.17,1.71871 -0.376,0 -1.064,0.54717 -1.529,1.21593 -0.465,0.66877 -1.428,1.76264 -2.14,2.43084 -0.711,0.6682 -1.294,1.49756 -1.294,1.84303 0,0.34546 -0.418,0.62812 -0.929,0.62812 -0.788,0 -0.864,-0.17313 -0.499,-1.13262 z m -0.08,-6.47817 c 0.45,-3.58271 0.36,-7.59345 -0.174,-7.77348 -0.28,-0.0946 -0.527,0.0986 -0.548,0.42935 -0.405,6.39391 -0.408,10.25539 0,9.8543 0.261,-0.26041 0.589,-1.38998 0.729,-2.51017 z m 2.669,1.93096 c -0.149,-0.24095 0.112,-0.44133 0.58,-0.4453 0.657,-0.006 0.706,-0.0995 0.213,-0.41178 -0.361,-0.22889 -0.445,-0.52435 -0.192,-0.6804 0.245,-0.1517 0.407,-0.92762 0.36,-1.72427 -0.05,-0.79665 0.09,-1.55895 0.311,-1.694 0.218,-0.13506 0.175,-0.66063 -0.1,-1.16794 -0.272,-0.50731 -0.331,-1.18273 -0.132,-1.50092 0.498,-0.79738 0.541,-3.63228 0.06,-3.92992 -0.217,-0.13377 -0.259,-0.46173 -0.09,-0.72879 0.165,-0.26706 0.38,-1.78779 0.477,-3.3794 0.27,-4.42101 0.552,-7.42121 0.881,-9.36471 0.175,-1.03515 0.108,-1.76478 -0.16,-1.76478 -0.252,0 -0.349,-0.58238 -0.215,-1.29418 0.134,-0.7118 0.242,-2.72362 0.239,-4.47072 0,-2.27599 0.149,-3.08424 0.539,-2.85097 0.341,0.2047 0.322,0.0526 -0.05,-0.40967 -0.356,-0.44058 -0.572,-1.93846 -0.539,-3.73756 0.03,-1.65127 -0.09,-3.55425 -0.262,-4.22884 -0.215,-0.82604 -0.08,-1.46418 0.409,-1.95438 0.538,-0.53737 0.577,-0.78575 0.152,-0.94906 -0.353,-0.13558 -0.571,-1.15507 -0.564,-2.63406 0,-1.58783 -0.184,-2.41286 -0.56,-2.41286 -1.015,0 -1.265,1.03457 -1.324,5.48645 -0.03,2.40104 -0.171,4.47821 -0.308,4.61594 -0.138,0.13774 -0.08,1.46826 0.117,2.95673 0.311,2.28928 0.552,9.00745 0.41,11.41257 -0.02,0.38825 -0.123,2.92954 -0.221,5.64731 -0.1,2.71777 -0.214,4.9414 -0.257,4.9414 -0.04,0 -0.147,3.39432 -0.232,7.54293 -0.09,4.14861 -0.196,7.74877 -0.246,8.00036 -0.218,1.09873 0.06,2.13584 0.499,1.86451 0.263,-0.16258 0.356,-0.49274 0.208,-0.73369 z m -61.376,-6.764 c 0.504,-0.66702 0.522,-0.81204 0.06,-0.53682 -0.463,0.27915 -0.586,0.0887 -0.47,-0.73323 0.09,-0.61067 0.367,-1.2659 0.626,-1.45606 0.311,-0.22858 0.308,-0.3482 -0.01,-0.35296 -0.323,-0.005 -0.353,-1.52567 -0.09,-4.59565 0.419,-4.93551 0.416,-4.83687 0.214,-6.94149 -0.07,-0.7765 0.02,-1.88832 0.219,-2.4707 0.195,-0.58237 0.197,-1.05887 0,-1.05887 -0.192,0 -0.288,-0.79415 -0.214,-1.76478 0.07,-0.97063 0.187,-3.88253 0.252,-6.47088 0.06,-2.58835 0.276,-4.95618 0.469,-5.26184 0.194,-0.30565 0.145,-0.68376 -0.108,-0.84022 -0.279,-0.1724 -0.301,-0.70486 -0.06,-1.35146 0.241,-0.63389 0.219,-1.40121 -0.05,-1.89042 -0.317,-0.56575 -0.282,-1.03875 0.11,-1.51144 0.648,-0.78063 0.979,-4.06401 0.373,-3.68891 -0.218,0.13447 -0.186,-0.30915 0.07,-0.98582 0.347,-0.91431 0.326,-1.14314 -0.08,-0.89091 -0.393,0.24328 -0.431,0.0843 -0.133,-0.56137 0.485,-1.05214 0.665,-9.62092 0.216,-10.31295 -1.213,-1.86998 0.493,-4.08899 2.169,-2.82039 0.489,0.36999 1.259,0.67945 1.712,0.68768 0.453,0.008 0.824,0.28668 0.824,0.61877 0,0.36189 0.518,0.57582 1.294,0.53396 0.711,-0.0384 1.611,0.0925 2,0.29099 0.388,0.19846 2.4,0.4191 4.47,0.49032 2.071,0.0712 3.97,0.23896 4.22,0.37278 0.25,0.13382 0.992,0.25527 1.647,0.2699 0.655,0.0146 1.406,0.16675 1.668,0.33805 0.262,0.1713 2.22,0.38307 4.351,0.47061 2.132,0.0875 3.876,0.33226 3.877,0.54383 0,0.21157 0.4,0.2582 0.887,0.10363 0.527,-0.16722 0.984,-0.0244 1.128,0.3526 0.152,0.39452 1.151,0.67506 2.648,0.74336 1.322,0.0603 3.938,0.51773 5.812,1.01643 1.875,0.4987 4.392,0.91171 5.594,0.9178 1.452,0.007 2.271,0.23667 2.443,0.68405 0.148,0.38537 1.225,0.80387 2.521,0.97928 1.244,0.16847 2.879,0.58704 3.632,0.93015 2.017,0.91811 2.537,0.51113 2.279,-1.78436 -0.265,-2.35336 -0.147,-2.19262 -1.826,-2.49323 -0.744,-0.13308 -1.799,-0.53257 -2.344,-0.88774 -0.546,-0.35517 -2.346,-0.8826 -4,-1.17206 -1.655,-0.28945 -3.643,-0.71163 -4.42,-0.93816 -0.776,-0.22654 -3.056,-0.55227 -5.066,-0.72385 -2.069,-0.17667 -3.933,-0.5907 -4.297,-0.95465 -0.353,-0.35347 -0.773,-0.51157 -0.934,-0.35134 -0.16,0.16023 -0.291,0.0318 -0.291,-0.28549 0,-0.31725 -0.197,-0.45498 -0.438,-0.30606 -0.241,0.14891 -0.573,0.0521 -0.738,-0.21521 -0.165,-0.26728 -0.492,-0.36797 -0.725,-0.22375 -0.233,0.14422 -1.055,-0.0641 -1.826,-0.46293 -0.815,-0.42121 -2.609,-0.72515 -4.28,-0.72515 -1.583,0 -3.242,-0.1948 -3.687,-0.43288 -0.445,-0.23809 -1.437,-0.52163 -2.204,-0.63009 -0.768,-0.10846 -1.992,-0.4431 -2.72,-0.74364 -0.729,-0.30054 -1.534,-0.54644 -1.788,-0.54644 -0.255,0 -1.142,-0.35626 -1.97,-0.79169 -1.564,-0.82214 -1.984,-0.90762 -5.506,-1.12046 -1.164,-0.0704 -2.387,-0.33396 -2.716,-0.58572 -0.329,-0.25177 -1.388,-0.5386 -2.353,-0.63741 -2.728,-0.27937 -3.145,-0.50997 -2.446,-1.35245 0.325,-0.39144 0.462,-0.84033 0.305,-0.99752 -0.157,-0.1572 -0.1,-0.63998 0.135,-1.07286 0.238,-0.44378 0.245,-1.07281 0.02,-1.44224 -0.229,-0.36944 -0.222,-0.99847 0.02,-1.44225 0.231,-0.43288 0.286,-0.92197 0.121,-1.08688 -0.165,-0.1649 -0.321,-1.30456 -0.347,-2.53257 -0.03,-1.22801 -0.165,-2.44452 -0.309,-2.70336 -0.144,-0.25883 -0.222,-1.15887 -0.174,-2.00009 0.05,-0.85391 -0.143,-1.53266 -0.433,-1.53668 -0.287,-0.004 -0.204,-0.2125 0.184,-0.46341 0.628,-0.40551 0.628,-0.4578 0,-0.47061 -0.575,-0.0118 -0.588,-0.089 -0.07,-0.41899 0.445,-0.28203 0.481,-0.50208 0.118,-0.72648 -0.287,-0.17705 -0.521,-0.53368 -0.521,-0.79251 0,-0.25884 0.265,-0.31157 0.588,-0.1172 0.441,0.26493 0.435,0.16454 -0.02,-0.40093 -0.336,-0.4149 -0.424,-0.87013 -0.195,-1.01163 0.442,-0.27275 0.462,-1.6495 0.04,-2.42315 -0.359,-0.65156 -0.223,-6.68606 0.159,-7.06769 0.173,-0.17339 0.122,-0.82292 -0.114,-1.44339 -0.236,-0.62047 -0.257,-1.12813 -0.05,-1.12813 0.388,0 0.314,-3.60769 -0.113,-5.51977 -0.129,-0.57693 -0.07,-1.14824 0.123,-1.26957 0.298,-0.18444 0.355,-3.79937 0.06,-3.79937 -0.336,0 -0.251,-2.67047 0.09,-2.88215 0.238,-0.14688 0.245,-0.49903 0.02,-0.80697 -0.223,-0.3005 -0.385,-0.86403 -0.36,-1.25228 0.02,-0.38825 -0.174,-0.8615 -0.442,-1.05167 -0.318,-0.22607 -0.292,-0.34824 0.07,-0.35295 0.343,-0.004 0.462,-0.41905 0.306,-1.06608 -0.14,-0.58238 -0.315,-3.17661 -0.389,-5.76496 -0.07,-2.58836 -0.3,-5.11144 -0.503,-5.60687 -0.252,-0.61213 -0.203,-0.79756 0.151,-0.57867 0.357,0.22072 0.428,-0.0882 0.224,-0.98167 -0.163,-0.71707 -0.262,-4.32154 -0.219,-8.00995 0.06,-4.99381 -0.07,-6.71462 -0.498,-6.73925 -0.316,-0.0182 -0.151,-0.21509 0.367,-0.43754 0.518,-0.22245 0.669,-0.41934 0.336,-0.43753 -0.458,-0.0251 -0.482,-0.26131 -0.101,-0.9743 0.425,-0.79362 0.358,-0.94121 -0.426,-0.94121 -0.511,0 -1.061,-0.21178 -1.221,-0.47061 -0.16,-0.25884 -0.543,-0.46737 -0.851,-0.46341 -0.375,0.005 -0.349,0.14107 0.08,0.41179 0.351,0.22251 0.452,0.51962 0.225,0.66024 -0.228,0.14062 -0.351,3.18488 -0.273,6.76501 0.08,3.58014 0.124,7.51527 0.104,8.74474 -0.02,1.33406 0.173,2.23539 0.482,2.23539 0.336,0 0.37,0.26361 0.1,0.75407 -0.232,0.41474 -0.259,1.63244 -0.06,2.706 0.209,1.12838 0.177,2.01854 -0.08,2.10978 -0.239,0.0868 -0.335,0.32008 -0.213,0.51835 0.229,0.3697 0.641,4.02609 1.064,9.44191 0.131,1.68243 0.261,7.92976 0.288,13.88297 0.03,6.84682 0.227,10.95106 0.534,11.16977 0.321,0.2283 0.323,0.3482 0,0.35295 -0.562,0.009 -0.624,9.34661 -0.07,10.24296 0.201,0.32355 0.194,0.58831 -0.01,0.58836 -0.454,1.1e-4 -0.502,17.4285 -0.05,18.14083 0.172,0.2712 0.163,0.73553 -0.02,1.03186 -0.183,0.29634 -0.277,2.40397 -0.209,4.68363 0.417,14.03403 0.429,16.48382 0.08,17.42289 -0.211,0.57322 -0.233,1.13548 -0.05,1.24947 0.184,0.11399 0.335,3.50969 0.335,7.54601 0,4.03632 0.106,7.33894 0.235,7.33916 0.372,6.5e-4 0.274,15.88378 -0.101,16.25875 -0.185,0.1852 -0.115,0.75056 0.156,1.25637 0.271,0.50581 0.535,0.84857 0.587,0.76169 0.05,-0.0869 0.406,-0.56922 0.785,-1.07186 z m 2.947,-5.45047 c -0.05,-1.6763 -0.118,-4.07709 -0.144,-5.3351 -0.03,-1.25801 -0.183,-2.15198 -0.348,-1.98662 -0.372,0.37217 -0.564,2.25966 -0.71,6.99212 -0.09,3.04062 0,3.63559 0.593,3.51843 0.553,-0.11041 0.685,-0.80239 0.609,-3.18883 z m 56.331,1.18767 c -0.357,-0.43029 -0.364,-0.71616 -0.02,-0.9271 0.783,-0.48409 0.574,-1.19064 -0.353,-1.19064 -0.608,0 -0.85,0.36561 -0.858,1.29417 -0.01,1.32189 0.638,2.13342 1.352,1.69184 0.219,-0.13538 0.166,-0.52611 -0.118,-0.86827 z m -0.232,-4.35314 c -0.07,-0.97063 0.06,-2.12254 0.29,-2.55979 0.258,-0.49436 0.228,-0.91063 -0.08,-1.10077 -0.343,-0.21208 -0.336,-0.49636 0.02,-0.92788 0.363,-0.43761 0.368,-0.71397 0.01,-0.93184 -0.275,-0.17034 -0.374,-0.51586 -0.218,-0.76782 0.453,-0.73193 0.563,-5.59478 0.128,-5.59478 -0.218,0 -0.396,0.41105 -0.396,0.91344 0,0.5024 -0.222,1.05069 -0.493,1.21842 -0.342,0.2113 -0.343,0.4861 0,0.89464 0.269,0.32432 0.357,0.72193 0.195,0.88358 -0.161,0.16165 -0.341,2.41874 -0.398,5.01575 -0.08,3.50665 0.05,4.72184 0.48,4.72184 0.385,0 0.542,-0.60405 0.459,-1.76479 z m 35.525,-3.59687 c 0,-0.10173 -0.328,-0.31107 -0.73,-0.46522 -0.419,-0.16071 -0.607,-0.0818 -0.443,0.18496 0.277,0.44717 1.173,0.66141 1.173,0.28026 z m 2.206,-8.63981 c 0.188,-15.71166 0.207,-16.11714 0.773,-16.13184 0.303,-0.008 0.164,-0.23906 -0.308,-0.51375 -0.472,-0.27469 -0.967,-0.39109 -1.1,-0.25868 -0.132,0.13242 -0.342,4.22365 -0.466,9.09163 -0.124,4.86797 -0.418,9.0831 -0.654,9.36694 -0.264,0.31889 -0.208,0.75007 0.149,1.12845 0.456,0.48427 0.45,0.65884 -0.03,0.8346 -0.425,0.15528 -0.463,0.39682 -0.127,0.80167 0.265,0.31869 0.575,1.09225 0.691,1.71902 0.115,0.62678 0.225,1.19254 0.244,1.25724 0.02,0.0647 0.194,0.11728 0.388,0.11681 0.194,-4.6e-4 0.393,-3.3359 0.441,-7.41209 z m -3.02,3.41276 c -0.123,-1.37996 0,-2.11774 0.346,-2.11774 0.325,0 0.257,-0.27825 -0.17,-0.70592 -0.388,-0.38825 -0.774,-0.70573 -0.857,-0.70551 -0.147,3.9e-4 -0.137,4.57931 0.01,5.29395 0.04,0.19413 0.25,0.35296 0.466,0.35296 0.217,0 0.308,-0.95298 0.204,-2.11774 z m -91.029,-0.67802 c 0.38,-1.08929 0.352,-1.33386 -0.13,-1.14875 -0.337,0.12935 -0.613,0.75212 -0.613,1.38393 0,1.49838 0.156,1.44895 0.743,-0.23518 z m 53.997,-0.60806 c 0.156,-0.49215 0.499,-0.70642 0.822,-0.51286 0.412,0.24707 0.422,0.15815 0.04,-0.34612 -0.283,-0.37323 -0.475,-1.26098 -0.426,-1.97277 0.05,-0.73734 -0.152,-1.29418 -0.471,-1.29418 -0.568,0 -0.683,-2.0627 -0.144,-2.60122 0.161,-0.16131 0.115,-0.91267 -0.102,-1.66969 -0.277,-0.96611 -0.229,-1.37855 0.161,-1.38361 0.35,-0.005 0.382,-0.13494 0.08,-0.35295 -0.611,-0.44885 -0.826,-2.4635 -0.263,-2.4635 0.242,0 0.28,-0.57142 0.09,-1.29417 -0.19,-0.7118 -0.334,-3.01326 -0.321,-5.11437 0.02,-2.47742 -0.182,-4.01404 -0.563,-4.37169 -0.375,-0.35198 -0.609,-0.37453 -0.647,-0.0623 -0.312,2.59265 -0.407,6.04537 -0.359,12.96031 0,1.29418 -0.126,4.41719 -0.299,6.94003 l -0.316,4.58698 1.223,-0.10125 c 0.702,-0.0581 1.338,-0.46163 1.492,-0.9466 z m 37.611,-9.77324 c -0.16,-0.25884 -0.608,-0.47061 -0.996,-0.47061 -0.389,0 -0.575,0.21177 -0.416,0.47061 0.16,0.25883 0.609,0.47061 0.997,0.47061 0.388,0 0.575,-0.21178 0.415,-0.47061 z m -0.235,-2.38082 c 0,-0.53295 -0.203,-0.84383 -0.45,-0.69084 -0.248,0.15298 -0.331,0.58902 -0.185,0.96899 0.373,0.9728 0.635,0.85816 0.635,-0.27815 z m 0.436,-6.83798 c -0.235,-0.28341 -0.282,-0.66077 -0.105,-0.83857 0.495,-0.49451 0.579,-1.70786 0.119,-1.70786 -0.225,0 -0.111,-0.84161 0.251,-1.87023 0.363,-1.02863 0.513,-1.96136 0.333,-2.07274 -0.315,-0.19435 -0.301,-5.95073 0.03,-10.88123 0.09,-1.29417 -0.04,-2.61776 -0.274,-2.94131 -0.254,-0.34717 -0.256,-0.58826 0,-0.58826 0.666,0 0.704,-2.48551 0.04,-2.91226 -0.459,-0.29731 -0.433,-0.48474 0.116,-0.84541 0.514,-0.33741 0.538,-0.46536 0.09,-0.47061 -0.339,-0.004 -0.479,-0.22825 -0.312,-0.49843 0.166,-0.27017 0.02,-0.83015 -0.322,-1.2444 -0.552,-0.66553 -0.489,-0.71431 0.548,-0.41917 0.892,0.25423 1.004,0.21596 0.467,-0.16021 -1.074,-0.75185 -1.747,-0.60766 -2.019,0.43257 -0.135,0.51767 -0.04,0.94122 0.207,0.94122 0.269,0 0.342,1.0957 0.178,2.706 -0.235,2.31722 -0.378,10.59447 -0.312,18.00081 0.01,1.16476 -0.05,3.2825 -0.126,4.70609 -0.174,3.1009 0.113,3.81517 0.923,2.30036 0.369,-0.68806 0.435,-1.32009 0.173,-1.63636 z m 2.387,-1.13461 c -0.513,-0.33149 -0.537,-0.45816 -0.09,-0.4634 0.338,-0.004 0.471,-0.24159 0.294,-0.52806 -0.226,-0.36575 -0.436,-0.33741 -0.703,0.0952 -0.449,0.7269 -0.145,1.36983 0.644,1.35969 0.337,-0.004 0.279,-0.1893 -0.146,-0.46341 z m 0.471,-5.1767 c 0,-0.25883 -0.224,-0.47061 -0.498,-0.47061 -0.274,0 -0.368,0.21178 -0.208,0.47061 0.16,0.25884 0.384,0.47061 0.498,0.47061 0.115,0 0.208,-0.21177 0.208,-0.47061 z m -35.467,-2.84421 c 0.908,-0.29964 1.765,-0.84114 1.904,-1.20334 0.139,-0.3622 0.522,-0.65854 0.85,-0.65854 0.329,0 0.851,-0.30405 1.159,-0.67567 0.308,-0.37161 1.183,-0.81237 1.944,-0.97947 0.761,-0.16709 1.6,-0.71014 1.866,-1.20677 0.266,-0.49663 0.707,-0.90297 0.981,-0.90297 0.274,0 1.036,-0.42355 1.694,-0.94122 0.658,-0.51767 1.591,-0.94121 2.074,-0.94121 0.797,0 0.935,-0.21066 0.85,-1.29418 -0.01,-0.19413 0.461,-0.47759 1.059,-0.62992 0.597,-0.15233 1.037,-0.51169 0.977,-0.79857 -0.06,-0.28688 0.893,-0.80996 2.118,-1.16239 1.583,-0.45573 2.208,-0.8707 2.161,-1.43683 -0.04,-0.43782 0.229,-0.79604 0.588,-0.79604 0.36,0 0.654,-0.20773 0.654,-0.46164 0,-0.2539 0.529,-0.59452 1.176,-0.75693 0.647,-0.16241 1.177,-0.48411 1.177,-0.71488 0,-0.23078 0.43,-0.41959 0.956,-0.41959 1.665,0 4.345,-1.3499 4.075,-2.05265 -0.168,-0.43785 0.384,-0.83809 1.713,-1.24238 3.309,-1.00621 6.415,-2.55531 6.424,-3.20362 0,-0.33882 0.173,-0.514 0.375,-0.38929 0.202,0.12471 0.361,-0.49798 0.353,-1.38375 -0.01,-1.50215 -0.788,-2.17267 -1.388,-1.20128 -0.139,0.2254 -0.897,0.5386 -1.684,0.696 -1.347,0.26939 -1.839,0.56245 -3.563,2.12126 -0.389,0.35131 -1.123,0.52989 -1.632,0.39685 -0.508,-0.13304 -0.828,-0.0855 -0.71,0.10557 0.118,0.1911 -0.993,0.72455 -2.47,1.18544 -1.476,0.46089 -2.905,1.01517 -3.174,1.23173 -0.27,0.21657 -1.216,0.52168 -2.104,0.67803 -1.665,0.29337 -2.112,0.53292 -2.112,1.13083 0,0.87776 -1.744,1.93728 -3.366,2.04446 -1.388,0.0918 -2.222,0.55704 -3.739,2.08575 -1.289,1.29894 -2.546,2.07883 -3.697,2.29482 -0.959,0.17994 -1.855,0.61809 -1.992,0.97366 -0.136,0.35557 -0.527,0.64649 -0.869,0.64649 -0.342,0 -1.038,0.52943 -1.547,1.17652 -0.509,0.64709 -1.224,1.17653 -1.589,1.17653 -0.365,0 -1.614,0.60242 -2.774,1.33871 -2.107,1.33578 -2.111,1.34411 -1.969,3.80687 0.154,2.6687 1.124,5.17633 1.433,3.70515 0.09,-0.43821 0.911,-1.04191 1.818,-1.34154 z m 36.408,0.67158 c 0,-0.0992 -0.423,-0.18042 -0.941,-0.18042 -0.518,0 -0.941,0.19195 -0.941,0.42656 0,0.2346 0.423,0.31579 0.941,0.18041 0.518,-0.13537 0.941,-0.32732 0.941,-0.42655 z m -0.268,-1.06831 c 0.285,-0.46162 -1.027,-1.73891 -1.401,-1.36427 -0.333,0.33243 0.278,1.78156 0.751,1.78156 0.215,0 0.508,-0.18778 0.65,-0.41729 z m -0.673,-2.40637 c -0.388,-0.25091 -0.464,-0.45944 -0.168,-0.4634 0.371,-0.005 0.483,-1.10167 0.361,-3.53678 -0.113,-2.24711 0,-3.52957 0.313,-3.52957 0.27,0 0.383,-0.17367 0.252,-0.38593 -0.474,-0.76744 -0.686,-2.90834 -0.288,-2.90834 0.225,0 0.39,-0.64216 0.368,-1.42702 -0.05,-1.79171 -0.909,-1.59018 -1.162,0.27304 -0.28,2.05706 -0.505,11.68628 -0.283,12.09565 0.106,0.19413 0.444,0.34972 0.752,0.34575 0.337,-0.004 0.279,-0.18929 -0.145,-0.4634 z m -39.999,-3.81523 c 0,-0.23114 0.476,-0.42699 1.059,-0.43522 1.255,-0.0177 2.621,-0.96043 2.388,-1.64924 -0.09,-0.26823 0.293,-0.52216 0.852,-0.5643 0.56,-0.0421 1.251,-0.33024 1.535,-0.64023 0.384,-0.41702 0.366,-0.47723 -0.07,-0.23149 -0.323,0.18266 -0.588,0.15278 -0.588,-0.0664 0,-0.21919 1.324,-0.81407 2.941,-1.32195 1.774,-0.55688 2.941,-1.18583 2.941,-1.58448 0,-0.36358 0.389,-0.71806 0.863,-0.78774 0.475,-0.0697 1.11,-0.46294 1.412,-0.87392 0.302,-0.41099 1.026,-0.83865 1.609,-0.95037 0.584,-0.11172 1.325,-0.37072 1.647,-0.57556 0.577,-0.36633 0.828,-0.44637 1.763,-0.56332 0.259,-0.0324 0.471,-0.47278 0.471,-0.97872 0,-0.68623 0.437,-1.00191 1.721,-1.24276 0.946,-0.17757 2.27,-0.60941 2.941,-0.95964 0.671,-0.35023 1.478,-0.63809 1.792,-0.63969 0.815,-0.004 3.899,-1.52395 3.899,-1.92148 0,-0.18283 0.58,-0.47806 1.289,-0.65606 0.709,-0.178 1.397,-0.47144 1.529,-0.6521 0.132,-0.18066 1.49,-0.71413 3.017,-1.1855 2.094,-0.64651 2.614,-0.97215 2.117,-1.32574 -0.505,-0.35931 -0.452,-0.40154 0.225,-0.18091 0.877,0.28584 2.175,-0.42032 2.175,-1.1831 0,-0.21902 -0.317,-0.27632 -0.705,-0.12733 -0.454,0.17399 -0.706,-0.01 -0.706,-0.51315 0,-0.43122 -0.174,-0.67649 -0.387,-0.54505 -0.213,0.13145 -0.935,-0.0453 -1.604,-0.39281 -0.67,-0.34749 -2.349,-0.78391 -3.731,-0.96983 -1.383,-0.18591 -2.819,-0.57903 -3.192,-0.87359 -0.522,-0.41161 -0.597,-0.39942 -0.325,0.0527 0.194,0.32354 0.152,0.58826 -0.09,0.58826 -0.246,0 -0.57,-0.31766 -0.719,-0.70591 -0.163,-0.42665 -0.881,-0.70877 -1.815,-0.71313 -1.17,-0.005 -1.373,-0.11771 -0.838,-0.4634 0.589,-0.38095 0.551,-0.46921 -0.235,-0.53508 -0.518,-0.0434 -1.191,-0.10228 -1.496,-0.13086 -0.306,-0.0286 -0.712,-0.20811 -0.902,-0.39893 -0.191,-0.19083 -1.024,-0.34696 -1.85,-0.34696 -0.827,0 -2.283,-0.52904 -3.237,-1.17652 -0.953,-0.64709 -2.266,-1.17652 -2.917,-1.17652 -0.651,0 -1.059,-0.20108 -0.907,-0.44683 0.295,-0.47662 -1.333,-0.83019 -5.196,-1.12861 -1.312,-0.10143 -2.834,-0.42377 -3.38,-0.71632 -0.547,-0.29254 -1.951,-0.5319 -3.119,-0.5319 -1.528,0 -2.26,-0.2316 -2.605,-0.82356 -0.38,-0.65153 -0.486,-0.67611 -0.508,-0.11766 -0.02,0.55846 -0.129,0.53388 -0.509,-0.11765 -0.264,-0.45296 -0.799,-0.82357 -1.19,-0.82357 -0.39,0 -0.579,-0.21177 -0.419,-0.47061 0.182,-0.29411 -0.787,-0.4706 -2.583,-0.4706 -2.506,0 -3.022,0.15993 -4.033,1.25051 -0.992,1.07055 -5.772,3.44678 -6.947,3.4534 -0.529,0.003 -1.731,1.24557 -1.731,1.78984 0,0.24369 -0.962,0.71241 -2.138,1.04162 -1.175,0.32921 -2.393,0.9636 -2.705,1.40976 -0.313,0.44616 -1.257,0.96237 -2.098,1.14713 -0.841,0.18476 -1.529,0.50617 -1.529,0.71425 0,0.20809 -0.477,0.53338 -1.059,0.72287 -0.582,0.1895 -1.165,0.39077 -1.294,0.44728 -1.708,0.74555 -2.967,1.2004 -3.325,1.2004 -0.242,0 -0.44,0.31766 -0.44,0.70591 0,0.39892 -0.421,0.70591 -0.969,0.70591 -0.533,0 -0.838,0.21178 -0.678,0.47061 0.167,0.26985 -0.257,0.47061 -0.994,0.47061 -0.707,0 -1.621,0.30426 -2.032,0.67613 -0.411,0.37187 -1.332,0.7823 -2.048,0.91207 -1.943,0.35237 -5.043,1.81714 -5.047,2.3849 0,0.63324 -2.219,1.67421 -3.562,1.67421 -0.564,0 -1.3,0.33163 -1.637,0.73695 -0.858,1.03452 -3.075,2.11507 -3.519,1.71498 -0.204,-0.1838 -0.237,-0.10014 -0.07,0.18591 0.163,0.28606 1.065,0.48177 2.004,0.43493 1.011,-0.0505 1.801,0.15741 1.936,0.50981 0.126,0.32724 1.428,0.74004 2.895,0.91732 1.467,0.17729 2.878,0.47887 3.137,0.6702 0.259,0.19132 1.566,0.47096 2.905,0.62141 1.339,0.15046 2.928,0.53029 3.53,0.84407 2.325,1.21197 2.766,1.36478 3.939,1.36478 0.666,0 1.104,0.17281 0.974,0.38401 -0.131,0.2112 0.743,0.43477 1.941,0.49681 1.199,0.062 2.317,0.1977 2.485,0.30145 0.317,0.19601 1.496,0.40165 5.285,0.92165 1.229,0.16874 2.235,0.45266 2.236,0.63092 0,0.17827 0.672,0.37144 1.494,0.42928 0.821,0.0578 1.637,0.33881 1.813,0.6244 0.177,0.28559 0.616,0.46902 0.977,0.40764 0.361,-0.0614 1.206,0.11679 1.879,0.39596 0.673,0.27917 2.945,0.65777 5.05,0.84134 2.104,0.18358 3.737,0.47791 3.628,0.65407 -0.109,0.17617 0.683,0.37229 1.76,0.43583 1.077,0.0635 2.038,0.1955 2.135,0.29323 0.299,0.29846 1.498,-0.30127 1.498,-0.74902 z m 41.411,-10.95861 c 0,-0.10173 -0.329,-0.31108 -0.731,-0.46522 -0.418,-0.16071 -0.607,-0.0818 -0.442,0.18495 0.276,0.44718 1.173,0.66142 1.173,0.28027 z m -95.213,-1.53974 c -0.172,-0.17207 0.254,-0.65626 0.948,-1.07597 0.97,-0.58664 1.295,-1.19445 1.407,-2.62844 0.08,-1.02594 0.259,-2.92422 0.398,-4.21839 0.138,-1.29418 0.312,-3.42093 0.386,-4.72613 0.07,-1.30519 0.313,-2.6615 0.531,-3.01402 0.24,-0.38937 0.216,-0.52982 -0.06,-0.35784 -0.268,0.16567 -0.454,-0.4874 -0.448,-1.57442 0,-1.02163 0.233,-1.86076 0.503,-1.86473 0.271,-0.004 0.223,-0.17802 -0.106,-0.38681 -0.488,-0.31016 -0.531,-1.74643 -0.09,-2.90024 0.107,-0.27528 0.09,-0.42359 -0.199,-2.02959 -0.13,-0.71747 0.06,-1.43959 0.462,-1.77516 0.59,-0.48974 0.569,-0.69386 -0.154,-1.52033 -0.496,-0.56738 -0.564,-0.79505 -0.167,-0.56123 0.5,0.29418 0.592,0.19486 0.366,-0.39381 -0.166,-0.43296 -0.101,-1.31479 0.144,-1.95963 0.245,-0.64484 0.281,-1.17244 0.08,-1.17244 -0.202,0 -0.355,-1.25033 -0.342,-2.7785 0.01,-1.52818 0.184,-2.68044 0.378,-2.56058 0.194,0.11986 0.353,-0.21812 0.353,-0.75107 0,-0.53294 -0.179,-0.96899 -0.398,-0.96899 -0.514,0 -0.402,-2.19178 0.137,-2.68345 0.233,-0.21226 0.245,-0.0882 0.03,0.28546 -0.264,0.45474 -0.207,0.5518 0.183,0.31106 0.439,-0.27106 0.433,-0.50988 -0.02,-1.05983 -0.724,-0.87199 -1.014,-2.50055 -0.446,-2.50055 0.398,0 0.333,-1.86513 -0.144,-4.11783 -0.123,-0.58238 0,-1.05887 0.277,-1.05887 0.336,0 0.324,-0.21307 -0.04,-0.64868 -0.34,-0.40906 -0.394,-1.06093 -0.148,-1.76478 0.214,-0.61386 0.316,-1.64555 0.226,-2.29264 -0.363,-2.59908 -0.407,-3.55006 -0.183,-3.98095 0.129,-0.24825 0.288,-2.15422 0.353,-4.23548 0.07,-2.08126 0.134,-4.26024 0.152,-4.84218 0.05,-1.46331 3.094,-6.10214 4.251,-6.46935 0.521,-0.16558 0.948,-0.48383 0.948,-0.70722 0,-0.22339 0.477,-0.47887 1.059,-0.56772 0.582,-0.0889 1.006,-0.42125 0.941,-0.73865 -0.08,-0.3682 0.479,-0.57709 1.53,-0.57709 1.15,0 1.647,0.2129 1.647,0.70592 0,0.38825 0.266,0.70591 0.591,0.70591 1.217,0 2.324,4.10734 2.155,8.00036 -0.187,4.2915 -0.02,17.84931 0.265,22.11864 0.149,2.2001 0.388,7.06185 0.531,10.80389 0.143,3.74205 0.356,6.89917 0.473,7.01584 0.116,0.11667 0.01,0.45454 -0.235,0.75083 -0.29,0.34872 -0.208,1.00125 0.233,1.85027 0.515,0.99201 0.555,1.5452 0.167,2.27045 -0.282,0.52739 -0.332,1.09078 -0.111,1.25199 0.22,0.16121 0.426,1.66964 0.456,3.35207 0.124,6.97643 0.659,8.7157 2.112,6.86857 0.561,-0.71392 1.501,-1.21996 2.433,-1.30994 0.971,-0.0938 1.47,-0.37434 1.385,-0.77901 -0.07,-0.3478 0.137,-0.54256 0.467,-0.43279 0.329,0.10978 0.882,-0.0841 1.229,-0.43081 0.346,-0.34673 0.825,-0.51008 1.063,-0.363 0.238,0.14707 0.432,0.0306 0.432,-0.25876 0,-0.29567 0.258,-0.37134 0.589,-0.17274 0.438,0.26325 0.463,0.18028 0.1,-0.32518 -0.584,-0.8112 -0.592,-6.51768 -0.01,-7.4575 0.297,-0.47945 0.24,-0.55641 -0.207,-0.28024 -0.447,0.27656 -0.503,0.19988 -0.204,-0.28024 0.644,-1.03242 0.723,-2.30811 0.143,-2.30811 -0.361,0 -0.376,-0.18327 -0.05,-0.58826 0.263,-0.32355 0.428,-1.37445 0.366,-2.33535 -0.06,-0.9609 0.02,-1.66471 0.184,-1.56403 0.163,0.10068 0.296,-0.22495 0.296,-0.72361 0,-0.49867 -0.192,-0.90667 -0.427,-0.90667 -0.235,0 -0.217,-0.26472 0.04,-0.58826 0.269,-0.33792 0.444,-3.56146 0.411,-7.57469 -0.03,-3.84254 0.102,-7.08459 0.296,-7.20457 0.194,-0.11997 0.349,-0.47036 0.346,-0.77862 0,-0.34584 -0.201,-0.29014 -0.512,0.14542 -0.389,0.54413 -0.427,0.43626 -0.17,-0.47061 0.184,-0.64709 0.321,-2.123 0.304,-3.2798 -0.02,-1.1568 0.18,-2.35565 0.436,-2.66411 0.256,-0.30845 0.287,-0.67114 0.07,-0.80597 -0.317,-0.19597 -0.443,-4.30944 -0.132,-4.30944 0.05,0 0.156,-0.3706 0.242,-0.82356 0.09,-0.45296 -0.05,-0.82357 -0.299,-0.82357 -0.251,0 -0.299,-0.25461 -0.107,-0.5658 0.193,-0.31119 0.396,-3.9643 0.452,-8.11801 0.06,-4.15372 0.133,-7.55221 0.171,-7.55221 0.04,0 0.115,-1.09335 0.172,-2.42966 0.06,-1.52621 0.407,-2.76535 0.92,-3.33245 0.449,-0.49654 0.675,-1.04445 0.502,-1.21757 -0.173,-0.17312 -0.08,-0.31477 0.195,-0.31477 0.28,0 0.621,0.26472 0.757,0.58827 0.177,0.42126 0.395,0.35446 0.768,-0.23531 0.289,-0.45525 1.09,-0.82125 1.792,-0.81839 2.165,0.009 4.8,0.5674 4.8,1.0173 0,0.23579 0.426,0.8859 0.947,1.44468 0.663,0.7114 0.945,1.65779 0.942,3.15693 0,1.17754 0,5.10581 0,8.7295 0,3.62369 0,6.90619 -0.01,7.29444 0,0.38826 0.01,1.6589 0.04,2.82366 0.03,1.16476 0,2.32952 -0.04,2.58835 -0.05,0.25884 -0.05,0.68238 0,0.94122 0.05,0.25884 0.07,5.02375 0.03,10.58871 -0.03,5.56495 -0.03,10.54165 0.02,11.05932 0.05,0.51767 0.107,3.42956 0.137,6.47088 0.03,3.04131 0.228,5.52966 0.441,5.52966 0.834,0 2.219,-1.01278 1.959,-1.43344 -0.152,-0.24475 0.223,-0.67192 0.831,-0.94927 0.96,-0.43717 1.104,-0.82877 1.086,-2.9433 -0.01,-1.34148 -0.184,-2.68913 -0.382,-2.99479 -0.199,-0.30566 -0.161,-0.67912 0.08,-0.82991 0.271,-0.1678 0.279,-0.84545 0.02,-1.74666 -0.232,-0.80986 -0.339,-1.60766 -0.237,-1.77289 0.102,-0.16523 -0.08,-2.36873 -0.403,-4.89668 -0.324,-2.52795 -0.41,-4.70676 -0.191,-4.84181 0.218,-0.13505 0.285,-0.42672 0.148,-0.64817 -0.137,-0.22145 -0.346,-1.21274 -0.464,-2.20287 -0.119,-0.99014 -0.299,-2.38263 -0.4,-3.09443 -0.107,-0.74439 0.04,-1.29723 0.339,-1.30138 0.336,-0.005 0.355,-0.13072 0.05,-0.35295 -0.259,-0.19017 -0.47,-2.03995 -0.47,-4.11063 0,-2.07068 -0.165,-4.13548 -0.369,-4.58844 -0.236,-0.5237 -0.173,-0.82357 0.174,-0.82357 0.378,0 0.398,-0.18023 0.06,-0.58826 -0.479,-0.58805 -0.534,-1.64491 -0.542,-10.47106 0,-9.92779 0.234,-16.49686 0.635,-17.1323 0.28,-0.44403 0.246,-0.55527 -0.104,-0.33893 -0.362,0.22343 -0.475,-0.40083 -0.37,-2.03841 0.09,-1.40555 -0.07,-2.54506 -0.398,-2.81676 -0.458,-0.38044 -3.053,-0.39728 -3.445,-0.0224 -0.189,0.18096 -0.988,0.34337 -2,0.40662 -0.517,0.0324 -0.941,0.33407 -0.941,0.6705 0,0.37576 -1.407,0.94095 -3.647,1.46544 -4.979,1.16562 -4.823,1.10569 -4.823,1.85727 0,0.36832 -0.57,0.81255 -1.265,0.98719 -0.696,0.17464 -1.49,0.60634 -1.765,0.95934 -0.275,0.35301 -1.347,0.7691 -2.382,0.92466 -1.035,0.15556 -1.953,0.48802 -2.039,0.73881 -0.09,0.25078 -0.556,0.45597 -1.044,0.45597 -0.574,0 -0.797,0.23646 -0.631,0.66962 0.172,0.4469 -0.02,0.62834 -0.588,0.54552 -1.011,-0.14842 -6.387,1.96404 -6.839,2.68711 -0.219,0.35159 -0.548,0.3157 -1.069,-0.11655 -0.643,-0.534 -0.71,-0.51256 -0.456,0.14791 0.235,0.61211 0,0.77248 -1.138,0.77248 -0.789,0 -1.567,0.21523 -1.73,0.47829 -0.163,0.26306 -0.471,0.37016 -0.684,0.23801 -0.214,-0.13216 -0.516,0.0896 -0.67,0.49276 -0.155,0.40317 -0.495,0.60123 -0.756,0.44013 -0.26,-0.1611 -0.473,-0.0686 -0.473,0.20548 0,0.27411 -0.411,0.49838 -0.914,0.49838 -0.502,0 -1.044,0.21177 -1.204,0.47061 -0.16,0.25883 -0.702,0.47061 -1.204,0.47061 -0.503,0 -0.914,0.19495 -0.914,0.43321 0,0.23827 -0.635,0.57276 -1.411,0.74331 -0.777,0.17055 -1.412,0.50504 -1.412,0.74331 0,0.23827 -0.308,0.43321 -0.684,0.43321 -0.485,0 -0.631,0.40913 -0.504,1.41183 0.1,0.77651 0.01,1.41183 -0.188,1.41183 -0.201,0 -0.379,0.79415 -0.396,1.76479 -0.02,0.97063 -0.07,3.98841 -0.112,6.70618 -0.08,4.88692 0.231,13.42431 0.773,21.17742 0.154,2.2001 0.251,5.80026 0.215,8.00036 -0.188,11.67089 -0.145,21.70506 0.09,21.94445 0.149,0.14903 0.09,0.75685 -0.139,1.35071 -0.226,0.59386 -0.277,1.21353 -0.113,1.37706 0.471,0.47196 0.818,3.2289 1.128,8.97634 0.08,1.55301 0.366,2.97925 0.627,3.16941 0.596,0.43346 0.973,0.46565 0.555,0.0473 z m 94.534,-0.11357 c -0.145,-0.23453 -0.687,-0.31572 -1.204,-0.18041 -1.295,0.33862 -1.178,0.60684 0.263,0.60684 0.663,0 1.086,-0.19189 0.941,-0.42643 z m -87.609,-6.83675 c 0.548,-0.0382 0.937,-0.34127 0.866,-0.67357 -0.07,-0.3323 0.03,-0.50741 0.235,-0.38915 0.613,0.36161 2.562,-0.57619 2.25,-1.0823 -0.168,-0.27047 0.21,-0.47459 0.877,-0.47459 0.644,0 1.478,-0.30758 1.854,-0.68351 0.376,-0.37592 0.848,-0.53476 1.05,-0.35295 0.202,0.1818 0.18,0.0129 -0.05,-0.37537 -0.45,-0.76648 -0.61,-7.52968 -0.178,-7.52972 0.145,-2e-5 0.286,-1.00596 0.313,-2.23542 0.03,-1.22947 0.08,-2.2354 0.126,-2.2354 0.319,0 0.301,-1.69832 -0.02,-1.89723 -0.226,-0.13961 -0.247,-0.72283 -0.05,-1.29604 0.2,-0.57322 0.336,-2.73641 0.301,-4.80709 -0.03,-2.07068 0.136,-4.02959 0.381,-4.35313 0.295,-0.38991 0.258,-0.58827 -0.111,-0.58827 -0.308,0 -0.402,-0.24804 -0.211,-0.55764 0.555,-0.8977 0.315,-5.06792 -0.337,-5.85312 -0.484,-0.58353 -0.48,-0.79258 0.02,-1.10224 0.373,-0.23081 0.466,-0.62905 0.233,-1.00572 -0.578,-0.93543 -0.57,-6.53947 0,-6.54798 0.27,-0.004 0.173,-0.21249 -0.215,-0.4634 -0.388,-0.25091 -0.535,-0.45944 -0.325,-0.46341 0.209,-0.004 0.221,-0.2648 0.03,-0.57965 -0.423,-0.68346 -0.427,-5.44831 0,-5.86979 0.162,-0.16225 0.06,-0.5792 -0.229,-0.92656 -0.29,-0.3497 -0.324,-0.63156 -0.08,-0.63156 0.248,0 0.45,-0.31766 0.45,-0.70591 0,-0.38826 -0.123,-0.70603 -0.274,-0.70617 -0.151,-1.3e-4 -0.33,-1.95905 -0.397,-4.35313 -0.175,-6.25528 -0.3,-7.61173 -0.732,-7.92904 -0.659,-0.4846 -2.675,0.12387 -2.675,0.80736 0,0.35807 -0.212,0.65105 -0.471,0.65105 -0.259,0 -0.47,0.31766 -0.47,0.70591 0,0.38825 -0.304,0.70592 -0.675,0.70592 -0.596,0 -1.195,1.07013 -1.482,2.64781 -0.05,0.29154 -0.258,1.03275 -0.455,1.64713 -0.44,1.36487 -0.474,3.75519 -0.07,4.80875 0.165,0.4285 0.141,0.7791 -0.05,0.7791 -0.355,0 -0.513,6.03487 -0.525,20.0009 0,9.62033 0,9.06557 -0.262,14.58889 -0.294,6.16641 -0.312,8.19474 -0.09,9.77658 0.103,0.7181 0.01,1.41386 -0.202,1.54615 -0.215,0.13228 -0.199,0.74068 0.03,1.35199 0.232,0.61131 0.298,1.23624 0.145,1.38873 -0.152,0.1525 -0.329,1.1802 -0.393,2.28379 -0.06,1.10358 -0.162,2.21829 -0.219,2.47713 -0.195,0.89074 0.01,1.23135 0.543,0.90167 0.294,-0.18173 0.982,-0.36163 1.529,-0.3998 z m 10.342,-2.38431 c 0.149,-0.38825 0.09,-0.70591 -0.128,-0.70591 -0.219,0 -0.661,0.31766 -0.984,0.70591 -0.477,0.57467 -0.453,0.70592 0.128,0.70592 0.392,0 0.835,-0.31767 0.984,-0.70592 z m -0.369,-3.41428 c -0.131,-0.13147 -0.03,-0.62189 0.216,-1.08982 0.279,-0.52013 0.286,-0.9558 0.02,-1.121 -0.258,-0.15953 -0.272,-0.84329 -0.04,-1.66934 0.255,-0.88732 0.224,-1.50906 -0.08,-1.69962 -0.312,-0.19261 -0.257,-0.4457 0.152,-0.70505 0.368,-0.23313 0.416,-0.40763 0.113,-0.41178 -0.345,-0.005 -0.486,-1.05942 -0.408,-3.06617 0.07,-1.81446 -0.08,-3.05896 -0.356,-3.05896 -0.26,0 -0.182,-0.37061 0.173,-0.82357 0.568,-0.72376 0.557,-0.75463 -0.08,-0.25475 -0.579,0.45105 -0.741,1.68824 -0.78,5.97538 -0.03,2.9736 -0.188,5.62953 -0.356,5.90206 -0.169,0.27253 -0.07,0.4955 0.209,0.4955 0.357,0 0.37,0.26966 0.04,0.87934 -0.548,1.02441 -0.23,1.51951 0.739,1.14784 0.374,-0.14356 0.573,-0.36859 0.441,-0.50006 z m 15.022,-3.88016 c -0.16,-0.25884 0.05,-0.47061 0.47,-0.47061 0.419,0 0.637,-0.20189 0.484,-0.44865 -0.152,-0.24675 0.559,-0.67372 1.581,-0.94881 1.021,-0.2751 2.372,-0.76749 3.002,-1.09421 1.317,-0.68342 2.953,-2.21093 2.379,-2.22163 -0.213,-0.004 -0.07,-0.2125 0.319,-0.46341 0.537,-0.34727 0.348,-0.45791 -0.792,-0.4634 -1.108,-0.005 -1.741,0.33588 -2.438,1.3146 -0.524,0.73618 -2.102,1.81256 -3.561,2.42952 -1.828,0.77255 -2.621,1.36937 -2.621,1.97246 0,0.47561 0.33,0.86475 0.734,0.86475 0.403,0 0.603,-0.21178 0.443,-0.47061 z m 1.006,-4.00018 c 0.149,-0.38826 0.566,-0.70592 0.926,-0.70592 0.361,0 0.603,-0.23824 0.538,-0.52943 -0.06,-0.29119 0.514,-0.74877 1.286,-1.01685 2.104,-0.73096 2.382,-1.2363 2.514,-4.57164 0.231,-5.86897 0.215,-19.07147 -0.03,-20.59884 -0.133,-0.84654 -0.104,-1.62462 0.07,-1.72907 0.169,-0.10444 0.282,-4.91795 0.25,-10.69668 -0.03,-5.77872 0.05,-10.69676 0.173,-10.92896 0.416,-0.76008 0.389,-10.16652 -0.03,-10.16652 -0.224,0 -0.29,-0.18958 -0.147,-0.4213 0.144,-0.23171 0,-0.51385 -0.325,-0.62698 -0.983,-0.34521 -2.845,0.32231 -2.956,1.05929 -0.06,0.3822 -0.592,1.51949 -1.188,2.52731 -1.183,1.99898 -1.303,2.96678 -1.587,12.75648 -0.232,7.98847 -0.618,15.6064 -0.964,18.98076 -0.141,1.37575 -0.107,2.7415 0.07,3.03501 0.457,0.73913 0.63,2.69103 0.239,2.69211 -0.176,4.8e-4 -0.354,2.38294 -0.394,5.29435 -0.04,2.91141 -0.17,7.78182 -0.289,10.82313 -0.202,5.18989 -0.161,5.52966 0.676,5.52966 0.491,0 1.014,-0.31766 1.163,-0.70591 z m 8.513,-5.69634 c -0.156,-0.15638 -0.562,-0.17309 -0.902,-0.0371 -0.375,0.15023 -0.264,0.26175 0.285,0.28433 0.496,0.0204 0.774,-0.0908 0.617,-0.24718 z m -0.156,-1.87588 c 0.342,-0.89204 -0.02,-1.60466 -0.818,-1.60466 -0.316,0 -0.619,0.52943 -0.673,1.17652 -0.109,1.32345 1.022,1.64853 1.491,0.42814 z m -24.314,-2.3596 c -0.156,-0.15638 -0.562,-0.1731 -0.902,-0.0372 -0.375,0.15023 -0.264,0.26174 0.284,0.28432 0.496,0.0204 0.774,-0.0908 0.618,-0.24717 z m 24.362,-0.18628 c 0.16,-0.25884 0.09,-0.47061 -0.152,-0.47061 -0.244,0 -0.555,-0.42355 -0.69,-0.94122 -0.135,-0.51767 -0.08,-0.94122 0.126,-0.94122 0.204,0 0.482,-0.42355 0.617,-0.94122 0.178,-0.67811 0.02,-0.94122 -0.582,-0.94122 -0.685,0 -0.824,0.40933 -0.801,2.35305 0.03,2.23506 0.72,3.11534 1.482,1.88244 z m -0.429,-9.41219 c -0.06,-2.58835 0.08,-4.70609 0.306,-4.70609 0.228,0 0.256,-0.25617 0.06,-0.56926 -0.51,-0.82565 -0.525,-4.60744 -0.02,-4.60744 0.237,0 0.189,-0.29082 -0.106,-0.64627 -0.295,-0.35545 -0.405,-0.99077 -0.243,-1.41183 0.168,-0.43726 0.06,-0.76556 -0.255,-0.76556 -0.302,0 -0.427,0.19714 -0.278,0.43809 0.149,0.24095 0.07,0.56461 -0.184,0.71925 -0.275,0.17 -0.385,3.39236 -0.279,8.15053 0.201,8.99622 0.127,8.10467 0.675,8.10467 0.235,0 0.379,-2.11774 0.32,-4.70609 z m -0.355,-14.17656 c -0.405,-0.25717 -0.434,-0.40046 -0.08,-0.40512 0.583,-0.008 0.592,-0.82507 0.02,-1.73947 -0.191,-0.30566 -0.141,-0.68305 0.11,-0.83864 0.556,-0.34325 0.119,-1.66458 -0.55,-1.66458 -0.276,0 -0.23,0.29903 0.108,0.70591 0.43,0.51798 0.439,0.70592 0.04,0.70592 -0.353,0 -0.512,0.74362 -0.443,2.07017 0.08,1.55562 0.271,2.00723 0.767,1.81694 0.544,-0.20885 0.55,-0.32295 0.03,-0.65113 z m -24.692,-1.11824 c 0.149,-0.38825 0.07,-0.70592 -0.185,-0.70592 -0.251,0 -0.456,0.31767 -0.456,0.70592 0,0.38825 0.08,0.70591 0.185,0.70591 0.102,0 0.307,-0.31766 0.456,-0.70591 z m 24.947,-11.52993 c -0.101,-3.23516 -0.163,-3.57368 -0.543,-2.97626 -0.411,0.64625 -0.154,4.8587 0.296,4.8587 0.168,0 0.279,-0.8471 0.247,-1.88244 z m -42.058,-13.16232 c 0,-0.26694 0.318,-0.48535 0.706,-0.48535 0.388,0 0.706,-0.22605 0.706,-0.50232 0,-0.27628 0.39,-0.37846 0.867,-0.22706 0.509,0.16163 1.365,-0.11669 2.074,-0.6742 0.664,-0.52221 1.603,-0.94947 2.087,-0.94947 0.484,0 1.297,-0.28695 1.808,-0.63766 1.141,-0.78358 6.23,-2.74387 7.516,-2.89512 0.518,-0.0609 0.889,-0.34976 0.824,-0.64199 -0.07,-0.29222 0.176,-0.53132 0.534,-0.53132 0.359,0 1.259,-0.31636 2,-0.70302 0.742,-0.38665 1.825,-0.70431 2.407,-0.70591 0.679,-0.002 1.072,-0.29807 1.096,-0.82646 0.02,-0.492 0.133,-0.58673 0.274,-0.23531 0.331,0.81941 1.1,0.73712 1.1,-0.11765 0,-0.38825 0.338,-0.70592 0.75,-0.70592 0.413,0 0.848,-0.3706 0.966,-0.82356 0.143,-0.54183 0.75,-0.862 1.775,-0.9359 0.857,-0.0618 2.154,-0.42155 2.882,-0.79948 0.729,-0.37793 1.474,-0.59448 1.658,-0.48122 0.183,0.11326 0.443,-0.21524 0.578,-0.73 0.166,-0.63778 0.642,-0.93593 1.494,-0.93593 0.687,0 2.243,-0.30263 3.456,-0.67251 1.213,-0.36988 2.763,-0.79111 3.444,-0.93607 0.681,-0.14496 1.335,-0.63648 1.455,-1.09227 0.19,-0.72302 -0.08,-0.80776 -2.08,-0.66437 -1.831,0.13091 -2.194,0.28973 -1.786,0.78074 0.402,0.4852 0.03,0.73333 -1.746,1.16575 -1.242,0.30214 -2.628,0.57857 -3.081,0.61428 -0.453,0.0357 -0.824,0.23132 -0.824,0.43469 0,0.20337 -0.716,0.36976 -1.592,0.36976 -1.196,0 -1.653,0.23396 -1.838,0.94122 -0.149,0.56874 -0.642,0.94122 -1.246,0.94122 -1.129,0 -5.757,1.48956 -7.595,2.44473 -0.667,0.34659 -1.133,0.872 -1.034,1.16759 0.173,0.51846 -0.423,0.71117 -4.224,1.36536 -0.97,0.16707 -1.764,0.49198 -1.764,0.722 0,0.23003 -0.417,0.41824 -0.927,0.41824 -0.63,0 -0.839,0.22576 -0.655,0.70591 0.209,0.54425 -0.105,0.70592 -1.369,0.70592 -0.902,0 -1.885,0.29551 -2.185,0.65668 -0.3,0.36118 -1.278,0.79432 -2.175,0.96255 -0.897,0.16822 -1.63,0.48942 -1.63,0.71377 0,0.22436 -0.847,0.55104 -1.883,0.72596 -1.035,0.17492 -1.882,0.51119 -1.882,0.74728 0,0.23608 -0.54,0.42924 -1.2,0.42924 -1.559,0 -4.291,1.39689 -3.586,1.833 0.87,0.5373 3.845,0.58696 3.845,0.0642 z m 3.168,-1.95558 c 0.32,-0.32162 0.699,-0.46621 0.844,-0.32132 0.145,0.14489 -0.116,0.40804 -0.58,0.58477 -0.671,0.25539 -0.725,0.20134 -0.264,-0.26345 z"
           id="path1" /></g></g></g></svg>
