<?xml version="1.0" encoding="UTF-8" standalone="no"?>
<!-- Created with Inkscape (http://www.inkscape.org/) -->

<svg
   width="231.38646"
   height="235.24007"
   viewBox="0 0 61.221 62.240601"
   version="1.1"
   id="svg1"
   xml:space="preserve"
   xmlns="http://www.w3.org/2000/svg"
   xmlns:svg="http://www.w3.org/2000/svg"><defs
     id="defs1" /><g
     id="g2047"
     transform="matrix(0.26458333,0,0,0.26458333,-5299.2671,-10.12824)"><g
       id="g2063"
       transform="translate(231.86653,-234.60001)"><path
         style="fill:#000000"
         d="m 19949.762,477.22164 c -2.778,-0.20868 -7.961,-1.89864 -9.956,-3.24589 -1.353,-0.91381 -4.986,-5.36352 -6.697,-8.20331 -2.47,-4.09724 -4.678,-7.39093 -7.687,-11.46484 -1.929,-2.61088 -3.507,-4.92267 -3.507,-5.1373 0,-0.21464 -0.27,-0.67632 -0.6,-1.02597 -0.761,-0.80608 -4.201,-6.06384 -4.201,-6.42082 0,-0.14709 -0.401,-0.854 -0.891,-1.57093 -0.49,-0.71693 -1.84,-2.81101 -3.001,-4.65351 -1.16,-1.84251 -3.809,-5.63105 -5.886,-8.41899 -2.077,-2.78795 -3.892,-5.39372 -4.032,-5.79062 -0.14,-0.39689 -0.728,-1.37109 -1.307,-2.16488 -2.604,-3.574 -9.849,-14.20675 -9.849,-14.45445 0,-0.15129 -0.702,-1.15031 -1.56,-2.22004 -0.858,-1.06973 -2.316,-3.19275 -3.241,-4.71783 -3.226,-5.32218 -5.537,-8.84424 -7.714,-11.75609 -1.207,-1.61314 -3.35,-4.66489 -4.763,-6.78167 -1.413,-2.11677 -2.705,-3.95693 -2.871,-4.08922 -0.518,-0.41198 -5.777,-8.0664 -5.777,-8.40753 0,-0.34451 -3.163,-4.97311 -8.226,-12.0386 -2.948,-4.1138 -7.493,-10.76118 -8.174,-11.95396 -0.174,-0.30484 -1.147,-1.96143 -2.161,-3.68131 -1.014,-1.71988 -2.168,-3.77652 -2.563,-4.57031 -0.396,-0.79379 -0.842,-1.5515 -0.992,-1.6838 -0.491,-0.43538 -1.444,-8.00942 -1.124,-8.94594 0.171,-0.50397 0.826,-1.98713 1.453,-3.29592 0.628,-1.30879 1.149,-2.60772 1.157,-2.88651 0,-0.2788 0.927,-1.09509 2.041,-1.81398 1.114,-0.7189 3.351,-2.34256 4.972,-3.60814 1.621,-1.26558 3.889,-2.89309 5.041,-3.61668 1.918,-1.20461 4.939,-3.20206 9.121,-6.0309 0.889,-0.60083 2.156,-1.22111 2.816,-1.3784 0.66,-0.15729 1.965,-0.80036 2.9,-1.42903 1.739,-1.16923 5.879,-2.21537 7.024,-1.77499 1.765,0.6787 -0.886,4.17248 -4.883,6.43418 -1.056,0.5977 -3.403,1.91323 -5.216,2.92339 -1.812,1.01016 -4.136,2.59731 -5.163,3.527 -1.027,0.92969 -2.052,1.69034 -2.278,1.69034 -0.226,0 -1.36,0.75561 -2.519,1.67913 -1.16,0.92352 -2.349,1.68123 -2.643,1.6838 -0.985,0.009 -4.994,4.71827 -4.69,5.51109 0.157,0.41123 0.458,0.74769 0.669,0.74769 0.953,0 12.627,-7.25305 13.219,-8.21298 0.147,-0.23762 1.822,-1.33688 3.724,-2.44279 1.901,-1.10592 3.565,-2.14548 3.697,-2.31014 0.771,-0.96198 8.373,-5.31534 9.282,-5.31534 1.333,0 2.24,0.84419 2.24,2.08403 0,0.91566 -3.016,4.17008 -3.865,4.17008 -0.239,0 -1.898,1.06266 -3.686,2.36145 -1.788,1.2988 -4.764,3.18128 -6.612,4.18329 -1.848,1.00201 -4.333,2.61741 -5.521,3.58979 -1.189,0.97238 -3.241,2.37603 -4.561,3.11923 -4.898,2.75663 -7.442,4.64272 -7.442,5.516 0,1.42318 0.532,2.398 1.309,2.398 0.952,0 5.323,-2.67864 10.037,-6.15083 2.078,-1.5303 5.83,-3.94999 8.338,-5.37708 4.385,-2.49408 9.891,-6.1134 12.549,-8.24823 l 1.265,-1.01652 1.495,1.5676 c 1.67,1.75093 1.836,2.64877 0.768,4.17529 -0.888,1.27046 -9.86,6.81257 -19.917,12.30267 -1.453,0.79282 -3.397,2.13601 -4.321,2.98486 -0.925,0.84886 -3.031,2.34898 -4.682,3.33361 -1.65,0.98463 -3,1.95331 -3,2.15262 0,0.19932 0.502,0.83539 1.116,1.4135 l 1.117,1.0511 4.285,-2.97682 c 2.356,-1.63725 5.905,-3.82121 7.885,-4.85324 1.981,-1.03203 3.942,-2.18436 4.359,-2.56073 0.417,-0.37637 0.903,-0.68432 1.081,-0.68432 0.178,0 3.616,-2.20746 7.641,-4.90548 4.025,-2.69802 7.744,-4.91703 8.264,-4.93113 0.737,-0.0199 1.02,0.40154 1.276,1.89871 0.423,2.47802 0.188,2.72919 -6.61,7.08055 -3.01,1.92683 -7.25,4.64057 -9.422,6.03054 -2.171,1.38997 -4.994,3.12187 -6.272,3.84868 -2.132,1.21246 -7.825,5.12021 -9.366,6.42964 -0.53,0.45025 -0.426,0.77034 0.573,1.77165 l 1.22,1.22211 1.838,-1.21908 c 1.011,-0.67049 2.806,-1.71354 3.989,-2.31789 1.182,-0.60435 4.136,-2.58229 6.565,-4.39542 2.429,-1.81313 4.537,-3.2966 4.686,-3.2966 0.148,0 1.185,-0.6521 2.305,-1.44911 1.12,-0.79701 2.469,-1.75485 2.997,-2.12853 1.141,-0.80759 6.62,-4.93175 8.307,-6.25283 1.174,-0.91981 1.207,-0.91981 2.881,0 3.528,1.93753 3.065,3.3691 -2.265,7.00627 -1.694,1.15641 -4.395,3.02384 -6.002,4.14983 -3.325,2.3301 -3.238,2.27198 -11.323,7.59968 -3.301,2.17509 -7.041,4.53743 -8.312,5.24965 -1.27,0.71221 -2.429,1.60551 -2.574,1.98511 -0.443,1.15558 0.762,2.14944 2.179,1.79771 2.171,-0.53916 9.268,-5.2338 16.629,-11.00035 6.933,-5.43156 12.039,-8.7762 14.37,-9.41252 1.723,-0.47067 1.961,-0.41806 2.75,0.60916 0.474,0.61837 0.867,1.38738 0.873,1.70892 0.03,1.35281 -3.466,4.32197 -11.204,9.52999 -15.216,10.24113 -19.989,13.75249 -19.991,14.707 0,0.42203 0.387,1.11992 0.863,1.55086 0.8,0.72587 1.003,0.71358 2.76,-0.1671 1.598,-0.80061 10.508,-7.22689 11.259,-8.11974 0.132,-0.15701 2.077,-1.51022 4.321,-3.00715 5.756,-3.8384 11.049,-7.56272 12.64,-8.8925 0.746,-0.62402 1.979,-1.13458 2.739,-1.13458 1.193,0 1.424,0.22498 1.689,1.64414 0.17,0.90428 0.12,1.98137 -0.11,2.39354 -0.466,0.83379 -8.289,6.92386 -13.117,10.21096 -3.069,2.08955 -6.401,4.5054 -7.542,5.46763 -0.318,0.26912 -0.685,0.48931 -0.815,0.48931 -0.129,0 -2.118,1.40718 -4.42,3.12706 -2.303,1.71988 -4.366,3.12705 -4.587,3.12705 -0.677,0 -0.443,1.77098 0.318,2.40343 0.579,0.4815 0.927,0.4433 1.8,-0.19761 1.396,-1.02438 3.118,-2.30163 7.59,-5.62902 1.995,-1.48421 5.776,-4.16424 8.402,-5.95561 2.627,-1.79138 5.099,-3.65681 5.496,-4.1454 1.212,-1.49617 7.693,-5.23811 9.071,-5.23811 2.496,0 3.162,1.8511 1.451,4.03128 -1.352,1.72217 -9.848,7.91185 -17.964,13.08853 -3.908,2.49256 -12.243,8.84175 -12.243,9.32635 0,1.14237 1.687,0.68037 4.398,-1.20406 1.674,-1.16399 4.448,-3.0744 6.164,-4.24538 5.063,-3.45416 8.36,-5.80293 9.015,-6.4216 1.071,-1.01378 11.672,-7.87979 12.871,-8.33635 1.677,-0.63901 2.533,-0.11216 2.887,1.77741 0.264,1.41194 0.1,1.89521 -1.068,3.13585 -0.758,0.80667 -2.244,1.84625 -3.3,2.31018 -1.741,0.76493 -4.176,2.34365 -13.683,8.87402 -1.716,1.17896 -3.799,2.69728 -4.627,3.37405 -0.828,0.67677 -1.747,1.23049 -2.041,1.23049 -0.293,0 -0.534,0.18174 -0.534,0.40386 0,0.22213 -0.486,0.63251 -1.08,0.91197 -0.594,0.27945 -2,1.30672 -3.125,2.28281 l -2.044,1.77473 1.006,1.41573 1.006,1.41573 1.759,-1.07271 c 0.967,-0.58999 2.73,-1.9023 3.919,-2.91624 1.188,-1.01393 2.629,-2.10669 3.201,-2.42834 0.573,-0.32166 3.922,-2.77633 7.442,-5.45483 6.822,-5.19067 14.368,-10.28418 15.236,-10.28418 0.29,0 0.527,0.554 0.527,1.2311 0,0.69823 0.208,1.10241 0.48,0.93378 0.264,-0.16353 0.48,0.14843 0.48,0.69324 0,0.55977 0.313,0.99056 0.72,0.99056 0.396,0 0.72,0.30457 0.72,0.67683 0,0.76964 -3.724,4.02403 -6.241,5.45406 -3.439,1.95344 -5.461,3.21918 -8.807,5.51319 -3.573,2.44873 -6.513,4.40416 -11.882,7.90209 -4.028,2.62367 -4.504,3.18347 -3.813,4.47734 0.291,0.54611 0.643,0.99292 0.78,0.99292 0.24,0 3.914,-2.63919 11.719,-8.41923 0.924,-0.68441 3.959,-2.74054 6.743,-4.56919 2.784,-1.82865 6.72,-4.74181 8.745,-6.4737 2.026,-1.73189 3.873,-3.14888 4.106,-3.14888 0.884,0 2.011,1.82033 2.011,3.24861 0,1.09563 -0.387,1.78472 -1.467,2.60809 -0.807,0.61547 -2.481,2.05033 -3.721,3.18858 -1.239,1.13826 -3.982,3.26506 -6.094,4.72624 -4.205,2.90825 -10.286,7.27468 -15.28,10.97138 -2.84,2.10254 -4.016,3.64113 -2.783,3.64113 1.069,0 3.836,-1.54628 5.58,-3.11838 1.056,-0.95213 2.676,-2.14321 3.6,-2.64683 1.631,-0.88839 3.594,-2.254 14.884,-10.35115 7.718,-5.5359 8.346,-5.85411 9.897,-5.02192 0.694,0.37211 1.372,0.96495 1.507,1.31742 0.364,0.95024 -2.499,3.70676 -6.847,6.59255 -2.114,1.40345 -4.254,3.00556 -4.755,3.56025 -0.501,0.55469 -1.093,1.00852 -1.315,1.00852 -0.497,0 -6.923,4.51939 -8.569,6.02703 -2.061,1.88711 -9.228,6.48119 -10.111,6.48119 -1.098,0 -0.739,1.48672 0.683,2.82514 l 1.045,0.98339 5.581,-3.78045 c 3.07,-2.07924 7.279,-5.07384 9.353,-6.65466 2.074,-1.58081 4.891,-3.47723 6.259,-4.21425 1.368,-0.73702 3.961,-2.52155 5.761,-3.96562 4.359,-3.49575 5.179,-3.8558 6.354,-2.78989 0.901,0.81661 0.86,0.89371 -1.631,3.08311 -1.405,1.23506 -3.473,3.00326 -4.595,3.92935 -1.121,0.92609 -2.709,2.28996 -3.528,3.03081 -1.489,1.34755 -7.752,5.62873 -8.235,5.62873 -0.455,0 -5.653,3.9312 -8.693,6.57389 -1.936,1.68364 -3.22,2.46907 -3.721,2.27658 -1.004,-0.38619 -0.992,0.68333 0.02,1.80443 0.756,0.83616 0.822,0.83392 1.801,-0.0606 1.719,-1.57138 14.021,-10.59432 14.445,-10.59432 0.553,0 8.852,-5.92682 9.061,-6.47039 0.38,-0.99192 5.086,-3.2259 6.11,-2.90028 0.521,0.16567 0.927,0.0699 0.927,-0.21862 0,-0.28242 -0.36,-0.5135 -0.8,-0.5135 -0.44,0 -0.672,-0.12885 -0.515,-0.28632 0.547,-0.5481 3.236,0.35698 3.236,1.08924 0,1.05756 -6.25,7.11453 -8.559,8.29484 -4.225,2.6104 -8.819,4.35697 -11.645,8.29373 -0.258,0.48389 -1.166,1.22869 -2.016,1.65513 -0.85,0.42644 -2.086,1.29876 -2.746,1.9385 -1.711,1.65788 -4.859,4.03131 -5.348,4.03131 -0.709,0 -0.455,0.70511 0.46,1.27753 0.732,0.45823 1.218,0.24316 3.001,-1.32778 1.169,-1.03103 2.991,-2.46097 4.047,-3.17766 1.056,-0.71669 3.001,-2.18333 4.321,-3.25921 1.32,-1.07589 3.344,-2.56597 4.498,-3.31129 3.02,-2.42257 4.739,-3.34564 7.361,-5.2355 1.466,-1.12454 3.124,-2.36302 3.685,-2.75218 0.374,-0.25939 3.457,-3.61784 4.399,-3.05591 0.319,0.19003 0.774,0.48357 0.948,0.56654 2.207,0.77071 2.246,1.72692 0.177,4.28476 -2.889,2.91889 -2.826,2.90769 -4.378,4.13874 -0.948,0.64868 -2.276,2.10924 -2.87,2.58135 l 0.526,0.62036 c 0,0 4.042,-2.27882 4.946,-3.00645 1.785,-1.43677 3.695,-2.77586 5.868,-2.77586 2.206,0 2.603,0.84143 1.077,2.28516 -1.664,1.5739 -7.359,5.64813 -9.6,6.86814 -1.229,0.66847 -3.33,1.9674 -4.671,2.88652 -7.3,5.0048 -17.255,11.53336 -17.586,11.53336 -0.715,0 -0.383,1.29231 0.549,2.13738 0.889,0.80664 0.978,0.79777 2.04,-0.20428 1.348,-1.27124 6.658,-5.03386 8.453,-5.98916 0.715,-0.3805 1.84,-1.20154 2.5,-1.82453 0.66,-0.623 3.145,-2.39591 5.521,-3.93981 2.377,-1.54391 5.627,-3.8315 7.224,-5.08354 3.743,-2.93575 6.319,-4.19213 7.064,-3.44544 0.301,0.30208 1.13,0.54923 1.841,0.54923 2.001,0 2.018,1.16814 0.04,2.75342 -3.3,2.6448 -7.675,5.90611 -7.923,5.90611 -0.704,0 -8.661,5.85317 -11.402,8.38721 -1.736,1.60506 -4.545,3.63481 -6.242,4.51055 -1.696,0.87574 -3.73,2.11555 -4.519,2.75512 -1.358,1.10068 -1.39,1.20719 -0.607,1.99202 0.783,0.78482 0.901,0.75852 2.204,-0.49185 1.509,-1.44851 5.197,-4.02418 11.84,-8.26729 2.377,-1.51807 6.102,-3.9219 8.277,-5.34185 2.176,-1.41996 4.086,-2.58174 4.245,-2.58174 0.158,0 1.426,-0.97419 2.817,-2.16488 1.785,-1.52841 2.955,-2.16488 3.979,-2.16488 1.805,0 2.78,1.0354 2.124,2.2544 -0.774,1.43891 -4.912,4.92914 -8.239,6.94986 -1.716,1.04255 -4.023,2.59129 -5.125,3.44165 -1.103,0.85036 -3.785,2.84503 -5.961,4.43261 -2.176,1.58758 -4.514,3.35882 -5.197,3.93609 -2.629,2.22365 -5.714,4.39019 -6.697,4.70264 -1.17,0.37224 -1.347,1.13021 -0.352,1.51274 0.785,0.30189 4.116,-1.30163 6.528,-3.14319 0.925,-0.70548 2.942,-2.02972 4.483,-2.94277 1.542,-0.91304 3.844,-2.52603 5.117,-3.58442 1.273,-1.05839 3.423,-2.57381 4.778,-3.3676 1.356,-0.79379 4.48,-2.87383 6.942,-4.62232 2.463,-1.74848 4.724,-3.33171 5.026,-3.51829 0.856,-0.53045 3.421,1.55897 3.421,2.78706 0,1.30816 -2.151,3.39822 -6.001,5.83085 -1.584,1.00104 -4.288,2.76446 -6.008,3.91871 -1.72,1.15425 -3.368,2.09864 -3.662,2.09864 -0.294,0 -0.799,0.31844 -1.121,0.70763 -0.322,0.3892 -3.193,2.47258 -6.378,4.62973 -7.311,4.95043 -9.183,6.60769 -8.455,7.48598 0.83,1.00202 1.237,0.8342 4.909,-2.02354 5.888,-4.58278 11.329,-8.57656 13.73,-10.07817 3.15,-1.96977 5.778,-3.74359 9.686,-6.53747 3.215,-2.29899 5.711,-3.0328 6.418,-1.88685 0.98,1.5889 -4.18,6.84207 -11.111,11.31083 -3.023,1.94919 -16.056,11.32191 -18.594,13.37228 -1.112,0.89788 -1.311,1.34009 -1.02,2.26063 0.315,0.99474 0.434,1.04608 0.911,0.39259 0.302,-0.41349 1.52,-1.37404 2.708,-2.13454 1.187,-0.76051 2.912,-1.93872 3.831,-2.61826 0.92,-0.67953 3.726,-2.75213 6.234,-4.60577 2.509,-1.85365 5.954,-4.3053 7.657,-5.44812 1.703,-1.14282 3.897,-2.82094 4.877,-3.72915 4.41,-4.08846 6.65,-4.90605 8.333,-3.04185 0.822,0.90935 0.802,0.98962 -0.555,2.28515 -2.55,2.43449 -5.24,4.53539 -8.839,6.9048 -1.953,1.28555 -5.063,3.43759 -6.912,4.78232 -1.848,1.34472 -5.642,3.94775 -8.431,5.78451 -5.835,3.8435 -7.624,5.50044 -6.814,6.31204 0.397,0.39774 1.458,-0.0834 4.051,-1.83717 1.932,-1.30681 4.701,-2.98484 6.153,-3.72895 2.929,-1.50078 12.049,-7.48575 13.923,-9.13691 1.072,-0.94391 2.247,-1.77786 6.665,-4.72862 1.565,-1.04522 4.065,-1.08888 5.064,-0.0884 0.99,0.99164 0.96,1.12226 -0.696,3.06257 -1.591,1.86536 -1.553,2.43228 0.09,1.2819 1.472,-1.03348 3.41,-0.97258 4.792,0.15061 l 1.133,0.9213 -1.2,1.3127 c -1.481,1.62038 -8.518,6.92407 -9.869,7.43876 -0.854,0.32546 -3.856,2.46184 -10.746,7.64767 -0.907,0.68322 -2.023,1.4587 -2.478,1.7233 -0.456,0.2646 -1.583,1.17123 -2.505,2.01473 -0.923,0.84351 -2.886,2.21723 -4.363,3.05271 -1.478,0.83548 -2.687,1.68133 -2.687,1.87966 0,0.19833 0.422,0.74268 0.937,1.20966 0.903,0.81941 1.054,0.77044 4.314,-1.40141 1.858,-1.23777 4.264,-2.99147 5.346,-3.8971 1.081,-0.90564 4.379,-3.37089 7.328,-5.47833 2.948,-2.10744 7.165,-5.33454 9.371,-7.17134 2.205,-1.8368 4.707,-3.71587 5.559,-4.17571 1.472,-0.79461 1.613,-0.79432 2.832,0.006 0.705,0.4631 1.275,1.08772 1.267,1.38803 -0.04,1.28409 -4.504,5.19803 -7.907,6.92547 -1.056,0.53625 -2.352,1.45669 -2.88,2.04542 -0.529,0.58874 -2.365,2.06692 -4.081,3.28485 -1.717,1.21794 -4.325,3.20728 -5.796,4.42077 -1.471,1.21349 -3.523,2.72242 -4.561,3.35319 -3.517,2.13851 -6.07,4.44946 -5.391,4.88106 1.305,0.82921 2.324,0.26814 8.509,-4.68284 3.5,-2.80171 7.609,-5.99491 9.132,-7.09601 1.523,-1.1011 4.785,-3.58626 7.249,-5.52257 3.298,-2.59212 4.741,-3.45023 5.47,-3.25389 0.545,0.14667 1.484,0.26962 2.087,0.27324 0.602,0.004 1.234,0.38542 1.404,0.84846 0.17,0.46305 0.595,1.01503 0.945,1.22662 2.13,1.28784 -0.932,4.94349 -7.847,9.36699 -4.873,3.11713 -10.78,7.44692 -14.802,10.8495 -6.09,5.15204 -7.118,5.61205 -11.763,5.26314 z m 4.083,-2.05402 c 0.395,-0.6411 -0.983,-1.14623 -2.029,-0.74382 -0.708,0.27232 -0.726,0.38209 -0.12,0.76573 0.928,0.58801 1.778,0.57934 2.149,-0.0219 z m -6.134,-2.2116 c -0.159,-0.15986 -0.573,-0.17695 -0.92,-0.038 -0.383,0.15357 -0.269,0.26757 0.29,0.29065 0.506,0.0209 0.79,-0.0928 0.63,-0.25267 z m 8,-0.94926 c 0.144,-0.37643 0.1,-0.68443 -0.107,-0.68443 -0.477,0 -1.521,1.04581 -1.521,1.52438 0,0.59893 1.342,-0.0936 1.628,-0.83995 z m -5.119,0.46817 c -0.159,-0.15986 -0.574,-0.17695 -0.92,-0.038 -0.383,0.15358 -0.269,0.26757 0.29,0.29066 0.506,0.0209 0.79,-0.0928 0.63,-0.25268 z m -7.552,-0.67151 c 0,-0.2646 0.378,-0.49481 0.841,-0.51158 0.601,-0.0218 0.507,-0.16367 -0.329,-0.49846 -0.643,-0.25738 -1.453,-0.35869 -1.801,-0.22515 -0.997,0.38353 -0.742,1.71627 0.329,1.71627 0.528,0 0.96,-0.21649 0.96,-0.48108 z m -1.92,-1.44326 c 0,-0.2646 -0.337,-0.48108 -0.749,-0.48108 -0.411,0 -0.615,0.21648 -0.451,0.48108 0.163,0.2646 0.5,0.48109 0.748,0.48109 0.249,0 0.452,-0.21649 0.452,-0.48109 z m 21.616,-1.52412 c 1.16,-1.06175 1.464,-1.59143 1.001,-1.746 -0.365,-0.12203 -0.852,0.11392 -1.081,0.52435 -0.229,0.41043 -1.064,0.8886 -1.854,1.0626 -1.412,0.31064 -1.753,0.72624 -1.118,1.36245 0.616,0.61743 1.4,0.3084 3.052,-1.2034 z m -21.495,-0.95001 c -0.136,-0.52134 -0.517,-0.84431 -0.846,-0.71773 -0.329,0.12659 -0.847,-0.0189 -1.151,-0.32331 -0.416,-0.41724 -0.516,-0.31918 -0.405,0.39841 0.236,1.51816 0.774,2.08188 1.745,1.82739 0.623,-0.16322 0.828,-0.5316 0.657,-1.18476 z m -3.823,-0.41238 c -0.138,-0.52919 -0.334,-0.96217 -0.435,-0.96217 -0.101,0 -0.184,0.43298 -0.184,0.96217 0,0.52919 0.196,0.96217 0.435,0.96217 0.239,0 0.322,-0.43298 0.184,-0.96217 z m 20.896,0.0301 c 0.12,-0.36082 -0.06,-0.54122 -0.42,-0.42095 -0.347,0.11576 -0.725,0.49461 -0.84,0.8419 -0.12,0.36081 0.06,0.54122 0.42,0.42095 0.346,-0.11576 0.724,-0.49462 0.84,-0.8419 z m -10.953,-0.0301 c 0,-0.2646 -0.203,-0.48109 -0.451,-0.48109 -0.249,0 -0.586,0.21649 -0.749,0.48109 -0.163,0.2646 0.04,0.48108 0.452,0.48108 0.412,0 0.748,-0.21648 0.748,-0.48108 z m 12.723,-0.96217 c 0.164,-0.2646 -0.05,-0.48109 -0.48,-0.48109 -0.427,0 -0.643,0.21649 -0.48,0.48109 0.163,0.2646 0.379,0.48108 0.48,0.48108 0.101,0 0.317,-0.21648 0.48,-0.48108 z m -22.543,-2.66732 c -1.488,-1.3823 -1.782,-1.46879 -1.375,-0.40422 0.237,0.6179 0.09,0.70984 -0.735,0.44867 -0.676,-0.21505 -1.033,-0.12347 -1.033,0.2652 0,0.32653 0.132,0.46168 0.293,0.30034 0.161,-0.16135 1.079,0.12876 2.039,0.64468 2.135,1.14635 2.608,0.41401 0.811,-1.25467 z m 12.701,1.70515 c 0,-0.2646 -0.09,-0.48109 -0.212,-0.48109 -0.116,0 -0.345,0.21649 -0.508,0.48109 -0.163,0.2646 -0.07,0.48108 0.212,0.48108 0.279,0 0.508,-0.21648 0.508,-0.48108 z m 18.154,-1.41319 c 0.12,-0.36081 -0.06,-0.54122 -0.42,-0.42095 -0.346,0.11576 -0.724,0.49462 -0.84,0.8419 -0.12,0.36081 0.06,0.54122 0.42,0.42095 0.347,-0.11576 0.725,-0.49462 0.84,-0.8419 z m -13.286,-0.55142 c 0.987,-0.87253 1.009,-0.95862 0.173,-0.66433 -0.528,0.18597 -1.23,0.34841 -1.56,0.36099 -0.673,0.0256 -0.843,1.30578 -0.173,1.30578 0.234,0 0.937,-0.4511 1.56,-1.00244 z m 9.994,-1.13618 c 0.341,-0.41134 0.425,-0.74789 0.187,-0.74789 -0.68,0 -2.566,1.4471 -2.566,1.96854 0,0.59713 1.519,-0.18216 2.379,-1.22065 z m 5.504,0.40335 c 1.202,-0.46226 0.882,-1.04143 -0.436,-0.78898 -0.657,0.12587 -1.076,0.42058 -0.931,0.65492 0.311,0.50567 0.382,0.51261 1.367,0.13406 z m -31.889,-1.57622 c 0,-0.23374 -0.432,-0.5382 -0.96,-0.67659 -0.528,-0.13839 -0.96,-0.0713 -0.96,0.14916 0,0.22042 0.378,0.49978 0.84,0.62078 0.462,0.12101 0.894,0.24513 0.96,0.27582 0.07,0.0307 0.12,-0.13543 0.12,-0.36917 z m 35.893,-1.81196 c -0.114,-1.37377 -0.844,-1.51962 -0.844,-0.16849 0,0.52919 -0.216,0.96217 -0.48,0.96217 -0.264,0 -0.481,-0.22926 -0.481,-0.50948 0,-0.28021 -0.239,-0.36139 -0.531,-0.1804 -0.378,0.23418 -0.36,0.43493 0.06,0.69623 0.326,0.20194 0.443,0.6095 0.26,0.90568 -0.238,0.38652 0.01,0.38136 0.888,-0.0183 0.858,-0.39167 1.192,-0.89208 1.126,-1.68745 z m -30.676,-1.14873 c 1.488,-1.06833 4.326,-3.12529 6.306,-4.57102 1.981,-1.44574 4.897,-3.50576 6.482,-4.57782 4.772,-3.22953 12.228,-8.85011 12.236,-9.22429 0,-0.45734 -1.962,0.42213 -5.395,2.40793 -1.518,0.87824 -2.76,1.79736 -2.76,2.04249 0,0.24512 -0.703,0.80731 -1.561,1.2493 -0.858,0.44199 -2.965,1.86412 -4.681,3.16028 -1.716,1.29616 -5.389,3.85071 -8.162,5.67678 -6.296,4.14668 -6.893,4.63022 -6.501,5.26567 0.522,0.84646 1.2,0.60616 4.036,-1.42932 z m -10.814,0.82405 c 0.174,0.1741 0.316,-0.0315 0.316,-0.45686 0,-1.20286 -0.857,-1.4414 -1.416,-0.39422 -0.689,1.28891 -0.633,1.71317 0.14,1.07035 0.354,-0.2947 0.786,-0.39337 0.96,-0.21927 z m 27.643,-1.10629 c 0.11,-0.0994 0.07,-0.3111 -0.09,-0.47039 -0.159,-0.15929 -0.79,0.0773 -1.401,0.52563 l -1.111,0.81524 1.2,-0.34485 c 0.66,-0.18967 1.291,-0.4262 1.401,-0.52563 z m 18.509,-1.5274 c 0.164,-0.42246 -0.222,-0.34987 -1.191,0.224 -0.789,0.46694 -1.435,0.99843 -1.435,1.18109 0,0.53995 2.362,-0.72357 2.626,-1.40509 z m -38.874,0.38445 c 0.163,-0.26459 0.07,-0.48108 -0.212,-0.48108 -0.28,0 -0.508,0.21649 -0.508,0.48108 0,0.2646 0.1,0.48109 0.211,0.48109 0.117,0 0.345,-0.21649 0.509,-0.48109 z m 32.648,0 c 0.163,-0.26459 0.07,-0.48108 -0.212,-0.48108 -0.28,0 -0.509,0.21649 -0.509,0.48108 0,0.2646 0.1,0.48109 0.212,0.48109 0.117,0 0.345,-0.21649 0.509,-0.48109 z m -38.153,-2.62558 c -0.959,-1.15867 -1.495,-0.87145 -0.884,0.47375 0.363,0.79795 0.716,1.05295 1.026,0.74202 0.31,-0.31094 0.262,-0.72875 -0.142,-1.21577 z m -4.46,0.34822 c 0.108,-0.32483 -0.207,-0.43278 -0.805,-0.27606 -0.54,0.14156 -0.857,0.46069 -0.704,0.70917 0.343,0.55607 1.268,0.29057 1.509,-0.43311 z m 26.289,-1.09023 c 0.163,-0.2646 0.08,-0.48109 -0.184,-0.48109 -0.264,0 -0.613,0.21649 -0.777,0.48109 -0.163,0.26459 -0.08,0.48108 0.184,0.48108 0.264,0 0.613,-0.21649 0.777,-0.48108 z m 26.036,0.19043 c -0.16,-0.15986 -0.574,-0.17696 -0.92,-0.038 -0.383,0.15357 -0.27,0.26757 0.29,0.29065 0.506,0.0209 0.789,-0.0928 0.63,-0.25267 z m -54.123,-0.88367 c 0,-0.38128 -0.216,-0.82703 -0.48,-0.99056 -0.682,-0.42235 -0.596,-1.25995 0.12,-1.1668 1.47,0.19125 2.186,-0.10418 2.419,-0.99761 0.138,-0.52893 0.06,-1.08292 -0.184,-1.2311 -0.239,-0.14818 -0.435,0.0522 -0.435,0.44533 0,0.90097 -1.271,1.19427 -3.069,0.70787 -0.764,-0.20668 -1.574,-0.26103 -1.8,-0.12079 -0.699,0.43272 -0.457,1.03632 0.517,1.29164 0.706,0.18505 0.859,0.51595 0.637,1.37909 -0.265,1.02917 -0.214,1.07162 0.538,0.45283 0.457,-0.37553 0.793,-0.48378 0.747,-0.24054 -0.149,0.78298 0.02,1.16388 0.51,1.16388 0.264,0 0.48,-0.31196 0.48,-0.69324 z m 51.372,-0.72163 c 0,-0.89764 -1.069,-1.08802 -1.829,-0.32586 -0.716,0.71735 -0.675,0.77856 0.526,0.77856 0.717,0 1.303,-0.20372 1.303,-0.4527 z m -8.122,-1.95273 c 0.242,0 0.423,-0.37886 0.402,-0.8419 -0.02,-0.50294 -0.135,-0.59979 -0.28,-0.24054 -0.133,0.33074 -0.656,0.60135 -1.162,0.60135 -0.506,0 -0.92,0.23965 -0.92,0.53256 0,0.29291 0.342,0.40115 0.759,0.24054 0.418,-0.1606 0.958,-0.29201 1.201,-0.29201 z m -19.724,-1.01765 c 0.972,-0.80706 1.017,-0.93171 0.24,-0.65635 -0.529,0.18695 -1.339,0.44884 -1.801,0.58198 -0.462,0.13314 -0.84,0.43331 -0.84,0.66704 0,0.72985 1.149,0.44619 2.401,-0.59267 z m -26.407,-0.90669 c 0,-0.2646 -0.311,-0.48109 -0.692,-0.48109 -0.38,0 -0.825,0.21649 -0.988,0.48109 -0.163,0.2646 0.148,0.48108 0.692,0.48108 0.543,0 0.988,-0.21648 0.988,-0.48108 z m 2.953,-0.72163 c 0.04,-0.39689 0.09,-0.97432 0.12,-1.28317 0.03,-0.33632 -0.915,-0.64006 -2.353,-0.7573 -1.987,-0.16209 -2.293,-0.0862 -1.776,0.44127 0.343,0.35037 1.207,0.64925 1.92,0.66418 0.946,0.0198 1.259,0.24748 1.156,0.8419 -0.08,0.44811 0.08,0.81475 0.36,0.81475 0.275,0 0.533,-0.32473 0.573,-0.72163 z m -4.908,-1.74735 c -0.327,-0.62654 -0.739,-1.45101 -0.914,-1.83216 -0.176,-0.38114 -0.629,-0.79163 -1.006,-0.91218 -0.451,-0.14401 -0.357,0.16289 0.274,0.89484 0.78,0.90418 0.811,1.05948 0.166,0.82444 -0.683,-0.24867 -0.716,-0.14119 -0.238,0.76032 1.105,2.08135 1.369,2.34861 1.846,1.87018 0.301,-0.30098 0.255,-0.87011 -0.128,-1.60544 z m 9.637,-2.82296 c 0.283,-0.52919 0.342,-0.96217 0.132,-0.96217 -0.209,0 -0.651,0.43298 -0.981,0.96217 -0.332,0.53298 -0.391,0.96217 -0.132,0.96217 0.257,0 0.698,-0.43298 0.981,-0.96217 z m 26.646,0.48109 c 0.164,-0.2646 -0.03,-0.48109 -0.423,-0.48109 -0.396,0 -0.854,0.21649 -1.017,0.48109 -0.163,0.26459 0.03,0.48108 0.424,0.48108 0.396,0 0.853,-0.21649 1.016,-0.48108 z m -38.169,-1.44326 c 0,-0.2646 -0.432,-0.48109 -0.96,-0.48109 -0.528,0 -0.96,0.21649 -0.96,0.48109 0,0.2646 0.432,0.48109 0.96,0.48109 0.528,0 0.96,-0.21649 0.96,-0.48109 z m 13.443,-0.48109 c 0,-0.26459 -0.1,-0.48108 -0.211,-0.48108 -0.117,0 -0.345,0.21649 -0.509,0.48108 -0.163,0.2646 -0.07,0.48109 0.212,0.48109 0.28,0 0.508,-0.21649 0.508,-0.48109 z m -12.366,-1.69921 c -0.574,-1.02631 -1.315,-0.0977 -0.863,1.08107 0.212,0.55372 0.447,0.63003 0.812,0.26387 0.34,-0.34098 0.357,-0.79572 0.05,-1.34494 z m 1.564,0.25596 c -0.163,-0.2646 -0.513,-0.48109 -0.777,-0.48109 -0.264,0 -0.347,0.21649 -0.183,0.48109 0.163,0.2646 0.512,0.48108 0.776,0.48108 0.265,0 0.347,-0.21648 0.184,-0.48108 z m -2.674,-2.07301 c 0.02,-0.21406 -0.183,-0.2554 -0.447,-0.0919 -0.264,0.16353 -0.465,0.77165 -0.446,1.35138 0.03,1.01623 0.05,1.01953 0.446,0.0919 0.227,-0.52919 0.428,-1.13731 0.447,-1.35138 z m 17.557,0.62975 c 0.164,-0.26459 0.08,-0.48108 -0.183,-0.48108 -0.264,0 -0.614,0.21649 -0.777,0.48108 -0.163,0.2646 -0.08,0.48109 0.184,0.48109 0.264,0 0.613,-0.21649 0.776,-0.48109 z m 28.882,-0.74611 c 0.883,-0.67496 1.606,-1.54091 1.606,-1.92434 0,-0.91703 -0.914,-0.89776 -1.268,0.0267 -0.152,0.39814 -1.008,1.07137 -1.901,1.49606 -0.893,0.42469 -1.505,0.96489 -1.36,1.20045 0.438,0.70969 1.234,0.49216 2.923,-0.79892 z m -41.365,0.26503 c 0.164,-0.2646 0.07,-0.48109 -0.211,-0.48109 -0.28,0 -0.509,0.21649 -0.509,0.48109 0,0.26459 0.1,0.48108 0.212,0.48108 0.116,0 0.345,-0.21649 0.508,-0.48108 z m 2.243,-1.68152 c 0.129,0.12896 0.741,-0.3059 1.36,-0.96635 1.342,-1.43098 0.617,-1.61077 -0.962,-0.23864 -0.609,0.52919 -1.29,0.96217 -1.514,0.96217 -0.223,0 -0.406,0.24299 -0.406,0.53999 0,0.39719 0.17,0.39829 0.644,0.004 0.354,-0.2947 0.75,-0.4303 0.878,-0.30134 z m -8.724,-0.72391 c 0,-0.2646 -0.324,-0.48108 -0.72,-0.48108 -0.396,0 -0.72,0.21648 -0.72,0.48108 0,0.2646 0.324,0.48109 0.72,0.48109 0.396,0 0.72,-0.21649 0.72,-0.48109 z m 1.44,-0.24054 c 0,-0.3969 -0.209,-0.72163 -0.465,-0.72163 -0.256,0 -0.34,0.32473 -0.188,0.72163 0.152,0.39689 0.361,0.72163 0.465,0.72163 0.103,0 0.188,-0.32474 0.188,-0.72163 z m 11.523,0.24054 c 0,-0.2646 -0.216,-0.48108 -0.48,-0.48108 -0.264,0 -0.48,0.21648 -0.48,0.48108 0,0.2646 0.216,0.48109 0.48,0.48109 0.264,0 0.48,-0.21649 0.48,-0.48109 z m -12.483,-1.95273 c 0,-0.24898 -0.216,-0.4527 -0.48,-0.4527 -0.264,0 -0.48,0.33751 -0.48,0.75002 0,0.41252 0.216,0.61623 0.48,0.4527 0.264,-0.16353 0.48,-0.50104 0.48,-0.75002 z m -2.401,-0.17281 c 0,-0.37525 0.121,-0.9971 0.268,-1.38188 0.208,-0.54246 -0.03,-0.64147 -1.08,-0.44082 -0.741,0.14233 -1.078,0.34924 -0.748,0.4598 0.33,0.11056 0.6,0.61596 0.6,1.12311 0,0.50714 0.216,0.92208 0.48,0.92208 0.264,0 0.48,-0.30703 0.48,-0.68229 z m -2.88,-0.0109 c 0,-0.11668 -0.216,-0.34595 -0.48,-0.50948 -0.264,-0.16353 -0.48,-0.0681 -0.48,0.21215 0,0.28022 0.216,0.50948 0.48,0.50948 0.264,0 0.48,-0.0955 0.48,-0.21215 z m 21.591,-0.25014 c 0.388,-0.24616 0.545,-0.60882 0.349,-0.8059 -0.197,-0.19709 -0.723,0.008 -1.17,0.45493 -0.867,0.8695 -0.348,1.09168 0.821,0.35097 z m 11.057,-0.98097 c 0,-0.26459 -0.1,-0.48108 -0.212,-0.48108 -0.117,0 -0.345,0.21649 -0.509,0.48108 -0.163,0.2646 -0.07,0.48109 0.212,0.48109 0.28,0 0.509,-0.21649 0.509,-0.48109 z m -33.849,-0.48108 c 0.164,-0.2646 -0.04,-0.48109 -0.451,-0.48109 -0.412,0 -0.749,-0.3267 -0.749,-0.726 0,-0.89751 -2.615,-3.70979 -3.047,-3.27691 -0.573,0.57462 -0.329,1.09688 1.423,3.03936 1.799,1.99534 2.32,2.26209 2.824,1.44464 z m 25.207,-0.48109 c 0,-0.26459 -0.1,-0.48108 -0.212,-0.48108 -0.117,0 -0.345,0.21649 -0.509,0.48108 -0.163,0.2646 -0.07,0.48109 0.212,0.48109 0.28,0 0.509,-0.21649 0.509,-0.48109 z m -23.046,-1.44325 c 0,-0.2646 -0.54,-0.48109 -1.2,-0.48109 -0.66,0 -1.201,0.21649 -1.201,0.48109 0,0.26459 0.541,0.48108 1.201,0.48108 0.66,0 1.2,-0.21649 1.2,-0.48108 z m 9.122,-0.77841 c 0,-0.3969 -0.216,-0.58784 -0.48,-0.42431 -0.264,0.16353 -0.48,0.62206 -0.48,1.01896 0,0.3969 0.216,0.58783 0.48,0.4243 0.264,-0.16353 0.48,-0.62206 0.48,-1.01895 z m 26.887,0.48176 c 0,-0.10144 -0.432,-0.18444 -0.961,-0.18444 -0.528,0 -0.96,0.19622 -0.96,0.43605 0,0.23982 0.432,0.32282 0.96,0.18443 0.529,-0.13839 0.961,-0.33461 0.961,-0.43604 z m 2.64,-0.18444 c 0.163,-0.26459 0.08,-0.48108 -0.183,-0.48108 -0.264,0 -0.614,0.21649 -0.777,0.48108 -0.163,0.2646 -0.08,0.48109 0.183,0.48109 0.264,0 0.614,-0.21649 0.777,-0.48109 z m 10.083,-0.48108 c 0.377,-0.61251 -0.735,-0.61251 -1.681,0 -0.585,0.37913 -0.523,0.46773 0.332,0.47372 0.579,0.004 1.185,-0.20913 1.349,-0.47372 z m -49.116,-1.53948 c -0.448,-0.44901 -0.704,-0.44901 -1.152,0 -0.448,0.44902 -0.32,0.57731 0.576,0.57731 0.896,0 1.024,-0.12829 0.576,-0.57731 z m 30.031,-0.74568 c 0.294,-0.88455 -1.167,-0.73413 -1.507,0.15522 -0.202,0.5276 -0.05,0.7096 0.509,0.60136 0.439,-0.0854 0.888,-0.42583 0.998,-0.75658 z m -35.889,-0.43817 c 0,-0.17485 -0.619,-0.87843 -1.377,-1.56353 -0.757,-0.68509 -1.528,-1.73272 -1.713,-2.32807 -0.344,-1.11204 -0.975,-1.4043 -1.432,-0.66345 -0.142,0.23044 0.115,0.87574 0.571,1.434 0.457,0.55826 1.219,1.5604 1.693,2.22698 0.781,1.09638 2.258,1.68149 2.258,0.89407 z m 40.81,-3.0497 c 0,-0.26459 -0.1,-0.48108 -0.211,-0.48108 -0.117,0 -0.346,0.21649 -0.509,0.48108 -0.163,0.2646 -0.07,0.48109 0.212,0.48109 0.279,0 0.508,-0.21649 0.508,-0.48109 z m -23.285,-1.44325 c 0.375,-0.60886 -0.26,-0.60886 -1.201,0 -0.62,0.4019 -0.608,0.46737 0.09,0.47372 0.447,0.004 0.945,-0.20912 1.109,-0.47372 z m -17.715,-1.31296 c -0.488,-0.48903 -0.89,0.24722 -0.49,0.89644 0.303,0.49043 0.416,0.49081 0.578,0.002 0.112,-0.33425 0.07,-0.73852 -0.09,-0.89838 z m -2.487,-0.25052 c 0.456,-0.42761 0.515,-0.93665 0.202,-1.76214 -0.284,-0.74795 -0.264,-1.3383 0.06,-1.65979 0.769,-0.77095 0.593,-1.94726 -0.462,-3.08221 -0.528,-0.56802 -0.96,-1.2102 -0.96,-1.42705 0,-0.57624 -1.855,-2.07412 -2.07,-1.67159 -0.502,0.93852 -0.738,2.00834 -0.434,1.9629 0.189,-0.0282 0.764,-0.0256 1.279,0.006 0.728,0.0443 0.808,0.18526 0.36,0.63427 -0.699,0.70042 -0.767,1.52221 -0.09,1.10384 0.642,-0.39809 2.396,0.17935 2.396,0.78912 0,0.27948 -0.451,0.33762 -1.077,0.13873 -0.957,-0.30433 -1.003,-0.2545 -0.421,0.44867 0.497,0.60024 0.511,0.79102 0.06,0.79102 -0.477,0 -0.477,0.14591 0,0.72163 0.431,0.52047 0.443,0.72163 0.04,0.72163 -0.305,0 -0.75,0.48709 -0.989,1.08244 -0.239,0.59534 -0.448,0.81183 -0.464,0.48108 -0.04,-0.71897 -0.991,-0.81989 -0.991,-0.10477 0,0.44837 1.586,1.32074 2.541,1.39726 0.209,0.0168 0.669,-0.24009 1.023,-0.57081 z m 35.325,-0.84195 c 0,-0.2646 -0.216,-0.48108 -0.48,-0.48108 -0.264,0 -0.48,0.21648 -0.48,0.48108 0,0.2646 0.216,0.48109 0.48,0.48109 0.264,0 0.48,-0.21649 0.48,-0.48109 z m 14.894,-0.25217 c 0.926,-1.11806 0.361,-1.23745 -0.978,-0.20671 -0.889,0.68475 -0.994,0.9213 -0.411,0.92927 0.43,0.006 1.054,-0.31927 1.389,-0.72256 z m -41.014,-2.4191 c 0.599,-0.5431 2.298,-1.59984 3.774,-2.34829 1.477,-0.74846 2.841,-1.63351 3.033,-1.96679 0.192,-0.33327 1.514,-1.29183 2.939,-2.13013 3.082,-1.81442 6.567,-4.5964 8.854,-6.72027 0.04,-0.0351 -0.499,-0.64435 -0.522,-0.63028 -0.987,0.61125 -3.654,2.49954 -7.28,4.97876 -3.966,2.71211 -7.646,5.21011 -8.105,5.47471 -0.835,0.48207 -3.933,2.77864 -5.448,4.03969 -0.444,0.36966 -0.692,0.97435 -0.55,1.34376 0.269,0.70267 0.29,0.6895 3.305,-2.04116 z m -12.289,0.77532 c 0,-0.8065 -0.851,-1.0062 -1.135,-0.26617 -0.167,0.43666 0,0.71887 0.43,0.71887 0.388,0 0.705,-0.20372 0.705,-0.4527 z m 42.73,-1.28257 c 0,-0.10399 -0.324,-0.18908 -0.72,-0.18908 -0.396,0 -0.72,0.2097 -0.72,0.46599 0,0.25629 0.324,0.34138 0.72,0.18907 0.396,-0.1523 0.72,-0.36199 0.72,-0.46598 z m -41.77,0.0799 c 0,-0.11668 -0.216,-0.34595 -0.48,-0.50948 -0.264,-0.16353 -0.48,-0.0681 -0.48,0.21215 0,0.28022 0.216,0.50948 0.48,0.50948 0.264,0 0.48,-0.0955 0.48,-0.21215 z m 26.407,-0.26894 c 0,-0.26459 -0.216,-0.48108 -0.48,-0.48108 -0.265,0 -0.481,0.21649 -0.481,0.48108 0,0.2646 0.216,0.48109 0.481,0.48109 0.264,0 0.48,-0.21649 0.48,-0.48109 z m 16.507,-0.74661 c 0.164,-0.42813 0.08,-0.62124 -0.189,-0.45269 -0.261,0.16165 -0.475,0.49763 -0.475,0.74661 0,0.69201 0.345,0.53952 0.664,-0.29392 z m -10.026,-1.91427 c 0.792,-0.65066 1.182,-1.18409 0.865,-1.18541 -0.316,-10e-4 -1.158,0.53883 -1.87,1.20033 -1.667,1.54763 -0.883,1.53601 1.005,-0.0149 z m -36.5,-0.0424 c 1.011,-1.01294 0.619,-1.37653 -0.713,-0.66204 -0.945,0.50683 -1.016,0.46393 -0.729,-0.44173 0.25,-0.79 0.04,-1.10691 -0.965,-1.49178 -1.086,-0.41387 -1.234,-0.6846 -0.962,-1.76819 0.28,-1.12073 0.227,-1.20207 -0.43,-0.65549 -0.505,0.41998 -0.751,0.44745 -0.751,0.084 0,-0.297 -0.216,-0.53999 -0.48,-0.53999 -0.898,0 -0.483,0.8996 1.441,3.12705 1.056,1.22287 1.92,2.42672 1.92,2.67523 0,0.69506 0.807,0.53698 1.669,-0.32708 z m 49.223,-0.21166 c 0,-0.24898 -0.317,-0.45269 -0.705,-0.45269 -0.428,0 -0.597,0.2822 -0.43,0.71886 0.284,0.74004 1.135,0.54033 1.135,-0.26617 z m 1.441,-1.47165 c 0,-0.26459 -0.216,-0.34729 -0.48,-0.18376 -0.265,0.16353 -0.481,0.51382 -0.481,0.77842 0,0.26459 0.216,0.34729 0.481,0.18376 0.264,-0.16353 0.48,-0.51382 0.48,-0.77842 z m -24.116,-0.33442 c 0.117,-0.35155 -0.103,-0.45907 -0.57,-0.27928 -0.418,0.16079 -0.76,0.50371 -0.76,0.76205 0,0.63233 1.091,0.23637 1.33,-0.48277 z m 13.793,-0.57096 c 0.163,-0.2646 -0.04,-0.48109 -0.452,-0.48109 -0.411,0 -0.748,0.21649 -0.748,0.48109 0,0.26459 0.203,0.48108 0.452,0.48108 0.248,0 0.585,-0.21649 0.748,-0.48108 z m -31.928,-1.65541 c 0,-0.50777 -0.921,-0.7211 -1.195,-0.27678 -0.166,0.26891 0.03,0.48893 0.447,0.48893 0.412,0 0.748,-0.0955 0.748,-0.21215 z m 1.791,-0.0785 c -0.16,-0.15987 -0.574,-0.17696 -0.92,-0.038 -0.383,0.15358 -0.27,0.26758 0.29,0.29066 0.506,0.0209 0.789,-0.0928 0.63,-0.25267 z m 32.839,-0.52105 c 0.58,-0.71453 0.554,-0.77212 -0.221,-0.48109 -0.483,0.18184 -1.09,0.33062 -1.348,0.33062 -0.258,0 -0.336,0.21649 -0.173,0.48109 0.431,0.69881 0.993,0.59223 1.742,-0.33062 z m -41.351,-0.81319 c 0,-0.0999 -0.329,-0.45525 -0.731,-0.78968 -0.612,-0.5084 -0.682,-0.47864 -0.429,0.18164 0.258,0.67436 1.16,1.14701 1.16,0.60804 z m -5.076,-1.49183 c -1.181,-0.89536 -1.646,-0.90772 -1.646,-0.0438 0,0.37849 0.486,0.76596 1.081,0.86105 1.49,0.23861 1.651,0.006 0.565,-0.81726 z m 3.155,-0.67305 c 0,-1.09434 -1.221,-2.24679 -1.647,-1.5551 -0.161,0.26119 0.09,0.70072 0.557,0.97673 0.741,0.4371 0.757,0.56411 0.13,0.98438 -0.618,0.41392 -0.601,0.48356 0.12,0.48988 0.505,0.004 0.84,-0.35356 0.84,-0.89589 z m 15.844,-1.13146 c 0,-0.28158 -0.305,-0.23482 -0.72,0.11038 -0.396,0.32939 -0.72,0.67384 -0.72,0.76543 0,0.0916 0.324,0.0419 0.72,-0.11037 0.396,-0.15231 0.72,-0.49675 0.72,-0.76544 z m -21.291,0.0459 c -0.635,-0.37003 -1.037,-0.36589 -1.417,0.0146 -0.386,0.38719 -0.146,0.52697 0.887,0.5163 1.242,-0.0128 1.307,-0.0783 0.53,-0.53093 z m 44.337,-0.9646 c 0,-0.21645 -0.54,-0.14695 -1.201,0.15444 -0.66,0.3014 -1.2,0.72509 -1.2,0.94155 0,0.21645 0.54,0.14695 1.2,-0.15445 0.661,-0.30139 1.201,-0.72509 1.201,-0.94154 z m -46.571,0.0953 c 0,-0.24898 -0.216,-0.58649 -0.481,-0.75002 -0.264,-0.16353 -0.48,0.0402 -0.48,0.45269 0,0.41251 0.216,0.75002 0.48,0.75002 0.265,0 0.481,-0.20371 0.481,-0.45269 z m -0.701,-2.46583 c 0.517,-0.83778 -0.07,-1.0152 -0.73,-0.22016 -0.379,0.45722 -0.415,0.73326 -0.1,0.73326 0.281,0 0.653,-0.2309 0.827,-0.5131 z m 4.541,-0.47897 c 0,-0.54766 -1.289,-0.60341 -1.618,-0.07 -0.13,0.20967 0.182,0.4127 0.692,0.45119 0.509,0.0385 0.926,-0.13307 0.926,-0.38122 z m 37.69,0.0299 c 0.163,-0.2646 0.08,-0.48109 -0.184,-0.48109 -0.264,0 -0.613,0.21649 -0.777,0.48109 -0.163,0.26459 -0.08,0.48108 0.184,0.48108 0.264,0 0.613,-0.21649 0.777,-0.48108 z m -43.691,-0.96217 c 0.163,-0.2646 0.811,-0.48109 1.44,-0.48109 0.629,0 1.278,-0.21649 1.441,-0.48109 0.442,-0.71635 -2.258,-0.55925 -3.241,0.18861 -0.462,0.3515 -0.84,0.77759 -0.84,0.94687 0,0.48485 0.872,0.35894 1.2,-0.1733 z m -0.72,-1.51978 c 0,-0.6845 -2.063,-2.80999 -2.727,-2.80999 -0.855,0 -0.801,0.33859 0.302,1.89016 0.872,1.2276 2.425,1.81651 2.425,0.91983 z m 8.829,-1.16114 c 0.202,-0.5276 0.05,-0.7096 -0.509,-0.60136 -0.439,0.0854 -0.889,0.42583 -0.999,0.75658 -0.294,0.88455 1.167,0.73413 1.508,-0.15522 z m -5.468,-1.861 c 0,-0.11669 -0.216,-0.34595 -0.48,-0.50948 -0.265,-0.16353 -0.481,-0.0681 -0.481,0.21215 0,0.28021 0.216,0.50948 0.481,0.50948 0.264,0 0.48,-0.0955 0.48,-0.21215 z m -2.641,-0.75002 c 0.163,-0.2646 0.04,-0.48109 -0.279,-0.48109 -0.316,0 -0.852,-0.37851 -1.189,-0.84114 -0.769,-1.0532 -1.223,-0.65983 -0.857,0.74188 0.283,1.08739 1.782,1.46132 2.325,0.58035 z m 13.608,-1.5868 c 1.494,-1.13733 3.418,-2.48294 4.276,-2.99023 1.483,-0.87628 2.034,-1.67708 1.156,-1.67708 -0.697,0 -6.091,3.80051 -7.528,5.30301 -1.95,2.03973 -1.064,1.77106 2.096,-0.6357 z m 25.521,1.04893 c 0,-0.2646 -0.216,-0.34729 -0.48,-0.18376 -0.264,0.16353 -0.48,0.51381 -0.48,0.77841 0,0.2646 0.216,0.34729 0.48,0.18376 0.264,-0.16353 0.48,-0.51382 0.48,-0.77841 z m 1.441,-0.90539 c 0,-0.2646 -0.09,-0.48108 -0.212,-0.48108 -0.116,0 -0.345,0.21648 -0.508,0.48108 -0.164,0.2646 -0.07,0.48109 0.211,0.48109 0.28,0 0.509,-0.21649 0.509,-0.48109 z m -40.538,-1.3307 c -0.435,-0.43604 -1.774,0.36115 -1.46,0.86958 0.215,0.34876 0.529,0.32835 1.002,-0.0652 0.379,-0.31515 0.585,-0.67714 0.458,-0.80442 z m -6.145,-0.11255 c -0.33,-0.5292 -0.797,-0.96218 -1.039,-0.96218 -0.241,0 -0.05,0.43298 0.43,0.96218 0.478,0.52919 0.946,0.96217 1.039,0.96217 0.09,0 -0.1,-0.43298 -0.43,-0.96217 z m 9.234,-0.69324 c 0,-0.11668 -0.216,-0.34595 -0.48,-0.50948 -0.264,-0.16353 -0.48,-0.0681 -0.48,0.21215 0,0.28022 0.216,0.50948 0.48,0.50948 0.264,0 0.48,-0.0955 0.48,-0.21215 z m -7.682,-0.75002 c 0,-0.2646 -0.324,-0.48109 -0.72,-0.48109 -0.396,0 -0.72,0.21649 -0.72,0.48109 0,0.2646 0.324,0.48108 0.72,0.48108 0.396,0 0.72,-0.21648 0.72,-0.48108 z m -1.753,-1.18731 c 0.149,-0.38842 0.06,-0.83417 -0.188,-0.99056 -0.253,-0.15639 -0.46,0.16141 -0.46,0.70622 0,1.16161 0.267,1.2788 0.648,0.28434 z m 5.114,-0.25595 c 0,-0.26459 -0.324,-0.48108 -0.72,-0.48108 -0.397,0 -0.697,-0.16237 -0.669,-0.36082 0.111,-0.76908 -0.668,-2.52569 -1.119,-2.52569 -0.262,0 -0.361,0.29835 -0.222,0.663 0.14,0.36466 0.03,0.88386 -0.236,1.1538 -0.333,0.33366 -0.05,0.72114 0.878,1.2103 1.691,0.88994 2.088,0.95457 2.088,0.34049 z m 10.324,-1.92692 c 0.379,-0.61512 -0.06,-0.60812 -1.234,0.0195 -0.51,0.27391 -0.928,0.7145 -0.928,0.9791 0,0.55251 1.685,-0.226 2.162,-0.99861 z m 12.307,0.10469 c -0.347,-0.11569 -0.858,0.0184 -1.137,0.29794 -0.357,0.357 -0.169,0.41961 0.63,0.21035 0.649,-0.17012 0.866,-0.38819 0.507,-0.50829 z m -27.252,-0.006 c 0.131,-0.21163 -0.171,-0.64018 -0.669,-0.95232 -0.648,-0.40554 -1,-0.41767 -1.231,-0.0425 -0.178,0.28876 -0.03,0.71399 0.338,0.94495 0.83,0.52701 1.26,0.54071 1.562,0.0499 z m -4.021,-2.26117 c 0,-2.19132 -0.694,-2.18946 -0.806,0.002 -0.05,0.9249 0.114,1.68164 0.36,1.68164 0.245,0 0.446,-0.75771 0.446,-1.6838 z m -1.448,-1.08244 c 0,-1.04878 -0.801,-2.35731 -1.19,-1.96718 -0.407,0.40808 0.25,2.80908 0.769,2.80908 0.236,0 0.425,-0.37886 0.421,-0.8419 z m 2.408,-1.80407 c -0.511,-0.61693 -0.365,-0.72163 1.004,-0.72163 1.541,0 1.569,-0.032 0.722,-0.8419 -0.614,-0.58639 -0.946,-0.6676 -1.095,-0.26757 -0.117,0.31588 -0.523,0.45509 -0.902,0.30934 -0.49,-0.18848 -0.689,0.0971 -0.689,0.9892 0,0.83618 0.259,1.25419 0.779,1.25419 0.638,0 0.67,-0.13062 0.181,-0.72163 z m 25.926,-0.48109 c 0.329,-0.39689 0.777,-0.72163 0.995,-0.72163 0.626,0 5.289,-3.59297 4.852,-3.73928 -0.386,-0.12963 -7.767,4.60915 -7.767,4.98697 0,0.49844 1.386,0.11865 1.92,-0.52606 z m -7.902,-1.7158 c 0.517,-0.83779 -0.07,-1.01521 -0.73,-0.22016 -0.379,0.45721 -0.415,0.73325 -0.1,0.73325 0.281,0 0.653,-0.23089 0.827,-0.51309 z m 14.633,-1.18172 c 0.507,-0.61259 0.478,-0.68299 -0.181,-0.42962 -0.434,0.16667 -0.788,0.49636 -0.788,0.73264 0,0.61866 0.277,0.53178 0.969,-0.30302 z m -33.041,-1.76901 c -0.448,-0.44901 -0.576,-0.32072 -0.576,0.57731 0,0.89802 0.128,1.02631 0.576,0.5773 0.448,-0.44901 0.448,-0.70559 0,-1.15461 z m -6.256,-0.69588 c 0.304,-0.38646 0.07,-0.53046 -0.784,-0.48108 -1.32,0.0764 -1.565,0.73349 -0.624,1.67609 0.472,0.47307 0.633,0.46813 0.785,-0.024 0.104,-0.34067 0.385,-0.8676 0.623,-1.17096 z m 5.038,0.35346 c -0.185,-1.69591 -1.832,-4.39387 -2.132,-3.49265 -0.113,0.34065 0.185,1.05193 0.663,1.58061 0.693,0.76826 0.757,1.13861 0.317,1.84464 -0.59,0.94776 -0.353,1.46821 0.669,1.46821 0.418,0 0.584,-0.48148 0.483,-1.40081 z m 26.328,-1.4857 c 0.163,-0.2646 -0.05,-0.48108 -0.48,-0.48108 -0.428,0 -0.644,0.21648 -0.48,0.48108 0.163,0.2646 0.379,0.48109 0.48,0.48109 0.101,0 0.317,-0.21649 0.48,-0.48109 z m -31.928,-0.69323 c 0,-0.11669 -0.216,-0.34595 -0.48,-0.50948 -0.264,-0.16353 -0.48,-0.0681 -0.48,0.21215 0,0.28021 0.216,0.50948 0.48,0.50948 0.264,0 0.48,-0.0955 0.48,-0.21215 z m -1.6,-1.93158 c 0,-0.38525 -0.184,-0.58678 -0.408,-0.44784 -0.224,0.13894 -0.284,0.45415 -0.132,0.70047 0.388,0.62944 0.54,0.55856 0.54,-0.25263 z m -1.761,-0.74279 c 0,-0.26459 -0.216,-0.48108 -0.48,-0.48108 -0.264,0 -0.48,0.21649 -0.48,0.48108 0,0.2646 0.216,0.48109 0.48,0.48109 0.264,0 0.48,-0.21649 0.48,-0.48109 z m 10.503,-0.24054 c 0.145,-0.58242 -0.603,-0.41382 -0.8,0.18041 -0.121,0.36382 0,0.52619 0.26,0.36081 0.264,-0.16537 0.507,-0.40892 0.54,-0.54122 z m 39.819,-0.21047 c 0.12,-0.36082 -0.06,-0.54122 -0.42,-0.42095 -0.346,0.11576 -0.724,0.49461 -0.84,0.8419 -0.12,0.36081 0.06,0.54122 0.42,0.42095 0.347,-0.11577 0.725,-0.49462 0.84,-0.8419 z m 1.531,-0.27061 c 0,-0.36567 -0.162,-0.7652 -0.36,-0.88784 -0.198,-0.12265 -0.36,0.27688 -0.36,0.88784 0,0.61095 0.162,1.01048 0.36,0.88783 0.198,-0.12264 0.36,-0.52217 0.36,-0.88783 z m -53.293,-1.39179 c 0,-0.36859 -0.324,-0.79477 -0.72,-0.94707 -0.396,-0.1523 -0.72,-0.60844 -0.72,-1.01364 0,-0.4052 -0.324,-0.73673 -0.72,-0.73673 -0.899,0 -0.897,0.18632 0.01,1.94823 0.752,1.45788 2.148,1.94469 2.148,0.74921 z m 14.87,0.20786 c 0.388,-0.24615 0.581,-0.57267 0.429,-0.72558 -0.379,-0.37898 -1.856,0.22471 -1.856,0.75826 0,0.54834 0.529,0.53623 1.427,-0.0327 z m 12.977,-0.48477 c 0,-0.2563 -0.324,-0.34138 -0.72,-0.18908 -0.397,0.15231 -0.721,0.362 -0.721,0.46599 0,0.10399 0.324,0.18907 0.721,0.18907 0.396,0 0.72,-0.20969 0.72,-0.46598 z m -22.813,-0.48478 c 0.16,-0.25832 -0.03,-1.07015 -0.432,-1.80407 -0.398,-0.73392 -0.731,-1.05616 -0.742,-0.71611 -0.02,0.47765 -0.247,0.49593 -1.022,0.0804 -0.861,-0.46186 -0.978,-0.41322 -0.822,0.34389 0.1,0.485 0.551,0.85175 1.003,0.815 0.509,-0.0414 0.822,0.2789 0.822,0.8419 0,0.96423 0.708,1.22492 1.193,0.43904 z m 41.297,-0.0114 c 0.163,-0.26459 -0.04,-0.48108 -0.452,-0.48108 -0.411,0 -0.748,0.21649 -0.748,0.48108 0,0.2646 0.203,0.48109 0.452,0.48109 0.248,0 0.585,-0.21649 0.748,-0.48109 z m -4.321,-0.96217 c 0.163,-0.2646 0.08,-0.48108 -0.183,-0.48108 -0.264,0 -0.614,0.21648 -0.777,0.48108 -0.163,0.2646 -0.08,0.48109 0.183,0.48109 0.264,0 0.614,-0.21649 0.777,-0.48109 z m 7.922,-2.01481 c 0,-0.69404 -0.935,-0.41571 -1.92,0.57156 -1.472,1.47478 -1.141,2.08656 0.48,0.8861 0.792,-0.58688 1.44,-1.24282 1.44,-1.45766 z m -27.059,-1.6862 c -0.324,-0.32486 -3.351,1.54297 -3.57,2.20357 -0.114,0.34148 0.686,0.0287 1.778,-0.69505 1.091,-0.72375 1.898,-1.40258 1.792,-1.50852 z m -26.342,0.66374 c -0.379,-0.31398 -0.976,-1.49094 -1.327,-2.61548 -0.448,-1.43278 -0.903,-2.04461 -1.522,-2.04461 -0.486,0 -0.884,0.0835 -0.884,0.18555 0,1.07361 4.003,6.30517 4.251,5.55694 0.09,-0.28134 -0.139,-0.76842 -0.518,-1.0824 z m 11.151,-0.47444 c 0,-0.21657 -0.201,-0.2692 -0.447,-0.11697 -0.246,0.15223 -0.607,0.017 -0.803,-0.30049 -0.248,-0.4016 -0.459,-0.29419 -0.693,0.35296 -0.186,0.51164 -0.247,1.08818 -0.135,1.2812 0.242,0.42067 2.078,-0.65412 2.078,-1.2167 z m -4.321,0.61329 c 0,-0.46528 -1.955,-1.43135 -2.897,-1.43135 -0.239,0 -0.305,0.33718 -0.147,0.74928 0.158,0.4121 0.583,0.63538 0.945,0.49618 0.362,-0.1392 0.658,-0.0434 0.658,0.2129 0,0.25629 0.325,0.46599 0.721,0.46599 0.396,0 0.72,-0.22185 0.72,-0.493 z m -4.081,-0.46918 c 0.163,-0.26459 -0.161,-0.48108 -0.72,-0.48108 -0.56,0 -0.884,0.21649 -0.72,0.48108 0.163,0.2646 0.487,0.48109 0.72,0.48109 0.233,0 0.557,-0.21649 0.72,-0.48109 z m 10.41,-2.02857 c -0.344,-0.34521 -0.568,-0.37361 -0.568,-0.0722 0,0.64214 0.568,1.21107 0.888,0.89 0.137,-0.13671 0,-0.50474 -0.32,-0.81784 z m 14.796,-1.83703 c 0,-0.68345 -0.23,-0.57868 -1.246,0.56801 -0.91,1.02664 -0.909,1.02913 0.166,0.46416 0.594,-0.31241 1.08,-0.77689 1.08,-1.03217 z m 14.816,0.0826 c -0.359,-0.11549 -0.806,-0.44633 -0.993,-0.73519 -0.245,-0.37866 -0.488,-0.37675 -0.871,0.007 -0.388,0.38867 -0.315,0.74858 0.271,1.33557 0.651,0.6522 0.938,0.69046 1.524,0.20314 0.589,-0.48949 0.601,-0.63916 0.07,-0.81037 z m -28.739,0.41537 c 0,-0.2646 -0.216,-0.48109 -0.481,-0.48109 -0.264,0 -0.48,0.21649 -0.48,0.48109 0,0.26459 0.216,0.48108 0.48,0.48108 0.265,0 0.481,-0.21649 0.481,-0.48108 z m -11.033,-1.19109 c -0.764,-0.92178 -1.45,-0.94399 -1.45,-0.0469 0,0.37749 0.378,0.77062 0.84,0.87362 1.157,0.25799 1.322,0.0341 0.61,-0.82672 z m 29.009,-1.47018 c 0.512,-0.38848 0.716,-0.70633 0.451,-0.70633 -0.264,0 -0.899,0.31785 -1.412,0.70633 -0.512,0.38848 -0.716,0.70633 -0.451,0.70633 0.264,0 0.899,-0.31785 1.412,-0.70633 z m -31.66,-0.22524 c 0.163,-0.2646 0.07,-0.48109 -0.211,-0.48109 -0.28,0 -0.509,0.21649 -0.509,0.48109 0,0.26459 0.09,0.48108 0.212,0.48108 0.116,0 0.345,-0.21649 0.508,-0.48108 z m 4.561,-0.48109 c 0,-0.2646 -0.203,-0.48108 -0.451,-0.48108 -0.249,0 -0.586,0.21648 -0.749,0.48108 -0.163,0.2646 0.04,0.48109 0.452,0.48109 0.412,0 0.748,-0.21649 0.748,-0.48109 z m 17.525,0 c 0.163,-0.2646 0.07,-0.48108 -0.212,-0.48108 -0.28,0 -0.509,0.21648 -0.509,0.48108 0,0.2646 0.1,0.48109 0.212,0.48109 0.117,0 0.345,-0.21649 0.509,-0.48109 z m 26.166,-0.75002 c 0,-0.70844 -0.572,-0.92187 -1.087,-0.40566 -0.433,0.43367 0.163,1.67114 0.657,1.36507 0.236,-0.1464 0.43,-0.57813 0.43,-0.95941 z m -54.347,-1.97861 c -0.08,-1.25615 -0.411,-2.33488 -0.746,-2.44552 -0.33,-0.10888 -0.601,0.15758 -0.601,0.59214 0,0.43456 -0.216,0.65632 -0.48,0.49279 -0.264,-0.16353 -0.48,-0.83855 -0.48,-1.50004 0,-0.6615 -0.191,-1.08403 -0.426,-0.93896 -0.234,0.14507 -0.396,-0.005 -0.36,-0.33242 0.07,-0.64316 -0.247,-0.83672 -1.374,-0.83672 -1.074,0 -0.879,0.74598 0.653,2.50895 0.756,0.86915 1.734,2.28386 2.173,3.1438 1.144,2.23874 1.813,1.95991 1.641,-0.68402 z m 5.54,0.42247 c -0.294,-1.12723 -0.875,-1.37436 -1.365,-0.58035 -0.163,0.2646 -0.06,0.48108 0.24,0.48108 0.295,0 0.415,0.198 0.265,0.44 -0.149,0.242 0,0.53709 0.332,0.65577 0.814,0.29126 0.848,0.22802 0.528,-0.9965 z m 24.862,0.50209 c 0.598,-0.76303 0.581,-0.78004 -0.181,-0.18164 -0.8,0.62848 -1.054,1.02354 -0.659,1.02354 0.1,0 0.478,-0.37885 0.84,-0.8419 z m -27.618,-0.95215 c -0.488,-0.48903 -0.89,0.24723 -0.49,0.89645 0.303,0.49043 0.416,0.4908 0.578,0.002 0.112,-0.33425 0.07,-0.73853 -0.09,-0.89839 z m 8.352,-0.13029 c 0,-0.2646 -0.09,-0.48109 -0.211,-0.48109 -0.117,0 -0.345,0.21649 -0.509,0.48109 -0.163,0.2646 -0.07,0.48108 0.212,0.48108 0.28,0 0.508,-0.21648 0.508,-0.48108 z m 5.001,-0.41519 c 0.141,-0.22836 1.72,-1.41333 3.509,-2.63328 4.066,-2.77193 7.128,-5.49739 6.68,-5.9457 -0.187,-0.18779 -1.222,0.56839 -2.299,1.6804 -1.077,1.11201 -2.206,2.02183 -2.509,2.02183 -0.302,0 -1.411,0.76886 -2.465,1.70858 -1.053,0.93972 -2.401,1.90856 -2.995,2.15298 -0.594,0.24442 -1.081,0.66624 -1.081,0.93739 0,0.59926 0.805,0.65325 1.16,0.0778 z m -3.32,-0.54698 c 0.163,-0.2646 0.08,-0.48109 -0.183,-0.48109 -0.265,0 -0.614,0.21649 -0.777,0.48109 -0.164,0.2646 -0.08,0.48108 0.183,0.48108 0.264,0 0.614,-0.21648 0.777,-0.48108 z m 22.085,-1.44326 c 0.759,-0.79379 1.175,-1.44325 0.925,-1.44325 -0.464,0 -3.085,2.26437 -3.085,2.66543 0,0.59661 0.918,0.0773 2.16,-1.22218 z m -32.168,0.48109 c 0.164,-0.2646 0.07,-0.48109 -0.211,-0.48109 -0.28,0 -0.509,0.21649 -0.509,0.48109 0,0.26459 0.1,0.48108 0.212,0.48108 0.116,0 0.345,-0.21649 0.508,-0.48108 z m 1.681,0.26893 c 0,-0.11668 -0.216,-0.34594 -0.48,-0.50947 -0.264,-0.16353 -0.48,-0.0681 -0.48,0.21215 0,0.28021 0.216,0.50947 0.48,0.50947 0.264,0 0.48,-0.0955 0.48,-0.21215 z m 45.611,-2.67436 c 0,-0.2646 -0.229,-0.48108 -0.509,-0.48108 -0.279,0 -0.375,0.21648 -0.211,0.48108 0.163,0.2646 0.392,0.48109 0.508,0.48109 0.117,0 0.212,-0.21649 0.212,-0.48109 z m -43.691,-1.20271 c 0.934,-0.99556 0.989,-1.20271 0.324,-1.20271 -0.73,0 -2.724,1.58473 -2.724,2.16488 0,0.66341 1.404,0.10061 2.4,-0.96217 z m 32.408,0.72163 c 0.378,-0.61252 -0.734,-0.61252 -1.68,0 -0.586,0.37913 -0.524,0.46773 0.331,0.47371 0.579,0.004 1.186,-0.20912 1.349,-0.47371 z m -37.702,-1.69998 c -0.322,-0.388 -0.774,-0.70545 -1.006,-0.70545 -0.722,0 -0.462,1.06671 0.419,1.71741 1.003,0.74142 1.43,0.006 0.587,-1.01196 z m -6.228,0.49726 c 0,-0.39689 -0.216,-0.72162 -0.481,-0.72162 -0.264,0 -0.48,0.32473 -0.48,0.72162 0,0.3969 0.216,0.72163 0.48,0.72163 0.265,0 0.481,-0.32473 0.481,-0.72163 z m 1.92,-0.24054 c 0,-0.2646 -0.203,-0.48108 -0.452,-0.48108 -0.248,0 -0.585,0.21648 -0.748,0.48108 -0.163,0.2646 0.04,0.48109 0.452,0.48109 0.411,0 0.748,-0.21649 0.748,-0.48109 z m 12.963,-1.44326 c 0,-0.26459 -0.216,-0.48108 -0.48,-0.48108 -0.264,0 -0.48,0.21649 -0.48,0.48108 0,0.2646 0.216,0.48109 0.48,0.48109 0.264,0 0.48,-0.21649 0.48,-0.48109 z m 33.483,-1.09158 c 0.327,-0.25338 0.476,-0.65324 0.331,-0.88857 -0.387,-0.627 -2.126,0.43968 -2.126,1.30385 0,0.71867 0.472,0.6095 1.795,-0.41528 z m -30.242,-0.3464 c 1.874,-1.14499 1.95,-1.44853 0.36,-1.44853 -0.66,0 -1.2,0.24675 -1.2,0.54832 0,0.30158 -0.378,0.83592 -0.84,1.18742 -1.303,0.99078 -0.07,0.77932 1.68,-0.28721 z m -20.723,-1.32582 c -0.524,-0.52554 -0.884,0.31023 -0.507,1.17953 0.357,0.82427 0.383,0.82352 0.582,-0.0169 0.114,-0.48375 0.08,-1.00693 -0.08,-1.16262 z m 36.94,0.45129 c -0.148,-0.14812 -0.536,-3.1e-4 -0.861,0.32848 -0.471,0.47512 -0.416,0.53038 0.268,0.26931 0.474,-0.18067 0.74,-0.44967 0.593,-0.59779 z m -31.941,-1.77671 c 0,-0.3969 -0.203,-0.72163 -0.452,-0.72163 -0.605,0 -1.039,0.75126 -0.655,1.13561 0.541,0.54179 1.107,0.32997 1.107,-0.41398 z m 31.688,-0.77342 1.68,-1.46917 -1.597,0.88075 c -1.667,0.91925 -2.904,2.09282 -2.183,2.07053 0.231,-0.007 1.176,-0.67407 2.1,-1.48211 z m -33.776,-1.23788 c -0.06,-0.97391 -0.397,-1.86552 -0.743,-1.98134 -0.481,-0.16044 -0.548,0.17539 -0.284,1.40994 0.619,2.88791 1.195,3.20875 1.027,0.5714 z m 1.368,0.3275 c -0.163,-0.2646 -0.513,-0.48108 -0.777,-0.48108 -0.264,0 -0.346,0.21648 -0.183,0.48108 0.163,0.2646 0.513,0.48109 0.777,0.48109 0.264,0 0.346,-0.21649 0.183,-0.48109 z m 5.847,-0.94606 c 0.322,-0.65263 0.46,-1.30209 0.305,-1.44325 -0.155,-0.14116 -0.378,0.0139 -0.496,0.3447 -0.118,0.33074 -0.467,0.60617 -0.775,0.61205 -0.308,0.006 -1.1,0.44485 -1.76,0.97548 l -1.201,0.96478 1.67,-0.13358 c 1.22,-0.0976 1.827,-0.45299 2.257,-1.32018 z m -10.888,0.22443 c 0,-0.39689 -0.204,-0.72162 -0.452,-0.72162 -0.605,0 -1.039,0.75125 -0.655,1.13561 0.54,0.54179 1.107,0.32997 1.107,-0.41399 z m 27.846,-0.24054 c 0,-0.2646 -0.228,-0.48108 -0.508,-0.48108 -0.28,0 -0.375,0.21648 -0.212,0.48108 0.163,0.2646 0.392,0.48109 0.509,0.48109 0.116,0 0.211,-0.21649 0.211,-0.48109 z m 16.685,-0.36081 c 0.294,-0.88456 -1.167,-0.73414 -1.508,0.15522 -0.202,0.5276 -0.05,0.7096 0.509,0.60135 0.439,-0.0854 0.889,-0.42583 0.999,-0.75657 z m -46.954,-0.64256 c -0.295,-0.55186 -0.653,-0.88593 -0.796,-0.74238 -0.396,0.39654 0.238,1.74575 0.82,1.74575 0.355,0 0.348,-0.30763 -0.02,-1.00337 z m 15.866,-0.70497 c 0,-0.1836 -0.324,-0.0643 -0.72,0.26508 -0.396,0.3294 -0.72,0.80435 -0.72,1.05545 0,0.25109 0.324,0.1318 0.72,-0.26509 0.396,-0.3969 0.72,-0.87184 0.72,-1.05544 z m -12.483,0.82635 c 0,-0.62641 -0.571,-1.04301 -1.035,-0.75549 -0.497,0.3075 -0.07,1.1564 0.583,1.1564 0.249,0 0.452,-0.18041 0.452,-0.40091 z m 30.531,-1.3991 c -0.4,-0.40099 -2.224,0.89779 -1.93,1.3744 0.186,0.30104 0.652,0.16993 1.217,-0.34191 0.503,-0.45661 0.824,-0.92123 0.713,-1.03249 z m -29.997,-1.22482 c -0.392,-0.39288 -0.534,-0.33905 -0.534,0.20246 0,0.95633 0.646,1.60324 0.884,0.886 0.101,-0.30429 -0.06,-0.79409 -0.35,-1.08846 z m 31.634,0.6194 c 0,-0.2646 -0.216,-0.48109 -0.48,-0.48109 -0.264,0 -0.481,0.21649 -0.481,0.48109 0,0.2646 0.217,0.48108 0.481,0.48108 0.264,0 0.48,-0.21648 0.48,-0.48108 z m -35.835,-0.72163 c -0.152,-0.39689 -0.47,-0.72163 -0.705,-0.72163 -0.236,0 -0.429,0.32474 -0.429,0.72163 0,0.3969 0.317,0.72163 0.705,0.72163 0.429,0 0.597,-0.28206 0.429,-0.72163 z m 16.87,0.24054 c 0.163,-0.26459 0.07,-0.48108 -0.212,-0.48108 -0.279,0 -0.508,0.21649 -0.508,0.48108 0,0.2646 0.09,0.48109 0.212,0.48109 0.116,0 0.345,-0.21649 0.508,-0.48109 z m 32.048,0.007 c 0.462,-0.004 0.84,-0.33686 0.84,-0.74055 0,-0.65347 -0.151,-0.65557 -1.379,-0.0192 -0.759,0.39314 -1.494,0.60079 -1.633,0.46144 -0.139,-0.13935 -0.416,0.0116 -0.616,0.33551 -0.264,0.42905 -0.05,0.50481 0.792,0.27912 0.636,-0.17037 1.534,-0.31271 1.996,-0.31633 z m -27.832,-0.96874 c 0.392,0 0.39,-0.14742 0,-0.54496 -0.628,-0.62998 -2.048,-0.22703 -2.048,0.58134 0,0.30173 0.341,0.41653 0.759,0.25564 0.418,-0.16061 1.001,-0.29202 1.296,-0.29202 z m 30.812,0.0333 c 0.152,-0.24632 0.06,-0.58383 -0.212,-0.75002 -0.268,-0.1662 -0.488,0.0353 -0.488,0.44784 0,0.84504 0.289,0.96946 0.7,0.30218 z m -53.512,-2.67922 c 0,-0.63026 -0.195,-1.26634 -0.432,-1.41352 -0.238,-0.14718 -0.432,0.48891 -0.432,1.41352 0,0.92462 0.194,1.5607 0.432,1.41353 0.237,-0.14718 0.432,-0.78327 0.432,-1.41353 z m 9.122,1.1703 c 0,-0.30466 -0.415,-0.38153 -1.02,-0.189 -0.687,0.21836 -0.913,0.15029 -0.692,-0.20813 0.18,-0.29294 0.532,-0.53262 0.78,-0.53262 0.603,0 2.517,-1.93959 2.214,-2.24338 -0.131,-0.13138 -1.12,0.26552 -2.197,0.88199 -1.973,1.12948 -2.473,2.03838 -1.366,2.48603 1.074,0.43398 2.281,0.33081 2.281,-0.19489 z m 1.2,-0.92975 c 0.163,-0.2646 0.07,-0.48109 -0.212,-0.48109 -0.279,0 -0.508,0.21649 -0.508,0.48109 0,0.26459 0.09,0.48108 0.212,0.48108 0.116,0 0.345,-0.21649 0.508,-0.48108 z m -6.481,-0.96217 c -0.283,-0.5292 -0.723,-0.96217 -0.977,-0.96217 -0.627,0 -0.583,0.38593 0.136,1.20471 0.893,1.01541 1.43,0.86037 0.841,-0.24254 z m 24.245,-0.96217 c 0.164,-0.2646 0.07,-0.48109 -0.211,-0.48109 -0.28,0 -0.509,0.21649 -0.509,0.48109 0,0.26459 0.1,0.48108 0.212,0.48108 0.116,0 0.345,-0.21649 0.508,-0.48108 z m -29.047,-1.20272 c 0,-0.39689 -0.203,-0.72163 -0.451,-0.72163 -0.606,0 -1.039,0.75126 -0.656,1.13562 0.541,0.54179 1.107,0.32997 1.107,-0.41399 z m 14.884,0.24055 c 0,-0.2646 -0.216,-0.48109 -0.48,-0.48109 -0.264,0 -0.48,0.21649 -0.48,0.48109 0,0.26459 0.216,0.48108 0.48,0.48108 0.264,0 0.48,-0.21649 0.48,-0.48108 z m 30.727,0 c 0,-0.2646 -0.228,-0.48109 -0.508,-0.48109 -0.28,0 -0.375,0.21649 -0.212,0.48109 0.163,0.26459 0.392,0.48108 0.509,0.48108 0.116,0 0.211,-0.21649 0.211,-0.48108 z m -12.963,-1.44326 c 0,-0.2646 -0.203,-0.48109 -0.451,-0.48109 -0.249,0 -0.586,0.21649 -0.749,0.48109 -0.163,0.2646 0.04,0.48108 0.452,0.48108 0.412,0 0.748,-0.21648 0.748,-0.48108 z m 15.844,0 c 0,-0.2646 -0.216,-0.48109 -0.48,-0.48109 -0.264,0 -0.48,0.21649 -0.48,0.48109 0,0.2646 0.216,0.48108 0.48,0.48108 0.264,0 0.48,-0.21648 0.48,-0.48108 z m -50.412,-0.92208 c 0,-0.50714 0.254,-1.00702 0.565,-1.11083 0.319,-0.10659 0.404,-0.4507 0.194,-0.79051 -0.28,-0.45412 -0.533,-0.38814 -1.03,0.26893 -0.773,1.02166 -0.898,2.55449 -0.209,2.55449 0.264,0 0.48,-0.41494 0.48,-0.92208 z m 37.008,-0.52118 c 0.243,0 0.441,-0.19622 0.441,-0.43604 0,-0.55987 -1.837,-0.0891 -2.247,0.57587 -0.196,0.31741 0,0.38514 0.527,0.18247 0.461,-0.17726 1.037,-0.3223 1.279,-0.3223 z m -17.083,-0.48108 c 0.163,-0.2646 0.08,-0.48109 -0.184,-0.48109 -0.264,0 -0.613,0.21649 -0.776,0.48109 -0.164,0.2646 -0.08,0.48108 0.183,0.48108 0.264,0 0.614,-0.21648 0.777,-0.48108 z m -15.844,-0.96217 c 0.163,-0.2646 -0.04,-0.48109 -0.452,-0.48109 -0.411,0 -0.748,0.21649 -0.748,0.48109 0,0.26459 0.203,0.48108 0.452,0.48108 0.248,0 0.585,-0.21649 0.748,-0.48108 z m 17.524,-0.48109 c 0,-0.26459 -0.1,-0.48108 -0.212,-0.48108 -0.116,0 -0.345,0.21649 -0.508,0.48108 -0.163,0.2646 -0.07,0.48109 0.212,0.48109 0.279,0 0.508,-0.21649 0.508,-0.48109 z m -13.443,-0.48108 c 0,-0.2646 -0.216,-0.48109 -0.48,-0.48109 -0.264,0 -0.48,0.21649 -0.48,0.48109 0,0.26459 0.216,0.48108 0.48,0.48108 0.264,0 0.48,-0.21649 0.48,-0.48108 z m 1.44,-1.44326 c 0,-0.2646 -0.228,-0.48108 -0.508,-0.48108 -0.28,0 -0.375,0.21648 -0.212,0.48108 0.163,0.2646 0.392,0.48109 0.509,0.48109 0.116,0 0.211,-0.21649 0.211,-0.48109 z m 17.765,-1.2311 c 0,-0.41252 -0.216,-0.61623 -0.481,-0.4527 -0.264,0.16353 -0.48,0.50104 -0.48,0.75002 0,0.24898 0.216,0.4527 0.48,0.4527 0.265,0 0.481,-0.33751 0.481,-0.75002 z m 3.237,-0.46438 c 1.819,-1.10982 1.931,-1.4904 0.569,-1.9236 -1.204,-0.3829 -2.607,0.74728 -2.715,2.18731 -0.08,1.10659 -0.103,1.10899 2.146,-0.26371 z m 15.284,-0.15112 c -1.025,-0.20047 -1.442,0.16358 -1.003,0.87578 0.238,0.38506 0.544,0.36016 1.084,-0.0883 0.677,-0.56284 0.669,-0.64084 -0.08,-0.78752 z m -29.578,-1.5022 c 0.388,-0.24616 0.589,-0.56534 0.445,-0.70929 -0.144,-0.14396 -0.677,0.0539 -1.186,0.43962 -1.013,0.76737 -0.397,0.99112 0.741,0.26967 z m 17.344,-1.277 c 0.557,-0.67233 0.522,-0.75341 -0.261,-0.60135 -0.498,0.0967 -0.996,0.44637 -1.105,0.77711 -0.286,0.85821 0.605,0.74372 1.366,-0.17576 z m -13.061,-1.63222 c 0.632,-0.54028 1.019,-1.11209 0.86,-1.27069 -0.158,-0.15861 -0.961,0.27978 -1.785,0.9742 -0.823,0.69441 -1.709,1.26257 -1.969,1.26257 -0.259,0 -0.338,0.21708 -0.174,0.48239 0.335,0.54314 1.238,0.11659 3.068,-1.44847 z m 20.571,-2.264 c 0.227,-0.68303 -1.365,-1.2413 -1.929,-0.67629 -0.25,0.25022 -0.321,0.67101 -0.158,0.93509 0.37,0.59968 1.863,0.41451 2.087,-0.2588 z m -17.638,0.13142 c 0,-0.11668 -0.216,-0.34595 -0.48,-0.50948 -0.264,-0.16353 -0.481,-0.0681 -0.481,0.21215 0,0.28022 0.217,0.50948 0.481,0.50948 0.264,0 0.48,-0.0955 0.48,-0.21215 z m 2.88,-1.2311 c 0.641,-0.41454 0.641,-0.46636 0,-0.46636 -0.396,0 -1.044,0.20986 -1.44,0.46636 -0.64,0.41453 -0.64,0.46635 0,0.46635 0.396,0 1.044,-0.20986 1.44,-0.46635 z m 1.921,-1.44326 c 0,-0.2646 -0.337,-0.48109 -0.749,-0.48109 -0.411,0 -0.615,0.21649 -0.451,0.48109 0.163,0.2646 0.5,0.48109 0.748,0.48109 0.249,0 0.452,-0.21649 0.452,-0.48109 z m 3.566,-2.19037 c 0.509,-0.37741 0.749,-0.8508 0.534,-1.05199 -0.215,-0.20118 -0.487,-0.0952 -0.605,0.23558 -0.118,0.33074 -0.494,0.60135 -0.836,0.60135 -0.342,0 -0.876,0.3077 -1.187,0.68378 -0.46,0.55462 -0.403,0.63974 0.301,0.45063 0.477,-0.12823 1.284,-0.54194 1.793,-0.91935 z m -16.659,-0.50571 c -0.16,-0.15986 -0.574,-0.17695 -0.921,-0.038 -0.383,0.15357 -0.269,0.26757 0.291,0.29065 0.506,0.0209 0.789,-0.0928 0.63,-0.25267 z m 2.05,-1.63369 c 0,-0.26459 -0.1,-0.48108 -0.212,-0.48108 -0.116,0 -0.345,0.21649 -0.508,0.48108 -0.163,0.2646 -0.07,0.48109 0.212,0.48109 0.279,0 0.508,-0.21649 0.508,-0.48109 z m 17.552,-0.20121 c 1.038,-0.76073 0.765,-1.42427 -0.402,-0.97563 -0.798,0.30689 -1.534,1.65793 -0.903,1.65793 0.206,0 0.793,-0.30703 1.305,-0.6823 z m -10.35,-4.12856 c 0,-0.26459 -0.229,-0.48108 -0.509,-0.48108 -0.279,0 -0.374,0.21649 -0.211,0.48108 0.163,0.2646 0.392,0.48109 0.508,0.48109 0.117,0 0.212,-0.21649 0.212,-0.48109 z m 5.823,-2.73604 c 0.58,-0.71453 0.553,-0.77212 -0.221,-0.48108 -0.484,0.18184 -1.078,0.33061 -1.32,0.33061 -0.243,0 -0.441,0.21649 -0.441,0.48109 0,0.76726 1.261,0.55684 1.982,-0.33062 z"
         id="path1" /></g></g></svg>
