<?xml version="1.0" encoding="UTF-8" standalone="no"?>
<!-- Created with Inkscape (http://www.inkscape.org/) -->

<svg
   width="231.38646"
   height="235.24007"
   viewBox="0 0 61.221 62.240601"
   version="1.1"
   id="svg1"
   xml:space="preserve"
   xmlns="http://www.w3.org/2000/svg"
   xmlns:svg="http://www.w3.org/2000/svg"><defs
     id="defs1" /><g
     id="g2047"
     transform="matrix(0.26458333,0,0,0.26458333,-5299.2671,-10.12824)"><g
       id="g2077"
       transform="translate(460.83253,-469.76667)"><path
         style="fill:#000000"
         d="m 19684.505,709.7371 c 0.176,-1.38915 0.619,-3.49993 0.984,-4.69063 1.563,-5.0942 1.535,-5.25447 -1.804,-10.1732 -1.68,-2.47502 -3.401,-5.3827 -3.825,-6.46151 -1.25,-3.18338 -1.806,-8.83235 -1.812,-18.39938 0,-9.05258 -0.373,-11.81664 -2.06,-15.50108 -0.418,-0.91469 -1.029,-2.63727 -1.357,-3.82797 -0.327,-1.1907 -0.765,-2.39213 -0.971,-2.66986 -0.207,-0.27773 -0.522,-1.4143 -0.699,-2.52572 -0.275,-1.71814 -0.199,-2.02076 0.507,-2.02076 0.981,0 3.371,2.43964 4.442,4.53442 0.416,0.81356 1.383,2.27646 2.149,3.25088 2.727,3.47007 4.959,12.13869 4.452,17.28822 -0.336,3.40383 0.54,7.50481 2.919,13.67641 0.616,1.59981 1.276,3.94336 1.466,5.20788 0.19,1.26453 0.512,2.12049 0.716,1.90215 0.204,-0.21834 1.15,-3.77477 2.101,-7.90316 0.952,-4.1284 2.066,-8.45531 2.475,-9.61535 0.943,-2.67267 2.476,-8.75104 2.841,-11.26277 0.154,-1.0584 0.489,-3.00681 0.746,-4.32981 1.689,-8.71399 3.4,-26.45411 2.666,-27.64216 -0.238,-0.38462 -0.833,-0.25476 -2.007,0.43805 -1.239,0.73075 -2.5,0.98292 -4.89,0.97772 -3.328,-0.007 -4.557,-0.33445 -10.679,-2.8415 -3.848,-1.576 -5.739,-1.9646 -4.077,-0.8379 0.522,0.35388 2.682,1.35446 4.799,2.22352 2.117,0.86905 4.92,2.12009 6.229,2.78007 1.944,0.97991 2.816,1.14833 4.758,0.91842 1.308,-0.15485 2.781,-0.64652 3.274,-1.09259 0.846,-0.76571 0.896,-0.75674 0.896,0.16033 0,0.70078 -0.574,1.19062 -2.061,1.75838 -2.955,1.12835 -4.314,0.99126 -8.201,-0.82747 -1.899,-0.88796 -4.426,-1.97018 -5.617,-2.40493 -1.191,-0.43476 -4.006,-1.85954 -6.255,-3.16618 -2.25,-1.30665 -5.119,-2.9342 -6.376,-3.6168 -1.541,-0.83679 -2.285,-1.55188 -2.285,-2.19516 0,-1.20116 0.652,-1.18777 3.368,0.0691 2.63,1.21725 9.583,1.76313 12.618,0.99071 6.578,-1.67394 7.097,-1.73415 9.895,-1.148 1.512,0.31675 3.348,1.01818 4.08,1.55873 1.238,0.91468 1.353,0.92471 1.652,0.14473 0.429,-1.11863 -1.115,-8.56754 -2.282,-11.00806 -1.767,-3.69439 -5.869,-8.07367 -9.655,-10.30752 -1.956,-1.15415 -4.778,-2.92066 -6.27,-3.92558 -3.007,-2.02485 -7.287,-3.82389 -8.003,-3.36372 -1.104,0.7105 -1.052,2.3031 0.128,3.90278 0.663,0.89805 1.205,1.92595 1.205,2.28422 0,0.35827 0.421,1.52174 0.935,2.58547 1.127,2.33366 0.938,2.96332 -1.289,4.27695 -1.754,1.03483 -3.033,0.71425 -2.244,-0.56248 0.947,-1.53277 -1.088,-6.64913 -3.412,-8.57781 -0.366,-0.30322 -0.8,-1.16819 -0.966,-1.92215 l -0.301,-1.37084 -2.83,1.40408 c -3.341,1.65726 -3.457,1.67019 -4.513,0.5034 -0.797,-0.88018 -0.856,-0.88018 -2.582,0 -0.972,0.49537 -2.06,0.90068 -2.417,0.90068 -1.042,0 -5.392,-1.51836 -5.679,-1.98212 -0.143,-0.23283 -1.071,-0.42333 -2.061,-0.42333 -1.956,0 -2.955,-0.67564 -2.955,-1.99812 0,-0.83 -0.504,-1.28377 -3.85,-3.46511 -1.389,-0.90589 -1.656,-1.34499 -1.527,-2.50808 0.09,-0.77547 0.692,-2.11353 1.347,-2.97348 0.854,-1.11984 0.997,-1.56354 0.504,-1.56354 -0.378,0 -0.957,0.32473 -1.286,0.72163 -0.72,0.86685 -2.472,0.94415 -3.272,0.14433 -0.318,-0.31752 -0.577,-1.38719 -0.577,-2.37706 0,-0.98986 -0.217,-1.93354 -0.482,-2.09707 -0.264,-0.16354 -0.481,-1.04227 -0.481,-1.95276 0,-1.15076 -0.22,-1.65542 -0.722,-1.65542 -0.858,0 -0.888,-0.33952 -0.205,-2.29956 0.356,-1.01973 0.363,-1.76807 0.02,-2.40286 -0.361,-0.67383 -0.31,-1.18447 0.19,-1.89771 0.607,-0.86654 0.578,-1.07177 -0.263,-1.83276 -1.932,-1.74802 -0.585,-4.43829 3.135,-6.25752 l 2.654,-1.29846 v -2.80169 c 0,-1.54093 0.216,-2.93549 0.481,-3.09902 0.265,-0.16353 0.481,-0.63337 0.481,-1.04408 0,-1.50318 3.798,-5.30346 6.847,-6.85124 5.596,-2.84085 5.664,-2.89244 5.664,-4.3025 0,-1.75318 0.81,-2.47542 2.775,-2.47542 1.816,0 4.924,2.05903 4.924,3.26217 0,1.61189 1.689,5.97611 2.476,6.39713 1.206,0.64521 1.521,-0.16793 1.46,-3.76218 -0.05,-2.62738 0.08,-3.14493 0.822,-3.3382 0.481,-0.12581 1.177,-0.90832 1.547,-1.73892 0.37,-0.8306 1.409,-1.93529 2.309,-2.45486 1.554,-0.89643 1.709,-0.90337 3.046,-0.136 0.776,0.44478 1.813,0.80868 2.305,0.80868 0.492,0 1.029,0.21649 1.192,0.48109 0.164,0.2646 0.908,0.48109 1.654,0.48109 0.746,0 1.608,0.3035 1.916,0.67444 0.308,0.37093 1.054,0.79838 1.657,0.94989 0.672,0.16858 1.896,1.51868 3.156,3.47991 1.791,2.78848 1.989,3.35508 1.529,4.36473 -0.728,1.59737 -0.729,1.5961 1.081,1.5961 1.19,0 2.064,0.44026 3.345,1.68381 0.954,0.9261 1.938,1.68381 2.188,1.68381 0.68,0 1.073,1.3735 0.755,2.63942 -0.154,0.61583 -0.04,1.56281 0.246,2.10441 0.404,0.75496 0.339,1.45491 -0.279,2.99981 -0.663,1.65586 -0.705,2.28162 -0.238,3.51017 0.533,1.40298 0.471,1.57576 -1.003,2.80513 -0.864,0.72053 -1.718,1.31588 -1.898,1.32299 -0.179,0.007 -0.475,1.25777 -0.658,2.77921 -0.214,1.78983 -0.746,3.32015 -1.507,4.33542 -1.043,1.39338 -1.094,1.64981 -0.455,2.28931 0.397,0.3961 1.655,1.12324 2.796,1.61587 1.141,0.49263 2.508,1.38157 3.038,1.97543 0.529,0.59385 1.449,1.26602 2.045,1.4937 0.595,0.22769 1.082,0.66104 1.082,0.96302 0,0.37657 -1.002,0.4852 -3.192,0.34583 -2.397,-0.15262 -3.39,-0.43608 -3.988,-1.1385 -2.405,-2.82648 -2.502,-2.84128 -6.297,-0.96589 -1.908,0.94293 -3.835,1.71442 -4.282,1.71442 -0.62,0 -0.812,0.42898 -0.807,1.80408 0,0.99225 -0.172,2.61238 -0.389,3.60029 -0.356,1.61431 -0.281,1.8456 0.739,2.28403 0.624,0.2683 1.459,0.69348 1.856,0.94484 0.397,0.25136 2.995,1.45533 5.774,2.67549 5.594,2.45615 9.208,5.43683 11.371,9.37813 0.654,1.19069 1.716,3.03086 2.36,4.08926 0.644,1.0584 1.525,3.00681 1.959,4.32981 1.132,3.45092 1.496,3.56015 1.568,0.46938 0.03,-1.49714 0.369,-3.29768 0.745,-4.00118 0.375,-0.70351 1.388,-3.31345 2.251,-5.79987 1.491,-4.2983 1.54,-4.65343 0.983,-7.21635 -1.329,-6.11744 -2.44,-14.033 -2.164,-15.41276 0.373,-1.86387 1.137,-1.92476 1.137,-0.0906 0,0.7614 0.325,1.65387 0.722,1.98327 0.397,0.3294 0.721,1.0388 0.721,1.57645 0,0.53765 0.621,3.48788 1.379,6.55608 1.831,7.40785 2.832,11.88495 3.197,14.29813 0.859,5.67118 -3.292,15.60746 -7.013,16.78832 -0.83,0.26336 -0.964,0.56722 -0.702,1.60072 0.86,3.40138 0.742,8.06446 -0.447,17.58338 -0.691,5.52946 -1.351,10.20701 -1.467,10.39455 -0.116,0.18754 -0.326,1.18394 -0.466,2.21423 -0.14,1.03028 -0.591,3.7134 -1.001,5.9625 -0.411,2.24909 -0.935,5.17171 -1.165,6.49471 -0.749,4.31139 -1.939,9.4796 -3.096,13.43824 -1.621,5.54848 -2.134,7.97025 -1.688,7.97025 0.625,0 7.155,-7.74732 7.96,-9.44299 0.403,-0.85028 1.978,-2.8743 3.5,-4.49782 l 2.766,-2.95186 5.841,0.1007 c 6.323,0.10902 6.794,-0.041 8.108,-2.58156 1.273,-2.46064 1.284,-0.99746 0.01,1.68865 -1.129,2.38537 -1.6,2.80866 -6.185,5.54995 -2.729,1.63219 -5.534,3.46071 -6.233,4.06338 -1.324,1.14271 -3.305,4.83303 -5.234,9.75536 -1.506,3.84342 -2.998,6.17151 -4.753,7.42136 -2.191,1.5594 -6.639,3.40316 -8.211,3.40316 -0.921,0 -1.478,0.2875 -1.634,0.84191 -1.972,7.04144 -3.453,11.18534 -3.995,11.18534 -0.735,0 -0.921,-3.14081 -0.211,-3.57908 0.426,-0.26365 2.453,-6.40988 2.453,-7.4404 0,-0.8604 -1.358,-0.5981 -1.632,0.31523 -1.235,4.11949 -2.218,8.27219 -2.218,9.37158 0,0.73297 -0.244,1.33267 -0.543,1.33267 -0.375,0 -0.444,-0.78142 -0.223,-2.52572 z m 5.968,-12.74888 c 0.235,-0.99225 0.683,-2.77829 0.995,-3.96899 0.313,-1.1907 1.119,-4.43805 1.792,-7.21635 0.673,-2.77829 1.353,-5.37618 1.511,-5.77307 2.285,-5.74949 5.341,-20.75099 7.105,-34.87901 1.419,-11.36331 1.772,-15.42343 1.508,-17.31923 -0.147,-1.0584 -0.506,-3.64831 -0.796,-5.75537 -0.29,-2.10705 -0.694,-4.05546 -0.896,-4.32981 -0.203,-0.27434 -0.659,-1.41995 -1.014,-2.54582 -0.956,-3.02935 -1.07,-2.20764 -0.29,2.09143 0.636,3.50952 0.991,6.79103 1.48,13.66665 0.587,8.25516 -3.606,34.67215 -7.019,44.22159 -0.528,1.47656 -1.469,4.7596 -2.092,7.29564 -1.038,4.23198 -1.453,5.75587 -3.442,12.64323 -0.855,2.96219 -0.85,3.67319 0.03,3.67319 0.416,0 0.877,-0.73707 1.13,-1.80408 z m 2.497,1.323 c 0,-0.2646 -0.325,-0.48109 -0.722,-0.48109 -0.397,0 -0.722,0.21649 -0.722,0.48109 0,0.26459 0.325,0.48108 0.722,0.48108 0.397,0 0.722,-0.21649 0.722,-0.48108 z m 2.038,-1.87604 c 2.105,-0.79996 4.985,-5.24559 5.799,-8.94848 0.406,-1.8522 0.655,-3.4526 0.553,-3.55646 -0.429,-0.43445 -1.653,1.1105 -1.653,2.08639 0,3.30298 -3.562,8.91552 -5.67,8.93432 -0.455,0.004 -1.151,0.22055 -1.548,0.48109 -0.642,0.42109 -0.642,0.52636 0,0.94745 0.897,0.58864 1.105,0.59324 2.519,0.0557 z m 5.781,-1.38743 c 1.021,-0.89056 1.103,-2.02852 0.145,-2.02852 -0.652,0 -3.152,2.81639 -3.152,3.55024 0,0.41357 1.878,-0.53657 3.007,-1.52172 z m -13.593,0.85913 c 0,-0.26399 -0.758,-1.53466 -1.684,-2.82372 -0.927,-1.28906 -1.684,-2.49175 -1.684,-2.67263 0,-0.18089 -0.542,-1.12537 -1.203,-2.09886 -1.791,-2.63459 -1.559,-0.57238 0.308,2.7443 2.345,4.16513 4.263,6.34738 4.263,4.85091 z m 8.521,-3.48901 c 1.134,-1.23998 2.546,-3.87808 2.546,-4.75675 0,-0.93585 -2.875,2.03628 -3.903,4.03511 -1.084,2.10729 -0.294,2.52729 1.357,0.72164 z m -8.04,-0.85392 c 0,-0.27121 -0.725,-1.94901 -1.612,-3.72845 -1.845,-3.70241 -2.804,-8.01972 -2.804,-12.62932 0,-1.75722 -0.176,-3.48056 -0.392,-3.82966 -0.216,-0.3491 -0.421,2.4235 -0.456,6.16133 -0.06,6.00129 0.06,7.06481 0.968,9.09409 1.672,3.71751 4.296,6.73061 4.296,4.93201 z m 15.398,-4.70694 c 0,-0.47862 0.318,-1.29046 0.706,-1.80408 0.389,-0.51363 0.71,-1.36684 0.714,-1.89604 0,-0.79106 -0.156,-0.7055 -0.912,0.48109 -1.186,1.86216 -1.754,4.08926 -1.042,4.08926 0.294,0 0.534,-0.3916 0.534,-0.87023 z m -22.199,-9.35293 c -0.03,-3.77054 -0.2,-8.69569 -0.376,-10.94479 l -0.319,-4.08926 -0.401,4.72 c -0.6,7.05231 -0.03,17.16958 0.968,17.16958 0.102,0 0.16,-3.08499 0.128,-6.85553 z m 26.483,-0.48109 c 1.22,-1.12454 2.975,-2.62981 3.899,-3.34503 l 1.681,-1.30041 -1.489,-0.0226 c -1.127,-0.0171 -1.984,0.47385 -3.529,2.02204 -1.97,1.97528 -3.767,4.69063 -3.104,4.69063 0.178,0 1.322,-0.92009 2.542,-2.04464 z m 4.144,-0.85382 c 0.17,-0.27491 1.275,-0.95368 2.455,-1.50837 1.18,-0.55468 2.044,-1.11058 1.919,-1.23533 -0.542,-0.54151 -3.638,0.9983 -5.608,2.78869 -1.96,1.78125 -2.012,1.88327 -0.608,1.20075 0.843,-0.41024 1.672,-0.97082 1.842,-1.24574 z m -28.164,-9.91546 c 0,-1.63784 -0.32,-3.67209 -0.728,-4.57035 -0.714,-1.57074 -0.729,-1.49742 -0.497,2.47048 0.131,2.2491 0.249,4.63049 0.261,5.29199 0.02,0.95545 0.12,1.05436 0.49,0.48109 0.257,-0.3969 0.47,-2.04984 0.474,-3.67321 z m -4.333,-9.76261 c -0.584,-2.00358 -1.392,-3.9676 -1.797,-4.3645 -0.656,-0.64389 -0.696,-0.61798 -0.366,0.24055 1.033,2.68836 2.662,8.10244 2.719,9.03876 0.06,0.99086 0.08,0.9837 0.286,-0.10391 0.121,-0.64242 -0.258,-2.80733 -0.842,-4.8109 z m -2.403,-7.13077 c 0,-0.19845 -0.218,-0.68555 -0.474,-1.08245 -0.377,-0.58354 -0.468,-0.51449 -0.474,0.36082 0,0.59535 0.209,1.08245 0.474,1.08245 0.264,0 0.478,-0.16237 0.474,-0.36082 z m 20.627,-21.23453 c 0.409,-0.25901 -0.935,-0.5447 -3.609,-0.76728 -5.515,-0.45906 -10.358,-1.90631 -10.17,-3.03898 0.103,-0.62045 -0.154,-0.77872 -1.067,-0.65591 -2.999,0.40351 -1.501,1.53009 5.293,3.98007 2.339,0.84336 8.493,1.15393 9.553,0.4821 z m -1.781,-3.08129 c -0.782,-0.7819 -1.928,-1.04374 -5.918,-1.35279 -2.722,-0.21077 -5.029,-0.30316 -5.127,-0.2053 -0.461,0.46167 2.322,1.37079 6.04,1.9725 2.258,0.36547 4.204,0.7633 4.325,0.88406 0.121,0.12076 0.541,0.0962 0.935,-0.0547 0.594,-0.22818 0.552,-0.43712 -0.255,-1.2438 z m 2.941,0.0921 c -0.306,-1.16724 -2.806,-2.83994 -4.217,-2.82113 l -0.962,0.0128 0.962,0.54578 c 0.529,0.30018 1.715,1.15956 2.636,1.90973 0.92,0.75017 1.712,1.36394 1.759,1.36394 0.05,0 -0.03,-0.45502 -0.178,-1.01116 z m -22.021,-0.91319 c -0.163,-0.2646 -0.555,-0.47778 -0.87,-0.47373 -0.345,0.004 -0.285,0.19351 0.149,0.47373 0.924,0.59728 1.091,0.59728 0.721,0 z m 28.882,-3.86685 c 0.17,-0.27458 0.406,-2.03233 0.524,-3.90611 0.118,-1.87379 0.449,-3.8448 0.735,-4.38002 1.125,-2.1008 2.375,-7.51858 2.58,-11.17988 0.176,-3.13819 0.134,-3.473 -0.226,-1.81356 -0.244,1.11933 -0.888,3.04114 -1.432,4.27069 -0.544,1.22955 -0.989,2.52658 -0.989,2.8823 0,0.35572 -0.541,1.87057 -1.203,3.36633 -1.273,2.87745 -1.54,5.98103 -0.704,8.17941 0.345,0.90627 0.345,1.46678 0,1.81135 -0.274,0.27443 -0.499,0.67216 -0.499,0.88384 0,0.55416 0.851,0.47407 1.214,-0.11435 z m 3.591,-5.63468 c 0.597,-1.78604 1.248,-3.46384 1.446,-3.72844 1.026,-1.37006 1.022,-8.23498 0,-7.13201 -1.048,1.12756 -3.535,14.10781 -2.703,14.10781 0.1,0 0.664,-1.46131 1.261,-3.24736 z m -15.482,-12.69797 c -1.677,-2.00035 -2.995,-2.9161 -6.88,-4.77661 -4.583,-2.19478 -6.307,-2.67423 -4.301,-1.1959 0.51,0.37589 2.551,1.55716 4.536,2.62503 1.985,1.06787 4.583,2.80551 5.774,3.86143 2.985,2.64686 3.342,2.43601 0.871,-0.51395 z m -19.89,-1.48927 c -0.486,-1.12724 -1.213,-2.32155 -1.615,-2.65402 -1.229,-1.01659 -0.919,-3.76719 0.569,-5.04526 0.714,-0.61388 1.299,-1.29405 1.299,-1.51148 0,-0.21744 -0.766,0.27656 -1.701,1.09777 -0.936,0.8212 -2.018,1.4931 -2.406,1.4931 -1.21,0 -0.778,1.57634 1.22,4.45515 1.059,1.52424 1.924,2.94225 1.924,3.15114 0,0.53466 1.092,1.56568 1.367,1.29076 0.125,-0.12519 -0.17,-1.14991 -0.657,-2.27716 z m -16.506,-5.49173 c 0.484,-0.4379 0.88,-1.19562 0.88,-1.68381 0,-0.48819 0.216,-0.88762 0.481,-0.88762 0.556,0 0.659,-8.15145 0.113,-8.90995 -0.195,-0.26998 -0.895,-0.75552 -1.557,-1.07896 -0.661,-0.32344 -1.572,-0.85333 -2.024,-1.17753 -0.635,-0.45587 -1.29,-0.46369 -2.887,-0.0345 -2.174,0.58409 -2.769,0.36002 -2.987,-1.12424 -0.269,-1.83977 -1.741,-1.19815 -5.333,2.3238 -1.986,1.94666 -3.61,3.9137 -3.61,4.37119 0,0.5074 0.832,1.2358 2.133,1.86771 1.317,0.63966 2.463,1.64941 2.996,2.63975 0.698,1.2955 1.156,1.60382 2.38,1.60382 0.834,0 1.781,0.31901 2.104,0.70891 0.324,0.38989 1.327,0.84742 2.23,1.01671 0.902,0.1693 1.759,0.49977 1.905,0.73437 0.43,0.69595 2.23,0.48648 3.176,-0.36965 z m -1.526,-9.4911 c 0,-1.6312 0.175,-2.24064 0.601,-2.09317 0.676,0.23376 0.556,3.19777 -0.159,3.93735 -0.271,0.27985 -0.442,-0.43509 -0.442,-1.84418 z m -3.85,0.92869 c 0,-0.9945 1.041,-3.14972 1.521,-3.14972 0.549,0 0.515,0.24576 -0.293,2.18035 -0.733,1.75369 -1.228,2.1443 -1.228,0.96937 z m -2.39,-1.97532 c 0,-0.28018 0.302,-0.92965 0.691,-1.44327 0.389,-0.51362 0.713,-0.70462 0.722,-0.42444 0,0.28017 -0.303,0.92964 -0.691,1.44326 -0.389,0.51363 -0.714,0.70463 -0.722,0.42445 z m 13.835,10.52348 c 0.719,-0.44575 1.742,-1.19267 2.275,-1.65983 0.532,-0.46716 1.821,-0.9434 2.864,-1.05831 1.276,-0.14063 2.25,-0.62028 2.979,-1.46725 0.72,-0.83707 1.566,-1.25833 2.526,-1.25833 1.177,0 1.592,-0.31102 2.242,-1.68014 0.506,-1.0672 0.678,-2.15473 0.47,-2.98103 -0.314,-1.25127 -4.386,-7.77107 -5.238,-8.3874 -0.228,-0.16484 -1.505,-0.42877 -2.837,-0.58651 -1.332,-0.15775 -2.812,-0.63944 -3.288,-1.07043 -1.349,-1.2205 -2.028,-0.4078 -1.668,1.9952 0.189,1.262 0.1,2.49852 -0.239,3.12185 -0.4,0.74644 -0.407,1.17766 -0.03,1.55781 0.641,0.64077 0.702,3.21976 0.08,3.21976 -0.247,0 -0.518,-0.57866 -0.602,-1.2859 -0.168,-1.42359 -0.763,-1.80689 -1.794,-1.15548 -0.818,0.51729 -1.286,10.86997 -0.513,11.34772 0.259,0.16013 0.471,0.71135 0.471,1.22493 0,1.14678 0.601,1.17898 2.302,0.12334 z m 4.885,-11.30867 c -0.02,-0.0818 -0.101,-0.8624 -0.187,-1.73475 -0.08,-0.87235 -0.518,-1.98743 -0.963,-2.47796 -0.81,-0.89536 -0.418,-1.69187 0.53,-1.07593 1.372,0.89149 2.167,4.50045 1.132,5.13997 -0.265,0.16353 -0.495,0.23043 -0.512,0.14867 z m -3.466,-1.95275 c -0.275,-1.80495 0.06,-2.68427 0.662,-1.73518 0.545,0.8601 0.547,3.29872 0,3.29872 -0.234,0 -0.533,-0.7036 -0.664,-1.56354 z m 11.667,10.45207 c -0.335,-0.40329 -0.734,-0.60801 -0.887,-0.45493 -0.153,0.15308 0.04,0.47973 0.429,0.72589 1.019,0.64409 1.152,0.56528 0.458,-0.27096 z m 15.608,-10.50349 c -0.167,-0.43477 -0.768,-0.78329 -1.335,-0.77448 -1.015,0.0158 -1.013,0.0307 0.12,0.9742 1.275,1.06195 1.674,0.99643 1.215,-0.19972 z m -51.934,-0.58984 c 0.686,-0.44927 1.57,-0.63231 2.156,-0.44638 0.697,0.22132 1.53,-0.11055 2.798,-1.11472 0.993,-0.78643 2.344,-1.50564 3.001,-1.59825 1.131,-0.15951 1.185,-0.30775 1.023,-2.81438 -0.23,-3.55783 -0.707,-4.3298 -2.674,-4.3298 -1.86,0 -2.697,-0.80278 -2.844,-2.72632 -0.08,-1.09055 -0.438,-1.47427 -1.779,-1.91996 -1.209,-0.40229 -1.464,-0.64161 -0.915,-0.86155 0.417,-0.16749 1.351,-0.0792 2.076,0.1962 1.745,0.66329 1.879,0.64617 2.981,-0.37965 0.519,-0.4842 1.56,-1.28317 2.311,-1.77548 1.297,-0.84942 1.351,-1.02614 1.065,-3.46228 -0.324,-2.75747 0.4,-4.90353 1.995,-5.91312 0.603,-0.38163 0.671,-0.60466 0.241,-0.78563 -1.317,-0.55307 -0.55,-1.25221 1.082,-0.98736 1.334,0.21643 1.684,0.11398 1.684,-0.49271 0,-0.6656 0.126,-0.65187 0.963,0.10481 0.96,0.86918 1.306,2.1649 0.577,2.1649 -0.212,0 -0.645,-0.25978 -0.962,-0.5773 -0.449,-0.44902 -0.578,-0.44474 -0.578,0.0193 0,0.47223 3.675,4.40675 4.117,4.40675 0.06,0 0.232,-0.4871 0.381,-1.08245 0.149,-0.59535 -0.259,-2.59788 -0.908,-4.45008 -1.366,-3.90119 -1.306,-3.60817 -0.742,-3.60817 0.242,0 0.82,1.02833 1.282,2.28517 0.463,1.25685 0.986,2.45464 1.162,2.66177 0.487,0.57031 1.561,-0.0444 2.794,-1.59947 l 1.109,-1.39758 -1.229,-1.80826 c -0.676,-0.99454 -1.229,-2.05788 -1.229,-2.36297 0,-0.30509 -0.353,-1.64743 -0.784,-2.98297 -0.591,-1.82813 -1.117,-2.5657 -2.128,-2.98439 -2.178,-0.90215 -3.071,-0.46467 -3.343,1.63778 -0.222,1.71276 -0.43,1.93268 -2.641,2.79865 -1.321,0.5169 -2.512,1.11999 -2.648,1.3402 -0.136,0.22021 -1.167,0.76827 -2.291,1.21791 -1.335,0.53408 -2.044,1.11519 -2.044,1.67601 0,0.47216 -0.325,0.98309 -0.722,1.13539 -0.397,0.15231 -0.722,0.70123 -0.722,1.21983 0,0.51861 -0.373,1.3167 -0.83,1.77354 -1.001,1.00065 -1.311,4.23269 -0.472,4.92835 0.33,0.27377 1.553,0.56677 2.718,0.65112 3.093,0.22389 3.17,1.35607 0.09,1.35607 -4.138,0 -7.243,0.91109 -9.152,2.68595 l -1.739,1.61573 1.428,1.15816 c 1.223,0.99279 1.358,1.32109 0.945,2.29924 -0.677,1.60606 -0.259,8.60185 0.616,10.29487 0.269,0.522 0.391,1.22685 0.269,1.56633 -0.296,0.8281 0.197,2.02876 0.834,2.02876 0.283,0 1.037,-0.34269 1.676,-0.76153 z m 3.615,-6.91299 c 0,-0.47354 2.938,-1.4819 3.337,-1.14519 0.375,0.31673 -0.662,0.99153 -2.013,1.30987 -0.763,0.17976 -1.324,0.11001 -1.324,-0.16468 z m 37.49,6.83261 c 1.094,-0.62238 1.481,-1.19091 1.483,-2.1804 0,-0.86563 0.323,-1.4605 0.909,-1.68382 1.124,-0.4289 4.387,-4.28807 4.387,-5.1897 0,-0.94421 -3.93,-2.6125 -6.154,-2.6125 -1.031,0 -3.136,-0.43355 -4.676,-0.96343 -1.541,-0.52988 -2.846,-0.90874 -2.9,-0.84191 -0.547,0.66956 -2.149,5.05767 -2.149,5.88597 0,0.67005 0.955,1.97484 2.548,3.48104 1.401,1.32509 2.922,2.98017 3.379,3.67796 0.983,1.49881 1.231,1.53221 3.173,0.42679 z m -6.245,-8.35965 c -0.401,-0.74812 -0.406,-1.33373 -0.02,-2.17922 0.505,-1.10785 0.586,-1.12556 1.944,-0.42366 2.41,1.24627 2.662,2.87685 0.277,1.79002 -1.144,-0.52099 -1.744,0.003 -0.724,0.63317 0.72,0.44523 0.579,1.20272 -0.224,1.20272 -0.388,0 -0.951,-0.46036 -1.252,-1.02303 z m -14.985,8.41221 c 0.606,-0.16232 1.418,-0.90633 1.804,-1.65336 0.923,-1.78456 0.92,-6.70696 0,-7.92904 -1.043,-1.37857 -0.888,-2.13658 0.437,-2.13658 1.389,0 1.935,-0.69064 1.446,-1.82713 -0.194,-0.45038 -0.304,-1.42266 -0.245,-2.16062 0.1,-1.19263 -0.02,-1.30967 -1.043,-1.05305 -0.918,0.2302 -1.267,0.0344 -1.723,-0.96605 -0.671,-1.47261 -0.741,-2.33295 -0.16,-1.97412 0.227,0.13989 1.309,-0.51367 2.406,-1.45236 2.017,-1.72621 2.674,-1.37211 1.243,0.67031 -1.131,1.61457 0.09,1.81491 2.696,0.44185 2.999,-1.58092 3.046,-2.8125 0.22,-5.75071 -1.209,-1.25685 -2.452,-2.28518 -2.763,-2.28518 -1.164,0 -4.213,3.53211 -4.213,4.88015 0,0.72448 -0.236,1.46269 -0.524,1.64047 -0.287,0.17778 -0.415,0.7334 -0.284,1.23472 0.149,0.57237 -0.135,1.17275 -0.765,1.61369 -0.871,0.61028 -0.928,0.86508 -0.435,1.94674 0.33,0.72443 0.44,2.03791 0.263,3.14292 -0.271,1.6965 -0.197,1.89837 0.692,1.89837 1.319,0 1.771,0.82074 0.974,1.76923 -0.354,0.4207 -1.076,1.65603 -1.606,2.74519 -0.971,1.99914 -2.646,2.97031 -2.646,1.53447 0,-0.4163 0.29,-0.75691 0.644,-0.75691 0.654,0 1.762,-1.93353 1.762,-3.07515 0,-0.34344 -0.433,-1.01628 -0.963,-1.4952 -1.027,-0.92992 -1.272,-2.39763 -0.481,-2.88654 0.265,-0.16353 0.481,-0.71753 0.481,-1.23111 0,-0.74221 -0.337,-0.93379 -1.644,-0.93379 -2.157,0 -3.167,-0.41713 -3.167,-1.30774 0,-0.55699 0.363,-0.65565 1.575,-0.42826 1.871,0.35099 3.718,-0.72142 3.718,-2.15916 0,-2.60505 -2.722,-5.72664 -4.993,-5.72664 -1.085,0 -2.794,1.968 -2.445,2.8154 0.179,0.43603 0.435,1.68378 0.569,2.77279 0.225,1.83507 0.112,2.08158 -1.545,3.36762 -3.256,2.52759 -3.574,2.82572 -3.716,3.48127 -0.186,0.85958 3.942,1.95693 5.372,1.42804 0.599,-0.22156 1.442,-0.18322 1.95,0.0887 0.492,0.26337 1.36,0.47885 1.929,0.47885 2.095,0 0.58,1.20851 -1.821,1.45384 -1.353,0.13811 -2.618,0.4099 -2.812,0.60397 -0.194,0.19408 -0.04,2.02241 0.331,4.06298 l 0.685,3.71011 2.236,-0.13788 c 1.3,-0.0801 2.379,0.0919 2.576,0.41025 0.292,0.47231 1.911,1.33276 2.646,1.40582 0.132,0.0131 0.736,-0.10888 1.343,-0.2712 z m 11.889,-12.11707 c 0.817,-1.57491 0.812,-1.61343 -0.307,-2.3799 -0.625,-0.42849 -1.852,-1.48432 -2.726,-2.34629 -1.345,-1.32507 -1.772,-1.49811 -2.767,-1.11992 -1.372,0.52164 -1.441,0.97053 -0.443,2.90046 0.513,0.99159 1.093,1.41938 1.925,1.41938 1.193,0 1.721,0.91322 0.589,1.01767 -0.33,0.0305 -0.818,0.0846 -1.082,0.12027 -0.265,0.0356 -1.185,0.5926 -2.045,1.23771 -1.61,1.20737 -2.067,2.43524 -0.907,2.43524 0.361,0 1.183,0.4144 1.827,0.92088 0.645,0.50648 1.81,0.99358 2.592,1.08245 1.291,0.14691 1.469,-0.0131 1.967,-1.76278 0.301,-1.0584 0.921,-2.64473 1.377,-3.52517 z m 18.4,-2.3106 c 1.372,-1.03905 1.558,-1.45191 1.552,-3.44544 0,-1.24572 0.05,-3.67213 0.126,-5.39203 0.131,-3.09109 0.117,-3.12883 -1.191,-3.27931 -0.831,-0.0956 -1.323,-0.43967 -1.323,-0.9243 0,-1.90201 -2.862,-3.33607 -3.706,-1.8567 -0.902,1.58201 -5.469,6.05095 -6.952,6.80258 -2.272,1.15134 -3.273,2.12634 -2.977,2.89889 0.14,0.36533 -0.217,1.42745 -0.793,2.36029 -0.997,1.61182 -1.005,1.71153 -0.167,2.00759 0.484,0.17135 1.639,0.63978 2.565,1.04095 4.112,1.78093 10.371,1.67754 12.866,-0.21252 z m -14.552,-1.62452 c -0.165,-0.26647 0.02,-0.60832 0.418,-0.75968 1.073,-0.41192 2.85,-0.0406 3.075,0.64281 0.243,0.7374 -3.042,0.8473 -3.493,0.11687 z m 2.769,-1.2774 c -1.27,-0.51223 -0.521,-1.17593 1.165,-1.03342 2.123,0.17934 2.848,1.37112 0.8,1.31406 -0.75,-0.0209 -1.634,-0.14718 -1.965,-0.28064 z m -0.01,-2.24915 c -1.472,-0.81699 -0.871,-1.28095 1.659,-1.28095 2.283,0 2.961,1.09631 1.002,1.62114 -1.394,0.37344 -1.37,0.3764 -2.661,-0.34019 z m -5.316,2.25266 c 1.053,-0.95309 1.161,-2.97491 0.178,-3.35188 -0.754,-0.28956 -4.591,1.21481 -4.591,1.8003 0,0.4805 2.413,2.34778 3.034,2.34778 0.274,0 0.895,-0.35829 1.379,-0.7962 z m 3.664,-5.30257 c 1.835,-1.13379 5.396,-4.57904 5.396,-5.22157 0,-0.29482 0.658,-1.75126 1.463,-3.23653 1.405,-2.59447 1.435,-2.76782 0.746,-4.41524 -0.394,-0.94311 -1.057,-1.71475 -1.473,-1.71475 -0.416,0 -0.988,-0.5075 -1.271,-1.12778 -0.385,-0.84525 -0.803,-1.07253 -1.668,-0.90724 -0.765,0.14638 -1.254,-0.0406 -1.451,-0.55603 -0.164,-0.42712 -0.79,-0.77658 -1.391,-0.77658 -0.601,0 -1.362,-0.32473 -1.692,-0.72163 -0.329,-0.3969 -0.9,-0.72164 -1.268,-0.72164 -0.368,0 -1.089,-0.26198 -1.602,-0.58219 -1.407,-0.87884 -3.499,0.0372 -4.095,1.79349 -0.268,0.78908 -0.732,1.65119 -1.031,1.91579 -0.298,0.2646 -0.805,1.87032 -1.125,3.56826 -0.738,3.91364 -0.09,6.53541 2.157,8.71203 l 1.598,1.54847 1.442,-1.02679 c 0.794,-0.56473 1.949,-1.62905 2.569,-2.36515 1.372,-1.63041 2.318,-2.26051 2.318,-1.54445 0,0.78774 -4.358,5.29977 -5.119,5.29977 -0.759,0 -0.821,0.43605 -0.203,1.41262 0.351,0.55528 0.955,0.24823 3.076,-1.56354 2.345,-2.00289 3.689,-2.73623 3.689,-2.01273 0,0.13299 -0.869,1.02703 -1.932,1.98677 -1.522,1.37495 -1.815,1.88475 -1.384,2.40419 0.685,0.825 0.675,0.82565 2.251,-0.14755 z m -6.283,-5.8082 c 0.175,-0.46305 0.6,-1.38314 0.944,-2.04463 0.343,-0.6615 0.625,-1.51664 0.627,-1.90031 0,-0.51306 0.145,-0.55568 0.54,-0.1611 0.689,0.68898 -0.852,4.94794 -1.79,4.94794 -0.412,0 -0.527,-0.30121 -0.321,-0.8419 z"
         id="path1" /></g></g></svg>
