<?xml version="1.0" encoding="UTF-8" standalone="no"?>
<!-- Created with Inkscape (http://www.inkscape.org/) -->

<svg
   width="231.38646"
   height="235.24007"
   viewBox="0 0 61.221 62.240601"
   version="1.1"
   id="svg1"
   xml:space="preserve"
   xmlns="http://www.w3.org/2000/svg"
   xmlns:svg="http://www.w3.org/2000/svg"><defs
     id="defs1" /><g
     id="g2047"
     transform="matrix(0.26458333,0,0,0.26458333,-5299.2671,-10.12824)"><g
       id="g2188"
       transform="translate(-1397.3268,-279.16667)"><g
         id="g2206"
         transform="translate(-230.90067,-279.16666)"><path
           style="fill:#000000"
           d="m 21771.118,791.31334 c -0.169,-0.16894 -7.634,-0.82413 -9.932,-0.87165 -0.983,-0.0203 -1.938,-0.24921 -2.123,-0.50862 -0.343,-0.47982 -1.66,-0.74634 -3.994,-0.80837 -0.714,-0.019 -1.298,-0.21626 -1.298,-0.43844 0,-0.22218 -0.478,-0.40872 -1.062,-0.41453 -0.584,-0.006 -2.336,-0.63778 -3.893,-1.40438 -1.557,-0.7666 -3.097,-1.39857 -3.421,-1.40438 -0.325,-0.006 -0.59,-0.28163 -0.59,-0.61293 0,-0.3313 -0.623,-1.28392 -1.384,-2.11694 -0.974,-1.06608 -1.341,-1.90029 -1.237,-2.8171 0.08,-0.71638 -0.03,-1.63265 -0.235,-2.03615 -0.21,-0.40349 -0.461,-1.57577 -0.557,-2.60506 -0.1,-1.02928 -0.312,-2.094 -0.48,-2.36603 -0.168,-0.27203 -0.359,-1.39497 -0.424,-2.49543 -0.07,-1.10045 -0.248,-2.08095 -0.407,-2.17888 -0.158,-0.0979 -0.34,-1.19364 -0.405,-2.43492 -0.06,-1.24127 -0.287,-2.36793 -0.494,-2.50367 -0.208,-0.13574 -0.321,-0.61739 -0.251,-1.07032 0.07,-0.45293 -0.05,-0.93069 -0.259,-1.06168 -0.212,-0.131 -0.275,-0.65927 -0.14,-1.17395 0.134,-0.51468 0.09,-1.31038 -0.105,-1.76822 -0.193,-0.45784 -0.41,-1.25692 -0.483,-1.77573 -0.213,-1.50602 -0.451,-2.31133 -0.894,-3.02068 -0.3,-0.48127 -0.244,-0.55808 0.204,-0.28087 0.449,0.27722 0.505,0.20041 0.205,-0.28086 -0.228,-0.36434 -0.476,-0.9808 -0.551,-1.36991 -0.386,-1.98628 -0.716,-4.09813 -0.756,-4.83441 -0.02,-0.45396 -0.157,-0.82566 -0.296,-0.826 -0.298,-7.3e-4 -0.598,-3.99358 -0.672,-8.96072 -0.03,-1.94556 -0.265,-3.69331 -0.525,-3.88389 -0.299,-0.21961 -0.271,-0.34916 0.08,-0.35374 0.609,-0.008 0.589,-0.83476 -0.04,-1.84878 -0.308,-0.49352 -0.245,-0.56064 0.249,-0.2632 0.558,0.33599 0.563,0.27677 0.04,-0.3738 -0.345,-0.42518 -0.573,-1.26183 -0.507,-1.85923 0.07,-0.5974 -0.03,-2.14739 -0.217,-3.44443 -0.751,-5.25328 -0.794,-6.83874 -0.186,-6.84614 0.434,-0.005 0.419,-0.11735 -0.06,-0.41863 -0.505,-0.31963 -0.682,-2.36885 -0.795,-9.18484 -0.08,-4.82539 -0.283,-8.99727 -0.452,-9.27084 -0.169,-0.27358 -0.02,-0.84722 0.323,-1.27476 0.449,-0.55431 0.461,-0.67572 0.04,-0.42316 -0.4,0.24023 -0.606,0.004 -0.64,-0.73485 -0.03,-0.59897 -0.119,-2.6522 -0.203,-4.56273 -0.08,-1.91053 -0.41,-4.98805 -0.727,-6.83892 -0.316,-1.85088 -0.654,-4.42644 -0.752,-5.72348 -0.1,-1.29703 -0.225,-2.99497 -0.284,-3.77319 -0.06,-0.77822 -0.319,-1.57088 -0.579,-1.76147 -0.288,-0.21162 -0.231,-0.34932 0.146,-0.35373 0.381,-0.004 0.472,-0.23317 0.239,-0.59679 -0.208,-0.32426 -0.401,-1.01404 -0.428,-1.53286 -0.03,-0.51881 -0.214,-2.11063 -0.415,-3.53737 -0.394,-2.79118 -0.645,-6.50348 -0.671,-9.90464 -0.03,-3.34701 0.05,-3.97021 0.538,-4.59257 0.253,-0.32096 0.337,-0.90463 0.187,-1.29704 -0.161,-0.41913 -0.01,-0.71348 0.361,-0.71348 0.349,0 0.9,-0.31836 1.223,-0.70748 0.323,-0.38911 0.986,-0.70747 1.473,-0.70747 0.488,0 0.861,-0.15918 0.83,-0.35374 -0.176,-1.1149 0.2,-1.53286 1.378,-1.53286 0.726,0 1.523,-0.19488 1.769,-0.43306 0.365,-0.3523 4.295,-0.87833 7.201,-0.96373 0.34,-0.01 0.487,-0.22934 0.327,-0.48744 -0.175,-0.28318 0.516,-0.47205 1.742,-0.47625 1.118,-0.004 2.457,-0.0102 2.976,-0.0142 0.519,-0.004 1.673,-0.24352 2.564,-0.53232 0.892,-0.2888 3.109,-0.50976 4.927,-0.49101 1.818,0.0188 3.716,-0.18529 4.217,-0.45343 0.652,-0.34873 0.82,-0.33985 0.591,0.0312 -0.179,0.28912 0,0.51871 0.387,0.51871 0.389,0 0.845,-0.22255 1.013,-0.49456 0.212,-0.34205 0.498,-0.33499 0.93,0.0229 0.398,0.33018 0.727,0.35012 0.91,0.0551 0.339,-0.54809 4.988,-0.4636 4.989,0.0906 0,0.20987 0.265,0.21584 0.59,0.0133 0.886,-0.55374 1.769,-0.60397 1.769,-0.10069 0,0.26773 0.363,0.25253 0.906,-0.038 0.66,-0.35296 0.959,-0.32545 1.103,0.10132 0.157,0.46647 0.342,0.46654 0.907,3.2e-4 0.391,-0.32201 0.807,-0.4885 0.926,-0.36999 0.457,0.4572 3.712,0.6244 3.972,0.20405 0.15,-0.2437 0.514,-0.29498 0.807,-0.11394 0.755,0.46685 9.785,0.54247 9.499,0.0795 -0.13,-0.21039 0.09,-0.2587 0.481,-0.10736 0.394,0.15134 0.671,0.50471 0.614,0.78528 -0.1,0.46947 2.337,0.71501 7.829,0.79061 0.989,0.0136 1.686,0.20569 1.549,0.42684 -0.246,0.39759 6.222,1.01285 10.647,1.01285 1.706,0 2.287,0.17769 2.287,0.69849 0,0.38417 0.53,0.8313 1.177,0.99361 0.647,0.16232 1.059,0.48473 0.916,0.71646 -0.143,0.23174 0.23,0.426 0.829,0.4317 1.4,0.0133 5.101,1.68449 5.101,2.30346 0,0.26033 0.752,0.61443 1.672,0.78687 0.921,0.17274 1.593,0.55109 1.496,0.84255 -0.1,0.29095 0.113,0.81857 0.467,1.17248 0.852,0.8517 0.364,2.40962 -1.155,3.68698 -0.76,0.63907 -1.269,1.6086 -1.361,2.59407 -0.08,0.86547 -0.261,2.21032 -0.399,2.98854 -0.139,0.77822 -0.364,3.21901 -0.501,5.42397 -0.38,6.10774 -0.541,7.74494 -0.861,8.7542 -0.162,0.50918 -0.381,1.56 -0.488,2.33515 -0.107,0.77515 -0.314,2.15221 -0.462,3.06013 -0.147,0.90793 -0.378,3.24259 -0.512,5.18815 -0.135,1.94555 -0.363,4.1741 -0.507,4.95232 -0.144,0.77822 -0.254,1.90842 -0.244,2.51156 0.01,0.60314 -0.189,1.48512 -0.444,1.95996 -0.254,0.47484 -0.573,2.42215 -0.709,4.32735 -0.548,7.67236 -0.661,8.75268 -1.177,11.24623 -0.295,1.42674 -0.625,3.7614 -0.733,5.18814 -0.167,2.19318 -0.882,7.88541 -1.303,10.37629 -0.07,0.38911 -0.244,0.91972 -0.396,1.17913 -0.151,0.2594 -0.233,1.69204 -0.181,3.18363 0.05,1.49159 -0.107,2.71199 -0.352,2.71199 -0.245,0 -0.319,0.32939 -0.164,0.73199 0.154,0.4026 0.05,2.1536 -0.237,3.89111 -0.284,1.73751 -0.593,4.61396 -0.685,6.39211 -0.09,1.77815 -0.36,3.47609 -0.594,3.7732 -0.418,0.53232 -1.089,4.0007 -1.085,5.61043 0,0.45813 -0.352,0.8286 -0.794,0.8326 -0.483,0.004 -0.598,0.1436 -0.293,0.35374 0.56,0.38487 0.551,1.86275 -0.03,4.35554 -0.21,0.90792 -0.411,2.11815 -0.446,2.68938 -0.03,0.57124 -0.201,1.17673 -0.37,1.34553 -0.169,0.16881 -0.138,0.76265 0.07,1.31964 0.207,0.55699 0.317,1.33108 0.244,1.72019 -0.07,0.38911 -0.274,1.55644 -0.446,2.59407 -0.173,1.03763 -0.508,2.08823 -0.746,2.33467 -0.238,0.24643 -0.432,0.93622 -0.432,1.53286 0,1.28362 0.01,1.28091 -1.716,0.38022 -0.743,-0.38751 -1.166,-0.70587 -0.94,-0.70747 0.227,-0.002 0.147,-0.32127 -0.176,-0.71038 -0.323,-0.38911 -1.039,-0.71073 -1.591,-0.7147 -0.671,-0.005 -0.81,-0.13045 -0.419,-0.37862 0.39,-0.2473 0.01,-0.57887 -1.133,-0.99227 -0.945,-0.34147 -2.163,-1.12894 -2.708,-1.74993 -0.854,-0.97301 -1.556,-1.16867 -5.077,-1.41555 -3.086,-0.21631 -4.299,-0.12817 -4.955,0.35987 -0.991,0.73674 -1.351,1.82548 -0.605,1.82548 0.275,0 0.368,0.21224 0.208,0.47165 -0.185,0.29831 1,0.47165 3.225,0.47165 2.614,0 3.583,0.1731 3.775,0.67445 0.143,0.37095 1.205,0.81626 2.362,0.98958 1.935,0.28998 2.542,0.98078 1.648,1.87448 -0.587,0.58613 -2.222,0.63114 -2,0.0551 0.466,-1.21581 -2.655,-2.08349 -7.74,-2.15145 -1.23,-0.0164 -1.918,-0.21363 -1.742,-0.49883 0.16,-0.2594 -0.04,-0.47164 -0.444,-0.47164 -0.405,0 -0.736,0.31836 -0.736,0.70747 0,0.38911 -0.314,0.70747 -0.699,0.70747 -0.384,0 -0.832,0.53061 -0.995,1.17913 -0.163,0.64852 -0.644,1.19536 -1.07,1.21521 -1.515,0.0705 -2.491,0.36901 -3.615,1.10491 -0.626,0.41008 -1.411,0.74691 -1.745,0.7485 -0.333,0.002 -1.214,0.31996 -1.958,0.70747 -1.347,0.70214 -5.251,1.25845 -5.698,0.8119 -0.129,-0.12923 -1.021,-0.30548 -1.982,-0.39165 -0.961,-0.0862 -1.87,-0.34372 -2.02,-0.57232 -0.256,-0.38828 -0.999,-0.53668 -2.977,-0.59457 -0.449,-0.0131 -0.767,-0.25829 -0.708,-0.5448 0.06,-0.28652 -0.317,-0.75619 -0.836,-1.04373 -0.519,-0.28753 -1.013,-0.83549 -1.097,-1.21768 -0.08,-0.38219 -0.363,-0.77021 -0.62,-0.86227 -0.257,-0.0921 -0.667,-0.69297 -0.912,-1.33537 -0.426,-1.12002 -1.743,-1.3018 -1.5,-0.20698 0.06,0.29183 -0.307,0.5306 -0.826,0.5306 -0.519,0 -0.944,-0.23823 -0.944,-0.5294 0,-0.37088 -0.207,-0.35733 -0.692,0.0453 -0.381,0.31606 -1.709,0.67625 -2.95,0.80041 -1.241,0.12417 -2.575,0.53975 -2.964,0.92353 -0.628,0.61928 -0.616,0.66287 0.114,0.38753 0.521,-0.19661 0.923,-0.0461 1.099,0.41095 0.153,0.39906 1.156,0.86806 2.245,1.04999 1.083,0.18084 2.08,0.50364 2.217,0.71733 0.212,0.33232 1.106,0.57237 4.069,1.09283 0.298,0.0524 0.849,0.3494 1.223,0.66004 0.375,0.31063 0.794,0.45163 0.933,0.31332 0.138,-0.1383 1.099,0.0875 2.135,0.50189 1.596,0.63813 3.608,0.72299 13.154,0.55484 13.297,-0.2342 17.311,-0.51312 17.546,-1.21917 0.1,-0.28798 0.652,-0.39962 1.246,-0.25045 0.647,0.16221 1.359,-0.0166 1.793,-0.45 0.396,-0.39552 0.823,-0.61575 0.949,-0.4894 0.127,0.12635 1.161,-0.003 2.298,-0.28703 1.137,-0.28421 2.342,-0.53919 2.678,-0.56662 0.335,-0.0274 0.501,-0.33286 0.369,-0.67873 -0.256,-0.66706 0.744,-0.87219 1.341,-0.27513 0.195,0.19455 0.548,0.38027 0.786,0.41269 0.238,0.0324 0.618,0.0855 0.843,0.11791 0.555,0.0797 0.416,2.09437 -0.174,2.5279 -0.284,0.20871 -0.214,0.34939 0.176,0.35374 0.473,0.005 0.512,0.16994 0.144,0.61283 -0.65,0.78365 -0.437,2.18649 0.413,2.71133 0.536,0.33142 0.398,0.69162 -0.712,1.84888 -1.068,1.11437 -1.785,1.43727 -3.193,1.43727 -0.999,0 -2.338,0.34155 -2.975,0.75899 -0.638,0.41745 -2.261,0.83756 -3.607,0.93358 -1.346,0.096 -2.586,0.39809 -2.755,0.67127 -0.169,0.27318 -1.14,0.58369 -2.157,0.69002 -1.018,0.10634 -1.851,0.22325 -1.851,0.25982 0,0.42784 -18.34,1.07394 -18.753,0.66066 z m 12.501,-1.92846 c -0.325,-0.13084 -0.856,-0.13084 -1.18,0 -0.324,0.13084 -0.06,0.2379 0.59,0.2379 0.649,0 0.914,-0.10706 0.59,-0.2379 z m 2.005,-0.15928 c 0.161,-0.25941 0.07,-0.47165 -0.208,-0.47165 -0.275,0 -0.5,0.21224 -0.5,0.47165 0,0.25941 0.09,0.47165 0.209,0.47165 0.114,0 0.339,-0.21224 0.499,-0.47165 z m 3.775,-1.25882 c 0.52,-0.0473 2.749,-0.23237 4.955,-0.4113 2.207,-0.17892 4.122,-0.49979 4.257,-0.71304 0.37,-0.58401 2.728,-1.39004 4.066,-1.39004 1.271,0 2.816,-1.18354 2.112,-1.61819 -0.243,-0.14984 -0.261,-0.99553 -0.04,-1.96175 l 0.383,-1.69836 -1.73,0.32032 c -0.952,0.17617 -1.801,0.51614 -1.888,0.75549 -0.09,0.23934 -0.3,0.34895 -0.472,0.24356 -0.173,-0.10538 -1.8,-0.007 -3.617,0.21786 -1.817,0.22521 -4.469,0.54002 -5.893,0.69958 -1.424,0.15957 -2.9,0.46352 -3.279,0.67544 -0.378,0.21193 -1.19,0.1949 -1.802,-0.0378 -0.613,-0.23273 -1.003,-0.24347 -0.867,-0.0239 0.136,0.21961 -0.754,0.41457 -1.978,0.43325 -1.224,0.0187 -4.668,0.1147 -7.653,0.21339 -2.984,0.0987 -5.633,0.0737 -5.885,-0.0556 -0.253,-0.12928 -1.291,-0.17505 -2.307,-0.10171 -1.154,0.0833 -1.997,-0.10319 -2.247,-0.49698 -0.303,-0.47674 -0.402,-0.48569 -0.407,-0.0367 0,0.42707 -0.239,0.46362 -0.833,0.13032 -1.265,-0.70928 -5.665,-1.86191 -5.965,-1.56237 -0.146,0.14599 -0.536,0.0475 -0.866,-0.21896 -0.331,-0.26642 -1.292,-0.63189 -2.135,-0.81216 -0.844,-0.18027 -1.534,-0.54585 -1.534,-0.8124 0,-0.26655 -0.291,-0.3731 -0.646,-0.23678 -0.356,0.13632 -1.313,-0.15705 -2.127,-0.65193 -0.814,-0.49487 -2.328,-1.03531 -3.365,-1.20097 -1.036,-0.16565 -1.886,-0.53937 -1.888,-0.83047 0,-0.29111 -0.526,-0.77142 -1.165,-1.06737 -0.943,-0.43726 -1.274,-0.39819 -1.766,0.20845 -0.463,0.57223 -0.467,0.66384 -0.01,0.39234 0.381,-0.22854 0.609,-0.0515 0.645,0.49902 0.06,0.88567 0.18,1.54443 0.404,2.15026 0.216,0.58339 0.364,1.25891 0.426,1.9495 0.03,0.35886 0.484,0.76347 1.003,0.89915 0.519,0.13567 0.944,0.58734 0.944,1.00371 0,0.74413 5.401,3.57612 6.82,3.57612 0.365,0 0.943,0.2653 1.286,0.58956 0.343,0.32426 2.004,0.67474 3.691,0.77884 5.606,0.34592 20.764,0.39883 20.764,0.0725 0,-0.17672 1.008,-0.36252 2.241,-0.4129 1.233,-0.0504 3.052,-0.21724 4.043,-0.37081 1.554,-0.24078 1.837,-0.14366 2.06,0.70564 0.155,0.5936 0.47,0.84767 0.793,0.63954 0.295,-0.18991 0.961,-0.38398 1.48,-0.43126 z m -10.696,-11.07704 c 0.09,-0.21927 0.577,-0.39868 1.09,-0.39868 0.512,0 0.801,-0.21224 0.64,-0.47165 -0.16,-0.2594 -0.01,-0.50397 0.326,-0.54349 0.34,-0.0395 0.831,-0.12115 1.09,-0.18142 0.26,-0.0603 0.868,-0.13406 1.353,-0.16398 0.647,-0.04 0.813,-0.31138 0.627,-1.02472 -0.185,-0.70618 0.05,-1.11012 0.874,-1.48391 0.62,-0.28249 1.025,-0.68015 0.899,-0.8837 -0.126,-0.20355 -0.01,-0.5034 0.251,-0.66634 0.794,-0.491 0.54,-1.18388 -0.435,-1.18388 -0.613,0 -0.892,-0.30057 -0.846,-0.91062 0.04,-0.50085 0.221,-0.81652 0.407,-0.70149 0.186,0.11503 0.847,-0.0225 1.469,-0.3056 0.881,-0.40113 1.111,-0.84492 1.045,-2.01051 -0.05,-0.82266 0.151,-1.80179 0.439,-2.17585 0.399,-0.51798 0.383,-0.59567 -0.07,-0.3259 -0.325,0.19481 -0.593,0.18249 -0.597,-0.0274 0,-0.20986 -0.143,-0.8923 -0.31,-1.51653 -0.215,-0.80373 -0.142,-1.03511 0.25,-0.7928 0.305,0.18819 0.412,0.57254 0.238,0.8541 -0.203,0.32815 -0.09,0.37406 0.305,0.12789 0.468,-0.28921 0.255,-0.71121 -0.862,-1.70885 -1.011,-0.90293 -1.386,-1.57944 -1.176,-2.12444 0.207,-0.54065 0.128,-0.68919 -0.245,-0.45862 -0.304,0.18757 -0.553,0.16716 -0.553,-0.0454 0,-0.21251 -0.584,-1.01676 -1.297,-1.7872 -0.714,-0.77045 -1.254,-1.53585 -1.201,-1.7009 0.323,-0.99927 -7.284,-3.09487 -9.597,-2.64357 -0.744,0.14537 -1.778,0.33236 -2.298,0.41554 -0.933,0.1496 -1.63,0.76329 -1.644,1.44827 0,0.19456 0.152,0.3286 0.347,0.29788 2.174,-0.34314 2.726,0.87866 0.59,1.30573 -0.779,0.15564 -1.416,0.57482 -1.416,0.93151 0,0.35668 -0.273,0.64851 -0.608,0.64851 -0.334,0 -0.639,0.42908 -0.679,0.9535 -0.04,0.52442 0.1,0.84958 0.302,0.72258 0.206,-0.127 0.777,0.0655 1.269,0.42777 0.875,0.64385 0.874,0.66561 -0.05,0.96656 -2.327,0.75916 -3.046,1.19552 -3.565,2.16588 -0.486,0.90806 -0.453,0.99866 0.266,0.72282 0.772,-0.29616 0.775,-0.24304 0.04,0.87178 -0.428,0.65293 -0.72,1.20339 -0.649,1.22324 0.955,0.26746 1.743,0.28494 1.71,0.038 -0.162,-1.21859 0.192,-1.96063 0.935,-1.96063 1.128,0 1.591,0.48929 1.077,1.13572 -0.989,1.2421 -1.046,2.55878 -0.122,2.85167 0.935,0.29669 0.924,1.71193 -0.02,2.92745 -0.258,0.33097 -0.244,0.6605 0.03,0.83308 0.255,0.15703 0.596,0.0698 0.759,-0.19384 0.163,-0.26364 0.655,-0.47609 1.094,-0.47212 0.562,0.005 0.627,0.11575 0.22,0.37436 -0.318,0.20192 -0.636,0.88846 -0.708,1.52563 -0.111,0.99892 0.04,1.14068 1.128,1.02906 1.092,-0.11243 1.24,0.0272 1.127,1.06121 -0.107,0.97401 0.07,1.19066 0.984,1.19066 0.806,0 1.115,0.26541 1.115,0.9585 0,0.55662 0.445,1.13247 1.061,1.37343 1.145,0.44712 3.323,0.13168 3.579,-0.5183 z m -5.823,-0.39328 c 0.165,-0.26735 -0.02,-0.34643 -0.444,-0.18536 -0.818,0.31355 -0.968,0.65161 -0.289,0.65161 0.244,0 0.574,-0.20981 0.733,-0.46625 z m 33.744,-0.76365 c 0,-0.39035 -0.916,-0.61109 -1.127,-0.27135 -0.136,0.22041 0.06,0.40074 0.44,0.40074 0.378,0 0.687,-0.0582 0.687,-0.12939 z m -58.176,-1.56709 c 0.822,-0.88137 3.323,-1.33891 7.749,-1.41739 1.671,-0.0296 1.714,-0.0752 1.56,-1.66329 -0.09,-0.89805 -0.39,-2.06538 -0.673,-2.59407 -0.283,-0.52869 -0.375,-0.96125 -0.204,-0.96125 0.17,0 0.06,-0.29947 -0.243,-0.66548 -0.384,-0.46277 -0.399,-0.76004 -0.05,-0.97589 0.277,-0.17072 0.343,-0.56104 0.148,-0.86738 -0.195,-0.30633 -0.361,-0.87533 -0.369,-1.26444 0,-0.38911 -0.174,-0.95812 -0.368,-1.26445 -0.195,-0.30633 -0.148,-0.68456 0.104,-0.84049 0.253,-0.15594 0.34,-0.59509 0.193,-0.97589 -0.146,-0.3808 -0.03,-0.69237 0.257,-0.69237 0.287,0 0.522,-0.34956 0.522,-0.77681 0,-0.42725 0.758,-1.7007 1.684,-2.8299 0.925,-1.12919 1.509,-2.05954 1.297,-2.06743 -0.212,-0.008 -0.01,-0.23067 0.441,-0.49508 0.454,-0.26441 0.825,-0.78856 0.825,-1.16478 0,-0.37622 0.173,-0.68404 0.384,-0.68404 0.211,0 2.813,-0.33709 5.781,-0.74908 2.968,-0.41199 5.609,-0.7386 5.869,-0.7258 5.53,0.27283 11.182,1.75061 10.992,2.87388 -0.07,0.42251 0.558,1.44104 1.4,2.26339 0.842,0.82235 1.599,1.944 1.682,2.49256 0.08,0.54855 0.389,1.14307 0.677,1.32115 0.288,0.17808 0.596,0.85042 0.685,1.49407 0.09,0.64366 0.308,1.40546 0.489,1.69289 0.181,0.28742 0.229,1.48737 0.107,2.66655 l -0.221,2.14396 2.24,0.23013 c 3.692,0.37925 4.739,0.63222 5.98,1.44451 0.65,0.42596 1.618,0.77447 2.151,0.77447 0.533,0 1.742,0.79591 2.687,1.76868 0.946,0.97278 1.738,1.70193 1.762,1.62033 0.02,-0.0816 0.413,-0.006 0.866,0.16734 0.452,0.17363 0.688,0.53323 0.524,0.7991 -0.165,0.26588 -0.06,0.40282 0.238,0.30432 0.296,-0.0985 0.556,-0.39134 0.578,-0.65075 0.02,-0.25941 0.203,-0.68389 0.403,-0.9433 0.199,-0.25941 0.327,-1.42674 0.284,-2.59407 -0.04,-1.16733 0.148,-2.42847 0.423,-2.80252 0.39,-0.52925 0.355,-0.59155 -0.161,-0.28087 -0.493,0.29714 -0.558,0.22984 -0.252,-0.2632 0.226,-0.36434 0.42,-1.08692 0.43,-1.60573 0.01,-0.51882 0.21,-1.2414 0.443,-1.60574 0.317,-0.49547 0.256,-0.56181 -0.239,-0.2632 -0.563,0.33875 -0.562,0.27455 0,-0.42377 0.368,-0.45265 0.733,-1.71379 0.811,-2.80252 0.156,-2.1826 0.458,-4.27276 0.643,-4.45567 0.07,-0.0648 0.156,-0.38322 0.2,-0.70748 0.04,-0.32426 0.383,-0.5208 0.753,-0.43675 0.495,0.11218 0.449,-0.0948 -0.17,-0.77857 -0.549,-0.60668 -0.668,-1.0396 -0.34,-1.24185 0.276,-0.17076 0.502,-0.73497 0.502,-1.25378 0,-0.51882 0.194,-0.82364 0.431,-0.67739 0.487,0.30113 0.427,-0.6353 -0.1,-1.46925 -0.189,-0.30335 0,-0.88701 0.401,-1.29704 0.68,-0.67956 0.678,-0.7455 -0.02,-0.7455 -0.457,0 -0.634,-0.21886 -0.436,-0.53949 0.371,-0.60043 0.778,-2.96194 0.761,-4.41283 -0.02,-1.58649 0.385,-3.11661 0.761,-2.88381 0.197,0.12127 0.357,-0.17283 0.357,-0.65356 0,-0.48072 -0.166,-0.77098 -0.37,-0.64501 -0.601,0.37125 -0.424,-0.9961 0.219,-1.6881 0.477,-0.51433 0.462,-0.56242 -0.08,-0.25278 -0.505,0.28795 -0.592,0.17902 -0.354,-0.44103 0.174,-0.45288 0.316,-1.13695 0.316,-1.52016 0,-0.43186 0.224,-0.56208 0.59,-0.34253 0.442,0.26567 0.464,0.18421 0.09,-0.32591 -0.415,-0.56293 -0.569,-2.4873 -0.234,-2.92043 0.1,-0.12769 0.519,-3.63223 0.665,-5.54188 0.05,-0.64852 0.341,-1.62416 0.648,-2.16808 0.342,-0.60732 0.388,-1.15767 0.12,-1.42614 -0.269,-0.26847 -0.191,-0.9123 0.201,-1.66839 0.37,-0.71289 0.476,-1.49576 0.251,-1.8596 -0.219,-0.35435 -0.169,-0.89236 0.114,-1.23375 0.277,-0.33296 0.358,-0.60538 0.181,-0.60538 -0.177,0 -0.175,-0.23653 0,-0.52561 0.309,-0.50084 0.474,-2.14263 0.715,-7.1387 0.06,-1.23218 0.234,-2.24033 0.388,-2.24033 0.153,0 0.298,-1.00815 0.32,-2.24034 0.04,-2.13339 0.251,-3.79952 0.883,-6.95683 0.156,-0.77822 0.312,-1.68025 0.348,-2.00451 0.04,-0.32426 0.249,-0.58956 0.475,-0.58956 0.225,0 0.189,-0.4116 -0.08,-0.91467 -0.309,-0.57632 -0.322,-1.01809 -0.04,-1.19423 0.249,-0.15376 0.319,-0.62594 0.157,-1.0493 -0.17,-0.44147 -0.101,-0.64916 0.162,-0.487 0.252,0.1555 0.458,-0.23417 0.458,-0.86593 0,-0.63177 -0.164,-1.14866 -0.363,-1.14866 -0.2,0 -0.256,-0.27763 -0.126,-0.61696 0.13,-0.33932 0.317,-1.77196 0.414,-3.18363 0.1,-1.41167 0.213,-2.56668 0.256,-2.56668 0.04,0 0.172,-0.51395 0.288,-1.14211 0.115,-0.62816 0.429,-1.40517 0.695,-1.72669 0.335,-0.40324 0.325,-0.6838 -0.03,-0.9044 -0.365,-0.22586 -0.338,-0.54189 0.09,-1.07582 0.518,-0.63884 0.503,-0.6914 -0.09,-0.33912 -0.598,0.35227 -0.613,0.29971 -0.1,-0.33913 0.345,-0.42597 0.424,-0.87287 0.18,-1.02368 -0.243,-0.1497 -0.281,-1.10354 -0.09,-2.16441 0.236,-1.28727 0.178,-1.89907 -0.179,-1.90398 -0.353,-0.005 -0.34,-0.12594 0.04,-0.36762 0.751,-0.47732 1.126,-3.86762 0.429,-3.87722 -0.372,-0.005 -0.367,-0.10832 0.02,-0.35374 0.474,-0.30401 1.289,-5.29883 0.865,-5.29883 -0.09,0 -0.715,0.20969 -1.39,0.46598 -0.674,0.25629 -3.751,0.58485 -6.837,0.73014 -3.087,0.1453 -6.269,0.45257 -7.072,0.68283 -0.9,0.25779 -1.356,0.24908 -1.188,-0.0227 0.362,-0.5854 -0.1,-0.55766 -1.286,0.0774 -0.705,0.37717 -0.883,0.37717 -0.649,0 0.176,-0.28529 0.108,-0.5187 -0.151,-0.5187 -0.26,0 -0.604,0.21302 -0.765,0.47338 -0.161,0.26036 -0.846,0.33471 -1.521,0.16523 -1.012,-0.25384 -1.176,-0.17101 -0.93,0.46991 0.229,0.59653 0.02,0.77807 -0.894,0.77807 -0.747,0 -1.073,-0.19378 -0.872,-0.5187 0.212,-0.34237 -0.04,-0.32588 -0.74,0.0485 -0.791,0.42345 -1.352,0.43447 -2.21,0.0435 -0.7,-0.31885 -1.035,-0.33784 -0.857,-0.0485 0.382,0.61763 -0.06,0.60252 -1.265,-0.0435 -0.533,-0.28529 -0.846,-0.31899 -0.695,-0.0749 0.156,0.25257 -0.62,0.43568 -1.801,0.42495 -1.141,-0.0104 -1.957,-0.2101 -1.812,-0.44382 0.144,-0.23372 -0.178,-0.18944 -0.716,0.0984 -1.168,0.62469 -5.352,0.55683 -4.958,-0.0804 0.151,-0.24363 -0.162,-0.20954 -0.696,0.0758 -1.282,0.68592 -3.55,0.68592 -3.126,0 0.231,-0.37356 0.05,-0.37226 -0.658,0.005 -1.443,0.77225 -5.216,0.51747 -5.753,-0.38855 -0.38,-0.64107 -0.507,-0.65123 -0.888,-0.071 -0.368,0.56114 -0.572,0.57145 -1.188,0.0602 -0.409,-0.33934 -0.744,-0.40359 -0.744,-0.14278 0,0.56828 -2.321,0.50467 -3.263,-0.0894 -0.819,-0.51631 -1.754,-0.60013 -10.597,-0.94963 -3.86,-0.15254 -7.174,-0.37405 -7.365,-0.49225 -0.192,-0.1182 -2.202,-0.24646 -4.467,-0.28502 -3.555,-0.0605 -4.091,-0.17538 -3.918,-0.8391 0.157,-0.59772 -0.202,-0.79777 -1.61,-0.89823 -0.996,-0.0711 -2.335,-0.32827 -2.975,-0.57154 -0.783,-0.29736 -1.269,-0.2738 -1.482,0.0719 -0.209,0.33745 -0.466,0.2502 -0.748,-0.25385 -0.237,-0.42242 -0.898,-0.76479 -1.469,-0.76082 -0.604,0.004 -0.819,0.15222 -0.515,0.35374 0.306,0.20285 0.468,1.41652 0.391,2.92732 -0.07,1.41945 0,2.7913 0.157,3.04856 0.159,0.25726 0.339,1.53668 0.401,2.84316 0.115,2.44773 0.41,5.6366 0.941,10.15763 0.168,1.42674 0.369,3.65528 0.446,4.95232 0.08,1.29703 0.171,2.35825 0.207,2.35825 0.141,0 0.519,3.42359 0.611,5.54137 0.05,1.2319 0.231,2.24005 0.393,2.24033 0.162,2.8e-4 0.302,0.90254 0.311,2.00502 0.06,7.71607 0.751,22.71119 1.237,27.00194 0.292,2.57454 0.75,8.27264 0.985,12.26288 0.534,9.04114 0.797,12.25571 1.034,12.63947 0.143,0.23123 0.343,1.26521 0.443,2.29773 0.101,1.03253 0.402,2.28584 0.669,2.78514 0.267,0.4993 0.378,0.90782 0.245,0.90782 -0.132,0 -0.02,0.58366 0.253,1.29703 0.272,0.71337 0.59,2.56089 0.707,4.10559 0.117,1.5447 0.474,2.97409 0.792,3.17641 0.319,0.20232 0.408,0.37111 0.198,0.37509 -0.21,0.004 -0.213,0.27252 0,0.59678 0.206,0.32426 0.404,1.59771 0.44,2.8299 0.04,1.23218 0.109,2.29339 0.162,2.35824 0.05,0.0649 0.173,0.43628 0.269,0.82539 0.1,0.38911 0.363,1.3442 0.595,2.12242 0.402,1.35347 0.436,1.36884 0.765,0.35374 0.215,-0.66214 0.732,-1.0675 1.375,-1.07792 1.185,-0.0192 3.389,-1.13369 3.389,-1.71376 0,-0.21558 0.171,-0.3351 0.379,-0.26562 0.209,0.0695 0.702,-0.19582 1.096,-0.58956 0.394,-0.39374 1.285,-0.73335 1.98,-0.75468 0.695,-0.0213 1.795,-0.12426 2.444,-0.22873 0.649,-0.10447 1.498,0.0121 1.888,0.25908 0.605,0.38429 0.554,0.60237 -0.354,1.51266 -0.584,0.58501 -1.062,0.80423 -1.062,0.48718 0,-0.31705 -0.437,-0.57646 -0.972,-0.57646 -0.534,0 -0.86,0.18073 -0.723,0.40162 0.24,0.38756 -2.714,1.48498 -3.997,1.48498 -0.835,0 -4.218,2.36221 -4.218,2.94517 0,0.25225 0.48,0.33834 1.066,0.19131 1.268,-0.31824 2.491,0.31631 2.034,1.05563 -0.518,0.83778 0.09,0.6066 1.015,-0.38601 z m -3.682,-18.30932 c -0.02,-0.19456 -0.128,-0.88435 -0.235,-1.53286 -0.459,-2.77057 -0.525,-7.10873 -0.112,-7.36364 0.251,-0.15487 0.09,-0.67057 -0.364,-1.17288 -0.447,-0.49306 -0.582,-0.89647 -0.3,-0.89647 0.331,0 0.385,-0.45924 0.154,-1.29704 -0.196,-0.71337 -0.321,-2.46437 -0.277,-3.89111 0.04,-1.42674 -0.124,-2.85937 -0.375,-3.18363 -0.297,-0.38493 -0.286,-0.58956 0.03,-0.58956 0.291,0 0.415,-0.86573 0.307,-2.14242 -0.128,-1.50636 -0.02,-2.04484 0.351,-1.81373 0.359,0.22222 0.398,0.1141 0.119,-0.33374 -0.545,-0.8748 -1.003,-5.74068 -1.306,-13.86862 -0.04,-1.03763 -0.284,-2.04578 -0.546,-2.24033 -0.319,-0.23702 -0.316,-0.47046 0.01,-0.70748 0.423,-0.30667 0.559,-1.29921 0.227,-1.65077 -0.06,-0.0648 -0.161,-1.073 -0.221,-2.24034 -0.06,-1.16733 -0.263,-4.24484 -0.451,-6.83891 -0.187,-2.59408 -0.352,-5.61853 -0.365,-6.72101 -0.01,-1.10248 -0.177,-2.00451 -0.363,-2.00451 -0.186,0 -0.311,-0.95509 -0.276,-2.12242 0.03,-1.19957 -0.153,-2.12557 -0.432,-2.12965 -0.338,-0.005 -0.34,-0.11639 0,-0.35373 0.412,-0.2931 0.555,-1.2377 0.249,-1.64356 -0.303,-0.40024 -0.195,-5.07033 0.117,-5.07028 0.21,3e-5 0.24,-0.22843 0.07,-0.50769 -0.172,-0.27926 -0.348,-1.2426 -0.39,-2.14076 -0.08,-1.67927 0.03,-1.76429 2.772,-2.23586 0.519,-0.0891 1.316,-0.32278 1.77,-0.51921 0.454,-0.19643 1.18,-0.22136 1.612,-0.0554 1.164,0.44612 0.159,1.21676 -1.817,1.39394 -0.912,0.0819 -1.86,0.2729 -2.106,0.42449 -0.55,0.34013 -0.503,15.44951 0.05,16.34623 0.436,0.70501 0.556,1.9364 0.964,9.93349 0.408,7.97107 0.579,10.61211 0.691,10.61211 0.122,0 0.534,11.11945 0.564,15.2107 0.01,1.88342 0.217,2.95041 0.562,2.95503 0.297,0.004 0.223,0.20763 -0.164,0.45257 -0.722,0.45583 -0.749,3.18053 -0.04,3.92191 0.429,0.4478 0.407,1.03161 0.681,-18.05954 0.121,-8.43073 0.253,-15.54085 0.293,-15.80026 0.09,-0.57915 -0.385,-9.06963 -0.679,-12.15927 -0.151,-1.57453 -0.06,-2.1572 0.307,-1.93163 0.326,0.20136 0.39,0.10653 0.168,-0.25184 -0.472,-0.76239 -0.764,-10.34471 -0.324,-10.61641 0.864,-0.534 1.269,0.72314 1.355,4.20658 0.21,8.48586 0.36,48.42089 0.183,48.59791 -0.105,0.10502 -0.243,1.62963 -0.306,3.38801 -0.06,1.75839 -0.249,4.04604 -0.414,5.08366 -0.165,1.03763 -0.362,2.78332 -0.438,3.87931 -0.08,1.096 -0.249,2.10396 -0.385,2.23992 -0.303,0.30323 -0.06,4.75716 0.322,5.97026 0.161,0.50419 0.05,0.88088 -0.251,0.88088 -0.293,0 -0.401,0.21224 -0.24,0.47164 0.16,0.25941 0.07,0.47165 -0.208,0.47165 -0.275,0 -0.518,-0.15918 -0.539,-0.35373 z m 50.507,-39.14691 c -0.121,-1.67979 0.123,-12.16408 0.286,-12.32729 0.539,-0.53855 0.765,0.69034 0.959,5.20732 0.115,2.6838 0.306,5.14494 0.424,5.4692 0.319,0.87631 -0.236,2.00451 -0.986,2.00451 -0.362,0 -0.669,-0.15918 -0.683,-0.35374 z m -8.252,-6.28074 c -0.508,-0.82135 0.07,-0.99529 0.717,-0.21584 0.373,0.44825 0.408,0.71887 0.09,0.71887 -0.276,0 -0.641,-0.22636 -0.812,-0.50303 z m -0.334,-3.03983 c -0.123,-0.6455 -0.06,-1.17363 0.133,-1.17363 0.196,0 0.189,-0.74398 -0.02,-1.65329 -0.208,-0.92162 -0.186,-1.76885 0.05,-1.91443 0.547,-0.33793 0.528,-0.42015 0.637,2.76522 0.1,2.81877 -0.405,4.05374 -0.803,1.97613 z m 8.453,-4.20758 c -0.276,-0.71713 0.929,-2.01303 1.417,-1.52503 0.161,0.16056 -0.08,0.43258 -0.523,0.60449 -0.576,0.22101 -0.65,0.41422 -0.253,0.65962 0.357,0.22053 0.389,0.45355 0.09,0.63913 -0.26,0.16064 -0.589,-0.01 -0.73,-0.37821 z m -8.392,-1.80046 c -0.03,-0.32426 0,-0.8018 0.06,-1.06121 0.254,-1.06567 0.227,-2.92095 -0.06,-4.35943 -0.174,-0.86088 -0.125,-1.41573 0.112,-1.2692 0.232,0.14318 0.422,0.0356 0.422,-0.23915 0,-0.27472 -0.159,-0.49949 -0.354,-0.49949 -0.195,0 -0.354,-0.5306 -0.354,-1.17912 0,-0.64852 0.133,-1.17913 0.296,-1.17913 0.163,0 0.242,-0.63672 0.176,-1.41494 -0.08,-0.89223 0.101,-1.41495 0.478,-1.41495 0.459,0 0.584,1.54635 0.533,6.60253 -0.05,4.93161 -0.217,6.60267 -0.657,6.60309 -0.325,3.1e-4 -0.615,-0.26474 -0.646,-0.589 z m 9.197,-1.65077 c 0.07,-0.84308 0,-1.53286 -0.155,-1.53286 -0.159,0 -0.29,-0.42449 -0.29,-0.9433 0,-0.51882 0.143,-0.9433 0.316,-0.9433 0.522,0 0.72,2.0266 0.346,3.53737 l -0.35,1.41495 z m 0.02,-6.21282 c 0.02,-1.2742 0.155,-2.43452 0.299,-2.57848 0.144,-0.14396 0.251,0.77588 0.236,2.04409 -0.01,1.26821 -0.149,2.42853 -0.299,2.57849 -0.15,0.14995 -0.256,-0.76989 -0.236,-2.0441 z m 0.273,-5.46051 c 0,-0.64851 0.183,-1.17912 0.407,-1.17912 0.223,0 0.304,0.53061 0.18,1.17912 -0.124,0.64852 -0.307,1.17913 -0.406,1.17913 -0.1,0 -0.181,-0.53061 -0.181,-1.17913 z m 0.04,-2.39755 c 0.02,-0.54944 0.135,-0.6612 0.285,-0.28495 0.137,0.34047 0.12,0.74727 -0.04,0.90399 -0.157,0.15673 -0.268,-0.12184 -0.248,-0.61904 z m -0.04,-6.78481 c 0,-0.25126 0.319,-0.33468 0.708,-0.18536 0.389,0.14931 0.708,0.35489 0.708,0.45684 0,0.10195 -0.319,0.18537 -0.708,0.18537 -0.389,0 -0.708,-0.20558 -0.708,-0.45685 z m 0.301,-1.66557 c 0.15,-0.38912 0.355,-0.70748 0.457,-0.70748 0.102,0 0.186,0.31836 0.186,0.70748 0,0.38911 -0.206,0.70747 -0.457,0.70747 -0.252,0 -0.335,-0.31836 -0.186,-0.70747 z m 0.328,-3.75245 c 0,-0.3777 0.181,-0.57528 0.401,-0.43906 0.221,0.13621 0.279,0.44524 0.13,0.68672 -0.382,0.6171 -0.531,0.54762 -0.531,-0.24766 z m 0.08,-1.67152 c -0.161,-0.25941 -0.07,-0.47165 0.208,-0.47165 0.275,0 0.5,0.21224 0.5,0.47165 0,0.2594 -0.09,0.47165 -0.208,0.47165 -0.115,0 -0.34,-0.21225 -0.5,-0.47165 z m -32.325,97.92502 c 0,-0.35735 -0.29,-0.88981 -0.644,-1.18325 -0.52,-0.43184 -0.6,-0.308 -0.416,0.64972 0.237,1.24033 1.06,1.65446 1.06,0.53353 z m 23.473,-0.40555 c 0.06,-0.79572 -0.02,-0.88826 -0.34,-0.37625 -0.231,0.37345 -0.315,0.84832 -0.187,1.05526 0.356,0.5757 0.441,0.46595 0.527,-0.67901 z m -21.762,-10.48458 c 0.501,-1.30495 -0.06,-1.57895 -0.908,-0.44356 -0.739,0.99071 -0.752,1.13547 -0.103,1.13547 0.41,0 0.865,-0.31136 1.011,-0.69191 z m -0.532,-3.08129 c -0.16,-0.2594 -0.07,-0.49818 0.209,-0.5306 0.274,-0.0324 0.712,-0.11202 0.971,-0.17687 0.26,-0.0649 0.666,-0.14444 0.902,-0.17687 0.435,-0.0596 0.427,-1.246 -0.01,-1.68342 -0.131,-0.13026 -0.911,0.37805 -1.734,1.12956 -0.959,0.87509 -1.288,1.45071 -0.917,1.60089 0.872,0.35267 0.894,0.34632 0.579,-0.16269 z m -3.762,-0.85221 c -0.146,-0.14521 -0.526,-2.9e-4 -0.846,0.32204 -0.463,0.46581 -0.409,0.51998 0.264,0.26403 0.465,-0.17712 0.727,-0.44085 0.582,-0.58607 z m 34.95,-95.897 c -0.04,-2.08298 0.08,-3.87991 0.267,-3.99319 0.655,-0.4043 1.072,1.03139 1.15,3.95752 0.04,1.63427 0.164,3.05484 0.266,3.15682 0.715,0.71479 14.729,-0.0395 14.278,-0.76853 -0.137,-0.22272 -0.03,-0.40495 0.25,-0.40495 0.274,0 0.499,0.21224 0.499,0.47165 0,0.2594 0.331,0.47165 0.736,0.47165 0.405,0 0.605,-0.21225 0.444,-0.47165 -0.16,-0.25941 -0.07,-0.47165 0.208,-0.47165 0.275,0 0.517,0.2653 0.537,0.58956 0.03,0.47165 0.08,0.47165 0.276,0 0.13,-0.32426 0.591,-0.59281 1.024,-0.59678 0.632,-0.006 0.658,-0.0883 0.135,-0.41976 -0.457,-0.28913 -0.05,-0.51497 1.376,-0.75499 2.738,-0.46231 4.85,-1.81386 5.039,-3.22497 0.12,-0.89746 -0.109,-1.21182 -1.055,-1.44912 -0.664,-0.16667 -1.094,-0.48682 -0.955,-0.71144 0.331,-0.53494 -0.618,-0.87477 -3.512,-1.25847 -1.301,-0.17248 -2.365,-0.47549 -2.365,-0.67335 0,-0.56747 -2.133,-0.96064 -6.786,-1.25079 -2.367,-0.14761 -4.622,-0.42077 -5.012,-0.60701 -0.389,-0.18625 -1.663,-0.38189 -2.831,-0.43475 -2.619,-0.11857 -5.663,-0.89516 -5.663,-1.44504 0,-0.22513 -0.458,-0.28963 -1.017,-0.14335 -0.56,0.14628 -0.899,0.0734 -0.753,-0.16207 0.147,-0.23857 -1.23,-0.46185 -3.112,-0.50443 -1.857,-0.042 -4.65,-0.23148 -6.207,-0.42101 -4.226,-0.51425 -39.419,-0.46367 -39.795,0.0572 -0.174,0.24212 -1.379,0.50682 -2.677,0.58822 -2.936,0.18416 -4.1,0.5058 -3.768,1.04141 0.34,0.55066 -0.885,1.14682 -3.93,1.91165 -2.031,0.51034 -2.465,0.79049 -2.285,1.47638 0.128,0.48902 -0.03,0.84653 -0.384,0.84653 -0.868,0 -0.748,2.33235 0.168,3.24782 0.425,0.42441 1.619,1.03903 2.654,1.36582 2.215,0.69899 8.266,1.56537 8.768,1.25529 0.192,-0.11826 0.42,-0.01 0.507,0.24061 0.09,0.2506 1.91,0.6008 4.051,0.77823 2.804,0.23233 3.893,0.50156 3.893,0.96225 0,0.46603 0.801,0.65034 2.95,0.67897 1.622,0.0216 3.48,0.11439 4.129,0.20615 0.649,0.0918 6.489,0.31313 12.977,0.49192 6.489,0.17879 11.833,0.35133 11.875,0.38341 0.04,0.0321 3.146,-0.005 6.897,-0.0831 l 6.82,-0.14143 z m 9.482,-10.40365 c -0.15,-0.37625 -0.262,-0.26449 -0.285,0.28495 -0.02,0.4972 0.09,0.77577 0.248,0.61904 0.157,-0.15672 0.174,-0.56352 0.04,-0.90399 z m -46.826,128.88444 c 0.148,-0.23978 0,-0.52552 -0.326,-0.63498 -0.394,-0.13154 -0.369,-0.18362 0.07,-0.15361 0.799,0.0543 1.298,1.22454 0.522,1.22454 -0.296,0 -0.418,-0.19618 -0.269,-0.43595 z m -4.694,-0.50195 c -0.165,-0.26736 0.02,-0.34643 0.444,-0.18536 0.818,0.31355 0.967,0.65161 0.288,0.65161 -0.244,0 -0.573,-0.20981 -0.732,-0.46625 z m 2.356,-0.9487 c 0.161,-0.2594 0.386,-0.47165 0.5,-0.47165 0.114,0 0.208,0.21225 0.208,0.47165 0,0.25941 -0.225,0.47165 -0.5,0.47165 -0.275,0 -0.368,-0.21224 -0.208,-0.47165 z"
           id="path1" /></g></g></g></svg>
