<?xml version="1.0" encoding="UTF-8" standalone="no"?>
<!-- Created with Inkscape (http://www.inkscape.org/) -->

<svg
   width="231.38646"
   height="235.24007"
   viewBox="0 0 61.221 62.240601"
   version="1.1"
   id="svg1"
   xml:space="preserve"
   xmlns="http://www.w3.org/2000/svg"
   xmlns:svg="http://www.w3.org/2000/svg"><defs
     id="defs1" /><g
     id="g2047"
     transform="matrix(0.26458333,0,0,0.26458333,-5299.2671,-10.12824)"><g
       id="g2188"
       transform="translate(-1397.3268,-279.16667)"><path
         style="fill:#000000"
         d="m 21537.026,528.20937 c -0.591,-0.11847 -1.211,-0.43604 -1.38,-0.70571 -0.168,-0.26968 -0.538,-0.49032 -0.822,-0.49032 -0.284,0 -0.593,-0.57562 -0.688,-1.27914 -0.09,-0.70353 -0.46,-1.43902 -0.811,-1.63444 -0.531,-0.2952 -0.544,-0.4716 -0.08,-1.04277 0.355,-0.43515 0.375,-0.57655 0.05,-0.38526 -0.735,0.43836 -1.16,-0.49382 -0.555,-1.21832 0.283,-0.33873 0.409,-0.88755 0.281,-1.21959 -0.128,-0.33205 -0.112,-0.72405 0.04,-0.87112 0.297,-0.2954 0.495,-1.04108 0.83,-3.1227 0.172,-1.06651 0.437,-1.38666 1.147,-1.38666 0.547,0 1.098,-0.39203 1.348,-0.96 0.37,-0.83764 0.779,-0.97202 3.214,-1.05425 3.231,-0.10917 5.813,0.46846 6.165,1.37888 0.135,0.34945 0.631,0.63537 1.102,0.63537 1.244,0 1.804,1.38467 2.059,5.08871 0.184,2.66453 0.1,3.40277 -0.473,3.96857 -0.385,0.3823 -0.699,0.80481 -0.699,0.93891 0,0.61303 -1.757,1.89144 -2.961,2.15427 -0.732,0.15987 -1.331,0.45548 -1.331,0.65692 0,0.20144 -0.338,0.38095 -0.751,0.39891 -0.413,0.018 -1.62,0.10747 -2.682,0.19889 -1.063,0.0914 -2.414,0.0693 -3.004,-0.0491 z m -1.95,-1.80655 c 0.136,-0.21845 0.08,-0.49801 -0.118,-0.62123 -0.2,-0.12323 -0.364,0.0555 -0.364,0.39718 0,0.71943 0.135,0.78229 0.482,0.22405 z m 11.633,-2.54508 c -0.13,-0.21024 0.05,-0.92292 0.39,-1.58372 0.484,-0.92769 0.508,-1.2766 0.105,-1.53121 -0.382,-0.24106 -0.349,-0.34056 0.122,-0.36996 0.406,-0.0254 0.454,-0.11669 0.131,-0.24743 -0.282,-0.11397 -0.403,-0.48996 -0.27,-0.83554 0.133,-0.34558 -0.07,-0.97276 -0.454,-1.39373 -0.383,-0.42097 -0.573,-0.88901 -0.421,-1.0401 0.341,-0.3381 -1.567,-1.96894 -2.326,-1.98852 -0.302,-0.008 -0.661,0.27381 -0.797,0.62581 -0.136,0.352 -0.537,0.64 -0.891,0.64 -0.389,0 -0.548,0.24721 -0.402,0.62633 0.133,0.34449 0.06,0.73982 -0.168,0.87852 -0.643,0.39495 -0.481,1.05515 0.258,1.05515 0.368,0 0.55,-0.192 0.404,-0.42667 -0.146,-0.23467 0.06,-0.42667 0.456,-0.42667 0.513,0 0.602,0.15481 0.308,0.53334 -0.67,0.86197 -0.698,4.65805 -0.03,4.50639 0.307,-0.07 0.624,0.0634 0.706,0.2965 0.08,0.23308 0.371,0.56483 0.644,0.73724 0.706,0.44679 2.524,0.40156 2.239,-0.0557 z m -10.971,-0.21209 c 0,-0.0922 -0.3,-0.28203 -0.666,-0.42178 -0.382,-0.1457 -0.554,-0.0742 -0.404,0.16769 0.252,0.40542 1.07,0.59965 1.07,0.25409 z m 6.283,-0.98123 c -0.424,-0.42219 -1.524,-0.5379 -1.744,-0.1836 -0.102,0.16399 0.316,0.33943 0.929,0.38988 0.613,0.0504 0.98,-0.0424 0.815,-0.20628 z m -11.943,1.28412 c 0.31,-0.12325 0.68,-0.10809 0.823,0.0337 0.143,0.14177 -0.111,0.24262 -0.563,0.22409 -0.5,-0.0205 -0.602,-0.12158 -0.26,-0.25778 z m 25.616,-8.66935 c -0.472,-0.20334 -1.546,-0.4803 -2.387,-0.61545 -1.485,-0.23872 -1.529,-0.29963 -1.529,-2.13713 0,-1.04028 0.176,-1.78316 0.392,-1.65086 0.215,0.13231 0.172,-0.16661 -0.1,-0.66426 -0.286,-0.53161 -0.316,-0.90482 -0.07,-0.90482 0.237,0 0.289,-0.50319 0.123,-1.17333 -0.161,-0.64534 -0.263,-3.57334 -0.228,-6.50667 0.04,-2.93333 0.05,-6.58133 0.03,-8.10667 -0.02,-1.52533 -0.05,-4.25932 -0.06,-6.07552 l -0.03,-3.3022 -2.076,-0.74216 c -1.877,-0.67085 -3.594,-2.25345 -2.446,-2.25345 0.245,0 0.445,-0.384 0.445,-0.85333 0,-0.46934 0.207,-0.85334 0.459,-0.85334 0.253,0 0.164,-0.29449 -0.198,-0.65443 -0.488,-0.48475 -0.555,-0.92333 -0.262,-1.69156 0.219,-0.57042 0.246,-1.13012 0.06,-1.24378 -0.454,-0.27858 -0.133,-3.78299 0.433,-4.73023 0.14,-0.23466 0.256,-1.9204 0.258,-3.74607 0,-2.6837 -0.136,-3.39342 -0.724,-3.70591 -0.399,-0.21258 -2.548,-0.42143 -4.776,-0.46411 -3.037,-0.0582 -4.255,-0.25175 -4.874,-0.77409 -0.655,-0.55333 -0.749,-0.56494 -0.454,-0.0565 0.298,0.51429 0.249,0.54395 -0.248,0.15099 -0.672,-0.53042 -3.218,-1.06317 -5.457,-1.1416 -1.062,-0.0372 -1.344,-0.20558 -1.158,-0.68963 0.136,-0.35223 0.11,-0.50394 -0.06,-0.33713 -0.167,0.16681 -0.518,0.12747 -0.778,-0.0874 -0.261,-0.21491 -1.76,-0.44816 -3.332,-0.51834 -1.572,-0.0702 -2.767,-0.27297 -2.657,-0.45065 0.111,-0.17767 -0.577,-0.44671 -1.528,-0.59787 -0.951,-0.15116 -1.949,-0.53887 -2.218,-0.86159 -0.27,-0.32271 -1.022,-0.58675 -1.672,-0.58675 -2.016,0 -3.863,-0.5089 -3.863,-1.06418 0,-0.49668 -2.133,-1.05371 -4.077,-1.06455 -0.732,-0.004 -0.854,0.26704 -0.825,1.83737 0.02,1.01319 0.158,2.04245 0.31,2.28725 0.152,0.24479 0.141,0.57975 -0.02,0.74435 -0.166,0.1646 -0.345,2.06338 -0.398,4.21951 -0.103,4.17805 -0.192,4.90945 -0.692,5.7041 -0.174,0.27712 -0.14,0.61241 0.08,0.7451 0.434,0.26659 0.305,5.7687 -0.206,8.77771 -0.179,1.056 -0.302,2.784 -0.274,3.84 0.03,1.056 0.05,2.88 0.04,4.05334 -0.01,3.16524 0.13,14.67482 0.206,16.6399 0.04,1.14071 -0.117,1.70661 -0.486,1.70667 -0.304,5e-5 -0.69,0.20299 -0.858,0.45098 -0.597,0.87898 -3.016,1.55425 -4.463,1.2457 -2.052,-0.43787 -2.187,-0.59702 -1.451,-1.71385 0.433,-0.65641 0.508,-1.09977 0.217,-1.27847 -0.298,-0.18309 -0.27,-0.48344 0.08,-0.9081 0.315,-0.37805 0.367,-0.75074 0.128,-0.92202 -0.426,-0.30492 -0.632,-6.47415 -0.216,-6.47415 0.134,0 0.234,-1.824 0.222,-4.05333 -0.01,-2.55589 0.145,-4.05575 0.429,-4.05987 0.248,-0.004 0.182,-0.17594 -0.147,-0.38299 -0.351,-0.22056 -0.501,-0.74793 -0.362,-1.27347 0.129,-0.49335 0.05,-0.897 -0.168,-0.897 -0.252,0 -0.25,-0.28658 0,-0.75769 0.259,-0.48065 0.257,-1.02665 0,-1.49333 -0.288,-0.51217 -0.261,-0.73565 0.09,-0.73565 0.376,0 0.371,-0.15789 -0.02,-0.62524 -0.345,-0.41388 -0.421,-1.24321 -0.224,-2.45333 0.164,-1.00545 0.29,-2.16825 0.281,-2.58398 -0.01,-0.41701 0.183,-0.63303 0.429,-0.48185 0.245,0.15072 0.196,-0.18113 -0.109,-0.73744 -0.642,-1.16916 -0.531,-3.42661 0.19,-3.88496 0.352,-0.22336 0.331,-0.31534 -0.07,-0.32 -0.385,-0.004 -0.47,-0.30333 -0.267,-0.93885 0.457,-1.43334 0.534,-4.61551 0.118,-4.87152 -0.205,-0.12565 -0.249,-0.42651 -0.1,-0.66857 0.151,-0.24205 0.355,-1.52479 0.453,-2.85051 0.1,-1.32573 0.242,-2.89042 0.319,-3.47708 0.08,-0.58667 -0.04,-1.28958 -0.252,-1.56202 -0.242,-0.30531 -0.219,-0.6017 0.06,-0.77256 0.314,-0.19234 0.315,-0.53053 0,-1.10465 -0.298,-0.55315 -0.301,-0.82744 -0.01,-0.82744 0.27,0 0.337,-0.77142 0.177,-2.02667 -0.142,-1.11466 -0.237,-2.21866 -0.211,-2.45333 0.323,-2.88895 0.399,-5.76006 0.153,-5.76028 -0.17,-1.5e-4 -0.328,-1.91309 -0.35,-4.25096 -0.03,-2.97461 0.1,-4.16677 0.429,-3.97115 0.26,0.15479 0.234,-0.0106 -0.06,-0.37062 -0.492,-0.60382 -0.368,-4.72548 0.168,-5.59366 0.108,-0.176 0,-0.32 -0.223,-0.32 -0.269,0 -0.278,-0.51217 -0.02,-1.42413 0.217,-0.78327 0.376,-1.88727 0.353,-2.45333 -0.02,-0.56606 0.06,-1.4612 0.189,-1.9892 0.127,-0.528 0.04,-0.96 -0.199,-0.96 -0.236,0 -0.341,-0.144 -0.232,-0.32 0.476,-0.77147 0.668,-3.57822 0.309,-4.51721 -0.262,-0.68516 -0.232,-1.18807 0.09,-1.50862 0.358,-0.35668 0.328,-0.48084 -0.118,-0.48084 -0.445,0 -0.476,-0.12416 -0.117,-0.48084 0.325,-0.3229 0.353,-0.8226 0.09,-1.52127 -0.255,-0.66743 -0.239,-1.33634 0.05,-1.86583 0.245,-0.45396 0.286,-0.82539 0.09,-0.82539 -0.193,0 -0.352,-0.36991 -0.352,-0.82201 0,-0.45211 0.152,-0.72877 0.337,-0.61482 0.186,0.11395 0.338,0.004 0.338,-0.24466 0,-0.24852 -0.214,-0.45185 -0.476,-0.45185 -0.262,0 -0.355,-0.31068 -0.207,-0.69408 0.148,-0.38174 0.05,-0.95774 -0.221,-1.28 -0.374,-0.44828 -0.351,-0.58745 0.1,-0.59245 0.452,-0.005 0.465,-0.0847 0.06,-0.34307 -0.403,-0.25454 -0.491,-2.20231 -0.358,-7.99347 0.1,-4.21131 0.276,-8.08489 0.399,-8.60795 0.124,-0.52307 0.04,-1.06272 -0.179,-1.19923 -0.25,-0.15341 -0.24,-0.55431 0.03,-1.04975 0.237,-0.44085 0.274,-0.89813 0.08,-1.01619 -0.192,-0.11806 -0.282,-0.84971 -0.199,-1.62589 0.268,-2.52664 0.338,-9.7313 0.09,-9.73127 -0.131,1e-5 -0.255,-0.76798 -0.275,-1.70665 -0.02,-0.93866 0.134,-1.70666 0.345,-1.70666 0.21,0 0.382,-0.39533 0.382,-0.87852 0,-0.48318 0.183,-0.76605 0.407,-0.6286 0.224,0.13745 0.331,-0.13922 0.239,-0.61482 -0.09,-0.4756 0.01,-0.88873 0.237,-0.91806 0.223,-0.0293 0.55,-0.0887 0.727,-0.13188 0.177,-0.0432 1.191,-0.24786 2.253,-0.45479 1.062,-0.20693 2.028,-0.39893 2.146,-0.42667 0.118,-0.0277 1.052,-0.20286 2.077,-0.38918 1.542,-0.28059 1.826,-0.47771 1.649,-1.14812 -0.175,-0.6677 0.02,-0.81038 1.142,-0.81519 2.077,-0.009 3.48,-0.46233 2.786,-0.90017 -0.407,-0.25617 -0.262,-0.3775 0.5,-0.418 0.59,-0.0314 1.232,-0.0296 1.427,0.004 0.194,0.0336 0.242,-0.11763 0.106,-0.33608 -0.135,-0.21845 -0.681,-0.29086 -1.212,-0.16091 -0.531,0.12995 -0.841,0.10108 -0.69,-0.0641 0.151,-0.16523 0.827,-0.37235 1.502,-0.46027 0.675,-0.0879 1.324,-0.17601 1.442,-0.19577 0.118,-0.0198 -0.04,-0.19704 -0.354,-0.39396 -0.357,-0.22543 0.416,-0.44671 2.089,-0.59748 1.46,-0.1317 2.85,-0.43264 3.088,-0.66876 0.237,-0.23612 0.696,-0.3284 1.019,-0.20505 0.324,0.12334 0.707,-0.0837 0.852,-0.46001 0.145,-0.37635 0.545,-0.68427 0.887,-0.68427 0.343,0 0.528,-0.15372 0.411,-0.34161 -0.117,-0.18788 0.693,-0.589 1.799,-0.89139 1.106,-0.30238 2.301,-0.6581 2.655,-0.79048 0.354,-0.13239 0.837,-0.27509 1.073,-0.31712 1.965,-0.34998 3.2,-0.83531 3.392,-1.33394 0.126,-0.32567 0.766,-0.59823 1.422,-0.6057 0.657,-0.007 1.569,-0.29546 2.027,-0.64 0.458,-0.34453 1.038,-0.62349 1.287,-0.61989 0.25,0.004 0.165,0.19265 -0.189,0.42013 -0.354,0.22748 -0.439,0.41654 -0.188,0.42013 0.25,0.004 0.87,-0.37746 1.377,-0.8468 0.507,-0.46933 1.418,-0.85333 2.025,-0.85333 0.608,0 1.216,-0.288 1.352,-0.64 0.316,-0.81849 1.001,-0.81783 1.61,0.002 0.275,0.37055 1.292,0.68595 2.408,0.74667 1.662,0.0905 1.951,0.24431 2.073,1.10688 0.08,0.57912 -0.223,1.38945 -0.725,1.92069 -0.618,0.65326 -0.825,1.35049 -0.717,2.41158 0.08,0.82095 0.181,1.49264 0.217,1.49264 0.03,0 0.15,2.4 0.255,5.33333 0.104,2.93334 0.28,5.575 0.39,5.87038 0.109,0.29537 0.02,1.01537 -0.207,1.6 -0.271,0.70817 -0.259,1.06296 0.04,1.06296 0.244,0 0.303,0.22708 0.13,0.50463 -0.403,0.64901 -0.52,14.4287 -0.122,14.4287 0.165,0 0.271,0.86418 0.235,1.9204 -0.03,1.05622 0.04,1.92022 0.16,1.92 0.123,-2.2e-4 0.216,1.1996 0.206,2.66627 -0.01,1.46666 0.124,2.97742 0.297,3.35723 0.173,0.37981 0.197,0.8085 0.05,0.95263 -0.361,0.35902 -0.338,6.53709 0.03,8.49733 0.165,0.87604 0.136,1.59281 -0.07,1.59281 -0.201,0 -0.293,0.624 -0.205,1.38666 0.09,0.76267 0.155,1.77067 0.148,2.24 0,0.46934 -0.04,2.42939 -0.06,4.35568 -0.03,1.92629 0.07,3.70229 0.224,3.94667 0.152,0.24438 1.043,0.44432 1.981,0.44432 1.053,0 1.792,0.22495 1.932,0.58846 0.127,0.33046 1.165,0.71221 2.367,0.87069 1.27,0.16742 2.238,0.53551 2.38,0.90487 0.133,0.34246 0.69,0.62265 1.24,0.62265 1.46,0 9.043,1.22901 11.784,1.90978 1.298,0.32248 3.374,0.71471 4.613,0.87164 1.414,0.17895 2.254,0.49174 2.254,0.83903 0,0.50709 1.413,1.11293 3.004,1.28718 0.354,0.0388 1.187,0.29445 1.852,0.56812 0.664,0.27367 1.388,0.49758 1.609,0.49758 0.221,0 0.401,0.192 0.401,0.42667 0,0.23466 0.399,0.42666 0.887,0.42666 0.487,0 1.308,0.22884 1.824,0.50852 0.515,0.27969 1.698,0.57266 2.629,0.65106 0.931,0.0784 1.766,0.21618 1.857,0.30619 0.161,0.15988 0.583,3.87713 0.633,5.57423 0.01,0.46934 -0.11,1.90934 -0.274,3.2 -0.165,1.29067 -0.273,3.97867 -0.24,5.97334 0.03,1.99466 0.05,3.81866 0.05,4.05333 -0.03,1.18195 0.03,10.64256 0.08,13.44 0.03,1.76 -0.07,3.728 -0.229,4.37333 -0.161,0.64534 -0.161,1.17327 0,1.17318 0.227,-1.2e-4 0.265,9.3496 0.09,21.44016 0,0.45859 -0.342,0.74666 -0.869,0.74666 -0.472,0 -0.859,0.192 -0.859,0.42667 0,0.5828 -1.991,0.53861 -3.139,-0.0697 -1.128,-0.59722 -2.014,-1.71369 -1.726,-2.17618 0.115,-0.1844 0.05,-0.30778 -0.145,-0.27418 -0.869,0.15006 -1.456,-0.0756 -1.213,-0.46662 0.146,-0.23466 0.01,-0.4296 -0.296,-0.4332 -0.365,-0.004 -0.403,-0.11647 -0.109,-0.32 0.439,-0.30336 0.527,-1.68886 0.608,-9.57641 0.02,-2.04396 0.187,-3.80744 0.368,-3.91885 0.181,-0.11141 0.285,-1.19704 0.231,-2.41251 -0.06,-1.21548 0.08,-2.668 0.29,-3.22782 0.249,-0.64994 0.235,-1.01787 -0.04,-1.01787 -0.24,0 -0.317,-0.51215 -0.175,-1.17334 0.138,-0.64533 0.311,-3.24521 0.383,-5.77751 0.07,-2.53229 0.247,-4.71754 0.386,-4.8561 0.139,-0.13855 0.05,-0.63509 -0.205,-1.10341 -0.279,-0.51898 -0.301,-0.95527 -0.06,-1.11724 0.221,-0.14615 0.362,-1.12974 0.313,-2.18574 -0.05,-1.056 -0.137,-3.312 -0.197,-5.01333 -0.121,-3.4626 -0.505,-3.78734 -2.145,-1.81333 -0.585,0.704 -1.454,1.28 -1.931,1.28 -0.477,0 -1.118,0.39991 -1.425,0.88869 -0.307,0.48878 -1.421,1.26777 -2.474,1.73109 -1.054,0.46332 -1.816,1.00293 -1.694,1.19913 0.122,0.1962 -0.26,0.47686 -0.848,0.6237 -0.589,0.14684 -1.07,0.45532 -1.07,0.68552 0,0.23019 -0.28,0.41853 -0.622,0.41853 -0.342,0 -1.82,1.14108 -3.285,2.53573 -2.424,2.30759 -3.235,2.82283 -5.686,3.61454 -0.438,0.14131 -0.697,0.51353 -0.576,0.82715 0.268,0.69338 -3.079,2.40925 -4.699,2.40925 -0.9,0 -1.069,0.16222 -0.887,0.85333 0.124,0.46934 0.1,0.85366 -0.06,0.85406 -0.155,4e-4 -0.282,2.3524 -0.282,5.22667 0,2.87427 -0.165,5.58761 -0.367,6.02966 -0.203,0.44205 -0.447,2.17005 -0.544,3.84 -0.1,1.66995 -0.263,3.27628 -0.37,3.56961 -0.107,0.29334 -0.05,0.5335 0.115,0.53369 0.26,3e-4 0.614,14.15394 0.6,23.99965 0,2.08895 0.15,2.88 0.557,2.88 0.309,0 0.672,0.288 0.808,0.64 0.136,0.352 0.05,0.64 -0.194,0.64 -0.242,0 -0.335,0.17024 -0.206,0.37832 0.13,0.20808 -0.05,0.61383 -0.399,0.90168 -0.349,0.28784 -0.528,0.6936 -0.399,0.90167 0.129,0.20808 -0.441,0.37833 -1.267,0.37833 -0.826,0 -1.621,0.192 -1.767,0.42666 -0.31,0.49895 -0.557,0.49884 -1.717,-8.1e-4 z m -0.342,-6.29732 c 0.163,-7.03684 0.185,-26.3463 0.04,-34.57693 -0.146,-8.25808 -0.292,-9.01019 -1.751,-9.0384 -0.186,-0.004 -0.245,2.10546 -0.13,4.6868 0.133,3.00046 0.05,4.69333 -0.224,4.69333 -0.238,0 -0.285,0.23595 -0.106,0.52434 0.268,0.43176 0.38,8.15053 0.128,8.86233 -0.09,0.26012 -0.106,0.047 0.219,3.41333 0.147,1.52533 0.222,4.40533 0.167,6.4 -0.264,9.45791 -0.12,14.18602 0.565,18.62599 0.04,0.27096 0.285,0.4128 0.541,0.3152 0.275,-0.10498 0.5,-1.7002 0.552,-3.90599 z m 3.076,2.77813 c 0.296,-1.81169 0.287,-6.72 -0.01,-6.72 -0.198,0 -0.36,-0.58733 -0.36,-1.30518 0,-0.93059 0.154,-1.21322 0.536,-0.98476 0.404,0.24119 0.423,0.1683 0.08,-0.29482 -0.625,-0.83514 -0.697,-2.6379 -0.09,-2.2652 0.316,0.19379 0.342,0.0918 0.08,-0.31078 -0.213,-0.32959 -0.411,-1.27126 -0.439,-2.09259 -0.09,-2.73192 -0.161,-3.1313 -0.48,-2.81433 -0.459,0.45639 -0.398,1.69619 0.102,2.06113 0.277,0.20251 0.263,0.31578 -0.04,0.32 -0.275,0.004 -0.503,1.00616 -0.549,2.41476 -0.04,1.32452 -0.182,2.57252 -0.307,2.77333 -0.124,0.20081 -0.01,0.36511 0.243,0.36511 0.301,0 0.338,0.26837 0.103,0.74667 -0.202,0.41066 -0.331,1.41866 -0.288,2.24 0.04,0.82133 0.137,2.59733 0.21,3.94666 0.08,1.50403 0.325,2.45334 0.631,2.45334 0.274,0 0.538,-0.24 0.586,-0.53334 z m -54.128,-6.4 c 0.03,-0.528 0.1,-2.15493 0.145,-3.6154 0.05,-1.46047 0.201,-2.58284 0.345,-2.49415 0.144,0.0887 0.271,-2.84439 0.28,-6.51794 0.01,-3.67354 0.169,-7.92717 0.354,-9.45251 0.185,-1.52533 0.353,-4.06135 0.373,-5.63561 0.04,-2.78387 0.07,-2.8745 1.326,-3.30859 0.708,-0.24547 1.176,-0.557 1.04,-0.69229 -0.136,-0.13529 -0.637,-0.0384 -1.114,0.21526 -0.477,0.25368 -0.947,0.46123 -1.045,0.46123 -0.381,0 -0.225,-2.56032 0.171,-2.8039 0.27,-0.16568 0.273,-0.43689 0.01,-0.75408 -0.468,-0.562 -0.403,-3.6513 0.09,-4.44885 0.18,-0.28958 0.143,-0.5265 -0.08,-0.5265 -0.246,0 -0.274,-0.59559 -0.07,-1.49561 0.214,-0.94499 0.173,-1.59757 -0.111,-1.77259 -0.287,-0.17595 -0.324,-0.0584 -0.102,0.32228 0.193,0.32966 0.185,0.44973 -0.02,0.2669 -0.505,-0.45641 -0.648,-1.64949 -0.162,-1.35116 0.215,0.1323 0.392,-0.15479 0.392,-0.63797 0,-0.48319 -0.242,-0.88146 -0.537,-0.88505 -0.345,-0.004 -0.378,-0.11826 -0.09,-0.32 0.484,-0.34218 0.599,-6.07347 0.121,-6.07347 -0.28,0 -0.03,-2.16403 0.283,-2.47829 0.08,-0.083 0.542,0.0567 1.019,0.31039 0.477,0.25368 1.314,0.46242 1.861,0.46387 0.546,0.001 1.573,0.3141 2.281,0.69479 0.708,0.38069 2.446,0.9588 3.862,1.28469 3.239,0.74524 3.628,0.84112 5.497,1.35414 0.84,0.23049 1.667,0.29412 1.839,0.14141 0.171,-0.15272 0.194,0.0481 0.05,0.44618 -0.214,0.59446 0.1,0.77175 1.755,0.99185 2.105,0.27972 2.458,0.3804 3.519,1.00371 1.409,0.82765 5.099,1.70177 8.097,1.918 1.853,0.13359 3.452,0.48389 3.863,0.84573 0.757,0.66796 6.372,1.6819 7.041,1.27136 0.224,-0.13777 0.546,-0.0279 0.715,0.24409 0.182,0.29319 2.039,0.58887 4.561,0.72616 2.34,0.12737 4.124,0.10167 3.964,-0.0571 -0.16,-0.15878 -0.11,-0.75993 0.11,-1.33588 0.263,-0.68691 0.253,-0.95673 -0.03,-0.78428 -0.397,0.24347 -0.645,-0.71382 -0.443,-1.70746 0.05,-0.23467 -0.06,-0.28434 -0.232,-0.11037 -0.41,0.40801 -1.535,-0.50703 -1.228,-0.99976 0.127,-0.20539 -0.07,-0.25909 -0.434,-0.11934 -0.367,0.13975 -0.666,0.0416 -0.666,-0.21822 0,-0.29283 -0.979,-0.47231 -2.575,-0.47231 -1.877,0 -2.781,-0.2025 -3.336,-0.74667 -0.418,-0.41067 -1.238,-0.81298 -1.823,-0.89404 -0.586,-0.0811 -1.125,-0.31026 -1.199,-0.50936 -0.08,-0.1991 -0.444,-0.24415 -0.822,-0.10012 -0.412,0.15731 -0.577,0.0867 -0.413,-0.17675 0.232,-0.37414 -2.529,-0.87187 -6.216,-1.1207 -0.396,-0.0267 -0.64,-0.17756 -0.542,-0.33523 0.1,-0.15768 -0.882,-0.41836 -2.177,-0.57931 -1.296,-0.16094 -2.619,-0.55435 -2.941,-0.87423 -0.322,-0.31989 -1.674,-0.64095 -3.004,-0.71347 -1.33,-0.0725 -2.419,-0.2883 -2.419,-0.47951 0,-0.1912 -0.158,-0.2508 -0.35,-0.13243 -0.338,0.20776 -2.849,-0.52416 -3.727,-1.08658 -0.236,-0.15116 -1.65,-0.51334 -3.143,-0.80486 -1.492,-0.29152 -2.979,-0.79372 -3.303,-1.11601 -0.324,-0.32228 -0.745,-0.55981 -0.934,-0.52783 -0.19,0.032 -0.442,0.0207 -0.56,-0.025 -0.558,-0.21628 -2.087,-0.5176 -3.623,-0.71402 -1.642,-0.2099 -3.888,-2.02457 -3.426,-2.76777 0.108,-0.17442 0.01,-0.43043 -0.213,-0.56892 -0.226,-0.13848 -0.337,-0.62771 -0.248,-1.08717 0.09,-0.45947 0,-0.92957 -0.179,-1.04468 -0.187,-0.11511 -0.269,-0.93515 -0.182,-1.82231 0.2,-2.04572 0.199,-2.68797 0,-3.74635 -0.09,-0.46933 0.05,-1.13019 0.316,-1.46857 0.363,-0.46468 0.355,-0.53999 -0.03,-0.30776 -0.371,0.22095 -0.476,-0.10471 -0.373,-1.1572 0.08,-0.80558 0.265,-1.66182 0.415,-1.90276 0.15,-0.24094 0.118,-0.53331 -0.07,-0.6497 -0.281,-0.17254 -0.362,-2.62067 -0.09,-2.62067 0.08,0 0.224,-1.40324 0.49,-4.80019 0.08,-0.99744 -0.03,-1.81344 -0.232,-1.81333 -0.206,10e-5 -0.194,-0.23982 0.03,-0.53315 0.355,-0.47231 0.429,-1.4115 0.134,-1.70667 -0.06,-0.0587 -0.139,-1.26137 -0.18,-2.67268 -0.04,-1.41131 -0.221,-2.80331 -0.402,-3.09334 -0.196,-0.31553 -0.102,-0.52993 0.234,-0.53384 0.409,-0.005 0.386,-0.1196 -0.08,-0.42014 -0.354,-0.22748 -0.45,-0.41652 -0.214,-0.4201 0.353,-0.005 0.499,-2.23107 0.196,-2.99323 -0.196,-0.49158 -0.178,-14.93121 0.02,-14.93235 0.348,-0.002 0.245,-8.27456 -0.11,-8.81787 -0.178,-0.2733 -0.155,-0.5613 0.05,-0.64 0.57,-0.21655 1.002,-8.91391 0.474,-9.54624 -0.676,-0.80955 0.393,-2.72963 1.696,-3.04613 0.609,-0.14784 1.249,-0.47924 1.422,-0.73644 0.209,-0.3088 0.318,-0.26403 0.322,0.13182 0,0.45843 0.209,0.41777 0.865,-0.17279 0.472,-0.42474 0.859,-1.0305 0.859,-1.34613 0,-0.31563 0.144,-0.57532 0.321,-0.57709 0.177,-0.002 1.578,-0.21587 3.112,-0.47576 1.534,-0.25989 3.031,-0.48244 3.326,-0.49455 0.295,-0.0121 0.536,-0.18203 0.536,-0.37758 0,-0.19556 0.628,-0.36166 1.395,-0.36913 1.583,-0.0154 3.312,-1.03312 2.383,-1.40298 -0.307,-0.12251 -0.08,-0.26715 0.514,-0.32142 0.59,-0.0543 1.266,-0.14328 1.502,-0.1978 0.236,-0.0545 0.665,-0.12128 0.952,-0.14834 0.307,-0.0289 0.409,-0.34395 0.248,-0.76329 -0.212,-0.54716 -0.103,-0.64804 0.465,-0.43156 0.407,0.15539 0.635,0.11379 0.507,-0.0924 -0.468,-0.75241 3.53,-2.00235 7.557,-2.36287 0.158,-0.0142 0.746,-0.42197 1.306,-0.90626 1.119,-0.96668 2.493,-1.64785 3.065,-1.51891 0.202,0.0455 0.606,-0.11436 0.898,-0.35523 0.292,-0.24086 0.645,-0.32437 0.785,-0.18558 0.14,0.1388 0.508,0.0921 0.819,-0.10383 0.605,-0.38141 0.834,-0.44609 1.878,-0.52926 0.39,-0.0311 0.541,-0.25854 0.362,-0.54592 -0.189,-0.3052 -0.117,-0.37678 0.19,-0.18816 0.272,0.16744 0.737,0.15205 1.032,-0.0342 0.295,-0.18625 0.633,-0.35767 0.751,-0.38093 0.118,-0.0233 0.774,-0.27225 1.458,-0.55332 1.186,-0.48742 1.206,-0.53843 0.429,-1.10428 -0.675,-0.49183 -0.869,-0.49594 -1.137,-0.024 -0.177,0.31308 -1.094,0.69897 -2.038,0.85754 -0.944,0.15856 -1.716,0.47475 -1.716,0.70264 0,0.22789 -0.205,0.28852 -0.456,0.13473 -0.417,-0.25667 -1.369,0.006 -4.265,1.17543 -0.59,0.23836 -1.409,0.60298 -1.818,0.81027 -0.41,0.20729 -1.328,0.37689 -2.039,0.37689 -0.711,0 -1.293,0.1696 -1.293,0.3769 0,0.2073 -0.338,0.50008 -0.751,0.65062 -0.413,0.15054 -1.329,0.58956 -2.035,0.97559 -0.706,0.38604 -2.199,0.78935 -3.318,0.89625 -1.119,0.1069 -2.255,0.45828 -2.524,0.78084 -0.27,0.32255 -0.864,0.58646 -1.321,0.58646 -0.457,0 -0.712,0.192 -0.566,0.42667 0.146,0.23467 -0.04,0.42667 -0.417,0.42667 -0.376,0 -0.794,0.288 -0.93,0.64 -0.136,0.352 -0.597,0.64 -1.024,0.64 -1.236,0 -2.135,0.46835 -2.135,1.11231 0,0.3269 -0.346,0.59435 -0.768,0.59435 -0.423,0 -1.823,0.26523 -3.112,0.58939 -1.289,0.32416 -3.059,0.71522 -3.933,0.86902 -1.053,0.18514 -1.518,0.46635 -1.377,0.83213 0.133,0.34219 -0.429,0.80328 -1.474,1.2114 -1.588,0.62033 -1.705,0.78938 -1.995,2.88677 -0.17,1.22532 -0.384,7.63313 -0.477,14.23958 -0.09,6.60644 -0.178,12.20371 -0.191,12.43838 -0.01,0.23467 0.08,1.86667 0.202,3.62667 0.507,7.24491 0.59,17.48874 0.139,17.21207 -0.296,-0.18221 -0.318,-0.0718 -0.06,0.322 0.41,0.63261 0.555,8.91789 0.156,8.91875 -0.603,10e-4 -0.433,15.14412 0.181,16.13115 0.154,0.24772 0.111,0.55395 -0.1,0.68051 -0.423,0.2599 -0.338,8.43608 0.1,9.13237 0.154,0.24797 0.1,0.56415 -0.13,0.70264 -0.225,0.13848 -0.336,0.63175 -0.246,1.09615 0.09,0.46439 0,0.84436 -0.185,0.84436 -0.191,0 -0.275,0.528 -0.185,1.17333 0.446,3.21821 0.324,4.52528 -0.383,4.10328 -0.408,-0.24386 -0.423,-0.17342 -0.06,0.29482 0.452,0.58375 0.46,5.04281 0.02,8.50857 -0.105,0.82133 -0.01,1.60526 0.212,1.74206 0.25,0.15455 0.247,0.65736 -0.01,1.32781 -0.227,0.59349 -0.335,3.45756 -0.24,6.3646 0.09,2.90704 0.191,6.05353 0.215,6.99219 0.02,0.93867 -0.06,5.21067 -0.196,9.49334 -0.19,6.16364 -0.125,7.78666 0.309,7.78666 0.302,0 0.578,-0.432 0.612,-0.96 z m 2.501,-3.17687 c -0.131,-0.89058 -1.105,-1.28684 -1.105,-0.44979 0,0.33244 0.129,0.73244 0.286,0.88889 0.519,0.51572 0.928,0.29662 0.819,-0.4391 z m 0.254,-1.93661 c -0.238,-0.23677 -0.339,-0.67568 -0.223,-0.97535 0.116,-0.29967 0.03,-0.65677 -0.194,-0.79356 -0.223,-0.13679 -0.408,0.27579 -0.411,0.91684 0,1.42608 0.248,1.9048 0.824,1.55102 0.294,-0.18056 0.295,-0.40939 0,-0.69895 z m 0.189,-3.51417 c -0.05,-0.3452 -0.225,-0.75954 -0.387,-0.92074 -0.162,-0.1612 -0.08,-0.55515 0.191,-0.87545 0.384,-0.46025 0.339,-0.52601 -0.218,-0.31361 -0.76,0.29009 -0.981,1.45745 -0.275,1.45745 0.236,0 0.406,0.144 0.378,0.32 -0.08,0.49403 0.03,0.96 0.227,0.96 0.1,0 0.135,-0.28244 0.08,-0.62765 z m 50.958,-10.33095 c -0.04,-4.19486 0.08,-8.42366 0.259,-9.39733 0.179,-0.97367 0.171,-2.01884 -0.02,-2.32259 -0.189,-0.30376 -0.148,-0.67202 0.09,-0.81836 0.533,-0.32725 0.753,-8.0607 0.239,-8.3767 -0.695,-0.42701 -1.488,0.93779 -1.724,2.96692 -0.164,1.41543 -0.08,2.03076 0.279,2.04023 0.288,0.008 0.187,0.25955 -0.231,0.57552 -0.41,0.30908 -0.605,0.70049 -0.435,0.8698 0.17,0.16932 0.334,2.26233 0.364,4.65115 0.138,11.00797 0.306,17.17006 0.475,17.47026 0.589,1.04316 0.762,-0.84772 0.702,-7.6589 z m 34.949,3.8117 c 0.347,-5.89312 0.27,-16.74754 -0.119,-16.75323 -0.244,-0.004 -0.224,-0.14142 0.05,-0.31973 0.495,-0.32558 1.082,-3.17236 0.591,-2.8709 -0.153,0.094 -0.2,-1.11618 -0.105,-2.6892 0.1,-1.57302 0.157,-3.14804 0.139,-3.50004 -0.02,-0.352 -0.06,-2.128 -0.09,-3.94666 -0.04,-2.09988 -0.233,-3.30664 -0.535,-3.30658 -0.315,6e-5 -0.492,1.54551 -0.526,4.58667 -0.03,2.52261 -0.07,5.83457 -0.1,7.35991 -0.03,1.52533 -0.05,3.06133 -0.06,3.41333 0,0.352 -0.09,1.888 -0.185,3.41333 -0.322,5.11518 -0.345,15.13897 -0.04,15.89334 0.52,1.26941 0.853,0.83307 0.977,-1.28024 z m -86.174,0.21357 c 0,-0.77629 -0.09,-0.83753 -0.422,-0.32 -0.538,0.8272 -0.538,1.28 0,1.28 0.236,0 0.426,-0.432 0.422,-0.96 z m 83.149,-2.56 c 0.01,-1.46667 0.153,-4.39467 0.309,-6.50667 0.157,-2.112 0.299,-4.608 0.316,-5.54666 0.02,-0.93867 0.222,-1.94667 0.457,-2.24 0.285,-0.35574 0.28,-0.53334 -0.01,-0.53334 -0.265,0 -0.416,-1.18993 -0.379,-2.98666 0.03,-1.64267 0.16,-2.98665 0.28,-2.98662 0.305,8e-5 0.15,-6.39809 -0.163,-6.70869 -0.14,-0.13907 -0.06,-0.48192 0.171,-0.76191 0.548,-0.65662 0.623,-2.16996 0.201,-4.04945 -0.185,-0.82133 -0.327,-1.92533 -0.316,-2.45333 0.01,-0.528 -0.152,-0.96 -0.363,-0.96 -0.38,0 -0.563,0.67781 -0.402,1.4855 0.188,0.93617 0.09,6.66835 -0.19,10.6745 -0.161,2.34666 -0.376,5.89866 -0.478,7.89333 -0.101,1.99467 -0.268,5.16267 -0.371,7.04 -0.474,8.65959 -0.439,10.48795 0.211,10.89628 0.347,0.21852 0.648,0.40026 0.668,0.40385 0.02,0.004 0.05,-1.19346 0.06,-2.66013 z m -82.713,1.19851 c 0,-0.10348 -0.193,-0.30681 -0.429,-0.45184 -0.236,-0.14504 -0.429,-0.0604 -0.429,0.18815 0,0.24852 0.193,0.45185 0.429,0.45185 0.236,0 0.429,-0.0847 0.429,-0.18816 z m -0.215,-1.94518 c 0.146,-0.23466 0.06,-0.42666 -0.189,-0.42666 -0.25,0 -0.454,0.192 -0.454,0.42666 0,0.23467 0.08,0.42667 0.189,0.42667 0.104,0 0.309,-0.192 0.454,-0.42667 z m 0.215,-3.84 c 0,-0.23466 -0.08,-0.42666 -0.189,-0.42666 -0.104,0 -0.309,0.192 -0.455,0.42666 -0.146,0.23467 -0.06,0.42667 0.19,0.42667 0.249,0 0.454,-0.192 0.454,-0.42667 z m 44.09,-3.66355 c 0.213,-5.38455 0.192,-7.38567 -0.08,-7.82577 -0.157,-0.25154 -0.128,-0.45718 0.06,-0.45698 0.312,3.3e-4 0.309,-1.77924 -0.01,-5.30493 -0.1,-1.10759 -1.093,-2.14987 -1.179,-1.23766 -0.02,0.19556 -0.1,1.9454 -0.173,3.88853 -0.08,1.94587 -0.374,3.81465 -0.662,4.16 -0.395,0.47303 -0.399,0.62703 -0.02,0.62703 0.279,0 0.375,0.21239 0.214,0.47199 -0.536,0.86153 -0.276,7.14636 0.322,7.8195 0.974,1.09388 1.419,0.46706 1.523,-2.14171 z m -43.375,-8.05101 c 0,-0.34168 -0.164,-0.52041 -0.364,-0.39719 -0.201,0.12323 -0.254,0.40278 -0.118,0.62124 0.347,0.55824 0.482,0.49538 0.482,-0.22405 z m 0.455,-5.3521 c -0.07,-0.85858 -0.376,-1.07381 -0.858,-0.59454 -0.143,0.14234 -0.03,0.51904 0.25,0.8371 0.67,0.75872 0.683,0.75362 0.608,-0.24256 z m -0.257,-2.02667 c 0.534,-0.67672 0.519,-0.69181 -0.162,-0.16109 -0.413,0.32207 -0.751,0.65807 -0.751,0.74667 0,0.35116 0.352,0.12514 0.913,-0.58558 z m 0.137,-1.84978 c -0.138,-0.22227 -0.434,-0.29174 -0.657,-0.15436 -0.224,0.13737 -0.294,0.43164 -0.156,0.65392 0.138,0.22227 0.434,0.29174 0.658,0.15436 0.224,-0.13737 0.293,-0.43164 0.155,-0.65392 z m 52.941,-0.0293 c 1.109,-0.5055 2.23,-0.9215 2.493,-0.92445 0.262,-0.003 0.385,-0.35737 0.272,-0.78759 -0.137,-0.5203 0.03,-0.78222 0.488,-0.78222 0.381,0 0.742,0.0298 0.801,0.0661 0.259,0.15947 2.897,-1.40257 2.897,-1.71525 0,-0.19097 0.482,-0.56593 1.073,-0.83323 0.59,-0.2673 1.073,-0.77812 1.073,-1.13515 0,-0.35703 0.208,-0.64915 0.464,-0.64915 0.504,0 4.174,-2.82271 4.947,-3.80456 0.261,-0.3325 0.885,-0.66663 1.385,-0.7425 1.106,-0.16785 2.684,-1.44505 2.383,-1.92905 -0.12,-0.19281 0.132,-0.35666 0.559,-0.36413 0.941,-0.0164 2.373,-1.03026 1.991,-1.40968 -0.151,-0.14972 0.432,-0.56531 1.294,-0.92354 0.863,-0.35823 1.568,-0.84075 1.568,-1.07227 0,-0.23151 0.219,-0.42094 0.486,-0.42094 0.268,0 0.799,-0.3533 1.18,-0.78511 0.382,-0.43181 1.234,-0.91743 1.892,-1.07917 0.659,-0.16174 1.1,-0.4515 0.981,-0.64392 -0.12,-0.19242 0.252,-0.59973 0.826,-0.90513 0.574,-0.3054 0.946,-0.71271 0.826,-0.90513 -0.12,-0.19242 0.255,-0.46774 0.832,-0.61183 1.083,-0.27018 1.544,-1.24468 1.555,-3.28304 0,-1.37074 0.04,-1.36066 -1.555,-0.53596 -0.676,0.35055 -1.585,0.63855 -2.02,0.64 -0.435,10e-4 -0.892,0.38447 -1.015,0.85116 -0.122,0.4667 -0.387,0.74769 -0.588,0.62444 -0.2,-0.12325 -0.758,0.1669 -1.238,0.6448 -0.481,0.47789 -1.235,0.86889 -1.675,0.86889 -1.075,0 -3.143,1.65829 -2.785,2.23343 0.157,0.25213 0.09,0.33939 -0.146,0.19392 -0.236,-0.14548 -0.842,0.11692 -1.345,0.58311 -0.503,0.46619 -1.547,0.96264 -2.318,1.10321 -0.772,0.14058 -2.082,0.78122 -2.912,1.42365 -0.829,0.64243 -1.94,1.30429 -2.467,1.47079 -0.528,0.1665 -0.96,0.5357 -0.96,0.82044 0,0.28474 -0.597,0.74174 -1.326,1.01557 -0.742,0.2783 -1.204,0.69588 -1.048,0.94687 0.154,0.24696 -0.04,0.44901 -0.421,0.44901 -0.384,0 -0.989,0.288 -1.343,0.64 -0.354,0.352 -1.3,0.64 -2.102,0.64 -1.119,0 -1.4,0.14851 -1.211,0.64 0.172,0.44359 -0.03,0.64 -0.653,0.64 -0.496,0 -1.142,0.384 -1.437,0.85334 -0.295,0.46933 -0.924,0.85348 -1.398,0.85366 -0.475,1.9e-4 -1.618,0.6689 -2.542,1.48602 -1.635,1.44705 -1.68,1.56355 -1.736,4.47967 -0.06,2.87495 -0.02,2.99398 0.951,2.99398 0.555,0 1.916,-0.41358 3.024,-0.91907 z m -52.877,-1.28019 c 0.176,-0.28387 0.119,-0.37755 -0.136,-0.22108 -0.289,0.17776 -0.367,-0.38872 -0.225,-1.64074 0.143,-1.26426 0.05,-1.91225 -0.268,-1.91225 -0.267,0 -0.508,0.24 -0.536,0.53333 -0.298,3.11626 0.266,4.68648 1.165,3.24074 z m -0.877,-4.59096 c -0.133,-0.21463 0,-0.48747 0.297,-0.60632 0.325,-0.13036 0.241,-0.22945 -0.212,-0.24978 -0.76,-0.0341 -0.989,0.44052 -0.465,0.96188 0.418,0.41542 0.662,0.34749 0.38,-0.10578 z m 85.763,-2.48978 c -0.105,-1.11467 -0.245,-2.41067 -0.312,-2.88 -0.07,-0.46933 -0.02,-1.04533 0.112,-1.28 0.359,-0.65526 0.291,-8.31998 -0.07,-8.31999 -0.351,-1e-5 -0.365,0.0773 -0.558,3.19999 -0.07,1.17333 -0.163,2.22933 -0.201,2.34667 -0.08,0.25869 0.02,7.16412 0.119,8.21333 0.04,0.41067 0.305,0.74667 0.588,0.74667 0.356,0 0.457,-0.62869 0.326,-2.02667 z m -37.616,1.33233 c 0.528,-0.14081 0.855,-0.42618 0.725,-0.63417 -0.129,-0.20799 0.149,-0.37816 0.618,-0.37816 0.47,0 1.191,-0.336 1.604,-0.74667 0.413,-0.41066 0.807,-0.65066 0.875,-0.53333 0.07,0.11733 0.497,-0.10394 0.953,-0.49172 0.603,-0.51373 0.956,-0.57741 1.301,-0.23467 0.345,0.34274 0.473,0.27356 0.473,-0.25494 0,-0.39894 0.242,-0.7248 0.537,-0.72415 0.793,0.002 4.344,-1.83661 4.742,-2.45452 0.189,-0.29333 0.72,-0.53333 1.18,-0.53333 0.551,0 0.837,-0.29169 0.837,-0.85334 0,-0.53014 0.286,-0.85333 0.756,-0.85333 0.415,0 1.236,-0.432 1.824,-0.96 1.11,-0.99776 3.587,-2.02667 4.879,-2.02667 0.419,0 0.622,-0.19937 0.463,-0.45538 -0.156,-0.2505 0.12,-0.56027 0.613,-0.68851 0.494,-0.12822 0.791,-0.40329 0.662,-0.61128 -0.129,-0.20799 0.08,-0.37816 0.473,-0.37816 0.389,0 1.028,-0.3927 1.42,-0.87267 0.392,-0.47997 1.133,-0.90383 1.648,-0.94191 0.515,-0.0381 0.901,-0.26937 0.859,-0.51399 -0.04,-0.24462 0.453,-0.50552 1.102,-0.57977 0.834,-0.0954 1.18,-0.37718 1.18,-0.96 0,-0.45375 0.145,-0.83968 0.322,-0.85764 2.072,-0.21009 4.936,-1.57438 4.702,-2.23921 -0.1,-0.27581 -0.493,-0.44556 -0.879,-0.37721 -0.386,0.0683 -1.137,-0.10713 -1.668,-0.38994 -0.532,-0.28281 -1.355,-0.57406 -1.829,-0.64722 -2.062,-0.31805 -4.775,-1.25396 -5.368,-1.85183 -0.355,-0.35674 -1.127,-0.69388 -1.717,-0.7492 -2.136,-0.20023 -2.575,-0.29925 -2.575,-0.58044 0,-0.15736 -0.406,-0.39158 -0.902,-0.52049 -0.496,-0.12906 -0.774,-0.43901 -0.618,-0.68976 0.16,-0.25728 -0.06,-0.46208 -0.493,-0.47076 -1.784,-0.0353 -5.974,-0.48877 -6.57,-0.71101 -0.355,-0.13188 -1.03,-0.29531 -1.503,-0.36316 -0.472,-0.0679 -2.113,-0.34141 -3.647,-0.60789 -1.535,-0.26649 -3.563,-0.59008 -4.507,-0.7191 -0.944,-0.12902 -2.672,-0.69408 -3.839,-1.25569 -1.168,-0.56161 -2.653,-1.02111 -3.301,-1.02111 -0.648,0 -1.316,-0.22167 -1.484,-0.49259 -0.205,-0.33013 -0.107,-0.37985 0.296,-0.15074 0.501,0.28412 0.508,0.24121 0.04,-0.25408 -0.482,-0.50818 -0.647,-0.48599 -1.12,0.15074 -0.306,0.41067 -0.865,0.74667 -1.244,0.74667 -0.379,0 -0.894,0.38209 -1.146,0.84909 -0.251,0.46699 -0.596,0.8102 -0.766,0.76268 -0.17,-0.0475 -0.743,0.15315 -1.274,0.44593 -0.531,0.29278 -0.966,0.42464 -0.966,0.29302 0,-0.13161 -0.557,0.0469 -1.237,0.39677 -0.681,0.34983 -1.888,0.74941 -2.683,0.88796 -0.794,0.13854 -1.628,0.43324 -1.852,0.65489 -0.225,0.22165 -0.846,0.40299 -1.382,0.40299 -0.731,0 -0.905,0.17636 -0.699,0.71 0.176,0.45709 0.105,0.60652 -0.199,0.41952 -0.26,-0.15975 -0.727,0.0487 -1.038,0.46335 -0.312,0.41459 -0.856,0.7538 -1.21,0.7538 -0.421,0 -0.597,0.33178 -0.509,0.96 0.1,0.70117 -0.08,0.96 -0.669,0.96 -0.442,0 -1.179,0.28189 -1.637,0.62643 -0.458,0.34454 -1.256,0.63254 -1.773,0.64 -1.08,0.0156 -1.69,0.69753 -0.887,0.99119 0.297,0.10844 -0.04,0.33486 -0.748,0.50314 -0.708,0.16828 -1.897,0.57666 -2.643,0.9075 -0.746,0.33084 -1.856,0.6427 -2.468,0.69303 -0.611,0.0503 -1.112,0.31433 -1.112,0.58667 0,0.27235 -0.627,0.74757 -1.395,1.05605 -0.767,0.30848 -1.491,0.67221 -1.609,0.80829 -0.596,0.68691 -2.679,1.73911 -3.591,1.8142 -0.648,0.0533 -0.955,0.29101 -0.821,0.63595 0.134,0.34784 -0.138,0.55088 -0.738,0.55088 -0.682,0 -0.878,0.1866 -0.695,0.66216 0.147,0.3797 0.08,0.55097 -0.168,0.40149 -0.234,-0.14337 -0.424,-0.0573 -0.424,0.19117 0,0.24852 -0.435,0.47393 -0.966,0.50092 -0.647,0.0328 -0.469,0.15867 0.536,0.38064 0.826,0.18236 2.178,0.57339 3.005,0.86895 1.561,0.55856 2.636,0.92957 3.004,1.03689 0.118,0.0344 1.228,0.21305 2.468,0.39695 1.239,0.18389 2.145,0.50831 2.013,0.72093 -0.132,0.21261 -0.08,0.40126 0.107,0.41921 0.191,0.018 0.637,0.11033 0.991,0.20526 0.598,0.16029 2.586,0.62903 5.15,1.2139 0.59,0.13463 2.038,0.61541 3.219,1.06839 1.18,0.45298 3.787,0.94297 5.793,1.08886 2.007,0.14589 3.713,0.44984 3.792,0.67545 0.08,0.22561 0.899,0.53043 1.823,0.67738 0.925,0.14695 1.681,0.44598 1.681,0.6645 0,0.21852 0.189,0.2811 0.42,0.13907 0.232,-0.14203 0.79,-0.0616 1.242,0.1787 0.452,0.24032 1.856,0.46746 3.12,0.50475 1.265,0.0373 2.541,0.25706 2.836,0.48837 0.295,0.2313 0.536,0.2915 0.536,0.13377 0,-0.15773 0.338,-0.0911 0.751,0.14812 0.868,0.50256 1.65,0.55289 3,0.19317 z m 35.369,-6.12932 c 0.01,-1.22343 -0.201,-2.44147 -0.468,-2.70675 -0.36,-0.35868 -0.473,-0.15595 -0.439,0.7907 0.02,0.70017 -0.04,1.65704 -0.145,2.12637 -0.192,0.86378 0.455,2.59046 0.831,2.21692 0.112,-0.11155 0.212,-1.20381 0.221,-2.42724 z m -82.465,-6.85486 c 0,-0.24851 0.19,-0.33454 0.424,-0.19117 0.243,0.14948 0.315,-0.0218 0.168,-0.40149 -0.178,-0.46202 0.02,-0.67828 0.649,-0.71549 0.497,-0.0293 1.146,-0.0786 1.441,-0.10936 0.35,-0.0366 0.527,-0.75897 0.509,-2.08 -0.01,-1.11319 0.08,-2.02397 0.215,-2.02397 0.133,0 0.241,-0.46167 0.241,-1.02593 0,-0.56425 -0.12,-0.95176 -0.268,-0.86111 -0.147,0.0906 -0.268,-0.30819 -0.268,-0.8863 0,-0.61217 0.184,-0.93774 0.442,-0.77963 0.281,0.17268 0.308,0.0561 0.07,-0.32028 -0.45,-0.72424 -0.583,-2.10009 -0.202,-2.10009 0.39,0 0.293,-2.23612 -0.125,-2.88 -0.191,-0.29333 -0.191,-0.53332 0,-0.53331 0.191,10e-6 0.347,-2.59196 0.347,-5.75994 0,-3.16798 -0.101,-5.75999 -0.225,-5.76002 -0.124,-3e-5 -0.226,-1.05606 -0.228,-2.34673 0,-1.29066 0.115,-2.34666 0.258,-2.34666 0.144,0 0.18,-0.55395 0.08,-1.231 -0.1,-0.67706 0.05,-1.66023 0.331,-2.18483 0.283,-0.5246 0.326,-0.83823 0.1,-0.69696 -0.257,0.1576 -0.401,-0.81175 -0.373,-2.50851 0.03,-1.55665 0.237,-2.76823 0.483,-2.7719 0.289,-0.004 0.292,-0.11231 0,-0.32 -0.445,-0.32456 -0.676,-6.49939 -0.244,-6.50111 0.134,-5.3e-4 0.244,-3.21653 0.244,-7.14666 0,-7.48885 0.459,-9.91633 1.876,-9.92166 0.384,-10e-4 1.222,-0.27395 1.861,-0.60556 1.236,-0.64125 3.36,-0.52423 4.958,0.27315 0.751,0.37483 0.961,0.82937 0.929,2.00971 -0.06,2.31522 0.433,9.4545 0.683,9.85769 0.122,0.19544 0.02,0.47787 -0.222,0.62764 -0.244,0.14976 -0.301,0.49903 -0.126,0.77615 0.432,0.68707 0.542,1.57053 0.195,1.57046 -0.497,-1e-4 0,11.88522 0.54,12.74344 0.165,0.2658 0.107,0.48328 -0.13,0.48328 -0.236,0 -0.331,0.432 -0.21,0.96 0.363,1.58279 0.432,5.10605 0.138,7.0552 -0.151,1.00569 -0.156,1.90171 -0.01,1.99115 0.322,0.19778 0.276,6.31506 -0.05,6.87504 -0.128,0.21923 -0.15,0.78261 -0.05,1.25194 0.102,0.46934 0.169,1.14134 0.149,1.49334 -0.02,0.352 -0.08,2.368 -0.132,4.48 -0.05,2.112 -0.24,4.05824 -0.415,4.32499 -0.174,0.26674 -0.02,0.73031 0.344,1.03016 0.556,0.45874 0.699,0.39876 0.904,-0.37832 0.162,-0.61667 0.578,-0.9235 1.252,-0.9235 0.698,0 0.937,-0.18784 0.774,-0.60887 -0.169,-0.43797 0,-0.54683 0.616,-0.38784 0.61,0.15864 1.46,-0.37297 3.011,-1.88316 1.259,-1.22525 3.024,-2.42335 4.227,-2.86826 2.111,-0.78135 3.273,-1.5052 2.415,-1.5052 -0.553,0 -1.055,-1.61886 -0.59,-1.90453 0.278,-0.17115 0.29,-2.16358 0.02,-2.78881 -0.05,-0.11733 -0.04,-0.40533 0.02,-0.64 0.193,-0.7034 0.394,-6.56485 0.366,-10.66666 -0.01,-2.112 -0.01,-4.08 0.01,-4.37334 0.07,-1.04329 0.08,-1.64996 0.06,-5.86666 0,-2.34667 0.05,-5.08653 0.139,-6.08858 0.09,-1.00205 0.03,-1.90001 -0.128,-1.99548 -0.23,-0.14154 -0.267,-2.58261 -0.04,-2.58261 0.326,0 0.254,-1.55188 -0.08,-1.75831 -0.274,-0.16861 -0.22,-0.4047 0.146,-0.63516 0.32,-0.20174 0.389,-0.36969 0.153,-0.37324 -0.467,-0.007 -0.481,-4.78049 -0.02,-5.5284 0.155,-0.24835 0.104,-0.45156 -0.112,-0.45156 -0.226,0 -0.302,-1.94287 -0.18,-4.58666 0.118,-2.52267 0.207,-5.49154 0.199,-6.59749 -0.01,-1.81567 0.106,-2.06409 1.232,-2.55971 0.686,-0.30188 1.355,-0.88501 1.486,-1.29584 0.287,-0.90116 2.25,-1.01424 2.584,-0.1489 0.127,0.32893 0.847,0.71297 1.6,0.85342 1.835,0.34225 2.314,1.25624 2.376,4.53501 0.03,1.51809 0.113,3.38465 0.187,4.1479 0.07,0.76325 0,1.59284 -0.149,1.84354 -0.155,0.2507 -0.144,1.21023 0.03,2.13228 0.17,0.92205 0.168,1.67645 0,1.67645 -0.172,0 -0.22,0.528 -0.107,1.17334 0.175,1.00488 0.237,25.5355 0.06,26.13333 -0.03,0.11733 -0.04,0.34895 -0.02,0.5147 0.02,0.16575 0.135,1.12575 0.247,2.13333 0.111,1.00759 0.295,2.25993 0.409,2.783 0.113,0.52306 0.02,1.06433 -0.203,1.20281 -0.226,0.13849 -0.279,0.46321 -0.118,0.72162 0.161,0.2584 0.25,1.50172 0.199,2.76292 -0.05,1.26121 0.03,2.68494 0.184,3.16385 0.278,0.87058 0.278,0.87058 1.252,-0.0386 0.535,-0.50011 1.145,-0.87779 1.354,-0.83929 1.114,0.20483 1.47,-0.0569 1.075,-0.79018 -0.229,-0.42533 -0.278,-1.87933 -0.113,-3.30667 0.163,-1.40114 0.275,-3.84353 0.25,-5.42753 -0.03,-1.80819 0.128,-2.88243 0.42,-2.88653 0.328,-0.005 0.326,-0.0992 0,-0.32 -0.299,-0.19866 -0.482,-2.26687 -0.498,-5.6468 -0.03,-7.22533 -0.243,-11.94667 -0.528,-11.94667 -0.13,0 -0.214,-0.912 -0.187,-2.02667 0.03,-1.11466 -0.12,-2.36266 -0.328,-2.77333 -0.26,-0.5159 -0.207,-0.75708 0.174,-0.78035 0.435,-0.0265 0.437,-0.0797 0.01,-0.24978 -0.297,-0.11885 -0.426,-0.39887 -0.287,-0.62228 0.394,-0.6339 0.453,-5.06759 0.07,-5.06759 -0.189,0 -0.166,-0.336 0.05,-0.74667 0.218,-0.41066 0.348,-1.70666 0.288,-2.88 -0.06,-1.17333 0.06,-2.46933 0.277,-2.88 0.239,-0.46098 0.228,-0.74666 -0.03,-0.74666 -0.256,0 -0.273,-0.48952 -0.04,-1.28824 0.237,-0.82266 0.22,-1.19523 -0.05,-1.03091 -0.254,0.1559 -0.314,-0.15884 -0.153,-0.79856 0.158,-0.62511 0.06,-1.18365 -0.243,-1.36908 -0.383,-0.2352 -0.365,-0.4062 0.07,-0.68655 0.38,-0.24372 0.429,-0.48443 0.141,-0.69333 -0.511,-0.37137 -0.556,-3.90666 -0.06,-4.69333 0.186,-0.29334 0.174,-0.53334 -0.03,-0.53334 -0.443,0 -0.506,-1.83547 -0.07,-2.13603 0.171,-0.11882 0.04,-0.58752 -0.296,-1.04155 -0.334,-0.45403 -0.607,-0.59682 -0.607,-0.3173 0,0.27952 -0.472,0.50822 -1.048,0.50822 -0.576,0 -1.167,0.192 -1.313,0.42666 -0.145,0.23467 -0.722,0.42667 -1.282,0.42667 -0.559,0 -1.306,0.288 -1.66,0.64 -0.355,0.352 -0.905,0.64 -1.223,0.64 -0.319,0 -1.037,0.31858 -1.596,0.70795 -0.559,0.38937 -1.519,0.761 -2.134,0.82584 -0.614,0.0648 -1.6,0.22303 -2.19,0.35152 -0.59,0.1285 -1.606,0.34849 -2.257,0.48888 -0.651,0.14039 -1.076,0.42942 -0.943,0.64231 0.132,0.21288 -0.07,0.26918 -0.446,0.1251 -0.728,-0.27756 -2.026,1.05668 -1.637,1.68223 0.12,0.19428 -0.04,0.31478 -0.36,0.26777 -1.416,-0.20873 -3.369,0.58097 -3.369,1.36173 0,0.44 -0.242,0.82476 -0.537,0.85502 -1.141,0.11706 -2.818,0.37641 -6.33,0.97911 -2.007,0.34431 -3.72,0.63649 -3.808,0.64928 -0.09,0.0128 0.05,0.27662 0.31,0.58628 0.366,0.4382 0.116,0.71621 -1.127,1.25391 -0.879,0.37999 -2.154,0.82573 -2.834,0.99054 -0.68,0.16482 -1.325,0.63596 -1.433,1.04699 -0.108,0.41103 -0.759,0.85903 -1.445,0.99556 -1.004,0.19967 -1.219,0.4382 -1.098,1.21911 0.08,0.53398 -0.02,1.54687 -0.231,2.25087 -0.494,1.65535 -1.15,30.44878 -0.773,33.92 0.143,1.31787 0.102,11.96202 -0.09,22.74404 -0.07,4.17855 0,7.97055 0.174,8.42666 0.325,0.8737 1.195,1.14856 1.195,0.37745 z m 7.432,-4.50169 c -0.262,-0.67901 -0.875,-0.60016 -1.93,0.24836 -1.199,0.96325 -0.934,1.2586 0.684,0.76488 0.935,-0.28536 1.386,-0.65191 1.246,-1.01324 z m 2.009,-0.85211 c 0,-0.0922 -0.397,-0.16768 -0.883,-0.16768 -0.487,0 -0.77,0.18361 -0.63,0.40803 0.229,0.36839 1.513,0.1644 1.513,-0.24035 z m -1.961,-1.0688 c -0.211,-0.33942 0.745,-0.57887 1.671,-0.41884 0.195,0.0336 0.241,-0.12018 0.104,-0.34174 -0.138,-0.22156 0.09,-0.74046 0.504,-1.15311 0.773,-0.76821 1.026,-2.33041 0.925,-5.71853 -0.201,-6.74908 -0.12,-12.91182 0.173,-13.09188 0.188,-0.11592 0.144,-0.44857 -0.1,-0.73923 -0.592,-0.70984 -0.498,-5.85073 0.121,-6.62412 0.397,-0.4953 0.368,-0.54172 -0.15,-0.2381 -0.535,0.31304 -0.554,0.2659 -0.111,-0.27736 0.293,-0.35997 0.401,-0.78473 0.241,-0.94392 -0.474,-0.47146 -0.453,-1.97872 0.03,-1.97872 0.281,0 0.266,-0.17599 -0.04,-0.48084 -0.32,-0.31764 -0.352,-0.82449 -0.1,-1.49334 0.213,-0.55687 0.245,-1.01249 0.07,-1.01249 -0.174,0 -0.314,-1.3623 -0.311,-3.02735 0,-1.66504 -0.101,-3.09328 -0.232,-3.17386 -0.131,-0.0806 -0.214,-2.60628 -0.183,-5.61265 0.03,-3.00638 -0.128,-5.70614 -0.351,-5.99947 -0.256,-0.33606 -0.254,-0.53333 0,-0.53333 0.541,0 0.55,-1.35025 0.01,-2.02667 -0.284,-0.3584 -0.249,-0.74147 0.107,-1.1679 0.645,-0.77341 0.273,-1.92543 -0.622,-1.92543 -0.36,0 -0.895,0.384 -1.19,0.85333 -0.295,0.46933 -0.754,0.85333 -1.021,0.85333 -0.601,0 -1.017,2.99433 -1.306,9.38667 -0.236,5.2204 -0.59,21.96284 -0.511,24.10667 0.111,2.96385 -0.03,17.71312 -0.195,20.26666 -0.1,1.52534 -0.117,2.88532 -0.04,3.0222 0.07,0.13687 0.72,0.16337 1.436,0.0589 0.716,-0.10449 1.196,-0.36048 1.066,-0.56886 z m 4.965,-2.58333 c 0,-0.97778 -0.138,-1.63988 -0.308,-1.47134 -0.411,0.40896 -0.423,3.24914 -0.01,3.24913 0.177,-10e-6 0.322,-0.80001 0.322,-1.77779 z m -0.136,-4.70222 c -0.137,-0.34037 -0.238,-0.23926 -0.259,0.25778 -0.02,0.44978 0.08,0.70178 0.225,0.56 0.143,-0.14178 0.158,-0.50978 0.03,-0.81778 z m 20.56,-3.36493 c 0.687,-0.56708 0.815,-1.67507 0.194,-1.67507 -0.227,0 -0.854,0.46238 -1.395,1.02751 -0.541,0.56513 -1.369,1.13511 -1.841,1.26661 -0.472,0.1315 -0.117,0.15842 0.789,0.0598 0.906,-0.0986 1.92,-0.40409 2.253,-0.67885 z m -19.994,0.0316 c 0,-0.23467 -0.194,-0.42667 -0.43,-0.42667 -0.236,0 -0.429,0.192 -0.429,0.42667 0,0.23466 0.193,0.42666 0.429,0.42666 0.236,0 0.43,-0.192 0.43,-0.42666 z m 0.17,-1.20889 c 0.121,-0.19556 -0.05,-0.35556 -0.385,-0.35556 -0.333,0 -0.507,0.16 -0.385,0.35556 0.122,0.19555 0.295,0.35555 0.385,0.35555 0.09,0 0.263,-0.16 0.385,-0.35555 z m 17.496,-0.87179 c -0.427,-0.26958 -0.319,-0.42844 0.43,-0.62764 0.551,-0.14668 1.404,-0.26932 1.896,-0.27252 1.028,-0.007 1.012,0.0621 1.119,-4.5925 0.04,-1.936 0.247,-3.52 0.45,-3.52 0.203,0 0.185,-0.32589 -0.04,-0.72421 -0.247,-0.4385 -0.256,-1.12142 -0.02,-1.73105 0.229,-0.59821 0.228,-0.9102 0,-0.76872 -0.551,0.3384 -1.031,-3.68491 -0.684,-5.72775 0.199,-1.17371 0.136,-1.71493 -0.201,-1.71493 -0.287,0 -0.352,-0.22301 -0.157,-0.53334 0.53,-0.84445 0.54,-1.6 0.02,-1.6 -0.346,0 -0.344,-0.13207 0,-0.48084 0.32,-0.31764 0.353,-0.82449 0.1,-1.49333 -0.213,-0.55687 -0.231,-1.01249 -0.04,-1.01249 0.191,0 0.311,-0.432 0.267,-0.96 -0.05,-0.528 0.07,-1.37226 0.258,-1.87613 0.187,-0.50387 0.22,-1.03511 0.07,-1.18052 -0.146,-0.14541 -0.317,-3.86115 -0.378,-8.2572 -0.06,-4.39605 -0.216,-9.14482 -0.342,-10.55282 -0.125,-1.408 -0.301,-3.70281 -0.39,-5.09958 -0.17,-2.65779 -0.494,-3.04838 -2.182,-2.62734 -1.099,0.27431 -1.129,0.48852 -1.253,9.11359 -0.03,2.17066 -0.216,3.94666 -0.41,3.94666 -0.195,0 -0.207,0.23574 -0.03,0.52387 0.435,0.70026 0.52,22.11284 0.09,22.99337 -0.185,0.37981 -0.198,0.82783 -0.03,0.99559 0.35,0.34822 0.427,15.1666 0.08,15.16695 -0.126,1.2e-4 -0.222,0.6721 -0.215,1.49329 0.01,1.30632 0.147,1.49227 1.086,1.4868 0.752,-0.004 0.902,-0.11436 0.5,-0.36721 z m -17.48,-1.80403 c -0.374,-0.60242 -1.045,-0.44544 -1.045,0.24465 0,0.38062 0.252,0.53057 0.641,0.38196 0.353,-0.13456 0.535,-0.41653 0.404,-0.62661 z m -0.24,-1.55529 c 0.03,-0.176 -0.09,-0.336 -0.268,-0.35556 -0.177,-0.0196 -0.156,0.0517 0.05,0.15832 0.204,0.10662 0.107,0.37724 -0.214,0.60137 -0.322,0.22412 -0.368,0.29688 -0.103,0.16168 0.266,-0.1352 0.507,-0.38981 0.537,-0.56581 z m -0.22,-2.88 c -0.262,-0.67669 -1.014,-0.88783 -1.014,-0.28445 0,0.45121 0.469,0.92445 0.916,0.92445 0.19,0 0.233,-0.288 0.1,-0.64 z m 0.31,-2.24 c 0.04,-0.78154 0,-7.69885 -0.06,-10.45334 -0.02,-0.88 -0.214,-1.6 -0.436,-1.6 -0.232,0 -0.402,2.7031 -0.402,6.4 0,3.98223 0.162,6.4 0.429,6.4 0.236,0 0.446,-0.336 0.466,-0.74666 z m -0.153,-17.43111 c -0.142,-0.14178 -0.512,-0.15694 -0.822,-0.0337 -0.343,0.1362 -0.241,0.23731 0.259,0.25778 0.452,0.0185 0.706,-0.0823 0.563,-0.22409 z m -0.493,-2.62331 c -0.495,-0.49226 -0.749,0.27869 -0.411,1.24893 l 0.345,0.99215 0.158,-0.99663 c 0.09,-0.54815 0.05,-1.10815 -0.09,-1.24445 z m 0.128,-1.27892 c 0,-0.41066 0.02,-1.80266 0.05,-3.09333 0.07,-3.3518 -0.424,-5.15094 -1.005,-3.64507 -0.14,0.36212 -0.115,0.65829 0.05,0.65815 0.17,-1.4e-4 0.286,0.71986 0.259,1.6 -0.03,0.88014 0.166,1.74131 0.429,1.91372 0.296,0.19365 0.309,0.31596 0.04,0.32 -0.372,0.005 -0.441,0.78934 -0.236,2.6732 0.07,0.64827 0.411,0.29569 0.412,-0.42667 z m -0.09,-10.09265 c 0,-0.32963 -0.257,-0.50109 -0.572,-0.38102 -0.315,0.12007 -0.572,0.38976 -0.572,0.59932 0,0.20956 0.257,0.38102 0.572,0.38102 0.315,0 0.572,-0.26969 0.572,-0.59932 z m 22.675,-12.20068 c 0.145,-0.23467 0.06,-0.42667 -0.19,-0.42667 -0.25,0 -0.454,0.192 -0.454,0.42667 0,0.23467 0.08,0.42667 0.189,0.42667 0.104,0 0.309,-0.192 0.455,-0.42667 z m -30.802,-1.53778 c -0.143,-0.14178 -0.513,-0.15693 -0.823,-0.0337 -0.342,0.1362 -0.24,0.2373 0.26,0.25778 0.452,0.0185 0.706,-0.0823 0.563,-0.2241 z"
         id="path1" /></g></g></svg>
