<?xml version="1.0" encoding="UTF-8" standalone="no"?>
<!-- Created with Inkscape (http://www.inkscape.org/) -->

<svg
   width="231.38646"
   height="235.24007"
   viewBox="0 0 61.221 62.240601"
   version="1.1"
   id="svg1"
   xml:space="preserve"
   xmlns="http://www.w3.org/2000/svg"
   xmlns:svg="http://www.w3.org/2000/svg"><defs
     id="defs1" /><g
     id="g2047"
     transform="matrix(0.26458333,0,0,0.26458333,-5299.2671,-10.12824)"><g
       id="g2168"
       transform="translate(-1166.5275,-11.96667)"><path
         style="fill:#000000"
         d="m 21308.047,247.42003 c -1.094,-0.23131 -1.778,-0.86726 -1.47,-1.36598 0.379,-0.6126 0.414,-9.61353 0.04,-10.38951 -0.173,-0.3612 -0.154,-0.75225 0.04,-0.87459 0.197,-0.12172 0.291,-1.18305 0.208,-2.35853 -0.08,-1.17548 -0.02,-2.05705 0.138,-1.95904 0.359,0.22224 0.274,-1.2567 -0.128,-2.2182 -0.165,-0.3937 -0.144,-0.82877 0.05,-0.96683 0.68,-0.49276 0.947,-3.06941 0.398,-3.83552 -0.232,-0.32324 -0.11,-0.7578 0.356,-1.27351 0.626,-0.69117 0.632,-0.75341 0.05,-0.53147 -0.36,0.13826 -0.655,0.069 -0.655,-0.15396 0,-0.22294 -0.74,-0.55929 -1.644,-0.74744 -1.124,-0.23393 -1.6,-0.51624 -1.506,-0.8929 0.08,-0.30295 0.141,-0.94555 0.145,-1.42801 0,-0.48245 0.163,-0.97306 0.352,-1.09023 0.19,-0.11717 0.247,-0.37144 0.128,-0.56505 -0.12,-0.1936 -0.02,-0.72467 0.225,-1.18013 0.308,-0.57596 0.314,-0.74808 0.02,-0.56527 -0.234,0.14458 -0.425,0.0888 -0.425,-0.12387 0,-0.2127 0.155,-0.48253 0.344,-0.59963 0.38,-0.23503 0.294,-3.45842 -0.128,-4.78891 -0.161,-0.50553 -0.104,-0.84478 0.141,-0.84478 0.333,0 0.339,-1.8226 0.01,-2.70711 -0.222,-0.59443 -0.129,-5.64129 0.107,-5.81808 0.154,-0.11578 0.103,-0.8554 -0.115,-1.6436 -0.319,-1.15596 -0.579,-1.43311 -1.344,-1.43311 -0.522,0 -0.949,-0.19265 -0.949,-0.4281 0,-0.23546 -0.27,-0.32447 -0.6,-0.1978 -0.33,0.12667 -0.499,0.0671 -0.376,-0.13245 0.232,-0.37465 -2.284,-1.02577 -3.234,-0.83704 -0.329,0.0655 -0.452,-0.11017 -0.319,-0.45683 0.245,-0.63824 -1.417,-1.0302 -4.398,-1.03736 -0.975,-0.002 -1.903,-0.13478 -2.062,-0.2943 -0.16,-0.15953 -0.43,-0.29005 -0.601,-0.29005 -0.171,0 -0.635,-0.35626 -1.031,-0.79169 -0.397,-0.43543 -0.569,-0.56595 -0.383,-0.29005 0.208,0.31033 0.177,0.50164 -0.08,0.50164 -0.232,0 -0.607,-0.34805 -0.835,-0.77346 -0.352,-0.65772 -0.81,-0.77346 -3.059,-0.77346 -3.291,0 -5.332,-0.36409 -4.61,-0.82211 0.358,-0.22683 0.214,-0.32804 -0.471,-0.33215 -1.144,-0.007 -1.937,-0.65722 -1.666,-1.36512 0.144,-0.37547 -0.89,-0.52691 -4.38,-0.64153 -2.971,-0.0975 -4.908,-0.34127 -5.537,-0.69645 -0.531,-0.30052 -1.228,-0.56995 -1.547,-0.59875 -0.319,-0.0288 -0.903,-0.0821 -1.298,-0.11849 -0.467,-0.0431 -0.64,-0.2687 -0.495,-0.64625 0.151,-0.39458 -0.02,-0.58009 -0.539,-0.58009 -0.702,0 -0.917,0.45534 -0.865,1.83696 0.01,0.26588 -0.118,0.48341 -0.285,0.48341 -0.166,0 -0.171,0.65261 0,1.45024 0.161,0.79763 0.233,2.23337 0.16,3.19052 -0.07,0.95716 -0.197,2.5208 -0.274,3.47476 -0.08,0.95397 -0.01,2.29397 0.141,2.9778 0.154,0.68382 0.17,1.35351 0.04,1.48819 -0.135,0.13467 -0.274,1.49211 -0.308,3.01651 -0.03,1.52441 -0.18,5.03402 -0.323,7.79914 -0.32,6.15453 -0.373,15.86073 -0.122,21.92586 0.103,2.48765 0.09,4.51188 -0.04,4.49828 -1.124,-0.12252 -2.265,0.15651 -2.25,0.55027 0.06,1.7166 -0.07,1.83697 -2.06,1.83697 -1.206,0 -1.865,-0.14838 -1.718,-0.38673 0.132,-0.21271 -0.1,-0.38673 -0.505,-0.38673 -0.656,0 -0.711,-0.18109 -0.465,-1.52543 0.175,-0.958 0.119,-1.69846 -0.149,-1.99057 -0.325,-0.35367 -0.252,-0.40304 0.304,-0.206 0.611,0.21668 0.654,0.16542 0.257,-0.31287 -0.261,-0.31461 -0.363,-0.75366 -0.226,-0.97568 0.138,-0.22202 0.04,-0.40367 -0.207,-0.40367 -0.313,0 -0.336,-0.15255 -0.07,-0.48341 0.212,-0.26588 0.336,-0.78797 0.275,-1.16019 -0.06,-0.37223 0.03,-0.67678 0.203,-0.67678 0.171,0 0.286,-0.43495 0.255,-0.96655 -0.03,-0.53161 -0.157,-0.96668 -0.281,-0.96683 -0.124,-1.5e-4 -0.226,-0.26131 -0.226,-0.58037 0,-0.31905 0.189,-0.58276 0.419,-0.58601 0.231,-0.003 0.158,-0.17462 -0.161,-0.38081 -0.515,-0.33323 -0.515,-0.3762 0,-0.38673 0.516,-0.0105 0.516,-0.0535 0,-0.38673 -0.515,-0.33323 -0.515,-0.3762 0,-0.38673 0.516,-0.0105 0.516,-0.0574 0,-0.42209 -0.426,-0.30172 -0.455,-0.46126 -0.106,-0.60307 0.355,-0.14468 0.319,-0.42694 -0.142,-1.13074 -0.492,-0.75095 -0.509,-0.93912 -0.09,-0.94386 0.426,-0.005 0.421,-0.0734 -0.03,-0.35726 -0.428,-0.27114 -0.452,-0.4749 -0.106,-0.89275 0.343,-0.41271 0.337,-0.66306 -0.02,-1.05304 -0.382,-0.41169 -0.361,-0.44827 0.105,-0.18727 0.489,0.27313 0.502,0.22696 0.08,-0.29239 -0.408,-0.504 -0.408,-0.65355 0,-0.81825 0.363,-0.14645 0.38,-0.28886 0.06,-0.52102 -0.534,-0.38969 -0.588,-2.5283 -0.06,-2.19942 0.227,0.14025 0.219,-0.0633 -0.02,-0.5113 -0.233,-0.43463 -0.259,-0.96928 -0.06,-1.28508 0.184,-0.29743 0.237,-0.69795 0.118,-0.89003 -0.484,-0.78428 -0.561,-2.97489 -0.104,-2.97489 0.361,0 0.362,-0.125 0,-0.55538 -0.353,-0.42552 -0.355,-0.75291 0,-1.40022 0.249,-0.46467 0.304,-0.75353 0.124,-0.64192 -0.181,0.11162 -0.299,-1.39013 -0.263,-3.33721 0.04,-1.94709 0.06,-3.88821 0.06,-4.31362 0,-0.4254 -0.03,-4.21041 -0.06,-8.41113 -0.04,-4.55841 0.09,-7.63776 0.303,-7.63791 0.2,-1.3e-4 0.03,-0.25575 -0.387,-0.56804 -0.463,-0.3502 -0.556,-0.57251 -0.244,-0.58009 0.302,-0.007 0.387,-0.20495 0.212,-0.48892 -0.385,-0.6228 -0.473,-1.85721 -0.117,-1.63697 0.153,0.094 0.36,-0.26212 0.461,-0.7914 0.101,-0.52927 0.04,-0.96231 -0.14,-0.96231 -0.178,0 -0.158,-0.43356 0.04,-0.96347 0.202,-0.52991 0.255,-1.25457 0.118,-1.61036 -0.185,-0.48375 -0.109,-0.56536 0.301,-0.32361 0.334,0.19679 0.284,0.0202 -0.128,-0.45136 -0.373,-0.42605 -0.547,-0.90553 -0.387,-1.06552 0.321,-0.32088 0.406,-2.54692 0.1,-2.54665 -0.106,9e-5 -0.143,-0.73953 -0.08,-1.6436 0.186,-2.76229 0.473,-10.1161 0.419,-10.73193 -0.03,-0.31905 -0.09,-2.3678 -0.138,-4.55278 -0.05,-2.18498 -0.188,-4.07368 -0.311,-4.19711 -0.124,-0.12343 -0.1,-0.59809 0.06,-1.0548 0.156,-0.45671 0.26,-1.49043 0.232,-2.29717 -0.03,-0.80674 0.08,-1.54919 0.246,-1.64989 0.163,-0.10071 0.191,-0.65885 0.06,-1.24032 -0.248,-1.12391 -0.251,-1.98772 -0.01,-4.65835 0.08,-0.91712 0,-1.76136 -0.189,-1.87609 -0.185,-0.11472 -0.219,-0.49554 -0.07,-0.84625 0.477,-1.1534 0.497,-3.54239 0.03,-3.26138 -0.238,0.14214 -0.18,-0.0523 0.129,-0.43214 0.7,-0.86246 0.897,-2.9363 0.279,-2.94438 -0.262,-0.003 -0.209,-0.16399 0.127,-0.3808 0.319,-0.20619 0.406,-0.38022 0.193,-0.38673 -0.212,-0.007 -0.156,-0.15792 0.126,-0.33646 0.416,-0.26409 0.4,-0.43608 -0.09,-0.9225 -0.528,-0.52767 -0.531,-0.65383 -0.02,-1.07433 0.391,-0.32483 0.452,-0.62307 0.192,-0.9372 -0.211,-0.25342 -0.304,-0.87004 -0.208,-1.37027 0.1,-0.50024 -0.03,-1.15321 -0.274,-1.45106 -0.308,-0.37124 -0.322,-0.62349 -0.04,-0.80211 0.413,-0.2655 0.453,-1.51378 0.07,-2.20103 -0.116,-0.20896 -0.141,-0.90201 -0.05,-1.54012 0.09,-0.6381 0.232,-1.94331 0.324,-2.90047 0.09,-0.95716 0.194,-2.00133 0.226,-2.32038 0.03,-0.31905 -0.05,-1.40673 -0.183,-2.41706 -0.133,-1.01033 -0.106,-1.83697 0.06,-1.83697 0.313,0 0.294,-1.19959 -0.08,-5.29385 -0.204,-2.22665 -0.167,-2.38322 0.538,-2.24743 0.438,0.0844 0.721,-0.0481 0.669,-0.31373 -0.08,-0.43423 0.106,-0.50016 1.748,-0.60843 0.373,-0.0245 0.677,-0.22477 0.677,-0.44495 0,-0.26258 -0.299,-0.24703 -0.87,0.0452 -0.824,0.42188 -0.836,0.40925 -0.218,-0.23818 0.359,-0.37603 1.142,-0.72715 1.74,-0.78027 0.599,-0.0531 1.132,-0.13126 1.185,-0.17363 0.05,-0.0424 0.575,-0.0922 1.16,-0.11078 0.585,-0.0186 1.294,-0.30571 1.576,-0.63811 0.423,-0.500005 0.469,-0.504193 0.261,-0.0242 -0.138,0.31905 0.03,0.23203 0.375,-0.19337 0.344,-0.425401 0.705,-0.729951 0.802,-0.676775 0.471,0.257673 0.94,0.04521 0.853,-0.38673 -0.06,-0.279028 0.206,-0.4316 0.619,-0.360865 0.43,0.07356 0.614,-0.04238 0.461,-0.290047 -0.147,-0.23837 0.06,-0.412595 0.498,-0.412595 0.477,0 0.734,-0.245391 0.7,-0.667827 -0.05,-0.650293 1.147,-0.961805 5.231,-1.358964 0.567,-0.05512 1.002,-0.250443 0.966,-0.434044 -0.03,-0.1836 0.364,-0.405531 0.887,-0.493178 0.522,-0.08765 1.081,-0.372499 1.242,-0.633005 0.161,-0.260505 0.474,-0.495399 0.694,-0.521987 0.22,-0.02659 0.585,-0.07009 0.81,-0.09668 0.226,-0.02659 0.286,-0.249258 0.134,-0.494824 -0.172,-0.277679 -0.106,-0.341463 0.173,-0.168708 0.477,0.294696 1.722,-0.685296 1.347,-1.060233 -0.122,-0.12132 0.191,-0.307353 0.695,-0.413406 1.367,-0.287936 7.02,-0.768461 7.662,-0.651402 0.488,0.08888 0.488,0.01398 0,-0.586828 -0.307,-0.378791 -0.353,-0.565451 -0.102,-0.414801 0.251,0.15065 0.559,0.108116 0.684,-0.09452 0.125,-0.202636 0.529,-0.359148 0.897,-0.347804 0.903,0.02782 5.874,-1.084641 6.17,-1.380744 0.129,-0.12981 -0.09,-0.236018 -0.483,-0.236018 -0.685,0 -0.684,-0.02605 0.03,-0.567795 0.986,-0.745629 6.547,-0.844468 6.131,-0.108982 -0.218,0.38673 -0.168,0.38673 0.248,0 0.287,-0.265877 0.965,-0.480747 1.507,-0.47749 0.779,0.0047 0.864,0.08478 0.406,0.380808 -0.387,0.249924 -0.419,0.37686 -0.1,0.380808 0.266,0.0033 0.484,0.272426 0.484,0.598154 0,0.325727 0.223,0.677946 0.496,0.782708 0.381,0.146261 0.472,1.602209 0.392,6.272223 -0.208,12.153301 -0.511,28.912671 -0.532,29.478901 -0.01,0.31905 0,2.23336 0.02,4.25403 0.02,2.02066 -0.02,4.63109 -0.08,5.80094 -0.07,1.16986 -0.05,2.28435 0.05,2.47665 0.142,0.29028 0.249,1.58363 0.449,5.45132 0.01,0.2127 -0.08,1.95298 -0.214,3.86729 -0.128,1.91432 -0.268,4.35072 -0.31,5.41422 -0.04,1.06351 -0.208,2.14081 -0.37,2.39401 -0.471,0.7373 1.227,2.00403 2.97,2.21559 0.873,0.10594 2.718,0.29157 4.101,0.4125 4.992,0.43669 5.684,0.61112 6.192,1.56156 0.266,0.49605 0.765,0.89657 1.109,0.89005 1.53,-0.0289 5.504,0.59793 5.689,0.89733 0.112,0.18171 0.716,0.33038 1.341,0.33038 0.626,0 1.138,0.17403 1.138,0.38673 0,0.21271 0.463,0.38673 1.029,0.38673 1.415,0 5.266,1.22901 5.738,1.83141 0.496,0.63121 5.17,1.6223 7.928,1.681 2.521,0.0537 3.66,0.37007 3.713,1.03167 0.02,0.26588 0.07,0.74446 0.1,1.06351 0.03,0.33582 0.444,0.58009 0.973,0.58009 0.858,0 0.897,0.0975 0.631,1.55525 -0.157,0.85539 -0.133,1.64908 0.05,1.76375 0.187,0.11589 0.168,0.5245 -0.04,0.91984 -0.285,0.53254 -0.232,0.76821 0.209,0.93762 0.448,0.17161 0.496,0.40227 0.2,0.95463 -0.214,0.4006 -0.28,0.83825 -0.145,0.97257 0.134,0.13431 -0.03,0.24421 -0.364,0.24421 -0.418,0 -0.545,0.24208 -0.406,0.77346 0.111,0.4254 0.04,0.77346 -0.151,0.77346 -0.406,0 -0.42,0.33296 -0.597,13.53554 -0.07,5.42389 -0.252,10.05488 -0.399,10.29109 -0.147,0.23621 -0.153,0.54387 -0.01,0.6837 0.365,0.36534 0.419,2.56396 0.07,2.78094 -0.163,0.10055 -0.206,0.57072 -0.1,1.04482 0.155,0.6694 0.581,15.03625 0.565,19.03148 0,0.42164 -0.215,1.16126 -0.473,1.6436 -0.43,0.80375 -0.738,0.87698 -3.691,0.87698 -2.097,0 -3.222,-0.14938 -3.222,-0.42811 0,-0.23545 0.254,-0.3308 0.564,-0.21187 0.456,0.17519 0.493,0.0315 0.193,-0.75726 -0.522,-1.37358 -0.465,-1.69229 0.307,-1.72713 0.408,-0.0184 0.484,-0.10823 0.191,-0.2264 -0.267,-0.10772 -0.377,-0.37245 -0.243,-0.58829 0.133,-0.21583 0.308,-3.02893 0.388,-6.25133 0.08,-3.22239 0.241,-7.42515 0.356,-9.33947 0.272,-4.53623 0.272,-10.1695 0,-10.60906 -0.118,-0.19067 0,-0.43531 0.271,-0.54363 0.368,-0.14909 0.345,-0.29809 -0.09,-0.61313 -0.371,-0.26649 -0.438,-0.52048 -0.186,-0.70622 0.462,-0.34035 0.512,-3.1691 0.07,-3.8593 -0.168,-0.26148 -0.147,-0.78357 0.05,-1.16019 0.194,-0.37662 0.278,-0.89193 0.187,-1.14513 -0.09,-0.2532 0,-1.07983 0.214,-1.83697 0.209,-0.75713 0.264,-1.3766 0.121,-1.3766 -0.142,0 -0.254,-1.14504 -0.249,-2.54453 0,-1.39949 -0.126,-2.62859 -0.292,-2.73133 -0.592,-0.36587 -2.954,0.78428 -3.427,1.66895 -0.334,0.62326 -0.825,0.8998 -1.6,0.8998 -0.646,0 -1.016,0.16298 -0.878,0.38673 0.131,0.2127 0.06,0.38673 -0.159,0.38673 -0.218,0 -0.302,0.24834 -0.185,0.55187 0.154,0.40298 0,0.49515 -0.592,0.34163 -0.443,-0.11564 -0.804,-0.0488 -0.804,0.14847 0,0.1973 -0.871,0.58181 -1.935,0.85447 -1.072,0.27485 -1.829,0.66525 -1.699,0.87619 0.373,0.6026 -1.254,1.86542 -2.441,1.89531 -1.027,0.0258 -3.028,0.66193 -2.263,0.71909 0.2,0.0149 0.03,0.2742 -0.386,0.5761 -0.413,0.30191 -0.751,0.77881 -0.751,1.05979 0,0.30641 -0.755,0.6488 -1.887,0.85552 -1.337,0.24439 -1.941,0.55484 -2.075,1.06722 -0.104,0.39742 -0.353,0.72258 -0.553,0.72258 -0.201,0 -0.259,0.17067 -0.13,0.37925 0.13,0.21019 -0.421,0.48562 -1.234,0.61786 -0.869,0.14122 -2.094,0.78208 -3.002,1.57014 -1.481,1.28695 -1.533,1.41424 -1.551,3.80131 0,1.35838 -0.145,2.59699 -0.3,2.75247 -0.156,0.15548 -0.08,0.53384 0.18,0.84079 0.337,0.40615 0.468,3.83807 0.48,12.60431 0.01,6.62541 0.158,12.26373 0.33,12.52961 0.172,0.26587 0.166,0.48341 -0.01,0.48341 -0.18,0 -0.321,2.56692 -0.313,5.70427 0.01,4.27131 0.136,5.7164 0.498,5.7526 0.265,0.0266 0.633,0.0701 0.817,0.0967 1.131,0.16375 -0.566,3.14944 -1.845,3.24578 -0.492,0.0371 -0.752,0.26031 -0.642,0.54929 0.103,0.26776 -0.11,0.66019 -0.473,0.87205 -0.533,0.31041 -0.549,0.38997 -0.08,0.40982 0.425,0.0181 0.352,0.21461 -0.274,0.73721 -0.469,0.39192 -0.753,0.81273 -0.631,0.93514 0.123,0.1224 -0.276,0.33257 -0.886,0.46704 -0.61,0.13447 -1.284,0.28484 -1.496,0.33417 -0.213,0.0493 -0.735,0.0161 -1.16,-0.0739 z m 1.898,-3.31403 c -0.03,-0.92771 -0.169,-1.88486 -0.318,-2.12702 -0.15,-0.24215 -0.12,-0.44028 0.07,-0.44028 0.186,0 0.274,-0.6526 0.194,-1.45023 -0.19,-1.91781 -0.186,-8.68335 0,-11.11849 0.08,-1.0635 0,-2.13569 -0.19,-2.38263 -0.21,-0.27434 -0.17,-0.55639 0.103,-0.72512 0.327,-0.20162 0.306,-0.36585 -0.08,-0.6086 -0.288,-0.18286 -0.342,-0.33513 -0.119,-0.33839 0.236,-0.003 0.34,-0.57544 0.248,-1.3648 -0.09,-0.74738 0.03,-1.59003 0.267,-1.87255 0.235,-0.28252 0.309,-0.63172 0.164,-0.77601 -0.363,-0.36348 -0.438,-1.79351 -0.09,-1.79351 0.155,0 0.144,-0.6091 -0.02,-1.35355 -0.205,-0.90852 -0.167,-1.35356 0.118,-1.35356 0.284,0 0.27,-0.15273 -0.04,-0.46407 -0.593,-0.5926 -0.606,-1.21587 -0.02,-0.85255 0.293,0.1807 0.341,0.10493 0.141,-0.21955 -0.169,-0.27251 -0.376,-3.30139 -0.462,-6.73084 -0.08,-3.42945 -0.17,-6.40938 -0.189,-6.62209 -0.02,-0.2127 0,-0.56075 0.06,-0.77346 0.261,-1.06124 -0.04,-1.78832 -0.673,-1.64899 -0.372,0.0814 -0.634,0.3531 -0.582,0.60376 0.05,0.25066 0.189,3.54686 0.303,7.3249 0.113,3.77803 0.257,7.60877 0.319,8.51275 0.06,0.90398 -0.04,1.6436 -0.225,1.6436 -0.185,0 -0.169,0.30006 0.04,0.66679 0.241,0.43071 0.238,0.91966 0,1.38097 -0.252,0.47077 -0.251,1.08904 0,1.81408 0.21,0.60494 0.311,1.17182 0.223,1.25973 -0.238,0.23847 -0.631,7.1858 -0.71,12.55664 -0.04,2.59751 -0.19,4.84387 -0.338,4.9919 -0.148,0.14804 -0.08,0.5027 0.162,0.78815 0.316,0.38134 0.316,0.65665 0,1.03799 -0.237,0.28545 -0.328,0.62209 -0.202,0.74809 0.126,0.12601 0.318,0.88687 0.426,1.69082 0.186,1.38055 0.157,1.43028 -0.522,0.89551 -0.662,-0.52057 -0.677,-0.51165 -0.189,0.11057 0.292,0.37222 0.903,0.67677 1.359,0.67677 0.727,0 0.822,-0.20637 0.782,-1.68673 z m 2.692,-1.69715 c 0.107,-0.37223 0.111,-1.19887 0,-1.83697 -0.103,-0.6381 -0.159,-1.76929 -0.125,-2.51374 0.117,-2.53187 0.107,-2.90011 -0.125,-4.73193 -0.127,-1.0073 -0.08,-1.92388 0.101,-2.03686 0.395,-0.24418 0.311,-3.2821 -0.108,-3.93624 -0.162,-0.25118 -0.108,-0.57123 0.118,-0.71121 0.29,-0.17904 0.286,-0.40614 -0.01,-0.76575 -0.309,-0.37276 -0.303,-0.58604 0.02,-0.78738 0.335,-0.20705 0.336,-0.34463 0,-0.54992 -0.316,-0.19542 -0.331,-0.56904 -0.05,-1.30522 0.27,-0.70865 0.266,-1.03142 -0.01,-1.03142 -0.238,0 -0.295,-0.35605 -0.14,-0.87014 0.212,-0.70183 0.166,-0.77839 -0.236,-0.39583 -0.63,0.60025 -0.967,9.23203 -0.6,15.38161 0.09,1.48891 0.179,3.62076 0.2,4.73744 0.04,1.97528 0.561,2.71845 0.955,1.35356 z m -52.947,-3.60398 c -0.123,-0.198 -0.43,-0.34626 -0.683,-0.32947 -0.33,0.0219 -0.323,0.0862 0.02,0.22639 0.267,0.10773 0.371,0.38192 0.23,0.60932 -0.152,0.24643 -0.07,0.3004 0.198,0.13361 0.249,-0.15391 0.352,-0.44184 0.23,-0.63985 z m -1.144,-0.74673 c 0.132,-0.21271 0.06,-0.38673 -0.17,-0.38673 -0.226,0 -0.41,0.17402 -0.41,0.38673 0,0.2127 0.08,0.38673 0.171,0.38673 0.09,0 0.278,-0.17403 0.409,-0.38673 z m -0.02,-1.13347 c 0.122,-0.19801 0.07,-0.45139 -0.106,-0.56308 -0.181,-0.1117 -0.329,0.0503 -0.329,0.36 0,0.65209 0.122,0.70907 0.435,0.20308 z m 2.787,-0.55818 c 0.218,-0.16739 0.227,-4.14078 0.01,-4.3581 -0.456,-0.45594 -0.293,-0.97163 0.216,-0.68411 0.368,0.20786 0.378,0.15788 0.04,-0.20967 -0.284,-0.30859 -0.333,-0.87272 -0.134,-1.56453 0.19,-0.66429 0.152,-1.24 -0.1,-1.4914 -0.288,-0.28814 -0.262,-0.58622 0.09,-1.00595 0.272,-0.32807 0.327,-0.59649 0.121,-0.59649 -0.206,0 -0.341,-0.69611 -0.301,-1.54692 0.04,-0.8508 -0.06,-1.54692 -0.231,-1.54692 -0.167,0 -0.221,-0.39156 -0.119,-0.87014 0.151,-0.70454 0.429,-3.24072 0.606,-5.5109 0.02,-0.2127 -0.1,-0.69128 -0.251,-1.06351 -0.155,-0.37223 -0.13,-0.67678 0.05,-0.67678 0.184,0 0.37,-2.04483 0.413,-4.54407 0.04,-2.49924 0.104,-6.02332 0.136,-7.83128 0.03,-1.80796 0.01,-4.35053 -0.04,-5.65016 -0.05,-1.29962 0.02,-2.55662 0.167,-2.79333 0.495,-0.80203 0.654,-3.22526 0.192,-2.93981 -0.276,0.17075 -0.358,0.007 -0.23,-0.46021 0.556,-2.02704 0.661,-2.89965 0.323,-2.69073 -0.206,0.12703 -0.278,-0.11321 -0.164,-0.54769 0.129,-0.49403 0.01,-0.77614 -0.326,-0.77992 -0.39,-0.004 -0.407,-0.0832 -0.07,-0.30025 0.306,-0.19412 0.34,-0.48837 0.103,-0.86422 -0.432,-0.68208 -0.436,-0.65132 -0.628,4.84433 -0.07,2.12701 -0.211,5.34654 -0.302,7.1545 -0.272,5.39429 -0.642,19.29707 -0.772,29.0607 -0.07,5.02926 -0.252,9.35511 -0.411,9.613 -0.212,0.34272 -0.04,0.39278 0.629,0.18604 0.505,-0.15556 0.947,-0.30473 0.982,-0.33148 z m 46.197,-0.73186 c -0.381,-0.3791 -0.426,-0.33468 -0.216,0.21649 0.145,0.3814 0.361,0.59603 0.481,0.47697 0.119,-0.11907 0,-0.43113 -0.265,-0.69346 z m -48.586,-0.18692 c -0.07,-0.37223 -0.143,-0.8073 -0.159,-0.96682 -0.02,-0.15953 -0.334,-0.28452 -0.706,-0.27775 -0.613,0.0111 -0.606,0.0663 0.07,0.58009 0.743,0.56206 0.743,0.56807 0,0.59498 -0.728,0.0263 -0.727,0.0375 0.02,0.35955 0.426,0.1828 0.802,0.3446 0.836,0.35955 0.03,0.0149 0,-0.27737 -0.07,-0.6496 z m -0.621,-1.93365 c -0.03,-0.15953 -0.01,-0.37706 0.03,-0.48341 0.277,-0.68713 0.212,-2.00455 -0.109,-2.20314 -0.211,-0.13021 -0.267,-0.0478 -0.124,0.18301 0.143,0.23087 0.07,0.53641 -0.16,0.67897 -0.231,0.14256 -0.326,0.50264 -0.212,0.80018 0.114,0.29754 0.03,0.54098 -0.19,0.54098 -0.218,0 -0.289,0.17403 -0.158,0.38673 0.278,0.44955 0.989,0.52415 0.921,0.0967 z m 0.819,-5.70427 c 0,-0.0608 -0.261,-0.21078 -0.58,-0.33321 -0.35,-0.13424 -0.58,-0.002 -0.58,0.33321 0,0.33518 0.23,0.46746 0.58,0.33322 0.319,-0.12243 0.58,-0.27238 0.58,-0.33322 z m -0.543,-1.4133 c 0.171,-0.27663 0.106,-0.34151 -0.17,-0.17054 -0.625,0.38579 -0.56,-0.40701 0.08,-1.0064 0.446,-0.41671 0.439,-0.5592 -0.05,-0.91342 -0.505,-0.36923 -0.497,-0.56745 0.06,-1.64854 0.349,-0.67586 0.46,-1.22884 0.246,-1.22884 -0.406,0 -0.318,-1.90814 0.121,-2.61844 0.139,-0.22514 0.03,-0.48291 -0.233,-0.57284 -0.376,-0.12659 -0.36,-0.31534 0.07,-0.83597 0.482,-0.58435 0.482,-0.71849 0,-1.02379 -0.371,-0.2344 -0.398,-0.3533 -0.08,-0.35725 0.349,-0.004 0.374,-0.26802 0.1,-0.99793 -0.49,-1.28915 -0.476,-1.4334 0.106,-1.0836 0.345,0.20709 0.335,0.10754 -0.03,-0.34696 -0.284,-0.35057 -0.388,-0.84587 -0.23,-1.10068 0.349,-0.56567 0.338,-6.71486 -0.01,-7.28384 -0.138,-0.22445 -0.105,-0.40808 0.07,-0.40808 0.303,0 0.437,-1.2113 0.447,-4.06067 0,-0.6381 0,-1.59526 0.01,-2.12701 0,-0.53175 0.128,-3.14218 0.275,-5.80095 0.147,-2.65876 0.283,-5.39971 0.303,-6.09099 0.02,-0.69128 0.209,-1.25954 0.422,-1.2628 0.213,-0.003 0.161,-0.14914 -0.115,-0.32418 -0.398,-0.2525 -0.371,-0.42627 0.128,-0.84095 0.53,-0.43956 0.763,-0.43752 1.469,0.0128 0.561,0.3585 2.628,0.6065 6.252,0.75019 5.178,0.20525 5.432,0.25348 5.801,1.10158 0.292,0.66793 0.602,0.83322 1.257,0.66941 0.479,-0.11964 0.87,-0.0456 0.87,0.16444 0,0.21008 0.29,0.27083 0.644,0.13501 0.401,-0.15379 0.548,-0.0929 0.391,0.16149 -0.265,0.42899 2.105,0.81403 5.84,0.94876 1.134,0.0409 2.229,0.30047 2.464,0.58412 0.316,0.38021 0.289,0.51801 -0.107,0.53993 -0.292,0.0162 0.08,0.26398 0.823,0.55067 0.745,0.28669 1.093,0.55508 0.774,0.59643 -1.383,0.17921 2.016,0.66957 4.93,0.71137 1.839,0.0264 3.191,0.20961 3.191,0.43248 0,0.2127 0.261,0.38673 0.58,0.38673 0.319,0 0.58,0.17403 0.58,0.38673 0,0.2127 0.261,0.38673 0.58,0.38673 0.319,0 0.58,0.1843 0.58,0.40956 0,0.22525 0.159,0.31118 0.354,0.19095 0.194,-0.12023 0.412,-0.063 0.483,0.12725 0.07,0.19022 1.341,0.43118 2.821,0.53546 1.483,0.10448 2.756,0.38438 2.836,0.62339 0.08,0.23857 0.576,0.43377 1.102,0.43377 0.54,0 0.853,0.16869 0.719,0.38673 -0.206,0.33226 1.228,0.60117 2.253,0.42259 0.176,-0.0307 0.925,0.11141 1.665,0.31571 l 1.345,0.37146 -0.203,-2.54131 c -0.112,-1.39772 -0.268,-2.60661 -0.348,-2.68641 -0.08,-0.0798 -1.133,-0.22087 -2.339,-0.31348 -1.269,-0.0973 -2.448,-0.42173 -2.795,-0.76894 -0.33,-0.33031 -0.936,-0.60057 -1.346,-0.60057 -0.411,0 -0.746,-0.24242 -0.746,-0.53872 0,-0.80934 -0.754,-0.96976 -5.903,-1.25554 -4.492,-0.24936 -5.699,-0.59185 -5.699,-1.61731 0,-0.20513 -0.285,-0.48259 -0.635,-0.61657 -0.53,-0.20367 -0.554,-0.14708 -0.146,0.34536 0.394,0.47385 0.394,0.58895 0,0.58895 -0.268,0 -0.711,-0.30455 -0.983,-0.67678 -0.39,-0.53364 -1.34,-0.73335 -4.49,-0.94424 -5.095,-0.34111 -5.478,-0.40583 -5.851,-0.98941 -0.17,-0.26588 -0.654,-0.48341 -1.076,-0.48341 -0.421,0 -0.85,-0.21754 -0.952,-0.48342 -0.103,-0.26587 -0.726,-0.5214 -1.384,-0.56784 -0.659,-0.0464 -1.396,-0.22704 -1.639,-0.40135 -0.242,-0.1743 -0.956,-0.37114 -1.586,-0.43742 -0.63,-0.0663 -1.364,-0.40776 -1.632,-0.75884 -0.314,-0.41335 -0.49,-0.4668 -0.498,-0.15165 0,0.33642 -0.221,0.3802 -0.689,0.1418 -1.479,-0.75399 -2.655,-1.2006 -3.577,-1.35851 -0.531,-0.0911 -1.427,-0.34442 -1.989,-0.5629 -0.563,-0.21849 -1.836,-0.34109 -2.829,-0.27245 -1.414,0.0978 -1.761,0.009 -1.599,-0.41179 0.113,-0.29512 0.07,-0.53658 -0.105,-0.53658 -0.466,0 -0.384,-1.31199 0.103,-1.63768 0.285,-0.19075 0.29,-0.28607 0.01,-0.29005 -0.25,-0.004 -0.381,-0.90832 -0.337,-2.3263 0.04,-1.27621 -0.09,-2.32038 -0.29,-2.32038 -0.199,0 -0.237,-0.20198 -0.08,-0.44886 0.245,-0.39548 0.242,-1.41829 -0.02,-6.33047 -0.03,-0.64446 -0.185,-1.37205 -0.337,-1.61688 -0.151,-0.24482 -0.131,-0.53385 0.04,-0.64229 0.176,-0.10844 0.255,-1.29516 0.177,-2.63715 -0.225,-3.88729 -0.09,-11.05809 0.245,-12.84525 0.169,-0.90169 0.168,-2.01285 0,-2.46924 -0.171,-0.46226 -0.148,-0.92839 0.05,-1.0524 0.198,-0.12244 0.3,-0.74066 0.226,-1.37382 -0.07,-0.63317 0.04,-1.26121 0.261,-1.39565 0.243,-0.14983 0.152,-0.42253 -0.233,-0.70453 -0.525,-0.38335 -0.547,-0.57335 -0.133,-1.13902 0.336,-0.45958 0.417,-1.2974 0.251,-2.59327 -0.135,-1.05289 -0.126,-1.98821 0.02,-2.07849 0.146,-0.0903 0.212,-0.86969 0.146,-1.73201 -0.09,-1.13407 0.01,-1.49312 0.345,-1.29774 0.254,0.14857 0.158,-0.078 -0.214,-0.50359 -0.787,-0.89921 -0.893,-2.0527 -0.193,-2.09688 0.386,-0.0244 0.386,-0.0695 0,-0.2256 -0.266,-0.10728 -0.484,-0.36485 -0.484,-0.57238 0,-0.20753 0.159,-0.27925 0.353,-0.15938 0.206,0.12739 0.301,-1.30918 0.229,-3.4571 -0.07,-2.06436 0.04,-3.77518 0.246,-3.90349 0.225,-0.13911 0.193,-0.44183 -0.08,-0.7741 -0.299,-0.36034 -0.313,-0.54567 -0.04,-0.54567 0.227,0 0.342,-0.36209 0.257,-0.80465 -0.08,-0.44255 0.06,-1.14398 0.312,-1.55872 0.379,-0.61141 0.358,-0.82388 -0.113,-1.12308 -0.42,-0.26757 -0.441,-0.37063 -0.07,-0.37493 0.297,-0.003 0.386,-0.1991 0.216,-0.47514 -0.438,-0.70781 -0.599,-3.01135 -0.211,-3.01135 0.186,0 0.272,-0.67496 0.189,-1.49992 -0.113,-1.13121 0,-1.56014 0.488,-1.74486 0.876,-0.336 0,-1.39598 -1.147,-1.39598 -0.758,0 -0.838,0.22624 -0.919,2.61043 -0.115,3.32873 -0.137,4.64799 -0.105,6.091 0.05,2.23423 -0.238,5.46665 -0.53,5.93863 -0.162,0.26196 -0.107,0.70221 0.122,0.97834 0.229,0.27613 0.318,0.60117 0.197,0.72231 -0.122,0.12113 -0.199,1.67138 -0.172,3.44498 0.138,9.02713 -0.02,14.22147 -0.444,14.48262 -0.182,0.11225 -0.231,0.36545 -0.109,0.56265 0.426,0.68951 0.517,1.90838 0.142,1.90838 -0.243,0 -0.24,0.25769 0,0.72261 0.213,0.39744 0.294,0.81493 0.181,0.92776 -0.476,0.4764 -0.661,9.0278 -0.4,18.45958 0.07,2.65877 0.01,5.8783 -0.143,7.15451 -0.152,1.2762 -0.127,2.61436 0.06,2.97368 0.184,0.35932 0.203,0.73422 0.04,0.83311 -0.246,0.15212 -0.321,4.70266 -0.09,5.28136 0.251,0.61948 0.157,1.45135 -0.241,2.14252 -0.25,0.43394 -0.375,1.30408 -0.278,1.93365 0.331,2.13584 0.317,5.59189 -0.02,5.59198 -0.186,5e-5 -0.175,0.21763 0.03,0.48351 0.213,0.28394 0.352,7.06584 0.337,16.43602 -0.01,8.77393 0.101,15.9526 0.255,15.9526 0.155,0 0.137,0.39157 -0.04,0.87014 -0.374,1.0153 -0.112,3.77062 0.359,3.77062 0.176,0 0.445,-0.20092 0.597,-0.44648 z m 86.968,-3.73345 c -0.07,-0.35981 -0.14,-0.87173 -0.156,-1.13761 -0.02,-0.26587 -0.222,-0.48341 -0.458,-0.48341 -0.235,0 -0.33,0.25547 -0.21,0.56771 0.12,0.31224 0.04,0.67579 -0.171,0.80789 -0.254,0.15708 -0.237,0.42311 0.05,0.76891 0.242,0.29079 0.324,0.75388 0.184,1.02907 -0.141,0.2752 0,0.18564 0.316,-0.19901 0.314,-0.38464 0.514,-0.99374 0.445,-1.35355 z m -2.39,-0.32908 c -0.288,-0.75035 -0.768,-0.63634 -0.997,0.23644 -0.108,0.4152 0,0.82418 0.245,0.90884 0.568,0.19762 1.009,-0.47458 0.752,-1.14528 z m 0.234,-2.16208 c 0.07,-0.69128 0.13,-3.13107 0.132,-5.42176 0,-2.29068 0.138,-4.24868 0.304,-4.35109 0.166,-0.10242 0.206,-0.55191 0.09,-0.99887 -0.124,-0.47595 0.01,-0.95404 0.326,-1.15389 0.297,-0.18767 0.365,-0.3438 0.152,-0.34696 -0.236,-0.004 -0.326,-1.09661 -0.231,-2.80972 0.09,-1.54218 0.213,-6.02349 0.284,-9.95847 0.07,-3.93497 0.185,-7.58957 0.255,-8.12133 0.07,-0.53175 0.04,-1.12864 -0.06,-1.32642 -0.299,-0.57703 -0.434,-4.56164 -0.169,-4.99068 0.382,-0.61815 0.346,-2.52771 -0.04,-2.287 -0.193,0.11935 -0.253,-0.15827 -0.133,-0.61694 0.15,-0.57227 0.04,-0.83393 -0.345,-0.83393 -0.419,0 -0.554,0.46973 -0.528,1.83697 0.04,2.02482 -0.322,21.17346 -0.4,21.17346 -0.03,0 -0.126,2.00132 -0.221,4.44739 -0.495,12.76515 -0.396,17.01611 0.396,17.01611 0.03,0 0.122,-0.56559 0.192,-1.25687 z m -35.899,-5.732 c -0.08,-3.28162 -0.156,-7.66316 -0.18,-9.73677 -0.02,-2.07361 -0.13,-3.76772 -0.236,-3.76469 -0.559,0.0159 -0.977,0.70038 -1.059,1.73393 -0.176,2.21954 0.02,4.87693 0.418,5.5109 0.165,0.26588 0.182,0.67439 0.04,0.9078 -0.475,0.76971 -0.561,10.51281 -0.1,11.07194 1.044,1.25776 1.253,0.18853 1.117,-5.72311 z m 5.145,0.62253 c -0.05,-2.57255 0.06,-3.69043 0.373,-3.69456 0.249,-0.003 0.191,-0.17145 -0.133,-0.3808 -0.392,-0.25328 -0.423,-0.37681 -0.09,-0.38081 0.39,-0.005 0.391,-0.15978 0,-0.77938 -0.964,-1.54349 -1.431,-0.91193 -1.215,1.6436 0.112,1.32938 0.203,3.54083 0.201,4.91432 0,1.37349 0.09,2.65377 0.212,2.84508 0.489,0.79198 0.721,-0.69192 0.652,-4.16745 z m -0.34,-10.20088 c 0,-1.94848 -0.115,-3.54271 -0.254,-3.54271 -0.14,-10e-6 -0.163,-0.34808 -0.05,-0.77348 0.118,-0.44956 0.01,-0.77346 -0.252,-0.77346 -0.25,0 -0.347,0.17403 -0.216,0.38673 0.132,0.2127 0.05,0.38673 -0.184,0.38673 -0.301,0 -0.296,0.23742 0.02,0.82264 0.343,0.64166 0.325,0.8956 -0.08,1.15427 -0.428,0.27125 -0.43,0.3327 0,0.33755 0.392,0.005 0.484,0.69035 0.386,2.90739 -0.08,1.81874 0.02,2.85214 0.26,2.76926 0.22,-0.0752 0.387,-1.65909 0.387,-3.67492 z m -5.326,-4.54984 c -0.128,-0.12851 -0.462,-0.14225 -0.741,-0.0305 -0.309,0.12345 -0.217,0.21509 0.233,0.23365 0.408,0.0168 0.637,-0.0746 0.508,-0.20312 z m -0.478,-0.92211 c 0.135,-0.21922 -0.02,-0.28406 -0.364,-0.15199 -0.67,0.2571 -0.792,0.53429 -0.236,0.53429 0.2,0 0.47,-0.17203 0.6,-0.3823 z m 6.867,-4.98358 c -0.06,-0.24935 0.414,-0.43507 1.1,-0.43507 0.869,0 1.251,-0.21053 1.397,-0.76911 0.111,-0.42301 0.356,-0.67378 0.544,-0.55727 0.189,0.11651 0.343,-0.12225 0.343,-0.53058 0,-0.60512 0.367,-0.78589 1.985,-0.97756 1.381,-0.16355 2.155,-0.47628 2.54,-1.02716 0.306,-0.43561 0.761,-0.67656 1.012,-0.53545 0.323,0.18144 0.318,0.10674 -0.02,-0.25504 -0.761,-0.82122 0.165,-1.53551 1.991,-1.53551 1.788,0 2.601,-0.53866 2.258,-1.49736 -0.123,-0.34631 -0.08,-0.50183 0.09,-0.34561 0.172,0.15622 0.505,0.0318 0.738,-0.27637 0.234,-0.30823 1.122,-0.78486 1.972,-1.05919 0.851,-0.27432 1.46,-0.64263 1.354,-0.81847 -0.286,-0.47294 1.572,-1.38773 2.851,-1.40351 0.943,-0.0116 1.038,-0.10136 0.629,-0.5938 -0.358,-0.43228 -0.365,-0.58009 -0.02,-0.58009 0.251,0 0.349,-0.17403 0.218,-0.38673 -0.132,-0.2127 -0.06,-0.38673 0.17,-0.38673 0.225,0 0.41,0.18081 0.41,0.40179 0,0.22099 0.381,0.047 0.846,-0.38673 0.466,-0.43369 1.261,-0.78852 1.768,-0.78852 1.062,0 1.881,-0.69409 2.085,-1.76764 0.108,-0.56409 0.672,-0.8508 2.312,-1.17526 2.607,-0.5159 3.078,-0.77182 2.792,-1.51688 -0.12,-0.31224 -0.03,-0.56771 0.198,-0.56771 0.229,0 0.316,-0.26104 0.193,-0.5801 -0.154,-0.40252 0.03,-0.58009 0.593,-0.58009 0.673,0 0.814,-0.23491 0.814,-1.35355 0,-0.82187 -0.189,-1.35589 -0.483,-1.35948 -0.299,-0.004 -0.336,-0.11409 -0.1,-0.29005 0.491,-0.36054 0.739,-2.02441 0.301,-2.02441 -0.18,0 -0.636,0.52209 -1.013,1.16019 -0.387,0.65603 -1.012,1.16019 -1.436,1.16019 -0.414,0 -0.731,0.13052 -0.706,0.29005 0.124,0.78482 -0.1,1.25687 -0.592,1.25687 -1.524,0 -4.74,1.66437 -5.578,2.8867 -0.746,1.08856 -1.209,1.34585 -2.82,1.56744 -1.842,0.25343 -3.648,1.45695 -3.221,2.14737 0.101,0.16318 -0.384,0.41692 -1.077,0.56387 -0.693,0.14695 -1.782,0.64323 -2.42,1.10284 -0.638,0.45961 -1.663,1.09163 -2.276,1.4045 -0.614,0.31286 -1.373,0.96193 -1.688,1.44237 -0.315,0.48045 -0.897,0.87354 -1.294,0.87354 -1.495,0 -3.783,1.20888 -3.904,2.06328 -0.07,0.46046 -0.323,0.83719 -0.571,0.83719 -0.248,0 -0.582,0.13052 -0.741,0.29005 -0.16,0.15952 -0.914,0.29271 -1.676,0.29597 -1.662,0.007 -2.16,0.29272 -2.52,1.44431 -0.149,0.47858 -0.44,0.87014 -0.646,0.87014 -0.219,0 -0.19,0.34268 0.07,0.82921 0.244,0.45607 0.355,1.48927 0.247,2.296 -0.108,0.80673 -0.09,1.5684 0.03,1.69259 0.352,0.35227 1.059,-0.0306 0.951,-0.51543 z m -22.317,-2.34299 c -0.14,-0.22685 -0.426,-0.41246 -0.634,-0.41246 -0.209,0 -0.155,0.24349 0.119,0.54109 0.555,0.60246 0.912,0.51342 0.515,-0.12863 z m 17.193,-2.4981 c 0,-0.0836 -0.27,-0.25562 -0.6,-0.3823 -0.344,-0.13206 -0.5,-0.0672 -0.364,0.15199 0.227,0.36748 0.964,0.54353 0.964,0.23031 z m 3.699,-1.78166 c 0.731,0 1.328,-0.17402 1.328,-0.38673 0,-0.2127 0.241,-0.38673 0.536,-0.38673 0.295,0 0.815,-0.42693 1.157,-0.94875 0.383,-0.58373 1.156,-1.04905 2.012,-1.20946 1.468,-0.27553 3.44,-1.78307 2.96,-2.26324 -0.156,-0.15607 -0.11,-0.24865 0.103,-0.20573 1.106,0.22315 2.127,-0.0728 2.127,-0.61649 0,-0.33161 0.165,-0.50076 0.367,-0.3759 0.202,0.12486 0.547,-0.10768 0.766,-0.51676 0.237,-0.44345 1.149,-0.92404 2.259,-1.1902 1.456,-0.34942 1.874,-0.62375 1.922,-1.26258 0.08,-1.04643 0.658,-1.3904 2.807,-1.66815 1.886,-0.24369 3.645,-1.05035 3.722,-1.70699 0.03,-0.22611 0.07,-0.56651 0.1,-0.75645 0.06,-0.39406 0.96,-0.80106 2.369,-1.06522 1.135,-0.21298 2.77,-1.19969 3.209,-1.93751 0.17,-0.28557 0.756,-0.51922 1.302,-0.51922 0.847,0 0.966,-0.14009 0.81,-0.95512 -0.1,-0.52532 -0.05,-0.87529 0.105,-0.77772 0.158,0.0976 0.502,-0.0817 0.765,-0.39843 0.263,-0.31671 0.935,-0.59762 1.494,-0.62424 1.017,-0.0485 0.687,-0.14183 -3.367,-0.95157 -0.99,-0.19773 -1.247,-0.41803 -1.109,-0.94897 0.239,-0.91037 -0.667,-1.133 -4.634,-1.13962 -3.512,-0.006 -4.696,-0.32449 -5.864,-1.57819 -0.478,-0.51246 -1.035,-0.75262 -1.411,-0.60821 -0.361,0.13861 -0.523,0.0784 -0.386,-0.14369 0.132,-0.21297 -0.192,-0.3823 -0.73,-0.3823 -0.532,0 -1.059,-0.14915 -1.172,-0.33145 -0.112,-0.1823 -1.194,-0.43358 -2.403,-0.55839 -1.21,-0.12482 -2.324,-0.42931 -2.477,-0.67666 -0.201,-0.3247 -0.352,-0.33073 -0.543,-0.0217 -0.357,0.5784 -0.992,0.54296 -0.992,-0.0554 0,-0.2819 -0.524,-0.49492 -1.257,-0.51103 -0.691,-0.0152 -2.435,-0.16642 -3.876,-0.33608 -2.003,-0.23581 -2.527,-0.42014 -2.226,-0.78268 0.296,-0.35688 0.131,-0.45614 -0.668,-0.40115 -0.583,0.0402 -1.278,-0.0951 -1.544,-0.30057 -0.266,-0.20549 -0.484,-0.23833 -0.484,-0.073 0,0.16536 -0.317,0.0132 -0.705,-0.33812 -0.389,-0.35132 -1.128,-0.64256 -1.644,-0.64719 -2.744,-0.0247 -3.513,0.1021 -3.708,0.61124 -0.117,0.30516 -0.629,0.55485 -1.138,0.55485 -0.509,0 -0.926,0.14609 -0.926,0.32465 0,0.42613 -1.767,1.22226 -2.713,1.22226 -0.469,0 -0.668,0.19475 -0.54,0.52774 0.145,0.38028 -0.531,0.71192 -2.422,1.18694 -2.671,0.67089 -3.745,1.22752 -3.412,1.76741 0.3,0.48447 -1.618,1.5454 -2.793,1.5454 -1.763,0 -3.597,0.6759 -4.625,1.70485 -0.531,0.53058 -1.561,1.16119 -2.288,1.40137 -0.728,0.24018 -1.224,0.59702 -1.103,0.79297 0.283,0.45775 -1.514,1.14261 -3.16,1.2045 -0.702,0.0264 -1.194,0.18161 -1.093,0.34496 0.101,0.16335 -0.21,0.35295 -0.692,0.42133 -0.482,0.0684 -1.043,0.50639 -1.248,0.97334 -0.205,0.46695 -0.727,1.03726 -1.161,1.26737 -1.071,0.56929 -4.848,1.13509 -4.848,0.72634 0,-0.18093 -0.145,-0.32897 -0.322,-0.32897 -0.177,0 -0.322,0.2229 -0.322,0.49533 0,1.0682 -1.383,2.59851 -2.348,2.59851 -1.337,0 -0.537,0.95541 0.899,1.07426 0.576,0.0477 1.271,0.27175 1.544,0.4978 0.453,0.37595 2.089,0.75942 3.711,0.86991 0.357,0.0243 0.565,0.1791 0.463,0.34404 -0.102,0.16495 0.607,0.51181 1.576,0.7708 0.968,0.259 1.76,0.62746 1.76,0.8188 0,0.19135 0.283,0.23926 0.629,0.10649 0.346,-0.13278 0.849,-0.0589 1.118,0.16423 0.269,0.22311 1.013,0.44365 1.654,0.49009 0.64,0.0464 1.084,0.21495 0.986,0.37448 -0.1,0.15953 0.23,0.29005 0.729,0.29005 0.5,0 1.598,0.354 2.44,0.78666 1.322,0.67881 6.272,1.66941 10.04,2.00919 0.839,0.0756 1.131,0.28411 1.053,0.75209 -0.151,0.91705 1.461,1.37191 2.042,0.57633 0.4,-0.54728 0.586,-0.51765 1.77,0.28306 1.119,0.7564 2.001,0.93069 5.724,1.13005 2.42,0.12964 4.483,0.31789 4.584,0.41832 0.1,0.10042 0.611,0.0197 1.134,-0.17945 0.524,-0.19912 1.55,-0.36204 2.281,-0.36204 z m -16.877,-1.25687 c -0.263,-0.86022 -0.208,-1.46502 0.123,-1.35448 0.517,0.17234 0.745,1.45117 0.259,1.45117 -0.194,0 -0.366,-0.0435 -0.382,-0.0967 z m 10.285,-5.30506 c -0.14,-0.2265 -0.416,-0.3117 -0.614,-0.18932 -0.198,0.12237 -0.363,-0.005 -0.366,-0.28374 0,-0.36677 -0.107,-0.34643 -0.373,0.0739 -0.456,0.72132 -0.4,0.72579 -1.716,-0.1368 -0.602,-0.39429 -0.976,-0.52481 -0.83,-0.29005 0.145,0.23477 0.08,0.42685 -0.146,0.42685 -0.225,0 -0.41,-0.26105 -0.41,-0.5801 0,-0.31905 -0.342,-0.58009 -0.76,-0.58009 -0.777,0 -1.729,-1.24877 -1.289,-1.68944 0.135,-0.13432 0.03,-0.24421 -0.229,-0.24421 -0.261,0 -0.375,-0.1615 -0.253,-0.35889 0.122,-0.19739 -0.08,-0.45639 -0.46,-0.57556 -0.5,-0.15878 -0.675,-0.60538 -0.655,-1.67144 0.01,-0.80013 -0.07,-1.6288 -0.193,-1.8415 -0.122,-0.21271 -0.221,-1.37918 -0.221,-2.59217 0,-1.91831 0.114,-2.2576 0.879,-2.60615 0.521,-0.23757 0.974,-0.87686 1.112,-1.5702 0.171,-0.85498 0.507,-1.23087 1.248,-1.39776 2.062,-0.46414 3.065,-1.0568 2.834,-1.67476 -0.193,-0.51822 -0.134,-0.52782 0.429,-0.0699 0.425,0.34574 0.652,0.37944 0.652,0.0967 0,-0.24073 0.621,-0.43409 1.395,-0.43409 1.16,0 1.355,0.11376 1.159,0.67678 -0.224,0.64455 -0.21,0.64455 0.291,0 0.653,-0.83809 1.022,-0.86424 1.022,-0.0724 0,0.34403 0.292,0.57474 0.677,0.53556 0.372,-0.0379 0.764,-0.0355 0.87,0.005 0.491,0.18817 1.459,0.42573 2.615,0.64182 1.434,0.26794 1.609,0.45633 1.725,1.85305 0.05,0.57039 0.38,1.09632 0.772,1.2208 0.526,0.16713 0.703,0.66842 0.747,2.12628 0.08,2.75967 0.1,2.84785 0.511,3.14366 0.216,0.1546 0.103,0.37406 -0.265,0.51542 -0.353,0.13539 -0.559,0.4628 -0.457,0.72757 0.286,0.74468 -0.535,2.54843 -1.159,2.54843 -0.307,0 -0.935,0.60933 -1.395,1.35408 -0.655,1.05987 -1.166,1.40672 -2.352,1.59635 -0.834,0.13324 -1.515,0.37776 -1.515,0.54336 0,0.1656 -0.348,0.21008 -0.774,0.0988 -0.476,-0.12466 -0.773,-0.0119 -0.773,0.29403 0,0.27296 -0.115,0.38178 -0.255,0.24182 -0.14,-0.13995 -0.472,-0.0735 -0.739,0.14769 -0.336,0.27907 -0.562,0.27611 -0.739,-0.01 z m 5.6,-5.03996 c 0,-0.4254 -0.03,-0.81697 -0.06,-0.87014 -0.224,-0.33052 0.97,-1.83697 1.455,-1.83697 0.352,0 0.477,0.18239 0.309,0.45378 -0.37,0.59782 -0.423,2.64012 -0.07,2.64009 0.425,-5e-5 1.14,-1.51868 0.899,-1.90922 -0.118,-0.19046 -0.06,-0.75245 0.123,-1.24888 0.186,-0.49643 0.211,-1.25065 0.06,-1.67605 -0.164,-0.44904 -0.101,-0.89264 0.149,-1.05759 0.305,-0.2013 0.293,-0.28585 -0.04,-0.29005 -0.259,-0.003 -0.371,-0.26696 -0.249,-0.58601 0.123,-0.31906 0.03,-0.5801 -0.205,-0.5801 -0.236,0 -0.428,-0.2665 -0.428,-0.59223 0,-0.32573 -0.251,-0.68832 -0.557,-0.80577 -0.306,-0.11744 -0.664,-0.70338 -0.795,-1.30209 -0.149,-0.6751 -0.562,-1.17493 -1.087,-1.31596 -1.371,-0.36742 -6.72,-0.27108 -6.118,0.11018 0.346,0.21976 0.474,0.82078 0.367,1.73436 -0.09,0.76893 -0.02,1.39805 0.146,1.39805 0.17,0 0.266,0.21341 0.212,0.47423 -0.05,0.26083 0.298,0.53431 0.78,0.60775 0.481,0.0734 0.776,0.2951 0.654,0.49259 -0.122,0.19749 -0.07,0.35908 0.123,0.35908 0.19,0 0.345,0.52209 0.345,1.16019 0,0.6381 -0.145,1.16019 -0.322,1.16019 -0.178,0 -0.323,0.16449 -0.323,0.36554 0,0.20105 0.827,0.41858 1.837,0.48341 1.924,0.12343 2.029,0.26217 2.068,2.7283 0,0.37223 0.174,0.67678 0.373,0.67678 0.2,0 0.363,-0.34806 0.363,-0.77346 z m -5.607,-3.09384 c 0.131,-0.2127 -0.03,-0.38673 -0.364,-0.38673 -0.332,0 -0.603,0.17403 -0.603,0.38673 0,0.2127 0.163,0.38673 0.364,0.38673 0.2,0 0.471,-0.17403 0.603,-0.38673 z m -1.741,-4.25403 c 0,-0.4254 -0.244,-0.77346 -0.544,-0.77346 -0.353,0 -0.473,0.27077 -0.341,0.77346 0.111,0.4254 0.356,0.77346 0.544,0.77346 0.188,0 0.341,-0.34806 0.341,-0.77346 z m -6.961,10.84058 c 0,-0.20603 0.261,-0.27443 0.58,-0.15199 0.319,0.12243 0.58,0.29099 0.58,0.37459 0,0.0836 -0.261,0.15199 -0.58,0.15199 -0.319,0 -0.58,-0.16857 -0.58,-0.37459 z m -4.012,-0.32065 c -0.105,-0.16969 -0.05,-0.53632 0.122,-0.81475 0.22,-0.35549 0.392,-0.37878 0.578,-0.0782 0.145,0.23541 0.07,0.42802 -0.168,0.42802 -0.238,0 -0.325,0.17403 -0.194,0.38673 0.132,0.2127 0.152,0.38673 0.05,0.38673 -0.106,0 -0.279,-0.13883 -0.384,-0.30851 z m -0.278,-2.0428 c -0.357,-0.22563 0.177,-0.34599 1.551,-0.34988 1.152,-0.003 1.984,0.10492 1.848,0.2404 -0.403,0.40307 -2.813,0.48069 -3.399,0.10948 z m -28.664,-1.10169 c 0.06,-0.0152 -0.07,-0.36832 -0.295,-0.78479 -0.326,-0.60827 -0.257,-0.83649 0.348,-1.16019 0.414,-0.22163 1.243,-0.41671 1.841,-0.4335 0.599,-0.0168 0.882,-0.11505 0.628,-0.21835 -0.254,-0.1033 -0.355,-0.46617 -0.225,-0.80637 0.158,-0.4109 0.09,-0.52468 -0.215,-0.33892 -0.249,0.15379 -0.452,0.19658 -0.452,0.0951 0,-0.10151 -0.117,-0.48838 -0.259,-0.85973 -0.177,-0.46032 -0.115,-0.58618 0.193,-0.39553 0.468,0.28919 0.59,-0.0857 0.524,-1.61537 -0.02,-0.5548 0.122,-0.78393 0.392,-0.61702 0.26,0.16046 0.321,0.0894 0.154,-0.17953 -0.514,-0.83252 -0.593,-2.0912 -0.179,-2.86419 0.297,-0.55617 0.294,-0.6977 -0.01,-0.50807 -0.264,0.16286 -0.444,-0.11363 -0.474,-0.72679 -0.03,-0.5443 -0.08,-1.20718 -0.12,-1.47306 -0.04,-0.26588 0.112,-0.73435 0.338,-1.04106 0.298,-0.40439 0.29,-0.48519 -0.03,-0.29399 -0.28,0.16738 -0.503,-0.16477 -0.613,-0.90962 -0.09,-0.6453 -0.04,-1.25497 0.122,-1.35482 0.161,-0.0999 0.141,-0.71215 -0.04,-1.36065 -0.186,-0.64851 -0.251,-2.34294 -0.144,-3.7654 0.389,-5.18876 0.42,-13.42221 0.05,-13.89392 -0.205,-0.26354 -0.259,-1.09018 -0.119,-1.83696 0.185,-0.98364 0.117,-1.35943 -0.246,-1.36372 -0.358,-0.004 -0.336,-0.11452 0.08,-0.38673 0.516,-0.33849 0.516,-0.42312 0,-0.76161 -0.319,-0.20945 -0.406,-0.3836 -0.193,-0.38701 0.212,-0.003 0.412,-0.44114 0.442,-0.97274 0.03,-0.53161 -0.133,-0.96656 -0.364,-0.96656 -0.231,0 -0.08,-0.27394 0.331,-0.60877 0.413,-0.33482 0.533,-0.49858 0.267,-0.36391 -0.339,0.17192 -0.483,-0.14216 -0.483,-1.05416 0,-0.71447 -0.209,-1.50787 -0.464,-1.76311 -0.255,-0.25524 -0.299,-0.46426 -0.1,-0.46448 0.202,-2.3e-4 0.385,-0.78336 0.406,-1.74029 0.02,-0.95693 -0.07,-1.74025 -0.193,-1.7407 -0.128,-4.6e-4 -0.254,-0.78359 -0.281,-1.74029 -0.03,-1.05685 0.123,-1.74178 0.387,-1.74537 0.315,-0.004 0.313,-0.0842 0,-0.29005 -0.41,-0.26277 -0.743,-1.57808 -0.512,-2.02441 0.06,-0.10635 0.148,-0.97649 0.208,-1.93365 0.182,-2.92221 0.42,-4.78847 0.739,-5.78291 0.337,-1.05256 1.109,-1.95169 1.676,-1.95169 0.203,0 0.46,-0.34805 0.571,-0.77346 0.112,-0.4254 0.48,-0.77346 0.819,-0.77346 0.339,0 0.616,-0.27966 0.616,-0.62147 0,-0.3705 0.217,-0.53849 0.536,-0.41599 0.294,0.11301 1.449,-0.0624 2.566,-0.38988 1.654,-0.4847 2.291,-0.5096 3.429,-0.13399 1.376,0.45437 1.398,0.4946 1.453,2.65495 0.03,1.20647 0.159,2.92459 0.284,3.81805 0.126,0.89345 0.08,1.71281 -0.09,1.82079 -0.272,0.1676 -0.252,5.53248 0.07,18.30799 0.04,1.54192 0.235,2.80362 0.437,2.80379 0.202,1.7e-4 0.176,0.19195 -0.06,0.42617 -0.273,0.2727 -0.31,0.82906 -0.105,1.54692 0.181,0.63064 0.173,1.12106 -0.02,1.12106 -0.187,0 -0.09,0.6091 0.225,1.35356 0.312,0.74445 0.433,1.35356 0.271,1.35358 -0.474,4e-5 -0.231,6.99658 0.436,12.56869 0.102,0.85081 0.302,3.37422 0.445,5.60758 0.142,2.23337 0.426,4.26708 0.631,4.51936 0.242,0.29727 0.223,0.7384 -0.05,1.25352 -0.377,0.7033 -0.32,0.78611 0.489,0.71916 0.883,-0.0731 1.343,-1.07538 0.495,-1.0802 -1.066,-0.006 1.851,-1.10497 3.556,-1.3394 1.055,-0.1451 2.394,-0.51073 2.976,-0.81252 0.581,-0.30178 1.217,-0.44968 1.413,-0.32864 0.196,0.12103 0.331,0.0766 0.301,-0.0987 -0.22,-1.26675 0.125,-1.67735 1.607,-1.91442 1.109,-0.17728 1.45,-0.37209 1.16,-0.66201 -0.551,-0.5513 -0.525,-1.14565 0.04,-0.79927 0.308,0.19058 0.338,0.10792 0.1,-0.26722 -0.193,-0.29875 -0.391,-2.19644 -0.441,-4.2171 -0.05,-2.02067 -0.104,-4.10901 -0.12,-4.64076 -0.02,-0.53176 0,-1.92398 0.03,-3.09384 0.03,-1.16986 0.02,-2.30104 -0.01,-2.51374 -0.03,-0.21271 -0.09,-2.91015 -0.127,-5.99432 -0.05,-4.55599 0.05,-5.70361 0.517,-6.11967 0.319,-0.28165 0.362,-0.40158 0.1,-0.2665 -0.54,0.27357 -0.495,-0.78906 0.07,-1.69823 0.232,-0.37186 0.198,-0.45614 -0.108,-0.26722 -0.301,0.18618 -0.457,-0.14034 -0.478,-1.00375 -0.02,-0.70384 -0.111,-1.75828 -0.207,-2.34321 -0.106,-0.64795 0,-1.0635 0.273,-1.0635 0.308,0 0.326,-0.15004 0.06,-0.48342 -0.215,-0.26587 -0.367,-1.31018 -0.337,-2.32067 0.03,-1.0105 -0.08,-1.83714 -0.244,-1.83697 -0.283,2.8e-4 -0.08,-1.45529 0.381,-2.70681 0.389,-1.06012 0.196,-5.57863 -0.244,-5.72528 -0.233,-0.078 -0.301,-0.34134 -0.151,-0.58531 0.433,-0.69993 0.444,-1.95888 0.02,-2.48751 -0.212,-0.26588 -0.228,-0.48342 -0.03,-0.48342 0.193,0 0.324,-0.6526 0.292,-1.45023 -0.03,-0.79763 0.116,-1.67198 0.331,-1.943 0.215,-0.27102 0.28,-0.60306 0.145,-0.73788 -0.135,-0.13481 -0.04,-0.49193 0.21,-0.79358 0.353,-0.42549 0.337,-0.62171 -0.07,-0.87509 -0.37,-0.22864 -0.101,-0.40671 0.895,-0.59366 0.783,-0.14687 1.445,-0.4217 1.472,-0.61073 0.03,-0.18903 0.07,-0.55885 0.1,-0.82181 0.03,-0.26296 0.396,-0.54414 0.821,-0.62483 0.426,-0.0807 0.902,-0.34412 1.058,-0.58539 0.2,-0.3087 0.286,-0.28868 0.29,0.0676 0,0.27843 0.183,0.39692 0.399,0.26332 0.216,-0.1336 0.304,-0.38743 0.194,-0.56407 -0.215,-0.34901 3.17,-0.72886 3.6,-0.40392 0.145,0.10914 0.323,0.72052 0.396,1.35862 0.07,0.63811 0.286,1.34717 0.473,1.5757 0.187,0.22853 0.258,1.05516 0.158,1.83696 -0.1,0.78181 -0.05,1.42146 0.112,1.42146 0.271,0 0.373,1.03033 0.462,4.64076 0.03,1.35163 -0.3,7.7553 -0.423,8.12133 -0.248,0.73979 -0.08,6.57425 0.193,6.57432 0.186,5e-5 0.15,0.22536 -0.08,0.5007 -0.434,0.52333 -0.353,2.30139 0.248,5.38478 0.195,1.0036 0.259,1.92083 0.141,2.0383 -0.117,0.11746 -0.259,1.36847 -0.316,2.78001 -0.06,1.41154 -0.19,2.79461 -0.297,3.07348 -0.107,0.27888 -0.06,0.5938 0.117,0.69982 0.321,0.1986 0.305,5.23348 -0.02,5.86121 -0.1,0.19351 -0.151,0.7434 -0.113,1.22198 0.04,0.47858 -0.04,0.87018 -0.17,0.87022 -0.13,4e-5 -0.225,0.65265 -0.209,1.45024 0.01,0.79758 -0.116,1.74414 -0.291,2.10346 -0.176,0.36022 -0.163,0.74966 0.03,0.86808 0.194,0.12006 0.213,0.81265 0.04,1.57039 -0.211,0.9374 -0.169,1.35744 0.137,1.36154 0.243,0.003 0.182,0.17462 -0.137,0.38081 -0.434,0.28008 -0.226,0.37638 0.822,0.3808 1.507,0.006 2.278,-0.61001 2.375,-1.89682 0.03,-0.4424 0.154,-0.80436 0.269,-0.80436 0.114,0 0.201,-0.72296 0.194,-1.60658 0,-0.88362 0.09,-2.53689 0.213,-3.67394 0.147,-1.33204 0.08,-2.06946 -0.179,-2.07327 -0.257,-0.004 -0.245,-0.11082 0.03,-0.29005 0.57,-0.36848 0.235,-9.7939 -0.37,-10.39825 -0.141,-0.14103 -0.07,-0.47975 0.156,-0.75272 0.412,-0.49668 0.459,-2.63603 0.204,-9.33979 -0.08,-2.04247 0.02,-3.57725 0.224,-3.57725 0.197,0 0.252,-0.17403 0.12,-0.38673 -0.131,-0.2127 -0.01,-0.3894 0.267,-0.39265 0.326,-0.004 0.362,-0.10708 0.101,-0.29005 -0.54,-0.37857 -0.624,-2.02441 -0.103,-2.02441 0.256,0 0.228,-0.21881 -0.07,-0.58322 -0.302,-0.36334 -0.412,-1.22452 -0.292,-2.28431 0.105,-0.93561 0.05,-1.92692 -0.119,-2.20293 -0.17,-0.276 -0.171,-0.75056 0,-1.05457 0.17,-0.30401 0.178,-1.13859 0.02,-1.85462 -0.161,-0.71603 -0.181,-1.30294 -0.04,-1.30425 0.137,-0.001 0.266,-0.86555 0.288,-1.92053 0.02,-1.05498 -0.11,-1.82676 -0.29,-1.71508 -0.181,0.11169 -0.329,0.029 -0.329,-0.18366 0,-0.2127 0.181,-0.49866 0.402,-0.63546 0.222,-0.13681 0.31,-0.5407 0.197,-0.89755 -0.373,-1.17646 -0.503,-3.15339 -0.207,-3.15339 0.454,0 0.685,-1.792317 0.316,-2.451096 -0.2,-0.356734 -0.168,-0.691743 0.08,-0.844758 0.288,-0.177661 0.284,-0.406633 -0.01,-0.764813 -0.243,-0.292964 -0.274,-0.603941 -0.07,-0.728369 0.365,-0.225274 0.288,-2.821249 -0.122,-4.111759 -0.129,-0.406032 -0.05,-1.074596 0.166,-1.485698 0.571,-1.067776 -0.185,-1.536089 -2.291,-1.418489 -2.299,0.128415 -3.091,0.346542 -3.467,0.955572 -0.189,0.304751 -1.415,0.583606 -3.096,0.703885 -1.887,0.134993 -2.851,0.373959 -2.992,0.741437 -0.213,0.554542 -2.839,2.056217 -3.596,2.056217 -0.23,0 -0.854,0.435071 -1.386,0.966825 -0.605,0.604833 -1.431,0.978731 -2.206,0.998625 -2.688,0.06898 -5.332,0.624655 -5.201,1.093092 0.153,0.547418 -1.617,1.901128 -2.836,2.168789 -0.619,0.136032 -1.257,0.475198 -1.418,0.7537 -0.161,0.27851 -1.295,0.7128 -2.521,0.9651 -1.226,0.25231 -2.133,0.61484 -2.015,0.80563 0.118,0.19079 -0.238,0.46048 -0.791,0.59931 -0.613,0.15379 -0.93,0.45062 -0.811,0.75969 0.181,0.47297 -1.434,0.83501 -4.691,1.05095 -0.477,0.0317 -0.848,0.23814 -0.824,0.45883 0.114,1.04362 -0.147,1.39942 -1.421,1.93151 -1.174,0.49064 -1.316,0.6802 -0.98,1.30789 0.216,0.40376 0.268,0.85849 0.116,1.01053 -0.152,0.15204 -0.307,1.69767 -0.345,3.43474 -0.04,1.73706 -0.171,4.3765 -0.294,5.86541 -0.309,3.71551 -0.664,9.48388 -0.649,10.53838 0.02,1.45974 0.05,4.8427 0.06,6.47773 0,0.8508 0.08,2.11811 0.174,2.81623 0.09,0.69812 0.05,1.19382 -0.104,1.10156 -0.151,-0.0923 -0.296,1.11432 -0.324,2.68131 -0.03,1.56699 -0.173,3.85574 -0.324,5.08612 -0.151,1.23038 -0.257,2.4981 -0.236,2.81715 0.02,0.31905 0,1.18919 -0.04,1.93365 -0.172,3.11702 0.08,8.67661 0.409,9.00522 0.207,0.20666 0.216,0.83566 0.02,1.50795 -0.182,0.63437 -0.193,1.89108 -0.02,2.7927 0.169,0.90162 0.163,2.02707 -0.01,2.50101 -0.21,0.56554 -0.182,0.77713 0.08,0.61562 0.265,-0.16392 0.335,0.66547 0.209,2.48395 -0.105,1.50153 -0.05,2.81741 0.124,2.92419 0.351,0.2166 0.248,1.87078 -0.157,2.52531 -0.21,0.34065 1.506,0.36236 2.813,0.0356 z m 5.308,-5.4481 c 0.133,-0.21617 0.404,-0.29291 0.602,-0.17054 0.198,0.12237 0.36,0.0492 0.36,-0.16255 0,-0.21178 0.566,-0.43959 1.257,-0.50624 0.692,-0.0667 1.237,-0.29521 1.213,-0.50791 -0.06,-0.51732 1.416,-1.77433 1.803,-1.53552 0.517,0.31942 0.81,-1.94309 0.394,-3.03806 -0.217,-0.5687 -0.255,-1.03401 -0.09,-1.03401 0.34,0 0.227,-2.51326 -0.14,-3.10589 -0.127,-0.20607 -0.06,-0.37468 0.147,-0.37468 0.236,0 0.256,-0.47258 0.05,-1.25687 -0.18,-0.69128 -0.423,-2.00727 -0.541,-2.92442 -0.118,-0.91715 -0.308,-1.81878 -0.422,-2.00361 -0.114,-0.18483 -0.03,-0.44566 0.186,-0.57962 0.253,-0.15583 0.265,-0.48636 0.03,-0.9177 -0.207,-0.38562 -0.218,-0.9056 -0.03,-1.21494 0.184,-0.29743 0.243,-0.6885 0.132,-0.86903 -0.285,-0.45973 -0.291,-7.45468 0,-7.91297 0.216,-0.34972 0.05,-2.06005 -0.299,-3.05945 -0.08,-0.23941 0.08,-0.88786 0.37,-1.44099 0.287,-0.55314 0.404,-0.98925 0.259,-0.96915 -0.661,0.0922 -0.741,-0.1427 -0.464,-1.36932 0.163,-0.72285 0.154,-1.54489 -0.02,-1.82676 -0.187,-0.30228 -0.127,-0.6332 0.146,-0.80681 0.347,-0.22067 0.336,-0.29581 -0.04,-0.30025 -0.279,-0.003 -0.399,-0.17995 -0.268,-0.39265 0.132,-0.21271 0.1,-0.38686 -0.07,-0.38701 -0.172,-1.5e-4 -0.337,-0.43407 -0.368,-0.96426 -0.03,-0.5302 0.06,-0.88988 0.211,-0.7993 0.146,0.0906 0.154,-0.82422 0.02,-2.03289 -0.138,-1.20867 -0.232,-5.98271 -0.211,-10.60898 0.02,-4.62626 -0.07,-8.41138 -0.199,-8.41137 -0.131,1e-5 -0.681,0.34807 -1.221,0.77347 -0.541,0.42541 -1.442,0.77346 -2.002,0.77346 -1.699,0 -3.224,2.22143 -2.963,4.31645 0.04,0.35339 -0.09,0.74874 -0.302,0.87857 -0.304,0.18767 -0.289,3.33563 0.02,4.76595 0.03,0.15806 -0.08,0.77879 -0.243,1.3794 -0.178,0.63666 -0.137,1.46344 0.1,1.98271 0.235,0.51499 0.283,1.44093 0.115,2.19518 -0.16,0.71747 -0.135,1.82658 0.06,2.46468 0.407,1.36036 0.657,9.08815 0.295,9.08815 -0.136,0 -0.132,0.89775 0,1.995 0.19,1.48371 0.166,13.89384 -0.03,17.92159 -0.02,0.42609 0.311,1.93365 0.426,1.93365 0.09,0 0.231,2.48704 0.411,7.44455 0.1,2.75541 0.286,3.96398 0.61,3.96398 0.257,0 0.576,-0.17687 0.71,-0.39304 z m 4.443,-0.46915 c 0,-0.22635 -0.246,-0.18877 -0.58,0.0887 -0.319,0.26479 -0.58,0.54168 -0.58,0.61531 0,0.0736 0.261,0.0337 0.58,-0.0887 0.319,-0.12243 0.58,-0.39932 0.58,-0.61531 z m 2.32,-0.62027 c 0,-0.50355 -0.459,-0.83845 -0.833,-0.60732 -0.4,0.24719 -0.06,0.92959 0.469,0.92959 0.201,0 0.364,-0.14502 0.364,-0.32227 z m 1.602,-6.34858 c -0.08,-1.11681 -0.338,-2.15843 -0.581,-2.3147 -0.31,-0.19994 -0.288,-0.28588 0.07,-0.29004 0.354,-0.004 0.447,-0.33685 0.3,-1.06943 -0.117,-0.58493 -0.329,-2.54275 -0.471,-4.35071 -0.254,-3.23134 -0.406,-4.64488 -0.541,-5.02749 -0.172,-0.48576 -0.04,-3.48586 0.17,-3.82322 0.128,-0.20755 0.08,-0.47217 -0.108,-0.58805 -0.187,-0.11587 -0.292,-0.64998 -0.233,-1.18691 0.06,-0.53693 -0.08,-0.97623 -0.306,-0.97623 -0.227,0 -0.08,-0.39156 0.32,-0.87014 0.403,-0.47858 0.578,-0.74233 0.388,-0.58611 -0.189,0.15622 -0.568,-0.0178 -0.843,-0.38673 -0.465,-0.62541 -0.501,-0.61847 -0.533,0.1027 -0.02,0.4254 -0.08,1.51308 -0.149,2.41706 -0.06,0.90398 -0.01,1.64359 0.108,1.64359 0.123,-1e-5 0.207,2.39288 0.187,5.31753 -0.02,2.92465 0.06,5.49158 0.182,5.70428 0.366,0.64564 0.461,1.40851 0.607,4.83412 0.08,1.80797 0.157,3.33072 0.177,3.38389 0.02,0.0532 0.342,0.0968 0.714,0.0969 0.576,2.1e-4 0.656,-0.30124 0.538,-2.03033 z m 19.281,-4.35095 c 0,-0.31905 -0.155,-0.58009 -0.345,-0.58009 -0.19,0 -0.446,0.26104 -0.568,0.58009 -0.136,0.35336 0,0.5801 0.345,0.5801 0.313,0 0.568,-0.26105 0.568,-0.5801 z m -3.287,-0.19336 c -0.131,-0.21271 0.03,-0.38673 0.352,-0.38673 0.325,0 0.505,-0.22369 0.4,-0.49708 -0.115,-0.29951 0.134,-0.52158 0.627,-0.55872 0.45,-0.0339 1.212,-0.3195 1.693,-0.63466 0.8,-0.52397 0.875,-0.86947 0.88,-4.03552 0,-1.90438 0.119,-3.64544 0.257,-3.86903 0.138,-0.22359 0.07,-0.52106 -0.161,-0.66104 -0.287,-0.17727 -0.275,-0.41865 0.04,-0.79526 0.257,-0.3095 0.322,-0.83226 0.153,-1.22244 -0.418,-0.96267 -0.436,-1.76599 -0.05,-2.30837 0.181,-0.25656 0.217,-0.64812 0.08,-0.87014 -0.138,-0.22202 -0.07,-0.40367 0.16,-0.40367 0.506,0 0.544,-1.41776 0.05,-1.72559 -0.366,-0.22616 -0.27,-1.43018 0.171,-2.14316 0.131,-0.2119 0.02,-0.38528 -0.249,-0.38528 -0.361,0 -0.374,-0.11254 -0.05,-0.43583 0.285,-0.28522 0.317,-0.74824 0.09,-1.33987 -0.212,-0.55661 -0.199,-0.99337 0.03,-1.1365 0.207,-0.12787 0.359,-0.69962 0.338,-1.27057 -0.02,-0.57094 0.07,-1.50553 0.193,-2.07686 0.126,-0.57133 0.05,-1.14719 -0.16,-1.2797 -0.474,-0.29321 -0.492,-2.57579 -0.03,-4.54325 0.197,-0.84642 0.193,-1.35887 0,-1.23405 -0.19,0.11741 -0.346,-0.40591 -0.346,-1.16291 0,-0.84013 0.189,-1.37869 0.484,-1.3823 0.35,-0.004 0.336,-0.099 -0.05,-0.3435 -0.293,-0.18566 -0.405,-0.54437 -0.249,-0.79713 0.374,-0.6051 0.486,-3.1256 0.148,-3.3345 -0.146,-0.0898 -0.186,-0.65903 -0.09,-1.26491 0.1,-0.60588 0.03,-2.04595 -0.155,-3.20015 -0.181,-1.1542 -0.206,-2.56098 -0.05,-3.12616 0.152,-0.56519 0.177,-1.12536 0.06,-1.24483 -0.397,-0.39695 -0.43,-2.1521 -0.04,-2.1521 0.21,0 0.253,-0.2106 0.09,-0.46801 -0.16,-0.25741 -0.3,-0.99703 -0.313,-1.6436 -0.01,-0.64658 -0.198,-1.14873 -0.411,-1.1159 -0.212,0.0328 -1.219,0.17014 -2.237,0.30515 -1.143,0.15164 -1.814,0.42448 -1.756,0.71378 0.05,0.25756 -0.09,0.81636 -0.313,1.24176 -0.226,0.42755 -0.445,3.54072 -0.491,6.96114 -0.05,3.40322 -0.135,6.79677 -0.199,7.54123 -0.06,0.74445 0.04,1.5556 0.235,1.80254 0.193,0.24694 0.21,0.53655 0.04,0.64357 -0.337,0.20819 -0.323,6.56336 0.01,7.11104 0.111,0.17986 0.119,2.4973 0.02,5.14986 -0.102,2.65257 -0.165,5.08389 -0.142,5.40294 0.02,0.31905 0.03,1.59731 0,2.84056 -0.02,1.27691 0.168,2.5097 0.436,2.83327 0.308,0.37068 0.339,0.66474 0.09,0.83337 -0.214,0.14332 -0.359,1.47877 -0.323,2.96768 0.04,1.48891 0.09,4.14285 0.123,5.89763 0.03,1.95153 0.216,3.19053 0.467,3.19053 0.225,0 0.302,-0.17403 0.17,-0.38673 z m 4.447,-0.96683 c 0,-0.31905 -0.174,-0.58009 -0.386,-0.58009 -0.213,0 -0.387,0.26104 -0.387,0.58009 0,0.31905 0.174,0.5801 0.387,0.5801 0.212,0 0.386,-0.26105 0.386,-0.5801 z m 1.541,-8.7981 c 0,-0.67937 -0.08,-0.74701 -0.361,-0.30852 -0.195,0.3089 -0.269,0.70046 -0.164,0.87015 0.335,0.54274 0.532,0.33289 0.525,-0.56163 z m 0.471,-4.05393 c -0.09,-0.48228 -0.309,-0.87688 -0.481,-0.87688 -0.432,0 -0.606,1.09967 -0.424,2.67705 l 0.154,1.32349 0.459,-1.12339 c 0.253,-0.61786 0.384,-1.51798 0.292,-2.00027 z m -0.08,-1.65034 c 0,-0.2127 -0.184,-0.38673 -0.409,-0.38673 -0.226,0 -0.302,0.17403 -0.171,0.38673 0.131,0.2127 0.316,0.38673 0.41,0.38673 0.09,0 0.17,-0.17403 0.17,-0.38673 z m 0.135,-1.34117 c 0.12,-0.31224 0.05,-0.67057 -0.152,-0.79628 -0.203,-0.12572 -0.37,0.12975 -0.37,0.56771 0,0.93378 0.215,1.02799 0.522,0.22857 z m -23.918,-0.97921 c -0.132,-0.2127 -0.447,-0.38406 -0.7,-0.38081 -0.277,0.004 -0.229,0.15556 0.12,0.38081 0.743,0.48014 0.876,0.48014 0.58,0 z m -0.06,-1.75267 c -0.119,-0.31224 -0.394,-0.56771 -0.61,-0.56771 -0.247,0 -0.233,0.1927 0.04,0.519 0.237,0.28545 0.302,0.6614 0.144,0.83546 -0.158,0.17406 -0.08,0.19598 0.18,0.0487 0.256,-0.14726 0.368,-0.52322 0.248,-0.83546 z m 23.974,-0.74138 c 0.144,-0.37381 0.03,-0.48908 -0.343,-0.3462 -0.307,0.1178 -0.462,0.36998 -0.344,0.5604 0.296,0.47958 0.438,0.43544 0.687,-0.2142 z m 0.01,-3.13948 c -0.08,-1.58913 -0.514,-2.30419 -0.558,-0.90865 -0.02,0.51403 -0.09,1.23915 -0.159,1.61138 -0.07,0.37222 0.08,0.67677 0.326,0.67677 0.277,0 0.43,-0.54143 0.391,-1.3795 z m -24.352,-3.97026 c 0.11,-0.17725 -0.05,-0.32227 -0.347,-0.32227 -0.3,0 -0.456,0.14502 -0.347,0.32227 0.11,0.17725 0.266,0.32228 0.347,0.32228 0.08,0 0.238,-0.14503 0.347,-0.32228 z m 0.233,-5.32668 c 0,-0.0836 -0.358,-0.15199 -0.796,-0.15199 -0.438,0 -0.693,0.16643 -0.568,0.36984 0.207,0.3339 1.364,0.14901 1.364,-0.21785 z m -0.49,-7.01671 c 0.09,-6.47601 -0.04,-8.21775 -0.595,-8.21775 -0.163,0 -0.26,3.17602 -0.216,7.05782 0.09,8.21933 0.06,7.63799 0.431,7.63766 0.16,-1.5e-4 0.331,-2.91512 0.38,-6.47773 z m 24.639,-5.86247 c 0.119,-0.19351 0.105,-0.64317 -0.03,-0.99925 -0.198,-0.51598 -0.315,-0.54269 -0.576,-0.13158 -0.179,0.28371 -0.329,0.73337 -0.332,0.99925 0,0.56024 0.62,0.64807 0.939,0.13158 z m -35.9,-9.24644 c -0.108,-0.17421 0.319,-0.24115 0.948,-0.14874 0.971,0.1424 1.105,0.0631 0.881,-0.52014 -0.179,-0.46812 -0.121,-0.59974 0.184,-0.41163 0.246,0.15209 0.831,-0.0816 1.301,-0.51944 0.874,-0.81366 3.301,-1.67683 3.818,-1.35748 0.158,0.0976 0.805,-0.30052 1.438,-0.88464 0.633,-0.584114 1.477,-1.121242 1.876,-1.193614 0.399,-0.07237 1,-0.377302 1.337,-0.677621 0.336,-0.300319 0.755,-0.415134 0.932,-0.255144 0.176,0.159991 0.183,0.0539 0.02,-0.235758 -0.183,-0.31559 -0.09,-0.661936 0.228,-0.864221 0.353,-0.22382 -0.01,-0.339565 -1.083,-0.343492 -1.267,-0.0046 -1.78,0.202808 -2.376,0.960903 -0.418,0.531753 -0.932,0.966825 -1.141,0.966825 -0.209,0 -0.597,0.261042 -0.862,0.580094 -0.264,0.319052 -0.808,0.580095 -1.207,0.580095 -0.4,0 -0.726,0.261043 -0.726,0.580093 0,0.31905 -0.218,0.59303 -0.484,0.60883 -1.176,0.0699 -2.341,0.40232 -3.307,0.94373 -1.64,0.9184 -2.574,1.52 -2.784,1.79234 -0.106,0.13808 -0.628,0.33192 -1.16,0.43075 -0.626,0.11635 -0.379,0.19825 0.7,0.23235 0.916,0.029 1.578,-0.0899 1.471,-0.26409 z m 19.292,-8.478485 c 0.638,-0.326809 1.286,-0.787452 1.439,-1.02365 0.198,-0.306251 0.531,-0.272947 1.16,0.116092 0.808,0.499858 0.837,0.491762 0.351,-0.09668 -0.473,-0.572487 -0.41,-0.642868 0.58,-0.648147 0.786,-0.0042 0.955,-0.105004 0.577,-0.344451 -0.42,-0.265932 -0.358,-0.394652 0.29,-0.600234 0.453,-0.143937 0.824,-0.445314 0.824,-0.669726 0,-0.250855 0.227,-0.219747 0.589,0.08076 0.492,0.40869 0.549,0.384764 0.345,-0.146012 -0.134,-0.349137 -0.648,-0.634795 -1.143,-0.634795 -1.184,0 -3.063,0.724193 -2.733,1.053562 0.32,0.320445 -2.352,1.653547 -3.314,1.653547 -0.388,0 -0.705,0.153731 -0.705,0.341625 0,0.187894 -0.304,0.456358 -0.677,0.596587 -0.372,0.14023 -1.285,0.511958 -2.03,0.826064 -1.352,0.570356 -1.35,0.570787 0.966,0.33038 1.276,-0.132396 2.843,-0.50811 3.481,-0.83492 z m 21.463,-6.825943 c 0,-0.08359 -0.27,-0.255629 -0.6,-0.3823 -0.344,-0.132067 -0.499,-0.06723 -0.364,0.151989 0.227,0.367472 0.964,0.543529 0.964,0.230311 z"
         id="path1" /></g></g></svg>
