<?xml version="1.0" encoding="UTF-8" standalone="no"?>
<!-- Created with Inkscape (http://www.inkscape.org/) -->

<svg
   width="231.38646"
   height="235.24007"
   viewBox="0 0 61.221 62.240601"
   version="1.1"
   id="svg1"
   xml:space="preserve"
   xmlns="http://www.w3.org/2000/svg"
   xmlns:svg="http://www.w3.org/2000/svg"><defs
     id="defs1" /><g
     id="g2047"
     transform="matrix(0.26458333,0,0,0.26458333,-5299.2671,-10.12824)"><g
       id="g2188"
       transform="translate(-1397.3268,-279.16667)"><g
         id="g2204"
         transform="translate(-3.3489723e-4,-279.33333)"><path
           style="fill:#000000"
           d="m 21510.657,805.12251 c -0.133,-0.34936 -0.516,-0.63519 -0.852,-0.63519 -0.37,0 -0.561,-0.2564 -0.485,-0.6527 0.07,-0.35898 -0.343,-1.16847 -0.915,-1.79887 -0.572,-0.6304 -0.898,-1.24043 -0.724,-1.35562 0.787,-0.5213 1.113,-1.95919 1.023,-4.50486 -0.07,-1.91924 0.03,-2.67836 0.32,-2.50332 0.282,0.17002 0.277,0.0729 -0.02,-0.30039 -0.385,-0.49253 -0.397,-1.51061 -0.08,-7.05472 0.137,-2.38026 -0.05,-2.84377 -1.254,-3.15864 -0.943,-0.24575 -1.228,-0.5508 -1.351,-1.44545 -0.357,-2.58517 -0.246,-3.74681 0.323,-3.39265 0.302,0.18779 0.333,0.10531 0.1,-0.26432 -0.487,-0.77228 -0.55,-3.4063 -0.08,-3.4063 0.267,0 0.262,-0.16192 -0.01,-0.49688 -0.339,-0.41141 -0.381,-2.21851 -0.07,-2.94595 0.05,-0.10519 0.08,-0.82567 0.08,-1.60105 0,-1.04073 0.131,-1.35694 0.517,-1.20791 0.737,0.28463 0.845,0.99 0.77,5.03395 -0.05,2.64365 -0.208,3.65456 -0.617,3.91514 -0.436,0.27789 -0.444,0.3525 -0.04,0.35713 0.369,0.004 0.475,0.42968 0.374,1.49957 -0.105,1.10659 0.03,1.60026 0.513,1.90485 0.754,0.47443 1.085,0.12368 1.243,-1.31646 0.06,-0.51397 -0.09,-0.93832 -0.321,-0.943 -0.233,-0.005 0,-0.35122 0.527,-0.7701 0.523,-0.41888 0.686,-0.66847 0.363,-0.55465 -0.449,0.15862 -0.608,-0.11729 -0.679,-1.18142 -0.05,-0.76361 0.105,-1.62911 0.348,-1.92333 0.341,-0.41399 0.323,-0.53629 -0.08,-0.54082 -0.314,-0.004 -0.37,-0.11763 -0.141,-0.2869 0.416,-0.30801 0.54,-2.76753 0.139,-2.76753 -0.137,0 -0.118,-0.58502 0.04,-1.30003 0.16,-0.71502 0.155,-1.52278 -0.01,-1.79503 -0.186,-0.30301 -0.06,-0.68937 0.333,-0.99613 0.583,-0.45769 0.576,-0.47915 -0.08,-0.24751 -0.592,0.20905 -0.654,0.13896 -0.355,-0.39882 0.201,-0.36196 0.246,-1.53889 0.1,-2.64353 -0.144,-1.0951 -0.188,-2.1202 -0.1,-2.278 0.09,-0.15779 -0.02,-0.2869 -0.244,-0.2869 -0.224,0 -0.382,0.47339 -0.351,1.05198 0.03,0.57858 -0.08,2.08482 -0.239,3.34719 -0.163,1.26237 -0.3,2.51039 -0.305,2.77339 -0.01,0.62536 -0.331,0.60366 -1.234,-0.0835 -0.455,-0.3464 -0.547,-0.5663 -0.24,-0.57381 0.274,-0.007 0.38,-0.20355 0.236,-0.43747 -0.143,-0.23391 -0.02,-0.57556 0.263,-0.75921 0.288,-0.18365 0.34,-0.33655 0.115,-0.33977 -0.224,-0.003 -0.367,-0.56423 -0.317,-1.2491 0.05,-0.68378 0.105,-1.89893 0.123,-2.70033 0.02,-0.99817 0.171,-1.37112 0.471,-1.18414 0.272,0.16911 0.336,0.10494 0.168,-0.16869 -0.149,-0.2429 -0.595,-0.44164 -0.99,-0.44164 -0.395,0 -0.856,-0.22628 -1.023,-0.50284 -0.167,-0.27656 -1.33,-0.80715 -2.584,-1.17909 -1.254,-0.37194 -2.505,-0.74694 -2.78,-0.83334 -0.274,-0.0864 -0.414,-0.29471 -0.311,-0.46291 0.103,-0.16821 -0.185,-0.33232 -0.641,-0.3647 -1.685,-0.11967 -3.493,-0.56377 -4.563,-1.12068 -0.748,-0.38905 -1.007,-0.42091 -0.81,-0.0994 0.194,0.31501 0.134,0.37591 -0.177,0.18214 -0.258,-0.16011 -1.262,-0.3657 -2.231,-0.45688 -0.97,-0.0912 -1.855,-0.31462 -1.966,-0.49655 -0.112,-0.18192 -0.375,-0.33697 -0.584,-0.34456 -0.209,-0.008 -1.149,-0.11024 -2.09,-0.22813 -0.941,-0.1179 -2.524,-0.25724 -3.519,-0.30965 -1.254,-0.066 -1.754,-0.24065 -1.629,-0.56887 0.1,-0.26047 0.06,-0.44095 -0.09,-0.40106 -0.149,0.0399 -1.344,-0.0573 -2.656,-0.216 -1.684,-0.20357 -2.311,-0.42339 -2.13,-0.74655 0.18,-0.32311 0.105,-0.31717 -0.256,0.0201 -0.701,0.65488 -1.248,0.6016 -0.983,-0.0956 0.121,-0.3156 0.1,-0.59578 -0.05,-0.62263 -0.15,-0.0268 -0.615,-0.0921 -1.033,-0.14505 -0.418,-0.0529 -1.363,-0.21487 -2.099,-0.35988 l -1.338,-0.26365 -0.07,1.84321 c -0.09,2.37978 -0.107,3.07503 -0.07,3.66026 0.02,0.263 -0.09,1.94137 -0.233,3.72973 -0.144,1.78836 -0.285,4.49957 -0.314,6.02492 -0.03,1.52535 -0.183,2.77338 -0.344,2.77339 -0.161,2e-5 -0.196,0.38735 -0.08,0.86073 0.315,1.26685 0.327,3.24289 0.03,5.83368 -0.143,1.26237 -0.297,3.19838 -0.342,4.30224 -0.04,1.10386 -0.206,2.0076 -0.358,2.00831 -0.151,7.2e-4 -0.115,0.42556 0.08,0.9441 0.23,0.61073 0.221,1.02694 -0.03,1.18167 -0.219,0.13598 -0.246,0.43017 -0.06,0.68298 0.302,0.41688 0.332,5.88369 0.04,7.1385 -0.07,0.31559 -0.305,0.70028 -0.514,0.85485 -0.245,0.18071 -0.229,0.28314 0.04,0.2869 0.239,0.003 0.347,0.40099 0.249,0.91736 -0.1,0.50133 0.01,1.02791 0.243,1.17019 1.031,0.64139 -0.258,2.89128 -1.656,2.89128 -0.299,0 -0.64,0.15765 -0.759,0.35033 -0.259,0.42151 -5.172,0.16327 -5.628,-0.29581 -0.381,-0.38288 -0.378,-0.19544 -0.119,-7.66681 0.112,-3.23999 0.292,-5.98028 0.401,-6.08954 0.108,-0.10926 -0.09,-0.51387 -0.433,-0.89914 -0.533,-0.59364 -0.543,-0.70048 -0.06,-0.70048 0.418,0 0.53,-0.33002 0.423,-1.24325 -0.08,-0.68378 -0.178,-2.36216 -0.218,-3.72973 -0.04,-1.36756 -0.246,-2.61295 -0.458,-2.76753 -0.232,-0.1682 -0.158,-0.28574 0.183,-0.29276 0.507,-0.0104 0.507,-0.0536 0,-0.38839 -0.357,-0.23624 -0.428,-0.48365 -0.19,-0.66358 0.622,-0.46904 0.622,-1.48916 0,-2.00804 -0.385,-0.32178 -0.458,-0.63273 -0.215,-0.92651 0.444,-0.53931 0.6,-3.23557 0.237,-4.10368 -0.146,-0.34691 -0.09,-0.73703 0.115,-0.86693 0.209,-0.1299 0.303,-0.66374 0.209,-1.1863 -0.106,-0.58661 0,-0.95012 0.292,-0.95012 0.35,0 0.356,-0.10798 0.02,-0.44114 -0.301,-0.30351 -0.321,-0.66155 -0.06,-1.14761 0.259,-0.48686 0.246,-0.70647 -0.04,-0.70647 -0.236,0 -0.288,-0.20666 -0.121,-0.47817 0.161,-0.26299 0.3,-1.25281 0.308,-2.19958 0,-0.94678 0.169,-1.96319 0.357,-2.25869 0.213,-0.33398 0.205,-0.45118 -0.02,-0.30974 -0.308,0.19191 -0.429,-6.34014 -0.129,-6.99498 0.05,-0.1052 0.06,-0.35814 0.01,-0.56209 -0.279,-1.42206 -0.259,-2.92177 0.04,-3.10907 0.213,-0.13231 0.177,-0.44085 -0.09,-0.76207 -0.342,-0.41548 -0.336,-0.53975 0.03,-0.53975 0.352,0 0.365,-0.13066 0.05,-0.51336 -0.232,-0.28236 -0.316,-0.62134 -0.185,-0.7533 0.323,-0.32434 0.316,-7.31152 0,-7.83772 -0.285,-0.46508 -0.156,-4.66392 0.144,-4.66576 0.104,-6.4e-4 0.184,-0.73277 0.177,-1.62695 0,-0.89417 0.164,-1.75225 0.38,-1.90682 0.257,-0.18423 0.238,-0.28306 -0.06,-0.2869 -0.289,-0.004 -0.373,-0.38251 -0.236,-1.05784 0.118,-0.57858 0.203,-1.35322 0.189,-1.72141 -0.01,-0.36819 0.177,-0.68154 0.425,-0.69632 0.249,-0.0148 0.11,-0.17483 -0.308,-0.35565 -0.418,-0.18082 -0.584,-0.34087 -0.368,-0.35565 0.223,-0.0153 0.349,-0.76703 0.292,-1.7483 -0.06,-0.97719 0.07,-1.72142 0.286,-1.72142 0.26,0 0.262,-0.23468 0,-0.71477 -0.209,-0.39313 -0.272,-0.82348 -0.14,-0.95634 0.132,-0.13287 0.06,-0.24157 -0.155,-0.24157 -0.244,0 -0.299,-0.47387 -0.143,-1.24055 0.138,-0.6823 0.149,-2.04974 0.02,-3.03877 -0.143,-1.11932 -0.09,-1.71183 0.138,-1.56937 0.218,0.13563 0.243,0.0251 0.06,-0.27147 -0.971,-1.58056 -0.737,-9.56383 0.28,-9.56383 0.242,0 0.299,-0.68169 0.151,-1.81705 -0.155,-1.18793 -0.06,-2.15001 0.262,-2.77872 0.328,-0.63319 0.395,-1.35184 0.194,-2.10395 -0.168,-0.62825 -0.201,-1.47331 -0.08,-1.87789 0.127,-0.40459 0.28,-1.69565 0.34,-2.86903 0.06,-1.17337 0.216,-3.5966 0.347,-5.38496 0.352,-4.79975 0.377,-8.21918 0.06,-8.72976 -0.262,-0.42733 0.384,-0.56673 2.553,-0.55094 0.542,0.004 0.645,-0.19443 0.468,-0.9039 -0.125,-0.49993 -0.07,-0.90896 0.132,-0.90896 0.198,0 0.438,0.30125 0.534,0.66944 0.165,0.63756 0.176,0.63756 0.218,0 0.02,-0.36819 0.215,-0.69096 0.424,-0.71725 0.209,-0.0263 0.508,-0.0778 0.665,-0.11436 0.157,-0.0366 1.097,-0.19776 2.09,-0.35816 0.993,-0.16039 1.806,-0.43986 1.806,-0.62105 0,-0.18119 0.598,-0.52827 1.33,-0.7713 0.731,-0.24303 1.33,-0.60066 1.33,-0.79474 0,-0.19408 0.389,-0.35287 0.863,-0.35287 0.475,0 2.01,-0.31996 3.411,-0.71101 1.402,-0.39106 2.647,-0.61149 2.768,-0.48983 0.121,0.12165 0.111,-0.0643 -0.02,-0.41327 -0.192,-0.50256 0.06,-0.68478 1.215,-0.87657 0.801,-0.13317 1.799,-0.39428 2.217,-0.58024 0.418,-0.18596 1.502,-0.47482 2.409,-0.64191 0.908,-0.16709 1.592,-0.43919 1.521,-0.60466 -0.255,-0.59251 1.046,-1.02644 3.101,-1.03452 1.15,-0.005 2.58,-0.26536 3.179,-0.57966 0.599,-0.3143 1.368,-0.57251 1.71,-0.5738 0.342,-10e-4 1.05,-0.22568 1.572,-0.49863 0.532,-0.27757 2.56,-0.54243 4.604,-0.60103 3.36,-0.0963 3.669,-0.0443 3.849,0.64755 0.108,0.41377 0.06,0.97667 -0.111,1.2509 -0.168,0.27423 -0.245,0.98185 -0.171,1.57249 0.08,0.64362 -0.04,1.07625 -0.312,1.07976 -0.294,0.004 -0.313,0.10231 -0.06,0.2869 0.508,0.36324 0.508,1.729 0,2.09224 -0.235,0.16864 -0.154,0.28338 0.203,0.2869 0.451,0.004 0.57,0.34332 0.488,1.38559 -0.06,0.75886 -0.313,1.62928 -0.565,1.93427 -0.251,0.30499 -0.3,0.52443 -0.108,0.48764 0.806,-0.15416 1.071,0.063 0.54,0.44124 -0.316,0.22455 -0.401,0.47815 -0.19,0.5678 0.492,0.20969 0.255,6.7707 -0.256,7.08852 -0.208,0.12952 -0.07,0.35478 0.308,0.50057 0.584,0.22536 0.603,0.31845 0.127,0.62118 -0.308,0.19586 -0.369,0.35874 -0.137,0.36196 0.497,0.007 0.469,5.67683 -0.03,6.49298 -0.213,0.34696 -0.173,0.42706 0.122,0.24379 0.277,-0.17256 0.439,0.0167 0.439,0.5147 0,0.43321 -0.214,0.79029 -0.475,0.79351 -0.36,0.004 -0.366,0.076 -0.02,0.2952 0.581,0.37195 0.547,2.8316 -0.03,2.48136 -0.229,-0.13834 -0.195,0.0244 0.08,0.36165 0.349,0.43306 0.371,0.68938 0.08,0.87256 -0.3,0.18615 -0.292,0.41179 0.03,0.79913 0.353,0.42851 0.312,0.53975 -0.199,0.53975 -0.601,0 -0.601,0.0427 -0.01,0.63686 0.59,0.59412 0.573,0.66888 -0.253,1.11405 -1.053,0.56695 -1.523,0.37524 -1.195,-0.48666 0.131,-0.34317 0.242,-1.37051 0.246,-2.28297 0,-0.91247 0.156,-1.65903 0.338,-1.65903 0.182,0 0.196,-0.21518 0.03,-0.47817 -0.441,-0.70326 -0.396,-4.63954 0.06,-4.96712 0.252,-0.18211 0.255,-0.2832 0,-0.28717 -0.233,-0.004 -0.381,-1.8589 -0.381,-4.78712 0,-2.62954 -0.134,-4.78119 -0.298,-4.78143 -0.164,-2.5e-4 -0.13,-0.3169 0.08,-0.70368 0.205,-0.38677 0.272,-1.09296 0.148,-1.5693 -0.139,-0.53489 -0.02,-0.99514 0.305,-1.20359 0.306,-0.19491 0.348,-0.34 0.1,-0.34338 -0.237,-0.003 -0.431,-0.47925 -0.431,-1.05784 0,-0.57858 -0.05,-2.81642 -0.102,-4.97297 l -0.102,-3.921 h -1.308 c -0.989,0 -1.357,0.18697 -1.507,0.76507 -0.147,0.56761 -0.518,0.76508 -1.437,0.76508 -1.837,0 -3.63,0.4287 -3.395,0.81165 0.113,0.18477 -0.574,0.33596 -1.527,0.33596 -1.277,0 -1.733,0.14902 -1.733,0.56651 0,0.31159 -0.47,0.67187 -1.045,0.80063 -0.575,0.12876 -1.387,0.33829 -1.805,0.46562 -0.418,0.12732 -0.908,0.19069 -1.09,0.1408 -0.552,-0.1521 -3.066,0.79382 -3.471,1.30596 -0.209,0.26472 -0.71,0.53886 -1.113,0.6092 -0.403,0.0703 -0.713,0.30005 -0.688,0.51045 0.06,0.51583 -0.888,0.83316 -3.458,1.1564 -1.184,0.14885 -2.152,0.42293 -2.152,0.60909 0,0.18615 -0.269,0.33846 -0.597,0.33846 -0.329,0 -0.854,0.25821 -1.168,0.5738 -0.313,0.31559 -0.951,0.5738 -1.417,0.5738 -0.466,0 -1.022,0.17672 -1.237,0.39271 -0.215,0.21598 -1.302,0.50139 -2.416,0.63424 -1.197,0.14263 -2.313,0.53011 -2.727,0.94618 -0.385,0.38755 -0.952,0.70463 -1.261,0.70463 -0.42,0 -0.503,0.28744 -0.332,1.14761 0.18,0.90645 0.1,1.14761 -0.403,1.14761 -0.487,0 -0.548,0.15538 -0.27,0.67931 0.224,0.42005 0.227,0.92132 0,1.31338 -0.218,0.39135 -0.216,0.71894 0,0.8558 0.196,0.12196 0.28,0.77896 0.186,1.46001 -0.236,1.71204 -0.468,5.32921 -0.716,11.15864 -0.115,2.72107 -0.282,5.01964 -0.369,5.10794 -0.09,0.0883 -0.03,0.53017 0.126,0.98192 0.158,0.45176 0.18,1.3378 0.05,1.96898 -0.131,0.63119 -0.112,1.61868 0.04,2.19443 0.153,0.57575 0.135,1.13595 -0.04,1.24489 -0.175,0.10894 -0.239,0.67072 -0.142,1.2484 0.243,1.44257 0.242,1.53241 -0.06,7.36218 -0.308,5.985 -0.303,5.57013 -0.08,7.17256 0.1,0.68378 0.05,1.24324 -0.11,1.24324 -0.156,0 -0.231,0.55946 -0.167,1.24324 0.06,0.68379 0.127,2.19003 0.141,3.3472 0.01,1.15717 0.03,2.36216 0.03,2.67775 0,0.3156 0.04,2.92556 0.09,5.79993 l 0.08,5.22612 1.152,-0.61965 c 0.633,-0.34081 1.237,-0.64173 1.341,-0.66872 1.078,-0.27843 1.369,-0.68895 1.219,-1.71909 -0.107,-0.73414 0,-1.13293 0.305,-1.13293 0.371,0 0.37,-0.12009 0,-0.57381 -0.377,-0.45778 -0.377,-0.5738 0,-0.5738 0.329,0 0.357,-0.14605 0.09,-0.47817 -0.21,-0.263 -0.309,-0.9946 -0.22,-1.62578 0.308,-2.18911 0.357,-6.12581 0.09,-7.14376 -0.149,-0.56275 -0.168,-1.12572 -0.04,-1.25104 0.396,-0.39835 0.353,-1.74242 -0.05,-1.74242 -0.244,0 -0.226,-0.16739 0.05,-0.44114 0.296,-0.29885 0.319,-0.66399 0.07,-1.13211 -0.42,-0.79139 -0.338,-1.55182 0.213,-1.95935 0.24,-0.17708 0.214,-0.28321 -0.07,-0.2869 -0.387,-0.005 -0.415,-3.00586 -0.06,-7.08278 0.02,-0.2104 -0.06,-0.85313 -0.175,-1.42829 -0.115,-0.57517 -0.06,-1.13695 0.118,-1.2484 0.181,-0.11254 0.181,-0.71065 0,-1.3451 -0.205,-0.71912 -0.186,-1.14245 0.05,-1.14245 0.207,0 0.263,-0.18456 0.124,-0.41012 -0.309,-0.50332 -0.446,-5.32843 -0.151,-5.32814 0.282,2.8e-4 0.126,-2.12761 -0.194,-2.64925 -0.139,-0.22596 -0.114,-0.41195 0.06,-0.41331 0.169,-10e-4 0.362,-1.33546 0.429,-2.96466 0.221,-5.3524 0.363,-6.774 0.789,-7.86442 0.231,-0.59228 0.42,-1.37165 0.42,-1.73193 0,-0.36028 0.271,-1.04562 0.604,-1.52298 0.332,-0.47737 0.508,-1.11816 0.392,-1.424 -0.127,-0.33083 0.01,-0.55606 0.346,-0.55606 0.307,0 0.558,-0.22256 0.558,-0.49459 0,-0.27202 0.94,-0.81626 2.089,-1.20943 1.627,-0.55651 2.29,-0.62297 2.994,-0.30006 0.629,0.28852 1.026,0.29305 1.302,0.0149 0.549,-0.55259 2.553,1.4555 2.096,2.10094 -0.179,0.25414 -0.295,1.75314 -0.257,3.3311 0.06,2.63665 0.131,14.86045 0.09,16.64033 -0.02,0.8377 0.431,14.10358 0.551,16.2578 0.04,0.73638 0.211,1.55405 0.378,1.81705 0.171,0.27021 0.132,0.47817 -0.09,0.47817 -0.411,0 -0.461,2.6035 -0.06,2.85551 0.129,0.08 0.189,1.66511 0.133,3.52235 -0.159,5.37545 0.02,5.66268 2.788,4.4571 0.809,-0.35262 1.899,-0.66076 2.421,-0.68475 0.93,-0.0427 2.859,-0.93475 2.072,-0.95771 -0.22,-0.006 -0.604,0.19494 -0.855,0.44741 -0.271,0.27231 -0.456,0.29891 -0.456,0.0654 0,-0.59098 3.644,-2.19704 4.2,-1.85114 0.328,0.20392 0.383,0.1425 0.175,-0.19552 -0.511,-0.83178 -0.565,-4.21442 -0.07,-4.22745 0.244,-0.006 0.132,-0.19381 -0.248,-0.41648 -0.669,-0.39149 -0.669,-0.42361 0,-0.97308 0.38,-0.31252 0.505,-0.47632 0.277,-0.36398 -0.548,0.27067 -0.681,-3.07224 -0.135,-3.41187 0.257,-0.16007 0.154,-0.43923 -0.283,-0.7657 -0.596,-0.44488 -0.62,-0.62487 -0.185,-1.34218 0.418,-0.68736 0.418,-0.77652 0,-0.52367 -0.407,0.24644 -0.413,0.19248 -0.03,-0.28207 0.259,-0.32274 0.349,-0.7106 0.198,-0.86192 -0.15,-0.15132 -0.286,-1.03922 -0.302,-1.97312 -0.02,-1.24503 0.119,-1.698 0.525,-1.698 0.4,0 0.338,-0.18857 -0.226,-0.68024 -0.705,-0.61565 -0.734,-0.81221 -0.304,-2.07019 0.394,-1.15405 0.388,-1.35627 -0.04,-1.19152 -0.332,0.12803 -0.514,-0.0875 -0.514,-0.60756 0,-0.4433 0.214,-0.80863 0.475,-0.81185 0.327,-0.004 0.345,-0.0936 0.06,-0.28691 -0.228,-0.15457 -0.352,-0.88354 -0.275,-1.61992 0.08,-0.73638 0.147,-1.68316 0.154,-2.10395 0.03,-1.47 0.03,-7.27144 0,-7.65073 -0.08,-1.19722 -0.03,-9.71583 0.07,-10.51975 0.06,-0.52598 -0.07,-1.08859 -0.282,-1.25024 -0.25,-0.18776 -0.163,-0.42955 0.241,-0.6695 0.347,-0.20658 0.585,-0.67682 0.529,-1.04497 -0.06,-0.36816 0.04,-0.76293 0.214,-0.87726 0.174,-0.11433 0.368,-0.54468 0.432,-0.95634 0.06,-0.41165 0.249,-0.96364 0.412,-1.22663 0.163,-0.263 0.168,-0.47818 0.01,-0.47818 -0.157,0 0.05,-0.27097 0.453,-0.60217 0.406,-0.33119 0.524,-0.49317 0.263,-0.35996 -0.262,0.13322 -0.475,0.0786 -0.475,-0.12143 0,-0.2 0.427,-0.47165 0.95,-0.60367 0.522,-0.13201 0.95,-0.48955 0.95,-0.79453 0,-0.31792 0.227,-0.4669 0.532,-0.34917 0.292,0.11293 0.621,0.0587 0.731,-0.12048 0.11,-0.1792 0.908,-0.25787 1.773,-0.17482 1.149,0.11028 1.519,0.29426 1.371,0.68227 -0.111,0.29221 -0.06,0.53128 0.12,0.53128 0.616,0 1.223,2.15603 0.925,3.28838 -0.355,1.35135 -0.403,1.56772 -0.464,2.10806 -0.03,0.2329 -0.313,0.32095 -0.637,0.19565 -0.338,-0.13064 -0.491,-0.0665 -0.358,0.15034 0.128,0.20799 0.485,0.37815 0.794,0.37815 0.443,0 0.475,0.16061 0.154,0.76508 -0.224,0.42079 -0.273,0.76519 -0.109,0.76534 0.165,1.5e-4 0.323,0.4305 0.354,0.95634 0.03,0.52584 -0.06,0.95605 -0.19,0.95603 -0.214,-4e-5 -0.247,14.41545 -0.03,14.91896 0.07,0.17878 0.314,4.61027 0.34,6.31185 0,0.42079 0.03,1.36757 0.06,2.10395 0.164,4.81013 0.11,6.88579 -0.18,6.88573 -0.182,-4e-5 -0.163,0.2151 0.04,0.4781 0.206,0.26299 0.32,1.16673 0.254,2.00831 -0.231,2.92182 -0.234,5.59585 0,5.82337 0.125,0.12582 0.541,-0.0571 0.925,-0.40645 0.383,-0.34937 0.817,-0.63521 0.964,-0.63521 0.147,0 0.873,-0.25461 1.613,-0.56579 0.865,-0.36375 1.246,-0.72784 1.067,-1.01959 -0.498,-0.8107 -0.523,-3.80584 -0.03,-3.50801 0.243,0.147 0.186,-0.0562 -0.127,-0.45158 -0.525,-0.66122 -0.51,-0.69771 0.19,-0.45503 0.748,0.25976 0.748,0.25496 0.02,-0.31091 -0.474,-0.36896 -0.555,-0.57475 -0.226,-0.57475 0.363,0 0.301,-0.2388 -0.213,-0.82096 -0.503,-0.57039 -0.55,-0.7456 -0.153,-0.57405 0.313,0.1358 0.857,0.35004 1.208,0.47609 0.627,0.22485 0.677,0.63486 0.781,6.4657 0.01,0.78826 2.178,2.48649 3.168,2.48649 0.299,0 0.544,0.14345 0.544,0.31878 0,0.17533 0.213,0.33702 0.475,0.35932 2.636,0.22501 4.792,0.63051 4.642,0.87341 -0.101,0.1644 0.374,0.41887 1.055,0.56548 0.682,0.14661 1.41,0.39442 1.619,0.55069 0.209,0.15626 1.577,0.68056 3.041,1.16511 1.463,0.48455 2.917,0.96646 3.23,1.07092 0.314,0.10446 0.763,0.16017 0.998,0.1238 0.235,-0.0364 0.724,0.38954 1.087,0.94646 0.517,0.79518 0.73,0.89909 0.991,0.48396 0.261,-0.41385 0.334,-0.41991 0.339,-0.0279 0,0.27541 0.177,0.39435 0.386,0.26432 0.209,-0.13003 0.38,-0.034 0.38,0.21331 0,0.2614 0.318,0.36595 0.76,0.24966 0.418,-0.11004 0.76,-0.0871 0.76,0.051 0,0.1381 0.385,0.27332 0.855,0.30049 1.805,0.1043 5.088,0.87786 6.259,1.47485 0.673,0.34298 1.699,0.65676 2.281,0.69728 0.581,0.0405 1.268,0.27349 1.525,0.5177 0.258,0.24421 0.672,0.51229 0.921,0.59573 0.575,0.19317 0.742,7.01629 0.201,8.23676 -0.402,0.90691 -0.871,1.11603 -1.083,0.48343 -0.14,-0.41643 -0.342,5.79575 -0.268,8.21927 0.1,3.11074 -0.391,24.39943 -0.604,26.39502 -0.09,0.84158 -0.199,2.4667 -0.245,3.61137 -0.07,1.7055 -0.271,2.2673 -1.13,3.11184 -1.107,1.08939 -1.466,1.11633 -5.368,0.40253 -0.318,-0.0581 -0.148,-2.43306 0.215,-3.0254 0.14,-0.22736 0.07,-0.52667 -0.151,-0.66514 -0.283,-0.17607 -0.275,-0.40878 0.03,-0.77407 0.274,-0.33203 0.387,-1.81771 0.31,-4.07821 -0.07,-1.95574 0.01,-3.77107 0.181,-4.03407 0.173,-0.2758 0.125,-0.47817 -0.115,-0.47817 -0.289,0 -0.3,-0.21911 -0.03,-0.7164 0.209,-0.39402 0.311,-1.08258 0.225,-1.53014 -0.09,-0.46095 0.04,-0.81629 0.298,-0.81961 0.308,-0.004 0.29,-0.10951 -0.06,-0.3306 -0.568,-0.36198 -0.477,-2.36858 0.127,-2.81361 0.231,-0.16995 0.176,-0.28336 -0.14,-0.2869 -0.42,-0.005 -0.43,-0.11706 -0.05,-0.57966 0.26,-0.31559 0.324,-0.57644 0.141,-0.57966 -0.182,-0.003 -0.07,-0.17273 0.239,-0.37668 0.36,-0.23453 0.4,-0.37298 0.107,-0.37668 -0.255,-0.003 -0.376,-0.23439 -0.27,-0.5137 0.107,-0.27931 0.02,-0.96787 -0.192,-1.53014 -0.213,-0.56227 -0.246,-1.02231 -0.07,-1.02231 0.352,0 0.245,-8.16896 -0.114,-8.75342 -0.126,-0.20602 -0.07,-0.47324 0.123,-0.59381 0.194,-0.12057 0.295,-0.51978 0.225,-0.88714 -0.07,-0.36735 -0.14,-1.23518 -0.156,-1.92849 -0.03,-1.24513 -0.05,-1.25735 -1.454,-0.99714 -0.784,0.14489 -1.483,0.4109 -1.552,0.59114 -0.07,0.18023 -0.369,0.3277 -0.665,0.3277 -0.297,0 -0.539,0.15062 -0.539,0.33471 0,0.1841 -0.513,0.43801 -1.14,0.56425 -0.694,0.13971 -1.14,0.46786 -1.14,0.83866 0,0.44703 -0.215,0.54048 -0.808,0.35112 -0.544,-0.17364 -0.723,-0.11951 -0.548,0.16549 0.156,0.25309 -0.03,0.42352 -0.464,0.42352 -0.398,0 -1.119,0.34428 -1.601,0.76507 -0.482,0.42079 -1.107,0.76508 -1.388,0.76508 -0.282,0 -0.512,0.17214 -0.512,0.38253 0,0.2104 -0.228,0.38254 -0.506,0.38254 -0.278,0 -1.347,0.42963 -2.375,0.95474 -1.029,0.52511 -2.161,0.95546 -2.516,0.95634 -0.356,8.8e-4 -0.783,0.23468 -0.951,0.51956 -0.167,0.28488 -0.731,0.74255 -1.254,1.01705 -0.522,0.2745 -1.173,0.81605 -1.446,1.20345 -0.274,0.3874 -0.819,0.70437 -1.213,0.70437 -0.866,0 -1.319,0.6095 -0.727,0.97772 0.303,0.18813 0.277,0.36138 -0.09,0.59438 -0.34,0.21697 -0.362,0.33086 -0.07,0.33472 0.253,0.003 0.436,0.50959 0.418,1.15347 -0.02,0.63118 -0.188,1.14761 -0.377,1.14761 -0.19,0 -0.219,0.20599 -0.06,0.45777 0.338,0.54989 0.533,23.66834 0.205,24.21582 -0.463,0.77143 -0.358,1.2826 0.218,1.06017 0.394,-0.1521 0.521,-0.0499 0.39,0.31339 -0.107,0.29652 -0.424,0.48336 -0.706,0.41519 -0.318,-0.0771 -0.229,0.20102 0.237,0.7352 0.413,0.47252 0.51,0.71687 0.216,0.543 -0.387,-0.22942 -0.448,-0.17593 -0.22,0.19501 0.368,0.59897 0.495,3.43243 0.154,3.43243 -0.321,0 -0.204,1.61361 0.159,2.19959 0.162,0.26299 0.154,0.47817 -0.02,0.47817 -0.516,0 -0.227,2.75172 0.324,3.09459 0.564,0.35094 0.14,0.97419 -0.805,1.18162 -0.308,0.0676 -0.745,0.46724 -0.971,0.88803 -0.227,0.42079 -0.704,0.71391 -1.061,0.65137 -0.388,-0.0679 -0.775,0.22671 -0.96,0.73082 -0.264,0.71824 -0.347,0.74954 -0.553,0.20934 z m 0.372,-3.31187 c -0.04,-0.84098 -0.206,-1.52955 -0.375,-1.53014 -0.169,-6e-4 -0.195,-0.18464 -0.06,-0.40899 0.137,-0.22434 0.25,-0.9985 0.25,-1.72034 0,-0.82278 0.15,-1.21943 0.401,-1.06314 0.234,0.14574 0.288,0.0664 0.13,-0.1909 -0.148,-0.24211 -0.342,-0.81551 -0.429,-1.27423 -0.09,-0.45872 -0.378,-0.97315 -0.644,-1.14319 -0.355,-0.22656 -0.309,-0.31072 0.169,-0.31502 0.424,-0.004 0.576,-0.20771 0.435,-0.57966 -0.128,-0.33531 0,-0.57624 0.297,-0.57966 0.384,-0.004 0.399,-0.0805 0.06,-0.29886 -0.493,-0.31552 -0.455,-1.88666 0.07,-2.73523 0.214,-0.34898 0.177,-0.43201 -0.114,-0.25137 -0.298,0.18532 -0.391,-0.0955 -0.298,-0.89723 0.11,-0.95572 0,-1.16696 -0.622,-1.16696 -0.63,0 -0.678,0.0964 -0.284,0.5738 0.26,0.31559 0.324,0.57381 0.142,0.57381 -0.183,0 -0.332,1.63526 -0.332,3.63392 0,1.99866 0.138,3.634 0.307,3.6341 0.17,9e-5 0.191,0.18989 0.05,0.42176 -0.554,0.90233 -0.452,5.49002 0.138,6.17716 0.316,0.36819 0.621,0.66944 0.678,0.66944 0.06,0 0.07,-0.68808 0.04,-1.52907 z m 2.074,-1.43559 c 0.119,-3.30358 0.171,-3.75467 0.491,-4.267 0.223,-0.35709 0.196,-0.451 -0.08,-0.28002 -0.266,0.16504 -0.402,-0.15657 -0.381,-0.89724 0.02,-0.63497 0.198,-1.15449 0.401,-1.15449 0.238,0 0.237,-0.17004 0,-0.47817 -0.204,-0.26299 -0.333,-1.16674 -0.286,-2.00832 0.05,-0.84158 -0.05,-1.89976 -0.223,-2.35152 -0.168,-0.45175 -0.203,-0.92514 -0.08,-1.05197 0.126,-0.12683 0.224,-0.87613 0.218,-1.66511 0,-0.78899 0.09,-1.60666 0.211,-1.81705 0.377,-0.64857 0.383,-1.32533 0.01,-1.55506 -0.194,-0.12057 -0.237,-0.4225 -0.1,-0.67096 0.142,-0.24845 0.118,-0.32412 -0.05,-0.16815 -0.172,0.15597 -0.514,0.11465 -0.761,-0.0918 -0.331,-0.27646 -0.44,-0.0487 -0.415,0.86403 0.02,0.68168 0.185,1.34928 0.368,1.48356 0.184,0.13427 0.194,0.47263 0.02,0.75191 -0.359,0.58454 -0.341,11.98882 0.02,12.57636 0.132,0.21459 0.09,0.39017 -0.09,0.39017 -0.182,0 -0.301,0.7316 -0.264,1.62578 0.09,2.13098 0.105,2.19958 0.551,2.19958 0.209,0 0.403,-0.64553 0.431,-1.43451 z m -0.225,-16.51826 c -0.12,-0.19586 -0.07,-0.4465 0.104,-0.55698 0.178,-0.11048 0.323,0.0498 0.323,0.3561 0,0.64502 -0.12,0.70138 -0.427,0.20088 z m -47.691,13.03082 c 0.04,-0.37758 0.269,-4.38945 0.546,-9.42316 0.138,-2.52474 0.301,-8.38937 0.361,-13.03251 0.07,-5.44902 0.264,-8.73486 0.548,-9.2679 0.369,-0.69444 0.346,-0.78982 -0.147,-0.5995 -0.485,0.1874 -0.524,0.0611 -0.223,-0.73435 0.2,-0.52837 0.25,-1.0738 0.113,-1.21207 -0.137,-0.13827 0,-0.41155 0.309,-0.60728 0.413,-0.26263 0.429,-0.35742 0.06,-0.36174 -0.274,-0.003 -0.392,-0.17735 -0.264,-0.38696 0.48,-0.78106 0.543,-2.07808 0.114,-2.34491 -0.328,-0.20419 -0.302,-0.44898 0.102,-0.94114 0.422,-0.51497 0.438,-0.70168 0.07,-0.8269 -0.263,-0.0889 -0.351,-0.3622 -0.196,-0.60723 0.294,-0.46525 0.405,-1.67237 0.573,-6.24705 0.06,-1.5077 0.221,-2.86247 0.368,-3.0106 0.394,-0.39711 2.273,0.1638 2.006,0.59884 -0.125,0.20423 0.153,0.37132 0.62,0.37132 0.466,0 1.189,0.30125 1.608,0.66944 0.541,0.47699 0.666,0.50448 0.432,0.0956 -0.269,-0.46895 -0.226,-0.49 0.235,-0.11518 0.519,0.42267 3.441,1.25992 4.991,1.43005 0.361,0.0397 0.774,0.19045 0.918,0.335 0.144,0.14455 0.861,0.26281 1.593,0.26281 0.733,0 1.612,0.25505 1.954,0.56677 0.603,0.54905 1.58,0.75802 5.468,1.16917 1.017,0.10758 2.21,0.44957 2.65,0.75998 0.44,0.3104 1.626,0.56438 2.635,0.56438 1.009,0 2.318,0.25135 2.908,0.55855 0.59,0.30721 1.736,0.59439 2.547,0.63819 0.81,0.0438 1.644,0.17492 1.853,0.29139 0.209,0.11647 0.551,0.25633 0.76,0.31079 2.637,0.68699 3.878,1.13607 4.015,1.45263 0.09,0.2104 0.294,0.33951 0.451,0.28691 0.157,-0.0526 0.285,0.0335 0.286,0.19127 0,0.15779 0.726,0.33716 1.612,0.39858 0.886,0.0614 1.776,0.27661 1.976,0.47817 0.2,0.20157 0.715,0.36643 1.143,0.36635 0.625,-10e-5 0.794,-0.26835 0.853,-1.35644 0.06,-1.15136 -0.08,-1.41663 -0.95,-1.75549 -0.563,-0.21955 -1.623,-0.46876 -2.354,-0.5538 -2.688,-0.31237 -7.982,-1.4795 -7.982,-1.7596 0,-0.15871 -0.256,-0.18948 -0.57,-0.0684 -0.313,0.12111 -0.57,0.0492 -0.57,-0.15985 0,-0.20903 -0.47,-0.46928 -1.045,-0.57834 -2.538,-0.48142 -3.355,-0.73351 -3.893,-1.20012 -0.315,-0.27394 -1.409,-0.60733 -2.431,-0.74087 -1.063,-0.13887 -2.057,-0.515 -2.321,-0.87874 -0.254,-0.34977 -0.722,-0.53536 -1.041,-0.41242 -0.318,0.12294 -0.795,0.0218 -1.061,-0.22475 -0.377,-0.35082 -0.413,-0.32684 -0.164,0.11033 0.21,0.36859 -0.167,0.27099 -1.106,-0.2869 -0.783,-0.46503 -1.671,-0.84551 -1.972,-0.84551 -0.302,0 -0.549,-0.15503 -0.549,-0.34452 0,-0.33156 -2.494,-0.94546 -6.081,-1.49661 -0.94,-0.14455 -1.625,-0.43159 -1.52,-0.63786 0.114,-0.22446 -0.459,-0.3279 -1.425,-0.25765 -1.009,0.0733 -1.616,-0.0436 -1.616,-0.31117 0,-0.2357 -0.213,-0.38604 -0.475,-0.33407 -0.261,0.052 -1.022,-0.19869 -1.691,-0.55703 -0.669,-0.35834 -1.792,-0.65153 -2.496,-0.65153 h -1.28 l -0.06,-3.49014 c -0.03,-1.91958 -0.16,-3.81314 -0.285,-4.2079 -0.124,-0.39477 -0.08,-0.71776 0.09,-0.71776 0.332,0 0.324,-1.74047 -0.01,-3.53224 -0.109,-0.57516 -0.04,-1.1461 0.16,-1.26874 0.219,-0.13616 0.224,-0.46592 0.01,-0.8468 -0.212,-0.38088 -0.203,-1.00407 0.02,-1.60028 0.203,-0.53706 0.386,-0.97647 0.406,-0.97647 0.02,0 -0.168,-0.38732 -0.42,-0.86071 -0.318,-0.59757 -0.33,-0.8607 -0.04,-0.8607 0.242,0 0.289,-0.2004 0.112,-0.47817 -0.438,-0.68913 -0.382,-5.39881 0.07,-5.73219 0.25,-0.18425 0.243,-0.28306 -0.02,-0.2869 -0.457,-0.007 -0.258,-2.58478 0.222,-2.88359 0.171,-0.10608 0.176,-0.66468 0.01,-1.24132 -0.388,-1.35992 -0.162,-14.20118 0.391,-22.27596 0.238,-3.47152 0.432,-6.48399 0.431,-6.69439 0,-0.21039 -0.03,-1.50145 -0.07,-2.86902 -0.04,-1.36757 0.05,-2.87381 0.191,-3.34719 0.196,-0.65367 0.105,-0.86071 -0.379,-0.86071 -0.376,0 -0.528,-0.17665 -0.371,-0.43217 0.162,-0.26467 0.06,-0.35733 -0.263,-0.23908 -0.29,0.10619 -0.485,0.38674 -0.433,0.62343 0.05,0.2367 -0.06,0.43035 -0.26,0.43035 -0.195,0 -0.26,0.47339 -0.145,1.05198 0.261,1.31273 0.258,1.47074 -0.06,3.34719 -0.143,0.84158 -0.31,2.30478 -0.372,3.25156 -0.176,2.67698 -0.598,7.66246 -0.81,9.56341 -0.105,0.94678 -0.265,3.35676 -0.356,5.35551 -0.236,5.21142 -0.304,5.73671 -0.741,5.74968 -0.216,0.006 -0.09,0.18709 0.273,0.40154 0.724,0.42449 0.912,1.49951 0.262,1.49951 -0.221,0 -0.294,0.17534 -0.163,0.38965 0.321,0.52239 0.323,17.57017 0,20.40869 -0.371,3.29415 -0.439,22.4285 -0.08,22.42838 0.169,-6e-5 0.178,0.2116 0.02,0.47037 -0.159,0.25876 -0.325,1.85107 -0.369,3.53846 -0.04,1.68739 -0.194,5.21975 -0.333,7.84969 -0.138,2.62994 -0.241,4.95384 -0.227,5.16424 0.01,0.21039 0.1,4.81518 0.194,10.23285 0.129,7.44109 0.06,9.85174 -0.28,9.85617 -0.316,0.004 -0.303,0.10064 0.04,0.32067 0.392,0.25044 0.369,0.41832 -0.113,0.82108 -0.459,0.38321 -0.493,0.57678 -0.14,0.79635 0.573,0.35634 0.781,1.49887 0.274,1.49887 -0.203,0 -0.253,0.18876 -0.112,0.41947 0.142,0.23071 0.302,0.96231 0.357,1.62578 0.153,1.85882 0.527,2.48509 1.356,2.26703 0.404,-0.10649 0.746,-0.30264 0.759,-0.4359 z m 2.831,-2.3176 c -0.147,-0.87659 -0.08,-1.83184 0.17,-2.29522 0.233,-0.43654 0.269,-0.79371 0.08,-0.79371 -0.187,0 -0.27,-0.7316 -0.184,-1.62578 0.331,-3.4467 0.331,-5.31863 0,-5.5242 -0.189,-0.11761 -0.112,-0.36183 0.172,-0.54271 0.284,-0.18087 0.334,-0.33149 0.112,-0.33472 -0.465,-0.007 0.07,-5.67873 0.596,-6.31879 0.175,-0.21354 0.08,-0.71234 -0.224,-1.12505 -0.337,-0.4648 -0.397,-0.82941 -0.159,-0.97725 0.208,-0.12971 0.424,-1.97504 0.479,-4.10075 0.05,-2.1257 0,-3.80682 -0.108,-3.73581 -0.114,0.071 -0.207,-0.20255 -0.207,-0.60789 0,-0.40534 0.144,-0.73699 0.321,-0.73699 0.176,0 0.215,-0.17214 0.09,-0.38253 -0.129,-0.2104 -0.01,-0.39613 0.262,-0.41274 0.358,-0.0217 0.37,-0.0827 0.04,-0.21676 -0.333,-0.1362 -0.352,-0.46151 -0.07,-1.20509 0.265,-0.702 0.26,-1.06031 -0.02,-1.15297 -0.238,-0.0799 -0.276,-0.39371 -0.09,-0.77303 0.169,-0.35122 0.29,-1.41322 0.269,-2.36 -0.02,-0.94677 0.139,-1.86362 0.355,-2.03743 0.263,-0.21163 0.236,-0.38013 -0.08,-0.51005 -0.544,-0.22233 -0.651,-1.27788 -0.129,-1.27788 0.19,0 0.281,-0.77464 0.202,-1.72141 -0.09,-1.07808 0.01,-1.72142 0.27,-1.72142 0.28,0 0.292,-0.15541 0.04,-0.47817 -0.207,-0.26299 -0.329,-0.77941 -0.27,-1.14761 0.07,-0.44678 -0.14,-0.66943 -0.638,-0.66943 -0.639,0 -0.741,0.25702 -0.715,1.81704 0.02,0.99938 -0.07,2.67776 -0.183,3.72973 -0.253,2.29239 -0.245,5.52921 0.02,5.95369 0.103,0.16791 0,0.41851 -0.217,0.55688 -0.223,0.13837 -0.392,1.14007 -0.377,2.22601 0.02,1.08594 -0.08,5.15906 -0.205,9.05136 -0.127,3.89231 -0.26,8.88441 -0.294,11.09356 -0.03,2.20915 -0.201,4.23181 -0.37,4.4948 -0.181,0.28195 -0.133,0.47817 0.117,0.47817 0.234,0 0.317,0.17617 0.185,0.39148 -0.209,0.33969 -0.343,3.83606 -0.225,5.82474 0.02,0.36819 0.312,0.66944 0.644,0.66944 0.492,0 0.557,-0.27842 0.351,-1.50151 z m 42.763,-8.22768 c -0.237,-0.62711 -0.216,-0.97634 0.06,-1.07026 0.298,-0.0999 0.293,-0.36931 -0.02,-0.95097 -0.238,-0.44636 -0.305,-0.88283 -0.15,-0.96994 0.155,-0.0871 0.122,-0.13339 -0.07,-0.10287 -0.366,0.0571 -0.586,2.69508 -0.296,3.54672 0.09,0.26299 0.311,0.47817 0.492,0.47817 0.182,0 0.172,-0.41888 -0.02,-0.93085 z m 27.672,-1.58068 c 0.07,-0.19662 0.254,-0.52963 0.408,-0.74003 0.155,-0.21039 0.268,-1.63056 0.253,-3.15592 -0.02,-1.60905 0.132,-2.77585 0.352,-2.77925 0.209,-0.003 0.124,-0.17273 -0.19,-0.37668 -0.313,-0.20395 -0.375,-0.37346 -0.137,-0.37668 0.466,-0.006 0.549,-0.99541 0.617,-7.27405 0.03,-3.14983 0.171,-4.11719 0.637,-4.48263 0.337,-0.26455 0.405,-0.47127 0.157,-0.47817 -0.526,-0.0147 -0.533,-4.22007 0,-4.22007 0.194,0 0.182,-0.21027 -0.03,-0.47817 -0.206,-0.26299 -0.37,-1.02122 -0.363,-1.68494 0,-0.93007 0.149,-1.15948 0.613,-1.00051 0.493,0.16888 0.483,0.11028 -0.05,-0.32338 -0.565,-0.45885 -0.641,-1.20699 -0.57,-5.59829 0.04,-2.78776 0,-5.06599 -0.108,-5.06275 -1.132,0.0352 -1.498,1.47293 -1.629,6.40168 -0.03,1.10457 -0.194,2.00831 -0.365,2.00831 -0.172,0 -0.128,0.34785 0.1,0.77298 0.226,0.42514 0.315,0.92967 0.197,1.12118 -0.117,0.19151 -0.04,0.45806 0.179,0.59233 0.216,0.13427 0.295,0.4026 0.176,0.59628 -0.119,0.19368 -0.297,3.2373 -0.397,6.76359 -0.501,17.72865 -0.573,18.9193 -1.194,19.67208 -0.354,0.43017 -0.278,0.5268 0.393,0.49726 0.457,-0.0202 0.889,-0.19755 0.959,-0.39417 z m 2.941,-1.25955 c 0,-0.38051 -0.213,-0.69184 -0.472,-0.69184 -0.26,0 -0.391,0.13155 -0.293,0.29234 0.1,0.1608 0,0.40221 -0.213,0.53649 -0.531,0.33034 -0.1,0.96998 0.501,0.73889 0.262,-0.10122 0.477,-0.49536 0.477,-0.87588 z m 0,-3.3697 c -0.02,-1.49074 -0.195,-2.22318 -0.558,-2.34509 -0.4,-0.13424 -0.468,0.067 -0.278,0.82893 0.161,0.64643 0.1,1.00621 -0.183,1.00621 -0.317,0 -0.321,0.1365 -0.02,0.50652 0.23,0.27858 0.346,0.88108 0.258,1.33888 -0.1,0.50226 0.03,0.83236 0.324,0.83236 0.337,0 0.474,-0.65381 0.453,-2.16781 z m -28.424,0.86751 c -0.27,-0.29437 -0.55,-0.47796 -0.624,-0.40798 -0.225,0.21554 0.346,0.94321 0.741,0.94321 0.205,0 0.152,-0.24085 -0.117,-0.53523 z m 0.08,-2.71633 c 0,-0.3156 -0.07,-0.57381 -0.15,-0.57381 -0.08,0 -0.248,0.25821 -0.368,0.57381 -0.12,0.31559 -0.05,0.5738 0.149,0.5738 0.203,0 0.369,-0.25821 0.369,-0.5738 z m 28.879,-0.96706 c -0.227,-0.42668 -0.601,-0.65862 -0.831,-0.51541 -0.276,0.1716 -0.18,0.4361 0.282,0.77578 0.944,0.69469 1.034,0.65181 0.549,-0.26037 z m -28.666,-0.78624 c 0.01,-0.29806 -0.158,-0.79014 -0.38,-1.09352 -0.295,-0.4032 -0.285,-0.4799 0.04,-0.28508 0.276,0.16644 0.406,0.0223 0.347,-0.38401 -0.05,-0.35778 -0.336,-0.71599 -0.632,-0.79601 -0.419,-0.11374 -0.412,-0.0569 0.03,0.2603 0.386,0.27512 0.417,0.40769 0.1,0.41166 -0.291,0.004 -0.476,0.53816 -0.476,1.37662 0,0.92658 0.154,1.3191 0.476,1.21136 0.261,-0.0877 0.485,-0.40326 0.498,-0.70132 z m 28.417,-1.33865 c -0.114,-0.29818 -0.05,-0.54215 0.133,-0.54215 0.186,0 0.339,-0.34428 0.339,-0.76507 0,-0.42079 -0.119,-0.76508 -0.265,-0.76508 -0.146,0 -0.208,-0.30124 -0.138,-0.66943 0.07,-0.3682 0.163,-0.66944 0.206,-0.66944 0.04,0 0.106,-0.47339 0.141,-1.05198 0.03,-0.57858 -0.09,-1.05197 -0.283,-1.05197 -0.191,0 -0.258,-0.34411 -0.148,-0.76469 0.109,-0.42058 0.04,-0.85992 -0.142,-0.9763 -0.187,-0.11638 -0.341,0.87326 -0.343,2.1992 0,1.32595 -0.07,3.21749 -0.162,4.20342 -0.124,1.39398 -0.05,1.74847 0.355,1.59412 0.282,-0.10917 0.421,-0.44245 0.307,-0.74063 z m -28.699,-4.91371 c 0,-1.77318 0.103,-3.40852 0.242,-3.6341 0.138,-0.22558 0.109,-0.41014 -0.06,-0.41014 -0.173,0 -0.222,-1.12855 -0.107,-2.50788 0.115,-1.37933 0.145,-2.57246 0.07,-2.6514 -0.334,-0.33616 -1.144,0.29347 -0.969,0.75308 0.106,0.27689 0,0.62226 -0.232,0.76747 -0.273,0.16946 -0.296,0.42307 -0.07,0.70813 0.198,0.24426 0.372,1.30482 0.388,2.3568 0.02,1.05197 0.04,2.17089 0.06,2.48648 0.107,1.9699 -0.144,3.78668 -0.493,3.56974 -0.255,-0.15882 -0.275,-0.056 -0.06,0.29215 0.186,0.29551 0.362,0.66639 0.391,0.82418 0.113,0.608 0.159,0.66944 0.499,0.66944 0.193,0 0.346,-1.45078 0.341,-3.22395 z m 28.747,-3.25273 c 0.121,-0.19586 0.07,-0.4465 -0.104,-0.55698 -0.177,-0.11048 -0.323,0.0498 -0.323,0.3561 0,0.64502 0.12,0.70138 0.427,0.20088 z m 0.787,-1.86524 c -0.117,-0.11778 -0.424,-2.4e-4 -0.682,0.26119 -0.372,0.3778 -0.329,0.42174 0.213,0.21414 0.375,-0.14365 0.586,-0.35755 0.469,-0.47533 z m -0.314,-4.52334 c -0.132,-0.13287 -0.07,-0.56322 0.141,-0.95635 0.445,-0.83796 0.139,-0.9365 -0.6,-0.19288 -0.387,0.3895 -0.409,0.63209 -0.09,0.95634 0.237,0.23895 0.512,0.43445 0.609,0.43445 0.1,0 0.07,-0.1087 -0.06,-0.24156 z m -26.335,-2.85585 c 1.099,-0.30705 1.347,-0.50452 0.95,-0.75708 -0.436,-0.27777 -0.414,-0.34279 0.116,-0.34755 0.359,-0.003 1.741,-0.60835 3.072,-1.34474 1.331,-0.73638 2.705,-1.33887 3.054,-1.33887 0.348,0 0.633,-0.27929 0.633,-0.62065 0,-0.53482 0.09,-0.54804 0.644,-0.0956 0.353,0.28875 0.523,0.32384 0.376,0.078 -0.171,-0.28697 0.153,-0.5397 0.905,-0.70584 0.644,-0.14234 1.074,-0.35615 0.955,-0.47515 -0.234,-0.23641 0.895,-0.97085 2.536,-1.64892 0.575,-0.23742 0.961,-0.56868 0.858,-0.73613 -0.103,-0.16746 0.282,-0.41943 0.855,-0.55994 1.76,-0.43109 3.868,-1.47003 3.663,-1.80449 -0.177,-0.28909 0.02,-0.35385 1.466,-0.46988 0.261,-0.021 0.693,-0.33263 0.961,-0.69242 0.267,-0.3598 1.065,-0.76348 1.772,-0.89707 0.708,-0.1336 1.636,-0.57083 2.064,-0.97162 0.427,-0.40079 1.191,-0.72871 1.696,-0.72871 1.029,0 2.045,-0.93359 1.431,-1.31534 -0.209,-0.12971 -0.316,-0.73831 -0.239,-1.35243 0.08,-0.61412 0.05,-1.47009 -0.06,-1.90216 -0.224,-0.86409 -1.255,-1.09056 -1.255,-0.27578 0,0.28581 -0.989,0.82773 -2.25,1.23343 -1.238,0.398 -2.18,0.8388 -2.093,0.97955 0.09,0.14074 -0.273,0.36457 -0.799,0.49738 -0.792,0.20009 -0.891,0.36317 -0.579,0.95152 0.323,0.6061 0.206,0.74473 -0.799,0.94694 -0.647,0.13029 -1.658,0.23689 -2.247,0.23689 -0.589,0 -1.178,0.17495 -1.309,0.38878 -0.131,0.21383 -0.378,0.30179 -0.549,0.19548 -0.171,-0.10631 -0.513,0.052 -0.76,0.35171 -0.248,0.29975 -0.953,0.65613 -1.567,0.79195 -0.614,0.13582 -1.295,0.58206 -1.513,0.99165 -0.218,0.40958 -0.557,0.64426 -0.755,0.52152 -0.197,-0.12274 -0.932,0.21672 -1.632,0.75436 -0.7,0.53764 -1.471,0.97753 -1.712,0.97753 -0.242,0 -0.44,0.19221 -0.44,0.42715 0,0.23891 -0.335,0.33892 -0.76,0.22694 -0.419,-0.11011 -0.665,-0.0441 -0.548,0.14665 0.117,0.19078 -0.149,0.34687 -0.592,0.34687 -0.443,0 -0.705,0.16344 -0.582,0.3632 0.123,0.19977 -0.38,0.47714 -1.118,0.61638 -0.737,0.13924 -1.34,0.40615 -1.34,0.59313 0,0.18698 -0.257,0.33997 -0.571,0.33997 -0.313,0 -0.57,0.17214 -0.57,0.38253 0,0.2104 -0.247,0.38254 -0.548,0.38254 -0.302,0 -0.772,0.30991 -1.045,0.68868 -0.274,0.37877 -1.047,0.91355 -1.719,1.18839 -0.672,0.27484 -1.207,0.61046 -1.19,0.74583 0.02,0.13537 0,0.33219 -0.04,0.43739 -0.04,0.1052 -0.143,0.75073 -0.232,1.43451 -0.148,1.14015 -0.08,1.24307 0.881,1.24111 0.573,-10e-4 1.711,-0.18906 2.528,-0.41752 z m 26.726,-0.194 c -0.126,-0.12711 -0.454,-0.1407 -0.729,-0.0302 -0.303,0.12212 -0.213,0.21276 0.23,0.23112 0.401,0.0166 0.625,-0.0738 0.499,-0.20092 z m -0.06,-1.97418 c -0.153,-1.0494 -0.974,-1.00096 -0.974,0.0575 0,0.68004 0.161,0.9138 0.532,0.7705 0.293,-0.11314 0.492,-0.48573 0.442,-0.82797 z m -31,-2.00009 c 0,-0.15996 0.861,-0.66355 1.913,-1.11909 1.052,-0.45553 1.812,-0.99316 1.688,-1.19471 -0.329,-0.53532 0.717,-0.4482 1.341,0.11171 0.453,0.40679 0.458,0.37824 0.03,-0.19127 -0.369,-0.49093 -0.382,-0.66944 -0.05,-0.66944 0.249,0 0.71,-0.25821 1.024,-0.57381 0.313,-0.31559 0.951,-0.5738 1.417,-0.5738 0.466,0 1.009,-0.157 1.208,-0.34889 0.198,-0.19189 1.43,-0.8915 2.736,-1.5547 1.307,-0.66319 2.376,-1.3669 2.376,-1.56379 0,-0.19689 0.273,-0.35798 0.606,-0.35798 0.334,0 1.133,-0.37712 1.776,-0.83805 0.643,-0.46092 2.103,-0.96557 3.244,-1.12144 1.141,-0.15587 2.266,-0.49257 2.5,-0.74822 0.323,-0.35333 0.288,-0.39416 -0.145,-0.17024 -0.313,0.16202 0.114,-0.32584 0.95,-1.08415 1.307,-1.18474 2.223,-1.58987 3.285,-1.45241 0.134,0.0174 0.724,-0.41584 1.31,-0.96271 0.587,-0.54688 1.614,-1.14657 2.284,-1.33266 0.669,-0.18608 1.329,-0.63097 1.465,-0.98864 0.136,-0.35767 0.144,-0.54603 0.02,-0.41859 -0.127,0.12744 -1.011,-0.005 -1.965,-0.29365 -0.954,-0.28895 -1.863,-0.44557 -2.019,-0.34803 -0.157,0.0975 -0.591,-0.16289 -0.965,-0.57872 -0.374,-0.41583 -0.91,-0.75605 -1.191,-0.75605 -0.281,0 -0.511,-0.17214 -0.511,-0.38254 0,-0.21039 -0.182,-0.38253 -0.403,-0.38253 -0.221,0 -0.297,0.17214 -0.167,0.38253 0.311,0.50661 0.135,0.4838 -1.177,-0.15284 -0.607,-0.29446 -1.959,-0.63061 -3.004,-0.74699 -1.045,-0.11639 -2.585,-0.42321 -3.421,-0.68183 -0.836,-0.25862 -1.648,-0.4389 -1.805,-0.40062 -0.157,0.0383 -0.285,-0.27468 -0.285,-0.69547 0,-0.72451 -0.719,-0.98537 -2.186,-0.79363 -0.261,0.0342 -0.475,-0.0831 -0.475,-0.26067 0,-0.17753 -1.02,-0.53489 -2.267,-0.79414 -1.546,-0.3214 -2.453,-0.73796 -2.851,-1.30926 -0.367,-0.52797 -0.583,-0.63662 -0.583,-0.29374 0,0.42324 -0.101,0.44215 -0.456,0.0851 -0.251,-0.25248 -1.039,-0.45904 -1.751,-0.45904 -0.904,0 -1.238,-0.14958 -1.106,-0.49564 0.127,-0.33278 -0.203,-0.52071 -1.004,-0.57193 -2.267,-0.14491 -4.044,-0.53103 -4.044,-0.87874 0,-0.1919 -0.438,-0.34891 -0.973,-0.34891 -0.535,0 -0.872,0.16344 -0.749,0.36321 0.122,0.19976 -0.423,0.473 -1.213,0.6072 -2.174,0.36936 -2.766,0.57674 -2.766,0.96805 0,0.19621 -0.413,0.35676 -0.919,0.35676 -0.505,0 -0.975,0.1291 -1.045,0.2869 -0.21,0.47509 -2.654,1.73307 -3.901,2.00738 -0.641,0.14118 -1.124,0.45736 -1.071,0.70262 0.05,0.24828 -0.336,0.44592 -0.878,0.44592 -0.556,0 -0.871,0.16495 -0.736,0.38524 0.13,0.21188 -0.03,0.47009 -0.358,0.57381 -0.326,0.10371 -0.893,0.30103 -1.259,0.43849 -0.366,0.13746 -0.836,0.27277 -1.045,0.30069 -1.224,0.16342 -3.555,1.14414 -3.383,1.42335 0.111,0.18163 -0.322,0.4358 -0.963,0.56483 -0.641,0.12902 -1.165,0.37916 -1.165,0.55585 0,0.64356 -1.528,1.23477 -4.561,1.76433 -0.732,0.12777 -1.416,0.34591 -1.52,0.48475 -0.342,0.45412 -5.969,3.07207 -6.603,3.07207 -0.34,0 -0.618,0.17214 -0.618,0.38254 0,0.21039 -0.438,0.38253 -0.973,0.38253 -0.535,0 -0.876,0.15827 -0.757,0.3517 0.119,0.19343 -0.04,0.61149 -0.357,0.92902 -0.316,0.31752 -0.574,0.67569 -0.574,0.79591 0,0.12023 1.35,0.21859 3,0.21859 2.316,0 3.05,0.13082 3.219,0.57381 0.12,0.31559 0.523,0.57486 0.895,0.57616 0.373,10e-4 1.191,0.27506 1.818,0.60836 0.627,0.3333 1.696,0.62457 2.375,0.64726 0.679,0.0227 1.235,0.16415 1.235,0.31436 0,0.1502 0.727,0.38374 1.616,0.51898 0.888,0.13524 2.514,0.68811 3.614,1.22862 1.099,0.5405 2.763,1.06948 3.698,1.17551 0.934,0.10602 1.612,0.3336 1.507,0.50573 -0.213,0.34596 2.2,1.11392 3.51,1.11727 0.851,0.002 1.494,0.57197 0.975,0.86311 -0.158,0.0887 -0.06,0.1023 0.225,0.0303 0.282,-0.072 1.271,0.12831 2.199,0.44523 0.927,0.31692 2.132,0.57622 2.676,0.57622 0.545,0 1.22,0.30124 1.5,0.66944 0.446,0.58526 0.558,0.59728 0.891,0.0956 0.235,-0.35252 0.384,-0.39711 0.387,-0.11563 0,0.28204 0.773,0.50264 2.002,0.57381 2.303,0.13345 3.705,-0.039 3.705,-0.45567 z m 30.794,-3.0628 c 0.191,0 0.239,-0.28645 0.105,-0.63656 -0.18,-0.47277 -0.104,-0.55676 0.297,-0.32642 0.437,0.25114 0.45,0.21214 0.07,-0.20502 -0.261,-0.28334 -0.475,-0.82502 -0.475,-1.20373 0,-0.37871 -0.151,-0.68856 -0.335,-0.68856 -0.307,0 -0.399,0.74351 -0.495,4.01663 -0.07,2.2089 0.212,3.04145 0.35,1.05197 0.08,-1.10457 0.296,-2.00831 0.488,-2.00831 z m -66.62,-12.24117 c 0.422,0 0.971,-0.24714 1.22,-0.54921 0.423,-0.51276 1.979,-1.02767 3.549,-1.17426 0.374,-0.0348 0.878,-0.26381 1.121,-0.50882 0.337,-0.33892 0.196,-0.44546 -0.588,-0.44546 -0.567,0 -1.329,0.15101 -1.692,0.33558 -0.363,0.18456 -1.344,0.54482 -2.18,0.80056 -2.446,0.74828 -3.61,1.31655 -3.61,1.76251 0,0.76773 0.544,0.97549 0.981,0.37429 0.238,-0.32735 0.778,-0.59519 1.199,-0.59519 z m 0.48,-2.27232 c 0.523,-0.28598 1.048,-0.67037 1.168,-0.8542 0.12,-0.18382 0.621,-0.41223 1.112,-0.50757 0.492,-0.0953 1.033,-0.39256 1.202,-0.66048 0.239,-0.37913 0.308,-0.36628 0.313,0.058 0,0.40643 0.18,0.36052 0.69,-0.18046 0.472,-0.50027 0.649,-1.18158 0.569,-2.19415 -0.08,-0.99605 0.02,-1.38471 0.304,-1.20789 0.294,0.18326 0.311,0.0481 0.05,-0.4549 -0.201,-0.39358 -0.333,-1.27506 -0.295,-1.95884 0.04,-0.68379 -0.09,-1.24325 -0.289,-1.24325 -0.198,0 -0.136,-0.27133 0.137,-0.60296 0.306,-0.3713 0.356,-0.70198 0.129,-0.8607 -0.202,-0.14177 -0.353,-1.2906 -0.335,-2.55297 0.02,-1.26237 -0.111,-2.59647 -0.287,-2.96466 -0.175,-0.36819 -0.184,-0.66925 -0.02,-0.66902 0.165,2.3e-4 0.242,-0.90351 0.172,-2.00831 -0.07,-1.10481 -0.193,-3.47194 -0.273,-5.2603 -0.08,-1.78835 -0.215,-3.59584 -0.299,-4.01663 -0.09,-0.42079 0.02,-0.98025 0.224,-1.24324 0.208,-0.263 0.229,-0.47843 0.05,-0.47875 -0.182,-3.2e-4 -0.366,-1.50656 -0.409,-3.34719 -0.32,-13.71888 -0.539,-17.4921 -1.047,-18.05757 -0.292,-0.32478 -0.544,-0.76265 -0.558,-0.97304 -0.03,-0.35631 -0.21,-0.39603 -1.156,-0.24865 -0.202,0.0316 -0.275,0.30239 -0.16,0.60185 0.117,0.30792 -0.121,0.72151 -0.549,0.95197 -1.671,0.89975 -2.646,5.6729 -2.883,14.10568 -0.07,2.37452 -0.218,4.41488 -0.337,4.53414 -0.118,0.11926 -0.06,0.62949 0.131,1.13384 0.215,0.56901 0.21,0.91701 -0.01,0.91701 -0.224,0 -0.23,0.3473 -0.02,0.91008 0.293,0.77426 0.293,1.78009 0,2.53275 -0.09,0.23515 -0.09,0.16925 0.149,2.42682 0.11,1.01917 0.05,2.2611 -0.142,2.75985 -0.21,0.5553 -0.203,0.99381 0.02,1.13122 0.199,0.12341 0.261,0.8611 0.138,1.63932 -0.195,1.23618 -0.308,6.3879 -0.14,6.3879 0.301,0 0.166,12.35056 -0.14,12.74872 -0.307,0.40067 -0.154,0.47797 0.727,0.36707 0.614,-0.0773 1.543,-0.37448 2.066,-0.66046 z m 7.015,-3.43929 c 0.12,-0.19586 0.07,-0.4465 -0.104,-0.55698 -0.178,-0.11048 -0.323,0.0498 -0.323,0.35611 0,0.64502 0.12,0.70137 0.427,0.20087 z m -0.366,-3.84741 c 0.133,-0.21685 -0.02,-0.28098 -0.358,-0.15035 -0.659,0.25431 -0.779,0.5285 -0.232,0.5285 0.196,0 0.462,-0.17017 0.59,-0.37815 z m 14.152,0.14703 c -0.126,-0.12711 -0.454,-0.1407 -0.729,-0.0302 -0.303,0.12212 -0.213,0.21276 0.23,0.23112 0.401,0.0166 0.625,-0.0738 0.499,-0.20092 z m -13.492,-1.81841 c 0.244,0.15164 0.3,0.076 0.139,-0.18658 -0.373,-0.60715 -1.367,-0.55741 -1.367,0.0684 0,0.78603 0.555,1.16631 0.694,0.47593 0.07,-0.33704 0.308,-0.49803 0.534,-0.35775 z m 15.759,-1.60388 c 0.273,-0.27491 0.496,-0.66328 0.496,-0.86304 0,-0.19976 0.385,-0.63883 0.855,-0.97571 0.471,-0.33687 0.59,-0.52445 0.264,-0.41684 -0.491,0.16275 -0.589,-0.19244 -0.579,-2.11192 0,-1.26916 0.121,-2.30756 0.255,-2.30756 0.134,0 0.191,-0.8991 0.128,-1.998 -0.06,-1.09889 0.07,-2.21781 0.288,-2.48648 0.29,-0.35181 0.27,-0.48849 -0.07,-0.48849 -0.377,0 -0.377,-0.11602 0,-0.57381 0.268,-0.32413 0.307,-0.5738 0.09,-0.5738 -0.21,0 -0.475,-0.35788 -0.589,-0.79529 -0.16,-0.6172 -0.07,-0.74201 0.41,-0.55735 0.508,0.19626 0.493,0.10101 -0.09,-0.54358 -0.386,-0.42985 -0.533,-0.78154 -0.327,-0.78154 0.207,0 0.376,-0.25821 0.376,-0.5738 0,-0.3156 -0.106,-0.57381 -0.236,-0.57381 -0.22,0 -0.236,-2.01738 -0.02,-2.86902 0.05,-0.2104 0.05,-0.51164 0,-0.66944 -0.29,-0.8987 -0.133,-9.46777 0.173,-9.46777 0.199,0 0.156,-0.20657 -0.1,-0.45905 -0.611,-0.61581 -0.596,-1.58379 0.02,-1.21151 0.358,0.21598 0.375,0.15038 0.07,-0.26433 -0.548,-0.74467 -0.388,-5.34004 0.2,-5.70542 0.343,-0.21378 0.318,-0.34129 -0.1,-0.50241 -0.424,-0.16381 -0.554,-0.89223 -0.54,-3.01789 0.03,-4.19556 -0.433,-6.9203 -1.125,-6.65313 -0.309,0.11939 -0.815,0.21706 -1.124,0.21706 -0.308,0 -0.462,0.16156 -0.341,0.35903 0.122,0.19746 -0.03,0.49871 -0.33,0.66944 -0.303,0.17072 -0.536,0.39648 -0.518,0.50168 0.02,0.10519 -0.09,0.84158 -0.236,1.63641 -0.17,0.91084 -0.425,1.34864 -0.689,1.18414 -0.281,-0.17447 -0.31,-0.0829 -0.09,0.27627 0.576,0.93001 0.565,1.89225 -0.02,2.11971 -0.312,0.12053 -0.483,0.35583 -0.381,0.52288 0.353,0.57405 0.584,3.49041 0.313,3.933 -0.269,0.43745 -0.276,1.2365 -0.04,4.35493 0.08,1.01419 -0.02,1.50978 -0.267,1.36108 -0.219,-0.13146 -0.204,0.008 0.03,0.31777 0.44,0.57406 0.564,1.89048 0.178,1.89049 -0.234,0 -0.177,6.77931 0.126,15.11018 0.1,2.73513 0.215,6.86653 0.256,9.18087 0.04,2.31435 0.152,4.34709 0.247,4.5172 0.234,0.41992 2.408,-0.0914 3.024,-0.71115 z m -16.185,-0.47675 c -0.232,-0.0778 -0.422,-0.48159 -0.422,-0.89727 0,-0.47386 0.164,-0.65396 0.439,-0.48282 0.303,0.18852 0.332,0.10676 0.1,-0.26432 -0.189,-0.29551 -0.348,-1.90164 -0.354,-3.56919 0,-1.78444 -0.176,-3.08746 -0.413,-3.16692 -0.268,-0.09 -0.392,1.27138 -0.37,4.08366 0.02,2.32027 0.18,4.21877 0.359,4.2189 0.179,1.2e-4 0.218,0.28278 0.09,0.62813 -0.206,0.54172 -0.154,0.55677 0.381,0.10962 0.386,-0.32252 0.461,-0.57174 0.199,-0.65979 z m 12.12,-5.81579 c 0,-0.21039 -0.181,-0.38253 -0.402,-0.38253 -0.221,0 -0.297,0.17214 -0.168,0.38253 0.13,0.2104 0.311,0.38254 0.403,0.38254 0.09,0 0.167,-0.17214 0.167,-0.38254 z m -12.265,-3.2914 c -0.126,-0.12712 -0.454,-0.14071 -0.728,-0.0302 -0.303,0.12211 -0.213,0.21276 0.229,0.23111 0.401,0.0166 0.626,-0.0738 0.499,-0.20091 z m -0.153,-0.78566 c 0.137,-0.13844 0.06,-0.48273 -0.174,-0.76508 -0.313,-0.3802 -0.306,-0.51336 0.03,-0.51336 0.249,0 0.325,-0.2018 0.172,-0.45183 -0.153,-0.2485 -0.331,-5.80006 -0.397,-12.3368 -0.07,-6.53673 -0.206,-12.65961 -0.313,-13.60638 -0.348,-3.08721 -0.66,-4.24456 -1.099,-4.08105 -0.236,0.088 -0.392,0.33779 -0.346,0.55502 0.05,0.21724 0.195,1.91714 0.331,3.77755 0.136,1.86041 0.322,3.51168 0.414,3.66947 0.09,0.1578 0.03,0.28691 -0.147,0.28691 -0.173,0 -0.274,0.64553 -0.224,1.43451 0.05,0.78898 0.173,3.75842 0.276,6.59875 0.288,7.98511 0.57,12.72403 0.769,12.92431 0.1,0.10039 0.02,0.4917 -0.184,0.86958 -0.572,1.07625 0.147,2.39193 0.896,1.6384 z m -13.996,-38.38447 c 0.129,-0.2104 0.01,-0.40554 -0.263,-0.43365 -0.41,-0.0421 1.926,-0.52207 3.778,-0.77628 0.262,-0.0359 0.475,-0.20865 0.475,-0.38398 0,-0.17532 0.415,-0.31878 0.921,-0.31878 0.507,0 1.41,-0.4141 2.008,-0.92024 1.047,-0.88657 1.972,-1.17423 5.243,-1.63035 0.836,-0.11659 1.577,-0.36504 1.647,-0.55211 0.07,-0.18707 0.454,-0.34012 0.855,-0.34012 0.401,0 1.083,-0.3572 1.517,-0.79378 0.434,-0.43658 1.375,-0.88946 2.09,-1.0064 0.716,-0.11693 1.302,-0.36223 1.302,-0.54509 0,-0.18287 0.128,-0.3121 0.285,-0.28719 0.912,0.14482 1.7,-0.13638 2.274,-0.81037 0.459,-0.53935 1.121,-0.76507 2.245,-0.76507 0.877,0 1.652,-0.17591 1.723,-0.39092 0.07,-0.215 1.03,-0.53413 2.13,-0.70918 2.242,-0.35673 2.698,-0.63019 2.083,-1.24918 -0.594,-0.59806 -4.532,-0.0642 -4.805,0.6514 -0.116,0.30265 -0.536,0.55027 -0.934,0.55027 -0.399,0 -1.458,0.26053 -2.355,0.57896 -0.897,0.31844 -2.2,0.61968 -2.897,0.66944 -0.697,0.0498 -1.268,0.28723 -1.268,0.52772 0,0.50251 -0.865,0.90163 -1.951,0.90163 -0.412,0 -1.231,0.25135 -1.821,0.55856 -0.591,0.3072 -1.694,0.6006 -2.452,0.65199 -0.778,0.0527 -1.378,0.29607 -1.378,0.55866 0,0.25587 -0.514,0.57865 -1.141,0.71728 -0.627,0.13863 -1.14,0.39136 -1.14,0.56163 0,0.17026 -0.635,0.42955 -1.412,0.5762 -1.697,0.32053 -3.605,1.25659 -4.023,1.97429 -0.174,0.29911 -0.935,0.52197 -1.783,0.52197 -0.813,0 -1.584,0.17215 -1.713,0.38254 -0.13,0.2104 -0.61,0.39419 -1.068,0.40843 l -0.833,0.0259 0.855,0.4151 c 0.471,0.22831 0.856,0.56094 0.856,0.73918 0,0.44832 0.664,0.40746 0.95,-0.0584 z m 31.735,-12.24117 c 0,-0.21039 -0.171,-0.38253 -0.38,-0.38253 -0.209,0 -0.38,0.17214 -0.38,0.38253 0,0.2104 0.171,0.38254 0.38,0.38254 0.209,0 0.38,-0.17214 0.38,-0.38254 z m 3.041,-0.14665 c 0,-0.34784 -1.482,-0.49564 -1.953,-0.19486 -0.352,0.22423 -0.122,0.33167 0.718,0.33565 0.679,0.003 1.235,-0.0601 1.235,-0.14079 z m 37.555,137.59843 c 0.275,-0.1105 0.602,-0.0969 0.729,0.0302 0.126,0.12712 -0.1,0.21753 -0.499,0.20092 -0.443,-0.0184 -0.533,-0.109 -0.23,-0.23112 z m -76.132,-3.18151 c 0.129,-0.21039 0.396,-0.38253 0.593,-0.38253 0.196,0 0.357,0.17214 0.357,0.38253 0,0.2104 -0.266,0.38254 -0.592,0.38254 -0.326,0 -0.487,-0.17214 -0.358,-0.38254 z m 96.02,-36.68246 c -0.284,-0.18139 -0.869,-0.23715 -1.299,-0.12392 -0.612,0.16097 -0.73,0.0673 -0.54,-0.42943 0.16,-0.42117 0.05,-0.63529 -0.339,-0.63529 -0.319,0 -0.486,-0.1541 -0.37,-0.34245 0.116,-0.18835 -0.06,-0.4486 -0.4,-0.57833 -0.499,-0.19267 -0.524,-0.34179 -0.135,-0.81392 0.398,-0.48192 0.373,-0.53769 -0.151,-0.33541 -0.467,0.18022 -0.568,0.0841 -0.393,-0.37378 0.129,-0.33902 0.04,-0.6164 -0.186,-0.6164 -0.689,0 -0.488,-2.21385 0.244,-2.68763 0.634,-0.40993 0.634,-0.42052 0,-0.22228 -0.365,0.11448 -0.665,0.0414 -0.665,-0.16239 0,-0.20379 0.214,-0.37316 0.475,-0.37639 0.317,-0.004 0.285,-0.12946 -0.1,-0.37667 -0.313,-0.20396 -0.378,-0.37346 -0.144,-0.37668 0.234,-0.003 0.407,-0.30711 0.384,-0.6753 -0.02,-0.36819 0.19,-1.47448 0.471,-2.45842 0.398,-1.38755 0.653,-1.73868 1.136,-1.56483 0.343,0.12328 0.504,0.0902 0.357,-0.0736 -0.601,-0.67053 2.352,-2.11936 4.321,-2.11936 0.527,0 1.268,-0.34428 1.647,-0.76507 0.714,-0.79409 2.108,-0.95004 3.42,-0.38253 0.419,0.18081 0.607,0.34086 0.419,0.35564 -0.188,0.0148 0.197,0.54481 0.855,1.17783 0.658,0.63301 1.197,1.33174 1.197,1.55272 0,0.22098 0.171,0.2954 0.38,0.16536 0.216,-0.13408 0.38,0.1873 0.38,0.7425 0,0.64796 0.208,0.97892 0.617,0.97892 0.487,0 0.523,0.11283 0.171,0.53975 -0.255,0.3093 -0.296,0.63228 -0.1,0.75649 0.725,0.45113 0.207,3.54495 -0.821,4.90145 -0.554,0.73105 -0.894,1.44312 -0.756,1.58238 0.138,0.13925 0.06,0.25319 -0.179,0.25319 -0.236,0 -0.94,0.50204 -1.564,1.11564 -0.624,0.6136 -1.485,1.22769 -1.913,1.36465 -0.429,0.13696 -0.78,0.42798 -0.78,0.64671 0,0.21873 -0.256,0.2986 -0.57,0.17749 -0.314,-0.1211 -0.57,-0.0534 -0.57,0.15035 0,0.45797 -3.797,0.48242 -4.508,0.029 z m 0.112,-3.44377 c 0.23,-0.37353 -0.909,-0.94875 -1.233,-0.6229 -0.109,0.11015 0.01,0.20028 0.267,0.20028 0.256,0 0.36,0.17214 0.231,0.38253 -0.129,0.2104 -0.06,0.38254 0.145,0.38254 0.209,0 0.475,-0.15411 0.59,-0.34245 z m 6.131,-1.53113 c -1.023,-0.40337 -0.198,-0.83181 1.27,-0.65971 0.97,0.11366 1.108,0.0433 0.755,-0.38524 -0.325,-0.39372 -0.321,-0.5243 0.02,-0.5243 0.247,0 0.344,-0.17214 0.215,-0.38254 -0.13,-0.21039 0.02,-0.38253 0.334,-0.38253 0.334,0 0.545,-0.31508 0.511,-0.76507 -0.03,-0.42079 -0.192,-0.76508 -0.356,-0.76508 -0.165,0 -0.279,-0.1291 -0.254,-0.2869 0.12,-0.7653 -0.09,-1.24324 -0.554,-1.24324 -0.28,0 -0.691,-0.40167 -0.914,-0.89259 -0.345,-0.76218 -1.633,-1.31976 -1.546,-0.66944 0.07,0.533 -0.57,2.70964 -0.798,2.70964 -0.138,0 -0.283,0.30124 -0.323,0.66944 -0.04,0.36819 -0.161,1.40103 -0.27,2.29521 l -0.2,1.62578 1.425,-0.0269 c 1.055,-0.0199 1.234,-0.10188 0.689,-0.31655 z m -9.083,-0.97862 c 0,-0.30633 -0.145,-0.46658 -0.323,-0.3561 -0.178,0.11048 -0.225,0.36112 -0.104,0.55698 0.307,0.5005 0.427,0.44414 0.427,-0.20088 z m 2.999,-4.97077 c 0.712,-0.53523 0.708,-0.54708 -0.123,-0.33636 -0.473,0.12013 -0.954,0.36978 -1.067,0.55478 -0.322,0.52352 0.373,0.396 1.19,-0.21842 z m 6.105,-3.12544 c 0.05,-0.32878 -0.02,-0.49096 -0.149,-0.36039 -0.129,0.13056 -0.275,0.50639 -0.323,0.83517 -0.05,0.32878 0.02,0.49096 0.149,0.36039 0.13,-0.13056 0.275,-0.50639 0.323,-0.83517 z m 1.52,0 c 0.05,-0.32878 -0.02,-0.49096 -0.148,-0.36039 -0.13,0.13056 -0.276,0.50639 -0.323,0.83517 -0.05,0.32878 0.02,0.49096 0.148,0.36039 0.13,-0.13056 0.275,-0.50639 0.323,-0.83517 z m 19.253,-0.57507 c -0.288,-0.2898 -0.359,-1.52404 -0.216,-3.74607 0.169,-2.6277 0.09,-3.56367 -0.407,-4.52021 -0.418,-0.81368 -0.488,-1.28824 -0.215,-1.458 0.223,-0.13841 0.317,-0.48134 0.21,-0.76206 -0.107,-0.28072 0.01,-0.59449 0.259,-0.69726 0.296,-0.12173 0.321,-0.29701 0.07,-0.50288 -0.209,-0.17382 -0.375,-1.39191 -0.369,-2.70688 0,-1.31497 -0.11,-2.39085 -0.257,-2.39085 -0.147,0 -0.219,-0.68857 -0.159,-1.53015 0.07,-0.92896 -0.06,-1.53245 -0.314,-1.536 -0.294,-0.004 -0.289,-0.091 0.02,-0.2869 0.504,-0.32292 0.52,-0.63897 0.104,-2.0981 -0.201,-0.70504 -0.158,-1.05197 0.13,-1.05197 0.305,0 0.297,-0.13351 -0.03,-0.45905 -0.513,-0.51632 -0.63,-1.6068 -0.14,-1.30177 0.174,0.10836 0.317,-0.0461 0.317,-0.34313 0,-0.29708 -0.143,-0.45149 -0.317,-0.34314 -0.174,0.10836 -0.316,-0.0713 -0.316,-0.39936 0,-0.32801 0.142,-0.59638 0.316,-0.59638 0.174,0 0.317,-0.25821 0.317,-0.5738 0,-0.3156 -0.103,-0.57381 -0.228,-0.57381 -0.126,0 -0.246,-0.68503 -0.268,-1.52229 -0.02,-0.90042 0.112,-1.42812 0.331,-1.29178 0.204,0.12679 0.08,-0.22103 -0.283,-0.77293 -0.359,-0.55189 -0.478,-1.00344 -0.265,-1.00344 0.214,0 0.31,-0.30124 0.213,-0.66943 -0.165,-0.63112 -2.986,-2.19889 -3.689,-2.05022 -0.179,0.0378 -0.537,-0.10794 -0.795,-0.3239 -0.259,-0.21595 -0.575,-0.28679 -0.704,-0.15743 -0.128,0.12937 -0.54,0.10397 -0.915,-0.0564 -0.723,-0.30949 -1.444,-0.43843 -3.437,-0.61493 -0.679,-0.0602 -1.235,-0.22 -1.235,-0.35519 0,-0.13519 -2.181,-0.53761 -4.846,-0.89425 -7.447,-0.99647 -7.697,-1.04239 -7.697,-1.41496 0,-0.1919 -0.307,-0.34891 -0.684,-0.34891 -0.376,0 -0.846,-0.15039 -1.045,-0.33421 -0.198,-0.18381 -1.083,-0.42497 -1.965,-0.5359 l -1.604,-0.20171 0.193,3.11803 c 0.282,4.533 0.389,5.42377 0.717,5.95746 0.161,0.26334 0.132,0.64116 -0.06,0.8396 -0.21,0.211 -0.24,1.26929 -0.07,2.54879 0.158,1.20339 0.398,3.13476 0.534,4.29193 0.136,1.15717 0.323,2.62038 0.415,3.25156 0.09,0.63119 0.256,2.26653 0.364,3.6341 0.366,4.65865 0.555,5.35492 1.45,5.36136 0.664,0.005 0.709,0.0738 0.243,0.37668 -0.487,0.3169 -0.473,0.37167 0.09,0.37668 0.778,0.007 0.809,0.24076 0.248,1.86146 -0.388,1.1202 -1.174,1.48464 -2.705,1.25441 -0.6,-0.0903 -2.231,0.73508 -2.047,1.03577 0.109,0.17701 -0.351,0.34677 -1.022,0.37724 -0.671,0.0305 -1.595,0.13237 -2.053,0.22646 -0.573,0.11768 -0.774,0.0156 -0.643,-0.32716 0.104,-0.27403 -0.05,-0.59075 -0.343,-0.70383 -0.347,-0.13407 -0.517,-0.74741 -0.487,-1.76293 0.03,-1.00868 -0.141,-1.62907 -0.483,-1.76097 -0.397,-0.15338 -0.422,-0.33113 -0.101,-0.72019 0.234,-0.28409 0.428,-1.53008 0.431,-2.76886 0,-1.23878 0.01,-2.51053 0.02,-2.82612 0.04,-1.63667 -0.397,-10.89655 -0.631,-13.38878 -0.148,-1.57796 -0.29,-3.47151 -0.314,-4.2079 -0.03,-0.73638 -0.151,-1.51102 -0.281,-1.72141 -0.295,-0.47617 -0.84,-4.22664 -0.821,-5.64241 0,-0.57859 -0.132,-1.05198 -0.31,-1.05198 -0.179,0 -0.239,-1.07588 -0.132,-2.39085 0.369,-4.56352 0.367,-5.26109 -0.01,-5.42113 -0.209,-0.0885 -0.176,-0.17447 0.07,-0.19108 0.323,-0.0215 0.398,-0.77023 0.262,-2.61232 -0.372,-5.01699 -0.344,-12.71994 0.05,-12.72556 0.209,-0.003 0.148,-0.15348 -0.135,-0.33435 -0.311,-0.19829 -0.367,-0.42165 -0.14,-0.56254 0.206,-0.12852 0.42,-1.74235 0.474,-3.58628 0.143,-4.89811 0.155,-5.01736 0.466,-4.82364 0.157,0.0975 0.285,-0.005 0.285,-0.2278 0,-0.22281 -0.136,-0.40511 -0.304,-0.40511 -0.167,0 -0.263,-0.89035 -0.213,-1.97856 0.05,-1.08821 -0.05,-2.71032 -0.212,-3.60469 -0.166,-0.89437 -0.165,-1.84876 0,-2.12088 0.167,-0.27211 0.131,-0.70469 -0.08,-0.96129 -0.26,-0.31573 -0.254,-0.7118 0.02,-1.22522 0.298,-0.56152 0.281,-0.80854 -0.07,-0.95059 -0.359,-0.14611 -0.353,-0.19914 0.03,-0.22213 0.29,-0.0176 0.379,-0.2234 0.213,-0.49311 -0.156,-0.2546 -0.295,-2.39203 -0.308,-4.74985 -0.01,-2.35781 -0.151,-4.41603 -0.308,-4.57381 -0.42,-0.42284 -0.346,-1.60616 0.118,-1.89506 0.222,-0.13788 0.892,-0.0467 1.49,0.20257 0.598,0.24929 1.388,0.39498 1.756,0.32375 0.591,-0.11464 0.603,-0.1954 0.103,-0.70332 -0.311,-0.31559 -0.564,-1.04145 -0.562,-1.61302 0,-0.57158 0.08,-0.95852 0.181,-0.85988 0.1,0.0987 0.509,-0.12227 0.914,-0.49092 0.404,-0.36865 1.102,-0.69039 1.551,-0.71498 3.929,-0.21544 4.391,-0.3022 4.017,-0.7548 -0.288,-0.3499 0.02,-0.53353 1.248,-0.73465 0.897,-0.14748 2.165,-0.59423 2.816,-0.99278 0.652,-0.39854 1.504,-0.72462 1.893,-0.72462 0.39,0 1.567,-0.33355 2.616,-0.74121 1.049,-0.40767 2.977,-0.94762 4.283,-1.19988 1.482,-0.28614 2.376,-0.64833 2.376,-0.96287 0,-0.28166 0.629,-0.61829 1.425,-0.76268 0.784,-0.14217 1.631,-0.423 1.883,-0.62407 0.253,-0.20108 0.667,-0.23646 0.92,-0.0786 0.315,0.1958 0.387,0.0913 0.227,-0.32914 -0.188,-0.49192 0.116,-0.66908 1.506,-0.87897 1.777,-0.26809 7.618,-0.009 7.979,0.35378 0.109,0.11007 -0.161,0.58825 -0.6,1.06262 -0.439,0.47437 -0.798,1.07665 -0.798,1.33839 0,0.26174 -0.385,0.59904 -0.855,0.74954 -0.828,0.26494 -0.831,0.28317 -0.09,0.5727 0.418,0.16448 0.525,0.31115 0.238,0.32593 -0.42,0.0217 -0.43,0.13825 -0.05,0.60069 0.306,0.37101 0.328,0.57381 0.06,0.57381 -0.269,0 -0.355,0.91773 -0.249,2.67775 0.106,1.76513 0.02,2.67776 -0.251,2.67776 -0.241,0 -0.158,0.38783 0.199,0.93639 0.335,0.51502 0.462,1.0279 0.282,1.13973 -0.179,0.11184 -0.247,0.89624 -0.15,1.74312 0.155,1.35104 0.1,1.50798 -0.495,1.28035 -0.552,-0.21341 -0.53,-0.11702 0.126,0.54321 0.58,0.58401 0.747,1.12313 0.613,1.9791 -0.101,0.64704 -0.03,1.17644 0.153,1.17644 0.185,0 0.262,0.51642 0.17,1.1476 -0.09,0.63119 -0.319,1.14761 -0.504,1.14761 -0.186,0 -0.337,0.17214 -0.337,0.38254 0,0.21039 0.237,0.38254 0.528,0.38254 0.525,0 1.062,2.47925 0.632,2.91259 -0.338,0.3405 -0.266,1.08278 0.133,1.36179 0.227,0.15899 0.178,0.48876 -0.129,0.8607 -0.301,0.36522 -0.338,0.60296 -0.09,0.60296 0.221,0 0.377,0.34428 0.345,0.76507 -0.03,0.42079 -0.32,0.76771 -0.641,0.77094 -0.495,0.005 -0.502,0.0585 -0.04,0.35164 0.49,0.31209 0.624,1.00475 0.926,4.80674 0.05,0.63118 0.197,1.40582 0.326,1.72141 0.129,0.3156 0.34,1.47965 0.469,2.58678 0.129,1.10714 0.343,2.29733 0.475,2.64488 0.162,0.42394 0.1,0.54087 -0.203,0.3553 -0.245,-0.15213 -0.445,-0.10864 -0.445,0.0966 0,0.20528 0.214,0.45116 0.475,0.54641 0.38,0.13834 0.379,0.33708 0,0.98821 -0.385,0.65497 -0.385,0.81621 0,0.82091 0.323,0.004 0.293,0.12626 -0.09,0.37725 -0.414,0.26989 -0.145,0.35635 0.985,0.31636 0.855,-0.0303 1.795,0.0986 2.09,0.28634 0.295,0.18775 0.664,0.36551 0.821,0.39503 0.157,0.0295 0.391,0.0752 0.521,0.1015 0.13,0.0263 0,0.34906 -0.278,0.71725 -0.491,0.63756 -0.478,0.63756 0.268,0 0.932,-0.79648 1.18,-0.82166 1.878,-0.19127 1.133,1.0223 1.539,1.24726 2.457,1.3588 3.002,0.36512 4.068,0.60787 4.74,1.07974 0.412,0.28936 1.145,0.52612 1.627,0.52612 0.483,0 0.976,0.25821 1.097,0.5738 0.149,0.39207 0.758,0.57381 1.923,0.57381 1.386,0 1.743,0.14341 1.904,0.76507 0.15,0.5749 0.519,0.76507 1.485,0.76507 0.707,0 1.286,0.15498 1.286,0.34439 0,0.39861 2.915,1.11605 5.131,1.26286 0.952,0.0631 1.835,0.41379 2.363,0.93847 0.464,0.46076 1.153,0.93685 1.533,1.05798 0.406,0.12995 0.724,0.64297 0.774,1.25149 0.05,0.5672 0.267,1.1448 0.49,1.28356 0.463,0.28812 0.77,2.27705 0.351,2.27705 -0.252,0 -0.191,4.99735 0.134,10.99793 0.07,1.31496 0.01,2.39085 -0.136,2.39085 -0.145,0 -0.105,0.90374 0.09,2.00831 0.196,1.10458 0.392,2.26956 0.437,2.58885 0.04,0.31929 0.211,0.79268 0.371,1.05198 0.159,0.25929 0.183,0.64358 0.05,0.85398 -0.129,0.21039 -0.04,0.38253 0.19,0.38253 0.234,0 0.315,0.17968 0.18,0.3993 -0.135,0.21961 -0.06,0.62728 0.173,0.90594 0.496,0.60209 0.842,5.19788 0.391,5.19788 -0.172,0 -0.41,0.30913 -0.529,0.68695 -0.149,0.47193 -0.659,0.71693 -1.629,0.78272 -0.777,0.0527 -1.504,0.23492 -1.615,0.40501 -0.111,0.17008 -0.769,0.32312 -1.463,0.34006 -0.694,0.0169 -1.495,0.22565 -1.78,0.46378 -0.96,0.80206 -2.014,-0.78827 -2.031,-3.06623 0,-1.09552 -0.1,-2.07191 -0.192,-2.16975 -0.1,-0.0978 -0.03,-0.68135 0.142,-1.2967 0.175,-0.61535 0.182,-1.11881 0.02,-1.11881 -0.167,0 -0.255,-0.7316 -0.196,-1.62578 0.216,-3.26128 -0.02,-14.76558 -0.314,-15.05743 -0.08,-0.0773 -0.469,0.12871 -0.872,0.45773 -0.403,0.32902 -0.476,0.47407 -0.163,0.32233 0.314,-0.15174 0.206,0.0816 -0.24,0.51864 -0.446,0.43699 -1.534,0.99054 -2.418,1.2301 -1.003,0.27196 -1.676,0.6998 -1.79,1.13904 -0.195,0.75275 -1.173,1.14309 -2.883,1.15152 -1.207,0.006 -4.071,1.36047 -4.071,1.92568 0,0.20612 -0.586,0.37476 -1.303,0.37476 -1.225,0 -2.497,0.78483 -2.497,1.54013 0,0.18584 -0.599,0.45091 -1.331,0.58906 -0.731,0.13814 -1.33,0.40416 -1.33,0.59114 0,0.18698 -0.256,0.33996 -0.57,0.33996 -0.313,0 -0.57,0.18444 -0.57,0.40986 0,0.22542 -0.256,0.66807 -0.57,0.98367 -0.609,0.61269 -0.715,1.83379 -0.619,7.09157 0.04,1.93829 -0.102,3.42247 -0.331,3.5649 -0.216,0.13422 -0.266,0.44731 -0.111,0.69577 0.155,0.24845 0.305,1.08234 0.334,1.85308 0.03,0.77074 0.177,2.49215 0.33,3.82536 0.391,3.40974 0.708,8.74212 0.745,12.55198 l 0.03,3.24231 -1.022,0.0802 c -0.684,0.0536 -1.078,-0.13327 -1.191,-0.56455 -0.129,-0.49193 -0.18,-0.5082 -0.213,-0.0687 -0.07,0.9596 -3.437,2.16819 -4.12,1.48051 z m 4.365,-7.41207 c -0.338,-2.2816 -0.725,-9.46389 -0.824,-15.30146 -0.192,-11.23878 -0.162,-10.90228 -0.963,-10.90228 -1.005,0 -1.24,0.49992 -1.415,3.0114 -0.08,1.18406 -0.188,2.66926 -0.234,3.30045 -0.05,0.65377 -0.411,1.36474 -0.844,1.6522 -0.59,0.3914 -0.611,0.45845 -0.1,0.29891 0.477,-0.14764 0.665,0.007 0.665,0.54738 0,0.41418 -0.04,0.81268 -0.1,0.88554 -0.05,0.0729 0.127,0.40182 0.398,0.73102 0.272,0.32919 0.344,0.69194 0.16,0.80611 -0.425,0.26457 -0.1,7.85406 0.451,10.46788 0.1,0.46897 0.04,0.93817 -0.126,1.04267 -0.338,0.21042 -0.24,1.84877 0.149,2.48198 0.136,0.22242 0.05,0.40439 -0.198,0.40439 -0.309,0 -0.275,0.26512 0.111,0.86071 0.325,0.50303 0.529,1.62591 0.491,2.70208 -0.06,1.73392 -0.02,1.82871 0.794,1.62438 0.492,-0.12428 0.991,-0.0121 1.167,0.26257 0.461,0.71735 0.742,-2.62836 0.408,-4.87593 z m -33.988,-3.15593 c -0.08,-0.57858 -0.235,-2.08482 -0.341,-3.34719 -0.107,-1.26237 -0.273,-3.242 -0.37,-4.39917 -0.21,-2.49089 -0.453,-4.35465 -0.774,-5.92931 -0.128,-0.63119 -0.28,-2.61081 -0.336,-4.39917 -0.06,-1.78836 -0.199,-3.50977 -0.318,-3.82537 -0.271,-0.72031 -0.146,-2.34112 0.226,-2.94114 0.159,-0.2578 0.02,-0.60083 -0.318,-0.79224 -0.422,-0.23759 -0.604,-0.92441 -0.615,-2.31873 0,-1.08963 -0.189,-1.98115 -0.403,-1.98115 -0.213,0 -0.302,-0.3314 -0.196,-0.73645 0.134,-0.51664 0.03,-0.67569 -0.336,-0.53288 -0.48,0.1852 -0.712,0.93465 -0.557,1.79337 0.24,1.32391 0.24,5.59654 0,5.59654 -0.163,0 -0.15,0.51775 0.03,1.15054 0.18,0.6328 0.245,1.60621 0.145,2.16314 -0.1,0.55693 -0.06,1.28721 0.08,1.62285 0.294,0.68926 0.49,2.31109 0.653,5.40111 0.06,1.1622 0.248,2.33471 0.414,2.60556 0.537,0.87369 0.737,2.8355 0.757,7.42687 l 0.02,4.4948 h 1.195 c 1.085,0 1.181,-0.0959 1.046,-1.05198 z m 60.62,-12.9106 c 0.08,-0.68379 0.08,-0.61741 0.03,-4.97297 -0.02,-1.89356 0.04,-5.20981 0.126,-7.36944 0.14,-3.3837 0,-5.51785 -0.6,-9.07963 -0.07,-0.42079 -0.456,-0.8146 -0.857,-0.87513 -0.761,-0.115 -0.783,0.10845 -0.509,5.2743 0.04,0.73638 -0.03,1.72258 -0.143,2.19154 -0.118,0.46897 -0.07,0.94392 0.112,1.05546 0.179,0.11153 0.258,2.86195 0.176,6.11204 -0.1,3.82584 -0.01,5.99563 0.244,6.15426 0.217,0.13475 0.55,0.65864 0.741,1.16419 0.401,1.05968 0.593,1.15723 0.683,0.34538 z m -65.429,-2.55821 c -0.121,-0.30516 -0.211,-0.21452 -0.229,0.23111 -0.02,0.40326 0.07,0.6292 0.199,0.50208 0.127,-0.12711 0.14,-0.45705 0.03,-0.73319 z m 36.381,-10.73493 c -0.599,-0.47339 -1.239,-0.81163 -1.422,-0.75165 -0.183,0.06 -0.571,-0.0902 -0.862,-0.33374 -0.292,-0.24354 -0.53,-0.3296 -0.53,-0.19123 0,0.13836 -0.342,0.0673 -0.76,-0.15789 -0.418,-0.2252 -0.761,-0.26582 -0.761,-0.0903 0,0.17555 -0.598,0.24884 -1.33,0.16287 -1.893,-0.22251 -1.654,0.54249 0.266,0.85163 0.878,0.14131 1.776,0.40629 1.996,0.58884 0.392,0.32669 1.805,0.61225 3.585,0.72483 0.893,0.0565 0.89,0.0442 -0.182,-0.80339 z m 6.521,-1.26687 c 0.928,-0.13998 1.687,-0.38004 1.687,-0.53347 0,-0.44444 3.096,-1.85038 4.638,-2.10638 0.961,-0.15949 1.346,-0.396 1.213,-0.7449 -0.137,-0.36106 0.565,-0.71225 2.393,-1.19564 2.557,-0.67622 4.07,-1.53262 3.719,-2.10423 -0.185,-0.30209 1.811,-1.13375 2.722,-1.13375 0.574,0 2.038,-1.16003 2.038,-1.61516 0,-0.57837 -0.964,-0.28776 -1.405,0.42379 -0.297,0.47763 -1.402,0.93503 -3.273,1.35388 -2.199,0.49243 -3.047,0.88347 -3.827,1.76517 -0.552,0.62294 -1.386,1.13375 -1.855,1.13513 -0.893,0.003 -3.085,1.25741 -2.762,1.58165 0.102,0.10324 -0.837,0.4962 -2.088,0.87324 -1.315,0.39662 -2.273,0.90264 -2.273,1.20068 0,0.29336 -0.614,0.62871 -1.426,0.77892 -1.503,0.27823 -2.111,0.80754 -1.694,1.47404 0.148,0.23582 0.304,0.1334 0.379,-0.24883 0.09,-0.44336 0.664,-0.73045 1.814,-0.90414 z m -13.896,-0.0471 c 0,-0.23082 -2.753,-1.25592 -2.986,-1.11187 -0.135,0.0832 -2.126,-0.16768 -4.425,-0.5575 -2.3,-0.38983 -5.094,-0.71725 -6.211,-0.7276 -1.539,-0.0143 -2.182,-0.20139 -2.66,-0.77426 -0.419,-0.50195 -1.181,-0.78425 -2.271,-0.84131 -0.902,-0.0472 -1.724,-0.22372 -1.828,-0.39219 -0.103,-0.16846 -0.762,-0.3063 -1.464,-0.3063 -1.653,0 -2.479,-0.3324 -2.479,-0.99727 0,-0.29308 -0.171,-0.53287 -0.38,-0.53287 -0.21,0 -0.381,0.34428 -0.381,0.76507 0,0.50229 0.254,0.76507 0.738,0.76507 0.406,0 0.844,0.17214 0.973,0.38254 0.129,0.21039 0.823,0.38254 1.542,0.38254 0.765,0 1.6,0.29326 2.01,0.70621 0.478,0.48102 1.538,0.78764 3.326,0.96156 2.671,0.25993 6.27,1.01087 6.614,1.37999 0.105,0.11209 0.874,0.22749 1.71,0.25645 0.837,0.029 2.461,0.21478 3.611,0.41294 1.975,0.34033 4.561,0.47007 4.561,0.2288 z m 8.551,-0.88566 c 0.13,-0.2104 0.659,-0.38254 1.176,-0.38254 0.518,0 1.32,-0.24313 1.783,-0.54029 0.684,-0.43899 1.748,-0.69834 4,-0.97541 0.06,-0.008 0.02,-0.16776 -0.09,-0.35514 -0.299,-0.48685 1.256,-1.41186 2.883,-1.71595 1.292,-0.2412 2.082,-1.06904 1.667,-1.74532 -0.1,-0.15955 0.799,-0.49984 1.994,-0.7562 1.195,-0.25637 2.656,-0.71278 3.248,-1.01427 0.592,-0.30148 1.347,-0.54815 1.679,-0.54815 0.331,0 0.49,-0.11309 0.353,-0.2513 -0.138,-0.13822 0.717,-0.64683 1.899,-1.13024 1.181,-0.48341 2.249,-1.04288 2.372,-1.24327 0.123,-0.20039 0.822,-0.52132 1.553,-0.71317 1.026,-0.26905 1.32,-0.53742 1.285,-1.17347 -0.03,-0.48575 0.237,-0.91455 0.64,-1.04342 0.969,-0.30946 0.789,-1.71332 -0.22,-1.71332 -0.436,0 -0.961,-0.16947 -1.167,-0.37659 -0.206,-0.20713 -1.454,-0.5252 -2.774,-0.70683 -1.319,-0.18163 -2.51,-0.48953 -2.647,-0.68422 -0.366,-0.52261 -2.246,-1.67519 -2.732,-1.67519 -0.232,0 -0.677,-0.25821 -0.991,-0.5738 -0.495,-0.49855 -1.583,-0.76665 -2.511,-0.61911 -0.157,0.0249 -0.243,-0.1603 -0.19,-0.4116 0.117,-0.56189 -1.535,-0.96796 -4.181,-1.02798 -1.324,-0.03 -1.963,-0.19846 -1.9,-0.50071 0.05,-0.2505 -0.247,-0.52041 -0.665,-0.5998 -0.419,-0.0794 -1.3,-0.39085 -1.958,-0.69215 -1.381,-0.63142 -6.776,-0.77067 -6.404,-0.16528 0.296,0.48211 -1.052,0.5063 -1.539,0.0276 -0.474,-0.46561 -2.969,0.58706 -2.644,1.11558 0.132,0.2158 -0.03,0.49564 -0.354,0.62186 -0.326,0.12622 -0.594,0.55536 -0.594,0.95364 0,0.58981 -0.282,0.72414 -1.52,0.72414 -0.836,0 -1.52,0.1823 -1.52,0.40512 0,0.22281 -0.171,0.29872 -0.38,0.16869 -0.209,-0.13003 -0.381,-0.0728 -0.381,0.12722 0,0.2 -0.447,0.47675 -0.995,0.615 -0.547,0.13824 -0.891,0.35513 -0.765,0.48197 0.387,0.38981 -1.764,1.34369 -3.37,1.4945 -0.837,0.0785 -1.71,0.40206 -1.942,0.71902 -0.231,0.31695 -0.946,0.68192 -1.587,0.81105 -0.786,0.15832 -1.1,0.40788 -0.964,0.76639 0.129,0.33656 -0.06,0.53163 -0.505,0.53163 -0.421,0 -0.912,0.46497 -1.213,1.14761 -0.346,0.78824 -0.774,1.1476 -1.366,1.1476 -1.389,0 -3.255,0.79452 -3.255,1.38577 0,0.70461 -1.889,1.45652 -2.391,0.9516 -0.457,-0.46001 -1.9,0.057 -2.976,1.06667 l -0.787,0.73773 0.771,0.4156 c 0.425,0.22859 1.115,0.41561 1.535,0.41561 0.419,0 0.868,0.17214 0.997,0.38253 0.129,0.2104 0.622,0.38254 1.094,0.38254 0.473,0 1.231,0.43035 1.686,0.95634 0.683,0.79082 1.172,0.95764 2.824,0.96387 2.14,0.008 7.512,0.86059 8.228,1.30583 0.238,0.14831 0.335,0.4299 0.214,0.62576 -0.129,0.21117 1.454,0.3601 3.89,0.36592 3.717,0.009 9.983,0.99431 10.661,1.67655 0.338,0.33976 0.785,0.27314 1.048,-0.15622 z m 15.013,-2.06303 c 0,-0.0827 -0.265,-0.25285 -0.59,-0.37815 -0.338,-0.13064 -0.491,-0.0665 -0.357,0.15034 0.223,0.36349 0.947,0.53763 0.947,0.22781 z m -2.232,-2.81431 c 0.473,-0.60673 0.459,-0.62026 -0.143,-0.14443 -0.366,0.28875 -0.665,0.59 -0.665,0.66944 0,0.31484 0.312,0.1122 0.808,-0.52501 z m -47.222,-3.44283 c -0.129,-0.82327 0.115,-1.24324 0.721,-1.24324 0.372,0 0.969,-0.34429 1.327,-0.76508 0.357,-0.42079 0.982,-0.76507 1.388,-0.76507 0.648,0 0.695,-0.14704 0.388,-1.22369 -0.209,-0.73449 -0.21,-1.30969 0,-1.43884 0.207,-0.12908 0.196,-3.96275 -0.03,-9.58296 -0.205,-5.1523 -0.403,-11.21833 -0.438,-13.48008 -0.04,-2.26175 -0.208,-4.11227 -0.384,-4.11227 -0.176,0 -0.04,-0.28362 0.307,-0.63027 0.452,-0.45542 0.575,-1.06562 0.443,-2.19958 -0.104,-0.8938 0,-1.80675 0.256,-2.12092 0.278,-0.34947 0.288,-0.4604 0.03,-0.30272 -0.469,0.282 -0.505,-1.91495 -0.05,-2.6577 0.154,-0.24846 0.1,-0.56623 -0.129,-0.70617 -0.274,-0.1709 -0.229,-0.39933 0.139,-0.69587 0.301,-0.24279 0.656,-0.91483 0.79,-1.49342 0.14,-0.60662 0.5,-1.05197 0.85,-1.05197 0.422,0 0.546,-0.23555 0.406,-0.77417 -0.148,-0.57004 -0.03,-0.74655 0.431,-0.66944 0.347,0.0576 0.589,-0.11045 0.537,-0.37344 -0.05,-0.263 0.118,-0.49803 0.38,-0.5223 0.261,-0.0243 0.731,-0.07 1.045,-0.10167 0.749,-0.0756 1.568,0.52375 1.303,0.95421 -0.114,0.18656 -0.03,0.3392 0.195,0.3392 0.221,0 0.744,0.34428 1.162,0.76507 0.418,0.42079 0.654,0.76507 0.524,0.76507 -0.13,0 -0.05,0.23102 0.187,0.51337 0.232,0.28235 0.314,0.62247 0.182,0.75583 -0.133,0.13335 -0.07,0.4618 0.141,0.72987 0.211,0.26808 0.363,1.30515 0.34,2.3046 -0.02,0.99945 0.04,1.81712 0.147,1.81705 0.105,-8e-5 0.198,0.51629 0.206,1.14747 0,0.63119 -0.09,1.14761 -0.222,1.14761 -0.272,0 -0.209,0.90938 0.16,2.29522 0.678,2.5426 1.107,11.13308 0.62,12.42039 -0.222,0.58894 -0.233,0.91954 -0.03,0.79071 0.196,-0.12177 0.33,0.12661 0.298,0.55194 -0.03,0.42534 -0.214,0.77334 -0.404,0.77334 -0.19,0 -0.168,0.21534 0.05,0.47854 0.461,0.55934 0.863,4.51086 0.572,5.6298 -0.11,0.42279 -0.394,0.67181 -0.632,0.55338 -0.237,-0.11843 -0.175,0.0126 0.139,0.2912 0.607,0.53973 0.761,2.1228 0.279,2.87096 -0.552,0.85607 0.344,0.84441 1.267,-0.0165 0.508,-0.47447 1.01,-0.88957 1.114,-0.92244 1.798,-0.5652 2.62,-0.99043 2.451,-1.26656 -0.115,-0.18719 -0.193,-2.7095 -0.173,-5.60515 0.03,-4.59912 0,-6.67065 -0.152,-10.33342 -0.02,-0.47339 -0.129,-0.86071 -0.244,-0.86071 -0.115,0 -0.2,-0.68984 -0.19,-1.53298 0.01,-1.18955 0.146,-1.48928 0.589,-1.33794 0.46,0.15761 0.453,0.10308 -0.04,-0.28407 -0.334,-0.26351 -0.563,-0.77967 -0.509,-1.14703 0.05,-0.36735 -0.07,-0.76999 -0.267,-0.89476 -0.233,-0.1447 -0.232,-0.38765 0,-0.67096 0.485,-0.58909 0.456,-1.13824 -0.08,-1.52521 -0.327,-0.23562 -0.319,-0.36513 0.03,-0.50903 0.33,-0.13465 0.362,-0.39977 0.109,-0.87692 -0.2,-0.37615 -0.247,-0.80198 -0.103,-0.94628 0.143,-0.1443 0,-0.42251 -0.299,-0.61824 -0.308,-0.19623 -0.364,-0.35851 -0.124,-0.36174 0.239,-0.003 0.532,-0.26201 0.651,-0.57507 0.123,-0.3224 0.02,-0.52974 -0.229,-0.47818 -0.245,0.0501 -0.472,-0.29627 -0.504,-0.76966 -0.03,-0.47339 0.132,-0.86334 0.364,-0.86656 0.233,-0.003 0.167,-0.18847 -0.147,-0.41166 -0.444,-0.31602 -0.461,-0.44991 -0.08,-0.60515 0.377,-0.15307 0.388,-0.32389 0.05,-0.73595 -0.34,-0.41134 -0.333,-0.5366 0.03,-0.5366 0.309,0 0.385,-0.29614 0.222,-0.86071 -0.563,-1.94108 -0.525,-2.20309 0.425,-2.95555 0.538,-0.4258 1.371,-0.77418 1.851,-0.77418 0.54,0 0.966,-0.29243 1.115,-0.76507 0.279,-0.88568 0.595,-0.95483 1.31,-0.2869 0.409,0.38253 0.458,0.38253 0.244,0 -0.529,-0.94183 0.743,-0.46281 1.82,0.68564 0.888,0.94713 1.126,1.59887 1.277,3.50037 0.171,2.15352 0.13,2.31699 -0.522,2.08699 -0.546,-0.1924 -0.503,-0.0742 0.189,0.51627 0.796,0.67941 0.817,0.76648 0.19,0.77168 -0.521,0.004 -0.576,0.0894 -0.211,0.32272 0.273,0.17427 0.589,0.98931 0.702,1.81119 0.365,2.6534 0.366,7.96647 0,9.0905 -0.25,0.77113 -0.22,1.17614 0.1,1.37516 0.274,0.17047 0.357,0.66753 0.21,1.25607 -0.142,0.57055 -0.06,1.08513 0.189,1.24238 0.31,0.19267 0.264,0.52506 -0.161,1.17782 -0.536,0.82432 -0.536,0.88789 0,0.67947 0.515,-0.19891 0.588,0.22856 0.546,3.16744 -0.05,3.23106 -0.03,3.64547 0.177,4.54499 0.05,0.21039 0.114,0.64921 0.146,0.97516 0.04,0.45409 0.391,0.55228 1.483,0.42003 0.784,-0.0949 1.211,-0.24721 0.948,-0.3384 -0.675,-0.2346 -0.189,-0.86553 0.668,-0.86553 0.393,0 0.837,-0.19873 0.986,-0.44164 0.18,-0.29255 0.103,-0.33692 -0.227,-0.13145 -0.372,0.23106 -0.444,0.0998 -0.285,-0.5147 0.118,-0.45369 0.09,-0.82489 -0.06,-0.82489 -0.339,0 -0.175,-3.6742 0.191,-4.27029 0.166,-0.27042 0.101,-0.33379 -0.17,-0.1654 -0.28,0.17474 -0.45,-0.0448 -0.47,-0.61034 -0.02,-0.4858 -0.08,-1.22756 -0.141,-1.64835 -0.06,-0.42079 -0.221,-1.62578 -0.358,-2.67776 -0.137,-1.05197 -0.308,-2.25696 -0.38,-2.67775 -0.07,-0.42079 0.03,-1.0871 0.238,-1.48068 0.262,-0.50965 0.246,-0.63922 -0.06,-0.45021 -0.303,0.18837 -0.411,-0.57347 -0.371,-2.62497 0.04,-2.01746 0.185,-2.81764 0.483,-2.64959 0.243,0.13622 0.222,0.0171 -0.05,-0.2744 -0.674,-0.73075 -0.591,-1.31766 0.104,-0.73701 0.318,0.26613 0.675,0.38723 0.792,0.2691 0.118,-0.11813 -0.143,-0.40693 -0.579,-0.64178 -0.436,-0.23484 -0.793,-0.6893 -0.793,-1.00991 0,-0.36043 0.182,-0.4762 0.476,-0.30332 0.261,0.15378 0.159,-0.0834 -0.228,-0.52712 -0.386,-0.4437 -0.59,-0.98972 -0.452,-1.21337 0.137,-0.22365 0.1,-0.40664 -0.09,-0.40664 -0.186,0 -0.339,-0.26562 -0.339,-0.59027 0,-0.36303 0.216,-0.50692 0.561,-0.37377 0.477,0.18439 0.484,0.12379 0.04,-0.40887 -0.283,-0.34395 -0.466,-1.20429 -0.405,-1.91188 0.06,-0.70759 -0.02,-1.49614 -0.176,-1.75235 -0.157,-0.2562 -0.302,-1.29335 -0.322,-2.30478 -0.03,-1.75625 0.234,-2.28344 0.741,-1.45642 0.13,0.2104 0.439,0.37707 0.688,0.37037 0.252,-0.007 0.16,-0.23566 -0.207,-0.51599 -0.362,-0.27711 -0.538,-0.62501 -0.391,-0.77312 0.147,-0.14812 0,-0.16574 -0.329,-0.0392 -0.461,0.17816 -0.581,-0.0116 -0.53,-0.84049 0.04,-0.58884 -0.118,-1.19709 -0.343,-1.35166 -0.273,-0.18805 -0.248,-0.28299 0.07,-0.28691 0.334,-0.004 0.405,-0.32955 0.229,-1.05783 -0.248,-1.02412 -0.235,-1.03421 0.499,-0.38094 0.61,0.54291 0.754,0.56438 0.754,0.11246 0,-0.30722 -0.102,-0.49534 -0.226,-0.41805 -0.124,0.0773 -0.549,-0.097 -0.943,-0.38741 -0.593,-0.43653 -0.634,-0.62933 -0.235,-1.11369 0.33,-0.39939 0.348,-0.58576 0.06,-0.58576 -0.235,0 -0.407,-0.1291 -0.382,-0.2869 0.124,-0.78741 -0.127,-1.08318 -0.976,-1.15395 -0.512,-0.0427 -1.036,0.0919 -1.163,0.2991 -0.127,0.20717 -0.52,0.37774 -0.874,0.37904 -0.353,0.001 -1.132,0.2595 -1.731,0.5738 -0.599,0.3143 -1.485,0.57145 -1.968,0.57145 -0.484,0 -1.159,0.28048 -1.499,0.62329 -0.341,0.34281 -1.379,0.70948 -2.308,0.81482 -1.006,0.11414 -1.688,0.38677 -1.688,0.67466 0,0.56399 -0.84,0.94752 -2.075,0.94752 -0.48,0 -1.535,0.29079 -2.344,0.6462 -0.81,0.3554 -1.586,0.65665 -1.725,0.66944 -0.14,0.0128 -0.37,0.14048 -0.513,0.28378 -0.142,0.1433 -0.485,0.17303 -0.762,0.0661 -0.499,-0.19273 -2.177,1.17219 -1.848,1.50326 0.09,0.0947 -0.519,0.28323 -1.362,0.41894 -0.843,0.1357 -1.533,0.41683 -1.533,0.62474 0,0.20791 -0.332,0.37802 -0.738,0.37802 -0.406,0 -0.839,0.16462 -0.962,0.36583 -0.124,0.2012 -0.519,0.28195 -0.878,0.17943 -0.359,-0.10251 -0.261,0.0206 0.218,0.27348 0.594,0.31367 0.785,0.65187 0.602,1.06381 -0.431,0.96753 -0.724,13.54223 -0.513,22.00692 0.06,2.51291 -0.05,4.23922 -0.271,4.31474 -0.216,0.0724 -0.274,0.73041 -0.137,1.54919 0.13,0.78282 0.09,2.37009 -0.08,3.52726 -0.177,1.15717 -0.389,2.62038 -0.472,3.25156 -0.08,0.63119 -0.243,1.66403 -0.356,2.29522 -0.294,1.64364 -0.557,11.30826 -0.324,11.91946 0.204,0.53495 0.908,0.72683 0.829,0.22607 z m 60.856,-1.44797 c 0,-0.43544 -0.172,-0.49825 -0.665,-0.24296 -0.366,0.18937 -0.922,0.44005 -1.235,0.55706 -0.314,0.11702 -0.01,0.22635 0.665,0.24296 0.87,0.0213 1.235,-0.14334 1.235,-0.55706 z m 1.774,-2.26493 c 0,-0.30634 -0.146,-0.46659 -0.323,-0.35611 -0.178,0.11048 -0.225,0.36112 -0.104,0.55698 0.307,0.5005 0.427,0.44415 0.427,-0.20087 z m -54.603,-0.97317 c 0.56,-0.5642 0.617,-0.76507 0.215,-0.76507 -0.913,0 -2.496,0.72173 -2.496,1.13814 0,0.67199 1.483,0.42935 2.281,-0.37307 z m 3.8,-1.91268 c 0,-1.35722 -0.13,-1.39887 -1.154,-0.36859 -0.868,0.87385 -0.691,1.5162 0.417,1.5162 0.566,0 0.737,-0.26666 0.737,-1.14761 z m -14.501,-1.9039 c -0.06,-1.06961 -0.227,-1.40466 -0.615,-1.25462 -0.397,0.15341 -0.416,0.27589 -0.07,0.48885 0.327,0.20354 0.209,0.53302 -0.415,1.16146 -0.838,0.84322 -0.843,0.88772 -0.14,1.1449 1.083,0.396 1.338,0.0795 1.243,-1.54059 z m 9.561,1.1814 c 0,-0.18698 0.606,-0.45448 1.347,-0.59444 0.917,-0.17309 1.483,-0.55376 1.772,-1.19019 0.43,-0.95158 1.061,-1.26689 1.061,-0.53059 0,0.22281 0.188,0.28862 0.416,0.14624 0.376,-0.23389 0.324,-3.57579 -0.165,-10.59293 -0.06,-0.78898 0,-1.43447 0.11,-1.43442 0.203,8e-5 0.134,-4.57172 -0.1,-6.50321 -0.06,-0.52599 0.06,-1.20456 0.286,-1.50794 0.312,-0.427 0.284,-0.47953 -0.124,-0.23257 -0.415,0.25156 -0.489,0.0691 -0.354,-0.8627 0.1,-0.64996 0.03,-1.09461 -0.138,-0.98811 -0.323,0.20047 -0.341,0.0826 -0.487,-3.10307 -0.05,-1.05197 -0.131,-1.99875 -0.183,-2.10395 -0.05,-0.10519 -0.147,-1.13804 -0.211,-2.29522 -0.06,-1.15717 -0.154,-2.19002 -0.199,-2.29521 -0.05,-0.1052 -0.06,-0.32038 -0.04,-0.47817 0.02,-0.1578 -0.107,-0.28691 -0.293,-0.28691 -0.186,0 -0.314,-0.27741 -0.285,-0.61647 0.03,-0.33906 -0.33,-0.76308 -0.798,-0.94228 -0.467,-0.17919 -0.824,-0.20303 -0.792,-0.053 0.03,0.15007 -0.327,1.13355 -0.796,2.18553 -0.693,1.55491 -0.865,2.68177 -0.917,6.02433 -0.04,2.26141 -0.151,4.11193 -0.256,4.11227 -0.106,3.4e-4 -0.146,1.50685 -0.09,3.34781 0.264,8.70687 0.458,13.43046 0.612,14.92729 0.115,1.118 0,1.81275 -0.393,2.19959 -0.36,0.36161 -0.402,0.56542 -0.119,0.56542 0.291,0 0.383,0.51758 0.268,1.51798 -0.1,0.83489 -0.08,1.60953 0.03,1.72142 0.319,0.3214 0.836,0.23705 0.836,-0.13653 z m -9.265,-7.1195 c 0.169,-1.89355 0.309,-4.17443 0.31,-5.06861 0,-0.89417 0.117,-1.62578 0.256,-1.62578 0.421,0 0.636,-2.81975 0.271,-3.53846 -0.198,-0.38925 -0.199,-0.66944 0,-0.66944 0.189,0 0.271,-2.3274 0.185,-5.25987 -0.184,-6.31978 -0.196,-10.49349 -0.04,-13.95827 0.1,-2.16093 0.02,-2.54803 -0.46,-2.39371 -0.322,0.10291 -0.8,-0.17647 -1.083,-0.6335 -0.482,-0.77591 -0.452,-0.80634 0.589,-0.5969 0.85,0.17109 1.108,0.0761 1.149,-0.42279 0.03,-0.35391 0.109,-0.98117 0.177,-1.3939 0.08,-0.46135 -0.122,-0.80148 -0.512,-0.88298 -0.477,-0.0995 -0.584,0.0639 -0.431,0.65479 0.173,0.66629 0.03,0.78734 -0.942,0.78734 -1.266,0 -1.235,-0.21573 -0.636,4.39917 0.136,1.05198 0.265,2.3 0.287,2.77339 0.02,0.47339 0.186,0.86071 0.365,0.86071 0.18,0 0.222,0.17066 0.09,0.37924 -0.243,0.39473 -0.612,5.33991 -0.707,9.47032 -0.03,1.31455 -0.194,2.39044 -0.363,2.39085 -0.169,4.1e-4 -0.189,0.19302 -0.05,0.42802 0.144,0.235 0.334,3.89301 0.421,8.1289 0.134,6.49783 0.234,8.58785 0.47,9.7737 0.138,0.69534 0.39,-0.70163 0.649,-3.60222 z m 25.987,0.56035 c 0,-0.62605 -0.552,-0.409 -1.066,0.41881 -0.451,0.72767 -0.429,0.75588 0.289,0.36908 0.428,-0.23035 0.777,-0.5849 0.777,-0.78789 z m 0.369,-2.46235 c 0.429,-0.3913 0.611,-0.92966 0.481,-1.4285 -0.13,-0.50041 0.03,-0.97725 0.433,-1.2719 0.55,-0.40466 0.56,-0.50236 0.07,-0.69047 -0.426,-0.16432 -0.563,-0.84094 -0.548,-2.70591 0.01,-1.36774 -0.09,-2.65473 -0.211,-2.85999 -0.126,-0.20525 -0.07,-0.47184 0.124,-0.59241 0.375,-0.23364 0.362,-0.92598 -0.03,-1.55657 -0.131,-0.21122 -0.297,-1.50229 -0.368,-2.86902 -0.119,-2.29888 -0.07,-2.47726 0.63,-2.38199 0.648,0.088 0.626,0.0259 -0.154,-0.42699 -0.671,-0.38967 -0.772,-0.58645 -0.38,-0.7433 0.402,-0.16116 0.421,-0.29308 0.08,-0.53945 -0.286,-0.2046 -0.331,-0.52849 -0.122,-0.86922 0.198,-0.32232 0.174,-0.84237 -0.06,-1.27931 -0.31,-0.58252 -0.284,-0.67131 0.122,-0.42535 0.416,0.25252 0.424,0.20074 0.04,-0.27593 -0.26,-0.32274 -0.359,-0.70007 -0.222,-0.83851 0.138,-0.13844 0,-0.25434 -0.288,-0.25756 -0.443,-0.005 -0.438,-0.0706 0.03,-0.37086 0.472,-0.30181 0.488,-0.4995 0.09,-1.14176 -0.384,-0.62418 -0.384,-0.77789 0,-0.7826 0.3,-0.004 0.335,-0.11101 0.09,-0.2869 -0.211,-0.15458 -0.42,-1.14175 -0.465,-2.19373 -0.05,-1.05197 -0.128,-2.3401 -0.186,-2.8625 -0.06,-0.54124 0.1,-0.97319 0.37,-1.00416 0.849,-0.097 0.904,-0.14426 0.65,-0.55743 -0.165,-0.2696 -0.476,-0.20177 -0.917,0.2005 -0.367,0.33437 -0.906,0.52282 -1.198,0.41879 -0.673,-0.24035 -2.379,1.16503 -2.055,1.6931 0.134,0.21789 0,0.6428 -0.301,0.94425 -0.3,0.30145 -0.497,0.98869 -0.438,1.52721 0.06,0.53852 -0.06,0.97912 -0.262,0.97912 -0.203,0 -0.255,0.18665 -0.115,0.41478 0.141,0.22813 0.295,1.49164 0.343,2.8078 0.05,1.31616 0.187,2.5539 0.307,2.75055 0.121,0.19664 0.22,1.30008 0.22,2.45208 0,1.152 0.03,2.18061 0.07,2.28581 0.04,0.1052 0.131,0.92287 0.207,1.81705 0.09,1.09431 -0.01,1.62769 -0.323,1.63163 -0.295,0.004 -0.256,0.15179 0.109,0.41166 0.394,0.28081 0.434,0.46213 0.128,0.58868 -0.326,0.13483 -0.304,0.45 0.08,1.19953 0.288,0.55916 0.402,1.10929 0.252,1.22251 -0.375,0.28395 -0.345,6.13539 0.03,6.13527 0.167,-5e-5 0.147,0.28257 -0.05,0.62804 -0.192,0.34548 -0.261,0.96727 -0.153,1.38176 0.165,0.63575 0.43,0.72207 1.69,0.55189 0.822,-0.11095 1.805,-0.48431 2.184,-0.82969 z m 6.9,-10.63244 c -0.375,-0.37499 -0.419,-0.33105 -0.213,0.21414 0.143,0.37727 0.355,0.58957 0.472,0.4718 0.117,-0.11778 0,-0.42645 -0.259,-0.68594 z m -35.23,-9.80059 c 0.114,-0.18656 -0.09,-0.57388 -0.453,-0.86071 -0.584,-0.46069 -0.606,-0.45048 -0.189,0.0875 0.26,0.33495 0.359,0.72227 0.222,0.8607 -0.138,0.13844 -0.146,0.25171 -0.02,0.25171 0.127,0 0.324,-0.15264 0.439,-0.33919 z m 15.695,-4.25125 c 0.03,-0.42079 -0.09,-0.76507 -0.266,-0.76507 -0.256,0 -0.274,0.66161 -0.04,1.43451 0.1,0.32701 0.256,-0.0166 0.305,-0.66944 z m 13.597,-3.44282 c -0.129,-0.2104 -0.439,-0.37991 -0.688,-0.37668 -0.272,0.004 -0.225,0.15386 0.118,0.37668 0.73,0.47492 0.861,0.47492 0.57,0 z m 4.647,-1.1312 c -0.06,-0.82142 -0.377,-0.70563 -0.507,0.18593 -0.05,0.3095 0.06,0.56273 0.241,0.56273 0.177,0 0.297,-0.3369 0.266,-0.74866 z m -9.204,-1.54353 c 0.295,0.24663 0.439,0.20131 0.439,-0.13789 0,-0.3117 -0.376,-0.47045 -0.982,-0.41441 -1.284,0.11883 -1.256,0.10199 -0.961,0.5826 0.181,0.29376 0.374,0.29643 0.66,0.009 0.26,-0.26251 0.56,-0.27649 0.844,-0.0394 z m 2.72,-1.32508 c 0,-0.30634 -0.146,-0.46658 -0.323,-0.3561 -0.178,0.11048 -0.225,0.36112 -0.104,0.55697 0.307,0.50051 0.427,0.44415 0.427,-0.20087 z m 5.704,-1.22487 c -0.137,-0.13844 -0.04,-0.52576 0.222,-0.86071 0.417,-0.53797 0.394,-0.54818 -0.189,-0.0875 -0.595,0.46917 -0.603,1.1999 -0.01,1.1999 0.127,0 0.119,-0.11327 -0.02,-0.2517 z m -23.267,-3.92977 c 0.12,-0.19585 0.07,-0.44649 -0.104,-0.55697 -0.178,-0.11048 -0.323,0.0498 -0.323,0.3561 0,0.64502 0.12,0.70138 0.427,0.20087 z m -4.545,-0.40896 c -0.129,-0.2104 -0.438,-0.3799 -0.687,-0.37668 -0.272,0.004 -0.225,0.15386 0.117,0.37668 0.731,0.47492 0.862,0.47492 0.57,0 z m 28.368,0.11476 c -0.438,-0.17508 -0.438,-0.25883 0,-0.53775 0.41,-0.26201 0.415,-0.33158 0.02,-0.33623 -0.279,-0.003 -0.378,-0.20009 -0.226,-0.4475 0.16,-0.26045 0.105,-0.3383 -0.134,-0.18975 -0.326,0.20252 -0.373,0.85718 -0.122,1.68337 0.02,0.0526 0.243,0.082 0.505,0.0654 0.337,-0.0214 0.324,-0.0903 -0.04,-0.23757 z m -21.946,-0.81608 c 0.108,-0.17533 -0.05,-0.31878 -0.34,-0.31878 -0.296,0 -0.449,0.14345 -0.341,0.31878 0.107,0.17533 0.261,0.31878 0.341,0.31878 0.08,0 0.233,-0.14345 0.34,-0.31878 z m 15.21,-7.32648 c -0.246,-0.24774 -0.375,-0.11841 -0.375,0.37707 0,0.49547 0.129,0.62481 0.375,0.37707 0.246,-0.24774 0.246,-0.50641 0,-0.75414 z m 3.04,0 c -0.246,-0.24774 -0.374,-0.11841 -0.374,0.37707 0,0.49547 0.128,0.62481 0.374,0.37707 0.246,-0.24774 0.246,-0.50641 0,-0.75414 z m 2.931,-0.10748 c -0.376,-0.37499 -0.419,-0.33105 -0.213,0.21414 0.143,0.37727 0.355,0.58958 0.472,0.4718 0.117,-0.11778 0,-0.42645 -0.259,-0.68594 z m 1.853,0.31586 c 0,-0.0928 -0.171,-0.27509 -0.38,-0.40512 -0.209,-0.13003 -0.38,-0.0541 -0.38,0.1687 0,0.22281 0.171,0.40511 0.38,0.40511 0.209,0 0.38,-0.0759 0.38,-0.16869 z m -3.374,-1.846 c -0.375,-0.37499 -0.419,-0.33105 -0.212,0.21414 0.142,0.37726 0.355,0.58957 0.472,0.47179 0.117,-0.11777 0,-0.42645 -0.26,-0.68593 z m -1.187,0.25209 c 0,-0.31659 -0.738,-0.49563 -0.907,-0.22008 -0.11,0.17876 0.05,0.32502 0.354,0.32502 0.304,0 0.553,-0.0472 0.553,-0.10494 z m -74.899,78.81262 c -0.393,-0.47673 -0.402,-0.76065 -0.04,-1.34025 0.251,-0.40445 0.326,-0.71437 0.167,-0.68871 -0.754,0.12158 -0.994,-0.092 -0.479,-0.42647 0.414,-0.26945 0.434,-0.37242 0.07,-0.37668 -0.273,-0.003 -0.39,-0.1808 -0.259,-0.39463 0.132,-0.21383 0.441,-0.28713 0.688,-0.1629 0.247,0.12423 0.149,-0.021 -0.216,-0.32283 -0.366,-0.3018 -0.665,-0.6829 -0.665,-0.84691 0,-0.164 0.299,-0.53277 0.665,-0.81947 0.489,-0.38373 0.511,-0.46803 0.08,-0.31949 -0.457,0.15774 -0.598,-0.13664 -0.646,-1.34824 -0.04,-0.99608 0.08,-1.4615 0.337,-1.3023 0.238,0.1478 0.215,-0.0964 -0.06,-0.60541 -0.25,-0.46923 -0.498,-2.39122 -0.552,-4.27109 -0.09,-3.00369 -0.01,-3.46424 0.612,-3.79995 0.544,-0.29293 0.765,-0.23536 0.949,0.2469 0.132,0.3459 0.09,0.74064 -0.101,0.8772 -0.622,0.45367 -0.54,1.2042 0.135,1.23484 0.366,0.0166 0.494,0.10247 0.285,0.19079 -0.211,0.0891 -0.328,1.13959 -0.264,2.36066 0.06,1.21003 0.113,3.04455 0.109,4.0767 0,1.03216 0.109,2.06501 0.252,2.29522 0.402,0.65211 0.327,2.90439 -0.1,2.91092 -0.209,0.003 -0.124,0.17272 0.19,0.37667 0.313,0.20395 0.39,0.37346 0.171,0.37668 -0.231,0.003 -0.333,0.56801 -0.243,1.34474 0.165,1.42675 -0.278,1.72398 -1.094,0.73401 z"
           id="path1" /></g></g></g></svg>
