<?xml version="1.0" encoding="UTF-8" standalone="no"?>
<!-- Created with Inkscape (http://www.inkscape.org/) -->

<svg
   width="231.38646"
   height="235.24007"
   viewBox="0 0 61.221 62.240601"
   version="1.1"
   id="svg1"
   xml:space="preserve"
   xmlns="http://www.w3.org/2000/svg"
   xmlns:svg="http://www.w3.org/2000/svg"><defs
     id="defs1" /><g
     id="g2045"
     transform="matrix(0.26458333,0,0,0.26458333,-5237.9369,-10.154699)"><path
       style="fill:#000000"
       d="m 19922.771,257.80425 c -0.415,-0.41313 -0.994,-0.60285 -1.288,-0.4216 -0.911,0.56138 -5.917,0.65778 -6.559,0.1263 -0.342,-0.28329 -1.331,-0.3682 -2.261,-0.19413 -0.96,0.1797 -1.781,0.10186 -1.96,-0.18573 -0.168,-0.2723 -0.929,-0.49509 -1.69,-0.49509 -0.974,0 -1.477,-0.29285 -1.698,-0.98889 -0.3,-0.94252 -0.372,-0.9516 -1.532,-0.19373 -0.922,0.60279 -1.756,0.71494 -3.449,0.46358 -1.229,-0.18237 -2.45,-0.50653 -2.715,-0.72035 -0.689,-0.55641 -2.715,-0.71958 -3.92,-0.31573 -0.584,0.19571 -1.927,0.0375 -3.098,-0.36483 -1.136,-0.39068 -2.235,-0.60658 -2.44,-0.4798 -0.206,0.12679 -0.871,-0.0267 -1.477,-0.3411 -2.371,-1.22848 -2.817,-1.38233 -4.009,-1.38233 -0.678,0 -1.71,-0.49819 -2.294,-1.10709 -0.788,-0.8227 -1.658,-1.12897 -3.388,-1.19226 -2.244,-0.0821 -3.234,-0.59236 -6.219,-3.20717 -0.464,-0.40594 -1.168,-0.73807 -1.565,-0.73807 -0.398,0 -0.723,-0.40586 -0.723,-0.90189 0,-1.1522 -1.107,-2.07905 -2.052,-1.7174 -0.684,0.2618 -3.718,-2.39889 -3.724,-3.26504 0,-0.19815 -0.544,-0.36027 -1.206,-0.36027 -0.955,0 -1.204,-0.24219 -1.204,-1.17068 0,-1.06331 -0.15,-1.14635 -1.638,-0.9054 -1.338,0.21648 -1.74,0.0765 -2.189,-0.76066 -0.303,-0.56426 -0.429,-1.22269 -0.28,-1.46317 0.149,-0.24048 0.05,-0.57301 -0.218,-0.73895 -0.27,-0.16595 -0.49,-0.61361 -0.49,-0.99482 0,-0.3812 -0.836,-1.50328 -1.859,-2.4935 -1.023,-0.99023 -1.993,-2.18358 -2.156,-2.65191 -0.25,-0.71863 -0.445,-0.75894 -1.249,-0.25836 -1.219,0.7594 -1.855,0.1416 -1.098,-1.06706 0.762,-1.21768 0.734,-2.32891 -0.102,-3.92646 -0.374,-0.71491 -0.564,-1.74167 -0.422,-2.28168 0.21,-0.80413 0.03,-0.98183 -1.003,-0.98183 -1.532,0 -1.572,-0.32705 -0.217,-1.76561 0.885,-0.94034 0.96,-1.28767 0.494,-2.30695 -0.301,-0.65997 -0.433,-1.49885 -0.293,-1.86417 0.421,-1.09342 -1.185,-1.34958 -1.846,-0.29444 -0.681,1.08772 -1.806,1.26561 -1.806,0.28557 0,-0.36394 0.325,-0.9308 0.723,-1.2597 1.174,-0.97224 0.868,-1.87209 -0.602,-1.77166 -1.089,0.0743 -1.318,-0.10172 -1.286,-0.99037 0.02,-0.59795 -0.248,-1.08079 -0.602,-1.08079 -2.618,0 4.011,-7.7929 11.483,-13.49864 5.933,-4.53055 8.282,-6.67819 7.288,-6.66204 -1.164,0.0189 -9.103,5.93699 -12.305,9.17237 -4.693,4.74129 -7.588,6.54601 -7.588,4.73052 0,-0.24027 1.246,-1.34507 2.769,-2.45511 1.523,-1.11004 3.961,-3.22854 5.417,-4.70777 1.457,-1.47923 3.299,-3.15973 4.093,-3.73445 0.795,-0.57471 1.194,-1.05694 0.887,-1.07162 -0.307,-0.0147 -2.348,1.3918 -4.536,3.12551 -4.377,3.46818 -6.487,4.72382 -7.199,4.28456 -0.901,-0.55507 -0.443,-1.09527 2.605,-3.07644 1.69,-1.09842 3.467,-2.4312 3.948,-2.96174 0.481,-0.53054 2.132,-1.72639 3.669,-2.65744 1.536,-0.93104 2.793,-1.77846 2.793,-1.88313 0,-0.44655 -1.922,0.56519 -5.283,2.78039 -3.584,2.36232 -5.742,3.04591 -6.134,1.94309 -0.113,-0.31905 0.58,-0.9077 1.54,-1.3081 0.961,-0.4004 2.33,-1.13552 3.043,-1.6336 0.713,-0.49809 3.247,-1.94206 5.63,-3.20884 2.384,-1.26677 5.743,-3.30593 7.464,-4.53145 1.722,-1.22553 4.755,-3.27842 6.741,-4.56199 9.242,-5.97224 12.924,-8.56053 14.928,-10.49338 2.659,-2.56585 9.749,-8.81788 13.964,-12.31525 1.722,-1.42818 3.459,-2.93915 3.862,-3.3577 2.308,-2.40055 4.975,-4.4016 5.566,-4.17547 0.429,0.16434 1.386,-0.6964 2.607,-2.34555 1.061,-1.43284 1.93,-2.73487 1.93,-2.8934 0,-0.34655 3.647,-5.60617 6.656,-9.60002 1.195,-1.58517 3.271,-3.9346 4.615,-5.22097 1.798,-1.72145 2.404,-2.63561 2.295,-3.46301 -0.08,-0.61829 0.19,-1.83547 0.603,-2.70486 0.413,-0.86938 1.086,-2.87765 1.495,-4.46282 1.771,-6.85531 5.771,-12.90553 11.227,-16.979988 4.039,-3.016955 5.079,-4.247513 5.209,-6.164083 0.129,-1.903461 0.981,-3.567581 4.63,-9.039589 3.25,-4.874457 5.983,-8.335615 8.536,-10.807947 1.916,-1.856675 3.185,-3.675303 4.387,-6.291741 0.919,-1.99824 5.201,-7.638502 5.8,-7.638502 0.222,0 0.404,-0.398816 0.404,-0.886258 0,-1.493534 1.678,-2.619664 3.47,-2.328653 3.365,0.546628 6.917,1.805838 7.675,2.721447 0.436,0.525996 1.142,2.527437 1.57,4.447648 1.04,4.674555 0.532,6.193024 -4.864,14.539414 -0.854,1.320972 -1.961,2.942164 -2.46,3.602649 -0.499,0.660486 -1.027,1.95744 -1.174,2.882119 -0.361,2.27196 -4.696,11.323084 -6.484,13.540226 -0.472,0.585599 -1.409,2.248384 -5.091,9.036378 -0.788,1.45307 -2.146,4.61803 -3.019,7.03324 -0.872,2.41522 -2.469,5.94716 -3.549,7.84875 -1.081,1.90159 -1.964,3.53533 -1.964,3.63053 0,0.42502 -3.183,4.94486 -4.553,6.46584 -1.543,1.7125 -2.328,3.5816 -2.898,6.89972 -0.845,4.92504 -3.164,10.46338 -6.266,14.96339 -2.444,3.5467 -3.086,4.83019 -2.862,5.72016 0.169,0.67519 -0.02,1.61088 -0.451,2.27348 -0.939,1.42957 -1.319,9.53284 -0.729,15.53663 0.932,9.47415 1.607,20.02036 1.676,26.17925 0.04,3.56662 0.241,7.86893 0.447,9.56069 0.254,2.09319 0.214,2.97742 -0.126,2.76763 -0.891,-0.54945 -1.026,2.19674 -0.361,7.36616 1.438,11.17698 1.734,13.29927 2.146,15.38933 0.485,2.45926 0.129,6.22657 -0.587,6.22657 -0.26,0 -0.369,0.70246 -0.241,1.56114 0.173,1.16171 -0.05,1.90275 -0.889,2.89626 -0.617,0.73431 -1.271,2.13114 -1.454,3.10406 -0.368,1.95341 -1.811,3.44605 -3.358,3.47068 -0.551,0.009 -1.15,0.16243 -1.329,0.34142 -0.395,0.39393 -6.585,2.52682 -7.384,2.54428 -0.312,0.007 -0.906,-0.32562 -1.32,-0.73876 z m -4.959,-5.8537 c 0.938,-4.47563 1.429,-7.83752 0.998,-6.84503 -0.172,0.39629 -1.018,2.69853 -1.879,5.11608 -1.138,3.19516 -1.421,4.53976 -1.036,4.92362 0.928,0.92536 1.12,0.60542 1.917,-3.19467 z m 3.451,0.96071 c 0.422,-4.08657 2.154,-15.69411 2.946,-19.74586 0.691,-3.5391 0.884,-5.70556 0.47,-5.29248 -0.717,0.71529 -5.556,23.56231 -5.557,26.23922 0,1.22176 0.201,1.56115 0.927,1.56115 0.777,0 0.976,-0.45304 1.214,-2.76203 z m 2.848,0.72053 c 0.157,-1.12283 0.522,-4.41925 0.813,-7.32539 0.29,-2.90614 0.945,-7.69881 1.455,-10.65039 0.969,-5.60227 1.275,-12.25151 0.405,-8.80391 -0.233,0.92468 -0.548,2.76203 -0.701,4.083 -0.152,1.32097 -0.914,6.24499 -1.693,10.94225 -1.417,8.53892 -1.794,13.79594 -0.99,13.79594 0.235,0 0.555,-0.91868 0.711,-2.0415 z m 3.246,1.38132 c -0.381,-0.45839 -0.458,-2.36712 -0.252,-6.24459 0.164,-3.07143 0.194,-5.58441 0.07,-5.58441 -0.126,0 -0.484,2.10755 -0.795,4.68344 -0.312,2.57589 -0.688,5.38596 -0.836,6.24459 -0.248,1.44597 -0.171,1.56115 1.048,1.56115 1.062,0 1.21,-0.12756 0.767,-0.66018 z m -14.207,-0.18779 c 0.292,-0.1941 0.765,-0.79911 1.053,-1.34446 0.834,-1.58286 4.436,-14.34445 4.436,-15.71738 0,-0.68619 0.186,-1.36213 0.413,-1.50209 0.523,-0.32204 1.746,-5.97556 1.373,-6.34699 -0.489,-0.48782 -1.304,0.32638 -1.304,1.30261 0,0.52016 -1.066,4.12807 -2.368,8.01757 -1.302,3.8895 -2.64,8.85513 -2.972,11.03474 -0.333,2.1796 -0.838,3.9878 -1.124,4.01822 -0.285,0.0304 -0.952,0.0207 -1.481,-0.0215 -0.801,-0.0639 -0.842,0.007 -0.241,0.41768 0.853,0.58431 1.489,0.62496 2.215,0.14159 z m 16.957,-0.0652 c 0.914,-0.48748 0.958,-1.85872 0.362,-11.13587 -0.42,-6.53311 -1.18,-8.60898 -1.304,-3.5624 -0.05,1.84936 -0.132,3.90287 -0.193,4.56336 -0.477,5.20574 -0.594,8.11878 -0.37,9.24679 0.291,1.4679 0.352,1.5038 1.505,0.88812 z m -26.267,-4.37068 c 0.623,-2.46877 0.63,-2.88212 0.04,-2.88212 -0.376,0 -0.805,-0.31575 -0.954,-0.70167 -0.257,-0.66825 3.624,-12.97721 4.676,-14.83197 0.721,-1.27113 3.788,-13.05299 3.771,-14.48843 0,-0.59112 -1.65,3.39394 -2.872,6.96512 -0.498,1.45307 -1.468,4.26314 -2.156,6.24459 -0.688,1.98146 -1.91,6.08848 -2.717,9.12671 -0.806,3.03824 -1.685,6.28062 -1.953,7.2053 -0.268,0.92468 -0.591,2.70799 -0.718,3.96292 -0.22,2.16906 -0.172,2.28167 0.96,2.28167 1.054,0 1.275,-0.33202 1.919,-2.88212 z m 6.656,-3.993 c -0.491,-0.4891 -1.502,3.38447 -1.444,5.52669 0.03,1.23797 0.242,0.84668 0.94,-1.77276 0.494,-1.84876 0.72,-3.53802 0.504,-3.75393 z m -14.639,2.13434 c 0.925,-2.01597 2.126,-4.63811 2.671,-5.82699 0.544,-1.18887 1.536,-3.35046 2.205,-4.80353 1.137,-2.47355 1.771,-6.44739 0.947,-5.93928 -0.564,0.34762 -7.269,14.4747 -8.238,17.3565 -0.836,2.48658 -0.739,3.78648 0.238,3.18405 0.273,-0.16794 1.252,-1.95478 2.177,-3.97075 z m 12.03,-0.37226 c 0.557,-1.81123 1.497,-5.34665 2.089,-7.85649 2.073,-8.78868 4.14,-15.38235 7.19,-22.92774 1.075,-2.66049 1.955,-5.26388 1.955,-5.78531 0,-1.03143 1.059,-4.27878 2.164,-6.63362 0.681,-1.45186 1.327,-4.49561 2.896,-13.64936 0.431,-2.50985 1.202,-6.41115 1.714,-8.66956 1.348,-5.9461 1.194,-7.12455 -0.468,-3.57945 -0.95,2.02825 -1.207,3.06463 -0.867,3.49814 0.467,0.59571 -0.13,3.52112 -1.111,5.4357 -3.3,6.4454 -11.147,30.14893 -11.036,33.33255 0.04,1.13535 0.333,0.41327 3.789,-9.35034 2.447,-6.91028 3.846,-9.67387 3.169,-6.25644 -0.528,2.66025 -2.007,7.3303 -3.056,9.64546 -0.529,1.16775 -1.669,4.33882 -2.534,7.04681 -1.236,3.87144 -1.759,4.92362 -2.449,4.92362 -0.951,0 -1.209,0.77067 -0.354,1.05497 0.57,0.18975 0.315,1.30348 -2.569,11.19404 -2.618,8.97774 -3.391,12.43057 -2.896,12.92507 0.545,0.54288 1.289,-0.82007 2.374,-4.34805 z m -16.669,2.98216 c -0.418,-0.50221 -0.434,-0.95088 -0.06,-1.64966 0.283,-0.52791 0.515,-1.34898 0.515,-1.8246 0,-0.47562 -0.521,0.10461 -1.157,1.28939 -1.267,2.36027 -1.216,2.87469 0.281,2.87469 0.809,0 0.887,-0.1282 0.42,-0.68982 z m 8.744,-3.68117 c 0.874,-3.25481 1.091,-5.23569 0.383,-3.4839 -0.23,0.5674 -0.668,1.18565 -0.973,1.37389 -0.554,0.3415 -2.401,4.24731 -2.401,5.07675 0,0.24064 0.487,0.36332 1.083,0.27263 0.885,-0.13464 1.235,-0.72883 1.908,-3.23937 z m -12.088,2.03533 c 0.432,-0.45013 2.62,-4.74745 3.825,-7.51158 0.576,-1.32097 2.951,-6.29262 5.277,-11.04812 2.326,-4.7555 4.604,-9.83523 5.062,-11.2883 0.457,-1.45307 1.756,-5.01969 2.887,-7.92583 1.13,-2.90614 2.216,-5.82428 2.414,-6.48477 0.197,-0.66048 0.841,-2.28167 1.431,-3.60265 0.591,-1.32097 1.462,-3.48256 1.937,-4.80353 0.475,-1.32097 1.38,-3.56333 2.011,-4.98302 0.631,-1.41969 1.062,-2.66686 0.957,-2.77149 -0.2,-0.19903 -2.794,4.87336 -3.66,7.15407 -0.275,0.72653 -0.777,1.32194 -1.115,1.32313 -0.365,0.001 -0.649,0.69526 -0.702,1.71726 -0.05,0.94332 -0.411,2.20634 -0.806,2.80671 -0.394,0.60038 -1.285,2.47556 -1.979,4.16706 -0.694,1.69151 -1.455,3.50778 -1.69,4.03617 -0.235,0.52839 -1.113,2.90614 -1.951,5.28389 -0.837,2.37775 -2.043,5.657 -2.68,7.28722 -0.637,1.63023 -1.158,3.0888 -1.158,3.24127 0,0.15248 -0.743,1.3091 -1.652,2.57027 -1.516,2.10492 -6.34,11.68691 -8.943,17.76393 -1.142,2.66402 -1.385,2.8688 -2.31,1.94543 -0.715,-0.71311 -0.749,-0.15848 -0.07,1.11144 0.372,0.69379 0.797,0.86611 1.565,0.63496 0.579,-0.17448 1.186,-0.45507 1.347,-0.62352 z m 46.896,-3.05856 -0.684,-1.5709 -0.02,2.20162 c -0.02,2.46092 0.479,3.39139 1.027,1.91262 0.212,-0.57027 0.08,-1.6221 -0.324,-2.54334 z m -51.373,-0.97109 c 0.951,-2.15485 3.678,-6.95296 11.328,-19.93402 0.817,-1.38702 1.788,-2.52186 2.158,-2.52186 0.386,0 0.559,-0.29335 0.407,-0.68987 -0.146,-0.37943 0.164,-1.23421 0.688,-1.8995 0.525,-0.6653 1.466,-2.57049 2.091,-4.23375 0.625,-1.66327 1.703,-4.4221 2.395,-6.13074 0.692,-1.70864 1.19,-3.31284 1.105,-3.56489 -0.25,-0.74843 -5.635,10.14079 -5.635,11.39486 0,0.63333 -0.404,1.66701 -0.898,2.29708 -0.494,0.63007 -1.491,2.33445 -2.216,3.78752 -1.325,2.65807 -1.788,3.40381 -7.648,12.31503 -1.762,2.67826 -3.203,5.01235 -3.203,5.18687 0,0.17452 -0.758,1.5 -1.685,2.94551 -1.904,2.96933 -2.046,3.57052 -0.843,3.56962 0.554,-4.2e-4 1.224,-0.86473 1.956,-2.52186 z m -5.057,1.04349 c 0.19,-0.72507 0.08,-0.92736 -0.418,-0.73842 -0.374,0.14313 -0.887,-0.12663 -1.141,-0.59946 -0.342,-0.6389 -0.234,-1.05321 0.421,-1.61325 0.486,-0.41446 2.121,-3.09982 3.634,-5.96746 1.514,-2.86764 3.596,-6.44624 4.628,-7.95245 1.032,-1.50621 1.876,-2.93178 1.876,-3.16794 0,-0.23615 0.433,-0.82061 0.963,-1.2988 0.53,-0.47818 0.963,-1.18789 0.963,-1.57712 0,-0.94597 2.844,-5.86835 3.391,-5.86835 0.237,0 0.322,-0.2832 0.189,-0.62934 -0.133,-0.34613 0.262,-1.37289 0.877,-2.28168 1.213,-1.78903 7.544,-12.53716 9.521,-16.16145 1.264,-2.31552 2.394,-3.19055 2.394,-1.85263 0,0.42397 -0.512,1.57682 -1.138,2.56189 -1.644,2.5868 -5.522,9.12027 -6.907,11.63826 -0.655,1.18888 -1.236,2.73555 -1.292,3.43706 -0.09,1.13668 -3.452,6.6658 -9.137,15.02713 -3,4.41344 -8.487,15.54986 -7.54,15.30265 0.718,-0.18715 2.08,-2.18202 4.741,-6.94176 0.54,-0.96577 2.221,-3.55153 3.736,-5.74614 1.516,-2.19461 3.678,-6.05185 4.805,-8.57166 1.128,-2.5198 2.889,-6.09456 3.915,-7.94392 1.867,-3.3676 3.31,-6.51448 3.193,-6.96512 -0.03,-0.1321 0.108,-0.34826 0.316,-0.48036 0.209,-0.13209 1.232,-1.86137 2.275,-3.84282 1.043,-1.98146 2.874,-5.33192 4.07,-7.44548 1.195,-2.11355 3.426,-6.32865 4.958,-9.36689 1.531,-3.03823 3.163,-6.06445 3.626,-6.72494 0.463,-0.66049 1.132,-2.01148 1.486,-3.00221 0.354,-0.99073 0.925,-1.80132 1.269,-1.80132 0.743,0 0.772,0.21746 0.181,1.32749 -2.193,4.11729 -3.797,7.73104 -3.544,7.98313 0.168,0.1685 -0.09,0.59354 -0.568,0.94453 -0.655,0.47736 -0.757,0.84879 -0.406,1.47405 0.391,0.69639 0.609,0.44877 1.31,-1.48374 1.671,-4.60598 1.872,-5.00546 2.755,-5.47719 0.494,-0.26339 0.905,-0.95765 0.915,-1.54279 0,-0.58514 0.326,-1.60429 0.705,-2.26478 0.912,-1.59138 0.9,-3.19148 -0.03,-3.54592 -0.504,-0.19308 -1.013,0.19771 -1.565,1.20072 -0.449,0.81782 -2.27,3.65992 -4.046,6.31577 -1.776,2.65586 -3.363,5.44018 -3.528,6.1874 -0.164,0.74721 -0.904,1.84761 -1.644,2.44533 -0.739,0.59773 -4.321,5.51803 -7.959,10.93401 -3.639,5.41598 -6.756,9.95532 -6.928,10.08742 -0.173,0.1321 -1.348,1.96945 -2.613,4.083 -1.264,2.11355 -1.76,3.2028 -1.101,2.42054 1.66,-1.97148 2.14,-1.1582 0.622,1.05332 -1.225,1.78469 -4.713,7.61153 -10.06,16.80552 -1.503,2.58444 -3.2,5.88786 -3.771,7.34093 -0.571,1.45307 -1.367,2.82664 -1.768,3.05239 -0.599,0.33625 -0.483,0.56869 0.641,1.28586 1.816,1.15942 2.41,1.14787 2.724,-0.053 z m 34.23,-6.68701 c 0.694,-2.50984 1.497,-5.33152 1.785,-6.27038 0.288,-0.93887 0.445,-2.23582 0.348,-2.88212 -0.172,-1.15278 -3.199,8.68175 -3.48,11.30613 -0.07,0.66571 -0.273,1.35414 -0.449,1.52985 -0.176,0.17571 -0.321,0.65091 -0.321,1.05601 0,1.65229 0.922,-0.40989 2.117,-4.73949 z m -37.85,2.28168 c 2.066,-4.00047 4.021,-7.33765 4.854,-8.28502 1.502,-1.70975 4.048,-6.98736 3.217,-6.66926 -1.1,0.42084 -0.934,-0.8502 0.359,-2.75176 0.609,-0.89549 1.231,-1.95241 1.384,-2.3487 0.152,-0.3963 1.499,-2.55789 2.993,-4.80354 1.493,-2.24565 2.927,-4.40724 3.187,-4.80353 0.26,-0.39629 2.113,-3.09828 4.119,-6.00441 7.098,-10.28486 11.119,-16.34355 11.465,-17.27437 0.593,-1.59309 6.7,-11.00236 7.869,-12.12433 0.606,-0.58182 1.102,-1.19025 1.102,-1.35207 0,-0.47797 4.958,-8.42944 5.442,-8.72795 0.244,-0.15043 0.588,-0.0411 0.764,0.24303 0.206,0.33222 0.573,0.35681 1.029,0.0689 0.596,-0.376 0.575,-0.44882 -0.133,-0.455 -0.463,-0.004 -0.842,-0.32818 -0.842,-0.7203 0,-0.86905 2.855,-4.09651 2.875,-3.24997 0,0.33025 -0.203,0.60044 -0.468,0.60044 -0.265,0 -0.481,0.43731 -0.481,0.97178 0,0.92616 0.06,0.93484 1.204,0.18494 0.84,-0.54925 1.203,-1.22106 1.203,-2.22474 0,-1.29389 0.121,-1.4077 1.204,-1.13649 0.662,0.16577 1.204,0.0988 1.204,-0.14881 0,-0.24762 0.125,-0.77475 0.277,-1.17139 0.197,-0.51024 -0.354,-1.00001 -1.883,-1.67454 -3.374,-1.489 -4.172,-1.67203 -4.175,-0.95762 0,0.34805 -0.705,1.40119 -1.565,2.34031 -0.859,0.93913 -2.171,2.59036 -2.915,3.66941 -0.744,1.07905 -2.152,2.69388 -3.13,3.58852 -0.977,0.89463 -2.904,2.86406 -4.281,4.37651 -1.376,1.51244 -2.731,2.7499 -3.009,2.7499 -0.953,0 -0.506,-1.20386 0.959,-2.58324 0.805,-0.75858 1.376,-1.46737 1.268,-1.57509 -0.372,-0.37126 -10.828,10.78589 -23.68,25.26728 -2.648,2.98429 -7.665,8.37217 -11.148,11.97308 -3.483,3.60091 -8.025,8.35146 -10.094,10.55679 -2.068,2.20532 -4.635,4.63272 -5.705,5.39422 -4.152,2.95574 -4.736,3.60331 -4.181,4.63641 0.281,0.52512 1.025,1.29008 1.652,1.69993 1.281,0.83731 0.905,1.20948 7.02,-6.94642 1.524,-2.03245 3.95,-5.04613 5.39,-6.69706 4.584,-5.252 12.533,-14.01451 15.193,-16.74754 1.414,-1.45307 2.768,-2.8581 3.009,-3.12229 3.24,-3.55134 4.93,-5.0717 5.349,-4.81319 0.549,0.33816 -2.322,4.13297 -4.027,5.32474 -0.543,0.37913 -0.708,0.68933 -0.367,0.68933 0.73,0 2.84,-2.13122 11.688,-11.80565 3.606,-3.94257 7.614,-8.26418 8.908,-9.60359 4.097,-4.24146 8.226,-9.01315 9.912,-11.45521 1.646,-2.38516 3.005,-3.59121 3.496,-3.10169 0.578,0.57603 -0.377,3.22355 -1.353,3.75596 -0.569,0.31002 -1.974,1.84784 -3.122,3.41739 -1.148,1.56954 -2.254,2.85372 -2.457,2.85372 -0.93,0 -9.414,11.97297 -11.295,15.94006 -0.672,1.4178 -1.624,3.00798 -2.115,3.53374 -0.491,0.52575 -1.482,1.92532 -2.202,3.11015 -1.413,2.3269 -1.513,2.46361 -7.367,10.12276 -2.161,2.82681 -4.192,5.64886 -4.513,6.27122 -0.322,0.62236 -1.072,1.67196 -1.668,2.33244 -0.595,0.66049 -2.032,3.03824 -3.191,5.28389 -1.16,2.24565 -2.236,4.19108 -2.392,4.32318 -0.156,0.13209 -2.047,2.61792 -4.202,5.52406 -2.156,2.90613 -4.322,5.82428 -4.815,6.48477 -0.492,0.66048 -1.493,2.22763 -2.224,3.48256 -1.297,2.22908 -1.727,2.59274 -2.341,1.9806 -0.517,-0.5166 2.983,-6.32238 4.114,-6.82417 0.199,-0.0881 0.362,-0.4138 0.362,-0.72385 0,-0.31006 1.516,-2.49082 3.37,-4.84614 1.854,-2.35532 3.371,-4.39031 3.371,-4.5222 0,-0.1319 -0.359,-0.63511 -0.797,-1.11825 -0.752,-0.82869 -0.729,-0.87844 0.403,-0.87844 0.988,0 1.737,-0.82625 4.249,-4.68345 1.677,-2.57589 5.311,-7.70967 8.075,-11.40839 3.7,-4.95168 4.821,-6.76589 4.252,-6.88025 -0.425,-0.0854 -0.773,-0.37855 -0.773,-0.65141 0,-0.48408 2.234,-3.51586 4.008,-5.43787 0.487,-0.52839 1.12,-1.39303 1.407,-1.92142 0.479,-0.8841 0.452,-0.90394 -0.344,-0.24881 -2.387,1.96519 -13.416,13.55136 -18.755,19.70312 -16.182,18.64376 -17.616,20.35203 -17.616,20.99151 0,0.24455 -0.62,1.03743 -1.378,1.76194 -1.153,1.10226 -1.327,1.5678 -1.064,2.8519 0.173,0.84403 0.469,1.48056 0.656,1.41452 0.188,-0.066 0.559,-0.12009 0.823,-0.12009 0.265,0 0.482,-0.36015 0.482,-0.80032 0,-0.44018 0.334,-1.1427 0.742,-1.56115 0.408,-0.41846 1.546,-2.09684 2.528,-3.72974 0.982,-1.6329 2.978,-4.32503 4.434,-5.98252 3.795,-4.31829 7.692,-8.60795 9.239,-10.16914 0.734,-0.74112 2.151,-2.36232 3.15,-3.60265 0.999,-1.24033 1.933,-2.36322 2.075,-2.49532 0.142,-0.1321 2.158,-2.45581 4.48,-5.1638 3.965,-4.62311 5.133,-5.62784 5.133,-4.4151 0,0.66963 -5.566,7.75218 -8.847,11.25773 -0.496,0.52971 -1.48,1.71967 -2.187,2.64435 -0.707,0.92468 -3.335,3.81194 -5.84,6.41613 -2.505,2.60419 -4.858,5.30618 -5.229,6.00441 -0.371,0.69824 -1.401,2.11903 -2.287,3.15731 -0.887,1.03828 -1.613,2.09577 -1.613,2.34998 0,0.2542 -0.953,1.57567 -2.119,2.93659 -1.687,1.97047 -2.068,2.73919 -1.87,3.77453 0.338,1.76322 0.698,1.62322 1.767,-0.68642 0.895,-1.93484 6.888,-10.20169 8.92,-12.30397 0.985,-1.01936 1.97,-1.42001 1.97,-0.80137 0,0.15368 -0.73,1.18044 -1.622,2.28168 -2.061,2.54476 -6.564,8.88471 -6.564,9.24134 0,0.14877 -0.546,0.98433 -1.213,1.8568 -1.265,1.65391 -1.229,2.62463 0.157,4.23392 0.773,0.89799 2.019,1.13743 2.019,0.388 0,-0.61737 3.774,-6.70843 5.076,-8.19374 0.58,-0.66049 2.859,-3.90287 5.066,-7.2053 2.206,-3.30243 4.078,-6.09448 4.158,-6.20456 0.08,-0.11009 0.293,-0.0536 0.472,0.12546 0.458,0.45621 -1.237,3.32637 -6.113,10.35168 -2.311,3.33026 -4.663,6.96508 -5.227,8.07738 -2.081,4.10758 -0.777,3.77554 1.957,-0.49814 0.874,-1.36672 1.847,-2.80917 2.162,-3.20546 0.315,-0.3963 1.291,-1.67628 2.169,-2.84441 1.685,-2.24197 3.214,-3.24777 2.63,-1.7301 -0.178,0.46226 -1.567,2.66207 -3.086,4.88847 -1.52,2.2264 -2.974,4.41756 -3.231,4.86923 -0.257,0.45167 -0.961,1.62718 -1.565,2.61225 -1.273,2.07721 -1.317,2.29197 -0.471,2.29197 0.344,0 1.101,-0.91867 1.681,-2.0415 z m 21.769,-55.06192 c 0,-0.34518 0.46,-1.2021 1.023,-1.90426 l 1.023,-1.27664 -0.353,1.20088 c -0.428,1.46276 -1.693,2.94123 -1.693,1.98002 z m 2.498,-3.77583 c 0.09,-0.45931 0.556,-0.91093 1.039,-1.0036 0.751,-0.14431 0.799,-0.0244 0.338,0.8351 -0.651,1.21494 -1.601,1.33115 -1.377,0.1685 z m 2.363,-2.88676 c 0.631,-1.6566 1.832,-3.00308 2.677,-3.00308 0.948,0 0.819,0.33918 -0.917,2.42541 -1.84,2.21142 -2.46,2.41492 -1.76,0.57767 z m 3.807,-4.39275 c 0,-0.23593 0.314,-0.54916 0.697,-0.69607 0.467,-0.17852 0.609,-0.0363 0.43,0.42896 -0.292,0.75979 -1.127,0.95768 -1.127,0.26711 z m -17.101,65.45816 c 0.401,-0.95695 0.729,-1.86968 0.729,-2.0283 0,-0.53548 -1.313,1.59778 -1.653,2.6874 -0.539,1.72331 0.124,1.25005 0.924,-0.6591 z m 49.886,0.24849 c -0.254,-0.6328 -0.476,-0.89802 -0.492,-0.58938 -0.04,0.74964 0.52,2.17192 0.761,1.93107 0.106,-0.10514 -0.02,-0.7089 -0.269,-1.34169 z m -36.454,0.26557 c 0.165,-0.42747 0.08,-0.62029 -0.189,-0.452 -0.262,0.16141 -0.476,0.49688 -0.476,0.74548 0,0.69095 0.345,0.5387 0.665,-0.29348 z m 5.079,-1.32437 c 0.02,-0.21373 -0.182,-0.25502 -0.447,-0.0917 -0.265,0.16328 -0.467,0.77048 -0.448,1.34932 0.03,1.01469 0.05,1.01798 0.448,0.0917 0.227,-0.52839 0.429,-1.13558 0.447,-1.34932 z m 10.853,-8.91384 c -0.676,-0.67433 -1.572,0.75861 -2.104,3.36686 -1.159,5.67631 -1.034,5.95019 0.629,1.37593 0.912,-2.50782 1.576,-4.64207 1.475,-4.74279 z m 17.731,7.62074 c -0.347,-1.32171 -0.621,-1.20282 -0.621,0.26901 0,0.67607 0.196,1.10818 0.436,0.96022 0.24,-0.14795 0.323,-0.7011 0.185,-1.22923 z m 2.106,-0.59996 c -0.134,-0.33024 -0.243,-0.06 -0.243,0.60044 0,0.66049 0.109,0.93068 0.243,0.60044 0.133,-0.33024 0.133,-0.87064 0,-1.20088 z m -46.494,-2.40177 c 0.255,-0.46234 0.279,-0.84062 0.05,-0.84062 -0.225,0 -0.779,0.8106 -1.231,1.80133 -0.699,1.53067 -0.707,1.65698 -0.05,0.84062 0.422,-0.52839 0.976,-1.33899 1.231,-1.80133 z m 38.483,-10.14628 c -0.308,-3.99659 -0.671,-11.15574 -0.805,-15.90923 -0.134,-4.75349 -0.305,-8.70348 -0.379,-8.77775 -0.08,-0.0743 -0.465,-0.009 -0.867,0.14493 -0.809,0.30959 -2.918,11.50676 -2.982,15.83447 -0.03,2.08435 0.08,2.38157 0.858,2.24892 0.819,-0.14016 0.867,0.0991 0.574,2.88212 -0.207,1.95962 -0.159,2.80041 0.136,2.37298 0.25,-0.36409 0.696,-0.51345 0.991,-0.33191 0.294,0.18153 0.535,0.11916 0.535,-0.13861 0,-0.25777 -0.271,-0.57831 -0.602,-0.71231 -0.453,-0.18353 -0.425,-0.36623 0.116,-0.74056 0.395,-0.2733 0.89,-0.32577 1.1,-0.11659 0.21,0.20918 0.498,2.74004 0.64,5.62415 0.269,5.4313 0.634,7.4756 1.034,5.7854 0.117,-0.49472 -0.04,-4.16942 -0.349,-8.16601 z m 5.613,7.29419 c -0.154,-0.3832 -0.268,-0.26937 -0.291,0.29021 -0.02,0.50637 0.09,0.79008 0.253,0.63046 0.16,-0.15961 0.177,-0.57392 0.04,-0.92067 z m -41.352,-2.56459 c -0.148,-0.1479 -0.418,0.1187 -0.598,0.59243 -0.262,0.6846 -0.206,0.73978 0.269,0.2689 0.329,-0.32584 0.477,-0.71344 0.329,-0.86133 z m 9.242,-4.40709 c 1.192,-2.53941 2.177,-5.13788 2.19,-5.77439 0.01,-0.63651 0.232,-1.30519 0.487,-1.48596 0.256,-0.18078 0.492,-0.90701 0.526,-1.61385 0.03,-0.70684 0.41,-1.98296 0.837,-2.83583 0.426,-0.85286 0.775,-1.82943 0.775,-2.17015 0,-0.34073 0.404,-0.90195 0.897,-1.24718 0.494,-0.34522 1.712,-2.89734 2.707,-5.67138 0.996,-2.77404 2.109,-5.62741 2.474,-6.34083 0.773,-1.51167 0.878,-2.97478 0.182,-2.54571 -0.275,0.16961 -0.495,-0.28158 -0.514,-1.05244 l -0.03,-1.34932 -0.498,1.20088 c -0.274,0.66048 -0.704,1.59409 -0.955,2.07467 -0.252,0.48058 -1.43,3.50681 -2.619,6.72494 -1.189,3.21814 -2.349,6.28348 -2.579,6.81187 -1.321,3.04376 -2.931,7.7661 -4.094,12.00883 -0.434,1.58516 -1.213,3.8949 -1.731,5.13276 -1.042,2.49124 -1.107,2.80291 -0.58,2.77163 0.199,-0.0118 1.336,-2.09913 2.528,-4.63854 z m 9.149,-27.52369 c 0,-0.26419 0.338,-0.48035 0.751,-0.48035 0.413,0 0.617,0.21616 0.453,0.48035 -0.164,0.2642 -0.502,0.48035 -0.751,0.48035 -0.249,0 -0.453,-0.21615 -0.453,-0.48035 z m 13.33,27.29007 c -0.153,-0.3832 -0.268,-0.26937 -0.291,0.29021 -0.02,0.50637 0.09,0.79008 0.253,0.63046 0.16,-0.15961 0.177,-0.57392 0.04,-0.92067 z m 9.76,-9.58831 c 0.03,-4.2731 0.17,-7.94268 0.301,-8.15462 0.132,-0.21194 0.09,-5.31086 -0.101,-11.33092 -0.388,-12.46389 -1.006,-12.48878 -1.113,-0.0448 -0.04,4.57235 -0.1,8.6376 -0.125,9.03389 -0.03,0.39629 0,5.25987 0.06,10.80795 0.137,11.80034 0.878,11.56346 0.974,-0.31149 z m -26.003,2.892 c 0.03,-0.94741 1.373,-4.26152 2.078,-5.12511 0.403,-0.49368 0.586,-0.49888 0.88,-0.025 0.247,0.39899 0.483,0.14951 0.709,-0.74935 0.224,-0.88703 0.132,-1.47565 -0.269,-1.72257 -0.335,-0.20629 -0.457,-0.61894 -0.273,-0.91698 0.185,-0.29804 0.513,-0.43303 0.728,-0.29999 0.544,0.33498 1.251,-1.57746 2.66,-7.19135 1.955,-7.79475 2.22,-9.00537 2.011,-9.21333 -0.681,-0.67933 -11.502,29.09039 -11.348,31.21915 0.06,0.78747 2.795,-5.00505 2.824,-5.97542 z m 3.38,3.18372 c 0,-0.26419 -0.21,-0.15611 -0.467,0.24018 -0.257,0.39629 -0.467,0.93669 -0.467,1.20088 0,0.2642 0.21,0.15612 0.467,-0.24017 0.257,-0.39629 0.467,-0.93669 0.467,-1.20089 z m -47.517,-12.24359 c 2.174,-2.77107 7.583,-8.62371 12.019,-13.00588 7.232,-7.14432 8.864,-9.07328 7.704,-9.10595 -0.198,-0.006 -2.528,2.21039 -5.176,4.92442 -2.649,2.71403 -6.175,6.19579 -7.836,7.73724 -1.661,1.54145 -4.5,4.56731 -6.309,6.72414 -1.808,2.15682 -4.008,4.4619 -4.889,5.12238 -8.651,6.49158 -8.74,6.59979 -7.644,9.23972 l 0.614,1.47808 3.782,-4.03792 c 2.08,-2.22087 5.561,-6.30517 7.735,-9.07623 z m 59.57,12.48377 c 0,-0.26419 -0.23,-0.48035 -0.51,-0.48035 -0.281,0 -0.376,0.21616 -0.212,0.48035 0.163,0.2642 0.393,0.48035 0.509,0.48035 0.117,0 0.213,-0.21615 0.213,-0.48035 z m -2.955,-3.00221 c 0.6,-1.65121 1.833,-7.32538 2.74,-12.60927 2.107,-12.2706 2.098,-12.22216 2.596,-13.93024 0.232,-0.79258 0.4,-3.17033 0.374,-5.28389 -0.06,-4.55559 -0.102,-4.40605 -2.522,8.29383 -0.97,5.09 -2.174,10.92629 -2.675,12.96954 -0.501,2.04325 -1.136,5.44427 -1.411,7.55783 -0.275,2.11355 -0.608,4.32918 -0.74,4.92362 -0.499,2.24109 0.592,0.96233 1.638,-1.92142 z m -57.1,-3.91545 c 9.455,-9.51242 16.071,-16.45898 17.43,-18.30088 0.78,-1.05678 2.652,-3.21837 4.16,-4.80353 1.508,-1.58517 4.226,-4.61139 6.039,-6.72495 1.814,-2.11355 4.055,-4.6218 4.981,-5.57387 0.926,-0.95208 3.633,-3.84872 6.017,-6.43698 2.383,-2.58826 4.929,-5.34473 5.658,-6.12549 0.728,-0.78076 1.324,-1.54213 1.324,-1.69194 0,-0.14981 -2.962,2.62907 -6.583,6.1753 -6.22,6.09223 -8.318,8.25016 -17.011,17.49581 -1.987,2.11355 -5.656,5.78825 -8.153,8.166 -5.454,5.19213 -9.579,9.48361 -10.6,11.02708 -0.616,0.93076 -6.066,7.78372 -9.145,11.49933 -0.715,0.86382 -0.698,0.881 0.345,0.335 0.605,-0.31653 3.096,-2.58493 5.538,-5.04088 z m 60.406,4.70604 c -0.16,-0.15962 -0.575,-0.17669 -0.923,-0.0379 -0.384,0.15334 -0.27,0.26717 0.291,0.29022 0.508,0.0208 0.792,-0.0927 0.632,-0.25229 z m 7.682,-5.08374 c -0.153,-0.3832 -0.268,-0.26937 -0.291,0.29021 -0.02,0.50637 0.09,0.79008 0.253,0.63046 0.16,-0.15961 0.177,-0.57392 0.04,-0.92067 z m -72.55,-4.39674 c 0.401,-0.3063 2.716,-2.82657 5.144,-5.60061 2.428,-2.77404 6.487,-6.9667 9.021,-9.31702 2.533,-2.35033 4.606,-4.48078 4.606,-4.73434 0,-0.63316 -6.5,5.31379 -12.038,11.01236 -2.516,2.58928 -6.525,6.63677 -8.908,8.99443 -4.328,4.28052 -4.33,4.28373 -1.445,2.24437 1.589,-1.12326 3.218,-2.29289 3.62,-2.59919 z m 13.805,2.68548 c 3.13,-3.29725 8.769,-9.93909 10.298,-12.12892 1.335,-1.91293 1.358,-1.99582 0.198,-0.72053 -0.72,0.79258 -2.313,2.6247 -3.54,4.07138 -1.227,1.44667 -3.639,4.11478 -5.36,5.92913 -1.722,1.81436 -3.303,3.6029 -3.515,3.97454 -0.696,1.22056 0.178,0.7079 1.919,-1.1256 z m -20.39,-0.60044 c 0.469,-0.79259 1.048,-1.44106 1.288,-1.44106 0.239,0 4.506,-4.0553 9.483,-9.01178 4.976,-4.95648 10.438,-10.19834 12.136,-11.64857 3.332,-2.84472 3.449,-2.95578 6.973,-6.66197 1.297,-1.3631 5.087,-4.68976 8.423,-7.39259 3.336,-2.70283 8.893,-7.68337 12.349,-11.06786 3.455,-3.3845 6.491,-6.30956 6.745,-6.50013 1.488,-1.11405 6.053,-6.33496 5.124,-5.86069 -1.28,0.6542 -4.109,3.14948 -12.607,11.11978 -3.31,3.10515 -7.102,6.45942 -8.426,7.45392 -2.78,2.08788 -8.805,7.40276 -12.728,11.22905 -1.49,1.45307 -4.22,3.8689 -6.066,5.36852 -1.846,1.49962 -6.282,5.66337 -9.857,9.25279 -3.576,3.58941 -7.368,7.10522 -8.427,7.8129 -3.492,2.33263 -6.501,5.52131 -6.501,6.88931 0,2.30251 0.884,2.49626 2.091,0.45838 z m 79.347,-12.84945 c 0.04,-7.59559 -0.01,-15.64751 -0.114,-17.89316 -0.353,-7.7448 -0.212,-11.34928 0.476,-12.17683 0.567,-0.68131 0.55,-0.7927 -0.121,-0.7927 -0.817,0 -1.028,-0.55527 -0.435,-1.14659 0.191,-0.1903 0.285,-1.06913 0.208,-1.95296 -0.08,-0.88383 0.09,-1.74963 0.376,-1.924 0.282,-0.17437 0.514,-0.79658 0.514,-1.38269 0,-0.58611 0.347,-1.56004 0.771,-2.1643 0.898,-1.27894 0.89,-1.29236 -1.035,-1.65656 -2.932,-0.55502 -2.86,-1.12913 -2.185,17.43396 0.338,9.2895 0.569,19.95244 0.514,23.69543 -0.156,10.39924 -0.04,13.77055 0.484,13.77055 0.3,0 0.502,-5.09619 0.547,-13.81015 z m -78.718,4.94155 c 1.815,-1.70739 3.756,-3.34858 4.314,-3.64707 0.558,-0.2985 3.63,-3.12968 6.827,-6.29151 3.875,-3.83246 6.105,-5.69911 6.69,-5.59973 0.489,0.0831 0.827,-0.10889 0.763,-0.43408 -0.07,-0.33871 0.188,-0.46731 0.607,-0.30678 0.535,0.20469 0.637,0.0552 0.394,-0.57644 -0.226,-0.58828 -0.151,-0.74393 0.241,-0.50179 0.649,0.39961 5.985,-3.91819 5.603,-4.53372 -0.302,-0.48718 2.889,-4.08737 6.993,-7.88986 7.408,-6.8643 22.042,-21.87492 21.326,-21.87492 -0.273,0 -1.336,0.90429 -2.364,2.00952 -5.966,6.41839 -16.285,15.91111 -18.962,17.44479 -0.461,0.26419 -2.751,2.26366 -5.088,4.44326 -2.338,2.1796 -4.443,3.96292 -4.678,3.96292 -0.558,0 -7.124,5.71759 -7.999,6.96512 -1.373,1.95748 -8.624,8.78551 -13.205,12.43325 -2.857,2.27542 -4.63,4.01422 -4.482,4.3967 0.133,0.34799 -0.07,0.89113 -0.451,1.20699 -0.766,0.63473 -0.94,1.89772 -0.261,1.89772 0.238,0 1.917,-1.39697 3.732,-3.10437 z m 75.944,-0.49828 c 0.152,-0.39629 0.07,-0.72053 -0.189,-0.72053 -0.257,0 -0.467,0.32424 -0.467,0.72053 0,0.39629 0.08,0.72053 0.189,0.72053 0.104,0 0.314,-0.32424 0.467,-0.72053 z m -80.303,-0.79489 0.917,-1.03507 -1.324,0.85014 c -1.366,0.87658 -1.624,1.21999 -0.918,1.21999 0.224,0 0.82,-0.46578 1.325,-1.03506 z m 55.959,-1.61959 c -0.148,-0.14789 -0.417,0.1187 -0.598,0.59244 -0.262,0.68459 -0.206,0.73977 0.269,0.26889 0.329,-0.32584 0.477,-0.71344 0.329,-0.86133 z m 24.437,-14.51797 c -0.297,-17.53309 -0.669,-23.46118 -1.365,-21.71218 -0.258,0.64739 -0.495,3.33867 -0.528,5.98061 -0.07,5.57783 0.584,22.80908 0.951,25.09845 0.193,1.20097 0.08,1.56115 -0.5,1.56115 -0.46,0 -0.749,0.41869 -0.744,1.0808 0,0.87023 0.1,0.94042 0.467,0.36026 0.361,-0.56568 0.528,-0.38501 0.775,0.84062 0.174,0.85863 0.513,1.56115 0.754,1.56115 0.261,0 0.338,-6.01763 0.19,-14.77086 z m -69.955,7.1426 c 2.591,-2.21751 4.593,-4.14858 4.45,-4.29127 -0.143,-0.14269 -0.854,0.29734 -1.58,0.97785 -1.657,1.55419 -2.785,2.48781 -7.545,6.2459 -2.1,1.658 -3.921,3.3288 -4.046,3.7129 -0.265,0.81703 2.193,-1.05554 8.721,-6.64538 z m 36.907,0.29187 c 0.57,-0.74141 0.552,-0.81246 -0.136,-0.54904 -0.435,0.16641 -0.79,0.6397 -0.79,1.05176 0,0.41205 0.06,0.65913 0.136,0.54905 0.08,-0.11008 0.43,-0.58338 0.79,-1.05177 z m 19.311,-2.95109 c 0.197,-0.81465 0.508,-1.91349 0.693,-2.44188 0.203,-0.58194 0,-0.4399 -0.538,0.36026 -0.845,1.27891 -1.613,1.72475 -1.613,0.93669 0,-0.21135 0.26,-0.64367 0.578,-0.96071 0.35,-0.34943 0.381,-0.57642 0.08,-0.57642 -0.275,0 -0.752,0.55057 -1.059,1.22349 -0.703,1.53813 -0.698,1.68647 0.04,1.53854 0.406,-0.0811 0.564,0.42594 0.486,1.56115 -0.1,1.44995 -0.04,1.55459 0.43,0.76065 0.3,-0.50633 0.707,-1.58712 0.903,-2.40177 z m 6.973,-8.20612 c 0.173,-1.05678 0.948,-4.35929 1.721,-7.33891 1.489,-5.74067 1.779,-7.76229 0.899,-6.25618 -0.262,0.44853 -0.675,1.74549 -0.918,2.88212 -0.498,2.33763 -0.841,3.55432 -2.816,9.99244 -0.77,2.50984 -1.532,5.31991 -1.693,6.24459 -0.268,1.53259 -0.171,1.44765 1.099,-0.96071 0.766,-1.45306 1.535,-3.50657 1.708,-4.56335 z m -63.325,4.28938 c 0,-0.1321 -0.434,-0.009 -0.963,0.27397 -0.53,0.28279 -0.963,0.62224 -0.963,0.75434 0,0.13209 0.433,0.009 0.963,-0.27398 0.529,-0.28279 0.963,-0.62224 0.963,-0.75433 z m 28.521,-2.84832 c 0.752,-0.79258 3.147,-3.25732 5.323,-5.47719 2.176,-2.21987 3.306,-3.59186 2.511,-3.04887 -2.596,1.77461 -11.326,10.28303 -11.033,10.75463 0.32,0.5173 1.131,-0.0476 3.199,-2.22857 z m 30.208,-0.65559 c -0.03,-0.62497 -1.393,2.12493 -1.391,2.81718 0,0.39629 0.318,-0.007 0.705,-0.89577 0.387,-0.88896 0.696,-1.7536 0.686,-1.92141 z m -50.302,-0.54529 c 0.163,-0.2642 0.07,-0.48036 -0.213,-0.48036 -0.28,0 -0.51,0.21616 -0.51,0.48036 0,0.26419 0.1,0.48035 0.213,0.48035 0.116,0 0.346,-0.21616 0.51,-0.48035 z m 4.094,-3.36248 c 1.117,-0.92468 3.145,-2.7261 4.506,-4.00316 2.122,-1.99104 2.246,-2.1964 0.866,-1.44106 -0.884,0.48448 -3.268,2.4601 -5.297,4.39027 -3.741,3.55981 -3.781,4.12158 -0.08,1.05395 z m 51.48,-10.56777 c 1.051,-2.76362 1.403,-5.29185 0.529,-3.79994 -0.247,0.41988 -0.666,1.73411 -0.933,2.92051 -0.266,1.18641 -0.634,2.57214 -0.818,3.07941 -0.184,0.50728 -0.21,0.81424 -0.06,0.68214 0.152,-0.1321 0.728,-1.42905 1.281,-2.88212 z m -2.408,0.43359 c 0.713,-2.37302 0.295,-3.00756 -0.962,-1.46117 -0.928,1.14261 -1.194,2.51706 -0.6,3.10911 0.642,0.64085 0.982,0.282 1.562,-1.64794 z m -27.464,-6.07544 c 0.96,-0.85737 1.484,-1.55989 1.164,-1.56115 -0.319,-0.001 -2.486,1.85475 -4.815,4.12448 -3.597,3.50486 -3.772,3.74013 -1.164,1.56115 1.688,-1.4111 3.855,-3.26711 4.815,-4.12448 z m 10.412,-3.35182 c 3.443,-3.32347 7.181,-6.90965 8.307,-7.96928 1.125,-1.05963 2.046,-2.10216 2.046,-2.31673 0,-0.21457 -0.639,-0.71991 -1.42,-1.12298 -0.782,-0.40307 -1.635,-1.11114 -1.897,-1.57349 -0.425,-0.75179 -0.682,-0.63996 -2.431,1.05819 -1.076,1.04434 -1.956,2.01706 -1.956,2.16159 0,0.57926 2.612,0.36725 3.244,-0.2634 0.372,-0.37109 0.865,-0.67471 1.095,-0.67471 1.601,0 0.03,2.0147 -7.307,9.40204 -7.948,7.99594 -10.396,10.80836 -7.335,8.42652 0.767,-0.59679 4.211,-3.80428 7.654,-7.12775 z m -7.197,-2.90922 c -0.25,-0.24935 -5.473,4.12989 -6.578,5.51461 -0.369,0.46276 1.013,-0.53669 3.07,-2.22101 2.057,-1.68432 3.636,-3.16644 3.508,-3.2936 z m 19.634,0.91093 c -0.187,-0.27474 -3.665,2.8366 -4.457,3.98787 -0.379,0.54982 0.497,-0.0811 1.947,-1.40209 1.449,-1.32097 2.579,-2.48457 2.51,-2.58578 z m 4.113,-3.17846 c 0.08,-0.61985 -0.524,-0.80487 -1.141,-0.34829 -0.265,0.19614 -1.023,0.98314 -1.685,1.7489 l -1.204,1.39228 1.983,-1.15627 c 1.091,-0.63594 2.012,-1.37242 2.047,-1.63662 z m -20.838,0.17028 c 0.911,-1.02344 0.91,-1.02676 -0.139,-0.47777 -1.17,0.6124 -1.891,1.50838 -1.213,1.50838 0.239,0 0.848,-0.46377 1.352,-1.03061 z m 35.491,-0.29037 c 0.318,-0.72653 1.459,-2.61792 2.535,-4.20309 2.564,-3.77764 5.872,-11.87588 5.413,-13.25127 -0.185,-0.55255 -8.063,14.5915 -8.955,17.21419 -0.661,1.94272 0.174,2.14186 1.007,0.24017 z m -0.66,-4.10278 c 3.635,-7.81623 4.36,-9.46719 4.158,-9.46719 -0.198,0 -3.644,5.96343 -6.43,11.127 -0.807,1.49646 -1.356,2.83255 -1.219,2.96911 0.668,0.66603 1.61,-0.58308 3.491,-4.62892 z m -16.578,3.02199 c 0.479,-0.52839 0.629,-0.96071 0.332,-0.96071 -0.297,0 -0.771,0.43232 -1.055,0.96071 -0.283,0.52839 -0.433,0.96071 -0.332,0.96071 0.101,0 0.575,-0.43232 1.055,-0.96071 z m 12.207,-0.36026 c 0.631,-1.65297 4.174,-8.12283 7.585,-13.85192 1.429,-2.40072 2.599,-4.60091 2.599,-4.88931 0,-0.2884 0.34,-0.86367 0.756,-1.27837 0.686,-0.6851 0.639,-0.79829 -0.522,-1.23863 -1.615,-0.61251 -2.399,-0.16703 -1.422,0.80786 0.646,0.64403 0.656,0.88197 0.07,1.7707 -0.783,1.19574 -3.335,5.68931 -5.112,9.00015 -0.681,1.26849 -2.14,3.81625 -3.242,5.66168 -1.102,1.84543 -2.146,3.80161 -2.32,4.34707 -0.492,1.54804 1.005,1.24071 1.604,-0.32923 z m -0.01,-12.57976 c 4.295,-8.48946 5.865,-10.9104 5.865,-9.04598 0,0.36886 -0.513,1.73787 -1.14,3.04224 -1.999,4.16052 -1.875,4.9239 0.152,0.93582 2.223,-4.37209 2.307,-4.82539 1.02,-5.51247 -1.348,-0.7194 -1.311,-0.74918 -2.81,2.26478 -0.756,1.51912 -3.04,5.71397 -5.076,9.3219 -2.037,3.60792 -3.703,6.72521 -3.703,6.92729 0,0.20209 -0.351,0.75469 -0.78,1.22799 -0.47,0.51803 -0.65,1.20101 -0.452,1.71592 0.297,0.77176 0.42,0.73828 1.264,-0.34237 0.515,-0.65876 3.062,-5.39957 5.66,-10.53512 z m -6.719,6.57534 c 0.832,-1.65121 2.123,-4.083 2.87,-5.40397 2.967,-5.25298 6.282,-11.76515 6.429,-12.62929 0.09,-0.50226 -0.142,-1.27064 -0.506,-1.70752 -0.727,-0.87361 -1.987,-1.07277 -1.987,-0.31397 0,0.2642 0.345,0.48036 0.768,0.48036 0.985,0 -0.112,1.93763 -6.848,12.09628 -2.748,4.14311 -4.995,7.96919 -4.995,8.5024 0,0.9389 1.125,1.93343 2.221,1.96331 0.294,0.008 1.216,-1.33639 2.048,-2.9876 z m -6.042,-3.30526 c 0.43,-1.09136 2.445,-4.44542 4.479,-7.45348 2.034,-3.00805 3.587,-5.57947 3.452,-5.71427 -0.614,-0.61284 -6.238,6.2652 -7.841,9.59006 -0.947,1.96451 -1.985,3.66022 -2.307,3.76826 -0.443,0.14878 -0.425,0.39015 0.08,0.99507 0.973,1.17617 1.277,1.00765 2.141,-1.18564 z m 3.27,-1.65812 c 3.548,-5.30799 4.118,-6.29948 3.196,-5.5607 -0.778,0.62307 -5.657,7.91596 -5.657,8.456 0,0.63598 0.472,0.0818 2.461,-2.8953 z m -5.839,-0.34885 c 0,-0.21374 -0.209,-0.25502 -0.474,-0.0917 -0.265,0.16328 -0.478,0.66239 -0.474,1.10914 0,0.70001 0.07,0.71269 0.474,0.0917 0.257,-0.39629 0.47,-0.89541 0.474,-1.10914 z m 17.731,-1.54551 c -0.148,-0.1479 -0.417,0.1187 -0.598,0.59243 -0.261,0.6846 -0.206,0.73978 0.27,0.2689 0.329,-0.32584 0.477,-0.71344 0.328,-0.86133 z m -16.698,-0.34756 c 0.523,-0.98002 0.502,-1.01933 -0.224,-0.42153 -0.441,0.36259 -0.801,0.84895 -0.801,1.08079 0,0.73373 0.428,0.4585 1.025,-0.65926 z m 24.558,-1.44106 c 0.523,-0.98002 0.502,-1.01933 -0.224,-0.42153 -0.441,0.36259 -0.801,0.84895 -0.801,1.08079 0,0.73373 0.428,0.4585 1.025,-0.65926 z m -13.85,-5.1535 c 1.456,-2.1946 1.699,-3.09577 0.377,-1.39605 -1.015,1.30441 -2.128,3.30717 -1.838,3.30717 0.106,0 0.764,-0.86 1.461,-1.91112 z m 2.151,-8.75718 c 0.922,-2.18121 -6.301,4.41921 -7.732,7.06565 -0.286,0.52839 1.301,-0.75977 3.526,-2.86256 2.225,-2.1028 4.118,-3.99419 4.206,-4.20309 z m 18.266,2.02194 c 0.443,-0.66048 1.595,-2.28168 2.559,-3.60265 2.233,-3.05937 5.346,-8.98503 6.159,-11.72508 0.345,-1.16491 0.934,-2.42327 1.308,-2.79634 1.089,-1.08659 0.791,-1.92541 -0.765,-2.15323 -0.794,-0.11632 -1.444,-0.19185 -1.444,-0.16782 0,0.024 -0.422,1.22949 -0.938,2.67883 -0.715,2.01083 -0.758,2.3791 -0.182,1.55437 1.047,-1.49754 1.777,-1.37021 1.378,0.24018 -0.707,2.85609 -6.225,12.59875 -8.548,15.09294 -1.382,1.48465 -2.714,3.67175 -2.417,3.96844 0.315,0.31389 1.344,-0.78654 2.89,-3.08964 z m -2.995,0.11143 c 1.788,-2.18439 3.072,-4.0617 4.51,-6.5962 l 1.09,-1.92141 -1.059,1.20088 c -0.583,0.66049 -2.568,2.78522 -4.412,4.72162 l -3.352,3.52074 -1.654,-0.78307 c -1.459,-0.69063 -1.591,-0.90023 -1.122,-1.77546 0.417,-0.77728 0.37,-1.15443 -0.217,-1.74006 -0.678,-0.67667 -0.798,-0.61935 -1.264,0.60358 -0.603,1.58116 0.07,2.58109 2.558,3.80527 2.315,1.13906 3.314,0.92884 4.922,-1.03589 z m -11.614,-2.23871 c -0.51,-0.37196 -1.035,-0.56821 -1.168,-0.43611 -0.132,0.13209 0.177,0.5445 0.687,0.91647 0.51,0.37196 1.035,0.56821 1.168,0.43611 0.132,-0.1321 -0.177,-0.54451 -0.687,-0.91647 z m 3.165,-0.97872 c 0,-1.20786 1.591,-4.0993 2.256,-4.0993 0.745,0 0.843,0.77463 0.151,1.20089 -0.774,0.477 -0.555,1.2014 0.361,1.19493 0.837,-0.006 2.08,-1.62706 4.181,-5.45048 0.601,-1.09397 1.861,-3.39408 2.801,-5.11134 0.939,-1.71726 2.269,-4.09501 2.955,-5.28389 1.321,-2.2886 1.569,-3.36247 0.777,-3.36247 -0.264,0 -0.481,0.2702 -0.48,0.60044 0,0.33025 -0.939,2.00548 -2.088,3.72274 -1.148,1.71726 -3.115,4.79753 -4.369,6.84503 -1.254,2.04751 -2.481,3.72274 -2.727,3.72274 -0.859,0 -0.437,-1.55825 0.997,-3.6779 0.795,-1.17479 1.8,-2.82733 2.232,-3.67231 1.248,-2.43553 4.121,-6.7629 4.93,-7.42535 0.662,-0.54163 0.653,-0.69071 -0.08,-1.42047 -0.969,-0.96642 -1.224,-0.75461 -3.025,2.50596 -0.729,1.32098 -2.403,4.02296 -3.721,6.00442 -3.924,5.90143 -7.069,12.78161 -6.363,13.92085 0.451,0.72735 1.21,0.59276 1.21,-0.21449 z m 2.407,-5.06 c 0,-0.2642 0.217,-0.48036 0.482,-0.48036 0.265,0 0.481,0.21616 0.481,0.48036 0,0.26419 -0.216,0.48035 -0.481,0.48035 -0.265,0 -0.482,-0.21616 -0.482,-0.48035 z m -4.341,2.34274 c 0.02,-1.65154 4.801,-10.91441 6.717,-13.00089 0.415,-0.45183 1.369,-1.96733 2.121,-3.36778 l 1.367,-2.54626 -2.205,2.40177 c -5.48,5.96959 -10.523,15.87186 -9.184,18.03336 0.419,0.6763 1.172,-0.29099 1.184,-1.5202 z m 7.712,0.53938 c 0.283,-0.52839 0.433,-0.96071 0.332,-0.96071 -0.1,0 -0.575,0.43232 -1.054,0.96071 -0.48,0.52838 -0.629,0.9607 -0.333,0.9607 0.297,0 0.771,-0.43232 1.055,-0.9607 z m 5.85,-2.82269 c 0.788,-1.16493 2.53,-4.30281 3.871,-6.97307 1.34,-2.67026 2.675,-5.00538 2.965,-5.18916 0.63,-0.3989 0.415,-0.6432 -0.929,-1.05428 -0.862,-0.26355 -1.224,0.14382 -2.563,2.88478 -0.858,1.75542 -2.969,5.46474 -4.69,8.24295 -2.35,3.79222 -2.974,5.14754 -2.504,5.43743 0.778,0.47971 1.949,-0.53886 3.85,-3.34865 z m -12.889,-7.01378 c 1.496,-3.04416 3,-5.53484 3.344,-5.53484 0.343,0 1.123,-0.67297 1.733,-1.4955 1.199,-1.61758 0.564,-1.40495 -1.791,0.59993 -1.966,1.67425 -5.151,6.92083 -6.066,9.99478 -0.402,1.35274 -0.553,2.34948 -0.335,2.21499 0.218,-0.13449 1.62,-2.7352 3.115,-5.77936 z m 4.575,-9.53916 c 3.218,-2.94061 3.698,-3.2196 5.056,-2.93795 l 1.501,0.3112 -1.034,-1.06482 -1.034,-1.064822 -2.154,1.478442 c -2.287,1.57001 -6.345,5.81804 -7.148,7.48428 l -0.482,0.99888 0.87,-0.97803 c 0.478,-0.53791 2.47,-2.44014 4.425,-4.22718 z m 22.274,-0.31886 c 2.722,-4.047732 2.975,-6.149267 0.302,-2.51159 -0.724,0.98508 -2.007,2.62153 -2.851,3.63655 -1.505,1.80971 -1.513,1.84229 -0.382,1.68123 0.769,-0.10937 1.748,-1.04689 2.931,-2.80619 z m -4.883,-0.0588 c 0,-0.23185 -0.325,-0.42154 -0.722,-0.42154 -0.933,0 -0.918,-0.9211 0.04,-2.41497 l 0.761,-1.187678 -1.008,1.141538 c -1.336,1.51293 -1.798,3.40789 -0.957,3.92625 0.666,0.41018 1.887,-0.26548 1.887,-1.0436 z m -7.754,-2.70322 c -2.153,-2.785906 -2.81,-3.437641 -3.061,-3.032787 -0.32,0.515983 2.471,3.873407 3.22,3.873407 0.272,0 0.202,-0.37352 -0.159,-0.84062 z m 11.686,-10.207502 c 1.739,-2.509845 3.429,-5.076256 3.756,-5.703135 l 0.596,-1.13978 -1.203,0.899603 c -0.662,0.494782 -1.119,1.03723 -1.017,1.205441 0.102,0.168211 -0.137,0.572956 -0.531,0.899435 -0.395,0.326478 -0.717,0.793725 -0.717,1.038325 0,0.244601 -1.842,3.144463 -4.093,6.444138 -2.252,3.299675 -4.093,6.261425 -4.092,6.581665 0,0.32024 0.932,-0.822778 2.07,-2.540041 1.139,-1.717262 3.493,-5.175805 5.231,-7.685651 z m -0.09,7.106542 c 0,-0.186413 0.576,-1.159128 1.265,-2.16159 0.688,-1.002461 1.444,-2.254974 1.679,-2.783363 0.235,-0.528388 1.74,-3.419185 3.344,-6.423992 1.603,-3.004807 2.803,-5.575477 2.665,-5.712601 -0.314,-0.313759 -1.717,0.820107 -1.717,1.388013 0,0.232147 -1.084,2.084509 -2.407,4.116358 -1.672,2.564932 -2.233,3.801747 -1.837,4.045842 0.415,0.255802 0.427,0.525105 0.05,0.988622 -0.289,0.350379 -1.226,1.934006 -2.083,3.519171 -0.857,1.585166 -1.825,3.206358 -2.151,3.602649 -0.326,0.396292 -0.851,1.260927 -1.167,1.921411 -0.447,0.93507 -0.251,0.82875 0.888,-0.480351 0.805,-0.92468 1.468,-1.833756 1.476,-2.020169 z m 3.172,-0.544341 c 0.778,-1.306219 1.646,-2.61456 1.928,-2.907424 0.84,-0.870356 4.585,-8.529599 5.286,-10.810167 0.865,-2.81249 0.279,-2.092057 -2.37,2.909911 -1.212,2.288386 -2.851,5.206532 -3.642,6.484768 -0.791,1.278237 -1.836,3.080623 -2.322,4.005303 -0.486,0.92468 -1.306,2.324502 -1.823,3.110716 l -0.939,1.429484 1.234,-0.92383 c 0.679,-0.508098 1.87,-1.992543 2.648,-3.298761 z m -12.801,-1.861719 c 0.02,-0.618972 4.505,-7.762693 6.633,-10.56338 3.26,-4.291479 5.467,-7.69671 5.176,-7.987079 -0.327,-0.325756 -3.672,3.334855 -7.169,7.845562 -3.724,4.802772 -7.784,12.267254 -6.954,12.785366 0.593,0.369942 2.285,-1.151684 2.314,-2.080469 z m 2.054,0.570881 c 0.625,-0.917792 2.553,-3.722224 4.285,-6.232069 3.094,-4.483566 6.816,-10.567771 6.464,-10.567771 -0.355,0 -9.321,12.796243 -10.797,15.410143 -2.138,3.787344 -2.111,4.563659 0.05,1.389697 z m 0.266,-11.040602 c 0.716,-0.965251 2.278,-2.895171 3.469,-4.288712 4.484,-5.24314 4.837,-5.723858 4.397,-5.994949 -0.791,-0.488058 -6.943,6.610208 -9.995,11.533989 -3.088,4.980378 -3.811,6.59235 -3.315,7.392153 0.163,0.26404 1.162,-1.177627 2.219,-3.203704 1.057,-2.026077 2.508,-4.473527 3.225,-5.438777 z m 13.931,-5.090044 c -0.169,-0.169139 -0.69,-0.161113 -1.158,0.01783 -0.721,0.275962 -0.743,0.391329 -0.145,0.75987 0.738,0.455112 1.865,-0.217319 1.303,-0.777704 z m 5.429,-0.188841 c -0.397,-0.256103 -0.939,-0.465642 -1.204,-0.465642 -0.265,0 -0.156,0.209539 0.241,0.465642 0.397,0.256104 0.939,0.465643 1.204,0.465643 0.264,0 0.156,-0.209539 -0.241,-0.465643 z m -2.408,-0.960706 c -0.397,-0.256103 -0.939,-0.465642 -1.204,-0.465642 -0.264,0 -0.156,0.209539 0.241,0.465642 0.397,0.256103 0.939,0.465642 1.204,0.465642 0.265,0 0.156,-0.209539 -0.241,-0.465642 z m -2.648,-1.44106 c -0.907,-0.999438 -1.686,-1.255283 -1.686,-0.553758 0,0.223822 0.488,0.64151 1.084,0.928196 1.531,0.73642 1.581,0.705006 0.602,-0.374438 z m 9.257,-6.412377 c 1.242,-2.640575 1.463,-4.192258 0.284,-1.993804 -0.425,0.792583 -0.93,1.54914 -1.122,1.681237 -0.397,0.272718 -3.363,6.04385 -3.363,6.543141 0,0.67531 3.149,-3.995934 4.201,-6.230574 z m -5.143,4.370876 c 0.34,-0.858631 0.882,-1.885386 1.203,-2.281677 0.322,-0.396292 1.391,-2.287682 2.375,-4.203091 1.534,-2.985343 1.972,-3.484842 3.068,-3.498542 l 1.278,-0.01598 -1.137,-0.944725 c -0.625,-0.519599 -1.337,-0.944725 -1.582,-0.944725 -0.461,0 -3.914,6.78303 -4.403,8.648586 -0.164,0.623033 -0.499,0.918261 -0.819,0.720902 -0.644,-0.397243 -0.189,-3.017969 0.709,-4.085603 0.785,-0.932444 2.767,-6.295653 2.445,-6.616687 -0.136,-0.135169 -0.382,0.163455 -0.549,0.663608 -0.546,1.643506 -2.334,5.103507 -4.399,8.510478 -1.117,1.842855 -1.929,3.514155 -1.805,3.714 0.124,0.199845 0.695,0.240823 1.269,0.09106 0.806,-0.210355 0.978,-0.101514 0.755,0.478486 -0.289,0.750778 -0.02,1.325057 0.63,1.325057 0.188,0 0.621,-0.702516 0.962,-1.561148 z m 5.254,-1.080794 c 0,-0.264195 -0.424,0.06004 -0.941,0.720529 -0.518,0.660486 -0.942,1.417042 -0.942,1.681237 0,0.264194 0.424,-0.06004 0.942,-0.72053 0.517,-0.660486 0.941,-1.417042 0.941,-1.681236 z m -12.719,0.272135 c -0.175,-0.281772 -0.548,-0.512312 -0.83,-0.512312 -0.319,0 -0.282,0.275618 0.1,0.732138 0.661,0.793835 1.251,0.616681 0.733,-0.219826 z m 2.904,-0.966055 c 0,-0.702469 -0.153,-0.808086 -0.614,-0.425926 -0.338,0.279494 -0.495,0.699837 -0.35,0.934096 0.455,0.733994 0.964,0.465607 0.964,-0.50817 z m 3.86,-7.17159 c 1.302,-2.894358 1.315,-2.942437 0.769,-2.942437 -0.216,0 -0.759,0.702516 -1.207,1.561148 -0.449,0.858631 -1.346,2.425783 -1.995,3.48256 -0.649,1.056777 -1.189,2.341686 -1.2,2.855354 -0.03,1.327628 2.132,-1.621932 3.633,-4.956625 z m 7.903,5.223567 c 0,-0.264194 -0.1,-0.480353 -0.213,-0.480353 -0.116,0 -0.346,0.216159 -0.51,0.480353 -0.163,0.264194 -0.07,0.480353 0.213,0.480353 0.28,0 0.51,-0.216159 0.51,-0.480353 z m -11.772,-3.602649 c 3.33,-5.954611 3.997,-7.441898 3.13,-6.97873 -2.201,1.175121 -6.625,8.526268 -6.042,10.040826 0.364,0.947606 1.106,0.168041 2.912,-3.062096 z m 12.893,1.08828 c 0.266,-1.049939 0.251,-1.05543 -0.423,-0.155852 -0.773,1.032663 -0.934,1.911463 -0.275,1.505173 0.233,-0.143572 0.547,-0.750766 0.698,-1.349321 z m 0.322,-5.771724 c 0,-1.487879 -1.865,-3.551885 -3.665,-4.066445 -3.389,-0.968602 -5.001,-1.191849 -5.001,-0.692417 0,0.264697 0.704,0.71472 1.565,1.000052 0.86,0.285331 2.648,1.3654 3.972,2.400152 2.623,2.049725 3.131,2.270269 3.129,1.358658 z m -38.497,180.132453 c -0.304,-0.85863 -0.988,-4.26314 -1.521,-7.56557 -2.664,-16.51087 -2.642,-16.332 -1.959,-16.332 0.559,0 2.64,10.51534 3.232,16.332 0.148,1.45307 0.584,3.90232 0.969,5.44277 0.818,3.27579 0.848,3.68395 0.265,3.68395 -0.239,0 -0.683,-0.70252 -0.986,-1.56115 z"
       id="path1" /></g></svg>
