<?xml version="1.0" encoding="UTF-8" standalone="no"?>
<!-- Created with Inkscape (http://www.inkscape.org/) -->

<svg
   width="231.38646"
   height="235.24007"
   viewBox="0 0 61.221 62.240601"
   version="1.1"
   id="svg1"
   xml:space="preserve"
   xmlns="http://www.w3.org/2000/svg"
   xmlns:svg="http://www.w3.org/2000/svg"><defs
     id="defs1" /><g
     id="g2047"
     transform="matrix(0.26458333,0,0,0.26458333,-5299.2671,-10.12824)"><path
       style="fill:#000000;stroke-width:1.22065"
       d="m 20091.522,230.98774 c -4.782,-3.40482 -5.041,-3.73029 -4.377,-5.49549 0.322,-0.85576 1.324,-2.34818 2.228,-3.31648 2.17,-2.32725 15.11,-19.72116 17.512,-23.53968 1.546,-2.45755 9.192,-12.91099 11.123,-15.20543 0.277,-0.33004 1.411,-1.91452 2.518,-3.52107 2.239,-3.24642 3.894,-5.51463 13.045,-17.88558 6.568,-8.87908 9.277,-12.59485 17.079,-23.43215 2.578,-3.58127 6.725,-9.28523 9.214,-12.67547 2.489,-3.39025 4.816,-6.70806 5.172,-7.37294 0.355,-0.66486 2.055,-2.8734 3.779,-4.90788 2.54,-2.99862 3.324,-4.4596 4.139,-7.71563 1.78,-7.106942 6.563,-20.187066 8.141,-22.257749 0.842,-1.105493 2.714,-2.705055 4.162,-3.554601 2.253,-1.322683 3.027,-1.485175 5.387,-1.130882 3.406,0.511769 6.873,2.208128 9.374,4.588258 2.533,2.410536 2.59,5.438537 0.189,10.008559 -2.399,4.570155 -4.466,7.051595 -8.609,10.339915 -2.463,1.95558 -4.792,4.65133 -7.443,8.61811 -4.504,6.7402 -12.246,17.45386 -14.134,19.56329 -0.723,0.8069 -2.47,3.18364 -3.882,5.28162 -1.412,2.09797 -5.098,7.24755 -8.192,11.4435 -3.093,4.19596 -7.829,10.66594 -10.525,14.37774 -2.695,3.7118 -7.142,9.78567 -9.88,13.49747 -10.631,14.40805 -16.42,22.23343 -20.616,27.86523 -2.4,3.22217 -6.213,8.63583 -8.473,12.03035 -4.719,7.08479 -10.759,15.36004 -11.675,15.99256 -1.176,0.81385 -2.39,0.44574 -5.256,-1.59557 z m 5.295,-2.20995 c 2.467,-2.65704 4.743,-5.70326 9.1,-12.17706 3.436,-5.10783 6.064,-8.71305 20.96,-28.75547 6.152,-8.27732 7.66,-10.46704 7.66,-11.12725 0,-0.28153 0.225,-0.59991 0.502,-0.7075 0.278,-0.10754 2.132,-2.44029 4.119,-5.18381 1.988,-2.74351 4.106,-5.64839 4.706,-6.4553 9.309,-12.53111 18.498,-25.14189 20.522,-28.16864 1.404,-2.09797 3.916,-5.66307 5.582,-7.92243 8.359,-11.33597 8.157,-11.00033 8.207,-13.62448 0.05,-2.74573 -0.03,-2.78541 -3.967,-2.13253 -2.401,0.39721 -3.845,1.99383 -10.272,11.35566 -1.661,2.42074 -4.672,6.57587 -6.688,9.2336 -2.018,2.65774 -5.382,7.24952 -7.477,10.20398 -2.094,2.95446 -4.996,6.95176 -6.446,8.88291 -1.45,1.93114 -5.745,7.77055 -9.545,12.97646 -3.799,5.2059 -9.732,13.26405 -13.184,17.90699 -3.451,4.64295 -7.858,10.65538 -9.791,13.36096 -1.934,2.70559 -7.076,9.7434 -11.427,15.63957 -10.623,14.39615 -10.684,14.49367 -9.134,14.49367 0.752,0 4.935,-5.07182 9.427,-11.43154 5.172,-7.3226 8.135,-10.87927 8.639,-10.37357 0.338,0.33863 -0.07,1.52361 -1.09,3.10711 -2.108,3.2949 -9.835,13.91954 -12.677,17.42914 -2.495,3.08316 -2.596,3.47651 -1.172,4.55988 1.411,1.0723 1.449,1.06023 3.446,-1.09035 z m 20.455,-36.78971 c -0.188,-0.30358 1.673,-3.132 4.134,-6.28538 2.461,-3.15338 4.894,-6.40408 5.406,-7.22377 1.131,-1.80767 4.832,-6.10936 5.491,-6.38072 1.08,-0.4444 0.339,1.3118 -1.763,4.182 -12.598,17.1994 -12.453,17.02852 -13.268,15.70787 z m 29.964,-39.74016 c -0.484,-0.48631 0.324,-1.88333 3.767,-6.51171 1.62,-2.17712 3.39,-4.57403 3.933,-5.32645 0.543,-0.75244 1.478,-1.9408 2.078,-2.64081 0.6,-0.70002 2.106,-2.72521 3.349,-4.50042 8.131,-11.61496 12.796,-17.5245 13.873,-17.57264 1.142,-0.0511 0.846,0.58485 -2.094,4.4785 -1.507,1.99704 -4.041,5.43009 -5.631,7.629 -6.75,9.34122 -17.88,24.15477 -18.379,24.4641 -0.298,0.18428 -0.701,0.17548 -0.896,-0.0195 z m 35.056,-41.27956 c 0.2,-0.32277 0.08,-0.58684 -0.258,-0.58684 -0.341,0 -0.621,0.26407 -0.621,0.58684 0,0.32277 0.122,0.58685 0.259,0.58685 0.141,0 0.421,-0.26408 0.62,-0.58685 z m 1.678,-3.81112 c -0.184,-0.48231 -0.572,-0.73079 -0.86,-0.55223 -0.828,0.5121 -0.612,1.42912 0.336,1.42912 0.523,0 0.728,-0.34424 0.524,-0.87689 z m -7.294,-3.23104 c -0.03,-0.58041 -0.204,-0.48047 -0.536,0.29342 -0.692,1.6133 -0.692,2.53986 0,1.46713 0.312,-0.48415 0.553,-1.2764 0.536,-1.76055 z m 6.733,0.81493 c 0.253,-0.66131 0.11,-0.84822 -0.481,-0.62172 -0.464,0.17813 -1.158,-0.0565 -1.543,-0.52151 -0.633,-0.76457 -2.316,-1.20033 -2.316,-0.59996 0,0.13498 -0.142,0.61907 -0.318,1.07576 -0.241,0.62975 0.1,0.76948 1.396,0.57842 0.943,-0.13853 1.892,0.0376 2.111,0.39137 0.532,0.86334 0.722,0.81329 1.151,-0.30236 z m -0.634,-3.98597 c 0.174,-0.45302 0.18,-1.347498 0.01,-1.987741 -0.49,-1.874122 0.9,-2.136171 1.617,-0.304856 l 0.644,1.649147 0.539,-1.405604 c 0.669,-1.744855 0.324,-2.108364 -2.027,-2.142152 -1.173,-0.01685 -1.796,-0.29818 -1.697,-0.765005 0.208,-0.984635 -1.458,-2.607219 -2.204,-2.145338 -0.864,0.53451 -0.721,1.469905 0.225,1.469905 0.743,0 1.49,2.579791 1.572,5.428324 0.04,1.23007 0.875,1.35964 1.318,0.20332 z m -3.706,-0.31539 c 0,-0.792471 -1.068,-1.341823 -1.767,-0.908994 -0.327,0.202738 -0.443,0.614434 -0.259,0.914904 0.441,0.71279 2.026,0.70816 2.026,-0.006 z m 9.962,-3.555725 c 0,-0.322764 -0.279,-0.586839 -0.62,-0.586839 -0.342,0 -0.458,0.264075 -0.259,0.586839 0.199,0.322776 0.479,0.586851 0.62,0.586851 0.143,0 0.259,-0.264075 0.259,-0.586851 z m -3.712,-4.54805 c 2.56,-3.391876 3.202,-4.718184 2.413,-4.9816 -0.368,-0.12309 -1.307,0.980425 -2.086,2.452246 -0.778,1.471833 -1.787,2.887248 -2.238,3.145354 -0.453,0.258118 -0.823,0.720256 -0.823,1.02698 0,1.160373 1.133,0.480154 2.734,-1.64298 z m 5.177,0.440129 c -0.199,-0.322764 -0.626,-0.586851 -0.948,-0.586851 -0.323,0 -0.423,0.264087 -0.224,0.586851 0.199,0.322764 0.626,0.586851 0.949,0.586851 0.322,0 0.422,-0.264087 0.223,-0.586851 z m 5.449,-0.708342 c 0.1,-0.497488 -0.233,-1.0615 -0.732,-1.253362 -0.674,-0.258838 -0.909,0.0376 -0.909,1.148752 0,1.61377 1.332,1.698679 1.641,0.10461 z m -13.946,-2.295161 c 0,-0.322764 -0.264,-0.423638 -0.586,-0.224147 -0.322,0.199478 -0.586,0.626766 -0.586,0.94953 0,0.322764 0.264,0.423638 0.586,0.22416 0.322,-0.199479 0.586,-0.626779 0.586,-0.949543 z m 10.943,-1.297048 c 0.1,-1.20196 -0.145,-1.567911 -1.017,-1.567911 -1.158,0 -1.425,0.908748 -0.771,2.617607 0.539,1.406822 1.65,0.754849 1.788,-1.049696 z m -8.89,-1.345265 c -1.054,-0.773012 -2.053,-0.600119 -2.053,0.355807 0,0.603757 1.824,1.095825 2.579,0.695831 0.291,-0.153863 0.05,-0.627096 -0.526,-1.051638 z m 12.596,-0.481435 c 0,-0.465104 -0.264,-1.008854 -0.586,-1.208332 -0.322,-0.199479 -0.586,0.181058 -0.586,0.84564 0,0.664582 0.264,1.20832 0.586,1.20832 0.322,0 0.586,-0.380537 0.586,-0.845628 z"
       id="path1" /></g></svg>
