<?xml version="1.0" encoding="UTF-8" standalone="no"?>
<!-- Created with Inkscape (http://www.inkscape.org/) -->

<svg
   width="61.221001mm"
   height="62.240601mm"
   viewBox="0 0 61.221 62.240601"
   version="1.1"
   id="svg1"
   xml:space="preserve"
   inkscape:export-filename="2ndSingPro.svg"
   inkscape:export-xdpi="96"
   inkscape:export-ydpi="96"
   xmlns:inkscape="http://www.inkscape.org/namespaces/inkscape"
   xmlns:sodipodi="http://sodipodi.sourceforge.net/DTD/sodipodi-0.dtd"
   xmlns="http://www.w3.org/2000/svg"
   xmlns:svg="http://www.w3.org/2000/svg"><sodipodi:namedview
     id="namedview1"
     pagecolor="#ffffff"
     bordercolor="#000000"
     borderopacity="0.25"
     inkscape:showpageshadow="2"
     inkscape:pageopacity="0.0"
     inkscape:pagecheckerboard="0"
     inkscape:deskcolor="#d1d1d1"
     inkscape:document-units="mm"><inkscape:page
       x="0"
       y="0"
       width="61.221001"
       height="62.240601"
       id="page2"
       margin="0"
       bleed="0" /></sodipodi:namedview><defs
     id="defs1" /><g
     inkscape:label="Layer 1"
     inkscape:groupmode="layer"
     id="layer1"
     transform="translate(1472.671,3650.7208)"><path
       id="path936"
       d="m -1472.5017,-3650.5514 h 60.8824 v -0.1694 h -60.8824 z"
       style="fill:#000000;fill-opacity:1;fill-rule:evenodd;stroke:none;stroke-width:0.352778" /><path
       id="path941-9"
       d="m -1472.671,-3588.6495 h 0.1693 v -61.8984 h -0.1693 z"
       style="fill:#000000;fill-opacity:1;fill-rule:evenodd;stroke:none;stroke-width:0.352778" /><path
       id="path942"
       d="m -1411.6193,-3588.6495 h 0.1693 v -61.8984 h -0.1693 z"
       style="fill:#000000;fill-opacity:1;fill-rule:evenodd;stroke:none;stroke-width:0.352778" /><path
       id="path952"
       d="m -1472.5017,-3588.4802 h 60.8824 v -0.1693 h -60.8824 z"
       style="fill:#000000;fill-opacity:1;fill-rule:evenodd;stroke:none;stroke-width:0.352778" /><g
       id="g1094"
       transform="matrix(0.2089219,0,0,0.2089219,-3767.6077,-3701.1845)"><path
         style="fill:#000000"
         d="m 11174.935,495.48634 c 0.692,-1.78585 1.669,-4.97873 2.171,-7.0953 1.267,-5.3444 2.273,-8.8862 3.006,-10.58281 0.343,-0.79371 1.3,-3.06661 2.127,-5.05089 0.826,-1.98428 1.812,-4.20122 2.19,-4.92655 0.599,-1.14823 0.595,-1.64588 -0.03,-3.84829 -0.395,-1.39124 -0.899,-2.96246 -1.121,-3.49161 -1.017,-2.43017 -4.239,-11.37064 -7.021,-19.482 -1.679,-4.89455 -4.058,-11.60501 -5.288,-14.91214 -4.495,-12.09049 -5.119,-13.79745 -6.773,-18.51993 -0.926,-2.6457 -1.884,-5.47287 -2.128,-6.28259 -0.244,-0.80972 -0.868,-2.32498 -1.388,-3.36726 l -0.944,-1.89504 -0.02,1.83149 c -0.01,1.00732 -0.226,3.28022 -0.479,5.05089 -0.253,1.77067 -0.717,7.65697 -1.03,13.08066 -0.603,10.41891 -0.891,12.02592 -2.156,12.02592 -0.623,0 -0.729,-0.32412 -0.511,-1.56337 0.152,-0.85985 0.504,-4.81037 0.782,-8.77892 0.278,-3.96856 0.723,-9.48846 0.989,-12.26645 0.265,-2.77799 0.511,-7.54025 0.545,-10.58281 0.03,-3.04256 0.256,-5.78172 0.492,-6.08702 0.303,-0.39261 4.537,-0.58551 14.464,-0.65902 7.719,-0.0572 16.089,-0.14803 18.6,-0.20193 2.511,-0.0539 8.864,-0.17246 14.117,-0.26345 l 9.552,-0.16543 1.713,-1.57145 c 2.736,-2.50896 5.926,-3.63803 10.899,-3.85721 2.772,-0.1222 3.928,0.0814 6.573,1.15747 1.765,0.71816 3.785,1.80854 4.489,2.42307 l 1.279,1.11733 1.784,-1.23759 c 1.494,-1.03648 2.322,-1.23759 5.091,-1.23759 4.367,0 6.032,0.85325 12.538,6.42457 7.06,6.04567 6.999,5.97273 9.761,11.74711 3.785,7.91429 2.914,22.16482 -2.077,33.96467 -3.512,8.3044 -3.896,11.47514 -1.836,15.18066 1.923,3.46046 1.592,3.63596 -6.874,3.63596 -3.818,0 -6.942,0.0388 -6.942,0.0863 0,0.68031 6.328,15.68136 8.117,19.24842 0.822,1.63872 1.494,3.13303 1.494,3.32067 0,0.18765 0.615,1.66094 1.367,3.27398 3.112,6.6769 6.283,14.05769 6.418,14.9413 0.08,0.55991 -0.168,1.00917 -0.621,1.10308 -0.556,0.11492 -1.194,-0.87145 -2.324,-3.59034 -0.857,-2.06183 -2.08,-4.6532 -2.718,-5.75859 -0.638,-1.1054 -1.161,-2.23543 -1.161,-2.51119 0,-0.27576 -0.54,-1.68449 -1.201,-3.13052 -0.661,-1.44602 -1.201,-2.72925 -1.201,-2.85162 0,-0.12236 -0.951,-2.24679 -2.113,-4.72093 -4.35,-9.2612 -6.056,-13.06254 -6.056,-13.49277 0,-1.12752 -4.243,-8.98067 -5.641,-10.44122 -0.862,-0.90044 -1.568,-1.91652 -1.568,-2.25795 0,-0.48483 -1.079,-0.55964 -4.926,-0.34153 -3.669,0.20796 -5.809,0.0783 -8.384,-0.50801 -3.973,-0.90461 -4.56,-0.95098 -3.388,-0.2677 1.168,0.68126 1.056,1.74703 -0.529,5.04737 -0.754,1.56816 -2.183,4.69117 -3.176,6.94002 -0.993,2.24885 -2.322,5.21186 -2.955,6.58447 -0.632,1.37261 -1.149,2.61088 -1.149,2.75171 0,0.14083 -0.521,1.39892 -1.158,2.79575 -0.636,1.39684 -2.132,4.92084 -3.325,7.83111 -1.192,2.91027 -3.176,7.67254 -4.408,10.58281 -1.232,2.91028 -2.364,5.61611 -2.515,6.01297 -0.5,1.30721 -1.148,1.87087 -1.844,1.60357 -0.941,-0.36155 -0.886,-0.68778 0.705,-4.12773 3.333,-7.20914 5.4,-12.10421 5.659,-13.3993 0.153,-0.76663 0.431,-1.39388 0.618,-1.39388 0.187,0 0.574,-0.70351 0.859,-1.56337 0.285,-0.85985 1.411,-3.72803 2.501,-6.37374 1.09,-2.6457 2.155,-5.2433 2.368,-5.77244 0.212,-0.52914 1.423,-3.12674 2.691,-5.77245 1.268,-2.6457 2.608,-5.5257 2.978,-6.39999 0.667,-1.57643 0.663,-1.5848 -0.412,-1.009 -0.596,0.31934 -1.917,1.18481 -2.935,1.92327 -2.238,1.62289 -5.663,2.72072 -8.269,2.65095 -1.892,-0.0506 -1.921,-0.0783 -1.799,-1.73508 0.412,-5.59219 0.516,-5.23549 -4.11,-14.19059 -0.82,-1.58742 -1.891,-3.95389 -2.379,-5.25881 -0.488,-1.30492 -1.094,-2.43476 -1.346,-2.51075 -0.252,-0.076 -1.413,1.85754 -2.581,4.29673 -1.168,2.4392 -4.319,8.9807 -7.002,14.53668 -2.683,5.55598 -5.24,10.91831 -5.682,11.9163 l -0.805,1.81452 2.373,4.92 c 1.305,2.706 3.013,6.79083 3.797,9.0774 0.783,2.28656 1.636,4.55946 1.895,5.05088 0.621,1.17595 3.943,12.82835 3.943,13.82717 0,0.42673 -0.381,0.77588 -0.847,0.77588 -0.639,0 -1.061,-0.79753 -1.721,-3.247 -1.912,-7.10424 -5.855,-18.41014 -7.981,-22.88669 -1.845,-3.88405 -2.349,-4.60331 -2.823,-4.03127 -0.884,1.06682 -4.331,9.78928 -5.362,13.56918 -3.207,11.75673 -5.036,16.59578 -6.274,16.59578 -0.841,0 -0.818,-0.20573 0.361,-3.247 z m 13.288,-37.03985 c 0.696,-1.52128 1.793,-3.74007 2.437,-4.93063 2.076,-3.83667 10.844,-22.23344 10.844,-22.75234 0,-0.27621 0.322,-0.85744 0.714,-1.29162 0.634,-0.70109 0.581,-1.32425 -0.475,-5.5698 -1.842,-7.40903 -1.414,-13.70077 1.237,-18.19891 0.491,-0.83239 1.223,-2.4528 1.628,-3.60091 0.881,-2.50141 3.676,-7.24335 5.875,-9.96819 0.877,-1.08553 1.593,-2.13642 1.593,-2.33532 0,-0.39866 -48.457,0.0954 -50.577,0.51567 -1.583,0.31403 -1.578,0.24844 -0.314,3.55962 0.554,1.4514 2.189,5.99414 3.633,10.09498 2.78,7.89295 6.054,16.59821 7.146,19.00097 0.361,0.79371 1.669,4.58187 2.907,8.41814 2.439,7.56047 4.712,13.82698 6.631,18.27941 0.399,0.926 1.178,3.20786 1.731,5.07081 1.034,3.48643 2.558,6.47408 3.302,6.47408 0.232,0 0.992,-1.24468 1.688,-2.76596 z m 30.25,-5.64691 c 1.371,-0.65853 3.743,-2.30518 5.27,-3.65924 l 2.776,-2.46192 -2.942,-1.39274 c -4.494,-2.12768 -8.964,-5.7813 -11.794,-9.64087 -0.941,-1.28288 -1.981,-2.33251 -2.312,-2.33251 -0.374,0 -0.631,-0.77137 -0.681,-2.04441 -0.04,-1.12442 -0.566,-3.45144 -1.16,-5.17114 -1.532,-4.43471 -1.522,-13.80293 0.02,-17.99453 1.561,-4.24492 4.768,-9.3449 7.684,-12.21986 2.161,-2.13039 2.805,-2.51095 3.873,-2.291 0.704,0.14507 3.743,0.36107 6.753,0.48001 6.611,0.26126 8.469,-0.30811 10.643,-3.261 1.221,-1.65735 1.336,-2.0217 0.681,-2.15812 -0.515,-0.10739 -0.703,-0.48639 -0.544,-1.0963 0.196,-0.7487 -0.321,-1.21755 -2.626,-2.3821 -2.586,-1.30693 -3.162,-1.41988 -5.845,-1.14527 -6.232,0.63801 -7.939,1.40019 -12.141,5.42113 -4.326,4.14004 -5.869,6.4262 -9.961,14.75985 -2.603,5.30029 -2.867,6.13653 -3.223,10.22372 -0.326,3.74264 -0.244,4.92572 0.514,7.43151 0.496,1.63913 1.047,3.96539 1.225,5.16947 0.423,2.86389 2.518,8.07924 6.016,14.97339 2.21,4.35663 2.867,6.15578 3.016,8.2665 0.299,4.2476 0.715,4.46813 4.76,2.52543 z m 43.725,-0.72683 c -0.05,-0.66143 -0.238,-2.30755 -0.414,-3.65806 -0.321,-2.45512 0.447,-6.20245 1.962,-9.57046 4.446,-9.88719 6.357,-18.30884 5.834,-25.71785 -0.65,-9.21347 -3.771,-14.22648 -14.323,-23.00328 -3.263,-2.71424 -7.22,-4.29777 -9.18,-3.67419 -0.596,0.18968 -1.516,0.39351 -2.045,0.45296 -0.528,0.0595 -1.107,0.13572 -1.285,0.16948 -0.178,0.0338 -1.53,1.51549 -3.003,3.29272 -3.873,4.67083 -3.581,6.43874 2.131,12.88342 2.189,2.47077 3.717,4.90409 5.738,9.1397 4.99,10.46064 4.954,10.33518 4.914,16.79778 -0.04,6.53363 -0.756,10.52082 -2.365,13.15729 -0.763,1.25093 -1.723,3.30532 -2.133,4.56533 l -0.746,2.29091 2.224,1.63403 c 2.877,2.11404 4.767,2.63459 9.182,2.529 3.528,-0.0844 3.602,-0.11139 3.509,-1.28878 z m -17.724,-6.84219 c 2.253,-0.58532 2.443,-0.76723 4.075,-3.90917 1.685,-3.24127 1.716,-3.40579 1.898,-10.03726 0.202,-7.3624 0.38,-6.58942 -3.411,-14.80812 -2.951,-6.40026 -3.918,-8.01306 -6.671,-11.12824 -1.551,-1.75512 -2.82,-3.35818 -2.82,-3.56237 0,-0.20419 -0.544,-1.08524 -1.209,-1.95789 -0.665,-0.87266 -1.343,-2.25787 -1.507,-3.07826 -0.233,-1.16619 -0.467,-1.40874 -1.074,-1.11177 -0.426,0.20892 -3.754,0.41519 -7.395,0.45838 -5.026,0.0596 -7.021,0.26935 -8.288,0.87126 -1.872,0.88926 -4.074,2.77801 -4.074,3.49501 0,0.25937 -0.418,0.8502 -0.928,1.31295 -0.511,0.46276 -1.731,2.82332 -2.711,5.24571 -1.661,4.10412 -1.786,4.765 -1.835,9.69573 -0.05,5.45037 0.257,7.08228 2.418,12.69645 3.203,8.32452 11.748,14.69204 22.278,16.60149 1.939,0.35167 8.693,-0.11873 11.254,-0.7839 z m -18.222,-5.10656 c -3.522,-0.77617 -6.487,-3.04427 -6.487,-4.9621 0,-1.80285 1.145,-1.79552 2.668,0.0171 1.481,1.76183 3.96,2.94368 6.173,2.94368 1.3,0 2.189,-0.4171 3.59,-1.68363 1.024,-0.92599 2.105,-1.68363 2.404,-1.68363 1.124,0 0.477,1.79279 -1.26,3.487 -1.919,1.87204 -4.283,2.49968 -7.088,1.88159 z m -1.201,-9.56589 c 0,-2.23161 0.968,-3.78418 2.09,-3.353 0.726,0.27892 0.722,0.47958 -0.05,2.56358 -1.087,2.93272 -2.039,3.30111 -2.039,0.78942 z m 9.707,-10.81105 c -0.799,-0.8 -0.722,-2.5518 0.145,-3.27166 1.045,-0.86858 5.744,-0.38556 6.959,0.71541 1.107,1.00281 1.295,2.65245 0.303,2.65245 -0.366,0 -1.274,-0.31584 -2.017,-0.70188 -1.226,-0.63657 -1.494,-0.61418 -2.875,0.24052 -1.794,1.10999 -1.774,1.10705 -2.515,0.36516 z m -20.655,-2.32006 c -0.846,-1.35549 -0.05,-2.66125 2.056,-3.35551 2.135,-0.70547 4.145,-0.27156 5.518,1.19127 1.665,1.77443 0.268,2.94564 -1.898,1.59129 -0.785,-0.49068 -1.115,-0.41379 -2.067,0.48104 -1.411,1.32719 -2.816,1.36296 -3.609,0.0919 z m 5.902,80.94007 c 0.264,-0.2591 2.659,-1.02237 5.321,-1.69614 2.662,-0.67377 6.987,-2.01811 9.611,-2.98743 2.623,-0.96931 6.789,-2.50752 9.256,-3.41826 5.514,-2.03549 8.249,-3.40378 8.249,-4.12786 0,-0.30277 -0.865,-2.12814 -1.923,-4.05638 -1.057,-1.92824 -1.922,-3.86376 -1.922,-4.30115 0,-0.43739 -0.602,-1.58403 -1.339,-2.5481 -0.737,-0.96407 -2.183,-3.15989 -3.213,-4.8796 -1.031,-1.7197 -2.698,-4.25394 -3.706,-5.63164 -1.977,-2.7018 -2.355,-4.16017 -1.01,-3.90095 0.966,0.18614 3.86,3.85302 6.005,7.60845 0.831,1.45513 2.337,3.90501 3.347,5.44416 1.01,1.53915 1.975,3.37912 2.144,4.08882 0.169,0.70969 0.463,1.50682 0.652,1.77139 1.274,1.77927 3.878,7.17834 3.756,7.78749 -0.08,0.40701 -1.446,1.2385 -3.032,1.84775 -21.839,8.39051 -23.557,8.94548 -28.592,9.23537 -2.669,0.15369 -3.918,0.0719 -3.604,-0.23592 z m -160.01,-2.13967 c -0.481,-1.13515 -1.274,-2.94401 -1.763,-4.01968 -0.489,-1.07567 -0.889,-2.26702 -0.889,-2.64744 0,-0.38042 -0.77,-2.85556 -1.71,-5.50031 -0.94,-2.64475 -2.661,-7.6227 -3.824,-11.06211 -3.202,-9.46498 -3.971,-11.54577 -6.116,-16.55625 -1.888,-4.41098 -3.404,-8.41548 -5.908,-15.60282 -0.632,-1.81327 -1.344,-3.545 -1.584,-3.8483 -0.239,-0.3033 -0.708,-1.41731 -1.041,-2.4756 -0.333,-1.05828 -0.814,-2.18664 -1.068,-2.50747 -0.254,-0.32083 -0.579,-1.88151 -0.723,-3.46819 -0.252,-2.77832 -0.213,-2.90679 1.041,-3.47868 1.019,-0.4649 1.503,-0.46778 2.23,-0.0133 0.705,0.44062 6.227,0.52307 22.91,0.34207 12.09,-0.13117 24.793,-0.3494 28.229,-0.48497 25.525,-1.00715 28.657,-0.87664 29.322,1.22209 0.371,1.16769 0.03,2.24048 -2.03,6.46428 -0.905,1.85199 -3.064,6.50602 -4.798,10.34229 -1.735,3.83627 -3.363,7.23835 -3.619,7.56016 -1.155,1.4536 0.158,1.42513 3.71,-0.0804 6.645,-2.81608 27.062,-10.84701 27.576,-10.84701 1.072,0 3.826,-4.49244 5.073,-8.27268 1.517,-4.60156 1.906,-5.19635 3.396,-5.19635 2.521,0 3.426,6.25599 1.472,10.17688 -0.415,0.8337 -0.755,1.69367 -0.755,1.91104 0,1.29537 7.015,-3.23884 8.649,-5.59053 2.408,-3.46483 2.966,-4.09221 3.639,-4.09221 1.193,0 0.751,1.39648 -1.339,4.22962 -2.788,3.77931 -4.458,5.23719 -7.872,6.87345 -5.009,2.39994 -7.506,1.57371 -5.259,-1.74018 1.558,-2.29839 2.343,-5.22338 1.956,-7.28818 -0.389,-2.07691 -1.014,-1.66786 -1.872,1.22553 -1.654,5.57468 -5.28,10.96621 -7.006,10.41777 -0.792,-0.25164 -5.89,1.31067 -9.157,2.80606 -0.925,0.42346 -4.493,1.84996 -7.929,3.16999 -3.436,1.32004 -7.652,2.96011 -9.37,3.64462 -7.097,2.8275 -6.621,2.45306 -8.869,6.97589 -1.138,2.28761 -3.079,6.48441 -4.316,9.32623 -1.236,2.84182 -2.78,6.07088 -3.431,7.1757 -3.799,6.4423 -4.271,8.444 -2.02,8.55856 0.814,0.0414 0.879,0.11247 0.255,0.27579 -1.019,0.26666 -1.094,0.9112 -0.149,1.27455 0.661,0.25359 14.302,-2.50788 17.328,-3.50764 0.793,-0.26197 3.064,-0.79583 5.046,-1.18634 1.982,-0.39052 6.091,-1.27568 9.13,-1.96701 3.04,-0.69133 6.435,-1.42434 7.545,-1.6289 3.779,-0.6965 7.307,-3.95023 9.313,-8.58917 0.747,-1.72663 1.607,-1.94428 3.218,-0.81454 1.535,1.07595 1.402,3.82658 -0.374,7.74641 -0.793,1.75049 -1.441,3.26101 -1.441,3.3567 0,0.68629 1.34,-0.25843 4.166,-2.93736 3.424,-3.24588 4.483,-3.77048 4.483,-2.22023 0,1.23206 -6.678,7.35174 -8.9,8.15623 -1.384,0.50084 -2.03,0.5105 -3.148,0.047 -1.831,-0.75925 -1.775,-1.61166 0.229,-3.49751 1.92,-1.80703 3.77,-5.28409 3.559,-6.688 -0.124,-0.81757 -0.426,-0.59952 -1.765,1.27352 -2.209,3.08892 -6.982,6.52134 -9.069,6.52134 -0.882,0 -3.38,0.42061 -5.551,0.9347 -2.17,0.51409 -6.001,1.39854 -8.512,1.96545 -2.511,0.56692 -6.295,1.42701 -8.409,1.91133 -2.115,0.48432 -5.466,1.23537 -7.449,1.66902 -6.623,1.44898 -7.921,1.78295 -9.058,2.32993 -0.945,0.45456 -1.24,0.39281 -1.802,-0.37706 -0.37,-0.50636 -0.673,-1.20399 -0.673,-1.55028 0,-1.69659 -1.148,-0.0995 -3.845,5.34655 -1.627,3.28689 -3.274,6.09731 -3.659,6.24538 -0.931,0.3576 -1.448,-1.07924 -0.743,-2.06489 0.306,-0.42703 1.065,-1.75053 1.687,-2.94109 0.622,-1.19057 1.704,-3.13877 2.406,-4.32934 0.701,-1.19056 1.5,-2.98103 1.775,-3.97881 0.486,-1.76322 0.407,-1.95226 -2.807,-6.73452 -1.819,-2.7062 -4.027,-6.21917 -4.907,-7.80659 -0.881,-1.58743 -2.592,-4.40149 -3.802,-6.25349 -1.211,-1.85199 -2.31,-3.58901 -2.442,-3.86003 -0.61,-1.24844 -5.619,-9.3262 -6.823,-11.00403 -1.574,-2.19237 -1.708,-3.17482 -0.433,-3.17482 0.574,0 1.559,0.97137 2.643,2.60696 0.951,1.43383 1.729,2.72013 1.729,2.85844 0,0.36082 3.885,6.64009 4.73,7.64617 0.771,0.91699 0.863,1.06903 3.613,5.9572 1.021,1.8147 2.529,4.27355 3.35,5.46411 0.821,1.19057 2.63,3.87284 4.018,5.96061 1.389,2.08777 2.607,3.87784 2.707,3.97794 0.203,0.2038 7.035,-13.47159 10.972,-21.96447 1.411,-3.04256 3.222,-6.72249 4.024,-8.17763 0.803,-1.45514 1.963,-3.83627 2.578,-5.29141 1.319,-3.11813 2.534,-5.783 5.531,-12.12414 1.213,-2.56743 2.206,-4.98548 2.206,-5.37344 0,-1.14241 -2.07,-1.30377 -13.222,-1.0307 -17.631,0.43175 -57.339,1.19431 -62.635,1.20289 l -4.978,0.008 0.327,1.30355 c 0.18,0.71695 1.176,3.08519 2.215,5.26275 1.038,2.17756 2.448,5.54148 3.134,7.47538 1.993,5.6211 4.368,11.8906 5.979,15.78261 0.821,1.98428 2.964,7.93712 4.763,13.22852 3.269,9.616 5.861,16.57851 6.757,18.15262 0.262,0.45941 0.476,1.0761 0.476,1.37042 0,0.29432 0.305,1.21724 0.678,2.05093 0.374,0.8337 0.806,2.27344 0.961,3.19944 0.155,0.926 0.336,1.89713 0.402,2.15808 0.07,0.26095 -0.22,0.54031 -0.638,0.6208 -0.502,0.0969 -1.055,-0.55173 -1.634,-1.91756 z m 82.499,-1.9196 c -0.317,-0.31749 -0.576,-1.04758 -0.576,-1.62243 0,-0.8922 0.334,-1.08063 2.282,-1.28739 2.983,-0.31649 6.485,-1.9236 7.641,-3.50597 0.835,-1.14246 2.788,-0.0856 2.127,1.1508 -0.571,1.06847 -6.965,4.39912 -8.444,4.39912 -0.606,0 -1.225,0.3247 -1.378,0.72156 -0.334,0.87143 -0.878,0.91897 -1.652,0.14431 z m 1.621,-5.51752 c -0.359,-0.93731 0.465,-1.58402 2.031,-1.59446 1.475,-0.01 3.712,-1.19729 6.343,-3.36684 1.19,-0.98077 2.755,-2.16482 3.479,-2.63124 1.217,-0.7836 1.34,-0.78739 1.623,-0.0499 0.498,1.29977 -3.204,4.55551 -8.646,7.60322 -1.941,1.0871 -4.421,1.10722 -4.83,0.0392 z m -1.054,-3.26242 c -0.365,-0.95378 0.176,-1.70667 1.227,-1.70667 1.924,0 5.075,-1.55827 7.883,-3.89814 1.629,-1.35743 3.134,-2.76739 3.346,-3.13325 0.445,-0.77021 1.588,-0.88052 2.012,-0.19411 0.51,0.82579 -0.613,2.25179 -3.709,4.70901 -5.177,4.10926 -10.067,6.02867 -10.759,4.22316 z m 8.812,-34.7133 c -0.876,-0.87705 -0.135,-1.53744 2.268,-2.02048 1.437,-0.2889 3.897,-1.17414 5.466,-1.9672 2.475,-1.25028 2.971,-1.35605 3.737,-0.79579 0.748,0.54812 0.785,0.7635 0.241,1.41975 -0.353,0.42549 -0.902,0.77361 -1.221,0.77361 -0.318,0 -1.859,0.51671 -3.425,1.14825 -3.175,1.28115 -6.54,1.96786 -7.066,1.44186 z m -0.13,-3.5941 c -0.437,-0.70786 0.152,-1.17158 2.408,-1.89458 2.435,-0.78011 9.983,-5.11656 10.492,-6.02787 0.568,-1.01597 1.782,-0.84752 1.782,0.24727 0,1.26282 -2.408,3.10895 -7.683,5.89104 -4.322,2.27978 -6.371,2.80199 -6.999,1.78414 z m -1.176,-4.03773 c 0,-0.90402 0.321,-1.27067 1.322,-1.51193 3.12,-0.75211 5.906,-2.66123 8.623,-5.91077 1.534,-1.83422 3.168,-3.35179 3.63,-3.37237 3.105,-0.13817 -3.429,7.48052 -8.788,10.24805 -4.013,2.07273 -4.787,2.1611 -4.787,0.54702 z m -82.593,-20.71425 c -3.919,-0.85101 -10.126,-3.76342 -13.285,-6.23299 -5.872,-4.59064 -12.269,-13.01513 -14.088,-18.55384 -2.112,-6.42946 -1.092,-16.91201 2.303,-23.67788 3.033,-6.04292 9.373,-12.79904 14.881,-15.85795 2.267,-1.25916 5.312,-2.6274 6.766,-3.04054 1.453,-0.41314 4.589,-1.46406 6.967,-2.33537 2.379,-0.87132 6.488,-2.29472 9.131,-3.16312 2.643,-0.8684 6.042,-2.08838 7.554,-2.71107 3.274,-1.34881 5.324,-1.4943 5.095,-0.36177 -0.1,0.49761 -1.516,1.19012 -4,1.95582 -2.114,0.652 -4.493,1.47033 -5.286,1.81852 -0.792,0.34819 -2.267,0.89667 -3.275,1.21885 -3.163,1.00994 -1.651,1.00782 3.796,-0.005 7.101,-1.32084 13.286,-2.37241 14.016,-2.3826 0.33,-0.005 0.6,0.42453 0.6,0.95367 0,0.59964 -0.316,0.95805 -0.84,0.95139 -2.179,-0.0277 -15.993,2.63972 -15.189,2.93266 0.491,0.1787 1.022,0.25124 1.18,0.16122 0.158,-0.09 2.645,-0.38722 5.526,-0.66042 2.882,-0.27321 6.59,-0.63529 8.242,-0.80463 2.507,-0.25701 3.004,-0.18651 3.004,0.42656 0,0.81825 -1.196,1.10432 -6.728,1.60937 -4.099,0.37427 -6.519,1.05651 -4.084,1.15167 0.792,0.031 4.112,0.0335 7.376,0.006 4.676,-0.04 5.891,0.0821 5.728,0.57544 -0.139,0.41892 -1.688,0.74104 -4.68,0.9733 -2.46,0.19093 -4.572,0.44642 -4.693,0.56774 -0.121,0.12132 0.626,0.65278 1.66,1.18101 1.034,0.52824 3.723,2.89826 5.974,5.26672 3.242,3.41023 4.554,5.2443 6.302,8.81413 2.696,5.50611 4.017,11.28916 3.665,16.05273 -0.04,0.52914 0.24,2.36911 0.62,4.08882 0.38,1.7197 0.57,3.60897 0.422,4.19836 -0.408,1.62038 -1.805,3.01199 -3.333,3.31786 -0.949,0.18996 -1.61,0.78015 -2.155,1.92559 -0.433,0.90843 -1.058,1.72308 -1.388,1.81034 -0.331,0.0873 -1.752,0.54082 -3.159,1.00792 -1.75,0.58132 -3.266,0.75775 -4.805,0.55918 -2.076,-0.26779 -2.175,-0.23438 -1.297,0.43432 0.524,0.39842 1.821,0.95932 2.884,1.24643 1.062,0.28711 2.181,0.59088 2.486,0.67505 1.191,0.32816 -0.666,3.79343 -3.272,6.10553 -1.413,1.25379 -2.807,2.28201 -3.098,2.28493 -0.29,0.003 -1.431,0.66001 -2.535,1.46021 -5.618,4.07439 -16.656,5.86622 -24.988,4.05653 z m 14.597,-2.22799 c 6.231,-1.37774 15.617,-6.08322 15.617,-7.82948 0,-0.36668 0.128,-0.99825 0.283,-1.40349 0.2,-0.52192 -0.25,-0.95962 -1.544,-1.5008 -2.555,-1.06853 -3.544,-2.09781 -3.544,-3.68808 0,-1.55208 -0.129,-1.51203 5.046,-1.56771 4.244,-0.0457 6.336,-1.01929 7.552,-3.51405 0.449,-0.92162 1.204,-1.4058 2.779,-1.78254 l 2.163,-0.51722 -0.05,-2.97566 c -0.03,-1.95299 -0.332,-3.41431 -0.88,-4.25202 -0.638,-0.97384 -0.762,-1.81072 -0.526,-3.5307 0.538,-3.91702 -1.819,-12.01204 -4.683,-16.07885 -3.457,-4.91097 -6.509,-8.29892 -8.791,-9.76056 -1.413,-0.90456 -2.692,-1.64466 -2.842,-1.64466 -0.15,0 -1.173,-0.56912 -2.274,-1.26471 -1.101,-0.69559 -4.055,-1.7864 -6.565,-2.42402 -8.59,-2.18199 -15.882,-1.38775 -24.081,2.62274 -3.809,1.86329 -5.204,2.8883 -8.52,6.26035 -2.181,2.21775 -4.936,5.63257 -6.122,7.5885 -3.183,5.24838 -3.853,8.19195 -3.773,16.5604 0.07,7.4511 0.06,7.41728 3.544,13.45433 1.273,2.20877 7.14,9.06367 9.205,10.75581 2.115,1.73305 8.437,5.06794 11.445,6.03718 4.318,1.39138 11.436,1.58712 16.556,0.45524 z m -14.671,-18.79464 c -3.005,-1.48814 -3.935,-3.2775 -3.69,-7.09755 0.24,-3.74143 1.727,-7.25586 4.008,-9.47308 1.749,-1.70076 3.526,-2.04656 4.497,-0.87534 0.926,1.1168 0.215,2.32779 -1.164,1.9815 -2.347,-0.58964 -5.58,4.7451 -5.543,9.14429 0.03,3.18985 2.27,4.96294 6.208,4.90854 2.336,-0.0323 2.873,0.32682 1.917,1.28187 -1.176,1.17462 -4.005,1.23351 -6.233,0.12977 z m 30.101,-15.12147 c -0.929,-0.49251 -2.003,-0.63788 -3.244,-0.43924 -1.588,0.25426 -1.855,0.16972 -1.855,-0.58863 0,-0.58978 0.79,-1.25561 2.364,-1.99359 1.3,-0.60944 2.469,-1.5123 2.598,-2.00638 0.129,-0.49407 0.549,-0.89831 0.933,-0.89831 0.508,0 0.775,0.82289 0.975,3.00648 0.152,1.65356 0.128,3.15258 -0.05,3.33114 -0.181,0.17856 -0.954,-0.007 -1.718,-0.41147 z m 85.243,-0.11858 c -3.777,-0.5543 -6.831,-2.04852 -11.938,-5.84138 -4.217,-3.13169 -5.364,-4.28988 -7.569,-7.644 -1.429,-2.1742 -2.598,-4.133 -2.598,-4.3529 0,-0.2199 -0.634,-0.53916 -1.408,-0.70947 -0.775,-0.17032 -1.616,-0.56633 -1.869,-0.88004 -0.836,-1.03637 -1.606,-5.81114 -1.446,-8.96864 0.146,-2.86151 0.253,-3.12892 1.359,-3.38642 1.031,-0.23981 1.222,-0.58474 1.342,-2.42508 0.143,-2.18904 1.98,-7.55372 3.609,-10.53747 0.867,-1.58711 0.869,-1.68408 0.05,-2.28492 -0.472,-0.34511 -1.141,-0.62748 -1.486,-0.62748 -0.803,0 -0.828,-1.77321 -0.03,-2.05858 0.331,-0.11803 1.211,0.094 1.957,0.47118 1.053,0.53283 1.509,0.55862 2.042,0.11561 0.944,-0.78388 0.86,-1.25677 -0.275,-1.55381 -0.575,-0.15052 -0.961,-0.65614 -0.961,-1.25869 0,-1.12933 0.812,-1.27364 2.594,-0.46096 1.026,0.46795 1.397,0.37843 2.588,-0.62528 1.284,-1.08165 1.338,-1.25202 0.694,-2.2229 -0.384,-0.57831 -0.572,-1.37927 -0.419,-1.77991 0.437,-1.13935 1.727,-0.855 2.239,0.49352 0.412,1.08487 0.586,1.15865 1.55,0.65773 2.084,-1.08281 2.275,-1.38099 1.697,-2.65082 -0.407,-0.8946 -0.393,-1.32105 0.06,-1.76736 0.471,-0.46455 0.737,-0.39689 1.267,0.32179 0.369,0.50051 0.744,1.12764 0.832,1.39362 0.1,0.29867 1.085,0.17661 2.576,-0.31922 2.224,-0.73964 2.399,-0.90819 2.218,-2.14253 -0.242,-1.65173 1.117,-3.11188 1.839,-1.97564 0.241,0.37984 0.353,0.92672 0.248,1.21528 -0.441,1.21281 0.541,1.72006 2.702,1.3957 1.95,-0.29275 2.134,-0.43282 1.935,-1.47467 -0.306,-1.59847 0.183,-2.65165 1.072,-2.31026 0.464,0.17826 0.739,0.89112 0.739,1.91604 0,1.49282 0.123,1.63216 1.442,1.63216 1.284,0 1.441,-0.15866 1.441,-1.4582 0,-1.57238 1.134,-2.40973 2.038,-1.50494 0.388,0.38846 0.374,0.87639 -0.05,1.80967 -0.687,1.51111 -0.753,1.42587 1.408,1.81632 1.591,0.28733 1.763,0.19744 2.403,-1.25904 0.829,-1.88586 2.153,-2.11816 2.084,-0.36588 -0.03,0.66143 -0.185,1.52729 -0.354,1.92415 -0.227,0.53299 0.677,1.24576 3.46,2.72745 l 3.768,2.0059 0.783,-1.64512 c 0.51,-1.06943 1.123,-1.64512 1.753,-1.64512 0.533,0 0.969,0.1683 0.969,0.374 0,0.53743 -1.521,2.68947 -2.194,3.10419 -0.382,0.23532 0.226,1.14922 1.841,2.76596 2.383,2.3853 3.378,2.87139 3.957,1.93348 0.416,-0.67438 2.162,-0.60231 2.162,0.0893 0,0.31367 -0.468,1.06905 -1.04,1.67865 l -1.04,1.10835 1.251,2.30047 c 1.497,2.75435 3.712,10.16203 3.712,12.41548 0,1.1121 0.383,1.96566 1.238,2.75873 1.491,1.38396 1.964,4.09687 1.207,6.91296 -0.381,1.41531 -1.165,2.5178 -2.713,3.81282 -1.198,1.00199 -2.819,3.02418 -3.603,4.49377 -2.667,5.00056 -7.001,8.99701 -13.222,12.19188 -4.422,2.27117 -13.198,3.28538 -19.908,2.30062 z m 14.396,-2.27415 c 4.27,-1.19214 11.16,-5.0566 13.28,-7.44914 5.933,-6.69561 9.036,-16.85717 7.443,-24.37691 -2.114,-9.98183 -5.799,-15.85171 -12.675,-20.18984 -5.779,-3.64627 -7.115,-4.04927 -14.275,-4.30778 -6.093,-0.21997 -6.721,-0.15583 -10.332,1.05501 -2.114,0.70908 -4.755,1.82061 -5.868,2.47008 -4.771,2.78319 -9.944,8.49265 -11.512,12.70634 -0.443,1.19057 -0.981,2.39945 -1.196,2.68641 -0.754,1.00744 -1.766,7.75982 -1.586,10.57921 0.368,5.73333 1.252,9.41085 2.985,12.41754 1.975,3.42714 3.449,5.18064 4.044,4.81211 0.233,-0.14379 0.364,0.0108 0.291,0.3435 -0.07,0.33271 0.418,0.8804 1.09,1.21707 0.673,0.33667 2.477,1.71054 4.009,3.05304 4.026,3.52647 8.165,5.38375 13.27,5.95425 2.709,0.30282 8.2,-0.18041 11.032,-0.97089 z m -14.534,-9.27277 c -1.662,-1.06617 -2.71,-2.41763 -2.73,-3.52062 -0.02,-1.27178 1.182,-1.01245 2.794,0.6013 1.257,1.25826 1.785,1.44311 4.12,1.44311 2.398,0 2.878,-0.18051 4.584,-1.72322 1.905,-1.72245 2.916,-1.82503 2.888,-0.2928 -0.02,1.12276 -0.881,2.11008 -2.925,3.35891 -2.215,1.35347 -6.721,1.42228 -8.731,0.13332 z m 2.38,-10.45557 c -0.176,-0.17638 -0.32,-1.25871 -0.32,-2.40518 0,-1.7638 0.148,-2.0845 0.961,-2.0845 1.033,0 1.178,0.72129 0.661,3.30713 -0.295,1.47795 -0.668,1.81664 -1.302,1.18255 z m 10.853,-4.80826 c -0.331,-0.13344 -0.601,-0.84909 -0.601,-1.59033 0,-1.56462 1.354,-2.64296 3.759,-2.99346 1.364,-0.19872 1.767,-0.009 2.763,1.2979 0.642,0.84184 1.167,1.889 1.167,2.32703 0,0.99323 -1.125,1.03702 -1.923,0.0748 -0.793,-0.95661 -1.252,-0.91059 -2.402,0.24052 -0.955,0.95564 -1.612,1.10863 -2.763,0.64349 z m -21.649,-2.18281 c -0.818,-0.8193 -0.72,-1.51579 0.42,-2.96566 0.634,-0.80684 1.463,-1.26681 2.282,-1.26567 2.64,0.004 6.466,3.45618 4.618,4.1662 -0.438,0.16798 -1.438,-0.0745 -2.223,-0.53874 -1.387,-0.8203 -1.448,-0.81553 -2.136,0.16848 -0.788,1.12582 -2.081,1.316 -2.961,0.43539 z m -14.691,6.95099 c -0.135,-0.463 -0.391,-2.08936 -0.569,-3.61414 -0.179,-1.52477 -0.516,-2.89047 -0.75,-3.03487 -0.604,-0.37408 -0.526,4.1686 0.103,5.97593 0.544,1.56185 1.651,2.17488 1.216,0.67308 z m 60.889,-2.40519 c 0.162,-0.85985 0.111,-1.56337 -0.114,-1.56337 -0.41,0 -1.022,2.32906 -0.994,3.78817 0.02,1.18121 0.737,-0.25504 1.108,-2.2248 z m -195.021,8.5232 c -3.149,-1.12971 -9.803,-4.63823 -11.164,-5.88701 -0.59,-0.54146 -1.199,-1.38316 -1.354,-1.87046 -0.242,-0.76276 -0.812,-0.88599 -4.102,-0.88599 -6.822,0 -14.177,-2.48632 -16.668,-5.63404 -3.036,-3.83806 -3.09,-5.65782 -0.27,-9.10344 2.803,-3.42445 5.289,-4.56678 13.376,-6.1468 1.85,-0.36148 5.085,-1.02392 7.19,-1.47208 2.243,-0.47744 4.63,-0.69389 5.767,-0.52274 1.067,0.16066 3.885,0.48558 6.264,0.72204 11.448,1.13806 17.759,4.47912 18.783,9.94438 0.724,3.86526 -1.274,7.07643 -5.568,8.94597 -1.189,0.51785 -3.08,1.35692 -4.202,1.8646 -1.121,0.50769 -3.608,1.16607 -5.526,1.46307 -1.918,0.297 -3.754,0.61306 -4.079,0.70235 -1.041,0.28499 -0.1,1.79603 2.891,4.62876 2.466,2.3374 2.805,2.85672 2.283,3.48751 -0.715,0.86124 -0.527,0.87344 -3.621,-0.23612 z m -3.407,-5.75488 c -1.908,-3.95895 -1.786,-4.15239 2.807,-4.47165 3.828,-0.26613 9.415,-1.90328 13.172,-3.85987 3.389,-1.76488 4.483,-5.24663 2.614,-8.31472 -1.253,-2.0577 -6.407,-4.78816 -10.722,-5.68029 -2.02,-0.41769 -6.495,-0.76593 -10.482,-0.81563 -7.559,-0.0942 -12.058,0.55106 -19.146,2.74637 -3.424,1.06025 -4.333,1.57773 -6.119,3.48352 -2.876,3.06874 -2.867,4.58646 0.05,7.50328 1.64,1.64183 2.828,2.34311 4.926,2.90813 1.52,0.4095 3.428,0.95686 4.24,1.21635 0.811,0.25948 3.298,0.47002 5.526,0.46787 l 4.05,-0.004 1.922,2.13167 c 1.587,1.76006 6.819,5.08682 8.006,5.09068 0.174,5.7e-4 -0.204,-1.08024 -0.841,-2.4018 z m 190.097,-30.51385 c 0,-0.77834 1.274,-2.19902 1.971,-2.19902 0.929,0 1.02,1.49923 0.131,2.17247 -1.166,0.88414 -2.102,0.89596 -2.102,0.0266 z m -8.169,-6.00798 c 0,-1.55907 0.54,-2.44453 1.493,-2.44453 1.007,0 1.177,1.00578 0.412,2.43681 -0.641,1.19941 -1.905,1.20453 -1.905,0.008 z"
         id="path1" /></g></g></svg>
