<?xml version="1.0" encoding="UTF-8" standalone="no"?>
<!-- Created with Inkscape (http://www.inkscape.org/) -->

<svg
   width="61.221001mm"
   height="62.240601mm"
   viewBox="0 0 61.221 62.240601"
   version="1.1"
   id="svg1"
   xml:space="preserve"
   xmlns="http://www.w3.org/2000/svg"
   xmlns:svg="http://www.w3.org/2000/svg"><defs
     id="defs1" /><g
     id="layer1"
     transform="translate(1472.671,3650.7208)"><g
       id="g1040"
       transform="matrix(0.26458333,0,0,0.26458333,-4130.4194,-3853.0953)"><path
         style="fill:#000000"
         d="m 10118.146,949.82422 c 0,-1.00014 0.147,-1.96662 0.327,-2.14773 0.89,-0.89288 1.569,-4.30611 1.546,-7.75883 -0.04,-5.86198 0.242,-5.60826 -6.444,-5.78683 -5.49,-0.14662 -8.196,-0.51758 -11.599,-1.58985 -1.467,-0.4622 -1.611,-0.4077 -2.06,0.77945 -1.175,3.10214 -1.475,5.93459 -0.95,8.9627 0.658,3.79121 -0.02,5.67758 -1.791,5.01803 -0.749,-0.27847 -0.986,-0.24067 -0.763,0.12193 0.216,0.3503 -0.01,0.41744 -0.693,0.20139 -0.643,-0.20488 -1.017,-0.11653 -1.017,0.24017 0,0.31958 -0.332,0.43648 -0.765,0.26959 -0.42,-0.16208 -1.731,0.0349 -2.912,0.43776 -2.917,0.99433 -4.735,1.14443 -6.967,0.57526 l -1.883,-0.47996 0.313,-2.09845 c 0.784,-5.24958 0.16,-12.65722 -1.066,-12.65722 -0.213,0 -1.377,-0.98037 -2.587,-2.1786 l -2.2,-2.17861 -0.309,2.05848 c -0.578,3.85451 -5.215,10.95929 -6.385,9.78391 -0.154,-0.15422 -0.356,-1.02632 -0.449,-1.93801 -0.127,-1.24468 0.06,-1.77821 0.731,-2.14176 1.843,-0.99007 4.402,-9.72237 3.404,-11.61219 -0.24,-0.45285 -0.164,-1.22855 0.188,-1.92193 0.742,-1.46532 1.576,-4.41086 1.986,-7.02302 0.184,-1.16816 1.1,-3.13904 2.179,-4.6847 1.023,-1.4675 1.66,-2.66818 1.414,-2.66818 -0.835,0 -1.473,-1.91917 -1.504,-4.52374 -0.02,-2.09025 -0.201,-2.6417 -0.901,-2.82545 -0.768,-0.20172 -0.814,-0.47271 -0.396,-2.32548 0.567,-2.51487 0.126,-6.05132 -0.88,-7.06187 -0.559,-0.56121 -0.665,-1.4072 -0.459,-3.64873 0.888,-9.64876 2.127,-12.43074 7.214,-16.20033 1.59,-1.17818 2.181,-1.34979 3.828,-1.11206 2.056,0.29682 5.35,2.18173 6.4,3.66274 0.805,1.13507 1.528,1.12842 1.528,-0.014 0,-1.15335 3.039,-2.34951 7.036,-2.76908 2.723,-0.28575 2.987,-0.41609 3.246,-1.60304 0.156,-0.71061 0.08,-1.81606 -0.158,-2.45657 -0.243,-0.6405 -0.445,-1.27266 -0.451,-1.40479 -0.1,-2.32758 -1.184,-6.36467 -3.233,-12.01207 -2.18,-6.01048 -5.006,-12.18196 -5.94,-12.97302 -0.156,-0.13213 -0.659,-0.83292 -1.118,-1.55729 -1.161,-1.83237 -2.313,-1.49679 -5.042,1.46803 -2.45,2.663 -4.099,3.2016 -4.632,1.51347 -0.25,-0.78871 -0.665,-0.95711 -2.146,-0.86935 -1.835,0.10874 -3.351,-0.66268 -3.351,-1.70539 0,-0.30381 1.83,-2.38068 4.067,-4.61526 2.237,-2.23459 4.067,-4.40705 4.067,-4.82769 0,-0.42064 -0.539,-1.2348 -1.197,-1.80924 -2.149,-1.87671 -1.036,-4.90518 1.436,-3.90709 0.526,0.21249 1.346,0.40154 1.821,0.42012 0.825,0.0322 0.827,-0.0298 0.04,-1.37344 -0.456,-0.77397 -1.221,-1.51049 -1.702,-1.63671 -1.939,-0.50915 -0.303,-3.68284 1.898,-3.68284 1.145,0 2.151,1.47973 1.739,2.558 -0.15,0.39338 0.14,0.99353 0.656,1.35613 0.908,0.63929 1.053,0.89329 1.053,1.85166 0,0.26427 0.239,0.48048 0.532,0.48048 0.5,0 0.381,-1.50747 -0.368,-4.64588 -0.347,-1.45323 1.869,-2.97792 2.981,-2.05115 0.471,0.39253 0.636,0.99266 0.444,1.6184 -0.459,1.49534 -0.689,4.25713 -0.395,4.7354 0.143,0.23212 0.869,-0.16433 1.614,-0.88099 1.873,-1.802 2.713,-1.31426 2.918,1.69536 0.09,1.35331 0.01,2.61739 -0.179,2.80907 -0.554,0.55508 2.086,8.50512 3.063,9.22473 0.188,0.13895 0.465,0.95119 0.615,1.80498 0.242,1.37883 5.691,12.46845 6.426,13.07758 0.16,0.13214 0.721,1.09817 1.247,2.14675 1.188,2.36587 3.241,4.51013 5.741,5.9951 1.053,0.62512 2.668,1.84776 3.589,2.71698 1.434,1.35377 2.052,1.59314 4.306,1.6692 2.792,0.0942 8.113,-0.3357 8.46,-0.68351 0.113,-0.11409 1.385,0.10168 2.825,0.47949 1.441,0.37781 2.814,0.56609 3.052,0.4184 0.238,-0.14769 1.276,-0.0783 2.307,0.15425 1.228,0.27723 2.3,0.23909 3.112,-0.11078 1.483,-0.63862 4.644,-3.47817 4.644,-4.17189 0,-0.64989 2.467,-2.81364 3.23,-2.83301 0.902,-0.0229 0.719,0.99483 -0.394,2.18411 -0.545,0.58302 -1.036,1.35371 -1.09,1.71266 -0.05,0.35894 -0.278,0.94174 -0.498,1.2951 -0.232,0.37318 -0.176,0.86659 0.133,1.17718 0.391,0.39263 0.533,0.36022 0.533,-0.12195 0,-0.36116 0.137,-0.5189 0.305,-0.35053 0.167,0.16837 0.9,-0.11992 1.628,-0.64064 0.729,-0.52073 1.507,-0.94811 1.729,-0.94973 0.223,-0.002 1.044,-0.33757 1.825,-0.74654 0.781,-0.40897 1.902,-0.62205 2.491,-0.47351 0.919,0.23162 1.153,-0.004 1.646,-1.65588 0.697,-2.33668 1.844,-2.52853 3.252,-0.54373 0.539,0.76022 1.696,1.72369 2.572,2.14105 1.948,0.92846 4.187,5.14555 3.301,6.21785 -0.611,0.73892 1.014,5.97557 3.042,9.8068 0.646,1.21931 1.174,2.93403 1.174,3.81049 0,2.29329 -2.127,4.33877 -4.955,4.76467 -1.576,0.23731 -2.273,0.59282 -2.487,1.26805 -0.163,0.51605 -0.3,3.57367 -0.304,6.79469 -0.01,8.16797 -0.09,7.66727 1.074,7.04361 1.358,-0.72984 6.391,-1.55149 9.464,-1.5449 l 2.553,0.005 0.899,-2.10618 c 0.603,-1.41455 1.192,-2.10619 1.793,-2.10619 1.505,0 1.579,0.55571 0.352,2.65867 -0.649,1.1108 -1.043,2.15621 -0.877,2.32314 0.7,0.70295 2.476,0.22509 3.182,-0.85595 0.416,-0.6377 1.414,-1.30456 2.218,-1.4819 1.701,-0.37531 2.626,0.50813 4.33,4.13672 l 1.04,2.21608 3.37,0.0854 c 1.853,0.047 4.535,-0.15752 5.959,-0.45443 2.942,-0.61349 4.383,-0.3416 3.547,0.6696 -0.896,1.08485 -3.92,1.70519 -9.03,1.85257 -2.697,0.0778 -4.904,0.17078 -4.904,0.20664 0,0.0359 0.321,0.68451 0.714,1.44145 0.394,0.75693 0.717,1.9276 0.718,2.60148 0,0.67387 0.198,1.43063 0.437,1.68169 0.498,0.52324 2.153,4.41614 1.673,3.93401 -0.461,-0.46358 -2.091,2.97108 -1.787,3.76672 0.142,0.37157 -0.18,1.42114 -0.716,2.33238 -0.535,0.91123 -0.776,1.72387 -0.536,1.80586 0.24,0.082 3.208,0.0834 6.595,0.003 l 6.158,-0.14588 -0.44,-2.42908 c -0.486,-2.68832 -0.272,-3.76568 0.748,-3.76568 0.768,0 1.159,1.53564 1.081,4.25344 l -0.05,1.85495 3.168,0.0925 c 2.937,0.0858 3.189,0.0122 3.462,-1.01214 0.511,-1.91466 0.342,-3.52275 -0.906,-8.62996 -0.667,-2.73198 -1.326,-5.56227 -1.464,-6.28954 -0.268,-1.4117 -0.878,-2.69396 -2.276,-4.78271 -0.479,-0.71511 -0.731,-1.52593 -0.562,-1.80181 0.17,-0.27589 0.08,-0.50162 -0.198,-0.50162 -0.854,0 -2.42,-1.86566 -2.42,-2.88289 0,-0.52853 0.207,-0.96097 0.459,-0.96097 0.663,0 2.89,2.51779 2.89,3.26671 0,0.34863 0.203,0.50777 0.452,0.35364 0.669,-0.41565 2.767,3.47372 3.36,6.22954 0.284,1.32133 0.705,2.94296 0.936,3.60362 0.711,2.03803 2.099,10.58114 1.772,10.90968 -0.402,0.40349 1.599,2.54383 2.378,2.54383 0.445,0 0.556,-1.0503 0.432,-4.09009 -0.09,-2.24955 0.05,-5.43875 0.303,-7.08712 0.257,-1.64836 0.589,-4.40903 0.737,-6.13483 l 0.269,-3.13781 -2.568,-0.70098 c -1.413,-0.38553 -2.836,-0.67361 -3.162,-0.64017 -0.326,0.0334 -0.475,-0.13101 -0.33,-0.36544 0.144,-0.23443 0.09,-0.4265 -0.125,-0.42682 -0.213,-3.2e-4 -0.997,-0.52725 -1.742,-1.17096 -0.745,-0.6437 -1.647,-1.05809 -2.003,-0.92087 -0.465,0.17926 -0.635,-0.17969 -0.604,-1.27507 0.05,-1.76513 1.008,-2.34515 2.186,-1.32341 1.548,1.3434 3.904,1.79776 7.68,1.48147 2.981,-0.24969 4.356,-0.6656 7.373,-2.23091 2.515,-1.30537 3.707,-2.1986 3.707,-2.77806 0,-0.46973 -0.173,-0.9617 -0.385,-1.09326 -0.212,-0.13156 -1.728,-2.91971 -3.369,-6.19589 -3.519,-7.02655 -5.991,-10.0873 -8.034,-9.94893 -0.753,0.051 -1.476,0.0549 -1.608,0.009 -2.747,-0.96469 -7.155,-0.78547 -11.961,0.48625 -5.693,1.50665 -14.777,1.36923 -21.273,-0.32184 -1.589,-0.41342 -4.287,-0.85178 -5.998,-0.97414 -1.71,-0.12236 -3.295,-0.40783 -3.523,-0.63437 -0.626,-0.62533 0,-1.31192 1.483,-1.60333 1.62,-0.32028 8.645,0.51872 9.863,1.1781 1.022,0.55243 7.929,1.35021 11.793,1.362 1.447,0.004 4.892,-0.5543 7.655,-1.24158 4.473,-1.11265 5.6,-1.21589 10.279,-0.94203 3.309,0.19365 5.646,0.56496 6.311,1.0025 1.507,0.99118 3.49,4.04347 6.394,9.84146 1.389,2.77334 2.786,5.36677 3.103,5.76317 0.318,0.39639 0.718,1.31532 0.89,2.04205 0.209,0.88243 0.622,1.32132 1.245,1.32132 1.141,0 4.793,1.84472 5.667,2.86203 0.57,0.66394 0.612,0.65924 0.394,-0.0449 -0.177,-0.5739 0,-0.72491 0.625,-0.55874 0.477,0.12524 1.012,-0.007 1.189,-0.29463 0.198,-0.32293 -0.136,-0.52234 -0.875,-0.52234 -0.658,0 -1.317,-0.1967 -1.465,-0.43712 -0.556,-0.90319 0.322,-1.76071 2.977,-2.90704 1.726,-0.74538 3.768,-2.20961 5.527,-3.96398 1.534,-1.53009 2.994,-2.78199 3.244,-2.78199 1.393,0 0.808,1.83187 -1.783,5.58163 -3.895,5.63591 -4.951,7.47216 -4.96,8.61938 0,0.54325 -0.546,1.7204 -1.204,2.61588 -1.371,1.86595 -1.501,3.47511 -0.479,5.93192 0.777,1.86728 0.977,6.34305 0.302,6.76186 -0.228,0.14187 -0.549,1.09555 -0.712,2.11929 -0.444,2.79296 -2.294,4.40801 -5.037,4.39887 -2.544,-0.008 -3.148,-0.30527 -3.603,-1.76994 -0.193,-0.62005 -0.595,-0.95391 -0.973,-0.80808 -0.355,0.13666 -0.787,0.0175 -0.961,-0.26476 -0.797,-1.29575 -1.31,-0.40486 -1.018,1.76905 0.785,5.85332 0.798,5.89596 1.637,5.49713 0.726,-0.34478 10.75,-0.33557 19.695,0.0181 3.164,0.12511 3.588,0.25039 3.588,1.05998 0,0.86031 -0.376,0.91166 -5.98,0.81571 -3.29,-0.0563 -6.686,-0.22687 -7.548,-0.37902 -0.862,-0.15214 -3.4,-0.12331 -5.64,0.0641 -3.481,0.29117 -4.038,0.45641 -3.835,1.13688 0.471,1.57374 -0.862,2.50606 -3.45,2.41407 -2.409,-0.0856 -2.41,-0.086 -2.985,-2.14853 -0.423,-1.51904 -0.438,-2.45722 -0.06,-3.55875 0.311,-0.89492 0.352,-1.82169 0.102,-2.30686 -0.229,-0.44603 -1.243,-3.36161 -2.253,-6.47905 -1.738,-5.36636 -1.857,-5.58377 -2.245,-4.0841 -0.358,1.38327 -0.278,6.66467 0.239,15.75821 0.148,2.59334 0.119,2.65833 -1.519,3.48275 -1.746,0.87832 -6.44,1.16205 -6.898,0.41697 -0.144,-0.23354 0.04,-1.423 0.403,-2.64325 0.366,-1.22024 0.525,-2.30268 0.353,-2.40542 -0.293,-0.17534 -18.668,-0.003 -21.005,0.19746 -0.593,0.0508 -1.076,0.41331 -1.076,0.80803 0,0.39371 -0.44,1.33642 -0.978,2.09491 -1.25,1.76333 -2.555,6.02979 -2.42,7.91444 0.09,1.23669 -0.174,1.61458 -1.734,2.49493 -3.095,1.74708 -3.564,0.80787 -2.572,-5.15358 0.286,-1.71773 0.522,-3.2882 0.524,-3.48995 0,-0.20175 -0.804,-0.0237 -1.791,0.39575 -0.987,0.41941 -3.573,1.34124 -5.747,2.0485 -2.58,0.83931 -4.045,1.57798 -4.218,2.12678 -0.147,0.46247 -0.454,0.84085 -0.684,0.84085 -0.229,0 -0.985,1.8919 -1.68,4.20422 -0.695,2.31232 -1.348,4.47774 -1.452,4.81203 -0.245,0.78908 -2.646,1.7057 -3.148,1.20174 -0.213,-0.21357 -0.08,-1.39358 0.283,-2.62223 0.564,-1.88159 0.924,-6.09209 0.776,-9.07725 -0.04,-0.78181 -0.215,-0.8509 -2.669,-1.04667 -1.319,-0.1052 -1.487,0.0611 -2.072,2.04767 -0.349,1.1892 -0.968,3.28791 -1.374,4.66382 -0.829,2.80607 -2.092,4.25823 -3.3,3.79276 -0.656,-0.25294 -0.75,-0.73853 -0.52,-2.69006 0.261,-2.21387 0.219,-2.34303 -0.589,-1.83596 -1.429,0.89597 -2.305,0.13735 -2.864,-2.47968 -0.797,-3.73437 -0.642,-6.66982 0.475,-8.98701 l 1,-2.07375 -1.211,-2.44054 c -1.161,-2.3386 -1.238,-2.39765 -1.837,-1.41382 -1.154,1.89255 -4.869,3.04541 -9.597,2.97795 l -2.751,-0.0392 v 2.08447 c 0,2.31205 0.713,4.28376 2.14,5.91854 1.213,1.39024 1.928,1.36352 3.212,-0.12012 1.419,-1.63826 1.981,-1.51498 2.929,0.64193 1.055,2.40242 1.034,2.62025 -0.429,4.36627 -1.151,1.37376 -1.461,1.47831 -4.373,1.47831 -3.593,0 -7.107,-1.4369 -7.925,-3.24005 -0.271,-0.59636 -0.648,-1.08429 -0.838,-1.08429 -0.19,0 -0.458,-0.43333 -0.596,-0.96295 -0.309,-1.18702 -1.461,-0.84621 -2.132,0.63062 -0.357,0.78641 -0.235,1.72222 0.48,3.69571 0.527,1.45346 1.227,2.96698 1.557,3.36338 0.329,0.39639 0.758,1.26126 0.953,1.92193 0.195,0.66066 0.57,1.47147 0.833,1.8018 1.147,1.43994 -2.687,3.29898 -5.908,2.86502 -1.387,-0.18677 -2.154,-0.0118 -3.049,0.69578 -0.797,0.62966 -2.157,1.00741 -4.073,1.13131 l -2.875,0.18602 z m 5.724,-1.96241 c 0.799,-0.78388 1.486,-1.91902 1.527,-2.52253 0.177,-2.58953 0.351,-3.68268 1.095,-6.86307 0.433,-1.84986 1.076,-4.01203 1.43,-4.80482 1.288,-2.88845 1.309,-3.41204 0.158,-3.93942 -0.596,-0.27299 -2.052,-1.23871 -3.236,-2.14605 -2.933,-2.24725 -3.546,-2.41745 -4.728,-1.312 -1.506,1.40947 -8.025,1.79162 -9.436,0.55319 -1.962,-1.72231 -2.181,-2.76764 -2.043,-9.75129 0.07,-3.67109 0,-6.80845 -0.164,-6.97192 -0.162,-0.16347 -2.365,0.0344 -4.894,0.43971 -4.092,0.65566 -5.297,0.65901 -10.924,0.0305 -6.647,-0.74233 -9.973,-0.55891 -11.141,0.61436 -2.015,2.02377 -3.176,4.2077 -4.058,7.63441 -1.203,4.67624 -0.97,6.14727 1.46,9.21205 1.517,1.91318 2.115,2.34095 3.029,2.16548 1.165,-0.22368 1.692,0.43301 2.015,2.51005 0.986,6.34821 1.216,9.07619 0.96,11.3691 -0.303,2.71609 -0.301,2.7209 1.116,3.03349 0.89,0.19619 1.937,0.0446 2.805,-0.40613 1.267,-0.658 1.391,-0.95367 1.457,-3.47489 0.04,-1.51563 -0.13,-4.18188 -0.376,-5.92501 -0.323,-2.28881 -0.285,-3.63454 0.136,-4.8439 0.786,-2.25288 4.21,-6.65823 5.202,-6.69229 0.439,-0.0151 0.896,-0.29763 1.017,-0.62797 0.175,-0.48048 0.346,-0.48048 0.853,0 0.522,0.49462 0.491,0.60061 -0.179,0.60061 -0.513,0 -0.814,0.381 -0.814,1.0316 0,0.56738 -0.753,1.95512 -1.674,3.08388 -1.972,2.41614 -2.017,2.61361 -0.598,2.60391 0.87,-0.006 0.939,-0.0965 0.359,-0.47312 -0.585,-0.37957 -0.519,-0.47825 0.358,-0.53319 1.899,-0.11889 4.529,-1.31359 4.171,-1.89467 -0.266,-0.43249 0.838,-0.1979 5.039,1.07048 1.743,0.52601 5.331,1.0604 8.16,1.21518 4.193,0.2294 5.346,0.13529 6.794,-0.55477 0.959,-0.45708 1.944,-0.70658 2.189,-0.55446 1.11,0.68899 1.47,12.01423 0.502,15.79711 -0.78,3.05092 0.156,3.56167 2.433,1.32643 z m -23.905,-20.70529 c 0,-0.27986 0.215,-0.37521 0.478,-0.21189 0.263,0.16333 0.479,0.39231 0.479,0.50884 0,0.11654 -0.216,0.21189 -0.479,0.21189 -0.263,0 -0.478,-0.22898 -0.478,-0.50884 z m -3.349,-3.81551 c 0,-0.26426 0.228,-0.48048 0.506,-0.48048 0.279,0 0.374,0.21622 0.211,0.48048 -0.162,0.26427 -0.39,0.48049 -0.506,0.48049 -0.116,0 -0.211,-0.21622 -0.211,-0.48049 z m 33.327,23.39369 c 1.131,0.40936 1.079,-0.7847 -0.153,-3.5221 -1.17,-2.59964 -1.294,-2.72277 -1.624,-1.61325 -0.196,0.66066 -0.378,2.23584 -0.404,3.5004 -0.04,2.04141 0.05,2.25071 0.79,1.86674 0.46,-0.23786 1.086,-0.34216 1.391,-0.23179 z m -34.16,-1.96387 c 0.621,-0.47302 0.797,-1.14852 0.67,-2.56865 -0.09,-1.05977 0.01,-3.28492 0.238,-4.9448 0.226,-1.65987 0.336,-3.09268 0.245,-3.18401 -0.274,-0.27593 -3.385,0.88347 -4.062,1.51415 -0.487,0.45372 -0.554,1.6511 -0.293,5.22219 0.314,4.29536 0.412,4.63238 1.349,4.61822 0.556,-0.008 1.39,-0.3041 1.853,-0.6571 z m 43.294,-7.61594 c -0.592,-0.5946 -1.254,-1.02168 -1.471,-0.94906 -0.217,0.0726 -0.262,-0.0832 -0.1,-0.34626 0.162,-0.26305 -0.09,-1.18733 -0.562,-2.05395 -0.794,-1.45919 -1.285,-6.31451 -1.581,-15.62979 -0.03,-1.12313 -0.264,-2.04205 -0.508,-2.04205 -0.243,0 -0.442,-0.64865 -0.442,-1.44145 0,-0.7928 -0.228,-1.44145 -0.507,-1.44145 -0.279,0 -0.39,-0.18977 -0.247,-0.42171 0.365,-0.59328 -2.962,-4.02881 -3.549,-3.66454 -0.265,0.16451 -0.482,0.062 -0.482,-0.22788 0,-0.34555 -0.7,-0.42623 -2.033,-0.23434 -1.119,0.16095 -2.357,0.28822 -2.751,0.28282 -1.041,-0.0142 -4.309,1.00605 -4.291,1.33954 0,0.1559 0.328,0.69815 0.71,1.205 0.509,0.67555 0.555,1.0897 0.173,1.55147 -0.727,0.8799 -1.992,0.10931 -3.202,-1.9503 -0.538,-0.91536 -1.674,-2.02553 -2.524,-2.46704 -1.422,-0.73857 -1.673,-0.74157 -3.143,-0.0376 -1.105,0.52923 -1.603,1.10091 -1.614,1.85403 0,0.59887 -0.138,3.49606 -0.286,6.43819 -0.298,5.90958 0.02,7.09644 2.125,7.95226 1.722,0.69949 3.684,0.54354 5.518,-0.43844 0.831,-0.44464 1.694,-0.75639 1.919,-0.69278 0.225,0.0636 0.705,-0.13036 1.065,-0.43103 0.512,-0.42606 1.174,-0.16477 3.004,1.18435 2.672,1.96988 2.748,1.99038 3.724,1.0103 0.996,-1.00009 1.963,-0.90005 2.324,0.24024 0.167,0.52853 0.498,0.96096 0.735,0.96096 0.237,0 0.303,0.33467 0.147,0.7437 -0.325,0.84904 2.203,6.07192 3.86,7.97519 1.158,1.33033 3.446,2.76057 4.468,2.79345 0.329,0.0106 0.113,-0.46725 -0.479,-1.06184 z m -14.553,-19.76777 c -1.103,-0.95295 -1.169,-1.18059 -0.603,-2.09145 1.173,-1.88507 4.048,-2.10214 4.836,-0.36505 0.446,0.98256 0.396,1.36459 -0.28,2.11427 -1.284,1.42453 -2.571,1.536 -3.953,0.34223 z m 7.018,16.52451 c 0,-0.26427 -0.215,-0.48048 -0.479,-0.48048 -0.263,0 -0.478,0.21621 -0.478,0.48048 0,0.26426 0.215,0.48048 0.478,0.48048 0.264,0 0.479,-0.21622 0.479,-0.48048 z m 38.821,-1.92193 c 0.721,0 1.444,0.21622 1.607,0.48048 0.514,0.8354 2.098,0.52041 2.657,-0.52836 0.405,-0.75986 0.852,-0.94758 1.811,-0.76059 1.948,0.37973 3.767,-0.14566 5.084,-1.46772 0.693,-0.69572 1.498,-1.08026 1.92,-0.91735 0.404,0.15548 0.735,0.0195 0.743,-0.30504 0,-0.32204 0.308,-0.97244 0.665,-1.44533 0.595,-0.78845 0.713,-0.79596 1.416,-0.0904 0.702,0.70555 0.865,0.66143 1.966,-0.53168 0.661,-0.7156 1.201,-1.78358 1.201,-2.3733 0,-0.58972 0.339,-1.35509 0.754,-1.70083 0.529,-0.4404 0.67,-1.08131 0.472,-2.1405 -0.214,-1.14661 -0.05,-1.72345 0.681,-2.38758 1.262,-1.14648 1.216,-1.90069 -0.232,-3.80718 -1.296,-1.70623 -1.535,-2.97255 -0.618,-3.27946 0.318,-0.10653 -0.112,-0.6036 -0.957,-1.1046 -0.998,-0.59188 -1.535,-1.28595 -1.535,-1.98173 0,-0.58895 -0.504,-1.65905 -1.12,-2.37801 -0.886,-1.03422 -1.583,-1.32658 -3.338,-1.4 -1.22,-0.051 -2.548,-0.36772 -2.951,-0.70374 -0.455,-0.37903 -1.379,-0.50561 -2.435,-0.33346 -0.937,0.15261 -2.207,0.0466 -2.824,-0.2355 -0.871,-0.39846 -1.364,-0.34216 -2.209,0.25221 -0.618,0.43467 -1.548,0.64904 -2.154,0.49631 -0.705,-0.17753 -1.4,0.0653 -2.047,0.71476 -0.538,0.54099 -1.472,1.05001 -2.074,1.13115 -1.534,0.20651 -3.101,1.40559 -3.317,2.53812 -0.123,0.64117 -0.587,0.97152 -1.411,1.00328 -0.675,0.026 -1.856,0.22258 -2.625,0.43674 -0.769,0.21416 -1.751,0.34536 -2.184,0.29157 -0.994,-0.12375 -2.807,2.15096 -2.785,3.49336 0,0.55896 0.325,1.55683 0.701,2.21749 0.864,1.51889 0.88,1.92193 0.07,1.92193 -1.085,0 -2.296,-1.75095 -2.549,-3.68644 -0.459,-3.50689 3.136,-6.87075 7.355,-6.88149 0.579,-10e-4 1.225,-0.2838 1.435,-0.62739 0.6,-0.9793 3.308,-2.73468 4.284,-2.7766 0.629,-0.027 0.516,-0.17297 -0.392,-0.50698 l -1.275,-0.46905 0.192,-6.58013 c 0.106,-3.61908 0.31,-7.6006 0.453,-8.84782 0.219,-1.91284 0.09,-2.43589 -0.811,-3.34261 -1.847,-1.85479 -5.659,-4.20831 -6.372,-3.93357 -0.562,0.21644 -1.205,1.37023 -1.437,2.57686 -0.156,0.81766 -3.009,5.8827 -4.365,7.7521 -0.889,1.2246 -1.616,2.45125 -1.616,2.7259 0,0.27466 -0.504,1.11056 -1.12,1.85756 -1.532,1.85926 -2.048,3.3893 -3.927,11.6549 -0.146,0.64214 -0.353,1.30899 -0.459,1.48188 -0.158,0.25717 -0.6,2.37453 -0.785,3.76058 -0.183,1.37879 0.145,5.84193 0.43,5.8405 0.197,-9.9e-4 0.77,-1.02802 1.272,-2.28229 2.788,-6.96336 4.566,-10.68893 5.101,-10.68893 0.748,0 0.507,1.1881 -0.989,4.87516 -0.788,1.9433 -1.434,3.87562 -1.435,4.29404 0,0.41842 -0.163,0.92293 -0.361,1.12113 -0.197,0.1982 -0.372,0.50451 -0.389,0.68068 -0.02,0.17618 -0.281,1.17303 -0.585,2.21524 -0.305,1.0422 -0.461,1.98885 -0.347,2.10367 0.115,0.11482 0.895,-0.90006 1.733,-2.25528 1.435,-2.31692 2.433,-2.99767 3.014,-2.05433 0.138,0.22533 -0.04,0.81087 -0.397,1.3012 -0.357,0.49032 -0.553,1.14293 -0.436,1.45023 0.117,0.3073 -0.122,0.68795 -0.532,0.84589 -0.433,0.16697 -0.739,0.84651 -0.73,1.62357 0.01,1.10003 0.1,1.19432 0.481,0.53311 0.775,-1.33318 3.14,-1.5793 4.639,-0.48269 1.297,0.94875 1.312,0.94879 3.147,0.009 1.695,-0.86865 1.935,-0.88424 2.983,-0.19408 0.628,0.41272 1.447,0.7504 1.82,0.7504 0.785,0 2.384,2.23593 2.021,2.8255 -0.134,0.21777 0.715,0.0791 1.886,-0.30821 2.473,-0.81758 3.705,-0.55034 3.263,0.70778 -0.604,1.71838 -2.614,3.9662 -4.238,4.74049 -0.915,0.43594 -1.657,0.93015 -1.648,1.09824 0.03,0.64205 1.29,1.95768 1.587,1.65951 0.171,-0.17207 0.311,-0.0906 0.311,0.18108 0,0.27166 0.538,0.3906 1.196,0.26431 0.786,-0.15089 1.196,-0.0127 1.196,0.40296 0,0.49202 0.128,0.50447 0.574,0.056 0.316,-0.31712 1.165,-0.57658 1.886,-0.57658 z m 1.487,-4.63107 c -0.329,-0.13961 -0.598,-0.65023 -0.598,-1.13472 0,-1.12685 0.782,-1.37734 2.845,-0.9116 0.906,0.20467 1.875,0.2284 2.153,0.0527 0.277,-0.17568 1.189,-0.3654 2.026,-0.4216 1.736,-0.11655 4.459,-1.39601 4.459,-2.09525 0,-0.829 1.359,-0.49757 1.529,0.3727 0.178,0.91702 -1.399,2.42805 -3.725,3.56908 -1.432,0.70241 -7.446,1.09602 -8.689,0.56866 z m -1.887,-8.65168 c -0.505,-1.32309 1.22,-2.14991 4.16,-1.99297 1.958,0.10456 2.631,0.32498 2.631,0.86125 0,0.53181 -0.553,0.72072 -2.112,0.72072 -1.264,0 -2.193,0.24114 -2.312,0.6006 -0.292,0.87378 -2.013,0.73584 -2.367,-0.1896 z m 13.547,0.4028 c -0.529,-0.85963 0.425,-4.64528 1.209,-4.79689 1.037,-0.20055 1.328,1.23346 0.657,3.23336 -0.562,1.67759 -1.376,2.35939 -1.866,1.56353 z m -21.052,-2.74717 c -1.673,-1.68075 -0.16,-4.43935 2.556,-4.65929 2.28,-0.18464 2.573,1.16001 0.393,1.8043 -1.266,0.37401 -1.575,0.7168 -1.592,1.76728 -0.03,1.72387 -0.415,2.03333 -1.357,1.08771 z m 17.611,-4.44199 c -0.283,-0.19327 -0.662,-0.75431 -0.844,-1.24675 -0.249,-0.67838 -0.589,-0.80852 -1.4,-0.53703 -0.589,0.19708 -1.717,0.40409 -2.506,0.46003 -0.789,0.0559 -1.758,0.22549 -2.153,0.37678 -2.094,0.80254 -3.379,0.83574 -3.662,0.0946 -0.637,-1.66552 2.804,-3.08453 7.506,-3.09541 2.934,-0.007 3.176,0.0773 3.932,1.36287 0.648,1.10044 0.691,1.52423 0.223,2.1532 -0.321,0.43071 -0.814,0.62498 -1.096,0.43171 z m 5.058,-0.10114 c -0.628,-0.39875 -0.613,-0.5605 0.116,-1.29337 0.975,-0.97876 2.014,-0.3217 1.523,0.96277 -0.349,0.91471 -0.63,0.97131 -1.639,0.3306 z m -23.498,14.61088 c 0.359,0.22304 0.475,-0.18405 0.358,-1.25977 -0.119,-1.0997 -0.45,-1.6388 -1.075,-1.74996 -0.497,-0.0884 -1.144,-0.46914 -1.438,-0.84617 -0.463,-0.59252 -0.614,-0.58987 -1.118,0.0195 -0.32,0.38775 -0.453,0.91575 -0.294,1.17333 0.158,0.25758 0.07,0.60414 -0.198,0.77013 -0.944,0.58602 -0.5,1.68653 0.681,1.68653 0.643,0 1.316,0.2393 1.496,0.53178 0.232,0.37845 0.432,0.3607 0.692,-0.0616 0.201,-0.32633 0.604,-0.44505 0.896,-0.2638 z m -12.973,-4.44067 c 0.104,-0.31382 -0.04,-0.57058 -0.329,-0.57058 -0.285,0 -0.518,0.2427 -0.518,0.53932 0,0.353 -0.289,0.31151 -0.837,-0.12012 -0.763,-0.60036 -0.778,-0.58268 -0.168,0.19741 0.714,0.91265 1.541,0.89209 1.852,-0.046 z m -6.307,-1.40942 c -0.164,-0.16406 -0.563,-0.0107 -0.887,0.34076 -0.469,0.50735 -0.467,0.56917 0,0.29998 0.343,-0.19396 0.615,-0.0699 0.636,0.28987 0.03,0.51656 0.08,0.51626 0.289,-0.002 0.139,-0.34685 0.118,-0.76487 -0.05,-0.92894 z m 84.413,-0.72272 c 0.108,-1.12313 0.195,-4.12876 0.191,-6.67918 0,-5.36433 -0.406,-6.17373 -3.045,-6.17373 h -1.77 l 0.323,2.28229 c 0.445,3.14621 1.452,6.81009 1.957,7.12364 0.231,0.14324 0.42,0.6537 0.42,1.13436 0,0.82381 1.287,4.35467 1.587,4.35467 0.08,0 0.228,-0.91893 0.337,-2.04205 z m -88.186,0.77767 c -0.166,-0.16688 -0.09,-0.70743 0.176,-1.20121 0.263,-0.49378 0.292,-0.89779 0.06,-0.89779 -0.229,0 -0.415,-0.64865 -0.415,-1.44145 0,-0.79279 0.15,-1.44144 0.335,-1.44144 0.294,0 0.319,-3.12694 0.06,-8.04809 -0.118,-2.28564 -1.17,-1.93212 -2.309,0.77623 -0.85,2.01905 -0.898,2.49401 -0.352,3.4835 0.348,0.63014 0.64,1.61943 0.65,2.19843 0,0.579 0.232,1.18636 0.495,1.34968 0.263,0.16333 0.479,1.47339 0.479,2.91126 0,1.67152 0.201,2.61429 0.558,2.61429 0.307,0 0.422,-0.13654 0.256,-0.30341 z m 94.447,-4.56147 c -0.535,-1.88578 0.224,-3.27821 1.795,-3.29596 0.49,-0.006 0.571,0.42325 0.328,1.72478 -0.247,1.3202 -0.174,1.68263 0.306,1.52393 0.346,-0.11451 0.7,-0.69504 0.787,-1.29005 0.1,-0.67816 0.661,-1.25809 1.507,-1.55416 0.742,-0.25977 1.447,-0.84991 1.567,-1.31143 0.313,-1.20019 -1.195,-4.75889 -1.912,-4.51263 -1.807,0.621 -3.609,-3.22225 -1.983,-4.23119 0.362,-0.22476 0.698,-0.93365 0.747,-1.57532 0.07,-0.95071 -0.09,-1.11977 -0.875,-0.91333 -0.531,0.13933 -1.07,0.52785 -1.198,0.86338 -0.128,0.33554 -0.87,0.87508 -1.649,1.19899 -1.383,0.57563 -1.393,0.60437 -0.444,1.27245 1.82,1.27975 0.759,4.42554 -1.308,3.88253 -0.79,-0.20725 -0.819,0.0536 -0.403,3.63288 0.256,2.21563 0.765,4.22989 1.196,4.73462 0.832,0.97599 1.83,0.879 1.539,-0.14949 z m -97.896,-8.87628 c 0.122,-1.03098 0.313,-2.45095 0.424,-3.15549 0.241,-1.51612 -0.27,-1.71136 -5.537,-2.11402 -2.325,-0.17779 -5.578,0.0508 -9.715,0.6827 -6.178,0.94361 -9.958,0.96446 -13.79,0.0761 -3.201,-0.74216 -3.541,-0.64616 -3.801,1.07463 -0.13,0.85887 -0.123,2.28248 0.01,3.16359 0.244,1.55969 0.296,1.59235 1.976,1.23609 0.949,-0.20126 2.322,-0.40096 3.051,-0.44379 0.73,-0.0428 2.354,-0.56126 3.61,-1.15207 l 2.284,-1.07419 2.734,1.42441 c 1.503,0.78343 2.841,1.24874 2.974,1.03403 0.132,-0.21472 0.888,-0.53335 1.68,-0.70808 1.055,-0.23257 1.628,-0.76868 2.141,-2.00121 0.798,-1.91878 1.835,-1.91892 2.061,-2.7e-4 0.106,0.89682 0.431,1.28427 1.077,1.28427 0.509,0 0.925,-0.22898 0.925,-0.50884 0,-0.27986 0.209,-0.37913 0.464,-0.22059 0.256,0.15854 0.612,-0.31519 0.792,-1.05273 0.629,-2.58202 2.093,-2.51343 2.093,0.0981 0,1.39267 0.271,1.77565 1.914,2.70278 1.052,0.5941 1.914,1.29262 1.914,1.55227 0,1.16193 0.514,-0.20504 0.714,-1.89766 z m -35.908,1.2025 c -0.147,-0.2389 0.07,-0.43436 0.478,-0.43436 0.601,0 0.746,-0.61913 0.746,-3.16909 0,-2.30464 0.242,-3.51697 0.886,-4.44446 1.058,-1.52369 2.291,-4.91004 2.694,-7.40153 0.185,-1.14246 0.551,-1.80181 1.002,-1.80181 1.177,0 1.303,1.2652 0.487,4.89376 -0.894,3.97626 -0.977,3.85459 3.222,4.74947 2.918,0.62178 6.155,0.40948 14.964,-0.98143 1.607,-0.25368 4.298,-0.32545 5.981,-0.15949 4.775,0.47096 9.071,0.3904 9.43,-0.17682 0.201,-0.318 0.728,-0.36622 1.368,-0.12536 0.994,0.37364 1.031,0.60022 0.803,4.98458 -0.173,3.34228 -0.09,4.59314 0.326,4.59314 0.31,0 0.45,-0.29798 0.311,-0.66217 -0.139,-0.3642 -0.08,-0.85069 0.131,-1.08109 0.444,-0.48469 2.028,-7.50827 1.904,-8.44109 -0.163,-1.21538 0.04,-1.83662 0.867,-2.68472 1.732,-1.77311 8.284,-12.53453 9.412,-15.45953 0.455,-1.17827 1.241,-2.43378 1.747,-2.79002 0.507,-0.35624 0.921,-0.97321 0.921,-1.37103 0,-1.15076 1.508,-5.46846 1.91,-5.46846 0.871,0 1.29,1.38541 1.161,3.84386 -0.138,2.64069 -0.137,2.64354 1.864,3.84386 1.101,0.66066 2.989,2.23635 4.196,3.50152 2.017,2.11354 2.301,2.25992 3.498,1.80271 0.717,-0.27368 1.167,-0.71959 1,-0.9909 -0.167,-0.27131 -0.03,-0.43387 0.302,-0.36126 1.176,0.25673 0.958,-1.61027 -0.49,-4.18715 -0.807,-1.43516 -1.664,-3.42884 -1.906,-4.43041 -0.399,-1.65396 -2.478,-7.74809 -2.829,-8.29363 -0.08,-0.12448 -0.328,0.0687 -0.549,0.42927 -0.229,0.37172 -0.826,0.54472 -1.379,0.39954 -0.585,-0.1536 -1.077,0.0111 -1.23,0.41158 -0.306,0.80041 -2.044,0.89385 -2.3,0.12364 -0.126,-0.38007 -0.606,-0.32143 -1.594,0.19459 -1.697,0.88626 -3.027,2.32893 -4.53,4.91398 -1.494,2.56983 -1.423,2.51803 -2.131,1.54504 -0.588,-0.80745 -0.705,-0.78685 -2.067,0.36414 -0.944,0.7974 -1.736,1.10745 -2.287,0.89509 -0.489,-0.18857 -0.724,-0.13222 -0.56,0.13425 0.155,0.25255 -0.08,0.48872 -0.52,0.52483 -2.25,0.18409 -3.46,0.57434 -4.838,1.55934 -0.866,0.61951 -1.913,0.97809 -2.446,0.83798 -0.513,-0.1347 -1.054,-0.049 -1.201,0.19047 -0.147,0.23946 -0.806,0.43538 -1.464,0.43538 -0.676,0 -1.067,-0.20911 -0.9,-0.48049 0.383,-0.62263 -0.06,-0.60961 -1.265,0.037 -0.53,0.28462 -1.266,0.40091 -1.635,0.25843 -0.84,-0.32346 -0.4,-1.59635 0.668,-1.93419 0.438,-0.13862 -1.249,-0.15239 -3.749,-0.0306 -2.683,0.13069 -6.8,-0.079 -10.047,-0.51177 -7.758,-1.03375 -9.253,-1.18039 -14.114,-1.38405 -6.06,-0.25391 -8.391,0.45241 -10.983,3.32788 -1.543,1.71191 -2.319,2.23316 -3.044,2.04293 -0.704,-0.18501 -0.9,-0.0668 -0.711,0.42883 0.144,0.37633 -0.07,1.05806 -0.487,1.51495 -1.535,1.70382 -2.518,10.57638 -1.306,11.79351 0.277,0.27787 0.504,0.84034 0.504,1.24996 0,0.40961 0.646,1.5015 1.435,2.42643 0.788,0.92493 2.331,3.43497 3.43,5.57786 1.697,3.31281 1.899,4.00079 1.346,4.59483 -0.566,0.60866 -0.767,0.58102 -1.559,-0.21455 -0.5,-0.50226 -1.22,-1.59695 -1.599,-2.43265 -0.978,-2.15333 -2.489,-4.62481 -3.37,-5.50892 -1.535,-1.54156 -2.621,-5.04809 -2.634,-8.50679 -0.02,-4.14538 0.922,-9.31794 1.895,-10.44679 0.664,-0.76952 0.628,-0.84069 -0.426,-0.83904 -1.93,0.003 -4.156,1.74536 -5.414,4.23882 -1.241,2.45992 -2.029,8.28746 -2.481,18.34206 -0.247,5.50788 0.162,6.36205 2.838,5.9259 1.641,-0.26752 1.755,-0.39736 1.764,-2.02479 0,-0.96162 0.421,-2.27449 0.928,-2.93701 0.857,-1.12044 0.939,-1.1392 1.263,-0.28951 0.191,0.49971 0.126,1.49686 -0.144,2.21589 -0.586,1.55964 0,2.87531 1.265,2.87531 0.485,0 1.005,-0.32433 1.157,-0.72073 0.395,-1.03321 1.786,-0.88949 2.074,0.21417 0.173,0.66447 0.748,0.98445 1.988,1.10619 3.451,0.33869 6.285,0.2609 6.023,-0.16527 z m 34.715,-15.56956 c 0,-0.3964 0.323,-0.72073 0.718,-0.72073 0.394,0 0.717,0.32433 0.717,0.72073 0,0.3964 -0.323,0.72072 -0.717,0.72072 -0.395,0 -0.718,-0.32432 -0.718,-0.72072 z m 9.343,-2.52253 c 0.17,-1.25527 0.476,-2.93766 0.679,-3.73867 0.203,-0.801 0.278,-2.09831 0.167,-2.88289 -0.114,-0.8061 0.104,-1.8417 0.502,-2.38111 0.692,-0.93729 0.723,-0.93812 1.705,-0.0456 1.128,1.02486 1.343,3.40801 0.343,3.79351 -0.362,0.13939 -0.813,1.29481 -1.003,2.56761 -0.385,2.57329 -1.449,4.96949 -2.209,4.96949 -0.315,0 -0.382,-0.82791 -0.184,-2.28229 z m 20.201,-15.05357 c -1.114,-0.65116 -1.061,-2.01215 0.119,-3.08465 0.924,-0.83922 0.991,-0.83922 1.914,0 1.213,1.10198 1.226,2.46405 0.03,3.10623 -1.102,0.59196 -1.015,0.59287 -2.065,-0.0216 z m 66.14,28.47544 c -1.258,-0.20621 -2.41,0.88961 -1.718,1.63394 0.389,0.41738 0.785,0.30148 1.581,-0.46264 1.016,-0.97431 1.022,-1.02628 0.137,-1.1713 z m -90.9,1.38132 c 0,-0.24867 -0.215,-0.58576 -0.478,-0.74908 -0.263,-0.16333 -0.478,0.0401 -0.478,0.45212 0,0.412 0.215,0.74908 0.478,0.74908 0.263,0 0.478,-0.20345 0.478,-0.45212 z m 49.836,-2.46423 c -0.569,-0.46272 -1.038,-1.13097 -1.042,-1.48501 0,-0.48555 -0.119,-0.46669 -0.461,0.0767 -0.327,0.52022 -0.159,1.00377 0.605,1.73993 0.583,0.56072 1.256,0.90478 1.496,0.76457 0.24,-0.1402 -0.03,-0.6335 -0.598,-1.09622 z m 41.467,-1.94691 c 0.09,-0.23212 0.584,-0.42204 1.104,-0.42204 0.52,0 0.824,-0.19775 0.675,-0.43945 -0.149,-0.24169 0,-0.54895 0.331,-0.68279 0.372,-0.15054 0.291,-0.25781 -0.213,-0.28128 -0.447,-0.0209 -1.02,-0.40909 -1.273,-0.86274 -0.415,-0.74529 -0.59,-0.75687 -1.818,-0.12012 -3.239,1.68072 -3.558,4.22437 -0.445,3.55051 0.814,-0.17602 1.551,-0.50996 1.639,-0.74209 z m -151.737,-7.71937 c -0.153,-0.3833 -0.267,-0.26944 -0.29,0.29029 -0.02,0.50651 0.09,0.79029 0.252,0.63063 0.159,-0.15966 0.176,-0.57407 0.04,-0.92092 z m -0.476,-5.55558 c -0.12,-0.46246 -0.219,-0.0841 -0.219,0.84084 0,0.92493 0.1,1.30331 0.219,0.84085 0.12,-0.46247 0.12,-1.21923 0,-1.68169 z m 0.496,-2.05243 c 0.04,-0.53425 -0.129,-0.84581 -0.376,-0.69237 -0.544,0.33753 -0.602,1.66371 -0.07,1.66371 0.207,0 0.409,-0.4371 0.449,-0.97134 z m 7.979,-8.35802 c 0.116,-1.10751 -1.158,-0.6576 -2.167,0.76556 l -1.115,1.57343 1.618,-0.94928 c 0.89,-0.5221 1.639,-1.14747 1.664,-1.38971 z m -4.991,0.0801 1.122,-1.56157 -1.272,1.16484 c -0.699,0.64066 -1.272,1.34337 -1.272,1.56157 0,0.66716 0.254,0.45947 1.422,-1.16484 z m 9.457,-0.69213 c -0.445,-0.44673 -0.943,-0.67733 -1.107,-0.51245 -0.471,0.47289 0.252,1.3247 1.124,1.3247 0.73,0 0.729,-0.0632 -0.02,-0.81225 z m 26.532,-3.40107 c -0.317,-0.10621 -0.432,-0.42759 -0.256,-0.7142 0.207,-0.33638 0.02,-0.40699 -0.515,-0.1992 -0.459,0.17704 -1.248,0.32189 -1.753,0.32189 -0.504,0 -0.917,0.20048 -0.917,0.4455 0,0.24502 0.652,0.36252 1.45,0.26111 0.833,-0.10581 1.332,0.009 1.172,0.26973 -0.161,0.26015 0.08,0.31618 0.558,0.13119 0.52,-0.20028 0.619,-0.39626 0.261,-0.51602 z m 7.067,-0.0794 c 0.581,-1.08964 0.646,-1.98551 0.137,-1.87723 -0.83,0.17632 -1.953,-0.68795 -1.713,-1.31725 0.143,-0.37453 0.06,-0.68096 -0.179,-0.68096 -0.242,0 -0.911,-0.44086 -1.487,-0.97969 -0.575,-0.53882 -1.047,-0.8477 -1.047,-0.6864 0,0.1613 -0.338,-0.0465 -0.751,-0.46177 -0.414,-0.41527 -1.006,-0.75173 -1.316,-0.74768 -0.369,0.005 -0.34,0.15016 0.08,0.42042 0.419,0.26633 0.473,0.52253 0.153,0.7212 -0.273,0.16948 -0.619,0.1087 -0.769,-0.13507 -0.151,-0.24377 -0.679,-0.33656 -1.176,-0.20622 -1.148,0.30166 -1.748,-0.63486 -0.993,-1.54946 1.072,-1.29736 -0.04,-0.71238 -1.501,0.79154 -1.235,1.26856 -1.679,1.44253 -2.974,1.16515 -1.856,-0.39754 -4.093,-0.47536 -4.413,-0.15357 -0.13,0.13042 0.09,0.86389 0.487,1.62994 0.398,0.76605 0.724,1.12933 0.726,0.80729 0,-0.34837 0.325,-0.46126 0.799,-0.27871 0.535,0.2063 0.683,0.12265 0.45,-0.25532 -0.661,-1.07422 0.251,-0.55357 1.569,0.89594 1.418,1.55851 2.926,1.55377 2.926,-0.009 0,-1.319 1.193,-2.00588 3.196,-1.84024 1.644,0.13592 1.826,0.28401 1.809,1.47245 -0.01,0.72673 0.151,1.32133 0.359,1.32133 0.207,0 0.377,-0.23094 0.377,-0.5132 0,-0.28227 0.7,-0.0224 1.555,0.57745 1.79,1.25534 2.307,1.8936 1.974,2.43534 -0.13,0.21081 0.09,0.3833 0.493,0.3833 0.401,0 0.952,-0.41822 1.224,-0.92938 z m 12.544,-2.19376 c -0.149,-0.26426 0.06,-0.21208 0.463,0.11596 0.404,0.32804 0.868,0.46177 1.032,0.29718 0.486,-0.4887 -0.627,-2.15066 -1.202,-1.7938 -0.307,0.19041 -0.394,0.10923 -0.207,-0.19358 0.747,-1.21486 -0.539,-0.87729 -1.559,0.40893 -0.705,0.88907 -1.578,1.41675 -2.376,1.43601 l -1.262,0.0305 1.122,0.45131 c 0.617,0.24821 1.24,0.90515 1.384,1.45985 0.253,0.97321 0.308,0.96053 1.57,-0.36164 0.718,-0.75361 1.185,-1.58641 1.035,-1.85068 z m -6.537,1.38852 c 0.687,-0.68978 1.143,-1.52982 1.015,-1.86677 -0.129,-0.33695 0.08,-1.06989 0.474,-1.62876 0.567,-0.81179 0.581,-1.01612 0.07,-1.01612 -0.967,0 -2.819,1.44551 -2.506,1.9548 0.152,0.24619 0.103,0.71788 -0.108,1.04821 -0.349,0.54555 -0.601,2.76278 -0.315,2.76278 0.07,0 0.682,-0.56436 1.369,-1.25414 z m 11.952,-1.62876 c 0.162,-0.26426 0.07,-0.48048 -0.211,-0.48048 -0.279,0 -0.507,0.21622 -0.507,0.48048 0,0.26427 0.09,0.48049 0.211,0.48049 0.116,0 0.344,-0.21622 0.507,-0.48049 z m 1.791,-0.79969 c -0.331,-0.13384 -0.479,-0.4411 -0.331,-0.68279 0.318,-0.51602 -0.07,-0.5421 -1.674,-0.11192 -1.084,0.29118 -1.102,0.34143 -0.239,0.68039 0.512,0.20129 1.362,0.36412 1.888,0.36183 0.526,-0.002 0.686,-0.11367 0.356,-0.24751 z m 3.787,-1.84654 c 0.131,0.13202 0.71,-0.26382 1.286,-0.87964 1.023,-1.09304 1.025,-1.11797 0.08,-1.04811 -0.532,0.0394 -1.406,0.54406 -1.942,1.12157 -0.535,0.5775 -1.301,1.05 -1.701,1.05 -0.4,0 -0.596,0.21381 -0.435,0.47514 0.181,0.29395 0.708,0.20169 1.382,-0.24192 0.6,-0.39439 1.198,-0.60906 1.329,-0.47704 z m -40.744,-5.64152 c 0,0.72531 4.933,1.35478 5.164,0.65894 0.1,-0.29666 0.389,-0.53939 0.646,-0.53939 0.257,0 0.313,0.24963 0.125,0.55472 -0.213,0.34673 -0.131,0.42417 0.22,0.20655 0.397,-0.24627 0.243,-0.73361 -0.524,-1.665 -1.063,-1.28969 -1.095,-1.29642 -1.576,-0.32667 -0.575,1.16104 -2.376,1.55086 -3.363,0.72797 -1.038,-0.8651 -0.834,-2.36982 0.46,-3.39198 1.535,-1.21239 1.194,-2.9594 -0.495,-2.53384 -1.382,0.34836 -2.558,-0.51822 -2.604,-1.9189 -0.03,-0.99246 -0.04,-0.99425 -0.407,-0.0617 -0.232,0.59814 -0.152,1.14197 0.214,1.44144 1.155,0.9467 1.322,5.96526 0.174,5.25288 -0.233,-0.14426 -0.222,0.26837 0.02,0.91696 0.245,0.6486 0.298,1.36136 0.118,1.58391 -0.181,0.22256 0.156,-0.005 0.748,-0.50555 0.592,-0.5006 1.076,-0.68075 1.076,-0.40032 z m -1.563,-12.10107 c -0.709,-1.49308 -0.946,-1.63647 -2.363,-1.42884 -2.162,0.31665 -2.933,-0.27722 -2.352,-1.8114 0.251,-0.6638 0.77,-1.52113 1.152,-1.90519 0.605,-0.60705 0.607,-0.92252 0.01,-2.41448 -0.508,-1.27816 -1.163,-1.90625 -2.569,-2.46076 -2.085,-0.82237 -2.481,-2.15913 -1.19,-4.01077 0.843,-1.20871 0.154,-4.49882 -0.942,-4.49882 -0.373,0 -0.918,-0.4492 -1.21,-0.99823 -0.293,-0.54949 -0.828,-0.8845 -1.189,-0.74524 -0.377,0.14543 -0.782,-0.14515 -0.952,-0.68346 -0.163,-0.51504 -0.591,-0.93644 -0.951,-0.93644 -1.049,0 -3.268,0.96043 -2.952,1.27782 0.159,0.15949 0.07,0.69398 -0.19,1.18776 -0.574,1.07766 0.141,1.20547 0.991,0.17707 0.73,-0.88399 1.469,-0.91284 2.575,-0.10059 0.725,0.53212 0.761,0.80404 0.257,1.9158 -0.482,1.06231 -0.865,1.27513 -2.127,1.18167 -0.928,-0.0687 -1.456,-0.3332 -1.329,-0.66599 0.116,-0.3036 -0.02,-0.69321 -0.295,-0.8658 -0.307,-0.19036 -0.395,-0.0231 -0.223,0.42521 0.187,0.48932 -0.107,0.8874 -0.868,1.17825 -1.251,0.47729 -5.79,4.87436 -5.418,5.24775 0.125,0.12599 0.546,-0.0358 0.934,-0.35957 0.8,-0.66641 2.666,-0.25267 2.666,0.591 0,0.30526 0.337,0.0713 0.75,-0.51984 0.412,-0.59117 1.488,-1.385 2.392,-1.76408 0.903,-0.37907 1.642,-0.91648 1.642,-1.19423 0,-0.27775 0.468,-0.505 1.039,-0.505 0.572,0 1.419,-0.3455 1.884,-0.76779 0.464,-0.42229 1.074,-0.62574 1.353,-0.45213 0.765,0.47458 0.611,2.65197 -0.209,2.9681 -0.874,0.33697 -0.916,1.27912 -0.119,2.67834 1.041,1.82895 1.474,2.1365 2.68,1.9049 0.747,-0.14332 1.388,0.0635 1.753,0.56577 0.633,0.86854 0.378,3.34077 -0.3,2.91964 -0.233,-0.14415 -0.222,0.26857 0.02,0.91717 0.245,0.64859 0.34,1.28623 0.21,1.41697 -0.131,0.13074 0.1,1.04249 0.507,2.02611 0.671,1.61234 0.89,1.76691 2.225,1.57015 1.074,-0.15838 1.629,0.021 2.023,0.65396 0.975,1.56774 1.548,0.11785 0.677,-1.71479 z m -8.484,-9.88157 c 0,-0.26427 0.216,-0.48048 0.479,-0.48048 0.263,0 0.478,0.21621 0.478,0.48048 0,0.26426 -0.215,0.48048 -0.478,0.48048 -0.263,0 -0.479,-0.21622 -0.479,-0.48048 z m 122.959,110.5698 c 0,-0.49617 0.338,-1.18378 0.751,-1.52801 0.413,-0.34422 0.647,-1.02367 0.521,-1.50988 -0.147,-0.56257 0.188,-1.18627 0.919,-1.71525 0.632,-0.45719 1.912,-1.51539 2.844,-2.35158 0.931,-0.83618 2.655,-1.91726 3.83,-2.40241 1.174,-0.48514 2.136,-1.09829 2.137,-1.36256 0,-0.26427 0.487,-0.50003 1.079,-0.52392 0.592,-0.0239 1.937,-0.17634 2.99,-0.33879 3.707,-0.57213 9.1,-1.26996 9.928,-1.28463 1.315,-0.0233 0.986,-0.67656 -0.838,-1.66292 -1.948,-1.05349 -2.174,-2.38854 -0.721,-4.24439 1.037,-1.32366 3.974,-2.18393 7.659,-2.24319 2.522,-0.0406 6.983,-1.25103 7.458,-2.02423 0.186,-0.302 -0.415,-1.19419 -1.371,-2.03574 -0.936,-0.82396 -2.483,-2.55331 -3.436,-3.843 -1.455,-1.96853 -1.691,-2.61616 -1.466,-4.03501 0.719,-4.54372 1.328,-5.00892 4.411,-3.36915 2.311,1.22928 2.777,2.08642 2.102,3.86801 -0.393,1.03829 -0.222,1.47972 1.184,3.06648 0.903,1.01948 1.643,2.02852 1.643,2.24231 0,0.2138 0.216,0.25509 0.479,0.0918 0.263,-0.16333 0.478,0.0401 0.478,0.45212 0,0.412 0.211,0.74908 0.47,0.74908 0.258,0 0.604,0.54054 0.769,1.20121 0.165,0.66066 0.6,1.2012 0.966,1.2012 0.366,0 0.666,0.43244 0.666,0.96097 0,1.08911 -0.496,1.23147 -1.34,0.38439 -0.446,-0.44845 -0.574,-0.4038 -0.574,0.20094 0,0.42764 -0.144,1.17359 -0.32,1.65766 -0.303,0.83147 -0.263,0.82953 0.717,-0.0352 1.429,-1.25997 1.34,-0.0649 -0.103,1.38425 -0.627,0.63028 -2.081,1.38886 -3.229,1.68573 -1.149,0.29686 -2.627,0.72977 -3.285,0.96202 l -1.196,0.42226 1.076,0.32843 c 0.777,0.2371 1.021,0.61352 0.88,1.35366 -0.385,2.01726 -0.903,2.75936 -2.851,4.08774 -2.318,1.58089 -7.514,2.46464 -14.484,2.46366 -4.341,-6.1e-4 -4.418,0.0204 -9.569,2.6073 -2.856,1.43436 -6.269,3.38031 -7.584,4.32435 -2.687,1.92883 -3.59,2.13373 -3.59,0.81429 z m 36.744,-12.64748 c 0.796,-0.79926 0.72,-1.23318 -0.313,-1.78837 -0.774,-0.41624 -0.881,-0.29642 -0.837,0.94297 0.05,1.55352 0.28,1.71928 1.15,0.8454 z m -8.772,-4.51017 c 0.978,-1.49907 0.781,-1.79053 -0.922,-1.36132 -1.5,0.37805 -2.13,1.55045 -1.164,2.16487 0.995,0.63297 1.2,0.55393 2.086,-0.80355 z m -70.075,14.06409 c 0,-0.5637 1.282,-1.18994 6.552,-3.20259 0.957,-0.3657 1.582,-0.96769 1.674,-1.61303 0.198,-1.388 2.243,-2.30126 6.809,-3.04055 2.085,-0.33763 3.915,-0.78206 4.067,-0.98764 0.151,-0.20557 0.491,-0.38747 0.754,-0.40422 0.263,-0.0168 1.311,-0.40874 2.329,-0.87109 1.018,-0.46234 2.437,-0.77888 3.153,-0.70341 0.863,0.0908 1.826,-0.30499 2.851,-1.17097 0.851,-0.7195 1.828,-1.30818 2.17,-1.30818 0.94,0 1.783,1.25289 1.681,2.49709 -0.184,2.25313 0.02,2.66897 1.451,2.95639 2.587,0.51962 1.727,3.55003 -1.359,4.79022 -1.026,0.41228 -2.003,1.10987 -2.171,1.55019 -0.234,0.61062 -0.617,0.71676 -1.617,0.4473 -0.722,-0.19431 -2.223,-0.31558 -3.337,-0.26949 -1.114,0.0461 -2.896,-0.17827 -3.961,-0.49858 -1.75,-0.52653 -2.07,-0.48254 -3.338,0.45876 -0.771,0.57263 -1.518,1.04115 -1.66,1.04115 -0.488,0 -0.259,-1.7297 0.304,-2.29496 0.431,-0.43332 0.375,-0.77322 -0.24,-1.45642 -0.442,-0.49015 -0.697,-0.99812 -0.567,-1.1288 0.13,-0.13069 -0.461,-0.15548 -1.315,-0.0551 -2.944,0.34643 -3.674,0.61159 -3.431,1.24673 0.44,1.15188 -1.639,2.35762 -6.051,3.50841 -5.148,1.34266 -4.748,1.29978 -4.748,0.50877 z m 27.145,-4.65703 1.548,-0.7048 -1.755,-1.56751 c -0.965,-0.86213 -2.103,-1.56751 -2.53,-1.56751 -0.834,0 -5.505,2.80698 -5.193,3.12061 1.534,1.54026 5.364,1.88761 7.93,0.71921 z m 62.002,-14.90624 c -0.733,-0.28687 -0.966,-0.68837 -0.79,-1.3636 0.349,-1.34177 1.302,-1.57465 2.987,-0.73026 1.076,0.53879 2.644,0.1358 6.025,0.55047 0,0 -3.059,-0.15637 0.747,0.25087 0.328,0.39713 -0.05,0.96782 -0.425,1.19911 -0.813,0.50422 -7.343,0.56542 -8.549,0.0934 z m -207.266,-1.38002 c -0.628,-0.47826 -0.951,-0.97985 -0.718,-1.11463 0.233,-0.13478 3.031,-0.21977 6.217,-0.18887 l 5.793,0.0562 -0.351,-1.20121 c -0.407,-1.39032 -3.571,-9.64636 -4.512,-11.77182 -3.97,-8.96863 -4.869,-12.19361 -3.615,-12.97197 0.716,-0.4444 1.42,0.56363 1.43,2.04795 0,0.59842 0.772,2.97681 1.707,5.2853 0.935,2.3085 2.669,6.79188 3.854,9.96306 1.186,3.17119 2.51,6.60138 2.943,7.62265 0.735,1.7318 0.734,1.89678 -0.02,2.44936 -0.515,0.37843 -2.754,0.61076 -6.197,0.64303 -4.514,0.0423 -5.577,-0.0909 -6.532,-0.81904 z m -9.02,-1.38099 c 5.425,-0.0458 6.573,-0.0143 6.573,0.54919 0,1.02307 -0.655,1.13195 -7.335,1.21913 -3.514,0.0458 -4.538,-1.72359 0.762,-1.76832 z m 189.599,-1.03012 c -0.169,-0.27392 -0.08,-0.92618 0.2,-1.44946 0.279,-0.52329 0.464,-1.12236 0.412,-1.33126 -0.229,-0.90573 3.143,-7.00608 3.995,-7.23 0.503,-0.13214 1.34,-1.07736 1.86,-2.10047 0.971,-1.91051 2.369,-2.51682 2.351,-1.01937 0,0.46247 -1.469,3.65167 -3.251,7.08712 -2.431,4.68379 -3.494,6.28319 -4.251,6.39387 -0.555,0.0812 -1.148,-0.0765 -1.316,-0.35043 z m -40.853,-1.11365 c -0.581,-0.58307 -0.766,-5.01978 -0.265,-6.33194 0.16,-0.41801 0.591,-0.76002 0.957,-0.76002 0.51,0 0.667,0.83961 0.667,3.57526 0,3.61968 -0.352,4.52857 -1.359,3.5167 z m -3.851,-0.92557 c -0.417,-1.10615 -0.285,-4.62361 0.238,-6.31384 0.366,-1.18156 1.904,-0.81799 1.719,0.4061 -0.08,0.5184 -0.206,2.22827 -0.282,3.7997 -0.147,3.01443 -0.95,4.02594 -1.675,2.10804 z m -122.75,-2.84279 c -0.695,-1.9052 -2.095,-6.6472 -2.4,-8.12843 -0.191,-0.92493 -0.884,-3.22701 -1.541,-5.11574 -1.247,-3.58575 -1.308,-5.21463 -0.195,-5.21463 0.737,0 1.165,1.30017 3.693,11.19783 1.287,5.0432 1.613,7.01575 1.223,7.40771 -0.391,0.39196 -0.598,0.35288 -0.78,-0.14674 z m 2.356,-10.41072 c -0.17,-1.25526 -0.5,-3.02469 -0.732,-3.93207 -0.448,-1.74882 0.07,-2.9148 1.282,-2.9148 0.436,0 0.672,0.60949 0.696,1.80181 0.02,0.99099 0.108,2.17447 0.195,2.62995 0.847,4.42717 0.838,4.6974 -0.16,4.6974 -0.794,0 -1.026,-0.41297 -1.281,-2.28229 z m 58.46,-61.04715 c 0.912,-2.23698 4.093,-5.56044 6.608,-6.90444 4.11,-2.19625 4.709,-2.44423 6.401,-2.64856 0.96,-0.11601 2.454,-0.43334 3.32,-0.70519 0.866,-0.27185 1.873,-0.3793 2.238,-0.23879 0.364,0.14052 0.911,-0.0449 1.214,-0.4121 0.304,-0.36717 1.342,-0.92167 2.308,-1.23222 0.966,-0.31055 2.94,-1.26893 4.387,-2.12973 4.57,-2.71816 5.706,-3.16305 10.316,-4.03951 4.208,-0.8001 4.547,-0.80339 5.226,-0.0507 0.399,0.44276 0.725,0.94441 0.725,1.11478 0,0.17037 -1.098,1.05227 -2.44,1.95979 -1.926,1.30297 -2.253,1.69818 -1.555,1.87896 0.636,0.16452 0.536,0.24461 -0.356,0.28466 -0.683,0.0307 -1.834,0.56693 -2.558,1.19171 -1.281,1.10534 -1.296,1.17579 -0.556,2.61232 0.744,1.44377 0.731,1.49752 -0.581,2.4357 -0.738,0.52765 -1.921,1.10528 -2.628,1.28363 -0.708,0.17835 -1.287,0.51705 -1.287,0.75267 0,0.23562 -0.418,0.4284 -0.928,0.4284 -0.511,0 -1.062,0.21621 -1.225,0.48048 -0.162,0.26426 -0.849,0.48048 -1.526,0.48048 -0.678,0 -1.96,0.45232 -2.851,1.00515 -1.374,0.85259 -1.849,0.92464 -3.134,0.47473 -1.166,-0.40803 -1.61,-0.39051 -1.926,0.0759 -0.311,0.45978 -0.392,0.43213 -0.334,-0.11436 0.154,-1.4464 -0.06,-1.77234 -1.113,-1.71339 -1.778,0.0993 -2.472,0.7408 -1.541,1.42443 1.02,0.74887 0.382,1.28069 -2.885,2.40428 -2.66,0.91508 -3.87,1.09095 -9.892,1.43772 l -4.151,0.23905 z m 12.123,-3.6695 c 0,-0.11654 -0.215,-0.34552 -0.478,-0.50884 -0.264,-0.16333 -0.479,-0.068 -0.479,0.21188 0,0.27986 0.215,0.50884 0.479,0.50884 0.263,0 0.478,-0.0953 0.478,-0.21188 z m 12.772,-1.88381 c 0.07,-0.0666 -0.379,-0.86558 -0.99,-1.77548 -0.611,-0.90991 -1.011,-1.94565 -0.889,-2.30164 0.177,-0.51654 0.02,-0.53738 -0.79,-0.10321 -1.111,0.59697 -1.397,2.69752 -0.415,3.04265 0.435,0.15255 0.36,0.48066 -0.274,1.19813 -0.87,0.9856 -0.868,0.9869 1.182,0.52436 1.131,-0.25504 2.11,-0.51821 2.176,-0.58481 z m 6.427,-5.92223 c 0.578,-0.71364 0.551,-0.77116 -0.22,-0.48048 -0.482,0.18161 -1.195,0.3302 -1.583,0.3302 -0.389,0 -0.574,0.21622 -0.411,0.48048 0.449,0.72948 1.48,0.57566 2.214,-0.3302 z m 3.048,-2.55269 c -0.162,-0.26427 -0.767,-0.45893 -1.343,-0.43259 -0.976,0.0446 -0.966,0.0745 0.147,0.43259 0.658,0.21158 1.263,0.40624 1.344,0.43258 0.08,0.0263 0.01,-0.16832 -0.148,-0.43258 z m -63.552,6.40643 c -0.176,-0.17618 -0.319,-0.54375 -0.319,-0.81682 0,-0.30107 0.223,-0.27271 0.566,0.0721 0.311,0.31271 0.455,0.68028 0.319,0.81682 -0.136,0.13654 -0.391,0.10411 -0.566,-0.0721 z"
         id="path1" /></g></g></svg>
