<?xml version="1.0" encoding="UTF-8" standalone="no"?>
<!-- Created with Inkscape (http://www.inkscape.org/) -->

<svg
   width="61.221001mm"
   height="62.240601mm"
   viewBox="0 0 61.221 62.240601"
   version="1.1"
   id="svg1"
   xml:space="preserve"
   inkscape:export-filename="go.svg"
   inkscape:export-xdpi="96"
   inkscape:export-ydpi="96"
   xmlns:inkscape="http://www.inkscape.org/namespaces/inkscape"
   xmlns:sodipodi="http://sodipodi.sourceforge.net/DTD/sodipodi-0.dtd"
   xmlns="http://www.w3.org/2000/svg"
   xmlns:svg="http://www.w3.org/2000/svg"><sodipodi:namedview
     id="namedview1"
     pagecolor="#ffffff"
     bordercolor="#000000"
     borderopacity="0.25"
     inkscape:showpageshadow="2"
     inkscape:pageopacity="0.0"
     inkscape:pagecheckerboard="0"
     inkscape:deskcolor="#d1d1d1"
     inkscape:document-units="mm"><inkscape:page
       x="0"
       y="0"
       width="61.221001"
       height="62.240601"
       id="page2"
       margin="0"
       bleed="0" /></sodipodi:namedview><defs
     id="defs1" /><g
     inkscape:label="Layer 1"
     inkscape:groupmode="layer"
     id="layer1"
     transform="translate(1472.671,3650.7208)"><path
       id="path936"
       d="m -1472.5017,-3650.5514 h 60.8824 v -0.1694 h -60.8824 z"
       style="fill:#000000;fill-opacity:1;fill-rule:evenodd;stroke:none;stroke-width:0.352778" /><path
       id="path941-9"
       d="m -1472.671,-3588.6495 h 0.1693 v -61.8984 h -0.1693 z"
       style="fill:#000000;fill-opacity:1;fill-rule:evenodd;stroke:none;stroke-width:0.352778" /><path
       id="path942"
       d="m -1411.6193,-3588.6495 h 0.1693 v -61.8984 h -0.1693 z"
       style="fill:#000000;fill-opacity:1;fill-rule:evenodd;stroke:none;stroke-width:0.352778" /><path
       id="path952"
       d="m -1472.5017,-3588.4802 h 60.8824 v -0.1693 h -60.8824 z"
       style="fill:#000000;fill-opacity:1;fill-rule:evenodd;stroke:none;stroke-width:0.352778" /><g
       id="g1188"
       transform="matrix(0.26458333,0,0,0.26458333,-4496.9362,-3791.3945)"><path
         style="fill:#000000"
         d="m 11565.78,749.92525 c -0.552,-0.55127 -0.35,-2.01769 0.332,-2.41965 0.358,-0.21142 1.697,-1.68228 2.973,-3.26856 1.277,-1.58629 2.804,-3.42495 3.393,-4.0859 1.887,-2.11598 5.233,-6.41636 6.921,-8.89284 0.9,-1.32191 3.379,-4.37123 5.508,-6.77628 2.129,-2.40504 5.061,-5.95667 6.515,-7.8925 1.455,-1.93583 2.969,-3.863 3.366,-4.28259 1.171,-1.23891 11.153,-13.72955 12.976,-16.23609 2.264,-3.1152 5.644,-7.15013 7.739,-9.24019 0.947,-0.94543 2.522,-2.77045 3.498,-4.05562 0.976,-1.28517 3.667,-4.52985 5.978,-7.21041 4.111,-4.76709 7.058,-8.49219 9.956,-12.58328 0.793,-1.12006 2.794,-3.47476 4.447,-5.23267 l 3.005,-3.19621 v 1.56333 c 0,1.19694 -0.496,2.07417 -2.116,3.74297 -1.163,1.1988 -3.922,4.69887 -6.13,7.77794 -2.208,3.07907 -5.637,7.38264 -7.62,9.56348 -1.984,2.18084 -4.439,5.06941 -5.457,6.41904 -1.019,1.34962 -2.858,3.54766 -4.087,4.88453 -3.89,4.22912 -7.504,8.53713 -9.453,11.26911 -1.037,1.4541 -4.057,5.19165 -6.71,8.30567 -2.653,3.11402 -6.555,7.90356 -8.67,10.64341 -2.116,2.73985 -5.253,6.54532 -6.972,8.4566 -1.719,1.91128 -3.324,3.82742 -3.568,4.2581 -0.993,1.75745 -7.089,9.65523 -9.88,12.8004 -1.642,1.85067 -3.338,3.95971 -3.767,4.68676 -0.764,1.2916 -1.533,1.64545 -2.177,1.00145 z m -28.989,-41.30398 c -2.967,-1.24535 -6.83,-7.51602 -5.728,-9.29792 0.822,-1.32981 4.106,0.62884 4.106,2.44893 0,0.40466 0.408,1.10523 0.908,1.55684 0.874,0.79076 0.928,0.73288 1.48,-1.56584 0.315,-1.31281 1.096,-3.09684 1.737,-3.9645 0.64,-0.86766 1.164,-1.74224 1.164,-1.94352 0,-0.20127 0.562,-1.18673 1.25,-2.1899 0.688,-1.00317 1.444,-2.25658 1.682,-2.78534 0.237,-0.52876 0.636,-1.28586 0.887,-1.68243 1.965,-3.10776 8.201,-14.7466 8.201,-15.30549 0,-0.19707 -1.244,-0.74882 -2.765,-1.2261 -4.477,-1.40526 -5.62,-2.01583 -6.359,-3.39524 -0.649,-1.21328 -0.621,-1.36284 0.403,-2.13498 1.025,-0.77276 2.951,-4.33553 2.951,-5.45775 0,-0.27265 0.471,-1.43722 1.045,-2.58793 0.575,-1.15071 0.905,-2.23252 0.734,-2.40401 -0.172,-0.17149 -1.562,0.24353 -3.089,0.92227 -7.913,3.51695 -20.076,9.07138 -21.204,9.6831 -3.327,1.8039 -23.021,11.33098 -23.425,11.33184 -0.252,5.3e-4 -2.621,1.04638 -5.266,2.32411 -2.644,1.27773 -5.89,2.71998 -7.212,3.20501 -1.322,0.48502 -2.745,1.16966 -3.163,1.52143 -0.417,0.35177 -1.072,0.63958 -1.455,0.63958 -0.384,0 -1.124,0.27836 -1.645,0.61858 -0.522,0.34022 -2.247,1.12956 -3.834,1.7541 -1.586,0.62453 -3.209,1.39032 -3.606,1.70175 -1.524,1.19712 -19.425,8.42361 -20.866,8.42361 -0.196,0 -0.286,-0.46976 -0.202,-1.04391 0.1,-0.67854 0.659,-1.1943 1.596,-1.4736 3.82,-1.13797 10.123,-3.6356 14.905,-5.90631 6.548,-3.10935 9.951,-4.64453 10.577,-4.77183 0.265,-0.0537 2.148,-0.89215 4.185,-1.86316 2.037,-0.97101 3.879,-1.76547 4.092,-1.76547 0.213,0 2.425,-0.98973 4.915,-2.19938 2.49,-1.20966 4.916,-2.22867 5.391,-2.26447 0.476,-0.0358 0.972,-0.34396 1.103,-0.68479 0.13,-0.34083 0.531,-0.61969 0.89,-0.61969 0.359,0 3.341,-1.36389 6.626,-3.03087 3.286,-1.66697 7.38,-3.72835 9.099,-4.58083 1.719,-0.85248 4.185,-2.10213 5.48,-2.77699 1.295,-0.67486 4.584,-2.17893 7.308,-3.34239 4.757,-2.03114 14.912,-6.75766 17.579,-8.18183 0.703,-0.37555 1.624,-0.55036 2.046,-0.38848 0.563,0.21623 0.962,-0.19796 1.502,-1.56069 1.437,-3.62788 2.74,-6.67232 3.161,-7.38302 0.235,-0.39657 0.963,-1.8026 1.617,-3.12451 0.654,-1.32191 1.384,-2.72794 1.621,-3.12451 0.79,-1.318 3.321,-6.95175 3.673,-8.17179 0.19,-0.66096 0.896,-2.45003 1.568,-3.97572 0.672,-1.52568 1.093,-2.90342 0.935,-3.06162 -0.159,-0.15821 -2.969,1.02353 -6.247,2.62608 -3.277,1.60255 -6.581,3.06977 -7.341,3.26049 -0.76,0.19071 -2.104,0.77287 -2.987,1.29368 -1.348,0.79519 -1.805,0.85561 -2.856,0.37708 -0.792,-0.36071 -2.19,-0.45257 -3.809,-0.25028 -2.484,0.31031 -2.573,0.28025 -3.075,-1.03787 -0.284,-0.74659 -0.39,-1.86078 -0.235,-2.47596 0.275,-1.09563 0.373,-1.11327 4.807,-0.86188 2.774,0.15723 4.642,0.0712 4.823,-0.22215 0.163,-0.26334 0.709,-0.47879 1.214,-0.47879 1.031,0 13.057,-5.62337 13.481,-6.30351 0.15,-0.2404 1.441,-1.02951 2.87,-1.75356 2.333,-1.1824 2.676,-1.56123 3.372,-3.71993 0.426,-1.32191 1.136,-3.20769 1.578,-4.19063 0.441,-0.98294 0.803,-2.10582 0.803,-2.49528 0,-0.38946 0.213,-0.83993 0.474,-1.00104 0.26,-0.16112 0.385,-0.76874 0.276,-1.35028 -0.109,-0.58154 -0.214,-1.65755 -0.234,-2.39115 -0.02,-0.94843 -0.37,-1.46093 -1.193,-1.77382 -0.637,-0.242 -1.708,-1.36165 -2.379,-2.48811 l -1.222,-2.04809 -0.519,1.41844 c -3.06,8.36072 -3.296,8.79515 -5.612,10.36328 -3.037,2.05602 -4.299,2.14606 -5.876,0.41928 -0.747,-0.81668 -1.588,-2.50918 -1.883,-3.78432 -0.903,-3.91333 0.114,-5.82014 3.105,-5.82014 1.288,0 1.638,0.22404 1.885,1.20798 0.286,1.13706 -0.59,2.97334 -1.151,2.41301 -0.136,-0.13628 -0.507,-0.032 -0.825,0.23179 -0.724,0.60064 -0.365,2.6486 0.605,3.45362 0.615,0.51043 1.056,0.24661 2.793,-1.67234 2.664,-2.94183 4.359,-7.99065 4.714,-14.0462 0.385,-6.55958 2.166,-10.3019 5.991,-12.58764 4.828,-2.88466 8.443,-3.27779 13.016,-1.41536 5.197,2.1165 7.59,4.29951 8.883,8.10283 0.808,2.37813 0.819,2.80473 0.143,5.91402 -0.401,1.84305 -1.269,4.63557 -1.929,6.20558 -1.215,2.89101 -1.299,5.56789 -0.262,8.32156 0.52,1.3791 0.962,1.36136 2.329,-0.0934 0.94,-0.99971 1.057,-1.49045 0.787,-3.29077 -0.378,-2.51744 0.451,-3.63954 2.054,-2.78176 2.592,1.38667 2.22,6.38726 -0.684,9.2011 -1.496,1.45021 -1.714,1.51362 -4.139,1.20348 -4.194,-0.53642 -4.432,-0.89558 -4.459,-6.74448 -0.02,-4.93853 -0.04,-5.01079 -0.986,-4.30885 -2.049,1.52169 -5.849,3.08008 -7.52,3.08457 -1.637,0.004 -1.763,0.1123 -1.944,1.66514 -0.136,1.1616 0.06,1.8753 0.642,2.37564 0.459,0.39336 0.977,1.53889 1.15,2.54563 0.646,3.76354 1.008,4.68754 1.932,4.93953 0.516,0.14066 1.911,0.92263 3.099,1.73771 1.188,0.81507 3.552,2.2211 5.253,3.12451 1.701,0.9034 3.436,1.9714 3.856,2.37332 0.42,0.40192 2.057,1.3543 3.639,2.1164 1.581,0.7621 2.95,1.44616 3.043,1.52014 0.41,0.32879 -0.551,4.04715 -1.052,4.06709 -0.307,0.0122 -1.157,0.82341 -1.888,1.8026 -1.757,2.35172 -5.642,8.21568 -5.642,8.51473 0,0.99134 5.488,-1.54813 10.818,-5.00604 1.058,-0.68621 3.911,-2.32921 6.341,-3.65112 7.316,-3.97953 11.773,-6.5531 14.812,-8.55094 1.585,-1.04252 3.857,-2.36832 5.048,-2.94622 1.191,-0.57791 4.685,-2.49962 7.763,-4.27049 3.079,-1.77086 5.825,-3.21975 6.102,-3.21975 0.842,0 1.16,0.9613 0.558,1.68641 -0.523,0.62972 -6.018,3.79484 -14.107,8.12532 -1.811,0.96939 -4.404,2.51116 -5.763,3.42615 -1.359,0.91499 -2.618,1.66362 -2.798,1.66362 -0.18,0 -1.978,0.97536 -3.995,2.16745 -2.016,1.1921 -5.55,3.17255 -7.852,4.401 -2.302,1.22845 -6.674,3.67312 -9.715,5.43261 -6.919,4.00282 -7.133,4.08277 -8.243,3.07789 -1.79,-1.61964 -1.43,-0.29459 3.87,14.24338 1.323,3.62782 2.93,9.81996 2.93,11.28747 0,0.95242 -0.242,1.21057 -1.137,1.21057 -0.845,0 -1.556,0.64912 -2.764,2.52364 -1.894,2.93621 -3.793,4.02517 -10.253,5.8786 -2.364,0.67822 -4.38,1.31538 -4.481,1.41592 -0.1,0.10053 0.03,0.5824 0.282,1.07081 0.256,0.48841 0.839,1.86143 1.296,3.05115 1.982,5.1591 3.537,7.2814 4.668,6.37151 0.335,-0.26999 1.799,-0.7416 3.252,-1.04802 1.454,-0.30642 4.117,-1.08878 5.919,-1.73858 1.802,-0.64979 3.698,-1.18144 4.213,-1.18144 0.516,0 1.309,-0.43263 1.761,-0.96139 1.16,-1.35428 2.112,-1.2013 3.881,0.62375 1.796,1.85237 1.913,2.73234 0.531,3.98313 -1.406,1.27164 -2.024,2.53419 -2.333,4.76665 -0.238,1.71571 -0.423,1.93808 -1.715,2.06489 -2.651,0.26008 -4.372,-2.36933 -3.103,-4.74031 0.381,-0.71137 0.341,-0.92979 -0.168,-0.92979 -0.783,0 -3.334,0.79683 -5.378,1.67923 -0.793,0.34256 -2.098,0.7607 -2.901,0.92919 -0.802,0.16849 -2.079,0.84024 -2.839,1.49278 -1.371,1.17821 -3.155,1.59604 -3.155,0.73918 0,-0.246 -0.478,-0.51639 -1.064,-0.60087 -0.74,-0.10691 -1.155,-0.592 -1.363,-1.59569 -0.165,-0.79314 -0.986,-2.55034 -1.825,-3.90489 -0.839,-1.35454 -1.761,-3.19319 -2.05,-4.08589 -0.289,-0.8927 -0.933,-2.53453 -1.433,-3.6485 l -0.907,-2.0254 -3.055,0.2852 c -2.811,0.26247 -4.807,-0.0597 -7.775,-1.25532 -3.977,-1.60214 -3.448,-1.78702 -5.109,1.78651 -3.958,8.51702 -4.866,10.24658 -7.127,13.58074 -1.335,1.96998 -2.428,3.73589 -2.428,3.92424 0,0.18835 -0.757,1.59708 -1.682,3.13051 -0.925,1.53344 -1.683,3.11253 -1.686,3.50911 0,0.39657 -0.318,1.32259 -0.701,2.05781 -0.384,0.73523 -0.575,1.65731 -0.424,2.04907 0.295,0.76944 -0.497,1.96036 -1.718,2.58198 -0.439,0.22347 -1.397,0.12027 -2.264,-0.24392 z m 35.507,-35.54856 c 2.571,-0.39394 6.357,-1.33452 8.414,-2.09018 3.188,-1.17162 3.956,-1.68138 5.212,-3.46208 0.81,-1.14849 2,-2.21723 2.644,-2.37497 0.816,-0.19965 1.129,-0.56928 1.03,-1.21626 -0.16,-1.0451 -0.11,-0.90224 -3.439,-9.90453 -1.336,-3.61439 -2.429,-7.1167 -2.429,-7.7829 0,-1.28876 -1.015,-2.30966 -1.337,-1.34455 -0.105,0.31591 -0.453,0.84091 -0.772,1.16667 -0.32,0.32575 -0.794,1.34937 -1.054,2.27471 -0.398,1.41261 -0.717,1.7062 -1.989,1.83067 -1.151,0.11255 -1.649,-0.10083 -2.069,-0.88598 -0.825,-1.54045 -0.252,-2.99663 2.664,-6.7695 1.448,-1.87425 2.633,-3.50751 2.633,-3.62946 0,-0.12195 -0.417,-1.23524 -0.927,-2.47397 -1.864,-4.52518 -4.361,-11.14981 -4.361,-11.5676 0,-0.23593 -0.324,-1.04855 -0.719,-1.80582 -0.395,-0.75727 -0.719,-1.86649 -0.721,-2.46493 0,-0.59845 -0.21,-1.4637 -0.464,-1.92278 -0.254,-0.45908 -0.706,-2.40295 -1.005,-4.31972 -0.299,-1.91677 -0.725,-3.48503 -0.947,-3.48503 -0.425,0 -1.871,3.58828 -2.905,7.21041 -0.339,1.18971 -0.904,2.50462 -1.255,2.92201 -0.351,0.41739 -0.639,0.99512 -0.639,1.28385 0,0.28872 -0.773,2.32666 -1.717,4.52874 -0.945,2.20208 -2.039,5.04256 -2.431,6.31217 -0.391,1.26961 -1.011,2.42315 -1.377,2.56342 -0.365,0.14027 -0.558,0.53084 -0.429,0.86793 0.208,0.54129 -1.848,4.8125 -5.1,10.59817 -1.056,1.87806 -5.031,11.58584 -6.301,15.38789 -0.354,1.05752 -0.92,2.34945 -1.26,2.87094 -1.329,2.04329 -0.861,2.48305 5.033,4.72823 7.614,2.90059 11.229,4.01841 12.38,3.82893 0.529,-0.087 3.066,-0.48054 5.637,-0.87448 z m -2.511,-7.42912 c 0,-0.26438 0.216,-0.48069 0.48,-0.48069 0.265,0 0.481,0.21631 0.481,0.48069 0,0.26439 -0.216,0.4807 -0.481,0.4807 -0.264,0 -0.48,-0.21631 -0.48,-0.4807 z m 16.572,-32.5822 c 0.785,-1.24745 1.771,-2.97121 2.192,-3.83056 0.421,-0.85936 1.166,-1.85556 1.656,-2.21379 1.263,-0.92312 0.666,-1.99234 -1.761,-3.15405 -1.14,-0.54554 -3.659,-1.96738 -5.599,-3.15964 -3.426,-2.10586 -4.406,-2.51573 -4.406,-1.84207 0,0.35034 2.679,7.93954 3.363,9.52854 0.228,0.52877 0.783,2.15111 1.234,3.60521 1.302,4.19855 1.342,4.21146 3.321,1.06636 z m -7.14,-36.62441 c 1.242,-0.54226 2.915,-1.98732 4.487,-3.87607 2.761,-3.31707 3.65,-5.0889 2.974,-5.92975 -0.239,-0.29831 -0.585,-1.24351 -0.769,-2.10043 -0.291,-1.36173 -0.781,-1.77056 -3.888,-3.24469 -5.077,-2.40892 -9.014,-2.29377 -9.529,0.27871 -0.319,1.59484 -0.846,1.75032 -2.005,0.59157 -0.756,-0.75678 -0.859,-0.73975 -1.62,0.26902 -1.233,1.63408 -2.114,5.15285 -1.857,7.41199 0.273,2.38875 2.051,6.56261 3.179,7.46179 1.044,0.83172 6.298,0.33001 9.028,-0.86214 z m -5.346,-0.83972 c -1.749,-0.42601 -2.644,-1.63621 -2.644,-3.57432 0,-1.62565 0.138,-1.84828 1.143,-1.84828 0.629,0 1.412,0.32447 1.742,0.72105 0.953,1.14881 3.259,0.88523 4.563,-0.52168 0.823,-0.88808 1.434,-1.15319 2.141,-0.929 1.249,0.39635 1.257,1.66159 0.02,3.75073 -1.415,2.39819 -3.721,3.19265 -6.969,2.4015 z m 3.942,-8.17719 c -0.689,-0.6885 -0.995,-0.72991 -1.779,-0.24034 -1.242,0.77505 -1.699,0.74633 -2.609,-0.16391 -0.943,-0.94233 -0.979,-2.78753 -0.07,-3.54221 0.536,-0.44457 1.012,-0.40148 2.168,0.19608 1.091,0.56424 1.724,0.63591 2.404,0.27227 2.042,-1.09296 3.575,1.06719 2.222,3.13173 -0.917,1.39929 -1.237,1.4467 -2.337,0.34638 z m -125.824,111.3914 c 0,-0.26438 0.229,-0.48069 0.509,-0.48069 0.28,0 0.376,0.21631 0.212,0.48069 -0.163,0.26438 -0.392,0.48069 -0.509,0.48069 -0.117,0 -0.212,-0.21631 -0.212,-0.48069 z m 57.962,-19.1867 c -0.155,-0.25042 -0.08,-0.58195 0.173,-0.73672 0.251,-0.15477 0.583,-0.0765 0.737,0.17392 0.155,0.25042 0.08,0.58195 -0.174,0.73672 -0.25,0.15477 -0.582,0.0765 -0.736,-0.17392 z m -24.787,-13.70024 c 0,-1.05609 3.096,-7.14967 4.023,-7.91925 1.104,-0.91578 2.708,-0.21591 2.708,1.18134 0,1.17558 0.857,1.54408 1.707,0.73395 0.593,-0.56541 3.41,-2.14805 7.909,-4.44408 1.983,-1.01208 5.553,-2.91113 7.933,-4.22012 6.913,-3.80204 14.055,-7.31073 15.247,-7.49052 0.605,-0.0913 1.587,-0.31468 2.182,-0.49647 0.788,-0.24079 1.082,-0.13471 1.082,0.39075 0,0.43349 -1.103,1.14844 -2.765,1.79187 -3.282,1.27111 -7.586,3.35666 -12.861,6.2316 -7.989,4.35459 -17.348,9.27971 -18.39,9.67756 -1.28,0.48844 -1.373,1.24122 -0.303,2.42408 1.355,1.49603 0.516,2.31891 -2.322,2.27956 -1.399,-0.0194 -3.355,0.11788 -4.347,0.30505 -1.487,0.28064 -1.803,0.20256 -1.803,-0.44532 z"
         id="path2" /></g></g></svg>
