<?xml version="1.0" encoding="UTF-8" standalone="no"?>
<!-- Created with Inkscape (http://www.inkscape.org/) -->

<svg
   width="61.221001mm"
   height="62.240601mm"
   viewBox="0 0 61.221 62.240601"
   version="1.1"
   id="svg1"
   xml:space="preserve"
   inkscape:export-filename="spider.svg"
   inkscape:export-xdpi="96"
   inkscape:export-ydpi="96"
   xmlns:inkscape="http://www.inkscape.org/namespaces/inkscape"
   xmlns:sodipodi="http://sodipodi.sourceforge.net/DTD/sodipodi-0.dtd"
   xmlns="http://www.w3.org/2000/svg"
   xmlns:svg="http://www.w3.org/2000/svg"><sodipodi:namedview
     id="namedview1"
     pagecolor="#ffffff"
     bordercolor="#000000"
     borderopacity="0.25"
     inkscape:showpageshadow="2"
     inkscape:pageopacity="0.0"
     inkscape:pagecheckerboard="0"
     inkscape:deskcolor="#d1d1d1"
     inkscape:document-units="mm"><inkscape:page
       x="0"
       y="0"
       width="61.221001"
       height="62.240601"
       id="page2"
       margin="0"
       bleed="0" /></sodipodi:namedview><defs
     id="defs1" /><g
     inkscape:label="Layer 1"
     inkscape:groupmode="layer"
     id="layer1"
     transform="translate(1472.671,3650.7208)"><path
       id="path936"
       d="m -1472.5017,-3650.5514 h 60.8824 v -0.1694 h -60.8824 z"
       style="fill:#000000;fill-opacity:1;fill-rule:evenodd;stroke:none;stroke-width:0.352778" /><path
       id="path941-9"
       d="m -1472.671,-3588.6495 h 0.1693 v -61.8984 h -0.1693 z"
       style="fill:#000000;fill-opacity:1;fill-rule:evenodd;stroke:none;stroke-width:0.352778" /><path
       id="path942"
       d="m -1411.6193,-3588.6495 h 0.1693 v -61.8984 h -0.1693 z"
       style="fill:#000000;fill-opacity:1;fill-rule:evenodd;stroke:none;stroke-width:0.352778" /><path
       id="path952"
       d="m -1472.5017,-3588.4802 h 60.8824 v -0.1693 h -60.8824 z"
       style="fill:#000000;fill-opacity:1;fill-rule:evenodd;stroke:none;stroke-width:0.352778" /><g
       id="g1010"
       transform="matrix(0.26458333,0,0,0.26458333,-4191.6705,-3729.0322)"><path
         style="fill:#000000"
         d="m 10337.188,519.74519 c -1.205,-0.64011 -2.025,-2.58789 -2.625,-6.23573 -0.16,-0.97462 -1.173,-3.09212 -2.25,-4.70555 -1.763,-2.64059 -1.928,-3.13774 -1.652,-4.97874 0.349,-2.32693 -0.601,-7.43977 -2.355,-12.67606 -0.637,-1.90276 -1.286,-4.39072 -1.441,-5.52879 -0.155,-1.13806 -0.528,-3.07881 -0.828,-4.31277 -0.458,-1.87762 -0.414,-2.59269 0.27,-4.38409 0.893,-2.33878 3.424,-5.19407 6.271,-7.07411 1.001,-0.66105 2.502,-1.78174 3.335,-2.49042 l 1.515,-1.28851 -1.082,-1.01385 c -0.595,-0.55761 -1.081,-1.44346 -1.081,-1.96854 0,-0.56479 -0.47,-1.13347 -1.151,-1.39243 -0.715,-0.27177 -1.648,-1.45203 -2.46,-3.11306 -0.72,-1.47144 -1.575,-2.67534 -1.899,-2.67534 -0.325,0 -0.973,-0.42243 -1.44,-0.93873 -1.097,-1.21273 -2.748,-0.90249 -7.231,1.35883 -3.338,1.68384 -10.343,6.80664 -13.834,10.11652 -3.781,3.5846 -5.949,10.07595 -5.533,16.56383 0.299,4.65867 1.413,6.67145 3.916,7.07848 2.286,0.37151 5.59,3.4459 5.612,5.22106 0,0.6735 0.333,1.64449 0.721,2.15776 0.389,0.51327 0.706,1.54384 0.706,2.29015 0,0.74631 0.233,1.73259 0.518,2.19174 0.651,1.05014 -0.179,3.47901 -1.188,3.47901 -0.382,0 -1.306,0.30622 -2.055,0.68048 -2.049,1.02478 -6.394,1.66021 -8.068,1.18001 -0.802,-0.23001 -2.384,-0.4182 -3.515,-0.4182 -1.783,0 -2.132,-0.17534 -2.63,-1.3221 -0.671,-1.54375 -2.466,-4.14619 -4.122,-5.97531 -1.318,-1.45572 -1.513,-4.02946 -0.532,-7.00431 0.73,-2.21199 0.269,-12.61075 -0.785,-17.71513 -0.406,-1.96562 -0.675,-5.13172 -0.597,-7.03578 l 0.141,-3.46191 1.909,-0.4499 c 1.807,-0.42613 3.412,-1.65101 8.115,-6.19364 1.997,-1.92914 2.715,-2.22098 2.715,-1.1041 0,1.40348 -7.701,8.26566 -9.945,8.86239 -1.24,0.32947 -1.364,0.57102 -1.499,2.90807 -0.08,1.40182 0.09,3.22616 0.389,4.05409 1.55,4.35683 2.185,17.99442 0.984,21.1541 -0.828,2.1786 -0.626,2.76686 2.426,7.0336 2.92,4.0836 2.924,4.08668 5.401,4.35135 2.304,0.24606 7.146,-0.17242 9.093,-0.78584 2.119,-0.66713 -0.03,-2.97872 -3.987,-4.29381 -2.643,-0.878 -2.983,-1.18294 -2.391,-2.14193 0.339,-0.54849 0.865,-0.49269 3.093,0.32812 l 2.685,0.989 v -1.26669 c 0,-1.28121 -2.871,-4.67015 -5.431,-6.42986 -0.703,-0.48314 -1.661,-2.00582 -2.268,-3.60573 -0.927,-2.44172 -1.019,-3.37288 -0.773,-7.86919 0.477,-8.73333 2.675,-12.99721 9.247,-17.93911 1.083,-0.81403 3.138,-2.43064 4.567,-3.59245 2.713,-2.20587 9.609,-5.82021 11.105,-5.82021 0.477,0 0.861,-0.27043 0.854,-0.60096 -0.02,-0.75528 -3.331,-4.39655 -4.359,-4.78833 -0.87,-0.33177 -3.017,-4.52389 -5.307,-10.36178 -1.202,-3.06619 -1.427,-4.10258 -0.987,-4.54322 0.846,-0.8457 1.218,-0.21514 3.182,5.39061 1.926,5.49941 3.482,8.13518 5.761,9.75781 0.81,0.57722 2.098,1.76067 2.861,2.62989 0.976,1.11195 1.655,1.49547 2.29,1.29389 0.615,-0.19522 0.99,-0.008 1.178,0.58798 0.152,0.48097 0.734,1.9148 1.295,3.18629 0.853,1.9362 1.187,2.26967 2.052,2.05241 0.776,-0.19481 1.172,0.0432 1.587,0.95597 0.305,0.66845 0.554,1.62912 0.554,2.13482 0,0.5057 0.514,1.41498 1.141,2.02062 0.628,0.60565 1.262,1.9033 1.409,2.88368 0.302,2.01295 -0.21,2.59841 -5.8,6.63086 -2.183,1.57501 -3.328,2.82358 -4.21,4.59055 l -1.21,2.42711 0.989,5.02472 c 0.545,2.7636 1.5,6.6473 2.123,8.63045 1.978,6.29071 2.332,8.11381 2.02,10.39268 -0.236,1.72316 -0.106,2.48449 0.595,3.47866 1.854,2.62986 3.31,6.17081 3.636,8.84425 0.374,3.06218 0.237,2.96741 4.976,3.43501 2.917,0.28778 7.28,-0.39894 9.665,-1.52109 1.37,-0.64491 1.491,-0.81883 0.75,-1.07876 -0.485,-0.17043 -1.946,-0.11665 -3.245,0.11953 -2.533,0.46049 -3.014,0.32079 -2.6,-0.75647 0.421,-1.09839 4.712,-1.92453 6.882,-1.32517 2.31,0.63791 2.941,0.0711 1.822,-1.63692 -0.907,-1.38539 -0.753,-1.3745 -5.905,-0.41547 -2.543,0.47335 -1.662,-0.80417 1.418,-2.05582 l 2.609,-1.06022 -1.787,-0.75827 c -0.983,-0.41704 -2.977,-0.75826 -4.43,-0.75826 -2.15,0 -2.738,-0.17903 -3.157,-0.96153 -0.283,-0.52884 -0.408,-0.96153 -0.278,-0.96153 0.129,0 -0.05,-0.81243 -0.401,-1.8054 -0.351,-0.99297 -1.012,-4.03998 -1.471,-6.77113 -0.957,-5.70334 -0.903,-5.95828 2.902,-13.53859 1.97,-3.92522 6.829,-10.28428 9.343,-12.22583 0.661,-0.51057 3.308,-2.99862 5.882,-5.529 10.078,-9.90515 12.307,-14.97254 12.813,-29.11962 0.296,-8.2919 0.886,-10.37727 1.63,-5.76917 0.214,1.3221 0.263,5.10812 0.109,8.41337 -0.255,5.4834 -0.51,7.29897 -1.47,10.4566 -0.294,0.96571 -0.163,1.08172 1.216,1.08172 0.851,0 2.288,0.35198 3.194,0.78218 1.078,0.5116 2.37,0.70078 3.736,0.54687 1.148,-0.12943 2.437,-0.0396 2.864,0.19961 0.48,0.26867 1.551,0.22659 2.801,-0.11007 1.753,-0.47199 2.104,-0.43498 2.624,0.27625 0.507,0.69287 0.841,0.73733 2.141,0.28436 2.078,-0.72454 3.217,-0.67554 3.404,0.14645 0.125,0.5504 0.697,0.45382 2.94,-0.49633 2.657,-1.12569 4.072,-1.17054 3.416,-0.10826 -0.393,0.6352 4.302,0.25004 8.211,-0.6736 l 2.875,-0.67937 0.76,-5.07004 c 0.706,-4.7112 0.901,-5.24676 2.748,-7.56709 2.378,-2.98758 4.245,-4.53624 4.945,-4.10344 0.305,0.18883 -0.445,1.32906 -1.858,2.82353 -1.304,1.37873 -2.697,3.14327 -3.095,3.92119 -0.76,1.48421 -1.573,8.99263 -2.027,18.72189 -0.148,3.17304 -0.571,7.49991 -0.941,9.61527 -0.37,2.11536 -0.916,5.57686 -1.213,7.69222 -0.824,5.85203 -1.883,11.10874 -3.146,15.61601 l -1.143,4.07769 1.052,1.69148 c 0.955,1.53573 1.042,2.25036 0.948,7.7614 -0.121,7.074 -0.08,7.15889 4.425,8.33144 3.122,0.81318 9.379,1.00939 9.379,0.29411 0,-0.58586 -4.021,-3.8783 -4.737,-3.8783 -0.627,0 -0.756,-1.73931 -0.156,-2.11046 0.553,-0.34149 2.958,0.96906 4.527,2.46639 0.725,0.69115 1.429,1.14489 1.565,1.0083 0.137,-0.13659 -0.185,-0.64112 -0.716,-1.12118 -0.53,-0.48006 -0.964,-1.027 -0.964,-1.21543 0,-0.18842 -0.973,-1.7944 -2.163,-3.56884 -1.19,-1.77443 -2.163,-3.76281 -2.163,-4.41861 0,-0.6558 1.098,-4.69531 2.44,-8.97669 1.342,-4.28138 2.85,-9.74015 3.352,-12.1306 1.887,-8.99513 8.567,-27.96473 12.438,-35.32252 0.21,-0.39981 0.743,-1.9683 1.184,-3.48553 0.541,-1.8606 1.05,-2.7586 1.564,-2.7586 0.637,0 0.706,0.37547 0.42,2.28362 -0.188,1.256 -0.537,2.64801 -0.776,3.09336 -0.871,1.62897 -0.389,1.81925 1.478,0.58338 1.051,-0.69561 2.241,-1.13816 2.644,-0.98344 0.403,0.15471 0.733,0.11508 0.733,-0.0881 0,-0.20316 1.568,-2.01649 3.485,-4.02963 3.972,-4.17197 4.348,-4.61596 5.109,-6.0398 0.319,-0.59494 0.843,-0.92259 1.235,-0.77209 0.426,0.16352 0.965,-0.288 1.439,-1.20556 0.418,-0.80685 1.17,-1.68703 1.672,-1.95594 0.503,-0.26891 1.408,-1.30296 2.013,-2.29788 0.605,-0.99492 1.251,-1.91712 1.437,-2.04933 0.186,-0.13221 0.854,-1.52276 1.483,-3.09011 1.152,-2.86739 2.316,-4.0324 2.316,-2.31858 0,1.30823 -3.025,8.10082 -4.178,9.38278 -0.532,0.59066 -1.1,1.45253 -1.263,1.91527 -0.164,0.46273 -0.623,0.84134 -1.021,0.84134 -1.595,0 -2.073,2.41329 -2.379,12.01908 -0.57,17.90694 -0.866,20.85006 -3.401,33.81594 -0.405,2.07251 -0.737,4.73521 -0.737,5.91709 0,1.18189 -0.447,4.30692 -0.994,6.94451 -0.546,2.63759 -0.925,5.12589 -0.841,5.52956 0.09,0.42099 1.49,1.18304 3.289,1.78721 1.725,0.57929 3.692,1.59409 4.371,2.2551 2.016,1.96076 3.44,4.69725 3.116,5.98728 -0.408,1.62723 -2.698,4.20938 -3.47,3.91313 -0.356,-0.13669 -1.543,0.0677 -2.639,0.45428 -1.095,0.38654 -3.457,0.70281 -5.248,0.70281 -2.76,0 -3.869,-0.28164 -7.27,-1.8469 -2.208,-1.01579 -4.309,-2.20369 -4.67,-2.63976 -0.361,-0.43608 -0.825,-2.3341 -1.032,-4.21783 -0.266,-2.42976 -0.704,-3.86295 -1.507,-4.93227 -0.943,-1.25717 -1.109,-1.98597 -1,-4.39188 0.07,-1.58652 0.22,-9.98293 0.328,-18.65869 0.149,-11.99148 0.06,-15.72895 -0.372,-15.58579 -0.945,0.31343 -6.006,15.9126 -7.559,23.30137 -0.236,1.12062 -0.958,3.60858 -1.604,5.52878 -1.676,4.97433 -3.662,12.16319 -3.662,13.2543 0,0.51059 1.514,3.01001 3.364,5.55426 2.934,4.03303 3.363,4.88833 3.35,6.6734 -0.02,2.68786 -0.731,3.51719 -3.35,3.9072 -2.708,0.4034 -11.921,-1.19402 -14.047,-2.4356 -1.988,-1.16148 -2.318,-2.57887 -2.174,-9.34907 0.1,-4.55693 -0.02,-5.76404 -0.65,-6.49031 -1.357,-1.57631 -1.395,-2.52247 -0.251,-6.31116 0.616,-2.04356 1.376,-5.22996 1.687,-7.0809 2.093,-12.45264 3.455,-22.41742 3.729,-27.28334 l 0.318,-5.64897 -1.396,-0.004 c -0.768,-0.002 -2.85,0.36872 -4.628,0.82431 -2.701,0.69243 -3.583,0.73429 -5.375,0.25512 -1.779,-0.47611 -2.443,-0.44779 -3.914,0.16712 -1.804,0.754 -3.405,0.59883 -2.863,-0.27759 0.419,-0.67834 -0.316,-0.60347 -2.328,0.23699 -2.102,0.87875 -4.16,0.93642 -4.16,0.11662 0,-0.593 -0.616,-0.65511 -7.625,-0.76818 -1.417,-0.0229 -2.832,-0.25291 -3.143,-0.51118 -0.311,-0.25827 -1.451,-0.66842 -2.532,-0.91144 l -1.966,-0.44185 -1.328,2.77933 c -0.731,1.52863 -1.798,3.28566 -2.372,3.9045 -0.574,0.61884 -1.246,1.48341 -1.493,1.92127 -0.679,1.19955 -7.83,8.56543 -10.299,10.60922 -5.32,4.4019 -9.236,10.07349 -12.514,18.12444 -1.243,3.0537 -1.251,3.14377 -0.597,7.21145 0.365,2.26552 0.931,5.09267 1.258,6.28256 l 0.594,2.16344 2.622,0.2687 c 3.247,0.33272 6.904,2.11842 7.729,3.77372 0.341,0.68529 0.925,1.61492 1.297,2.06586 0.659,0.79835 0.635,1.49966 -0.19,5.57697 -0.255,1.25838 -0.535,1.56404 -1.345,1.46826 -0.563,-0.0665 -2.321,0.37864 -3.907,0.98927 -3.59,1.38179 -12.701,1.93966 -14.661,0.8977 z m 114.188,-9.95547 c 0.252,-0.24408 1.104,-0.51451 1.895,-0.60096 1.623,-0.17737 2.042,-1.17046 1.06,-2.51293 -0.44,-0.60231 -1.474,-0.97362 -3.161,-1.1358 -1.983,-0.19058 -2.474,-0.40356 -2.347,-1.0189 0.124,-0.60384 0.686,-0.75887 2.513,-0.6927 2.883,0.10446 4.557,0.9462 5.274,2.65115 0.382,0.90783 0.738,1.17436 1.194,0.89293 0.916,-0.56638 0.351,-2.36509 -1.314,-4.18033 -1.695,-1.84842 -3.398,-2.74276 -6.701,-3.51929 -1.389,-0.32647 -2.616,-0.74084 -2.728,-0.92082 -0.111,-0.17999 0.11,-2.05125 0.492,-4.15838 0.381,-2.10712 1.015,-6.31908 1.407,-9.35991 0.393,-3.04083 1.247,-8.1249 1.899,-11.29794 1.521,-7.40585 2.295,-13.90367 2.233,-18.74978 -0.03,-2.11536 0.172,-6.75056 0.44,-10.30043 0.389,-5.13102 0.363,-6.53411 -0.124,-6.84352 -1.027,-0.65177 -1.274,-0.49072 -3.063,1.99989 -0.95,1.3221 -1.982,2.40382 -2.294,2.40382 -0.312,0 -1.751,1.18305 -3.199,2.62899 -1.716,1.71311 -2.91,2.54424 -3.429,2.38572 -0.438,-0.13379 -1.668,0.13471 -2.735,0.59669 -1.664,0.72126 -2.105,1.25028 -3.121,3.74401 -1.759,4.3162 -1.819,4.58673 -1.024,4.58673 0.388,0 0.707,0.16226 0.709,0.36058 0,0.19831 0.09,7.98691 0.193,17.30799 0.111,9.79361 0,17.06066 -0.243,17.21567 -0.76,0.46995 -0.466,3.62227 0.461,4.94493 1.065,1.5194 1.799,3.80728 2.22,6.92284 0.336,2.48251 1.48,3.65424 5.298,5.42556 2.903,1.34724 7.381,2.01599 8.195,1.22419 z m -106.497,5.73217 c 0,-0.26442 0.216,-0.48077 0.48,-0.48077 0.265,0 0.481,0.21635 0.481,0.48077 0,0.26442 -0.216,0.48076 -0.481,0.48076 -0.264,0 -0.48,-0.21634 -0.48,-0.48076 z m -49.605,-43.6293 c -2.586,-3.01161 -0.686,-6.95354 3.694,-7.66442 2.447,-0.39723 2.223,0.89411 -0.311,1.78989 -2.707,0.95671 -3.292,1.98384 -2.208,3.87945 0.462,0.80963 0.841,1.77903 0.841,2.15423 0,0.94487 -1.145,0.85445 -2.016,-0.15915 z m 5.597,-20.04919 c 0.282,-2.25084 0.202,-2.84668 -0.441,-3.31718 -0.661,-0.48373 -0.717,-1.00462 -0.352,-3.32696 0.328,-2.09442 0.289,-2.75344 -0.161,-2.75344 -0.809,0 -1.171,-1.5958 -1.178,-5.20061 0,-2.7852 -0.08,-3.01262 -0.939,-2.74128 -1.341,0.42566 -1.902,-0.94695 -1.982,-4.85125 -0.139,-6.76541 0.935,-13.51454 3.242,-20.37955 1.2,-3.56967 2.344,-6.70665 2.543,-6.97107 0.199,-0.26442 0.494,-1.03744 0.656,-1.71782 0.162,-0.68038 0.845,-2.04932 1.519,-3.04209 l 1.225,-1.80504 -1.494,-1.88573 c -1.008,-1.27328 -1.875,-1.88574 -2.669,-1.88574 -0.647,0 -1.297,-0.31457 -1.445,-0.69905 -0.148,-0.38448 -1.276,-1.1857 -2.509,-1.7805 -2.855,-1.37818 -8.647,-6.93826 -10.036,-9.63342 -1.433,-2.7813 -3.831,-8.49998 -4.223,-10.06989 -0.363,-1.4548 0.422,-2.22301 1.422,-1.3926 1.002,0.83191 1.195,0.0368 0.937,-3.86195 -0.349,-5.2814 0.166,-9.10062 1.228,-9.10062 0.902,0 1.441,-2.65458 1.465,-7.21145 0.02,-4.78202 3.742,-16.04763 5.202,-15.76639 0.495,0.0952 0.898,0.82467 1.082,1.95492 0.281,1.72814 0.923,3.0346 0.923,1.87759 0,-0.30569 1.028,-1.71154 2.284,-3.1241 1.256,-1.41257 2.607,-3.06877 3.004,-3.68044 1.341,-2.06825 4.102,-5.10295 8.911,-9.79287 4.226,-4.12161 5.411,-4.97488 10.076,-7.25584 5.41,-2.64451 11.108,-4.59701 13.415,-4.59701 1.831,0 4.131,1.30497 4.131,2.34381 0,1.26915 -2.398,4.64653 -4.29,6.04283 -1.438,1.06082 -3.13,3.00355 -7.811,8.96651 -2.29,2.91811 -4.723,6.2082 -4.723,6.38738 0,0.0961 -1.219,2.20361 -2.708,4.68328 -3.63,6.0434 -6.842,12.48282 -9.563,19.17178 -2.781,6.83674 -2.795,6.87752 -4.309,12.67236 -1.955,7.48028 -2.005,8.47694 -0.542,10.79569 1.534,2.43036 3.409,3.78149 4.265,3.0738 2.079,-1.71769 14.847,-2.75022 48.668,-3.93547 7.932,-0.27796 14.718,-0.61366 15.08,-0.74601 0.363,-0.13235 8.98,-0.24217 19.149,-0.24405 14.673,-0.003 18.819,-0.14107 20.085,-0.67031 0.878,-0.3668 2.832,-0.92358 4.343,-1.23731 3.162,-0.6565 8.453,-2.92393 10.561,-4.52608 0.794,-0.60388 2.093,-1.43594 2.886,-1.84902 2.567,-1.33674 4.662,-3.75341 4.346,-5.01245 -0.216,-0.86163 0.133,-1.53427 1.508,-2.90995 2.099,-2.09882 4.799,-3.65375 5.726,-3.29777 0.368,0.14113 1.731,-0.79766 3.112,-2.14354 1.352,-1.31706 3.212,-2.78114 4.132,-3.25352 l 1.674,-0.85887 0.122,-5.2604 c 0.1,-4.24751 0.37,-5.97098 1.408,-8.95088 0.707,-2.02977 1.286,-4.03095 1.286,-4.44707 0,-1.5589 1.399,-0.67077 2.784,1.76744 0.789,1.38821 2.755,3.78642 4.37,5.32935 1.614,1.54294 3.423,3.42021 4.019,4.17172 1.205,1.51739 1.462,1.51008 7.959,-0.22628 2.345,-0.62673 4.289,-0.75416 8.611,-0.56454 l 5.582,0.24491 3.116,-2.855 c 1.713,-1.57025 3.465,-2.855 3.893,-2.855 0.427,0 2.373,-1.08172 4.323,-2.40382 5.282,-3.58092 6.864,-3.00297 3.871,1.4144 -0.796,1.17455 -1.769,3.33799 -2.164,4.80764 -0.394,1.46965 -0.912,3.32112 -1.15,4.11438 -0.239,0.79326 -0.698,2.66947 -1.02,4.16935 -0.568,2.63998 -0.541,2.81652 0.869,5.52878 1.745,3.35863 3.488,8.81328 3.485,10.90515 0,0.83151 -0.537,2.8099 -1.19,4.39642 -0.811,1.96901 -1.192,3.81733 -1.2,5.82325 -0.01,2.55151 0.179,3.17811 1.433,4.75614 0.794,0.99961 1.736,2.05699 2.093,2.34973 1.686,1.38352 2.231,2.95343 2.231,6.42384 0,3.45285 -0.923,6.84866 -1.861,6.84866 -0.257,0 -0.707,0.72539 -1,1.61198 -0.778,2.35886 -2.223,3.45948 -6.357,4.84429 -4.91,1.64476 -9.263,1.66561 -13.671,0.0655 -3.56,-1.29237 -6.019,-3.32453 -4.655,-3.84772 0.438,-0.16829 1.212,0.0919 1.781,0.59919 0.554,0.49314 2.381,1.38435 4.061,1.98048 2.582,0.91656 3.584,1.03174 6.489,0.74618 3.491,-0.34307 8.857,-2.16444 9.515,-3.22938 0.2,-0.32266 0.02,-0.95777 -0.39,-1.41589 -0.707,-0.78109 -0.86,-0.74369 -2.564,0.62559 -1.481,1.19073 -2.282,1.46554 -4.391,1.50669 -1.419,0.0277 -3.337,-0.18939 -4.262,-0.48241 -0.925,-0.29301 -3.034,-0.92659 -4.687,-1.40795 -2.3,-0.67001 -3.004,-1.08564 -3.004,-1.77272 0,-0.63717 0.244,-0.81914 0.841,-0.62734 10.483,3.36662 11.731,3.4207 15.123,0.65534 3.186,-2.59733 3.426,-3.46778 1.063,-3.85123 -5.245,-0.85129 -4.414,-6.22061 1.157,-7.4683 1.144,-0.2563 2.182,-0.56817 2.307,-0.69304 0.469,-0.46886 -2.561,-3.13647 -5.085,-4.4767 -1.44,-0.76516 -3.631,-2.38479 -4.869,-3.59919 -1.848,-1.81333 -2.291,-2.58672 -2.48,-4.32687 -0.424,-3.91397 1.637,-6.50165 6.123,-7.68648 4.597,-1.21391 5.141,-1.83896 4.031,-4.626 -1.783,-4.47809 -3.778,-7.64859 -6.588,-10.47361 -2.548,-2.56028 -3.304,-3.06532 -4.237,-2.8309 -0.817,0.20509 -1.137,0.0823 -1.137,-0.43651 0,-1.09674 -1.065,-1.30547 -6.659,-1.30547 -5.042,0 -11.379,1.21648 -12.896,2.47558 -0.973,0.8077 -2.452,-0.009 -4.052,-2.23705 -0.832,-1.15825 -1.809,-2.21982 -2.172,-2.35904 -0.742,-0.28506 -0.877,0.25052 -0.237,0.94264 0.889,0.96017 1.571,4.14654 1.27,5.93001 -0.312,1.84321 -3.796,6.28511 -4.431,5.64937 -0.164,-0.16342 -0.586,-0.0571 -0.94,0.2362 -0.353,0.29334 -1.075,0.42016 -1.604,0.28182 -0.827,-0.21641 -0.919,-0.0797 -0.653,0.97959 0.208,0.8293 0.07,1.40468 -0.418,1.76292 -1.148,0.83972 -3.817,6.49566 -3.514,7.44872 0.149,0.47119 -0.07,2.20576 -0.496,3.85459 -0.701,2.73589 -0.701,3.04695 0,3.55936 0.619,0.45647 0.672,0.87563 0.278,2.24099 -0.266,0.92372 -0.462,2.76264 -0.436,4.08649 0.03,1.72712 0.14,2.07757 0.374,1.24072 0.179,-0.64144 0.578,-1.25025 0.886,-1.35291 0.403,-0.13445 0.539,1.09917 0.486,4.41142 -0.04,2.6487 -0.274,4.59807 -0.547,4.59807 -0.261,0 0.257,0.75396 1.15,1.67547 0.893,0.92151 1.692,1.60723 1.775,1.52382 0.08,-0.0834 -0.186,-1.14371 -0.599,-2.35622 -0.96,-2.81803 -0.765,-5.82309 0.393,-6.04253 0.696,-0.13181 0.842,0.20081 0.847,1.91905 0,3.32677 0.516,5.63842 1.182,5.38283 0.341,-0.13088 0.497,-0.72787 0.368,-1.40536 -0.355,-1.85326 1.037,-1.4505 1.744,0.50485 0.398,1.10001 0.917,1.68267 1.5,1.68267 0.6,0 0.996,0.47108 1.208,1.43678 0.173,0.79023 0.515,1.5602 0.759,1.71104 0.792,0.48954 0.471,1.1925 -0.758,1.65982 -0.661,0.25133 -1.202,0.67866 -1.202,0.94962 0,0.72072 0.754,0.60133 1.442,-0.22848 0.782,-0.94212 1.923,-0.92528 1.923,0.0284 0,0.41224 0.223,0.61171 0.496,0.44328 0.287,-0.17762 0.365,-0.99725 0.187,-1.95143 -0.367,-1.95509 0.171,-2.09358 1.721,-0.44327 0.621,0.66105 1.613,1.20191 2.204,1.20191 1.001,0 3.564,2.42247 3.564,3.36879 0,0.22574 -0.47,0.47957 -1.044,0.56407 -1.32,0.19421 -1.705,1.25309 -0.609,1.67368 0.574,0.22029 1.118,-0.0764 1.762,-0.96127 1.052,-1.44415 2.294,-1.69466 2.294,-0.46263 0,0.65699 0.118,0.69826 0.601,0.21044 0.482,-0.48606 0.434,-0.70135 -0.24,-1.08157 -1.028,-0.57998 -1.118,-2.34999 -0.12,-2.34999 0.396,0 0.721,0.21094 0.721,0.46875 0,0.26003 0.616,0.3455 1.384,0.19195 2.272,-0.45461 2.519,1.1121 0.298,1.89751 -0.307,0.1086 -0.286,0.41532 0.06,0.84915 0.953,1.20564 1.179,5.32005 0.443,8.08228 -1.288,4.83921 -2.633,4.67625 -1.663,-0.2016 0.75,-3.77698 0.534,-4.0551 -3.163,-4.07443 -1.322,-0.007 -3.47,-0.33616 -4.774,-0.73167 -2.438,-0.73987 -7.089,-3.15193 -8.547,-4.43291 -1.224,-1.07519 -1.908,-0.54899 -3.503,2.69484 -0.793,1.61289 -1.611,2.93609 -1.818,2.94044 -1.26,0.0265 -0.451,-2.52558 2.09,-6.59449 0.596,-0.95593 0.454,-1.23619 -1.827,-3.58739 -4.192,-4.32089 -12.576,-16.6525 -15.705,-23.09883 -2.027,-4.17564 -1.794,-4.12953 -5.72,-1.13217 -2.349,1.79318 -10.809,6.05574 -12.019,6.05574 -0.409,0 -1.084,0.33997 -1.5,0.75548 -0.436,0.43675 -0.755,0.5262 -0.755,0.21201 0,-0.29891 -0.21,-0.41396 -0.466,-0.25565 -0.983,0.60812 -7.438,2.098 -7.887,1.82057 -0.561,-0.34691 -37.839,-0.24121 -39.945,0.11326 -0.8,0.13462 -7.619,0.4663 -15.154,0.73707 -7.535,0.27077 -14.781,0.58265 -16.103,0.69307 -1.322,0.11042 -5.864,0.32699 -10.094,0.48128 -8.86,0.32317 -16.26,1.46085 -18.071,2.77854 -1.243,0.904 -1.253,0.90244 -3.387,-0.53779 -2.187,-1.47667 -2.776,-2.31495 -3.843,-5.47285 -0.455,-1.3494 -0.481,-2.37234 -0.102,-4.08649 0.964,-4.3632 3.104,-11.90995 3.814,-13.45417 0.393,-0.8538 1.006,-2.36821 1.363,-3.36534 0.588,-1.64369 5.387,-12.335 7.396,-16.47626 0.449,-0.92547 1.878,-3.30525 3.177,-5.2884 1.299,-1.98315 3.351,-5.12013 4.561,-6.97107 2.876,-4.40128 8.371,-10.9238 11.746,-13.94215 2.87,-2.56754 3.144,-3.13531 1.977,-4.10383 -0.762,-0.63287 -0.629,-0.65181 -7.118,1.01172 -1.695,0.43469 -5.756,2.16034 -9.888,4.20222 -2.249,1.11084 -13.558,12.10316 -15.598,15.16066 -0.91,1.36346 -2.322,3.11301 -3.139,3.88789 -1.789,1.6993 -3.147,4.20448 -3.601,6.64391 -0.513,2.75578 -1.725,2.0589 -1.741,-1.00084 0,-0.70553 -0.14,-1.78057 -0.303,-2.38897 -0.296,-1.10614 -0.296,-1.10613 -1.116,0.24311 -0.452,0.74211 -0.944,1.88893 -1.095,2.54848 -1.384,6.05402 -1.805,9.49692 -1.838,15.02707 -0.04,6.41417 -0.382,8.04685 -1.691,8.04685 -0.618,0 -0.681,0.6331 -0.417,4.20668 0.171,2.31368 0.399,4.35079 0.508,4.52691 0.108,0.17613 -0.01,0.87128 -0.268,1.54479 -0.722,1.89734 1.268,5.86785 4.474,8.92773 3.2,3.05453 7.882,6.2409 9.203,6.26394 1.226,0.0214 3.252,1.35409 4.532,2.98134 1.249,1.58803 1.267,3.66399 0.06,6.28902 -5.074,10.99605 -7.148,18.80853 -7.207,27.15224 -0.02,3.3285 0.02,3.47488 1.057,3.36534 1.052,-0.11133 1.088,0.0352 1.322,5.25481 0.132,2.95313 0.403,5.53122 0.601,5.7291 0.198,0.19787 0.36,-8.1e-4 0.36,-0.44151 0,-0.4407 0.349,-0.80127 0.775,-0.80127 0.61,0 0.716,0.3315 0.497,1.56248 -0.152,0.85937 -0.421,2.7024 -0.597,4.09564 -0.282,2.23235 -0.226,2.49693 0.475,2.22807 0.705,-0.27065 0.758,0.0132 0.467,2.51487 -0.445,3.81707 -0.83,5.12163 -1.586,5.37369 -0.505,0.16863 -0.566,-0.35479 -0.295,-2.53106 z m 162.701,-53.01776 c 0.418,0.0925 0.691,0.47985 0.607,0.86077 -0.118,0.53982 0.03,0.51719 0.658,-0.10261 1.05,-1.03102 0.539,-1.81795 -1.069,-1.64652 -1.384,0.14759 -2.715,1.56384 -2.221,2.36314 0.177,0.28608 0.515,0.0412 0.788,-0.57102 0.27,-0.60659 0.807,-0.99892 1.237,-0.90376 z m 37.532,-5.6849 c 0,-0.84097 -1.507,-0.91767 -2.307,-0.11742 -0.64,0.64043 -0.773,2.43167 -0.222,2.98357 0.443,0.44288 2.529,-1.92137 2.529,-2.86615 z m -44.704,1.94987 c 0.486,-0.58651 0.463,-0.72115 -0.123,-0.72115 -0.397,0 -0.99,0.32452 -1.319,0.72115 -0.487,0.5865 -0.464,0.72114 0.122,0.72114 0.397,0 0.991,-0.32451 1.32,-0.72114 z m 39.897,-4.77927 c 0,-0.50743 -0.922,-0.72062 -1.197,-0.27659 -0.166,0.26873 0.04,0.4886 0.448,0.4886 0.412,0 0.749,-0.0954 0.749,-0.21201 z m -48.875,-4.88372 c -0.185,-0.48204 -0.447,-0.57462 -0.754,-0.26687 -0.551,0.55056 -0.02,1.65707 0.611,1.26856 0.234,-0.14499 0.299,-0.59575 0.143,-1.00169 z m -1.534,-7.70037 c 0.152,-2.29157 -1.046,-4.51139 -2.435,-4.51139 -0.5,0 -1.468,0.66563 -2.152,1.47918 -1.959,2.32809 -1.56,3.15584 0.678,1.4054 2.334,-1.82636 3.364,-0.76042 1.202,1.24402 -0.661,0.61264 -1.202,1.34056 -1.202,1.61761 0,0.66435 1.108,0.6449 1.785,-0.0313 0.294,-0.29426 0.774,-0.38724 1.066,-0.20663 0.359,0.22199 0.193,0.82377 -0.511,1.85713 l -1.042,1.52873 1.24,-1.20191 c 0.865,-0.83887 1.279,-1.79964 1.371,-3.18083 z m 49.574,-1.747 c 0.136,-1.3882 0.135,-2.71109 0,-2.93974 -0.224,-0.37436 -3.603,-0.22831 -5.4,0.23344 -1.315,0.33775 -1.033,-1.70309 0.49,-3.54362 1.647,-1.99144 3.323,-2.34078 5.137,-1.07051 0.958,0.67146 1.087,0.6541 1.549,-0.20878 0.762,-1.42357 0.604,-2.83568 -0.338,-3.03355 -1.689,-0.35467 -6.392,1.18443 -7.887,2.58073 -1.256,1.17314 -1.436,1.62118 -1.178,2.91617 0.169,0.84153 0.631,2.02589 1.028,2.6319 0.763,1.16392 5.336,4.95797 5.976,4.95797 0.207,0 0.488,-1.1358 0.625,-2.52401 z m -54.401,-3.04748 c 1.134,-1.10759 1.686,-2.03442 1.541,-2.58845 -0.187,-0.71477 -0.549,-0.51235 -2.107,1.1782 -1.745,1.89343 -2.355,3.13563 -1.541,3.13563 0.187,0 1.136,-0.77642 2.107,-1.72538 z m -1.314,-2.69422 c 1.095,-0.84427 2.051,-1.57051 2.123,-1.61387 0.341,-0.20417 -0.537,-1.65874 -1.001,-1.65874 -0.873,0 -3.697,3.01009 -3.697,3.94042 0,1.17831 0.27,1.10833 2.575,-0.66781 z m 6.147,0.21292 c 0.04,-0.46273 0.115,-1.95275 0.169,-3.31114 0.07,-1.7255 0.636,-3.57315 1.883,-6.13093 2.094,-4.29493 2.247,-6.89009 0.392,-6.63166 -0.6,0.0836 -1.678,0.69629 -2.396,1.3615 -0.717,0.66521 -1.912,1.56816 -2.654,2.00656 -1.881,1.11147 -2.051,2.41871 -0.835,6.42185 1.825,6.00953 3.248,8.60805 3.441,6.28382 z m -7.28,-3.9471 c 2.208,-1.94033 1.978,-2.61413 -0.377,-1.10753 -1.371,0.87657 -2.466,2.04184 -2.492,2.65081 -0.03,0.73527 0.762,0.30866 2.869,-1.54328 z m -0.04,-3.58078 c 0.641,-0.68533 0.953,-1.24605 0.695,-1.24605 -0.259,0 -1.216,0.78434 -2.127,1.74297 -1,1.05202 -1.275,1.54598 -0.695,1.24606 0.529,-0.27331 1.486,-1.05765 2.127,-1.74298 z m -1.825,-1.12586 c 0.597,-0.76252 0.58,-0.77952 -0.182,-0.18152 -0.801,0.62806 -1.055,1.02285 -0.66,1.02285 0.1,0 0.479,-0.3786 0.842,-0.84133 z m 17.657,-15.74501 c -0.05,-1.3221 0.08,-2.78409 0.282,-3.24887 0.235,-0.53398 0.06,-1.31678 -0.468,-2.12659 -0.769,-1.17316 -0.891,-1.21216 -1.44,-0.46111 -0.913,1.24896 -1.43,8.81567 -0.665,9.73728 0.545,0.65659 0.716,0.6134 1.498,-0.37777 0.628,-0.79592 0.857,-1.81335 0.793,-3.52294 z m 38.245,-0.25101 c 0.18,-1.59236 0.643,-3.78954 1.029,-4.88263 0.385,-1.09308 0.62,-2.0679 0.522,-2.16626 -0.708,-0.70843 -7.042,4.08655 -7.042,5.33125 0,0.3266 0.797,1.22768 1.772,2.00238 0.974,0.77471 2.002,1.67076 2.283,1.99123 0.893,1.01723 1.101,0.68817 1.436,-2.27597 z m -96.141,102.49099 c -3.632,-2.00369 -5.969,-3.92741 -5.969,-4.91404 0,-1.61447 0.911,-1.46332 2.846,0.47197 1.056,1.05635 2.772,2.35483 3.812,2.8855 l 1.891,0.96485 0.257,-0.98485 c 0.256,-0.97826 0.268,-0.97754 1.734,0.10703 1.798,1.32946 1.842,1.75745 0.244,2.36525 -1.758,0.6684 -2.091,0.60634 -4.815,-0.89571 z m -50.946,-2.67714 c -0.327,-1.30111 0.557,-3.34774 1.258,-2.91445 0.783,0.48409 0.558,4.07158 -0.256,4.07158 -0.391,0 -0.842,-0.52071 -1.002,-1.15713 z m 39.881,-1.65707 c -2.82,-2.06378 -3.838,-3.34671 -3.179,-4.00583 0.409,-0.40933 1.08,-0.0565 2.658,1.39904 1.162,1.07054 2.576,2.09375 3.143,2.27382 1.263,0.40079 1.371,1.70488 0.142,1.70488 -0.489,0 -1.733,-0.61736 -2.764,-1.37191 z m -41.916,0.31423 c -0.318,-0.3173 -0.584,-0.91225 -0.592,-1.3221 -0.01,-0.59914 -0.113,-0.57507 -0.519,0.12281 -0.622,1.06855 -1.627,0.40453 -2.072,-1.36847 -0.163,-0.65021 -0.575,-1.18219 -0.916,-1.18219 -0.642,0 -1.891,-2.54029 -2.482,-5.04802 -0.512,-2.17475 -0.321,-14.29886 0.234,-14.85405 0.615,-0.61532 0.536,-1.29853 0.916,7.88298 0.225,5.4119 0.545,8.31452 1.008,9.1345 0.461,0.81533 0.714,0.96996 0.788,0.48077 0.577,-3.80485 0.753,-4.32687 1.463,-4.32687 0.632,0 0.712,0.38325 0.461,2.21353 -0.333,2.42769 0.07,5.95945 0.681,5.95945 0.212,0 0.455,-0.46983 0.54,-1.04406 0.294,-2.00152 1.221,-1.43949 1.492,0.90534 0.287,2.47689 -0.08,3.37005 -1.002,2.44638 z m 108.295,-13.85475 c -0.184,-0.29715 -0.191,-1.49846 -0.01,-2.66957 0.271,-1.80512 0.196,-2.12931 -0.494,-2.12931 -0.678,0 -0.768,-0.3375 -0.54,-2.04324 0.149,-1.12379 0.415,-2.51536 0.59,-3.09239 0.27,-0.88823 0.165,-1.00891 -0.684,-0.78679 -1.482,0.38755 -1.688,-0.78214 -0.735,-4.17851 0.687,-2.44766 0.72,-3.03925 0.191,-3.36669 -0.537,-0.3315 -0.536,-0.86119 0,-3.20028 0.805,-3.49145 1.289,-4.48569 2.187,-4.48569 0.859,0 0.884,0.63422 0.112,2.76937 -0.521,1.441 -0.489,1.69293 0.267,2.11619 0.575,0.32134 0.709,0.66662 0.408,1.0426 -0.433,0.53938 -2.006,6.86265 -2.006,8.06321 0,0.36714 0.336,0.27656 0.914,-0.24642 0.884,-0.80035 1.878,-0.33897 1.296,0.60198 -0.137,0.22263 -0.442,1.62886 -0.677,3.12496 -0.338,2.15612 -0.294,2.72018 0.213,2.72018 0.474,0 0.61,0.76357 0.528,2.96523 -0.105,2.81671 -0.788,4.04153 -1.558,2.79517 z m -142.218,-4.19792 c -1.189,-2.30231 -1.822,-5.44933 -1.491,-7.41038 0.388,-2.29705 1.417,-2.20967 1.455,0.12356 0.04,2.38087 0.709,5.67634 1.217,5.99057 0.589,0.36387 0.563,2.61835 -0.03,2.61835 -0.258,0 -0.776,-0.59495 -1.152,-1.3221 z m 108.803,-3.75722 c -0.258,-0.67826 -0.469,-1.50842 -0.469,-1.84479 0,-1.0566 -3.765,-5.92336 -4.79,-6.1914 -1.248,-0.32638 -1.292,-1.78816 -0.05,-1.78816 2.268,0 5.793,5.0728 6.431,9.2547 0.315,2.06325 -0.41,2.43258 -1.118,0.56965 z m 46.639,-1.55587 c 0,-2.02447 2.363,-8.8704 3.284,-9.51585 0.531,-0.37228 1.109,-1.32564 1.283,-2.11857 0.174,-0.79294 0.624,-1.4417 0.999,-1.4417 0.865,0 0.856,0.31429 -0.113,4.17241 -0.548,2.1836 -1.058,3.23684 -1.641,3.38928 -0.57,0.14903 -1.117,1.22571 -1.679,3.30081 -0.502,1.85547 -1.092,3.07965 -1.483,3.07965 -0.357,0 -0.65,-0.38972 -0.65,-0.86603 z m -157.316,-12.40356 c -0.188,-0.18849 -0.225,-1.44456 -0.08,-2.79126 0.143,-1.3467 0.07,-4.2491 -0.152,-6.44977 -0.295,-2.85475 -0.255,-4.21872 0.141,-4.76028 0.891,-1.2183 1.119,-0.21188 1.449,6.39642 0.245,4.90479 0.171,6.3938 -0.352,7.07939 -0.364,0.47751 -0.816,0.71399 -1.005,0.5255 z m 162.2,-12.85034 c -0.579,-0.61611 -2.023,-1.60484 -3.208,-2.19716 -2.139,-1.06835 -2.586,-1.64903 -1.692,-2.20121 0.981,-0.60669 7.707,3.83306 7.707,5.08763 0,0.84663 -1.774,0.41114 -2.807,-0.68926 z m -1.519,-21.47567 c 0,-1.97171 0.595,-2.87469 2.895,-4.39163 1.179,-0.77782 1.158,-0.78945 -1.993,-1.13121 -2.054,-0.22277 -3.535,-0.15714 -4.174,0.18495 -1.428,0.76417 -2.016,0.65594 -2.016,-0.37118 0,-0.62499 0.461,-0.99358 1.503,-1.20191 4.293,-0.85886 10.295,0.29727 14.428,2.7795 2.82,1.69379 3.303,2.8456 1.289,3.0783 -0.707,0.0818 -1.545,0.4604 -1.861,0.84134 -0.316,0.38093 -1.389,0.6926 -2.384,0.6926 -0.995,0 -2.428,0.32319 -3.186,0.71819 -0.757,0.395 -2.079,0.71951 -2.939,0.72114 -1.502,0.003 -1.562,-0.0704 -1.562,-1.92009 z m -173.891,-11.11415 c 0.288,-7.08544 1.335,-12.51671 2.771,-14.36632 1.159,-1.49303 1.268,-0.53056 0.264,2.31765 -0.748,2.12053 -1.656,9.38171 -1.839,14.71114 -0.08,2.3433 -0.313,3.3927 -0.786,3.54914 -0.561,0.18555 -0.628,-0.83671 -0.41,-6.21161 z m 3.6,-2.14786 c -0.39,-2.03942 2.142,-12.90988 4.021,-17.26648 1.068,-2.4754 4.754,-8.77374 5.493,-9.38782 1.353,-1.12285 0.767,0.55463 -1.418,4.06081 -3.577,5.74019 -5.169,10.71945 -5.802,18.15129 -0.407,4.76773 -0.633,5.68512 -1.401,5.68512 -0.36,0 -0.763,-0.55932 -0.893,-1.24292 z m 1.838,-20.82402 c -0.448,-0.72342 0.542,-2.80133 3.316,-6.96438 3.828,-5.74399 11.315,-13.43021 11.315,-11.61537 0,0.12002 -1.631,1.90485 -3.624,3.9663 -3.442,3.55897 -7.9,9.23395 -7.923,10.08416 0,0.21704 -0.434,0.93547 -0.951,1.59652 -0.517,0.66105 -0.945,1.56775 -0.951,2.01488 -0.01,0.95951 -0.786,1.55976 -1.182,0.91789 z m 7.42,-1.95419 c 0,-0.5332 3.62,-6.43591 5.908,-9.63493 2.155,-3.01231 7.415,-8.46729 7.797,-8.08531 0.174,0.17357 -0.08,0.71952 -0.566,1.21323 -0.484,0.4937 -1.422,1.59929 -2.083,2.45685 -0.661,0.85756 -1.876,2.3065 -2.7,3.21987 -1.709,1.89387 -5.468,7.40687 -6.634,9.73152 -0.743,1.48003 -1.722,2.10448 -1.722,1.09877 z"
         id="path1"
         sodipodi:nodetypes="cccccscsscccsccscccccccscsccsccccccccscccccccccccscccccscccccccsccccsccccccccccsccccccssccscssccccccccscccccccccccccccccsccccccssccccsssscccscccssccsccsscsccsccsccsccccscscccccccsccccccccccccccccscscccsccccccsccccccccscccsccccccccccccscsccscccccccsssssccccsccccsccccsscccsscccccscccsscccssccscccccscccscccccccccsscccssccscccccccccccsscsccccccccsscsccccccccccccssccccccccccccccccccssccccsccsccsscscccsscscsccsscscccccccsccccscscccssscccccccscccccccccccccsccccscccccssscscccccsccsccssccscscscscssccccsscccscccccsscccccccsccsccccsscccssccccsccccccccssccsccsccccssscsccsccscscccccccccscccccscccccscccccscscccccsccccccssccscccscccccccscccssscccscsscscsscccccccccccscscscscccssccsccccsccccccscccsccsccscccsccs" /></g></g></svg>
