<?xml version="1.0" encoding="UTF-8" standalone="no"?>
<!-- Created with Inkscape (http://www.inkscape.org/) -->

<svg
   width="61.221001mm"
   height="62.240601mm"
   viewBox="0 0 61.221 62.240601"
   version="1.1"
   id="svg1"
   xml:space="preserve"
   xmlns="http://www.w3.org/2000/svg"
   xmlns:svg="http://www.w3.org/2000/svg"><defs
     id="defs1" /><g
     id="layer1"
     transform="translate(1472.671,3650.7208)"><g
       id="g1192"
       transform="matrix(0.26458333,0,0,0.26458333,-4620.5935,-3791.3856)"><path
         style="fill:#000000"
         d="m 12085.99,754.16303 c 0,-0.91071 0.689,-1.30568 1.64,-0.94057 1.22,0.46809 0.908,1.63375 -0.437,1.63375 -0.727,0 -1.203,-0.27448 -1.203,-0.69318 z m 2.742,-0.57298 c -0.185,-0.18553 -0.337,-1.16713 -0.337,-2.18133 0,-1.31842 -0.206,-1.84401 -0.721,-1.84401 -0.481,0 -0.722,0.48104 -0.722,1.44314 0,0.99131 -0.237,1.44313 -0.756,1.44313 -0.68,0 -0.728,-1.98343 -0.477,-19.60261 0.406,-28.49598 0.339,-35.85953 -0.331,-36.27336 -0.31,-0.19166 -2.818,-1.17326 -5.573,-2.18134 -2.756,-1.00809 -5.105,-2.07955 -5.221,-2.38103 -0.116,-0.30148 -0.591,-0.44884 -1.055,-0.32746 -0.464,0.12138 -2.02,-0.31136 -3.456,-0.96163 -1.437,-0.65028 -3.343,-1.33766 -4.235,-1.52751 -1.001,-0.21301 -1.713,-0.69404 -1.86,-1.25623 -0.255,-0.97458 -0.904,-1.21725 -1.168,-0.43641 -0.166,0.49034 -1.938,-0.10411 -17.306,-5.80611 -4.933,-1.83004 -9.149,-3.32735 -9.37,-3.32735 -0.423,0 -6.473,-2.17335 -8.119,-2.91676 -0.529,-0.23891 -3.629,-1.31302 -6.888,-2.38691 -6.159,-2.02897 -9.839,-3.3853 -12.426,-4.57965 -0.834,-0.38483 -1.74,-0.69969 -2.013,-0.69969 -0.274,0 -0.999,-0.19054 -1.611,-0.42341 -0.613,-0.23288 -1.33,-0.47384 -1.595,-0.53547 -0.264,-0.0616 -1.563,-0.54345 -2.886,-1.07071 -1.323,-0.52726 -5.309,-1.92378 -8.859,-3.10337 -3.55,-1.17959 -7.275,-2.56371 -8.279,-3.07581 -1.004,-0.5121 -2.046,-0.9311 -2.316,-0.9311 -0.907,0 -5.822,3.40342 -8.107,5.61365 -4.579,4.42949 -8.288,7.33983 -9.005,7.06497 -1.357,-0.52084 -0.96,-1.11526 2.681,-4.01979 1.161,-0.92602 3.188,-2.71891 4.503,-3.98422 1.316,-1.2653 3.323,-2.88883 4.462,-3.60784 1.138,-0.71901 2.069,-1.53835 2.07,-1.82075 0,-0.2824 -1.234,-0.90258 -2.743,-1.37819 l -2.743,-0.86473 -1.274,1.42636 c -0.701,0.78449 -2.227,2.08454 -3.39,2.889 -1.164,0.80445 -3.09,2.47991 -4.281,3.72324 -2.483,2.59349 -2.575,2.6796 -4.731,4.4091 -1.437,1.15307 -3.922,4.0324 -8.612,9.97972 -2.794,3.54301 -7.655,11.06095 -8.731,13.50429 -1.06,2.4047 -1.847,3.28079 -2.556,2.84297 -0.808,-0.49979 -0.325,-2.52159 1.06,-4.43346 0.793,-1.09571 1.443,-2.08018 1.443,-2.18772 0,-0.71295 4.649,-7.62853 8.039,-11.95921 2.62,-3.34532 4.373,-5.17124 4.965,-5.17124 0.594,0 0.823,-0.24035 0.653,-0.68378 -0.25,-0.65283 8.063,-9.15924 10.611,-10.85642 1.69,-1.12596 4.594,-3.78132 4.593,-4.19936 0,-0.20651 -1.137,-0.73464 -2.525,-1.17362 -5.242,-1.65727 -22.239,-7.95867 -25.374,-9.40743 -1.926,-0.88998 -11.765,-4.44643 -13.266,-4.79544 -0.994,-0.23123 -0.999,-0.16036 -1.075,15.32161 -0.04,8.55465 0.132,17.82685 0.388,20.60489 0.878,9.53092 1.07,19.88509 0.385,20.74579 -0.974,1.22436 -3.34,1.4545 -4.667,0.45394 -1.073,-0.80927 -1.133,-1.12544 -1.032,-5.37749 0.06,-2.48471 0.09,-15.34119 0.08,-28.56995 -0.02,-13.22876 0.175,-26.21699 0.428,-28.86274 0.6,-6.30161 0.674,-8.96583 0.273,-9.91968 -0.574,-1.36939 0.838,-2.21618 3.169,-1.89924 2.372,0.32264 2.224,-0.36025 1.583,7.29404 l -0.347,4.13396 2.179,1.0548 c 1.199,0.58015 2.582,1.1527 3.073,1.27234 1.265,0.30769 6.797,2.31687 9.011,3.27266 1.024,0.4423 1.981,0.80419 2.126,0.80419 0.245,0 3.166,1.03344 14.531,5.14207 10.167,3.67547 15.959,6.06499 16.196,6.68133 0.176,0.45884 0.603,0.23023 1.45,-0.77601 0.66,-0.78456 1.377,-1.42648 1.593,-1.42648 0.216,0 1.982,-0.98224 3.926,-2.18276 3.692,-2.28109 8.394,-3.97795 9.08,-3.27712 0.741,0.75654 -0.715,1.86663 -4.247,3.23785 -3.917,1.52065 -8.13,4.13092 -7.856,4.86778 0.1,0.26458 1.258,0.88383 2.578,1.37612 1.844,0.68809 2.637,0.77549 3.429,0.37795 1.789,-0.89867 6.298,-3.51436 6.885,-3.99475 0.821,-0.67095 8.511,-3.22755 8.937,-2.97096 1.26,0.75988 -1.03,2.84871 -3.486,3.17803 -1.027,0.13786 -2.477,0.56923 -3.22,0.9586 -4.366,2.28638 -6.615,3.63516 -6.753,4.04979 -0.09,0.25877 0.769,0.75159 1.901,1.09515 1.131,0.34356 2.707,0.90053 3.5,1.23771 0.794,0.33718 3.392,1.26937 5.773,2.07155 2.381,0.80217 6.818,2.35527 9.861,3.45132 3.043,1.09605 8.129,2.85154 11.304,3.90109 3.175,1.04954 6.206,2.09525 6.735,2.3238 1.605,0.69342 2.795,1.11935 4.81,1.72221 2.605,0.77922 14.729,5.09246 19.348,6.88323 2.058,0.79781 5.149,1.91866 6.869,2.4908 6.509,2.16552 11.338,3.85346 12.266,4.2878 0.529,0.24751 1.99,0.88479 3.247,1.41616 1.257,0.53137 2.288,1.24888 2.292,1.59448 0,0.45043 0.108,0.47138 0.361,0.074 0.252,-0.39513 1.597,-0.0852 4.683,1.07885 2.381,0.89829 4.6,1.63482 4.931,1.63675 0.395,0.002 0.605,-0.77911 0.614,-2.28147 0.02,-3.23181 0.532,-17.00486 0.678,-18.15947 0.1,-0.76201 0.542,-0.99312 2.146,-1.11127 2.187,-0.1611 4.86,0.75729 4.86,1.66965 0,0.31023 -0.205,0.63621 -0.454,0.72441 -0.834,0.2943 -1.616,11.67769 -1.871,27.21917 -0.04,2.71189 -0.243,4.8766 -0.441,4.81046 -0.199,-0.0661 -0.361,0.0962 -0.361,0.36078 0,0.26458 0.19,0.4175 0.423,0.33983 0.244,-0.0813 0.259,7.98533 0.03,19.0013 -0.214,10.52839 -0.422,21.74018 -0.462,24.91508 -0.06,4.65356 -0.209,5.79908 -0.779,5.90944 -0.388,0.0753 -0.858,-0.0149 -1.044,-0.20044 z m 0.03,-8.33992 c -0.08,-0.39895 -0.516,-0.79783 -0.976,-0.88641 -0.639,-0.12316 -0.836,0.16798 -0.836,1.23718 0,0.76903 0.156,1.55464 0.348,1.74581 0.473,0.47317 1.638,-1.19472 1.464,-2.09658 z m 0.02,-5.22346 c 0.126,-1.71782 0.01,-2.00706 -0.788,-2.00706 -1.066,0 -1.651,2.29998 -0.918,3.60968 0.724,1.29426 1.549,0.51919 1.706,-1.60262 z m 0.573,-5.95851 c 0,-2.14509 -1.146,-2.51761 -1.998,-0.64916 -0.686,1.50755 -0.304,2.47027 0.981,2.47027 0.856,0 1.017,-0.28807 1.017,-1.82111 z m 0,-5.66946 c 0,-1.60349 -0.16,-1.92419 -0.962,-1.92419 -0.802,0 -0.962,0.3207 -0.962,1.92419 0,1.60348 0.16,1.92418 0.962,1.92418 0.802,0 0.962,-0.3207 0.962,-1.92418 z m -0.09,-5.41588 c 0.121,-1.04862 -0.05,-1.31876 -0.81,-1.31876 -1.006,0 -1.801,1.53992 -1.253,2.42755 0.587,0.94953 1.907,0.23988 2.063,-1.10879 z m 0.09,-5.64818 c 0,-1.56378 -0.17,-1.92418 -0.906,-1.92418 -0.601,0 -0.989,0.43481 -1.153,1.29239 -0.33,1.72452 0.04,2.55598 1.149,2.55598 0.741,0 0.91,-0.35695 0.91,-1.92419 z m 0.169,-6.01307 c -0.107,-2.14462 -0.115,-2.1647 -0.839,-2.1647 -0.781,0 -1.254,1.02623 -1.254,2.71855 0,0.9659 0.209,1.16708 1.082,1.04301 0.868,-0.12325 1.068,-0.43982 1.011,-1.59686 z m -0.275,-4.97512 c 0.96,-0.60922 0.567,-3.44318 -0.477,-3.44318 -0.683,0 -0.86,0.39703 -0.86,1.92418 0,1.95341 0.234,2.21901 1.337,1.519 z m 0.02,-6.93076 c -0.08,-0.59529 -0.37,-1.08235 -0.634,-1.08235 -0.265,0 -0.551,0.48706 -0.635,1.08235 -0.106,0.74474 0.09,1.08235 0.635,1.08235 0.542,0 0.74,-0.33761 0.634,-1.08235 z m -0.22,-4.81046 c 0.483,-0.77211 0.769,-3.63319 0.998,-9.9817 0.233,-6.48363 0.508,-9.18634 1.012,-9.95661 0.444,-0.67925 0.517,-1.1652 0.203,-1.35915 -0.268,-0.16604 -0.457,-0.55615 -0.418,-0.86692 0.173,-1.40571 -0.104,-1.82597 -1.109,-1.68084 -1.485,0.21446 -1.696,1.63811 -2.1,14.22431 -0.353,10.96903 -0.177,12.16409 1.414,9.62091 z m -161.802,-0.63658 c 0,-0.44797 -0.328,-0.69336 -0.802,-0.6013 -1.207,0.23405 -1.373,1.35814 -0.2,1.35814 0.59,0 1.002,-0.3106 1.002,-0.75684 z m 158.626,-0.32551 c -0.245,-0.75429 -1.74,-1.48524 -6.691,-3.27332 -2.152,-0.77713 -4.153,-1.58492 -4.446,-1.79508 -0.293,-0.21017 -1.831,-0.7918 -3.419,-1.29252 -1.587,-0.50071 -3.102,-1.05907 -3.367,-1.2408 -0.265,-0.18173 -1.347,-0.60331 -2.405,-0.93684 -1.058,-0.33354 -2.167,-0.79791 -2.463,-1.03195 -0.297,-0.23403 -1.379,-0.47641 -2.405,-0.53861 -1.027,-0.0622 -2.083,-0.37362 -2.348,-0.69203 -0.264,-0.31841 -2.104,-1.11524 -4.089,-1.77072 -1.984,-0.65548 -6.846,-2.41518 -10.804,-3.91044 -3.959,-1.49527 -9.803,-3.56162 -12.988,-4.5919 -3.185,-1.03028 -8.497,-2.82266 -11.804,-3.98306 -3.307,-1.16041 -8.611,-3.01664 -11.786,-4.12496 -3.175,-1.10833 -6.205,-2.19613 -6.734,-2.41735 -3.238,-1.3535 -13.715,-4.97268 -14.976,-5.17316 -2.314,-0.36798 -2.354,0.63468 -0.06,1.44689 1.125,0.39765 5.199,1.81579 9.054,3.15142 3.856,1.33563 7.644,2.68378 8.418,2.9959 3.785,1.52459 11.261,4.1494 32.677,11.47294 4.762,1.62854 9.091,3.15438 9.62,3.39074 3.03,1.35315 7.46,3.02531 9.063,3.42083 1.634,0.4031 6.006,2.0656 8.736,3.32248 0.529,0.2436 2.327,0.88968 3.995,1.43573 1.668,0.54605 5.456,1.94457 8.418,3.10783 4.902,1.9253 9.572,3.51021 10.596,3.59578 0.221,0.0184 0.313,-0.23708 0.205,-0.5678 z m -158.626,-4.00058 c 0,-1.5866 -0.1,-1.70416 -1.319,-1.5634 -2.221,0.25635 -2.128,3.27901 0.101,3.27901 1.075,0 1.218,-0.20065 1.218,-1.71561 z m -0.224,-4.08428 c 0.374,-0.60446 -0.123,-2.86213 -0.627,-2.85156 -1.065,0.0223 -1.662,0.94081 -1.37,2.1057 0.318,1.26855 1.42,1.6799 1.997,0.74586 z m -0.257,-5.71681 c 0,-0.51354 -0.236,-1.07915 -0.523,-1.25691 -0.736,-0.45461 -1.587,0.53198 -1.24,1.4367 0.412,1.07457 1.763,0.93684 1.763,-0.17979 z m -0.481,-5.05099 c 0,-1.29121 -0.761,-2.07309 -1.084,-1.11374 -0.279,0.83031 0.14,2.28797 0.659,2.28797 0.233,0 0.425,-0.5284 0.425,-1.17423 z m -0.241,-6.5225 c 0.164,-0.26458 0.07,-0.48105 -0.212,-0.48105 -0.28,0 -0.509,0.21647 -0.509,0.48105 0,0.26457 0.09,0.48104 0.212,0.48104 0.116,0 0.346,-0.21647 0.509,-0.48104 z m 0.08,-4.5376 c -0.159,-0.41465 -0.512,-0.75391 -0.785,-0.75391 -0.554,0 -0.68,1.58011 -0.168,2.09255 0.528,0.5281 1.27,-0.51349 0.953,-1.33864 z m -0.319,-4.21744 c 0,-0.77708 -0.143,-0.91605 -0.536,-0.52296 -0.294,0.29444 -0.39,0.77068 -0.212,1.0583 0.498,0.80512 0.748,0.62615 0.748,-0.53534 z m 55.588,-3.47727 c 0.767,-0.56479 0.805,-0.72674 0.212,-0.90908 -0.397,-0.12202 -1.718,-0.57601 -2.935,-1.00885 -2.099,-0.74641 -3.8,-0.64895 -3.8,0.21776 0,0.32525 4.393,2.27588 5.32,2.36231 0.148,0.0138 0.689,-0.28418 1.203,-0.66214 z m -55.588,-1.33318 c 0,-0.77709 -0.143,-0.91605 -0.536,-0.52296 -0.294,0.29443 -0.39,0.77067 -0.212,1.0583 0.498,0.80511 0.748,0.62615 0.748,-0.53534 z m 47.347,-1.77215 c 0.145,-0.23387 -0.329,-0.6451 -1.054,-0.91386 -4.836,-1.79465 -7.32,-2.69948 -12.861,-4.68491 -3.44,-1.23227 -7.12,-2.62569 -8.178,-3.09648 -1.058,-0.47079 -2.465,-1.01207 -3.127,-1.20283 -0.661,-0.19077 -2.609,-0.8987 -4.329,-1.57319 -5.991,-2.34978 -15.132,-5.34178 -15.544,-5.08755 -0.779,0.48152 0.566,1.23559 4.567,2.56094 2.201,0.72904 5.95,2.09439 8.331,3.03411 4.397,1.73532 9.036,3.48469 16.837,6.34882 4.901,1.79968 10.002,3.73841 11.785,4.47947 1.51,0.62734 3.229,0.69253 3.573,0.13548 z m -47.079,-9.56839 c -0.156,-0.1566 -0.517,-0.0518 -0.802,0.23286 -0.369,0.36942 -0.334,0.84221 0.125,1.65159 l 0.642,1.134 0.16,-1.36686 c 0.09,-0.75177 0.03,-1.49498 -0.125,-1.65159 z m 0.126,-3.59593 c -0.09,-0.5953 -0.37,-1.08236 -0.635,-1.08236 -0.264,0 -0.55,0.48706 -0.635,1.08236 -0.105,0.74474 0.09,1.08235 0.635,1.08235 0.543,0 0.741,-0.33761 0.635,-1.08235 z m 0.473,-10.52042 c 0.206,-2.34946 0.238,-4.27174 0.07,-4.27174 -0.298,0 -1.449,8.24737 -1.389,9.9536 0.08,2.15022 0.969,-1.70125 1.318,-5.68186 z m 1.578,99.51388 c -0.266,-0.70244 -0.19,-1.50448 0.217,-2.28497 0.346,-0.66143 1.199,-2.69687 1.897,-4.52318 0.697,-1.82631 1.797,-4.314 2.443,-5.5282 0.646,-1.21419 1.175,-2.43541 1.175,-2.71381 0,-0.46979 3.227,-7.42523 4.455,-9.60343 0.298,-0.52915 1.612,-3.01857 2.92,-5.53203 1.308,-2.51346 3.166,-5.65229 4.13,-6.97516 0.964,-1.32288 2.161,-3.04902 2.661,-3.83587 0.501,-0.78685 1.144,-1.71436 1.429,-2.06114 0.286,-0.34677 0.737,-0.89358 1.002,-1.21511 0.265,-0.32154 1.103,-1.54006 1.863,-2.70783 1.415,-2.17653 9.195,-10.14345 9.905,-10.14345 0.217,0 0.538,0.37387 0.713,0.83084 0.237,0.61736 -0.504,1.56623 -2.883,3.69299 -1.761,1.57418 -4.259,4.28501 -5.55,6.02406 -1.292,1.73905 -2.541,3.39273 -2.775,3.67483 -0.234,0.28211 -1.265,1.7974 -2.291,3.36732 -1.027,1.56992 -1.987,2.96264 -2.134,3.09492 -1.083,0.975 -3.221,4.40146 -4.851,7.77672 -1.064,2.2049 -2.215,4.33361 -2.557,4.73047 -0.342,0.39687 -1.098,2.01777 -1.681,3.60201 -0.584,1.58423 -1.233,3.09953 -1.443,3.36732 -0.21,0.26778 -0.655,1.35277 -0.988,2.41107 -0.333,1.0583 -0.888,2.46536 -1.233,3.12679 -1.631,3.12923 -3.112,6.81843 -3.586,8.93515 -0.788,3.51671 -2.035,4.61026 -2.838,2.48969 z m 23.531,-32.59085 c 0,-0.26457 0.216,-0.48104 0.481,-0.48104 0.264,0 0.481,0.21647 0.481,0.48104 0,0.26458 -0.217,0.48105 -0.481,0.48105 -0.265,0 -0.481,-0.21647 -0.481,-0.48105 z m 115.448,-17.31765 c 0,-0.26457 0.217,-0.48104 0.482,-0.48104 0.264,0 0.481,0.21647 0.481,0.48104 0,0.26458 -0.217,0.48105 -0.481,0.48105 -0.265,0 -0.482,-0.21647 -0.482,-0.48105 z m 18.12,-5.13115 c -0.177,-0.17638 -0.321,-0.54438 -0.321,-0.81778 0,-0.30142 0.224,-0.27302 0.569,0.0722 0.313,0.31308 0.457,0.68108 0.321,0.81778 -0.137,0.13669 -0.393,0.10422 -0.569,-0.0722 z m -45.703,-8.0904 c -0.439,-0.43862 -0.798,-1.29945 -0.798,-1.91296 0,-0.61351 -0.849,-2.81687 -1.887,-4.89636 -1.682,-3.3685 -1.805,-3.84514 -1.128,-4.36991 0.677,-0.5246 0.65,-0.62998 -0.252,-0.96363 -1.179,-0.4362 -4.626,-6.62069 -4.245,-7.61534 0.141,-0.3674 -0.113,-0.87497 -0.565,-1.12794 -0.452,-0.25296 -0.714,-0.61032 -0.581,-0.79413 0.244,-0.33902 -5.295,-2.01642 -7.937,-2.40392 -0.794,-0.11638 -3.067,-0.44563 -5.051,-0.73167 -7.649,-1.10254 -7.269,-1.00519 -6.682,-1.71296 0.368,-0.44309 0.379,-0.65747 0.03,-0.65747 -0.281,0 -0.657,0.23679 -0.836,0.5262 -0.2,0.3235 -1.091,0.41579 -2.314,0.23958 -1.093,-0.15764 -3.682,-0.27465 -5.753,-0.26003 -2.439,0.0172 -4.518,-0.26097 -5.903,-0.79012 l -2.139,-0.8167 0.06,-8.46907 c 0.03,-4.65799 0.34,-10.30908 0.685,-12.55796 0.344,-2.24889 0.882,-6.5783 1.196,-9.62092 0.314,-3.04261 0.76,-6.18144 0.991,-6.97516 0.653,-2.24191 1.909,-14.14061 1.971,-18.67581 0.03,-2.2433 0.189,-4.28416 0.353,-4.53524 0.165,-0.25108 1.233,-0.57846 2.374,-0.72753 1.53,-0.19975 2.144,-0.0932 2.335,0.40516 0.508,1.32303 4.994,2.22816 12.186,2.45865 4.022,0.12893 7.789,0.50117 8.899,0.87946 1.137,0.3878 4.813,0.73689 8.993,0.85401 7.953,0.22287 6.638,0.62762 14.524,-4.47047 2.251,-1.45516 5.565,-3.41944 7.364,-4.36505 l 3.272,-1.71931 v -3.32039 c 0,-2.57257 0.163,-3.34988 0.722,-3.45134 1.263,-0.22917 1.903,0.57981 2.089,2.63806 0.1,1.10081 0.535,2.54376 0.97,3.20656 0.434,0.66279 0.789,1.62639 0.789,2.14133 0,1.1438 -2.604,3.42701 -3.909,3.42701 -0.948,0 -3.813,1.28156 -4.268,1.90889 -0.133,0.18233 -1.432,0.95372 -2.887,1.7142 -2.894,1.51249 -6.428,4.08113 -7.937,5.76816 -0.954,1.06735 -1.037,1.07325 -10.342,0.74125 -8.938,-0.31889 -9.431,-0.28953 -10.463,0.62282 -0.595,0.52661 -1.082,1.10314 -1.082,1.28118 0,0.17803 1.352,1.03259 3.005,1.89902 1.653,0.86643 3.522,1.98186 4.154,2.47873 0.632,0.49686 1.715,0.9019 2.406,0.90007 0.692,-0.002 4.614,-1.17124 8.714,-2.59869 11.58,-4.03084 11.777,-4.14148 11.94,-6.72974 0.272,-4.31963 3.648,-3.33851 4.398,1.2781 0.611,3.7641 -0.291,5.44866 -3.088,5.76721 -1.07,0.1218 -4.543,1.19884 -7.718,2.39342 -3.174,1.19458 -6.53,2.32898 -7.456,2.5209 -0.926,0.19191 -2.489,0.89479 -3.473,1.56196 -2.128,1.44196 -3.107,1.29865 -6.444,-0.94354 -2.502,-1.68063 -3.648,-2.28056 -6.623,-3.46797 -1.732,-0.69105 -1.917,-0.6838 -2.511,0.0987 -0.352,0.4645 -0.648,1.07116 -0.656,1.34814 0,0.27699 -0.989,1.98673 -2.18,3.79943 -1.19,1.81271 -2.165,3.56915 -2.165,3.9032 0,0.33405 -0.992,2.73725 -2.204,5.34044 -1.213,2.60319 -2.832,6.08131 -3.598,7.72916 -0.767,1.64785 -2.595,4.83838 -4.062,7.09007 -1.468,2.25169 -2.81,4.47521 -2.984,4.94116 -0.173,0.46596 -1.036,1.90423 -1.918,3.19617 -1.649,2.41669 -2.415,4.44111 -1.883,4.97366 0.391,0.39065 9.876,-4.50858 14.646,-7.5646 6.911,-4.42759 10.42,-6.35751 11.384,-6.2595 2.834,0.28842 16.895,-0.13039 17.959,-0.53495 1.2,-0.45621 4.408,-3.6494 4.409,-4.38843 0,-0.55973 3.271,-0.42508 3.626,0.1493 0.618,1.00044 -0.94,3.81851 -4.263,7.71131 -0.524,0.61451 -2.302,0.84115 -9.027,1.15096 -4.606,0.21217 -9.407,0.34371 -10.669,0.29231 -1.716,-0.0699 -2.93,0.24566 -4.811,1.25061 -1.384,0.73923 -2.624,1.4735 -2.756,1.63172 -0.58,0.6937 -6.993,4.28884 -10.314,5.78195 -1.999,0.89895 -3.636,1.75963 -3.636,1.91262 0,0.53258 5.085,1.46916 10.342,1.90435 2.91,0.24094 7.24,0.90339 9.621,1.47212 2.381,0.56873 5.369,1.06145 6.639,1.09494 1.844,0.0486 2.49,0.2976 3.196,1.2324 0.672,0.88824 0.773,1.42006 0.418,2.19941 -0.366,0.80343 -0.179,1.54557 0.859,3.39842 2.126,3.79541 2.591,4.74369 2.594,5.28671 0,0.28102 0.436,1.40703 0.965,2.50225 0.529,1.09521 0.962,2.19172 0.962,2.43668 0,0.24496 0.325,0.71486 0.722,1.04423 0.397,0.32937 0.722,1.09806 0.722,1.7082 0,1.82873 1.234,2.62121 4.083,2.62121 3.263,0 4.096,0.32911 4.087,1.61487 -0.01,1.8904 -0.616,2.2284 -3.867,2.17082 -1.706,-0.0302 -3.662,0.0985 -4.348,0.28598 -0.873,0.23858 -1.486,0.10156 -2.044,-0.45662 z m -39.418,-43.54184 c 0.445,-0.92602 1.939,-3.41543 3.321,-5.53203 2.319,-3.55489 4.83,-8.90886 8.449,-18.01974 0.791,-1.9922 1.611,-3.73157 1.821,-3.86527 0.21,-0.1337 1.153,-1.75839 2.096,-3.61042 0.942,-1.85202 2.485,-4.44967 3.427,-5.77254 l 1.714,-2.40523 -6.377,-0.28633 c -6.625,-0.29749 -7.559,-0.45184 -10.622,-1.75526 -2.31,-0.98305 -2.71,-0.50745 -2.727,3.2442 -0.01,2.80062 -1.105,13.51331 -1.913,18.76078 -0.264,1.71974 -0.576,4.6421 -0.693,6.49412 -0.116,1.85203 -0.435,4.88262 -0.707,6.73464 -0.701,4.76372 -1,9.23923 -0.64,9.59869 0.385,0.38538 1.792,-1.38373 2.851,-3.58561 z m 115.793,30.47024 c -0.283,-0.10278 -1.68,-1.26415 -3.105,-2.58084 -1.425,-1.31669 -2.773,-2.39398 -2.996,-2.39398 -0.223,0 -0.882,-0.50024 -1.465,-1.11164 -1.595,-1.67391 -8.309,-4.30595 -20.3,-7.95772 -1.964,-0.59789 -2.941,-1.15672 -3.056,-1.74754 -0.12,-0.61701 0.05,-0.7863 0.572,-0.58451 0.407,0.15624 1.673,0.52322 2.814,0.81552 1.141,0.29229 3.59,1.03609 5.442,1.65287 1.852,0.61678 4.991,1.60653 6.975,2.19942 5.629,1.68183 9.245,3.51277 11.571,5.85818 1.176,1.18619 2.734,2.54272 3.461,3.01452 1.719,1.11462 1.791,3.45414 0.09,2.83572 z m -8.502,-12.06035 c -3.235,-2.43469 -12.12,-5.7529 -19.124,-7.14193 -14.49,-2.87355 -19.302,-3.40354 -29.704,-3.27152 -7.9,0.10026 -8.298,0.061 -8.298,-0.81877 0,-0.81947 0.395,-0.93265 3.488,-0.99982 12.234,-0.2657 22.755,0.57225 28.436,2.26477 1.287,0.38349 2.755,0.69724 3.263,0.69724 0.507,0 1.727,0.35485 2.71,0.78855 0.984,0.4337 2.372,0.74341 3.084,0.68823 1.697,-0.13143 6.481,1.23111 10.627,3.02648 1.001,0.43354 2.149,0.78825 2.551,0.78825 0.402,0 1.527,0.54117 2.5,1.20261 0.974,0.66144 2.029,1.20262 2.346,1.20262 0.651,0 2.087,1.30887 2.087,1.90246 0,0.99614 -2.479,0.79041 -3.966,-0.32917 z m -65.914,-3.16328 c -0.598,-1.5208 2.588,-2.40761 10.703,-2.9786 13.059,-0.91888 16.796,-0.81954 27.188,0.7227 4.311,0.63985 5.148,0.91287 4.91,1.60174 -0.225,0.65215 -0.435,0.64293 -8.999,-0.39478 -3.572,-0.43281 -8.973,-0.77795 -12.003,-0.76698 -3.852,0.014 -5.625,-0.15815 -5.893,-0.57204 -0.284,-0.4394 -0.476,-0.44964 -0.744,-0.0397 -0.198,0.30374 -2.526,0.80882 -5.171,1.12239 -2.646,0.31357 -5.522,0.78813 -6.393,1.05458 -1.125,0.34463 -1.773,0.3257 -2.244,-0.0656 -0.518,-0.42979 -0.701,-0.36041 -0.838,0.31733 -0.168,0.83529 -0.187,0.83525 -0.516,-10e-4 z m -29.586,-59.5221 c -1.98,-0.79522 -4.486,-3.07922 -5.19,-4.72967 -1.016,-2.38443 -0.893,-7.40719 0.235,-9.58133 1.657,-3.19345 3.49,-4.76171 7.732,-6.61499 2.249,-0.98238 5.172,-2.26849 6.494,-2.85803 3.844,-1.71294 6.052,-2.32745 6.555,-1.82449 0.868,0.86883 -0.124,1.94377 -2.085,2.25729 -2.345,0.37502 -6.634,2.14953 -6.634,2.74477 0,0.54523 2.073,0.5489 2.67,0.005 0.251,-0.2294 2.167,-0.99766 4.257,-1.70726 3.557,-1.20734 5.099,-1.32821 5.099,-0.39969 0,0.56661 -2.813,2.14524 -3.293,1.84829 -0.554,-0.342 -3.923,0.62283 -3.923,1.12331 0,0.78154 2.005,0.91265 3.623,0.23686 0.901,-0.37643 2.202,-0.68442 2.891,-0.68442 1.872,0 1.358,1.55911 -0.648,1.96956 -0.872,0.17828 -1.716,0.45506 -1.876,0.61507 -0.16,0.16 0.03,1.32157 0.428,2.58125 0.474,1.50848 0.623,3.19352 0.436,4.93609 -0.261,2.43413 -0.388,2.65775 -1.585,2.79582 -1.296,0.14962 -1.3,0.14194 -1.103,-2.55409 0.228,-3.13421 -0.824,-5.90778 -2.382,-6.27955 -0.543,-0.12941 -2.57,-0.42889 -4.506,-0.66551 -3.246,-0.39683 -3.726,-0.33544 -6.186,0.79107 -2.238,1.0246 -2.819,1.56219 -3.604,3.33801 -1.344,3.03907 -0.846,5.93119 1.355,7.86359 1.511,1.32723 1.936,1.4453 5.197,1.4453 1.954,0 3.895,-0.1314 4.313,-0.29199 1.043,-0.40021 0.955,-1.27986 -0.201,-2.00161 -0.529,-0.33046 -0.962,-0.93068 -0.962,-1.33383 0,-0.89744 1.959,-1.71793 2.694,-1.12817 0.291,0.23381 1.103,0.47256 1.804,0.53056 1.126,0.0932 1.902,0.85772 0.871,0.85772 -0.221,0 -0.441,1.01755 -0.488,2.26123 -0.05,1.24368 -0.353,2.43622 -0.68,2.6501 -2.019,1.32275 -9.525,2.52015 -11.308,1.80403 z m 12.683,-3.94935 c 0.714,-1.25433 1.812,-2.28497 2.435,-2.28497 1.016,0 0.757,1.31154 -0.422,2.13743 -1.292,0.90524 -2.494,0.99332 -2.013,0.14754 z m -3.204,-5.93313 c -0.699,-0.84164 -0.26,-1.92371 1.138,-2.80565 0.603,-0.38036 1.002,-0.30361 1.617,0.31086 0.673,0.67335 0.719,1.02913 0.26,2.03629 -0.63,1.38227 -2.067,1.60084 -3.015,0.4585 z"
         id="path2" /></g></g></svg>
