<?xml version="1.0" encoding="UTF-8" standalone="no"?>
<!-- Created with Inkscape (http://www.inkscape.org/) -->

<svg
   width="61.221001mm"
   height="62.240601mm"
   viewBox="0 0 61.221 62.240601"
   version="1.1"
   id="svg1"
   xml:space="preserve"
   xmlns="http://www.w3.org/2000/svg"
   xmlns:svg="http://www.w3.org/2000/svg"><defs
     id="defs1" /><g
     id="layer1"
     transform="translate(1472.671,3650.7208)"><g
       id="g1026"
       transform="matrix(0.26458333,0,0,0.26458333,-4191.688,-3791.0505)"><path
         style="fill:#000000"
         d="m 10410.819,731.10842 c 0,-1.05197 1.241,-2.13955 2.767,-2.42545 0.985,-0.18469 3.152,-1.16717 4.814,-2.18328 1.663,-1.01612 3.15,-1.84748 3.306,-1.84748 0.382,0 2.519,-1.79765 7.332,-6.16719 4.171,-3.78572 4.049,-3.59368 8.469,-13.29623 0.602,-1.32159 1.246,-3.03848 1.431,-3.81531 0.809,-3.39576 4.271,-6.79141 9.656,-9.46942 2.117,-1.0531 4.499,-2.3303 5.293,-2.83824 2.031,-1.29963 6.321,-3.34044 7.021,-3.34044 0.825,0 3.488,-2.08098 7.358,-5.75088 2.317,-2.19665 3.714,-4.01206 4.652,-6.04351 2.457,-5.32717 2.328,-8.12812 -0.522,-11.35744 -0.776,-0.87887 -1.414,-1.73632 -1.419,-1.90545 -0.01,-0.58705 -4.242,-2.29092 -7.972,-3.21293 -5.211,-1.28842 -6.497,-0.66743 -9.93,4.79483 -2.141,3.40767 -10.216,7.70689 -16.511,8.79089 -2.459,0.42338 -3.326,0.76291 -3.211,1.25735 0.09,0.37254 0.02,1.59263 -0.147,2.71131 -0.533,3.54969 -4.295,6.83869 -8.695,7.6013 -3.437,0.59584 -10.057,2.73623 -11.406,3.68814 -0.728,0.51346 -1.323,1.30825 -1.323,1.76619 0,1.16052 -1.085,3.36378 -1.791,3.6384 -0.323,0.12566 -0.917,-0.10052 -1.319,-0.50261 -0.403,-0.4021 -0.951,-0.59616 -1.218,-0.43124 -0.268,0.16491 -0.697,-0.25382 -0.955,-0.93052 -0.611,-1.60602 -1.208,-1.55375 -2.244,0.1963 -1.48,2.50306 -3.514,2.23316 -2.536,-0.33653 0.241,-0.63399 0.439,-2.0807 0.439,-3.21491 0,-1.61406 0.363,-2.53758 1.672,-4.24968 1.724,-2.25449 3.134,-2.97254 8.184,-4.16749 3.254,-0.77018 5.419,-2.49285 5.821,-4.63228 0.284,-1.51237 0.03,-4.86134 -0.401,-5.29219 -0.09,-0.0897 -1.344,0.15082 -2.787,0.53442 -1.444,0.38361 -3.408,0.70003 -4.365,0.70317 -1.491,0.005 -1.921,0.27781 -2.997,1.90145 -0.691,1.04266 -2.29,2.50242 -3.553,3.2439 -1.963,1.1527 -2.979,1.38487 -7.005,1.60138 -4.504,0.24226 -4.757,0.31467 -5.84,1.67182 -1.066,1.33441 -1.208,1.37843 -2.4,0.74167 -0.973,-0.52005 -1.398,-0.54553 -1.834,-0.10994 -0.872,0.8712 -1.809,0.6759 -2.232,-0.46516 -0.369,-0.99654 -0.419,-0.97997 -1.461,0.48057 -0.593,0.832 -1.418,1.51273 -1.833,1.51273 -1.461,0 -0.231,-4.78856 2.492,-9.69836 0.258,-0.46483 1.658,-1.35826 3.112,-1.9854 l 2.644,-1.14024 -3.453,-0.7787 c -3.406,-0.76827 -6.655,-2.58611 -9.938,-5.56073 l -1.392,-1.26114 0.371,1.20145 c 0.204,0.66079 0.397,1.94887 0.429,2.8624 0.05,1.4544 -0.18,1.80154 -1.866,2.79149 -1.859,1.09197 -2.146,1.11853 -8.421,0.77841 -8.715,-0.47238 -20.047,-0.50976 -20.489,-0.0676 -0.196,0.19662 0,0.76006 0.453,1.25209 0.457,0.50354 0.678,1.24009 0.507,1.68497 -0.344,0.89548 -0.633,0.95818 -1.601,0.34653 -0.416,-0.26334 -1.01,-0.22233 -1.537,0.10618 -0.659,0.41095 -1.06,0.36799 -1.727,-0.18498 -0.478,-0.39615 -1.519,-1.00632 -2.313,-1.35595 -2.964,-1.30527 -2.892,-1.19278 -2.797,-4.39842 0.158,-5.34901 2.829,-7.329 10.135,-7.5129 2.447,-0.0616 4.869,-0.33612 5.382,-0.61002 0.512,-0.2739 2.124,-0.498 3.581,-0.498 1.458,0 2.762,-0.18057 2.898,-0.40128 0.541,-0.87298 -0.82,-3.87635 -1.829,-4.0382 -1.679,-0.26944 -5.627,0.8313 -9.189,2.56243 -2.827,1.37359 -3.897,1.63677 -6.654,1.63677 -3.216,0 -3.321,0.0401 -5.044,1.9173 -1.49,1.62362 -1.626,1.94291 -0.89,2.08449 0.611,0.11761 0.764,0.40412 0.514,0.96616 -0.195,0.43944 -0.366,1.33963 -0.38,2.00043 -0.03,1.39467 -0.589,1.90467 -2.103,1.91495 -0.887,0.006 -1.096,-0.27488 -1.157,-1.55452 -0.141,-2.94033 0.142,-3.91474 1.634,-5.62089 2.875,-3.28819 4.155,-3.94721 6.981,-3.59459 1.798,0.22442 2.976,0.10683 4.09,-0.40845 4.713,-2.17895 8.567,-3.71298 9.345,-3.71947 2.003,-0.0167 2.232,-0.75135 0.764,-2.4503 -0.774,-0.89499 -1.814,-2.3301 -2.312,-3.18913 -0.498,-0.85904 -1.276,-1.56188 -1.729,-1.56188 -0.453,0 -1.219,-0.50054 -1.701,-1.11231 -2.765,-3.50627 -11.428,-5.52997 -15.354,-3.58644 -0.944,0.46734 -2.683,0.66044 -5.316,0.59009 -4.325,-0.11556 -7.076,-0.82591 -7.995,-2.06385 -0.332,-0.44692 -1.172,-1.17498 -1.868,-1.61792 -0.808,-0.51453 -1.379,-1.4163 -1.582,-2.49733 -0.224,-1.19363 -0.702,-1.87511 -1.623,-2.31366 -1.08,-0.51449 -1.331,-0.9844 -1.456,-2.72582 -0.08,-1.15729 0.08,-2.33429 0.361,-2.61556 0.282,-0.28127 0.512,-0.8183 0.512,-1.19339 0,-0.59518 5.057,-9.05685 5.796,-9.6985 0.152,-0.13216 1.538,-2.18663 3.08,-4.56549 1.541,-2.37887 3.389,-4.97399 4.106,-5.76694 0.717,-0.79296 1.756,-2.20156 2.31,-3.13024 1.089,-1.82643 2.786,-3.47132 4.102,-3.97542 0.454,-0.17398 1.054,-0.81891 1.335,-1.43318 0.387,-0.8498 1.278,-1.31363 3.725,-1.93983 1.768,-0.45265 3.931,-0.82117 4.807,-0.81895 1.587,0.004 1.589,10e-4 0.88,-1.31756 -0.391,-0.72687 -1.486,-3.50161 -2.433,-6.16609 -2.698,-7.58717 -2.371,-12.53131 1.091,-16.52714 1.836,-2.1196 1.899,-2.14696 4.626,-2.03299 3.214,0.1343 4.169,0.56612 6.481,2.92893 2.814,2.875 3.791,4.36556 4.649,7.09185 0.451,1.43075 1.008,2.71783 1.239,2.86018 0.231,0.14234 1.119,-0.15279 1.974,-0.65585 2.845,-1.67278 5.517,-2.27614 7.272,-1.64208 0.864,0.31177 1.922,0.56686 2.351,0.56686 0.94,0 4.106,3.28884 6.186,6.42432 4.166,6.28067 1.196,15.50687 -7.884,24.49408 -1.826,1.80683 -3.187,3.41772 -3.024,3.57976 0.385,0.38526 11.139,-0.85887 12.775,-1.47801 0.397,-0.15026 2.346,-0.84541 4.331,-1.54478 5.955,-2.09827 6.981,-2.52366 12.631,-5.23614 8.005,-3.84326 14.549,-5.76099 22.514,-6.59763 l 5.551,-0.58313 4.554,2.0922 c 2.505,1.15071 5.399,2.70158 6.431,3.44638 1.032,0.74479 2.045,1.35417 2.251,1.35417 1.109,0 6.429,3.76029 8.691,6.14326 6.664,7.02081 9.043,10.35944 12.227,17.16478 3.566,7.62168 4.195,11.07023 3.119,17.0924 -0.256,1.43622 -0.566,3.20245 -0.688,3.92496 -0.122,0.72252 -0.342,1.50773 -0.489,1.74492 -0.147,0.23719 0.981,0.52138 2.506,0.63153 2.308,0.16674 3.495,0.63468 7.09,2.79388 9.066,5.44485 11.02,7.10663 11.937,10.14826 0.554,1.83962 0.564,2.90164 0.06,6.30978 -0.64,4.32385 -1.033,5.34291 -3.104,8.05526 -0.707,0.92511 -2.133,2.83762 -3.17,4.25002 -1.037,1.41239 -3.618,3.84939 -5.735,5.41556 -2.118,1.56616 -4.088,3.03817 -4.38,3.27113 -0.607,0.48561 -4.504,2.28798 -8.372,3.87206 -4.103,1.68041 -7.967,4.24089 -10.267,6.8037 -1.246,1.38873 -3.543,5.21508 -5.66,9.42668 -4.18,8.31977 -6.914,11.48966 -11.983,13.89772 -5.822,2.7656 -11.301,5.47612 -12.985,6.42446 -1.519,0.85531 -5.301,1.3348 -5.301,0.67212 z m 25.023,-15.10662 c 0.565,-0.79295 0.918,-1.44173 0.783,-1.44173 -0.135,0 0.06,-0.57921 0.424,-1.28714 0.368,-0.70792 0.535,-1.50268 0.372,-1.76613 -0.331,-0.53541 -2.52,4.04749 -2.204,4.61514 0.11,0.19824 -0.137,0.36044 -0.55,0.36044 -0.412,0 -0.75,0.21626 -0.75,0.48058 0,0.9217 0.904,0.47013 1.925,-0.96116 z m 6.173,-14.90523 c -0.107,-0.32026 -0.472,0.037 -0.812,0.79381 -0.578,1.28818 -0.566,1.32539 0.194,0.58229 0.447,-0.4366 0.725,-1.05584 0.618,-1.3761 z m 1.526,0.21924 c 0,-0.38088 -0.216,-0.69251 -0.481,-0.69251 -0.265,0 -0.481,0.44528 -0.481,0.98952 0,0.54423 0.216,0.85586 0.481,0.6925 0.265,-0.16335 0.481,-0.60864 0.481,-0.98951 z m 5.361,-5.12025 c 0.321,-0.10696 0.425,-0.45204 0.23,-0.76684 -0.48,-0.77543 -1.26,-0.72475 -1.26,0.0819 0,0.4387 -0.396,0.57856 -1.203,0.42455 -1.211,-0.23122 -1.722,0.58897 -0.602,0.96562 0.46,0.15432 0.431,0.41861 -0.12,1.1163 -0.412,0.52166 -0.06,0.36863 0.824,-0.35646 0.851,-0.69881 1.809,-1.35808 2.131,-1.46504 z m 3.806,-2.55298 c 1.781,-0.91995 1.788,-1.18911 0.03,-1.18911 -0.983,0 -1.461,0.28035 -1.639,0.96116 -0.302,1.1539 -0.211,1.16683 1.607,0.22795 z m 5.898,-3.49331 c 1.008,-0.58292 2.246,-1.05984 2.752,-1.05984 0.62,0 0.83,-0.23504 0.643,-0.72087 -0.352,-0.91497 -0.841,-0.90595 -2.864,0.0527 -0.898,0.42548 -1.504,0.9806 -1.348,1.23358 0.157,0.25299 -0.116,0.39145 -0.606,0.30769 -0.643,-0.10996 -0.929,0.18167 -1.031,1.04916 -0.08,0.66807 0.03,0.97857 0.24,0.69941 0.21,-0.27613 1.207,-0.97897 2.214,-1.56188 z m -47.802,-3.88733 c 0.277,-1.02648 0.773,-2.08446 1.101,-2.35105 0.601,-0.48704 10.186,-3.11355 13.372,-3.6641 1.108,-0.19157 2.521,-1.06447 4.036,-2.49385 l 2.331,-2.19912 -0.261,-3.45123 -0.262,-3.45123 3.924,0.007 c 4.121,0.007 6.58,-0.68946 10.889,-3.08383 2.266,-1.259 7.231,-6.12043 7.231,-7.07972 0,-0.30936 0.163,-0.63456 0.361,-0.72267 0.946,-0.41993 3.127,-4.00314 3.263,-5.3613 0.08,-0.83984 0.513,-2.23656 0.954,-3.10381 1.131,-2.22764 2.076,-8.17875 1.916,-12.08169 -0.121,-2.98707 -0.456,-3.96576 -3.406,-9.96515 -3.47,-7.05824 -3.8,-7.55308 -9.179,-13.75455 -3.472,-4.00277 -7.089,-6.88205 -10.359,-8.24525 -0.976,-0.40672 -2.6,-1.30043 -3.609,-1.98602 -2.87,-1.94892 -6.759,-3.57209 -8.558,-3.57209 -0.903,0 -1.791,-0.2417 -1.974,-0.53711 -0.231,-0.3734 -1.523,-0.42761 -4.239,-0.17783 -2.149,0.1976 -4.588,0.40906 -5.42,0.46991 -2.402,0.17557 -13.95,4.45279 -18.906,7.00226 -4.451,2.28979 -13.557,5.73392 -15.186,5.74348 -0.531,0.003 -2.698,0.43309 -4.816,0.95548 -5.958,1.47002 -9.66,1.22284 -10.137,-0.67691 -0.345,-1.37363 0.526,-3.59109 1.567,-3.99025 1.902,-0.72872 3.871,-2.77344 6.726,-6.98484 1.219,-1.79881 2.404,-3.38591 2.632,-3.52689 0.228,-0.14099 0.415,-0.75774 0.415,-1.37057 0,-0.61283 0.302,-1.36456 0.671,-1.6705 0.961,-0.79652 1.178,-3.67848 0.516,-6.84887 -0.744,-3.55812 -3.938,-7.43294 -7.224,-8.76218 -2.166,-0.87594 -2.356,-0.87904 -4.895,-0.0797 -2,0.62954 -3.287,1.48552 -5.293,3.52157 -3.026,3.07073 -4.373,5.80743 -4.782,9.71485 -0.251,2.40092 -0.132,2.96499 1.006,4.7663 1.316,2.08173 1.481,3.89843 0.385,4.25866 -0.352,0.11599 -0.914,-0.57524 -1.335,-1.64439 -0.4,-1.01447 -0.963,-2.26044 -1.252,-2.76883 -0.627,-1.10265 -0.934,-5.48236 -0.407,-5.80733 0.203,-0.12548 0.745,-1.75955 1.204,-3.63126 0.46,-1.87171 1.349,-4.01339 1.978,-4.75929 0.71,-0.8423 1.141,-1.96725 1.138,-2.96883 -0.01,-3.68176 -4.353,-9.96072 -7.639,-11.04609 -3.913,-1.29236 -5.101,-0.84432 -6.853,2.58366 -1.521,2.97651 -1.639,5.5891 -0.42,9.31718 1.862,5.69834 3.943,10.46163 5.13,11.74632 1.117,1.20828 1.123,1.25785 0.238,2.05737 -0.498,0.4506 -1.371,0.90868 -1.939,1.01797 -1.172,0.22534 -3.911,-0.6054 -3.911,-1.1861 0,-0.54919 -3.193,0.24646 -4.462,1.11173 -1.639,1.11786 -6.136,5.5862 -8.316,8.26337 -1.644,2.01845 -3.269,4.43872 -6.238,9.28558 -0.269,0.43952 -1.947,2.99582 -3.729,5.68065 -1.782,2.68483 -3.24,4.97963 -3.24,5.09957 0,0.11993 0.565,0.11031 1.254,-0.0214 0.757,-0.14445 1.413,0.016 1.653,0.40444 0.531,0.85859 0.03,3.43832 -0.801,4.10618 -0.771,0.62135 -0.891,2.10962 -0.169,2.10962 0.271,0 0.699,0.54065 0.95,1.20145 0.564,1.47932 2.365,1.61305 3.586,0.26611 0.812,-0.89587 0.803,-0.9971 -0.196,-2.39961 -1.181,-1.65589 -0.965,-2.43199 0.675,-2.43199 0.901,0 1.184,0.33133 1.437,1.68202 0.174,0.92511 0.523,1.68202 0.776,1.68202 1.062,0 0.324,1.48263 -1.524,3.06244 -1.91,1.6327 -1.941,1.70429 -0.842,1.9295 3.466,0.71024 5.572,0.71258 8.956,0.01 5.148,-1.06877 10.56,-0.71808 14.156,0.91727 1.497,0.68107 2.872,1.47942 3.054,1.77413 0.182,0.2947 0.85,0.73263 1.483,0.97318 0.634,0.24055 1.858,1.48453 2.721,2.76439 0.862,1.27987 2.47,3.67072 3.573,5.31301 1.904,2.83498 4.01,7.95069 4.01,9.74119 0,1.11273 -0.687,1.28408 -4.09,1.02075 -1.807,-0.13981 -3.802,0.0483 -5.333,0.50283 -1.446,0.42958 -3.35,0.6243 -4.661,0.47672 -3.09,-0.34776 -5.364,0.17533 -7.098,1.63217 -1.809,1.52006 -1.723,2.80207 0.187,2.80207 1.268,0 1.371,0.14344 1.467,2.05025 0.06,1.12763 0.356,2.30265 0.665,2.61114 0.794,0.79293 1.322,0.0798 0.592,-0.79904 -1.766,-2.12567 1.797,-3.08812 10.812,-2.92039 3.706,0.0689 8.841,0.28912 11.412,0.48929 5.144,0.40042 7.664,0.11411 8.777,-0.99699 0.65,-0.64927 0.651,-0.85035 0,-1.83007 -0.397,-0.60536 -0.766,-2.09404 -0.819,-3.30818 -0.08,-1.8459 0.158,-2.52248 1.451,-4.1301 0.851,-1.05741 1.547,-2.13348 1.547,-2.39127 0,-0.25779 0.163,-0.5415 0.361,-0.63046 1.17,-0.52446 2.739,-3.07796 2.976,-4.84301 0.19,-1.41556 0.528,-2.08012 1.114,-2.1928 0.677,-0.12989 0.843,0.17979 0.843,1.57472 0,2.0544 -1.168,4.42003 -3.789,7.6746 l -1.911,2.37214 2.323,2.19335 c 3.586,3.38611 6.597,5.31234 9.064,5.79882 1.239,0.24423 3.768,0.79073 5.621,1.21446 1.852,0.42373 3.91,0.85071 4.571,0.94883 0.662,0.0981 1.961,0.32499 2.887,0.50414 2.85,0.55107 13.679,0.28145 15.695,-0.39074 1.446,-0.4822 1.832,-0.83827 1.703,-1.57083 -0.147,-0.84331 -4.356,-9.95831 -6.129,-13.27618 -0.375,-0.70158 -0.682,-1.82418 -0.682,-2.49467 0,-0.67049 -0.19,-1.33656 -0.423,-1.48014 -0.86,-0.53108 0.02,-4.8036 1.27,-6.13859 1.627,-1.74353 7.154,-4.59358 9.694,-4.99923 1.966,-0.31387 2.048,-0.27822 1.892,0.82139 -0.132,0.93684 -0.518,1.19939 -2.087,1.41919 -2.166,0.30343 -3.873,1.12375 -6.857,3.29467 -1.895,1.37822 -2.045,1.65073 -2.045,3.70203 0,1.27205 0.397,2.9579 0.934,3.96176 5.054,9.45026 7.867,17.35044 7.808,21.93173 -0.06,4.72979 -2.667,7.47507 -8.202,8.63787 -4.506,0.94671 -5.067,1.27727 -6.599,3.88771 -1.619,2.75854 -1.116,3.36143 0.834,0.9994 1.571,-1.90299 3.008,-2.15651 3.088,-0.54457 0.15,3.03486 0.256,3.59954 0.674,3.59954 0.255,0 0.689,-0.83985 0.966,-1.86633 z m -39.443,-49.79582 c 0,-0.39648 0.318,-0.72087 0.706,-0.72087 0.431,0 0.599,0.28176 0.43,0.72087 -0.152,0.39648 -0.47,0.72087 -0.707,0.72087 -0.236,0 -0.429,-0.32439 -0.429,-0.72087 z m -30.316,-5.05537 c -1.456,-0.20692 -5.191,-0.39761 -8.301,-0.42375 -4.651,-0.0391 -5.654,-0.17375 -5.654,-0.75924 0,-1.20379 2.302,-1.38676 10.083,-0.80153 7.864,0.59137 10.025,0.96162 10.239,1.75353 0.163,0.60799 -2.926,0.72009 -6.367,0.23099 z m -14.436,-4.28352 c 0,-1.23809 1.185,-1.53291 12.511,-3.11274 8.449,-1.17849 10.937,-1.36373 11.262,-0.83843 0.437,0.70594 -0.276,1.0089 -2.982,1.26614 -1.316,0.12514 -4.421,0.56721 -6.9,0.98239 -2.479,0.41517 -5.59,0.87809 -6.914,1.02869 -1.323,0.1506 -3.136,0.57283 -4.028,0.93827 -2.204,0.90235 -2.949,0.83556 -2.949,-0.26432 z m -4.11,-1.02551 c -0.175,-0.28191 -0.242,-0.55454 -0.149,-0.60585 0.09,-0.0513 0.618,-0.46895 1.168,-0.9281 0.549,-0.45914 1.957,-1.02784 3.127,-1.26378 1.171,-0.23593 5.269,-1.0863 9.107,-1.88971 3.837,-0.8034 7.952,-1.52995 9.143,-1.61456 3.805,-0.27038 2.793,0.70702 -1.685,1.62606 -7.217,1.48133 -16.744,3.8141 -18.464,4.52146 -1.945,0.79924 -1.852,0.79287 -2.247,0.15448 z m 12.792,-12.19808 c -0.53,-0.63762 -0.541,-1.25564 -0.06,-3.40493 0.494,-2.20664 0.789,-2.67617 1.844,-2.94064 2.39,-0.59914 4.836,1.59723 4.273,3.83753 -0.579,2.30117 -4.783,4.04201 -6.058,2.50804 z m 25.964,-5.69551 c 0,-0.60794 0.26,-1.36485 0.578,-1.68203 0.449,-0.44854 0.396,-0.57669 -0.241,-0.57669 -0.558,0 -0.835,-0.4191 -0.871,-1.32159 -0.03,-0.72688 -0.09,-2.34797 -0.146,-3.60243 -0.06,-1.49993 -0.371,-2.48717 -0.906,-2.88347 -0.447,-0.33145 -1.059,-1.83964 -1.361,-3.35154 -0.517,-2.59493 -0.474,-2.90102 0.782,-5.46463 0.732,-1.49366 2.239,-3.66275 3.35,-4.8202 1.654,-1.72378 2.333,-2.10447 3.754,-2.10447 3.745,0 5.645,2.00522 5.65,5.96092 0,2.97507 -2.743,10.70192 -4.247,11.94883 -1.138,0.94264 -2.973,4.10406 -2.973,5.12009 0,0.51829 -0.217,1.076 -0.481,1.23936 -0.265,0.16335 -0.482,0.69363 -0.482,1.17839 0,0.80954 -0.878,1.46479 -1.964,1.46479 -0.243,0 -0.442,-0.4974 -0.442,-1.10533 z m 0.963,-9.93289 c 0,-0.25602 -0.325,-0.34101 -0.722,-0.18887 -0.397,0.15214 -0.722,0.36161 -0.722,0.46549 0,0.10388 0.325,0.18888 0.722,0.18888 0.397,0 0.722,-0.20948 0.722,-0.4655 z m -0.97,-6.62303 c 0,-0.3304 -0.184,-0.60072 -0.418,-0.60072 -0.509,0 -1.03,1.75006 -0.638,2.14199 0.334,0.33329 1.046,-0.7059 1.056,-1.54127 z m 7.225,-4.74166 c 0,-0.10135 -0.541,-0.18427 -1.203,-0.18427 -0.661,0 -1.203,0.18627 -1.203,0.41394 0,0.22766 0.542,0.31058 1.203,0.18426 0.662,-0.12632 1.203,-0.31259 1.203,-0.41393 z m -20.866,3.23983 c -1.54,-3.42616 -1.71,-6.30757 -0.374,-6.30757 0.716,0 0.953,0.4823 1.181,2.40263 0.157,1.32144 0.639,3.14878 1.073,4.06075 0.741,1.56113 0.648,2.66761 -0.224,2.66761 -0.213,0 -0.958,-1.27054 -1.656,-2.82342 z m 119.032,96.35471 c 0,-0.0998 -0.379,-0.47825 -0.842,-0.84101 -0.763,-0.59778 -0.78,-0.58078 -0.182,0.18144 0.629,0.80052 1.024,1.0551 1.024,0.65957 z m 2.117,-2.7808 c -0.123,-0.1979 -0.541,-0.238 -0.93,-0.0891 -0.979,0.37544 -0.882,0.60197 0.223,0.51884 0.511,-0.0384 0.829,-0.23182 0.707,-0.42973 z m 2.454,-2.32411 c 0.164,-0.26432 0.08,-0.48058 -0.184,-0.48058 -0.264,0 -0.615,0.21626 -0.778,0.48058 -0.164,0.26431 -0.08,0.48057 0.184,0.48057 0.264,0 0.615,-0.21626 0.778,-0.48057 z m -84.916,-7.19853 c 0.363,0.22385 0.853,0.28764 1.09,0.14175 0.236,-0.1459 0.94,0.008 1.565,0.34155 0.954,0.51023 1.335,0.4758 2.393,-0.21635 1.049,-0.68632 1.635,-0.7424 3.526,-0.33737 2.551,0.54642 5.808,0.0212 7.762,-1.25184 1.191,-0.77606 2.85,-2.52956 2.88,-3.04471 0.03,-0.57208 -12.478,-1.45327 -13.427,-0.9457 -0.512,0.27321 -1.496,0.49674 -2.188,0.49674 -1.898,0 -3.93,1.24534 -5.287,3.24053 -1.517,2.22915 -1.548,2.85354 -0.09,1.90267 0.69,-0.45169 1.376,-0.57764 1.781,-0.32727 z m 90.769,-6.37781 c -0.134,-0.33039 -0.243,-0.0601 -0.243,0.60073 0,0.66079 0.109,0.93112 0.243,0.60072 0.133,-0.3304 0.133,-0.87105 0,-1.20145 z m -5.131,-10.87788 c 0,-0.41752 -2.097,-1.97758 -2.658,-1.97758 -0.157,0 -0.154,0.21378 0,0.47507 0.332,0.53611 -1.102,0.11657 -2.021,-0.59105 -0.319,-0.24604 -0.806,-0.30784 -1.082,-0.13732 -0.277,0.17051 -0.503,0.0878 -0.503,-0.18384 0,-0.27162 -0.324,-0.36937 -0.721,-0.21723 -0.988,0.37859 -0.911,1.12782 0.12,1.16674 0.463,0.0175 2.033,0.4357 3.489,0.92936 3.114,1.05624 3.368,1.09664 3.368,0.53585 z m -9.273,-3.22909 c -0.16,-0.15969 -0.575,-0.17676 -0.922,-0.0379 -0.384,0.15342 -0.27,0.26729 0.29,0.29035 0.508,0.0209 0.792,-0.0927 0.632,-0.25241 z"
         id="path1" /></g></g></svg>
