<?xml version="1.0" encoding="UTF-8" standalone="no"?>
<!-- Created with Inkscape (http://www.inkscape.org/) -->

<svg
   width="61.221001mm"
   height="62.240601mm"
   viewBox="0 0 61.221 62.240601"
   version="1.1"
   id="svg1"
   xml:space="preserve"
   inkscape:export-filename="come.svg"
   inkscape:export-xdpi="96"
   inkscape:export-ydpi="96"
   xmlns:inkscape="http://www.inkscape.org/namespaces/inkscape"
   xmlns:sodipodi="http://sodipodi.sourceforge.net/DTD/sodipodi-0.dtd"
   xmlns="http://www.w3.org/2000/svg"
   xmlns:svg="http://www.w3.org/2000/svg"><sodipodi:namedview
     id="namedview1"
     pagecolor="#ffffff"
     bordercolor="#000000"
     borderopacity="0.25"
     inkscape:showpageshadow="2"
     inkscape:pageopacity="0.0"
     inkscape:pagecheckerboard="0"
     inkscape:deskcolor="#d1d1d1"
     inkscape:document-units="mm"><inkscape:page
       x="0"
       y="0"
       width="61.221001"
       height="62.240601"
       id="page2"
       margin="0"
       bleed="0" /></sodipodi:namedview><defs
     id="defs1" /><g
     inkscape:label="Layer 1"
     inkscape:groupmode="layer"
     id="layer1"
     transform="translate(1472.671,3650.7208)"><path
       id="path936"
       d="m -1472.5017,-3650.5514 h 60.8824 v -0.1694 h -60.8824 z"
       style="fill:#000000;fill-opacity:1;fill-rule:evenodd;stroke:none;stroke-width:0.352778" /><path
       id="path941-9"
       d="m -1472.671,-3588.6495 h 0.1693 v -61.8984 h -0.1693 z"
       style="fill:#000000;fill-opacity:1;fill-rule:evenodd;stroke:none;stroke-width:0.352778" /><path
       id="path942"
       d="m -1411.6193,-3588.6495 h 0.1693 v -61.8984 h -0.1693 z"
       style="fill:#000000;fill-opacity:1;fill-rule:evenodd;stroke:none;stroke-width:0.352778" /><path
       id="path952"
       d="m -1472.5017,-3588.4802 h 60.8824 v -0.1693 h -60.8824 z"
       style="fill:#000000;fill-opacity:1;fill-rule:evenodd;stroke:none;stroke-width:0.352778" /><g
       id="g1190"
       transform="matrix(0.26458333,0,0,0.26458333,-4557.9844,-3791.368)"><path
         style="fill:#000000"
         d="m 11762.476,757.95741 c -1.911,-0.80036 -2.717,-2.03703 -1.734,-2.66127 0.841,-0.53388 0.845,-0.53301 3.017,0.69803 3.247,1.84049 2.211,3.4264 -1.283,1.96324 z m 5.753,0.44776 c 0.347,-0.13878 0.761,-0.12171 0.92,0.0379 0.16,0.15964 -0.124,0.27318 -0.63,0.25232 -0.559,-0.0231 -0.673,-0.13689 -0.29,-0.29024 z m -13.831,-3.79301 c -0.924,-0.37687 -2.044,-0.8141 -2.487,-0.97161 -1.126,-0.39956 -1.427,-1.45419 -0.61,-2.13327 0.541,-0.44913 1.147,-0.35436 2.847,0.44528 1.188,0.55873 2.355,1.01587 2.593,1.01587 0.557,0 0.937,1.0259 0.666,1.80153 -0.26,0.74643 -0.871,0.71441 -3.009,-0.1578 z m 4.8,-4.52016 c 0,-1.12786 0.386,-1.68856 1.8,-2.61829 4.307,-2.83025 4.154,-2.53273 3.751,-7.2952 -0.199,-2.34554 -0.429,-5.66981 -0.512,-7.38728 -0.08,-1.71746 -0.388,-5.06831 -0.676,-7.44634 -0.289,-2.37803 -0.659,-6.16125 -0.823,-8.40716 -0.163,-2.24592 -0.462,-4.29967 -0.663,-4.56389 -0.854,-1.12157 -1.078,-4.48297 -1.049,-15.71101 0.02,-6.54138 -0.16,-12.01182 -0.394,-12.15653 -0.485,-0.30034 -0.575,0.17508 -1.941,10.33259 -0.551,4.09549 -1.185,8.31109 -1.41,9.36799 -0.225,1.0569 -0.78,3.86729 -1.235,6.24532 -0.454,2.37803 -1.053,4.61246 -1.33,4.96541 -0.277,0.35296 -0.663,1.86624 -0.858,3.36287 -0.341,2.62506 -0.796,4.76488 -2.882,13.53034 -0.535,2.24592 -1.196,5.38059 -1.47,6.96594 -0.789,4.56906 -1.219,5.18793 -3.365,4.84455 -1.558,-0.24932 -2.108,-0.0577 -4.012,1.39663 -2.57,1.96324 -2.778,2.0005 -4.053,0.72476 -1.038,-1.03876 -1.137,-1.4038 -0.593,-2.1935 0.635,-0.92219 5.676,-4.02775 6.822,-4.20274 1.194,-0.18237 1.367,-0.75771 5.516,-18.34485 0.748,-3.1707 1.855,-7.81866 2.461,-10.3288 1.229,-5.09926 2.154,-9.95963 2.377,-12.49064 0.08,-0.92479 0.391,-2.97854 0.688,-4.56389 0.296,-1.58535 0.76,-4.28765 1.031,-6.00512 0.271,-1.71746 0.692,-4.31167 0.935,-5.76491 1.533,-9.15564 1.554,-8.70226 -0.953,-20.89781 -0.544,-2.64225 -1.21,-5.88501 -1.481,-7.20614 -0.271,-1.32112 -0.711,-4.99625 -0.978,-8.16696 -0.584,-6.93508 -1.225,-12.21173 -1.52,-12.50676 -0.118,-0.11885 -1.257,1.40346 -2.531,3.38291 -1.273,1.97946 -2.605,3.84041 -2.961,4.13545 -0.355,0.29504 -0.867,1.35968 -1.138,2.36587 -0.405,1.50633 -0.761,1.88865 -2.018,2.16475 -1.31,0.28814 -1.678,0.14112 -2.611,-1.04467 -3.226,-4.10126 -5.509,-6.43317 -8.187,-8.36139 -1.639,-1.18051 -2.989,-2.31265 -3,-2.51585 -0.01,-0.2032 -0.544,-0.23788 -1.184,-0.077 -0.92,0.23094 -1.626,-0.13345 -3.361,-1.73347 -2.408,-2.2216 -2.656,-3.15012 -1.291,-4.83702 0.719,-0.88863 1.328,-1.10144 2.965,-1.03612 1.792,0.0715 2.314,0.36627 4.015,2.26893 1.076,1.2027 2.201,2.18547 2.501,2.18393 0.3,-0.002 0.877,0.4836 1.283,1.07811 0.406,0.59451 2.377,2.77806 4.38,4.85235 l 3.641,3.77142 0.926,-1.12917 c 0.509,-0.62105 1.425,-1.95256 2.036,-2.95892 0.611,-1.00637 1.582,-2.51966 2.159,-3.36287 2.339,-3.42262 3.992,-6.83042 3.989,-8.22406 0,-0.81181 -0.228,-2.85712 -0.502,-4.54514 -0.465,-2.8695 -0.428,-3.1429 0.568,-4.20358 1.104,-1.17652 2.758,-1.48219 3.578,-0.66138 0.617,0.61721 8.237,1.94639 9.149,1.59596 0.453,-0.1736 0.652,-0.783 0.558,-1.70626 -0.129,-1.26744 -0.47,-1.55683 -2.903,-2.4626 -3.429,-1.27617 -4.658,-2.58982 -6.071,-6.49086 -1.635,-4.51256 -1.462,-7.43319 0.676,-11.39569 2.473,-4.58384 7.953,-11.08776 8.867,-10.52291 0.799,0.49427 0.549,2.0971 -0.407,2.60913 -1.09,0.58365 -2.658,2.88897 -2.246,3.30138 0.164,0.16453 1.689,-1.17637 3.388,-2.9798 2.053,-2.17952 3.333,-3.1848 3.819,-2.99816 1.172,0.44972 0.847,1.66779 -0.65,2.44268 -2.135,1.10462 -2.304,2.19195 -0.34,2.19195 1.273,0 1.874,-0.34965 2.889,-1.68144 1.419,-1.86145 3.153,-2.26849 3.153,-0.74005 0,0.51775 -0.559,1.46015 -1.242,2.09422 -0.97,0.90034 -1.09,1.21161 -0.544,1.42112 0.392,0.15034 1.386,-0.36033 2.263,-1.16158 1.566,-1.43106 2.884,-1.5351 2.884,-0.22763 0,0.3826 -0.594,1.12866 -1.32,1.65792 l -1.321,0.9623 1.068,1.13679 c 1.529,1.62865 3.149,6.84976 3.126,10.07514 -0.02,2.22353 -0.284,3.11133 -1.451,4.8041 -2.092,3.03624 -3.399,3.97748 -8.818,6.3535 -1.391,0.60988 -1.702,0.97352 -1.498,1.75364 0.218,0.83305 0.487,0.92929 1.755,0.62657 0.824,-0.1967 2.038,-0.33234 2.698,-0.30142 0.66,0.0309 2.743,0.0877 4.628,0.1261 2.939,0.0599 3.581,0.23301 4.501,1.21325 1.247,1.32784 1.207,1.63697 -0.973,7.57692 -1.437,3.91526 -1.493,4.2852 -0.772,5.08212 0.427,0.47272 0.777,1.53231 0.777,2.35464 0,2.44567 0.796,2.20547 1.954,-0.58923 0.597,-1.4418 1.382,-2.73525 1.744,-2.87433 1.365,-0.52411 1.177,1.36473 -0.467,4.69333 -2.378,4.81592 -2.515,5.8804 -1.291,10.01592 0.573,1.93458 1.11,3.59132 1.195,3.68163 0.223,0.2385 3.613,-0.98354 5.093,-1.83628 5.095,-2.93475 6.766,-4.10092 8.284,-5.78243 0.952,-1.05394 1.73,-2.21855 1.73,-2.58802 0,-0.36948 0.756,-1.11821 1.68,-1.66385 1.628,-0.96128 1.68,-1.08297 1.68,-3.92048 0,-2.1484 0.329,-3.62427 1.235,-5.54091 0.68,-1.43687 1.429,-2.6125 1.666,-2.6125 0.69,0 -0.03,-1.46686 -2.31,-4.6924 -2.076,-2.93852 -2.364,-4.43538 -0.855,-4.43538 0.399,0 1.187,0.90691 1.752,2.01536 l 1.028,2.01535 0.589,-1.17464 c 0.323,-0.64605 0.871,-2.2219 1.217,-3.5019 0.708,-2.61725 0.36,-3.17643 -1.982,-3.19009 -1.399,-0.008 -2.601,-1.11619 -2.097,-1.93273 0.353,-0.57207 6.888,-0.16627 7.584,0.471 0.212,0.1941 0.08,1.08716 -0.291,1.98457 -1.178,2.83738 -2.735,8.0167 -2.735,9.09653 0,0.91781 4.031,5.74638 4.798,5.74638 0.159,0 0.577,-0.79396 0.927,-1.76435 0.351,-0.97039 1.203,-2.32154 1.894,-3.00256 0.692,-0.68102 1.304,-1.67058 1.362,-2.19903 0.28,-2.5748 0.791,-4.04619 1.497,-4.31754 0.997,-0.38283 2.132,1.11822 1.803,2.38497 -0.136,0.52244 -0.03,3.09455 0.242,5.7158 0.334,3.26132 0.333,4.92202 0,5.26039 -0.659,0.6591 -1.957,-2.44279 -1.957,-4.67615 0,-0.91768 -0.182,-1.78102 -0.404,-1.91852 -0.462,-0.28564 -2.476,3.50993 -2.476,4.66584 0,0.42032 -0.374,0.97342 -0.83,1.22912 -0.783,0.43833 -0.78,0.51998 0.04,1.42935 1.095,1.21121 0.855,2.67194 -0.471,2.86227 -0.556,0.0797 -1.233,0.6352 -1.506,1.23447 -0.657,1.4423 -7.395,10.37688 -9.554,12.66726 -0.936,0.99347 -1.976,2.3469 -2.311,3.00763 -0.733,1.44394 -2.92,8.99087 -3.481,12.01052 -0.26,1.39816 -0.651,2.16184 -1.107,2.16184 -1.478,0 -0.339,-6.12719 2.53,-13.60365 1.046,-2.72596 1.8,-5.05872 1.675,-5.18392 -0.559,-0.55926 -8.504,4.59604 -8.534,5.53712 -0.07,2.34027 0.128,14.0142 0.269,15.60296 0.192,2.15747 1.239,3.16596 1.777,1.71138 0.426,-1.1536 1.612,-1.22561 2.222,-0.13494 0.399,0.71457 1.699,0.27351 11.425,-3.87746 6.036,-2.57606 11.298,-4.85987 11.694,-5.07514 0.525,-0.28539 0.678,-1.02411 0.564,-2.72759 -0.227,-3.38657 0.315,-6.42083 1.146,-6.42083 0.38,0 0.691,0.36751 0.691,0.81669 0,1.73984 0.894,-0.26787 2.182,-4.90017 0.734,-2.64225 1.603,-5.23646 1.931,-5.76492 0.5,-0.80679 1.299,-4.24053 1.174,-5.04429 -0.02,-0.13212 0.393,-1.49331 0.92,-3.02487 1.369,-3.9824 2.934,-6.58332 3.962,-6.58332 1.08,0 1.11,-0.26953 -0.385,3.40014 -1.52,3.73006 -2.727,7.66621 -2.438,7.95507 0.116,0.11607 1.682,-1.79687 3.48,-4.25097 1.799,-2.45409 3.794,-5.03827 4.434,-5.74262 1.142,-1.25685 1.148,-1.30731 0.316,-2.71766 -0.489,-0.82758 -1.121,-1.33231 -1.492,-1.19012 -0.353,0.1358 -0.643,0.0256 -0.643,-0.24486 0,-0.27048 0.197,-0.56384 0.438,-0.65191 0.243,-0.0889 0.167,-0.80153 -0.171,-1.60137 l -0.609,-1.44123 -0.791,2.61493 c -0.725,2.39919 -1.396,3.36358 -2.353,3.38283 -0.51,0.0103 0.05,-3.62176 0.983,-6.36415 0.767,-2.25682 0.76,-2.32237 -0.511,-4.8041 -0.708,-1.38383 -1.778,-3.31604 -2.377,-4.2938 -0.851,-1.38853 -0.962,-1.90471 -0.509,-2.35767 0.833,-0.83442 1.768,0.0793 3.313,3.24017 0.702,1.43467 1.382,2.50181 1.512,2.37142 0.131,-0.13038 0.411,-1.05633 0.624,-2.05764 0.212,-1.00132 0.833,-3.0972 1.379,-4.65751 0.546,-1.56031 0.993,-2.91146 0.993,-3.00256 0,-0.0911 -0.949,-0.16563 -2.109,-0.16563 -1.526,0 -2.194,-0.22148 -2.416,-0.80095 -0.503,-1.31006 0.267,-1.52221 3.684,-1.01515 3.725,0.55262 3.777,0.66251 2.237,4.70534 -1.764,4.63259 -2.4,6.93593 -2.168,7.84822 0.125,0.48899 0,1.40777 -0.298,2.04174 -0.56,1.22969 0.116,3.55472 1.034,3.55472 0.587,0 5.885,-10.87807 7.201,-14.78779 0.726,-2.15535 0.87,-3.25485 0.542,-4.11988 -0.247,-0.64896 -0.596,-2.48573 -0.777,-4.08171 l -0.328,-2.90178 -1.741,-0.14558 c -1.163,-0.0972 -1.741,-0.38486 -1.741,-0.86619 0,-0.54114 0.89,-0.81753 3.573,-1.10975 3.987,-0.4343 5.788,-0.16954 5.788,0.85108 0,0.46107 -0.665,0.73196 -2.04,0.83156 -1.122,0.0812 -1.986,0.30987 -1.92,0.50803 0.07,0.19817 0.12,1.42579 0.12,2.72804 0,1.32592 0.28,2.648 0.636,3.00471 0.35,0.35033 0.775,1.33166 0.945,2.18073 0.236,1.17784 0.113,1.65317 -0.516,2.00535 -0.72,0.40331 -0.804,1.1699 -0.67,6.07224 0.124,4.48975 0.03,5.56855 -0.48,5.39992 -0.35,-0.11591 -0.855,-1.23402 -1.122,-2.4847 l -0.487,-2.27396 -2.514,5.20158 c -2.745,5.68025 -3.037,7.51591 -1.507,9.46214 1.159,1.4747 0.937,2.52518 -0.661,3.13344 -0.616,0.23436 -2.08,1.64576 -3.253,3.13645 -1.173,1.49069 -3.12,3.94396 -4.326,5.4517 -3.216,4.01905 -5.728,7.79268 -5.728,8.6057 0,1.11841 -1.908,7.44929 -2.671,8.86227 -0.784,1.44986 -0.828,1.84634 -0.299,2.67947 0.277,0.43689 1.94,-0.11147 6.354,-2.0954 3.287,-1.47794 8.03,-3.51784 10.538,-4.53311 4.102,-1.66043 4.576,-1.98095 4.718,-3.18911 0.09,-0.73873 0.657,-1.8836 1.269,-2.54417 0.612,-0.66056 1.27,-1.95766 1.462,-2.88245 0.192,-0.92479 0.755,-2.48351 1.251,-3.46383 0.495,-0.98032 0.9,-2.06124 0.9,-2.40205 0,-1.61416 3.135,-11.52024 3.917,-12.35978 0.486,-0.5228 0.885,-1.17576 0.885,-1.45104 0,-0.53459 0.627,-0.67346 1.064,-0.2357 0.146,0.14564 -0.144,1.11158 -0.644,2.14654 -0.499,1.03496 -1.672,4.4288 -2.606,7.54186 -0.933,3.11306 -1.991,6.30866 -2.351,7.10134 -0.359,0.79267 -0.929,2.41405 -1.267,3.60307 -0.338,1.18901 -0.899,2.58826 -1.246,3.10945 -0.347,0.52119 -0.631,1.73474 -0.631,2.69678 0,0.96205 -0.217,2.89459 -0.483,4.29455 -0.265,1.39996 -0.41,2.61704 -0.323,2.70462 0.263,0.26342 5.128,-2.20997 5.109,-2.59784 0,-0.19754 -0.33,-1.65628 -0.712,-3.24163 -0.383,-1.58535 -0.699,-3.492 -0.703,-4.23699 0,-1.1317 0.17,-1.32924 1.072,-1.20073 0.918,0.13066 1.059,0.40674 0.942,1.83495 -0.181,2.18957 0.798,6.24586 1.506,6.24207 0.304,-0.002 1.169,-0.32476 1.923,-0.71807 1.319,-0.68877 2.23,-0.6056 2.23,0.2037 0,0.21273 -0.972,0.75832 -2.16,1.21241 -1.188,0.45408 -2.159,0.96987 -2.157,1.14618 0,0.17632 0.433,1.72577 0.957,3.44324 1.016,3.33161 1.218,5.2845 0.547,5.2845 -0.427,0 -2.468,-5.74425 -2.468,-6.94767 0,-0.3752 -0.165,-0.78463 -0.368,-0.90985 -0.539,-0.33372 -5.391,1.99459 -5.617,2.69582 -0.107,0.3288 -0.434,4.89646 -0.728,10.15035 -0.51,9.13203 -1.431,15.03733 -3.175,20.36973 -0.37,1.13219 -0.673,2.89803 -0.673,3.92409 0,2.4426 -0.395,3.38537 -1.417,3.38537 -0.778,0 -2.423,1.39208 -2.423,2.05035 0,0.16129 0.81,1.2547 1.8,2.42979 0.99,1.17509 2.717,3.22691 3.838,4.55959 2.106,2.50393 2.258,3.64556 0.558,4.18561 -0.504,0.15998 -0.916,0.45778 -0.916,0.66179 0,0.3253 -2.08,1.48597 -2.663,1.48597 -0.709,0 -0.02,-1.52708 1.082,-2.39396 1.53,-1.20425 1.463,-1.37009 -2.445,-6.10498 -2.631,-3.18831 -3.242,-3.50368 -4.238,-2.19017 -0.351,0.46239 -1.221,1.35886 -1.933,1.99215 -1.117,0.99196 -1.405,1.061 -2.082,0.49849 -0.706,-0.58656 -0.525,-0.8863 1.786,-2.94797 l 2.572,-2.29503 -1.953,-1.80653 c -1.075,-0.99359 -2.578,-2.2389 -3.34,-2.76735 -2.441,-1.69274 -3.108,-2.59802 -3.108,-4.22275 0,-0.86928 -0.3,-2.76089 -0.667,-4.20359 -0.367,-1.44269 -1.035,-5.00111 -1.485,-7.90758 -0.449,-2.90648 -1.241,-6.85347 -1.759,-8.77109 -0.518,-1.91762 -0.81,-3.69943 -0.649,-3.95957 0.16,-0.26015 0.09,-0.84178 -0.167,-1.29252 -0.373,-0.66825 -0.566,-0.42508 -1.045,1.31732 -0.323,1.17527 -1.08,3.54205 -1.682,5.25951 -0.603,1.71747 -1.46,4.20358 -1.906,5.52471 -0.445,1.32113 -1.74,5.10435 -2.878,8.40716 -2.389,6.93721 -5.044,17.1781 -5.044,19.45566 0,2.15319 -0.986,2.89541 -2.942,2.21326 -3.617,-1.26197 -3.688,-0.31805 -0.266,3.55258 1.402,1.58535 3.995,4.9362 5.762,7.44634 1.768,2.51014 3.794,5.28449 4.503,6.16522 1.764,2.19169 1.12,3.21516 -1.996,3.17022 -2.407,-0.0347 -3.121,-0.60937 -3.133,-2.52483 0,-0.81079 0.222,-1.06862 0.833,-0.94241 0.462,0.0956 0.81,0.54377 0.773,0.99604 -0.04,0.50946 0.278,0.82231 0.84,0.82231 1.184,0 1.149,-0.59293 -0.103,-1.72649 -0.555,-0.50303 -1.57,-1.88768 -2.254,-3.07702 -1.918,-3.33415 -3.407,-5.25492 -6.704,-8.64391 -1.669,-1.71523 -3.111,-3.5528 -3.204,-4.08348 -0.661,-3.73035 -3.259,-17.728 -3.641,-19.61737 -0.258,-1.27523 -0.469,-3.26218 -0.469,-4.41544 0,-1.15326 -0.162,-2.19175 -0.36,-2.30776 -0.198,-0.11602 -1.978,0.57382 -3.956,1.53297 -3.465,1.68076 -3.631,1.83951 -4.583,4.384 -0.59,1.5768 -1.317,2.70352 -1.805,2.79758 -1.018,0.19613 -1.036,-0.49868 -0.06,-2.38351 0.415,-0.80411 0.635,-1.58209 0.489,-1.72884 -0.147,-0.14675 -2.593,0.78359 -5.436,2.06743 -4.71,2.12675 -6.364,3.21385 -10.338,6.79633 -1.184,1.06683 -3.114,1.25436 -2.673,0.25957 0.527,-1.18572 6.303,-5.97999 8.17,-6.78074 1.223,-0.52433 3.809,-1.69677 5.748,-2.60543 1.938,-0.90865 4.108,-1.88838 4.821,-2.17717 1.519,-0.61474 2.773,-2.79798 2.958,-5.14875 0.15,-1.90596 -0.148,-2.05839 -1.374,-0.7025 -1.218,1.34656 -2.556,1.22664 -2.929,-0.26257 -0.376,-1.50052 -0.388,-1.48918 2.5,-2.5242 1.292,-0.46291 2.781,-1.0937 3.309,-1.40174 0.929,-0.54188 0.931,-0.58143 0.07,-1.21682 -1.204,-0.891 -1.582,-3.36804 -1.712,-11.22482 -0.06,-3.66253 -0.188,-6.73779 -0.284,-6.83391 -0.1,-0.0961 -1.448,0.52555 -3.004,1.3815 -2.635,1.44996 -2.924,1.51046 -4.231,0.8856 -0.903,-0.43209 -1.452,-1.0963 -1.542,-1.86719 -0.08,-0.65808 -0.34,-1.62889 -0.585,-2.15734 -0.61,-1.31846 -1.914,-8.60089 -1.923,-10.74218 0,-1.65887 -0.669,-3.42267 -1.101,-2.93557 -0.111,0.12446 -0.677,1.5234 -1.259,3.10875 -0.582,1.58535 -1.583,3.82846 -2.226,4.9847 -0.642,1.15624 -1.167,2.40791 -1.167,2.78149 0,0.37359 -0.4,1.48133 -0.888,2.46164 -0.488,0.98032 -1.243,3.29569 -1.678,5.14527 -0.435,1.84957 -1.203,5.09234 -1.706,7.20614 -0.875,3.67673 -2.126,7.29461 -3.705,10.71365 -0.403,0.87223 -0.855,2.38552 -1.005,3.36286 -0.15,0.97735 -0.457,2.1371 -0.681,2.57724 -0.233,0.45605 -0.193,1.90243 0.09,3.36286 1.525,7.77037 1.636,8.7573 2.108,18.65634 0.667,14.00471 1.247,23.17277 1.673,26.42252 0.26,1.98168 0.608,6.41346 0.773,9.84839 0.184,3.79897 0.567,6.79173 0.978,7.64025 0.372,0.76722 0.676,2.09214 0.676,2.94428 0,1.30044 -0.25,1.64901 -1.56,2.16975 -0.858,0.34123 -2.329,1.44838 -3.269,2.46033 -1.385,1.49155 -2.044,1.83992 -3.48,1.83992 -1.647,0 -1.772,-0.10117 -1.772,-1.4352 z m 48.922,-57.14365 c 1.565,-6.31649 3.393,-12.14954 7.641,-24.38603 2.836,-8.16932 3.134,-9.27372 2.501,-9.27372 -0.264,0 -3.347,1.26819 -6.849,2.8182 -3.503,1.55001 -7.827,3.42001 -9.61,4.15555 -3.048,1.25814 -3.237,1.42556 -3.183,2.82661 0.03,0.81909 0.193,2.07256 0.36,2.78547 l 0.303,1.29621 5.86,-2.60303 c 6.817,-3.02801 8.522,-3.56271 8.225,-2.57934 -0.252,0.83175 -5.272,3.38153 -12.566,6.38199 l -1.842,0.75763 0.308,3.73028 c 0.483,5.83653 1.232,10.61916 1.926,12.28897 0.35,0.84145 0.79,2.77641 0.979,4.29991 0.366,2.95448 0.981,3.67543 3.159,3.70092 1.203,0.0141 1.304,-0.21224 2.788,-6.19962 z m 29.719,-2.02358 c 1.82,-2.13482 2.043,-2.59214 2.75,-5.63137 1.593,-6.85064 2.586,-12.79122 3.064,-18.31825 0.937,-10.84766 0.97,-11.39556 0.692,-11.67309 -0.36,-0.36041 -3.504,1.06722 -4.768,2.16491 -0.545,0.47345 -1.447,0.86081 -2.003,0.86081 -1.259,0 -3.905,2.17585 -4.476,3.68058 -0.49,1.28993 -2.245,1.53063 -2.691,0.36901 -0.692,-1.80518 4.753,-5.66629 11.601,-8.2261 2.362,-0.88294 2.405,-0.9353 2.687,-3.28456 0.411,-3.42999 0.198,-3.731 -1.893,-2.6754 -0.965,0.48698 -2.277,1.04761 -2.917,1.24584 -0.639,0.19824 -3.447,1.43183 -6.24,2.74132 -6.451,3.02458 -8.708,4.04076 -9.759,4.39491 -0.462,0.15566 -0.832,0.66813 -0.823,1.13881 0.02,1.08284 1.223,6.14895 1.605,6.76739 0.158,0.25553 0.834,3.786 1.502,7.84551 2.267,13.76758 2.049,13.16452 6.074,16.86835 1.938,1.78317 3.699,3.24241 3.914,3.24276 0.216,3.6e-4 0.972,-0.67979 1.681,-1.51143 z m -41.676,-16.98906 c 0,-1.28585 -1.492,-4.0781 -2.179,-4.0781 -0.399,0 -0.936,0.5945 -1.194,1.32112 -0.257,0.72662 -0.684,1.69652 -0.948,2.15533 -0.264,0.45881 -0.48,1.36561 -0.48,2.01511 v 1.18092 l 2.4,-0.99824 c 1.321,-0.54904 2.401,-1.2673 2.401,-1.59614 z m -32.959,-9.39134 c 0.443,-1.20482 1.447,-5.04286 2.233,-8.52899 1.235,-5.4832 3.366,-12.10338 5.518,-17.14418 1.534,-3.59075 5.045,-12.54712 5.045,-12.86683 0,-0.19519 0.42,-1.27132 0.933,-2.3914 1.842,-4.02311 1.9,-3.96299 -3.813,-3.92181 -2.772,0.02 -6.298,0.21393 -7.835,0.431 -1.872,0.26452 -3.892,0.18736 -6.123,-0.23397 -1.831,-0.34575 -3.425,-0.53241 -3.543,-0.4148 -0.311,0.31146 0.65,15.61027 1.158,18.43699 0.238,1.32113 0.679,4.56389 0.98,7.20615 0.302,2.64225 0.882,6.85784 1.291,9.36798 0.408,2.51014 0.913,5.68917 1.122,7.06452 0.5,3.2909 1.444,6.09721 1.881,5.59045 0.192,-0.22249 0.711,-1.39029 1.153,-2.59511 z m 40.167,-22.4304 c 0,-0.19817 0.598,-1.05542 1.32,-1.90499 2.149,-2.52885 7.794,-10.91191 7.794,-11.57425 0,-0.47881 -5.21,-5.62481 -5.415,-5.34868 -1.535,2.06597 -2.913,9.47799 -2.48,13.3373 0.297,2.64677 0.261,2.76127 -1.194,3.83344 -0.824,0.60785 -1.373,1.31045 -1.218,1.56133 0.335,0.54188 1.182,0.60996 1.193,0.0959 z m -32.012,-34.09711 c 4.05,-2.74381 5.299,-4.94865 4.813,-8.49768 -0.168,-1.22629 -0.492,-2.34457 -0.719,-2.48506 -0.227,-0.14049 -0.413,-0.62701 -0.413,-1.08114 0,-2.11614 -4.38,-3.85046 -7.559,-2.99356 -1.101,0.29656 -2.131,0.74952 -2.29,1.00656 -0.159,0.25705 -0.813,0.46736 -1.453,0.46736 -1.78,0 -3.952,2.3108 -4.628,4.92394 -1.154,4.45952 1.716,9.44233 6.034,10.47393 2.512,0.60028 2.757,0.52884 6.215,-1.81435 z m -5.677,-1.39987 c -0.873,-2.09053 -0.281,-3.18552 1.599,-2.96006 0.842,0.10096 1.344,0.56716 1.67,1.54999 0.396,1.19774 0.305,1.53521 -0.617,2.28195 -1.508,1.22214 -1.821,1.11935 -2.652,-0.87188 z m -2.012,-5.97436 c -1.612,-0.59978 -2.348,-2.29511 -1.406,-3.23807 1.231,-1.23171 3.376,-0.2317 3.561,1.66012 0.163,1.6704 -0.534,2.18099 -2.155,1.57795 z m 6.093,-0.91616 c -0.747,-1.80464 -0.384,-2.77715 1.182,-3.17062 1.646,-0.41342 2.655,0.51702 2.655,2.4488 0,2.54981 -2.858,3.08743 -3.837,0.72182 z m -26.767,150.23505 c -3.455,-1.73679 -2.433,-3.39945 1.237,-2.01251 2.434,0.91964 3.01,1.45768 2.628,2.4537 -0.342,0.8911 -1.471,0.76218 -3.865,-0.44119 z m -11.248,-4.44306 c -2.64,-1.38856 -3.018,-1.85389 -2.117,-2.60197 0.964,-0.80136 7.113,1.67998 6.904,2.78622 -0.228,1.20258 -2.303,1.12272 -4.787,-0.18425 z m 51.724,0.77343 c -0.147,-0.23717 0.542,-0.8528 1.531,-1.36807 16.614,-8.65572 17.4,-9.0012 17.4,-7.64465 0,0.62534 -16.945,9.48157 -18.093,9.45644 -0.315,-0.007 -0.692,-0.20655 -0.838,-0.44372 z m 23.972,-0.39835 c -0.792,-0.11285 -1.595,-0.35473 -1.785,-0.5375 -0.438,-0.42163 3.54,-8.48133 4.185,-8.48133 0.264,0 0.889,0.90494 1.389,2.01098 l 0.908,2.01098 8.453,-4.36666 c 9.317,-4.81321 21.565,-10.94492 21.863,-10.94492 0.289,0 20.432,-9.91303 22.354,-11.00076 0.924,-0.52315 3.516,-1.82135 5.761,-2.8849 3.96,-1.87669 9.217,-4.68698 11.384,-6.0857 1.359,-0.87689 2.537,-0.87948 2.537,-0.006 0,0.86767 -4.039,3.08956 -18.962,10.42998 -22.455,11.04558 -52.291,26.25564 -52.452,26.7397 -0.09,0.26535 0.39,1.07698 1.062,1.80361 0.673,0.72663 1.224,1.39767 1.224,1.4912 0,0.22243 -6.065,0.0853 -7.921,-0.1791 z m -88.451,-5.58887 c -2.008,-0.98768 -3,-1.75877 -3,-2.33258 0,-1.09769 0.906,-1.0832 3.468,0.0554 1.129,0.50194 2.662,1.15287 3.407,1.44652 0.892,0.3515 1.3,0.81933 1.195,1.36934 -0.239,1.25721 -1.742,1.09749 -5.07,-0.53871 z m 69.809,-2.0688 c -0.734,-0.73462 -0.124,-1.25025 3.623,-3.06406 2.17,-1.0497 4.125,-2.23093 4.345,-2.62497 0.22,-0.39403 0.782,-0.71642 1.248,-0.71642 0.466,0 2.71,-0.97504 4.985,-2.16675 2.276,-1.19171 4.255,-1.97725 4.398,-1.74564 0.457,0.73869 -2.659,2.86965 -8.838,6.04465 -1.98,1.01756 -4.529,2.46737 -5.665,3.22179 -2.008,1.3347 -3.445,1.70335 -4.096,1.0514 z m -83.01,-3.40111 c -2.705,-1.2065 -3.477,-2.27907 -2.037,-2.83211 0.399,-0.15291 1.457,0.0701 2.353,0.49549 0.896,0.42543 1.948,0.7735 2.338,0.7735 0.988,0 1.95,1.28319 1.615,2.15573 -0.368,0.95907 -0.981,0.87397 -4.269,-0.59261 z m -14.282,-5.58312 c -2.769,-1.17911 -3.636,-1.77932 -3.754,-2.59979 -0.08,-0.58672 0.08,-1.06676 0.36,-1.06676 0.998,0 0.497,-1.29448 -0.714,-1.84673 -0.844,-0.38476 -1.508,-0.4094 -2.125,-0.0788 -0.494,0.2645 -1.246,0.34736 -1.671,0.18415 -0.432,-0.16603 -1.19,0.081 -1.72,0.56082 -0.766,0.69397 -1.152,0.75502 -2.022,0.32 -0.591,-0.29566 -1.889,-0.86176 -2.882,-1.25801 -1.907,-0.76003 -2.728,-1.94258 -1.915,-2.75609 0.328,-0.32831 1.198,-0.16165 2.677,0.5127 1.206,0.54953 2.485,0.99914 2.842,0.99914 0.358,0 0.891,0.24058 1.185,0.53463 0.853,0.85335 1.503,0.0813 1.775,-2.10716 0.478,-3.85618 1.055,-58.40062 0.791,-74.87812 -0.03,-1.69653 -0.09,-1.75635 -2.188,-2.07117 -1.188,-0.1783 -2.16,-0.5485 -2.16,-0.82266 0,-0.27416 -0.303,-1.1797 -0.674,-2.01231 -0.37,-0.8326 -1.201,-2.70284 -1.847,-4.15608 -0.645,-1.45324 -2.197,-3.77562 -3.448,-5.16084 l -2.275,-2.5186 0.313,-3.48652 c 0.173,-1.91921 0.06,-5.43017 -0.242,-7.81021 -0.728,-5.66464 -0.68,-6.26197 0.651,-8.0749 0.619,-0.84331 2.186,-3.66584 3.483,-6.2723 3.024,-6.07574 3.472,-6.38538 8.092,-5.59444 3.031,0.5189 5.59,0.46223 9.388,-0.20792 0.132,-0.0233 0.51,-0.21393 0.84,-0.42365 0.387,-0.24552 0.601,-0.1146 0.601,0.36767 0,0.43559 0.413,0.74896 0.987,0.74896 0.76,0 1.353,0.80282 2.574,3.48448 2.119,4.65334 5.385,9.64037 6.611,10.09442 0.856,0.31737 0.944,0.61294 0.642,2.16184 -0.193,0.98681 -0.442,5.22916 -0.554,9.42745 l -0.204,7.63325 -3.008,3.65637 c -1.654,2.01101 -3.738,4.79134 -4.629,6.17852 -0.892,1.38719 -1.747,2.54585 -1.9,2.57482 -0.154,0.029 -0.993,0.11233 -1.865,0.18525 -0.872,0.0729 -1.696,0.24348 -1.831,0.37901 -0.136,0.13553 -0.341,18.26569 -0.457,40.28924 -0.115,22.02354 -0.263,40.46599 -0.328,40.9832 -0.128,1.01523 1.622,2.1176 4.202,2.64684 1.127,0.23121 1.44,0.55083 1.44,1.47018 0,1.6256 -0.853,1.5935 -5.041,-0.18984 z m -2.051,-45.64965 c 0.204,-18.99522 0.263,-35.7495 0.131,-37.23173 -0.22,-2.47024 -0.344,-2.70704 -1.486,-2.83982 l -1.246,-0.14486 -0.296,10.23346 c -0.162,5.6284 -0.315,22.89597 -0.34,38.37239 l -0.05,28.13894 1.106,0.50091 c 1.001,0.45315 1.14,0.35821 1.455,-0.99581 0.192,-0.8232 0.516,-17.03826 0.721,-36.03348 z m 5.806,-43.97114 c 0.704,-0.94626 1.389,-1.82856 1.523,-1.96067 0.725,-0.71768 4.742,-6.16565 5.234,-7.09923 0.319,-0.60462 0.76,-4.58083 0.987,-8.88757 0.379,-7.22292 0.345,-7.84934 -0.462,-8.5567 -0.479,-0.41978 -1.273,-1.50071 -1.765,-2.40205 -0.492,-0.90134 -1.249,-2.17927 -1.682,-2.83983 -0.433,-0.66056 -1.508,-2.60622 -2.388,-4.32368 -1.287,-2.50848 -1.838,-3.13779 -2.802,-3.19954 -0.66,-0.0423 -3.822,-0.19456 -7.028,-0.3384 l -5.828,-0.26152 -1.915,2.98065 c -1.053,1.63936 -2.602,4.35094 -3.441,6.02575 l -1.527,3.04509 0.03,7.98115 c 0.03,7.74791 0.07,8.01692 1.185,9.20534 1.252,1.32813 2.202,3.07156 4.77,8.75875 l 1.667,3.69128 6.08,-0.0492 6.08,-0.0492 z m -4.515,-1.06543 c -0.233,-0.37577 -1.551,-0.45412 -4.229,-0.25131 -2.141,0.16208 -4.129,0.13754 -4.418,-0.0545 -0.289,-0.19206 -0.682,-0.98651 -0.873,-1.76543 -0.191,-0.77892 -1.222,-2.7486 -2.292,-4.37707 l -1.946,-2.96083 -0.07,-6.77195 c -0.05,-4.67845 -0.25,-6.9565 -0.662,-7.36894 -1.026,-1.02623 -0.663,-2.55742 1.245,-5.25083 1.012,-1.43019 2.464,-3.75854 3.224,-5.1741 0.82,-1.52437 1.864,-2.7565 2.562,-3.02199 1.227,-0.46678 10.276,-0.23389 11.63,0.29932 0.522,0.20538 0.86,1.12297 1.033,2.80093 0.378,3.65399 2.063,8.09748 3.521,9.28174 1.16,0.94178 1.232,1.21158 0.922,3.4631 -0.184,1.34297 -0.06,4.84576 0.274,7.78397 0.515,4.50937 0.506,5.40627 -0.06,5.75308 -0.365,0.22598 -0.855,0.29274 -1.088,0.14836 -0.603,-0.37271 -3.528,2.58652 -4.94,4.99669 -1.495,2.55322 -3.139,3.60986 -3.843,2.46978 z m -0.61,-2.77684 c 2.119,-0.038 2.303,-0.15369 3.698,-2.32198 0.807,-1.25507 2.303,-3.20337 3.324,-4.32955 l 1.857,-2.0476 -0.644,-5.15854 c -0.489,-3.91032 -1.166,-6.50263 -2.796,-10.71333 -1.183,-3.05514 -2.421,-5.9229 -2.75,-6.37279 -0.73,-0.99684 -6.234,-1.61427 -8.051,-0.90319 -0.695,0.27159 -2.29,2.07748 -3.736,4.22823 l -2.523,3.75417 0.297,7.46848 c 0.317,7.96753 0.08,7.05484 3.632,14.03508 1.143,2.2458 1.973,2.70391 4.502,2.48439 0.528,-0.0458 1.963,-0.10135 3.19,-0.12337 z m 130.139,91.13735 c 0.16,-0.48016 28.615,-15.25078 37.17,-19.29445 1.363,-0.64445 4.114,-2.16504 6.112,-3.37909 1.999,-1.21404 3.811,-2.20735 4.028,-2.20735 0.217,0 2.435,-1.08768 4.929,-2.41706 2.494,-1.32938 5.215,-2.76459 6.048,-3.18935 0.832,-0.42477 1.751,-1.29495 2.042,-1.93373 0.651,-1.42925 1.485,-1.02312 1.485,0.72298 0,1.18475 -0.613,1.60466 -7.321,5.01188 -4.026,2.04533 -11.857,6.12086 -17.402,9.05674 -14.768,7.81953 -35.594,18.21023 -36.5,18.21023 -0.431,0 -0.697,-0.26136 -0.591,-0.5808 z m -47.78,-6.01172 c -0.439,-0.43919 -1.505,-1.02715 -2.369,-1.30658 -2.433,-0.78689 -2.048,-1.95479 0.633,-1.92391 l 2.204,0.0254 1.101,-3.38824 c 1.147,-3.52911 1.349,-4.24168 2.671,-9.39337 0.441,-1.71746 1.083,-3.8793 1.426,-4.80409 2.4,-6.45857 3.872,-9.92208 4.411,-10.38177 0.344,-0.29335 0.625,-0.75061 0.625,-1.01613 0,-0.67154 1.893,-3.01438 2.435,-3.01438 0.705,0 0.518,1.74396 -0.256,2.3866 -0.386,0.32044 -0.842,1.04951 -1.014,1.62016 -0.172,0.57064 -0.94,2.41009 -1.705,4.08766 -1.555,3.40409 -3.988,10.46696 -4.494,13.04359 -0.182,0.92479 -0.844,3.38958 -1.472,5.47731 -0.628,2.08774 -1.027,3.98101 -0.888,4.20727 0.14,0.22626 -0.08,0.74945 -0.496,1.16263 -0.413,0.41318 -0.751,1.24979 -0.751,1.85913 0,1.64236 -1.072,2.34893 -2.061,1.35874 z m 52.734,-2.01149 c -0.582,-0.9429 0.44,-1.8045 4.445,-3.74754 2.293,-1.11251 6.113,-3.07597 8.49,-4.36324 2.376,-1.28728 6.264,-3.38362 8.641,-4.65856 2.376,-1.27493 5.886,-3.16164 7.8,-4.19269 1.914,-1.03105 3.7,-1.73871 3.968,-1.57257 0.729,0.45051 0.16,1.07385 -1.827,2.00245 -0.979,0.45741 -2.86,1.46667 -4.181,2.2428 -2.563,1.50686 -12.283,6.92722 -20.162,11.24316 -2.64,1.44631 -5.006,2.82171 -5.257,3.05645 -0.59,0.55214 -1.573,0.54688 -1.917,-0.0103 z m -64.536,-5.49745 c -0.51,-0.61478 -0.277,-1.27164 0.45,-1.27164 0.538,0 0.941,1.37875 0.485,1.66076 -0.223,0.13766 -0.643,-0.0374 -0.935,-0.38912 z m -3.066,-3.96086 c -0.363,-0.36342 0.105,-1.63446 0.602,-1.63446 0.205,0 0.486,0.43237 0.624,0.96082 0.238,0.90935 -0.555,1.34499 -1.226,0.67364 z m 104.794,-15.20603 c 0.02,-0.66118 5.316,-4.68399 6.171,-4.68399 1.063,0 0.48,-0.96507 -2.705,-4.47801 -3.406,-3.75743 -9.527,-12.83979 -10.58,-15.69918 -0.688,-1.86724 -0.606,-4.56389 0.139,-4.56389 0.264,0 0.768,1.18112 1.121,2.62471 0.352,1.44359 1.241,3.38925 1.974,4.32368 0.734,0.93444 1.741,2.42981 2.24,3.32304 2.138,3.83345 3.879,6.22616 5.574,7.66212 1.936,1.63908 5.515,6.50056 5.288,7.18187 -0.107,0.32257 -0.558,0.58648 -1.001,0.58648 -0.442,0 -2.254,0.97283 -4.025,2.16184 -3.352,2.25012 -4.22,2.5732 -4.196,1.56133 z m -90.905,-25.18145 c -0.811,-0.81095 -0.135,-1.71592 1.96,-2.62748 1.254,-0.54558 2.496,-1.0411 2.76,-1.10116 0.843,-0.19176 5.215,-1.64377 7.201,-2.39189 2.474,-0.93156 3.601,-0.94556 3.601,-0.0447 0,0.40196 -0.428,0.72062 -0.967,0.72062 -1.033,0 -2.899,0.90151 -3.446,1.66491 -0.183,0.25514 -1.117,0.5141 -2.075,0.57545 -0.958,0.0614 -3.139,0.87948 -4.845,1.81805 -3.229,1.77613 -3.658,1.91809 -4.189,1.38623 z m -1.28,-3.93343 c 0,-0.6908 0.784,-1.12383 3.492,-1.92845 1.921,-0.57069 4.004,-1.13621 4.63,-1.25672 2.108,-0.40625 2.096,0.3575 -0.02,1.32448 -1.155,0.52793 -2.616,1.36299 -3.246,1.8557 -1.577,1.23421 -4.855,1.23758 -4.855,0.005 z m 96.011,-15.44309 c 0,-0.26422 0.216,-0.48041 0.48,-0.48041 0.264,0 0.48,0.21619 0.48,0.48041 0,0.26423 -0.216,0.48041 -0.48,0.48041 -0.264,0 -0.48,-0.21618 -0.48,-0.48041 z m -46.738,-3.69672 c -0.139,-0.47694 -0.399,-3.05102 -0.577,-5.72017 -0.328,-4.90474 0.27,-8.35825 1.446,-8.35825 0.742,0 0.687,14.51102 -0.06,14.75888 -0.307,0.10269 -0.673,-0.20352 -0.813,-0.68046 z m 45.298,-1.34757 c 0,-0.39634 0.324,-0.72062 0.72,-0.72062 0.396,0 0.72,0.32428 0.72,0.72062 0,0.39633 -0.324,0.72061 -0.72,0.72061 -0.396,0 -0.72,-0.32428 -0.72,-0.72061 z m -34.684,-2.7861 c -1.358,-0.53705 -1.785,-1.30247 -0.72,-1.29082 1.397,0.0153 2.76,0.63288 2.76,1.25049 0,0.75893 -0.212,0.76313 -2.04,0.0403 z m 34.204,-1.02883 c 0,-0.41193 0.216,-0.74896 0.48,-0.74896 0.264,0 0.48,0.20342 0.48,0.45205 0,0.24864 -0.216,0.58567 -0.48,0.74897 -0.264,0.1633 -0.48,-0.0401 -0.48,-0.45206 z m -19.946,-1.81473 c -0.668,-3.04391 -0.438,-7.2771 0.47,-8.66446 1.2,-1.83226 1.936,-1.70701 1.423,0.24214 -0.226,0.85873 -0.378,3.45294 -0.338,5.76491 0.06,3.23149 -0.08,4.20359 -0.571,4.20359 -0.354,0 -0.797,-0.69578 -0.984,-1.54618 z m -54.143,0.26508 c -0.176,-0.17615 -0.32,-1.47015 -0.32,-2.87556 0,-1.40541 -0.218,-3.47717 -0.485,-4.60392 -0.266,-1.12675 -0.653,-3.23765 -0.859,-4.69089 l -0.374,-2.64225 -0.708,1.44123 c -0.641,1.30651 -1.766,1.64935 -1.577,0.48041 0.464,-2.85219 1.221,-5.96188 1.657,-6.79858 0.382,-0.73442 0.399,-1.83892 0.06,-3.81521 -0.544,-3.15779 -0.01,-5.59492 1.127,-5.15773 0.378,0.14508 0.669,0.83454 0.648,1.53212 -0.02,0.69759 0.09,2.56545 0.252,4.1508 0.16,1.58535 0.515,5.26049 0.79,8.16696 0.274,2.90648 0.699,6.06284 0.944,7.01414 0.244,0.9513 0.537,3.16719 0.649,4.9242 0.18,2.80539 0.102,3.19456 -0.639,3.19456 -0.464,0 -0.988,-0.14413 -1.164,-0.32028 z m 72.969,-0.96081 c -0.176,-0.17615 -0.32,-0.84272 -0.32,-1.48127 0,-1.57963 1.156,-1.13708 1.352,0.51746 0.144,1.21795 -0.333,1.66342 -1.032,0.96381 z m -0.8,-4.00342 c 0,-1.14541 0.737,-1.27434 1.148,-0.20091 0.412,1.07375 0.38,1.16173 -0.428,1.16173 -0.4,0 -0.72,-0.42703 -0.72,-0.96082 z m -10.222,-0.1201 c -0.252,-0.6884 0.764,-2.55178 3.996,-7.32639 3.201,-4.72882 7.666,-13.73816 7.666,-15.46915 0,-1.05478 -3.424,-8.01481 -4.159,-8.45494 -0.353,-0.2113 -0.642,-0.79304 -0.642,-1.29277 0,-0.49973 -0.229,-1.05045 -0.509,-1.22382 -0.281,-0.17337 -0.722,-0.78064 -0.981,-1.34948 -0.259,-0.56884 -0.773,-1.56264 -1.141,-2.20845 -0.369,-0.64581 -0.563,-1.34841 -0.432,-1.56133 0.592,-0.95709 1.656,-0.21155 2.534,1.77471 0.525,1.18901 1.046,2.16184 1.158,2.16184 0.111,0 0.675,-1.35115 1.252,-3.00256 0.578,-1.6514 1.471,-3.83368 1.985,-4.84949 0.514,-1.01581 0.935,-1.91555 0.935,-1.99942 0,-0.0839 -1.004,-0.11748 -2.23,-0.0747 -3.114,0.10863 -3.205,-0.87506 -0.15,-1.6086 1.985,-0.47648 2.691,-0.47104 3.623,0.0279 1.095,0.58661 1.645,2.37908 0.73,2.37908 -0.683,0 -4.854,9.37983 -4.854,10.91504 0,0.35434 0.832,2.11351 1.849,3.90925 1.017,1.79575 2.228,4.25919 2.692,5.47432 0.843,2.20861 0.843,2.20982 -0.353,3.8063 -0.659,0.87835 -1.8,2.8941 -2.536,4.47945 -0.737,1.58535 -1.698,3.42292 -2.137,4.08348 -4.653,7.00554 -6.253,9.56831 -6.675,10.68911 -0.525,1.39743 -1.254,1.72128 -1.621,0.72061 z m 8.857,-5.10003 c -0.305,-1.0215 -0.556,-2.21052 -0.556,-2.64225 0,-1.31623 0.823,-0.87439 1.117,0.6002 0.153,0.76185 0.419,1.95086 0.592,2.64225 0.502,1.9984 -0.536,1.45807 -1.153,-0.6002 z m -15.901,-3.87606 c -0.648,-1.21191 -0.642,-7.98894 0,-9.2044 0.978,-1.82923 1.416,-0.32119 1.416,4.87748 0,5.14834 -0.375,6.28758 -1.424,4.32692 z m 10.068,-9.71984 c 0,-0.88075 0.278,-2.14182 0.615,-2.80239 0.543,-1.06328 0.929,-2.24979 2.176,-6.68647 0.179,-0.63897 0.625,-1.26106 0.99,-1.38241 0.929,-0.30897 0.381,3.06107 -1.324,8.14085 -1.428,4.25193 -2.462,5.40118 -2.457,2.73042 z m -36.188,-4.50281 c -0.165,-0.42911 -0.321,-2.22177 -0.347,-3.98368 -0.07,-4.9392 -0.385,-5.63555 -2.437,-5.45504 -1.202,0.10577 -1.795,-0.0705 -1.995,-0.59318 -0.478,-1.24483 1.293,-1.77723 4.737,-1.42415 2.182,0.22368 3.499,0.13563 4.287,-0.28658 1.55,-0.83013 6.737,-0.0969 6.737,0.95241 0,0.56645 -0.719,0.73288 -3.361,0.77796 -1.848,0.0315 -3.684,0.17655 -4.08,0.32224 -0.396,0.1457 -1.038,0.35215 -1.427,0.45878 -0.561,0.1537 -0.71,1.17316 -0.72,4.91889 0,3.06477 -0.203,4.78958 -0.554,4.90878 -0.298,0.10108 -0.676,-0.16731 -0.84,-0.59643 z m -21.182,-0.0955 c -1.986,-0.29061 -2.811,-1.02275 -2.108,-1.87089 1.14,-1.37379 5.228,-0.39396 5.228,1.25288 0,0.99727 -0.224,1.04174 -3.12,0.61801 z m -9.694,-0.96438 c -2.573,-0.75018 -3.233,-1.41371 -2.535,-2.5453 0.338,-0.54604 0.835,-0.5189 2.999,0.16367 1.426,0.45004 3.067,0.81825 3.646,0.81825 1.253,0 1.926,1.35879 0.973,1.96277 -0.893,0.56628 -2.094,0.47191 -5.083,-0.39939 z m 82.903,-0.60256 c 0,-0.26423 0.228,-0.48041 0.508,-0.48041 0.28,0 0.375,0.21618 0.212,0.48041 -0.163,0.26422 -0.392,0.48041 -0.509,0.48041 -0.116,0 -0.211,-0.21619 -0.211,-0.48041 z m -76.919,-2.77845 c -2.503,-1.17135 -2.847,-1.52476 -3.84,-3.93818 -1.383,-3.36011 -1.496,-9.71297 -0.23,-12.87409 1.256,-3.13424 3.234,-5.87098 4.243,-5.87098 0.493,0 0.897,-0.21618 0.897,-0.48041 0,-0.26422 0.347,-0.48041 0.771,-0.48041 0.489,0 0.67,0.2643 0.495,0.72062 -0.48,1.2528 0.546,0.78015 1.638,-0.75421 1.653,-2.32348 5.78,-5.39923 6.406,-4.77364 0.378,0.37842 -0.115,1.13586 -1.773,2.72605 -1.263,1.21112 -2.183,2.31563 -2.044,2.45448 0.139,0.13884 1.327,-0.75309 2.64,-1.98207 1.312,-1.22897 2.839,-2.2345 3.391,-2.2345 1.355,0 0.861,0.77588 -2.302,3.61133 -3.025,2.71163 -2.918,3.44101 0.178,1.21609 1.587,-1.14055 2.343,-1.43399 2.722,-1.0557 0.378,0.37829 0.04,0.97913 -1.212,2.16157 l -1.735,1.63764 1.353,1.85934 c 0.744,1.02264 1.725,3.15393 2.18,4.73619 1.594,5.54973 0.02,9.80171 -4.805,13.00942 -3.066,2.03657 -5.133,2.10833 -8.973,0.31146 z m 8.834,-3.05269 c 2.738,-2.16988 3.442,-3.83686 3.152,-7.45873 -0.351,-4.36977 -1.95,-7.33264 -4.676,-8.6605 -4.319,-2.10463 -6.574,-1.42502 -9.069,2.73399 -1.239,2.06515 -1.368,6.79237 -0.286,10.43975 0.607,2.04521 1.061,2.64237 2.761,3.63549 3.513,2.05219 4.796,1.94312 8.118,-0.69 z m -5.724,-2.69391 c -0.858,-0.42738 -1.56,-1.06889 -1.56,-1.42558 0,-1.0581 1.273,-1.2304 2.61,-0.35333 0.853,0.55884 1.779,0.73239 2.92,0.54712 1.398,-0.22702 1.67,-0.12772 1.67,0.60787 0,1.61864 -2.981,1.94841 -5.64,0.62392 z m 3.72,-4.43599 c -0.63,-0.39869 -0.615,-0.56041 0.117,-1.29318 0.972,-0.9731 2.13,-0.26066 1.642,1.01067 -0.33,0.86226 -0.739,0.92787 -1.759,0.28251 z m -5.028,-1.2668 c -0.929,-0.92981 -0.736,-1.80328 0.45,-2.03325 0.949,-0.18418 1.679,0.66566 1.691,1.96891 0,1.05397 -1.118,1.08784 -2.141,0.0643 z m 26.838,1.75461 c -0.546,-0.22114 -2.028,-1.55467 -3.293,-2.96339 l -2.302,-2.56132 0.208,-4.09218 c 0.237,-4.67639 1.042,-6.61931 4.249,-10.26032 2.103,-2.38728 6.739,-6.08231 7.631,-6.08231 0.564,0 0.702,1.4336 0.141,1.45486 -0.486,0.0184 -4.441,3.56283 -4.441,3.97963 0,0.88625 2.716,0.16085 4.403,-1.1758 2.228,-1.76626 3.418,-1.33395 1.843,0.66973 -1.506,1.9158 -0.345,1.99168 1.651,0.10792 0.975,-0.92041 1.973,-1.67348 2.219,-1.67348 0.936,0 0.385,1.50948 -1.013,2.76913 l -1.457,1.31435 1.471,1.7758 c 4.928,5.94586 3.343,13.15191 -3.586,16.30149 -2.008,0.91294 -5.991,1.13773 -7.724,0.43589 z m 7.103,-2.5284 c 2.489,-1.39316 4.63,-3.86876 4.941,-5.71292 0.475,-2.81161 -0.09,-4.38316 -2.554,-7.13808 -2.047,-2.28699 -2.468,-2.53461 -4.546,-2.67339 -2.348,-0.15677 -3.333,0.18366 -5.939,2.05214 -1.582,1.13446 -2.573,3.83623 -2.573,7.01573 0,1.9197 2.546,5.97071 4.364,6.9455 1.317,0.70615 4.631,0.44921 6.307,-0.48898 z m -5.786,-2.32127 c -1.397,-0.56079 -1.246,-2.24101 0.173,-1.92145 1.35,0.30386 3.106,0.23283 4.904,-0.19836 2.073,-0.49728 2.122,0.62326 0.08,1.78766 -1.608,0.91572 -3.411,1.03188 -5.155,0.33215 z m -0.86,-5.46848 c -0.423,-1.10252 0,-2.43011 0.783,-2.43011 0.454,0 0.768,0.56767 0.864,1.56133 0.112,1.17173 -0.04,1.56133 -0.616,1.56133 -0.421,0 -0.885,-0.31165 -1.031,-0.69255 z m 5.818,-0.74438 c -0.359,-1.13235 0.04,-1.92594 0.959,-1.92594 0.365,0 0.798,0.21812 0.962,0.48471 0.452,0.73155 -0.217,2.39775 -0.962,2.39775 -0.361,0 -0.792,-0.43044 -0.959,-0.95652 z m 21.361,3.35856 c -0.372,-0.69546 -1.006,-0.96131 -2.297,-0.96261 -3.529,-0.004 -6.224,-2.69774 -7.335,-7.33497 -0.453,-1.88682 -0.44,-2.76509 0.06,-4.286 0.722,-2.19019 4.657,-6.63279 5.874,-6.63279 0.449,0 0.816,-0.31327 0.816,-0.69617 0,-0.38289 0.81,-1.30167 1.8,-2.04174 0.99,-0.74006 2.338,-1.83198 2.996,-2.42649 1.159,-1.04882 2.405,-1.43246 2.405,-0.74087 0,0.18703 -0.8,1.15986 -1.778,2.16184 -1.763,1.80721 -1.768,1.82179 -0.554,1.82179 0.672,0 1.587,-0.40242 2.031,-0.89428 0.979,-1.08203 4.511,-2.73922 4.935,-2.31516 0.367,0.36762 -0.723,1.76821 -1.377,1.76821 -0.256,0 -0.987,0.41078 -1.625,0.91283 l -1.16,0.91283 2.535,1.4318 c 3.104,1.75269 5.009,5.12934 4.482,7.94118 -0.672,3.58585 -5.091,9.89212 -6.987,9.96983 -0.43,0.0176 -0.264,0.222 0.393,0.48521 1.863,0.74683 0.427,1.88638 -2.377,1.88638 -1.834,0 -2.434,-0.20307 -2.839,-0.96082 z m 2.964,-2.89753 c 2.325,-0.64626 6.479,-5.13585 6.918,-7.47686 0.713,-3.80771 -0.436,-6.24352 -3.742,-7.93228 -2.073,-1.05859 -3.08,-1.14939 -3.429,-0.30919 -0.182,0.43698 -0.436,0.37157 -0.933,-0.2402 -1.047,-1.28803 -2.282,-1.02085 -5.151,1.11455 -4.749,3.53376 -5.888,8.07381 -3.003,11.9605 0.693,0.93365 1.315,1.77153 1.382,1.86196 0.295,0.39723 3.904,1.47653 4.994,1.49324 0.66,0.0101 1.994,-0.20215 2.964,-0.47172 z m -0.69,-1.71332 c -0.158,-0.15795 -0.171,-0.59032 -0.03,-0.96082 0.194,-0.50709 -0.206,-0.67365 -1.617,-0.67365 -1.898,0 -3.028,-0.65509 -3.028,-1.75488 0,-0.43729 0.635,-0.52657 2.324,-0.32647 1.351,0.16013 2.745,0.0496 3.331,-0.26414 1.35,-0.72298 1.824,0.10455 0.853,1.49073 -0.411,0.5877 -0.747,1.45282 -0.747,1.92248 0,0.84484 -0.532,1.12221 -1.087,0.56675 z m 3.007,-6.41021 c 0,-1.57657 0.77,-2.33256 1.565,-1.53683 0.375,0.37519 0.366,0.86237 -0.03,1.73565 -0.745,1.6369 -1.533,1.5347 -1.533,-0.19882 z m -9.346,-0.004 c -0.318,-0.5146 1.209,-1.46533 2.353,-1.46533 0.897,0 0.969,0.55135 0.176,1.34515 -0.689,0.6894 -2.135,0.75814 -2.529,0.12018 z m -62.451,10.4998 c -0.148,-0.23942 -0.06,-0.4353 0.201,-0.4353 0.258,0 0.81,-0.13123 1.228,-0.29161 0.418,-0.16038 0.759,-0.0775 0.759,0.18418 0,0.63636 -1.847,1.09457 -2.188,0.54273 z m 80.58,-7.20606 c -0.992,-1.00055 0.14,-2.35702 1.967,-2.35702 2.056,0 14.579,-5.35854 18.147,-7.76449 1.504,-1.01403 2.854,-1.8437 3,-1.8437 0.617,0 0.2,1.62831 -0.573,2.24479 -0.941,0.74933 -12.326,6.40258 -12.895,6.40258 -0.679,0 -4.745,2.10328 -5.228,2.70443 -0.714,0.88968 -3.729,1.30828 -4.418,0.61341 z m 3.325,-8.20076 c 0.251,-0.75462 17.173,-8.09843 18.338,-7.95861 1.648,0.19778 1.286,1.06267 -0.706,1.68484 -1.07,0.33421 -5.207,2.00837 -9.194,3.72033 -7.293,3.13227 -8.781,3.58252 -8.438,2.55344 z m -7.794,-6.15549 c 0.607,-1.13334 2.246,-2.10051 2.597,-1.53182 0.42,0.6788 -1.146,2.48163 -2.155,2.48163 -0.797,0 -0.868,-0.15243 -0.442,-0.94981 z"
         id="path2" /></g></g></svg>
