<?xml version="1.0" encoding="UTF-8" standalone="no"?>
<!-- Created with Inkscape (http://www.inkscape.org/) -->

<svg
   width="61.221001mm"
   height="62.240601mm"
   viewBox="0 0 61.221 62.240601"
   version="1.1"
   id="svg1"
   xml:space="preserve"
   xmlns="http://www.w3.org/2000/svg"
   xmlns:svg="http://www.w3.org/2000/svg"><defs
     id="defs1" /><g
     id="layer1"
     transform="translate(1472.671,3650.7208)"><g
       id="g943"
       transform="matrix(0.26458333,0,0,0.26458333,-3852.9032,-3789.8158)"><path
         style="fill:#000000"
         d="m 9113.0718,731.10727 c -0.8724,-1.05014 -0.4314,-2.8872 0.733,-3.05353 1.2901,-0.18429 2.4584,2.05572 1.6067,3.08088 -0.7142,0.85971 -1.6115,0.84923 -2.3397,-0.0274 z m 6.7672,-3.27192 c -0.7608,-2.01036 -1.4353,-4.43795 -1.77,-6.37071 -0.1832,-1.05777 -0.5592,-2.35596 -0.8357,-2.88485 -0.5409,-1.03509 -1.993,-8.07256 -2.7529,-13.34242 -1.1881,-8.239 -1.3699,-10.41908 -1.1028,-13.22222 0.3746,-3.92985 -0.5673,-4.04179 -1.0114,-0.1202 l -0.3267,2.88484 h -2.0571 c -2.0335,0 -9.0418,-1.84484 -11.3709,-2.99326 -2.1505,-1.06032 -4.5276,-2.96667 -6.7379,-5.40346 -1.1912,-1.31323 -3.4786,-3.80166 -5.0831,-5.52983 -5.9877,-6.44917 -7.7303,-9.4835 -9.294,-16.18347 -1.2249,-5.24837 -1.2575,-6.1293 -0.2631,-7.12268 1.0769,-1.07583 1.7805,-0.42477 1.4562,1.34736 -0.3156,1.72439 0.3349,3.31573 0.8293,2.02869 0.3232,-0.84157 1.7665,-1.05502 1.7665,-0.26125 0,0.27515 -0.4623,1.12499 -1.0273,1.88852 -1.1472,1.55006 -0.939,3.45105 0.2683,2.45009 1.032,-0.8557 1.3943,0.19661 0.7144,2.07506 -0.3488,0.96368 -0.4241,1.9847 -0.1861,2.52144 0.3589,0.8092 0.4209,0.77833 0.6022,-0.30003 0.25,-1.48731 1.0953,-2.57344 1.6059,-2.06339 0.3673,0.36698 -0.048,2.83849 -0.7702,4.58763 -0.5054,1.22332 0.4018,1.03425 0.9648,-0.20108 0.3767,-0.82664 1.5279,-1.79617 2.5197,-2.12203 0.066,-0.0216 -0.4215,-1.36957 -1.0829,-2.9955 -0.6613,-1.62592 -1.2024,-3.48866 -1.2024,-4.13942 0,-1.28675 0.8707,-2.1746 1.128,-1.15022 1.602,6.3778 5.8115,14.06389 9.9574,18.18098 2.1866,2.17143 3.65,3.06953 8.1817,5.02101 4.5361,1.95339 6.0758,2.39175 8.6471,2.46178 1.7206,0.0469 3.2394,0.11331 3.3753,0.14767 0.1358,0.0344 0.2444,3.25383 0.2413,7.15438 0,4.88302 0.2447,8.2151 0.7981,10.69798 0.442,1.98334 0.9286,4.5797 1.0812,5.7697 0.3295,2.56887 1.4058,7.3032 2.9835,13.12349 0.6304,2.32569 1.1462,4.43524 1.1462,4.68787 0,0.88854 -0.9879,0.44697 -1.3926,-0.62247 z m -9.0306,-37.26263 c 0.1623,-0.86788 0.09,-1.56262 -0.1632,-1.56262 -0.5229,0 -1.4174,2.9222 -1.08,3.52775 0.355,0.63707 0.925,-0.26393 1.2432,-1.96513 z m -4.4965,1.08182 c 0,-1.00825 0.06,-1.29688 0.5206,-2.50722 0.2311,-0.60729 0.2175,-1.18069 -0.032,-1.33453 -0.2402,-0.14835 -0.6639,0.54717 -0.9414,1.54561 -0.633,2.27713 -0.6401,3.01735 -0.029,3.01735 0.2647,0 0.4812,-0.32454 0.4812,-0.72121 z m -2.2843,-0.84141 c 0.1237,-0.33056 0.2011,-1.35828 0.1718,-2.28384 -0.05,-1.58593 -0.2418,-1.77518 -3.3289,-3.28653 -1.8016,-0.88204 -3.5764,-1.48841 -3.944,-1.34749 -0.3676,0.14091 -0.8197,1.06254 -1.0048,2.04807 -0.2839,1.5119 -0.1669,1.92901 0.7487,2.66971 1.5105,1.22193 1.7889,1.11768 2.15,-0.80497 0.1891,-1.00733 0.597,-1.68283 1.0161,-1.68283 0.385,0 0.7001,0.23982 0.7001,0.53293 0,0.32837 0.4618,0.41713 1.2032,0.23124 0.9733,-0.24403 1.2032,-0.12369 1.2032,0.62977 0,1.44165 -0.5172,2.45252 -1.2547,2.45252 -0.7076,0 -0.8892,0.5828 -0.3496,1.12189 0.5499,0.54934 2.4525,0.35089 2.6889,-0.28047 z m -9.1003,-6.48536 c 0.2019,-1.24308 0.079,-2.01025 -0.3985,-2.48731 -0.5999,-0.59924 -0.7564,-0.51693 -1.1916,0.62676 -0.6486,1.7042 -0.632,2.37331 0.076,3.08106 0.9214,0.92056 1.2026,0.69382 1.5136,-1.22051 z m -3.0537,-3.40075 c 0,-1.64878 -0.2766,-2.6099 -0.9626,-3.34555 -0.5294,-0.5677 -0.9625,-1.23109 -0.9625,-1.47421 0,-0.24313 -0.3104,-0.69938 -0.6898,-1.0139 -0.5558,-0.46089 -0.8468,-0.33236 -1.4991,0.66234 -0.9594,1.46279 -1.6614,1.59457 -1.6614,0.3119 0,-1.43304 0.5188,-2.44336 1.2547,-2.44336 0.892,0 0.8415,-0.45245 -0.2322,-2.07924 l -0.8962,-1.35803 -1.0257,1.30267 c -1.5183,1.92837 -1.3151,3.58893 0.675,5.51599 1.6575,1.60494 1.7079,1.61955 1.9813,0.57513 0.1543,-0.58942 0.5934,-1.07167 0.9758,-1.07167 0.5511,0 0.628,0.44784 0.371,2.15992 -0.2797,1.86394 -0.1684,2.32402 0.8128,3.35735 0.6253,0.65859 1.2994,1.20117 1.4979,1.20573 0.1985,0.005 0.361,-1.03271 0.361,-2.30507 z m 18.0655,36.95094 c -1.0859,-1.19875 -0.6547,-3.19451 0.7891,-3.65232 2.0186,-0.64005 3.2831,3.08504 1.3907,4.09683 -1.2117,0.64785 -1.1854,0.6532 -2.1798,-0.44451 z m -1.977,-16.57256 c -0.4624,-1.84051 0.1733,-3.15995 1.5225,-3.15995 1.4593,0 2.3946,1.95728 1.6233,3.39714 -0.7383,1.37811 -2.7786,1.22427 -3.1458,-0.23719 z m 8.241,-6.00445 c -0.1499,-0.24225 -0.051,-1.02375 0.2208,-1.73666 0.3675,-0.96568 0.7366,-1.23266 1.4473,-1.04698 0.7932,0.20722 0.954,0.008 0.954,-1.18059 0,-1.19007 -0.1546,-1.38079 -0.9221,-1.13744 -0.5071,0.16079 -1.0493,0.0867 -1.2047,-0.16462 -0.5285,-0.85425 0.2305,-1.80342 1.9343,-2.41891 0.9345,-0.3376 1.8165,-0.91926 1.9599,-1.29257 0.1434,-0.37331 0.6415,-0.67874 1.1069,-0.67874 1.2861,0 8.586,-5.18994 11.4967,-8.17374 1.4188,-1.45444 3.1135,-3.47733 3.7661,-4.49531 1.2247,-1.91036 4.483,-9.28426 4.483,-10.14544 0,-0.26737 0.4691,-1.61685 1.0425,-2.99885 1.2206,-2.94218 2.3264,-3.71057 2.3264,-1.61659 0,1.36454 1.3746,4.34214 2.0072,4.3481 0.1775,0.002 0.4628,-0.63401 0.634,-1.41263 0.2574,-1.17073 -0.012,-1.82371 -1.5547,-3.77396 l -1.866,-2.35829 -3.0028,3.06047 c -1.6516,1.68326 -2.868,3.27849 -2.7031,3.54494 0.5265,0.85118 -1.6947,6.57179 -3.4368,8.85112 -2.4522,3.20844 -9.347,6.30581 -17.0669,7.66697 -8.8713,1.56419 -19.1156,-1.18825 -24.7899,-6.66051 -1.8711,-1.8045 -2.5355,-3.2353 -3.8285,-8.2446 -0.076,-0.29236 -1.4013,-1.24116 -2.9464,-2.10846 -1.545,-0.8673 -3.492,-2.17172 -4.3266,-2.89871 -0.8347,-0.72699 -1.7088,-1.40091 -1.9425,-1.4976 -1.7738,-0.73374 -5.8422,-9.99723 -6.2538,-14.23943 l -0.2916,-3.00505 h -1.5904 c -2.5602,0 -4.127,-2.46921 -4.52,-7.12337 -0.1717,-2.03215 -0.1367,-4.49432 0.078,-5.47149 0.4525,-2.06313 0.1658,-5.75242 -0.551,-7.09038 -0.6361,-1.18741 -0.6352,-3.19736 0,-4.38678 0.3611,-0.67402 1.0119,-0.93 2.3645,-0.93 h 1.8664 l -0.022,-6.85152 c -0.012,-3.76833 -0.035,-8.47424 -0.05,-10.45758 -0.062,-7.92032 0.06,-9.59741 0.8928,-12.31598 1.1955,-3.90101 3.0091,-7.42457 4.5048,-8.75238 4.8724,-4.32547 7.131,-5.79209 15.7433,-10.22255 2.9792,-1.53264 6.599,-3.00121 8.1817,-3.31937 1.5612,-0.31384 3.0551,-0.82528 3.3198,-1.13653 1.3792,-1.62171 6.2728,-2.36589 7.5458,-1.14747 0.3497,0.33481 2.9743,0.99781 5.8322,1.47335 5.195,0.86439 16.8557,4.42549 18.5715,5.67161 0.5001,0.36324 2.883,2.03635 5.2952,3.71803 2.4122,1.68168 4.3859,3.24476 4.3859,3.47351 0,0.22876 0.6668,0.76039 1.4817,1.18141 0.8386,0.43323 1.7815,1.48206 2.1723,2.41639 0.3797,0.90799 0.8775,1.65089 1.1061,1.65089 0.2287,0 0.3091,0.94539 0.1787,2.10087 -0.2138,1.89513 -0.067,2.2893 1.5029,4.02494 0.957,1.05824 1.74,2.38467 1.74,2.94762 0,1.30682 -0.7711,1.31773 -1.4659,0.0207 -0.2954,-0.55154 -0.6821,-0.85747 -0.8591,-0.67984 -0.3276,0.32861 -0.6021,9.66284 -0.4384,14.90486 0.05,1.58666 0.092,4.448 0.095,6.35853 v 3.4737 l 1.7675,-0.28236 c 1.4147,-0.22599 1.8616,-0.10361 2.2392,0.61318 0.9354,1.77548 1.1003,5.6358 0.3566,8.34806 -0.3988,1.45444 -0.7298,3.94262 -0.7355,5.52929 -0.011,3.16503 -1.4776,6.98797 -3.3017,8.60886 -0.7115,0.63219 -1.0308,1.48132 -1.0308,2.74098 0,4.14837 -3.1009,13.90665 -4.7039,14.80286 -0.6114,0.34182 -0.4562,0.66964 0.8997,1.90093 0.9011,0.81833 1.8085,1.49422 2.0163,1.50197 0.4628,0.0173 -0.4384,-1.74117 -1.1024,-2.15114 -0.2633,-0.16255 -0.4787,-0.73866 -0.4787,-1.28024 0,-0.71183 0.217,-0.90151 0.7829,-0.68454 0.4307,0.16508 1.0611,0.0695 1.401,-0.21231 0.9816,-0.81379 1.3986,0.38448 1.3115,3.768 -0.084,3.24445 -2.5035,10.98766 -4.988,15.96018 -1.549,3.10018 -6.585,10.01341 -9.3361,12.81644 -2.2956,2.33886 -9.9571,6.90077 -15.3455,9.13719 -4.4465,1.8455 -4.013,1.72967 -4.362,1.16551 z m 5.991,-5.14027 c 0,-1.38389 -0.1538,-1.67531 -0.7613,-1.44243 -0.4187,0.16052 -0.8518,0.29185 -0.9625,0.29185 -0.1107,0 -0.2013,0.64909 -0.2013,1.44242 0,1.12189 0.2139,1.44243 0.9626,1.44243 0.7846,0 0.9625,-0.32054 0.9625,-1.73427 z m 3.2763,-2.02937 c 0.1507,-2.04213 -0.2194,-2.46358 -1.2549,-1.42909 -0.6233,0.62267 -0.7866,2.90036 -0.2467,3.43978 0.7319,0.73118 1.3615,-0.11191 1.5016,-2.01069 z m 2.8783,-0.20303 c 0.6036,-0.72961 1.3027,-4.20707 0.8459,-4.20707 -1.3278,0 -2.1877,1.14062 -2.1877,2.90176 0,1.94299 0.4513,2.38196 1.3418,1.30531 z m 5.6672,-5.44447 c 0.1794,-1.19497 0.2042,-2.29447 0.055,-2.44332 -0.149,-0.14886 -0.9331,0.20041 -1.7424,0.77616 -1.3053,0.92854 -1.4716,1.31841 -1.4716,3.45085 v 2.40404 l 1.4164,-1.00753 c 1.0748,-0.76461 1.4949,-1.53135 1.7424,-3.1802 z m 3.0979,-3.7364 c 0,-2.43466 -0.01,-2.4453 -0.9384,-1.50375 -0.7486,0.75639 -0.8817,1.36286 -0.6578,2.99739 0.4033,2.94543 1.5962,1.82923 1.5962,-1.49364 z m 2.185,-0.34629 c 0.4318,-0.69795 -0.1916,-3.81526 -0.763,-3.81526 -0.2527,0 -0.4595,0.97363 -0.4595,2.16363 0,2.05413 0.5303,2.77056 1.2225,1.65163 z m -17.6087,-3.16593 c 5.9932,-1.55143 9.6806,-3.55441 12.0756,-6.55937 1.852,-2.32376 3.3282,-5.8095 2.7183,-6.4188 -0.1665,-0.16634 -0.8256,0.0398 -1.4645,0.45804 -0.639,0.41827 -2.9739,1.50457 -5.1888,2.41402 -2.2148,0.90945 -6.0338,2.54381 -8.4866,3.63193 -4.2978,1.90664 -4.6381,1.97762 -9.3849,1.95728 -2.9113,-0.0125 -5.6141,-0.28495 -6.6098,-0.66635 -2.4853,-0.95201 -6.774,-2.72757 -12.1845,-5.04451 l -2.3164,-0.99195 0.322,1.07812 c 0.1771,0.59296 0.6243,1.55732 0.9938,2.14302 0.3695,0.58569 0.6718,1.39706 0.6718,1.80303 0,0.40597 0.2871,0.73812 0.6381,0.73812 0.3509,0 1.163,0.57214 1.8048,1.27141 1.53,1.66723 7.1558,4.22247 10.7923,4.90184 1.5882,0.29671 3.3208,0.63643 3.8502,0.75492 1.7658,0.39521 7.1687,-0.28001 11.7686,-1.47075 z m 20.1224,-0.83176 c 0.3834,-0.84056 0.3657,-1.59771 -0.067,-2.85425 -0.5443,-1.58167 -0.632,-1.64072 -1.1665,-0.78571 -0.6249,0.99965 -0.7532,2.80649 -0.2857,4.02347 0.4118,1.0722 0.9127,0.94574 1.5189,-0.38351 z m 2.5844,-5.13012 c 0.534,-1.78066 0.4946,-2.03608 -0.462,-2.99169 l -1.0458,-1.04481 v 2.99169 c 0,3.42784 0.6567,3.88287 1.5078,1.04481 z m -25.9659,-1.25709 c 0.4815,-0.43534 0.8755,-0.66085 0.8755,-0.50114 0,0.34716 2.2191,-0.5559 7.5703,-3.08068 2.1784,-1.02781 4.1513,-1.86875 4.3842,-1.86875 0.2329,0 1.7894,-0.70318 3.4587,-1.56262 4.2801,-2.20349 9.4567,-8.21406 11.4451,-13.28885 1.5746,-4.01884 2.5983,-9.45103 2.2752,-12.07378 -0.2869,-2.32873 -0.3126,-11.78425 -0.034,-12.57506 0.1253,-0.35594 0.3288,-1.94534 0.4524,-3.53201 0.2017,-2.59112 0.1543,-2.78982 -0.4658,-1.95154 -0.3797,0.51332 -0.6904,1.43287 -0.6904,2.04344 0,0.70723 -0.2858,1.11012 -0.7873,1.11012 -0.6532,0 -0.7381,-0.35916 -0.4983,-2.1074 0.2465,-1.79642 0.1674,-2.09795 -0.5361,-2.04343 -0.8624,0.0668 -0.9739,-0.89137 -0.3387,-2.90851 0.2829,-0.89815 0.1814,-1.01031 -0.7046,-0.77884 -0.9155,0.23918 -0.9983,0.12435 -0.7173,-0.99419 0.1999,-0.79588 0.12,-1.2646 -0.2158,-1.2646 -0.806,0 -0.6505,-1.3428 0.6138,-5.30223 0.631,-1.97599 1.2802,-5.29616 1.4427,-7.37815 0.2925,-3.74747 0.2774,-3.81497 -1.5082,-6.73131 l -1.8036,-2.94589 -0.1543,1.6084 c -0.1922,2.0052 0.2734,3.45286 0.8242,2.56244 0.294,-0.47516 0.5203,-0.43854 1.022,0.16539 0.6342,0.76346 0.7911,6.5417 0.2034,7.49171 -0.5139,0.83071 -1.1734,0.42361 -1.1734,-0.72434 0,-0.92029 -0.197,-1.10555 -0.9626,-0.90554 -0.7386,0.19298 -0.9625,0.0148 -0.9625,-0.76622 0,-0.55973 -0.1835,-1.01769 -0.4078,-1.01769 -0.2242,0 -0.6427,-0.48682 -0.93,-1.08182 -0.5128,-1.06236 -0.5228,-1.05804 -0.5548,0.2404 -0.034,1.36892 -0.7038,1.77289 -1.1964,0.72121 -0.1548,-0.33055 -0.1587,0.23308 -0.01,1.25251 0.2039,1.38573 0.1163,1.80144 -0.3469,1.64718 -0.3408,-0.11348 -0.7339,-0.66306 -0.8736,-1.22129 -0.1396,-0.55822 -0.7088,-1.5343 -1.2647,-2.16906 -1.3449,-1.53555 -1.5737,-2.64321 -1.6613,-8.04368 -0.081,-4.98146 -0.2797,-6.2505 -0.9793,-6.2505 -0.2821,0 -0.3612,3.14189 -0.2056,8.17373 0.139,4.49556 0.067,8.17374 -0.1599,8.17374 -0.227,0 -0.6585,-2.32591 -0.9589,-5.16869 -0.3005,-2.84277 -0.8566,-6.03414 -1.2358,-7.09192 l -0.6895,-1.92323 0.082,4.03805 c 0.055,2.70117 -0.1036,4.10262 -0.4778,4.23308 -0.371,0.12938 -0.6421,-0.82528 -0.8051,-2.83603 -0.1351,-1.66708 -0.5544,-4.5456 -0.9317,-6.39671 -0.4304,-2.11171 -0.5256,-3.68285 -0.2555,-4.21701 0.5833,-1.15363 0.1878,-1.64245 -1.5333,-1.89479 -1.4855,-0.21782 -1.7917,0.0408 -1.0026,0.84695 0.2458,0.25122 0.689,2.23918 0.9847,4.4177 0.2957,2.17851 0.8259,4.66669 1.1782,5.52929 0.3522,0.8626 0.7922,2.61972 0.9777,3.90471 0.265,1.8353 0.2003,2.29136 -0.3017,2.12656 -0.3514,-0.11539 -0.7108,-0.82244 -0.7986,-1.57122 -0.2052,-1.74935 -2.3748,-3.91293 -4.4643,-4.45179 -1.3625,-0.35137 -1.6819,-0.69478 -1.9303,-2.07492 -0.2476,-1.37609 -0.3082,-1.44168 -0.3609,-0.39052 -0.076,1.51825 -1.3511,2.82771 -1.7478,1.79505 -0.1386,-0.36078 -0.3353,-2.71105 -0.4372,-5.22284 -0.2639,-6.50578 -0.1896,-6.05647 -0.8864,-5.35933 -0.7113,0.71162 -0.6391,7.93236 0.099,9.87095 0.389,1.02224 0.3108,1.32777 -0.4432,1.73093 -1.5077,0.80608 -1.94,0.57088 -1.9721,-1.07306 -0.028,-1.44877 -0.063,-1.48155 -0.4772,-0.44992 -0.6673,1.66241 -1.5283,0.76088 -1.2245,-1.28225 0.4976,-3.34675 0.5243,-8.88724 0.044,-9.04765 -0.2762,-0.0922 -0.5106,1.10659 -0.5565,2.84615 -0.1369,5.18899 -0.6702,14.01663 -0.9163,15.16546 -0.5538,2.58639 -1.1743,0.12882 -1.226,-4.85612 -0.031,-2.9594 -0.1549,-5.00208 -0.2759,-4.5393 -0.1211,0.46277 -0.5291,0.84141 -0.9067,0.84141 -0.4803,0 -0.6867,0.57816 -0.6867,1.92323 0,1.05778 -0.2166,1.92323 -0.4813,1.92323 -0.2647,0 -0.4812,-0.5409 -0.4812,-1.20202 0,-0.74792 -0.2728,-1.20202 -0.722,-1.20202 -0.397,0 -0.7219,-0.21636 -0.7219,-0.4808 0,-0.26445 -0.3248,-0.48081 -0.7219,-0.48081 -0.397,0 -0.7219,-0.22398 -0.7219,-0.49773 0,-0.34309 -0.2892,-0.34309 -0.9309,0 -1.2853,0.68719 -1.3288,0.66629 -1.7016,-0.8177 -0.2909,-1.15778 -0.3872,-1.21418 -0.8037,-0.47062 -0.2603,0.46463 -0.5309,1.32703 -0.6013,1.91643 -0.07,0.5894 -0.2514,1.39618 -0.4023,1.79285 -0.1508,0.39667 -0.756,2.07349 -1.3449,3.72626 -0.5888,1.65278 -1.2607,3.00505 -1.4932,3.00505 -0.6001,0 -0.5306,-0.61278 0.3662,-3.22865 0.9742,-2.84165 1.2901,-10.61472 0.3924,-9.65708 -0.7499,0.79997 -2.625,5.89604 -2.625,7.13407 0,0.51897 -0.2015,0.94358 -0.4478,0.94358 -0.7444,0 -0.8164,-2.03397 -0.153,-4.3251 0.3442,-1.1888 0.5552,-2.48699 0.4688,-2.88485 -0.2262,-1.04186 -1.6715,1.85025 -2.457,4.91657 -0.633,2.47101 -1.5922,3.13105 -1.4113,0.97116 0.1571,-1.87539 -0.5535,-1.18786 -2.1818,2.11084 -1.0724,2.17268 -1.7329,3.0358 -2.0674,2.70165 -0.3345,-0.33414 -0.1526,-1.16212 0.5692,-2.59165 0.5834,-1.15535 0.8916,-1.94024 0.6849,-1.7442 -0.2067,0.19604 -0.6665,0.11545 -1.0217,-0.17908 -0.4952,-0.41056 -0.6459,-0.3535 -0.6459,0.24458 0,0.91402 -1.2649,1.05762 -1.5774,0.17907 -0.1176,-0.33055 -0.7269,0.48081 -1.354,1.80303 -1.4823,3.1251 -1.3737,3.02701 -2.1609,1.95148 -0.6742,-0.9211 -0.6918,-0.92092 -1.5248,0.0152 -1.2766,1.4346 -2.5272,3.84097 -2.5272,4.86291 0,0.50131 -0.2404,1.15168 -0.5343,1.44526 -0.3916,0.39119 -0.3142,1.19592 0.2897,3.01216 0.4532,1.3631 0.708,2.5942 0.5663,2.73577 -0.525,0.52447 -1.1843,-0.35805 -1.4921,-1.99721 -0.3173,-1.68949 -0.9769,-2.2172 -1.359,-1.08713 -0.1855,0.54902 0.3904,3.84937 1.529,8.76209 0.4425,1.90895 0.2327,3.09834 -0.4125,2.33839 -0.1879,-0.22138 -0.759,-1.75478 -1.2691,-3.40755 -0.5101,-1.65278 -1.0899,-3.00505 -1.2885,-3.00505 -0.6728,0 -0.3656,3.26542 0.5953,6.32787 0.526,1.67633 0.9592,3.42652 0.9626,3.8893 0.01,1.17482 -0.7886,1.05358 -1.1085,-0.16858 -0.1454,-0.5555 -0.486,-0.87311 -0.757,-0.70582 -0.271,0.1673 -0.406,0.56771 -0.3,0.8898 0.1795,0.54581 0.3578,3.2169 0.9854,14.76945 0.4322,7.95424 1.1675,12.87231 2.4594,16.45035 2.3341,6.46432 3.8132,8.01531 11.9865,12.56897 5.5415,3.08735 15.7925,7.39517 18.9861,7.97855 3.3758,0.61668 9.6385,0.16167 10.6752,-0.77559 z m -7.6194,-13.03903 c -0.787,-0.78132 -0.7298,-0.83386 1.0642,-0.97801 1.0428,-0.0838 2.1017,-0.35424 2.3532,-0.60101 0.7128,-0.69951 2.1898,-0.52709 2.1898,0.25562 0,1.55746 -4.3398,2.58172 -5.6072,1.3234 z m -18.4611,-0.43314 c 0,-0.21589 0.6654,-0.94259 1.484,-1.61488 0.9281,-0.76225 1.8214,-2.20535 2.3732,-3.83399 1.1305,-3.33606 2.2043,-3.89085 1.7371,-0.89753 -0.4769,3.0562 -2.6492,6.39648 -4.2836,6.58681 -0.7185,0.0837 -1.3083,-0.0245 -1.3107,-0.24041 z m 8.3379,-1.57027 c -1.1277,-0.48355 -2.3458,-2.31999 -1.8605,-2.80484 0.162,-0.16178 0.9168,0.0731 1.6774,0.52199 2.0221,1.19328 4.2685,1.00348 7.4128,-0.62629 3.1561,-1.63584 5.5339,-1.82818 8.3044,-0.67172 2.1917,0.91489 4.887,0.67206 6.6565,-0.59971 1.0712,-0.76993 1.2025,-1.1393 0.9579,-2.69523 -0.2261,-1.43768 -0.1305,-1.80303 0.4715,-1.80303 0.4153,0 0.8885,0.53127 1.0517,1.18061 0.1631,0.64933 0.9794,1.70523 1.8139,2.34642 2.4107,1.85219 4.1644,3.59684 4.1644,4.14294 0,0.97985 -1.2488,0.48069 -3.5498,-1.41893 l -2.329,-1.92269 -1.8257,1.44455 c -2.2865,1.80916 -5.3972,2.32817 -7.4558,1.24396 -2.1853,-1.15096 -5.2557,-0.97019 -7.6857,0.45248 -2.2658,1.32652 -6.1333,1.92592 -7.804,1.20949 z m -16.7131,-3.42684 c -0.6853,-0.81362 -1.246,-1.85772 -1.246,-2.32022 0,-0.9337 1.9071,-2.93177 2.7984,-2.93177 0.8235,0 0.7028,1.28883 -0.1514,1.61629 -0.9223,0.35357 -0.9307,2.25145 -0.015,3.4605 1.6051,2.12005 0.3825,2.27462 -1.3857,0.1752 z m 54.9201,-4.43759 c -0.1132,-0.3157 0.081,-1.14157 0.431,-1.83526 0.6939,-1.37468 0.4845,-1.86399 -0.7975,-1.86399 -0.9482,0 -1.6568,-1.39335 -1.028,-2.0215 0.5294,-0.52892 2.5673,0.22204 3.4342,1.26545 0.5235,0.63018 0.5426,1.15601 0.096,2.64478 -0.5603,1.86832 -1.7529,2.87922 -2.1358,1.81052 z m -30.2813,-3.45885 c -1.5539,-1.4394 -2.1617,-1.47841 -3.746,-0.2404 -1.5483,1.20993 -3.8286,1.28008 -3.9073,0.1202 -0.1723,-2.54375 0.7732,-3.71519 1.4863,-1.84136 l 0.5025,1.32029 1.4774,-1.24199 c 1.8683,-1.5705 2.8721,-1.56379 4.7703,0.0319 l 1.5154,1.27389 2.8607,-1.36596 2.8608,-1.36596 2.0804,1.00978 c 2.1802,1.05817 3.8982,0.8341 2.4991,-0.32593 -0.9061,-0.7513 -0.9791,-1.94213 -0.119,-1.94213 1.1061,0 1.7807,1.10803 1.7807,2.92494 0,2.27726 -1.164,2.64621 -4.1649,1.32008 l -2.1887,-0.96721 -2.779,1.24595 c -1.5285,0.68527 -2.9708,1.24594 -3.2051,1.24594 -0.2343,0 -1.0099,-0.54091 -1.7236,-1.20202 z m 1.7338,-7.0604 c -0.4027,-0.65108 1.0989,-1.83455 2.3277,-1.83455 0.7823,0 1.7489,1.23831 1.2759,1.6345 -0.6075,0.50898 -3.3193,0.65952 -3.6036,0.20005 z m -22.64,-10.50107 c -2.1423,-1.21922 -2.6793,-1.34313 -3.9314,-0.90709 -1.9607,0.68286 -4.4463,0.37881 -5.0725,-0.6205 -0.7232,-1.15407 -0.2372,-1.41722 1.4454,-0.78271 1.9277,0.72692 3.2608,0.32909 6.7576,-2.01661 2.43,-1.63015 3.3388,-1.96898 5.322,-1.98433 2.6401,-0.0204 5.7552,1.2892 7.9466,3.34082 1.4312,1.33987 1.8001,3.4632 0.6016,3.4632 -0.397,0 -0.7219,-0.29805 -0.7219,-0.66233 0,-1.52892 -1.1625,-1.6709 -4.4963,-0.54917 -1.8112,0.60942 -3.533,1.34769 -3.8262,1.64058 -0.7674,0.76671 -1.2536,0.65535 -4.0249,-0.92186 z m 3.7987,-4.19709 c 0.3196,0.10642 0.7073,0.71836 0.8616,1.35986 0.3115,1.29493 1.62,1.3611 3.8369,0.19402 l 1.2032,-0.63342 -1.4439,-0.56799 c -2.7986,-1.10096 -4.7803,-1.11023 -6.8953,-0.0323 -2.0422,1.04081 -2.4896,1.71025 -1.4067,2.10452 0.3309,0.12047 1.2004,-0.41935 1.9324,-1.1996 0.7319,-0.78024 1.5923,-1.33155 1.9118,-1.22513 z m 28.7624,4.02066 c 0,-1.33108 3.1872,-4.50483 5.8225,-5.7979 3.5142,-1.72433 5.5202,-1.68166 9.128,0.19417 1.6038,0.83388 3.6675,1.58351 4.586,1.66585 2.0614,0.1848 2.4362,0.52315 1.6404,1.48108 -0.375,0.4514 -0.9879,0.62633 -1.5595,0.44508 -0.518,-0.16423 -1.9189,0.0742 -3.1131,0.52981 -3.0631,1.16868 -8.8538,0.80032 -10.4123,-0.66236 -1.1415,-1.07133 -2.2418,-1.36044 -2.2418,-0.58906 0,0.24415 -0.5607,1.10961 -1.2459,1.92323 -1.304,1.54816 -2.6043,1.95263 -2.6043,0.8101 z m 14.8438,-2.63943 c 0.4912,-0.311 0.2892,-0.66292 -0.8422,-1.4678 l -1.4883,-1.05873 v 1.15462 c 0,1.74896 0.8991,2.27825 2.3305,1.37191 z m -5.9118,-1.72455 c 0.8059,-0.60894 0.8239,-0.70802 0.1313,-0.72121 -1.1323,-0.0216 -2.3254,0.49033 -2.3254,0.99777 0,0.65662 1.1511,0.51153 2.1941,-0.27656 z m -6.8246,-6.72512 c -0.8873,-2.31018 7.925,-7.01818 11.3172,-6.04624 2.7936,0.80039 6.3078,4.25555 6.3078,6.20171 0,1.03404 -0.9798,0.53911 -1.8887,-0.95405 -0.9165,-1.50547 -4.5841,-4.26549 -5.6734,-4.26933 -1.7972,-0.006 -6.0949,2.18743 -7.8072,3.98528 -1.7058,1.79099 -1.9404,1.90356 -2.2557,1.08263 z m -39.1658,-0.66791 c 0,-2.32066 5.2609,-5.3629 9.2749,-5.36343 2.1382,-2.9e-4 5.417,1.96281 5.8145,3.48124 0.4695,1.79375 -0.119,1.74506 -2.0342,-0.16832 -1.5271,-1.52562 -2.2143,-1.87074 -3.7247,-1.87074 -2.6197,0 -6.5627,1.75437 -7.6767,3.41561 -1.0723,1.59908 -1.6538,1.77687 -1.6538,0.50564 z m 62.2682,51.97269 c -0.4625,-1.93292 -0.6734,-2.15384 -1.4454,-1.51381 -0.596,0.49415 -0.5436,0.73742 0.3674,1.70618 1.353,1.43881 1.4635,1.41909 1.078,-0.19237 z m -72.6935,-34.34171 c -0.7449,-10.50091 -1.0292,-12.45437 -1.9647,-13.49869 -0.9394,-1.04866 -2.4639,-1.09117 -2.8525,-0.0796 -0.161,0.41903 -0.016,1.91506 0.3227,3.32453 0.3385,1.40946 0.6078,3.17616 0.5986,3.92601 -0.01,0.74985 -0.042,3.55893 -0.074,6.24241 -0.031,2.68347 0.161,5.45186 0.4274,6.15197 0.4325,1.13634 3.1759,2.8544 3.8719,2.4247 0.1437,-0.0887 0,-3.90987 -0.3296,-8.49137 z m 79.046,2.41375 c 0.4199,-0.81115 0.9141,-3.52601 1.116,-6.1306 0.1994,-2.5711 0.5307,-4.94659 0.7362,-5.27885 0.5368,-0.8676 0.4,-5.89267 -0.176,-6.46811 -0.3264,-0.32608 -0.8593,-0.31478 -1.6266,0.0345 -1.0635,0.48408 -1.1648,0.87451 -1.4874,5.73262 -0.1903,2.86723 -0.453,6.51134 -0.5837,8.09801 -0.272,3.30207 0.1307,6.17046 0.8075,5.75256 0.2532,-0.15634 0.7995,-0.93939 1.214,-1.74012 z m -3.6358,-18.69461 c 0.056,-0.38703 0.068,-1.13642 0.026,-1.66531 -0.058,-0.72814 -0.2466,-0.56881 -0.779,0.65621 -0.3867,0.88981 -0.7031,2.07386 -0.7031,2.63123 0,1.00816 0,1.00841 0.6772,0.0475 0.3725,-0.53126 0.723,-1.28258 0.779,-1.66961 z m -0.3196,-10.80066 c -0.1523,-0.39667 -0.3389,-0.72121 -0.4147,-0.72121 -0.076,0 -0.2623,0.32454 -0.4146,0.72121 -0.1671,0.43491 0,0.72121 0.4146,0.72121 0.4172,0 0.5818,-0.2863 0.4147,-0.72121 z m -70.9558,-7.09192 c -0.028,-1.27249 -0.1045,-1.38408 -0.4147,-0.60101 -0.2094,0.52889 -0.2793,1.23207 -0.1553,1.56262 0.3871,1.03141 0.6052,0.6634 0.57,-0.96161 z m 61.4862,-1.44352 c 0.049,-0.85884 -0.2366,-3.55937 -0.6349,-6.00118 -0.3983,-2.4418 -0.5948,-4.64867 -0.4368,-4.90415 0.25,-0.4041 -1.1101,-1.47438 -1.8737,-1.47438 -0.5603,0 -0.2454,1.34693 0.4497,1.92323 0.4547,0.37704 0.7219,1.43678 0.7219,2.86353 0,1.24574 0.2368,3.54515 0.5262,5.10981 0.8421,4.55195 1.0999,5.06504 1.2476,2.48314 z m -63.8588,0.10724 c 0,-1.14132 4.9485,-7.55101 6.6215,-8.57668 1.0211,-0.62601 2.1374,-1.81601 2.4806,-2.64444 2.069,-4.99441 3.3742,-6.84594 7.7427,-10.98385 4.079,-3.86373 4.4077,-4.296 3.0472,-4.0081 -2.0524,0.43431 -10.356,4.19725 -12.5744,5.69837 -2.4523,1.65937 -6.355,5.52082 -6.355,6.2878 0,0.34682 -0.3475,1.32641 -0.7721,2.17685 -1.1798,2.36269 -0.5455,2.21306 0.7631,-0.17999 1.1274,-2.06189 2.9955,-3.43468 3.9075,-2.87158 0.2515,0.15532 -0.4959,1.24837 -1.661,2.429 -3.0088,3.0489 -5.4985,10.24895 -4.47,12.92663 0.2987,0.77779 1.2699,0.58355 1.2699,-0.25401 z m 74.0576,-3.98226 0.1195,-4.47712 -2.4399,-1.51525 c -2.4596,-1.52745 -8.2578,-4.06566 -8.5715,-3.75223 -0.093,0.093 1.5244,1.87042 3.5943,3.94991 2.6153,2.62733 4.2475,4.77111 5.3498,7.02636 0.8724,1.785 1.6407,3.24545 1.7073,3.24545 0.067,0 0.1748,-2.0147 0.2405,-4.47712 z m -8.2505,1.11147 c -0.1441,-1.58667 -0.102,-2.88485 0.093,-2.88485 0.6367,0 0.3739,-2.8364 -0.2862,-3.08947 -0.4986,-0.19114 -0.6403,0.52811 -0.6352,3.22476 0.01,3.40159 0.3387,5.63441 0.8383,5.63441 0.1383,0 0.1336,-1.29819 -0.01,-2.88485 z m -60.7762,0.12322 c 0.2577,-0.85226 0.168,-1.01814 -0.4272,-0.78997 -0.4157,0.15934 -0.7534,0.84774 -0.7534,1.53556 0,1.39197 0.6603,0.97494 1.1806,-0.74559 z m 7.1929,-4.8111 c 0.4375,-0.85945 0.5945,-1.56263 0.3489,-1.56263 -0.2456,0 -0.6843,0.68138 -0.9749,1.51417 -0.892,2.5562 -0.6598,2.57417 0.626,0.0485 z m 1.4357,0.57604 c 0.1643,-0.42789 0.084,-0.62088 -0.1892,-0.45244 -0.2616,0.16157 -0.4757,0.49735 -0.4757,0.74619 0,0.69161 0.3449,0.53921 0.6649,-0.29375 z m 35.9031,-5.07758 c -0.3133,-1.85591 -0.671,-3.27321 -0.7948,-3.14955 -0.1238,0.12366 0.048,2.03098 0.3826,4.23847 0.3343,2.2075 0.6919,3.62479 0.7948,3.14955 0.1029,-0.47524 -0.069,-2.38255 -0.3826,-4.23847 z m -1.8784,-0.10067 c -0.371,-0.37066 -0.5189,-0.10275 -0.5189,0.94005 0,1.89802 0.6754,2.57733 0.8799,0.88507 0.087,-0.7187 -0.076,-1.54 -0.361,-1.82512 z m -32.5809,1.81259 c 0.1644,-0.42788 0.084,-0.62088 -0.1891,-0.45243 -0.2617,0.16156 -0.4758,0.49734 -0.4758,0.74618 0,0.69161 0.345,0.53921 0.6649,-0.29375 z m 25.8054,-1.17705 c 0,-1.05778 -0.086,-1.92323 -0.1901,-1.92323 -0.1045,0 -0.2727,0.86545 -0.3736,1.92323 -0.101,1.05778 -0.015,1.92323 0.19,1.92323 0.2056,0 0.3737,-0.86545 0.3737,-1.92323 z m 15.5768,-4.19364 c -0.4626,-0.33794 -1.0095,-0.61444 -1.2153,-0.61444 -0.4155,0 -0.4081,0.0347 0.8614,4.04549 l 0.9,2.84346 0.1475,-2.83004 c 0.1174,-2.25303 -0.024,-2.95532 -0.6936,-3.44447 z m -25.0464,3.35811 c 0.1469,-0.73046 0.4156,-1.9772 0.5971,-2.77053 0.272,-1.18851 0.2175,-1.33631 -0.3095,-0.8396 -0.6866,0.64706 -1.8892,4.76435 -1.504,5.14917 0.4373,0.43691 0.9495,-0.21113 1.2164,-1.53904 z m 3.3705,0.95573 c 0.1178,-0.19833 0.3685,-1.71287 0.5569,-3.36565 0.2937,-2.57547 0.2327,-3.00505 -0.4265,-3.00505 -0.423,0 -0.7781,0.16227 -0.7889,0.3606 -0.2969,5.42647 -0.094,7.27674 0.6585,6.0101 z m -22.0667,-0.58316 c 0.259,-0.41863 7.2157,-3.86431 7.802,-3.86431 0.2846,0 3.2315,-1.24421 4.914,-2.07469 0.7153,-0.35311 1.3708,-1.30104 1.7239,-2.49299 0.3133,-1.05778 0.9035,-2.57232 1.3115,-3.36565 0.408,-0.79334 0.8921,-1.92925 1.0758,-2.52425 0.3063,-0.99169 0.1805,-1.08181 -1.5096,-1.08181 -2.4669,0 -5.8549,2.31644 -11.0917,7.58359 -3.6178,3.63883 -5.4181,6.22609 -5.4181,7.78682 0,0.6258 0.8116,0.64847 1.1922,0.0333 z m 59.9651,-0.8039 c -0.5486,-0.69677 -0.9974,-1.48512 -0.9974,-1.75189 0,-0.60321 -3.8377,-4.78258 -5.934,-6.46241 -3.8894,-3.11658 -8.2778,-5.41463 -13.3172,-6.97368 -5.6058,-1.73431 -9.7556,-2.80781 -9.9816,-2.58209 -0.068,0.068 0.4715,0.42525 1.199,0.79382 2.5002,1.26658 8.308,5.29572 10.7257,7.44084 1.3313,1.18125 2.7326,2.14773 3.114,2.14773 0.3815,0 1.0144,0.61991 1.4066,1.37759 0.7787,1.50429 2.0853,2.23551 7.4478,4.16799 1.9461,0.70132 4.2144,1.68693 5.0406,2.19024 2.0664,1.2588 2.4753,1.14899 1.2965,-0.34814 z m -45.8034,-0.72812 c 0.7987,-2.28902 0.6811,-2.70893 -0.6855,-2.44793 -0.9625,0.1838 -1.1009,0.36788 -0.6682,0.8887 0.3001,0.36128 0.4091,1.20059 0.2421,1.86514 -0.438,1.74341 0.4851,1.48936 1.1116,-0.30591 z m 2.9347,-1.90823 c 0,-0.26445 -0.2166,-0.34709 -0.4813,-0.18366 -0.2647,0.16344 -0.4812,0.51352 -0.4812,0.77797 0,0.26444 0.2165,0.34708 0.4812,0.18365 0.2647,-0.16344 0.4813,-0.51352 0.4813,-0.77796 z m 16.7652,-0.96962 c -0.1933,-1.3649 -1.1197,-1.30742 -1.0434,0.0648 0.1156,2.07832 0.1402,2.13579 0.6824,1.59404 0.2871,-0.28683 0.4496,-1.03329 0.361,-1.65879 z m -13.8775,-0.62809 c 0,-0.11661 -0.2166,-0.34574 -0.4813,-0.50918 -0.2647,-0.16343 -0.4813,-0.068 -0.4813,0.21203 0,0.28005 0.2166,0.50918 0.4813,0.50918 0.2647,0 0.4813,-0.0954 0.4813,-0.21203 z m 0.1125,-2.86737 c 0.1942,-0.28966 0.4524,-0.74302 0.5736,-1.00747 0.1213,-0.26444 0.4484,-0.1238 0.7268,0.31253 0.5021,0.787 3.1812,1.10684 4.9552,0.59157 0.7395,-0.21481 0.6465,-0.60418 -0.826,-3.45793 -0.9126,-1.76872 -2.3043,-3.97314 -3.0928,-4.89869 -1.2632,-1.48295 -1.5146,-1.59717 -2.1162,-0.96162 -0.7214,0.76202 -4.1833,9.00219 -4.1833,9.95724 0,0.70038 3.4463,0.23456 3.9627,-0.53563 z m 20.7774,-0.38239 c -1.5991,-1.84486 -3.2074,-3.26952 -3.6909,-3.26952 -0.2573,0 -1.2083,-0.64949 -2.1133,-1.44332 -2.5363,-2.22472 -11.7168,-6.44073 -11.7168,-5.38076 0,0.18493 0.7039,1.32816 1.5642,2.5405 0.8603,1.21233 2.2053,3.54958 2.9889,5.19387 1.1686,2.45195 1.6014,2.95124 2.4064,2.77616 0.5399,-0.11741 2.0645,-0.0502 3.388,0.14944 1.3235,0.19959 3.6853,0.39181 5.2484,0.42714 l 2.8419,0.0642 z m -26.6133,-9.34215 c 0.5877,-0.70746 0.488,-0.74933 -1.024,-0.43016 -2.294,0.48426 -2.9602,1.2139 -1.1083,1.2139 0.8147,0 1.7742,-0.35268 2.1323,-0.78374 z m 3.7983,0.31802 c 0,-0.25614 -0.3249,-0.34118 -0.7219,-0.18896 -0.3971,0.15222 -0.722,0.36179 -0.722,0.46572 0,0.10393 0.3249,0.18896 0.722,0.18896 0.397,0 0.7219,-0.20957 0.7219,-0.46572 z m -61.4127,120.06673 c 0.9454,-3.37209 0.8933,-5.08992 -0.2011,-6.62535 l -1.093,-1.53348 0.9832,-2.02173 c 1.132,-2.32778 0.9492,-4.38437 -0.4564,-5.13592 -0.7785,-0.41624 -0.8863,-0.81894 -0.6281,-2.34599 0.2688,-1.5895 0.1743,-1.88707 -0.6857,-2.15978 -1.0903,-0.34569 -1.3829,-1.69391 -0.3676,-1.69391 1.4751,0 2.4627,1.32007 2.3408,3.12871 -0.066,0.98491 0.1842,2.25567 0.5569,2.82393 1.1365,1.73276 1.3563,3.7818 0.5666,5.28111 -0.917,1.74115 -0.9094,2.1903 0.055,3.25478 1.0668,1.1777 0.5226,8.10945 -0.6368,8.10945 -0.5333,0 -0.6531,-0.299 -0.4337,-1.08182 z m 126.4815,-2.86081 c -0.7241,-0.72345 -0.7436,-3.13089 -0.041,-5.1429 0.4406,-1.26261 0.3977,-1.68874 -0.2406,-2.39345 -1.0832,-1.19567 -0.9864,-3.28708 0.1859,-4.01846 1.1032,-0.68829 1.2898,-2.97216 0.4018,-4.91904 -0.4834,-1.06008 -0.4115,-1.38803 0.5225,-2.38121 1.0614,-1.12872 1.0639,-1.15791 0.1239,-1.45597 -0.5276,-0.16729 -1.0884,-0.64021 -1.2461,-1.05093 -0.4644,-1.20878 1.1286,-3.92663 2.9665,-5.06141 l 1.7036,-1.05186 -1.688,-1.54546 c -1.9975,-1.82881 -4.8459,-2.42109 -14.633,-3.04269 -6.5278,-0.41461 -7.4024,-0.61867 -7.4024,-1.72727 0,-0.52403 0.9343,-0.60507 4.6925,-0.40705 2.5809,0.13598 5.4505,0.44198 6.3769,0.67999 0.9265,0.23802 2.6019,0.43396 3.723,0.43544 4.0254,0.005 6.4537,0.98427 8.9032,3.58939 1.2765,1.35766 2.2819,2.88863 2.2861,3.48131 0,0.58186 0.2833,1.23096 0.6205,1.44243 1.0012,0.62781 2.0013,2.49925 4.1881,7.83702 2.7033,6.59837 4.3288,11.39336 3.9805,11.74138 -0.6642,0.66354 -1.0584,0.0896 -2.0375,-2.96663 -0.5719,-1.785 -1.4339,-3.92192 -1.9156,-4.74872 -0.4817,-0.82679 -1.0261,-2.18694 -1.2098,-3.02255 -0.1837,-0.83561 -1.2897,-3.24529 -2.4577,-5.35484 -1.168,-2.10955 -2.1237,-4.06353 -2.1237,-4.34217 0,-0.72814 -1.9566,-0.0417 -3.2486,1.13968 -1.338,1.22344 -1.3753,2.07478 -0.1203,2.74577 1.1412,0.61018 1.2478,2.26394 0.2387,3.70324 -0.5486,0.78248 -0.6068,1.33965 -0.2406,2.30192 0.7951,2.08913 0.5564,3.50426 -0.8035,4.764 -1.1231,1.04033 -1.2022,1.29362 -0.6224,1.99161 0.4716,0.56761 0.6276,1.93669 0.5378,4.71744 -0.1323,4.09871 -0.4562,5.02504 -1.4202,4.06199 z M 9035.564,668.07896 c 0,-0.43668 0.4324,-1.34315 0.9609,-2.01438 0.5285,-0.67123 1.1862,-2.05627 1.4616,-3.07786 0.2753,-1.02159 1.0882,-2.41748 1.8064,-3.10199 2.0604,-1.96382 10.4855,-5.72016 15.5035,-6.9123 2.5147,-0.59741 5.8716,-1.57919 7.4598,-2.18174 3.6382,-1.38027 6.4973,-1.91428 6.4973,-1.21355 0,0.28472 -0.2707,0.58821 -0.6016,0.67442 -2.0899,0.54449 -6.566,1.914 -7.5802,2.31923 -0.6617,0.26442 -3.2215,1.00743 -5.6883,1.65115 -8.3561,2.18051 -15.9692,6.49144 -15.9692,9.04259 0,1.03516 -2.268,4.63149 -3.3371,5.2916 -0.2842,0.17542 -0.5131,-0.0375 -0.5131,-0.47717 z"
         id="path1" /></g></g></svg>
