<?xml version="1.0" encoding="UTF-8" standalone="no"?>
<!-- Created with Inkscape (http://www.inkscape.org/) -->

<svg
   width="61.221001mm"
   height="62.240601mm"
   viewBox="0 0 61.221 62.240601"
   version="1.1"
   id="svg1"
   xml:space="preserve"
   inkscape:export-filename="1stSingPro.svg"
   inkscape:export-xdpi="96"
   inkscape:export-ydpi="96"
   xmlns:inkscape="http://www.inkscape.org/namespaces/inkscape"
   xmlns:sodipodi="http://sodipodi.sourceforge.net/DTD/sodipodi-0.dtd"
   xmlns="http://www.w3.org/2000/svg"
   xmlns:svg="http://www.w3.org/2000/svg"><sodipodi:namedview
     id="namedview1"
     pagecolor="#ffffff"
     bordercolor="#000000"
     borderopacity="0.25"
     inkscape:showpageshadow="2"
     inkscape:pageopacity="0.0"
     inkscape:pagecheckerboard="0"
     inkscape:deskcolor="#d1d1d1"
     inkscape:document-units="mm"><inkscape:page
       x="0"
       y="0"
       width="61.221001"
       height="62.240601"
       id="page2"
       margin="0"
       bleed="0" /></sodipodi:namedview><defs
     id="defs1" /><g
     inkscape:label="Layer 1"
     inkscape:groupmode="layer"
     id="layer1"
     transform="translate(1472.671,3650.7208)"><path
       id="path936"
       d="m -1472.5017,-3650.5514 h 60.8824 v -0.1694 h -60.8824 z"
       style="fill:#000000;fill-opacity:1;fill-rule:evenodd;stroke:none;stroke-width:0.352778" /><path
       id="path941-9"
       d="m -1472.671,-3588.6495 h 0.1693 v -61.8984 h -0.1693 z"
       style="fill:#000000;fill-opacity:1;fill-rule:evenodd;stroke:none;stroke-width:0.352778" /><path
       id="path942"
       d="m -1411.6193,-3588.6495 h 0.1693 v -61.8984 h -0.1693 z"
       style="fill:#000000;fill-opacity:1;fill-rule:evenodd;stroke:none;stroke-width:0.352778" /><path
       id="path952"
       d="m -1472.5017,-3588.4802 h 60.8824 v -0.1693 h -60.8824 z"
       style="fill:#000000;fill-opacity:1;fill-rule:evenodd;stroke:none;stroke-width:0.352778" /><g
       id="g1081"
       transform="matrix(0.21977607,0,0,0.21977607,-3886.9909,-3653.8709)"><path
         style="fill:#000000"
         d="m 11087.328,262.06377 c 0.45,-0.99159 1.172,-2.34376 1.605,-3.00482 1.041,-1.58681 4.133,-8.53733 4.549,-10.22265 0.191,-0.77459 0.1,-1.60321 -0.22,-1.98764 -0.3,-0.3626 -1.073,-2.47778 -1.717,-4.70039 -1.142,-3.94239 -1.953,-6.05015 -4.408,-11.45487 -0.661,-1.45434 -1.393,-3.07695 -1.626,-3.6058 -0.234,-0.52884 -1.069,-2.90867 -1.856,-5.28849 -1.265,-3.82642 -2.787,-8.18383 -5.04,-14.42316 -0.425,-1.17782 -0.961,-1.87435 -1.384,-1.79733 -0.379,0.0692 -4.437,1.65237 -9.018,3.51823 l -8.328,3.39245 -0.857,-1.11436 c -1.216,-1.58223 -1.082,-3.0459 0.492,-5.35468 0.754,-1.10535 1.981,-3.41597 2.728,-5.13473 0.747,-1.71876 1.644,-3.46658 1.993,-3.88404 0.349,-0.41746 0.635,-0.94267 0.635,-1.16714 0,-0.50884 4.24,-8.9133 4.91,-9.73213 0.506,-0.61762 0.237,-1.6001 -1.547,-5.64951 -1.005,-2.28278 -2.402,-6.33837 -2.402,-6.97429 0,-0.24764 -0.573,-1.70043 -1.273,-3.22841 -0.699,-1.52798 -1.325,-3.02536 -1.391,-3.32752 -0.07,-0.30215 -0.656,-1.81659 -1.313,-3.3654 -1.529,-3.60604 -3.581,-9.19395 -3.955,-10.76981 -0.2,-0.84543 -0.02,-1.46393 0.578,-2.00355 0.769,-0.69143 3.72,-0.81148 25.839,-1.05111 13.734,-0.14879 31.903,-0.41289 40.375,-0.58688 14.146,-0.29049 15.472,-0.24918 16.226,0.50553 1.568,1.56849 1.069,3.47968 -3.27,12.5321 -2.43,5.06985 -4.076,8.9422 -4.076,9.58912 0,0.31825 1.26,1.16064 2.8,1.87199 1.54,0.71134 3.223,1.66881 3.741,2.1277 0.924,0.81817 3.214,2.47681 4.376,3.16932 0.704,0.41928 0.639,0.49524 7.201,-8.40072 7.04,-9.54499 10.157,-14.03184 12.149,-17.48873 0.925,-1.60489 2.277,-3.68886 3.003,-4.63106 0.727,-0.9422 1.321,-1.8726 1.321,-2.06756 0,-0.19497 0.732,-1.25628 1.625,-2.35848 2.384,-2.93925 4.621,-6.77277 4.621,-7.91826 0,-0.55011 0.253,-1.15678 0.563,-1.34817 0.309,-0.19138 8.362,-0.41656 17.896,-0.5004 9.533,-0.0838 22.63,-0.3796 29.103,-0.65726 6.474,-0.27766 14.041,-0.60304 16.815,-0.72307 2.775,-0.12003 7.476,-0.35534 10.447,-0.5229 4.609,-0.26 5.583,-0.18529 6.643,0.50971 1.21,0.79339 1.234,0.9094 0.924,4.50458 -0.175,2.02962 -0.397,4.19553 -0.494,4.81312 -0.1,0.6176 -0.416,5.59359 -0.709,11.05776 -0.294,5.46417 -0.84,12.96372 -1.214,16.66567 -0.908,8.98519 -1.56,17.45772 -1.904,24.75976 -0.156,3.30531 -0.475,7.30773 -0.709,8.89428 -0.235,1.58655 -0.561,3.95135 -0.725,5.25511 -0.164,1.30375 -0.384,2.50869 -0.488,2.67763 -0.104,0.16894 -0.332,1.37388 -0.507,2.67764 -0.399,2.98714 -0.542,3.20694 -1.684,2.59524 -1.099,-0.58859 -1.175,-1.66983 -0.275,-3.89204 0.362,-0.89167 1.038,-4.43374 1.503,-7.87126 0.465,-3.43752 0.908,-6.60351 0.986,-7.03553 0.08,-0.43203 0.275,-4.10993 0.44,-8.17313 0.164,-4.0632 0.497,-9.11841 0.74,-11.23381 1.161,-10.11627 1.468,-14.06863 1.681,-21.63474 0.126,-4.49522 0.402,-9.5253 0.612,-11.17795 0.211,-1.65266 0.324,-3.00483 0.251,-3.00483 -0.227,0 -3.363,6.43106 -3.75,7.69236 -0.203,0.66106 -1.072,2.71636 -1.931,4.56733 -0.859,1.85097 -2.673,5.8534 -4.031,8.89428 -1.358,3.04089 -2.682,5.8534 -2.942,6.25004 -1.082,1.65189 -4.335,8.86603 -6.924,15.35343 -1.522,3.81696 -2.936,7.27852 -3.141,7.69236 -0.205,0.41384 -0.596,1.2933 -0.867,1.95436 -0.272,0.66106 -1.625,3.58175 -3.006,6.49042 -4.122,8.68189 -6.016,12.80676 -7.396,16.10587 -0.719,1.71876 -1.614,3.77406 -1.989,4.56733 -0.374,0.79328 -1.427,3.28127 -2.341,5.52888 -0.913,2.24761 -2.102,4.44598 -2.642,4.88527 l -0.982,0.79871 1.477,4.00901 c 0.812,2.20496 2.342,6.28067 3.4,9.05712 1.058,2.77646 2.367,6.23802 2.908,7.69236 0.542,1.45433 1.318,3.46272 1.725,4.46309 0.564,1.38593 0.607,1.95236 0.18,2.37982 -0.886,0.88647 -1.517,-0.0894 -3.248,-5.02434 -4.167,-11.87807 -5.512,-15.6166 -6.019,-16.72251 -0.303,-0.66106 -0.778,-1.69509 -1.056,-2.29785 -0.875,-1.89907 -1.024,-1.6166 -9.344,17.68256 -1.311,3.04088 -2.514,5.90749 -2.673,6.37023 -0.494,1.43012 -1.144,0.93655 -1.705,-1.29463 -0.695,-2.76137 -0.692,-2.78549 0.33,-2.46104 0.734,0.23319 1.449,-1.07232 4.655,-8.50131 2.083,-4.82724 4.516,-10.349 5.408,-12.27058 1.758,-3.79097 1.75,-4.16991 -0.173,-7.80436 -0.63,-1.18991 -1.454,-3.13704 -1.833,-4.32695 -1.029,-3.23759 -2.157,-6.30713 -2.941,-8.0054 -0.384,-0.83324 -0.699,-1.81954 -0.699,-2.19178 0,-0.37224 -0.317,-1.09676 -0.705,-1.61004 -0.388,-0.51328 -0.712,-1.21707 -0.721,-1.56398 0,-0.3469 -0.528,-1.75316 -1.155,-3.12502 -0.627,-1.37185 -1.465,-3.46784 -1.862,-4.65775 -1.542,-4.62401 -3.318,-9.41829 -3.829,-10.3366 -0.294,-0.52885 -0.784,-1.93511 -1.087,-3.12502 l -0.552,-2.16348 h -2.327 c -3.665,0 -3.448,-1.11582 0.468,-2.40046 0.944,-0.30981 0.943,-0.32998 -0.09,-1.17538 -0.717,-0.58596 -0.967,-1.18759 -0.784,-1.88737 0.31,-1.18597 0.166,-1.23 -1.516,-0.46332 -0.962,0.43854 -1.367,0.43057 -1.824,-0.0359 -0.465,-0.47472 -0.312,-0.82158 0.734,-1.66368 1.409,-1.1351 1.775,-2.7105 0.629,-2.7105 -0.381,0 -0.826,0.21635 -0.99,0.48078 -0.163,0.26442 -0.716,0.48077 -1.229,0.48077 -1.41,0 -1.205,-1.84343 0.268,-2.40386 1.623,-0.61748 1.735,-2.67169 0.121,-2.20084 -2.921,0.85142 -4.004,0.83481 -5.131,-0.0787 -0.993,-0.80493 -1.175,-1.44673 -1.372,-4.85292 -0.125,-2.15892 -0.397,-3.92531 -0.605,-3.92531 -0.207,0 -0.531,1.63838 -0.718,3.64084 -0.188,2.00246 -0.722,4.65272 -1.187,5.88946 -0.713,1.89815 -1.284,2.50459 -3.663,3.89094 -4.391,2.55909 -11.146,6.69349 -14.703,8.99961 -1.781,1.15419 -3.352,2.09853 -3.493,2.09853 -0.14,0 -1.062,0.50706 -2.047,1.12681 -3.604,2.26564 -3.791,2.22792 -11.642,-2.34751 -0.472,-0.27475 -1.151,-0.73001 -1.509,-1.01168 -0.359,-0.28167 -2.057,-1.2443 -3.775,-2.13918 -1.718,-0.89488 -3.856,-2.11632 -4.751,-2.71431 -0.896,-0.598 -1.893,-1.08726 -2.217,-1.08726 -0.323,0 -1.704,2.32573 -3.068,5.1683 -1.364,2.84256 -2.799,5.76326 -3.188,6.49042 -1.643,3.06591 -2.147,4.12424 -3.377,7.09139 -1.42,3.42403 -2.718,6.2292 -7.9,17.06741 -1.896,3.96637 -3.888,8.18515 -4.427,9.37506 -0.539,1.18991 -1.921,4.14663 -3.072,6.57049 -1.151,2.42385 -2.543,5.55016 -3.093,6.94734 -0.551,1.39718 -1.64,3.48828 -2.422,4.64689 -0.781,1.15861 -1.853,2.95421 -2.381,3.99022 -0.528,1.03601 -1.148,1.88366 -1.378,1.88366 -0.382,0 -4.37,8.89441 -4.368,9.74238 0,1.101 -2.267,3.70793 -3.234,3.71329 -1.065,0.006 -1.067,-0.007 -0.256,-1.79695 z m 10.27,-18.14914 c 0.426,-0.52885 1.589,-3.01685 2.586,-5.52888 0.996,-2.51204 2.323,-5.58779 2.949,-6.83502 0.626,-1.24723 1.138,-2.48826 1.138,-2.75785 0,-0.2696 0.928,-2.16983 2.063,-4.22274 1.134,-2.05292 2.411,-4.59796 2.837,-5.65566 0.426,-1.0577 1.789,-4.08656 3.029,-6.73081 1.24,-2.64425 2.854,-6.10581 3.586,-7.69235 0.733,-1.58655 2.442,-5.2081 3.797,-8.04789 1.355,-2.83979 2.464,-5.28019 2.464,-5.4231 0,-0.28077 4.022,-8.63089 13.029,-27.04836 3.139,-6.42017 5.708,-11.8883 5.708,-12.1514 0,-1.05636 -2.719,-1.42045 -8.816,-1.18075 -10.651,0.41869 -22.59,0.67632 -47.519,1.02541 -17.872,0.25027 -24.029,0.48273 -24.392,0.92096 -0.34,0.40915 -0.08,1.60734 0.871,3.96717 0.746,1.85953 1.583,3.67066 1.86,4.02472 0.276,0.35406 1.605,3.78079 2.953,7.61494 3.334,9.48399 5.067,13.70201 5.629,13.70201 0.26,0 2.471,-4.05652 4.913,-9.01448 4.1,-8.32279 5.252,-9.9528 6.083,-8.60808 0.138,0.22351 -2.011,4.89854 -4.776,10.38896 -2.765,5.49041 -5.027,10.38616 -5.027,10.87943 0,1.11696 5.157,14.9856 6.002,16.14283 0.582,0.7966 0.805,0.75735 3.687,-0.64882 1.687,-0.82319 3.951,-1.73477 5.031,-2.02573 1.922,-0.51796 5.548,-2.65544 5.851,-3.44916 0.08,-0.22043 0.956,-1.43809 1.936,-2.70591 2.275,-2.93965 2.78,-4.05123 3.455,-7.59364 0.302,-1.58655 0.871,-3.38963 1.264,-4.00685 0.682,-1.07273 0.755,-1.08534 1.637,-0.28606 0.778,0.70475 0.924,1.50442 0.924,5.08858 0,2.33884 0.169,4.25244 0.377,4.25244 0.678,0 4.305,-3.55583 5.796,-5.68241 0.802,-1.14214 1.92,-3.46788 2.485,-5.1683 0.621,-1.86512 1.299,-3.09168 1.71,-3.09168 0.938,0 0.858,1.69439 -0.219,4.6415 -2.046,5.60218 -7.19,11.28588 -10.832,11.96968 l -1.848,0.34694 0.302,-1.62806 c 0.743,-4.00518 0.857,-5.81423 0.345,-5.49785 -0.285,0.17641 -0.519,0.71705 -0.519,1.20142 0,0.48437 -0.386,1.74398 -0.858,2.79913 -1.062,2.37495 -6.792,9.72507 -7.581,9.72507 -0.841,0 -9.867,3.4281 -11.126,4.22537 -0.972,0.616 -1.011,0.79196 -0.425,1.95182 0.353,0.70113 1.024,2.46469 1.491,3.91903 1.482,4.62308 5.55,15.52823 6.815,18.26934 2.229,4.83027 2.512,5.51179 3.29,7.93273 2.244,6.98585 3.155,8.87278 4.228,8.76181 0.574,-0.0593 1.392,-0.5406 1.817,-1.06945 z m 12.15,-45.03005 c -0.329,-0.53218 0.106,-0.97538 2.844,-2.9013 0.638,-0.44862 1.957,-2.01714 2.931,-3.48559 1.694,-2.5542 2.755,-3.23502 3.404,-2.18435 0.358,0.5787 -2.607,4.69454 -5.247,7.28414 -1.896,1.85968 -3.295,2.31778 -3.932,1.2871 z m -1.196,-3.09919 c -0.545,-0.65692 -0.504,-0.87379 0.273,-1.44231 0.503,-0.36803 1.072,-0.66914 1.265,-0.66914 0.633,0 5.456,-6.89416 6.206,-8.87258 0.81,-2.1357 2.388,-2.95178 2.388,-1.23501 0,1.91047 -3.738,7.90452 -6.979,11.18933 -2.005,2.03312 -2.254,2.11421 -3.153,1.02971 z m -1.243,-3.84267 c -0.162,-0.42332 -0.09,-0.91011 0.167,-1.08174 0.567,-0.38292 3.521,-4.68881 3.521,-5.13218 0,-0.17596 0.422,-0.91256 0.937,-1.63687 0.516,-0.72432 1.037,-1.83945 1.158,-2.47808 0.5,-2.62186 1.639,-3.70767 2.473,-2.35685 0.374,0.60509 -1.296,5.14558 -2.982,8.11051 -2.812,4.94442 -4.553,6.45479 -5.274,4.57521 z m 106.451,37.66894 c 0.226,-0.59496 1.279,-3.13704 2.341,-5.64907 1.061,-2.51204 2.206,-5.32455 2.543,-6.25004 0.57,-1.56446 2.013,-4.69495 7.532,-16.34625 2.838,-5.99035 4.732,-10.41174 8.06,-18.81204 2.877,-7.2614 4.111,-9.97493 10.574,-23.25552 2.188,-4.49522 4.776,-10.12025 5.752,-12.50007 0.975,-2.37983 2.517,-5.93109 3.426,-7.89171 1.04,-2.24272 1.484,-3.73355 1.198,-4.0199 -0.25,-0.25033 -1.934,-0.48515 -3.741,-0.52181 -3.207,-0.0651 -22.767,0.55514 -28.027,0.88872 -1.454,0.0922 -8.912,0.3167 -16.575,0.49898 -7.663,0.18228 -15.662,0.39307 -17.776,0.46841 -2.114,0.0753 -5.82,0.16032 -8.235,0.18884 -4.284,0.0506 -4.4,0.0819 -4.698,1.27274 -0.298,1.18834 1.767,7.27846 4.07,12.00036 0.516,1.0577 1.141,2.57213 1.389,3.3654 0.589,1.88177 3.985,11.37612 5.117,14.30297 0.485,1.25602 1.12,2.28367 1.41,2.28367 1.014,0 3.067,-2.67736 5.162,-6.73081 2.006,-3.88291 3.275,-5.04043 3.611,-3.29474 0.08,0.4355 -0.562,1.94993 -1.435,3.3654 -0.872,1.41547 -2.007,3.39912 -2.52,4.4081 -0.513,1.00898 -1.662,2.47417 -2.551,3.25597 -1.214,1.06632 -1.54,1.66777 -1.305,2.40735 0.303,0.95719 0.341,0.96037 1.288,0.10944 1.642,-1.47478 5.084,-6.15939 5.979,-8.13879 1.249,-2.75992 2.099,-3.66199 2.858,-3.03158 0.401,0.33271 0.481,0.80842 0.222,1.32043 -0.223,0.44019 -0.999,1.99026 -1.724,3.4446 -0.726,1.45433 -2.215,3.61781 -3.309,4.80772 -4.135,4.49665 -4.339,4.78866 -3.758,5.37065 0.876,0.87645 5.33,-3.27289 7.501,-6.98848 1.754,-3.00086 2.747,-3.79705 3.406,-2.72993 0.583,0.94401 -2.439,5.65764 -5.639,8.7949 -1.821,1.78487 -3.51,3.24521 -3.754,3.24521 -0.619,0 -0.555,1.31621 0.08,1.71095 0.289,0.17896 1.145,-0.13279 1.902,-0.69278 0.757,-0.55999 1.564,-1.01817 1.794,-1.01817 0.23,0 1.732,-1.18991 3.338,-2.64424 2.949,-2.67065 3.97,-3.18308 3.97,-1.99283 0,0.91348 -4.661,5.22353 -7.618,7.04421 -1.359,0.83683 -2.471,1.7193 -2.471,1.96105 0,0.72477 0.727,0.50676 2.637,-0.79002 1.06,-0.71996 2.133,-1.10387 2.589,-0.9263 0.821,0.31953 0.27,0.93392 -3.01,3.35778 l -1.301,0.96155 1.743,4.56733 c 0.958,2.51204 1.97,5.10821 2.249,5.76927 0.278,0.66106 0.682,1.63462 0.896,2.16347 0.215,0.52885 0.85,2.07091 1.411,3.4268 0.562,1.3559 1.071,2.80998 1.133,3.2313 0.06,0.42132 0.263,0.91653 0.447,1.10047 0.183,0.18393 0.334,0.67239 0.334,1.08545 0,0.80942 1.257,4.31139 4.678,13.03111 3.642,9.28245 3.906,9.72204 6.022,10.04045 0.204,0.0307 0.555,-0.43102 0.781,-1.02597 z m -143.599,-23.55737 c 3.303,-1.32973 6.176,-2.56962 6.385,-2.75531 0.209,-0.18569 -0.192,-1.83234 -0.892,-3.65921 -1.35,-3.52703 -4.043,-10.93245 -4.049,-11.13413 0,-0.0661 -0.224,-0.12019 -0.494,-0.12019 -0.517,0 -10.55,19.99747 -10.556,21.04023 0,0.45836 0.439,0.41588 1.799,-0.17314 0.991,-0.42931 4.504,-1.86852 7.807,-3.19825 z m 84.208,-18.45526 c 12.529,-7.66166 17.721,-10.75211 18.06,-10.75211 0.679,0 2.302,-2.12282 3.309,-4.32695 0.653,-1.42851 1.059,-3.51939 1.196,-6.1548 0.149,-2.87672 0.43,-4.21539 1.008,-4.79368 0.749,-0.74927 0.884,-0.72017 2.044,0.44003 1.021,1.02188 1.328,1.95797 1.733,5.27445 0.554,4.54407 1.194,5.50004 3.101,4.63052 1.389,-0.63302 1.34,-1.0191 -0.872,-6.84849 -0.802,-2.11539 -1.742,-4.60339 -2.088,-5.52887 -0.346,-0.92549 -1.389,-3.52166 -2.319,-5.76927 -0.929,-2.24761 -1.847,-4.72118 -2.041,-5.49683 -0.193,-0.77565 -0.641,-1.96557 -0.995,-2.64425 -0.354,-0.67869 -0.645,-1.61258 -0.647,-2.07533 0,-0.46274 -0.219,-0.84135 -0.483,-0.84135 -0.264,0 -0.481,-0.32452 -0.481,-0.72116 0,-1.67194 -1.166,-0.35685 -5.223,5.88946 -5.292,8.14791 -8.407,12.73861 -12.921,19.04286 -1.92,2.68156 -4.937,6.93085 -6.704,9.44289 -1.767,2.51203 -3.439,4.72628 -3.715,4.92055 -1.029,0.72348 -2.12,0.30844 -5.115,-1.94659 -1.691,-1.273 -4.311,-2.97952 -5.823,-3.79228 -3.037,-1.63287 -3.133,-1.6 -4.419,1.50431 -0.87,2.10183 -1.024,1.86755 2.603,3.96013 1.189,0.68592 4.108,2.38695 6.486,3.78006 5.044,2.95489 9.552,5.50526 9.742,5.5117 0.07,0.002 2.127,-1.21477 4.564,-2.705 z m -54.373,75.1859 c -0.226,-0.59495 -0.898,-2.37982 -1.493,-3.96637 -0.595,-1.58654 -1.524,-3.80258 -2.064,-4.92452 -0.993,-2.06142 -0.871,-3.09308 0.254,-2.15277 0.96,0.80292 5.657,10.64399 5.657,11.85395 0,0.81046 -2,0.12216 -2.354,-0.81029 z m -6.775,-117.18628 c -3.395,-0.55031 -9.324,-2.65827 -11.349,-4.03556 -1.015,-0.69017 -2.065,-1.25675 -2.334,-1.25907 -0.644,-0.006 -5.72,-4.931 -8.468,-8.2159 -2.457,-2.93657 -4.481,-7.19199 -5.253,-11.0461 -0.288,-1.4349 -0.726,-3.27331 -0.972,-4.08536 -0.893,-2.93503 -0.525,-9.60525 0.787,-14.27546 0.68,-2.42093 1.553,-5.167642 1.94,-6.103805 1.028,-2.489951 6.952,-11.064373 8.051,-11.652913 0.518,-0.277436 2.249,-1.467584 3.847,-2.644774 3.043,-2.241907 4.021,-2.732259 8.719,-4.374021 3.183,-1.112125 6.465,-1.821381 11.518,-2.489138 1.85,-0.244412 7.231,-1.320783 11.959,-2.391937 4.728,-1.071153 8.782,-1.947552 9.008,-1.947552 0.227,0 0.412,0.386903 0.412,0.859785 0,0.704957 -0.8,1.007051 -4.444,1.677585 -8.086,1.488033 -9.724,1.859141 -10.185,2.307303 -0.285,0.277142 -0.195,0.440513 0.24,0.435013 1.576,-0.01992 10.507,-1.432965 13.188,-2.086524 4.774,-1.163662 7.447,-1.365233 7.447,-0.561503 0,0.421984 -0.7,0.810476 -1.802,0.999763 -3.823,0.65694 -13.27,2.637049 -13.452,2.819636 -0.563,0.563287 2.142,0.760069 4.328,0.314851 9.048,-1.842756 15.962,-2.88011 16.384,-2.458157 0.303,0.304082 0.229,0.536346 -0.213,0.661961 -1.837,0.521958 -9.7,2.262233 -12.572,2.782327 -1.783,0.32301 -3.243,0.766242 -3.243,0.984961 0,0.529382 3.617,0.50578 6.541,-0.04268 3.798,-0.712522 6.581,-0.79147 6.781,-0.192373 0.174,0.522081 -0.818,0.849826 -3.953,1.307134 -4.356,0.635306 -5.525,0.883064 -5.521,1.170747 0,0.175077 1.371,1.508232 3.04,2.962567 4.803,4.18343 7.84,9.014684 9.973,15.865474 0.911,2.92614 1.979,9.29731 1.909,11.39137 -0.04,1.20131 0.415,3.16293 1.125,4.85302 0.657,1.56019 1.081,3.26808 0.943,3.79531 -0.138,0.52723 -1.316,1.58858 -2.617,2.35856 -1.719,1.01652 -2.65,1.99252 -3.4,3.56343 -1.628,3.40865 -2.607,4.23234 -5.452,4.58812 -1.608,0.20107 -2.91,0.11021 -3.583,-0.25008 -0.581,-0.31124 -1.36,-0.44926 -1.731,-0.30669 -1.166,0.4477 -0.174,1.78804 2.02,2.72922 1.151,0.49369 2.093,1.18739 2.093,1.54155 0,1.96499 -7.107,6.67342 -14.173,9.38935 -3.579,1.37589 -12.326,1.90489 -17.536,1.06056 z m 15.333,-2.21096 c 3.577,-1.02099 8.867,-3.55807 11.75,-5.63487 l 2.341,-1.68619 -1.38,-0.71696 c -1.801,-0.93595 -3.643,-3.46999 -3.452,-4.74984 0.255,-1.70938 1.44,-2.07781 4.399,-1.3674 2.201,0.52836 2.936,0.52965 4.251,0.007 2.379,-0.94494 2.739,-1.34014 4.237,-4.64479 1.143,-2.52293 1.574,-3.037 2.548,-3.037 0.645,0 1.439,-0.32177 1.766,-0.71504 0.707,-0.8528 0.313,-2.16959 -0.649,-2.16959 -0.73,0 -1.484,-2.14626 -1.018,-2.89973 0.548,-0.88738 0.26,-8.4584 -0.447,-11.76382 -0.862,-4.029286 -2.676,-8.766693 -4.184,-10.928234 -3.586,-5.13669 -8.613,-9.821493 -11.066,-10.312514 -0.719,-0.143831 -1.416,-0.545943 -1.549,-0.893583 -0.327,-0.853092 -4.081,-2.471308 -8.464,-3.648937 -4.116,-1.105754 -7.921,-1.048004 -14.394,0.218469 -8.646,1.691595 -14.115,5.043328 -20.44,12.525606 -1.732,2.04889 -4.673,8.286177 -5.796,12.291123 -1.168,4.16446 -0.775,14.05651 0.707,17.81548 2.499,6.33628 4.617,9.85413 7.972,13.24031 5.656,5.70885 11.248,8.60913 18.976,9.84214 3.538,0.56445 10.581,0.17299 13.892,-0.77212 z m -13.222,-18.96171 c -3.143,-1.55662 -4.079,-2.86109 -4.372,-6.08978 -0.381,-4.20777 1.009,-8.55986 3.214,-10.0617 0.92,-0.62674 2.042,-1.13953 2.494,-1.13953 0.451,0 0.954,-0.21635 1.117,-0.48077 0.439,-0.71044 1.51,-0.58448 2.373,0.27914 1.041,1.04184 0.637,1.46808 -1.687,1.78004 -4.56,0.61206 -7.417,6.63866 -5.209,10.99118 1.001,1.97569 4.123,3.77666 6.545,3.77666 0.833,0 1.593,0.29765 1.74,0.68137 0.582,1.51791 -3.347,1.68441 -6.215,0.26339 z m 32,-9.84937 c -0.661,-0.35105 -2.12,-0.87963 -3.243,-1.17462 -2.496,-0.65552 -2.647,-1.67423 -0.389,-2.61834 0.909,-0.38014 2.137,-1.24843 2.729,-1.92954 0.873,-1.00428 2.268,-1.66376 2.366,-1.11818 0.01,0.0661 0.142,1.20193 0.289,2.52406 0.58,5.21712 0.467,5.49592 -1.752,4.31662 z m -0.961,17.55851 c 0,-0.26443 0.229,-0.48078 0.509,-0.48078 0.28,0 0.375,0.21635 0.212,0.48078 -0.164,0.26442 -0.393,0.48077 -0.509,0.48077 -0.117,0 -0.212,-0.21635 -0.212,-0.48077 z m 82.318,-1.00603 c -4.337,-0.86401 -9.079,-2.77999 -12.953,-5.23388 -4.635,-2.93537 -13.63,-13.46181 -12.971,-15.17941 0.138,-0.36151 -0.07,-1.59399 -0.457,-2.73884 -0.528,-1.54939 -1.073,-2.21925 -2.135,-2.62018 -1.94,-0.73274 -2.49,-2.41148 -2.569,-7.837254 -0.07,-5.118237 0.625,-7.522474 2.385,-8.192174 0.752,-0.286194 1.328,-1.149284 1.818,-2.723995 0.394,-1.267785 1.26,-3.818582 1.924,-5.668438 l 1.208,-3.363374 -0.958,-1.625132 c -0.527,-0.893823 -0.868,-1.715313 -0.758,-1.825532 0.11,-0.11022 0.996,0.179561 1.97,0.643958 1.535,0.732517 1.828,0.751167 2.214,0.140799 0.66,-1.045153 0.575,-1.352522 -0.742,-2.670354 -0.661,-0.661061 -1.201,-1.516617 -1.201,-1.901235 0,-1.09945 1.642,-0.818138 2.872,0.491932 l 1.119,1.191237 1.782,-1.611271 c 0.98,-0.886198 2.186,-1.837212 2.679,-2.113363 0.851,-0.476777 0.854,-0.548409 0.07,-1.420718 -0.93,-1.028597 -1.11,-2.525615 -0.304,-2.525615 0.29,0 1.145,0.440949 1.902,0.979887 l 1.375,0.979888 2.438,-1.236447 c 2.354,-1.193906 2.413,-1.272652 1.702,-2.288792 -0.405,-0.57879 -0.737,-1.560939 -0.737,-2.182554 0,-1.775302 1.541,-1.127206 2.055,0.864121 0.238,0.925082 0.515,1.764337 0.613,1.865011 0.1,0.100674 1.386,-0.306691 2.86,-0.905256 l 2.679,-1.088301 -0.322,-2.146695 c -0.289,-1.928427 -0.229,-2.12921 0.581,-1.974721 0.65,0.12389 0.97,0.708367 1.143,2.090407 0.238,1.902189 0.256,1.917439 2.162,1.800974 2.682,-0.163923 3.122,-0.408423 3.122,-1.731672 0,-1.518047 1.111,-2.494943 1.838,-1.617377 0.289,0.347551 0.401,1.103579 0.25,1.680063 -0.214,0.819838 0,1.154743 1.013,1.537492 2.408,0.916251 3.382,0.628536 4.04,-1.193363 0.865,-2.393456 2.196,-2.292562 1.87,0.141736 -0.238,1.772083 -0.191,1.841385 1.646,2.414952 2.093,0.653801 2.795,0.450197 2.795,-0.810469 0,-0.462705 0.31,-1.261239 0.689,-1.774522 0.523,-0.70887 0.824,-0.799397 1.253,-0.376538 0.432,0.426419 0.425,0.979598 -0.03,2.363727 -0.529,1.605821 -0.498,1.878407 0.281,2.448123 1.331,0.973962 1.959,0.781466 2.614,-0.801218 0.363,-0.878752 0.949,-1.442316 1.499,-1.442316 1.161,0 1.141,0.703061 -0.07,2.670737 l -0.978,1.582302 1.747,1.332911 c 1.49,1.137764 1.806,1.224824 2.159,0.594646 0.97,-1.734626 2.252,-2.94646 2.775,-2.622927 0.897,0.554834 0.652,1.529435 -0.763,3.033827 l -1.321,1.404691 1.277,1.050013 c 1.362,1.119743 2.326,1.355718 2.326,0.569242 0,-0.264425 0.541,-0.480773 1.202,-0.480773 1.374,0 1.542,0.748285 0.442,1.965431 -0.614,0.678467 -0.651,1.041417 -0.195,1.894863 0.482,0.900605 0.836,1.012243 2.412,0.760111 2.318,-0.371029 2.874,0.385333 1.232,1.677805 l -1.234,0.971119 1.478,2.930521 c 0.814,1.611787 1.948,5.0234 2.521,7.581362 0.575,2.566695 1.264,4.577014 1.536,4.486093 0.272,-0.09061 0.918,0.145007 1.436,0.523598 0.781,0.571171 0.937,1.247464 0.915,3.97285 -0.04,4.775897 -1.203,8.207047 -3.485,10.259787 -1.032,0.92773 -2.37,2.65851 -2.973,3.84617 -2.661,5.23468 -5.471,8.54435 -11.093,13.06365 -7.05,5.66741 -17.889,8.06521 -27.659,6.11867 z m 13.143,-1.67333 c 5.444,-1.12525 8.482,-2.42225 12.129,-5.17831 7.993,-6.03976 11.628,-10.8514 13.857,-18.34441 1.442,-4.84715 1.667,-7.548234 1.094,-13.135275 -0.555,-5.412033 -2.314,-10.467915 -4.871,-14.000204 -0.773,-1.0686 -1.406,-2.072989 -1.406,-2.231974 0,-0.76561 -6.43,-6.58852 -9.39,-8.503786 -6.297,-4.074015 -11.464,-5.414724 -19.367,-5.024972 -5.22,0.25747 -10.334,1.673684 -14.422,3.994536 -0.892,0.506372 -2.111,1.191524 -2.71,1.52256 -2.677,1.481109 -9.152,8.823819 -10.917,12.378963 -3.253,6.554061 -4.334,16.235895 -2.566,22.989522 2.084,7.96596 2.685,9.2986 5.855,13.00257 3.422,3.99724 7.4,7.23471 11.902,9.68689 3.415,1.86016 6.037,2.64829 10.387,3.12293 5.094,0.55573 6.579,0.51597 10.425,-0.27904 z m -6.582,-14.37217 c -0.396,-0.0933 -2.288,-0.42526 -4.205,-0.73772 -3.094,-0.50432 -3.519,-0.70202 -3.784,-1.76122 -0.409,-1.6275 0.296,-2.19894 1.768,-1.4345 3.803,1.97431 9.948,2.36172 13.117,0.82688 2.631,-1.27472 3.299,-1.2615 3.107,0.0615 -0.232,1.5982 -2.872,2.87959 -6.301,3.05885 -1.64,0.0857 -3.305,0.0795 -3.702,-0.0138 z m 0.441,-13.37371 c -0.639,-1.40372 -0.268,-2.929243 0.641,-2.630749 0.765,0.251505 1.073,2.726559 0.42,3.379819 -0.339,0.33994 -0.672,0.10494 -1.061,-0.74907 z m 8.967,-7.226958 c -1.938,-1.418361 0.495,-4.123794 3.823,-4.250677 2.301,-0.08773 4.709,0.948722 4.935,2.124095 0.236,1.226438 -1.253,1.581785 -2.799,0.667852 -1.793,-1.059722 -2.359,-0.999383 -2.041,0.217596 0.45,1.722572 -2.139,2.542777 -3.918,1.241134 z m -24.901,-0.848082 c -0.932,-0.54318 -1.091,-1.961159 -0.371,-3.307933 0.615,-1.148887 3.059,-1.980852 4.798,-1.632823 1.865,0.373162 4.251,2.856739 3.484,3.624913 -0.429,0.429347 -0.77,0.374352 -1.44,-0.232464 -0.483,-0.437173 -1.406,-0.853938 -2.053,-0.926145 -0.964,-0.107624 -1.149,0.05821 -1.03,0.920113 0.09,0.660531 -0.21,1.24141 -0.81,1.56251 -1.161,0.622004 -1.499,0.620932 -2.578,-0.0082 z m 52.008,8.71461 c 0.622,-2.23957 0.611,-5.791469 -0.02,-5.791469 -0.648,0 -0.821,0.618932 -1.142,4.086559 -0.147,1.58655 -0.395,3.42551 -0.551,4.08657 -0.276,1.16284 -0.26,1.17138 0.476,0.26259 0.418,-0.51663 0.974,-1.70654 1.234,-2.64425 z m -71.121,-1.94529 c -0.233,-1.189913 -0.436,-3.353387 -0.451,-4.807723 -0.02,-1.906943 -0.16,-2.443164 -0.5,-1.923088 -0.461,0.703934 -0.251,6.259469 0.322,8.545421 0.508,2.02777 1.066,0.41935 0.629,-1.81461 z m -141.951,24.07458 c -1.322,-0.17017 -3.484,-0.86106 -4.805,-1.53531 -1.321,-0.67424 -2.834,-1.44628 -3.363,-1.71563 -0.528,-0.26935 -1.792,-0.89132 -2.808,-1.38214 -1.668,-0.80577 -4.638,-4.26777 -4.638,-5.40667 0,-1.55355 -2.671,-1.99996 -12.242,-2.04614 -4.963,-0.0239 -7.144,-0.26619 -10.684,-1.18666 -5.479,-1.42449 -6.849,-2.11569 -8.738,-4.40918 -1.809,-2.19612 -2.224,-4.13183 -1.479,-6.899835 0.962,-3.575763 7.299,-9.006294 13.205,-11.316313 8.831,-3.454416 9.673,-3.630137 19.938,-4.161866 8.343,-0.43219 10.834,-0.391808 16.291,0.264109 5.398,0.648734 6.801,0.992573 8.648,2.120175 3.034,1.851823 4.847,5.411097 4.847,9.513264 0,3.867206 -1.089,7.416836 -2.772,9.029846 -1.456,1.39628 -5.732,2.99097 -11.881,4.43075 -5.082,1.19002 -5.365,1.46551 -4.54,4.41454 0.516,1.84528 1.404,3.06689 4.395,6.04812 3.364,3.35311 4.436,4.81288 3.388,4.61604 -0.198,-0.0372 -1.441,-0.20692 -2.762,-0.3771 z m -3.64,-4.23857 c -0.641,-0.72487 -1.333,-1.44488 -1.54,-1.60001 -0.206,-0.15513 -0.801,-1.40332 -1.321,-2.77376 -1.075,-2.83097 -1.268,-6.744 -0.346,-7.01505 0.331,-0.0971 3.412,-0.75399 6.847,-1.45978 9.886,-2.03137 12.252,-4.13797 12.249,-10.906247 0,-4.13143 -0.86,-5.943454 -3.703,-7.823323 -3.247,-2.146818 -13.915,-2.972002 -27.025,-2.090348 -9.803,0.659287 -16.847,3.25494 -23.426,8.632423 -4.158,3.398945 -4.937,4.430308 -4.937,6.532865 0,3.83261 2.787,6.0805 9.608,7.74896 3.282,0.80264 5.783,1.01274 12.732,1.06956 4.756,0.0389 8.891,0.16331 9.188,0.27651 0.297,0.1132 0.931,1.11254 1.409,2.22077 1.126,2.61225 2.86,4.48471 5.255,5.67469 1.058,0.52551 2.68,1.37706 3.605,1.89234 2.325,1.29523 2.777,1.17302 1.405,-0.3796 z"
         id="path1" /></g></g></svg>
