<?xml version="1.0" encoding="UTF-8" standalone="no"?>
<!-- Created with Inkscape (http://www.inkscape.org/) -->

<svg
   width="61.221001mm"
   height="62.240601mm"
   viewBox="0 0 61.221 62.240601"
   version="1.1"
   id="svg1"
   xml:space="preserve"
   inkscape:export-filename="2ndPluralPro.svg"
   inkscape:export-xdpi="96"
   inkscape:export-ydpi="96"
   xmlns:inkscape="http://www.inkscape.org/namespaces/inkscape"
   xmlns:sodipodi="http://sodipodi.sourceforge.net/DTD/sodipodi-0.dtd"
   xmlns="http://www.w3.org/2000/svg"
   xmlns:svg="http://www.w3.org/2000/svg"><sodipodi:namedview
     id="namedview1"
     pagecolor="#ffffff"
     bordercolor="#000000"
     borderopacity="0.25"
     inkscape:showpageshadow="2"
     inkscape:pageopacity="0.0"
     inkscape:pagecheckerboard="0"
     inkscape:deskcolor="#d1d1d1"
     inkscape:document-units="mm"><inkscape:page
       x="0"
       y="0"
       width="61.221001"
       height="62.240601"
       id="page2"
       margin="0"
       bleed="0" /></sodipodi:namedview><defs
     id="defs1" /><g
     inkscape:label="Layer 1"
     inkscape:groupmode="layer"
     id="layer1"
     transform="translate(1472.671,3650.7208)"><path
       id="path936"
       d="m -1472.5017,-3650.5514 h 60.8824 v -0.1694 h -60.8824 z"
       style="fill:#000000;fill-opacity:1;fill-rule:evenodd;stroke:none;stroke-width:0.352778" /><path
       id="path941-9"
       d="m -1472.671,-3588.6495 h 0.1693 v -61.8984 h -0.1693 z"
       style="fill:#000000;fill-opacity:1;fill-rule:evenodd;stroke:none;stroke-width:0.352778" /><path
       id="path942"
       d="m -1411.6193,-3588.6495 h 0.1693 v -61.8984 h -0.1693 z"
       style="fill:#000000;fill-opacity:1;fill-rule:evenodd;stroke:none;stroke-width:0.352778" /><path
       id="path952"
       d="m -1472.5017,-3588.4802 h 60.8824 v -0.1693 h -60.8824 z"
       style="fill:#000000;fill-opacity:1;fill-rule:evenodd;stroke:none;stroke-width:0.352778" /><g
       id="g1103"
       transform="matrix(0.19568765,0,0,0.19568765,-3552.1299,-3743.1048)"><path
         style="fill:#000000"
         d="m 10673.004,725.55929 c 2.648,-5.33791 4.769,-10.53593 4.943,-12.11641 0.06,-0.54093 -0.687,-0.79196 -3.066,-1.03116 -1.73,-0.17389 -4.671,-0.77027 -6.536,-1.32527 -1.864,-0.555 -4.074,-1.0091 -4.91,-1.0091 -1.164,0 -1.624,-0.27068 -1.96,-1.15352 -0.241,-0.63443 -0.668,-1.29526 -0.948,-1.46851 -0.796,-0.49161 -0.676,-0.77488 2.104,-4.97566 3.828,-5.78147 4.589,-8.30027 4.589,-15.1723 0,-5.63883 -1.054,-11.23487 -3.15,-16.72468 -0.828,-2.16808 -0.894,-4.04328 -0.151,-4.29089 0.398,-0.13257 0.386,-1.09726 -0.05,-3.65492 -0.322,-1.91115 -0.474,-3.76603 -0.338,-4.12195 0.137,-0.35593 0.05,-0.84263 -0.186,-1.08157 -0.538,-0.53805 0.637,-8.58485 1.742,-11.9241 2.238,-6.76564 6.402,-12.7395 10.91,-15.6523 1.618,-1.04559 3.438,-2.02549 4.045,-2.17755 1.311,-0.32907 1.289,-0.1007 0.331,-3.39519 -0.734,-2.52156 -0.727,-2.69435 0.132,-3.55302 0.833,-0.83231 2.042,-0.92162 15.538,-1.14749 23.748,-0.39742 32.997,-0.66878 48.734,-1.42984 18.761,-0.90734 17.266,-0.94681 18.707,0.49384 1.419,1.41844 1.528,2.55607 0.445,4.64986 -0.666,1.28687 -0.73,2.58087 -0.443,8.97728 0.563,12.57343 0.687,15.63409 1.196,29.55646 0.684,18.68978 1.023,23.67695 1.647,24.19418 0.751,0.62275 10.613,4.40955 16.387,6.29233 2.642,0.86124 5.039,1.75158 5.328,1.97854 0.417,0.3274 7.487,2.89385 11.243,4.08144 1.205,0.38087 5.19,-1.67857 8.329,-4.30341 4.415,-3.69304 4.455,-3.71874 5.258,-3.41063 0.409,0.15698 0.87,0.61398 1.024,1.01554 0.411,1.06999 -2.474,6.1719 -4.903,8.66943 -2.56,2.63299 -2.215,3.25464 1.789,3.23186 2.32,-0.0132 3.526,-0.37289 6.971,-2.07935 3.752,-1.85868 5.542,-2.23192 5.542,-1.15563 0,0.20881 -0.469,0.67257 -1.043,1.03058 -6.787,4.23751 -12.025,5.33212 -16.446,3.43757 -2.382,-1.0207 -2.938,-2.40404 -1.28,-3.18411 1.114,-0.52361 7.361,-7.43642 7.025,-7.77256 -0.131,-0.13058 -1.162,0.51326 -2.291,1.43074 -3.65,2.96589 -8.397,5.33625 -10.031,5.00955 -1.709,-0.34171 -12.248,-4.0142 -13.633,-4.75063 -0.529,-0.28093 -2.149,-0.89029 -3.602,-1.35415 -4.894,-1.56254 -11.282,-3.88306 -11.766,-4.27387 -0.264,-0.21334 -1.732,-0.67668 -3.261,-1.02965 -3.165,-0.73026 -3.358,-1.05839 -3.077,-5.21503 0.1,-1.45218 0.02,-5.5567 -0.179,-9.12114 -0.197,-3.56445 -0.507,-10.58533 -0.688,-15.60196 -0.181,-5.01663 -0.398,-9.68893 -0.482,-10.3829 -0.08,-0.69396 -0.309,-5.17097 -0.501,-9.94891 -0.192,-4.77795 -0.516,-8.58351 -0.721,-8.45681 -0.58,0.35844 -2.447,4.4984 -6.919,15.34693 -0.87,2.11227 -2,4.59658 -2.51,5.5207 -0.51,0.92411 -1.211,2.4363 -1.557,3.36042 -0.347,0.92411 -1.137,2.76034 -1.756,4.08051 -1.026,2.1885 -4.276,9.6238 -7.975,18.24229 -0.793,1.84823 -2.847,6.81685 -4.564,11.04138 -3.185,7.83449 -5.872,13.57552 -9.282,19.82732 -1.051,1.9279 -1.912,4.16018 -1.912,4.96062 0,0.95451 -0.206,1.3842 -0.6,1.24859 -0.969,-0.33362 -0.638,-4.64432 0.543,-7.07415 0.578,-1.18815 1.856,-3.56445 2.84,-5.28066 0.985,-1.71622 3.171,-6.25279 4.858,-10.08127 1.688,-3.82848 3.453,-7.82498 3.923,-8.88111 0.47,-1.05613 1.434,-3.43243 2.142,-5.28066 0.708,-1.84823 2.313,-5.5207 3.567,-8.16103 1.254,-2.64033 2.443,-5.34067 2.642,-6.00075 0.621,-2.0563 3.454,-8.30524 7.949,-17.53304 1.803,-3.70242 3.813,-8.13098 4.465,-9.84123 0.653,-1.71025 1.858,-4.58787 2.679,-6.39471 0.82,-1.80683 1.491,-4.01038 1.491,-4.89676 0,-1.03262 0.302,-1.78343 0.841,-2.08988 0.668,-0.38043 0.731,-0.65539 0.307,-1.34402 -0.477,-0.77369 -1.32,-0.86575 -7.924,-0.86575 -8.686,0 -72.614,1.74239 -72.902,1.98697 -0.428,0.36287 1.015,4.08122 1.683,4.33743 0.391,0.15009 1.946,-0.0674 3.454,-0.48334 4.113,-1.13348 14.876,-2.24312 17.151,-1.76815 1.057,0.22054 3.218,0.6567 4.803,0.96923 1.585,0.31253 4.286,0.87267 6.003,1.24474 1.717,0.37208 3.396,0.67594 3.732,0.67525 1.412,-0.003 7.005,3.19228 8.517,4.86547 2.683,2.96869 3.719,5.47335 3.719,8.99002 0,3.29774 0.594,4.88717 5.513,14.76508 1.42,2.85241 2.263,5.2409 2.418,6.85201 0.223,2.31672 0.135,2.57324 -1.385,4.05319 -1.228,1.19482 -1.834,2.4065 -2.488,4.97068 -1.223,4.79916 -1.396,4.95743 -5.753,5.28688 -3.365,0.25435 -4.672,0.81375 -3.107,1.33007 0.706,0.23302 4.074,0.68767 5.287,0.71372 0.732,0.0157 0.764,0.15834 0.24,1.07507 -3.616,6.32235 -10.051,12.2901 -15.862,14.70822 -2.005,0.83435 -3.972,1.51701 -4.371,1.51701 -1.274,0 -1.209,0.63813 0.493,4.80282 0.916,2.24306 1.876,4.77257 2.134,5.62114 0.258,0.84857 0.676,1.67142 0.931,1.82856 0.254,0.15714 0.462,0.59642 0.462,0.97618 0,0.37976 0.666,2.14924 1.48,3.93217 0.813,1.78292 1.649,3.67374 1.856,4.2018 1.101,2.80024 3.553,8.84297 4.147,10.21757 0.72,1.66505 0.886,2.98409 0.376,2.98409 -0.494,0 -2.576,-2.40284 -2.576,-2.97346 0,-0.67484 -3.061,-8.41944 -4.802,-12.14844 -1.105,-2.36835 -5.709,-13.85629 -6.894,-17.20372 -0.259,-0.73147 -1.069,-0.11489 -4.753,3.61903 -5.137,5.20546 -9.157,7.56346 -14.483,8.49538 -1.824,0.31928 -3.764,0.8929 -4.309,1.27472 -0.545,0.38181 -1.778,0.6942 -2.74,0.6942 -1.68,0 -1.801,0.11731 -3.086,2.97877 -0.735,1.63832 -2.024,4.72721 -2.863,6.8642 -2.942,7.49071 -3.721,8.83795 -5.123,8.8597 l -1.269,0.0197 z m 12.115,-16.23569 c 0.996,-0.37754 2.857,-0.68643 4.135,-0.68643 3.32,0 7.635,-2.3446 12.059,-6.55088 1.984,-1.88677 4.199,-4.52793 4.923,-5.86924 1.347,-2.49521 1.853,-6.03919 1.044,-7.30689 -0.237,-0.37155 -0.711,-1.43164 -1.052,-2.35576 -0.775,-2.09521 -3.444,-18.26029 -3.459,-20.94228 -0.01,-2.50343 1.009,-5.41761 2.864,-8.16491 0.796,-1.17967 1.448,-2.26126 1.448,-2.40354 0,-0.31459 2.023,-2.47566 8.684,-9.27688 5.484,-5.60034 6.766,-7.64891 5.775,-9.23412 -0.325,-0.51996 -0.475,-1.52129 -0.333,-2.22518 0.141,-0.70389 0.1,-2.0158 -0.101,-2.91535 -0.44,-2.00589 -1.808,-2.57204 -9.463,-3.91547 -2.905,-0.50995 -6.063,-1.11435 -7.017,-1.34311 -2.065,-0.49489 -10.257,0.11306 -15.241,1.13107 -1.941,0.3964 -3.724,0.60034 -3.962,0.45321 -0.239,-0.14713 -0.433,-0.0559 -0.433,0.20274 0,0.25864 -0.644,0.61145 -1.43,0.78402 -3.093,0.67911 -7.028,3.04944 -9.487,5.71398 -6.234,6.75689 -8.832,14.05517 -8.809,24.74791 0,3.24218 0.132,6.57229 0.277,7.40024 0.146,0.82794 0.345,2.15343 0.444,2.94553 0.1,0.7921 0.869,3.70847 1.713,6.48082 1.477,4.84791 1.527,5.28841 1.314,11.52144 -0.256,7.54075 -0.715,9.11977 -4.517,15.53883 l -2.595,4.38367 1.339,0.15443 c 0.737,0.0849 2.961,0.60271 4.942,1.15062 6.236,1.72465 13.285,1.96666 16.938,0.58153 z m 19.561,-53.49305 c 0,-0.26404 0.229,-0.48006 0.508,-0.48006 0.28,0 0.375,0.21602 0.212,0.48006 -0.163,0.26403 -0.392,0.48006 -0.508,0.48006 -0.117,0 -0.212,-0.21603 -0.212,-0.48006 z m 11.443,36.68499 c 2.821,-1.3056 4.416,-2.52512 8.044,-6.15199 2.489,-2.48797 4.525,-4.73447 4.525,-4.99222 0,-0.25775 -0.955,-0.61177 -2.122,-0.7867 -2.338,-0.35046 -2.921,-0.82837 -3.416,-2.80025 -0.532,-2.12194 0.439,-2.85407 3.336,-2.51461 4.715,0.55237 7.394,-2.33871 7.459,-8.04979 0.02,-2.17497 0.103,-2.30762 1.524,-2.59186 l 1.499,-0.29958 -0.315,-2.6757 c -0.18,-1.52978 -0.689,-3.0925 -1.189,-3.64892 -1.165,-1.29652 -2.094,-3.16178 -3.613,-7.25123 -1.23,-3.31109 -6.222,-11.22748 -7.307,-11.58631 -0.299,-0.0987 -1.094,0.74802 -1.767,1.88157 -0.673,1.13355 -3.779,4.56508 -6.901,7.62562 -6.203,6.08012 -8.996,9.75236 -10.313,13.56149 -0.978,2.82924 -1.149,6.5835 -0.337,7.39528 0.303,0.30257 0.604,1.80396 0.669,3.33642 0.22,5.17748 1.451,11.4199 2.544,12.90355 0.752,1.01897 1.121,2.42254 1.347,5.11629 0.311,3.69397 0.318,3.71076 1.563,3.43472 0.688,-0.15256 2.834,-1.01017 4.77,-1.90578 z m 9.207,-33.32457 c -0.396,-0.25595 -1.854,-0.46867 -3.241,-0.47271 -1.853,-0.005 -2.522,-0.18784 -2.522,-0.68818 0,-1.31411 0.622,-2.27711 1.747,-2.70448 0.624,-0.23728 1.135,-0.73379 1.135,-1.10337 0,-0.39907 0.494,-0.67197 1.217,-0.67197 0.669,0 1.604,-0.35104 2.078,-0.7801 0.475,-0.42905 1.008,-0.78009 1.185,-0.78009 0.509,0 0.375,1.83093 -0.158,2.16027 -0.264,0.16318 -0.48,0.91927 -0.48,1.68021 0,0.76093 0.216,1.51703 0.48,1.68021 0.69,0.42626 0.593,2.16165 -0.12,2.15292 -0.33,-0.004 -0.924,-0.21676 -1.321,-0.47271 z m 3.362,-19.85551 c 0,-0.62324 -0.54,-1.92899 -1.2,-2.90168 -0.661,-0.97268 -1.201,-1.93454 -1.201,-2.13745 0,-0.2029 -0.648,-0.98982 -1.441,-1.7487 -1.609,-1.54149 -1.72,-1.22164 -0.794,2.28764 0.382,1.45044 1.209,2.87632 2.26,3.89619 2.025,1.96694 2.376,2.05622 2.376,0.604 z m 159.174,89.87936 c -0.544,-0.264 -1.364,-1.1675 -1.822,-2.00776 -0.814,-1.49114 -3.934,-5.1282 -4.399,-5.1282 -0.129,0 -0.234,0.19343 -0.234,0.42985 0,0.93464 -2.679,6.28783 -3.26,6.51403 -0.863,0.33623 -1.332,-1.15126 -0.657,-2.08852 0.838,-1.16565 2.957,-5.84968 2.957,-6.53755 0,-0.33143 -0.919,-1.81156 -2.041,-3.28918 -1.123,-1.47763 -2.582,-3.46077 -3.242,-4.40698 -0.66,-0.94622 -1.431,-1.97752 -1.712,-2.29179 -0.282,-0.31427 -1.356,-2.08188 -2.388,-3.92801 -1.031,-1.84614 -3.181,-4.97853 -4.776,-6.96088 -1.594,-1.98234 -3.47,-4.36035 -4.166,-5.28447 -0.697,-0.92411 -1.675,-2.11226 -2.172,-2.64033 -0.982,-1.04246 -3.035,-4.24662 -3.035,-4.73725 0,-0.16686 0.272,-0.30338 0.605,-0.30338 0.871,0 2.805,1.90837 5.45,5.37768 1.267,1.66286 2.448,3.13139 2.624,3.2634 0.522,0.39184 5.248,6.66177 5.248,6.96291 0,0.15228 0.403,0.8622 0.896,1.5776 0.492,0.7154 1.735,2.56036 2.761,4.0999 3.742,5.61363 4.294,6.39672 5.807,8.22778 l 1.541,1.86408 0.501,-1.40488 c 0.275,-0.77269 0.724,-1.79131 0.996,-2.26362 0.742,-1.28547 3.992,-7.86704 5.502,-11.14277 0.73,-1.5842 2.788,-5.90474 4.573,-9.60121 1.784,-3.69646 3.405,-7.26091 3.601,-7.92099 0.379,-1.27333 6.288,-12.78957 7.08,-13.79562 0.256,-0.32668 0.328,-0.9544 0.159,-1.39495 -0.283,-0.7378 -1.983,-0.77638 -21.545,-0.48911 -11.68,0.17154 -29.827,0.31321 -40.327,0.31482 l -19.09,0.003 v 1.5734 c 0,0.86537 0.3,2.00071 0.666,2.523 0.366,0.52228 0.889,1.70449 1.163,2.62713 0.274,0.92264 1.607,4.37787 2.964,7.67828 1.356,3.30041 3.189,8.05301 4.073,10.56132 0.884,2.50832 2.245,6.18078 3.024,8.16103 1.343,3.41478 5.14,13.36205 8.031,21.04112 0.983,2.61025 1.185,3.65863 0.784,4.05994 -0.862,0.86172 -1.694,-0.40006 -3.414,-5.17856 -0.856,-2.3763 -2.071,-5.46059 -2.7,-6.85398 -0.629,-1.3934 -1.144,-2.65969 -1.144,-2.81398 0,-0.1543 -0.84,-2.47069 -1.867,-5.14753 -1.026,-2.67684 -2.568,-7.02725 -3.426,-9.66758 -0.857,-2.64033 -2.041,-5.77273 -2.63,-6.96088 -0.589,-1.18815 -1.344,-3.02438 -1.678,-4.08051 -0.334,-1.05613 -0.877,-2.46031 -1.205,-3.12039 -1.085,-2.17841 -2.247,-4.99424 -3.469,-8.40105 -0.662,-1.84824 -1.416,-3.62384 -1.675,-3.94578 -0.32,-0.39663 -0.185,-1.15899 0.416,-2.3645 l 0.887,-1.77913 28.706,-0.11135 c 15.788,-0.0612 34.158,-0.25931 40.821,-0.44016 11.942,-0.32412 12.134,-0.31399 13.436,0.71046 0.726,0.5716 1.32,1.43871 1.32,1.92691 0,0.48821 -1.003,2.79482 -2.228,5.12581 -3.071,5.84022 -6.416,12.55306 -6.416,12.87442 0,0.14667 -1.297,2.86673 -2.882,6.04458 -1.585,3.17784 -2.881,5.98355 -2.881,6.2349 0,0.64493 -4.606,10.05661 -7.065,14.43788 -1.133,2.0183 -2.06,4.00717 -2.06,4.41969 0,0.41253 0.866,1.67756 1.925,2.81117 1.058,1.13361 2.401,2.7454 2.984,3.58174 0.614,0.88188 1.635,1.6358 2.43,1.79482 1.37,0.27396 9.941,-0.75366 13.244,-1.58805 0.962,-0.24287 3.045,-0.58492 4.63,-0.76012 3.9,-0.43114 6.18,-0.78362 6.555,-1.01333 0.172,-0.10513 2.404,-0.40794 4.96,-0.67291 2.557,-0.26497 5.496,-0.61726 6.532,-0.78286 1.529,-0.2444 1.883,-0.15713 1.883,0.46346 0,1.16181 -1.295,1.59833 -5.704,1.92227 -2.212,0.16258 -5.67,0.61446 -7.684,1.00417 -2.013,0.38972 -6.578,1.16965 -10.144,1.73319 -3.566,0.56354 -7.52,1.22145 -8.788,1.46203 -2.943,0.55847 -6.539,0.50892 -7.809,-0.1076 z m -77.051,-10.7338 c -4.193,-0.98275 -6.724,-2.18556 -6.724,-3.19583 0,-0.95051 1.813,-1.2612 2.666,-0.45679 0.251,0.23677 2.293,0.89871 4.538,1.47096 4.292,1.094 5.117,1.52152 4.588,2.37725 -0.401,0.64855 -1.677,0.59931 -5.068,-0.19559 z m -4.923,-4.82837 c -0.198,-0.2062 -0.36,-0.71835 -0.36,-1.13812 0,-0.63221 0.639,-0.76269 3.722,-0.7601 2.047,0.002 4.997,-0.10488 6.556,-0.2369 3.177,-0.26912 4.238,0.56621 1.887,1.48679 -1.646,0.64499 -11.299,1.17508 -11.805,0.64833 z m 0.961,-3.94083 c -0.962,-0.21161 -1.143,-1.84646 -0.24,-2.16993 0.33,-0.11834 0.976,-0.0217 1.436,0.21478 1.046,0.53733 6.605,-0.37308 9.249,-1.51456 5.416,-2.33816 6.15,-2.4513 5.917,-0.91209 -0.32,2.11204 -12.209,5.29579 -16.362,4.3818 z m 47.424,-44.77807 c -0.792,-0.22 -2.843,-0.76383 -4.558,-1.20853 -3.332,-0.86416 -8.176,-3.39674 -11.827,-6.1833 -1.233,-0.94125 -2.416,-1.71137 -2.627,-1.71137 -0.392,0 -3.23,-3.45624 -6.126,-7.46046 -1.072,-1.4825 -1.519,-2.555 -1.344,-3.22529 0.145,-0.55233 -0.147,-1.99244 -0.648,-3.20025 -2.061,-4.96615 -2.504,-14.39945 -0.962,-20.48153 1.496,-5.90144 6.418,-14.68851 9.473,-16.91349 1.194,-0.86898 1.211,-0.95039 0.446,-2.04224 -1.744,-2.48912 -0.312,-3.9708 1.55,-1.60409 l 0.976,1.2397 1.673,-1.27616 c 1.507,-1.14889 1.621,-1.3935 1.138,-2.45287 -0.4,-0.87623 -0.394,-1.31886 0.02,-1.7334 0.423,-0.42222 0.854,-0.278 1.786,0.59703 1.553,1.45847 2.866,0.84144 2.866,-1.34678 0,-0.80733 0.153,-1.62057 0.339,-1.80721 0.605,-0.60384 1.822,0.20116 1.822,1.20439 0,1.02642 0.902,1.21205 2.623,0.53959 0.628,-0.2455 0.948,-0.83384 0.96,-1.76648 0.01,-1.07209 0.243,-1.39838 0.98,-1.39838 0.63,0 1.013,0.37118 1.113,1.08014 0.253,1.78007 4.039,1.10851 4.539,-0.80526 0.325,-1.24255 1.791,-0.83611 1.791,0.49657 0,0.71854 0.352,0.90876 1.681,0.90876 1.361,0 1.681,-0.18288 1.681,-0.96012 0,-0.64008 0.32,-0.96012 0.961,-0.96012 0.704,0 0.96,0.32004 0.96,1.20015 0,0.66008 0.162,1.21815 0.36,1.24016 0.198,0.022 0.858,0.0947 1.466,0.16165 0.673,0.074 1.291,-0.22359 1.578,-0.7601 0.701,-1.30913 1.879,-1.10303 1.879,0.3287 0,0.82655 0.382,1.38456 1.205,1.75944 1.032,0.47015 1.372,0.39252 2.366,-0.54065 1.422,-1.3356 2.388,-0.88722 2.022,0.93919 -0.33,1.64984 1.14,2.29579 2.02,0.88753 0.307,-0.49254 0.91,-0.89553 1.338,-0.89553 0.623,0 0.725,0.33837 0.507,1.68021 -0.15,0.92412 -0.156,1.68021 -0.01,1.68021 0.143,0 0.902,-0.54006 1.687,-1.20015 2.336,-1.96482 3.041,-1.3788 1.493,1.24095 l -0.821,1.38909 2.909,2.87218 c 3.103,3.06364 6.755,8.15826 8.103,11.30301 1.636,3.81893 3.155,6.79519 5.512,10.79824 1.321,2.24428 2.403,4.4797 2.404,4.96759 0,0.4879 -1.283,2.0749 -2.855,3.52667 -2.517,2.3258 -2.926,2.96221 -3.437,5.35369 -0.32,1.49277 -0.768,2.92472 -0.997,3.18212 -0.229,0.25739 -1.545,0.83718 -2.925,1.28841 -1.381,0.45123 -2.168,0.8347 -1.751,0.85217 0.418,0.0175 1.032,0.5411 1.366,1.16364 0.518,0.96744 0.455,1.42665 -0.43,3.16092 -3.297,6.46116 -14.542,13.61797 -23.41,14.89971 -3.867,0.55901 -10.836,0.55465 -12.863,-0.008 z m 17.439,-3.131 c 4.554,-1.39315 6.389,-2.33934 10.16,-5.24048 6.233,-4.79408 8.233,-7.99398 5.356,-8.56913 -1.892,-0.37821 -3.021,-1.62654 -2.845,-3.14431 0.137,-1.18178 0.339,-1.27708 3.268,-1.53853 5.49,-0.49025 5.081,-0.0633 6.84,-7.13787 0.573,-2.30029 0.829,-2.66214 2.128,-2.99846 2.497,-0.64693 2.803,-1.4564 1.543,-4.08789 -0.605,-1.26455 -1.669,-2.94726 -2.364,-3.73935 -0.696,-0.7921 -1.529,-2.41231 -1.852,-3.60046 -1.094,-4.02733 -4.817,-10.8359 -7.615,-13.92678 -3.325,-3.67316 -9.747,-7.93307 -14.268,-9.46433 -13.278,-4.49754 -26.734,-1.01275 -36.404,9.4275 -3.02,3.26156 -6.003,9.04469 -7.567,14.67447 -1.491,5.36192 -1.196,12.78853 0.713,18.01149 0.725,1.98025 1.51,3.80568 1.747,4.05651 0.236,0.25083 0.429,1.04972 0.429,1.7753 0,1.27868 3.041,5.41719 5.82,7.91976 2.437,2.19426 9.376,6.43289 11.685,7.13772 1.334,0.40701 3.142,0.96906 4.017,1.24899 2.375,0.75939 9.569,1.20993 12.576,0.78762 1.453,-0.204 4.437,-0.9203 6.633,-1.59177 z m -13.724,-18.92418 c -1.127,-0.51116 -2.181,-1.31651 -2.343,-1.78968 -0.162,-0.47316 -0.836,-2.00168 -1.498,-3.3967 -1.016,-2.14203 -1.154,-2.94884 -0.891,-5.18903 0.578,-4.91676 3.397,-7.87653 7.501,-7.87653 2.422,0 3.842,0.69699 3.842,1.88577 0,1.05268 -1.387,1.72068 -2.098,1.01033 -0.83,-0.82996 -3.917,-0.5838 -4.792,0.38211 -0.437,0.48285 -0.794,1.13093 -0.794,1.44018 0,0.30925 -0.19,0.56228 -0.422,0.56228 -0.232,0 -0.672,0.60211 -0.977,1.33803 -0.454,1.09677 -0.377,1.89747 0.428,4.44056 1.41,4.45258 2.699,5.74285 5.742,5.74285 1.541,0 1.929,0.79095 0.896,1.82423 -0.816,0.81499 -2.226,0.70005 -4.594,-0.3744 z m 20.813,-16.21644 c -0.733,-0.73243 -0.169,-2.09724 1.045,-2.53073 2.167,-0.77344 4.11,-1.95147 5.732,-3.47566 2.249,-2.11365 4.244,-1.08011 2.083,1.07965 -1,0.99976 -0.881,2.15877 0.267,2.59903 0.974,0.37364 0.844,1.40092 -0.265,2.09308 -0.944,0.58921 -8.312,0.78429 -8.862,0.23463 z m -136.666,33.0089 c 0,-0.26403 0.216,-0.48006 0.48,-0.48006 0.265,0 0.481,0.21603 0.481,0.48006 0,0.26403 -0.216,0.48006 -0.481,0.48006 -0.264,0 -0.48,-0.21603 -0.48,-0.48006 z m -23.772,-43.65457 c -3.692,-0.91078 -7.722,-2.52484 -10.325,-4.13465 -2.378,-1.47054 -10.069,-9.37026 -11.267,-11.5734 -0.552,-1.01478 -1.354,-2.38512 -1.782,-3.04521 -0.427,-0.66008 -1.255,-2.74185 -1.838,-4.62616 -0.791,-2.55263 -1.35,-3.55781 -2.196,-3.94304 -0.658,-0.29956 -1.78,-1.78636 -2.668,-3.53486 -1.928,-3.79638 -2.139,-8.11642 -0.547,-11.19447 1.019,-1.97124 3.003,-3.46131 3.885,-2.91696 0.595,0.36807 2.005,-0.96152 2.005,-1.8915 0,-1.78101 5.246,-9.93766 9.265,-14.40595 3.392,-3.77105 11.719,-7.67538 19.986,-9.37143 4.616,-0.94692 7.459,-1.63749 13.731,-3.33581 8.886,-2.40585 13.687,-2.81897 13.687,-1.17774 0,0.50613 -0.538,0.71094 -1.869,0.71094 -3.067,0 -18.748,3.64709 -19.678,4.57663 -0.374,0.37362 8.306,-0.14823 11.702,-0.70356 1.585,-0.25915 5.097,-0.73235 7.805,-1.05155 4.569,-0.53866 6.05,-0.42833 5.231,0.38976 -0.287,0.28708 -7.287,1.51511 -13.636,2.39232 -2.43,0.33572 -2.575,0.77968 -0.531,1.62599 1.473,0.60987 4.692,0.36865 17.641,-1.32179 1.658,-0.2164 2.056,-0.13405 1.885,0.38931 -0.249,0.7566 -1.296,1.00523 -9.15,2.17259 -3.104,0.46128 -5.643,0.99803 -5.643,1.19278 0,0.43825 1.987,1.14391 2.642,0.93836 0.264,-0.0829 1.776,-0.24078 3.361,-0.35086 1.585,-0.11008 5.324,-0.51711 8.309,-0.90452 6.155,-0.79884 11.622,-0.9206 11.622,-0.25886 0,0.24503 -1.243,0.57104 -2.762,0.72445 -4.815,0.48638 -18.85,2.71134 -18.85,2.98832 0,0.0902 1.42,1.62182 3.154,3.40355 2.482,2.54961 3.7,4.36413 5.719,8.52018 3.254,6.69829 4.337,11.35806 3.898,16.7704 -0.293,3.60622 -0.236,4.00687 0.69,4.84431 0.871,0.78844 0.965,1.24266 0.684,3.33083 -0.179,1.32984 -0.487,2.63392 -0.685,2.89795 -0.198,0.26404 -0.494,1.04054 -0.657,1.72556 -0.163,0.68503 -1.436,2.28938 -2.828,3.56522 -1.392,1.27585 -4.717,4.38783 -7.388,6.91553 -4.672,4.41977 -7.313,6.13417 -12.912,8.38251 -5.524,2.21803 -13.736,2.75388 -19.69,1.28483 z m 17.439,-2.39131 c 7.155,-2.31136 14.206,-7.63424 18.304,-13.81906 3.539,-5.34033 5.633,-13.64082 5.184,-20.54514 -0.238,-3.6697 -2.499,-11.3214 -3.9,-13.20166 -0.295,-0.39605 -0.955,-1.54458 -1.466,-2.55228 -1.175,-2.31868 -9.054,-9.87083 -11.569,-11.09105 -1.046,-0.50696 -2.891,-1.41884 -4.101,-2.0264 -3.156,-1.58385 -10.424,-2.74771 -14.749,-2.36153 -7.674,0.68533 -15.796,4.36192 -20.083,9.09162 -3.119,3.44089 -6.608,8.8616 -7.913,12.29501 -2.242,5.89892 -2.722,13.07003 -1.3,19.44723 1.924,8.63122 8.755,18.10866 15.671,21.7422 2.954,1.55209 9.059,3.76579 11.364,4.12108 3.235,0.49843 11.556,-0.13033 14.558,-1.10002 z m -14.318,-7.75534 c -4.988,-0.6206 -7.353,-1.49737 -8.074,-2.99345 -0.346,-0.71944 -0.498,-1.72163 -0.338,-2.2271 0.365,-1.15047 2.766,-1.71959 4.482,-1.06257 2.899,1.10972 6.848,1.99706 8.888,1.99706 2.911,0 3.687,0.36589 3.687,1.73862 0,0.78886 -0.496,1.45788 -1.561,2.10712 -1.662,1.01325 -2.206,1.04707 -7.084,0.44032 z m -0.72,-3.09298 c -4.344,-1.3068 -6.183,-1.49212 -5.883,-0.59301 0.11,0.33004 1.456,0.75836 2.993,0.95181 1.536,0.19346 2.905,0.46349 3.042,0.60008 0.137,0.13658 1.023,0.23676 1.969,0.22261 1.423,-0.0213 1.056,-0.22566 -2.121,-1.18149 z m 1.456,-9.40457 c -0.717,-0.72022 -0.825,-1.13984 -0.448,-1.73761 1.534,-2.43062 3.42,-1.84164 2.723,0.84996 -0.501,1.93037 -1.031,2.13723 -2.275,0.88765 z m 11.811,-7.09043 c -0.495,-0.49507 -0.999,-1.19461 -1.119,-1.55455 -0.175,-0.5267 -0.461,-0.54366 -1.464,-0.0869 -1.026,0.46719 -1.356,0.43524 -1.867,-0.18069 -0.523,-0.62942 -0.444,-0.8919 0.497,-1.65331 1.588,-1.28572 7.502,-1.26748 9.056,0.0279 0.594,0.4956 1.08,1.13649 1.08,1.42421 0,0.65614 -1.76,0.69122 -2.161,0.0431 -0.524,-0.8471 -1.119,-0.5125 -0.859,0.48262 0.283,1.08118 -0.596,2.39774 -1.601,2.39774 -0.364,0 -1.067,-0.40505 -1.562,-0.90011 z m -19.867,-3.11184 c -0.725,-0.27039 -1.445,-0.89303 -1.601,-1.38366 -0.183,-0.57869 -0.648,-0.84165 -1.324,-0.74859 -1.498,0.20651 -1.377,-1.5783 0.16,-2.35561 2.875,-1.45406 9.683,0.0869 10.008,2.26538 0.14,0.94165 0.01,1.04134 -0.961,0.742 -2.951,-0.90891 -3.284,-0.89483 -3.284,0.13891 0,1.34521 -1.359,1.95329 -2.998,1.34157 z m 45.167,11.44018 c -0.147,-0.14781 -0.416,0.11863 -0.596,0.59207 -0.261,0.68418 -0.206,0.73933 0.268,0.26874 0.329,-0.32564 0.476,-0.71301 0.328,-0.86081 z m 1.046,-2.05589 c 0,-0.69958 -0.07,-0.71225 -0.473,-0.0917 -0.607,0.94014 -0.607,1.57565 0,1.20015 0.265,-0.16318 0.477,-0.66199 0.473,-1.10847 z m -68.636,-12.99501 c 0.03,-3.23862 -0.08,-6.02281 -0.24,-6.18708 -0.164,-0.16428 -0.749,0.15118 -1.299,0.70101 -1.108,1.10802 -1.674,4.40871 -1.192,6.95798 0.306,1.62036 2.106,4.98303 2.472,4.61767 0.111,-0.11065 0.227,-2.85096 0.259,-6.08958 z m -20.202,-16.78485 c -0.925,-0.49921 -2.438,-1.0711 -3.362,-1.27085 -2.173,-0.4694 -5.554,-2.26194 -7.69,-4.07609 -1.608,-1.3654 -1.992,-1.45545 -8.164,-1.9107 -9.895,-0.7298 -10.738,-1.09478 -13.362,-5.78336 -1.426,-2.5471 -1.464,-2.76191 -1.026,-5.85267 0.823,-5.81131 2.682,-7.59023 9.968,-9.54212 1.985,-0.53173 3.955,-1.14342 4.378,-1.35931 0.422,-0.21589 2.345,-0.77198 4.273,-1.23575 2.955,-0.71102 4.912,-0.8006 12.486,-0.57136 10.323,0.31247 14.297,1.0426 16.85,3.09574 2.74,2.20327 3.788,4.1107 4.158,7.56974 0.407,3.79888 -0.147,5.33949 -2.853,7.92641 -2.287,2.18723 -5.543,3.39536 -12.295,4.56158 -2.509,0.43346 -5.048,0.87867 -5.643,0.98935 -0.594,0.11067 -1.08,0.51075 -1.08,0.88906 0,0.95614 3.256,4.03064 5.283,4.98812 0.924,0.43677 1.68,1.11646 1.68,1.51044 0,1.06604 -1.697,1.09988 -3.601,0.0718 z m -5.288,-5.47623 c -0.943,-1.54478 -1.29,-3.71921 -0.595,-3.72182 1.742,-0.007 9.81,-1.22845 13.057,-1.97756 6.677,-1.5406 9.634,-4.02898 9.634,-8.10793 0,-3.11853 -0.481,-4.21368 -2.978,-6.78267 -2.088,-2.14749 -2.173,-2.18232 -7.377,-3.01914 -8.005,-1.28752 -18.213,-0.92015 -23.982,0.86311 -2.378,0.73482 -5.761,1.77209 -7.518,2.30506 -3.523,1.06856 -5.161,2.45214 -6.365,5.37768 -0.945,2.29732 -0.962,3.55373 -0.07,5.67783 1.082,2.58832 3.33,4.46709 6.161,5.14978 1.916,0.46193 9.022,0.99526 13.26,0.99526 0.169,0 0.86,0.51136 1.534,1.13636 1.618,1.4994 4.854,3.60044 5.601,3.63599 0.392,0.0186 0.27,-0.5023 -0.358,-1.53195 z m 201.709,-10.92137 c 0,-0.26403 0.216,-0.48006 0.481,-0.48006 0.264,0 0.48,0.21603 0.48,0.48006 0,0.26403 -0.216,0.48006 -0.48,0.48006 -0.265,0 -0.481,-0.21603 -0.481,-0.48006 z"
         id="path2" /></g></g></svg>
