<?xml version="1.0" encoding="UTF-8" standalone="no"?>
<!-- Created with Inkscape (http://www.inkscape.org/) -->

<svg
   width="61.221001mm"
   height="62.195mm"
   version="1.1"
   viewBox="0 0 61.221 62.195"
   id="svg5"
   xmlns="http://www.w3.org/2000/svg"
   xmlns:svg="http://www.w3.org/2000/svg">
  <defs
     id="defs5" />
  <g
     transform="translate(-67.469,-109.27)"
     id="g5">
    <path
       d="m 102.43,163.9 c -0.0754,-0.12185 -0.039,-0.37614 0.37343,-2.6088 0.24506,-1.3265 0.17899,-2.3722 -0.26236,-4.1532 -0.35819,-1.4454 -0.42833,-1.9098 -0.5734,-3.7952 -0.0611,-0.79405 -0.14039,-1.473 -0.17619,-1.5088 -0.13078,-0.13069 -0.68313,0.0966 -1.169,0.48107 -0.98565,0.77996 -3.1109,2.8464 -3.4482,3.3527 -0.18936,0.28429 -0.47069,0.65989 -0.62521,0.83466 -0.4541,0.51366 -0.81383,1.2499 -0.81383,1.6656 0,0.56609 -0.41648,0.45156 -0.51514,-0.14166 -0.0406,-0.24393 -0.24871,-0.81528 -0.46257,-1.2697 -0.21384,-0.4544 -0.57595,-1.3696 -0.80468,-2.0337 -0.8441,-2.4508 -1.0343,-2.8163 -2.0174,-3.8767 -0.72488,-0.78187 -1.0772,-1.2946 -1.7904,-2.6056 -1.3452,-2.4727 -1.4704,-2.7876 -1.4699,-3.6992 v -0.83938 l -1.1453,0.70252 c -0.62995,0.38638 -1.2704,0.79798 -1.4232,0.91466 -0.1528,0.11668 -0.89707,0.48512 -1.6538,0.81876 -0.75676,0.33363 -1.8912,0.83409 -2.5209,1.1121 -0.62974,0.27804 -1.3167,0.57918 -1.5266,0.66921 -0.85104,0.36501 -1.7974,0.83856 -2.0673,1.0344 -0.26178,0.18996 -0.28625,0.19023 -0.28625,0.003 0,-0.27182 0.76086,-0.73827 2.1235,-1.3018 0.61312,-0.25358 1.4023,-0.59014 1.7537,-0.74793 0.35144,-0.15778 1.1594,-0.51871 1.7955,-0.80207 1.1674,-0.52002 1.5035,-0.69526 2.66,-1.3868 1.4014,-0.83801 2.3248,-1.517 3.0214,-2.2216 0.40233,-0.40697 0.7315,-0.76896 0.7315,-0.80443 0,-0.0355 -0.1288,-0.26317 -0.28623,-0.506 -0.24712,-0.38118 -0.35579,-0.442 -0.79513,-0.44504 -0.62219,-0.004 -0.67897,-0.0418 -1.1813,-0.77956 -0.75078,-1.1027 -0.93972,-1.7897 -0.93914,-3.4145 0,-2.2436 0.0566,-2.6823 0.40005,-3.1464 0.16791,-0.22687 0.37926,-0.41249 0.46974,-0.41249 0.0905,0 0.19064,-0.12869 0.2226,-0.28599 0.14406,-0.70854 0.17391,-1.434 0.0672,-1.6331 -0.0713,-0.13312 -0.0667,-0.48614 0.0122,-0.91157 0.0844,-0.45578 0.0857,-0.80673 0.004,-1.0215 -0.12113,-0.31827 0.11938,-1.3091 0.83177,-3.4269 0.13835,-0.41129 0.16314,-0.65641 0.0771,-0.76263 -0.0697,-0.0861 -0.16867,-0.86746 -0.21987,-1.7364 -0.0512,-0.86894 -0.14319,-1.7544 -0.20444,-1.9678 -0.10102,-0.3519 -0.0645,-0.43072 0.39401,-0.84942 0.41717,-0.38101 1.9924,-1.4132 3.2266,-2.1142 1.3012,-0.73907 3.137,-1.281 5.0452,-1.4894 0.89004,-0.0972 3.5382,0.22995 4.4526,0.55004 0.38484,0.1347 1.1808,0.39691 1.7688,0.58267 0.59176,0.18696 1.634,0.67144 2.3343,1.0851 0.69585,0.41105 1.4384,0.78537 1.65,0.83181 0.53817,0.1181 1.1931,0.52594 1.8161,1.1309 0.51538,0.50043 0.53356,0.54618 0.60799,1.5296 0.0422,0.55756 0.0286,1.0436 -0.0302,1.0801 -0.0588,0.0365 -0.20177,0.69552 -0.31771,1.4645 -0.11594,0.76899 -0.29996,1.6944 -0.40894,2.0566 -0.15877,0.52752 -0.17256,0.81807 -0.0693,1.4617 0.14383,0.89677 0.13944,3.3914 -0.006,3.6199 -0.14679,0.23004 0.0265,0.52982 0.26959,0.46631 0.30935,-0.0808 0.86505,0.3947 0.95054,0.81335 0.0395,0.19382 -0.0214,0.69206 -0.13534,1.1072 -0.15438,0.56221 -0.16883,0.76761 -0.0566,0.805 0.23034,0.0767 0.17957,0.24602 -0.0953,0.31784 -0.17053,0.0446 -0.26887,0.21487 -0.32047,0.55503 -0.13025,0.85846 -0.58737,2.3762 -0.9081,3.0152 -0.27924,0.55626 -1.1164,1.4689 -1.3543,1.4764 -0.0515,0.002 -0.29136,0.40262 -0.533,0.89111 -0.49612,1.003 -0.91197,1.6051 -1.6401,2.3746 l -0.50149,0.53006 -0.0254,1.313 c -0.014,0.72633 -0.1253,1.7267 -0.24913,2.239 -0.20502,0.84813 -0.29858,1.0066 -1.1119,1.883 -0.71615,0.77168 -0.85923,0.99164 -0.73914,1.1362 0.11959,0.14398 0.0828,0.20942 -0.18698,0.33221 -0.22894,0.10423 -0.31062,0.21652 -0.25649,0.35271 0.0437,0.10989 0.12838,0.92159 0.1882,1.8038 0.0681,1.0034 0.25866,2.2406 0.50901,3.3043 0.49958,2.1226 0.53223,3.2303 0.15663,5.316 -0.27411,1.5222 -0.42458,1.9523 -0.58962,1.6855 z m -5.8678,-8.0253 c 0.58399,-0.77675 3.1059,-3.3033 3.7202,-3.727 0.22694,-0.15652 0.41312,-0.31317 0.41376,-0.34813 0,-0.0349 -0.39963,-0.0446 -0.88948,-0.0213 -1.2046,0.0571 -2.2474,-0.29614 -3.2472,-1.0999 -0.41833,-0.33629 -0.85691,-0.64728 -0.97459,-0.69108 -0.29171,-0.10858 -2.0276,-1.4026 -2.2784,-1.6985 -0.52506,-0.61936 -1.14,-1.8438 -1.2139,-2.417 -0.0932,-0.72364 0.089,-0.6453 0.3361,0.14448 0.19981,0.63863 0.58211,1.2906 1.1032,1.8814 0.45466,0.51549 1.7195,1.4902 2.2033,1.6979 0.17494,0.0751 0.64569,0.4034 1.0461,0.72957 1.0842,0.8831 1.974,1.1342 3.636,1.0259 1.0989,-0.0716 1.3509,-0.12831 1.5584,-0.35085 0.13615,-0.14602 0.24757,-0.31745 0.24757,-0.38098 0,-0.0635 0.37383,-0.50237 0.83071,-0.97522 0.89046,-0.92151 1.0049,-1.1667 1.2776,-2.738 0.20892,-1.2036 0.21759,-1.4622 0.0576,-1.715 -0.0996,-0.15745 -0.2022,-0.11185 -0.60235,0.26779 -0.6272,0.59503 -1.3386,1.0582 -2.8994,1.8878 -1.4449,0.76798 -1.7794,0.87151 -3.1282,0.96827 -1.6794,0.12047 -2.5328,-0.31024 -4.876,-2.4608 -0.50081,-0.45961 -1.749,-2.3811 -2.2271,-3.4285 -0.0718,-0.1573 -0.16291,-0.28599 -0.20244,-0.28599 -0.17261,0 -1.1291,1.1208 -1.3018,1.5253 -0.20423,0.47863 -0.23765,1.4605 -0.0578,1.6976 0.0607,0.08 0.18838,0.34558 0.28384,0.59026 0.0955,0.24468 0.38603,0.79473 0.64567,1.2223 0.25966,0.42761 0.62838,1.1075 0.81941,1.511 0.191,0.40341 0.74427,1.1932 1.2294,1.7551 0.48519,0.5619 1.0306,1.3119 1.2121,1.6667 0.32464,0.63484 0.44492,0.94139 1.3383,3.411 0.24683,0.68238 0.54634,1.3894 0.66553,1.5712 l 0.21675,0.33049 0.27403,-0.43445 c 0.15073,-0.23895 0.50305,-0.73903 0.78293,-1.1113 z m 4.066,-8.836 c 1.9378,-1.0062 2.3826,-1.3326 3.8855,-2.8505 1.1458,-1.1573 1.4222,-1.5219 1.94,-2.5596 0.33216,-0.66554 0.60394,-1.3098 0.60394,-1.4317 0,-0.1219 0.051,-0.32091 0.11327,-0.4423 0.35131,-0.6846 1.2857,-4.4261 1.286,-5.1492 1.1e-4,-0.2639 -0.11432,-0.8053 -0.25426,-1.2031 -0.13994,-0.39781 -0.25443,-0.82891 -0.25443,-0.95801 0,-0.47436 -0.4377,-1.5686 -0.83994,-2.0998 -0.22749,-0.30045 -0.78513,-0.95822 -1.2392,-1.4617 -1.1151,-1.2365 -1.2654,-1.4398 -1.6633,-2.25 -0.1888,-0.38449 -0.42206,-0.8049 -0.51829,-0.93424 -0.20381,-0.27392 -0.44632,-0.1766 -0.44632,0.17911 0,0.16957 -0.0895,0.24834 -0.28626,0.25192 -0.26739,0.005 -0.56991,0.1947 -1.6386,1.0283 -0.42201,0.32917 -1.7686,1.0458 -3.1871,1.696 -0.39756,0.18224 -0.89672,0.52923 -1.1093,0.77108 -0.47117,0.53616 -0.64866,0.55587 -0.64866,0.072 0,-0.21806 -0.0819,-0.39912 -0.20121,-0.44487 -0.33113,-0.12695 -0.93043,-0.0876 -1.1967,0.0786 -0.21008,0.13108 -0.27842,0.11627 -0.43206,-0.0936 -0.1678,-0.22928 -0.20132,-0.23314 -0.41662,-0.0479 -0.44558,0.38334 -0.55215,0.39826 -0.55215,0.0773 0,-0.20184 0.10747,-0.35379 0.31805,-0.44964 0.17492,-0.0796 0.31803,-0.20706 0.31803,-0.28318 0,-0.21409 -0.54102,-0.01 -0.80192,0.30287 -0.12621,0.15122 -0.31171,0.37503 -0.41223,0.49737 -0.20558,0.25023 -0.6941,0.302 -0.6941,0.0736 0,-0.0819 0.0947,-0.25347 0.21053,-0.38131 0.19163,-0.21157 0.19214,-0.23244 0.005,-0.23244 -0.11282,0 -0.365,0.20019 -0.56039,0.44486 -0.50006,0.62617 -0.92252,0.6027 -0.48125,-0.0267 0.16031,-0.22867 0.0709,-0.203 -0.54068,0.1553 -1.2654,0.74129 -1.2143,0.67071 -1.247,1.7222 -0.0217,0.69932 -0.0745,0.94551 -0.20286,0.94551 -0.10043,0 -0.20219,-0.18728 -0.24169,-0.44487 l -0.0682,-0.44487 -0.16269,0.64902 c -0.0895,0.35697 -0.15513,0.95754 -0.14587,1.3346 0.009,0.37706 0.0135,1.2493 0.009,1.9384 -0.008,1.3597 0.15317,2.673 0.46199,3.7595 0.23135,0.81393 0.83048,2.1814 1.1647,2.6584 0.12983,0.18528 0.42302,0.68005 0.65149,1.0995 0.7589,1.3931 1.7692,2.819 2.2564,3.1846 0.26458,0.19856 0.80582,0.64045 1.2028,0.98197 1.0334,0.8891 2.1129,1.2181 3.576,1.09 0.96806,-0.0848 1.2132,-0.16541 2.4398,-0.80234 z m -2.2744,-1.1698 c -0.26194,-0.1417 -0.552,-0.17935 -0.98595,-0.12801 -0.33816,0.04 -0.61483,0.0238 -0.61483,-0.0359 0,-0.12865 0.69744,-0.38776 1.0437,-0.38776 0.3303,0 1.3734,0.4851 1.3734,0.6387 0,0.18344 -0.3941,0.14144 -0.81637,-0.087 z m -1.6008,-2.5055 c -0.2449,-0.0812 -0.64564,-0.25855 -0.89054,-0.39407 -0.24487,-0.13552 -0.71302,-0.37309 -1.0403,-0.52795 -0.49789,-0.23559 -0.58324,-0.32656 -0.52284,-0.5573 0.0588,-0.22464 0.13372,-0.26037 0.4042,-0.19276 0.18262,0.0456 1.597,0.14201 3.143,0.21415 l 2.811,0.13117 0.65572,-0.332 c 0.36065,-0.18259 0.65661,-0.28812 0.6577,-0.23451 0,0.0536 0.0559,0.0121 0.12192,-0.0921 0.0955,-0.151 0.15213,-0.15746 0.27792,-0.0318 0.0869,0.0868 0.26101,0.15782 0.38695,0.15782 0.12594,0 0.229,0.0572 0.229,0.12711 0,0.0699 -0.0924,0.1271 -0.20545,0.1271 -0.18915,0 -0.18915,0.0249 0,0.31329 0.113,0.17231 0.20545,0.3725 0.20545,0.44487 0,0.28311 -0.26639,0.10762 -0.57283,-0.37737 l -0.32155,-0.50895 -0.50249,0.33224 c -0.27639,0.18273 -0.63976,0.51202 -0.80751,0.73176 -0.43185,0.5657 -1.3044,0.84824 -2.5663,0.83093 -0.55975,-0.008 -1.2181,-0.0804 -1.463,-0.16162 z m 3.1415,-0.49572 c 0.15351,0.004 0.36912,-0.0926 0.47911,-0.21405 0.18841,-0.20802 0.11713,-0.22555 -1.2332,-0.30329 -2.2924,-0.13198 -3.6081,-0.10855 -3.4382,0.0612 0.0798,0.0797 0.4204,0.19456 0.75695,0.25528 0.33657,0.0607 0.84095,0.1634 1.1208,0.22818 0.27988,0.0648 0.85236,0.0836 1.2722,0.0419 0.41982,-0.0418 0.88893,-0.0729 1.0424,-0.0692 z m -6.6347,-0.71959 c -0.0867,-0.14009 0.68641,-0.89682 0.91705,-0.89767 0.26085,-0.001 0.18357,0.17998 -0.26048,0.61 -0.44786,0.43369 -0.541,0.4745 -0.65657,0.28767 z m 4.13,-1.5451 c -0.17454,-0.0718 -0.57528,-0.11295 -0.89053,-0.0914 -0.5723,0.0391 -0.57325,0.0385 -0.60704,-0.40569 -0.0275,-0.36151 -0.008,-0.40319 0.10174,-0.22244 0.0959,0.15744 0.29858,0.22244 0.69344,0.22244 0.30684,0 0.71679,0.0604 0.91102,0.13414 0.27188,0.10327 0.47717,0.0868 0.89222,-0.0716 0.40312,-0.15381 0.6028,-0.17162 0.79174,-0.0706 0.40524,0.21669 0.79471,0.16328 0.86863,-0.11911 0.0771,-0.29464 0.41849,-0.34648 0.41849,-0.0636 0,0.52749 -1.0006,0.90695 -1.5223,0.5773 -0.10388,-0.0656 -0.24485,-0.0698 -0.31806,-0.009 -0.226,0.18644 -1.0076,0.2564 -1.3393,0.11989 z m 2.3542,-4.9776 c -0.15653,-0.45868 -0.44667,-1.7572 -0.44667,-1.9991 0,-0.60537 0.31226,-0.13004 0.46278,0.70446 0.0875,0.48483 0.19754,1.0102 0.24461,1.1675 0.09,0.30071 -0.15991,0.42254 -0.26072,0.1271 z m -3.4371,-0.31776 c 0.0495,-0.12234 0.15325,-0.58076 0.23058,-1.0187 0.15047,-0.85214 0.42596,-1.0209 0.37751,-0.23132 -0.0483,0.78701 -0.28038,1.4725 -0.49855,1.4725 -0.13952,0 -0.17246,-0.0669 -0.10954,-0.22243 z m -5.3741,-1.0203 c -0.55023,-0.0591 -0.53514,-0.35575 0.0318,-0.62588 0.2449,-0.11668 0.44527,-0.26154 0.44527,-0.32192 0,-0.0604 0.24331,-0.22012 0.54068,-0.35498 1.1423,-0.51803 2.8412,-0.19456 3.3201,0.63213 0.12925,0.22315 0.20444,0.43628 0.16708,0.47361 -0.2078,0.20763 -3.1913,0.33812 -4.5049,0.19704 z m 1.5465,-0.74658 c 0.0117,-0.3928 0.005,-0.39762 -0.35689,-0.25011 -0.20288,0.0827 -0.45096,0.27393 -0.55131,0.42493 -0.17788,0.26767 -0.16897,0.27391 0.35689,0.25011 0.51221,-0.0232 0.53994,-0.0446 0.55131,-0.42493 z m 2.4186,0.22684 c 0.12051,-0.1948 -0.36216,-0.51081 -0.91514,-0.59915 -0.55486,-0.0887 -0.58661,-0.0593 -0.45718,0.42328 0.0661,0.24647 0.16153,0.28599 0.69046,0.28599 0.33755,0 0.64439,-0.0496 0.68186,-0.11012 z m 7.898,0.49762 c -1.1195,-0.0384 -2.1068,-0.11588 -2.1941,-0.17228 -0.26456,-0.1711 0.16235,-0.81509 0.73327,-1.1061 0.86799,-0.44242 1.5422,-0.46478 2.3157,-0.0768 0.80737,0.40501 1.6827,1.1542 1.5669,1.3412 -0.0459,0.0741 -0.15156,0.12329 -0.2349,0.10922 -0.0833,-0.0141 -1.0675,-0.057 -2.187,-0.0953 z m -0.77372,-0.46465 c 0.11067,-0.0424 0.20124,-0.21403 0.20124,-0.38132 0,-0.22405 -0.0702,-0.30416 -0.26662,-0.30416 -0.29335,0 -1.0056,0.45625 -1.0056,0.64418 0,0.13206 0.75798,0.16129 1.071,0.0413 z m 2.2367,0.002 c 0,-0.14355 -0.57396,-0.55214 -0.78152,-0.55634 -0.19334,-0.004 -0.36346,0.23693 -0.36346,0.51459 0,0.0642 0.25762,0.11671 0.57248,0.11671 0.31488,0 0.5725,-0.0337 0.5725,-0.075 z m -13.909,-1.7892 c -0.16293,-0.16279 -0.0828,-0.41583 0.17553,-0.55394 0.54287,-0.29028 1.6899,-0.38116 2.9896,-0.23685 1.4164,0.15728 1.8608,0.35208 1.5786,0.69192 -0.18497,0.22266 -0.29144,0.21582 -1.8931,-0.1216 -0.99954,-0.21057 -1.79,-0.16532 -2.263,0.12956 -0.31234,0.19471 -0.46069,0.21766 -0.58756,0.0909 z m 10.518,-0.1114 c -0.0731,-0.19033 0.0164,-0.37062 0.18933,-0.38086 0.0466,-0.003 0.41614,-0.13146 0.82108,-0.28599 1.103,-0.42091 1.5791,-0.37707 3.4522,0.31792 0.65807,0.24417 0.91771,0.54507 0.47032,0.54507 -0.14316,0 -0.55081,-0.1144 -0.90582,-0.25421 -0.45657,-0.1798 -0.94549,-0.25421 -1.6703,-0.25421 -0.83214,0 -1.0856,0.0478 -1.3482,0.25421 -0.38492,0.3025 -0.90321,0.33235 -1.0086,0.0581 z m -11.574,8.3573 c 0.0342,-0.0554 -0.034,-0.42639 -0.1515,-0.82453 -0.16069,-0.54406 -0.26284,-0.70836 -0.41127,-0.66139 -0.63921,0.20224 -1.0321,-0.94064 -0.98407,-2.8621 l 0.0366,-1.4617 0.35661,0.0265 c 0.34877,0.0259 0.35576,0.0134 0.31806,-0.57197 -0.0332,-0.51521 -0.0796,-0.60429 -0.33309,-0.64018 -0.57235,-0.081 -0.75142,0.34377 -0.83608,1.9836 -0.14314,2.7722 -0.0116,3.4037 0.96499,4.6358 0.35745,0.45095 0.87714,0.63889 1.0398,0.37601 z m 18.851,-0.99941 c 0.72527,-0.84333 1.1248,-2.096 1.4147,-4.4362 0.11536,-0.93111 -0.60817,-1.0101 -0.74462,-0.0813 -0.0471,0.32072 -0.006,0.44983 0.17622,0.547 0.19402,0.10375 0.22204,0.21377 0.15192,0.59697 -0.0969,0.52975 -0.78298,2.0586 -0.92377,2.0586 -0.0876,0 -0.52585,1.2752 -0.52585,1.5303 0,0.20746 0.14885,0.13645 0.45143,-0.21534 z m -19.525,-1.7451 c -0.29072,-0.46997 -0.34287,-0.84092 -0.11821,-0.84092 0.19539,0 0.037,-1.5398 -0.17169,-1.6686 -0.31581,-0.19501 -0.37817,0.0786 -0.30038,1.3179 0.0814,1.2968 0.15481,1.5582 0.54853,1.9534 0.21347,0.21432 0.2253,0.21183 0.26437,-0.0557 0.0225,-0.15401 -0.0776,-0.47175 -0.22262,-0.70608 z m 20.091,-1.3145 c 0,-0.39842 -0.0609,-0.35233 -0.17804,0.13466 -0.0568,0.23625 -0.0411,0.33208 0.0457,0.27849 0.0728,-0.0449 0.13232,-0.23086 0.13232,-0.41315 z m 0.89294,-2.8548 c -0.21272,-0.17211 -0.33909,-0.19558 -0.5231,-0.0972 -0.34838,0.18629 -0.31166,0.48004 0.0514,0.4107 0.17926,-0.0342 0.36544,0.03 0.47707,0.16453 0.17307,0.20858 0.18561,0.20775 0.22913,-0.0152 0.0259,-0.1325 -0.0769,-0.33537 -0.23445,-0.46282 z m -1.1474,-3.782 c 0,-0.0658 -0.0573,-0.15495 -0.12724,-0.19816 -0.07,-0.0432 -0.12721,0.0106 -0.12721,0.1196 0,0.10899 0.0572,0.19816 0.12721,0.19816 0.07,0 0.12724,-0.0538 0.12724,-0.1196 z m -19.397,-1.3421 c 0.064,-0.35893 0.0506,-0.47105 -0.0455,-0.38132 -0.0749,0.0699 -0.17132,0.38449 -0.21434,0.69908 -0.097,0.70941 0.12507,0.43784 0.25979,-0.31776 z m 1.7512,0.679 c 0.30345,-0.16227 0.59854,-0.42988 0.59854,-0.54282 0,-0.15482 -0.32062,-0.0602 -0.72276,0.21335 -0.61121,0.41572 -0.51488,0.6712 0.12422,0.32947 z m 15.236,-0.65076 c -0.16317,-0.15535 -0.25125,-0.19666 -0.19577,-0.0918 0.17733,0.33495 0.34994,0.51664 0.42222,0.44441 0.0386,-0.0386 -0.0633,-0.19726 -0.22645,-0.35261 z m 1.2649,-0.26689 c 0,-0.0963 -0.0858,-0.2463 -0.19081,-0.33333 -0.2023,-0.16774 -0.24829,-0.0433 -0.11362,0.30737 0.095,0.24733 0.30443,0.26519 0.30443,0.026 z m -17.199,-0.27314 c -0.0392,-0.0391 -0.1103,0.0314 -0.15809,0.15676 -0.069,0.18115 -0.0544,0.19575 0.0712,0.0712 0.0869,-0.0862 0.12602,-0.18878 0.0869,-0.22792 z m 5.6336,-0.13748 c 0.21328,-0.25673 -0.0227,-0.21166 -0.39306,0.075 -0.30224,0.23407 -0.30403,0.24272 -0.036,0.1741 0.15513,-0.0397 0.34819,-0.15183 0.42902,-0.24914 z m -0.42486,-0.77221 c 0.43733,-0.30882 0.79512,-0.58303 0.79512,-0.60936 0,-0.0263 -0.32917,0.15467 -0.73149,0.40219 -0.40235,0.24752 -0.88858,0.54363 -1.0806,0.65803 -0.19198,0.11439 -0.34941,0.2529 -0.34986,0.30779 0,0.14039 0.44204,-0.10559 1.3668,-0.75865 z m 11.036,-0.0843 c -0.2263,-0.54114 -0.50991,-0.6509 -0.3075,-0.11901 0.14353,0.37722 0.37991,0.70508 0.45455,0.6305 0.0259,-0.0259 -0.0402,-0.25608 -0.14705,-0.51149 z m -14.948,0.2432 c 0,-0.10018 0.25908,-0.39424 0.57571,-0.65348 0.66609,-0.54532 0.67601,-0.69188 0.0206,-0.30558 -0.52179,0.30758 -1.0937,1.1412 -0.78296,1.1412 0.10258,0 0.18653,-0.082 0.18653,-0.18215 z m 5.9277,-0.21884 0.24235,-0.27388 -0.38166,0.23541 c -0.51956,0.32049 -0.51189,0.31236 -0.29535,0.31236 0.10578,0 0.30136,-0.12325 0.43466,-0.27389 z m 11.692,-0.45697 c 0.0436,-0.33206 0.1266,-0.84918 0.18433,-1.1492 0.0784,-0.40752 0.0603,-0.59 -0.0716,-0.72177 -0.0971,-0.097 -0.1765,-0.25671 -0.1765,-0.35492 0,-0.32242 -0.17743,-0.36434 -0.38399,-0.0907 -0.12348,0.16357 -0.3992,0.29438 -0.70456,0.33429 -0.59994,0.0784 -1.2616,-0.13726 -1.1205,-0.36526 0.0529,-0.0855 0.0859,-0.30012 0.0735,-0.47689 -0.0345,-0.48689 0.14592,-0.68713 0.53171,-0.59039 0.38835,0.0974 0.44923,0.45965 0.0773,0.45965 -0.14137,0 -0.25445,0.0847 -0.25445,0.19066 0,0.237 0.67622,0.26209 0.85659,0.0318 0.40203,-0.51339 0.1742,-1.3989 -0.39677,-1.542 -0.47244,-0.11846 -0.69876,0.0275 -0.78914,0.5088 -0.0886,0.47186 -0.45914,0.8108 -0.88636,0.8108 -0.48622,0 -0.44939,0.16773 0.10967,0.49937 0.73956,0.43874 1.8725,1.4105 2.0111,1.725 0.0616,0.13982 0.16333,0.34 0.22598,0.44487 0.0627,0.10486 0.17608,0.34795 0.25201,0.54019 0.20466,0.51804 0.37238,0.4257 0.46176,-0.25421 z m -13.874,-0.0529 c 0.86405,-0.5096 1.0826,-0.69133 1.0868,-0.9036 0.004,-0.21119 -1.2108,0.56038 -2.0908,1.3278 -0.30419,0.26527 0.18656,0.0579 1.004,-0.4242 z m 4.5166,0.12845 c 0.35525,-0.22064 0.62116,-0.42587 0.59092,-0.45608 -0.0665,-0.0664 -1.1905,0.57972 -1.291,0.74217 -0.11872,0.19191 0.0249,0.13321 0.70004,-0.28609 z m -9.0499,-0.0471 c -0.0392,-0.0391 -0.11031,0.0314 -0.15809,0.15676 -0.069,0.18115 -0.0544,0.19575 0.0712,0.0712 0.0869,-0.0862 0.12602,-0.18878 0.0869,-0.22791 z m 15.603,-0.45029 c -0.10189,-0.16473 -0.40651,-0.14794 -0.5156,0.0284 -0.0542,0.0876 -0.0351,0.11237 0.0473,0.0615 0.076,-0.0469 0.17463,-0.0262 0.21929,0.046 0.0447,0.0722 0.13541,0.0978 0.20169,0.0568 0.0663,-0.0409 0.0875,-0.12765 0.0473,-0.19273 z m -1.5848,0.0393 c 0,-0.0532 -0.14984,-0.25807 -0.33296,-0.45539 -0.22185,-0.23903 -0.37539,-0.31637 -0.46011,-0.23173 -0.17981,0.17965 0.24419,0.61057 0.76126,0.77371 0.0175,0.006 0.0318,-0.0335 0.0318,-0.0866 z m -4.1075,-0.61652 c 0.3107,-0.23694 0.61161,-0.4308 0.66876,-0.4308 0.0571,0 0.13859,-0.0905 0.18105,-0.20101 0.0788,-0.2052 0.006,-0.16894 -1.3433,0.665 -0.25651,0.15859 -0.50699,0.35398 -0.55663,0.43421 -0.16192,0.26181 0.4526,-0.0117 1.0501,-0.4674 z m -8.6664,0.11033 c -0.0882,-0.0881 -0.32959,0.0909 -0.32959,0.24457 0,0.0843 0.073,0.0746 0.19392,-0.0256 0.10662,-0.0884 0.16769,-0.18695 0.13567,-0.21895 z m -0.63555,-0.0524 0.24236,-0.27389 -0.34986,0.22495 c -0.36073,0.23195 -0.42894,0.32282 -0.24233,0.32282 0.0591,0 0.21656,-0.12325 0.34983,-0.27388 z m -1.3663,-0.93581 c 0.16476,-0.17356 0.3555,-0.31557 0.42384,-0.31557 0.0683,0 0.46307,-0.19839 0.87717,-0.44088 0.4141,-0.24248 0.75292,-0.41275 0.75292,-0.37838 0,0.0344 0.1288,-0.0162 0.28623,-0.11241 0.15745,-0.0962 0.62974,-0.24702 1.0496,-0.33516 0.41984,-0.0881 1.0496,-0.25066 1.3994,-0.36115 0.46781,-0.14775 1.1789,-0.20183 2.6878,-0.20444 l 2.0517,-0.004 -0.20035,-0.3213 c -0.1102,-0.17671 -0.20677,-0.33423 -0.21463,-0.35005 -0.008,-0.0158 -0.31205,0.0843 -0.67595,0.22243 -0.83429,0.31673 -1.0524,0.31491 -1.4687,-0.0122 -0.52477,-0.41241 -0.38925,-1.1347 0.21291,-1.1347 0.19381,0 0.22707,0.0625 0.16492,0.30997 -0.10962,0.43627 0.11388,0.51522 0.56002,0.19783 0.4191,-0.29816 0.45651,-0.4569 0.22653,-0.9612 -0.14507,-0.31812 -0.19227,-0.33375 -0.79332,-0.26263 -0.82794,0.098 -1.2924,0.43936 -1.2392,0.91089 0.0944,0.83748 -0.61621,1.4575 -1.6705,1.4575 -0.51099,0 -0.72257,-0.19355 -0.72257,-0.66095 0,-0.29488 0.0545,-0.35589 0.31805,-0.35589 0.19788,0 0.31803,0.072 0.31803,0.19066 0,0.10486 0.0744,0.19065 0.16539,0.19065 0.48689,0 0.63881,-0.82543 0.2214,-1.2029 -0.29911,-0.27043 -0.77006,-0.18807 -1.2926,0.22605 -0.19275,0.15276 -0.49958,0.38233 -0.68183,0.51017 -0.2549,0.17878 -0.31043,0.29614 -0.24058,0.50842 0.2327,0.70723 -0.14814,1.2319 -1.131,1.558 -0.52427,0.17398 -0.65087,0.18064 -0.73858,0.0388 -0.14322,-0.23149 0.20365,-0.59717 0.61315,-0.64642 0.47556,-0.0572 0.65095,-0.40517 0.36396,-0.72201 -0.23667,-0.26129 -0.48948,-0.24185 -0.84977,0.0653 -0.10953,0.0934 -0.37801,0.20556 -0.59658,0.24924 -0.38994,0.0779 -0.39611,0.0905 -0.3275,0.66926 0.0604,0.50982 0.0271,0.6329 -0.2459,0.90716 -0.24604,0.24718 -0.29221,0.38052 -0.20894,0.6033 0.13552,0.36254 0.23434,0.35699 0.60552,-0.034 z m 9.7044,-0.5428 c -0.0918,-0.0306 -0.22735,0.005 -0.30128,0.0787 -0.0944,0.0943 -0.0447,0.11086 0.16688,0.0556 0.172,-0.045 0.22968,-0.10256 0.1344,-0.13429 z m 9.9056,-0.58652 c 0,-0.37076 -0.0572,-0.45233 -0.40065,-0.57197 -0.22035,-0.0768 -0.42683,-0.13954 -0.45887,-0.13954 -0.18836,0 0.56592,1.1223 0.76409,1.1369 0.0525,0.004 0.0954,-0.18756 0.0954,-0.4254 z m -4.4563,-0.078 c -0.50599,-0.31176 -0.63241,-0.45984 -0.63241,-0.74067 0,-0.2616 -0.0283,-0.28183 -0.19761,-0.14142 -0.28123,0.23319 -1.249,0.20308 -1.637,-0.0509 -0.35084,-0.22967 -0.42389,-0.57076 -0.1754,-0.81901 0.21225,-0.21208 0.48342,-0.19069 0.48342,0.0381 0,0.27179 0.55113,0.24091 0.81048,-0.0454 0.20052,-0.22136 0.19976,-0.25259 -0.0122,-0.50122 -0.27432,-0.32194 -0.43402,-0.35135 -1.2119,-0.22316 -0.56369,0.0929 -0.60428,0.12507 -0.60428,0.47902 0,0.41202 -0.61926,1.1097 -0.99941,1.1259 -0.45138,0.0193 0.30681,0.22753 0.86048,0.23635 0.30845,0.005 1.1385,0.18562 1.8447,0.40157 0.70615,0.21594 1.3411,0.4083 1.4111,0.42746 0.21688,0.0594 0.25688,-0.0652 0.0599,-0.1866 z m -15.644,-0.21405 c 0,-0.25561 -0.0368,-0.30644 -0.14412,-0.1992 -0.0792,0.0792 -0.10967,0.23362 -0.0676,0.34318 0.11647,0.30322 0.21172,0.23844 0.21172,-0.14398 z m 16.731,-0.67496 c 0.35168,-0.33009 0.27995,-0.95044 -0.14185,-1.2266 -0.43394,-0.28407 -1.2426,-0.085 -1.3008,0.32033 -0.0347,0.24132 0.009,0.28429 0.25443,0.24994 0.24926,-0.0349 0.29636,0.0147 0.29636,0.31213 0,0.58478 0.4504,0.75858 0.89191,0.34417 z m 3.3699,-0.26127 c 0,-0.412 -0.18497,-0.66133 -0.83843,-1.1302 -0.69459,-0.49838 -0.6903,-0.37108 0.0238,0.7037 0.47098,0.70892 0.8147,0.88886 0.8147,0.42649 z m -4.7474,-0.14258 c -0.0406,-0.10139 -0.0708,-0.0713 -0.0769,0.0768 -0.006,0.13399 0.0246,0.20906 0.0668,0.16682 0.0423,-0.0422 0.0468,-0.15186 0.0101,-0.24362 z m -14.383,-0.25641 c 0.0425,-0.0687 -0.0517,-0.10381 -0.21463,-0.08 -0.15973,0.0234 -0.31248,0.10946 -0.33944,0.19134 -0.0581,0.1765 0.43765,0.0768 0.55407,-0.11136 z m 14.04,-0.2039 c -0.003,-0.18523 -0.019,-0.18858 -0.12526,-0.0243 -0.16102,0.24892 -0.16102,0.41718 0,0.31776 0.07,-0.0432 0.12634,-0.17527 0.12526,-0.29348 z m -3.8546,-0.0464 c 0.6351,-0.59611 0.13186,-1.3492 -0.78653,-1.177 -0.48358,0.0906 -0.65402,0.29612 -0.52475,0.63268 0.0573,0.14914 0.13274,0.16544 0.31493,0.068 0.31179,-0.16672 0.42651,-0.0422 0.25543,0.27713 -0.10255,0.19147 -0.0937,0.28039 0.0363,0.36266 0.26197,0.16586 0.38389,0.13757 0.70462,-0.16348 z m 0.93432,-0.11203 c 0.0728,-0.13592 0.0823,-0.24713 0.0212,-0.24713 -0.0612,0 -0.17815,0.14664 -0.25988,0.32586 -0.16912,0.37083 0.0338,0.30393 0.23876,-0.0787 z m -11.926,0.08 c 0.15499,-0.0997 0.65087,-0.2758 1.102,-0.39129 0.55087,-0.14104 1.0522,-0.38591 1.5266,-0.74573 0.94565,-0.71719 0.91372,-0.70096 1.6557,-0.84155 0.49739,-0.0942 0.77673,-0.08 1.1842,0.0602 0.46723,0.16082 0.54623,0.16042 0.63791,-0.003 0.18153,-0.32408 1.1309,-0.72323 1.7375,-0.73048 0.3283,-0.004 0.77298,0.0942 1.0251,0.22615 0.30186,0.158 0.76073,0.24088 1.4247,0.25732 0.65955,0.0163 1.0835,0.0924 1.2981,0.23286 0.25379,0.16614 0.39111,0.18077 0.6744,0.0719 0.52859,-0.20318 2.1175,-0.0267 2.5056,0.27832 0.25514,0.20051 0.43781,0.23204 0.98975,0.17084 0.60646,-0.0672 0.71253,-0.0412 1.0196,0.25056 0.18849,0.17909 0.3947,0.41848 0.45828,0.53198 0.0871,0.15555 0.21418,0.18472 0.51602,0.11848 0.66908,-0.14681 0.46783,-0.41988 -0.71271,-0.96713 -0.91332,-0.42338 -1.4101,-0.55968 -2.767,-0.7592 -0.90961,-0.13375 -1.9114,-0.2988 -2.2263,-0.36678 -0.31486,-0.068 -1.3464,-0.18854 -2.2923,-0.2679 -1.816,-0.15236 -3.7388,-0.0441 -5.732,0.32275 -0.96533,0.17766 -3.156,1.0401 -3.5524,1.3985 -0.11605,0.10493 -0.24898,0.19078 -0.29541,0.19078 -0.22246,0 -0.72247,0.58766 -0.72247,0.84911 0,0.33945 0.1466,0.36998 0.54515,0.11354 z m 6.0682,-0.29534 c 0,-0.0874 -0.0486,-0.15889 -0.11044,-0.15889 -0.13462,0 -0.27244,0.46287 -0.1687,0.56653 0.0882,0.0881 0.27644,-0.1867 0.27914,-0.40764 z m 12.406,0.34954 c -0.0433,-0.0699 -0.19312,-0.12711 -0.33306,-0.12711 -0.13996,0 -0.21907,0.0572 -0.17581,0.12711 0.0432,0.0699 0.19312,0.1271 0.33306,0.1271 0.13993,0 0.21904,-0.0572 0.17581,-0.1271 z m -15.406,-0.77555 c 0.40079,-0.28674 0.69964,-0.55036 0.66413,-0.58584 -0.0668,-0.0667 -0.63854,0.30068 -1.2657,0.81327 -0.59806,0.4888 -0.17698,0.32962 0.60161,-0.22743 z m 6.2453,0.0115 c -0.1101,-0.17796 -0.31197,0.0642 -0.31525,0.37815 -0.003,0.15519 0.0323,0.15193 0.20394,-0.0196 0.11342,-0.11332 0.1634,-0.27434 0.11131,-0.35857 z m 5.4114,-0.24575 c -0.18388,-0.34326 -0.25564,-0.374 -1.1686,-0.50053 -0.63043,-0.0874 -0.88686,-0.071 -1.1718,0.0746 -0.20058,0.10257 -0.47252,0.15831 -0.60429,0.12389 -0.15787,-0.0413 -0.23958,0.004 -0.23958,0.13279 0,0.15639 0.0952,0.17816 0.47707,0.10908 1.3592,-0.24592 1.8673,-0.238 2.1945,0.0342 0.42,0.34942 0.69334,0.36323 0.51265,0.0259 z m -5.3516,-0.49733 c -0.0111,-0.19738 -1.1464,-0.7808 -1.5193,-0.7808 -0.43503,0 -1.1756,0.29923 -1.3954,0.56384 -0.0866,0.10422 0.0979,0.0797 0.53483,-0.0711 0.99811,-0.34452 1.432,-0.31186 1.7609,0.13254 0.15515,0.2097 0.35044,0.34197 0.44905,0.30416 0.096,-0.0368 0.1724,-0.10367 0.16986,-0.14863 z m 0.9294,-0.22865 c -0.0862,-0.0348 -0.25789,-0.0369 -0.38166,-0.005 -0.12377,0.0322 -0.0533,0.0607 0.15661,0.0633 0.20989,0.003 0.31117,-0.0238 0.22505,-0.0586 z m 4.5456,-0.99291 c 0,-0.0327 -0.50093,-0.2092 -1.1132,-0.39223 -0.61225,-0.18303 -1.428,-0.44125 -1.8129,-0.57383 -1.6302,-0.56164 -4.1249,-0.67034 -5.9792,-0.26055 -1.0233,0.22614 -3.1199,1.0076 -3.0068,1.1206 0.0289,0.0289 0.38812,-0.032 0.79819,-0.13538 1.993,-0.50232 6.1825,-0.55957 8.315,-0.11361 1.8072,0.37792 2.7988,0.50368 2.7988,0.35495 z m -5.7568,44.773 c -0.0348,-0.0907 0.0448,-0.56495 0.17687,-1.054 0.31919,-1.1816 0.45429,-4.5572 0.23908,-5.9734 -0.36952,-2.4316 -0.2916,-3.0054 0.14266,-1.0504 0.4672,2.1034 0.44707,4.3642 -0.0647,7.2698 -0.1469,0.83393 -0.35386,1.1725 -0.49387,0.80791 z m 2.0983,-3.4248 c -0.27958,-0.27932 -0.19293,-0.85938 0.15179,-1.0163 0.5097,-0.23202 0.70941,-0.0662 0.66855,0.55498 -0.0311,0.4724 -0.0775,0.5498 -0.34903,0.58208 -0.17225,0.0205 -0.38434,-0.0339 -0.47131,-0.12075 z m -0.20201,-3.8985 c -0.41772,-0.46114 -0.11501,-1.2928 0.47051,-1.2928 0.48705,0 0.5493,1.1484 0.076,1.4015 -0.30244,0.16174 -0.30133,0.16196 -0.54647,-0.10869 z m 8.1924,-3.0405 c -0.0833,-0.19225 -0.39076,-0.54209 -0.68318,-0.77743 -0.50318,-0.40496 -0.57089,-0.4238 -1.2634,-0.35148 -0.72694,0.0759 -0.73364,0.0735 -1.0179,-0.36494 -0.33139,-0.51114 -0.57309,-0.54623 -1.2955,-0.18809 -0.60677,0.3008 -1.0976,0.71452 -1.4065,1.1856 -0.20732,0.31616 -0.57372,0.46514 -0.57372,0.23328 0,-0.11261 0.82923,-1.1251 1.1435,-1.3962 0.34269,-0.29562 1.2007,-0.65467 1.5713,-0.65754 0.24447,-0.002 0.46963,0.12053 0.69622,0.37853 0.30496,0.34723 0.4059,0.38131 1.1291,0.38131 0.70688,0 0.84359,0.0434 1.2439,0.39449 l 0.44968,0.39448 -0.005,-0.68047 c -0.003,-0.37426 -0.0816,-1.1094 -0.1751,-1.6338 -0.0935,-0.5244 -0.17909,-1.7254 -0.1901,-2.6692 -0.0266,-2.2743 -0.4277,-3.9403 -0.94874,-3.9403 -0.2436,0 -0.62976,-0.46722 -0.52549,-0.63579 0.0618,-0.1 0.16219,-0.0769 0.33128,0.0759 0.41,0.37072 0.39947,0.11171 -0.0135,-0.32989 -0.43897,-0.4695 -0.41233,-0.6211 0.0705,-0.40129 0.19309,0.0879 0.42889,0.3807 0.57825,0.71803 0.13869,0.31329 0.37864,0.63601 0.53321,0.71716 0.15457,0.0812 0.68937,0.47415 1.1884,0.87335 0.54052,0.43236 1.312,0.89339 1.9083,1.1403 0.92522,0.38317 3.8484,1.6436 4.4358,1.9126 0.13994,0.0641 0.68133,0.28246 1.2031,0.48525 0.52176,0.2028 0.9702,0.43328 0.99653,0.51218 0.0758,0.22719 -0.21807,0.17087 -1.3091,-0.25084 -0.55978,-0.21637 -1.2366,-0.47472 -1.5042,-0.57411 -0.26752,-0.0994 -0.78087,-0.32979 -1.1408,-0.512 -0.35989,-0.1822 -1.2828,-0.58361 -2.0508,-0.89203 -1.6445,-0.66031 -2.0673,-0.90306 -2.9923,-1.7178 -0.38011,-0.33479 -0.71578,-0.58403 -0.74597,-0.55387 -0.0302,0.0302 0.0342,0.55835 0.14298,1.1738 0.1088,0.6154 0.2014,1.7871 0.20577,2.6037 0.004,0.81665 0.0935,1.932 0.19822,2.4786 0.2068,1.0797 0.259,3.2181 0.0786,3.2181 -0.0615,0 -0.17997,-0.15729 -0.26331,-0.34954 z"
       stroke-width="0.26458"
       id="path5" />
  </g>
</svg>
