<?xml version="1.0" encoding="UTF-8" standalone="no"?>
<!-- Created with Inkscape (http://www.inkscape.org/) -->

<svg
   width="61.221001mm"
   height="62.240601mm"
   viewBox="0 0 61.221 62.240601"
   version="1.1"
   id="svg1"
   xml:space="preserve"
   inkscape:export-filename="elder-man_central-asian.svg"
   inkscape:export-xdpi="96"
   inkscape:export-ydpi="96"
   xmlns:inkscape="http://www.inkscape.org/namespaces/inkscape"
   xmlns:sodipodi="http://sodipodi.sourceforge.net/DTD/sodipodi-0.dtd"
   xmlns="http://www.w3.org/2000/svg"
   xmlns:svg="http://www.w3.org/2000/svg"><sodipodi:namedview
     id="namedview1"
     pagecolor="#ffffff"
     bordercolor="#000000"
     borderopacity="0.25"
     inkscape:showpageshadow="2"
     inkscape:pageopacity="0.0"
     inkscape:pagecheckerboard="0"
     inkscape:deskcolor="#d1d1d1"
     inkscape:document-units="mm"><inkscape:page
       x="0"
       y="0"
       width="61.221001"
       height="62.240601"
       id="page2"
       margin="0"
       bleed="0" /></sodipodi:namedview><defs
     id="defs1" /><g
     inkscape:label="Layer 1"
     inkscape:groupmode="layer"
     id="layer1"
     transform="translate(1472.671,3650.7208)"><path
       id="path936"
       d="m -1472.5017,-3650.5514 h 60.8824 v -0.1694 h -60.8824 z"
       style="fill:#000000;fill-opacity:1;fill-rule:evenodd;stroke:none;stroke-width:0.352778" /><path
       id="path941-9"
       d="m -1472.671,-3588.6495 h 0.1693 v -61.8984 h -0.1693 z"
       style="fill:#000000;fill-opacity:1;fill-rule:evenodd;stroke:none;stroke-width:0.352778" /><path
       id="path942"
       d="m -1411.6193,-3588.6495 h 0.1693 v -61.8984 h -0.1693 z"
       style="fill:#000000;fill-opacity:1;fill-rule:evenodd;stroke:none;stroke-width:0.352778" /><path
       id="path952"
       d="m -1472.5017,-3588.4802 h 60.8824 v -0.1693 h -60.8824 z"
       style="fill:#000000;fill-opacity:1;fill-rule:evenodd;stroke:none;stroke-width:0.352778" /><g
       id="g931"
       transform="matrix(0.26458333,0,0,0.26458333,-3975.0525,-3727.7886)"><path
         style="fill:#000000"
         d="m 9628.957,506.57629 c 0,-0.35425 1.0663,-2.74183 2.3696,-5.30573 1.3033,-2.56391 2.6107,-5.89798 2.9052,-7.40905 0.2945,-1.51107 0.7403,-3.23419 0.9905,-3.82916 0.2503,-0.59497 0.6556,-1.56856 0.9007,-2.16353 0.8037,-1.95139 1.4093,-5.8061 1.7118,-10.89687 0.1637,-2.75399 0.5237,-6.10746 0.8002,-7.45215 0.2764,-1.3447 0.7576,-3.96076 1.0693,-5.81346 0.6898,-4.09934 2.6831,-7.31933 8.0939,-13.07497 4.0949,-4.35591 4.6052,-5.79077 2.5412,-7.14526 -0.6484,-0.42554 -1.3504,-0.66883 -1.5601,-0.54066 -0.2096,0.12818 -1.0478,-0.12362 -1.8627,-0.55954 -0.8149,-0.43592 -2.7083,-1.41443 -4.2075,-2.17447 -2.2298,-1.13034 -3.0086,-1.87178 -4.2788,-4.07318 -1.4651,-2.53927 -3.8224,-5.10601 -10.1343,-11.03479 -3.1397,-2.94909 -3.4463,-2.75049 -3.0667,1.9865 0.1465,1.82794 0.707,3.91061 1.4474,5.37782 2.377,4.71081 3.7867,10.22166 3.6863,14.41104 -0.051,2.11717 0.067,4.22802 0.2623,4.69077 0.406,0.96356 -0.2385,1.11958 -1.0923,0.26443 -0.3627,-0.36328 -0.577,-2.18827 -0.5787,-4.92804 0,-5.16956 -0.4145,-6.82451 -3.0463,-12.25882 l -1.9914,-4.11188 v -6.73098 c 0,-5.00496 -0.2335,-7.66776 -0.9106,-10.38413 -0.9067,-3.63706 -0.9063,-3.66768 0.095,-6.95249 1.016,-3.33389 0.8462,-4.53907 -0.6395,-4.53907 -1.1518,0 -8.4766,-6.32673 -14.237,-12.29699 -2.2162,-2.29695 -4.2245,-3.82948 -6.4804,-4.945 -1.7979,-0.88908 -4.241,-2.10558 -5.4291,-2.70333 -5.6128,-2.82399 -8.3463,-3.37272 -16.801,-3.37272 -7.1215,0 -8.2596,0.11695 -11.2808,1.15919 -4.1452,1.42998 -8.8015,3.5333 -10.0806,4.5536 -0.952,0.75935 -0.9501,0.77362 0.2328,1.70048 1.6514,1.29392 0.8425,1.82901 -1.2524,0.82846 l -1.7276,-0.82511 -3.0387,2.04903 c -3.1641,2.13352 -3.6473,2.85862 -1.2393,1.85962 1.1605,-0.48144 1.6623,-0.45074 2.8718,0.17568 0.806,0.41748 1.8003,0.75905 2.2094,0.75905 0.4091,0 0.7439,0.22315 0.7439,0.49588 0,0.91781 -1.3611,1.02913 -3.0087,0.24606 -1.8552,-0.88171 -2.8852,-0.63945 -5.8506,1.37607 -2.0684,1.40591 -3.1415,1.58781 -3.1415,0.53256 0,-0.58952 -0.4,-0.53554 -2.2801,0.30776 -5.6696,2.54293 -5.6087,2.48639 -5.9716,5.54679 -0.1821,1.53632 -0.533,7.74573 -0.7797,13.79868 -0.4412,10.82303 -0.4266,11.13786 0.8777,19.00244 0.8036,4.84521 1.7607,8.94001 2.4284,10.38954 2.4773,5.37781 5.9129,10.86608 7.8153,12.4846 3.3574,2.85646 6.4708,5.01418 7.67,5.31565 0.6286,0.158 1.8347,0.92017 2.6803,1.6937 0.8455,0.77354 2.6587,1.87483 4.0292,2.44732 1.3704,0.57248 3.0348,1.53818 3.6986,2.14598 2.2822,2.08972 4.999,2.7221 11.592,2.69826 3.3432,-0.0121 6.5834,-0.1725 7.2005,-0.35649 1.9143,-0.57075 5.8323,-2.60926 7.8424,-4.08045 1.0561,-0.77291 2.8922,-1.99792 4.0803,-2.72223 6.6428,-4.04983 13.3491,-9.96508 15.505,-13.67604 1.9605,-3.37466 3.5067,-8.0442 4.1232,-12.45235 0.3143,-2.24767 0.7739,-5.27661 1.0212,-6.73098 0.2474,-1.45437 0.6764,-4.59149 0.9535,-6.97137 0.2771,-2.37989 0.7302,-5.46663 1.0069,-6.85943 0.4729,-2.38001 0.4296,-2.61996 -0.72,-3.98833 -0.6728,-0.80078 -1.4123,-2.25745 -1.6433,-3.23705 -0.7622,-3.23134 -1.4397,-5.59646 -2.2746,-7.94054 -0.5763,-1.61777 -0.6722,-2.46519 -0.3192,-2.81878 0.7299,-0.73101 1.5486,-0.0457 1.5486,1.29627 0,0.63568 0.432,2.25357 0.96,3.59531 0.528,1.34173 0.9601,2.9583 0.9601,3.59238 0,0.63407 0.2672,1.76192 0.5938,2.50632 0.5388,1.22787 0.6167,0.92965 0.8401,-3.214 0.326,-6.04751 1.2062,-5.59717 1.2062,0.61711 0,2.95986 0.2003,4.83148 0.5401,5.04823 0.3936,0.25105 0.3131,1.64832 -0.2969,5.15231 -0.4603,2.64431 -1.1975,7.83678 -1.6381,11.53882 -1.3373,11.23634 -2.0639,14.58403 -4.0847,18.82004 -2.317,4.85698 -6.3798,9.28239 -12.5159,13.6329 -2.4242,1.71881 -5.7394,4.09076 -7.367,5.271 -3.2901,2.38577 -7.4457,4.50062 -10.529,5.35837 -1.117,0.31073 -4.4071,0.53027 -7.3112,0.48786 -5.5574,-0.0812 -9.2991,-0.92216 -11.0408,-2.48156 -1.2111,-1.08437 -5.4597,-3.34704 -6.2846,-3.34704 -0.3418,0 -0.9389,-0.45406 -1.327,-1.00901 -0.7429,-1.06232 -2.8836,-2.35648 -3.898,-2.35648 -0.3295,0 -1.3764,-0.59497 -2.3263,-1.32216 -0.95,-0.72718 -2.9809,-2.22244 -4.5133,-3.32278 -2.8062,-2.01502 -4.2909,-4.14528 -7.8209,-11.22094 -2.2034,-4.4167 -2.7805,-6.27801 -3.5777,-11.53882 -0.4208,-2.77653 -0.9842,-6.34636 -1.2522,-7.93295 -0.5327,-3.15468 -0.2293,-16.82043 0.538,-24.23186 0.4834,-4.66867 0.2464,-5.72611 -1.1619,-5.18486 -0.7992,0.30719 -2.83,4.37074 -3.5691,7.14171 -0.3262,1.2229 -0.2743,3.45386 0.169,7.27105 1.1366,9.78803 0.6157,12.79384 -4.7252,27.26396 -0.7633,2.06806 -0.9752,3.79683 -0.9725,7.93295 0,5.25644 0.9165,12.07777 1.6799,12.55036 0.4974,0.30786 0.5264,1.15459 0.039,1.14463 -1.5386,-0.0315 -2.2651,-2.46636 -3.01,-10.08911 -0.574,-5.87372 -0.047,-9.16062 2.6736,-16.67799 3.0151,-8.33095 3.8351,-13.49596 3.0758,-19.37381 -1.0433,-8.07613 -0.8007,-9.94799 2.0171,-15.56704 1.239,-2.47065 1.3294,-2.91649 0.7308,-3.60588 -0.6338,-0.72993 -2.2297,-4.61744 -3.2836,-7.99842 -0.2472,-0.79329 -0.4424,-3.03315 -0.4337,-4.97745 0.01,-1.94431 -0.3235,-5.62231 -0.7383,-8.17334 -1.2545,-7.71415 -0.1043,-13.71371 3.3545,-17.49921 1.2253,-1.34094 2.2142,-1.71673 2.2142,-0.84137 0,0.26443 -0.1686,0.48078 -0.3748,0.48078 -0.2061,0 -0.6362,0.59497 -0.9559,1.32216 -0.3196,0.72719 -1.0137,1.98901 -1.5425,2.80404 -1.6302,2.51292 -2.0536,6.05407 -1.4323,11.98008 0.7666,7.31269 0.7241,7.23822 3.2148,5.63411 5.3747,-3.46141 5.58,-3.54717 9.4633,-3.9536 4.6492,-0.48659 4.5641,-0.45937 10.5887,-3.3853 2.6401,-1.28225 7.1764,-2.9975 10.0806,-3.81168 2.9042,-0.81417 5.9887,-1.70724 6.8544,-1.98458 2.8214,-0.90381 6.5216,-1.03722 12.6085,-0.45457 5.57,0.53317 7.3209,1.00221 6.5656,1.75876 -0.1701,0.17037 -1.3438,0.23843 -2.6082,0.15126 -1.2644,-0.0872 -5.2151,-0.16606 -8.7793,-0.17531 -5.8218,-0.0151 -7.0416,0.13778 -12.0008,1.5042 -7.1925,1.98175 -8.4155,2.4393 -14.3682,5.37544 -4.3531,2.14715 -5.3778,2.46646 -7.9169,2.46711 -1.9768,5.1e-4 -3.4579,0.29917 -4.5966,0.92696 -0.9241,0.50941 -2.7602,1.45845 -4.0803,2.10896 -4.0121,1.97712 -4.2489,2.26996 -4.1478,5.13009 0.06,1.68726 0.6664,3.88028 1.8136,6.55503 1.6382,3.81934 1.7871,4.00445 2.9892,3.71746 0.6958,-0.16612 1.5461,-0.52413 1.8894,-0.79558 0.4639,-0.36673 0.6935,-0.22874 0.8934,0.53692 0.247,0.9459 0.3523,0.97212 1.2826,0.31946 0.5575,-0.39106 1.2651,-0.71102 1.5726,-0.71102 0.932,0 9.257,-4.61721 12.1863,-6.75868 2.2341,-1.63329 8.5164,-5.40242 10.3226,-6.19312 9.0475,-3.96093 20.1548,-4.67224 29.0418,-1.85983 1.7161,0.54308 5.6691,2.24828 8.7845,3.78932 5.3265,2.63483 6.0165,3.14957 11.5733,8.63272 3.2501,3.20695 6.4581,6.1924 7.1289,6.63432 0.6709,0.44193 1.9433,1.37527 2.8276,2.0741 0.8843,0.69884 2.5125,1.41875 3.6183,1.5998 1.8913,0.30967 2.1426,0.20726 4.2371,-1.72645 3.4127,-3.15064 3.3494,-2.98266 6.3643,-16.88964 0.4443,-2.04934 0.9997,-3.72607 1.2343,-3.72607 0.5039,0 -0.07,6.12564 -0.6817,7.27597 -0.2297,0.43197 -0.6593,2.37914 -0.9548,4.32706 -0.7113,4.6907 -1.7421,6.87559 -4.6762,9.91206 -1.839,1.90318 -2.7815,2.52412 -3.8312,2.52412 -1.2927,0 -1.4727,0.23696 -2.5196,3.31699 l -1.1275,3.31699 0.8685,3.77458 c 1.7625,7.65975 2.6691,9.25125 7.1338,12.52385 1.3716,1.00539 3.144,2.58522 3.9386,3.51073 0.7946,0.92551 2.0347,2.2902 2.7556,3.03264 0.721,0.74244 1.261,1.58961 1.2001,1.8826 -0.061,0.29299 0.5373,0.67565 1.3293,0.85035 1.9387,0.42759 3.134,1.11561 4.524,2.60399 0.9847,1.05443 1.0357,1.2461 0.3317,1.2461 -0.9794,0 -0.6278,0.74957 0.6806,1.4509 0.7746,0.41522 0.8763,0.35782 0.6343,-0.35801 -0.2111,-0.62421 -0.079,-0.57301 0.4914,0.1912 0.4288,0.57403 1.4248,1.18562 2.2133,1.35907 1.6809,0.36976 3.3655,2.3096 3.3655,3.87538 0,0.60513 -0.5669,1.77503 -1.2598,2.59978 -0.6929,0.82475 -1.1552,1.6043 -1.0274,1.73232 0.1278,0.12802 1.4417,0.65846 2.9197,1.17875 3.4156,1.20239 7.9934,3.22579 8.7831,3.88217 0.3344,0.27798 0.4926,0.80664 0.3515,1.1748 -0.2005,0.52338 -0.9534,0.31848 -3.4517,-0.93939 -1.7573,-0.88482 -4.2187,-1.95565 -5.4696,-2.37963 -1.251,-0.42398 -2.6999,-1.03698 -3.2199,-1.36223 -0.8057,-0.50394 -1.1346,-0.41623 -2.2249,0.59333 -2.5519,2.3629 -6.889,8.69162 -7.18,10.47706 -0.1582,0.97112 -0.602,3.38198 -0.9861,5.35745 -0.3841,1.97548 -0.9155,6.30254 -1.1809,9.61569 -0.4999,6.23899 -1.126,9.77435 -2.1791,12.30311 -0.337,0.80925 -0.9478,2.91813 -1.3572,4.68639 -1.229,5.30763 -6.5192,15.19889 -6.5192,12.18914 z m 14.8892,-68.33848 c -0.7906,-0.95415 -3.3685,-2.21595 -3.3685,-1.6488 0,0.47493 2.8216,2.35513 3.539,2.35821 0.2303,9.9e-4 0.1536,-0.31825 -0.1705,-0.70941 z m -108.2553,-43.04017 c 0.1632,-0.26443 0.068,-0.48078 -0.2117,-0.48078 -0.2796,0 -0.5083,0.21635 -0.5083,0.48078 0,0.26443 0.095,0.48079 0.2116,0.48079 0.1165,0 0.3452,-0.21636 0.5084,-0.48079 z m 50.1633,110.42381 c 0,-0.98068 1.8892,-2.51499 4.8003,-3.89853 3.2225,-1.53157 6.9014,-5.03371 12.3538,-11.76025 5.1635,-6.37019 7.3478,-8.70464 8.1449,-8.70464 0.8513,0 0.7824,0.71107 -0.1436,1.48075 -0.4214,0.3503 -2.842,3.24347 -5.3791,6.42926 -7.0329,8.83112 -10.1754,11.907 -14.3149,14.01141 -1.9646,0.99872 -3.8075,2.10014 -4.0954,2.44761 -0.6739,0.81323 -1.366,0.81038 -1.366,-0.006 z m -16.4574,-1.77077 c -0.6743,-0.53119 -1.9455,-1.0896 -2.825,-1.24093 -2.244,-0.38612 -3.6391,-1.0905 -6.3916,-3.22706 -2.2784,-1.76857 -5.5281,-5.73627 -5.5281,-6.74953 0,-0.96095 -3.3987,-7.61099 -4.4428,-8.69289 -0.5926,-0.6141 -1.987,-1.50665 -3.0985,-1.98345 -2.2397,-0.96073 -3.0915,-2.14114 -1.5451,-2.14114 1.3136,0 4.2974,1.58331 5.5746,2.95811 1.0584,1.13925 4.0349,6.8505 4.7166,9.04994 0.5478,1.76781 3.5415,5.16396 5.9863,6.79104 1.1829,0.78726 3.343,1.77685 4.8003,2.19908 1.4573,0.42223 3.1647,1.17102 3.7944,1.66398 0.6296,0.49295 1.5477,0.89628 2.0401,0.89628 0.4925,0 0.8953,0.32453 0.8953,0.72118 0,1.06492 -2.5104,0.9105 -3.9765,-0.24461 z m -57.3319,-2.27951 c -2.5721,-4.23515 -2.778,-5.16433 -2.7434,-12.3802 0.034,-7.10594 0.3271,-8.59472 3.3594,-17.06784 1.212,-3.38648 1.2711,-3.93267 0.9722,-8.97676 -0.175,-2.95399 -0.6427,-6.52381 -1.0392,-7.93294 -0.3965,-1.40914 -0.9138,-4.23626 -1.1496,-6.2825 -0.5124,-4.44608 -1.39,-7.09721 -2.3494,-7.09721 -0.8146,0 -4.6646,2.14512 -6.0661,3.37991 -0.528,0.46523 -1.7293,1.25218 -2.6694,1.74877 -7.9502,4.19926 -12.4799,7.75346 -16.906,13.26507 -2.0156,2.50994 -4.2927,5.09279 -5.0603,5.73968 -2.2293,1.87881 -4.3021,5.0706 -5.1177,7.88055 -0.4975,1.71394 -1.0111,2.60249 -1.5042,2.60249 -0.6122,0 -0.6874,-0.36405 -0.4124,-1.99437 0.611,-3.62221 1.7106,-5.41532 5.71,-9.31138 2.1757,-2.11948 4.5865,-4.82389 5.3573,-6.00981 1.989,-3.06017 3.9188,-5.13705 6.6818,-7.19108 2.262,-1.68159 8.7612,-5.78277 9.1641,-5.78277 0.1019,0 2.0969,-1.18994 4.4333,-2.64431 2.3364,-1.45438 4.499,-2.64432 4.8059,-2.64432 0.3166,0 0.5579,-0.72089 0.5579,-1.66643 0,-3.65746 2.2948,-6.63573 7.7792,-10.09612 1.6618,-1.04856 4.3795,-3.158 6.0393,-4.68765 2.7523,-2.53658 4.4227,-3.43224 4.4227,-2.3715 0,0.75326 -7.8898,8.00744 -10.2861,9.45738 -2.9698,1.797 -5.4648,4.26971 -5.8469,5.79477 -0.1843,0.73545 0.1623,2.28884 0.9312,4.17346 0.6736,1.65108 1.3614,4.30009 1.5284,5.88668 0.167,1.58659 0.7592,4.72371 1.3161,6.97137 0.7665,3.09419 1.0079,5.54619 0.9938,10.09647 -0.017,5.34296 -0.1582,6.35657 -1.2763,9.1349 -1.8995,4.71973 -2.6364,8.12897 -2.9996,13.87766 -0.434,6.8694 0.3705,10.2943 3.4567,14.71579 0.843,1.2077 0.8381,1.69597 -0.017,1.69597 -0.3734,0 -1.303,-1.02768 -2.0658,-2.28373 z m 70.309,-13.37122 c -0.7746,-0.79867 -0.2452,-1.05008 2.7117,-1.28781 3.8487,-0.30942 7.906,-2.45465 10.5428,-5.57444 2.5398,-3.0049 5.0099,-4.88751 6.4128,-4.88751 1.3737,0 1.263,1.04508 -0.1514,1.42909 -1.409,0.38258 -2.6446,1.43464 -4.9826,4.24249 -3.1218,3.74913 -7.0011,5.9474 -10.9878,6.22642 -1.752,0.12262 -3.3475,0.0559 -3.5455,-0.14824 z m 92.7254,-14.54592 c -0.6824,-0.70978 -2.0865,-2.6536 -3.1202,-4.31959 -4.4552,-7.18014 -6.3935,-10.02398 -7.5778,-11.11767 -1.1893,-1.09826 -1.6958,-2.45957 -0.9021,-2.42431 1.1155,0.0496 5.1048,4.76602 7.103,8.39773 1.2686,2.30561 3.6565,6.03926 5.2868,8.26622 0.4246,0.57996 0.6997,1.37704 0.6115,1.77129 -0.1214,0.54214 -0.4629,0.40233 -1.4012,-0.57367 z m -107.213,-11.09269 c -0.7863,-1.2742 5.2588,-3.16386 9.7179,-3.03776 2.0247,0.0573 5.3698,1.64095 5.3698,2.54229 0,0.6801 -0.7431,0.53466 -3.0812,-0.60307 -1.975,-0.96101 -2.3699,-0.99742 -4.9332,-0.45479 -2.7499,0.58214 -4.4312,1.06404 -5.978,1.71346 -0.4353,0.18277 -0.9282,0.11072 -1.0953,-0.16013 z m 4.527,-4.59088 c 0,-0.54183 0.4801,-0.75164 1.7201,-0.75164 2.1689,0 2.0036,1.13495 -0.197,1.35262 -1.1254,0.11132 -1.5231,-0.0456 -1.5231,-0.60098 z m 20.5124,-2.7991 c -0.3926,-0.5927 -1.3343,-1.743 -2.0926,-2.55621 -0.7583,-0.81322 -1.7027,-1.96988 -2.0988,-2.57037 -1.7834,-2.70426 -1.3891,-2.5979 -5.62,-1.51595 -4.1591,1.06357 -9.3518,1.25524 -13.2212,0.48799 -1.2541,-0.24866 -3.1982,-0.62998 -4.3203,-0.84736 -1.122,-0.21738 -2.7314,-0.75826 -3.5764,-1.20196 -0.8449,-0.4437 -1.7375,-0.80672 -1.9836,-0.80672 -0.2461,0 -1.0354,1.8495 -1.7541,4.11 -0.7878,2.47801 -1.525,4.02914 -1.8566,3.90637 -0.6449,-0.23882 -0.6458,-0.23324 0.6272,-3.7975 0.5407,-1.51387 0.986,-3.6774 0.9896,-4.80784 0.01,-2.46254 0.4281,-4.21887 1.0095,-4.21887 0.2332,0 0.424,0.40331 0.424,0.89625 0,1.93009 7.8151,3.39349 18.2412,3.41572 5.9367,0.0127 8.1606,-0.57899 8.1606,-2.17104 0,-1.69813 0.8239,-1.45223 1.2224,0.36482 0.4108,1.87326 2.1541,4.65339 4.826,7.69629 2.0036,2.28182 2.8292,4.01797 2.1195,4.45727 -0.2103,0.13021 -0.7037,-0.24819 -1.0964,-0.84089 z m -12.5081,-7.73226 c 0.1739,-0.17422 -1.5257,-0.31675 -3.777,-0.31675 -2.2513,0 -5.1495,-0.13866 -6.4405,-0.30813 -2.5662,-0.33688 -2.6315,0.21073 -0.091,0.76586 1.903,0.41589 9.8614,0.30705 10.3088,-0.14098 z m -37.4332,-4.95126 c -0.5393,-0.54018 0.1666,-1.1349 1.3471,-1.1349 0.6288,0 1.2629,0.19368 1.409,0.4304 0.4535,0.7349 -2.0793,1.38232 -2.7561,0.7045 z m 58.4708,-2.34941 c -1.0914,-0.67325 -2.6565,-1.18555 -3.6261,-1.18695 -1.2977,-0.002 -2.0732,-0.38192 -3.2402,-1.5879 -0.8439,-0.87199 -1.5343,-1.82972 -1.5343,-2.12829 0,-0.29856 -1.1881,-1.08762 -2.6401,-1.75345 -1.5505,-0.71093 -2.6402,-1.51925 -2.6402,-1.95838 0,-0.96782 -0.016,-0.97057 3.182,0.54601 1.5944,0.75607 3.04,1.8378 3.4783,2.60275 0.8822,1.5396 2.8904,2.83444 4.396,2.83444 1.3766,0 6.3199,2.82236 5.9613,3.40355 -0.4305,0.69768 -1.2691,0.50371 -3.3367,-0.77178 z m -55.4436,-0.68137 c 0,-0.24944 0.4772,-0.78831 1.0605,-1.1975 1.4189,-0.99543 2.5132,-0.0619 1.1279,0.96221 -1.0627,0.78556 -2.1884,0.9066 -2.1884,0.23529 z m 5.2803,-0.98883 c 0,-0.26443 0.3185,-0.48078 0.7077,-0.48078 0.3893,0 1.0706,-0.70315 1.5141,-1.56255 1.1707,-2.26852 4.4509,-6.61079 4.9938,-6.61079 0.891,0 0.4525,1.13111 -1.3823,3.56502 -1.0159,1.34774 -2.2096,3.15231 -2.6525,4.01016 -0.579,1.12155 -1.139,1.55972 -1.993,1.55972 -0.6533,0 -1.1878,-0.21635 -1.1878,-0.48078 z m 13.7609,-5.12837 c -0.5923,-0.5932 -0.328,-0.94033 1.4801,-1.94416 1.7139,-0.95155 1.911,-0.96339 4.1165,-0.24732 1.8733,0.60825 2.7454,0.65029 4.5602,0.21982 1.2995,-0.30824 3.1532,-0.38278 4.4042,-0.1771 1.188,0.19535 2.7596,0.15872 3.4923,-0.0814 1.2271,-0.40211 1.3062,-0.57481 1.0021,-2.18823 -0.1816,-0.96342 -0.3311,-2.02211 -0.3322,-2.35265 0,-0.33054 -0.218,-0.60098 -0.482,-0.60098 -0.264,0 -0.3545,-0.12571 -0.2011,-0.27935 0.1534,-0.15364 0.7294,-0.0378 1.2801,0.25731 1.4777,0.79208 1.3988,4.31325 -0.1367,6.10119 -0.9334,1.08684 -1.4726,1.30111 -3.0002,1.19241 -1.0243,-0.0729 -2.8344,-0.0922 -4.0225,-0.0429 -4.9155,0.20388 -6.0729,0.12604 -7.5364,-0.50684 -1.3604,-0.58825 -1.6393,-0.57072 -2.438,0.15325 -0.954,0.86469 -1.6592,1.02499 -2.1864,0.49696 z m -2.5571,-2.85466 c -0.7367,-1.12615 -0.7499,-1.44799 -0.131,-3.20055 0.6885,-1.9501 2.0226,-3.26547 2.6621,-2.62491 0.1871,0.18735 -0.047,0.76867 -0.5193,1.29182 -0.6676,0.73882 -0.8077,1.49086 -0.6276,3.36844 0.2581,2.68983 -0.1578,3.03987 -1.3842,1.1652 z m -8.8977,-12.24269 c -1.2314,-0.33395 -5.5754,-3.12 -6.2018,-3.9776 -0.4644,-0.63593 -6.8108,-2.23336 -7.745,-1.94949 -0.5512,0.16747 -0.8401,-0.004 -0.8401,-0.49832 0,-0.41447 0.324,-0.75358 0.7201,-0.75358 0.8071,0 0.9816,-1.22366 0.24,-1.68274 -0.6114,-0.37847 -0.6305,-2.16353 -0.023,-2.16353 0.2513,0 1.0888,0.9195 1.8611,2.04333 1.3678,1.99045 1.4796,2.04651 4.3188,2.16607 1.603,0.0675 3.4798,0.33795 4.1705,0.60098 0.6908,0.26304 1.9041,0.47825 2.6963,0.47825 0.7922,0 1.8467,0.21776 2.3432,0.48392 0.6614,0.35453 1.5236,0.23883 3.2247,-0.43274 2.1571,-0.85157 3.857,-1.19521 5.2731,-1.06597 0.3208,0.0293 0.824,0.50392 1.1184,1.05478 0.7216,1.35055 -0.395,2.56049 -3.3204,3.59787 -1.2218,0.43325 -3.1934,1.16167 -4.3815,1.61872 -1.3948,0.53659 -2.6187,0.70666 -3.4543,0.48005 z m 8.03,-3.54857 c 1.5722,-0.65794 2.0003,-1.21092 1.4016,-1.81055 -0.1447,-0.14494 -1.1168,-0.0465 -2.1602,0.21875 -1.3651,0.34705 -1.897,0.73547 -1.897,1.38536 0,1.08567 0.4677,1.12203 2.6556,0.20644 z m -7.6959,-0.26493 c 0.1632,-0.26443 0.068,-0.48078 -0.2117,-0.48078 -0.2796,0 -0.5084,0.21635 -0.5084,0.48078 0,0.26444 0.095,0.48079 0.2117,0.48079 0.1165,0 0.3452,-0.21635 0.5084,-0.48079 z m -3.1202,-0.48078 c 0,-0.26443 -0.1984,-0.48078 -0.4408,-0.48078 -0.2424,0 -0.7824,-0.13133 -1.2001,-0.29183 -0.4176,-0.16051 -0.7593,-0.0682 -0.7593,0.20513 0,0.42961 0.7445,0.79178 2.0402,0.99249 0.198,0.0307 0.36,-0.16058 0.36,-0.42501 z m 41.4439,3.84124 c -1.0993,-0.22632 -2.8771,-0.96683 -3.9507,-1.64558 -2.3962,-1.51504 -3.2161,-1.55183 -3.5793,-0.16062 -0.4796,1.83691 -1.3888,0.28058 -1.0118,-1.73202 0.3264,-1.74302 1.6601,-2.50594 1.6601,-0.94968 0,0.70231 0.1185,0.68821 1.0099,-0.1202 1.1066,-1.00349 1.676,-1.03257 12.7698,-0.65236 l 6.3393,0.21726 2.1261,-2.08922 c 1.2742,-1.25202 2.469,-2.02267 2.9816,-1.92314 1.421,0.27589 1.3055,1.22172 -0.1857,1.52042 -0.769,0.15405 -1.5363,0.64047 -1.7051,1.08095 -0.2687,0.70136 -0.038,0.76043 1.8596,0.47548 1.2607,-0.18936 2.1663,-0.13669 2.1663,0.126 0,0.90543 -1.362,1.54323 -3.6546,1.71146 -2.7454,0.20145 -3.9038,0.59913 -5.2414,1.79945 -0.8174,0.73347 -4.4344,1.8147 -8.6251,2.57835 -0.5281,0.0962 -1.8596,-0.0102 -2.959,-0.23655 z m 0.3188,-2.35956 c 0,-1.31112 -0.6962,-1.96191 -2.0915,-1.9551 -0.8298,0.004 -1.8184,0.20359 -2.1968,0.44344 -0.5333,0.338 -0.3174,0.59784 0.9601,1.15538 1.9144,0.83552 3.3282,0.98687 3.3282,0.35628 z m 5.2803,-0.0393 c 0,-0.26443 0,-0.58896 0,-0.72117 0,-0.67374 -0.6456,-0.36409 -0.7518,0.36058 -0.068,0.46276 0.074,0.84138 0.3143,0.84138 0.2406,0 0.4375,-0.21636 0.4375,-0.48079 z m 3.9363,-1.05772 c -0.448,-0.44873 -0.7041,-0.44873 -1.1521,0 -0.448,0.44873 -0.32,0.57694 0.5761,0.57694 0.896,0 1.024,-0.12821 0.576,-0.57694 z m -14.977,-9.96236 c 0,-0.91137 4.4062,-4.83004 5.4304,-4.82958 1.3238,6e-4 4.2567,-0.29817 4.8903,-0.49814 0.264,-0.0833 0.804,-0.0244 1.2001,0.13096 0.396,0.15537 1.26,0.24381 1.9201,0.19653 0.7927,-0.0568 1.1529,0.13737 1.0611,0.5719 -0.1003,0.47497 0.189,0.57544 1.0405,0.36139 1.2508,-0.31442 3.6498,0.32177 2.9008,0.76925 -0.2432,0.14526 -1.3602,0.41626 -2.4822,0.60222 -1.6854,0.27931 -2.0402,0.20535 -2.0402,-0.42532 0,-0.92166 0.082,-0.91744 -2.2198,-0.11425 -1.0232,0.35706 -2.1374,0.55307 -2.4759,0.43559 -0.3384,-0.11749 -1.158,0.14245 -1.8211,0.57764 -0.6631,0.43519 -1.9568,0.85875 -2.8747,0.94125 -0.918,0.0825 -2.0596,0.50401 -2.537,0.93669 -0.9508,0.86182 -1.9924,1.04159 -1.9924,0.34387 z m 18.5815,-1.29977 c -0.7132,-0.71433 -0.2863,-1.14211 1.1398,-1.14211 0.9694,0 1.4119,0.20735 1.2825,0.60098 -0.2242,0.68169 -1.9067,1.05756 -2.4223,0.54113 z m -62.1443,-0.52588 c -0.9473,-0.34033 -0.699,-1.09701 0.36,-1.09701 0.5281,0 0.9601,0.20358 0.9601,0.45241 0,0.61542 -0.594,0.90547 -1.3201,0.6446 z m 18.8535,-1.55392 c -0.8401,-1.62723 -0.9513,-2.90858 -0.2523,-2.90858 0.264,0 0.48,0.19975 0.48,0.44389 0,0.24415 0.534,1.07953 1.1867,1.85642 0.6527,0.77688 1.0487,1.55072 0.8801,1.71963 -0.6781,0.67918 -1.6007,0.23232 -2.2945,-1.11136 z m -16.3143,0.2899 c -0.618,-0.45256 -0.7166,-0.7517 -0.3275,-0.9926 0.8048,-0.49815 2.4686,0.14324 2.4686,0.95162 0,0.86672 -0.9878,0.88563 -2.1411,0.041 z m 12.5818,-0.46932 c -1.5419,-1.26444 -1.6656,-1.76759 -0.4344,-1.76759 0.9634,0 2.4745,1.41772 2.4745,2.32158 0,0.81843 -0.548,0.66962 -2.0401,-0.55399 z m -3.6199,-0.41702 c -0.2933,-0.29379 -1.678,-0.5556 -3.077,-0.58178 -1.9034,-0.0356 -2.5437,-0.22659 -2.5437,-0.75856 0,-0.85324 2.3796,-1.1453 3.6748,-0.45104 0.7258,0.38904 0.8855,0.29818 0.8855,-0.50385 0,-1.48618 0.672,-1.173 1.5243,0.7104 0.7719,1.70562 0.5191,2.56933 -0.4639,1.58483 z m 73.6794,-4.71606 c -0.1448,-0.39665 -0.3965,-1.72076 -0.5593,-2.94246 -0.286,-2.14702 -1.4462,-4.2557 -4.5706,-8.30726 -1.3823,-1.7924 -1.9224,-3.43294 -1.0186,-3.09368 0.5896,0.2213 4.4474,5.08151 5.6608,7.13163 0.5478,0.92551 1.128,2.43998 1.2893,3.36549 0.3218,1.84546 -0.3519,5.07788 -0.8016,3.84628 z m -39.4179,-0.89732 c -0.3226,-0.52278 0.9135,-1.62417 3.0275,-2.69761 2.3409,-1.18864 8.4457,-0.32353 7.1158,1.00839 -0.3029,0.30342 -1.5749,0.26812 -3.8383,-0.1065 -1.4777,-0.24458 -2.153,-0.0666 -3.626,0.95585 -1.97,1.36735 -2.2913,1.46809 -2.679,0.83987 z m 3.5606,-7.89409 c 0,-0.87424 2.3848,-1.78585 4.6719,-1.78585 2.2671,0 1.8056,1.10927 -0.6307,1.51599 -1.0346,0.17272 -2.3671,0.46839 -2.9611,0.65706 -0.7964,0.2529 -1.0801,0.15118 -1.0801,-0.3872 z m -61.9469,-3.25992 c -0.6067,-0.39081 -0.6037,-0.51048 0.023,-0.92249 1.0083,-0.66296 1.4401,-0.6016 1.4401,0.20466 0,0.94938 -0.6264,1.25673 -1.463,0.71783 z m 0.9829,-2.58422 c 0,-0.41225 0.2161,-0.74955 0.4801,-0.74955 0.264,0 0.48,0.20358 0.48,0.45241 0,0.24882 -0.216,0.58612 -0.48,0.74955 -0.264,0.16343 -0.4801,-0.0402 -0.4801,-0.45241 z m 104.3709,-4.37785 c -0.3403,-1.81673 -0.1072,-2.435 0.724,-1.92049 0.6352,0.3932 0.6831,3.62565 0.054,3.62565 -0.2521,0 -0.602,-0.76732 -0.7777,-1.70516 z m -0.9567,-3.68631 c -0.1856,-0.58543 -0.4701,-2.135 -0.6324,-3.44349 -0.2633,-2.12276 -0.4886,-2.48746 -2.0909,-3.3851 -0.9877,-0.55331 -2.3456,-1.81633 -3.0175,-2.8067 -0.672,-0.99038 -1.538,-1.80069 -1.9245,-1.80069 -0.7693,0 -0.9657,-1.22279 -0.266,-1.65593 0.7938,-0.49136 1.7341,0.20888 2.9366,2.18675 0.6528,1.07388 1.781,2.26472 2.5071,2.64632 0.726,0.38161 1.3201,0.61676 1.3201,0.52257 0,-0.0942 -0.5392,-1.2356 -1.1981,-2.53646 -0.6589,-1.30087 -1.199,-2.53624 -1.2001,-2.74527 0,-0.63662 -2.0784,-3.34742 -3.556,-4.64556 -5.7649,-5.06462 -13.908,-8.72096 -24.2878,-10.90546 -3.0362,-0.639 -6.4924,-1.36655 -7.6805,-1.61679 -3.6301,-0.76461 -4.7869,-1.18151 -4.6712,-1.6835 0.061,-0.26443 0.3269,-0.44297 0.5909,-0.39676 6.055,1.05988 19.9987,4.23673 21.9133,4.99259 6.9877,2.7586 16.1664,8.38583 16.2262,9.94789 0.013,0.33054 0.347,0.60098 0.7431,0.60098 1.9256,0 -0.8923,-12.27389 -3.8886,-16.93734 -0.6335,-0.98594 -1.1518,-1.96174 -1.1518,-2.16844 0,-0.20669 -0.486,-0.91448 -1.08,-1.57285 -0.5941,-0.65838 -1.8158,-2.17064 -2.7149,-3.36058 -2.6531,-3.51109 -5.7069,-5.72387 -10.3728,-7.51619 -2.3724,-0.9113 -4.7455,-1.85449 -5.2735,-2.09597 -1.7749,-0.81173 -11.0076,-2.97741 -14.641,-3.43428 -8.1151,-1.02044 -23.2865,0.74521 -35.7623,4.16202 -9.4036,2.57543 -9.5513,2.64151 -14.2278,6.36734 -3.4366,2.73795 -4.7732,4.90461 -6.5949,10.69041 -1.2368,3.92837 -2.0868,8.77429 -1.7111,9.75498 0.2378,0.62043 1.0805,0.34724 4.9299,-1.59805 4.5975,-2.32338 15.9557,-6.07791 22.4455,-7.41955 5.7454,-1.18773 18.4398,-2.37214 19.035,-1.77599 0.7364,0.73756 0.1766,0.85658 -7.0755,1.50408 -8.1692,0.72939 -14.4273,1.96725 -22.0814,4.36772 -10.4838,3.28791 -19.7094,8.2702 -21.3774,11.54489 -1.0198,2.00217 -1.6921,2.62431 -2.1078,1.95064 -0.5346,-0.86645 1.1732,-3.83332 3.1564,-5.48325 1.911,-1.58986 2.0184,-1.81408 1.9258,-4.01934 -0.057,-1.34976 0.4224,-4.1619 1.135,-6.6626 0.6782,-2.37988 1.5071,-5.32401 1.8421,-6.5425 0.9956,-3.62222 5.9353,-8.76506 10.7735,-11.21667 2.6897,-1.36288 14.9325,-4.38138 25.0537,-6.17704 4.8254,-0.85611 7.6923,-1.05527 14.6409,-1.01705 8.1507,0.0448 8.9536,0.13407 14.161,1.5742 6.2898,1.73947 6.0777,1.67553 7.6805,2.31587 0.66,0.26371 2.8993,1.09237 4.9763,1.84147 4.5971,1.6581 7.33,3.7854 10.7964,8.40407 0.6946,0.92551 1.3825,1.79093 1.5288,1.92314 3.3572,3.03549 8.6168,17.21707 7.9102,21.32871 -0.5354,3.11531 -0.4562,3.71582 0.9146,6.93412 1.0063,2.3625 2.6134,9.44995 2.6671,11.76246 0.019,0.81739 -0.9118,0.28229 -1.2242,-0.70382 z m -94.2936,-1.74578 c 0,-0.93221 1.9469,-2.02496 6.0768,-3.41075 4.4346,-1.48809 5.9246,-1.76755 5.9233,-1.11102 -6e-4,0.37019 -4.9271,2.52412 -5.7732,2.52412 -0.2591,0 -1.5906,0.54088 -2.9588,1.20196 -2.6668,1.28853 -3.2681,1.43491 -3.2681,0.79569 z m 80.8396,-4.09681 c -1.0812,-0.61931 -3.1333,-1.98857 -4.5603,-3.04281 -4.0404,-2.98505 -9.561,-4.28994 -20.0381,-4.73639 -6.0012,-0.25573 -9.4862,-0.60875 -14.3267,-1.45129 -5.8297,-1.01471 -8.983,-0.91724 -13.4539,0.41587 -2.1679,0.64639 -4.058,1.05867 -4.2003,0.91616 -0.8829,-0.8843 0.1737,-1.5289 3.9416,-2.40458 6.2548,-1.45366 6.8947,-1.52026 9.993,-1.04 5.5029,0.85295 15.8431,1.87506 19.1116,1.88915 4.351,0.0187 12.4033,1.32264 15.3485,2.48537 1.2915,0.50984 3.2395,1.64611 4.3291,2.52504 3.166,2.55397 6.2501,4.13979 8.0236,4.12571 l 1.6379,-0.013 -1.6801,-1.57449 c -2.0124,-1.88592 -4.3202,-4.86627 -4.3202,-5.57918 0,-1.06349 1.4148,-0.45378 2.4357,1.04969 0.5836,0.8594 2.1215,2.54366 3.4175,3.74279 3.0982,2.86652 2.8497,3.83197 -0.9843,3.82377 -1.9532,-0.004 -3.2571,-0.31987 -4.6746,-1.1318 z m -81.3044,-25.90653 c 0.019,-0.73686 3.3377,-2.79572 6.3877,-3.96237 1.2425,-0.47525 2.1982,-0.92508 2.1238,-0.9996 -0.074,-0.0745 -1.5353,0.15709 -3.2464,0.51472 -1.711,0.35763 -3.1937,0.56735 -3.2949,0.46605 -0.4547,-0.45549 0.4726,-1.66801 1.2757,-1.66801 0.4901,0 2.4774,-0.54042 4.4164,-1.20093 3.6093,-1.22954 4.7299,-1.24057 3.0882,-0.0304 -0.8379,0.61765 -0.8495,0.71123 -0.1225,0.99362 0.4414,0.17146 1.1981,0.0997 1.6815,-0.15939 1.2332,-0.66105 3.7091,-0.89039 3.9964,-0.37018 0.132,0.23907 -1.4881,0.90229 -3.6003,1.47383 -4.6088,1.24712 -8.57,2.89128 -10.6486,4.41992 -1.7434,1.28208 -2.0783,1.36719 -2.057,0.52274 z m 48.8974,-0.0907 c -0.1158,-0.116 -1.2781,-0.27827 -2.5828,-0.36059 -2.671,-0.16851 -3.27,-1.03847 -0.8007,-1.16285 2.0711,-0.10432 4.0396,0.42864 4.2829,1.15959 0.1825,0.54861 -0.4567,0.80723 -0.8994,0.36385 z m -8.3295,-1.19821 c -0.1519,-0.24616 -0.094,-0.56025 0.1284,-0.69799 0.5664,-0.35061 2.4913,0.20634 2.4913,0.72084 0,0.56653 -2.2682,0.54674 -2.6197,-0.0229 z m 35.5018,-3.13283 c -2.7176,-3.49958 -5.1684,-4.9854 -8.5486,-5.18285 -2.4587,-0.14361 -2.937,-0.66195 -1.0488,-1.13659 1.7693,-0.44478 4.5552,0.19079 6.5507,1.49444 1.7626,1.1515 6.1669,6.44168 6.1669,7.4073 0,1.07147 -0.7914,0.41644 -3.1202,-2.5823 z m -49.4298,0.28341 c 1.041,-0.98202 5.5717,-2.45774 11.5074,-3.74816 l 3.8402,-0.83486 -1.9201,-0.38448 c -1.0561,-0.21147 -5.4304,-0.42012 -9.7206,-0.46368 -7.1648,-0.0727 -8.6516,-0.30395 -7.307,-1.13628 1.5428,-0.95502 21.5791,0.19956 25.3081,1.45837 1.2811,0.43246 0.5109,1.19392 -1.2,1.1865 -0.9901,-0.004 -4.2843,0.4825 -7.3205,1.08176 l -5.5204,1.08958 4.4574,0.13846 c 4.9895,0.155 5.7497,1.05291 0.9146,1.08039 -1.6345,0.009 -4.3759,0.32621 -6.092,0.70428 -1.7161,0.37807 -4.1943,0.695 -5.507,0.70429 -2.3454,0.0166 -2.3704,0.001 -1.4401,-0.87617 z m 7.3871,-1.3381 c 0.4817,-0.41607 -1.7119,-0.10936 -2.3601,0.32999 -0.5259,0.35641 -0.3317,0.40101 0.72,0.16539 0.7921,-0.17744 1.5301,-0.40037 1.6401,-0.49538 z m -16.428,-0.961 c -0.6782,-0.67921 0.3222,-1.13391 2.4554,-1.11608 l 2.2519,0.0188 -1.6153,0.70236 c -1.7552,0.76322 -2.6147,0.873 -3.092,0.3949 z m 38.5371,-0.18096 c -0.8887,-0.5501 0.068,-0.92964 4.1252,-1.63624 3.2112,-0.55929 3.5644,-0.55071 2.9431,0.0715 -0.8572,0.85853 -6.2725,2.05732 -7.0683,1.56472 z"
         id="path1" /></g></g></svg>
