<?xml version="1.0" encoding="UTF-8" standalone="no"?>
<!-- Created with Inkscape (http://www.inkscape.org/) -->

<svg
   width="61.221001mm"
   height="62.240601mm"
   viewBox="0 0 61.221 62.240601"
   version="1.1"
   id="svg1"
   xml:space="preserve"
   inkscape:export-filename="bird.svg"
   inkscape:export-xdpi="96"
   inkscape:export-ydpi="96"
   xmlns:inkscape="http://www.inkscape.org/namespaces/inkscape"
   xmlns:sodipodi="http://sodipodi.sourceforge.net/DTD/sodipodi-0.dtd"
   xmlns="http://www.w3.org/2000/svg"
   xmlns:svg="http://www.w3.org/2000/svg"><sodipodi:namedview
     id="namedview1"
     pagecolor="#ffffff"
     bordercolor="#000000"
     borderopacity="0.25"
     inkscape:showpageshadow="2"
     inkscape:pageopacity="0.0"
     inkscape:pagecheckerboard="0"
     inkscape:deskcolor="#d1d1d1"
     inkscape:document-units="mm"><inkscape:page
       x="0"
       y="0"
       width="61.221001"
       height="62.240601"
       id="page2"
       margin="0"
       bleed="0" /></sodipodi:namedview><defs
     id="defs1" /><g
     inkscape:label="Layer 1"
     inkscape:groupmode="layer"
     id="layer1"
     transform="translate(1472.671,3650.7208)"><path
       id="path936"
       d="m -1472.5017,-3650.5514 h 60.8824 v -0.1694 h -60.8824 z"
       style="fill:#000000;fill-opacity:1;fill-rule:evenodd;stroke:none;stroke-width:0.352778" /><path
       id="path941-9"
       d="m -1472.671,-3588.6495 h 0.1693 v -61.8984 h -0.1693 z"
       style="fill:#000000;fill-opacity:1;fill-rule:evenodd;stroke:none;stroke-width:0.352778" /><path
       id="path942"
       d="m -1411.6193,-3588.6495 h 0.1693 v -61.8984 h -0.1693 z"
       style="fill:#000000;fill-opacity:1;fill-rule:evenodd;stroke:none;stroke-width:0.352778" /><path
       id="path952"
       d="m -1472.5017,-3588.4802 h 60.8824 v -0.1693 h -60.8824 z"
       style="fill:#000000;fill-opacity:1;fill-rule:evenodd;stroke:none;stroke-width:0.352778" /><g
       id="g990"
       transform="matrix(0.26458333,0,0,0.26458333,-4129.2552,-3666.3788)"><path
         style="fill:#000000"
         d="m 10110.244,235.25017 c -1.716,-0.35373 -4.256,-0.879 -5.644,-1.16728 -1.389,-0.28828 -4.629,-1.09486 -7.201,-1.79239 -2.572,-0.69753 -5.108,-1.3743 -5.636,-1.50394 -1.058,-0.25976 -7.944,-2.76936 -13.921,-5.07331 -4.653,-1.79394 -11.314,-5.31053 -12.459,-6.57873 -0.661,-0.73131 -1.084,-0.83069 -2.02,-0.47428 -2.007,0.76436 -4.409,0.50417 -6.868,-0.74414 -2.94,-1.49234 -4.817,-3.85898 -4.807,-6.06249 0.01,-2.51212 0.596,-3.03697 3.691,-3.31275 2.71,-0.24153 2.786,-0.28712 2.929,-1.76651 0.17,-1.75134 -1.174,-3.30973 -3.246,-3.76566 -1.697,-0.37334 -4.826,-2.98271 -4.804,-4.00632 0.05,-2.28018 3.497,-4.52176 7.903,-5.13687 3.168,-0.44235 5.593,-2.07329 7.666,-5.15614 0.932,-1.38642 1.695,-2.69748 1.695,-2.91346 0,-0.21598 1.242,-1.92761 2.76,-3.80362 1.518,-1.87601 3.299,-4.08218 3.959,-4.90261 4.746,-5.90571 15.647,-13.56052 21.354,-14.99512 0.742,-0.18656 1.329,-0.75426 1.504,-1.45479 0.159,-0.63187 0.429,-1.14885 0.602,-1.14885 0.172,0 1.245,-1.89318 2.383,-4.20707 2.404,-4.88796 2.714,-5.29502 6.6,-8.65738 2.802,-2.42436 7.034,-4.58399 14.841,-7.57332 5.06,-1.93776 6.223,-2.52956 7.93,-4.03593 0.918,-0.81102 1.945,-1.47803 2.281,-1.48226 0.336,-0.004 1.524,0.83033 2.64,1.85456 1.116,1.02423 3.167,2.55946 4.557,3.41163 2.745,1.68249 3.473,2.64004 3.473,4.57024 0,2.36434 -1.507,4.61564 -7.572,11.30918 -1.1,1.21427 -2.632,4.13435 -3.217,6.13257 -0.617,2.10768 1.14,1.14527 2.379,-1.30273 0.663,-1.3115 2.481,-3.75017 4.04,-5.41926 2.512,-2.68935 3.236,-3.16208 6.362,-4.154 1.941,-0.61561 4.431,-1.63876 5.534,-2.27367 1.103,-0.63491 2.237,-1.15438 2.52,-1.15438 0.805,0 0.606,1.91066 -0.423,4.05527 -0.516,1.07516 -1.373,4.43812 -1.905,7.47326 -0.782,4.4614 -1.251,5.92203 -2.45,7.62554 -0.815,1.15891 -1.416,2.16374 -1.335,2.23295 0.08,0.0692 2.415,1.03444 5.187,2.14496 4.86,1.94662 7.122,2.42939 18.241,3.89317 4.62,0.60817 9.364,-0.37151 14.854,-3.06786 5.815,-2.85598 13.225,-11.07851 18.748,-20.80433 1.605,-2.82565 3.215,-5.03367 5.695,-7.81167 2.222,-2.48865 9.914,-10.78031 10.386,-11.19524 0.264,-0.23219 1.668,-1.4973 3.12,-2.81138 1.453,-1.31407 3.019,-2.51652 3.481,-2.67212 0.462,-0.1556 0.84,-0.47011 0.84,-0.69891 0,-0.22881 0.378,-0.53821 0.84,-0.68756 0.462,-0.14935 1.488,-0.87015 2.28,-1.60177 2.991,-2.76328 5.449,-4.43898 6.129,-4.17797 0.99,0.38085 1.805,7.10446 1.861,15.36225 0.04,6.22596 -0.06,7.05618 -1.373,11.05858 -0.78,2.38 -1.797,5.73364 -2.261,7.45253 -1.937,7.17889 -3.094,9.50224 -6.298,12.64553 -1.672,1.6394 -4.799,4.928 -6.951,7.308 l -3.913,4.32728 2.563,0.28873 c 1.409,0.1588 3.535,0.73127 4.723,1.27214 1.188,0.54087 3.931,1.6815 6.097,2.53473 3.846,1.51559 6.082,3.2848 8.401,6.64892 0.428,0.6206 2.165,2.13515 3.861,3.36566 1.696,1.23051 3.777,3.03435 4.625,4.00854 1.676,1.92659 8.331,5.76715 11.451,6.60874 1.071,0.28897 2.07,0.84471 2.22,1.23498 1.142,2.98051 -12.749,8.8009 -20.575,8.62096 -5.003,-0.11506 -11.969,-0.77956 -12.809,-1.22197 -0.444,-0.23428 -2.372,-0.75554 -4.284,-1.15836 -1.912,-0.40283 -3.708,-0.91748 -3.992,-1.14369 -0.284,-0.2262 -2.244,-0.7824 -4.356,-1.23599 -2.112,-0.45359 -5.273,-1.24436 -7.025,-1.75727 -1.751,-0.51291 -4.271,-1.06143 -5.598,-1.21894 -3.108,-0.36871 -8.464,0.92071 -11.296,2.71937 -1.165,0.7401 -3.064,1.76845 -4.221,2.28521 -1.156,0.51675 -3.267,1.89151 -4.691,3.05501 -2.641,2.15812 -4.439,3.58408 -7.212,5.72151 -3.807,2.93387 -3.939,2.44302 1.204,4.48252 3.698,1.46666 5.505,1.89452 8.94,2.11742 5.129,0.33283 5.678,0.90716 3.117,3.2571 -5.544,5.08726 -12.579,8.40944 -18.596,8.78205 -4.686,0.29011 -8.102,-0.45169 -12.878,-2.79659 -2.127,-1.04449 -4.238,-1.89907 -4.69,-1.89907 -0.452,0 -2.135,0.52229 -3.74,1.16065 -5.202,2.0691 -13.765,3.24493 -24.999,3.43278 -7.137,0.11934 -10.992,-0.0192 -13.201,-0.47457 z m 23.521,-2.23195 c 8.743,-1.11026 11.041,-1.72926 17.077,-4.59934 1.868,-0.88816 3.71,-1.61484 4.094,-1.61484 0.673,0 5.708,-2.46887 9.908,-4.85908 2.258,-1.28464 7.3,-5.13465 13.543,-10.34112 2.256,-1.88122 5.491,-4.12195 7.189,-4.9794 1.698,-0.85745 3.858,-2.065 4.8,-2.68345 0.942,-0.61845 3.535,-1.59405 5.763,-2.168 3.476,-0.89555 4.497,-0.97531 7.2,-0.56238 3.787,0.57836 9.915,2.08442 17.071,4.19555 6.447,1.90174 9.054,2.50229 13.561,3.12421 4.022,0.55509 11.833,0.1991 13.287,-0.60559 0.547,-0.30255 1.364,-0.49352 1.816,-0.42439 1.026,0.15679 8.589,-3.30418 8.288,-3.79237 -0.121,-0.19637 -0.817,-0.50524 -1.545,-0.68636 -0.729,-0.18112 -1.757,-0.72538 -2.285,-1.20947 -0.528,-0.48409 -2.197,-1.62091 -3.708,-2.52628 -1.512,-0.90537 -4.354,-3.09731 -6.317,-4.87098 -5.848,-5.28395 -5.769,-5.2385 -9.337,-5.33695 -2.311,-0.0638 -4.598,-0.58783 -8.239,-1.8877 -4.194,-1.49715 -5.605,-1.78545 -8.401,-1.71611 -4.451,0.11038 -4.56,0.093 -4.56,-0.72392 0,-2.51357 7.301,-2.19157 15.281,0.67389 2.992,1.0745 6.016,1.94718 6.72,1.93929 1.242,-0.0139 1.215,-0.0715 -0.88,-1.90888 -1.188,-1.042 -2.484,-1.90776 -2.88,-1.92392 -0.396,-0.0162 -1.8,-0.56155 -3.12,-1.21198 -1.32,-0.65042 -2.679,-1.18456 -3.02,-1.18698 -0.34,-0.002 -1.503,-0.45633 -2.584,-1.00869 -1.576,-0.80509 -2.643,-0.97199 -5.381,-0.84142 l -3.416,0.16288 v -1.27825 c 0,-1.32691 4.118,-6.15047 12.54,-14.68772 2.145,-2.17423 4.022,-4.42079 4.171,-4.99236 0.161,-0.61373 -2.026,1.27832 -5.34,4.62118 -6.806,6.86633 -10.867,10.32705 -12.116,10.32705 -1.573,0 -1.047,-1.1986 1.251,-2.85196 2.454,-1.76487 11.654,-11.02192 13.303,-13.38513 0.756,-1.08429 1.457,-1.53863 2.383,-1.5445 1.034,-0.007 1.374,-0.28778 1.613,-1.33053 0.349,-1.52784 1.764,-6.59328 3.174,-11.35455 1.57,-5.30509 1.267,-20.97979 -0.406,-20.97979 -0.381,0 -1.71,0.93411 -2.953,2.0758 -1.242,1.14169 -3.771,3.19071 -5.619,4.55339 -5.296,3.90484 -17.304,16.84086 -19.723,21.24795 -0.912,1.6606 -6.163,9.58124 -8.08,12.18634 -3.2,4.35077 -9.199,9.45211 -13.686,11.63922 -3.013,1.46903 -5.014,1.98851 -11.314,2.93722 -0.792,0.11927 -3.169,-0.13085 -5.281,-0.55583 -2.112,-0.42498 -5.244,-0.94604 -6.96,-1.15791 -4.872,-0.60151 -8.402,-1.7717 -14.792,-4.90349 -3.252,-1.59354 -6.708,-3.02049 -7.681,-3.171 -0.972,-0.15052 -2.525,-0.64616 -3.449,-1.10144 -0.924,-0.45528 -2.868,-1.10185 -4.32,-1.43683 -1.452,-0.33498 -2.856,-0.76605 -3.12,-0.95795 -1.045,-0.75933 -6.965,-1.55268 -11.387,-1.52598 -5.63,0.034 -13.377,1.2835 -15.704,2.5327 -2.04,1.09502 -2.736,1.13871 -3.257,0.20462 -0.335,-0.59912 -0.788,-0.52326 -2.997,0.50142 -4.247,1.97117 -16.818,11.07056 -16.818,12.17409 0,0.16546 -0.495,0.83954 -1.101,1.49795 -1.915,2.0825 -5.823,7.39673 -6.808,9.25994 -0.523,0.98655 -1.117,1.79373 -1.321,1.79373 -0.204,0 -0.37,0.23705 -0.37,0.52679 0,2.21096 -4.66,5.33079 -8.881,5.94614 -3.092,0.45082 -5.52,1.4713 -5.52,2.32031 0,0.71618 1.635,1.66729 4.269,2.48379 2.174,0.67391 3.368,2.39946 3.72,5.37799 0.402,3.39582 -0.676,4.50053 -4.389,4.50053 -1.594,0 -2.64,0.20879 -2.64,0.52683 0,1.3332 1.784,3.30384 3.828,4.22943 1.87,0.84619 2.625,0.9445 4.526,0.58878 2.75,-0.5146 3.844,-0.27278 5.432,1.20137 2.463,2.28664 8.559,5.23986 17.896,8.66952 5.925,2.17664 14.592,4.69861 15.841,4.60922 0.132,-0.009 0.605,0.17879 1.052,0.41831 1.34,0.71825 9.526,2.18418 12.857,2.30244 1.711,0.0607 3.155,0.15527 3.209,0.21014 0.279,0.27877 11.496,-0.22471 15.043,-0.67519 z m -30.241,-10.24961 c 0,-1.00793 0.275,-1.73735 0.721,-1.90866 1.312,-0.50445 3.533,-4.68475 4.341,-8.17157 1.2,-5.17564 1.058,-9.90312 -0.434,-14.52139 -0.75,-2.32127 -1.737,-4.33126 -2.46,-5.01209 -0.665,-0.62517 -1.208,-1.63986 -1.208,-2.25487 0,-0.97179 0.236,-1.11821 1.801,-1.11821 2.357,0 3.887,1.61539 6.461,6.82157 1.851,3.7432 1.966,4.23109 2.19,9.31815 0.321,7.29398 -0.03,9.16519 -2.387,12.67982 -2.4,3.58062 -5.246,5.79864 -7.44,5.79864 -1.482,0 -1.585,-0.10602 -1.585,-1.63139 z m 7.71,-6.78275 c 1.373,-2.41667 1.829,-8.97846 0.922,-13.26062 -0.334,-1.57865 -0.682,-2.79639 -0.772,-2.70609 -0.09,0.0903 0.02,1.65756 0.235,3.48281 0.328,2.73109 0.202,4.21508 -0.711,8.38207 -1.558,7.10828 -1.536,7.37838 0.326,4.10183 z m -0.429,-18.14164 c -0.356,-0.35679 -0.419,-0.16907 -0.21,0.63068 0.17,0.65016 0.387,0.8681 0.507,0.508 0.116,-0.34687 -0.02,-0.85928 -0.297,-1.13868 z m 19.761,23.39809 c -0.158,-0.4145 0,-1.28343 0.341,-1.93094 0.541,-1.01266 0.501,-1.42836 -0.281,-2.97262 -0.501,-0.98742 -0.855,-2.28213 -0.788,-2.87713 0.07,-0.595 -0.1,-1.08182 -0.371,-1.08182 -0.286,0 -0.445,-0.95119 -0.378,-2.25071 0.105,-2.04474 0,-2.27772 -1.084,-2.54592 -1.606,-0.39496 -1.546,-1.65429 0.09,-1.8433 1.486,-0.17204 2.272,0.92674 2.854,3.99548 0.856,4.50279 1.295,6.11888 1.801,6.62575 0.746,0.74773 0.674,1.65758 -0.303,3.78211 -0.909,1.97754 -1.426,2.28032 -1.879,1.0991 z m -40.003,-4.5009 c 0,-0.24555 0.324,-0.77101 0.72,-1.16767 0.871,-0.87275 0.903,-1.47152 0.141,-2.69276 -0.473,-0.75848 -0.427,-1.09538 0.248,-1.84251 0.784,-0.86825 0.773,-0.98182 -0.227,-2.25473 -0.972,-1.23777 -0.991,-1.38561 -0.247,-1.93024 1.166,-0.85434 1.001,-1.56057 -0.736,-3.1501 -1.124,-1.02826 -1.398,-1.55375 -1.012,-1.94068 1.323,-1.32514 4.408,2.38993 4.435,5.34167 0,0.91814 0.03,2.21026 0.04,2.87137 0.05,2.4215 -0.605,5.55107 -1.328,6.3707 -0.791,0.89628 -2.034,1.13765 -2.034,0.39495 z m 72.221,-5.03481 c -0.168,-0.89915 -0.22,-2.03505 -0.116,-2.52424 0.105,-0.48919 -0.432,-2.06007 -1.191,-3.49085 -0.76,-1.43079 -1.284,-2.97664 -1.164,-3.43523 0.141,-0.54063 -0.184,-1.01703 -0.924,-1.35493 -1.284,-0.58566 -1.518,-1.86998 -0.418,-2.29254 1.084,-0.41683 3.063,1.10305 3.382,2.59828 0.154,0.72388 0.615,2.28978 1.024,3.47978 1.008,2.93404 1.249,8.65454 0.364,8.65454 -0.36,0 -0.787,-0.73077 -0.957,-1.63481 z m 71.307,-4.54228 c -0.396,-0.24527 -1.692,-0.60399 -2.88,-0.79717 -3.17,-0.51541 -3.13,-0.50602 -9.121,-2.14372 -3.036,-0.83002 -6.358,-1.72178 -7.382,-1.98169 -2.575,-0.65345 -3.658,-1.30293 -3.658,-2.19404 0,-0.86879 1.018,-0.76171 5.28,0.55518 4.682,1.44657 13.168,3.57484 14.312,3.58921 0.612,0.008 1.584,0.28443 2.161,0.61498 0.576,0.33056 3.363,0.70919 6.193,0.84141 4.194,0.19595 5.07,0.36213 4.737,0.89856 -0.491,0.79149 -8.53,1.30613 -9.642,0.61728 z m 7.441,-3.27847 c -7.14,-0.87476 -16.196,-3.08729 -24.002,-5.86393 -4.269,-1.51843 -5.31,-2.0731 -5.434,-2.89553 -0.08,-0.55951 -0.08,-1.0173 0,-1.0173 0.09,0 2.691,0.86495 5.792,1.92211 11.898,4.05661 20.14,5.76597 27.814,5.76899 4.551,0.002 6.072,0.4741 4.362,1.35519 -1.002,0.51696 -6.462,0.98428 -8.533,0.73047 z m -167.29,-5.30607 c -0.396,-0.14381 -1.422,-0.92644 -2.28,-1.73919 -1.352,-1.28068 -1.56,-1.79566 -1.56,-3.86225 0,-4.39382 3.671,-7.44438 8.231,-6.83858 3.342,0.44411 3.696,0.65231 4.802,2.82283 1.816,3.56528 0.05,7.98556 -3.495,8.76619 -0.752,0.16542 -1.49,0.50048 -1.641,0.74458 -0.292,0.47345 -2.861,0.54084 -4.057,0.10642 z m 4.541,-3.12079 c 1.605,-0.78107 2.301,-1.46416 2.687,-2.6369 1.396,-4.23685 -2.257,-5.55892 -7.108,-2.57242 -2.07,1.27417 -2.209,3.75915 -0.295,5.26695 1.586,1.24965 2.041,1.24409 4.716,-0.0576 z m -3.741,-0.70882 c -0.176,-0.1763 -0.32,-1.02702 -0.32,-1.89049 0,-1.18413 0.343,-1.81433 1.394,-2.56431 1.734,-1.23634 2.2,-1.24083 3.406,-0.0327 1.955,1.95795 0.437,4.80808 -2.56,4.80808 -0.88,0 -1.744,-0.14425 -1.92,-0.32054 z m 119.053,2.41049 c -0.154,-0.15413 -0.169,-0.8497 -0.03,-1.5457 0.135,-0.69601 -0.09,-2.20773 -0.5,-3.35939 -0.41,-1.15166 -0.615,-2.61212 -0.457,-3.24546 0.166,-0.66248 0.08,-1.15152 -0.211,-1.15152 -0.817,0 -1.228,-1.99301 -0.504,-2.44131 0.5,-0.30939 0.351,-0.70342 -0.669,-1.76932 -1.389,-1.45265 -1.738,-3.0015 -0.675,-3.0015 1.939,0 3.895,4.68222 3.745,8.96632 -0.03,0.83258 0.269,2.28609 0.663,3.23001 0.394,0.94392 0.716,2.14829 0.716,2.67637 0,0.95582 -1.541,2.17539 -2.074,1.6415 z m 36.636,-1.11703 c -4.558,-1.50253 -9.222,-2.81473 -13.197,-3.71249 -2.954,-0.66721 -3.875,-1.07181 -4.005,-1.75923 -0.154,-0.81126 0.06,-0.86282 2.396,-0.56484 2.241,0.28651 8.124,1.72805 15.973,3.91423 1.564,0.43566 3.46,0.55741 5.591,0.35903 3.75,-0.34916 5.804,0.0179 5.439,0.97205 -0.153,0.39945 -1.404,0.77499 -3.224,0.96791 -1.635,0.17337 -3.729,0.40038 -4.653,0.50448 -0.924,0.1041 -2.868,-0.20241 -4.32,-0.68114 z m -85.191,-2.05474 c -0.184,-0.85945 -0.311,-2.5311 -0.282,-3.7148 0.04,-1.70759 -0.171,-2.32099 -1.029,-2.96947 -1.009,-0.76255 -1.039,-0.9348 -0.449,-2.57086 0.564,-1.56117 0.542,-1.8209 -0.205,-2.36746 -0.631,-0.46221 -0.762,-0.99493 -0.53,-2.15577 0.284,-1.42272 0.176,-1.59698 -1.397,-2.25539 -1.156,-0.48363 -1.655,-0.97656 -1.548,-1.52983 0.426,-2.21621 4.395,0.12503 4.936,2.91193 0.166,0.8523 0.637,2.33911 1.047,3.30404 0.538,1.26614 0.609,1.99799 0.256,2.62959 -0.354,0.63337 -0.289,1.2622 0.234,2.27586 0.404,0.78256 0.623,2.06219 0.496,2.8997 -0.125,0.82446 -0.03,1.88583 0.221,2.3586 0.555,1.06093 0.07,2.74649 -0.782,2.74649 -0.348,0 -0.784,-0.70319 -0.968,-1.56263 z m 29.819,-2.64842 c -0.173,-0.28064 -0.186,-0.84565 -0.03,-1.25557 0.441,-1.15192 -2.074,-6.03474 -3.427,-6.65209 -1.362,-0.62172 -1.575,-1.82473 -0.322,-1.82473 0.469,0 1.356,0.35303 1.971,0.78451 1.229,0.86238 3.404,5.13095 3.411,6.69632 0,1.27992 -1.178,2.94193 -1.604,2.25156 z m 28.794,-2.83105 c -1.152,-2.4183 -0.25,-3.29777 1.103,-1.07563 1.141,1.8749 1.263,2.82884 0.362,2.82884 -0.347,0 -1.006,-0.78895 -1.465,-1.75321 z m -78.712,-0.49474 c -0.174,-0.174 -0.316,-0.79472 -0.316,-1.37938 0,-0.58465 -0.324,-1.33236 -0.72,-1.66156 -0.867,-0.72073 -0.933,-1.99842 -0.144,-2.78869 0.448,-0.44875 0.448,-0.57697 0,-0.57697 -0.732,0 -0.742,-1.18975 -0.02,-2.34687 0.836,-1.34151 0.175,-2.37035 -1.755,-2.73311 -1.247,-0.2343 -1.687,-0.54352 -1.577,-1.10835 0.22,-1.12607 2.615,-0.73133 4.136,0.6818 0.91,0.845 1.246,1.66993 1.304,3.20218 0.04,1.13517 0.233,3.37597 0.423,4.97956 0.268,2.25475 0.192,3.04392 -0.334,3.48169 -0.375,0.31134 -0.824,0.42371 -0.997,0.2497 z m -33.598,-1.91906 c -0.176,-0.17629 -0.32,-0.81262 -0.32,-1.41405 0,-0.60143 -0.239,-1.24163 -0.532,-1.42267 -0.335,-0.20727 -0.417,-1.04691 -0.222,-2.26739 0.269,-1.68698 0.137,-2.11839 -1.02,-3.32803 -1.063,-1.11122 -1.195,-1.4727 -0.661,-1.80337 1.898,-1.17483 3.405,1.47722 3.683,6.48033 0.206,3.70484 -0.03,4.65591 -0.928,3.75518 z m 15.521,-8.57033 c 0,-1.15804 -0.298,-1.86503 -0.96,-2.2793 -1.136,-0.71029 -1.251,-1.72998 -0.24,-2.11858 1.08,-0.41529 0.873,-1.00973 -0.6,-1.71674 -1.334,-0.64008 -1.814,-2.29903 -0.767,-2.64849 0.825,-0.27554 3.559,2.84264 3.464,3.95095 -0.05,0.52889 0.161,1.55652 0.458,2.28363 0.653,1.59591 0.221,4.20728 -0.695,4.20728 -0.434,0 -0.66,-0.57489 -0.66,-1.67875 z m 94.168,-4.58808 c 0.06,-1.44377 -0.149,-2.14623 -0.722,-2.46736 -0.99,-0.5552 -1.06,-2.3244 -0.09,-2.3244 1.216,0 2.243,2.15657 2.081,4.37084 -0.203,2.77307 -1.374,3.16226 -1.267,0.42092 z m 8.078,-4.26585 c 0,-0.23963 1.087,-1.21836 2.417,-2.17494 3.614,-2.60108 4.866,-3.82157 7.712,-7.51951 1.425,-1.85167 4.368,-5.5767 6.54,-8.27785 2.171,-2.70115 3.953,-5.29661 3.96,-5.76769 0.02,-1.07896 1.417,-1.66129 1.944,-0.80754 0.639,1.03657 -1.563,4.76596 -5.557,9.40877 -2.022,2.35152 -4.031,4.81639 -4.464,5.4775 -1.845,2.81737 -5.672,6.71147 -8.559,8.70855 -1.949,1.34868 -3.993,1.83642 -3.993,0.95271 z m 0.963,-7.37742 c 0,-0.33056 1.211,-1.79101 2.689,-3.24546 3.14,-3.09092 4.593,-5.11055 8.038,-11.17601 3.729,-6.56532 3.887,-6.83284 4.176,-7.09469 0.146,-0.13222 0.733,-1.01191 1.305,-1.95487 1.484,-2.44892 2.885,-3.63103 3.534,-2.98138 0.375,0.37579 0.271,0.97263 -0.371,2.12824 -0.491,0.88329 -1.009,1.71417 -1.152,1.84639 -0.571,0.53108 -4.196,6.14538 -5.278,8.17374 -0.634,1.19 -2.308,3.93976 -3.72,6.11059 -3.582,5.50973 -9.232,10.52974 -9.221,8.19345 z m -2.644,-4.20795 c -0.248,-0.40277 0.739,-2.35171 3.655,-7.21124 0.238,-0.39667 0.699,-1.26212 1.025,-1.92323 0.326,-0.66112 1.093,-1.74293 1.703,-2.40405 0.611,-0.66111 2.117,-2.71656 3.347,-4.56767 2.038,-3.06536 5.586,-7.21273 8.032,-9.38715 3.651,-3.24595 5.668,-4.79669 6.241,-4.79669 1.469,0 1.241,1.15324 -0.537,2.70995 -7.618,6.67173 -14.285,14.84834 -19.145,23.48081 -2.217,3.93769 -3.607,5.25629 -4.321,4.09927 z m -31.745,74.8162 c 1.503,-0.68843 2.849,-1.25168 2.992,-1.25168 0.411,0 4.717,-3.00984 5.081,-3.55138 0.526,-0.78514 -0.04,-1.25671 -1.514,-1.25671 -1.366,0 -4.438,-0.89813 -9.815,-2.86968 -2.827,-1.03652 -5.327,-0.99514 -4.968,0.0823 0.184,0.55305 4.793,2.26849 6.161,2.29309 1.426,0.0256 5.727,1.49407 5.727,1.9554 0,0.84611 -3.361,0.47812 -9.412,-1.0306 -5.161,-1.28667 -6.184,-1.41139 -7.408,-0.90329 -0.782,0.32423 -1.421,0.76427 -1.421,0.97789 0,0.21361 1.242,0.62564 2.76,0.91563 3.457,0.66034 6.469,1.51819 7.03,2.00196 0.774,0.66764 -1.854,0.96735 -4.045,0.46147 -1.18,-0.27222 -2.901,-0.50157 -3.825,-0.50967 -0.924,-0.008 -2.279,-0.32768 -3.011,-0.7102 -1.207,-0.63079 -1.487,-0.60372 -3,0.29085 -0.918,0.5425 -1.669,1.07596 -1.669,1.18549 0,0.30115 4.81,2.47438 6.72,3.03645 0.924,0.27186 3.751,0.41331 6.283,0.31435 3.683,-0.14399 5.148,-0.42999 7.334,-1.43162 z m -31.008,-67.15952 c 1.505,-1.54169 2.99,-5.76242 2.99,-8.49746 0,-0.82488 0.21,-2.0529 0.467,-2.72893 0.82,-2.15992 0.247,-2.70875 -2.065,-1.97974 -5.039,1.58885 -6.398,2.57092 -9.433,6.81822 l -1.671,2.33817 1.431,-0.91886 c 0.787,-0.50537 2.079,-1.55219 2.871,-2.32627 2.34,-2.28696 6.48,-4.09052 6.48,-2.82289 0,0.23259 -0.918,1.17942 -2.04,2.10407 -3.697,3.04684 -7.568,6.92131 -7.241,7.24848 0.655,0.6561 1.694,0.28155 3.187,-1.14803 1.633,-1.56463 4.121,-3.07111 4.479,-2.71238 0.441,0.44173 -1.547,3.6366 -2.705,4.34769 l -1.2,0.73672 1.2,0.4799 c 1.701,0.68033 1.658,0.69288 3.25,-0.93869 z m -41.8,-4.89115 c 0.814,-0.85945 1.84,-2.27712 2.279,-3.15038 1.342,-2.66565 4.396,-5.1881 9.085,-7.50356 2.459,-1.21422 4.685,-2.20768 4.947,-2.20768 0.262,0 1.917,-0.45304 3.678,-1.00676 2.632,-0.82761 3.543,-1.40516 5.118,-3.24546 1.646,-1.9229 1.916,-2.08623 1.919,-1.15785 0,1.26356 -2.957,4.5153 -5.037,5.53269 -0.792,0.38736 -2.736,1.09989 -4.32,1.5834 -3.836,1.17069 -9.768,4.28232 -11.376,5.96663 -1.389,1.45573 -3.26,4.32361 -3.263,5.00207 0,0.22776 0.745,0.2738 1.657,0.10231 0.913,-0.17149 2.822,-0.32571 4.243,-0.34272 2.549,-0.0305 2.62,-0.0715 5.252,-3.01856 1.866,-2.08936 4.09,-3.82945 7.397,-5.78739 6.337,-3.75068 7.873,-4.93297 7.54,-5.80202 -0.289,-0.75377 0.222,-0.8994 1.471,-0.41934 1.273,0.4894 0.859,1.65091 -1.281,3.58977 -1.122,1.01675 -2.191,1.85751 -2.376,1.86836 -0.185,0.0108 -1.265,0.64524 -2.4,1.40976 -1.135,0.76452 -2.83,1.70854 -3.766,2.09782 -1.588,0.66058 -5.739,4.79435 -5.739,5.71518 0,0.22722 0.927,0.41312 2.06,0.41312 1.132,0 3.255,0.31197 4.716,0.69326 1.462,0.38129 2.935,0.75993 3.273,0.84141 0.37,0.0889 0.945,-0.83825 1.438,-2.3185 0.933,-2.80221 3.634,-6.78531 6.026,-8.88907 1.859,-1.63489 4.747,-6.47727 4.298,-7.20556 -0.166,-0.26947 -0.768,-0.69245 -1.336,-0.93995 -1.568,-0.6828 -2.774,-1.49895 -4.755,-3.21694 -1.978,-1.71592 -3.269,-1.96334 -4.225,-0.80972 -0.792,0.95541 -2.63,1.90821 -5.577,2.89038 -1.274,0.42483 -3.937,1.47502 -5.918,2.33375 -1.98,0.85872 -4.569,1.97473 -5.754,2.48002 -4.586,1.95498 -9.164,7.34951 -11.746,13.83903 -0.916,2.30332 -0.921,2.22512 0.125,2.22512 0.477,0 1.532,-0.70318 2.347,-1.56262 z"
         id="path1" /></g></g></svg>
