<?xml version="1.0" encoding="UTF-8" standalone="no"?>
<!-- Created with Inkscape (http://www.inkscape.org/) -->

<svg
   width="61.221001mm"
   height="62.240601mm"
   viewBox="0 0 61.221 62.240601"
   version="1.1"
   id="svg1"
   xml:space="preserve"
   inkscape:export-filename="mouse.svg"
   inkscape:export-xdpi="96"
   inkscape:export-ydpi="96"
   xmlns:inkscape="http://www.inkscape.org/namespaces/inkscape"
   xmlns:sodipodi="http://sodipodi.sourceforge.net/DTD/sodipodi-0.dtd"
   xmlns="http://www.w3.org/2000/svg"
   xmlns:svg="http://www.w3.org/2000/svg"><sodipodi:namedview
     id="namedview1"
     pagecolor="#ffffff"
     bordercolor="#000000"
     borderopacity="0.25"
     inkscape:showpageshadow="2"
     inkscape:pageopacity="0.0"
     inkscape:pagecheckerboard="0"
     inkscape:deskcolor="#d1d1d1"
     inkscape:document-units="mm"><inkscape:page
       x="0"
       y="0"
       width="61.221001"
       height="62.240601"
       id="page2"
       margin="0"
       bleed="0" /></sodipodi:namedview><defs
     id="defs1" /><g
     inkscape:label="Layer 1"
     inkscape:groupmode="layer"
     id="layer1"
     transform="translate(1472.671,3650.7208)"><path
       id="path936"
       d="m -1472.5017,-3650.5514 h 60.8824 v -0.1694 h -60.8824 z"
       style="fill:#000000;fill-opacity:1;fill-rule:evenodd;stroke:none;stroke-width:0.352778" /><path
       id="path941-9"
       d="m -1472.671,-3588.6495 h 0.1693 v -61.8984 h -0.1693 z"
       style="fill:#000000;fill-opacity:1;fill-rule:evenodd;stroke:none;stroke-width:0.352778" /><path
       id="path942"
       d="m -1411.6193,-3588.6495 h 0.1693 v -61.8984 h -0.1693 z"
       style="fill:#000000;fill-opacity:1;fill-rule:evenodd;stroke:none;stroke-width:0.352778" /><path
       id="path952"
       d="m -1472.5017,-3588.4802 h 60.8824 v -0.1693 h -60.8824 z"
       style="fill:#000000;fill-opacity:1;fill-rule:evenodd;stroke:none;stroke-width:0.352778" /><g
       id="g1038"
       transform="matrix(0.26458333,0,0,0.26458333,-4065.9845,-3853.0953)"><path
         style="fill:#000000"
         d="m 9881.1331,980.42476 c -2.1155,-0.2275 -5.4691,-0.57631 -7.4524,-0.77514 l -3.606,-0.36152 0.1556,-3.12219 c 0.086,-1.71721 0.343,-3.87873 0.5721,-4.80338 0.4733,-1.91035 -0.2582,-5.28225 -1.5675,-7.22541 -0.4525,-0.67164 -1.6766,-1.86048 -2.7202,-2.64186 -2.543,-1.90414 -3.2427,-3.24105 -3.6347,-6.94456 -0.4154,-3.9241 -2.8251,-12.83201 -4.3421,-16.05137 -3.0675,-6.50975 -4.6813,-10.76806 -4.6908,-12.37742 -0.01,-1.12693 0.7419,-3.30842 2.0603,-6.00422 1.5466,-3.16244 2.1236,-4.97216 2.2796,-7.14966 0.3135,-4.37457 -0.6037,-9.05705 -2.7627,-14.10343 -1.0655,-2.49066 -1.9374,-4.79985 -1.9374,-5.13154 0,-0.3317 -0.2315,-1.21157 -0.5146,-1.95528 -0.4695,-1.23369 -0.558,-1.27472 -1.0098,-0.46813 -0.3414,0.60935 -0.3309,2.27661 0.034,5.36558 0.7528,6.37697 0.6783,7.56644 -0.5905,9.43432 -0.6157,0.90644 -1.8325,4.22005 -2.704,7.3636 -1.7165,6.19118 -2.7838,8.54099 -4.6371,10.20907 -0.6563,0.5907 -1.4923,1.92054 -1.8577,2.9552 -0.9171,2.597 -2.752,5.35449 -6.7477,10.14077 -1.8747,2.24558 -3.8897,4.71081 -4.4778,5.47828 -1.3945,1.82 -3.897,3.64814 -4.9938,3.64814 -1.0346,0 -1.1443,-1.29179 -0.2007,-2.36386 1.4494,-1.64688 6.4983,-12.46293 7.7533,-16.60948 0.4798,-1.58512 1.0419,-3.10675 1.2491,-3.3814 0.3887,-0.51505 1.8593,-7.03543 2.1624,-9.58773 0.094,-0.79256 0.2795,-1.89675 0.4119,-2.45376 0.2088,-0.87804 0.7796,-6.52234 1.5005,-14.83841 0.4543,-5.24085 0.3651,-13.71814 -0.1972,-18.73318 -1.6026,-14.29334 -1.5562,-16.35341 0.5136,-22.81605 1.1064,-3.45454 4.2731,-10.39921 5.26,-11.53554 1.308,-1.50595 4.8555,-3.99619 6.5584,-4.60375 4.2278,-1.50846 9.2484,-0.0244 10.934,3.23196 0.683,1.3195 0.8389,1.39497 1.5653,0.75788 2.4973,-2.19028 6.2421,-3.67248 11.1085,-4.39669 9.2685,-1.37935 17.2182,-0.69425 24.316,2.09553 2.9413,1.15606 7.9405,2.79171 11.1193,3.63804 5.7961,1.54316 16.7801,2.13956 21.9205,1.19022 4.3765,-0.80826 14.9317,-7.1386 18.6466,-11.1831 7.3619,-8.01503 9.6926,-11.28394 10.8704,-15.24599 1.0072,-3.38834 1.5566,-4.18325 6.9057,-9.99055 4.9247,-5.34652 6.2746,-6.31484 8.8032,-6.31484 h 1.6254 l -0.011,-2.52178 c -0.013,-2.78883 0.9294,-8.30019 1.6409,-9.60024 0.251,-0.45874 0.4564,-1.48546 0.4564,-2.28161 0,-3.34368 2.5217,-0.81106 6.5937,6.62225 1.2007,2.19181 2.0331,4.35001 2.0434,5.29777 0.017,1.55055 0.065,1.58906 1.58,1.26444 2.1944,-0.4702 2.187,-0.46205 3.0302,-3.35961 0.4175,-1.4347 0.9703,-2.73899 1.2286,-2.89844 0.2582,-0.15945 0.8116,-1.14396 1.2296,-2.18782 0.9803,-2.44749 6.8931,-7.14679 8.9921,-7.14679 1.339,0 1.401,1.88063 0.148,4.47466 -1.898,3.92821 -3.188,8.39751 -3.685,12.76404 -0.252,2.21617 -0.564,4.13421 -0.692,4.2623 -0.128,0.12809 -0.567,0.10489 -0.975,-0.0516 -0.8374,-0.32089 -0.9317,-2.45651 -0.279,-6.31881 0.727,-4.30394 -0.7401,-3.58992 -2.5431,1.23786 -0.745,1.99486 -0.7541,2.38803 -0.099,4.24405 0.3973,1.12503 1.3745,2.65413 2.1716,3.39798 2.2805,2.12806 1.7665,3.03842 -1.9906,3.52705 -1.6894,0.21972 -2.3875,0.11083 -2.8487,-0.44433 -0.5483,-0.66003 -0.6531,-0.66007 -1.0226,-4.2e-4 -0.5329,0.95141 0.4577,10.91724 1.285,12.92676 0.3463,0.8413 0.7811,2.4485 0.9662,3.57155 0.2905,1.76241 0.1692,2.24059 -0.8859,3.49337 -0.6724,0.7983 -1.6965,2.7501 -2.2758,4.33732 -0.5793,1.58723 -1.2093,2.9822 -1.4,3.09995 -0.927,0.57235 -2.1192,-2.07184 -3.0795,-6.83001 l -1.0458,-5.18186 1.3162,-2.88203 c 0.7344,-1.60809 1.5438,-4.56231 1.8312,-6.68332 0.5232,-3.86288 0.2406,-8.44733 -0.5209,-8.44733 -0.2304,0 -0.4189,0.17725 -0.4189,0.39388 0,0.21663 -0.7842,1.30915 -1.7426,2.42782 -1.3558,1.58241 -2.0229,2.00149 -3.005,1.88773 -1.4038,-0.16259 -1.4496,-0.57016 -0.3944,-3.50858 0.3795,-1.05675 0.8031,-2.82084 0.9413,-3.92021 0.2045,-1.62619 0.095,-2.03964 -0.5858,-2.21759 -0.9359,-0.2445 -1.4525,-2.18163 -1.4856,-5.57044 -0.012,-1.22186 -0.3105,-2.87002 -0.6636,-3.66258 -0.5961,-1.33819 -0.6717,-1.37246 -1.0601,-0.48033 -0.506,1.16226 -0.4781,6.6888 0.043,8.53471 l 0.3754,1.32964 -3.3651,-0.31245 -3.3651,-0.31245 -2.1016,2.12192 c -3.0055,3.03447 -7.7199,8.45345 -8.7536,10.06189 -0.4853,0.75503 -1.1636,2.43802 -1.5073,3.73997 -0.7973,3.01932 -3.5804,7.21062 -7.1063,10.70166 -1.5205,1.50554 -2.7646,2.9589 -2.7646,3.2297 0,0.49959 -5.0166,4.61152 -8.2739,6.78179 -1.4166,0.94385 -1.7274,1.40995 -1.5119,2.26765 0.2818,1.12158 0.2114,1.26291 -4.0877,8.21085 -1.3606,2.19893 -2.4738,4.08562 -2.4738,4.19266 0,0.31813 2.4889,-0.87172 4.808,-2.29851 1.19,-0.73212 2.9404,-2.22937 3.8898,-3.32724 1.7891,-2.06903 2.8409,-2.1634 2.8422,-0.25501 0,1.70401 9.6757,-8.77897 11.5312,-12.49474 1.0466,-2.09596 1.6962,-2.89988 2.1901,-2.71055 0.3861,0.14804 0.7021,0.78642 0.7021,1.41862 0,1.86535 0.7094,1.3224 1.6361,-1.25223 0.8558,-2.37757 1.4583,-2.96301 1.8538,-1.80127 0.2325,0.68308 0.1322,0.93931 -1.9544,4.99521 -1.2312,2.39313 -1.3867,3.00471 -0.8195,3.22217 0.4934,0.18916 0.846,-0.25751 1.1939,-1.51275 0.6018,-2.17063 1.2905,-3.30712 1.7351,-2.86301 0.1824,0.18225 -0.047,0.90802 -0.5088,1.61284 l -0.8405,1.28148 1.2562,-0.31497 c 1.6406,-0.41137 1.6235,0.31143 -0.066,2.79972 -1.6466,2.42483 -2.1659,2.98564 -2.7246,2.94215 -0.2424,-0.0189 -0.5308,0.23588 -0.641,0.56611 -0.3297,0.98791 1.5213,0.68093 2.1722,-0.36025 0.3303,-0.52837 0.8692,-0.9538 1.1975,-0.9454 0.3321,0.009 0.1703,0.35677 -0.3647,0.78513 -0.8451,0.67655 -0.8549,0.73291 -0.081,0.46506 0.4844,-0.16763 0.9712,-0.30479 1.0818,-0.30479 0.1106,0 0.2011,-0.54038 0.2011,-1.20084 0,-0.66047 0.2291,-1.20085 0.5092,-1.20085 0.28,0 0.3754,0.21615 0.212,0.48034 -0.1634,0.26418 -0.055,0.48034 0.2404,0.48034 0.2957,0 0.4038,0.21615 0.2404,0.48033 -0.383,0.61912 -0.08,0.60578 1.3844,-0.061 0.9874,-0.44945 1.474,-0.36558 2.8663,0.49406 0.9223,0.56948 1.9659,0.9752 2.3191,0.9016 0.3753,-0.0782 0.585,0.20925 0.5045,0.69151 -0.076,0.45393 0.3105,1.70318 0.8584,2.7761 0.9519,1.86412 0.9645,2.10342 0.2842,5.38729 -0.3916,1.89009 -0.6058,3.60814 -0.476,3.81791 0.1298,0.20976 -0.099,1.50717 -0.5077,2.88312 -0.7201,2.42254 -0.7094,2.55202 0.3388,4.09023 0.5954,0.87368 1.3529,1.58998 1.6835,1.59179 0.5608,0.003 0.8896,1.71595 0.6461,3.36564 -0.059,0.39628 -0.106,1.09878 -0.1056,1.5611 4e-4,0.46233 -0.2022,0.84059 -0.4502,0.84059 -0.248,0 -0.4509,-0.21325 -0.4509,-0.47389 0,-0.53226 -3.3823,-2.07124 -3.7484,-1.70554 -0.4333,0.43285 0.9708,1.6991 1.884,1.6991 0.4965,0 0.9028,0.31348 0.9028,0.69663 0,0.38316 0.2929,0.8695 0.651,1.08077 0.358,0.21126 0.9263,0.90739 1.2629,1.54694 0.5175,0.98356 0.4935,1.24923 -0.1556,1.72341 -0.6788,0.49588 -0.5887,0.75524 0.7806,2.24681 1.3746,1.49746 1.5349,1.96323 1.4323,4.16073 -0.065,1.3911 0.093,2.47451 0.3606,2.47451 0.2619,0 0.4762,-0.30111 0.4762,-0.66912 0,-0.36801 0.3422,-0.80032 0.7605,-0.96068 1.2519,-0.47991 1.46,-0.30407 0.4999,0.42226 -0.5971,0.4517 -0.8114,1.03429 -0.6321,1.71901 0.196,0.74899 0.021,1.10111 -0.6328,1.27188 -0.7128,0.18621 -0.7972,0.40678 -0.3995,1.04308 0.3714,0.59412 0.2857,1.30959 -0.325,2.71287 -0.7885,1.8117 -1.0512,2.72454 -2.069,7.18965 -0.2409,1.05675 -1.2159,3.57901 -2.1667,5.60503 -0.9508,2.02603 -1.8752,4.29562 -2.0543,5.04355 -0.1791,0.74793 -0.4809,1.57602 -0.6707,1.84021 -0.1898,0.26418 -0.4737,1.02072 -0.631,1.68118 -0.261,1.09608 -0.2293,1.12529 0.3628,0.3348 0.485,-0.64754 0.7121,-0.70813 0.8997,-0.24017 0.176,0.43885 0.2624,0.39862 0.289,-0.13466 0.021,-0.41829 0.3625,-0.76053 0.7591,-0.76053 0.863,0 0.8871,0.30458 0.105,1.32306 -0.3222,0.41947 -0.8907,0.66016 -1.2634,0.53488 -0.4663,-0.15677 -0.5835,0.0173 -0.3757,0.55826 0.1661,0.43233 0.092,0.78605 -0.1638,0.78605 -0.2561,0 -0.4657,-0.25938 -0.4657,-0.5764 0,-1.17355 -0.9807,0.42383 -1.9477,3.1724 -0.7083,2.01333 -0.8364,2.95066 -0.4645,3.39834 0.3733,0.44933 0.3339,0.68708 -0.1442,0.87035 -1.1199,0.42935 -2.2516,5.61 -2.2516,10.30764 0,4.47546 0.5807,7.13642 1.4415,6.60496 0.2649,-0.16359 0.4817,-0.0865 0.4817,0.17123 0,0.25776 -0.2704,0.59475 -0.601,0.74886 -0.4748,0.22138 -0.4706,0.34041 0.02,0.56707 0.4596,0.21233 0.4831,0.4529 0.09,0.92568 -0.3885,0.46768 -0.3721,1.16744 0.061,2.61226 0.4226,1.40944 0.7179,1.79697 1.0331,1.35593 0.3028,-0.42377 0.3668,-0.27843 0.2041,0.46323 -0.2786,1.27008 0.3867,1.46513 0.8192,0.24016 0.1632,-0.46232 0.4329,-1.14086 0.5992,-1.50787 0.1907,-0.42067 0.1017,-0.54334 -0.2407,-0.33191 -0.8643,0.53364 -0.6289,-0.26682 0.2982,-1.01416 0.7755,-0.62509 0.7567,-0.65494 -0.2404,-0.38084 -0.595,0.16358 -1.1097,0.12073 -1.1438,-0.0952 -0.4319,-2.73154 -0.2761,-4.78476 0.4024,-5.30287 0.7024,-0.53649 0.7002,-0.61353 -0.026,-0.89198 -0.4372,-0.16763 -0.7983,-0.768 -0.8023,-1.33415 -0.01,-0.83199 -0.094,-0.89199 -0.4608,-0.31288 -0.34,0.53717 -0.5909,0.57917 -1.0027,0.1678 -0.4117,-0.41136 -0.304,-0.62643 0.4304,-0.85928 0.5387,-0.17083 1.0719,-0.78672 1.1849,-1.36865 0.1633,-0.84114 0.2188,-0.77519 0.2708,0.32169 0.053,1.11225 0.1935,1.27361 0.7258,0.83231 1.3236,-1.0974 2.0794,-0.14907 1.9864,2.49217 -0.1022,2.90184 0.4016,5.50966 1.2135,6.2822 0.4363,0.41504 0.505,0.0363 0.294,-1.61983 -0.1515,-1.18884 -0.4515,-2.77617 -0.6667,-3.52742 -0.3974,-1.38752 -0.054,-6.67572 0.5904,-9.08145 0.3111,-1.16212 0.2173,-1.32549 -0.7803,-1.35885 -0.6237,-0.0209 -0.8865,-0.1393 -0.584,-0.2632 0.3025,-0.1239 0.4387,-0.65043 0.3027,-1.17006 -0.1855,-0.70837 -0.06,-0.87296 0.5014,-0.65773 0.4119,0.15789 0.6511,0.64744 0.5315,1.0879 -0.1195,0.44046 0.1008,0.15238 0.4895,-0.64017 0.9192,-1.87402 0.9291,-2.68033 0.029,-2.33523 -0.5127,0.19653 -0.7213,-0.044 -0.7213,-0.83165 0,-0.86188 0.1283,-0.98004 0.577,-0.53172 0.8674,0.86651 1.2088,0.7086 1.5691,-0.7257 0.2402,-0.95612 0.1019,-1.46664 -0.5205,-1.92135 -0.7773,-0.56781 -0.7502,-0.61986 0.326,-0.62661 0.9342,-0.006 1.0265,-0.10234 0.4525,-0.47298 -0.6127,-0.39558 -0.5915,-0.46673 0.1412,-0.47298 0.4744,-0.004 0.8132,-0.27755 0.753,-0.60778 -0.06,-0.33023 0.2514,-1.42916 0.6925,-2.44205 1.4767,-3.39106 1.9271,-5.68831 1.215,-6.1981 -0.4861,-0.34799 -0.4495,-0.39694 0.1535,-0.2055 0.5988,0.1901 0.9084,-0.20839 1.2711,-1.63587 0.2722,-1.07131 0.2937,-1.88718 0.05,-1.88718 -0.2364,0 -0.4297,0.41954 -0.4297,0.93232 0,1.16849 -0.5598,1.53701 -1.4654,0.96469 -0.5758,-0.36394 -0.5474,-0.44258 0.1621,-0.44864 0.7117,-0.006 0.7532,-0.12318 0.2404,-0.67745 -0.3409,-0.36855 -0.7797,-0.57348 -0.975,-0.45539 -0.1953,0.11808 -0.2325,-0.10443 -0.083,-0.49448 0.1907,-0.49659 0.7295,-0.6373 1.7975,-0.46941 1.4246,0.22395 1.5805,0.10252 2.3665,-1.8426 0.4628,-1.14529 0.8414,-2.47378 0.8414,-2.9522 0,-0.47842 0.3265,-1.19607 0.7256,-1.59478 0.3991,-0.39871 0.5825,-0.95639 0.4074,-1.2393 -0.2017,-0.32615 -0.5622,-0.181 -0.985,0.39664 -0.5335,0.72891 -0.7471,0.78121 -1.0685,0.26165 -0.2801,-0.45275 -0.5013,-0.4884 -0.7306,-0.11774 -0.4756,0.76881 -1.2337,0.65274 -1.2337,-0.18889 0,-0.40028 0.4274,-0.72051 0.9616,-0.72051 0.636,0 0.9616,-0.32022 0.9616,-0.9456 0,-0.64319 0.2306,-0.85718 0.7212,-0.66911 1.028,0.39409 0.9316,-1.24205 -0.1202,-2.03968 -0.5589,-0.42383 -0.6301,-0.64323 -0.212,-0.65337 0.3461,-0.008 0.4961,-0.23062 0.3333,-0.49381 -0.6752,-1.09143 -0.656,-2.34792 0.032,-2.08423 0.3785,0.14512 0.6882,0.48603 0.6882,0.75758 0,0.62338 1.6504,-1.49932 2.082,-2.67789 0.3518,-0.96036 1.3373,-0.87992 1.6766,0.13683 0.1169,0.35049 -0.01,0.50206 -0.274,0.33682 -0.2984,-0.18427 -0.4908,0.48636 -0.4976,1.73441 -0.01,1.86131 0.032,1.93243 0.4957,0.834 0.2787,-0.66047 0.5602,-1.417 0.6256,-1.68118 0.066,-0.26419 0.2672,-1.05118 0.4483,-1.74887 0.1831,-0.70496 0.1158,-1.40041 -0.1514,-1.56537 -0.3062,-0.18908 -0.2293,-0.8004 0.2118,-1.68378 0.5675,-1.13648 0.6031,-2.17589 0.1971,-5.75603 -0.6491,-5.72441 -1.4097,-9.17998 -2.0206,-9.17998 -0.2708,0 -0.3635,-0.33545 -0.206,-0.74545 0.1648,-0.42897 0.084,-0.6204 -0.1907,-0.4509 -0.2624,0.162 -0.3521,0.79228 -0.1992,1.40061 0.219,0.87167 0.041,1.16941 -0.8397,1.40501 -0.6146,0.16443 -1.2897,0.30192 -1.5002,0.30552 -0.5705,0.01 -0.2511,-4.49989 0.3477,-4.90955 0.3467,-0.23718 0.3187,-0.35531 -0.085,-0.36025 -0.3305,-0.004 -0.601,-0.33158 -0.601,-0.72786 0,-0.39628 0.2429,-0.72051 0.5397,-0.72051 0.3728,0 0.3547,-0.2227 -0.059,-0.72051 -0.4894,-0.5891 -0.459,-0.7205 0.1665,-0.7205 0.431,0 0.66,-0.27322 0.5246,-0.62582 -0.3765,-0.98001 3.084,-0.40494 3.6235,0.60218 0.4999,0.93325 2.1517,10.51552 2.695,15.63462 0.4293,4.04415 0.2665,10.38013 -0.2839,11.04952 -0.218,0.26514 -0.9933,2.20887 -1.7228,4.31939 -0.7295,2.11053 -1.7061,4.48741 -2.1702,5.28198 -0.9961,1.70536 -3.9711,9.64632 -4.7701,12.7326 -0.3078,1.18883 -1.4982,4.97397 -2.6452,8.41142 -2.6112,7.8248 -3.6711,14.01429 -3.1052,18.132 0.2265,1.64855 0.5356,4.91662 0.6868,7.26238 0.2942,4.56396 1.2952,9.58397 2.7054,13.56743 0.4793,1.3539 0.7585,2.89332 0.6203,3.42093 -0.3096,1.18288 0.6374,4.03464 2.9708,8.94575 1.6577,3.48891 1.7274,3.80933 0.9896,4.54645 -0.8768,0.87594 -2.0174,0.90915 -10.7401,0.31277 -2.9816,-0.20386 -5.6093,-0.61365 -5.8585,-0.91364 -0.2808,-0.33803 -0.2834,-1.88465 -0.01,-4.08527 0.3763,-2.99413 0.33,-3.62541 -0.3002,-4.08572 -1.1605,-0.8478 -1.2073,-4.43756 -0.1162,-8.92172 1.0345,-4.25152 1.0123,-9.33069 -0.058,-13.34846 -0.2612,-0.9802 -0.607,-2.62091 -0.7684,-3.64602 -0.4075,-2.58873 -0.9398,-1.70865 -1.8536,3.06468 -1.1169,5.83369 -1.7663,12.64863 -1.962,20.58763 -0.1441,5.84743 -0.028,7.33156 0.7654,9.74466 0.5145,1.56566 0.8084,3.05195 0.6532,3.30287 -0.6896,1.11459 -5.2928,1.84053 -9.609,1.51535 l -4.3272,-0.32601 v -4.32304 c 0,-3.37576 -0.1902,-4.6029 -0.868,-5.60019 -0.4774,-0.70243 -0.8839,-1.67511 -0.9033,-2.16152 -0.082,-2.05927 1.051,-6.86063 2.2502,-9.53409 3.292,-7.33919 4.8323,-14.33548 4.4307,-20.12588 -0.2403,-3.46554 -1.8019,-12.4122 -2.6669,-15.27847 -0.2619,-0.86792 -0.7234,-2.65281 -1.0256,-3.96641 -0.3022,-1.31361 -0.616,-2.45494 -0.6975,-2.5363 -0.081,-0.0814 -1.7462,0.10038 -3.6994,0.40387 -6.2324,0.96833 -26.6706,-0.80334 -33.8421,-2.93357 -1.8511,-0.54986 -4.231,-1.21308 -5.2888,-1.47383 -1.0578,-0.26075 -2.3018,-0.5887 -2.7646,-0.72878 -0.5238,-0.15856 -0.8414,7.4e-4 -0.8414,0.42205 0,1.56358 -9.0009,9.06142 -11.6862,9.73474 -2.2654,0.56802 -2.4295,1.33444 -0.8337,3.89192 0.8006,1.28315 1.7003,2.9439 1.9992,3.69056 0.5248,1.31103 1.0433,2.3307 4.0728,8.00903 0.7752,1.45302 1.9254,3.8307 2.5561,5.28372 0.6307,1.45302 1.4228,2.96609 1.7601,3.36236 0.3373,0.39628 1.1822,1.85427 1.8774,3.23997 1.111,2.21411 1.2245,2.86931 0.9373,5.40611 -0.2973,2.62527 -0.2088,3.06507 0.9783,4.85716 0.7179,1.08378 2.457,4.16291 3.8645,6.84251 1.6108,3.06649 2.8875,4.93709 3.4449,5.04765 1.195,0.23699 1.6323,1.04106 1.1032,2.0287 -0.343,0.64021 -0.8258,0.74921 -2.2503,0.508 -2.3967,-0.40586 -6.9757,-0.33835 -10.0973,0.14886 -2.9574,0.46159 -2.9324,0.49495 -3.1729,-4.23708 -0.1579,-3.10641 -0.2686,-3.38438 -1.9126,-4.80338 -1.7678,-1.52593 -3.381,-5.08726 -2.887,-6.37348 0.1447,-0.37666 -0.6104,-1.61274 -1.7196,-2.81485 -1.2094,-1.3108 -2.0095,-2.66053 -2.0598,-3.47496 -0.1837,-2.97465 -0.6564,-5.38698 -1.4847,-7.57605 -0.9074,-2.39854 -3.2975,-6.11822 -5.4087,-8.41777 -1.0975,-1.19535 -2.3929,-2.8165 -2.8787,-3.60253 -0.4858,-0.78604 -1.6365,-2.55818 -2.5572,-3.93809 -0.9206,-1.37991 -1.9185,-3.47144 -2.2174,-4.64784 l -0.5437,-2.1389 -3.1115,2.40287 c -1.7114,1.32158 -3.3018,2.80729 -3.5343,3.30157 -0.8997,1.91258 1.1595,7.96153 5.8608,17.216 4.8067,9.46197 4.8319,9.55227 4.3737,15.67584 -0.1624,2.16984 0.012,2.67991 1.8049,5.28372 1.5251,2.21476 1.9892,3.34434 2.0047,4.8788 0.028,2.78425 2.2266,7.06917 3.4617,6.7465 1.5539,-0.40595 2.0466,0.79894 0.9146,2.2366 -0.5494,0.69781 -1.2537,1.23929 -1.565,1.20329 -0.3114,-0.036 -2.297,-0.25158 -4.4126,-0.47907 z m -1.9273,-4.60944 c -0.1278,-1.56682 0.04,-2.52103 0.5417,-3.07451 0.5457,-0.60238 0.5835,-0.8912 0.1516,-1.15787 -0.3294,-0.2034 -0.7641,-0.0184 -1.0168,0.43265 -0.2428,0.43337 -0.8633,0.78795 -1.3791,0.78795 -1.137,0 -1.224,0.88577 -0.1632,1.66074 0.7024,0.51311 0.7046,0.63572 0.023,1.3167 -0.4134,0.41299 -0.6177,0.88471 -0.454,1.04825 0.558,0.55746 1.0989,0.29902 1.137,-0.54324 0.038,-0.84754 0.1005,-0.74162 0.7062,1.20084 0.4069,1.30499 0.6296,0.48463 0.4537,-1.67151 z m 1.6869,2.06012 c 0,-0.11651 -0.2163,-0.34541 -0.4808,-0.50869 -0.2644,-0.16328 -0.4808,-0.068 -0.4808,0.21182 0,0.27978 0.2164,0.50869 0.4808,0.50869 0.2645,0 0.4808,-0.0953 0.4808,-0.21182 z m 1.793,-0.0784 c -0.1597,-0.15961 -0.5744,-0.17667 -0.9215,-0.0379 -0.3836,0.15334 -0.2696,0.26716 0.2905,0.29021 0.5068,0.0208 0.7908,-0.0927 0.631,-0.25229 z m 77.2568,-1.8e-4 c 0.6692,-0.25658 0.6495,-0.44177 -0.1691,-1.5904 -0.5097,-0.715 -1.0831,-1.92285 -1.2743,-2.6841 -0.3409,-1.35675 -0.3558,-1.36241 -0.7541,-0.28659 -0.2236,0.60362 -0.2851,1.29368 -0.1367,1.53347 0.1483,0.23979 0.041,0.43598 -0.2395,0.43598 -0.28,0 -0.5092,0.34735 -0.5092,0.7719 0,0.48878 -0.2645,0.67049 -0.7212,0.49541 -0.4302,-0.16493 -0.7212,-0.004 -0.7212,0.39851 0,0.40158 0.633,0.75348 1.5626,0.86873 0.8595,0.10655 1.7072,0.22833 1.8839,0.27061 0.1767,0.0423 0.6622,-0.0538 1.0788,-0.21352 z m -84.1848,-1.57564 c -0.1603,-0.61217 -0.5338,-0.82679 -1.156,-0.66423 -0.8019,0.2095 -0.8811,0.049 -0.6197,-1.25665 0.1934,-0.96592 0.1078,-1.49681 -0.2412,-1.49681 -0.2975,0 -0.5409,0.38907 -0.5409,0.86461 0,0.47553 -0.2451,1.10946 -0.5447,1.40872 -0.8435,0.84274 -0.1375,1.96203 1.3577,2.1523 1.7706,0.22533 2.0286,0.0763 1.7448,-1.00794 z m 77.5367,-1.65033 c 0.029,-0.31158 0.086,-1.06561 0.1264,-1.67562 0.04,-0.61001 0.27,-0.98758 0.5106,-0.83904 0.519,0.32044 1.9666,-0.1668 1.9666,-0.66191 0,-0.19017 -0.6295,-0.25346 -1.3989,-0.14064 -1.439,0.211 -1.947,1.10016 -1.9601,3.43117 -0.01,1.12556 0.6485,1.02677 0.7554,-0.11396 z m -77.6905,-0.59486 c 0,-0.41187 -0.2199,-0.61309 -0.4887,-0.44715 -0.2687,0.16594 -0.3641,0.50292 -0.212,0.74885 0.4122,0.66625 0.7007,0.54202 0.7007,-0.3017 z m 106.2575,0.16135 c 0,-0.36845 -0.3138,-1.08948 -0.6973,-1.6023 -0.6734,-0.90052 -0.688,-0.89545 -0.4247,0.14836 0.3013,1.19481 -0.6565,1.53601 -1.0965,0.39059 -0.1537,-0.40021 -0.6019,-0.57232 -1.0667,-0.40964 -0.6527,0.22843 -0.69,0.16034 -0.2006,-0.36657 0.8957,-0.96439 0.7272,-1.56067 -0.3606,-1.27646 -1.2896,0.33689 -1.2269,-0.272 0.089,-0.86587 0.5779,-0.26079 1.1188,-0.79839 1.202,-1.19466 0.094,-0.4488 0.045,-0.49296 -0.1302,-0.1171 -0.1548,0.33188 -0.4558,0.49576 -0.6689,0.36417 -0.533,-0.32907 -4.7001,1.55729 -4.9242,2.22909 -0.1321,0.39567 -0.4862,0.38065 -1.3014,-0.0552 -1.2898,-0.68961 -2.0571,-0.005 -1.8418,1.64221 0.1532,1.17276 1.196,1.41738 6.9142,1.62198 3.612,0.12924 4.5076,0.0282 4.5076,-0.50861 z m -7.2121,-2.77486 c 0,-0.26419 0.2164,-0.48034 0.4809,-0.48034 0.2644,0 0.4808,0.21615 0.4808,0.48034 0,0.26418 -0.2164,0.48033 -0.4808,0.48033 -0.2645,0 -0.4809,-0.21615 -0.4809,-0.48033 z m -98.3579,-0.0544 c -0.3576,-0.57804 -2.0024,-0.54027 -2.3703,0.0544 -0.1635,0.26418 0.1611,0.48033 0.7212,0.48033 0.6867,0 0.9008,0.19554 0.6573,0.60043 -0.2484,0.41295 -0.1088,0.39595 0.4471,-0.0544 0.4445,-0.36017 0.6896,-0.84651 0.5447,-1.08076 z m 81.5298,-0.0256 c 0,-0.22016 -0.3245,-0.40028 -0.7212,-0.40028 -0.3966,0 -0.7212,0.18012 -0.7212,0.40028 0,0.22015 0.3246,0.40028 0.7212,0.40028 0.3967,0 0.7212,-0.18013 0.7212,-0.40028 z m -49.5227,-0.43403 c 0.9256,-0.0231 1.411,-0.15157 1.0788,-0.28537 -0.3322,-0.1338 -0.5014,-0.40912 -0.376,-0.61182 0.1254,-0.2027 -0.1073,-0.77866 -0.517,-1.2799 -0.7021,-0.85875 -0.7289,-0.86033 -0.4639,-0.0274 0.446,1.40176 -0.2101,1.89634 -1.1221,0.84586 -0.7733,-0.89078 -0.9339,-0.90752 -2.2352,-0.23302 -1.3153,0.68173 -1.4544,0.66204 -2.2489,-0.31818 -0.8441,-1.04132 -0.8469,-1.03877 -0.8469,0.75645 v 1.8013 l 2.5242,-0.3029 c 1.3883,-0.1666 3.2815,-0.32185 4.207,-0.345 z m 50.9651,0.0338 c 0,-0.26419 -0.095,-0.48034 -0.212,-0.48034 -0.1166,0 -0.3457,0.21615 -0.5092,0.48034 -0.1634,0.26418 -0.068,0.48034 0.2121,0.48034 0.28,0 0.5091,-0.21616 0.5091,-0.48034 z m 0.038,-3.17827 c 0.4175,-0.36544 0.9783,-0.66444 1.2463,-0.66444 0.2998,0 0.4899,-2.07865 0.4941,-5.4038 0,-2.97209 0.1259,-6.26841 0.2712,-7.32515 0.2851,-2.07272 2.5964,-14.95597 3.3177,-18.49301 1.1073,-5.42941 1.3981,-8.0994 1.1223,-10.30312 -0.2564,-2.04823 -0.1589,-2.48207 0.7038,-3.13216 0.6476,-0.48804 1.9142,-3.38119 3.5853,-8.18989 1.4212,-4.0894 3.2541,-8.8477 4.0732,-10.57399 0.819,-1.72629 1.5378,-3.7257 1.5972,-4.44313 0.059,-0.71742 0.2527,-1.30441 0.4294,-1.30441 0.2945,0 0.8108,-2.3719 1.3071,-6.00422 0.1083,-0.79256 0.1881,-3.22197 0.1774,-5.39869 -0.019,-3.83896 -0.073,-4.02257 -1.7944,-6.12159 -0.9818,-1.19689 -1.8239,-2.78632 -1.8846,-3.55666 -0.06,-0.76601 -0.5612,-1.96622 -1.1131,-2.66713 -1.2835,-1.63015 -1.805,-3.94692 -1.0838,-4.81505 0.4689,-0.56449 0.8085,-0.5573 2.2581,0.0478 2.0902,0.87248 2.5711,0.52721 1.2636,-0.90707 -2.354,-2.58208 -2.4172,-3.90125 -0.5856,-12.21926 0.6398,-2.90573 0.547,-4.77891 -0.2778,-5.60282 -0.3966,-0.39628 -0.7212,-0.91166 -0.7212,-1.14529 0,-0.23363 -0.6376,-1.03509 -1.4169,-1.78102 l -1.417,-1.35625 -5.4345,1.75064 c -6.1312,1.9751 -8.2401,2.21353 -7.9875,0.90307 0.089,-0.46186 0.4835,-0.84012 0.8767,-0.8406 0.3931,-4.7e-4 1.1372,-0.25013 1.6536,-0.5548 0.8027,-0.47357 0.8452,-0.66677 0.2928,-1.33177 -0.4034,-0.48554 -1.0047,-0.66417 -1.6001,-0.47536 -1.2048,0.38201 -0.7097,-0.53649 0.6936,-1.2868 0.6256,-0.33449 0.8796,-0.34772 0.6866,-0.0358 -0.1684,0.27229 -0.1053,0.61915 0.1403,0.7708 0.2456,0.15165 0.3863,-0.27305 0.3126,-0.94377 -0.1267,-1.15285 -0.086,-1.17605 0.7454,-0.42445 0.9177,0.82976 2.6511,0.581 2.1048,-0.30207 -0.216,-0.34924 -0.5248,-0.33199 -0.992,0.0554 -0.533,0.44186 -0.6784,0.40737 -0.6784,-0.16082 0,-0.39782 -0.4285,-0.83524 -0.9522,-0.97205 -0.7267,-0.18985 -1.9221,0.7695 -5.0484,4.05157 -2.253,2.36518 -4.0963,4.46761 -4.0963,4.67207 0,0.51264 -6.0107,5.34287 -6.6486,5.34287 -0.2836,0 -0.7103,-0.34744 -0.9482,-0.77207 -0.3851,-0.6875 -0.6379,-0.64498 -2.3077,0.3882 -7.3798,4.56622 -9.2239,3.29772 -5.0289,-3.45937 1.3379,-2.15505 2.4325,-4.01105 2.4325,-4.12446 0,-0.36498 -2.1033,0.9487 -4.3272,2.70269 -1.19,0.93854 -3.6782,2.66062 -5.5293,3.82684 -2.8974,1.82543 -3.7318,2.12307 -5.9977,2.13954 -2.1334,0.0155 -2.664,-0.14042 -2.8002,-0.82291 -0.097,-0.48693 0.2018,-0.97405 0.709,-1.15506 0.4823,-0.17216 1.8425,-1.09015 3.0227,-2.03998 1.1802,-0.94984 3.1275,-2.36516 4.3272,-3.14518 l 2.1815,-1.4182 -8.4765,-0.57691 c -9.2935,-0.63252 -14.0528,-1.63786 -23.3034,-4.92261 -2.9346,-1.04203 -6.8705,-2.13251 -8.7465,-2.4233 -7.1321,-1.10552 -17.9621,-0.32012 -21.6123,1.56734 -2.4322,1.25762 -6.538,5.06717 -7.371,6.83911 -0.4152,0.88309 -1.1197,2.00839 -1.5656,2.50065 -1.7087,1.8863 -3.7599,7.07648 -4.7034,11.90114 -0.8409,4.30024 -0.9457,6.30461 -0.7574,14.48363 0.2343,10.17306 0.4433,11.33787 3.6698,20.45201 3.6341,10.26525 3.5178,16.31801 -0.4632,24.11894 -0.525,1.0289 -0.9518,2.41945 -0.9484,3.0901 0.01,1.91549 1.7903,7.12403 3.7831,11.06629 2.8152,5.56931 5.3459,14.24629 5.3459,18.32936 0,1.73253 0.3299,2.27963 3.1083,5.15475 3.0019,3.10647 4.919,6.32826 4.3311,7.27867 -0.1562,0.25255 -0.109,0.47573 0.1049,0.49594 0.2139,0.0202 0.8217,0.12257 1.3506,0.22745 2.7406,0.54348 5.5292,0.77913 5.5292,0.46723 0,-0.19416 -0.6105,-1.14065 -1.3566,-2.10332 -2.1915,-2.82743 -2.6919,-4.52368 -2.0666,-7.00468 0.2961,-1.17476 0.5384,-2.62447 0.5384,-3.22158 0,-0.5971 -1.6227,-4.38313 -3.606,-8.41339 -1.9833,-4.03027 -3.6061,-7.61289 -3.6061,-7.96137 0,-0.34849 -0.2891,-1.05997 -0.6426,-1.58108 -0.7469,-1.10118 -2.0213,-4.95386 -2.4999,-7.55742 -0.1826,-0.99362 -0.5239,-1.92502 -0.7584,-2.06979 -1.252,-0.77302 -0.081,-2.34424 4.7424,-6.36102 10.0639,-8.38175 15.1534,-14.24068 19.6891,-22.66577 0.7822,-1.45302 2.0001,-3.55621 2.7063,-4.67375 0.7063,-1.11754 1.2841,-2.15823 1.2841,-2.31264 0,-0.15442 0.4513,-1.32877 1.0029,-2.60967 1.5696,-3.64517 2.7631,-3.65107 6.3416,-0.0314 2.1728,2.19772 3.0321,2.78845 3.4963,2.40354 0.4498,-0.37294 0.8532,-0.27092 1.4984,0.37899 1.2464,1.25547 2.69,2.05761 7.4914,4.16273 3.2357,1.41868 4.3557,1.71795 4.8611,1.29891 0.5053,-0.41895 1.5263,-0.14863 4.4278,1.17239 2.9131,1.32622 3.9995,1.61292 4.7749,1.25999 0.7346,-0.33437 1.4496,-0.21969 2.6666,0.42771 1.9233,1.02313 3.662,1.17765 3.9382,0.35 0.1364,-0.40883 0.8137,-0.28279 2.3452,0.43639 3.7388,1.75574 8.097,1.6925 9.799,-0.1422 1.1495,-1.23909 3.0091,-1.42252 2.7629,-0.27252 -0.2755,1.28722 0.9815,7.3003 2.5256,12.08131 2.8582,8.84938 4.832,17.3969 5.3382,23.1162 0.5498,6.21184 -1.2329,14.81063 -4.343,20.94795 -1.0338,2.04004 -2.6731,8.32991 -2.6731,10.25629 0,0.24095 0.4199,0.43809 0.9332,0.43809 0.5133,0 1.0474,0.18451 1.1869,0.41002 0.3557,0.57504 5.6521,-0.38121 6.5722,-1.1866 z m 14.1725,0.15988 c 0.1303,-0.33918 0.8092,-0.66402 1.5088,-0.72186 1.6782,-0.13876 1.9112,-0.43864 1.211,-1.5588 -0.3206,-0.51277 -0.5828,-1.24671 -0.5828,-1.63099 0,-1.25403 -0.9524,-1.32248 -1.417,-0.10184 -0.3446,0.90557 -0.6994,1.12744 -1.4776,0.92412 -0.8029,-0.20976 -0.9904,-0.0756 -0.8678,0.62108 0.096,0.54298 -0.171,0.95583 -0.6851,1.06136 -0.7335,0.15057 -0.8414,-0.23206 -0.8414,-2.9847 0,-2.99476 -0.5116,-4.06099 -1.1505,-2.39762 -0.7258,1.88941 -0.2692,3.91853 1.2707,5.64689 1.6229,1.82157 2.6257,2.19941 3.0317,1.14236 z m -70.2999,-0.98026 c 0.174,0.17383 0.3164,0.0639 0.3164,-0.24434 0,-0.30821 -0.4327,-0.56039 -0.9616,-0.56039 -0.5665,0 -0.9616,0.32022 -0.9616,0.77932 0,0.59749 0.1505,0.6545 0.6452,0.24434 0.3549,-0.29425 0.7876,-0.39276 0.9616,-0.21893 z m -0.116,-3.27198 c 2.2318,-0.74543 2.628,-1.18933 1.8728,-2.09834 -0.5079,-0.6114 -0.721,-0.63939 -1.0689,-0.14044 -0.2909,0.41718 -0.3382,0.27929 -0.1431,-0.41718 0.1603,-0.57219 0.066,-1.17936 -0.2089,-1.34928 -0.2752,-0.16992 -0.5003,-0.08 -0.5003,0.19975 0,0.27977 -0.2164,0.50868 -0.4808,0.50868 -0.2645,0 -0.4808,-0.36746 -0.4808,-0.81657 0,-0.6577 -0.117,-0.69814 -0.601,-0.20783 -0.4816,0.48772 -0.4338,0.7322 0.2404,1.22978 1.0319,0.7617 1.078,1.23564 0.1202,1.23564 -0.3967,0 -0.7212,0.24262 -0.7212,0.53915 0,0.39059 -0.1848,0.38594 -0.6706,-0.0169 -0.3689,-0.30581 -0.9639,-0.49439 -1.3222,-0.41907 -0.4357,0.0916 -0.6676,-0.38039 -0.6997,-1.42416 -0.026,-0.85861 0.1434,-1.5611 0.3775,-1.5611 0.2341,0 0.2024,-0.41665 -0.07,-0.92588 -0.8168,-1.52465 -0.1618,-2.35417 1.7209,-2.17936 1.4145,0.13134 1.7467,-0.0311 2.1316,-1.04272 0.5887,-1.54669 0.5795,-2.22937 -0.025,-1.85627 -0.2645,0.16328 -0.4808,-0.0529 -0.4808,-0.48033 0,-0.42747 0.2157,-0.64402 0.4793,-0.48124 0.6445,0.39794 -0.3438,-2.17517 -1.1986,-3.12042 -0.5738,-0.63459 -2.7492,-5.13031 -4.5305,-9.36267 -0.5543,-1.31721 -0.6556,-1.36632 -1.2218,-0.59269 -0.564,0.77056 -0.6725,0.71057 -1.2548,-0.69367 -0.4649,-1.12149 -0.4889,-1.58661 -0.088,-1.71995 0.3018,-0.10051 0.4275,-0.49853 0.2793,-0.88448 -0.2072,-0.53939 -0.4235,-0.57417 -0.9346,-0.15033 -0.3658,0.30328 -0.6651,0.84918 -0.6651,1.21311 0,0.82618 -0.8052,0.87101 -1.1003,0.0613 -0.1204,-0.33023 -0.3789,0.21015 -0.5744,1.20084 -0.1974,1.0003 -0.6398,1.80127 -0.9948,1.80127 -1.0509,0 -1.3227,0.9643 -0.5212,1.84909 1.4187,1.56607 2.6512,5.12644 2.7673,7.99385 0.1075,2.6554 0.2733,3.04025 2.1931,5.09062 1.6767,1.79084 2.0767,2.5615 2.0767,4.0011 0,2.07046 0.6564,3.54334 2.0997,4.7113 1.213,0.98162 2.0027,1.03905 4.1992,0.30538 z m -5.8107,-7.01943 c 0,-0.59441 0.209,-1.08076 0.4734,-1.08076 0.6024,0 0.6024,0.50976 0,1.44102 -0.3769,0.58263 -0.4675,0.51369 -0.4734,-0.36026 z m -0.6534,-2.1173 c 0.198,-0.8959 0.1437,-0.97826 -0.2665,-0.40447 -0.4166,0.58268 -0.5166,0.46782 -0.5225,-0.60042 0,-0.72651 -0.2418,-1.32093 -0.5282,-1.32093 -0.2865,0 -0.4387,-0.24645 -0.3382,-0.54767 0.2268,-0.67963 4.0921,-1.0158 4.4795,-0.38958 0.1555,0.2513 -0.055,0.45691 -0.4669,0.45691 -1.1586,0 -0.8852,0.87452 0.3273,1.04735 1.653,0.2356 1.672,1.65139 0.021,1.58905 -0.7363,-0.0278 -1.7022,0.25214 -2.1466,0.62209 -0.7243,0.60293 -0.7822,0.55605 -0.5593,-0.45233 z m -3.0483,-4.18236 c -0.2996,-0.4792 -0.3831,-1.13236 -0.1857,-1.45146 0.5527,-0.89342 1.6645,0.65509 1.1412,1.58937 -0.3578,0.63875 -0.4811,0.62096 -0.9555,-0.13791 z m 2.2519,-0.81367 c 0,-0.41187 0.2199,-0.61309 0.4887,-0.44715 0.2687,0.16594 0.3641,0.50293 0.212,0.74886 -0.4122,0.66625 -0.7007,0.54202 -0.7007,-0.30171 z m 3.5846,0.0721 c -0.8768,-0.64054 -0.856,-0.67266 0.3886,-0.60043 0.7232,0.042 1.3151,0.34651 1.3153,0.67674 5e-4,0.78494 -0.5592,0.75987 -1.7039,-0.0763 z m -5.027,-2.20529 c 0,-0.26419 0.2291,-0.48034 0.5092,-0.48034 0.28,0 0.3755,0.21615 0.212,0.48034 -0.1634,0.26418 -0.3925,0.48034 -0.5092,0.48034 -0.1166,0 -0.212,-0.21616 -0.212,-0.48034 z m 0.4808,-2.32022 c -0.8746,-0.9439 -0.9618,-3.44384 -0.1202,-3.44384 0.5865,0 0.7946,0.58838 0.6369,1.80127 -0.043,0.33023 0.1478,0.60042 0.4238,0.60042 0.5736,0 0.6859,1.27307 0.1413,1.60242 -0.1983,0.11996 -0.6851,-0.13216 -1.0818,-0.56027 z m -3.2454,-3.23072 c -0.8843,-0.96071 -0.7364,-1.85804 0.1588,-0.96365 0.4179,0.41751 0.6884,0.95204 0.601,1.18784 -0.087,0.23579 -0.4293,0.13491 -0.7598,-0.22419 z m 4.207,-0.69346 c 0,-0.52837 0.2292,-0.96067 0.5092,-0.96067 0.28,0 0.3605,0.24032 0.1788,0.53404 -0.1817,0.29372 -0.032,0.72272 0.3322,0.95332 0.5241,0.3316 0.4867,0.42082 -0.1788,0.42664 -0.5233,0.005 -0.8414,-0.35582 -0.8414,-0.95333 z m 77.6695,21.58326 c 0.4425,-0.7153 -0.07,-1.1042 -0.9911,-0.75129 -0.4248,0.16287 -0.6378,0.5138 -0.4732,0.77985 0.3898,0.62998 1.0651,0.61681 1.4643,-0.0286 z m -73.133,-1.83907 c 0.1463,-0.2365 -0.057,-0.55394 -0.4524,-0.70543 -0.4364,-0.1673 -0.7185,0.002 -0.7185,0.43001 0,0.77689 0.7514,0.95362 1.1709,0.27542 z m 75.9326,-0.28774 c -0.1516,-0.39476 -0.4694,-0.59816 -0.7061,-0.45199 -0.6789,0.41915 -0.502,1.16974 0.2757,1.16974 0.4289,0 0.5979,-0.28177 0.4304,-0.71775 z m -1.3492,-1.9994 c 1.2469,-1.34412 1.2351,-2.17263 -0.016,-1.13519 -0.5995,0.49705 -0.7329,0.48037 -0.7329,-0.0917 0,-0.87635 -1.3149,-0.92331 -1.647,-0.0588 -0.1353,0.35225 -0.036,0.64045 0.2197,0.64045 0.2562,0 0.4657,0.43231 0.4657,0.96068 0,1.26695 0.2927,1.21297 1.7106,-0.31546 z m -3.4285,-0.006 c 0.3669,-0.95539 -0.7382,-1.80474 -1.267,-0.97373 -0.5807,0.9125 -0.4401,1.77592 0.2891,1.77592 0.3684,0 0.8084,-0.36099 0.9779,-0.80219 z m 2.2419,-4.60842 c -0.2556,-0.67144 -0.6849,-1.3568 -0.9541,-1.52302 -0.2692,-0.16621 -0.3588,-0.67355 -0.1992,-1.12742 0.2201,-0.62535 0.04,-0.56832 -0.7422,0.23547 -1.2956,1.331 -1.2893,1.41264 0.1375,1.7704 0.6435,0.16134 1.3123,0.74145 1.4863,1.28911 0.174,0.54767 0.4108,0.90137 0.5263,0.78601 0.1155,-0.11536 9e-4,-0.75911 -0.2546,-1.43055 z m -2.2068,0.60723 c 0.1635,-0.26419 0.068,-0.48034 -0.212,-0.48034 -0.28,0 -0.5092,0.21615 -0.5092,0.48034 0,0.26418 0.095,0.48034 0.212,0.48034 0.1167,0 0.3458,-0.21616 0.5092,-0.48034 z m 4.6264,-1.28491 c -0.4191,-0.71991 -0.5129,-0.74067 -0.5249,-0.11608 -0.016,0.80893 0.49,1.53727 0.8308,1.19685 0.1124,-0.11228 -0.025,-0.59863 -0.3059,-1.08077 z m -1.33,-2.78913 c -1.2197,-0.891 -1.3841,-0.55319 -0.3295,0.67722 0.4817,0.56211 0.95,0.78392 1.0462,0.49556 0.096,-0.2871 -0.2267,-0.81485 -0.7167,-1.17278 z m -2.2439,-1.99951 c -0.1425,-0.1424 -0.654,-0.0295 -1.1366,0.25086 -0.6318,0.36705 -0.6823,0.51385 -0.1803,0.52436 0.5422,0.0114 0.5689,0.1427 0.1202,0.59102 -0.3173,0.31702 -0.577,0.77847 -0.577,1.02545 0,0.24698 0.4574,-0.13187 1.0164,-0.84187 0.5591,-0.71001 0.8998,-1.40743 0.7573,-1.54982 z m 2.9567,-1.66416 c -0.1211,-2.05165 -1.1279,-3.02639 -1.8787,-1.81896 -0.2463,0.39609 -0.2252,0.73634 0.051,0.83153 0.2577,0.0886 0.3452,0.36032 0.1946,0.60381 -0.1507,0.24349 0.051,0.56714 0.4474,0.71923 0.3967,0.15209 0.6037,0.58287 0.4598,0.95729 -0.1438,0.37441 -0.013,0.68075 0.2903,0.68075 0.3445,0 0.5079,-0.74132 0.4351,-1.97365 z m -85.6255,-8.44244 c -0.9306,-0.2453 -1.1035,-0.89351 -0.3606,-1.35219 0.2644,-0.16327 0.4808,-0.0679 0.4808,0.21182 0,0.27978 0.1972,0.50869 0.4382,0.50869 0.596,0 0.3803,-1.17625 -0.3845,-2.09691 -1.0958,-1.31906 -0.3448,-2.03655 0.8658,-0.82715 0.7999,0.79911 1.2441,0.95467 1.6287,0.5704 0.3847,-0.38427 0.3032,-0.52837 -0.2987,-0.52837 -0.4553,0 -1.0711,-0.5336 -1.3685,-1.18578 -0.2975,-0.65218 -0.7359,-1.06533 -0.9743,-0.91811 -0.2385,0.14722 -0.7912,0.13057 -1.2283,-0.037 -0.6721,-0.25767 -0.5828,-0.48652 0.5786,-1.48358 1.4567,-1.2505 1.9517,-1.48667 1.4642,-0.69858 -0.1634,0.26419 0.04,0.48034 0.4524,0.48034 0.8874,0 0.8933,-0.0402 0.2536,-1.72101 -0.4593,-1.20709 -0.5419,-1.24034 -1.1198,-0.45079 -0.5191,0.70914 -0.8023,0.75707 -1.6849,0.28515 -1.0436,-0.55796 -1.0579,-0.52347 -0.8715,2.1007 0.1811,2.55094 -0.4542,3.70594 -0.965,1.75439 -0.1652,-0.63095 -0.5975,-0.87428 -1.3974,-0.78656 -0.637,0.0699 -1.1583,-0.0594 -1.1583,-0.28726 0,-0.22786 0.2164,-0.41428 0.4808,-0.41428 0.8817,0 0.495,-1.04692 -0.4808,-1.30184 -0.6222,-0.16258 -0.9616,-0.65519 -0.9616,-1.39605 0,-0.62965 -0.2291,-1.14482 -0.5091,-1.14482 -0.2801,0 -0.3755,0.21615 -0.2121,0.48034 0.1635,0.26419 0.068,0.48034 -0.212,0.48034 -0.28,0 -0.5092,-0.22891 -0.5092,-0.50869 0,-0.27978 -0.2139,-0.37662 -0.4753,-0.21522 -0.2632,0.16256 -0.3582,-0.0114 -0.2127,-0.39001 0.1444,-0.3759 -0.075,-0.81265 -0.4863,-0.97054 -0.4501,-0.17253 -0.7489,-0.8681 -0.7489,-1.74317 0,-0.80085 -0.1853,-1.45609 -0.4118,-1.45609 -0.2265,0 -0.3887,-0.65027 -0.3606,-1.44505 0.029,-0.8289 0.2748,-1.35988 0.5756,-1.24529 0.2884,0.10987 0.8293,0.007 1.202,-0.22877 0.5386,-0.34064 0.4943,-0.43005 -0.2159,-0.4359 -0.7314,-0.006 -0.8351,-0.247 -0.5715,-1.32828 l 0.322,-1.32093 -1.334,1.3141 c -2.4613,2.42477 -1.3598,6.36674 3.6806,13.1715 4.5219,6.10477 5.0674,6.66546 6.544,6.72566 0.7632,0.0311 1.0091,-0.0432 0.5463,-0.16522 z m -2.1626,-1.59236 c 0.107,-0.39628 0.7184,-0.76042 1.3588,-0.8092 0.9181,-0.0699 0.961,-0.0328 0.2028,0.17566 -0.5289,0.14538 -1.1404,0.50952 -1.3588,0.80919 -0.2625,0.36001 -0.3313,0.30042 -0.2028,-0.17565 z m -52.7235,-2.95192 c 0.911,-1.02504 0.9101,-1.02753 -0.1659,-0.46344 -0.595,0.31193 -1.0818,0.77568 -1.0818,1.03057 0,0.68239 0.2302,0.57778 1.2477,-0.56713 z m 51.6858,-5.36091 c -0.2893,-0.28896 -0.5259,-1.02253 -0.5259,-1.63016 0,-0.60763 -0.2164,-1.10478 -0.4808,-1.10478 -0.8752,0 -0.5584,3.75109 0.3606,4.27076 0.6341,0.35856 0.8821,0.2927 1.0067,-0.26733 0.091,-0.40871 -0.071,-0.97953 -0.3606,-1.26849 z m -49.5065,0.74751 c 0.598,-0.76184 0.581,-0.77883 -0.1816,-0.18135 -0.4627,0.36258 -0.8414,0.74084 -0.8414,0.84059 0,0.39533 0.3949,0.14088 1.023,-0.65924 z m 47.106,-1.42292 c -0.4619,-0.79284 -0.5013,-0.78195 -0.5148,0.14202 -0.016,1.11191 0.5939,1.97889 0.8508,1.20893 0.09,-0.27074 -0.061,-0.87867 -0.336,-1.35095 z m -45.725,-1.15555 c 0,-0.26419 -0.2163,-0.34675 -0.4808,-0.18347 -0.2644,0.16327 -0.4808,0.51301 -0.4808,0.7772 0,0.26419 0.2164,0.34675 0.4808,0.18347 0.2645,-0.16327 0.4808,-0.51301 0.4808,-0.7772 z m 44.8827,-1.01329 c 0.154,-0.5885 -0.029,-1.54118 -0.4067,-2.11706 -0.6093,-0.92908 -0.5939,-1.08774 0.1366,-1.40796 0.4528,-0.19849 0.9856,-0.32657 1.1839,-0.28463 0.1984,0.0419 0.3606,-0.22276 0.3606,-0.58823 0,-0.36546 0.4869,-0.79482 1.0819,-0.95411 1.6469,-0.44095 2.3755,-0.35935 2.0137,0.22551 -0.4146,0.67019 1.821,-0.46983 2.269,-1.15704 0.4392,-0.67384 -0.052,-1.77291 -0.7923,-1.77291 -0.9124,0 -1.2231,-1.8363 -0.4426,-2.616 0.9544,-0.95352 0.8431,-1.38178 -0.2827,-1.08766 -1.0752,0.2809 -1.6586,-0.32585 -1.2746,-1.32561 0.3164,-0.82347 2.2357,-0.3996 2.2357,0.49373 0,0.95745 1.0109,1.38812 1.4888,0.63429 0.2511,-0.39605 0.4226,-0.44142 0.427,-0.11293 0.014,1.00768 1.6295,1.23278 2.2975,0.32004 0.5486,-0.74951 0.6931,-0.76895 1.0871,-0.14623 0.9225,1.45781 0.5459,2.03306 -1.1981,1.82966 -1.562,-0.18218 -1.6486,-0.1203 -1.3723,0.97977 0.1951,0.77633 0.1196,1.06591 -0.2227,0.85457 -0.5806,-0.35853 -1.2294,0.46853 -1.3189,1.68129 -0.055,0.74668 0.058,0.74725 1.6601,0.008 0.9455,-0.43608 2.0101,-1.0681 2.3657,-1.40449 0.3556,-0.33639 1.221,-0.91027 1.9232,-1.27529 0.7021,-0.36502 1.7707,-1.19214 2.3745,-1.83806 0.9556,-1.02226 1.0053,-1.25109 0.3836,-1.7665 -0.3927,-0.32567 -1.1559,-0.45205 -1.6958,-0.28086 -0.7578,0.24028 -0.916,0.14042 -0.6939,-0.43789 0.1583,-0.41204 0.463,-0.64098 0.6772,-0.50876 0.2141,0.13222 0.4619,0.0515 0.5506,-0.17943 0.089,-0.23091 0.6481,-0.57105 1.243,-0.75587 0.8815,-0.27381 1.0819,-0.15215 1.0819,0.65701 0,1.11865 0.4913,1.27071 1.3462,0.41664 0.7499,-0.74913 0.7417,-1.47987 -0.014,-1.22831 -0.3248,0.10817 -1.0016,-0.18583 -1.5039,-0.65334 -1.2123,-1.12832 -5.8587,-3.306 -7.0538,-3.306 -0.5217,0 -0.9485,-0.22891 -0.9485,-0.50868 0,-0.27978 0.2164,-0.3751 0.4808,-0.21182 0.9088,0.5611 0.48,-0.50767 -0.5608,-1.398 -1.0149,-0.86818 -1.0586,-0.86784 -1.7041,0.0133 -0.5912,0.80703 -0.5438,0.93794 0.4406,1.2167 0.7744,0.2193 0.8524,0.32664 0.2617,0.36025 -0.5642,0.0321 -0.8414,0.44353 -0.8414,1.24873 0,0.66046 -0.2164,1.20084 -0.4808,1.20084 -0.2645,0 -0.4808,0.32423 -0.4808,0.72051 0,0.39628 -0.2164,0.72051 -0.4808,0.72051 -0.2645,0 -0.4808,-0.32423 -0.4808,-0.72051 0,-0.39628 0.1932,-0.72051 0.4293,-0.72051 0.5169,0 1.1419,-1.47239 0.779,-1.83495 -0.2594,-0.25922 -1.2951,0.89025 -2.1961,2.43747 -0.3971,0.68191 -0.258,0.94862 0.7293,1.39803 1.5643,0.71204 1.5749,1.29636 0.018,0.99905 -0.6611,-0.12626 -1.202,-0.0402 -1.202,0.19123 0,0.23143 -0.4641,0.71034 -1.0314,1.06423 -0.9167,0.57199 -0.9962,0.55221 -0.7157,-0.1781 0.1736,-0.45185 -0.4442,-0.0626 -1.3727,0.86508 -0.9285,0.92764 -1.6883,1.83176 -1.6883,2.00914 0,0.17738 0.34,-0.0171 0.7556,-0.4323 1.0622,-1.06124 2.3419,-1.0022 1.8591,0.0858 -0.2051,0.46233 -0.4111,1.48905 -0.4578,2.28161 -0.054,0.91233 -0.3767,1.49799 -0.8804,1.59632 -0.4376,0.0854 -0.7957,0.47644 -0.7957,0.86893 0,0.3925 -0.1893,0.59675 -0.4207,0.45388 -0.5215,-0.32204 -0.6528,1.13734 -0.4826,5.3667 0.056,1.39554 1.1875,1.40339 1.5521,0.0108 z m 12.3403,-11.53888 c 0.01,-0.87775 0.096,-0.94542 0.4808,-0.36026 0.4155,0.63242 0.529,0.63412 0.9281,0.0139 0.2501,-0.38863 0.6283,-0.53307 0.8406,-0.32098 0.3759,0.37551 -1.0908,1.74809 -1.868,1.74809 -0.2139,0 -0.3856,-0.48635 -0.3815,-1.08076 z m -1.9306,-2.23022 c 0,-0.48691 1.4644,-1.15019 1.7998,-0.81516 0.1208,0.12073 0.077,0.45005 -0.097,0.73181 -0.3836,0.62006 -1.7026,0.68463 -1.7026,0.0833 z m 1.4424,-1.49976 c -0.6411,-0.42043 -0.6411,-0.52554 0,-0.94596 1.081,-0.70895 1.4424,-0.59044 1.4424,0.47298 0,1.06341 -0.3614,1.18192 -1.4424,0.47298 z m -4.6127,-1.02619 c -0.3828,-0.61874 1.0436,-1.84848 2.144,-1.84848 0.5193,0 0.4063,0.32633 -0.4161,1.20084 -1.3033,1.38591 -1.2772,1.37615 -1.7279,0.64764 z m -4.3178,15.12319 c 0.1692,-0.44045 0.034,-1.03487 -0.3012,-1.32092 -0.3348,-0.28606 -0.4577,-0.32957 -0.273,-0.0967 0.1846,0.23288 0.1193,0.8273 -0.1452,1.32093 -0.2824,0.52729 -0.2967,0.89752 -0.034,0.89752 0.2455,0 0.5847,-0.36037 0.7539,-0.80083 z m -47.8638,-2.58132 c 0.2363,-1.17795 0.7867,-3.43865 1.223,-5.02376 0.7857,-2.85437 0.9074,-3.95942 1.5006,-13.62408 0.2315,-3.77172 0.1678,-4.89294 -0.2629,-4.62699 -0.3127,0.19305 -0.4645,0.89466 -0.3373,1.55914 0.1271,0.66447 0.036,2.63854 -0.2034,4.38682 -0.2391,1.74828 -0.7357,5.55636 -1.1037,8.4624 -0.6065,4.78902 -1.2747,8.42494 -2.0304,11.04778 -0.1985,0.68868 -0.1266,0.81907 0.2538,0.46055 0.2918,-0.27507 0.7239,-1.46391 0.9603,-2.64186 z m 6.4602,-3.39943 c 1.0908,-2.51552 0.6985,-3.04659 -0.4304,-0.58258 -0.4637,1.01215 -0.9277,2.00239 -1.0311,2.20053 -0.1033,0.19814 -0.01,0.36025 0.2079,0.36025 0.2176,0 0.7818,-0.89019 1.2536,-1.9782 z m -0.6005,-9.30974 c 0.8926,-2.78957 1.0995,-4.6716 1.2143,-11.04777 0.1372,-7.61465 -0.2696,-7.42083 -1.0083,0.48034 -0.5149,5.50664 -0.7224,7.22242 -1.2491,10.32726 -0.2913,1.71721 -0.7235,3.61871 -0.9605,4.22556 -0.237,0.60685 -0.4171,1.36338 -0.4002,1.68118 0.045,0.84296 1.1686,-1.8061 2.4038,-5.66657 z m 92.8242,4.43512 c -0.4749,-0.47086 -0.5301,-0.41568 -0.2692,0.26889 0.1806,0.47372 0.4494,0.74031 0.5974,0.59242 0.1481,-0.14789 3e-4,-0.53548 -0.3282,-0.86131 z m 11.1998,0.79721 c 1.4655,-0.5618 0.8315,-2.39198 -0.7559,-2.18237 -0.8429,0.11129 -1.4182,-1.33881 -0.9086,-2.29005 0.5417,-1.01131 0.504,-4.84082 -0.048,-4.84208 -0.17,-3.8e-4 -0.4337,0.32353 -0.5859,0.71981 -0.1522,0.39627 -0.5127,0.7205 -0.801,0.7205 -0.2884,0 -0.413,-0.17993 -0.2769,-0.39984 0.136,-0.21992 -1.3626,-0.38002 -3.3303,-0.35578 -2.4668,0.0304 -3.6497,-0.14374 -3.8099,-0.56084 -0.3754,-0.97741 -1.7049,-0.69997 -1.7049,0.35579 0,0.52837 -0.2291,0.96067 -0.5092,0.96067 -0.28,0 -0.3696,0.22562 -0.199,0.50138 0.1706,0.27576 0.04,0.82637 -0.2898,1.22358 -0.4601,0.55393 -0.6853,0.58421 -0.9663,0.12993 -0.2847,-0.46013 -0.5561,-0.43841 -1.2166,0.0974 -0.4676,0.37929 -0.7028,0.44392 -0.5227,0.14362 0.1801,-0.30029 0.01,-0.8131 -0.3885,-1.13957 -0.789,-0.65412 -0.9806,-2.3973 -0.2635,-2.3973 0.2488,0 0.57,0.19006 0.7137,0.42236 0.5567,0.89981 2.0045,0.89119 2.0726,-0.0123 0.037,-0.4897 -0.1088,-0.89036 -0.3237,-0.89036 -0.215,0 -1.0766,-0.13702 -1.9148,-0.3045 -0.8382,-0.16747 -1.4909,-0.11344 -1.4505,0.12009 0.04,0.23352 -0.077,0.88617 -0.2606,1.45034 -0.3235,0.9931 -0.395,1.00188 -2.2452,0.27579 -1.5092,-0.59224 -1.7524,-0.8387 -1.1565,-1.17184 0.415,-0.23203 0.9692,-0.28934 1.2315,-0.12736 0.2624,0.16198 0.477,0.0887 0.477,-0.16278 0,-0.58251 -1.3902,-1.1293 -1.9666,-0.77346 -0.2405,0.14854 -0.4374,0.0623 -0.4374,-0.19162 0,-0.70035 -2.8483,-1.54381 -4.1289,-1.2227 -0.7665,0.1922 -2.4589,-0.35037 -5.2598,-1.68632 -4.0417,-1.92772 -6.4778,-2.47716 -6.4778,-1.46101 0,0.27978 0.2164,0.3751 0.4808,0.21182 0.2645,-0.16327 0.4808,-0.0851 0.4808,0.17366 0,0.25878 0.6491,0.61294 1.4424,0.78702 1.7044,0.37398 1.8847,1.04712 0.3606,1.34663 l -1.0818,0.21259 1.0818,0.35717 c 0.595,0.19645 1.0818,0.50936 1.0818,0.69537 0,0.18601 1.0843,0.19925 2.4094,0.0294 1.3252,-0.16984 2.5152,-0.20314 2.6445,-0.074 0.6277,0.62713 0.1,1.08831 -1.0872,0.94965 -0.9235,-0.10788 -1.3222,0.0628 -1.3222,0.56605 0,0.39628 -0.2164,0.87931 -0.4808,1.07341 -0.2645,0.19409 0.01,0.3562 0.601,0.36025 0.595,0.004 1.0818,0.20633 1.0818,0.44953 0,0.24319 0.6687,0.5889 1.486,0.76823 1.1452,0.2513 1.4322,0.53162 1.2513,1.22259 -0.1291,0.49309 -0.095,0.87832 0.077,0.85607 0.1712,-0.0223 0.7054,-0.0149 1.187,0.0164 0.7962,0.0517 0.8071,0.1255 0.1202,0.8117 -1.0926,1.09157 -0.9274,1.34129 0.3131,0.47326 1.2285,-0.85963 3.3803,-0.97353 4.7326,-0.2505 1.2061,0.64482 1.1777,1.2579 -0.09,1.93547 -0.7166,0.38316 -0.9225,0.38818 -0.6928,0.0169 0.1797,-0.29054 0.075,-0.52826 -0.2338,-0.52826 -0.3223,0 -0.4319,-0.33522 -0.2578,-0.78845 0.2532,-0.65925 0.1829,-0.68897 -0.4294,-0.18135 -0.4027,0.3339 -0.7322,0.91761 -0.7322,1.29713 0,0.37952 -0.2267,0.55006 -0.5038,0.37896 -0.2771,-0.17109 -0.8721,-0.15062 -1.3222,0.0455 -0.9624,0.41931 5.9814,1.54349 9.9316,1.60789 2.5714,0.0419 2.5757,0.0395 2.2692,-1.27892 -0.2279,-0.98004 -0.1812,-1.13499 0.1809,-0.60042 0.3283,0.48458 0.4905,0.5239 0.4954,0.12008 0.012,-0.94005 1.4489,-0.70315 1.4572,0.24017 0.01,0.71695 0.075,0.73461 0.4654,0.12009 0.2519,-0.39628 0.2715,-0.78491 0.044,-0.86363 -0.2279,-0.0787 -0.3039,-0.56505 -0.1689,-1.08076 0.135,-0.5157 0.011,-0.93764 -0.2763,-0.93764 -0.287,0 -0.3973,-0.32423 -0.2451,-0.72051 0.4408,-1.14746 1.1355,-0.8351 1.1355,0.51053 0,1.00094 0.2022,1.20295 1.0818,1.08076 0.8026,-0.11148 1.0458,0.0647 0.9423,0.68265 -0.1007,0.60123 0.082,0.74803 0.6565,0.52776 0.6452,-0.24736 0.7408,-0.0867 0.5046,0.84826 -0.1603,0.63438 -0.1673,0.88323 -0.015,0.553 0.3771,-0.82026 1.1575,-0.75885 1.1575,0.0911 0,0.44535 -0.6418,0.75858 -1.803,0.87993 -0.9916,0.10363 0.072,0.22475 2.3647,0.26916 2.2923,0.0444 4.51,-0.0504 4.9282,-0.21081 z m -19.1126,-1.95002 c -0.5554,-0.55482 -0.3486,-1.94056 0.3796,-2.54434 0.8243,-0.68348 1.8799,-0.20632 1.3631,0.61615 -0.196,0.31198 -0.2942,0.9455 -0.218,1.40782 0.1348,0.81865 -0.8796,1.16486 -1.5247,0.52037 z m 3.0917,-1.30486 c -0.4257,-0.51235 -0.3841,-0.72877 0.1815,-0.9456 0.5044,-0.19336 0.7335,0.0142 0.7335,0.66441 0,1.11974 -0.174,1.17321 -0.915,0.28119 z m 3.4321,-0.15585 c -0.6936,-0.13318 -0.9581,-0.41464 -0.7286,-0.77518 0.1982,-0.31134 0.3637,-0.72819 0.3677,-0.92633 0,-0.19814 0.1697,-0.36026 0.368,-0.36026 0.1983,0 0.5298,0 0.7365,0 0.2068,0 0.4207,0.54038 0.4754,1.20085 0.055,0.66046 0.048,1.17141 -0.015,1.13543 -0.063,-0.036 -0.6048,-0.15951 -1.2037,-0.27451 z m 5.8299,-0.50848 c -0.3968,-0.25529 -0.3636,-0.52317 0.1202,-0.9718 0.4295,-0.39824 0.668,-0.43099 0.668,-0.0917 0,0.29019 0.2445,0.3767 0.5432,0.19225 0.3238,-0.19993 0.4573,-0.078 0.3306,0.30188 -0.2657,0.79627 -0.9467,1.02959 -1.662,0.56941 z m -2.3707,-1.01852 c 0.145,-0.23426 -0.059,-0.69303 -0.4524,-1.0195 -0.692,-0.57376 -1.0011,-1.91696 -0.4412,-1.91696 0.5307,0 1.5994,1.32994 1.3051,1.624 -0.1637,0.16355 -0.056,0.29735 0.2394,0.29735 0.2954,0 0.7101,-0.30365 0.9215,-0.67478 0.3815,-0.66941 1.1871,-0.9326 2.5198,-0.82314 0.9493,0.078 -0.8835,1.46176 -1.9636,1.48265 -0.4345,0.008 -0.9145,0.3395 -1.0668,0.73578 -0.1522,0.39628 -0.5126,0.72051 -0.801,0.72051 -0.2883,0 -0.4057,-0.19166 -0.2608,-0.42591 z m 4.7407,-0.43855 c -0.4268,-0.27096 -0.3581,-0.50896 0.2576,-0.89311 0.6866,-0.42835 0.8394,-0.35976 0.8394,0.37676 0,0.98132 -0.2094,1.07989 -1.097,0.51635 z m -7.8322,-1.53723 c 0,-0.26419 0.3245,-0.48034 0.7212,-0.48034 0.3967,0 0.7212,0.21615 0.7212,0.48034 0,0.26418 -0.3245,0.48034 -0.7212,0.48034 -0.3967,0 -0.7212,-0.21616 -0.7212,-0.48034 z m -15.8665,-1.8915 c 0,-0.24777 0.4327,-0.41792 0.9616,-0.37812 0.5289,0.0398 0.9616,0.24252 0.9616,0.45048 0,0.20797 -0.4327,0.37812 -0.9616,0.37812 -0.5289,0 -0.9616,-0.20271 -0.9616,-0.45048 z m -1.4424,-0.51019 c 0,-0.26419 0.2163,-0.48034 0.4808,-0.48034 0.2644,0 0.4808,0.21615 0.4808,0.48034 0,0.26418 -0.2164,0.48034 -0.4808,0.48034 -0.2645,0 -0.4808,-0.21616 -0.4808,-0.48034 z m 5.7696,-0.49541 c 0,-0.2559 0.3246,-0.46527 0.7212,-0.46527 0.3967,0 0.7212,0.0849 0.7212,0.18878 0,0.10383 -0.3245,0.3132 -0.7212,0.46526 -0.3966,0.15207 -0.7212,0.0671 -0.7212,-0.18877 z m -3.6405,7.82056 c -0.2393,-0.19814 -0.5649,-0.5326 -0.7236,-0.74324 -0.1586,-0.21065 -0.5662,-0.0485 -0.9058,0.36025 -0.5322,0.64055 -0.4322,0.74325 0.7235,0.74325 0.7376,0 1.1452,-0.16212 0.9059,-0.36026 z m -3.8806,-0.84604 c -0.1939,-0.50492 -0.058,-0.6412 0.4473,-0.44759 0.3994,0.1531 0.8689,0.0475 1.0435,-0.23472 0.1944,-0.31414 -0.1722,-0.51308 -0.9454,-0.51308 -1.0845,0 -1.2172,-0.15252 -0.9402,-1.08076 0.2853,-0.95616 0.2475,-0.99159 -0.3282,-0.30729 -1.0767,1.27972 -2.3892,1.51944 -2.6598,0.48576 -0.1752,-0.66943 -0.8452,-0.98682 -2.5637,-1.21458 -1.2796,-0.16958 -2.434,-0.57323 -2.5652,-0.897 -0.1312,-0.32377 -0.2557,-0.18519 -0.2765,0.30795 -0.03,0.69948 -0.2758,0.82619 -1.1198,0.57631 -0.595,-0.17616 -1.346,-0.37524 -1.6689,-0.4424 -0.3229,-0.0672 -0.7376,-0.27246 -0.9215,-0.45623 -0.184,-0.18377 -0.7543,-0.33413 -1.2674,-0.33413 -0.6227,0 -0.8428,-0.23449 -0.6621,-0.70509 0.2084,-0.54249 -0.1129,-0.69068 -1.3931,-0.6426 -0.9152,0.0344 -1.6089,0.11339 -1.5416,0.17559 0.067,0.0622 1.4205,0.8668 3.0072,1.78799 2.4946,1.44835 6.8445,2.64074 8.6544,2.37236 0.2645,-0.0392 1.4545,0.44484 2.6444,1.07566 2.5521,1.35286 3.4418,1.49662 3.0566,0.49385 z m 31.62,-1.03928 c -0.4191,-0.71992 -0.5129,-0.74067 -0.5249,-0.11609 -0.016,0.80893 0.49,1.53728 0.8308,1.19685 0.1124,-0.11228 -0.025,-0.59862 -0.3059,-1.08076 z m -31.7917,-3.03814 c 0,-0.26419 -0.2164,-0.48034 -0.4808,-0.48034 -0.2645,0 -0.4808,0.21615 -0.4808,0.48034 0,0.26418 0.2163,0.48034 0.4808,0.48034 0.2644,0 0.4808,-0.21616 0.4808,-0.48034 z m -68.3381,-3.8734 c 0.2571,-1.81334 0.2637,-4.1879 0.016,-5.73496 -0.3189,-1.99197 -0.2708,-2.7582 0.1959,-3.1206 0.3402,-0.26418 0.6713,-1.32153 0.7358,-2.34965 0.065,-1.02812 0.6537,-2.78391 1.3095,-3.90176 1.1549,-1.96881 1.1818,-2.21861 0.8584,-7.97762 -0.4273,-7.6112 -0.4143,-9.57006 0.088,-13.3904 0.2259,-1.71721 0.4232,-5.7498 0.4384,-8.96131 l 0.028,-5.83912 -0.9267,1.45619 c -1.4524,2.28203 -1.6817,5.2281 -1.1508,14.78525 0.5123,9.22232 0.3468,14.93941 -0.5501,19.00258 -0.288,1.30486 -0.8306,3.77745 -1.2057,5.49466 -1.1431,5.23321 -1.4599,14.81483 -0.4567,13.81258 0.1,-0.0996 0.3787,-1.57376 0.62,-3.27584 z m 64.0108,1.99556 c 0,-0.46818 -1.0727,-1.48453 -1.5669,-1.48453 -0.2272,0 -0.2793,0.21615 -0.1159,0.48034 0.1635,0.26419 -0.1483,0.48034 -0.6928,0.48034 -0.5445,0 -0.99,0.28082 -0.99,0.62405 0,0.43037 0.5223,0.56314 1.6828,0.42779 0.9256,-0.10795 1.6828,-0.34554 1.6828,-0.52799 z m 17.7898,-1.06089 c 0,-0.26418 -0.2164,-0.34674 -0.4809,-0.18347 -0.2644,0.16328 -0.4808,0.51302 -0.4808,0.7772 0,0.26419 0.2164,0.34675 0.4808,0.18348 0.2645,-0.16328 0.4809,-0.51302 0.4809,-0.77721 z m -16.3474,0.0567 c 0,-0.26419 -0.2163,-0.48034 -0.4808,-0.48034 -0.2644,0 -0.4808,0.21615 -0.4808,0.48034 0,0.26419 0.2164,0.48034 0.4808,0.48034 0.2645,0 0.4808,-0.21615 0.4808,-0.48034 z m -11.0584,-0.48034 c 0,-0.26418 -0.2036,-0.48034 -0.4525,-0.48034 -0.2488,0 -0.5861,0.21616 -0.7495,0.48034 -0.1635,0.26419 0.04,0.48034 0.4524,0.48034 0.4123,0 0.7496,-0.21615 0.7496,-0.48034 z m 6.9716,0 c -0.1634,-0.26418 -0.5007,-0.48034 -0.7496,-0.48034 -0.2488,0 -0.4524,0.21616 -0.4524,0.48034 0,0.26419 0.3373,0.48034 0.7496,0.48034 0.4123,0 0.6159,-0.21615 0.4524,-0.48034 z m -3.8668,-1.32093 c 0.3986,-1.03789 0.2623,-1.26162 -0.8744,-1.43493 -0.6279,-0.0957 -0.8117,0.0801 -0.6161,0.58921 0.1533,0.3991 0.069,0.72564 -0.187,0.72564 -0.2562,0 -0.4657,-0.44687 -0.4657,-0.99305 0,-0.79002 -0.2063,-0.92763 -1.0091,-0.67308 -0.8588,0.27231 -0.9614,0.16983 -0.6888,-0.68814 0.2509,-0.78989 0.1162,-1.0081 -0.6223,-1.0081 -1.2748,0 -1.7043,-1.33173 -0.7402,-2.29489 0.7238,-0.72311 0.7563,-0.6976 0.4279,0.33601 -0.2438,0.76725 -0.1882,1.01529 0.177,0.78984 0.2927,-0.18077 0.5323,-0.0998 0.5323,0.18002 0,0.27978 0.2741,0.50869 0.6091,0.50869 0.3893,0 0.6248,-0.73674 0.6525,-2.04144 0.024,-1.12279 -0.052,-1.77125 -0.1684,-1.44101 -0.2566,0.72748 -2.5356,0.80993 -2.5356,0.0917 0,-0.27978 -0.2164,-0.3751 -0.4808,-0.21182 -0.2645,0.16328 -0.4809,0.0552 -0.4809,-0.24017 0,-0.29537 -0.2163,-0.40344 -0.4808,-0.24017 -0.2644,0.16328 -0.4808,0.0807 -0.4808,-0.18347 0,-0.26419 0.1894,-0.59723 0.4207,-0.7401 0.71,-0.43836 0.4852,-2.67896 -0.2687,-2.67896 -0.3792,0 -0.5558,-0.21615 -0.3924,-0.48034 0.1635,-0.26419 0.1799,-0.48034 0.037,-0.48034 -0.1434,0 -0.8156,1.09407 -1.4939,2.43127 l -1.2332,2.43126 1.9661,0.77153 c 1.3303,0.52207 1.9115,1.01727 1.7975,1.53153 -0.093,0.41799 -0.4261,0.70595 -0.7409,0.6399 -0.3149,-0.066 -0.5725,-0.012 -0.5725,0.12009 0,0.28971 1.5837,1.90485 1.9233,1.96138 0.1322,0.022 0.5491,0.14285 0.9265,0.26852 1.0315,0.34349 0.094,1.50005 -0.9871,1.21764 -0.5799,-0.15151 -1.0931,0.0964 -1.4051,0.67866 -0.3366,0.6283 -0.3346,0.91735 0.01,0.91735 0.2738,0 0.4977,-0.23928 0.4977,-0.53173 0,-0.3118 0.3481,-0.39534 0.8415,-0.20199 0.4627,0.18136 1.6589,0.39075 2.658,0.46531 0.9992,0.0746 1.9548,0.27353 2.1236,0.44215 0.5268,0.52637 0.9929,0.33902 1.3282,-0.534 z m -9.3185,-0.53173 c 0.02,-0.16987 0.1071,-0.67218 0.193,-1.11624 0.086,-0.44406 -0.147,-0.92362 -0.5176,-1.06568 -0.3706,-0.14207 -0.6738,-0.58932 -0.6738,-0.99389 0,-1.25629 -1.8999,-0.85927 -2.4193,0.50557 -0.5637,1.48099 -0.2602,2.12121 1.0053,2.12121 0.5133,0 0.9332,0.31745 0.9332,0.70543 0,0.67611 1.3977,0.52833 1.4792,-0.1564 z m 15.3489,-0.36025 c 0,-0.10383 -0.4455,-0.18878 -0.99,-0.18878 -0.5444,0 -0.8621,0.20671 -0.7058,0.45936 0.2566,0.41473 1.6958,0.18508 1.6958,-0.27058 z m -4.5011,-0.42895 c -0.1554,-0.40473 -0.012,-0.7205 0.3271,-0.7205 0.7544,0 0.9333,-1.78757 0.2227,-2.22628 -0.3153,-0.19467 -0.3867,-0.10117 -0.1791,0.23439 0.1899,0.30703 0.016,0.88707 -0.3861,1.28897 -0.6418,0.64113 -0.6055,2.14393 0.052,2.14393 0.1322,0 0.1158,-0.32423 -0.036,-0.72051 z m -11.3654,-5.09494 c 0,-0.69054 -0.8342,-0.49266 -1.1261,0.2671 -0.1786,0.46522 -0.036,0.60747 0.4294,0.42895 0.3832,-0.1469 0.6967,-0.46012 0.6967,-0.69605 z m 8.8949,0.0514 c 0.1634,-0.26419 0.068,-0.48034 -0.212,-0.48034 -0.2801,0 -0.5092,0.21615 -0.5092,0.48034 0,0.26418 0.095,0.48033 0.212,0.48033 0.1166,0 0.3458,-0.21615 0.5092,-0.48033 z m 81.0153,-0.98903 c 0,-0.24859 -0.2163,-0.45199 -0.4808,-0.45199 -0.2644,0 -0.4808,0.33699 -0.4808,0.74886 0,0.41187 0.2164,0.61526 0.4808,0.45199 0.2645,-0.16328 0.4808,-0.50026 0.4808,-0.74886 z m -142.5039,-7.84259 c 0.1595,-3.35777 0.052,-8.95866 -0.2386,-12.44642 -0.8138,-9.7628 -1.0006,-16.19942 -0.5394,-18.58231 0.231,-1.19307 0.5129,-3.24999 0.6267,-4.57091 l 0.2067,-2.40169 -0.9284,2.07353 c -0.6484,1.44817 -0.7805,2.25167 -0.4378,2.66417 0.3452,0.41549 0.2131,1.01134 -0.4454,2.00934 -1.0332,1.56592 -1.2183,2.92797 -0.4333,3.18938 0.3544,0.11803 0.3631,1.07551 0.029,3.15137 -0.2644,1.64 -0.3802,3.6892 -0.2573,4.55377 0.4403,3.09708 1.3126,14.61776 1.4101,18.62395 0.1827,7.49935 0.2314,8.32725 0.4755,8.08335 0.1335,-0.13338 0.3732,-2.98977 0.5327,-6.34753 z m 137.2151,0.18553 c 0,-0.26418 -0.2164,-0.48034 -0.4808,-0.48034 -0.2645,0 -0.4808,0.21616 -0.4808,0.48034 0,0.26419 0.2163,0.48034 0.4808,0.48034 0.2644,0 0.4808,-0.21615 0.4808,-0.48034 z m -132.0843,-13.9298 c -0.182,-9.48951 -0.7827,-12.88517 -1.2321,-6.9649 -0.4282,5.6417 -0.4449,18.18757 -0.026,19.76815 0.7081,2.67355 1.417,-4.539 1.2584,-12.80325 z m -2.0609,-17.53233 c 0.3415,-1.8493 1.0278,-4.31161 1.5251,-5.47179 0.4973,-1.16018 0.8319,-2.18159 0.7436,-2.26981 -0.525,-0.5245 -3.7586,4.37095 -4.2131,6.37826 -0.511,2.25724 -0.6441,8.76351 -0.2489,12.17094 0.1072,0.92465 0.3702,4.05886 0.5843,6.9649 l 0.3894,5.28372 0.2994,-9.84693 c 0.1646,-5.41581 0.5787,-11.35999 0.9202,-13.20929 z m 9.1193,-3.54127 c 0.014,-0.53165 -0.1225,-0.54351 -0.7041,-0.0613 -0.3967,0.32888 -0.7136,1.16592 -0.7042,1.86008 l 0.017,1.26212 0.6872,-1.20085 c 0.3779,-0.66046 0.6947,-1.4975 0.7041,-1.86008 z m 72.9862,0.80337 c 2.7605,-1.53878 6.9338,-4.46917 9.285,-6.5196 0.6886,-0.60046 1.6651,-1.40416 2.1702,-1.78599 0.505,-0.38183 0.7824,-0.70111 0.6163,-0.70952 -1.0061,-0.0509 -4.5195,1.90367 -7.6224,4.24054 -1.9784,1.49 -4.4948,3.28237 -5.592,3.98305 -3.9975,2.55284 -3.1141,3.16459 1.1429,0.79152 z m -71.9386,-3.74976 2.0947,-0.45082 -2.1096,0.19011 c -1.2031,0.10843 -2.4427,0.55583 -2.8848,1.04125 -0.7148,0.78479 -0.7137,0.80511 0.015,0.2607 0.4345,-0.32473 1.7327,-0.79328 2.8848,-1.04124 z m -3.0328,-1.41681 c 0.6177,-0.31861 0.996,-0.7062 0.8407,-0.86131 -0.4715,-0.47106 -2.6284,0.92076 -3.4722,2.2406 l -0.7938,1.24146 1.1512,-1.02074 c 0.6331,-0.5614 1.6565,-1.28141 2.2741,-1.60001 z m -0.8426,-2.80854 c 3.1102,-0.0441 6.2076,0.95367 6.2136,2.00157 0,0.30013 0.4331,-0.10276 0.9585,-0.89532 1.1737,-1.77052 1.1898,-2.23367 0.1202,-3.45794 -1.9201,-2.19772 -6.2293,-3.20067 -9.0151,-2.09822 -0.651,0.25764 0.1824,0.44675 2.5806,0.58554 3.2662,0.18903 3.6501,0.32572 4.9282,1.7548 0.7623,0.85238 1.3861,1.76253 1.3861,2.02255 0,0.83025 -1.0192,0.50816 -1.9239,-0.608 -0.7712,-0.95151 -1.3189,-1.08076 -4.5795,-1.08076 h -3.7034 l -1.6279,1.8813 c -2.0932,2.41915 -2.0971,3.19306 -0.01,1.35954 1.4145,-1.24071 2.0094,-1.42738 4.6694,-1.46506 z m 139.7094,-12.83631 1.5184,-2.61862 -0.9174,-2.41208 c -0.5046,-1.32665 -0.9234,-3.32841 -0.9308,-4.44837 l -0.013,-2.03628 -1.47,3.60253 c -1.2326,3.02074 -1.4203,3.9904 -1.1618,6.00423 0.401,3.12373 0.7657,4.56752 1.1481,4.5452 0.1696,-0.01 0.9917,-1.19638 1.8269,-2.63661 z m -4.4235,-23.44592 c 0.6722,-1.146 1.2222,-2.44291 1.2222,-2.88203 0,-0.47199 0.3843,-0.79839 0.9399,-0.79839 0.7131,0 1.0107,0.43439 1.234,1.80127 0.1618,0.9907 0.3554,2.1255 0.4302,2.52177 0.075,0.39628 0.4932,-0.0833 0.9297,-1.06563 0.8056,-1.81277 2.2359,-2.11221 2.2359,-0.46809 0,0.49977 0.1634,0.60189 0.4712,0.2944 0.3078,-0.30748 0.2936,-1.11366 -0.041,-2.32418 -0.2817,-1.01937 -0.4011,-2.634 -0.2654,-3.58807 0.1358,-0.95407 0.1442,-1.38653 0.019,-0.96101 -0.2507,0.85003 -2.1481,1.86819 -3.4815,1.86819 -0.4667,0 -1.7547,0.43735 -2.8621,0.97189 -1.6661,0.80415 -2.0136,1.20829 -2.0136,2.34165 0,0.75336 -0.1352,2.04523 -0.3005,2.87081 -0.412,2.05832 0.037,1.88202 1.4823,-0.58258 z m -0.9928,-6.36156 c 0.5275,-1.37321 0.3101,-2.39465 -1.1506,-5.40713 -0.7933,-1.63614 -1.4472,-3.13347 -1.4531,-3.32741 -0.013,-0.44423 -1.8873,-2.86192 -1.9018,-2.4538 -0.01,0.16527 0.5302,1.52238 1.1913,3.01581 0.7477,1.68902 1.202,3.60305 1.202,5.06403 0,2.75375 0.3463,3.86829 1.202,3.86829 0.3401,0 0.7497,-0.34191 0.9102,-0.75979 z m 11.171,-7.28587 c 0.717,-1.25488 1.6257,-2.6612 2.0207,-3.12514 1.322,-1.55483 0.148,-1.44968 -1.2824,0.11489 -1.4796,1.61844 -3.1899,5.29186 -2.4638,5.29186 0.232,0 1.0085,-1.02673 1.7255,-2.28161 z m -29.6305,137.73691 c 0,-0.26419 0.2164,-0.48034 0.4808,-0.48034 0.2645,0 0.4808,0.21615 0.4808,0.48034 0,0.26418 -0.2163,0.48034 -0.4808,0.48034 -0.2644,0 -0.4808,-0.21616 -0.4808,-0.48034 z m 4.3272,-2.88203 c 0,-0.26419 0.2164,-0.48034 0.4808,-0.48034 0.2645,0 0.4808,0.21615 0.4808,0.48034 0,0.26419 -0.2163,0.48034 -0.4808,0.48034 -0.2644,0 -0.4808,-0.21615 -0.4808,-0.48034 z m -3.8464,-4.4031 c 0,-0.5724 0.061,-0.95067 0.1361,-0.84059 0.075,0.11008 0.4258,0.57841 0.78,1.04073 0.5513,0.71954 0.5317,0.84059 -0.136,0.84059 -0.4796,0 -0.7801,-0.40095 -0.7801,-1.04073 z m 1.763,-4.08287 c -0.1763,-0.17612 -0.3173,-0.55439 -0.3132,-0.84059 0.01,-0.35216 0.1215,-0.34424 0.3606,0.0245 0.1943,0.29967 0.786,0.65286 1.3148,0.78487 0.9302,0.23216 0.9288,0.24184 -0.04,0.29573 -0.551,0.0307 -1.1459,-0.0884 -1.3222,-0.2645 z m 1.6026,-1.60113 c 0,-0.26418 0.2292,-0.48033 0.5092,-0.48033 0.2801,0 0.3755,0.21615 0.212,0.48033 -0.1634,0.26419 -0.3925,0.48034 -0.5091,0.48034 -0.1167,0 -0.2121,-0.21615 -0.2121,-0.48034 z m -0.9616,-0.45199 c 0,-0.24859 0.2139,-0.58405 0.4753,-0.74545 0.2726,-0.16828 0.3532,0.0245 0.189,0.45199 -0.3196,0.83214 -0.6643,0.9844 -0.6643,0.29346 z m 1.202,-1.46936 c -0.1634,-0.26418 -0.068,-0.48034 0.2121,-0.48034 0.28,0 0.5091,0.21616 0.5091,0.48034 0,0.26419 -0.095,0.48034 -0.212,0.48034 -0.1166,0 -0.3457,-0.21615 -0.5092,-0.48034 z m 2.4041,-3.36236 c 0.1634,-0.26419 0.3925,-0.48034 0.5091,-0.48034 0.1166,0 0.2121,0.21615 0.2121,0.48034 0,0.26418 -0.2292,0.48033 -0.5092,0.48033 -0.2801,0 -0.3755,-0.21615 -0.212,-0.48033 z m 1.2577,-2.04144 c 0.031,-0.8586 0.1548,-1.18283 0.2757,-0.72051 0.1209,0.46233 0.4136,0.84059 0.6503,0.84059 0.2368,0 0.306,0.32423 0.1537,0.72051 -0.4891,1.27346 -1.1372,0.76892 -1.0797,-0.84059 z m 0.9059,-0.84059 c 0,-0.26419 0.2291,-0.48034 0.5091,-0.48034 0.2801,0 0.3755,0.21615 0.2121,0.48034 -0.1635,0.26418 -0.3926,0.48034 -0.5092,0.48034 -0.1166,0 -0.212,-0.21616 -0.212,-0.48034 z m -3.3657,-0.96068 c 0,-0.60182 0.5103,-0.60182 1.4425,0 0.5831,0.37653 0.5141,0.46704 -0.3606,0.47298 -0.595,0.004 -1.0819,-0.20879 -1.0819,-0.47298 z m 2.6754,-5.14291 c -0.2609,-0.68458 -0.2057,-0.73976 0.2691,-0.2689 0.3286,0.32583 0.4763,0.71342 0.3283,0.86131 -0.148,0.14789 -0.4169,-0.1187 -0.5974,-0.59241 z m 3.613,-3.14292 c -0.034,-1.17846 -0.4722,-1.5558 -1.6005,-1.37781 -0.7144,0.11268 -0.3422,-0.80807 0.4492,-1.11148 0.5379,-0.2062 1.1803,0.12019 1.9128,0.97193 1.0112,1.17567 1.1285,2.47426 0.17,1.88246 -0.2235,-0.13805 -0.5161,0.0205 -0.65,0.35242 -0.1339,0.33187 -0.2606,0.009 -0.2815,-0.71752 z m -2.9227,0.12009 c 0,-0.26419 0.2291,-0.48034 0.5091,-0.48034 0.2801,0 0.3755,0.21615 0.2121,0.48034 -0.1635,0.26418 -0.3926,0.48033 -0.5092,0.48033 -0.1166,0 -0.212,-0.21615 -0.212,-0.48033 z m 4.808,-3.33402 c 0,-0.2486 0.2139,-0.58405 0.4753,-0.74546 0.2725,-0.16828 0.3531,0.0245 0.189,0.45199 -0.3197,0.83215 -0.6643,0.9844 -0.6643,0.29347 z m 1.9612,-10.87598 c 0.023,-0.55957 0.137,-0.67339 0.2905,-0.29021 0.1388,0.34675 0.1218,0.76104 -0.038,0.92065 -0.1598,0.15962 -0.2734,-0.12408 -0.2525,-0.63044 z m 2.3576,-3.56251 c -0.7757,-1.35765 -1.9335,-5.41899 -1.6319,-5.72402 0.3374,-0.34118 0.7269,0.28662 0.8028,1.29391 0.043,0.57363 0.3241,0.86577 0.6955,0.72341 0.7156,-0.27436 0.855,0.62463 0.163,1.05188 -0.2529,0.15614 -0.3246,0.63589 -0.1593,1.0661 0.248,0.64581 0.3719,0.58908 0.7105,-0.32529 0.5989,-1.61732 0.8188,-1.01694 0.4371,1.19351 l -0.3317,1.92135 z m -5.0862,-2.297 c -0.2898,-0.18967 -0.6726,-0.93947 -0.8507,-1.66623 -0.3086,-1.25988 -0.2478,-1.31576 1.3057,-1.20084 0.8961,0.0663 1.8889,0.39766 2.2063,0.73639 0.4625,0.49379 0.3171,0.5688 -0.7338,0.37842 -1.5149,-0.27444 -2.5134,0.14816 -1.6336,0.69139 0.3249,0.2006 0.5102,0.59896 0.4119,0.88524 -0.098,0.28627 -0.4159,0.36531 -0.7058,0.17563 z m 5.8994,-1.78423 c -0.5463,-0.39904 -0.8177,-1.09581 -0.7205,-1.84912 0.1445,-1.11848 0.2278,-1.15601 1.1154,-0.50229 0.8235,0.60653 0.8575,0.77181 0.2404,1.16789 -0.6312,0.40514 -0.6327,0.51674 -0.012,0.91559 0.389,0.24983 0.605,0.55638 0.4801,0.68124 -0.125,0.12486 -0.6217,-0.0611 -1.1038,-0.41331 z m -5.557,-2.98868 c -0.031,-0.32194 -0.3328,-0.47917 -0.6712,-0.34941 -0.3871,0.14839 -0.6527,-0.2137 -0.7159,-0.97575 -0.067,-0.80796 0.1432,-1.21169 0.6306,-1.21169 0.8696,0 1.3509,1.04535 1.0375,2.25355 -0.1239,0.47776 -0.2504,0.60524 -0.281,0.2833 z m 4.1112,-2.85707 c -0.1763,-0.17613 -0.3206,-0.68653 -0.3206,-1.13424 0,-0.60926 0.3024,-0.75627 1.202,-0.58445 1.3345,0.25486 1.4839,0.60447 0.6251,1.46251 -0.6537,0.65299 -1.0431,0.71921 -1.5065,0.25618 z m -5.6094,-1.60113 c 0,-0.6191 0.2435,-0.95965 0.601,-0.84059 0.3305,0.11008 0.601,0.48834 0.601,0.84059 0,0.35225 -0.2705,0.73052 -0.601,0.84059 -0.3575,0.11906 -0.601,-0.22149 -0.601,-0.84059 z m 1.6767,0.49027 c 0.16,-0.25873 0.053,-0.91474 -0.238,-1.45781 -0.4857,-0.9066 -0.399,-0.98364 1.0596,-0.94153 0.8737,0.0252 1.9131,-0.001 2.3097,-0.0589 1.3274,-0.19278 2.404,0.042 2.404,0.52432 0,0.27428 -0.6985,0.36682 -1.6402,0.2173 -0.9277,-0.14729 -1.7777,-0.0384 -1.9565,0.25061 -0.1739,0.28108 -0.5516,0.36565 -0.8395,0.18794 -0.3417,-0.21098 -0.4292,0.0363 -0.2521,0.71267 0.1865,0.71283 0.051,1.03579 -0.4335,1.03579 -0.3875,0 -0.5736,-0.21169 -0.4135,-0.47041 z m -3.1118,-1.33086 c 0,-0.59442 0.209,-1.08076 0.4735,-1.08076 0.6024,0 0.6024,0.50975 0,1.44101 -0.3769,0.58263 -0.4675,0.5137 -0.4735,-0.36025 z m 0.9543,-5.4038 c 0,-0.26419 0.2163,-0.48034 0.4808,-0.48034 0.2644,0 0.4808,0.21615 0.4808,0.48034 0,0.26418 -0.2164,0.48034 -0.4808,0.48034 -0.2645,0 -0.4808,-0.21616 -0.4808,-0.48034 z m -2.8775,-0.75655 c 0.013,-0.78309 0.8277,-1.76811 1.3098,-1.5836 0.2567,0.0982 0.065,0.59471 -0.4252,1.10326 -0.4906,0.50855 -0.8886,0.7247 -0.8846,0.48034 z m 1.6755,-0.20413 c 0.1634,-0.26418 0.5135,-0.48034 0.7779,-0.48034 0.2645,0 0.3471,0.21616 0.1837,0.48034 -0.1635,0.26419 -0.5135,0.48034 -0.778,0.48034 -0.2644,0 -0.3471,-0.21615 -0.1836,-0.48034 z m 2.1636,-1.18577 c 0,-0.39221 -0.286,-0.59578 -0.6442,-0.45848 -0.3543,0.13583 -0.9217,-0.0871 -1.2609,-0.49541 -0.5131,-0.61772 -0.4857,-0.74237 0.1634,-0.74237 0.467,0 0.7801,-0.39694 0.7801,-0.98902 0,-0.54396 0.2069,-0.86127 0.4598,-0.70512 0.2529,0.15614 0.337,0.60365 0.1869,0.99447 -0.1935,0.50355 -0.047,0.62404 0.5018,0.41356 0.4261,-0.16335 0.7747,-0.49003 0.7747,-0.72595 0,-0.23592 0.351,-0.42895 0.7801,-0.42895 0.6148,0 0.6615,0.14272 0.2203,0.6738 -0.4298,0.51741 -0.4156,0.73158 0.061,0.92275 0.3734,0.14965 0.262,0.26409 -0.2792,0.28688 -0.7108,0.0299 -0.7841,0.17777 -0.3483,0.70233 0.4272,0.51426 0.3773,0.73137 -0.2209,0.96068 -1.0857,0.41623 -1.1749,0.38516 -1.1749,-0.40917 z m -4.808,-3.61761 c 0,-0.26418 0.2163,-0.48033 0.4808,-0.48033 0.2644,0 0.4808,0.21615 0.4808,0.48033 0,0.26419 -0.2164,0.48034 -0.4808,0.48034 -0.2645,0 -0.4808,-0.21615 -0.4808,-0.48034 z m 4.824,-0.41164 c -0.01,-0.39664 -0.3158,-0.5369 -0.7817,-0.35827 -0.5108,0.19582 -0.8496,-0.0269 -1.0177,-0.66912 -0.1386,-0.52946 -0.5281,-0.96266 -0.8657,-0.96266 -0.5167,0 -1.1973,-0.98319 -1.1973,-1.72962 0,-0.11552 0.4868,-0.12935 1.0818,-0.0307 0.595,0.0986 0.8113,0.0869 0.4808,-0.0261 -0.7527,-0.25717 -0.7643,-0.74031 -0.035,-1.46844 0.3991,-0.39872 0.7448,-0.4163 1.1749,-0.0598 0.4595,0.38103 0.5914,0.26834 0.5366,-0.45849 -0.04,-0.53004 -0.2441,-0.85785 -0.4536,-0.72847 -0.2096,0.12938 -0.381,-0.006 -0.381,-0.3018 0,-0.29536 -0.1937,-0.41744 -0.4304,-0.27127 -0.4696,0.28992 -1.012,-0.79354 -1.012,-2.02134 0,-0.65477 0.099,-0.63753 0.6482,0.11267 0.3566,0.48713 0.879,0.74325 1.161,0.56915 0.282,-0.1741 0.6222,-0.045 0.7562,0.28687 0.1917,0.47506 0.2515,0.4721 0.2814,-0.0139 0.021,-0.33952 -0.3114,-1.15009 -0.7385,-1.80126 -0.4271,-0.65117 -0.5605,-1.18395 -0.2965,-1.18395 0.264,0 0.6136,-0.37826 0.7768,-0.84059 0.1633,-0.46232 0.4229,-1.11093 0.5771,-1.44134 0.1844,-0.39535 0.021,-0.50148 -0.4771,-0.31042 -0.4421,0.16949 -0.8723,-0.009 -1.0337,-0.42917 -0.1777,-0.46266 -0.8446,-0.69281 -1.8682,-0.64471 -1.0337,0.0486 -1.5167,-0.12062 -1.3777,-0.48259 0.1178,-0.30656 -0.017,-0.70008 -0.2995,-0.87449 -0.2824,-0.1744 -0.5135,-0.095 -0.5135,0.17651 0,0.27149 -0.3246,0.36919 -0.7213,0.21713 -0.3966,-0.15207 -0.7245,-0.63163 -0.7285,-1.06569 -0.01,-0.59161 -0.1054,-0.6348 -0.3991,-0.17251 -0.4216,0.66386 -1.9976,0.30136 -1.9976,-0.45949 0,-0.77904 0.9691,-2.31872 1.4594,-2.31872 0.6795,0 0.5666,1.31951 -0.1372,1.60323 -0.359,0.14474 -0.2622,0.25755 0.2404,0.2802 0.6228,0.0281 0.8414,-0.33648 0.8414,-1.40309 0,-1.71137 0.3028,-1.79314 1.5063,-0.40684 0.6265,0.72169 0.9143,0.83054 0.9526,0.36025 0.03,-0.37066 0.1285,-1.30891 0.2185,-2.08501 0.1165,-1.00375 -0.1217,-1.61081 -0.825,-2.10294 -0.7848,-0.54918 -0.8547,-0.7767 -0.3387,-1.10333 0.4359,-0.27593 0.1158,-0.4139 -0.9715,-0.41883 -1.3872,-0.006 -1.535,0.0968 -1.023,0.71315 0.488,0.58737 0.4619,0.72051 -0.1414,0.72051 -0.407,0 -0.8492,0.27019 -0.9825,0.60042 -0.1449,0.35869 -0.2578,0.26199 -0.2805,-0.24017 -0.041,-0.91645 -0.7657,-1.12689 -1.24,-0.36025 -0.578,0.93437 -1.2684,0.48529 -0.923,-0.60043 0.1891,-0.59441 0.366,-1.46713 0.393,-1.93937 0.063,-1.09391 1.1284,-1.76651 2.8138,-1.77589 0.7273,-0.004 1.3398,-0.16947 1.3613,-0.36761 0.2393,-2.20701 0.1483,-3.00211 -0.3437,-3.00211 -0.3173,0 -0.686,0.27019 -0.8193,0.60042 -0.1334,0.33023 -0.2596,-0.008 -0.2805,-0.75208 -0.021,-0.74388 0.1906,-1.82464 0.47,-2.40169 0.505,-1.04313 0.5025,-1.04295 -0.4377,0.0316 -0.5201,0.59442 -1.1637,1.08076 -1.4303,1.08076 -0.2666,0 -0.9216,0.70619 -1.4556,1.5693 -0.5339,0.86311 -1.4788,2.04611 -2.0998,2.62889 l -1.1289,1.0596 -0.116,-1.0678 c -0.5013,-4.61621 0.2838,-7.23457 1.6251,-5.41911 0.3788,0.51282 0.6888,0.66461 0.6888,0.33732 0,-0.32729 0.5209,-1.07737 1.1576,-1.66684 0.8366,-0.77458 1.1904,-1.66726 1.2759,-3.21935 0.1353,-2.45358 1.6342,-5.3866 4.098,-8.01887 0.9339,-0.99777 2.1226,-2.62469 2.6415,-3.61539 0.5189,-0.99069 1.1554,-1.80126 1.4145,-1.80126 0.8087,0 0.5121,2.56867 -0.4854,4.20295 -0.524,0.85861 -0.7395,1.5611 -0.479,1.5611 0.8134,0 0.5231,1.83323 -0.78,4.9263 l -1.2538,2.976 1.0751,0.73215 c 0.5913,0.40268 1.6423,1.30662 2.3356,2.00876 3.9162,3.96621 4.3129,4.72761 2.4636,4.72761 -0.4401,0 -1.0843,0.53037 -1.4316,1.1786 -0.5368,1.00205 -0.4798,1.91949 0.3807,6.12431 0.5567,2.72014 1.1561,6.07673 1.3322,7.4591 0.176,1.38237 0.6127,2.75601 0.9703,3.05255 0.4755,0.39418 0.5185,0.78512 0.1603,1.45393 -0.406,0.75778 -0.2848,0.99276 0.7061,1.36914 1.4993,0.56946 2.7701,2.46974 3.132,4.68325 0.3531,2.16021 1.6732,3.04515 3.7007,2.48091 1.2498,-0.34779 1.6015,-0.78138 2.1123,-2.60406 0.848,-3.02584 2.1424,-4.5432 3.8757,-4.5432 1.2114,0 1.4096,-0.18409 1.4222,-1.32093 0.01,-0.72651 0.2437,-4.02283 0.5234,-7.32515 0.668,-7.87786 0.687,-10.38711 0.084,-11.14432 -0.273,-0.34318 -0.6048,-1.63829 -0.7374,-2.87801 -0.2529,-2.36394 0.067,-2.7895 2.0974,-2.7895 1.339,0 3.788,-1.93559 3.788,-2.99334 0,-0.49022 -0.776,-2.9602 -1.724,-5.48883 -1.169,-3.11831 -1.566,-4.7548 -1.234,-5.08636 1.008,-1.00685 1.799,0.13272 3.292,4.74307 2.291,7.07117 2.249,6.76118 1.146,8.62936 -0.55,0.93061 -0.999,2.20346 -0.999,2.82856 0,0.62509 -0.544,1.78211 -1.209,2.57115 -1.596,1.89549 -2.227,6.50829 -2.329,17.01674 l -0.08,8.05039 -1.704,2.27688 c -1.0723,1.43148 -2.0386,2.247 -2.6032,2.19642 -0.4939,-0.0443 -2.8999,0.23867 -5.3467,0.6287 -4.2867,0.68332 -4.5195,0.67313 -6.3892,-0.27979 -2.444,-1.24566 -2.8195,-1.23689 -3.929,0.0918 -0.5601,0.67067 -0.9086,0.83344 -0.9185,0.42895 z m -0.4968,-2.25856 c 0,-0.41187 -0.2164,-0.61527 -0.4808,-0.45199 -0.2645,0.16327 -0.4808,0.50026 -0.4808,0.74885 0,0.2486 0.2163,0.45199 0.4808,0.45199 0.2644,0 0.4808,-0.33698 0.4808,-0.74885 z m 5.7696,-2.33904 c 0,-0.64159 -0.34,-1.5062 -0.7555,-1.92135 -0.4156,-0.41515 -0.5778,-0.76139 -0.3606,-0.76942 0.2172,-0.008 0.015,-0.23588 -0.4503,-0.50634 -1.2124,-0.70537 -1.7992,-0.1424 -1.7992,1.72627 0,1.67707 0.8827,2.59428 2.5242,2.62277 0.5744,0.01 0.8414,-0.3556 0.8414,-1.15193 z m 11.745,0.10955 c 0.5139,-0.73291 0.5793,-1.1569 0.2133,-1.38287 -0.3109,-0.19198 -0.026,-0.49779 0.6922,-0.74428 1.1798,-0.40459 1.1918,-0.45215 0.3847,-1.44144 l -0.8353,-1.02304 -1.0201,1.50338 c -1.4365,2.11698 -1.8876,4.14524 -0.9219,4.14524 0.4103,0 1.0795,-0.47564 1.4871,-1.05699 z m -17.0338,-11.91214 c 0,-0.26418 -0.2164,-0.48033 -0.4808,-0.48033 -0.2645,0 -0.4808,0.21615 -0.4808,0.48033 0,0.26419 0.2163,0.48034 0.4808,0.48034 0.2644,0 0.4808,-0.21615 0.4808,-0.48034 z m -3.8464,-0.66911 c 0,-0.10383 -0.3358,-0.31751 -0.7462,-0.47484 -0.4279,-0.16403 -0.6209,-0.0835 -0.4524,0.18878 0.2823,0.45642 1.1986,0.67509 1.1986,0.28606 z m 1.4424,-0.7719 c 0,-0.26418 -0.2164,-0.48034 -0.4808,-0.48034 -0.2645,0 -0.4808,0.21616 -0.4808,0.48034 0,0.26419 0.2163,0.48034 0.4808,0.48034 0.2644,0 0.4808,-0.21615 0.4808,-0.48034 z m 1.9232,-0.21182 c 0,-0.1165 -0.2164,-0.34541 -0.4808,-0.50869 -0.2645,-0.16327 -0.4808,-0.0679 -0.4808,0.21183 0,0.27977 0.2163,0.50868 0.4808,0.50868 0.2644,0 0.4808,-0.0953 0.4808,-0.21182 z m -2.404,-1.44101 c 0,-0.11651 -0.2164,-0.34541 -0.4808,-0.50869 -0.2645,-0.16328 -0.4808,-0.068 -0.4808,0.21182 0,0.27978 0.2163,0.50869 0.4808,0.50869 0.2644,0 0.4808,-0.0953 0.4808,-0.21182 z m -4.3273,-7.04927 c 0,-0.23338 -0.4327,-0.42432 -0.9616,-0.42432 -0.5288,0 -0.9616,0.30399 -0.9616,0.67554 0,0.43905 0.3367,0.58759 0.9616,0.42431 0.5289,-0.13817 0.9616,-0.44216 0.9616,-0.67553 z m 3.4287,-3.42142 c -0.6572,-0.72376 -1.3157,-1.19532 -1.4632,-1.04791 -0.1476,0.14741 0.2694,0.67386 0.9265,1.1699 0.9565,0.72195 1.075,1.02207 0.5939,1.50423 -0.3306,0.33129 -0.601,0.44343 -0.601,0.2492 0,-0.19422 -0.4328,-0.12177 -0.9616,0.161 -0.5289,0.28278 -0.9617,0.74916 -0.9617,1.0364 0,0.3571 0.2146,0.34438 0.6784,-0.0402 0.512,-0.42449 0.7627,-0.42633 1.0218,-0.008 0.2506,0.40519 0.4548,0.37908 0.7566,-0.0968 0.2989,-0.47123 0.4329,-0.31916 0.484,0.54914 0.055,0.93932 0.1415,0.83471 0.396,-0.48034 0.2683,-1.38677 0.116,-1.91163 -0.8697,-2.9971 z m -1.5054,-6.12932 c 0,-0.26419 -0.2292,-0.48034 -0.5092,-0.48034 -0.2801,0 -0.3755,0.21615 -0.2121,0.48034 0.1635,0.26418 0.3926,0.48034 0.5092,0.48034 0.1166,0 0.2121,-0.21616 0.2121,-0.48034 z m -1.3443,-3.48245 c 0.091,-0.59442 0.4304,-1.02672 0.7547,-0.96068 0.3242,0.0661 0.5896,-0.11674 0.5896,-0.40618 0,-0.28945 0.4821,-1.20271 1.0714,-2.02946 l 1.0714,-1.50319 -1.7557,1.33779 c -0.9656,0.73578 -1.9886,2.00552 -2.2734,2.82164 -0.6284,1.80088 -0.6292,1.82084 -0.07,1.82084 0.2461,0 0.5216,-0.48634 0.6124,-1.08076 z m 2.7867,26.05833 c 0,-0.26418 0.2291,-0.48034 0.5091,-0.48034 0.2801,0 0.3755,0.21616 0.2121,0.48034 -0.1635,0.26419 -0.3926,0.48034 -0.5092,0.48034 -0.1166,0 -0.212,-0.21615 -0.212,-0.48034 z m -8.6545,-6.75308 c 0,-0.27977 0.2164,-0.37509 0.4808,-0.21182 0.2645,0.16328 0.4808,0.39219 0.4808,0.50869 0,0.1165 -0.2163,0.21182 -0.4808,0.21182 -0.2644,0 -0.4808,-0.22891 -0.4808,-0.50869 z m -0.4734,-1.53275 c 0.011,-0.88147 0.852,-2.06346 1.2124,-1.70347 0.4204,0.41999 -0.2104,2.3039 -0.7714,2.3039 -0.2466,0 -0.4451,-0.27019 -0.441,-0.60043 z m -1.7416,-3.52173 c 0.1605,-0.41789 0.2918,-0.85019 0.2918,-0.96068 0,-0.11048 0.2164,-0.20088 0.4808,-0.20088 0.2644,0 0.4808,0.4323 0.4808,0.96067 0,0.56214 -0.3205,0.96068 -0.7726,0.96068 -0.5071,0 -0.6724,-0.26121 -0.4808,-0.75979 z m 2.6958,0.27945 c 0,-0.26418 0.2164,-0.48034 0.4808,-0.48034 0.2645,0 0.4808,0.21616 0.4808,0.48034 0,0.26419 -0.2163,0.48034 -0.4808,0.48034 -0.2644,0 -0.4808,-0.21615 -0.4808,-0.48034 z"
         id="path1" /></g></g></svg>
