<?xml version="1.0" encoding="UTF-8" standalone="no"?>
<!-- Created with Inkscape (http://www.inkscape.org/) -->

<svg
   width="61.221001mm"
   height="62.240601mm"
   viewBox="0 0 61.221 62.240601"
   version="1.1"
   id="svg1"
   xml:space="preserve"
   xmlns="http://www.w3.org/2000/svg"
   xmlns:svg="http://www.w3.org/2000/svg"><defs
     id="defs1" /><g
     id="layer1"
     transform="translate(1472.671,3650.7208)"><g
       id="g1172"
       transform="matrix(0.26458333,0,0,0.26458333,-4496.9537,-3728.8205)"><path
         style="fill:#000000"
         d="m 11549.475,482.40379 c -1.974,-0.51398 -2.833,-2.71105 -1.723,-4.40516 0.45,-0.68547 1.018,-1.2463 1.262,-1.2463 0.244,0 3.307,-2.65065 6.805,-5.89034 3.498,-3.2397 7.029,-6.35839 7.845,-6.93043 0.817,-0.57205 2.818,-1.95451 4.448,-3.07214 1.63,-1.11764 2.956,-2.16426 2.948,-2.32584 -0.02,-0.32793 -5.194,-3.66341 -6.867,-4.42534 -0.591,-0.26911 -1.586,-1.23474 -2.211,-2.14583 -1.219,-1.77776 -1.756,-1.89684 -5.343,-1.18468 -3.164,0.62844 -11.128,-0.28849 -15.157,-1.74528 -4.916,-1.77702 -5.325,-1.82944 -6.077,-0.77736 -0.363,0.50819 -2.284,2.30397 -4.269,3.99064 -1.985,1.68667 -3.772,3.32834 -3.971,3.64816 -0.199,0.31982 -1.473,1.9097 -2.83,3.53306 -2.169,2.59298 -2.65,2.93382 -3.963,2.80559 -1.213,-0.11841 -1.718,-0.55447 -2.676,-2.30977 -0.649,-1.19009 -3.453,-4.39514 -6.23,-7.12233 -4.201,-4.1258 -5.236,-4.91159 -6.163,-4.67907 -0.613,0.1537 -1.115,0.47855 -1.115,0.72189 0,0.24334 -0.866,1.44247 -1.924,2.66473 -1.059,1.22226 -1.925,2.72358 -1.925,3.33628 0,2.4583 -2.937,2.67921 -3.773,0.28376 -0.375,-1.07354 -0.248,-1.71372 0.65,-3.2943 0.614,-1.079 1.685,-2.56742 2.38,-3.30758 0.696,-0.74017 2.009,-2.45665 2.917,-3.81441 0.909,-1.35775 1.998,-2.60116 2.421,-2.76313 1.161,-0.44532 2.547,0.51448 3.283,2.27278 0.375,0.8981 2.018,2.65616 3.825,4.09289 1.743,1.38521 4.28,3.91465 5.638,5.62099 1.359,1.70634 2.674,3.10243 2.921,3.10243 0.639,0 5.189,-4.8483 5.516,-5.87678 0.149,-0.47028 0.419,-0.85531 0.6,-0.85563 0.312,-5.6e-4 1.55,-0.99491 4.569,-3.66955 1.55,-1.37311 1.491,-2.19435 -0.186,-2.58791 -0.642,-0.15072 -1.43,-0.81932 -1.752,-1.48579 -0.497,-1.03026 -0.408,-1.63939 0.59,-4.06684 0.646,-1.5703 1.18,-3.09364 1.186,-3.38522 0,-0.29157 1.106,-2.88813 2.444,-5.77013 1.338,-2.882 2.611,-5.67277 2.83,-6.2017 0.502,-1.21384 3.268,-6.67433 4.506,-8.89562 3.719,-6.67355 8.978,-16.88178 8.991,-17.45009 0,-0.20906 0.483,-1.02197 1.063,-1.80647 1.581,-2.13747 0.651,-2.40735 -3.702,-1.07429 -4.929,1.50919 -15.711,5.44577 -16.433,5.99967 -0.758,0.58167 -1.326,12.40342 -0.762,15.88635 0.378,2.34085 0.324,2.86736 -0.361,3.48612 -0.443,0.40087 -1.08,0.72884 -1.415,0.72884 -0.335,0 -1.205,0.35147 -1.933,0.78105 -1.226,0.72389 -1.415,0.72123 -2.572,-0.0363 -1.479,-0.96841 -1.322,-1.65439 0.631,-2.76848 1.679,-0.95811 2.565,-2.90688 2.248,-4.94852 -0.124,-0.7934 -0.07,-3.82272 0.131,-6.73183 0.2,-2.98127 0.164,-5.80565 -0.08,-6.47263 -0.766,-2.07616 -0.13,-3.2254 1.974,-3.5615 1.039,-0.166 2.936,-0.76309 4.217,-1.32687 1.28,-0.56378 3.086,-1.1922 4.012,-1.39649 1.532,-0.33787 3.417,-0.9455 6.015,-1.93935 0.53,-0.20246 2.154,-0.73804 3.609,-1.19018 5.858,-1.81943 6.761,-2.2585 8.177,-3.97569 0.796,-0.9647 1.447,-2.01123 1.447,-2.32563 0,-0.3144 0.167,-0.64376 0.37,-0.73192 0.747,-0.32412 3.369,-5.01628 3.648,-6.53015 0.261,-1.41228 0.14,-1.6259 -1.263,-2.23643 -0.854,-0.37125 -2.138,-1.23736 -2.854,-1.9247 -0.716,-0.68733 -1.414,-1.24969 -1.551,-1.24969 -0.136,0 -0.583,1.15436 -0.994,2.56526 -1.195,4.1092 -4.778,6.74169 -9.205,6.76428 -3.039,0.0155 -5.601,-1.71679 -6.959,-4.7057 -1.864,-4.10028 -0.826,-8.34393 2.581,-10.55121 3.147,-2.03919 4.884,-2.44993 6.336,-1.49894 0.676,0.4428 1.23,1.20453 1.23,1.69274 0,1.15197 -1.825,2.84555 -3.412,3.16657 -1.258,0.25451 -2.844,2.32175 -2.844,3.70677 0,1.32814 1.589,4.13091 2.508,4.42214 0.521,0.16542 1.763,-0.22922 2.999,-0.95291 1.617,-0.94681 2.274,-1.7134 2.814,-3.28277 1.047,-3.04326 1.833,-6.62929 1.552,-7.08289 -0.136,-0.21951 0.09,-2.1697 0.5,-4.33376 0.783,-4.12648 2.477,-7.22231 4.74,-8.66252 0.623,-0.3967 1.903,-1.3312 2.843,-2.07666 1.21,-0.95846 2.843,-1.57831 5.577,-2.11663 l 3.867,-0.76124 3.23,1.58904 c 2.724,1.33993 5.941,3.81484 5.941,4.57012 0,0.11538 0.704,1.20747 1.564,2.42687 1.477,2.0929 1.564,2.45055 1.554,6.38525 0,3.84231 -0.131,4.36717 -1.564,6.71376 -0.854,1.40007 -1.554,2.74144 -1.554,2.9808 0,0.8489 -3.271,2.91146 -5.815,3.66632 -1.564,0.46416 -3.591,0.68213 -5.145,0.55335 -2.099,-0.17397 -2.646,-0.0582 -3.02,0.63905 -0.663,1.23877 -0.559,2.71373 0.281,3.99574 0.405,0.61809 0.817,1.74648 0.915,2.50752 0.326,2.52728 0.826,5.22116 1.105,5.95174 0.323,0.84417 0.316,0.80843 1.324,6.73183 0.427,2.51241 1.138,6.62363 1.581,9.13605 0.442,2.51241 0.763,5.19357 0.713,5.95812 -0.187,2.85959 -0.152,2.86952 10.228,2.90504 l 9.489,0.0325 0.755,1.92338 c 0.415,1.05786 0.919,2.03597 1.119,2.17359 0.774,0.53094 1.289,2.69078 0.835,3.50164 -0.718,1.28048 -1.918,0.9711 -4.246,-1.09449 -2.402,-2.13011 -2.748,-2.20928 -11.683,-2.6735 -4.09,-0.21253 -5.654,-0.14183 -5.654,0.25568 0,1.24565 1.637,9.33272 3.172,15.67375 1.757,7.25855 1.911,8.36936 1.159,8.36936 -0.264,0 -0.481,0.34803 -0.481,0.77341 0,1.03321 -4.098,4.74569 -6.367,5.76811 -0.997,0.44946 -1.813,0.98308 -1.813,1.18581 0,0.20273 0.812,0.85299 1.804,1.44502 0.993,0.59203 2.454,1.68061 3.248,2.41907 0.794,0.73846 2.225,1.66843 3.181,2.06661 3.111,1.29638 3.72,5.08421 0.886,5.50141 -1.369,0.20143 -5.134,2.56664 -8.398,5.27494 -6.652,5.52108 -12.752,10.93977 -12.752,11.32935 0,0.24741 1.657,0.32357 3.819,0.17553 3.317,-0.22722 3.924,-0.14402 4.629,0.63465 0.987,1.08965 0.626,2.24171 -0.881,2.81454 -1.482,0.56274 -10.57,0.85989 -12.325,0.40298 z m 10.834,-35.90957 c 2.998,-0.0427 7.094,-1.76537 9.011,-3.79037 1.188,-1.25379 1.331,-1.69842 1.062,-3.29487 -0.171,-1.01502 -0.405,-2.60282 -0.521,-3.52844 -0.115,-0.92563 -0.626,-3.63038 -1.134,-6.01056 -0.509,-2.38018 -1.166,-6.04384 -1.461,-8.14148 -0.295,-2.09763 -0.658,-3.93686 -0.808,-4.08717 -0.293,-0.29333 -9.597,-0.2724 -11.975,0.0269 -1.24,0.15617 -1.566,-0.0624 -2.406,-1.61536 -0.751,-1.38884 -0.852,-1.98835 -0.445,-2.64464 0.29,-0.46678 0.757,-1.28145 1.04,-1.81038 0.525,-0.98428 2.555,-7.49289 3.496,-11.20902 0.466,-1.84231 0.663,-2.05633 1.773,-1.92338 2.358,0.28257 2.384,1.23572 0.213,7.85472 -1.107,3.37798 -1.893,6.26234 -1.745,6.40968 0.147,0.14734 2.228,0.38602 4.623,0.5304 3.37,0.2031 4.437,0.11548 4.719,-0.38717 0.528,-0.94363 -2.583,-18.73496 -3.646,-20.84577 -0.359,-0.71414 -0.656,-1.90423 -0.66,-2.64464 -0.01,-1.97374 -0.509,-3.51 -1.14,-3.51 -0.515,0 -2.767,3.50116 -4.02,6.25098 -2.655,5.82617 -13.495,27.23478 -16.139,31.87301 -0.721,1.2656 -1.311,2.49049 -1.311,2.722 0,0.23151 -0.741,2.00897 -1.646,3.94991 -2.18,4.67362 -3.705,9.30971 -3.36,10.20952 0.154,0.39932 1.072,0.98423 2.041,1.2998 0.969,0.31557 2.374,1.08343 3.122,1.70635 0.749,0.62293 1.94,1.25861 2.647,1.41263 0.707,0.15402 1.936,0.50681 2.73,0.78398 2.071,0.72288 8.251,1.15507 11.067,0.77398 1.324,-0.17905 3.516,-0.34133 4.873,-0.36064 z m 9.287,-74.02616 c 1.456,-0.4064 1.901,-1.50155 0.611,-1.50155 -0.522,0 -1.421,-0.38133 -1.997,-0.84741 -0.888,-0.71837 -0.972,-1.04581 -0.551,-2.15037 0.682,-1.79328 2.374,-2.11636 4.747,-0.90646 1.806,0.92059 1.964,0.93027 2.582,0.15837 2.146,-2.6787 2.628,-6.65132 1.093,-9.01502 -2.008,-3.092 -5.404,-5.39105 -8.593,-5.81615 -2.658,-0.35433 -4.301,0.39103 -5.986,2.71598 -0.784,1.08141 -2.122,2.44189 -2.973,3.02328 -1.899,1.29657 -3.132,4.7038 -2.644,7.30413 0.887,4.72572 8.322,8.54022 13.711,7.0352 z m 0.156,-9.99453 c -0.766,-0.30892 -0.783,-2.67332 -0.02,-3.43197 0.919,-0.91807 2.671,-0.67096 3.486,0.49167 0.901,1.28557 0.978,2.763 0.147,2.81762 -0.331,0.0217 -1.143,0.11278 -1.804,0.20229 -0.662,0.0895 -1.474,0.0537 -1.805,-0.0796 z m -46.797,80.82003 c 0,-0.84914 1.036,-0.70126 1.334,0.19033 0.104,0.31406 -0.153,0.57101 -0.572,0.57101 -0.419,0 -0.762,-0.34261 -0.762,-0.76134 z"
         id="path2" /></g></g></svg>
