<?xml version="1.0" encoding="UTF-8" standalone="no"?>
<!-- Created with Inkscape (http://www.inkscape.org/) -->

<svg
   width="231.38646"
   height="235.24007"
   viewBox="0 0 61.221 62.240601"
   version="1.1"
   id="svg1"
   xml:space="preserve"
   xmlns="http://www.w3.org/2000/svg"
   xmlns:svg="http://www.w3.org/2000/svg"><defs
     id="defs1" /><g
     id="g1331"
     transform="matrix(0.26458333,0,0,0.26458333,-3517.1733,-15.843241)"><path
       style="fill:#000000"
       d="m 13475.919,266.34716 c -2.268,-2.37414 -4.414,-4.85871 -4.769,-5.52127 -0.355,-0.66256 -1.417,-1.77929 -2.361,-2.48162 -0.943,-0.70233 -3.516,-2.78956 -5.716,-4.63829 -2.2,-1.84872 -5.983,-4.60505 -8.406,-6.12517 -4.072,-2.55387 -4.471,-2.7061 -5.248,-2.00372 -0.783,0.70821 -0.84,0.65894 -0.84,-0.72117 0,-1.18872 -0.736,-2.25895 -3.723,-5.41857 -2.048,-2.16551 -5.061,-5.9095 -6.696,-8.32 -1.635,-2.41049 -3.148,-4.60165 -3.363,-4.86925 -0.214,-0.26759 -1.678,-2.21296 -3.253,-4.32304 -1.575,-2.11007 -3.52,-4.61323 -4.323,-5.56255 -0.804,-0.94933 -3.298,-4.36769 -5.544,-7.59634 -5.599,-8.0492 -9.902,-13.83583 -12.048,-16.20081 -0.991,-1.09265 -2.344,-2.82187 -3.006,-3.8427 -0.662,-1.02084 -1.707,-2.42395 -2.322,-3.11802 -0.616,-0.69408 -3.713,-4.77806 -6.884,-9.07551 -3.17,-4.29746 -6.845,-9.10563 -8.166,-10.68482 -1.321,-1.5792 -3.159,-3.98864 -4.083,-5.35431 -1.727,-2.54966 -4.791,-6.50389 -6.361,-8.20774 -0.487,-0.52837 -1.687,-2.06039 -2.667,-3.4045 -0.979,-1.3441 -2.483,-3.28947 -3.342,-4.32304 -0.858,-1.03357 -2.664,-3.23452 -4.013,-4.89101 -1.348,-1.65648 -2.808,-3.20501 -3.243,-3.44118 -0.435,-0.23617 -1.223,-1.25699 -1.752,-2.26848 -0.913,-1.74922 -1.745,-2.93855 -2.939,-4.20359 -0.295,-0.31308 -0.677,-1.00975 -0.848,-1.54816 -0.17,-0.53841 -1.833,-2.79793 -3.695,-5.02114 -1.861,-2.22322 -3.793,-4.82393 -4.293,-5.77935 -0.5,-0.95542 -1.443,-2.37204 -2.096,-3.14805 -3.065,-3.64221 -6.56,-14.487057 -5.2,-16.138642 0.268,-0.325261 0.64,-1.619425 0.827,-2.87592 0.219,-1.472815 0.907,-3.026827 1.935,-4.37367 3.46,-4.530713 7.338,-4.729726 15.589,-0.79994 0.727,0.346174 1.073,0.825051 4.563,6.29901 3.868,6.065712 8.711,13.044032 12.932,18.631462 1.871,2.47677 3.834,5.19406 4.362,6.03843 1.363,2.17769 8.079,11.13654 11.77,15.70016 1.717,2.12357 3.833,4.85117 4.702,6.06132 2.874,4.00215 6.455,8.48568 9.111,11.40764 2.58,2.83787 8.856,11.4524 14.173,19.45369 1.492,2.24558 3.464,4.86224 4.382,5.8148 0.918,0.95256 2.694,3.33024 3.947,5.28372 1.253,1.95348 3.484,5.08772 4.959,6.96497 1.475,1.87725 4.247,5.55183 6.161,8.16574 1.913,2.61391 4.075,5.42256 4.804,6.24145 0.728,0.81888 2.297,3.04915 3.486,4.95615 1.189,1.907 3.164,4.71137 4.39,6.23192 1.226,1.52056 2.714,3.72141 3.306,4.89078 0.592,1.16937 1.534,2.77458 2.094,3.56714 0.56,0.79255 1.513,3.38638 2.118,5.76405 0.605,2.37767 1.276,4.98925 1.493,5.80351 0.216,0.81425 1.396,3.66996 2.623,6.34602 1.227,2.67606 2.233,5.03598 2.236,5.24427 0,0.34515 1.927,4.27513 3.239,6.6231 0.618,1.10803 3.345,7.03689 4.923,10.70298 0.593,1.37847 1.268,2.50631 1.499,2.50631 0.232,0 0.421,0.43231 0.421,0.96068 0,0.52837 -0.162,0.95577 -0.36,0.94978 -0.198,-0.006 -2.216,-1.95337 -4.485,-4.32751 z m 1.002,-2.35798 c 0,-0.24859 -0.216,-0.58558 -0.48,-0.74885 -0.264,-0.16328 -0.48,0.0401 -0.48,0.45199 0,0.41187 0.216,0.74885 0.48,0.74885 0.264,0 0.48,-0.20339 0.48,-0.45199 z m -1.921,-3.31066 c 0,-0.62543 -0.571,-1.04138 -1.036,-0.75431 -0.497,0.30702 -0.07,1.1546 0.584,1.1546 0.248,0 0.452,-0.18013 0.452,-0.40029 z m -1.441,-2.4141 c 0,-0.38513 -1.427,-3.60988 -4.918,-11.11542 -0.799,-1.7172 -1.727,-3.44642 -2.063,-3.8427 -0.335,-0.39628 -0.831,-1.47704 -1.101,-2.40169 -1.451,-4.96961 -2.411,-8.58953 -2.675,-10.0871 -0.509,-2.88585 -4.135,-9.44274 -6.83,-12.35095 -0.618,-0.66669 -1.689,-2.17584 -2.379,-3.35367 -1.866,-3.18358 -5.275,-7.96456 -6.415,-8.99606 -0.551,-0.49837 -1.001,-1.17038 -1.001,-1.49337 0,-0.32298 -0.347,-0.87487 -0.771,-1.22641 -0.423,-0.35154 -2.273,-2.70164 -4.111,-5.22245 -1.838,-2.5208 -4.2,-5.66404 -5.25,-6.98497 -1.05,-1.32093 -2.573,-3.54909 -3.386,-4.95146 -0.812,-1.40238 -2.61,-3.78005 -3.995,-5.28372 -1.385,-1.50367 -3.456,-4.24701 -4.604,-6.09631 -1.147,-1.8493 -2.531,-3.91659 -3.075,-4.59397 -1.319,-1.64235 -2.521,-3.29556 -3.526,-4.85069 -1.983,-3.06887 -6.457,-9.06237 -7.017,-9.39976 -0.623,-0.37574 -7.348,-8.82038 -18.18,-22.82988 -0.457,-0.59167 -1.011,-1.29311 -1.23,-1.55875 -0.219,-0.26564 -1.538,-2.04889 -2.93,-3.96279 -1.392,-1.91389 -2.723,-3.47981 -2.957,-3.47981 -0.235,0 -1.288,1.1348 -2.34,2.52177 -2.384,3.14302 -3.559,4.03835 -11.059,8.42894 -0.565,0.33118 -0.435,0.74657 0.721,2.2922 0.776,1.03826 1.645,2.10389 1.93,2.36807 0.285,0.26419 1.206,1.58387 2.047,2.93264 0.841,1.34876 1.959,2.84128 2.484,3.31672 0.525,0.47544 0.955,1.31236 0.955,1.85983 0,0.9544 -0.05,0.94638 -1.185,-0.19453 -1.165,-1.17008 -4.094,-5.22517 -7.019,-9.71592 -1.095,-1.6816 -1.791,-2.28161 -2.646,-2.28161 -1.566,0 -1.462,0.53906 0.522,2.71749 0.924,1.01515 3.412,4.11532 5.528,6.88927 8.293,10.87209 9.376,12.25409 9.724,12.40873 0.198,0.0881 0.361,0.39552 0.361,0.68324 0,0.28772 1.047,1.72874 2.328,3.20226 1.28,1.47351 4.115,5.16487 6.298,8.203 2.184,3.03814 4.465,6.06427 5.07,6.72474 0.605,0.66046 2.295,2.82198 3.756,4.80338 1.461,1.98139 2.957,3.92676 3.324,4.32304 0.367,0.39628 1.182,1.47704 1.812,2.40169 0.629,0.92465 2.143,2.87002 3.363,4.32304 1.221,1.45302 3.826,4.87528 5.788,7.60501 8.385,11.66109 11.739,16.20747 12.465,16.89222 1.133,1.06981 6.211,7.9264 9.359,12.63689 2.113,3.16324 4.599,6.3153 5.524,7.00458 0.925,0.68928 1.439,0.92901 1.144,0.53273 -5.045,-6.75912 -10.635,-14.49151 -12.677,-17.53234 -1.418,-2.11348 -3.781,-5.38716 -5.251,-7.27484 -6.026,-7.74172 -13.48,-18.46626 -13.48,-19.39527 0,-0.25794 0.324,-0.46898 0.72,-0.46898 0.397,0 0.721,0.21394 0.721,0.47542 0,0.71478 4.137,7.05154 6.79,10.40029 1.285,1.62258 2.337,3.09404 2.337,3.26993 0,0.17588 1.275,1.83394 2.833,3.68458 1.558,1.85063 3.649,4.70221 4.646,6.33683 0.998,1.63462 2.912,4.41946 4.253,6.18852 1.342,1.76906 3.953,5.31332 5.802,7.87614 1.85,2.56282 4.058,5.45656 4.908,6.43053 1.106,1.26709 1.398,1.91832 1.027,2.28919 -0.603,0.60291 -0.15,1.5627 0.737,1.5627 0.336,0 0.593,-0.48634 0.572,-1.08076 -0.03,-0.8191 0.34,-1.19203 1.523,-1.54035 1.862,-0.54793 1.976,-1.4242 0.48,-3.67634 -0.595,-0.89547 -1.513,-2.46209 -2.041,-3.48138 -0.529,-1.0193 -1.649,-2.42563 -2.489,-3.12519 -2.194,-1.82534 -4.656,-5.36114 -4.112,-5.90498 0.277,-0.27741 1.218,0.57175 2.469,2.22826 1.111,1.47207 2.208,2.56067 2.437,2.41913 0.419,-0.25903 1.394,0.53752 2.525,2.06449 0.648,0.87397 6.653,4.89205 7.311,4.89205 0.773,0 -0.254,-3.86676 -1.659,-6.24974 -2.412,-4.09008 -1.869,-4.33927 2.674,-1.22854 1.827,1.25038 2.889,2.26453 2.576,2.45826 -0.294,0.18138 -1.179,-0.14701 -1.967,-0.72976 -1.791,-1.3239 -2.291,-0.90921 -1.176,0.97667 1.037,1.7566 1.612,6.41959 0.849,6.89116 -0.564,0.34858 -1.98,-0.25828 -3.035,-1.30103 -1.035,-1.02183 -4.41,-3.21019 -4.623,-2.99709 -0.108,0.10789 0.704,1.85589 1.805,3.88445 2.211,4.07608 2.244,5.1533 0.145,4.7336 -0.998,-0.19972 -1.592,-0.003 -2.28,0.75698 -1.292,1.42762 -0.697,2.1948 3.773,4.87074 3.589,2.14795 13.526,9.83054 15.388,11.89654 0.893,0.9911 3.649,1.4462 3.649,0.60264 z m -24.383,-40.76073 c -1.081,-1.52762 -3.074,-4.07441 -4.43,-5.65952 -2.123,-2.48177 -3.127,-3.95358 -6.015,-8.81671 -1.145,-1.92764 -9.179,-12.37556 -9.955,-12.94582 -0.47,-0.34522 -0.854,-0.82909 -0.854,-1.07527 0,-0.24619 -0.378,-0.90055 -0.841,-1.45414 -0.462,-0.55359 -1.327,-1.58278 -1.921,-2.28709 -0.594,-0.70432 -1.08,-1.43147 -1.081,-1.61589 0,-0.18443 -1.042,-1.58941 -2.314,-3.1222 -2.264,-2.72575 -6.34,-8.19932 -8.735,-11.72895 -0.661,-0.97339 -2.881,-3.79075 -4.935,-6.26079 -5.787,-6.96143 -6.62,-7.9872 -8.443,-10.40237 -0.936,-1.2399 -3.884,-4.74012 -6.551,-7.77826 -5.08,-5.78612 -10.816,-13.18966 -10.816,-13.95936 0,-0.24793 0.162,-0.4439 0.361,-0.4355 0.748,0.0318 1.88,1.29113 4.085,4.54794 1.252,1.8493 2.98,4.15891 3.839,5.13248 0.86,0.97356 2.536,2.87861 3.725,4.23343 1.189,1.35482 2.518,2.86042 2.955,3.34578 0.436,0.48537 1.937,2.36299 3.336,4.17249 5.852,7.56854 9.048,11.51646 10.112,12.49029 0.622,0.569 1.625,1.75784 2.228,2.64186 2.944,4.31516 7.833,10.89659 12.61,16.97814 2.905,3.6986 5.873,7.59188 6.596,8.65172 0.723,1.05985 2.662,3.69101 4.31,5.84701 1.648,2.15601 3.738,5.1796 4.646,6.71909 0.907,1.53949 3.184,4.63637 5.059,6.88195 4.781,5.72483 6.048,7.62367 5.472,8.19946 -0.316,0.31676 -1.14,-0.45818 -2.443,-2.29977 z m -10.686,-3.71396 c 0,-0.75428 -1.289,-2.6155 -7.926,-11.44027 -2.378,-3.16183 -5.335,-7.14713 -6.572,-8.85621 -1.237,-1.70908 -3.398,-4.35966 -4.804,-5.89019 -1.405,-1.53053 -3.363,-3.83542 -4.35,-5.12199 -0.987,-1.28656 -2.501,-3.11583 -3.363,-4.06502 -3.092,-3.40437 -4.21,-4.75585 -4.21,-5.09198 0,-0.18785 -0.691,-1.05433 -1.535,-1.92551 -1.389,-1.43299 -1.44,-1.58397 -0.536,-1.58397 0.55,0 1.35,0.53427 1.778,1.18725 0.428,0.65299 1.696,2.24333 2.818,3.53409 1.121,1.29076 2.364,2.7559 2.76,3.25587 0.397,0.49998 1.573,1.98981 2.614,3.31074 1.041,1.32093 2.906,3.48245 4.146,4.80338 2.224,2.36951 5.666,6.78166 12.861,16.48787 9.24,12.46341 9.017,12.09223 7.28,12.09223 -0.528,0 -0.961,-0.31333 -0.961,-0.69629 z m -35.989,-36.24298 c -1.153,-1.6915 -3.209,-4.3934 -4.568,-6.00422 -1.359,-1.61083 -3.753,-4.54992 -5.321,-6.53131 -2.633,-3.32799 -4.969,-6.04754 -7.102,-8.268 -0.472,-0.4914 -0.718,-1.11946 -0.547,-1.39567 0.413,-0.66847 2.251,1.135 6.033,5.91951 3.101,3.92198 8.099,10.02961 8.567,10.46889 2.076,1.9469 5.392,7.09904 5.198,8.07414 -0.11,0.54866 -0.843,-0.18559 -2.26,-2.26334 z m -4.824,-16.01798 c -1.091,-1.38698 -2.668,-3.36317 -3.505,-4.39154 -0.837,-1.02837 -2.07,-2.58126 -2.741,-3.45088 -2.681,-3.4756 -9.323,-11.22401 -12.733,-14.85355 -3.494,-3.71948 -4.085,-4.56321 -3.197,-4.56321 1.003,0 12.802,13.11216 16.795,18.66403 0.883,1.22687 3.193,4.09986 5.134,6.38443 3.173,3.7357 3.719,4.73249 2.59,4.73249 -0.197,0 -1.252,-1.1348 -2.343,-2.52177 z m -24.759,-28.95857 c 5.94,-2.82178 11.973,-9.22592 10.665,-11.32035 -0.312,-0.50054 -0.807,-0.91006 -1.1,-0.91006 -0.488,0 -2.932,2.62461 -5.483,5.88799 -1.347,1.7235 -5.159,3.48765 -9.338,4.32245 -1.834,0.36627 -3.402,0.86825 -3.484,1.1155 -0.08,0.24726 0.412,1.05502 1.098,1.79504 1.51,1.62821 2.609,1.50008 7.642,-0.89057 z m -7.927,-3.35068 c 0,-0.5706 -1.383,-2.60465 -4.203,-6.18193 -1.651,-2.09453 -3.002,-3.96504 -3.002,-4.15669 0,-0.73982 -3.323,-2.84942 -4.049,-2.57075 -0.973,0.3734 -0.978,1.14761 0,1.14761 0.874,0 3.132,2.30914 4.934,5.04355 2.701,4.10085 5.031,6.9649 5.665,6.9649 0.365,0 0.663,-0.11101 0.663,-0.24669 z m 0.809,-4.68606 c -1.634,-2.18497 -3.685,-4.75363 -4.558,-5.70814 -0.873,-0.95451 -1.846,-2.08096 -2.161,-2.50323 -0.376,-0.50164 -0.804,-0.62321 -1.236,-0.35074 -0.529,0.33399 -0.368,0.83425 0.81,2.51281 0.809,1.15269 2.146,2.85233 2.97,3.77698 0.825,0.92465 2.378,2.9174 3.453,4.42833 1.636,2.30084 2.095,2.67157 2.823,2.28191 0.782,-0.41886 0.573,-0.86131 -2.101,-4.43792 z m 5.436,2.87859 c 0,-0.33722 -1.206,-2.12048 -2.68,-3.96278 -1.473,-1.84231 -3.557,-4.7006 -4.63,-6.35177 -2.007,-3.0886 -2.71,-3.52076 -3.73,-2.29248 -0.484,0.58343 -0.328,0.92895 0.877,1.943 0.807,0.67835 2.274,2.35843 3.262,3.7335 2.642,3.67907 5.951,7.54367 6.458,7.54367 0.244,0 0.443,-0.27591 0.443,-0.61314 z m 3.623,-0.85983 c 0.174,-0.28176 0.01,-0.76811 -0.36,-1.08076 -0.371,-0.31266 -1.227,-1.43307 -1.902,-2.48982 -0.674,-1.05674 -2.18,-3.00211 -3.346,-4.32304 -1.166,-1.32093 -2.721,-3.21226 -3.455,-4.20295 -1.262,-1.70423 -2.726,-2.39984 -2.726,-1.29537 0,0.71965 3.959,6.58087 5.982,8.85544 0.937,1.05386 1.704,2.05143 1.704,2.21683 0,0.1654 0.448,0.87025 0.996,1.56634 1.02,1.29699 2.543,1.66618 3.107,0.75333 z m 1.906,-1.8955 c 0.366,-0.59343 -5.462,-9.38956 -8.242,-12.43797 -1.602,-1.75757 -2.135,-2.0861 -2.618,-1.61551 -0.813,0.79267 -0.111,2.06511 3.357,6.08154 1.482,1.71632 3.56,4.31602 4.616,5.77712 1.978,2.7336 2.369,3.03147 2.887,2.19482 z m 2.15,-2.996 c 0,-0.33024 -0.491,-1.38553 -1.081,-2.34511 -1.233,-2.00511 -4.794,-7.26468 -5.16,-7.62191 -0.135,-0.13209 -0.841,-1.15881 -1.569,-2.2816 -1.427,-2.20185 -2.437,-2.56431 -3.196,-1.14704 -0.379,0.70837 -0.221,1.13296 0.761,2.04143 0.682,0.63088 1.782,1.99693 2.445,3.03569 4.165,6.52998 7.827,10.43606 7.8,8.31854 z m 2.228,-2.50156 c 0.152,-0.39711 -0.644,-1.9048 -1.84,-3.48245 -1.16,-1.53019 -3.395,-4.77588 -4.967,-7.21264 -2.768,-4.28944 -3.648,-5.0246 -3.978,-3.32464 -0.237,1.22417 8.949,14.72002 10.02,14.72002 0.273,0 0.617,-0.31513 0.765,-0.70029 z m -24.734,-4.64223 c 3.304,-0.70852 10.46,-5.71359 10.523,-7.36058 0.01,-0.27841 0.66,-1.25456 1.442,-2.16923 1.499,-1.75379 1.804,-3.28611 0.845,-4.24512 -0.904,-0.904069 -1.259,-0.70691 -2.261,1.25613 -2.442,4.78588 -7.614,8.8315 -12.574,9.83534 -2.497,0.50531 -3.084,0.79856 -3.084,1.54141 0,0.56923 0.456,1.04413 1.201,1.2514 0.661,0.18372 1.245,0.35557 1.298,0.38191 0.05,0.0263 1.228,-0.19473 2.61,-0.49126 z m -2.707,-4.03436 c 4.46,-0.70967 9.709,-4.64752 11.833,-8.87596 0.597,-1.18884 1.284,-2.297468 1.526,-2.46362 0.243,-0.166153 -0.141,-1.294828 -0.852,-2.508167 -1.236,-2.10791 -1.341,-2.174756 -2.367,-1.502313 -1.382,0.905154 -3.641,0.0086 -3.658,-1.45148 -0.02,-1.626049 -0.764,-2.439935 -1.599,-1.747056 -1.07,0.888096 -1.56,-0.26917 -0.575,-1.357722 0.905,-1.000025 0.752,-1.15397 -1.854,-1.867566 -2.193,-0.600285 -3.655,-0.04559 -3.655,1.386709 0,0.519077 -0.216,0.943776 -0.48,0.943776 -0.264,0 -0.481,-0.324228 -0.481,-0.720507 0,-1.298785 -1.335,-0.756691 -3.039,1.233868 -1.247,1.457384 -1.716,2.495357 -1.842,4.081748 -0.152,1.904899 -0.04,2.173759 1.035,2.570915 0.827,0.304578 0.941,0.455421 0.364,0.481462 -0.559,0.02519 -0.841,0.427905 -0.841,1.199481 0,2.002332 0.505,2.681142 1.995,2.681142 1.355,0 1.399,-0.0675 1.093,-1.69585 l -0.318,-1.695843 1.881,0.300729 c 2.028,0.324276 2.68,-0.108071 3.169,-2.10205 0.399,-1.627072 -0.992,-1.974508 -2.106,-0.525932 l -0.889,1.155737 -0.01,-1.214178 c 0,-0.667799 0.449,-1.608108 1.011,-2.089576 0.876,-0.749367 1.188,-0.787073 2.169,-0.261904 0.995,0.532173 1.33,0.478298 2.526,-0.406437 1.712,-1.265593 1.982,-1.027793 1.399,1.2342 -0.95,3.687975 -0.978,3.93874 -0.447,3.93874 0.295,0 0.537,-0.25317 0.537,-0.5626 0,-0.670462 1.419,-2.319427 1.996,-2.319427 1.019,0 0.233,2.022859 -1.478,3.803511 -2.186,2.27421 -2.774,2.40743 -3.397,0.76887 -0.301,-0.79208 -0.7,-1.096977 -1.189,-0.909281 -0.405,0.155311 -0.736,0.475411 -0.736,0.711331 0,0.23592 -0.443,0.42895 -0.984,0.42895 -1.006,0 -3.421,2.36216 -3.042,2.97509 0.115,0.18646 0.974,-0.1119 1.908,-0.66302 1.179,-0.69529 1.852,-0.84874 2.199,-0.50125 0.348,0.34748 -0.195,0.80865 -1.773,1.5065 -1.25,0.55314 -2.436,1.00572 -2.634,1.00572 -0.198,0 -0.646,0.34375 -0.994,0.76388 -0.577,0.69454 -0.691,0.68621 -1.26,-0.0918 -0.847,-1.15743 -0.792,-0.0773 0.105,2.06846 1.021,2.44385 1.623,3.04613 2.807,2.80639 0.564,-0.11432 1.89,-0.34546 2.947,-0.51366 z m -4.684,-14.503726 c -1.444,-0.218782 -1.735,-0.835117 -0.6,-1.270672 0.396,-0.152067 0.721,-0.715573 0.721,-1.252236 0,-0.536663 0.216,-0.975751 0.48,-0.975751 0.264,0 0.48,0.527624 0.48,1.172497 0,0.644873 0.216,1.306086 0.481,1.469362 0.557,0.344693 0.652,1.23523 0.12,1.128875 -0.198,-0.03958 -0.955,-0.162017 -1.682,-0.272075 z m 2.042,-3.018321 c 0,-0.264186 0.216,-0.480338 0.48,-0.480338 0.265,0 0.481,0.216152 0.481,0.480338 0,0.264186 -0.216,0.480338 -0.481,0.480338 -0.264,0 -0.48,-0.216152 -0.48,-0.480338 z m 3.921,-1.724079 c -0.9,-1.018488 -0.333,-2.44782 0.648,-1.63357 0.733,0.608181 1.002,2.411518 0.355,2.378702 -0.198,-0.01005 -0.649,-0.345358 -1.003,-0.745132 z m -8.725,8.929146 c 0,-0.264184 -0.216,-0.480336 -0.48,-0.480336 -0.264,0 -0.481,0.216152 -0.481,0.480336 0,0.26419 0.217,0.48034 0.481,0.48034 0.264,0 0.48,-0.21615 0.48,-0.48034 z m 11.441,-3.039153 c 0.102,-0.858053 -0.07,-1.283886 -0.527,-1.283886 -0.429,0 -0.695,0.542971 -0.721,1.470613 -0.05,1.825364 1.029,1.663636 1.248,-0.186727 z m 5.133,-4.393761 c 0,-0.963527 -1.44,-2.095175 -1.98,-1.555707 -0.478,0.478431 0.836,2.805137 1.466,2.595126 0.283,-0.09412 0.514,-0.561855 0.514,-1.039419 z"
       id="path1" /></g></svg>
