<?xml version="1.0" encoding="UTF-8" standalone="no"?>
<!-- Created with Inkscape (http://www.inkscape.org/) -->

<svg
   width="61.221001mm"
   height="62.240601mm"
   viewBox="0 0 61.221 62.240601"
   version="1.1"
   id="svg1"
   xml:space="preserve"
   xmlns="http://www.w3.org/2000/svg"
   xmlns:svg="http://www.w3.org/2000/svg"><defs
     id="defs1" /><g
     id="layer1"
     transform="translate(1472.671,3650.7208)"><g
       id="g1605"
       transform="matrix(0.26458333,0,0,0.26458333,-5359.968,-3666.5111)"><path
         style="fill:#000000"
         d="m 14827.306,219.81025 c -4.104,-0.72757 -5.169,-1.1227 -7.538,-2.79666 -2.602,-1.83866 -2.954,-1.94937 -6.19,-1.94937 -3.133,0 -3.68,-0.15646 -6.305,-1.80403 -4.527,-2.84085 -5.589,-3.97364 -8.896,-9.49439 -0.319,-0.53292 -0.953,-1.67251 -1.409,-2.53243 -0.456,-0.85991 -0.979,-1.56348 -1.162,-1.56348 -0.396,0 -3.933,3.98042 -5.971,6.71824 -1.663,2.2348 -6.23,5.51298 -8.798,6.31592 -1.917,0.59937 -5.433,0.80163 -16.888,0.97158 -6.753,0.10017 -7.886,-0.009 -12.233,-1.1748 -5.624,-1.50899 -12.741,-1.72546 -18.255,-0.55523 -1.848,0.39229 -4.178,0.71325 -5.177,0.71325 -0.999,0 -2.591,0.32473 -3.539,0.72161 -2.356,0.9861 -3.64,0.94117 -3.437,-0.12027 0.198,-1.03835 2.439,-1.6262 11.312,-2.96824 7.212,-1.09077 15.872,-1.01894 19.566,0.16228 5.721,1.82987 4.138,1.74957 20.55,1.04275 5.408,-0.2329 7.557,-0.72028 10.283,-2.33167 1.805,-1.06698 5.416,-4.49109 5.416,-5.13542 0,-0.22745 1.892,-2.32979 4.205,-4.67187 6.652,-6.73566 8.032,-8.99758 6.845,-11.21923 -0.537,-1.00571 -0.614,-0.96883 -2.561,1.21759 -2.538,2.85038 -3.233,4.37581 -2.892,6.34466 0.289,1.66418 -0.51,2.13858 -1.66,0.9862 -1.454,-1.45638 -0.302,-4.89514 2.745,-8.19346 0.911,-0.98736 1.531,-1.92214 1.376,-2.07729 -0.533,-0.53408 -5.374,1.23483 -8.513,3.11112 -1.731,1.03391 -5.091,2.78594 -7.467,3.89339 -2.377,1.10746 -4.933,2.31706 -5.681,2.68801 -2.077,1.03072 -4.829,0.85311 -6.321,-0.40797 -5.325,-4.50008 -6.571,-6.99322 -5.545,-11.0913 0.344,-1.37446 0.798,-2.71812 1.008,-2.98593 0.211,-0.2678 0.847,-1.72951 1.414,-3.24824 0.961,-2.5754 4.031,-7.06562 5.736,-8.39061 1.265,-0.98305 7.713,-3.99017 8.555,-3.99017 1.557,0 10.541,-2.45256 14.3,-3.90368 2.1,-0.8107 5.048,-1.87789 6.552,-2.37153 1.504,-0.49364 3.84,-1.45899 5.191,-2.14522 4.414,-2.2407 4.414,-2.24073 7.733,-0.6183 4.797,2.34505 9.774,2.43199 11.236,0.19629 0.645,-0.9864 0.634,-1.27044 -0.1,-2.74368 -1.171,-2.35132 -7.259,-8.16535 -10.034,-9.58108 -2.101,-1.07203 -2.859,-1.18936 -6.977,-1.08007 -5.56,0.14757 -11.401,1.3507 -18.186,3.74563 -6,2.1178 -7.922,2.3465 -7.922,0.94248 0,-0.73321 0.514,-1.1009 2.161,-1.5453 6.03,-1.62781 8.723,-2.5569 9.413,-3.24767 0.418,-0.41899 1.442,-1.10703 2.275,-1.52898 0.833,-0.42195 2.205,-1.28445 3.048,-1.91666 1.633,-1.22412 8.211,-4.02874 9.45,-4.02874 0.408,0 1.236,0.52035 1.841,1.15633 2.143,2.254 4.632,3.17463 8.534,3.15732 2.809,-0.0125 3.847,-0.21594 4.689,-0.91899 1.487,-1.24349 1.365,-2.27358 -0.718,-6.02841 -5.243,-9.45054 -7.535,-9.85504 -27.25,-4.80777 -2.376,0.60846 -5.236,1.25136 -6.355,1.42867 -1.119,0.17731 -2.803,0.84504 -3.742,1.48386 -2.334,1.58725 -5.19,1.50384 -4.155,-0.12135 0.671,-1.05143 5.572,-3.13231 8.425,-3.57655 1.621,-0.2524 3.919,-0.76988 5.107,-1.14997 1.189,-0.38008 2.755,-0.81122 3.481,-0.95807 0.79,-0.15972 1.32,-0.58133 1.32,-1.04927 0,-1.14863 2.533,-4.97042 3.295,-4.97142 0.485,-6.4e-4 0.573,0.42664 0.343,1.65691 -0.26,1.38733 -0.14,1.74902 0.733,2.21707 0.62,0.33262 1.746,0.428 2.777,0.23533 0.954,-0.17818 3.139,-0.44436 4.856,-0.59149 1.716,-0.14714 3.182,-0.32145 3.258,-0.38734 0.08,-0.0659 -0.31,-1.25702 -0.857,-2.64695 -1.234,-3.13717 -3.884,-6.4397 -5.808,-7.23818 -2.109,-0.87557 -10.529,-0.31814 -13.892,0.91972 -1.445,0.5318 -3.491,1.11714 -4.547,1.30074 -3.084,0.53602 -8.798,2.9813 -11.122,4.75964 -2.567,1.96366 -6.725,3.49193 -7.47,2.74548 -0.837,-0.83886 -0.06,-1.88019 1.874,-2.51138 1.009,-0.32922 3.779,-1.61448 6.155,-2.85614 2.377,-1.24165 6.266,-2.84972 8.642,-3.57348 2.377,-0.72375 5.51,-1.72178 6.962,-2.21782 1.575,-0.53775 4.773,-1.02333 7.922,-1.20264 l 5.282,-0.30073 2.051,1.52753 c 3.309,2.46357 6.351,7.6586 6.351,10.84669 0,0.81352 0.474,1.34532 1.736,1.94515 2.001,0.9515 3.913,3.39976 6.22,7.96505 2.106,4.16669 2.56,6.81468 1.391,8.10918 -1.215,1.34497 -4.913,2.33711 -7.586,2.03523 -2.55,-0.28804 -2.832,0.0218 -0.921,1.01398 0.726,0.37709 2.386,1.62743 3.69,2.77852 l 2.369,2.0929 5.793,0.30336 c 4.193,0.21957 6.796,0.6295 9.425,1.48427 l 3.633,1.18092 1.545,-1.29239 c 0.849,-0.71081 2.425,-1.58337 3.5,-1.93902 1.676,-0.55419 2.137,-0.54459 3.225,0.0671 1.84,1.03481 1.691,2.7411 -0.334,3.82929 -2.26,1.21462 -2.266,1.24535 -0.377,2.14331 2.267,1.07815 4.023,2.9016 5.324,5.52837 0.59,1.19066 1.861,3.53865 2.825,5.21775 0.964,1.67911 1.753,3.21506 1.753,3.41322 0,0.19816 0.378,0.70161 0.84,1.11877 0.692,0.62452 2.409,0.77601 9.722,0.85786 4.886,0.0547 16.445,0.23399 25.687,0.3985 16.385,0.29165 16.804,0.32314 16.804,1.26126 0,1.13493 3.211,1.07508 -28.28,0.52707 -22.348,-0.38892 -22.989,-0.37481 -22.653,0.49849 1.151,2.98509 1.819,8.44552 1.609,13.15309 -0.194,4.36074 -0.463,5.66573 -1.936,9.39392 -2.772,7.0186 -4.007,9.09193 -7.56,12.68719 -4.26,4.31117 -7.421,6.64786 -12.715,9.39987 -5.581,2.90151 -7.455,3.20062 -13.425,2.14242 z m 12.513,-3.66188 c 5.112,-2.55851 5.889,-3.14082 10.431,-7.81743 3.769,-3.88039 5.279,-5.83448 6.506,-8.42052 3.316,-6.99177 3.959,-9.25328 4.172,-14.67272 0.284,-7.22631 -1.421,-12.56262 -7.456,-23.33203 -1.308,-2.33363 -2.141,-3.30028 -4.37,-5.07209 -2.917,-2.31782 -3.9,-2.29981 -6.382,0.11695 -1.19,1.1584 -2.304,2.74721 -2.478,3.53067 -0.551,2.49636 -0.689,2.69771 -1.743,2.54063 -2.076,-0.30929 -2.084,-1.41408 -0.04,-5.69308 l 1.928,-4.04109 -3.429,-1.10381 c -3.665,-1.17946 -11.832,-2.05459 -11.832,-1.26782 0,0.25281 0.552,1.20528 1.227,2.1166 0.985,1.33121 1.166,1.98796 0.919,3.3407 -0.427,2.34293 -1.421,3.2692 -4.454,4.15293 -3.203,0.93282 -4.712,0.71599 -8.936,-1.28364 l -3.281,-1.55313 -3.187,1.54502 c -1.753,0.84976 -4.589,2.01489 -6.301,2.58917 -1.713,0.57427 -3.141,1.31474 -3.174,1.64548 -0.03,0.33074 -0.09,0.78669 -0.12,1.01323 -0.03,0.22654 -0.859,1.46043 -1.836,2.74197 -1.812,2.37816 -2.985,5.58126 -3.38,9.23376 -0.139,1.28285 -0.03,2.06697 0.307,2.1047 0.29,0.0331 0.744,0.11425 1.008,0.1804 0.264,0.0661 2.317,0.14733 4.561,0.1804 3.126,0.0461 4.081,0.21592 4.081,0.72566 0,0.94897 -2.038,1.22507 -6.672,0.90403 l -4.032,-0.27929 0.254,2.26507 c 0.309,2.74238 0.469,2.93554 1.831,2.20528 1.295,-0.69463 4.384,-0.27545 6.292,0.85393 2.76,1.63334 2.297,5.94366 -1.1,10.24986 -1.246,1.57949 -1.774,2.61187 -1.441,2.81806 0.289,0.17897 1.19,1.65826 2.003,3.28732 1.555,3.119 5.063,7.38227 6.92,8.41164 5.178,2.86939 5.083,2.83801 7.935,2.60978 2.887,-0.23094 4.596,0.40482 6.981,2.59713 1.098,1.00901 6.162,2.46909 7.191,2.07333 0.374,-0.14391 1.171,0.0824 1.77,0.50286 1.806,1.26746 3.548,0.89412 9.329,-1.99991 z m -1.914,-49.20799 c -2.845,-0.85341 -4.818,-3.80347 -4.533,-6.77775 0.103,-1.07955 0.433,-1.66957 0.994,-1.77607 0.695,-0.1319 0.841,0.2002 0.843,1.92035 0,1.47289 0.339,2.501 1.157,3.52305 1.066,1.33345 1.376,1.43918 4.078,1.39004 3.13,-0.0569 3.554,0.27851 1.858,1.46912 -1.17,0.82068 -2.287,0.8845 -4.397,0.25126 z m -63.674,26.69058 c 2.295,-0.35721 4.291,-1.25897 14.056,-6.34901 3.083,-1.60693 3.202,-1.7315 2.281,-2.37835 -0.693,-0.48628 -0.973,-1.22003 -0.973,-2.55122 0,-1.02774 -0.205,-1.99556 -0.456,-2.15071 -0.25,-0.15514 -2.162,-0.41395 -4.247,-0.57512 l -3.793,-0.29303 -0.301,1.50887 c -0.378,1.89134 -1.806,2.02914 -2.748,0.26515 -0.365,-0.68405 -1.266,-1.55554 -2.001,-1.93664 -1.759,-0.91112 -1.69,-1.81496 0.229,-3.00326 0.862,-0.53366 2.061,-1.53985 2.665,-2.23597 1.393,-1.60542 2.228,-1.33124 2.329,0.76483 0.04,0.90274 0.1,1.88401 0.12,2.18058 0.05,0.64775 7.658,1.40818 8.223,0.82185 0.212,-0.21941 0.492,-1.3731 0.623,-2.56376 0.131,-1.19065 0.375,-2.51347 0.543,-2.93958 0.377,-0.95455 -1.706,-1.37699 -6.827,-1.38478 -2.772,-0.004 -3.481,-0.15231 -3.481,-0.7269 0,-0.5809 0.819,-0.7358 4.201,-0.79441 2.31,-0.04 4.882,-0.0942 5.714,-0.12027 1.52,-0.0477 2.22,-0.68757 4.199,-3.83501 0.478,-0.7602 0.674,-1.26148 0.436,-1.11395 -0.238,0.14753 -4.219,1.24054 -8.846,2.42892 -11.749,3.01774 -15.698,5.49536 -18.476,11.59101 -1.233,2.70453 -2.592,7.56816 -2.592,9.27372 0,2.45139 4.403,7.14109 6.241,6.64699 0.396,-0.10649 1.693,-0.34496 2.881,-0.52995 z m 32.84,-52.02452 4.753,-0.2942 -1.632,-1.37825 c -1.905,-1.60836 -2.89,-1.55524 -7.214,0.3891 -2.733,1.22903 -3.936,2.53863 -1.74,1.89445 0.594,-0.1743 3.219,-0.44929 5.833,-0.6111 z m -95.896,15.40833 c -0.565,-0.56605 -0.345,-1.04988 0.618,-1.35584 0.515,-0.16399 1.866,-1.22007 3,-2.34685 1.135,-1.12677 4.224,-3.96929 6.865,-6.31669 2.64,-2.34741 8.336,-7.63803 12.656,-11.75695 11.97,-11.41253 10.333,-9.98671 17.837,-15.53314 4.756,-3.51554 7.983,-5.66637 8.503,-5.66637 0.201,0 2.745,-1.1878 5.651,-2.63955 5.949,-2.97112 10.486,-4.15598 16.328,-4.2646 3.457,-0.0643 4.048,0.0631 5.905,1.27208 2.449,1.59445 2.919,2.53395 1.814,3.62481 -0.763,0.75309 -0.876,0.72206 -1.762,-0.48495 -1.011,-1.37608 -5.238,-3.08648 -6.464,-2.6151 -0.392,0.15053 -2.764,0.60456 -5.272,1.00894 -3.666,0.59111 -5.665,1.2686 -10.193,3.45597 -11.808,5.7031 -16.933,9.62305 -33.24,25.42317 -2.509,2.43064 -5.966,5.66657 -7.682,7.19094 -1.717,1.52437 -3.985,3.5876 -5.042,4.58496 -2.268,2.14238 -8.29,6.73988 -8.827,6.73988 -0.206,0 -0.519,-0.14432 -0.695,-0.32071 z m 61.136,-2.21579 c 0,-0.33672 0.72,-1.0008 1.6,-1.47574 0.88,-0.47494 2.194,-1.41548 2.92,-2.09008 0.992,-0.9211 1.457,-1.08941 1.87,-0.67585 0.826,0.82723 -0.1,1.9708 -2.834,3.50234 -2.609,1.46167 -3.556,1.65855 -3.556,0.73933 z m -1.116,-14.13629 c -0.566,-0.56671 -0.36,-1.05404 0.996,-2.35773 1.274,-1.22534 3.883,-2.61776 4.905,-2.61776 1.087,0 0.389,1.01652 -1.545,2.25199 -1.122,0.71692 -2.488,1.69614 -3.036,2.17605 -0.548,0.47991 -1.142,0.72626 -1.32,0.54745 z m -9.574,-11.99807 c -0.553,-0.5542 0.238,-1.62672 1.975,-2.67805 0.964,-0.58343 2.378,-1.57418 3.142,-2.20166 1.03,-0.84566 1.527,-0.99995 1.921,-0.59627 0.566,0.58067 0.284,0.85871 -4.155,4.09678 -2.479,1.809 -2.462,1.80086 -2.883,1.3792 z"
         id="path2" /></g></g></svg>
