<?xml version="1.0" encoding="UTF-8" standalone="no"?>
<!-- Created with Inkscape (http://www.inkscape.org/) -->

<svg
   width="61.221001mm"
   height="62.240601mm"
   viewBox="0 0 61.221 62.240601"
   version="1.1"
   id="svg1"
   xml:space="preserve"
   xmlns="http://www.w3.org/2000/svg"
   xmlns:svg="http://www.w3.org/2000/svg"><defs
     id="defs1" /><g
     id="layer1"
     transform="translate(1472.671,3650.7208)"><g
       id="g1024"
       transform="matrix(0.26458333,0,0,0.26458333,-4128.5055,-3791.0505)"><path
         style="fill:#000000"
         d="m 10064.622,748.16521 c 0,-2.18247 -0.137,-4.45513 -0.296,-5.05035 -0.167,-0.62187 -0.07,-1.08221 0.217,-1.08221 0.504,0 0.746,1.33536 1.29,7.09453 0.238,2.51657 0.163,3.00616 -0.46,3.00616 -0.612,0 -0.746,-0.70787 -0.751,-3.96813 z m 4.006,2.46672 c 0.158,-0.89375 0.434,-3.57299 0.614,-5.95386 0.45,-5.9666 1.094,-7.26578 1.073,-2.16444 -0.02,5.72383 -0.51,9.25905 -1.308,9.52318 -0.514,0.17 -0.601,-0.14984 -0.379,-1.40488 z m 9.327,-2.85927 c 1.256,-2.39837 2.354,-4.02437 2.439,-3.61334 0.08,0.41103 -0.264,1.56168 -0.775,2.55698 -0.511,0.99531 -1.28,2.62131 -1.708,3.61334 -0.428,0.99204 -1.107,1.8037 -1.51,1.8037 -0.541,0 -0.136,-1.13572 1.554,-4.36068 z m 5.711,1.39122 c 1.255,-1.6332 2.362,-2.72861 2.46,-2.43425 0.355,1.06572 -2.918,5.40371 -4.077,5.40371 -0.391,0 0.273,-1.2203 1.617,-2.96946 z m 61.786,0.53607 c 0.204,-3.0435 2.959,-9.582 3.717,-8.82215 0.284,0.28415 0.189,1.33188 -0.253,2.80461 -0.389,1.29305 -0.705,2.58716 -0.704,2.8758 0,0.88516 1.872,-2.25682 2.183,-3.67443 0.257,-1.16922 1.181,-1.93429 1.174,-0.97138 0,0.78752 -1.091,4.29812 -1.795,5.80613 -0.617,1.32041 -0.942,1.54825 -1.876,1.31354 -0.878,-0.22056 -1.13,-0.0877 -1.13,0.59525 0,0.48356 -0.336,1.29935 -0.747,1.81286 -0.694,0.86774 -0.735,0.74488 -0.569,-1.74023 z m -6.369,-4.23476 c 0,-3.71021 1.451,-8.29952 5.27,-16.65964 0.966,-2.11634 2.044,-4.56337 2.396,-5.43785 0.397,-0.98959 0.808,-1.41965 1.089,-1.13892 0.28,0.28073 0.258,0.79028 -0.06,1.34947 -2.327,4.10373 -7.736,19.46286 -7.736,21.96636 0,0.71384 -0.216,1.29789 -0.48,1.29789 -0.264,0 -0.48,-0.61979 -0.48,-1.37731 z m -18.576,-3.05438 c 0.328,-4.62813 0.929,-6.63097 1.992,-6.63097 0.891,0 0.889,0.0838 -0.148,5.73689 -0.51,2.77589 -1.084,4.61864 -1.483,4.75155 -0.527,0.17613 -0.596,-0.55227 -0.361,-3.85747 z m -7.93,-1.70087 c 0.211,-6.12252 0.6,-8.38815 1.489,-8.68516 0.493,-0.16447 0.581,0.1236 0.357,1.16711 -0.163,0.76202 -0.424,3.4417 -0.579,5.95484 -0.321,5.21421 -0.565,6.7338 -1.082,6.7338 -0.2,0 -0.283,-2.32677 -0.185,-5.17059 z m -69.084,2.37502 c 0,-1.72988 1.371,-4.5576 3.534,-7.28959 0.935,-1.1819 1.615,-2.23481 1.51,-2.3398 -0.105,-0.105 -1.202,0.37501 -2.438,1.06668 -1.235,0.69167 -2.328,1.25759 -2.426,1.25759 -0.1,0 -0.18,-0.95721 -0.18,-2.12714 0,-2.0029 0.1,-2.15945 1.675,-2.68051 1.703,-0.56303 2.643,-1.35407 1.562,-1.31509 -2.492,0.0899 -3.237,-0.17358 -3.237,-1.14467 0,-0.87631 0.229,-0.9878 1.681,-0.81806 1.943,0.22711 1.904,0.29178 0.945,-1.56471 -0.405,-0.78412 -0.911,-2.3657 -1.126,-3.51463 -0.321,-1.72352 -0.246,-2.17848 0.429,-2.60071 0.45,-0.28146 0.965,-1.43397 1.145,-2.56113 0.329,-2.06049 1.926,-6.587 3.684,-10.44361 0.52,-1.14156 0.815,-2.28737 0.655,-2.54624 -0.16,-0.25887 -0.08,-0.73175 0.176,-1.05084 1.02,-1.26897 1.087,-3.46413 0.166,-5.39377 -1.436,-3.00543 -1.628,-4.70906 -0.865,-7.63629 0.686,-2.6322 1.347,-3.543 5.993,-8.26598 0.877,-0.89162 2.242,-2.1666 3.033,-2.83328 1.447,-1.21923 1.485,-2.18356 0.09,-2.18356 -1.39,0 -5.72,-2.83455 -7.761,-5.08003 l -2.021,-2.22343 -0.298,-5.89597 c -0.188,-3.70718 -0.122,-6.00533 0.177,-6.19056 0.262,-0.16202 2.52,0.72546 5.017,1.97219 5.438,2.71431 9.211,4.24829 11.375,4.62448 1.418,0.24652 1.872,0.0161 4.083,-2.07186 3.288,-3.10599 6.092,-4.5559 7.997,-4.13681 1.258,0.27669 1.455,0.18377 1.455,-0.68672 0,-0.55369 0.197,-1.38255 0.438,-1.84191 0.241,-0.45936 0.799,-1.91742 1.24,-3.24013 0.441,-1.32271 1.78,-4.89402 2.975,-7.93626 3.067,-7.80623 3.312,-8.47008 4.631,-12.50562 2.048,-6.26884 8.941,-26.1723 9.411,-27.17567 0.248,-0.52908 1.547,-3.26593 2.887,-6.08188 1.34,-2.81595 2.436,-5.23934 2.436,-5.38532 0,-0.14597 0.756,-1.55797 1.681,-3.13777 0.925,-1.5798 1.683,-3.26884 1.684,-3.75341 0,-1.04972 2.58,-2.91366 4.578,-3.3127 0.927,-0.18524 2.257,0.0738 3.815,0.74296 2.834,1.21732 7.352,1.36592 9.857,0.32417 0.925,-0.38454 3.48,-1.06381 5.678,-1.50948 3.932,-0.7973 5.16,-1.2114 9.934,-3.35012 1.321,-0.59177 4.131,-1.67432 6.244,-2.40566 2.114,-0.73134 4.275,-1.51945 4.804,-1.75137 0.528,-0.23191 2.582,-0.9937 4.563,-1.69285 1.982,-0.69915 4.359,-1.64866 5.284,-2.11002 2.162,-1.07881 24.776,-8.67265 30.742,-10.32353 2.51,-0.69444 7.158,-2.20664 10.328,-3.36042 3.17,-1.15379 6.585,-2.35602 7.588,-2.67162 1.004,-0.3156 2.193,-0.96086 2.642,-1.43391 0.631,-0.66327 1.904,-0.92929 5.566,-1.16246 2.788,-0.17753 4.976,-0.113 5.3,0.15631 0.345,0.28614 1.269,0.29231 2.457,0.0164 2.731,-0.63401 5.413,-0.55674 8.004,0.23064 4.701,1.42841 6.182,2.76934 8.066,7.30193 2.184,5.25357 3.181,6.76714 7.355,11.1666 3.772,3.97644 3.804,4.03171 3.488,6.01083 -0.175,1.09862 -0.889,3.51326 -1.585,5.36587 -0.783,2.08127 -1.276,4.37924 -1.29,6.0138 -0.04,4.32944 0.702,14.76078 1.469,20.68237 0.394,3.04223 0.916,7.58755 1.16,10.10069 0.506,5.20826 0.782,7.46869 1.508,12.3599 0.469,3.16371 0.629,3.50217 1.862,3.93235 2.465,0.86069 3.088,3.07902 3.797,13.52885 0.243,3.57131 0.699,7.21999 1.013,8.10816 0.358,1.00887 0.4,1.73084 0.112,1.92394 -0.253,0.16999 -0.606,0.70386 -0.784,1.18636 -0.492,1.33296 -1.906,0.76684 -2.807,-1.12345 -4.171,-8.75265 -5.44,-13.00274 -5.744,-19.23373 -0.06,-1.19044 -0.469,-2.59732 -0.912,-3.12641 -1.617,-1.9296 -2.609,-7.66651 -3.617,-20.92286 -0.171,-2.24861 -0.364,-4.62949 -0.428,-5.29084 -0.07,-0.66136 -0.181,-2.93401 -0.258,-5.05035 -0.08,-2.11633 -0.232,-3.30677 -0.342,-2.64542 -0.609,3.64285 -3.716,11.17136 -5.675,13.74973 -0.62,0.81653 -1.996,3.52207 -3.058,6.01231 -2.943,6.9058 -3.399,12.78388 -1.698,21.90549 0.593,3.18351 -1.933,9.88336 -6.319,16.76112 -3.568,5.59327 -5.509,13.73918 -5.682,23.84085 -0.06,3.71899 -0.19,4.23879 -1.332,5.47152 -1.002,1.08243 -1.186,1.6232 -0.897,2.63348 0.888,3.099 1.509,9.46836 1.043,10.69533 -0.76,2.00032 -4.334,3.49931 -7.379,3.0948 -1.724,-0.22902 -2.555,-0.1496 -2.813,0.26904 -0.461,0.74708 -7.043,0.64306 -7.968,-0.12594 -0.353,-0.29297 -0.641,-0.93891 -0.641,-1.43543 0,-1.07402 4.152,-9.63932 4.896,-10.09968 0.317,-0.19598 0.12,-0.53306 -0.508,-0.86963 -1.431,-0.76659 -1.287,-2.04069 0.647,-5.73627 2.475,-4.72821 4.856,-12.68757 5.55,-18.54703 0.576,-4.86737 0.411,-7.21 -0.306,-4.34849 -0.918,3.66331 -4.43,4.2207 -4.561,0.72391 -0.03,-0.8703 -0.257,-0.52804 -0.773,1.17841 -1.626,5.37459 -2.184,6.56925 -3.315,7.08503 -0.935,0.42637 -1.333,0.35373 -2.157,-0.39354 -0.889,-0.80494 -0.974,-1.25307 -0.699,-3.68371 0.25,-2.21649 0.177,-2.76729 -0.369,-2.76729 -0.447,0 -0.87,0.95609 -1.228,2.77854 -0.3,1.52819 -0.976,3.58277 -1.503,4.56573 -0.765,1.42929 -0.987,2.91973 -1.11,7.44241 -0.163,5.97388 -0.737,8.04395 -2.348,8.46565 -0.867,0.22715 -0.929,0.61242 -0.785,4.89574 0.146,4.35301 0.09,4.70566 -0.937,5.53567 -0.655,0.53076 -1.829,0.87631 -2.927,0.86114 -1.008,-0.0139 -2.284,0.21618 -2.835,0.51136 -1.264,0.6776 -3.791,0.69705 -4.201,0.0323 -0.212,-0.34302 -0.534,-0.31877 -1.009,0.0758 -0.529,0.43943 -0.833,0.4451 -1.254,0.0234 -0.306,-0.30624 -0.934,-0.5568 -1.394,-0.5568 -0.461,0 -1.427,-0.507 -2.146,-1.12667 -0.994,-0.85622 -1.213,-1.34691 -0.909,-2.04419 0.219,-0.50463 0.437,-1.02574 0.484,-1.15801 0.05,-0.13227 0.466,-1.10626 0.932,-2.16443 0.466,-1.05817 1.16,-2.67854 1.541,-3.60083 0.381,-0.92228 1.088,-2.11272 1.571,-2.64542 1.647,-1.81781 2.351,-3.95381 5.58,-16.94158 l 1.221,-4.91038 -1.978,-1.98083 -1.978,-1.98082 -1.764,0.82002 c -0.971,0.45101 -2.115,1.12567 -2.544,1.49926 -0.429,0.37358 -2.59,1.18602 -4.804,1.80542 -2.213,0.6194 -4.672,1.35501 -5.465,1.63469 -4.337,1.53065 -5.609,1.67179 -12.118,1.34508 -3.639,-0.18259 -7.998,-0.6529 -9.688,-1.04512 -1.69,-0.39222 -3.169,-0.61712 -3.286,-0.49979 -0.197,0.19792 -2.6,10.25592 -4.226,17.69035 -0.387,1.76808 -0.917,3.77912 -1.179,4.46899 -0.621,1.63503 -0.749,7.54102 -0.283,13.05402 0.412,4.88244 0.106,5.91978 -2.69,9.10826 -1.162,1.32499 -1.652,2.51694 -2.127,5.17708 -0.34,1.90069 -0.63,4.25984 -0.644,5.24257 -0.03,2.1652 -0.632,2.54964 -4.719,3.0164 -2.419,0.27626 -3.253,0.18601 -4.235,-0.45804 -0.955,-0.62634 -1.372,-0.67771 -1.906,-0.23442 -0.729,0.60565 -3.553,0.28095 -5.191,-0.59677 -0.789,-0.42288 -0.874,-0.8564 -0.626,-3.20396 0.334,-3.1648 2.026,-8.62577 3.018,-9.73989 0.379,-0.42503 0.547,-1.1394 0.375,-1.58907 -0.351,-0.91482 1.128,-4.64372 2.077,-5.23818 0.338,-0.21155 0.614,-0.6878 0.614,-1.05832 0,-0.37052 0.298,-0.84676 0.661,-1.05832 1.46,-0.84947 3.962,-7.91677 6.019,-17.0001 1.345,-5.942 1.447,-7.01074 1.25,-13.05455 -0.207,-6.34319 -0.919,-10.97325 -1.687,-10.97325 -0.202,0 -0.755,0.5919 -1.229,1.31533 -1.464,2.23782 -4.095,4.85909 -7.012,6.9872 -1.538,1.12126 -2.798,2.34175 -2.8,2.71219 0,1.25564 -2.589,5.97016 -4.083,7.46209 -1.663,1.65981 -7.226,4.1295 -9.303,4.1295 -0.802,0 -2.214,0.6652 -3.473,1.63643 -1.166,0.90004 -2.545,1.71331 -3.065,1.80726 -0.865,0.15631 -0.934,0.51787 -0.815,4.25564 0.163,5.09323 -0.534,10.05525 -1.932,13.74956 -1.465,3.87145 -4.896,7.0986 -11.551,10.86183 -5.45,3.08206 -7.745,4.93166 -8.178,6.59101 -0.224,0.85982 -0.122,0.90489 1.018,0.44969 2.38,-0.94994 7.99,-2.29904 9.594,-2.3073 3.181,-0.0164 1.193,1.19104 -3.779,2.29533 -4.465,0.99181 -6.597,1.81677 -6.067,2.34779 0.102,0.10197 0.78,-0.0407 1.506,-0.31715 1.521,-0.57919 8.687,-0.77165 10.249,-0.27527 1.086,0.34537 1.412,1.43399 0.582,1.94759 -0.259,0.16032 -3.123,0.61849 -6.365,1.01815 -3.241,0.39966 -6.084,0.91604 -6.317,1.14752 -1.069,1.06012 0.233,1.76005 4.282,2.30245 4.127,0.55296 7.427,1.78161 7.801,2.90456 0.232,0.69745 -1.431,0.7582 -2.112,0.0771 -0.636,-0.63697 -2.151,-0.98549 -5.66,-1.30219 -2.637,-0.23796 -2.812,-0.19203 -2.47,0.64893 1.428,3.51314 1.563,7.15782 0.264,7.15782 -0.482,0 -0.956,-0.95708 -1.43,-2.88591 -0.602,-2.44918 -1.126,-3.29952 -3.462,-5.619 l -2.752,-2.73308 -2.783,0.24787 c -1.537,0.13694 -3.75,0.75108 -4.944,1.37213 -2.832,1.47301 -5.053,1.69659 -7.6,0.76517 l -2.075,-0.75904 -2.248,2.40636 c -1.236,1.3235 -3.274,3.75673 -4.529,5.40716 -2.493,3.27985 -3.723,3.82431 -3.723,1.64819 z m 9.607,-10.82065 c 0,-0.48685 -0.877,-2.6e-4 -2.282,1.266 -1.732,1.56166 -1.244,1.94049 0.601,0.46634 0.924,-0.73877 1.681,-1.51832 1.681,-1.73234 z m 7.978,0.12883 1.315,-0.50079 -1.644,-0.84584 c -1.585,-0.81517 -1.694,-0.81212 -3.01,0.0842 -1.043,0.71024 -1.213,1.02675 -0.721,1.33926 0.877,0.55627 2.476,0.526 4.06,-0.0768 z m -4.856,-2.38513 c 0.164,-0.26454 0.07,-0.48098 -0.212,-0.48098 -0.279,0 -0.508,0.21644 -0.508,0.48098 0,0.26454 0.09,0.48099 0.212,0.48099 0.116,0 0.345,-0.21645 0.508,-0.48099 z m 14.699,-0.54248 c 2.201,-0.73101 2.934,-1.74814 2.55,-3.53653 -0.807,-3.75817 -2.492,-5.52999 -6.31,-6.63735 -6.526,-1.89236 -8.984,-2.23269 -13.112,-1.81593 -4.256,0.42957 -5.05,0.91433 -5.562,3.39357 -0.137,0.66136 -0.435,1.5515 -0.663,1.9781 -0.275,0.51477 -0.111,1.27496 0.488,2.26023 1.221,2.01093 4.102,2.81448 7.383,2.05898 1.912,-0.44028 2.499,-0.41576 3.122,0.13036 2.837,2.48597 8.237,3.45342 12.104,2.16857 z m -2.845,-4.99129 c -0.787,-0.6627 -2.07,-1.33294 -2.851,-1.48943 -1.167,-0.23371 -1.468,-0.1044 -1.684,0.72392 -0.182,0.69694 -0.649,1.00844 -1.51,1.00844 -1.096,0 -1.245,-0.19615 -1.245,-1.63199 0,-1.7938 0.58,-2.21589 3.044,-2.21589 3.424,0 7.015,2.02615 7.035,3.96813 0.01,1.19102 -1.12,1.04374 -2.789,-0.36318 z m -11.849,-1.35536 c -0.74,-1.77406 -0.827,-1.81531 -4.088,-1.95694 -0.863,-0.0375 -1.201,-0.32259 -1.201,-1.01413 0,-0.79086 0.371,-0.98862 2.081,-1.11179 2.72,-0.19583 4.19,0.78181 4.619,3.07104 0.483,2.57859 -0.472,3.26326 -1.411,1.01182 z m 73.649,1.4316 c 0.134,-0.70728 -0.04,-0.82313 -0.837,-0.56882 -0.792,0.25167 -1.005,0.11462 -1.005,-0.64664 0,-0.5313 0.217,-1.09977 0.481,-1.26327 0.713,-0.44109 0.582,-1.68345 -0.177,-1.68345 -0.609,0 -1.246,2.26625 -1.259,4.48107 0,1.22238 2.56,0.92963 2.797,-0.31889 z m -7.849,0.1722 c 0.168,-0.27265 -0.02,-0.35328 -0.452,-0.18903 -0.832,0.31975 -0.985,0.66451 -0.294,0.66451 0.249,0 0.584,-0.21397 0.746,-0.47548 z m 10.331,-0.4714 c 0,-0.25624 -0.325,-0.3413 -0.721,-0.18903 -0.396,0.15227 -0.72,0.36192 -0.72,0.46589 0,0.10397 0.324,0.18903 0.72,0.18903 0.396,0 0.721,-0.20965 0.721,-0.46589 z m -55.238,-2.84764 c 1.059,-1.02881 3.491,-2.7933 5.404,-3.92109 6.018,-3.54625 7.073,-4.29537 8.902,-6.32289 2.451,-2.71646 3.206,-4.06843 3.984,-7.13402 0.874,-3.44451 0.933,-15.08261 0.08,-15.93553 -0.807,-0.80823 -0.761,-1.40222 0.08,-1.07756 0.534,0.20533 0.632,-0.0881 0.443,-1.3378 -0.3,-1.99734 -3.383,-5.28328 -4.61,-4.9148 -0.646,0.19384 -0.841,-0.0301 -0.841,-0.96557 0,-0.7221 -0.387,-1.42572 -0.952,-1.72827 -1.489,-0.79799 -4.622,1.47488 -5.029,3.64877 -0.172,0.91536 -0.521,1.53509 -0.776,1.37719 -0.255,-0.1579 -0.317,-0.52537 -0.137,-0.81658 0.214,-0.34634 0.03,-0.41732 -0.517,-0.20521 -0.464,0.17836 -1.323,0.44474 -1.909,0.59196 -0.954,0.23978 -1.125,0.75336 -1.641,4.92805 -0.317,2.5632 -0.574,5.47965 -0.572,6.48099 0,1.00134 -0.344,2.35411 -0.771,3.00616 -0.836,1.27811 -0.21,1.653 0.776,0.46406 0.864,-1.04308 1.79,-0.88863 2.662,0.44433 0.677,1.0344 0.684,1.31918 0.06,2.52631 -0.386,0.74828 -1.139,1.75601 -1.672,2.23942 -1.39,1.25895 -2.972,0.35694 -2.972,-1.69414 0,-1.47011 -0.02,-1.4829 -0.96,-0.63001 -0.529,0.47882 -0.961,1.05182 -0.961,1.27335 0,0.22153 -0.476,0.95094 -1.058,1.62091 -2.141,2.46614 -5.761,9.4508 -6.296,12.15101 -0.278,1.40167 -0.167,1.63639 0.999,2.10407 2.967,1.1907 3.532,1.62593 4.697,3.61581 0.67,1.14491 1.317,2.08166 1.438,2.08166 0.12,0 1.085,-0.84176 2.144,-1.87058 z m 15.149,-21.66447 c -0.152,-0.24626 -0.06,-0.5837 0.212,-0.74987 0.268,-0.16616 0.488,0.0353 0.488,0.44775 0,0.84487 -0.288,0.96927 -0.7,0.30212 z M 10080,691.52918 c 0,-0.26454 0.228,-0.48098 0.508,-0.48098 0.28,0 0.375,0.21644 0.212,0.48098 -0.163,0.26454 -0.392,0.48099 -0.509,0.48099 -0.116,0 -0.211,-0.21645 -0.211,-0.48099 z m 44.912,28.85912 c 0.163,-0.26454 0.07,-0.48098 -0.212,-0.48098 -0.279,0 -0.508,0.21644 -0.508,0.48098 0,0.26455 0.1,0.48099 0.212,0.48099 0.116,0 0.345,-0.21644 0.508,-0.48099 z m 6.965,-1.151 c 0,-0.10397 -0.335,-0.31793 -0.745,-0.47547 -0.428,-0.16426 -0.62,-0.0836 -0.452,0.18903 0.282,0.45703 1.197,0.676 1.197,0.28644 z m -8.347,-3.17786 c 0.733,0 0.908,-1.23391 0.234,-1.65094 -0.455,-0.28165 -1.598,1.257 -2.12,2.8534 -0.274,0.83896 -0.216,0.82358 0.455,-0.12025 0.423,-0.59522 1.067,-1.08221 1.431,-1.08221 z m -70.31,-0.74833 c 1.981,-0.23278 2.762,-0.52699 2.762,-1.04103 0,-0.39411 0.64,-1.66531 1.421,-2.82491 0.782,-1.1596 1.666,-3.03076 1.965,-4.15813 0.299,-1.12738 0.956,-3.2875 1.461,-4.80027 1.133,-3.39743 1.175,-4.07477 0.202,-3.2662 -0.981,0.81515 -3.968,0.21582 -4.257,-0.85406 -0.846,-3.13773 -0.82,-3.2677 0.783,-3.83108 0.851,-0.29914 2.128,-0.42605 2.837,-0.28201 1.186,0.24087 1.315,0.1131 1.599,-1.59191 0.387,-2.32739 0.426,-2.41158 2.181,-4.73972 3.348,-4.44356 3.913,-5.49839 3.913,-7.30847 v -1.82494 l 0.605,1.4403 0.605,1.4403 0.908,-1.88133 c 0.681,-1.41149 0.758,-1.93201 0.308,-2.08427 -0.331,-0.11162 -0.601,-0.72601 -0.601,-1.36532 0,-1.12997 -0.474,-1.48919 -1.116,-0.8459 -0.174,0.17407 -0.115,0.5601 0.132,0.85786 0.261,0.31473 0.273,0.82615 0.03,1.22163 -0.32,0.5193 -0.497,0.37323 -0.745,-0.61736 -0.314,-1.25239 -0.931,-1.70171 -1.262,-0.91907 -0.09,0.2082 -1.621,1.45275 -3.407,2.76566 -1.785,1.31291 -3.367,2.76589 -3.514,3.22884 -0.148,0.46295 -0.542,0.84173 -0.875,0.84173 -0.61,0 -4.617,4.33335 -6.171,6.67472 -1.19,1.79333 -1.043,4.50747 0.413,7.58906 1.206,2.55308 1.232,2.78021 0.64,5.6218 -0.34,1.62867 -0.93,3.44655 -1.31,4.03972 -0.381,0.59318 -0.563,1.41609 -0.405,1.82868 0.158,0.4126 0.09,0.62465 -0.163,0.47123 -0.55,-0.34008 -1.256,0.92799 -2.446,4.39151 -0.837,2.43696 -0.843,2.6084 -0.08,2.3865 0.453,-0.13149 2.067,-0.38509 3.586,-0.56356 z m 3.242,-8.87138 c 0,-0.26454 0.204,-0.48099 0.452,-0.48099 0.249,0 0.586,0.21645 0.749,0.48099 0.164,0.26454 -0.04,0.48098 -0.452,0.48098 -0.412,0 -0.749,-0.21644 -0.749,-0.48098 z m 0.261,-2.37169 c -0.152,-0.24627 -0.06,-0.5837 0.212,-0.74987 0.268,-0.16616 0.488,0.0353 0.488,0.44775 0,0.84487 -0.288,0.96926 -0.7,0.30212 z m 0.46,-1.95718 c -0.163,-0.26454 -0.07,-0.48099 0.212,-0.48099 0.28,0 0.508,0.21645 0.508,0.48099 0,0.26454 -0.09,0.48099 -0.211,0.48099 -0.117,0 -0.346,-0.21645 -0.509,-0.48099 z m 3.603,-18.27744 c 0,-0.26455 0.216,-0.48099 0.48,-0.48099 0.264,0 0.48,0.21644 0.48,0.48099 0,0.26454 -0.216,0.48098 -0.48,0.48098 -0.264,0 -0.48,-0.21644 -0.48,-0.48098 z m 4.904,-5.96381 c 0.341,-0.37013 0.695,-0.60097 0.788,-0.51299 0.285,0.27102 -0.437,1.18596 -0.936,1.18596 -0.259,0 -0.192,-0.30284 0.148,-0.67297 z m 0.635,35.66465 c 0.739,-2.29278 2.654,-6.09552 3.69,-7.3275 0.441,-0.52307 2.431,-3.55417 5.23,-7.9653 1.786,-2.81466 1.799,-2.8772 2.66,-12.4841 0.29,-3.237 -0.435,-7.21478 -1.315,-7.21478 -0.269,0 -0.371,-0.19192 -0.227,-0.42649 0.145,-0.23457 0,-0.64253 -0.332,-0.90658 -1.094,-0.88282 -2.585,0.25107 -3.919,2.98042 -0.725,1.48399 -2.518,4.15541 -3.986,5.93649 -3.513,4.26554 -4.435,6.35742 -4.448,10.10126 -0.01,3.64175 -2.727,12.52561 -4.852,15.88096 -0.772,1.21836 -1.403,2.35882 -1.403,2.53436 0,0.36892 4.325,1.26022 6.566,1.35325 1.43,0.0593 1.573,-0.0915 2.336,-2.46199 z m 69.318,-0.96197 c 1.279,-1.02551 2.058,-2.10199 2.268,-3.12958 0.404,-1.98241 -0.376,-7.12358 -1.061,-6.99354 -0.657,0.12484 -0.373,-8.41101 0.308,-9.23218 0.261,-0.31562 0.333,-0.71627 0.159,-0.89034 -0.174,-0.17406 0.04,-0.31648 0.485,-0.31648 0.44,0 0.8,-0.22922 0.8,-0.50937 0,-0.28016 -0.216,-0.37561 -0.48,-0.21211 -0.264,0.1635 -0.481,0.068 -0.481,-0.21211 0,-0.28015 0.193,-0.50937 0.427,-0.50937 0.235,0 0.417,-0.27055 0.405,-0.60123 -0.06,-1.72716 0.179,-2.79162 0.58,-2.54316 0.249,0.1536 0.455,-0.10418 0.458,-0.57285 0.02,-2.8046 0.703,-6.64785 1.256,-7.08043 0.355,-0.27802 1.071,-2.50759 1.592,-4.9546 0.821,-3.859 0.851,-4.44911 0.225,-4.44911 -0.497,0 -0.616,-0.26211 -0.381,-0.84173 0.187,-0.46295 0.568,-1.49105 0.847,-2.28468 0.278,-0.79363 0.796,-1.86989 1.151,-2.3917 0.355,-0.52181 0.646,-1.33688 0.646,-1.81127 0,-0.47439 0.268,-1.72489 0.597,-2.77889 0.472,-1.51317 0.832,-1.91637 1.714,-1.91637 0.939,0 1.061,0.17116 0.77,1.08222 -0.838,2.62595 -1.629,5.97473 -1.635,6.91593 -0.01,1.9936 4.604,2.93719 13.925,2.84736 6.554,-0.0632 7.291,-0.16919 12.489,-1.79624 3.038,-0.95101 6.403,-2.20465 7.477,-2.78587 4.037,-2.18401 13.921,-9.6859 18.17,-13.79034 6.724,-6.4966 14.702,-17.65969 14.702,-20.57219 0,-0.35074 0.46,-1.67917 1.023,-2.95207 0.927,-2.09873 1.081,-2.23423 1.65,-1.45432 0.423,0.57852 0.491,1.22115 0.209,1.96326 -0.23,0.60678 -0.33,1.19228 -0.221,1.30111 0.109,0.10882 0.295,3.32362 0.414,7.14399 0.118,3.82037 0.449,10.49496 0.735,14.83243 0.368,5.58201 0.372,10.14953 0.01,15.63202 -0.631,9.66354 -1.056,11.40263 -5.107,20.90002 -1.171,2.7458 -2.019,5.10365 -1.883,5.23967 0.548,0.54843 8.135,-1.00323 8.964,-1.8332 0.47,-0.47076 1.333,-1.11248 1.918,-1.42605 1.019,-0.54583 1.049,-0.74721 0.705,-4.72602 -0.477,-5.50434 -0.44,-5.95691 0.536,-6.67177 0.647,-0.47393 0.679,-0.61902 0.142,-0.6485 -0.517,-0.0284 -0.536,-0.10104 -0.07,-0.28726 0.476,-0.19144 0.491,-0.4059 0.06,-0.924 -0.324,-0.3908 -0.358,-0.67471 -0.08,-0.67471 0.262,0 0.739,-1.3367 1.06,-2.97046 0.321,-1.63375 1.106,-4.41959 1.744,-6.19075 0.638,-1.77116 1.16,-3.7166 1.16,-4.32319 0,-0.6066 0.368,-1.93928 0.819,-2.96151 0.613,-1.39304 1.065,-1.8251 1.801,-1.72482 0.704,0.0959 1.026,-0.17252 1.136,-0.94843 0.08,-0.59522 0.419,-1.08222 0.744,-1.08222 1.212,0 3.386,-8.04644 2.848,-10.54675 -0.396,-1.84512 -0.509,-12.4972 -0.165,-15.66695 0.258,-2.38256 1.803,-6.9645 2.679,-7.94491 0.359,-0.40157 1.052,-1.59201 1.539,-2.64542 0.488,-1.05341 1.58,-2.98578 2.428,-4.29414 0.848,-1.30837 1.542,-2.5928 1.542,-2.8543 0,-0.2615 0.452,-1.41003 1.004,-2.55229 0.651,-1.34586 1.171,-3.8117 1.478,-7.0059 0.26,-2.71099 0.807,-6.33595 1.214,-8.05547 0.407,-1.71952 0.846,-3.77574 0.975,-4.56936 0.129,-0.79363 0.504,-1.66013 0.834,-1.92557 1.336,-1.0763 4.102,-8.34373 4.102,-10.78052 0,-0.29843 -1.6,-2.25552 -3.555,-4.34908 -2.758,-2.95242 -4.096,-4.91951 -5.965,-8.76719 -2.788,-5.73924 -3.705,-6.85081 -6.75,-8.17906 -1.931,-0.84245 -2.793,-0.92558 -6.547,-0.63109 -2.377,0.18654 -4.863,0.29825 -5.524,0.24825 -3.112,-0.23558 -8.318,10e-4 -8.814,0.401 -0.304,0.24506 -2.498,1.09822 -4.876,1.89589 -6.898,2.31425 -8.069,2.90534 -7.636,3.85357 0.205,0.4497 0.458,2.04123 0.563,3.53673 0.164,2.36548 -0.01,3.08483 -1.369,5.53133 -0.857,1.54673 -3.145,4.3936 -5.084,6.32638 -3.393,3.38178 -3.526,3.60016 -3.526,5.7979 0,2.31254 -1.639,5.67311 -3.523,7.22266 -1.665,1.36964 -6.696,0.37003 -8.118,-1.61305 -0.213,-0.29737 -0.363,-0.20661 -0.379,0.22939 -0.01,0.39681 -0.332,0.018 -0.705,-0.84173 -0.743,-1.71123 -2.111,-2.06694 -3.146,-0.81791 -1.03,1.24267 -4.247,0.72706 -5.434,-0.87092 -0.899,-1.20976 -0.932,-1.50975 -0.369,-3.3669 0.34,-1.12134 0.736,-2.776 0.88,-3.67702 0.214,-1.34102 0.127,-1.58649 -0.481,-1.35308 -1.031,0.39634 -1.448,-0.96735 -0.464,-1.5188 0.672,-0.37654 0.698,-0.56844 0.162,-1.21518 -0.35,-0.42241 -0.916,-0.76803 -1.258,-0.76803 -0.342,0 -1.018,-0.53807 -1.503,-1.19572 l -0.88,-1.19573 -3.843,1.70399 c -2.114,0.93719 -7.193,2.90139 -11.288,4.36489 -4.095,1.4635 -9.109,3.40613 -11.143,4.31697 -4.746,2.12597 -15.539,5.04183 -19.726,5.32948 -2.624,0.18021 -3.647,0.0304 -5.316,-0.77853 -2.337,-1.13267 -4.571,-1.28915 -5.718,-0.40047 -1.509,1.16932 -8.965,16.8035 -11.917,24.99116 l -1.858,5.15051 1.211,-0.4609 c 2.682,-1.02122 6.312,-0.0781 7.378,1.91738 0.272,0.50896 0.495,1.79265 0.495,2.85265 0,1.63675 0.324,2.25649 2.15,4.11127 2.139,2.17249 2.361,2.6604 2.844,6.24192 0.373,2.77136 -1.322,4.1529 -6.253,5.0959 -4.557,0.87147 -4.624,1.02984 -3.025,7.1649 1.24,4.76197 1.065,6.23519 -0.988,8.29061 -1.576,1.57783 -3.174,1.7436 -6.993,0.72519 -2.724,-0.72644 -3.741,-0.48942 -6.306,1.46923 -0.942,0.71949 -2.273,1.31788 -2.958,1.32975 -1.055,0.0183 -1.34,0.34921 -1.865,2.16406 -0.341,1.17835 -0.45,2.31259 -0.242,2.52052 0.208,0.20793 1.124,0.1637 2.036,-0.0983 2.197,-0.63098 3.147,-0.60068 3.913,0.1249 0.349,0.33068 1.175,0.88274 1.835,1.2268 1.105,0.57562 3.658,4.18484 5.204,7.35624 1.028,2.11017 3.573,2.82869 14.666,4.14133 l 6.661,0.78811 0.94,-1.16479 c 0.626,-0.77508 1.022,-0.96592 1.183,-0.57038 0.164,0.40223 0.968,0.0547 2.487,-1.0751 2.892,-2.15166 2.828,-2.09391 5.366,-4.8768 2.65,-2.90629 3.203,-3.85484 4.42,-7.58314 1.125,-3.44507 1.608,-4.13434 2.897,-4.13434 0.857,0 0.913,0.18618 0.545,1.80369 -0.226,0.99203 -0.312,3.21058 -0.191,4.9301 0.121,1.71952 0.223,7.88816 0.226,13.70809 0,11.38716 -0.02,11.56826 -3.144,21.16335 -2.733,8.3968 -3.009,9.15214 -3.865,10.58168 -2.755,4.60248 -2.852,4.89701 -1.958,5.92147 1.106,1.26834 3.471,1.82801 3.471,0.82149 0,-0.40185 0.217,-0.73064 0.481,-0.73064 0.264,0 0.48,0.33164 0.48,0.73698 0,0.40533 0.487,0.93272 1.081,1.17197 2.036,0.81956 3.586,0.52254 5.567,-1.06723 z m -39.552,-45.09238 c -0.163,-0.26454 -0.07,-0.48098 0.212,-0.48098 0.28,0 0.509,0.21644 0.509,0.48098 0,0.26454 -0.1,0.48099 -0.212,0.48099 -0.117,0 -0.345,-0.21645 -0.509,-0.48099 z m 3.864,-0.92873 c -0.152,-0.24627 -0.06,-0.5837 0.211,-0.74987 0.269,-0.16616 0.489,0.0353 0.489,0.44775 0,0.84487 -0.289,0.96926 -0.7,0.30212 z m 131.835,-17.8297 c 0,-0.26454 0.216,-0.48098 0.48,-0.48098 0.264,0 0.481,0.21644 0.481,0.48098 0,0.26455 -0.217,0.48099 -0.481,0.48099 -0.264,0 -0.48,-0.21644 -0.48,-0.48099 z m -65.087,-9.31579 c -1.486,-0.70792 -2.742,-1.8731 -4.761,-4.41358 -0.971,-1.22249 -1.098,-1.73868 -0.772,-3.12641 l 0.391,-1.66215 0.07,1.44295 c 0.07,1.41685 0.08,1.40814 0.762,-0.48098 0.909,-2.52563 0.958,-2.35942 -1.005,-3.41141 -1.347,-0.72183 -1.668,-1.15068 -1.505,-2.01116 0.113,-0.60153 0.03,-1.19967 -0.174,-1.32919 -0.21,-0.12953 -0.184,-0.92169 0.06,-1.76036 0.24,-0.83868 0.336,-1.62586 0.212,-1.74931 -0.381,-0.38224 2.144,-2.46461 3.263,-2.69099 0.584,-0.11791 2.277,-0.3178 3.764,-0.44421 1.784,-0.15165 3.745,-0.77296 5.764,-1.82642 2.608,-1.36011 3.506,-1.58439 6.063,-1.51423 1.652,0.0453 3.003,-0.0904 3.003,-0.30147 0,-0.2111 0.51,-0.28606 1.135,-0.16658 1.008,0.19306 2.513,-0.43932 6.255,-2.62823 1.589,-0.92925 4.073,-0.72295 5.708,0.4739 0.813,0.59521 2.791,1.74034 4.397,2.54472 4.381,2.19477 5.416,4.93856 3.969,10.52699 -0.792,3.05814 -2.234,4.17102 -5.436,4.19585 -1.322,0.0103 -3.294,-0.24842 -4.382,-0.57484 -1.912,-0.57337 -2.058,-0.53633 -4.323,1.09296 -4.342,3.1237 -7.503,4.25623 -8.031,2.87784 -0.157,-0.41028 0,-0.92229 0.331,-1.1378 0.457,-0.29 0.403,-0.39374 -0.206,-0.39919 -0.659,-0.006 -0.815,0.41081 -0.781,2.08316 0.05,2.32933 -0.915,4.1476 -2.967,5.61057 -1.792,1.27761 -8.708,1.77681 -10.8,0.77957 z m 0.584,-3.48724 c -2.187,-0.76127 -2.723,-0.20444 -0.775,0.80431 1.186,0.61371 1.726,0.69271 1.976,0.28906 0.216,-0.34918 -0.23,-0.75523 -1.201,-1.09337 z m -2.266,-3.55047 c 0,-0.52908 -0.08,-0.96197 -0.184,-0.96197 -0.101,0 -0.297,0.43289 -0.435,0.96197 -0.138,0.52908 -0.06,0.96197 0.184,0.96197 0.239,0 0.435,-0.43289 0.435,-0.96197 z m 0.961,-4.86131 c 0,-0.29285 -0.324,-0.40786 -0.72,-0.25559 -0.397,0.15227 -0.721,0.0311 -0.721,-0.2692 0,-0.30033 -0.13,-0.41616 -0.288,-0.2574 -0.438,0.43808 0.254,1.31463 1.037,1.31463 0.381,0 0.692,-0.2396 0.692,-0.53244 z m 32.424,-0.42953 c 0.163,-0.26454 0.07,-0.48098 -0.212,-0.48098 -0.28,0 -0.509,0.21644 -0.509,0.48098 0,0.26454 0.1,0.48099 0.212,0.48099 0.116,0 0.345,-0.21645 0.509,-0.48099 z m -1.311,-0.57117 c -0.297,-0.89185 -1.331,-1.03977 -1.331,-0.19039 0,0.41886 0.342,0.76156 0.76,0.76156 0.419,0 0.675,-0.25703 0.571,-0.57117 z m -11.906,-2.0129 c 0,-0.23079 -0.317,-0.15018 -0.713,0.17914 -0.597,0.49587 -0.722,0.44399 -0.728,-0.30184 0,-0.72979 -0.09,-0.76902 -0.446,-0.20683 -0.301,0.47604 -0.186,0.87832 0.364,1.28171 0.798,0.58421 1.504,0.14314 1.523,-0.95218 z m -22.35,0.69336 c 0.152,-0.24626 0.06,-0.5837 -0.212,-0.74986 -0.268,-0.16616 -0.488,0.0353 -0.488,0.44775 0,0.84486 0.289,0.96926 0.7,0.30211 z m 6.025,-1.79388 c 0,-0.35435 -0.324,-0.64428 -0.72,-0.64428 -0.397,0 -0.721,0.32467 -0.721,0.72148 0,0.39681 -0.216,0.72148 -0.48,0.72148 -0.264,0 -0.481,0.2118 -0.481,0.47067 0,0.28632 0.471,0.25608 1.201,-0.0772 0.661,-0.30134 1.201,-0.8378 1.201,-1.19215 z m 3.135,0.89157 c -0.148,-0.14809 -0.535,-3e-4 -0.861,0.32841 -0.471,0.47503 -0.416,0.53028 0.269,0.26925 0.473,-0.18062 0.74,-0.44957 0.592,-0.59766 z m -8.178,-1.05486 c -0.164,-0.26454 -0.501,-0.48099 -0.749,-0.48099 -0.249,0 -0.452,0.21645 -0.452,0.48099 0,0.26454 0.337,0.48098 0.749,0.48098 0.411,0 0.615,-0.21644 0.452,-0.48098 z m -1.201,-0.99036 c 0,-0.24893 -0.217,-0.4526 -0.481,-0.4526 -0.264,0 -0.48,0.33744 -0.48,0.74987 0,0.41242 0.216,0.61609 0.48,0.4526 0.264,-0.1635 0.481,-0.50094 0.481,-0.74987 z m 5.243,-1.58698 c -0.11,-0.0948 -1.064,-0.30514 -2.121,-0.46736 -1.309,-0.20085 -1.692,-0.1482 -1.201,0.16505 0.656,0.41899 3.789,0.704 3.322,0.30231 z m 3.043,-1.10811 c -0.331,-0.13343 -0.871,-0.13343 -1.201,0 -0.33,0.13343 -0.06,0.24261 0.6,0.24261 0.661,0 0.931,-0.10918 0.601,-0.24261 z m 21.255,-1.60539 c 0.163,-0.26454 -0.04,-0.48099 -0.452,-0.48099 -0.412,0 -0.749,0.21645 -0.749,0.48099 0,0.26454 0.204,0.48098 0.452,0.48098 0.249,0 0.586,-0.21644 0.749,-0.48098 z m 8.406,-0.48099 c 0.583,-0.37703 0.514,-0.46766 -0.36,-0.47362 -0.594,-0.004 -1.081,0.20908 -1.081,0.47362 0,0.60264 0.51,0.60264 1.441,0 z m -8.166,-3.1264 c 0,-0.39681 0.337,-0.72148 0.749,-0.72148 1.371,0 0.309,-0.74992 -1.227,-0.86716 -0.946,-0.0722 -1.397,0.0715 -1.204,0.38373 0.169,0.27452 0.543,0.35352 0.83,0.17557 0.342,-0.21126 0.429,0.0364 0.252,0.71363 -0.149,0.57045 -0.07,1.03719 0.165,1.03719 0.239,0 0.435,-0.32467 0.435,-0.72148 z m 23.177,10.3545 c -0.389,-0.62367 -0.447,-1.32394 -0.169,-2.04418 0.232,-0.60255 0.919,-3.15175 1.528,-5.6649 1.387,-5.73214 3.064,-8.80355 3.989,-7.30486 0.133,0.215 -0.401,2.43354 -1.187,4.9301 -0.785,2.49655 -1.763,6.00019 -2.173,7.78584 -0.409,1.78566 -0.891,3.24665 -1.07,3.24665 -0.18,0 -0.593,-0.42689 -0.918,-0.94865 z m -103.127,-2.06728 c -0.925,-1.41393 -1.277,-6.96736 -0.492,-7.75398 0.306,-0.30656 0.714,-1.39471 0.905,-2.41812 0.192,-1.02341 0.667,-2.17876 1.055,-2.56744 0.388,-0.38868 1.442,-1.85891 2.341,-3.26718 1.901,-2.97446 2.669,-3.46249 5.29,-3.3601 2.684,0.10488 4.5,1.1187 6.342,3.54147 1.686,2.21573 2.013,4.18595 0.998,6.00655 -0.322,0.57782 -0.7,2.23136 -0.841,3.67453 -0.233,2.40562 -0.426,2.75469 -2.316,4.19553 -2.339,1.78287 -4.147,2.33681 -9.079,2.78175 -3.273,0.29536 -3.493,0.25184 -4.203,-0.83301 z m 2.867,-2.18201 c -0.148,-0.14809 -0.536,-3.1e-4 -0.861,0.32841 -0.471,0.47503 -0.416,0.53027 0.269,0.26925 0.473,-0.18063 0.74,-0.44957 0.592,-0.59766 z m 18.726,-2.02468 c 0.166,-0.26886 0.503,-0.36431 0.749,-0.21211 0.666,0.41232 0.542,0.70094 -0.302,0.70094 -0.412,0 -0.613,-0.21997 -0.447,-0.48883 z m 3.357,-6.72595 c -0.163,-0.26454 -0.07,-0.48099 0.212,-0.48099 0.28,0 0.509,0.21645 0.509,0.48099 0,0.26454 -0.1,0.48098 -0.212,0.48098 -0.117,0 -0.345,-0.21644 -0.509,-0.48098 z m 37.008,-4.77662 c -0.152,-0.24626 -0.06,-0.5837 0.212,-0.74986 0.268,-0.16617 0.488,0.0353 0.488,0.44775 0,0.84486 -0.289,0.96926 -0.7,0.30211 z m -33.66,-5.82921 c -0.441,-0.7148 -0.09,-0.96785 0.68,-0.49081 0.413,0.25557 0.462,0.50345 0.14,0.70318 -0.274,0.16965 -0.643,0.0741 -0.82,-0.21237 z m 1.696,-0.69733 c 0,-0.39681 0.209,-0.72148 0.465,-0.72148 0.256,0 0.341,0.32467 0.189,0.72148 -0.152,0.39682 -0.361,0.72148 -0.465,0.72148 -0.104,0 -0.189,-0.32466 -0.189,-0.72148 z m 1.479,-4.84993 c 0.02,-0.56032 0.137,-0.6743 0.29,-0.2906 0.139,0.34721 0.122,0.76206 -0.04,0.92189 -0.159,0.15983 -0.273,-0.12425 -0.252,-0.63129 z m -2.393,-9.04247 c -0.429,-0.51776 -0.366,-0.73674 0.287,-0.98739 0.461,-0.17715 0.684,-0.16823 0.496,0.0198 -0.187,0.18804 -0.1,0.63237 0.194,0.98739 0.326,0.39384 0.348,0.64548 0.06,0.64548 -0.265,0 -0.729,-0.29938 -1.032,-0.6653 z m -1.968,-1.27054 c 0,-0.57061 2.303,-1.54427 3.057,-1.29255 0.28,0.0935 -0.218,0.53355 -1.108,0.97777 -1.899,0.94893 -1.949,0.95699 -1.949,0.31478 z m 106.675,-6.0405 c 0.02,-0.56032 0.137,-0.67429 0.291,-0.29059 0.138,0.34721 0.121,0.76206 -0.04,0.92189 -0.16,0.15982 -0.274,-0.12426 -0.253,-0.6313 z m -32.998,125.0713 c 0.164,-0.42804 0.08,-0.6211 -0.189,-0.4526 -0.261,0.16163 -0.475,0.49753 -0.475,0.74646 0,0.69187 0.344,0.53941 0.664,-0.29386 z m 6.061,-1.23358 c 0,-0.50285 -0.153,-0.52039 -1.162,-0.13293 -1.103,0.42379 -0.933,1.10642 0.201,0.80938 0.529,-0.13836 0.961,-0.44276 0.961,-0.67645 z m -4.5,-0.67422 c -0.134,-0.34816 0.09,-0.75916 0.487,-0.91332 1.224,-0.47053 1.728,-0.31603 1.437,0.44118 -0.152,0.39681 -0.07,0.72148 0.189,0.72148 0.534,0 0.592,-0.55189 0.174,-1.64411 -0.16,-0.41845 -0.593,-0.76082 -0.961,-0.76082 -0.368,0 -0.669,-0.21644 -0.669,-0.48099 0,-0.26454 0.229,-0.48098 0.509,-0.48098 0.28,0 0.373,-0.21998 0.207,-0.48883 -0.446,-0.72297 -1.196,-0.0794 -1.196,1.02659 0,0.52908 -0.217,0.82795 -0.482,0.66414 -0.264,-0.1638 -0.705,0.29247 -0.979,1.01393 -0.37,0.97522 -0.345,1.40639 0.1,1.68065 0.785,0.48562 1.492,0.0209 1.186,-0.77892 z m -21.913,-7.08569 c 0,-0.33068 0.137,-1.08823 0.296,-1.68345 0.16,-0.59796 0.07,-1.08222 -0.194,-1.08222 -0.266,0 -0.572,0.75755 -0.68,1.68345 -0.108,0.9259 -0.02,1.68345 0.188,1.68345 0.211,0 0.387,-0.27055 0.39,-0.60123 z m 2.604,-6.12809 c 0.814,-0.81422 0.953,-1.62738 0.971,-5.64841 0.02,-4.06949 -0.103,-4.80048 -0.906,-5.46964 -0.79,-0.65767 -0.925,-1.39357 -0.907,-4.95454 l 0.02,-4.18215 -1.941,0.14469 -1.942,0.14468 -0.849,3.84788 c -0.467,2.11634 -1.69,6.59846 -2.717,9.96026 -1.028,3.36181 -1.742,6.30545 -1.587,6.54143 0.557,0.85174 1.784,1.03732 5.314,0.80419 2.722,-0.17976 3.823,-0.46766 4.542,-1.18839 z m -95.155,-2.29775 c 0.464,-0.25453 -1.683,-1.48332 -2.159,-1.23613 -0.174,0.0899 -0.206,0.58116 -0.07,1.09167 0.226,0.86333 0.848,0.90364 2.232,0.14446 z m 5.361,-2.99756 c -0.173,-0.28062 0.315,-0.48099 1.173,-0.48099 0.808,0 1.469,-0.19298 1.469,-0.42884 0,-0.23587 0.541,-0.56465 1.201,-0.73064 0.661,-0.16599 1.201,-0.62234 1.201,-1.01412 0,-0.86556 0.801,-0.94779 1.083,-0.11108 0.157,0.46704 0.382,0.45188 1.011,-0.0679 0.467,-0.38565 0.695,-1.03102 0.539,-1.52334 -0.213,-0.67301 -0.06,-0.79974 0.71,-0.59747 1.047,0.2743 1.387,-0.58581 0.38,-0.96052 -0.332,-0.12333 0.02,-0.47017 0.787,-0.77501 0.763,-0.30348 1.271,-0.6682 1.129,-0.81049 -0.447,-0.44793 -14.826,-2.92565 -18.362,-3.1641 -0.965,-0.0651 -1.861,-0.28952 -1.99,-0.49874 -0.325,-0.52684 -2.099,-0.47989 -2.099,0.0556 0,0.23978 0.396,0.33208 0.881,0.20513 0.726,-0.19013 0.893,0.0723 0.946,1.48798 0.04,0.96121 -0.166,1.71882 -0.46,1.71882 -0.346,0 -0.321,0.24487 0.07,0.72148 0.361,0.43559 0.4,0.72148 0.1,0.72148 -0.275,0 -0.599,-0.27056 -0.72,-0.60124 -0.15,-0.40917 -0.387,-0.44585 -0.742,-0.11483 -0.783,0.73026 0.394,2.74763 2.073,3.55406 1.023,0.4912 1.453,0.52295 1.588,0.11724 0.102,-0.30596 0.384,-0.43359 0.626,-0.28362 0.262,0.16213 0.241,0.64703 -0.05,1.19607 -0.423,0.79153 -0.234,1.05462 1.32,1.84233 1.915,0.97049 6.659,1.39016 6.136,0.5428 z m -6.903,-4.1705 c -0.507,-0.55722 -0.537,-0.9895 -0.13,-1.88373 0.29,-0.6383 0.782,-1.16055 1.093,-1.16055 0.341,0 0.236,0.36466 -0.265,0.91841 -0.787,0.87139 -0.785,0.94373 0.05,1.413 0.58,0.32767 0.713,0.65345 0.395,0.96531 -0.314,0.30825 -0.708,0.22111 -1.139,-0.25244 z m -2.464,-2.5633 c 0,-0.26454 0.337,-0.48098 0.749,-0.48098 0.412,0 0.616,0.21644 0.452,0.48098 -0.163,0.26454 -0.5,0.48099 -0.749,0.48099 -0.248,0 -0.452,-0.21645 -0.452,-0.48099 z m 0.961,-1.44296 c 0,-0.26454 0.229,-0.48098 0.509,-0.48098 0.28,0 0.375,0.21644 0.212,0.48098 -0.164,0.26455 -0.393,0.48099 -0.509,0.48099 -0.117,0 -0.212,-0.21644 -0.212,-0.48099 z m -13.516,5.00942 c 1.02,0.63135 0.973,-1.29294 -0.05,-2.14975 -1.752,-1.46407 -4.943,-0.9718 -4.447,0.68609 0.09,0.29844 0.291,1.12936 0.448,1.84649 l 0.284,1.30387 1.661,-0.9813 c 0.914,-0.53972 1.862,-0.85715 2.107,-0.7054 z m 3.164,-4.81684 c 0.462,-0.63247 0.877,-0.6822 2.334,-0.27943 1.748,0.48335 1.768,0.47325 1.462,-0.7484 -0.225,-0.89871 -0.07,-1.41621 0.575,-1.88679 0.848,-0.62044 0.851,-0.74695 0.07,-2.93132 -0.45,-1.25559 -0.816,-2.75303 -0.815,-3.32763 0,-1.33117 -3.374,-4.27301 -5.363,-4.67123 -0.814,-0.16299 -2.205,-0.29635 -3.091,-0.29635 -0.887,0 -2.46,-0.33977 -3.496,-0.75505 -1.776,-0.71157 -1.996,-0.6981 -3.821,0.23406 -2.073,1.05894 -3.441,2.63214 -3.441,3.95743 0,0.44961 -0.918,1.60723 -2.041,2.57249 -1.934,1.66208 -1.994,1.79038 -1.136,2.42251 0.497,0.36712 0.93,1.16344 0.96,1.7696 0.04,0.7538 0.396,1.15051 1.132,1.25526 0.592,0.0842 1.405,0.6221 1.806,1.19528 0.622,0.89016 0.867,0.9555 1.679,0.44808 1.325,-0.82871 1.938,-0.74761 3.18,0.42045 1.052,0.98913 1.132,0.99401 3.221,0.19531 1.674,-0.64012 2.363,-0.70047 3.155,-0.27609 0.558,0.2987 1.014,0.75192 1.014,1.00715 0,0.76049 2.01,0.52597 2.617,-0.30533 z m 7.596,-1.79769 c -0.436,-0.74925 -1.217,0.5718 -0.859,1.45254 0.335,0.82279 0.377,0.81763 0.724,-0.0879 0.203,-0.52908 0.264,-1.14316 0.135,-1.36462 z m 103.634,0.63471 c 0.285,-0.53373 0.89,-2.8605 1.343,-5.1706 0.726,-3.69668 0.939,-4.18336 1.78,-4.05984 0.526,0.0772 1.604,0.18541 2.397,0.24049 1.585,0.11021 1.602,0.19957 0.923,4.85307 -0.266,1.82491 -0.203,2.30157 0.282,2.13961 0.711,-0.23739 1.523,-2.73333 2.397,-7.37376 0.464,-2.46041 0.837,-3.29882 1.622,-3.64112 0.561,-0.24459 1.411,-0.71578 1.889,-1.04709 0.729,-0.50562 0.98,-0.45241 1.561,0.33127 0.639,0.86236 0.692,0.7729 0.692,-1.17146 0,-1.41125 0.305,-2.43241 0.923,-3.09809 0.882,-0.94904 0.901,-1.41855 0.431,-10.61268 -0.27,-5.29084 -0.667,-9.93928 -0.883,-10.32988 -0.304,-0.55395 -0.584,-0.3593 -1.271,0.88484 -0.485,0.87726 -1.825,3.03661 -2.978,4.79855 -3.844,5.87171 -13.236,15.03662 -20.926,20.42122 -1.659,1.16114 -1.553,1.79945 0.532,3.2242 1.33,0.90891 2.59,1.26117 5.16,1.44295 3.298,0.23325 3.396,0.27673 3.239,1.44296 -0.852,6.31066 -0.464,9.25339 0.887,6.72536 z m -132.718,-0.9926 c 1.309,-0.49842 1.457,-1.40389 0.229,-1.40389 -1.388,0 -2.588,-1.117 -2.224,-2.06916 0.268,-0.6993 0.451,-0.73776 1.08,-0.2278 0.416,0.33743 0.626,0.39468 0.466,0.12722 -0.356,-0.59775 0.438,-1.69496 2.014,-2.78244 1.076,-0.74297 1.099,-0.82364 0.24,-0.86232 -0.521,-0.0235 -2.136,-0.13325 -3.589,-0.24394 l -2.642,-0.20126 1.321,1.18284 c 1.573,1.40899 1.637,1.70996 0.36,1.70996 -0.528,0 -0.961,-0.18702 -0.961,-0.41559 0,-0.22858 -0.918,-0.37244 -2.041,-0.3197 -1.123,0.0527 -2.42,-0.0925 -2.882,-0.32281 -0.868,-0.43195 -0.978,-0.22061 -0.927,1.77958 0.02,0.80265 -0.02,0.82159 -0.222,0.11435 -0.135,-0.46618 -0.445,-0.72396 -0.689,-0.57284 -0.244,0.15112 -0.444,-0.29189 -0.444,-0.98447 0,-0.69258 0.205,-1.13218 0.456,-0.97688 0.251,0.15529 0.717,-0.20589 1.036,-0.80261 0.562,-1.05122 0.592,-1.05538 0.951,-0.13372 0.301,0.76968 0.378,0.7964 0.405,0.13999 0.02,-0.54973 0.537,-0.86701 1.595,-0.98422 l 1.561,-0.17298 -1.274,-0.54931 c -0.701,-0.30212 -1.401,-0.75457 -1.556,-1.00544 -0.155,-0.25087 -1.094,-0.60825 -2.088,-0.79418 -0.994,-0.18594 -2.082,-0.56598 -2.419,-0.84455 -0.336,-0.27857 -0.733,-0.38495 -0.881,-0.23642 -0.149,0.14854 0.235,0.5394 0.852,0.86859 1.123,0.59887 2.385,1.98205 2.084,2.28329 -0.09,0.088 -0.664,-0.10944 -1.281,-0.43873 -1.027,-0.54778 -1.065,-0.52966 -0.453,0.21315 0.732,0.8888 0.443,1.5687 -0.436,1.02478 -0.303,-0.18762 -0.427,-0.83605 -0.276,-1.44097 0.19,-0.75553 0.03,-1.19437 -0.51,-1.4018 -1.204,-0.46263 -1.244,-0.1422 -0.392,3.15461 0.638,2.4725 1.198,3.4515 2.917,5.10356 1.17,1.1243 2.394,2.03761 2.72,2.02956 0.325,-0.008 0.209,-0.23779 -0.259,-0.51055 -0.468,-0.27275 -0.725,-0.69906 -0.572,-0.94734 0.524,-0.84991 1.232,-0.45138 1.728,0.9729 0.473,1.35705 0.624,1.4228 3.2,1.39199 1.487,-0.0178 3.198,-0.22049 3.803,-0.45045 z m -6.07,-4.08939 c 0.02,-0.56033 0.137,-0.6743 0.291,-0.2906 0.138,0.34721 0.121,0.76206 -0.04,0.92189 -0.16,0.15983 -0.273,-0.12426 -0.253,-0.63129 z m 153.38,-5.95721 c 0.208,-1.11228 0.152,-1.50809 -0.168,-1.18743 -0.264,0.26454 -0.621,1.23177 -0.793,2.1494 -0.209,1.11228 -0.153,1.50809 0.168,1.18743 0.264,-0.26454 0.621,-1.23177 0.793,-2.1494 z m -127.479,-12.01128 c 0,-0.24893 -0.216,-0.58637 -0.48,-0.74986 -0.264,-0.1635 -0.48,0.0402 -0.48,0.4526 0,0.41242 0.216,0.74986 0.48,0.74986 0.264,0 0.48,-0.20367 0.48,-0.4526 z m 7.446,-2.43331 c -0.163,-0.26454 -0.663,-0.46577 -1.109,-0.44718 -0.662,0.0276 -0.635,0.1102 0.148,0.44718 1.285,0.55307 1.302,0.55307 0.961,0 z m -3.363,-0.48099 c -0.163,-0.26454 -0.513,-0.48098 -0.777,-0.48098 -0.264,0 -0.347,0.21644 -0.183,0.48098 0.163,0.26455 0.513,0.48099 0.777,0.48099 0.264,0 0.347,-0.21644 0.183,-0.48099 z m 163.341,-15.63202 c -0.144,-0.9259 -0.373,-2.40493 -0.509,-3.28674 -0.152,-0.98682 -0.521,-1.60328 -0.961,-1.60328 -0.392,0 -0.713,0.25629 -0.713,0.56954 0,1.19987 1.812,6.00393 2.264,6.00393 0.1,0 0.06,-0.75755 -0.08,-1.68345 z m -150.43,0.0201 c -0.179,-0.46778 0.146,-0.8055 0.976,-1.01412 1.751,-0.43998 1.546,-1.02991 -0.437,-1.26174 -0.925,-0.1081 -1.681,-0.037 -1.681,0.15797 0,0.19498 -0.432,0.32191 -0.961,0.28205 -0.528,-0.0399 -0.96,-0.24285 -0.96,-0.45109 0,-0.20825 -0.21,-0.37863 -0.466,-0.37863 -0.892,0 0.07,1.38786 1.069,1.53508 1.412,0.20891 1.594,1.23442 0.265,1.48874 -0.726,0.13891 -0.492,0.23467 0.678,0.27757 1.383,0.0507 1.725,-0.0926 1.517,-0.63583 z m -3.544,-0.50113 c 0,-0.0757 -0.324,-0.26216 -0.72,-0.41443 -0.435,-0.16695 -0.721,-0.002 -0.721,0.41443 0,0.41687 0.286,0.58139 0.721,0.41443 0.396,-0.15227 0.72,-0.33876 0.72,-0.41443 z m 7.27,-4.08837 c 1.329,0 0.763,-0.62623 -0.748,-0.82893 -1.239,-0.16604 -1.879,0.81148 -1.382,2.10857 0.262,0.68355 0.361,0.64888 0.69,-0.24049 0.234,-0.63328 0.796,-1.03915 1.44,-1.03915 z m -11.399,-5.1705 c 0.03,-0.8597 -0.112,-1.56314 -0.305,-1.5632 -0.467,-1.3e-4 -1.046,2.36829 -0.671,2.74371 0.161,0.16175 0.06,0.57507 -0.224,0.9185 -0.285,0.34343 -0.355,0.88735 -0.157,1.20871 0.478,0.77401 1.295,-1.2184 1.357,-3.30772 z m 3.168,2.28458 c 0,-0.49785 -0.201,-1.03008 -0.448,-1.18273 -0.247,-0.15264 -0.43,0.36824 -0.408,1.15752 0.04,1.52962 0.856,1.55356 0.856,0.0252 z m 6.945,-0.9952 c -0.152,-0.24626 -0.614,-0.44775 -1.027,-0.44775 -0.611,0 -0.64,0.13387 -0.158,0.71618 0.62,0.74829 1.666,0.51133 1.185,-0.26843 z m -2.621,0.31307 c 0,-0.11064 0.131,-0.54353 0.291,-0.96198 0.208,-0.54113 0,-0.76081 -0.692,-0.76081 -1.1,0 -1.732,0.71173 -1.281,1.44295 0.285,0.46188 1.682,0.69426 1.682,0.27984 z m 149.869,-0.011 c 0,-0.11666 -0.217,-0.34587 -0.481,-0.50937 -0.264,-0.16349 -0.48,-0.0681 -0.48,0.21211 0,0.28015 0.216,0.50937 0.48,0.50937 0.264,0 0.481,-0.0954 0.481,-0.21211 z m -0.961,-3.84788 c 0,-0.11666 -0.216,-0.34588 -0.48,-0.50937 -0.265,-0.1635 -0.481,-0.068 -0.481,0.2121 0,0.28016 0.216,0.50938 0.481,0.50938 0.264,0 0.48,-0.0955 0.48,-0.21211 z m -151.79,-1.18582 c 0,-0.23978 -0.433,-0.32275 -0.961,-0.18439 -0.529,0.13835 -0.961,0.33453 -0.961,0.43595 0,0.10142 0.432,0.1844 0.961,0.1844 0.528,0 0.961,-0.19618 0.961,-0.43596 z m 151.79,-0.71505 c 0,-0.10397 -0.324,-0.31362 -0.721,-0.46589 -0.396,-0.15227 -0.72,-0.0672 -0.72,0.18904 0,0.25623 0.324,0.46588 0.72,0.46588 0.397,0 0.721,-0.0851 0.721,-0.18903 z m -0.907,-3.79713 c -0.392,-0.39281 -0.534,-0.33898 -0.534,0.20241 0,0.95613 0.646,1.60292 0.885,0.88582 0.101,-0.30423 -0.06,-0.79393 -0.351,-1.08823 z m -0.686,-5.24274 c -0.154,-0.3837 -0.268,-0.26973 -0.291,0.29059 -0.02,0.50704 0.09,0.79112 0.253,0.6313 0.159,-0.15983 0.176,-0.57468 0.04,-0.92189 z m -0.592,-14.33249 c -0.225,-3.1866 -0.508,-4.71711 -0.816,-4.40943 -0.259,0.25945 -0.339,1.40876 -0.178,2.55715 0.16,1.14723 0.428,3.23077 0.595,4.63008 0.507,4.23985 0.768,2.42336 0.399,-2.7778 z m -62.182,-8.15375 c 0,-0.2481 -0.432,-0.41848 -0.961,-0.37863 -0.528,0.0399 -0.96,0.24285 -0.96,0.4511 0,0.20824 0.432,0.37863 0.96,0.37863 0.529,0 0.961,-0.203 0.961,-0.4511 z m -3.058,-0.63112 c -0.17,-1.1238 -0.839,-1.8037 -1.774,-1.8037 -1.24,0 -1.18,0.73325 0.135,1.65618 1.292,0.90553 1.76,0.94771 1.639,0.14752 z m -10.728,-3.41052 c 0.136,-0.35466 0.08,-0.91392 -0.122,-1.24279 -0.275,-0.44559 -0.447,-0.39381 -0.676,0.2032 -0.169,0.44063 -0.307,0.99989 -0.307,1.2428 0,0.67653 0.826,0.52462 1.105,-0.20321 z m 8.502,0.16387 c 0.522,-0.33737 0.123,-0.45895 -1.441,-0.43982 -1.645,0.0201 -1.932,0.12523 -1.201,0.43982 1.286,0.55335 1.787,0.55335 2.642,0 z m -4.323,-9.83182 c 0,-0.11666 -0.216,-0.34587 -0.48,-0.50937 -0.264,-0.16349 -0.481,-0.068 -0.481,0.21211 0,0.28015 0.217,0.50937 0.481,0.50937 0.264,0 0.48,-0.0955 0.48,-0.21211 z m 7.205,-4.57211 c 0,-0.23182 -0.27,-0.38046 -0.6,-0.33029 -1.03,0.15645 -1.829,0.83204 -1.54,1.30116 0.319,0.51633 2.14,-0.30998 2.14,-0.97087 z m 7.926,0.93634 c 0.163,-0.26455 -0.03,-0.48099 -0.424,-0.48099 -0.396,0 -0.854,0.21644 -1.017,0.48099 -0.163,0.26454 0.03,0.48098 0.424,0.48098 0.396,0 0.854,-0.21644 1.017,-0.48098 z m 0.721,-2.40493 c 0,-0.26454 -0.1,-0.48099 -0.212,-0.48099 -0.117,0 -0.346,0.21645 -0.509,0.48099 -0.163,0.26454 -0.07,0.48098 0.212,0.48098 0.28,0 0.509,-0.21644 0.509,-0.48098 z m 3.592,-0.46964 c 0.473,-0.52285 1.046,-0.83474 1.275,-0.6931 0.229,0.14165 0.416,-0.22167 0.416,-0.80736 0,-0.97288 -0.07,-1.00154 -0.84,-0.33164 -0.462,0.40329 -1.111,0.63524 -1.441,0.51545 -0.33,-0.1198 -0.601,-0.009 -0.601,0.24715 0,0.25574 -0.486,0.61105 -1.08,0.78959 -1.05,0.3154 -1.054,0.33653 -0.12,0.74377 1.374,0.5998 1.441,0.58676 2.391,-0.46386 z m 1.932,-5.30219 c 0.163,-0.26454 -0.05,-0.48098 -0.481,-0.48098 -0.427,0 -0.643,0.21644 -0.48,0.48098 0.163,0.26455 0.379,0.48099 0.48,0.48099 0.101,0 0.317,-0.21644 0.481,-0.48099 z m -62.486,180.19733 c -0.265,-0.69073 2.07,-8.85832 3.478,-12.16563 0.355,-0.8336 0.645,-1.85098 0.645,-2.26085 0,-0.95303 3.237,-11.15404 4.144,-13.05799 l 0.687,-1.44295 -0.222,1.79543 c -0.214,1.72868 -1.77,7.20679 -3.69,12.99598 -1.239,3.73502 -3.222,11.3352 -3.409,13.06865 -0.167,1.55054 -1.191,2.21983 -1.633,1.06736 z m -29.304,-19.90895 c -0.705,-8.85652 -0.484,-16.06267 0.459,-14.99071 0.376,0.4264 0.673,19.68032 0.304,19.68032 -0.215,0 -0.558,-2.11032 -0.763,-4.68961 z m 4.327,1.635 c -0.171,-0.4458 -0.08,-1.40188 0.199,-2.12462 0.467,-1.20241 0.982,-9.91829 1.024,-17.30684 0.01,-2.34391 0.176,-3.00616 0.737,-3.00616 0.957,0 0.947,2.6424 -0.05,13.70809 -0.748,8.30062 -1.23,10.50378 -1.91,8.72953 z m 135.097,-16.50546 c -0.176,-0.17636 -0.32,-0.71068 -0.32,-1.18737 0,-0.60952 -0.236,-0.7759 -0.796,-0.56068 -1.316,0.50535 -0.488,-2.80407 1.535,-6.13829 1.444,-2.38047 1.879,-2.7941 2.443,-2.32526 0.593,0.49298 0.587,0.70758 -0.05,1.58314 -1.133,1.56749 -2.656,4.51924 -2.656,5.14694 0,0.54007 1.563,-1.2067 1.977,-2.21014 0.109,-0.26454 0.952,-1.65274 1.873,-3.08488 2.329,-3.62191 2.427,-1.95796 0.14,2.3879 -1.005,1.91145 -2.208,4.20299 -2.672,5.09232 -0.9,1.72344 -0.981,1.79394 -1.478,1.29632 z m -10.407,-2.13315 c 0,-0.66178 0.554,-4.22227 1.232,-7.91221 0.678,-3.68993 1.551,-8.65696 1.941,-11.03783 0.974,-5.94781 2.127,-9.8602 2.907,-9.8602 0.81,0 0.805,0.33643 -0.06,4.26004 -1.392,6.32017 -3.565,16.74168 -4.327,20.74896 -0.778,4.09089 -1.694,6.14683 -1.694,3.80124 z m -77.74,-4.97854 c 0.175,-5.37853 0.685,-6.69701 2.218,-5.73496 1.396,0.87567 1.351,9.17347 -0.05,8.70693 -0.312,-0.10403 -0.567,-0.42363 -0.567,-0.71022 0,-0.28659 -0.162,-0.6834 -0.36,-0.8818 -0.198,-0.19841 -0.36,0.5411 -0.36,1.64336 0,1.12689 -0.23,2.00411 -0.524,2.00411 -0.356,0 -0.472,-1.61661 -0.36,-5.02742 z m 10.385,2.29375 c -0.368,-0.71374 0.598,-15.70381 1.293,-20.06259 0.639,-4.01227 1.292,-5.6646 1.97,-4.9854 0.161,0.16052 0.05,1.76942 -0.255,3.57533 -0.952,5.71248 -1.379,9.39544 -1.661,14.34613 -0.349,6.12044 -0.756,8.27403 -1.347,7.12653 z m 71.678,-0.6235 c 0,-1.02243 0.915,-3.60796 2.642,-7.465 0.592,-1.32271 1.697,-3.80761 2.455,-5.522 0.758,-1.71438 1.44,-2.79649 1.515,-2.40467 0.186,0.96882 -1.964,7.02981 -5.329,15.0212 -0.651,1.54671 -1.283,1.72914 -1.283,0.37047 z m -75.591,-5.25897 c 0.162,-0.81326 -0.08,-3.7556 -0.534,-6.53854 -0.837,-5.10884 -0.747,-6.73494 0.35,-6.37018 0.388,0.12894 0.788,2.11588 1.13,5.61943 0.549,5.6125 0.347,8.23753 -0.658,8.57309 -0.413,0.13801 -0.498,-0.23652 -0.288,-1.2838 z"
         id="path1" /></g></g></svg>
