<?xml version="1.0" encoding="UTF-8" standalone="no"?>
<!-- Created with Inkscape (http://www.inkscape.org/) -->

<svg
   width="61.221001mm"
   height="62.240601mm"
   viewBox="0 0 61.221 62.240601"
   version="1.1"
   id="svg1"
   xml:space="preserve"
   xmlns="http://www.w3.org/2000/svg"
   xmlns:svg="http://www.w3.org/2000/svg"><defs
     id="defs1" /><g
     id="layer1"
     transform="translate(1472.671,3650.7208)"><g
       id="g929"
       transform="matrix(0.26458333,0,0,0.26458333,-3914.0096,-3727.7745)"
       style="display:inline"><path
         style="fill:#000000"
         d="m 9291.2447,506.40861 c 0,-0.26419 0.337,-0.48034 0.7489,-0.48034 0.4119,0 0.6153,0.21615 0.4521,0.48034 -0.1633,0.26418 -0.5004,0.48034 -0.749,0.48034 -0.2486,0 -0.452,-0.21616 -0.452,-0.48034 z m 55.9216,-0.0563 c -0.6031,-0.78894 -2.1177,-6.24004 -2.1177,-7.62183 0,-1.02242 0.698,-1.30139 1.2047,-0.48152 1.451,2.34753 2.3046,9.9237 0.913,8.10335 z m -58.9241,-0.30357 c -0.5235,-0.11887 -0.8407,-0.64058 -0.8407,-1.38286 0,-1.11406 1.3818,-4.79679 2.4099,-6.42299 0.2505,-0.39628 0.8823,-1.60665 1.4039,-2.68972 0.5216,-1.08307 2.1338,-4.43343 3.5827,-7.44524 1.4488,-3.01181 3.2929,-6.66486 4.0979,-8.11788 1.5862,-2.86305 5.4899,-11.12734 7.2606,-15.37081 0.6063,-1.45303 1.3688,-2.96609 1.6945,-3.36237 0.3256,-0.39628 0.9071,-1.47704 1.292,-2.40169 1.8486,-4.44022 16.4549,-16.92029 24.6164,-21.03307 1.5853,-0.79887 3.8551,-2.17025 5.0441,-3.04752 2.6987,-1.99121 4.3608,-2.98987 7.5662,-4.54623 1.3871,-0.67351 2.522,-1.32373 2.522,-1.44494 0,-1.05369 -1.7552,-3.76659 -3.8178,-5.90086 -2.6086,-2.69918 -3.7233,-4.71302 -3.0058,-5.43041 0.6934,-0.69337 2.0197,0.12495 2.0197,1.24619 0,0.60929 0.9067,1.9392 2.1618,3.17082 1.9368,1.90063 2.1617,2.00861 2.1617,1.03775 0,-0.59599 0.5296,-1.57436 1.1769,-2.17415 1.1757,-1.08952 1.176,-1.09191 0.2748,-2.57366 -2.5073,-4.12235 -14.3852,-14.59229 -14.4529,-12.73969 -0.085,2.33092 -0.3985,4.17395 -0.8663,5.09719 -0.2858,0.56391 -0.9667,2.25118 -1.5131,3.74948 -0.629,1.72483 -1.9824,3.83936 -3.6892,5.76406 -3.1812,3.58719 -4.1203,4.20095 -6.4631,4.22369 -1.6961,0.0165 -1.7704,0.0918 -2.2653,2.29862 -0.2815,1.25489 -0.7526,3.973 -1.0471,6.04025 -0.2944,2.06725 -0.8046,4.39919 -1.1338,5.18208 -0.7317,1.73981 -6.8848,8.59162 -7.7156,8.59162 -0.3291,0 -1.5894,0.75653 -2.8005,1.68118 -2.394,1.82776 -3.4388,2.03044 -4.8735,0.9454 -1.25,-0.94532 -3.0426,-0.88847 -7.4166,0.23521 -2.0134,0.51724 -4.233,1.05617 -4.9325,1.19762 -0.6995,0.14145 -2.1791,1.01516 -3.2881,1.94159 -2.2882,1.91153 -2.5279,1.97403 -3.571,0.93106 -0.4396,-0.43951 -1.1359,-0.63199 -1.6714,-0.46203 -0.6965,0.22104 -1.1024,-0.0785 -1.6828,-1.24181 -0.4207,-0.84322 -0.7649,-1.80364 -0.7649,-2.13428 0,-0.44238 -0.7481,-0.53333 -2.8322,-0.34437 -2.5608,0.23217 -2.8862,0.15582 -3.3961,-0.79676 -0.4417,-0.8252 -0.4265,-1.21545 0.07,-1.80051 1.3615,-1.60449 8.844,-15.91092 8.4818,-16.217 -0.089,-0.0752 -0.6481,-0.3897 -1.2426,-0.69897 -0.8124,-0.42263 -1.0808,-0.98596 -1.0808,-2.26791 0,-1.59121 0.1611,-1.77366 2.4019,-2.72029 1.3211,-0.55807 2.402,-1.17814 2.402,-1.37792 0,-0.71401 -3.3785,-0.99713 -4.8124,-0.40328 -1.5568,0.64479 -2.8739,0.0659 -2.8739,-1.26315 0,-0.36393 -0.2162,-0.6617 -0.4804,-0.6617 -0.7637,0 -0.5564,-1.92232 0.2402,-2.22798 0.3963,-0.15207 0.7206,-0.51326 0.7206,-0.80265 0,-0.28939 0.6824,-1.23009 1.5163,-2.09045 1.2388,-1.27792 1.4092,-1.69337 0.9311,-2.26945 -0.4003,-0.48221 -1.105,-0.62084 -2.229,-0.43846 -0.904,0.14669 -2.2958,-0.003 -3.0928,-0.33347 -3.1116,-1.28869 -1.2625,-5.36884 4.9573,-10.93892 1.7655,-1.58102 3.7526,-4.98659 4.3452,-7.4467 0.2796,-1.16067 0.1045,-1.4577 -1.3725,-2.32905 -1.3808,-0.81461 -1.6929,-1.28444 -1.6929,-2.54872 0,-1.0178 0.3985,-1.92425 1.1604,-2.63996 0.6382,-0.59948 1.2927,-1.61748 1.4546,-2.26224 0.5378,-2.14255 4.253,-2.68409 9.6044,-1.39995 1.6021,0.38446 5.2191,1.24061 8.0376,1.90255 7.185,1.68738 22.6518,9.00852 27.6809,13.10255 1.3974,1.1376 2.733,2.06837 2.9681,2.06837 0.2351,0 0.713,0.27244 1.0622,0.60541 0.3491,0.33297 2.9125,2.1434 5.6963,4.02318 4.9351,3.33245 10.4569,8.48635 12.8243,11.9698 1.5516,2.28317 1.8289,1.85747 0.6227,-0.95606 -1.5649,-3.6504 -9.0123,-10.59581 -15.281,-14.25106 -2.832,-1.6513 -6.7694,-4.05205 -8.7498,-5.335 -1.9804,-1.28295 -5.7635,-3.4373 -8.4069,-4.78744 -2.6433,-1.35015 -5.3465,-2.82608 -6.0071,-3.27987 -1.4908,-1.02415 -11.4918,-4.57536 -16.3333,-5.79968 -4.0352,-1.02043 -8.4336,-1.17643 -11.2356,-0.39852 -1.3983,0.38822 -1.9561,0.37594 -2.2186,-0.0488 -0.1929,-0.31208 -0.4511,-5.09286 -0.5737,-10.62394 -0.1268,-5.71937 -0.4293,-10.2629 -0.7015,-10.53507 -0.7548,-0.7547 0.062,-5.18594 1.523,-8.26208 1.9687,-4.14533 2.8658,-4.19054 9.4696,-0.47728 2.4657,1.38647 3.9925,1.99741 4.1101,1.64462 0.1029,-0.30871 0.4561,-0.56129 0.7849,-0.56129 0.3287,0 1.9861,-0.56381 3.683,-1.25292 5.7139,-2.32043 15.1737,-10.31147 20.1243,-16.99992 2.4471,-3.30605 4.3369,-4.9439 7.7011,-6.67456 4.087,-2.10241 5.5259,-2.40877 12.461,-2.65319 5.5464,-0.19548 6.7648,-0.10112 8.6471,0.66971 3.3576,1.37499 3.5622,1.39413 4.6227,0.43226 0.8141,-0.73834 1.1304,-0.79164 1.7751,-0.29912 0.4315,0.32963 0.8504,0.91646 0.931,1.30407 0.081,0.38762 1.0112,1.28827 2.068,2.00146 3.8406,2.59168 6.8201,5.87193 8.6457,9.51835 l 1.7916,3.57847 -0.3115,8.42998 c -0.4714,12.75961 -0.7879,17.84252 -1.2428,19.95809 -0.2272,1.05674 -0.5656,4.03695 -0.7519,6.62268 -0.3028,4.20055 -0.2471,4.7684 0.5223,5.33094 0.9931,0.72609 0.5863,1.73601 -0.6992,1.73601 -0.5028,0 -0.9999,-0.46075 -1.1661,-1.08076 -0.4465,-1.6659 -0.3382,-6.50731 0.223,-9.96702 0.2785,-1.7172 0.5826,-3.9868 0.6758,-5.04354 0.093,-1.05675 0.2834,-3.11019 0.4228,-4.56321 0.1394,-1.45303 0.3843,-6.9649 0.5442,-12.24862 l 0.2908,-9.60676 -1.3498,-2.4879 c -0.7424,-1.36834 -1.8001,-2.98948 -2.3504,-3.60253 -2.5534,-2.84422 -7.1886,-6.53594 -7.6398,-6.08478 -0.1119,0.11194 0.1015,1.05987 0.4743,2.1065 0.3729,1.04663 0.6848,2.87565 0.6933,4.06448 0.01,1.18884 0.27,5.72803 0.5811,10.0871 0.5652,7.91837 0.5645,7.93099 -0.7817,13.87932 -0.7412,3.27455 -1.7297,6.94914 -2.1968,8.16574 -1.5661,4.07878 -1.8534,5.07492 -2.647,9.17691 -0.4344,2.24558 -1.0865,4.55257 -1.4491,5.12665 -0.6325,1.00141 -0.5672,1.06349 1.6094,1.52944 3.5393,0.75765 6.6031,1.04685 12.8373,1.21174 4.8735,0.1289 6.1139,0.32528 8.0233,1.27025 2.9209,1.44562 3.5615,2.87264 2.5616,5.70645 -1.3613,3.85788 -5.7861,9.17453 -12.2803,14.7556 -0.6528,0.56101 -2.0117,2.07408 -3.0198,3.36236 -1.0081,1.28829 -4.0775,4.63818 -6.8209,7.44419 -4.9268,5.03915 -5.8825,6.59498 -5.3491,8.70787 0.2107,0.83467 0.6328,1.0898 1.8535,1.12046 0.8694,0.0218 3.1077,0.71443 4.9739,1.53911 2.5981,1.14808 4.568,1.61366 8.4069,1.98692 7.3006,0.70987 9.9063,1.26796 15.8977,3.40498 2.9538,1.05355 5.7125,1.91669 6.1305,1.91809 1.3819,0.005 9.3607,4.28453 12.0492,6.46337 1.4532,1.17768 2.9339,2.14999 3.2904,2.1607 0.9177,0.0276 8.41,7.78192 11.3893,11.78775 1.3755,1.8493 3.0917,3.90274 3.8138,4.56321 4.8017,4.39172 11.2908,17.71093 11.2908,23.17478 0,2.90355 -0.7548,2.07768 -1.4453,-1.58139 -0.3512,-1.8613 -0.8182,-3.49519 -1.0378,-3.63088 -0.2196,-0.13569 -0.3992,-0.56042 -0.3992,-0.94384 0,-1.0731 -3.4787,-7.87006 -5.9137,-11.55476 -1.2003,-1.81632 -3.3331,-4.54456 -4.7397,-6.06277 -1.4066,-1.5182 -3.5302,-3.98881 -4.7192,-5.49024 -4.1638,-5.25803 -6.0092,-6.99635 -10.7918,-10.1656 -6.1504,-4.07559 -10.2093,-6.2058 -13.8983,-7.29423 -1.6128,-0.47585 -4.4457,-1.41561 -6.2952,-2.08836 -4.7794,-1.7385 -11.8978,-3.18299 -15.6856,-3.18299 -2.5819,0 -4.1484,-0.35367 -7.7088,-1.74042 -2.4576,-0.95723 -4.8636,-1.94236 -5.3467,-2.18916 -0.6745,-0.34454 -0.9333,-0.24712 -1.1146,0.41949 -0.1298,0.47753 -1.464,1.49128 -2.9647,2.25279 -1.5007,0.76151 -4.2732,2.41866 -6.1611,3.68256 -1.8878,1.26391 -5.1305,3.22701 -7.2059,4.36245 -3.9978,2.18723 -5.4929,3.13998 -8.5696,5.46091 -3.5785,2.69946 -4.3278,3.36289 -8.5311,7.55351 -4.3699,4.35676 -6.7325,7.60985 -8.6977,11.97618 -0.6352,1.41122 -1.9622,4.29382 -2.949,6.40578 -0.9868,2.11196 -2.2181,4.92194 -2.7361,6.24439 -0.518,1.32246 -1.5618,3.37716 -2.3195,4.56599 -1.259,1.9752 -6.24,12.15951 -6.24,12.75834 0,0.14037 -0.9694,2.22048 -2.1542,4.62246 -1.4341,2.90737 -2.0635,4.72894 -1.8827,5.44927 0.302,1.20276 -0.1068,1.59351 -1.3675,1.30727 z m -0.5974,-58.505 c 2.8947,-2.80333 3.8808,-3.07608 2.4666,-0.68223 -1.0715,1.81368 -0.4867,1.81538 1.6318,0.005 1.8477,-1.57915 3.1401,-1.91146 2.67,-0.68654 -0.2132,0.55546 -0.091,0.69481 0.4338,0.49355 1.5076,-0.57845 7.0014,-1.35684 7.6959,-1.09039 1.3367,0.5129 3.4954,-0.23203 3.7946,-1.30944 l 0.2858,-1.02923 0.855,1.101 0.855,1.10101 1.0406,-1.10756 c 0.5723,-0.60916 1.3719,-1.9004 1.7768,-2.86943 0.8464,-2.0253 1.6545,-2.6972 2.1941,-1.8242 0.4325,0.6997 1.0991,-0.33815 1.622,-2.52513 0.198,-0.82834 0.6348,-1.32093 1.1713,-1.32093 0.7209,0 0.8382,-0.37729 0.7455,-2.39684 -0.083,-1.79741 0.086,-2.50647 0.6732,-2.83518 0.4482,-0.25079 1.0132,-1.58932 1.3206,-3.12853 0.5152,-2.5799 0.4908,-2.72064 -0.5955,-3.43229 -1.0666,-0.69882 -1.3728,-0.62534 -5.2513,1.26036 -4.072,1.9798 -4.1818,2.00315 -9.7096,2.06451 -6.6131,0.0734 -8.4286,-0.57397 -10.6457,-3.79592 -0.7746,-1.12573 -2.5483,-2.92078 -3.9415,-3.989 -1.3933,-1.06822 -2.9436,-2.31144 -3.4451,-2.76272 -0.747,-0.67226 -1.0805,-0.71516 -1.8455,-0.23746 -0.7674,0.4792 -1.0373,0.44137 -1.5154,-0.21242 -0.4781,-0.65382 -0.6709,-0.68082 -1.0824,-0.15166 -1.3306,1.71109 -1.1146,2.2018 1.0779,2.44889 2.829,0.31884 5.4633,2.13937 6.8359,4.72434 l 1.1175,2.10445 -1.5124,1.35117 c -0.8318,0.74315 -1.8096,2.06244 -2.1728,2.93176 -0.3633,0.86931 -1.414,2.15522 -2.3349,2.85756 -0.9209,0.70234 -1.826,1.76347 -2.0112,2.35807 -0.1852,0.59459 -1.2807,2.72346 -2.4344,4.73081 -2.2941,3.99153 -2.4296,4.37305 -1.4146,3.98361 0.3756,-0.14414 1.1526,-0.0108 1.7265,0.29631 l 1.0435,0.55839 -1.0897,1.15978 c -0.7982,0.84948 -0.9002,1.15978 -0.3815,1.15978 0.3896,0 0.9532,-0.24485 1.2525,-0.54412 0.7467,-0.74668 2.1042,-0.15618 1.7518,0.76206 -0.414,1.07865 1.137,1.48224 2.1553,0.56083 0.4733,-0.42832 1.0057,-0.77877 1.1831,-0.77877 0.7348,0 0.2365,1.0824 -0.9986,2.16938 -0.9871,0.86871 -1.1221,1.16647 -0.5339,1.17781 0.4329,0.008 2.0256,-1.18423 3.5394,-2.65018 z m -10.5717,-0.69701 c -0.1633,-0.26418 -0.5003,-0.48033 -0.7489,-0.48033 -0.2487,0 -0.4521,0.21615 -0.4521,0.48033 0,0.26419 0.337,0.48034 0.749,0.48034 0.4119,0 0.6153,-0.21615 0.452,-0.48034 z m 7.9265,-18.30358 c 0,-0.2921 0.5404,-1.17329 1.201,-1.95821 1.5426,-1.83309 1.5154,-2.82942 -0.1167,-4.2718 -1.2593,-1.11289 -1.2761,-1.11535 -0.3805,-0.0556 1.2681,1.50041 0.5792,2.53024 -2.3107,3.45433 -2.5002,0.79948 -2.7716,1.74076 -0.7908,2.7428 1.4846,0.75104 2.3977,0.78474 2.3977,0.0885 z m 27.3127,-4.72464 c 3.409,-1.7261 6.0195,-2.33526 6.5222,-1.52195 0.1813,0.2933 1.5246,0.53328 2.985,0.53328 2.5753,0 2.7309,-0.0773 5.1533,-2.55812 1.3737,-1.40696 3.0748,-3.7306 3.78,-5.16363 3.9474,-8.02106 4.169,-9.70506 1.6134,-12.26031 -1.4285,-1.4284 -1.9391,-1.63315 -4.0722,-1.63315 -2.0845,0 -2.5556,0.17809 -3.242,1.22551 -0.5481,0.83632 -0.9593,1.06927 -1.2951,0.73353 -0.8509,-0.85076 0.4095,-2.79391 2.0452,-3.15313 2.725,-0.59843 1.7149,-1.5863 -5.2535,-5.13818 -10.0399,-5.11742 -15.2197,-7.21147 -21.1373,-8.54511 -2.51,-0.56569 -5.8317,-1.35864 -7.3816,-1.76212 -2.0245,-0.52704 -2.9645,-0.58695 -3.3387,-0.21279 -0.2865,0.28644 -1.103,0.5208 -1.8145,0.5208 -1.9607,0 -2.1336,1.28528 -0.2991,2.22319 0.8496,0.43436 2.356,1.51683 3.3476,2.40548 0.9915,0.88864 2.0398,1.61572 2.3293,1.61572 0.2896,0 1.3158,0.34226 2.2805,0.76058 0.9647,0.41832 2.4566,1.06328 3.3153,1.43324 1.8208,0.78448 2.2451,2.45959 0.4804,1.89622 -0.5945,-0.18978 -2.1618,-0.50686 -3.4829,-0.70462 -1.3211,-0.19777 -2.7262,-0.48196 -3.1225,-0.63154 -0.3964,-0.14958 -1.9551,-0.39898 -3.4638,-0.55421 l -2.7432,-0.28223 -0.5456,2.04339 c -0.7203,2.69761 -2.7346,7.08694 -3.2523,7.08694 -0.9356,0 -6.2912,5.94213 -6.5927,7.31465 -0.3827,1.74223 0.3877,2.40403 2.0589,1.76869 1.6135,-0.61336 3.1575,-0.11601 4.7279,1.52296 0.836,0.87254 1.8342,1.40215 2.6427,1.40215 1.7901,0 2.1746,-1.76144 1.1177,-5.12115 -0.6491,-2.06344 -0.7029,-2.84176 -0.2631,-3.80692 0.6624,-1.45362 1.7038,-1.03744 1.3118,0.52423 -0.1516,0.60396 0.047,1.87035 0.4414,2.8142 0.9142,2.18762 0.9197,5.13829 0.012,6.33843 -0.9738,1.28733 -0.9161,1.50351 0.4954,1.85774 0.6772,0.16994 2.9276,2.03046 5.001,4.13448 2.0734,2.10402 4.2756,4.03559 4.8938,4.29238 0.6182,0.25678 3.5019,0.39494 6.4083,0.30701 4.833,-0.14622 5.545,-0.29189 8.3372,-1.70564 z m -12.9407,-2.53625 c -1.744,-2.15436 -2.8382,-4.30192 -2.8495,-5.59256 -0.01,-0.96731 2.9798,-6.78966 3.4847,-6.78966 0.6232,0 0.4066,1.26524 -0.6305,3.68279 -1.4811,3.45279 -1.3453,4.53907 0.9238,7.38863 1.0965,1.37694 1.9936,2.69145 1.9936,2.92112 0,1.02842 -1.4189,0.24646 -2.9221,-1.61032 z m 5.5707,-1.32022 c -0.4731,-1.04891 -1.2625,-2.27125 -1.7544,-2.7163 -1.2071,-1.09232 -1.125,-3.10115 0.2492,-6.09488 1.2512,-2.72569 2.8308,-4.44476 3.6302,-3.95071 0.7912,0.48889 0.6036,1.61636 -0.3541,2.12885 -0.4756,0.25453 -1.4784,1.67536 -2.2283,3.15741 -1.3541,2.67612 -1.3571,2.70193 -0.4362,3.75709 0.9542,1.09323 2.5685,4.33734 2.5685,5.16162 0,1.08163 -0.8771,0.3259 -1.6749,-1.44308 z m 17.0475,-1.21508 c 0,-0.48544 0.4856,-0.7205 1.4886,-0.7205 1.9234,0 3.8998,-2.07337 5.173,-5.42691 0.5217,-1.37427 1.3099,-3.20943 1.7515,-4.07813 0.4417,-0.86871 0.6818,-1.89543 0.5336,-2.28161 -0.386,-1.00565 -2.3658,-0.8659 -3.6624,0.25854 -1.3067,1.13312 -1.9216,1.22113 -1.9216,0.27503 0,-1.13759 2.4049,-2.67672 4.1824,-2.67672 1.9787,0 3.0235,0.91567 3.0235,2.64966 0,1.82202 -4.2758,10.19388 -5.9075,11.56673 -1.5927,1.34002 -4.6611,1.62566 -4.6611,0.43391 z m -1.1146,-1.5147 c -0.4114,-0.41138 1.4688,-3.54264 2.7523,-4.58367 0.8039,-0.65203 0.8846,-0.9349 0.4039,-1.417 -0.7933,-0.79573 -0.7627,-2.07931 0.066,-2.76694 0.5403,-0.44843 0.7126,-0.25517 0.9107,1.02195 0.1343,0.86623 0.3991,2.05746 0.5883,2.64718 0.2797,0.87163 0.066,1.2311 -1.1408,1.92136 -0.8167,0.46701 -1.7319,1.44354 -2.0337,2.17005 -0.5502,1.32457 -0.9614,1.59229 -1.5467,1.00707 z m -18.276,-12.31107 c -0.9575,-2.50676 -0.9673,-2.74589 -0.1123,-2.74589 0.6942,0 1.7284,2.3421 1.7284,3.91438 0,1.54479 -0.801,0.96565 -1.6161,-1.16849 z m -15.9305,-2.28529 c -0.1708,-0.27647 -0.088,-0.7708 0.1839,-1.09849 0.3238,-0.39014 0.342,-1.25341 0.053,-2.50074 -0.6422,-2.76958 -0.5693,-4.06644 0.2287,-4.06644 0.3813,0 0.9758,0.39801 1.3211,0.88445 1.0985,1.54775 2.5682,1.97358 7.9068,2.29083 2.8661,0.17032 5.2919,0.38085 5.3905,0.46784 0.099,0.087 0.051,0.49171 -0.105,0.89938 -0.2204,0.57427 -1.0732,0.74122 -3.7862,0.74122 -2.8282,0 -3.9427,0.23472 -5.7942,1.22026 -1.2609,0.67114 -2.4977,1.09345 -2.7485,0.93846 -0.2508,-0.15499 -0.8797,-0.0551 -1.3976,0.22206 -0.6554,0.35071 -1.036,0.35107 -1.2523,0.001 z m 17.6667,-1.22166 c -1.5784,-0.69018 -1.9549,-1.34072 -1.0865,-1.87737 0.6912,-0.42711 4.9363,1.56429 4.5763,2.14673 -0.4041,0.65389 -1.5873,0.56257 -3.4898,-0.26936 z m -0.1201,-3.68489 c 0,-0.77685 2.6869,-1.97592 3.4168,-1.52483 0.3771,0.23299 0.1867,0.62891 -0.5892,1.22545 -1.3246,1.01839 -2.8276,1.17752 -2.8276,0.29938 z m -22.0981,23.00349 1.6814,0.0125 -1.4245,-0.58518 c -1.5293,-0.62821 -3.1987,-0.27425 -3.5403,0.75067 -0.1534,0.46009 0.035,0.51979 0.6958,0.22033 0.4984,-0.22593 1.6629,-0.40516 2.5876,-0.3983 z m 73.0196,-4.54076 c 0,-0.60217 6.3734,-7.43104 12.0789,-12.94225 5.5465,-5.35756 9.0651,-9.90604 8.2745,-10.69654 -0.262,-0.26201 -2.4087,-0.69283 -4.7703,-0.95738 -4.1308,-0.46273 -8.3526,-1.02698 -14.2966,-1.91071 -2.1207,-0.3153 -3.3989,-0.87035 -5.2871,-2.2958 -1.3697,-1.03399 -3.2351,-2.26507 -4.1454,-2.73574 -0.9103,-0.47068 -1.9513,-1.15197 -2.3133,-1.51399 -0.3621,-0.36202 -0.8377,-0.65822 -1.0569,-0.65822 -0.2192,0 -1.7037,-1.29691 -3.2988,-2.88203 -3.0167,-2.99763 -3.8731,-3.37586 -4.8847,-2.15717 -0.3309,0.39867 -1.4164,1.18277 -2.4124,1.74244 -3.3411,1.87762 -3.6451,4.73777 -0.5036,4.73777 1.6505,0 2.4393,-0.80769 2.4393,-2.49776 0,-1.7734 1.4822,-1.81469 2.8474,-0.0793 1.1279,1.43367 1.2797,3.00523 0.3952,4.09198 -1.0866,1.33518 -3.4849,2.71995 -5.3005,3.06052 -0.9819,0.18418 -1.7853,0.60155 -1.7853,0.92748 0,1.00454 -1.782,2.26824 -2.9628,2.10102 -0.707,-0.10012 -1.3865,-0.72851 -1.8411,-1.70269 l -0.7206,-1.54402 -3.1225,0.27807 -3.1226,0.27806 -2.2818,-2.12999 c -1.6001,-1.49352 -2.2819,-2.50618 -2.2819,-3.38899 0,-0.69246 -0.1685,-1.36314 -0.3744,-1.4904 -0.206,-0.12726 -2.7996,-0.34832 -5.7637,-0.49124 -2.9641,-0.14292 -5.7967,-0.47785 -6.2946,-0.74429 -2.088,-1.11737 -1.4209,-3.61273 1.1435,-4.27684 1.3582,-0.35174 1.455,-0.53738 1.6813,-3.22355 0.2148,-2.54875 0.384,-2.91892 1.5993,-3.49881 1.1889,-0.56733 1.6399,-0.53326 3.6029,0.27227 2.563,1.05168 2.9185,2.16395 0.8086,2.52937 -1.8154,0.31443 -2.068,1.47957 -0.7284,3.36061 1.7897,2.51311 4.8059,1.6672 4.8059,-1.34784 0,-0.5134 0.3334,-1.21013 0.7409,-1.54831 0.5141,-0.42657 0.5876,-0.76819 0.2402,-1.11555 -0.2754,-0.27539 -0.5007,-0.95553 -0.5007,-1.51144 0,-0.5559 -0.6158,-1.9816 -1.3684,-3.16821 -1.2214,-1.92573 -1.6987,-2.25173 -4.4436,-3.03505 -8.2255,-2.34728 -15.8559,-5.74018 -20.7308,-9.218 -1.2556,-0.89579 -2.6783,-1.62871 -3.1615,-1.62871 -1.6925,0 -3.0093,4.37303 -2.3142,7.68541 0.2495,1.18884 0.4948,5.99903 0.545,10.68932 0.05,4.6903 0.1866,8.62296 0.3029,8.73926 0.1163,0.11629 1.5027,0.0338 3.0807,-0.18331 1.5875,-0.21839 4.2524,-0.20132 5.9653,0.0382 4.4595,0.62364 18.3762,5.38262 20.9814,7.17488 1.1977,0.82394 3.9474,2.3273 6.1103,3.34079 2.163,1.0135 4.8468,2.50477 5.9639,3.31395 1.1172,0.80917 2.1952,1.47571 2.3957,1.4812 1.1941,0.0327 13.6714,8.03494 16.5374,10.60621 3.8072,3.41563 7.6065,8.21606 7.6065,9.61085 0,0.58761 0.3389,0.90783 0.9607,0.90783 0.5285,0 0.9608,-0.17701 0.9608,-0.39336 z m -67.7353,-52.47216 c 0,-0.27978 0.2162,-0.3751 0.4804,-0.21182 0.2642,0.16327 0.4804,0.39218 0.4804,0.50868 0,0.11651 -0.2162,0.21183 -0.4804,0.21183 -0.2642,0 -0.4804,-0.22891 -0.4804,-0.50869 z m 1.2804,26.72814 c -3.1259,-2.78181 -5.7838,-3.34419 -6.4441,-1.36351 -0.2945,0.88346 4.4822,2.80972 7.3255,2.95411 0.7689,0.039 0.5929,-0.27857 -0.8814,-1.5906 z m 88.0726,-0.28827 c 0,-0.79762 -2.9474,-2.34662 -5.0285,-2.64269 -1.0655,-0.15158 -4.3151,-0.34666 -7.2215,-0.43352 -4.7203,-0.14106 -8.9128,-0.66305 -11.9362,-1.48613 -0.8785,-0.23917 -0.8252,-0.10439 0.3534,0.89423 1.61,1.36407 6.4096,2.36978 15.4259,3.23232 3.1706,0.30332 5.8548,0.63512 5.9649,0.73734 0.4352,0.40408 2.442,0.15627 2.442,-0.30155 z m -47.5485,-2.14196 c -0.886,-1.0675 -0.2923,-1.43575 2.4048,-1.49165 2.4421,-0.0506 5.7416,-1.75197 5.7482,-2.96397 0.01,-1.02014 -0.9107,-0.66788 -2.2964,0.8828 -1.1894,1.33103 -1.5119,1.44824 -3.1431,1.14226 -4.0082,-0.75185 -4.0725,-4.29389 -0.1383,-7.62068 3.5053,-2.9642 4.3794,-3.34852 6.1845,-2.71933 0.8228,0.2868 1.917,0.89703 2.4315,1.35605 0.8735,0.77938 0.867,0.69955 -0.099,-1.20685 -0.9018,-1.78026 -1.2369,-2.04143 -2.6191,-2.04143 -2.0808,0 -7.3415,4.00661 -8.63,6.57275 -1.3456,2.67976 -3.4871,4.73237 -5.6987,5.46218 -1.6611,0.54815 -2.1286,0.53812 -3.2137,-0.0689 -1.6933,-0.94734 -2.3934,-4.69294 -1.6,-8.56008 0.303,-1.47698 0.4536,-3.11772 0.3346,-3.64609 -1.8309,-8.12723 -2.829,-10.28806 -5.3642,-11.61319 -0.7511,-0.3926 -2.987,-1.00999 -4.9686,-1.37198 -5.2176,-0.95312 -10.4207,-2.93827 -13.6912,-5.22368 -2.8969,-2.02435 -5.8431,-3.54222 -7.5662,-3.89808 -1.2695,-0.26219 -1.0626,-0.0524 1.6814,1.70513 1.3871,0.88846 2.6323,1.77233 2.7671,1.96417 0.1347,0.19183 0.8393,0.49795 1.5658,0.68025 0.7264,0.18231 1.4255,0.5009 1.5535,0.70799 0.47,0.7604 7.3386,3.76821 12.0082,5.25849 7.9727,2.54444 8.1673,2.66119 9.5332,5.72096 1.9697,4.41253 1.9892,4.89079 0.3427,8.41219 l -1.4878,3.18163 h -2.3577 c -1.9672,0 -2.5205,-0.20695 -3.3407,-1.24957 -1.2506,-1.58969 -1.7336,-4.12011 -1.0354,-5.42458 0.4671,-0.87268 0.4086,-1.01125 -0.4272,-1.01125 -1.2138,0 -1.6657,1.60926 -1.3562,4.82942 l 0.2283,2.37565 h -1.8911 c -1.3028,0 -1.8268,0.18677 -1.6845,0.60042 0.1311,0.38076 1.1563,0.60042 2.8023,0.60042 1.4276,0 2.8698,0.17725 3.2047,0.39388 0.335,0.21664 1.9563,0.33859 3.603,0.27101 l 2.9939,-0.12287 0.2801,2.06816 c 0.2745,2.0261 0.7493,2.62793 3.6908,4.67746 0.9338,0.65065 1.3943,0.67288 3.2394,0.15636 2.389,-0.66882 3.5985,-0.17232 3.5985,1.4772 0,1.2682 1.5025,2.00827 2.3607,1.16281 0.5616,-0.55325 0.5706,-0.80023 0.052,-1.42543 z m -4.3358,-4.99188 c 0.6594,-0.48699 1.9121,-2.1057 2.7837,-3.59714 1.8295,-3.13061 6.9402,-7.31245 9.5305,-7.79834 1.9591,-0.36749 2.5959,0.0895 4.717,3.38492 1.7043,2.64783 5.2235,6.26521 6.0953,6.26521 0.3018,0 0.8082,-0.86461 1.1254,-1.92135 0.3171,-1.05674 1.0601,-2.97252 1.651,-4.25729 0.591,-1.28477 1.2925,-3.55436 1.559,-5.04355 0.2664,-1.48918 0.8094,-4.00452 1.2065,-5.58964 0.3972,-1.58511 1.0494,-6.88084 1.4493,-11.76828 0.7388,-9.0305 0.5488,-13.0932 -0.8398,-17.95555 -0.6807,-2.38341 -0.8734,-2.19341 -5.0587,4.98643 -8.2632,14.17555 -8.4738,14.63513 -8.8954,19.40999 -0.4236,4.79761 -1.2645,9.3925 -1.9082,10.42673 -0.3305,0.53097 -0.6013,0.54854 -1.3459,0.0873 -0.7863,-0.48712 -1.038,-0.41796 -1.6092,0.44225 -0.8468,1.27517 -1.8065,0.76333 -1.8261,-0.97392 -0.013,-1.10994 -0.084,-1.1738 -0.5043,-0.45199 -0.5802,0.99608 -1.6805,1.09719 -2.2195,0.20395 -0.2113,-0.35016 -0.7625,-0.77568 -1.2249,-0.9456 -1.1003,-0.40437 -1.051,-1.72402 0.1201,-3.22114 0.5167,-0.66046 0.9443,-1.43753 0.9501,-1.72682 0.01,-0.28928 0.4409,-0.91521 0.9666,-1.39094 0.5257,-0.47572 1.9389,-2.20368 3.1403,-3.8399 1.2014,-1.63622 2.8068,-3.43508 3.5675,-3.99747 0.8259,-0.6105 1.7748,-2.0691 2.3551,-3.61979 0.5345,-1.42849 2.3902,-4.89152 4.1236,-7.69561 1.7335,-2.80409 3.1517,-5.23169 3.1517,-5.39467 0,-0.16298 0.6667,-1.138 1.4816,-2.16671 1.7207,-2.17229 1.2549,-2.33021 -2.0206,-0.68518 -3.0587,1.53613 -5.5215,3.43777 -11.2606,8.69502 -7.9155,7.25091 -13.1161,12.90921 -15.2907,16.63647 -0.7251,1.2428 -1.716,2.38584 -2.202,2.54008 -1.01,0.3205 -0.9793,0.72442 0.4517,5.96082 0.7708,2.82071 0.9474,4.75635 0.8547,9.36659 -0.064,3.19612 0.071,6.10309 0.3016,6.45994 0.5339,0.82767 2.9757,0.39207 4.6236,-0.82482 z m 27.111,-3.11704 c 1.2294,-4.93645 0.695,-5.62837 -0.8344,-1.08023 -1.1848,3.52363 -1.2797,4.61344 -0.4013,4.61344 0.1957,0 0.7518,-1.58994 1.2357,-3.53321 z m -7.8934,0.005 c 0,-0.0912 -0.4638,-0.57749 -1.0307,-1.08076 -1.0251,-0.91014 -1.0276,-0.90925 -0.4635,0.16572 0.4683,0.89227 1.4942,1.52053 1.4942,0.91504 z m 13.2707,-19.52814 c 0.729,-2.1377 0.8924,-3.97099 0.8562,-9.60676 -0.08,-12.48517 -0.8731,-18.81774 -2.4313,-19.4156 -1.0647,-0.40853 -1.3018,-0.0614 -0.7114,1.0416 0.9703,1.8129 2.5522,11.19791 2.2736,13.48892 -0.2996,2.46321 -0.6787,7.13008 -1.0018,12.33032 -0.1149,1.8493 -0.5416,4.61579 -0.9482,6.14775 -1.359,5.12079 -0.6556,3.69235 1.9629,-3.98623 z m -39.3009,0.39727 c 0.7095,-0.83824 1.7474,-2.27559 2.3064,-3.19411 0.559,-0.91852 2.6127,-3.32172 4.5637,-5.34046 1.9511,-2.01874 4.2072,-4.41809 5.0137,-5.33189 2.0678,-2.34281 10.0208,-9.48826 13.294,-11.94411 1.5128,-1.13502 3.8907,-2.52919 5.2843,-3.09817 2.8372,-1.15837 5.0141,-2.55213 4.6128,-2.95337 -0.5232,-0.52308 -7.7178,2.62248 -9.6852,4.23447 -1.1049,0.90523 -2.9959,2.27176 -4.2023,3.03674 -5.3614,3.39971 -16.6067,14.90945 -20.831,21.32069 -2.8469,4.32083 -3.0835,6.49199 -0.3564,3.27021 z m -1.2603,-3.45925 c 2.299,-4.50595 16.4154,-18.91636 23.0027,-23.48186 1.4336,-0.99354 3.1478,-2.23895 3.8094,-2.76758 0.6617,-0.52863 2.4722,-1.4769 4.0234,-2.10728 2.5374,-1.03118 2.7223,-1.19858 1.8435,-1.66888 -0.6209,-0.33227 -2.8745,-0.43232 -6.1851,-0.2746 -8.0551,0.38375 -8.9356,0.54765 -12.803,2.38313 -3.4878,1.65533 -4.5626,2.58836 -8.3442,7.24369 -0.8399,1.03399 -2.2451,2.63652 -3.1226,3.56117 -0.8774,0.92465 -2.0509,2.27578 -2.6077,3.0025 -1.7623,2.30023 -12.3147,9.96662 -13.7186,9.96662 -0.4538,0 -0.9484,0.19952 -1.0992,0.44339 -0.1507,0.24386 -0.9201,0.58526 -1.7097,0.75867 -0.7896,0.17341 -1.4356,0.48531 -1.4356,0.69312 0,0.67313 7.025,2.96187 10.6201,3.46002 1.9234,0.26651 3.927,0.78561 4.4523,1.15354 1.1925,0.83519 1.9031,0.32183 3.2743,-2.36565 z m 23.0282,145.15966 c -0.2382,-0.61517 -1.0353,-3.06386 -1.7714,-5.44153 -0.7361,-2.37767 -1.489,-4.53919 -1.6731,-4.80338 -0.184,-0.26419 -0.5842,-1.25604 -0.8893,-2.20411 -0.3051,-0.94808 -1.0992,-2.46114 -1.7648,-3.36237 -0.6655,-0.90122 -1.5502,-2.82743 -1.9659,-4.28045 -0.4157,-1.45302 -1.02,-2.96609 -1.343,-3.36236 -0.323,-0.39628 -1.3634,-2.1255 -2.3121,-3.84271 -1.8373,-3.32547 -4.7078,-6.57028 -8.9985,-10.17189 -2.5598,-2.14871 -2.9877,-3.20032 -1.0522,-2.5861 0.5179,0.16437 2.8802,2.18352 5.2496,4.48699 4.3363,4.21567 7.7366,9.3522 9.927,14.99573 0.4614,1.18884 1.575,3.48542 2.4746,5.10352 1.9502,3.50762 6.0919,14.37457 5.885,15.44087 -0.2366,1.2191 -1.2983,1.23582 -1.7659,0.0278 z m -8.6045,-28.85801 c -1.0164,-1.38697 -2.8888,-4.03484 -4.1609,-5.88414 -1.272,-1.8493 -2.609,-3.70361 -2.971,-4.12069 -0.362,-0.41708 -0.6582,-1.11958 -0.6582,-1.5611 0,-1.49909 1.2457,-0.81112 2.2428,1.23867 0.5462,1.12279 1.9541,3.23027 3.1287,4.68329 2.7671,3.42306 5.1972,7.00087 5.1972,7.65187 0,1.12781 -1.0216,0.38957 -2.7786,-2.0079 z m -20.4968,-20.17419 c -0.4601,-1.48244 -0.7377,-5.64397 -0.3765,-5.64397 0.9874,0 1.5538,1.34831 1.5538,3.6986 0,2.30809 -0.7037,3.47097 -1.1773,1.94537 z m 77.0793,-7.56532 c 0,-0.26419 0.2162,-0.48034 0.4804,-0.48034 0.2642,0 0.4804,0.21615 0.4804,0.48034 0,0.26418 -0.2162,0.48034 -0.4804,0.48034 -0.2642,0 -0.4804,-0.21616 -0.4804,-0.48034 z m -50.201,-16.33149 c -0.1633,-0.26419 -0.1633,-0.69649 0,-0.96068 0.379,-0.61309 7.9265,-0.63458 7.9265,-0.0226 0,1.11563 -7.286,2.01943 -7.9265,0.98326 z m 4.0248,-4.60535 c -1.5303,-0.81621 -2.595,-2.02793 -2.1622,-2.46069 0.386,-0.38592 4.6059,1.82888 4.7562,2.49625 0.1643,0.72962 -1.1943,0.711 -2.594,-0.0356 z"
         id="path1" /></g></g></svg>
