<?xml version="1.0" encoding="UTF-8" standalone="no"?>
<!-- Created with Inkscape (http://www.inkscape.org/) -->

<svg
   width="61.273998mm"
   height="62.240601mm"
   viewBox="0 0 61.273998 62.240601"
   version="1.1"
   id="svg1"
   xml:space="preserve"
   xmlns="http://www.w3.org/2000/svg"
   xmlns:svg="http://www.w3.org/2000/svg"><defs
     id="defs1" /><g
     id="layer1"
     transform="translate(1481.4022,3606.5354)"><g
       id="g927"
       transform="matrix(0.26458333,0,0,0.26458333,-3861.6361,-3683.5891)"><path
         style="fill:#000000"
         d="m 9077.5696,503.66345 c -0.2896,-0.34951 -0.523,-1.26962 -0.5185,-2.04468 0,-0.77506 -0.1276,-2.17457 -0.2933,-3.11001 -0.1658,-0.93544 -0.09,-2.86711 0.169,-4.29259 0.3584,-1.97506 0.3109,-3.04436 -0.1997,-4.49375 -0.3714,-1.05424 -0.6701,-3.72249 -0.6701,-5.98655 0,-2.61927 -0.2927,-4.91005 -0.816,-6.38555 -0.6943,-1.95783 -0.739,-2.82837 -0.2996,-5.8378 0.414,-2.83576 0.3854,-3.81377 -0.1448,-4.93381 -0.3636,-0.76832 -0.6612,-2.77385 -0.6612,-4.45673 0,-1.68288 -0.1898,-3.43571 -0.4217,-3.89518 -1.0737,-2.12684 -1.9803,-4.54999 -1.9803,-5.29327 0,-0.44932 0.5784,-2.52132 1.2852,-4.60445 1.0387,-3.06094 1.1769,-3.96118 0.7206,-4.69288 -0.3105,-0.49796 -0.5646,-1.34894 -0.5646,-1.89105 0,-0.54211 -0.3783,-1.56395 -0.8407,-2.27075 -1.2549,-1.91827 -1.0252,-6.29473 0.5703,-10.86533 1.2063,-3.45545 1.2517,-3.83431 0.5522,-4.60836 -0.4192,-0.46387 -0.7622,-1.4964 -0.7622,-2.29453 0,-0.80415 -0.3987,-1.81249 -0.8942,-2.26161 -0.4919,-0.44577 -1.2802,-1.66753 -1.7518,-2.71504 -0.8395,-1.86423 -0.8994,-1.89824 -2.8289,-1.60609 -5.4452,0.82446 -6.6584,2.8466 -3.1871,5.3121 1.0487,0.74483 2.0842,1.89548 2.301,2.55699 0.4535,1.38333 0.2421,3.36772 -0.3588,3.36772 -0.6837,0 -2.5188,3.34599 -2.2376,4.07986 0.1449,0.37823 1.1387,1.13488 2.2085,1.68142 1.9461,0.99429 2.5799,2.53218 1.502,3.64429 -0.2437,0.25137 -0.5901,1.25869 -0.7699,2.23848 -0.2841,1.54881 -0.1526,1.94309 1.0071,3.01938 1.0192,0.94601 1.2011,1.37085 0.7711,1.80148 -0.43,0.43063 -0.8746,0.32942 -1.8851,-0.42917 -1.1697,-0.87805 -1.3173,-1.29185 -1.2777,-3.58291 0.025,-1.42462 0.2002,-3.03233 0.3902,-3.5727 0.2776,-0.78932 -0.015,-1.21514 -1.4859,-2.16578 -1.408,-0.90972 -1.8662,-1.54458 -1.9819,-2.74606 -0.083,-0.85952 -0.2557,-1.56277 -0.3842,-1.56277 -0.9541,0 -3.384,1.92592 -6.5547,5.19523 -2.0496,2.11335 -3.8468,3.64772 -3.9936,3.40971 -0.7436,-1.20482 8.4467,-10.24841 10.962,-10.78703 3.4334,-0.73523 3.6005,-2.11972 0.6014,-4.98225 -1.6097,-1.53639 -2.1618,-2.42646 -2.1618,-3.48516 0,-1.75476 1.8992,-3.78359 3.5419,-3.78359 0.6509,0 1.5201,-0.12936 1.9315,-0.28746 0.6752,-0.25946 0.6735,-0.43175 -0.017,-1.76926 -0.7164,-1.38738 -0.708,-1.52414 0.1319,-2.14616 0.4935,-0.36539 1.3766,-0.57482 1.9626,-0.46538 0.9093,0.16983 1.1816,-0.15145 1.859,-2.19383 0.9724,-2.93202 0.6778,-5.65302 -0.9956,-9.19556 -0.9961,-2.10862 -1.2082,-3.27679 -1.2082,-6.65375 0,-3.61128 0.1469,-4.31291 1.2413,-5.92796 1.0628,-1.56844 1.1623,-2.0055 0.6919,-3.03935 -0.3021,-0.66412 -0.7744,-2.30558 -1.0495,-3.64768 -0.2751,-1.34211 -0.6828,-3.19793 -0.9059,-4.12406 -0.2231,-0.92612 -0.7422,-3.09108 -1.1536,-4.81103 -0.4113,-1.71994 -0.8855,-5.72512 -1.0537,-8.9004 l -0.3057,-5.77324 1.6508,-3.36772 c 2.9451,-6.00825 6.2044,-11.98241 7.4788,-13.70835 2.141,-2.89964 8.9396,-9.64531 10.6999,-10.6165 0.9247,-0.51022 2.5461,-1.46415 3.603,-2.11983 3.9225,-2.43354 7.1208,-3.59996 13.8458,-5.04954 3.731,-0.80424 4.495,-0.83596 6.3885,-0.26528 3.8247,1.15276 5.532,2.77504 3.6654,3.48288 -0.9075,0.34417 -2.2684,1.54348 -1.9787,1.74393 3.1971,2.21273 3.9121,2.22741 3.5083,0.072 -0.3162,-1.68802 0.1052,-2.13951 1.0829,-1.16033 0.3768,0.3773 1.041,0.18908 2.378,-0.67388 2.5254,-1.62997 6.1435,-1.97838 11.5129,-1.10866 8.8586,1.43488 10.9682,2.44794 18.0998,8.69203 4.6841,4.10107 7.1661,7.33696 11.1547,14.54227 l 2.8824,5.20703 v 7.21654 c 0,3.9691 -0.1723,9.94409 -0.3791,13.27776 -0.3798,6.12372 -0.2698,7.09489 1.4118,12.46125 0.456,1.45534 0.7729,3.6203 0.7042,4.81103 -0.3355,5.81468 -0.2032,7.56534 0.7602,10.06022 0.7973,2.0648 0.9041,2.89337 0.5166,4.00661 -0.36,1.0342 -0.3204,1.74171 0.1504,2.689 0.3514,0.70704 0.8715,2.25977 1.1558,3.4505 l 0.517,2.16496 2.3265,-0.12264 c 4.0091,-0.21133 6.5609,2.12568 5.93,5.43089 -0.1884,0.98674 -0.01,1.25219 1.0265,1.48734 10.0515,2.29096 14.35,5.19287 15.3661,10.37357 0.2758,1.40583 0.7438,8.18497 1.04,15.06474 0.5925,13.75857 1.4701,23.34431 2.5766,28.14453 0.7419,3.21833 1.2172,15.58736 0.6219,16.18354 -0.735,0.73609 -1.0131,-0.597 -1.3632,-6.53517 -0.2013,-3.41276 -0.6874,-7.46688 -1.0803,-9.00917 -1.2529,-4.91799 -2.2247,-16.65526 -2.9807,-36.00027 -0.3687,-9.43421 -0.4425,-9.68021 -3.6916,-12.30157 -1.5168,-1.22377 -3.6482,-2.4398 -4.7834,-2.72913 -5.0789,-1.29442 -7.2742,-2.04683 -7.6235,-2.61284 -0.2072,-0.33578 -0.5254,-0.46168 -0.707,-0.27978 -0.1816,0.18191 0.3799,1.14074 1.2479,2.13074 1.244,1.41895 1.944,1.81053 3.3066,1.84976 1.7218,0.0496 5.8119,2.2281 5.8119,3.09564 0,1.02228 -1.053,0.96424 -2.5193,-0.13887 -0.8603,-0.64719 -2.2388,-1.31974 -3.0635,-1.49455 -1.4141,-0.29977 -1.4857,-0.24653 -1.26,0.93598 0.1316,0.68961 1.0645,1.91794 2.073,2.72962 1.6927,1.36225 3.3286,3.89783 3.3286,5.15916 0,0.99014 -1.336,0.53294 -1.6183,-0.55382 -0.3778,-1.45431 -3.0337,-4.21095 -4.0508,-4.20435 -0.4489,0.003 -1.627,0.13949 -2.6178,0.3035 -2.2463,0.37183 -2.2886,1.02519 -0.3039,4.69488 1.2979,2.39993 1.4681,3.12489 1.2765,5.43873 -0.1735,2.09528 -0.4699,2.86294 -1.3775,3.56781 -1.5641,1.21478 -3.9233,1.81649 -7.538,1.92258 -1.6604,0.0487 -3.1199,0.25219 -3.2433,0.45212 -0.1233,0.19994 0.1002,2.06165 0.4968,4.13715 0.9996,5.23149 0.9269,6.17387 -0.6083,7.89467 -1.1016,1.23471 -1.8223,1.54835 -4.204,1.82958 -3.5427,0.41834 -3.9157,0.6415 -4.3356,2.59448 -0.4663,2.16849 -1.478,4.04658 -3.6903,6.8502 -2.5294,3.2054 -2.9645,3.39956 -4.7556,2.1223 l -1.4871,-1.06047 -1.433,1.53558 c -0.7882,0.84457 -2.2396,1.85878 -3.2254,2.2538 -1.5213,0.6096 -2.0703,1.27927 -3.6303,4.42839 -4.0489,8.17304 -5.2078,10.4665 -5.5214,10.92673 -0.1803,0.2646 -0.6042,1.45533 -0.942,2.64606 -0.3377,1.19073 -0.8603,2.46681 -1.1612,2.83574 -0.4466,0.54757 -0.3567,0.61025 0.4896,0.34126 0.5759,-0.18305 1.1762,-0.10349 1.3505,0.179 0.4038,0.6543 1.2082,0.16272 1.2082,-0.73832 0,-0.3813 -0.3242,-0.69327 -0.7206,-0.69327 -1.6364,0 -0.2287,-3.15933 1.85,-4.15207 1.2028,-0.57438 1.5698,-1.01612 1.3963,-1.68044 -0.413,-1.58168 1.0771,-3.10099 3.9194,-3.99631 1.9503,-0.61436 2.6825,-1.08135 2.6825,-1.71095 0,-0.96511 -1.2516,-1.66532 -1.6944,-0.94789 -0.1561,0.25305 -0.7035,0.46009 -1.2163,0.46009 -1.5782,0 -1.1182,-2.04399 0.9696,-4.30883 1.3398,-1.45339 2.143,-1.97084 2.7169,-1.75031 0.4872,0.18724 1.2192,-0.0503 1.821,-0.59101 2.5325,-2.27558 4.3417,-1.39088 4.4205,2.16162 0.028,1.27796 0.216,3.22192 0.417,4.31991 0.3326,1.81617 0.2524,2.0706 -0.8885,2.81924 -1.5633,1.02586 -2.8168,0.62143 -2.6133,-0.8432 0.1106,-0.79573 -0.091,-1.08577 -0.7529,-1.08577 -1.1869,0 -2.8822,3.04835 -2.1719,3.90546 0.5371,0.64808 -0.011,2.09579 -1.3944,3.68328 -0.57,0.65416 -0.6117,0.98539 -0.1784,1.41926 0.7939,0.79513 0.7027,2.84923 -0.1827,4.11529 -0.9952,1.42285 -2.1346,1.37906 -2.1346,-0.082 0,-1.73546 -1.1863,-1.84292 -2.8428,-0.25753 -2.3127,2.21339 -1.6289,3.84662 0.9424,2.25074 2.03,-1.25996 2.6387,2.31123 0.7212,4.23152 -1.4808,1.48306 -3.5702,1.50389 -6.5072,0.0649 -1.8206,-0.89207 -2.2016,-1.32415 -2.414,-2.73795 -0.2308,-1.5353 -0.28,-1.57948 -0.5762,-0.51712 -0.2564,0.91934 -0.4616,1.04715 -0.9842,0.61282 -0.4969,-0.41303 -0.8079,-0.40285 -1.2574,0.0412 -0.6207,0.61314 -1.3256,-0.0275 -4.4408,-4.03587 -0.6961,-0.8957 -1.4523,-1.44846 -1.6806,-1.22837 -0.2302,0.22194 -0.094,0.65048 0.3049,0.9622 0.3959,0.30913 1.0266,1.15741 1.4015,1.88508 0.5816,1.12891 0.5845,1.51715 0.019,2.64606 -1.067,2.1312 -3.2616,3.9691 -4.7396,3.9691 -1.4294,0 -2.9272,-1.28158 -2.9272,-2.50476 0,-1.01869 1.2533,-2.03785 1.6719,-1.35957 0.3858,0.62521 1.2105,0.18659 1.2105,-0.64382 0,-0.3314 -0.4556,-1.09226 -1.0124,-1.6908 l -1.0123,-1.08826 -1.1444,1.07667 c -1.1261,1.05944 -1.1605,1.06208 -2.1499,0.16536 -0.7388,-0.66963 -0.9558,-1.33722 -0.8183,-2.51737 0.1382,-1.18545 -0.04,-1.72793 -0.6809,-2.07137 -1.0652,-0.57093 -1.0815,-1.2119 -0.1037,-4.09603 0.8898,-2.62461 0.373,-4.51417 -1.2345,-4.51417 -1.01,0 -1.0564,0.11641 -1.1528,2.88662 -0.047,1.34591 -0.2705,1.71407 -1.1146,1.83435 -0.5809,0.0828 -1.4745,-0.0737 -1.9858,-0.34779 -1.1723,-0.62829 -1.7234,-3.40395 -0.9941,-5.00682 0.4652,-1.02269 0.3913,-1.44141 -0.468,-2.64999 -0.5613,-0.78946 -1.0206,-1.77321 -1.0206,-2.18612 0,-1.27493 1.521,-1.73234 3.2873,-0.98857 1.3235,0.55732 1.8091,0.56426 2.8757,0.0411 2.1382,-1.04885 2.7463,-0.56316 3.3907,2.70828 0.3236,1.643 0.6678,3.31201 0.765,3.70892 0.097,0.39691 0.1931,0.86376 0.2133,1.03745 0.02,0.17368 0.4275,0.21346 0.905,0.0884 1.2037,-0.31523 2.8971,1.23956 3.1824,2.92188 0.2844,1.67637 0.8045,2.28893 1.5503,1.82576 0.3708,-0.23028 -0.1346,-1.43285 -1.5588,-3.70851 -1.1591,-1.85225 -2.4304,-4.01721 -2.825,-4.81103 -0.3946,-0.79382 -0.9243,-1.76806 -1.177,-2.16497 -0.9363,-1.47012 -1.9617,-4.02363 -1.9617,-4.88494 0,-1.62653 1.1984,-0.91614 1.9508,1.1564 0.7444,2.05021 2.459,4.97586 6.9365,11.8356 1.3211,2.02398 2.754,4.44388 3.1842,5.37756 0.8207,1.78116 3.1548,4.7973 3.7125,4.7973 0.1792,0 0.8329,-1.3531 1.4526,-3.0069 0.6197,-1.65379 2.6156,-6.09719 4.4354,-9.87422 1.8197,-3.77703 3.3086,-7.05209 3.3086,-7.27791 0,-0.22582 0.3243,-0.6801 0.7206,-1.0095 1.1558,-0.96065 0.8293,-1.62214 -1.2825,-2.59849 -1.2841,-0.59366 -2.1596,-1.39562 -2.4949,-2.28524 -0.2841,-0.75384 -0.6743,-1.37061 -0.8671,-1.37061 -0.1928,0 -0.7353,1.22248 -1.2056,2.71662 -0.7239,2.29966 -1.1084,2.82257 -2.505,3.40699 -1.3287,0.55599 -1.8639,0.57565 -2.7495,0.10101 -0.6048,-0.32415 -1.0843,-0.72069 -1.0657,-0.8812 0.219,-1.88358 -1.047,-2.73856 -1.8711,-1.2637 -0.2189,0.3916 -1.1246,1.24895 -2.0129,1.90523 -2.5413,1.8777 -3.773,0.79784 -4.3198,-3.78727 -0.2459,-2.06152 -0.4518,-2.41775 -1.5696,-2.71551 -1.8039,-0.48048 -3.0224,0.53446 -3.7451,3.11927 -0.3323,1.18878 -0.9948,2.51535 -1.4721,2.94793 -1.1454,1.03818 -4.3673,1.44405 -5.7177,0.72029 -1.2725,-0.68204 -2.4306,-3.23287 -2.4306,-5.35382 v -1.52057 l -3.9532,0.22918 c -3.3646,0.19506 -4.2915,0.0722 -6.2255,-0.82513 -1.2497,-0.57987 -2.5965,-1.32378 -2.9928,-1.65313 -0.8015,-0.66624 -0.7181,-0.89508 -1.7767,4.87511 -0.5147,2.80547 -0.4888,3.46132 0.1995,5.05158 0.6459,1.4923 0.7589,3.10713 0.6159,8.80352 -0.096,3.83679 -0.2125,7.40898 -0.2581,7.9382 -0.046,0.52921 0.069,1.58059 0.254,2.33641 0.2327,0.94901 0.1308,1.50174 -0.3294,1.78639 -0.4404,0.27246 -0.6806,1.39751 -0.7087,3.31902 -0.047,3.19203 -0.3172,3.80074 -1.3192,2.96798 -0.5135,-0.42678 -0.9423,-0.33312 -1.8889,0.41255 -1.4218,1.12007 -2.4217,1.22412 -3.1634,0.32918 z m 56.8557,-4.65664 c 0.1731,-0.28044 -0.3122,-0.48111 -1.1635,-0.48111 -1.1524,0 -1.5232,-0.25062 -1.7582,-1.18856 -0.2899,-1.15652 -0.3286,-1.16625 -1.4353,-0.36083 -1.4183,1.03218 -1.4258,1.19314 -0.087,1.85734 1.392,0.69042 4.0603,0.79439 4.4437,0.17316 z m -17.0571,-1.35143 c 0,-0.44745 -0.3375,-1.45607 -0.7464,-2.24139 -0.6884,-1.32224 -0.6698,-2.34874 0.078,-4.30069 0.2122,-0.55382 0.01,-0.76635 -0.7337,-0.76635 -0.565,0 -1.1517,0.32475 -1.3038,0.72166 -0.1692,0.44179 -0.8976,0.72165 -1.8781,0.72165 -2.3747,0 -2.4381,0.80614 -0.092,1.17258 2.3971,0.37443 3.8764,2.03199 3.926,4.39893 0.018,0.8522 0.1945,1.44994 0.3927,1.3283 0.1982,-0.12163 0.359,-0.58725 0.3573,-1.03469 z m -34.7768,-4.29255 c -0.3847,-0.38525 -0.5832,-0.12302 -0.9946,1.31405 l -0.3444,1.20276 0.8141,-1.1136 c 0.4478,-0.61247 0.6839,-1.24392 0.5249,-1.40321 z m 51.7329,-3.01588 c -0.1626,-0.62268 -0.6553,-0.9622 -1.3962,-0.9622 -1.4436,0 -1.475,0.65574 -0.064,1.33722 1.5535,0.7503 1.7415,0.702 1.4603,-0.37502 z m -22.0331,-1.40363 c 1.2008,-1.32886 0.8192,-3.13145 -0.7005,-3.30899 -0.9996,-0.11678 -1.321,0.14683 -1.8015,1.47747 -0.3216,0.89078 -0.5848,1.87486 -0.5848,2.18683 0,0.90566 2.1734,0.6555 3.0868,-0.35531 z m 25.9547,-1.56021 c 0.8158,-0.37226 1.2236,-0.94264 1.2236,-1.71152 0,-1.05885 -0.1667,-1.1411 -2.0376,-1.00526 -1.5664,0.11373 -2.0783,0.36305 -2.214,1.07834 -0.097,0.51173 0.2126,1.21534 0.6882,1.56359 1.041,0.7623 0.8468,0.75609 2.3398,0.0748 z m -58.8261,-0.88498 c 0,-0.26461 -0.2289,-0.4811 -0.5087,-0.4811 -0.2799,0 -0.3752,0.21649 -0.2119,0.4811 0.1633,0.2646 0.3922,0.4811 0.5088,0.4811 0.1165,0 0.2118,-0.2165 0.2118,-0.4811 z m 24.7919,-1.72321 c -0.1604,-0.41855 -0.2916,-1.06804 -0.2916,-1.44331 0,-0.37527 -0.2162,-0.68231 -0.4804,-0.68231 -0.2642,0 -0.4804,0.64949 -0.4804,1.44331 0,1.00492 0.2345,1.44331 0.772,1.44331 0.5066,0 0.6717,-0.26162 0.4804,-0.761 z m -22.3973,-3.47704 c -0.01,-0.7011 -0.072,-0.7138 -0.473,-0.0919 -0.608,0.94217 -0.608,1.57906 0,1.20275 0.2642,-0.16353 0.4771,-0.66343 0.473,-1.11087 z m 25.9489,-0.3668 c 0,-0.77027 -5.1697,-3.84921 -5.652,-3.36619 -0.5344,0.53522 0.4723,1.83986 1.8099,2.34548 0.792,0.2994 1.4401,0.7134 1.4401,0.92 0,0.20659 0.5404,0.37563 1.201,0.37563 0.6605,0 1.201,-0.12372 1.201,-0.27492 z m 38.2113,-1.13639 c -0.1742,-0.28221 -0.5465,-0.51311 -0.8275,-0.51311 -0.3186,0 -0.2821,0.27605 0.097,0.73328 0.6589,0.79508 1.2477,0.61765 0.7307,-0.22017 z m -66.0744,-0.78205 c 0,-0.41253 -0.2197,-0.61406 -0.4882,-0.44786 -0.2686,0.1662 -0.3639,0.50372 -0.2119,0.75005 0.4118,0.66731 0.7001,0.54288 0.7001,-0.30219 z m 64.6899,-1.87445 c 1.0577,-2.16692 0.8301,-3.50774 -0.5083,-2.99339 -0.9126,0.35068 -1.0228,1.59698 -0.1686,1.90644 0.3419,0.12389 0.01,0.49547 -0.7733,0.86299 -1.2165,0.57155 -1.4456,0.54689 -2.0023,-0.2155 -0.5094,-0.69773 -0.8182,-0.75931 -1.6287,-0.32487 -1.1655,0.62468 -1.3232,1.46441 -0.2749,1.46441 0.3989,0 1.0667,0.39929 1.4839,0.88731 1.1959,1.39876 2.7193,0.77423 3.8722,-1.58739 z m -36.8268,0.91224 c 0,-0.41252 -0.2162,-0.61624 -0.4804,-0.45271 -0.2643,0.16354 -0.4804,0.50106 -0.4804,0.75005 0,0.24899 0.2161,0.45271 0.4804,0.45271 0.2642,0 0.4804,-0.33752 0.4804,-0.75005 z m -25.9415,-0.69326 c 0,-0.26461 -0.095,-0.4811 -0.2119,-0.4811 -0.1165,0 -0.3454,0.21649 -0.5087,0.4811 -0.1633,0.26461 -0.068,0.4811 0.2118,0.4811 0.2799,0 0.5088,-0.21649 0.5088,-0.4811 z m -1.4412,-2.54984 c 0,-1.32683 -0.8337,-2.26119 -2.0177,-2.26119 -1.1093,0 -1.0885,0.21687 0.1865,1.94389 1.2622,1.70973 1.8312,1.80833 1.8312,0.3173 z m 25.7734,-1.84001 c 0.3542,-0.29443 0.8797,-1.32289 1.1676,-2.28548 0.7657,-2.55932 1.595,-3.46414 3.5873,-3.91414 3.1447,-0.7103 5.0211,1.10574 5.0211,4.85963 0,1.91477 0.7599,2.13588 2.4489,0.7126 2.6308,-2.21695 4.8823,-2.23534 5.7132,-0.0467 0.2537,0.6683 0.6118,1.21509 0.7956,1.21509 0.8407,0 2.0915,-1.71497 2.0915,-2.86772 0,-1.40117 2.0995,-4.58938 3.0222,-4.58938 0.3194,0 0.8201,0.7415 1.1125,1.64778 0.7135,2.21051 2.2935,3.4038 4.507,3.4038 2.1139,0 5.2898,-1.20871 5.2898,-2.01326 0,-1.79864 3.5491,-3.16276 4.1498,-1.59501 0.5536,1.44458 2.0948,0.70447 4.2581,-2.04469 1.3429,-1.70666 2.291,-3.46824 2.4749,-4.59868 0.4724,-2.90336 1.4627,-3.73486 5.1867,-4.35494 2.6661,-0.44394 3.4745,-0.79407 4.2517,-1.84147 0.9343,-1.25934 0.9387,-1.39831 0.1669,-5.29213 -0.4359,-2.19936 -0.7924,-4.4913 -0.7922,-5.09322 5e-4,-1.41236 1.6051,-2.03278 5.2574,-2.03278 6.406,0 8.9872,-3.59662 6.0424,-8.4193 -1.9374,-3.17291 -2.2905,-4.23065 -1.8446,-5.52603 0.3018,-0.87659 0.8628,-1.26951 2.1003,-1.47095 2.0932,-0.34074 2.8568,-0.79461 2.8568,-1.69801 0,-1.14072 -1.9861,-3.83319 -3.4469,-4.67281 -1.7999,-1.0345 -1.764,-2.51369 0.084,-3.4708 1.647,-0.85292 1.8543,-2.12255 0.541,-3.31278 -0.7379,-0.66881 -1.4553,-0.75887 -3.9808,-0.49975 -3.0009,0.3079 -3.0957,0.2829 -3.6636,-0.96523 -0.3206,-0.70472 -0.5862,-1.75824 -0.5903,-2.34115 -0.01,-1.32139 -0.458,-1.99768 -1.6084,-2.42382 -0.5963,-0.22085 -0.8133,-0.64534 -0.6499,-1.2712 0.1667,-0.63849 -0.048,-1.03286 -0.6699,-1.23055 -1.3668,-0.43444 -6.0626,0.7602 -6.9804,1.77584 -0.7666,0.84834 -0.7159,0.88713 1.1601,0.88713 1.5677,0 2.3066,0.3256 3.6775,1.62039 1.9835,1.87347 2.1943,3.41354 0.7236,5.28607 -0.8971,1.1421 -0.9111,2.57713 -0.02,2.02546 0.5289,-0.32736 5.8706,1.12513 7.1367,1.94059 0.8056,0.51882 1.0809,1.15624 1.0809,2.50241 0,2.38285 -1.0795,3.82375 -3.7113,4.95352 l -2.1582,0.92646 1.8606,1.80829 c 2.0078,1.95133 3.3491,5.13323 2.8405,6.73812 -0.1738,0.5485 -1.117,1.78429 -2.0959,2.74619 -1.72,1.69016 -1.8828,1.74383 -4.8436,1.59739 -3.5359,-0.1749 -4.5495,0.56435 -3.5422,2.58348 0.7635,1.53037 1.5559,4.69957 1.5591,6.23582 0,0.86382 -0.5589,1.767 -1.7439,2.80899 -1.6672,1.46597 -1.902,1.52839 -5.1643,1.37287 l -3.4177,-0.16292 -0.133,1.92441 c -0.2556,3.69821 -2.2881,7.31881 -5.1991,9.26123 -3.3146,2.21177 -4.6536,2.07689 -8.5829,-0.86459 -4.0877,-3.0601 -5.0924,-2.90367 -7.2224,1.12459 -2.0218,3.82348 -2.0916,3.86758 -5.4897,3.47261 -3.118,-0.36242 -4.0265,-1.13473 -3.8559,-3.27778 0.255,-3.20087 -0.5388,-3.48884 -3.9058,-1.41703 -4.3807,2.69549 -5.5956,3.15087 -7.6648,2.87293 -2.5409,-0.34131 -3.6333,-1.36296 -4.0153,-3.75539 -0.3818,-2.39156 -1.3663,-2.81567 -3.2678,-1.40778 -1.0532,0.77984 -2.1915,1.10389 -4.0298,1.14728 -3.8029,0.0898 -4.3017,-0.60416 -4.1279,-5.74312 0.1497,-4.42385 -0.1227,-5.98343 -1.0448,-5.98343 -0.3227,0 -1.4347,-0.43299 -2.4712,-0.96221 -1.0365,-0.52921 -2.0345,-0.9622 -2.2178,-0.9622 -0.1833,0 -0.031,1.15976 0.3388,2.57724 0.5704,2.18743 0.5737,3.15162 0.022,6.37462 -0.9278,5.41917 -0.4722,6.50132 3.5469,8.42399 2.9495,1.41103 3.3319,1.47494 7.2328,1.20919 4.7383,-0.32279 5.2491,-0.059 5.2491,2.71134 0,1.8819 0.6667,3.6518 1.6332,4.33541 0.6543,0.46277 3.095,0.0475 3.9635,-0.67436 z m 16.9202,-7.36519 c 0.8748,-0.45305 1.5245,-1.33405 1.8936,-2.56774 0.7241,-2.42022 1.9477,-3.49651 4.3406,-3.81794 1.7177,-0.23073 2.1712,-0.0525 4.2408,1.66703 3.7369,3.10488 4.1632,3.22815 6.7292,1.94596 1.2529,-0.62607 2.6866,-1.84062 3.2957,-2.79198 1.2407,-1.93788 2.2694,-5.94295 2.0504,-7.9834 -0.1365,-1.2723 -0.02,-1.39498 1.2912,-1.36335 0.7926,0.0191 2.4139,0.19731 3.6029,0.39598 1.8456,0.30839 2.4078,0.19268 3.8432,-0.79107 1.518,-1.04031 1.6721,-1.3522 1.5858,-3.20934 -0.053,-1.13138 -0.4309,-2.56952 -0.8407,-3.19586 -0.9618,-1.47007 -0.9566,-4.25986 0.01,-5.22767 0.8775,-0.87873 1.0177,-0.90244 4.5753,-0.77349 2.7338,0.0991 2.96,-0.01 4.881,-2.34313 0.7487,-0.90947 0.7695,-1.19943 0.1849,-2.57947 -0.3622,-0.85515 -1.5525,-2.37541 -2.645,-3.37835 -2.8349,-2.60257 -2.6485,-3.52774 1.0289,-5.10639 2.27,-0.97446 3.6083,-2.6947 3.1094,-3.99679 -0.2894,-0.75507 -5.0401,-2.22344 -7.806,-2.4127 -1.584,-0.10838 -1.9488,-0.32334 -2.0764,-1.22353 -0.092,-0.64764 0.3481,-1.69053 1.0809,-2.5627 1.395,-1.66023 1.4855,-2.22936 0.5509,-3.46346 -1.1635,-1.53646 -3.7897,-1.5859 -6.2901,-0.11841 -1.2193,0.7156 -2.4851,1.19802 -2.8129,1.07204 -0.3452,-0.13266 -1.0823,0.71135 -1.7514,2.00556 -0.6355,1.22904 -1.6816,2.94611 -2.3246,3.81572 -1.1233,1.51899 -1.1653,1.85011 -1.069,8.42721 0.094,6.42104 0.025,7.00989 -1.1153,9.48426 -2.6176,5.68095 -9.9733,11.11971 -14.0126,10.36082 -0.8266,-0.1553 -3.0859,-0.0575 -5.0207,0.21729 -8.8048,1.25058 -12.9229,0.60074 -19.859,-3.13382 -2.4385,-1.31297 -3.3786,-2.21494 -5.444,-5.22353 -2.985,-4.34822 -4.088,-7.69786 -5.0735,-15.40722 -0.064,-0.50073 0.1293,-0.99769 0.4295,-1.10435 0.628,-0.22308 1.613,2.28544 1.6221,4.13125 0.01,1.45207 1.5832,6.70008 2.4934,8.30306 3.431,6.04228 6.6236,8.50848 13.9724,10.79341 2.5538,0.79402 3.279,0.81272 8.8874,0.22917 3.3587,-0.34947 6.4309,-0.68306 6.8273,-0.74131 0.3963,-0.0583 2.0002,-0.277 3.5643,-0.4861 2.5799,-0.34491 3.1077,-0.63073 5.6894,-3.0809 4.2916,-4.07287 5.1157,-6.05463 5.4221,-13.03871 0.1394,-3.17843 0.1856,-5.77896 0.1026,-5.77896 -0.083,0 -2.3071,1.11187 -4.9426,2.47083 -2.6354,1.35895 -6.0887,3.11584 -7.6741,3.9042 l -2.8823,1.43339 -10.0884,-0.23696 c -8.7651,-0.20588 -10.3796,-0.36519 -12.3086,-1.21457 -2.9141,-1.28318 -6.952,-4.19604 -9.1455,-6.59744 -4.5179,-4.94624 -5.208,-5.76035 -5.208,-6.14419 0,-0.22607 -1.4592,-1.07215 -3.2426,-1.88016 -1.7835,-0.80801 -3.3931,-1.70828 -3.5769,-2.00058 -0.1838,-0.29231 -0.487,-0.37841 -0.6738,-0.19135 -0.6806,0.68164 -0.2345,3.06853 0.9669,5.17365 1.4141,2.47776 1.5905,5.40011 0.5076,8.41035 -1.4375,3.99597 -0.5485,7.2164 1.6646,6.03025 1.3925,-0.74638 1.2342,-1.42509 -0.4716,-2.02058 -1.7686,-0.61745 -1.5964,-1.64295 0.2528,-1.50558 1.6971,0.12607 3.1319,1.42446 3.1319,2.83422 0,1.25682 -0.5077,1.666 -2.6003,2.09597 l -1.4831,0.30474 0.1615,3.82814 c 0.1101,2.61135 -0.078,4.51628 -0.5935,5.9931 -0.4153,1.19073 -0.7582,2.29421 -0.762,2.45218 -0.021,0.85884 2.0071,2.26692 4.4317,3.07689 2.3885,0.79795 2.8295,1.14017 3.297,2.55893 0.2969,0.90078 0.5693,3.40055 0.6055,5.55503 l 0.066,3.91723 1.821,0.15049 c 1.271,0.10502 2.4864,-0.22196 4.0238,-1.08249 3.3603,-1.88087 3.8221,-1.7132 4.8854,1.77393 0.8353,2.73961 1.0624,3.04423 2.5548,3.42694 1.4454,0.37066 2.1209,0.15857 5.7455,-1.80414 5.782,-3.13082 7.3604,-2.94825 7.8534,0.90836 0.2622,2.05053 0.5342,2.4401 1.94,2.77874 0.5284,0.1273 1.0256,0.25656 1.1047,0.28725 0.079,0.0307 0.7433,-0.25454 1.4757,-0.63386 z m -43.6544,-2.94699 c 0,-0.3813 -0.2162,-0.69326 -0.4804,-0.69326 -0.2642,0 -0.4804,0.44577 -0.4804,0.99059 0,0.54483 0.2162,0.8568 0.4804,0.69327 0.2642,-0.16354 0.4804,-0.60931 0.4804,-0.9906 z m -1.7565,-0.79253 c 0.2597,-0.99431 0.059,-1.75281 -0.3456,-1.30395 -0.4891,0.54315 -0.7883,2.36542 -0.3883,2.36542 0.2512,0 0.5815,-0.47766 0.7339,-1.06147 z m 3.9149,-1.81964 c 0.1683,-0.27271 -0.024,-0.35337 -0.4521,-0.18907 -0.8322,0.31983 -0.9845,0.66467 -0.2935,0.66467 0.2487,0 0.5842,-0.21402 0.7456,-0.4756 z m -1.288,-2.05572 c 0.2239,-1.16446 -0.7235,-1.04807 -1.3738,0.16877 -0.46,0.86085 -0.4115,0.98094 0.3379,0.8364 0.4813,-0.0928 0.9474,-0.54515 1.0359,-1.00517 z m 1.8412,-4.53553 c -0.053,-0.0536 -0.3414,0.0538 -0.6399,0.23851 -0.3211,0.19871 -0.4259,0.9249 -0.2568,1.77798 l 0.286,1.44208 0.354,-1.6806 c 0.1947,-0.92432 0.3102,-1.72441 0.2567,-1.77797 z m -6.707,1.2034 c -0.1534,-0.38379 -0.2672,-0.26979 -0.2902,0.29067 -0.021,0.50716 0.093,0.79131 0.2523,0.63145 0.1596,-0.15987 0.1767,-0.57482 0.038,-0.92212 z m 1.113,-2.55586 c 0,-0.39691 -0.2034,-0.72165 -0.452,-0.72165 -0.6058,0 -1.0397,0.75129 -0.6558,1.13565 0.541,0.54181 1.1078,0.32999 1.1078,-0.414 z m 3.3554,-0.12027 c 0,-0.19846 -0.2084,-0.6793 -0.4542,-1.06855 -0.5535,-0.87647 -1.2028,-0.32832 -0.8138,0.68697 0.2873,0.74984 1.2817,1.04905 1.268,0.38158 z m -0.8102,-4.27291 c 0.1669,-0.16709 0.075,-0.73158 -0.2046,-1.25441 -0.5994,-1.12156 -1.6824,-0.40669 -1.2185,0.80423 0.3003,0.78368 0.9005,0.97355 1.4231,0.45018 z m 1.7784,-9.31825 c 0,-0.26461 -0.095,-0.4811 -0.2118,-0.4811 -0.1166,0 -0.3455,0.21649 -0.5088,0.4811 -0.1633,0.26461 -0.068,0.4811 0.2118,0.4811 0.2799,0 0.5088,-0.21649 0.5088,-0.4811 z m -2.8944,-5.97769 c -0.6367,-0.63763 -1.0327,-0.0933 -0.653,0.89759 0.2501,0.65287 0.4026,0.69425 0.7119,0.19315 0.2164,-0.35073 0.1899,-0.84157 -0.059,-1.09074 z m 51.8678,-6.48575 c 8.3207,-4.10125 10.5784,-5.46554 11.8485,-7.15975 0.7363,-0.98224 1.4603,-1.89414 1.6089,-2.02645 1.888,-1.68155 5.1833,-10.04686 6.4435,-16.3575 1.6075,-8.04921 2.1938,-17.95026 1.2537,-21.17171 -0.2698,-0.92437 -0.5207,-2.87141 -0.5577,-4.32675 -0.039,-1.51913 -0.4435,-3.36016 -0.9507,-4.3228 -0.486,-0.9222 -0.8926,-1.89644 -0.9037,-2.16496 -0.011,-0.26853 -1.4053,-1.97807 -3.0983,-3.799 -1.693,-1.82092 -3.2171,-3.87763 -3.3869,-4.57047 -0.1849,-0.75446 -2.0392,-2.80342 -4.6232,-5.10854 -5.3674,-4.78811 -6.2213,-5.28339 -4.3084,-2.49901 0.828,1.2052 1.5054,2.42289 1.5054,2.70597 0,0.99668 -0.8493,0.49653 -1.9797,-1.16588 -0.6286,-0.92431 -1.366,-1.68205 -1.6388,-1.68386 -0.7188,-0.005 -4.9502,-4.28988 -5.2876,-5.35477 -0.1574,-0.49657 -0.4701,-0.90286 -0.6949,-0.90286 -0.2248,0 -0.8047,-0.14078 -1.2887,-0.31285 -0.5986,-0.21279 -0.3935,0.21034 0.6412,1.32304 2.5392,2.73051 7.6855,13.52597 5.2439,11.00021 -0.7985,-0.82612 -3.6425,-6.36745 -3.6425,-7.0973 0,-0.52406 -3.1423,-3.95089 -3.6229,-3.95089 -0.1524,0 -0.1914,0.16237 -0.087,0.36083 1.7582,3.33256 3.849,8.37198 4.0277,9.70814 0.2174,1.62449 0.1888,1.66719 -0.5245,0.78417 -0.4149,-0.51364 -0.7544,-1.13494 -0.7544,-1.38067 0,-0.24573 -0.9728,-2.46309 -2.1618,-4.92745 -1.189,-2.46437 -2.1618,-4.78634 -2.1618,-5.15993 0,-1.07906 -1.7343,-2.36089 -2.9613,-2.18866 -0.7754,0.10884 -1.1243,-0.0825 -1.1293,-0.61922 -0.01,-0.82284 -1.08,-2.35045 -1.65,-2.35045 -0.3831,0 -1.4654,5.45943 -1.4654,7.3923 0,0.69715 -0.2396,1.26756 -0.5325,1.26756 -0.3721,0 -0.437,-1.183 -0.2154,-3.92833 0.2965,-3.67308 0.2636,-3.88409 -0.5064,-3.24745 -0.8554,0.70733 -2.5124,4.08583 -2.8404,5.79136 -0.5419,2.81825 -1.6519,3.96628 -1.6873,1.74525 -0.017,-1.05383 -0.046,-1.04747 -1.099,0.24055 -1.0654,1.30316 -2.2465,1.75884 -2.2465,0.86671 0,-0.25097 0.5371,-1.06283 1.1935,-1.80413 2.1169,-2.39055 2.2408,-2.57605 2.068,-3.09525 -0.1967,-0.59095 -4.2989,3.25002 -6.4908,6.07735 -0.8205,1.05843 -1.6394,1.77726 -1.8198,1.5974 -0.4288,-0.42758 2.2951,-4.3721 4.6427,-6.72306 1.0161,-1.01768 1.8476,-1.97082 1.8476,-2.11808 0,-0.89855 -3.6142,2.17508 -7.6692,6.52209 -6.5876,7.0621 -6.7629,7.26483 -8.9081,10.30114 -1.0549,1.49323 -2.8375,3.98457 -3.9613,5.53631 -1.1238,1.55173 -2.1777,3.49428 -2.342,4.31676 -0.173,0.86668 -0.5982,1.49543 -1.0112,1.49543 -0.498,0 -0.6321,0.32602 -0.4452,1.08248 0.1471,0.59536 0.509,4.00518 0.8042,7.57737 1.1813,14.29288 2.6984,21.21246 6.0451,27.57226 1.5422,2.93079 7.8598,10.50505 10.4821,12.56708 1.323,1.04041 3.6681,2.54375 5.2112,3.34077 2.5487,1.31641 3.3863,1.47979 9.1457,1.78398 9.3802,0.49544 13.4277,0.14557 16.6414,-1.43848 z m -14.3848,-14.6356 c -2.2243,-0.47512 -2.6679,-0.7463 -2.8045,-1.71458 -0.1298,-0.9191 0,-1.08652 0.6623,-0.83326 2.9923,1.14995 5.1957,1.37437 7.6662,0.78083 2.8953,-0.69558 4.5302,-0.39662 3.6486,0.66718 -0.299,0.36076 -1.4582,0.80154 -2.5762,0.97952 -1.1179,0.17797 -2.465,0.40484 -2.9934,0.50414 -0.5284,0.0993 -2.1498,-0.0734 -3.603,-0.38383 z m -13.4511,-3.17375 c 0,-1.50278 1.2554,-5.47225 1.7964,-5.68017 0.9718,-0.37346 1.1022,-0.002 0.6392,1.8217 -0.2314,0.91124 -0.554,2.25217 -0.7168,2.97984 -0.2682,1.19895 -1.7188,1.94048 -1.7188,0.87863 z m 31.0704,-0.90514 c -0.443,-0.49015 -0.8054,-1.14476 -0.8054,-1.45468 0,-0.55175 -0.725,-0.7934 -1.6814,-0.5604 -7.0159,1.70929 -8.6092,1.89729 -16.1791,1.90896 -6.6548,0.0103 -8.1402,-0.11573 -8.7672,-0.74366 -0.4152,-0.41581 -0.7549,-1.07086 -0.7549,-1.45567 0,-0.60436 0.193,-0.59968 1.4173,0.0344 1.8566,0.96147 5.4602,0.93524 7.5437,-0.0549 1.347,-0.64013 1.8637,-0.67977 2.7399,-0.21015 0.8633,0.46269 1.501,0.43347 3.1795,-0.14569 1.4833,-0.51178 2.3627,-0.58347 2.9957,-0.24422 1.8081,0.9691 8.3232,-0.51867 8.7954,-2.00847 0.353,-1.11402 1.1915,-1.24381 1.1915,-0.18443 0,0.41143 0.4496,1.73643 0.9991,2.94446 1.0897,2.39547 0.6901,3.68421 -0.6741,2.17449 z m -17.1389,-7.4763 c 0,-0.6205 -0.4031,-1.4935 -0.8957,-1.93999 -0.7819,-0.70866 -1.1747,-0.73708 -3.0914,-0.22368 -2.7951,0.74867 -4.8101,0.0264 -4.5727,-1.63918 0.085,-0.59476 0.5588,-1.15045 1.0636,-1.2469 0.6929,-0.13236 0.8351,0.0238 0.5941,0.65271 -0.2846,0.74258 -0.048,0.79307 2.3247,0.49617 1.7286,-0.21629 3.2277,-0.11826 4.3375,0.28365 1.4407,0.52172 1.8937,0.50038 3.0096,-0.14176 0.9603,-0.55258 2.1214,-0.69317 4.3162,-0.52262 l 3.0025,0.23331 v -1.74168 c 0,-1.99042 0.7939,-2.3344 1.2439,-0.53893 0.7944,3.16996 -0.7981,4.37321 -5.0419,3.80942 -2.8053,-0.37268 -4.8492,0.68114 -4.8492,2.50025 0,0.6992 -0.2815,1.14743 -0.7206,1.14743 -0.4357,0 -0.7206,-0.44609 -0.7206,-1.1282 z m -3.7429,-18.35648 c 0.046,-1.75898 0.2708,-2.64606 0.67,-2.64606 0.739,0 0.9709,1.08198 0.7436,3.46943 -0.1079,1.13299 -0.4214,1.8227 -0.8284,1.8227 -0.4818,0 -0.6364,-0.6989 -0.5852,-2.64607 z m 9.8244,1.95061 c -0.1551,-0.40487 -0.4258,-1.82125 -0.6015,-3.1475 -0.27,-2.0384 -0.1984,-2.41138 0.4631,-2.41138 0.4304,0 0.8101,0.37887 0.8438,0.84193 0.077,1.05593 0.2443,2.42991 0.4781,3.92438 0.2032,1.29883 -0.746,1.93447 -1.1835,0.79257 z m -33.9445,-1.41492 c 0,-0.36688 1.5122,-1.90607 3.3604,-3.42042 l 3.3605,-2.75335 3.541,0.17907 c 3.3302,0.16842 3.6663,0.29117 5.647,2.06239 2.0625,1.84441 3.0778,3.08814 2.7505,3.36915 -0.09,0.0775 -2.9745,0.2787 -6.4093,0.44711 -3.4348,0.16841 -6.6543,0.35938 -7.1543,0.42438 -1.6051,0.20868 -1.3948,-1.02018 0.2476,-1.44639 1.1287,-0.29289 1.6625,-0.76903 1.9127,-1.70609 0.5248,-1.96496 -0.4767,-1.6405 -3.413,1.10571 -2.5789,2.41209 -3.8431,2.98394 -3.8431,1.73844 z m 15.5891,-2.18102 c 0.365,-0.59138 -2.0332,-2.44404 -3.1636,-2.44404 -1.0397,0 -1.0459,0.0237 -0.4275,1.65254 0.3576,0.94182 0.8059,1.23408 1.8932,1.23408 0.7836,0 1.5477,-0.19916 1.6979,-0.44258 z m 29.9115,2.06933 c -0.1693,-0.16954 -1.7209,-0.27756 -3.4481,-0.24006 -2.4287,0.0528 -3.1403,-0.0871 -3.1403,-0.61696 0,-0.42443 0.7312,-0.80888 1.9215,-1.01028 1.4338,-0.24259 1.9216,-0.55147 1.9216,-1.21666 0,-1.56569 -0.9988,-1.58122 -2.5864,-0.0402 -0.8485,0.82357 -1.6945,1.4974 -1.8801,1.4974 -0.8461,0 -0.1866,-1.40096 1.3711,-2.91252 1.707,-1.65643 1.7127,-1.65791 6.1251,-1.60419 4.9183,0.0599 7.8492,0.70148 9.5353,2.08733 1.9218,1.57955 0.7496,2.57179 -3.814,3.22848 -2.1348,0.3072 -4.2902,0.68845 -4.7897,0.84722 -0.4995,0.15877 -1.0467,0.14996 -1.216,-0.0196 z m 7.8009,-2.88704 c 0.3972,-0.39787 -1.0635,-1.08186 -3.0161,-1.41223 -2.0697,-0.35017 -2.9228,0.15601 -2.4301,1.44179 0.2786,0.72715 0.6915,0.80621 2.7693,0.53019 1.343,-0.17843 2.5476,-0.43031 2.6769,-0.55975 z m -54.5704,-7.16276 c -0.7724,-2.01575 5.2431,-4.82907 9.1444,-4.27666 2.473,0.35016 7.3889,1.95648 8.8183,2.88147 1.3043,0.84407 1.4228,2.12059 0.1968,2.12059 -0.4862,0 -2.1616,-0.62745 -3.7231,-1.39433 -5.1698,-2.53903 -9.976,-2.34456 -13.0283,0.52715 -1.0131,0.95313 -1.0941,0.96129 -1.4081,0.14178 z m 40.4092,0.2248 c -1.3081,-2.11974 4.2168,-5.76103 8.7182,-5.74583 2.4672,0.008 5.6494,1.44241 6.6035,2.97591 0.6705,1.07768 0,1.70828 -1.0409,0.97438 -3.4667,-2.45166 -6.2827,-2.89971 -9.1854,-1.46147 -1.0867,0.53847 -2.3508,1.45203 -2.809,2.03013 -1.1333,1.42973 -1.9055,1.8441 -2.2864,1.22688 z m -27.6108,-11.25286 c 0,-0.42255 0.1914,-1.14421 0.4253,-1.60368 0.2339,-0.45947 1.0446,-2.09987 1.8015,-3.64534 1.4532,-2.96727 1.8357,-3.42225 2.5203,-2.99851 0.4159,0.25744 -1.2076,4.11208 -1.9496,4.62888 -0.2083,0.14505 -0.6702,1.1071 -1.0266,2.13788 -0.6656,1.92537 -1.7709,2.84959 -1.7709,1.48077 z m -20.0004,61.78817 c 0.2903,-0.39691 0.05,-0.31385 -0.5335,0.18457 -0.5838,0.49843 -0.9188,1.13726 -0.7445,1.41962 0.203,0.3289 0.3947,0.26258 0.5336,-0.18458 0.1192,-0.38387 0.4542,-1.0227 0.7444,-1.41961 z m -0.6431,-2.40551 c 0.5709,-1.10019 0.5559,-1.14645 -0.1751,-0.54247 -0.4396,0.36315 -0.7993,0.9946 -0.7993,1.40321 0,0.87354 0.1375,0.75213 0.9744,-0.86074 z m -1.5568,-6.97251 c -0.076,-0.53113 -0.4625,-0.96569 -0.8588,-0.96569 -0.5181,0 -0.6987,0.47316 -0.6427,1.68386 0.1063,2.29742 0.1,2.28861 0.9163,1.20625 0.3979,-0.5273 0.6613,-1.39328 0.5852,-1.92442 z m -8.0647,-0.99409 c 0,-0.38129 -0.4324,-0.69326 -0.9608,-0.69326 -1.0808,0 -1.2322,0.49804 -0.4035,1.32788 0.6622,0.6632 1.3643,0.33663 1.3643,-0.63462 z m 80.8958,-2.5611 c 0.5781,-0.63974 0.7205,-1.29607 0.4851,-2.23551 l -0.3333,-1.32989 -0.5909,1.15304 c -1.5216,2.96875 -1.2772,4.3116 0.4391,2.41236 z m -73.1582,-4.65659 c 0.4593,-1.30679 0.8343,-3.5667 0.8334,-5.02204 v -2.64607 l -0.9093,1.92442 c -0.5001,1.05842 -0.915,2.41848 -0.9219,3.02234 -0.01,0.60386 -0.3354,1.87172 -0.73,2.81745 -0.3946,0.94574 -0.5909,1.92445 -0.4364,2.17491 0.5531,0.89621 1.3443,0.0666 2.1659,-2.27101 z m 5.2257,0.39037 c -0.01,-1.03098 -0.1101,-1.16373 -0.473,-0.60138 -0.6074,0.94129 -0.6074,1.92441 0,1.92441 0.2642,0 0.4771,-0.59536 0.473,-1.32303 z m -7.8312,-1.65379 c -0.1534,-0.38379 -0.2672,-0.26979 -0.2902,0.29066 -0.021,0.50717 0.093,0.79132 0.2523,0.63145 0.1596,-0.15987 0.1767,-0.57482 0.038,-0.92211 z m 78.9221,-0.99228 c -0.014,-1.479 -0.053,-1.51307 -0.7206,-0.6297 -0.9083,1.20269 -0.9014,2.19329 0.015,2.19329 0.4959,0 0.7159,-0.48767 0.7053,-1.56359 z m 5.7027,-4.20965 c -1.4449,-1.32164 -2.3246,-1.78417 -2.3246,-1.22223 0,0.48498 2.6729,2.66554 3.2674,2.66554 0.3493,0 -0.075,-0.64949 -0.9428,-1.44331 z m -76.7862,-2.56133 c 0,-0.84622 -1.3769,-10.35512 -1.7117,-11.82107 -0.188,-0.82319 -0.4108,-1.00411 -0.7806,-0.63376 -0.3698,0.37035 -0.2747,1.55104 0.3331,4.13593 0.5031,2.13942 0.7409,4.43757 0.5819,5.62431 -0.1478,1.10368 -0.1545,2.30477 -0.015,2.6691 0.3245,0.84682 1.5922,0.86712 1.5922,0.0255 z m 71.3934,-3.79717 c 0.7621,-4.69434 0.882,-14.13858 0.1849,-14.57004 -0.5767,-0.35698 -1.5769,2.03596 -1.1441,2.7373 0.4507,0.73031 0.3267,10.43747 -0.1616,12.65856 -0.4188,1.90445 -0.2934,3.92766 0.2121,3.42149 0.1439,-0.14415 0.5528,-2.05544 0.9087,-4.24731 z m -81.4221,2.38138 c -0.4745,-0.47161 -0.5297,-0.41635 -0.269,0.26932 0.1804,0.47448 0.4491,0.74149 0.597,0.59336 0.1479,-0.14812 3e-4,-0.53633 -0.328,-0.86268 z m 2.2897,-1.85172 c 0.423,-1.21514 0.3668,-1.76162 -0.2968,-2.88661 -1.4739,-2.49881 -2.6859,-1.07451 -1.3565,1.59418 0.4958,0.99523 0.5994,1.63722 0.2815,1.74334 -0.2767,0.0924 -0.381,0.36599 -0.2316,0.60799 0.5074,0.82224 1.0803,0.44393 1.6034,-1.0589 z m 82.2968,-3.81872 c 0.1993,-4.29102 -0.067,-9.11546 -0.5034,-9.11546 -0.2239,0 -0.5495,2.43559 -0.7235,5.41241 -0.1739,2.97683 -0.4408,6.2784 -0.5929,7.33682 l -0.2766,1.92442 0.9873,-1.46881 c 0.6339,-0.94286 1.031,-2.40718 1.1091,-4.08938 z m -77.5924,0.8975 c -0.1534,-0.38379 -0.2672,-0.26979 -0.2903,0.29067 -0.021,0.50716 0.093,0.79131 0.2523,0.63144 0.1597,-0.15986 0.1767,-0.57481 0.038,-0.92211 z m 82.6786,-2.38108 c -0.1199,-0.36032 -0.3377,-0.14224 -0.5076,0.50831 -0.2089,0.80024 -0.1464,0.98808 0.2101,0.63107 0.2792,-0.27957 0.413,-0.79229 0.2975,-1.13938 z m -83.4857,-1.85076 c -0.5396,-2.84942 -0.015,-4.09836 1.5485,-3.68882 0.7559,0.19796 0.8698,0.001 0.7266,-1.25453 -0.249,-2.18371 -1.4304,-2.73464 -2.8761,-1.3412 -0.9445,0.91038 -1.1299,1.49514 -0.9826,3.09805 0.1638,1.78276 1.6181,6.18957 1.9371,5.87005 0.072,-0.0716 -0.088,-1.2792 -0.3535,-2.68355 z m -6.5074,1.94978 c 0.152,-0.24633 0.057,-0.58385 -0.2118,-0.75005 -0.2685,-0.16621 -0.4883,0.0353 -0.4883,0.44786 0,0.84507 0.2883,0.9695 0.7001,0.30219 z m 84.2789,-12.84449 c -0.7622,-0.91973 -1.5767,-0.82438 -2.8979,0.33922 -0.6237,0.54937 -0.8618,0.86005 -0.5289,0.69039 0.3328,-0.16966 1.1882,0.15087 1.9009,0.71228 l 1.2957,1.02075 0.3884,-1.0515 c 0.2381,-0.64436 0.1768,-1.30692 -0.1582,-1.71114 z m -77.9887,-2.32805 c 0.7317,-1.75368 0.9881,-8.4773 0.2932,-7.68905 -0.8063,0.91472 -1.9377,9.35746 -1.254,9.35746 0.1456,0 0.578,-0.75079 0.9608,-1.66841 z m 79.1702,-1.08933 c -0.1812,-0.72294 -0.3294,-2.02192 -0.3294,-2.88662 0,-0.93701 -0.2426,-1.57219 -0.6005,-1.57219 -0.9201,0 -1.0799,1.05023 -0.4025,2.64607 0.3369,0.79382 0.7296,1.82218 0.8728,2.28524 0.4225,1.36737 0.8186,0.96017 0.4596,-0.4725 z m -88.2722,-0.47968 c -0.4883,-0.48905 -0.8913,0.24723 -0.4906,0.89647 0.3027,0.49045 0.4158,0.49083 0.5786,0.002 0.1112,-0.33426 0.072,-0.73855 -0.088,-0.89841 z m 5.8057,-2.41554 c -0.1209,-0.46306 -0.2197,-0.0842 -0.2197,0.84193 0,0.92612 0.099,1.30499 0.2197,0.84193 0.1208,-0.46306 0.1208,-1.2208 0,-1.68386 z m 7.8864,-0.48111 c 0.2809,-0.72766 0.8234,-1.94772 1.2057,-2.71122 0.3823,-0.76351 0.609,-1.4744 0.5038,-1.57975 -0.4521,-0.4528 -3.2015,3.34984 -3.2015,4.42799 0,1.58599 0.8574,1.50725 1.492,-0.13702 z m 76.6505,-1.20275 c -0.1332,-0.33076 -0.2423,-0.0601 -0.2423,0.60138 0,0.66151 0.1091,0.93213 0.2423,0.60137 0.1333,-0.33075 0.1333,-0.87199 0,-1.20275 z m -91.2607,-0.7125 c -0.1218,-0.4681 -0.2295,-0.2016 -0.2393,0.59222 -0.01,0.79382 0.09,1.17681 0.2215,0.85109 0.1316,-0.32572 0.1396,-0.97521 0.018,-1.44331 z m 2.7479,-2.2944 c 0.2284,-1.70826 0.1787,-2.19634 -0.1713,-1.68386 -0.443,0.64872 -0.7592,4.77272 -0.3289,4.28984 0.098,-0.11025 0.3233,-1.28294 0.5002,-2.60598 z m 4.5718,-0.14867 c 0.019,-0.6245 -0.1766,-0.98069 -0.4467,-0.81353 -0.2642,0.16353 -0.4652,1.09642 -0.4466,2.07308 0.027,1.43112 0.1139,1.58901 0.4466,0.81354 0.2271,-0.52922 0.4281,-1.4621 0.4467,-2.07309 z m 75.5444,1.95281 c -0.9951,-2.31939 -2.2301,-4.4502 -2.5792,-4.4502 -0.2153,0 -0.3915,-0.33351 -0.3915,-0.74114 0,-0.40762 -0.4864,-1.42979 -1.0808,-2.27148 -1.7879,-2.5312 -5.7933,-7.76832 -6.4612,-8.44794 -1.0563,-1.07493 -0.692,0.15983 0.557,1.88763 0.6499,0.8991 1.6433,2.47824 2.2074,3.50919 0.5641,1.03096 1.9681,3.19592 3.1201,4.81103 4.8276,6.76873 5.3746,7.44281 4.6282,5.70291 z m -69.91,-2.76852 c 0.1991,-1.62872 0.1245,-2.19504 -0.2583,-1.95816 -0.2961,0.1833 -0.5384,1.3308 -0.5384,2.55002 0,2.76421 0.4248,2.44858 0.7967,-0.59186 z m 72.7041,1.2984 c 0,-0.2132 -0.5404,-1.12124 -1.201,-2.01788 -0.6605,-0.89663 -1.201,-1.81912 -1.201,-2.04998 0,-0.23085 -0.5857,-1.21715 -1.3016,-2.19177 -0.7159,-0.97462 -1.3645,-1.86224 -1.4412,-1.97249 -0.077,-0.11026 -0.2785,-0.0614 -0.4482,0.10865 -0.1698,0.17001 -0.016,0.66217 0.3415,1.0937 0.8426,1.01667 1.6724,2.43733 2.6466,4.53079 0.431,0.92612 1.0037,1.95448 1.2727,2.28524 0.5506,0.67702 1.3322,0.80243 1.3322,0.21374 z m -75.2176,-3.58146 c 0.1227,-0.59537 0.3617,-2.14697 0.531,-3.44802 0.1694,-1.30104 0.6373,-2.86897 1.0399,-3.48428 0.4121,-0.62986 0.5889,-1.48829 0.4046,-1.96439 -0.3059,-0.79028 -0.3723,-0.7845 -1.0136,0.0882 -0.3775,0.51363 -0.6863,1.54493 -0.6863,2.29176 0,0.74684 -0.2162,1.78794 -0.4804,2.31357 -1.0453,2.07946 -1.2079,2.68993 -1.0554,3.96257 0.1912,1.5967 0.9508,1.74168 1.2602,0.24055 z m -2.8838,-2.28524 c 0.2175,-1.44331 0.1661,-2.0046 -0.1542,-1.68386 -0.2642,0.26461 -0.6272,1.45534 -0.8066,2.64607 -0.2175,1.4433 -0.1661,2.00459 0.1542,1.68386 0.2642,-0.26461 0.6272,-1.45534 0.8066,-2.64607 z m 80.9838,0.53257 c 0,-0.5009 -0.3483,-1.04459 -0.7741,-1.20821 -0.5666,-0.21773 -0.6953,-0.092 -0.4804,0.46898 0.1615,0.42155 0.2937,0.96525 0.2937,1.20821 0,0.24297 0.2162,0.44176 0.4804,0.44176 0.2642,0 0.4804,-0.40983 0.4804,-0.91074 z m -70.193,-3.69527 c 0.3661,-0.77428 1.8579,-2.98082 3.3151,-4.90342 1.4572,-1.9226 2.517,-3.62838 2.3549,-3.79063 -0.162,-0.16225 -1.5223,0.9778 -3.0229,2.53343 -2.5279,2.62066 -4.478,5.79005 -4.5032,7.31872 -0.017,1.06814 1.1471,0.34149 1.8561,-1.1581 z m 69.0788,-0.96555 c -0.6033,-3.72286 -9.3183,-18.78045 -10.3004,-17.79685 -0.1534,0.15359 0.1904,0.77948 0.7639,1.39085 0.5735,0.61138 1.0427,1.36826 1.0427,1.68196 0,0.31371 0.1885,0.57038 0.4187,0.57038 0.5998,0 5.0792,9.26694 6.3324,13.10034 1.0754,3.28963 2.2168,3.97954 1.7427,1.05332 z m -81.0336,-3.49783 c 1.1995,-4.98925 1.2263,-4.81055 -0.4156,-2.77176 -0.8284,1.02866 -1.5211,2.32764 -1.5393,2.88662 -0.018,0.55898 -0.1139,1.63404 -0.2127,2.38902 -0.1723,1.31664 -0.1426,1.33921 0.7252,0.55267 0.4976,-0.45101 1.1467,-1.82646 1.4424,-3.05655 z m 84.878,2.24374 c -0.1534,-0.38379 -0.2672,-0.26979 -0.2903,0.29067 -0.021,0.50716 0.093,0.79131 0.2523,0.63144 0.1597,-0.15986 0.1767,-0.57481 0.038,-0.92211 z m -20.0693,-0.99228 c -0.5985,-1.15909 -2.8074,-3.20158 -3.4933,-3.23014 -0.562,-0.0234 1.0611,2.4073 2.3007,3.44548 1.3799,1.15569 1.8562,1.0697 1.1926,-0.21534 z m 10.5997,-0.15667 c -0.4465,-1.17621 -3.1894,-5.46467 -3.823,-5.97739 -0.1635,-0.1323 -0.9061,-1.05241 -1.6501,-2.04469 -1.204,-1.60592 -2.7015,-2.4163 -2.667,-1.44331 0.024,0.67162 7.9781,10.70455 8.4867,10.70455 0.068,0 -0.088,-0.55762 -0.3466,-1.23916 z m -78.5881,0.0114 c 0.1641,-0.42814 0.084,-0.62126 -0.1888,-0.45271 -0.2611,0.16166 -0.4748,0.49765 -0.4748,0.74664 0,0.69204 0.3443,0.53954 0.6636,-0.29393 z m -1.4507,-0.93722 c 0.1521,-0.39691 0.09,-0.72165 -0.1374,-0.72165 -0.2277,0 -0.5384,0.32474 -0.6905,0.72165 -0.1521,0.39691 -0.09,0.72166 0.1374,0.72166 0.2277,0 0.5384,-0.32475 0.6905,-0.72166 z m 24.3265,-2.4495 c 0.9248,-1.19489 2.7167,-2.96963 3.9822,-3.94386 2.4363,-1.87576 4.1285,-3.93843 3.0851,-3.76055 -1.8981,0.3236 -4.1321,2.01506 -5.6261,4.25986 -0.9247,1.38948 -1.7945,2.63458 -1.9327,2.76688 -0.1382,0.13231 -0.6296,0.83592 -1.0919,1.56359 -1.3343,2.09976 -0.2638,1.50084 1.5834,-0.88592 z m 34.5886,0.044 c -0.3395,-0.4097 -0.7254,-0.63666 -0.8575,-0.50436 -0.1321,0.13231 0.038,0.57576 0.3771,0.98546 0.3396,0.4097 0.7254,0.63666 0.8576,0.50436 0.1321,-0.13231 -0.038,-0.57576 -0.3772,-0.98546 z m -50.6621,-0.27256 c 0.517,-0.83782 -0.072,-1.01525 -0.7307,-0.22017 -0.379,0.45723 -0.4154,0.73328 -0.097,0.73328 0.281,0 0.6534,-0.2309 0.8276,-0.51311 z m 53.8146,-0.40067 c -0.4686,-0.75936 -3.7288,-2.50161 -3.5227,-1.88257 0.1079,0.32442 0.8299,0.96225 1.6044,1.41739 1.5847,0.93133 2.3153,1.10851 1.9183,0.46518 z m 22.2975,-2.58414 c -1.7111,-3.28871 -4.1325,-6.73981 -5.816,-8.2891 -1.0041,-0.92404 -1.3182,-1.07574 -0.8731,-0.42166 0.3824,0.56191 1.5778,2.29389 2.6565,3.84883 1.0787,1.55494 2.5844,3.98624 3.3461,5.40288 0.7618,1.41664 1.466,2.33229 1.565,2.03476 0.099,-0.29752 -0.2963,-1.4566 -0.8785,-2.57571 z m -72.0485,2.05461 c 0,-0.26461 -0.095,-0.4811 -0.2119,-0.4811 -0.1165,0 -0.3454,0.21649 -0.5087,0.4811 -0.1633,0.26461 -0.068,0.4811 0.2118,0.4811 0.2799,0 0.5088,-0.21649 0.5088,-0.4811 z m 19.1973,-2.62361 c 0.3502,-0.42257 0.405,-0.74411 0.1268,-0.74411 -0.6219,0 -3.471,2.48425 -3.471,3.02651 0,0.47373 2.4405,-1.19189 3.3442,-2.2824 z m -11.5494,1.30058 c 0.5073,-0.46306 1.8044,-1.56808 2.8824,-2.4556 2.0261,-1.66807 2.668,-2.88902 1.068,-2.03148 -2.0571,1.10256 -6.1256,5.32901 -5.1298,5.32901 0.1414,0 0.6721,-0.37887 1.1794,-0.84193 z m 45.3731,0.12967 c -0.2492,-0.65039 -2.9278,-1.68408 -4.3808,-1.69057 -0.4745,-0.002 -0.9421,0.93891 -0.4804,0.96676 0.066,0.004 0.9849,0.31923 2.0417,0.70054 2.4836,0.89606 3.1561,0.90161 2.8195,0.0233 z m -25.4746,-2.17436 c 1.0296,-1.7455 0.5504,-1.83306 -1.5478,-0.2828 -1.5805,1.16781 -1.5629,1.23495 0.4398,1.6703 0.1412,0.0307 0.6398,-0.59368 1.108,-1.3875 z m -20.2951,-0.56596 c 0.3804,-0.71181 0.3819,-0.90121 0.01,-0.66806 -0.2892,0.17897 -0.7647,0.77246 -1.0567,1.31887 -0.3804,0.71182 -0.3818,0.90122 -0.01,0.66807 0.2892,-0.17897 0.7647,-0.77247 1.0567,-1.31888 z m 36.4649,1.05623 c 0,-0.56898 -2.1116,-1.15864 -2.9819,-0.83268 -0.386,0.14459 -0.1665,0.42398 0.5799,0.73814 1.551,0.65283 2.402,0.68632 2.402,0.0945 z m 9.9847,-1.69303 c -2.1362,-2.27342 -2.7788,-2.61526 -2.7788,-1.47833 0,0.79385 3.2828,3.6433 4.1974,3.6433 0.3387,0 -0.2997,-0.97424 -1.4186,-2.16497 z m 3.476,0.97383 c -0.3342,-0.4033 -0.8309,-0.73328 -1.1037,-0.73328 -0.2728,0 -0.1035,0.43432 0.3762,0.96516 0.9935,1.09941 1.6558,0.88831 0.7275,-0.23188 z m -63.0377,-3.61989 c 0.6896,-1.19073 2.1697,-3.13381 3.289,-4.31795 1.1194,-1.18414 1.9502,-2.23817 1.8462,-2.3423 -0.5895,-0.59034 -8.8824,9.4059 -8.8824,10.70679 0,0.82361 2.474,-1.84797 3.7472,-4.04654 z m 11.2296,2.52579 c 0.6219,-0.72767 1.8841,-1.89333 2.805,-2.59034 0.9209,-0.69702 2.7552,-2.28003 4.0763,-3.51779 l 2.402,-2.25048 -1.9216,1.01131 c -3.1233,1.64375 -4.8985,3.11094 -7.2254,5.97164 -2.1796,2.67967 -2.3014,3.90918 -0.1363,1.37566 z m 20.9789,-0.5346 c 2.2285,-1.56489 4.5954,-2.10451 6.7191,-1.53184 1.0469,0.28231 2.0269,0.83569 2.1779,1.22973 0.3116,0.81321 4.6283,1.04392 4.6283,0.24736 0,-0.26022 -0.6158,-0.34575 -1.3829,-0.19209 -1.6984,0.34018 -2.3798,-0.53394 -0.9949,-1.27622 1.157,-0.62015 6.7412,0.12472 9.5223,1.27016 0.891,0.36697 1.8976,0.66722 2.2369,0.66722 0.8927,0 0.2963,-1.85314 -0.7825,-2.43135 -1.4188,-0.76045 -13.2668,-1.52427 -14.381,-0.92712 -0.7397,0.39646 -0.9435,0.35229 -0.9435,-0.20448 0,-0.39061 0.1959,-0.83143 0.4353,-0.97961 0.2394,-0.14819 0.3325,-0.6632 0.2068,-1.14449 -0.1257,-0.48128 0.057,-1.11214 0.4054,-1.40192 0.6258,-0.5201 0.8928,-0.60868 1.8349,-0.60868 0.2642,0 0.4804,-0.21649 0.4804,-0.4811 0,-0.70801 -1.5405,-0.55722 -2.6139,0.25585 -1.1414,0.86459 -2.1936,0.91526 -2.1798,0.10498 0.014,-0.8533 3.8966,-3.50218 4.8865,-3.33424 0.4538,0.077 1.4293,-0.20805 2.1677,-0.63345 l 1.3425,-0.77346 -2.0766,0.27702 c -2.9511,0.39368 -9.3798,3.74354 -8.6284,4.49606 0.4379,0.43853 0.2108,0.56945 -0.9878,0.56945 -0.856,0 -2.3585,0.40227 -3.3388,0.89393 -0.9803,0.49167 -2.3417,1.02821 -3.0254,1.19231 -1.343,0.32238 -3.9953,2.20953 -3.6257,2.57975 0.1244,0.12451 1.8491,-0.54497 3.8329,-1.48771 4.208,-1.99981 7.4698,-2.85774 8.286,-2.17939 0.306,0.25433 0.5563,0.98435 0.5563,1.62228 0,0.97328 -0.2284,1.15337 -1.4199,1.11944 -1.0552,-0.03 -1.9327,0.47301 -3.4158,1.9583 -2.1019,2.10498 -2.0664,2.60892 0.078,1.10331 z m 18.8097,0.41432 c -0.9408,-0.60888 -1.5768,-0.60888 -1.201,0 0.1633,0.26461 0.6624,0.47779 1.1092,0.47374 0.7001,-0.006 0.7128,-0.0718 0.092,-0.47374 z m 10.6832,-3.84421 c -1.248,-1.69953 -2.0361,-2.0492 -2.0361,-0.90338 0,0.72585 3.0839,3.90157 3.2638,3.361 0.099,-0.29738 -0.4534,-1.40331 -1.2277,-2.45762 z m 3.2483,1.97127 c 0,-0.2363 -0.3549,-0.566 -0.7886,-0.73267 -0.6593,-0.25338 -0.689,-0.18298 -0.1813,0.42963 0.6918,0.83484 0.9699,0.92172 0.9699,0.30304 z m -55.6336,-2.97612 c 0.9824,-1.43442 2.8227,-3.54989 4.0895,-4.70104 2.2125,-2.01042 2.237,-2.0606 0.6219,-1.27178 -2.1874,1.06841 -6.7255,5.49977 -6.7255,6.5674 0,0.45649 -0.2162,0.96378 -0.4804,1.12731 -0.2642,0.16354 -0.4804,0.5191 -0.4804,0.79014 0,1.05195 1.2662,-0.0172 2.9749,-2.51203 z m 12.638,1.22588 c 0.7927,-0.65069 1.225,-1.17636 0.9608,-1.16816 -0.2642,0.008 -1.1289,0.54729 -1.9216,1.19798 -0.7926,0.65069 -1.225,1.17636 -0.9608,1.16815 0.2642,-0.008 1.1289,-0.54729 1.9216,-1.19797 z m -1.5805,-1.7452 c 0.4519,-0.44247 1.2085,-1.09821 1.6814,-1.45721 1.5068,-1.14377 3.2101,-3.27757 2.6164,-3.27757 -0.585,0 -5.577,4.75531 -6.8182,6.49489 -0.6861,0.96161 -0.6858,0.96161 0.5062,0.003 0.656,-0.5274 1.5624,-1.32093 2.0142,-1.7634 z m 38.1062,0.58248 c -0.5783,-0.93708 -3.8112,-2.28772 -6.2412,-2.60748 -3.1051,-0.40857 -2.412,0.17363 2.3819,2.00091 3.8636,1.47263 4.4507,1.56491 3.8593,0.60657 z m 5.5091,-0.3905 c 0,-0.20096 -0.4324,-0.63579 -0.9608,-0.96629 -1.0519,-0.65788 -1.3028,-0.16547 -0.3843,0.75434 0.6507,0.65165 1.3451,0.76107 1.3451,0.21195 z m -14.2827,-0.43131 c -0.3252,-0.13178 -0.9738,-0.1398 -1.4412,-0.0178 -0.4674,0.12198 -0.2013,0.2298 0.5914,0.23961 0.7926,0.01 1.175,-0.09 0.8498,-0.22179 z m -3.6175,-0.94845 c 1.4435,-0.38746 0.8917,-1.14149 -0.8353,-1.14149 -1.3859,0 -2.1656,0.55748 -1.5883,1.13566 0.3787,0.37919 1.0268,0.38075 2.4236,0.006 z m -17.3732,-1.68066 c 0.1436,-0.23267 -0.1609,-0.42303 -0.6767,-0.42303 -0.5157,0 -1.0528,0.30024 -1.1934,0.6672 -0.1798,0.46932 0.021,0.59478 0.6767,0.42303 0.5128,-0.1343 1.0498,-0.43454 1.1934,-0.6672 z m -8.6408,-3.13295 c 0.5052,-0.29972 0.7836,-0.68749 0.6186,-0.8617 -0.3494,-0.36895 -3.303,2.00268 -3.303,2.65218 0,0.24108 0.3973,0.0595 0.8829,-0.4036 0.4855,-0.46306 1.2962,-1.08716 1.8015,-1.38688 z m 32.9768,1.66719 c -0.4147,-0.41527 -0.8466,-0.42375 -1.6574,-0.0326 -1.0298,0.49686 -0.9957,0.53104 0.5608,0.56162 1.2634,0.0248 1.5241,-0.10096 1.0966,-0.52906 z m 10.9374,-0.35306 c 0,-0.64113 -3.0874,-2.3505 -5.6692,-3.1388 -4.8147,-1.47008 -4.967,-1.18761 -0.576,1.0686 4.5394,2.33247 6.2452,2.89791 6.2452,2.0702 z m -29.7457,-1.08268 c 0.4785,-0.89529 0.4423,-0.99252 -0.2679,-0.7196 -0.4516,0.17355 -1.3415,0.44635 -1.9775,0.60621 -1.6174,0.40654 -1.4443,1.14855 0.2679,1.14855 0.9661,0 1.6023,-0.33302 1.9775,-1.03516 z m 22.2995,0.55405 c -0.1633,-0.2646 -0.5131,-0.4811 -0.7773,-0.4811 -0.2642,0 -0.3468,0.2165 -0.1835,0.4811 0.1633,0.26461 0.5131,0.48111 0.7773,0.48111 0.2642,0 0.3468,-0.2165 0.1835,-0.48111 z m -22.717,-2.63809 c 0.7165,0.0791 1.9595,0.47195 2.7622,0.87299 1.5948,0.79674 1.7057,0.71927 0.9622,-0.67204 -0.2779,-0.52011 -1.0019,-0.93058 -1.6413,-0.93058 -0.6293,0 -1.2303,-0.2591 -1.3357,-0.57578 -0.2343,-0.70374 -4.1431,1.01707 -5.1958,2.28736 -0.5892,0.71093 -0.4103,0.68955 1.228,-0.14685 1.0546,-0.53841 2.5038,-0.91421 3.2204,-0.8351 z m 30.0598,-0.62852 c -1.5213,-1.29401 -4.2202,-2.73383 -4.2202,-2.25145 0,0.29893 4.9178,3.53675 5.4212,3.56929 0.2074,0.0134 -0.3331,-0.57963 -1.201,-1.31784 z m -20.3737,0.19766 c 1.0237,-0.35692 1.6645,-0.77077 1.424,-0.91967 -0.2406,-0.1489 -1.2944,0.12887 -2.3418,0.61725 -2.2509,1.04955 -1.7236,1.22331 0.9178,0.30242 z m -17.9355,-2.04241 c 1.333,-0.95901 2.34,-1.8273 2.2379,-1.92955 -0.3756,-0.37618 -4.438,1.31855 -5.0194,2.09396 -1.5984,2.13189 -0.3037,2.05536 2.7815,-0.16441 z m 31.9032,0.366 c -0.7807,-0.71068 -3.6439,-1.50897 -5.4121,-1.50897 -2.4487,0 -1.4487,0.63649 1.9865,1.26429 4.0017,0.73134 3.9567,0.72813 3.4256,0.24468 z m -27.1585,-1.81469 c 0.6593,-0.57764 -0.9043,-0.0412 -1.6696,0.57281 -0.8793,0.70548 -0.864,0.71549 0.2685,0.17538 0.6605,-0.31504 1.291,-0.65173 1.4011,-0.74819 z m 13.0108,0.0137 c 0,-0.10399 -0.3243,-0.18908 -0.7206,-0.18908 -0.3963,0 -0.7206,0.2097 -0.7206,0.46601 0,0.2563 0.3243,0.34138 0.7206,0.18908 0.3963,-0.15231 0.7206,-0.36201 0.7206,-0.46601 z m 5.4992,-0.23017 c -0.1547,-0.25064 -0.486,-0.32897 -0.7363,-0.17406 -0.2502,0.1549 -0.3284,0.48671 -0.1738,0.73735 0.1547,0.25064 0.486,0.32896 0.7363,0.17406 0.2503,-0.1549 0.3285,-0.48671 0.1738,-0.73735 z m -27.529,-0.71604 c 0.8041,-0.41642 1.3706,-0.84867 1.2588,-0.96057 -0.2449,-0.24529 -5.1705,1.17963 -5.1705,1.49579 0,0.51439 2.5618,0.16388 3.9117,-0.53522 z m 9.425,-2.46004 c -0.4593,-0.12042 -1.3241,-0.12479 -1.9216,-0.01 -0.5976,0.11508 -0.2218,0.2136 0.8351,0.21894 1.0568,0.005 1.5458,-0.0888 1.0865,-0.20923 z m 14.839,180.03793 c -0.3081,-0.80388 0.4076,-1.42383 1.1286,-0.97761 0.7182,0.44456 0.5793,1.68386 -0.1888,1.68386 -0.3681,0 -0.791,-0.31781 -0.9398,-0.70625 z m 46.5328,-1.68839 c -0.9248,-1.49857 -2.8491,-7.4973 -3.3988,-10.59514 -0.7468,-4.20828 -0.8679,-14.265 -0.2259,-18.76302 0.2455,-1.71994 0.6718,-5.29213 0.9474,-7.9382 0.6326,-6.07437 0.8634,-7.26112 1.7433,-8.96522 0.6741,-1.30541 1.6479,-1.87061 1.6479,-0.95641 0,0.23215 -0.3052,1.91 -0.6783,3.72855 -1.4795,7.21119 -2.3487,17.99518 -2.0891,25.9183 0.2579,7.87158 0.7159,9.96143 3.4746,15.85693 0.3665,0.78311 0.5607,1.59498 0.4316,1.80414 -0.3283,0.53195 -1.5041,0.47487 -1.8527,-0.0899 z m -96.3338,-7.31242 c -0.012,-5.67982 -0.9196,-17.62258 -1.6755,-22.04574 -0.3844,-2.24916 -0.846,-6.87927 -1.0259,-10.28914 -0.2754,-5.22136 -0.2201,-6.16442 0.3502,-5.97578 0.4636,0.15331 0.7114,1.12281 0.7856,3.0726 0.06,1.56673 0.3332,4.68882 0.608,6.93798 0.2749,2.24916 0.6042,5.06361 0.7319,6.25434 0.1277,1.19073 0.3332,2.9227 0.4567,3.84882 0.1235,0.92613 0.3532,3.30759 0.5105,5.29214 0.1573,1.98455 0.366,4.5825 0.4638,5.77323 0.098,1.19073 0.2413,4.00323 0.319,6.25001 0.1228,3.55334 0.033,4.10585 -0.6878,4.24492 -0.7237,0.13957 -0.83,-0.28798 -0.8365,-3.36338 z m -31.3426,-16.37441 c 0.1421,-7.65239 0,-15.1114 -0.3926,-20.10442 -1.235,-15.84771 -0.8541,-17.95887 4.3151,-23.91798 2.9085,-3.35297 3.6584,-3.90103 9.1724,-6.70361 3.3028,-1.67865 6.4204,-2.99877 6.9282,-2.93358 1.0792,0.13855 1.6448,1.32127 0.6318,1.32127 -0.3777,0 -1.3145,0.30953 -2.0817,0.68785 -0.7672,0.37832 -3.2324,1.54319 -5.4783,2.58862 -3.1137,1.44943 -4.7957,2.62543 -7.0835,4.95264 -4.7815,4.86386 -6.471,9.80406 -5.4483,15.93068 0.7055,4.22593 1.22,32.53908 0.6706,36.90101 -0.2139,1.69834 -0.6298,3.16796 -0.9243,3.26582 -0.3882,0.12899 -0.4733,-3.16842 -0.3094,-11.9883 z m 156.974,7.79955 c -0.1633,-0.2646 0.053,-0.4811 0.4804,-0.4811 0.4275,0 0.6437,0.2165 0.4804,0.4811 -0.1633,0.26461 -0.3795,0.48111 -0.4804,0.48111 -0.1009,0 -0.3171,-0.2165 -0.4804,-0.48111 z m -139.0751,-39.39058 c 0,-0.23168 0.5233,-1.60629 1.1629,-3.05468 1.1666,-2.64175 2.3623,-4.22173 3.195,-4.22173 0.696,0 0.5239,1.26084 -0.2611,1.91331 -0.389,0.32329 -1.2418,1.75703 -1.8951,3.18607 -1.039,2.27296 -2.2017,3.42258 -2.2017,2.17703 z m -3.8432,-4.41043 c 0,-1.32219 4.7972,-6.7148 5.9734,-6.7148 0.4109,0 0.3258,1.33964 -0.097,1.52349 -0.2027,0.0882 -1.433,1.40522 -2.7339,2.92671 -2.2985,2.68826 -3.1428,3.29664 -3.1428,2.2646 z m 122.9818,-0.66106 c 0,-0.63954 -0.7566,-2.59111 -1.6814,-4.33683 -0.9248,-1.74572 -1.6814,-3.38743 -1.6814,-3.64823 0,-1.02238 1.3767,-0.40098 1.8806,0.84884 0.2934,0.72767 0.9421,1.97252 1.4416,2.76634 0.4995,0.79382 1.0562,2.36342 1.2372,3.488 0.2712,1.68542 0.195,2.04468 -0.4338,2.04468 -0.4864,0 -0.7628,-0.42132 -0.7628,-1.1628 z"
         id="path1" /></g></g></svg>
