<?xml version="1.0" encoding="UTF-8" standalone="no"?>
<!-- Created with Inkscape (http://www.inkscape.org/) -->

<svg
   width="231.38646"
   height="235.24007"
   viewBox="0 0 61.221 62.240601"
   version="1.1"
   id="svg1"
   xml:space="preserve"
   xmlns="http://www.w3.org/2000/svg"
   xmlns:svg="http://www.w3.org/2000/svg"><defs
     id="defs1" /><g
     id="g1695"
     transform="matrix(0.26458333,0,0,0.26458333,-4161.9381,-78.037963)"><path
       style="fill:#000000"
       d="m 15769.949,523.17062 c 0,-0.27282 0.32,-0.61894 0.711,-0.76915 0.391,-0.1502 1.137,-0.96472 1.659,-1.81003 0.522,-0.84531 1.389,-2.04431 1.926,-2.66444 1.049,-1.21081 2.893,-3.72482 8.342,-11.37464 3.845,-5.39697 6.279,-8.50286 7.899,-10.07973 0.595,-0.57859 1.081,-1.2213 1.081,-1.42824 0,-0.20695 0.757,-1.3007 1.682,-2.43056 0.924,-1.12985 1.681,-2.18705 1.681,-2.34932 0,-0.16227 -2.53,-0.23406 -5.623,-0.15953 l -5.623,0.1355 -2.664,3.17553 c -1.465,1.74655 -6.915,7.69833 -12.111,13.22619 -5.196,5.52787 -10.276,11.07786 -11.29,12.33333 -1.013,1.25547 -2.113,2.28351 -2.443,2.28453 -0.986,0.003 -0.682,-1.41224 0.548,-2.54622 0.632,-0.58249 3.369,-3.548 6.083,-6.59003 2.714,-3.04202 7.655,-8.388 10.982,-11.87996 7.793,-8.18143 9.17,-9.68181 9.17,-9.99037 0,-0.48073 -10.51,-0.25786 -10.81,0.22924 -0.164,0.2655 -0.842,0.34606 -1.507,0.17904 -0.956,-0.24019 -1.577,0.0489 -2.973,1.38264 -1.74,1.66228 -11.052,9.133 -16.64,13.34874 -2.577,1.94421 -7.774,6.13283 -10.747,8.66215 -1.335,1.13565 -1.7,1.17561 -2.452,0.26858 -0.467,-0.56326 0.03,-1.07666 2.783,-2.876 1.844,-1.20469 4.324,-3.00633 5.513,-4.00363 4.389,-3.68278 6.033,-4.93947 6.46,-4.93947 0.241,0 0.85,-0.45581 1.354,-1.01291 0.503,-0.55709 2.899,-2.4993 5.323,-4.31602 2.425,-1.81672 5.149,-4.06627 6.054,-4.999 0.905,-0.93274 1.884,-1.69588 2.175,-1.69588 0.822,0 2.939,-2.31636 3.203,-3.50386 0.13,-0.58586 0.341,-8.26001 0.47,-17.05367 0.128,-8.79367 0.347,-18.20831 0.485,-20.92143 0.139,-2.71312 0.363,-12.72438 0.498,-22.24723 0.135,-9.52286 0.454,-26.83715 0.71,-38.4762 0.255,-11.63904 0.524,-24.53808 0.598,-28.66453 l 0.135,-7.50263 -2.067,-2.59737 c -2.891,-3.63341 -6.839,-8.97377 -8.319,-11.25451 -1.113,-1.71594 -2.181,-3.086 -5.859,-7.51738 -0.577,-0.69575 -1.374,-1.76124 -1.77,-2.36776 -0.397,-0.60651 -1.371,-1.8769 -2.165,-2.82309 -2.033,-2.42296 -4.118,-5.18332 -5.965,-7.89669 -0.872,-1.28081 -2.547,-3.44509 -3.721,-4.80953 -3.802,-4.41637 -4.05,-4.76682 -3.905,-5.51304 0.307,-1.58321 1.23,-0.84677 4.466,3.55985 6.162,8.39258 13.396,17.74389 14.028,18.1332 0.344,0.21154 0.624,0.672 0.624,1.02326 0,0.35125 0.334,0.9156 0.741,1.25411 0.408,0.33851 1.961,2.36698 3.452,4.5077 3.024,4.33972 7.072,9.45232 9.979,12.60405 l 1.922,2.08277 26.848,0.13365 c 26.261,0.13074 26.859,0.11302 27.383,-0.81172 0.295,-0.51997 1.995,-3.164 3.779,-5.87564 1.783,-2.71164 3.241,-5.09979 3.239,-5.307 0,-0.20721 -0.65,-0.74543 -1.441,-1.19604 -1.956,-1.11413 -1.848,-2.4142 0.285,-3.4325 0.948,-0.45254 3.474,-2.0159 5.613,-3.47411 4.004,-2.73035 4.915,-2.97226 5.814,-1.54395 0.395,0.62739 0.332,1.15598 -0.255,2.16428 -1.081,1.85803 -3.206,7.30303 -3.58,9.17499 -0.442,2.20957 -1.014,2.33776 -2.781,0.62304 l -1.55,-1.50377 -0.984,1.08899 c -0.542,0.59895 -2.344,3.11222 -4.006,5.58506 -2.396,3.56581 -2.882,4.58427 -2.348,4.92239 0.37,0.23449 8.671,0.44231 18.448,0.46182 9.776,0.0195 25.665,0.12425 35.31,0.23274 9.644,0.10849 29.201,0.32806 43.459,0.48794 14.259,0.15987 26.095,0.39586 26.303,0.52443 1.807,1.11857 -1.661,1.20755 -35.773,0.9176 -19.883,-0.16901 -38.389,-0.3971 -41.125,-0.50687 -6.007,-0.24105 -48.628,-0.37222 -48.801,-0.15018 -0.237,0.30319 -4.362,6.30191 -5.029,7.31178 -4.498,6.81452 -5.795,8.96493 -6.071,10.06455 -0.178,0.71349 -0.6,1.29726 -0.937,1.29726 -0.877,0 -1.281,-2.00533 -0.589,-2.92906 0.322,-0.42964 2.823,-4.08624 5.558,-8.12578 3.807,-5.62334 4.821,-7.44115 4.323,-7.75657 -0.357,-0.22658 -3.351,-0.41653 -6.654,-0.42211 -3.303,-0.006 -14.565,-0.1501 -25.028,-0.32115 -11.167,-0.18258 -19.128,-0.13177 -19.279,0.12302 -0.141,0.23872 -0.392,7.68439 -0.557,16.54593 -0.63,33.86667 -0.795,41.84543 -1.022,49.5381 -0.247,8.38527 -1.343,66.94049 -1.282,68.46984 0.02,0.49281 0.104,0.96424 0.188,1.04761 0.33,0.33068 17.927,0.69003 46.74,0.95449 16.646,0.15279 37.346,0.36992 45.999,0.48252 10.065,0.13096 15.733,0.0354 15.733,-0.26535 0,-0.60804 1.792,-0.61519 2.002,-0.008 0.185,0.53442 38.589,0.77033 39.92,0.24522 0.466,-0.18368 1.115,-0.11618 1.441,0.15 0.365,0.29677 5.519,0.48865 13.326,0.49609 15.303,0.0146 13.932,-0.0652 13.932,0.8109 0,0.57714 -0.721,0.72143 -3.603,0.72143 -1.982,0 -3.604,0.20776 -3.604,0.46168 0,0.25393 0.512,2.58054 1.137,5.17024 0.625,2.58971 1.53,6.43999 2.012,8.55618 0.481,2.11619 0.928,4.06404 0.993,4.32857 0.673,2.71897 2.577,12.21601 2.58,12.86547 0,0.46292 -0.266,0.84119 -0.596,0.84061 -0.381,-6.8e-4 -1.192,-2.60335 -2.212,-7.09405 -1.422,-6.25519 -2.795,-12.24467 -4.438,-19.35727 -0.275,-1.19036 -0.564,-2.64672 -0.641,-3.23637 -0.28,-2.12247 -1.111,-2.53506 -5.11,-2.53506 -2.066,0 -3.855,0.16232 -3.975,0.36071 -0.293,0.48433 2.567,14.35866 4.415,21.41722 1.991,7.60902 2.361,10.44588 1.362,10.44588 -1.029,0 -1.184,-0.34253 -1.998,-4.40126 -0.389,-1.94395 -1.038,-5.15767 -1.441,-7.1416 -0.973,-4.78958 -1.693,-8.42446 -2.191,-11.0619 -0.225,-1.19036 -0.761,-3.84161 -1.191,-5.89167 l -0.781,-3.72738 h -4.083 c -3.905,0 -4.07,0.0433 -3.769,0.99128 0.173,0.54521 0.485,2.54717 0.694,4.44881 1.334,12.14743 2.953,25.67195 3.135,26.18253 0.24,0.67146 -0.994,0.83659 -1.395,0.18677 -0.282,-0.45645 -1.1,-6.69401 -1.712,-13.05225 -0.216,-2.24845 -0.519,-4.62916 -0.672,-5.29047 -0.154,-0.66131 -0.396,-2.39274 -0.539,-3.84762 -0.348,-3.5337 -1.148,-9.24387 -1.32,-9.41609 -0.142,-0.14286 -6.742,-0.2935 -10.331,-0.23579 l -2.042,0.0328 v 3.24643 c 0,1.78553 0.206,5.08607 0.456,7.33452 0.421,3.78811 1.044,10.52937 1.7,18.39643 0.255,3.05743 0.213,3.24643 -0.731,3.24643 -0.552,0 -0.903,-0.16251 -0.78,-0.36113 0.203,-0.32921 -0.661,-10.87675 -2.125,-25.95114 l -0.571,-5.87179 -1.978,-0.28976 c -1.088,-0.15937 -3.707,-0.22242 -5.821,-0.14011 l -3.843,0.14964 0.142,14.66905 c 0.08,8.06798 0.24,15.37244 0.358,16.23214 0.181,1.31298 0.06,1.5631 -0.743,1.5631 -0.906,0 -0.96,-0.33461 -0.983,-6.13214 -0.04,-9.35151 -0.468,-25.29548 -0.7,-25.97143 -0.149,-0.43613 -1.79,-0.60119 -5.977,-0.60119 -5.598,0 -5.777,0.0323 -5.993,1.08214 -0.122,0.59518 -0.358,5.8749 -0.525,11.73272 -0.166,5.85782 -0.378,11.05211 -0.47,11.54286 -0.09,0.49075 -0.185,2.5696 -0.205,4.61966 -0.03,3.36501 -0.128,3.72738 -0.976,3.72738 -1.006,0 -1.018,-0.65697 -0.261,-14.42857 0.124,-2.24845 0.369,-7.28042 0.546,-11.18214 l 0.321,-7.09405 h -5.56 -5.561 l -0.275,3.00595 c -1.046,11.43789 -1.763,20.08112 -2.034,24.52857 -0.286,4.69718 -0.401,5.17024 -1.252,5.17024 -1.045,0 -1.07,0.96691 0.36,-13.94762 0.368,-3.83559 0.817,-9.62506 0.998,-12.86548 l 0.329,-5.89166 h -5.599 -5.598 l -0.505,1.32262 c -0.277,0.72744 -0.933,3.59512 -1.456,6.37262 -0.524,2.7775 -1.508,7.86357 -2.187,11.30238 -0.68,3.43881 -1.332,6.79345 -1.449,7.45476 -0.944,5.30831 -1.225,6.25238 -1.859,6.25238 -0.378,0 -0.686,-0.27054 -0.684,-0.60119 0,-1.10035 2.864,-17.74137 3.119,-18.15532 0.409,-0.66281 2.782,-13.49707 2.537,-13.72386 -0.07,-0.0683 -1.972,-0.20089 -4.218,-0.29456 l -4.083,-0.17031 -0.814,1.68334 c -0.909,1.87955 -1.706,4.67095 -5.221,18.27619 -1.332,5.15821 -2.636,10.19017 -2.896,11.18214 -0.275,1.04492 -0.77,1.80357 -1.176,1.80357 -0.818,0 -0.908,-1.31944 -0.215,-3.14568 0.269,-0.70648 1.898,-6.83467 3.621,-13.61822 1.723,-6.78354 3.389,-13.04893 3.701,-13.92308 0.771,-2.15141 0.14,-2.48215 -4.747,-2.49137 l -3.903,-0.007 -0.282,1.4097 c -0.256,1.28178 -4.293,12.17619 -5.804,15.66411 -0.344,0.79357 -1.774,4.36464 -3.177,7.93571 -2.794,7.10629 -3.099,7.65578 -3.842,6.91164 -0.339,-0.33941 -0.265,-0.93665 0.237,-1.89977 0.402,-0.7726 0.733,-1.62773 0.734,-1.90028 0,-0.27256 0.784,-2.32863 1.737,-4.56905 1.926,-4.52569 4.351,-10.74416 6.466,-16.57825 0.767,-2.1162 1.83,-4.14456 2.362,-4.50748 0.533,-0.36292 0.968,-1.05798 0.968,-1.54459 0,-0.83479 -0.66,-0.88475 -11.69,-0.88475 h -11.689 l -0.747,1.56821 c -0.411,0.86251 -1.802,2.96436 -3.09,4.67078 -1.288,1.70642 -2.972,4.18473 -3.74,5.50735 -0.769,1.32262 -3.338,5.32655 -5.709,8.89762 -2.371,3.57107 -5.196,7.84553 -6.278,9.49881 -1.178,1.80035 -2.306,3.00595 -2.812,3.00595 -1.085,0 -1.052,-0.43642 0.144,-1.92381 0.9,-1.11829 4.315,-6.22247 15.689,-23.44643 2.489,-3.76946 4.704,-6.85357 4.922,-6.85357 0.218,0 0.504,-0.28101 0.636,-0.62446 0.187,-0.48686 -1.061,-0.65376 -5.664,-0.75748 -5.704,-0.12854 -5.93,-0.0953 -6.694,0.98517 -3.134,4.42988 -7.487,10.18436 -9.391,12.41473 -1.245,1.4581 -3.853,4.92359 -5.797,7.70109 -1.944,2.7775 -4.679,6.54832 -6.078,8.37961 -1.399,1.83129 -2.543,3.50861 -2.543,3.72738 0,0.21877 -0.541,0.39777 -1.201,0.39777 -0.661,0 -1.201,-0.22322 -1.201,-0.49605 z m 33.336,-1.55723 c 0.557,-1.1293 1.753,-3.11686 2.658,-4.4168 0.905,-1.29994 2.935,-4.97507 4.512,-8.16696 1.577,-3.19189 3.894,-7.53486 5.148,-9.65106 1.255,-2.11619 2.428,-4.33458 2.606,-4.92976 0.344,-1.14183 1.702,-1.51595 1.702,-0.46864 0,0.33743 -1.407,3.0969 -3.128,6.13215 -1.72,3.03525 -4.561,8.44042 -6.313,12.01149 -3.848,7.8428 -6.205,11.54286 -7.352,11.54286 -0.782,0 -0.77,-0.1557 0.167,-2.05328 z m 137.449,-26.80386 c 0.163,-0.26453 0.392,-0.48096 0.509,-0.48096 0.116,0 0.212,0.21643 0.212,0.48096 0,0.26452 -0.229,0.48095 -0.509,0.48095 -0.28,0 -0.375,-0.21643 -0.212,-0.48095 z m -120.823,-2.61686 c 0,-0.41239 0.216,-0.74981 0.481,-0.74981 0.264,0 0.48,0.20366 0.48,0.45257 0,0.24891 -0.216,0.58633 -0.48,0.74981 -0.265,0.16349 -0.481,-0.0402 -0.481,-0.45257 z m 115.058,-189.64835 c -5.02,-0.0807 -26.53,-0.3207 -47.8,-0.53329 l -38.673,-0.38653 53.445,-0.0789 c 47.222,-0.0697 53.446,0.005 53.446,0.64251 0,0.60653 -0.899,0.70403 -5.645,0.6122 -3.105,-0.0601 -9.752,-0.17526 -14.773,-0.25598 z m -92.088,-0.92524 c 0.347,-0.13894 0.761,-0.12185 0.921,0.038 0.159,0.15981 -0.125,0.27349 -0.631,0.2526 -0.56,-0.0231 -0.673,-0.13704 -0.29,-0.29057 z"
       id="path1" /></g></svg>
