<?xml version="1.0" encoding="UTF-8" standalone="no"?>
<!-- Created with Inkscape (http://www.inkscape.org/) -->

<svg
   width="231.38646"
   height="235.24007"
   viewBox="0 0 61.221 62.240601"
   version="1.1"
   id="svg1"
   xml:space="preserve"
   xmlns="http://www.w3.org/2000/svg"
   xmlns:svg="http://www.w3.org/2000/svg"><defs
     id="defs1" /><g
     id="g1675"
     transform="matrix(0.26458333,0,0,0.26458333,-4099.9374,-15.852061)"><path
       style="fill:#000000"
       d="m 15674.808,282.17383 c -0.227,-0.59185 -1.908,-0.70903 -10.264,-0.71559 -9.117,-0.007 -62.803,-1.11331 -84.277,-1.73645 -4.892,-0.14197 -19.064,-0.46272 -31.492,-0.71279 -26.633,-0.53584 -32.455,-0.80584 -32.455,-1.50507 0,-0.50058 15.123,-0.34258 42.155,0.44044 l 10.663,0.30884 0.258,-1.63396 c 0.265,-1.67408 0.602,-15.63632 1.014,-41.95891 0.309,-19.78592 0.764,-44.8624 0.975,-53.76659 0.09,-3.96049 0.292,-14.6538 0.44,-23.76292 0.851,-52.45935 1.232,-65.930145 1.885,-66.582036 0.169,-0.167946 7.609,-0.05364 16.534,0.254013 8.925,0.307653 24.666,0.695671 34.979,0.862261 10.313,0.16659 19.401,0.351986 20.194,0.411991 0.793,0.06 8.419,0.139864 16.946,0.177463 l 15.503,0.06836 -0.227,17.162108 c -0.494,37.24033 -0.748,61.34268 -0.996,94.69161 -0.143,19.14235 -0.346,42.68924 -0.451,52.32642 -0.106,9.63718 -0.06,18.98033 0.09,20.76255 l 0.283,3.24039 h 2.616 c 1.883,0 2.557,0.16795 2.406,0.60008 -0.14,0.40082 -1.011,0.55083 -2.622,0.45177 -1.686,-0.1036 -2.635,0.0735 -3.15,0.58774 -0.644,0.64285 -0.771,0.64644 -1.009,0.0283 z m -9.731,-2.12765 1.211,-0.45979 0.04,-7.5812 c 0.02,-4.16966 0.125,-9.74146 0.226,-12.38179 0.101,-2.64032 0.314,-18.51827 0.474,-35.28432 0.159,-16.76606 0.386,-34.37222 0.505,-39.1248 0.118,-4.75259 0.341,-19.33437 0.496,-32.40398 0.154,-13.0696 0.372,-30.08876 0.483,-37.82036 l 0.203,-14.05745 -1.1,-0.41751 c -0.605,-0.22962 -6.604,-0.548568 -13.332,-0.708764 -16.733,-0.398427 -29.529,-0.760055 -35.552,-1.004776 -15.919,-0.646798 -36.172,-0.805676 -35.847,-0.28122 0.306,0.494469 -0.297,38.43146 -0.939,59.09067 -0.136,4.35654 -0.459,18.07422 -0.719,30.48374 -0.26,12.40952 -0.577,26.23522 -0.705,30.72377 -0.322,11.368 -0.914,44.18323 -0.948,52.56644 l -0.03,6.96086 1.683,0.0869 c 6.901,0.3562 39.812,1.21744 58.659,1.53502 12.561,0.21166 23.094,0.41938 23.408,0.46161 0.313,0.0422 1.115,-0.13013 1.781,-0.38301 z m -9.519,-61.86371 c -0.387,-0.74581 -1.312,-2.01927 -2.056,-2.82993 -0.745,-0.81065 -1.949,-2.55456 -2.676,-3.87537 -1.238,-2.2495 -1.322,-2.7717 -1.322,-8.25301 v -5.85155 l 2.524,-2.47872 c 1.388,-1.3633 2.908,-3.0728 3.377,-3.79889 1.126,-1.74375 1.521,-1.66823 2.514,0.48006 0.458,0.99012 1.64,2.66432 2.628,3.72045 l 1.796,1.92024 0.51,6.87196 0.51,6.87196 -1.96,3.4493 c -1.077,1.89712 -2.282,3.82736 -2.676,4.28941 -1.057,1.23781 -2.372,1.02376 -3.169,-0.51591 z m 4.852,-4.98694 c 1.185,-2.48339 1.403,-3.46278 1.231,-5.52726 l -0.208,-2.50907 -1.293,0.66769 c -1.896,0.97873 -4.695,1.41571 -5.08,0.79312 -0.638,-1.03006 -1.229,-0.49476 -1.229,1.11273 0,2.52874 3.761,9.3316 4.803,8.68839 0.185,-0.11408 0.984,-1.5656 1.776,-3.2256 z m -3.114,-1.62378 c -0.591,-1.05492 -0.136,-3.07462 0.693,-3.07462 0.899,0 1.307,1.15492 0.933,2.6414 -0.345,1.37226 -1.001,1.54724 -1.626,0.43322 z m 3.747,-12.89893 c 0,-0.73723 -0.408,-1.39931 -1.082,-1.7564 -0.595,-0.31522 -1.38,-0.9929 -1.744,-1.50595 -0.838,-1.17945 -1.483,-0.3538 -1.494,1.91157 0,1.33479 0.207,1.60813 1.556,1.99695 2.43,0.70056 2.764,0.62235 2.764,-0.64617 z m 13.647,80.03292 c 0.148,-0.99012 0.393,-15.94995 0.544,-33.24407 0.152,-17.29413 0.363,-34.57624 0.469,-38.40471 0.107,-3.82847 0.331,-29.53563 0.5,-57.12701 0.168,-27.59138 0.372,-51.410242 0.453,-52.930796 0.08,-1.520554 0.01,-2.8441 -0.16,-2.941215 -0.169,-0.09712 -9.178,-0.317971 -20.02,-0.490792 -10.843,-0.172821 -23.5,-0.415117 -28.128,-0.538437 -4.627,-0.12332 -18.258,-0.450177 -30.291,-0.72635 -12.032,-0.276173 -22.248,-0.612835 -22.702,-0.748137 -0.578,-0.172428 -0.894,0.08521 -1.055,0.861402 -0.23,1.106487 -0.499,13.254495 -1.036,46.713005 -0.157,9.76919 -0.463,25.53913 -0.68,35.04429 -0.217,9.50517 -0.431,22.14272 -0.475,28.08345 -0.04,5.94073 -0.148,12.20549 -0.231,13.9217 -0.08,1.71621 -0.316,16.3232 -0.518,32.45997 l -0.368,29.33957 2.617,0.32642 c 3.393,0.42332 4.234,0.0728 4.338,-1.80991 0.05,-0.82986 0.123,-2.15691 0.17,-2.94901 0.05,-0.7921 0.227,-9.10912 0.399,-18.48227 0.429,-23.4204 0.746,-37.7735 1.029,-46.56571 0.131,-4.0925 0.358,-14.02972 0.503,-22.08271 0.146,-8.05298 0.353,-17.23411 0.459,-20.4025 0.107,-3.16839 0.32,-13.64567 0.474,-23.28285 0.154,-9.63719 0.385,-19.82224 0.515,-22.63345 0.13,-2.81122 0.251,-9.23759 0.269,-14.28083 0.02,-5.04325 0.176,-9.247236 0.35,-9.342204 0.174,-0.09497 2.155,-0.0018 4.403,0.207104 5.589,0.519384 40.669,1.41254 56.255,1.432282 7.007,0.0089 15.946,0.147955 19.863,0.309062 l 7.121,0.292924 -0.272,18.527132 c -0.15,10.18992 -0.378,23.27971 -0.507,29.08842 -0.129,5.80871 -0.347,23.73891 -0.484,39.84488 -0.138,16.10598 -0.359,35.76439 -0.491,43.68536 -0.497,29.78698 -0.366,49.78363 0.33,50.22392 0.354,0.22418 1.869,0.4109 3.366,0.41494 l 2.722,0.007 z m -105,3.2404 c 0,-0.26403 0.216,-0.48006 0.481,-0.48006 0.264,0 0.48,0.21603 0.48,0.48006 0,0.26403 -0.216,0.48006 -0.48,0.48006 -0.265,0 -0.481,-0.21603 -0.481,-0.48006 z m 112.829,-0.32004 c -1.011,-1.00942 0.495,-1.16001 9.416,-0.94196 5.355,0.13089 10.872,0.25236 12.261,0.26993 1.388,0.0176 2.524,0.24798 2.524,0.51201 0,0.53946 -23.664,0.69593 -24.201,0.16002 z"
       id="path1" /></g></svg>
