<?xml version="1.0" encoding="UTF-8" standalone="no"?>
<!-- Created with Inkscape (http://www.inkscape.org/) -->

<svg
   width="231.38646"
   height="235.24007"
   viewBox="0 0 61.221 62.240601"
   version="1.1"
   id="svg1"
   xml:space="preserve"
   xmlns="http://www.w3.org/2000/svg"
   xmlns:svg="http://www.w3.org/2000/svg"><defs
     id="defs1" /><g
     id="g1951"
     transform="matrix(0.26458333,0,0,0.26458333,-4779.2833,-23.066375)"><path
       style="fill:#000000"
       d="m 18135.479,304.87911 c 0.917,-1.26115 2.546,-1.64016 2.546,-0.59241 0,0.96971 -1.039,1.77998 -2.282,1.77998 -1.112,0 -1.116,-0.0167 -0.264,-1.18757 z m 105.238,-1.79074 c -1.523,-0.85335 -3.962,-3.41548 -5.292,-5.56076 -0.698,-1.12452 -1.473,-2.04458 -1.723,-2.04458 -0.25,0 -1.006,-0.94237 -1.681,-2.09417 -0.674,-1.15179 -1.657,-2.48425 -2.183,-2.96102 -0.527,-0.47677 -0.957,-1.1055 -0.957,-1.39718 0,-0.29168 -1.163,-1.86487 -2.585,-3.49597 -1.421,-1.63111 -3.088,-3.68612 -3.704,-4.56669 -0.616,-0.88058 -2.617,-3.39126 -4.446,-5.5793 -2.876,-3.44081 -3.431,-3.89657 -4.107,-3.37363 -0.43,0.33254 -2.319,2.01451 -4.198,3.73771 -1.878,1.7232 -4.98,4.10727 -6.893,5.29794 -1.913,1.19066 -4.377,2.82541 -5.477,3.63277 -4.015,2.94667 -17.032,9.57225 -22.431,11.41659 -6.064,2.07183 -8.799,2.88644 -11.056,3.29378 -1.19,0.21466 -4.511,0.82019 -7.381,1.34562 -8.01,1.46674 -13.831,2.02774 -14.58,1.40525 -1.724,-1.4319 -0.2,-2.31433 4.016,-2.32547 7.207,-0.019 26.123,-4.42579 33.552,-7.81664 4.745,-2.16549 14.014,-7.02894 16.601,-8.71054 8.253,-5.3651 10.145,-6.83798 10.412,-8.1065 0.173,-0.81989 0.738,-1.46724 1.54,-1.76471 0.697,-0.25839 2.219,-1.30881 3.381,-2.33428 l 2.113,-1.86447 -1.752,-2.44173 c -1.996,-2.78007 -2.166,-3.75583 -0.782,-4.49699 1.192,-0.63827 1.913,-0.25211 1.913,1.02426 0,0.57034 0.213,0.83053 0.523,0.63893 0.287,-0.17777 0.422,-0.70779 0.299,-1.17783 -0.123,-0.47003 -0.06,-1.12263 0.144,-1.45023 0.246,-0.39841 0.917,0.26341 2.027,1.99884 0.912,1.42696 2.481,3.34878 3.488,4.27072 2.561,2.34591 2.819,2.64819 5.963,6.9681 3.355,4.61113 4.052,5.86297 3.465,6.22609 -0.487,0.30104 -1.645,-0.99337 -4.832,-5.40225 -1.431,-1.97958 -2.265,-2.76824 -2.511,-2.3749 -0.225,0.35943 -0.07,0.65308 0.387,0.75361 0.527,0.11468 0.686,0.5346 0.524,1.38247 -0.173,0.90659 0,1.27836 0.673,1.4549 0.593,0.15512 0.906,0.66701 0.906,1.47994 0,0.96662 0.129,1.11451 0.577,0.66551 0.785,-0.7857 1.346,-0.72556 1.346,0.14432 0,0.39689 0.244,0.72162 0.541,0.72162 0.343,0 0.437,0.52121 0.256,1.42457 -0.303,1.51642 0.349,2.44757 0.832,1.18809 0.442,-1.15371 1.256,-0.32155 1.256,1.28488 0,1.43087 3.39,6.68615 4.313,6.68615 1.159,0 0.889,-1.27008 -0.866,-4.07094 -1.725,-2.75387 -1.982,-3.62629 -1.069,-3.62629 0.163,0 1.154,1.40664 2.204,3.12586 1.049,1.71922 2.016,3.11917 2.148,3.11099 0.132,-0.008 0.745,-0.43601 1.362,-0.95074 l 1.122,-0.93589 -1.843,-2.25638 c -1.014,-1.241 -3.07,-3.57666 -4.57,-5.19034 -2.458,-2.64513 -6.749,-7.98566 -9.291,-11.56433 -0.994,-1.39883 -3.39,-4.33998 -4.45,-5.46138 -0.332,-0.35152 -0.826,-1.05521 -1.098,-1.56377 -0.679,-1.26956 -1.16,-1.19064 -5.534,0.90928 -2.101,1.00865 -5.01,2.19698 -6.464,2.64073 -2.893,0.88288 -9.654,1.74613 -11.841,1.51182 -4.612,-0.4943 -5.45,-0.77881 -6.709,-2.27568 l -1.285,-1.52826 0.347,1.67492 c 0.191,0.92121 0.873,2.84938 1.517,4.28483 0.66,1.47359 0.988,2.79156 0.753,3.02712 -0.639,0.63923 -1.279,-0.4193 -3.207,-5.30751 -1.807,-4.58143 -1.935,-6.31689 -0.402,-5.45861 0.65,0.36401 1.09,0.0772 2.17,-1.41484 0.745,-1.02928 2.273,-2.54667 3.396,-3.37199 1.122,-0.82532 1.586,-1.36273 1.029,-1.19425 -0.556,0.16849 -2.503,0.49966 -4.326,0.73596 -3.175,0.41154 -3.36,0.37961 -4.397,-0.75864 -1.169,-1.28478 -1.408,-3.02031 -0.536,-3.89312 0.3,-0.30006 0.603,-1.27304 0.673,-2.16216 0.103,-1.29397 1.158,-4.27744 2.002,-5.66301 0.08,-0.1323 -1.211,-0.17009 -2.871,-0.084 -2.586,0.13412 -3.152,0.01 -3.945,-0.8681 -1.994,-2.2045 -0.559,-8.69113 2.936,-13.27719 l 1.323,-1.73525 -1.756,0.73387 c -2.954,1.23551 -5.957,1.49552 -7.277,0.63013 -2.193,-1.43816 -3.648,-3.07184 -3.648,-4.09638 0,-1.48239 -0.73,-1.26698 -2.188,0.6457 l -1.275,1.67296 0.548,5.18239 c 0.302,2.85031 0.623,5.956 0.713,6.90154 0.415,4.33574 -1.762,12.08872 -3.153,11.22827 -0.516,-0.31877 -0.409,-1.34464 0.497,-4.76913 0.628,-2.37513 0.661,-8.00181 0.06,-10.58369 -0.245,-1.05836 -0.59,-3.57363 -0.766,-5.58947 l -0.32,-3.66517 1.787,-1.62667 c 2.323,-2.11616 2.652,-2.7917 3.184,-6.5514 0.444,-3.13769 2.199,-7.33491 3.715,-8.88314 3.937,-4.0216 4.764,-6.21059 2.965,-7.84059 -1.141,-1.03282 -1.273,-2.64593 -0.217,-2.64593 0.41,0 1.412,0.34494 2.226,0.76652 l 1.481,0.76652 3.336,-3.29217 c 1.835,-1.81069 3.961,-4.15811 4.725,-5.21648 3.849,-5.33166 5.878,-8.66875 6.521,-10.72185 1.027,-3.28089 0.898,-11.33765 -0.248,-15.47573 -2.217,-8.00865 -3.884,-9.55107 -5.953,-5.50845 -0.419,0.81855 -0.911,2.61094 -1.093,3.9831 -0.519,3.91887 -4.382,8.23932 -7.366,8.23932 -0.537,0 -1.72,0.70358 -2.628,1.5635 -4.552,4.30901 -7.347,6.17531 -11.841,7.9063 -4.904,1.88861 -10.762,6.21583 -14.422,10.65308 -3.345,4.05589 -7.794,8.74171 -8.299,8.74171 -0.25,0 -1.276,0.65043 -2.279,1.44539 -1.003,0.79496 -3.522,2.00959 -5.598,2.69919 -2.075,0.6896 -4.455,1.66693 -5.287,2.17184 -1.653,1.00258 -3.693,4.73702 -3.236,5.92641 0.162,0.42254 -0.03,0.85748 -0.444,1.01728 -0.813,0.31192 -1.768,3.00611 -2.976,8.38834 -1.093,4.87356 -2.561,10.03163 -3.354,11.78638 -0.359,0.79378 -1.451,3.39159 -2.427,5.77292 -0.975,2.38133 -2.481,5.52036 -3.345,6.97561 -0.865,1.45526 -1.958,3.83659 -2.431,5.29185 -0.628,1.93448 -1.608,3.42204 -3.643,5.53238 -3.518,3.64855 -4.752,5.09776 -4.752,5.58116 0,0.93188 -8.794,8.93515 -12.499,11.37541 -2.247,1.48015 -4.947,3.42145 -6,4.314 -1.766,1.49763 -1.961,1.55843 -2.524,0.78813 -1.631,-2.23273 -0.162,-4.10985 6.348,-8.10748 1.814,-1.11435 6.781,-5.47021 12.889,-11.3053 6.19,-5.91278 8.337,-9.41071 12.399,-20.20522 1.922,-5.1057 1.803,-4.80214 4.685,-12.02692 1.32,-3.3074 3.097,-8.28654 3.95,-11.06476 2.932,-9.54551 5.082,-12.51818 9.957,-13.76668 1.349,-0.34553 3.419,-1.08275 4.6,-1.63829 3.222,-1.51547 9.028,-6.57467 12.537,-10.92436 1.714,-2.12488 3.908,-4.51629 4.876,-5.31425 l 1.759,-1.45084 -2.643,-3.53774 c -1.453,-1.94576 -3.635,-5.52841 -4.848,-7.96144 -1.213,-2.43303 -2.821,-5.13909 -3.574,-6.01346 -0.754,-0.87437 -3.155,-3.9711 -5.337,-6.88161 -2.183,-2.91052 -4.29,-5.69206 -4.684,-6.18122 -0.394,-0.48915 -1.085,-1.49514 -1.535,-2.23553 -0.449,-0.74039 -2.056,-2.67517 -3.569,-4.29952 -1.513,-1.62434 -2.764,-3.10793 -2.779,-3.29685 -0.01,-0.18893 -0.09,-1.53416 -0.16,-2.98942 -0.159,-3.16079 -2.03,-8.41609 -3.538,-9.93288 -2.881,-2.8986 0.499,-2.89524 3.626,0.004 2.397,2.2222 4.426,3.50816 4.426,2.80537 0,-0.71584 -1.739,-5.48301 -3.017,-8.27055 -1.319,-2.87531 -2.314,-6.53128 -1.893,-6.95246 0.538,-0.53911 0.993,-0.22266 1.906,1.32545 1.123,1.90487 6.464,7.69181 8.318,9.0131 l 1.321,0.94165 -0.621,-2.0436 c -0.342,-1.12398 -0.834,-2.58481 -1.094,-3.24629 -0.26,-0.66148 -0.851,-2.39336 -1.313,-3.84861 -0.463,-1.45526 -1.432,-3.72835 -2.154,-5.05131 -1.639,-3.0057 -2.285,-6.01346 -1.29,-6.01346 0.789,0 3.304,2.66817 5.458,5.79172 0.814,1.18033 3.274,3.66144 5.468,5.51359 5.514,4.6563 5.618,4.77149 6.22,6.82997 0.295,1.00618 0.901,2.4054 1.348,3.10938 1.278,2.01364 6.309,8.50763 7.502,9.68293 1.473,1.45136 6.478,7.76888 8.595,10.84851 1.768,2.57203 5.186,6.59878 9.254,10.90183 1.251,1.32296 2.594,2.89247 2.984,3.4878 0.929,1.41677 1.354,1.3654 1.992,-0.24053 0.811,-2.04346 3.533,-6.66249 4.733,-8.03076 0.593,-0.67648 1.479,-1.22997 1.969,-1.22997 0.49,0 1.564,-0.33589 2.386,-0.74641 1.355,-0.67658 1.604,-0.67495 2.66,0.0174 2.074,1.3596 4.174,7.10482 4.972,13.59782 0.193,1.57364 0.455,2.04457 1.136,2.04457 0.486,1e-5 1.007,-0.19814 1.156,-0.44033 0.15,-0.24218 1.839,-0.58213 3.754,-0.75544 3.902,-0.35307 6.921,0.42361 8.921,2.29446 1.667,1.55979 1.915,2.19059 3.007,7.65152 0.924,4.62099 0.97,8.08858 0.139,10.25819 -0.217,0.56475 0.158,0.71576 1.777,0.71576 3.869,0 7.624,3.28806 9.352,8.1899 0.68,1.92836 2.301,12.03925 2.059,12.84047 -0.08,0.25475 0.542,1.04077 1.375,1.7467 0.834,0.70594 2.022,2.20206 2.642,3.32473 0.975,1.76782 1.123,2.6855 1.105,6.85197 -0.02,4.61558 -0.09,4.92261 -1.68,7.56747 -1.849,3.07127 -3.342,3.70956 -3.342,1.42866 0,-0.74086 0.26,-1.60679 0.577,-1.92431 0.428,-0.42833 0.433,-0.57729 0.02,-0.57729 -0.663,0 -5.492,3.86755 -5.73,4.58968 -0.09,0.27529 0.141,0.92052 0.516,1.43384 0.666,0.91155 0.725,0.91282 2.524,0.0543 2.422,-1.15578 6.331,-1.53019 8.5,-0.81402 2.395,0.79122 3.911,2.78365 5.182,6.8144 0.955,3.02957 1.013,3.68233 0.499,5.60688 -1.01,3.77882 -3.373,6.1527 -3.822,3.83883 -0.08,-0.42153 0.297,-1.68904 0.841,-2.81668 1.238,-2.56316 1.235,-3.26374 -0.03,-6.72696 -1.38,-3.78692 -2.207,-4.44345 -5.599,-4.44315 -3.541,3e-4 -4.289,0.35916 -17.78,8.5383 -6.148,3.72665 -12.151,7.26699 -13.34,7.86742 -2.103,1.06096 -2.829,2.0353 -1.517,2.0353 1.01,0 2.238,1.63433 2.238,2.97973 0,1.47288 -1.541,3.53632 -3.563,4.76996 -1.762,1.07503 -1.78,1.07398 4.044,0.22621 3.233,-0.47075 5.689,-1.18406 8.412,-2.44385 2.115,-0.97848 5.36,-2.38421 7.211,-3.12385 3.864,-1.54409 9.828,-4.27508 13.768,-6.30381 1.491,-0.76792 2.832,-1.39622 2.979,-1.39622 0.479,0 2.503,2.11622 3.911,4.08915 0.756,1.05837 2.809,3.33146 4.562,5.05131 1.753,1.71985 4.208,4.57751 5.455,6.35035 2.68,3.80795 2.886,3.9665 4.136,3.18543 0.527,-0.32969 1.023,-0.49939 1.101,-0.37711 0.08,0.12228 1.101,2.09921 2.273,4.39318 l 2.132,4.17085 -1.17,1.72015 c -1.223,1.79745 -3.481,3.16776 -5.22,3.16776 -0.978,0 -0.987,0.0501 -0.233,1.20269 0.433,0.66148 1.051,1.2027 1.372,1.2027 0.322,0 0.874,-0.54121 1.228,-1.20269 1.02,-1.90639 2.071,-1.55749 1.812,0.60134 -0.169,1.40515 0.06,2.17634 1.029,3.48781 0.685,0.92607 1.548,1.92069 1.917,2.21026 1.405,1.10138 -0.628,4.79445 -3.401,6.17926 -2.23,1.11302 -3.118,0.94637 -3.688,-0.69229 -0.3,-0.86098 -0.842,-1.44324 -1.343,-1.44324 -0.462,0 -1.447,-0.58171 -2.188,-1.29269 -1.209,-1.15929 -1.348,-1.19653 -1.347,-0.36081 0,1.14387 1.688,4.04232 2.92,5.02104 0.884,0.70284 0.878,0.77243 -0.259,2.67497 -1.463,2.45054 -5.317,4.7367 -6.69,3.96821 z m 4.216,-3.73173 c 0.897,-0.89765 0.895,-0.95263 -0.121,-3.1153 -0.569,-1.21085 -1.087,-2.20063 -1.152,-2.19952 -0.06,0.001 -1.182,0.54232 -2.482,1.20269 -1.301,0.66037 -2.653,1.20068 -3.005,1.20068 -0.965,0 -0.802,0.34702 1.155,2.46404 1.548,1.67391 1.994,1.90115 3.243,1.65112 0.797,-0.15946 1.86,-0.70113 2.362,-1.20371 z m -4.972,-6.0508 c 1.413,-0.73112 1.961,-2.16455 0.817,-2.13913 -0.783,0.0174 -3.586,2.87309 -2.82,2.87309 0.322,0 1.223,-0.33028 2.003,-0.73396 z m 13.969,-1.13564 1.12,-0.90746 -0.947,-1.79129 c -0.52,-0.98521 -1.211,-1.89682 -1.535,-2.02579 -0.52,-0.2071 -3.978,1.57186 -3.978,2.04642 0,0.5273 3.072,3.58558 3.602,3.58558 0.34,0 1.122,-0.40836 1.738,-0.90746 z m -14.474,-3.3773 c 0,-0.93683 -0.749,-0.9222 -1.767,0.0345 -1.541,1.44907 -1.398,1.91145 0.325,1.05112 0.793,-0.39598 1.442,-0.88452 1.442,-1.08564 z m 9.4,-3.37056 c -0.552,-0.89461 -1.151,-0.5736 -0.878,0.47096 0.17,0.64838 0.424,0.83021 0.731,0.52299 0.259,-0.25902 0.325,-0.7063 0.147,-0.99395 z m -6.013,-3.1337 c -0.584,-0.94544 -1.152,-1.71898 -1.263,-1.71898 -0.11,0 -0.201,0.85006 -0.201,1.88903 0,1.40493 0.216,1.93842 0.842,2.08177 1.483,0.33997 1.712,-0.48701 0.622,-2.25182 z m 2.541,-1.36403 c -1.602,-2.38778 -3.31,-4.55194 -6.164,-7.81165 -0.695,-0.79377 -2.062,-2.40014 -3.037,-3.5697 -0.976,-1.16957 -2.748,-3.2225 -3.937,-4.56208 -1.19,-1.33958 -2.813,-3.16778 -3.606,-4.06267 -2.424,-2.73545 -4.167,-4.4027 -4.601,-4.4027 -0.595,0 1.103,2.70834 3.587,5.72247 1.856,2.25159 2.116,2.84196 1.969,4.45597 -0.09,1.02328 0.127,2.43406 0.49,3.13507 l 0.661,1.27457 0.33,-1.3158 c 0.195,-0.77554 0.108,-1.53838 -0.212,-1.85787 -0.771,-0.77244 -0.669,-1.79287 0.18,-1.79287 0.396,0 0.721,0.22562 0.721,0.50138 0,0.27576 0.211,0.76285 0.468,1.08242 3.789,4.70045 5.563,6.78437 7.66,8.99989 1.378,1.45526 2.965,3.45774 3.526,4.44996 0.593,1.04712 1.388,1.80404 1.895,1.80404 0.48,0 0.873,0.22926 0.873,0.50947 0,0.28021 0.199,0.38582 0.444,0.23469 0.244,-0.15113 -0.317,-1.4087 -1.247,-2.79459 z m -6.408,-2.78873 c 0,-1.00367 -0.707,-1.25354 -1.216,-0.42965 -0.436,0.70608 0.145,2.02591 0.732,1.66283 0.266,-0.16468 0.484,-0.71961 0.484,-1.23318 z m 13.003,0.25658 c 1.51,-0.78156 1.811,-2.01676 0.862,-3.53752 -0.354,-0.56811 -0.903,-0.80005 -1.514,-0.64017 -0.585,0.15323 -1.197,-0.0768 -1.573,-0.59146 -0.464,-0.63451 -0.979,-0.7622 -2.091,-0.51778 -0.812,0.17843 -1.476,0.42409 -1.476,0.5459 0,0.35883 1.996,4.2187 2.52,4.87365 0.637,0.79565 1.55,0.75866 3.272,-0.13262 z m -15.442,-3.39802 c -0.844,-1.0169 -1.502,-0.81777 -0.834,0.25225 0.319,0.51207 0.764,0.81752 0.989,0.67879 0.224,-0.13874 0.154,-0.55771 -0.155,-0.93104 z m -2.873,-3.3538 c -0.948,-1.14268 -1.488,-0.78825 -1.329,0.87098 0.09,0.93597 0.392,1.51522 0.752,1.44323 0.33,-0.0662 0.633,0.15033 0.673,0.48107 0.04,0.33074 0.163,-0.007 0.275,-0.7507 0.112,-0.74363 -0.06,-1.66369 -0.371,-2.04458 z m -15.377,-1.87415 c 0.32,-0.3853 0.434,-0.93946 0.253,-1.23148 -0.317,-0.51382 -1.626,0.72354 -1.662,1.57122 -0.03,0.6017 0.792,0.40463 1.409,-0.33974 z m 24.996,-1.31447 c 1.399,-1.50262 1.216,-2.22276 -0.221,-0.87144 -1.091,1.02546 -1.549,1.92431 -0.98,1.92431 0.122,0 0.662,-0.47379 1.201,-1.05287 z m -15.046,-2.0832 c 0.653,-0.65352 0.44,-1.04468 -2.021,-3.70427 -1.513,-1.63547 -3.017,-3.60713 -3.342,-4.38145 -0.731,-1.74092 -1.41,-0.9162 -0.955,1.15976 0.199,0.90442 0.744,1.62151 1.433,1.88372 0.698,0.26545 1.236,0.98102 1.441,1.9184 0.181,0.82226 0.742,1.75325 1.247,2.06887 0.505,0.31563 0.918,0.84651 0.918,1.17976 0,0.80275 0.391,0.76464 1.279,-0.12479 z m 14.584,-1.29392 c 0,-0.25496 -1.153,-1.58148 -2.564,-2.94783 -1.41,-1.36634 -3.621,-3.85711 -4.912,-5.53505 -2.439,-3.16741 -3.181,-3.31572 -1.96,-0.39168 0.39,0.93411 0.597,2.12716 0.46,2.65123 -0.189,0.72453 0.02,0.99114 0.879,1.11259 0.877,0.12433 1.182,0.53294 1.374,1.8435 0.184,1.25501 0.333,1.46939 0.586,0.84188 0.414,-1.02985 1.33,-1.11265 1.33,-0.12027 0,0.39689 0.325,0.72162 0.721,0.72162 0.397,0 0.721,0.20885 0.721,0.46411 0,0.96355 2.15,2.73021 2.765,2.27174 0.33,-0.24655 0.6,-0.65688 0.6,-0.91184 z m -49.644,-1.6336 c -0.159,-0.15986 -0.574,-0.17695 -0.921,-0.038 -0.384,0.15357 -0.27,0.26756 0.29,0.29065 0.507,0.0209 0.791,-0.0928 0.631,-0.25267 z m 2.921,-3.20064 c 0.345,-0.2853 0.859,-0.95261 1.143,-1.4829 0.437,-0.81844 0.27,-1.16411 -1.104,-2.28701 l -1.62,-1.32284 -2.4,1.28529 c -2.554,1.36774 -3.693,2.45655 -3.276,3.13153 0.969,1.56836 5.651,2.00447 7.257,0.67593 z m 37.109,-1.72693 c 0,-0.22411 -0.433,-0.90669 -0.961,-1.51684 -0.529,-0.61016 -0.968,-1.77982 -0.976,-2.59926 -0.01,-1.24491 -0.1,-1.35146 -0.505,-0.64801 -0.269,0.46304 -0.912,0.84188 -1.428,0.84188 -1.383,0 -1.118,0.51967 1.29,2.52566 2.273,1.89434 2.58,2.0603 2.58,1.39657 z m -43.173,-6.54753 c 1.656,-0.27441 1.765,-0.39781 1.637,-1.84115 -0.323,-3.64785 -1.844,-4.48444 -4.408,-2.42531 -2.766,2.22106 -4.051,3.45515 -4.051,3.89055 0,0.70772 2.59,1.39861 3.846,1.0262 0.661,-0.19589 2,-0.48852 2.976,-0.65029 z m 8.7,-1.29497 c 0.473,-0.48978 0.771,-0.89051 0.662,-0.89051 -0.329,0 -4.646,2.47384 -4.646,2.66203 0,0.44993 3.223,-0.98307 3.984,-1.77152 z m -0.346,-2.86225 c 9.526,-4.93324 11.54,-6.38143 18.987,-13.65322 4.953,-4.83712 9.744,-8.42886 11.242,-8.42886 0.601,0 0.744,-0.64625 0.744,-3.34491 0,-3.81203 -0.533,-5.37983 -2.587,-7.59959 -1.713,-1.851 -3.308,-2.00915 -6.066,-0.60135 -1.036,0.52918 -2.163,0.96582 -2.504,0.9703 -0.341,0.004 -1.629,0.95557 -2.863,2.11353 -1.233,1.15796 -3.18,2.75483 -4.326,3.54861 -1.146,0.79377 -3.383,2.81935 -4.97,4.50127 -1.588,1.68193 -4.833,4.75241 -7.211,6.82331 -7.075,6.15961 -12.312,11.07468 -12.827,12.03751 -0.468,0.87439 -0.438,0.87629 0.944,0.0596 1.799,-1.0633 3.585,-0.66925 5.457,1.20346 0.922,0.92271 1.38,1.87323 1.38,2.86183 0,0.81413 0.178,1.48023 0.396,1.48023 0.218,0 2.11,-0.88728 4.204,-1.97174 z m 5.235,-10.08718 c -0.174,-0.2822 -0.205,-0.62458 -0.07,-0.76085 0.136,-0.13628 -0.05,-0.96031 -0.414,-1.8312 -0.666,-1.59693 -0.53,-2.18671 0.507,-2.18671 0.561,0 1.678,3.00002 1.678,4.50577 0,0.8767 -1.209,1.07069 -1.702,0.27299 z m -19.089,1.13579 c 1.516,-0.70475 2.524,-1.48343 2.524,-1.94899 0,-0.42643 0.449,-1.70373 0.998,-2.83843 2.001,-4.13605 -0.179,-5.33446 -3.736,-2.0536 -1.708,1.5757 -2.259,1.84877 -2.808,1.39271 -0.89,-0.73892 -0.36,-1.71937 2.157,-3.99555 1.562,-1.41225 2.333,-1.76254 3.878,-1.76254 1.66,0 2.062,0.21778 2.881,1.5635 1.208,1.9813 1.2,3.08163 -0.03,5.10556 -0.543,0.88976 -0.898,1.70597 -0.79,1.81378 0.526,0.52695 8.499,-6.32961 16.716,-14.37603 2.094,-2.05059 4.024,-3.72834 4.29,-3.72834 0.265,0 0.875,-0.37885 1.356,-0.84188 5.641,-5.43551 6.274,-5.89319 8.151,-5.89319 2.138,0 2.725,-0.36623 1.996,-1.24515 -0.377,-0.45459 -0.221,-0.76122 0.605,-1.19185 0.612,-0.31888 1.173,-0.62795 1.245,-0.68682 0.31,-0.25163 -1.4,-9.39846 -1.949,-10.42314 -2.019,-3.76796 -4.486,-5.69611 -7.289,-5.69612 -2.303,0 -3.409,0.74328 -7.719,5.18449 -4.718,4.86241 -4.279,4.30767 -12.377,15.62921 -2.477,3.46212 -3.242,4.45952 -5.049,6.57697 -0.859,1.0071 -1.562,2.35718 -1.562,3.00018 0,0.76178 -0.765,1.89876 -2.196,3.26345 -5.16,4.92137 -8.754,12.44361 -6.854,14.34518 0.689,0.68961 2.222,0.36078 5.564,-1.1934 z m 13.007,-15.17528 c -0.129,-1.78449 -0.346,-2.13212 -1.71,-2.73274 -0.938,-0.41328 -1.562,-1.03783 -1.562,-1.5635 0,-1.02647 0.748,-1.10655 2.558,-0.27399 1.506,0.69274 2.552,3.41564 2.063,5.36853 -0.478,1.90366 -1.183,1.48583 -1.349,-0.7983 z m 1.948,-3.48781 c -0.676,-1.05837 -1.602,-2.6467 -2.057,-3.52962 -0.792,-1.53685 -0.79,-1.59821 0.05,-1.4386 1.038,0.1977 3.663,4.85717 3.413,6.05716 -0.13,0.62381 -0.486,0.34803 -1.404,-1.08894 z m 20.7,16.31035 c -0.396,-0.47824 -0.789,-0.52339 -1.454,-0.16723 -1.376,0.73695 -1.093,1.27631 0.543,1.03595 1.163,-0.17076 1.346,-0.34496 0.911,-0.86872 z m -42.514,-11.33604 c 2.142,-2.54758 4.38,-8.2422 3.817,-9.71166 -0.416,-1.08469 -2.216,-0.99989 -3.708,0.17471 -1.631,1.2836 -4.99,6.35631 -5.377,8.12025 -0.245,1.11723 -0.08,1.55521 0.789,2.16846 1.667,1.16846 3.061,0.93449 4.479,-0.75176 z m 6.895,-3.65135 c 1.274,-1.25682 3.705,-4.01048 5.403,-6.11927 3.071,-3.81248 3.453,-4.33633 6.845,-9.39546 0.976,-1.45525 1.958,-2.87229 2.184,-3.14897 0.225,-0.27667 0.496,-0.76077 0.602,-1.07577 0.106,-0.315 2.045,-2.46996 4.309,-4.7888 2.263,-2.31883 4.75,-5.082 5.525,-6.14037 0.776,-1.05837 1.626,-2.07781 1.89,-2.26542 0.264,-0.18761 0.47,-2.13598 0.458,-4.32969 -0.03,-5.46379 -1.566,-10.49398 -3.657,-11.98414 -1.663,-1.18468 -5.453,-1.71714 -8.351,-1.17312 l -1.745,0.32777 0.312,2.27222 c 0.271,1.97563 0.09,2.73926 -1.401,5.85012 -0.943,1.96783 -1.714,3.82134 -1.714,4.11889 0,1.38381 -5.645,10.25373 -7.513,11.80545 -0.434,0.3606 -1.334,1.51823 -1.999,2.57252 -0.665,1.0543 -2.23,3.00583 -3.478,4.33676 -1.247,1.33092 -2.675,3.1517 -3.172,4.04618 -1.474,2.65427 -1.793,3.14133 -3.364,5.13224 -1.593,2.0191 -4.029,6.54299 -4.029,7.48208 0,0.30907 0.47,-0.0361 1.045,-0.76714 3.253,-4.13834 5.656,-6.00868 7.728,-6.01364 1.797,-0.004 3.246,1.55434 3.24,3.48463 0,1.65374 -1.018,5.4134 -1.904,7.06991 -0.914,1.70958 0.323,1.13383 2.786,-1.29698 z m 1.864,-11.34471 c -0.47,-0.71758 -0.581,-1.36765 -0.31,-1.80404 0.365,-0.58767 0.576,-0.58817 1.52,-0.004 1.045,0.64637 1.062,0.63493 0.376,-0.24053 -0.397,-0.50555 -0.992,-1.0923 -1.322,-1.30389 -0.935,-0.59848 -0.707,-1.78013 0.343,-1.78013 1.132,0 3.382,3.115 3.382,4.6819 0,1.12716 -1.429,1.60769 -1.457,0.48967 0,-0.33373 -0.232,-0.22668 -0.504,0.24054 -0.657,1.12865 -1.15,1.06059 -2.028,-0.27994 z m -12.213,-0.21338 c 2.028,-2.68507 2.124,-4.02446 0.134,-1.87642 -2.368,2.55786 -3.641,4.53243 -3.641,5.64919 v 1.14405 l 0.795,-1.18946 c 0.437,-0.65421 1.658,-2.33152 2.712,-3.72736 z m 8.195,-11.40067 c 1.654,-2.08408 0.967,-1.74213 -2.486,1.23618 -1.103,0.95145 -2.005,2.1285 -2.005,2.61566 0,0.74662 0.233,0.66381 1.486,-0.52723 0.818,-0.77713 2.17,-2.27321 3.005,-3.32461 z m -25.448,-17.73953 c 0.818,-0.62134 2.296,-1.39483 3.283,-1.71886 0.988,-0.32404 1.918,-0.78538 2.066,-1.0252 0.535,-0.86599 -2.515,-5.25808 -8.187,-11.78937 -5.434,-6.25849 -5.575,-6.45358 -7.506,-10.36501 -1.015,-2.05797 -2.514,-4.45813 -3.331,-5.33369 -2.781,-2.98141 -3.625,-3.99625 -4.792,-5.76532 -0.642,-0.9724 -1.606,-1.86462 -2.143,-1.98271 -0.537,-0.11809 -1.356,-0.37395 -1.818,-0.56858 -1.195,-0.50266 -1.079,0.63653 0.204,2.00318 0.575,0.61238 0.816,1.11342 0.536,1.11342 -0.279,0 -1.331,-0.91159 -2.337,-2.02575 -1.006,-1.11416 -1.636,-1.60125 -1.401,-1.08242 0.235,0.51883 0.478,1.91751 0.54,3.10817 0.147,2.81429 0.127,2.74424 0.581,2.02829 0.223,-0.35231 0.749,-0.48019 1.224,-0.29767 0.618,0.23721 0.795,0.75854 0.683,2.01543 -0.09,1.04328 0.08,1.77462 0.45,1.90125 0.382,0.1308 0.601,-0.26173 0.601,-1.07707 0,-0.82317 0.216,-1.20386 0.601,-1.06237 0.331,0.12127 0.571,0.40991 0.534,0.64143 -0.04,0.23152 -0.21,1.17864 -0.384,2.10471 -0.281,1.50175 -0.242,1.59276 0.361,0.84189 0.988,-1.22887 1.292,-1.04293 1.292,0.78973 0,1.33918 0.215,1.68572 1.202,1.93347 0.776,0.1949 1.202,0.63954 1.202,1.25485 0,0.52638 0.322,0.95299 0.721,0.95299 0.396,0 0.721,0.32472 0.721,0.72161 0,0.39689 0.216,0.72162 0.48,0.72162 0.265,0 0.481,0.53441 0.481,1.18759 0,0.85799 0.2,1.11074 0.721,0.91069 0.501,-0.19215 0.721,0.0334 0.721,0.73671 0,0.55749 0.217,1.01362 0.481,1.01362 0.264,0 0.481,0.33751 0.481,0.75001 0,0.4125 0.216,0.61621 0.48,0.45269 0.265,-0.16353 0.481,0.0402 0.481,0.45268 0,0.4125 0.216,0.75001 0.481,0.75001 0.264,0 0.481,0.32472 0.481,0.72161 0,0.39689 0.216,0.72162 0.48,0.72162 0.265,0 0.481,0.98696 0.481,2.19324 0,1.35662 0.186,2.07849 0.486,1.89242 0.271,-0.16716 0.618,0.35459 0.782,1.1743 0.162,0.81131 0.46,1.47511 0.663,1.47511 0.203,0 0.506,0.55007 0.675,1.22237 0.169,0.6723 0.516,1.0925 0.773,0.93376 0.257,-0.15873 0.467,0.0249 0.467,0.40795 0,0.38311 0.378,0.66649 0.841,0.62974 0.582,-0.0462 0.829,0.26739 0.803,1.01561 -0.03,0.81475 0.231,1.08242 1.049,1.08242 1.481,0 2.032,1.75857 0.836,2.66595 -0.487,0.36905 -0.689,0.67787 -0.45,0.68629 0.239,0.008 1.105,-0.49307 1.923,-1.11441 z m -0.823,-5.29013 c -0.691,-0.86651 -1.751,-2.13631 -2.357,-2.82178 -2.19,-2.47847 -5.817,-8.10395 -7.901,-12.25585 -1.171,-2.33208 -3.256,-5.50565 -4.635,-7.05238 -3.011,-3.37884 -3.507,-4.16338 -2.632,-4.16338 0.354,0 1.494,1.0283 2.534,2.28512 1.04,1.25681 2.059,2.35727 2.265,2.44547 0.206,0.0882 0.375,0.44388 0.375,0.79042 0,0.34653 0.288,0.74086 0.641,0.87629 0.352,0.13543 1.451,1.88679 2.441,3.89193 0.99,2.00513 2.86,5.00239 4.156,6.66058 1.296,1.65819 2.361,3.18653 2.366,3.39633 0.02,0.61442 3.93,5.63201 4.394,5.63201 0.541,0 0.554,1.30574 0.01,1.63858 -0.224,0.13868 -0.972,-0.45683 -1.662,-1.32334 z m 40.297,-1.15339 c -0.418,-2.22936 -1.029,-1.31936 -1.143,1.70272 -0.08,2.2107 -0.07,2.23574 0.692,1.1492 0.557,-0.79582 0.685,-1.6044 0.451,-2.85192 z m -28.507,1.07722 1.771,-1.20417 -1.059,-1.13486 c -1.934,-2.07395 -4.888,-5.71014 -6.069,-7.4691 -0.641,-0.95493 -1.292,-1.84448 -1.447,-1.97678 -0.154,-0.13229 -0.899,-1.19469 -1.655,-2.36087 -0.756,-1.16619 -1.836,-2.57334 -2.399,-3.12701 -2.263,-2.2223 -7.803,-10.70516 -10.57,-16.18219 -1.276,-2.52552 -3.246,-5.58682 -4.377,-6.8029 -1.754,-1.88383 -2.109,-2.6185 -2.402,-4.96418 -0.413,-3.30881 0.03,-3.97682 1.976,-2.97035 1.188,0.61497 1.517,0.6219 2.3,0.0486 0.898,-0.65677 0.897,-0.68729 0,-1.70965 -1.802,-2.03328 -7.971,-6.30457 -8.435,-5.84032 -0.284,0.2843 0.08,1.78584 0.965,4.02067 1.552,3.90367 1.641,4.27633 1.557,6.57364 -0.08,2.26154 -1.107,2.00621 -4.343,-1.08243 -4.148,-3.96002 -4.576,-3.66202 -2.733,1.90289 1.326,4.00326 2.1,4.66804 4.077,3.49949 0.774,-0.45768 1.73,-0.83215 2.123,-0.83215 0.394,0 0.839,-0.32107 0.99,-0.7135 0.155,-0.406 0.592,-0.59115 1.013,-0.42961 0.865,0.33253 1.009,2.58634 0.164,2.58634 -0.316,0 0.1,0.70358 0.925,1.5635 2.234,2.3274 4.628,5.8425 7.381,10.83601 2.193,3.97897 4.312,7.03375 6.434,9.2754 0.768,0.81125 2.347,4.30325 1.947,4.30325 -0.53,0 -4.094,-3.51205 -4.094,-4.03346 0,-0.30468 -0.546,-1.35819 -1.214,-2.34113 -0.667,-0.98295 -1.898,-3.03568 -2.734,-4.56164 -2.328,-4.2479 -6.316,-9.98349 -6.989,-10.05075 -0.33,-0.0331 -0.777,-0.0872 -0.992,-0.12027 -0.588,-0.0902 -2.07,-3.42605 -1.751,-3.94179 0.349,-0.56636 0.103,-0.56272 -1.432,0.0211 -0.678,0.25804 -1.233,0.68422 -1.233,0.94705 0,0.26284 0.323,0.35398 0.717,0.20254 0.433,-0.16599 0.849,0.0789 1.049,0.61644 0.182,0.49049 0.833,1.33166 1.446,1.86927 0.613,0.53761 1.115,1.45767 1.115,2.04458 0,0.62782 0.297,1.0671 0.721,1.0671 0.396,0 0.721,0.32473 0.721,0.72162 0,0.39689 0.209,0.72161 0.464,0.72161 1.492,0 5.271,5.78326 5.344,8.17831 0.02,0.66148 0.146,0.93209 0.279,0.60135 0.419,-1.04023 1.124,-0.65386 1.124,0.61644 0,0.66979 0.324,1.3424 0.721,1.4947 0.419,0.161 0.721,0.88106 0.721,1.72014 0,1.09798 0.176,1.37565 0.736,1.16071 0.48,-0.18438 0.924,0.13197 1.279,0.91068 0.298,0.65627 0.703,1.19321 0.899,1.19321 0.196,0 0.593,0.67726 0.881,1.50503 0.44,1.26259 0.64,1.40885 1.243,0.90797 0.589,-0.48929 0.779,-0.43532 1.05,0.29901 0.342,0.92983 2.38,3.06092 2.926,3.06092 0.172,0 0.05,-0.25979 -0.265,-0.5773 -0.939,-0.94 -0.671,-1.2681 0.968,-1.18489 1.187,0.0602 1.716,0.40994 2.283,1.50831 0.407,0.78644 1.771,2.82748 3.033,4.53563 1.497,2.02724 2.13,3.26938 1.823,3.57698 -0.637,0.63759 -1.474,-0.11576 -3.664,-3.29776 -0.987,-1.43394 -1.998,-2.48113 -2.247,-2.32708 -0.273,0.16899 -0.246,0.48754 0.07,0.80308 0.287,0.28765 0.522,1.12915 0.522,1.87001 0,0.87663 0.252,1.34702 0.721,1.34702 0.397,0 0.721,0.33349 0.721,0.74109 0,0.94108 1.935,3.5886 2.623,3.5886 0.286,0 1.316,-0.54188 2.29,-1.20417 z m -9.94,-13.67597 c -0.328,-0.53171 0.43,-1.10583 0.874,-0.6616 0.457,0.4574 0.372,1.10943 -0.145,1.10943 -0.249,0 -0.577,-0.20152 -0.729,-0.44783 z m 15.793,8.81654 c 2.294,-2.13277 2.337,-2.22207 1.683,-3.55394 -0.369,-0.7514 -1.969,-2.75436 -3.555,-4.45101 -4.655,-4.97848 -7.533,-8.44418 -10.096,-12.15973 -1.321,-1.91649 -4.35,-5.81063 -6.73,-8.65363 -2.379,-2.843 -5.162,-6.27828 -6.184,-7.63394 -1.022,-1.35566 -2.209,-2.46523 -2.638,-2.4657 -0.428,-4.8e-4 -0.852,-0.37933 -0.941,-0.84189 -0.09,-0.46256 0.114,-0.84102 0.45,-0.84102 0.488,0 0.491,-0.12161 0.02,-0.59732 -0.422,-0.42229 -0.697,-0.44343 -0.938,-0.0721 -0.522,0.80575 -1.691,1.0675 -2.624,0.58753 -1.216,-0.62624 -1.055,0.2352 0.361,1.9185 0.661,0.78613 1.202,1.78228 1.202,2.21367 0,0.43139 0.54,0.99011 1.201,1.24161 0.736,0.27994 1.202,0.83498 1.202,1.43132 0,0.53573 0.216,0.97406 0.481,0.97406 0.264,0 0.481,0.55399 0.481,1.23108 0,0.69822 0.208,1.10239 0.48,0.93377 0.265,-0.16353 0.484,0.0943 0.489,0.57295 0.01,1.172 2.474,3.89648 3.278,3.62511 0.473,-0.15951 0.604,0.23538 0.495,1.49513 -0.08,0.94154 0,1.86783 0.199,2.05841 0.191,0.19059 0.346,-0.0302 0.346,-0.49055 0,-0.53746 0.302,-0.77978 0.842,-0.67701 0.65,0.12369 0.874,0.73268 0.986,2.68119 0.149,2.58031 0.429,2.95741 1.441,1.94386 0.449,-0.44901 0.577,-0.28865 0.577,0.72161 0,0.7144 0.217,1.29891 0.481,1.29891 0.264,0 0.481,0.55399 0.481,1.23109 0,0.67709 0.201,1.10653 0.447,0.95431 0.743,-0.45943 2.918,1.92711 2.918,3.2017 0,1.59666 0.495,1.99313 1.231,0.98577 0.533,-0.72974 0.645,-0.60002 0.943,1.0899 0.437,2.48507 1.539,4.23679 2.446,3.88838 0.387,-0.14859 0.827,0.0497 0.977,0.44058 0.149,0.39091 0.463,0.5927 0.696,0.44843 0.233,-0.14428 0.897,0.17802 1.474,0.71621 0.986,0.91938 1.001,1.03229 0.245,1.86762 -0.869,0.96153 -0.632,1.62207 0.435,1.21222 0.364,-0.13977 1.013,0.0977 1.443,0.52763 0.613,0.61374 0.658,0.92944 0.211,1.46889 -0.547,0.65972 -0.308,1.70615 0.383,1.6778 0.182,-0.007 1.391,-0.9981 2.685,-2.20136 z m -2.161,-3.1832 c -0.635,-0.85227 -1.93,-2.42179 -2.879,-3.48781 -0.949,-1.06603 -3.019,-3.67011 -4.602,-5.78685 -2.719,-3.63788 -4.048,-5.54549 -7.065,-10.14291 -0.709,-1.08053 -1.718,-2.42451 -2.241,-2.98662 -1.028,-1.10395 -1.242,-2.02439 -0.471,-2.02439 0.265,0 0.481,0.32472 0.481,0.72161 0,0.39689 0.247,0.72162 0.548,0.72162 0.677,0 0.889,0.27553 5.915,7.69723 2.24,3.3074 5.11,7.1247 6.376,8.48287 1.267,1.35818 2.775,3.09006 3.35,3.84862 0.576,0.75856 1.495,1.85724 2.043,2.44151 0.548,0.58427 0.997,1.28784 0.997,1.5635 0,1.0231 -1.335,0.45241 -2.452,-1.04838 z m -20.978,-27.92235 c -0.592,-0.85665 -1.836,-2.63596 -2.764,-3.95402 -1.768,-2.50973 -2.008,-3.1359 -1.203,-3.1359 0.267,0 1.151,1.08242 1.964,2.40538 0.814,1.32296 1.63,2.40538 1.815,2.40538 0.423,1e-5 1.985,2.61409 1.985,3.3215 0,0.94995 -0.701,0.54288 -1.797,-1.04234 z m 9.337,27.45741 c -0.154,-0.38377 -0.268,-0.26978 -0.291,0.29065 -0.02,0.50713 0.09,0.79127 0.253,0.63141 0.159,-0.15986 0.176,-0.57478 0.04,-0.92206 z m 20.943,-0.66588 c 0.992,-0.94044 1.812,-1.85862 1.824,-2.0404 0.01,-0.18178 0.208,-1.30406 0.438,-2.49395 l 0.417,-2.16345 -1.039,1.28665 c -1.24,1.53541 -3.419,5.10785 -3.836,6.28751 -0.45,1.27441 0.204,1.01342 2.196,-0.87636 z m -50.376,-25.25532 c -0.152,-0.24631 -0.615,-0.44784 -1.028,-0.44784 -0.611,0 -0.64,0.1339 -0.157,0.71632 0.62,0.74843 1.667,0.51143 1.185,-0.26848 z m -2.383,-0.44784 c 0.164,-0.26459 0.07,-0.48107 -0.212,-0.48107 -0.28,0 -0.509,0.21648 -0.509,0.48107 0,0.2646 0.1,0.48108 0.212,0.48108 0.117,0 0.346,-0.21648 0.509,-0.48108 z m 6.515,-0.91525 c -0.541,-1.01201 -3.263,-3.18346 -5.664,-4.51867 -1.172,-0.65143 -1.782,-0.74122 -2.484,-0.36533 -0.812,0.43458 -0.861,0.68364 -0.385,1.94611 0.301,0.79627 0.878,1.45135 1.282,1.45574 0.405,0.004 2.142,0.53433 3.861,1.17763 3.829,1.43321 4.002,1.44877 3.39,0.30452 z m 1.785,159.30299 c -2.578,-2.03462 -5.155,-5.31731 -6.133,-7.8107 -0.363,-0.92607 -1.041,-2.18468 -1.507,-2.7969 -0.974,-1.28052 -0.71,-2.49494 0.542,-2.49494 0.599,0 1.493,1.26924 2.953,4.19157 1.38,2.76056 3.038,5.15882 4.857,7.02475 2.409,2.47126 3.048,3.71384 1.896,3.69025 -0.183,-0.004 -1.356,-0.81556 -2.608,-1.80403 z m 27.033,-27.71551 c 0,-0.36397 0.515,-1.82696 1.144,-3.2511 3.379,-7.64484 4.92,-21.3359 3.231,-28.69488 -0.287,-1.24869 -0.577,-3.45319 -0.645,-4.8989 -0.103,-2.17704 0.02,-2.65827 0.717,-2.80147 0.698,-0.14347 0.841,0.18102 0.841,1.90696 0,1.14391 0.333,3.81172 0.74,5.92846 1.231,6.40411 0.611,15.80297 -1.479,22.43464 -0.387,1.22618 -0.703,2.5864 -0.703,3.02272 0,0.43632 -0.541,1.86134 -1.202,3.16671 -0.661,1.30537 -1.202,2.70532 -1.202,3.111 0,0.40569 -0.324,0.73761 -0.721,0.73761 -0.397,0 -0.721,-0.29779 -0.721,-0.66175 z m 14.635,-2.22722 c 0.291,-3.14994 0.518,-3.8461 1.257,-3.8461 1.003,0 0.149,6.27607 -0.901,6.6257 -0.496,0.16527 -0.573,-0.4325 -0.356,-2.7796 z m 32.012,-15.3603 c -0.722,-1.34901 -0.611,-3.18777 0.235,-3.88989 0.936,-0.7777 1.245,-0.44497 1.429,1.53849 0.277,2.98671 -0.636,4.27534 -1.664,2.3514 z m -37.513,-18.04657 c 0,-0.64748 -0.541,-2.19511 -1.202,-3.43919 -1.321,-2.48571 -1.471,-3.33862 -0.675,-3.83095 0.874,-0.54088 1.791,0.83149 2.575,3.85796 0.931,3.59004 0.936,4.58942 0.02,4.58942 -0.445,0 -0.721,-0.45152 -0.721,-1.17724 z"
       id="path1" /></g></svg>
