<?xml version="1.0" encoding="UTF-8" standalone="no"?>
<!-- Created with Inkscape (http://www.inkscape.org/) -->

<svg
   width="231.38646"
   height="235.24007"
   viewBox="0 0 61.221 62.240601"
   version="1.1"
   id="svg1"
   xml:space="preserve"
   xmlns="http://www.w3.org/2000/svg"
   xmlns:svg="http://www.w3.org/2000/svg"><defs
     id="defs1" /><g
     id="g1875"
     transform="matrix(0.26458333,0,0,0.26458333,-4658.2948,-78.20553)"><path
       style="fill:#000000"
       d="m 17803.865,513.34953 c -0.158,-0.41324 0,-1.33216 0.336,-2.04204 0.343,-0.70987 0.654,-1.5069 0.691,-1.77116 0.126,-0.90559 0.902,-2.40319 2.013,-3.88397 0.611,-0.81486 1.248,-2.16621 1.415,-3.003 0.174,-0.87142 0.603,-1.52144 1.003,-1.52144 0.808,0 0.504,2.07904 -0.621,4.23657 -0.369,0.70893 -0.673,1.53275 -0.675,1.83073 -10e-4,0.29797 -0.311,0.79768 -0.687,1.11047 -0.377,0.31278 -1.055,1.74466 -1.506,3.18195 -0.832,2.64729 -1.445,3.22701 -1.969,1.86189 z m -5.503,-3.8132 c -0.238,-0.95279 -0.113,-3.12312 0.18,-3.12312 0.198,0 0.36,-0.40328 0.36,-0.89617 0,-0.49289 0.421,-1.43091 0.934,-2.0845 0.514,-0.65359 1.406,-2.57464 1.983,-4.269 0.576,-1.69437 1.345,-3.42253 1.707,-3.84038 0.363,-0.41784 0.533,-0.88681 0.377,-1.04215 -0.155,-0.15534 0.115,-0.49814 0.599,-0.76177 0.485,-0.26363 1.422,-1.68068 2.082,-3.149 0.66,-1.46831 1.366,-2.67553 1.57,-2.68271 0.344,-0.0122 0.305,0.38787 -0.321,3.25012 -0.39,1.78197 -2.36,5.4365 -3.276,6.07901 -0.466,0.32662 -0.736,0.70581 -0.599,0.84265 0.137,0.13683 -0.08,0.52229 -0.483,0.85657 -0.403,0.33428 -0.732,0.97771 -0.732,1.42983 0,0.45213 -0.15,0.97245 -0.334,1.15628 -0.183,0.18382 -0.381,0.65805 -0.439,1.05383 -0.06,0.39578 -0.543,1.84898 -1.076,3.22933 -0.534,1.38036 -1.086,2.88812 -1.226,3.35058 -0.231,0.7612 -1.159,1.18803 -1.306,0.6006 z m -143.442,-2.04204 c -0.324,-0.99099 -0.634,-2.12613 -0.691,-2.52252 -0.06,-0.3964 -0.259,-0.97168 -0.451,-1.2784 -0.192,-0.30673 -0.397,-1.15083 -0.457,-1.8758 -0.07,-0.79474 -0.447,-1.40637 -0.959,-1.5404 -0.512,-0.13418 -0.849,-0.67618 -0.849,-1.36745 0,-0.62984 -0.188,-1.14516 -0.418,-1.14516 -0.231,0 -0.389,-1.67568 -0.352,-3.72373 0.04,-2.04804 -0.206,-4.41948 -0.541,-5.26985 -0.795,-2.01629 -0.791,-3.53839 0,-3.2317 0.688,0.26422 1.759,3.78933 2.912,9.58264 0.884,4.44562 1.937,8.88576 2.676,11.28811 0.62,2.01823 0.654,2.88606 0.113,2.88606 -0.222,0 -0.668,-0.81081 -0.991,-1.8018 z m 56.298,1.08108 c -0.152,-0.3964 -0.162,-1.0187 -0.02,-1.38289 0.14,-0.3642 0.04,-0.87351 -0.215,-1.13181 -0.258,-0.2583 -0.583,-2.50087 -0.723,-4.98348 -0.139,-2.48261 -0.384,-4.83816 -0.546,-5.23455 -0.161,-0.3964 -0.334,-0.93694 -0.385,-1.2012 -0.05,-0.26427 -0.13,-0.58859 -0.178,-0.72073 -0.05,-0.13213 -0.176,-2.07807 -0.286,-4.32432 -0.276,-5.65839 -0.537,-8.16618 -0.883,-8.51299 -0.163,-0.1627 -0.296,-0.69221 -0.296,-1.1767 0,-1.07575 1.892,-1.22872 1.981,-0.16016 0.03,0.3964 0.1,0.88288 0.148,1.08108 0.381,1.55441 0.915,4.75292 0.842,5.04505 -0.05,0.19819 0.18,0.36367 0.51,0.36771 0.461,0.006 0.455,0.0994 -0.03,0.40392 -0.51,0.32374 -0.511,0.65321 0,1.79444 0.338,0.76884 0.82,1.54276 1.071,1.71983 0.25,0.17706 0.508,0.67719 0.571,1.1114 0.107,0.7285 0.02,0.72762 -1.105,-0.0114 -0.818,-0.53634 -1.084,-0.58603 -0.806,-0.15044 0.229,0.35774 0.449,2.48828 0.488,4.73453 0.04,2.24624 0.225,6.19219 0.412,8.76876 0.314,4.34596 0.127,5.71287 -0.544,3.96397 z m 33.58,0.21323 c -2.179,-0.17643 -4.748,-0.70834 -5.761,-1.19287 -1.81,-0.86656 -3.509,-1.06361 -9.97,-1.15672 -2.694,-0.0388 -3.549,-0.24405 -4.417,-1.06001 -0.714,-0.67111 -1.434,-0.91836 -2.137,-0.73422 -1.51,0.39508 -2.799,-0.45143 -3.597,-2.36119 -0.64,-1.53456 -0.614,-1.75097 0.38,-3.09658 0.588,-0.7957 2.341,-2.08253 3.894,-2.85963 2.685,-1.34237 3.054,-1.40065 7.404,-1.16737 3.208,0.17203 5.13,0.52671 6.419,1.1848 2.053,1.04852 7.601,1.29626 10.486,0.46825 2.651,-0.76089 5.794,-4.30728 5.794,-6.5374 0,-0.67508 -0.339,-0.76469 -2.04,-0.53838 -1.122,0.14933 -2.905,0.0812 -3.961,-0.15144 -1.056,-0.23262 -2.984,-0.65023 -4.284,-0.92801 -1.3,-0.27778 -2.722,-0.82889 -3.159,-1.22469 -0.437,-0.3958 -1.162,-0.71963 -1.612,-0.71963 -0.449,0 -0.936,-0.31067 -1.082,-0.69038 -0.145,-0.37971 -0.571,-0.5728 -0.945,-0.42908 -0.39,0.14988 -0.68,-0.0296 -0.68,-0.42092 0,-0.37523 -0.594,-1.24851 -1.321,-1.94062 -1.186,-1.13123 -1.414,-1.18886 -2.252,-0.57037 -1.251,0.92366 -1.708,0.86633 -1.708,-0.21412 0,-0.49618 -0.324,-1.1713 -0.72,-1.50028 -0.397,-0.32898 -0.721,-0.79449 -0.721,-1.03447 0,-0.23998 -0.756,-1.10077 -1.68,-1.91286 -0.924,-0.8121 -1.68,-1.84591 -1.68,-2.29737 0,-0.45145 -0.622,-1.28083 -1.382,-1.84306 -0.809,-0.59848 -1.521,-1.6816 -1.717,-2.61288 -0.603,-2.85351 -0.841,-6.64904 -0.469,-7.49224 0.2,-0.45383 0.392,-0.93324 0.426,-1.06538 0.03,-0.13213 0.303,-0.99699 0.599,-1.92192 0.295,-0.92492 0.672,-2.2947 0.839,-3.04395 0.166,-0.74925 0.838,-1.85908 1.493,-2.46629 0.97,-0.90052 1.109,-1.3173 0.75,-2.26108 -0.74,-1.94945 -1.602,-2.3632 -3.948,-1.89637 -1.162,0.23118 -2.49,0.57817 -2.953,0.77109 -0.505,0.21094 -0.84,0.13874 -0.84,-0.18112 0,-0.29254 -0.261,-0.53189 -0.58,-0.53189 -0.319,0 -1.399,-0.80063 -2.4,-1.77919 -1.001,-0.97856 -1.821,-1.55261 -1.821,-1.27567 0,0.27694 0.432,0.89487 0.961,1.37318 2.016,1.82649 0.755,2.90601 -1.432,1.22475 -0.807,-0.62098 -1.625,-0.8291 -2.539,-0.64614 -0.891,0.17822 -1.628,0.004 -2.17,-0.51219 -1.879,-1.78997 -3.828,-3.14275 -4.115,-2.85582 -0.169,0.1688 -0.307,-0.17699 -0.307,-0.76844 0,-0.9663 -0.07,-1.00064 -0.736,-0.33858 -0.405,0.40523 -1.406,1.98824 -2.224,3.5178 -0.819,1.52956 -1.783,3.32156 -2.142,3.98222 -0.359,0.66066 -0.654,1.65339 -0.656,2.20607 0,0.55268 -0.843,2.71484 -1.87,4.8048 -1.027,2.08997 -2.026,4.5567 -2.22,5.48163 -0.539,2.56959 -1.961,4.23534 -4.11,4.81429 -1.049,0.2827 -2.135,0.3729 -2.414,0.20044 -0.279,-0.17246 -1.465,-0.0451 -2.636,0.28306 -2.426,0.67967 -4.88,3.12798 -5.314,5.30137 -0.153,0.76521 -0.576,1.63884 -0.94,1.94139 -0.365,0.30254 -0.663,0.8298 -0.663,1.17168 0,0.80433 -3.48,4.54602 -4.229,4.54602 -0.314,0 -0.572,0.21622 -0.572,0.48048 0,0.26427 -0.644,0.48049 -1.431,0.48049 -1.126,0 -1.495,-0.25599 -1.732,-1.20121 -0.296,-1.17811 -1.158,-1.69372 -1.158,-0.69236 0,0.27986 -0.216,0.37521 -0.48,0.21188 -0.264,-0.16332 -0.48,-0.0525 -0.48,0.2462 0,0.29873 -0.972,-0.47233 -2.16,-1.71348 -2.825,-2.95009 -2.846,-4.21669 -0.12,-6.95761 1.122,-1.12831 1.981,-2.2509 1.908,-2.49465 -0.07,-0.24374 0.04,-0.33817 0.246,-0.20983 0.756,0.4678 2.023,-1.00744 2.135,-2.4873 0.06,-0.83515 0.309,-1.51846 0.545,-1.51846 0.236,0 0.301,-0.33556 0.144,-0.74568 -0.16,-0.41517 -0.08,-0.61942 0.174,-0.46083 0.513,0.31732 0.793,-0.74558 1.145,-4.34821 0.162,-1.65907 1.234,-4.51067 3.374,-8.9757 1.725,-3.59926 3.285,-7.15369 3.468,-7.89874 0.182,-0.74504 0.568,-1.53325 0.857,-1.75156 0.34,-0.25602 0.355,-0.46965 0.04,-0.60173 -0.266,-0.11263 -0.41,-1.13103 -0.32,-2.26311 0.145,-1.81832 0.01,-2.13826 -1.116,-2.74386 -1.027,-0.54982 -1.24,-0.9562 -1.079,-2.05278 0.133,-0.90888 -0.07,-1.55916 -0.608,-1.9397 -0.445,-0.31485 -0.958,-1.37632 -1.14,-2.35881 -0.183,-0.9825 -0.657,-2.11127 -1.054,-2.50838 -0.396,-0.39711 -0.824,-1.5291 -0.95,-2.51552 -0.127,-0.98642 -0.496,-1.96245 -0.82,-2.16895 -0.457,-0.2902 -0.448,-0.37712 0.04,-0.38281 0.346,-0.004 0.487,-0.23791 0.313,-0.5197 -0.174,-0.28178 -0.317,-1.22886 -0.317,-2.10461 0,-1.37028 -0.137,-1.55625 -0.987,-1.33389 -0.917,0.23983 -0.96,0.12357 -0.6,-1.61911 0.357,-1.73099 0.381,-2.65439 0.18,-7.04266 -0.07,-1.54175 0.135,-3.26597 0.792,-6.66564 0.208,-1.07426 0.141,-1.86197 -0.175,-2.05743 -0.282,-0.17419 -0.39,-0.63578 -0.24,-1.02575 0.149,-0.38998 -0.124,-1.30197 -0.608,-2.02666 -0.484,-0.72468 -0.832,-1.47977 -0.773,-1.67797 0.06,-0.1982 -0.163,-0.3769 -0.493,-0.39712 -1.659,-0.10162 -2.519,-0.49213 -3.811,-1.7311 -0.777,-0.74539 -1.507,-1.30121 -1.622,-1.23514 -0.637,0.36666 -1.251,-0.0162 -1.736,-1.08108 -0.301,-0.66066 -0.813,-1.20121 -1.139,-1.20121 -0.325,0 -0.714,-0.32067 -0.865,-0.71262 -0.155,-0.40549 -0.591,-0.59041 -1.011,-0.42907 -0.513,0.19678 -0.739,-0.01 -0.739,-0.67543 0,-0.61842 -0.298,-0.93529 -0.84,-0.89225 -0.462,0.0367 -0.845,-0.25759 -0.852,-0.65399 0,-0.3964 -0.547,-1.44154 -1.2,-2.32254 -0.654,-0.88099 -1.207,-1.74586 -1.23,-1.92192 -0.02,-0.17606 -0.212,-0.70879 -0.42,-1.18384 -0.705,-1.60728 0.06,-4.71133 1.505,-6.07113 2.489,-2.35021 3.795,-4.10943 4.664,-6.28464 0.474,-1.18573 0.831,-2.26398 0.794,-2.39611 -0.04,-0.13213 0.482,-0.93139 1.156,-1.77613 0.673,-0.84474 1.224,-1.6511 1.224,-1.79191 0,-0.31054 4.061,-4.08666 5.416,-5.03703 0.535,-0.37454 1.641,-0.73478 2.459,-0.80052 3.281,-0.2637 4.677,-0.77818 4.316,-1.59067 -0.189,-0.42653 -0.429,-1.64037 -0.533,-2.69743 -0.105,-1.05706 -0.374,-2.35436 -0.599,-2.88288 -0.765,-1.79664 -1.048,-2.87978 -1.317,-5.04505 -0.148,-1.18919 -0.553,-2.9698 -0.9,-3.95691 -0.747,-2.12022 -0.146,-4.68709 2.21,-9.44022 0.787,-1.58692 1.431,-3.10291 1.431,-3.36886 0,-0.26596 0.279,-0.65646 0.621,-0.86779 0.341,-0.21133 0.872,-1.2491 1.18,-2.30616 0.308,-1.05706 0.826,-2.78679 1.151,-3.84384 0.325,-1.05706 0.604,-2.8949 0.62,-4.08409 0.02,-1.83502 0.185,-2.18442 1.06,-2.30928 0.567,-0.0809 1.144,-0.57984 1.282,-1.10873 0.558,-2.13522 2.396,0.47215 5.88,8.34294 1.107,2.49932 1.864,2.30996 1.783,-0.44592 0,-0.31131 1.04,-1.71016 2.332,-3.10854 1.291,-1.39838 2.611,-3.13748 2.932,-3.86466 0.369,-0.83417 1.088,-1.43277 1.948,-1.62186 1.671,-0.36726 1.747,-0.29626 2.029,1.91141 0.125,0.97485 0.557,2.41129 0.96,3.1921 1.881,3.63895 4.385,11.89477 5.53,18.23176 0.625,3.45764 0.1,8.52589 -1.051,10.08126 -0.491,0.66552 -1.318,2.69897 -1.837,4.51879 -0.52,1.81982 -1.276,3.67468 -1.68,4.12192 -0.404,0.44724 -0.735,1.08708 -0.735,1.42187 0,0.3348 -0.457,1.25017 -1.015,2.03416 l -1.014,1.42545 1.55,3.69377 c 0.853,2.03157 1.605,4.23431 1.673,4.89497 0.07,0.66066 0.386,2.34506 0.708,3.7431 0.322,1.39805 0.454,2.88491 0.294,3.30415 -0.161,0.41923 -0.05,1.0597 0.256,1.42325 0.303,0.36643 0.422,1.29104 0.265,2.07472 -0.245,1.22846 -0.09,1.51161 1.214,2.16097 0.824,0.41099 1.657,0.74727 1.853,0.74727 0.586,0 3.337,2.74562 3.337,3.33097 0,0.29867 0.323,0.66701 0.718,0.81854 0.394,0.15153 0.607,0.45412 0.472,0.67244 -0.135,0.21831 -0.03,0.53098 0.237,0.69483 0.264,0.16384 0.83,1.53013 1.255,3.0362 0.426,1.50607 1.118,3.00858 1.539,3.33891 0.42,0.33033 1.934,0.6006 3.364,0.6006 3.002,0 7.754,2.00747 9.709,4.10177 0.655,0.70115 1.774,1.5786 2.487,1.94989 1.513,0.78802 5.726,0.90167 6.453,0.17407 0.842,-0.84293 13.295,0.27362 16.95,1.51979 2.174,0.74123 3.15,0.88968 3.28,0.49875 0.258,-0.7747 1.066,-0.6987 1.066,0.10029 0,0.36128 0.907,1.25738 2.015,1.99133 2.45,1.62268 2.445,1.6189 5.425,4.31237 1.32,1.1927 2.547,2.16856 2.727,2.16856 0.179,0 0.646,0.31975 1.036,0.71057 0.391,0.39081 2.081,1.80031 3.756,3.13221 6.865,5.45991 11.175,9.76443 12.423,12.40754 0.853,1.80553 0.942,2.65724 0.685,6.53402 -0.236,3.5634 -0.136,4.83397 0.499,6.33226 1.847,4.35735 2.59,13.69476 1.284,16.13308 -0.454,0.84799 -0.51,1.65739 -0.197,2.83356 0.37,1.39044 0.637,1.63242 1.716,1.55603 1.477,-0.10456 1.786,1.23217 0.527,2.27781 -0.678,0.5635 -0.674,0.66605 0.04,1.06809 0.703,0.39391 0.642,0.60338 -0.535,1.83288 -0.731,0.76347 -1.177,1.54052 -0.991,1.72677 0.186,0.18625 1.632,0.0712 3.213,-0.2556 2.872,-0.59369 6.221,-0.34557 6.221,0.46094 0,0.23486 0.298,0.42701 0.662,0.42701 1.527,0 2.477,6.25773 1.298,8.55042 -1.245,2.4207 -1.981,4.94795 -2.126,7.30544 -0.09,1.47613 -0.7,3.82723 -1.378,5.32625 -1.105,2.44232 -1.511,2.83941 -4.516,4.41646 -1.816,0.95307 -3.279,1.90761 -3.251,2.1212 0.03,0.21359 -0.371,0.78806 -0.887,1.27661 -0.918,0.86821 -0.931,0.86422 -0.601,-0.17696 0.248,-0.78404 0.166,-1.00455 -0.313,-0.83531 -0.358,0.12646 -0.594,0.72114 -0.525,1.32151 0.103,0.89473 0,0.98928 -0.557,0.5243 -0.526,-0.43671 -0.765,-0.43423 -1.04,0.0108 -0.242,0.39082 -0.154,0.45214 0.271,0.18933 0.419,-0.25914 0.513,-0.2012 0.281,0.17384 -0.191,0.30941 -0.546,0.4395 -0.789,0.28911 -0.243,-0.1504 -3.415,-0.36574 -7.048,-0.47854 -3.885,-0.1206 -7.064,-0.44738 -7.718,-0.79326 -0.783,-0.41419 -1.209,-0.43497 -1.44,-0.0703 -0.328,0.51557 -2.49,0.016 -2.49,-0.57519 0,-0.15625 0.192,-0.1656 0.426,-0.0208 0.558,0.34483 1.659,-0.99276 1.299,-1.57664 -0.153,-0.24815 0.04,-0.57516 0.439,-0.72669 0.394,-0.15152 0.717,-0.57788 0.717,-0.94745 0,-0.36958 0.864,-1.2443 1.92,-1.94382 1.17,-0.7743 1.921,-1.64515 1.921,-2.22601 0,-0.52478 0.239,-0.95415 0.531,-0.95415 0.296,0 0.398,-0.35013 0.229,-0.78868 -0.253,-0.65945 -0.182,-0.68917 0.429,-0.18141 0.408,0.33898 0.731,0.39376 0.731,0.124 0,-0.6406 1.84,-1.23595 3.453,-1.11713 0.71,0.0524 1.942,-0.24121 2.736,-0.65239 0.795,-0.41118 2.533,-0.98123 3.864,-1.26678 1.33,-0.28556 2.907,-0.95234 3.504,-1.48174 0.982,-0.87027 0.994,-0.93076 0.126,-0.63096 -5.062,1.74794 -12.719,3.12894 -13.9,2.50684 -0.802,-0.42228 -1.304,-0.0936 -3.465,2.26665 -1.39,1.51831 -2.48,2.99906 -2.423,3.29056 0.06,0.2915 -0.211,0.53983 -0.597,0.55184 -0.701,0.0218 -3.088,3.11621 -2.702,3.50279 0.458,0.45848 -8.578,10.05988 -10.266,10.90861 -1.761,0.88508 -4.056,1.07893 -8.509,0.71857 z m 6.939,-3.16426 c 1.904,-0.85397 9.718,-8.51978 9.718,-9.53456 0,-0.40019 0.229,-0.72762 0.508,-0.72762 0.28,0 0.389,-0.19356 0.243,-0.43014 -0.146,-0.23657 0.06,-0.55488 0.456,-0.70735 0.397,-0.15247 0.666,-0.44957 0.598,-0.66023 -0.07,-0.21065 0.367,-0.91178 0.967,-1.55806 0.601,-0.64628 0.983,-1.45949 0.85,-1.80714 -0.137,-0.3565 0.275,-0.86807 0.945,-1.17336 0.989,-0.45107 1.087,-0.66381 0.59,-1.27655 -0.503,-0.61983 -0.459,-0.68364 0.28,-0.40644 0.875,0.32865 2.466,-0.72791 1.919,-1.27491 -0.153,-0.1537 0.281,-0.53459 0.965,-0.84643 1.087,-0.49577 1.238,-0.84502 1.2,-2.78075 -0.03,-1.67602 -0.32,-2.47082 -1.181,-3.27192 -0.626,-0.58197 -1.139,-1.38002 -1.139,-1.77344 0,-0.39342 -0.249,-0.86959 -0.554,-1.05814 -0.343,-0.21242 -0.424,-0.13181 -0.212,0.21188 0.189,0.30509 0.168,0.55466 -0.04,0.5546 -0.214,-7e-5 -0.41,-0.97582 -0.435,-2.16834 -0.05,-2.54874 -0.508,-3.20945 -1.383,-2.01266 -0.625,0.85553 -0.487,2.49641 0.294,3.50461 0.224,0.28857 0.304,0.62722 0.179,0.75254 -0.125,0.12532 -0.03,0.91332 0.209,1.75111 0.293,1.02156 0.265,1.62897 -0.08,1.84422 -0.298,0.18461 -0.381,0.0978 -0.194,-0.20423 0.178,-0.28885 -0.04,-0.72793 -0.48,-0.97572 -0.478,-0.2675 -0.686,-0.76124 -0.511,-1.21534 0.161,-0.42065 0.08,-0.89479 -0.174,-1.05364 -0.257,-0.15886 -0.352,-0.47517 -0.211,-0.70291 0.14,-0.22775 0.02,-0.559 -0.265,-0.73612 -0.287,-0.17713 -0.407,-0.61858 -0.268,-0.98102 0.139,-0.36243 -0.129,-0.93515 -0.594,-1.27272 -0.466,-0.33756 -0.847,-1.04618 -0.848,-1.57471 0,-0.52853 -0.154,-1.55555 -0.342,-2.28228 -0.262,-1.01178 -0.171,-1.32132 0.387,-1.32132 0.401,0 0.729,0.31415 0.729,0.69811 0,0.38396 0.236,1.21515 0.523,1.84707 0.397,0.872 0.805,1.0951 1.691,0.92552 0.918,-0.1756 1.053,-0.36244 0.63,-0.87271 -0.407,-0.49099 -0.347,-0.84066 0.246,-1.4343 0.647,-0.64764 0.676,-0.916 0.168,-1.5335 -0.542,-0.65735 -0.493,-0.68246 0.4,-0.20624 0.559,0.29823 1.135,0.42461 1.278,0.28084 0.144,-0.14377 1.415,-0.37566 2.824,-0.51531 2.52,-0.24974 6.064,-1.68556 6.756,-2.73751 0.194,-0.29483 0.356,-1.11789 0.36,-1.82902 0,-0.71113 0.214,-1.42076 0.466,-1.57695 0.253,-0.15619 0.345,-0.58391 0.204,-0.9505 -0.369,-0.96222 1.209,-3.14655 2.273,-3.14655 1.175,0 1.165,0.0476 -0.566,2.61416 -0.809,1.20002 -1.335,2.40357 -1.167,2.67456 0.448,0.72608 1.309,0.0193 0.99,-0.81291 -0.169,-0.44067 -0.04,-0.62926 0.328,-0.49457 0.33,0.11973 0.976,-0.11011 1.436,-0.51076 0.794,-0.69227 0.794,-0.75997 0,-1.36346 -0.761,-0.57775 -0.722,-0.6364 0.428,-0.6503 1.366,-0.0165 1.967,-1.17136 1.513,-2.90829 -0.206,-0.78829 -0.385,-0.86199 -0.952,-0.39155 -0.462,0.38417 -0.387,0.0231 0.224,-1.07095 0.659,-1.18232 0.822,-2.05937 0.573,-3.09194 -0.191,-0.79279 -0.374,-1.0503 -0.405,-0.57224 -0.03,0.47806 -0.254,0.74698 -0.496,0.59761 -0.241,-0.14938 -0.548,2e-5 -0.682,0.332 -0.159,0.39476 -0.256,0.33845 -0.281,-0.16278 -0.02,-0.4215 0.389,-1.1531 0.911,-1.62577 0.844,-0.76447 0.926,-2.01627 0.1,-1.50605 -0.18,0.11086 -0.389,-0.68896 -0.466,-1.77737 -0.08,-1.08842 -0.434,-2.31073 -0.795,-2.71625 -0.549,-0.6167 -0.551,-0.83397 -0.01,-1.32815 0.443,-0.40562 0.526,-1.00807 0.265,-1.92192 -0.209,-0.7321 -0.21,-1.76352 0,-2.29205 0.578,-1.47416 0.53,-3.71336 -0.07,-3.34144 -0.331,0.20473 -0.318,-1.2e-4 0.04,-0.57225 0.444,-0.7142 0.332,-1.3918 -0.565,-3.413 -0.615,-1.38704 -1.388,-2.52218 -1.718,-2.52253 -0.33,-3.5e-4 -0.6,-0.29855 -0.6,-0.66267 0,-0.74359 -5.857,-6.06469 -6.676,-6.06469 -0.289,0 -0.526,-0.21621 -0.526,-0.48048 0,-0.26426 -0.225,-0.48048 -0.5,-0.48048 -0.275,0 -0.977,-0.45899 -1.56,-1.01998 -0.583,-0.561 -2.207,-1.76475 -3.608,-2.675 -1.402,-0.91025 -2.667,-1.96477 -2.812,-2.34338 -0.146,-0.3786 -0.53,-0.68836 -0.855,-0.68836 -0.325,0 -1.466,-0.83329 -2.536,-1.85176 -3.603,-3.43024 -9.001,-6.40899 -9.929,-5.47955 -0.144,0.14357 -0.536,0.0396 -0.873,-0.23096 -0.336,-0.2706 -1.25,-0.41958 -2.03,-0.33106 -0.779,0.0885 -1.681,-0.0581 -2.004,-0.3258 -0.329,-0.27403 -1.338,-0.34545 -2.308,-0.16343 -1.118,0.21008 -1.978,0.11049 -2.453,-0.28436 -0.578,-0.47956 -1.26,-0.48938 -3.236,-0.0465 -4.113,0.92194 -5.273,1.03087 -7.66,0.71949 -2.389,-0.31153 -5.051,-2.19625 -4.784,-3.38719 0.08,-0.34697 -0.166,-0.63085 -0.542,-0.63085 -0.375,0 -0.951,-0.32432 -1.28,-0.72072 -0.328,-0.39639 -0.932,-0.72072 -1.341,-0.72072 -0.409,0 -1.16,-0.37732 -1.669,-0.8385 -0.967,-0.87574 -4.706,-1.15283 -6.139,-0.45496 -0.927,0.45155 -3.079,-1.34573 -3.576,-2.98576 -0.192,-0.63585 -0.918,-1.69824 -1.614,-2.36087 -0.695,-0.66263 -0.994,-1.04854 -0.664,-0.85759 0.818,0.47305 0.757,0.0781 -0.31,-2.01095 -1.408,-2.75438 -6.526,-6.98449 -8.13,-6.71966 -0.618,0.10185 -0.768,-0.18117 -0.656,-1.23297 0.108,-1.01656 -0.01,-1.26907 -0.481,-0.98885 -0.471,0.28406 -0.463,0.17702 0.03,-0.43663 0.444,-0.54735 0.479,-0.81296 0.109,-0.81296 -0.366,0 -0.313,-0.36168 0.159,-1.08256 0.925,-1.41283 0.499,-6.60512 -0.542,-6.60512 -0.375,0 -0.548,-0.21622 -0.385,-0.48048 0.163,-0.26427 0.1,-0.48049 -0.15,-0.48049 -0.246,0 -0.424,-0.85611 -0.397,-1.90247 0.04,-1.37884 -0.238,-2.17069 -0.995,-2.87696 -0.653,-0.60878 -0.969,-1.36906 -0.843,-2.02589 0.205,-1.06733 -0.493,-2.3238 -1.291,-2.3238 -0.255,0 -0.244,0.36405 0.03,0.86852 0.256,0.47769 0.617,2.74348 0.802,5.03508 0.296,3.65128 0.239,4.20484 -0.468,4.47612 -1.172,0.45015 -1.437,-0.0463 -1.312,-2.46102 0.06,-1.18412 -0.06,-2.15357 -0.271,-2.15435 -0.21,-7.8e-4 -0.398,-0.75491 -0.418,-1.67585 -0.02,-0.92094 -0.27,-2.16354 -0.556,-2.76135 -0.287,-0.5978 -0.65,-1.41124 -0.809,-1.80763 -0.158,-0.3964 -0.721,-1.43726 -1.251,-2.31302 -0.53,-0.87577 -1.028,-2.18284 -1.107,-2.90462 -0.08,-0.72177 -0.3,-1.56619 -0.492,-1.87649 -0.42,-0.67994 -0.199,-6.33867 0.237,-6.07433 0.593,0.35941 1.009,-2.9805 0.985,-7.89784 -0.02,-4.09678 -0.178,-5.14564 -0.898,-5.96848 -0.481,-0.54905 -0.604,-0.84024 -0.274,-0.64709 0.737,0.43118 0.786,-0.59517 0.114,-2.36573 -0.321,-0.84383 -0.731,-1.18777 -1.2,-1.00732 -0.393,0.1507 -0.714,0.0518 -0.714,-0.21975 0,-0.27157 -0.249,-0.33948 -0.554,-0.15092 -0.326,0.20158 -0.425,0.13286 -0.24,-0.16678 0.173,-0.28029 0.757,-0.39404 1.296,-0.25278 0.966,0.25265 0.968,0.22837 0.149,-1.49014 -0.607,-1.27438 -1.057,-1.67572 -1.661,-1.48359 -0.456,0.14485 -0.989,0.005 -1.184,-0.31089 -0.224,-0.36277 -0.151,-0.44801 0.199,-0.23143 0.992,0.61355 1.512,-0.15467 0.947,-1.39765 -0.293,-0.64294 -0.717,-1.05489 -0.943,-0.91545 -0.225,0.13944 -0.416,-0.24572 -0.425,-0.85591 -0.01,-1.03302 -1.42,-3.51644 -1.428,-2.52259 0,0.39367 -0.357,2.72232 -1.235,8.13988 -0.324,2.00132 -1.193,4.6218 -1.911,5.76577 -1.988,3.16562 -2.854,9.09934 -2.161,14.82146 0.26,2.1545 0.595,4.99836 0.744,6.31968 0.149,1.32132 0.404,3.42943 0.565,4.68468 0.286,2.21689 0.258,2.28229 -0.964,2.28229 -0.941,0 -1.333,-0.30225 -1.559,-1.2012 -0.272,-1.08306 -0.54,-1.20121 -2.727,-1.20121 -1.716,0 -3.021,0.34849 -4.455,1.18965 -2.132,1.25025 -2.856,2.26677 -6.34,8.90044 -1.18,2.24625 -2.284,4.1922 -2.452,4.32433 -1.232,0.96659 -1.541,1.87989 -0.954,2.82109 0.501,0.80266 0.475,1.25405 -0.147,2.56017 -0.876,1.83865 -0.89,2.5738 -0.04,2.47993 0.549,-0.0611 0.801,0.47189 0.657,1.38806 -0.08,0.51025 0.792,0.44852 1.118,-0.0791 0.149,-0.2417 0,-0.54895 -0.332,-0.68279 -0.376,-0.15162 -0.399,-0.25765 -0.06,-0.28128 0.298,-0.0209 0.81,0.28639 1.139,0.68279 0.479,0.57801 0.467,0.88169 -0.06,1.53367 -0.569,0.70119 -0.56,0.75457 0.06,0.38825 0.621,-0.36632 0.63,-0.31295 0.06,0.38825 -0.429,0.52974 -0.471,0.81295 -0.12,0.81295 0.297,0 0.539,0.25325 0.539,0.56277 0,0.66181 1.415,2.32011 1.98,2.32011 0.215,0 0.269,-0.37838 0.12,-0.84084 -0.22,-0.68552 -0.179,-0.71194 0.224,-0.14306 0.271,0.38378 0.405,0.8406 0.297,1.01515 -0.107,0.17456 0.579,1.02278 1.526,1.88495 1.669,1.52013 6.401,3.35751 8.667,3.36542 1.462,0.005 1.838,0.85386 0.859,1.9368 -0.454,0.50138 -0.961,0.89459 -1.127,0.87378 -1.216,-0.15184 -1.491,0.23376 -1.421,1.99789 0.08,2.02884 0.602,2.54897 1.006,1.00148 0.132,-0.50624 0,-1.15489 -0.28,-1.44144 -0.374,-0.37434 -0.309,-0.521 0.23,-0.521 0.456,0 0.753,0.42444 0.758,1.08108 0.02,2.23858 0.149,2.56014 1.084,2.63066 0.992,0.0747 1.332,-1.02285 0.48,-1.54958 -0.264,-0.16332 -0.455,-0.77068 -0.424,-1.34967 0.04,-0.82182 0.104,-0.867 0.276,-0.20601 0.121,0.4657 0.414,0.72713 0.65,0.58095 0.517,-0.31969 1.152,1.92159 0.736,2.59591 -0.162,0.26102 -0.09,0.60116 0.161,0.75586 0.25,0.15471 0.591,0.0615 0.757,-0.20704 0.165,-0.26857 0.504,-0.48831 0.753,-0.48831 0.714,0 0.526,1.43574 -0.296,2.25843 -0.435,0.4351 -0.61,1.07439 -0.419,1.52724 0.181,0.42839 0.403,1.82677 0.495,3.1075 0.144,2.02575 0.06,2.28804 -0.647,2.01665 -0.447,-0.17158 -0.665,-0.16403 -0.484,0.0168 0.181,0.18081 0.03,0.7576 -0.338,1.28175 -0.367,0.52416 -0.576,1.25251 -0.464,1.61857 0.68,2.21953 0.715,2.26807 1.256,1.72723 0.4,-0.4003 0.38,-0.73266 -0.08,-1.28155 -0.511,-0.616 -0.483,-0.74108 0.165,-0.74108 0.505,0 0.779,-0.4113 0.779,-1.17285 0,-1.14876 0.765,-2.06513 1.288,-1.54207 0.145,0.1453 -0.06,1.73014 -0.467,3.52185 -0.479,2.137 -0.539,3.01308 -0.175,2.54669 0.304,-0.39104 0.986,-1.02488 1.514,-1.40853 0.762,-0.55383 0.837,-0.55878 0.36,-0.024 -0.33,0.37044 -0.6,1.06271 -0.6,1.53839 0,0.47567 -0.229,0.86486 -0.508,0.86486 -0.28,0 -0.369,0.22657 -0.198,0.50349 0.171,0.27692 0.153,0.87151 -0.04,1.32132 -0.472,1.10076 -0.583,8.85725 -0.117,8.12323 0.202,-0.31827 0.37,-1.13194 0.375,-1.80816 0,-1.38951 1.187,-3.2751 1.716,-2.74533 0.192,0.1914 0.141,0.62349 -0.113,0.96021 -0.604,0.80369 -0.535,5.76178 0.08,5.97269 0.264,0.0899 0.506,-0.59287 0.538,-1.51738 0.03,-0.92452 -0.131,-1.68094 -0.36,-1.68094 -0.23,0 -0.418,-0.21622 -0.418,-0.48048 0,-0.26426 0.432,-0.48048 0.96,-0.48048 0.534,0 0.961,0.32032 0.961,0.72072 0,0.3964 0.391,1.11271 0.87,1.59181 0.687,0.68784 0.745,0.9881 0.275,1.42736 -0.451,0.42219 -0.648,0.4149 -0.814,-0.0302 -0.132,-0.35316 -0.351,-0.20418 -0.551,0.37443 -0.182,0.52853 -0.547,1.36197 -0.811,1.85208 -0.374,0.69331 -0.34,0.80616 0.155,0.50837 0.485,-0.29212 0.515,-0.2187 0.128,0.31008 -0.279,0.38106 -0.485,1.28743 -0.457,2.01416 0.04,1.0722 -0.159,1.32132 -1.054,1.32132 -0.606,0 -1.102,0.20278 -1.102,0.45062 0,0.69693 2.095,0.39354 2.691,-0.38966 0.298,-0.39188 0.877,-0.5647 1.32,-0.39435 0.873,0.33529 1.06,1.551 0.31,2.01507 -0.744,0.45975 -0.575,1.62633 0.563,3.90794 1.175,2.35341 0.803,3.43007 -0.56,1.62199 -0.49,-0.65035 -0.882,-1.29577 -0.87,-1.43427 0.07,-0.89625 -0.166,-1.45302 -0.625,-1.45302 -0.311,0 -0.396,0.34935 -0.204,0.84084 0.589,1.51603 0.509,1.75786 -0.591,1.77997 -0.708,0.0142 -1.351,0.52508 -1.841,1.46328 -5.157,9.86025 -6.809,13.69369 -5.899,13.69369 0.272,0 0.154,0.33977 -0.261,0.75504 -0.415,0.41527 -0.761,1.33419 -0.77,2.04204 0,0.70785 -0.332,1.70671 -0.72,2.21968 -0.388,0.51297 -0.705,1.52207 -0.705,2.24245 0,2.92828 -2.556,6.89916 -5.345,8.30312 -0.583,0.29357 -1.156,0.82503 -1.274,1.18102 -0.168,0.51091 0,0.53622 0.771,0.12012 2.348,-1.25787 4.267,-0.16159 2.539,1.45031 -0.557,0.51858 -1.012,1.17983 -1.012,1.46943 0,0.28961 0.448,-0.0431 0.995,-0.73943 0.671,-0.85259 1.454,-1.266 2.401,-1.266 1.669,0 1.804,0.62676 0.354,1.64338 -1.425,0.9988 -0.758,1.50913 1.013,0.7751 1.83,-0.75899 3.078,-2.54759 2.311,-3.31469 -0.406,-0.40666 -0.38,-0.69788 0.102,-1.14583 0.522,-0.48497 0.574,-0.47327 0.27,0.0608 -0.299,0.52711 -0.192,0.55837 0.53,0.15401 1.128,-0.63159 1.316,-2.99933 0.208,-2.61369 -0.562,0.19536 -0.612,0.11603 -0.205,-0.32643 0.296,-0.32147 0.944,-0.65228 1.441,-0.73514 0.496,-0.0829 0.845,-0.40406 0.774,-0.71378 -0.07,-0.30972 0.199,-1.03181 0.6,-1.60464 0.955,-1.36511 0.921,-1.82045 -0.111,-1.48802 -0.685,0.22052 -0.712,0.17922 -0.143,-0.22361 0.383,-0.27176 0.854,-0.39674 1.047,-0.27773 0.633,0.39188 0.862,-0.57839 0.471,-2.00263 -0.276,-1.00812 -0.64,-1.36102 -1.3,-1.26012 -0.743,0.11381 -0.783,0.0512 -0.212,-0.33288 0.466,-0.31289 0.906,-0.30567 1.3,0.0213 0.867,0.72026 1.487,0.13522 1.335,-1.25836 -0.07,-0.66709 0.06,-1.21289 0.304,-1.21289 0.241,0 0.438,-0.23166 0.438,-0.5148 0,-0.28314 0.27,-0.80187 0.6,-1.15274 0.683,-0.72602 2.896,-3.38694 4.007,-4.81894 0.41,-0.52853 0.588,-0.65729 0.396,-0.28613 -0.23,0.44368 -0.16,0.5574 0.204,0.33201 0.305,-0.18856 0.554,-0.77199 0.554,-1.2965 0,-0.64172 0.275,-0.90749 0.841,-0.81249 0.637,0.1072 0.81,-0.14796 0.718,-1.06002 -0.1,-0.94595 -0.02,-1.04805 0.364,-0.48048 0.412,0.61255 0.632,0.54044 1.463,-0.48048 0.538,-0.66066 1.184,-1.7007 1.436,-2.31119 0.252,-0.6105 0.684,-0.97026 0.96,-0.79948 0.821,0.50836 1.954,-0.76596 1.619,-1.82214 -0.184,-0.58043 -0.114,-0.83687 0.179,-0.65564 0.265,0.1637 0.605,-0.0254 0.757,-0.42031 0.151,-0.39488 0.599,-0.71796 0.995,-0.71796 0.422,0 0.613,-0.28007 0.461,-0.67732 -0.158,-0.41125 0.144,-0.80579 0.769,-1.00437 0.621,-0.19702 0.928,-0.59405 0.773,-0.9986 -0.142,-0.36935 -0.06,-0.62009 0.171,-0.55719 0.236,0.0629 0.737,-0.29916 1.114,-0.80456 0.921,-1.23721 2.286,-0.71501 1.909,0.73032 -0.223,0.85454 -0.119,1.00969 0.514,0.76652 0.853,-0.32764 2.721,1.30526 2.721,2.37865 0,0.33727 0.451,0.85498 1.003,1.15047 0.862,0.46173 0.976,0.41345 0.812,-0.34345 -0.106,-0.48439 -0.503,-0.80864 -0.883,-0.72055 -0.381,0.0881 -0.532,-1.3e-4 -0.336,-0.19604 0.196,-0.1959 0.108,-0.65552 -0.196,-1.02136 -0.378,-0.45592 -0.396,-0.8207 -0.06,-1.15956 0.338,-0.33886 0.799,-0.10572 1.465,0.74109 0.534,0.6795 1.318,1.23547 1.742,1.23547 0.992,0 0.974,-0.42005 -0.07,-1.57272 -0.809,-0.89416 -0.796,-0.92155 0.344,-0.75855 0.919,0.13142 1.277,0.57064 1.607,1.9709 0.271,1.15458 0.708,1.81501 1.216,1.83857 1.696,0.0787 2.369,0.38314 3.625,1.6408 1.241,1.24223 1.347,1.26499 2.215,0.47867 0.839,-0.76004 0.973,-0.76397 1.687,-0.0495 0.426,0.42687 1.398,0.77612 2.159,0.77612 0.761,0 1.97,0.26773 2.688,0.59495 1.037,0.47295 1.345,0.47295 1.503,0 0.359,-1.07903 1.534,-0.61939 1.857,0.72637 0.551,2.30336 1.63,3.99075 2.845,4.45319 1.262,0.48012 1.515,1.16716 0.631,1.71368 -0.303,0.18748 -0.91,-0.14591 -1.365,-0.74941 -0.659,-0.87481 -0.998,-0.98921 -1.735,-0.58576 -1.37,0.75096 -2.633,2.41562 -2.087,2.75296 0.279,0.17273 0.114,0.81292 -0.406,1.5782 -0.482,0.70818 -0.851,1.61192 -0.82,2.00831 0.03,0.3964 -0.159,1.00747 -0.422,1.35794 -0.323,0.42956 -0.309,0.74273 0.04,0.96096 0.306,0.18972 0.477,1.56168 0.413,3.31412 -0.06,1.6447 0.07,3.26632 0.28,3.6036 0.284,0.44808 0.391,0.38678 0.397,-0.22761 0,-0.46246 0.355,-0.84084 0.78,-0.84084 0.625,0 0.713,0.32502 0.459,1.68174 -0.262,1.39885 -0.112,1.88562 0.896,2.8938 0.666,0.66664 1.18,1.26121 1.142,1.32127 -0.04,0.0601 0.03,0.40317 0.148,0.76248 0.174,0.52222 0.346,0.49812 0.859,-0.12012 0.508,-0.61292 0.514,-0.7734 0.03,-0.7734 -0.412,0 -0.329,-0.31473 0.256,-0.96097 1.218,-1.34701 1.745,-1.19672 0.98,0.27932 -0.723,1.39465 -0.177,2.99354 1.485,4.34774 0.493,0.40122 0.625,0.59259 0.295,0.42526 -0.33,-0.16732 -0.6,-0.09 -0.6,0.1719 0,0.68397 2.683,2.50087 3.091,2.09292 0.188,-0.18819 0.555,0.039 0.816,0.50478 0.26,0.46582 0.685,0.71573 0.945,0.55536 0.259,-0.16037 1.056,0.36447 1.77,1.16632 0.715,0.80185 1.948,1.59223 2.74,1.75641 1.422,0.2946 1.428,0.287 0.48,-0.5824 -1.331,-1.22094 -2.544,-2.82036 -1.8,-2.37307 0.402,0.24202 0.6,0.0351 0.6,-0.62849 0,-0.54413 0.221,-0.98932 0.492,-0.98932 0.538,0 1.597,2.39339 1.225,2.76648 -0.315,0.31447 0.97,1.55785 1.609,1.55785 0.283,0 0.515,0.31934 0.515,0.70964 0,1.5278 2.063,2.1948 6.186,1.99955 2.165,-0.1025 4.047,-0.29805 4.183,-0.43456 0.137,-0.13651 0.661,-0.14034 1.164,-0.009 0.897,0.23471 0.896,0.27846 -0.04,2.10991 -0.525,1.02862 -1.151,1.87022 -1.392,1.87022 -0.241,0 -0.59,0.48649 -0.776,1.08108 -0.538,1.71915 -3.693,5.54246 -5.007,6.06837 -1.28,0.51203 -4.832,1.01912 -7.822,1.11659 -1.001,0.0326 -1.947,0.26328 -2.101,0.51252 -0.169,0.27445 -0.401,0.25559 -0.589,-0.0478 -0.454,-0.73504 -9.524,-2.10419 -10.516,-1.58741 -0.449,0.23413 -1.858,0.4215 -3.131,0.41639 -3.395,-0.0136 -6.317,2.33966 -4.268,3.43712 0.703,0.37683 1.409,0.228 3.028,-0.63873 2.03,-1.08674 3.061,-1.16444 6.475,-0.48807 1.764,0.34952 1.201,1.65972 -0.72,1.67678 -0.947,0.008 -2.065,0.27868 -2.486,0.6006 -0.621,0.47402 0.155,0.60764 4.08,0.7027 5.019,0.12155 9.705,0.84522 10.701,1.65225 0.726,0.58881 4.809,1.2071 6.388,0.96746 0.661,-0.10014 1.904,-0.49763 2.765,-0.88331 z m -6.408,-0.72094 c -0.191,-0.3107 0.722,-0.75719 1.963,-0.95929 0.264,-0.043 0.766,-0.42397 1.114,-0.84659 0.349,-0.42262 0.276,-0.11203 -0.162,0.6902 -0.738,1.35077 -2.381,1.97962 -2.915,1.11568 z m 4.844,-4.25596 c 0.163,-0.26426 0.392,-0.48048 0.508,-0.48048 0.117,0 0.212,0.21622 0.212,0.48048 0,0.26427 -0.229,0.48048 -0.509,0.48048 -0.279,0 -0.375,-0.21621 -0.211,-0.48048 z m 1.44,0 c -0.163,-0.26426 0.05,-0.48048 0.48,-0.48048 0.427,0 0.643,0.21622 0.48,0.48048 -0.163,0.26427 -0.379,0.48048 -0.48,0.48048 -0.101,0 -0.317,-0.21621 -0.48,-0.48048 z m 1.44,-1.44144 c 0.163,-0.26426 0.513,-0.48048 0.777,-0.48048 0.264,0 0.347,0.21622 0.183,0.48048 -0.163,0.26426 -0.512,0.48048 -0.776,0.48048 -0.264,0 -0.347,-0.21622 -0.184,-0.48048 z m 4.387,-8.02223 c -0.132,-0.13194 -0.125,-0.53911 0.02,-0.90483 0.194,-0.5068 0.482,-0.5435 1.208,-0.15434 0.525,0.28083 0.821,0.64349 0.659,0.80591 -0.394,0.39372 -1.582,0.55365 -1.882,0.25326 z m 5.239,-6.15652 c 0.07,-0.66606 -0.172,-1.51666 -0.545,-1.89023 -0.374,-0.37356 -0.679,-0.91086 -0.679,-1.194 0,-0.28314 -0.229,-0.5148 -0.509,-0.5148 -0.279,0 -0.365,-0.23095 -0.191,-0.51323 0.174,-0.28228 0.583,-0.41101 0.909,-0.28605 0.325,0.12495 0.591,-0.067 0.591,-0.42659 0,-0.35958 -0.155,-0.55761 -0.345,-0.44008 -0.336,0.2077 -0.915,-1.35752 -0.929,-2.50839 0,-0.31391 0.426,-0.53816 0.954,-0.49835 0.863,0.0651 1.243,0.57181 1.52,2.03005 0.131,0.68582 1.2,1.68168 1.806,1.68168 0.283,0 0.515,0.30631 0.515,0.68068 0,0.37438 0.27,0.78974 0.6,0.92303 0.33,0.13329 0.126,0.25942 -0.453,0.28028 -0.579,0.0209 -1.356,-0.39462 -1.726,-0.92329 l -0.672,-0.96121 -0.87,0.96121 c -0.478,0.52867 -0.648,0.96122 -0.378,0.96122 0.27,0 1.033,0.82086 1.697,1.82413 l 1.206,1.82414 -1.317,0.10041 c -1.144,0.0872 -1.299,-0.0586 -1.184,-1.11061 z m 2.977,-0.90452 c -1.136,-0.86255 -1.057,-1.26067 0.24,-1.21513 0.594,0.0209 0.801,0.14999 0.46,0.28696 -0.476,0.19123 -0.491,0.40547 -0.06,0.92303 0.694,0.83735 0.459,0.83925 -0.639,0.005 z m -16.203,-1.22471 c 0,-0.24867 0.213,-0.58422 0.474,-0.74568 0.272,-0.16833 0.353,0.0245 0.189,0.45213 -0.319,0.83239 -0.663,0.98469 -0.663,0.29355 z m 4.92,-1.73788 c -0.33,-0.35878 -0.6,-0.80967 -0.6,-1.00199 0,-0.19232 -0.438,-0.81626 -0.973,-1.38652 -1.184,-1.26193 -1.589,-3.05578 -0.881,-3.90912 0.718,-0.86644 1.374,-0.34715 1.374,1.088 0,0.65576 0.451,1.80275 1.002,2.54886 1.103,1.49214 1.172,3.84927 0.08,2.66077 z m -18.203,-2.35342 c 0,-0.38478 0.183,-0.58605 0.408,-0.44728 0.224,0.13876 0.283,0.45358 0.131,0.69958 -0.388,0.62865 -0.539,0.55787 -0.539,-0.2523 z m 13.891,-0.3815 c -0.399,-0.51061 -1.569,-3.52003 -1.569,-4.03566 0,-0.56844 1.452,-0.0342 1.501,0.55218 0.07,0.85752 0.253,1.63537 0.421,1.8018 0.163,0.16154 0.379,2.28228 0.232,2.28228 -0.06,0 -0.327,-0.27027 -0.585,-0.6006 z m -12.597,-3.84384 c -0.384,-0.5946 -0.64,-1.27985 -0.569,-1.52278 0.07,-0.24293 -0.198,-0.17026 -0.597,0.16149 -0.995,0.82626 -1.975,0.19592 -1.183,-0.76015 0.471,-0.56683 0.47,-0.79041 0,-1.0814 -0.8,-0.49465 -1.978,-4.53263 -1.668,-5.71794 0.137,-0.52302 0,-1.41059 -0.298,-1.97238 -0.428,-0.80029 -0.397,-1.17005 0.14,-1.70792 0.989,-0.98979 1.281,-0.42749 1.281,2.47095 0,1.55316 0.209,2.56256 0.531,2.56256 0.292,0 0.404,0.33205 0.249,0.7379 -0.365,0.95013 2.141,6.46931 2.936,6.46931 0.333,0 0.604,0.32432 0.604,0.72072 0,1.0426 -0.623,0.8852 -1.426,-0.36036 z m 24.991,0.94512 c 0.11,-0.0748 0.632,-0.45316 1.16,-0.84084 0.889,-0.65202 0.911,-0.64182 0.302,0.13596 -0.363,0.46246 -0.885,0.84084 -1.161,0.84084 -0.275,0 -0.411,-0.0612 -0.301,-0.13596 z m -19.724,-0.825 c 0,-0.26427 0.216,-0.48048 0.48,-0.48048 0.264,0 0.48,0.21621 0.48,0.48048 0,0.26426 -0.216,0.48048 -0.48,0.48048 -0.264,0 -0.48,-0.21622 -0.48,-0.48048 z m -67.693,-0.50884 c 0,-0.27986 0.216,-0.37521 0.48,-0.21189 0.264,0.16333 0.48,0.39231 0.48,0.50884 0,0.11654 -0.216,0.21189 -0.48,0.21189 -0.264,0 -0.48,-0.22898 -0.48,-0.50884 z m 69.743,-3.36829 c -0.08,-1.10346 0.143,-1.20054 0.518,-0.22235 0.149,0.38794 0.109,0.80539 -0.09,0.92768 -0.197,0.12229 -0.391,-0.19511 -0.429,-0.70533 z m -3.545,0.39364 c -0.325,-0.71262 -0.263,-2.76276 0.08,-2.76276 0.248,0 0.451,0.22898 0.451,0.50884 0,0.27986 0.27,0.34646 0.6,0.148 0.408,-0.24517 0.389,-0.10026 -0.06,0.45213 -0.464,0.57343 -0.491,0.81295 -0.09,0.81295 0.312,0 0.433,0.21622 0.27,0.48048 -0.264,0.42836 -1.113,0.67198 -1.255,0.36036 z m 19.953,-0.8827 c -0.177,-0.28729 -0.128,-0.71664 0.109,-0.9541 0.255,-0.25535 0.431,-0.0419 0.431,0.52234 0,1.09177 -0.09,1.16275 -0.54,0.43176 z m -11.616,-1.09203 c -0.595,-0.29448 -1.081,-0.82124 -1.081,-1.17056 0,-0.34933 -0.232,-0.49165 -0.515,-0.31627 -0.284,0.17538 -0.232,-0.13618 0.115,-0.69236 0.347,-0.55619 0.772,-1.01124 0.945,-1.01124 0.385,0 1.083,1.52881 0.955,2.09261 -0.05,0.22602 0.157,0.71251 0.463,1.08109 0.626,0.75537 0.608,0.7557 -0.882,0.0167 z m -8.64,-2.35832 c -0.05,-0.71377 0.07,-0.78949 0.589,-0.3587 0.362,0.30032 0.944,0.50727 1.294,0.45987 1.209,-0.16393 1.891,0.0294 1.625,0.46063 -0.147,0.23812 -0.981,0.4127 -1.854,0.38796 -1.191,-0.0338 -1.603,-0.27026 -1.654,-0.94976 z m -61.774,-1.14031 c -0.253,-0.65945 -0.183,-0.68918 0.429,-0.18141 0.833,0.69195 0.919,0.97009 0.302,0.97009 -0.236,0 -0.565,-0.35491 -0.731,-0.78868 z m 75.907,-1.78603 c -0.126,-0.32962 0.175,-0.62244 0.681,-0.66052 1.059,-0.0799 1.218,0.61073 0.227,0.99132 -0.375,0.14372 -0.783,-0.005 -0.908,-0.3308 z m -0.777,-1.94708 c -0.363,-0.43725 -0.392,-0.7832 -0.08,-0.97442 0.264,-0.16306 0.714,0.14202 1,0.67795 0.593,1.10835 -0.07,1.32164 -0.917,0.29647 z m 7.695,-1.04489 c -0.897,-0.63802 -1.448,-1.16005 -1.224,-1.16005 0.224,0 0.148,-0.25946 -0.169,-0.57658 -0.823,-0.82356 -0.712,-2.3063 0.172,-2.3063 0.412,0 0.62,0.20833 0.463,0.46295 -0.158,0.25463 0.1,0.85219 0.571,1.32791 0.701,0.70625 2.315,3.59843 1.928,3.45328 -0.06,-0.0226 -0.844,-0.56318 -1.741,-1.20121 z m -35.096,-1.37193 c 0,-0.412 0.216,-0.74908 0.48,-0.74908 0.264,0 0.48,0.20346 0.48,0.45212 0,0.24867 -0.216,0.58576 -0.48,0.74908 -0.264,0.16333 -0.48,-0.0401 -0.48,-0.45212 z m 26.725,0.37204 c -0.458,-0.45919 -0.394,-1.12112 0.109,-1.12112 0.236,0 0.553,0.32432 0.705,0.72072 0.281,0.73239 -0.23,0.98402 -0.814,0.4004 z m -10.592,-0.56056 c -0.136,-0.22022 0.06,-0.4004 0.43,-0.4004 0.373,0 0.567,0.18018 0.431,0.4004 -0.136,0.22022 -0.33,0.4004 -0.431,0.4004 -0.101,0 -0.294,-0.18018 -0.43,-0.4004 z m 2.4,-0.64064 c 0.136,-0.22022 0.451,-0.4004 0.699,-0.4004 0.249,0 0.452,0.18018 0.452,0.4004 0,0.22022 -0.315,0.4004 -0.699,0.4004 -0.385,0 -0.588,-0.18018 -0.452,-0.4004 z m -66.876,-1.25765 c 0.844,-0.93375 2.734,-1.2973 2.734,-0.52597 0,0.26343 -0.218,0.3444 -0.484,0.17992 -0.266,-0.16448 -0.613,0.039 -0.771,0.45212 -0.159,0.41315 -0.731,0.75118 -1.271,0.75118 -0.914,0 -0.928,-0.0611 -0.208,-0.85725 z m 62.266,-1.78539 c 0,-0.44044 0.216,-0.72873 0.48,-0.64064 0.565,0.18839 0.535,0.76418 -0.06,1.16116 -0.231,0.15415 -0.42,-0.0801 -0.42,-0.52052 z m 3.175,0.15232 c 0.138,-0.22453 0.453,-0.28384 0.699,-0.1318 0.628,0.38852 0.557,0.54004 -0.252,0.54004 -0.385,0 -0.586,-0.18371 -0.447,-0.40824 z m 24.987,-0.48475 c -0.358,-1.37009 0.488,-2.36621 1.143,-1.34524 0.565,0.88175 0.405,2.017 -0.318,2.2581 -0.297,0.0988 -0.668,-0.31202 -0.825,-0.91286 z m 11.446,0.0922 c 0.163,-0.26427 0.5,-0.48048 0.748,-0.48048 0.249,0 0.452,0.21621 0.452,0.48048 0,0.26426 -0.337,0.48048 -0.749,0.48048 -0.411,0 -0.614,-0.21622 -0.451,-0.48048 z m -11.283,-2.91275 c 0,-0.24784 0.433,-0.45062 0.961,-0.45062 0.528,0 0.96,0.17021 0.96,0.37824 0,0.20802 -0.432,0.4108 -0.96,0.45061 -0.528,0.0398 -0.961,-0.13039 -0.961,-0.37823 z m 3.841,0.0299 c 0,-0.26426 0.229,-0.48048 0.509,-0.48048 0.279,0 0.375,0.21622 0.211,0.48048 -0.163,0.26427 -0.392,0.48048 -0.508,0.48048 -0.117,0 -0.212,-0.21621 -0.212,-0.48048 z m 7.682,-0.0284 c 0,-0.27986 0.216,-0.37521 0.48,-0.21189 0.264,0.16333 0.48,0.3923 0.48,0.50884 0,0.11654 -0.216,0.21188 -0.48,0.21188 -0.264,0 -0.48,-0.22897 -0.48,-0.50883 z m -40.688,-0.57225 c 0.07,-0.33033 -0.234,-0.54271 -0.666,-0.47197 -0.675,0.11052 -1.262,-0.51535 -1.248,-1.32983 0,-0.13213 -0.458,-1.1019 -1.022,-2.15505 -1.216,-2.27194 -1.26,-2.64975 -0.305,-2.64975 0.396,0 0.72,0.32432 0.72,0.72072 0,0.39639 0.392,1.11261 0.87,1.59159 0.479,0.47898 0.79,1.18168 0.693,1.56156 -0.103,0.39792 0.05,0.32999 0.359,-0.16026 0.296,-0.46802 0.774,-0.70488 1.062,-0.52636 0.318,0.19621 0.388,0.10208 0.178,-0.23797 -0.191,-0.30941 -0.585,-0.41545 -0.876,-0.23566 -0.339,0.2093 -0.42,0.0438 -0.227,-0.45993 0.18,-0.47025 0,-0.95862 -0.461,-1.21377 -0.419,-0.23482 -0.663,-0.72509 -0.541,-1.0895 0.121,-0.36441 -0.07,-0.9522 -0.423,-1.30619 -0.353,-0.354 -0.511,-0.85719 -0.35,-1.1182 0.271,-0.43892 2.066,0.94664 1.96,1.51301 -0.124,0.66104 1.762,3.79855 2.142,3.56365 0.241,-0.14945 0.38,0.0146 0.307,0.3646 -0.07,0.34997 0.229,0.60913 0.67,0.57591 0.536,-0.0403 0.708,0.18533 0.519,0.67942 -0.206,0.53633 -0.1,0.63267 0.398,0.35027 0.532,-0.30403 0.558,-0.25574 0.119,0.21997 -0.606,0.65627 -0.317,2.08896 0.34,1.68303 0.218,-0.13493 0.504,-0.0707 0.636,0.14264 0.132,0.21338 -0.344,0.3802 -1.057,0.37071 -0.975,-0.013 -1.294,-0.25604 -1.287,-0.98072 0,-0.52991 -0.206,-0.96348 -0.47,-0.96348 -0.264,0 -0.422,0.17375 -0.351,0.3861 0.133,0.40134 -1.055,1.77606 -1.535,1.77606 -0.151,0 -0.22,-0.27027 -0.154,-0.6006 z m 26.285,-0.36036 c 0,-0.26426 0.229,-0.48048 0.508,-0.48048 0.28,0 0.375,0.21622 0.212,0.48048 -0.163,0.26427 -0.392,0.48048 -0.508,0.48048 -0.117,0 -0.212,-0.21621 -0.212,-0.48048 z m -11.24,-1.85269 c -0.611,-0.98935 -1.188,-2.95211 -0.868,-2.95211 0.193,0 0.587,0.75675 0.877,1.68168 0.511,1.63589 0.508,2.10724 0,1.27043 z m 17.006,-0.78383 c -0.643,-0.77527 -0.747,-2.09162 -0.258,-3.24936 0.222,-0.52348 0.144,-0.84084 -0.204,-0.84084 -0.308,0 -0.432,-0.20678 -0.276,-0.4595 0.594,-0.96153 1.693,0.112 1.693,1.65327 0,0.86429 0.324,1.84061 0.72,2.16959 0.396,0.32898 0.721,0.74187 0.721,0.91754 0,0.60573 -1.858,0.45784 -2.396,-0.1907 z m -46.347,-0.74671 c -0.169,-0.27519 -0.383,-2.64957 -0.474,-5.27641 -0.09,-2.62684 -0.275,-4.95255 -0.408,-5.16824 -0.294,-0.4762 0.498,-1.86477 0.858,-1.50438 0.294,0.29487 0.803,12.44938 0.521,12.44938 -0.103,0 -0.327,-0.22516 -0.497,-0.50035 z m -7.748,-2.21207 c 0.172,-0.30264 -0.03,-0.68284 -0.453,-0.84489 -0.448,-0.17192 -0.65,-0.60071 -0.486,-1.02949 0.159,-0.41534 -0.03,-0.8533 -0.427,-1.00726 -0.391,-0.14982 -0.598,-0.45267 -0.462,-0.673 0.136,-0.22033 -0.136,-0.62354 -0.603,-0.89601 -0.468,-0.27247 -0.621,-0.50197 -0.34,-0.51001 0.604,-0.0172 0.629,-2.37663 0.04,-3.29826 -0.31,-0.48125 -0.131,-0.601 0.72,-0.48048 0.975,0.13802 1.116,0.39629 1.007,1.84221 -0.126,1.67738 0.939,5.51332 1.403,5.04966 0.134,-0.13441 0.212,0.18354 0.174,0.70655 -0.04,0.52302 -0.253,1.11751 -0.477,1.32109 -0.224,0.20358 -0.265,0.12253 -0.09,-0.18011 z m 34.041,-1.60538 c -0.791,-1.26891 -0.751,-1.54894 0.198,-1.36308 0.436,0.0854 0.866,0.64184 0.957,1.23644 0.203,1.33684 -0.361,1.3987 -1.155,0.12664 z m -16.53,-0.42204 c -0.438,-0.62494 -0.681,-1.43575 -0.541,-1.80181 0.165,-0.42875 -0.105,-0.68693 -0.756,-0.72562 -0.557,-0.033 -1.228,-0.11411 -1.492,-0.18018 -0.264,-0.0661 -0.732,-0.14714 -1.04,-0.18018 -0.308,-0.033 -0.418,-0.20233 -0.244,-0.37621 0.173,-0.17388 0.08,-0.59499 -0.198,-0.9358 -0.36,-0.43421 -0.363,-0.87882 -0.01,-1.48565 0.441,-0.75842 0.506,-0.70395 0.518,0.43842 0.02,1.35812 1.617,2.72248 2.162,1.84099 0.303,-0.49155 1.723,-0.14619 1.577,0.38365 -0.05,0.17313 0.188,0.8126 0.525,1.42104 0.337,0.60845 0.542,1.47331 0.455,1.92193 -0.133,0.68582 -0.285,0.63479 -0.955,-0.32058 z m 14.015,0.17528 c -0.334,-0.40204 -0.386,-0.72073 -0.118,-0.72073 0.264,0 0.749,0.32433 1.078,0.72073 0.333,0.40203 0.385,0.72072 0.117,0.72072 -0.264,0 -0.749,-0.32433 -1.077,-0.72072 z m 10.322,-1.99573 c -0.396,-0.94888 -0.721,-1.76093 -0.721,-1.80455 0,-0.0436 0.433,-0.11189 0.961,-0.1517 0.695,-0.0525 0.96,0.22381 0.96,1.00286 0,0.59138 0.23,1.30599 0.512,1.58802 0.363,0.36338 0.293,0.59695 -0.24,0.80169 -0.538,0.20653 -0.957,-0.20303 -1.472,-1.43632 z m -23.114,-0.75859 c -0.397,-0.64368 -0.611,-2.29073 -0.297,-2.29073 0.511,0 1.406,1.304 1.406,2.04776 0,0.97047 -0.581,1.0978 -1.109,0.24297 z m 10.005,-0.84929 c -0.06,-0.79279 0.08,-1.44144 0.322,-1.44144 0.523,0 0.946,1.44991 0.666,2.28228 -0.361,1.07321 -0.875,0.63524 -0.988,-0.84084 z m -7.776,0.48048 c -0.432,-0.27986 -0.492,-0.4687 -0.148,-0.47312 0.315,-0.004 0.705,0.20886 0.869,0.47312 0.368,0.59653 0.202,0.59653 -0.721,0 z m -5.121,-2.1833 c 0,-0.38477 0.18,-0.69958 0.4,-0.69958 0.221,0 0.401,0.20346 0.401,0.45212 0,0.24867 -0.18,0.56348 -0.401,0.69959 -0.22,0.1361 -0.4,-0.0673 -0.4,-0.45213 z m 8.772,0.34146 c -0.136,-0.22022 0.06,-0.4004 0.43,-0.4004 0.373,0 0.567,0.18018 0.431,0.4004 -0.136,0.22022 -0.33,0.4004 -0.431,0.4004 -0.101,0 -0.294,-0.18018 -0.43,-0.4004 z m -1.25,-1.01268 c 0,-0.24867 0.213,-0.58423 0.474,-0.74568 0.273,-0.16833 0.353,0.0245 0.189,0.45212 -0.319,0.8324 -0.663,0.98469 -0.663,0.29356 z m 33.847,-0.50884 c -0.467,-0.51607 -1.09,-0.80063 -1.385,-0.63236 -0.295,0.16827 -0.372,0.12516 -0.171,-0.0958 0.2,-0.22096 -0.108,-0.90428 -0.684,-1.51848 -0.653,-0.69583 -0.814,-1.11672 -0.426,-1.11672 0.506,0 0.504,-0.14342 -0.01,-0.76344 -0.545,-0.65669 -0.503,-0.74067 0.301,-0.6006 0.58,0.10102 0.884,-0.0787 0.802,-0.47348 -0.07,-0.34997 0.05,-0.52165 0.28,-0.38152 0.227,0.14014 0.321,0.87562 0.21,1.63439 -0.159,1.08252 0.07,1.5572 1.056,2.20443 0.691,0.45366 1.141,1.01309 0.999,1.24317 -0.142,0.23008 0,0.50532 0.321,0.61164 0.394,0.13136 0.416,0.29487 0.07,0.51019 -0.281,0.17428 -0.894,-0.10536 -1.36,-0.62142 z m -31.423,-0.69216 c -0.316,-0.38069 -0.882,-0.57377 -1.259,-0.42908 -0.377,0.1447 -0.685,0.0237 -0.685,-0.2688 0,-0.29253 0.209,-0.53188 0.465,-0.53188 0.256,0 0.341,-0.32309 0.19,-0.71796 -0.152,-0.39488 -0.469,-0.59834 -0.705,-0.45213 -0.237,0.14621 -0.447,0.0909 -0.467,-0.12288 -0.07,-0.68871 -0.343,-1.81113 -0.632,-2.55088 -0.376,-0.96415 0.483,-2.31096 1.071,-1.67766 0.243,0.26205 0.701,1.28727 1.017,2.27826 0.317,0.991 0.75,1.80181 0.963,1.80181 0.212,0 0.495,0.37837 0.628,0.84084 0.133,0.46246 0.397,1.21922 0.588,1.68168 0.417,1.01574 -0.372,1.11575 -1.174,0.14868 z m 2.12,0.23938 c 0.15,-0.24298 0.07,-0.56937 -0.186,-0.72531 -0.733,-0.45328 -0.35,-2.90599 0.453,-2.90599 0.923,0 1.006,3.47919 0.09,3.83035 -0.348,0.1335 -0.509,0.0439 -0.359,-0.19905 z m -61.195,-1.91976 c 0,-0.62236 0.306,-0.90803 0.922,-0.86153 0.57,0.0429 0.898,0.39963 0.858,0.9311 -0.09,1.19346 -1.78,1.1274 -1.78,-0.0696 z m 44.919,-1.33046 c -0.26,-0.68478 -0.205,-0.73997 0.269,-0.26897 0.328,0.32592 0.476,0.71363 0.328,0.86156 -0.148,0.14793 -0.416,-0.11873 -0.597,-0.59259 z m -17.738,-0.35516 c 0.134,-0.34702 -0.293,-1.05212 -0.947,-1.56689 -0.713,-0.56136 -1.045,-1.16792 -0.83,-1.51557 0.594,-0.96301 1.794,-0.11992 2.543,1.78645 0.654,1.66632 0.643,1.80257 -0.151,1.8624 -0.525,0.0396 -0.763,-0.17977 -0.615,-0.56639 z m -22.861,-0.775 c 0,-0.27986 0.216,-0.37521 0.481,-0.21189 0.264,0.16333 0.48,0.39231 0.48,0.50884 0,0.11654 -0.216,0.21188 -0.48,0.21188 -0.265,0 -0.481,-0.22897 -0.481,-0.50883 z m 36.735,-0.44087 c -0.16,-0.25808 -0.375,-1.13793 -0.478,-1.95522 -0.158,-1.25001 -0.08,-1.39466 0.504,-0.91092 0.381,0.31628 0.646,1.19613 0.588,1.95521 -0.115,1.50997 -0.183,1.60995 -0.614,0.91093 z m 19.917,-0.0113 c -0.381,-0.23552 -0.533,-0.58773 -0.338,-0.78268 0.194,-0.19495 0.606,-0.1022 0.914,0.20611 0.725,0.72596 0.32,1.13116 -0.576,0.57657 z m -58.7,-1.02058 c 0.326,-0.32837 0.713,-0.476 0.861,-0.32806 0.148,0.14793 -0.119,0.4166 -0.592,0.59703 -0.684,0.26075 -0.74,0.20556 -0.269,-0.26897 z m 1.914,0.17974 c -0.104,-0.1982 -0.237,-1.32498 -0.293,-2.50396 -0.06,-1.17898 -0.281,-2.36817 -0.498,-2.64264 -0.226,-0.28645 -0.01,-0.89306 0.506,-1.42395 1.03,-1.05915 1,-1.16152 1.095,3.68767 0.06,2.88271 -0.243,3.95301 -0.81,2.88288 z m 10.494,-0.0875 c -0.583,-0.90666 -0.719,-3.39596 -0.185,-3.39596 0.62,0 0.96,1.18074 0.783,2.72217 -0.118,1.03441 -0.262,1.19644 -0.598,0.67379 z m 71.517,-0.48032 c -0.174,-0.28228 -0.142,-0.53126 0.07,-0.55328 0.214,-0.022 0.884,-0.0947 1.489,-0.16144 0.606,-0.0668 1.19,0.0233 1.3,0.2002 0.109,0.17688 -0.06,0.33188 -0.381,0.34445 -0.318,0.0126 -0.935,0.17145 -1.37,0.35308 -0.436,0.18162 -0.935,0.0993 -1.109,-0.18301 z m -25.889,-1.55094 c -0.288,-1.44329 -0.09,-2.27966 0.419,-1.77011 0.516,0.51638 0.823,3.28829 0.365,3.28829 -0.264,0 -0.617,-0.68318 -0.784,-1.51818 z m -35.467,-0.46365 c -0.46,-0.25758 -0.837,-0.89001 -0.837,-1.40541 0,-0.61676 -0.328,-0.93708 -0.96,-0.93708 -0.528,0 -0.96,-0.21622 -0.96,-0.48048 0,-0.26427 0.605,-0.48048 1.344,-0.48048 1.105,0 1.454,0.30479 1.964,1.71765 0.712,1.969 0.617,2.24039 -0.551,1.5858 z m 8.285,-2.61109 c 0,-0.41199 0.22,-0.61327 0.488,-0.44728 0.268,0.16599 0.364,0.50307 0.212,0.74908 -0.412,0.66645 -0.7,0.54218 -0.7,-0.3018 z m 48.01,0.18852 c 0,-0.22022 -0.268,-0.34635 -0.595,-0.28028 -0.328,0.0661 -0.804,-0.58258 -1.06,-1.44144 -0.255,-0.85886 -0.69,-1.56424 -0.965,-1.56751 -0.609,-0.007 -2.776,-3.17077 -3.23,-4.71645 -0.309,-1.05075 -0.266,-1.07747 0.694,-0.43936 1.046,0.69497 1.902,2.21794 0.897,1.59668 -0.298,-0.18452 -0.542,-0.23948 -0.542,-0.12215 0,0.51575 2.73,1.94227 3.594,1.87836 0.692,-0.0511 0.777,0.0394 0.309,0.32863 -0.458,0.28322 -0.488,0.49602 -0.106,0.73265 0.297,0.18343 0.394,0.56884 0.216,0.85647 -0.21,0.34144 0.04,0.42896 0.712,0.25215 0.569,-0.14895 1.177,-0.0415 1.35,0.23879 0.173,0.28029 0.109,0.38236 -0.143,0.22684 -0.251,-0.15553 -0.771,-0.0808 -1.154,0.166 -0.61,0.39235 -0.61,0.5052 0,0.89755 0.383,0.24683 0.823,0.37081 0.977,0.27552 0.154,-0.0953 0.28,0.20726 0.28,0.67234 0,0.46509 -0.277,0.84561 -0.617,0.84561 -0.339,0 -0.617,-0.18018 -0.617,-0.4004 z m 0.16,-4.55694 c 0,-0.47303 0.162,-0.49864 0.64,-0.10133 0.352,0.29243 0.64,0.57729 0.64,0.63302 0,0.0557 -0.288,0.10132 -0.64,0.10132 -0.352,0 -0.64,-0.28485 -0.64,-0.63301 z m -65.438,-1.09959 c -0.363,-0.68035 -0.336,-1.02529 0.103,-1.27823 0.331,-0.19054 0.447,-0.17523 0.259,0.034 -0.189,0.20925 -0.127,0.78446 0.137,1.27824 0.264,0.49378 0.372,0.89778 0.24,0.89778 -0.132,0 -0.465,-0.41931 -0.739,-0.9318 z m 26.791,0.45519 c -0.1,-0.29517 -0.595,-0.59785 -1.104,-0.67261 -0.943,-0.13848 -1.681,-1.25318 -0.83,-1.25318 0.735,0 2.768,1.80436 2.423,2.15083 -0.17,0.1714 -0.39,0.0701 -0.489,-0.22504 z m 1.443,-2.46425 c 0.137,-1.44143 0.372,-1.87744 0.951,-1.76579 0.503,0.0969 0.782,0.67639 0.806,1.67221 0.02,0.83818 -0.143,1.41277 -0.363,1.27688 -0.22,-0.1359 -0.664,-0.0271 -0.988,0.24183 -0.452,0.37562 -0.546,0.0454 -0.406,-1.42513 z m 29.362,1.47107 c 0,-0.27986 -0.252,-0.3531 -0.559,-0.16274 -0.326,0.20156 -0.998,-0.20366 -1.609,-0.9703 -0.974,-1.22328 -1.105,-1.26032 -1.841,-0.52366 -0.435,0.436 -0.792,0.56868 -0.792,0.29484 0,-0.27385 0.41,-0.71718 0.91,-0.98519 0.675,-0.36127 1.061,-0.30488 1.495,0.21805 0.321,0.38793 0.745,0.60627 0.941,0.48519 0.195,-0.12108 0.857,0.31373 1.469,0.96625 0.613,0.65252 0.86,1.18639 0.55,1.18639 -0.31,0 -0.564,-0.22897 -0.564,-0.50883 z m -59.455,-2.37346 c -0.57,-0.77172 -1.037,-1.92594 -1.037,-2.56494 0,-0.63901 -0.303,-1.41339 -0.673,-1.72085 -0.37,-0.30746 -0.806,-1.09069 -0.969,-1.74051 -0.171,-0.68093 -0.649,-1.18461 -1.128,-1.18885 -0.71,-0.006 -0.726,-0.0736 -0.11,-0.46582 0.578,-0.36854 0.608,-0.63912 0.15,-1.37947 -0.775,-1.25122 -1.384,-6.79601 -0.747,-6.79601 0.268,0 0.626,0.70271 0.795,1.56157 0.458,2.33239 0.602,2.93164 0.895,3.72372 0.147,0.3964 0.652,1.8018 1.122,3.12312 0.471,1.32132 0.975,2.51051 1.121,2.64264 0.145,0.13214 0.324,0.56457 0.398,0.96097 0.134,0.72016 0.811,2.3974 1.593,3.94168 0.725,1.43358 -0.333,1.36057 -1.41,-0.0973 z m 24.105,-0.2311 c -0.405,-1.057 0.04,-1.38582 0.738,-0.5446 0.393,0.47355 0.413,0.78775 0.06,1.00303 -0.278,0.17241 -0.64,-0.0339 -0.803,-0.45843 z m 17.352,-0.24054 c -0.194,-0.3155 -0.138,-0.78986 0.126,-1.05412 0.626,-0.62617 1.123,0.17914 0.617,0.99881 -0.295,0.47785 -0.473,0.49114 -0.743,0.0553 z m -7.567,-0.5284 c -0.462,-0.26936 -0.84,-0.73744 -0.84,-1.04018 0,-0.30273 -0.581,-1.15686 -1.29,-1.89804 -1.156,-1.20707 -1.193,-1.34685 -0.36,-1.34026 1.258,0.01 1.756,0.40517 3.169,2.51261 0.664,0.98959 1.349,1.65626 1.524,1.48148 0.175,-0.17477 0.318,-0.0655 0.318,0.2428 0,0.68476 -1.378,0.7075 -2.521,0.0416 z m -5.123,-0.72227 c 0.02,-0.55973 0.137,-0.67359 0.29,-0.29029 0.139,0.34684 0.122,0.76126 -0.04,0.92092 -0.159,0.15966 -0.273,-0.12413 -0.252,-0.63063 z m 17.899,-0.0536 c 0.372,-0.37221 2.718,-0.51844 2.925,-0.18235 0.107,0.17334 -0.557,0.33522 -1.476,0.35972 -0.919,0.0245 -1.571,-0.0553 -1.449,-0.17737 z m -25.138,-1.34782 c 0,-0.66066 -0.216,-1.2012 -0.48,-1.2012 -0.264,0 -0.479,-0.37838 -0.477,-0.84085 0,-0.63303 0.397,-0.42522 1.593,0.84085 1.704,1.80215 1.778,2.4024 0.296,2.4024 -0.674,0 -0.932,-0.3325 -0.932,-1.2012 z m 36.065,-0.32509 c -0.562,-0.90161 -0.546,-1.12347 0.117,-1.60907 0.424,-0.30979 0.611,-0.73871 0.418,-0.95315 -0.194,-0.21443 -0.08,-0.23435 0.247,-0.0442 0.774,0.44552 0.76,0.54084 -0.218,1.51919 -0.77,0.77092 -0.759,0.80002 0.181,0.50132 0.751,-0.23868 1.061,-0.0761 1.253,0.65733 0.353,1.35107 -1.143,1.29761 -1.998,-0.0714 z m -14.701,-2.31756 c 0.163,-0.26426 0.513,-0.48048 0.777,-0.48048 0.264,0 0.346,0.21622 0.183,0.48048 -0.163,0.26427 -0.513,0.48048 -0.777,0.48048 -0.264,0 -0.346,-0.21621 -0.183,-0.48048 z m 13.063,-0.48048 c 0.139,-0.52852 0.309,-0.96096 0.38,-0.96096 0.07,0 0.241,0.43244 0.379,0.96096 0.157,0.60057 0.01,0.96096 -0.379,0.96096 -0.394,0 -0.536,-0.36039 -0.38,-0.96096 z m -69.966,-0.752 c -0.587,-1.54509 -0.605,-3.09184 -0.03,-3.09184 0.238,0 0.648,0.59459 0.911,1.32132 0.263,0.72673 0.631,1.6997 0.818,2.16216 0.242,0.5965 0.113,0.84084 -0.443,0.84084 -0.431,0 -0.994,-0.55461 -1.251,-1.23248 z m 33.703,0.42977 c 0.09,-0.43963 0.425,-0.88933 0.755,-0.99931 0.883,-0.29415 0.733,1.16784 -0.154,1.50869 -0.527,0.20221 -0.709,0.048 -0.601,-0.50938 z m 5.196,0.35059 c 0,-0.24867 0.18,-0.56348 0.4,-0.69958 0.22,-0.13611 0.4,0.0673 0.4,0.45212 0,0.38477 -0.18,0.69958 -0.4,0.69958 -0.22,0 -0.4,-0.20345 -0.4,-0.45212 z m -33.026,-0.83373 c -0.426,-0.17087 -0.47,-0.43083 -0.14,-0.82823 0.324,-0.39103 0.287,-0.96119 -0.113,-1.75507 -0.327,-0.64674 -0.567,-1.50022 -0.534,-1.89661 0.162,-1.93811 0.223,-2.09674 0.638,-1.65766 0.408,0.43096 1.292,6.5054 0.936,6.42453 -0.09,-0.0209 -0.446,-0.15 -0.787,-0.28696 z m 12.222,-1.43687 c -0.176,-0.17617 -0.32,-0.54374 -0.32,-0.81682 0,-0.30107 0.224,-0.2727 0.568,0.0721 0.313,0.31271 0.457,0.68028 0.32,0.81681 -0.136,0.13654 -0.392,0.10411 -0.568,-0.0721 z m 4.961,-0.54457 c 0,-0.23227 -0.553,-0.67467 -1.23,-0.98312 -0.743,-0.33915 -1.18,-0.89189 -1.105,-1.39844 0.07,-0.4607 -0.155,-1.66293 -0.498,-2.67163 -0.689,-2.02873 -0.569,-2.42034 0.604,-1.96975 0.494,0.18982 0.789,0.85279 0.789,1.77528 0,0.80978 0.378,1.90489 0.84,2.43359 0.496,0.56752 0.564,0.79862 0.166,0.56419 -0.47,-0.27647 -0.564,-0.21837 -0.311,0.19132 0.2,0.32362 0.75,0.7354 1.223,0.91508 0.729,0.27723 0.758,0.42049 0.191,0.94623 -0.368,0.34075 -0.669,0.42951 -0.669,0.19725 z m 3.727,-1.52087 c -0.445,-0.51937 -0.632,-1.05313 -0.417,-1.18613 0.215,-0.133 0.634,0.29194 0.931,0.94432 0.652,1.43305 0.547,1.48245 -0.514,0.24181 z m -9.488,-0.52548 c 0,-0.27986 0.216,-0.37521 0.48,-0.21188 0.264,0.16332 0.48,0.3923 0.48,0.50884 0,0.11653 -0.216,0.21188 -0.48,0.21188 -0.264,0 -0.48,-0.22898 -0.48,-0.50884 z m -0.147,-1.7223 c 0.315,-0.12834 0.457,-0.59776 0.315,-1.04315 -0.214,-0.66938 -0.173,-0.6888 0.235,-0.11201 0.562,0.79373 0.295,1.48262 -0.551,1.42644 -0.441,-0.0292 -0.441,-0.0914 0,-0.27128 z m -0.813,-4.49559 c 0,-0.26426 0.337,-0.48048 0.748,-0.48048 0.412,0 0.615,0.21622 0.452,0.48048 -0.163,0.26427 -0.5,0.48048 -0.748,0.48048 -0.249,0 -0.452,-0.21621 -0.452,-0.48048 z m -22.565,-3.53072 c 0,-0.35631 0.864,-0.98756 1.921,-1.40279 1.183,-0.46535 1.92,-1.06596 1.92,-1.56573 0,-0.50147 0.259,-0.71129 0.679,-0.55 0.374,0.14342 1.724,-0.48704 3.001,-1.40103 2.245,-1.60753 4.242,-1.99908 4.242,-0.83204 0,1.21437 -6.073,4.88024 -7.922,4.78172 -0.66,-0.0352 -1.578,0.31441 -2.04,0.77687 -1.003,1.00322 -1.801,1.08876 -1.801,0.193 z m 17.644,-3.51422 c 0.33,-0.13329 0.87,-0.13329 1.2,0 0.33,0.13329 0.06,0.24235 -0.6,0.24235 -0.66,0 -0.93,-0.10906 -0.6,-0.24235 z m -27.006,-1.60371 c 0.164,-0.26426 0.5,-0.48048 0.749,-0.48048 0.248,0 0.452,0.21622 0.452,0.48048 0,0.26427 -0.337,0.48048 -0.749,0.48048 -0.411,0 -0.615,-0.21621 -0.452,-0.48048 z m -2.831,-0.88088 c -0.136,-0.22022 0.06,-0.4004 0.431,-0.4004 0.373,0 0.567,0.18018 0.431,0.4004 -0.136,0.22022 -0.33,0.4004 -0.431,0.4004 -0.101,0 -0.295,-0.18018 -0.431,-0.4004 z m 14.894,-0.46338 c -0.13,-0.21081 -0.04,-0.69457 0.19,-1.07502 0.322,-0.52159 0.408,-0.42732 0.347,0.3833 -0.09,1.1664 -0.175,1.2782 -0.537,0.69172 z m -1.539,-0.96972 c -0.261,-0.18076 -0.466,-1.36357 -0.458,-2.62847 0,-1.26489 -0.215,-2.45408 -0.499,-2.64264 -0.283,-0.18856 -0.663,-0.74529 -0.845,-1.23717 -0.254,-0.68756 -0.154,-0.82642 0.434,-0.6006 0.421,0.16155 0.855,0.29374 0.966,0.29374 0.11,0 0.201,0.22497 0.201,0.49993 0,0.27497 0.472,1.13901 1.049,1.9201 1.263,1.70975 1.524,3.38186 0.464,2.97485 -0.517,-0.19861 -0.635,-0.0544 -0.418,0.51232 0.34,0.8861 -0.174,1.40808 -0.894,0.90794 z m -5.002,-3.21154 c -0.49,-0.59028 -0.457,-0.72072 0.181,-0.72072 0.428,0 0.779,0.32432 0.779,0.72072 0,0.3964 -0.08,0.72072 -0.182,0.72072 -0.1,0 -0.45,-0.32432 -0.778,-0.72072 z m 15.637,-0.66446 c -0.204,-0.33037 -0.24,-0.73091 -0.08,-0.89008 0.159,-0.15917 -0.07,-0.68532 -0.507,-1.16923 -0.437,-0.48391 -0.594,-0.87983 -0.348,-0.87983 0.873,0 1.939,1.73657 1.623,2.64045 -0.231,0.65675 -0.416,0.73733 -0.687,0.29869 z m 4.421,-2.47982 c -0.118,-0.80443 -0.03,-1.57394 0.186,-1.71004 0.22,-0.13609 0.417,-0.0725 0.439,0.14128 0.209,2.08281 0.181,3.03136 -0.09,3.03136 -0.177,0 -0.418,-0.65817 -0.536,-1.4626 z m -6.129,-1.61934 c 0.311,-0.31117 0.636,-0.31117 0.947,0 0.311,0.31117 0.148,0.47361 -0.474,0.47361 -0.621,0 -0.784,-0.16244 -0.473,-0.47361 z m -0.747,-1.27476 c -0.254,-0.41189 -0.171,-0.47482 0.268,-0.20329 0.478,0.29568 0.549,0.16502 0.285,-0.52636 -0.28,-0.73774 -0.23,-0.80085 0.255,-0.31906 0.435,0.43249 0.458,0.74681 0.08,1.12295 -0.376,0.37614 -0.626,0.35536 -0.891,-0.0742 z m -18.464,-2.45668 c -0.924,-0.26425 -1.95,-0.70366 -2.28,-0.97646 -0.437,-0.3613 -0.6,-0.2843 -0.6,0.28356 0,1.15727 -0.804,0.94392 -1.137,-0.30153 -0.169,-0.63314 -0.03,-1.28017 0.334,-1.56156 0.569,-0.43933 1.067,-1.36948 1.222,-2.28228 0.104,-0.61658 2.047,-2.37657 2.321,-2.10267 0.143,0.14283 1.119,-0.1793 2.17,-0.71586 2.113,-1.0788 6.016,-1.03771 7.359,0.0775 1.17,0.97191 0.145,1.40403 -1.976,0.83333 -1.072,-0.28845 -2.57,-0.36849 -3.329,-0.17787 l -1.38,0.34659 1.409,1.12534 c 1.305,1.04227 1.367,1.23502 0.85,2.61124 -0.437,1.16201 -0.429,1.48591 0.04,1.48591 0.69,0 2.318,-1.68867 3.109,-3.22535 0.335,-0.64882 0.826,-0.9565 1.261,-0.78944 1.162,0.44626 0.837,1.25929 -1.465,3.66282 -1.948,2.03458 -2.39,2.26933 -4.2,2.23056 -1.114,-0.0238 -2.78,-0.25954 -3.705,-0.5238 z m -0.333,-2.82369 c 0.211,-0.80762 0.134,-0.88555 -0.419,-0.42604 -0.373,0.30931 -0.559,0.7541 -0.414,0.98842 0.392,0.6343 0.548,0.529 0.833,-0.56238 z m 14.736,-11.50407 c 0,-0.26427 0.216,-0.48048 0.48,-0.48048 0.265,0 0.481,0.21621 0.481,0.48048 0,0.26426 -0.216,0.48048 -0.481,0.48048 -0.264,0 -0.48,-0.21622 -0.48,-0.48048 z m 0.256,-1.56157 c -0.465,-1.43525 -0.485,-4.68522 -0.03,-4.69204 0.328,-0.005 0.324,-0.12545 -0.01,-0.36036 -0.782,-0.54866 -0.74,-2.51516 0.05,-2.51516 0.441,0 0.723,0.56535 0.78,1.56156 0.239,4.16209 0.223,4.73194 -0.139,4.95559 -0.214,0.13219 -0.267,0.55775 -0.118,0.94568 0.149,0.38794 0.132,0.70534 -0.04,0.70534 -0.169,0 -0.394,-0.27027 -0.501,-0.60061 z m -4.737,-8.84884 c -0.176,-0.17618 -0.32,-0.54375 -0.32,-0.81682 0,-0.30107 0.224,-0.2727 0.569,0.0721 0.312,0.31271 0.456,0.68028 0.32,0.81682 -0.137,0.13653 -0.392,0.1041 -0.569,-0.0721 z m 7.171,-20.26026 c -0.136,-0.22022 0.06,-0.4004 0.431,-0.4004 0.373,0 0.567,0.18018 0.431,0.4004 -0.136,0.22022 -0.33,0.4004 -0.431,0.4004 -0.101,0 -0.295,-0.18018 -0.431,-0.4004 z m 85.288,164.09576 c 0.726,-0.0144 1.32,-0.20315 1.32,-0.41936 0,-0.21622 0.324,-0.39312 0.72,-0.39312 0.396,0 0.666,0.26339 0.6,0.58532 -0.137,0.67281 3.142,0.55466 3.392,-0.12218 0.08,-0.22504 0.421,-0.30564 0.75,-0.17911 0.33,0.12653 0.896,-0.32561 1.26,-1.00475 0.377,-0.7061 0.937,-1.12822 1.308,-0.98586 0.357,0.13691 0.771,-0.0705 0.92,-0.46093 0.15,-0.39042 0.412,-0.63084 0.582,-0.53426 0.171,0.0966 0.846,-0.33709 1.5,-0.96372 0.861,-0.82372 0.987,-1.13932 0.456,-1.13932 -1.144,0 -3.318,1.14106 -3.322,1.74351 0,0.29827 -0.645,0.80802 -1.429,1.13278 -0.783,0.32475 -1.674,0.89152 -1.979,1.25949 -0.7,0.84398 -2.082,0.85543 -3.454,0.0286 -0.585,-0.35222 -1.28,-0.60935 -1.544,-0.57141 -1.251,0.17985 -4.081,1.70487 -4.081,2.19966 0,0.34397 0.321,0.42172 0.841,0.20363 0.462,-0.19402 1.434,-0.36457 2.16,-0.379 z m 10.922,-1.10413 c 0,-0.10386 -0.324,-0.18883 -0.72,-0.18883 -0.396,0 -0.72,0.20943 -0.72,0.4654 0,0.25597 0.324,0.34094 0.72,0.18883 0.396,-0.15211 0.72,-0.36154 0.72,-0.4654 z m 2.881,-0.66931 c 0,-0.26427 0,-0.58859 0,-0.72072 0,-0.67332 -0.646,-0.36386 -0.752,0.36036 -0.07,0.46246 0.07,0.84084 0.314,0.84084 0.241,0 0.438,-0.21622 0.438,-0.48048 z m 1.577,-1.29541 c -0.192,-0.50151 -0.11,-0.66633 0.228,-0.45726 0.731,0.45221 1.106,-0.3058 0.571,-1.15316 -0.33,-0.52124 -0.443,-0.53865 -0.449,-0.0688 0,0.34593 -0.184,0.51962 -0.4,0.38599 -0.216,-0.13362 -0.393,0.38262 -0.393,1.14721 0,0.7646 0.168,1.28668 0.372,1.16018 0.205,-0.12649 0.237,-0.58286 0.07,-1.01414 z m -9.92,-0.36799 c 0.149,-0.38633 0.682,-0.83333 1.186,-0.99333 1.101,-0.34979 1.219,-1.18712 0.167,-1.18712 -0.441,0 -0.624,0.24686 -0.445,0.6006 0.168,0.33033 -0.04,0.1809 -0.451,-0.33207 -0.669,-0.82494 -0.967,-0.71507 -0.823,0.30259 0.03,0.18199 -0.376,0.24933 -0.893,0.14966 -0.517,-0.0997 -1.066,0.0217 -1.219,0.26972 -0.153,0.24802 -0.05,0.45094 0.23,0.45094 0.28,0 0.483,0.16217 0.452,0.36036 -0.197,1.24901 1.339,1.5727 1.796,0.37865 z m 13.144,-2.489 c 0,-0.54049 -0.207,-0.57547 -0.974,-0.16473 -0.535,0.28682 -0.853,0.71742 -0.705,0.95689 0.388,0.628 1.679,0.0189 1.679,-0.79216 z m -6.242,-1.13289 c 0.562,-0.36295 0.429,-0.46739 -0.6,-0.47312 -0.726,-0.004 -1.32,0.20886 -1.32,0.47312 0,0.60752 0.981,0.60752 1.92,0 z m 5.839,-2.32577 c -0.461,-0.11737 -0.326,-0.5093 0.48,-1.38653 1.071,-1.16622 1.075,-1.19809 0.09,-0.68727 -1.313,0.68272 -4.971,3.95748 -4.971,4.44973 0,0.20515 1.134,-0.2087 2.52,-0.91966 1.386,-0.71097 2.231,-1.36629 1.878,-1.45627 z m -8.99,-3.78672 c 0.774,-0.23451 1.495,-0.68502 1.6,-1.00112 0.111,-0.33238 -0.09,-0.46502 -0.486,-0.31455 -0.373,0.14309 -1.255,0.0405 -1.961,-0.22802 -0.82,-0.31211 -1.283,-0.31919 -1.283,-0.0196 0,0.25772 -0.324,0.46858 -0.72,0.46858 -0.396,0 -0.72,0.25226 -0.72,0.56056 0,0.30831 -0.139,0.42165 -0.308,0.25186 -0.17,-0.16979 -0.03,-0.64321 0.308,-1.05204 0.519,-0.62613 0.492,-0.69561 -0.172,-0.44069 -0.433,0.16645 -0.788,0.58582 -0.788,0.93192 0,0.3461 -0.594,0.85298 -1.32,1.12639 -1.097,0.41298 -0.833,0.46716 1.56,0.32011 1.584,-0.0974 3.515,-0.36888 4.29,-0.60339 z m 11.913,-1.41293 c -0.33,-0.13329 -0.6,-0.5919 -0.6,-1.01912 0,-0.61864 -0.121,-0.65532 -0.596,-0.1802 -0.475,0.47513 -0.45,0.68884 0.12,1.0497 0.394,0.24922 0.932,0.43936 1.196,0.42254 0.264,-0.0168 0.21,-0.13963 -0.12,-0.27292 z m -17.403,-2.51816 c 0,-0.4441 -0.638,-1.03763 -1.441,-1.34087 -1.673,-0.63207 -1.692,-0.58473 -0.66,1.59172 0.621,1.31045 0.913,1.53247 1.44,1.09486 0.363,-0.30191 0.661,-0.90748 0.661,-1.34571 z m 9.396,0.94973 c 0,-0.50913 -0.17,-0.82069 -0.377,-0.69237 -0.208,0.12833 -0.378,0.54489 -0.378,0.92569 0,0.3808 0.17,0.69236 0.378,0.69236 0.207,0 0.377,-0.41656 0.377,-0.92568 z m -53.071,-0.489 c -0.755,-1.41198 -1.445,-1.64337 -0.809,-0.27134 0.305,0.65893 0.725,1.19973 0.932,1.20179 0.207,0.002 0.152,-0.41664 -0.123,-0.93045 z m 47.918,-0.1083 c 0.52,-0.68268 0.482,-0.78328 -0.256,-0.67492 -0.477,0.07 -0.813,0.2689 -0.747,0.4419 0.07,0.17301 0.12,0.56681 0.12,0.87512 0,0.30831 0.06,0.47047 0.136,0.36036 0.08,-0.11011 0.411,-0.56122 0.747,-1.00246 z m 13.76,0.0815 c 0.163,-0.26426 -0.05,-0.48048 -0.48,-0.48048 -0.427,0 -0.643,0.21622 -0.48,0.48048 0.163,0.26427 0.379,0.48048 0.48,0.48048 0.101,0 0.317,-0.21621 0.48,-0.48048 z m -11.139,-0.64064 c 0.135,-0.35235 -0.04,-0.64064 -0.383,-0.64064 -0.346,0 -0.518,0.28829 -0.383,0.64064 0.135,0.35235 0.307,0.64064 0.383,0.64064 0.08,0 0.248,-0.28829 0.383,-0.64064 z m 4.431,-0.22753 c -0.148,-0.14793 -0.536,-3e-4 -0.861,0.32807 -0.471,0.47453 -0.416,0.52972 0.269,0.26897 0.473,-0.18044 0.739,-0.4491 0.592,-0.59704 z m -1.513,-2.35824 c -0.752,-0.55017 -0.585,-0.82871 0.406,-0.67887 0.191,0.0288 0.129,-0.52135 -0.138,-1.22254 -0.584,-1.53876 0.1,-2.54319 1.136,-1.67881 0.365,0.30363 0.801,0.415 0.969,0.24751 0.167,-0.1675 0.668,-0.003 1.114,0.36453 0.629,0.5196 0.855,0.5349 1.012,0.0685 0.334,-0.99528 1.079,-0.67578 1.12,0.48048 0.03,0.71941 0.131,0.84284 0.317,0.36894 0.373,-0.95016 1.392,-1.9439 1.689,-1.64666 0.131,0.13094 0.345,-0.0415 0.476,-0.38324 0.41,-1.06825 -7.716,-0.68629 -9.859,0.46345 -1.244,0.66707 -1.59,1.07877 -1.218,1.45047 0.371,0.37169 0.767,0.36347 1.395,-0.029 0.904,-0.56475 1.979,-0.0742 1.147,0.52285 -0.257,0.18383 -0.514,1.17228 -0.571,2.19655 -0.104,1.84411 -0.09,1.85367 0.872,0.9778 0.923,-0.83632 0.93,-0.91817 0.133,-1.50196 z m 10.656,-0.55031 c 0.146,-0.69758 0.358,-1.73007 0.471,-2.29443 0.225,-1.12351 -0.742,-2.23943 -1.482,-1.70917 -0.255,0.18308 -0.519,1.5698 -0.586,3.08161 -0.102,2.28796 0,2.70193 0.604,2.46952 0.4,-0.15356 0.847,-0.84995 0.993,-1.54753 z m -14.022,0.65636 c -0.152,-0.39488 -0.492,-0.58407 -0.757,-0.42042 -0.296,0.18295 -0.23,0.45661 0.171,0.7106 0.874,0.55434 0.904,0.5395 0.586,-0.29018 z m -6.228,-2.41602 c 0.32,-0.43764 1.003,-0.72234 1.517,-0.63267 0.709,0.12352 0.895,-0.0699 0.77,-0.79792 -0.09,-0.52852 0,-0.80216 0.192,-0.60806 0.197,0.19409 0.602,0.0199 0.899,-0.38718 0.297,-0.40704 0.859,-0.80345 1.248,-0.88092 1.746,-0.34789 2.409,-0.90215 2.13,-1.78132 -0.213,-0.67014 -0.1,-0.82905 0.446,-0.62013 0.505,0.19406 0.829,-0.1079 1.046,-0.97666 0.174,-0.69166 0.704,-1.46563 1.179,-1.71994 0.475,-0.25432 0.808,-0.84321 0.739,-1.30865 -0.07,-0.46545 -0.273,-0.73816 -0.456,-0.60602 -0.182,0.13213 -0.522,-0.0681 -0.754,-0.44486 -0.342,-0.55286 -0.779,-0.37218 -2.263,0.93604 -1.012,0.89163 -1.768,1.84857 -1.68,2.12654 0.09,0.27797 0,0.34427 -0.198,0.14734 -0.197,-0.19694 -1.116,0.22067 -2.043,0.92801 -0.926,0.70735 -1.498,0.97658 -1.27,0.5983 0.34,-0.5649 0.283,-0.58169 -0.319,-0.094 -0.403,0.32657 -2.011,0.8879 -3.573,1.24739 l -2.839,0.65361 0.04,1.96965 c 0.02,1.0833 0.3,2.2835 0.618,2.6671 0.759,0.91501 3.802,0.63834 4.572,-0.41565 z m 5.333,-4.55371 c 0.163,-0.26426 0.392,-0.48048 0.508,-0.48048 0.117,0 0.212,0.21622 0.212,0.48048 0,0.26427 -0.229,0.48048 -0.508,0.48048 -0.28,0 -0.375,-0.21621 -0.212,-0.48048 z m -94.187,-3.30204 c 0.632,-0.0444 0.792,-0.3153 0.581,-0.98185 -0.161,-0.50629 -0.06,-1.06608 0.231,-1.24397 0.777,-0.48034 -0.376,-1.69068 -1.279,-1.34368 -0.546,0.20965 -0.58,0.36886 -0.135,0.64367 0.324,0.20082 0.452,0.72497 0.283,1.16479 -0.168,0.43981 -0.524,0.66509 -0.79,0.50061 -0.266,-0.16447 -0.483,-0.0573 -0.483,0.23815 0,0.29545 -0.194,0.41756 -0.43,0.27135 -0.237,-0.14621 -0.542,0.0268 -0.679,0.38456 -0.169,0.44017 0.09,0.6144 0.79,0.53904 0.571,-0.0612 1.431,-0.13895 1.911,-0.17267 z m 5.129,-3.63932 c 0,-0.80038 -1.053,-0.70502 -2.135,0.19328 -0.603,0.50113 -0.649,0.74496 -0.194,1.0265 0.761,0.47044 2.329,-0.351 2.329,-1.21978 z m -2.4,-1.70729 c 0.431,-0.80652 0.365,-0.96096 -0.412,-0.96096 -0.926,0 -1.698,1.09235 -1.156,1.63471 0.524,0.52382 1.048,0.29862 1.568,-0.67375 z m 2.4,0 c 0,-0.26426 -0.1,-0.48048 -0.212,-0.48048 -0.116,0 -0.345,0.21622 -0.508,0.48048 -0.163,0.26427 -0.07,0.48048 0.212,0.48048 0.279,0 0.508,-0.21621 0.508,-0.48048 z m -0.441,-1.92192 c 0.243,0 0.441,-0.31754 0.441,-0.70564 0,-0.3881 -0.27,-0.64702 -0.6,-0.57537 -0.33,0.0716 -0.133,-0.0784 0.438,-0.33348 0.908,-0.40515 2.082,-2.1396 2.082,-3.07474 0,-0.17583 -1.07,0.73557 -2.379,2.02533 -2.227,2.19595 -2.754,3.55906 -1.134,2.9369 0.391,-0.15015 0.91,-0.273 1.152,-0.273 z m 4.527,-5.75793 c -0.138,-0.22343 -0.09,-0.49678 0.112,-0.60744 0.2,-0.11066 0.147,-0.16526 -0.117,-0.12134 -0.264,0.0439 -0.555,0.46592 -0.646,0.93778 -0.104,0.53401 0.03,0.73321 0.367,0.52759 0.294,-0.18169 0.422,-0.51315 0.284,-0.73659 z m 2.687,-4.49884 c 0.537,-1.0166 0.89,-1.93409 0.785,-2.03886 -0.324,-0.32415 -2.757,3.68594 -2.75,4.53094 0,0.69336 0.07,0.70344 0.499,0.077 0.27,-0.39639 0.93,-1.55248 1.466,-2.56908 z m 14.831,-2.42456 c 0,-0.10385 -0.335,-0.31759 -0.745,-0.47497 -0.427,-0.16408 -0.62,-0.0835 -0.452,0.18883 0.282,0.45656 1.197,0.67529 1.197,0.28614 z m -2.526,-2.06484 c -0.446,-0.44674 -0.972,-0.6512 -1.169,-0.45436 -0.197,0.19684 -0.04,0.55904 0.349,0.80488 1.168,0.73979 1.688,0.51789 0.82,-0.35052 z m -9.293,-0.41392 c 0.164,-0.42759 0.08,-0.62045 -0.189,-0.45212 -0.261,0.16145 -0.474,0.497 -0.474,0.74567 0,0.69114 0.344,0.53884 0.663,-0.29355 z m -19.307,-10.06513 c 0.1,-0.59839 -0.107,-0.96096 -0.547,-0.96096 -0.611,0 -0.803,0.8786 -0.546,2.49849 0.1,0.61241 0.93,-0.55931 1.093,-1.53753 z m -4.401,-6.24625 c 0,-0.66066 -0.216,-1.2012 -0.48,-1.2012 -0.264,0 -0.48,0.54054 -0.48,1.2012 0,0.66066 0.216,1.2012 0.48,1.2012 0.264,0 0.48,-0.54054 0.48,-1.2012 z m -0.125,-4.92492 c 0.646,-2.74949 0.623,-3.96429 -0.08,-3.96301 -0.286,5.2e-4 -0.565,0.70322 -0.62,1.56156 -0.06,0.85833 -0.226,2.26331 -0.382,3.12217 -0.441,2.44396 0.478,1.82868 1.077,-0.72072 z m -1.795,-0.0918 c 0,-0.24867 -0.216,-0.58575 -0.48,-0.74908 -0.264,-0.16332 -0.48,0.0401 -0.48,0.45213 0,0.41199 0.216,0.74908 0.48,0.74908 0.264,0 0.48,-0.20346 0.48,-0.45213 z m 4.313,-3.03136 c 0,-0.84406 -0.104,-0.9281 -0.448,-0.3833 -0.243,0.38378 -0.335,0.87027 -0.204,1.08108 0.416,0.67432 0.66,0.41359 0.652,-0.69778 z m -2.033,-2.4024 c -0.11,-0.33033 -0.38,-0.6006 -0.6,-0.6006 -0.22,0 -0.49,0.27027 -0.6,0.6006 -0.11,0.33033 0.16,0.6006 0.6,0.6006 0.44,0 0.71,-0.27027 0.6,-0.6006 z m -3.703,-2.45694 c -0.649,-0.64925 -0.02,-1.74726 0.994,-1.74726 0.627,0 0.904,-0.33531 0.894,-1.08109 -0.01,-1.00108 -0.06,-1.01886 -0.653,-0.24024 -0.655,0.86334 -1.297,1.12121 -1.196,0.48048 0.142,-0.89639 -0.09,-1.5964 -0.457,-1.3705 -0.22,0.13627 -0.436,1.14136 -0.478,2.23353 -0.04,1.09217 -0.188,2.16416 -0.323,2.38219 -0.373,0.60409 0.912,0.89082 1.302,0.29036 0.187,-0.2885 0.15,-0.71486 -0.08,-0.94747 z m 4.784,-5.13898 c 0,-0.24867 -0.217,-0.45213 -0.481,-0.45213 -0.264,0 -0.48,0.33709 -0.48,0.74908 0,0.41199 0.216,0.61545 0.48,0.45212 0.264,-0.16332 0.481,-0.50041 0.481,-0.74907 z m -1.766,-0.81249 c 0.117,-0.1982 0.368,-1.11712 0.559,-2.04204 0.284,-1.37582 0.233,-1.57245 -0.279,-1.08108 -0.766,0.73434 -1.395,0.77569 -1.395,0.0918 0,-0.27986 0.216,-0.37521 0.48,-0.21188 0.264,0.16332 0.48,-0.0401 0.48,-0.45213 0,-0.54658 -0.487,-0.74708 -1.8,-0.74172 -1.282,0.005 -1.6,0.1345 -1.103,0.44878 0.383,0.24278 0.923,0.33155 1.2,0.19725 0.277,-0.13429 0.141,0.0538 -0.3,0.41792 -0.751,0.61892 -0.751,0.69625 0,1.18612 0.676,0.44101 0.707,0.6843 0.199,1.53571 -0.548,0.9178 -0.495,1.01167 0.571,1.01167 0.647,0 1.272,-0.16216 1.388,-0.36036 z m 17.704,-48.10241 c 0.326,0.46428 0.398,0.27027 0.249,-0.66636 -0.116,-0.72672 0,-1.32132 0.258,-1.32132 0.259,0 0.369,-0.52971 0.245,-1.17713 -0.134,-0.70195 0.03,-1.27394 0.4,-1.41697 0.422,-0.16227 0.525,0.0242 0.319,0.57653 -0.262,0.69969 -0.195,0.7261 0.471,0.18479 0.427,-0.34738 0.699,-1.03297 0.605,-1.52355 -0.1,-0.49059 0.133,-1.009 0.505,-1.15203 0.377,-0.14475 0.552,-0.58771 0.394,-0.99898 -0.183,-0.47598 0,-0.7389 0.488,-0.7389 0.424,0 0.772,-0.1941 0.772,-0.43133 0,-0.63827 -3.591,-0.28458 -3.661,0.36061 -0.03,0.30316 -0.09,0.78017 -0.12,1.06003 -0.03,0.27986 -0.299,0.36094 -0.591,0.18018 -0.293,-0.18076 -0.344,-0.46379 -0.114,-0.62895 0.229,-0.16517 -0.07,-0.77906 -0.669,-1.36422 -0.828,-0.81076 -1.087,-0.88975 -1.087,-0.332 0,0.40255 -0.201,0.60751 -0.447,0.45547 -0.817,-0.5057 -0.973,0.54489 -0.218,1.47026 0.651,0.79765 0.711,0.8065 0.48,0.0708 -0.146,-0.46247 -0.07,-0.84084 0.172,-0.84084 0.975,0 0.888,0.91136 -0.21,2.18964 -0.639,0.74471 -1.018,1.58372 -0.841,1.86447 0.176,0.28075 0.258,0.88883 0.182,1.35129 -0.08,0.46246 0.104,0.84084 0.4,0.84084 0.297,0 0.42,-0.19356 0.273,-0.43013 -0.146,-0.23657 0.03,-0.54193 0.382,-0.67857 0.487,-0.18726 0.622,0.24406 0.545,1.75145 -0.06,1.09994 0,1.70516 0.128,1.34493 0.195,-0.55297 0.302,-0.55297 0.69,0 z m -2.998,-6.35315 c -0.295,-0.55117 -0.653,-0.88481 -0.796,-0.74145 -0.396,0.39604 0.238,1.74356 0.82,1.74356 0.355,0 0.348,-0.30725 -0.02,-1.00211 z m 6.152,-3.8027 c 0.33,-0.52852 0.868,-0.95438 1.196,-0.94635 0.327,0.008 0.218,0.235 -0.244,0.50436 -1.111,0.64725 -1.078,1.37508 0.05,1.0803 1.276,-0.3338 2.676,-3.41713 1.95,-4.29288 -0.437,-0.52702 -0.386,-0.66975 0.243,-0.66975 0.866,0 0.889,-0.20821 0.878,-7.76522 0,-2.78472 -0.252,-4.65529 -0.75,-5.65374 -0.409,-0.82066 -0.545,-1.36941 -0.303,-1.21943 0.263,0.16275 0.276,-0.17298 0.03,-0.83275 -0.224,-0.60799 -0.707,-1.11033 -1.073,-1.11631 -0.476,-0.008 -0.639,-0.59316 -0.573,-2.05306 0.05,-1.1232 -0.09,-1.93155 -0.306,-1.79633 -0.219,0.13522 -0.515,-0.2059 -0.66,-0.75805 -0.167,-0.63834 -0.476,-0.87178 -0.849,-0.64108 -0.385,0.23863 -0.463,0.16258 -0.225,-0.22217 0.202,-0.32779 0,-0.98585 -0.463,-1.49673 -0.537,-0.59357 -0.75,-1.42134 -0.61,-2.37212 0.301,-2.053 -0.651,-1.86244 -2.253,0.45097 -0.871,1.2577 -1.247,2.31319 -1.099,3.08635 0.166,0.87192 -0.02,1.23808 -0.711,1.41965 -0.514,0.13457 -0.798,0.46601 -0.631,0.73652 0.167,0.27051 0.575,0.38786 0.905,0.26079 0.756,-0.29005 2.851,1.60901 2.465,2.2339 -0.157,0.25419 -0.695,-0.029 -1.195,-0.62924 -0.799,-0.9587 -0.912,-0.98572 -0.926,-0.22221 0,0.47806 0.2,0.73557 0.464,0.57224 0.264,-0.16332 0.48,0.0401 0.48,0.45213 0,0.41199 0.337,0.74907 0.749,0.74907 0.412,0 0.624,0.20128 0.472,0.44728 -0.152,0.24601 -0.07,0.57611 0.187,0.73356 0.258,0.15943 0.38,-0.1452 0.275,-0.68752 -0.149,-0.77372 0.07,-0.9738 1.044,-0.9738 1.041,0 1.139,-0.11194 0.634,-0.72072 -0.329,-0.39639 -0.517,-0.73726 -0.419,-0.75748 0.1,-0.0202 0.503,-0.10126 0.899,-0.1801 0.478,-0.0952 0.72,0.24007 0.72,0.99773 0,0.62758 -0.143,1.14105 -0.317,1.14105 -0.399,0 -0.26,1.00239 0.253,1.82481 0.214,0.34299 0.269,0.93758 0.122,1.32133 -0.147,0.38374 -0.07,0.69771 0.182,0.69771 0.248,0 0.338,0.29424 0.2,0.65388 -0.138,0.35963 -0.726,0.6236 -1.306,0.58658 -1.326,-0.0847 -1.691,0.42075 -1.4,1.94159 0.162,0.85059 0.454,1.11991 1.007,0.92872 0.646,-0.22332 0.636,-0.15752 -0.06,0.38546 -1.181,0.92032 -1.045,1.32544 0.36,1.07051 0.86,-0.15595 1.2,-0.005 1.2,0.52991 0,0.59094 -0.142,0.62917 -0.68,0.18233 -0.561,-0.46602 -0.657,-0.34861 -0.546,0.66793 0.08,0.7346 -0.09,1.18232 -0.413,1.10718 -0.704,-0.16177 -0.858,0.50096 -0.497,2.14393 0.273,1.24395 0.342,1.27312 1.39,0.58585 1.102,-0.72268 1.103,-0.72166 0.749,1.21338 -0.205,1.12104 -0.167,1.93668 0.09,1.93668 0.244,0 0.302,0.2306 0.128,0.51245 -0.486,0.78625 -0.947,-0.0575 -1.144,-2.09295 -0.07,-0.70511 -1.335,0.82789 -1.286,1.55605 0.03,0.39709 -0.275,0.73242 -0.671,0.74517 -0.396,0.0127 -0.687,0.41427 -0.647,0.89227 0.07,0.79182 -0.02,0.78011 -0.991,-0.13171 -0.586,-0.55044 -1.267,-0.99749 -1.514,-0.99344 -0.247,0.004 -0.125,0.21695 0.271,0.47312 0.64,0.41402 0.64,0.46694 0,0.47629 -0.407,0.006 -0.1,0.41995 0.711,0.95416 0.924,0.60998 1.595,0.77875 1.896,0.47731 0.612,-0.61289 1.375,-0.60203 0.994,0.0142 -0.32,0.51857 0.08,1.44144 0.633,1.44144 0.185,0 0.606,-0.43243 0.936,-0.96096 z m -2.95,-5.22697 c 0.03,-0.69273 -0.04,-0.98789 -0.161,-0.65592 -0.121,0.33198 -0.451,0.46073 -0.734,0.28612 -0.282,-0.17461 -0.386,-0.11158 -0.23,0.14007 0.155,0.25165 0.08,0.77154 -0.159,1.15532 -0.342,0.54112 -0.443,0.44736 -0.448,-0.41762 0,-1.11858 0.775,-2.2419 1.673,-2.4024 0.264,-0.0472 0.563,-0.33647 0.665,-0.64285 0.115,-0.34289 -0.116,-0.44105 -0.6,-0.25532 -0.905,0.34764 -1.037,-0.18514 -0.243,-0.98016 0.404,-0.40405 0.312,-0.49967 -0.36,-0.3731 -0.496,0.0936 -1.08,0.18672 -1.297,0.20694 -0.217,0.0202 -0.04,0.3882 0.386,0.81774 0.72,0.72097 0.706,0.85043 -0.189,1.68512 -0.951,0.88595 -0.928,1.86062 0.07,3.15926 0.637,0.82624 1.549,-0.14146 1.623,-1.7232 z m -19.689,-7.26552 c 0.154,-0.92492 0.379,-1.84137 0.498,-2.03654 0.12,-0.19517 -0.101,-0.2325 -0.49,-0.083 -0.934,0.35866 -1.089,0.89783 -1.162,4.04143 -0.05,2.33693 0,2.47589 0.406,1.2012 0.257,-0.79279 0.593,-2.19819 0.748,-3.12312 z m 19.088,-0.33167 c -0.05,-1.00677 -0.11,-2.06472 -0.134,-2.35101 -0.02,-0.28629 -0.365,-0.52052 -0.757,-0.52052 -0.576,0 -0.599,0.1373 -0.12,0.7193 0.515,0.62546 0.452,0.64415 -0.488,0.14326 -1.296,-0.69139 -1.307,-0.5907 -0.257,2.36942 0.956,2.69203 1.898,2.4986 1.756,-0.36045 z m -16.022,-6.98854 v -1.55445 l -0.96,1.79295 c -0.528,0.98612 -0.96,2.11805 -0.96,2.51541 0,0.56346 0.211,0.51097 0.96,-0.2385 0.565,-0.56492 0.96,-1.6016 0.96,-2.51541 z m 13.916,1.67457 c 0,-1.14853 -0.153,-1.57278 -0.408,-1.17014 -0.37,0.58491 -0.185,2.97194 0.231,2.97194 0.101,0 0.181,-0.81081 0.177,-1.8018 z m 5.444,1.48565 c 0.437,-0.43757 -0.604,-1.60577 -1.432,-1.60577 -0.529,0 -0.565,0.21078 -0.164,0.96096 0.529,0.98929 1.044,1.19735 1.596,0.64481 z m -6.397,-5.47797 c 0,-1.00243 -0.706,-1.25199 -1.214,-0.42912 -0.436,0.70521 0.144,2.0234 0.731,1.66077 0.265,-0.16448 0.483,-0.71872 0.483,-1.23165 z m -33.342,178.80723 c -0.149,-0.24218 -0.407,-1.70164 -0.572,-3.24324 -0.165,-1.5416 -0.454,-3.23534 -0.642,-3.76387 -0.189,-0.52853 -0.393,-2.36091 -0.455,-4.07197 -0.06,-1.71105 -0.241,-3.31792 -0.397,-3.57081 -0.474,-0.76872 -0.536,-5.08995 -0.07,-5.08995 0.445,0 0.479,0.1339 0.698,2.71255 0.07,0.83124 0.346,1.91897 0.612,2.41717 0.266,0.49821 0.639,2.47155 0.827,4.3852 0.188,1.91366 0.5,3.57658 0.692,3.69539 0.54,0.33391 0.588,6.96987 0.05,6.96987 -0.258,0 -0.591,-0.19815 -0.741,-0.44034 z m 6.181,-4.24435 c 0.186,-1.51952 0.405,-3.3033 0.486,-3.96396 0.255,-2.06466 1.223,-4.04336 1.73,-3.53596 0.298,0.29883 0.121,2.07023 -0.498,4.96927 -0.529,2.4777 -0.962,4.68232 -0.962,4.89916 0,0.21684 -0.247,0.39426 -0.548,0.39426 -0.385,0 -0.447,-0.81711 -0.208,-2.76277 z m 13.024,0.48048 c 0.167,-2.96792 1.183,-8.44933 1.791,-9.66918 0.313,-0.62737 0.573,-1.47362 0.577,-1.88056 0,-0.40695 0.307,-0.84079 0.675,-0.96409 0.716,-0.24026 0.738,-0.41763 -0.62,4.92528 -0.401,1.57403 -0.861,4.16052 -1.023,5.74773 -0.162,1.58722 -0.4,3.05612 -0.529,3.26424 -0.558,0.90464 -0.964,0.24132 -0.871,-1.42342 z m -16.623,0.81682 c -0.255,-1.63251 -0.16,-6.22222 0.129,-6.22222 0.212,0 0.385,-0.86487 0.385,-1.92192 0,-1.05706 0.205,-1.92192 0.456,-1.92192 0.572,0 0.1,9.18517 -0.505,9.82582 -0.237,0.25105 -0.446,0.35916 -0.465,0.24024 z m 53.645,-1.25726 c -0.558,-0.55777 -0.346,-1.1922 0.28,-0.83874 0.462,0.26113 0.47,0.19895 0.04,-0.27044 -0.309,-0.33523 -0.435,-0.94296 -0.278,-1.35051 0.174,-0.45448 0.08,-0.61818 -0.23,-0.42338 -0.348,0.21531 -0.481,-0.68789 -0.412,-2.80406 0.06,-1.71692 -0.06,-3.12167 -0.26,-3.12167 -0.199,0 -0.32,-1.0803 -0.269,-2.40066 0.05,-1.32035 0.257,-2.40144 0.459,-2.4024 0.202,-9.6e-4 0.339,-0.59634 0.303,-1.32307 -0.169,-3.46081 0.803,-9.72973 1.509,-9.72973 0.897,0 1.47,5.96123 0.694,7.21793 -0.319,0.51709 -0.895,5.07162 -0.843,6.67108 0.02,0.63595 0.387,1.35194 0.814,1.59109 0.427,0.23915 0.675,0.59925 0.551,0.80022 -0.124,0.20098 -0.272,1.32282 -0.328,2.493 -0.06,1.17017 -0.23,2.3438 -0.385,2.60806 -0.155,0.26427 -0.309,0.91291 -0.342,1.44144 -0.117,1.90475 -0.186,2.16216 -0.58,2.16216 -0.22,0 -0.544,-0.14414 -0.72,-0.32032 z m 96.179,-3.90513 c 0,-0.25393 0.349,-0.75155 0.775,-1.10582 0.671,-0.55729 0.752,-0.522 0.6,0.26171 -0.18,0.93387 -1.375,1.66703 -1.375,0.84411 z m -14.582,-5.96438 c 0.329,-0.53276 1.619,-0.47708 1.619,0.0699 0,0.24784 -0.417,0.41918 -0.927,0.38074 -0.51,-0.0384 -0.821,-0.24121 -0.692,-0.45062 z m -149.335,-1.66228 c -0.169,-0.44059 -0.131,-0.97751 0.08,-1.19317 0.216,-0.21565 0.436,0.14483 0.491,0.80107 0.114,1.37793 -0.133,1.54605 -0.575,0.3921 z m 72.69,0.0701 c -0.705,-0.84987 -1.116,-3.83229 -0.737,-5.34342 0.191,-0.7622 0.521,-0.97591 1.224,-0.79204 0.882,0.23093 1.182,1.06841 1.074,3.00266 -0.02,0.38542 0.16,1.07246 0.403,1.52676 0.948,1.7734 -0.704,3.12493 -1.964,1.60604 z m -38.879,-1.67139 c 0,-0.26426 0.216,-0.48048 0.48,-0.48048 0.264,0 0.48,0.21622 0.48,0.48048 0,0.26427 -0.216,0.48048 -0.48,0.48048 -0.264,0 -0.48,-0.21621 -0.48,-0.48048 z m 0.48,-1.44144 c 0,-0.26426 0.324,-0.48048 0.72,-0.48048 0.396,0 0.72,0.21622 0.72,0.48048 0,0.26426 -0.324,0.48048 -0.72,0.48048 -0.396,0 -0.72,-0.21622 -0.72,-0.48048 z m -36.007,-1.86521 c 0,-0.26426 0.216,-0.61411 0.48,-0.77743 0.264,-0.16333 0.48,-0.0807 0.48,0.18352 0,0.26427 -0.216,0.61411 -0.48,0.77744 -0.264,0.16332 -0.48,0.0807 -0.48,-0.18353 z m 154.421,0.0574 c -0.124,-0.20152 0.09,-0.90422 0.485,-1.56156 0.463,-0.77783 0.596,-0.85962 0.381,-0.23421 -0.182,0.52852 -0.341,1.23123 -0.354,1.56156 -0.03,0.6872 -0.187,0.76084 -0.512,0.23421 z m -1.991,-1.55553 c -0.163,-0.26427 0.04,-0.48048 0.452,-0.48048 0.412,0 0.748,0.21621 0.748,0.48048 0,0.26426 -0.203,0.48048 -0.451,0.48048 -0.249,0 -0.586,-0.21622 -0.749,-0.48048 z m 4.081,-23.36109 c 0,-1.0938 2.484,-4.90441 3.404,-5.22092 0.42,-0.14451 1.037,-0.77582 1.373,-1.40291 0.335,-0.62709 1.126,-1.37563 1.757,-1.66342 0.999,-0.45575 1.148,-0.40061 1.148,0.42741 0,0.52286 -0.217,0.95066 -0.481,0.95066 -0.264,0 -0.48,0.2793 -0.48,0.62068 0,0.34137 -0.992,1.58462 -2.204,2.76276 -1.213,1.17815 -2.396,2.62857 -2.629,3.22316 -0.487,1.2416 -1.888,1.46613 -1.888,0.30258 z m -1.44,-3.78606 c 0,-0.66066 0.182,-1.2012 0.404,-1.2012 0.223,0 0.911,-0.98507 1.53,-2.18903 0.619,-1.20397 1.307,-2.3017 1.53,-2.4394 0.443,-0.2742 2.755,1.73182 2.769,2.40219 0,0.22902 -0.416,0.30545 -0.934,0.16985 -0.725,-0.18974 -1.29,0.2955 -2.451,2.10612 -1.651,2.57491 -2.848,3.05903 -2.848,1.15147 z m -142.301,-0.66777 c -0.606,-0.66991 -0.81,-1.70934 -0.778,-3.96396 0.05,-3.42588 -0.139,-5.2542 -0.62,-6.03322 -0.179,-0.28948 -0.04,-1.07105 0.303,-1.73683 0.593,-1.14558 0.657,-1.16234 1.187,-0.31252 0.34,0.54444 0.382,1.00867 0.106,1.17912 -0.25,0.15463 -0.348,0.86736 -0.217,1.58384 0.238,1.31056 1.028,10.19158 0.906,10.19158 -0.04,0 -0.435,-0.4086 -0.887,-0.90801 z m 137.14,0.5898 c -0.33,-0.13329 -0.6,-0.56142 -0.6,-0.95139 0,-0.38997 0.216,-0.57516 0.481,-0.41153 0.264,0.16363 0.709,-0.30301 0.987,-1.03697 0.279,-0.73397 0.756,-1.63366 1.059,-1.99931 0.303,-0.36565 0.601,-1.00519 0.662,-1.42121 0.06,-0.41601 0.434,-0.9374 0.829,-1.15864 0.395,-0.22124 1.281,-1.5918 1.968,-3.04568 0.687,-1.45389 1.652,-2.89517 2.144,-3.20285 0.493,-0.30768 0.782,-0.85621 0.643,-1.21895 -0.249,-0.64914 1.589,-3.01304 2.342,-3.01304 0.449,0 -0.464,2.30719 -1.33,3.36337 -0.881,1.07381 -3.544,6.25936 -3.544,6.90054 0,0.3062 -0.531,1.13008 -1.181,1.83085 -0.649,0.70076 -1.325,1.85115 -1.502,2.55641 -0.177,0.70527 -0.618,1.39608 -0.98,1.53514 -0.362,0.13906 -0.658,0.55403 -0.658,0.92216 0,0.69119 -0.288,0.76785 -1.32,0.3511 z m -131.247,-1.85903 c -0.131,-0.49175 -0.303,-1.20167 -0.36,-1.4852 -0.03,-0.16449 -0.355,-0.0537 -0.716,0.24617 -0.499,0.41426 -0.799,0.3739 -1.248,-0.16801 -0.476,-0.57415 -0.437,-0.86799 0.201,-1.50667 0.66,-0.66025 0.769,-1.67065 0.648,-6.02001 -0.105,-3.78416 0.01,-5.22643 0.423,-5.22599 0.788,8.5e-4 1.259,1.73067 1.237,4.54326 -0.03,3.23683 0.285,3.94046 1.177,2.66557 0.501,-0.71632 0.558,-1.1776 0.197,-1.61285 -0.667,-0.8043 0.817,-3.85027 1.982,-4.06762 1.036,-0.19332 1.115,1.00942 0.12,1.83562 -0.396,0.32898 -0.72,1.18428 -0.72,1.90067 0,0.71639 -0.149,1.45176 -0.331,1.63414 -0.183,0.18239 -0.416,1.35356 -0.518,2.6026 -0.103,1.24905 -0.363,2.33542 -0.578,2.41415 -0.215,0.0787 -0.289,0.53541 -0.164,1.01482 0.134,0.51265 -0.08,0.99169 -0.531,1.16309 -0.417,0.16028 -0.786,0.1901 -0.819,0.0663 z m 0.541,-3.10805 c 0,-0.52852 -0.08,-0.96096 -0.185,-0.96096 -0.101,0 -0.297,0.43244 -0.435,0.96096 -0.138,0.52853 -0.06,0.96097 0.184,0.96097 0.24,0 0.436,-0.43244 0.436,-0.96097 z m 2.88,1.95028 c 0,-0.51293 0.227,-1.07272 0.504,-1.24397 0.349,-0.21638 0.346,-0.5003 -0.01,-0.93063 -0.385,-0.46494 -0.273,-0.68217 0.451,-0.87169 0.783,-0.20486 2.003,-2.16912 2.005,-3.22831 0,-0.13213 0.292,-0.56456 0.648,-0.96096 0.357,-0.3964 0.719,-1.02703 0.806,-1.4014 0.156,-0.67395 1.641,-2.44244 2.051,-2.44244 0.415,0 -0.142,1.79382 -1.13,3.63898 -0.552,1.02977 -1.003,2.11227 -1.003,2.40556 0,0.29328 -0.413,0.90699 -0.917,1.3638 -0.504,0.4568 -1.062,1.40802 -1.239,2.11382 -0.573,2.28364 -2.165,3.42895 -2.165,1.55724 z m 124.605,-0.47687 c -0.174,-0.28184 -0.192,-0.71372 -0.04,-0.95972 0.151,-0.24601 0.02,-0.60334 -0.285,-0.79407 -0.394,-0.24388 -0.298,-0.53887 0.324,-0.99416 0.487,-0.35606 0.709,-0.64738 0.494,-0.64738 -0.215,0 -0.164,-0.27289 0.112,-0.60643 0.277,-0.33354 0.967,-1.84706 1.534,-3.36337 0.567,-1.51631 1.205,-2.75692 1.418,-2.75692 0.644,0 -0.517,4.48242 -1.479,5.71044 -0.976,1.24564 -1.223,2.71569 -0.368,2.18668 0.433,-0.26777 0.09,0.41739 -1.297,2.58529 -0.05,0.0837 -0.239,-0.0785 -0.413,-0.36036 z m -72.942,-1.74855 c -0.202,-0.52694 -0.05,-0.70871 0.509,-0.6006 0.44,0.0853 0.889,0.42529 0.999,0.75562 0.294,0.88344 -1.167,0.73322 -1.508,-0.15502 z m 3.068,-0.20534 c 0,-1.11702 0.606,-1.24594 1.394,-0.29635 0.426,0.51441 0.377,0.73158 -0.221,0.96096 -1.115,0.42826 -1.173,0.39535 -1.173,-0.66461 z m -65.293,-9.10077 c 0,-0.24867 0.216,-0.58575 0.48,-0.74908 0.264,-0.16332 0.48,0.0401 0.48,0.45213 0,0.41199 -0.216,0.74908 -0.48,0.74908 -0.264,0 -0.48,-0.20346 -0.48,-0.45213 z m 139.238,-0.12012 c 0,-0.34592 0.434,-1.1695 0.95,-1.83016 0.516,-0.66066 0.944,-1.66455 0.95,-2.23087 0,-0.56632 0.334,-1.15413 0.73,-1.30624 0.787,-0.3023 1.002,0.4232 0.261,0.8815 -0.252,0.15619 -0.343,0.58467 -0.203,0.95217 0.141,0.3675 -0.192,1.11733 -0.741,1.66629 -0.548,0.54896 -0.997,1.20157 -0.997,1.45024 0,0.24867 -0.216,0.58575 -0.48,0.74908 -0.264,0.16332 -0.475,0.0139 -0.47,-0.33201 z m -139.538,-4.29262 c 0.165,-0.82582 0.3,-1.69069 0.3,-1.92192 0,-0.23123 0.193,-0.42042 0.43,-0.42042 0.236,0 0.512,0.86486 0.612,1.92192 0.156,1.63265 0.05,1.92192 -0.729,1.92192 -0.767,0 -0.865,-0.24098 -0.613,-1.5015 z m 143.95,-3.49508 c 0.34,-0.36974 0.694,-0.60035 0.787,-0.51245 0.285,0.27073 -0.437,1.18471 -0.936,1.18471 -0.258,0 -0.192,-0.30252 0.149,-0.67226 z"
       id="path1" /></g></svg>
