<?xml version="1.0" encoding="UTF-8" standalone="no"?>
<!-- Created with Inkscape (http://www.inkscape.org/) -->

<svg
   width="231.38646"
   height="235.24007"
   viewBox="0 0 61.221 62.240601"
   version="1.1"
   id="svg1"
   xml:space="preserve"
   xmlns="http://www.w3.org/2000/svg"
   xmlns:svg="http://www.w3.org/2000/svg"><defs
     id="defs1" /><g
     id="g1953"
     transform="matrix(0.26458333,0,0,0.26458333,-4838.0825,-23.048726)"><path
       style="fill:#000000"
       d="m 18347.251,249.84185 c -0.415,-1.0822 0.461,-1.841 3.285,-2.84518 1.403,-0.4987 3.356,-1.40997 4.342,-2.02504 0.985,-0.61506 2,-1.1183 2.256,-1.1183 0.255,0 1.798,-0.81 3.429,-1.8 10.13,-6.15007 18.982,-10.41568 25.666,-12.36809 9.34,-2.72829 12.119,-3.70415 14.922,-5.24026 1.603,-0.87818 3.596,-1.74633 4.429,-1.92922 1.99,-0.43665 7.454,-5.51379 8.714,-8.09675 0.538,-1.10312 2.009,-3.27226 3.269,-4.8203 2.112,-2.59685 4.879,-6.24549 6.665,-8.79141 0.404,-0.57531 0.665,-1.72201 0.581,-2.5482 -0.136,-1.33726 -0.462,-1.62714 -2.964,-2.64043 -1.547,-0.62604 -3.168,-1.12451 -3.603,-1.10771 -0.435,0.0168 -1.159,-0.12551 -1.609,-0.31623 -0.604,-0.2559 -1.591,0.41592 -3.767,2.56355 -1.622,1.60069 -2.858,3.1859 -2.747,3.52269 0.11,0.3368 1.008,0.68018 1.995,0.76308 1.346,0.11317 1.756,0.34375 1.644,0.92548 -0.08,0.42612 -0.69,0.9245 -1.351,1.10753 -1.527,0.42316 -6.724,2.81556 -6.724,3.09527 0,0.26725 1.521,-0.2667 2.173,-0.76265 0.271,-0.20605 1.65,-0.52813 3.066,-0.71574 2.092,-0.27741 2.531,-0.21595 2.35,0.32914 -0.123,0.36864 -0.638,0.73538 -1.145,0.81499 -1.307,0.20548 -3.149,1.15336 -4.148,2.13526 -0.989,0.97159 -3.076,1.11922 -3.393,0.24 -0.24,-0.66649 -2.057,1.15462 -4.009,4.0179 -1.355,1.98798 -4.355,4.52776 -6.157,5.21246 -1.041,0.39551 -1.226,0.33168 -1.226,-0.42262 0,-0.52602 0.968,-1.54927 2.372,-2.50812 1.304,-0.89079 2.871,-2.46587 3.482,-3.50018 0.611,-1.0343 2.164,-2.97427 3.451,-4.31102 1.287,-1.33676 2.963,-3.53401 3.725,-4.88279 1.703,-3.01506 8.031,-9.48508 11.523,-11.78027 1.422,-0.93503 3.826,-2.51786 5.342,-3.51739 3.656,-2.41056 5.747,-3.10159 9.461,-3.1269 4.579,-0.0312 8.484,-2.31322 10.546,-6.16249 0.533,-0.99527 0.512,-1.00101 -1.128,-0.31612 -1.961,0.81889 -4.01,0.89158 -5.814,0.20624 -1.13,-0.42933 -1.261,-0.69001 -1.037,-2.06656 l 0.256,-1.57525 -2.717,0.36425 c -1.494,0.20035 -3.581,0.58514 -4.638,0.85511 -1.057,0.26997 -2.786,0.49811 -3.843,0.50699 -2.165,0.0182 -6.595,1.90374 -8.405,3.57793 -2.974,2.75001 -14.562,9.86883 -16.066,9.86883 -1.528,0 -0.8,-1.88453 1.022,-2.64518 2.089,-0.87224 10.126,-5.88069 11.268,-7.02171 0.74,-0.73908 0.629,-0.88461 -1.593,-2.09291 -2.03,-1.10444 -2.722,-1.24851 -4.623,-0.96358 -2.795,0.41877 -7.194,2.16339 -12.962,5.14084 -4.645,2.39697 -6.069,2.75683 -6.498,1.64103 -0.258,-0.6714 0.493,-1.73849 1.224,-1.73849 0.22,0 2.354,-0.972 4.743,-2.16 2.389,-1.188 4.597,-2.16687 4.908,-2.17527 0.31,-0.008 0.975,-0.32564 1.476,-0.70499 1.375,-1.04031 0.284,-1.97347 -2.98,-2.54796 -3.403,-0.59915 -5.721,-0.17093 -9.553,1.76508 -1.636,0.82673 -3.112,1.50314 -3.278,1.50314 -0.167,0 -1.759,0.864 -3.538,1.92 -3.605,2.14032 -4.399,2.34019 -4.053,1.02059 0.341,-1.30555 2.58,-2.81154 7.984,-5.37113 l 1.344,-0.63681 -1.825,-1.10386 c -2.7,-1.6333 -5.274,-1.46642 -9.431,0.61136 -1.893,0.94608 -4.198,2.00025 -5.122,2.3426 -0.925,0.34235 -2.978,1.21009 -4.564,1.92831 -7.079,3.20769 -8.643,4.36658 -10.698,7.92894 -0.685,1.188 -1.801,2.916 -2.479,3.84 -0.678,0.924 -1.469,2.112 -1.758,2.64 -1.507,2.75346 -2.016,3.53652 -3.591,5.51997 -0.943,1.18802 -1.999,2.87083 -2.348,3.73958 -0.348,0.86875 -1.206,2.38075 -1.907,3.36 -0.7,0.97925 -1.899,2.86045 -2.664,4.18045 -0.765,1.32 -1.666,2.67712 -2.004,3.01583 -0.337,0.3387 -1.293,1.56148 -2.123,2.71729 -1.221,1.69934 -2.213,2.39683 -5.182,3.64506 -2.02,0.84899 -5.185,2.25772 -7.035,3.13052 -4.123,1.94631 -6.964,2.56776 -6.964,1.52349 0,-1.01703 0.886,-1.61508 3.362,-2.26975 1.189,-0.31428 2.918,-0.96614 3.843,-1.44858 0.924,-0.48244 3.225,-1.56399 5.113,-2.40345 3.744,-1.66479 5.984,-3.86305 9.796,-9.6126 1.13,-1.70379 2.452,-3.68306 2.939,-4.39837 0.486,-0.71531 0.885,-1.43999 0.885,-1.61039 0,-0.17041 0.689,-1.31315 1.531,-2.53944 0.842,-1.22628 2.674,-3.95761 4.072,-6.06961 1.398,-2.112 2.887,-4.272 3.309,-4.8 0.423,-0.528 1.215,-1.824 1.761,-2.88 1.577,-3.05116 3.988,-5.67636 6.228,-6.78369 3.425,-1.69242 7.729,-3.61306 9.552,-4.26256 0.945,-0.3363 3.219,-1.39757 5.054,-2.35838 2.782,-1.45621 3.859,-1.75581 6.472,-1.8003 3.214,-0.0547 4.677,0.42402 6.575,2.15205 1.043,0.94935 1.15,0.95625 2.778,0.18002 3.172,-1.51127 9.939,-0.70647 12.447,1.48015 1.173,1.02308 1.434,1.05742 4.415,0.58158 3.363,-0.53683 3.504,-0.49853 8.163,2.21106 1.498,0.87071 1.523,0.86797 3.392,-0.36831 3.27,-2.16215 9.474,-3.498 19.699,-4.24163 2.963,-0.21543 5.572,-0.50626 5.799,-0.64628 0.227,-0.14002 0.992,0.0459 1.7,0.41323 1.347,0.69847 2.621,0.64441 17.008,-0.72192 3.233,-0.30695 8.961,-0.47524 12.729,-0.37398 6.303,0.16935 6.996,0.27852 8.639,1.36154 1.155,0.7615 1.897,1.68609 2.101,2.61742 0.174,0.792 0.559,1.59451 0.856,1.78336 0.826,0.52508 0.683,18.10476 -0.275,33.73664 -0.452,7.392 -0.95,13.94855 -1.106,14.5701 -0.156,0.62156 -0.293,4.76361 -0.305,9.20456 -0.02,6.90493 -0.137,8.17596 -0.819,8.77518 -1.538,1.35177 -5.667,3.12929 -8.47,3.64722 -4.45,0.82195 -14.811,0.62538 -18.746,-0.35564 -3.681,-0.91781 -7.727,-2.83221 -8.939,-4.22954 -0.984,-1.13511 -1.697,-5.0132 -2.369,-12.89188 -0.293,-3.432 -0.84,-8.73615 -1.217,-11.78701 -0.376,-3.05085 -0.684,-7.18831 -0.684,-9.19434 0,-4.6953 -1.252,-15.4396 -2.145,-18.40412 -0.381,-1.26413 -0.609,-2.43385 -0.506,-2.59939 0.102,-0.16554 0.04,-0.54276 -0.146,-0.83826 -0.606,-0.97862 -10.221,0.0874 -12.659,1.4034 -4.001,2.15989 -7.721,4.77065 -7.302,5.12522 0.232,0.19683 1.395,0.74361 2.584,1.21508 1.189,0.47147 2.486,1.01731 2.882,1.21299 1.025,0.5062 2.13,3.92915 1.753,5.43034 -0.416,1.65869 -4.176,7.13606 -7.108,10.35477 -1.282,1.40728 -2.33,2.74185 -2.33,2.96572 0,0.22386 -0.271,0.69575 -0.601,1.04864 -0.33,0.35288 -1.025,1.47206 -1.545,2.48707 -1.031,2.01416 -6.719,7.49989 -7.777,7.49989 -0.361,0 -2.621,0.96097 -5.022,2.13549 -2.401,1.17452 -6.018,2.60871 -8.039,3.18708 -2.021,0.57837 -4.953,1.4534 -6.516,1.94451 -1.563,0.49111 -3.184,0.89603 -3.603,0.89982 -0.694,0.006 -9.385,4.1161 -11.088,5.24341 -0.396,0.26232 -1.693,0.92421 -2.882,1.47087 -1.189,0.54666 -3.242,1.60271 -4.563,2.34677 -5.805,3.26985 -12.623,6.91537 -14.17,7.57688 -3.711,1.58661 -3.864,1.61836 -4.154,0.86369 z m 113.363,-6.70852 c -0.346,-0.90118 -0.707,-0.90411 -1.883,-0.0153 -0.882,0.66707 -0.85,0.70555 0.614,0.72 1.18,0.0117 1.48,-0.15503 1.269,-0.70473 z m 3.909,0.24 c -0.163,-0.264 -0.729,-0.48 -1.257,-0.48 -0.528,0 -0.827,0.216 -0.664,0.48 0.163,0.264 0.729,0.48 1.258,0.48 0.528,0 0.827,-0.216 0.663,-0.48 z m 8.406,-0.21503 c 0,-0.56469 -0.271,-0.60035 -1.449,-0.19018 -1.12,0.39027 -1.693,0.34705 -2.522,-0.19041 -0.781,-0.50639 -1.432,-0.57399 -2.396,-0.24882 -2.208,0.74441 -0.984,1.32444 2.793,1.32444 2.8,0 3.574,-0.15059 3.574,-0.69503 z m -14.678,-1.48024 c 0.513,-0.3876 0.716,-0.70473 0.452,-0.70473 -0.264,0 -0.9,0.31713 -1.413,0.70473 -0.513,0.38761 -0.716,0.70474 -0.452,0.70474 0.264,0 0.9,-0.31713 1.413,-0.70474 z m 16.356,0.26077 c 0.168,-0.27209 -0.02,-0.35257 -0.452,-0.18865 -0.832,0.3191 -0.984,0.66315 -0.293,0.66315 0.248,0 0.584,-0.21353 0.745,-0.4745 z m 4.661,-0.45525 c 1.429,-0.71138 1.54,-1.2494 2.086,-10.11025 0.483,-7.85195 0.693,-10.64035 1.207,-16.08 0.632,-6.67148 1.075,-35.80052 0.557,-36.5906 -0.3,-0.45826 -1.135,-0.38468 -3.727,0.32835 -2.186,0.60154 -6.409,1.09732 -12.226,1.43535 -4.887,0.28402 -10.327,0.6518 -12.088,0.8173 -3.157,0.29671 -3.195,0.31679 -2.683,1.43856 0.468,1.02589 0.597,1.06659 1.318,0.41434 0.44,-0.39781 1.093,-0.7233 1.452,-0.7233 0.69,0 2.875,1.84814 2.875,2.43163 0,0.39798 -2.367,1.12921 -3.213,0.99234 -0.633,-0.10255 0.52,2.57942 1.322,3.07482 0.248,0.15282 0.45,0.69712 0.45,1.20954 0,1.34192 -1.382,1.14889 -1.921,-0.26833 -0.514,-1.34898 -1.066,-1.50984 -1.869,-0.54369 -0.414,0.4988 -0.373,0.79891 0.171,1.25041 0.546,0.45229 0.596,0.82013 0.21,1.54119 -0.657,1.22633 -0.225,2.31209 0.919,2.31209 0.676,0 0.913,0.36579 0.944,1.45319 0.04,1.2981 -0.1,1.43898 -1.248,1.32 -1,-0.10337 -1.321,0.0949 -1.434,0.88572 -0.243,1.69649 1.308,1.83884 2.988,0.27434 3.144,-2.92777 3.803,-3.41035 4.267,-3.12375 0.264,0.16296 -0.85,1.58028 -2.475,3.14959 -1.624,1.5693 -2.954,3.01085 -2.954,3.20343 0,0.19257 0.54,0.85664 1.199,1.4757 0.66,0.61906 1.098,1.22633 0.975,1.34949 -0.123,0.12316 0.216,0.84103 0.753,1.59526 0.538,0.75423 0.91,1.85861 0.827,2.45418 -0.122,0.87307 0.06,1.0607 0.93,0.96851 1.168,-0.12364 1.389,0.33435 0.559,1.16318 -0.375,0.37446 -0.172,1.07329 0.721,2.48646 1.806,2.85969 1.641,4.36961 -0.287,2.62575 -0.829,-0.74972 -0.957,-0.72978 -2.079,0.32368 -1.401,1.31472 -1.468,1.77926 -0.426,2.93039 0.62,0.68451 0.944,0.74233 1.66,0.29597 1.257,-0.78477 1.733,-0.0608 0.706,1.07367 -0.808,0.89246 -0.812,1.02533 -0.06,2.17106 0.9,1.37206 1.433,1.23729 4.61,-1.16636 1.475,-1.11554 3.955,-2.42946 4.586,-2.42946 0.84,0 -0.174,0.99426 -2.37,2.32423 -1.423,0.86189 -3.206,2.19753 -3.963,2.96809 -0.756,0.77056 -1.645,1.40701 -1.975,1.41435 -0.784,0.0174 -0.758,0.28744 0.161,1.68864 0.632,0.96384 0.91,1.06865 1.636,0.6158 0.675,-0.42151 0.778,-0.79902 0.451,-1.65842 -0.455,-1.19548 0.342,-1.57229 1.3,-0.61485 0.344,0.34378 0.915,0.33962 1.844,-0.0134 1.788,-0.67933 2.207,-0.15656 0.754,0.93926 -1.126,0.84885 -1.138,0.91553 -0.334,2.00718 0.457,0.62103 1.923,2.78858 3.258,4.81677 1.476,2.24203 2.671,3.59429 3.049,3.44952 0.341,-0.13096 1.092,0.42341 1.668,1.23194 0.877,1.23037 1.201,1.38824 1.986,0.96829 1.518,-0.81166 2.176,0.0241 0.864,1.09599 -0.882,0.72039 -0.94,0.86878 -0.248,0.64419 0.72,-0.23397 0.848,-0.1 0.645,0.67598 -0.139,0.53229 -0.111,0.90331 0.06,0.8245 0.174,-0.0788 0.898,-0.43331 1.611,-0.78778 z m -16.666,-0.0302 c 0.163,-0.264 0.07,-0.48 -0.212,-0.48 -0.279,0 -0.508,0.216 -0.508,0.48 0,0.264 0.09,0.48 0.211,0.48 0.117,0 0.346,-0.216 0.509,-0.48 z m 9.467,-0.66068 c 0.187,-0.29221 0.144,-0.72721 -0.1,-0.96666 -0.558,-0.55752 -3.026,1.01313 -2.621,1.66795 0.345,0.55789 2.22,0.0738 2.717,-0.70129 z m -6.557,-0.98007 c 0.512,-0.37442 0.824,-0.78124 0.692,-0.90406 -0.389,-0.36288 -2.401,0.54993 -2.401,1.08934 0,0.68529 0.607,0.61943 1.709,-0.18528 z m -8.022,-0.7066 c 0.409,-0.25886 0.47,-0.52504 0.163,-0.71421 -0.602,-0.37184 -2.016,0.12816 -2.016,0.71291 0,0.54121 0.999,0.54191 1.853,0.001 z m 2.686,-2.10208 c -0.162,-0.42347 -0.598,-0.654 -0.967,-0.51228 -0.516,0.19797 -0.553,0.48091 -0.156,1.22122 0.599,1.11931 1.586,0.49653 1.123,-0.70894 z m 4.116,0.83844 c 0.508,-0.6112 0.478,-0.68144 -0.181,-0.42864 -0.434,0.16628 -0.788,0.49523 -0.788,0.73098 0,0.61727 0.278,0.53058 0.969,-0.30234 z m 5.513,-0.70487 c 0.385,-0.62321 -1.759,-4.22984 -4.046,-6.80467 -1.576,-1.77553 -1.936,-1.97377 -2.592,-1.4295 -1.224,1.01514 0,2.57921 1.717,2.20265 1.541,-0.3371 1.737,0.25638 0.367,1.11136 -0.948,0.59193 -0.948,0.60449 0.05,2.51546 0.551,1.05631 1.304,1.92056 1.674,1.92056 0.369,0 0.672,0.4396 0.672,0.97689 0,0.81882 0.151,0.89607 0.934,0.47742 0.513,-0.27471 1.064,-0.71129 1.225,-0.97017 z m -6.278,-1.28457 c 0.579,-1.50666 -0.43,-2.00238 -1.896,-0.93151 -0.761,0.55616 -0.81,0.79258 -0.297,1.41147 0.699,0.84099 1.777,0.60512 2.193,-0.47996 z m -5.248,-0.63957 c 0.163,-0.264 0.07,-0.48 -0.212,-0.48 -0.279,0 -0.508,0.216 -0.508,0.48 0,0.264 0.09,0.48 0.211,0.48 0.117,0 0.346,-0.216 0.509,-0.48 z m 3.174,-1.86498 c 0.958,-0.77585 1.026,-1.01558 0.474,-1.68 -0.813,-0.9795 -1.426,-0.97818 -2.514,0.005 -0.656,0.59358 -0.747,0.99577 -0.381,1.68 0.605,1.12925 1.02,1.12833 2.421,-0.005 z m -5.668,-1.94182 c -0.133,-0.50973 -0.569,-1.05218 -0.969,-1.20544 -0.518,-0.19852 -0.642,-0.0588 -0.433,0.48605 0.162,0.42059 0.294,0.96304 0.294,1.20545 0,0.24241 0.304,0.44074 0.675,0.44074 0.431,0 0.588,-0.33551 0.433,-0.9268 z m 3.873,-3.18086 c -0.911,-1.38986 -0.855,-1.38032 -2.356,-0.39714 -1.387,0.90811 -1.472,1.47133 -0.401,2.65467 0.754,0.83246 0.836,0.82827 2.155,-0.10987 1.315,-0.93607 1.34,-1.0225 0.602,-2.14766 z m -9.785,-0.24067 c 0,-0.54358 -0.206,-0.86066 -0.459,-0.70463 -0.253,0.15604 -0.338,0.60079 -0.189,0.98833 0.381,0.99222 0.648,0.87529 0.648,-0.2837 z m 6.701,-1.29587 c 1.122,-0.9076 0.978,-2.2316 -0.296,-2.71998 -0.963,-0.36922 -2.941,1.2211 -2.648,2.12906 0.496,1.54103 1.517,1.74585 2.944,0.59092 z m 1.754,-3.55156 c -0.872,-1.24466 -1.035,-0.83665 -0.25,0.62843 0.286,0.53325 0.632,0.85702 0.769,0.71948 0.138,-0.13754 -0.1,-0.7441 -0.519,-1.34791 z m -3.651,-0.90113 c 0,-0.25471 -0.229,-0.46311 -0.509,-0.46311 -0.28,0 -0.39,-0.19153 -0.245,-0.42561 0.144,-0.23409 -0.03,-0.6716 -0.396,-0.97225 -0.846,-0.70164 -1.379,0.48662 -0.962,2.14634 0.241,0.95849 0.443,1.07028 1.201,0.66497 0.501,-0.26797 0.911,-0.69563 0.911,-0.95034 z m -6.407,-2.98311 c -0.133,-0.33 -0.242,-0.06 -0.242,0.6 0,0.66 0.109,0.93 0.242,0.6 0.133,-0.33 0.133,-0.87 0,-1.2 z m 7.826,0.55889 c -0.295,-0.55061 -0.632,-0.90553 -0.749,-0.7887 -0.336,0.33595 0.345,1.78981 0.839,1.78981 0.245,0 0.205,-0.45015 -0.09,-1.00111 z m -2.38,-2.51889 c 0,-0.352 -0.142,-0.78213 -0.316,-0.95584 -0.434,-0.43407 -1.658,0.64168 -1.332,1.17023 0.41,0.66179 1.648,0.50067 1.648,-0.21439 z m 3.482,-2.47214 c 1.362,-1.19761 1.635,-1.91778 0.898,-2.37258 -0.642,-0.39641 -3.611,2.38715 -3.22,3.01898 0.476,0.7696 0.822,0.67336 2.322,-0.6464 z m -1.866,-2.47331 c 1.21,-1.20991 1.684,-2.57455 0.892,-2.57455 -0.205,0 -0.724,0.40912 -1.152,0.90916 -0.429,0.50003 -1.155,1.11959 -1.615,1.37679 -0.46,0.2572 -0.685,0.71208 -0.501,1.01084 0.505,0.81553 0.982,0.6704 2.376,-0.72224 z m -1.412,-2.53681 c 1.216,-1.26857 1.279,-1.49523 0.661,-2.37736 -0.68,-0.97013 -0.69,-0.96901 -1.975,0.22169 -1.234,1.14344 -1.657,2.55292 -0.971,3.23793 0.539,0.5392 0.89,0.37326 2.285,-1.08226 z m -2.606,-10.11774 c -0.307,-0.57322 -0.666,-0.93422 -0.798,-0.80222 -0.132,0.132 0.01,0.709 0.318,1.28222 0.307,0.57322 0.666,0.93422 0.798,0.80222 0.132,-0.132 -0.01,-0.709 -0.318,-1.28222 z m 0.721,-4.8 c -0.233,-0.37576 -0.509,-0.40365 -0.829,-0.0837 -0.264,0.264 -0.324,0.73364 -0.132,1.04365 0.233,0.37576 0.509,0.40365 0.829,0.0837 0.264,-0.264 0.324,-0.73364 0.132,-1.04365 z m 0.18,-9.08134 c -0.36,-0.81326 -0.805,-1.47866 -0.99,-1.47866 -0.798,0 -0.853,1.04242 -0.13,2.44106 1.057,2.04245 2.067,1.17481 1.12,-0.9624 z m -1.587,-3.39866 c 0,-0.73026 -0.32,-0.96 -1.338,-0.96 -0.909,0 -1.338,0.24748 -1.338,0.77135 0,0.48845 0.264,0.67002 0.72,0.49507 0.397,-0.15196 0.721,-0.0671 0.721,0.18864 0,0.25572 0.278,0.46494 0.618,0.46494 0.339,0 0.617,-0.432 0.617,-0.96 z m -4.117,-0.48 c 0,-0.264 -0.216,-0.48 -0.48,-0.48 -0.265,0 -0.481,0.216 -0.481,0.48 0,0.264 0.216,0.48 0.481,0.48 0.264,0 0.48,-0.216 0.48,-0.48 z m 12.025,-4.08522 c 0.55,-0.17461 0.716,-0.65319 0.57,-1.64642 -0.212,-1.4439 -1.192,-1.56524 -2.268,-0.2808 -0.701,0.83718 -3.004,1.31178 -3.384,0.69744 -0.176,-0.28519 0.135,-0.9424 0.691,-1.46046 1.82,-1.6946 1.29,-1.99949 -3.081,-1.77023 -2.252,0.11808 -4.277,0.41517 -4.5,0.66019 -0.223,0.24503 -0.536,1.13919 -0.694,1.98704 l -0.288,1.54154 3.947,0.13846 c 2.171,0.0762 4.911,0.19268 6.089,0.25894 1.178,0.0663 2.491,0.01 2.918,-0.1257 z m 9.382,-0.7662 c 0.219,-0.35432 0,-0.42784 -0.652,-0.22061 -0.673,0.21353 -1.184,0.0191 -1.633,-0.62113 -0.555,-0.79136 -0.781,-0.83815 -1.504,-0.31017 -0.468,0.34198 -1.219,0.52629 -1.669,0.40957 -0.45,-0.11671 -1.251,0.11526 -1.779,0.51551 -0.884,0.6695 -0.646,0.72894 2.974,0.74298 2.374,0.009 4.064,-0.1954 4.263,-0.51615 z m 5.972,-1.92524 c 0,-0.264 -0.216,-0.3465 -0.48,-0.18334 -0.265,0.16316 -0.481,0.51266 -0.481,0.77666 0,0.264 0.216,0.3465 0.481,0.18334 0.264,-0.16316 0.48,-0.51266 0.48,-0.77666 z m -31.102,-0.13032 c 0.463,-0.0103 0.841,-0.162 0.841,-0.3371 0,-1.52812 -6.338,-1.84843 -6.63,-0.33505 -0.178,0.92459 1.367,1.34466 3.508,0.95388 0.792,-0.14465 1.819,-0.27143 2.281,-0.28173 z m 25.818,-1.28248 c 0,-0.19836 -0.432,-0.24769 -0.96,-0.10962 -0.565,0.14747 -0.961,0.65473 -0.961,1.22946 0,0.948 0.03,0.95141 0.961,0.10962 0.528,-0.47783 0.96,-1.03109 0.96,-1.22946 z m -6.895,-0.68374 c -0.435,-1.1308 -1.27,-0.41721 -1.27,1.08439 0,1.18024 0.06,1.2164 0.786,0.48889 0.444,-0.44367 0.654,-1.12849 0.484,-1.57328 z m -3.672,0.14185 c 0,-0.63091 -1.092,-0.23585 -1.331,0.48168 -0.117,0.35076 0.103,0.45803 0.57,0.27864 0.419,-0.16042 0.761,-0.50257 0.761,-0.76032 z m 7.685,-0.38865 c 0,-0.264 -0.337,-0.48 -0.749,-0.48 -0.411,0 -0.615,0.216 -0.452,0.48 0.164,0.264 0.501,0.48 0.749,0.48 0.249,0 0.452,-0.216 0.452,-0.48 z m -31.889,22.16518 c -0.418,-0.67494 1.099,-6.96231 1.864,-7.72641 0.646,-0.64598 0.807,-0.6427 1.48,0.0303 0.687,0.68633 0.644,1.02068 -0.48,3.68839 -0.68,1.6135 -1.236,3.26415 -1.236,3.66811 0,0.7692 -1.207,1.02096 -1.628,0.33964 z m -5.414,-2.75383 c -0.358,-0.93229 2.073,-3.57135 3.29,-3.57135 1.213,0 1.088,0.73845 -0.451,2.66563 -1.426,1.78676 -2.383,2.09208 -2.839,0.90572 z m -37.049,-4.17089 c -1.487,-0.36464 -2.019,-0.71996 -1.907,-1.27313 0.09,-0.42557 0.578,-0.7338 1.102,-0.69205 1.925,0.15325 5.749,1.38026 5.749,1.84472 0,0.6655 -2.476,0.72582 -4.944,0.12046 z m -11.241,-2.53417 c -0.139,-0.13955 -1.202,-0.41552 -2.361,-0.61329 -1.373,-0.23419 -2.108,-0.60599 -2.108,-1.06628 0,-0.52819 0.526,-0.68275 2.082,-0.61181 2.195,0.10004 3.442,0.78264 3.442,1.88386 0,0.66181 -0.577,0.88475 -1.055,0.40752 z m -17.798,-3.45009 c -1.358,-0.20559 -1.821,-1.41461 -0.706,-1.84241 0.834,-0.3196 4.328,0.92541 4.561,1.62516 0.187,0.56129 -1.103,0.63398 -3.855,0.21725 z m 57.547,-3.123 c -0.412,-0.58674 -0.748,-1.23474 -0.748,-1.44 0,-0.64377 1.087,-0.40752 2.024,0.43984 0.851,0.76966 0.914,0.75686 1.175,-0.24 0.34,-1.3003 0.933,-1.34682 1.587,-0.1246 0.828,1.54509 0.612,2.08423 -0.703,1.75445 -0.693,-0.17368 -1.201,-0.0941 -1.201,0.18797 0,0.88268 -1.371,0.51168 -2.134,-0.57766 z m 25.67,-8.99061 c 0,-0.69296 1.116,-3.06448 1.759,-3.74 0.313,-0.32858 0.968,-1.10427 1.456,-1.72377 0.487,-0.6195 1.372,-1.38598 1.965,-1.70329 1.961,-1.04863 1.733,0.58645 -0.397,2.84612 -1.09,1.15689 -2.294,2.70529 -2.674,3.44089 -0.654,1.26301 -2.109,1.87026 -2.109,0.88005 z m -2.121,-2.35824 c -0.127,-0.20555 -0.03,-1.76211 0.215,-3.45904 0.245,-1.69692 0.45,-3.24731 0.456,-3.44531 0,-0.198 0.334,-0.36 0.73,-0.36 0.784,0 0.951,2.1432 0.417,5.37094 -0.275,1.66055 -1.301,2.7294 -1.818,1.89341 z"
       id="path1" /></g></svg>
