<?xml version="1.0" encoding="UTF-8" standalone="no"?>
<!-- Created with Inkscape (http://www.inkscape.org/) -->

<svg
   width="231.38646"
   height="235.24007"
   viewBox="0 0 61.221 62.240601"
   version="1.1"
   id="svg1"
   xml:space="preserve"
   xmlns="http://www.w3.org/2000/svg"
   xmlns:svg="http://www.w3.org/2000/svg"><defs
     id="defs1" /><g
     id="g2047"
     transform="matrix(0.26458333,0,0,0.26458333,-5299.2671,-10.12824)"><g
       id="g2170"
       transform="translate(-1397.4275,-11.866668)"><path
         style="fill:#000000"
         d="m 21583.737,248.7325 c -0.463,-0.46436 -0.301,-0.95494 0.316,-0.95494 0.323,0 0.7,0.18206 0.837,0.40457 0.148,0.24032 -0.03,0.29516 -0.451,0.13508 -0.475,-0.18284 -0.605,-0.11553 -0.405,0.20932 0.32,0.52006 0.14,0.64486 -0.297,0.20597 z m 5.659,-0.52119 c -0.147,-0.23856 -0.06,-0.43375 0.189,-0.43375 0.911,0 -0.02,-0.7206 -1.318,-1.02383 -0.796,-0.18563 -1.07,-0.37936 -0.68,-0.48053 0.72,-0.18667 0.595,-2.17901 -0.137,-2.17901 -0.225,0 -0.318,-0.34795 -0.207,-0.77322 0.111,-0.42527 0.05,-1.01344 -0.127,-1.30703 -0.2,-0.32511 0.06,-1.19691 0.662,-2.22989 0.545,-0.93285 0.991,-1.99795 0.991,-2.3669 0,-1.45177 1.869,-2.05348 6.459,-2.07906 5.916,-0.033 6.645,0.3436 7.252,3.74699 0.256,1.43669 0.296,2.55353 0.09,2.55353 -0.201,0 -0.176,0.355 0.06,0.78888 0.434,0.81434 0.186,2.07596 -0.409,2.07596 -0.186,0 -0.395,0.50647 -0.466,1.12548 -0.116,1.00393 -0.383,1.18581 -2.476,1.6842 -1.29,0.3073 -2.346,0.72168 -2.346,0.92084 0,0.52504 -2.348,0.4454 -2.679,-0.0908 -0.203,-0.33003 -0.356,-0.32845 -0.562,0.006 -0.2,0.3259 -0.676,0.26151 -1.643,-0.2223 -1.275,-0.63796 -1.394,-0.63677 -1.872,0.0187 -0.324,0.44547 -0.607,0.54214 -0.777,0.266 z m 10.287,-2.95819 c -0.06,-0.26296 0.357,-0.72067 0.918,-1.01712 0.561,-0.29645 0.837,-0.54256 0.612,-0.5469 -0.227,-0.004 -0.414,-1.18409 -0.422,-2.67179 -0.01,-2.28977 -0.159,-2.8086 -1.042,-3.6942 -0.565,-0.56667 -1.706,-1.14077 -2.536,-1.27579 -1.319,-0.21477 -1.508,-0.14265 -1.508,0.57648 0,0.45208 -0.275,1.05123 -0.612,1.33145 -0.745,0.6203 -0.79,1.69023 -0.102,2.43396 0.419,0.45291 0.365,0.49973 -0.306,0.26223 -0.654,-0.23194 -0.715,-0.1872 -0.306,0.22625 0.281,0.28345 0.51,0.9562 0.51,1.49499 0,0.63542 0.287,1.05482 0.816,1.19367 0.744,0.195 0.995,0.61706 0.865,1.44868 -0.03,0.16882 0.135,0.30695 0.359,0.30695 0.225,0 0.408,-0.27625 0.408,-0.61389 0,-0.84557 0.503,-0.7684 1.334,0.20463 0.787,0.92245 1.164,1.04899 1.012,0.3404 z m -3.57,-3.61451 c 0,-0.22509 0.195,-0.40926 0.432,-0.40926 0.238,0 0.319,0.18417 0.18,0.40926 -0.138,0.2251 -0.333,0.40927 -0.432,0.40927 -0.1,0 -0.18,-0.18417 -0.18,-0.40927 z m -10.984,4.67242 c 0.02,-0.47677 0.116,-0.57374 0.247,-0.24726 0.117,0.29544 0.103,0.64842 -0.03,0.78442 -0.135,0.13599 -0.232,-0.10573 -0.214,-0.53716 z m -2.616,-0.0341 c -0.15,-0.15007 -0.267,-0.56444 -0.26,-0.92084 0.01,-0.53217 0.09,-0.51449 0.445,0.0989 0.44,0.75783 0.312,1.32124 -0.185,0.82194 z m -29.724,-1.15958 c -0.255,-0.56274 -0.779,-1.02316 -1.164,-1.02316 -0.436,0 -0.785,-0.42363 -0.926,-1.12547 -0.125,-0.61901 -0.351,-1.44777 -0.503,-1.84168 -0.189,-0.49128 -0.08,-0.71621 0.35,-0.71621 0.485,0 0.603,-0.41327 0.523,-1.83082 -0.06,-1.00695 0.04,-2.05974 0.21,-2.33954 0.173,-0.27979 0.118,-0.7451 -0.121,-1.03402 -0.318,-0.38405 -0.284,-0.52699 0.125,-0.53157 0.338,-0.004 0.398,-0.12585 0.152,-0.30695 -0.567,-0.41785 -0.598,-8.40393 -0.03,-8.78662 0.288,-0.19533 0.295,-0.30287 0.02,-0.30694 -0.555,-0.008 -0.649,-1.45222 -0.176,-2.70008 0.358,-0.94539 0.125,-1.20528 -0.931,-1.03802 -0.168,0.0266 -0.306,-0.13571 -0.306,-0.3608 0,-0.22509 -0.209,-0.40926 -0.465,-0.40926 -0.752,0 -1.534,-1.35698 -1.176,-2.0405 0.179,-0.34084 0.317,-1.92501 0.306,-3.52037 -0.01,-1.59537 0.113,-3.11476 0.274,-3.37642 0.162,-0.26167 0.105,-0.47576 -0.126,-0.47576 -0.23,0 -0.345,-0.23021 -0.254,-0.51158 0.153,-0.47365 0.51,-6.26645 0.775,-12.58483 0.1,-2.34433 0,-2.76914 -0.852,-3.57762 -0.531,-0.50457 -1.414,-1.03068 -1.964,-1.16913 -0.55,-0.13844 -0.899,-0.41624 -0.775,-0.61733 0.124,-0.20108 -0.325,-0.3656 -0.999,-0.3656 -0.673,0 -1.337,-0.18417 -1.476,-0.40926 -0.139,-0.2251 -0.962,-0.40927 -1.829,-0.40927 -0.867,0 -2.521,-0.21867 -3.676,-0.48594 -1.678,-0.38856 -2.061,-0.62906 -1.912,-1.20009 0.158,-0.60597 -0.194,-0.7478 -2.319,-0.93627 -5.079,-0.45041 -9.849,-0.73818 -9.859,-0.59475 0,0.0812 -0.307,-0.12867 -0.671,-0.46631 -0.364,-0.33764 -0.586,-0.7393 -0.493,-0.89256 0.09,-0.15327 -0.06,-0.41759 -0.33,-0.58738 -0.624,-0.38627 -7.321,-1.3512 -9.512,-1.37039 l -1.632,-0.0143 -0.07,3.9902 c -0.04,2.19461 -0.09,5.13464 -0.118,6.53339 -0.03,1.39875 -0.231,2.65462 -0.45,2.7908 -0.22,0.13619 -0.295,0.41744 -0.167,0.62501 0.317,0.51472 0.507,4.06774 0.217,4.06877 -0.128,4.5e-4 -0.275,2.16442 -0.328,4.80883 -0.152,7.68762 -0.447,13.5733 -0.702,13.98655 -0.13,0.21042 -0.09,0.47467 0.09,0.5872 0.309,0.19145 0.335,3.1076 0.09,9.8607 -0.06,1.75973 0.06,2.90275 0.335,2.99359 0.839,0.28026 -0.01,1.32189 -1.088,1.32813 -0.846,0.005 -0.947,0.0917 -0.466,0.40299 0.544,0.35265 0.544,0.39771 0,0.40552 -0.337,0.005 -1.151,0.29059 -1.81,0.63501 -0.658,0.34442 -1.484,0.50621 -1.836,0.35952 -0.351,-0.14668 -1.189,-0.33751 -1.863,-0.42407 -2.001,-0.2573 -2.244,-0.47217 -2.244,-1.98629 0,-0.88003 -0.199,-1.44772 -0.51,-1.45153 -0.383,-0.005 -0.39,-0.0825 -0.03,-0.31392 0.301,-0.19215 0.453,-1.26533 0.406,-2.85857 -0.04,-1.48085 0.1,-2.55355 0.334,-2.55719 0.263,-0.004 0.259,-0.11365 -0.01,-0.30695 -0.361,-0.25718 -0.501,-1.94004 -0.187,-2.24468 0.315,-0.30592 0.226,-3.04304 -0.113,-3.47873 -0.269,-0.34478 -0.245,-0.51158 0.07,-0.51158 0.346,0 0.355,-0.21911 0.03,-0.81853 -0.24,-0.45019 -0.292,-0.81865 -0.116,-0.81881 0.486,-4.4e-4 0.51,-2.18012 0.03,-2.76224 -0.302,-0.36622 -0.263,-0.51336 0.138,-0.51784 0.338,-0.004 0.398,-0.12585 0.152,-0.30695 -0.62,-0.45678 -0.695,-1.34401 -0.168,-1.98081 0.26,-0.31395 0.303,-0.57082 0.1,-0.57082 -0.527,0 -0.49,-2.18546 0.04,-2.55162 0.285,-0.19631 0.245,-0.30286 -0.116,-0.30695 -0.335,-0.004 -0.457,-0.26048 -0.308,-0.64981 0.136,-0.35395 0.06,-0.99854 -0.175,-1.43242 -0.231,-0.43388 -0.276,-0.78916 -0.1,-0.7895 0.176,-3.5e-4 0.344,-2.16433 0.372,-4.80884 0.03,-2.64452 0.07,-5.26863 0.1,-5.83137 0.183,-3.92079 0.216,-17.29437 0.05,-20.63095 -0.02,-0.42994 0.2,-0.93358 0.492,-1.11921 0.316,-0.2009 0.347,-0.34004 0.08,-0.34377 -0.376,-0.005 -0.494,-2.14351 -0.158,-2.87111 0.05,-0.11254 0.05,-0.3888 0,-0.61389 -0.266,-1.21902 -0.212,-2.66021 0.101,-2.66021 0.197,0 0.07,-0.28941 -0.283,-0.64313 -0.841,-0.84451 -0.813,-1.40167 0.07,-1.40945 0.431,-0.004 0.54,-0.12573 0.277,-0.30695 -0.841,-0.57699 -0.978,-1.69917 -0.26,-2.11909 0.619,-0.36189 0.623,-0.40904 0.04,-0.42009 -0.851,-0.016 -0.789,-2.76262 0.07,-3.31062 0.323,-0.20496 0.391,-0.37548 0.151,-0.37892 -0.259,-0.004 -0.389,-0.71307 -0.32,-1.74564 0.382,-5.67626 0.4,-7.31027 0.09,-7.50527 -0.194,-0.11994 -0.161,-0.57524 0.07,-1.01177 0.299,-0.56064 0.292,-0.79369 -0.02,-0.79369 -0.255,0 -0.31,-0.21965 -0.129,-0.51158 0.418,-0.67138 0.438,-11.76609 0.02,-11.76621 -0.176,-5e-5 -0.104,-0.40567 0.16,-0.90137 0.359,-0.67146 0.362,-0.94106 0.01,-1.05726 -0.257,-0.0858 -0.467,-0.4366 -0.467,-0.77956 0,-0.4113 0.243,-0.54293 0.714,-0.38667 0.626,0.20746 0.635,0.18066 0.07,-0.21562 -0.58,-0.4091 -0.572,-0.59056 0.09,-1.89071 0.402,-0.79099 0.634,-1.5951 0.516,-1.7869 -0.118,-0.19181 0.09,-0.34874 0.471,-0.34874 0.555,0 0.592,-0.11437 0.193,-0.59596 -0.271,-0.32778 -0.384,-0.77247 -0.251,-0.9882 0.133,-0.21573 0.05,-0.45497 -0.175,-0.53164 -0.243,-0.081 -0.124,-0.55961 0.283,-1.14224 0.891,-1.27612 0.982,-2.49285 0.241,-3.23593 -0.478,-0.47871 -0.485,-0.64362 -0.04,-0.92596 0.352,-0.22399 0.375,-0.34571 0.07,-0.34979 -0.395,-0.005 -0.453,-0.78908 -0.121,-1.64332 0.04,-0.11255 0.06,-0.34276 0.03,-0.51158 -0.03,-0.16882 0.181,-0.30977 0.461,-0.31321 0.377,-0.005 0.366,-0.0983 -0.04,-0.35722 -0.442,-0.28094 -0.454,-0.53446 -0.06,-1.27091 0.284,-0.53252 0.312,-0.80926 0.07,-0.6571 -0.246,0.15223 -0.398,-0.0854 -0.362,-0.5645 0.03,-0.45506 0.216,-0.82737 0.404,-0.82737 0.187,0 0.268,-0.73668 0.178,-1.63705 -0.09,-0.90038 -0.04,-1.63706 0.117,-1.63706 0.154,0 0.22,-2.38207 0.146,-5.2935 l -0.135,-5.29351 1.119,-0.12923 c 0.794,-0.0917 1.12,-0.36133 1.12,-0.9282 0,-0.96842 1.179,-1.35491 4.308,-1.41117 1.303,-0.0235 2.605,-0.29639 3.06,-0.641677 0.435,-0.330483 0.975,-0.603915 1.2,-0.607627 0.224,-0.0037 0.132,0.18862 -0.204,0.427405 -0.544,0.385909 -0.544,0.415529 0,0.266575 0.336,-0.09217 0.635,-0.382442 0.663,-0.645052 0.03,-0.262611 0.07,-0.661642 0.102,-0.886737 0.03,-0.225094 0.407,-0.409262 0.843,-0.409262 0.435,0 0.897,-0.171279 1.026,-0.38062 0.129,-0.209341 1.288,-0.507605 2.574,-0.662808 1.287,-0.155203 2.618,-0.525768 2.958,-0.823477 0.671,-0.587546 4.074,-1.479684 4.074,-1.068 0,0.138705 0.32,-0.203166 0.711,-0.759714 0.391,-0.556547 0.667,-1.150031 0.612,-1.318852 -0.137,-0.426282 0.22,-0.383735 1.202,0.143147 0.609,0.327284 0.762,0.327284 0.561,0 -0.153,-0.247551 -0.04,-0.45452 0.256,-0.459929 2.913,-0.05364 7.906,-0.577238 8.007,-0.839759 0.07,-0.182717 0.391,-0.231366 0.711,-0.108109 0.32,0.123256 0.694,-0.06789 0.83,-0.424759 0.198,-0.517896 0.417,-0.558159 1.086,-0.199483 0.696,0.373981 0.796,0.341887 0.592,-0.191284 -0.179,-0.465693 -0.07,-0.571474 0.413,-0.387324 0.438,0.168737 0.559,0.09344 0.363,-0.225475 -0.194,-0.313889 0.04,-0.478812 0.667,-0.478812 0.53,0 1.21,-0.23021 1.512,-0.511579 0.443,-0.412329 0.489,-0.404407 0.237,0.04083 -0.253,0.446564 -0.148,0.46341 0.552,0.08792 0.476,-0.255471 0.865,-0.560967 0.865,-0.678879 0,-0.117912 -0.229,-0.07608 -0.51,0.09296 -0.346,0.208837 -0.33,0.0854 0.05,-0.38511 0.634,-0.784231 4.54,-1.007087 4.54,-0.259039 0,0.238379 -0.164,0.331521 -0.365,0.206982 -0.201,-0.124539 -0.47,0.04655 -0.597,0.3802 -0.128,0.333649 -0.101,0.587034 0.06,0.563078 1.033,-0.154396 1.668,0.120059 1.471,0.635289 -0.122,0.320053 -0.03,0.946233 0.209,1.39151 0.34,0.635698 0.293,0.863377 -0.218,1.05998 -0.526,0.202622 -0.554,0.366567 -0.147,0.859436 0.278,0.334979 0.342,0.609052 0.145,0.609052 -0.198,0 -0.307,1.795641 -0.242,3.990313 0.148,5.02963 0.106,7.11684 -0.15,7.53345 -0.111,0.18037 0,0.72231 0.265,1.20432 0.38,0.71146 0.364,0.81379 -0.08,0.54379 -0.43,-0.25992 -0.45,-0.20365 -0.09,0.25755 0.586,0.75324 0.944,3.25035 0.467,3.25035 -0.199,0 -0.229,0.2163 -0.07,0.48067 0.163,0.26437 0.335,2.42835 0.382,4.80884 0.05,2.38049 0.115,4.97276 0.152,5.76059 0.04,0.78783 0,1.98493 -0.1,2.66021 -0.09,0.67528 -0.01,1.63565 0.172,2.13414 0.186,0.4985 0.205,0.98964 0.04,1.09143 -0.165,0.10179 -0.237,1.53561 -0.162,3.18627 0.179,3.93135 0.179,3.82396 -0.01,6.78689 -0.09,1.44253 0,2.55789 0.217,2.55789 0.214,0 0.261,0.49832 0.106,1.12547 -0.22,0.89136 -0.311,4.69553 -0.184,7.67368 0.01,0.2251 -0.06,1.1093 -0.143,1.9649 -0.09,0.8556 -0.05,1.62432 0.08,1.70826 0.135,0.0839 0.292,0.75551 0.348,1.49239 0.06,0.73688 0.183,1.42171 0.283,1.52185 0.1,0.10014 1.976,0.36833 4.17,0.59598 3.942,0.4092 6.573,1.45021 6.002,2.37574 -0.131,0.21345 -0.09,0.36173 0.1,0.3295 0.185,-0.0322 0.934,-0.0368 1.663,-0.0101 1.087,0.0397 1.327,0.21459 1.332,0.9693 0,0.74463 0.08,0.80337 0.402,0.30695 0.232,-0.36025 0.398,-0.41451 0.402,-0.13133 0,0.26541 1.062,0.69447 2.352,0.95348 3.916,0.78602 5.331,1.30149 5.516,2.00892 0.189,0.72552 5.02,1.59624 9.887,1.78201 2.194,0.0838 2.461,0.18874 2.578,1.01429 0.07,0.50646 0.347,0.94889 0.612,0.98317 0.265,0.0343 0.665,0.10513 0.89,0.15743 0.224,0.0523 0.799,0.11633 1.276,0.14229 1.264,0.0687 1.733,1.74303 1.651,5.89427 -0.05,2.57493 -0.233,3.69635 -0.641,3.94911 -0.392,0.24327 -0.627,1.47891 -0.754,3.97525 -0.286,5.60058 -0.262,13.78218 0.04,15.00394 0.152,0.60546 0.134,1.10081 -0.04,1.10078 -0.279,-4e-5 -0.338,5.06791 -0.121,10.23162 0.09,2.16079 -0.33,9.07287 -0.567,9.31087 -0.09,0.0901 -0.01,0.69995 0.177,1.35526 0.188,0.6553 0.21,1.27228 0.05,1.37105 -0.159,0.0988 -0.326,1.20272 -0.37,2.4532 -0.06,1.65991 -0.303,2.49666 -0.904,3.10002 -0.453,0.45454 -0.824,1.0106 -0.824,1.23569 0,0.46238 -2.104,0.53974 -4.052,0.14899 -0.85,-0.17062 -1.225,-0.44805 -1.089,-0.80542 0.115,-0.29983 0.06,-0.63961 -0.13,-0.75506 -0.186,-0.11546 -0.268,-1.18033 -0.183,-2.36637 0.09,-1.18605 0.21,-3.02675 0.278,-4.09045 0.07,-1.0637 0.244,-2.0548 0.391,-2.20244 0.148,-0.14764 0.07,-0.63479 -0.166,-1.08254 -0.329,-0.6155 -0.315,-0.74009 0.06,-0.5107 0.369,0.22875 0.383,0.10527 0.06,-0.50181 -0.308,-0.57722 -0.296,-0.93884 0.04,-1.27717 0.356,-0.35644 0.331,-0.47196 -0.1,-0.47196 -0.445,0 -0.463,-0.10914 -0.08,-0.49112 0.625,-0.62713 0.639,-1.28671 0.02,-0.90222 -0.324,0.20045 -0.358,0.11179 -0.111,-0.2828 0.424,-0.67493 0.609,-5.83831 0.623,-17.35459 0,-1.57566 0.01,-3.32526 0.02,-3.88799 0,-0.56274 0,-1.85192 -0.02,-2.86484 -0.02,-1.01293 -0.03,-2.19345 -0.02,-2.62339 0,-0.42993 -0.222,-0.93358 -0.514,-1.1192 -0.408,-0.25941 -0.412,-0.33896 -0.02,-0.34378 0.28,-0.003 0.51,-0.18465 0.51,-0.40268 0,-0.68762 -1.38,0.0124 -3.2,1.62421 -0.728,0.64441 -3.222,1.63705 -4.112,1.63705 -1.135,0 -3.337,1.35054 -3.121,1.9142 0.123,0.32258 -0.09,0.66794 -0.489,0.79137 -0.389,0.12046 -1.026,0.38974 -1.415,0.59841 -0.39,0.20866 -1.064,0.37938 -1.497,0.37938 -1.218,0 -2.046,0.42747 -1.849,0.95471 0.212,0.5668 -1.794,1.5916 -2.39,1.22163 -0.236,-0.14624 -0.289,-0.0534 -0.123,0.21601 0.194,0.31544 -0.1,0.47249 -0.886,0.47249 -0.728,0 -1.543,0.39039 -2.135,1.02316 -0.527,0.56274 -1.174,1.02316 -1.437,1.02316 -0.263,0 -0.914,0.3793 -1.447,0.84289 -0.714,0.621 -0.937,1.18661 -0.848,2.14863 0.124,1.33197 0.45,22.3858 0.424,27.39625 0,1.78818 0.149,2.76252 0.447,2.76252 0.256,0 0.326,0.21953 0.156,0.49427 -0.382,0.62063 -0.513,13.82993 -0.136,13.82993 0.152,0 0.252,0.59855 0.223,1.33011 -0.05,1.24729 -0.163,1.34484 -1.813,1.56687 -1.675,0.22549 -2.685,0.98264 -2.251,1.68769 0.111,0.17957 0,0.32649 -0.239,0.32649 -0.243,0 -0.65,-0.46042 -0.906,-1.02316 z m 0.686,-10.88004 c 0,-6.27625 -0.141,-9.37769 -0.428,-9.378 -0.236,-2.6e-4 -0.428,0.45995 -0.428,1.02268 0,0.56274 0.136,1.02316 0.302,1.02316 0.166,0 0.05,0.49676 -0.269,1.10391 -0.317,0.61249 -0.421,1.2957 -0.234,1.53474 0.186,0.23695 0.288,3.19335 0.228,6.56977 -0.06,3.37641 -0.01,6.56189 0.103,7.07884 0.521,2.3023 0.726,-0.23508 0.726,-8.9551 z m 2.514,5.11508 c 0.04,-1.33117 0.104,-2.60447 0.15,-2.82956 0.05,-0.2251 0.04,-0.59343 -0.01,-0.81853 -0.06,-0.22509 -0.135,-2.25094 -0.177,-4.50189 -0.101,-5.33779 -0.829,-4.99622 -0.873,0.40926 -0.02,2.25095 -0.08,5.38181 -0.133,6.95747 -0.126,3.63271 -0.134,3.57931 0.473,3.37525 0.32,-0.10793 0.534,-1.07065 0.575,-2.592 z m -51.447,-2.93814 c 0.24,-0.16538 0.449,-1.43599 0.464,-2.82359 0.02,-1.38759 0.144,-2.71009 0.285,-2.93887 0.14,-0.22879 0.08,-0.52327 -0.129,-0.65441 -0.211,-0.13113 -0.251,-0.74241 -0.09,-1.35838 0.162,-0.61598 0.266,-1.53433 0.229,-2.0408 -0.04,-0.50646 0.103,-0.92084 0.31,-0.92084 0.207,0 0.239,-0.22308 0.07,-0.49574 -0.372,-0.60414 -0.543,-4.82468 -0.195,-4.82468 0.137,0 0.249,-0.53491 0.249,-1.1887 0,-0.65379 -0.138,-1.10334 -0.307,-0.99901 -0.168,0.10434 -0.306,-0.005 -0.306,-0.24371 0,-0.23838 0.156,-0.43342 0.347,-0.43342 0.4,0 0.307,-3.08114 -0.135,-4.47738 -0.223,-0.70679 -0.169,-0.86496 0.216,-0.62642 0.369,0.22864 0.412,0.15614 0.153,-0.25569 -0.493,-0.78423 -0.573,-2.82576 -0.11,-2.82576 0.21,0 0.189,-0.3473 -0.05,-0.79369 -0.294,-0.55071 -0.292,-0.87509 0,-1.05959 0.277,-0.17152 0.29,-0.43457 0.04,-0.74105 -0.253,-0.30755 -0.205,-1.01814 0.138,-2.01454 0.291,-0.84667 0.399,-1.61967 0.241,-1.71778 -0.252,-0.15595 -0.288,-4.92808 -0.04,-4.92808 0.05,0 0.154,-2.11794 0.224,-4.70653 0.07,-2.58858 0.235,-6.04174 0.367,-7.67367 0.176,-2.16535 0.109,-2.96716 -0.248,-2.96716 -0.269,0 -0.134,-0.25992 0.299,-0.5776 0.433,-0.31768 0.915,-0.49885 1.07,-0.40259 0.155,0.0963 0.392,-0.003 0.526,-0.22124 0.148,-0.23923 0.927,-0.10418 1.967,0.3408 0.947,0.40539 2.433,0.86955 3.302,1.03147 1.727,0.3218 3.147,0.99996 3.617,1.72762 0.253,0.39189 9.569,1.30213 10.625,1.03813 0.174,-0.0436 0.416,0.17827 0.536,0.49312 0.128,0.33418 0.55,0.48555 1.015,0.36365 0.512,-0.1342 1.178,0.17443 1.866,0.86376 0.588,0.58991 1.549,1.08415 2.135,1.09831 0.587,0.0142 2.592,0.17192 4.455,0.35056 2.744,0.26294 3.502,0.48643 3.982,1.17339 0.543,0.77857 1.405,1.05313 6.168,1.96464 0.489,0.0936 1.136,0.40019 1.437,0.68122 0.645,0.6003 1.374,0.83306 2.767,0.88352 0.896,0.0324 1.013,-0.13027 1.003,-1.39571 0,-1.1406 -0.174,-1.43553 -0.81,-1.44765 -1.047,-0.02 -1.891,-0.55881 -1.605,-1.02421 0.302,-0.48919 -0.951,-0.72592 -4.97,-0.93937 -3.553,-0.1887 -4.22,-0.39519 -4.22,-1.30661 0,-0.34465 -0.246,-0.48206 -0.612,-0.34132 -0.337,0.12957 -0.612,0.0608 -0.612,-0.15269 0,-0.57548 -2.645,-1.23937 -6.206,-1.55757 -2.699,-0.24125 -3.236,-0.4196 -3.783,-1.25774 -0.374,-0.57167 -1.037,-0.97663 -1.599,-0.97663 -0.529,0 -1.62,-0.27625 -2.426,-0.61389 -0.805,-0.33764 -2.011,-0.6139 -2.678,-0.6139 -0.668,0 -1.88,-0.39428 -2.695,-0.87619 -0.814,-0.4819 -2.064,-1.00389 -2.777,-1.15997 -0.713,-0.15608 -1.253,-0.49184 -1.2,-0.74613 0.06,-0.27331 -0.178,-0.35627 -0.577,-0.2029 -0.45,0.17339 -0.577,0.10153 -0.381,-0.21663 0.193,-0.3126 -0.03,-0.46182 -0.647,-0.43453 -0.517,0.0229 -1.858,-0.17246 -2.98,-0.43404 -3.797,-0.88519 -6.04,-1.22162 -6.45,-0.96744 -0.231,0.14297 -0.282,0.0475 -0.117,-0.21935 0.161,-0.26248 0.05,-0.48686 -0.243,-0.50481 -0.407,-0.0246 -0.414,-0.0813 -0.03,-0.23764 0.369,-0.14933 0.393,-0.41961 0.09,-0.99085 -0.339,-0.63583 -0.28,-0.79167 0.309,-0.81782 0.428,-0.019 0.518,-0.11757 0.219,-0.23874 -0.281,-0.11353 -0.511,-0.46733 -0.511,-0.78621 0,-0.31889 0.23,-0.58261 0.511,-0.58606 0.385,-0.005 0.391,-0.0817 0.02,-0.31521 -0.266,-0.16992 -0.429,-0.81168 -0.362,-1.42615 0.07,-0.61447 0.01,-1.11722 -0.128,-1.11724 -0.137,-1e-5 -0.25,-2.39421 -0.25,-5.32043 0,-2.92623 0.122,-5.3204 0.27,-5.32039 0.149,1e-5 0.209,-0.32228 0.134,-0.7162 -0.08,-0.39391 -0.171,-0.71621 -0.212,-0.71621 -0.09,0 -0.396,-2.61195 -0.409,-3.47873 -0.01,-0.82422 0.372,-9.27553 0.497,-10.94778 0.06,-0.73156 0.204,-1.33011 0.333,-1.33011 0.128,0 0.233,-0.35481 0.233,-0.78848 0,-0.43366 -0.145,-0.69904 -0.321,-0.58974 -0.441,0.27365 -0.401,-0.1613 0.102,-1.10426 0.281,-0.52651 0.284,-0.79162 0.01,-0.79162 -0.248,0 -0.288,-0.36637 -0.1,-0.92084 0.172,-0.50646 0.289,-1.7496 0.261,-2.76253 -0.03,-1.01292 0.04,-2.00748 0.147,-2.21012 0.303,-0.56119 0.362,-7.61219 0.06,-7.61219 -0.335,0 -0.243,-1.30321 0.134,-1.91622 0.159,-0.25818 0.254,-1.73525 0.209,-3.28237 -0.04,-1.54712 0.06,-3.0362 0.226,-3.30906 0.18,-0.29163 0.09,-0.49871 -0.228,-0.5024 -0.41,-0.005 -0.418,-0.0803 -0.04,-0.32391 0.29,-0.18492 0.412,-0.79454 0.292,-1.45893 -0.155,-0.85515 -0.08,-1.06206 0.318,-0.82531 0.413,0.24914 0.421,0.18851 0.04,-0.28669 -0.57,-0.70756 -0.615,-4.05636 -0.05,-4.05636 0.211,0 0.28,-0.16844 0.153,-0.37431 -0.127,-0.20586 0,-0.46758 0.282,-0.58158 0.286,-0.11546 0.166,-0.22159 -0.269,-0.23959 -0.431,-0.0178 -0.667,-0.14861 -0.525,-0.29075 0.416,-0.41681 -0.494,-1.77593 -1.046,-1.56268 -0.335,0.1297 -0.536,1.38852 -0.6,3.77044 -0.127,4.69715 -0.5,7.46373 -1.008,7.46373 -0.227,0 -0.284,0.32067 -0.128,0.71621 0.506,1.28237 0.54,1.91023 0.251,4.70972 -0.157,1.51763 -0.155,2.75933 0,2.75933 0.29,0 0.1,1.3101 -0.361,2.45557 -0.465,1.16178 -0.952,9.53055 -1.192,20.46315 -0.43,19.69347 -0.821,71.621 -0.538,71.62102 0.31,2e-5 0.249,9.30766 -0.06,9.61996 -0.145,0.14517 -0.109,0.80259 0.08,1.46093 0.188,0.65834 0.207,1.19698 0.04,1.19698 -0.381,0 -0.289,3.37297 0.109,4.01955 0.333,0.53908 1.447,0.62829 2.114,0.16913 z m 3.309,-2.58689 c 0.04,-1.21863 0.157,-4.24154 0.258,-6.71758 0.126,-3.08689 0.04,-4.5964 -0.278,-4.80257 -0.318,-0.20727 -0.287,-0.30263 0.1,-0.30695 0.463,-0.005 0.468,-0.11739 0.03,-0.65135 -0.43,-0.51927 -0.433,-0.70772 -0.02,-0.9662 0.403,-0.24961 0.382,-0.37361 -0.09,-0.55686 -0.337,-0.12966 -0.688,-0.0172 -0.779,0.24999 -0.153,0.44757 -0.05,5.13433 0.12,5.60152 0.04,0.11255 0.02,0.3888 -0.04,0.6139 -0.06,0.22509 -0.155,1.47736 -0.205,2.78281 -0.05,1.30545 -0.203,2.4856 -0.339,2.62255 -0.137,0.13695 -0.04,0.49616 0.206,0.79824 0.327,0.39475 0.329,0.54923 0,0.54923 -0.31,0 -0.328,0.31694 -0.06,1.02316 0.242,0.63962 0.243,1.02316 0,1.02316 -0.212,0 -0.276,0.28403 -0.143,0.63119 0.491,1.28466 1.163,0.25409 1.234,-1.89424 z m 48,-7.77236 c -0.264,-0.26513 -0.322,-0.96157 -0.146,-1.74709 0.162,-0.71841 0.217,-1.67106 0.124,-2.117 -0.09,-0.44595 -0.194,-1.40936 -0.222,-2.14091 -0.03,-0.73156 -0.196,-1.33011 -0.374,-1.33011 -0.179,0 -0.31,1.7496 -0.293,3.888 0.03,3.29587 0.131,3.888 0.691,3.888 0.471,0 0.534,-0.12588 0.22,-0.44089 z m -2.362,-2.93553 c 0,-0.73156 0.17,-1.46541 0.394,-1.63079 0.251,-0.18481 0.207,-0.30309 -0.114,-0.30694 -0.542,-0.006 -0.669,0.24452 -1.083,2.14236 -0.17,0.77811 -0.08,1.12547 0.286,1.12547 0.33,0 0.526,-0.50293 0.517,-1.3301 z m 30.792,0.10231 c 0.336,-0.2182 0.428,-0.39988 0.204,-0.40374 -0.63,-0.0108 -0.509,-6.58125 0.142,-7.72859 0.315,-0.55455 0.358,-0.85072 0.101,-0.69129 -0.497,0.30799 -0.429,-0.86654 0.1,-1.71489 0.187,-0.30075 0.119,-0.51158 -0.164,-0.51158 -0.349,0 -0.335,-0.17823 0.05,-0.64509 0.442,-0.53462 0.433,-0.70876 -0.05,-1.01689 -0.448,-0.2838 -0.459,-0.37329 -0.05,-0.37807 0.362,-0.004 0.448,-0.29069 0.263,-0.87604 -0.203,-0.63977 -0.14,-0.78539 0.239,-0.55066 0.371,0.22965 0.411,0.15797 0.146,-0.2557 -0.452,-0.70435 -0.494,-4.87192 -0.05,-4.87201 0.176,-3e-5 0.13,-0.35722 -0.103,-0.79375 -0.233,-0.43653 -0.285,-0.87942 -0.116,-0.98421 0.264,-0.16422 0.359,-9.61849 0.167,-16.63893 -0.08,-2.89174 0,-3.68337 0.374,-3.68337 0.166,0 0.205,-0.36834 0.09,-0.81852 -0.135,-0.51907 -0.557,-0.81853 -1.151,-0.81853 -0.841,0 -0.927,0.17072 -0.833,1.6529 0.06,0.9091 -0.02,1.72907 -0.168,1.82214 -0.292,0.18101 -0.448,4.32782 -0.339,9.00748 0.09,3.71964 0.02,10.88803 -0.209,22.20251 -0.188,9.33438 -0.136,9.66534 1.358,8.69683 z m 2.312,-1.24143 c 0,-0.89128 -0.125,-1.11637 -0.442,-0.79806 -0.68,0.68224 -0.441,1.87685 0.408,2.03323 0.02,0.003 0.03,-0.55238 0.03,-1.23517 z m -0.124,-3.71956 c -0.06,-1.15289 0.125,-2.48811 0.401,-2.96716 0.461,-0.79689 0.524,-1.3905 0.267,-2.50805 -0.235,-1.02321 -0.189,-1.67639 0.153,-2.158 0.27,-0.37949 0.188,-0.45095 -0.299,-0.26316 -0.78,0.30014 -0.726,0.099 -0.879,3.23969 -0.07,1.35056 -0.156,2.45557 -0.2,2.45557 -0.05,0 -0.117,0.96689 -0.16,2.14863 -0.05,1.33977 0.09,2.14863 0.369,2.14863 0.282,0 0.412,-0.78109 0.348,-2.09615 z m -34.877,-0.66637 c 0.04,-1.29429 0.138,-4.01078 0.215,-6.03663 0.08,-2.07273 -0.04,-3.90706 -0.267,-4.19494 -0.272,-0.34102 -0.272,-0.51158 0,-0.51158 0.537,0 0.418,-11.14833 -0.121,-11.32851 -0.224,-0.0748 -0.441,1.15373 -0.502,2.83578 -0.06,1.63223 -0.195,3.79644 -0.303,4.80936 -0.108,1.01293 -0.272,4.27269 -0.365,7.24391 -0.09,2.97122 -0.287,5.59562 -0.433,5.83199 -0.146,0.23638 -0.02,0.44432 0.269,0.46209 0.294,0.0178 0.342,0.11276 0.107,0.21109 -0.235,0.0983 -0.353,0.82046 -0.261,1.60474 0.118,1.01863 0.369,1.42596 0.876,1.42596 0.584,0 0.724,-0.41832 0.785,-2.35326 z m -43.506,-2.66021 c -0.05,-2.33086 0.05,-2.76994 0.632,-2.81 0.626,-0.043 0.624,-0.0652 -0.02,-0.23464 -0.837,-0.21939 -0.903,-0.59266 -0.225,-1.27308 0.27,-0.27012 0.339,-0.49112 0.154,-0.49112 -0.184,0 -0.107,-0.27625 0.173,-0.61389 0.285,-0.34461 0.328,-0.6139 0.1,-0.6139 -0.244,0 -0.355,-1.0318 -0.276,-2.55789 1.012,-19.43721 1.001,-24.59771 -0.05,-23.54646 -0.257,0.25819 -0.542,4.42132 -0.806,11.78015 -0.101,2.81369 -0.284,7.41789 -0.408,10.23158 -0.209,4.76702 -0.319,11.82905 -0.214,13.7103 l 0.04,0.81853 0.478,-0.81853 c 0.263,-0.45019 0.451,-2.06166 0.418,-3.58105 z m 46.002,1.1318 c 0,-0.0609 -0.237,-0.30725 -0.525,-0.54744 -0.395,-0.32879 -0.525,-0.25153 -0.525,0.31266 0,0.44244 0.215,0.66665 0.525,0.54743 0.288,-0.11105 0.525,-0.25175 0.525,-0.31265 z m 1.632,0.21195 c 0,-0.14256 -0.221,-0.4802 -0.49,-0.75032 -0.381,-0.38198 -0.374,-0.49111 0.03,-0.49111 0.301,0 0.469,-0.38631 0.4,-0.92084 -0.06,-0.50647 0.03,-1.15106 0.199,-1.43242 0.183,-0.29412 0.124,-0.51158 -0.138,-0.51158 -0.251,0 -0.351,-0.17145 -0.222,-0.38099 0.129,-0.20954 0.05,-0.49666 -0.18,-0.63804 -0.233,-0.14436 -0.427,0.15725 -0.443,0.68793 -0.02,0.51974 -0.06,1.7891 -0.103,2.82078 -0.05,1.26847 0.09,1.87579 0.437,1.87579 0.281,0 0.511,-0.11664 0.511,-0.2592 z m 0,-7.37934 c -0.356,-0.22073 -0.349,-3.03721 0.02,-9.41408 0.05,-0.78783 -0.06,-1.96443 -0.232,-2.61467 l -0.316,-1.18225 -0.481,1.17949 c -0.28,0.68782 -0.366,1.80832 -0.206,2.68801 0.152,0.82968 0.146,1.71876 -0.01,1.97573 -0.159,0.25697 -0.172,1.14481 -0.03,1.97298 0.142,0.82817 0.21,2.33451 0.152,3.34744 -0.06,1.01293 0,2.30188 0.122,2.86435 0.223,0.98999 0.249,0.9973 0.809,0.22876 0.362,-0.49653 0.426,-0.88823 0.172,-1.04576 z m 31.401,-0.22353 c -0.308,-0.37181 -0.296,-0.6077 0.04,-0.81539 0.344,-0.21343 0.322,-0.38877 -0.08,-0.65033 -0.405,-0.26234 -0.427,-0.44018 -0.08,-0.66505 0.707,-0.46088 0.73,-0.63586 0.207,-1.6152 -0.399,-0.7486 -0.36,-0.96903 0.237,-1.31766 0.394,-0.23027 0.533,-0.42145 0.309,-0.42484 -1.042,-0.0158 -1.493,0.77104 -1.425,2.48228 0.04,0.98795 0.03,1.93439 -0.01,2.10321 -0.09,0.32691 -0.113,1.7737 -0.04,2.19874 0.02,0.14011 0.323,0.0236 0.662,-0.25893 0.447,-0.37181 0.497,-0.65816 0.184,-1.03683 z m 0.261,-6.22966 c 0.305,-0.20326 0.189,-0.5659 -0.359,-1.11921 -0.809,-0.81816 -0.809,-0.81813 -0.351,0.0693 0.348,0.67648 0.337,0.93671 -0.05,1.09316 -0.279,0.11294 -0.324,0.21706 -0.1,0.23138 0.224,0.0143 0.611,-0.10926 0.858,-0.27463 z m -0.02,-12.08482 c -0.03,-1.17343 -0.191,-2.36311 -0.364,-2.64373 -0.179,-0.29125 -0.119,-0.51023 0.142,-0.51023 0.251,0 0.343,-0.18417 0.204,-0.40926 -0.627,-1.01713 -0.9,-0.20572 -0.724,2.14863 0.105,1.40684 0.175,3.01831 0.155,3.58105 -0.02,0.68246 0.08,0.84732 0.301,0.4951 0.185,-0.29042 0.314,-1.48813 0.286,-2.66156 z m -30.823,1.92965 c 0.561,0.0454 1.479,-0.13372 2.04,-0.39806 0.561,-0.26434 1.249,-0.39845 1.53,-0.29803 0.28,0.10042 0.51,0.005 0.51,-0.21305 0,-0.2176 0.391,-0.49821 0.869,-0.62359 0.577,-0.15153 0.788,-0.44054 0.626,-0.86208 -0.173,-0.45247 0.08,-0.69736 0.865,-0.85482 0.609,-0.12138 1.908,-0.49015 2.886,-0.81951 0.978,-0.32935 1.97,-0.47971 2.205,-0.33414 0.249,0.15422 0.306,0.0675 0.136,-0.20783 -0.16,-0.25987 -0.556,-0.4725 -0.879,-0.4725 -0.323,0 -0.588,-0.21486 -0.588,-0.47747 0,-0.26261 0.121,-0.35629 0.269,-0.20818 0.147,0.14811 0.512,0.0661 0.81,-0.18221 0.299,-0.24833 0.841,-0.33672 1.205,-0.19644 0.461,0.17715 0.596,0.079 0.443,-0.32129 -0.219,-0.57172 -0.07,-0.63219 3.291,-1.30605 0.73,-0.14636 1.326,-0.43876 1.326,-0.6498 0,-0.21103 0.63,-0.64742 1.399,-0.96975 0.769,-0.32233 1.506,-0.92683 1.638,-1.34333 0.131,-0.41649 0.466,-0.77317 0.743,-0.79261 0.568,-0.0398 1.532,-0.28135 3.432,-0.85976 0.712,-0.21686 1.418,-0.273 1.569,-0.12475 0.15,0.14825 0.21,-0.0988 0.132,-0.54898 -0.09,-0.50434 0.06,-0.77701 0.387,-0.71037 0.407,0.0833 0.426,-0.0823 0.08,-0.72205 -0.244,-0.45662 -0.298,-0.80578 -0.12,-0.77591 1.439,0.24158 3.857,-0.16909 4.614,-0.78356 0.894,-0.7264 0.98,-1.22919 0.693,-4.0679 -0.07,-0.73431 0.06,-1.34458 0.298,-1.36241 0.237,-0.0178 0.194,-0.12777 -0.1,-0.24443 -0.387,-0.15571 -0.409,-0.35512 -0.08,-0.74978 0.326,-0.39419 0.303,-0.6195 -0.08,-0.84435 -0.292,-0.16867 -0.391,-0.15269 -0.22,0.0355 0.405,0.44825 -1.328,2.2943 -1.85,1.9704 -0.221,-0.13695 -0.319,3.6e-4 -0.218,0.30511 0.271,0.81375 -1.848,2.42379 -3.197,2.43027 -1.554,0.007 -3.036,0.42556 -2.81,0.79277 0.1,0.16282 -0.08,0.67974 -0.413,1.14872 -0.451,0.64589 -1.224,0.92023 -3.187,1.13115 -3.071,0.32979 -3.619,0.60921 -3.683,1.87748 -0.04,0.78185 -0.36,1.01475 -1.783,1.29683 -0.954,0.18911 -1.734,0.53864 -1.734,0.77674 0,0.2381 -0.382,0.33279 -0.848,0.21041 -0.617,-0.16185 -0.788,-0.0645 -0.627,0.35736 0.143,0.37365 -0.135,0.6699 -0.783,0.83303 -0.553,0.13925 -1.006,0.43885 -1.006,0.6658 0,0.22695 -0.367,0.31631 -0.816,0.19858 -0.449,-0.11773 -0.816,-0.0471 -0.816,0.1569 0,0.20402 0.224,0.37095 0.499,0.37095 1.252,0 -1.328,1.13462 -3.125,1.37392 -2.413,0.32148 -3.796,1.14737 -3.975,2.37412 -0.08,0.58205 -0.527,1.00897 -1.245,1.20023 -1.363,0.36331 -2.53,1.44305 -1.948,1.80331 0.276,0.17128 0.277,0.50842 0,1.02234 -0.59,1.10542 -0.534,1.84066 0.101,1.32492 0.28,-0.22793 0.969,-0.37727 1.53,-0.33187 z m -2.007,-4.08109 c 0.279,-0.17327 0.277,-0.4226 0,-0.76614 -0.606,-0.73272 1.093,-2.09598 3.073,-2.46462 0.876,-0.16313 1.932,-0.60331 2.348,-0.97817 0.415,-0.37487 1.425,-0.87627 2.244,-1.11422 1.043,-0.30305 1.47,-0.65137 1.426,-1.16294 -0.05,-0.52861 0.152,-0.67403 0.714,-0.52653 0.427,0.11209 0.777,0.0507 0.777,-0.13637 0,-0.38354 4.086,-1.67433 4.496,-1.42026 0.145,0.0902 0.264,-0.10416 0.264,-0.4319 0,-0.32774 -0.164,-0.59589 -0.364,-0.59589 -0.2,0 -0.249,-0.18717 -0.108,-0.41594 0.141,-0.22876 0.425,-0.31128 0.632,-0.18337 0.206,0.12791 0.276,-0.0268 0.154,-0.34375 -0.167,-0.43716 0.345,-0.64292 2.12,-0.85221 1.287,-0.15175 2.617,-0.50052 2.956,-0.77505 0.506,-0.41094 0.553,-0.39066 0.263,0.11474 -0.227,0.39539 -0.04,0.34162 0.517,-0.15104 0.479,-0.42072 0.856,-0.88114 0.838,-1.02316 -0.135,-1.08832 0.212,-1.28137 2.309,-1.28137 1.234,0 2.244,-0.1736 2.244,-0.38577 0,-0.21217 0.329,-0.32211 0.732,-0.24432 0.492,0.0951 0.752,-0.12486 0.793,-0.6716 0.08,-1.12843 1.984,-2.79094 3.188,-2.79094 0.549,0 1.398,-0.40031 1.886,-0.88958 0.507,-0.50876 0.626,-0.78927 0.278,-0.65526 -0.521,0.20037 -3.337,-0.20182 -4.633,-0.6617 -0.225,-0.0796 -0.991,-0.28059 -1.704,-0.44664 -0.911,-0.21216 -1.228,-0.48121 -1.066,-0.905 0.19,-0.49485 0.3,-0.50512 0.613,-0.0572 0.304,0.43411 0.349,0.42019 0.216,-0.068 -0.09,-0.33764 -0.61,-0.65619 -1.153,-0.70788 -0.543,-0.0517 -2.272,-0.19689 -3.843,-0.32267 -5.161,-0.41325 -7.755,-1.00864 -8.315,-1.90859 -0.424,-0.68065 -0.42,-0.77458 0.02,-0.52238 0.396,0.22531 0.423,0.17945 0.102,-0.17156 -0.241,-0.26348 -1.113,-0.5045 -1.938,-0.53561 -0.825,-0.0311 -1.5,-0.18556 -1.5,-0.34323 0,-0.15767 -0.457,-0.2364 -1.015,-0.17496 -1.501,0.16532 -3.847,-0.65508 -3.614,-1.26394 0.108,-0.28302 0,-0.63487 -0.235,-0.78187 -0.256,-0.15866 -0.339,-0.026 -0.204,0.32646 0.125,0.32657 0.03,0.71534 -0.208,0.86394 -0.391,0.24199 -0.616,-0.27348 -0.485,-1.10823 0.04,-0.2735 -1.27,-0.47365 -2.72,-0.4145 -0.427,0.0174 -0.427,-0.099 0,-0.62798 0.289,-0.35716 0.328,-0.53137 0.09,-0.38713 -0.24,0.14424 -0.96,-0.0101 -1.6,-0.34303 -0.829,-0.43139 -1.244,-0.4743 -1.444,-0.14937 -0.192,0.31144 -0.352,0.26909 -0.507,-0.13368 -0.24,-0.62983 -3.439,-1.24095 -4.153,-0.79357 -0.235,0.14692 -0.794,0.2901 -1.243,0.31817 -1.047,0.0655 -3.55,1.59581 -3.194,1.95277 0.148,0.14926 -0.309,0.27137 -1.017,0.27137 -1.091,0 -1.273,0.14016 -1.19,0.9186 0.08,0.80851 -0.196,0.98579 -2.351,1.47926 -3.058,0.70028 -3.687,1.02284 -3.616,1.85373 0.03,0.36276 -0.198,0.68259 -0.51,0.71073 -0.678,0.0613 -0.736,0.0754 -2.81,0.68917 -0.898,0.26559 -2.136,0.48392 -2.751,0.48517 -0.721,0.001 -1.498,0.4287 -2.184,1.20118 -0.675,0.7593 -1.639,1.29616 -2.631,1.46417 -1.009,0.17099 -1.496,0.44625 -1.37,0.77452 0.275,0.71902 -1.389,1.3776 -4.323,1.7105 -2.098,0.23811 -2.571,0.43828 -2.864,1.21217 -0.194,0.50983 -0.55,1.04967 -0.792,1.19963 -0.241,0.14997 -0.348,0.42067 -0.237,0.60156 0.112,0.1809 -1.079,0.45557 -2.645,0.6104 -2.077,0.20523 -2.848,0.44112 -2.848,0.87062 0,0.32401 -0.178,0.58911 -0.396,0.58911 -0.217,0 -0.296,0.25815 -0.175,0.57366 0.268,0.70024 1.908,1.018 5.671,1.0985 2.869,0.0614 4.148,0.53177 5.626,2.07019 0.453,0.4711 1.305,0.76012 2.244,0.76107 0.833,8.4e-4 2.115,0.36918 2.85,0.81853 0.735,0.44934 1.708,0.81699 2.162,0.81699 0.454,0 1.586,0.36834 2.515,0.81853 0.929,0.45019 2.091,0.81852 2.582,0.81852 0.492,0 1.122,0.27626 1.402,0.6139 0.279,0.33764 0.771,0.61389 1.094,0.61389 0.322,0 0.491,0.15417 0.375,0.3426 -0.116,0.18843 0.837,0.36669 2.118,0.39613 3.322,0.0764 7.021,1.03686 7.021,1.82322 0,0.19316 0.177,0.24153 0.393,0.10749 0.217,-0.13405 0.742,0.10568 1.168,0.53273 0.609,0.61133 1.439,0.79193 3.904,0.84925 1.722,0.04 3.317,-0.0428 3.545,-0.18406 z m 32.685,-2.74189 c 0.324,-1.01154 0.118,-3.78568 -0.281,-3.78568 -0.225,0 -0.408,0.64459 -0.408,1.43242 0,0.78783 0.183,1.56773 0.408,1.7331 0.253,0.18622 0.214,0.30307 -0.102,0.30695 -0.281,0.003 -0.51,0.19044 -0.51,0.41553 0,0.58616 0.697,0.50621 0.893,-0.10232 z m -76.376,-11.79303 c 0.785,-0.0208 1.197,-0.13117 0.915,-0.24517 -0.282,-0.114 -0.409,-0.37572 -0.282,-0.58158 0.127,-0.20587 0.03,-0.37431 -0.216,-0.37431 -0.309,0 -0.321,-0.23451 -0.04,-0.76472 0.224,-0.42059 0.292,-0.88101 0.15,-1.02315 -0.141,-0.14215 -0.02,-0.25845 0.262,-0.25845 0.332,0 0.417,-0.25983 0.236,-0.71621 -0.536,-1.35171 -0.625,-2.5058 -0.213,-2.76119 0.276,-0.17154 0.273,-0.51672 -0.01,-1.04933 -0.232,-0.43652 -0.261,-0.79368 -0.06,-0.79368 0.197,0 0.359,-0.73668 0.359,-1.63706 0,-0.90037 -0.178,-1.63705 -0.395,-1.63705 -0.217,0 -0.167,-0.27625 0.113,-0.61389 0.409,-0.49492 0.399,-0.61511 -0.05,-0.62016 -0.44,-0.005 -0.429,-0.0914 0.05,-0.403 0.444,-0.28828 0.466,-0.39844 0.08,-0.40299 -0.294,-0.003 -0.41,-0.20822 -0.258,-0.45505 0.378,-0.61298 0.529,-3.23459 0.187,-3.23459 -0.152,0 -0.256,-0.93512 -0.232,-2.07805 0.03,-1.14293 -0.1,-2.16672 -0.273,-2.2751 -0.48,-0.29754 -0.382,-2.19505 0.114,-2.19505 0.237,0 0.326,-0.17145 0.197,-0.38099 -0.129,-0.20954 -0.04,-0.50219 0.2,-0.65033 0.268,-0.16633 0.292,-0.45107 0.06,-0.74449 -0.204,-0.26132 -0.315,-0.93556 -0.246,-1.4983 0.07,-0.56273 0.225,-2.95692 0.345,-5.32041 0.12,-2.3635 0.29,-4.6656 0.378,-5.11579 0.09,-0.45019 0,-1.01493 -0.184,-1.25497 -0.189,-0.24004 -0.183,-1.0688 0.01,-1.84168 0.197,-0.77288 0.313,-2.234 0.259,-3.24692 -0.06,-1.01293 0.1,-1.97981 0.344,-2.14863 0.302,-0.2091 0.249,-0.43542 -0.168,-0.70995 -0.482,-0.31691 -0.493,-0.40433 -0.05,-0.40926 0.451,-0.005 0.461,-0.12524 0.05,-0.62016 -0.368,-0.44442 -0.378,-0.6139 -0.04,-0.6139 0.319,0 0.352,-0.23318 0.103,-0.71621 -0.203,-0.39391 -0.296,-1.08454 -0.206,-1.53473 0.238,-1.19364 0.608,-4.3881 0.603,-5.21004 0,-0.38949 0.171,-0.81659 0.384,-0.94913 0.214,-0.13253 0.284,-0.41241 0.154,-0.62195 -0.129,-0.20954 0,-0.38098 0.279,-0.38098 0.4,0 0.405,-0.10914 0.02,-0.49112 -0.607,-0.60914 -0.631,-1.14593 -0.05,-1.14593 0.52,0 1.603,-1.02366 1.603,-1.51475 0,-0.18999 0.655,-0.69913 1.455,-1.13142 1.046,-0.56511 1.4,-0.99558 1.261,-1.53183 -0.176,-0.67237 0.08,-0.74013 2.625,-0.68772 1.55,0.032 2.842,0.219 2.87,0.41561 0.113,0.79336 0.179,0.99239 0.489,1.48141 0.572,0.90408 0.677,2.27942 0.217,2.83606 -0.279,0.33646 -0.307,0.73584 -0.08,1.05348 0.205,0.28137 0.348,1.47846 0.318,2.66021 -0.03,1.18174 0.08,2.14863 0.234,2.14863 0.16,0 0.163,0.69498 0,1.5444 -0.155,0.84941 -0.07,2.59901 0.185,3.88799 0.257,1.28898 0.362,2.34361 0.235,2.34362 -0.214,1e-5 -0.319,1.3715 -0.555,7.26442 -0.05,1.18177 0.05,2.14865 0.21,2.14863 0.163,-1e-5 0.122,0.4604 -0.09,1.02313 -0.213,0.56274 -0.254,1.02316 -0.09,1.02316 0.163,0 0.296,0.46042 0.296,1.02316 0,0.56274 -0.1,1.02316 -0.222,1.02316 -0.27,0 -0.111,11.98387 0.242,18.21219 0.141,2.47604 0.251,4.82906 0.245,5.22894 -0.01,0.63908 0.245,0.69393 2.106,0.4534 1.165,-0.15049 2.577,-0.46115 3.138,-0.69035 0.561,-0.2292 1.268,-0.37488 1.571,-0.32372 0.303,0.0512 0.439,-0.0886 0.302,-0.31064 -0.362,-0.58748 0.894,-1.69638 1.93,-1.70368 1.564,-0.011 1.862,-0.47023 1.519,-2.34857 -0.174,-0.95579 -0.174,-1.7378 0,-1.7378 0.264,0 0.234,-1.19564 -0.04,-1.53473 -0.235,-0.29301 -0.198,-1.22839 0.08,-2.03183 0.174,-0.49849 0.174,-0.99434 0,-1.10188 -0.173,-0.10755 -0.277,-0.94283 -0.231,-1.85618 0.05,-1.02171 -0.1,-1.66304 -0.383,-1.6669 -0.341,-0.005 -0.344,-0.0874 -0.01,-0.30695 0.491,-0.32343 0.519,-2.32356 0.04,-2.80485 -0.429,-0.43033 -0.355,-1.0623 0.09,-0.78524 0.527,0.32696 0.372,-1.54681 -0.16,-1.92869 -0.285,-0.20503 -0.291,-0.40886 -0.02,-0.61389 0.231,-0.17193 0.41,-2.15218 0.408,-4.50189 0,-2.30722 0.09,-4.19578 0.2,-4.1968 0.113,-10e-4 0.235,-0.82978 0.271,-1.84169 0.04,-1.0119 -0.105,-1.83983 -0.314,-1.83983 -0.21,0 -0.255,-0.4994 -0.1,-1.11815 0.154,-0.61499 0.28,-1.35166 0.28,-1.63705 0,-0.2854 0.175,-0.5189 0.39,-0.5189 0.216,0 0.187,-0.24512 -0.07,-0.54923 -0.25,-0.30208 -0.333,-0.67042 -0.186,-0.81853 0.148,-0.14811 0.1,-0.26929 -0.105,-0.26929 -0.508,0 -0.478,-2.99319 0.03,-3.37015 0.264,-0.19499 0.252,-0.30288 -0.03,-0.30695 -0.243,-0.003 -0.442,-0.28252 -0.442,-0.62016 0,-0.33764 0.148,-0.61389 0.33,-0.61389 0.181,0 0.133,-0.50647 -0.107,-1.12548 -0.607,-1.56633 -0.73,-2.96715 -0.26,-2.96715 0.217,0 0.324,-0.73668 0.239,-1.63705 -0.119,-1.25357 -0.01,-1.64462 0.467,-1.66937 0.419,-0.0218 0.456,-0.0997 0.113,-0.23873 -0.281,-0.11354 -0.51,-0.4782 -0.51,-0.81037 0,-0.36435 0.202,-0.48936 0.51,-0.31512 0.393,0.22243 0.4,0.16947 0.03,-0.23035 -0.499,-0.54105 -0.278,-1.78454 0.258,-1.45262 0.168,0.10444 0.219,-0.26495 0.113,-0.82088 -0.149,-0.78151 -0.02,-1.01219 0.569,-1.01704 0.583,-0.005 0.632,-0.0888 0.208,-0.3581 -0.345,-0.21963 -0.398,-0.44811 -0.14,-0.60804 0.227,-0.14091 0.317,-0.62435 0.2,-1.07431 -0.148,-0.56883 -0.01,-0.81812 0.446,-0.81812 0.363,0 0.638,-0.13813 0.612,-0.30695 -0.03,-0.16882 -0.03,-0.72939 0,-1.24572 0.05,-0.89975 0.171,-0.93377 3.002,-0.81852 2.588,0.10536 2.97,0.22157 3.088,0.93877 0.07,0.45019 0.396,1.39886 0.718,2.10817 0.7,1.54635 0.74,2.18909 0.134,2.18909 -0.29,0 -0.388,0.71442 -0.274,2.01932 0.1,1.11062 0.03,2.27136 -0.138,2.57941 -0.172,0.30806 -0.159,1.24105 0.03,2.07331 0.187,0.83227 0.211,1.51322 0.05,1.51322 -0.158,0 -0.276,2.02509 -0.263,4.50019 0.01,2.47511 0.151,4.50096 0.304,4.50189 0.264,0.002 0.1,1.68481 -0.266,2.73369 -0.09,0.26458 0.02,1.16146 0.248,1.99307 0.259,0.93871 0.272,1.65721 0.03,1.89495 -0.21,0.21062 -0.265,1.06334 -0.122,1.89494 0.143,0.83159 0.216,2.98534 0.163,4.78609 -0.354,11.92059 -0.36,14.11957 -0.04,14.11957 0.198,0 0.24,0.19469 0.09,0.43265 -0.147,0.23795 -0.316,0.88254 -0.376,1.43242 -0.09,0.84879 0.06,0.99977 1.036,0.99977 0.663,0 1.626,-0.4444 2.29,-1.05617 0.629,-0.5809 0.891,-0.9236 0.581,-0.76156 -0.377,0.19756 -0.495,0.10731 -0.357,-0.27393 0.114,-0.3127 0.386,-0.53149 0.606,-0.48619 0.454,0.0937 0.354,-4.14756 -0.128,-5.36759 -0.216,-0.54848 -0.166,-0.69486 0.168,-0.48819 0.351,0.21763 0.374,0.0264 0.09,-0.72805 -0.213,-0.56276 -0.29,-1.44809 -0.17,-1.96739 0.304,-1.31853 0.295,-1.65277 -0.07,-2.54606 -0.221,-0.53609 -0.178,-0.69411 0.134,-0.50064 0.306,0.18961 0.381,-0.0241 0.229,-0.64907 -0.399,-1.63484 -0.405,-13.82356 0,-13.82356 0.217,0 0.207,-0.21637 -0.03,-0.51158 -0.57,-0.72818 -0.518,-10.1275 0.06,-10.13552 0.325,-0.005 0.326,-0.0886 0,-0.30695 -0.505,-0.33901 -0.51,-0.3788 -0.521,-4.59794 0,-1.68821 -0.03,-3.52989 -0.06,-4.09263 -0.03,-0.56273 -0.08,-4.2461 -0.123,-8.185254 l -0.08,-7.1621 -2.237,0.114829 c -2.064,0.10596 -2.175,0.06746 -1.428,-0.498563 0.445,-0.337365 0.602,-0.619249 0.349,-0.626408 -0.253,-0.0072 -0.687,0.261209 -0.964,0.596373 -0.277,0.335163 -0.621,0.540955 -0.764,0.457315 -0.493,-0.288492 -2.148,0.564409 -1.894,0.976149 0.14,0.226999 0.195,0.412725 0.122,0.412725 -0.07,0 -1.136,0.368336 -2.364,0.818526 -1.228,0.450189 -2.786,0.821345 -3.462,0.824792 -0.945,0.0048 -1.088,0.09846 -0.618,0.402996 0.644,0.417637 0.537,0.463751 -1.428,0.614966 -1.277,0.09822 -1.995,0.318536 -4.142,1.270534 -0.707,0.313543 -1.47,0.570077 -1.696,0.570077 -0.226,0 -0.319,0.348803 -0.208,0.775118 0.215,0.82509 0.325,0.798135 -6.093,1.487405 -1.29,0.13857 -2.346,0.40169 -2.346,0.5847 0,0.7575 -2.19,1.67901 -4.911,2.06603 -2.432,0.34593 -3.136,0.63439 -4.347,1.78047 -1.271,1.20267 -1.388,1.47505 -0.97,2.25779 0.375,0.70311 0.355,1.01057 -0.1,1.4634 -0.418,0.41951 -0.495,1.07948 -0.286,2.46049 0.157,1.03797 0.127,1.98547 -0.07,2.10555 -0.193,0.12008 -0.254,0.37705 -0.134,0.57104 0.119,0.19398 0.04,0.46403 -0.182,0.6001 -0.252,0.15628 -0.26,0.61356 -0.02,1.24158 0.207,0.5468 0.225,1.08795 0.04,1.20256 -0.185,0.11461 -0.269,1.06918 -0.188,2.12126 0.08,1.05208 -0.04,2.14553 -0.28,2.42988 -0.299,0.36068 -0.298,0.5974 0,0.78291 0.298,0.1845 0.299,0.50888 0,1.05959 -0.305,0.57188 -0.292,0.79369 0.05,0.79369 0.269,0 0.379,0.34983 0.256,0.81812 -0.117,0.44996 -0.05,0.9169 0.141,1.03764 0.197,0.12201 0.179,0.68285 -0.04,1.26254 -0.217,0.57366 -0.314,1.17448 -0.215,1.33516 0.1,0.16068 0.03,0.53226 -0.149,0.82575 -0.181,0.29348 -0.188,1.15948 -0.02,1.92445 0.172,0.76497 0.183,1.39086 0.02,1.39086 -0.445,0 -0.292,3.03013 0.17,3.37015 0.249,0.18363 0.2,0.30312 -0.126,0.30695 -0.294,0.003 -0.421,0.19043 -0.282,0.41553 0.138,0.22509 0.103,0.40912 -0.08,0.40896 -0.182,-1.7e-4 -0.295,1.47318 -0.251,3.2741 0.04,1.80092 -0.05,3.27441 -0.204,3.27441 -0.365,0 -0.366,17.03764 0,17.40304 0.151,0.15141 0.179,0.52494 0.06,0.83007 -0.308,0.80586 -0.389,5.50508 -0.09,5.50457 0.137,-2.4e-4 0.162,0.45998 0.05,1.02272 -0.123,0.64609 0,1.02316 0.311,1.02316 0.349,0 0.38,0.15843 0.1,0.51158 -0.314,0.39642 -0.41,2.99914 -0.144,3.93573 0.02,0.0825 0.456,0.039 0.961,-0.0967 0.505,-0.13573 1.56,-0.26383 2.346,-0.28468 z m 8.462,-4.15268 c 0.278,-0.22838 0.404,-0.57853 0.282,-0.77812 -0.187,-0.30349 0.953,-0.55421 1.928,-0.42405 0.148,0.0197 0.208,-0.28081 0.133,-0.66774 -0.07,-0.38694 -0.148,-0.7864 -0.166,-0.88769 -0.02,-0.10129 -0.251,0.0368 -0.52,0.30695 -0.27,0.27011 -0.805,0.49111 -1.19,0.49111 -0.386,0 -1.044,0.47267 -1.464,1.05037 -0.538,0.74103 -1.272,1.11887 -2.492,1.28301 -0.951,0.12796 -1.808,0.36106 -1.905,0.518 -0.263,0.42741 4.808,-0.41122 5.394,-0.89184 z m -4.182,-1.37067 c 0.754,-0.5765 1.701,-0.99088 2.106,-0.92084 0.497,0.0861 0.738,-0.13005 0.744,-0.66814 0,-0.61629 0.455,-0.89285 1.986,-1.22778 1.087,-0.23778 1.828,-0.57968 1.646,-0.7598 -0.562,-0.5565 -0.406,-2.50843 0.247,-3.07928 0.34,-0.29806 0.39,-0.42532 0.109,-0.2828 -0.309,0.15731 -0.529,-0.0318 -0.559,-0.48123 -0.03,-0.4072 -0.1,-1.56912 -0.156,-2.58204 -0.06,-1.01293 -0.204,-3.35961 -0.325,-5.21486 -0.123,-1.90829 -0.05,-3.47573 0.163,-3.60933 0.209,-0.12989 0.254,-0.44191 0.1,-0.6934 -0.457,-0.74152 -0.494,-7.01162 -0.04,-7.56914 0.24,-0.29747 0.252,-0.51158 0.03,-0.51158 -0.21,0 -0.402,-0.92084 -0.426,-2.04631 -0.03,-1.12547 0.121,-2.04632 0.322,-2.04632 0.202,0 0.23,-0.41437 0.06,-0.92084 -0.167,-0.50646 -0.291,-1.88772 -0.276,-3.06947 0.01,-1.18174 -0.119,-2.14863 -0.298,-2.14863 -0.179,0 -0.326,-0.19504 -0.326,-0.43341 0,-0.23838 0.152,-0.33901 0.339,-0.22362 0.411,0.25533 0.355,-1.00281 -0.08,-1.70343 -0.172,-0.27838 -0.117,-0.50438 0.121,-0.50438 0.487,0 0.59,-1.3426 0.137,-1.79656 -0.162,-0.16277 -0.31,-1.83508 -0.329,-3.71626 -0.02,-2.18124 -0.228,-3.65551 -0.571,-4.06953 -0.387,-0.4681 -0.402,-0.64922 -0.06,-0.64922 0.284,0 0.351,-0.21026 0.163,-0.51158 -0.449,-0.71931 -0.425,-1.63788 0.06,-2.32951 0.32,-0.45617 0.283,-0.51061 -0.165,-0.23981 -0.435,0.26272 -0.514,0.18002 -0.319,-0.3307 0.311,-0.81332 -0.595,-0.90111 -2.484,-0.24069 -0.937,0.32763 -1.33,0.77286 -1.536,1.73937 -0.152,0.71446 -0.459,1.52689 -0.683,1.80539 -0.223,0.2785 -0.307,0.76696 -0.185,1.08546 0.122,0.31851 0.104,0.69671 -0.04,0.84046 -0.143,0.14375 -0.299,1.62731 -0.345,3.29678 -0.05,1.66948 -0.203,3.22739 -0.347,3.46202 -0.145,0.23462 -0.115,0.42654 0.07,0.42647 0.456,-1.7e-4 0.314,6.1726 -0.15,6.49354 -0.513,0.355 -0.641,2.80888 -0.162,3.10596 0.213,0.13208 0.303,0.65065 0.2,1.15238 -0.103,0.50173 -0.281,2.75392 -0.396,5.00486 -0.198,3.86805 -0.509,8.00305 -0.738,9.82231 -0.06,0.45019 0.03,1.0095 0.204,1.24292 0.169,0.23341 0.317,1.29238 0.33,2.35326 0.04,3.39564 0.09,5.76938 0.179,7.64501 0.05,1.00548 -0.03,2.71109 -0.169,3.79026 -0.35,2.73493 -0.175,2.85927 1.844,1.31404 z m 8.262,-8.87644 c -0.147,-1.29431 -0.461,-1.64425 -0.55,-0.61389 -0.133,1.53418 -0.07,1.94399 0.296,1.94399 0.223,0 0.337,-0.59854 0.254,-1.3301 z m 15.203,0.48743 c 0,-0.21181 -0.153,-0.38511 -0.34,-0.38511 -0.187,0 -0.34,0.26815 -0.34,0.59589 0,0.32774 0.153,0.50104 0.34,0.38511 0.187,-0.11593 0.34,-0.38408 0.34,-0.59589 z m 0,-2.20264 c 0,-0.0993 -0.184,-0.2943 -0.408,-0.43342 -0.225,-0.13912 -0.408,-0.0579 -0.408,0.18048 0,0.23838 0.183,0.43341 0.408,0.43341 0.224,0 0.408,-0.0812 0.408,-0.18047 z m -14.896,-1.04263 c 0.143,-0.23199 -0.02,-0.3006 -0.384,-0.16084 -0.706,0.27207 -0.836,0.56542 -0.249,0.56542 0.211,0 0.496,-0.18206 0.633,-0.40458 z m 17.961,-2.41696 c 0,-1.03674 0.144,-2.10342 0.328,-2.3704 0.185,-0.26698 0.139,-0.85435 -0.102,-1.30527 -0.24,-0.45092 -0.288,-0.91216 -0.106,-1.02499 0.182,-0.11282 0.295,-1.82755 0.251,-3.81051 -0.06,-2.75225 0.07,-3.77486 0.549,-4.3216 0.569,-0.64781 0.565,-0.71621 -0.05,-0.71621 -0.784,0 -0.824,-0.1835 -0.266,-1.22985 0.278,-0.5208 0.272,-0.85209 -0.02,-1.03269 -0.264,-0.16392 -0.286,-0.44813 -0.06,-0.74105 0.509,-0.65014 0.447,-1.90615 -0.1,-1.91383 -0.314,-0.004 -0.315,-0.0937 0,-0.30694 0.775,-0.53215 1.016,-1.74878 0.394,-1.98805 -0.442,-0.17025 -0.488,-0.47065 -0.192,-1.25261 0.215,-0.56575 0.322,-1.6551 0.237,-2.42075 -0.09,-0.82944 0.03,-1.40517 0.301,-1.42442 0.255,-0.0181 0.221,-0.12612 -0.08,-0.24597 -0.398,-0.16022 -0.347,-0.35833 0.204,-0.79214 0.405,-0.31817 0.552,-0.55401 0.328,-0.5241 -0.876,0.11683 -1.199,-0.0711 -0.684,-0.39859 0.448,-0.28504 0.448,-0.44074 0,-0.91458 -0.632,-0.6683 -0.725,-3.29952 -0.132,-3.73657 0.244,-0.17989 0.178,-0.3032 -0.165,-0.30694 -0.439,-0.005 -0.4,-0.19885 0.165,-0.8248 0.461,-0.51063 0.552,-0.81852 0.242,-0.81852 -0.274,0 -0.444,-0.3223 -0.38,-0.71621 0.06,-0.39392 -0.03,-0.94642 -0.202,-1.22779 -0.176,-0.28137 -0.15,-0.51158 0.06,-0.51158 0.213,0 0.258,-0.66901 0.103,-1.53474 -0.151,-0.8441 -0.233,-2.77787 -0.181,-4.29726 0.05,-1.6001 -0.07,-2.76252 -0.306,-2.76252 -0.221,0 -0.296,-0.17144 -0.166,-0.38098 0.129,-0.20955 0.03,-0.50882 -0.224,-0.66506 -0.331,-0.20541 -0.319,-0.37055 0.05,-0.59641 0.596,-0.36982 0.177,-1.22239 -0.601,-1.22239 -0.491,0 -1.272,1.80282 -1.107,2.55789 0.04,0.16882 -0.208,0.30695 -0.545,0.30695 -0.337,0 -0.635,0.36834 -0.663,0.81853 -0.06,0.92166 -0.04,0.82932 -0.691,3.11109 -0.265,0.92327 -0.482,2.39662 -0.484,3.2741 0,0.87749 0,1.96377 0,2.41396 0,4.01576 -0.04,4.88699 -0.194,5.04347 -0.1,0.099 0.01,0.53601 0.243,0.97121 0.563,1.05559 0.799,2.37521 0.425,2.37521 -0.165,0 -0.352,1.51938 -0.414,3.37641 -0.132,3.93254 -0.162,22.2192 -0.04,24.73964 0.09,1.94571 0.565,2.21214 2.85,1.61058 1.38,-0.36345 1.434,-0.44901 1.426,-2.26272 z m -18.774,1.59375 c -0.138,-0.22509 -0.05,-0.40926 0.204,-0.40926 0.251,0 0.333,-0.20022 0.182,-0.44493 -0.183,-0.29661 -0.41,-0.3085 -0.682,-0.0357 -0.375,0.37641 -0.131,1.29911 0.344,1.29911 0.113,0 0.09,-0.18417 -0.05,-0.40926 z m 0.02,-4.91115 c 0,-1.80076 -0.151,-3.27411 -0.322,-3.27411 -0.171,0 -0.336,0.59855 -0.367,1.33011 -0.03,0.73155 -0.09,1.88261 -0.122,2.55789 -0.06,1.045 0.381,2.66021 0.718,2.66021 0.06,0 0.1,-1.47335 0.09,-3.2741 z m -0.05,-6.65053 c -0.04,-1.63193 0.05,-3.15132 0.208,-3.37641 0.256,-0.37801 0.267,-1.14769 0.02,-1.63706 -0.262,-0.5268 -0.227,-1.29077 0.09,-1.944 0.244,-0.50294 0.181,-0.71621 -0.211,-0.71621 -0.657,0 -0.633,-0.17286 -0.718,5.32042 -0.08,5.13742 -0.07,5.32042 0.351,5.32042 0.18,0 0.296,-1.33522 0.257,-2.96716 z m 0.33,-8.31838 c 0.129,-0.12949 0.08,-0.76077 -0.1,-1.40285 -0.257,-0.89929 -0.186,-1.22428 0.309,-1.41503 0.491,-0.18872 0.53,-0.36122 0.167,-0.72531 -0.524,-0.5265 -0.656,-1.29262 -0.17,-0.99104 0.345,0.21364 0.359,-1.83904 0.02,-2.42379 -0.122,-0.20784 -0.223,-1.39083 -0.225,-2.62885 0,-1.23802 -0.104,-2.75741 -0.228,-3.37642 -0.123,-0.61901 -0.08,-1.12547 0.09,-1.12547 0.37,0 0.312,-1.50156 -0.07,-1.88716 -0.146,-0.14672 -0.07,-0.63312 0.168,-1.08088 0.287,-0.53718 0.292,-0.72542 0.01,-0.55341 -0.231,0.14339 -0.548,0.0529 -0.705,-0.201 -0.156,-0.25393 -0.08,-0.58864 0.171,-0.74381 0.311,-0.19284 0.337,-0.69463 0.08,-1.58577 -0.225,-0.78791 -0.225,-1.39524 0,-1.53516 0.205,-0.12732 0.08,-0.68072 -0.279,-1.22979 -0.839,-1.28388 -1.361,-0.94976 -1.154,0.73876 0.09,0.72896 0.213,3.48847 0.275,6.13223 0.06,2.64377 0.204,4.80777 0.316,4.8089 0.112,10e-4 0.192,1.52141 0.177,3.37841 -0.01,1.857 0.06,3.54656 0.17,3.75459 0.283,0.54223 0.243,2.85294 -0.06,3.65075 -0.249,0.65083 0.508,0.97339 1.038,0.4421 z m 20.302,-29.23149 c 0,-0.22509 -0.184,-0.40926 -0.408,-0.40926 -0.224,0 -0.408,0.18417 -0.408,0.40926 0,0.2251 0.184,0.40927 0.408,0.40927 0.224,0 0.408,-0.18417 0.408,-0.40927 z m -35.356,-2.6602 c 0.805,-0.33765 2.194,-0.6139 3.086,-0.6139 0.891,0 1.736,-0.18717 1.877,-0.41594 0.141,-0.22876 0.427,-0.30998 0.636,-0.18047 0.209,0.1295 0.38,0.0404 0.38,-0.19796 0,-0.23838 0.275,-0.43342 0.612,-0.43342 0.336,0 0.566,-0.20933 0.51,-0.46518 -0.136,-0.62091 1.482,-1.04273 5.262,-1.37185 2.323,-0.20228 3.291,-0.469418 3.776,-1.0418 0.359,-0.423371 0.923,-0.823629 1.255,-0.889464 0.331,-0.06584 0.826,-0.326577 1.099,-0.579427 0.274,-0.25285 1.334,-0.707436 2.356,-1.01019 1.022,-0.302754 1.859,-0.68314 1.859,-0.8453 0,-0.162161 0.872,-0.407858 1.938,-0.545993 2.711,-0.351379 4.633,-1.255755 4.333,-2.03917 -0.314,-0.822018 -3.386,-0.838404 -4.459,-0.02379 -0.436,0.330484 -0.609,0.619817 -0.384,0.642963 0.224,0.02315 -0.876,0.408795 -2.444,0.856997 -1.569,0.448201 -3.13,1.061389 -3.469,1.362639 -0.54,0.480254 -2.646,1.002049 -4.492,1.113155 -0.336,0.02026 -0.795,0.174629 -1.02,0.343049 -0.224,0.168421 -1.006,0.434556 -1.738,0.591412 -0.731,0.156856 -1.248,0.417126 -1.148,0.578378 0.454,0.738164 -0.654,1.343041 -2.864,1.562401 -2.303,0.22851 -6.123,1.78907 -5.618,2.29501 0.132,0.13243 -0.102,0.23929 -0.52,0.23746 -1.065,-0.005 -3.781,0.77265 -2.878,0.82386 0.406,0.023 0.624,0.22606 0.486,0.45116 -0.335,0.54259 -0.16,0.51977 1.569,-0.20463 z m 20.461,-10.022256 c 0.143,-0.231995 -0.02,-0.300607 -0.384,-0.160845 -0.707,0.272074 -0.837,0.56542 -0.25,0.56542 0.212,0 0.496,-0.182059 0.634,-0.404575 z m 11.894,-1.557475 c -0.417,-0.08856 -0.936,0.01754 -1.153,0.235796 -0.256,0.256255 0.01,0.313296 0.757,0.161026 0.854,-0.174644 0.957,-0.277558 0.396,-0.396822 z m 7.081,-0.902791 c 0.337,-0.2182 0.429,-0.396728 0.204,-0.396728 -0.224,0 -0.683,0.178528 -1.02,0.396728 -0.336,0.218201 -0.428,0.396729 -0.204,0.396729 0.225,0 0.684,-0.178528 1.02,-0.396729 z"
         id="path1" /></g></g></svg>
