<?xml version="1.0" encoding="UTF-8" standalone="no"?>
<!-- Created with Inkscape (http://www.inkscape.org/) -->

<svg
   width="231.38646"
   height="235.24007"
   viewBox="0 0 61.221 62.240601"
   version="1.1"
   id="svg1"
   xml:space="preserve"
   xmlns="http://www.w3.org/2000/svg"
   xmlns:svg="http://www.w3.org/2000/svg"><defs
     id="defs1" /><g
     id="g2047"
     transform="matrix(0.26458333,0,0,0.26458333,-5299.2671,-10.12824)"><g
       id="g2095"
       transform="translate(231.8662,-704.9)"><path
         style="fill:#000000"
         d="m 19868.395,962.05524 -8.768,-0.13676 -0.272,-1.55078 c -0.149,-0.85293 -0.177,-19.38842 -0.06,-41.18998 0.116,-21.80156 0.229,-60.77945 0.252,-86.61753 l 0.04,-46.97834 1.324,-0.52192 c 0.728,-0.28705 2.407,-0.58303 3.732,-0.65773 3.393,-0.1914 6.657,-1.32826 9.808,-3.41615 3.516,-2.3296 13.626,-7.57884 28.23,-14.65831 4.713,-2.28456 10.459,-3.78491 14.495,-3.78491 4.782,0 10.735,2.50276 17.961,7.55139 5.928,4.14135 8.101,5.52434 10.158,6.46264 1.191,0.54376 3.615,1.70807 5.385,2.58736 4.694,2.33149 9.222,3.60244 13.958,3.91811 2.297,0.15309 4.415,0.42586 4.707,0.60616 0.533,0.32858 0.756,60.53036 0.27,73.04747 -0.289,7.44989 -0.664,32.52413 -0.974,65.10438 -0.141,14.79863 -0.382,29.77144 -0.535,33.2729 l -0.279,6.36629 -15.6,0.0841 c -8.58,0.0462 -16.195,0.13071 -16.924,0.1877 -2.46,0.19255 -58.071,0.46177 -66.909,0.32392 z m 83.883,-2.29335 c 7.68,-0.18882 14.06,-0.43092 14.178,-0.53798 0.231,-0.20952 0.292,-3.74055 0.718,-41.24738 0.153,-13.47732 0.388,-31.31496 0.521,-39.63919 0.133,-8.32423 0.294,-32.53754 0.357,-53.80734 l 0.115,-38.67237 -2.407,-0.36786 c -6.393,-0.97676 -8.554,-1.58898 -14.344,-4.0638 -7.573,-3.23701 -10.88,-5.06979 -16.232,-8.99593 -3.934,-2.88626 -10.836,-6.56969 -13.602,-7.25902 -1.284,-0.31981 -1.325,-0.26912 -1.325,1.644 0,1.77694 0.119,1.97399 1.185,1.97399 0.652,0 1.573,0.39505 2.047,0.87789 0.474,0.48284 2.37,1.69301 4.213,2.68926 1.843,0.99626 4.397,2.74901 5.674,3.89501 5.438,4.87808 14.826,10.44476 21.791,12.92021 l 4.333,1.54027 -0.142,18.22754 c -0.08,10.02515 -0.232,18.98429 -0.342,19.90921 -0.109,0.92491 -0.335,15.84367 -0.501,33.15278 -0.167,17.30912 -0.374,33.30894 -0.462,35.55516 -0.09,2.24622 -0.308,15.43527 -0.491,29.30898 -0.272,20.67065 -0.457,25.42283 -1.023,26.32096 l -0.692,1.09601 -41.41,-0.0733 c -22.776,-0.0403 -41.543,0.0592 -41.706,0.22112 -0.405,0.40405 -1.636,-0.67058 -1.332,-1.16224 0.4,-0.64576 1.146,-7.34537 0.868,-7.79437 -0.268,-0.43292 -0.204,-59.10285 0.07,-61.61067 0.09,-0.79278 0.301,-15.81964 0.478,-33.39302 0.176,-17.57338 0.416,-38.4143 0.533,-46.31316 l 0.212,-14.36156 3.247,-1.91194 c 1.786,-1.05157 5.089,-2.81607 7.341,-3.92112 2.251,-1.10505 5.067,-2.57121 6.259,-3.25813 4.651,-2.6811 17.525,-9.03201 18.309,-9.03201 0.455,0 1.343,-0.75527 1.973,-1.67838 1.005,-1.4736 1.395,-1.67878 3.191,-1.68166 1.843,-0.003 2.047,-0.11908 2.047,-1.16518 0,-0.63904 0.127,-1.4934 0.283,-1.89858 0.233,-0.60645 -0.04,-0.69343 -1.565,-0.492 -3.102,0.41076 -7.31,1.63335 -9.695,2.81681 -1.246,0.61807 -3.591,1.67622 -5.212,2.35142 -1.622,0.67521 -4.98,2.34568 -7.464,3.71217 -4.887,2.68908 -10.88,5.723 -11.305,5.723 -0.145,0 -1.755,0.96267 -3.578,2.13926 -5.929,3.82742 -7.636,4.50943 -12.504,4.99553 l -3.129,0.31258 -0.315,2.16213 c -0.232,1.59367 -0.618,151.39249 -0.435,168.50644 l 0.03,2.50229 3.732,0.14484 c 6.782,0.26324 73.286,-0.0108 87.514,-0.36064 z m -1.063,-7.26699 c 2.727,-0.22242 3.864,-0.51648 4.159,-1.07606 0.223,-0.4235 0.542,-8.44559 0.708,-17.82686 0.167,-9.38128 0.406,-21.70547 0.531,-27.38709 0.125,-5.68161 0.339,-17.46527 0.476,-26.18589 0.137,-8.72062 0.354,-22.23399 0.483,-30.0297 0.128,-7.7957 0.369,-23.92125 0.534,-35.83454 l 0.301,-21.66054 -1.62,-0.74823 c -0.891,-0.41153 -2.098,-0.89188 -2.682,-1.06745 -4.22,-1.26874 -14.337,-7.43423 -21.316,-12.99056 -1.832,-1.45904 -3.442,-2.65279 -3.577,-2.65279 -0.135,0 -1.369,-0.66116 -2.742,-1.46923 -1.756,-1.03306 -2.649,-1.31834 -3.007,-0.96095 -0.28,0.27955 -1.091,0.50828 -1.802,0.50828 -0.848,0 -1.564,0.41358 -2.082,1.20118 -0.433,0.66066 -1.217,1.20119 -1.74,1.20119 -0.524,0 -0.952,0.21621 -0.952,0.48048 0,0.8021 2.071,0.53532 3.743,-0.48228 2.277,-1.38545 3.99,-1.20546 6.677,0.70158 12.736,9.03991 25.313,16.59733 27.621,16.59733 0.399,0 0.496,0.49997 0.304,1.56154 -0.434,2.39475 -0.895,21.36864 -1.516,62.34165 -0.13,8.58849 -0.343,21.3451 -0.472,28.34803 -0.129,7.00292 -0.366,24.30003 -0.525,38.43801 -0.255,22.59531 -0.382,25.7771 -1.049,26.29787 -0.548,0.42807 -0.932,0.44843 -1.385,0.0734 -0.439,-0.36371 -10.251,-0.47396 -32.782,-0.36836 -38.809,0.18189 -39.935,0.22222 -40.254,1.44229 -0.278,1.06023 -2.253,1.24475 -2.253,0.21048 0,-0.38079 0.206,-0.81958 0.458,-0.97508 0.284,-0.17471 0.488,-15.46843 0.535,-40.02791 0.04,-21.85985 0.126,-56.88013 0.187,-77.82284 0.108,-36.70331 0.08,-38.07765 -0.775,-38.07765 -0.813,0 -0.89,0.51073 -0.926,6.12606 -0.02,3.36933 -0.116,11.09897 -0.208,17.17698 -0.179,11.77355 -0.695,66.81483 -1.002,106.90572 -0.102,13.3452 -0.06,25.06633 0.09,26.04697 l 0.275,1.78298 3.933,0.16344 c 7.48,0.31082 69.913,0.34351 73.652,0.0386 z m -25.751,-4.47011 14.596,-0.0906 -0.314,-1.4251 c -0.189,-0.85752 -0.08,-1.70432 0.27,-2.12614 0.869,-1.04564 1.428,-0.85005 1.428,0.50015 0,2.20236 1.944,1.29729 2.58,-1.20119 0.168,-0.66065 1.011,-1.69771 1.872,-2.30457 3.886,-2.73765 3.636,-2.376 2.344,-3.38637 -1.341,-1.04804 -0.692,-1.77987 1.165,-1.31473 0.941,0.23557 1.21,0.082 1.397,-0.7956 0.127,-0.59813 0.346,-9.19553 0.487,-19.10533 0.546,-38.35122 0.77,-51.93677 0.985,-59.57892 0.123,-4.36031 0.37,-18.35199 0.549,-31.09261 l 0.326,-23.16477 -1.751,0.28344 c -1.215,0.19678 -2.126,0.0379 -2.979,-0.51974 -1.593,-1.04154 -1.094,-1.79005 1.077,-1.61781 2.297,0.18214 2.558,-0.82616 0.399,-1.53731 -0.941,-0.30977 -1.71,-0.87076 -1.71,-1.24666 0,-0.3759 -0.302,-0.68345 -0.671,-0.68345 -0.957,0 -1.307,-1.24344 -0.757,-2.68711 0.559,-1.46798 0.259,-2.11764 -0.98,-2.11764 -1.045,0 -1.56,0.66444 -1.634,2.10735 -0.03,0.55865 -0.214,0.96168 -0.412,0.89561 -0.199,-0.0661 -0.361,-0.22822 -0.361,-0.36035 0,-0.13213 0,-1.07205 0,-2.08872 0,-1.44969 0.233,-1.95545 1.083,-2.34435 l 1.083,-0.49588 -1.324,-0.61562 c -0.728,-0.33859 -1.324,-0.74796 -1.324,-0.90971 0,-0.16175 -0.812,-0.72163 -1.805,-1.24418 -0.992,-0.52255 -3.213,-1.90987 -4.935,-3.08292 -1.722,-1.17305 -4.431,-2.98678 -6.02,-4.03051 -1.589,-1.04372 -3.322,-2.28081 -3.852,-2.74907 -1.365,-1.20668 -2.558,-1.26456 -5.176,-0.25097 -2.547,0.98635 -5.612,0.81953 -8.05,-0.43807 -2.581,-1.33219 -4.26,-0.86541 -9.402,2.61386 -1.061,0.7177 -3.012,1.85005 -4.336,2.51634 -1.324,0.66629 -5.158,2.58845 -8.521,4.27145 -5.971,2.98909 -6.091,3.0802 -5.176,3.93088 1.088,1.01129 1.216,2.40673 0.291,3.17281 -0.775,0.64163 -1.28,0.23988 -1.28,-1.01807 0,-0.5254 -0.258,-0.83315 -0.602,-0.71657 -0.331,0.1124 -0.602,0.84415 -0.602,1.62611 0,1.68737 -1.652,4.97628 -2.5,4.97628 -0.53,0 -1.593,1.42081 -1.593,2.13055 0,0.1495 0.542,0.27182 1.204,0.27182 0.724,0 1.204,0.27443 1.204,0.68834 0,0.88948 -1.505,1.35742 -3.089,0.96065 l -1.245,-0.31174 v 67.88284 67.88283 l 1.211,-1.13444 c 0.915,-0.85774 1.345,-0.99909 1.766,-0.57951 0.42,0.41957 0.243,0.86759 -0.729,1.83691 -1.686,1.68288 -1.621,2.77297 0.28,4.65042 3.313,3.27127 6.692,4.31421 7.343,2.26624 0.168,-0.52852 0.495,-0.96095 0.727,-0.96095 0.867,0 1,1.01981 0.311,2.39758 l -0.712,1.42439 8.504,0.13103 c 4.678,0.0721 9.913,0.10153 11.634,0.0655 1.722,-0.0361 9.698,-0.10631 17.726,-0.15611 z m -36.023,-30.54022 c 0,-0.40271 1.653,-3.59187 3.673,-7.08701 4.77,-8.25201 13.936,-23.7913 17.636,-29.89808 3.933,-6.49267 10.47,-17.6377 10.47,-17.85139 0,-0.41945 6.612,-11.8196 8.875,-15.3014 1.374,-2.11409 3.703,-6.11404 5.176,-8.88879 3.692,-6.95754 4.396,-8.11781 5.089,-8.38571 1.17,-0.45208 0.575,1.33062 -1.733,5.1959 -1.284,2.15079 -3.055,5.20781 -3.936,6.79338 -0.881,1.58556 -2.722,4.61256 -4.092,6.72665 -1.369,2.11409 -3.96,6.65458 -5.758,10.08997 -1.797,3.4354 -3.672,6.76182 -4.166,7.39205 -0.495,0.63022 -0.899,1.30727 -0.899,1.50455 0,0.38807 -7.469,13.305 -8.206,14.19039 -0.246,0.29573 -1.346,2.14099 -2.444,4.10056 -2.021,3.60525 -2.57,4.55859 -4.442,7.71576 -1.154,1.94442 -8.149,13.76832 -9.483,16.02706 -0.468,0.79278 -1.673,3.00897 -2.677,4.92487 -1.697,3.23599 -3.083,4.47288 -3.083,2.75124 z m 0.233,-22.82311 c -0.153,-0.2478 1.127,-2.77887 2.844,-5.6246 1.718,-2.84573 4.578,-7.76862 6.357,-10.93976 1.778,-3.17114 3.71,-6.41434 4.293,-7.20713 0.584,-0.79278 2.216,-3.60356 3.627,-6.24617 1.412,-2.64262 3.494,-6.25492 4.628,-8.02734 2.187,-3.41988 7.224,-12.314 9.468,-16.71713 1.767,-3.46727 2.561,-4.48954 3.186,-4.1038 0.828,0.51038 0.59,2.58784 -0.353,3.0918 -0.478,0.25478 -2.142,2.8029 -3.698,5.66249 -1.557,2.85959 -3.55,6.33857 -4.429,7.73107 -0.88,1.3925 -1.599,2.65083 -1.599,2.79628 0,0.14545 -0.618,1.16827 -1.373,2.27293 -0.756,1.10466 -3.168,5.14357 -5.361,8.97536 -2.193,3.83179 -4.707,8.15606 -5.587,9.6095 -0.88,1.45344 -2.257,3.87452 -3.06,5.38018 -0.803,1.50566 -2.321,4.06702 -3.374,5.69191 -1.052,1.62489 -2.389,4.00448 -2.97,5.28797 -1.048,2.31252 -2.061,3.23507 -2.599,2.36644 z m -7.243,52.63934 c -1.202,-0.90679 -1.875,-0.91072 -2.62,-0.0153 -0.517,0.62169 -0.314,0.72071 1.478,0.72071 1.929,0 2.01,-0.05 1.142,-0.70543 z m 66.134,0.005 c 0.35,-0.34934 -1.536,-3.1437 -2.122,-3.1437 -0.486,0 -2.592,2.96462 -2.592,3.64881 0,0.26379 4.418,-0.20959 4.714,-0.50511 z m -69.717,-2.43041 c 0,-0.33577 -0.325,-0.73493 -0.722,-0.88704 -0.546,-0.20908 -0.723,0.0858 -0.723,1.20861 0,1.26568 0.107,1.39678 0.723,0.88704 0.397,-0.32898 0.722,-0.87285 0.722,-1.20861 z m 71.59,-3.4293 c -0.337,-0.33626 -2.735,0.37335 -2.735,0.80933 0,0.21534 0.596,1.10075 1.324,1.96758 l 1.325,1.57605 0.15,-2.06967 c 0.08,-1.13832 0.05,-2.1658 -0.06,-2.28329 z m -71.387,-143.71366 c 1.171,-0.91879 1.114,-1.68367 -0.223,-3.01811 -1.126,-1.12358 -1.425,-0.75024 -1.425,1.78176 0,2.3367 0.126,2.43105 1.648,1.23635 z m 74.43,-1.10455 c 0,-1.67765 -0.217,-1.7164 -2.351,-0.41837 -1.723,1.04788 -1.587,1.6822 0.425,1.99222 1.669,0.25701 1.926,0.0464 1.926,-1.57385 z m -2.653,-2.07053 c 0.872,-0.63669 0.869,-0.67466 -0.117,-1.20119 -1.489,-0.79479 -1.823,-0.68099 -1.934,0.65746 -0.112,1.35023 0.664,1.5559 2.051,0.54373 z m -69.262,-1.38456 c -0.09,-0.59459 -0.415,-1.05945 -0.72,-1.03302 -2.299,0.19945 -2.286,0.18527 -1.102,1.16913 1.485,1.23478 2.025,1.19445 1.822,-0.13611 z m 6.079,-7.22738 c 6.947,-3.5126 14.363,-7.49652 16.482,-8.85314 4.906,-3.14174 5.822,-3.3629 8.686,-2.09879 1.248,0.55128 2.601,1.00233 3.006,1.00233 0.638,0 0.629,-0.11716 -0.06,-0.87867 -0.439,-0.48326 -0.797,-1.24001 -0.797,-1.68166 0,-1.03178 -1.859,-1.05633 -5.193,-0.0686 -2.095,0.62087 -14.11,6.23252 -17.197,8.03186 -0.53,0.30874 -2.155,1.18591 -3.611,1.94927 -12.69,6.6503 -14.446,7.68783 -14.446,8.53616 0,0.24627 0.113,0.44776 0.251,0.44776 0.138,0 5.934,-2.87395 12.88,-6.38655 z m 34.538,-14.75436 c 0,-0.26426 -0.528,-0.48047 -1.175,-0.48047 -0.646,0 -1.309,0.21621 -1.473,0.48047 -0.173,0.28032 0.316,0.48048 1.176,0.48048 0.81,0 1.472,-0.21621 1.472,-0.48048 z m -6.379,-0.60059 c -0.236,-0.70751 -1.561,-1.03757 -2.587,-0.64462 -1.14,0.43658 -0.276,1.24521 1.331,1.24521 0.951,0 1.387,-0.20843 1.256,-0.60059 z m 2.717,-2.56179 c 0.484,-1.25851 0.331,-2.12284 -0.374,-2.12284 -0.695,0 -1.395,1.79657 -0.968,2.48576 0.392,0.63283 1.024,0.46177 1.342,-0.36292 z"
         id="path1" /></g></g></svg>
