<?xml version="1.0" encoding="UTF-8" standalone="no"?>
<!-- Created with Inkscape (http://www.inkscape.org/) -->

<svg
   width="231.38646"
   height="235.24007"
   viewBox="0 0 61.221 62.240601"
   version="1.1"
   id="svg1"
   xml:space="preserve"
   xmlns="http://www.w3.org/2000/svg"
   xmlns:svg="http://www.w3.org/2000/svg"><defs
     id="defs1" /><g
     id="g1351"
     transform="matrix(0.26458333,0,0,0.26458333,-3578.6184,-77.861575)"><path
       style="fill:#000000"
       d="m 13598.716,501.57574 c -0.762,-0.80949 -0.899,-1.2513 -0.511,-1.63933 0.886,-0.88461 0,-1.57557 -2.028,-1.57557 -2.687,0 -6.346,-2.04678 -12.879,-7.20507 -5.391,-4.25639 -8.831,-6.66767 -9.558,-6.69875 -0.334,-0.0143 -1.04,0.24383 -1.569,0.5736 -0.785,0.48993 -1.202,0.46454 -2.277,-0.13882 l -1.316,-0.73841 -0.07,-7.1714 c -0.04,-3.94428 0.151,-8.58311 0.42,-10.30853 0.476,-3.04965 0.794,-29.19509 0.675,-55.49396 -0.06,-13.08939 -0.01,-26.96565 0.145,-43.71076 0.05,-5.01953 0.02,-15.10487 -0.06,-22.41187 -0.08,-7.30701 0,-13.43279 0.177,-13.61286 0.178,-0.18007 1.476,0.52253 2.885,1.56133 1.408,1.03879 3.318,2.17741 4.244,2.53026 0.925,0.35285 3.446,1.46778 5.601,2.47763 2.155,1.00984 4.185,1.83608 4.511,1.83608 0.326,0 1.267,0.41435 2.092,0.92077 0.824,0.50642 3.741,1.81109 6.48,2.89927 2.74,1.08818 5.843,2.41739 6.895,2.95381 1.574,0.80225 2.175,0.88454 3.383,0.46373 0.808,-0.28137 4.386,-0.73276 7.951,-1.00308 3.564,-0.27033 7.914,-0.69863 9.666,-0.95179 1.752,-0.25317 5.565,-0.46194 8.474,-0.46394 2.909,-0.002 7.777,-0.32515 10.818,-0.71812 3.041,-0.39297 8.126,-0.93253 11.299,-1.19902 3.174,-0.2665 7.781,-0.72373 10.238,-1.01608 4.651,-0.55323 6.457,-0.35848 5.504,0.5935 -0.29,0.28941 -1.57,0.50048 -2.845,0.46905 -1.276,-0.0314 -4.05,0.24671 -6.165,0.6181 -2.116,0.37138 -6.227,0.81493 -9.136,0.98567 -2.909,0.17074 -7.102,0.62141 -9.318,1.00148 -2.217,0.38008 -6.76,0.70929 -10.097,0.73158 -3.338,0.0223 -7.366,0.22746 -8.953,0.45593 -1.586,0.22847 -6.13,0.65519 -10.097,0.94828 -3.967,0.29308 -7.409,0.72805 -7.65,0.96659 -0.241,0.23855 -0.483,5.3595 -0.536,11.37989 -0.05,6.0204 -0.242,11.59464 -0.417,12.38719 -0.612,2.77376 -0.329,2.84335 8.915,2.18762 4.588,-0.32553 11.588,-0.76792 15.555,-0.98308 3.967,-0.21517 8.186,-0.62297 9.376,-0.90622 1.19,-0.28325 3.354,-0.51705 4.808,-0.51956 3.683,-0.006 20.657,-1.77681 27.887,-2.90881 7.295,-1.14214 22.439,-2.55778 23.404,-2.18782 1.434,0.5496 0.06,1.13267 -3.563,1.50795 -2.054,0.21292 -4.599,0.42373 -5.657,0.46847 -5.712,0.2416 -11.31,0.8542 -13.222,1.44678 -2.507,0.77683 -16.395,2.39839 -26.468,3.0904 -3.822,0.26253 -8.139,0.67094 -9.593,0.90758 -1.455,0.23663 -4.808,0.46115 -7.453,0.49892 -2.644,0.0378 -7.729,0.4071 -11.299,0.8207 -3.57,0.41361 -7.83,0.63259 -9.467,0.48661 l -2.976,-0.2654 -0.04,4.66249 c -0.02,2.56438 -0.226,9.85015 -0.453,16.19061 -0.228,6.34046 -0.234,11.72306 -0.01,11.96133 0.237,0.25684 2.123,0.21245 4.631,-0.10902 7.101,-0.91021 11.094,-1.12805 11.406,-0.62234 0.161,0.25956 0.08,0.60037 -0.17,0.75736 -0.696,0.4299 -12.632,1.74556 -14.463,1.59416 l -1.596,-0.13203 0.19,7.68541 c 0.44,17.86495 0.102,42.18443 -0.661,47.55346 -0.414,2.90604 -0.82,7.12101 -0.903,9.36659 l -0.151,4.08287 1.421,0.0181 c 0.782,0.01 2.123,-0.33973 2.982,-0.77707 0.859,-0.43733 2.144,-0.73129 2.856,-0.65323 0.711,0.0781 1.603,-0.16668 1.98,-0.54386 0.855,-0.85394 3.183,-0.92747 2.904,-0.0917 -0.182,0.54629 -7.193,2.80639 -8.296,2.67435 -0.516,-0.0617 -1.954,0.40786 -3.126,1.02088 -0.585,0.30631 -0.746,1.80164 -0.853,7.9493 l -0.133,7.57203 1.335,-0.31034 c 0.734,-0.17068 3.606,-0.72514 6.383,-1.23213 2.777,-0.50699 6.888,-1.49275 9.135,-2.19057 6.212,-1.92855 17.401,-4.9075 23.395,-6.22912 2.951,-0.65048 9.107,-2.38199 13.682,-3.84783 4.575,-1.46583 8.652,-2.61046 9.06,-2.54361 0.409,0.0668 1.067,-0.0827 1.464,-0.33225 1.53,-0.96244 10.809,-3.0162 11.419,-2.52748 0.411,0.32852 0.84,0.28336 1.353,-0.14246 0.414,-0.3429 1.522,-0.70235 2.463,-0.79876 0.94,-0.0964 4.442,-0.90521 7.782,-1.79731 3.34,-0.8921 7.587,-1.96371 9.438,-2.38135 1.851,-0.41764 4.772,-1.09547 6.491,-1.50628 1.719,-0.41082 3.945,-0.92415 4.947,-1.14073 1.002,-0.21658 1.929,-0.50061 2.06,-0.63117 0.378,-0.37766 0.358,-4.40965 -0.03,-5.62407 -0.214,-0.67407 -0.136,-1.23814 0.201,-1.44591 0.679,-0.41904 -0.372,-4.82386 -1.229,-5.15241 -0.302,-0.11577 -1.819,0.14462 -3.37,0.57864 -1.552,0.43403 -4.381,1.08301 -6.286,1.44219 -1.905,0.35918 -3.852,0.85717 -4.327,1.10664 -0.803,0.42184 -3.95,0.95986 -7.522,1.28601 -1.703,0.1555 -6.906,1.30171 -10.891,2.39923 -1.454,0.40058 -6.539,1.4871 -11.299,2.41451 -4.76,0.92741 -9.412,1.87934 -10.338,2.11539 -0.925,0.23605 -4.279,0.8944 -7.452,1.46301 -3.174,0.56861 -7.547,1.45248 -9.719,1.96416 -2.172,0.51168 -4.488,0.93033 -5.146,0.93033 -0.659,0 -1.694,0.19437 -2.302,0.43193 -0.607,0.23756 -2.51,0.79045 -4.229,1.22865 -1.719,0.43819 -4.208,1.121 -5.53,1.51735 -1.322,0.39635 -3.203,0.76796 -4.18,0.8258 -0.977,0.0578 -1.932,0.26142 -2.123,0.45241 -0.578,0.57704 -1.149,0.39143 -1.149,-0.37327 0,-0.47712 0.477,-0.72051 1.414,-0.72051 0.777,0 1.532,-0.19123 1.677,-0.42495 0.144,-0.23373 0.86,-0.52644 1.591,-0.65047 0.73,-0.12403 3.906,-0.9087 7.057,-1.74372 3.151,-0.83502 6.126,-1.39235 6.611,-1.23852 0.485,0.15384 0.882,0.097 0.882,-0.1262 0,-0.22324 2.542,-0.90655 5.65,-1.51846 3.107,-0.61191 7.705,-1.55385 10.217,-2.0932 2.512,-0.53934 6.299,-1.27106 8.414,-1.62602 4.968,-0.83358 9.47,-1.80365 17.79,-3.83396 3.703,-0.90338 9.436,-2.06956 12.742,-2.59152 3.305,-0.52196 7.092,-1.26175 8.414,-1.64398 1.322,-0.38223 3.486,-0.90993 4.808,-1.17268 1.323,-0.26274 3.85,-0.87157 5.616,-1.35296 l 3.212,-0.87524 0.214,-3.36377 c 0.443,-6.97387 1.371,-14.92878 1.856,-15.91541 0.276,-0.56294 0.357,-1.48314 0.178,-2.04488 -0.188,-0.59282 0,-1.6555 0.43,-2.53273 0.924,-1.84896 0.924,-1.84411 0.03,-1.84411 -0.903,0 -1.023,-4.31017 -0.144,-5.18765 0.448,-0.44831 0.448,-0.5764 0,-0.5764 -0.433,0 -0.577,-2.88203 -0.577,-11.52811 0,-8.64609 0.144,-11.52811 0.577,-11.52811 0.448,0 0.448,-0.12809 0,-0.57641 -0.318,-0.31702 -0.577,-1.07355 -0.577,-1.68118 0,-1.22152 -0.32,-1.28656 -3.126,-0.63561 -1.058,0.24544 -4.087,0.58811 -6.731,0.76149 -2.645,0.17337 -5.173,0.50778 -5.618,0.74313 -0.445,0.23534 -1.96,0.43585 -3.366,0.44556 -2.452,0.0169 -4.312,0.33196 -12.542,2.12469 -2.054,0.44754 -3.976,0.73336 -4.271,0.63516 -1.075,-0.35811 1.12,-1.81683 2.734,-1.81683 0.896,0 3.748,-0.5207 6.336,-1.15711 4.109,-1.01018 11.816,-2.0702 21.535,-2.96197 5.555,-0.50972 5.049,0.21975 5.049,-7.26714 0,-6.13696 0.07,-6.64159 1.081,-7.74742 l 1.082,-1.18289 -1.128,0.27842 -1.128,0.27841 0.212,-7.15705 c 0.146,-4.92828 0.05,-7.21311 -0.314,-7.3371 -0.29,-0.099 -1.717,0.0881 -3.171,0.41577 -1.455,0.32771 -4.376,0.71328 -6.491,0.85682 -2.116,0.14354 -4.658,0.41023 -5.65,0.59265 -1.482,0.27264 -1.803,0.19225 -1.803,-0.45169 0,-0.43085 0.271,-0.78766 0.601,-0.79291 1.505,-0.0239 13.28,-1.46254 14.785,-1.8064 l 1.683,-0.3845 0.14,-12.22915 c 0.08,-6.72604 0.01,-12.92455 -0.139,-13.77448 -0.317,-1.75596 0.45,-1.75159 -8.175,-0.0465 -5.028,0.99416 -13.35,2.05978 -21.831,2.79579 -2.752,0.23879 -6.611,0.67759 -8.576,0.97512 -3.49,0.5285 -4.852,0.3429 -3.52,-0.47965 0.366,-0.22543 2.847,-0.65064 5.516,-0.94492 17.94,-1.97846 27.079,-3.18817 29.613,-3.91958 0.926,-0.26714 3.492,-0.66295 5.703,-0.87957 2.275,-0.22284 4.18,-0.65176 4.388,-0.98783 0.261,-0.42258 0.462,-0.44057 0.696,-0.0624 0.429,0.69374 1.367,0.69054 1.135,-0.004 -0.216,-0.64804 -3.29,-1.83954 -7.835,-3.03731 -1.851,-0.48783 -3.582,-1.03818 -3.846,-1.22301 -0.265,-0.18483 -2.104,-0.82758 -4.087,-1.42834 -5.616,-1.70116 -10.681,-3.45494 -12.245,-4.23988 -1.144,-0.57423 -2.573,-0.65419 -7.212,-0.40356 -8.555,0.46214 -17.154,1.22314 -22.855,2.02252 -2.776,0.38939 -7.104,0.8062 -9.616,0.92625 -2.512,0.12005 -7.597,0.44255 -11.299,0.71666 -3.702,0.27411 -12.898,0.70564 -20.435,0.95895 -15.062,0.50624 -32.202,1.58407 -38.293,2.40805 -5.447,0.73677 -8.527,0.49822 -8.751,-0.67774 -0.147,-0.7773 0.04,-0.86821 1.271,-0.62198 1.356,0.27099 7.04,-0.11356 16.444,-1.11255 2.248,-0.23879 9.171,-0.65712 15.386,-0.92964 12.675,-0.55584 29.458,-1.63675 41.35,-2.6631 4.363,-0.37662 12.26,-0.92171 17.549,-1.21131 5.289,-0.28961 12.089,-0.8651 15.111,-1.27887 6.22,-0.85159 9.204,-0.65728 11.876,0.77346 1.016,0.5442 2.143,0.98946 2.504,0.98946 0.36,0 1.337,0.31221 2.17,0.69381 0.834,0.3816 2.814,1.05615 4.4,1.499 1.587,0.44285 3.102,0.96918 3.366,1.16962 0.265,0.20044 2.536,0.93971 5.049,1.64282 5.43,1.51983 11.513,3.6507 11.605,4.06543 0.302,1.36173 0.226,26.18431 -0.09,27.64931 -0.221,1.04253 -0.259,2.12329 -0.08,2.40169 0.465,0.74039 0.411,1.89874 -0.106,2.27086 -0.277,0.19879 -0.264,0.56938 0.03,0.96067 0.266,0.35037 0.423,2.25818 0.35,4.23957 -0.07,1.98139 -0.241,6.30443 -0.372,9.60676 -0.319,8.044 -0.377,13.87171 -0.182,18.40254 0.09,2.06373 0.05,3.86102 -0.08,3.99398 -0.206,0.20561 -0.347,6.9008 -0.541,25.63727 -0.02,1.9814 -0.03,7.27712 -0.02,11.76828 0.01,4.49116 -0.157,9.78689 -0.371,11.76828 -0.213,1.9814 -0.288,5.63092 -0.167,8.11005 0.121,2.47913 0.07,6.324 -0.116,8.54417 -0.369,4.42645 -0.924,5.22253 -3.853,5.53007 -1.268,0.13305 -1.443,0.002 -1.443,-1.08143 0,-2.31809 -2.368,-3.54557 -4.57,-2.36851 -0.495,0.26482 -3.023,0.90841 -5.618,1.4302 -2.594,0.52179 -8.179,1.83518 -12.41,2.91864 -4.231,1.08347 -8.775,2.07438 -10.097,2.20201 -2.447,0.2362 -16.199,3.52334 -18.663,4.46103 -0.744,0.28328 -1.988,0.51506 -2.764,0.51506 -0.777,0 -1.412,0.20189 -1.412,0.44865 0,0.59011 -9.772,3.63573 -14.664,4.57028 -2.116,0.40414 -5.47,1.19194 -7.453,1.75068 -1.983,0.55873 -4.688,1.29651 -6.01,1.63951 -1.322,0.34299 -5.447,1.50713 -9.167,2.58697 -6.84,1.98604 -13.6,3.38901 -16.408,3.4052 -1.82,0.0105 -2.543,0.87877 -1.416,1.70187 0.872,0.63699 0.67,1.79598 -0.563,3.23045 -0.985,1.1458 -2.128,1.05514 -3.371,-0.26755 z m -0.396,-4.54571 c 0.126,-0.20358 0.349,-3.60797 0.497,-7.56533 0.147,-3.95735 0.449,-7.84364 0.67,-8.6362 0.221,-0.79256 0.456,-4.03484 0.522,-7.20507 0.07,-3.17023 0.303,-7.06097 0.527,-8.64608 0.224,-1.58512 0.357,-8.61006 0.297,-15.61098 -0.06,-7.00093 0.04,-12.94511 0.223,-13.2093 0.184,-0.26418 0.156,-1.88533 -0.06,-3.60253 -0.218,-1.71721 -0.206,-5.87954 0.02,-9.24963 0.231,-3.37009 0.296,-9.361 0.144,-13.31313 -0.209,-5.44766 -0.128,-7.3639 0.336,-7.92245 0.496,-0.59748 0.493,-0.88034 -0.02,-1.49627 -0.497,-0.598 -0.509,-0.95551 -0.06,-1.68118 0.367,-0.58737 0.395,-0.92168 0.08,-0.92168 -0.339,0 -0.456,-6.28248 -0.365,-19.57377 0.163,-23.62523 0,-30.67635 -0.755,-31.24544 -0.304,-0.23126 -1.959,-0.92416 -3.678,-1.53977 -1.719,-0.61562 -4.797,-1.94774 -6.841,-2.96027 -2.043,-1.01253 -3.991,-1.84202 -4.327,-1.84331 -0.337,-10e-4 -2.102,-0.76646 -3.924,-1.70039 -1.822,-0.93393 -4.497,-2.11398 -5.945,-2.62234 -1.447,-0.50836 -2.899,-1.28927 -3.226,-1.73536 -0.358,-0.49017 -0.835,-0.6617 -1.205,-0.43355 -0.487,0.30103 -0.53,3.4539 -0.212,15.56428 0.22,8.35273 0.363,15.83523 0.318,16.62779 -0.04,0.79256 -0.175,21.86738 -0.291,46.83295 -0.117,25.33306 -0.455,49.68236 -0.764,55.10089 -0.656,11.501 -0.872,10.85801 4.963,14.81866 2.148,1.45753 4.986,3.49797 6.308,4.53431 6.229,4.88186 7.525,5.82975 9.807,7.17395 3.256,1.91806 6.456,2.86642 6.954,2.0612 z m 115.704,-45.02181 c 0,-3.27392 -0.656,-4.1648 -1.211,-1.64363 -0.383,1.74209 0.09,4.76583 0.752,4.76583 0.252,0 0.459,-1.40499 0.459,-3.1222 z m 4.808,-85.74032 c 0,-0.26419 -0.541,-0.48034 -1.202,-0.48034 -0.661,0 -1.202,0.21615 -1.202,0.48034 0,0.26419 0.541,0.48034 1.202,0.48034 0.661,0 1.202,-0.21615 1.202,-0.48034 z m 0.7,-28.78709 c 0.153,-0.24593 0.06,-0.58291 -0.212,-0.74885 -0.268,-0.16594 -0.488,0.0353 -0.488,0.44715 0,0.84372 0.288,0.96795 0.7,0.3017 z m -101.857,124.60061 c -1.388,-1.38735 0.333,-3.09716 2.144,-2.129 0.988,0.5282 1.099,0.89581 0.635,2.10362 -0.371,0.96588 -1.824,0.97915 -2.779,0.0254 z m 84.672,-15.41421 c -0.586,-0.58518 -0.379,-1.95742 0.392,-2.59637 1.126,-0.93405 3.225,0.16085 3.023,1.57755 -0.114,0.80458 -0.521,1.11216 -1.612,1.21897 -0.803,0.0786 -1.615,-0.0115 -1.803,-0.20015 z m -94.944,-2.90268 c -1.333,-0.53733 -0.469,-1.12404 1.683,-1.14268 1.256,-0.0109 5.097,-0.52978 8.534,-1.15309 3.438,-0.62332 8.847,-1.59727 12.021,-2.16433 3.173,-0.56706 7.176,-1.37695 8.895,-1.79974 1.719,-0.42279 4.64,-0.9613 6.491,-1.19668 3.53,-0.44883 21.731,-3.94624 30.772,-5.91297 6.412,-1.39476 8.895,-1.51929 8.895,-0.44608 0,0.58554 -0.462,0.73453 -2.044,0.65843 -1.123,-0.0541 -2.431,0.0644 -2.905,0.26323 -0.474,0.19887 -0.995,0.22868 -1.158,0.0662 -0.163,-0.16244 -0.532,-0.10645 -0.821,0.12442 -0.478,0.38283 -5.476,1.53292 -18.893,4.34826 -2.698,0.56612 -7.133,1.32552 -9.857,1.68755 -2.723,0.36204 -6.087,0.81283 -7.475,1.00176 -1.388,0.18893 -2.524,0.50353 -2.524,0.69911 0,0.40034 -2.427,0.92143 -6.01,1.29035 -1.323,0.13614 -5.65,0.89835 -9.617,1.69382 -3.966,0.79546 -8.186,1.6256 -9.376,1.84477 -2.401,0.44222 -5.686,0.5106 -6.611,0.13763 z m 78.733,-14.237 c 0,-0.61367 3.13,-1.77637 4.781,-1.77637 0.928,0 0.525,0.97803 -0.573,1.3917 -2.534,0.95374 -4.208,1.10676 -4.208,0.38467 z m 6.534,-1.47444 c 0.201,-0.52196 0.876,-0.78227 2.028,-0.78227 2.059,0 1.575,0.78462 -0.772,1.25361 -1.309,0.26154 -1.509,0.18667 -1.256,-0.47134 z m -74.39,-0.32065 c -0.585,-0.33187 -0.703,-0.82977 -0.468,-1.97776 0.173,-0.84383 0.565,-1.61794 0.873,-1.72025 0.71,-0.2365 2.66,1.68086 2.425,2.38471 -0.335,1.00326 -2.007,1.77948 -2.83,1.3133 z m 78.915,0.18687 c 0,-0.70925 3.016,-1.67055 3.554,-1.13287 0.258,0.2576 0.348,0.58929 0.2,0.73708 -0.496,0.49552 -3.754,0.83902 -3.754,0.39579 z m 4.517,-1.21046 c -0.232,-0.37564 -0.09,-0.46223 0.437,-0.26114 0.432,0.16545 0.913,0.0941 1.069,-0.15854 0.449,-0.72564 1.67,-0.5347 1.67,0.26114 0,0.87363 -2.651,1.006 -3.176,0.15854 z m 4.952,-0.22554 c -0.609,-0.60903 0.236,-1.13384 1.827,-1.13384 0.893,0 2.178,-0.2108 2.857,-0.46845 1.463,-0.5556 1.713,0.2385 0.392,1.24081 -0.862,0.65331 -4.523,0.91404 -5.076,0.36148 z m -3.532,-12.20635 c -0.662,-0.66144 -0.254,-2.72117 0.604,-3.05012 0.369,-0.14155 0.967,-0.14418 1.327,-0.006 0.645,0.24724 1.748,2.20554 1.748,3.1033 0,0.62211 -3.048,0.58289 -3.679,-0.0473 z m -80.944,-6.6762 c 0,-1.01764 3.449,-1.73315 11.78,-2.44358 3.438,-0.29318 8.306,-0.72847 10.818,-0.9673 2.513,-0.23884 6.84,-0.64544 9.617,-0.90355 2.776,-0.25812 6.315,-0.71033 7.863,-1.00493 3.99,-0.75932 10.036,-0.8472 10.272,-0.14929 0.125,0.37028 -0.918,0.66783 -3.084,0.88022 -5.442,0.5337 -6.047,0.60905 -9.041,1.12534 -3.084,0.53184 -16.041,1.67094 -16.834,1.47995 -0.261,-0.063 -0.8,0.0124 -1.197,0.16742 -1.496,0.58486 -7.174,1.31224 -10.377,1.32924 -1.829,0.01 -4.786,0.30006 -6.571,0.64523 -2.941,0.56866 -3.246,0.55376 -3.246,-0.15875 z m 50.966,-5.59907 c 0,-0.50653 0.262,-0.67167 0.761,-0.48034 0.418,0.16036 1.013,0.29487 1.322,0.29891 0.75,0.01 -0.702,0.93643 -1.482,0.94597 -0.33,0.004 -0.601,-0.34 -0.601,-0.76454 z m -56.749,-7.65039 c -0.772,-0.92944 0.145,-2.9025 1.515,-3.26057 2.854,-0.7454 4.004,1.92326 1.407,3.2646 -1.773,0.91617 -2.158,0.91563 -2.922,-0.004 z m 87.239,-8.27682 c -0.863,-0.58251 -1.101,-2.41198 -0.431,-3.3263 0.599,-0.81914 0.671,-0.81687 1.632,0.0521 1.27,1.14841 1.382,3.64509 0.163,3.63444 -0.462,-0.004 -1.076,-0.16616 -1.364,-0.36026 z m -86.51,-24.25291 c -1.103,-0.94739 -1.198,-1.24998 -0.76,-2.40169 0.498,-1.30834 1.52,-1.64345 3.13,-1.02617 0.866,0.33175 1.003,2.20187 0.263,3.58273 -0.641,1.1967 -1.091,1.17023 -2.633,-0.15487 z m 85.11,-7.64757 c -0.529,-0.29511 -1.024,-0.58483 -1.1,-0.64382 -0.08,-0.059 0.121,-0.67557 0.438,-1.37018 1.114,-2.4425 3.787,-1.10803 3.787,1.89055 0,0.82087 -1.751,0.89005 -3.125,0.12345 z m -6.011,-4.31765 c 0,-0.22015 0.204,-0.40028 0.453,-0.40028 0.249,0 0.564,0.18013 0.7,0.40028 0.136,0.22016 -0.07,0.40028 -0.452,0.40028 -0.385,0 -0.701,-0.18012 -0.701,-0.40028 z m -22.958,-2.44171 c 0.11,-0.33024 0.38,-0.60043 0.601,-0.60043 0.22,0 0.49,0.27019 0.601,0.60043 0.11,0.33023 -0.161,0.60042 -0.601,0.60042 -0.441,0 -0.712,-0.27019 -0.601,-0.60042 z m 8.444,-21.82325 c 0.347,-0.13876 0.762,-0.12169 0.921,0.0379 0.16,0.15961 -0.124,0.27314 -0.631,0.25228 -0.56,-0.0231 -0.674,-0.13687 -0.29,-0.2902 z"
       id="path1" /></g></svg>
