<?xml version="1.0" encoding="UTF-8" standalone="no"?>
<!-- Created with Inkscape (http://www.inkscape.org/) -->

<svg
   width="231.38646"
   height="235.24007"
   viewBox="0 0 61.221 62.240601"
   version="1.1"
   id="svg1"
   xml:space="preserve"
   xmlns="http://www.w3.org/2000/svg"
   xmlns:svg="http://www.w3.org/2000/svg"><defs
     id="defs1" /><g
     id="layer1"
     transform="translate(1472.671,3650.7208)"><g
       id="g1254"
       transform="matrix(0.26458333,0,0,0.26458333,-4774.6462,-3734.2797)"><path
         style="fill:#000000"
         d="m 12589.594,493.75687 c -2.379,-0.21943 -7.028,-0.63614 -10.331,-0.92602 -10.243,-0.89885 -14.086,-1.84518 -18.574,-4.57361 -1.589,-0.9658 -4.49,-4.95746 -4.49,-6.17771 0,-0.39063 -0.162,-0.78239 -0.36,-0.87056 -0.198,-0.0882 -0.85,-1.16464 -1.449,-2.39214 -0.599,-1.2275 -1.409,-2.49849 -1.802,-2.82443 -0.392,-0.32593 -0.713,-0.80808 -0.713,-1.07143 0,-0.26335 -0.661,-1.2649 -1.468,-2.22568 -2.881,-3.42811 -3.314,-3.97121 -4.378,-5.49471 -2.575,-3.68421 -7.493,-8.50218 -8.689,-8.51071 -0.462,-0.003 -0.841,-0.27928 -0.841,-0.6133 0,-0.33401 -1.243,-1.91469 -2.763,-3.51261 -1.519,-1.59792 -3.726,-4.15317 -4.903,-5.67834 -1.969,-2.55078 -7.22,-7.03544 -8.238,-7.03544 -0.238,0 -0.433,-0.24978 -0.433,-0.55507 0,-0.30528 -0.81,-1.2509 -1.801,-2.10137 -3.904,-3.3503 -6.808,-9.15468 -6.852,-13.6963 0,-0.92585 -0.44,-2.22445 -0.956,-2.88577 -1.533,-1.96103 -1.228,-4.00777 1.06,-7.11474 3.531,-4.79699 4.647,-5.64648 12.084,-9.20702 8.447,-4.04324 13.421,-5.38795 28.658,-7.74791 1.718,-0.26604 6.475,-0.80563 10.571,-1.19909 4.096,-0.39347 8.421,-0.81105 9.61,-0.92798 2.249,-0.2211 20.47,-0.98615 21.474,-0.90163 0.315,0.0265 2.801,0.18728 5.526,0.35727 6.845,0.42717 8.534,0.61288 22.516,2.47543 5.173,0.68922 10.055,1.78233 17.032,3.81397 1.586,0.4617 4.18,1.11684 5.766,1.45586 2.808,0.60041 10.566,3.14245 12.493,4.09382 0.528,0.26092 1.934,0.77763 3.123,1.14826 3.266,1.01795 11.442,4.87175 13.657,6.43758 1.077,0.76168 2.341,1.52348 2.807,1.6929 0.467,0.16942 1.066,0.90877 1.331,1.64301 0.266,0.73423 0.73,1.81917 1.032,2.41098 0.417,0.81837 0.402,1.56691 -0.07,3.12626 -0.338,1.12763 -0.679,2.48311 -0.759,3.01217 -0.553,3.66106 -5.954,13.83548 -7.701,14.50637 -0.302,0.11614 -1.284,1.19941 -2.182,2.40727 -0.899,1.20786 -5.103,4.9768 -9.344,8.37543 -5.273,4.22581 -8.615,7.31551 -10.571,9.77331 -3.307,4.15597 -5.356,6.95015 -6.147,8.38266 -1.378,2.49553 -3.182,6.30693 -4.105,8.67141 -1.086,2.78159 -4.93,8.51556 -6.494,9.68727 -2.132,1.59761 -7.005,3.66581 -7.491,3.17935 -0.329,-0.32966 -1.927,-0.29223 -4.931,0.1155 -11.896,1.61493 -22.658,2.14654 -29.909,1.47749 z m 16.962,-1.66231 c 2.987,-0.15351 7.311,-0.57823 9.61,-0.94383 2.298,-0.3656 5.721,-0.8116 7.606,-0.99111 4.494,-0.42788 7.179,-1.9953 10.054,-5.8679 1.203,-1.62056 2.955,-4.8506 3.892,-7.17786 0.938,-2.32725 2.115,-4.80816 2.617,-5.51313 0.501,-0.70497 0.911,-1.51369 0.911,-1.79716 0,-0.28347 1.352,-2.40925 3.003,-4.72395 3.33,-4.66611 8.201,-9.86876 11.223,-11.98691 4.464,-3.12939 8.928,-7.09771 12.742,-11.32808 4.664,-5.17337 5.61,-6.59993 7.435,-11.21708 0.732,-1.8517 1.508,-3.43888 1.723,-3.52706 0.215,-0.0882 0.392,-0.38361 0.392,-0.65652 0,-0.27291 -0.523,-0.15322 -1.162,0.26598 -1.083,0.70982 -4.899,1.68455 -10.61,2.70989 -1.322,0.23722 -4.457,0.89198 -6.967,1.45502 -3.905,0.87578 -6.961,1.08163 -21.142,1.42443 -23.551,0.5693 -63.489,0.79643 -67.749,0.38531 -1.982,-0.19128 -10.091,-0.58721 -18.019,-0.87986 -14.519,-0.53594 -19.34,-1.13842 -29.05,-3.6302 -3.47,-0.89025 -4.644,-0.89342 -3.912,-0.0106 0.432,0.52076 0.341,0.71726 -0.424,0.91742 -1.228,0.32141 -0.828,1.58294 0.626,1.97314 3.007,0.80729 5.04,-0.1777 2.423,-1.1738 -1.66,-0.63164 -1.222,-1.02607 0.71,-0.6393 1.011,0.20238 1.518,0.58558 1.518,1.14685 0,1.32604 1.224,2.0469 2.864,1.68647 0.911,-0.20029 1.461,-0.12922 1.461,0.18877 0,0.28051 0.552,0.64883 1.228,0.81849 0.904,0.22716 1.537,0.0178 2.4,-0.79434 1.332,-1.25268 1.991,-1.01888 1.216,0.43138 -0.286,0.53433 -0.52,1.4186 -0.52,1.96505 0,1.02987 -0.91,1.32328 -1.705,0.55001 -0.252,-0.24395 -1.264,-0.59202 -2.251,-0.7735 -1.629,-0.29958 -1.838,-0.2145 -2.27,0.9245 -0.678,1.7842 -1.656,1.62736 -1.29,-0.20673 0.354,-1.77087 -0.72,-2.42841 -2.029,-1.24244 -1.142,1.0346 -1.469,0.98346 -1.165,-0.18215 0.36,-1.37595 -1.218,-1.26709 -1.742,0.12024 -0.51,1.34866 -0.454,1.40491 1.756,1.7748 1.793,0.30007 1.806,0.3187 1.651,2.36169 -0.131,1.72286 0.05,2.25292 1.122,3.24502 1.257,1.16607 1.283,1.16921 1.539,0.18909 0.375,-1.43653 1.339,-0.88367 1.339,0.7681 0,1.0865 0.243,1.43528 1.081,1.55449 1.212,0.17228 1.356,0.58136 0.505,1.43349 -0.449,0.44889 -0.331,0.57715 0.532,0.57715 0.826,0 1.032,-0.19917 0.808,-0.7824 -0.336,-0.8769 0.557,-2.23469 1.206,-1.83323 0.231,0.14276 0.303,0.99251 0.161,1.88833 -0.214,1.34889 -0.07,1.73435 0.848,2.24316 0.608,0.33791 1.322,0.62206 1.586,0.63143 0.264,0.009 0.548,0.72045 0.631,1.58017 0.105,1.08474 0.399,1.56395 0.961,1.56581 0.446,10e-4 1.647,0.23525 2.67,0.5195 1.946,0.5409 1.866,1.2073 -0.178,1.48119 -2.219,0.2974 -1.288,1.45344 2.089,2.59168 1.809,0.60997 3.394,1.2139 3.522,1.34206 0.128,0.12816 -0.02,0.70766 -0.331,1.28778 -0.692,1.29382 -0.168,1.91556 1.73,2.05279 1.297,0.0938 1.399,-0.0209 1.399,-1.58227 0,-1.17569 0.217,-1.68337 0.721,-1.68337 0.708,0 0.787,0.59164 0.416,3.12046 -0.154,1.04473 0.04,1.22845 1.505,1.44737 1.11,0.16543 1.656,0.49475 1.607,0.96772 -0.04,0.39433 -0.15,1.24395 -0.241,1.88805 -0.135,0.96453 0.111,1.25252 1.397,1.63271 1.28,0.37824 1.562,0.70452 1.562,1.80654 0,0.73971 0.249,1.49896 0.553,1.68721 0.39,0.24145 0.321,0.51239 -0.235,0.91974 -0.677,0.49494 -0.378,0.74115 2.091,1.72285 3.042,1.20928 3.571,2.22474 1.027,1.971 -2.222,-0.2216 -1.862,0.75732 0.679,1.84758 2.049,0.8793 2.517,1.91065 0.866,1.91065 -1.024,0 -0.613,1.63233 0.464,1.83992 0.565,0.10893 0.963,-0.19062 1.137,-0.85583 0.147,-0.56288 0.51,-0.93777 0.807,-0.83307 0.616,0.21766 0.459,2.74539 -0.214,3.43215 -0.718,0.73226 -0.521,1.22646 0.489,1.22646 0.515,0 1.135,-0.35504 1.378,-0.78897 0.534,-0.95515 1.607,-0.42275 1.421,0.70499 -0.09,0.52143 0.249,0.85961 0.949,0.95911 1.662,0.23638 1.309,1.44345 -0.481,1.6417 l -1.562,0.17297 1.388,0.59241 c 1.75,0.74678 1.277,1.26803 -1.044,1.14996 -1.781,-0.0906 -1.782,-0.0894 -0.564,0.58723 3.231,1.79342 9.901,2.87495 25.684,4.16473 3.434,0.28064 6.337,0.60367 6.451,0.71786 0.114,0.1142 1.521,0.10233 3.126,-0.0264 1.605,-0.1287 5.362,-0.35959 8.349,-0.51309 z m -16.292,-23.46982 c -0.507,-1.11242 -0.405,-1.42611 0.973,-2.99688 1.783,-2.03208 1.66,-2.4591 -0.489,-1.709 -2.569,0.89629 -3.652,0.66285 -4.974,-1.07196 -1.372,-1.80077 -1.562,-3.51885 -0.543,-4.91278 0.566,-0.7751 1.199,-0.91712 3.724,-0.83645 2.521,0.0805 2.888,-0.002 2.148,-0.48097 -3.452,-2.23531 -4.004,-3.61164 -2.217,-5.53171 1.388,-1.49099 3.113,-1.80581 4.589,-0.83755 1.19,0.78037 1.271,0.76579 2.376,-0.42794 1.223,-1.32136 2.884,-1.57228 4.1,-0.61934 0.41,0.32225 1.067,1.77629 1.458,3.2312 0.701,2.60833 0.734,2.64334 2.376,2.50505 3.086,-0.25993 3.827,0.17926 3.827,2.26709 0,1.57005 -0.279,2.09164 -1.746,3.26976 -1.456,1.16937 -1.665,1.5558 -1.258,2.33123 0.715,1.36645 0.18,3.85173 -1.137,5.27351 -0.907,0.98066 -1.523,1.21306 -2.901,1.09563 -1.588,-0.13527 -1.877,-0.35903 -2.904,-2.24864 -0.05,-0.0966 -0.6,0.41161 -1.217,1.12948 -0.827,0.9623 -1.712,1.37189 -3.37,1.55899 -2.066,0.23304 -2.296,0.15232 -2.815,-0.98872 z m 4.55,-1.31844 c 1.067,-0.83995 1.266,-1.37613 1.266,-3.40682 0,-3.44403 1.222,-2.65303 2.901,1.8786 0.459,1.23852 0.851,1.56313 1.887,1.56313 1,0 1.519,-0.39365 2.208,-1.67481 1.093,-2.03116 0.668,-2.65155 -2.33,-3.39831 -2.733,-0.68077 -2.793,-1.95688 -0.08,-1.75949 1.537,0.11198 2.361,-0.16356 3.964,-1.32566 2.18,-1.58068 2.456,-2.15374 1.259,-2.6135 -0.858,-0.32935 -1.409,-0.089 -2.924,1.27445 -1.403,1.26189 -1.892,0.83133 -2.266,-1.99585 -0.511,-3.85201 -1.192,-5.34053 -2.443,-5.34053 -0.759,0 -1.276,0.43327 -1.679,1.40743 -0.741,1.79158 -0.255,3.33432 1.228,3.89881 1.533,0.5834 1.604,2.13947 0.08,1.73038 -0.595,-0.1595 -1.459,-0.29296 -1.922,-0.29657 -0.608,-0.005 -0.841,-0.39667 -0.841,-1.41256 0,-2.90044 -3.719,-5.53291 -5.235,-3.70508 -0.772,0.9316 -0.211,2.04191 1.362,2.69394 1.829,0.75845 2.805,2.59003 1.937,3.63638 -0.499,0.60259 -1.139,0.70225 -2.927,0.45607 -2.747,-0.37821 -4.272,0.0243 -4.251,1.12263 0.04,2.19413 3.045,3.34602 4.618,1.7712 0.971,-0.97159 1.776,-0.90792 2.797,0.2211 1.028,1.13661 0.711,2.92582 -0.76,4.29789 -1.932,1.80162 0,2.67626 2.154,0.97717 z m 16.817,-4.03245 c -0.725,-0.5089 -1.087,-1.45118 -1.321,-3.44336 -0.285,-2.42999 -0.184,-2.95177 0.89,-4.57585 1.279,-1.93417 1.696,-1.98329 4.045,-0.47635 1.455,0.93297 2.445,3.27316 2.115,4.99939 -0.318,1.66666 -2.626,4.19679 -3.828,4.19679 -0.496,0 -1.351,-0.31528 -1.901,-0.70062 z m 3.669,-2.42564 c 0.788,-0.83952 0.92,-1.20241 0.439,-1.20241 -0.379,0 -0.967,-0.44656 -1.308,-0.99235 -0.817,-1.30967 -2.792,-1.10396 -2.601,0.27091 0.488,3.51157 1.469,4.05566 3.47,1.92385 z m 0.223,-3.80597 c -0.448,-0.68428 -1.018,-1.24414 -1.268,-1.24414 -0.503,0 -0.147,0.76305 0.955,2.04704 1.049,1.22257 1.269,0.65779 0.313,-0.8029 z m -38.257,4.99488 c -0.475,-0.27724 -0.7,-0.83635 -0.557,-1.38379 0.143,-0.54511 -0.168,-1.32777 -0.765,-1.92499 -2.018,-2.02009 -0.548,-6.77794 2.094,-6.77794 1.409,0 1.997,0.74606 2.369,3.00602 0.164,0.99198 0.426,2.53691 0.584,3.43317 0.508,2.89155 -1.557,4.91427 -3.725,3.64753 z m 1.806,-3.93157 c -0.895,-0.50117 -1.011,-1.87374 -0.226,-2.65989 0.596,-0.59583 0.244,-2.05237 -0.495,-2.05237 -0.761,0 -1.971,1.452 -1.971,2.36643 0,1.20071 3.068,4.46249 3.293,3.50112 0.09,-0.39814 -0.177,-0.91803 -0.601,-1.15529 z m 41.957,-0.3466 c -1.639,-1.6403 -1.706,-2.0199 -0.543,-3.07361 1.979,-1.79205 5.69,1.14862 4.429,3.50839 -0.735,1.37386 -2.249,1.20451 -3.886,-0.43478 z m 2.92,-0.97054 c 0,-0.67022 -0.884,-1.09513 -1.493,-0.71809 -0.371,0.22934 -0.334,0.45422 0.12,0.74246 0.858,0.54401 1.373,0.53487 1.373,-0.0244 z m -56.698,-0.85433 c 0,-1.62548 1.962,-3.77461 3.061,-3.3525 0.501,0.19248 0.637,0.73714 0.465,1.86446 -0.291,1.91075 -0.496,2.1501 -2.205,2.57257 -1.215,0.30046 -1.321,0.2135 -1.321,-1.08453 z m -6.228,-2.50595 c -0.273,-0.5099 -0.373,-1.24788 -0.222,-1.63997 0.412,-1.07479 2.62,-1.47274 3.467,-0.62486 0.628,0.62841 0.554,0.85705 -0.626,1.95185 -1.6,1.48449 -1.969,1.52859 -2.619,0.31298 z m 68.298,-0.60367 c 0.102,-0.69687 0.634,-1.17773 1.583,-1.43037 1.98,-0.527 2.637,0.28169 1.225,1.50774 -1.539,1.33589 -3.009,1.29538 -2.808,-0.0774 z m 4.237,-6.64562 c 0,-0.26453 0.338,-0.48096 0.75,-0.48096 0.412,0 0.615,0.21643 0.452,0.48096 -0.164,0.26453 -0.501,0.48097 -0.749,0.48097 -0.249,0 -0.453,-0.21644 -0.453,-0.48097 z m 14.035,-2.46493 c 0.121,-0.36373 0.364,-0.60722 0.54,-0.54108 0.426,0.15992 0.311,0.53233 -0.28,0.9018 -0.264,0.16533 -0.381,0.003 -0.26,-0.36072 z m -85.902,41.47742 c 0.441,-0.71345 -0.876,-1.49594 -1.664,-0.98891 -0.617,0.39719 -0.615,0.51221 0.02,0.92705 0.9,0.59121 1.312,0.60667 1.648,0.0619 z m -2.729,-3.98671 c -0.948,-0.60258 -1.321,-0.46549 -1.321,0.48531 0,1.33083 0.619,1.67956 1.308,0.73661 0.49,-0.67038 0.492,-0.91736 0.01,-1.22192 z m -1.802,-3.25916 c 0,-0.80571 -0.876,-1.46596 -1.946,-1.46596 -0.467,0 -0.09,1.33532 0.634,2.27928 0.592,0.76698 1.312,0.32083 1.312,-0.81332 z m -2.428,-4.39981 c -0.542,-1.01428 -1.197,-1.17589 -1.669,-0.41182 -0.439,0.71055 0.67,1.89726 1.481,1.58563 0.506,-0.19446 0.554,-0.49023 0.188,-1.17381 z m -2.857,-2.8377 c 0,-0.26453 -0.337,-0.48097 -0.749,-0.48097 -0.412,0 -0.616,0.21644 -0.452,0.48097 0.163,0.26453 0.5,0.48096 0.749,0.48096 0.248,0 0.452,-0.21643 0.452,-0.48096 z m 0.225,-2.38069 c 0.155,-0.25125 -0.143,-0.6847 -0.663,-0.96322 -1.009,-0.54034 -1.792,0.0512 -1.244,0.93909 0.377,0.60954 1.537,0.62423 1.907,0.0241 z m -3.108,-1.40812 c 0,-0.6269 -1.241,-1.5421 -1.602,-1.18114 -0.36,0.36096 0.554,1.60321 1.18,1.60321 0.232,0 0.422,-0.18993 0.422,-0.42207 z m 0.209,-2.89427 c 0.321,-0.5205 -1.075,-1.12787 -1.702,-0.74017 -0.244,0.1514 -0.32,0.47675 -0.168,0.723 0.352,0.57011 1.522,0.58085 1.87,0.0172 z m -3.092,-1.20135 c 0,-0.69893 -1.16,-1.375 -1.602,-0.93322 -0.139,0.1399 -0.137,0.55785 0,0.92878 0.335,0.87383 1.597,0.87734 1.597,0.004 z m -4.128,-4.55028 c 0.295,-0.4774 -1.783,-1.52066 -2.982,-1.49721 -0.668,0.0131 -0.61,0.18966 0.316,0.96192 1.203,1.00311 2.248,1.21289 2.666,0.53529 z m -5.722,-5.36092 c -0.163,-0.26453 -0.621,-0.48096 -1.018,-0.48096 -0.396,0 -0.587,0.21643 -0.424,0.48096 0.164,0.26453 0.622,0.48097 1.018,0.48097 0.397,0 0.587,-0.21644 0.424,-0.48097 z m -2.643,-3.8477 c 0,-0.99574 -1.159,-1.32726 -1.681,-0.48096 -0.403,0.65139 0.14,1.44289 0.989,1.44289 0.381,0 0.692,-0.43287 0.692,-0.96193 z m -11.278,-10.60225 c 0.434,-0.70313 -0.672,-1.90278 -1.754,-1.90278 -1.137,0 -1.177,1.23483 -0.06,1.88532 1.082,0.63083 1.434,0.63421 1.815,0.0175 z m -3.361,-4.83697 c 0.176,-0.55569 0.07,-1.25537 -0.224,-1.55484 -0.405,-0.40535 -0.616,-0.27007 -0.824,0.52938 -0.388,1.48452 -1.61,1.37549 -1.61,-0.14363 0,-0.66963 -0.318,-1.33934 -0.705,-1.48826 -1.483,-0.56968 -1.664,0.12732 -0.484,1.86566 1.415,2.08476 3.313,2.4753 3.847,0.79169 z m 91.037,-2.58937 c 13.875,-0.15801 27.819,-0.38666 30.989,-0.50812 3.169,-0.12146 5.926,-0.22084 6.126,-0.22084 0.659,0 0.378,-2.75579 -0.342,-3.35409 -0.411,-0.3413 -2.468,-0.63047 -4.925,-0.69235 -2.321,-0.0584 -4.688,-0.36019 -5.26,-0.67055 -0.596,-0.32292 -3.062,-0.56421 -5.766,-0.56408 -7.013,3.1e-4 -7.267,-0.006 -11.692,-0.29433 -2.247,-0.14632 -4.29,-0.46675 -4.541,-0.71206 -0.585,-0.57155 -4.18,-0.57763 -5.673,-0.01 -0.914,0.34785 -1.561,0.1575 -3.191,-0.93796 -2.488,-1.67244 -5.824,-2.26701 -8.1,-1.44336 -0.954,0.34526 -2.358,0.45896 -3.356,0.27168 -1.119,-0.2102 -2.231,-0.0771 -3.202,0.38327 -3.825,1.81367 -6.625,2.1373 -15.422,1.78197 -1.85,-0.0747 -4.336,-0.132 -5.525,-0.12727 -1.19,0.005 -3.46,-0.0213 -5.046,-0.0578 -2.423,-0.0558 -2.862,0.0591 -2.754,0.72053 0.07,0.43283 -0.199,0.91301 -0.6,1.06707 -1.252,0.48058 -0.799,1.27223 0.727,1.27223 0.851,0 1.571,-0.2997 1.733,-0.72144 0.284,-0.7418 2.096,-1.0291 2.096,-0.33241 0,1.46696 -3.964,3.53112 -4.928,2.56617 -0.777,-0.77732 -2.126,-0.68325 -2.453,0.17105 -0.153,0.3968 -0.5,0.72145 -0.773,0.72145 -0.953,0 -0.481,-1.21803 1.209,-3.11874 0.955,-1.07362 1.465,-1.99608 1.161,-2.09767 -0.299,-0.0997 -1.168,0.54618 -1.931,1.43537 -1.163,1.35621 -1.466,1.50046 -1.881,0.89526 -0.438,-0.63902 -0.547,-0.63947 -0.955,-0.004 -0.253,0.3946 -0.338,1.20623 -0.188,1.80361 0.392,1.56303 -0.71,1.36739 -1.318,-0.23407 -0.39,-1.02603 -0.323,-1.69555 0.301,-3.00452 0.777,-1.63234 0.775,-1.66037 -0.09,-0.9087 -0.489,0.42658 -1.484,0.917 -2.211,1.08984 -0.726,0.17283 -1.33,0.58066 -1.341,0.90628 -0.01,0.32562 -0.816,1.10101 -1.789,1.72309 -1.396,0.8927 -1.947,1.0194 -2.616,0.60121 -1.331,-0.83224 -2.782,-0.65376 -2.782,0.3422 0,0.70084 0.44,0.89485 2.24,0.98816 1.233,0.0639 2.368,0.12993 2.523,0.14683 0.995,0.10845 1.416,-0.17826 1.178,-0.80058 -0.441,-1.15039 1.096,-1.37611 2.155,-0.31639 1.125,1.12614 2.816,1.38775 11.604,1.79574 3.567,0.16563 9.513,0.45573 13.213,0.64466 3.7,0.18893 7.051,0.2866 7.448,0.21705 0.396,-0.0696 12.072,-0.25574 25.946,-0.41375 z m -45.166,-2.14346 c 0,-0.75617 0.95,-1.09728 2.19,-0.78595 1.747,0.43891 1.419,1.23853 -0.508,1.23853 -0.925,0 -1.682,-0.20366 -1.682,-0.45258 z m 5.125,0.13193 c -0.58,-0.58072 -0.333,-2.08417 0.342,-2.08417 0.887,0 1.901,1.27505 1.513,1.90278 -0.349,0.56593 -1.371,0.66582 -1.855,0.18139 z m 80.521,0.68137 c 0.121,-0.33066 0.264,-2.08237 0.318,-3.89269 0.107,-3.59653 -0.6,-4.05147 -1.071,-0.68959 -0.159,1.13147 -0.432,2.76063 -0.608,3.62035 -0.248,1.21738 -0.158,1.56313 0.41,1.56313 0.402,0 0.829,-0.27054 0.951,-0.6012 z m 7.378,-0.37971 c 2.141,-0.30653 4.138,-0.70896 4.437,-0.89429 0.743,-0.45924 1.308,-3.41539 0.654,-3.41539 -0.279,0 -1.315,0.76339 -2.304,1.69642 -0.988,0.93302 -2.011,1.62482 -2.273,1.53732 -0.263,-0.0875 -0.525,-1.12142 -0.584,-2.29761 -0.133,-2.65467 -0.04,-2.50676 -1.154,-1.91176 -0.709,0.37967 -0.917,0.96139 -0.86,2.40054 0.08,2.06844 -0.239,2.70753 -1.095,2.178 -0.317,-0.19594 -0.426,-0.84122 -0.257,-1.51626 0.266,-1.06114 0.2,-1.1244 -0.681,-0.65205 -1.265,0.67724 -2.59,2.70816 -2.19,3.35564 0.171,0.27714 0.784,0.40778 1.363,0.29033 0.578,-0.11745 2.803,-0.46435 4.944,-0.77089 z m -140.833,-0.2215 c 0,-0.26452 -0.486,-0.55012 -1.081,-0.63465 -0.744,-0.10575 -1.081,0.0922 -1.081,0.63465 0,0.54245 0.337,0.74041 1.081,0.63466 0.595,-0.0845 1.081,-0.37013 1.081,-0.63466 z m 22.838,-0.4437 c -0.602,-1.58543 0.257,-2.21138 3.439,-2.50652 1.502,-0.1392 2.949,-0.5939 3.514,-1.10398 1.367,-1.23385 8.243,-3.88457 10.029,-3.86639 0.826,0.008 1.867,0.29272 2.313,0.63179 0.606,0.46095 2.909,0.57803 9.129,0.46404 5.108,-0.0936 9.486,0.0695 11.343,0.42257 3.166,0.60182 4.142,0.42979 10.67,-1.879 2.041,-0.72176 2.733,-0.81085 5.045,-0.64926 0.529,0.0369 2.113,-0.078 3.521,-0.25533 2.718,-0.34249 5.889,0.36433 7.413,1.65263 0.569,0.48075 2.211,0.76004 5.045,0.85798 7.17,0.24777 10.882,0.56469 12.12,1.0348 0.718,0.27269 1.808,0.28144 2.747,0.022 1.389,-0.38412 5.814,-0.0882 12.879,0.86149 1.833,0.24631 2.04,0.13397 4.445,-2.41315 2.512,-2.6605 2.522,-2.68438 2.522,-5.80687 0,-2.53396 0.146,-3.13539 0.758,-3.13539 0.57,0 0.737,0.4469 0.674,1.80361 -0.122,2.64809 -0.04,3.09545 0.49,2.76554 0.534,-0.33048 0.578,-8.44658 0.06,-10.32225 -0.347,-1.24678 -0.116,-1.15423 -8.463,-3.3863 -2.115,-0.56531 -5.358,-1.44399 -7.208,-1.95262 -1.85,-0.50862 -6.606,-1.34559 -10.571,-1.85993 -3.964,-0.51434 -8.072,-1.05955 -9.129,-1.21159 -2.544,-0.36585 -5.45,-0.63275 -12.973,-1.19125 -6.027,-0.44745 -7.814,-0.4304 -20.902,0.19945 -6.812,0.32788 -24.008,1.96252 -27.628,2.62636 -1.321,0.24232 -3.483,0.57623 -4.805,0.74201 -3.578,0.44897 -9.955,1.69002 -11.051,2.1507 -0.529,0.22221 -2.366,0.8829 -4.084,1.46822 -1.718,0.58531 -4.04,1.47219 -5.16,1.97083 -1.121,0.49865 -2.125,0.90663 -2.233,0.90663 -0.61,0 -7.027,4.19062 -8.37,5.46593 -2.03,1.92664 -4.418,5.64121 -4.418,6.87099 0,1.16588 2.606,3.76297 3.328,3.31643 0.288,-0.17793 0.646,-0.002 0.797,0.39123 0.151,0.39311 0.636,0.86123 1.078,1.04028 1.435,0.58146 16.629,3.95348 21.224,4.71054 2.758,0.45427 2.89,0.40862 2.417,-0.83626 z m 2.028,-3.76472 c 0.11,-0.33066 0.596,-0.6012 1.081,-0.6012 0.484,0 0.971,0.27054 1.081,0.6012 0.127,0.38076 -0.27,0.6012 -1.081,0.6012 -0.812,0 -1.208,-0.22044 -1.081,-0.6012 z m -21.983,-3.73212 c -1.326,-0.5007 -4.084,-4.05126 -4.084,-5.25773 0,-1.13338 1.591,-2.91398 2.603,-2.91398 1.239,0 2.202,0.57307 2.202,1.30996 0,0.50043 -0.313,0.64413 -1.007,0.4624 -1.414,-0.37008 -2.356,0.0958 -2.356,1.16488 0,0.70504 0.352,0.91213 1.561,0.91783 2.267,0.0107 3.181,0.69669 1.867,1.40075 -1.357,0.7267 -1.305,1.47766 0.101,1.47766 1.167,0 2.344,-1.04368 2.881,-2.55554 0.406,-1.14281 1.277,-0.57931 1.277,0.82601 0,1.91451 -3.141,3.88669 -5.045,3.16776 z m 5.76,-3.37216 c -0.167,-0.27007 0.432,-0.79865 1.331,-1.17462 0.899,-0.37597 1.914,-1.02073 2.256,-1.43281 0.721,-0.86937 0.01,-1.02468 -0.832,-0.18179 -0.422,0.42227 -0.846,0.43113 -1.658,0.0346 -0.6,-0.29305 -1.9,-0.6661 -2.889,-0.82899 -1.403,-0.23121 -1.865,-0.56295 -2.103,-1.51271 -0.468,-1.86772 0.528,-2.51099 1.896,-1.22446 1.401,1.31752 4.176,2.18613 4.845,1.51657 0.914,-0.91525 2.088,-0.50615 2.34,0.81585 0.354,1.85144 -0.02,2.4755 -2.097,3.53795 -2.09,1.06732 -2.657,1.15002 -3.089,0.4504 z m 106.777,-4.92218 c -1.312,-1.05698 -1.52,-2.22509 -0.647,-3.6259 0.218,-0.34988 0.142,-0.91875 -0.174,-1.29957 -0.753,-0.90826 -0.188,-2.50297 1.213,-3.42145 1.453,-0.95305 2.929,-0.49436 3.311,1.02893 0.184,0.73569 0.897,1.4335 1.887,1.84745 2.049,0.85711 3.108,3.14987 2.287,4.95355 -0.492,1.07904 -0.781,1.20581 -2.221,0.97193 -0.911,-0.14794 -1.781,-0.0668 -1.933,0.18032 -0.49,0.79284 -2.344,0.47652 -3.723,-0.63526 z m 2.794,-1.27978 c -0.387,-1.22179 0.693,-1.85081 1.434,-0.8354 0.559,0.76427 2.637,1.1364 2.637,0.47207 0,-0.70281 -1.64,-2.08196 -2.477,-2.08196 -0.553,0 -0.886,-0.34648 -0.886,-0.92259 0,-2.24717 -1.44,-3.21493 -2.784,-1.87036 -0.444,0.44441 -0.33,0.83199 0.502,1.71889 0.997,1.06284 1.014,1.17883 0.237,1.61445 -1.075,0.60187 -1.073,1.67951 0,2.30686 1.265,0.73786 1.658,0.6196 1.334,-0.40196 z m -80.226,0.48657 c -0.179,-0.28988 -1.293,-0.52705 -2.475,-0.52705 -1.472,0 -2.236,-0.22849 -2.427,-0.72515 -0.368,-0.961 0.981,-2.96618 2.272,-3.37637 0.839,-0.26646 0.986,-0.60614 0.798,-1.84009 -0.127,-0.83232 -0.133,-1.78385 -0.01,-2.11451 0.304,-0.84444 1.581,-0.74764 2.626,0.19901 0.695,0.62995 1.112,0.69039 1.96,0.28409 3.501,-1.67886 3.923,-1.2238 3.264,3.52093 -0.289,2.08084 -0.684,3.93423 -0.876,4.11864 -0.67,0.64018 -4.788,1.0101 -5.127,0.4605 z m 3.312,-1.56617 c 1.265,-0.57693 1.682,-1.46745 0.623,-1.32979 -2.399,0.31179 -3.083,-0.95079 -0.805,-1.48524 0.725,-0.17013 1.224,-0.67495 1.319,-1.33591 0.176,-1.21942 -0.798,-1.41055 -2.351,-0.46125 -0.837,0.51116 -1.087,0.4624 -1.671,-0.32561 -1.054,-1.42376 -1.326,-0.60144 -0.726,2.19831 0.7,3.26729 1.358,3.76686 3.611,2.73949 z m -4.24,-1.70456 c -0.396,-0.39644 -1.744,0.23858 -1.744,0.82166 0,0.3557 0.308,0.34838 1.003,-0.0239 0.551,-0.29527 0.884,-0.65428 0.741,-0.79779 z m 90.6,0.69959 c 0.08,-0.85972 0.367,-1.56313 0.632,-1.56313 0.264,0 0.548,0.70341 0.631,1.56313 0.114,1.18469 -0.04,1.56313 -0.631,1.56313 -0.593,0 -0.746,-0.37844 -0.632,-1.56313 z m -49.224,-2.14684 c -1.022,-1.02327 -1.43,-1.17909 -1.887,-0.72145 -0.714,0.71448 -3.007,0.76061 -4.266,0.0858 -1.195,-0.64003 -1.195,-2.21398 0,-2.96095 0.695,-0.43462 0.861,-0.92417 0.658,-1.94098 -0.381,-1.90778 0.943,-3.25751 3.196,-3.25751 2.091,0 2.904,0.69246 2.904,2.47262 0,1.87741 -0.778,2.11175 -1.37,0.41258 -0.341,-0.98003 -0.823,-1.44231 -1.503,-1.44231 -1.964,0 -1.619,1.38264 1.019,4.08336 2.011,2.05867 2.899,2.63763 4.056,2.6431 1.95,0.009 2.349,-0.46513 1.118,-1.32815 -1.329,-0.93202 -0.474,-1.8822 0.914,-1.01482 0.996,0.6226 2.233,2.77086 1.828,3.17564 -0.278,0.2785 -3.657,1.07145 -4.631,1.08672 -0.403,0.006 -1.319,-0.57585 -2.036,-1.29368 z m -2.863,-2.46278 c 0.144,-0.43599 -0.14,-0.59016 -0.885,-0.48096 -0.604,0.0884 -1.192,0.44947 -1.309,0.80239 -0.143,0.43599 0.141,0.59016 0.886,0.48096 0.604,-0.0884 1.192,-0.44947 1.308,-0.80239 z m 4.91,-1.42646 c 0,-0.21163 0.259,-0.64449 0.576,-0.96193 0.449,-0.4489 0.395,-0.57715 -0.24,-0.57715 -1.155,0 -1.033,-1.71747 0.182,-2.56986 0.55,-0.3853 1.361,-0.63056 1.802,-0.54503 0.442,0.0855 0.965,0.17207 1.163,0.19231 0.198,0.0202 0.361,0.67039 0.361,1.44478 0,0.9482 -0.414,1.7335 -1.266,2.40481 -1.282,1.00905 -2.578,1.31685 -2.578,0.61207 z m 71.833,23.70412 c 0.793,-0.16142 1.928,-0.39225 2.523,-0.51296 0.95,-0.19285 1.081,-0.51492 1.081,-2.6552 0,-1.73323 -0.173,-2.37879 -0.601,-2.23832 -0.33,0.10858 -0.669,0.77789 -0.753,1.48736 -0.247,2.09277 -4.532,3.74312 -5.199,2.00261 -0.152,-0.39679 -0.686,-0.72144 -1.186,-0.72144 -0.695,0 -0.91,0.34847 -0.91,1.47724 0,1.34659 0.07,1.41001 0.759,0.71702 0.897,-0.89735 1.727,-0.56648 1.309,0.52194 -0.22,0.57555 -0.07,0.69483 0.622,0.4884 0.503,-0.15023 1.562,-0.40522 2.355,-0.56665 z m -152.075,-0.30308 c 0,-0.44282 -1.913,-1.062 -2.247,-0.72742 -0.139,0.13882 -0.118,0.46946 0.05,0.73476 0.333,0.53953 2.201,0.5333 2.201,-0.007 z m 131.654,-1.47601 c 0,-1.44193 -0.05,-1.4921 -0.799,-0.74558 -0.661,0.66116 -0.692,0.93004 -0.182,1.54595 0.867,1.04597 0.981,0.95314 0.981,-0.80037 z m -135.258,0.10306 c -0.163,-0.26453 -0.501,-0.48096 -0.749,-0.48096 -0.249,0 -0.452,0.21643 -0.452,0.48096 0,0.26453 0.337,0.48097 0.749,0.48097 0.412,0 0.615,-0.21644 0.452,-0.48097 z m 140.945,-3.65469 c -0.101,-1.1227 0.06,-1.86189 0.439,-1.99127 0.351,-0.12003 0.601,0.19988 0.601,0.76787 0,1.23335 0.936,1.84445 1.488,0.97177 0.574,-0.90764 0.546,-4.75101 -0.03,-4.75101 -0.259,0 -0.824,0.54109 -1.257,1.20241 -0.433,0.66132 -1.053,1.20241 -1.378,1.20241 -1.027,0 -2.042,1.61046 -2.368,3.75664 -0.413,2.72574 -0.06,3.1603 1.438,1.77044 0.981,-0.91024 1.2,-1.50827 1.072,-2.92926 z m 5.11,1.46664 c 0.02,-1.98161 -0.397,-2.82915 -0.796,-1.63 -0.268,0.8024 0.162,4.38667 0.487,4.06188 0.16,-0.1602 0.299,-1.25454 0.309,-2.43188 z m 16.628,1.26313 c 1.327,-1.32815 1.963,-2.84423 0.924,-2.20133 -0.264,0.16348 -0.48,0.59454 -0.48,0.9579 0,0.36335 -0.413,0.79183 -0.918,0.95216 -1.173,0.37276 -2.349,1.69716 -1.507,1.69716 0.317,0 1.209,-0.63265 1.981,-1.40589 z m -30.308,-1.2983 c 0,-1.59012 -0.07,-1.68462 -0.841,-1.08217 -1.048,0.8228 -2.006,1.98796 -2.026,2.46371 0,0.1984 0.633,0.36072 1.426,0.36072 1.336,0 1.441,-0.12706 1.441,-1.74226 z m -87.93,0.51147 c 0,-0.41241 -0.216,-0.61607 -0.48,-0.45258 -0.264,0.16349 -0.481,0.50091 -0.481,0.74983 0,0.24892 0.217,0.45258 0.481,0.45258 0.264,0 0.48,-0.33742 0.48,-0.74983 z m 104.596,-0.7769 c 0.766,-0.72019 1.112,-1.58866 1.112,-2.78958 0,-1.91373 0.686,-2.89813 2.019,-2.89813 0.475,0 0.891,-0.32465 0.924,-0.72145 0.03,-0.39679 0.09,-0.97395 0.121,-1.28257 0.128,-1.19507 1.261,-0.94296 1.261,0.28057 0,1.3941 0.55,1.59603 1.436,0.52716 0.684,-0.82519 0.326,-2.16906 -0.58,-2.17342 -0.339,-0.002 -1.25,-0.33413 -2.026,-0.73889 -0.775,-0.40477 -1.694,-0.62666 -2.042,-0.4931 -0.779,0.29919 -0.838,2.04799 -0.08,2.30163 0.741,0.24726 -0.825,2.64952 -1.963,3.01102 -0.463,0.14713 -1.303,0.75948 -1.868,1.36078 -0.894,0.95328 -0.963,1.32175 -0.533,2.87751 0.573,2.07991 0.734,2.13343 2.217,0.73847 z m 3.825,0.32391 c -0.754,-0.39376 -1.604,-0.57152 -1.89,-0.39503 -0.596,0.36897 0.817,1.0325 2.301,1.08012 0.759,0.0244 0.672,-0.11973 -0.411,-0.68509 z m -18.104,-2.04368 c -0.01,-1.97803 -0.1,-2.1741 -0.64,-1.46121 -0.664,0.87484 -0.488,3.74578 0.23,3.74578 0.234,0 0.419,-1.02806 0.41,-2.28457 z m 21.009,1.68337 c 0.574,-0.88831 0.472,-2.43665 -0.208,-3.15692 -0.941,-0.99528 -1.374,-0.32992 -1.171,1.79832 0.189,1.98279 0.669,2.45604 1.379,1.3586 z m 5.758,0 c 0.511,-0.8073 0.66,-5.17035 0.176,-5.17035 -0.602,0 -1.287,1.10975 -1.338,2.16872 -0.02,0.53147 -0.09,1.18077 -0.142,1.44289 -0.363,1.81554 0.493,2.83933 1.304,1.55874 z m -8.202,-2.15431 c -0.489,-0.48891 -0.892,0.24716 -0.491,0.89621 0.303,0.49031 0.416,0.49068 0.579,0.002 0.111,-0.33416 0.07,-0.73833 -0.09,-0.89815 z m -15.666,-1.81363 c 0,-1.19039 -0.145,-2.16434 -0.323,-2.16434 -0.779,0 -1.992,1.60507 -1.761,2.32977 0.14,0.43807 0.334,1.06703 0.433,1.3977 0.1,0.33066 0.51,0.6012 0.915,0.6012 0.552,0 0.736,-0.54141 0.736,-2.16433 z m 21.537,-2.79477 c -0.253,-0.479 -0.716,-0.78084 -1.029,-0.67076 -0.708,0.24959 -0.481,3.66292 0.307,4.61377 0.459,0.55337 0.624,0.32838 0.874,-1.1952 0.17,-1.03229 0.101,-2.26881 -0.152,-2.74781 z m -6.642,3.03525 c 0,-0.26453 -0.216,-0.48097 -0.481,-0.48097 -0.264,0 -0.48,0.21644 -0.48,0.48097 0,0.26453 0.216,0.48096 0.48,0.48096 0.265,0 0.481,-0.21643 0.481,-0.48096 z m -6.796,-2.5014 c 0.05,-2.12948 -0.04,-2.39765 -0.598,-1.80361 -0.415,0.44322 -0.569,1.35578 -0.421,2.5014 0.338,2.62732 0.953,2.20606 1.019,-0.69779 z m -4.867,-1.32813 c 0,-1.06811 -0.187,-1.94203 -0.415,-1.94203 -0.228,0 -0.415,0.56424 -0.415,1.25387 0,0.91694 -0.194,1.17947 -0.721,0.97702 -0.512,-0.19667 -0.72,0.0438 -0.72,0.83031 0,1.4487 0.417,1.8163 1.439,1.26873 0.578,-0.30987 0.832,-1.03821 0.832,-2.3879 z m 7.66,0.70703 c -0.09,-0.2666 -0.521,-0.5547 -0.962,-0.64023 -0.581,-0.11279 -0.801,0.18559 -0.801,1.08624 0,1.12189 0.09,1.18369 0.962,0.64023 0.529,-0.33083 0.89,-0.81964 0.801,-1.08624 z m -10.801,-2.16488 c 0.499,-0.87519 0.629,-1.53801 0.337,-1.71865 -0.303,-0.18746 -0.271,-0.54007 0.09,-0.97268 0.696,-0.83991 -0.06,-0.89382 -1.089,-0.0774 -0.907,0.72139 -1.543,4.73497 -0.698,4.40695 0.302,-0.11747 0.916,-0.85466 1.362,-1.6382 z m 6.29,0.012 c 0.201,-0.76744 0.02,-0.97716 -0.821,-0.97716 -1.41,0 -1.624,0.26618 -1.354,1.6828 0.183,0.95531 0.386,1.09305 1.073,0.72538 0.466,-0.24963 0.962,-0.89359 1.102,-1.43102 z m 5.631,0.0241 c 0,-0.24289 0.126,-0.77042 0.28,-1.17228 0.195,-0.50716 -0.314,-1.03409 -1.663,-1.7227 -2.625,-1.3409 -3.422,-1.27996 -3.422,0.26181 0,1.00552 0.167,1.18523 0.841,0.90736 2.492,-1.02696 3.423,-0.62218 1.755,0.76325 -0.697,0.57881 -0.686,0.6696 0.12,0.98701 1.264,0.49787 2.089,0.48822 2.089,-0.0245 z m -7.753,-4.17661 c 0.732,-1.60783 0.721,-1.63428 -0.646,-1.63428 -0.864,0 -1.274,0.32396 -1.487,1.17507 -0.593,2.36528 1.1,2.72968 2.133,0.45921 z m 1.987,0.95213 c 0,-0.6391 -0.13,-0.67197 -0.721,-0.18159 -0.396,0.32931 -0.72,0.68046 -0.72,0.78033 0,0.0999 0.324,0.18159 0.72,0.18159 0.397,0 0.721,-0.35115 0.721,-0.78033 z m -5.285,-3.06659 c 0,-0.33186 -1.603,-0.93938 -2.523,-0.95614 -0.432,-0.008 -0.486,2.11211 -0.07,2.53354 0.342,0.34233 2.588,-1.02658 2.588,-1.5774 z m -138.555,36.69964 c -0.541,-0.54165 -0.33,-1.10917 0.413,-1.10917 0.397,0 0.721,0.20366 0.721,0.45258 0,0.60648 -0.75,1.04084 -1.134,0.65659 z m 97.232,-55.45797 c 0,-0.26453 0.217,-0.48096 0.481,-0.48096 0.264,0 0.48,0.21643 0.48,0.48096 0,0.26453 -0.216,0.48096 -0.48,0.48096 -0.264,0 -0.481,-0.21643 -0.481,-0.48096 z m 1.202,-25.01006 c -0.164,-0.26453 0.04,-0.48097 0.452,-0.48097 0.412,0 0.749,0.21644 0.749,0.48097 0,0.26452 -0.204,0.48096 -0.452,0.48096 -0.249,0 -0.586,-0.21644 -0.749,-0.48096 z m -51.173,-10.10022 c 0,-0.26453 0.216,-0.48097 0.481,-0.48097 0.264,0 0.48,0.21644 0.48,0.48097 0,0.26453 -0.216,0.48096 -0.48,0.48096 -0.265,0 -0.481,-0.21643 -0.481,-0.48096 z"
         id="path2" /></g></g></svg>
