<?xml version="1.0" encoding="UTF-8" standalone="no"?>
<!-- Created with Inkscape (http://www.inkscape.org/) -->

<svg
   width="231.38646"
   height="235.24007"
   viewBox="0 0 61.221 62.240601"
   version="1.1"
   id="svg1"
   xml:space="preserve"
   xmlns="http://www.w3.org/2000/svg"
   xmlns:svg="http://www.w3.org/2000/svg"><defs
     id="defs1" /><g
     id="g1379"
     transform="matrix(0.26458333,0,0,0.26458333,-3455.8075,-201.95115)"><path
       style="fill:#000000"
       d="m 13160.267,952.75414 c -0.875,-1.39984 -0.76,-1.4739 1.768,-1.13886 1.581,0.20963 2.458,0.12661 2.694,-0.25517 0.255,-0.41221 0.595,-0.34432 1.252,0.25 0.841,0.76081 0.984,0.76217 2.118,0.0202 1.345,-0.88082 1.595,-2.10027 0.516,-2.51428 -0.385,-0.1475 -1.909,0.18383 -3.387,0.7363 -1.478,0.55247 -3.011,1.00449 -3.408,1.00449 -0.821,0 -2.745,-4.10189 -2.464,-5.25289 0.204,-0.83454 0.268,-0.73424 1.275,2.01979 0.669,1.82825 1.498,2.01869 3.944,0.9061 1.151,-0.52328 2.932,-1.10842 3.958,-1.30031 1.025,-0.19189 3.672,-1.29332 5.88,-2.44762 2.208,-1.1543 4.535,-2.09872 5.171,-2.09872 1.678,0 7.902,-2.13307 10.421,-3.57146 3.533,-2.01753 5.301,-2.72929 7.893,-3.17706 1.349,-0.23304 4.043,-0.97358 5.987,-1.64563 1.944,-0.67206 3.842,-1.22192 4.217,-1.22192 0.375,0 1.058,-0.18994 1.518,-0.4221 2.181,-1.10157 4.513,-1.95016 6.2,-2.2557 1.02,-0.18454 2.468,-0.64681 3.22,-1.02727 1.612,-0.81582 2.843,-0.49149 2.644,0.69677 -0.138,0.82439 0.87,3.73141 1.626,4.69111 0.208,0.26445 0.778,1.00408 1.267,1.64364 0.865,1.13399 0.934,1.14429 2.766,0.41538 2.326,-0.92525 2.555,-1.8783 0.956,-3.97298 -0.683,-0.89535 -1.242,-1.82516 -1.242,-2.06626 0,-0.24111 -0.44,-0.83607 -0.978,-1.32216 -0.848,-0.7669 -1.068,-0.79265 -1.661,-0.19472 -0.592,0.59637 -0.389,1.04272 1.506,3.31777 1.204,1.44579 1.959,2.70547 1.677,2.79929 -0.856,0.28507 -2.716,-1.42277 -3.659,-3.35876 -0.489,-1.00585 -1.065,-1.82883 -1.278,-1.82883 -0.214,0 -0.251,-0.36003 -0.08,-0.80007 0.231,-0.6 0.137,-0.69716 -0.376,-0.38851 -0.583,0.35131 -0.586,0.29246 -0.02,-0.40193 0.364,-0.44743 0.844,-0.8135 1.068,-0.8135 0.566,0 8.173,-4.48098 12.153,-7.15892 4.431,-2.981 4.917,-3.30407 8.254,-5.48447 1.587,-1.03763 3.542,-2.56595 4.344,-3.39626 0.801,-0.83032 2.858,-2.69966 4.571,-4.15409 1.713,-1.45443 3.656,-3.20927 4.317,-3.89964 1.085,-1.13215 2.406,-4.31543 2.406,-5.79806 0,-0.31767 0.447,-1.05253 0.992,-1.63301 l 0.993,-1.05543 -2.248,-1.08749 c -1.237,-0.59812 -3.19,-1.80507 -4.339,-2.6821 -1.15,-0.87704 -2.952,-2.13756 -4.004,-2.80117 -2.9,-1.82932 -11.604,-10.0098 -11.604,-10.90633 0,-0.18502 -0.787,-1.27639 -1.75,-2.42529 -1.928,-2.3013 -3.712,-6.00361 -3.348,-6.95023 0.128,-0.33318 0.07,-0.67385 -0.119,-0.75705 -0.547,-0.23534 -2.963,-6.10765 -2.963,-7.20058 0,-0.53674 -0.4,-1.5502 -0.889,-2.25213 -1.614,-2.31585 -1.81,-5.64244 -0.258,-4.35485 0.366,0.30357 0.666,0.82358 0.666,1.15557 0,0.33198 0.366,1.44139 0.813,2.46534 0.447,1.02395 1.287,3.37626 1.867,5.22735 1.686,5.3821 3.031,8.87317 3.611,9.37567 0.152,0.13222 1.172,1.53857 2.266,3.12522 3.47,5.03465 18.221,17.15214 21.742,17.86014 1.433,0.28825 3.56,4.08391 3.341,5.96422 -0.08,0.64757 0.02,1.6534 0.219,2.23518 0.516,1.53818 -0.804,3.76701 -4.215,7.11588 -1.616,1.58665 -4.562,4.93528 -6.547,7.44139 -4.009,5.06144 -14.412,15.56473 -16.502,16.66107 -0.739,0.38776 -2.471,1.55863 -3.849,2.60194 -2.814,2.13042 -9.927,5.90456 -13.573,7.20166 -1.323,0.47078 -4.063,1.61984 -6.088,2.55345 -2.026,0.93362 -3.828,1.55207 -4.006,1.37432 -0.178,-0.17774 -0.535,0.0537 -0.793,0.51423 -0.512,0.91532 -1.864,1.14898 -1.864,0.32225 0,-0.28667 -0.305,-0.21112 -0.686,0.17035 -0.815,0.81366 -4.85,1.27585 -13.883,1.58995 -3.646,0.12678 -7.178,0.43939 -7.85,0.69468 -0.672,0.2553 -2.707,0.46418 -4.521,0.46418 -2.711,0 -4.014,0.30548 -7.307,1.71327 -3.225,1.37861 -4.765,1.74793 -7.882,1.89075 -3.411,0.15625 -3.943,0.0671 -4.451,-0.74513 z m 13.408,-3.61673 c 0.522,-0.62808 0.511,-0.83265 -0.06,-1.19465 -0.915,-0.57848 -1.076,-0.56357 -2.116,0.19674 -0.488,0.35655 -0.733,0.89745 -0.545,1.20201 0.491,0.79443 1.986,0.68238 2.722,-0.2041 z m 6.048,-1.34717 c 0.03,-0.0322 -0.05,-0.7726 -0.179,-1.64527 -0.174,-1.14343 -0.46,-1.5416 -1.025,-1.42533 -0.556,0.11445 -0.739,0.57163 -0.629,1.57251 0.153,1.39082 0.141,1.39839 -0.824,0.5256 -1.044,-0.94404 -2.459,-0.74964 -2.459,0.33786 0,1.12639 0.6,1.33805 2.862,1.0104 1.205,-0.17445 2.219,-0.34355 2.254,-0.37577 z m 4.227,-0.23474 c 0.142,-0.2291 -0.17,-0.80354 -0.693,-1.27653 -0.523,-0.47299 -0.951,-1.15099 -0.951,-1.50667 0,-0.35567 -0.433,-0.64668 -0.962,-0.64668 -1.091,0 -1.219,0.83458 -0.404,2.62179 0.552,1.21057 2.447,1.71923 3.01,0.80809 z m 11.348,-0.89578 c 0,-0.13121 -0.812,-1.50029 -1.804,-3.0424 -1.299,-2.01765 -2.108,-2.81134 -2.887,-2.83058 -0.637,-0.0157 -1.083,0.2601 -1.083,0.66902 0,1.17093 2.405,5.29645 3.265,5.60044 0.832,0.29404 2.509,0.029 2.509,-0.39648 z m -8.044,0.0543 c 0.288,-0.28748 -2.059,-3.55744 -2.542,-3.54267 -0.132,0.004 -0.538,0.19566 -0.902,0.42583 -0.548,0.34683 -0.509,0.67482 0.224,1.91585 0.822,1.39042 2.43,1.99021 3.22,1.20099 z m 3.633,-0.0642 c -0.778,-1.74963 -2.679,-4.44075 -3.139,-4.44372 -1.09,-0.007 -1.125,0.90236 -0.109,2.84943 0.776,1.48733 1.305,1.9549 2.214,1.9549 0.657,0 1.122,-0.16228 1.034,-0.36061 z m 7.609,-1.09097 c -0.16,-0.79837 -0.753,-1.93427 -1.319,-2.52422 -0.566,-0.58995 -1.338,-1.78998 -1.714,-2.66673 -0.721,-1.67646 -2.184,-1.9786 -2.468,-0.50925 -0.239,1.24365 3.773,7.15178 4.858,7.15178 0.782,0 0.887,-0.23546 0.643,-1.45158 z m 3.467,0.92374 c 0.833,-0.29031 1.515,-0.6015 1.515,-0.69153 0,-0.09 -0.624,-0.84649 -1.387,-1.68102 -0.762,-0.83454 -1.899,-2.57037 -2.526,-3.85742 -0.839,-1.72345 -1.417,-2.34502 -2.193,-2.35878 -1.57,-0.0278 -1.838,0.87917 -0.682,2.31314 1.002,1.24367 1.822,2.80474 2.878,5.48124 0.603,1.52806 0.442,1.47471 2.395,0.79437 z m 4.458,-1.9297 c -0.249,-0.63167 -1.338,-2.11346 -2.419,-3.29286 -1.823,-1.98757 -2.63,-4.34647 -1.486,-4.34647 0.265,0 0.481,0.20883 0.481,0.46407 0,0.25524 0.621,1.17478 1.379,2.04342 0.758,0.86863 1.845,2.49887 2.416,3.62275 1.073,2.11591 1.941,2.52686 2.899,1.37315 0.427,-0.51313 0.402,-0.82512 -0.104,-1.3308 -0.363,-0.36329 -0.75,-0.87837 -0.859,-1.14462 -0.108,-0.26624 -1.063,-1.70875 -2.122,-3.20557 -1.575,-2.22729 -2.143,-2.69522 -3.128,-2.57682 -1.817,0.21851 -3.849,1.14344 -3.849,1.75186 0,0.72298 3.263,5.97448 4.261,6.85747 0.697,0.61641 2.48,1.25362 2.85,1.01813 0.07,-0.0469 -0.07,-0.60204 -0.319,-1.23371 z m 6.407,-1.81521 c 0.145,-0.23448 -0.07,-0.70682 -0.488,-1.04965 -0.414,-0.34282 -1.223,-1.47749 -1.799,-2.52148 -0.576,-1.04399 -1.33,-2.41072 -1.676,-3.03718 -0.646,-1.1734 -1.74,-1.49765 -2.253,-0.66816 -0.37,0.59929 0.383,2.00539 2.777,5.17857 1.812,2.40237 2.856,3.03949 3.439,2.0979 z m 2.8,-1.0307 c 0.345,-0.54692 0.108,-1.1161 -0.921,-2.21714 -0.762,-0.81473 -1.814,-2.37429 -2.337,-3.46569 -0.859,-1.79091 -1.986,-2.48528 -2.766,-1.70528 -0.329,0.32894 1.597,4.5179 2.077,4.5179 0.172,0 0.707,0.87422 1.189,1.94271 0.899,1.99172 1.88,2.32147 2.758,0.9275 z m 2.882,-1.22191 c 0.151,-0.15121 -0.444,-1.54651 -1.323,-3.10068 -0.88,-1.55417 -1.674,-3.21295 -1.765,-3.68619 -0.212,-1.10046 -1.365,-1.32384 -2.511,-0.48654 -0.851,0.62178 -0.807,0.77818 0.916,3.25931 2.907,4.18904 3.769,4.92743 4.683,4.0141 z m 3.253,-1.58943 c 0,-0.4965 -0.329,-1.17583 -0.731,-1.50961 -0.403,-0.33379 -1.323,-1.65823 -2.045,-2.94321 -0.723,-1.28497 -1.584,-2.33654 -1.915,-2.3368 -1.024,-8.4e-4 -0.668,1.90375 0.909,4.86044 1.189,2.22935 1.752,2.83192 2.647,2.83192 0.79,0 1.135,-0.27456 1.135,-0.90274 z m 2.406,-0.9921 c 0,-0.51328 -0.203,-1.05875 -0.451,-1.21217 -0.249,-0.15341 -1.131,-1.46435 -1.96,-2.91319 -0.83,-1.44884 -1.818,-2.63426 -2.195,-2.63426 -0.936,0 -0.897,0.15427 0.79,3.18374 2.34,4.20295 3.816,5.58627 3.816,3.57588 z m 7.566,-3.93339 c 0.693,-0.69304 0.307,-1.71528 -1.391,-3.68437 -0.75,-0.86863 -1.363,-1.8062 -1.363,-2.08348 0,-0.9566 1.208,-0.10502 2.647,1.86676 1.878,2.57353 3.107,2.7431 1.691,0.23345 -0.56,-0.99165 -1.414,-2.32655 -1.899,-2.96644 -0.872,-1.15017 -0.902,-1.15403 -2.623,-0.33804 -0.957,0.45396 -1.74,0.94401 -1.74,1.089 0,0.21531 2.378,4.7158 3.204,6.06191 0.313,0.51177 0.847,0.447 1.474,-0.17879 z m 4.464,-3.69168 c 0,-0.47599 -0.188,-1.07099 -0.418,-1.3222 -0.23,-0.25122 -0.803,-1.49179 -1.274,-2.75681 -0.854,-2.29306 -1.442,-2.61295 -2.301,-1.25224 -0.323,0.51145 0,1.50502 1.094,3.45721 1.519,2.6898 2.899,3.58174 2.899,1.87404 z m 2.526,-1.24626 c 0.875,-0.66332 1.107,-1.53727 0.482,-1.81485 -0.199,-0.0881 -0.986,-1.0798 -1.75,-2.20368 -0.764,-1.12388 -1.684,-2.04341 -2.045,-2.04341 -0.361,0 -0.656,0.081 -0.656,0.17995 0,0.40799 1.491,4.46664 2.009,5.46948 0.644,1.24614 0.814,1.28193 1.96,0.41251 z m 2.925,-2.89342 c 0.143,-0.37285 -0.321,-1.8565 -1.032,-3.297 -1.183,-2.39891 -1.382,-2.57827 -2.374,-2.13344 -1.393,0.62512 -1.363,1.14031 0.204,3.47251 1.799,2.67655 2.711,3.23447 3.202,1.95793 z m 3.249,-2.97465 c 0.537,-0.64633 0.512,-0.83809 -0.158,-1.21262 -1.267,-0.70877 -2.286,-1.8772 -2.286,-2.62162 0,-0.37778 -0.433,-0.68686 -0.963,-0.68686 -1.225,0 -1.223,0.97062 0.01,3.38477 1.042,2.04139 2.297,2.46105 3.397,1.13633 z m 2.355,-2.34266 c 0.473,-0.56898 0.391,-0.95565 -0.422,-1.98805 -0.555,-0.70492 -1.009,-1.57704 -1.009,-1.93805 0,-0.8962 -0.649,-0.82354 -1.935,0.21658 l -1.079,0.87294 1.557,1.77148 c 1.732,1.97128 2.041,2.08514 2.888,1.0651 z m 2.726,-2.41885 c -0.153,-0.39666 -0.07,-0.7212 0.189,-0.7212 1.091,0 0.409,-2.23044 -0.923,-3.01646 -1.251,-0.73807 -1.451,-0.74554 -2.008,-0.0749 -0.853,1.02802 -0.06,3.13909 1.48,3.9155 1.525,0.77097 1.595,0.76526 1.262,-0.1029 z m 3.042,-4.30423 c 0.461,-0.5552 0.399,-0.94775 -0.302,-1.9165 -0.963,-1.33044 -1.955,-1.41573 -2.701,-0.23225 -0.349,0.55356 -0.236,1.04169 0.416,1.80301 1.045,1.21869 1.78,1.31699 2.587,0.34574 z m 2.638,-3.2552 c 1.54,-2.19708 0.59,-3.89494 -1.437,-2.56779 -1.275,0.83424 -1.531,2.13362 -0.605,3.05942 0.816,0.81555 1.188,0.72595 2.042,-0.49163 z m 3.36,-4.06024 c 0.169,-0.44088 0.12,-0.98888 -0.109,-1.21777 -0.545,-0.54463 -2.021,0.0313 -2.021,0.78867 0,1.37127 1.641,1.70188 2.13,0.4291 z m 2.682,-2.57614 c 0,-0.93926 -0.638,-1.91109 -1.254,-1.91109 -0.704,0 -0.864,0.86082 -0.39,2.09393 0.277,0.7222 1.644,0.57021 1.644,-0.18284 z m 0.877,-4.94972 c 0.09,-0.47518 0.04,-1.20024 -0.12,-1.61124 -0.425,-1.10553 -1.719,0.11346 -1.719,1.61877 0,0.86051 0.225,1.13497 0.836,1.01742 0.46,-0.0885 0.912,-0.54977 1.003,-1.02495 z m -105.68,50.95312 c -0.235,-0.30546 -0.568,-0.87992 -0.739,-1.27658 -0.172,-0.39666 -1.292,-2.23574 -2.49,-4.08683 -1.198,-1.85109 -2.368,-3.79834 -2.599,-4.32723 -1.213,-2.77076 -10.444,-13.70289 -11.572,-13.70289 -0.672,0 -1.547,-1.36981 -1.382,-2.1625 0.143,-0.68267 0.286,-0.67207 1.312,0.0971 1.302,0.97593 5.804,5.39797 8.016,7.87399 1.57,1.75714 4.546,6.28527 4.546,6.91736 0,0.20971 0.739,1.40903 1.642,2.66516 0.903,1.25613 1.968,2.90468 2.365,3.66345 0.398,0.75876 1.17,1.85229 1.716,2.43007 0.546,0.57778 1.052,1.3063 1.124,1.61894 0.174,0.75878 -1.397,0.9938 -1.939,0.28995 z m -1.717,-9.57044 c -1.246,-1.12858 -2.217,-4.20702 -1.327,-4.20702 0.273,0 0.852,0.74731 1.286,1.66069 0.433,0.91338 1.093,1.9135 1.466,2.22249 0.372,0.30898 0.677,0.75166 0.677,0.98372 0,0.7322 -0.866,0.46033 -2.102,-0.65988 z m 2.583,-1.9984 c 0,-0.4382 0.337,-0.58818 0.957,-0.42614 0.527,0.13753 0.839,0.44182 0.694,0.67619 -0.42,0.67928 -1.651,0.49288 -1.651,-0.25005 z m 2.888,-2.43668 c 0,-0.87517 2.713,-2.36433 3.118,-1.71093 0.365,0.59055 -1.447,2.41979 -2.397,2.41979 -0.397,0 -0.721,-0.31899 -0.721,-0.70886 z m 10.491,0.45348 c -0.141,-0.14046 0.164,-1.92545 0.676,-3.96663 2.899,-11.53856 2.911,-11.6165 2.364,-16.20019 -0.328,-2.75123 -0.348,-4.48227 -0.05,-4.77598 0.642,-0.64201 0.877,-0.28459 1.246,1.90272 0.915,5.41802 0.626,9.06991 -1.187,15.0016 -0.551,1.80457 -0.06,2.00348 2.133,0.86602 1.52,-0.78803 2.229,-0.58872 1.807,0.50842 -0.329,0.85775 -2.112,1.63058 -3.761,1.63058 -1.318,0 -1.9,1.28157 -2.127,4.68783 -0.04,0.61485 -0.639,0.80332 -1.097,0.34563 z m -20.622,-2.99004 c -0.971,-1.13318 -2.1,-3.92625 -1.735,-4.29096 0.545,-0.544 1.761,0.91291 1.761,2.10914 0,0.65245 0.487,1.59239 1.082,2.08875 0.798,0.66503 0.89,0.90669 0.348,0.91848 -0.404,0.009 -1.06,-0.36264 -1.456,-0.82541 z m 14.461,0.20144 c 0,-0.63423 1.498,-1.59976 2.887,-1.86183 1.295,-0.24413 1.095,0.7995 -0.311,1.62525 -1.694,0.99501 -2.576,1.07598 -2.576,0.23658 z m 16.202,-5.33134 c -0.161,-0.41797 -0.08,-0.78699 0.174,-0.82004 0.666,-0.0858 1.074,-0.21354 2.03,-0.63387 0.944,-0.41526 2.285,-0.0496 2.285,0.62283 0,0.24191 -0.487,0.55578 -1.082,0.69747 -0.596,0.1417 -1.54,0.40072 -2.099,0.5756 -0.696,0.21772 -1.109,0.0784 -1.308,-0.44199 z m -35.907,-1.93749 c -0.722,-0.76773 -0.994,-1.47237 -0.782,-2.02472 0.285,-0.74283 0.5,-0.66022 1.745,0.67067 0.781,0.83481 1.42,1.74594 1.42,2.02472 0,0.89284 -1.242,0.54344 -2.383,-0.67067 z m 46.532,-1.0771 c -1.222,-0.31902 -1.034,-1.11097 0.264,-1.11097 0.609,0 1.352,-0.2451 1.652,-0.54465 0.3,-0.29956 0.914,-0.40323 1.365,-0.23038 0.765,0.29353 0.762,0.37707 -0.04,1.26585 -0.843,0.93082 -1.538,1.06406 -3.238,0.62015 z m -55.737,-1.39777 c -0.345,-0.41635 -1.453,-1.08654 -2.46,-1.48932 -1.007,-0.40277 -1.832,-0.9106 -1.832,-1.12851 0,-0.21791 -0.433,-0.53354 -0.962,-0.7014 -0.529,-0.16786 -0.962,-0.62974 -0.962,-1.02641 0,-0.83659 1.673,-0.49187 2.925,0.60248 0.417,0.36538 0.908,0.66433 1.089,0.66433 0.718,0 3.673,2.1983 3.679,2.73625 0.01,0.95578 -0.809,1.14584 -1.477,0.34258 z m 64.518,-1.31884 c 0,-0.35422 0.552,-0.89512 1.226,-1.20201 2.471,-1.12524 3.596,-0.33128 1.554,1.09757 -1.312,0.91861 -2.78,0.97374 -2.78,0.10444 z m 7.699,-2.9296 c 0,-0.8576 2.049,-1.58427 2.305,-0.8174 0.287,0.85985 0.964,0.63404 0.89,-0.2968 -0.08,-0.93861 1.188,-1.16659 1.487,-0.26861 0.225,0.67255 -2.271,2.07162 -3.696,2.07162 -0.542,0 -0.986,-0.30996 -0.986,-0.68881 z m -70.253,-0.26111 c 0,-0.30208 -0.226,-0.40967 -0.503,-0.23907 -0.628,0.38783 -1.903,-0.6269 -1.903,-1.5143 0,-0.86822 0.713,-0.84221 1.615,0.0589 0.397,0.39666 1.08,0.72121 1.518,0.72121 0.438,0 0.711,0.25693 0.606,0.57095 -0.256,0.76817 -1.333,1.09318 -1.333,0.40234 z m -12.05,-1.88593 c -2.409,-1.51685 -5.273,-4.06788 -5.273,-4.69707 0,-1.08089 0.925,-0.72451 3.279,1.26314 1.24,1.04713 2.775,2.30937 3.411,2.80496 1.528,1.19008 0.323,1.72474 -1.417,0.62897 z m 91.767,-0.36951 c -0.744,-0.74268 -0.208,-1.54518 1.483,-2.22242 2.919,-1.16896 3.552,-0.0919 0.906,1.54214 -1.789,1.10491 -1.926,1.1437 -2.389,0.68028 z m -89.103,-4.49066 c -0.993,-1.03539 -1.239,-1.59297 -0.867,-1.96501 0.675,-0.67455 3.831,2.03244 3.324,2.85152 -0.523,0.84499 -0.942,0.69359 -2.457,-0.88651 z m 94.821,1.00354 c -0.431,-0.6963 1.128,-1.96198 2.416,-1.96198 1.457,0 1.498,0.67651 0.1,1.65555 -1.21,0.84668 -2.113,0.95674 -2.515,0.30643 z m -109.892,-7.64115 c -2.998,-3.09084 -6.117,-6.58289 -6.931,-7.76011 -1.688,-2.44146 -7.958,-14.80985 -9.518,-18.77453 -0.572,-1.45443 -1.233,-3.01192 -1.469,-3.46108 -1.706,-3.25231 -3.425,-17.9353 -3.308,-28.27193 0.03,-2.77664 0.04,-5.2648 0.02,-5.52924 -0.678,-8.77376 -0.656,-10.55848 0.121,-9.91449 0.465,0.38576 0.794,1.37596 0.799,2.40071 0,2.16773 0.549,3.07164 1.595,2.67059 0.602,-0.2309 0.803,-0.0402 0.803,0.761 0,0.83315 -0.213,1.0135 -0.964,0.81713 -1.326,-0.34654 -1.708,1.39922 -1.036,4.74075 0.289,1.43803 0.41,2.91561 0.268,3.28351 -0.44,1.14575 0.718,18.44804 1.521,22.73134 0.42,2.23897 1.361,5.40764 2.091,7.04148 0.729,1.63385 1.742,3.93722 2.25,5.11862 0.507,1.18139 1.626,3.53586 2.487,5.23214 0.86,1.69629 1.563,3.29286 1.563,3.54793 0,1.39819 5.978,9.2631 10.852,14.27872 4.788,4.92631 6.126,6.86992 4.638,6.7369 -0.183,-0.0164 -2.785,-2.5586 -5.782,-5.64944 z m 116.684,4.39703 c -0.635,-0.63467 -0.29,-0.97878 1.526,-1.52242 1.016,-0.30402 2.24,-0.98735 2.721,-1.51852 0.481,-0.53116 1.159,-0.96575 1.505,-0.96575 0.347,0 1.342,-0.61908 2.211,-1.37574 0.87,-0.75665 2.316,-1.75204 3.215,-2.21196 2.125,-1.08824 6.943,-5.86847 6.551,-6.50133 -0.192,-0.31049 -1.78,-0.37635 -4.339,-0.17988 -4.271,0.32806 -6.648,-0.20852 -7.191,-1.62361 -0.451,-1.17419 0.05,-1.27897 1.903,-0.39949 1.747,0.82844 2.965,0.82637 12.63,-0.0216 1.882,-0.16513 3.007,-0.0818 3.007,0.22283 0,0.48259 -0.454,0.66935 -3.007,1.23715 -0.728,0.16183 -1.324,0.52934 -1.324,0.81668 0,0.45282 -1.716,2.86413 -2.771,3.89375 -2.353,2.29606 -4.844,4.20914 -5.486,4.21396 -0.44,0.003 -1.324,0.62914 -1.966,1.39076 -0.641,0.76161 -1.689,1.54777 -2.328,1.747 -0.639,0.19924 -1.951,0.98244 -2.916,1.74046 -1.678,1.31914 -3.255,1.74244 -3.941,1.05768 z m -109.384,-4.75202 c -0.622,-1.31563 -0.134,-1.57703 0.813,-0.4363 0.369,0.44405 0.441,0.91663 0.18,1.17788 -0.262,0.26123 -0.66,-0.0363 -0.993,-0.74158 z m -5.454,-5.13221 c -0.602,-0.98926 -0.777,-1.71716 -0.483,-2.01136 0.254,-0.25358 0.533,-0.3673 0.621,-0.2527 1.848,2.42075 2.208,3.03384 1.987,3.39008 -0.49,0.79306 -1.18,0.42785 -2.125,-1.12602 z m -7.436,-7.23461 c -0.859,-1.31011 -1.183,-3.90725 -0.509,-4.07882 0.265,-0.0674 0.651,0.53007 0.858,1.32759 0.206,0.79752 0.802,1.71603 1.323,2.04112 0.521,0.32509 0.947,0.86358 0.947,1.19663 0,1.01837 -1.858,0.67314 -2.619,-0.48652 z m 142.946,-0.7339 c -0.131,-0.21096 -0.06,-0.6714 0.158,-1.02321 0.512,-0.82855 1.507,-0.22338 1.152,0.70096 -0.296,0.77065 -0.936,0.92804 -1.31,0.32225 z m -148.187,-8.1507 c -0.119,-0.19833 -0.439,-1.17196 -0.711,-2.16361 -0.377,-1.37613 -0.353,-1.80302 0.1,-1.80302 0.565,0 2.216,2.87842 2.216,3.86274 0,0.54577 -1.288,0.62915 -1.605,0.10389 z m 69.933,-0.84141 c 0,-0.39666 0.325,-0.7212 0.722,-0.7212 0.397,0 0.722,0.32454 0.722,0.7212 0,0.39667 -0.325,0.72121 -0.722,0.72121 -0.397,0 -0.722,-0.32454 -0.722,-0.72121 z m -74.465,-8.77465 c -0.629,-1.59632 -0.407,-6.02189 0.315,-6.26877 0.513,-0.17549 0.609,0.10103 0.401,1.15594 -0.15,0.76263 0.03,2.25205 0.401,3.30981 0.371,1.05777 0.678,2.08549 0.682,2.28382 0.01,0.73161 -1.478,0.33263 -1.799,-0.4808 z m -1.447,-10.09687 c -0.597,-2.5774 0.02,-3.96345 0.829,-1.85001 0.598,1.57184 0.659,4.13382 0.1,4.13382 -0.22,0 -0.638,-1.02771 -0.928,-2.28381 z m -1.472,-8.66822 c 0.06,-0.73478 -0.02,-1.54614 -0.173,-1.80301 -0.335,-0.56985 0.277,-2.39026 0.803,-2.39026 0.209,0 0.472,1.24408 0.585,2.76462 0.169,2.28628 0.07,2.76462 -0.556,2.76462 -0.536,0 -0.731,-0.39557 -0.659,-1.33597 z m 131.638,-3.69782 c -0.463,-0.63642 -0.842,-1.60325 -0.842,-2.1485 0,-0.56068 -0.313,-0.99136 -0.722,-0.99136 -0.397,0 -0.721,-0.20522 -0.721,-0.45604 0,-0.6475 -2.006,-2.68222 -3.008,-3.05052 -0.463,-0.17033 -0.842,-0.53284 -0.842,-0.80558 0,-0.27275 -0.24,-0.4959 -0.532,-0.4959 -0.588,0 -8.274,-5.71101 -8.53,-6.33812 -0.09,-0.21622 -0.467,-0.39312 -0.842,-0.39312 -0.375,0 -0.682,-0.18235 -0.682,-0.40521 0,-0.22287 -0.92,-0.88348 -2.045,-1.46803 -2.886,-1.4997 -5.782,-3.54892 -6.016,-4.25675 -0.358,-1.08088 1.247,-1.19163 2.353,-0.16235 0.592,0.55193 1.255,1.0035 1.473,1.0035 0.467,0 5.004,3.09628 6.431,4.38915 0.547,0.49483 1.232,0.89969 1.524,0.89969 0.292,0 0.603,0.16227 0.691,0.3606 0.194,0.43687 3.594,3.00502 3.978,3.00502 0.52,0 4.836,3.9969 6.795,6.29308 2.551,2.9884 3.583,4.68531 3.299,5.42366 -0.404,1.05231 -0.762,0.9703 -1.762,-0.40322 z m -131.641,-3.75965 c -0.326,-0.39258 -0.408,-1.38023 -0.21,-2.53584 l 0.323,-1.89281 0.358,2.38879 c 0.396,2.64588 0.317,2.98846 -0.471,2.03986 z m 71.132,-0.34182 c 0,-0.26444 0.216,-0.4808 0.481,-0.4808 0.265,0 0.481,0.21636 0.481,0.4808 0,0.26444 -0.216,0.4808 -0.481,0.4808 -0.265,0 -0.481,-0.21636 -0.481,-0.4808 z m -14.972,-1.13711 c -0.631,-0.62541 -1.635,-1.28907 -2.231,-1.47481 -1.172,-0.36576 -1.503,-1.71531 -0.419,-1.71531 0.364,0 0.935,0.32853 1.269,0.73008 0.333,0.40154 1.334,1.07528 2.224,1.49719 0.89,0.42191 1.618,1.06701 1.618,1.43354 0,1.02053 -1.183,0.79418 -2.461,-0.47069 z m -18.377,-6.8923 c -1.267,-0.32804 -0.683,-1.3707 0.677,-1.20879 1.101,0.13117 2.867,0.34703 4.161,0.50863 0.331,0.0413 0.602,0.29147 0.602,0.55591 0,0.47672 -3.77,0.57669 -5.44,0.14425 z m -2.259,-1.58666 c 0,-0.26444 0.216,-0.4808 0.481,-0.4808 0.265,0 0.481,0.21636 0.481,0.4808 0,0.26445 -0.216,0.48081 -0.481,0.48081 -0.265,0 -0.481,-0.21636 -0.481,-0.48081 z m -2.312,-1.45456 c -0.955,-0.77969 -1.722,-0.87706 -5.525,-0.70081 -2.429,0.11258 -5.014,0.33593 -5.745,0.49634 -0.886,0.19457 -1.581,0.0391 -2.088,-0.46707 -0.692,-0.69108 -0.681,-0.76161 0.117,-0.79116 0.482,-0.0179 1.635,-0.14519 2.561,-0.28297 2.197,-0.32689 7.049,-0.36934 8.986,-0.0786 2.036,0.30555 3.919,1.58794 3.284,2.23728 -0.327,0.33458 -0.837,0.20214 -1.59,-0.41298 z m -19.342,-0.30001 c 0,-0.47177 2.196,-0.58419 2.767,-0.14167 0.07,0.0513 0.319,0.12028 0.562,0.15333 0.242,0.0331 0.6,0.21912 0.794,0.41348 0.195,0.19435 -0.653,0.30957 -1.884,0.25603 -1.381,-0.0601 -2.239,-0.32088 -2.239,-0.68117 z m -15.157,-4.49587 c 0.164,-0.26444 0.393,-0.4808 0.51,-0.4808 0.116,0 0.212,0.21636 0.212,0.4808 0,0.26444 -0.229,0.48081 -0.51,0.48081 -0.28,0 -0.376,-0.21637 -0.212,-0.48081 z m 83.121,-0.1202 c -0.759,-0.94327 -2.907,-6.54728 -2.619,-6.83417 0.631,-0.63102 1.061,-0.0393 2.341,3.22256 0.751,1.91412 1.437,3.64501 1.525,3.84642 0.263,0.6007 -0.725,0.41467 -1.247,-0.23481 z m -85.585,-1.53958 c -0.147,-0.384 -0.137,-0.90996 0.02,-1.16879 0.16,-0.25883 0.08,-0.6027 -0.184,-0.76414 -0.591,-0.36495 -2.427,-4.45285 -2.427,-5.40333 0,-1.24338 1.012,-0.40889 2.179,1.79715 0.626,1.18275 1.269,2.57712 1.43,3.09859 0.22,0.71639 0.387,0.79383 0.682,0.31684 0.231,-0.37219 0.02,-1.39314 -0.507,-2.48752 -0.493,-1.02092 -0.897,-2.28262 -0.897,-2.80376 0,-0.67278 -0.524,-1.11333 -1.805,-1.51923 -3.539,-1.12132 -5.239,-2.86852 -2.79,-2.86852 0.648,0 1.399,0.37864 1.669,0.84141 0.27,0.46277 0.497,0.68449 0.505,0.4927 0,-0.19178 0.587,-0.13122 1.287,0.13458 2.061,0.7829 13.947,0.57956 17.614,-0.30132 0.951,-0.2283 1.328,-0.13273 1.338,0.33919 0.01,0.49426 0.123,0.4723 0.452,-0.0886 0.26,-0.44404 1.237,-0.79282 2.415,-0.86227 1.088,-0.0641 2.523,-0.32359 3.188,-0.57656 0.666,-0.25296 1.522,-0.45993 1.902,-0.45993 1.106,0 0.795,1.30001 -0.393,1.64182 -2.769,0.79682 -9.545,1.83662 -12.15,1.86441 -1.588,0.0169 -3.049,0.26269 -3.248,0.5461 -0.251,0.35921 -0.473,0.34135 -0.733,-0.0589 -0.277,-0.4264 -0.927,-0.44891 -2.527,-0.0874 -1.184,0.26774 -2.74,0.37097 -3.458,0.22939 -0.717,-0.14158 -1.415,-0.0777 -1.551,0.14201 -0.136,0.21969 0.07,1.92715 0.461,3.79437 0.39,1.86722 0.578,3.73582 0.418,4.15245 -0.366,0.95155 -2.533,0.99601 -2.893,0.0593 z m 107.708,-1.4504 c -3.174,-2.95965 -3.684,-3.3843 -5.518,-4.59418 -0.993,-0.65477 -1.703,-1.46095 -1.579,-1.7915 0.125,-0.33331 -0.143,-0.60572 -0.601,-0.6116 -0.455,-0.006 -1.833,-0.92537 -3.063,-2.04342 -1.23,-1.11804 -3.245,-2.89826 -4.477,-3.95602 -3.881,-3.32985 -9.248,-10.0025 -10.2,-12.67919 -0.482,-1.35636 -1.025,-2.46612 -1.206,-2.46612 -0.921,0 -1.152,6.68154 -0.339,9.80517 0.376,1.4431 0.343,1.96128 -0.144,2.26201 -0.4,0.24706 -0.799,0.091 -1.089,-0.42574 -0.726,-1.2971 -0.953,-10.8447 -0.318,-13.36675 0.31,-1.23095 0.464,-2.33843 0.341,-2.46108 -0.54,-0.53954 -4.075,1.72176 -6.693,4.28147 -1.569,1.53436 -3.047,2.78974 -3.283,2.78974 -0.237,0 -0.43,0.21637 -0.43,0.48081 0,0.26444 -0.196,0.4808 -0.435,0.4808 -0.24,0 -1.809,0.78373 -3.489,1.74162 -1.679,0.95789 -3.794,2.16461 -4.698,2.68161 -0.905,0.51699 -2.312,1.43979 -3.128,2.05066 -2.986,2.23642 -11.191,5.38168 -15.197,5.82582 -1.191,0.13204 -2.883,0.32811 -3.76,0.43572 -1.297,0.15928 -1.565,0.0439 -1.437,-0.62045 0.09,-0.44886 0.371,-0.8293 0.632,-0.84543 7.432,-0.45919 12.633,-2.31071 20.931,-7.45243 2.246,-1.392 5.505,-3.32213 7.241,-4.28919 1.736,-0.96707 4.516,-3.09554 6.177,-4.72994 1.662,-1.6344 3.234,-2.97164 3.494,-2.97164 0.26,0 1.417,-0.64909 2.571,-1.44241 2.958,-2.03391 3.777,-1.93862 3.383,0.39371 -0.581,3.43348 3.951,11.31295 9.591,16.6748 5.821,5.53418 18.561,16.19464 19.987,16.72445 0.439,0.16318 0.486,0.28301 0.12,0.30611 -0.331,0.0209 -0.601,0.3625 -0.601,0.75916 0,1.14231 -0.855,0.85162 -2.783,-0.94657 z m -80.463,-10.27881 c 0,-0.78324 0.845,-1.12432 4.516,-1.82385 4.224,-0.80492 4.765,-0.81127 4.486,-0.0527 -0.121,0.33055 -0.47,0.54474 -0.776,0.47596 -0.306,-0.0688 -1.145,0.17632 -1.865,0.54464 -1.745,0.89331 -6.361,1.51432 -6.361,0.85591 z m 53.708,-2.54398 c -0.977,-1.39417 -0.995,-2.33755 -0.04,-2.33755 0.898,0 1.897,2.37162 1.264,3.00363 -0.27,0.27017 -0.746,0.0103 -1.221,-0.66608 z"
       id="path1" /></g></svg>
