<?xml version="1.0" encoding="UTF-8" standalone="no"?>
<!-- Created with Inkscape (http://www.inkscape.org/) -->

<svg
   width="231.38646"
   height="235.24007"
   viewBox="0 0 61.221 62.240601"
   version="1.1"
   id="svg1"
   xml:space="preserve"
   xmlns="http://www.w3.org/2000/svg"
   xmlns:svg="http://www.w3.org/2000/svg"><defs
     id="defs1" /><g
     id="g1381"
     transform="matrix(0.16188574,0,0,0.16188574,-2158.6049,-111.47945)"><path
       style="fill:#000000"
       d="m 13425.952,976.79335 c 0,-0.85739 0.401,-1.1514 2.299,-1.68766 0.778,-0.21979 1.924,-0.60732 2.547,-0.86117 1.003,-0.40916 1.214,-0.38774 1.856,0.18874 0.745,0.66803 0.978,1.59312 0.401,1.59312 -0.178,0 -0.384,-0.17884 -0.458,-0.39743 -0.134,-0.39969 -1.143,0.36991 -1.397,1.06505 -0.07,0.1813 -1.273,0.44108 -2.684,0.57729 -2.438,0.23545 -2.564,0.21191 -2.564,-0.47794 z m -7.781,0.005 c -0.486,-0.0661 -2.121,-0.60376 -3.633,-1.19479 -2.438,-0.9528 -2.724,-1.15854 -2.525,-1.81544 0.422,-1.38943 0.767,-1.43509 3.594,-0.47582 1.508,0.51168 3.486,1.11114 4.397,1.33212 1.683,0.40843 2.202,0.95294 1.827,1.91953 -0.201,0.52054 -1.121,0.57948 -3.66,0.2344 z m 4.588,-0.42767 c -0.262,-0.16023 -0.504,-0.97355 -0.539,-1.80737 -0.03,-0.83383 -0.08,-1.95369 -0.11,-2.48858 -0.03,-0.67976 -0.304,-1.06894 -0.898,-1.29275 -1.224,-0.46097 -1.292,-0.71405 -0.867,-3.20348 0.211,-1.23318 0.378,-2.47874 0.371,-2.7679 0,-0.28915 0.283,-2.10297 0.644,-4.0307 0.362,-1.92773 0.655,-4.43792 0.651,-5.57819 0,-1.45157 0.147,-2.15848 0.506,-2.35755 0.282,-0.15637 0.712,-0.76122 0.956,-1.3441 0.478,-1.14383 1.553,-1.42826 1.911,-0.50539 0.317,0.81812 0.261,2.70295 -0.115,3.86211 -0.675,2.08747 -1.091,16.56248 -0.563,19.6101 0.221,1.27801 0.16,1.4583 -0.613,1.80737 -0.484,0.21855 -1.066,0.26063 -1.334,0.0964 z m 11.84,-1.53953 c -0.518,-0.57877 -0.64,-1.00017 -0.427,-1.47259 0.255,-0.56697 0.693,-0.66179 3.058,-0.66179 1.716,0 2.966,-0.16893 3.303,-0.44644 0.809,-0.66511 3.955,-1.37687 7.347,-1.66201 3.029,-0.25464 6.935,-1.24568 8.288,-2.10282 0.402,-0.25485 1.407,-0.64001 2.234,-0.85591 0.827,-0.21589 1.503,-0.54417 1.503,-0.72952 0,-0.18534 0.196,-0.33698 0.435,-0.33698 0.488,0 5.067,-1.61752 6.015,-2.12476 0.338,-0.18079 1.086,-0.32872 1.663,-0.32872 1.628,0 4.66,-0.71877 6.122,-1.45172 1.177,-0.59026 1.277,-0.74003 0.897,-1.34286 -0.576,-0.91434 -0.09,-1.31579 0.721,-0.5914 0.357,0.32011 0.907,0.58201 1.223,0.58201 0.822,0 2.483,-0.77789 2.957,-1.38448 0.31,-0.39702 0.518,-0.42312 0.895,-0.11261 0.384,0.31564 1.25,0.0632 3.955,-1.15234 1.904,-0.85609 3.699,-1.55652 3.987,-1.55652 0.549,0 3.178,-1.06727 4.784,-1.94217 0.516,-0.28122 1.189,-0.5113 1.495,-0.5113 0.306,0 2.032,-0.52778 3.836,-1.17285 4.14,-1.48052 7.502,-2.49672 11.277,-3.40848 1.632,-0.39409 3.285,-0.85857 3.674,-1.03219 0.981,-0.43789 3.067,-0.91372 6.189,-1.41179 1.726,-0.27528 3.794,-0.96143 5.919,-1.96337 4.208,-1.98432 4.401,-2.32488 4.5,-7.94372 0.06,-3.50592 0.171,-4.23328 0.671,-4.51055 2.017,-1.11853 2.789,1.51053 1.838,6.25737 -0.33,1.64635 -0.681,3.20084 -0.779,3.45443 -0.263,0.67934 1.224,2.01818 1.937,1.7442 0.326,-0.12499 1.228,-0.36516 2.007,-0.53372 0.778,-0.16855 2.13,-0.46479 3.006,-0.6583 0.875,-0.19352 3.024,-0.60807 4.774,-0.92123 3.041,-0.54386 6.262,-1.33306 7.781,-1.90614 1.437,-0.54203 3.239,-1.02206 5.305,-1.41345 1.168,-0.22103 2.759,-0.61204 3.537,-0.86892 0.778,-0.25687 2.602,-0.73092 4.053,-1.05343 1.45,-0.32251 2.888,-0.71943 3.195,-0.88204 0.306,-0.16261 1.268,-0.39215 2.137,-0.51008 0.868,-0.11793 1.977,-0.28926 2.463,-0.38072 0.487,-0.0915 1.658,-0.241 2.603,-0.33229 0.946,-0.0913 2.537,-0.54938 3.537,-1.01798 2.338,-1.0958 5.037,-1.66548 13.49,-2.84751 2.334,-0.32644 4.562,-0.73762 4.951,-0.91372 0.389,-0.17611 1.821,-0.53527 3.183,-0.79813 5.177,-0.99944 5.216,-1.0504 5.136,-6.77311 -0.155,-11.13061 -0.17,-11.03038 1.611,-10.69306 1.054,0.19971 1.186,0.68815 1.353,4.98768 0.16,4.12126 0.828,7.92169 1.513,8.60041 0.694,0.68739 5.097,0.68176 7.396,-0.009 0.955,-0.28707 2.042,-0.52366 2.415,-0.52574 0.374,-0.002 0.931,-0.22356 1.238,-0.49215 0.588,-0.51442 4.995,-1.66805 8.87,-2.3221 2.866,-0.48371 4.917,-1.05086 5.836,-1.61374 1.315,-0.80572 7.055,-2.3014 10.08,-2.62651 6.708,-0.72112 10.878,-1.52932 16.418,-3.18199 1.972,-0.58828 5.458,-1.2682 7.958,-1.552 5.081,-0.57691 9.694,-1.37243 11.002,-1.89743 l 0.896,-0.35926 0.112,-5.3343 c 0.155,-7.36572 0.155,-7.45039 -0.08,-10.50428 -0.114,-1.49408 -0.372,-3.02151 -0.574,-3.39429 -0.201,-0.37279 -0.366,-1.88463 -0.366,-3.35965 0,-2.39267 -0.486,-5.22877 -1.446,-8.42974 -0.177,-0.59201 -0.322,-2.11907 -0.322,-3.39347 0,-2.1741 -0.07,-2.36327 -1.06,-3.06523 -0.583,-0.41147 -1.155,-1.1714 -1.271,-1.68872 -0.116,-0.51733 -0.28,-1.19856 -0.366,-1.51384 -0.08,-0.31529 -0.757,-0.98721 -1.494,-1.49316 l -1.339,-0.91991 -0.343,-11.12471 c -0.188,-6.11859 -0.303,-12.62308 -0.255,-14.45442 0.05,-1.83134 0.09,-3.90907 0.101,-4.61718 0.02,-1.60516 1.242,-3.12759 3.357,-4.17431 2.149,-1.06351 5.606,-0.85201 6.616,0.40477 1.468,1.82711 1.531,2.5892 0.775,9.43821 -0.1,0.86748 -0.643,3.62764 -1.217,6.13368 -1.495,6.5254 -2.045,9.4778 -2.283,12.25203 -0.115,1.34097 -0.217,2.52389 -0.226,2.62872 -0.125,1.35349 0.2,1.43155 0.794,0.19059 0.369,-0.77109 0.6,-1.59876 0.513,-1.83926 -0.09,-0.24051 0.159,-0.96807 0.545,-1.61681 1.536,-2.57953 4.505,-13.66519 4.988,-18.62519 0.453,-4.64129 0.164,-10.65746 -0.58,-12.08327 -0.756,-1.44829 -1.823,-2.08759 -3.138,-1.88032 -0.876,0.13811 -1.353,-0.0402 -2.254,-0.84288 -0.665,-0.59131 -1.899,-1.19075 -2.945,-1.43007 -3.275,-0.74913 -5.412,-0.36615 -3.529,0.63247 1.03,0.54619 0.517,1.28831 -1.184,1.71268 -1.713,0.42762 -2.226,0.9216 -3.502,3.3765 -1.91,3.67471 -3.243,9.71035 -2.484,11.24543 0.36,0.7269 0,7.68618 -0.622,11.94163 -0.358,2.46651 -0.347,2.53636 0.714,4.24472 0.593,0.95531 1.079,2.08065 1.079,2.50075 0,0.4201 0.339,1.42248 0.753,2.2275 1.28,2.48563 1.097,6.78819 -0.406,9.54902 -0.691,1.26872 -4.005,3.32971 -5.355,3.32971 -0.534,0 -1.337,0.14092 -1.784,0.31315 -0.447,0.17222 -2.086,0.50398 -3.642,0.73723 -1.556,0.23325 -3.09,0.56163 -3.409,0.72973 -0.318,0.16809 -1.99,0.56016 -3.713,0.87126 -1.724,0.3111 -4.277,0.77301 -5.673,1.02647 -1.396,0.25346 -3.943,0.9447 -5.659,1.5361 -3.392,1.16904 -7.215,2.08128 -10.547,2.51727 -5.314,0.69511 -11.46,1.98082 -17.861,3.73646 -2.605,0.71441 -4.115,0.91515 -6.72,0.89326 -3.92,-0.033 -5.179,-0.41901 -5.687,-1.745 -0.203,-0.52966 -0.552,-1.07435 -0.774,-1.21044 -0.403,-0.24708 -2.381,0.70215 -2.381,1.14286 0,0.51208 -4.1,3.25787 -5.796,3.88198 -3.98,1.46408 -12.643,3.44498 -15.067,3.44498 -0.732,0 -1.869,0.21538 -2.525,0.47861 -0.656,0.26324 -3.023,0.65936 -5.26,0.88028 -2.237,0.22091 -4.751,0.6382 -5.587,0.9273 -0.836,0.2891 -2.666,0.69452 -4.067,0.90093 -1.401,0.20641 -4.457,0.6949 -6.792,1.08553 -3.834,0.64159 -5.243,0.93556 -9.903,2.06632 -1.93,0.4685 -6.726,1.08424 -8.665,1.11267 -0.875,0.0128 -2.423,-0.15531 -3.439,-0.37364 -1.793,-0.38515 -1.956,-0.35158 -5.482,1.12802 -4.984,2.09124 -6.843,2.59613 -13.714,3.72483 -0.875,0.14379 -2.706,0.52183 -4.067,0.8401 -1.362,0.31827 -4.733,0.72261 -7.491,0.89853 -3.193,0.20368 -5.505,0.52776 -6.366,0.8922 -1.235,0.52284 -5.807,1.48762 -10.724,2.26256 -2.593,0.40876 -5.916,1.29641 -7.368,1.96817 -0.949,0.43911 -4.462,1.56113 -6.248,1.99578 -0.195,0.0473 -0.555,0.21008 -0.799,0.36169 -0.245,0.1516 -0.749,0.18018 -1.12,0.0635 -0.371,-0.11667 -0.772,-0.0552 -0.892,0.13669 -0.12,0.19214 -1.739,0.34882 -3.604,0.34882 -2.52,0 -3.609,0.14469 -4.257,0.56513 -0.602,0.39071 -1.003,0.45594 -1.3,0.21135 -0.279,-0.22892 -0.94,-0.24027 -1.875,-0.0322 -0.794,0.1769 -2.938,0.4873 -4.763,0.68978 -1.825,0.20249 -3.573,0.44602 -3.884,0.54118 -0.755,0.2312 -1.255,1.39848 -1.744,4.0738 -0.223,1.22069 -0.529,2.37716 -0.68,2.56993 -0.152,0.19278 -0.15,2.16432 0,4.3812 0.153,2.21689 0.192,4.46406 0.08,4.99371 -0.107,0.52964 -0.04,1.16054 0.138,1.40198 0.416,0.5501 0.321,2.2341 -0.2,3.52865 -0.219,0.54267 -0.397,1.12287 -0.397,1.28932 0,0.59272 -1.125,1.40421 -1.947,1.40421 -1.071,0 -1.415,-1.02924 -0.881,-2.63423 0.277,-0.83138 0.624,-1.22123 1.087,-1.22123 0.447,0 0.68,-0.24324 0.68,-0.71199 0,-0.3916 0.238,-0.80278 0.53,-0.91374 0.8,-0.30428 0.637,-0.64638 -0.334,-0.70184 -0.634,-0.0362 -0.893,0.15091 -0.973,0.701 -0.13,0.90582 -0.6,0.9671 -1.122,0.14639 -0.302,-0.47414 -0.242,-0.70718 0.278,-1.08432 0.503,-0.36433 0.606,-0.72647 0.428,-1.49904 -0.323,-1.39496 -0.254,-6.55776 0.119,-8.90482 0.431,-2.72024 2.088,-11.74054 2.553,-13.90706 0.214,-0.99822 0.298,-2.3783 0.185,-3.06684 -0.113,-0.68855 -0.06,-1.2519 0.11,-1.2519 0.352,0 0.122,-15.87088 -0.245,-16.99907 -0.126,-0.38554 -0.268,-1.48961 -0.317,-2.45347 -0.05,-0.96387 -0.418,-3.31818 -0.821,-5.23181 -0.549,-2.60501 -0.956,-3.71078 -1.623,-4.40038 -0.49,-0.50658 -0.89,-1.24307 -0.89,-1.63664 0,-0.75893 -0.876,-2.74929 -1.596,-3.62726 -0.237,-0.28916 -0.529,-0.92005 -0.648,-1.40198 -0.119,-0.48194 -1.175,-1.86517 -2.346,-3.07385 -1.172,-1.20868 -2.13,-2.36149 -2.13,-2.56178 0,-0.2003 -0.141,-0.27775 -0.314,-0.17211 -0.172,0.10564 -0.528,-0.0642 -0.791,-0.37748 -0.262,-0.31325 -1.093,-0.95555 -1.848,-1.42732 -0.754,-0.47178 -1.92,-1.35723 -2.59,-1.96769 -0.671,-0.61045 -1.66,-1.50422 -2.198,-1.98615 -0.538,-0.48193 -1.272,-0.82016 -1.63,-0.75162 -0.662,0.12681 -4.165,-0.83028 -5.13,-1.40177 -0.552,-0.32682 -1.889,-0.91664 -4.598,-2.02824 -0.875,-0.3592 -3.422,-1.08339 -5.659,-1.60931 -2.237,-0.52592 -4.226,-1.07651 -4.421,-1.22352 -0.194,-0.14701 -1.308,-0.55056 -2.475,-0.89678 -1.168,-0.34621 -2.6,-0.97143 -3.184,-1.38936 -1.769,-1.26753 -3.106,-1.83493 -4.956,-2.1039 -0.97,-0.14106 -2.32,-0.54124 -3.001,-0.88928 -2.213,-1.1312 -3.804,-1.72582 -4.651,-1.73849 -0.457,-0.007 -1.229,-0.23782 -1.715,-0.51332 -0.487,-0.2755 -1.591,-0.50649 -2.453,-0.51333 -1.11,-0.009 -1.808,-0.23448 -2.385,-0.77197 -1.095,-1.01959 -3.71,-1.20018 -7.586,-0.5239 -5.267,0.91882 -11.027,4.251 -12.413,7.17985 -0.672,1.42057 -0.828,3.75346 -0.274,4.09275 0.194,0.11914 0.353,0.60219 0.353,1.07344 0,0.47125 0.313,1.43476 0.695,2.14111 0.382,0.70636 0.801,2.00701 0.932,2.89033 0.13,0.88332 0.509,2.00034 0.842,2.48227 0.648,0.93828 2.836,5.45106 2.836,5.84916 0,0.13164 0.299,0.56496 0.663,0.96293 0.365,0.39797 1.073,1.87127 1.574,3.274 0.5,1.40274 1.236,2.96181 1.636,3.46461 0.399,0.5028 0.725,1.13712 0.725,1.40959 0,0.27247 0.324,1.15811 0.72,1.96809 0.656,1.34345 1.167,3.29357 2.128,8.11987 0.482,2.42351 0.504,7.85812 0.05,11.40336 -0.211,1.63857 -0.492,4.43816 -0.624,6.22131 -0.132,1.78314 -0.339,3.24227 -0.46,3.24249 -0.12,2.2e-4 -0.233,0.90713 -0.249,2.01535 -0.02,1.10822 -0.283,3.04015 -0.592,4.29318 -0.309,1.25302 -0.978,4.72293 -1.486,7.71091 -0.509,2.98798 -1.073,5.90586 -1.253,6.48418 -0.18,0.57832 -0.432,3.20201 -0.558,5.83042 l -0.23,4.77892 1.455,1.44238 c 0.801,0.79331 1.67,1.44239 1.932,1.44239 0.261,0 0.753,0.30443 1.093,0.67651 0.34,0.37209 2.155,1.41907 4.034,2.32664 1.878,0.90756 4.228,2.18036 5.221,2.82844 0.992,0.64808 2.038,1.17833 2.323,1.17833 0.285,0 0.844,0.35488 1.242,0.78862 0.397,0.43374 1.234,1.18292 1.859,1.66485 1.75,1.34967 2.215,1.79326 3.859,3.6749 0.839,0.96094 2.298,2.30158 3.242,2.97921 0.944,0.67763 3.119,2.37412 4.834,3.76998 1.714,1.39585 3.634,2.78333 4.267,3.08328 0.632,0.29996 1.149,0.69569 1.149,0.87942 0,0.18373 0.226,0.33405 0.502,0.33405 0.275,0 1.293,0.39431 2.261,0.87624 0.969,0.48194 1.981,0.87625 2.25,0.87625 0.269,0 0.882,0.27551 1.363,0.61225 0.481,0.33674 1.352,0.87182 1.936,1.18907 0.855,0.4653 1.039,0.77042 0.948,1.57834 -0.155,1.38456 -0.622,1.76309 -1.382,1.12059 -0.92,-0.77723 -4.954,-2.86071 -6.994,-3.61185 -1.689,-0.62205 -3.335,-1.49537 -3.713,-1.97052 -0.1,-0.12213 -0.682,-0.47838 -1.299,-0.79167 -0.617,-0.31329 -1.652,-1.0587 -2.299,-1.65647 -0.647,-0.59777 -1.734,-1.50605 -2.415,-2.0184 -0.681,-0.51234 -1.317,-1.01743 -1.415,-1.12242 -0.1,-0.10498 -1.151,-0.94181 -2.343,-1.85961 -1.192,-0.91781 -2.546,-2.19754 -3.01,-2.84386 -1.108,-1.54287 -5.745,-5.37686 -7.549,-6.24142 -2.056,-0.98578 -3.399,-1.73703 -4.605,-2.57726 -0.583,-0.40658 -1.665,-0.93369 -2.404,-1.17135 -0.74,-0.23766 -1.762,-0.81577 -2.273,-1.28469 -0.798,-0.73305 -2.745,-1.98356 -5.473,-3.51489 -1.125,-0.63159 -2.061,-2.25402 -1.693,-2.9348 0.172,-0.32017 0.48,-2.53923 0.683,-4.93125 0.478,-5.63224 1.19,-10.51816 1.885,-12.93629 0.844,-2.93354 1.696,-7.03808 1.519,-7.32169 -0.09,-0.13897 0,-0.87486 0.173,-1.63531 0.499,-2.08733 1.137,-6.11312 1.219,-7.69156 0.04,-0.7711 0.216,-2.8215 0.39,-4.55646 0.173,-1.73495 0.315,-5.59917 0.314,-8.58715 0,-5.88868 -0.446,-8.01458 -2.671,-12.79311 -0.538,-1.15664 -1.531,-3.28591 -2.206,-4.7317 -0.676,-1.4458 -1.347,-3.02303 -1.493,-3.50496 -0.145,-0.48194 -0.562,-1.2949 -0.925,-1.80659 -0.364,-0.51169 -0.661,-1.04672 -0.661,-1.18895 0,-0.14223 -0.716,-1.08938 -1.592,-2.10477 -0.875,-1.0154 -1.591,-2.16659 -1.591,-2.5582 0,-0.39162 -0.159,-0.80951 -0.354,-0.92865 -0.194,-0.11914 -0.354,-0.96578 -0.354,-1.88143 0,-0.9212 -0.231,-1.96869 -0.519,-2.34516 -0.285,-0.3742 -0.524,-1.04078 -0.53,-1.48131 0,-0.44052 -0.288,-1.21925 -0.626,-1.73052 -0.413,-0.62495 -0.606,-1.58237 -0.587,-2.92165 0.02,-1.7102 0.223,-2.2816 1.41,-4.03824 1.162,-1.7196 1.835,-2.28744 4.212,-3.55787 1.557,-0.83144 3.387,-1.76409 4.068,-2.07257 0.681,-0.30847 1.531,-0.70978 1.889,-0.8918 0.766,-0.38863 5.4,-1.18314 8.835,-1.51481 2.075,-0.20026 2.377,-0.31474 2.152,-0.81567 -0.144,-0.32049 -0.398,-2.23881 -0.565,-4.26292 -0.561,-6.81776 -0.608,-6.36642 0.775,-7.49021 0.681,-0.55331 1.874,-1.30647 2.652,-1.67368 0.778,-0.36721 1.813,-0.88606 2.299,-1.153 0.487,-0.26694 1.839,-0.75229 3.006,-1.07855 1.168,-0.32626 2.6,-0.78806 3.184,-1.02622 3.142,-1.28246 6.491,-2.32136 10.964,-3.40104 1.556,-0.37568 4.102,-1.0605 5.658,-1.52183 1.557,-0.46132 4.103,-1.00238 5.659,-1.20234 1.556,-0.19996 3.267,-0.4645 3.802,-0.58786 0.918,-0.21171 0.973,-0.1559 0.973,0.9957 0,1.11386 -0.132,1.26985 -1.515,1.79334 -0.833,0.31535 -1.828,0.57507 -2.211,0.57715 -0.382,0.002 -1.476,0.23867 -2.431,0.52575 -0.955,0.28707 -2.276,0.52195 -2.936,0.52195 -0.659,0 -1.629,0.21772 -2.154,0.48383 -0.525,0.26611 -2.149,0.67746 -3.608,0.9141 -1.458,0.23664 -3.368,0.71109 -4.244,1.05432 -4.431,1.73775 -5.423,2.1042 -5.695,2.1042 -0.163,0 -1.137,0.37383 -2.164,0.83074 -1.027,0.45691 -2.548,0.93276 -3.381,1.05744 -2.299,0.34412 -4.041,1.22518 -5.109,2.58408 l -0.964,1.2272 0.188,4.59831 c 0.104,2.52908 0.249,4.7806 0.322,5.00339 0.07,0.22278 0.661,0.51583 1.306,0.6512 0.645,0.13538 1.492,0.531 1.881,0.87916 0.389,0.34817 1.662,0.9035 2.829,1.23407 1.167,0.33058 3.033,1.05389 4.146,1.60737 1.113,0.55347 2.561,1.00631 3.218,1.00631 0.685,0 2.189,0.52311 3.527,1.22674 1.283,0.67471 2.559,1.22674 2.835,1.22674 0.277,0 0.9,0.31004 1.387,0.68899 1.081,0.84286 2.577,1.34278 8.908,2.97732 2.708,0.69893 5.334,1.49004 5.836,1.75802 2.14,1.14201 4.983,2.21112 7.457,2.80465 2.249,0.53937 2.866,0.85788 4.066,2.09862 1.559,1.61205 4.175,3.69083 4.649,3.69474 0.167,10e-4 0.939,0.62453 1.718,1.38479 0.778,0.76026 1.613,1.39003 1.856,1.39949 0.611,0.0238 0.553,0.38538 -0.142,0.88925 -0.843,0.61076 -0.278,1.24407 0.902,1.01033 0.765,-0.1516 1.047,-0.0469 1.214,0.4496 0.346,1.03141 1.545,2.94896 2.463,3.94033 0.903,0.97511 3.079,5.27694 3.079,6.08711 0,0.2677 0.387,1.58508 0.86,2.9275 0.474,1.34242 1.035,3.85406 1.247,5.58142 0.212,1.72735 0.528,4.32357 0.702,5.76937 0.48,3.98821 0.433,9.91114 -0.08,10.2286 -0.335,0.20705 -0.333,0.41831 0.01,0.96752 0.34,0.54351 0.358,1.63727 0.08,4.83001 -0.199,2.27007 -0.501,4.83494 -0.673,5.69972 -0.324,1.63751 0,2.81054 0.786,2.80685 0.998,-0.005 4.904,-0.75884 6.264,-1.2094 0.894,-0.29631 1.798,-0.37221 8.535,-0.71686 4.172,-0.21338 5.581,-0.53309 10.742,-2.43743 3.671,-1.35447 7.478,-2.32214 12.455,-3.16554 1.598,-0.27084 3.232,-0.66593 3.632,-0.87799 0.4,-0.21207 0.871,-0.29724 1.048,-0.18928 0.176,0.10796 1.486,-0.17716 2.91,-0.6336 1.631,-0.52248 3.934,-0.91446 6.218,-1.05822 1.995,-0.12558 4.342,-0.3852 5.216,-0.57693 0.875,-0.19173 2.346,-0.51963 3.27,-0.72866 0.924,-0.20903 3.771,-0.73997 6.328,-1.17987 3.488,-0.60027 5.154,-1.07177 6.678,-1.88986 1.117,-0.59953 2.144,-1.02084 2.282,-0.93625 0.138,0.0846 0.841,-0.007 1.561,-0.20463 1.698,-0.4645 2.071,-1.41242 2.058,-5.22322 -0.01,-3.35895 -0.593,-5.1342 -2.055,-6.2742 -0.766,-0.59743 -0.899,-0.92362 -0.725,-1.78487 0.144,-0.71158 0.07,-1.05539 -0.221,-1.05862 -0.238,-0.003 -0.818,-0.10685 -1.288,-0.23159 -0.668,-0.17706 -0.811,-0.11167 -0.652,0.29813 0.213,0.55143 -0.177,0.64053 -8.219,1.87621 -3.595,0.55245 -7.95,1.55629 -11.671,2.69059 -1.265,0.38538 -2.949,0.76267 -3.742,0.83842 -0.794,0.0757 -2.385,0.46307 -3.537,0.8607 -2.206,0.76175 -11.715,2.78523 -13.089,2.78523 -1.002,0 -1.502,-1.25994 -0.782,-1.97264 0.273,-0.27086 1.974,-0.72931 3.78,-1.01877 3.363,-0.53903 6.936,-1.38568 11.003,-2.60727 4.597,-1.38049 5.878,-1.71568 8.135,-2.1286 1.264,-0.23131 2.617,-0.55337 3.006,-0.71569 0.669,-0.27905 3.255,-0.84741 5.708,-1.25432 0.707,-0.11724 1.432,0.025 1.996,0.39136 0.999,0.64831 2.73,0.42101 2.73,-0.35838 0,-0.26148 0.318,-0.64424 0.707,-0.85058 0.942,-0.49949 0.898,-1.297 -0.09,-1.59629 -0.438,-0.13285 -2.12,-0.88134 -3.739,-1.66331 -2.348,-1.13465 -2.908,-1.55072 -2.774,-2.0603 0.189,-0.7152 -0.676,-0.90894 -0.913,-0.20454 -0.116,0.345 -0.343,0.345 -1.107,0 -0.529,-0.23869 -1.316,-0.43399 -1.75,-0.43399 -0.434,0 -1.136,-0.24066 -1.56,-0.53479 -0.423,-0.29413 -1.692,-0.70294 -2.819,-0.90847 -1.89,-0.34457 -3.448,-1.01515 -9.606,-4.13503 l -2.25,-1.1404 0.296,-1.45998 c 0.412,-2.03064 0.325,-7.47367 -0.129,-8.01925 -0.347,-0.41669 -0.997,-3.09551 -1.405,-5.78344 -0.09,-0.61976 -0.393,-1.30939 -0.664,-1.53252 -0.271,-0.22314 -0.493,-0.61875 -0.493,-0.87915 0,-0.2604 -0.298,-1.148 -0.661,-1.97244 -0.921,-2.09034 -1.734,-4.72075 -2.033,-6.57668 -0.139,-0.865 -0.465,-1.78317 -0.725,-2.04039 -0.259,-0.25721 -0.472,-0.74834 -0.472,-1.09141 0,-0.62255 -1.537,-3.76004 -2.151,-4.39084 -0.179,-0.18313 -0.325,-0.75215 -0.325,-1.26448 0,-0.51233 -0.771,-2.49175 -1.713,-4.39873 -2.142,-4.33581 -2.884,-6.01113 -2.884,-6.51213 0,-0.41043 -1.443,-3.68337 -2.288,-5.19175 -0.39,-0.69463 -0.845,-0.91256 -2.197,-1.05149 -1.511,-0.15535 -1.746,-0.29458 -2.068,-1.22673 -0.963,-2.78261 -3.033,-5.06873 -4.82,-5.32147 -0.456,-0.0645 -2.056,-0.36151 -3.555,-0.65994 -2.298,-0.45766 -3.517,-0.4826 -7.78,-0.15929 -2.781,0.21082 -6.329,0.55236 -7.885,0.75896 -1.557,0.20661 -3.626,0.44425 -4.598,0.52809 -0.973,0.0838 -2.644,0.2992 -3.714,0.47857 -1.07,0.17938 -3.218,0.49559 -4.774,0.70269 -5.425,0.72187 -11.8,1.99262 -14.937,2.97734 -0.65,0.20395 -0.858,0.0703 -1.177,-0.75532 -0.715,-1.85185 -0.31,-2.03907 7.802,-3.60222 3.736,-0.71985 6.367,-1.13814 12.379,-1.96811 2.237,-0.30881 4.707,-0.7192 5.49,-0.91197 1.465,-0.36088 2.244,-0.41133 13.108,-0.84897 6.675,-0.26889 7.46,-0.17285 11.914,1.45855 1.63,0.59725 2.328,0.60672 3.327,0.0451 0.423,-0.23812 1.802,-1.02441 3.063,-1.74731 2.201,-1.26087 2.428,-1.31458 5.597,-1.31985 1.919,-0.003 4.695,-0.2968 6.627,-0.70099 1.829,-0.38253 3.898,-0.69601 4.598,-0.69662 0.7,-6.2e-4 2.651,-0.2401 4.336,-0.53218 2.686,-0.46564 8.061,-1.20678 16.389,-2.26001 1.361,-0.1722 3.271,-0.49142 4.244,-0.70937 0.973,-0.21796 3.28,-0.53855 5.128,-0.71242 1.848,-0.17388 4.474,-0.48813 5.836,-0.69834 1.362,-0.21021 3.909,-0.29209 5.661,-0.18196 8.898,0.55928 12.543,0.55677 14.938,-0.0103 1.314,-0.31115 3.265,-0.62615 4.335,-0.69999 1.07,-0.0738 4.014,-0.46033 6.543,-0.85886 5.068,-0.7987 9.393,-1.24927 15.031,-1.56611 10.047,-0.56449 20.882,-1.43174 21.925,-1.75492 0.294,-0.0909 2.364,-0.32416 4.601,-0.51832 2.237,-0.19416 5.022,-0.44284 6.19,-0.55261 4.991,-0.46947 11.183,2.0158 12.911,5.18192 1.661,3.04622 3.169,6.28571 3.569,7.67058 0.244,0.84355 0.605,1.74403 0.803,2.00108 0.197,0.25705 0.382,0.73022 0.41,1.05149 0.03,0.32127 0.299,1.4516 0.602,2.51186 0.304,1.06025 0.657,2.7952 0.787,3.85545 0.428,3.52086 0.924,4.93341 1.856,5.28457 0.965,0.36332 6.037,0.7127 12.13,0.83549 2.237,0.0451 8.226,0.20937 13.308,0.36509 8.218,0.25177 9.443,0.21757 11.067,-0.30886 1.005,-0.32559 1.939,-0.52998 2.077,-0.45421 0.138,0.0758 1.922,-0.0791 3.965,-0.34426 6.584,-0.85471 7.69,-0.90898 10.087,-0.4952 1.297,0.22374 3.337,0.85718 4.535,1.40764 1.197,0.55046 2.518,1.10033 2.933,1.22193 1.137,0.33229 2.512,2.6604 3.342,5.65915 1.027,3.7091 1.191,10.36202 0.327,13.29113 -0.34,1.15663 -0.808,3.04931 -1.038,4.20595 -0.231,1.15664 -0.752,3.20704 -1.158,4.55645 -0.406,1.34941 -0.939,3.24209 -1.183,4.20596 -0.245,0.96386 -0.874,2.85654 -1.398,4.20595 -0.524,1.34941 -1.113,3.00551 -1.31,3.68021 -0.196,0.67471 -0.491,1.39037 -0.654,1.59036 -0.164,0.2 -0.483,2.11459 -0.709,4.25467 -0.346,3.26882 -0.321,4.54505 0.156,7.98096 0.312,2.24946 0.706,4.35681 0.875,4.68299 0.169,0.32619 0.415,2.05486 0.545,3.8415 0.131,1.78663 0.408,4.15248 0.616,5.25744 0.208,1.10495 0.427,2.40332 0.487,2.88525 0.224,1.79437 0.203,9.02255 -0.03,11.42352 -0.286,2.90341 -0.113,3.08158 2.424,2.50619 2.028,-0.46 2.819,0.0232 2.66,1.62516 -0.1,0.9882 -0.254,1.10111 -2.052,1.49428 -7.057,1.54297 -10.213,2.27888 -11.141,2.59788 -0.584,0.20066 -2.971,0.51295 -5.305,0.69398 -4.034,0.31287 -8.125,1.08504 -9.452,1.78416 -0.591,0.31167 -2.468,0.74608 -6.11,1.41426 -1.584,0.29068 -6.442,0.93886 -11.318,1.51031 -1.601,0.18765 -3.945,0.813 -6.117,1.63214 -1.252,0.47214 -2.125,0.36612 -2.504,-0.30412 -0.192,-0.34138 -0.473,-0.47472 -0.636,-0.30251 -0.161,0.16936 -0.09,0.37835 0.15,0.46441 0.768,0.27182 0.48,1.05026 -0.53,1.43253 -0.535,0.20242 -2.485,0.61781 -4.333,0.92307 -1.848,0.30527 -3.917,0.70716 -4.598,0.89309 -2.868,0.7834 -5.963,1.73707 -7.807,2.406 -1.084,0.39335 -3.139,0.80117 -4.567,0.90629 -1.576,0.11609 -2.827,0.39854 -3.184,0.71955 -0.797,0.71472 -0.969,0.67745 -1.918,-0.41633 l -0.82,-0.94477 -0.849,0.85715 c -2.282,2.30475 -2.674,2.49513 -6.911,3.35587 -7.17,1.45652 -7.638,1.53839 -10.903,1.90437 -5.017,0.56244 -6.504,0.87322 -9.891,2.06759 -1.851,0.65264 -4.723,1.317 -6.897,1.59564 -2.049,0.26258 -4.601,0.78415 -5.67,1.15905 -2.787,0.97656 -5.271,1.65538 -9.903,2.7062 -2.237,0.50749 -4.943,1.21162 -6.013,1.56473 -1.07,0.35311 -2.502,0.74212 -3.183,0.86447 -0.681,0.12234 -1.954,0.36653 -2.829,0.54263 -0.876,0.1761 -3.104,0.57148 -4.952,0.87861 -1.848,0.30714 -4.121,0.72261 -5.052,0.92328 -0.931,0.20067 -2.682,0.40319 -3.891,0.45005 -1.649,0.064 -3.068,0.44852 -5.687,1.54169 -1.919,0.80107 -3.867,1.45649 -4.328,1.45649 -1.692,0 -7.905,1.57494 -16.41,4.16024 -1.848,0.56174 -3.917,1.13738 -4.597,1.27921 -1.668,0.34743 -8.552,2.81548 -10.964,3.93068 -4.218,1.95019 -6.346,2.76335 -8.489,3.24337 -1.57,0.35194 -3.326,0.95921 -5.128,1.77399 -0.778,0.35178 -2.449,0.82047 -3.714,1.04154 -3.954,0.69139 -10.205,2.61308 -11.848,3.64236 -0.389,0.24374 -1.503,0.73239 -2.475,1.08588 -0.973,0.35349 -1.928,0.75786 -2.122,0.89859 -0.667,0.48213 -3.305,1.03741 -7.487,1.57568 -2.302,0.29621 -5.136,0.75391 -6.299,1.0171 -1.163,0.2632 -2.232,0.40597 -2.377,0.31726 -0.145,-0.0887 -0.626,0.0631 -1.069,0.33732 -1.515,0.93725 -2.516,0.96385 -3.3,0.0877 z m 100.035,-75.34453 c 0.108,0.10677 1.123,0.01 2.257,-0.21524 1.133,-0.22515 3.255,-0.6442 4.714,-0.93121 1.458,-0.28701 3.925,-0.82819 5.482,-1.20262 1.556,-0.37444 3.386,-0.74799 4.067,-0.83014 0.681,-0.0821 2.352,-0.38208 3.713,-0.66654 7.776,-1.62434 11.935,-2.33149 13.713,-2.33149 1.101,0 2.683,-0.22802 3.517,-0.50672 0.833,-0.2787 2.789,-0.6648 4.345,-0.85801 1.556,-0.19321 3.466,-0.57306 4.244,-0.84412 0.778,-0.27106 2.051,-0.60902 2.829,-0.75101 0.778,-0.142 2.131,-0.56793 3.007,-0.94652 0.875,-0.37859 1.989,-0.85406 2.475,-1.0566 3.509,-1.46152 4.798,-2.41583 6.425,-4.75933 1.022,-1.47234 1.082,-1.72676 0.879,-3.72748 -0.273,-2.68581 -1.223,-5.66868 -2.268,-7.11704 -0.876,-1.21426 -3.415,-2.89437 -5.508,-3.64415 -1.106,-0.39652 -1.301,-0.60811 -1.141,-1.2406 0.124,-0.48916 0,-0.83454 -0.334,-0.96334 -0.314,-0.11918 -0.528,-10e-4 -0.528,0.29033 0,0.65663 -1.23,1.01172 -2.032,0.58658 -0.353,-0.18761 -1.832,-0.44285 -3.285,-0.5672 -1.452,-0.12434 -3.278,-0.43777 -4.056,-0.69651 -0.778,-0.25874 -1.845,-0.56553 -2.372,-0.68176 -0.526,-0.11622 -1.368,-0.36629 -1.871,-0.5557 -0.774,-0.29158 -0.856,-0.45055 -0.54,-1.03679 0.377,-0.69853 2.94,-1.61261 3.522,-1.2562 0.353,0.21643 4.936,1.06539 7.627,1.41302 0.973,0.12562 2.362,0.61148 3.087,1.07967 0.726,0.4682 1.497,0.85127 1.715,0.85127 0.218,0 0.898,0.21517 1.511,0.47814 0.613,0.26298 1.831,0.77031 2.706,1.12741 0.875,0.3571 2.014,0.94911 2.531,1.31559 0.925,0.65662 0.961,0.65589 2.475,-0.0505 5.906,-2.75455 8.756,-3.47403 16.215,-4.09298 2.857,-0.23707 8.868,-1.38312 12.909,-2.46112 1.945,-0.51892 5.128,-1.24717 7.073,-1.61834 1.946,-0.37117 4.253,-0.8973 5.129,-1.16919 0.875,-0.27188 2.626,-0.59123 3.89,-0.70965 5.013,-0.4695 13.283,-2.09774 13.651,-2.68764 0.29,-0.46501 -0.363,-1.09947 -1.193,-1.1601 -0.359,-0.0262 -1.121,-0.22789 -1.692,-0.44813 -0.572,-0.22025 -2.313,-0.66869 -3.869,-0.99655 -1.556,-0.32786 -4.013,-1.06355 -5.459,-1.63488 -2.309,-0.9121 -3.15,-1.05253 -6.897,-1.15154 -2.347,-0.062 -4.951,-0.21791 -5.788,-0.34641 -0.836,-0.1285 -1.927,-0.13242 -2.425,-0.009 -0.849,0.21134 -0.89,0.31933 -0.667,1.78926 0.214,1.41713 0.159,1.59389 -0.582,1.87832 -1.082,0.4156 -2.055,-0.19879 -2.868,-1.81154 -0.61,-1.21135 -0.673,-1.2428 -1.591,-0.79628 -1.556,0.75639 -3.206,1.1512 -7.322,1.75198 -2.14,0.31226 -4.687,0.71243 -5.659,0.88927 -3.062,0.5567 -6.889,0.72684 -7.62,0.33882 -0.782,-0.4146 -0.913,-1.47733 -0.25,-2.01934 0.244,-0.19861 1.477,-0.44121 2.741,-0.53912 2.455,-0.19005 7.165,-0.86151 12.91,-1.84041 1.945,-0.33145 3.981,-0.6189 4.524,-0.63877 1.559,-0.057 1.689,-1.78795 0.516,-6.83459 -0.366,-1.57683 -0.427,-2.65628 -0.204,-3.6384 0.192,-0.84957 0.184,-1.82455 -0.02,-2.4897 -0.186,-0.60131 -0.522,-3.37482 -0.748,-6.16336 -0.226,-2.78853 -0.558,-5.34117 -0.737,-5.67252 -0.482,-0.89285 -0.396,-1.74206 0.247,-2.4463 0.503,-0.55143 0.519,-0.91049 0.134,-3.00681 -0.607,-3.30187 -1.366,-5.99197 -2.103,-7.45225 -0.344,-0.68051 -0.723,-2.09163 -0.842,-3.13582 -0.148,-1.29491 -0.484,-2.18642 -1.055,-2.80397 -0.461,-0.49799 -1.171,-1.45747 -1.578,-2.13217 -1.132,-1.87606 -2.915,-3.3813 -4.705,-3.97251 -2.953,-0.97507 -10.69,-0.69202 -22.961,0.84002 -4.402,0.54956 -11.621,1.07614 -16.27,1.18683 -2.237,0.0533 -6.056,0.36319 -8.488,0.68873 -2.431,0.32553 -5.296,0.6723 -6.366,0.77059 -1.07,0.0983 -2.582,0.30934 -3.36,0.46899 -0.778,0.15966 -1.653,0.30347 -1.945,0.31958 -3.433,0.1895 -7.305,0.82837 -7.761,1.28044 -0.493,0.48795 -0.443,0.73852 0.508,2.54611 0.58,1.1027 1.578,2.8163 2.218,3.808 0.64,0.9917 1.567,2.80552 2.06,4.0307 0.492,1.22519 1.363,3.17655 1.935,4.33636 0.572,1.15981 1.04,2.39 1.04,2.73375 0,0.34375 0.267,1.12978 0.594,1.74671 0.678,1.27908 1.249,4.26537 1.679,8.78199 0.107,1.12879 0.506,3.10034 0.886,4.38121 1.576,5.3114 1.906,7.99325 1.668,13.54473 -0.266,6.17955 0.03,7.88617 1.384,7.88617 0.479,0 1.148,0.1392 1.486,0.30933 2.297,1.15673 4.859,1.79055 8.099,2.0037 4.282,0.28165 4.569,0.40501 4.112,1.76476 -0.388,1.1526 -1.511,1.58768 -1.528,0.59198 -0.01,-0.56853 -0.06,-0.57864 -0.442,-0.0916 -0.579,0.73576 -1.594,1.08307 -1.87,0.64007 -0.123,-0.1975 -0.427,-0.28182 -0.676,-0.18738 -0.602,0.22916 -5.276,-0.36544 -6.871,-0.87425 -0.699,-0.22283 -2.269,-0.85306 -3.488,-1.40052 -2.88,-1.29224 -3.041,-1.71432 -2.798,-7.31254 0.245,-5.62761 -0.238,-11.47952 -1.186,-14.37035 -0.898,-2.73806 -1.726,-6.64866 -2.116,-9.98914 -0.334,-2.86494 -1.303,-6.05047 -2.573,-8.45706 -0.495,-0.93903 -0.982,-2.10164 -1.081,-2.58357 -0.338,-1.63602 -1.374,-4.20595 -1.696,-4.20595 -0.176,0 -0.48,-0.35488 -0.674,-0.78862 -0.195,-0.43374 -0.788,-1.52611 -1.318,-2.42748 -0.53,-0.90138 -1.313,-2.24203 -1.74,-2.97922 -1.918,-3.31201 -1.918,-3.31185 -6.802,-3.46675 -2.408,-0.0764 -4.633,-0.21737 -4.943,-0.31332 -0.311,-0.0959 -2.156,-0.005 -4.101,0.20292 -1.946,0.20755 -4.933,0.43442 -6.64,0.50415 -1.707,0.0697 -4.094,0.36962 -5.305,0.66642 -1.211,0.2968 -2.919,0.61928 -3.794,0.71663 -4.218,0.46909 -5.137,0.61201 -5.983,0.93069 -0.501,0.18899 -2.663,0.47951 -4.803,0.6456 -4.499,0.34912 -13.392,1.57279 -13.96,1.92099 -0.213,0.13035 -2.412,0.37889 -4.886,0.55231 -6.727,0.47155 -7.199,0.57859 -8.689,1.97212 -1.4,1.30908 -1.486,2.27614 -0.283,3.17555 0.321,0.23966 0.902,0.68825 1.291,0.99686 0.389,0.30862 0.868,0.66456 1.064,0.79099 0.537,0.34545 2.158,2.92214 2.463,3.91468 0.523,1.69992 4.177,9.99275 4.634,10.51575 0.255,0.29216 0.977,1.63281 1.604,2.97922 0.627,1.3464 1.408,2.84232 1.737,3.32425 0.328,0.48193 0.876,1.82258 1.216,2.97922 0.341,1.15663 1.063,3.44362 1.605,5.08219 0.542,1.63857 1.341,4.24101 1.776,5.78319 0.435,1.54218 0.912,2.96169 1.06,3.15446 0.331,0.43212 0.867,3.32572 0.74,3.99339 -0.05,0.26863 0.09,0.59856 0.307,0.73316 0.552,0.33781 1.157,4.7451 0.916,6.66458 -0.315,2.50716 0.49,3.43891 4.806,5.56253 2.012,0.99024 4.136,1.8056 4.72,1.8119 1.684,0.0182 8.653,2.52851 10.787,3.88568 1.07,0.6803 2.661,1.59563 3.537,2.03406 0.875,0.43843 2.308,1.17375 3.183,1.63403 0.875,0.46029 1.781,0.83852 2.012,0.84051 0.231,0.002 0.94,0.47442 1.576,1.04983 1.062,0.96122 1.214,1.00393 1.878,0.52569 2.399,-1.72715 4.966,-2.68389 8.049,-3.00007 1.748,-0.17917 3.344,-0.42752 3.547,-0.55189 0.203,-0.12437 1.421,-0.42566 2.706,-0.66952 2.685,-0.50952 7.276,-1.78186 8.203,-2.27359 0.347,-0.18385 1.504,-0.33427 2.572,-0.33427 1.961,0 3.121,-0.19033 8.892,-1.45899 7.389,-1.62446 9.607,-2.08208 10.61,-2.1889 0.584,-0.0621 1.938,-0.43782 3.01,-0.83485 1.072,-0.39702 2.425,-0.77318 3.006,-0.8359 0.582,-0.0627 1.154,-0.2437 1.271,-0.40215 0.118,-0.15846 0.595,-0.33329 1.061,-0.38852 0.466,-0.0552 2.306,-0.30866 4.088,-0.56319 2.619,-0.37404 3.619,-0.37886 5.214,-0.0251 1.086,0.24073 2.28,0.34138 2.654,0.22367 0.374,-0.11771 0.783,-0.0499 0.908,0.15074 0.125,0.20061 0.685,0.36475 1.244,0.36475 1.118,0 1.634,0.87485 1.241,2.10298 -0.263,0.81897 -1.456,0.92728 -2.486,0.22557 -1.173,-0.79953 -5.688,-1.00798 -8.847,-0.40846 -2.735,0.51911 -2.843,0.51354 -3.815,-0.19809 -1.047,-0.76617 -1.712,-0.74608 -0.776,0.0234 0.296,0.24385 0.539,0.56034 0.539,0.70332 0,0.70492 -6.024,2.32141 -13.794,3.70142 -2.82,0.50099 -5.816,1.22109 -6.657,1.60022 -1.798,0.81025 -2.413,0.92073 -6.511,1.16918 -1.698,0.10297 -4.245,0.52074 -5.658,0.92837 -1.414,0.40763 -3.128,0.8754 -3.809,1.03948 -0.681,0.16409 -2.511,0.63221 -4.067,1.04027 -1.557,0.40806 -3.921,0.81378 -5.255,0.9016 -2.496,0.16432 -4.056,0.73573 -5.444,1.99363 -0.955,0.8648 -1.001,1.65814 -0.186,3.1574 0.77,1.41617 0.865,1.92547 0.96,5.15241 0.105,3.53845 0.342,4.14038 1.722,4.36772 1.968,0.3244 4.292,0.38006 4.885,0.11701 0.314,-0.13976 0.66,-0.16675 0.768,-0.06 z m 22.002,-17.04262 c -0.382,-0.61297 0.184,-1.13094 0.739,-0.6751 0.274,0.22574 0.499,0.54885 0.499,0.71801 0,0.42256 -0.969,0.38898 -1.238,-0.0429 z m -31.654,-3.35892 c 0,-0.61895 0.761,-0.51116 0.98,0.13873 0.08,0.22892 -0.112,0.41622 -0.42,0.41622 -0.308,0 -0.56,-0.24973 -0.56,-0.55495 z m -23.569,-8.3827 c -0.112,-0.28916 -0.119,-0.74364 -0.02,-1.00995 0.28,-0.72202 4.467,-2.1647 9.261,-3.19093 2.334,-0.49967 4.721,-1.05391 5.305,-1.23164 0.584,-0.17774 2.573,-0.50082 4.421,-0.71798 1.848,-0.21715 5.588,-0.7857 8.311,-1.26345 2.724,-0.47775 6.384,-1.09594 8.135,-1.37376 1.751,-0.27781 4.138,-0.67765 5.305,-0.88852 6.145,-1.11028 7.604,-1.11139 7.604,-0.006 0,1.65894 -1.156,2.01594 -10.964,3.3865 -3.713,0.51888 -5.083,0.76495 -9.726,1.74756 -4.394,0.92986 -6.327,1.21414 -8.27,1.21621 -1.84,0.002 -2.524,0.13227 -6.798,1.2951 -1.507,0.41025 -2.157,0.44584 -2.717,0.14881 -0.957,-0.50757 -1.137,-0.49236 -1.137,0.0964 0,0.30961 -0.869,0.69966 -2.387,1.07149 -1.313,0.32157 -2.876,0.73339 -3.473,0.91516 -1.572,0.47831 -2.621,0.40658 -2.854,-0.19524 z m 75.736,-1.92773 c -0.12,-0.19278 -0.05,-0.3505 0.156,-0.3505 0.206,0 0.375,0.15772 0.375,0.3505 0,0.19277 -0.07,0.35049 -0.156,0.35049 -0.09,0 -0.255,-0.15772 -0.375,-0.35049 z m -8.248,-9.91398 c -0.366,-0.43667 -0.302,-0.6876 0.365,-1.42204 0.617,-0.67972 1.356,-0.97167 3.108,-1.22757 2.511,-0.36661 2.711,-0.29763 2.888,0.99149 0.101,0.7426 -0.09,0.93919 -1.296,1.3378 -2.384,0.78727 -4.559,0.92485 -5.065,0.32032 z m 8.239,-1.28765 c 0.116,-0.18493 0,-0.66291 -0.244,-1.06218 -0.577,-0.92145 -0.235,-1.15754 2.492,-1.72098 1.103,-0.22787 3.073,-0.65994 4.379,-0.96014 2.419,-0.55631 10.622,-0.54775 11.536,0.012 0.453,0.27744 0.576,1.93695 0.149,2.00972 -1.155,0.19682 -2.718,0.29208 -7.28,0.44381 -2.885,0.096 -5.432,0.31716 -5.659,0.49154 -0.4,0.30754 -4.096,1.12243 -5.09,1.12243 -0.271,0 -0.398,-0.1513 -0.283,-0.33624 z m 34.669,27.84437 c 4.644,-1.22457 7.637,-1.88697 10.357,-2.29222 6.514,-0.97044 11.489,-1.98262 13.04,-2.65291 0.613,-0.26495 1.408,-0.48182 1.768,-0.48191 0.36,-1e-4 1.45,-0.29691 2.422,-0.65958 0.973,-0.36267 3.678,-1.08521 6.013,-1.60563 2.334,-0.52043 5.835,-1.31972 7.781,-1.77621 1.945,-0.45648 4.81,-1.01605 6.366,-1.24348 2.551,-0.37285 5.012,-1.15055 5.482,-1.73215 0.1,-0.12049 0.431,-0.3117 0.742,-0.42489 1.011,-0.36826 2.06,-3.12883 1.831,-4.81909 l -0.205,-1.51218 -0.388,1.15752 c -0.49,1.4602 -1.388,2.07263 -2.245,1.53142 -0.492,-0.31061 -0.603,-0.81333 -0.538,-2.45168 0.222,-5.66769 0.225,-6.78132 0.02,-6.98788 -0.268,-0.26588 -4.803,-0.25573 -6.817,0.0153 -0.778,0.10468 -2.131,0.4039 -3.007,0.66493 -2.133,0.63616 -5.167,1.17546 -9.018,1.60309 -3.626,0.40263 -12.504,2.13411 -16.446,3.20772 -4.975,1.35468 -10.043,2.42086 -13.247,2.78679 -9.043,1.03288 -12.263,1.71661 -15.52,3.29602 -2.811,1.36252 -2.992,1.66054 -2.222,3.64038 0.802,2.06243 1.249,4.12945 1.563,7.23753 0.289,2.86488 0.971,4.00771 2.607,4.3656 2.059,0.45059 6.017,0.0958 9.665,-0.86646 z m 66.077,-23.0393 c 0.264,-0.62651 0.593,-2.38874 0.733,-3.91607 0.139,-1.52733 0.399,-3.04761 0.578,-3.37841 0.296,-0.54827 1.907,-7.66935 2.355,-10.40558 0.102,-0.62651 0.04,-1.13911 -0.135,-1.13911 -0.424,0 -1.026,1.74592 -1.57,4.55645 -0.551,2.84179 -0.808,3.21545 -1.924,2.7948 -1.779,-0.67028 -1.849,-0.42418 -1.682,5.90142 0.09,3.21716 0.221,6.04653 0.301,6.28749 0.257,0.77769 0.853,0.46728 1.344,-0.70099 z m -14.338,-6.09511 c 0.783,-0.20797 0.807,-0.33208 0.749,-3.9383 -0.03,-2.04796 0.121,-4.47303 0.342,-5.38905 0.277,-1.14922 0.295,-2.12703 0.06,-3.15446 -0.535,-2.29817 -0.42,-3.71859 0.53,-6.55887 0.481,-1.43903 0.875,-3.03638 0.875,-3.54967 0,-0.51329 0.238,-1.12878 0.528,-1.36774 0.291,-0.23897 1.016,-1.27922 1.612,-2.31168 0.596,-1.03246 1.512,-2.21733 2.036,-2.63305 l 0.952,-0.75586 -2.652,0.27135 c -1.459,0.14925 -3.29,0.3128 -4.068,0.36345 -0.778,0.0506 -2.29,0.29449 -3.36,0.54188 -2.206,0.51016 -10.396,0.49007 -16.269,-0.0399 -3.502,-0.31608 -12.738,-0.73637 -18.214,-0.82889 -2.277,-0.0385 -2.47,0.0145 -2.403,0.65916 0.155,1.48091 0.463,3.21528 0.84,4.7317 0.215,0.86748 0.461,3.54878 0.546,5.95844 0.206,5.88653 0.637,8.46423 1.513,9.05203 0.466,0.31237 2.297,0.50707 5.58,0.59348 6.056,0.15932 9.624,0.66336 13.73,1.93928 1.75,0.54405 4.18,1.23292 5.398,1.53082 1.218,0.2979 2.968,0.93867 3.888,1.42393 0.92,0.48526 1.86,0.88229 2.09,0.88229 0.23,0 0.868,0.3714 1.417,0.82534 0.934,0.77087 2.9,1.93895 3.299,1.95981 0.1,0.005 0.541,-0.0874 0.986,-0.20548 z m 14.817,-11.40779 c -0.112,-0.27961 -0.196,-0.19655 -0.213,0.21175 -0.02,0.36949 0.07,0.5765 0.186,0.46003 0.117,-0.11647 0.13,-0.41877 0.03,-0.67178 z m -0.176,-3.97261 c 1.084,-1.04384 1.305,-1.51717 1.43,-3.06684 0.08,-1.00787 0.03,-1.96415 -0.103,-2.12506 -0.327,-0.38327 -2.668,1.14015 -3.168,2.06206 -0.654,1.20619 -0.432,4.36419 0.307,4.36419 0.138,0 0.829,-0.55545 1.534,-1.23435 z m 3.61,-3.99853 c -0.542,-0.50322 -0.573,-0.49537 -0.365,0.0917 0.124,0.35312 0.237,0.98401 0.249,1.40199 0.02,0.72262 0.04,0.71812 0.366,-0.0917 0.265,-0.65831 0.209,-0.97663 -0.25,-1.40198 z m -246.459,134.5902 c -0.242,-0.38738 0.316,-0.80567 0.643,-0.48202 0.336,0.33325 0.273,0.8083 -0.107,0.8083 -0.183,0 -0.424,-0.14683 -0.536,-0.32628 z m -3.009,-32.59732 c -0.202,-0.37287 -0.366,-0.91364 -0.366,-1.2017 0,-0.86349 -1.087,-1.69486 -1.939,-1.48296 -1.586,0.39435 -2.001,-0.42464 -2.701,-5.32513 -0.361,-2.52982 -0.723,-6.45999 -0.804,-8.73372 -0.233,-6.53216 -0.858,-13.07719 -1.448,-15.17469 -2.051,-7.2951 -2.664,-10.10807 -2.837,-13.03669 -0.107,-1.79376 -0.431,-4.28658 -0.722,-5.53961 -0.779,-3.3622 -1.484,-7.25319 -1.748,-9.65844 -0.184,-1.67278 -0.07,-2.60155 0.514,-4.38121 0.912,-2.75379 1.638,-3.66663 3.271,-4.11347 1.656,-0.45321 2.877,-0.1872 3.85,0.83913 0.438,0.46237 1.169,0.84067 1.624,0.84067 0.664,0 0.999,0.38716 1.706,1.97134 0.484,1.08424 0.88,2.25786 0.88,2.60804 0,0.35018 0.155,0.73153 0.344,0.84744 0.189,0.1159 0.67,1.25649 1.068,2.53463 0.399,1.27815 0.911,2.5468 1.14,2.81924 0.459,0.54827 0.998,3.75111 1.141,6.78152 0.05,1.08082 0.206,2.14545 0.343,2.36585 0.137,0.2204 0.173,0.52437 0.08,0.67549 -0.173,0.27684 0.149,4.23885 0.817,10.06487 0.385,3.36127 -0.187,9.64388 -1.214,13.31885 -0.269,0.96387 -0.594,2.5411 -0.723,3.50497 -0.128,0.96386 -0.456,2.53029 -0.73,3.48095 -0.273,0.95066 -0.497,2.71478 -0.497,3.92027 0,1.20548 -0.146,2.57304 -0.325,3.03902 -0.365,0.95334 0.465,4.55296 1.489,6.45379 0.867,1.60779 0.773,2.51255 -0.302,2.91768 -1.265,0.47652 -1.493,0.43642 -1.91,-0.33613 z m -1.828,-8.69782 c 0,-0.7229 0.25,-2.73388 0.567,-4.46883 0.317,-1.73496 0.803,-4.81056 1.08,-6.83468 0.277,-2.02411 0.674,-4.05884 0.883,-4.52161 0.623,-1.37986 0.88,-4.77314 0.826,-10.90022 -0.03,-3.18075 0.03,-5.58603 0.118,-5.34507 0.201,0.52177 0.817,0.58789 0.817,0.0876 0,-0.19278 -0.293,-0.64121 -0.652,-0.99651 -0.642,-0.63657 -0.91,-2.45249 -1.273,-8.64214 -0.07,-1.15664 -0.288,-2.49728 -0.49,-2.97922 -0.202,-0.48193 -0.629,-1.82258 -0.95,-2.97921 -0.321,-1.15664 -0.808,-2.61775 -1.082,-3.24692 -0.274,-0.62916 -0.6,-1.7796 -0.726,-2.55653 -0.179,-1.10946 -0.461,-1.53212 -1.314,-1.9695 -1.071,-0.54884 -1.101,-0.54055 -2.039,0.57375 -0.575,0.68276 -1.05,1.77724 -1.198,2.76293 -0.136,0.89776 -0.472,2.17021 -0.749,2.82766 -0.721,1.71646 -0.72,8.15378 0,10.19576 0.307,0.86748 0.56,1.93211 0.563,2.36585 0,0.43374 0.164,0.78862 0.359,0.78862 0.194,0 0.32,-0.11829 0.278,-0.26287 -0.04,-0.14458 0.1,-0.57832 0.312,-0.96387 0.213,-0.38554 0.498,-1.25302 0.633,-1.92773 0.135,-0.6747 0.56,-1.91412 0.945,-2.75427 0.386,-0.84014 0.647,-1.9442 0.582,-2.45347 -0.117,-0.92004 -0.123,-0.91756 -0.939,0.38842 -0.894,1.43331 -1.599,1.66195 -2.124,0.68953 -0.248,-0.46001 -0.07,-1.2052 0.695,-2.82503 0.568,-1.21011 1.033,-2.48645 1.033,-2.83632 0,-1.37668 0.465,-2.82672 0.907,-2.82672 0.721,0 1.03,0.73326 1.034,2.45347 0,1.43506 0.08,1.56731 0.802,1.46718 1.207,-0.1664 1.329,0.73828 0.487,3.60927 -0.415,1.41568 -0.755,3.1286 -0.755,3.80649 0,1.20458 0.02,1.22564 1.068,0.929 l 1.068,-0.30351 -0.214,1.99284 c -0.415,3.84722 -0.397,7.27445 0.05,9.83198 0.248,1.41993 0.394,2.76058 0.323,2.97921 -0.07,0.21864 -0.209,2.29418 -0.308,4.61231 -0.205,4.84813 -0.385,5.55392 -1.347,5.30463 -1.047,-0.27157 -1.313,0.98995 -0.949,4.51561 0.178,1.72661 0.383,4.24335 0.456,5.59276 0.115,2.1352 0.855,6.13369 1.134,6.13369 0.05,0 0.09,-0.59147 0.09,-1.31436 z m -1.221,-18.5763 c 0.32,-2.00962 0.359,-7.47291 0.06,-8.85003 -0.145,-0.67471 -0.494,-1.73204 -0.776,-2.34962 -0.451,-0.98685 -0.446,-1.57532 0.05,-4.85766 0.308,-2.05413 0.506,-3.78769 0.441,-3.85235 -0.07,-0.0647 -0.603,0.78064 -1.194,1.87845 -0.941,1.74498 -1.199,1.98713 -2.058,1.9254 -0.901,-0.0648 -0.962,0.007 -0.74,0.87624 0.134,0.52077 0.466,2.09876 0.739,3.50665 0.274,1.40789 0.64,2.8274 0.814,3.15447 0.282,0.52745 1.151,4.89936 1.705,8.56845 0.109,0.72289 0.322,1.31436 0.474,1.31436 0.152,0 0.37,-0.59147 0.485,-1.31436 z m 5.335,-19.01442 c 0.12,-0.19278 0.05,-0.3505 -0.156,-0.3505 -0.206,0 -0.374,0.15772 -0.374,0.3505 0,0.19277 0.07,0.35049 0.156,0.35049 0.08,0 0.254,-0.15772 0.374,-0.35049 z m -10.301,-16.93959 c 1.18,-2.39083 1.217,-3.17146 0.133,-2.84945 -1.204,0.3578 -1.619,0.91428 -1.688,2.26423 -0.173,3.35156 0.132,3.46645 1.555,0.58522 z m 211.455,61.55135 c -0.607,-0.21595 -0.558,-0.79974 0.07,-0.79974 0.585,0 1.049,0.57796 0.645,0.80473 -0.149,0.0837 -0.47,0.0814 -0.713,-0.005 z m -101.859,-5.93881 c -0.616,-0.24625 -0.554,-0.81936 0.09,-0.81936 0.292,0 0.531,0.23658 0.531,0.52574 0,0.28916 -0.04,0.51329 -0.09,0.49808 -0.05,-0.0152 -0.288,-0.10723 -0.531,-0.20446 z m -57.738,-1.6956 c 0,-0.29208 0.315,-0.52575 0.708,-0.52575 0.393,0 0.707,0.23367 0.707,0.52575 0,0.29208 -0.314,0.52574 -0.707,0.52574 -0.393,0 -0.708,-0.23366 -0.708,-0.52574 z m -117.906,-17.97888 c -0.11,-0.1754 0.01,-0.60435 0.269,-0.95323 0.573,-0.77688 1.737,-0.4481 1.565,0.44237 -0.126,0.65761 -1.504,1.04116 -1.834,0.51086 z m 88.905,-9.86489 c 0,-0.37416 0.199,-0.8079 0.442,-0.96386 0.487,-0.31264 4.654,-1.33759 7.692,-1.89217 1.07,-0.19529 2.28,-0.57209 2.69,-0.83734 0.409,-0.26525 1.364,-0.58757 2.122,-0.71626 0.758,-0.1287 2.53,-0.60691 3.939,-1.06269 1.409,-0.45579 3.558,-1.00831 4.775,-1.22783 2.743,-0.49469 6.346,-1.29449 7.067,-1.56873 0.398,-0.15107 0.584,0.0812 0.701,0.87338 0.208,1.40438 -0.392,1.86911 -2.476,1.91731 -0.915,0.0212 -1.864,0.16328 -2.107,0.3158 -0.244,0.15252 -1.199,0.40333 -2.122,0.55737 -3.945,0.65802 -6.296,1.26027 -6.56,1.68073 -0.156,0.24758 -0.604,0.45014 -0.996,0.45014 -0.392,0 -1.053,0.18027 -1.468,0.4006 -1.184,0.6276 -8.093,2.08353 -8.813,1.85702 -0.356,-0.11191 -1.148,0.0441 -1.76,0.34668 -1.606,0.79401 -3.126,0.73073 -3.126,-0.13015 z m 131.921,-2.82465 c 0,-0.19277 0.159,-0.3505 0.354,-0.3505 0.194,0 0.354,0.15773 0.354,0.3505 0,0.19277 -0.16,0.3505 -0.354,0.3505 -0.195,0 -0.354,-0.15773 -0.354,-0.3505 z m -170.946,-9.61978 c -0.116,-0.29953 -0.12,-0.7812 0,-1.07035 0.115,-0.29467 0.01,-0.52575 -0.238,-0.52575 -0.693,0 -2.741,-2.459 -3.558,-4.27094 -0.529,-1.17325 -1.036,-1.74403 -1.773,-1.99873 -1.072,-0.37024 -1.281,-0.6703 -1.496,-2.14224 -0.09,-0.58284 -0.353,-0.87624 -0.8,-0.87624 -0.598,0 -0.659,0.22936 -0.554,2.10298 0.07,1.15664 0.344,2.4523 0.619,2.87926 0.716,1.10928 0.619,2.11569 -0.248,2.57531 -0.881,0.4676 -1.29,0.14652 -2.343,-1.83897 -1.166,-2.19993 -2.84,-3.86341 -3.636,-3.61311 -0.836,0.26314 -0.879,0.80194 -0.171,2.14805 0.696,1.32244 0.67,1.88136 -0.09,1.8748 -0.84,-0.007 -1.312,-0.35968 -1.86,-1.38996 -0.255,-0.47827 -0.835,-1.16004 -1.291,-1.51505 -0.455,-0.35501 -0.833,-0.98889 -0.839,-1.40864 -0.01,-0.92465 -0.541,-1.61348 -1.89,-2.46983 -0.834,-0.52921 -1.072,-0.55992 -1.321,-0.17042 -0.441,0.69003 -0.401,0.84325 0.509,1.9378 0.454,0.54492 0.928,1.27254 1.055,1.61694 0.127,0.34439 0.71,0.89643 1.296,1.22673 1.639,0.92427 1.324,2.52829 -0.497,2.52829 -1.028,0 -3.385,-3.00672 -3.385,-4.31883 0,-0.25626 -0.412,-0.84829 -0.916,-1.31564 l -0.915,-0.84971 -0.765,0.93875 c -0.42,0.51631 -1.182,1.04113 -1.693,1.16627 -0.771,0.18893 -1.066,0.0374 -1.735,-0.89358 -0.793,-1.10482 -0.813,-1.11084 -1.369,-0.41498 -0.672,0.83978 -1.801,1.22616 -2.434,0.83217 -0.479,-0.29871 -1.519,-1.95351 -2.361,-3.75951 -0.792,-1.69696 -1.38,-2.02668 -2.137,-1.19759 -0.352,0.38486 -0.839,0.69975 -1.083,0.69975 -0.546,0 -2.276,-1.98528 -2.276,-2.61106 0,-0.82417 -1.365,-3.5311 -2.994,-5.93952 -0.882,-1.30385 -1.703,-2.79182 -1.824,-3.30659 -0.121,-0.51477 -0.678,-1.6595 -1.237,-2.54386 -0.56,-0.88435 -1.018,-2.00431 -1.018,-2.48879 0,-1.36517 0.712,-3.19886 1.511,-3.89107 1.155,-1.00041 1.492,-0.26121 0.978,2.14044 -0.484,2.26046 -0.318,3.1892 0.857,4.79585 0.423,0.57832 1.061,1.72181 1.418,2.5411 0.356,0.81928 0.787,1.48961 0.957,1.48961 0.298,0 0.345,-0.64186 0.322,-4.38121 -0.01,-2.56638 0.555,-4.3812 1.377,-4.3812 1.042,0 1.128,0.46085 0.681,3.63161 -0.612,4.33336 0.04,5.90389 2.62,6.3435 l 1.35,0.2296 -0.07,-2.77577 c -0.04,-1.52668 0.04,-2.95526 0.174,-3.17463 0.137,-0.21937 0.143,-0.56825 0.01,-0.77529 -0.318,-0.51014 1.217,-2.07703 2.034,-2.07703 0.974,0 1.114,0.79597 0.505,2.87287 -0.299,1.02235 -0.58,2.41086 -0.624,3.08556 -0.09,1.43096 0.914,3.72806 1.851,4.22498 0.485,0.25712 0.6,0.59834 0.451,1.3364 -0.127,0.62936 0.07,1.58631 0.55,2.62181 0.704,1.53151 0.832,1.63071 2.117,1.63071 0.842,0 1.441,-0.18742 1.557,-0.48769 0.178,-0.45908 -0.05,-0.96276 -1.656,-3.74923 -0.471,-0.81348 -0.662,-1.85293 -0.667,-3.63333 -0.01,-3.08352 0.273,-4.04663 1.191,-4.04663 0.649,0 0.697,0.21977 0.636,2.94682 -0.06,2.53784 0.04,3.09725 0.713,4.03071 0.429,0.59614 0.935,1.08389 1.125,1.08389 0.19,0 0.741,0.39225 1.225,0.87167 0.847,0.83987 0.859,0.91117 0.315,1.95444 -0.517,0.98956 -0.517,1.15588 0,1.93229 0.659,0.9961 1.702,1.17681 1.364,0.23617 -0.122,-0.33735 -0.368,-0.80296 -0.549,-1.03467 -0.18,-0.23172 -0.226,-0.73947 -0.101,-1.12834 0.124,-0.38887 0.36,-1.77652 0.524,-3.08366 0.356,-2.83511 1.182,-5.17168 1.839,-5.2038 1.134,-0.0554 1.779,0.58948 1.539,1.5381 -0.13,0.51236 -0.343,1.012 -0.474,1.11032 -0.594,0.44671 -1.173,2.09085 -0.965,2.74026 0.244,0.76363 2.134,2.02263 3.573,2.38057 0.653,0.16241 0.869,0.076 0.869,-0.34763 0,-0.31005 0.216,-0.56374 0.48,-0.56374 0.279,0 0.686,-0.76739 0.975,-1.8401 0.431,-1.59572 0.614,-1.84011 1.378,-1.84011 1.059,0 1.108,0.8833 0.183,3.32657 -0.359,0.95026 -0.509,1.99206 -0.378,2.62873 0.12,0.58004 0.307,1.47377 0.417,1.98606 0.245,1.1453 2.076,3.37672 2.463,3.0006 0.155,-0.15065 0.116,-0.88623 -0.08,-1.63461 -0.551,-2.04645 0.243,-3.10681 1.439,-1.92134 0.306,0.30324 0.835,0.49866 1.175,0.43427 0.492,-0.0932 0.69,-0.70251 0.972,-2.98385 0.285,-2.3096 0.56,-3.14219 1.415,-4.28384 1.193,-1.59313 2.088,-2.03828 2.846,-1.41487 0.814,0.66925 0.622,1.20114 -1.078,2.98425 -1.957,2.05337 -2.12,3.13261 -1.028,6.81568 0.539,1.81699 1.753,3.42965 2.228,2.95845 0.118,-0.11745 0.227,-0.79172 0.243,-1.49837 0.09,-3.96423 0.05,-3.85299 1.461,-4.23964 1.049,-0.28705 1.483,-0.2478 2.166,0.19574 0.521,0.33812 0.941,0.42066 1.075,0.21135 0.122,-0.18888 0.758,-0.45886 1.414,-0.59993 l 1.192,-0.25651 -0.147,1.25121 c -0.128,1.08487 -0.02,1.30178 0.779,1.63163 1.508,0.61906 2.751,5.60352 1.397,5.60352 -0.21,0 -0.631,-0.59146 -0.935,-1.31436 -0.304,-0.7229 -0.669,-1.39323 -0.813,-1.48961 -0.144,-0.0964 -0.46,-0.54853 -0.702,-1.00476 -0.41,-0.77156 -0.482,-0.78901 -1.026,-0.24987 -0.392,0.38919 -0.576,1.14027 -0.559,2.28603 0.02,1.39467 0.303,2.12885 1.545,4.01889 1.255,1.90815 1.444,2.40421 1.081,2.83705 -0.241,0.28851 -0.859,0.52457 -1.373,0.52457 -0.629,0 -1.047,0.25726 -1.283,0.78861 -0.431,0.97413 -2.44,1.30569 -2.768,0.45699 z m 0,-8.43524 c 0.212,-0.54597 -0.427,-1.57277 -0.978,-1.57277 -0.171,0 -0.31,0.47317 -0.31,1.05149 0,1.13061 0.91,1.49877 1.288,0.52128 z m -15.748,-1.83564 c 0.1,-1.44931 -0.139,-2.07124 -1.126,-2.97922 -1.199,-1.10216 -1.582,-1.1879 -1.879,-0.4202 -0.135,0.34849 0.302,1.042 1.218,1.93172 0.786,0.76342 1.332,1.54397 1.213,1.73456 -0.119,0.19058 -0.05,0.34651 0.158,0.34651 0.206,0 0.393,-0.27602 0.416,-0.61337 z m -14.542,-1.90013 c 0,-0.65893 -1.113,-1.69246 -1.823,-1.69246 -0.359,0 -0.648,0.1183 -0.641,0.26288 0.04,1.03419 2.464,2.4381 2.464,1.42958 z m -2.476,-3.97068 c 0,-0.28916 -0.229,-0.52575 -0.509,-0.52575 -0.591,0 -0.99,0.50026 -0.66,0.82736 0.423,0.4189 1.169,0.22632 1.169,-0.30161 z m -5.073,-1.03637 c -0.115,-0.29748 -0.374,-0.54086 -0.574,-0.54086 -0.519,0 -0.454,0.96161 0.08,1.14954 0.601,0.21265 0.746,0.0348 0.497,-0.60868 z m 3.595,-2.03047 c -0.09,-0.63347 -0.374,-0.81002 -1.439,-0.8974 -0.73,-0.0598 -1.327,0.0472 -1.327,0.23784 0,0.64496 1.107,1.44817 1.995,1.44817 0.714,0 0.862,-0.15135 0.771,-0.78861 z m 73.275,10.99592 c 0,-1.36478 0.758,-1.89767 2.469,-1.73596 0.782,0.0739 1.421,0.003 1.421,-0.15849 0,-0.16105 0.161,-0.19459 0.357,-0.0745 0.196,0.12005 0.577,-4.5e-4 0.846,-0.26778 0.27,-0.26733 1.582,-0.75461 2.916,-1.08285 1.333,-0.32824 4.175,-1.06915 6.315,-1.64647 2.139,-0.57732 4.238,-1.04643 4.663,-1.04247 0.425,0.004 1.221,-0.17071 1.768,-0.38814 2.559,-1.0159 5.531,-1.07894 5.9,-0.12514 0.394,1.01618 -0.706,1.5871 -4.374,2.27064 -2.042,0.38065 -4.27,0.84238 -4.951,1.02607 -1.21,0.32652 -1.829,0.47218 -6.897,1.62429 -1.361,0.30955 -2.977,0.78671 -3.59,1.06036 -1.438,0.64211 -2.245,0.63197 -2.245,-0.0282 0,-0.83685 -0.503,-0.61316 -1.182,0.52574 -0.528,0.88556 -0.847,1.05149 -2.022,1.05149 -1.3,0 -1.394,-0.068 -1.394,-1.00857 z m -26.323,-19.90456 c -0.29,-0.74819 0.217,-1.25527 0.969,-0.96933 0.452,0.17179 0.502,0.37185 0.224,0.88773 -0.444,0.82142 -0.894,0.85225 -1.193,0.0816 z"
       id="path1" /></g></svg>
