<?xml version="1.0" encoding="UTF-8" standalone="no"?>
<!-- Created with Inkscape (http://www.inkscape.org/) -->

<svg
   width="231.38646"
   height="235.24007"
   viewBox="0 0 61.221 62.240601"
   version="1.1"
   id="svg1"
   xml:space="preserve"
   xmlns="http://www.w3.org/2000/svg"
   xmlns:svg="http://www.w3.org/2000/svg"><defs
     id="defs1" /><g
     id="g2047"
     transform="matrix(0.26458333,0,0,0.26458333,-5299.2671,-10.12824)"><g
       id="g2172"
       transform="translate(-1628.2271,-11.933338)"><path
         style="fill:#000000"
         d="m 21788.671,250.31108 c -0.565,-0.14989 -0.64,-0.40569 -0.345,-1.18656 0.207,-0.54751 0.261,-1.1112 0.121,-1.25266 -0.434,-0.4364 -1.876,-0.28343 -1.598,0.16945 0.417,0.68001 -0.203,0.49617 -1.326,-0.39314 -1.03,-0.81545 -1.031,-0.8213 -0.134,-1.10772 0.661,-0.21126 0.839,-0.52674 0.668,-1.18455 -0.128,-0.49314 -0.04,-1.13431 0.203,-1.42484 0.274,-0.33231 0.292,-0.81525 0.05,-1.30211 -0.213,-0.42564 -0.317,-1.34985 -0.231,-2.0538 0.09,-0.70396 0.195,-2.14386 0.241,-3.19979 0.05,-1.05593 0.281,-2.06092 0.52,-2.23332 0.285,-0.20507 0.287,-0.3157 0,-0.31998 -0.25,-0.004 -0.436,-1.49746 -0.451,-3.60891 -0.01,-1.98131 0.105,-3.5226 0.261,-3.42509 0.157,0.0975 0.21,-0.50947 0.118,-1.34884 -0.09,-0.83937 0.02,-1.75835 0.259,-2.04217 0.321,-0.38919 -0.06,-0.54132 -1.548,-0.61884 -2.193,-0.11423 -2.797,-0.34694 -2.434,-0.93803 0.135,-0.21844 0.04,-0.39716 -0.22,-0.39716 -0.298,0 -0.333,-0.26606 -0.1,-0.74661 0.201,-0.41064 0.298,-1.48888 0.215,-2.39608 -0.08,-0.92488 0.09,-1.94478 0.391,-2.32175 0.359,-0.44558 0.372,-0.57039 0.04,-0.37011 -0.276,0.1662 -0.621,0.10706 -0.767,-0.13142 -0.147,-0.23848 -0.09,-0.4336 0.138,-0.4336 0.222,0 0.386,-1.10795 0.364,-2.46212 -0.02,-1.35417 0.104,-2.69808 0.281,-2.98647 0.177,-0.28839 0.147,-0.52434 -0.07,-0.52434 -0.214,0 -0.295,-0.50039 -0.179,-1.11198 0.13,-0.68261 -0.02,-1.25667 -0.377,-1.4867 -0.323,-0.2061 -0.39,-0.37767 -0.148,-0.38126 0.242,-0.004 0.469,-0.39051 0.504,-0.85981 0.03,-0.4693 -0.139,-0.85327 -0.386,-0.85327 -0.289,0 -0.307,-0.19067 -0.05,-0.5333 0.218,-0.29332 0.385,-1.63698 0.37,-2.98592 -0.02,-1.3646 0.16,-2.45576 0.396,-2.4597 0.233,-0.004 0.165,-0.17213 -0.151,-0.37386 -0.402,-0.25638 -0.434,-0.45482 -0.105,-0.65932 0.707,-0.43957 -0.236,-1.94731 -1.217,-1.94731 -0.445,0 -0.915,-0.17396 -1.046,-0.38658 -0.13,-0.21262 -0.666,-0.29196 -1.191,-0.17631 -0.722,0.15941 -0.808,0.10706 -0.352,-0.21643 0.452,-0.32021 0.107,-0.50144 -1.383,-0.72619 -1.091,-0.16472 -2.09,-0.47246 -2.22,-0.68387 -0.13,-0.2114 -0.41,-0.27636 -0.622,-0.14436 -0.212,0.13201 -0.761,0.0378 -1.22,-0.20926 -0.459,-0.2471 -1.369,-0.48279 -2.023,-0.52375 -0.653,-0.041 -1.38,-0.21614 -1.614,-0.38929 -0.235,-0.17315 -1.665,-0.35854 -3.18,-0.41198 -1.514,-0.0534 -2.944,-0.20998 -3.177,-0.34788 -0.495,-0.29266 -0.76,-0.35161 -1.908,-0.42379 -0.466,-0.0293 -1.194,-0.4013 -1.616,-0.82661 -0.423,-0.4253 -1.022,-0.68838 -1.331,-0.58461 -0.335,0.11247 -0.443,-0.006 -0.267,-0.29331 0.212,-0.3448 -0.948,-0.501 -4.074,-0.54877 -2.404,-0.0367 -4.847,-0.114 -5.43,-0.17171 -0.583,-0.0577 -2.449,-0.15077 -4.146,-0.20679 -2.192,-0.0723 -3.187,-0.28344 -3.435,-0.72826 -0.29,-0.52289 -0.398,-0.49536 -0.65,0.1666 -0.473,1.23971 -0.806,3.96873 -0.825,6.76656 -0.01,1.4079 -0.218,2.70088 -0.462,2.87327 -0.283,0.19902 -0.233,0.31583 0.137,0.31998 0.394,0.004 0.454,0.17871 0.185,0.53983 -0.403,0.5425 -0.369,2.22659 0.104,5.13773 0.152,0.93454 0.07,1.85218 -0.195,2.17245 -0.251,0.30496 -0.315,0.69765 -0.143,0.87263 0.428,0.43325 0.402,6.63982 -0.03,6.64152 -0.189,7.4e-4 -0.233,0.18007 -0.1,0.39851 0.134,0.21843 0.06,0.51321 -0.171,0.65506 -0.268,0.16688 -0.259,0.66664 0.03,1.41605 0.243,0.63699 0.541,3.27001 0.664,5.85117 0.122,2.58116 0.263,5.17299 0.311,5.75962 0.05,0.58663 -0.07,1.40257 -0.27,1.81321 -0.202,0.41982 -0.195,0.74662 0.02,0.74662 0.205,0 0.329,0.67386 0.274,1.49747 -0.06,0.82361 0.06,1.59559 0.251,1.71552 0.193,0.11993 0.278,0.59799 0.189,1.06236 -0.09,0.46437 -0.01,0.84431 0.173,0.84431 0.183,0 0.308,0.52796 0.277,1.17325 -0.04,0.76458 -0.384,1.31995 -0.995,1.5944 -0.515,0.23163 -0.937,0.57236 -0.937,0.75718 0,0.18482 -0.473,0.51712 -1.052,0.73845 -0.606,0.23187 -0.961,0.63942 -0.838,0.96162 0.117,0.30756 -0.03,0.89514 -0.33,1.30574 -0.599,0.82442 -2.569,1.18178 -2.805,0.50889 -0.08,-0.23465 -0.394,-0.90661 -0.693,-1.49324 -0.347,-0.68319 -0.466,-1.98676 -0.33,-3.62642 0.308,-3.70632 0.01,-12.53312 -0.556,-16.63889 -0.162,-1.17326 -0.33,-3.19903 -0.372,-4.50172 -0.04,-1.30269 -0.219,-2.5986 -0.391,-2.87981 -0.173,-0.2812 -0.16,-0.51125 0.03,-0.51121 0.188,3e-5 0.362,-2.25581 0.385,-5.013 0.02,-2.75719 0.07,-5.96472 0.1,-7.12785 0.03,-1.16313 -0.09,-2.21906 -0.267,-2.34651 -0.359,-0.26106 -0.326,-2.04826 0.04,-2.42229 0.134,-0.13402 0.07,-0.70391 -0.144,-1.26641 -0.277,-0.73375 -0.239,-1.02457 0.133,-1.02926 0.324,-0.004 0.36,-0.12465 0.1,-0.31998 -0.495,-0.36603 -0.582,-13.70033 -0.09,-14.46968 0.176,-0.2771 0.14,-0.6155 -0.08,-0.75201 -0.465,-0.2891 -0.373,-6.17497 0.109,-6.95928 0.179,-0.29204 0.164,-0.53098 -0.03,-0.53098 -0.563,0 -0.555,-1.81128 0.01,-2.5154 0.361,-0.44981 0.366,-0.54831 0.02,-0.33794 -0.346,0.2089 -0.534,-0.4627 -0.635,-2.26539 -0.08,-1.40927 -0.05,-2.56184 0.07,-2.56127 0.116,5.7e-4 0.15,-1.48698 0.08,-3.30567 -0.331,-7.98443 -0.269,-14.61286 0.137,-14.61913 0.233,-0.004 0.138,-0.19266 -0.212,-0.42013 -0.35,-0.22746 -0.443,-0.41651 -0.207,-0.4201 0.238,-0.004 0.427,-1.05341 0.424,-2.35302 0,-1.29056 -0.134,-2.34649 -0.291,-2.34651 -0.157,-1e-5 -0.19,-0.71998 -0.07,-1.59992 0.117,-0.87994 0.268,-2.03653 0.335,-2.5702 0.07,-0.53368 -0.04,-1.07005 -0.235,-1.19194 -0.196,-0.1219 -0.291,-0.78308 -0.212,-1.4693 0.08,-0.68621 0.04,-1.35295 -0.09,-1.48164 -0.128,-0.12869 -0.285,-2.19866 -0.348,-4.59993 -0.165,-6.2046 -0.441,-9.98553 -0.768,-10.51869 -0.156,-0.25308 -0.07,-0.46014 0.191,-0.46014 0.261,0 0.376,-0.16015 0.255,-0.35589 -0.507,-0.82592 -0.648,-3.08713 -0.307,-4.92483 0.208,-1.11746 0.206,-1.97213 0,-1.97213 -0.522,0 -0.46,-1.59965 0.08,-1.93268 0.308,-0.19155 0.309,-0.44068 0,-0.81105 -0.242,-0.29401 -0.315,-0.66089 -0.162,-0.81529 0.154,-0.1544 0.02,-0.28073 -0.3,-0.28073 -0.428,0 -0.455,-0.12488 -0.104,-0.47862 0.262,-0.26325 0.375,-0.74321 0.252,-1.0666 -0.124,-0.32338 -0.01,-0.58797 0.245,-0.58797 0.258,0 0.421,-0.23542 0.363,-0.52317 -0.06,-0.28774 0.357,-0.59352 0.923,-0.6795 0.566,-0.086 1.424,-0.41156 1.907,-0.7235 0.484,-0.31194 1.786,-0.699918 2.893,-0.862172 1.108,-0.162253 2.014,-0.465195 2.014,-0.673203 0,-0.208008 0.309,-0.378196 0.688,-0.378196 0.592,0 0.607,-0.09966 0.106,-0.719837 -0.509,-0.628992 -0.49,-0.685186 0.146,-0.445271 0.401,0.151011 0.841,0.09096 0.979,-0.133439 0.138,-0.224403 0.987,-0.408006 1.887,-0.408006 2.083,0 2.977,-0.34907 2.977,-1.162 0,-0.434024 0.277,-0.571301 0.848,-0.420934 0.572,0.150546 0.848,0.01309 0.848,-0.422525 0,-0.381882 0.245,-0.550869 0.601,-0.413635 0.33,0.127614 0.69,-0.0031 0.8,-0.290554 0.109,-0.287419 0.936,-0.57168 1.837,-0.631691 0.9,-0.06001 1.701,-0.292695 1.779,-0.517076 0.08,-0.224382 0.333,-0.407966 0.569,-0.407966 0.235,0 0.912,-0.383975 1.505,-0.853277 0.593,-0.469302 1.7,-0.853276 2.459,-0.853276 0.858,0 1.478,-0.251187 1.634,-0.662116 0.166,-0.435835 0.07,-0.570828 -0.272,-0.395 -0.289,0.146914 -0.155,-0.0351 0.298,-0.404479 0.452,-0.369378 1.215,-0.700838 1.695,-0.736579 0.48,-0.03574 1.064,-0.09546 1.297,-0.132705 0.233,-0.03725 1.518,-0.213428 2.855,-0.391514 1.337,-0.178086 2.559,-0.532007 2.715,-0.786491 0.17,-0.276018 0.09,-0.339878 -0.205,-0.158281 -0.293,0.182196 -0.49,0.02726 -0.49,-0.385898 0,-0.379673 0.168,-0.586072 0.373,-0.458665 0.415,0.258136 2.864,-0.86432 3.248,-1.488223 0.135,-0.219792 0.699,-0.399622 1.255,-0.399622 0.555,0 1.128,-0.191987 1.272,-0.426638 0.144,-0.234651 0.489,-0.423698 0.767,-0.420105 0.303,0.0039 0.251,0.171605 -0.131,0.420105 -0.35,0.227465 -0.421,0.416512 -0.158,0.420105 0.263,0.0036 0.716,-0.282379 1.007,-0.635495 0.396,-0.479675 1.162,-0.598478 3.031,-0.469808 3.221,0.221839 3.735,0.66563 3.541,3.060233 -0.09,1.135064 0.03,1.891347 0.292,1.891347 0.295,0 0.305,0.17969 0.03,0.533298 -0.248,0.318119 -0.351,3.287573 -0.256,7.359508 0.09,3.754421 0.158,7.498171 0.156,8.319441 -0.02,8.43446 0.245,15.9313 0.643,18.13213 0.199,1.0986 0.283,4.27603 0.138,5.23797 -0.02,0.16958 0,0.40432 0.04,0.52164 0.249,0.59558 0.236,7.64692 -0.01,8.81481 -0.209,0.96657 -0.1,1.54068 0.383,2.02653 0.37,0.37284 0.489,0.67802 0.264,0.67816 -0.225,1.5e-4 -0.414,0.67211 -0.422,1.49324 0,0.82113 0.09,1.49296 0.225,1.49296 0.13,0 0.22,1.06696 0.199,2.37102 -0.02,1.30407 0.102,2.45874 0.275,2.56595 0.172,0.1072 0.256,1.0561 0.186,2.10867 -0.08,1.20622 0.05,1.91387 0.349,1.91406 0.261,1.7e-4 0.504,0.4926 0.538,1.0943 0.03,0.60169 0.144,1.17541 0.243,1.27493 0.1,0.0995 2.074,0.37826 4.388,0.61942 2.315,0.24116 4.259,0.58461 4.319,0.76322 0.06,0.17861 0.871,0.28191 1.802,0.22957 0.93,-0.0523 1.692,0.0733 1.692,0.2793 0,0.20597 0.406,0.5044 0.904,0.66319 0.71,0.2268 0.778,0.3688 0.318,0.66218 -0.384,0.24434 0.147,0.38609 1.533,0.40998 2.522,0.0434 3.816,0.48324 3.816,1.29683 0,0.40599 0.806,0.69696 2.544,0.91821 1.399,0.17813 3.344,0.42961 4.324,0.55885 1.246,0.16447 1.857,0.47758 2.035,1.04355 0.167,0.52936 0.491,0.7174 0.939,0.54453 0.455,-0.17586 0.581,-0.0973 0.377,0.23509 -0.168,0.27453 -0.152,0.51383 0.04,0.53179 0.188,0.018 0.724,0.11269 1.19,0.21054 0.467,0.0978 2.184,0.29238 3.816,0.43232 1.632,0.13993 3.349,0.3189 3.815,0.39771 0.467,0.0788 1.146,0.15756 1.509,0.175 0.364,0.0174 1.031,0.33535 1.484,0.70649 0.735,0.60277 0.741,0.64882 0.06,0.43152 -0.447,-0.14221 -0.656,-0.0681 -0.505,0.17849 0.143,0.23196 0.452,0.42175 0.688,0.42175 0.98,0 1.457,1.16384 1.371,3.3446 -0.05,1.2529 -0.197,2.38716 -0.33,2.52058 -0.132,0.13341 -0.01,0.5188 0.266,0.85641 0.399,0.48408 0.37,0.69009 -0.135,0.97455 -0.525,0.29564 -0.634,1.40399 -0.607,6.14496 0.02,3.18134 -0.08,5.78426 -0.215,5.78426 -0.324,0 -0.132,3.67548 0.222,4.25162 0.149,0.24277 0.07,0.4414 -0.178,0.4414 -0.282,0 -0.449,1.39641 -0.449,3.75441 0,2.35126 -0.19,3.94576 -0.509,4.26639 -0.298,0.30007 -0.329,0.51196 -0.08,0.51196 0.239,0 0.438,0.91194 0.443,2.02653 0,1.1146 0.05,3.17846 0.109,4.58636 0.06,1.40791 0.06,2.65583 0.01,2.77315 -0.05,0.11733 -0.147,2.13319 -0.217,4.4797 -0.07,2.34651 -0.161,4.36238 -0.203,4.4797 -0.187,0.53226 -0.173,5.11915 0.02,5.11938 0.117,1.5e-4 0.198,1.1042 0.18,2.45345 -0.02,1.34924 0.139,2.68181 0.349,2.96126 0.494,0.65888 -1.67,1.08927 -4.558,0.90617 l -2.118,-0.13434 0.07,-5.11966 c 0.04,-2.81581 0.07,-6.84754 0.07,-8.9594 0,-2.11186 0,-4.21781 0.02,-4.67988 0.01,-0.46207 -0.211,-0.9871 -0.491,-1.16672 -0.324,-0.20708 -0.342,-0.32898 -0.05,-0.33312 0.476,-0.007 0.654,-3.72453 0.55,-11.52577 -0.185,-13.95562 -0.237,-16.88518 -0.302,-17.16681 -0.04,-0.17302 -1.147,0.16295 -2.459,0.74662 -1.311,0.58367 -2.742,1.06122 -3.179,1.06122 -0.437,0 -0.748,0.1507 -0.689,0.33489 0.227,0.71864 -2.96,3.37061 -4.736,3.94101 -1.224,0.39291 -2.107,1.01008 -2.544,1.77824 -0.409,0.71861 -1.164,1.27622 -1.941,1.43276 -2.344,0.47233 -2.677,0.64765 -2.573,1.35672 0.114,0.7858 -1.93,1.99571 -4.601,2.72228 -1.282,0.34871 -1.525,0.54922 -1.06,0.87527 0.458,0.32145 0.477,0.47458 0.08,0.63819 -0.327,0.13373 -0.401,0.48498 -0.195,0.92745 0.182,0.39171 0.323,2.29545 0.314,4.23053 0,1.93508 0.114,3.51898 0.272,3.51977 0.159,7.9e-4 0.125,0.57481 -0.07,1.2756 -0.2,0.70078 -0.228,1.35838 -0.06,1.46131 0.246,0.15282 0.304,11.04935 0.06,11.77022 -0.04,0.11733 -0.05,1.07726 -0.03,2.13319 0.06,2.56342 -0.189,7.46617 -0.382,7.46617 -0.266,0 -0.162,4.60374 0.109,4.77179 0.186,0.11578 0.121,0.47384 -0.145,0.79569 -0.265,0.32184 -0.459,1.50467 -0.43,2.6285 0.03,1.12384 0.06,2.52331 0.08,3.10993 0.01,0.58663 -0.06,1.78655 -0.168,2.66649 -0.14,1.17551 -0.03,1.5999 0.4,1.5999 1.178,0 1.049,1.24834 -0.262,2.53783 -0.728,0.71605 -1.487,1.30191 -1.686,1.30191 -0.2,0 -0.493,0.51659 -0.65,1.14798 -0.218,0.87517 -1.853,2.93537 -2.096,2.64227 -0.02,-0.0272 -0.366,-0.13548 -0.763,-0.24057 z m 0.233,-5.48408 c -0.119,-0.31435 -0.499,-0.46291 -0.843,-0.33012 -0.344,0.13279 -0.519,0.52035 -0.389,0.86123 0.13,0.34089 0.243,0.84408 0.25,1.1182 0,0.27413 0.281,0.14377 0.607,-0.28968 0.326,-0.43344 0.495,-1.04528 0.375,-1.35963 z m 2.595,0.15755 c -0.08,-0.43064 0.04,-0.78298 0.275,-0.78298 0.233,0 0.314,-0.17872 0.18,-0.39716 -0.134,-0.21844 -0.04,-0.52351 0.208,-0.67794 0.28,-0.17397 0.304,-0.46921 0.06,-0.77609 -0.478,-0.60999 -0.423,-3.27211 0.08,-4.06278 0.24,-0.37393 0.165,-0.71373 -0.211,-0.95341 -0.484,-0.30818 -0.475,-0.37466 0.05,-0.38547 0.437,-0.009 0.482,-0.11168 0.144,-0.32815 -0.325,-0.20798 -0.392,-0.89467 -0.198,-2.02 0.162,-0.9377 0.258,-3.19281 0.214,-5.01136 -0.04,-1.81854 0.05,-3.30697 0.198,-3.30762 0.153,-6.5e-4 0.268,-1.10458 0.256,-2.45317 -0.01,-1.3486 0.127,-2.88396 0.308,-3.41193 0.193,-0.56199 0.159,-0.95993 -0.08,-0.95993 -0.398,0 -0.336,-2.35664 0.07,-2.76787 0.196,-0.19688 0.133,-2.03587 -0.187,-5.46671 -0.08,-0.89193 0,-1.72114 0.205,-1.84269 0.195,-0.12156 0.234,-0.41762 0.09,-0.65792 -0.148,-0.2403 -0.258,-1.18697 -0.246,-2.10371 0.01,-0.91674 -0.124,-1.6668 -0.304,-1.6668 -0.179,0 -0.326,-0.28798 -0.326,-0.63996 0,-0.35198 0.137,-0.63996 0.306,-0.63996 0.169,0 0.227,-1.29591 0.13,-2.87981 -0.1,-1.58389 -0.183,-3.21578 -0.192,-3.62642 -0.02,-0.86028 -1.025,-1.00222 -1.515,-0.21332 -0.492,0.79339 -0.43,11.14338 0.07,11.5127 0.259,0.19143 0.208,0.31599 -0.131,0.31998 -0.329,0.004 -0.424,0.21903 -0.234,0.52856 0.35,0.56956 0.499,20.38198 0.153,20.38491 -0.116,9.9e-4 -0.226,2.97682 -0.243,6.61296 -0.02,4.24766 0.124,6.61116 0.403,6.61116 0.255,0 0.224,0.21142 -0.08,0.51196 -0.548,0.55114 -0.693,2.57315 -0.22,3.04977 0.422,0.42407 0.932,-0.5864 0.758,-1.49884 z m -2.551,-4.47375 c -0.07,-1.48326 0.03,-2.79643 0.226,-2.91817 0.439,-0.27293 -0.1,-2.45748 -0.652,-2.64264 -0.221,-0.074 -0.389,0.68149 -0.374,1.67875 0.01,0.99727 -0.07,2.00183 -0.192,2.23235 -0.348,0.66569 -0.361,1.94536 -0.02,2.15649 0.171,0.10614 0.162,0.85315 -0.02,1.66003 -0.299,1.3304 -0.26,1.42342 0.416,0.99853 0.609,-0.38271 0.722,-0.96244 0.616,-3.16534 z m -52.946,-2.70607 c -0.05,-1.17476 0.03,-2.13592 0.189,-2.13592 0.348,0 0.177,-3.19983 -0.204,-3.82001 -0.15,-0.24551 -0.119,-0.44641 0.07,-0.44646 0.189,-5e-5 0.397,-4.94372 0.463,-10.98593 0.157,-14.51793 0.255,-17.59791 0.557,-17.59837 0.138,-2e-4 0.234,-2.78422 0.212,-6.18669 -0.03,-3.84676 0.119,-6.19903 0.383,-6.21993 0.233,-0.0185 0.196,-0.12687 -0.08,-0.24083 -0.278,-0.11396 -0.401,-0.48277 -0.273,-0.81959 0.129,-0.33682 0.01,-0.61239 -0.26,-0.61239 -0.291,0 -0.357,-0.22032 -0.162,-0.5333 0.182,-0.29332 0.277,-0.86928 0.21,-1.27992 -0.111,-0.6793 0.378,-0.74661 5.429,-0.74661 5.311,0 5.567,0.0403 5.893,0.92622 0.238,0.64927 0.436,0.7692 0.663,0.4011 0.245,-0.39927 0.439,-0.36657 0.811,0.13644 0.269,0.36386 1.062,0.73408 1.761,0.82271 0.7,0.0886 1.558,0.26737 1.908,0.39717 0.35,0.12981 3.688,0.35004 7.419,0.48942 6.128,0.22892 6.839,0.33519 7.365,1.1 0.32,0.46563 0.951,0.8466 1.403,0.8466 0.451,0 0.703,0.19198 0.559,0.42663 -0.144,0.23465 -0.01,0.44029 0.293,0.45696 1.106,0.0605 7.79,0.79643 8.886,0.97846 1.609,0.26744 2.911,0.67281 4.537,1.41269 1.023,0.46556 1.551,0.51709 1.883,0.18371 0.647,-0.65126 0.744,-1.75062 0.155,-1.75844 -0.306,-0.004 -0.271,-0.14741 0.09,-0.37893 0.75,-0.47795 0.242,-1.32108 -0.797,-1.32108 -0.552,0 -0.751,-0.24638 -0.645,-0.80005 0.126,-0.65959 -0.186,-0.84685 -1.779,-1.0666 -1.063,-0.1466 -2.962,-0.26655 -4.22,-0.26655 -1.464,0 -2.696,-0.26887 -3.422,-0.74661 -0.624,-0.41064 -0.988,-0.50664 -0.808,-0.21332 0.182,0.29781 0.128,0.5333 -0.123,0.5333 -0.246,0 -0.448,-0.37265 -0.448,-0.8281 0,-0.96509 -0.929,-1.70071 -1.183,-0.93619 -0.133,0.40149 -0.31,0.40494 -0.776,0.0152 -0.333,-0.27766 -3.319,-0.76008 -6.636,-1.07204 -6.749,-0.63463 -8.076,-0.87684 -7.747,-1.41301 0.267,-0.43549 -0.955,-0.98872 -1.473,-0.66658 -0.196,0.12192 -0.476,0.0265 -0.623,-0.21193 -0.146,-0.23848 -0.694,-0.4336 -1.216,-0.4336 -0.523,0 -1.132,-0.17905 -1.353,-0.3979 -0.222,-0.21884 -1.714,-0.45547 -3.316,-0.52583 -1.852,-0.0814 -2.987,-0.32389 -3.118,-0.66624 -0.112,-0.29608 -0.375,-0.43231 -0.584,-0.30274 -0.208,0.12958 -0.803,-0.0635 -1.321,-0.42908 -0.519,-0.36557 -1.771,-0.66468 -2.782,-0.66468 -1.117,0 -1.736,-0.16726 -1.576,-0.42664 0.144,-0.23465 -0.131,-0.42663 -0.611,-0.42663 -0.48,0 -0.873,-0.19362 -0.873,-0.43026 0,-0.2611 -0.32,-0.22926 -0.814,0.081 -0.633,0.39845 -0.951,0.39616 -1.438,-0.0104 -0.773,-0.6458 -1.216,-2.2002 -0.627,-2.2002 0.239,0 0.334,-0.38398 0.212,-0.85328 -0.122,-0.4693 -0.04,-0.85328 0.178,-0.85328 0.238,0 0.224,-0.32832 -0.03,-0.81304 -0.238,-0.44718 -0.438,-1.83908 -0.444,-3.09313 -0.01,-2.35568 -0.293,-6.9731 -0.425,-6.9731 -0.102,0 -0.475,-4.48444 -0.462,-5.5463 0,-0.4693 0,-1.71721 -0.03,-2.77314 -0.05,-2.39917 0.06,-5.90314 0.277,-8.95941 0.145,-2.00152 0.191,-3.98197 0.204,-8.74608 0,-0.4693 -0.02,-2.58116 -0.06,-4.69302 -0.03,-2.11186 -0.02,-5.34405 0.03,-7.18266 0.05,-1.8386 -0.09,-3.56648 -0.31,-3.83974 -0.217,-0.27326 -0.358,-2.12872 -0.312,-4.12325 0.05,-1.99454 -0.08,-3.96241 -0.278,-4.37305 -0.205,-0.42525 -0.197,-0.74661 0.02,-0.74661 0.209,0 0.289,-0.47997 0.177,-1.0666 -0.157,-0.82817 -0.03,-1.06805 0.589,-1.07313 0.594,-0.005 0.65,-0.0964 0.227,-0.36638 -0.345,-0.22022 -0.592,-1.30041 -0.636,-2.78359 -0.06,-2.12744 -0.188,-2.45339 -1.025,-2.66633 -0.525,-0.13343 -0.985,-0.46177 -1.023,-0.72965 -0.04,-0.26787 -0.184,0.56889 -0.324,1.85947 -0.139,1.29058 -0.122,2.87447 0.04,3.51976 0.161,0.64529 0.138,1.17326 -0.05,1.17326 -0.385,0 -0.05,5.6365 0.36,5.97293 0.242,0.20087 0.266,1.23766 0.04,1.70655 -0.294,0.60696 -0.282,2.40114 0.02,2.77505 0.258,0.32253 0.812,8.80192 0.892,13.65052 0,0.23465 -0.107,0.95461 -0.245,1.5999 -0.139,0.64529 -0.105,1.17326 0.07,1.17326 0.18,1e-5 0.327,1.15194 0.327,2.55984 0,1.4079 -0.1,2.55981 -0.212,2.5598 -0.416,-4e-5 0.165,43.60415 0.59,44.29656 0.169,0.27525 0.165,0.73322 -0.01,1.0177 -0.175,0.28448 -0.263,2.63632 -0.196,5.22631 0.07,2.59 0.151,6.77295 0.185,9.29545 0.03,2.52249 0.203,4.58636 0.373,4.58636 0.17,0 0.164,0.43197 -0.01,0.95993 -0.344,1.02761 -0.27,8.42592 0.135,13.33245 0.675,8.1878 0.743,10.54362 0.434,15.11262 -0.188,2.77688 -0.03,3.63653 0.607,3.24251 0.192,-0.11965 0.307,-1.17872 0.254,-2.35347 z m 3,-1.06933 c -0.135,-0.35197 -0.04,-0.63996 0.218,-0.63996 0.318,0 0.327,-0.1672 0.03,-0.53329 -0.237,-0.29332 -0.373,-1.63723 -0.303,-2.98647 0.07,-1.34924 -0.03,-2.45317 -0.225,-2.45317 -0.195,0 -0.429,-0.33598 -0.521,-0.74662 -0.09,-0.41064 -0.181,0.88528 -0.198,2.87981 -0.02,1.99453 -0.07,3.81841 -0.127,4.05306 -0.175,0.7904 0,1.0666 0.687,1.0666 0.432,0 0.592,-0.23472 0.438,-0.63996 z m 50.036,-2.87981 c 0.5,-0.80577 0.542,-1.59989 0.08,-1.59989 -0.249,0 -0.26,-0.26535 -0.03,-0.68361 0.209,-0.37599 0.234,-1.47991 0.06,-2.45317 -0.179,-0.97326 -0.198,-1.81739 -0.04,-1.87585 0.441,-0.16531 0.231,-4.10655 -0.227,-4.26038 -0.225,-0.0752 -0.433,0.49256 -0.464,1.26169 -0.203,5.04105 -0.156,8.40411 0.123,8.85907 0.184,0.29948 0.07,0.68857 -0.26,0.89997 -0.384,0.24484 -0.411,0.37464 -0.08,0.37894 0.277,0.004 0.654,-0.23345 0.836,-0.52677 z m -49.459,-4.34786 c 0,-0.10348 -0.191,-0.30679 -0.424,-0.45182 -0.233,-0.14502 -0.424,-0.0603 -0.424,0.18814 0,0.2485 0.191,0.45182 0.424,0.45182 0.233,0 0.424,-0.0847 0.424,-0.18814 z m 80.974,-2.95941 c 0,-0.0886 -0.334,-0.42457 -0.742,-0.74661 -0.673,-0.53068 -0.688,-0.51559 -0.16,0.16108 0.553,0.71067 0.902,0.93667 0.902,0.58553 z m 2.119,-1.11883 c -0.565,-0.36762 -0.565,-0.41502 0,-0.42664 0.375,-0.008 0.462,-0.14202 0.212,-0.32651 -0.233,-0.1724 -0.419,-1.62498 -0.414,-3.22796 0,-1.60298 -0.137,-3.00578 -0.316,-3.11734 -0.18,-0.11155 -0.05,-0.73933 0.286,-1.39506 0.462,-0.89775 0.493,-1.3133 0.126,-1.68234 -0.367,-0.36905 -0.335,-0.49172 0.128,-0.49664 0.522,-0.006 0.519,-0.0684 -0.02,-0.4201 -0.462,-0.30052 -0.484,-0.41536 -0.08,-0.42011 0.306,-0.004 0.447,-0.18212 0.316,-0.39673 -0.132,-0.21461 0,-0.48743 0.293,-0.60628 0.302,-0.12285 0.19,-0.2306 -0.262,-0.24975 -0.581,-0.0247 -0.678,-0.17623 -0.361,-0.56698 0.238,-0.29332 0.391,-1.53093 0.341,-2.75026 -0.05,-1.21933 0.06,-2.11994 0.256,-2.00136 0.19,0.11859 0.346,0.0236 0.346,-0.21102 0,-0.23466 -0.159,-0.52576 -0.354,-0.6469 -0.195,-0.12114 -0.329,-1.94359 -0.298,-4.04988 0.03,-2.10629 -0.109,-3.72717 -0.31,-3.60194 -0.201,0.12522 -0.26,0.33478 -0.13,0.46568 0.131,0.1309 0,0.5325 -0.289,0.89245 -0.42,0.52203 -0.419,0.58962 0,0.33405 0.563,-0.34028 0.738,0.23219 0.228,0.74548 -0.167,0.16745 -0.353,1.01539 -0.415,1.88432 -0.06,0.86893 -0.197,2.49181 -0.299,3.6064 -0.108,1.16527 -0.01,2.02653 0.228,2.02653 0.228,0 0.265,0.23998 0.08,0.5333 -0.183,0.29331 -0.276,0.88072 -0.206,1.30535 0.07,0.42463 -0.09,1.0315 -0.349,1.34859 -0.262,0.3171 -0.323,0.67129 -0.137,0.78709 0.186,0.1158 0.316,2.67673 0.288,5.69094 -0.03,3.01421 0.06,5.67237 0.205,5.90702 0.141,0.23466 0.283,0.57063 0.316,0.74662 0.03,0.17599 0.08,0.41597 0.112,0.5333 0.03,0.11732 0.292,0.21038 0.583,0.20678 0.354,-0.004 0.318,-0.14439 -0.106,-0.4201 z m -2.543,-0.85328 c 0,-0.23465 -0.08,-0.42663 -0.187,-0.42663 -0.103,0 -0.305,0.19198 -0.449,0.42663 -0.144,0.23465 -0.06,0.42664 0.187,0.42664 0.247,0 0.449,-0.19199 0.449,-0.42664 z m 0.424,-1.70655 c 0.548,-0.35641 0.536,-0.41447 -0.08,-0.4201 -0.395,-0.004 -0.835,0.18545 -0.979,0.4201 -0.332,0.53995 0.229,0.53995 1.06,0 z m -30.889,-1.70655 c -0.149,-0.11733 -0.271,-0.4853 -0.271,-0.81773 0,-0.33242 -0.199,-0.67097 -0.441,-0.75234 -0.256,-0.0856 -0.409,0.43921 -0.363,1.24436 0.1,1.78041 0.07,1.73338 0.757,1.08915 0.324,-0.30257 0.467,-0.64612 0.318,-0.76344 z m -2.772,-1.5999 c -0.15,-1.34924 -0.329,-4.3215 -0.398,-6.60502 -0.07,-2.28352 -0.248,-4.27664 -0.4,-4.42914 -0.151,-0.1525 -0.08,-0.64828 0.163,-1.10173 0.297,-0.55703 0.3,-0.99323 0.01,-1.34479 -0.243,-0.2941 -0.276,-0.77082 -0.08,-1.09646 0.195,-0.31687 0.212,-1.07838 0.04,-1.69224 -0.174,-0.61387 -0.268,-1.83607 -0.209,-2.71601 0.08,-1.1372 -0.06,-1.5999 -0.485,-1.5999 -0.326,0 -0.617,0.23999 -0.646,0.5333 -0.09,0.89621 0.08,12.81431 0.198,14.29238 0.06,0.76262 0,1.38657 -0.143,1.38657 -0.143,0 -0.295,1.24193 -0.338,2.75983 -0.04,1.5179 -0.104,2.90981 -0.134,3.09313 -0.13,0.7939 0.123,0.97325 1.37,0.97325 h 1.325 z m -47.964,0.81056 c -0.238,-0.25306 -1.045,0.3883 -1.045,0.83134 0,0.23005 0.267,0.17072 0.593,-0.13184 0.326,-0.30257 0.53,-0.61734 0.452,-0.6995 z m 81.458,-10.52892 c 0.05,-0.34519 -0.09,-0.62761 -0.32,-0.62761 -0.226,0 -0.302,-0.17872 -0.167,-0.39716 0.134,-0.21844 0.08,-0.5 -0.124,-0.6257 -0.311,-0.19332 -0.379,1.05035 -0.137,2.48054 0.09,0.54055 0.636,-0.0636 0.748,-0.83007 z m 0.167,-5.15296 c 0,-0.0922 -0.287,-0.16767 -0.636,-0.16767 -0.35,0 -0.636,0.18596 -0.636,0.41325 0,0.22728 0.286,0.30274 0.636,0.16767 0.349,-0.13507 0.636,-0.32103 0.636,-0.41325 z m 0,-1.44759 c 0,-0.4693 0.238,-0.86843 0.53,-0.88695 0.405,-0.0258 0.401,-0.0856 -0.02,-0.25481 -0.421,-0.1698 -0.433,-0.36003 -0.05,-0.8196 0.297,-0.36046 0.323,-0.59846 0.07,-0.59846 -0.541,0 -0.455,-1.38745 0.113,-1.80668 0.255,-0.1888 0.192,-0.31605 -0.158,-0.31998 -0.439,-0.005 -0.466,-0.14751 -0.11,-0.57909 0.26,-0.3149 0.332,-0.71335 0.161,-0.88544 -0.402,-0.4048 -0.414,-7.92679 -0.01,-7.92751 0.168,-2.9e-4 0.214,-0.24052 0.103,-0.53383 -0.503,-1.32516 -0.398,-6.10479 0.147,-6.67489 0.461,-0.48269 0.465,-0.65952 0.02,-0.93479 -0.324,-0.20182 -0.533,-1.12827 -0.515,-2.28452 0.03,-2.1006 -0.384,-2.47844 -1.149,-1.04025 -0.376,0.70746 -0.366,0.83319 0.05,0.57655 0.387,-0.24061 0.47,-0.0266 0.313,0.80179 -0.128,0.67224 -0.02,1.13265 0.256,1.13654 0.333,0.005 0.329,0.0986 -0.01,0.31997 -0.267,0.1724 -0.477,0.88941 -0.466,1.59336 0.01,0.70396 -0.08,2.04787 -0.2,2.98647 -0.122,0.93861 -0.09,2.07247 0.07,2.51971 0.16,0.44724 0.158,1.69515 0,2.77315 -0.163,1.07799 -0.115,3.28399 0.108,4.90222 0.222,1.61823 0.247,3.05813 0.06,3.19979 -0.5,0.36931 -0.431,3.88391 0.08,3.89106 0.233,0.003 0.137,0.19209 -0.212,0.41956 -0.462,0.30052 -0.485,0.41535 -0.08,0.4201 0.305,0.004 0.437,0.19852 0.293,0.43317 -0.144,0.23465 -0.06,0.42664 0.187,0.42664 0.247,0 0.449,-0.38397 0.449,-0.85328 z m 2.543,-7.25284 c 0,-0.23466 -0.202,-0.42664 -0.449,-0.42664 -0.247,0 -0.331,0.19198 -0.187,0.42664 0.144,0.23465 0.347,0.42663 0.449,0.42663 0.103,0 0.187,-0.19198 0.187,-0.42663 z m -32.083,-2.00647 c 0.425,-0.539 1.039,-0.98 1.364,-0.98 0.809,0 3.574,-1.35666 3.64,-1.78557 0.125,-0.82391 0.189,-1.01575 0.508,-1.52088 0.185,-0.29331 1.082,-0.5333 1.992,-0.5333 1.288,0 1.767,-0.21355 2.153,-0.95993 0.834,-1.6129 1.854,-2.34032 3.731,-2.65936 0.987,-0.16784 1.702,-0.3981 1.589,-0.51168 -0.217,-0.21824 1.249,-1.84196 1.663,-1.84196 0.133,0 0.528,-0.28798 0.878,-0.63996 0.349,-0.35197 0.479,-0.64114 0.287,-0.64258 -0.641,-0.005 2.175,-1.3614 3.892,-1.87445 0.932,-0.27883 1.712,-0.6905 1.732,-0.91483 0.114,-1.27435 0.844,-1.93189 2.447,-2.20526 0.966,-0.16463 1.947,-0.24354 2.18,-0.17536 0.233,0.0682 0.297,-0.004 0.141,-0.16045 -0.155,-0.15644 0.09,-0.65941 0.546,-1.11771 0.455,-0.45831 0.714,-1.01827 0.575,-1.24436 -0.142,-0.23128 0.347,-0.41108 1.117,-0.41108 1.436,0 2.92,-1.00939 2.92,-1.986 0,-0.3156 0.239,-0.57677 0.53,-0.58036 0.384,-0.005 0.369,-0.10926 -0.05,-0.37894 -0.322,-0.20482 -0.462,-0.57259 -0.311,-0.81726 0.399,-0.65094 -0.532,-1.08214 -1.176,-0.54425 -0.303,0.25281 -0.649,0.3607 -0.769,0.23974 -0.12,-0.12097 -0.46,0.0727 -0.755,0.43033 -0.295,0.35765 -0.895,0.65027 -1.332,0.65027 -0.52,0 -0.796,0.30345 -0.796,0.87505 0,1.11612 -2.256,2.11142 -4.786,2.11142 -1.439,0 -2.047,0.23436 -2.766,1.0666 -0.507,0.58662 -0.78,1.06953 -0.606,1.07312 1.031,0.0214 -1.2,0.83486 -2.305,0.84021 -1.32,0.006 -2.68,0.91391 -2.68,1.78921 0,0.24299 -0.284,0.33218 -0.63,0.1982 -0.351,-0.13537 -0.586,-0.0278 -0.53,0.24203 0.06,0.2671 -0.7,0.65349 -1.679,0.85864 -1.188,0.24892 -1.867,0.64998 -2.043,1.20556 -0.161,0.51124 -0.643,0.83256 -1.248,0.83256 -0.542,0 -1.096,0.28798 -1.23,0.63995 -0.134,0.35198 -0.643,0.63996 -1.13,0.63996 -0.488,0 -0.786,0.1637 -0.663,0.36378 0.456,0.74271 -0.878,1.65412 -3.141,2.14625 -1.994,0.43354 -2.424,0.70571 -2.968,1.8783 -0.349,0.75421 -1.017,1.43052 -1.484,1.50292 -1.783,0.27688 -1.97,0.4471 -1.487,1.35527 0.28,0.52642 0.298,0.85961 0.04,0.85961 -0.227,0 -0.384,0.38397 -0.349,0.85327 0.03,0.4693 0.226,0.85328 0.423,0.85328 0.197,0 0.243,0.18802 0.102,0.41782 -0.141,0.2298 -0.05,0.81114 0.208,1.29186 0.514,0.96623 1.056,0.79077 2.255,-0.72968 z m 31.961,-0.55294 c -0.122,-0.46907 -0.04,-0.96845 0.191,-1.10975 0.227,-0.14129 0.311,-0.52546 0.185,-0.8537 -0.125,-0.32824 -0.03,-0.5968 0.209,-0.5968 0.239,0 0.301,-0.2181 0.138,-0.48466 -0.164,-0.26656 -0.318,-0.87461 -0.343,-1.35123 -0.02,-0.47662 -0.237,-0.93043 -0.47,-1.00846 -0.258,-0.0864 -0.403,0.98477 -0.37,2.73781 0.06,3.39124 0.08,3.51964 0.42,3.51964 0.144,0 0.161,-0.38378 0.04,-0.85285 z m -35.719,-4.7219 c -0.104,-0.16982 0.116,-0.4265 0.488,-0.57039 0.373,-0.14389 0.578,-0.52409 0.455,-0.84489 -0.253,-0.66446 1.009,-1.34895 3.277,-1.77707 0.841,-0.15893 1.521,-0.54116 1.521,-0.85562 0,-0.31259 0.572,-0.90858 1.272,-1.32442 0.699,-0.41583 1.272,-0.90665 1.272,-1.09071 0,-0.18406 0.477,-0.33465 1.06,-0.33465 0.583,0 1.059,-0.19199 1.059,-0.42664 0,-0.23465 0.298,-0.42664 0.661,-0.42664 0.364,0 0.556,-0.17094 0.428,-0.37986 -0.128,-0.20892 0.43,-0.50509 1.241,-0.65815 0.811,-0.15306 1.454,-0.4141 1.43,-0.58008 -0.129,-0.88032 0.127,-1.36838 0.717,-1.36838 0.363,0 0.557,-0.16861 0.431,-0.37469 -0.252,-0.41051 1.715,-0.90522 3.599,-0.90522 1.181,0 1.772,-0.50515 1.946,-1.66385 0.117,-0.77767 0.974,-1.30791 2.128,-1.31609 0.506,-0.004 1.89,-0.23149 3.073,-0.50644 1.829,-0.42471 2.152,-0.64934 2.152,-1.49324 0,-0.54632 0.179,-0.99332 0.397,-0.99332 0.218,0 0.838,-0.16898 1.377,-0.37552 0.54,-0.20654 1.173,-0.43766 1.406,-0.51358 2.589,-0.84303 3.342,-1.24618 3.428,-1.83451 0.06,-0.43516 -0.313,-0.79657 -1.014,-0.97353 -1.457,-0.36801 -2.117,-1.01986 -1.895,-1.87211 0.1,-0.37846 -0.07,-0.70621 -0.382,-0.72833 -0.309,-0.0221 -2.469,-0.17799 -4.801,-0.34636 -2.331,-0.16838 -4.361,-0.49485 -4.51,-0.7255 -0.148,-0.23065 -0.468,-0.29633 -0.71,-0.14596 -0.464,0.28866 -2.623,-0.53481 -2.623,-1.00052 0,-0.15005 0.188,-0.46207 0.418,-0.69337 0.275,-0.2763 0.166,-0.43316 -0.318,-0.45733 -0.404,-0.0202 -1.499,-0.16238 -2.431,-0.31589 -0.933,-0.15351 -3.081,-0.39795 -4.774,-0.5432 -2.502,-0.21465 -3.058,-0.39225 -2.968,-0.94878 0.09,-0.5302 -0.463,-0.77453 -2.433,-1.08283 -1.446,-0.22627 -2.752,-0.689 -3.027,-1.07198 -0.338,-0.47134 -1.135,-0.66421 -2.65,-0.6418 -1.403,0.0207 -2.166,-0.1458 -2.166,-0.47281 0,-0.63408 -4.525,-1.18648 -6.565,-0.80139 -0.855,0.16133 -1.49,0.53397 -1.49,0.87377 0,0.34699 -0.438,0.59247 -1.056,0.59247 -1.146,0 -3.607,2.25783 -3.607,3.30871 0,0.36342 -0.252,0.52524 -0.605,0.38896 -0.554,-0.21422 -2.949,0.25182 -4.483,0.87258 -0.35,0.14154 -0.857,0.22251 -1.129,0.17992 -0.285,-0.0448 -0.405,0.25926 -0.285,0.72174 0.236,0.908 -1.817,2.09659 -4.331,2.50708 -0.804,0.13133 -1.462,0.40565 -1.462,0.6096 0,0.20395 -0.277,0.37081 -0.615,0.37081 -0.338,0 -0.767,0.25996 -0.954,0.57768 -0.186,0.31772 -0.768,0.80444 -1.292,1.0816 -0.525,0.27717 -0.954,0.76829 -0.954,1.09138 0,0.35298 -0.678,0.70265 -1.698,0.87607 -0.934,0.15875 -1.59,0.46361 -1.459,0.67746 0.132,0.21445 -0.723,0.38883 -1.906,0.38883 -1.179,0 -2.144,0.17722 -2.144,0.39382 0,1.02356 -2.65,2.98304 -4.39,3.2455 -2.238,0.33783 -2.84,0.68712 -2.99,1.73637 -0.07,0.45659 -0.519,0.87047 -1.038,0.94773 -1.213,0.18047 -0.73,0.92943 0.6,0.92943 0.569,0 1.034,0.19199 1.034,0.42664 0,0.23465 0.489,0.42664 1.085,0.42664 0.708,0 0.981,0.17012 0.785,0.48886 -0.212,0.34575 0.04,0.40319 0.858,0.19622 0.703,-0.17751 1.06,-0.13172 0.908,0.11638 -0.138,0.22496 0.37,0.53094 1.13,0.67996 3.193,0.62609 5.409,1.25949 5.409,1.54567 0,0.32719 2.815,0.74458 5.935,0.88011 1.05,0.0456 2.099,0.21485 2.332,0.37618 0.233,0.16133 0.71,0.31769 1.06,0.34747 1.996,0.16996 2.747,0.42848 3.576,1.23216 0.508,0.49142 1.58,1.01613 2.383,1.16602 1.232,0.22988 9.545,0.99353 11.953,1.09795 0.408,0.0177 0.742,0.30822 0.742,0.64562 0,0.33739 0.286,0.61344 0.636,0.61344 0.349,0 0.635,0.21253 0.635,0.47228 0,0.25976 0.287,0.36178 0.636,0.22671 0.35,-0.13506 0.636,-0.0811 0.636,0.12003 0,0.20108 0.85,0.35412 1.888,0.34009 1.038,-0.014 1.803,-0.16447 1.698,-0.33429 z m 36.314,-3.70463 c 0.03,-1.34924 0.109,-2.96547 0.183,-3.59161 0.09,-0.73668 -0.1,-1.22956 -0.532,-1.39662 -0.893,-0.34481 -1.205,0.0316 -0.617,0.74475 0.318,0.3853 0.35,1.0184 0.1,1.90679 -0.265,0.9301 -0.231,1.38511 0.115,1.51336 0.36,0.1338 0.367,0.31908 0.03,0.68531 -0.52,0.55923 -0.281,2.59119 0.305,2.59119 0.206,0 0.396,-1.10392 0.423,-2.45317 z m -0.05,-6.07959 c -0.249,-0.4693 -0.524,-0.85328 -0.611,-0.85328 -0.09,0 -0.06,0.38398 0.06,0.85328 0.122,0.4693 0.397,0.85327 0.612,0.85327 0.215,0 0.186,-0.38187 -0.06,-0.85327 z m -83.446,-4.05392 c 0.398,-6.1e-4 0.558,-0.63097 0.541,-2.13319 -0.01,-1.17279 0.17,-2.26453 0.407,-2.42609 0.512,-0.34977 0.514,-0.39388 0.724,-17.09099 0.105,-8.34997 0.319,-13.11864 0.589,-13.11912 0.24,-4.3e-4 0.423,-1.24562 0.423,-2.88057 0,-1.5839 -0.19,-3.02086 -0.423,-3.19326 -0.273,-0.20147 -0.256,-0.31578 0.05,-0.31998 0.26,-0.004 0.415,-0.52423 0.346,-1.15934 -0.07,-0.63404 -0.01,-1.33379 0.121,-1.555 0.271,-0.44021 0.263,-3.32475 -0.03,-11.15379 -0.132,-3.52654 -0.03,-5.44812 0.328,-6.18626 0.286,-0.5889 0.449,-1.38188 0.362,-1.76218 -0.136,-0.59798 1.115,-1.38862 2.049,-1.29486 0.141,0.0142 0.206,-0.44499 0.143,-1.02046 -0.06,-0.57546 0.07,-1.04629 0.297,-1.04629 0.227,0 0.307,-0.17031 0.18,-0.37847 -0.128,-0.20816 0.1,-0.35215 0.505,-0.31998 0.421,0.0334 0.684,-0.19267 0.614,-0.52715 -0.08,-0.39097 0.113,-0.49408 0.589,-0.31021 0.626,0.24146 0.641,0.18544 0.124,-0.45418 -0.519,-0.64105 -0.502,-0.69628 0.138,-0.45504 0.401,0.15102 0.841,0.091 0.979,-0.13343 0.277,-0.45031 2.037,-0.5302 3.424,-0.15541 0.643,0.17351 0.861,0.53012 0.779,1.27409 -0.06,0.56823 0.06,1.03314 0.274,1.03314 0.213,0 0.357,0.14399 0.32,0.31998 -0.04,0.17599 0.05,0.60796 0.186,0.95993 0.446,1.12738 0.617,4.71224 0.236,4.94946 -0.203,0.12604 -0.284,0.36805 -0.179,0.53781 0.367,0.59853 0.595,3.89877 0.269,3.89877 -0.182,0 -0.192,0.76795 -0.02,1.70656 0.171,0.9386 0.217,1.70655 0.103,1.70655 -0.114,0 -0.03,0.23998 0.189,0.5333 0.391,0.5271 0.397,1.97651 0.02,4.27676 -0.108,0.65099 -0.03,1.28628 0.171,1.41175 0.562,0.34934 0.436,2.21648 -0.163,2.41934 -0.413,0.13993 -0.402,0.33582 0.05,0.88883 0.329,0.40162 0.39,0.70934 0.14,0.70934 -0.3,0 -0.311,0.47755 -0.03,1.48701 0.249,0.90636 0.257,1.78099 0.02,2.23985 -0.213,0.41406 -0.305,1.13681 -0.205,1.60611 0.212,0.99461 0.212,1.06975 0,3.73309 -0.09,1.11459 -0.04,2.02653 0.112,2.02653 0.15,0 0.272,0.47997 0.272,1.06659 0,0.58663 -0.176,1.0666 -0.391,1.0666 -0.232,0 -0.226,0.21728 0.01,0.5333 0.223,0.29331 0.373,1.74135 0.334,3.21787 -0.04,1.47651 0.07,2.77299 0.245,2.88106 0.174,0.10807 0.342,1.49184 0.374,3.07504 0.144,7.06388 0.257,8.62217 0.655,9.01544 0.278,0.27495 1.408,0.23199 3.282,-0.12472 1.572,-0.29926 2.985,-0.43051 3.141,-0.29167 0.156,0.13884 0.163,-0.0835 0.02,-0.49418 -0.147,-0.41064 -0.07,-0.74661 0.169,-0.74661 0.24,0 0.334,-0.16633 0.209,-0.36962 -0.125,-0.20329 0.102,-0.66993 0.505,-1.03698 0.59,-0.53859 0.732,-1.41384 0.732,-4.536 0,-2.12775 0.113,-3.86896 0.25,-3.86936 0.138,-4e-4 0.113,-0.91266 -0.06,-2.02725 -0.177,-1.16838 -0.139,-2.13365 0.09,-2.27949 0.219,-0.13912 0.33,-1.23963 0.246,-2.44557 -0.09,-1.27708 0.03,-2.2713 0.295,-2.38105 0.269,-0.1137 0.194,-0.36795 -0.189,-0.64103 -0.35,-0.24892 -0.43,-0.45552 -0.177,-0.45911 0.578,-0.008 0.622,-1.32535 0.07,-2.03307 -0.287,-0.36607 -0.253,-0.5333 0.107,-0.5333 0.33,0 0.436,-0.34345 0.286,-0.92225 -0.132,-0.50724 -0.03,-1.31401 0.223,-1.79282 0.34,-0.6398 0.334,-0.9139 -0.02,-1.03406 -0.268,-0.0899 -0.343,-0.38708 -0.167,-0.66035 0.176,-0.27327 0.353,-1.07282 0.393,-1.77677 0.04,-0.70395 0.185,-1.99987 0.322,-2.87981 0.165,-1.0543 0.09,-1.59989 -0.23,-1.59989 -0.33,0 -0.346,-0.16697 -0.05,-0.5333 0.453,-0.56409 0.915,-4.15979 0.535,-4.15963 -0.123,5e-5 -0.202,-0.91189 -0.175,-2.02653 0.03,-1.11464 -0.14,-2.26661 -0.37,-2.55992 -0.282,-0.35995 -0.264,-0.5333 0.06,-0.5333 0.261,0 0.453,-0.14399 0.425,-0.31998 -0.03,-0.17599 -0.01,-0.51196 0.04,-0.74662 0.05,-0.23465 0.06,-2.20251 0.03,-4.37304 -0.03,-2.25207 0.116,-3.9464 0.346,-3.9464 0.222,0 0.303,-0.38397 0.181,-0.85328 -0.122,-0.4693 -0.438,-0.85621 -0.702,-0.85981 -0.289,-0.004 -0.253,-0.15162 0.09,-0.37113 0.609,-0.3884 0.832,-4.25973 0.336,-5.83222 -0.372,-1.18072 1.179,-2.88529 2.3,-2.527206 0.695,0.222026 0.788,0.07392 0.659,-1.048477 -0.08,-0.718862 0.01,-1.307022 0.217,-1.307022 0.202,0 0.374,0.239984 0.381,0.533297 0,0.31722 0.25,0.220445 0.596,-0.238849 0.367,-0.487966 0.684,-0.605731 0.859,-0.319979 0.153,0.248693 0.1,0.452169 -0.126,0.452169 -0.222,0 -0.524,0.315136 -0.67,0.700302 -0.229,0.598762 -0.169,0.618205 0.41,0.134094 0.567,-0.472847 0.748,-0.465211 1.098,0.04631 0.306,0.447651 0.343,0.342802 0.138,-0.38953 l -0.282,-1.002054 0.924,0.929465 c 0.508,0.511205 1.46,1.117793 2.116,1.347973 0.896,0.314184 1.296,0.827117 1.607,2.057697 0.227,0.90156 0.258,1.89138 0.07,2.1996 -0.189,0.30823 -0.188,0.75884 0,1.00136 0.191,0.24252 0.305,1.2569 0.253,2.25416 -0.05,0.99727 0.06,1.81322 0.239,1.81322 0.184,0 0.235,0.43197 0.113,0.95993 -0.242,1.04438 -0.256,1.28376 -0.174,2.87981 0.08,1.46451 0.13,11.69231 0.08,14.29238 -0.01,0.70395 0.02,1.95187 0.07,2.77315 0.05,0.82128 -0.07,1.73321 -0.28,2.02653 -0.227,0.32054 -0.215,0.5333 0.03,0.5333 0.493,0 0.501,3.09636 0,3.44938 -0.192,0.13728 -0.172,1.04066 0.04,2.00752 0.222,0.9961 0.231,1.81238 0.02,1.88359 -0.204,0.0691 -0.422,3.43745 -0.484,7.48518 -0.101,6.60168 -0.04,7.35951 0.587,7.35951 0.754,0 1.371,-1.10707 0.976,-1.75006 -0.133,-0.21623 0.341,-0.51027 1.052,-0.6534 0.711,-0.14314 1.189,-0.42887 1.063,-0.63495 -0.127,-0.20608 -0.03,-0.37469 0.205,-0.37469 0.24,0 0.351,-0.23999 0.247,-0.5333 -0.103,-0.29332 -0.264,-1.42483 -0.357,-2.51448 -0.09,-1.08964 -0.3,-2.19357 -0.459,-2.45317 -0.16,-0.25959 -0.113,-0.47199 0.103,-0.47199 0.216,0 0.304,-0.62396 0.196,-1.38657 -0.109,-0.76262 -0.202,-2.10887 -0.206,-2.99168 0,-0.88281 -0.176,-1.71008 -0.382,-1.83839 -0.206,-0.12831 -0.375,-0.42528 -0.375,-0.65993 0,-0.23465 0.143,-0.33764 0.318,-0.22888 0.175,0.10877 0.318,-0.35987 0.318,-1.04141 0,-0.68155 -0.167,-1.23918 -0.37,-1.23918 -0.204,0 -0.16,-0.25421 0.1,-0.56491 0.433,-0.52555 0.382,-1.98226 -0.1,-2.76351 -0.115,-0.18631 -0.04,-0.61112 0.163,-0.94402 0.224,-0.36465 0.193,-0.82298 -0.08,-1.15289 -0.316,-0.38207 -0.317,-0.5476 0,-0.5476 0.259,0 0.355,-0.49336 0.226,-1.17326 -0.121,-0.64529 -0.251,-2.27718 -0.289,-3.62642 -0.04,-1.34925 -0.18,-2.45317 -0.316,-2.45317 -0.136,0 -0.248,-0.95994 -0.248,-2.13319 0,-1.17326 0.166,-2.13319 0.368,-2.13319 0.203,0 0.165,-0.3825 -0.08,-0.84998 -0.647,-1.21519 -0.94,-4.69632 -0.396,-4.69632 0.244,0 0.313,-0.21252 0.154,-0.47226 -0.522,-0.85041 -0.623,-6.03565 -0.128,-6.635 0.259,-0.31472 0.305,-0.57223 0.102,-0.57223 -0.204,0 -0.358,-0.81594 -0.344,-1.81321 0.01,-0.99727 -0.125,-2.02014 -0.309,-2.27306 -0.185,-0.25292 -0.163,-1.06628 0.05,-1.807465 0.244,-0.853985 0.231,-1.442858 -0.03,-1.60764 -0.239,-0.148717 -0.09,-0.510638 0.35,-0.845461 0.422,-0.321987 0.565,-0.591537 0.319,-0.598999 -0.565,-0.01713 -0.545,-2.252793 0.02,-2.673525 0.272,-0.201172 0.254,-0.315785 -0.05,-0.319978 -0.29,-0.004 -0.441,-0.744204 -0.389,-1.910221 0.05,-1.047028 -0.05,-2.127527 -0.221,-2.401108 -0.375,-0.610634 -6.759,-0.113219 -6.759,0.526632 0,0.228479 -0.169,0.310206 -0.376,0.181616 -0.207,-0.128591 -0.603,0.04154 -0.881,0.378077 -0.277,0.336533 -1.427,0.920245 -2.554,1.297138 -1.128,0.376892 -2.15,0.945272 -2.271,1.263066 -0.121,0.317793 -0.853,0.705627 -1.627,0.861852 -2.611,0.527421 -4.171,1.142916 -3.922,1.547922 0.136,0.221554 0.09,0.375333 -0.102,0.341731 -0.871,-0.152246 -1.41,0.08714 -1.41,0.62658 0,0.618198 -1.768,1.119925 -3.948,1.119925 -1.211,0 -4.097,1.556706 -4.104,2.21371 0,0.16161 -0.854,0.422355 -1.895,0.579433 -1.064,0.160575 -1.853,0.498855 -1.802,0.772765 0.05,0.26794 -0.153,0.43719 -0.452,0.37612 -0.299,-0.0611 -0.955,0.27491 -1.458,0.74662 -0.503,0.47171 -1.213,0.8657 -1.577,0.87554 -0.768,0.0207 -3.839,1.63635 -3.205,1.68636 0.233,0.0184 -0.365,0.40595 -1.33,0.86121 -1.883,0.88899 -2.356,1.83816 -2.066,4.1452 0.1,0.7546 0,1.47958 -0.211,1.61108 -0.212,0.13149 -0.301,2.20063 -0.198,4.59809 0.103,2.39746 0.277,6.38254 0.386,8.85572 0.108,2.47319 0.318,4.81337 0.466,5.20041 0.147,0.38703 0.09,1.0173 -0.119,1.40058 -0.214,0.38329 -0.268,1.49888 -0.121,2.47908 0.146,0.98021 0.209,3.03012 0.14,4.55535 -0.414,9.08231 -0.473,21.63056 -0.114,24.1538 0.23,1.61575 0.518,4.66561 0.64,6.77747 0.215,3.70564 0.449,6.79181 0.584,7.67949 0.04,0.23465 0.329,-0.0533 0.652,-0.63996 0.322,-0.58663 0.84,-1.06698 1.15,-1.06745 z m 83.62,1.55572 c 0.124,-0.20075 -0.247,-0.27437 -0.823,-0.16358 -0.575,0.11078 -1.047,0.27503 -1.047,0.365 0,0.33012 1.653,0.15208 1.87,-0.20142 z m -78.014,-6.78118 c 0.81,-0.41064 1.563,-1.0826 1.673,-1.49324 0.111,-0.41064 0.505,-0.74661 0.877,-0.74661 1.469,0 3.405,-2.98336 2.359,-3.63441 -0.234,-0.14536 -0.286,-0.49101 -0.116,-0.76811 0.171,-0.2771 0.346,-1.17578 0.391,-1.99706 0.04,-0.82127 0.202,-3.3651 0.35,-5.65295 0.211,-3.24996 0.15,-4.16256 -0.277,-4.1727 -0.324,-0.008 -0.24,-0.193 0.203,-0.45286 0.435,-0.25459 0.619,-0.65348 0.437,-0.94696 -0.492,-0.79173 -0.599,-2.08042 -0.151,-1.80157 0.415,0.25816 0.275,-1.15039 -0.19,-1.9069 -0.143,-0.23377 -0.09,-0.42503 0.123,-0.42503 0.438,0 0.422,-1.94146 -0.02,-2.38557 -0.16,-0.1613 -0.159,-0.50648 0,-0.76706 0.458,-0.73494 0.457,-3.67358 0,-3.67358 -0.226,0 -0.268,-0.33362 -0.09,-0.74662 0.172,-0.41064 0.3,-1.07881 0.284,-1.48483 -0.02,-0.40602 0.149,-0.84964 0.368,-0.98583 0.241,-0.14984 0.247,-0.5322 0.02,-0.96834 -0.475,-0.89403 -0.507,-3.92051 -0.04,-3.92051 0.372,0 0.06,-1.65818 -0.435,-2.34651 -0.263,-0.36196 -0.239,-2.55983 0.03,-2.55983 0.05,0 0.121,-0.51503 0.16,-1.14451 0.04,-0.62949 -0.03,-1.08019 -0.16,-1.00156 -0.128,0.0786 -0.271,-3.05141 -0.32,-6.95563 -0.06,-4.49385 -0.251,-7.1533 -0.532,-7.24767 -0.245,-0.082 -0.348,-0.30676 -0.23,-0.49949 0.44,-0.71495 -1.528,0.1321 -2.05,0.88304 -0.299,0.42902 -1.052,0.97491 -1.675,1.21309 -0.778,0.29764 -1.052,0.64237 -0.876,1.10254 0.14,0.36823 -0.04,0.99834 -0.392,1.40024 -0.535,0.60394 -0.625,1.89665 -0.517,7.45056 0.07,3.71588 -0.04,6.82665 -0.253,6.95877 -0.222,0.13826 -0.19,0.60422 0.08,1.10604 0.263,0.49504 0.326,1.35351 0.146,2.00064 -0.435,1.56534 -0.46,2.2661 -0.115,3.3192 0.163,0.49817 0.1,1.10446 -0.143,1.34732 -0.241,0.24286 -0.369,1.3206 -0.284,2.39496 0.114,1.43568 -0.01,2.01754 -0.472,2.19539 -0.438,0.16909 -0.481,0.33269 -0.143,0.54303 0.316,0.19644 0.418,1.26321 0.294,3.07018 -0.104,1.52302 -0.255,7.7608 -0.335,13.86173 -0.08,6.10092 -0.285,11.42857 -0.457,11.83921 -0.22,0.52693 -0.117,0.74661 0.352,0.74661 0.365,0 1.326,-0.33597 2.136,-0.74661 z m 8.101,-2.23985 c 0.332,-0.53996 -0.23,-0.53996 -1.06,0 -0.548,0.35641 -0.537,0.41447 0.08,0.4201 0.394,0.004 0.835,-0.18545 0.979,-0.4201 z m 0,-8.76085 c 0,-3.26171 -0.158,-5.32074 -0.418,-5.32475 -0.233,-0.004 -0.165,-0.17158 0.151,-0.3733 0.371,-0.23648 0.419,-0.46398 0.136,-0.64039 -0.242,-0.15048 -0.557,-0.0836 -0.7,0.14874 -0.239,0.3894 -0.429,10.35562 -0.216,11.32412 0.05,0.23465 0.06,0.61863 0.01,0.85328 -0.04,0.23465 0.169,0.18001 0.473,-0.12143 0.396,-0.39208 0.556,-2.0616 0.561,-5.86627 z m 14.562,1.44894 c 0.08,-0.20509 0.315,-0.26574 0.526,-0.13476 0.21,0.13097 0.279,-0.0324 0.153,-0.36301 -0.146,-0.38386 0.234,-0.79397 1.051,-1.13465 0.704,-0.29343 1.5,-0.80084 1.77,-1.12757 0.269,-0.32673 0.903,-0.59406 1.407,-0.59406 0.614,0 0.939,-0.28257 0.982,-0.85327 0.04,-0.58185 -0.198,-0.85328 -0.758,-0.85328 -0.452,0 -0.821,0.21253 -0.821,0.47228 0,0.25976 -0.286,0.36178 -0.636,0.22671 -0.388,-0.14959 -0.636,-6.7e-4 -0.636,0.38099 0,0.34462 -0.273,0.62657 -0.606,0.62657 -0.333,0 -0.861,0.25766 -1.174,0.57258 -0.313,0.31491 -0.995,0.80164 -1.515,1.0816 -0.519,0.27997 -0.945,0.79026 -0.945,1.13398 0,0.34372 -0.297,0.62495 -0.661,0.62495 -0.363,0 -0.538,0.19979 -0.388,0.44399 0.298,0.48424 2.022,0.0989 2.251,-0.50305 z m -0.207,-4.01145 c -0.138,-0.36157 -0.08,-0.61724 0.119,-0.56815 0.204,0.0491 1.087,-0.0607 1.964,-0.2441 1.185,-0.2478 1.659,-0.5947 1.848,-1.35172 0.139,-0.56011 0.393,-1.01837 0.564,-1.01837 0.171,0 0.181,-0.8655 0.02,-1.92333 -0.207,-1.37682 -0.129,-2.05732 0.275,-2.39485 0.31,-0.25934 0.429,-0.68975 0.264,-0.95648 -0.424,-0.68362 -0.431,-2.83147 -0.01,-2.83147 0.192,0 0.153,-0.36848 -0.09,-0.81886 -0.308,-0.57874 -0.296,-0.86581 0.04,-0.97898 0.318,-0.10658 0.263,-0.37579 -0.164,-0.80517 -0.536,-0.54003 -0.55,-0.77014 -0.08,-1.41333 0.359,-0.49373 0.579,-2.23833 0.617,-4.88219 0.117,-8.27757 0.212,-10.23528 0.509,-10.53405 0.166,-0.16773 0.152,-0.6157 -0.03,-0.99549 -0.183,-0.37978 -0.32,-2.56226 -0.303,-4.84995 0.02,-2.28769 -0.113,-4.15956 -0.287,-4.15972 -0.175,-1.6e-4 -0.318,-0.20361 -0.318,-0.45211 0,-0.2485 0.154,-0.35589 0.342,-0.23864 0.189,0.11724 0.28,-0.62566 0.204,-1.65089 -0.08,-1.02524 0.04,-1.97467 0.256,-2.10985 0.217,-0.13519 0.313,-0.77286 0.213,-1.41706 -0.101,-0.6442 -0.247,-2.70717 -0.325,-4.58438 -0.175,-4.19349 -0.39,-4.73441 -1.861,-4.66963 -0.909,0.0401 -1.231,0.33347 -1.535,1.40022 -0.212,0.74225 -0.602,1.34954 -0.867,1.34954 -0.266,0 -0.457,0.52797 -0.426,1.17326 0.03,0.64529 -0.101,1.27822 -0.295,1.40651 -0.194,0.12829 -0.404,2.6717 -0.467,5.65201 -0.06,2.98032 -0.21,5.41923 -0.327,5.4198 -0.116,5.7e-4 -0.212,1.15295 -0.212,2.56085 0,1.40789 0.112,2.55977 0.249,2.55973 0.225,-7e-5 0.197,3.32783 -0.03,3.83966 -0.23,0.5123 -0.195,2.0116 0.07,3.09259 0.177,0.71762 0.09,1.37989 -0.227,1.70656 -0.324,0.33647 -0.538,2.1111 -0.579,4.80021 -0.1,6.41987 -0.293,10.026 -0.547,10.026 -0.126,0 -0.224,1.4399 -0.218,3.19977 0,1.75987 -0.09,3.19978 -0.213,3.19979 -0.123,1e-5 -0.154,0.81596 -0.07,1.81323 0.09,0.99726 0.179,2.14919 0.209,2.55983 0.03,0.47419 0.403,0.74661 1.01,0.74661 0.686,0 0.885,-0.1851 0.705,-0.6574 z m 6.994,-6.36413 c 0.04,-1.06583 -0.03,-1.93787 -0.153,-1.93787 -0.485,0 -1.04,2.24765 -0.796,3.22645 0.387,1.55145 0.867,0.8997 0.949,-1.28858 z m -0.03,-4.68987 c 0.05,-0.575 -0.05,-1.13226 -0.225,-1.23835 -0.171,-0.10609 -0.352,0.36436 -0.4,1.04545 -0.05,0.68109 0.05,1.23835 0.225,1.23835 0.173,0 0.353,-0.47046 0.4,-1.04545 z m 0.1,-3.00762 c 0,-0.58662 -0.211,-1.06659 -0.469,-1.06659 -0.264,0 -0.351,0.31136 -0.198,0.71251 0.15,0.39278 0.03,0.86846 -0.272,1.06006 -0.4,0.25562 -0.348,0.34928 0.197,0.35409 0.511,0.004 0.742,-0.3262 0.742,-1.06007 z m 0.501,-3.58983 c -0.329,-0.21385 -0.359,-1.94 -0.04,-2.59642 0.266,-0.55693 0.141,-5.9715 -0.138,-5.97217 -0.387,-9.3e-4 -0.358,-0.2474 -0.553,4.69226 -0.09,2.22918 -0.265,4.53303 -0.393,5.11965 l -0.232,1.0666 0.872,-1.03 c 0.48,-0.56651 0.7,-1.14247 0.489,-1.27992 z m 0.656,-9.25375 c -0.141,-0.14177 -0.506,-0.15693 -0.812,-0.0337 -0.338,0.13619 -0.238,0.23728 0.256,0.25776 0.447,0.0185 0.697,-0.0823 0.556,-0.22408 z m -0.309,-5.02957 c 0,-0.0922 -0.296,-0.28201 -0.658,-0.42175 -0.377,-0.1457 -0.547,-0.0742 -0.399,0.16767 0.249,0.40539 1.057,0.59962 1.057,0.25408 z m -0.424,-2.8188 c 0,-0.23465 -0.08,-0.42664 -0.187,-0.42664 -0.102,0 -0.305,0.19199 -0.449,0.42664 -0.144,0.23465 -0.06,0.42664 0.187,0.42664 0.247,0 0.449,-0.19199 0.449,-0.42664 z m 0.167,-8.35509 c 0.159,-0.41551 0.06,-0.61056 -0.246,-0.50663 -0.634,0.21258 -0.983,1.18224 -0.425,1.18224 0.227,0 0.53,-0.30403 0.671,-0.67561 z m -38.08,-9.51521 c -0.215,-0.34965 1.258,-1.05328 1.984,-0.94792 0.175,0.0254 0.27,-0.18317 0.212,-0.46344 -0.06,-0.28026 0.466,-0.62692 1.166,-0.77033 0.699,-0.14342 1.224,-0.49007 1.166,-0.77034 -0.07,-0.32574 0.487,-0.509576 1.537,-0.509576 0.944,0 1.869,-0.272449 2.172,-0.639957 0.29,-0.351977 0.802,-0.639958 1.137,-0.639958 0.335,0 0.491,-0.191987 0.347,-0.426638 -0.236,-0.383691 0.321,-0.611435 1.166,-0.477161 0.175,0.02779 0.318,-0.114115 0.318,-0.315338 0,-0.201223 1.192,-0.48719 2.649,-0.635481 2.061,-0.209636 2.849,-0.497202 3.542,-1.292582 1.191,-1.364934 2.393,-1.972458 3.904,-1.972458 0.686,0 1.485,-0.287981 1.775,-0.639957 0.29,-0.351977 0.791,-0.639958 1.112,-0.639958 0.321,0 0.584,-0.14512 0.584,-0.32249 0,-0.17737 0.62,-0.593961 1.378,-0.925757 2.082,-0.911874 2.724,-2.164858 1.108,-2.164858 -0.498,0 -1.327,0.458287 -1.843,1.018415 -0.516,0.560129 -1.587,1.15826 -2.38,1.32918 -0.794,0.17092 -1.7,0.51963 -2.014,0.77491 -0.314,0.255281 -0.982,0.526644 -1.484,0.603031 -0.502,0.07639 -0.976,0.325319 -1.054,0.553184 -0.08,0.227865 -0.514,0.4143 -0.97,0.4143 -1.017,0 -4.239,1.6149 -4.822,2.416421 -0.234,0.321844 -1.466,0.709185 -2.738,0.860757 -1.753,0.208822 -2.575,0.555942 -3.392,1.43284 -0.948,1.01738 -2.919,1.737511 -5.106,1.865621 -0.35,0.0205 -0.588,0.27724 -0.53,0.57055 0.07,0.34166 -0.404,0.5333 -1.313,0.5333 -1.731,0 -3.464,1.31478 -2.72,2.06324 0.571,0.57467 3.457,0.68462 3.109,0.11845 z m 37.593,-16.663404 c 1.195,-1.286017 1.198,-1.303317 0.236,-1.261373 -1.664,0.07253 -3.095,0.611625 -3.095,1.165524 0,0.811216 -1.046,1.28865 -3.5,1.597128 -1.229,0.154558 -2.316,0.413216 -2.415,0.574796 -0.1,0.161581 1.562,0.05394 3.691,-0.239196 3.435,-0.472809 4.009,-0.680179 5.083,-1.836879 z m -63.775,131.942404 c 0.306,-0.12324 0.672,-0.10808 0.812,0.0337 0.141,0.14176 -0.109,0.2426 -0.556,0.22408 -0.494,-0.0205 -0.594,-0.12157 -0.256,-0.25777 z m 6.439,-0.57481 c -0.817,-0.16573 -1.327,-0.3266 -1.134,-0.35749 0.456,-0.0731 -1.821,-1.9613 -2.798,-2.32054 -0.52,-0.19112 -0.695,-0.59449 -0.566,-1.30729 0.129,-0.71835 -0.132,-1.30854 -0.861,-1.94677 -0.723,-0.63229 -0.965,-1.17474 -0.783,-1.7518 0.17,-0.54016 0.07,-0.8382 -0.295,-0.84243 -0.409,-0.005 -0.389,-0.11467 0.08,-0.41107 0.35,-0.2225 0.66,-0.60354 0.689,-0.84675 0.03,-0.24321 0.1,-0.49019 0.148,-0.54886 0.05,-0.0587 0.142,-0.63475 0.2,-1.28019 0.06,-0.64544 0.42,-1.5245 0.806,-1.95347 0.385,-0.42896 0.701,-1.00114 0.701,-1.2715 0,-0.27037 0.476,-0.61171 1.057,-0.75854 0.581,-0.14682 0.952,-0.43846 0.823,-0.64808 -0.129,-0.20962 0,-0.38113 0.285,-0.38113 0.286,0 0.402,-0.11885 0.258,-0.26411 -0.688,-0.69182 1.205,-1.52914 3.932,-1.73927 3.944,-0.30388 5.94,0.0848 5.94,1.15666 0,0.45165 0.549,1.23002 1.221,1.72971 0.722,0.53778 1.15,1.19588 1.048,1.61267 -0.1,0.39296 0.488,1.42234 1.324,2.32935 1.211,1.31493 1.416,1.77795 1.071,2.42512 -0.234,0.43995 -0.425,1.28574 -0.425,1.87953 0,0.64299 -0.343,1.26433 -0.848,1.5363 -0.496,0.26704 -0.848,0.8933 -0.848,1.50824 0,0.59098 -0.247,1.05159 -0.564,1.05159 -0.31,0 -0.835,0.52796 -1.166,1.17325 -1.111,2.1664 -1.611,2.42469 -4.798,2.47792 -1.656,0.0276 -3.678,-0.0853 -4.494,-0.25105 z m 4.548,-6.21771 c -0.141,-0.14177 -0.506,-0.15693 -0.812,-0.0337 -0.339,0.1362 -0.238,0.23729 0.256,0.25776 0.447,0.0185 0.697,-0.0823 0.556,-0.22407 z m 4.307,-0.32468 c 0.264,-0.32034 0.592,-1.38841 0.729,-2.3735 0.252,-1.81461 -0.559,-3.44364 -1.715,-3.44364 -0.262,0 -0.52,-0.51721 -0.572,-1.14935 -0.127,-1.54469 -0.791,-1.88564 -3.058,-1.56919 -2.298,0.32079 -2.968,0.79612 -2.968,2.10565 0,0.54404 -0.193,1.10976 -0.43,1.25715 -0.237,0.14739 -0.322,0.4467 -0.187,0.66514 0.352,0.573 1.061,0.48905 0.935,-0.1108 -0.06,-0.27938 0.256,-0.58673 0.697,-0.68299 0.637,-0.13898 0.755,0.01 0.57,0.72085 -0.128,0.49274 -0.06,1.00534 0.158,1.13911 0.215,0.13377 0.275,0.43196 0.133,0.66263 -0.151,0.24669 0.235,0.36632 0.938,0.2905 0.72,-0.0776 1.22,0.0832 1.258,0.40439 0.03,0.29331 0.108,0.67729 0.164,0.85327 0.103,0.32391 0.245,0.90903 0.363,1.49324 0.112,0.55494 2.483,0.34649 2.985,-0.26246 z m -7.301,-3.03722 c 0,-0.50898 -0.132,-0.53266 -0.671,-0.12072 -0.369,0.28185 -0.751,0.56679 -0.848,0.63318 -0.1,0.0664 0.205,0.12073 0.671,0.12073 0.467,0 0.848,-0.28443 0.848,-0.63319 z m -10.457,8.30614 c 0.565,-0.37342 0.565,-0.46678 0,-0.84021 -0.35,-0.23106 -0.445,-0.4201 -0.212,-0.4201 0.233,0 0.71,0.18904 1.06,0.4201 0.565,0.37343 0.565,0.46679 0,0.84021 -0.35,0.23106 -0.827,0.42011 -1.06,0.42011 -0.233,0 -0.138,-0.18905 0.212,-0.42011 z m 2.546,-0.20946 c 0.349,-0.42382 0.178,-0.65657 -0.727,-0.98875 -0.688,-0.25255 -0.883,-0.44854 -0.465,-0.46812 0.395,-0.0185 1.217,0.39828 1.826,0.92625 l 1.108,0.95994 -1.1,0.0625 c -0.857,0.0487 -0.999,-0.0597 -0.642,-0.49181 z"
         id="path1" /></g></g></svg>
