<?xml version="1.0" encoding="UTF-8" standalone="no"?>
<!-- Created with Inkscape (http://www.inkscape.org/) -->

<svg
   width="231.38646"
   height="235.24007"
   viewBox="0 0 61.221 62.240601"
   version="1.1"
   id="svg1"
   xml:space="preserve"
   xmlns="http://www.w3.org/2000/svg"
   xmlns:svg="http://www.w3.org/2000/svg"><defs
     id="defs1" /><g
     id="g2047"
     transform="matrix(0.26458333,0,0,0.26458333,-5299.2671,-10.12824)"><g
       id="g2081"
       transform="translate(0.0325301,-469.7)"><path
         style="fill:#000000"
         d="m 20155.88,706.33681 c -1.558,-0.30291 -1.704,-0.48593 -1.997,-2.48851 -0.174,-1.18886 -0.466,-4.8635 -0.649,-8.16588 -0.183,-3.30237 -0.649,-7.84164 -1.036,-10.08725 -0.388,-2.24562 -0.91,-5.46353 -1.161,-7.15091 -0.934,-6.28376 -1.315,-6.53462 -2.794,-1.83528 -0.516,1.64003 -1.474,4.43638 -2.128,6.21411 -0.655,1.77773 -1.341,4.33134 -1.526,5.67469 -0.458,3.32966 -1.115,3.53702 -9.103,2.8711 -3.446,-0.2873 -7.663,-0.5691 -9.371,-0.62623 -2.845,-0.0951 -3.169,-0.21561 -3.843,-1.4304 -0.675,-1.21552 -0.662,-1.45672 0.161,-2.88207 5.352,-9.27485 8.171,-15.35205 10.524,-22.69074 3.375,-10.52009 5.073,-15.97439 5.347,-17.17315 0.306,-1.33685 -0.73,-3.93594 -2.661,-6.6781 -0.494,-0.70126 -0.898,-1.58739 -0.898,-1.96919 0,-0.38179 -0.645,-1.64536 -1.433,-2.80792 -1.607,-2.37186 -1.805,-3.31462 -0.698,-3.31462 1.433,0 4.675,4.64612 6.535,9.36674 0.521,1.32095 1.341,3.26635 1.824,4.32311 2.488,5.45178 4.205,9.07777 6.255,13.20951 5.659,11.40563 7.06,16.65511 7.501,28.10021 0.234,6.10111 0.971,14.48771 1.435,16.33631 0.333,1.32408 1.4,1.66139 5.287,1.67009 l 2.929,0.007 0.88,-1.95057 c 0.484,-1.07281 1.259,-2.15359 1.723,-2.40173 1.258,-0.6736 3.145,-0.54528 3.959,0.26936 0.982,0.9818 1.59,0.90452 1.889,-0.24017 0.193,-0.73586 0.656,-0.96069 1.978,-0.96069 2.151,0 2.181,-0.47561 0.285,-4.48843 -0.793,-1.67748 -1.441,-3.36407 -1.441,-3.74798 0,-0.38391 -0.192,-0.90337 -0.427,-1.15435 -0.235,-0.25098 -1.217,-2.83404 -2.182,-5.74013 -0.966,-2.90609 -2.526,-7.18268 -3.468,-9.50353 -0.941,-2.32085 -1.607,-4.62289 -1.478,-5.11564 0.236,-0.9007 -0.873,-4.64831 -1.954,-6.60697 -0.352,-0.63774 -0.402,-1.16241 -0.125,-1.33312 0.25,-0.15483 1.291,0.96687 2.313,2.49266 1.652,2.46532 1.836,3.0316 1.657,5.08654 -0.165,1.88746 0.08,2.89002 1.346,5.45602 0.851,1.72901 2.148,5.23128 2.883,7.78283 1.269,4.41 5.242,14.54308 7.234,18.44801 0.509,0.99885 0.922,2.07963 0.918,2.40173 0,0.3221 -1.035,1.08964 -2.29,1.70564 -2.007,0.98423 -2.865,1.10353 -7.078,0.98422 -2.637,-0.0747 -6.74,7.6e-4 -9.118,0.16765 -2.377,0.16688 -5.079,0.15629 -6.004,-0.0235 z m 14.891,-2.71178 c 0,-0.68867 -1.389,-1.69811 -2.336,-1.69811 -0.603,0 -1.987,1.36261 -1.987,1.95569 0,0.24532 0.972,0.44604 2.161,0.44604 1.578,0 2.162,-0.18994 2.162,-0.70362 z m 5.676,-0.61734 c -0.121,-1.04825 -0.4,-1.32095 -1.353,-1.32095 -0.953,0 -1.232,0.2727 -1.353,1.32095 -0.137,1.19229 0,1.32096 1.353,1.32096 1.358,0 1.49,-0.12867 1.353,-1.32096 z m -34.423,-14.29028 c -0.233,-1.35175 -0.396,-1.42712 -1.753,-0.80884 -1.819,0.82877 -1.581,2.10698 0.358,1.92006 1.26,-0.12146 1.529,-0.33605 1.395,-1.11122 z m -11.362,-0.97218 c 2.034,-2.27013 4.297,-2.37106 5.621,-0.25077 0.78,1.24886 1.824,1.27117 1.824,0.039 0,-1.1755 1.364,-1.93828 3.466,-1.93828 1.822,0 1.439,0.70943 4.973,-9.19708 l 2.168,-6.07484 -1.07,-2.4513 c -1.165,-2.66774 -1.406,-2.82846 -2.538,-1.69647 -0.938,0.93872 -0.995,2.18929 -0.08,1.83925 0.369,-0.14181 0.813,-0.0293 0.985,0.24993 0.466,0.75419 -1.132,3.80184 -2.166,4.12996 -1.272,0.40384 -2.854,-0.58111 -2.854,-1.77743 0,-0.98294 3.151,-6.23426 3.935,-6.55752 0.669,-0.276 0.43,-1.49066 -0.839,-4.26572 -0.675,-1.47568 -1.351,-3.30365 -1.503,-4.06215 -0.152,-0.7585 -0.464,-1.49542 -0.694,-1.63761 -0.23,-0.14219 -0.418,-0.57695 -0.418,-0.96612 0,-0.38918 -0.33,-1.49719 -0.734,-2.46225 -0.691,-1.65436 -0.769,-1.70152 -1.371,-0.82517 -0.642,0.93475 -1.52,3.51277 -3.914,11.49707 -2.442,8.14355 -4.888,14.0113 -8.734,20.95563 -2.24,4.04305 -2.5,4.78591 -2.071,5.91376 0.466,1.22552 0.604,1.27292 2.773,0.94991 1.438,-0.21422 2.637,-0.73647 3.243,-1.41179 z m 4.683,0.97218 c -0.179,-0.71462 -3.128,-0.5816 -3.373,0.15211 -0.155,0.46611 0.276,0.59244 1.641,0.48034 1.019,-0.0837 1.798,-0.36826 1.732,-0.63245 z m -69.062,4.90301 c -2.791,-0.83748 -7.885,-3.71188 -8.451,-4.76876 -0.347,-0.64918 -0.27,-1.47386 0.274,-2.92112 0.417,-1.10912 1.043,-3.13316 1.39,-4.49786 0.631,-2.47246 0.629,-2.48209 -0.563,-2.70985 -0.658,-0.12571 -3.992,-0.16346 -7.41,-0.0839 -8.951,0.20841 -10.561,-0.66997 -8.981,-4.90104 0.278,-0.74373 0.931,-1.68073 1.451,-2.08223 0.939,-0.72451 0.938,-0.74613 -0.09,-2.86951 -2.829,-5.85688 -2.928,-6.26049 -2.907,-11.9272 0.01,-2.9917 0.241,-5.70562 0.511,-6.03093 0.645,-0.77766 1.969,-8.43635 1.969,-11.39192 0,-2.60068 -1.529,-10.95009 -2.411,-13.16361 -0.934,-2.34458 -1.85,-12.54772 -1.66,-18.4933 0.147,-4.61294 0.387,-6.03891 1.451,-8.64623 0.701,-1.71723 1.46,-3.34862 1.685,-3.62531 0.232,-0.28363 0.09,-2.48361 -0.326,-5.04362 -0.757,-4.66188 -0.614,-9.79362 0.381,-13.66713 1.337,-5.2034 6.079,-15.52292 8.277,-18.01296 0.583,-0.66048 1.661,-2.10258 2.395,-3.20468 1.598,-2.39845 5.324,-4.34362 9.721,-5.07442 2.652,-0.4407 3.549,-0.33741 9.127,1.05051 3.402,0.84659 7.917,2.04079 10.033,2.65376 5.518,1.59832 8.321,1.86366 20.07,1.90029 l 10.468,0.0326 0.275,-1.09142 c 0.323,-1.28523 4.49,-5.05671 6.794,-6.15007 2.246,-1.06584 9.126,-3.58098 11.126,-4.06732 1.826,-0.44409 7.844,0.50086 9.727,1.52725 0.604,0.32952 2.396,0.67422 3.981,0.766 4.546,0.26328 3.536,0.38901 12.448,-1.5488 7.485,-1.62767 11.491,-0.122 17.716,6.65924 2.324,2.53153 4.486,5.09633 4.804,5.69954 0.73,1.38672 3.034,4.51698 4.633,6.29721 0.676,0.75175 2.649,2.08584 4.384,2.96466 3.034,1.53592 6.123,4.39429 10.11,9.35569 0.907,1.12943 2.089,2.00243 2.974,2.19676 0.936,0.20543 2.718,1.58884 4.912,3.81141 1.895,1.9189 4.221,3.85754 5.171,4.30808 1.53,0.72624 2.386,1.4884 5.741,5.11054 0.52,0.56164 1.49,0.90766 2.546,0.90766 0.937,0 2.339,0.32786 3.114,0.72858 0.774,0.40071 2.331,0.85373 3.458,1.00671 1.831,0.24836 2.28,0.0959 4.196,-1.42453 1.195,-0.94833 2.966,-1.84116 3.996,-2.01528 1.018,-0.17193 1.96,-0.59775 2.094,-0.94625 0.134,-0.34851 -0.421,-1.8941 -1.234,-3.43464 -0.812,-1.54054 -1.476,-3.07836 -1.477,-3.41738 0,-2.76801 -6.548,-10.54183 -10.623,-12.62074 -2,-1.02027 -9.862,-2.11352 -11.282,-1.56875 -2.137,0.81996 -4.894,-1.83382 -3.566,-3.43302 0.335,-0.40411 1.177,-0.73453 1.872,-0.73427 1.26,4.7e-4 1.262,-0.004 1.262,-3.96285 0,-3.95895 0,-3.96349 1.31,-4.11432 0.887,-0.10215 1.897,0.31082 3.123,1.27659 1.097,0.86454 4.179,2.21657 7.816,3.42802 3.302,1.10023 6.719,2.41713 7.593,2.92643 0.873,0.5093 2.246,0.926 3.049,0.926 3.167,0 7.027,3.14698 9.679,7.89216 1.594,2.8519 4.559,11.59489 4.898,14.44391 0.422,3.54884 -0.734,8.25954 -2.781,11.3356 -5.634,8.4627 -10.181,11.21962 -20.662,12.52933 -4.174,0.52156 -5.209,0.48825 -9.127,-0.29355 -5.057,-1.00946 -6.661,-1.69669 -8.885,-3.80797 l -1.585,-1.50442 -1.867,1.07454 c -1.103,0.63524 -2.223,0.94845 -2.738,0.7661 -1.416,-0.50137 -3.069,-2.21344 -3.784,-3.91912 -0.649,-1.54996 -0.724,-1.58372 -2.815,-1.27021 -1.756,0.26333 -2.41,0.13531 -3.585,-0.70184 -0.791,-0.56315 -1.574,-1.45061 -1.739,-1.97212 -0.166,-0.52152 -0.705,-0.94822 -1.198,-0.94822 -0.809,0 -0.877,0.32246 -0.686,3.28571 0.183,2.84112 0.08,3.40396 -0.754,4.15965 -0.937,0.8481 -1.04,0.83765 -3.485,-0.35335 -3.22,-1.56833 -5.838,-2.2825 -8.381,-2.28587 -2.116,-0.003 -4.466,0.80882 -4.466,1.54247 0,0.23664 -0.949,0.85007 -2.109,1.36317 l -2.109,0.93292 -0.183,3.48327 c -0.14,2.66536 -0.547,4.2568 -1.733,6.77757 -0.852,1.81187 -1.767,4.72997 -2.033,6.48467 -0.266,1.7547 -0.942,5.02768 -1.503,7.27329 l -1.02,4.08294 2.501,8.14795 c 1.375,4.48138 2.699,8.52008 2.943,8.9749 0.243,0.45483 0.442,1.24701 0.442,1.76041 0,0.5134 0.322,1.20057 0.716,1.52704 0.84,0.69717 0.451,1.62723 -0.524,1.25307 -0.959,-0.368 -0.831,0.54213 0.344,2.44256 0.961,1.55642 0.993,2.48061 0.06,1.90686 -0.234,-0.14424 -1.091,-1.33359 -1.905,-2.643 -1.049,-1.68798 -1.33,-2.53 -0.967,-2.89367 0.364,-0.36367 0.327,-1.07691 -0.126,-2.45112 -0.352,-1.06601 -0.506,-2.07265 -0.341,-2.23699 0.164,-0.16434 -0.03,-1.08193 -0.432,-2.03909 -0.401,-0.95715 -1.475,-4.00991 -2.385,-6.78391 -0.911,-2.77399 -1.832,-5.36786 -2.048,-5.76414 -0.216,-0.39629 -1,-2.60228 -1.742,-4.90221 l -1.35,-4.18169 1.963,-2.06281 c 4.289,-4.50809 7.293,-10.64549 7.443,-15.2064 0.09,-2.62034 0.06,-2.68347 -1.347,-2.93673 -0.846,-0.15264 -1.501,-0.60215 -1.596,-1.09572 -0.135,-0.69923 0.208,-0.83691 2.083,-0.83691 2.175,0 5.512,-1.16478 5.512,-1.92395 0,-0.20541 0.819,-0.70115 1.82,-1.10165 2.241,-0.8968 7.089,-0.44556 11.326,1.05428 3.087,1.09298 3.667,1.00135 3.664,-0.57884 0,-2.02639 -1.569,-3.71555 -4.561,-4.92579 -3.098,-1.25295 -5.049,-1.45836 -6.496,-0.68382 -0.718,0.38406 -1.015,0.28908 -1.411,-0.45119 -0.651,-1.21544 -0.201,-1.47731 3.123,-1.82039 2.064,-0.21304 2.829,-0.0978 3.524,0.53087 1.305,1.18115 3.781,1.813 6.884,1.75653 2.548,-0.0464 2.793,0.0467 3.447,1.31161 0.935,1.80923 2.528,2.46449 5.244,2.15829 l 2.238,-0.25226 0.956,2.22944 c 1.157,2.69855 2.882,3.61785 4.635,2.46946 1.809,-1.1856 3.419,-0.90092 5.248,0.92823 1.018,1.01761 2.64,1.95561 4.187,2.42041 2.9,0.8714 8.684,1.69292 10.451,1.48443 6.292,-0.74225 9.827,-1.53472 12.091,-2.71067 3.311,-1.71941 7.817,-6.76038 10.21,-11.42213 1.402,-2.73056 1.823,-6.83979 1.052,-10.26768 -0.901,-4.00123 -1.752,-6.32942 -4.488,-12.26824 -0.457,-0.99072 -1.792,-2.73785 -2.967,-3.88252 -1.694,-1.64928 -2.394,-2.03126 -3.374,-1.84048 -0.815,0.15885 -2.053,-0.22308 -3.637,-1.12266 -1.321,-0.74987 -5.296,-2.34048 -8.834,-3.53469 -3.538,-1.1942 -7.195,-2.7144 -8.128,-3.37821 -0.933,-0.66381 -1.876,-1.09629 -2.095,-0.96106 -0.676,0.41818 -0.438,3.52324 0.365,4.74822 0.908,1.38637 0.632,1.95752 -1.4,2.90027 l -1.524,0.70724 1.805,-0.26294 c 2.728,-0.39747 9.268,0.65252 11.299,1.81407 4.729,2.7041 8.195,6.73688 11.574,13.4657 0.367,0.73022 1.213,1.46472 1.88,1.63222 1.084,0.27208 1.129,0.36664 0.417,0.88684 -0.822,0.60153 -1.106,2.15759 -0.393,2.15759 0.769,0 1.369,2.15417 0.987,3.54557 -0.307,1.11957 -0.178,1.55249 0.676,2.26566 l 1.056,0.88164 -1.292,0.016 c -0.711,0.009 -1.441,-0.22399 -1.622,-0.5173 -0.42,-0.67835 -3.298,-0.23614 -4.779,0.73415 -0.942,0.61759 -1.068,1.01262 -0.846,2.66386 0.171,1.27582 0.07,1.93873 -0.284,1.93873 -0.299,0 -0.543,-0.54294 -0.543,-1.20654 0,-1.14408 -0.106,-1.19174 -2.042,-0.92064 -3.166,0.44335 -3.242,0.50512 -3.242,2.61632 0,1.71235 -0.105,1.90188 -0.826,1.49832 -0.614,-0.34376 -0.789,-0.96686 -0.683,-2.43449 0.133,-1.83582 0.03,-2.0177 -1.456,-2.62498 -2.596,-1.05956 -6.162,-1.43679 -6.162,-0.65182 0,0.36198 -0.337,1.07773 -0.749,1.59055 -0.698,0.86843 -0.735,0.76056 -0.552,-1.57204 0.178,-2.27212 0.06,-2.64332 -1.268,-4.00138 -1.759,-1.79967 -4.95,-3.50785 -5.884,-3.14967 -0.402,0.15438 -0.674,0.9423 -0.674,1.9549 0,0.93296 -0.193,1.69629 -0.429,1.69629 -0.85,0 -0.959,-1.46157 -0.277,-3.71114 l 0.695,-2.29318 -2.276,-2.10496 c -1.252,-1.15773 -3.032,-2.36491 -3.957,-2.68263 -1.163,-0.3994 -2.972,-2.04733 -5.865,-5.34039 -3.314,-3.77212 -4.863,-5.1247 -7.446,-6.50299 -3.727,-1.98868 -5.86,-3.97438 -8.545,-7.95533 -2.58,-3.82369 -8.306,-10.32976 -10.221,-11.61253 -0.867,-0.58021 -2.863,-1.38491 -4.438,-1.78822 -2.731,-0.69981 -3.197,-0.67405 -10.193,0.56389 -8.748,1.54792 -9.8,1.56908 -13.71,0.27591 -1.659,-0.54861 -4.253,-1.23788 -5.764,-1.5317 -2.61,-0.5074 -3.001,-0.44604 -7.775,1.22232 -6.128,2.14156 -7.821,3.00617 -10.504,5.36517 -1.919,1.68785 -2.185,2.22068 -3.427,6.87331 -0.741,2.774 -2.445,7.65805 -3.787,10.85346 -3.082,7.34174 -3.453,9.37084 -2.06,11.25517 0.565,0.76417 1.027,1.90809 1.027,2.54203 0,0.63394 0.646,2.42598 1.435,3.9823 0.79,1.55632 1.438,3.07846 1.441,3.38252 0,0.30406 2.006,2.41964 4.45,4.70128 4.373,4.08348 4.454,4.13221 5.164,3.11207 1.59,-2.28758 5.466,-6.20464 6.139,-6.20464 0.436,0 -0.124,0.89894 -1.428,2.2935 -1.18,1.26142 -2.556,2.93663 -3.057,3.72268 -0.502,0.78605 -1.11,1.56947 -1.353,1.74093 -0.505,0.35673 2.149,1.84981 3.288,1.84981 1.555,0 6.806,2.77882 8.055,4.26315 0.713,0.84761 2.006,1.78291 2.872,2.07843 0.866,0.29552 2.891,1.7592 4.499,3.25263 2.945,2.73459 5.198,4.03694 9.503,5.49361 4.186,1.41615 5.474,0.11605 4.605,-4.65024 -0.569,-3.12421 -1.43,-6.14127 -2.911,-10.19741 -0.482,-1.32095 -0.993,-2.99616 -1.134,-3.72268 -0.142,-0.72652 -0.37,-1.86134 -0.507,-2.52181 -0.137,-0.66048 -0.569,-1.20087 -0.961,-1.20087 -0.982,0 -0.891,-1.12894 0.168,-2.08711 1.413,-1.27879 1.925,-0.94103 2.253,1.48668 0.362,2.6735 1.018,5.23615 3.107,12.12873 2.344,7.73337 2.546,9.52392 1.287,11.39597 -1.729,2.57255 -3.727,2.57856 -9.429,0.0284 -2.934,-1.31214 -5.701,-3.26828 -8.855,-6.26061 -0.766,-0.72652 -1.776,-1.32095 -2.243,-1.32095 -1.509,0 -2.33,-0.54148 -3.369,-2.22415 -1.166,-1.8858 -3.255,-3.07446 -7.479,-4.25489 -2.712,-0.75804 -3.429,-1.28254 -8.771,-6.41987 -3.2,-3.07692 -5.816,-5.97373 -5.813,-6.43735 0,-0.46363 -0.535,-1.96314 -1.196,-3.33224 -0.66,-1.36909 -1.201,-3.07081 -1.201,-3.78159 0,-0.71078 -0.31,-1.54988 -0.689,-1.86467 -1.062,-0.88082 -1.336,-3.0171 -0.72,-5.6034 0.653,-2.74123 3.554,-10.3832 4.511,-11.88226 0.893,-1.39883 2.182,-5.92575 2.182,-7.66112 0,-1.29386 -0.108,-1.38403 -1.321,-1.09606 -8.498,2.01866 -25.104,1.05563 -32.084,-1.8606 -0.893,-0.3732 -2.659,-0.81425 -3.924,-0.9801 -1.265,-0.16585 -3.247,-0.6417 -4.406,-1.05743 -3.217,-1.15434 -8.015,-1.07981 -10.623,0.16499 -3.388,1.6175 -8.819,7.5642 -10.744,11.76483 -5.322,11.6102 -5.922,14.14317 -5.199,21.96071 0.285,3.07535 0.756,6.56425 1.047,7.7531 0.291,1.18886 0.746,3.02618 1.01,4.08294 0.265,1.05676 0.701,3.00216 0.97,4.32311 0.269,1.32095 1.001,4.0229 1.626,6.00432 0.625,1.98143 1.59,5.22376 2.144,7.20519 1.524,5.45426 1.958,6.74398 3.188,9.47403 0.621,1.37996 1.264,3.10921 1.428,3.84277 0.163,0.73355 0.577,1.9822 0.92,2.77477 0.343,0.79257 1.278,2.95413 2.079,4.80346 0.801,1.84933 1.616,4.00391 1.812,4.78796 0.196,0.78405 1.479,3.81022 2.852,6.72484 1.373,2.91461 2.628,5.67757 2.789,6.1399 0.282,0.80972 1.062,1.04708 2.845,0.86572 0.462,-0.047 0.84,0.1288 0.84,0.39072 0,0.79666 -1.453,1.98589 -2.427,1.98589 -0.564,0 -1.004,0.41591 -1.142,1.08078 -0.124,0.59443 -0.785,3.99887 -1.469,7.56544 -1.336,6.96661 -2.74,13.1718 -3.867,17.09449 -0.386,1.34417 -0.702,2.92847 -0.702,3.52067 0,0.94539 0.175,1.03829 1.435,0.76163 1.226,-0.26921 1.516,-0.13491 1.998,0.92253 0.696,1.52715 0.841,1.5257 2.311,-0.0231 1.023,-1.07758 1.454,-1.20669 3.222,-0.96444 1.122,0.15383 2.166,0.077 2.319,-0.17081 0.569,-0.92021 3.763,-1.45223 5.326,-0.88706 1.306,0.47244 1.631,0.41261 2.505,-0.46205 0.553,-0.55262 1.734,-1.14148 2.625,-1.30857 1.861,-0.34911 1.858,-0.30306 0.485,-7.43531 -0.449,-2.33291 -0.778,-6.39327 -0.769,-9.4731 0.02,-4.87768 0.155,-5.72258 1.463,-8.8864 2.531,-6.11698 2.557,-6.31732 1.601,-12.14245 -0.477,-2.90609 -1.326,-6.7962 -1.886,-8.64469 -1.102,-3.63491 -1.442,-10.8093 -0.512,-10.8093 0.279,0 1.63,1.10917 3.002,2.46482 2.406,2.37653 4.743,3.71698 7.779,4.46218 0.793,0.19451 2.738,0.95179 4.323,1.68284 4.18,1.92746 5.577,2.28403 12.249,3.12499 10.072,1.26952 16.845,1.78592 21.335,1.62662 3.1,-0.10999 4.338,0.013 4.483,0.44553 0.471,1.41009 -3.171,1.86625 -10.687,1.33883 -16.225,-1.1385 -22.767,-2.09662 -26.419,-3.86933 -1.321,-0.64115 -4.435,-1.91771 -6.92,-2.83678 -2.793,-1.03324 -5.097,-2.23266 -6.036,-3.14244 -2.56,-2.4819 -2.586,-1.52006 -0.194,7.15494 0.76,2.75377 1.381,5.50975 1.381,6.12441 0,0.61466 0.194,1.11756 0.431,1.11756 0.897,0 5.322,-5.49073 5.955,-7.38703 0.708,-2.12442 1.925,-2.64709 2.17,-0.93145 0.23,1.61861 -1.156,3.83986 -4.795,7.68489 -1.833,1.93687 -3.194,3.74666 -3.024,4.02176 0.444,0.7181 -0.655,5.05527 -2.061,8.14012 -0.8,1.75311 -1.346,4.09629 -1.622,6.96501 -0.421,4.35591 -0.257,6.46029 1.337,17.19659 l 0.771,5.18794 -1.069,1.13801 c -1.321,1.40551 -2.515,1.88427 -7.7,3.0866 -5.764,1.33692 -8.121,1.53528 -10.339,0.87011 z m 3.047,-2.62136 c 0.124,-0.86819 -0.08,-1.08078 -1.021,-1.08078 -1.554,0 -2.729,1.32245 -1.743,1.96074 1.159,0.75029 2.598,0.29219 2.764,-0.87996 z m 6.516,-0.12518 c 0.788,-0.76339 -0.123,-1.91629 -1.514,-1.91629 -1.58,0 -2.513,0.76878 -2.513,2.07091 0,0.7995 0.233,0.87533 1.801,0.58707 0.991,-0.18206 1.992,-0.51582 2.226,-0.74169 z m 5.797,-1.51305 c 1.554,-0.70794 1.555,-1.26246 0,-1.65189 -1.186,-0.29752 -3.103,0.81693 -3.103,1.80344 0,0.58192 1.669,0.50033 3.099,-0.15155 z m -34.192,-12.77214 c 0.103,-0.19814 -0.28,-1.31446 -0.85,-2.4807 l -1.036,-2.12044 -0.803,1.14654 c -1.035,1.4768 -1.021,2.67968 0.04,3.29604 0.998,0.58122 2.39,0.66444 2.652,0.15856 z m 6.889,-0.11353 c 1.466,-0.005 2.444,-0.37862 3.789,-1.44759 0.997,-0.79257 2.168,-1.44104 2.601,-1.44104 0.617,0 0.971,-1.01068 1.639,-4.68337 0.469,-2.57585 0.956,-5.22376 1.082,-5.88423 0.858,-4.48906 0.793,-6.72699 -0.269,-9.34474 -0.595,-1.46515 -1.355,-2.6639 -1.688,-2.6639 -0.334,0 -0.888,0.7025 -1.233,1.56112 -0.744,1.85348 -6.889,11.70336 -8.181,13.11251 -0.496,0.54108 -1.023,1.72994 -1.171,2.6419 -0.148,0.91196 -0.503,2.89026 -0.788,4.3962 -0.635,3.3468 -0.317,4.44606 1.169,4.04781 0.591,-0.15846 1.964,-0.29106 3.05,-0.29467 z m 6.431,-0.007 c 0,-0.26419 -0.216,-0.48034 -0.48,-0.48034 -0.265,0 -0.481,0.21615 -0.481,0.48034 0,0.26419 0.216,0.48035 0.481,0.48035 0.264,0 0.48,-0.21616 0.48,-0.48035 z m -11.899,-4.69104 c 0.122,-0.46655 0.05,-1.27713 -0.15,-1.80129 -0.205,-0.52416 -0.388,-1.64277 -0.406,-2.4858 -0.02,-0.84302 -0.25,-1.66636 -0.515,-1.82964 -0.566,-0.35014 -0.567,-0.1891 -0.02,2.6419 0.264,1.365 0.241,2.37506 -0.06,2.74094 -0.495,0.59835 -0.162,1.58217 0.536,1.58217 0.218,0 0.496,-0.38173 0.618,-0.84828 z m -2.731,-5.21518 c -0.18,-0.95719 -0.507,-2.092 -0.727,-2.52181 -0.522,-1.01696 -1.404,-4.29566 -1.567,-5.8251 -0.11,-1.0298 0.04,-1.17784 1.072,-1.03925 1.542,0.20742 1.683,0.37143 2.558,2.96063 0.402,1.18886 1.063,2.9181 1.469,3.84277 l 0.739,1.68121 0.01,-1.44104 c 0.02,-1.88162 -1.157,-5.71074 -2.337,-7.61654 -1.194,-1.92956 -3.781,-4.41496 -4.18,-4.01612 -0.387,0.38739 -0.321,7.27517 0.09,9.13759 0.393,1.78696 2.503,6.57801 2.898,6.57801 0.164,0 0.152,-0.78316 -0.03,-1.74035 z m 9.19,-9.04371 c 1.803,-2.76096 3.796,-5.84117 4.429,-6.84493 l 1.151,-1.82501 -1.268,-3.70468 c -0.698,-2.03758 -1.88,-5.06376 -2.628,-6.72484 -0.747,-1.66109 -1.633,-3.7767 -1.969,-4.70136 -0.336,-0.92467 -1.227,-2.97815 -1.981,-4.56329 -1.479,-3.11104 -2.824,-6.86111 -3.172,-8.84698 -0.12,-0.68215 -0.833,-3.29375 -1.585,-5.80356 -0.752,-2.5098 -1.502,-5.15771 -1.667,-5.88423 -0.387,-1.71035 -0.83,-1.6667 -1.927,0.18994 -0.769,1.30306 -0.854,2.17897 -0.617,6.36802 0.151,2.67142 0.752,6.69291 1.335,8.93663 0.936,3.60026 1.028,4.86948 0.789,10.80433 -0.149,3.69866 -0.481,7.27586 -0.738,7.94933 -0.256,0.67347 -0.618,2.63629 -0.803,4.36182 -0.328,3.06369 -0.299,3.17589 1.199,4.77983 2.279,2.44012 3.668,4.68196 4.811,7.7669 0.563,1.5191 1.1,2.76199 1.193,2.76199 0.09,0 1.645,-2.25896 3.448,-5.01991 z m 104.363,-26.36653 c 0.235,-0.61857 0.577,-2.18569 0.759,-3.4825 l 0.332,-2.35784 -1.724,1.68121 c -1.662,1.62066 -1.704,1.74608 -1.171,3.4825 0.636,2.07119 1.194,2.28059 1.804,0.67663 z m -116.146,-7.60307 c -0.52,-2.20078 -1.099,-6.19039 -1.286,-8.8658 l -0.34,-4.86438 1.793,-3.05897 c 1.613,-2.75329 1.739,-3.20662 1.258,-4.53646 -0.294,-0.81262 -0.534,-1.93574 -0.534,-2.49582 0,-1.94093 -0.974,-1.60583 -2.021,0.69552 -0.923,2.02907 -1.051,3.13635 -1.047,9.03723 0,7.61205 0.627,12.99472 1.92,16.58904 1.246,3.46416 1.373,2.22372 0.257,-2.50036 z m 133.975,59.52428 c 0.538,-1.90845 1.854,-3.04786 4.403,-3.8115 1.703,-0.51028 2.301,-0.44857 4.987,0.51478 l 3.052,1.09456 1.398,-0.99549 c 1.478,-1.05231 6.299,-1.57359 7.81,-0.84452 0.605,0.29181 0.841,0.0716 1.046,-0.97261 0.579,-2.95923 2.127,-7.5517 2.598,-7.70863 0.908,-0.30272 1.1,1.34105 0.366,3.14335 -0.397,0.97595 -1.313,2.97697 -2.036,4.44672 -1.296,2.63295 -1.347,2.67306 -3.477,2.72561 -4.049,0.0999 -5.241,0.36562 -5.943,1.32528 -0.696,0.95172 -0.719,0.952 -3.023,0.0365 -3.219,-1.27909 -7.265,-1.57483 -7.655,-0.55948 -0.162,0.42067 -0.59,0.76486 -0.952,0.76486 -0.362,0 -1.012,0.54039 -1.445,1.20086 -1.097,1.67504 -1.653,1.49769 -1.129,-0.36026 z m -89.708,-2.11628 c -0.414,-1.07957 1.495,-2.56709 3.295,-2.56709 0.776,0 2.06,0.33538 2.853,0.74527 1.806,0.93406 2.782,0.62568 5.521,-1.74465 1.815,-1.5714 2.516,-1.88151 4.19,-1.85354 1.105,0.0185 2.793,-0.10905 3.75,-0.28338 1.442,-0.26276 1.918,-0.12595 2.781,0.79999 1.044,1.12099 1.191,2.84069 0.269,3.14367 -0.272,0.0891 -0.739,-0.48835 -1.039,-1.28333 -0.667,-1.76659 -2.217,-1.92581 -3.847,-0.39501 -0.863,0.81047 -1.248,0.92019 -1.688,0.48035 -0.96,-0.95975 -1.939,-0.64837 -3.86,1.22818 -1.69,1.64954 -2.049,1.79101 -4.344,1.71072 -4.938,-0.17275 -5.839,-0.12392 -6.304,0.34169 -0.69,0.69022 -1.23,0.57965 -1.577,-0.32287 z m 120.772,0.50396 c -0.561,-0.56151 -0.422,-0.931 0.886,-2.34215 1.719,-1.85452 2.393,-0.88509 0.766,1.10125 -0.717,0.87449 -1.46,1.43289 -1.652,1.2409 z m -3.028,-1.79351 c -0.262,-0.68329 2.095,-4.63995 2.764,-4.63995 0.764,0 0.382,1.48142 -0.869,3.37271 -1.396,2.10926 -1.536,2.20275 -1.895,1.26724 z m -3.085,-0.54274 c 0,-0.38261 2.473,-8.08405 3.452,-10.75085 0.333,-0.90623 0.549,-1.01819 1.094,-0.56609 0.58,0.48141 0.531,0.96117 -0.335,3.29121 -0.557,1.50021 -1.265,3.05188 -1.572,3.44817 -0.308,0.39628 -0.846,1.47706 -1.196,2.40173 -0.654,1.72815 -1.443,2.91763 -1.443,2.17583 z m -81.78,-0.5985 c -0.726,-0.11006 -1.321,-0.42596 -1.321,-0.702 0,-0.31345 -0.631,-0.38348 -1.681,-0.18651 -1.244,0.23348 -1.681,0.14756 -1.681,-0.33081 0,-1.85461 2.608,-2.31188 5.044,-0.88447 1.301,0.76273 2.323,2.55181 1.356,2.37587 -0.218,-0.0396 -0.99,-0.16202 -1.717,-0.27208 z m -8.774,-3.73889 c 1.264,-8.24726 1.605,-9.95536 2.087,-10.43656 0.871,-0.87115 1.174,-0.10006 0.642,1.63429 -0.27,0.8784 -0.856,3.32633 -1.303,5.43985 -0.886,4.18674 -1.93,6.64968 -1.426,3.36242 z m 2.17,0.94527 c 0,-0.14058 0.326,-1.03565 0.724,-1.98903 0.398,-0.95339 0.861,-2.89792 1.028,-4.32119 0.28,-2.37936 0.834,-3.49712 1.435,-2.89579 0.471,0.47059 -2.176,9.46161 -2.785,9.46161 -0.221,0 -0.402,-0.11502 -0.402,-0.2556 z m 42.584,-7.66572 c -1.663,-1.66248 -2.078,-5.7075 -0.974,-9.49121 0.565,-1.93943 1.093,-0.61611 0.903,2.26477 -0.339,5.15169 1.174,7.47639 3.322,5.10298 1.088,-1.20275 0.844,-3.57499 -0.392,-3.80971 -0.786,-0.14932 -0.869,0.0346 -0.606,1.35107 0.256,1.2764 0.169,1.49822 -0.53,1.36567 -1.141,-0.21612 -1.378,-2.90183 -0.347,-3.93289 1.058,-1.05773 1.929,-0.98162 3.095,0.2705 1.56,1.67461 1.328,4.482 -0.512,6.20137 -1.656,1.5464 -2.881,1.75604 -3.959,0.67745 z m -78.185,-10.8668 c -0.872,-0.87206 -0.97,-1.35788 -0.693,-3.44304 0.177,-1.33524 0.623,-3.14797 0.991,-4.0283 0.818,-1.95769 1.829,-2.16166 1.386,-0.27964 -0.501,2.1273 -0.484,2.18204 0.773,2.50927 1.048,0.2731 1.195,0.5666 1.159,2.31941 -0.03,1.4671 -0.34,2.26636 -1.154,2.97218 -1.361,1.18038 -1.229,1.18306 -2.462,-0.0499 z m -0.866,-15.46971 c -0.549,-1.2046 -1.215,-2.32412 -1.48,-2.48783 -0.624,-0.38604 -0.625,-2.97734 0,-3.3632 0.264,-0.16328 0.48,-0.0543 0.48,0.24209 0,0.29643 0.678,1.94428 1.507,3.66189 1.057,2.192 1.355,3.2741 0.999,3.63008 -0.356,0.35597 -0.805,-0.14573 -1.505,-1.68303 z m 21.958,-6.48992 c -1.862,-2.21288 -4.333,-6.72371 -3.988,-7.28101 0.542,-0.87682 1.101,-0.51187 1.648,1.07498 0.296,0.85861 1.311,2.68781 2.255,4.06487 1.946,2.83889 2.01,4.42787 0.08,2.14116 z m -22.225,-2.54853 c -1.211,-2.50937 -1.201,-3.80247 0.02,-2.78823 0.369,0.30561 0.866,1.23477 1.106,2.06479 0.241,0.83002 0.592,1.88741 0.781,2.34974 0.204,0.50066 0.129,0.8406 -0.187,0.8406 -0.292,0 -1.066,-1.1101 -1.721,-2.4669 z m 13.195,0.0119 c -4.975,-3.33794 -6.77,-6.00798 -7.095,-10.55282 -0.303,-4.23076 0.618,-4.81963 1.008,-0.64461 0.215,2.298 0.649,3.66192 1.629,5.12154 1.275,1.8961 5.542,5.74707 6.929,6.2517 0.442,0.16113 0.498,0.40455 0.171,0.75563 -0.339,0.36442 -1.122,0.0883 -2.642,-0.93144 z m 4.014,-0.074 c -1.609,-1.73042 -4.493,-6.17507 -4.493,-6.92542 0,-0.26616 -0.432,-0.87517 -0.961,-1.35334 -1.086,-0.98321 -1.288,-2.6419 -0.322,-2.6419 0.351,0 1.162,1.13382 1.802,2.51961 0.639,1.38578 2.213,4.09994 3.497,6.03147 2.548,3.83308 2.744,4.80656 0.477,2.36958 z m 34.428,-31.42022 c 0.02,-0.73281 2.792,-3.75501 3.13,-3.41719 0.502,0.5019 -1.392,3.47547 -2.328,3.6558 -0.448,0.0863 -0.809,-0.0211 -0.802,-0.23861 z m -16.077,-8.75818 c -0.324,-0.52302 0.168,-1.96473 0.67,-1.96473 0.195,0 1.589,-1.08077 3.099,-2.40172 4.245,-3.71481 4.681,-2.84909 0.605,1.20086 -1.995,1.98143 -3.734,3.60259 -3.865,3.60259 -0.132,0 -0.361,-0.19665 -0.509,-0.437 z m 86.79,-6.88827 c -0.141,-1.68633 0.844,-4.20302 1.644,-4.20302 0.398,0 0.61,0.27019 0.471,0.60043 -0.139,0.33024 -0.507,1.51909 -0.818,2.6419 -0.62,2.24146 -1.157,2.63924 -1.297,0.96069 z m -91.153,-4.22406 c -0.359,-0.5806 0.595,-1.89323 1.392,-1.91542 0.298,-0.008 1.833,-0.65676 3.412,-1.44104 2.893,-1.43727 4.575,-1.79911 4.575,-0.98378 0,0.2432 -0.613,0.57693 -1.363,0.74163 -0.75,0.16469 -2.641,1.14845 -4.203,2.18614 -3.101,2.0602 -3.355,2.15431 -3.813,1.41247 z m 56.626,-9.51096 c 0.445,-2.77883 2.422,-7.06704 3.44,-7.45746 1.342,-0.51487 1.269,-0.16853 -0.485,2.29756 -0.965,1.35779 -1.775,3.18443 -1.961,4.42507 -0.174,1.16202 -0.541,2.25129 -0.815,2.42059 -0.331,0.20498 -0.391,-0.35825 -0.179,-1.68576 z m 9.302,1.30153 c -0.979,-0.54819 -1.137,-3.41176 -0.228,-4.14438 0.663,-0.53381 2.461,-0.0299 2.999,0.84019 0.51,0.82588 -0.144,2.80496 -1.095,3.31419 -0.535,0.28605 -1.153,0.28236 -1.676,-0.01 z m -12.66,-2.21705 c 0.139,-0.72652 0.393,-2.45576 0.563,-3.84276 0.21,-1.6993 0.531,-2.52182 0.987,-2.52182 0.792,0 0.81,0.17778 0.236,2.40173 -0.239,0.92467 -0.572,2.49179 -0.74,3.48251 -0.168,0.99071 -0.529,1.80129 -0.802,1.80129 -0.283,0 -0.388,-0.56842 -0.244,-1.32095 z m 8.248,-0.0893 c -0.403,-0.65193 0.474,-4.1742 1.385,-5.56446 0.86,-1.31293 2.431,-1.53125 3.76,-0.52248 0.861,0.65355 1.145,1.73307 0.456,1.73307 -0.211,0 -0.638,-0.25428 -0.949,-0.56507 -0.865,-0.86527 -2.441,0.83091 -3.062,3.29528 -0.508,2.01635 -1.022,2.54191 -1.59,1.62366 z m -56.94,-2.66033 c 0,-2.08119 7.146,-3.24552 9.095,-1.48185 0.546,0.49384 0.992,1.05353 0.992,1.24375 0,0.50967 -2.577,0.936 -3.771,0.62379 -1.345,-0.3516 -1.32,-0.99634 0.05,-1.25989 0.713,-0.13741 0.503,-0.23041 -0.619,-0.27358 -0.935,-0.036 -2.548,0.36689 -3.584,0.89527 -2.252,1.14779 -2.162,1.13731 -2.162,0.25251 z m 35.546,-2.52162 c -3.408,-1.07658 -8.056,-4.01162 -10.144,-6.4057 -1.893,-2.16972 -2.895,-2.86871 -5.34,-3.72754 -4.985,-1.75094 -7.409,-1.32889 -13.951,2.42904 -2.318,1.33215 -4.354,2.28379 -4.523,2.11476 -0.169,-0.16903 -0.217,-0.37723 -0.107,-0.46267 6.693,-5.19488 10.26,-7.01881 13.765,-7.03843 1.12,-0.006 3.498,0.56035 5.284,1.25917 2.528,0.98936 3.902,1.94 6.206,4.29517 1.982,2.02586 4.123,3.60757 6.485,4.79006 1.939,0.971 3.619,1.85179 3.734,1.95732 0.415,0.38261 -0.707,1.01068 -1.409,0.78882 z m 13.444,-5.5365 c -1.027,-1.68469 -1.288,-3.91367 -0.424,-3.62581 0.292,0.0973 0.803,0.92591 1.136,1.84132 0.333,0.91542 0.765,2.04267 0.961,2.50501 0.629,1.48284 -0.671,0.92313 -1.673,-0.72052 z m 2.484,-0.47551 c -0.656,-0.65659 -0.751,-2.76683 -0.124,-2.76683 0.579,0 1.534,2.79722 1.056,3.09246 -0.206,0.12739 -0.625,-0.0191 -0.932,-0.32563 z"
         id="path1" /></g></g></svg>
