<?xml version="1.0" encoding="UTF-8" standalone="no"?>
<!-- Created with Inkscape (http://www.inkscape.org/) -->

<svg
   width="231.38646"
   height="235.24007"
   viewBox="0 0 61.221 62.240601"
   version="1.1"
   id="svg1"
   xml:space="preserve"
   xmlns="http://www.w3.org/2000/svg"
   xmlns:svg="http://www.w3.org/2000/svg"><defs
     id="defs1" /><g
     id="g2047"
     transform="matrix(0.26458333,0,0,0.26458333,-5299.2671,-10.12824)"><g
       id="g2093"
       transform="translate(460.8992,-704.80001)"><path
         style="fill:#000000"
         d="m 19651.854,958.04768 c -0.507,-0.50625 0.137,-1.13555 1.162,-1.13555 1.508,0 3.797,-1.3847 3.797,-2.29739 0,-0.82526 1.637,-2.3293 5.065,-4.65514 3.53,-2.39465 5.478,-4.4685 6.694,-7.1258 0.679,-1.48343 1.234,-3.06098 1.234,-3.50567 0,-0.57815 0.281,-0.73507 0.986,-0.55073 0.719,0.18806 0.965,0.0406 0.907,-0.54522 -0.23,-2.33956 0.08,-3.9299 0.754,-3.9299 0.397,0 0.721,-0.22925 0.721,-0.50945 0,-0.2802 -0.21,-0.37959 -0.467,-0.22086 -0.758,0.46876 -1.124,-2.01103 -0.785,-5.32336 0.241,-2.34985 0.17,-3.08593 -0.298,-3.08418 -0.454,0.002 -0.629,1.25679 -0.668,4.80554 -0.08,7.45479 -1.546,10.35353 -9.09,18.00441 -3.311,3.35822 -11.563,9.41881 -12.824,9.41881 -0.225,0 -0.409,-0.32344 -0.409,-0.71876 0,-0.39531 1.889,-1.93692 4.197,-3.42579 5.464,-3.52368 10.02,-7.96687 13.449,-13.11682 l 2.76,-4.14583 0.188,-5.5322 c 0.219,-6.43356 -0.199,-8.038 -2.15,-8.26393 -1.153,-0.13339 -1.392,-0.43943 -1.744,-2.22789 -0.423,-2.1561 -1.197,-2.46321 -1.97,-0.78198 -0.236,0.51205 -1.102,1.36396 -1.925,1.89312 -0.823,0.52917 -1.948,1.90115 -2.499,3.04886 -1.314,2.7363 -4.239,5.70999 -5.995,6.09564 -0.77,0.16899 -3,-0.0486 -4.956,-0.48363 -3.219,-0.71607 -3.723,-0.72092 -5.326,-0.0512 -1.346,0.56235 -1.825,0.59926 -1.995,0.15402 -0.151,-0.39413 -1.117,-0.53006 -2.954,-0.41573 -1.703,0.10599 -3.799,-0.15366 -5.572,-0.69054 -2.44,-0.73848 -3.058,-0.77105 -4.364,-0.22981 -2.961,1.22796 -4.292,1.16521 -6.206,-0.29276 -0.984,-0.74914 -2.277,-1.71234 -2.873,-2.14046 -1.249,-0.89777 -1.273,-2.29481 -0.1,-5.83619 0.886,-2.67369 2.26,-3.21548 1.83,-0.72159 -0.149,0.85989 -0.477,2.21287 -0.729,3.00662 -0.395,1.24013 -0.304,1.55873 0.643,2.26439 0.606,0.45167 1.708,1.28921 2.45,1.86121 l 1.348,1.03999 2.641,-1.0102 2.64,-1.0102 2.508,0.95273 c 1.405,0.53386 3.681,0.95284 5.178,0.95298 1.469,1.3e-4 2.89,0.22006 3.159,0.48872 0.331,0.33061 0.994,0.23664 2.051,-0.29072 1.025,-0.51122 2.09,-0.6711 3.097,-0.46485 0.843,0.1729 2.941,0.43128 4.661,0.57418 2.624,0.21796 3.266,0.11728 3.985,-0.62496 1.657,-1.71127 2.752,-3.2024 2.752,-3.74712 0,-0.67615 3.461,-4.11304 4.142,-4.11304 0.271,0 0.845,-0.73917 1.276,-1.6426 1.43,-2.99875 3.819,-2.73523 4.424,0.48798 0.19,1.01217 0.551,1.61553 0.893,1.49453 0.315,-0.11161 0.502,-0.61259 0.414,-1.11328 -0.631,-3.60218 -0.612,-3.84422 0.396,-5.12513 1.61,-2.04638 3.373,-1.56604 3.373,0.91913 0,0.47765 -0.297,0.62054 -0.895,0.43085 -1.07,-0.33954 -2.22,0.85781 -1.821,1.89656 0.37,0.96388 1.753,0.93709 1.753,-0.034 0,-0.41893 0.271,-0.6726 0.602,-0.56372 0.342,0.11257 0.666,1.21391 0.752,2.55344 0.17,2.63774 0.761,3.6641 1.867,3.2397 0.662,-0.25374 0.705,0.53464 0.39,7.05127 l -0.356,7.33695 1.019,-0.54528 c 1.146,-0.61292 1.253,-0.40223 0.504,0.99599 -0.575,1.07373 -2.122,10.92933 -1.77,11.28042 0.122,0.12289 0.553,0.0969 0.956,-0.0577 1.462,-0.56099 2.236,-6.11884 2.227,-16.00421 0,-9.21707 -0.02,-9.29108 -1.113,-9.79072 -1.771,-0.8069 -3.088,-6.65875 -1.498,-6.65875 0.452,0 0.805,0.75401 1.018,2.17165 0.242,1.61243 0.671,2.41762 1.668,3.12689 1.441,1.02611 3.652,1.27755 3.929,0.44687 0.09,-0.27962 1.085,-0.91819 2.204,-1.41905 l 2.035,-0.91066 2.154,1.86358 c 2.852,2.46827 3.908,2.76958 5.259,1.50098 1.284,-1.20576 2.327,-1.27061 3.897,-0.24226 0.977,0.63981 1.57,0.67917 3.618,0.24009 1.773,-0.38015 3.028,-0.37949 4.545,0.002 1.922,0.48378 2.284,0.41749 4.36,-0.79905 l 2.265,-1.32659 1.536,1.82938 1.536,1.82939 2.997,-0.52761 c 1.647,-0.29018 3.326,-0.40076 3.731,-0.24573 0.404,0.15503 1.062,1.09982 1.462,2.09952 0.955,2.38557 2.664,3.09702 6.481,2.69815 1.593,-0.16644 3.912,-0.0733 5.153,0.20705 1.864,0.42094 2.709,0.35736 4.85,-0.36518 1.447,-0.48813 2.906,-1.35026 3.299,-1.95033 0.714,-1.08686 0.463,-2.39968 -1.381,-7.24545 -0.748,-1.9665 -0.456,-2.96737 1.483,-5.06968 2,-2.16943 2.13,-3.21332 0.668,-5.35753 -1.023,-1.50049 -0.79,-2.03239 0.789,-1.80078 1.164,0.17083 1.519,-0.004 1.881,-0.92517 0.245,-0.62467 1.522,-2.33139 2.837,-3.79271 2.095,-2.32803 2.384,-2.90368 2.338,-4.65001 -0.06,-2.33981 0.982,-3.75132 3.082,-4.17125 1.573,-0.31441 1.797,-1.24839 0.753,-3.13144 -0.374,-0.67439 -0.51,-1.74028 -0.332,-2.60987 0.401,-1.95805 1.384,-2.27198 1.103,-0.3518 -0.119,0.80403 0.148,2.21909 0.594,3.15889 1.099,2.31505 0.834,3.11273 -1.421,4.28037 -1.81,0.93705 -1.94,1.14991 -2.183,3.57187 -0.151,1.50162 -0.568,2.80443 -0.999,3.12464 -0.407,0.30205 -1.15,1.19862 -1.652,1.99237 -0.502,0.79375 -1.725,2.42437 -2.718,3.62359 -1.721,2.07793 -1.78,2.264 -1.26,3.95867 0.538,1.75222 0.514,1.80882 -1.697,3.86646 -1.233,1.14852 -2.242,2.28956 -2.24,2.53566 0,0.86149 1.008,4.31204 1.767,6.08291 1.164,2.71316 0.267,4.42727 -3.193,6.10309 -2.592,1.25518 -3.008,1.31006 -9.031,1.19229 -5.787,-0.11317 -6.472,-0.22342 -8.215,-1.3238 -1.102,-0.69511 -2.033,-1.72001 -2.212,-2.43495 -0.274,-1.08922 -0.557,-1.2346 -2.408,-1.2346 -1.639,0 -2.257,0.23679 -2.826,1.08238 l -0.728,1.08239 -0.579,-1.20265 c -0.318,-0.66146 -1.211,-1.70901 -1.984,-2.3279 l -1.406,-1.12524 -2.544,1.05394 c -2.045,0.84754 -2.869,0.96458 -4.203,0.59765 -1.069,-0.29397 -2.714,-0.2814 -4.623,0.0353 -2.483,0.41198 -3.153,0.36685 -4.139,-0.27864 -1.083,-0.70929 -1.283,-0.70564 -2.526,0.0461 l -1.35,0.8163 -0.134,6.7132 -0.134,6.7132 5.399,5.30325 c 2.97,2.91678 6.474,6.78573 7.789,8.59765 1.46,2.01237 3.092,3.65424 4.194,4.21906 1.826,0.93538 2.381,1.86722 1.113,1.86722 -1.226,0 -8.089,-2.8314 -9.128,-3.76602 -1.695,-1.5241 -6.823,-3.80981 -7.355,-3.27825 -0.1,0.0968 0.04,0.73954 0.3,1.42832 0.581,1.52635 0.06,1.93648 -1.643,1.28985 -0.701,-0.26648 -1.964,-0.48588 -2.807,-0.48756 -0.849,-0.002 -3.368,-0.93347 -5.65,-2.08981 -4.07,-2.06339 -5.565,-2.2569 -6.444,-0.83447 -0.752,1.2169 -6.994,4.37052 -8.651,4.37052 -0.946,0 -1.72,-0.1862 -1.72,-0.41378 0,-0.22757 0.758,-1.21713 1.684,-2.19902 0.926,-0.98189 1.684,-1.96269 1.684,-2.17955 0,-0.7728 -7.007,2.46562 -8.662,4.0029 -3.166,2.94261 -8.555,5.06531 -9.771,3.84924 z m 51.782,-4.62324 c -2.563,-3.39414 -4.689,-5.67888 -7.562,-8.12682 -3.723,-3.17161 -6.007,-5.93335 -6.038,-7.29954 -0.01,-0.64986 -0.264,-0.79657 -0.973,-0.57156 -0.925,0.29343 -0.95,0.0952 -0.813,-6.46949 0.121,-5.80424 0.03,-6.87502 -0.654,-7.49155 -0.736,-0.66635 -0.782,-0.214 -0.615,6.14112 0.1,3.77325 0.393,7.50988 0.653,8.30363 0.46,1.40414 2.663,3.90716 7.483,8.50105 1.297,1.23599 3.528,3.45489 4.958,4.93087 1.43,1.47599 2.918,2.68361 3.307,2.68361 0.487,0 0.566,-0.18711 0.254,-0.60132 z m -30.452,-2.05054 c 1.053,-0.66478 1.915,-1.29279 1.915,-1.39557 0,-0.10279 -0.775,-0.16493 -1.722,-0.13809 -1.373,0.0389 -1.862,0.32093 -2.418,1.39556 -0.871,1.68356 -0.282,1.72011 2.225,0.1381 z m 18.258,0.36683 c -0.01,-0.19844 -0.876,-0.95405 -1.925,-1.67914 -1.119,-0.77369 -1.906,-1.706 -1.906,-2.25665 0,-0.51607 -0.211,-1.06846 -0.469,-1.22754 -0.257,-0.15907 -0.703,-1.20012 -0.99,-2.31342 -0.288,-1.11331 -0.809,-2.67363 -1.158,-3.46738 -0.35,-0.79375 -1.149,-2.95853 -1.777,-4.81061 l -1.14,-3.36742 -0.144,2.74783 c -0.198,3.79218 0.484,5.92525 3.252,10.16462 1.31,2.00486 2.721,4.30339 3.137,5.10785 0.534,1.03162 1.108,1.46265 1.948,1.46265 0.654,0 1.182,-0.16236 1.172,-0.36079 z m -5.301,-2.09327 c -0.819,-1.52975 -2.38,-3.13489 -2.38,-2.44725 0,1.12786 -0.95,0.54467 -1.223,-0.75115 -0.154,-0.7276 -0.686,-3.05474 -1.183,-5.1714 -1.187,-5.06163 -1.391,-15.76874 -0.292,-15.34704 0.393,0.1507 0.849,0.95947 1.013,1.79726 0.447,2.27866 3.95,12.58663 5.61,16.50793 1.438,3.39586 1.49,3.45138 4.179,4.40513 5.401,1.9157 5.324,1.92012 3.469,-0.20077 -0.9,-1.02896 -2.194,-2.21488 -2.875,-2.63536 -1.65,-1.01788 -5.811,-5.93069 -5.811,-6.86052 0,-0.40521 -0.227,-0.8769 -0.504,-1.0482 -0.323,-0.19943 -0.453,-2.63848 -0.361,-6.78072 0.118,-5.33911 0.02,-6.54769 -0.578,-6.91817 -0.595,-0.37007 -0.617,-0.61928 -0.121,-1.41917 0.331,-0.53365 0.602,-1.10492 0.602,-1.26948 0,-0.61555 -2.633,0.39127 -3.975,1.51997 -0.991,0.8336 -1.728,1.08697 -2.558,0.87873 l -1.167,-0.29261 -0.03,4.26143 c -0.01,2.34379 0,6.9682 0.02,10.27647 0.03,4.33925 -0.146,6.41662 -0.647,7.45644 -0.382,0.79277 -0.857,1.9809 -1.054,2.64028 -0.315,1.05166 -0.266,1.12186 0.397,0.57166 1.355,-1.12459 4.318,-0.79153 7.103,0.79844 1.423,0.81264 2.668,1.39739 2.766,1.29945 0.1,-0.0979 -0.08,-0.67005 -0.407,-1.27135 z m -16.65,-1.4303 c 2.839,-1.32812 3.202,-1.65204 3.202,-2.85649 0,-0.74717 0.145,-1.73642 0.323,-2.19834 0.219,-0.5726 0.143,-0.72917 -0.241,-0.49202 -0.31,0.19131 -0.563,0.81132 -0.563,1.37778 0,1.50305 -0.856,0.41716 -1.046,-1.32725 -0.15,-1.37448 -0.235,-1.29946 -1.795,1.57607 -0.971,1.79092 -2.44,3.62418 -3.609,4.50618 -1.687,1.27236 -1.791,1.44546 -0.722,1.19951 0.687,-0.1581 2.69,-0.96154 4.451,-1.78544 z m 21.007,-17.28231 c 0,-0.49793 -0.217,-1.03913 -0.481,-1.20265 -0.282,-0.17392 -0.482,0.32518 -0.482,1.20265 0,0.87748 0.2,1.37658 0.482,1.20266 0.264,-0.16353 0.481,-0.70472 0.481,-1.20266 z m -0.356,-3.90173 c -0.358,-1.36836 -0.607,-1.09571 -0.599,0.65458 0,1.06297 0.14,1.35391 0.422,0.90886 0.228,-0.36001 0.308,-1.06357 0.177,-1.56344 z m -16.639,-0.99907 c -0.154,-0.38376 -0.268,-0.26977 -0.291,0.29064 -0.02,0.50712 0.09,0.79124 0.253,0.63139 0.16,-0.15985 0.177,-0.57476 0.04,-0.92203 z m -2.401,-3.14781 c -0.122,-0.46805 -0.23,-0.20157 -0.24,0.59218 -0.01,0.79375 0.09,1.1767 0.222,0.85101 0.132,-0.3257 0.14,-0.97513 0.02,-1.44319 z m 0,-4.0681 c -0.154,-0.38376 -0.268,-0.26977 -0.291,0.29064 -0.02,0.50712 0.09,0.79125 0.253,0.63139 0.16,-0.15985 0.177,-0.57476 0.04,-0.92203 z m -43.317,1.21267 c -1.246,-1.24566 0.928,-2.19031 2.567,-1.1151 0.641,0.42106 0.641,0.52632 0,0.94738 -0.836,0.54858 -2.103,0.63136 -2.567,0.16772 z m 9.901,-0.21165 c -1.276,-0.47196 -1.403,-1.89258 -0.317,-3.55003 1.043,-1.59098 0.541,-2.76543 -1.727,-4.03984 -2.114,-1.1875 -2.813,-2.78679 -2.101,-4.80902 0.242,-0.68788 0.846,-1.32887 1.342,-1.42442 0.718,-0.13825 0.824,0.008 0.518,0.71692 -0.89,2.062 -0.536,3.24528 1.221,4.08009 2.35,1.11695 3.228,2.85751 2.482,4.91959 -0.314,0.86927 -0.572,1.83571 -0.572,2.14766 0,0.89821 1.374,0.65998 2.277,-0.39495 0.454,-0.52917 0.993,-0.96212 1.199,-0.96212 0.558,0 0.452,2.30032 -0.123,2.65551 -1.149,0.71019 -3.195,1.03199 -4.199,0.66061 z m -18.843,-3.98948 c -0.433,-0.52147 -0.356,-1.0369 0.344,-2.28504 0.496,-0.88642 0.902,-2.3037 0.901,-3.14949 0,-1.94864 0.835,-2.95525 3.407,-4.09508 1.147,-0.50852 2.045,-1.23662 2.045,-1.65855 0,-0.41366 -0.975,-1.71247 -2.166,-2.88625 -1.191,-1.17378 -2.165,-2.40808 -2.165,-2.74288 0,-0.3348 -0.65,-1.08887 -1.444,-1.67571 -1.518,-1.12186 -1.921,-3.09629 -0.988,-4.83922 0.331,-0.61695 0.144,-1.468 -0.678,-3.09037 -1.161,-2.29243 -1.15,-3.71455 0.03,-4.6972 0.368,-0.30565 0.67,-0.93974 0.67,-1.40911 0,-0.80598 1.747,-2.52659 4.531,-4.4632 0.684,-0.47537 1.243,-1.24942 1.243,-1.72012 0,-1.19673 -2.293,-3.22002 -3.438,-3.03292 -0.522,0.0854 -1.231,-0.078 -1.575,-0.36326 -0.46,-0.38182 -0.929,-0.28332 -1.776,0.3734 -0.633,0.49061 -2.063,1.03415 -3.177,1.20786 -1.733,0.26999 -2.104,0.17316 -2.553,-0.6672 -0.29,-0.54067 -0.384,-1.43343 -0.209,-1.98391 0.175,-0.55047 0.133,-0.91418 -0.09,-0.80825 -0.226,0.10594 -0.98,0.47897 -1.676,0.82896 -1.084,0.54555 -1.513,0.51837 -3.007,-0.19051 -1.476,-0.70008 -1.743,-1.06646 -1.743,-2.38961 0,-1.02137 0.514,-2.20907 1.483,-3.42844 1.281,-1.61092 1.443,-2.12906 1.192,-3.79437 -0.16,-1.06077 -0.276,-2.86858 -0.258,-4.01736 0.02,-1.14878 -0.209,-2.38044 -0.505,-2.73701 -1.052,-1.2679 -0.327,-3.24559 1.697,-4.62643 1.059,-0.72225 2.466,-1.45146 3.128,-1.62047 1.839,-0.46967 2.886,-1.66903 2.894,-3.31352 0.01,-1.8353 0.306,-2.28594 2.25,-3.4155 1.284,-0.74686 1.491,-1.10558 1.272,-2.20417 -0.334,-1.66975 1.144,-2.72853 4.565,-3.26917 2.883,-0.4555 4.362,-1.34533 6.19,-3.72448 1.325,-1.72416 3.438,-5.45608 4.471,-7.89827 0.285,-0.6729 1.433,-1.82191 2.551,-2.55335 1.692,-1.10716 2.367,-1.28122 4.03,-1.03933 1.529,0.22251 2.374,0.0604 3.609,-0.69201 1.016,-0.61954 2.446,-0.98323 3.869,-0.98437 2.72,-0.002 3.184,-0.55855 1.864,-2.23609 -1.193,-1.51615 -1.25,-2.87834 -0.227,-5.4325 0.59,-1.47562 0.653,-2.27601 0.274,-3.49742 -0.27,-0.87114 -0.606,-3.48648 -0.747,-5.81187 -0.225,-3.71585 -0.145,-4.33847 0.657,-5.14017 0.89,-0.88978 3.781,-1.92872 5.383,-1.93409 0.96,-0.003 2.894,-3.76786 2.998,-5.83779 0.06,-1.15297 0.458,-1.6556 1.987,-2.49473 1.053,-0.57797 2.025,-1.19604 2.16,-1.3735 0.135,-0.17746 0.887,-0.48363 1.671,-0.68038 0.785,-0.19674 1.793,-0.80922 2.241,-1.36105 0.742,-0.91372 1.291,-0.99907 6.148,-0.95551 l 5.334,0.0478 V 782.252 c 0,-1.58692 0.316,-2.09071 2.518,-4.01659 1.385,-1.21114 2.739,-2.20419 3.008,-2.20677 0.819,-0.008 5.231,-2.28524 6.393,-3.29966 0.837,-0.73111 1.193,-1.76051 1.527,-4.42284 0.24,-1.90847 0.76,-3.79374 1.156,-4.18947 0.638,-0.63866 0.704,-0.40142 0.583,2.11088 -0.224,4.64773 -0.804,7.38461 -1.698,8.01408 -0.461,0.32398 -0.979,1.03826 -1.153,1.58729 -0.244,0.77221 -0.622,0.95322 -1.67,0.79945 -1.059,-0.15542 -1.539,0.082 -2.198,1.08867 -0.658,1.00372 -1.1,1.22337 -2.003,0.99667 -0.773,-0.19395 -1.72,0.0723 -2.843,0.79946 -1.659,1.07493 -1.936,1.76065 -1.741,4.30867 0.153,1.98781 -1.533,2.87884 -4.28,2.26148 -2.983,-0.67025 -6.631,-0.6386 -7.479,0.0649 -0.388,0.32244 -0.706,1.01617 -0.706,1.54163 0,0.7747 -0.224,0.8992 -1.184,0.65835 -0.876,-0.21989 -1.314,-0.0539 -1.685,0.63901 -0.303,0.56633 -1.119,0.99554 -2.064,1.08672 -1.259,0.12135 -1.592,0.38485 -1.707,1.35335 -0.08,0.66145 -0.446,1.85208 -0.817,2.64583 -0.371,0.79375 -0.793,2.02047 -0.939,2.72605 -0.224,1.08927 -0.631,1.3615 -2.695,1.80397 -1.337,0.28662 -2.711,0.52112 -3.054,0.52112 -0.343,0 -1.016,0.43383 -1.496,0.96407 -0.738,0.8153 -0.784,1.15951 -0.296,2.23048 0.353,0.77349 0.455,2.08375 0.262,3.36634 -0.231,1.54059 -0.108,2.41556 0.462,3.2848 1.023,1.56105 0.979,2.49266 -0.186,3.9738 -0.529,0.67272 -0.962,1.75511 -0.962,2.4053 0,0.65019 0.433,1.73258 0.962,2.4053 1.247,1.58431 1.216,2.67168 -0.12,4.21423 -0.981,1.13228 -1.227,1.19957 -2.613,0.71324 -1.796,-0.63064 -2.9,-0.19614 -5.375,2.11664 l -1.611,1.50572 -0.733,-1.08239 c -1.388,-2.04868 -4.942,-0.66679 -4.95,1.92425 0,0.69707 -0.516,1.37411 -1.443,1.90187 -1.113,0.63268 -1.441,1.15824 -1.441,2.30564 0,2.90797 -6.165,8.1798 -9.566,8.1798 -2.17,0 -3.08,0.46133 -2.437,1.23574 0.879,1.05883 0.107,2.31903 -2.19,3.57317 -1.857,1.01453 -2.168,1.40046 -2.168,2.69287 0,1.97785 -1.548,3.88568 -3.495,4.30708 -1.95,0.42208 -4.204,1.98166 -4.204,2.90815 0,0.38541 0.541,0.9065 1.203,1.15799 1.458,0.55427 1.506,1.01933 0.226,2.17746 -0.845,0.76488 -0.935,1.24932 -0.668,3.61117 0.245,2.16187 0.11,3.17882 -0.653,4.90182 -0.529,1.19571 -1.203,2.32297 -1.498,2.50503 -0.753,0.46577 -0.667,2.04497 0.129,2.35034 0.365,0.14014 1.394,-0.36909 2.286,-1.13164 2.048,-1.75126 3.661,-1.85357 4.062,-0.25761 0.161,0.64236 0.15,1.61651 -0.02,2.16477 -0.455,1.43292 1.685,1.54511 3.224,0.16909 0.569,-0.50849 1.308,-0.64523 2.355,-0.4359 0.862,0.17244 1.8,0.0772 2.157,-0.2192 0.728,-0.60394 1.801,-0.13386 1.352,0.59235 -0.165,0.26741 0.481,1.20167 1.436,2.07614 1.162,1.06407 1.736,2.01396 1.736,2.87188 0,1.77811 -1.3,4.1174 -2.298,4.13581 -1.36,0.0251 -2.514,1.20678 -2.514,2.57362 0,0.89103 -0.358,1.4431 -1.177,1.8161 -1.756,0.80011 -1.878,1.79586 -0.468,3.83016 1.123,1.61883 1.208,2.01004 0.736,3.36443 -0.749,2.14772 -0.669,2.83221 0.332,2.83221 1.198,0 2.021,0.938 2.021,2.30389 0,0.72384 0.774,1.90196 2.092,3.18223 3.29,3.1968 3.281,6.07569 -0.02,7.00403 -1.007,0.28275 -2.245,0.83186 -2.753,1.22023 -0.884,0.67521 -0.887,0.7471 -0.08,1.64141 0.813,0.89845 0.798,0.97712 -0.376,1.99804 -0.673,0.58453 -1.359,1.68244 -1.526,2.43981 -0.334,1.52315 -0.787,1.71853 -1.629,0.70367 z m 77.434,-1.51145 c -1.455,-0.33483 -2.755,-0.65159 -2.887,-0.70391 -0.132,-0.0523 -0.929,-0.0579 -1.771,-0.0124 -1.172,0.0633 -1.724,-0.21245 -2.356,-1.17671 -0.682,-1.04073 -1.067,-1.20632 -2.218,-0.95358 -1.58,0.3469 -3.76,-0.79353 -3.76,-1.96697 0,-0.39732 -0.572,-0.93968 -1.271,-1.20523 -0.989,-0.37624 -1.46,-0.31094 -2.131,0.29579 -0.979,0.88631 -2.854,0.54068 -2.854,-0.52624 0,-0.99733 1.593,-1.66917 3.938,-1.66085 2.368,0.008 2.735,0.20054 3.913,2.05086 0.698,1.09643 1.154,1.31622 2.538,1.22307 1.332,-0.0897 1.909,0.16126 2.747,1.19323 1.012,1.24767 1.122,1.27415 2.429,0.58545 1.271,-0.66943 1.387,-0.65541 1.609,0.19473 0.183,0.69751 0.956,1.04075 3.242,1.43864 3.845,0.66947 4.377,0.65765 5.015,-0.11151 0.391,-0.47048 0.282,-1.0906 -0.422,-2.40356 -1.629,-3.03825 -1.037,-4.65934 1.702,-4.65934 3.386,0 4.177,-2.18263 2.172,-5.9932 -0.8,-1.51997 -1.454,-2.84231 -1.454,-2.93853 0,-0.0962 0.666,-0.93336 1.48,-1.86031 1.397,-1.59101 1.447,-1.77875 0.877,-3.35317 -0.471,-1.30149 -0.479,-2.08309 -0.04,-3.55858 0.716,-2.38733 0.72,-3.46287 0.01,-3.46287 -0.305,0 -1.355,-0.86591 -2.332,-1.92425 -1.461,-1.58162 -2.096,-1.92424 -3.567,-1.92424 -0.984,0 -2.252,-0.24723 -2.817,-0.5494 -0.865,-0.46317 -1.134,-0.38767 -1.711,0.48106 -0.956,1.439 -1.529,1.28418 -1.529,-0.41272 0,-1.71983 -0.282,-1.7962 -1.424,-0.38613 -0.748,0.92382 -1.353,1.06346 -4.799,1.10792 -2.169,0.028 -4.04,-0.10553 -4.158,-0.29668 -0.118,-0.19115 0.127,-0.68933 0.545,-1.10708 0.692,-0.69201 0.647,-0.80238 -0.508,-1.24143 -3.08,-1.17048 -5.055,0.0414 -5.055,3.10118 0,1.79941 -0.158,2.12503 -1.154,2.37482 -0.634,0.15922 -1.597,0.99014 -2.14,1.8465 -0.841,1.32809 -0.889,1.66451 -0.327,2.28823 1.812,2.01093 1.308,3.88234 -2.229,8.28952 -1.344,1.67357 -1.345,3.91827 0,5.345 1.339,1.42399 1.34,2.36106 0,2.16331 -0.636,-0.0942 -1.414,-0.87856 -2.007,-2.02415 -0.97,-1.87464 -0.888,-3.19896 0.384,-6.18734 0.49,-1.15154 -0.952,-1.11534 -3.776,0.0948 -3.178,1.36187 -5.278,1.64474 -7.16,0.96437 -1.508,-0.54502 -1.81,-0.48717 -3.521,0.6757 -1.03,0.69947 -2.147,1.27175 -2.483,1.27175 -0.812,0 -0.769,0.46963 0.133,1.46613 0.581,0.64228 0.607,0.87168 0.12,1.05706 -1.063,0.4046 -2.788,-0.51713 -2.788,-1.49024 0,-0.50726 -0.541,-1.2769 -1.203,-1.7103 -1.671,-1.09488 -1.671,-3.7324 0,-5.18531 1.349,-1.17198 1.572,-2.55199 0.482,-2.97039 -0.397,-0.1523 -0.722,-0.56525 -0.722,-0.91768 0,-0.88401 1.125,-3.22956 1.551,-3.23415 0.192,-0.002 0.698,-0.67848 1.124,-1.50316 0.681,-1.31608 0.965,-1.46872 2.323,-1.24846 1.058,0.17162 1.914,-0.0259 2.708,-0.62485 1.077,-0.81218 1.112,-0.96835 0.479,-2.15025 -0.586,-1.09422 -0.586,-1.33357 0,-1.69249 0.872,-0.53883 1.394,-0.19526 1.958,1.2892 0.627,1.64822 -0.766,3.97622 -2.6,4.34519 -1.262,0.25396 -1.341,0.39822 -1.053,1.93273 0.5,2.66582 1.233,3.86027 3.207,5.22791 l 1.855,1.28486 2.911,-1.06124 c 2.44,-0.88916 4.964,-1.41883 7.437,-1.56065 0.264,-0.0152 0.86,0.12959 1.323,0.3217 0.505,0.20959 0.842,0.1363 0.842,-0.18323 0,-0.29289 -0.321,-0.53253 -0.712,-0.53253 -0.392,0 -0.827,-0.48707 -0.967,-1.08238 -0.328,-1.40031 0.881,-4.81211 1.873,-5.28557 0.423,-0.20179 1.145,-0.55146 1.606,-0.77704 0.496,-0.24327 0.982,-1.25663 1.192,-2.49068 0.393,-2.29725 0.81,-2.70975 3.211,-3.17157 1.242,-0.23881 2.219,-0.0138 4.09,0.94137 1.353,0.69036 3.058,1.39376 3.789,1.56312 2.245,0.51997 2.571,-0.0463 4.245,-7.37623 0.287,-1.25677 1.378,-4.14578 2.424,-6.42004 2.583,-5.61394 2.789,-7.13369 1.243,-9.17285 -0.673,-0.88768 -1.368,-2.62628 -1.555,-3.89006 -0.185,-1.25677 -0.482,-2.28504 -0.658,-2.28504 -0.177,0 -0.559,-0.63028 -0.85,-1.40063 -0.474,-1.25582 -3.801,-3.89104 -4.913,-3.89104 -0.524,0 -1.269,3.16661 -1.104,4.69505 0.152,1.41733 -1.668,2.13293 -4.938,1.94158 -1.994,-0.11666 -2.464,-0.31573 -2.604,-1.10443 -0.294,-1.64792 -0.875,-1.83601 -3.291,-1.06502 -1.277,0.40736 -2.954,0.92187 -3.727,1.14337 -1.694,0.48524 -3.646,3.79778 -3.302,5.6006 0.197,1.02647 2.236,3.94805 4.683,6.70836 1.016,1.14599 2.034,1.05715 3.296,-0.28762 1.088,-1.16022 2.822,-2.23795 3.601,-2.23795 0.241,0 0.938,0.43296 1.549,0.96213 1.163,1.00859 2.644,1.26301 3.096,0.53187 0.146,-0.23663 1.08,-0.52631 2.074,-0.64373 0.994,-0.11742 2.166,-0.37205 2.604,-0.56585 0.542,-0.23966 1.311,0.10979 2.406,1.09263 1.297,1.165 1.492,1.56394 1.003,2.05888 -0.49,0.49679 -0.745,0.41451 -1.338,-0.4313 -0.614,-0.87688 -0.934,-0.96859 -1.984,-0.56948 -0.688,0.26165 -1.602,0.36476 -2.03,0.22914 -0.428,-0.13561 -1.399,0.0753 -2.157,0.46881 -1.762,0.91454 -3.393,0.9121 -4.155,-0.006 -0.891,-1.07329 -1.853,-0.88493 -3.683,0.72159 -0.904,0.79375 -1.957,1.44318 -2.338,1.44318 -0.382,0 -1.067,0.59531 -1.522,1.32292 -0.455,0.7276 -0.898,1.41713 -0.983,1.53229 -0.09,0.11516 -1.053,0.33164 -2.151,0.48106 -2.345,0.31904 -2.756,1.03417 -1.384,2.40639 1.373,1.37272 1.242,2.55147 -0.422,3.78122 -1.012,0.74782 -1.389,1.40613 -1.323,2.31081 0.08,1.06554 -0.13,1.29036 -1.309,1.42539 -1.874,0.21459 -2.241,0.92559 -2.093,4.05389 0.112,2.37491 0.263,2.70769 1.495,3.29608 1.729,0.82527 1.042,1.77187 -0.782,1.07858 -1.889,-0.71829 -2.427,-2.16503 -2.139,-5.75659 0.213,-2.65259 0.451,-3.30908 1.504,-4.14784 0.687,-0.54806 1.25,-1.24779 1.25,-1.55495 0,-0.30715 0.532,-1.13249 1.182,-1.83406 1.111,-1.19802 1.137,-1.34561 0.428,-2.42659 -0.463,-0.70649 -0.638,-1.6134 -0.453,-2.34839 0.319,-1.27425 2.468,-2.65809 4.127,-2.65809 1.376,0 1.853,-1.42778 0.685,-2.0524 -1.091,-0.58313 -5.969,-5.71402 -5.969,-6.27799 0,-1.81522 -6.091,-6.41777 -11.549,-8.72903 -2.886,-1.22171 -3.167,-1.51862 -2.02,-2.13253 0.799,-0.42728 1.728,-0.1363 5.225,1.6361 2.339,1.18569 4.363,2.15718 4.497,2.15886 0.135,0.002 0.164,-1.0052 0.07,-2.23751 -0.156,-1.96187 -0.5,-2.56549 -2.77,-4.85272 -2.725,-2.7457 -3.03,-3.35232 -1.904,-3.78425 0.413,-0.15833 1.398,0.52172 2.462,1.69881 0.976,1.07955 1.948,1.96281 2.161,1.96281 0.213,0 0.529,-0.64943 0.704,-1.44318 0.334,-1.52068 1.392,-1.93693 1.855,-0.73006 0.15,0.39221 -0.04,1.61005 -0.43,2.70631 -1.008,2.85728 -0.873,4.68557 0.477,6.45508 1.718,2.25151 2.985,2.42649 3.953,0.54604 0.431,-0.83651 1.293,-2.19079 1.915,-3.00952 0.623,-0.81872 1.132,-2.15367 1.132,-2.96654 0,-0.81287 0.256,-1.56309 0.568,-1.66715 0.898,-0.29927 0.05,-1.81522 -1.015,-1.81522 -0.527,0 -1.238,-0.34023 -1.579,-0.75607 -0.341,-0.41584 -1.023,-1.1967 -1.514,-1.73525 -0.833,-0.91269 -0.84,-1.03286 -0.09,-1.7695 0.743,-0.73408 0.892,-0.67876 2.097,0.77747 0.713,0.86228 1.67,1.56583 2.128,1.56345 0.457,-0.002 1.177,0.52438 1.601,1.1706 0.494,0.75456 1.316,1.22789 2.297,1.32292 1.408,0.13648 1.515,0.26939 1.375,1.71142 -0.123,1.27891 0.02,1.56345 0.783,1.56345 1.143,0 1.829,0.77452 2.281,2.57558 0.305,1.21612 0.503,1.33568 1.783,1.0797 0.792,-0.15832 1.622,-0.28786 1.844,-0.28786 0.688,0 1.438,-1.84864 1.899,-4.67714 0.581,-3.56745 1.186,-4.12897 2.582,-2.39492 l 1.083,1.3465 2.61,-1.75504 c 1.892,-1.27216 2.623,-2.07369 2.658,-2.91314 0.03,-0.63695 0.37,-1.53549 0.763,-1.99676 0.393,-0.46126 0.993,-1.54222 1.333,-2.40211 0.703,-1.77578 1.67,-2.01538 2.427,-0.60133 0.358,0.66795 0.363,1.24663 0.02,1.89262 -1.036,1.93638 -0.652,2.43693 1.874,2.43693 2.934,0 3.952,0.87144 3.792,3.2461 -0.09,1.33778 0.132,1.8743 1.02,2.46323 0.623,0.41411 1.59,0.76014 2.148,0.76896 0.923,0.0146 1.027,0.32823 1.155,3.50371 0.1,2.45237 0.326,3.48769 0.762,3.48769 0.761,0 3.402,3.21486 3.882,4.72487 0.335,1.05523 1.359,1.66167 3.867,2.29116 1.029,0.25803 1.211,0.0681 1.709,-1.77952 0.474,-1.76053 0.629,-1.93891 1.044,-1.1985 0.688,1.22939 -0.871,4.62108 -2.124,4.62108 -0.506,0 -1.989,-0.34963 -3.296,-0.77696 -1.894,-0.61924 -2.376,-0.99224 -2.376,-1.83749 0,-1.4095 -2.185,-3.29321 -3.38,-2.914 -1.353,0.42927 -6.575,6.31361 -8.469,9.54358 -1.686,2.87654 -3.064,6.25313 -4.419,10.83468 -0.718,2.42552 -0.712,2.62077 0.09,3.20714 0.469,0.3434 1.933,0.7728 3.253,0.95422 1.861,0.25585 2.803,0.72351 4.201,2.08453 0.991,0.96508 2.265,2.12143 2.831,2.56967 0.842,0.66691 0.978,1.14763 0.748,2.64583 -0.155,1.00697 -0.479,2.21416 -0.719,2.68265 -0.657,1.28304 -0.06,1.79403 2.09,1.79403 1.722,0 2.204,-0.28182 4.232,-2.47576 2.244,-2.42664 2.334,-2.47075 4.534,-2.22286 1.737,0.19578 2.504,0.0487 3.394,-0.65112 1.714,-1.3482 2.981,-1.15708 3.572,0.53914 0.365,1.04654 0.812,1.44318 1.624,1.44318 2.164,0 3.26,1.27272 3.26,3.78382 0,1.26534 0.316,2.70302 0.707,3.21988 1.49,1.96966 0.125,2.36166 -1.649,0.47356 -0.854,-0.90836 -1.044,-1.51938 -0.819,-2.64057 0.43,-2.15106 -0.02,-2.8036 -2.185,-3.16926 -1.332,-0.22502 -2.021,-0.61555 -2.184,-1.23857 -0.303,-1.15998 -0.723,-1.14786 -1.81,0.0522 -0.93,1.02748 -2.398,1.27209 -2.887,0.48106 -0.163,-0.26458 -0.93,-0.48106 -1.703,-0.48106 -1.047,0 -1.91,0.54749 -3.389,2.15231 -1.307,1.41677 -2.537,2.25592 -3.601,2.45548 -1.095,0.20534 -1.93,0.79148 -2.586,1.81644 -0.533,0.8323 -1.237,1.88108 -1.564,2.33063 -0.489,0.67201 -0.405,1.15415 0.47,2.71133 0.586,1.04169 1.065,2.67629 1.065,3.63245 0,1.22962 0.212,1.73848 0.726,1.73848 0.995,0 2.35,1.66513 2.646,3.24989 0.328,1.75932 1.719,1.94729 2.939,0.39723 1.257,-1.59835 1.731,-1.56401 2.734,0.19832 0.555,0.97508 1.196,1.44113 1.985,1.44319 0.641,0.002 1.58,0.37894 2.088,0.83838 0.884,0.79998 0.965,0.77872 1.898,-0.50221 0.884,-1.21283 1.167,-1.30877 3.033,-1.02895 2.327,0.34883 5.53,-0.83562 5.53,-2.04492 0,-0.96474 1.163,-0.51168 1.366,0.53189 0.303,1.56416 -3.726,3.73221 -6.937,3.73221 -1.17,0 -2.128,0.19344 -2.128,0.42988 0,0.23643 -0.55,0.78976 -1.221,1.22961 -1.162,0.76118 -1.275,0.74906 -2.34,-0.2514 -0.616,-0.57812 -1.312,-0.99836 -1.546,-0.93386 -0.82,0.22522 -2.506,-0.59726 -2.801,-1.36637 -0.263,-0.68415 -0.424,-0.65921 -1.368,0.21206 -0.942,0.8689 -1.272,0.92085 -2.749,0.43285 -1.066,-0.35223 -1.731,-0.90555 -1.823,-1.51666 -0.522,-3.46896 -1.108,-3.94475 -3.584,-2.91049 -0.867,0.36203 -2.172,0.54444 -2.9,0.40536 -1.54,-0.29431 -1.695,0.33777 -0.598,2.43985 2.259,4.33022 -0.535,5.96817 -7.462,4.37479 z m -40.75,-18.09061 c 0.578,-0.30356 1.541,-1.03495 2.141,-1.6253 l 1.089,-1.07338 -1.45,-3.06504 c -0.798,-1.68577 -1.451,-3.47742 -1.451,-3.98145 0,-0.88146 -0.04,-0.88368 -0.949,-0.0583 -0.94,0.85063 -0.938,0.86629 0.241,1.79319 1.529,1.20209 1.522,2.00316 -0.01,1.70961 -1.02,-0.19497 -1.203,-0.0496 -1.203,0.95686 0,0.65272 -0.541,1.82994 -1.203,2.61604 -1.482,1.76084 -1.502,2.22831 -0.12,2.78364 1.462,0.58754 1.702,0.58294 2.919,-0.0559 z m 40.159,-20.22387 c -0.298,-0.892 -1.333,-1.03994 -1.333,-0.19042 0,0.41892 0.342,0.76168 0.761,0.76168 0.419,0 0.677,-0.25707 0.572,-0.57126 z m 3.467,-9.26409 c 1.116,-2.45093 1.156,-2.67223 0.481,-2.67223 -0.508,0 -1.052,1.17698 -1.611,3.48769 -0.476,1.967 0.03,1.60354 1.13,-0.81546 z m 4.734,-8.21397 c -0.152,-0.15224 -0.628,0.0737 -1.056,0.50206 -0.429,0.42837 -0.779,1.02798 -0.779,1.33246 0,0.30448 0.475,0.0785 1.056,-0.50206 0.581,-0.58061 0.931,-1.18022 0.779,-1.33246 z m -2.377,-1.30654 c -0.645,-1.20531 -1.415,-1.05226 -1.175,0.2337 0.111,0.59531 0.218,1.39435 0.237,1.77565 0.03,0.50569 0.22,0.44246 0.714,-0.23369 0.468,-0.63939 0.537,-1.19026 0.224,-1.77566 z m 6.316,-2.55326 c 1.451,-1.53658 1.518,-1.70001 0.482,-1.18032 -1.553,0.77847 -2.855,1.9241 -3.45,3.03619 -0.407,0.76034 -0.35,0.81695 0.406,0.40566 0.483,-0.2629 1.636,-1.28058 2.562,-2.26153 z m -3.33,-0.99816 c 0.418,-0.36558 0.959,-0.67154 1.203,-0.6799 0.881,-0.0302 2.949,-2.24588 3.263,-3.4968 0.284,-1.13048 0.124,-1.36249 -1.369,-1.98634 -1.075,-0.44882 -1.691,-1.03255 -1.691,-1.60107 0,-0.4921 -0.318,-1.31494 -0.707,-1.82853 -0.389,-0.51359 -0.713,-1.50595 -0.722,-2.20525 -0.02,-1.36467 -0.766,-1.85544 -2.835,-1.85544 -0.713,0 -1.75,-0.31707 -2.303,-0.70461 -1.118,-0.78257 -1.614,-0.54124 -1.614,0.78479 0,0.49081 0.344,0.88194 0.776,0.88194 0.592,0 0.726,0.34883 0.562,1.46436 -0.118,0.8054 -0.03,1.57585 0.186,1.7121 0.22,0.13626 0.401,-0.077 0.401,-0.47385 0,-0.39687 0.241,-0.87033 0.535,-1.05214 1.005,-0.62092 1.296,0.89631 0.613,3.19585 -1.957,6.58793 0.116,10.98198 3.702,7.84489 z m -6.298,-3.67132 c 0,-1.66727 -0.209,-2.1399 -1.12,-2.56148 -1.013,-0.469 -1.097,-0.41455 -0.905,0.58663 0.116,0.60698 0.512,1.3532 0.879,1.65826 0.368,0.30506 0.669,0.96111 0.669,1.45788 0,0.49677 0.108,0.90321 0.241,0.90321 0.132,0 0.239,-0.92002 0.236,-2.0445 z m -22.411,-2.09598 c 1.054,-0.4044 0.955,-2.45636 -0.146,-3.04583 -0.793,-0.4243 -0.968,-0.245 -1.393,1.42626 -0.508,2.00055 -0.226,2.29668 1.539,1.61957 z m 20.972,-3.55649 c 0,-1.3547 -0.206,-1.92424 -0.694,-1.92424 -1.098,0 -1.372,0.90348 -0.738,2.43434 0.82,1.97872 1.432,1.76075 1.432,-0.5101 z m -44.893,62.71954 c -0.21,-0.21035 -1.393,-0.49963 -2.63,-0.64285 -1.892,-0.21924 -2.425,-0.52427 -3.371,-1.92974 -0.703,-1.04422 -1.52,-1.67473 -2.183,-1.68371 -0.812,-0.011 -1.227,-0.49871 -1.776,-2.08663 -0.678,-1.96228 -0.659,-2.1716 0.361,-3.9438 1.231,-2.1386 1.348,-4.0344 0.356,-5.76993 -1.135,-1.98375 -0.831,-3.3308 1.426,-6.33304 1.766,-2.34804 2.098,-3.10926 1.866,-4.27215 -0.465,-2.32274 1.606,-4.57758 4.876,-5.30923 2.401,-0.53709 2.615,-0.69002 2.363,-1.69137 -0.344,-1.3732 0.106,-2.1603 1.033,-1.80468 0.452,0.17345 0.706,0.93896 0.706,2.12683 0,2.08182 -0.886,2.85183 -3.283,2.85183 -2.38,0 -3.566,1.38484 -3.952,4.61472 -0.28,2.34846 -0.642,3.17116 -2.086,4.7397 -1.995,2.1677 -2.067,2.66164 -0.784,5.31792 1.214,2.51262 1.193,2.94189 -0.279,5.70556 -1.105,2.07645 -1.175,2.48892 -0.638,3.78407 0.559,1.34907 0.648,1.39129 1.236,0.58718 0.747,-1.02175 1.152,-0.71909 1.835,1.37171 0.454,1.39147 0.688,1.54012 2.422,1.54012 1.056,0 2.423,0.28643 3.037,0.6365 0.848,0.48345 1.473,0.51236 2.598,0.12027 0.815,-0.28393 1.666,-0.51624 1.891,-0.51624 0.632,0 0.484,1.26347 -0.216,1.84424 -0.829,0.68779 -4.325,1.22779 -4.808,0.74272 z m 78.592,-1.48765 c 0,-0.20774 0.334,-0.79793 0.722,-1.31152 0.795,-1.05001 0.916,-3.04158 0.25,-4.09437 -0.706,-1.11621 -0.02,-1.60749 0.986,-0.70133 0.997,0.9024 1.201,3.09317 0.422,4.54745 -0.519,0.96894 -2.406,2.20588 -2.38,1.55977 z m 15.036,-2.60004 c 0.149,-0.62981 0.119,-2.01101 -0.07,-3.06934 -0.289,-1.65948 -0.488,-1.90261 -1.445,-1.76696 -1.01,0.14312 -1.096,-0.004 -0.956,-1.62962 0.147,-1.69554 0.04,-1.83911 -2.005,-2.80762 -1.471,-0.69546 -2.208,-1.36416 -2.312,-2.09859 -0.182,-1.2717 0.241,-1.36546 1.406,-0.31181 0.465,0.42135 1.565,1.1249 2.443,1.56345 2.423,1.20928 4.277,4.9042 4.124,8.21579 -0.08,1.71612 -0.349,2.68339 -0.79,2.82882 -0.49,0.1619 -0.597,-0.0852 -0.4,-0.92412 z M 19629.2,887.35952 c -0.555,-1.44774 -0.317,-1.72626 1.196,-1.39418 1.224,0.26891 1.735,0.0892 2.89,-1.01694 1.133,-1.08535 1.518,-1.22543 2.001,-0.72889 0.48,0.49328 0.226,0.93921 -1.286,2.25782 -2.035,1.77392 -4.299,2.18996 -4.801,0.88219 z m 128.044,-1.47093 c -0.502,-0.50155 0.133,-1.13555 1.138,-1.13555 1.429,0 2.834,-1.65624 2.52,-2.97093 -0.147,-0.61495 -1.222,-2.1078 -2.388,-3.31744 -1.425,-1.47788 -2.022,-2.45715 -1.819,-2.98524 0.192,-0.50195 -0.145,-1.18466 -0.934,-1.88966 -0.68,-0.60708 -1.619,-1.44749 -2.089,-1.86758 -0.469,-0.4201 -1.09,-1.17413 -1.381,-1.67564 -0.507,-0.87399 -0.614,-0.85561 -2.576,0.4427 -1.373,0.90843 -2.408,1.26416 -3.141,1.08014 -0.769,-0.19295 -1.448,0.0793 -2.286,0.91752 -2.297,2.29613 -7.929,3.69977 -10.528,2.62371 -1.306,-0.54096 -1.392,-0.7467 -1.392,-3.33002 0,-3.50213 0.687,-4.15061 4.862,-4.58967 3.698,-0.38889 3.896,-0.49288 4.534,-2.38558 0.515,-1.52957 1.169,-1.80356 5.998,-2.51402 2.525,-0.37151 2.688,-0.48426 3.695,-2.55345 1.427,-2.93203 1.299,-7.38563 -0.243,-8.46564 -0.584,-0.40919 -1.041,-1.24476 -1.041,-1.90444 0,-1.05573 -0.202,-1.17537 -1.977,-1.17537 -1.892,0 -1.964,-0.0541 -1.661,-1.25877 0.878,-3.49625 0.848,-3.84269 -0.453,-5.38852 -0.708,-0.84191 -1.648,-1.53443 -2.087,-1.53894 -0.44,-0.005 -1.883,-0.65026 -3.206,-1.43498 -1.663,-0.98647 -3.051,-1.42931 -4.497,-1.43498 -2.806,-0.011 -4.886,-1.26576 -4.886,-2.94682 0,-0.73071 0.329,-1.41434 0.761,-1.57999 1.151,-0.44163 1.239,-0.36922 0.722,0.59642 -0.729,1.36084 0.29,1.99794 3.194,1.99794 1.855,0 3.054,0.31077 4.355,1.1288 0.987,0.62084 2.568,1.38259 3.514,1.69278 0.945,0.31018 2.437,1.30491 3.315,2.2105 1.419,1.46392 1.567,1.86438 1.333,3.61089 -0.251,1.8702 -0.186,1.99686 1.359,2.64225 1.028,0.42938 1.733,1.11744 1.924,1.87684 0.166,0.65943 0.715,1.57315 1.22,2.03051 1.318,1.19241 1.283,6.26159 -0.06,8.89613 -0.54,1.05686 -0.857,2.12112 -0.707,2.365 0.509,0.82302 -2.08,1.99604 -4.897,2.2192 -3.597,0.2849 -4.002,0.44515 -4.002,1.58391 0,1.64024 -2.129,2.81085 -5.777,3.17711 -3.264,0.3277 -3.376,0.38281 -3.763,1.85248 -0.462,1.75331 -0.211,3.17712 0.573,3.24719 3.108,0.27771 5.802,-0.58774 8.969,-2.88121 1.297,-0.93928 2.646,-1.49707 3.62,-1.49707 0.854,0 1.823,-0.32472 2.152,-0.72159 0.33,-0.39688 1.216,-0.7216 1.97,-0.7216 1.817,0 5.997,4.22534 6.786,6.85957 0.31,1.03378 1.269,2.58484 2.131,3.44681 1.882,1.8813 2.414,3.6634 1.647,5.51556 -0.734,1.77045 -3.54,3.11136 -4.5,2.15074 z m -38.978,-5.22457 c -0.151,-0.92604 -0.145,-2.47384 0.01,-3.43956 0.322,-1.98274 -0.606,-3.05476 -2.645,-3.05476 -1.084,0 -1.135,-0.12343 -0.85,-2.04451 l 0.304,-2.0445 -1.121,1.32291 c -0.617,0.72761 -1.276,1.32292 -1.465,1.32292 -0.56,0 -0.36,-2.10604 0.274,-2.88636 2.13,-2.62238 3.714,-2.29274 3.714,0.77306 0,1.53274 0.193,2.1133 0.703,2.1133 0.387,0 1.153,0.48301 1.704,1.07336 0.873,0.93714 0.97,1.50181 0.762,4.44981 -0.131,1.85705 -0.248,3.53881 -0.26,3.73725 -0.01,0.19843 -0.21,0.36079 -0.44,0.36079 -0.23,0 -0.541,-0.75767 -0.691,-1.68371 z m -78.771,-10.00606 c 0,-0.8924 1.008,-1.77992 2.021,-1.77992 0.914,0 1.053,0.39701 0.574,1.64436 -0.35,0.91146 -2.595,1.02875 -2.595,0.13556 z m 9.383,-0.90016 c -2.149,-1.24416 -2.235,-3.007 -0.256,-5.26439 1.147,-1.30859 1.422,-2.05403 1.397,-3.7934 -0.02,-1.19063 0.04,-2.70597 0.136,-3.36743 0.153,-1.10222 0,-1.20779 -1.758,-1.26425 -3.029,-0.0969 -3.128,-0.12986 -3.128,-1.03824 0,-0.7187 0.463,-0.87214 2.829,-0.9377 4.178,-0.11575 4.434,0.21929 4.066,5.32461 -0.169,2.33705 -0.558,4.50182 -0.866,4.8106 -0.307,0.30878 -0.928,1.12618 -1.38,1.81644 -0.905,1.38409 -0.583,1.93244 1.513,2.57541 0.61,0.18713 1.027,0.59246 0.925,0.90073 -0.253,0.77231 -2.311,0.91291 -3.478,0.23762 z m 79.446,-4.80826 c -0.422,-0.6029 -0.768,-1.77919 -0.768,-2.61396 0,-0.83477 -0.325,-1.78726 -0.722,-2.11664 -0.397,-0.32937 -0.722,-0.9083 -0.722,-1.28651 0,-0.79683 1.992,-4.64951 2.527,-4.8871 0.198,-0.0882 0.361,-0.54957 0.361,-1.02527 0,-0.62166 -0.6,-1.01591 -2.133,-1.40175 -1.449,-0.36464 -2.234,-0.85585 -2.448,-1.53145 -0.174,-0.54703 -0.773,-1.16341 -1.33,-1.36972 -0.748,-0.27627 -1.022,-0.80089 -1.041,-1.99104 -0.02,-1.28444 -0.36,-1.84183 -1.656,-2.7171 -1.384,-0.93502 -2.015,-1.05587 -4.184,-0.80101 -2.392,0.28101 -2.649,0.20645 -4.025,-1.16919 -1.632,-1.63215 -1.928,-3.63957 -0.763,-5.17962 0.751,-0.99218 0.89,-0.74963 0.755,1.31843 -0.1,1.49161 1.451,3.27997 2.838,3.27997 0.512,0 1.466,-0.20305 2.118,-0.45123 1.869,-0.71018 6.228,2.26362 6.65,4.53658 0.1,0.52716 0.77,1.24252 1.495,1.5897 0.885,0.42388 1.318,1.00378 1.318,1.76536 0,0.95148 0.315,1.18738 1.958,1.46487 1.077,0.18192 2.084,0.65814 2.237,1.05827 0.154,0.40013 -0.526,2.2194 -1.512,4.04281 -1.507,2.79091 -1.671,3.36121 -1.034,3.60556 0.416,0.15964 1.09,0.16251 1.497,0.006 1.179,-0.45231 1.357,0.9703 0.259,2.068 -1.652,1.6513 -0.981,3.40462 1.302,3.40462 1.685,0 1.052,1.17287 -0.728,1.34995 -1.1,0.10939 -1.679,-0.13483 -2.249,-0.9489 z m -105.017,-0.64266 c -0.929,-2.42085 2.238,-6.07722 4.305,-4.97092 0.659,0.35212 1.117,0.27777 1.735,-0.28132 1.028,-0.93007 1.925,-0.94338 3.11,-0.0462 1.328,1.00516 0.674,2.28461 -0.958,1.87508 -1.006,-0.2525 -1.464,-0.0777 -2.139,0.81765 -0.819,1.08485 -0.903,1.0995 -1.776,0.30933 -1.269,-1.14791 -1.413,-1.08556 -2.526,1.09477 -1.075,2.10708 -1.335,2.28541 -1.751,1.20157 z m 19.62,-9.75657 c -1.006,-0.16415 -1.108,-0.37811 -0.871,-1.83886 0.148,-0.9092 0.04,-2.29894 -0.232,-3.08832 -0.446,-1.27867 -0.337,-1.62046 0.991,-3.13341 1.726,-1.96429 1.757,-2.16235 0.706,-4.37752 -1.129,-2.37736 -0.449,-4.2826 2.237,-6.27025 3.066,-2.26822 4.019,-2.58389 7.622,-2.52277 1.759,0.0298 3.817,-0.187 4.574,-0.48185 0.962,-0.37515 1.901,-0.39005 3.127,-0.0496 2.307,0.6406 2.196,0.659 3.761,-0.62321 0.748,-0.61327 2.62,-1.40913 4.16,-1.76858 2.548,-0.59451 2.89,-0.83058 3.786,-2.61319 0.541,-1.07779 1.316,-2.33621 1.72,-2.79648 1.328,-1.51006 -0.04,-9.98701 -1.616,-9.98701 -0.371,0 -0.675,-0.31194 -0.675,-0.6932 0,-1.2919 -0.793,-1.19173 -3.167,0.4 -2.219,1.48789 -3.94,2.14229 -6.217,2.36419 -1.808,0.1762 -0.999,-1.30849 1.145,-2.10009 l 2.107,-0.77809 -1.764,-1.08958 c -1.4,-0.86554 -1.65,-1.22561 -1.214,-1.75107 0.618,-0.74464 1.844,-0.29867 3.624,1.31869 1.001,0.90913 1.035,0.90142 3.554,-0.79331 1.552,-1.04383 2.876,-1.60598 3.396,-1.44119 0.694,0.22038 0.913,-0.10987 1.188,-1.79238 0.185,-1.13439 0.755,-2.51801 1.266,-3.0747 0.83,-0.90362 1.308,-2.60847 2.179,-7.76719 0.366,-2.16628 1.602,-2.07346 1.602,0.12026 0,0.92605 0.167,1.68372 0.37,1.68372 0.203,0 1.166,-0.5412 2.14,-1.20265 2.001,-1.35967 2.784,-1.50886 2.784,-0.5309 0,0.87827 -2.771,3.29357 -4.69,4.08828 -1.08,0.44709 -1.604,1.05188 -1.839,2.12286 -0.181,0.82371 -0.715,2.0474 -1.186,2.71931 -1.451,2.06842 -1.572,4.47316 -0.436,8.68206 0.571,2.11449 1.234,3.84452 1.473,3.84452 0.627,0 2.294,-1.03282 3.688,-2.28504 0.663,-0.59531 1.689,-1.08238 2.279,-1.08238 1.669,0 4.56,1.37643 4.56,2.17123 0,0.90177 -0.496,0.90099 -2.231,-0.004 -1.959,-1.02157 -2.459,-0.91283 -3.303,0.71863 -0.501,0.96891 -1.11,1.44318 -1.853,1.44318 -0.609,0 -1.596,0.52077 -2.194,1.15727 -0.885,0.94173 -0.991,1.33901 -0.565,2.13314 0.674,1.25917 0.658,1.63171 -0.115,2.68803 -0.548,0.74899 -0.778,0.78269 -1.645,0.24116 -1.322,-0.82561 -2.319,-0.041 -2.73,2.15006 -0.339,1.80957 -1.403,2.92398 -3.168,3.32005 -3.943,0.88451 -5.065,1.35864 -6.007,2.53984 l -1.043,1.30824 -2.197,-0.8387 c -1.76,-0.67189 -2.407,-0.72644 -3.252,-0.27428 -0.58,0.31044 -2.884,0.60559 -5.119,0.6559 -3.75,0.0844 -4.147,0.19 -5.133,1.36354 -0.588,0.69964 -1.537,1.40721 -2.108,1.57238 -1.312,0.37957 -1.754,1.49646 -1.087,2.74373 0.951,1.77684 0.779,5.03256 -0.332,6.26182 -0.889,0.98364 -0.974,1.48965 -0.7,4.15953 0.172,1.67182 0.195,3.09002 0.05,3.15157 -0.144,0.0615 -0.774,0.0283 -1.401,-0.0739 z m 33.672,-35.72511 -0.471,-1.18012 -0.03,1.28357 c -0.02,0.70597 0.13,1.68011 0.326,2.16477 0.331,0.81788 0.367,0.81045 0.502,-0.10345 0.08,-0.54156 -0.07,-1.51571 -0.326,-2.16477 z m 52.261,12.38026 c -0.165,-0.42981 -0.09,-0.90941 0.161,-1.06579 0.253,-0.15638 0.46,-0.70125 0.46,-1.21083 0,-0.50958 0.678,-2.0278 1.506,-3.37382 1.337,-2.17282 1.438,-2.57598 0.892,-3.59437 -0.498,-0.93022 -0.498,-1.69434 0,-4.04223 0.545,-2.5661 0.522,-3.03568 -0.196,-4.1313 -0.445,-0.67987 -1.335,-1.43578 -1.977,-1.67982 -2.634,-1.00097 -10.937,-0.39679 -10.492,0.76341 0.382,0.9935 -1.912,2.96388 -4.153,3.56691 l -2.017,0.54312 0.329,2.01588 c 0.18,1.10874 0.739,2.46279 1.24,3.00901 1.348,1.468 1.196,4.31629 -0.337,6.32514 -0.842,1.1043 -1.573,1.58831 -2.248,1.48859 -1.644,-0.24311 -1.484,-1.2251 0.341,-2.09091 1.508,-0.71542 1.712,-1.02496 1.712,-2.59499 0,-1.31968 -0.324,-2.06478 -1.249,-2.86884 -1.069,-0.92838 -1.203,-1.33636 -0.927,-2.80856 0.294,-1.56437 0.158,-1.86989 -1.484,-3.33013 -0.995,-0.88426 -1.95,-1.60774 -2.125,-1.60774 -0.174,0 -0.575,-0.56779 -0.891,-1.26175 -0.473,-1.03631 -0.437,-1.47245 0.198,-2.44113 0.913,-1.39392 0.471,-3.12955 -1.534,-6.02214 -1.013,-1.46228 -1.183,-2.11595 -0.915,-3.54007 l 0.327,-1.74662 -2.437,0.33508 c -2.388,0.3284 -2.437,0.31017 -2.437,-0.9127 0,-0.68629 -0.27,-1.24484 -0.601,-1.24123 -1.236,0.0135 -2.767,0.60287 -2.767,1.06468 0,0.26289 -0.973,1.43626 -2.161,2.60749 -2.484,2.44771 -3.209,4.34477 -2,5.2285 0.831,0.60775 1.097,2.15716 0.369,2.15716 -0.868,0 -1.614,2.7393 -1.038,3.81478 0.611,1.14144 0.305,1.95795 -0.733,1.95795 -0.381,0 -0.693,0.22409 -0.693,0.49798 0,1.00607 1.58,2.86944 2.433,2.86944 1.3,0 1.567,0.81051 0.371,1.12326 -1.496,0.39124 -2.559,-0.351 -3.646,-2.54608 -0.887,-1.79274 -0.905,-2.09517 -0.253,-4.22286 0.386,-1.2605 0.926,-2.76162 1.2,-3.33581 0.274,-0.5742 0.357,-1.79223 0.186,-2.70674 -0.407,-2.17017 0.346,-4.05964 2.387,-5.98969 0.909,-0.85932 1.653,-1.86108 1.653,-2.22614 0,-1.04809 1.045,-1.63706 3.128,-1.76235 2.988,-0.17976 3.522,-0.0497 3.834,0.93273 0.237,0.74736 0.62,0.86985 2.098,0.6717 2.427,-0.32546 3.322,0.67953 2.626,2.94794 -0.438,1.42741 -0.326,1.87304 0.999,3.94956 1.3,2.03881 1.479,2.71811 1.386,5.26819 -0.09,2.56433 0.04,3.06588 1.081,4.04227 2.07,1.94373 6.257,1.07758 6.796,-1.40562 0.515,-2.37314 0.643,-2.51251 2.232,-2.42553 2.796,0.15308 3.147,0.009 3.674,-1.50184 0.286,-0.81953 1.173,-2.23416 1.972,-3.14364 0.799,-0.90947 1.453,-1.9283 1.453,-2.26407 0,-0.33577 -0.758,-1.34485 -1.685,-2.2424 -2.004,-1.94243 -2.061,-2.38505 -0.481,-3.75855 0.662,-0.57513 1.203,-1.40085 1.203,-1.83492 0,-1.92755 -1.148,-4.35301 -2.522,-5.32898 -1.449,-1.0294 -1.507,-1.03262 -3.206,-0.18071 -1.835,0.9195 -2.934,0.84818 -2.934,-0.19039 0,-0.34651 -0.301,-0.7458 -0.67,-0.8873 -0.369,-0.14149 -1.245,-1.51037 -1.946,-3.04195 -1.264,-2.75897 -2.661,-4.50069 -3.61,-4.50069 -0.563,0 -0.92,-1.31974 -1.104,-4.08901 -0.125,-1.86581 -0.231,-1.97538 -3.497,-3.60796 -1.952,-0.97558 -3.434,-2.03777 -3.524,-2.52556 -0.163,-0.88254 1.083,-1.19666 1.577,-0.39758 0.151,0.24435 1.323,0.79262 2.606,1.21836 3.251,1.07963 4.6,2.64473 4.651,5.39834 0.03,1.81499 0.271,2.36574 1.355,3.15534 0.723,0.52611 1.871,2.06866 2.552,3.42789 1.93,3.84971 2.309,4.14096 4.979,3.82476 2,-0.23677 2.536,-0.10026 4.005,1.01945 2.627,2.00362 3.505,5.75511 2.014,8.6126 -0.661,1.26747 -0.632,1.4723 0.413,2.88637 1.534,2.07582 1.765,2.90616 1.252,4.49365 -0.241,0.74688 -0.557,1.95329 -0.702,2.68089 -0.181,0.90933 -0.562,1.32292 -1.217,1.32292 -0.524,0 -0.953,0.19332 -0.953,0.42959 0,0.64985 1.291,1.01359 3.598,1.01359 1.79,0 2.291,0.24442 3.629,1.76786 1.493,1.6999 1.541,1.88019 1.23,4.69034 -0.371,3.36007 -0.371,3.2928 0.02,5.70309 0.237,1.46503 0.05,2.18768 -0.963,3.71791 -0.692,1.04468 -1.257,2.2167 -1.257,2.60449 0,0.3878 -0.506,1.29222 -1.123,2.00983 -0.945,1.09781 -1.17,1.18081 -1.423,0.5233 z m -70.959,-8.82784 c -0.331,-0.13345 -0.602,-0.52884 -0.602,-0.87863 0,-0.34979 -0.73,-1.51062 -1.624,-2.57961 -1.562,-1.86972 -1.604,-2.0217 -1.083,-3.99674 0.301,-1.13952 1.291,-2.84363 2.226,-3.82964 1.283,-1.3529 1.694,-2.20832 1.724,-3.58725 0.03,-1.49073 0.373,-2.09212 1.925,-3.4032 2.412,-2.03786 4.391,-3.00087 5.545,-2.69917 1.558,0.40745 1.005,1.34477 -1.134,1.91912 -1.217,0.32695 -2.714,1.2414 -3.698,2.25904 l -1.653,1.70972 1.122,1.19406 c 0.931,0.9907 1.019,1.31935 0.512,1.92975 -0.336,0.40463 -0.863,0.73569 -1.172,0.73569 -0.999,0 -3.613,2.61046 -3.914,3.90954 -0.223,0.95939 0.04,1.65446 1.086,2.88637 2.65,3.1165 3.023,5.35206 0.74,4.43095 z m 34.045,-24.6638 c 0,-1.01387 -0.4,-1.69553 -1.424,-2.42449 -1.274,-0.90687 -1.367,-1.14055 -0.879,-2.21058 0.757,-1.66184 -0.08,-2.51471 -1.737,-1.76159 -1.265,0.57595 -1.751,0.26715 -2.391,-1.51881 -0.319,-0.88871 -0.346,-0.88873 -1.327,-10e-4 -0.551,0.49841 -1.317,1.51521 -1.702,2.25956 -0.546,1.05581 -0.984,1.32047 -1.992,1.20378 -1.452,-0.16817 -2.171,-1.83327 -0.791,-1.83327 0.45,0 1.726,-0.97415 2.835,-2.16478 2.274,-2.44091 2.743,-2.57434 4.14,-1.17804 0.609,0.60916 1.327,0.87874 1.876,0.70452 1.134,-0.35963 2.905,1.7864 2.927,3.54503 0,0.69192 0.333,1.67825 0.721,2.19184 0.795,1.04961 0.968,4.5984 0.226,4.5984 -0.265,0 -0.482,-0.63469 -0.482,-1.41043 z m 9.122,-30.14823 -0.949,-2.21396 -2.45,0.29827 c -1.347,0.16405 -2.861,0.51852 -3.364,0.78771 -0.693,0.37061 -0.915,0.32888 -0.915,-0.17187 0,-0.9173 2.18,-1.82138 5.129,-2.12712 l 2.483,-0.25736 1.247,2.63477 c 1.457,3.07939 1.486,3.26352 0.508,3.26352 -0.42,0 -1.149,-0.95595 -1.689,-2.21396 z m -6.475,-4.03983 c -0.163,-0.26458 0.04,-0.48106 0.453,-0.48106 0.413,0 0.75,0.21648 0.75,0.48106 0,0.26458 -0.204,0.48106 -0.453,0.48106 -0.249,0 -0.586,-0.21648 -0.75,-0.48106 z"
         id="path1" /></g></g></svg>
