<?xml version="1.0" encoding="UTF-8" standalone="no"?>
<!-- Created with Inkscape (http://www.inkscape.org/) -->

<svg
   width="231.38646"
   height="235.24007"
   viewBox="0 0 61.221 62.240601"
   version="1.1"
   id="svg1"
   xml:space="preserve"
   xmlns="http://www.w3.org/2000/svg"
   xmlns:svg="http://www.w3.org/2000/svg"><defs
     id="defs1" /><g
     id="g2047"
     transform="matrix(0.26458333,0,0,0.26458333,-5299.2671,-10.12824)"><g
       id="g2065"
       transform="translate(0.0998651,-234.6)"><path
         style="fill:#000000"
         d="m 20135.91,484.45349 c -1.983,-0.1909 -4.902,-0.5876 -6.488,-0.88156 -7.512,-1.39238 -6.906,-1.03611 -7.838,-4.61094 -0.276,-1.05769 -1.382,-4.47833 -2.459,-7.60143 -1.077,-3.12309 -1.958,-5.96498 -1.958,-6.31529 0,-0.35031 -1.525,-5.25895 -3.389,-10.90807 -3.15,-9.54696 -5.9,-19.00901 -7.876,-27.09797 -0.901,-3.68527 -2.495,-9.63937 -4.376,-16.33605 -3.295,-11.73409 -5.602,-17.18708 -7.85,-18.55504 -1.206,-0.73387 -1.472,-1.26672 -1.753,-3.51116 -0.282,-2.2605 -0.165,-2.94368 0.803,-4.68934 1.153,-2.07878 5.315,-5.3849 7.455,-5.92244 1.371,-0.34413 1.378,-0.59448 0.151,-5.8562 -0.621,-2.66507 -0.809,-4.3538 -0.516,-4.64662 0.293,-0.29282 1.424,0.45195 3.112,2.04928 2.575,2.436 3.64,2.74443 3.692,1.06935 0.04,-1.42547 3.071,-7.06293 3.792,-7.06293 1.053,0 2.401,2.687 2.97,5.92016 l 0.51,2.89438 2.909,-0.0804 c 1.955,-0.054 2.978,0.11653 3.119,0.52033 0.224,0.6395 0.159,0.67021 -3.34,1.57431 l -2.268,0.5863 1.187,2.02695 c 0.708,1.20875 1.19,2.78615 1.195,3.90777 0.01,2.73761 0.559,3.41351 1.969,2.4255 0.617,-0.43178 1.498,-0.78506 1.958,-0.78506 1.612,0 1.97,-1.75458 1.662,-8.13492 -0.16,-3.32623 -0.421,-6.70259 -0.58,-7.50302 -0.274,-1.38152 -0.134,-1.54042 2.754,-3.1327 2.658,-1.4654 3.061,-1.87391 3.193,-3.23266 l 0.151,-1.55529 3.215,0.29895 c 2.35,0.21853 4.018,0.0736 6.199,-0.53856 1.641,-0.46064 3.281,-0.72332 3.645,-0.58374 0.364,0.13957 2.027,2.9783 3.696,6.30828 1.67,3.32998 3.169,6.0545 3.332,6.0545 0.653,0 8.733,-8.65375 11.446,-12.25954 1.592,-2.11537 3.406,-4.3156 4.032,-4.8894 1.536,-1.40835 4.391,-2.41915 7.845,-2.77778 4.02,-0.41738 6.728,-1.92426 9.548,-5.3135 3.089,-3.71208 3.567,-4.05284 5.715,-4.07123 1.325,-0.0113 2.223,0.36921 3.484,1.47681 1.852,1.627 2.127,2.971 0.95,4.65173 -0.412,0.58815 -0.615,1.28651 -0.451,1.55193 0.164,0.26542 -0.443,1.40085 -1.35,2.52318 -2.629,3.25477 -2.936,4.12563 -2.873,8.15369 0.03,2.04009 0.204,3.94362 0.381,4.23005 0.497,0.80558 1.678,-0.40415 1.678,-1.71984 0,-1.38945 0.781,-1.91902 1.703,-1.15394 1.076,0.89394 0.851,1.73541 -1.022,3.80914 -1.665,1.84307 -1.824,2.90411 -0.437,2.90411 0.368,0 0.878,0.3741 1.134,0.83133 0.438,0.78238 0.523,0.77895 1.448,-0.0583 0.571,-0.5169 1.315,-0.76192 1.776,-0.5848 0.676,0.25934 0.745,0.77045 0.461,3.42367 -0.314,2.93518 -0.276,3.11883 0.654,3.11883 0.544,0 1.348,0.54931 1.788,1.22069 0.516,0.78781 1.159,1.17141 1.813,1.08172 0.85,-0.11651 1.013,0.11012 1.011,1.40317 0,1.31238 0.259,1.66067 1.76,2.3378 3.007,1.35631 4.747,3.56422 5.15,6.53145 0.502,3.70251 -0.09,5.32511 -3.082,8.46298 -1.447,1.51807 -2.731,3.08464 -2.851,3.48127 -0.121,0.39664 -0.774,3.31729 -1.452,6.49035 -0.678,3.17306 -1.683,6.95909 -2.235,8.41341 -0.551,1.45432 -1.284,3.72594 -1.628,5.04805 -0.344,1.3221 -1.199,4.35093 -1.901,6.73072 -2.438,8.27208 -3.634,12.90757 -3.464,13.41909 0.09,0.283 -0.07,0.75771 -0.368,1.0549 -0.298,0.2972 -2.129,5.81592 -4.071,12.26384 -1.941,6.44791 -4.905,15.56761 -6.587,20.26599 -1.681,4.69839 -3.057,8.85026 -3.057,9.22638 0,0.875 -0.88,1.42935 -2.403,1.51318 -0.66,0.0364 -2.715,0.41702 -4.565,0.84585 -2.704,0.62663 -5.817,0.76357 -15.859,0.69755 -6.872,-0.0452 -14.117,-0.23833 -16.099,-0.42922 z m 32.198,-1.96528 c 4.03,-1.19786 5.269,-2.02529 5.848,-3.90323 0.428,-1.38598 0.428,-1.9518 0,-2.37979 -0.617,-0.61686 -0.727,-2.78402 -0.261,-5.11537 0.245,-1.22484 0.639,-1.60255 2.141,-2.05283 1.584,-0.47492 1.944,-0.85555 2.583,-2.73124 0.409,-1.19868 0.743,-2.23186 0.743,-2.29596 0,-0.0641 -0.672,-0.26406 -1.492,-0.44436 -1.385,-0.30433 -1.468,-0.43623 -1.153,-1.84107 0.186,-0.83229 0.479,-2.81132 0.651,-4.39785 l 0.312,-2.8846 2.642,-0.50659 c 2.375,-0.45522 2.674,-0.65023 2.947,-1.92307 0.628,-2.92719 0.557,-3.0786 -1.384,-2.96459 l -1.803,0.10582 -0.151,-2.40255 c -0.184,-2.9158 0.181,-5.0578 1.067,-6.26976 0.55,-0.75293 0.788,-0.8023 1.404,-0.29111 0.408,0.33859 1.458,0.54677 2.335,0.46262 l 1.593,-0.15299 2.292,-7.68092 c 1.261,-4.22451 2.176,-7.98442 2.034,-8.35535 -0.606,-1.57945 -6.008,0.37043 -6.008,2.16856 0,0.87776 0.355,0.81538 1.791,-0.3149 0.672,-0.52884 1.517,-0.96153 1.878,-0.96153 1.054,0 0.754,1.30448 -0.367,1.59793 -0.674,0.17621 -0.928,0.51908 -0.742,1.00273 0.155,0.40423 -0.03,1.3366 -0.416,2.07194 -0.614,1.17517 -0.611,1.40158 0.02,1.87075 1.265,0.93917 0.782,1.57383 -1.778,2.33424 -3.284,0.97582 -3.566,0.64014 -2.894,-3.45272 0.294,-1.79378 0.66,-4.24159 0.814,-5.43958 l 0.279,-2.17816 4.373,-0.70644 4.372,-0.70644 0.866,-2.82179 0.866,-2.8218 -2.488,0.32686 c -1.369,0.17978 -3.436,0.45513 -4.593,0.6119 l -2.103,0.28503 0.278,-1.63623 c 1.12,-6.57384 1.721,-7.5803 5.032,-8.42812 1.386,-0.35487 2.895,-0.61427 3.352,-0.57643 2.977,0.24634 3.449,-0.21464 4.15,-4.04988 0.283,-1.55101 0.205,-1.80287 -0.558,-1.80287 -0.487,0 -1.121,-0.23476 -1.408,-0.52168 -0.375,-0.37506 -0.935,-0.3075 -1.995,0.24038 -0.81,0.41914 -1.808,0.76207 -2.217,0.76207 -1.201,0 -0.857,-0.93611 0.576,-1.56885 1.243,-0.54842 1.146,-0.59233 -1.603,-0.73014 -2.605,-0.13061 -3.419,0.0831 -7.453,1.9561 -2.491,1.15651 -4.797,2.01326 -5.125,1.9039 -0.953,-0.31782 -0.69,-1.36826 0.485,-1.94014 0.849,-0.41306 -0.08,-0.5228 -4.326,-0.51091 -3.712,0.0104 -5.519,0.19834 -5.767,0.59971 -0.387,0.62975 -4.173,2.69416 -4.94,2.69416 -0.256,0 -0.466,-0.29884 -0.466,-0.66408 0,-0.38583 0.906,-0.89232 2.163,-1.20884 2.126,-0.53558 2.972,-1.49245 1.319,-1.49245 -0.897,0 -6.565,1.9624 -8.208,2.84204 -0.592,0.31723 -1.092,0.34782 -1.26,0.0771 -0.29,-0.46949 0.137,-0.8361 2.139,-1.83944 l 1.204,-0.60301 -1.201,0.19529 c -0.661,0.1074 -2.716,0.77898 -4.566,1.4924 -4.89,1.88555 -5.046,1.91524 -5.046,0.96062 0,-0.64298 -0.247,-0.75672 -1.081,-0.49802 -2.674,0.82891 -3.244,0.85121 -3.244,0.12681 0,-0.44504 0.641,-0.84402 1.665,-1.0362 2.268,-0.4256 2.639,-1.2368 0.566,-1.2368 -0.919,0 -1.742,0.18011 -1.831,0.40024 -0.23,0.57581 -5.634,2.96512 -6.706,2.96512 -1.695,0 -0.907,-0.88295 1.504,-1.68392 1.324,-0.43981 2.284,-0.99806 2.134,-1.24055 -0.531,-0.85908 -3.037,-0.4219 -5.742,1.00141 -2.88,1.51565 -4.085,1.78782 -4.085,0.92286 0,-0.2857 0.872,-0.86232 1.939,-1.2814 3.56,-1.39892 1.257,-1.67998 -2.855,-0.34841 -3.657,1.18425 -5.755,1.30051 -5.127,0.28408 0.146,-0.23631 1.079,-0.59563 2.073,-0.79848 l 1.807,-0.36883 -1.922,-0.58778 c -1.658,-0.50697 -2.054,-0.47729 -2.883,0.21591 -1.102,0.92096 -4.513,2.17513 -4.89,1.79779 -0.457,-0.4565 0.363,-1.27804 1.274,-1.27804 1.179,0 2.414,-0.48987 2.414,-0.95757 0,-0.20567 -1.236,-0.52842 -2.746,-0.71722 -1.511,-0.18881 -3.187,-0.44198 -3.725,-0.56261 -3.643,-0.81695 -6.35,-0.73203 -8.195,0.25709 -2.218,1.18939 -1.374,1.31891 1.975,0.30283 2.82,-0.85599 2.599,-0.83455 2.599,-0.25204 0,0.58499 -2.511,1.66391 -4.926,2.11624 -1.451,0.27176 -1.802,0.19269 -1.802,-0.40532 0,-1.16265 -1.417,-0.87022 -1.897,0.39137 -0.283,0.74484 -0.98,1.25403 -2.03,1.48303 -1.403,0.30581 -1.481,0.39781 -0.639,0.74745 0.529,0.21929 1.777,0.28083 2.773,0.13675 1.535,-0.22205 1.765,-0.14253 1.51,0.52209 -0.165,0.43122 -0.1,0.78404 0.154,0.78404 0.79,0 1.559,2.34057 1.26,3.83612 -0.213,1.06578 -0.09,1.51488 0.492,1.73672 2.209,0.84776 -0.148,2.63995 -2.971,2.25994 l -2.069,-0.27847 0.329,1.39108 c 0.535,2.26512 0.934,2.38734 4.087,1.25242 3.5,-1.25968 3.661,-0.40126 0.181,0.95844 -3.001,1.17217 -3.443,1.6082 -2.268,2.2371 0.674,0.36137 1.657,0.31153 3.513,-0.17813 2.752,-0.72628 3.838,-0.58241 1.711,0.22663 -1.195,0.45481 -1.236,0.5622 -0.594,1.57594 0.379,0.59834 0.841,1.81726 1.027,2.70872 0.213,1.01892 0.684,1.71113 1.268,1.86397 0.865,0.2264 0.875,0.30304 0.142,1.11342 -0.671,0.7419 -0.702,1.12978 -0.207,2.62914 0.597,1.81032 1.111,1.95161 3.479,0.95605 0.463,-0.19451 0.841,-0.15114 0.841,0.0964 0,0.24751 -1.062,0.94761 -2.36,1.55577 -2.021,0.94717 -2.584,1.02759 -3.922,0.56078 -0.86,-0.29973 -1.662,-0.44591 -1.783,-0.32483 -0.364,0.36437 0.387,3.63033 0.835,3.63033 0.229,0 1.787,-0.64886 3.462,-1.44192 3.158,-1.49438 4.249,-1.75281 4.249,-1.00666 0,0.23981 -1.19,0.81029 -2.644,1.26773 -1.453,0.45744 -2.643,1.01844 -2.643,1.24666 0,0.22823 -0.42,0.41496 -0.933,0.41496 -1.241,0 -1.572,0.63741 -0.846,1.631 0.553,0.75659 0.814,0.74272 3.886,-0.20632 1.811,-0.55959 3.646,-1.14958 4.077,-1.31108 0.681,-0.25497 0.698,-0.18683 0.125,0.51753 -0.363,0.44614 -0.945,0.81116 -1.293,0.81116 -2.152,0 0,2.78201 2.647,3.42157 1.215,0.29353 1.212,0.30026 -0.303,0.6549 -1.63,0.38131 -2.226,1.21537 -1.753,2.44964 0.206,0.53681 0.656,0.67302 1.547,0.46842 l 1.256,-0.2885 -1.156,0.91237 c -1.276,1.00656 -1.119,2.4777 0.264,2.4777 0.69,0 0.641,0.18993 -0.309,1.20191 -0.621,0.66106 -1.513,1.20192 -1.984,1.20192 -1.09,0 -3.302,0.99888 -3.302,1.49109 0,0.96785 1.218,0.82559 4.816,-0.56249 2.144,-0.82743 4.029,-1.37485 4.187,-1.21651 0.393,0.39278 0.339,0.42294 -3.477,1.97343 -5.198,2.11178 -5.47,2.64137 -1.358,2.64137 2.956,0 3.405,0.11276 3.347,0.84134 -0.04,0.51033 0.212,0.78006 0.641,0.68559 0.559,-0.12301 0.533,0.0366 -0.12,0.759 -1.372,1.51617 -1.047,2.11826 0.974,1.80752 1.563,-0.24025 1.685,-0.19529 0.92,0.33879 -0.486,0.3387 -1.221,0.85342 -1.635,1.14383 -0.435,0.30522 -0.599,0.77811 -0.387,1.12068 0.347,0.56162 1.448,0.47082 3.406,-0.28096 0.55,-0.21105 0.763,-0.11576 0.631,0.28151 -0.11,0.33031 -1.7,1.12523 -3.533,1.76648 -3.932,1.37542 -4.287,1.65623 -3.484,2.754 0.571,0.78217 0.768,0.77396 3.433,-0.14348 4.214,-1.45037 4.305,-1.57894 3.965,-5.60495 -0.363,-4.30011 0.02,-4.76128 3.32,-4.02092 1.263,0.28333 2.569,0.41071 2.902,0.28308 0.332,-0.12763 0.808,0.0255 1.058,0.34033 0.607,0.76636 1.068,8.92304 0.524,9.25969 -0.236,0.14587 -1.456,0.4529 -2.711,0.68229 -1.255,0.22938 -3.308,0.78276 -4.564,1.22972 -2.113,0.75226 -2.283,0.9335 -2.283,2.43836 0,1.87966 0.547,2.02127 2.711,0.70158 1.26,-0.769 1.847,-0.84446 3.564,-0.45844 1.131,0.25413 2.318,0.36156 2.638,0.23873 1.123,-0.43103 1.66,0.88478 1.66,4.0657 0,2.29072 -0.21,3.38467 -0.733,3.81891 -0.472,0.3919 -2.431,0.62681 -5.503,0.65982 -4.856,0.0522 -6.6,0.62398 -5.44,1.78373 0.386,0.38689 1.2,0.38689 3.003,0 3.019,-0.64767 4.01,-0.67055 3.648,-0.0842 -0.152,0.24551 0.214,0.53141 0.813,0.63532 1.026,0.17818 1.006,0.22571 -0.354,0.8357 l -1.441,0.64677 2.162,0.44522 c 2.381,0.49008 26.128,1.19953 31.478,0.9404 1.85,-0.0896 4.121,-0.38795 5.046,-0.66297 z m -6.247,-7.51758 c 0,-2.32691 0.21,-4.44123 0.467,-4.6985 0.303,-0.30316 1.952,-0.28681 4.686,0.0465 3.765,0.45905 4.204,0.61506 4.086,1.45333 -0.07,0.51649 -0.139,1.79784 -0.148,2.84744 -0.03,2.71631 -0.57,3.13968 -4.045,3.13968 -2.086,0 -3.189,0.22078 -3.604,0.72115 -1.153,1.38967 -1.442,0.68649 -1.442,-3.50959 z m 3.072,-0.36915 c -0.296,-1.18323 -0.232,-1.22819 1.553,-1.08173 1.463,0.12004 1.832,0.33324 1.721,0.99415 -0.227,1.35177 0.726,0.96705 0.987,-0.39847 0.289,-1.50848 -0.225,-1.74964 -3.305,-1.55335 -1.803,0.11488 -2.375,0.34778 -2.503,1.01837 -0.239,1.25784 0.253,2.25556 1.112,2.25556 0.56,0 0.668,-0.3066 0.435,-1.23453 z m -15.247,3.79862 c -0.176,-0.17629 -0.32,-1.6499 -0.32,-3.27471 0,-2.36335 0.208,-3.17732 1.039,-4.06976 0.962,-1.03307 1.315,-1.09661 4.774,-0.85939 2.055,0.14088 3.994,0.41563 4.309,0.61054 0.397,0.24512 0.482,1.23016 0.277,3.19474 -0.481,4.60505 -0.615,4.71909 -5.53,4.71909 -2.326,0 -4.373,-0.14423 -4.549,-0.32051 z m 8.113,-2.56409 c 0.277,-0.92548 0.414,-2.16946 0.304,-2.76441 -0.179,-0.97332 -0.476,-1.08172 -2.963,-1.08172 h -2.765 l -0.298,1.80287 c -0.52,3.14667 -0.429,3.4098 1.254,3.61728 3.362,0.41472 3.933,0.21356 4.468,-1.57402 z m -5.069,-0.64664 c 0,-0.35565 0.437,-1.04284 0.972,-1.52709 0.77,-0.69663 1.096,-0.75695 1.562,-0.28894 0.466,0.46744 0.338,0.78553 -0.612,1.5164 -1.427,1.09828 -1.922,1.17553 -1.922,0.29963 z m -14.058,2.71446 c -0.114,-0.21183 -0.111,-1.93286 0,-3.82452 0.194,-3.08396 0.326,-3.46038 1.279,-3.64261 0.584,-0.11178 1.48,-0.0396 1.991,0.16042 0.51,0.2 1.703,0.37885 2.649,0.39744 l 1.722,0.0338 -0.194,2.7644 c -0.107,1.52043 -0.28,3.03484 -0.385,3.36537 -0.322,1.01364 -1.077,0.67001 -1.585,-0.72115 -0.468,-1.28356 -0.521,-1.21511 -0.738,0.96153 -0.07,0.67238 -4.407,1.13439 -4.747,0.50533 z m 3.485,-2.27983 c 0,-1.25633 1.019,-2.25863 1.334,-1.31241 0.105,0.31288 0.388,0.44623 0.631,0.29632 0.894,-0.55308 -0.533,-2.13726 -1.926,-2.13726 -1.053,0 -1.418,0.25914 -1.584,1.12543 -0.256,1.34249 0.353,3.20146 1.049,3.20146 0.273,0 0.496,-0.52809 0.496,-1.17354 z m -3.509,-8.76789 c -0.152,-0.24706 -0.317,-2.70864 -0.365,-5.47017 l -0.09,-5.02097 1.381,0.0697 c 0.759,0.0384 2.649,0.23345 4.199,0.43355 l 2.819,0.36381 -0.296,2.15758 c -0.162,1.18666 -0.295,2.95141 -0.295,3.92165 0,2.65183 -0.775,3.34302 -4.139,3.69054 -1.662,0.17176 -3.058,0.10852 -3.215,-0.14573 z m 5.409,-5.17624 c 0.746,-0.89813 0.462,-2.91106 -0.41,-2.91106 -0.37,0 -0.953,0.81129 -1.296,1.80287 -0.572,1.65279 -0.551,1.80287 0.253,1.80287 0.482,0 1.136,-0.31261 1.453,-0.69468 z m -2.316,-3.27967 c -0.652,-0.65177 -0.8,-0.49187 -1.233,1.33014 l -0.343,1.4423 1.052,-1.12181 c 0.765,-0.81583 0.908,-1.26604 0.524,-1.65063 z m 8.157,7.38161 c -0.497,-0.31471 -0.646,-1.43643 -0.575,-4.34713 0.05,-2.15763 0.214,-4.23507 0.36,-4.61653 0.286,-0.74592 5.855,-0.97363 9.414,-0.38498 l 1.803,0.298 v 3.55793 c 0,2.7191 -0.17,3.62317 -0.721,3.83466 -0.397,0.1522 -0.721,0.68627 -0.721,1.18683 0,0.82789 -0.402,0.90943 -4.445,0.90273 -2.445,-0.004 -4.747,-0.19823 -5.115,-0.43151 z m 8.806,-1.48419 c 0.416,0 0.638,-0.92175 0.697,-2.89088 0.08,-2.73813 0.02,-2.91717 -1.222,-3.38846 -0.738,-0.28082 -2.414,-0.35931 -3.848,-0.18016 -2.392,0.29905 -2.556,0.40726 -2.83,1.87023 -0.16,0.85405 -0.22,2.18193 -0.132,2.95085 0.135,1.18569 0.397,1.42092 1.721,1.54869 1.865,0.17983 2.13,-0.74062 0.278,-0.96006 -0.707,-0.0837 -1.375,-0.42526 -1.484,-0.75909 -0.254,-0.77355 2.902,-3.96032 3.921,-3.96032 1.139,0 0.936,0.76082 -0.505,1.89491 -1.728,1.35976 -1.002,1.91326 0.78,0.59497 0.779,-0.57617 1.534,-1.04758 1.676,-1.04758 0.55,0 0.226,1.35321 -0.461,1.92307 -1.008,0.83751 -0.976,3.0854 0.04,2.69565 0.418,-0.1605 1.034,-0.29182 1.369,-0.29182 z m 4.913,0.84644 c -0.319,-1.27293 0.359,-7.93028 0.859,-8.43043 0.16,-0.1607 2.232,-0.3296 4.603,-0.37533 l 4.311,-0.0831 -0.297,4.14143 c -0.163,2.27778 -0.552,4.41532 -0.864,4.75008 -0.311,0.3348 -2.308,0.74302 -4.437,0.9073 -3.839,0.29616 -3.874,0.28857 -4.175,-0.9099 z m 7.738,-2.16855 c 0.284,-0.86498 -1.091,-0.74085 -1.843,0.16637 -0.556,0.66993 -0.492,0.7462 0.504,0.60095 0.627,-0.0915 1.23,-0.43679 1.339,-0.76732 z m -3.941,-2.8258 c 0.808,-0.53012 1.743,-0.69336 2.897,-0.50606 1.425,0.23145 1.677,0.14357 1.544,-0.53957 -0.131,-0.67491 -0.615,-0.7866 -2.794,-0.6458 -3.108,0.20082 -3.356,0.31458 -3.356,1.54082 0,1.13463 0.183,1.15072 1.709,0.15061 z m -28.981,-8.19549 c -1.024,-0.71425 -1.082,-1.07592 -1.082,-6.76841 v -6.01385 l 1.802,0.298 c 0.992,0.1639 3.07,0.30038 4.619,0.30329 l 2.815,0.005 -0.338,1.80287 c -0.186,0.99158 -0.44,3.91224 -0.565,6.49035 l -0.227,4.68747 -2.971,-0.0252 c -1.885,-0.016 -3.368,-0.30131 -4.053,-0.77979 z m 3.243,-2.07959 c 0,-0.26442 -0.306,-0.48077 -0.68,-0.48077 -0.375,0 -0.766,-0.25465 -0.87,-0.56588 -0.103,-0.31124 -0.436,-0.41248 -0.74,-0.22499 -0.891,0.55096 -0.109,1.75241 1.14,1.75241 0.633,0 1.15,-0.21635 1.15,-0.48077 z m 2.403,-3.22113 c 0,-0.96682 -0.139,-1.1591 -0.544,-0.75347 -0.299,0.29953 -0.414,0.88366 -0.255,1.29807 0.44,1.1469 0.799,0.90188 0.799,-0.5446 z m -3.1,-4.84809 c -0.462,-0.46289 -1.705,0.38062 -1.705,1.15753 0,0.73986 0.08,0.73443 0.964,-0.0621 0.53,-0.48006 0.864,-0.97301 0.741,-1.09544 z m 11.451,10.42113 c -2.295,-0.6497 -2.643,-1.41894 -2.782,-6.16506 -0.159,-5.43211 0.351,-6.15416 3.914,-5.5409 1.26,0.21691 3.373,0.41847 4.694,0.4479 l 2.403,0.0535 0.136,4.7939 c 0.1,3.35435 -0.05,5.02713 -0.481,5.57059 -0.744,0.93769 -5.681,1.46373 -7.884,0.84005 z m 7.202,-2.11153 c 0.186,-0.48587 -0.02,-0.72115 -0.641,-0.72115 -0.505,0 -1.052,-0.21634 -1.215,-0.48076 -0.459,-0.74278 -1.682,-0.56798 -1.682,0.24038 0,0.48077 -0.481,0.72115 -1.442,0.72115 -1.592,0 -1.924,-0.92403 -0.698,-1.94195 0.893,-0.74117 0.151,-1.40424 -1.585,-1.41605 -0.862,-0.006 -1.079,0.25984 -1.074,1.31474 0.01,1.88475 0.494,2.41828 2.4,2.64836 3.882,0.46865 5.659,0.35949 5.937,-0.36472 z m -0.09,-7.04827 c -0.181,-0.17466 -2.058,-0.391 -4.173,-0.48077 -3.17,-0.13456 -3.845,-0.0366 -3.845,0.55793 0,0.55625 0.747,0.75377 3.265,0.86378 3.038,0.13273 3.301,0.23269 3.793,1.44229 l 0.529,1.29968 0.38,-1.68268 c 0.209,-0.92548 0.232,-1.82558 0.05,-2.00023 z m 5.213,8.02785 c -0.691,-0.8329 -0.405,-5.79593 0.423,-7.34339 0.249,-0.46622 0.559,-1.19745 0.689,-1.62495 0.181,-0.59621 1.113,-0.84185 4,-1.05447 2.07,-0.15245 4.196,-0.34354 4.725,-0.42464 0.904,-0.13866 0.952,0.0819 0.808,3.69868 -0.08,2.11537 -0.246,4.17657 -0.359,4.58045 -0.208,0.7444 -4.069,2.06078 -7.695,2.62379 -1.476,0.22904 -2.116,0.11638 -2.591,-0.45547 z m 3.59,-1.70073 c 0.163,-0.26442 0.08,-0.48076 -0.182,-0.48076 -0.264,0 -0.467,-0.88051 -0.452,-1.95669 0.02,-1.64741 0.222,-2.03101 1.263,-2.42689 1.756,-0.66779 3.657,-0.34341 3.847,0.65624 0.103,0.54279 -0.278,1.00631 -1.077,1.31021 -1.439,0.54717 -1.747,2.42159 -0.396,2.40977 1.53,-0.0134 2.036,-0.74034 2.289,-3.28627 l 0.251,-2.51803 -3.493,0.14142 c -2.575,0.10429 -3.458,0.30725 -3.362,0.77287 0.07,0.3473 -0.12,1.46687 -0.426,2.48794 -0.305,1.02106 -0.425,2.19724 -0.265,2.61372 0.325,0.84677 1.546,1.01538 2.003,0.27647 z m -40.812,1.38437 c -1.037,-0.24316 -2.144,-0.6577 -2.462,-0.9212 -0.317,-0.2635 -0.73,-2.04401 -0.916,-3.95669 -0.187,-1.91267 -0.667,-4.16983 -1.066,-5.01591 -0.399,-0.84608 -0.588,-1.76189 -0.419,-2.03515 0.361,-0.58542 7.412,-0.13383 8.256,0.52884 0.301,0.23621 0.681,1.88326 0.844,3.66011 0.163,1.77686 0.424,4.36646 0.58,5.75468 l 0.284,2.52402 -1.608,-0.0483 c -0.885,-0.0266 -2.456,-0.24725 -3.493,-0.49041 z m 3.086,-1.80627 c 0,-0.81783 -1.247,-1.44238 -2.793,-1.39842 -0.88,0.025 -1.488,0.26921 -1.392,0.55856 0.297,0.88914 4.185,1.66955 4.185,0.83986 z m -1.118,-4.27829 c 0.369,-0.2349 0.446,-0.93711 0.223,-2.03589 -0.307,-1.51477 -0.513,-1.69179 -2.125,-1.82654 -1.776,-0.14843 -1.786,-0.13964 -1.77,1.68268 0.01,1.71505 0.06,1.77237 0.721,0.89867 0.388,-0.51328 0.705,-1.10823 0.705,-1.32211 0,-0.21388 0.349,-0.38888 0.774,-0.38888 0.625,0 0.714,0.32522 0.459,1.68269 -0.313,1.67295 -0.06,1.99485 1.013,1.30938 z m 36.775,-7.89798 c -0.672,-0.67224 -0.312,-7.97536 0.505,-10.23822 1.02,-2.82514 1.345,-2.96157 7.295,-3.05332 l 5.483,-0.0846 0.322,1.46844 c 0.182,0.82953 0.101,1.73575 -0.187,2.08281 -0.28,0.33791 -0.767,2.22207 -1.081,4.18702 -0.809,5.06516 -0.968,5.16915 -9.097,5.94798 -1.732,0.16588 -2.873,0.0566 -3.24,-0.31015 z m 8.403,-2.11914 c 1.103,-0.29586 1.474,-0.90284 2.07,-3.3862 0.32,-1.3313 0.188,-1.64732 -1.073,-2.5805 -1.167,-0.86293 -1.516,-0.93947 -1.854,-0.40598 -0.526,0.83014 -0.526,0.81486 0.05,2.82405 0.398,1.38256 0.343,1.78304 -0.311,2.26506 -1.032,0.76077 -1.614,0.36832 -1.614,-1.08902 0,-0.92456 -0.225,-1.14402 -1.081,-1.05336 -0.906,0.0959 -1.082,-0.11895 -1.082,-1.31917 0,-0.94163 -0.268,-1.48614 -0.782,-1.5865 -0.615,-0.12007 -0.852,0.39777 -1.104,2.41776 -0.476,3.81384 -0.192,4.20939 3.019,4.20162 1.492,-0.004 3.184,-0.1331 3.76,-0.28776 z m -1.769,-5.47487 c 0,-0.26442 -0.1,-0.48077 -0.212,-0.48077 -0.116,0 -0.345,0.21635 -0.509,0.48077 -0.163,0.26442 -0.07,0.48077 0.212,0.48077 0.28,0 0.509,-0.21635 0.509,-0.48077 z m 5.253,-3.24517 c 0.02,-0.4226 -0.894,-0.60096 -3.09,-0.60096 -1.762,0 -3.124,0.20956 -3.124,0.48077 0,0.26442 0.831,0.48076 1.848,0.48076 1.257,0 2.135,0.3175 2.746,0.9929 0.849,0.93863 0.917,0.9452 1.242,0.12019 0.189,-0.47999 0.359,-1.14314 0.378,-1.47366 z m -19.705,10.27828 c -0.113,-0.10393 -1.793,-0.30679 -3.733,-0.45081 -5.079,-0.37704 -5.275,-0.63988 -5.191,-6.97036 l 0.07,-5.14075 5.335,-0.13527 c 7.264,-0.1842 7.546,0.0405 7.583,6.05493 0.02,3.82388 -0.1,4.50887 -0.956,5.30645 -1.001,0.93252 -2.734,1.67798 -3.106,1.33581 z m -2.849,-2.42651 c 0,-0.84905 -0.798,-1.86663 -1.747,-2.2277 -1.167,-0.44357 -1.453,-1.61463 -0.69,-2.82029 0.279,-0.44166 0.173,-1.07661 -0.303,-1.80288 -1.298,-1.98114 -1.718,-1.33004 -1.371,2.12408 0.242,2.40613 0.58,3.4627 1.311,4.08651 0.867,0.74123 2.8,1.18315 2.8,0.64028 z m 5.369,-2.32296 c 0.249,-1.38312 -0.03,-2.76441 -0.566,-2.76441 -0.228,0 -0.482,0.59495 -0.566,1.32211 -0.116,1.00824 -0.374,1.28343 -1.087,1.15918 -0.805,-0.14015 -0.847,-0.0561 -0.302,0.60096 0.931,1.12144 2.293,0.94967 2.521,-0.31784 z m -2.718,-3.33691 c 1.419,-1.10814 2.471,-2.18987 2.339,-2.40383 -0.491,-0.7936 -2.143,-0.35353 -2.622,0.69821 -0.272,0.59798 -1.133,1.4533 -1.912,1.90071 -1.4,0.80367 -1.902,1.81971 -0.9,1.81971 0.284,0 1.677,-0.90666 3.095,-2.0148 z m -1.93,-2.31209 c 0.163,-0.26443 0.08,-0.48077 -0.183,-0.48077 -0.265,0 -0.615,0.21634 -0.778,0.48077 -0.163,0.26442 -0.08,0.48076 0.184,0.48076 0.264,0 0.614,-0.21634 0.777,-0.48076 z m -18.138,8.7794 c -3.271,-0.20552 -3.478,-0.47648 -3.888,-5.09569 -0.161,-1.80807 -0.62,-3.94371 -1.02,-4.74587 -0.4,-0.80216 -0.616,-1.63906 -0.479,-1.85979 0.332,-0.53698 9.906,0.0394 10.67,0.64237 0.411,0.32502 0.6,2.0479 0.6,5.47532 0,4.92596 -0.02,5.00812 -1.232,5.46995 -0.678,0.25788 -1.381,0.42796 -1.562,0.37796 -0.181,-0.05 -1.571,-0.16891 -3.089,-0.26425 z m 0.301,-3.6841 c -1.78,-1.56558 -2.206,-1.55419 -2.019,0.0539 0.108,0.9228 0.503,1.39263 1.354,1.6099 1.87,0.47769 2.19,-0.3221 0.665,-1.66382 z m 3.563,1.70589 c 0.441,-0.28033 0.581,-1.43217 0.48,-3.95386 -0.121,-3.0132 -0.279,-3.58425 -1.03,-3.72777 -0.715,-0.13653 -0.823,0.0327 -0.557,0.8707 0.217,0.68437 0.05,1.35383 -0.5,1.9571 -0.733,0.81046 -0.759,1.16932 -0.221,3.09053 0.633,2.26242 0.795,2.41858 1.828,1.7633 z m -3.523,-6.03255 1.635,-1.63518 -1.901,-0.18138 c -2.293,-0.21877 -2.737,0.14559 -2.462,2.02069 0.269,1.83523 0.724,1.8012 2.728,-0.20413 z m -9.655,7.1822 c -0.189,-0.49108 -0.488,-0.60951 -0.838,-0.3316 -0.299,0.23776 -2.329,0.32366 -4.509,0.19088 -3.501,-0.21315 -3.965,-0.34909 -3.965,-1.16144 0,-1.59827 -1.497,-8.31131 -1.96,-8.78809 -0.244,-0.2512 -0.443,-0.98198 -0.443,-1.62394 0,-1.07943 0.136,-1.14556 1.802,-0.87942 0.991,0.15829 3.38,0.43423 5.308,0.61321 3.975,0.36903 4.211,0.59195 4.936,4.66249 0.913,5.12113 1.062,7.40173 0.506,7.7452 -0.299,0.18513 -0.676,-0.007 -0.837,-0.42729 z m -0.954,-4.94605 c -0.175,-1.78485 -0.497,-3.59413 -0.715,-4.02064 -0.418,-0.81553 -2.791,-1.37381 -5.876,-1.38269 -1.501,-0.004 -1.804,0.14874 -1.654,0.83605 0.101,0.46273 0.469,0.77814 0.817,0.7009 0.348,-0.0772 0.942,0.30136 1.32,0.84134 0.379,0.53998 1.187,0.98178 1.797,0.98178 1.328,0 3.739,2.26635 3.535,3.32418 -0.189,0.98395 -1.314,1.17007 -3.054,0.50543 -1.281,-0.48882 -1.331,-0.59008 -0.571,-1.14866 1.097,-0.80634 0.591,-1.23865 -1.45,-1.23865 -1.485,0 -1.628,0.11295 -1.368,1.08172 0.159,0.59495 0.292,1.33845 0.296,1.65222 0,0.58613 1.581,0.90031 5.186,1.03525 l 2.056,0.0769 z m 4.75,-10.83765 c -0.855,-1.14936 -2.015,-7.38938 -1.637,-8.80447 0.314,-1.17355 0.611,-1.38723 1.9,-1.3647 0.84,0.0147 3.553,0.0688 6.03,0.12019 l 4.503,0.0935 0.57,2.04326 c 0.314,1.12379 0.504,3.4495 0.423,5.16824 -0.142,3.0146 -0.19,3.12032 -1.349,2.99303 -2.891,-0.31757 -7.089,-0.32184 -8.488,-0.009 -0.989,0.22137 -1.671,0.13741 -1.952,-0.24038 z m 2.751,-2.26324 c 0,-0.26442 -0.324,-0.48076 -0.721,-0.48076 -0.396,0 -0.721,0.21634 -0.721,0.48076 0,0.26443 0.325,0.48077 0.721,0.48077 0.397,0 0.721,-0.21634 0.721,-0.48077 z m 7.112,-2.74645 -0.144,-2.74646 -1.821,-0.0614 c -1.997,-0.0673 -2.813,0.49078 -1.297,0.88738 1.235,0.32314 1.232,1.31934 0,1.64305 -1.562,0.40848 -1.096,1.10373 0.522,0.77997 1.258,-0.25178 1.469,-0.15876 1.386,0.61297 -0.15,1.40416 -0.04,1.63095 0.759,1.63095 0.602,0 0.717,-0.52435 0.6,-2.74645 z m -7.417,-1.13457 c 0.696,-0.54803 1.266,-1.16858 1.266,-1.379 0,-0.35303 -3.901,-1.0934 -4.198,-0.79665 -0.257,0.25728 0.934,3.17208 1.297,3.17208 0.203,0 0.938,-0.4484 1.635,-0.99643 z m 14.602,5.77828 c -0.53,-0.31704 -0.833,-1.07104 -0.82,-2.04134 0.02,-1.60258 1.019,-5.86377 1.479,-6.32416 0.146,-0.14568 2.178,-0.0708 4.517,0.16633 2.832,0.28713 4.62,0.26391 5.351,-0.0695 2.197,-1.00118 3.014,0.97358 2.268,5.48306 -0.261,1.57743 -0.492,1.80711 -2.277,2.26005 -3.062,0.77667 -9.555,1.10114 -10.518,0.52555 z m 3.019,-2.49821 c 0.02,-0.81125 2.275,-2.40843 3.49,-2.47241 0.54,-0.0284 1.071,-0.32205 1.181,-0.65257 0.142,-0.42652 -0.475,-0.59736 -2.123,-0.58856 -2.218,0.0118 -2.361,0.0952 -3.164,1.84019 -0.462,1.00528 -0.841,1.97325 -0.841,2.15104 0,0.60241 1.442,0.32761 1.457,-0.27769 z m 7.394,-2.0947 c 1.089,-0.41805 0.94,-1.63124 -0.201,-1.63124 -0.64,0 -0.961,0.32051 -0.961,0.96153 0,1.05871 0.06,1.093 1.162,0.66971 z m 7.724,4.61029 c -0.432,-0.69937 0.751,-7.59012 1.392,-8.10406 0.712,-0.57115 10.244,-1.64814 10.915,-1.23323 0.292,0.1808 0.416,0.99208 0.28,1.83043 -0.789,4.83164 -0.987,5.62291 -1.518,6.06378 -0.588,0.48866 -7.751,1.9069 -9.714,1.92342 -0.579,0.005 -1.189,-0.21128 -1.355,-0.48034 z m 5.257,-2.18936 c 1.469,-1.47003 0.76,-2.23646 -0.78,-0.8424 -0.651,0.58939 -1.033,0.66289 -1.423,0.27357 -0.389,-0.38933 -0.03,-0.99282 1.333,-2.24595 l 1.866,-1.71356 -1.466,-0.002 c -1.988,-0.003 -2.619,0.77233 -2.619,3.21884 0,1.86839 0.112,2.06729 1.167,2.06729 0.642,0 1.507,-0.33997 1.922,-0.75549 z m 4.237,-0.807 c 0.974,-0.74804 1.688,-4.2067 0.869,-4.2067 -0.31,0 -0.45,0.18206 -0.313,0.40458 0.138,0.22253 -0.498,1.13035 -1.413,2.01738 -0.915,0.88703 -1.664,1.78669 -1.664,1.99924 0,0.59694 1.647,0.4568 2.521,-0.2145 z m -55.384,2.26618 c -1.718,-0.35442 -3.797,-0.65774 -4.62,-0.67404 l -1.496,-0.0297 -0.338,-4.60033 c -0.375,-5.11377 -0.08,-5.96275 2.027,-5.74022 5.313,0.56259 7.382,0.93317 7.652,1.37063 0.172,0.27792 0.365,2.09773 0.43,4.04403 0.06,1.94629 0.376,3.85083 0.693,4.2323 0.448,0.53985 0.443,0.85344 -0.02,1.41474 -0.329,0.39663 -0.734,0.69995 -0.9,0.67405 -0.166,-0.0259 -1.707,-0.33708 -3.425,-0.69151 z m 2.403,-3.21054 c 0,-1.431 -0.06,-1.48711 -0.787,-0.75843 -0.433,0.43279 -0.656,1.12818 -0.496,1.54532 0.502,1.30689 1.283,0.82764 1.283,-0.78689 z m -3.244,0.74615 c -0.331,-0.13337 -0.871,-0.13337 -1.202,0 -0.33,0.13337 -0.06,0.24249 0.601,0.24249 0.661,0 0.931,-0.10912 0.601,-0.24249 z m -1.52,-2.70168 c 0.419,-0.32211 1.036,-1.09995 1.371,-1.72853 0.498,-0.93479 0.491,-1.21569 -0.04,-1.54288 -0.437,-0.27017 -0.76,-0.0943 -0.995,0.54191 -0.469,1.26782 -1.238,1.19247 -1.427,-0.1398 -0.08,-0.59495 -0.37,-1.08173 -0.634,-1.08173 -0.607,0 -0.891,1.90037 -0.511,3.41426 0.317,1.26309 1.057,1.441 2.235,0.53677 z m 4.497,-0.78266 c 0.383,-0.62126 -0.228,-2.01423 -0.745,-1.69494 -0.572,0.35382 -0.554,2.13232 0.02,2.13232 0.249,0 0.574,-0.19682 0.723,-0.43738 z m 43.038,-7.65848 c 0,-0.53903 1.916,-1.38457 4.042,-1.78354 2.375,-0.44567 2.161,0.11137 -0.477,1.24269 -2.355,1.00955 -3.565,1.19318 -3.565,0.54085 z m 17.301,-1.544 c 0,-0.60567 2.935,-1.89853 4.31,-1.89853 1.683,0 1.07,0.70261 -1.371,1.56983 -2.748,0.97628 -2.939,0.99768 -2.939,0.3287 z m -71.606,-0.4048 c 0,-0.56634 0.839,-0.86364 3.611,-1.27953 2.898,-0.43469 2.572,0.40721 -0.452,1.16896 -2.589,0.65219 -3.159,0.67215 -3.159,0.11057 z m 14.324,75.17674 c 1.766,-0.27509 2.048,-0.47417 1.923,-1.35723 -0.188,-1.3149 -2.414,-1.679 -3.347,-0.54724 -0.355,0.43077 -1.045,1.22176 -1.534,1.75776 -0.864,0.94795 -0.864,0.96764 0,0.72181 0.489,-0.139 1.82,-0.3978 2.958,-0.5751 z m 6.471,-1.32744 c 0.447,-2.75709 -0.03,-4.00394 -1.489,-3.91286 -1.766,0.10998 -1.793,0.12848 -1.14,0.78092 0.317,0.31731 0.576,0.92321 0.576,1.34645 0,0.92908 1.083,3.35606 1.499,3.36131 0.164,0.002 0.413,-0.70706 0.554,-1.57582 z m -10.703,-2.06624 c 0,-0.41867 -0.257,-0.67558 -0.571,-0.57091 -0.891,0.29715 -1.039,1.33212 -0.19,1.33212 0.419,0 0.761,-0.34254 0.761,-0.76121 z m 4.534,-0.18842 c 1.392,-0.52935 1.678,-1.93844 0.392,-1.9284 -1.804,0.0141 -3.004,0.60987 -3.004,1.49181 0,1.00838 0.77,1.13711 2.612,0.43659 z m -5.844,-3.34942 c 0.27,-1.03396 -0.04,-1.58186 -0.679,-1.18831 -0.545,0.33665 -0.536,2.122 0.01,2.122 0.233,0 0.534,-0.42016 0.668,-0.93369 z m 4.201,-3.71241 c 2.994,-0.83283 3.535,-1.31941 1.931,-1.73884 -1.152,-0.30155 -6.344,1.53927 -5.984,2.1219 0.354,0.57248 0.753,0.53475 4.053,-0.38306 z m 6.645,-8.44226 c -0.575,-1.04287 -0.611,-1.0491 -0.763,-0.13271 -0.622,3.74069 -1.274,4.17369 -1.755,1.16567 -0.18,-1.12504 -0.542,-1.88289 -0.851,-1.77984 -0.682,0.22744 -0.892,2.12628 -0.466,4.2102 0.279,1.36802 0.618,1.6936 2.24,2.1506 l 1.911,0.53853 0.144,-2.5291 c 0.08,-1.40647 -0.125,-3.01482 -0.46,-3.62335 z m 48.133,1.54997 c 0,-0.26442 -0.09,-0.48077 -0.212,-0.48077 -0.116,0 -0.345,0.21635 -0.509,0.48077 -0.163,0.26442 -0.07,0.48077 0.212,0.48077 0.28,0 0.509,-0.21635 0.509,-0.48077 z m -60.553,-0.96153 c 0,-0.26442 -0.216,-0.48077 -0.48,-0.48077 -0.264,0 -0.481,0.21635 -0.481,0.48077 0,0.26442 0.217,0.48076 0.481,0.48076 0.264,0 0.48,-0.21634 0.48,-0.48076 z m 61.507,-1.80288 c 0,-0.75495 -1.74,-0.79252 -2.2,-0.0473 -0.188,0.30453 0.06,0.84538 0.544,1.20188 0.93,0.68068 1.64,0.18619 1.656,-1.15463 z m -64.39,-9.99281 c 0,-0.58909 -0.194,-0.6342 -0.961,-0.22347 -0.529,0.28303 -0.961,0.61516 -0.961,0.73806 0,0.12291 0.432,0.22347 0.961,0.22347 0.544,0 0.961,-0.32051 0.961,-0.73806 z m 66.743,-0.10328 c 1.228,-1.02233 1.569,-3.14579 0.538,-3.34505 -1.001,-0.19336 -2.375,0.80803 -1.562,1.13808 1.023,0.41508 0.722,1.70936 -0.32,1.37847 -0.987,-0.31332 -1.73,0.39853 -1.242,1.18908 0.446,0.72181 1.455,0.58109 2.586,-0.36058 z m -70.74,-2.61417 c -0.153,-0.38352 -0.267,-0.2696 -0.29,0.29047 -0.02,0.50681 0.09,0.79076 0.252,0.631 0.16,-0.15975 0.177,-0.57441 0.04,-0.92147 z m -0.328,-2.73558 c 0,-0.49647 -0.325,-1.17199 -0.721,-1.50117 -0.588,-0.48795 -0.721,-0.46169 -0.721,0.1422 0,1.09458 0.523,2.26163 1.013,2.26163 0.236,0 0.429,-0.4062 0.429,-0.90266 z m 2.883,-0.53964 c 0,-0.26442 -0.229,-0.48076 -0.509,-0.48076 -0.28,0 -0.375,0.21634 -0.212,0.48076 0.164,0.26443 0.393,0.48077 0.509,0.48077 0.117,0 0.212,-0.21634 0.212,-0.48077 z m 69.532,-9.40616 c 0.466,-1.00584 0.441,-1.27447 -0.141,-1.49794 -0.882,-0.33844 -0.991,-0.22876 -1.402,1.40996 -0.436,1.73683 0.747,1.80426 1.543,0.088 z m -76.32,-2.4928 c 0.03,-0.19832 -0.156,-0.43269 -0.42,-0.52083 -0.265,-0.0881 -0.481,0.20032 -0.481,0.64102 0,0.75613 0.772,0.65312 0.901,-0.12019 z m 2.463,-0.0918 c 0,-0.51324 -0.216,-1.06687 -0.481,-1.23029 -0.272,-0.16852 -0.48,0.23539 -0.48,0.93316 0,0.67666 0.216,1.23029 0.48,1.23029 0.265,0 0.481,-0.41992 0.481,-0.93316 z m -3.997,-4.92618 c -0.153,-0.38352 -0.267,-0.2696 -0.29,0.29046 -0.02,0.50681 0.09,0.79076 0.252,0.63101 0.16,-0.15975 0.177,-0.57442 0.04,-0.92147 z m 81.851,-9.04441 c 0,-0.26443 -0.433,-0.48077 -0.961,-0.48077 -0.529,0 -0.962,0.21634 -0.962,0.48077 0,0.26442 0.433,0.48076 0.962,0.48076 0.528,0 0.961,-0.21634 0.961,-0.48076 z m 5.402,-2.50672 c 0.44,-1.64312 0.752,-3.03539 0.693,-3.09393 -0.193,-0.19322 -7.109,0.76849 -7.568,1.05243 -0.473,0.29242 -0.637,2.14438 -0.19,2.14438 0.143,0 0.846,-0.42936 1.562,-0.95413 0.833,-0.61016 1.692,-0.84993 2.383,-0.66508 1.38,0.36866 1.36,0.70931 -0.12,2.09998 -1.576,1.48158 -1.516,1.82302 0.361,2.05605 0.859,0.10664 1.678,0.22852 1.82,0.27084 0.142,0.0423 0.619,-1.26743 1.059,-2.91054 z m -88.062,-2.06056 c 0,-0.44407 -0.45,-0.72115 -1.173,-0.72115 -1.673,0 -1.983,0.85723 -0.397,1.09716 0.732,0.11059 1.384,0.23348 1.45,0.2731 0.07,0.0396 0.12,-0.25248 0.12,-0.64911 z m -3.565,-3.96754 c -0.524,-0.52373 -0.722,0.16109 -0.39,1.34432 l 0.331,1.18092 0.169,-1.12301 c 0.09,-0.61765 0.04,-1.24866 -0.11,-1.40223 z m 3.085,0.84256 c 0,-0.26443 -0.379,-0.47746 -0.841,-0.47341 -0.719,0.006 -0.737,0.0751 -0.12,0.47341 0.907,0.58634 0.961,0.58634 0.961,0 z m 47.421,-5.23009 c 0.738,-0.42917 0.607,-0.51219 -0.829,-0.52449 -1.58,-0.0135 -2.86,0.65363 -2.86,1.49027 0,0.40871 2.412,-0.22265 3.689,-0.96578 z m -50.104,-0.35016 c 1.318,-0.50579 0.851,-1.27715 -0.561,-0.9282 -1.758,0.43429 -2.542,1.22002 -1.217,1.22002 0.56,0 1.36,-0.13132 1.778,-0.29182 z m 1.001,-2.45126 c 3.486,-0.39317 4.102,-0.86413 2.025,-1.54983 -1.913,-0.63147 -5.096,-0.0552 -6.05,1.09542 -0.658,0.79339 -0.13,1.40524 0.876,1.01485 0.41,-0.15921 1.827,-0.41141 3.149,-0.56044 z m 73.048,-0.1198 c 2.114,-0.21887 6.872,-0.65059 10.572,-0.95939 11.61,-0.96878 10.738,-0.73057 13.577,-3.71152 2.39,-2.51001 2.523,-2.78356 2.523,-5.18543 0,-2.96959 -0.828,-4.26204 -4.179,-6.52452 l -2.222,-1.50019 -1.71,1.71016 c -1.836,1.83695 -1.679,2.72389 0.524,2.96712 0.605,0.0667 1.261,0.13926 1.459,0.1613 0.534,0.0593 0.437,1.88321 -0.159,2.99696 -0.704,1.31758 -2.751,2.09816 -8.659,3.30333 -6.427,1.31113 -17.695,1.97288 -38.399,2.25524 -17.036,0.23236 -18.834,0.1242 -30.516,-1.83661 -3.172,-0.53235 -7.065,-1.18107 -8.651,-1.44159 -1.586,-0.26053 -3.964,-0.69121 -5.286,-0.95706 -1.322,-0.26586 -3.7,-0.64082 -5.286,-0.83323 l -2.884,-0.34985 0.119,-1.66876 c 0.223,-3.13401 0.58,-3.80117 2.579,-4.82143 1.078,-0.5505 2.055,-0.9065 2.171,-0.7911 0.115,0.11541 -0.555,0.97424 -1.489,1.90853 -1.009,1.00943 -1.698,2.17127 -1.698,2.86331 0,1.07524 0.267,1.20587 3.473,1.70232 1.91,0.29575 3.539,0.47061 3.621,0.38859 0.45,-0.4497 -2.081,-6.51671 -3.271,-7.84278 l -1.399,-1.55845 -3.495,2.12479 c -3.89,2.36515 -5.176,4.07322 -5.176,6.87186 0,2.90359 1.38,3.94178 8.484,6.38276 5.086,1.74741 14.735,3.19075 33.326,4.98468 3.388,0.32695 37.765,-0.19548 42.051,-0.63904 z m -75.91,-2.14188 c 0.877,-0.64135 0.837,-0.7023 -0.749,-1.13134 -2.062,-0.55803 -2.548,-0.33382 -1.9,0.87684 0.591,1.10504 1.383,1.18109 2.649,0.2545 z m 31.456,-4.51992 c 0,-0.93514 -1.66,-2.97525 -2.422,-2.97525 -0.254,0 -0.461,-0.45072 -0.461,-1.00159 0,-0.55949 -0.252,-0.9176 -0.571,-0.8113 -0.973,0.32441 -0.928,1.08976 0.131,2.22652 0.589,0.63246 0.916,1.47268 0.779,1.99845 -0.244,0.9342 0.238,1.33 1.703,1.3961 0.505,0.0228 0.841,-0.30957 0.841,-0.83293 z m 9.755,-1.29256 c 1.17,-5.39889 1.872,-7.67453 2.743,-8.8982 1.087,-1.52732 1.182,-4.01603 0.311,-8.16901 -0.545,-2.60045 -0.58,-2.64162 -2.116,-2.48779 -1.877,0.18801 -2.007,-0.47338 -0.331,-1.69432 l 1.231,-0.89694 -1.383,-2.62871 c -0.76,-1.44579 -1.627,-3.33183 -1.926,-4.1912 -0.3,-0.85937 -0.749,-1.56249 -0.999,-1.56249 -0.89,0 -1.009,1.50834 -0.276,3.50302 1.345,3.66062 1.349,3.70847 0.303,3.70847 -1.211,0 -2.987,-2.87522 -2.987,-4.83514 v -1.41482 h -3.604 c -1.982,0 -3.604,0.19651 -3.604,0.43669 0,0.24019 1.002,1.66824 2.228,3.17345 l 2.229,2.73676 0.225,7.28321 c 0.124,4.00577 0.25,8.47312 0.279,9.92744 0.06,2.75884 -0.325,5.87963 -0.899,7.35126 -0.309,0.79377 0,0.85002 3.912,0.72115 l 4.247,-0.13977 z m -6.391,-18.24075 c 0,-0.84355 0.282,-1.02309 2.283,-1.45234 1.951,-0.41866 2.198,0.7394 0.338,1.58718 -1.651,0.75238 -2.621,0.70247 -2.621,-0.13484 z m 33.222,19.68669 c 0.512,-0.19765 0.896,-1.15065 1.108,-2.7522 0.179,-1.34742 0.631,-3.04155 1.004,-3.76474 0.625,-1.20896 0.603,-1.33496 -0.273,-1.56417 -1.041,-0.27242 -2.382,-2.99009 -2.382,-4.82892 0,-1.49048 1.132,-2.41994 2.521,-2.07106 1.67,0.41935 2.116,-0.16555 2.419,-3.17148 0.244,-2.4303 0.174,-2.76441 -0.575,-2.76441 -0.468,0 -1.263,-0.45479 -1.766,-1.01065 -0.981,-1.08432 -0.909,-1.08459 -8.077,0.0305 -5.521,0.85886 -6.048,1.35549 -7.484,7.05291 -0.539,2.14243 -1.386,2.69671 -5.05,3.30849 -2.792,0.46598 -3.486,0.97615 -4.765,3.5003 -1.135,2.24084 -2.323,7.98095 -1.774,8.57183 0.354,0.38149 24.027,-0.12453 25.094,-0.5364 z m -15.674,-0.71306 c -0.326,-0.52837 1.164,-3.3771 1.767,-3.3771 0.2,0 0.692,-0.63521 1.094,-1.41157 0.542,-1.04964 1.13,-1.45027 2.291,-1.56249 0.946,-0.0914 1.598,-0.43536 1.654,-0.87207 0.475,-3.72174 0.734,-4.35302 2.076,-5.04685 1.579,-0.81719 3.847,-0.96337 3.847,-0.24803 0,0.26087 -0.804,0.81013 -1.786,1.22056 -2.227,0.93083 -2.372,1.1732 -2.144,3.57159 0.216,2.25681 1.046,2.64412 1.046,0.48764 0,-1.84192 1.065,-2.28476 2.366,-0.98361 1.174,1.17432 1.378,3.8833 0.292,3.8833 -0.973,0 -0.391,1.34751 0.662,1.53438 0.701,0.12417 0.769,0.40784 0.418,1.74345 -0.419,1.59936 -1.637,1.91932 -1.509,0.39636 0.08,-0.95047 0.247,-0.9424 -2.13,-0.10334 -2.512,0.8867 -9.535,1.42896 -9.944,0.76778 z m 7.071,-1.68178 c 2.67,-0.3628 2.945,-0.65904 2.16,-2.32739 -0.593,-1.26037 -0.861,-1.29551 -3.807,-0.50057 -0.449,0.12116 -0.95,0.64192 -1.113,1.15723 -0.164,0.51532 -0.499,0.93694 -0.746,0.93694 -0.246,0 -0.448,0.3391 -0.448,0.75355 0,0.48567 0.299,0.67094 0.841,0.52118 0.463,-0.1278 1.863,-0.37123 3.113,-0.54094 z m -12.247,-0.53623 c -0.545,-0.54576 -0.426,-4.04369 0.138,-4.04369 0.273,0 0.59,0.27043 0.705,0.60096 0.306,0.88151 -0.423,3.86223 -0.843,3.44273 z m 7.158,-8.22355 c -0.693,-0.69376 -0.226,-1.16318 1.015,-1.02031 0.727,0.0837 1.321,0.34691 1.321,0.58499 0,0.51862 -1.899,0.8725 -2.336,0.43532 z m 5.701,-4.9534 c -0.164,-0.26513 -0.167,-0.69279 0,-0.95034 0.326,-0.52805 4.763,-1.93555 6.102,-1.93555 1.699,0 0.843,0.9334 -1.491,1.62692 -1.301,0.38646 -2.802,0.93628 -3.335,1.22184 -0.641,0.34328 -1.071,0.35586 -1.268,0.0371 z m -33.275,14.35486 c -0.475,-0.47473 -2.048,-0.071 -2.048,0.52557 0,0.19572 0.487,0.57598 1.081,0.84502 0.842,0.38064 1.118,0.33229 1.247,-0.21799 0.09,-0.38892 -0.03,-0.90759 -0.28,-1.1526 z m 50.936,1.20055 c 1.132,-0.18729 1.802,-0.56125 1.802,-1.00661 0,-0.38974 0.529,-1.76151 1.175,-3.04837 l 1.174,-2.33975 -1.295,-0.90708 c -0.712,-0.49889 -1.785,-1.16391 -2.385,-1.47783 -1.064,-0.55676 -1.083,-0.52454 -0.789,1.31376 0.37,2.31697 -0.182,2.74192 -2.374,1.82581 -1.69,-0.70651 -2.715,-0.34975 -2.715,0.94532 0,0.31546 -0.324,0.69809 -0.721,0.85029 -0.475,0.18266 -0.721,0.93559 -0.721,2.21489 v 1.93815 l 2.524,-0.005 c 1.387,-0.003 3.334,-0.13939 4.325,-0.30329 z m 10.012,-1.43315 c 2.344,-0.42911 4.634,-1.05191 5.088,-1.38401 0.779,-0.56977 0.777,-0.67742 -0.03,-1.90899 -1.07,-1.63353 -4.487,-3.20539 -6.085,-2.79897 -1.965,0.49987 -3.347,1.63743 -4.328,3.56109 -1.846,3.61874 -1.495,3.78443 5.354,2.53088 z m -64.918,-0.69047 c 0,-0.24882 -0.325,-0.4524 -0.721,-0.4524 -0.743,0 -0.955,0.56729 -0.414,1.10872 0.384,0.3841 1.135,-0.0501 1.135,-0.65632 z m -8.953,-2.25527 c -0.05,-1.52042 -0.329,-3.37344 -0.617,-4.11781 -0.287,-0.74437 -0.522,-2.19193 -0.522,-3.2168 0,-1.02487 -0.211,-1.99347 -0.468,-2.15245 -0.257,-0.15898 -0.7,-1.15183 -0.984,-2.20633 -0.586,-2.18032 -0.979,-2.13069 -2.117,0.26743 -1.023,2.15736 -1.911,2.23516 -1.46,0.12795 l 0.335,-1.56249 -1.164,1.07763 -1.164,1.07762 -1.865,-1.91014 c -1.025,-1.05058 -1.958,-1.81571 -2.074,-1.7003 -0.115,0.11541 0.375,1.20763 1.089,2.42715 0.715,1.21952 1.176,2.53987 1.024,2.93412 -0.151,0.39425 0.13,1.5156 0.623,2.49189 0.494,0.97628 1.062,2.5314 1.262,3.45581 0.769,3.56197 1.649,4.69615 4.029,5.19437 4.245,0.88839 4.179,0.92335 4.073,-2.18765 z m 12.05,1.36549 c 0.425,-0.68845 -0.218,-1.903 -1.168,-2.20445 -0.475,-0.15104 -0.978,-0.70877 -1.117,-1.23942 -0.206,-0.78782 -0.502,-0.90478 -1.613,-0.63759 -1.701,0.40881 -1.78,0.47848 -1.463,1.30477 0.142,0.37044 0.92,0.80586 1.729,0.9676 0.808,0.16174 1.744,0.73337 2.079,1.27027 0.661,1.05973 1.13,1.22245 1.553,0.53882 z m 5.896,-6.5803 c -0.152,-2.00878 -0.368,-3.74463 -0.481,-3.85745 -0.324,-0.32448 -1.784,0.35504 -1.784,0.83048 0,0.23613 0.324,0.42933 0.721,0.42933 1.14,0 0.838,0.878 -0.361,1.04828 -1.636,0.23241 -1.652,2.03415 -0.03,3.73335 0.745,0.78211 1.548,1.43245 1.785,1.44518 0.239,0.0129 0.307,-1.59084 0.153,-3.62917 z m 53.531,0.8242 c 0.993,-0.80418 1.053,-1.04785 0.534,-2.18607 -0.774,-1.70084 -0.726,-3.43002 0.169,-6.00015 0.832,-2.39184 0.44,-3.0353 -1.713,-2.81204 -0.887,0.0919 -1.235,0.4396 -1.328,1.32646 -0.07,0.66105 -0.346,2.00468 -0.614,2.98583 -0.467,1.70438 -0.407,1.85843 1.327,3.4548 1.408,1.29541 1.688,1.80091 1.244,2.24955 -0.444,0.45012 -0.906,0.29713 -2.077,-0.68867 -1.225,-1.03139 -1.684,-1.17191 -2.463,-0.75476 -0.764,0.40924 -0.842,0.65117 -0.387,1.20018 0.314,0.3782 0.842,0.68763 1.174,0.68763 0.332,0 0.872,0.32451 1.201,0.72114 0.796,0.95864 1.584,0.9092 2.933,-0.1839 z m 7.765,-1.75862 c 0.724,-0.67175 1.317,-1.31095 1.317,-1.42044 0,-0.49238 -2.513,-2.64661 -3.087,-2.64661 -1.094,0 -1.803,-1.32058 -1.652,-3.07515 0.08,-0.92452 0,-1.82082 -0.166,-1.99179 -0.771,-0.7717 -2.667,5.04684 -2.355,7.23038 0.21,1.47383 1.998,3.12499 3.384,3.12499 0.683,0 1.835,-0.54962 2.559,-1.22138 z m -66.925,0.0783 c 0,-0.36426 0.324,-0.93161 0.721,-1.26079 0.396,-0.32917 0.72,-0.78835 0.72,-1.0204 0,-0.60322 -1.63,-0.52179 -2.264,0.11313 -0.295,0.29427 -0.789,0.37802 -1.1,0.18612 -0.878,-0.54321 0,-1.09994 3.627,-2.32383 3.118,-1.04921 3.352,-1.22631 3.492,-2.6458 0.127,-1.27543 -0.06,-1.60097 -1.144,-2.01403 -1.421,-0.54046 -2.31,-0.37253 -5.374,1.01533 -3.406,1.54316 -2.335,2.61963 1.156,1.16067 1.95,-0.81527 3.049,-0.92204 3.049,-0.29622 0,0.3627 -3.012,1.71314 -5.887,2.63932 -0.613,0.19755 -0.841,0.78505 -0.841,2.16903 0,1.63307 0.185,1.96551 1.322,2.38096 1.872,0.68397 2.523,0.65727 2.523,-0.10349 z m 52.498,-1.81268 c 1.154,-0.60477 2.075,-2.55389 2.746,-5.81134 0.731,-3.54742 0.03,-4.77516 -1.716,-3.02441 -0.389,0.38964 -1.56,0.93785 -2.6,1.21824 -2.292,0.61739 -2.923,1.63185 -2.4,3.85774 0.216,0.9171 0.414,1.30091 0.441,0.85292 0.08,-1.23902 2.045,-3.19641 3.581,-3.55833 1.15,-0.27072 1.343,-0.18333 1.202,0.54396 -0.09,0.47657 -0.813,1.22412 -1.602,1.66121 -0.865,0.47986 -1.607,1.39999 -1.871,2.32254 -0.442,1.54129 -1.741,2.1432 -1.741,0.80668 0,-0.39663 -0.216,-0.72115 -0.48,-0.72115 -0.676,0 -0.6,1.612 0.11,2.32169 0.604,0.605 2.716,0.3759 4.33,-0.46975 z m -26.787,-1.37117 c 0.163,-0.26442 -0.136,-0.48077 -0.664,-0.48077 -0.529,0 -1.095,0.21635 -1.259,0.48077 -0.163,0.26442 0.136,0.48076 0.664,0.48076 0.529,0 1.095,-0.21634 1.259,-0.48076 z m -49.503,-1.44525 c -0.479,-0.53046 -0.976,-0.86021 -1.104,-0.73277 -0.323,0.32305 0.876,1.69725 1.481,1.69725 0.273,0 0.103,-0.43401 -0.377,-0.96448 z m 48.043,0.0578 c 2.442,-0.92815 3.434,-1.9802 1.86,-1.97491 -0.484,0.002 -1.5,0.32614 -2.257,0.72115 -1.6,0.83466 -2.228,0.90507 -2.228,0.24976 0,-0.25763 0.641,-0.8002 1.425,-1.2057 0.886,-0.45822 1.326,-0.99486 1.164,-1.41778 -0.149,-0.38746 0.169,-0.91067 0.738,-1.21504 0.549,-0.294 0.998,-0.82496 0.998,-1.17992 0,-0.35495 0.333,-0.9223 0.741,-1.26077 0.48,-0.39805 0.577,-0.78031 0.275,-1.08227 -0.507,-0.50702 -1.657,0.27606 -5.189,3.53316 -2.067,1.9061 -2.092,1.96565 -1.588,3.83759 0.585,2.17503 0.809,2.22993 4.061,0.99473 z m 4.343,-5.34324 c 0.41,-0.79326 1.052,-1.4423 1.427,-1.4423 0.757,0 2.177,-1.79484 2.177,-2.75119 0,-0.79495 -1.445,-0.7634 -2.523,0.0551 -0.863,0.65577 -1.196,1.53035 -0.393,1.03396 1.038,-0.64211 0.9,0.69284 -0.156,1.50006 -0.635,0.48578 -1.3,1.37002 -1.477,1.96497 -0.457,1.53841 0.07,1.33856 0.945,-0.36058 z m 23.543,-1.99645 c 0.46,-0.46212 -0.745,-4.35844 -1.65,-5.33862 -0.522,-0.56449 -1.812,-0.93521 -3.888,-1.11746 -1.709,-0.15 -4.344,-0.68933 -5.855,-1.19853 -1.512,-0.50919 -2.953,-0.9258 -3.203,-0.9258 -0.674,0 -3.253,4.39445 -3.656,6.23089 l -0.35,1.59384 2.335,-0.27668 c 1.285,-0.15218 3.525,-0.4184 4.979,-0.5916 2.589,-0.30848 2.682,-0.2768 4.555,1.54936 l 1.911,1.86428 2.255,-0.73796 c 1.24,-0.40587 2.396,-0.87915 2.567,-1.05172 z m -54.54,1.03492 c 0,-0.26442 -0.229,-0.48077 -0.509,-0.48077 -0.28,0 -0.375,0.21635 -0.212,0.48077 0.163,0.26442 0.392,0.48076 0.509,0.48076 0.116,0 0.212,-0.21634 0.212,-0.48076 z m 7.44,-0.94742 c 0.351,-0.56869 -0.762,-2.68636 -2.324,-4.41931 l -1.153,-1.28022 -2.462,1.17871 c -1.354,0.64829 -2.462,1.49482 -2.462,1.88118 0,0.38635 0.05,0.70346 0.12,0.70469 0.07,10e-4 1.418,0.53695 3.003,1.1905 3.062,1.2618 4.806,1.50783 5.278,0.74445 z m 25.72,-4.15002 c 1.189,-0.66433 1.784,-1.09403 1.321,-0.9549 -1.5,0.4512 -0.894,-0.77915 1.562,-3.17261 1.322,-1.2878 2.403,-2.65968 2.403,-3.0486 0,-0.38893 0.229,-0.70714 0.509,-0.70714 0.28,0 0.375,-0.21635 0.212,-0.48077 -0.554,-0.89645 -1.064,-0.48647 -3.738,3.00479 -1.468,1.91706 -3.228,4.01005 -3.911,4.65109 -1.216,1.14169 -1.598,1.98092 -0.881,1.93772 0.198,-0.012 1.333,-0.56526 2.523,-1.22958 z m 26.162,-1.99386 c -1.007,-4.59589 -0.157,-8.58416 2.691,-12.63223 0.85,-1.20749 0.845,-1.2198 -0.784,-2.28806 -1.604,-1.05216 -1.637,-1.05436 -1.637,-0.10808 0,1.1479 -0.448,1.2159 -1.711,0.26009 -1.508,-1.14084 -1.795,-0.84299 -0.687,0.71287 1.374,1.93067 1.03,2.73105 -0.618,1.43489 -0.72,-0.567 -1.31,-0.81164 -1.31,-0.54363 0,0.26801 0.217,0.62099 0.481,0.78441 0.723,0.44684 0.594,3.12498 -0.15,3.12498 -0.348,0 -1.235,-0.63031 -1.973,-1.4007 l -1.341,-1.40071 -2.16,0.79975 c -1.188,0.43986 -2.351,1.15728 -2.585,1.59426 -0.234,0.43698 -1.402,1.26757 -2.596,1.84576 -2.038,0.98713 -3.163,2.42239 -1.33,1.69716 1.287,-0.50895 3.965,-0.8937 3.965,-0.56956 0,0.15836 -0.595,0.63107 -1.322,1.05046 -1.318,0.76087 -1.316,0.76197 0.962,0.50532 2.393,-0.26966 2.315,-0.33636 2.476,2.12823 0.03,0.49678 0.69,0.76754 2.115,0.87026 1.247,0.0898 2.174,0.42432 2.334,0.84134 0.147,0.38073 0.471,0.69223 0.721,0.69223 0.25,0 1.25,0.54086 2.222,1.20191 2.383,1.61945 2.705,1.53291 2.237,-0.60095 z m -11.485,-3.03678 c 0.441,-0.71309 0.03,-1.00927 -0.909,-0.6501 -0.433,0.16614 -0.667,0.49575 -0.521,0.73246 0.359,0.58223 1.044,0.54282 1.43,-0.0824 z m -3.364,-0.96153 c 0.468,-0.7568 -0.05,-1.0607 -1.192,-0.69845 -0.552,0.17539 -0.88,0.51966 -0.729,0.76505 0.374,0.60466 1.531,0.56453 1.921,-0.0666 z m -0.981,-5.25645 c 0.164,-0.26442 -0.04,-0.48076 -0.452,-0.48076 -0.412,0 -0.749,0.21634 -0.749,0.48076 0,0.26443 0.203,0.48077 0.452,0.48077 0.249,0 0.586,-0.21634 0.749,-0.48077 z m 20.603,-7.94354 c 0.409,-1.06738 -1.395,-2.63331 -3.033,-2.63331 -2.021,0 -2.175,0.68762 -0.474,2.11962 1.663,1.39971 3.087,1.60829 3.507,0.51369 z m -115.92,27.98931 c -0.318,-0.38346 -0.339,-0.8666 -0.06,-1.312 0.784,-1.24149 0.498,-1.67597 -1.102,-1.67121 -0.991,0.003 -1.562,-0.23195 -1.562,-0.64247 0,-0.43696 0.838,-0.71262 2.581,-0.84881 2.749,-0.21477 2.78,-0.17259 1.748,2.33727 -0.249,0.60321 -0.12,0.84134 0.454,0.84134 0.941,0 0.584,0.75592 -0.674,1.42961 -0.623,0.33322 -1.033,0.29365 -1.388,-0.13373 z m 9.468,-7.01453 c -0.962,-0.95327 -2.213,-2.15797 -2.781,-2.67709 -0.568,-0.51913 -1.483,-1.84568 -2.033,-2.9479 -0.777,-1.55602 -1.552,-2.25856 -3.467,-3.14264 -2.35,-1.08507 -2.477,-1.24037 -2.706,-3.30207 l -0.241,-2.16345 -3.18,0.12574 c -3.841,0.15184 -4.513,-0.37952 -4.038,-3.19128 0.299,-1.77296 1.859,-3.89881 2.436,-3.32112 0.142,0.14192 -0.106,1.02236 -0.552,1.95654 -1.27,2.66596 -0.696,3.4019 2.359,3.02009 3.506,-0.43817 4.04,-0.13027 4.407,2.53948 0.287,2.09008 0.479,2.34847 2.563,3.44953 1.64,0.86643 2.588,1.81279 3.487,3.47881 0.678,1.25873 2.139,2.95463 3.245,3.76868 1.7,1.25097 3.05,3.47144 2.427,3.99156 -0.1,0.0816 -0.965,-0.6316 -1.926,-1.58488 z m 122.613,-3.30431 c 0,-1.27154 2.318,-4.43631 3.262,-4.4535 0.453,-0.008 1.688,-0.54801 2.746,-1.19945 1.057,-0.65145 2.192,-1.18556 2.523,-1.18691 1.2,-0.005 0.562,1.44577 -0.962,2.18466 -3.951,1.91698 -5.101,2.74686 -5.652,4.07746 -0.645,1.55739 -1.917,1.94072 -1.917,0.57774 z m -7.208,-3.16814 c 0,-0.40307 0.216,-0.86655 0.48,-1.02997 0.265,-0.16342 0.481,-0.68459 0.481,-1.15816 0,-0.47356 0.64,-1.74448 1.421,-2.82426 1.089,-1.5031 1.793,-1.9989 3.004,-2.11539 1.239,-0.11915 1.755,-0.49827 2.379,-1.74784 1.259,-2.52288 2.22,-3.31137 4.388,-3.60234 2.02,-0.27105 4.186,-2.03361 4.186,-3.40617 0,-0.7306 4.578,-3.3309 5.388,-3.06067 0.307,0.10251 -0.05,0.6056 -0.8,1.11796 -1.319,0.90502 -2.67,2.17854 -5.678,5.35394 -0.994,1.04992 -1.99,1.58373 -3.138,1.68268 -1.082,0.0933 -1.87,0.48778 -2.21,1.10645 -1.554,2.83053 -2.731,3.98673 -4.372,4.29467 -1.504,0.28219 -1.88,0.66021 -3.023,3.03711 -1.277,2.65673 -2.506,3.81021 -2.506,2.35199 z m -93.19,-12.51714 c -0.306,-0.36846 -0.638,-1.32209 -0.739,-2.11917 -0.212,-1.6719 -1.073,-3.46087 -1.667,-3.46087 -0.917,0 -0.894,-2.23259 0.05,-4.41857 l 1,-2.32673 -1.263,-1.17167 c -0.695,-0.64442 -1.264,-1.30911 -1.264,-1.47709 0,-0.16797 0.782,-1.7039 1.737,-3.41317 0.956,-1.70927 1.587,-3.25785 1.404,-3.44129 -0.183,-0.18344 -1.235,-0.7672 -2.338,-1.29725 -2.477,-1.19108 -2.775,-2.51844 -1.125,-5.01351 1.696,-2.564 5.608,-4.25345 5.608,-2.42196 0,0.24344 -0.918,0.91132 -2.041,1.48418 -3.701,1.88919 -4.251,3.77562 -1.486,5.10397 2.902,1.39476 3.046,2.10166 1.151,5.66191 l -1.656,3.11016 1.055,0.98311 c 1.268,1.18135 1.3,1.80935 0.246,4.77918 -0.792,2.2292 -0.787,2.30957 0.24,3.61491 0.577,0.73427 1.05,1.91354 1.05,2.6206 0,0.70707 0.317,1.70553 0.705,2.21881 1.176,1.55558 0.564,2.46393 -0.663,0.98445 z m 30.251,-5.7764 c -0.254,-0.66867 -0.903,-1.49093 -1.441,-1.82726 -1.194,-0.74601 -1.274,-2.62917 -0.178,-4.19448 0.766,-1.09498 0.751,-1.18133 -0.361,-2.02987 -2.171,-1.65737 -2.282,-1.81094 -2.023,-2.80246 0.36,-1.3757 2.946,-3.30312 4.046,-3.01531 1.317,0.34454 1.112,0.86561 -0.781,1.98289 -1.985,1.17148 -2.111,1.81172 -0.503,2.54482 1.504,0.68568 1.708,1.63386 0.84,3.90613 -0.616,1.61302 -0.61,1.91379 0.05,2.64509 1.09,1.20435 1.833,3.37457 1.275,3.71987 -0.255,0.15749 -0.671,-0.26075 -0.925,-0.92942 z m 20.216,-0.88536 c -0.252,-0.67982 -0.158,-1.76995 0.252,-2.93409 0.9,-2.55533 0.941,-4.09158 0.166,-6.20545 -0.562,-1.53046 -0.563,-2.15748 0,-4.08651 1.16,-4.03431 1.174,-5.56308 0.06,-6.56941 -0.551,-0.49848 -1.001,-1.46774 -1,-2.15392 0,-1.38909 1.636,-4.37257 2.394,-4.37257 0.637,0 0.643,-0.0268 -0.469,2.1559 -0.863,1.69353 -0.886,1.97567 -0.236,2.86606 1.564,2.1397 1.743,3.21117 0.963,5.75662 -0.517,1.68437 -0.709,3.93472 -0.62,7.25015 0.07,2.64422 -0.04,5.42061 -0.25,6.16976 -0.318,1.14006 -0.22,1.4039 0.6,1.61856 1.172,0.30639 1.271,0.89153 0.221,1.2948 -1.269,0.48698 -1.657,0.33941 -2.075,-0.7899 z m 5.238,-4.43793 c 0,-0.87713 0.323,-1.27407 1.223,-1.50004 1.571,-0.39426 1.986,0.0317 0.996,1.02156 -0.428,0.42811 -0.778,0.97928 -0.778,1.22481 0,0.24554 -0.324,0.44643 -0.721,0.44643 -0.447,0 -0.72,-0.45304 -0.72,-1.19276 z m -48.432,-15.90171 c -1.237,-0.86654 -1.379,-2.73358 -0.347,-4.54001 0.974,-1.70438 0.88,-2.89364 -0.331,-4.1827 -1.29,-1.37424 -0.849,-3.13113 1.164,-4.63018 1.795,-1.33719 2.277,-0.62126 0.694,1.03175 -1.54,1.60793 -1.587,2.07179 -0.326,3.21385 1.22,1.10396 1.209,1.96318 -0.06,4.83757 l -1.024,2.31559 1.264,1.08783 c 0.695,0.5983 1.264,1.20638 1.264,1.35127 0,0.51494 -1.244,0.25219 -2.296,-0.48497 z"
         id="path1" /></g></g></svg>
