<?xml version="1.0" encoding="UTF-8" standalone="no"?>
<!-- Created with Inkscape (http://www.inkscape.org/) -->

<svg
   width="231.38646"
   height="235.24007"
   viewBox="0 0 61.221 62.240601"
   version="1.1"
   id="svg1"
   xml:space="preserve"
   xmlns="http://www.w3.org/2000/svg"
   xmlns:svg="http://www.w3.org/2000/svg"><defs
     id="defs1" /><g
     id="g1693"
     transform="matrix(0.26458333,0,0,0.26458333,-4099.9109,-78.037963)"><path
       style="fill:#000000"
       d="m 15546.662,523.3129 c -0.582,-0.58313 -0.255,-1.76063 0.914,-3.29612 0.66,-0.86702 1.2,-1.78211 1.2,-2.03353 0,-0.25142 0.932,-1.83496 2.071,-3.51899 1.816,-2.68265 4.222,-6.75068 9.918,-16.76902 0.827,-1.45488 1.626,-3.02399 1.774,-3.4869 0.148,-0.46292 0.441,-0.84167 0.651,-0.84167 0.209,0 0.852,-0.97393 1.427,-2.16429 0.575,-1.19035 1.199,-2.16428 1.386,-2.16428 0.188,0 0.631,-0.81161 0.985,-1.80357 0.354,-0.99197 0.801,-1.91179 0.992,-2.04405 0.191,-0.13226 0.811,-1.10619 1.378,-2.16429 0.566,-1.05809 1.277,-2.27314 1.581,-2.7001 1.071,-1.50818 0.199,-2.14166 -3.115,-2.26426 -3.103,-0.11479 -3.162,-0.0932 -4.913,1.80305 -0.975,1.05558 -2.458,2.9562 -3.296,4.2236 -0.838,1.26741 -2.594,3.67394 -3.901,5.34785 -1.308,1.67391 -3.35,4.29166 -4.538,5.81722 -1.188,1.52556 -2.484,3.0944 -2.88,3.48631 -0.895,0.88544 -4.635,5.70527 -11.692,15.06729 -5.212,6.91462 -6.617,8.26311 -7.154,6.86279 -0.254,-0.66545 3.67,-6.16308 7.925,-11.10199 0.726,-0.84273 1.903,-2.39795 2.616,-3.45604 0.712,-1.0581 2.29,-3.11417 3.505,-4.56905 1.216,-1.45488 4.423,-5.45881 7.127,-8.89762 2.704,-3.43881 5.997,-7.55095 7.317,-9.13809 1.321,-1.58715 2.699,-3.4809 3.062,-4.20834 l 0.661,-1.32262 h -3.01 -3.01 l -5.714,4.86716 c -3.142,2.67694 -7.55,6.60773 -9.794,8.73511 -7.921,7.50937 -9.872,9.29858 -12.961,11.88871 -1.716,1.4391 -4.632,4.05001 -6.48,5.80202 -1.848,1.75201 -5.166,4.89656 -7.373,6.9879 -3.865,3.66312 -6.15,5.47593 -6.908,5.4826 -0.198,0.002 -0.36,-0.5379 -0.36,-1.19921 0,-0.66131 0.214,-1.20238 0.476,-1.20238 0.262,0 4.212,-3.51697 8.778,-7.81548 4.567,-4.29851 9.693,-9.00583 11.392,-10.46071 4.979,-4.26236 9.144,-8.0855 17.29,-15.87143 1.766,-1.68766 7.227,-6.61364 9.331,-8.41667 1.028,-0.88093 1.123,-1.34653 1.138,-5.53095 0,-2.51298 0.135,-6.84155 0.281,-9.61905 0.145,-2.7775 0.357,-11.11 0.471,-18.51666 0.113,-7.40667 0.336,-20.71703 0.495,-29.57858 0.159,-8.86154 0.387,-26.82511 0.506,-39.91904 0.242,-26.64378 0.716,-51.6095 0.986,-51.88204 0.1,-0.0988 0.51,-0.0518 0.917,0.10455 0.627,0.24109 0.706,1.18041 0.52,6.19156 -0.12,3.24905 -0.343,16.51236 -0.494,29.47402 -0.152,12.96167 -0.367,29.0856 -0.478,35.83095 -0.112,6.74536 -0.346,21.57072 -0.52,32.94524 -0.174,11.37453 -0.454,27.033 -0.621,34.7966 -0.168,7.76361 -0.191,14.29858 -0.05,14.52217 0.139,0.22358 3.323,0.47261 7.076,0.5534 5.128,0.11037 6.881,-0.003 7.054,-0.45431 0.31,-0.81372 1.562,-0.76145 2.035,0.085 0.308,0.54929 2.712,0.75565 12.052,1.03423 l 11.668,0.34802 -0.317,-1.26473 c -0.544,-2.17489 -4.563,-11.26262 -7.373,-16.67516 -3.937,-7.58364 -6.826,-14.0789 -6.436,-14.46965 0.659,-0.66088 1.843,-0.10303 2.438,1.14873 0.276,0.58115 1.505,3.22092 2.731,5.86616 1.226,2.64524 2.662,5.56702 3.191,6.49286 1.822,3.18931 5.281,10.8105 6.545,14.41901 0.697,1.98918 1.52,3.77314 1.831,3.96434 0.877,0.54077 36.8,1.24657 80.099,1.57379 17.965,0.13577 27.49,0.37738 27.818,0.70561 1.166,1.16823 -0.612,1.63829 -5.716,1.51119 l -5.077,-0.12645 0.301,1.84173 c 0.902,5.5105 0.84,5.2375 5.466,24.20601 4.264,17.48426 4.259,17.45605 3.154,17.24133 -0.475,-0.0921 -1.06,-0.8168 -1.301,-1.61037 -0.241,-0.79357 -0.556,-1.7675 -0.701,-2.16429 -0.145,-0.39678 -0.311,-1.15428 -0.368,-1.68333 -0.1,-0.88343 -1.589,-7.27384 -2.644,-11.30238 -0.841,-3.21555 -2.561,-10.766 -2.677,-11.75277 -0.201,-1.7069 -2.643,-10.95627 -3.322,-12.5864 -0.357,-0.85459 -0.523,-1.67967 -0.369,-1.83351 0.153,-0.15384 -0.351,-0.30058 -1.121,-0.3261 -0.77,-0.0255 -2.858,-0.0972 -4.64,-0.15923 -2.862,-0.0997 -3.241,-0.01 -3.241,0.76782 0,0.48436 -0.216,0.88066 -0.48,0.88066 -0.264,0 -0.48,-0.43285 -0.48,-0.9619 0,-0.89778 -0.32,-0.96191 -4.8,-0.96191 -5.502,0 -5.108,-0.48823 -4.338,5.37592 0.482,3.66913 1.217,12.83896 1.924,23.99803 0.227,3.59079 0.567,8.29811 0.755,10.46071 0.294,3.3696 0.237,3.93201 -0.397,3.93201 -0.933,0 -1.134,-1.33011 -1.785,-11.78333 -0.28,-4.49691 -0.598,-8.60905 -0.706,-9.1381 -0.109,-0.52905 -0.334,-3.45083 -0.5,-6.49286 -0.166,-3.04202 -0.395,-5.86496 -0.509,-6.2732 -0.113,-0.40823 -0.313,-2.77002 -0.443,-5.24842 -0.131,-2.47839 -0.303,-4.57141 -0.382,-4.65115 -0.08,-0.0797 -4.887,-0.16479 -10.683,-0.18902 -9.914,-0.0414 -10.528,0.007 -10.37,0.82435 0.09,0.47762 0.276,10.12072 0.408,21.42911 l 0.24,20.56072 h -1.029 c -1.014,0 -1.029,-0.11833 -0.945,-7.81548 0.05,-4.29851 0.03,-13.80583 -0.03,-21.12738 -0.06,-7.32155 0,-13.48977 0.13,-13.70715 0.133,-0.21738 -2.22,-0.41378 -5.231,-0.43645 l -5.474,-0.0412 -0.02,1.24359 c -0.01,0.68398 0,10.60413 0.02,22.04479 0.03,20.5704 0.02,20.80119 -0.936,20.80119 -0.963,0 -0.97,-0.20015 -0.858,-22.00357 l 0.114,-22.00357 h -10.8 -10.801 l -0.08,4.32857 c -0.05,2.38071 -0.348,10.28036 -0.671,17.55476 -0.323,7.27441 -0.629,14.52476 -0.68,16.11191 -0.188,5.79142 -0.223,6.0119 -0.965,6.0119 -0.872,0 -0.938,-4.12232 -0.266,-16.59286 0.243,-4.4969 0.572,-11.96369 0.733,-16.59285 0.16,-4.62917 0.403,-8.99017 0.54,-9.69112 l 0.248,-1.27446 -5.104,-0.34856 c -3.488,-0.23823 -5.27,-0.18228 -5.628,0.17673 -0.58,0.58095 -1.439,10.39463 -1.028,11.75343 0.208,0.68988 0.578,0.79642 1.901,0.54766 l 1.643,-0.30883 v 6.00654 c 0,4.80358 -0.147,6.12879 -0.734,6.61697 -0.609,0.50651 -0.956,0.41418 -2.036,-0.5423 -0.716,-0.634 -1.435,-1.3332 -1.599,-1.55377 -0.488,-0.65787 -0.91,1.0345 -0.92,3.6868 0,1.36712 -0.203,3.89245 -0.438,5.61186 -0.235,1.7194 -0.575,5.23637 -0.755,7.81547 -0.241,3.44971 -0.499,4.68929 -0.975,4.68929 -0.355,0 -0.761,-0.18583 -0.901,-0.41295 -0.256,-0.4147 0.244,-6.88153 1.362,-17.62276 0.559,-5.36498 0.539,-5.87305 -0.278,-7.21429 -2.301,-3.77826 -2.29,-4.36272 0.08,-4.7211 1.738,-0.26229 1.708,-1.4811 -0.184,-7.46893 -2.219,-7.01989 -2.381,-7.28854 -4.382,-7.28854 -1.523,0 -1.663,0.12963 -1.941,1.80357 -0.165,0.99196 -0.813,4.61714 -1.441,8.05595 -1.72,9.42136 -4.543,26.81781 -4.543,27.99609 0,0.5714 -0.219,1.6176 -0.488,2.32488 -0.381,1.00358 -0.629,1.16822 -1.133,0.74978 -0.48,-0.39966 -0.541,-1.05587 -0.239,-2.57727 0.223,-1.1226 0.955,-5.50395 1.627,-9.73633 2.387,-15.02445 4.42,-26.74626 4.821,-27.79461 0.285,-0.74361 -0.171,-0.82206 -4.777,-0.82206 -3.074,0 -5.091,0.19054 -5.091,0.48095 0,0.26452 -0.216,0.48095 -0.48,0.48095 -0.264,0 -0.48,-0.33374 -0.48,-0.74166 0,-0.61597 -0.624,-0.71785 -3.681,-0.60119 l -3.68,0.14047 -1.828,3.36667 c -3.116,5.73889 -4.716,8.6192 -5.336,9.60733 -4.296,6.84532 -4.074,6.46445 -6.659,11.4119 -0.87,1.66562 -2.076,3.6981 -2.68,4.51664 -0.604,0.81854 -1.098,1.60232 -1.098,1.74174 0,0.13941 -1.4,2.5671 -3.112,5.39486 -1.711,2.82776 -3.456,5.86885 -3.877,6.75797 -0.754,1.59235 -1.763,2.38117 -2.325,1.81817 z m 55.477,-40.28671 c 0.04,-1.19035 0.1,-2.54007 0.12,-2.99936 0.04,-0.86 -1.21,-1.35713 -2.33,-0.9262 -0.507,0.19495 -0.445,0.83024 0.31,3.16686 0.52,1.60765 1.142,2.92299 1.382,2.92299 0.241,0 0.474,-0.97393 0.518,-2.16429 z m 60.322,34.02738 c -0.05,-3.6372 -0.114,-7.37059 -0.153,-8.29642 -0.139,-3.32044 -0.355,-15.66228 -0.3,-17.19405 0.03,-0.8597 0.295,-1.5631 0.589,-1.5631 0.32,0 0.451,0.57467 0.325,1.43112 -0.115,0.78712 -0.06,1.49051 0.13,1.5631 0.187,0.0726 0.483,5.32626 0.659,11.67483 0.177,6.34857 0.426,13.22018 0.556,15.27024 0.221,3.50802 0.177,3.72738 -0.745,3.72738 -0.934,0 -0.983,-0.30426 -1.061,-6.6131 z m 27.497,3.60715 c -0.558,-3.13288 -0.956,-5.55082 -2.438,-14.78929 -0.488,-3.04202 -1.231,-7.45305 -1.651,-9.80228 -0.932,-5.20647 -0.939,-5.58819 -0.102,-5.58819 0.88,0 1.352,2.04822 3.384,14.66904 1.765,10.96513 2.559,15.58098 3,17.43453 0.202,0.84685 0.05,1.08214 -0.7,1.08214 -0.798,0 -1.047,-0.50223 -1.493,-3.00595 z m -124.078,1.79629 c -0.153,-0.40078 0.107,-1.42882 0.578,-2.28452 0.683,-1.23933 2.557,-6.45714 2.718,-7.56772 0.02,-0.13227 0.266,-0.67334 0.547,-1.20239 0.282,-0.52904 0.912,-2.15226 1.4,-3.60714 0.488,-1.45488 1.06,-2.85084 1.271,-3.10214 0.211,-0.2513 0.383,-0.91141 0.383,-1.46691 0,-0.5555 0.177,-1.2156 0.393,-1.4669 0.76,-0.88504 3.99,-10.22172 5.344,-15.44625 0.864,-3.33441 1.965,-5.62254 2.464,-5.12204 0.432,0.43272 -0.141,2.66172 -3.561,13.859 -0.647,2.11619 -2.298,6.87762 -3.669,10.58096 -1.371,3.70333 -3.369,9.16815 -4.44,12.14404 -1.832,5.08962 -2.777,6.38041 -3.428,4.68201 z m 59.948,0.26028 c -0.3,-0.48748 -0.141,-11.46239 0.473,-32.65988 0.169,-5.81349 0.538,-7.25714 1.676,-6.55247 0.383,0.23726 0.479,1.43211 0.303,3.78167 -0.142,1.88915 -0.4,10.46875 -0.573,19.06577 -0.234,11.59626 -0.473,15.79805 -0.924,16.2783 -0.452,0.48084 -0.698,0.50312 -0.955,0.0866 z m 59.276,-33.67919 c 0,-0.26453 0.229,-0.48095 0.509,-0.48095 0.279,0 0.375,0.21642 0.211,0.48095 -0.163,0.26452 -0.392,0.48095 -0.508,0.48095 -0.116,0 -0.212,-0.21643 -0.212,-0.48095 z m -0.96,-5.29048 c 0,-0.26452 0.216,-0.48095 0.48,-0.48095 0.264,0 0.48,0.21643 0.48,0.48095 0,0.26453 -0.216,0.48095 -0.48,0.48095 -0.264,0 -0.48,-0.21642 -0.48,-0.48095 z m -22.561,-1.65495 c 0,-0.67692 0.17,-1.23076 0.378,-1.23076 0.544,0 0.605,1.85262 0.07,2.1832 -0.247,0.15308 -0.449,-0.27552 -0.449,-0.95244 z m -34.771,-0.21761 c -0.35,-0.56861 0.176,-1.97506 0.74,-1.97506 0.568,0 0.553,1.7901 -0.02,2.14375 -0.246,0.15219 -0.571,0.0763 -0.722,-0.16869 z m -69.335,-162.2992 c -0.382,-0.46101 -0.459,-1.93617 -0.246,-4.71044 0.262,-3.41929 0.188,-4.14041 -0.483,-4.6985 -0.731,-0.60748 -0.717,-0.71281 0.179,-1.34095 0.534,-0.37493 1.157,-0.56665 1.384,-0.42604 0.46,0.2851 0.473,11.0948 0.01,11.55505 -0.161,0.16064 -0.542,-0.01 -0.848,-0.37912 z m 144.754,-16.50343 c -0.138,-0.12485 -30.485,-0.58997 -60.569,-0.92828 -15.313,-0.1722 -27.932,-0.39508 -28.042,-0.49529 -0.11,-0.1002 23.057,-0.18219 51.483,-0.18219 51.426,0 51.683,0.005 51.683,0.96542 0,0.92937 -0.27,0.9608 -7.235,0.84167 -3.979,-0.0681 -7.274,-0.15866 -7.32,-0.20133 z"
       id="path1" /></g></svg>
