<?xml version="1.0" encoding="UTF-8" standalone="no"?>
<!-- Created with Inkscape (http://www.inkscape.org/) -->

<svg
   width="231.38646"
   height="235.24007"
   viewBox="0 0 61.221 62.240601"
   version="1.1"
   id="svg1"
   xml:space="preserve"
   xmlns="http://www.w3.org/2000/svg"
   xmlns:svg="http://www.w3.org/2000/svg"><defs
     id="defs1" /><g
     id="g1857"
     transform="matrix(0.26458333,0,0,0.26458333,-4658.3989,-16.686388)"><path
       style="fill:#000000"
       d="m 17700.838,245.26752 c 0,-0.31726 0.565,-2.42909 1.256,-4.69297 1.093,-3.57912 1.215,-4.62488 0.942,-8.01562 -0.351,-4.37024 0.708,-12.98137 1.993,-16.19702 0.625,-1.56244 0.663,-2.21026 0.207,-3.47356 -0.747,-2.06624 -0.714,-6.90428 0.08,-11.23089 0.389,-2.12622 0.465,-3.62413 0.194,-3.79196 -0.247,-0.15259 -0.587,-0.0666 -0.755,0.19113 -0.357,0.54378 -3.552,1.22965 -5.476,1.17505 -1.045,-0.0297 -1.322,0.17974 -1.322,1.00201 0,0.80853 0.128,0.91119 0.577,0.46195 1.085,-1.08622 1.473,-0.59812 1.146,1.44417 -0.177,1.11198 -0.516,2.25452 -0.751,2.53898 -0.236,0.28446 -0.505,1.08764 -0.599,1.78484 -0.09,0.69721 -1.08,2.2573 -2.194,3.46689 -1.114,1.20959 -2.042,2.47484 -2.062,2.81167 -0.09,1.47343 -0.464,2.50753 -2.163,5.95032 -0.993,2.01206 -2.057,3.75481 -2.364,3.8728 -0.307,0.11798 -1.137,-0.006 -1.844,-0.27455 -1.545,-0.58836 -1.772,-2.40056 -0.347,-2.77368 0.833,-0.21802 3.815,-4.95915 3.12,-4.95915 -0.154,0 0.06,-0.34037 0.476,-0.75638 0.843,-0.84385 0.815,-0.69945 0.946,-5.01958 0.05,-1.72075 0.339,-3.56183 0.637,-4.0913 0.519,-0.92134 2.057,-4.86122 2.057,-5.26922 0,-0.10768 -2.706,-0.12631 -6.013,-0.0414 -3.307,0.0849 -6.132,-0.0392 -6.279,-0.2758 -0.146,-0.23661 -0.801,-0.43019 -1.456,-0.43019 -0.654,0 -1.721,-0.34837 -2.37,-0.77414 -1.103,-0.72328 -1.202,-0.71538 -1.511,0.12033 -0.181,0.49196 -0.562,1.04932 -0.846,1.23858 -0.812,0.54191 -0.435,8.48586 0.469,9.86675 0.942,1.43943 0.569,2.69325 -1.534,5.15799 -0.888,1.04039 -1.614,2.08436 -1.614,2.31992 0,0.23557 -0.603,1.33372 -1.34,2.44034 -0.738,1.10663 -2.275,3.96143 -3.417,6.34401 -2.162,4.51118 -3.574,6.14971 -9.667,11.21426 -1.718,1.42883 -3.557,3.16154 -4.086,3.85047 -1.937,2.52283 -3.109,3.46645 -4.305,3.46645 -1.56,0 -1.555,-0.58474 0.01,-1.73756 0.681,-0.50036 1.527,-1.45799 1.881,-2.12806 0.353,-0.67008 1.743,-2.3556 3.088,-3.74561 1.345,-1.39001 2.45,-2.68285 2.454,-2.87298 0,-0.19014 0.546,-0.85578 1.202,-1.47921 0.657,-0.62343 1.194,-1.3936 1.194,-1.71147 0,-0.31788 0.56,-1.32399 1.245,-2.2358 0.685,-0.91181 1.788,-2.82743 2.451,-4.25694 0.663,-1.4295 2.266,-4.05894 3.562,-5.84319 1.297,-1.78424 2.357,-3.41337 2.357,-3.62027 0,-0.20691 0.307,-0.71815 0.681,-1.13609 0.998,-1.11385 1.781,-5.81385 0.969,-5.81385 -0.343,0 -0.761,0.43342 -0.929,0.96317 -0.467,1.47405 -1.956,2.01549 -5.604,2.03835 -3.593,0.0225 -5.694,1.03751 -5.694,2.75043 0,0.47783 -0.354,1.16287 -0.786,1.52232 -0.433,0.35944 -1.277,1.4148 -1.875,2.34525 -0.599,0.93044 -2.192,2.87329 -3.54,4.31744 -1.349,1.44415 -2.453,2.91298 -2.453,3.26408 0,0.3511 -0.378,0.78351 -0.841,0.96093 -1.746,0.66942 -3.89,2.44903 -8.998,7.46882 -2.896,2.84586 -5.518,5.17429 -5.827,5.17429 -0.309,0 -0.817,-0.30707 -1.128,-0.68237 -0.742,-0.89541 2.556,-5.31476 6.497,-8.70556 2.694,-2.31707 3.524,-3.06301 7.012,-6.29806 0.881,-0.81773 2.035,-2.33392 2.563,-3.36931 0.529,-1.03539 1.203,-2.09913 1.498,-2.36386 1.363,-1.221 4.513,-6.0778 4.513,-6.95872 0,-0.54077 0.216,-0.98322 0.481,-0.98322 1.329,0 -0.124,-1.92485 -5.651,-7.48569 -1.34,-1.34901 -1.943,-2.3199 -1.751,-2.82092 0.161,-0.42018 0.1,-0.76396 -0.143,-0.76396 -0.239,0 -0.698,-0.72706 -1.019,-1.61568 -0.892,-2.46982 -2.039,-3.24181 -4.915,-3.30739 -2.304,-0.0525 -2.663,0.0903 -4.057,1.61301 -1.674,1.82805 -2.826,5.58277 -3.381,11.01133 -0.267,2.6127 -0.137,3.60489 0.784,6.01662 0.607,1.58838 1.112,3.03237 1.123,3.20886 0.01,0.17649 0.166,0.46841 0.346,0.64872 0.49,0.48982 -0.1,1.6777 -0.827,1.6777 -0.35,0 -0.775,-0.43319 -0.942,-0.96265 -0.168,-0.52947 -0.507,-0.96266 -0.754,-0.96266 -0.247,0 -0.448,-0.29133 -0.448,-0.6474 0,-0.35606 -0.433,-1.03943 -0.962,-1.51859 -1.075,-0.97412 -1.283,-3.69689 -0.493,-6.45474 0.258,-0.8993 0.507,-2.9088 0.553,-4.46554 0.05,-1.55675 0.272,-2.94633 0.501,-3.08795 0.229,-0.14163 0.297,-0.45032 0.152,-0.68599 -0.146,-0.23567 -0.05,-0.81635 0.206,-1.2904 0.259,-0.47405 0.601,-1.67415 0.759,-2.66689 0.25,-1.56432 0.462,-1.80703 1.589,-1.82029 0.715,-0.008 1.72,-0.33332 2.234,-0.722 0.513,-0.38868 1.852,-0.70668 2.976,-0.70668 2.222,0 3.077,-0.69984 2.037,-1.66694 -0.813,-0.75645 -7.029,-2.31431 -7.665,-1.921 -0.255,0.15771 -0.977,1.30027 -1.604,2.53901 -0.628,1.23874 -1.62,2.68545 -2.206,3.21491 -2.316,2.09236 -3.008,3.63412 -3.406,7.58392 -0.243,2.41175 -0.212,4.21843 0.08,4.76791 0.384,0.71815 0.296,0.88473 -0.465,0.88473 -0.816,0 -0.981,-0.46817 -1.277,-3.62675 -0.324,-3.47082 -0.272,-3.75535 1.223,-6.61827 2.426,-4.64803 4.368,-7.64256 6.234,-9.6094 l 1.711,-1.80457 2.63,0.96224 c 3.137,1.14827 2.883,1.12671 2.883,0.24433 0,-0.39486 -0.433,-0.98846 -0.961,-1.31911 -0.529,-0.33065 -0.962,-0.80278 -0.962,-1.04917 0,-0.24639 -0.315,-0.79627 -0.7,-1.22197 -0.555,-0.61435 -0.613,-1.36673 -0.281,-3.64787 0.902,-6.20344 5.192,-12.33141 9.006,-12.86556 2.756,-0.38597 6.041,-0.0478 6.612,0.68077 0.279,0.35584 1.312,0.92916 2.294,1.27404 1.741,0.6109 1.825,0.58609 3.232,-0.96266 0.794,-0.87434 1.45,-1.74464 1.458,-1.934 0.02,-0.59938 2.615,-4.41345 3.974,-5.85157 0.891,-0.94185 1.617,-1.30146 2.279,-1.12817 0.534,0.1399 1.093,0.0581 1.241,-0.18177 0.148,-0.23988 0.755,-0.43614 1.348,-0.43614 0.603,0 1.8,-0.74457 2.71,-1.68466 0.897,-0.92655 1.988,-1.68465 2.424,-1.68465 0.436,0 1.191,-0.44083 1.678,-0.97963 0.487,-0.5388 1.152,-0.8776 1.476,-0.7529 0.325,0.12471 1.42,-0.20874 2.434,-0.74099 2.351,-1.23335 6.254,-2.29107 7.373,-1.99798 0.475,0.12436 1.375,-0.10957 2.001,-0.51984 0.791,-0.51915 1.866,-0.67808 3.535,-0.5227 1.318,0.12279 3.317,0.21241 4.44,0.19916 1.124,-0.0133 2.044,0.20248 2.044,0.47941 0,0.27693 0.405,0.50351 0.9,0.50351 0.495,0 1.888,0.43709 3.094,0.97131 2.097,0.92886 2.284,0.93623 4.268,0.16859 1.141,-0.4415 2.615,-1.28485 3.276,-1.87412 0.661,-0.58927 2.717,-1.76137 4.568,-2.60468 1.851,-0.84331 4.447,-2.07837 5.769,-2.74458 8.62,-4.34352 11.447,-5.84194 14.535,-7.70382 1.913,-1.15311 3.584,-2.09657 3.713,-2.09657 0.13,0 1.377,-0.53217 2.773,-1.1826 1.395,-0.65043 3.402,-1.49267 4.46,-1.87164 1.058,-0.37897 4.411,-1.77455 7.452,-3.10128 5.303,-2.31386 7.172,-3.09025 7.692,-3.19621 0.133,-0.0269 0.496,-0.21172 0.809,-0.41068 0.638,-0.40589 9.652,-3.23349 10.308,-3.23349 0.232,0 0.437,0.37905 0.455,0.84233 0.03,0.67178 0.138,0.62358 0.553,-0.23803 0.534,-1.10896 1.757,-1.58445 6.769,-2.63106 2.181,-0.45544 2.991,-0.45538 3.72,3e-4 1.204,0.75301 1.425,0.734 1.425,-0.12259 0,-0.38778 0.419,-0.92927 0.93,-1.20332 1.334,-0.71489 1.579,-0.62361 1.235,0.46137 -0.237,0.74791 -0.132,0.8935 0.476,0.65988 0.429,-0.16486 0.663,-0.60363 0.521,-0.97504 -0.431,-1.12361 2.005,-1.71475 7.86,-1.90788 4.34,-0.14315 5.727,-0.0272 6.61,0.55221 0.615,0.40337 1.118,1.01658 1.118,1.36269 0,0.76947 -3.201,3.10666 -6.622,4.83426 -1.394,0.70431 -4.098,2.32317 -6.009,3.59748 -1.911,1.27431 -5.09,3.37991 -7.065,4.67912 -1.974,1.2992 -3.813,2.52463 -4.086,2.72318 -0.77,0.55991 0.765,1.32692 2.023,1.01078 0.638,-0.16031 1.086,-0.0528 1.086,0.26069 0,0.29343 0.162,0.4941 0.361,0.44594 0.198,-0.0482 1.226,0.16722 2.283,0.47864 1.058,0.31142 2.835,0.56743 3.949,0.56891 1.114,0.001 3.169,0.41569 4.567,0.92047 3.012,1.08728 4.551,1.35886 9.994,1.76304 6.658,0.49436 9.021,2.36709 9.518,7.54045 0.252,2.62503 -0.281,3.53259 -2.339,3.98525 -0.775,0.17041 -1.409,0.4712 -1.409,0.66841 0,0.19721 -1.245,0.92977 -2.765,1.62792 -10.033,4.60685 -13.123,5.75536 -17.751,6.59748 -1.805,0.32863 -3.607,0.71373 -4.004,0.85579 -0.397,0.14206 -1.072,0.21615 -1.5,0.16465 -0.429,-0.0515 -1.784,0.44127 -3.012,1.09507 -1.228,0.65379 -2.109,0.98754 -1.957,0.74166 0.151,-0.24587 0.05,-0.44705 -0.234,-0.44705 -0.28,0 -0.509,0.2166 -0.509,0.48133 0,0.26473 -0.229,0.48133 -0.509,0.48133 -0.28,0 -0.358,-0.2447 -0.173,-0.54377 0.205,-0.33304 0.08,-0.44962 -0.332,-0.30083 -0.368,0.13361 -0.632,0.43246 -0.588,0.6641 0.04,0.23164 -0.551,0.42117 -1.322,0.42117 -0.772,0 -1.403,-0.16245 -1.403,-0.361 0,-0.19855 -0.209,-0.361 -0.465,-0.361 -1.066,0 0.164,1.26725 2.046,2.10691 9.098,4.0594 13.069,6.70853 18.732,12.49383 5.203,5.31633 7.906,8.88499 10.271,13.55703 0.67,1.32366 1.513,2.94814 1.873,3.60997 1.028,1.8903 2.159,8.09415 2.15,11.79257 0,1.85312 -0.328,4.88542 -0.72,6.73844 -1.416,6.68944 -0.601,11.21684 2.733,15.19303 1.013,1.20833 1.842,2.43059 1.842,2.71615 0,1.14425 -1.475,0.96235 -3.682,-0.45408 -1.28,-0.82154 -4.154,-2.45691 -6.386,-3.63416 -3.8,-2.00364 -4.399,-2.16776 -9.376,-2.56763 -2.923,-0.23495 -6.397,-0.75748 -7.719,-1.16117 -7.068,-2.15804 -7.126,-2.18915 -10.457,-5.66304 -1.785,-1.86111 -3.246,-3.54213 -3.246,-3.73562 0,-0.54417 -12.209,-6.7973 -17.067,-8.74125 -3.279,-1.31218 -8.9,-2.86153 -9.558,-2.63452 -0.296,0.10214 -1.133,0.0176 -1.86,-0.18793 -1.282,-0.36213 -1.323,-0.31532 -1.323,1.51807 0,1.04045 0.198,1.89172 0.439,1.89172 0.246,0 0.211,0.606 -0.08,1.37863 -0.387,1.02569 -0.36,1.94985 0.104,3.60997 0.343,1.22724 0.795,2.23134 1.004,2.23134 0.615,0 1.897,4.43749 1.773,6.13599 -0.06,0.85985 -0.247,1.5638 -0.409,1.56432 -0.163,5.3e-4 -0.264,0.48831 -0.225,1.08395 0.04,0.59565 -0.1,2.0228 -0.299,3.17146 -1.01,5.69685 -0.897,8.08848 0.543,11.46786 0.76,1.78266 2.267,4.17996 3.35,5.32733 1.509,1.59907 1.801,2.15061 1.25,2.36231 -0.395,0.1519 -0.719,0.57791 -0.719,0.94668 0,0.36878 -0.27,0.66329 -0.601,0.65449 -0.957,-0.0255 -2.424,-1.45458 -5.242,-5.10564 -2.226,-2.88432 -2.945,-4.3694 -4.717,-9.74792 -1.15,-3.48986 -2.273,-6.45812 -2.496,-6.59614 -0.223,-0.13801 -0.405,-0.67277 -0.405,-1.18836 0,-0.51559 -0.584,-1.42335 -1.297,-2.01725 -2.059,-1.71613 -3.97,-3.76081 -9.04,-9.67246 -0.265,-0.30834 -1.887,-1.72527 -3.606,-3.14873 -1.719,-1.42345 -3.396,-2.97577 -3.728,-3.44959 -0.817,-1.16793 -0.807,-4.08502 0.03,-6.70951 0.8,-2.52401 0.377,-3.94022 -1.421,-4.76022 -0.644,-0.29392 -1.234,-0.53441 -1.312,-0.53441 -0.08,0 -0.141,0.70395 -0.142,1.56433 0,2.32709 -0.515,5.17293 -1.319,7.34027 -0.393,1.05892 -0.724,2.32509 -0.736,2.81371 -0.02,0.82859 -1.075,3.06235 -2.169,4.58744 -0.861,1.20236 -0.752,4.10289 0.28,7.38179 0.88,2.79981 0.948,3.61311 0.512,6.09392 -0.74,4.20732 -2.145,6.87399 -5.117,9.71333 -1.986,1.8976 -2.709,2.96026 -2.899,4.2596 -0.833,5.67594 -2.655,10.15451 -4.132,10.15451 -0.506,0 -0.919,-0.25957 -0.919,-0.57682 z m -33.32,-21.871 c -0.168,-0.16867 0.12,-0.90605 0.641,-1.63862 1.349,-1.89571 1.173,-2.40984 -0.255,-0.74749 -1.278,1.48791 -1.565,2.69278 -0.64,2.69278 0.308,0 0.423,-0.138 0.254,-0.30667 z m 39.57,-1.61865 c 0,-0.26473 -0.1,-0.48133 -0.212,-0.48133 -0.117,0 -0.346,0.2166 -0.509,0.48133 -0.164,0.26473 -0.07,0.48133 0.212,0.48133 0.28,0 0.509,-0.2166 0.509,-0.48133 z m 96.18,-0.66613 c 1.112,0.24216 1.128,0.2164 0.289,-0.46841 -1.002,-0.8176 -2.022,-0.60214 -2.451,0.51784 -0.223,0.5812 -0.144,0.63218 0.348,0.22359 0.35,-0.29109 1.167,-0.41395 1.814,-0.27302 z m -94.336,-4.48368 c -0.452,-0.54437 -0.632,-0.55333 -0.953,-0.0473 -0.217,0.34345 -0.399,1.03707 -0.403,1.54138 0,0.88591 0.03,0.8875 0.953,0.0473 0.749,-0.67938 0.838,-1.01663 0.403,-1.54138 z m 79.407,0.23039 c 0,-0.26301 -0.314,-0.35776 -0.697,-0.21055 -0.465,0.17889 -0.608,0.0363 -0.429,-0.42983 0.37,-0.96456 -0.313,-0.87521 -1.106,0.14484 -0.61,0.78409 -0.636,0.77577 -0.377,-0.12033 0.252,-0.87381 0.228,-0.88456 -0.265,-0.11652 -0.299,0.46538 -0.433,1.02491 -0.298,1.2434 0.335,0.54251 3.172,0.0855 3.172,-0.51101 z m 14.162,0.62071 c 0.152,-0.24644 0.06,-0.58412 -0.212,-0.7504 -0.268,-0.16628 -0.488,0.0353 -0.488,0.44807 0,0.84547 0.288,0.96996 0.7,0.30233 z m -147.489,-1.56749 c -0.154,-0.38398 -0.268,-0.26992 -0.291,0.2908 -0.02,0.5074 0.09,0.79169 0.253,0.63174 0.16,-0.15994 0.177,-0.57508 0.04,-0.92254 z m 56.403,-0.15042 c 0,-0.3971 -0.216,-0.72199 -0.481,-0.72199 -0.264,0 -0.481,0.32489 -0.481,0.72199 0,0.3971 0.217,0.722 0.481,0.722 0.265,0 0.481,-0.3249 0.481,-0.722 z m 82.548,-0.0389 c 0.107,-0.32485 -0.374,-0.44017 -1.279,-0.30709 -0.798,0.11721 -1.324,0.41784 -1.17,0.66806 0.364,0.58969 2.227,0.31509 2.449,-0.36097 z m 8.592,-2.60844 c 0.379,0 0.688,-0.2166 0.688,-0.48133 0,-0.69954 -0.922,-0.58939 -1.716,0.2049 -0.421,0.42187 -0.548,1.0245 -0.33,1.56432 0.317,0.78425 0.371,0.76236 0.513,-0.2049 0.09,-0.59564 0.467,-1.08299 0.845,-1.08299 z m -12.053,0.48133 c 0.164,-0.26473 0.07,-0.48133 -0.212,-0.48133 -0.28,0 -0.509,0.2166 -0.509,0.48133 0,0.26473 0.1,0.48133 0.212,0.48133 0.117,0 0.346,-0.2166 0.509,-0.48133 z m -9.975,-0.84233 c 0.116,-0.34916 -0.209,-0.60166 -0.774,-0.60166 -1.051,0 -1.684,0.62858 -1.16,1.15283 0.484,0.4843 1.705,0.13617 1.934,-0.55117 z m 13.335,-0.13018 c -0.28,-0.45365 -2.158,-0.0355 -2.158,0.48057 0,0.19714 0.539,0.25541 1.197,0.12949 0.658,-0.12593 1.09,-0.40046 0.961,-0.61006 z m -58.118,-5.58262 c -1.346,-2.72488 -1.766,-4.19949 -1.856,-6.51516 l -0.117,-2.99312 -1.633,-0.18568 c -3.19,-0.36271 -3.362,2.94263 -0.432,8.28879 0.285,0.51937 0.985,1.81896 1.556,2.88798 0.571,1.06902 1.443,2.55899 1.939,3.31103 l 0.901,1.36735 0.691,-1.31957 c 0.645,-1.23236 0.575,-1.55238 -1.049,-4.84162 z m 50.912,3.66715 c 0.164,-0.26473 0.07,-0.48133 -0.212,-0.48133 -0.28,0 -0.509,0.2166 -0.509,0.48133 0,0.26473 0.1,0.48133 0.212,0.48133 0.117,0 0.346,-0.2166 0.509,-0.48133 z m -8.54,-1.02881 c 0.301,-0.30112 1.462,-0.61692 2.58,-0.70178 1.118,-0.0849 2.187,-0.40473 2.376,-0.71083 0.189,-0.30609 1.181,-0.61464 2.204,-0.68568 1.024,-0.071 1.969,-0.18024 2.101,-0.24268 0.133,-0.0624 0.417,-0.0832 0.633,-0.0461 0.215,0.0371 1.006,-0.37045 1.757,-0.90566 0.75,-0.53521 1.789,-0.97311 2.307,-0.97311 0.519,0 1.489,-0.43016 2.157,-0.9559 0.667,-0.52574 2.373,-1.52949 3.791,-2.23056 2.64,-1.30595 7.823,-6.23283 8.369,-7.95637 0.31,-0.97868 -2.296,-6.72144 -3.507,-7.72775 -0.716,-0.59507 -2.045,0.30765 -2.045,1.3894 0,0.4001 -0.234,0.54675 -0.555,0.34802 -0.321,-0.19889 -0.425,-0.13337 -0.247,0.15569 0.17,0.27451 -0.142,1.07244 -0.693,1.77317 -0.55,0.70073 -0.889,1.56618 -0.752,1.92324 0.316,0.82472 -0.571,1.72915 -1.695,1.72915 -0.557,0 -0.866,0.35803 -0.866,1.00277 0,0.59899 -0.242,0.91394 -0.601,0.78216 -0.33,-0.12133 -0.54,-0.48459 -0.465,-0.80723 0.07,-0.32264 -0.142,-0.49352 -0.481,-0.37972 -0.339,0.11379 -0.617,0.59706 -0.619,1.07392 0,0.47687 -0.488,1.04689 -1.081,1.26671 -1.144,0.42356 -1.401,1.13747 -0.591,1.63887 0.809,0.50035 0.02,1.19803 -1.358,1.20505 -2.033,0.0103 -3.458,0.52674 -3.458,1.25289 0,0.36622 -0.162,0.6402 -0.36,0.60885 -0.198,-0.0314 -0.685,-0.028 -1.082,0.007 -0.641,0.0572 -0.641,0.11622 0,0.53096 0.81,0.52383 0.796,0.53188 -1.202,0.71694 -3.539,0.32781 -6.291,0.93976 -6.881,1.53032 -0.352,0.3524 -0.949,0.64072 -1.326,0.64072 -0.378,0 -0.687,0.2788 -0.687,0.61956 0,0.34077 -0.454,0.65383 -1.01,0.6957 -1.54,0.1162 -3.156,2.53537 -1.693,2.53537 0.364,0 0.931,0.3249 1.26,0.722 0.706,0.85113 2.94,0.95593 3.72,0.17451 z m 1.333,-2.34792 c 0.284,-0.46037 0.176,-0.55374 -0.391,-0.33606 -0.431,0.1658 -0.933,0.0608 -1.115,-0.23323 -0.188,-0.30472 -0.113,-0.40038 0.175,-0.22241 0.278,0.17175 0.633,-0.0226 0.79,-0.43196 0.157,-0.40933 0.09,-0.62115 -0.157,-0.47071 -0.243,0.15043 -0.559,0.0832 -0.703,-0.14935 -0.143,-0.23257 0.202,-0.39855 0.769,-0.36885 0.711,0.0373 1.054,0.39539 1.11,1.15738 0.04,0.60686 -0.133,1.23597 -0.395,1.39803 -0.289,0.17864 -0.321,0.0437 -0.08,-0.34284 z m 5.044,-2.39922 c 0,-0.26473 0.229,-0.48133 0.509,-0.48133 0.28,0 0.375,0.2166 0.212,0.48133 -0.163,0.26473 -0.393,0.48133 -0.509,0.48133 -0.117,0 -0.212,-0.2166 -0.212,-0.48133 z m 6.971,-2.88798 c 0.163,-0.26473 0.501,-0.48133 0.75,-0.48133 0.248,0 0.452,0.2166 0.452,0.48133 0,0.26473 -0.337,0.48133 -0.75,0.48133 -0.412,0 -0.615,-0.2166 -0.452,-0.48133 z m 5.781,-2.38728 c -0.434,-0.7032 -0.04,-1.12271 1.244,-1.31858 0.544,-0.0832 0.917,0.0668 0.829,0.33329 -0.09,0.26653 -0.378,0.50528 -0.642,0.53056 -0.265,0.0253 -0.616,0.265 -0.782,0.53272 -0.194,0.31442 -0.424,0.28681 -0.649,-0.078 z m 4.109,-3.72126 c -0.02,-0.58002 0.182,-1.18845 0.447,-1.35206 0.568,-0.35186 0.568,0.11913 0,1.44398 -0.399,0.92812 -0.415,0.92482 -0.447,-0.0919 z m 1.408,-1.1114 c 0,-0.26473 0.217,-0.48133 0.481,-0.48133 0.264,0 0.481,0.2166 0.481,0.48133 0,0.26473 -0.217,0.48133 -0.481,0.48133 -0.264,0 -0.481,-0.2166 -0.481,-0.48133 z m -3.846,13.95855 c 0,-0.26473 -0.216,-0.48132 -0.481,-0.48132 -0.264,0 -0.481,0.21659 -0.481,0.48132 0,0.26474 0.217,0.48133 0.481,0.48133 0.265,0 0.481,-0.21659 0.481,-0.48133 z m -134.336,-1.76693 c 0.615,-0.79283 0.654,-0.79661 0.39,-0.0381 -0.456,1.31142 0.404,0.99992 2.373,-0.85907 0.991,-0.93577 2.006,-1.5748 2.256,-1.42006 0.269,0.16636 0.339,-0.29875 0.171,-1.13813 -0.231,-1.15691 -0.1,-1.47893 0.729,-1.74101 0.556,-0.17686 1.012,-0.53634 1.012,-0.79886 0,-0.26251 -0.217,-0.34343 -0.481,-0.17982 -0.265,0.16361 -0.481,0.0416 -0.481,-0.2712 0,-0.42377 -0.184,-0.41599 -0.721,0.0305 -0.397,0.32957 -0.721,0.89758 -0.721,1.26226 0,0.65584 -0.291,0.76237 -2.164,0.79358 -2.134,0.0356 -2.697,-0.1361 -2.341,-0.71355 0.198,-0.32067 0.419,-1.24122 0.492,-2.04565 0.07,-0.80444 0.261,-2.11241 0.419,-2.90661 0.242,-1.22083 0.201,-1.30838 -0.267,-0.56651 -0.535,0.84909 -0.586,0.84909 -1.553,0 -0.973,-0.85422 -0.99,-0.85196 -0.649,0.0852 0.279,0.76694 0.229,0.84163 -0.249,0.36738 -0.477,-0.47474 -0.392,-0.81589 0.421,-1.68466 0.75,-0.80123 0.899,-1.30367 0.564,-1.8996 -0.296,-0.52871 -0.278,-0.9194 0.05,-1.12443 0.748,-0.46269 1.898,0.68071 1.563,1.55421 -0.195,0.50694 -0.07,0.678 0.389,0.52425 0.373,-0.12553 0.682,-0.75073 0.687,-1.38933 0.01,-1.78281 0.935,-1.1234 1.08,0.77344 0.08,1.04187 -0.09,1.67542 -0.44,1.67542 -0.313,0 -0.456,0.1134 -0.318,0.252 0.139,0.13859 0.607,0.11542 1.042,-0.0515 0.797,-0.30628 1.097,-1.87385 0.429,-2.24748 -0.198,-0.11104 -0.111,-0.14402 0.194,-0.0733 0.859,0.19946 1.146,-0.34097 0.505,-0.95096 -0.318,-0.30249 -1.173,-0.81356 -1.901,-1.13571 -1.157,-0.51283 -1.323,-0.48218 -1.329,0.24628 0,0.66028 -0.09,0.6951 -0.427,0.16868 -0.239,-0.37823 -0.676,-0.50459 -1.017,-0.294 -0.389,0.24098 -0.518,0.13694 -0.37,-0.29933 0.149,-0.43879 0.847,-0.63304 2.03,-0.56504 1.423,0.0817 1.696,-0.0273 1.291,-0.51545 -0.282,-0.34049 -0.465,-1.30527 -0.405,-2.14396 l 0.107,-1.52489 0.812,1.07505 c 0.688,0.91077 0.708,1.13358 0.128,1.45809 -0.553,0.31016 -0.571,0.56253 -0.1,1.32629 1.021,1.63612 2.122,1.16217 2.478,-1.06609 0.249,-1.55614 0.139,-2.18037 -0.487,-2.76764 -0.505,-0.47399 -0.67,-0.514 -0.44,-0.10672 0.254,0.4521 0,0.40725 -0.85,-0.14649 -0.749,-0.49128 -1.33,-0.61397 -1.512,-0.31915 -0.183,0.29723 -0.817,0.17922 -1.671,-0.31106 -1.362,-0.78277 -1.546,-1.27952 -0.872,-2.35844 0.192,-0.30702 0.23,-0.86796 0.09,-1.24654 -0.145,-0.37857 0.105,-0.99376 0.557,-1.36709 0.745,-0.61629 0.797,-0.55719 0.57,0.64209 -0.227,1.19637 -0.137,1.30011 0.962,1.10061 0.668,-0.12115 1.449,-0.45763 1.736,-0.74773 0.377,-0.38115 0.302,-0.44369 -0.27,-0.22546 -0.436,0.1661 -0.961,0.0293 -1.167,-0.30407 -0.215,-0.34834 -0.125,-0.68923 0.212,-0.80162 0.431,-0.14394 0.446,-0.36422 0.06,-0.83465 -0.443,-0.53386 -0.688,-1.51332 -0.92,-3.66692 -0.02,-0.16958 -0.777,-0.39526 -1.686,-0.50151 -1.319,-0.15422 -1.701,-0.007 -1.894,0.73098 -0.181,0.69243 -0.546,0.86579 -1.458,0.69137 -0.699,-0.13392 -1.096,-0.0386 -0.934,0.22435 0.155,0.25142 0.798,0.35847 1.428,0.23788 0.63,-0.12058 1.146,-0.0199 1.146,0.22375 0,0.24364 0.22,0.30694 0.488,0.14066 0.269,-0.16629 0.344,-0.53743 0.166,-0.82477 -0.199,-0.32323 -0.1,-0.38295 0.269,-0.15663 0.439,0.27132 0.336,0.63807 -0.398,1.41983 -0.916,0.97687 -1.039,2.43622 -0.304,3.62627 0.564,0.91417 -0.561,0.9092 -1.344,-0.006 -0.702,-0.82102 -0.715,-0.98821 -0.1,-1.22542 1.119,-0.42995 -0.44,-1.77347 -1.622,-1.39783 -1.2,0.38118 -1.746,-0.53043 -0.925,-1.54414 0.548,-0.67591 0.536,-0.73859 -0.08,-0.42358 -0.396,0.20336 -0.234,-0.0605 0.361,-0.58642 0.595,-0.52588 1.082,-1.04768 1.082,-1.15955 0,-0.41164 -1.864,-0.0503 -2.51,0.48671 -0.999,0.82979 -0.508,4.01755 0.666,4.32483 1.182,0.30965 2.071,2.06921 2.777,5.49677 0.309,1.50186 0.846,2.96685 1.194,3.25553 0.519,0.43143 0.489,1.05932 -0.17,3.52663 -0.475,1.77855 -0.673,3.62377 -0.486,4.52822 0.456,2.2087 0,2.69104 -1.928,2.01968 -1.557,-0.54319 -1.572,-0.5754 -0.639,-1.32942 0.526,-0.42501 1.095,-1.16596 1.263,-1.64655 0.259,-0.7351 0.136,-0.81396 -0.771,-0.49679 -0.594,0.20735 -1.674,0.3609 -2.401,0.34122 -1.078,-0.0292 -1.322,0.17331 -1.322,1.09845 0,0.62384 -0.288,1.13425 -0.64,1.13425 -0.352,0 -0.931,0.54401 -1.286,1.20892 -0.57,1.06534 -0.542,1.28535 0.232,1.8523 0.484,0.35386 0.745,0.86135 0.58,1.12776 -0.164,0.26641 0.214,0.96718 0.842,1.55727 1.087,1.02285 1.164,1.03172 1.653,0.1903 0.282,-0.48543 0.519,-0.72014 0.527,-0.5216 0.04,0.91384 0.195,1.13416 1.366,1.90287 1.076,0.70685 1.135,0.86326 0.429,1.13449 -0.45,0.17304 -0.819,0.53121 -0.819,0.79594 0,0.26473 0.336,0.35234 0.747,0.19468 0.41,-0.15765 0.624,-0.0889 0.474,0.15274 -0.732,1.18674 3.418,0.90803 4.349,-0.29203 z m -3.432,-0.20032 c -0.178,-0.2878 -0.09,-0.75329 0.188,-1.03442 0.36,-0.36064 0.487,-0.20657 0.432,0.52327 -0.09,1.1776 -0.168,1.24328 -0.62,0.51115 z m 2.899,-2.40098 c -0.174,-0.54942 -0.189,-1.12701 -0.03,-1.28355 0.156,-0.15654 0.284,-0.0861 0.285,0.15661 0,0.24267 0.657,0.48726 1.459,0.54353 0.803,0.0563 1.342,-0.0872 1.199,-0.31875 -0.143,-0.23158 0.01,-0.38116 0.344,-0.33241 0.616,0.0906 0.843,0.42885 0.843,1.25573 0,0.25643 -0.302,0.34996 -0.672,0.20785 -0.37,-0.1421 -0.816,-0.027 -0.99,0.25578 -0.541,0.87657 -2.103,0.56578 -2.436,-0.48479 z m -3.474,0.1618 c -0.595,-0.10587 -1.082,-0.38722 -1.082,-0.62523 0,-0.23801 0.29,-0.32139 0.644,-0.18528 0.355,0.1361 0.922,-0.0873 1.261,-0.49644 0.418,-0.50423 0.443,-0.7439 0.08,-0.7439 -0.297,0 -0.539,-0.44598 -0.539,-0.99106 0,-0.54875 -0.219,-0.85614 -0.489,-0.68874 -0.269,0.16628 -0.34,0.55811 -0.158,0.87073 0.182,0.31263 -0.14,0.15459 -0.716,-0.35119 -1.23,-1.08042 -1.175,-1.19359 0.681,-1.4039 2.069,-0.23446 3.174,-0.84252 2.888,-1.58925 -0.233,-0.60832 0.191,-0.83327 1.017,-0.53955 0.186,0.0662 0.365,0.48933 0.398,0.94034 0.03,0.451 -0.115,0.71098 -0.331,0.57773 -0.215,-0.13325 -0.274,0.36414 -0.13,1.10531 0.345,1.78094 -1.9,4.40882 -3.521,4.12043 z m 1.803,-3.49484 c 0,-0.26473 -0.1,-0.48133 -0.212,-0.48133 -0.117,0 -0.346,0.2166 -0.509,0.48133 -0.164,0.26474 -0.07,0.48133 0.212,0.48133 0.28,0 0.509,-0.21659 0.509,-0.48133 z m -4.808,1.04288 c 0,-0.22061 0.315,-0.4011 0.7,-0.4011 0.385,0 0.589,0.18049 0.453,0.4011 -0.137,0.22061 -0.452,0.40111 -0.7,0.40111 -0.249,0 -0.453,-0.1805 -0.453,-0.40111 z m -1.597,-1.55436 c -1.344,-1.57205 -0.967,-2.29579 0.837,-1.603 0.796,0.30582 1.046,1.88094 0.365,2.30208 -0.217,0.13443 -0.758,-0.18016 -1.202,-0.69908 z m 0.943,-2.22914 c -0.541,-0.54206 -0.33,-1.11001 0.414,-1.11001 0.396,0 0.721,0.20381 0.721,0.45292 0,0.60695 -0.751,1.04164 -1.135,0.65709 z m 7.324,-8.93161 c -0.03,-0.0662 -0.115,-0.64791 -0.179,-1.29271 -0.114,-1.13231 -0.09,-1.14054 0.606,-0.24067 0.713,0.91593 0.719,0.91541 0.378,-0.031 -0.798,-2.2196 -0.747,-2.68277 0.239,-2.15421 0.613,0.32829 0.862,0.86197 0.73,1.56672 -0.109,0.58785 -0.215,1.33957 -0.235,1.67049 -0.03,0.49277 -1.327,0.89844 -1.539,0.48133 z m -2.082,-5.14104 c -0.152,-0.24644 -0.09,-0.5618 0.132,-0.70082 0.225,-0.13901 0.408,0.0626 0.408,0.44807 0,0.8116 -0.151,0.88252 -0.54,0.25275 z m 2.143,-5.80921 c 0,-0.26473 0.204,-0.48133 0.452,-0.48133 0.249,0 0.586,0.2166 0.75,0.48133 0.163,0.26473 -0.04,0.48133 -0.452,0.48133 -0.413,0 -0.75,-0.2166 -0.75,-0.48133 z m 104.918,26.16476 c 0.286,-0.17653 0.215,-0.46439 -0.178,-0.72304 -0.422,-0.27794 -0.111,-0.3411 0.881,-0.17882 0.843,0.138 1.664,0.0394 1.823,-0.21921 0.16,-0.25857 1.093,-0.81903 2.073,-1.24547 0.98,-0.42643 2.107,-0.93387 2.504,-1.12763 0.396,-0.19376 1.689,-0.40379 2.872,-0.46673 1.183,-0.0629 2.315,-0.37355 2.517,-0.69023 0.201,-0.31669 0.368,-0.38172 0.373,-0.14452 0,0.23721 0.55,-0.15565 1.214,-0.87302 0.813,-0.87761 1.502,-1.21084 2.107,-1.0186 0.565,0.17955 1.004,0.0121 1.181,-0.45063 0.155,-0.40499 0.644,-0.73634 1.086,-0.73634 0.957,0 2.075,-1.34774 2.096,-2.52698 0,-0.46328 0.286,-0.87532 0.616,-0.91564 0.331,-0.0403 0.818,-0.12364 1.082,-0.18514 0.264,-0.0615 0.751,-0.13682 1.082,-0.16735 0.687,-0.0635 0.838,-2.9435 0.154,-2.9435 -0.245,0 -0.765,0.31886 -1.154,0.70857 -0.623,0.62388 -0.779,0.62249 -1.305,-0.0116 -0.783,-0.94535 -0.38,-1.28237 1.687,-1.40798 1.242,-0.0755 1.699,0.0927 1.699,0.62475 0,0.83744 0.716,0.29435 0.732,-0.55549 0,-0.30885 0.35,-0.50592 0.764,-0.43793 0.44,0.0722 1.127,-0.57151 1.653,-1.54821 0.574,-1.06682 1.37,-1.7754 2.201,-1.95802 1.865,-0.4103 2.078,-1.53753 0.645,-3.419 -0.68,-0.89191 -1.393,-1.62165 -1.585,-1.62165 -0.549,0 -3.217,-2.56858 -4.153,-3.99849 -1.053,-1.60915 -1.309,-1.61183 -2.046,-0.0214 -0.725,1.56375 -0.37,2.25529 0.828,1.61329 0.603,-0.32336 1.002,-0.32379 1.201,-0.001 0.164,0.26545 0.115,0.48263 -0.109,0.48263 -0.224,0 -0.442,0.46549 -0.484,1.03442 -0.04,0.56893 -0.278,1.23392 -0.521,1.47777 -0.27,0.27026 -0.392,-0.0228 -0.312,-0.75071 0.127,-1.16081 0.09,-1.17639 -1.385,-0.55936 -1.257,0.52651 -1.541,0.93761 -1.667,2.41174 -0.117,1.367 0,1.68908 0.481,1.39584 0.469,-0.28254 0.457,-0.16477 -0.05,0.4551 -0.372,0.45996 -0.967,0.72494 -1.322,0.58883 -0.354,-0.1361 -0.671,-0.0377 -0.704,0.21876 -0.03,0.25642 -0.09,0.63376 -0.12,0.83852 -0.126,0.77949 -2.224,2.69353 -2.224,2.02884 0,-0.51983 -0.128,-0.54 -0.577,-0.0908 -0.317,0.31768 -1.074,0.5776 -1.682,0.5776 -1.323,0 -1.399,0.37527 -0.265,1.30629 0.463,0.37973 0.586,0.56252 0.274,0.40621 -0.75,-0.37537 -1.361,0.6639 -1.186,2.0178 0.174,1.34861 -0.679,1.41476 -1.379,0.10685 -0.287,-0.53687 -0.746,-0.83732 -1.02,-0.66766 -0.341,0.21081 -0.333,0.47412 0.02,0.83174 0.713,0.71368 0.659,1.36647 -0.1,1.19416 -0.343,-0.0778 -1.218,0.45421 -1.945,1.18222 -0.728,0.72802 -1.643,1.32366 -2.034,1.32366 -0.391,0 -0.921,0.55136 -1.177,1.22525 -0.256,0.67388 -0.737,1.18213 -1.07,1.12943 -0.332,-0.0527 -1.47,0.30063 -2.527,0.78517 -1.058,0.48454 -2.226,0.93659 -2.596,1.00455 -0.371,0.068 -0.804,0.33468 -0.963,0.59272 -0.159,0.25803 -1.118,0.62468 -2.13,0.81477 -1.012,0.19009 -1.954,0.64316 -2.094,1.00683 -0.149,0.39098 -0.959,0.66122 -1.98,0.66122 -2.08,0 -1.629,0.6474 1.114,1.59821 1.817,0.62981 6.07,0.64108 7.075,0.0188 z m 16.478,-11.24355 c 0.163,-0.26473 0.392,-0.48133 0.509,-0.48133 0.116,0 0.212,0.2166 0.212,0.48133 0,0.26473 -0.229,0.48133 -0.509,0.48133 -0.28,0 -0.376,-0.2166 -0.212,-0.48133 z m -1.683,-3.3693 c 0,-0.26473 0.229,-0.48133 0.509,-0.48133 0.28,0 0.376,0.2166 0.212,0.48133 -0.163,0.26473 -0.392,0.48133 -0.509,0.48133 -0.117,0 -0.212,-0.2166 -0.212,-0.48133 z m 8.654,-1.99207 c 0,-0.22802 0.541,-0.41458 1.202,-0.41458 0.661,0 1.202,0.083 1.202,0.18455 0,0.10151 -0.541,0.28807 -1.202,0.41459 -0.661,0.12651 -1.202,0.0435 -1.202,-0.18456 z m 0.961,-3.23954 c 0,-0.66059 1.326,-1.60429 1.609,-1.14539 0.139,0.2246 -0.166,0.67015 -0.678,0.99011 -0.512,0.31996 -0.931,0.38984 -0.931,0.15528 z m 4.327,-2.06856 c 0,-0.2206 0.325,-0.4011 0.722,-0.4011 0.396,0 0.721,0.1805 0.721,0.4011 0,0.22061 -0.325,0.40111 -0.721,0.40111 -0.397,0 -0.722,-0.1805 -0.722,-0.40111 z m 1.443,21.92922 c 0,-0.10404 -0.325,-0.18917 -0.721,-0.18917 -0.397,0 -0.722,0.2098 -0.722,0.46622 0,0.25643 0.325,0.34155 0.722,0.18917 0.396,-0.15238 0.721,-0.36218 0.721,-0.46622 z m -59.376,-1.15183 c 0.163,-0.26473 0.07,-0.48133 -0.212,-0.48133 -0.28,0 -0.509,0.2166 -0.509,0.48133 0,0.26473 0.09,0.48133 0.212,0.48133 0.117,0 0.346,-0.2166 0.509,-0.48133 z m 18.029,-1.62572 c 0,-1.13403 1.601,-2.14343 3.7,-2.33334 0.39,-0.0353 0.435,-0.31516 0.137,-0.87117 -0.241,-0.45053 -0.306,-0.95069 -0.146,-1.11147 0.161,-0.16077 0.04,-0.59371 -0.263,-0.96208 -0.838,-1.01153 0.654,-2.00081 3.018,-2.00081 1.73,0 1.951,-0.12353 1.827,-1.02374 -0.158,-1.1528 0.647,-1.61524 2.464,-1.41553 0.719,0.079 1.341,-0.14689 1.492,-0.54265 0.163,-0.42392 0.05,-0.55061 -0.289,-0.33802 -0.339,0.20946 -0.418,0.12664 -0.207,-0.21566 0.189,-0.30564 0.859,-0.5557 1.489,-0.5557 0.872,0 1.104,0.22149 0.968,0.92458 -0.267,1.38845 0.823,1.51226 2.278,0.25886 0.711,-0.612 1.089,-1.18279 0.841,-1.26842 -0.269,-0.093 -0.278,-0.43396 -0.02,-0.84673 0.318,-0.51317 0.593,-0.55495 1.066,-0.16232 0.412,0.3418 1.367,0.39502 2.7,0.15053 2.865,-0.52532 3.085,-0.98182 0.473,-0.98182 -1.505,0 -2.279,-0.22629 -2.469,-0.722 -0.152,-0.39709 -0.5,-0.72199 -0.772,-0.72199 -0.273,0 -0.496,0.3249 -0.496,0.72199 0,0.3971 -0.217,0.722 -0.481,0.722 -0.264,0 -0.481,0.31728 -0.481,0.70506 0,0.38778 -0.449,0.94567 -0.998,1.23976 -0.902,0.48354 -0.949,0.44371 -0.489,-0.41628 0.392,-0.73461 0.346,-1.01325 -0.204,-1.22466 -0.433,-0.16618 -0.713,0.008 -0.713,0.44239 0,0.524 -0.323,0.63482 -1.205,0.41316 -0.722,-0.18131 -1.638,-0.0218 -2.284,0.3974 -1.123,0.72926 -2.28,0.63371 -2.28,-0.18825 0,-0.26208 0.379,-0.4025 0.841,-0.31205 1.043,0.20377 2.468,-0.92823 3.055,-2.42676 0.243,-0.62127 0.873,-1.24217 1.398,-1.3798 1.095,-0.28647 1.196,-0.66828 0.391,-1.47422 -0.434,-0.43397 -0.734,-0.42835 -1.286,0.0241 -0.488,0.39952 -0.434,0.14947 0.166,-0.77391 0.842,-1.29429 1.549,-1.45132 3.368,-0.74732 0.264,0.10236 0.481,-0.029 0.481,-0.29194 0,-0.26294 -0.313,-0.40613 -0.696,-0.31821 -0.551,0.12677 -0.577,0.0173 -0.124,-0.52888 0.314,-0.37881 0.411,-0.84931 0.215,-1.04556 -0.197,-0.19625 -0.03,-0.28462 0.364,-0.19638 0.4,0.0888 0.662,-0.1241 0.589,-0.477 -0.07,-0.35059 0.08,-0.5061 0.34,-0.34558 0.259,0.16052 0.336,0.66397 0.171,1.11877 -0.265,0.72618 -0.174,0.71521 0.742,-0.09 1.245,-1.09464 1.336,-1.73039 0.247,-1.73039 -0.712,0 -0.703,-0.10188 0.08,-0.97403 0.563,-0.62275 0.996,-0.78765 1.2,-0.45722 0.175,0.28425 0.771,0.55093 1.324,0.59262 0.553,0.0417 0.899,0.24744 0.769,0.45722 -0.129,0.20978 -0.03,0.38141 0.223,0.38141 0.251,0 0.578,0.31387 0.725,0.69748 0.178,0.46618 0.04,0.60872 -0.43,0.42983 -0.383,-0.1472 -0.696,-0.46107 -0.696,-0.69748 0,-0.84048 -1.702,-0.41329 -2.324,0.5832 -0.384,0.616 -0.419,0.8812 -0.09,0.67668 0.735,-0.45499 2.893,0.12495 2.893,0.77761 0,0.28801 -0.325,0.39898 -0.722,0.2466 -0.396,-0.15238 -0.721,-0.0407 -0.721,0.2481 0,0.33796 -0.267,0.30353 -0.748,-0.0966 -0.412,-0.34196 -0.711,-0.42263 -0.664,-0.17927 0.196,1.03373 -0.08,1.24062 -0.832,0.62174 -0.727,-0.59835 -0.774,-0.51751 -0.502,0.85803 0.308,1.56034 -0.109,1.8109 -1.535,0.92045 -0.433,-0.27064 -0.566,-0.24436 -0.369,0.0733 0.413,0.66953 -1.825,3.0229 -2.875,3.0229 -0.636,0 -0.705,0.13516 -0.284,0.5572 0.422,0.42204 0.759,0.39285 1.391,-0.12034 0.54,-0.43942 0.707,-0.46609 0.472,-0.0759 -0.527,0.87961 1.361,0.77139 2.1,-0.12033 0.48,-0.5789 0.469,-0.87885 -0.06,-1.51342 -0.588,-0.70979 -0.532,-0.75 0.543,-0.38977 1.889,0.6334 3.619,0.54452 3.47,-0.17824 -0.08,-0.38596 0.09,-0.49723 0.442,-0.28204 0.395,0.24452 0.475,0.0977 0.258,-0.47055 -0.188,-0.49061 -0.124,-0.70656 0.158,-0.53188 0.262,0.16174 0.476,0.0647 0.476,-0.21567 0,-0.28035 0.231,-0.50973 0.515,-0.50973 0.283,0 0.839,-0.3249 1.236,-0.722 0.397,-0.3971 1.234,-0.72199 1.86,-0.72199 1.257,0 1.975,-0.72176 1.196,-1.20333 -0.808,-0.50015 0,-1.26773 1.002,-0.9498 0.515,0.16361 0.921,0.0661 0.921,-0.22108 0,-0.28257 0.39,-0.51377 0.866,-0.51377 0.476,0 1.132,-0.2672 1.458,-0.59378 0.854,-0.85436 -2.202,-1.88859 -3.393,-1.14868 -0.594,0.36867 -0.982,0.36291 -1.364,-0.0202 -0.384,-0.38372 -0.387,-0.62685 -0.01,-0.85868 0.287,-0.17787 0.522,-0.094 0.522,0.18634 0,0.28035 0.24,0.50973 0.533,0.50973 0.292,0 0.405,-0.32991 0.251,-0.73313 -0.217,-0.56557 -0.09,-0.63589 0.549,-0.30766 0.528,0.27014 1.357,0.19427 2.273,-0.20782 1.44,-0.63205 1.44,-0.63333 0.2,-0.65499 -1.844,-0.0323 -2.01,-0.51498 -0.619,-1.80542 0.686,-0.63667 1.169,-1.22455 1.074,-1.3064 -0.39,-0.33368 -2.611,-1.44245 -3.059,-1.52668 -0.264,-0.0498 -1.454,-0.64165 -2.644,-1.31534 -4.381,-2.48028 -5.362,-2.81068 -6.205,-2.08973 -0.868,0.74239 -2.509,1.4742 -3.05,1.35966 -0.516,-0.10935 -0.446,0.77636 0.09,1.10635 0.246,0.15231 0.583,0.0568 0.75,-0.21226 0.166,-0.26905 0.703,-0.48918 1.195,-0.48918 0.491,0 0.992,-0.27074 1.113,-0.60166 0.149,-0.40517 0.389,-0.44447 0.736,-0.12033 0.821,0.76542 -1.805,5.25592 -3.188,5.45211 -0.956,0.13566 -1.022,0.26525 -0.481,0.93473 0.528,0.65182 0.519,0.71074 -0.05,0.36521 -0.52,-0.31374 -0.605,-0.20968 -0.358,0.43618 0.212,0.55316 -0.09,1.34691 -0.88,2.28188 -0.662,0.78851 -1.205,1.75217 -1.205,2.14146 0,0.38928 -0.973,1.69647 -2.163,2.90486 -1.19,1.20838 -2.164,2.40889 -2.164,2.6678 0,0.25891 -0.516,1.04694 -1.146,1.75118 -0.631,0.70423 -2.362,2.63228 -3.846,4.28455 -1.485,1.65227 -2.701,3.16846 -2.702,3.36931 0,0.20085 -0.705,1.06505 -1.563,1.92045 -3.029,3.01952 -3,3.00375 -4.256,2.36507 -1.354,-0.68843 -2.65,-0.51816 -3,0.39403 -0.156,0.40776 0.321,0.86063 1.281,1.2164 0.842,0.31174 2.179,0.85962 2.973,1.21753 1.869,0.84343 2.163,0.85012 2.163,0.0492 z m 7.519,-10.16685 c 0.152,-0.3971 0.496,-0.72199 0.765,-0.72199 0.281,0 0.234,0.30584 -0.111,0.72199 -0.329,0.3971 -0.673,0.72199 -0.765,0.72199 -0.09,0 -0.04,-0.32489 0.111,-0.72199 z m 17.266,-11.27013 c -0.154,-0.25076 -0.08,-0.58272 0.174,-0.7377 0.251,-0.15497 0.582,-0.0766 0.737,0.17415 0.155,0.25076 0.08,0.58272 -0.174,0.7377 -0.25,0.15497 -0.582,0.0766 -0.737,-0.17415 z m -3.506,-3.79384 c 0.04,-0.48706 0.402,-0.86082 0.812,-0.83057 0.739,0.0545 1.32,0.9665 0.626,0.9807 -0.199,0.004 -0.618,0.17118 -0.933,0.3714 -0.372,0.23677 -0.548,0.0545 -0.505,-0.52153 z m 3.721,-1.08897 c 0,-0.28036 0.217,-0.37587 0.481,-0.21226 0.265,0.16361 0.481,0.39299 0.481,0.50974 0,0.11674 -0.216,0.21225 -0.481,0.21225 -0.264,0 -0.481,-0.22938 -0.481,-0.50973 z m 1.65,-0.50597 c -0.429,-0.69508 -0.115,-0.84275 0.96,-0.45203 0.814,0.29602 0.83,0.37348 0.135,0.64055 -0.435,0.1671 -0.927,0.0823 -1.095,-0.18852 z m -4.725,-1.31072 c -0.136,-0.22061 0.06,-0.40111 0.431,-0.40111 0.374,0 0.568,0.1805 0.431,0.40111 -0.136,0.22061 -0.33,0.40111 -0.431,0.40111 -0.101,0 -0.295,-0.1805 -0.431,-0.40111 z m 29.037,28.07755 c 0,-0.3971 -0.324,-0.722 -0.721,-0.722 -0.397,0 -0.721,0.3249 -0.721,0.722 0,0.39709 0.324,0.72199 0.721,0.72199 0.397,0 0.721,-0.3249 0.721,-0.72199 z m -142.092,-0.79481 c -0.264,-0.83364 -0.172,-0.97544 0.473,-0.72751 0.552,0.21174 0.697,0.12169 0.466,-0.28818 -0.262,-0.46602 -0.199,-0.46973 0.289,-0.017 0.437,0.40514 0.895,0.43461 1.523,0.0981 0.494,-0.26458 1.099,-0.35668 1.345,-0.20466 0.245,0.15203 0.717,-0.21701 1.048,-0.82007 0.86,-1.56531 0.9,-2.27374 0.112,-1.97103 -0.375,0.14416 -0.625,0.58862 -0.554,0.9877 0.08,0.47555 -0.327,0.7771 -1.193,0.87506 -1.445,0.16336 -1.454,0.15557 -1.032,-0.94607 0.16,-0.41722 0.499,-0.63032 0.752,-0.47354 0.253,0.15678 0.88,-0.0946 1.392,-0.55869 0.994,-0.90047 1.251,-2.8464 0.443,-3.34671 -0.269,-0.16629 -0.344,-0.53743 -0.167,-0.82477 0.193,-0.31182 0.1,-0.38399 -0.232,-0.179 -0.305,0.18889 -0.555,0.76385 -0.555,1.27769 0,0.51384 -0.21,0.93425 -0.466,0.93425 -0.256,0 -0.354,0.2902 -0.218,0.64488 0.136,0.35468 -0.09,0.9227 -0.496,1.26226 -0.594,0.49338 -0.888,0.49703 -1.464,0.0182 -0.397,-0.32956 -0.738,-0.51853 -0.758,-0.41993 -0.325,1.58435 -0.286,1.77276 0.324,1.53843 0.406,-0.1558 0.674,0.0491 0.674,0.51466 0,0.42542 -0.34,0.77349 -0.756,0.77349 -0.415,0 -1.076,0.32131 -1.468,0.71403 -0.59,0.58998 -0.604,0.83766 -0.09,1.42568 0.863,0.97856 0.987,0.91953 0.604,-0.28721 z m 138.989,-0.92446 c 0.173,-0.28092 0.186,-0.63942 0.03,-0.79667 -0.335,-0.33532 -2.214,1.265 -2.214,1.88548 0,0.50528 1.734,-0.35901 2.185,-1.08881 z m -94.722,-0.35376 c -0.148,-0.14819 -0.536,-3e-4 -0.862,0.32865 -0.471,0.47537 -0.416,0.53065 0.269,0.26944 0.474,-0.18075 0.741,-0.44989 0.593,-0.59809 z m 36.39,-0.78435 c 1.51,0.21096 1.867,0.15318 1.338,-0.21637 -0.396,-0.2773 -0.75,-0.78214 -0.785,-1.12187 -0.04,-0.33972 -0.09,-0.88842 -0.121,-1.21934 -0.03,-0.36038 -0.754,-0.60166 -1.797,-0.60166 -1.394,0 -1.636,-0.12759 -1.211,-0.63997 0.323,-0.38982 1.145,-0.55608 2.102,-0.42534 1.288,0.17579 1.463,0.1 0.971,-0.41896 -0.797,-0.84075 -0.759,-1.24326 0.12,-1.24326 0.397,0 0.721,0.21407 0.721,0.4757 0,0.26164 0.379,0.15017 0.842,-0.24772 0.463,-0.39789 1.274,-0.88987 1.803,-1.0933 0.61,-0.23473 0.742,-0.45197 0.36,-0.5946 -0.33,-0.1236 -0.601,-0.55476 -0.601,-0.95812 0,-0.44703 0.276,-0.62751 0.706,-0.46224 0.388,0.14913 0.816,0.0932 0.95,-0.12426 0.134,-0.21747 0.789,-0.33549 1.456,-0.26225 0.666,0.0732 1.354,-0.0977 1.528,-0.37994 0.2,-0.3243 0.08,-0.36981 -0.313,-0.12369 -0.425,0.26328 -0.513,0.20185 -0.272,-0.18966 0.279,-0.45066 0.514,-0.4496 1.061,0.005 0.574,0.47719 0.752,0.39437 0.973,-0.45334 0.213,-0.8143 0.518,-0.97525 1.418,-0.74897 0.926,0.2327 1.147,0.10043 1.147,-0.6865 0,-0.5361 0.271,-1.08398 0.601,-1.2175 0.349,-0.14085 0.236,-0.25873 -0.269,-0.28078 -0.51,-0.0223 -0.733,-0.25906 -0.539,-0.57314 0.182,-0.29433 0.04,-0.71575 -0.318,-0.93649 -0.703,-0.43472 -0.428,-0.94322 0.601,-1.11461 1.408,-0.23433 2.832,-1.35738 2.704,-2.13186 -0.109,-0.65581 0.277,-0.831 1.954,-0.88716 1.149,-0.0385 2.339,-0.34101 2.644,-0.67227 0.425,-0.46137 0.409,-0.51977 -0.07,-0.24959 -0.342,0.19399 -0.936,0.0919 -1.32,-0.22686 -0.383,-0.31877 -1.131,-0.46599 -1.661,-0.32716 -1.085,0.28411 -1.25,-0.14205 -0.387,-1.00519 0.448,-0.44924 0.448,-0.5776 0,-0.5776 -0.318,0 -0.577,-0.32489 -0.577,-0.72199 0,-0.3971 0.308,-0.722 0.686,-0.722 0.377,0 0.787,-0.37904 0.91,-0.84232 0.191,-0.71497 0.277,-0.6794 0.571,0.23525 0.19,0.59267 0.541,0.95675 0.78,0.80907 0.238,-0.14768 0.332,-0.43405 0.207,-0.63636 -0.125,-0.20232 0.08,-0.36785 0.451,-0.36785 0.374,0 0.59,0.14539 0.48,0.32309 -0.11,0.1777 0.549,0.0886 1.463,-0.198 1.892,-0.59291 2.18,-1.10234 0.59,-1.04575 -0.591,0.021 -1.077,-0.21448 -1.082,-0.52333 0,-0.30885 -0.17,-0.724 -0.369,-0.92255 -0.79,-0.79145 -0.268,-1.01711 1.573,-0.67998 1.921,0.35159 3.073,-0.11936 1.639,-0.67006 -0.412,-0.15823 -0.614,-0.50583 -0.449,-0.77243 0.359,-0.58264 0.07,-0.58815 -2.282,-0.0426 -1.573,0.3656 -1.803,0.30805 -1.803,-0.45043 0,-0.63929 0.315,-0.835 1.189,-0.73897 0.671,0.0738 1.528,-0.24476 1.968,-0.73191 0.429,-0.4744 1.056,-0.7564 1.394,-0.62666 0.337,0.12974 0.931,-0.0818 1.319,-0.47 0.388,-0.38825 1.659,-0.91016 2.826,-1.15982 2.071,-0.44317 2.092,-0.46603 0.874,-0.96613 -0.686,-0.28171 -1.606,-0.87072 -2.043,-1.3089 -0.438,-0.43817 -0.796,-0.56461 -0.796,-0.28097 0,0.28364 -0.21,0.51571 -0.466,0.51571 -0.256,0 -0.327,-0.36043 -0.158,-0.80095 0.227,-0.59415 0.136,-0.69514 -0.356,-0.39114 -0.364,0.2254 -1.104,0.46537 -1.644,0.53327 -0.54,0.0679 -2.06,0.3337 -3.378,0.59067 -1.318,0.25698 -2.543,0.37609 -2.723,0.26469 -0.18,-0.1114 -0.4,-0.0138 -0.489,0.21687 -0.09,0.23068 -1.461,0.54367 -3.05,0.69555 -3.174,0.30334 -4.563,0.7058 -4.563,1.32155 0,0.2212 -0.4,0.3251 -0.889,0.23088 -1.138,-0.2194 -6.538,1.24197 -8.727,2.36154 -2.942,1.50489 -4.74,3.58271 -5.083,5.87335 -0.463,3.09305 -1.473,5.70958 -2.204,5.70958 -0.666,0 -0.716,-2.61767 -0.08,-4.0913 0.54,-1.24844 0.511,-5.76143 -0.04,-6.20333 -0.73,-0.58471 -3.737,-0.0665 -3.513,0.60541 0.1,0.29918 0.271,0.45321 0.381,0.3423 0.5,-0.50297 2.297,1.01708 2.232,1.88721 -0.07,0.94728 -1.281,1.31216 -1.991,0.60077 -0.199,-0.19855 -0.595,-0.361 -0.882,-0.361 -0.286,0 -0.611,-0.27075 -0.721,-0.60166 -0.111,-0.33257 0.186,-0.60166 0.664,-0.60166 0.771,0 0.786,-0.0782 0.137,-0.72796 -0.598,-0.59921 -1.181,-0.64178 -3.294,-0.24067 -1.411,0.26802 -3.359,0.4873 -4.327,0.4873 -0.969,0 -1.967,0.18715 -2.218,0.41589 -0.602,0.54815 -4.615,1.50943 -6.301,1.50943 h -1.332 l 1.618,1.35167 1.617,1.35167 -1.395,1.12029 c -0.882,0.70809 -1.174,1.19957 -0.794,1.33575 0.38,0.13635 0.601,1.1727 0.601,2.82266 0,1.43396 0.176,2.6072 0.392,2.6072 0.215,0 0.765,-0.70394 1.221,-1.56432 1.539,-2.9003 2.095,-3.76204 3.164,-4.90089 1.245,-1.32721 0.441,-2.33488 -0.84,-1.05234 -0.543,0.54381 -0.593,0.77894 -0.166,0.77894 0.337,0 0.48,0.21444 0.318,0.47654 -0.185,0.30115 -0.524,0.26166 -0.918,-0.10732 -0.506,-0.4734 -0.404,-0.75739 0.54,-1.50114 0.865,-0.68123 1.305,-0.77747 1.708,-0.374 0.71,0.71092 1.466,0.70175 1.025,-0.0124 -0.199,-0.32341 -0.133,-0.42581 0.16,-0.24496 0.276,0.1709 1.51,-0.25365 2.743,-0.94345 1.63,-0.91181 2.636,-1.17518 3.687,-0.9648 1.402,0.28084 2.831,1.30788 2.831,2.03497 0,0.19661 0.321,0.71182 0.712,1.14489 0.426,0.47063 1.216,3.97146 1.964,8.70183 0.901,5.70044 1.475,8.09223 2.052,8.55005 0.441,0.3496 0.75,0.82956 0.687,1.06659 -0.06,0.23702 0.423,0.96998 1.081,1.6288 0.658,0.65882 1.197,1.54021 1.197,1.95866 0,0.60732 0.191,0.65861 0.945,0.25427 0.52,-0.2786 1.872,-0.37703 3.005,-0.21873 z m -2.186,-1.35517 c -0.726,-0.5321 -0.653,-0.60484 0.63,-0.62191 0.876,-0.0117 1.452,0.22723 1.452,0.60258 0,0.79011 -1.016,0.79954 -2.082,0.0193 z m -1.283,-5.6396 c 0,-0.65156 0.229,-0.85953 0.733,-0.66578 0.566,0.21728 0.607,0.43414 0.182,0.94755 -0.741,0.89386 -0.915,0.84029 -0.915,-0.28177 z m 1.664,-1.48888 c -0.119,-0.19287 0.09,-0.46674 0.455,-0.60861 0.672,-0.25825 1.246,0.0358 1.246,0.6384 0,0.43457 -1.43,0.40953 -1.701,-0.0298 z m 3.844,-1.44702 c -0.174,-0.28277 -0.674,-0.37824 -1.11,-0.21214 -0.638,0.24295 -0.674,0.18283 -0.188,-0.30756 0.487,-0.49154 0.763,-0.45047 1.425,0.21215 0.451,0.45193 0.679,0.8217 0.506,0.8217 -0.174,0 -0.458,-0.23137 -0.633,-0.51415 z m 1.848,-0.6031 c -0.164,-0.26596 -0.05,-0.32414 0.262,-0.13204 0.305,0.18889 0.555,0.11406 0.555,-0.16629 0,-0.92603 -0.233,-1.22692 -0.842,-1.08703 -0.33,0.076 -0.6,-0.0755 -0.6,-0.33663 0,-0.26114 0.405,-0.3966 0.901,-0.30102 0.57,0.10999 1.125,-0.24588 1.512,-0.96962 0.491,-0.91794 0.787,-1.04923 1.503,-0.66581 0.801,0.42927 1.065,0.27795 0.975,-0.55905 -0.06,-0.57722 1.63,-0.28649 2.44,0.41931 1.12,0.97463 1.063,1.54612 -0.152,1.54612 -0.775,0 -0.927,-0.2119 -0.689,-0.96266 0.175,-0.55223 0.09,-0.96266 -0.208,-0.96266 -0.282,0 -0.513,0.66258 -0.513,1.4724 0,0.92168 -0.192,1.35354 -0.514,1.15464 -0.282,-0.17477 -0.414,-0.57645 -0.293,-0.89262 0.27,-0.70476 -1.458,-0.9048 -1.882,-0.21786 -0.168,0.27095 -0.06,0.73369 0.231,1.0283 0.676,0.67677 0.688,1.30578 0.03,1.30578 -0.28,0 -0.347,-0.27075 -0.149,-0.60166 0.249,-0.4138 0.109,-0.39678 -0.447,0.0545 -0.444,0.36091 -0.712,0.81215 -0.594,1.00277 0.118,0.19061 -0.11,0.34657 -0.507,0.34657 -0.397,0 -0.853,-0.21397 -1.015,-0.47548 z m -8.426,-0.59528 c -0.558,-0.55873 0.219,-2.03539 0.993,-1.88532 0.439,0.0852 0.987,0.17146 1.217,0.19171 0.231,0.0203 0.161,0.34885 -0.155,0.73022 -0.316,0.38136 -0.919,0.56115 -1.34,0.39953 -0.507,-0.19487 -0.648,-0.10417 -0.417,0.26927 0.36,0.58254 0.174,0.76655 -0.298,0.29459 z m 5.704,-1.41611 c 0.152,-0.3971 0.361,-0.722 0.465,-0.722 0.104,0 0.189,0.3249 0.189,0.722 0,0.39709 -0.209,0.72199 -0.466,0.72199 -0.256,0 -0.341,-0.3249 -0.188,-0.72199 z m -3.192,-0.91117 c 0,-0.10404 0.336,-0.31815 0.746,-0.47581 0.428,-0.16437 0.621,-0.0837 0.453,0.18917 -0.283,0.45736 -1.199,0.67648 -1.199,0.28664 z m 2.158,-0.78261 c -0.189,-0.30585 -0.07,-0.80796 0.262,-1.11581 0.471,-0.43484 0.519,-0.40723 0.216,0.12374 -0.281,0.49168 -0.187,0.60547 0.334,0.40553 0.397,-0.15286 1.028,-0.0847 1.401,0.1515 0.415,0.26347 0.46,0.43227 0.115,0.43679 -0.308,0.004 -0.882,0.13044 -1.273,0.28085 -0.392,0.15042 -0.866,0.0232 -1.055,-0.2826 z m 3.901,0.0893 c -0.136,-0.22061 0.06,-0.40111 0.431,-0.40111 0.374,0 0.568,0.1805 0.432,0.40111 -0.136,0.2206 -0.331,0.4011 -0.432,0.4011 -0.101,0 -0.295,-0.1805 -0.431,-0.4011 z m -9.424,-0.76211 c 0,-0.41916 0.342,-0.7621 0.761,-0.7621 0.849,0 0.701,1.03618 -0.191,1.33368 -0.314,0.10479 -0.57,-0.15242 -0.57,-0.57158 z m 1.937,-1.23269 c -0.886,-0.5509 -0.458,-1.0094 1.103,-1.18095 0.844,-0.0927 1.128,0.0612 0.954,0.51628 -0.137,0.35662 -0.424,0.53999 -0.638,0.4075 -0.214,-0.1325 -0.462,-0.0299 -0.551,0.228 -0.1,0.28968 -0.432,0.30083 -0.868,0.0292 z m 5.882,-0.42161 c 0.05,-0.61243 0.341,-0.8204 0.942,-0.66321 0.682,0.17876 0.754,0.37451 0.325,0.8922 -0.771,0.92939 -1.346,0.82534 -1.267,-0.22899 z m 1.908,-1.03312 c -0.485,-0.77667 -0.481,-0.96266 0.02,-0.96266 0.343,0 0.656,0.4332 0.695,0.96266 0.04,0.52946 0.03,0.96266 -0.02,0.96266 -0.05,0 -0.365,-0.4332 -0.695,-0.96266 z m 1.811,-0.95002 c 0,-0.14432 0.389,-0.50537 0.864,-0.80232 0.698,-0.43663 0.875,-0.38644 0.924,0.26241 0.04,0.4915 -0.298,0.80231 -0.864,0.80231 -0.508,0 -0.924,-0.11808 -0.924,-0.2624 z m 3.005,0.13832 c -0.331,-0.12715 -0.576,-0.70048 -0.545,-1.27406 0.04,-0.81399 0.104,-0.858 0.275,-0.20056 0.229,0.87536 1.111,1.18406 1.111,0.38864 0,-0.24953 0.471,-0.36293 1.046,-0.252 0.576,0.11093 1.387,-0.064 1.803,-0.38863 0.651,-0.50768 0.674,-0.48305 0.16,0.17595 -0.328,0.42145 -0.436,0.92685 -0.24,1.1231 0.196,0.19625 0.14,0.31312 -0.124,0.25971 -0.265,-0.0534 -0.589,-0.0554 -0.722,-0.004 -0.722,0.2787 -2.241,0.37334 -2.764,0.17219 z m -9.365,-1.18222 c -0.292,-0.18043 -0.07,-0.53836 0.526,-0.85926 0.564,-0.3025 1.026,-0.40756 1.026,-0.23346 0,0.17409 0.302,0.0658 0.671,-0.24062 0.533,-0.44255 0.656,-0.38042 0.601,0.30206 -0.04,0.50927 0.259,0.86172 0.738,0.86535 0.444,0.003 0.928,0.12671 1.075,0.27406 0.373,0.37389 -4.024,0.27136 -4.637,-0.10813 z m -3.255,-3.32911 c 0,-0.28036 0.216,-0.37587 0.48,-0.21226 0.265,0.16361 0.481,0.39299 0.481,0.50974 0,0.11674 -0.216,0.21225 -0.481,0.21225 -0.264,0 -0.48,-0.22938 -0.48,-0.50973 z m 8.943,-0.43796 c 0.639,-0.6157 1.905,-0.80578 1.888,-0.2836 0,0.24935 -0.533,0.50873 -1.167,0.5764 -0.657,0.0701 -0.967,-0.0557 -0.721,-0.2928 z m 6.441,-0.5247 c 0,-0.28036 0.217,-0.37587 0.481,-0.21226 0.265,0.16361 0.481,0.39299 0.481,0.50974 0,0.11674 -0.216,0.21225 -0.481,0.21225 -0.264,0 -0.481,-0.22938 -0.481,-0.50973 z m 3.175,-0.3727 c -0.136,-0.22061 0.07,-0.40111 0.452,-0.40111 0.385,0 0.7,0.1805 0.7,0.40111 0,0.22061 -0.203,0.40111 -0.452,0.40111 -0.249,0 -0.564,-0.1805 -0.7,-0.40111 z m -1.906,-0.80222 c -0.152,-0.39709 -0.07,-0.72199 0.189,-0.72199 0.256,0 0.466,0.3249 0.466,0.72199 0,0.3971 -0.08,0.722 -0.189,0.722 -0.104,0 -0.314,-0.3249 -0.466,-0.722 z m 5.703,-0.24066 c -0.164,-0.26473 -0.231,-0.4979 -0.149,-0.51816 1.583,-0.39239 1.852,-0.32781 1.319,0.31614 -0.674,0.81253 -0.782,0.83117 -1.17,0.20202 z m -1.082,-2.04565 c 0.11,-0.33092 0.489,-0.60166 0.841,-0.60166 0.353,0 0.731,0.27074 0.842,0.60166 0.119,0.35791 -0.222,0.60166 -0.842,0.60166 -0.619,0 -0.96,-0.24375 -0.841,-0.60166 z m 4.443,-5.47936 c 0.813,-0.81378 2.168,-1.32712 2.168,-0.82129 0,0.48166 -1.237,1.37296 -2.116,1.52499 -0.877,0.1518 -0.879,0.12431 -0.05,-0.7037 z m -3.636,31.53516 c 0.224,0.36354 0.659,0.50565 0.965,0.3158 0.423,-0.26155 0.422,-0.50974 0,-1.02433 -0.453,-0.54732 -0.37,-0.67914 0.429,-0.67914 0.546,0 1.126,-0.2166 1.29,-0.48133 0.163,-0.26473 0.04,-0.48133 -0.271,-0.48133 -0.401,0 -0.374,-0.23994 0.09,-0.81439 0.448,-0.55336 0.467,-0.69853 0.06,-0.45292 -0.351,0.21117 -0.601,0.11463 -0.601,-0.23217 0,-0.34017 -0.475,-0.14679 -1.112,0.45292 -0.612,0.57561 -1.315,1.05002 -1.563,1.05425 -0.247,0.004 -1.207,0.68918 -2.132,1.52212 -0.926,0.83294 -1.339,1.39101 -0.918,1.24017 0.42,-0.15085 1.069,-0.0817 1.442,0.15355 0.457,0.28862 0.879,0.15744 1.298,-0.40319 0.508,-0.68147 0.693,-0.71207 1.028,-0.17001 z m -38.187,0.0563 c 0.163,-0.26473 0.07,-0.48133 -0.212,-0.48133 -0.28,0 -0.509,0.2166 -0.509,0.48133 0,0.26473 0.1,0.48133 0.212,0.48133 0.116,0 0.345,-0.2166 0.509,-0.48133 z m -74.673,-1.18123 c -0.08,-0.46501 0.06,-0.70806 0.328,-0.54388 0.263,0.16325 0.623,0.0643 0.798,-0.21993 0.176,-0.28421 -0.458,-1.27287 -1.409,-2.197 -1.799,-1.7492 -2.057,-2.33621 -1.247,-2.83724 0.264,-0.16361 0.481,-0.50313 0.481,-0.75448 0,-0.25135 -0.445,-0.18442 -0.989,0.14874 -0.837,0.51349 -1.062,0.47591 -1.472,-0.24671 -0.266,-0.46885 -0.65,-0.74912 -0.854,-0.62283 -0.204,0.12629 -0.371,-0.0762 -0.371,-0.45004 0,-0.3738 0.202,-0.55473 0.448,-0.40207 0.247,0.15267 0.203,-0.18175 -0.1,-0.74316 -0.3,-0.56141 -0.767,-1.02075 -1.038,-1.02075 -0.27,0 -0.358,0.2166 -0.195,0.48133 0.171,0.27618 -0.278,0.48785 -1.053,0.49664 -1.146,0.013 -1.239,0.10397 -0.612,0.60166 0.406,0.32249 0.662,0.95766 0.569,1.41148 -0.114,0.55661 0.232,0.92603 1.064,1.13517 0.9,0.22614 1.234,0.62567 1.234,1.4763 0,0.64143 0.325,1.29092 0.721,1.4433 0.397,0.15238 0.721,0.57623 0.721,0.94188 0,0.40253 0.427,0.61959 1.082,0.55016 0.913,-0.0968 1.066,0.0972 0.981,1.24275 -0.07,0.8853 0.101,1.28645 0.481,1.15339 0.32,-0.11221 0.513,-0.58233 0.429,-1.04471 z m -3.213,-4.59473 c -0.163,-0.26473 -0.07,-0.48132 0.212,-0.48132 0.28,0 0.509,0.21659 0.509,0.48132 0,0.26474 -0.1,0.48133 -0.212,0.48133 -0.116,0 -0.345,-0.21659 -0.509,-0.48133 z m 46.876,5.39706 c 0,-0.2084 -0.433,-0.41153 -0.962,-0.45142 -0.529,-0.0399 -0.961,0.13062 -0.961,0.3789 0,0.24828 0.432,0.45142 0.961,0.45142 0.529,0 0.962,-0.17051 0.962,-0.3789 z m -12.02,-0.58376 c 0,-0.26473 0.541,-0.48133 1.202,-0.48133 0.661,0 1.202,0.2166 1.202,0.48133 0,0.26473 0.187,0.48133 0.414,0.48133 0.228,0 0.317,-0.51088 0.198,-1.13529 -0.225,-1.17585 1.008,-2.15178 1.569,-1.24249 0.159,0.25749 0.545,0.34027 0.857,0.18395 0.313,-0.15631 0.143,0.0607 -0.377,0.48224 -0.898,0.72769 -0.861,0.75062 0.721,0.45338 2.145,-0.40309 2.609,-0.84644 1.687,-1.61284 -0.43,-0.35723 -0.742,-0.40804 -0.742,-0.12093 0,0.27237 -0.433,0.38192 -0.961,0.24347 -0.529,-0.13846 -0.962,-0.55138 -0.962,-0.9176 0,-0.87114 -0.692,-0.84893 -1.434,0.046 -0.41,0.49533 -0.841,0.57746 -1.415,0.27 -0.646,-0.34643 -1.006,-0.13446 -1.664,0.98126 -0.462,0.78273 -1.045,1.29606 -1.296,1.14074 -0.251,-0.15533 -0.312,-0.51752 -0.134,-0.80486 0.19,-0.30845 0.1,-0.38426 -0.223,-0.18509 -0.402,0.24907 -0.392,0.58342 0.04,1.27769 0.629,1.00718 1.317,1.2472 1.317,0.45902 z m 71.356,0.18917 c 0.418,-0.16069 0.761,-0.52169 0.761,-0.80222 0,-0.28053 -0.143,-0.36753 -0.317,-0.19334 -0.174,0.17419 -0.606,0.0755 -0.961,-0.21938 -0.493,-0.40898 -0.646,-0.36044 -0.646,0.20473 0,0.40745 -0.27,0.85007 -0.6,0.98359 -0.375,0.15128 -0.299,0.2571 0.201,0.28078 0.441,0.0209 1.144,-0.0935 1.562,-0.25416 z m -53.567,-0.58228 c 0,-0.0839 -0.567,-0.89609 -1.259,-1.80499 -1.285,-1.6871 -2.433,-2.23698 -1.93,-0.92459 0.218,0.57083 0.02,0.66345 -0.91,0.42915 -1.03,-0.25877 -1.19,-0.13598 -1.19,0.9166 0,0.66846 0.271,1.32377 0.601,1.45623 0.632,0.25304 4.687,0.1904 4.688,-0.0724 z m 60.406,-0.32889 c 0.641,-0.64177 0.61,-0.72199 -0.275,-0.72199 -0.564,0 -0.996,0.31259 -0.996,0.72199 0,0.3971 0.124,0.722 0.275,0.722 0.151,0 0.599,-0.3249 0.996,-0.722 z m -82.661,-0.39068 c -0.133,-0.34724 0.182,-1.15949 0.7,-1.80499 l 0.942,-1.17363 -0.33,1.20332 -0.331,1.20333 1.227,-1.13342 c 0.674,-0.62338 1.458,-0.98965 1.742,-0.81392 0.284,0.17572 0.516,0.0969 0.516,-0.17513 0,-0.27205 0.379,-0.3727 0.842,-0.22367 0.603,0.19423 0.666,0.14497 0.224,-0.17392 -0.366,-0.26371 -0.48,-0.8044 -0.279,-1.32769 0.234,-0.61001 0.164,-0.77526 -0.224,-0.53477 -0.31,0.19142 -0.563,0.61562 -0.563,0.94267 0,0.39424 -0.914,0.61608 -2.714,0.65826 -2.738,0.0642 -3.915,0.78122 -3.032,1.84707 0.247,0.29797 0.295,0.69606 0.107,0.88464 -0.188,0.18859 -0.02,0.54439 0.365,0.79067 0.953,0.60365 1.093,0.57442 0.808,-0.16882 z m 25.854,-1.68004 c 0.321,-1.52477 0.279,-1.58349 -1.031,-1.44399 -1.055,0.11227 -1.351,-0.0465 -1.299,-0.69692 0.04,-0.46328 -0.126,-0.84232 -0.361,-0.84232 -0.235,0 -0.427,0.21659 -0.427,0.48133 0,0.26473 -0.379,0.50645 -0.842,0.53716 -0.76,0.0505 -0.763,0.0764 -0.03,0.26983 0.445,0.11769 0.949,0.84937 1.119,1.62595 0.311,1.4161 1.647,2.60944 2.227,1.98938 0.171,-0.18207 0.461,-1.04625 0.645,-1.92042 z m 45.68,1.83006 c -0.163,-0.26473 -0.663,-0.46611 -1.11,-0.4475 -0.662,0.0276 -0.635,0.11028 0.149,0.4475 1.286,0.55347 1.303,0.55347 0.961,0 z m -74.977,-1.68305 c -0.07,-0.65867 0.149,-1.4298 0.49,-1.71362 0.572,-0.47497 0.568,-2.17899 0,-2.75366 -0.134,-0.13427 -0.548,0.009 -0.92,0.31807 -0.528,0.43807 -0.739,0.40186 -0.955,-0.16396 -0.314,-0.81878 -1.758,-0.48147 -1.758,0.41066 0,0.31279 0.426,1.40465 0.946,2.42634 0.521,1.02169 0.844,2.02368 0.719,2.22664 -0.251,0.40645 0.791,0.90818 1.298,0.62489 0.175,-0.0978 0.259,-0.71669 0.186,-1.37536 z m 18.006,1.28194 c 0,-0.22061 -0.315,-0.40111 -0.7,-0.40111 -0.385,0 -0.589,0.1805 -0.453,0.40111 0.136,0.22061 0.451,0.40111 0.7,0.40111 0.249,0 0.453,-0.1805 0.453,-0.40111 z m 36.249,-0.16044 c -0.137,-0.22061 -0.452,-0.40111 -0.7,-0.40111 -0.249,0 -0.453,0.1805 -0.453,0.40111 0,0.22061 0.315,0.40111 0.7,0.40111 0.385,0 0.589,-0.1805 0.453,-0.40111 z m 19.352,-0.58193 c 0.795,-0.73831 1.043,-1.26002 0.7,-1.47239 -0.292,-0.18091 -0.531,-0.0634 -0.531,0.26104 0,0.32447 -0.145,0.44508 -0.322,0.26802 -0.356,-0.3565 -2.082,1.03627 -2.082,1.68008 0,0.74571 0.989,0.41947 2.235,-0.73675 z m -17.036,-0.77693 c -0.116,-0.79149 -0.413,-1.31434 -0.659,-1.16188 -0.246,0.15245 -0.754,0.0233 -1.127,-0.28702 -0.374,-0.31031 -0.938,-0.40379 -1.255,-0.20773 -0.344,0.21281 -0.451,0.15285 -0.264,-0.14879 0.171,-0.27789 0.02,-0.61777 -0.339,-0.75528 -0.694,-0.26665 -0.75,0.75219 -0.117,2.15122 0.284,0.62651 0.663,0.71237 1.757,0.39815 0.767,-0.22033 1.375,-0.25487 1.351,-0.0768 -0.113,0.8172 0.104,1.52717 0.466,1.52717 0.219,0 0.303,-0.64758 0.187,-1.43908 z m 25.453,0.40124 1.036,-1.03783 -1.836,0.29836 c -1.01,0.16411 -2.049,0.51072 -2.308,0.77025 -0.308,0.30828 -0.114,0.37831 0.56,0.202 0.599,-0.15693 1.03,-0.0449 1.03,0.26759 0,0.78264 0.352,0.66665 1.518,-0.50037 z m -32.768,0.27499 c 0,-0.62106 -0.663,-1.58806 -0.962,-1.40313 -0.209,0.12932 -0.501,-0.0816 -0.649,-0.46868 -0.149,-0.3871 -0.03,-0.85252 0.264,-1.03426 0.311,-0.19226 0.399,-0.11255 0.212,0.19059 -0.177,0.28658 0.11,0.65814 0.637,0.8257 0.528,0.16756 0.91,0.54811 0.849,0.84567 -0.131,0.64047 2.396,0.97472 2.772,0.36662 0.142,-0.23015 0,-0.57519 -0.305,-0.76675 -0.34,-0.21065 -0.434,-0.14019 -0.238,0.17827 0.197,0.31854 -0.04,0.49873 -0.609,0.45609 -0.565,-0.0426 -0.91,-0.39866 -0.872,-0.90018 0.03,-0.45634 0.234,-0.72363 0.443,-0.59398 0.611,0.37775 1.323,-0.27492 1.057,-0.96847 -0.144,-0.37567 -0.711,-0.54578 -1.387,-0.41633 -0.735,0.14072 -1.052,0.45906 -0.886,0.89131 0.142,0.36982 0.05,0.6724 -0.209,0.6724 -0.257,0 -0.415,-0.48734 -0.353,-1.08299 0.06,-0.59564 0.141,-1.39513 0.175,-1.77665 0.05,-0.51262 0.24,-0.44981 0.748,0.24067 0.646,0.87863 0.706,0.88338 1.017,0.0797 0.263,-0.67861 0.473,-0.73733 1.017,-0.28513 0.531,0.4413 0.816,0.42812 1.266,-0.0586 0.464,-0.50254 0.412,-0.56881 -0.261,-0.33163 -0.463,0.16302 -0.85,0.24904 -0.86,0.19117 -0.475,-2.75325 -0.483,-3.78499 -0.03,-3.50359 0.29,0.1796 0.527,0.74695 0.527,1.26079 0,0.51384 0.198,0.93425 0.439,0.93425 0.241,0 0.378,-0.54676 0.305,-1.21503 -0.153,-1.39426 0.564,-2.1044 0.993,-0.98422 0.158,0.41235 0.486,0.6266 0.729,0.47611 0.397,-0.24506 0.08,-4.95127 -0.372,-5.46171 -0.329,-0.37464 -3.11,2.58739 -3.809,4.05621 -0.76,1.59764 -2.773,4.0913 -3.303,4.0913 -0.186,0 -0.66,0.32179 -1.053,0.71509 -0.632,0.63256 -0.842,0.6313 -1.821,-0.0109 -1.015,-0.66582 -2.706,-0.54571 -2.669,0.18965 0.04,0.86496 2.484,2.95681 3.451,2.95681 0.611,0 1.357,0.3971 1.66,0.88244 0.434,0.69612 2.085,1.29889 2.085,0.76136 z m 1.442,-6.45709 c 0,-0.26473 0.229,-0.48133 0.509,-0.48133 0.28,0 0.376,0.2166 0.212,0.48133 -0.163,0.26473 -0.392,0.48133 -0.509,0.48133 -0.116,0 -0.212,-0.2166 -0.212,-0.48133 z m 43.27,5.99353 c 0,-0.56864 -0.909,-0.56756 -1.127,0.001 -0.178,0.46341 -0.03,0.6056 0.43,0.42707 0.384,-0.14721 0.697,-0.33999 0.697,-0.42841 z m -15.045,-1.36001 c 0.491,-0.49128 -1.958,-0.32848 -2.744,0.18238 -0.527,0.3434 -0.297,0.42227 0.861,0.29418 0.87,-0.0963 1.717,-0.31071 1.883,-0.47656 z m -98.444,-0.66255 c -0.01,-0.46328 -0.697,-1.37308 -1.515,-2.02178 -0.818,-0.64869 -1.387,-0.97359 -1.264,-0.72199 0.123,0.2516 0.501,1.1614 0.84,2.02177 0.652,1.65306 1.984,2.1491 1.939,0.722 z m 39.511,0 c 0.598,-0.76342 0.581,-0.78044 -0.182,-0.18173 -0.462,0.36333 -0.841,0.74237 -0.841,0.84233 0,0.39615 0.395,0.14117 1.023,-0.6606 z m 79.507,-0.25337 c 0.913,-0.22475 0.91,-0.23943 -0.06,-0.29246 -0.563,-0.0307 -1.32,0.32321 -1.683,0.78649 -0.574,0.73258 -0.566,0.77069 0.06,0.29246 0.397,-0.30242 1.154,-0.65635 1.683,-0.78649 z m -15.385,0.13303 c 0.164,-0.26473 -0.05,-0.48132 -0.481,-0.48132 -0.427,0 -0.644,0.21659 -0.48,0.48132 0.163,0.26474 0.379,0.48133 0.48,0.48133 0.101,0 0.318,-0.21659 0.481,-0.48133 z m -27.872,-0.50241 c 0.339,-0.54954 -0.709,-2.09007 -1.133,-1.66539 -0.144,0.14415 -0.293,0.69088 -0.332,1.21495 -0.07,1.00095 0.934,1.31074 1.465,0.45044 z m -73.532,-2.00649 c -0.395,-2.47619 -0.518,-2.61637 -1.459,-1.67408 -0.955,0.95593 -0.941,1.72358 0.05,2.82143 1.297,1.4349 1.759,1.0579 1.407,-1.14735 z m 34.614,0.69246 c -0.828,-0.79385 -0.838,-0.78359 -0.23,0.23023 0.35,0.58361 0.74,0.9575 0.867,0.83087 0.126,-0.12663 -0.16,-0.60412 -0.637,-1.0611 z m 12.696,0.73345 c -0.02,-1.30988 -0.803,-1.84547 -2.318,-1.57825 -0.837,0.14758 -1.521,0.0718 -1.521,-0.16837 0,-0.24018 -0.322,-0.56037 -0.716,-0.71154 -0.397,-0.15252 -0.664,-0.0315 -0.601,0.272 0.136,0.6461 -2.414,0.85155 -3.582,0.28867 -1.105,-0.53233 -1.415,0.14 -0.588,1.2728 0.374,0.51096 0.679,0.65824 0.679,0.32729 0,-0.33096 0.216,-0.46787 0.481,-0.30426 0.264,0.16361 0.481,0.0735 0.481,-0.20034 0,-0.32444 0.395,-0.34721 1.136,-0.0654 0.625,0.23785 2.064,0.30782 3.198,0.15549 1.4,-0.18794 1.961,-0.11193 1.746,0.23652 -0.174,0.28241 -0.05,0.62317 0.287,0.75725 1.018,0.41086 1.325,0.34509 1.318,-0.28189 z m -25.09,-0.45726 c 0.318,-0.31768 0.577,-0.99399 0.577,-1.50292 0,-0.78285 -0.115,-0.8296 -0.748,-0.30359 -0.612,0.50824 -0.721,0.50801 -0.601,-0.001 0.08,-0.34264 -0.07,-0.6681 -0.333,-0.72325 -0.265,-0.0551 -0.337,-0.0162 -0.162,0.0866 0.176,0.10276 0.137,0.82476 -0.09,1.60444 -0.436,1.5221 0.248,1.94673 1.353,0.84 z m 9.279,-0.0241 c 0.03,-0.33091 0.08,-1.14315 0.12,-1.80498 0.05,-0.82032 0.337,-1.18258 0.904,-1.13815 0.658,0.0516 0.795,-0.24921 0.656,-1.44399 -0.135,-1.16559 -0.379,-1.47182 -1.072,-1.34512 -0.493,0.0902 -1.87,0.20761 -3.059,0.26086 -1.19,0.0533 -2.062,0.30433 -1.938,0.55796 0.125,0.25362 0.52,0.39362 0.879,0.31111 0.432,-0.0992 0.599,0.21377 0.495,0.92496 -0.187,1.27549 -1.36,1.83631 -1.36,0.65022 0,-0.67208 -0.129,-0.71326 -0.715,-0.22698 -0.888,0.73837 -0.416,1.67482 1.474,2.92196 1.594,1.05235 3.545,1.23154 3.616,0.33215 z m -1.53,-2.40664 c -0.359,-1.07874 -0.159,-2.14792 0.364,-1.94684 0.738,0.28351 0.873,2.06717 0.157,2.06717 -0.265,0 -0.499,-0.0541 -0.521,-0.12033 z m 72.156,2.82658 c 0,-0.1 -0.378,-0.479 -0.841,-0.84233 -0.763,-0.59871 -0.78,-0.58169 -0.182,0.18173 0.629,0.80177 1.023,1.05675 1.023,0.6606 z m -43.872,-1.86392 c -0.111,-0.33092 -0.553,-0.60418 -0.983,-0.60725 -1.313,-0.009 -1.861,-0.90543 -1.344,-2.19914 0.256,-0.64052 0.478,-0.87578 0.495,-0.52281 0.04,0.85549 1.231,0.43196 1.24,-0.44122 0,-0.37503 -0.429,-1.07485 -0.962,-1.55513 -0.688,-0.62004 -0.794,-0.94571 -0.368,-1.12311 1.152,-0.47881 0.59,-0.92597 -1.094,-0.87003 -1.747,0.058 -2.158,-0.94082 -0.426,-1.03331 2.679,-0.14299 3.083,-0.23125 3.083,-0.67293 0,-0.26473 -0.813,-0.48133 -1.807,-0.48133 -1.326,0 -1.979,0.27433 -2.45,1.02875 -0.577,0.92561 -0.504,1.14102 0.726,2.14867 0.838,0.68629 1.098,1.12663 0.67,1.13723 -0.542,0.0135 -0.569,0.14567 -0.12,0.59491 0.318,0.31768 0.577,0.96049 0.577,1.42848 0,1.21013 -1.974,0.42714 -2.757,-1.09364 -0.552,-1.07049 -0.84,-0.70791 -0.659,0.82834 0.03,0.2956 -0.269,0.81358 -0.675,1.15107 -0.62,0.51516 -0.69,0.48685 -0.436,-0.17645 0.167,-0.43454 0.09,-0.79008 -0.178,-0.79008 -0.264,0 -0.605,0.3249 -0.757,0.722 -0.402,1.04912 -1.269,0.88474 -1.269,-0.24067 0,-0.94193 0.472,-1.1808 1.923,-0.97393 0.397,0.0565 0.541,-0.0803 0.321,-0.30396 -0.57,-0.57932 -2.903,-0.56962 -3.292,0.0137 -0.18,0.26969 -0.114,0.93522 0.147,1.47894 0.463,0.96707 0.457,0.96825 -0.274,0.0543 -0.411,-0.51387 -0.748,-1.07342 -0.748,-1.24343 0,-0.17001 -0.27,-0.31941 -0.601,-0.332 -0.33,-0.0126 -1.033,-0.17742 -1.562,-0.36629 -0.675,-0.24108 -0.771,-0.20641 -0.321,0.11635 0.522,0.37385 0.499,0.5144 -0.12,0.75229 -0.419,0.1609 -0.761,0.66755 -0.761,1.12591 0,0.64817 0.128,0.70501 0.577,0.25577 0.785,-0.78611 1.346,-0.72594 1.346,0.1444 0,0.44679 0.452,0.72199 1.187,0.72199 0.857,0 1.11,0.20038 0.91,0.72199 -0.367,0.95648 0.962,0.94978 1.756,-0.009 0.913,-1.10094 6.106,-0.81024 6.411,0.35891 0.143,0.54875 0.682,0.85328 1.51,0.85328 0.817,0 1.213,-0.2199 1.085,-0.60166 z m 45.315,0.12033 c 0,-0.60307 -0.511,-0.60307 -1.443,0 -0.583,0.3773 -0.514,0.468 0.361,0.47396 0.595,0.004 1.082,-0.20923 1.082,-0.47396 z m -112.547,-1.73914 c -0.703,-0.84842 -1.045,-0.59965 -0.637,0.46416 0.166,0.43347 0.506,0.66178 0.756,0.50737 0.271,-0.16739 0.223,-0.55967 -0.119,-0.97153 z m 24.958,-0.2239 c 0.481,-0.77233 0.494,-1.15636 0.06,-1.68465 -0.757,-0.91323 -2.198,-0.86985 -2.561,0.0771 -0.647,1.68843 -0.39,2.09042 1.636,2.55211 0.134,0.0307 0.525,-0.39433 0.869,-0.94454 z m 19.817,0.29947 c -0.32,-0.3855 -0.451,-0.91203 -0.292,-1.17006 0.16,-0.25804 0.07,-0.60521 -0.199,-0.77149 -0.687,-0.42559 -0.611,1.36448 0.09,2.06486 0.81,0.81095 1.102,0.72132 0.402,-0.12331 z m 69.935,-0.74308 c 0.479,-0.52946 0.762,-0.96266 0.63,-0.96266 -0.132,0 -0.632,0.4332 -1.111,0.96266 -0.478,0.52946 -0.762,0.96266 -0.629,0.96266 0.132,0 0.632,-0.4332 1.11,-0.96266 z m -117.631,-1.14349 c 0.488,-1.00341 0.507,-1.472 0.08,-1.98701 -0.316,-0.38183 -0.413,-1.13276 -0.223,-1.73251 0.272,-0.85726 0.183,-1 -0.466,-0.7506 -0.441,0.16938 -0.685,0.1184 -0.542,-0.11329 0.143,-0.23169 1.02,-0.56392 1.948,-0.73829 1.247,-0.23411 1.688,-0.56316 1.688,-1.25789 0,-0.51747 -0.27,-0.8867 -0.6,-0.82052 -1.097,0.21955 -0.622,-1.28475 0.6,-1.904 0.662,-0.33483 1.094,-0.62855 0.962,-0.65271 -0.483,-0.0882 -1.7,-0.35464 -2.382,-0.52132 -0.385,-0.094 -0.736,0.0998 -0.781,0.43072 -0.05,0.33092 -0.118,0.87241 -0.162,1.20333 -0.04,0.33091 -0.402,0.006 -0.796,-0.722 -0.779,-1.43817 -1.648,-1.75533 -1.648,-0.60166 0,0.3971 -0.26,0.72199 -0.577,0.72199 -0.438,0 -0.443,0.13457 -0.02,0.55896 0.715,0.7152 -0.764,3.42643 -1.677,3.07564 -0.966,-0.37118 -0.713,0.40291 0.35,1.06699 1.081,0.676 1.269,1.82844 0.36,2.20734 -0.455,0.18991 -0.425,0.40347 0.126,0.88244 0.4,0.34754 0.998,1.24456 1.329,1.99336 0.708,1.60159 1.542,1.48534 2.43,-0.33897 z m 132.92,0.20752 c 0.655,-0.77951 1.309,-1.29932 1.453,-1.15512 0.404,0.40453 1.337,-0.32603 1.038,-0.81199 -0.399,-0.64596 -2.242,0.39569 -3.513,1.9858 -1.469,1.83658 -0.523,1.81928 1.022,-0.0187 z m -124.995,-0.2087 c 0.14,-0.36484 0.04,-0.88189 -0.23,-1.149 -0.327,-0.32665 -0.313,-0.59228 0.04,-0.81133 0.289,-0.17913 0.864,0.013 1.278,0.427 1.213,1.21482 1.434,0.86232 0.25,-0.39944 -0.847,-0.90334 -1.359,-1.07775 -2.367,-0.80769 -1.456,0.38982 -1.602,1.00086 -0.579,2.42162 0.828,1.15012 1.256,1.23511 1.607,0.31884 z m 28.215,-0.29932 c 0,-0.26473 -0.217,-0.48133 -0.481,-0.48133 -0.264,0 -0.481,0.2166 -0.481,0.48133 0,0.26473 0.217,0.48133 0.481,0.48133 0.264,0 0.481,-0.2166 0.481,-0.48133 z m 78.545,-0.58124 c -0.33,-0.53371 -1.621,-0.47793 -1.621,0.07 0,0.24828 0.417,0.41991 0.928,0.38141 0.511,-0.0385 0.822,-0.24164 0.693,-0.45141 z m -80.643,-0.52793 c 0.184,-0.18415 0.696,-0.33482 1.138,-0.33482 1.21,0 1.199,-3.15295 -0.01,-4.45719 -0.809,-0.86892 -0.948,-0.89928 -0.948,-0.20619 0,0.44701 -0.217,0.81275 -0.481,0.81275 -0.265,0 -0.481,-0.37131 -0.481,-0.82514 0,-0.76026 -0.06,-0.7639 -0.778,-0.0462 -0.779,0.77958 -0.508,2.09167 0.325,1.57618 0.243,-0.15044 0.313,0.0626 0.156,0.47347 -0.158,0.41085 -0.67,0.747 -1.138,0.747 -0.468,0 -1.132,0.33858 -1.475,0.75241 -0.565,0.6818 -0.663,0.68085 -1.05,-0.0101 -0.564,-1.00928 -1.304,-0.51228 -0.996,0.6687 0.237,0.90641 2.094,1.24948 1.918,0.35425 -0.05,-0.24287 0.183,-0.54085 0.514,-0.66219 0.331,-0.12133 0.601,0.014 0.601,0.30083 0,0.2868 0.229,0.52144 0.509,0.52144 0.28,0 0.385,-0.20163 0.233,-0.44807 -0.152,-0.24643 -0.08,-0.5724 0.17,-0.72436 0.245,-0.15197 0.389,0.24234 0.32,0.87624 -0.121,1.10289 0.67,1.44048 1.478,0.63101 z m 0.316,-2.01644 c -0.455,-0.50186 -0.433,-0.69474 0.105,-0.9014 0.808,-0.31021 1.489,0.56389 0.89,1.14073 -0.229,0.21954 -0.676,0.11183 -0.995,-0.23933 z m 82.422,2.35348 c -0.16,-0.15994 -0.575,-0.17704 -0.922,-0.038 -0.383,0.15365 -0.269,0.26771 0.291,0.2908 0.507,0.0209 0.791,-0.0929 0.631,-0.2528 z m -74.048,-0.90099 c 0.585,-0.16804 1.515,-0.064 2.066,0.23119 0.928,0.49751 0.956,0.46428 0.383,-0.45502 -0.523,-0.83743 -0.983,-0.95861 -2.959,-0.77884 -1.287,0.1171 -2.447,0.31944 -2.577,0.44966 -0.478,0.47869 0.447,1.29578 1.223,1.08058 0.44,-0.12213 1.279,-0.35954 1.864,-0.52757 z m 5.427,0.49821 c 0,-0.50803 -0.923,-0.72147 -1.197,-0.27693 -0.166,0.26905 0.03,0.48918 0.448,0.48918 0.412,0 0.749,-0.0955 0.749,-0.21225 z m -22.408,-1.50961 c 0.144,-0.37663 0.05,-0.68478 -0.203,-0.68478 -0.257,0 -0.412,-0.16245 -0.346,-0.361 0.122,-0.36508 -0.271,-0.60166 -0.998,-0.60166 -0.219,0 -0.305,0.63443 -0.191,1.40984 0.213,1.45263 1.219,1.59023 1.738,0.2376 z m 24.908,-0.29972 c -0.449,-0.44924 -0.705,-0.44924 -1.154,0 -0.448,0.44924 -0.32,0.5776 0.577,0.5776 0.898,0 1.026,-0.12836 0.577,-0.5776 z m 9.819,-2.17106 c -0.127,-0.12701 -0.901,-0.0837 -1.719,0.0964 -1.482,0.32585 -1.851,1.46088 -0.744,2.29093 0.487,0.36542 2.888,-1.96171 2.463,-2.38729 z m 2.332,2.24624 c -0.171,-0.27633 -0.05,-0.81782 0.271,-1.20332 0.468,-0.56468 0.429,-0.70091 -0.199,-0.70091 -0.77,0 -1.09,1.45487 -0.46,2.08576 0.493,0.49354 0.735,0.38042 0.388,-0.18153 z m -6.478,-0.99839 c 0,-0.26473 -0.216,-0.34746 -0.48,-0.18385 -0.265,0.16362 -0.481,0.51408 -0.481,0.77881 0,0.26473 0.216,0.34746 0.481,0.18385 0.264,-0.16361 0.48,-0.51407 0.48,-0.77881 z m 65.867,-0.49523 c 0,-0.17627 -0.433,-0.2072 -0.962,-0.0687 -0.529,0.13846 -0.962,0.55322 -0.962,0.92168 0,0.54944 0.173,0.56181 0.962,0.0687 0.529,-0.33065 0.962,-0.7454 0.962,-0.92167 z m -92.158,-0.0986 c 0.153,0.15298 0.245,-0.16453 0.204,-0.70558 -0.04,-0.54104 -0.231,-0.88689 -0.422,-0.76855 -0.191,0.11835 -0.485,-0.007 -0.652,-0.2777 -0.455,-0.7372 -1.834,0.83927 -1.499,1.71362 0.212,0.5533 0.5,0.61276 1.186,0.24523 0.498,-0.26683 1.03,-0.35999 1.183,-0.20702 z m 10.24,-0.70626 c -0.111,-0.18025 0.53,-0.35336 1.424,-0.38468 1.069,-0.0375 1.522,0.12727 1.325,0.48133 -0.165,0.29605 0,0.26753 0.347,-0.0634 0.356,-0.33091 1.238,-0.60166 1.959,-0.60166 0.722,0 1.598,-0.28363 1.947,-0.6303 0.936,-0.92866 3.817,-2.27987 4.267,-2.00143 0.214,0.13243 0.519,0.0301 0.678,-0.22737 0.159,-0.25749 0.579,-0.35687 0.933,-0.22084 0.354,0.13603 0.947,-0.0359 1.318,-0.38202 0.774,-0.72249 0.707,-0.70518 5.475,-1.41513 3.385,-0.50403 4.359,-1.00333 2.989,-1.53169 -0.331,-0.12744 -0.129,-0.20883 0.447,-0.18086 0.577,0.028 0.943,0.2225 0.813,0.43227 -0.129,0.20978 0.102,0.38142 0.515,0.38142 0.412,0 0.749,-0.18852 0.749,-0.41893 0,-0.23041 0.703,-0.42586 1.563,-0.43434 0.859,-0.008 1.778,-0.0615 2.043,-0.11793 0.264,-0.0564 0.697,-0.14405 0.961,-0.19482 0.265,-0.0508 0.806,-0.22005 1.202,-0.37616 1.187,-0.46709 7.646,-1.8127 12.122,-2.52538 2.304,-0.36684 4.468,-0.84105 4.808,-1.05382 0.34,-0.21276 0.835,-0.42419 1.099,-0.46983 0.265,-0.0456 2.32,-0.44526 4.568,-0.88804 2.247,-0.44277 4.738,-0.89452 5.534,-1.00388 0.797,-0.10936 3.176,-0.64678 5.289,-1.19426 2.112,-0.54748 6.64,-1.52891 10.063,-2.18097 3.422,-0.65205 6.749,-1.53089 7.392,-1.95298 0.753,-0.49368 1.279,-0.59104 1.475,-0.27293 0.3,0.48478 1.885,0.27863 12.315,-1.60131 2.115,-0.3813 4.603,-0.81158 5.529,-0.95618 3.153,-0.49266 6.97,-1.36303 7.452,-1.69926 0.264,-0.18449 1.129,-0.48684 1.923,-0.6719 2.063,-0.48144 5.048,-1.83853 5.048,-2.29555 0,-0.21378 0.33,-0.3887 0.733,-0.3887 1.144,0 7.536,-3.33405 8.963,-4.67549 0.706,-0.66309 1.517,-1.06088 1.803,-0.88397 0.858,0.53061 0.586,-2.27264 -0.332,-3.42696 -1.626,-2.0449 -4.623,-3.1217 -9.854,-3.54086 -2.713,-0.21743 -5.904,-0.75972 -7.09,-1.20507 -3.585,-1.34649 -14.166,-2.79846 -21.147,-2.90209 -5.69,-0.0845 -19.255,0.89263 -20.159,1.45207 -0.18,0.11123 -1.18,0.31221 -2.223,0.44661 -3.945,0.50828 -10.517,1.79206 -11.005,2.14946 -0.279,0.2046 -1.697,0.65724 -3.152,1.00588 -1.454,0.34863 -2.89,0.82861 -3.19,1.06662 -0.3,0.23801 -2.248,1.32513 -4.327,2.41583 -2.079,1.09071 -4.461,2.5467 -5.293,3.23555 -2.336,1.93486 -5.92,4.70199 -8.752,6.75735 -1.415,1.02661 -3.899,3.13207 -5.52,4.67878 -1.622,1.54672 -4.034,3.67226 -5.361,4.72342 -3.349,2.65276 -5.962,5.76599 -5.353,6.37609 0.15,0.15023 0.638,-0.0285 1.084,-0.3971 0.699,-0.57828 0.778,-0.57118 0.575,0.0517 -0.13,0.3971 -0.676,0.7873 -1.214,0.86712 -0.538,0.0798 -1.589,0.78376 -2.336,1.56432 -0.747,0.78056 -1.751,1.4192 -2.23,1.4192 -0.479,0 -0.872,0.32199 -0.872,0.71553 0,0.39355 -0.76,1.03356 -1.689,1.42226 -0.929,0.38869 -1.806,1.01126 -1.949,1.38349 -0.143,0.37222 -0.734,0.63906 -1.315,0.59298 -0.581,-0.0461 -1.392,0.0772 -1.803,0.27404 -0.936,0.44815 -2.135,-0.24435 -1.685,-0.97303 0.184,-0.29865 0.507,-0.43628 0.718,-0.30583 0.622,0.38469 1.778,-1.33368 1.688,-2.50778 -0.07,-0.88841 0.162,-1.08299 1.282,-1.08299 0.946,0 1.831,-0.51344 2.885,-1.67224 0.836,-0.91974 1.672,-1.57804 1.858,-1.46289 0.186,0.11514 0.816,-0.43796 1.401,-1.22912 0.584,-0.79116 1.267,-1.31137 1.518,-1.15602 0.251,0.15535 0.457,-0.0552 0.457,-0.46794 0,-0.41272 -0.271,-0.77189 -0.601,-0.79815 -1.915,-0.15217 -3.102,-0.35858 -3.852,-0.67026 -0.65,-0.27022 -0.778,-0.17191 -0.549,0.42375 0.163,0.42657 0.598,0.77558 0.967,0.77558 0.368,0 0.669,0.4332 0.669,0.96266 0,0.52947 -0.216,0.96266 -0.48,0.96266 -0.265,0 -0.481,-0.24312 -0.481,-0.54026 0,-0.37128 -0.188,-0.38781 -0.601,-0.0529 -0.331,0.26807 -1.142,0.44436 -1.803,0.39175 -0.775,-0.0617 -1.662,0.3844 -2.497,1.25619 -1.455,1.5186 -3.937,1.85845 -4.417,0.60485 -0.164,-0.42835 -0.08,-0.62155 0.189,-0.45293 0.261,0.16174 0.475,0.0879 0.475,-0.16417 0,-0.89625 -1.611,-1.08016 -2.369,-0.27045 -0.416,0.44412 -0.486,0.65589 -0.155,0.47061 0.36,-0.20177 0.601,-0.0552 0.601,0.36552 0,0.44501 0.881,0.91396 2.404,1.27974 2.236,0.53721 3.188,1.23435 1.803,1.32124 -2.815,0.17655 -3.076,0.31351 -2.85,1.49552 0.17,0.89299 0.06,1.09278 -0.446,0.82808 -0.369,-0.19188 -0.188,0.0779 0.401,0.59949 0.931,0.82305 0.979,1.0265 0.361,1.5396 -0.73,0.60689 -0.951,1.99825 -0.404,2.54603 0.384,0.38437 1.224,-0.0949 0.949,-0.54162 z m -0.419,-4.62557 c 0.148,-0.77404 0.457,-1.07929 0.915,-0.90318 0.583,0.22378 0.563,0.40933 -0.124,1.16919 -1.036,1.1467 -1.059,1.13888 -0.791,-0.26601 z m 4.932,-4.12543 c -0.541,-0.34988 -0.301,-0.46659 0.961,-0.46659 1.262,0 1.503,0.11671 0.962,0.46659 -0.397,0.25662 -0.83,0.46659 -0.962,0.46659 -0.132,0 -0.565,-0.20997 -0.961,-0.46659 z m 19.403,0.14804 c 0.546,-0.54644 2.319,-0.67953 1.992,-0.14949 -0.164,0.26553 -0.754,0.48278 -1.311,0.48278 -0.558,0 -0.864,-0.14998 -0.681,-0.33329 z m 2.712,-0.53776 c 0,-0.25847 0.343,-0.60156 0.762,-0.76243 0.468,-0.17989 0.688,-0.0723 0.571,0.27941 -0.24,0.71951 -1.333,1.11567 -1.333,0.48302 z m -19.231,-0.57294 c 0,-0.26473 0.217,-0.48133 0.481,-0.48133 0.265,0 0.481,0.2166 0.481,0.48133 0,0.26473 -0.216,0.48133 -0.481,0.48133 -0.264,0 -0.481,-0.2166 -0.481,-0.48133 z m 9.449,-1.08162 c 0.123,-0.1993 0.481,-0.36718 0.796,-0.37307 0.315,-0.006 1.114,-0.43427 1.775,-0.95196 0.661,-0.51769 1.688,-0.94607 2.283,-0.95195 0.595,-0.006 1.082,-0.2273 1.082,-0.49203 0,-0.26474 -0.216,-0.48133 -0.481,-0.48133 -0.264,0 -0.48,-0.2166 -0.48,-0.48133 0,-0.26473 0.324,-0.48133 0.721,-0.48133 0.396,0 0.721,0.28216 0.721,0.62702 0,0.48254 0.637,0.54736 2.764,0.28128 1.521,-0.19016 3.306,-0.35713 3.967,-0.37105 2.211,-0.0466 -0.208,1.22164 -2.951,1.54687 -1.358,0.16104 -2.819,0.59877 -3.245,0.97273 -0.427,0.37395 -1.316,0.86076 -1.977,1.08178 -1.51,0.50466 -5.275,0.56095 -4.975,0.0744 z m 12.667,0.17114 c 0,-0.29343 0.346,-0.53351 0.769,-0.53351 1.126,0 6.759,-3.76819 7.636,-5.10814 0.936,-1.43015 0.628,-1.44147 -3.838,-0.14111 -5.399,1.57239 -5.681,1.61723 -5.434,0.86508 0.121,-0.36838 1.277,-0.93506 2.569,-1.25929 1.292,-0.32423 2.682,-0.73588 3.088,-0.91478 0.406,-0.1789 1.282,-0.35217 1.945,-0.38503 1.632,-0.0808 3.15,-1.22361 3.566,-2.68332 0.188,-0.66182 0.87,-2.20988 1.514,-3.44013 0.645,-1.23024 1.136,-2.63813 1.093,-3.12864 -0.145,-1.62775 0.07,-2.57648 0.575,-2.57648 0.276,0 0.438,0.35657 0.36,0.79239 -0.215,1.20865 0.769,1.27526 1.307,0.0885 0.261,-0.57643 0.8,-1.11264 1.196,-1.19158 2.498,-0.49703 2.642,-0.43756 2.795,1.15303 0.09,0.8787 -0.07,1.56432 -0.36,1.56432 -0.281,0 -0.512,-0.2166 -0.512,-0.48133 0,-0.97479 -1.421,-0.43594 -3.146,1.19236 -1.048,0.98913 -1.664,1.95719 -1.507,2.36682 0.146,0.38121 -0.05,0.81255 -0.425,0.95851 -0.38,0.14597 -0.691,0.66207 -0.691,1.14689 0,0.48483 -0.259,1.14142 -0.577,1.4591 -0.434,0.43461 -0.44,0.71434 -0.03,1.13 0.415,0.41566 0.231,0.87445 -0.745,1.85329 -2.207,2.21311 -3.461,3.7278 -3.461,4.17987 0,0.51403 -4.481,2.83667 -6.37,3.30138 -0.842,0.20733 -1.322,0.13181 -1.322,-0.20818 z m -5.289,-5.31839 c 0,-0.24911 0.214,-0.58526 0.476,-0.747 0.272,-0.16863 0.353,0.0246 0.189,0.45293 -0.32,0.83386 -0.665,0.98643 -0.665,0.29407 z m 1.75,-1.23173 c 0.152,-0.3971 0.496,-0.722 0.765,-0.722 0.281,0 0.234,0.30584 -0.111,0.722 -0.329,0.39709 -0.673,0.72199 -0.765,0.72199 -0.09,0 -0.04,-0.3249 0.111,-0.72199 z m 21.494,-0.84148 c -0.151,-0.24515 -0.09,-0.61225 0.14,-0.81578 0.522,-0.46547 8.254,-1.48909 13.611,-1.80197 3.454,-0.20171 4.152,-0.114 4.663,0.58638 0.892,1.22084 2.442,0.6075 5.281,-2.08985 2.281,-2.16732 2.778,-2.40524 6.611,-3.16738 4.202,-0.83546 9.293,-2.98601 11.199,-4.73117 0.576,-0.52663 1.264,-0.82297 1.53,-0.65855 0.265,0.16441 0.59,0.12593 0.72,-0.0855 0.286,-0.46263 8.122,0.0883 9.002,0.63288 1.084,0.67104 -1.041,1.06865 -3.152,0.58975 -2.668,-0.60518 -5.717,-0.0624 -9.27,1.65059 -3.063,1.47687 -4.089,2.30884 -2.848,2.30884 0.38,0 0.941,0.30135 1.246,0.66967 0.916,1.10524 4.386,1.35391 7.765,0.55654 3.875,-0.91438 4.298,-0.91663 4.298,-0.0229 0,0.46796 -0.508,0.74317 -1.442,0.78216 -2.031,0.0847 -2.278,0.13453 -2.685,0.5415 -0.662,0.66255 -7.108,0.38809 -8.548,-0.36396 -2.318,-1.21013 -5.811,-0.91464 -9.141,0.77328 -1.619,0.82077 -3.187,1.6909 -3.484,1.93362 -0.297,0.24272 -0.875,0.31285 -1.283,0.15584 -0.462,-0.17723 -1.293,0.29023 -2.193,1.23283 l -1.449,1.5183 -1.734,-0.82402 c -1.471,-0.69853 -2.563,-0.77297 -7.171,-0.48885 -2.99,0.18435 -6.776,0.61155 -8.414,0.94933 -1.785,0.36827 -3.087,0.4357 -3.252,0.16844 z m -4.493,-1.53983 c 0,-0.34621 0.324,-0.8991 0.721,-1.22867 0.397,-0.32956 0.721,-0.42106 0.721,-0.20333 0,0.21773 0.26,0.13595 0.577,-0.18173 0.317,-0.31768 0.956,-0.57759 1.418,-0.57759 0.463,0 1.015,-0.28244 1.226,-0.62764 0.625,-1.02012 5.728,-3.1265 8.199,-3.38441 0.861,-0.0898 1.708,-0.30682 1.883,-0.48226 0.176,-0.17544 0.689,-0.31899 1.142,-0.31899 0.452,0 1.089,-0.32251 1.416,-0.71669 0.327,-0.39418 0.796,-0.59214 1.042,-0.43989 0.246,0.15224 0.783,-0.002 1.194,-0.34387 0.411,-0.34136 1.203,-0.69038 1.761,-0.77559 0.558,-0.0852 2.745,-1.01584 4.86,-2.06808 2.115,-1.05224 4.126,-1.91316 4.468,-1.91316 1.025,0 0.703,0.82932 -0.439,1.12809 -0.583,0.15275 -0.932,0.40641 -0.775,0.56371 0.484,0.48458 14.125,-2.87186 15.189,-3.73746 0.337,-0.27399 0.735,-0.37631 0.883,-0.22737 0.834,0.8346 -3.97,2.48133 -12.853,4.40564 -2.016,0.43674 -4.829,1.23643 -6.25,1.77709 -1.422,0.54067 -4.716,1.72505 -7.321,2.63195 -6.466,2.25145 -10.675,3.89451 -13.545,5.28703 -3.489,1.69299 -5.517,2.21984 -5.517,1.43322 z m 28.846,-11.32148 c 0,-0.25642 -0.324,-0.34154 -0.721,-0.18916 -0.397,0.15238 -0.721,0.36218 -0.721,0.46622 0,0.10404 0.324,0.18917 0.721,0.18917 0.397,0 0.721,-0.2098 0.721,-0.46623 z m -19.712,10.09281 c 0,-0.26473 0.446,-0.48132 0.99,-0.48132 0.545,0 0.857,0.21659 0.693,0.48132 -0.163,0.26474 -0.609,0.48133 -0.99,0.48133 -0.381,0 -0.693,-0.21659 -0.693,-0.48133 z m 16.529,-2.62426 c -0.279,-0.72925 0.115,-1.7077 0.688,-1.7077 0.182,0 0.332,0.5415 0.332,1.20332 0,1.31766 -0.595,1.61196 -1.02,0.50438 z m 31.22,-1.91984 c 1.476,-1.11979 12.118,-2.61799 13.649,-1.92145 0.59,0.26854 -0.276,0.50731 -2.743,0.75586 -1.983,0.19983 -4.147,0.48012 -4.808,0.62286 -0.661,0.14275 -2.175,0.46986 -3.365,0.72691 -3.139,0.67813 -3.809,0.63297 -2.733,-0.18418 z m -43.422,-4.37009 c 0,-0.63509 1.772,-2.15638 2.511,-2.15638 0.47,0 0.855,-0.2166 0.855,-0.48133 0,-0.26473 0.26,-0.48133 0.578,-0.48133 0.318,0 1.237,-0.62902 2.043,-1.39782 1.796,-1.7128 6.014,-3.26201 6.544,-2.40325 0.27,0.43706 1.078,0.39541 3.407,-0.17553 1.679,-0.41172 4.027,-0.89253 5.217,-1.06847 1.189,-0.17593 2.542,-0.42695 3.004,-0.55782 0.463,-0.13086 0.842,-0.0268 0.842,0.23134 0,0.2581 -2.11,0.84019 -4.688,1.29354 -7.058,1.2411 -13.509,3.54615 -15.189,5.42716 -0.488,0.54592 -1.194,0.87465 -1.569,0.73052 -0.375,-0.14413 -0.95,-0.0548 -1.277,0.19841 -0.737,0.57015 -2.278,1.13915 -2.278,0.84096 z m 44.713,-0.21373 c 0,-0.29088 0.378,-0.64619 0.841,-0.78957 0.463,-0.14338 1.217,-0.46148 1.676,-0.70689 0.459,-0.2454 1.162,-0.44619 1.563,-0.44619 0.4,0 0.727,-0.18953 0.727,-0.42116 0,-0.52651 2.261,-1.02351 6.01,-1.3209 1.587,-0.12588 4.06,-0.4352 5.497,-0.68739 3.242,-0.56898 3.878,-0.57334 3.878,-0.0266 0,0.47596 -5.196,1.4934 -7.627,1.4934 -0.846,0 -2.883,0.43167 -4.528,0.95927 -3.212,1.03073 -5.235,1.65878 -6.956,2.15992 -0.656,0.19112 -1.081,0.10702 -1.081,-0.21388 z m -57.929,-0.98784 c 0.166,-0.26905 0.503,-0.36457 0.749,-0.21226 0.667,0.41261 0.543,0.70144 -0.301,0.70144 -0.413,0 -0.614,-0.22013 -0.448,-0.48918 z m 27.399,-7.21209 c 0.164,-0.26474 0.771,-0.46611 1.351,-0.4475 1.015,0.0326 1.019,0.0487 0.09,0.4475 -1.324,0.5693 -1.794,0.5693 -1.443,0 z m 2.645,-0.48133 c 0,-0.26473 0.486,-0.47802 1.081,-0.47396 0.875,0.006 0.944,0.0966 0.361,0.47396 -0.932,0.60306 -1.442,0.60306 -1.442,0 z m -59.653,38.86735 c 0.51,-0.48177 0.683,-0.47777 0.864,0.0201 0.173,0.47283 0.387,0.48955 0.892,0.0698 0.485,-0.40278 0.533,-0.79709 0.179,-1.4589 -0.507,-0.94806 -1.234,-0.95394 -3.492,-0.0282 -0.745,0.30519 -1.651,0.5549 -2.015,0.5549 -1.029,0 -1.311,0.86358 -0.364,1.11106 1.667,0.43521 3.31,0.32303 3.936,-0.26873 z m -28.182,-1.63243 c -0.162,-0.42346 0.107,-0.65389 0.763,-0.65389 0.557,0 1.013,-0.29782 1.013,-0.66183 0,-0.38506 -0.503,-0.66182 -1.202,-0.66182 -0.862,0 -1.202,0.25971 -1.202,0.9176 0,1.30546 -1.351,1.66902 -2.18,0.58676 -0.653,-0.85172 -0.681,-0.83475 -0.494,0.30062 0.109,0.66183 0.215,1.3455 0.234,1.51927 0.02,0.17377 0.775,0.089 1.678,-0.18843 1.07,-0.32882 1.554,-0.73199 1.39,-1.15828 z m 38.635,0.57061 c 0,-0.38545 -0.18,-0.58927 -0.4,-0.45292 -0.221,0.13634 -0.401,0.45171 -0.401,0.70082 0,0.2491 0.18,0.45292 0.401,0.45292 0.22,0 0.4,-0.31537 0.4,-0.70082 z m 22.036,0.21949 c 0.163,-0.26473 0.07,-0.48133 -0.212,-0.48133 -0.28,0 -0.509,0.2166 -0.509,0.48133 0,0.26473 0.1,0.48133 0.212,0.48133 0.116,0 0.345,-0.2166 0.509,-0.48133 z m -26.363,-1.72536 c 0,-0.7033 -1.565,-0.91155 -2.925,-0.38913 -1.02,0.39188 -0.968,1.51704 0.08,1.74724 1.173,0.25748 2.844,-0.54056 2.844,-1.35811 z m 2.949,1.14776 c 0.785,-0.7861 0.725,-1.34772 -0.144,-1.34772 -0.397,0 -0.721,0.0906 -0.721,0.2013 0,0.11071 -0.132,0.54391 -0.292,0.96266 -0.345,0.8983 0.335,1.00628 1.157,0.18376 z m -25.626,-0.38325 c 0.391,-0.63478 0.765,-2.61259 0.43,-2.27691 -0.144,0.14399 -0.872,0.0864 -1.619,-0.12797 -0.849,-0.24386 -1.552,-0.19436 -1.879,0.13223 -0.822,0.82341 -1.151,0.0641 -0.455,-1.05159 0.347,-0.55524 1.011,-1.00953 1.476,-1.00953 0.465,0 0.846,-0.2166 0.846,-0.48133 0,-0.26473 0.324,-0.48133 0.721,-0.48133 0.397,0 0.721,0.22938 0.721,0.50973 0,0.28036 -0.25,0.35519 -0.555,0.1663 -0.344,-0.21279 -0.425,-0.13204 -0.212,0.21226 0.476,0.77116 1.729,0.69805 1.729,-0.10091 0,-0.54744 -3.356,-2.23137 -4.447,-2.23137 -0.431,0 -1.339,1.72202 -1.587,3.01236 -0.231,1.20348 1.016,2.76359 2.211,2.76359 0.459,0 0.96,0.3249 1.112,0.722 0.317,0.82627 1.072,0.94779 1.508,0.24247 z m -31.557,-2.72996 c -0.605,-0.73003 -1.856,-0.86427 -1.856,-0.19919 0,0.24308 -0.124,0.76563 -0.276,1.16122 -0.38,0.99148 1.316,1.31967 2.071,0.40075 0.436,-0.53081 0.452,-0.89117 0.06,-1.36278 z m 2.506,1.56768 c -0.385,-0.46427 -0.403,-0.77783 -0.06,-0.99107 0.278,-0.17155 0.505,-0.86771 0.505,-1.547 0,-1.11561 0.139,-1.20715 1.442,-0.94629 0.814,0.16291 1.442,0.0842 1.442,-0.1805 0,-0.87351 1.05,-0.47602 1.303,0.49337 0.273,1.04599 0.866,1.25175 1.349,0.46856 0.168,-0.27175 0.559,-0.46269 0.87,-0.4243 1.544,0.19079 1.754,-0.0277 1.198,-1.24759 -0.301,-0.66182 -0.84,-1.20332 -1.198,-1.20332 -0.357,0 -1.108,-0.27075 -1.668,-0.60166 -0.781,-0.46156 -1.066,-0.46786 -1.226,-0.027 -0.115,0.31604 -0.503,0.46169 -0.862,0.32366 -0.36,-0.13802 -0.894,0.19904 -1.188,0.74904 -0.685,1.28129 -1.626,1.31002 -1.222,0.0373 0.238,-0.75076 0.09,-0.96266 -0.689,-0.96266 -0.546,0 -0.994,-0.2166 -0.994,-0.48133 0,-0.26473 -0.361,-0.48133 -0.803,-0.48133 -0.442,0 -1.199,-0.35847 -1.683,-0.79659 -0.79,-0.71558 -0.965,-0.72197 -1.721,-0.0628 -0.462,0.40358 -1.078,0.64675 -1.368,0.54038 -0.308,-0.11271 -0.546,0.44303 -0.571,1.33208 -0.05,1.8896 -0.903,2.90918 -1.559,1.87089 -0.346,-0.54742 -0.455,-0.38955 -0.461,0.66463 0,1.12777 0.117,1.28 0.663,0.82595 0.368,-0.30616 1.357,-0.64374 2.197,-0.75018 0.841,-0.10645 1.82,-0.43662 2.178,-0.73372 0.511,-0.42444 0.684,-0.30212 0.807,0.57091 0.219,1.54395 1.087,1.39332 1.272,-0.22073 0.08,-0.73249 0.355,-1.20683 0.602,-1.05408 0.252,0.15581 0.314,1.42721 0.141,2.89614 -0.292,2.48874 -0.253,2.6184 0.78,2.6184 0.881,0 0.98,-0.12857 0.523,-0.67914 z m -5.644,-5.79763 c 0,-0.38545 0.18,-0.58927 0.4,-0.45292 0.221,0.13634 0.401,0.45171 0.401,0.70082 0,0.2491 -0.18,0.45292 -0.401,0.45292 -0.22,0 -0.4,-0.31537 -0.4,-0.70082 z m 1.114,-0.006 c -0.149,-0.38862 -0.06,-0.8346 0.189,-0.99107 0.253,-0.15646 0.46,0.1615 0.46,0.70658 0,1.1622 -0.268,1.27945 -0.649,0.28449 z m 62.161,4.76264 c 1.711,-0.1907 2.431,-0.10124 2.431,0.30208 0,0.44202 0.158,0.44147 0.692,-0.002 0.381,-0.3165 0.574,-0.88452 0.43,-1.26226 -0.303,-0.7899 -1.881,-0.92379 -2.329,-0.19762 -0.166,0.26905 -0.492,0.37143 -0.725,0.22751 -0.58,-0.35889 -4.744,0.72932 -5.119,1.33802 -0.195,0.31475 0.145,0.37931 0.943,0.17899 0.686,-0.17234 2.34,-0.43527 3.677,-0.58429 z m 53.585,0.19701 c -0.123,-0.19822 -0.541,-0.23838 -0.929,-0.0892 -0.978,0.37603 -0.881,0.60291 0.223,0.51964 0.51,-0.0385 0.828,-0.23218 0.706,-0.43039 z m 2.212,0.0789 c 0.396,-0.25662 0.505,-0.46658 0.24,-0.46658 -0.264,0 -0.805,0.20996 -1.202,0.46658 -0.396,0.25663 -0.505,0.46659 -0.24,0.46659 0.264,0 0.805,-0.20996 1.202,-0.46659 z m -99.298,-2.71976 c -1.289,-0.9436 -1.988,-0.0574 -1.244,1.5772 l 0.587,1.29019 0.775,-1.10712 c 0.72,-1.03 0.712,-1.15262 -0.118,-1.76027 z m 6.706,0.73598 c 0.411,-0.82635 0.632,-1.69058 0.49,-1.92052 -0.312,-0.50501 -1.588,0.57664 -1.483,1.25699 0.04,0.26473 -0.251,0.39963 -0.647,0.29978 -0.397,-0.0999 -1.02,-0.19011 -1.386,-0.20056 -0.503,-0.0144 -0.474,-0.15883 0.12,-0.5935 0.962,-0.70388 1.009,-1.19037 0.115,-1.19037 -0.368,0 -0.794,0.3249 -0.946,0.72199 -0.152,0.3971 -0.608,0.722 -1.013,0.722 -1.197,0 -0.839,0.83072 0.466,1.08046 0.661,0.12652 1.201,0.017 1.201,-0.24349 0,-0.26043 0.323,-0.20585 0.716,0.12129 0.394,0.32714 0.598,0.78686 0.453,1.02159 -0.145,0.23474 0.06,0.42679 0.451,0.42679 0.392,0 1.051,-0.6761 1.463,-1.50245 z m 96.724,0.45706 c 0.504,-0.57497 0.624,-0.87373 0.267,-0.66391 -0.527,0.30968 -0.545,0.18681 -0.1,-0.65274 0.32,-0.59934 0.795,-0.89491 1.13,-0.70291 0.317,0.18222 0.412,0.15021 0.211,-0.0711 -0.2,-0.22135 0.124,-0.93527 0.722,-1.58648 l 1.086,-1.18403 -1.202,0.64764 c -0.661,0.3562 -1.494,0.58771 -1.851,0.51446 -0.357,-0.0732 -0.515,0.0846 -0.351,0.35076 0.164,0.26617 -0.08,0.69595 -0.542,0.95506 -0.483,0.27058 -0.873,1.1027 -0.915,1.9549 -0.09,1.75273 0.294,1.86154 1.541,0.43839 z m -35.863,-2.05484 c 0,-0.11674 -0.217,-0.34612 -0.481,-0.50974 -0.265,-0.16361 -0.481,-0.0681 -0.481,0.21226 0,0.28036 0.216,0.50974 0.481,0.50974 0.264,0 0.481,-0.0955 0.481,-0.21226 z m -69.952,-1.23303 c 0.196,-0.31894 0.628,-0.30571 1.271,0.039 0.536,0.28689 1.016,0.44993 1.068,0.36229 0.05,-0.0876 0.413,-0.57995 0.801,-1.09405 0.502,-0.66567 0.523,-0.82495 0.07,-0.55336 -0.407,0.24518 -0.601,0.14926 -0.544,-0.2686 0.198,-1.44214 -0.02,-1.97374 -0.626,-1.51821 -0.77,0.58066 -2.968,0.0912 -3.125,-0.69607 -0.07,-0.33092 0.04,-0.57602 0.24,-0.54467 1.137,0.17964 1.622,-0.17858 1.544,-1.13999 -0.145,-1.79228 0,-2.35887 0.5,-2.04565 0.264,0.16362 0.48,-0.053 0.48,-0.48133 0,-0.42834 -0.193,-0.65897 -0.43,-0.5125 -0.237,0.14647 -0.56,-0.0711 -0.718,-0.48343 -0.464,-1.21135 -1.255,-0.28699 -1.255,1.46666 0,1.31362 -0.551,2.85331 -1.792,5.01282 -0.06,0.10391 -0.492,-0.10896 -0.961,-0.47303 -0.719,-0.55748 -0.709,-0.49233 0.06,0.41274 1.017,1.19367 2.002,1.39007 2.371,0.47303 0.175,-0.43383 0.253,-0.44175 0.281,-0.0284 0.02,0.31529 -0.169,0.70128 -0.422,0.85774 -0.521,0.3225 -0.13,1.69765 0.483,1.69765 0.22,0 0.535,-0.21718 0.699,-0.48263 z m 11.912,-0.49971 c -0.295,-1.12782 -1.261,-1.01128 -1.492,0.1799 -0.103,0.53122 0.167,0.80244 0.797,0.80244 0.721,0 0.889,-0.23774 0.695,-0.98234 z m -3.917,-1.1076 c -0.295,-0.35527 -0.394,-0.78847 -0.22,-0.96266 0.174,-0.17419 0.04,-0.31671 -0.303,-0.31671 -0.494,0 -0.499,-0.14502 -0.03,-0.71669 0.327,-0.39418 0.796,-0.59213 1.042,-0.43989 0.246,0.15224 0.777,0.003 1.18,-0.33193 0.643,-0.53409 0.597,-0.68155 -0.376,-1.20254 -1.265,-0.67779 -1.916,-0.47079 -1.547,0.4918 0.139,0.36184 0.02,0.80088 -0.261,0.97565 -0.283,0.17477 -0.514,0.13447 -0.514,-0.0896 0,-0.22402 -0.433,-0.43994 -0.962,-0.47982 -1.424,-0.10741 -1.241,1.68582 0.241,2.36188 0.661,0.30155 1.202,0.7301 1.202,0.95234 0,0.22224 0.243,0.40407 0.539,0.40407 0.397,0 0.398,-0.17082 0,-0.64595 z m 4.727,-1.77171 c -0.95,-0.58731 -1.468,0.43673 -0.78,1.54101 0.535,0.85857 0.575,0.85405 1.007,-0.11369 0.327,-0.73071 0.264,-1.12317 -0.227,-1.42732 z m 2.672,1.21434 c -0.235,0.73433 -0.174,0.8299 0.256,0.40293 0.31,-0.30784 0.424,-0.78573 0.253,-1.06197 -0.438,-0.71017 -1.721,-0.11201 -1.721,0.80253 0,0.62335 0.138,0.59199 0.76,-0.17183 0.75,-0.92134 0.756,-0.92094 0.452,0.0283 z m 59.555,-0.0402 c 0.179,-0.46878 0.07,-0.68883 -0.279,-0.57158 -0.719,0.23984 -1.115,1.33379 -0.483,1.33379 0.258,0 0.601,-0.34299 0.762,-0.76221 z m -64.394,-1.19662 c -0.282,-0.45719 -1.662,-0.0536 -1.662,0.48612 0,0.19228 0.142,0.49213 0.316,0.66632 0.425,0.42472 1.664,-0.63694 1.346,-1.15244 z m 12.739,-0.97051 c -0.523,-0.97929 -1.77,-1.52272 -2.135,-0.9309 -0.333,0.53879 -2.17,0.43186 -2.17,-0.1263 0,-0.63352 -2.061,-0.1854 -2.286,0.4969 -0.109,0.33092 0.145,0.60166 0.564,0.60166 0.418,0 0.761,0.16949 0.761,0.37664 0,0.20715 1.282,0.37965 2.849,0.38333 2.52,0.006 2.799,-0.0868 2.417,-0.80133 z m -7.931,0.0746 c 0.152,-0.24643 0.04,-0.59324 -0.245,-0.77068 -0.286,-0.17743 -0.401,-0.63685 -0.253,-1.02091 0.149,-0.38996 0.06,-0.56846 -0.208,-0.40424 -0.606,0.37472 -0.625,2.6439 -0.02,2.6439 0.249,0 0.577,-0.20163 0.729,-0.44807 z m 9.003,-1.41247 c -0.348,-0.22099 -0.693,-0.81332 -0.767,-1.31628 -0.172,-1.17624 -2.303,-1.26705 -2.473,-0.10543 -0.07,0.44498 0.182,0.92453 0.549,1.06567 0.368,0.14114 0.645,0.10197 0.617,-0.0871 -0.159,-1.07111 0.152,-1.15186 0.811,-0.21011 0.412,0.58837 1.007,1.06644 1.322,1.06239 0.399,-0.005 0.381,-0.12997 -0.06,-0.40919 z m 2.797,0.23483 c 0,-0.1 -0.325,-0.45137 -0.722,-0.78093 -0.59,-0.49075 -0.721,-0.45786 -0.721,0.18173 0,0.42951 0.325,0.78093 0.721,0.78093 0.397,0 0.722,-0.0818 0.722,-0.18173 z m -16.347,-1.50351 c 0,-0.35846 -0.506,-0.59032 -1.201,-0.55016 -1.291,0.0746 -1.701,0.79141 -0.453,0.79141 0.412,0 0.617,0.21412 0.456,0.47581 -0.169,0.27285 0.02,0.35354 0.452,0.18917 0.41,-0.15765 0.746,-0.56546 0.746,-0.90623 z m 2.135,0.67529 c -0.125,-0.2025 0.154,-0.65374 0.622,-1.00277 0.467,-0.34903 0.849,-0.94144 0.849,-1.31648 0,-0.37503 0.303,-0.78308 0.674,-0.90677 0.489,-0.16333 0.598,0.0637 0.398,0.82973 -0.238,0.91145 -0.173,0.97 0.475,0.4313 0.413,-0.34282 1.305,-0.55051 1.983,-0.46153 1.082,0.1419 1.155,0.0672 0.596,-0.60752 -0.351,-0.42312 -1.021,-0.76931 -1.489,-0.76931 -0.468,0 -0.976,-0.3249 -1.128,-0.72199 -0.17,-0.44315 0,-0.722 0.441,-0.722 0.395,0 0.943,-0.59564 1.218,-1.32365 0.274,-0.72801 1.08,-1.93353 1.791,-2.67892 0.71,-0.74539 1.237,-1.50349 1.171,-1.68465 -0.07,-0.18117 0.15,-0.32939 0.481,-0.32939 1.05,0 0.646,-1.43757 -0.449,-1.59353 -0.971,-0.13841 -2.385,1.36374 -1.818,1.93135 0.123,0.12305 -0.101,0.22373 -0.498,0.22373 -0.396,0 -0.721,-0.15733 -0.721,-0.34961 0,-0.96991 -1.705,-0.8993 -2.459,0.10185 -0.694,0.92162 -0.93,0.98797 -1.582,0.44587 -0.63,-0.52364 -0.901,-0.5254 -1.521,-0.01 -0.415,0.34484 -0.652,1.02094 -0.526,1.50245 0.301,1.15476 -0.378,1.53477 -1.128,0.63046 -0.85,-1.0258 -1.594,-0.8843 -1.298,0.2471 0.155,0.59573 -0.05,1.14159 -0.545,1.42935 -0.73,0.42654 -0.726,0.46679 0.04,0.4802 0.462,0.008 0.841,0.23864 0.841,0.51243 0,0.53244 -2.141,0.40687 -2.706,-0.15871 -0.504,-0.50409 -2.102,-0.41036 -2.102,0.12327 0,0.25429 0.292,0.73524 0.649,1.06878 0.356,0.33353 0.547,0.99186 0.424,1.46296 -0.146,0.56032 0.05,0.85654 0.554,0.85654 0.739,0 0.976,-0.51148 0.821,-1.76869 -0.121,-0.98605 0.971,-1.25928 1.22,-0.30516 0.261,0.99765 2.777,1.48197 3.3,0.6351 0.165,-0.26769 -0.145,-0.48657 -0.689,-0.48657 -0.545,0 -0.99,-0.2166 -0.99,-0.48133 0,-0.26473 0.252,-0.48133 0.561,-0.48133 0.308,0 0.424,-0.13677 0.257,-0.30395 -0.492,-0.49244 0.622,-2.1605 1.203,-1.80114 0.324,0.20034 0.395,0.10769 0.182,-0.23748 -0.244,-0.39473 0.101,-0.53163 1.139,-0.45241 0.986,0.0752 1.409,0.32262 1.252,0.73229 -0.13,0.34029 0.08,0.61871 0.469,0.61871 0.904,0 0.918,0.77823 0.02,1.12321 -0.798,0.30656 -1.879,-0.78391 -1.353,-1.365 0.196,-0.21664 0.08,-0.23157 -0.268,-0.0332 -0.441,0.25498 -0.478,0.53744 -0.124,0.96379 0.275,0.3317 0.357,0.74561 0.183,0.9198 -0.174,0.17419 0.14,0.31671 0.697,0.31671 0.557,0 1.147,0.2166 1.311,0.48133 0.163,0.26473 0,0.48133 -0.346,0.48133 -0.816,0 -2.299,1.71077 -2.299,2.65282 0,0.39407 -0.337,0.71649 -0.749,0.71649 -0.412,0 -0.638,0.1805 -0.502,0.40111 0.136,0.2206 0.572,0.4011 0.969,0.4011 0.396,0 0.619,-0.16567 0.494,-0.36817 z m 3.154,-9.04183 c 0,-0.23386 0.432,-0.53848 0.961,-0.67694 1.136,-0.29725 1.305,0.38587 0.201,0.80997 -1.009,0.38773 -1.162,0.37018 -1.162,-0.13303 z m 12.448,8.28636 c -0.573,-0.70715 -0.572,-0.76739 0,-0.41859 0.469,0.28307 0.566,0.23006 0.317,-0.17368 -0.198,-0.31961 -0.61,-0.49747 -0.916,-0.39525 -0.805,0.26875 -0.703,1.4979 0.154,1.85019 1.044,0.4291 1.215,0.094 0.439,-0.86267 z m 5.366,0.23676 c -0.619,-0.22949 -1.582,-0.27227 -2.139,-0.0951 -0.972,0.30946 -0.975,0.33507 -0.08,0.64886 0.511,0.17968 1.473,0.22246 2.139,0.0951 l 1.21,-0.23161 z m -29.834,-1.11866 c -0.463,-0.55876 -0.469,-0.87763 -0.03,-1.41042 0.829,-1.00008 -1.021,-1.96303 -2.377,-1.23689 -1.185,0.63497 -1.265,1.53732 -0.12,1.34476 0.551,-0.0926 0.819,0.14782 0.776,0.69571 -0.04,0.46043 0.08,0.74547 0.263,0.63342 0.181,-0.11205 0.644,-0.005 1.028,0.23848 1.005,0.63669 1.14,0.55843 0.457,-0.26506 z m 34.433,-2.43266 c 1.82,-1.69696 3.687,-3.21215 4.15,-3.3671 0.462,-0.15495 0.841,-0.48373 0.841,-0.73062 0,-0.24689 0.337,-0.44889 0.748,-0.44889 0.412,0 1.365,-0.67538 2.118,-1.50085 0.753,-0.82547 1.608,-1.35324 1.899,-1.17282 0.292,0.18042 0.65,0.0167 0.795,-0.36388 0.146,-0.38056 0.997,-1.0862 1.891,-1.5681 0.894,-0.4819 1.517,-1.05066 1.385,-1.26391 -0.131,-0.21325 0.1,-0.38772 0.507,-0.38772 0.409,0 1.774,-0.7567 3.033,-1.68156 1.258,-0.92485 3.159,-2.32105 4.224,-3.10266 1.065,-0.78161 2.363,-1.57634 2.885,-1.76607 0.521,-0.18974 1.596,-0.79708 2.388,-1.34964 3.296,-2.29862 7.236,-3.97934 10.339,-4.40947 0.925,-0.12831 2.223,-0.35624 2.885,-0.50653 0.661,-0.15028 3.149,-0.5912 5.528,-0.97982 2.38,-0.38861 4.76,-0.78067 5.289,-0.87122 4.788,-0.81996 11.81,-1.42368 19.351,-1.66379 0.626,-0.0199 1.082,-0.3388 1.082,-0.75644 0,-0.40111 0.427,-0.72199 0.961,-0.72199 0.529,0 0.962,-0.2166 0.962,-0.48133 0,-0.26473 0.272,-0.48133 0.606,-0.48133 0.333,0 0.875,-0.4332 1.206,-0.96266 0.33,-0.52946 0.997,-0.96266 1.483,-0.96266 0.486,0 1.291,-0.45165 1.79,-1.00367 0.499,-0.55202 1.993,-1.79645 3.32,-2.76541 1.327,-0.96895 2.953,-2.32572 3.614,-3.01505 1.171,-1.22014 2.757,-2.11066 3.486,-1.95621 0.198,0.042 0.361,-0.24849 0.361,-0.64558 0,-0.40111 0.427,-0.722 0.961,-0.722 0.529,0 0.908,-0.27074 0.842,-0.60166 -0.07,-0.33839 0.458,-0.6683 1.201,-0.75396 0.728,-0.0838 1.323,-0.35452 1.323,-0.60167 0,-0.69043 -2.614,-0.533 -4.118,0.24801 -0.738,0.38354 -1.53,0.5815 -1.759,0.43989 -0.228,-0.14161 -0.728,0.002 -1.11,0.31915 -0.381,0.31713 -1.014,0.45338 -1.406,0.30276 -0.392,-0.15062 -1.706,0.16567 -2.919,0.70286 -1.213,0.5372 -4.194,1.48508 -6.625,2.10641 -2.431,0.62134 -4.776,1.27028 -5.212,1.44209 -0.436,0.17181 -0.936,0.081 -1.11,-0.20176 -0.175,-0.28278 -0.792,-0.49255 -1.371,-0.46616 -1.008,0.0459 -1.005,0.0617 0.09,0.36937 1.286,0.3609 0.885,0.86275 -1.506,1.8849 -1.295,0.55358 -1.588,0.34586 -1.379,-0.97859 0.08,-0.51519 -0.795,-0.44738 -1.125,0.0871 -0.152,0.24644 -0.05,0.5863 0.22,0.75525 0.78,0.48254 0.06,1.20333 -1.202,1.20333 -0.63,0 -1.281,0.22013 -1.447,0.48918 -0.166,0.26905 -0.488,0.37381 -0.716,0.23281 -0.228,-0.141 -0.55,-0.0362 -0.716,0.23281 -0.167,0.26905 -0.641,0.48918 -1.054,0.48918 -0.614,0 -0.642,-0.13258 -0.153,-0.72199 0.756,-0.91241 0.312,-0.90586 -2.878,0.0424 -1.741,0.51771 -2.364,0.89254 -1.929,1.1614 0.383,0.2368 1.085,0.10582 1.741,-0.32458 0.605,-0.39686 1.345,-0.57015 1.644,-0.38508 0.784,0.48506 0.112,0.90068 -3.146,1.9457 -1.586,0.50893 -2.992,1.04046 -3.125,1.18116 -0.19,0.20221 -5.207,1.92896 -6.25,2.15105 -1.105,0.23535 -3.442,1.22615 -8.102,3.43414 -3.002,1.42249 -5.634,2.58635 -5.849,2.58635 -0.216,0 -0.464,0.16245 -0.552,0.361 -0.202,0.4552 -3.139,1.87887 -4.728,2.29209 -0.661,0.1719 -2.119,0.72827 -3.24,1.23637 -1.121,0.50811 -2.29,0.92383 -2.599,0.92383 -0.308,0 -1.23,0.50904 -2.048,1.13119 -0.818,0.62215 -2.953,1.92128 -4.743,2.88695 -1.791,0.96567 -4.659,2.64338 -6.375,3.72824 -2.764,1.74748 -3.394,1.95349 -5.519,1.80602 -1.32,-0.0916 -2.396,-0.0582 -2.392,0.0742 0.02,0.51138 0.737,1.35422 1.195,1.39803 1.162,0.11106 0.365,1.24473 -0.842,1.19728 -0.868,-0.0341 -1.322,0.19176 -1.322,0.6578 0,0.44583 0.313,0.62125 0.842,0.47168 2.029,-0.57435 2.277,-0.56745 2.145,0.0596 -0.08,0.36066 0.249,0.96826 0.721,1.35021 0.796,0.64262 0.783,0.65771 -0.162,0.20207 -0.811,-0.39127 -1.197,-0.29786 -1.877,0.45477 -0.471,0.52095 -0.688,0.94717 -0.482,0.94717 0.205,0 0.115,0.31203 -0.201,0.69339 -0.317,0.38136 -0.914,0.56312 -1.329,0.40392 -0.659,-0.25345 -0.644,-0.36905 0.121,-0.92908 0.48,-0.35178 0.729,-0.78437 0.552,-0.96129 -0.177,-0.17693 -0.101,-0.58707 0.168,-0.91142 0.345,-0.41631 0.273,-0.67261 -0.245,-0.87151 -0.46,-0.17678 -0.733,-0.008 -0.733,0.45352 0,0.40442 -0.214,0.60297 -0.476,0.44123 -0.261,-0.16174 -0.364,-0.005 -0.229,0.34772 0.135,0.35298 -0.487,1.35335 -1.384,2.22303 l -1.629,1.58125 -1.627,-0.99291 c -0.895,-0.54611 -1.344,-0.99373 -0.997,-0.99472 0.346,-9.9e-4 0.486,-0.23316 0.312,-0.51594 -0.175,-0.28278 -0.629,-0.39473 -1.009,-0.24878 -0.379,0.14595 -0.813,-0.0559 -0.964,-0.44851 -0.15,-0.39264 -0.46,-0.71388 -0.688,-0.71388 -0.228,0 -0.28,0.34989 -0.116,0.77754 0.237,0.61852 0.09,0.7102 -0.738,0.44829 -0.57,-0.18109 -1.531,-0.3821 -2.136,-0.44669 -0.606,-0.0646 -1.376,-0.288 -1.713,-0.49649 -0.337,-0.20848 -0.735,-0.25668 -0.885,-0.10712 -0.149,0.14956 -0.675,0.0553 -1.169,-0.2094 -0.703,-0.37648 -0.899,-0.31418 -0.899,0.286 0,0.42204 0.226,0.62761 0.502,0.45683 0.276,-0.17078 0.781,-0.0785 1.122,0.20499 0.342,0.28353 1.412,0.61693 2.379,0.74089 0.967,0.12396 2.2,0.63732 2.74,1.1408 0.622,0.58063 1.416,0.83222 2.17,0.68791 1.442,-0.27602 2.778,0.71733 2.378,1.76785 -0.161,0.42087 0.475,0.0219 1.413,-0.88654 0.938,-0.90846 1.857,-1.4997 2.043,-1.31385 0.488,0.48946 0.549,2.24361 0.08,2.24361 -0.22,0 -0.401,-0.25992 -0.401,-0.5776 0,-0.42411 -0.142,-0.43526 -0.535,-0.0419 -0.691,0.69183 -0.271,1.35281 0.917,1.44237 0.549,0.0414 2.301,-1.2034 4.243,-3.01483 z m 10.039,-9.84124 c 0.164,-0.26473 0.393,-0.48133 0.509,-0.48133 0.117,0 0.212,0.2166 0.212,0.48133 0,0.26474 -0.229,0.48133 -0.509,0.48133 -0.28,0 -0.375,-0.21659 -0.212,-0.48133 z m 36.389,-16.72619 c 0.107,-0.56063 0.955,-1.03881 2.534,-1.42984 1.304,-0.32312 2.454,-0.50523 2.555,-0.40467 0.173,0.17345 -4.516,2.67683 -5.014,2.67683 -0.13,0 -0.163,-0.37904 -0.08,-0.84232 z m 7.602,-1.50539 c 0,-0.86046 1.709,-1.67033 4.799,-2.27398 0.392,-0.0765 0.789,-0.36892 0.882,-0.64972 0.09,-0.28079 0.378,-0.38224 0.631,-0.22544 0.254,0.15681 0.818,-0.004 1.253,-0.35799 0.565,-0.45858 0.689,-0.47047 0.432,-0.0414 -0.199,0.33091 -0.145,0.60166 0.119,0.60166 0.265,0 0.617,-0.22013 0.783,-0.48918 0.166,-0.26905 0.499,-0.36733 0.74,-0.21841 0.24,0.14893 0.886,0.0302 1.435,-0.26378 0.549,-0.294 2.307,-0.74562 3.907,-1.0036 1.6,-0.25797 4.178,-1.11043 5.729,-1.89435 3.744,-1.89175 4.474,-1.80768 1.58,0.18189 -3.191,2.19351 -5.309,3.10981 -7.867,3.40261 -2.386,0.27313 -5.485,1.10887 -9.811,2.64541 -3.021,1.07333 -4.612,1.27554 -4.612,0.58632 z m -66.663,29.56734 c 0.178,-0.46618 0.04,-0.60872 -0.43,-0.42983 -0.76,0.29215 -0.958,1.12731 -0.267,1.12731 0.236,0 0.55,-0.31387 0.697,-0.69748 z m -2.891,-1.42813 c 0.123,-0.32183 -0.295,-0.60359 -0.981,-0.66043 -1.363,-0.11292 -2.191,0.26257 -1.838,0.83381 0.368,0.59582 2.576,0.45999 2.819,-0.17338 z m -3.136,-1.4971 c -0.148,-0.14819 -0.417,0.11895 -0.597,0.59364 -0.261,0.68599 -0.206,0.74128 0.269,0.26945 0.328,-0.3265 0.476,-0.71489 0.328,-0.86309 z m 12.007,-3.1252 c 0.522,-0.83745 0.471,-0.95336 -0.423,-0.95336 -0.781,0 -0.936,-0.19542 -0.668,-0.84233 0.192,-0.46328 0.36,-1.11307 0.372,-1.44399 0.01,-0.33091 0.129,-0.49524 0.259,-0.36517 0.13,0.13007 0.508,0.0112 0.839,-0.26404 0.417,-0.34678 0.698,-0.34549 0.914,0.004 0.171,0.27759 -0.03,0.5047 -0.438,0.5047 -0.888,0 -1.006,0.79684 -0.16,1.07915 0.336,0.11219 0.539,0.85318 0.473,1.72476 -0.06,0.84043 0.103,1.52806 0.372,1.52806 0.269,0 0.488,-0.3249 0.488,-0.722 0,-0.40919 0.432,-0.72199 0.995,-0.72199 0.757,0 0.959,-0.25921 0.842,-1.08299 -0.08,-0.59565 -0.406,-1.08299 -0.715,-1.08299 -0.308,0 -0.716,-0.15566 -0.906,-0.34591 -0.19,-0.19024 0.06,-0.26825 0.561,-0.17335 1.073,0.20424 2.366,-0.94926 1.597,-1.42488 -0.699,-0.4325 -3.963,-0.77661 -7.662,-0.80782 -4.923,-0.0416 -5.289,0.0241 -5.281,0.94697 0,0.65617 0.1,0.698 0.42,0.18928 0.307,-0.48436 0.504,-0.50717 0.762,-0.0883 0.195,0.31592 -0.04,0.862 -0.541,1.2394 -0.511,0.38817 -0.636,0.68117 -0.293,0.68997 0.404,0.0104 0.334,0.32248 -0.219,0.96877 -0.811,0.94781 -0.823,0.9471 -2.039,-0.12033 -0.672,-0.59059 -1.068,-0.88287 -0.879,-0.64951 0.189,0.23336 0.141,0.80432 -0.108,1.26881 -0.395,0.73907 -0.238,0.83022 1.256,0.73 1.052,-0.0706 2.006,0.18136 2.485,0.65651 0.713,0.70732 0.752,0.70516 0.476,-0.0261 -0.311,-0.82303 1.276,-2.7251 1.669,-1.99997 0.116,0.21473 0.138,0.0655 0.05,-0.33157 -0.124,-0.55269 -0.01,-0.5284 0.481,0.10358 0.44,0.56615 0.798,0.66987 1.137,0.33006 0.584,-0.58466 2.241,0.8216 1.804,1.53048 -0.398,0.6446 0.196,1.40108 0.891,1.13421 0.328,-0.12592 0.863,-0.65796 1.191,-1.18231 z m -4.222,-2.43708 c 0,-0.17391 -0.486,-0.29026 -1.081,-0.25857 -0.667,0.0355 -1.082,-0.21943 -1.082,-0.66436 0,-0.52144 0.534,-0.72199 1.923,-0.72199 1.613,0 1.947,0.17003 2.073,1.05532 0.115,0.81136 -0.08,1.03805 -0.841,0.98057 -0.546,-0.0411 -0.992,-0.21706 -0.992,-0.39097 z m 63.222,-25.47073 c 0.164,-0.26473 -0.04,-0.48133 -0.452,-0.48133 -0.412,0 -0.75,0.2166 -0.75,0.48133 0,0.26473 0.204,0.48133 0.453,0.48133 0.249,0 0.586,-0.2166 0.749,-0.48133 z m 10.818,-4.41272 c 0,-0.50827 -0.04,-0.5058 -1.852,0.12784 -2.075,0.7242 -1.923,1.43268 0.169,0.78977 0.926,-0.28437 1.683,-0.6973 1.683,-0.91761 z m 28.365,-3.28855 c 0,-0.26473 -0.09,-0.48133 -0.212,-0.48133 -0.116,0 -0.345,0.2166 -0.509,0.48133 -0.163,0.26473 -0.07,0.48133 0.212,0.48133 0.28,0 0.509,-0.2166 0.509,-0.48133 z m 2.885,-1.44399 c 0.397,-0.25662 0.505,-0.46659 0.241,-0.46659 -0.265,0 -0.806,0.20997 -1.202,0.46659 -0.397,0.25663 -0.505,0.46659 -0.241,0.46659 0.265,0 0.805,-0.20996 1.202,-0.46659 z"
       id="path1" /></g></svg>
