<?xml version="1.0" encoding="UTF-8" standalone="no"?>
<!-- Created with Inkscape (http://www.inkscape.org/) -->

<svg
   width="231.38646"
   height="235.24007"
   viewBox="0 0 61.221 62.240601"
   version="1.1"
   id="svg1"
   xml:space="preserve"
   xmlns="http://www.w3.org/2000/svg"
   xmlns:svg="http://www.w3.org/2000/svg"><defs
     id="defs1" /><g
     id="g1679"
     transform="matrix(0.26458333,0,0,0.26458333,-4224.7591,-15.807963)"><path
       style="fill:#000000"
       d="m 16002.354,279.393 c 4.069,-4.11052 8.779,-8.81109 10.468,-10.44572 4.568,-4.42188 18.235,-18.29342 24.806,-25.17666 7.758,-8.12745 13.286,-13.57501 13.775,-13.57501 0.222,0 0.403,0.33186 0.403,0.73746 0,0.8382 -6.289,7.34312 -34.654,35.8432 -14.73,14.79957 -20.285,20.0904 -21.096,20.0904 -0.877,0 0.401,-1.51719 6.298,-7.47367 z m 11.705,6.96355 c -0.174,-0.28056 0.581,-1.36282 1.678,-2.40503 1.096,-1.04221 3.507,-3.78428 5.356,-6.09351 1.85,-2.30922 3.728,-4.63082 4.174,-5.15911 0.446,-0.52829 2.444,-2.90559 4.441,-5.28289 1.997,-2.3773 4.091,-4.86267 4.653,-5.52303 2.056,-2.41546 5.012,-6.09249 7.857,-9.77571 1.603,-2.07483 3.641,-4.56019 4.53,-5.52302 0.889,-0.96284 2.107,-2.39896 2.707,-3.1914 0.6,-0.79243 1.97,-2.42552 3.043,-3.62907 1.073,-1.20355 2.817,-3.24055 3.874,-4.52665 1.057,-1.2861 2.409,-2.87232 3.004,-3.52494 1.986,-2.17916 2.331,-2.06632 -7.089,-2.31613 -9.533,-0.2528 -9.857,-0.17464 -13.494,3.25482 -1.698,1.60149 -5.251,4.65943 -7.894,6.79542 -2.643,2.136 -6.861,5.63349 -9.372,7.7722 -2.511,2.13872 -5.779,4.8032 -7.262,5.92107 -1.483,1.11787 -3.894,3.05618 -5.357,4.30736 -1.463,1.25118 -3.378,2.81516 -4.254,3.47553 -0.877,0.66036 -3.333,2.72882 -5.458,4.59658 -2.125,1.86776 -5.456,4.65222 -7.403,6.1877 -1.946,1.53547 -4.542,3.73169 -5.767,4.88048 -1.226,1.14878 -2.357,2.09236 -2.514,2.09684 -0.157,0.004 -0.914,0.56327 -1.682,1.24177 -3.839,3.39165 -5.486,4.58373 -5.942,4.30208 -0.846,-0.52257 -0.558,-1.62997 0.58,-2.22887 0.595,-0.31299 1.19,-0.6988 1.322,-0.85736 0.132,-0.15857 0.587,-0.50442 1.01,-0.76857 0.867,-0.54095 11.467,-9.30924 19.159,-15.84868 2.797,-2.3773 6.161,-5.18165 7.477,-6.23189 1.316,-1.05023 4.168,-3.42753 6.338,-5.28289 2.17,-1.85536 5.279,-4.45397 6.908,-5.77469 4.087,-3.31313 8.976,-7.31527 11.735,-9.60527 1.273,-1.05658 3.957,-3.25606 5.964,-4.88774 2.008,-1.63168 4.245,-3.54988 4.972,-4.26267 l 1.321,-1.29599 v -8.4643 c 0,-4.65536 0.143,-17.70336 0.312,-28.99555 0.169,-11.29218 0.183,-20.53125 0.03,-20.53125 -0.151,0 -3.264,0.97254 -6.915,2.16119 -7.391,2.40567 -7.989,2.50995 -7.766,1.35485 0.111,-0.57752 2.064,-1.41 6.884,-2.93367 3.7,-1.17004 6.992,-2.34085 7.314,-2.60181 0.442,-0.35836 0.599,-5.48791 0.64,-20.95943 0.03,-11.26672 0.136,-32.80369 0.235,-47.859942 0.165,-25.143367 0.246,-27.388668 0.986,-27.542661 0.752,-0.156391 0.783,3.060384 0.459,47.852693 l -0.347,48.02035 4.729,-1.392 c 2.6,-0.76561 7.607,-2.29501 11.126,-3.39868 6.265,-1.96511 6.391,-2.03198 6.091,-3.22805 -0.169,-0.67176 -0.345,-1.40761 -0.39,-1.63522 -0.279,-1.38868 11.19,-4.85966 12.322,-3.72902 0.383,0.38244 0,1.0862 -1.401,2.56609 -2.641,2.79319 -5.153,6.09645 -5.843,7.68222 -0.776,1.783 -2.283,1.72713 -3.239,-0.12006 -0.41,-0.79244 -1.119,-1.4394 -1.574,-1.4377 -0.456,0.002 -3.749,0.93344 -7.317,2.07053 -3.569,1.1371 -8.272,2.59451 -10.452,3.23869 l -3.962,1.17124 -0.02,18.00987 c -0.01,9.90542 -0.104,23.04688 -0.202,29.20323 l -0.179,11.19337 1.248,0.47425 c 0.79,0.29991 26.174,0.56021 69.05,0.70806 70.514,0.24316 76.692,0.35391 76.692,1.37475 0,0.59366 -8.714,1.22436 -16.976,1.22879 -3.113,0.002 -3.273,0.0565 -3.166,1.08235 0.06,0.59433 -0.02,2.26924 -0.187,3.72204 -0.269,2.36624 -0.81,33.01942 -0.816,46.22533 0,4.37724 -0.118,5.16283 -0.759,5.16283 -0.684,0 -0.719,-2.19357 -0.361,-22.69244 0.442,-25.261 0.43,-32.90435 -0.05,-33.38295 -0.178,-0.17793 -2.475,-0.40988 -5.106,-0.51545 l -4.782,-0.19193 -0.03,2.57724 c -0.02,1.41748 -0.02,14.1936 0,28.39138 0.02,22.49613 -0.07,25.81415 -0.694,25.81415 -0.603,0 -0.714,-1.34328 -0.718,-8.76481 0,-4.82064 -0.05,-17.57162 -0.09,-28.33552 l -0.09,-19.57073 h -6.395 -6.394 v 28.33553 c 0,24.00503 -0.104,28.33553 -0.675,28.33553 -0.544,0 -0.677,-1.19151 -0.685,-6.12336 0,-3.36784 -0.04,-16.11883 -0.09,-28.33552 l -0.07,-22.21218 h -6.421 c -3.532,0 -6.53,0.17486 -6.662,0.38857 -0.132,0.2137 -0.289,8.80441 -0.349,19.09046 -0.164,28.34376 -0.434,37.19203 -1.137,37.19203 -0.452,0 -0.556,-1.90619 -0.439,-8.04441 0.08,-4.42443 0.195,-17.11113 0.246,-28.19267 l 0.09,-20.14826 -1.324,-0.35364 c -0.728,-0.1945 -8.592,-0.36227 -17.476,-0.37282 -12.245,-0.0145 -16.255,0.12361 -16.573,0.57098 -0.33,0.46529 -0.471,0.46314 -0.663,-0.0102 -0.171,-0.42234 -1.628,-0.60033 -4.912,-0.60033 h -4.668 l -1.013,3.00165 c -0.558,1.6509 -1.707,5.05477 -2.553,7.56414 -1.588,4.70554 -2.048,5.93838 -3.132,8.40461 -3.368,7.65713 -4.048,9.31443 -4.339,10.56579 -0.184,0.79243 -1.145,3.49391 -2.135,6.00328 -0.99,2.50938 -2.492,6.39951 -3.338,8.64474 -0.845,2.24523 -1.737,4.51448 -1.983,5.04276 -0.245,0.52829 -0.85,2.25724 -1.344,3.84211 -0.557,1.79063 -1.194,2.94037 -1.682,3.03686 -0.874,0.17267 -1.04,-0.88653 -0.346,-2.20292 0.702,-1.3318 2.467,-5.76639 4.156,-10.4392 0.859,-2.37731 2.131,-5.8352 2.827,-7.68421 0.696,-1.84902 1.709,-4.65856 2.252,-6.24342 1.395,-4.07134 4.165,-11.17724 5.242,-13.44737 1.163,-2.45065 3.807,-9.60487 4.309,-11.66 0.212,-0.86596 0.589,-1.83849 0.838,-2.16118 0.25,-0.3227 0.589,-0.96492 0.754,-1.42718 0.273,-0.76695 -0.151,-0.84011 -4.852,-0.8365 l -5.152,0.004 -1.143,2.03716 c -1.871,3.3326 -2.472,4.37006 -3.329,5.73989 -0.448,0.71577 -2.636,4.28173 -4.862,7.92434 -2.226,3.64261 -6.011,9.80436 -8.411,13.69277 -2.4,3.88841 -7.09,11.56062 -10.422,17.04934 -3.332,5.48873 -6.252,9.96413 -6.488,9.94535 -0.973,-0.0773 -0.656,-1.7699 0.647,-3.45298 0.764,-0.98767 2.024,-2.86378 2.8,-4.16913 0.775,-1.30535 1.895,-3.14236 2.488,-4.08224 0.592,-0.93987 1.241,-2.04458 1.441,-2.4549 0.436,-0.89206 5.322,-8.74759 7.752,-12.4612 2.123,-3.24498 2.806,-4.35318 3.258,-5.2829 0.193,-0.39621 1.012,-1.80625 1.821,-3.13341 0.81,-1.32716 1.728,-2.83999 2.04,-3.36184 1.392,-2.3211 5.315,-8.64474 6.497,-10.47033 0.713,-1.10265 1.652,-2.69726 2.086,-3.54358 0.435,-0.84632 1.094,-1.79128 1.467,-2.09992 1.544,-1.28057 0.737,-1.80585 -3.02,-1.96646 l -3.696,-0.15801 -1.23,1.83035 c -1.253,1.86324 -7.219,9.39105 -8.826,11.13675 -0.487,0.52829 -3.843,4.61905 -7.459,9.09058 -3.615,4.47153 -8.736,10.71323 -11.38,13.87045 -7.396,8.83364 -8.65,10.36618 -11.869,14.4995 -1.646,2.11316 -3.272,4.12911 -3.615,4.47988 -0.343,0.35078 -0.846,1.05317 -1.117,1.56086 -0.533,0.99483 -2.128,1.24414 -2.642,0.41296 z m 66.906,-2.97179 c 0.359,-1.91505 0.964,-4.45444 1.344,-5.64309 0.38,-1.18865 0.831,-3.02566 1.004,-4.08224 0.172,-1.05658 0.852,-4.62253 1.512,-7.92434 0.659,-3.30181 1.588,-8.05642 2.064,-10.56579 3.919,-20.64714 4.38,-22.66964 5.229,-22.95226 0.802,-0.26738 0.729,0.20801 -2.411,15.74831 -1.308,6.47155 -2.568,12.84704 -2.801,14.16776 -1.062,6.03247 -3.868,19.41094 -4.32,20.59767 -0.275,0.72426 -0.501,1.95112 -0.501,2.72636 0,1.05009 -0.226,1.40953 -0.887,1.40953 -0.841,0 -0.853,-0.18126 -0.233,-3.48191 z m 13.269,1.68092 c 0.143,-0.99054 0.718,-5.04276 1.277,-9.00493 0.56,-3.96218 1.44,-10.12155 1.956,-13.6875 1.008,-6.96392 2.172,-15.896 2.629,-20.17106 0.988,-9.24218 1.531,-11.63372 2.317,-10.20559 0.294,0.53384 -3.002,27.61937 -4.691,38.54112 -0.874,5.65564 -2.179,15.12647 -2.179,15.81597 0,0.28214 -0.353,0.51298 -0.784,0.51298 -0.632,0 -0.734,-0.34965 -0.525,-1.80099 z m 16.39,0.48026 c 0.162,-0.72639 0.719,-8.23651 1.24,-16.68914 0.52,-8.45263 1.171,-19.04244 1.447,-23.5329 0.561,-9.11771 0.861,-11.28618 1.563,-11.28618 0.527,0 0.386,3.35105 -1.076,25.45395 -1.195,18.07478 -1.671,26.04256 -1.599,26.77467 0.03,0.33018 -0.375,0.60033 -0.905,0.60033 -0.802,0 -0.915,-0.22137 -0.67,-1.32073 z m 67.445,-24.01315 c 0.11,-13.93364 0.394,-25.9343 0.631,-26.66814 0.237,-0.73384 0.309,-1.65235 0.159,-2.04112 -0.149,-0.38877 -0.05,-0.70686 0.232,-0.70686 0.869,0 1.177,4.16785 0.862,11.69658 -0.168,4.00059 -0.32,13.86542 -0.339,21.92184 -0.04,16.62771 -0.287,21.13158 -1.156,21.13158 -0.46,0 -0.546,-5.54212 -0.389,-25.33388 z m -63.782,-29.14765 c 0,-0.38063 0.217,-0.82562 0.481,-0.98887 0.264,-0.16325 0.48,0.14817 0.48,0.69205 0,0.54388 -0.216,0.98887 -0.48,0.98887 -0.264,0 -0.481,-0.31142 -0.481,-0.69205 z"
       id="path1" /></g></svg>
