<?xml version="1.0" encoding="UTF-8" standalone="no"?>
<!-- Created with Inkscape (http://www.inkscape.org/) -->

<svg
   width="231.38646"
   height="235.24007"
   viewBox="0 0 61.221 62.240601"
   version="1.1"
   id="svg1"
   xml:space="preserve"
   xmlns="http://www.w3.org/2000/svg"
   xmlns:svg="http://www.w3.org/2000/svg"><defs
     id="defs1" /><g
     id="g1677"
     transform="matrix(0.26458333,0,0,0.26458333,-4161.9292,-15.84324)"><path
       style="fill:#000000"
       d="m 15934.823,250.02281 c -0.203,-0.20367 -21.867,-0.48001 -80.843,-1.03124 -17.689,-0.16533 -32.81,-0.37176 -33.602,-0.45872 -0.792,-0.087 -16.432,-0.31498 -34.755,-0.5067 -31.606,-0.33072 -33.347,-0.30481 -33.939,0.50516 -0.356,0.48728 -0.943,0.73135 -1.367,0.56859 -0.773,-0.29636 -1.01,-1.80827 -0.383,-2.43562 0.198,-0.19813 0.385,-1.69222 0.417,-3.32022 0.232,-11.97735 0.688,-76.03925 0.785,-110.3658 0.06,-22.90285 0.245,-41.64206 0.401,-41.642691 0.155,-6.32e-4 0.513,0.504591 0.795,1.122717 0.487,1.068555 0.815,1.138567 6.677,1.422591 3.391,0.164299 14.914,0.3402 25.607,0.39089 10.692,0.05069 20.413,0.134403 21.601,0.186027 3.684,0.160074 64.309,0.75092 99.517,0.969881 18.432,0.114631 33.715,0.333362 33.962,0.486068 0.68,0.419911 0.538,1.18105 -0.219,1.18105 -0.8,0 -1.394,1.295138 -0.771,1.680109 0.24,0.148919 0.323,0.568971 0.183,0.93345 -0.146,0.381338 0.118,0.758768 0.621,0.889008 0.781,0.20192 0.786,0.23232 0.05,0.282 -0.457,0.0306 -0.93,0.54171 -1.052,1.13575 -0.121,0.59404 -0.341,21.70941 -0.489,46.92304 -0.43,73.17992 -0.814,100.51738 -1.418,100.91918 -0.591,0.39285 -1.464,0.47434 -1.773,0.16548 z m 0.337,-2.06779 c 0.687,-0.47608 1.039,-23.63816 1.455,-95.77666 l 0.318,-55.083567 -12.675,-0.02672 c -6.971,-0.0147 -14.942,-0.111686 -17.714,-0.215536 -2.773,-0.103851 -26.102,-0.323472 -51.844,-0.488048 -25.741,-0.164575 -47.451,-0.380123 -48.243,-0.478994 -1.161,-0.144901 -45.817,-0.371184 -51.445,-0.260682 -1.266,0.02485 -1.567,0.252204 -1.788,1.349969 -0.553,2.750477 -1.156,53.415208 -1.374,115.560848 l -0.116,33.1155 2.16,0.30324 c 1.188,0.16678 17.043,0.44666 35.233,0.62196 18.19,0.17529 33.203,0.39898 33.362,0.49707 0.159,0.0981 19.946,0.33344 43.972,0.52299 24.025,0.18955 43.74,0.39373 43.81,0.45372 0.364,0.31172 24.435,0.21975 24.889,-0.0951 z m -35.817,-5.46253 c -10.165,-0.16045 -26.528,-0.32246 -36.362,-0.36002 -17.539,-0.067 -17.881,-0.0867 -17.881,-1.02835 0,-0.69786 0.32,-0.96007 1.171,-0.96007 0.645,0 1.315,-0.23096 1.489,-0.51326 0.175,-0.28229 0.421,-20.10157 0.547,-44.04285 l 0.23,-43.52959 1.041,0.0863 c 0.573,0.0475 15.515,0.22936 33.204,0.40421 17.689,0.17485 34.106,0.47485 36.482,0.66666 2.376,0.19182 5.282,0.17032 6.458,-0.0478 1.175,-0.2181 2.842,-0.26424 3.704,-0.10253 1.328,0.24928 1.467,0.39427 0.908,0.95326 -0.542,0.54204 -0.667,5.37682 -0.702,27.19136 -0.02,14.59266 -0.185,33.71457 -0.359,42.49314 -0.236,11.92314 -0.176,15.96103 0.238,15.96103 0.305,0 0.578,-0.37802 0.607,-0.84005 0.03,-0.46203 0.238,0.10845 0.466,1.26773 0.228,1.15928 0.297,2.29681 0.154,2.52785 -0.142,0.23104 -3.106,0.3626 -6.586,0.29237 -3.48,-0.0702 -14.644,-0.25898 -24.809,-0.41943 z m 28.361,-6.51232 c 0.02,-2.8582 0.102,-5.84476 0.178,-6.63682 0.08,-0.79205 0.222,-17.68428 0.321,-37.5383 0.126,-24.90592 0.02,-36.25523 -0.324,-36.60464 -0.55,-0.54934 -6.722,-0.70276 -50.737,-1.26114 l -27.242,-0.34559 v 5.95277 c 0,3.27402 -0.116,22.62309 -0.254,42.99792 -0.197,29.04255 -0.123,37.12408 0.34,37.41051 0.325,0.20095 8.27,0.44578 17.656,0.54408 9.385,0.0983 17.388,0.22974 17.784,0.29209 0.396,0.0624 10.063,0.17468 21.482,0.24961 l 20.761,0.13624 z m -59.563,-30.62148 c 0,-0.38674 0.486,-0.96163 1.08,-1.27755 2.108,-1.12103 13.946,-11.22913 19.762,-16.87337 1.299,-1.26115 2.563,-2.22598 2.809,-2.14405 0.246,0.0819 -2.002,2.48117 -4.995,5.33165 -2.993,2.85048 -5.445,5.52757 -5.449,5.94908 0,0.42152 -1.075,1.39501 -2.381,2.16333 -1.306,0.76832 -3.923,2.78229 -5.815,4.4755 -3.36,3.00793 -5.011,3.79028 -5.011,2.37541 z m 21.568,-1.76019 c -0.578,-0.39291 -0.547,-0.5573 0.195,-1.04173 2.253,-1.46895 6.337,-4.80997 6.95,-5.685 0.486,-0.69434 0.828,-0.8239 1.197,-0.45416 0.631,0.63105 -1.098,2.56653 -4.982,5.57574 -1.973,1.52899 -2.854,1.94947 -3.36,1.60515 z m -6.207,-1.8721 c 0,-1.84549 5.879,-7.1853 7.911,-7.1853 1.09,0 0.88,0.84755 -0.302,1.22282 -0.568,0.18009 -2.512,1.80731 -4.32,3.61602 -2.471,2.47067 -3.289,3.05427 -3.289,2.34646 z m -42.723,40.09776 c 0,-0.61984 -1.753,-0.7305 -12.6,-0.79518 -6.931,-0.0413 -13.249,-0.12067 -14.041,-0.17632 -0.792,-0.0556 -13.78,-0.26166 -28.861,-0.45781 -19.926,-0.25916 -27.511,-0.21097 -27.75,0.17631 -0.181,0.29313 -0.65,0.53296 -1.041,0.53296 -0.587,0 -0.668,-0.61061 -0.458,-3.48023 0.617,-8.45578 1.052,-82.52269 0.49,-83.432 -0.163,-0.26227 -0.151,-1.13421 0.03,-1.93765 l 0.321,-1.4608 14.955,0.28658 c 8.226,0.15762 19.816,0.39274 25.757,0.52248 5.94,0.12975 18.685,0.35155 28.321,0.49289 15.886,0.23298 17.55,0.33288 17.821,1.07003 0.165,0.44718 0.229,0.93969 0.141,1.09446 -0.437,0.76988 -0.666,16.57424 -0.722,49.93977 -0.06,35.51927 -0.09,36.80712 -0.976,37.56243 -1.131,0.96797 -1.383,0.97928 -1.383,0.0621 z m 0.805,-24.12156 c 0.04,-12.3428 0.101,-31.40603 0.142,-42.36274 0.04,-10.95671 0.06,-20.2684 0.05,-20.69264 -0.03,-0.68313 -1.665,-0.80713 -14.312,-1.08422 -7.855,-0.17208 -18.494,-0.41662 -23.642,-0.54343 -5.148,-0.1268 -17.377,-0.35936 -27.175,-0.5168 l -17.814,-0.28624 -0.276,1.0536 c -0.152,0.57948 -0.291,6.48428 -0.309,13.12177 -0.02,6.63749 -0.169,25.40164 -0.334,41.69811 l -0.3,29.62995 1.142,0.42707 c 0.629,0.23489 19.178,0.68754 41.22,1.00589 22.042,0.31835 40.169,0.67159 40.282,0.78497 1.145,1.14456 1.268,-0.90854 1.331,-22.23529 z m -39.687,-15.13575 c 0,-0.33814 0.594,-0.86303 1.32,-1.16643 0.726,-0.3034 1.905,-0.93552 2.621,-1.40473 2.108,-1.38262 2.203,-0.25873 0.128,1.5166 -1.919,1.64193 -4.069,2.19917 -4.069,1.05456 z m -5.014,-1.26198 c -0.526,-0.85164 2.144,-5.44923 5.126,-8.82704 1.585,-1.79484 2.793,-3.35241 2.684,-3.46127 -0.302,-0.30147 -3.89,2.21997 -5.473,3.84566 -1.911,1.96269 -10.779,8.54479 -11.091,8.23252 -0.372,-0.37244 1.049,-2.2354 2.388,-3.13122 0.644,-0.43024 2.078,-1.38856 3.188,-2.12961 1.111,-0.74105 3.571,-2.68518 5.468,-4.32028 7.491,-6.45583 12.324,-9.63327 12.324,-8.10113 0,0.21568 -1.35,1.79164 -3,3.50213 -6.593,6.83486 -10.147,11.47994 -10.179,13.30581 -0.02,1.25316 -0.914,1.92715 -1.435,1.08443 z m -7.467,-33.16548 c 0,-0.26401 0.216,-0.48003 0.48,-0.48003 0.264,0 0.48,0.21602 0.48,0.48003 0,0.26402 -0.216,0.48003 -0.48,0.48003 -0.264,0 -0.48,-0.21601 -0.48,-0.48003 z m 140.478,-19.68127 c -0.259,-0.58282 -1.485,-0.7268 -6.435,-0.75545 -21.343,-0.12357 -74.791,-0.80505 -74.945,-0.9556 -0.307,-0.29842 -0.07,-33.33938 0.256,-36.38128 0.221,-2.03496 0.136,-2.91449 -0.307,-3.18869 -0.395,-0.24403 -0.499,-0.8338 -0.292,-1.65895 l 0.322,-1.2803 22.185,0.26842 c 12.201,0.14763 29.435,0.3939 38.296,0.54727 8.862,0.15336 16.908,0.12946 17.881,-0.0531 1.626,-0.30504 1.77,-0.46399 1.77,-1.95866 0,-1.16506 0.216,-1.62669 0.761,-1.62669 0.687,0 0.741,2.12223 0.551,21.72141 -0.125,12.83783 -0.03,22.2524 0.238,23.01976 0.516,1.49172 0.266,3.53529 -0.281,2.30188 z m -2.161,-2.44203 c 0.524,-0.32323 0.699,-4.04104 0.892,-18.93305 0.132,-10.19196 0.1,-18.91616 -0.08,-19.3871 -0.286,-0.77106 -1.337,-0.88726 -10.561,-1.16782 -21.798,-0.66302 -66.61,-0.94003 -67.242,-0.41565 -0.482,0.39965 -0.644,4.75545 -0.737,19.71507 -0.111,17.98 -0.07,19.21812 0.727,19.45392 0.465,0.1385 2.898,0.25493 5.406,0.25873 13.044,0.0198 66.071,0.61641 66.485,0.74805 0.962,0.30656 4.474,0.11945 5.108,-0.27215 z m -50.704,-13.38778 c -0.47,-0.75925 0.496,-2.11678 3.379,-4.75178 1.991,-1.8195 3.037,-2.44351 3.978,-2.37333 0.8,0.0597 2.171,-0.53621 3.676,-1.598 1.32,-0.93126 3.404,-2.40182 4.63,-3.26791 1.226,-0.8661 2.449,-1.49515 2.716,-1.39789 0.268,0.0973 -2.312,2.22897 -5.732,4.73713 -3.421,2.50817 -7.193,5.36886 -8.382,6.3571 -2.776,2.30647 -3.888,2.9047 -4.265,2.29468 z m 7.46,0.005 c -0.476,-0.29376 -0.428,-0.65036 0.218,-1.6361 0.454,-0.69326 1.026,-1.26046 1.271,-1.26046 0.245,0 1.652,-1.19659 3.126,-2.65909 1.475,-1.4625 2.796,-2.54376 2.937,-2.40279 0.141,0.14096 -0.655,1.33755 -1.77,2.65908 -1.114,1.32154 -1.918,2.4028 -1.787,2.4028 0.131,0 1.818,-0.86102 3.749,-1.91338 3.42,-1.86459 4.725,-2.29979 4.696,-1.56685 -0.01,0.34843 -9.33,5.79712 -11.005,6.43642 -0.455,0.17381 -1.101,0.14698 -1.435,-0.0596 z m -45.87,14.36347 c -1.848,-0.20064 -9.705,-0.38959 -17.46,-0.41988 -7.755,-0.0303 -14.238,-0.14067 -14.407,-0.24529 -0.169,-0.10462 -11.106,-0.23649 -24.303,-0.29305 -13.197,-0.0566 -24.319,-0.18078 -24.715,-0.27606 -0.629,-0.15127 -0.71,-3.01888 -0.641,-22.60685 0.08,-22.12609 0.287,-24.957359 1.586,-21.53974 0.458,1.20289 0.601,1.24076 4.924,1.2961 2.448,0.0314 7.152,0.11995 10.452,0.19688 3.3,0.0769 16.693,0.27065 29.762,0.4305 13.069,0.15985 27.511,0.41948 32.095,0.57697 l 8.333,0.28633 -0.281,1.76075 c -0.155,0.96841 -0.299,10.66483 -0.32,21.5476 -0.04,18.28516 -0.101,19.78168 -0.852,19.7187 -0.447,-0.0375 -2.325,-0.23231 -4.173,-0.43296 z m 0.72,-1.87475 2.64,-0.0247 0.156,-19.39058 c 0.106,-13.13197 0,-19.49066 -0.346,-19.70068 -0.276,-0.17056 -8.878,-0.41486 -19.117,-0.54289 -10.238,-0.12803 -21.315,-0.32787 -24.615,-0.44409 -7.159,-0.25213 -38.912,-0.38146 -39.111,-0.15931 -0.08,0.0855 -0.279,8.71045 -0.449,19.16667 -0.261,16.04557 -0.204,19.09894 0.367,19.57302 0.479,0.39756 6.339,0.64471 20.055,0.84577 10.658,0.15624 26.614,0.42097 35.459,0.58829 8.844,0.16732 17.485,0.26124 19.201,0.2087 1.716,-0.0525 4.308,-0.10662 5.76,-0.12021 z m -55.846,-8.50714 c -0.701,-0.70166 -0.239,-1.61359 1.194,-2.35449 0.831,-0.42974 3.129,-2.00139 5.108,-3.49255 1.978,-1.49117 4.917,-3.65871 6.529,-4.81676 1.613,-1.15805 3.543,-2.61615 4.29,-3.24021 1.518,-1.26954 2.71,-1.55594 1.772,-0.42579 -0.323,0.38988 -3.104,2.604 -6.179,4.92027 -3.075,2.31627 -6.347,4.87457 -7.271,5.6851 -2.887,2.5321 -5.112,4.05494 -5.443,3.72443 z m 11.39,-2.64409 c -0.215,-0.34888 0.741,-1.54219 2.492,-3.10855 3.034,-2.71453 3.562,-2.98643 3.562,-1.83584 0,0.55678 0.597,0.37718 2.52,-0.75767 4.171,-2.46152 7.395,-3.84566 8.221,-3.52881 0.97,0.37224 1.003,1.63777 0.08,2.86494 -1.043,1.3787 -0.895,1.65977 0.705,1.33983 0.792,-0.15842 1.44,-0.1608 1.44,-0.005 0,0.60087 -3.639,2.71748 -4.672,2.71748 -1.509,0 -1.388,-1.16465 0.351,-3.36022 1.585,-2.00068 1.728,-2.40015 0.857,-2.40015 -0.884,0 -8.945,4.74367 -11.58,6.81464 -2.426,1.90669 -3.383,2.21028 -3.971,1.25966 z m 9.174,-13.35464 c 0.163,-0.26402 0.513,-0.48004 0.777,-0.48004 0.264,0 0.346,0.21602 0.183,0.48004 -0.163,0.26401 -0.513,0.48003 -0.777,0.48003 -0.264,0 -0.346,-0.21602 -0.183,-0.48003 z"
       id="path1" /></g></svg>
