<?xml version="1.0" encoding="UTF-8" standalone="no"?>
<!-- Created with Inkscape (http://www.inkscape.org/) -->

<svg
   width="61.221001mm"
   height="62.240601mm"
   viewBox="0 0 61.221 62.240601"
   version="1.1"
   id="svg1"
   xml:space="preserve"
   inkscape:export-filename="give.svg"
   inkscape:export-xdpi="96"
   inkscape:export-ydpi="96"
   xmlns:inkscape="http://www.inkscape.org/namespaces/inkscape"
   xmlns:sodipodi="http://sodipodi.sourceforge.net/DTD/sodipodi-0.dtd"
   xmlns="http://www.w3.org/2000/svg"
   xmlns:svg="http://www.w3.org/2000/svg"><sodipodi:namedview
     id="namedview1"
     pagecolor="#ffffff"
     bordercolor="#000000"
     borderopacity="0.25"
     inkscape:showpageshadow="2"
     inkscape:pageopacity="0.0"
     inkscape:pagecheckerboard="0"
     inkscape:deskcolor="#d1d1d1"
     inkscape:document-units="mm"><inkscape:page
       x="0"
       y="0"
       width="61.221001"
       height="62.240601"
       id="page2"
       margin="0"
       bleed="0" /></sodipodi:namedview><defs
     id="defs1" /><g
     inkscape:label="Layer 1"
     inkscape:groupmode="layer"
     id="layer1"
     transform="translate(1472.671,3650.7208)"><path
       id="path936"
       d="m -1472.5017,-3650.5514 h 60.8824 v -0.1694 h -60.8824 z"
       style="fill:#000000;fill-opacity:1;fill-rule:evenodd;stroke:none;stroke-width:0.352778" /><path
       id="path941-9"
       d="m -1472.671,-3588.6495 h 0.1693 v -61.8984 h -0.1693 z"
       style="fill:#000000;fill-opacity:1;fill-rule:evenodd;stroke:none;stroke-width:0.352778" /><path
       id="path942"
       d="m -1411.6193,-3588.6495 h 0.1693 v -61.8984 h -0.1693 z"
       style="fill:#000000;fill-opacity:1;fill-rule:evenodd;stroke:none;stroke-width:0.352778" /><path
       id="path952"
       d="m -1472.5017,-3588.4802 h 60.8824 v -0.1693 h -60.8824 z"
       style="fill:#000000;fill-opacity:1;fill-rule:evenodd;stroke:none;stroke-width:0.352778" /><g
       id="g1609"
       transform="matrix(0.36839987,0,0,0.36839987,-7068.3516,-3684.9424)"><path
         style="fill:#000000"
         d="m 15345.204,217.04908 c -0.232,0 -1.694,0.5652 -3.248,1.256 -4.603,2.04515 -10.065,3.6201 -20.76,5.986 -5.326,1.17842 -9.196,-0.18352 -9.241,-3.25197 -0.01,-0.85862 0.328,-1.11408 1.79,-1.34223 2.217,-0.34621 5.567,-1.2249 5.34,-1.40048 -0.09,-0.071 -1.932,0.0886 -4.089,0.35455 -3.527,0.43499 -4.324,0.37091 -7.94,-0.63815 -4.976,-1.38899 -7.67,-2.59943 -9.048,-4.06542 -1.004,-1.06853 -1.021,-1.20737 -0.307,-2.58712 0.977,-1.88739 1.936,-2.15026 5.652,-1.54768 3.469,0.56276 10.158,0.5866 11.956,0.0426 l 1.203,-0.36399 -1.203,-0.2911 c -0.662,-0.16011 -3.008,-0.40422 -5.214,-0.54247 -5.439,-0.34087 -12.006,-2.12839 -15.324,-4.17093 -1.659,-1.02103 -2.578,-3.48596 -1.647,-4.41634 0.291,-0.29131 0.53,-0.38918 0.53,-0.2175 0,0.17169 0.751,-10e-4 1.669,-0.3848 2.393,-0.99956 4.965,-0.85438 7.618,0.43003 1.918,0.92832 2.694,1.05495 4.572,0.74577 1.244,-0.20482 3.736,-0.38531 5.538,-0.40108 2.055,-0.018 3.166,-0.20797 2.979,-0.50967 -0.163,-0.26455 -1.136,-0.481 -2.162,-0.481 -1.026,0 -2.4,-0.20328 -3.054,-0.45174 -0.654,-0.24845 -2.13,-0.56598 -3.28,-0.70563 -3.451,-0.41911 -10.205,-2.58301 -10.861,-3.47972 -1.295,-1.76938 -0.481,-4.04785 1.88,-5.26861 1.322,-0.68293 1.857,-0.7 4.437,-0.14141 1.614,0.34939 3.217,0.57635 3.561,0.50435 0.345,-0.072 1.753,0.17019 3.128,0.53819 1.779,0.47573 4.866,0.63315 10.682,0.54471 8.864,-0.13478 9.563,-0.2027 11.189,-1.08632 1.177,-0.64019 1.442,-2.18916 0.481,-2.81116 -0.331,-0.21402 -3.164,-0.38914 -6.296,-0.38914 -5.402,0 -5.741,-0.0581 -6.616,-1.13553 -2.131,-2.62162 -0.509,-5.06058 4.329,-6.50915 1.611,-0.48237 3.741,-1.30015 4.734,-1.8173 0.992,-0.51714 2.886,-1.05897 4.21,-1.20407 2.303,-0.25252 4.843,0.4518 11.692,3.24133 0.608,0.24763 1.233,0.52988 1.323,0.45024 0,0 0.03,37.51794 -0.203,37.51794 z m 0.232,-35.57256 c -1.257,-0.44215 -5.583,-2.05817 -7.039,-2.67973 -4.012,-1.71283 -4.975,-1.79396 -7.802,-0.6569 -1.399,0.56277 -4.161,1.61884 -6.137,2.34681 -3.99,1.47001 -4.917,2.34786 -3.844,3.6404 0.605,0.72931 1.329,0.792 6.037,0.5232 4.345,-0.24806 5.634,-0.16367 6.864,0.44945 0.832,0.41517 1.513,0.99616 1.513,1.2911 0,0.89996 2.113,3.70659 3.008,3.99591 0.497,0.16052 0.842,0.75227 0.842,1.44228 0,1.66097 -1.488,1.51655 -2.811,-0.27292 -0.998,-1.34846 -2.482,-1.96299 -2.482,-1.02734 0,0.22861 -0.93,0.77065 -2.067,1.20453 -1.642,0.62681 -4.007,0.79894 -11.513,0.83781 -5.195,0.0269 -9.733,-0.13281 -10.084,-0.35491 -0.351,-0.22211 -1.937,-0.54933 -3.525,-0.72717 -1.588,-0.17783 -3.755,-0.47334 -4.815,-0.65669 -1.596,-0.276 -2.082,-0.16277 -2.825,0.6583 -0.494,0.5454 -0.775,1.31174 -0.625,1.70298 0.469,1.22262 12.034,4.1001 16.581,4.12562 2.12,0.0119 4.917,1.2279 4.917,2.13772 0,1.35837 -2.31,2.34168 -5.924,2.52162 -1.903,0.0947 -4.975,0.3793 -6.828,0.63239 -2.635,0.35999 -3.473,0.32336 -3.85,-0.16829 -1.22,-1.59389 -3.651,-2.09979 -6.936,-1.44321 -2.976,0.59505 -0.586,2.3746 5.728,4.26351 4.098,1.22594 15.312,2.44899 17.477,1.90601 1.239,-0.31098 2.529,0.78923 2.13,1.81721 -0.129,0.33405 -1.829,1.22419 -3.777,1.97808 l -3.541,1.37072 -6.93,-0.55898 c -7.009,-0.56539 -8.193,-0.39826 -7.627,1.07645 0.364,0.94969 2.832,2.03139 7.297,3.19816 4.83,1.26238 6.516,1.25483 12.907,-0.0578 4.757,-0.97704 5.241,-1.00067 5.952,-0.29036 0.425,0.42528 0.625,1.01355 0.443,1.30726 -0.774,1.25272 -8.421,4.35433 -10.807,4.38357 -1.219,0.015 -1.226,0.032 -0.285,0.75512 0.696,0.53499 1.495,0.65011 2.887,0.41579 1.059,-0.17822 3.224,-0.49806 4.812,-0.71075 l 0.01,4e-5 c 6.277,-0.8407 13.886,-3.064 20.808,-6.07997 l 1.72,-0.48891 m -19.741,-2.96528 c -1.642,-3.35102 -3.203,-6.85033 -3.469,-7.77626 -0.795,-2.76307 -1.178,-6.73398 -0.65,-6.73398 0.262,0 0.592,1.24458 0.733,2.76574 0.203,2.19442 0.999,4.22951 3.856,9.8517 2.56,5.03913 3.444,7.21588 3.058,7.53576 -0.38,0.31499 -1.437,-1.37635 -3.528,-5.64296 z m -78.843,8.13407 c -0.778,-0.75518 -8.067,-2.03812 -9.77,-1.71973 -1.226,0.22904 -2.326,-0.0391 -4.572,-1.11411 -5.032,-2.40845 -6.53,-3.02034 -8.9,-3.6349 -1.26,-0.32662 -4.541,-1.44824 -7.292,-2.49248 -4.624,-1.75514 -5.278,-2.17123 -8.656,-5.50611 -2.009,-1.98412 -4.402,-4.64912 -5.318,-5.92223 -0.915,-1.2731 -2.152,-2.92772 -2.747,-3.67693 -0.596,-0.7492 -1.078,-1.87206 -1.073,-2.49525 0.01,-1.00676 0.264,-0.85903 2.286,1.32525 1.252,1.35207 2.994,3.44877 3.872,4.65934 2.993,4.1249 6.484,7.33257 9.472,8.7015 4.158,1.90555 20.743,7.33331 23.579,7.71673 1.323,0.17891 3.056,0.52231 3.85,0.76312 2.382,0.72257 4.132,0.93819 8.275,1.01997 3.012,0.0594 4.242,-0.11693 5.203,-0.74649 2.009,-1.31543 1.22,-1.9354 -2.93,-2.30375 -5.928,-0.52612 -9.345,-1.39142 -9.345,-2.36641 0,-1.22502 0.758,-1.27944 4.523,-0.32443 4.5,1.14166 12.955,1.36602 15.057,0.39954 0.844,-0.38803 1.747,-1.17261 2.007,-1.74351 0.465,-1.01928 0.381,-1.04325 -4.662,-1.32893 -2.824,-0.16 -6.251,-0.47026 -7.615,-0.68945 -1.814,-0.29158 -2.71,-0.22967 -3.34,0.2307 -1.681,1.22899 -5.489,0.47879 -5.489,-1.08151 0,-1.46106 2.008,-1.77053 7.505,-1.15684 10.332,1.15349 11.541,1.22417 14.364,0.83981 1.573,-0.21421 3.337,-0.70111 3.918,-1.08202 0.964,-0.63109 5.492,-6.20176 5.492,-6.75607 0,-0.61606 -2.17,-0.12572 -3.439,0.7768 -1.901,1.35367 -7.683,2.31623 -10.516,1.75083 -1.191,-0.2377 -3.898,-0.9421 -6.015,-1.56533 -2.118,-0.62323 -5.041,-1.46773 -6.497,-1.87666 -3.801,-1.06794 -5.774,-2.39986 -5.774,-3.89828 0,-1.7376 1.12,-1.96577 4.767,-0.97067 11.395,3.10918 15.336,3.02132 19.309,-0.43045 0.935,-0.81227 2.315,-1.90975 3.066,-2.43885 2.14,-1.50732 3.688,-3.29925 3.531,-4.08849 -0.25,-1.25457 -4.208,-0.89133 -6.158,0.56515 -0.912,0.68086 -2.777,1.60144 -4.145,2.04573 -2.314,0.7511 -2.77,0.75293 -6.497,0.0261 -2.205,-0.42996 -4.442,-0.84088 -4.971,-0.91318 -0.529,-0.0723 -3.128,-1.2329 -5.774,-2.57913 -2.647,-1.34623 -5.354,-2.68221 -6.016,-2.96884 -2.37,-1.02681 -5.761,-3.18821 -6.468,-4.12267 -0.395,-0.52338 -0.726,-1.50129 -0.735,-2.17313 -0.01,-1.02189 0.525,-1.51322 3.291,-3.00625 3.707,-2.00125 5.87,-2.2432 9.266,-1.03645 3.904,1.38757 8.222,0.72451 8.885,-1.36459 0.414,-1.30223 -0.367,-1.83718 -4.714,-3.22916 -3.696,-1.18359 -6.114,-2.0983 -8.039,-3.04128 -1.367,-0.67008 -6.304,-0.61632 -7.611,0.0829 -1.733,0.9273 -13.289,2.49691 -18.615,2.52838 -5.747,0.034 -7.078,-0.28298 -12.903,-3.07298 -2.599,-1.24504 -3.238,-1.76852 -3.248,-2.66064 0,-0.61085 0.15,-1.01734 0.349,-0.90331 1.089,0.62545 7.372,3.41958 9.013,4.008 3.815,1.36806 15.652,0.54247 24.789,-1.72891 4.483,-1.11429 8.573,-0.90584 10.408,0.53045 0.823,0.64373 7.254,2.8119 8.34,2.8119 0.688,0 1.243,-0.66157 1.966,-2.3421 1.23,-2.85644 4.692,-6.27001 7.925,-7.81337 2.147,-1.02466 3.043,-1.14426 8.418,-1.12286 5.511,0.0219 6.311,0.14285 9.547,1.4424 7.068,2.83921 10.943,8.50524 12.584,18.40445 1.139,6.86819 -1.143,13.32103 -6.629,18.74767 -2.148,2.12471 -3.837,3.3167 -5.671,4.0028 -1.781,0.66597 -2.613,1.2423 -2.613,1.81014 0,0.45819 -0.772,1.579 -1.716,2.49068 -0.944,0.91168 -2.168,2.38648 -2.721,3.27733 -0.631,1.01816 -1.913,2.04027 -3.45,2.75208 -1.902,0.88077 -2.559,1.48271 -2.959,2.70927 -0.595,1.82102 -3.798,3.7414 -6.242,3.7414 -1.261,0 -1.578,0.25451 -2.095,1.68317 -0.718,1.9863 -1.715,2.59765 -5.599,3.4336 -3.483,0.74953 -4.713,0.79848 -5.318,0.21158 z m 19.755,-20.24022 c 0.164,-0.26504 -0.311,-0.70436 -1.055,-0.97627 -0.743,-0.2719 -1.677,-0.62834 -2.074,-0.79208 -0.397,-0.16375 -2.129,-0.24917 -3.85,-0.18984 -2.802,0.0967 -5.865,-0.48695 -13.955,-2.65878 -0.836,-0.22461 -1.056,-0.16818 -0.722,0.18523 0.265,0.27952 2.322,1.08346 4.572,1.78653 2.25,0.70307 5.281,1.67721 6.737,2.16474 2.883,0.96561 9.847,1.28899 10.347,0.48047 z m 11.067,-3.48223 c 2.929,-0.88996 3.781,-1.43575 6.527,-4.18145 3.524,-3.5226 5.011,-6.19001 5.785,-10.37436 0.576,-3.11589 0.338,-5.54402 -1.033,-10.53366 -1.237,-4.50078 -2.457,-6.68946 -5.149,-9.23055 -2.842,-2.68346 -5.259,-3.85785 -9.258,-4.49786 -7.934,-1.26987 -13,-0.0495 -16.73,4.03072 -1.275,1.39371 -2.615,3.43581 -2.979,4.53799 -0.603,1.82581 -0.584,2.0605 0.208,2.63968 1.907,1.39381 -0.554,6.08068 -3.193,6.08068 -0.98,0 -1.848,1.70041 -1.848,3.62076 0,1.62986 1.75,5.99704 3.024,7.54394 0.858,1.04247 1.761,1.42209 4.499,1.89151 l 3.427,0.58728 4.029,-2.06857 c 2.216,-1.13772 4.721,-2.234 5.567,-2.43618 2.705,-0.6466 4.82,1.7602 3.89,4.42617 -0.262,0.75199 -2.296,2.79012 -4.802,4.81248 l -4.347,3.50806 2.342,0.56033 c 2.852,0.68258 5.604,0.43132 10.041,-0.91697 z m -3.515,-21.04836 c -2.487,-1.53152 -4.544,-6.53452 -3.647,-8.87087 0.422,-1.10041 1.628,-0.0178 1.628,1.46196 0,0.62191 0.467,2.09091 1.037,3.26446 0.793,1.6304 1.485,2.30942 2.934,2.87857 1.132,0.44444 1.815,0.99552 1.693,1.36639 -0.33,0.99917 -1.931,0.95502 -3.645,-0.10051 z m -0.254,-3.68711 c -0.678,-0.67751 -0.259,-1.69731 1.363,-3.31889 1.35,-1.34957 1.684,-2.05632 1.684,-3.56307 0,-2.52175 0.609,-2.743 2.372,-0.86255 2.184,2.32926 2.241,2.18402 -2.54,6.50193 -1.754,1.58456 -2.301,1.82059 -2.879,1.24258 z m -23.297,14.14939 c -0.973,-1.22824 -2.19,-5.93087 -2.111,-8.15912 0.07,-1.96711 -0.05,-2.30261 -0.83,-2.30261 -0.501,0 -1.858,-0.3406 -3.016,-0.75689 -1.158,-0.41628 -2.774,-0.7626 -3.591,-0.76959 -1.882,-0.0161 -6.455,2.27024 -6.455,3.22778 0,0.79949 5.276,4.31889 8.662,5.77822 1.191,0.5133 3.248,1.52564 4.572,2.24965 2.62,1.43357 3.511,1.66937 2.769,0.73256 z m 58.542,1.74446 c -0.25,-0.29716 -0.326,-0.87284 -0.17,-1.2793 0.189,-0.49322 -0.09,-0.85377 -0.834,-1.08407 -0.615,-0.18978 -2.634,-1.04206 -4.486,-1.89394 -1.853,-0.85188 -4.172,-1.91242 -5.153,-2.35676 -2.235,-1.01196 -2.627,-1.6294 -1.654,-2.60231 0.701,-0.70048 1.024,-0.66204 3.787,0.45036 1.661,0.66893 4.602,1.71469 6.535,2.32392 l 3.516,1.1077 0.708,-1.01075 c 0.817,-1.16646 2.126,-0.90603 2.126,0.42315 0,0.48966 0.866,1.80043 1.925,2.91283 2.972,3.12302 2.696,3.62811 -1.961,3.58523 -2.239,-0.0206 -4.077,-0.26458 -4.339,-0.57606 z"
         id="path2"
         sodipodi:nodetypes="sccccccccccsccsccsccsscssccccccsccscsccssscccccscscscscssscccssccccscccccccscccccccccccsccccsccccccccccccccccscccsccssccscsccssccccccscccccccccccccccccscccccccsscccsccssccscccscccccccccscssccccccscccccsccccccscccccsssssccccccccccccscsc" /></g></g></svg>
