<?xml version="1.0" encoding="UTF-8" standalone="no"?>
<!-- Created with Inkscape (http://www.inkscape.org/) -->

<svg
   width="231.38646"
   height="235.24007"
   viewBox="0 0 61.221 62.240601"
   version="1.1"
   id="svg1"
   xml:space="preserve"
   xmlns="http://www.w3.org/2000/svg"
   xmlns:svg="http://www.w3.org/2000/svg"><defs
     id="defs1" /><g
     id="g1329"
     transform="matrix(0.26458333,0,0,0.26458333,-3455.8164,-15.834421)"><path
       style="fill:#000000"
       d="m 13095.07,254.23719 c -2.355,-1.2608 -4.95,-4.12263 -6.563,-7.23669 -2.171,-4.19245 -3.225,-9.1634 -2.092,-9.86466 0.779,-0.48167 0.554,-2.47701 -0.509,-4.51861 -1.411,-2.70954 -0.729,-4.96473 2.356,-7.78131 2.393,-2.18516 3.656,-3.21103 5.001,-4.06098 1.027,-0.64939 11.047,-7.33038 16.814,-11.21094 2.568,-1.72835 5.814,-4.2179 7.212,-5.53233 1.398,-1.31444 3.787,-3.23621 5.308,-4.27061 1.521,-1.0344 3.123,-2.42708 3.561,-3.09485 0.437,-0.66777 1.788,-1.71941 3.003,-2.33697 1.215,-0.61757 2.806,-1.79511 3.535,-2.61677 0.73,-0.82166 1.528,-1.49392 1.775,-1.49392 1.142,0 0.938,1.19167 -0.532,3.10469 -0.884,1.14994 -1.932,2.57035 -2.328,3.15648 -0.397,0.58612 -1.324,1.83883 -2.061,2.78379 -0.847,1.08566 -1.216,1.9956 -1.003,2.47192 0.447,1.00219 0.426,2.47425 -0.05,3.56934 -0.375,0.85928 -0.331,0.86116 1.244,0.0532 0.898,-0.46067 1.741,-0.97446 1.873,-1.14176 0.132,-0.16729 1.647,-1.39821 3.365,-2.73537 1.719,-1.33716 3.877,-3.11893 4.795,-3.95951 0.919,-0.84057 1.926,-1.52831 2.239,-1.52831 0.516,0 1.922,-1.02136 6.237,-4.53105 0.82,-0.66688 2.064,-1.43064 2.764,-1.69724 0.701,-0.2666 1.274,-0.69116 1.274,-0.94347 0,-0.9088 1.539,-1.97109 2.855,-1.97109 0.738,0 1.893,-0.43309 2.565,-0.96241 0.673,-0.52932 1.405,-0.96606 1.628,-0.97053 0.223,-0.004 1.98,-1.27075 3.906,-2.81396 1.925,-1.54321 4.089,-3.10846 4.808,-3.47833 2.716,-1.39733 8.168,-5.06248 11.644,-7.82744 1.983,-1.57765 5.662,-4.24459 8.174,-5.92654 8.439,-5.64988 13.973,-9.66963 16.732,-12.15316 3.173,-2.85614 3.454,-3.0935 6.894,-5.81568 1.418,-1.12189 3.767,-2.8013 5.22,-3.73202 1.453,-0.93072 2.859,-1.9493 3.125,-2.26352 0.266,-0.31421 1.997,-1.61488 3.849,-2.89037 1.851,-1.27549 3.906,-2.80799 4.567,-3.40555 0.661,-0.59756 3.474,-2.32178 6.251,-3.83161 2.776,-1.50983 5.589,-3.12741 6.25,-3.59463 0.661,-0.46722 2.717,-1.28349 4.568,-1.81393 1.851,-0.53043 5.745,-1.94084 8.654,-3.13422 2.909,-1.19339 6.046,-2.3211 6.972,-2.50603 3.101,-0.61956 5.744,-1.66636 6.75,-2.67328 0.721,-0.72131 1.48,-0.95746 2.736,-0.85075 2.283,0.19398 2.428,0.90137 0.567,2.76363 -0.84,0.84072 -2.239,3.01591 -3.11,4.83375 -1.866,3.89854 -6.919,11.63549 -11.511,17.62691 -0.793,1.03513 -2.091,2.61982 -2.885,3.52155 -0.793,0.90172 -2.524,2.86572 -3.846,4.36444 -1.322,1.49872 -4.243,4.21616 -6.491,6.03876 -2.248,1.8226 -4.519,3.71439 -5.048,4.20398 -0.529,0.48958 -2.693,1.9773 -4.808,3.30604 -2.116,1.32874 -4.712,3.03904 -5.77,3.80067 -5.718,4.11697 -25.859,17.38338 -28.608,18.84276 -2.396,1.27214 -3.209,1.76972 -9.135,5.58973 -2.248,1.4489 -4.736,3.21328 -5.529,3.92084 -0.794,0.70757 -2.957,2.19504 -4.808,3.3055 -6.331,3.79803 -7.139,4.49989 -7.571,6.57961 -0.519,2.50005 -2.48,5.28905 -4.228,6.01384 -0.765,0.31726 -1.65,0.8885 -1.966,1.26942 -0.316,0.38092 -4.596,3.39953 -9.512,6.70801 -10.811,7.27665 -12.914,8.75391 -16.599,11.65933 -1.569,1.23754 -5.182,3.65759 -8.028,5.37789 -6.509,3.93379 -16.902,10.43424 -22.675,14.18151 -7.949,5.15961 -10.464,5.91082 -13.802,4.12285 z m 3.846,-0.97803 c 0,-0.263 -0.919,-1.14159 -2.043,-1.95241 -2.587,-1.86636 -5.289,-5.19469 -7.147,-8.80442 -1.254,-2.43621 -1.38,-3.01191 -0.935,-4.28856 0.672,-1.93068 0.19,-2.3419 -1.01,-0.86065 -1.193,1.47328 -0.922,3.40963 1.048,7.48197 2.117,4.37664 6.667,8.90225 8.95,8.90225 0.625,0 1.137,-0.21518 1.137,-0.47818 z m 9.167,-4.57445 c 2.989,-1.98496 5.683,-3.60902 5.987,-3.60902 0.304,0 1.791,-0.86802 3.305,-1.92894 1.513,-1.06092 3.55,-2.33792 4.527,-2.83778 0.976,-0.49987 3.506,-2.0701 5.622,-3.48941 2.115,-1.41931 4.651,-3.00282 5.634,-3.51891 0.983,-0.51609 3.007,-1.98031 4.499,-3.25382 1.491,-1.27352 3.148,-2.54988 3.683,-2.83637 0.535,-0.28649 2.622,-1.69273 4.637,-3.12499 4.542,-3.22836 4.055,-2.89941 10.338,-6.9746 2.877,-1.86622 5.474,-3.59408 5.77,-3.83969 0.295,-0.24561 1.141,-0.89942 1.878,-1.45291 1.573,-1.18135 1.268,-1.81634 -1.483,-3.08312 -6.01,-2.76789 -10.676,-8.31739 -10.676,-12.69831 0,-1.72238 -0.605,-2.19316 -1.917,-1.49047 -1.233,0.66024 -0.993,1.8324 1.378,6.7242 1.832,3.78107 5.067,7.5286 7.654,8.86747 1.401,0.72495 2.149,2.21585 1.112,2.21585 -0.978,0 -6.22,-4.34099 -7.3,-6.04448 -2.239,-3.53158 -3.824,-6.72219 -4.358,-8.77195 -0.575,-2.20469 -1.524,-2.48402 -1.76,-0.51809 -0.133,1.1045 0.731,3.36134 2.646,6.91346 1.246,2.31274 5.988,8.57926 7.238,9.56568 0.785,0.61964 0.99,1.05979 0.651,1.39916 -0.735,0.73549 -1.905,-0.42404 -7.218,-7.14989 -0.802,-1.01543 -3.412,-6.23266 -3.413,-6.82247 0,-0.33082 -0.218,-0.6015 -0.482,-0.6015 -0.265,0 -0.481,-0.75789 -0.481,-1.68421 0,-1.20461 -0.213,-1.68421 -0.75,-1.68421 -0.412,0 -0.61,0.22603 -0.439,0.50228 0.171,0.27626 0.05,0.81307 -0.262,1.19292 -0.447,0.53856 -0.391,1.51405 0.254,4.43005 0.454,2.05668 1.145,4.36073 1.535,5.12013 1.429,2.78754 4.071,6.03115 5.691,6.98783 1.89,1.11583 2.161,1.97732 0.622,1.97732 -1.033,0 -6.641,-5.4776 -6.652,-6.49625 0,-0.26466 -0.325,-1.0947 -0.715,-1.84454 -0.946,-1.8137 -1.851,-5.11523 -1.768,-6.44276 0.08,-1.1916 -1.362,-2.21304 -2.499,-1.77641 -0.399,0.15329 -0.608,0.58559 -0.464,0.96068 0.166,0.43525 -0.06,0.68752 -0.632,0.69729 -0.844,0.0145 -0.847,0.0501 -0.05,0.65455 1.144,0.86917 1.057,1.65853 -0.249,2.25398 -0.753,0.34326 -1.376,1.39289 -2.014,3.39033 -0.508,1.59123 -1.223,3.25759 -1.588,3.70302 -0.585,0.71286 -0.635,0.5937 -0.42,-0.99463 0.134,-0.99248 0.06,-1.80451 -0.164,-1.80451 -0.5,0 -2.897,2.79863 -2.897,3.38276 0,0.23194 -0.759,0.78202 -1.686,1.22241 -1.397,0.66334 -1.816,0.69316 -2.441,0.17382 -0.624,-0.51835 -0.83,-0.50728 -1.192,0.064 -0.24,0.37997 -0.44,0.93502 -0.444,1.23344 0,0.29843 -0.337,0.81622 -0.739,1.15065 -0.428,0.3555 -0.613,0.98492 -0.444,1.51537 0.255,0.8058 0.05,0.89241 -1.793,0.77416 -1.903,-0.12187 -2.07,-0.0415 -1.965,0.94957 0.08,0.76582 -0.14,1.08271 -0.755,1.08271 -0.478,0 -1.339,0.54135 -1.914,1.20301 -0.673,0.77497 -1.55,1.203 -2.464,1.203 -1.066,0 -1.63,0.35854 -2.27,1.44361 -0.952,1.61345 -1.373,1.78401 -1.78,0.72181 -0.356,-0.92766 -1.939,-0.93099 -2.706,-0.006 -0.481,0.57995 -0.447,0.77274 0.181,1.01389 1.219,0.46802 0.926,1.63842 -0.41,1.63842 -0.693,0 -1.398,0.39962 -1.699,0.96241 -0.668,1.24782 -1.63,1.24817 -1.304,4.8e-4 0.377,-1.44247 -0.471,-1.63673 -1.342,-0.30723 -0.498,0.76054 -1.074,1.08629 -1.655,0.93448 -1.242,-0.32516 -3.167,0.75302 -2.512,1.40772 0.662,0.66277 -2.403,2.77658 -4.027,2.77658 -0.86,0 -1.18,0.26128 -1.18,0.96241 0,0.64024 -0.321,0.9624 -0.958,0.9624 -0.527,0 -1.228,0.43309 -1.558,0.96241 -0.711,1.13921 -1.331,1.25129 -1.331,0.2406 0,-0.87104 -1.276,-0.96871 -1.572,-0.1203 -0.392,1.12481 0.196,1.71796 2.328,2.34801 2.544,0.7518 2.761,1.38131 0.474,1.38131 -2.062,0 -2.427,0.55367 -1.523,2.30475 2.047,3.96158 7.877,9.23737 10.213,9.24206 0.564,0.001 3.47,-1.622 6.459,-3.60696 z m -15.629,-13.96578 c 0.89,-0.69893 0.868,-0.72665 -0.472,-0.6015 -0.773,0.0721 -1.495,0.40187 -1.603,0.7327 -0.273,0.83148 0.947,0.75437 2.075,-0.1312 z m -2.008,-3.6601 c -0.608,-0.67296 -0.637,-1.02212 -0.157,-1.94311 0.902,-1.73377 4.707,-4.86918 10.791,-8.89273 3.127,-2.06837 9.559,-6.4382 14.514,-9.86163 4.554,-3.14589 6.295,-3.93824 9.912,-4.50891 2.128,-0.33578 2.584,-1.14378 1.902,-3.3686 -0.513,-1.67021 -0.471,-1.78122 1.984,-5.24259 1.299,-1.83195 0.46,-2.24183 -1.077,-0.52614 -0.711,0.7938 -3.236,2.93898 -5.61,4.76707 -2.374,1.82809 -4.965,3.91716 -5.759,4.64238 -2.093,1.91385 -9.835,7.39597 -12.047,8.53164 -1.043,0.5352 -3.343,2.0226 -5.112,3.30531 -1.769,1.28272 -4.404,3.17051 -5.855,4.1951 -1.451,1.02459 -3.735,2.87827 -5.077,4.1193 -2.801,2.59024 -3.172,4.3741 -1.407,6.7629 l 1.032,1.39784 1.354,-1.27873 c 1.234,-1.16523 1.288,-1.35154 0.612,-2.0991 z m 3.903,1.50558 c 0.163,-0.26466 -0.05,-0.4812 -0.481,-0.4812 -0.428,0 -0.645,0.21654 -0.481,0.4812 0.163,0.26466 0.38,0.4812 0.481,0.4812 0.101,0 0.317,-0.21654 0.481,-0.4812 z m 3.475,-0.29073 c -0.159,-0.1599 -0.574,-0.17699 -0.921,-0.038 -0.384,0.15362 -0.27,0.26764 0.29,0.29073 0.507,0.0209 0.791,-0.0928 0.631,-0.25274 z m -1.987,-3.07226 c 6.681,-4.51664 10.708,-7.30999 13.331,-9.24674 2.823,-2.08415 3.885,-2.81008 9.503,-6.4948 1.696,-1.11201 4.162,-2.84434 5.481,-3.84963 l 2.399,-1.82779 -1.777,-0.14814 c -0.977,-0.0815 -2.273,0.10708 -2.879,0.41901 -2.656,1.3665 -9.883,6.07245 -11.199,7.29229 -1.41,1.30646 -3.983,3.10848 -8.489,5.94495 -4.752,2.99113 -9.985,7.02886 -10.268,7.92341 -0.308,0.97169 0.02,1.90682 0.681,1.90682 0.207,0 1.655,-0.86372 3.217,-1.91938 z m 3.813,0.97799 c -0.156,-0.2531 -0.601,-0.3382 -0.99,-0.18912 -0.994,0.38171 -0.876,0.64931 0.285,0.64931 0.544,0 0.862,-0.20708 0.705,-0.46019 z m 6.118,-4.44696 c 0.462,-0.53565 0.841,-1.28029 0.841,-1.65476 0,-0.57734 -0.212,-0.57094 -1.397,0.0421 -1.84,0.95221 -3.009,2.15399 -2.654,2.72856 0.407,0.65945 2.22,0.0291 3.21,-1.11589 z m 2.269,0.59512 c 0.389,-0.24622 0.561,-0.59447 0.382,-0.77388 -0.44,-0.44035 -1.81,0.11974 -1.81,0.73998 0,0.61118 0.498,0.62299 1.428,0.0339 z m 4.692,-2.71554 c -0.16,-0.1599 -0.574,-0.17699 -0.921,-0.038 -0.384,0.15361 -0.27,0.26764 0.29,0.29073 0.507,0.0209 0.791,-0.0928 0.631,-0.25274 z m -1.329,-2.08365 c 1.01,-1.88766 0.207,-2.01876 -1.759,-0.28745 l -1.349,1.1878 1.305,0.0152 c 0.81,0.009 1.494,-0.33836 1.803,-0.91556 z m 3.383,-0.0316 c 0,-0.26466 -0.528,-0.4812 -1.174,-0.4812 -0.645,0 -1.307,0.21654 -1.471,0.4812 -0.173,0.28075 0.316,0.48121 1.174,0.48121 0.809,0 1.471,-0.21655 1.471,-0.48121 z m 3.094,0.0504 c 0.146,-0.23692 -0.04,-0.54682 -0.406,-0.68864 -0.705,-0.27076 -1.246,0.0412 -1.246,0.71842 0,0.53739 1.316,0.51366 1.652,-0.0298 z m -2.099,-2.61521 c -0.814,-0.81429 -0.615,-1.14434 0.865,-1.44074 0.846,-0.1692 1.48,-0.65861 1.638,-1.26316 0.212,-0.81052 0.674,-0.99912 2.587,-1.05507 4.362,-0.12761 4.645,-0.17269 4.849,-0.77398 0.268,-0.78977 -4.801,-0.82733 -6.278,-0.0465 -2.435,1.28646 -6.65,4.87877 -6.114,5.21028 0.886,0.54791 3.07,-0.0137 2.453,-0.6308 z m 3.813,0.15878 c 0,-0.26466 -0.433,-0.48121 -0.962,-0.48121 -0.529,0 -0.962,0.21655 -0.962,0.48121 0,0.26466 0.433,0.4812 0.962,0.4812 0.529,0 0.962,-0.21654 0.962,-0.4812 z m 1.428,-1.90602 c 0.389,-0.24622 0.562,-0.59372 0.383,-0.77223 -0.452,-0.4522 -2.773,0.18614 -2.773,0.7626 0,0.59511 1.456,0.60098 2.39,0.01 z m 2.899,-0.2594 c 0,-0.39699 -0.204,-0.7218 -0.453,-0.7218 -0.606,0 -1.04,0.75144 -0.656,1.13589 0.542,0.54192 1.109,0.33005 1.109,-0.41409 z m 5.489,-4.55033 c 0.735,-0.0352 -0.229,-0.73935 -1.085,-0.79195 -2.172,-0.1335 -2.481,-0.24032 -2.481,-0.85723 0,-0.72956 1.427,-1.24233 3.486,-1.25256 0.999,-0.005 1.322,-0.24148 1.322,-0.96898 0,-0.67291 0.326,-0.96681 1.082,-0.97704 0.974,-0.0132 0.997,-0.0639 0.23,-0.51078 -0.468,-0.27288 -0.722,-0.7047 -0.565,-0.95961 0.574,-0.9296 -3.437,1.63381 -5.024,3.21073 -0.898,0.89226 -2.034,1.74975 -2.524,1.90553 -0.846,0.26863 -1.133,0.77847 -0.69,1.22239 0.163,0.16271 2.587,0.15476 6.249,-0.0205 z m 39.857,-4.73916 c 0.71,-0.7423 1.292,-1.7438 1.292,-2.22556 0,-0.722 -0.261,-0.82374 -1.484,-0.57898 -1.73,0.34629 -4.656,-1.15246 -8.132,-4.1648 -2.577,-2.2332 -3.767,-4.48344 -4.091,-7.73334 -0.131,-1.31731 -0.312,-2.46983 -0.404,-2.56116 -0.242,-0.24215 -3.569,1.20399 -3.862,1.67869 -0.55,0.8907 1.153,6.90761 2.51,8.87043 1.827,2.64232 3.082,3.76864 6.328,5.67912 4.619,2.71937 6.05,2.90837 7.843,1.0356 z m -34.768,-0.094 c 0,-0.26466 -0.217,-0.4812 -0.481,-0.4812 -0.265,0 -0.481,0.21654 -0.481,0.4812 0,0.26467 0.216,0.48121 0.481,0.48121 0.264,0 0.481,-0.21654 0.481,-0.48121 z m 3.241,-2.26796 c 0.106,-0.32107 -0.352,-0.7206 -1.018,-0.88786 -1.359,-0.34125 -4.627,0.57167 -4.627,1.29235 0,0.68781 5.413,0.29995 5.645,-0.40449 z m 35.505,-4.52898 c 1.96,-1.35636 3.564,-2.60986 3.564,-2.78554 0,-0.17569 1.244,-1.05649 2.765,-1.95734 1.52,-0.90085 4.82,-2.98146 7.332,-4.62358 4.577,-2.99144 7.421,-4.72149 13.703,-8.33425 1.851,-1.06457 4.556,-2.78816 6.01,-3.8302 1.454,-1.04204 4.267,-2.92317 6.251,-4.18029 5.345,-3.38795 8.943,-5.81758 14.193,-9.58233 1.857,-1.33144 4.129,-2.80664 5.049,-3.27823 0.92,-0.47158 2.379,-1.44602 3.243,-2.16541 0.864,-0.71939 2.903,-2.3907 4.532,-3.71401 4.647,-3.77681 8.081,-7.06094 8.081,-7.72806 0,-0.33606 -1.089,-1.41088 -2.419,-2.38849 -1.381,-1.01441 -2.712,-2.47806 -3.101,-3.40941 -0.379,-0.90905 -1.028,-1.63193 -1.465,-1.63193 -0.621,0 -0.718,-0.30022 -0.467,-1.44361 0.455,-2.07361 -0.423,-1.81061 -2.1,0.62918 -0.784,1.14004 -1.806,2.38515 -2.27,2.76692 -0.768,0.63087 -0.82,0.5955 -0.567,-0.3881 0.522,-2.0283 -0.455,-1.54265 -2.689,1.33588 -2.321,2.99176 -2.902,3.3632 -3.366,2.15236 -0.152,-0.39699 -0.825,-0.7218 -1.494,-0.7218 -1.327,0 -1.651,0.82586 -0.499,1.26853 1.035,0.39723 0.392,1.13748 -0.987,1.13748 -0.829,0 -1.174,0.26623 -1.174,0.90628 0,0.95629 -2.039,1.83926 -2.323,1.00626 -0.323,-0.94319 -1.435,-0.47831 -1.182,0.49348 0.174,0.66582 0.02,0.9624 -0.516,0.9624 -0.423,0 -0.904,0.54136 -1.07,1.20301 -0.166,0.66165 -0.484,1.20301 -0.707,1.20301 -0.223,0 -1.076,0.97443 -1.894,2.16541 -1.36,1.97769 -2.885,2.86817 -2.885,1.68421 0,-0.99449 -1.415,-0.42814 -2.404,0.96241 -0.646,0.90696 -1.45,1.44361 -2.164,1.44361 -0.714,0 -1.518,0.53665 -2.164,1.44361 -0.564,0.79398 -1.303,1.44361 -1.641,1.44361 -0.337,0 -1.005,0.43308 -1.484,0.9624 -0.488,0.53971 -1.481,0.96241 -2.26,0.96241 -1.041,0 -1.596,0.36174 -2.21,1.44056 -0.702,1.23575 -2.501,2.05474 -2.501,1.1388 0,-0.16932 0.378,-0.59551 0.841,-0.9471 0.766,-0.58182 0.769,-0.64062 0.04,-0.65455 -1.188,-0.0227 -2.323,0.49986 -2.323,1.06932 0,0.86743 -3.396,4.68981 -4.166,4.68981 -0.405,0 -1.346,0.65305 -2.091,1.45123 l -1.355,1.45123 -1.603,-0.91375 c -1.383,-0.78849 -1.797,-0.83048 -3.018,-0.30629 l -1.416,0.60747 2.017,0.34096 c 2.436,0.41194 2.799,1.63684 0.454,1.53033 -1.361,-0.0618 -1.544,0.0688 -1.413,1.01175 0.09,0.66707 -0.101,1.08271 -0.505,1.08271 -0.36,0 -1.182,1.02857 -1.826,2.28571 l -1.17,2.28572 -0.156,-1.80451 c -0.09,-1.05552 -0.411,-1.80452 -0.768,-1.80452 -0.336,0 -1.434,1.62406 -2.441,3.60903 -1.713,3.37913 -2.676,4.26955 -3.381,3.12782 -0.577,-0.93382 -2.182,-0.49565 -2.644,0.7218 -0.252,0.66166 -0.684,1.20301 -0.96,1.20301 -0.277,0 -0.75,0.54135 -1.051,1.20301 -0.301,0.66165 -0.942,1.203 -1.424,1.203 -0.566,0 -1.297,0.83125 -2.063,2.34377 -1.21,2.39046 -2.795,3.36813 -3.93,2.42518 -0.414,-0.34375 -0.804,-0.16745 -1.347,0.60842 -0.421,0.60083 -0.765,1.3251 -0.765,1.60949 0,0.73456 3.403,3.96575 5.598,5.31612 2.786,1.71334 4.1,1.50434 8.147,-1.29541 z m -30.703,-2.63664 c -0.16,-0.1599 -0.574,-0.17699 -0.922,-0.038 -0.383,0.15361 -0.269,0.26764 0.291,0.29073 0.507,0.0209 0.791,-0.0928 0.631,-0.25274 z m 16.958,-4.3091 c 0,-0.79402 -0.76,-0.92817 -1.202,-0.2122 -0.392,0.63495 0.183,1.53603 0.755,1.18246 0.246,-0.15227 0.447,-0.58889 0.447,-0.97026 z m 4.947,-2.01671 c 0.398,-0.99248 0.624,-1.96692 0.504,-2.16542 -0.12,-0.19849 -1.125,-0.35597 -2.234,-0.34994 l -2.015,0.011 1.563,0.77096 c 1.805,0.89059 2.053,1.6538 0.482,1.48717 -0.797,-0.0846 -1.121,0.16881 -1.235,0.96808 -0.125,0.87175 0.08,1.08271 1.029,1.08271 0.919,0 1.345,-0.40359 1.906,-1.80451 z m -9.005,-2.75162 c 0.897,-0.67892 0.884,-0.70709 -0.338,-0.7218 -0.699,-0.008 -1.395,0.30951 -1.547,0.7065 -0.355,0.92583 0.671,0.93417 1.885,0.0153 z m 4.539,-0.4965 c 0,-0.397 -0.301,-0.72181 -0.67,-0.72181 -0.368,0 -0.794,0.32481 -0.946,0.72181 -0.188,0.49096 0.03,0.7218 0.67,0.7218 0.52,0 0.946,-0.32464 0.946,-0.7218 z m 6.079,-0.96241 c 0.397,-0.39699 0.502,-0.7218 0.234,-0.7218 -0.267,0 -0.614,0.20708 -0.771,0.46018 -0.156,0.25311 -0.58,0.34661 -0.941,0.2078 -0.361,-0.13882 -0.8,-0.0211 -0.975,0.26162 -0.491,0.79642 1.629,0.61676 2.453,-0.2078 z m 4.312,-2.29875 c 0.191,-0.19133 -0.109,-0.34787 -0.666,-0.34787 -0.558,0 -1.148,-0.21712 -1.312,-0.4825 -0.197,-0.32019 -0.616,-0.31207 -1.243,0.0241 -0.521,0.27866 -0.827,0.69971 -0.681,0.93568 0.304,0.49335 3.381,0.39127 3.902,-0.12945 z m 1.188,-1.79148 c 0.243,0 0.441,-0.21654 0.441,-0.4812 0,-0.58742 -2.246,-0.64533 -2.603,-0.0671 -0.372,0.60295 0.281,1.10098 1.055,0.80389 0.366,-0.14056 0.864,-0.25557 1.107,-0.25557 z m 3.326,0.0284 c 0,-0.24904 -0.197,-0.57455 -0.437,-0.72336 -0.622,-0.38431 -2.015,0.22828 -1.695,0.74539 0.353,0.573 2.132,0.55463 2.132,-0.022 z m 1.319,-2.30335 c 0.231,-0.69557 -1.537,-1.24179 -2.761,-0.85286 -1.37,0.43508 -1.189,1.1053 0.36,1.33573 1.721,0.2559 2.186,0.16238 2.401,-0.48287 z m 1.449,-2.41677 c 0.286,-0.87379 -1.57,-0.74484 -2.321,0.16122 -0.556,0.66982 -0.465,0.74309 0.745,0.60151 0.758,-0.0887 1.467,-0.43191 1.576,-0.76273 z m 4.925,-3.30999 c 0,-0.47243 -0.366,-0.67305 -1.044,-0.57311 -1.32,0.19438 -1.697,1.21183 -0.545,1.47231 1.131,0.25586 1.589,-0.003 1.589,-0.8992 z m 6.731,-3.49499 c 0,-0.60017 -2.325,-1.12148 -3.027,-0.6786 -0.368,0.23217 -0.05,0.47999 0.864,0.6796 2.131,0.46434 2.163,0.46433 2.163,-10e-4 z m 0.962,-2.21758 c 0,-0.50176 0.504,-0.72181 1.654,-0.72181 1.921,0 2.665,-0.74744 1.205,-1.21116 -0.683,-0.21702 -1.602,0.0985 -2.892,0.99321 -2.164,1.50068 -2.254,1.66156 -0.929,1.66156 0.534,0 0.962,-0.3208 0.962,-0.7218 z m 5.184,-3.53468 c 0.138,-0.41414 -0.09,-0.58755 -0.642,-0.4812 -0.471,0.0914 -0.953,0.45761 -1.072,0.81372 -0.138,0.41413 0.09,0.58754 0.642,0.4812 0.471,-0.0914 0.953,-0.45762 1.072,-0.81372 z m 5.6,-3.49747 c -0.334,-0.54049 -2.13,-0.56199 -2.13,-0.0255 0,0.7031 0.51,0.94494 1.465,0.69497 0.511,-0.13364 0.81,-0.4349 0.665,-0.66947 z m 3.64,-1.3889 c 0,-0.26467 -0.217,-0.48121 -0.481,-0.48121 -0.264,0 -0.481,0.21654 -0.481,0.48121 0,0.26466 0.217,0.4812 0.481,0.4812 0.264,0 0.481,-0.21654 0.481,-0.4812 z m 1.338,-1.85047 c 0.137,-0.41414 -0.09,-0.58755 -0.642,-0.4812 -0.471,0.0914 -0.954,0.45761 -1.072,0.81371 -0.138,0.41414 0.09,0.58755 0.641,0.48121 0.472,-0.0915 0.954,-0.45762 1.073,-0.81372 z m 2.859,-1.32748 c -0.16,-0.1599 -0.575,-0.17699 -0.922,-0.038 -0.383,0.15361 -0.269,0.26764 0.291,0.29073 0.507,0.0209 0.791,-0.0928 0.631,-0.25274 z m -4.41,-1.35414 c 0.513,-0.37535 0.801,-0.81385 0.641,-0.97444 -0.161,-0.16058 -0.809,0.13932 -1.442,0.66645 -1.306,1.08872 -0.624,1.35096 0.801,0.30799 z m 7.774,-0.57197 c -0.169,-0.16944 -0.69,-0.1614 -1.156,0.0179 -0.72,0.27645 -0.742,0.39202 -0.145,0.76122 0.737,0.45592 1.862,-0.21771 1.301,-0.77908 z m -2.272,0.0345 c 0,-0.58962 -0.194,-0.63477 -0.962,-0.22367 -0.529,0.28329 -0.962,0.61572 -0.962,0.73874 0,0.12302 0.433,0.22367 0.962,0.22367 0.544,0 0.962,-0.3208 0.962,-0.73874 z m 6.25,-0.70487 c 0,-0.26466 -0.216,-0.4812 -0.481,-0.4812 -0.264,0 -0.48,0.21654 -0.48,0.4812 0,0.26466 0.216,0.4812 0.48,0.4812 0.265,0 0.481,-0.21654 0.481,-0.4812 z m -2.885,-0.5614 c 0,-0.22055 -0.324,-0.40101 -0.721,-0.40101 -0.397,0 -0.721,0.18046 -0.721,0.40101 0,0.22055 0.324,0.401 0.721,0.401 0.397,0 0.721,-0.18045 0.721,-0.401 z m 3.462,-1.45965 c -0.449,-0.44913 -0.705,-0.44913 -1.154,0 -0.449,0.44912 -0.32,0.57744 0.577,0.57744 0.898,0 1.026,-0.12832 0.577,-0.57744 z m 2.096,-1.57883 c 0.787,-0.60139 0.825,-0.78397 0.238,-1.16943 -0.437,-0.28683 -1.011,-0.28782 -1.543,-0.003 -0.467,0.24977 -1.1,0.39707 -1.408,0.32733 -0.309,-0.0697 -0.654,0.12718 -0.769,0.4376 -0.114,0.31042 0.291,0.65988 0.902,0.77658 0.61,0.11669 1.23,0.24166 1.378,0.2777 0.148,0.036 0.689,-0.25516 1.202,-0.64713 z m 1.654,-2.65576 c 0,-0.26466 -0.432,-0.4812 -0.961,-0.4812 -0.529,0 -0.962,0.21654 -0.962,0.4812 0,0.26466 0.433,0.4812 0.962,0.4812 0.529,0 0.961,-0.21654 0.961,-0.4812 z m 3.747,-1.75001 c -0.445,-0.44478 -1.131,-0.65571 -1.576,-0.4846 -1.133,0.43501 -0.418,1.27221 1.086,1.27221 1.182,0 1.218,-0.0583 0.49,-0.78761 z m -7.465,-0.5357 c -0.127,-0.33083 -0.383,-0.60151 -0.568,-0.60151 -0.186,0 -0.708,0.27068 -1.16,0.60151 -0.727,0.53219 -0.662,0.6015 0.568,0.6015 0.915,0 1.311,-0.20578 1.16,-0.6015 z m 4.404,-0.82901 c 0.51,-0.39873 0.829,-0.82311 0.709,-0.94307 -0.319,-0.31925 -3.318,1.66668 -3.318,2.19716 0,0.4784 1.025,-0.0139 2.609,-1.25409 z m 29.461,0.0454 c 0.211,-0.36484 1.498,-1.93477 2.86,-3.48873 5.667,-6.46767 13.15,-17.90204 13.15,-20.09351 0,-0.42734 -0.347,-0.77698 -0.772,-0.77698 -0.489,0 -0.671,0.26474 -0.496,0.7218 0.171,0.44541 0,0.72181 -0.45,0.72181 -0.4,0 -1.768,0.97443 -3.04,2.16541 -1.703,1.59464 -2.702,2.16542 -3.791,2.16542 -1.313,0 -1.612,0.28527 -2.692,2.56887 -0.668,1.41288 -1.547,2.84511 -1.953,3.18274 -0.622,0.51658 -0.805,0.43623 -1.153,-0.50697 -0.403,-1.08994 -0.448,-1.06804 -1.623,0.79424 -1.468,2.32726 -2.566,3.29377 -3.257,2.86642 -0.325,-0.20115 0.02,-0.93923 0.941,-1.98299 1.974,-2.25008 1.88,-3.54181 -0.224,-3.08147 -0.265,0.0579 -0.916,0.15627 -1.447,0.2187 -1.246,0.14632 -2.793,0.98038 -3.58,1.92922 -1.12,1.35007 0.982,0.88751 2.476,-0.54496 2.126,-2.03841 1.577,-0.50395 -1.073,2.9999 -1.761,2.32865 -2.337,3.4652 -2.114,4.16891 0.67,2.11299 5.623,6.62855 7.276,6.63371 0.318,9.9e-4 0.75,-0.29671 0.962,-0.66154 z m -24.927,-0.24629 c 0.455,-0.28838 0.491,-0.51338 0.121,-0.74283 -0.61,-0.37723 -1.494,0.0479 -1.494,0.71845 0,0.55952 0.515,0.56867 1.373,0.0244 z m -2.669,-2.4863 c 0.211,-0.80883 0.134,-0.88688 -0.42,-0.42668 -0.373,0.30978 -0.559,0.75524 -0.414,0.98991 0.392,0.63525 0.548,0.5298 0.834,-0.56323 z m 8.342,0.24735 c 0.331,-0.86462 0.256,-0.96121 -1.061,-1.36533 -1.17,-0.35866 -2.915,0.75967 -2.424,1.55369 0.51,0.82699 3.15,0.68432 3.485,-0.18836 z m -4.402,-1.66345 c 0.376,-0.60901 -0.26,-0.60901 -1.202,0 -0.621,0.40199 -0.609,0.46748 0.09,0.47383 0.447,0.004 0.947,-0.20917 1.11,-0.47383 z m 6.253,-0.48461 c 0.396,-0.64125 -0.984,-1.14651 -2.032,-0.744 -0.71,0.27239 -0.727,0.38219 -0.12,0.76592 0.929,0.58816 1.78,0.57949 2.152,-0.0219 z m 4.565,-1.93897 c 0,-0.49277 -0.259,-0.55988 -2.163,-0.55988 -1.883,0 -2.164,0.0671 -2.164,0.51641 0,0.2311 0.974,0.43974 2.164,0.46364 1.19,0.0239 2.163,-0.16517 2.163,-0.42017 z m 1.182,-1.874 c 0.152,-0.24637 0.06,-0.58516 -0.217,-0.75287 -0.632,-0.39105 -2.407,0.16352 -2.407,0.75205 0,0.584 2.263,0.58471 2.624,8.2e-4 z m 4.107,-2.01698 c 0,-0.58269 -0.341,-0.90349 -0.962,-0.90349 -0.686,0 -0.961,0.3208 -0.961,1.12281 0,0.61754 0.142,1.26529 0.316,1.43943 0.494,0.49427 1.607,-0.65467 1.607,-1.65875 z m -4.447,-1.66546 c -0.459,-0.45857 -1.377,0.2842 -1.036,0.83715 0.203,0.32866 0.472,0.32036 0.817,-0.0252 0.284,-0.28331 0.382,-0.64868 0.219,-0.81192 z m 1.832,-2.9777 c -0.161,-0.1613 -0.666,0.0981 -1.123,0.57641 -0.793,0.8314 -0.78,0.8443 0.293,0.29327 0.618,-0.31702 0.992,-0.70838 0.83,-0.86968 z m 11.764,-1.81969 c 0.346,-0.64761 0.809,-1.17748 1.029,-1.17748 0.604,0 0.483,0.62944 -0.349,1.81774 -0.691,0.98719 -0.681,1.06827 0.121,1.05381 0.979,-0.0177 2.713,-3.19581 1.988,-3.64449 -0.536,-0.33094 -5.687,2.10874 -5.687,2.69304 0,0.51226 1.032,0.88727 1.735,0.63011 0.293,-0.10738 0.817,-0.72511 1.163,-1.37273 z m -7.226,-0.50716 c 0,-0.10402 -0.324,-0.18912 -0.721,-0.18912 -0.397,0 -0.721,0.20975 -0.721,0.4661 0,0.25636 0.324,0.34146 0.721,0.18912 0.397,-0.15234 0.721,-0.36209 0.721,-0.4661 z m 1.924,-0.67032 c 0.396,-0.25656 0.504,-0.46647 0.24,-0.46647 -0.265,0 -0.805,0.20991 -1.202,0.46647 -0.397,0.25655 -0.505,0.46646 -0.24,0.46646 0.264,0 0.805,-0.20991 1.202,-0.46646 z m 12.73,-2.39373 c 0.472,-0.52257 1.24,-1.07109 1.705,-1.21895 0.466,-0.14785 0.958,-0.69473 1.094,-1.21529 0.136,-0.52056 0.592,-0.94647 1.013,-0.94647 0.422,0 0.766,-0.21654 0.766,-0.4812 0,-0.64071 0.07,-0.65971 -2.915,0.77093 -2.989,1.43208 -4.297,2.46446 -4.297,3.39388 0,0.96974 1.655,0.77942 2.634,-0.3029 z"
       id="path1" /></g></svg>
