<?xml version="1.0" encoding="UTF-8" standalone="no"?>
<!-- Created with Inkscape (http://www.inkscape.org/) -->

<svg
   width="61.221001mm"
   height="62.240601mm"
   viewBox="0 0 61.221 62.240601"
   version="1.1"
   id="svg1"
   xml:space="preserve"
   inkscape:export-filename="give.svg"
   inkscape:export-xdpi="96"
   inkscape:export-ydpi="96"
   xmlns:inkscape="http://www.inkscape.org/namespaces/inkscape"
   xmlns:sodipodi="http://sodipodi.sourceforge.net/DTD/sodipodi-0.dtd"
   xmlns="http://www.w3.org/2000/svg"
   xmlns:svg="http://www.w3.org/2000/svg"><sodipodi:namedview
     id="namedview1"
     pagecolor="#ffffff"
     bordercolor="#000000"
     borderopacity="0.25"
     inkscape:showpageshadow="2"
     inkscape:pageopacity="0.0"
     inkscape:pagecheckerboard="0"
     inkscape:deskcolor="#d1d1d1"
     inkscape:document-units="mm"><inkscape:page
       x="0"
       y="0"
       width="61.221001"
       height="62.240601"
       id="page2"
       margin="0"
       bleed="0" /></sodipodi:namedview><defs
     id="defs1" /><g
     inkscape:label="Layer 1"
     inkscape:groupmode="layer"
     id="layer1"
     transform="translate(1472.671,3650.7208)"><path
       id="path936"
       d="m -1472.5017,-3650.5514 h 60.8824 v -0.1694 h -60.8824 z"
       style="fill:#000000;fill-opacity:1;fill-rule:evenodd;stroke:none;stroke-width:0.352778" /><path
       id="path941-9"
       d="m -1472.671,-3588.6495 h 0.1693 v -61.8984 h -0.1693 z"
       style="fill:#000000;fill-opacity:1;fill-rule:evenodd;stroke:none;stroke-width:0.352778" /><path
       id="path942"
       d="m -1411.6193,-3588.6495 h 0.1693 v -61.8984 h -0.1693 z"
       style="fill:#000000;fill-opacity:1;fill-rule:evenodd;stroke:none;stroke-width:0.352778" /><path
       id="path952"
       d="m -1472.5017,-3588.4802 h 60.8824 v -0.1693 h -60.8824 z"
       style="fill:#000000;fill-opacity:1;fill-rule:evenodd;stroke:none;stroke-width:0.352778" /><g
       id="g1623"
       transform="matrix(0.26458333,0,0,0.26458333,-5359.9858,-3729.6407)"><path
         style="fill:#000000"
         d="m 14781.005,512.33687 c -4.177,-2.27219 -3.979,-1.28507 -3.808,-18.98611 0.08,-8.59895 0.08,-19.51315 0,-24.25376 l -0.157,-8.61929 -1.948,-2.11585 c -1.071,-1.16372 -3.409,-2.97083 -5.196,-4.01581 -1.786,-1.04497 -3.385,-2.12194 -3.553,-2.39325 -0.437,-0.7088 -3.841,-2.81524 -7.189,-4.44844 -1.585,-0.77343 -3.963,-2.10731 -5.284,-2.96419 -1.321,-0.85688 -4.272,-2.77378 -6.557,-4.25979 -4.351,-2.82954 -7.475,-4.49143 -7.786,-4.14178 -0.339,0.38209 -0.931,15.50146 -1.091,27.86747 -0.218,16.8756 -0.33,18.73976 -1.163,19.26721 -1.175,0.74442 -2.28,0.51121 -3.536,-0.74638 -0.66,-0.66146 -1.419,-1.20265 -1.686,-1.20265 -1.018,0 -1.498,-1.97924 -1.25,-5.16205 0.139,-1.79108 0.349,-12.59443 0.465,-24.00743 0.226,-22.13047 0.263,-21.73511 -2.144,-22.94222 -0.904,-0.45329 -1.156,-0.91076 -1.04,-1.88897 0.08,-0.70996 -0.06,-1.66513 -0.313,-2.12261 -0.274,-0.49165 -0.295,-1.27775 -0.05,-1.92244 0.249,-0.6557 0.229,-1.20504 -0.05,-1.37743 -0.87,-0.53889 0.41,-1.96836 2.995,-3.34484 1.402,-0.74636 4.603,-2.4326 7.113,-3.74721 2.51,-1.3146 4.78,-2.55026 5.044,-2.74592 0.264,-0.19566 2.858,-1.44667 5.765,-2.78002 10.794,-4.95217 15.092,-7.0023 23.157,-11.04435 l 8.265,-4.14279 1.866,1.23687 c 1.027,0.68028 3.576,2.10171 5.666,3.15874 2.09,1.05703 4.63,2.49068 5.644,3.1859 1.015,0.69521 3.069,1.88332 4.564,2.64024 1.495,0.75692 4.117,2.42784 5.825,3.71315 3.112,2.34106 5.441,3.70358 10.825,6.33085 15.529,7.5787 17.093,8.4325 17.877,9.76113 l 0.812,1.37693 1.057,-3.95803 c 0.582,-2.17692 1.805,-6.01949 2.719,-8.53904 l 1.662,-4.58101 -0.924,-5.0402 c -0.634,-3.45756 -0.832,-6.0143 -0.631,-8.14238 l 0.292,-3.10217 -1.073,0.9374 c -0.59,0.51557 -1.722,1.66179 -2.515,2.54716 -1.755,1.95813 -2.554,2.27745 -8.691,3.4731 -3.128,0.6094 -4.989,1.2115 -5.301,1.71443 -1.845,2.97669 -2.652,3.91642 -4.456,5.186 -1.635,1.1507 -2.555,1.44075 -4.636,1.46106 -2.997,0.0293 -3.318,-0.17729 -3.318,-2.13943 0,-1.66872 -0.619,-1.80418 -3.535,-0.77379 -2.969,1.04892 -4.429,-0.45775 -3.012,-3.10854 0.564,-1.05469 4.611,-3.21369 9.427,-5.02903 1.784,-0.67237 3.639,-1.64834 4.123,-2.16882 0.485,-0.52048 1.099,-0.94633 1.365,-0.94633 0.266,0 2.041,-0.7264 3.944,-1.61422 1.903,-0.88782 4.217,-1.86962 5.142,-2.18178 0.925,-0.31215 2.283,-1.06097 3.019,-1.66404 1.329,-1.09016 1.897,-2.98489 3.699,-12.33921 0.734,-3.80676 1.911,-6.45655 3.502,-7.88413 1.923,-1.72478 6.158,-3.66132 8.008,-3.66132 0.763,0 1.478,-0.2706 1.589,-0.60133 0.213,-0.63661 -1.988,-5.20452 -3.153,-6.54363 -1.209,-1.38839 -1.903,-4.38137 -1.566,-6.74258 0.176,-1.22539 0.369,-4.52867 0.431,-7.34062 0.1,-4.5937 0.256,-5.39935 1.539,-7.9375 1.274,-2.52339 1.76,-2.99569 4.549,-4.42548 3.585,-1.83781 5.15,-1.85007 9.803,-0.0768 3.581,1.36449 6.578,4.28089 7.656,7.44801 1.148,3.37529 1.119,13.30082 -0.05,15.63657 -0.978,1.96111 -2.67,2.48093 -3.432,1.05456 -0.562,-1.05165 -0.268,-1.53563 0.935,-1.53563 0.954,0 1.401,-1.32611 1.411,-4.18089 0,-2.06793 -0.638,-3.11205 -1.129,-1.8296 -0.326,0.84883 -2.5,0.96456 -2.996,0.15949 -0.19,-0.30763 -0.479,-1.21155 -0.642,-2.00871 -0.245,-1.19974 -1.08,-1.93187 -4.847,-4.25056 -2.503,-1.54065 -4.861,-2.8015 -5.24,-2.80189 -0.91,-9.4e-4 -4.979,1.95659 -5.429,2.61195 -0.194,0.28282 -0.356,1.0013 -0.36,1.59662 0,0.91281 0.25,1.08238 1.635,1.08238 2.145,0 3.162,0.41658 3.162,1.29549 0,0.54125 -0.486,0.67281 -2.032,0.54986 -1.678,-0.13354 -2.062,-0.004 -2.209,0.74284 -0.214,1.09137 0.665,1.72405 2.411,1.73399 0.711,0.004 1.411,0.19932 1.556,0.43392 0.494,0.80147 -1.12,1.57829 -2.947,1.41762 l -1.823,-0.16046 0.08,2.33362 c 0.06,1.59076 0.39,2.66271 1.049,3.36742 0.532,0.5686 1.384,2.01102 1.894,3.20539 1.309,3.06483 2.062,3.54493 5.413,3.45244 3.278,-0.0905 6.695,-1.84142 6.695,-3.43092 0,-1.0903 1.328,-2.56021 1.96,-2.16913 0.745,0.46099 0.488,2.78017 -0.485,4.37767 -1.2,1.97095 -5.24,3.53586 -9.128,3.53586 -2.122,0 -2.885,0.18694 -3.105,0.76093 -1.025,2.67509 0.877,5.49286 3.707,5.49286 1.192,0 2.301,-0.52677 4.054,-1.92416 2.433,-1.94019 3.093,-2.85328 3.26,-4.51606 0.05,-0.49941 0.444,-1.10548 0.875,-1.34682 0.431,-0.24134 0.783,-0.75276 0.783,-1.13649 0,-1.59291 1.405,-0.52921 2.191,1.65834 0.465,1.29582 2.103,3.83942 3.639,5.65246 4.739,5.59166 6.396,10.01915 8.633,23.07171 0.231,1.3514 0.742,3.22726 1.135,4.16857 0.928,2.22352 2.965,11.1344 3.079,13.46894 0.05,0.99786 -0.162,2.72968 -0.468,3.84848 -0.307,1.11881 -0.525,3.0996 -0.485,4.40176 0.1,3.14368 -1.598,8.17093 -3.174,9.41291 -1.561,1.22897 -3.039,1.2433 -3.355,0.0325 -0.134,-0.5143 -0.701,-1.00137 -1.26,-1.08239 -0.559,-0.081 -1.324,-0.69993 -1.702,-1.37538 -0.625,-1.11859 -0.567,-1.49285 0.645,-4.19776 1.167,-2.60339 1.288,-3.31227 0.985,-5.74729 -0.19,-1.52769 -0.369,-3.57494 -0.398,-4.54945 -0.03,-0.97451 -0.225,-1.66529 -0.436,-1.53506 -0.21,0.13023 -0.413,-0.26307 -0.45,-0.874 -0.04,-0.61093 -0.109,-1.54373 -0.158,-2.0729 -0.05,-0.52916 -0.127,-2.599 -0.172,-4.59963 -0.07,-2.90663 -0.277,-3.84648 -1.05,-4.6775 -0.532,-0.572 -1.721,-2.29052 -2.641,-3.81893 -0.92,-1.52842 -1.71,-2.45422 -1.755,-2.05735 -0.04,0.39688 -0.109,3.86051 -0.142,7.69697 -0.04,4.27207 -0.301,7.6771 -0.68,8.78603 -0.561,1.64084 -0.502,2.117 0.628,5.07751 0.685,1.79678 1.546,4.77034 1.912,6.60792 1.614,8.10397 4.197,17.28839 7.943,28.24431 0.793,2.31971 1.682,5.67511 1.976,7.45644 0.293,1.78133 1.304,6.81065 2.247,11.17628 2.355,10.90952 2.328,10.52215 0.884,12.6492 -0.681,1.00394 -1.238,2.45401 -1.238,3.22238 0,0.78378 -0.474,1.90708 -1.081,2.55898 -1.218,1.30928 -6.351,4.17929 -7.476,4.17929 -0.404,0 -1.076,0.29113 -1.493,0.64696 -0.887,0.75681 -4.407,2.20364 -6.646,2.73232 -2.19,0.51687 -4.622,-1.11851 -4.83,-3.24781 -0.192,-1.97094 0.837,-3.55651 4.581,-7.05786 2.169,-2.02914 2.957,-3.07959 2.764,-3.68773 -0.148,-0.4677 -0.05,-0.98376 0.209,-1.14679 0.264,-0.16303 0.366,-0.59231 0.227,-0.95395 -0.577,-1.50638 0.803,-1.13637 1.438,0.38549 0.617,1.47785 0.975,1.71454 3.257,2.15515 3.517,0.67874 6.537,0.57545 6.847,-0.23419 0.138,-0.36079 0.568,-0.65599 0.955,-0.65599 1.12,0 1.318,-1.5579 0.587,-4.61647 -0.374,-1.56198 -0.934,-4.78826 -1.245,-7.16951 -0.311,-2.38125 -0.874,-5.53437 -1.251,-7.00694 -0.377,-1.47257 -0.689,-3.42086 -0.692,-4.32955 0,-1.57436 -1.144,-5.76498 -2.408,-8.86806 -0.323,-0.79375 -0.763,-1.87613 -0.976,-2.4053 -0.213,-0.52917 -0.835,-2.5857 -1.382,-4.57008 -0.547,-1.98437 -1.563,-5.55625 -2.258,-7.9375 -0.695,-2.38125 -1.895,-7.03551 -2.666,-10.3428 -1.458,-6.24901 -3.463,-10.52222 -4.763,-10.15 -0.629,0.18029 -11.957,0.10486 -15.035,-0.10012 -1.357,-0.0903 -1.439,0.0421 -3.24,5.19898 -1.789,5.12044 -2.625,8.15536 -3.776,13.71023 -0.302,1.45521 -0.95,3.9447 -1.44,5.5322 -0.509,1.64739 -1.128,5.98379 -1.442,10.10227 -0.302,3.96875 -0.742,9.38068 -0.977,12.02652 -1.366,15.36837 -1.361,15.43346 1.495,17.04079 2.666,1.50052 7.095,1.87637 9.471,0.8037 1.773,-0.80093 1.809,-0.87275 2.641,-5.23926 0.97,-5.08713 1.611,-11.46662 2.015,-20.06167 0.156,-3.30729 0.401,-7.85332 0.545,-10.10228 0.143,-2.24895 0.284,-4.6302 0.312,-5.29166 0.08,-1.78399 -0.629,-5.24674 -1.132,-5.55807 -0.677,-0.41892 -0.518,-2.43558 0.241,-3.06657 0.982,-0.81654 2.683,1.14588 2.683,3.09584 0,0.82813 0.301,2.57324 0.669,3.87804 0.368,1.30479 0.689,3.25002 0.714,4.32272 0.06,2.76203 1.121,7.71064 3.08,14.40569 0.929,3.175 2.268,8.04574 2.977,10.82386 0.708,2.77813 1.674,6.24176 2.145,7.69697 0.471,1.45521 1.106,3.42971 1.409,4.38778 0.591,1.86119 0.285,3.46546 -0.604,3.16995 -0.298,-0.099 -0.733,-0.81165 -0.967,-1.58378 -0.234,-0.77213 -0.807,-2.26978 -1.274,-3.32811 -0.466,-1.05834 -1.765,-5.82084 -2.885,-10.58334 -1.746,-7.41932 -2.645,-10.83586 -4.747,-18.03977 -0.486,-1.66488 -0.923,2.24104 -1.479,13.22917 -0.242,4.7625 -0.761,10.17443 -1.154,12.02651 -0.393,1.85208 -0.842,4.16799 -0.997,5.14646 -0.237,1.48746 -0.556,1.87779 -1.948,2.38167 -1.532,0.55494 -1.664,0.75974 -1.664,2.58693 0,2.47209 -1.428,3.96815 -4.398,4.6069 -1.148,0.24694 -3.305,0.89488 -4.793,1.43988 l -2.706,0.99089 -0.217,2.61894 c -0.226,2.73829 -1.477,4.62419 -3.941,5.94509 -0.972,0.52089 -1.371,0.4268 -3.129,-0.73778 -1.985,-1.31583 -2.013,-1.37298 -1.944,-4.01675 0.111,-4.23934 0.107,-4.25428 -1.091,-4.02506 -2.689,0.51488 -5.386,-2.14572 -4.14,-4.08471 0.292,-0.45427 1.695,-1.67183 3.117,-2.7057 l 2.586,-1.87976 0.1,-6.5388 c 0.06,-3.59634 0.07,-7.40471 0.04,-8.46305 -0.136,-4.44502 -0.167,-22.29161 -0.04,-22.67444 0.25,-0.75152 -0.789,-0.70839 -2.743,0.11383 -5.767,2.42643 -14.148,6.28046 -15.613,7.17993 -0.924,0.56772 -2.762,1.43824 -4.083,1.93448 -1.321,0.49624 -4.147,1.88459 -6.28,3.08521 -2.134,1.20063 -4.511,2.51502 -5.285,2.92087 -1.218,0.63958 -1.444,1.08827 -1.699,3.36742 -0.162,1.44624 -0.215,14.21106 -0.119,28.36626 0.1,14.15521 0.04,26.22382 -0.122,26.81913 -0.397,1.44293 -2.176,1.39442 -4.99,-0.13605 z m 3.144,-18.98611 c -0.17,-6.48229 -0.331,-17.46851 -0.357,-24.41382 -0.03,-6.94531 -0.206,-12.62784 -0.398,-12.62784 -1.01,0 -1.387,1.53138 -1.194,4.84448 0.115,1.96574 0.229,13.60054 0.255,25.8551 0.02,12.25456 0.181,22.63413 0.347,23.06571 0.189,0.49461 0.551,-0.27301 0.979,-2.07648 0.537,-2.26526 0.613,-5.31585 0.368,-14.64715 z m -3.617,-2.99334 c -0.07,-9.86304 -0.189,-18.7987 -0.266,-19.85704 -0.08,-1.05833 -0.177,-4.14313 -0.224,-6.85511 -0.09,-5.16774 -0.92,-6.94666 -1.011,-2.16477 -0.03,1.52135 -0.131,3.52377 -0.226,4.44981 -0.1,0.92604 0.07,3.19905 0.369,5.05114 0.568,3.5247 0.697,22.82153 0.211,31.472 -0.19,3.39008 -0.107,5.22429 0.257,5.66408 0.297,0.35774 0.647,0.54293 0.778,0.41155 0.131,-0.13137 0.182,-8.30862 0.112,-18.17166 z m 47.362,-1.13066 c 0.156,-0.62233 0.17,-6.71394 0.03,-13.5369 -0.141,-6.88419 -0.02,-15.83103 0.265,-20.10235 0.573,-8.50768 0.721,-20.25737 0.26,-20.71832 -0.162,-0.16262 -0.775,-0.14321 -1.361,0.0431 l -1.066,0.3388 0.262,14.2572 c 0.144,7.84146 0.121,19.66914 -0.05,26.28372 -0.362,13.91968 -0.303,15.21164 0.68,14.83377 0.383,-0.14715 0.824,-0.77672 0.98,-1.39906 z m -3.822,-2.02609 c 0.375,-7.12191 0.654,-47.53793 0.338,-48.83172 -0.753,-3.07474 -0.967,3.90541 -0.762,24.91553 0.112,11.48019 0,21.76235 -0.239,23.10518 -0.432,2.37066 -0.313,3.93667 0.257,3.36665 0.157,-0.15794 0.34,-1.30798 0.406,-2.55564 z m 36.96,0.88919 c 1.562,-0.77684 4.059,-1.86626 5.551,-2.42094 3.187,-1.18547 6.799,-3.67001 6.528,-4.49076 -0.117,-0.35597 -1.771,-0.68489 -4.336,-0.86226 -2.409,-0.16654 -4.48,-0.56335 -4.941,-0.94652 -0.69,-0.57358 -0.917,-0.5047 -1.735,0.52729 -0.518,0.65288 -2.115,2.42168 -3.548,3.93067 -3.183,3.35043 -3.51,5.44634 -0.882,5.63696 0.289,0.0209 1.802,-0.59761 3.363,-1.37444 z m -39.194,-6.81285 v -1.97149 l -1.562,0.98673 c -2.05,1.29616 -2.255,2.34598 -0.508,2.60892 0.742,0.11174 1.511,0.2356 1.709,0.27524 0.199,0.0397 0.361,-0.81509 0.361,-1.8994 z m 16.092,-0.84342 c 2.173,-0.71732 2.402,-0.93087 2.402,-2.23624 0,-1.4296 -0.03,-1.44556 -3.122,-1.69585 -1.717,-0.13898 -3.845,-0.64201 -4.728,-1.11786 -0.884,-0.47585 -1.676,-0.7951 -1.762,-0.70945 -0.164,0.16531 -0.345,4.56805 -0.276,6.74439 l 0.04,1.29699 2.522,-0.74446 c 1.387,-0.40945 3.602,-1.10134 4.923,-1.53752 z m -103.328,-12.93983 c 0.805,-27.31654 0.83,-35.23769 0.111,-35.23769 -1.097,0 -1.221,2.1322 -1.26,21.64772 -0.02,10.18646 -0.132,19.60322 -0.246,20.92614 -0.218,2.51706 0.04,4.08902 0.682,4.08902 0.207,0 0.528,-5.14134 0.713,-11.42519 z m 2.08,-0.70888 c -0.101,-1.13147 -0.186,-0.3254 -0.187,1.79126 0,2.11667 0.08,3.04242 0.184,2.05723 0.103,-0.9852 0.105,-2.71702 0,-3.84849 z m 50.568,-15.04304 c 11.611,-6.21347 21.332,-10.94599 26.674,-12.98588 3.831,-1.46315 4.333,-1.7 11.517,-5.43569 3.157,-1.64184 5.284,-3.03837 5.284,-3.46951 0,-1.24961 -2.07,-0.60398 -9.114,2.84333 -3.706,1.81387 -8.207,3.98385 -10.002,4.82218 -1.795,0.83832 -5.105,2.58491 -7.355,3.8813 -2.249,1.2964 -4.564,2.50427 -5.143,2.68416 -0.578,0.17989 -1.593,0.70312 -2.253,1.16272 -0.661,0.4596 -3.147,1.74749 -5.524,2.86199 -8.188,3.83745 -12.491,6.22379 -12.655,7.01817 -0.238,1.15689 1.005,0.66619 8.571,-3.38277 z m -11.486,2.72297 c -0.259,-0.48519 -2.159,-1.86405 -4.222,-3.06413 -2.062,-1.20008 -4.769,-2.96147 -6.016,-3.9142 -1.246,-0.95273 -3.623,-2.4141 -5.283,-3.24748 -1.659,-0.83339 -4.122,-2.45531 -5.474,-3.60427 -2.316,-1.96831 -8.149,-5.7909 -12.434,-8.1485 -1.057,-0.5814 -4.043,-2.38637 -6.635,-4.01105 -2.592,-1.62468 -4.931,-2.95396 -5.199,-2.95396 -1.339,0 0.16,1.85573 2.713,3.35729 1.584,0.93161 4.068,2.5895 5.52,3.6842 1.452,1.09469 3.505,2.45727 4.561,3.02794 1.057,0.57068 3.543,2.09322 5.525,3.38343 4.708,3.06526 8.072,5.04955 12.49,7.3658 1.981,1.03903 4.683,2.71184 6.004,3.71737 2.618,1.99209 7.94,5.28651 8.544,5.28849 0.208,6.8e-4 0.165,-0.39574 -0.09,-0.88093 z m -38.606,-5.97295 c -0.107,-0.85989 -0.194,-0.15634 -0.194,1.56345 0,1.71979 0.09,2.42334 0.194,1.56345 0.106,-0.8599 0.106,-2.267 0,-3.1269 z m 53.086,-2.52031 c 15.168,-7.50013 19.477,-9.8851 19.75,-10.93158 0.166,-0.63439 0.621,-0.85155 1.625,-0.77494 2.103,0.16043 18.032,-7.5009 18.28,-8.79202 0.1,-0.51597 -2.925,-2.28834 -10.326,-6.05193 -10.968,-5.57802 -15.149,-7.90205 -16.315,-9.06959 -0.384,-0.385 -2.252,-1.60494 -4.15,-2.71096 -1.898,-1.10603 -4.982,-2.94727 -6.854,-4.09165 -1.872,-1.14438 -3.521,-2.08069 -3.665,-2.08069 -0.143,0 -2.02,-0.97415 -4.169,-2.16478 -2.15,-1.19062 -4.29,-2.16477 -4.756,-2.16477 -0.466,0 -2.462,0.83418 -4.437,1.85374 -1.974,1.01956 -4.454,2.29903 -5.511,2.84327 -1.056,0.54424 -3.218,1.57706 -4.803,2.29516 -14.255,6.45737 -34.841,16.87573 -35.52,17.97701 -0.131,0.2113 0.59,0.63243 1.601,0.93585 1.012,0.30342 2.62,1.17289 3.574,1.93215 0.954,0.75927 3.308,2.30886 5.231,3.44355 8.654,5.10636 14.266,8.73175 16.326,10.54841 1.228,1.08182 3.058,2.30975 4.069,2.72873 1.01,0.41897 3.782,2.0814 6.16,3.69427 6.542,4.43733 9.449,6.01727 11.16,6.06468 1.07,0.0297 5.028,-1.67542 12.73,-5.48391 z m -5.615,1.23064 c -0.152,-0.24631 -0.06,-0.5838 0.212,-0.74999 0.268,-0.16619 0.488,0.0353 0.488,0.44782 0,0.845 -0.288,0.96942 -0.7,0.30217 z m -2.94,-23.32544 c -2.317,-1.01031 -4.963,-3.5911 -6.212,-6.06058 -1.028,-2.03106 -1.1,-2.56539 -0.716,-5.28594 0.484,-3.4323 2.419,-6.37813 4.372,-6.65574 1.649,-0.23447 4.274,-2.36487 4.274,-3.46866 0,-1.09305 0.832,-1.18699 2.086,-0.23554 0.487,0.36933 1.784,0.8162 2.882,0.99305 2.697,0.43414 3.959,1.32197 5.631,3.96208 1.946,3.07389 1.957,6.6269 0.03,10.87732 -2.423,5.34986 -7.746,7.88177 -12.35,5.87401 z m 6.107,-2.28055 c 3.757,-1.12714 6.703,-7.10716 5.607,-11.37944 -0.569,-2.21568 -1.666,-3.57997 -3.745,-4.65643 -1.546,-0.80046 -1.646,-0.79902 -2.253,0.0323 -0.349,0.47853 -0.635,1.46352 -0.635,2.18887 0,0.91739 -0.307,1.41645 -1.009,1.63956 -1.564,0.49696 -2.163,-0.463 -1.204,-1.9285 0.979,-1.49628 0.628,-2.38989 -0.667,-1.69613 -0.495,0.2653 -1.292,0.48956 -1.772,0.49837 -2.145,0.0394 -5.436,4.45308 -5.436,7.29092 0,1.91741 0.977,4.31838 2.303,5.65819 2.852,2.88272 5.07,3.47476 8.811,2.35229 z m -5.229,-10.26062 c -1.341,-0.96955 -1.45,-2.65148 -0.172,-2.65148 0.5,0 1.044,0.3518 1.209,0.78179 0.237,0.61904 0.701,0.7176 2.225,0.47343 1.499,-0.23992 1.99,-0.1419 2.213,0.4416 0.399,1.03945 0.05,1.26987 -2.329,1.51941 -1.425,0.14974 -2.401,-0.0254 -3.146,-0.56475 z m -5.405,-10.56059 c 0,-0.41249 0.216,-0.74999 0.481,-0.74999 0.264,0 0.48,0.20371 0.48,0.45267 0,0.24897 -0.216,0.58646 -0.48,0.74999 -0.265,0.16352 -0.481,-0.0402 -0.481,-0.45267 z m -39.521,36.42268 c -0.104,-0.99809 -0.191,-0.29937 -0.193,1.55271 0,1.85209 0.08,2.66871 0.189,1.81471 0.106,-0.85399 0.108,-2.36933 0,-3.36742 z m 135.779,-13.96783 c 0.377,-0.73109 0.84,-2.35467 1.027,-3.60795 0.312,-2.08199 0.257,-2.2787 -0.634,-2.2787 -0.537,0 -1.293,-0.1215 -1.679,-0.27 -0.477,-0.18339 -0.876,0.22955 -1.245,1.28732 -0.298,0.85652 -0.398,1.41285 -0.221,1.23629 0.715,-0.71618 1.61,0.87135 1.61,2.85643 0,1.15822 0.102,2.10587 0.228,2.10587 0.125,0 0.536,-0.59817 0.914,-1.32926 z m 1.428,-10.93779 c 0.234,-0.79375 0.616,-1.81908 0.849,-2.27851 0.555,-1.09403 0.536,-1.45585 -0.06,-1.08891 -0.272,0.16868 -0.48,-0.23634 -0.48,-0.93614 0,-0.67839 -0.787,-4.20892 -1.749,-7.84562 -0.963,-3.6367 -1.915,-7.47809 -2.118,-8.53643 -2.635,-13.78533 -3.769,-16.75237 -8.376,-21.92276 -1.457,-1.63528 -2.649,-3.27065 -2.649,-3.63414 0,-0.99853 -0.762,-0.79351 -1.567,0.42149 -1.349,2.03624 -3.696,4.17915 -5.696,5.20092 -3.729,1.90494 -8.277,0.18535 -9.004,-3.40455 -0.304,-1.50005 -0.521,-1.69142 -2.065,-1.82185 -0.953,-0.0805 -2.02,0.13467 -2.385,0.48107 -0.364,0.34473 -1.648,1.42058 -2.854,2.39076 -2.458,1.9772 -2.903,3.09002 -3.81,9.54096 -0.316,2.24896 -0.764,4.57352 -0.995,5.1657 -0.5,1.27889 -0.117,2.53127 0.773,2.53127 0.408,0 0.585,0.47373 0.494,1.32291 -0.128,1.19175 -0.327,1.32292 -2.009,1.32292 -1.1,0 -2.58,0.44426 -3.604,1.08239 -0.956,0.59531 -1.997,1.08238 -2.314,1.08238 -0.976,0 -7.718,3.27766 -7.718,3.75231 0,0.24612 0.419,0.98025 0.93,1.6314 0.929,1.18177 0.937,1.18278 4.602,0.55408 7.602,-1.30384 8.795,-1.96569 12.035,-6.6765 1.819,-2.64408 1.858,-2.79371 2.111,-8.07329 0.239,-4.97246 0.331,-5.37928 1.219,-5.37928 0.863,0 0.99,0.41605 1.246,4.08901 0.157,2.24896 0.108,5.38788 -0.11,6.97538 -0.907,6.61095 -0.203,17.01602 1.251,18.47154 1.076,1.07779 11.626,1.57266 14.708,0.68992 3.985,-1.14158 4.05,-1.33664 3.977,-11.92235 -0.04,-6.22741 -0.254,-9.61443 -0.647,-10.34876 -0.471,-0.88251 -0.452,-1.22247 0.1,-1.77476 0.704,-0.70446 2.294,-0.42478 2.294,0.40339 0,1.29254 3.667,7.8427 5.589,9.9835 l 2.189,2.43879 0.196,5.38589 c 0.166,4.56476 1.168,10.68301 1.978,12.0759 0.125,0.21335 0.904,0.32159 1.734,0.24053 1.204,-0.11773 1.593,-0.43767 1.933,-1.59056 z m -61.491,-7.53383 c 4.225,-2.89858 5.078,-4.79109 3.184,-7.06735 l -0.941,-1.13147 -4.395,1.51186 c -4.5,1.54816 -8.583,3.63755 -8.583,4.39285 0,0.2329 0.555,0.21233 1.233,-0.0457 1.666,-0.63425 7.758,-0.59876 8.157,0.0475 0.175,0.28417 -0.136,1.00167 -0.692,1.59445 -0.556,0.59278 -1.011,1.22619 -1.011,1.40757 0,0.66752 1.575,0.30073 3.048,-0.70972 z m 48.081,-61.0054 c 1.418,-0.54005 1.575,-1.76092 0.632,-4.93374 -0.87,-2.92485 -3.458,-5.29207 -7.462,-6.82435 -3.711,-1.41985 -5.572,-1.28759 -8.401,0.59702 -1.376,0.91692 -3.713,3.78656 -3.713,4.55993 0,0.77239 2.597,-0.17127 3.909,-1.42029 l 1.266,-1.20604 3.309,2.32274 c 1.82,1.27751 4.169,2.7557 5.219,3.28487 2.035,1.02539 3.549,2.50209 3.575,3.48769 0.02,0.72356 0.1,0.7297 1.666,0.13217 z m 26.602,58.34887 c 0.347,-0.13897 0.761,-0.12188 0.921,0.038 0.16,0.15985 -0.124,0.27355 -0.631,0.25266 -0.559,-0.0231 -0.673,-0.13707 -0.29,-0.29064 z m 2.05,-0.43306 c 0.02,-0.56041 0.137,-0.6744 0.29,-0.29064 0.139,0.34726 0.122,0.76218 -0.04,0.92203 -0.16,0.15985 -0.273,-0.12427 -0.252,-0.63139 z m -41.313,-44.10432 c -1.456,-0.74381 -1.667,-1.35576 -0.853,-2.47101 0.606,-0.82945 0.684,-0.83184 1.469,-0.0453 0.77,0.77058 0.892,0.77355 1.7,0.0412 0.716,-0.6492 0.965,-0.67593 1.4,-0.15069 0.766,0.9247 0.17,2.61867 -1.036,2.94269 -1.365,0.36652 -1.336,0.36991 -2.68,-0.31685 z m 1.766,-8.652 c -0.451,-1.22756 0.167,-1.7696 1.713,-1.50302 2.708,0.46691 2.905,0.58926 2.243,1.38845 -0.72,0.86836 -3.649,0.95318 -3.956,0.11457 z m -0.316,-4.05307 c -0.668,-0.49181 -0.58,-0.63749 0.674,-1.11943 1.633,-0.62782 5.237,0.14166 4.934,1.05333 -0.236,0.70883 -4.665,0.76103 -5.608,0.0661 z"
         id="path2" /></g></g></svg>
