<?xml version="1.0" encoding="UTF-8" standalone="no"?>
<!-- Created with Inkscape (http://www.inkscape.org/) -->

<svg
   width="231.38646"
   height="235.24007"
   viewBox="0 0 61.221 62.240601"
   version="1.1"
   id="svg1"
   xml:space="preserve"
   xmlns="http://www.w3.org/2000/svg"
   xmlns:svg="http://www.w3.org/2000/svg"><defs
     id="defs1" /><g
     id="layer1"
     transform="translate(1472.671,3650.7208)"><g
       id="g1236"
       transform="matrix(0.26458333,0,0,0.26458333,-4774.6463,-3672.2261)"><path
         style="fill:#000000"
         d="m 12540.721,274.59372 c 0,-0.41225 0.22,-0.61365 0.489,-0.44756 0.269,0.16609 0.365,0.50338 0.212,0.74954 -0.412,0.66685 -0.701,0.54251 -0.701,-0.30198 z m 53.194,-23.13563 c -4.004,-0.16555 -11.987,-1.03621 -15.164,-1.65371 -4.502,-0.87514 -4.741,-1.05158 -4.907,-3.62557 l -0.147,-2.28649 -5.537,-2.19344 c -7.749,-3.07044 -15.048,-6.8725 -19.063,-9.93 -3.339,-2.5431 -5.651,-5.40865 -7.9,-9.79167 -0.61,-1.18992 -1.442,-2.81033 -1.849,-3.60091 -0.406,-0.79059 -1.221,-2.14807 -1.811,-3.01664 -1.091,-1.60492 -3.196,-6.86594 -3.797,-9.48842 -0.182,-0.79328 -0.406,-1.76685 -0.499,-2.16349 -0.09,-0.39664 -0.636,-2.34378 -1.209,-4.32698 -0.879,-3.04563 -0.999,-4.37875 -0.774,-8.5811 0.178,-3.29672 0.52,-5.35912 1.014,-6.11297 0.411,-0.62572 0.747,-1.60144 0.747,-2.16826 0,-0.85232 0.203,-0.97968 1.174,-0.73632 0.645,0.16185 1.309,0.0755 1.474,-0.19181 0.166,-0.26735 1.208,-0.94326 2.317,-1.50202 1.108,-0.55876 3.01,-1.51481 4.226,-2.12456 4.899,-2.45677 17.481,-5.70682 28.117,-7.263 8.343,-1.22066 29.115,-1.22992 36.826,-0.0164 14.769,2.32412 23.701,4.79044 30.167,8.32982 3.505,1.91906 6.901,4.59206 6.901,5.43283 0,0.26421 0.35,0.34627 0.778,0.18235 0.627,-0.24052 0.71,-0.0868 0.429,0.79646 -0.222,0.70057 -0.17,0.98522 0.144,0.7909 0.271,-0.16698 0.569,-0.0741 0.662,0.20636 0.09,0.28047 0.595,0.57221 1.115,0.64831 0.829,0.12164 0.961,0.59068 1.091,3.8824 0.193,4.92361 -0.292,6.35564 -6.081,17.93643 -2.692,5.38647 -2.663,5.33535 -5.325,9.24084 -7.923,11.62273 -12.24,16.02765 -20.95,21.37635 -3.694,2.26794 -7.555,4.37491 -8.582,4.68214 -1.768,0.52882 -1.852,0.64123 -1.576,2.10874 0.241,1.28476 0.08,1.71746 -0.953,2.52743 -2.317,1.82029 -6.517,2.82018 -11.058,2.63242 z m 7.918,-2.69748 c 4.279,-2.12175 2.41,-3.12368 -3.703,-1.98471 -3.908,0.72829 -12.331,0.7048 -15.795,-0.044 -1.782,-0.38513 -3.274,0.82882 -1.791,1.45681 1.853,0.78457 8.351,1.5421 13.612,1.58682 4.801,0.0408 5.82,-0.0938 7.677,-1.01487 z m -3.345,-4.34689 c 4.559,-0.41193 8.532,-1.41753 11.313,-2.86377 4.873,-2.53333 11.913,-7.36673 14.351,-9.85186 l 2.315,-2.36071 -1.222,-0.79996 c -2.807,-1.83654 -3.271,-5.45011 -1.057,-8.22328 1.953,-2.44662 5.591,-1.17354 5.591,1.95672 0,1.91943 1.283,1.32268 3.475,-1.61578 1.133,-1.52046 2.224,-2.83658 2.422,-2.92472 0.199,-0.0881 0.361,-0.37854 0.361,-0.64533 0,-0.26679 0.433,-1.03516 0.963,-1.70749 1.68,-2.13316 0.903,-3.59947 -0.834,-1.57351 -1.443,1.68328 -2.054,1.19804 -2.054,-1.63051 0,-2.57749 0.01,-2.59641 1.935,-3.36543 1.064,-0.42535 2.547,-0.77336 3.295,-0.77336 2.142,0 3.146,-1.47637 2.786,-4.09782 -0.289,-2.10429 -0.236,-2.23057 1.316,-3.14539 1.777,-1.04676 3.151,-3.92085 3.545,-7.41198 0.224,-1.98332 0.206,-2.01169 -1.286,-2.01169 -1.052,0 -1.361,0.15321 -1.012,0.50193 0.69,0.68903 -1.984,2.92148 -4.256,3.55266 -3.107,0.86328 -12.242,2.59822 -15.811,3.00263 -1.908,0.21629 -3.658,0.50974 -3.889,0.65211 -0.914,0.56417 -20.164,1.01992 -39.336,0.93131 -20.102,-0.0929 -20.248,-0.10074 -25.229,-1.3597 -2.756,-0.69643 -7.142,-1.43108 -9.746,-1.63255 -3.163,-0.24467 -5.016,-0.61414 -5.58,-1.11269 -0.465,-0.41052 -2.004,-1.14826 -3.421,-1.63943 -1.582,-0.54865 -2.941,-1.4029 -3.523,-2.21517 -0.521,-0.72717 -1.17,-1.32213 -1.442,-1.32213 -0.722,0 -0.261,3.83479 1.085,9.02712 0.862,3.3281 1.339,4.42502 1.88,4.32286 0.399,-0.0753 0.794,-0.73472 0.878,-1.46541 0.176,-1.52246 1.973,-2.91963 3.166,-2.4621 1.099,0.42098 2.025,2.37662 2.424,5.12098 0.263,1.80247 0.525,2.28368 1.244,2.28368 2.105,0 6.251,2.77 6.251,4.17654 0,0.85046 -1.185,0.8011 -1.917,-0.0798 -0.829,-0.99768 -2.093,-0.21733 -3.108,1.91891 -0.952,2.00383 -0.674,4.04712 0.722,5.30888 0.831,0.75174 1.227,0.78236 3.51,0.27197 1.899,-0.42439 3.192,-0.43972 4.933,-0.0585 3.752,0.82174 3.909,0.91002 4.739,2.65716 1.067,2.24555 0.309,5.34176 -1.473,6.01853 -1.986,0.75414 -3.387,0.53 -4.587,-0.73396 -1.397,-1.47024 -2.026,-1.50358 -3.268,-0.17301 -0.863,0.92513 -1.001,0.95045 -1.276,0.23426 -0.393,-1.02332 0.441,-2.02719 2.191,-2.63629 1.216,-0.42352 1.52,-0.3127 2.668,0.97462 1.083,1.21376 1.539,1.40387 2.777,1.15671 1.808,-0.36111 1.64,-0.1746 2.029,-2.25508 0.425,-2.27547 -0.346,-3.00666 -3.984,-3.77768 -2.122,-0.44977 -3.12,-0.46895 -3.859,-0.0741 -2.291,1.2243 -4.928,0.42074 -6.109,-1.86164 -1.129,-2.17942 -0.904,-4.41045 0.682,-6.76935 0.776,-1.15317 1.29,-2.29166 1.142,-2.52999 -0.147,-0.23832 -1.303,-0.29616 -2.568,-0.12852 l -2.301,0.30479 0.256,-2.81563 c 0.286,-3.15153 -0.348,-4.89805 -1.777,-4.89805 -0.72,0 -0.988,0.47348 -1.247,2.20371 -0.281,1.87096 -0.472,2.16695 -1.263,1.96025 -0.821,-0.21429 -0.895,-0.0608 -0.619,1.28191 0.25,1.21657 3.986,9.22717 5.98,12.82359 0.22,0.39664 0.803,1.55996 1.296,2.58517 1.743,3.62924 8.014,9.4084 12.93,11.91528 0.794,0.4051 2.424,1.26742 3.621,1.91628 1.198,0.64886 5.422,2.44504 9.388,3.99152 3.965,1.54647 7.477,3.01954 7.803,3.27348 1.23,0.95607 14.235,1.36064 21.791,0.67788 z m -19.255,-11.89421 c -4.269,-0.4054 -6.012,-1.01007 -6.719,-2.33088 -0.431,-0.80371 -0.729,-0.88979 -1.746,-0.50379 -1.931,0.73338 -4.804,0.55138 -5.931,-0.37581 -1.55,-1.27515 -1.984,-3.44049 -1.03,-5.14276 0.947,-1.69233 4.401,-3.63139 6.468,-3.63139 1.519,0 6.551,2.25869 6.551,2.94067 0,0.73568 3.161,1.22883 5.91,0.92198 3.779,-0.42181 4.934,-1.58109 4.884,-4.90366 -0.03,-1.83647 -0.27,-2.6281 -0.962,-3.14088 -1.925,-1.42442 -5.926,0.63585 -6.954,3.58092 -1.14,3.26311 -3.237,0.82146 -2.651,-3.08546 0.273,-1.81842 0.744,-2.69766 2.173,-4.0548 1.709,-1.62409 4.757,-2.83582 7.133,-2.83582 0.814,0 0.917,-0.34367 0.87,-2.91039 -0.05,-2.5698 0.09,-3.01866 1.15,-3.83551 1.467,-1.12736 2.807,-1.1902 4.226,-0.19808 0.882,0.61753 1.069,1.20611 1.069,3.36543 v 2.617 h 2.138 c 1.176,0 2.28,-0.2293 2.453,-0.50955 0.209,-0.33665 0.504,-0.27632 0.871,0.17782 0.306,0.37805 1.74,1.31048 3.187,2.07207 3.406,1.79256 3.742,2.1284 4.084,4.08007 0.338,1.93148 0.117,2.29546 -2.274,3.74703 -1.733,1.05177 -3.637,1.08172 -2.996,0.0472 0.59,-0.95375 -0.28,-2.40297 -1.443,-2.40297 -1.834,0 -2.782,1.30513 -2.41,3.31921 0.408,2.20995 1.834,3.73438 3.754,4.01596 2.018,0.29578 6.138,-0.69828 7.857,-1.89573 1.79,-1.24697 5.712,-2.20497 7.458,-1.8219 0.751,0.16464 1.936,0.97663 2.633,1.8044 1.07,1.26938 1.231,1.83688 1.029,3.62432 -0.319,2.83138 -1.573,4.00888 -4.575,4.29695 -1.473,0.1413 -2.512,0.0238 -2.716,-0.30711 -0.532,-0.85841 -1.752,-0.62538 -3.433,0.65563 -3.423,2.60755 -9.862,2.82637 -12.711,0.43201 -1.317,-1.10681 -1.511,-1.14171 -2.763,-0.49565 -1.571,0.81097 -7.438,2.556 -9.53,2.8343 -0.794,0.10568 -3.069,0.0378 -5.054,-0.15078 z m 11.208,-3.06786 c 3.413,-1.24324 3.672,-1.43616 3.809,-2.83773 0.09,-0.97612 0.442,-1.55973 0.989,-1.66318 0.671,-0.12701 0.842,0.17996 0.842,1.51109 0,1.37834 0.277,1.83328 1.58,2.60143 0.869,0.51203 2.784,1.05507 4.256,1.20676 3.053,0.31475 5.667,-0.59358 7.78,-2.70362 1.363,-1.36103 3.233,-1.69277 3.233,-0.57345 0,0.87892 1.606,1.3964 3.009,0.96948 2.658,-0.809 3.555,-3.20691 2.019,-5.39747 -1.183,-1.6867 -4.246,-1.45104 -8.254,0.6351 -2.491,1.29684 -4.077,1.76988 -6.642,1.98108 -3.236,0.26637 -3.426,0.22237 -4.761,-1.10267 -3.969,-3.93666 -3.147,-9.31289 1.423,-9.31289 0.892,0 1.858,0.39108 2.375,0.96155 1.128,1.24506 2.498,1.22878 2.899,-0.0344 0.363,-1.14215 -0.775,-2.65386 -2.361,-3.13518 -0.561,-0.17024 -1.349,-0.59739 -1.752,-0.94921 -0.403,-0.35183 -2.177,-0.78748 -3.943,-0.9681 -2.601,-0.26617 -3.354,-0.18357 -3.974,0.43573 -0.827,0.82549 -2.182,0.59329 -2.182,-0.37385 0,-0.32737 0.428,-0.98165 0.95,-1.45396 0.558,-0.50421 0.871,-1.27933 0.758,-1.87743 -0.106,-0.56026 -0.208,-1.4823 -0.228,-2.04897 -0.05,-1.32852 -1.159,-1.7393 -2.751,-1.01512 -1.232,0.5609 -1.253,0.64843 -0.99,4.12989 l 0.27,3.55684 -1.921,-0.30673 c -3.264,-0.52123 -6.909,1.57397 -8.077,4.64239 -0.408,1.07108 -0.369,1.32125 0.207,1.32125 0.39,0 0.71,-0.20723 0.71,-0.46051 0,-0.25328 0.94,-1.0105 2.088,-1.68271 2.042,-1.19487 4.363,-1.56057 5.422,-0.85426 1.659,1.10608 2.413,5.54099 1.367,8.04028 -1.015,2.4256 -2.638,3.27839 -6.644,3.4912 -3.075,0.1633 -3.621,0.0534 -5.124,-1.03127 -3.954,-2.853 -5.232,-3.30521 -7.635,-2.70084 -2.577,0.64797 -3.366,1.20673 -3.979,2.81546 -0.624,1.63945 0.616,3.44264 2.361,3.43391 2.626,-0.0131 3.479,-0.49688 3.479,-1.9726 0,-1.96306 1.262,-1.7858 1.641,0.23045 0.419,2.23191 1.851,3.35406 4.777,3.74242 4.559,0.60504 9.076,0.16979 12.974,-1.25011 z m -0.136,-23.55204 c 0,-0.41224 0.216,-0.74953 0.481,-0.74953 0.265,0 0.481,0.20358 0.481,0.4524 0,0.24882 -0.216,0.58611 -0.481,0.74953 -0.265,0.16343 -0.481,-0.0402 -0.481,-0.4524 z m 18.293,8.14481 c 0,-0.39664 0.216,-0.72117 0.481,-0.72117 0.265,0 0.481,0.32453 0.481,0.72117 0,0.39664 -0.216,0.72116 -0.481,0.72116 -0.265,0 -0.481,-0.32452 -0.481,-0.72116 z m 17.811,-2.64427 c 0,-0.26442 0.23,-0.48077 0.51,-0.48077 0.281,0 0.376,0.21635 0.212,0.48077 -0.163,0.26443 -0.393,0.48078 -0.509,0.48078 -0.117,0 -0.213,-0.21635 -0.213,-0.48078 z m -4.814,-0.96155 c 0,-0.26442 0.23,-0.48077 0.51,-0.48077 0.281,0 0.376,0.21635 0.212,0.48077 -0.163,0.26443 -0.393,0.48078 -0.509,0.48078 -0.117,0 -0.213,-0.21635 -0.213,-0.48078 z m -2.407,-1.44232 c 0,-0.26443 0.217,-0.48078 0.482,-0.48078 0.265,0 0.481,0.21635 0.481,0.48078 0,0.26442 -0.216,0.48077 -0.481,0.48077 -0.265,0 -0.482,-0.21635 -0.482,-0.48077 z m 3.852,0.0589 c 0,-0.23205 0.324,-0.69124 0.722,-1.02042 0.783,-0.64967 0.881,-0.49427 0.43,0.68184 -0.31,0.80504 -1.152,1.05271 -1.152,0.33858 z m 2.186,-0.50643 c -0.152,-0.24615 -0.06,-0.58344 0.213,-0.74953 0.269,-0.16609 0.489,0.0353 0.489,0.44755 0,0.84449 -0.289,0.96884 -0.702,0.30198 z m -14.221,-0.51399 c 0,-0.26443 0.325,-0.48078 0.722,-0.48078 0.397,0 0.722,0.21635 0.722,0.48078 0,0.26442 -0.325,0.48077 -0.722,0.48077 -0.397,0 -0.722,-0.21635 -0.722,-0.48077 z m 21.905,-7.20851 c -0.148,-0.23961 0.17,-0.67047 0.707,-0.95747 0.769,-0.41099 0.976,-0.37599 0.976,0.16483 0,0.81155 -1.294,1.42104 -1.683,0.79264 z m -3.831,25.75176 c 0.717,-1.09236 0.702,-1.2334 -0.229,-2.16349 -1.077,-1.07487 -1.289,-2.1999 -0.507,-2.68252 0.758,-0.46829 0.06,-1.19709 -1.153,-1.19709 -0.599,0 -1.583,0.5675 -2.186,1.2611 -1.335,1.53279 -1.078,3.82185 0.572,5.09848 1.492,1.15438 2.604,1.05393 3.503,-0.31648 z m 10.809,-15.67662 c 0,-1.06719 -1.533,-1.46905 -2.93,-0.76771 -1.816,0.91237 -1.525,1.50427 0.764,1.55299 1.75,0.0373 2.166,-0.11363 2.166,-0.78528 z m -48.794,-13.19214 c 1.022,-0.91936 2.103,-1.67658 2.401,-1.68272 0.299,-0.006 0.813,-0.33568 1.142,-0.73232 0.946,-1.13793 -1.963,-0.93699 -4.338,0.29976 -1.079,0.5615 -2.091,0.89125 -2.25,0.73278 -0.431,-0.43027 0.813,-1.74527 1.713,-1.81058 0.431,-0.0313 0.133,-0.20042 -0.661,-0.37585 -0.794,-0.17542 -2.419,-0.17075 -3.61,0.0104 -1.192,0.18115 -2.372,0.13393 -2.624,-0.10493 -0.886,-0.84121 -5.718,-0.47744 -7.004,0.52727 -1.531,1.19615 -1.926,1.19615 -1.926,0 0,-0.73858 -0.321,-0.96155 -1.384,-0.96155 -3.939,0 -5.702,1.34805 -3.232,2.47169 0.917,0.41747 1.393,0.36501 2.273,-0.2507 1.261,-0.88236 1.862,-0.98721 1.862,-0.32514 0,0.24944 -0.891,0.98414 -1.98,1.63266 l -1.98,1.17913 2.582,0.19493 c 1.42,0.10722 5.719,0.25228 9.553,0.32237 3.835,0.0701 7.066,0.22124 7.181,0.33589 0.314,0.31338 0.289,0.32913 2.282,-1.46308 z m -11.861,-1.45349 c 0,-0.56612 0.664,-0.72116 3.089,-0.72116 3.25,0 4.613,0.29933 4.613,1.01299 0,0.23614 -1.733,0.42934 -3.851,0.42934 -3.103,0 -3.851,-0.14023 -3.851,-0.72117 z m 30.48,1.90706 c 9.092,-0.20588 10.745,-0.36135 12.308,-1.15749 0.993,-0.50582 2.088,-1.26001 2.434,-1.67598 0.345,-0.41596 0.818,-0.7563 1.05,-0.7563 0.749,0 0.45,1.37759 -0.42,1.93063 -0.673,0.42865 -0.463,0.48485 1.05,0.28041 2.614,-0.35324 3.391,-1.19035 2.407,-2.5936 -1.089,-1.55235 -4.505,-3.21016 -5.195,-2.52102 -0.399,0.39914 -0.371,0.64411 0.109,0.9404 0.405,0.25023 0.466,0.51366 0.162,0.70163 -0.269,0.16553 -0.388,0.68268 -0.266,1.14922 0.173,0.66132 -0.266,0.99214 -1.992,1.50109 -2.595,0.76537 -3.363,0.35068 -1.757,-0.94937 0.625,-0.50609 0.902,-0.92016 0.616,-0.92016 -0.539,0 -3.732,1.67864 -4.726,2.4849 -0.365,0.29546 -1.266,0.25017 -2.526,-0.12694 -1.691,-0.50575 -2.081,-0.47683 -2.841,0.21059 -1.12,1.01166 -1.718,1.02161 -1.334,0.0222 0.205,-0.53268 0.09,-0.69461 -0.371,-0.51835 -0.368,0.141 -0.866,0.059 -1.108,-0.18224 -0.241,-0.24122 -1.42,-0.57284 -2.619,-0.73692 -1.656,-0.22681 -2.365,-0.11265 -2.954,0.47616 -0.952,0.95083 -1.326,0.98036 -1.326,0.10477 0,-0.69935 -1,-1.25338 -2.262,-1.25338 -0.406,0 -1.771,0.75722 -3.033,1.68271 -1.263,0.9255 -2.537,1.68272 -2.833,1.68272 -0.295,0 -0.537,0.23886 -0.537,0.53081 0,0.36736 1.149,0.43852 3.731,0.23108 2.052,-0.16485 8.457,-0.40675 14.233,-0.53755 z m -41.789,-0.23186 c 0.188,-0.30327 -0.197,-1.12877 -0.854,-1.83446 -0.658,-0.70568 -1.101,-1.54068 -0.985,-1.85555 0.116,-0.31486 1.226,-0.91982 2.467,-1.34434 1.241,-0.42453 3.339,-1.74996 4.663,-2.94541 l 2.407,-2.17354 -1.925,0.32862 c -1.288,0.21978 -2.564,0.93677 -3.852,2.16482 -1.517,1.4468 -8.753,5.74428 -9.672,5.74428 -0.108,0 -0.195,-0.27044 -0.194,-0.60097 0,-0.33054 1.604,-1.42257 3.563,-2.42674 3.446,-1.76667 5.581,-3.25106 5.581,-3.87973 0,-0.16731 -0.676,-0.30419 -1.503,-0.30419 -1.231,0 -1.402,0.12139 -0.946,0.67042 0.453,0.54501 -0.05,1.00833 -2.709,2.47697 -1.796,0.99361 -3.841,2.20637 -4.544,2.69501 -0.703,0.48865 -1.533,0.88845 -1.845,0.88845 -1.31,0 0.05,-1.22544 4.103,-3.70473 l 4.315,-2.63792 -2.166,0.31987 c -1.548,0.22863 -2.585,0.75615 -3.636,1.8492 -1.845,1.92113 -4.802,4.17358 -5.478,4.17358 -1.152,0 -0.386,-1.06246 1.652,-2.29202 2.451,-1.47856 2.805,-2.20629 0.843,-1.73574 -1.405,0.33691 -5.897,3.37852 -5.897,3.99261 0,0.39582 2.589,1.23227 5.348,1.7279 1.363,0.24476 1.804,0.14102 2.043,-0.48037 0.167,-0.4359 0.533,-0.6514 0.812,-0.47889 0.354,0.2184 0.347,0.50751 -0.02,0.95186 -0.648,0.77962 -0.147,0.89928 4.648,1.11066 2.222,0.098 3.563,-0.0437 3.783,-0.39965 z m -20.945,-3.35146 c 0,-1.01276 1.8,-1.98903 4.732,-2.56664 0.882,-0.17368 2.29,-0.63086 3.129,-1.01596 3.883,-1.78141 7.937,-2.78334 15.724,-3.88568 13.571,-1.92121 33.462,-1.56945 43.81,0.77477 1.192,0.26989 3.9,0.80963 6.018,1.19942 4.771,0.87803 6.255,1.45717 8.278,3.23087 l 1.59,1.39483 v -1.25174 c 0,-0.79215 -0.265,-1.25174 -0.722,-1.25174 -0.503,0 -0.722,-0.50581 -0.722,-1.66763 0,-1.30781 0.161,-1.606 0.746,-1.38202 0.43,0.16485 1.034,-0.0956 1.428,-0.61606 0.376,-0.49591 0.717,-0.68531 0.756,-0.42088 0.04,0.26442 0.212,-0.16828 0.383,-0.96155 0.243,-1.12675 0.573,-1.44542 1.508,-1.45644 0.979,-0.0115 1.167,-0.22011 1.035,-1.14869 -0.133,-0.92844 0.01,-1.08911 0.796,-0.88433 0.768,0.20069 0.999,-0.0293 1.166,-1.1617 0.182,-1.24029 0,-1.50246 -1.519,-2.15655 -6.809,-2.93815 -15.32,-5.23772 -25.073,-6.77456 -7.075,-1.1148 -9.338,-1.25258 -20.7,-1.26003 -16.613,-0.0109 -27.103,1.36305 -38.634,5.05988 -1.524,0.48844 -2.977,0.88807 -3.229,0.88807 -0.253,0 -2.771,1.1109 -5.597,2.46867 -10.635,5.11075 -11.568,9.38161 -2.994,13.70469 4.628,2.33383 8.091,2.82213 8.091,1.141 z m 3.37,-0.006 c 0.37,-0.6909 0.366,-0.96155 -0.01,-0.96155 -0.837,0 -2.392,0.94865 -2.392,1.45924 0,0.86172 1.888,0.47141 2.407,-0.49769 z m 68.478,-1.31699 c 1.523,-0.88755 2.768,-1.77886 2.768,-1.98069 0,-0.52272 -8.842,-2.32223 -15.645,-3.18397 -3.177,-0.40246 -8.836,-0.74665 -12.575,-0.76485 -6.577,-0.032 -6.84,0.005 -8.076,1.14961 -0.703,0.6505 -2.029,1.69345 -2.947,2.31768 -0.918,0.62422 -1.67,1.29721 -1.672,1.49553 0,0.19832 1.136,0.36058 2.527,0.36058 2.289,0 2.784,-0.20766 5.175,-2.16807 2.907,-2.38305 4.185,-2.97648 4.891,-2.271 0.299,0.29842 -0.291,0.90654 -1.651,1.70276 -3.467,2.02941 -3.646,2.56428 -0.963,2.87709 2.546,0.29667 3.045,0.0699 6.587,-2.99219 1.245,-1.07599 2.467,-1.95634 2.716,-1.95634 1.075,0 0.232,1.34178 -1.964,3.12504 l -2.367,1.9231 1.481,0.15458 c 0.966,0.10077 1.84,-0.17248 2.512,-0.78512 1.142,-1.04143 3.832,-2.4945 4.617,-2.4945 1.13,0 0.376,0.94769 -1.781,2.238 l -2.287,1.36781 1.555,0.14991 c 1.181,0.11391 2.093,-0.26125 3.8,-1.56252 1.235,-0.94183 2.539,-1.71243 2.898,-1.71243 1.315,0 0.592,1.23277 -1.397,2.38331 l -2.042,1.18138 1.926,0.3361 c 1.654,0.28879 2.386,0.0896 5.197,-1.41459 2.5,-1.33799 3.362,-1.60474 3.654,-1.13153 0.211,0.34056 0.662,0.55368 1.001,0.47362 1.411,-0.33236 0.887,0.9903 -0.687,1.73637 -0.937,0.44409 -1.704,1.00684 -1.704,1.25056 0,0.59084 1.126,0.13446 4.453,-1.80523 z m 12.785,1.06388 c -0.149,-0.14802 -0.418,0.11881 -0.598,0.59296 -0.262,0.6852 -0.206,0.74042 0.269,0.26913 0.329,-0.32612 0.477,-0.71406 0.329,-0.86209 z m 2.689,0.45418 c 0.161,-0.41827 0.292,-2.73807 0.292,-5.15512 0,-3.86443 -0.08,-4.28021 -0.66,-3.4463 -0.65,0.93195 -1.393,8.59369 -0.884,9.10234 0.469,0.4676 0.954,0.27315 1.252,-0.50092 z m -20.62,-0.94875 c 0.919,-0.73573 0.919,-0.74061 -0.03,-0.30536 -0.529,0.24328 -1.287,0.56266 -1.685,0.70973 -0.623,0.23099 -0.619,0.27257 0.03,0.30536 0.413,0.0209 1.171,-0.29851 1.685,-0.70973 z m 25.437,0.45923 c 0.571,-0.21872 0.637,-0.50504 0.273,-1.18453 -0.415,-0.77267 -0.658,-3.32345 -0.892,-9.32042 -0.04,-0.99968 -0.206,-1.26777 -0.565,-0.9083 -0.56,0.55896 -0.629,2.59133 -0.249,7.37472 0.136,1.71878 0.255,3.39548 0.263,3.72601 0.02,0.68388 0.125,0.71288 1.17,0.31252 z m 3.469,-1.83442 c 0.144,-0.37431 0.183,-1.29379 0.09,-2.0433 l -0.175,-1.36274 -0.756,1.68271 c -0.416,0.92549 -0.666,1.84497 -0.555,2.04329 0.331,0.59044 1.12,0.4102 1.4,-0.31996 z m -63.073,-1.07328 c 0.735,-0.48055 1.104,-1.07203 0.938,-1.50327 -0.442,-1.14889 0.642,-2.09975 1.729,-1.51832 0.956,0.51059 1.866,0.24645 1.866,-0.54149 0,-0.24882 -1.32,-0.4524 -2.932,-0.4524 -2.427,0 -3.152,0.20027 -4.212,1.1626 -0.705,0.63942 -1.931,1.71433 -2.725,2.38868 l -1.444,1.22609 2.785,0.0152 c 1.798,0.01 3.214,-0.26558 3.995,-0.77708 z m 56.852,-4.10562 c -0.154,-0.38353 -0.268,-0.26961 -0.291,0.29047 -0.02,0.50681 0.09,0.79077 0.253,0.63101 0.16,-0.15975 0.177,-0.57442 0.04,-0.92148 z m 4.967,-3.38517 c 0,-0.66026 -0.912,-1.81321 -1.433,-1.81321 -0.153,0 -0.196,0.85875 -0.1,1.90835 0.157,1.63435 0.279,1.81185 0.856,1.23628 0.37,-0.36964 0.673,-0.96878 0.673,-1.33142 z m -85.689,-86.429646 c 0,-0.264427 0.217,-0.480775 0.482,-0.480775 0.264,0 0.481,0.216348 0.481,0.480775 0,0.264426 -0.217,0.480775 -0.481,0.480775 -0.265,0 -0.482,-0.216349 -0.482,-0.480775 z"
         id="path2" /></g></g></svg>
