<?xml version="1.0" encoding="UTF-8" standalone="no"?>
<!-- Created with Inkscape (http://www.inkscape.org/) -->

<svg
   width="231.38646"
   height="235.24007"
   viewBox="0 0 61.221 62.240601"
   version="1.1"
   id="svg1"
   xml:space="preserve"
   xmlns="http://www.w3.org/2000/svg"
   xmlns:svg="http://www.w3.org/2000/svg"><defs
     id="defs1" /><g
     id="g1284"
     transform="matrix(0.26458333,0,0,0.26458333,-3241.6943,-207.5956)"><path
       style="fill:#000000"
       d="m 12318.873,991.3204 c -2.449,-0.71034 -3.601,-1.90763 -4.728,-4.91334 -1.285,-3.42775 -1.257,-3.75929 0.758,-9.13092 1.908,-5.08325 5.675,-11.71392 7.884,-13.87763 0.782,-0.7662 1.428,-1.58584 1.436,-1.82143 0,-0.23558 0.946,-1.53185 2.087,-2.88058 1.141,-1.34874 3.356,-4.39664 4.921,-6.77312 1.566,-2.37648 3.026,-4.53692 3.246,-4.80097 0.22,-0.26406 0.765,-1.05424 1.212,-1.75597 1.176,-1.84718 5.175,-7.49376 7.087,-10.00641 0.905,-1.18824 3.309,-4.64494 5.344,-7.68155 2.034,-3.03662 4.82,-6.9254 6.19,-8.64175 2.096,-2.62549 6.381,-8.63361 8.165,-11.44945 0.265,-0.41748 1.25,-1.84692 2.19,-3.17653 0.939,-1.32961 2.424,-3.69857 3.299,-5.26436 0.876,-1.56578 2.684,-4.26633 4.019,-6.00121 2.061,-2.67791 4.228,-6.68464 6.51,-12.03612 l 0.512,-1.20024 0.03,1.23508 c 0.04,1.45816 -3.625,8.98167 -5.71,11.72754 -1.876,2.47 -5.801,8.33448 -5.801,8.66716 0,0.1406 -0.86,1.41683 -1.91,2.83608 -1.05,1.41924 -3.472,4.92072 -5.38,7.78107 -1.909,2.86035 -4.876,7.03701 -6.594,9.28146 -1.717,2.24446 -4.495,6.13324 -6.171,8.64175 -1.677,2.50851 -4.014,5.85719 -5.194,7.44151 -1.755,2.35676 -5.555,7.85997 -13.231,19.16495 -1.684,2.47917 -6.221,8.29652 -6.928,8.88246 -0.423,0.34976 -0.768,0.86252 -0.768,1.13947 0,0.27694 -0.303,0.84461 -0.674,1.26148 -2.19,2.46479 -6.06,11.54763 -6.06,14.22494 0,2.45225 0.936,5.5245 2.071,6.79748 1.324,1.48466 4.554,1.9043 6.729,0.87414 1.653,-0.78303 5.58,-4.84513 8.678,-8.97757 0.857,-1.14345 3.665,-6.29186 6.24,-11.4409 2.575,-5.14904 5.42,-10.33409 6.323,-11.52233 0.902,-1.18824 1.655,-2.29468 1.673,-2.45877 0.09,-0.84681 5.262,-9.6693 7.062,-12.04911 2.633,-3.47981 4.087,-5.78175 6.556,-10.38313 3.416,-6.36336 9.551,-16.58619 15.028,-25.03908 1.284,-1.98041 2.914,-4.69673 3.624,-6.03629 0.71,-1.33955 2.513,-4.17646 4.007,-6.30425 1.494,-2.12778 2.716,-4.01768 2.716,-4.19977 0,-0.44961 4.29,-6.42403 4.87,-6.78164 0.255,-0.15701 0.783,-0.0201 1.175,0.3043 1.164,0.9646 6.671,0.21719 9.542,-1.29529 1.348,-0.7097 2.903,-1.53023 3.457,-1.82339 0.982,-0.52004 7.41,-7.08016 9.353,-9.54477 0.536,-0.67979 1.529,-2.48957 2.208,-4.02174 0.679,-1.53217 1.675,-3.75795 2.212,-4.94619 1.266,-2.79821 2.466,-6.548 3.532,-11.04224 0.47,-1.9804 1.264,-5.11303 1.764,-6.9614 1.404,-5.18521 2.022,-13.43065 1.244,-16.58752 -0.809,-3.28133 -2.925,-4.96418 -5.648,-4.48985 -4.487,0.78181 -10.728,3.09758 -13.774,5.11093 -1.199,0.79292 -2.303,1.31947 -2.452,1.1701 -0.705,-0.70324 9.353,-6.04614 11.438,-6.07649 0.431,-0.006 1.56,-0.33546 2.51,-0.73154 3.835,-1.59932 6.704,-0.40125 8.335,3.48034 1.063,2.52948 0.993,11.52597 -0.115,14.77786 -0.447,1.31228 -1.201,4.22234 -1.676,6.4668 -2.054,9.69772 -3.476,13.83002 -7.307,21.23502 -2.702,5.22263 -8.814,11.4487 -14.051,14.3136 -3.534,1.9335 -4.148,2.10804 -8.069,2.29517 l -4.245,0.20254 -1.665,2.46118 c -4.914,7.25968 -6.382,9.53731 -8.496,13.1812 -1.275,2.19927 -2.319,4.09662 -2.319,4.21634 0,0.11972 -0.937,1.66899 -2.083,3.44284 -6.745,10.44571 -9.942,15.52616 -9.942,15.80083 0,0.17124 -0.298,0.65243 -0.663,1.0693 -0.627,0.71764 -2.323,3.73338 -5.876,10.4507 -0.864,1.63426 -2.747,4.55085 -4.183,6.48131 -1.437,1.93045 -4.183,6.31849 -6.102,9.75118 -1.92,3.43269 -4.186,7.32148 -5.037,8.64175 -0.85,1.32026 -3.315,5.98016 -5.477,10.35532 -2.839,5.74587 -4.832,9.06916 -7.176,11.96764 -5.229,6.46638 -7.952,8.08901 -11.734,6.99202 z m 0.08,-6.50657 c -0.852,-1.19406 -0.969,-1.82201 -0.693,-3.72075 0.182,-1.25635 0.517,-2.64205 0.744,-3.07934 0.459,-0.88423 4.006,-2.9939 5.784,-3.43911 1.243,-0.31145 3.06,-2.91064 2.579,-3.6884 -0.488,-0.78706 -1.634,-0.5447 -2.276,0.48108 -0.751,1.20096 -1.331,1.23337 -1.331,0.0744 0,-1.39554 1.686,-2.63847 3.1,-2.28444 3.083,0.77238 1.356,4.98281 -2.854,6.95812 -1.215,0.57 -2.332,1.35519 -2.482,1.74486 -0.149,0.38968 -0.569,0.70851 -0.933,0.70851 -0.592,0 -0.799,0.51934 -1.383,3.47499 -0.09,0.45896 0.263,1.37729 0.786,2.04075 1.076,1.36599 2.829,1.26914 4.426,-0.24453 1.081,-1.02495 0.591,-2.09808 -0.792,-1.73696 -1.275,0.33282 -2.754,-0.46555 -2.754,-1.48673 0,-0.62165 0.128,-0.67124 0.577,-0.22315 1.612,1.60875 4.848,-0.49418 6.501,-4.22486 0.871,-1.9657 3.205,-4.81169 3.93,-4.79362 0.803,0.02 1.561,0.93805 1.98,2.39742 0.54,1.87749 -0.402,3.36392 -2.12,3.34572 -0.999,-0.0106 -0.999,-0.0175 0.06,-0.84017 1.355,-1.05089 1.664,-3.12209 0.501,-3.36394 -1.35,-0.2807 -3.032,2.02114 -5.228,7.15436 -1.567,3.66389 -2.375,4.9755 -3.386,5.49715 -2.118,1.09348 -3.59,0.86025 -4.739,-0.75137 z m 10.776,-15.5021 c -0.383,-0.42 -0.286,-0.96449 0.359,-2.02025 1.129,-1.84703 1.122,-2.64553 -0.02,-2.64553 -1.188,0 -1.728,-1.38079 -0.695,-1.77652 0.738,-0.28266 1.481,0.36896 2.561,2.24663 0.352,0.61172 0.543,0.58926 1.375,-0.16211 0.531,-0.47974 1.337,-0.79931 1.791,-0.71015 1.028,0.20178 1.999,1.66363 1.448,2.17949 -0.225,0.2107 -0.506,0.11304 -0.625,-0.21702 -0.417,-1.16669 -1.841,-0.58221 -3.742,1.53624 -1.455,1.62166 -2.051,2.00406 -2.448,1.56922 z m 4.439,-8.7466 c -0.169,-0.43867 0,-0.72015 0.43,-0.72015 0.388,0 0.706,0.32407 0.706,0.72015 0,0.39608 -0.193,0.72014 -0.43,0.72014 -0.236,0 -0.554,-0.32406 -0.706,-0.72014 z m 2.579,-3.5724 c 0,-0.24847 0.216,-0.58528 0.481,-0.74848 0.264,-0.16319 0.481,0.0401 0.481,0.45177 0,0.41166 -0.217,0.74848 -0.481,0.74848 -0.265,0 -0.481,-0.2033 -0.481,-0.45177 z m 2.405,-3.10896 c 0,-0.41808 0.343,-0.76015 0.761,-0.76015 0.419,0 0.676,0.25655 0.572,0.57012 -0.298,0.8902 -1.333,1.03785 -1.333,0.19003 z m 3.595,-2.21997 c -0.17,-0.27479 -0.73,-0.36634 -1.244,-0.20344 -1.16,0.36735 -2.793,-1.4261 -2.816,-3.09202 -0.02,-1.48169 3.444,-4.84666 4.99,-4.84666 1.713,0 3.652,1.76466 3.652,3.32349 0,0.73338 -0.651,2.23 -1.446,3.32584 -1.42,1.95662 -2.523,2.48181 -3.136,1.49279 z m 3.324,-3.08421 c 0.981,-1.49378 0.977,-2.12115 -0.02,-3.21974 -1.16,-1.27881 -2.595,-1.07592 -4.412,0.6235 -1.795,1.67933 -1.646,2.06917 1.179,3.07428 2.45,0.87147 2.357,0.8851 3.252,-0.47804 z m 0.777,-6.9783 c 0,-0.26405 0.229,-0.4801 0.509,-0.4801 0.28,0 0.376,0.21605 0.212,0.4801 -0.163,0.26405 -0.392,0.4801 -0.509,0.4801 -0.117,0 -0.212,-0.21605 -0.212,-0.4801 z m 2.405,-3.12063 c 0,-0.39608 0.216,-0.72015 0.481,-0.72015 0.264,0 0.481,0.32407 0.481,0.72015 0,0.39608 -0.217,0.72015 -0.481,0.72015 -0.265,0 -0.481,-0.32407 -0.481,-0.72015 z m 2.976,-4.11083 c 0.116,-0.34657 0.495,-0.72465 0.842,-0.84017 0.361,-0.12003 0.541,0.06 0.421,0.42008 -0.116,0.34657 -0.495,0.72465 -0.842,0.84017 -0.361,0.12003 -0.541,-0.06 -0.421,-0.42008 z m 34.398,-53.34644 c -1.7,-0.61878 -4.487,-3.45505 -5.677,-5.7764 -0.652,-1.27251 -0.913,-2.79018 -0.913,-5.31395 0,-4.30534 1.006,-7.87197 3.174,-11.25513 0.9,-1.4039 1.636,-2.66134 1.636,-2.7943 0,-0.13297 1.026,-2.01915 2.281,-4.19153 4.393,-7.6057 16.196,-18.33628 24.767,-22.51666 4.063,-1.98219 4.217,-2.03471 4.217,-1.44526 0,0.21559 -1.689,1.1812 -3.754,2.14581 -6.091,2.846 -8.951,5.03721 -16.963,12.99687 -2.695,2.67821 -5.576,6.01171 -6.402,7.40777 -7.385,12.49064 -7.577,12.92105 -7.88,17.74029 -0.289,4.58848 0.406,6.95639 2.896,9.87304 1.412,1.65338 1.884,1.87357 4.992,2.33037 2.844,0.41793 3.899,0.36908 6.153,-0.28477 2.789,-0.80934 6.528,-3.6125 6.528,-4.89433 0,-0.60238 2.774,-3.50011 3.367,-3.51667 0.132,-0.004 0.531,0.17706 0.886,0.40168 0.54,0.34168 0.54,0.5954 0,1.55297 -1.561,2.76646 -3.946,5.23156 -6.4,6.61416 -2.456,1.38334 -2.973,1.48905 -7.105,1.4539 -2.451,-0.0208 -5.062,-0.25838 -5.803,-0.52786 z m -9.476,-2.60831 c -1.156,-3.1617 -1.379,-3.85065 -1.665,-5.15301 -0.584,-2.65522 2.473,-15.00926 4.873,-19.69242 1.136,-2.21701 6.077,-9.34662 8.164,-11.77933 1.95,-2.27291 9.743,-8.85923 12.162,-10.27843 2.493,-1.46275 1.637,-0.0105 -1.047,1.77814 -1.389,0.92526 -3.187,2.28708 -3.996,3.02627 -0.808,0.73918 -2.618,2.37094 -4.022,3.62613 -1.404,1.25518 -3.175,3.09156 -3.935,4.08082 -0.761,0.98927 -1.593,2.04891 -1.848,2.35476 -1.21,1.44867 -4.011,6.17366 -5.275,8.89833 -3.936,8.48479 -5.163,16.68633 -3.24,21.66104 0.491,1.27029 0.768,2.43449 0.615,2.58709 -0.153,0.15261 -0.507,-0.34662 -0.786,-1.10939 z"
       id="path1" /></g></svg>
