<?xml version="1.0" encoding="UTF-8" standalone="no"?>
<!-- Created with Inkscape (http://www.inkscape.org/) -->

<svg
   width="231.38646"
   height="235.24007"
   viewBox="0 0 61.221 62.240601"
   version="1.1"
   id="svg1"
   xml:space="preserve"
   xmlns="http://www.w3.org/2000/svg"
   xmlns:svg="http://www.w3.org/2000/svg"><defs
     id="defs1" /><g
     id="layer1"
     transform="translate(1472.671,3650.7208)"><g
       id="g1238"
       transform="matrix(0.26458333,0,0,0.26458333,-4834.9712,-3672.2173)"><path
         style="fill:#000000"
         d="m 12812.296,262.75439 c -1.957,-0.27257 -4.362,-1.56147 -4.72,-2.53006 -0.183,-0.49602 -2.515,-3.13301 -5.182,-5.85997 -5.339,-5.45948 -7.935,-8.77158 -10.301,-13.14071 -0.861,-1.58838 -1.833,-3.21287 -2.161,-3.60997 -0.328,-0.39709 -1.545,-2.67138 -2.703,-5.05396 -1.158,-2.38258 -2.591,-5.06322 -3.185,-5.95698 -0.594,-0.89376 -1.85,-3.22817 -2.792,-5.18757 -0.941,-1.95941 -1.892,-3.45094 -2.113,-3.31453 -0.22,0.13642 -0.548,1.22673 -0.727,2.42292 -0.269,1.7939 -0.635,2.38517 -2.091,3.37523 -2.755,1.87324 -7.054,1.49684 -10.328,-0.90407 -0.731,-0.53671 -2.081,-2.06972 -3,-3.40669 -2.08,-3.02626 -2.59,-6.0113 -1.481,-8.66699 0.87,-2.08346 0.936,-1.97865 -2.335,-3.70551 -2.126,-1.12265 -1.797,-0.84543 -6.651,-5.60034 -2.324,-2.2757 -4.045,-4.47465 -4.899,-6.25728 -0.724,-1.51169 -2.366,-4.91451 -3.649,-7.56182 -5.228,-10.79053 -5.641,-17.0359 -1.733,-26.23245 2.365,-5.56385 11.188,-9.14362 19.065,-7.73493 1.851,0.33102 3.487,0.7989 3.636,1.03975 0.148,0.24084 0.582,0.43789 0.963,0.43789 0.539,0 0.694,-0.77455 0.699,-3.48964 0,-6.5301 2.438,-11.46874 6.957,-14.14422 5.023,-2.97483 17.059,-4.87764 36.086,-5.70504 3.439,-0.14956 8.903,-0.45306 12.143,-0.67446 3.239,-0.2214 6.486,-0.3164 7.215,-0.21111 0.728,0.10529 8.792,0.2704 17.919,0.36692 16.123,0.1705 27.149,0.80903 28.781,1.66664 0.44,0.23114 1.99,0.56714 3.445,0.74667 3.024,0.37315 8.818,1.88293 12.079,3.1478 2.901,1.12499 4.471,2.53923 6.465,5.82495 1.401,2.30761 1.674,3.2649 1.915,6.71087 0.154,2.21063 0.413,4.23395 0.575,4.49626 0.162,0.26232 0.351,3.09084 0.42,6.28561 0.07,3.19476 0.177,6.89166 0.239,8.21531 0.139,2.96205 -0.481,13.97241 -0.99,17.56853 -0.764,5.40771 -7.097,26.02406 -8.835,28.76063 -0.21,0.33157 -1.316,2.38926 -2.458,4.57263 -2.86,5.47018 -7.248,12.99054 -10.006,17.14869 -0.46,0.69353 -0.988,1.58585 -1.174,1.98295 -1.645,3.51789 -10.496,13.49924 -13.261,14.95425 -0.992,0.52205 -1.804,1.1828 -1.804,1.46832 0,1.47028 -1.764,3.93899 -3.549,4.96745 -2.936,1.69065 -10.588,2.22602 -31.575,2.20916 -5.959,-0.005 -11.479,0.16117 -12.266,0.3688 -0.786,0.20763 -1.971,0.30216 -2.633,0.21007 z m 32.708,-6.33014 c 12.932,-1.58021 14.431,-1.94394 15.089,-3.6617 0.163,-0.42383 0.676,-0.7318 1.141,-0.68437 1.726,0.17621 2.047,-0.054 2.047,-1.4686 0,-0.7942 0.182,-1.44399 0.404,-1.44399 0.222,0 0.661,-0.56515 0.976,-1.2559 0.414,-0.91012 0.833,-1.18761 1.519,-1.00787 0.677,0.17697 1.258,-0.18718 2.029,-1.27108 0.595,-0.83551 0.996,-1.51911 0.892,-1.51911 -0.104,0 -0.03,-0.50325 0.166,-1.11834 0.246,-0.77545 0.123,-1.29198 -0.4,-1.68465 -0.657,-0.49288 -0.475,-0.86461 1.399,-2.86674 1.185,-1.26523 2.154,-2.68395 2.154,-3.15271 0,-1.07887 0.9,-2.00124 1.665,-1.70729 1.15,0.44151 1.772,-1.23368 1.89,-5.0933 0.07,-2.13943 0.368,-4.1384 0.672,-4.44216 0.852,-0.85289 1.235,0.69711 0.922,3.73075 -0.253,2.45787 -0.215,2.58388 0.647,2.12242 1.482,-0.79393 1.84,-1.98788 1.849,-6.17275 0.01,-4.67594 -0.178,-5.34205 -1.423,-5.01636 -1.673,0.43782 -1.027,-1.07728 1.711,-4.01427 1.537,-1.64904 2.643,-3.27698 2.645,-3.89408 0,-0.72172 0.504,-1.29785 1.57,-1.80383 2.247,-1.06721 3.037,-3.10068 2.27,-5.84283 -0.331,-1.1812 -0.788,-2.26314 -1.016,-2.40431 -0.228,-0.14117 -0.415,-1.00199 -0.415,-1.91292 0,-1.43341 0.157,-1.65625 1.17,-1.65625 1.733,0 3.141,-2.23631 2.5,-3.97097 -0.583,-1.57878 -0.843,-1.62594 -1.987,-0.36099 -1.865,2.06217 -2.329,0.66592 -0.501,-1.50787 0.651,-0.7734 1.059,-1.72797 0.908,-2.12127 -0.373,-0.97321 0.643,-2.09658 1.657,-1.83134 1.135,0.29715 2.493,-2.08894 2.165,-3.80527 -0.139,-0.72793 -0.509,-1.3235 -0.824,-1.3235 -0.486,0 -0.624,-1.91353 -0.326,-4.50379 0.03,-0.22688 0.409,-0.27369 0.851,-0.10403 0.813,0.31207 1.581,-0.42465 1.594,-1.52913 0.01,-0.92089 -0.736,-0.72344 -2.324,0.61409 -1.937,1.63115 -2.294,0.80748 -0.561,-1.29618 l 1.392,-1.68915 -1.677,-3.21614 c -0.922,-1.76888 -1.546,-3.42841 -1.386,-3.68784 0.676,-1.09411 1.634,-0.3046 2.64,2.17561 1.018,2.50956 1.964,3.26937 2.662,2.1382 0.173,-0.28001 -0.238,-1.34547 -0.914,-2.3677 -0.676,-1.02222 -1.367,-2.40872 -1.536,-3.08111 -0.531,-2.11559 -1.368,-2.36876 -2.549,-0.77066 -1.034,1.40018 -2.473,1.93923 -2.473,0.92653 0,-0.27909 0.627,-1.17876 1.393,-1.99927 l 1.393,-1.49182 -0.876,-1.5622 c -0.483,-0.85921 -0.818,-1.96308 -0.747,-2.45304 0.216,-1.46867 1.391,-1.00667 1.839,0.72269 0.336,1.29754 0.607,1.56404 1.383,1.36085 0.839,-0.21957 0.928,-0.0788 0.674,1.07502 -0.204,0.93314 0,1.67304 0.661,2.48979 0.862,1.05224 1.024,1.09145 1.712,0.41481 0.625,-0.61344 0.665,-1.02293 0.225,-2.28632 -0.295,-0.84647 -0.84,-1.53903 -1.211,-1.53903 -0.371,0 -0.701,-0.2166 -0.734,-0.48133 -0.03,-0.26473 -0.104,-0.64378 -0.158,-0.84233 -0.05,-0.19855 -0.271,-1.19317 -0.483,-2.21027 -0.35,-1.68411 -0.497,-1.82419 -1.646,-1.56854 -11.735,2.61273 -15.109,2.82509 -54.651,3.43964 -20.762,0.32269 -21.762,0.27808 -38.479,-1.71674 -11.12,-1.32703 -10.408,-1.22732 -11.664,-1.63163 -0.931,-0.29984 -1.082,-0.17638 -1.082,0.88746 0,0.67967 -0.173,1.23576 -0.385,1.23576 -0.643,0 -1.539,-1.10903 -1.539,-1.90439 0,-0.7705 -1.976,-1.56459 -5.531,-2.22242 -2.344,-0.43364 -4.631,-1.87303 -5.835,-3.67279 -0.495,-0.73859 -1.046,-1.34351 -1.226,-1.34427 -0.179,-7.7e-4 -0.396,1.93836 -0.481,4.30916 -0.126,3.53258 0,4.49622 0.681,5.33932 0.659,0.81275 0.723,1.23678 0.305,2.01938 -0.343,0.64061 -0.417,2.36798 -0.211,4.88893 0.175,2.14408 0.425,5.19791 0.554,6.7863 0.273,3.3725 3.331,21.36073 4.049,23.8258 0.27,0.92656 0.706,3.0142 0.967,4.63919 0.262,1.625 0.799,3.57438 1.194,4.33197 0.395,0.75758 0.72,1.65111 0.721,1.98562 0,0.33451 0.209,0.9843 0.461,1.44399 0.252,0.45968 0.763,1.59389 1.137,2.52045 1.883,4.66988 2.712,6.43497 5.307,11.31124 3.692,6.93759 5.719,10.6876 6.894,12.75523 0.527,0.92656 1.678,2.98424 2.558,4.57263 2.382,4.29987 5.008,7.67827 9.824,12.63911 3.886,4.00368 4.499,4.45363 6.029,4.42809 0.937,-0.0156 3.759,0.17118 6.272,0.41514 5.927,0.57529 23.961,0.35974 29.822,-0.35643 z m 16.834,-18.81057 c 0,-0.26473 0.217,-0.48133 0.481,-0.48133 0.265,0 0.481,0.2166 0.481,0.48133 0,0.26473 -0.216,0.48133 -0.481,0.48133 -0.264,0 -0.481,-0.2166 -0.481,-0.48133 z m -68.781,-63.53548 c 0,-0.26473 0.324,-0.48133 0.721,-0.48133 0.397,0 0.722,0.2166 0.722,0.48133 0,0.26473 -0.325,0.48133 -0.722,0.48133 -0.397,0 -0.721,-0.2166 -0.721,-0.48133 z m 78.999,66.18991 c 0.259,-1.36048 -0.186,-1.56553 -1.074,-0.49457 -0.638,0.76935 -0.293,2.4069 0.415,1.96906 0.235,-0.14523 0.531,-0.80875 0.659,-1.47449 z m 3.25,-3.86938 c 0,-0.3907 -0.209,-0.71036 -0.464,-0.71036 -0.696,0 -1.46,1.6852 -1.458,3.21733 v 1.35529 l 0.96,-1.57595 c 0.528,-0.86677 0.96,-1.89562 0.96,-2.28631 z m 8.93,-13.85147 c 0.437,-1.99091 -0.191,-2.22991 -1.515,-0.57678 -0.739,0.92166 -1.152,2.05337 -1.142,3.12864 l 0.01,1.68465 1.171,-1.43444 c 0.644,-0.78895 1.306,-2.04988 1.471,-2.80207 z m -108.613,-0.45645 c 2.56,-2.74035 0.465,-14.7004 -3.188,-18.19769 -0.43,-0.41222 -1.329,-1.38691 -1.997,-2.16598 -2.247,-2.6214 -2.683,-2.81021 -3.834,-1.65928 -1.303,1.30438 -2.019,1.05627 -2.519,-0.87294 -0.421,-1.62824 -0.81,-1.85975 -1.673,-0.99592 -0.642,0.64217 -1.582,0.16407 -1.582,-0.80473 0,-0.38147 -0.216,-0.69359 -0.481,-0.69359 -0.264,0 -0.481,0.2166 -0.481,0.48133 0,0.26473 -0.324,0.48133 -0.721,0.48133 -0.397,0 -0.722,-0.30014 -0.722,-0.66697 0,-0.36684 -0.323,-1.28738 -0.718,-2.04565 -0.395,-0.75827 -0.72,-1.18971 -0.722,-0.95875 0,0.23097 -0.327,0.1503 -0.724,-0.17926 -0.397,-0.32956 -0.721,-1.21835 -0.721,-1.97509 0,-1.10411 -0.262,-1.43777 -1.323,-1.68922 -1.49,-0.35282 -4.127,-2.9095 -3.705,-3.5919 0.151,-0.24479 0.586,-0.44506 0.968,-0.44506 0.78,0 0.812,-0.0925 0.401,-1.16396 -0.378,-0.98516 -1.151,-0.98466 -1.151,7.4e-4 0,1.14239 -1.179,0.52996 -1.36,-0.70667 -0.09,-0.58986 -0.682,-1.31161 -1.323,-1.60388 -1.41,-0.64316 -1.412,-0.67728 -0.186,-3.79094 0.985,-2.50081 0.935,-3.50768 -0.122,-2.45013 -1.712,1.7141 -1.772,-0.46937 -0.111,-4.10287 0.675,-1.477 1.117,-2.97304 0.983,-3.32454 -0.331,-0.86338 0.99,-2.11093 2.235,-2.11093 0.556,0 1.406,0.35847 1.89,0.79659 0.794,0.71949 0.961,0.72467 1.721,0.0536 0.463,-0.40866 1.491,-0.87463 2.285,-1.03548 1.847,-0.37429 6.705,0.77209 8.351,1.97052 2.694,1.96157 2.625,2.01787 2.268,-1.83828 -0.181,-1.95629 -0.414,-4.51566 -0.519,-5.68749 -0.403,-4.49961 -4.782,-6.27384 -12.435,-5.0377 -8.1,1.30829 -11.701,5.31082 -12.856,14.29178 -0.647,5.03199 0.661,10.37251 4.151,16.94299 1.125,2.11785 2.199,4.3649 2.386,4.99345 1.347,4.53105 11.227,14.01349 15.796,15.16113 1.598,0.40123 1.607,1.21397 0.04,3.52365 -0.982,1.44774 -1.171,2.16204 -0.922,3.48862 0.649,3.46377 3.314,7.08259 6.004,8.15275 0.662,0.26313 2.193,0.49215 3.404,0.50893 1.687,0.0234 2.437,-0.22226 3.212,-1.05248 z m 107.97,-3.34937 c 0.789,-1.52197 0.819,-1.91288 0.251,-3.30565 l -0.644,-1.57955 -1.094,1.16914 c -0.813,0.86902 -1.024,1.52438 -0.821,2.55297 0.151,0.7611 0.274,1.80799 0.274,2.32642 0,1.38795 1.011,0.80993 2.034,-1.16333 z m 3.497,-1.34359 c 0.306,-1.06962 0.264,-1.1231 -0.377,-0.48133 -0.397,0.39709 -0.877,1.26349 -1.066,1.92532 -0.305,1.06962 -0.263,1.1231 0.378,0.48133 0.397,-0.3971 0.876,-1.26349 1.065,-1.92532 z m 1.403,-2.23407 c 0.253,-0.66061 0.183,-0.69039 -0.43,-0.18172 -0.834,0.69317 -0.921,0.9718 -0.303,0.9718 0.237,0 0.566,-0.35553 0.733,-0.79008 z m -1.06,-1.7369 c 1.463,-1.8027 1.611,-2.23143 1.247,-3.60997 -0.228,-0.86038 -0.615,-1.56432 -0.859,-1.56432 -0.78,0 -3.2,4.05469 -3.016,5.05396 0.249,1.35251 0.538,2.16598 0.769,2.16598 0.109,0 0.945,-0.92054 1.859,-2.04565 z m 4.23,-6.87461 c 0.327,-1.73594 0.499,-3.25255 0.381,-3.37026 -0.118,-0.1177 -0.824,0.42354 -1.57,1.20275 -1.314,1.37249 -1.338,1.48487 -0.747,3.59621 0.336,1.1987 0.774,2.07778 0.975,1.9535 0.201,-0.12427 0.633,-1.64626 0.961,-3.3822 z m -0.869,-4.84772 c 0.713,-1.2215 0.744,-1.65961 0.222,-3.17841 -0.639,-1.86066 -0.858,-1.84674 -2.633,0.16731 -1.067,1.21073 -1.082,1.33547 -0.368,3.04653 0.848,2.03125 1.579,2.02194 2.779,-0.0354 z m -118.462,-4.82077 c -1.408,-5.12538 -1.684,-6.46274 -3.115,-15.10431 -1.612,-9.73428 -1.587,-9.62659 -2.184,-9.62659 -0.283,0 -1.45,-0.67304 -2.595,-1.49565 -2.598,-1.86716 -7.184,-2.47755 -9.113,-1.2129 -3.148,2.06417 -1.461,9.74408 3.527,16.05935 1.07,1.35515 2.705,3.65046 3.632,5.1007 2.147,3.35897 3.966,5.30398 5.851,6.25621 0.82,0.41457 2.227,1.61032 3.126,2.65724 0.899,1.04691 1.697,1.73597 1.774,1.53124 0.08,-0.20472 -0.329,-2.07911 -0.903,-4.16529 z m 121.543,1.85518 c 0.292,-0.19449 0.796,-1.47272 1.12,-2.84051 0.456,-1.92228 0.46,-2.72866 0.02,-3.55177 -0.57,-1.06483 -0.57,-1.0648 -2.21,0.57635 l -1.64,1.64122 0.774,2.27154 c 0.789,2.31653 1.001,2.52526 1.936,1.90317 z m -135.45,-6.12958 c 0,-0.39709 -0.317,-0.72199 -0.706,-0.72199 -0.43,0 -0.598,0.2822 -0.429,0.72199 0.152,0.3971 0.47,0.722 0.706,0.722 0.236,0 0.429,-0.3249 0.429,-0.722 z m 133.604,-1.20332 c 0.331,-0.52946 1.086,-0.97976 1.679,-1.00066 0.593,-0.0209 0.808,-0.14725 0.477,-0.28077 -0.331,-0.13353 -0.601,-0.64021 -0.601,-1.12596 0,-1.19975 -0.496,-2.40591 -0.989,-2.40591 -0.223,0 -0.981,0.7559 -1.686,1.67978 -0.935,1.22683 -1.198,2.00555 -0.977,2.88797 0.365,1.45428 1.276,1.56099 2.097,0.24555 z m 4.2,-1.92532 c 0.164,-0.26473 0.07,-0.48133 -0.212,-0.48133 -0.28,0 -0.509,0.2166 -0.509,0.48133 0,0.26473 0.09,0.48133 0.212,0.48133 0.116,0 0.346,-0.2166 0.509,-0.48133 z m -138.009,-1.33511 c -0.831,-0.79431 -0.844,-0.78139 -0.293,0.29334 0.317,0.61832 0.708,0.99221 0.87,0.83087 0.161,-0.16134 -0.1,-0.66724 -0.577,-1.12421 z m -3.041,-0.6838 c -0.581,-0.58094 -1.224,-0.88812 -1.429,-0.68264 -0.205,0.20549 0.05,0.6808 0.56,1.05625 1.449,1.06033 2.045,0.80382 0.869,-0.37361 z m 140.988,-0.63533 c 0.576,-0.57552 0.623,-1.03135 0.228,-2.16598 -0.602,-1.72798 -1.677,-1.86052 -2.39,-0.29462 -0.378,0.82928 -0.37,1.423 0.03,2.16598 0.648,1.21219 1.149,1.28131 2.135,0.29462 z m -143.6,-4.64833 c -0.195,-1.32274 -1.356,-1.76734 -1.356,-0.51903 0,0.99898 0.388,1.56432 1.075,1.56432 0.239,0 0.365,-0.47038 0.281,-1.04529 z m 141.675,-0.45429 c 0.79,-1.12834 0.375,-3.07305 -0.655,-3.07305 -1.032,0 -1.882,1.80583 -1.416,3.00831 0.525,1.35441 1.154,1.37409 2.071,0.0647 z m -143.856,-1.86175 c 0.139,-0.53332 0.07,-1.08426 -0.158,-1.2243 -0.539,-0.33288 -1.555,1.57475 -1.171,2.19678 0.404,0.65336 1.022,0.20054 1.329,-0.97248 z m 146.084,-1.72427 c 0,-1.02276 -0.889,-2.61567 -1.46,-2.61567 -0.61,0 -0.592,1.26799 0.03,2.43829 0.599,1.12066 1.426,1.22349 1.426,0.17738 z m 0.962,-5.71591 c 0,-3.42697 -0.411,-4.08333 -1.678,-2.68229 -0.792,0.87603 -0.723,2.49604 0.101,2.36069 0.944,-0.15506 1.167,0.10903 0.634,0.75143 -0.319,0.38439 -0.439,1.14249 -0.267,1.68465 0.62,1.95457 1.21,0.92358 1.21,-2.11448 z m -147.183,0.66518 c 0,-1.00419 -0.708,-1.25419 -1.217,-0.42987 -0.436,0.70645 0.145,2.02697 0.732,1.66371 0.267,-0.16477 0.485,-0.72 0.485,-1.23384 z m 144.297,0.18173 c 0,-0.61186 -0.134,-0.64134 -0.716,-0.15772 -0.394,0.32715 -0.596,0.7904 -0.448,1.02945 0.379,0.6144 1.164,0.0269 1.164,-0.87173 z m -142.614,-3.52262 c 0.164,-0.26474 -0.04,-0.48133 -0.452,-0.48133 -0.413,0 -0.75,0.21659 -0.75,0.48133 0,0.26473 0.203,0.48132 0.452,0.48132 0.249,0 0.587,-0.21659 0.75,-0.48132 z m 143.483,-1.95543 c 0.61,-0.97834 0.383,-2.85787 -0.346,-2.85787 -0.206,0 -0.75,0.41518 -1.209,0.92262 -0.665,0.73604 -0.725,1.12539 -0.298,1.92532 0.674,1.25999 1.071,1.26212 1.853,0.01 z m 2.017,-4.60146 c 0,-1.49528 -0.103,-1.65825 -0.722,-1.14439 -0.746,0.61976 -0.962,2.005 -0.401,2.5671 0.726,0.72574 1.123,0.22239 1.123,-1.42271 z m -1.064,-5.07955 c -0.574,-1.64865 -1.308,-1.70612 -2.41,-0.18873 -0.792,1.09117 -0.784,1.19691 0.198,2.4456 l 1.026,1.30512 0.83,-1.10126 c 0.652,-0.86536 0.728,-1.39248 0.356,-2.46073 z m -44.39,-1.35973 c 24.188,-0.51635 33.743,-1.54088 41.247,-4.42266 1.407,-0.5403 4.207,-3.95582 4.207,-5.1317 0,-1.53135 -2.447,-5.68521 -4.125,-7.00317 -2.015,-1.58274 -7.275,-3.35319 -12.95,-4.35877 -2.117,-0.37498 -4.822,-0.90934 -6.013,-1.18745 -1.19,-0.27812 -4.762,-0.63504 -7.936,-0.79317 -3.175,-0.15812 -6.025,-0.36408 -6.334,-0.45769 -1.364,-0.41258 -37.478,-0.55318 -42.246,-0.16446 -2.91,0.23723 -7.78,0.51562 -10.822,0.61865 -6.344,0.21484 -18.652,1.46351 -22.726,2.30559 -3.229,0.66743 -3.62,1.63132 -1.324,3.26724 0.794,0.56552 1.443,1.29784 1.443,1.62738 0,0.32954 0.649,1.22171 1.443,1.98259 0.794,0.76089 1.443,1.66781 1.443,2.01537 0,1.12455 -1.386,0.6706 -2.482,-0.81308 -0.767,-1.03821 -1.175,-1.27535 -1.45,-0.84233 -0.634,0.9996 -0.445,2.28735 0.336,2.28735 0.404,0 0.928,0.51098 1.165,1.1355 0.237,0.62452 1.368,1.68283 2.513,2.3518 4.286,2.50385 5.735,3.25135 6.306,3.2527 0.322,7.6e-4 1.017,0.64512 1.544,1.43191 0.757,1.13097 1.412,1.48579 3.126,1.69443 1.193,0.14515 3.684,0.49693 5.536,0.78174 1.852,0.28481 5.739,0.61423 8.639,0.73203 2.9,0.1178 5.361,0.30333 5.47,0.4123 0.109,0.10897 3.148,0.0904 6.753,-0.0412 3.605,-0.13164 15.862,-0.43803 27.237,-0.68087 z m 42.858,-1.59913 c 0.407,-1.28584 -0.01,-1.45438 -1.999,-0.79888 -0.975,0.3221 -1.569,0.72273 -1.32,0.89029 0.249,0.16757 0.595,0.68862 0.768,1.15789 0.269,0.72855 0.458,0.76389 1.293,0.24186 0.538,-0.33625 1.104,-1.00728 1.258,-1.49116 z m 2.398,-0.68448 c -0.526,-0.5258 -0.886,0.31039 -0.509,1.18013 0.358,0.8247 0.384,0.82394 0.583,-0.0169 0.115,-0.484 0.08,-1.00745 -0.07,-1.16322 z m -107.063,-0.96964 c 0,-0.89515 -1.616,-2.18911 -2.113,-1.69189 -0.161,0.16091 -0.292,0.79796 -0.292,1.41566 0,0.87709 0.263,1.1231 1.202,1.1231 0.827,0 1.203,-0.26442 1.203,-0.84687 z m -3.367,-1.74433 c 0,-0.86764 -0.322,-1.21051 -1.323,-1.40696 -1.924,-0.3778 -2.31,0.34991 -0.811,1.52958 1.675,1.3183 2.134,1.29192 2.134,-0.12262 z m -11.07,-2.23557 c -0.287,-0.53688 -0.741,-0.84098 -1.008,-0.67579 -0.287,0.17782 -0.13,0.56981 0.385,0.96083 1.167,0.8856 1.233,0.85557 0.623,-0.28504 z m 3.134,0.49481 c -0.164,-0.26473 -0.514,-0.48133 -0.779,-0.48133 -0.264,0 -0.347,0.2166 -0.183,0.48133 0.163,0.26473 0.513,0.48133 0.778,0.48133 0.264,0 0.347,-0.2166 0.184,-0.48133 z m 4.088,-0.76211 c 0,-0.84999 -1.035,-0.70196 -1.333,0.19053 -0.104,0.31437 0.153,0.57158 0.571,0.57158 0.419,0 0.762,-0.34295 0.762,-0.76211 z m -2.053,-1.01709 c 0.193,-0.57997 -1.135,-2.07144 -1.844,-2.07144 -0.947,0 -1.066,1.58566 -0.169,2.24208 0.974,0.71289 1.741,0.64796 2.013,-0.17064 z m -7.271,-1.86001 c -0.146,-0.38101 -0.496,-0.69276 -0.777,-0.69276 -0.833,0 -1.118,1.39715 -0.45,2.20253 0.557,0.67238 0.662,0.66887 1.056,-0.0354 0.24,-0.42991 0.317,-1.09339 0.171,-1.47441 z m 3.749,-0.5131 c 0.3,-0.78087 -0.446,-2.10497 -1.185,-2.10497 -0.539,0 -1.065,1.80867 -0.698,2.40234 0.462,0.74743 1.549,0.57581 1.883,-0.29737 z m -2.842,-2.55278 c 0,-1.54808 -1.097,-1.84112 -1.628,-0.43483 -0.514,1.36253 -0.234,1.95029 0.831,1.74502 0.478,-0.0922 0.797,-0.61613 0.797,-1.31019 z m 5.772,0.92914 c -0.164,-0.26473 -0.514,-0.48133 -0.779,-0.48133 -0.264,0 -0.347,0.2166 -0.183,0.48133 0.163,0.26473 0.513,0.48133 0.778,0.48133 0.264,0 0.347,-0.2166 0.184,-0.48133 z m 1.87,-1.71952 c 0.314,-0.81811 -0.447,-2.61245 -1.107,-2.61245 -1.045,0 -1.445,1.2864 -0.722,2.31912 0.869,1.242 1.431,1.33212 1.829,0.29333 z m -4.301,-1.8578 c -0.282,-1.50512 -0.22,-1.62851 0.7,-1.38785 0.717,0.18784 1.009,0.0394 1.009,-0.51398 0,-0.48661 -0.406,-0.77814 -1.085,-0.77814 -0.831,0 -1.216,0.41908 -1.645,1.79231 -0.614,1.9614 -0.473,2.53966 0.616,2.53966 0.554,0 0.645,-0.3722 0.405,-1.652 z m -2.229,-1.20589 c 0.12,-0.361 -0.06,-0.5415 -0.421,-0.42117 -0.347,0.11582 -0.726,0.49487 -0.842,0.84233 -0.12,0.361 0.06,0.54149 0.421,0.42116 0.347,-0.11582 0.726,-0.49486 0.842,-0.84232 z m 122.502,89.01585 c -0.163,-0.26473 0.05,-0.48133 0.481,-0.48133 0.428,0 0.645,0.2166 0.481,0.48133 -0.163,0.26474 -0.38,0.48133 -0.481,0.48133 -0.101,0 -0.317,-0.21659 -0.481,-0.48133 z m -155.794,-22.54728 c -0.167,-0.26951 -0.07,-0.63496 0.218,-0.81213 0.739,-0.45737 1.217,0.16911 0.599,0.78689 -0.345,0.34568 -0.614,0.35399 -0.817,0.0252 z"
         id="path2" /></g></g></svg>
