<?xml version="1.0" encoding="UTF-8" standalone="no"?>
<!-- Created with Inkscape (http://www.inkscape.org/) -->

<svg
   width="61.221001mm"
   height="62.240601mm"
   viewBox="0 0 61.221 62.240601"
   version="1.1"
   id="svg1"
   xml:space="preserve"
   xmlns="http://www.w3.org/2000/svg"
   xmlns:svg="http://www.w3.org/2000/svg"><defs
     id="defs1" /><g
     id="layer1"
     transform="translate(1472.671,3650.7208)"><g
       id="g1092"
       transform="matrix(0.22865175,0,0,0.22865175,-3904.2683,-3708.889)"><path
         style="fill:#000000"
         d="m 10857.596,498.1498 c 1.596,-0.92651 2.597,-2.47761 2.416,-3.74579 -0.1,-0.66143 -0.824,-3.69196 -1.621,-6.73452 -1.721,-6.57323 -2.008,-7.73119 -3.67,-14.81211 -1.11,-4.73214 -2.565,-8.88828 -4.115,-11.75866 -0.506,-0.93651 -0.603,-2.94115 -0.164,-3.38073 0.471,-0.47145 1.634,0.17698 1.634,0.91078 0,0.37436 0.659,2.13487 1.464,3.91223 0.805,1.77737 2.114,6.04784 2.909,9.48992 2.017,8.7397 3.875,15.64069 6.194,23.00944 0.235,0.74685 0.32,1.63752 0.189,1.97925 -0.355,0.92751 -2.402,1.71563 -4.412,1.6991 -1.578,-0.013 -1.671,-0.0773 -0.824,-0.56891 z m -44.428,-2.76464 c -0.572,-1.06882 -0.162,-2.48548 0.438,-1.51421 0.185,0.29964 0.689,-0.3603 1.154,-1.51202 0.454,-1.12405 1.877,-4.2084 3.163,-6.85411 1.286,-2.6457 3.678,-7.62444 5.315,-11.06385 1.638,-3.43942 3.268,-6.57842 3.622,-6.97556 0.355,-0.39715 1.985,-3.31945 3.623,-6.494 1.637,-3.17456 3.655,-6.96249 4.482,-8.41763 2.945,-5.17847 6.69,-13.5119 6.255,-13.91628 -0.239,-0.22232 -2.056,-1.23537 -4.038,-2.25122 -4.154,-2.12891 -4.451,-2.3669 -10.017,-8.01634 -4.009,-4.07027 -5.788,-6.7421 -5.837,-8.76719 -0.01,-0.52914 -0.446,-1.50324 -0.963,-2.16467 -0.582,-0.74461 -0.944,-1.96179 -0.95,-3.19613 -0.01,-2.04034 -0.753,-3.10764 -4.021,-5.78692 -2.097,-1.71972 -1.553,-4.2843 1.821,-8.5748 2.222,-2.82576 3.966,-5.60835 4.372,-6.97504 0.197,-0.66143 0.886,-1.89746 1.532,-2.74675 0.883,-1.16036 1.099,-1.88759 0.871,-2.92592 -0.166,-0.75996 -0.1,-2.29025 0.15,-3.40063 0.553,-2.46107 4.203,-7.95931 6.591,-9.92766 0.963,-0.79371 3,-2.55893 4.527,-3.9227 3.239,-2.89269 4.354,-3.55151 6.969,-4.11868 6.054,-1.31315 10.845,-1.8473 14.174,-1.58016 3.396,0.27259 8.306,1.42041 9.369,2.1903 0.264,0.19141 2.859,1.55754 5.766,3.03585 4.48,2.27847 5.985,3.36732 9.877,7.14938 4.988,4.84576 7.174,8.36649 8.894,14.32282 1.327,4.59611 1.254,14.99034 -0.133,19.00097 -1.628,4.70427 -2.135,7.77658 -2.545,15.39318 -0.569,10.59013 0.335,17.94685 2.819,22.94134 1.012,2.03492 1.711,3.90515 1.554,4.15607 -0.157,0.25091 -2.778,0.61121 -5.824,0.80066 -5.234,0.32559 -5.747,0.27315 -9.369,-0.95824 -2.107,-0.71648 -4.562,-1.72229 -5.454,-2.23514 -0.892,-0.51285 -1.734,-0.82061 -1.87,-0.68392 -0.344,0.34427 2.055,6.92271 4.256,11.66933 2.204,4.7556 3.778,8.72034 5.501,13.85672 0.71,2.11656 1.793,4.82239 2.406,6.01296 2.396,4.65205 5.128,11.53989 4.857,12.24552 -0.156,0.40837 -0.591,0.74248 -0.965,0.74248 -0.715,0 -1.535,-1.52398 -2.975,-5.53193 -0.475,-1.32285 -1.024,-2.62165 -1.219,-2.88622 -0.196,-0.26457 -1.25,-2.86217 -2.344,-5.77244 -1.094,-2.91028 -2.411,-6.20903 -2.926,-7.33058 -0.515,-1.12154 -0.936,-2.26844 -0.936,-2.54868 0,-0.28023 -0.446,-1.41904 -0.991,-2.53068 -1.284,-2.62275 -4.821,-11.68509 -6.209,-15.90977 -1.232,-3.75003 -1.199,-3.71416 -6.734,-7.36288 -3.942,-2.59838 -4.218,-2.6999 -7.928,-2.91429 -2.114,-0.12217 -5.025,-0.52534 -6.468,-0.89592 -1.443,-0.37059 -2.804,-0.6738 -3.025,-0.6738 -0.221,0 -1.276,1.89409 -2.345,4.20908 -1.068,2.31499 -2.151,4.60377 -2.406,5.08618 -0.255,0.4824 -0.919,1.7812 -1.476,2.88622 -0.557,1.10501 -2.164,3.99483 -3.571,6.42181 -1.408,2.42699 -3.336,6.21515 -4.284,8.41815 -0.949,2.203 -2.471,5.41249 -3.382,7.13219 -0.911,1.71971 -3.189,6.26551 -5.062,10.10178 -5.324,10.90778 -6.067,12.25629 -6.836,12.41573 -0.396,0.0821 -0.961,-0.30119 -1.255,-0.85176 z m 75.04,-44.65989 c 0.185,-0.18488 -0.184,-2.17612 -0.819,-4.42497 -1.281,-4.53227 -2.181,-17.06754 -1.606,-22.36822 0.198,-1.82749 0.122,-3.12024 -0.209,-3.52418 -0.37,-0.45175 -0.373,-0.73256 0,-0.96208 0.283,-0.17826 1.106,-2.92171 1.828,-6.09656 0.723,-3.17484 1.615,-7.07124 1.982,-8.65866 0.771,-3.33172 0.569,-5.73499 -1.039,-12.34958 -1.676,-6.89569 -2.944,-9.00914 -8.814,-14.68453 -2.807,-2.714 -5.253,-4.93911 -5.436,-4.9447 -0.182,-0.006 -2.787,-1.17844 -5.788,-2.60635 -3.001,-1.4279 -6.311,-2.83373 -7.355,-3.12406 -4.146,-1.15222 -12.989,-0.51177 -19.288,1.39684 -3.668,1.11159 -7.926,6.66535 -7.068,9.21858 0.207,0.61479 0.327,1.46245 0.267,1.8837 -0.158,1.10503 3.266,4.44962 7.025,6.86154 4.756,3.0521 7.487,6.02587 9.701,10.56214 2.332,4.779 2.77,7.09509 2.293,12.11575 -0.898,9.43939 -0.945,17.71893 -0.119,20.90995 1.16,4.48271 3.879,9.15487 5.327,9.15487 0.335,0 0.841,0.70525 1.125,1.56722 0.614,1.86296 1.637,2.57773 4.66,3.25599 1.238,0.27764 2.883,1.03773 3.656,1.68909 0.773,0.65136 1.687,1.18429 2.031,1.18429 0.344,0 0.913,0.34753 1.265,0.77229 1.07,1.29064 5.78,3.13272 9.087,3.55407 3.187,0.40597 6.699,0.22206 7.303,-0.38243 z m -33.249,-12.36208 c 0,-0.39685 -0.183,-0.72155 -0.408,-0.72155 -0.625,0 -2.841,-5.65838 -3.485,-8.89983 -0.453,-2.27873 -0.439,-4.45735 0.07,-10.34229 0.353,-4.10049 0.645,-9.51187 0.649,-12.02529 0,-3.95372 -0.163,-4.92656 -1.257,-7.21556 -2.113,-4.42133 -4.437,-7.2325 -7.914,-9.57522 -5.175,-3.48699 -7.657,-5.47302 -8.621,-6.89891 -0.491,-0.72681 -1.12,-1.3221 -1.397,-1.32286 -1.673,-0.005 -8.769,9.83001 -10.064,13.95023 -0.208,0.66058 -0.792,1.74222 -1.299,2.40365 -1.581,2.06636 -3.191,4.4984 -4.228,6.39039 -0.872,1.58901 -0.92,1.98665 -0.377,3.12674 0.449,0.94274 1.042,1.3471 2.13,1.45317 1.401,0.1366 1.53,0.30612 1.826,2.40518 0.175,1.24202 0.428,2.63704 0.563,3.10004 0.301,1.03272 2.325,1.09318 4.025,0.12026 1.477,-0.84567 3.933,-0.92093 4.708,-0.14431 0.762,0.76241 0.735,2.87059 -0.05,3.94518 -0.344,0.4719 -1.687,1.05635 -2.983,1.29877 -3.075,0.57518 -3.47,1.02179 -2.382,2.69251 2.266,3.47676 8.921,9.88193 11.709,11.26862 1.216,0.60501 2.76,1.47086 3.431,1.92411 2.461,1.66118 9.55,3.57945 13.795,3.73229 1.093,0.0394 1.561,-0.16041 1.561,-0.66532 z m -27.027,-40.21648 c -0.93,-0.53003 -1.11,-1.89319 -0.35,-2.65436 0.27,-0.27032 0.652,-1.43305 0.848,-2.58385 0.431,-2.52851 1.243,-2.94199 2.191,-1.11632 1.192,2.29371 2.62,3.61993 4.262,3.95608 1.906,0.39039 2.417,1.8239 0.769,2.15977 -2.68,0.54614 -6.948,0.67811 -7.72,0.23868 z m -2.275,19.45302 c 1.582,-0.44023 2.876,-0.9814 2.876,-1.20259 0,-0.56999 -0.593,-0.50868 -3.851,0.39825 -1.582,0.44023 -2.876,0.9814 -2.876,1.20259 0,0.56999 0.593,0.50868 3.851,-0.39825 z m 6.72,-40.65231 c 0,-1.49195 -0.01,-1.49875 -0.988,-0.61354 -1.277,1.15734 -4.778,6.51761 -4.778,7.31633 0,0.33786 1.297,-0.6926 2.883,-2.28991 2.294,-2.31107 2.883,-3.21232 2.883,-4.41288 z m -82.552,114.90697 c -0.572,-0.60857 -1.975,-3.80146 -3.118,-7.09529 -1.144,-3.29384 -2.307,-6.42173 -2.585,-6.95087 -0.277,-0.52914 -1.089,-2.73792 -1.803,-4.9084 -0.819,-2.49045 -1.596,-4.0367 -2.106,-4.19128 -0.613,-0.18555 -12.931,-0.76158 -16.286,-0.76158 -0.28,0 -0.648,-1.24468 -0.818,-2.76596 -0.305,-2.723 -0.485,-4.0311 -1.939,-14.07034 -0.402,-2.77799 -0.949,-6.78262 -1.214,-8.89918 -0.265,-2.11657 -0.809,-6.01297 -1.207,-8.65867 -1.01,-6.69482 -3.633,-25.1409 -4.276,-30.06481 -0.294,-2.24885 -0.723,-4.38191 -0.954,-4.74014 -0.284,-0.44022 -0.04,-1.03282 0.756,-1.82842 l 1.176,-1.1771 13.178,-0.20202 c 16.368,-0.25094 32.326,-0.64305 38.643,-0.94948 5.045,-0.24478 21.593,-0.8525 25.13,-0.92294 2.491,-0.0496 3.064,0.75299 3.918,5.49076 0.311,1.71971 1.298,5.72434 2.194,8.89919 0.896,3.17484 2.809,10.31824 4.25,15.87422 1.441,5.55598 3.172,12.04998 3.847,14.43111 0.675,2.38113 1.577,5.95283 2.005,7.93711 2.41,11.16922 3.248,14.7493 5.905,25.2117 1.607,6.32617 2.802,11.69571 2.656,11.9323 -0.146,0.23659 -0.615,0.36275 -1.042,0.28036 -0.51,-0.0983 -0.978,-1.05898 -1.362,-2.7926 -0.322,-1.45354 -1.152,-4.80746 -1.844,-7.45316 -1.254,-4.79166 -1.799,-7.21616 -3.678,-16.35526 -1.583,-7.70486 -1.656,-8.01202 -2.722,-11.54489 -1.648,-5.46058 -3.818,-13.61744 -4.928,-18.51993 -0.568,-2.51342 -1.663,-6.73452 -2.432,-9.38022 -2.052,-7.05656 -2.64,-9.22995 -3.561,-13.14391 -0.456,-1.93775 -0.999,-3.34478 -1.207,-3.12675 -0.207,0.21804 -1.125,2.34464 -2.039,4.72577 -0.915,2.38113 -2.645,6.27753 -3.845,8.65867 -1.2,2.38113 -2.617,5.5199 -3.149,6.97503 -2.325,6.36574 -4.96,12.36171 -10.887,24.77341 -4.271,8.94175 -6.008,12.76522 -6.008,13.22022 0,0.23982 -0.757,2.09855 -1.682,4.13052 -0.925,2.03196 -1.681,3.79382 -1.681,3.91523 0,0.12141 2.54,0.14851 5.645,0.0602 6.789,-0.19304 9.227,-1.13342 13.952,-5.38176 4.183,-3.75956 6.358,-3.7289 6.344,0.0894 0,1.19746 -1.543,3.50768 -4.233,6.35687 l -1.114,1.18012 1.516,0.15385 c 2.388,0.24229 10.384,-3.85097 13.722,-7.02457 1.346,-1.27949 3.087,-1.81855 3.087,-0.95592 0,1.40757 -5.619,5.79218 -11.051,8.62376 -1.799,0.93772 -2.888,1.12702 -6.479,1.12702 -3.606,0 -4.341,-0.12899 -4.468,-0.78342 -0.08,-0.43089 0.237,-1.1469 0.712,-1.59114 4.923,-4.5972 6.479,-6.59614 5.725,-7.35119 -0.15,-0.15017 -1.668,0.95356 -3.374,2.45272 -1.705,1.49917 -4.359,3.31596 -5.897,4.03732 -2.628,1.23295 -3.171,1.30756 -9.059,1.2448 l -6.263,-0.0668 -1.396,3.43402 c -0.768,1.88872 -2.31,5.38222 -3.427,7.76336 -1.118,2.38113 -2.32,5.27475 -2.672,6.43025 -0.352,1.15551 -0.91,2.20689 -1.24,2.33639 -0.331,0.12951 -0.601,0.60195 -0.601,1.04988 0,2.11763 -3.018,2.66979 -4.714,0.86238 z m 3.474,-1.10963 c 0.418,-0.16059 0.76,-0.64913 0.76,-1.08564 0,-1.04753 2.708,-7.80156 5.473,-13.64692 1.218,-2.57524 2.214,-5.08565 2.214,-5.57869 0,-0.80296 -0.563,-0.92895 -5.405,-1.20826 -2.973,-0.17151 -7.189,-0.31282 -9.369,-0.31402 -4.363,-0.002 -4.535,0.14802 -3.21,2.80644 0.414,0.83232 2.003,4.96536 3.529,9.18451 3.51,9.70174 4.054,10.59317 6.008,9.84258 z m 10.58,-24.60168 c 0.478,-0.99214 1.933,-4.29326 3.233,-7.33581 1.3,-3.04256 2.642,-5.7484 2.983,-6.01297 0.34,-0.26457 0.761,-1.20177 0.935,-2.08267 0.175,-0.88091 1.163,-3.37027 2.197,-5.53193 1.034,-2.16166 2.464,-5.33732 3.177,-7.05703 0.712,-1.71971 2.112,-4.75024 3.109,-6.73452 1.655,-3.2929 3.103,-6.589 6.761,-15.39318 0.715,-1.71971 1.999,-4.64201 2.854,-6.494 1.754,-3.80048 2.05,-4.51812 3.661,-8.8971 1.982,-5.3865 3.076,-4.95654 -11.703,-4.59693 -7.069,0.172 -14.475,0.39837 -16.457,0.50304 -1.982,0.10467 -10.739,0.34655 -19.459,0.53752 -8.721,0.19097 -16.397,0.3915 -17.057,0.44561 -0.661,0.0541 -3.634,0.12631 -6.607,0.16042 l -5.405,0.062 v 1.29897 c 0,0.71443 0.739,3.25791 1.642,5.65218 0.904,2.39427 2.329,6.18411 3.168,8.42186 0.839,2.23776 1.906,4.94359 2.37,6.01297 1.805,4.14987 2.929,6.85754 3.904,9.40039 1.352,3.52848 2.694,6.96187 6.204,15.87422 1.615,4.10084 3.378,8.75488 3.918,10.3423 0.54,1.58742 1.47,3.96856 2.066,5.29141 0.597,1.32285 1.462,3.40868 1.923,4.63518 l 0.839,2.23 9.205,0.45695 c 5.063,0.25132 9.76,0.4925 10.437,0.53596 0.984,0.0631 1.408,-0.28515 2.102,-1.72487 z m -24.235,-0.58056 c 0,-0.54055 -0.216,-0.98281 -0.48,-0.98281 -0.264,0 -0.481,-0.31736 -0.481,-0.70524 0,-0.38788 -0.312,-1.41609 -0.693,-2.28492 -0.381,-0.86883 -1.597,-4.06906 -2.702,-7.11162 -1.105,-3.04256 -2.601,-6.93896 -3.325,-8.65866 -0.724,-1.71971 -2.35,-5.83258 -3.614,-9.13971 -1.264,-3.30713 -3.672,-9.30939 -5.351,-13.33835 -1.68,-4.02897 -3.053,-7.54428 -3.053,-7.81179 0,-0.83304 -2.509,-6.80448 -2.755,-6.55787 -0.221,0.22167 0.877,9.51537 1.797,15.20105 0.235,1.45514 0.889,5.78447 1.453,9.62074 0.564,3.83627 1.454,9.57264 1.977,12.74748 0.523,3.17485 1.377,8.47828 1.897,11.78541 0.521,3.30713 1.058,6.3784 1.194,6.82504 0.297,0.97325 1.163,1.10249 8.491,1.26717 5.406,0.12151 5.645,0.0852 5.645,-0.85592 z m 51.251,19.38109 c -0.72,-0.72145 -0.251,-1.60346 0.853,-1.60346 0.645,0 1.306,-0.21646 1.47,-0.48103 0.163,-0.26457 0.625,-0.48104 1.026,-0.48104 0.778,0 5.576,-3.53763 7.096,-5.2328 1.053,-1.17446 1.992,-1.3154 2.361,-0.35435 0.389,1.01636 -0.804,2.39502 -4.129,4.77018 -4.235,3.02577 -7.688,4.37198 -8.677,3.3825 z m -0.952,-4.67158 c -0.317,-0.82819 0.554,-1.74225 1.661,-1.74225 0.46,0 0.958,-0.19746 1.107,-0.43881 0.149,-0.24135 1.852,-1.30725 3.783,-2.36866 3.631,-1.99507 5.378,-3.45561 4.11,-3.43561 -0.363,0.006 -1.849,0.6543 -3.302,1.44128 -3.566,1.93063 -7.626,3.80598 -8.975,4.14482 -0.759,0.19085 -1.2,0.0339 -1.405,-0.50071 -0.348,-0.90928 0.661,-2.33402 1.351,-1.90701 0.531,0.3284 0.705,0.25711 7.297,-2.99273 3.907,-1.92589 5.235,-2.88149 7.448,-5.35851 1.792,-2.0063 3.054,-3.01472 3.773,-3.0149 1.622,-4e-4 1.311,0.95222 -1.147,3.50692 -2.342,2.43466 -2.653,3.66302 -0.398,1.57034 1.437,-1.33251 2.373,-1.54806 2.914,-0.67085 0.616,0.99671 -6.337,6.62329 -12.426,10.05604 -4.447,2.50749 -5.38,2.78298 -5.791,1.71064 z m 39.07,-2.22328 c 0,-0.26457 0.217,-0.48104 0.481,-0.48104 0.264,0 0.48,0.21647 0.48,0.48104 0,0.26457 -0.216,0.48103 -0.48,0.48103 -0.264,0 -0.481,-0.21646 -0.481,-0.48103 z m -84.324,-86.77609 c -10.432,-1.82731 -22.093,-10.86615 -25.902,-20.07668 -0.589,-1.42589 -1.355,-2.33424 -2.378,-2.82368 -2.013,-0.96245 -2.945,-4.10024 -2.889,-9.72916 0.04,-4.36885 0.529,-5.66402 2.125,-5.66402 0.701,0 0.925,-0.53059 1.166,-2.76597 0.415,-3.83518 2.435,-8.79056 5.229,-12.82589 3.078,-4.44662 4.343,-5.77406 7.263,-7.62214 1.327,-0.84031 2.521,-1.66555 2.654,-1.83385 0.452,-0.5767 6.005,-3.33127 6.726,-3.33701 0.397,-0.003 1.878,-0.54478 3.291,-1.20362 1.414,-0.65884 3.144,-1.20046 3.844,-1.2036 1.776,-0.008 5.102,-0.98901 12.03,-3.54883 3.273,-1.2094 6.7,-2.3395 7.615,-2.51134 1.452,-0.27271 1.641,-0.19749 1.491,0.5918 -0.103,0.54191 -0.652,0.96295 -1.369,1.05078 -1.293,0.1585 -5.407,1.35076 -6.962,2.01811 -0.528,0.22679 -2.15,0.80348 -3.603,1.28153 -4.614,1.51762 -0.804,1.32648 5.306,-0.26617 5.99,-1.5612 9.633,-2.01821 9.905,-1.24252 0.1,0.28244 -1.496,0.75725 -3.719,1.10748 -4.394,0.69223 -8.582,2.14969 -7.717,2.68535 1.09,0.67414 3.25,0.33434 8.634,-1.35845 4.912,-1.54397 8.368,-2.29823 12.945,-2.82468 0.923,-0.10614 1.789,0.0832 2.101,0.45891 0.292,0.35177 0.45,0.65871 0.351,0.68208 -0.1,0.0234 -1.218,0.1221 -2.487,0.2194 -2.543,0.19491 -6.162,1.05299 -12.293,2.91509 -3.59,1.09022 -3.952,1.30351 -3.308,1.94847 0.644,0.64495 1.085,0.63863 4.031,-0.0577 8.225,-1.94435 8.353,-1.96323 8.353,-1.2333 0,0.25695 -1.568,0.93645 -3.484,1.50998 -4.7,1.40704 -5.364,1.7727 -4.692,2.5834 0.995,1.20093 -0.382,1.28019 -2.257,0.12983 -2.613,-1.60343 -4.329,-2.28522 -5.753,-2.28522 -0.685,0 -1.522,-0.37802 -1.859,-0.84005 -0.476,-0.65123 -1.352,-0.84701 -3.897,-0.87104 -1.806,-0.017 -3.66,-0.20271 -4.121,-0.41258 -0.885,-0.40377 -6.971,0.47923 -7.802,1.13206 -0.269,0.21152 -1.679,0.65869 -3.132,0.99371 -4.544,1.04726 -10.558,5.08326 -14.555,9.76645 -1.244,1.45824 -2.262,2.76831 -2.262,2.91128 0,0.14297 -0.629,1.19317 -1.398,2.33379 -1.607,2.38414 -3.098,6.85509 -3.877,11.62574 -0.624,3.81965 0.01,10.76091 1.389,15.19397 0.985,3.16902 4.474,8.63365 7.352,11.51578 12.671,12.68708 31.173,14.08263 44.582,3.3627 3.334,-2.66573 6.719,-6.45631 8.605,-9.63595 1.494,-2.51938 3.371,-9.75481 3.732,-14.38647 0.273,-3.51244 -0.792,-11.0205 -1.737,-12.24229 -0.206,-0.26623 -0.762,-1.56639 -1.235,-2.88925 -0.474,-1.32285 -1.525,-3.27105 -2.337,-4.32933 -0.812,-1.05828 -1.699,-2.22014 -1.97,-2.58191 -0.271,-0.36176 -1.412,-1.59837 -2.536,-2.74801 -1.123,-1.14965 -2.042,-2.31481 -2.042,-2.58925 0,-0.27444 -0.243,-0.44486 -0.54,-0.37872 -0.297,0.0661 -0.64,-0.15032 -0.761,-0.48104 -0.427,-1.16684 0.982,-0.57779 3.452,1.44311 3.292,2.69246 5.203,5.13938 7.43,9.51133 2.272,4.46205 2.75,5.97275 3.421,10.79725 0.391,2.82055 0.774,3.99897 1.453,4.47478 0.776,0.54463 0.921,1.24648 0.921,4.47648 0,3.22951 -0.184,4.1216 -1.17,5.68525 -0.643,1.02006 -1.724,2.2916 -2.402,2.82563 -0.678,0.53403 -1.225,1.15628 -1.216,1.38278 0.04,0.95085 -2.711,5.90462 -3.289,5.92333 -0.346,0.0112 -0.511,0.21043 -0.368,0.4427 0.45,0.72839 -5.101,6.74214 -6.256,6.77725 -0.289,0.009 -0.938,0.48243 -1.441,1.0525 -1.288,1.45879 -8.156,4.60457 -12.312,5.6397 -4.147,1.03281 -9.421,1.164 -14.069,0.34994 z m -28.115,-29.66426 c -0.256,-2.23269 -0.468,-4.45102 -0.47,-4.92964 0,-0.47861 -0.219,-0.73642 -0.484,-0.5729 -0.727,0.44974 -0.575,4.55502 0.273,7.41621 0.415,1.39697 0.842,2.45125 0.95,2.34285 0.109,-0.1084 -0.01,-2.02384 -0.269,-4.25652 z m 68.564,1.3823 c -0.154,-0.38374 -0.268,-0.26976 -0.291,0.29063 -0.02,0.50709 0.09,0.7912 0.253,0.63136 0.159,-0.15985 0.176,-0.57474 0.04,-0.92199 z m -35.192,17.46189 c -2.113,-0.541 -6.056,-2.58629 -6.322,-3.27884 -0.334,-0.87221 1.713,-3.51004 2.725,-3.51004 0.48,0 1.492,0.32336 2.249,0.71859 1.761,0.91934 5.163,0.89096 7.623,-0.0636 3.829,-1.48604 4.44,-1.42906 5.359,0.49944 0.8,1.67917 0.795,1.78554 -0.146,3.05858 -0.537,0.7254 -1.604,1.63404 -2.374,2.0192 -1.588,0.79557 -6.911,1.12068 -9.114,0.55666 z m 7.956,-2.12592 c 1.168,-0.39854 1.73,-0.91074 1.838,-1.67464 0.14,-0.98408 0.01,-1.06609 -1.201,-0.77527 -0.747,0.17887 -1.721,0.51174 -2.166,0.73971 -1.154,0.59087 -7.478,0.51357 -8.633,-0.10551 -1.463,-0.78377 -1.765,-0.0238 -0.401,1.00989 1.794,1.36001 7.635,1.80559 10.563,0.80582 z m -6.485,-9.59359 c -0.383,-1.10559 0.496,-3.96856 1.22,-3.96856 0.714,0 1.053,2.05212 0.615,3.72804 -0.252,0.96786 -1.524,1.13462 -1.835,0.24052 z m -72.073,-1.67725 c -1.057,-0.43222 -1.994,-0.96223 -2.082,-1.1778 -0.09,-0.21557 -0.412,-0.39407 -0.721,-0.39665 -1.121,-0.009 -5.471,-2.31148 -7.142,-3.78033 -1.208,-1.06235 -2.2,-1.50638 -3.363,-1.50638 -2.537,0 -6.891,-0.8849 -11.917,-2.42172 -5.59,-1.70918 -7.936,-3.63969 -8.43,-6.935 -0.37,-2.47041 0.801,-5.52449 2.925,-7.62579 2.299,-2.27481 7.911,-4.65296 13.079,-5.54245 6.106,-1.05104 19.789,-0.95551 27.399,0.19129 8.205,1.23668 10.382,3.16388 10.28,9.10363 -0.08,4.77673 -0.99,6.11914 -5.838,8.62601 -2.297,1.18749 -6.348,2.76738 -9.002,3.51086 l -4.827,1.35178 1.261,1.45834 c 0.693,0.80208 2.396,2.17349 3.783,3.04758 1.388,0.87408 2.523,1.89138 2.523,2.26065 0,0.95917 -5.457,0.84627 -7.928,-0.16402 z m 0.587,-3.1743 c -3.971,-3.86439 -4.54,-5.61101 -1.826,-5.61101 2.645,0 9.356,-2.01242 13.826,-4.14621 3.851,-1.83809 4.649,-2.41923 5.228,-3.80645 1.512,-3.6214 0.462,-7.10905 -2.634,-8.7526 -5.692,-3.02176 -25.108,-3.71555 -35.121,-1.25496 -3.514,0.86368 -7.369,2.64452 -9.056,4.18347 -1.357,1.23858 -2.956,4.23685 -2.956,5.54305 0,1.32217 2.182,3.77225 4.342,4.87551 2.834,1.44724 10.661,3.22757 14.877,3.38404 2.736,0.10151 3.844,0.3907 3.844,1.003 0,0.26564 0.31,0.79292 0.688,1.17174 0.781,0.78208 9.367,5.13409 10.768,5.45803 0.09,0.0209 -0.801,-0.90054 -1.98,-2.04761 z m 81.725,-5.09675 c -0.538,-0.86113 -0.702,-0.87786 -2.252,-0.22948 -1.794,0.75072 -2.667,0.38469 -2.387,-1.00155 0.18,-0.89672 3.254,-2.15073 5.299,-2.16221 1.834,-0.0103 3.571,0.74274 3.941,1.70911 0.802,2.09359 -3.389,3.6277 -4.601,1.68413 z m -18.991,-0.79365 -0.903,-1.24147 -1.785,0.85182 c -1.299,0.62035 -1.928,0.7078 -2.313,0.32182 -0.386,-0.38599 -0.03,-0.85637 1.326,-1.73104 3.647,-2.3605 7.381,-2.09386 7.381,0.52704 0,2.62741 -2.176,3.37426 -3.706,1.27183 z m 47.069,-27.25998 c 0.11,-0.33071 0.381,-0.60129 0.601,-0.60129 0.22,0 0.49,0.27058 0.6,0.60129 0.111,0.33072 -0.16,0.6013 -0.6,0.6013 -0.441,0 -0.711,-0.27058 -0.601,-0.6013 z"
         id="path1" /></g></g></svg>
