<?xml version="1.0" encoding="UTF-8" standalone="no"?>
<!-- Created with Inkscape (http://www.inkscape.org/) -->

<svg
   width="61.221001mm"
   height="62.240601mm"
   viewBox="0 0 61.221 62.240601"
   version="1.1"
   id="svg1"
   xml:space="preserve"
   xmlns="http://www.w3.org/2000/svg"
   xmlns:svg="http://www.w3.org/2000/svg"><defs
     id="defs1" /><g
     id="layer1"
     transform="translate(1472.671,3650.7208)"><g
       id="g1022"
       transform="matrix(0.26458333,0,0,0.26458333,-4065.9845,-3791.0505)"><path
         style="fill:#000000"
         d="m 9943.0182,713.57336 c -0.074,-0.0738 -2.0408,-0.23443 -4.371,-0.35688 -3.7064,-0.19475 -4.3358,-0.35879 -5.0281,-1.31034 -1.2048,-1.65609 -3.2824,-5.19991 -4.6193,-7.87901 -0.6599,-1.32253 -1.4043,-2.72922 -1.6542,-3.12597 -0.25,-0.39676 -0.9588,-1.83522 -1.5752,-3.19657 -1.039,-2.29487 -1.2659,-2.49515 -3.1151,-2.74923 -1.7681,-0.24295 -5.8558,-1.87534 -7.8673,-3.14175 -1.7316,-1.09025 -4.9124,-2.45452 -5.7226,-2.45452 -0.4854,0 -1.3987,-0.40463 -2.0297,-0.89917 -0.631,-0.49454 -1.8729,-1.05761 -2.7597,-1.25127 -1.5946,-0.3482 -1.6089,-0.33604 -1.2936,1.09921 0.5119,2.33013 -1.5659,4.25014 -5.7617,5.32397 -1.8568,0.47521 -3.8947,1.14155 -4.5287,1.48076 -0.7448,0.39849 -2.0735,0.52172 -3.755,0.34823 -2.0647,-0.21303 -3.1411,-0.67526 -5.211,-2.23754 -2.9353,-2.21556 -4.2952,-3.98862 -3.8829,-5.06278 0.7361,-1.9175 -2.9128,0.60735 -6.4417,4.45743 -3.148,3.43453 -3.1251,3.84086 0.2218,3.92115 3.3323,0.0799 7.7856,2.12644 8.7705,4.03052 1.046,2.02216 0.9098,5.11689 -0.3167,7.19499 -0.8126,1.37689 -1.4286,1.82684 -2.8062,2.04971 -0.9707,0.15706 -2.3062,0.52128 -2.9676,0.80939 -0.6615,0.2881 -2.6538,0.56955 -4.4274,0.62544 -2.8756,0.0906 -3.3442,-0.0265 -4.3295,-1.08216 -2.0427,-2.1886 -4.2176,-2.96754 -7.4641,-2.67325 -3.615,0.3277 -4.7739,0.0394 -6.6664,-1.65802 -2.1044,-1.88754 -3.0562,-3.52248 -3.2029,-5.50157 l -0.1275,-1.71971 -3.0995,-0.28997 c -6.7395,-0.63049 -15.3561,-1.90855 -18.679,-2.77058 -5.9139,-1.53415 -14.0886,-7.10774 -15.5311,-10.58918 -0.3109,-0.75043 -0.7254,-1.26549 -0.9211,-1.14458 -0.1957,0.1209 -0.333,-2.44455 -0.305,-5.70101 0.049,-5.72034 0.096,-5.97634 1.3842,-7.55996 3.1267,-3.84357 3.8169,-5.12417 3.2911,-6.10625 -0.2764,-0.51631 -0.6475,-2.75222 -0.8248,-4.96869 -0.1772,-2.21647 -0.5143,-4.40368 -0.749,-4.86047 -0.2493,-0.48507 -0.2472,-1.18522 0,-1.68322 0.647,-1.27739 2.0041,-7.38426 1.9995,-8.99733 0,-0.77646 0.3966,-1.85853 0.8863,-2.40459 0.4897,-0.54606 1.1688,-2.02638 1.5092,-3.28959 0.3403,-1.26322 0.8097,-2.41471 1.043,-2.55887 0.2333,-0.14415 0.9424,-1.27475 1.5758,-2.51244 2.2606,-4.4177 9.4459,-12.68817 13.5748,-15.62502 1.2832,-0.91267 3.9566,-2.36556 5.941,-3.22863 1.9843,-0.86308 4.0409,-1.83623 4.57,-2.16257 1.1442,-0.70562 10.1519,-3.75691 13.2292,-4.48129 7.0296,-1.65472 22.322,-2.07074 28.3826,-0.77212 1.9844,0.4252 5.015,1.06116 6.7348,1.41324 3.5342,0.72353 8.5738,2.52652 11.9306,4.26831 1.2434,0.64521 3.4513,1.524 4.9065,1.95289 1.4553,0.42888 4.5942,1.72306 6.9754,2.87595 2.3813,1.15289 6.2316,2.7163 8.5563,3.47426 3.5721,1.16466 4.2929,1.27113 4.6538,0.68744 0.3678,-0.59487 0.6823,-0.58062 2.2676,0.10275 2.2063,0.95108 12.1833,1.64053 12.1833,0.84192 0,-0.27914 -0.1969,-0.88331 -0.4375,-1.34261 -1.7262,-3.29496 -1.9053,-4.27194 -1.7385,-9.48074 0.093,-2.91556 0.3123,-6.41441 0.4865,-7.77524 0.3154,-2.46465 -0.7839,-8.50966 -1.7322,-9.52471 -0.9138,-0.97821 -0.4226,-2.06878 1.0658,-2.36638 1.707,-0.34129 2.3559,-0.0767 2.3559,0.96037 0,0.5208 0.2884,0.6339 1.0224,0.40101 0.6631,-0.21042 0.9119,-0.1458 0.7081,0.18392 -0.1728,0.27958 0.1789,0.76668 0.7816,1.08245 0.6027,0.31578 3.4771,2.91953 6.3875,5.78611 2.9104,2.86659 5.8133,5.57714 6.4509,6.02345 0.9015,0.63109 2.302,0.8202 6.2999,0.85067 3.1926,0.0243 5.3966,-0.16877 5.8162,-0.50956 1.0839,-0.88058 13.195,-3.05358 14.9329,-2.67932 0.1687,0.0363 1.6263,-0.14639 3.2391,-0.40604 5.2211,-0.8406 14.6635,-6.23201 19.4245,-11.09114 1.522,-1.55262 2.766,-3.04057 2.766,-3.30656 0,-0.91046 1.281,-0.4847 1.8,0.59847 0.87,1.81468 1.064,2.72249 0.639,2.98503 -0.462,0.28588 -0.886,2.30428 -1.216,5.79175 -0.24,2.52881 -1.06,8.41364 -1.419,10.17251 -0.253,1.24208 -1.513,3.76582 -2.775,5.56101 -0.842,1.19702 -0.858,1.42272 -0.195,2.70621 1.622,3.13536 2.787,8.84756 2.467,12.09866 -0.407,4.13866 -1.474,10.18843 -2.377,13.46575 -0.4,1.45478 -0.845,3.07789 -0.989,3.6069 -0.351,1.29187 0.931,2.96088 1.765,2.29932 0.778,-0.61593 6.378,-2.53978 7.394,-2.53978 1.814,0 0.06,1.28759 -3.805,2.78511 -5.703,2.21295 -5.653,3.08033 0.155,2.6682 3.08,-0.21859 4.329,-0.15035 4.329,0.23654 0,0.29908 -0.487,0.63444 -1.082,0.74526 -0.596,0.11081 -2.689,0.4956 -4.652,0.85509 -1.963,0.35948 -3.647,0.88641 -3.742,1.17094 -0.107,0.32104 1.658,0.75053 4.652,1.13194 2.653,0.33804 4.824,0.80664 4.824,1.04134 0,0.2347 0.325,0.42673 0.722,0.42673 0.397,0 0.721,0.2232 0.721,0.49601 0,0.74389 -1.371,1.12309 -2.05,0.56699 -0.758,-0.62075 -8.534,-1.57944 -9.904,-1.22115 -0.569,0.14868 -1.034,0.5397 -1.034,0.86893 0,0.38235 -0.444,0.51388 -1.227,0.3641 -1.087,-0.20766 -1.197,-0.10368 -0.964,0.9083 0.218,0.94853 -0.09,1.36349 -1.805,2.4411 -3.232,2.02937 -4.4899,2.37046 -10.9111,2.95967 -5.8538,0.53714 -6.0235,0.58508 -6.6421,1.87637 -0.5819,1.21448 -4.5842,5.30273 -7.9839,8.15524 -1.3566,1.13824 -1.3708,1.19748 -0.5776,2.40772 1.3549,2.0673 4.4456,3.74564 8.6148,4.67811 5.0922,1.13889 5.1066,1.14632 6.9435,3.57937 2.2063,2.92231 2.0335,4.62304 -0.7803,7.67704 -3.9029,4.23603 -13.9468,8.6143 -15.1812,6.61764 -0.145,-0.23453 -0.9883,-0.56231 -1.8739,-0.72841 -1.6842,-0.31586 -5.3034,-3.41072 -6.8862,-5.88847 -0.9805,-1.53503 -4.2962,-4.63339 -5.1509,-4.81333 -3.6782,-0.77436 -3.9828,-0.73529 -7.0825,0.90867 -1.7118,0.90784 -3.7429,1.80883 -4.5135,2.00221 -0.7707,0.19337 -2.2624,0.76752 -3.3149,1.2759 -1.0526,0.50838 -2.9613,1.06325 -4.2418,1.23305 -1.2804,0.16981 -2.328,0.45678 -2.328,0.63772 0,0.18095 0.6191,0.92196 1.3758,1.6467 1.1472,1.0987 2.1465,1.43346 6.0128,2.0141 3.9548,0.59393 4.989,0.94925 7.0301,2.41518 1.7469,1.25469 2.5257,2.19602 2.8842,3.48622 0.7114,2.56059 0.6557,2.80063 -1.0671,4.60452 -2.4712,2.58749 -6.7456,4.51348 -11.0734,4.98954 -2.0555,0.2261 -3.7977,0.35068 -3.8716,0.27684 z m 0.6388,-3.06375 c 0.5723,-1.0691 0.4654,-1.34126 -1.5413,-3.92183 -1.3863,-1.7828 -1.1981,-2.6496 0.4579,-2.10869 1.2706,0.41505 3.1834,3.67714 3.1894,5.43931 0,1.45084 0.1208,1.56299 1.6147,1.56299 2.0296,0 3.9723,-1.81426 3.9677,-3.70527 0,-0.99503 -0.44,-1.64169 -1.6838,-2.48845 -1.8375,-1.25102 -2.0823,-1.85791 -0.9281,-2.30069 2.0297,-0.77865 4.8231,2.49682 4.4274,5.19158 -0.2711,1.84651 0.2671,1.73897 2.5361,-0.50682 2.203,-2.18045 2.342,-3.0114 0.7674,-4.58559 -1.9395,-1.93889 -4.6826,-3.00803 -8.6526,-3.37237 -3.4361,-0.31533 -3.9509,-0.50341 -5.6984,-2.0817 -1.0566,-0.95427 -2.5311,-2.80289 -3.2767,-4.10804 -1.166,-2.04096 -1.3189,-2.72904 -1.093,-4.91743 l 0.2627,-2.54442 -2.5893,-1.67455 c -3.2054,-2.07297 -5.2283,-4.26496 -6.4113,-6.94726 -0.6606,-1.49765 -0.7642,-2.2042 -0.3796,-2.58869 0.7703,-0.7701 2.0368,-0.11388 2.0368,1.05534 0,0.55315 1.1365,2.21664 2.5256,3.69664 2.7539,2.9342 7.5485,5.52147 11.4067,6.1553 2.4977,0.41033 3.867,1.15201 3.867,2.09454 0,0.83437 -3.8406,0.41893 -6.5362,-0.70705 -1.4646,-0.61174 -1.8577,-0.63085 -2.2095,-0.10737 -0.4578,0.68107 -0.098,4.25021 0.4878,4.8366 1.1209,1.12231 10.8913,-2.00546 16.6764,-5.33854 1.5875,-0.91463 3.6174,-2.05124 4.511,-2.5258 0.8935,-0.47455 3.0926,-1.95421 4.887,-3.28812 1.7944,-1.33391 3.3801,-2.42529 3.5238,-2.42529 0.1437,0 1.6247,-0.95428 3.291,-2.12061 4.4995,-3.14943 6.7796,-5.8561 3.3173,-3.938 -0.6356,0.3521 -1.51,0.54753 -1.9432,0.43428 -0.4332,-0.11324 -1.1914,0.24025 -1.6851,0.78554 -1.5744,1.73918 -2.4799,1.16668 -2.2887,-1.44703 0.042,-0.57089 -0.2919,-0.7043 -1.367,-0.54656 -2.1299,0.31251 -1.7043,-0.43467 1.2747,-2.2375 1.9363,-1.17186 3.0289,-1.54379 3.9777,-1.35407 1.4529,0.29049 2.1477,-0.036 2.3796,-1.11812 0.124,-0.57848 0.033,-0.60229 -0.457,-0.12023 -0.7323,0.71978 -2.6479,0.79492 -3.065,0.12023 -0.1635,-0.26451 -0.01,-0.48092 0.3458,-0.48092 0.3536,0 1.0137,-0.43283 1.4668,-0.96184 1.1169,-1.3041 0.4593,-1.20972 -1.6754,0.24046 -0.9734,0.66126 -1.9978,1.2023 -2.2765,1.2023 -0.2786,0 -0.5065,0.30891 -0.5065,0.68647 0,0.37756 -0.5433,1.11368 -1.2073,1.63581 -1.0089,0.79338 -1.4034,0.85837 -2.4015,0.39559 -0.6569,-0.30455 -1.196,-0.93246 -1.1981,-1.39534 0,-0.8399 0.7162,-1.074 2.7624,-0.89821 0.5953,0.0512 1.0823,-0.1601 1.0823,-0.46944 0,-0.37858 -0.629,-0.4781 -1.9242,-0.30443 -1.0583,0.14191 -1.9242,0.0622 -1.9242,-0.17713 0,-0.23934 -0.312,-0.43516 -0.6932,-0.43516 -1.6227,0 -1.0253,-0.97124 1.7385,-2.82656 1.6724,-1.12262 2.5807,-1.98264 2.094,-1.98264 -1.1903,0 -7.5127,3.39481 -8.5087,4.56874 -0.6021,0.70956 -0.9594,0.82128 -1.3623,0.42596 -0.4067,-0.39909 -0.3599,-0.72208 0.1835,-1.26528 0.4013,-0.40117 0.6007,-0.85827 0.4431,-1.01579 -0.2833,-0.28329 0.6218,-0.75894 1.8582,-0.97641 0.3514,-0.0618 1.3604,-0.56229 2.2423,-1.11218 2.5667,-1.60044 0.9612,-1.70126 -2.1075,-0.13234 -1.5394,0.78704 -3.1922,1.43098 -3.673,1.43098 -1.224,0 -2.6401,-1.55151 -3.0281,-3.31787 -0.263,-1.19711 -0.1538,-1.54849 0.5523,-1.77726 2.5693,-0.83235 3.4876,-1.31076 3.251,-1.69356 -0.3531,-0.57104 -2.9623,-0.54368 -3.32,0.0348 -0.318,0.51449 -1.6967,0.13384 -1.6967,-0.46846 0,-0.21262 0.9622,-0.85221 2.1382,-1.42133 1.8573,-0.89882 2.0874,-1.17298 1.7521,-2.08681 -0.2259,-0.61567 -0.8737,-1.11135 -1.5616,-1.19501 -1.0547,-0.12826 -1.2282,-0.47435 -1.6877,-3.36644 -0.4469,-2.81304 -0.409,-3.33302 0.2974,-4.08381 1.0729,-1.14022 2.6187,-0.63297 1.9392,0.63634 -0.8045,1.50271 -0.5755,2.86906 0.4807,2.86906 0.6457,0 1.0503,0.42643 1.2549,1.32252 0.6998,3.06536 1.812,6.65951 2.3048,7.44847 0.6894,1.10359 1.2328,1.08754 0.9411,-0.0278 -0.2526,-0.96569 0.9688,-2.26001 1.7041,-1.80574 0.2558,0.15806 0.6023,0.9117 0.7699,1.67476 0.1676,0.76305 0.7255,1.76797 1.2397,2.23315 0.5141,0.46519 0.9495,1.19097 0.9674,1.61286 0.023,0.54316 0.1813,0.4594 0.542,-0.28694 0.7925,-1.63944 1.5973,-1.66239 4.5138,-0.12872 1.4884,0.78276 3.1241,1.42319 3.6347,1.42319 0.5106,0 1.0298,0.32462 1.1538,0.72138 0.1239,0.39676 0.3321,1.05972 0.4625,1.47324 0.1483,0.47029 0.4636,0.60683 0.8419,0.36459 1.9547,-1.25184 4.046,-1.56276 7.0364,-1.04612 4.2885,0.7409 12.6991,0.2855 15.6568,-0.84776 2.524,-0.96692 3.466,-2.10809 1.74,-2.10809 -0.564,0 -1.699,-0.34814 -2.5224,-0.77364 -1.3852,-0.71612 -1.6249,-0.71181 -3.2233,0.0581 -0.9497,0.45743 -3.0677,0.94244 -4.7067,1.0778 -2.8433,0.23482 -3.0489,0.17706 -4.4868,-1.26036 -1.7704,-1.7699 -2.8572,-1.85958 -6.5996,-0.54461 -3.0496,1.07152 -4.4545,1.21467 -4.4545,0.45387 0,-0.70703 3.7484,-2.29226 6.7786,-2.86677 1.3908,-0.26368 2.6294,-0.58004 2.7524,-0.70302 0.3526,-0.35248 -2.0728,-1.14925 -5.0876,-1.67132 -8.9748,-1.55418 -12.0519,-2.2392 -11.9803,-2.66702 0.1075,-0.6422 5.5663,-0.35572 9.2206,0.4839 6.3415,1.45704 7.4803,1.58771 8.9624,1.02843 1.2197,-0.46023 1.5207,-0.42092 1.8948,0.24746 0.2718,0.48545 1.3812,0.92336 2.8516,1.12553 1.6896,0.23231 2.4068,0.54911 2.4068,1.06319 0,0.611 -0.5378,0.68605 -3.2472,0.45316 -2.57,-0.22091 -2.9211,-0.17958 -1.6837,0.19819 1.7872,0.5456 2.1196,1.87583 0.4811,1.92511 l -1.0824,0.0325 1.0517,0.5082 c 1.3586,0.65644 3.5184,0.11439 3.5184,-0.88303 0,-0.59652 0.3189,-0.70856 1.4012,-0.49217 0.9252,0.18499 1.5989,0.0421 1.9831,-0.4208 0.4787,-0.57657 0.4007,-0.70097 -0.4391,-0.70097 -0.7003,0 -1.021,-0.30212 -1.021,-0.96184 0,-1.23477 1.9066,-1.35159 1.9622,-0.12023 0.028,0.61999 0.1088,0.6627 0.3067,0.16217 0.1478,-0.3737 -0.035,-0.91473 -0.4054,-1.2023 -1.6085,-1.24759 -2.4277,-3.32181 -2.5509,-6.45872 -0.069,-1.76089 -0.4298,-4.02361 -0.8015,-5.02827 -0.5511,-1.48951 -0.8535,-1.77142 -1.638,-1.52735 -4.922,1.53125 -9.3458,-0.10676 -12.3726,-4.58116 -0.9842,-1.45478 -1.7959,-2.77797 -1.804,-2.94041 -0.01,-0.16245 0.9786,-0.67459 2.1926,-1.13809 2.4215,-0.92448 5.387,-0.73661 6.2137,0.39364 0.5972,0.81643 5.7005,3.45101 5.461,2.81923 -0.3496,-0.92218 -6.1988,-6.94283 -7.9655,-8.19886 -3.3894,-2.4098 -6.3985,-3.30444 -15.8003,-4.69761 -2.5118,-0.37219 -9.728,1.80668 -10.8605,3.27926 -0.9892,1.28626 -2.563,0.86085 -2.1087,-0.57003 0.2734,-0.86124 0.1428,-0.92767 -1.2897,-0.65601 -3.1099,0.58975 -3.0783,0.5204 -3.2138,7.05973 -0.1141,5.51228 0.2583,7.51597 1.1339,6.09975 0.4256,-0.68854 2.027,-0.60908 2.2648,0.11239 0.1552,0.47066 0.1146,7.16698 -0.066,10.82069 -0.048,0.98286 -1.3821,0.68249 -1.7219,-0.38783 -0.1727,-0.54393 -0.2414,-2.00472 -0.1527,-3.2462 0.1297,-1.81544 0.02,-2.22247 -0.5603,-2.07958 -1.9885,0.48957 -2.1622,0.3255 -2.478,-2.3418 -0.1723,-1.45478 -0.3346,-4.11862 -0.3608,-5.91964 -0.034,-2.31244 -0.2082,-3.17539 -0.5941,-2.93695 -0.3005,0.1857 -1.0041,0.38727 -1.5634,0.44792 -2.3842,0.25855 -2.4551,0.29606 -1.3778,0.72895 1.478,0.59391 1.3609,1.80973 -0.2405,2.4973 -1.8003,0.77293 -1.7764,0.73949 -1.1043,1.54914 0.5029,0.60573 0.2875,0.84172 -1.3746,1.5066 -1.3345,0.53381 -1.9709,1.08207 -1.9709,1.69798 0,0.50029 -0.3315,0.90962 -0.7367,0.90962 -0.4052,0 -0.8613,0.32462 -1.0136,0.72138 -0.3777,0.98397 -1.922,0.91218 -2.3134,-0.10754 -0.199,-0.5182 -0.01,-1.05715 0.5147,-1.43779 0.4581,-0.33488 0.7283,-0.7135 0.6003,-0.84138 -0.365,-0.36493 -7.6943,0.56038 -8.052,1.01656 -0.1762,0.22457 -0.2341,0.36182 -0.1287,0.305 0.4438,-0.23939 1.9937,0.90928 1.7528,1.29903 -0.1449,0.23434 -1.8822,0.78611 -3.8607,1.22616 -3.6107,0.80307 -4.6313,1.9191 -1.2626,1.38057 1.2912,-0.20641 1.9683,-0.0825 2.4016,0.43943 0.6754,0.81356 0.7424,0.78111 -3.6724,1.77941 -2.1516,0.48653 -2.4515,0.68304 -1.9551,1.28094 0.4664,0.56186 0.4451,0.79558 -0.1044,1.14315 -0.9996,0.63232 -1.5137,0.53545 -2.7871,-0.52508 -1.3378,-1.11426 -1.0694,-2.37278 0.5179,-2.42769 0.6036,-0.0209 0.8269,-0.14712 0.4962,-0.28054 -0.3308,-0.13341 -0.6014,-0.62129 -0.6014,-1.08417 0,-1.22816 -0.4814,-1.51649 -1.5644,-0.93702 -0.7615,0.40742 -0.8811,0.37942 -0.5852,-0.13715 0.7914,-1.38195 1.8175,-2.29711 2.2653,-2.02043 0.2758,0.17039 0.2,0.4591 -0.1846,0.70267 -0.4248,0.26912 0.051,0.41601 1.3635,0.42081 1.1088,0.004 2.1499,-0.20905 2.3134,-0.47356 0.1635,-0.2645 -0.04,-0.48092 -0.4527,-0.48092 -0.7889,0 -0.9791,-0.85183 -0.3818,-1.7102 0.1944,-0.27934 1.2007,-0.55903 2.2363,-0.62152 2.2193,-0.13393 3.0336,-0.52346 2.1874,-1.04629 -1.1335,-0.70034 -0.093,-1.70164 2.4889,-2.39497 l 2.581,-0.69312 -1.9243,-0.25362 c -1.2769,-0.1683 -1.9242,-0.49626 -1.9242,-0.97499 0,-0.4956 0.6022,-0.76907 1.9242,-0.87375 2.195,-0.1738 3.2237,-0.85847 1.9969,-1.32906 -1.4366,-0.55114 -6.0859,0.26518 -6.0859,1.06856 0,1.06208 -2.1163,0.61531 -2.3274,-0.49134 -0.095,-0.49732 0.1194,-1.0994 0.4761,-1.33797 0.4332,-0.28969 0.089,-0.38869 -1.035,-0.29809 -1.3178,0.10618 -1.6837,0.34472 -1.6837,1.09751 0,1.01502 -1.9945,1.86808 -5.6525,2.41763 -1.8229,0.27385 -2.5417,1.18927 -0.9338,1.18927 0.4786,0 1.2904,0.32051 1.804,0.71224 0.8082,0.61648 0.8367,0.77713 0.2122,1.19493 -0.3969,0.26548 -1.0864,0.48601 -1.5322,0.49006 -0.4458,0.004 -1.4199,0.24607 -2.1647,0.53781 -1.3064,0.5117 -1.3178,0.5445 -0.3211,0.92814 1.9591,0.7541 1.7363,1.42398 -0.8778,2.63949 -1.4083,0.65489 -2.9335,1.45666 -3.3893,1.78172 -0.6287,0.44843 -0.9632,0.45639 -1.3868,0.033 -0.9217,-0.92147 -0.1726,-1.84559 2.0451,-2.52285 l 2.0946,-0.63966 -1.3229,-0.45337 c -0.8191,-0.28071 -1.323,-0.80094 -1.323,-1.36598 0,-0.6047 0.4464,-1.01037 1.323,-1.20239 2.719,-0.59562 2.8476,-0.69905 1.8146,-1.45904 -1.2071,-0.88799 -0.562,-2.09974 1.4669,-2.75522 1.834,-0.59253 2.0002,-0.77129 1.1853,-1.2748 -1.1929,-0.73705 0.3419,-1.92732 2.5674,-1.99104 l 1.9856,-0.0568 -2.3094,-0.48055 c -1.727,-0.35937 -2.2715,-0.67714 -2.1592,-1.26015 0.1671,-0.86762 0.097,-0.85076 5.3463,-1.28758 2.0702,-0.17227 3.6568,-0.42037 3.5258,-0.55132 -0.2149,-0.21483 -1.0887,-0.34262 -5.8466,-0.85503 -0.7938,-0.0855 -1.6056,-0.17914 -1.804,-0.20814 -0.1984,-0.029 -0.3608,-0.37734 -0.3608,-0.7741 0,-0.46989 -0.4612,-0.71628 -1.3229,-0.70676 -1.157,0.0128 -1.214,0.078 -0.4544,0.51974 1.3005,0.75635 0.2076,1.75815 -2.3337,2.13913 -1.1806,0.17699 -2.0628,0.55764 -2.0052,0.86518 0.058,0.30903 -0.4229,0.51331 -1.0997,0.4672 -2.0038,-0.13653 -9.6212,0.9488 -9.6212,1.37084 0,0.21688 1.7318,0.39432 3.8485,0.39432 3.0781,0 3.8484,0.14256 3.8484,0.71222 0,0.81012 -0.1923,0.86036 -7.5994,1.98479 -5.7079,0.86649 -6.0862,1.34433 -1.4867,1.878 4.9463,0.5739 3.6173,2.55301 -2.2418,3.33856 -3.8484,0.51598 -4.0958,1.07102 -0.6836,1.53379 1.6688,0.22632 3.1159,0.65805 3.2157,0.9594 0.1111,0.33553 -1.235,0.86293 -3.4727,1.36062 -2.845,0.63277 -3.6365,0.99063 -3.5748,1.61623 0.2408,2.44439 -1.0438,2.7913 -2.1828,0.58943 -0.6918,-1.33751 -0.6732,-1.45803 0.3352,-2.16414 0.5874,-0.41126 1.5068,-0.76421 2.0432,-0.78433 0.6527,-0.0245 0.4183,-0.23679 -0.7083,-0.6416 -1.0709,-0.38478 -1.7371,-0.96445 -1.8304,-1.59249 -0.1288,-0.86746 0.3098,-1.08944 3.608,-1.82626 l 3.7546,-0.83877 -2.3395,-0.59761 c -4.2061,-1.07439 -3.9145,-2.82926 0.5692,-3.42626 l 2.7324,-0.36383 -2.4857,-0.4183 c -2.4798,-0.41729 -3.5016,-1.33536 -2.4166,-2.17132 0.315,-0.24271 2.521,-0.73125 4.9023,-1.08565 l 4.3295,-0.64437 -2.6067,-0.51544 c -2.8191,-0.55745 -3.4194,-1.18426 -2.1459,-2.24083 0.4463,-0.37033 0.8323,-0.58912 0.8578,-0.4862 0.025,0.10291 1.9947,0.008 4.3759,-0.21016 l 4.3295,-0.39728 -2.8026,-0.33131 c -4.749,-0.5614 -5.0578,-2.34957 -0.4161,-2.41001 1.5057,-0.0196 3.7118,-0.18641 4.9025,-0.37068 2.6415,-0.40882 1.7185,-0.92187 -2.4404,-1.35643 -3.1935,-0.33369 -4.0619,-0.74348 -3.6807,-1.73679 0.2242,-0.58397 0.7164,-0.63054 2.7533,-0.26044 4.1016,0.74528 4.8785,0.18471 1.0128,-0.73083 -3.1349,-0.74248 -3.735,-0.76125 -5.0511,-0.15799 -0.8215,0.37652 -1.8183,0.802 -2.2152,0.94551 -0.5695,0.20594 -0.5441,0.26893 0.1203,0.2989 2.1586,0.0974 -0.1908,2.44256 -2.4469,2.44256 -0.5942,0 -0.8327,0.37723 -0.8192,1.2958 0.022,1.51772 -2.356,3.26202 -3.0153,2.21157 -0.2814,-0.44826 -0.7991,-0.42568 -2.273,0.0991 -1.0498,0.37376 -2.2734,0.68907 -2.7192,0.70068 -0.4458,0.0116 -1.4199,0.27496 -2.1648,0.58522 -1.3061,0.54407 -1.2553,0.57605 1.4305,0.90027 1.5316,0.18489 2.931,0.48245 3.1099,0.66125 0.7614,0.76126 -0.9297,2.04791 -4.2544,3.23681 l -3.5644,1.27463 2.1647,0.16813 c 3.0346,0.23568 2.8736,1.35589 -0.332,2.31029 -2.4836,0.73946 -3.759,1.46474 -2.5756,1.46474 1.1186,0 -0.4013,1.34888 -2.182,1.93637 -1.5954,0.52638 -2.1464,1.54459 -1.1642,2.15144 0.6447,0.39833 0.6167,2.16414 -0.034,2.16414 -0.5987,0 -1.3563,-0.72152 -2.5109,-2.39137 -1.115,-1.61264 -1.047,-1.9086 0.5684,-2.47157 1.0103,-0.35207 1.3278,-0.72508 1.1607,-1.36368 -0.1788,-0.68349 0.2343,-1.04312 1.8566,-1.61652 2.0769,-0.7341 2.0793,-0.73765 0.523,-0.77544 -1.1956,-0.029 -1.5635,-0.25054 -1.5635,-0.94146 0,-0.94722 0.7057,-1.31077 5.2917,-2.72633 3.4871,-1.07634 4.0496,-1.66029 1.5995,-1.66029 -5.2963,0 -6.7632,-1.63843 -2.6819,-2.99557 l 2.2851,-0.75983 -2.4053,-0.0533 c -3.0283,-0.0672 -4.0485,-0.61169 -3.1574,-1.68519 0.3461,-0.41691 1.0899,-0.7705 1.6528,-0.78575 1.3406,-0.0363 7.4033,-1.62114 7.8287,-2.04649 0.1818,-0.18171 -1.3114,-0.33039 -3.3183,-0.33039 -2.0068,0 -3.9912,-0.13136 -4.4097,-0.29191 -0.9019,-0.346 -1.0234,-1.61571 -0.1596,-1.66856 0.882,-0.054 1.7223,-0.23982 4.9309,-1.09062 1.5875,-0.42095 4.1311,-1.00407 5.6524,-1.29583 1.5214,-0.29175 2.7661,-0.62495 2.7661,-0.74042 0,-0.24319 -8.6482,0.18943 -10.8968,0.5451 -1.0154,0.16061 -1.7742,-0.0181 -2.2974,-0.5412 -0.5024,-0.50225 -1.0773,-0.64831 -1.6107,-0.40923 -0.7134,0.31975 -0.6742,0.39879 0.2806,0.56471 1.5225,0.2646 1.1156,1.06833 -1.1396,2.25104 -1.6551,0.86803 -1.7579,1.01314 -0.8124,1.14738 1.7954,0.25492 1.2251,1.44104 -1.3105,2.72557 -2.2292,1.12928 -2.3732,1.31081 -2.1046,2.65315 0.3566,1.78278 -0.8248,2.00598 -1.9695,0.37209 -1.0736,-1.53228 -0.9382,-2.13144 0.7004,-3.09911 1.348,-0.79601 1.3816,-0.88096 0.4811,-1.21399 -1.51,-0.55842 -1.1433,-1.62954 0.8357,-2.44123 1.7155,-0.70362 1.7391,-0.74219 0.4811,-0.78664 -1.4287,-0.0505 -1.8089,-1.19653 -0.7159,-2.15785 0.3339,-0.29367 0.5219,-0.48745 0.4178,-0.43063 -0.1041,0.0568 -0.5824,-0.10702 -1.0628,-0.36409 -0.6715,-0.35923 -1.1334,-0.20769 -1.9962,0.65478 -0.6173,0.6172 -2.4787,1.52833 -4.1364,2.02473 -1.6577,0.4964 -3.2644,1.2043 -3.5706,1.5731 -0.4703,0.56649 -0.1215,0.61618 2.248,0.32022 3.9782,-0.4969 3.3942,0.51367 -1.5325,2.6517 -2.1453,0.93104 -4.0593,1.85543 -4.2532,2.05419 -0.194,0.19877 1.3074,0.22111 3.3362,0.0497 5.1446,-0.43474 4.7554,0.93205 -1.0359,3.63874 -2.972,1.38899 -3.2375,2.17231 -0.5846,1.72423 3.6923,-0.62363 3.5587,0.92024 -0.2243,2.59318 -2.3491,1.03879 -3.1723,1.97257 -1.739,1.97257 1.2172,0 1.85,0.96486 0.9661,1.47316 -2.2956,1.32022 -2.6144,1.79986 -1.9346,2.91075 0.5782,0.9449 0.5523,1.15362 -0.2122,1.71251 -0.4789,0.35005 -1.3731,0.63646 -1.9871,0.63646 -1.0428,0 -1.0953,-0.13474 -0.797,-2.04391 0.1757,-1.12415 0.4873,-2.11082 0.6925,-2.1926 0.2051,-0.0818 0.2551,-0.87469 0.1111,-1.76203 -0.236,-1.45393 -0.1019,-1.69738 1.3577,-2.46377 1.6169,-0.84897 1.6176,-0.85093 0.4196,-1.14457 -1.2256,-0.3004 -1.7304,-1.31309 -1.0843,-2.17565 0.1981,-0.26451 1.4426,-1.01738 2.7655,-1.67305 l 2.4053,-1.19213 -2.6417,-0.25063 c -3.5488,-0.3367 -3.8445,-1.48063 -0.7577,-2.93119 1.2082,-0.56774 2.1967,-1.13322 2.1967,-1.25661 0,-0.12339 -0.7035,-0.18583 -1.5634,-0.13877 -2.4819,0.13584 -2.7661,0.0423 -2.7661,-0.91034 0,-0.6858 0.6714,-1.0868 2.8365,-1.69412 4.1166,-1.15471 4.8338,-2.24634 0.9503,-1.44627 -3.1799,0.65509 -4.2679,0.49122 -4.2679,-0.6428 0,-0.59009 -0.3915,-0.66881 -2.0264,-0.40745 -2.44,0.39006 -2.6139,0.5284 -1.8383,1.46261 0.5039,0.60708 0.3916,0.80496 -0.6908,1.21635 -1.1131,0.4231 -1.2501,0.68451 -0.9869,1.88292 0.2906,1.32235 0.1368,1.48284 -3.0892,3.22476 -1.8672,1.00823 -3.3949,1.98086 -3.3949,2.16141 0,0.75618 1.6605,0.88033 2.6967,0.20162 1.2553,-0.82227 3.076,-0.97837 3.076,-0.26372 0,0.25771 -0.7035,0.82627 -1.5634,1.26346 -1.9814,1.00736 -1.8765,0.88581 -1.5339,1.77857 0.2288,0.596 0.5537,0.66362 1.4859,0.3093 1.5441,-0.5869 1.6114,-0.57786 1.6114,0.21646 0,0.36846 -0.3247,0.7945 -0.7216,0.94675 -1.0804,0.41447 -0.897,2.99168 0.2917,4.09879 0.5573,0.51906 0.8693,1.17673 0.6932,1.4615 -0.5224,0.84502 -1.2254,0.59025 -1.2254,-0.44409 0,-0.52901 -0.2713,-0.96184 -0.6029,-0.96184 -0.7116,0 -3.2456,-2.57598 -3.2456,-3.29935 0,-0.27512 0.3789,-0.7208 0.8419,-0.9904 0.7197,-0.41908 0.6499,-0.49232 -0.4811,-0.50482 -1.1628,-0.0128 -1.5403,-0.42653 -1.3959,-1.5295 0.022,-0.17192 -0.527,-0.45507 -1.221,-0.62922 -0.9767,-0.24505 -1.8246,0.0708 -3.7508,1.397 -2.6609,1.83205 -4.8842,3.96614 -4.5158,4.33446 0.309,0.30889 4.848,-1.08842 5.432,-1.67219 0.6043,-0.60417 2.2044,-0.61577 2.2044,-0.016 0,0.25104 -0.8118,1.05569 -1.804,1.78811 -5.1997,3.83828 -5.9402,5.35717 -1.3677,2.8051 3.6699,-2.04826 5.1107,-1.14345 1.6914,1.06214 -0.9057,0.58418 -2.0796,1.3861 -2.6088,1.78203 -0.9135,0.68352 -0.8724,0.72097 0.8135,0.74131 2.4876,0.03 2.7604,0.87044 0.8234,2.53733 l -1.6369,1.40856 1.5818,-0.27065 c 2.0166,-0.34507 2.5676,0.75774 1.1384,2.27861 -0.8066,0.8583 -0.9497,1.44336 -0.7116,2.90995 0.2628,1.61918 0.191,1.81507 -0.6092,1.661 -0.499,-0.0961 -0.9889,-0.605 -1.0887,-1.13098 -0.1,-0.52597 -0.427,-1.11202 -0.7271,-1.30233 -0.402,-0.25493 -0.3874,-0.60135 0.056,-1.316 0.8037,-1.29636 0.7656,-1.41686 -0.3549,-1.12391 -1.2904,0.33735 -1.7975,-1.08171 -0.7858,-2.19928 1.0804,-1.1935 0.9808,-1.50721 -0.4788,-1.50721 -1.0832,0 -1.2267,-0.16761 -1.0288,-1.20229 0.2019,-1.05588 0.062,-1.2023 -1.1466,-1.2023 -1.9944,0 -1.7903,-1.47569 0.4218,-3.04917 l 1.7983,-1.27911 h -1.8134 c -2.1038,0 -2.7992,-1.01647 -1.601,-2.34015 1.0997,-1.21473 0.9987,-1.3396 -0.9037,-1.11756 -1.1867,0.13849 -1.6838,0.43779 -1.6838,1.01381 0,0.44952 -0.3178,1.23739 -0.7062,1.75083 -0.9224,1.2191 -0.9304,2.17987 -0.015,1.82882 1.397,-0.53594 0.6272,1.55727 -1.6016,4.35499 -0.8894,1.11635 -1.056,1.75008 -0.808,3.07199 0.2566,1.36699 0.1818,1.61532 -0.4172,1.38554 -0.5675,-0.2177 -0.7937,0.22245 -1.0172,1.97945 -0.6407,5.03717 -0.7647,5.4735 -1.4771,5.20021 -0.4086,-0.15676 -0.6922,0.0238 -0.6922,0.44073 0,0.38845 0.3247,0.70628 0.7216,0.70628 0.899,0 0.902,0.23941 0.02,1.58457 -0.4493,0.68554 -0.5476,1.31823 -0.2736,1.76144 0.339,0.54832 0.5501,0.42279 1.0189,-0.6058 0.6147,-1.34858 1.4004,-1.74014 1.3973,-0.6963 0,0.33063 -0.4226,1.29095 -0.9368,2.13403 -0.9055,1.4847 -1.1191,4.50557 -0.3713,5.2531 0.1912,0.19121 0.3477,0.79257 0.3477,1.33635 0,0.97778 0.01,0.97822 0.6468,0.0401 1.0099,-1.48103 1.2998,-3.09111 0.5014,-2.78486 -0.3669,0.14076 -0.6648,0.0705 -0.6619,-0.15621 0.013,-0.99064 1.4059,-4.89453 2.341,-6.55898 0.5617,-0.99968 1.0212,-2.12286 1.0212,-2.49596 0,-0.91675 0.9339,-1.43669 1.5229,-0.84787 0.3151,0.31504 0.056,1.30673 -0.7636,2.92381 -1.3219,2.60788 -1.668,4.20941 -0.5917,2.73795 0.3567,-0.48773 0.8668,-0.75196 1.1335,-0.58719 0.2937,0.18151 -0.1575,1.62728 -1.1449,3.66797 -1.3776,2.84718 -4.4788,10.09971 -4.4841,10.48675 -9e-4,0.0661 0.4381,0.12023 0.9756,0.12023 0.5375,0 1.109,-0.37873 1.2701,-0.84161 0.7801,-2.24198 3.5846,-7.81494 3.9328,-7.81494 1.0119,0 0.9131,0.83155 -0.3943,3.31893 -2.9716,5.65375 -4.9432,11.58957 -3.8496,11.58957 0.9766,0 1.2034,-0.30776 2.0295,-2.75401 0.8506,-2.51899 3.5758,-6.86438 4.3049,-6.86438 0.826,0 0.3214,1.68679 -1.2081,4.03804 -0.878,1.34991 -2.0878,3.64465 -2.6883,5.09943 -0.6005,1.45478 -1.2041,2.91558 -1.3413,3.24621 -0.1372,0.33063 0.056,0.60115 0.4285,0.60115 0.3766,0 1.0583,-1.05715 1.5334,-2.3778 0.4704,-1.30779 1.1626,-2.63277 1.5382,-2.9444 0.3756,-0.31164 0.6829,-0.84158 0.6829,-1.17765 0,-0.7119 1.3033,-1.32932 1.6437,-0.77869 0.1272,0.20579 -0.082,0.95379 -0.4657,1.66222 -0.3833,0.70842 -1.0203,1.88318 -1.4156,2.61057 -0.9003,1.65693 -0.9007,3.45407 -9e-4,4.64256 0.7434,0.98193 0.6561,1.06743 1.426,-1.39635 0.124,-0.39676 0.5822,-0.72138 1.0183,-0.72138 0.6066,0 0.7094,0.25403 0.4376,1.08207 -0.1953,0.59514 -0.4524,2.05593 -0.5714,3.2462 l -0.2164,2.16414 0.8762,-1.4895 c 1.789,-3.04141 2.5171,-3.79521 3.1015,-3.211 0.4135,0.41331 0.1758,1.02356 -0.9539,2.44947 -1.2902,1.62858 -1.4043,1.98214 -0.8012,2.48254 0.5825,0.48328 0.845,0.28635 1.5285,-1.14653 0.4539,-0.95152 1.1099,-1.73004 1.4578,-1.73004 0.9214,0 0.7742,1.13293 -0.3297,2.53583 -1.2897,1.63918 -1.2271,2.55766 0.091,1.33027 1.7023,-1.5854 2.4798,-1.28992 2.0887,0.79381 -0.3054,1.62739 -0.2656,1.71853 0.4796,1.10022 0.7009,-0.58148 0.8881,-0.57176 1.3618,0.0707 1.0834,1.46919 2.7015,1.87225 7.621,1.89833 6.3668,0.0337 7.9081,-0.58692 11.8117,-4.75638 6.8374,-7.30301 7.9712,-14.01682 3.3852,-20.04546 -2.8612,-3.76124 -4.676,-5.05611 -8.0773,-5.76323 -2.1003,-0.43665 -6.1884,-2.71535 -7.5142,-4.18846 -1.2413,-1.37924 -2.6557,-4.94253 -2.3145,-5.83121 0.1398,-0.36438 0.9473,-1.18236 1.7943,-1.81774 1.4022,-1.05181 1.9922,-1.15372 6.5912,-1.13845 4.7185,0.0157 5.2624,0.12063 8.2588,1.5942 1.7642,0.8676 3.3249,1.88277 3.4681,2.25594 0.1433,0.37318 1.1893,1.1252 2.3246,1.67117 1.2149,0.58429 2.7532,1.92455 3.7392,3.25787 2.3161,3.13198 5.3002,9.19238 5.3002,10.76406 0,0.71677 0.2165,1.43698 0.4811,1.60045 0.6661,0.41158 0.5576,6.99582 -0.1823,11.06115 -0.6209,3.41154 -3.1975,8.74738 -4.4573,9.23068 -0.3586,0.13758 -0.6521,0.65799 -0.6521,1.15645 0,0.53108 -1.2763,1.95063 -3.0829,3.42882 -2.5329,2.07252 -3.0019,2.67381 -2.6289,3.37053 0.6522,1.21818 1.5373,1.04648 2.4462,-0.47453 0.4347,-0.72739 1.9248,-2.45675 3.3114,-3.84302 4.0133,-4.0123 8.8513,-5.47919 18.2345,-5.52873 8.6548,-0.0457 10.5384,0.38767 20.9262,4.81454 1.5875,0.67654 3.8605,1.81549 5.0511,2.53102 2.3965,1.44022 5.098,2.12736 5.5418,1.40956 0.158,-0.25569 -0.916,-2.50892 -2.3867,-5.00717 -1.4707,-2.49825 -2.674,-4.73747 -2.674,-4.97604 0,-0.84226 -1.618,-3.72713 -2.9653,-5.28724 -0.7504,-0.86884 -1.3643,-1.89681 -1.3643,-2.28436 0,-0.38756 -0.1623,-0.70504 -0.3608,-0.70551 -0.1984,-4.7e-4 -1.005,-1.02844 -1.7925,-2.28437 -1.7091,-2.72612 -1.7206,-2.74196 -3.7115,-5.11595 -1.3398,-1.59756 -1.576,-2.26442 -1.6184,-4.56873 -0.086,-4.67305 0.3763,-5.53431 3.7743,-7.03037 3.45,-1.51892 8.9269,-2.61803 13.1136,-2.63164 2.7908,-0.009 4.065,0.51547 4.065,1.67333 0,0.69017 -2.7812,1.68365 -4.7134,1.68365 -1.0886,0 -1.7412,0.34023 -2.3062,1.2023 -0.4334,0.66126 -1.2226,1.2023 -1.7537,1.2023 -0.8005,0 -0.864,0.12247 -0.3716,0.71568 0.4756,0.57288 0.4634,0.75434 -0.061,0.90938 -0.3606,0.10653 -1.8462,0.65417 -3.3014,1.21696 l -2.6458,1.02327 2.1648,-0.25435 c 1.1906,-0.13989 3.0103,-0.38795 4.0437,-0.55126 1.5682,-0.24779 1.8319,-0.174 1.5939,0.44604 -0.1638,0.42656 0.022,0.86086 0.4365,1.01981 1.1403,0.43745 0.3808,1.08069 -1.9769,1.67419 -2.556,0.64342 -2.9328,1.26361 -0.4893,0.80534 1.3073,-0.24517 1.6837,-0.15685 1.6837,0.39499 0,0.39092 -0.4479,0.85288 -0.9953,1.02657 -0.9515,0.30192 -0.9568,0.34434 -0.1202,0.96451 0.841,0.6235 0.8376,0.6773 -0.087,1.38453 -0.9247,0.7072 -0.9013,0.73641 0.6013,0.75111 1.0622,0.0104 1.5635,0.24656 1.5635,0.73667 0,0.67056 -0.6009,0.94778 -1.6353,0.75442 -0.2379,-0.0445 -0.7791,0.0626 -1.2026,0.23803 -0.5727,0.23718 -0.3386,0.46999 0.9136,0.90844 1.9328,0.67674 2.173,1.6742 0.5928,2.46178 -1.8076,0.90092 -1.8322,1.20442 -0.086,1.06237 1.5882,-0.12922 1.6534,-0.071 1.5429,1.37849 -0.075,0.97901 0.1377,1.6105 0.6013,1.78836 0.3942,0.15121 0.7167,0.61912 0.7167,1.03979 0,0.42067 0.1727,0.65816 0.3838,0.52775 0.2111,-0.13041 0.6981,-0.0416 1.0824,0.1974 0.5749,0.3576 0.5915,0.60737 0.093,1.41103 -0.3577,0.577 -0.4069,0.97651 -0.1203,0.97651 0.2669,0 0.4852,0.40809 0.4852,0.90687 0,0.85329 0.6032,2.25544 1.6789,3.90233 0.2591,0.39676 0.5105,1.26241 0.5586,1.92368 0.1366,1.87738 0.9081,4.95263 1.5081,6.01149 0.2998,0.52901 1.2214,2.36853 2.0481,4.08782 1.8678,3.88491 4.3219,8.26111 5.254,9.36903 1.0339,1.22899 2.3317,1.62748 5.4117,1.66163 2.2844,0.0253 2.8371,-0.13378 3.2694,-0.94129 z m 46.417,-58.878 c -4.4561,-2.0835 -17.0128,-5.55528 -20.0923,-5.55528 -1.3405,0 -3.1175,-1.16389 -2.4278,-1.59007 0.5817,-0.35937 6.1664,0.46265 9.772,1.43835 13.0052,3.51927 16.3561,4.6941 16.3561,5.73451 0,0.85709 -1.7445,0.84378 -3.608,-0.0275 z m -165.2492,-1.10678 c 0,-0.19838 0.459,-1.76738 1.0259,-3.48666 0.5669,-1.71929 1.1035,-3.3965 1.1924,-3.72713 0.089,-0.33063 0.5185,-0.60115 0.9545,-0.60115 0.9086,0 0.8283,0.51606 -0.8046,5.16989 -0.5955,1.69707 -1.3395,3.00574 -1.709,3.00574 -0.3599,0 -0.6565,-0.16231 -0.6592,-0.36069 z m 94.5333,-0.60115 c 0.1635,-0.2645 0.6093,-0.48092 0.9905,-0.48092 0.3813,0 0.6932,0.21642 0.6932,0.48092 0,0.26451 -0.4457,0.48092 -0.9905,0.48092 -0.5448,0 -0.8567,-0.21641 -0.6932,-0.48092 z m -6.0132,-4.80919 c 0,-0.26451 0.2164,-0.48092 0.481,-0.48092 0.2646,0 0.4811,0.21641 0.4811,0.48092 0,0.2645 -0.2165,0.48092 -0.4811,0.48092 -0.2646,0 -0.481,-0.21642 -0.481,-0.48092 z m 48.9779,-3.69496 c 0.3473,-0.13893 0.7622,-0.12184 0.9221,0.038 0.1598,0.1598 -0.1243,0.27347 -0.6314,0.25258 -0.5604,-0.0231 -0.6744,-0.13703 -0.2907,-0.29055 z m -42.9248,-2.49245 c -0.2072,-0.3352 -0.2468,-0.73934 -0.088,-0.89808 0.4306,-0.4304 0.9,0.20262 0.6675,0.90002 -0.163,0.4887 -0.2763,0.48832 -0.5794,-0.002 z m -48.0016,69.5726 c 1.4825,-1.48206 -0.3043,-5.00916 -2.6764,-5.28323 -1.4686,-0.16969 -2.0363,-1.54757 -0.8285,-2.01092 0.9449,-0.36248 2.9938,0.64978 4.4019,2.17476 0.5886,0.63745 1.1875,2.12093 1.3775,3.41213 0.2289,1.55545 0.5655,2.28437 1.0547,2.28437 0.4205,0 0.6105,-0.28113 0.4581,-0.67806 -0.1431,-0.37293 -0.024,-1.447 0.2643,-2.38682 0.4693,-1.52845 0.4121,-1.79989 -0.5422,-2.57236 -0.7077,-0.57287 -0.9586,-1.1455 -0.7454,-1.701 0.4804,-1.25142 1.4695,-1.01528 2.6419,0.63072 0.8577,1.20423 0.988,1.85254 0.7249,3.6069 -0.2885,1.923 -0.2241,2.13878 0.638,2.13878 0.5274,0 1.4323,-0.66477 2.0111,-1.47727 1.3128,-1.84319 1.0258,-4.57333 -0.6134,-5.83444 -1.3822,-1.06342 -5.0595,-2.11299 -8.7919,-2.50936 -3.1135,-0.33065 -4.3311,-1.25854 -4.8709,-3.71199 l -0.2793,-1.26962 -3.2222,1.85715 c -2.6466,1.52543 -3.932,1.93655 -7.1965,2.30168 -2.1859,0.24448 -4.1051,0.57523 -4.2649,0.73499 -0.1598,0.15976 -0.062,0.29047 0.2171,0.29047 0.2793,0 0.642,0.7154 0.806,1.58978 0.1808,0.96336 1.0647,2.3372 2.2433,3.48666 l 1.945,1.89689 4.1552,-0.0855 c 4.4769,-0.0921 5.804,0.3246 7.7849,2.44438 1.2631,1.35154 2.3968,1.58149 3.3077,0.67088 z m 110.2248,-12.03538 c 0.6904,-1.97975 -0.3368,-3.55567 -3.2205,-4.94108 -2.1083,-1.01287 -2.6065,-1.96498 -1.1951,-2.28371 2.4392,-0.55081 6.3685,3.17734 6.3723,6.0461 0,1.03036 0.2035,1.31897 0.8381,1.19678 0.46,-0.0886 0.9112,-0.59136 1.0027,-1.11733 0.092,-0.52598 0.4353,-1.17273 0.7639,-1.43724 0.8801,-0.70833 1.2653,-2.67153 0.7229,-3.68465 -0.2899,-0.54155 -1.0059,-0.88408 -1.8481,-0.88408 -1.2838,0 -2.2531,-0.98819 -1.6049,-1.6362 0.1582,-0.15812 1.1118,-0.28748 2.1193,-0.28748 1.5418,0 1.9478,0.22454 2.5656,1.41887 0.4037,0.78039 0.7404,2.24118 0.7483,3.24621 l 0.014,1.82733 1.8955,-2.16414 c 1.0426,-1.19027 1.902,-2.52625 1.9099,-2.96884 0.019,-1.0511 -2.1627,-3.62313 -3.7712,-4.44629 -0.6961,-0.35625 -2.4562,-0.80191 -3.9114,-0.99035 -3.4662,-0.44886 -6.4836,-1.96884 -8.4365,-4.24975 -1.5391,-1.79747 -1.6112,-1.82506 -2.9447,-1.12667 -1.1272,0.59039 -6.3693,4.17889 -10.4644,7.16347 -0.8672,0.63203 -0.8069,0.7258 1.061,1.64968 1.0892,0.53876 3.776,2.87812 5.9706,5.19858 4.7506,5.02313 6.217,6.01794 8.8739,6.02033 1.8186,0.002 2.0459,-0.13712 2.5384,-1.54954 z m -131.561,-0.18876 c 0.6966,-0.26724 0.6884,-0.36462 -0.081,-0.96216 -0.813,-0.63138 -0.8039,-0.70918 0.1812,-1.54666 l 1.0373,-0.88183 -0.9643,-1.52244 c -0.7596,-1.19943 -1.296,-1.52244 -2.5281,-1.52244 -0.8601,0 -3.2011,-0.13836 -5.2021,-0.30746 -3.3323,-0.2816 -3.6317,-0.23354 -3.5603,0.57138 0.057,0.64428 -0.4104,0.99742 -1.7518,1.32316 -1.7498,0.42491 -1.7942,0.48364 -1.016,1.34328 0.6644,0.73389 0.7025,1.03306 0.2074,1.62935 -0.5241,0.63135 -0.3537,0.73402 1.2566,0.75706 1.4302,0.0205 7.3514,0.73423 11.3244,1.36506 0.1768,0.0281 0.6703,-0.0828 1.0966,-0.2463 z m 13.2543,-3.90444 c 2.7782,-1.45483 5.6465,-3.06705 6.3741,-3.58271 1.5251,-1.08085 1.8279,-2.13793 0.3924,-1.3699 -1.1932,0.63841 -2.7739,0.63895 -3.1683,10e-4 -0.1689,-0.27321 0.1358,-1.24707 0.677,-2.16414 1.0584,-1.79335 0.7264,-2.30732 -0.4407,-0.68236 -0.7536,1.04908 -3.0747,2.38141 -4.1489,2.38141 -0.3562,0 -0.6477,-0.37651 -0.6477,-0.8367 0,-0.66877 -0.2452,-0.57226 -1.2221,0.48092 -0.6722,0.72469 -1.4298,1.31762 -1.6837,1.31762 -0.2539,0 -0.4616,0.33507 -0.4616,0.74459 0,0.40953 -0.6141,1.00467 -1.3647,1.32253 -0.7506,0.31787 -1.2805,0.82826 -1.1775,1.13422 0.1029,0.30596 -0.3053,0.90109 -0.9071,1.32253 -0.8888,0.62231 -0.9387,0.76624 -0.2657,0.76624 1.0773,0 1.0686,1.24825 -0.013,1.90967 -0.6467,0.39538 -0.3958,0.44347 1.0824,0.20742 1.0583,-0.169 4.1972,-1.49759 6.9753,-2.95243 z m -30.3068,0.75805 c -3.6526,-0.99796 -4.0168,-1.14423 -4.1964,-1.68535 -0.1024,-0.30818 0.2336,-0.69351 0.7466,-0.85628 0.513,-0.16276 0.9038,-0.66806 0.8684,-1.12288 -0.053,-0.68552 0.2897,-0.80032 2.0063,-0.67132 1.8769,0.14105 2.0265,0.0736 1.5985,-0.72138 -0.2596,-0.48235 -0.5879,-1.25207 -0.7295,-1.71049 -0.1446,-0.46804 -0.5514,-0.72076 -0.9277,-0.57637 -0.3687,0.14143 -1.4256,-0.18833 -2.3486,-0.73279 -1.2089,-0.71304 -2.372,-0.95974 -4.1585,-0.88204 -1.3642,0.0593 -2.4803,0.26709 -2.4803,0.46166 0,0.19458 -0.7402,0.70494 -1.645,1.13415 -1.5087,0.71574 -1.7422,0.71671 -2.8186,0.0117 -1.0064,-0.65923 -2.7523,-0.62309 -2.7523,0.057 0,0.37185 2.9308,2.70972 5.2533,4.19047 4.2435,2.70557 6.7966,3.60828 10.1406,3.5854 2.8606,-0.0196 2.9835,-0.0606 1.4432,-0.48141 z m 58.1088,-0.48012 c 0.2181,-1.13535 -1.7661,-2.80902 -3.3302,-2.80902 -1.6019,0 -2.2187,-0.81131 -1.3084,-1.72129 0.5242,-0.52403 1.0591,-0.55902 2.4935,-0.16308 1.8965,0.5235 2.9066,1.31962 4.2199,3.32606 0.6939,1.06006 0.9023,1.12132 2.0445,0.60102 0.7576,-0.34504 1.2719,-0.96801 1.2719,-1.5404 0,-1.32562 -2.0858,-2.61042 -3.615,-2.22673 -1.5795,0.39632 -2.2504,-0.99501 -0.9413,-1.95203 0.7994,-0.58435 0.6705,-0.65145 -1.2447,-0.6482 -2.7003,0.005 -8.0237,0.85695 -9.1647,1.46739 -0.7737,0.41396 -0.6049,0.72105 1.5499,2.81929 1.33,1.2951 3.0625,2.66671 3.8501,3.04802 1.901,0.92043 3.9783,0.82039 4.1745,-0.20103 z m 9.429,-2.75247 c 0.571,-0.63072 0.7207,-1.29887 0.4938,-2.20298 -0.3793,-1.51052 -0.4268,-1.53076 -4.5316,-1.92837 l -3.1269,-0.3029 2.1648,1.10678 c 1.384,0.70759 2.425,1.66675 2.8864,2.65936 0.8444,1.81688 1.0226,1.87322 2.1135,0.66811 z m -83.4279,-8.11196 c 0.01,-0.33063 0.4481,-0.60115 0.9772,-0.60115 0.5292,0 0.9622,-0.21641 0.9622,-0.48092 0,-0.2645 0.4329,-0.48092 0.9621,-0.48092 0.5292,0 0.9621,-0.24165 0.9621,-0.537 0,-0.30024 0.4242,-0.42612 0.9621,-0.28549 0.9178,0.23994 1.4453,-0.81142 0.5927,-1.18134 -0.2033,-0.0882 -1.0917,-1.29648 -1.9744,-2.68513 -0.8827,-1.38866 -1.893,-2.52483 -2.2451,-2.52483 -1.1579,0 -3.0516,0.90539 -4.113,1.9665 -0.9112,0.91091 -1.0069,1.39195 -0.7555,3.79664 0.1584,1.51446 0.5098,3.33706 0.7811,4.05021 0.4878,1.28282 0.5058,1.28741 1.6832,0.43062 0.6546,-0.47632 1.197,-1.13655 1.2053,-1.46719 z m 58.6115,-1.92367 c 0.7204,-1.59223 1.0733,-3.45009 1.1646,-6.13173 l 0.1311,-3.84736 -1.9243,0.0375 c -1.5429,0.03 -1.9526,0.22877 -2.0676,1.00289 -0.099,0.66493 -0.6976,1.10234 -1.9242,1.4053 -1.5476,0.38226 -1.8006,0.64459 -1.9316,2.00286 -0.085,0.87795 0.073,1.56299 0.3608,1.56299 0.7458,0 0.6325,0.75795 -0.4473,2.99222 -1.0995,2.27504 -0.9951,2.90827 0.1831,1.1106 0.9159,-1.3974 2.3744,-1.65865 2.1284,-0.38122 -0.2107,1.0938 1.0286,2.4396 2.2933,2.49028 0.7437,0.0298 1.2651,-0.54563 2.0337,-2.24429 z m 39.8908,-8.1055 c -0.1599,-0.15981 -0.5748,-0.17689 -0.9221,-0.038 -0.3837,0.15352 -0.2697,0.26748 0.2907,0.29056 0.5071,0.0209 0.7912,-0.0928 0.6314,-0.25259 z m -90.6317,-2.22678 c 0.265,-1.05118 0.2501,-1.05668 -0.423,-0.15604 -0.7726,1.03388 -0.933,1.91372 -0.2746,1.50695 0.2326,-0.14374 0.5466,-0.75165 0.6976,-1.35091 z m 153.941,-0.90734 c 0.7725,-0.6933 1.3178,-1.52078 1.2118,-1.83886 -0.1874,-0.56178 -0.7364,-0.1078 -3.7772,3.12299 l -1.2027,1.2778 1.1818,-0.6507 c 0.6499,-0.35788 1.8138,-1.21794 2.5863,-1.91123 z m -0.6412,-3.36497 c 0,-0.2645 -0.2164,-0.34716 -0.481,-0.18369 -0.2646,0.16347 -0.4811,0.51364 -0.4811,0.77814 0,0.26451 0.2165,0.34717 0.4811,0.1837 0.2646,-0.16348 0.481,-0.51364 0.481,-0.77815 z m -65.9053,0.18874 c -0.3968,-0.15015 -0.8947,-0.5659 -1.1063,-0.92387 -0.4102,-0.69404 -2.2611,-0.91189 -2.2611,-0.26612 0,0.83444 1.2273,1.53706 2.6218,1.50097 0.807,-0.0209 1.1425,-0.16082 0.7456,-0.31098 z m -37.3079,-4.72442 c -1.4904,-4.01284 -2.8757,-5.92463 -3.6976,-5.10293 -0.307,0.30685 -0.9624,0.55791 -1.4564,0.55791 -0.6896,0 -0.8249,0.23137 -0.5823,0.99558 0.2336,0.73567 0.075,1.0585 -0.6057,1.23657 -0.507,0.13254 -1.3023,0.88496 -1.7674,1.67204 -0.7907,1.33821 -0.7938,1.51006 -0.048,2.64851 0.4566,0.69672 1.0853,1.1072 1.4698,0.9597 0.3695,-0.14176 0.9818,0.0521 1.3606,0.43085 0.5977,0.5975 0.7248,0.59479 0.961,-0.0204 0.3522,-0.91754 1.5636,-0.91485 1.9164,0.004 0.1505,0.3923 0.5848,0.59396 0.9649,0.44814 0.3801,-0.14583 0.8469,-0.0132 1.0372,0.29471 0.2556,0.41333 0.5218,0.38423 1.0174,-0.11116 0.5742,-0.57407 0.4918,-1.15393 -0.5703,-4.01373 z m -54.6622,2.90923 c -0.3014,-0.66126 -0.7297,-1.2023 -0.9518,-1.2023 -0.5316,0 -0.5094,0.34691 0.094,1.47438 0.74,1.38239 1.5016,1.1408 0.8576,-0.27208 z m 148.7353,0.24046 c 0.3969,-0.2564 0.5051,-0.46619 0.2405,-0.46619 -0.2646,0 -0.8058,0.20979 -1.2026,0.46619 -0.3969,0.25641 -0.5052,0.46619 -0.2406,0.46619 0.2646,0 0.8058,-0.20978 1.2027,-0.46619 z m 2.4013,-2.41726 c -0.3947,-0.24944 -0.9341,-0.43976 -1.1987,-0.42293 -0.2646,0.0168 -0.2104,0.13976 0.1203,0.27318 0.3307,0.13341 0.6013,0.59243 0.6013,1.02005 0,0.6192 0.1216,0.65592 0.5973,0.18036 0.4757,-0.47556 0.4512,-0.68946 -0.1202,-1.05066 z m -148.8328,-0.26713 c -0.1606,-0.41839 -0.292,-1.06763 -0.292,-1.44276 0,-0.76575 -1.2326,-0.93079 -1.6698,-0.22357 -0.3096,0.5007 1.1415,2.42704 1.8282,2.42704 0.2341,0 0.2942,-0.34232 0.1336,-0.76071 z m 88.4637,0.27979 c 0.1635,-0.2645 -0.1357,-0.48092 -0.6648,-0.48092 -0.5292,0 -1.0959,0.21642 -1.2595,0.48092 -0.1635,0.26451 0.1357,0.48092 0.6648,0.48092 0.5292,0 1.096,-0.21641 1.2595,-0.48092 z m 48.8276,-1.00148 1.2027,-0.98009 -1.5635,0.76268 c -0.8599,0.41947 -1.5634,0.86532 -1.5634,0.99078 0,0.47826 0.7663,0.17027 1.9242,-0.77337 z m -139.0265,-3.85917 c 0,-1.10485 -0.7472,-1.20201 -1.1512,-0.14967 -0.471,1.2272 -0.3408,1.63244 0.4296,1.33688 0.3969,-0.15225 0.7216,-0.68649 0.7216,-1.18721 z m 41.9489,-0.31713 c -1.313,-0.43751 -0.5466,-1.89232 1.3215,-2.50865 1.0445,-0.34462 2.0205,-0.94275 2.1688,-1.32917 0.1483,-0.38642 0.5926,-0.57871 0.9872,-0.42732 0.3947,0.1514 0.7176,0.0766 0.7176,-0.16619 0,-0.83407 -3.1297,-3.37489 -5.7728,-4.68654 -5.4612,-2.71024 -13.3822,-1.75507 -13.1275,1.58302 0.1511,1.98015 3.1486,4.77577 6.336,5.90918 4.6384,1.64939 7.0149,2.30162 7.4894,2.05544 0.2516,-0.1305 0.1975,-0.3239 -0.1202,-0.42977 z M 10006,655.61253 c 0.2,-0.32375 -0.218,-1.00679 -0.997,-1.62735 -0.738,-0.58818 -1.193,-1.30981 -1.011,-1.60362 0.201,-0.32559 -0.06,-0.5342 -0.66,-0.5342 -0.545,0 -0.991,-0.31185 -0.991,-0.693 0,-1.16299 0.891,-1.32515 1.752,-0.31905 0.749,0.87414 0.928,0.8946 2.178,0.24857 1.441,-0.74516 1.642,-1.16336 0.913,-1.90562 -0.852,-0.86847 -0.696,-2.87034 0.405,-5.20773 0.608,-1.29044 1.287,-3.45458 1.51,-4.8092 0.222,-1.35461 0.549,-3.05807 0.727,-3.78546 0.343,-1.40048 -0.43,-1.88712 -0.93,-0.5853 -0.156,0.40548 -1.925,1.50568 -3.931,2.44489 -2.006,0.9392 -3.749,1.97393 -3.874,2.29938 -0.125,0.32546 0.139,1.87633 0.587,3.44638 1.24,4.34151 0.806,7.21176 -1.427,9.44416 -0.9499,0.94958 -1.3287,2.43122 -0.8262,3.23157 0.5195,0.82746 4.2792,1.45815 5.4152,0.90826 0.448,-0.21711 0.97,-0.64581 1.16,-0.95268 z m -4.621,-0.61081 c 0,-0.38115 0.192,-0.81159 0.426,-0.95654 0.53,-0.32729 1.608,0.89819 1.173,1.3331 -0.572,0.57218 -1.599,0.33038 -1.599,-0.37656 z m -181.5946,-1.6256 c -0.3822,-0.38214 -1.2094,0.48537 -0.9157,0.96041 0.1998,0.32312 0.4477,0.27393 0.7033,-0.13953 0.2171,-0.35121 0.3127,-0.72061 0.2124,-0.82088 z m -0.7274,-3.08929 c 0,-0.80044 -0.1211,-0.86138 -0.7216,-0.36315 -0.3969,0.32928 -0.7216,1.03152 -0.7216,1.56053 0,0.80044 0.1211,0.86138 0.7216,0.36315 0.3969,-0.32928 0.7216,-1.03152 0.7216,-1.56053 z m 180.667,-0.57996 c 0.425,-0.64826 0.68,-1.56802 0.568,-2.04391 -0.166,-0.7025 -0.3073,-0.61649 -0.7497,0.45727 -0.6543,1.58831 -0.7504,1.60351 -1.9563,0.30955 -0.969,-1.03981 -1.9798,-0.89036 -1.9798,0.29272 0,0.74043 1.8033,2.16302 2.7418,2.16302 0.3319,0 0.9511,-0.53039 1.376,-1.17865 z m -0.3237,-4.54859 c 0.4773,-0.30221 0.5578,-0.81328 0.2827,-1.79609 -0.6724,-2.40196 -0.6169,-10.83099 0.1024,-15.56081 0.8106,-5.32917 2.7616,-9.76822 4.4006,-10.01173 1.015,-0.15075 1.012,-0.1193 -0.221,2.25644 -1.312,2.52757 -2.54,7.35282 -2.569,10.08948 l -0.02,1.61281 1.768,-1.55168 c 1.683,-1.4777 1.912,-1.54005 4.805,-1.30788 2.906,0.23314 3.029,0.19898 2.822,-0.78251 -0.119,-0.56447 -0.576,-2.75762 -1.015,-4.87366 -1.243,-5.99383 -3.982,-10.44195 -8.593,-13.95792 -1.4543,-1.10922 -2.2484,-1.26826 -8.5127,-1.70481 -3.7999,-0.26481 -7.9912,-0.38755 -9.3141,-0.27275 -1.3229,0.11479 -3.1089,0.23051 -3.9688,0.25715 -0.8599,0.0266 -1.5634,0.26486 -1.5634,0.52936 0,0.26451 0.2379,0.48092 0.5286,0.48092 2.2933,0 5.7989,3.32097 4.7893,4.53711 -0.3806,0.45848 -0.3264,0.78532 0.203,1.22461 0.3973,0.32957 0.6139,0.7745 0.4815,0.98873 -0.1325,0.21423 0.1854,1.11166 0.7063,1.99429 0.6927,1.1737 0.8136,1.79726 0.45,2.32129 -0.3578,0.51565 -0.5633,0.55475 -0.7331,0.13949 -0.6613,-1.61722 -2.3429,-3.03233 -4.3872,-3.69196 -2.3785,-0.76744 -9.7373,-1.90091 -10.085,-1.55337 -0.2322,0.23216 1.5072,0.58754 4.9197,1.00518 1.3229,0.1619 3.7672,0.95121 5.4317,1.75402 2.3988,1.15697 2.9696,1.63847 2.7526,2.32201 -0.1898,0.59768 0.026,0.94064 0.7018,1.11741 1.1294,0.29526 1.3329,1.78786 0.2437,1.78786 -0.4025,0 -1.539,-0.53152 -2.5256,-1.18116 -2.6365,-1.73622 -6.8879,-2.67331 -11.8767,-2.61789 -4.7399,0.0527 -4.6003,0.11198 3.8293,1.6272 6.2824,1.12927 10.8375,3.32865 14.4844,6.99373 1.5013,1.50878 3.0723,2.71829 3.4911,2.6878 0.4188,-0.0305 0.7797,0.26919 0.8022,0.66595 0.022,0.39676 0.5464,1.79738 1.1643,3.11249 0.618,1.31511 1.1705,3.15463 1.2278,4.08782 0.057,0.93318 0.4589,2.53468 0.8924,3.55888 0.4335,1.0242 0.7882,2.25353 0.7882,2.73184 0,0.5195 0.4358,0.95358 1.0824,1.07808 0.5953,0.11463 1.1906,0.23457 1.3229,0.26654 0.1323,0.032 0.5407,-0.13195 0.9077,-0.36427 z m -14.1369,-22.16609 c -0.1635,-0.26451 0.1484,-0.48092 0.6932,-0.48092 0.5448,0 0.9905,0.21641 0.9905,0.48092 0,0.2645 -0.3119,0.48092 -0.6932,0.48092 -0.3812,0 -0.827,-0.21642 -0.9905,-0.48092 z m 13.9508,-0.96184 c 0.1635,-0.26451 0.3927,-0.48092 0.5094,-0.48092 0.1167,0 0.2122,0.21641 0.2122,0.48092 0,0.2645 -0.2293,0.48092 -0.5095,0.48092 -0.2802,0 -0.3757,-0.21642 -0.2121,-0.48092 z m -9.4393,15.43583 c 0.8639,-0.54703 0.4432,-1.16733 -1.6153,-2.38149 l -1.677,-0.98914 -0.4187,1.54188 c -0.2303,0.84804 -0.3295,1.7042 -0.2204,1.90257 0.2722,0.49517 3.1171,0.44175 3.9314,-0.0738 z m -51.0388,-0.64755 c 0.2716,-0.33064 0.5687,-1.1294 0.6602,-1.77503 0.1246,-0.87911 0.5891,-1.28531 1.8501,-1.61769 1.6813,-0.44319 1.682,-0.4445 0.481,-0.92917 -0.6614,-0.26695 -2.0172,-0.64662 -3.0128,-0.84371 -1.4738,-0.29174 -1.712,-0.23998 -1.2815,0.27854 0.7049,0.84917 0.1557,1.63912 -1.146,1.64821 -0.7747,0.005 -0.881,0.11694 -0.4013,0.42081 0.4339,0.27486 0.4813,0.51935 0.1413,0.72941 -0.6796,0.41987 -0.1492,1.72794 0.7007,1.72794 0.3685,0 0.6701,0.21641 0.6701,0.48092 0,0.66832 0.7454,0.60135 1.3382,-0.12023 z m -4.9462,-0.84161 c 0.3566,-0.5768 -1.0626,-0.5768 -2.4053,0 -0.811,0.3484 -0.721,0.41862 0.573,0.44711 0.8442,0.0186 1.6688,-0.18261 1.8323,-0.44711 z m 68.9521,-0.90009 c 0.205,-1.43774 -0.869,-1.16945 -1.435,0.35846 -0.331,0.89399 -0.252,1.06305 0.435,0.93216 0.462,-0.088 0.912,-0.66872 1,-1.29062 z m -18.8362,-2.17846 c -0.1673,-0.47391 -2.685,-0.49463 -3.1538,-0.0259 -0.1039,0.10393 0.196,0.7763 0.6665,1.49416 l 0.8554,1.3052 0.9092,-1.12253 c 0.5001,-0.6174 0.8253,-1.36029 0.7227,-1.65088 z m 23.7362,-0.059 c 0.728,-0.87654 0.625,-1.01333 -1.093,-1.44418 -1.102,-0.27649 -1.322,-0.17627 -1.322,0.60213 0,1.67987 1.334,2.14481 2.415,0.84205 z m -80.1686,-3.60994 c -0.3283,-0.32816 -0.889,-0.33845 -1.6597,-0.0305 -1.0937,0.43702 -1.0637,0.46694 0.4957,0.49558 1.1392,0.0209 1.5042,-0.12494 1.164,-0.4651 z m 9.684,0.0147 c -0.1636,-0.2645 -0.8799,-0.48423 -1.5919,-0.48828 -1.9228,-0.0109 -2.7368,-0.63712 -1.9314,-1.48574 0.981,-1.03358 0.8538,-2.77784 -0.2275,-3.12094 -0.9433,-0.29931 -2.208,0.84968 -1.285,1.16745 0.2561,0.0882 0.4657,0.57254 0.4657,1.07639 0,0.69776 -0.4613,0.98981 -1.9355,1.22548 -1.919,0.30678 -1.9253,0.31468 -0.7423,0.92828 1.6641,0.86307 2.5745,1.05842 5.2317,1.12249 1.4324,0.0345 2.2002,-0.12737 2.0162,-0.42513 z m 4.089,-0.48092 c 0,-0.2645 -0.4871,-0.4776 -1.0824,-0.47355 -0.8753,0.006 -0.9443,0.0966 -0.3608,0.47355 0.9326,0.60256 1.4432,0.60256 1.4432,0 z m 4.9799,-0.81049 c 0.4063,-0.40623 -4.375,-2.51729 -5.7015,-2.51738 -0.7887,-4e-5 -0.7169,0.13284 0.3987,0.7373 0.8392,0.45469 1.2599,1.0004 1.0975,1.42351 -0.203,0.52872 0.2114,0.68614 1.8061,0.68614 1.1382,0 2.2179,-0.14831 2.3992,-0.32957 z m -8.9587,-1.40374 c -0.1599,-0.15981 -0.5748,-0.17689 -0.922,-0.038 -0.3838,0.15352 -0.2698,0.26748 0.2906,0.29056 0.5071,0.0209 0.7912,-0.0928 0.6314,-0.25259 z M 9834.51,625.4227 c 1.1581,-0.51475 2.8513,-1.48861 3.7626,-2.16413 0.9113,-0.67552 1.9937,-1.23376 2.4053,-1.24053 0.4116,-0.007 1.939,-0.78477 3.3942,-1.72889 1.4552,-0.94411 2.1047,-1.55804 1.4432,-1.36429 -0.6615,0.19376 -1.7189,0.75534 -2.3499,1.24797 -1.4007,1.09351 -2.4607,1.15449 -2.4607,0.14155 0,-0.61475 -0.289,-0.55155 -1.5634,0.34194 -1.9198,1.34587 -7.2228,5.70231 -6.9413,5.70231 0.1124,0 1.1519,-0.42117 2.31,-0.93593 z m 113.822,0.64537 c -0.1599,-0.15981 -0.5748,-0.17689 -0.922,-0.038 -0.3838,0.15352 -0.2698,0.26748 0.2906,0.29056 0.5071,0.0209 0.7912,-0.0928 0.6314,-0.25259 z m -38.8061,-2.27685 c -0.2487,-0.24871 -2.0344,-0.28837 -4.1327,-0.0918 -4.0334,0.37785 -4.281,1.07142 -0.4669,1.30782 2.678,0.16599 5.291,-0.52483 4.5996,-1.21602 z m -77.3053,0.40603 c -0.1517,-0.39524 -0.4927,-0.5846 -0.7578,-0.42081 -0.2964,0.18313 -0.2307,0.45704 0.1707,0.71126 0.8759,0.55485 0.9059,0.53999 0.5871,-0.29045 z m 96.0371,0.0533 c 0,-0.10141 -0.4329,-0.29756 -0.9621,-0.4359 -0.5292,-0.13834 -0.9621,-0.0554 -0.9621,0.18437 0,0.23974 0.4329,0.4359 0.9621,0.4359 0.5292,0 0.9621,-0.083 0.9621,-0.18437 z m -5.0912,-1.66357 c 2.2723,-0.0913 2.1067,-0.34274 -0.8028,-1.21809 -1.8759,-0.56443 -2.1706,-0.56467 -1.9545,-0.002 0.1752,0.45652 -0.1273,0.66303 -0.9712,0.66303 -0.6742,0 -1.3264,0.16285 -1.4495,0.36189 -0.2109,0.34123 0.6908,0.37515 5.178,0.19477 z m 34.8032,-1.44342 c 0.4595,-0.2232 1.3195,-0.65603 1.9112,-0.96183 0.5918,-0.30581 1.62,-0.55601 2.2851,-0.55601 0.8744,0 1.2092,-0.25731 1.2092,-0.92943 0,-1.0891 0.8212,-1.40409 4.9151,-1.8852 l 3.0224,-0.35518 -3.5773,-0.37671 c -3.3382,-0.35155 -3.6299,-0.30695 -4.3652,0.66759 -0.5196,0.68859 -1.1855,0.98819 -1.955,0.87955 -0.986,-0.13921 -1.1669,-0.43039 -1.1669,-1.87812 0,-1.19848 -0.7028,-2.87558 -2.3385,-5.58089 -2.3497,-3.88609 -2.9886,-4.65635 -7.4858,-9.02575 l -2.4428,-2.37334 v 7.5833 c 0,5.80392 0.1394,7.53684 0.5941,7.38531 0.3268,-0.10889 0.7911,-0.88437 1.0318,-1.72329 0.544,-1.89631 2.2226,-2.17053 2.2226,-0.36309 0,0.63922 -0.1828,1.23436 -0.4063,1.32253 -0.2234,0.0882 -0.5345,0.97186 -0.6913,1.96376 -0.2181,1.37958 -0.1226,1.80344 0.4063,1.80344 0.3802,0 0.6913,0.41564 0.6913,0.92363 0,0.63925 0.4532,1.02315 1.472,1.24685 0.9373,0.20579 1.632,0.74381 1.9124,1.48097 0.4582,1.20499 1.3322,1.44347 2.7556,0.75191 z m -65.538,-0.57707 c 0.1707,-0.27609 0.031,-0.83829 -0.3101,-1.24933 -0.6291,-0.75779 -0.9166,-0.74432 -5.4756,0.25646 l -1.9243,0.42241 2.7378,0.0553 c 1.5057,0.0304 2.8714,0.27171 3.035,0.53622 0.389,0.62931 1.5429,0.61676 1.9372,-0.0211 z m 19.951,-0.21939 c 0,-0.55471 0.6179,-0.72138 2.6743,-0.72138 2.9602,0 3.1521,-0.67069 0.3377,-1.18061 -0.9951,-0.1803 -2.3505,-0.43875 -3.012,-0.57434 -0.961,-0.197 -1.0577,-0.14026 -0.481,0.28243 0.6284,0.46066 0.601,0.62092 -0.2122,1.2412 -0.5136,0.39173 -1.3126,0.71224 -1.7756,0.71224 -0.463,0 -0.9756,0.21641 -1.1391,0.48092 -0.1796,0.29044 0.476,0.48092 1.6553,0.48092 1.415,0 1.9526,-0.19863 1.9526,-0.72138 z m 34.8553,-1.24404 c -0.4412,-0.85293 -0.8863,-3.31173 -1.0462,-5.77945 -0.2971,-4.58506 -0.6922,-5.27299 -0.8727,-1.51971 -0.1122,2.33435 0.9448,7.09445 1.817,8.18251 0.8465,1.05598 0.8936,0.6472 0.1019,-0.88335 z m -108.3698,-0.19872 c 0.7861,-0.66126 1.8328,-1.2023 2.3261,-1.2023 0.4932,0 1.0306,-0.21641 1.1941,-0.48092 0.1635,-0.2645 0.7382,-0.48092 1.2771,-0.48092 1.1403,0 3.774,-1.45119 3.774,-2.0795 0,-0.52585 -1.7615,-0.13849 -5.4119,1.19006 -1.5213,0.55369 -2.7661,1.24272 -2.7661,1.53116 0,0.28845 -0.5953,1.01173 -1.3229,1.60729 -0.7276,0.59556 -1.1377,1.09062 -0.9113,1.10014 0.2264,0.01 1.0548,-0.52374 1.8409,-1.18501 z m 55.585,-1.97377 c -0.1599,-0.15981 -0.5748,-0.17689 -0.922,-0.038 -0.3838,0.15352 -0.2698,0.26748 0.2906,0.29056 0.5071,0.0209 0.7913,-0.0928 0.6314,-0.25259 z m -2.9966,-1.63312 c 0.1635,-0.26451 1.0855,-0.48092 2.0488,-0.48092 1.3164,0 1.6146,-0.13692 1.2003,-0.5511 -0.4143,-0.41418 -1.4385,-0.40801 -4.1226,0.0249 -6.0128,0.96968 -6.8686,1.39911 -2.8831,1.44674 1.9026,0.0227 3.5931,-0.17508 3.7566,-0.43958 z m 87.9052,-1.68244 c -2.0211,-0.87804 -5.9432,-1.53911 -11.5368,-1.94452 -4.13,-0.29933 -4.4499,-0.25835 -4.45,0.57015 -2e-4,0.81272 0.4199,0.88725 4.6903,0.83222 2.5798,-0.0333 6.0976,0.20621 7.8174,0.53212 4.3847,0.83092 5.3753,0.83377 3.4791,0.01 z m -77.1214,-0.89748 c -0.1103,-0.0964 -0.7417,-0.43298 -1.4031,-0.74791 -1.134,-0.5399 -1.1494,-0.52989 -0.2689,0.17532 0.7664,0.61377 2.3321,1.15001 1.672,0.57259 z m 77.7313,-1.49299 c -0.9348,-0.76602 -2.0645,-1.18871 -3.207,-1.19991 -0.9702,-0.01 -1.8432,-0.25505 -1.9401,-0.54564 -0.125,-0.37486 -1.1497,-0.33125 -3.5278,0.15014 l -3.3516,0.67847 4.3629,0.29392 c 2.3995,0.16166 5.1055,0.61748 6.0132,1.01294 2.5457,1.10903 3.2707,0.93776 1.6504,-0.38992 z m -115.3443,-0.065 c -0.1598,-0.1598 -0.5747,-0.17689 -0.922,-0.038 -0.3837,0.15352 -0.2698,0.26748 0.2906,0.29055 0.5072,0.0209 0.7913,-0.0928 0.6314,-0.25259 z m 3.9788,-0.4854 c 0,-0.10224 -0.6494,-0.18588 -1.4432,-0.18588 -0.7937,0 -1.4432,0.17893 -1.4432,0.39763 0,0.21869 0.6495,0.30234 1.4432,0.18587 0.7938,-0.11646 1.4432,-0.29539 1.4432,-0.39762 z m 139.3878,-1.00689 c 0.33,-0.71193 0.601,-1.5759 0.601,-1.91993 0,-0.34402 0.195,-0.6255 0.433,-0.6255 0.973,0 2.42,-3.54719 3.076,-7.53872 0.384,-2.33409 0.874,-4.67663 1.091,-5.20565 0.694,-1.6983 -2.703,1.23286 -4.6,3.96881 -6.582,9.4945 -6.289,8.7091 -4.061,10.87254 2.151,2.08859 2.667,2.15537 3.46,0.44845 z m -124.0413,-0.3175 c 1.6634,-0.12896 3.1195,-0.32954 3.2357,-0.44574 0.2299,-0.22981 -3.9201,-0.90631 -6.4354,-1.04906 -1.0247,-0.0582 -1.5635,0.13167 -1.5635,0.55091 0,0.3518 -0.2706,0.66121 -0.6013,0.68758 -0.3307,0.0264 -0.06,0.20869 0.6013,0.40516 0.6615,0.19648 1.3233,0.29612 1.4708,0.22143 0.1474,-0.0747 1.629,-0.24131 3.2924,-0.37028 z m 83.1407,0.36703 c -0.1599,-0.1598 -0.5748,-0.17689 -0.9221,-0.038 -0.3837,0.15352 -0.2697,0.26748 0.2907,0.29055 0.5071,0.0209 0.7912,-0.0928 0.6314,-0.25259 z m -95.4535,-1.20911 c 1.813,-0.0272 3.2201,-0.26031 3.2201,-0.53349 0,-0.59828 -8.0793,-0.009 -9.1402,0.66696 -0.5006,0.31886 -0.1976,0.3762 0.9892,0.18722 0.9409,-0.14982 3.1598,-0.29413 4.9309,-0.32069 z m -57.66,81.29041 c -0.4957,-0.80189 0.6193,-1.72145 1.2829,-1.05802 0.5551,0.55494 0.2077,1.58085 -0.5354,1.58085 -0.2333,0 -0.5697,-0.23527 -0.7475,-0.52283 z"
         id="path1" /></g></g></svg>
