<?xml version="1.0" encoding="UTF-8" standalone="no"?>
<!-- Created with Inkscape (http://www.inkscape.org/) -->

<svg
   width="61.221001mm"
   height="62.240601mm"
   viewBox="0 0 61.221 62.240601"
   version="1.1"
   id="svg1"
   xml:space="preserve"
   xmlns="http://www.w3.org/2000/svg"
   xmlns:svg="http://www.w3.org/2000/svg"><defs
     id="defs1" /><g
     id="layer1"
     transform="translate(1472.671,3650.7208)"><g
       id="g1006"
       transform="matrix(0.26458333,0,0,0.26458333,-4065.9845,-3729.0145)"><path
         style="fill:#000000"
         d="m 9984.6377,491.54318 c -3.3797,-0.39251 -5.3015,-1.0122 -10.1059,-3.25863 -1.7125,-0.8007 -4.4688,-1.9124 -6.1252,-2.47045 -2.8727,-0.9678 -6.8621,-2.92806 -14.2508,-7.00234 -3.8038,-2.09748 -9.7045,-6.43643 -12.8796,-9.47068 -1.174,-1.12197 -3.1717,-2.90407 -4.4394,-3.96022 -1.2676,-1.05616 -2.6417,-2.33647 -3.0536,-2.84514 -0.4118,-0.50867 -4.6371,-4.87339 -9.3894,-9.69938 -4.7523,-4.82599 -10.3645,-10.62071 -12.4716,-12.87715 -3.8195,-4.09013 -5.1194,-5.06706 -4.0276,-3.027 0.3165,0.59159 0.6684,1.61774 0.7818,2.28033 0.701,4.09394 0.6617,4.8504 -0.3671,7.07245 -3.1837,6.87595 -3.9923,8.27898 -4.9455,8.58155 -1.1564,0.36705 -4.2596,3.364 -5.09,4.91562 -0.3055,0.57093 -0.8719,1.03805 -1.2586,1.03805 -0.3868,0 -0.7032,0.32405 -0.7032,0.72011 0,0.39606 -0.432,1.15217 -0.96,1.68024 -0.5281,0.52808 -0.9601,1.59549 -0.9601,2.37202 0,0.77653 -0.2187,1.54704 -0.486,1.71225 -0.3027,0.1871 -0.3219,0.59351 -0.051,1.07775 0.587,1.04894 -0.2502,2.88733 -2.131,4.67973 -0.8314,0.79228 -1.6534,1.88743 -1.8268,2.43365 -0.1733,0.54622 -0.9345,1.45109 -1.6915,2.01081 -0.8736,0.64586 -1.4936,1.64221 -1.6971,2.72709 -0.3547,1.89094 -1.6375,2.35795 -2.0582,0.74928 -0.1769,-0.67663 -0.6547,-0.96014 -1.6183,-0.96014 -1.5831,0 -2.6633,-1.42595 -1.7625,-2.3268 0.3045,-0.30449 0.9492,-0.55362 1.4327,-0.55362 0.4835,0 1.0012,-0.37805 1.1505,-0.84012 0.5111,-1.58246 1.8368,-3.96057 2.2078,-3.96057 0.204,0 0.3709,-0.31332 0.3709,-0.69625 0,-0.38294 0.27,-0.86901 0.6,-1.08016 1.0935,-0.69963 2.7602,-4.38795 2.7602,-6.10823 0,-2.11335 0.893,-3.59304 4.8076,-7.9658 1.7037,-1.90311 3.5617,-4.13804 4.129,-4.9665 0.5673,-0.82847 1.9175,-2.04638 3.0003,-2.70648 1.7294,-1.05416 1.9623,-1.40458 1.9149,-2.88041 -0.067,-2.09589 -0.7563,-5.17248 -1.4828,-6.62084 -0.4433,-0.88378 -0.3922,-1.37024 0.26,-2.47442 1.0805,-1.82926 1.0444,-1.94635 -0.5999,-1.94635 -0.7765,0 -1.5458,-0.21682 -1.7095,-0.48183 -0.1638,-0.26501 -0.7727,-0.36263 -1.3532,-0.21693 -0.7035,0.1766 -1.4507,-0.10285 -2.2414,-0.83836 -0.6524,-0.60679 -1.3708,-1.04309 -1.5965,-0.96956 -0.2257,0.0735 -1.1554,-0.52055 -2.0661,-1.32019 -0.9106,-0.79964 -2.1618,-1.45389 -2.7803,-1.45389 -0.6186,0 -1.3551,-0.2777 -1.6367,-0.61711 -0.2817,-0.33941 -1.1176,-0.5906 -1.8576,-0.55821 -1.1637,0.051 -1.3843,0.2982 -1.6334,1.83072 -0.3328,2.04728 -1.4236,3.03667 -3.795,3.44219 -0.924,0.15802 -2.4361,0.58793 -3.3602,0.95537 -2.1654,0.86102 -12.3356,0.7594 -12.8845,-0.12874 -0.2702,-0.43715 -0.7963,-0.46776 -2.0178,-0.1174 -2.4177,0.69345 -4.2989,0.59989 -4.2989,-0.21381 0,-0.87731 -1.6573,-1.418 -3.9603,-1.29206 -1.253,0.0685 -1.8001,-0.10169 -1.8001,-0.56 0,-0.9995 -1.9453,-1.82988 -4.0861,-1.74417 -1.0529,0.0421 -2.857,-0.28033 -4.0093,-0.71664 l -2.095,-0.79328 -1.6052,1.8168 c -0.8829,0.99923 -1.6143,2.0692 -1.6253,2.3777 -0.011,0.30851 -0.8845,1.46073 -1.941,2.56051 -1.0566,1.09977 -2.0577,2.57561 -2.2246,3.27964 -0.3476,1.46575 -1.5101,2.9603 -2.3025,2.9603 -0.2965,0 -0.9089,0.43206 -1.361,0.96014 -0.9796,1.14421 -3.964,1.2838 -5.3299,0.2493 -1.2285,-0.93042 -0.7309,-2.67041 1.3876,-4.8521 0.9189,-0.94629 1.6708,-1.88251 1.6708,-2.08049 0,-0.19797 1.5121,-1.95851 3.3602,-3.9123 2.7317,-2.8879 3.3602,-3.842 3.3602,-5.10093 0,-2.51575 1.353,-3.36655 5.4192,-3.4078 1.9037,-0.0193 4.5414,0.29021 5.8615,0.68784 1.3201,0.39762 3.5883,0.92159 5.0404,1.16437 4.2013,0.70245 4.4462,0.76813 6.7204,1.80284 2.4981,1.13655 11.0234,2.96746 13.8175,2.96746 1.0483,0 2.1533,-0.29802 2.4555,-0.66225 0.3023,-0.36424 1.1757,-0.78749 1.941,-0.94055 0.7653,-0.15306 2.2792,-1.17508 3.3643,-2.27115 1.5991,-1.61537 1.8645,-2.12341 1.4009,-2.68209 -0.482,-0.58081 -0.8619,-0.40615 -2.4148,1.11038 -1.6657,1.62664 -2.1312,1.81629 -4.8432,1.97313 -4.2869,0.24792 -6.8832,-1.13753 -8.5207,-4.54685 -1.134,-2.36091 -1.3018,-2.49977 -3.0462,-2.52036 -2.1208,-0.025 -4.3332,-1.1725 -5.0582,-2.62344 -1.3331,-2.66792 -2.0602,-6.10669 -1.8051,-8.53735 0.1468,-1.39865 0.3552,-4.44501 0.4631,-6.76971 0.1769,-3.81153 0.3247,-4.36089 1.5048,-5.59275 1.1724,-1.22382 2.6535,-1.814 5.1814,-2.06468 0.462,-0.0458 0.84,-0.26812 0.84,-0.49402 0,-0.22589 0.6438,-1.34641 1.4305,-2.49004 1.6005,-2.32638 4.6958,-4.09454 7.1678,-4.09454 2.319,0 6.523,1.3397 7.4627,2.37816 0.8011,0.88528 0.8375,0.88492 1.7392,-0.0169 0.5066,-0.50659 1.2451,-0.92108 1.6411,-0.92108 0.396,0 0.72,-0.21603 0.72,-0.48007 0,-0.26404 -0.216,-0.48007 -0.48,-0.48007 -0.264,0 -0.48,-0.24622 -0.48,-0.54716 0,-0.30094 -0.3781,-0.82648 -0.8401,-1.16786 -0.6536,-0.48292 -0.7124,-0.75013 -0.2652,-1.20386 0.4476,-0.45416 0.3247,-0.7799 -0.5558,-1.47252 -0.6218,-0.48915 -1.3665,-0.88937 -1.6549,-0.88937 -0.2883,0 -0.5243,-0.20147 -0.5243,-0.44772 0,-0.24624 -0.486,-0.5994 -1.08,-0.7848 -0.5941,-0.1854 -1.2109,-0.54026 -1.3708,-0.78858 -0.1599,-0.24832 -1.4559,-0.51845 -2.8802,-0.60028 -1.4242,-0.0818 -2.6975,-0.19764 -2.8295,-0.25735 -0.132,-0.0597 -0.9961,-0.18248 -1.9201,-0.27285 -4.9888,-0.48783 -7.1024,-0.48445 -8.4006,0.0135 -0.792,0.30379 -2.6551,0.59626 -4.1402,0.64994 -1.485,0.0537 -3.6773,0.39171 -4.8716,0.75119 -1.2361,0.37203 -2.4493,0.48198 -2.8162,0.25522 -0.3545,-0.21911 -1.7529,-0.53689 -3.1077,-0.70617 -2.3358,-0.29186 -2.4945,-0.40261 -3.0682,-2.14109 -0.3557,-1.07789 -0.9856,-1.93284 -1.5286,-2.07486 -0.508,-0.13286 -1.1718,-0.89883 -1.475,-1.70217 -0.3374,-0.89417 -1.118,-1.6918 -2.0126,-2.05673 -1.7468,-0.71251 -4.6668,-3.5718 -4.4797,-4.38656 0.1649,-0.71811 -1.6071,-2.53674 -2.8588,-2.93406 -1.4649,-0.46497 -3.0713,-2.4245 -2.7257,-3.325 0.1677,-0.4371 0.4978,-0.79473 0.7336,-0.79473 0.2358,0 0.4287,-0.3113 0.4287,-0.69177 0,-1.45383 1.0581,-1.22369 3.2485,0.70654 1.2495,1.10109 2.8119,2.29401 3.4719,2.65091 1.0983,0.5939 3.7887,3.28716 8.1656,8.17446 1.8347,2.04856 3.1724,3.17341 4.8271,4.05905 0.8631,0.46198 1.5605,0.40405 3.6382,-0.30223 1.4137,-0.48058 2.5703,-1.12997 2.5703,-1.4431 0,-0.31313 0.2701,-0.66772 0.6001,-0.78797 1.1292,-0.41149 7.8408,-0.0244 9.5906,0.55306 1.2317,0.40655 2.2883,0.43822 3.579,0.10727 2.1678,-0.55583 7.0001,-0.27854 9.0318,0.51826 2.4127,0.94624 7.7053,4.65126 8.8434,6.19077 0.6639,0.89807 1.1768,2.45583 1.3449,4.08475 0.2247,2.17654 0.4053,2.57687 1.0421,2.30897 0.4237,-0.17824 1.3104,-0.3967 1.9705,-0.48545 0.66,-0.0888 3.0362,-0.51404 5.2803,-0.94508 5.3753,-1.03246 6.8542,-1.1968 10.4862,-1.16521 l 3.0456,0.0265 -0.1655,-2.49306 c -0.1584,-2.38686 -0.1004,-2.52566 1.3613,-3.25862 1.0261,-0.51453 1.4983,-1.08041 1.4401,-1.72571 -0.058,-0.64825 0.1862,-0.93848 0.7534,-0.89346 0.5271,0.0418 0.8401,-0.27115 0.8401,-0.84012 0,-0.49874 0.216,-0.9068 0.48,-0.9068 0.8202,0 0.5286,-1.04544 -0.5535,-1.98399 -0.5684,-0.49303 -1.3399,-0.89643 -1.7144,-0.89643 -1.0842,0 -2.4565,-1.59362 -3.9272,-4.56066 -0.2617,-0.52808 -1.2431,-1.8219 -2.1807,-2.87517 -0.9377,-1.05327 -1.7319,-2.07942 -1.7649,-2.28033 -0.033,-0.20092 -0.1171,-0.95939 -0.187,-1.68549 -0.07,-0.72611 -0.4792,-2.83241 -0.9095,-4.68068 -0.9752,-4.18787 -1.0711,-7.37538 -0.3277,-10.88469 0.5956,-2.81164 1.3662,-3.94806 2.2851,-3.36992 0.2907,0.18292 0.6722,2.38489 0.8478,4.89325 0.5206,7.43858 0.815,9.81528 1.2758,10.2975 0.2397,0.25083 0.4358,1.06095 0.4358,1.80026 0,0.88449 0.2503,1.34419 0.7319,1.34419 0.4025,0 0.924,0.50523 1.1587,1.12272 0.2348,0.6175 1.139,1.72202 2.0094,2.45449 0.8705,0.73247 1.9508,2.15409 2.4007,3.15917 0.45,1.00507 1.2612,2.06454 1.8027,2.35438 0.5415,0.28983 1.2094,1.36225 1.4843,2.38315 0.2749,1.02091 0.8223,2.12384 1.2164,2.45097 0.93,0.77192 0.9042,1.43597 -0.1124,2.8875 -0.456,0.65105 -0.8763,1.50531 -0.934,1.89837 -0.058,0.39305 -0.3416,0.79358 -0.631,0.89006 -0.3735,0.12451 -0.3641,0.37086 0.033,0.84884 0.426,0.51337 0.4214,0.83908 -0.02,1.37046 -0.3182,0.38337 -0.5066,1.00216 -0.4188,1.37508 0.1146,0.48671 1.7852,-0.24635 5.92,-2.59771 3.1682,-1.80167 6.0766,-3.43345 6.4631,-3.62619 0.3866,-0.19273 1.9422,-1.17369 3.4569,-2.17991 1.5148,-1.00623 2.8506,-1.8295 2.9685,-1.8295 0.3143,0 6.2442,-3.61116 10.393,-6.32912 1.9801,-1.29721 7.7045,-4.43113 12.7208,-6.96427 5.0164,-2.53314 9.6607,-4.88053 10.3207,-5.21643 9.4533,-4.8107 22.5371,-7.52845 30.242,-6.28179 6.0483,0.97864 8.5273,1.82855 10.4593,3.58557 4.471,4.06672 7.53,14.72561 5.802,20.21182 -1.956,6.2061 -4.587,10.08365 -10.937,16.11641 -2.223,2.11231 -5.249,5.09938 -6.7236,6.63793 -1.4745,1.53856 -3.9231,3.67617 -5.4412,4.75024 -1.5181,1.07408 -2.7602,2.10411 -2.7602,2.28897 0,0.18486 0.4321,0.72712 0.9601,1.20502 0.528,0.47791 0.9601,1.24105 0.9601,1.69587 0,0.45482 0.339,1.10835 0.7534,1.45229 0.4144,0.34393 0.6471,1.03169 0.5173,1.52835 -0.1353,0.5175 0.055,1.01489 0.4466,1.16506 0.4015,0.15406 0.6828,0.92155 0.6828,1.86258 0,0.8803 0.214,1.73282 0.4756,1.89449 0.2616,0.16167 0.4435,1.11207 0.4043,2.11201 -0.039,0.99993 0.081,2.06412 0.2667,2.36485 0.1859,0.30073 0.127,0.94094 -0.1308,1.42269 -0.2787,0.52072 -0.2959,1.15556 -0.043,1.56551 0.2691,0.43539 0.191,1.04847 -0.2117,1.66315 -0.3508,0.53545 -0.5864,1.88574 -0.5235,3.00062 0.063,1.12344 -0.1713,2.40357 -0.5266,2.87165 -0.3525,0.46452 -0.6478,1.21038 -0.6562,1.65747 -0.01,0.4471 -0.413,1.09519 -0.8991,1.44021 -0.4862,0.34502 -0.8822,0.95262 -0.8801,1.35023 0.01,1.89595 -3.7281,6.23809 -5.3704,6.23809 -0.3742,0 -0.9243,0.33372 -1.2225,0.7416 -0.2983,0.40788 -1.0241,0.7779 -1.6131,0.82227 -0.5889,0.0444 -1.0708,0.20942 -1.0708,0.3668 0,0.15737 0.7561,1.54177 1.6802,3.07645 0.924,1.53468 1.6801,2.88192 1.6801,2.99387 0,0.11196 1.0352,1.76003 2.3006,3.66238 1.2653,1.90235 2.7153,4.43097 3.2222,5.61914 1.1098,2.60136 3.9281,7.93994 5.0689,9.6018 1.1738,1.71007 3.1759,6.79317 3.5516,9.01703 0.6345,3.75561 0.4108,10.89682 -0.3897,12.44506 -1.1157,2.15755 -3.4082,3.87995 -6.2251,4.67693 -3.7352,1.05679 -4.6088,1.13784 -8.0086,0.743 z m 8.6771,-3.42046 c 1.1212,-0.6263 2.4281,-1.67881 2.9042,-2.33891 1.0446,-1.44822 1.3915,-5.92722 0.8489,-10.96117 -0.3167,-2.93884 -0.7247,-4.08827 -2.4704,-6.96101 -1.1501,-1.8925 -2.7959,-4.95313 -3.6572,-6.8014 -0.8614,-1.84827 -1.9293,-4.1166 -2.3733,-5.04073 -0.9689,-2.01705 -3.5453,-5.93688 -4.0493,-6.1609 -0.198,-0.088 -0.36,-0.54495 -0.36,-1.01541 0,-0.47047 -0.3866,-1.3706 -0.8592,-2.00029 -0.4725,-0.6297 -1.1342,-1.77918 -1.4705,-2.55442 -0.3362,-0.77523 -1.2727,-2.24467 -2.0811,-3.26541 -1.2404,-1.56627 -1.6732,-1.81122 -2.7733,-1.56958 -1.5621,0.34313 -3.1043,-0.96275 -1.7505,-1.48228 1.1401,-0.43755 0.9457,-1.3993 -0.546,-2.70199 -0.7261,-0.63402 -1.562,-1.57136 -1.8578,-2.08297 -0.3351,-0.5798 -0.9361,-0.87136 -1.5955,-0.77399 -0.7366,0.10875 -1.1353,-0.13965 -1.3126,-0.81777 -0.3776,-1.4439 -3.9913,-3.66651 -8.2672,-5.08472 -2.2747,-0.75444 -3.8046,-0.82775 -12.4808,-0.59802 -9.3697,0.24808 -13.0737,0.67373 -22.1292,2.54303 -3.4221,0.70641 -5.1353,1.15822 -10.0784,2.65789 -2.1533,0.65329 -2.1548,0.65532 -0.72,0.96224 3.4474,0.73746 7.1242,0.41307 11.6114,-1.02444 4.6154,-1.47855 7.3217,-1.97803 15.7481,-2.90643 5.9359,-0.65401 14.2447,-0.44527 14.5131,0.36461 0.2754,0.83102 -3.3973,1.69028 -5.7786,1.35195 -1.9843,-0.28192 -18.008,1.29728 -19.6675,1.93831 -0.6343,0.24502 -0.7204,0.48815 -0.3367,0.95053 0.7626,0.91892 -0.063,1.23613 -3.2464,1.2468 -1.5208,0.005 -3.9531,0.0342 -5.4052,0.0646 -1.4521,0.0304 -3.9363,-0.0927 -5.5204,-0.27371 -4.2888,-0.48994 -6.5943,-0.52986 -7.8076,-0.13522 -1.037,0.33732 -0.9706,0.47076 1.4401,2.89369 1.39,1.39703 5.3355,5.497 8.7677,9.11105 17.0115,17.91268 28.2669,28.14181 33.6395,30.57224 1.0766,0.48702 2.4807,1.28575 3.1202,1.77495 3.1223,2.38846 22.7678,10.78567 26.4296,11.297 3.4447,0.481 7.494,-0.0174 9.5719,-1.17808 z m -29.1878,-11.11867 c -0.5881,-0.84795 -1.6682,-2.48582 -2.4001,-3.6397 -2.3458,-3.6983 -8.5808,-11.25498 -11.7364,-14.2244 -1.6836,-1.58423 -4.7036,-4.44664 -6.711,-6.36092 -2.0075,-1.91428 -3.8011,-3.48051 -3.9858,-3.48051 -0.1848,0 -2.2087,-1.26047 -4.4977,-2.80105 -5.805,-3.90704 -9.2071,-5.99555 -9.4184,-5.78194 -0.099,0.1 1.2593,1.25135 3.0184,2.5586 4.9139,3.65179 12.1256,11.42324 16.1893,17.44594 3.4684,5.1404 4.07,6.8211 2.4414,6.8211 -0.6286,0 -3.6533,-4.26314 -5.1916,-7.31729 -0.9064,-1.79962 -10.3248,-11.76039 -12.4009,-13.11517 -0.9241,-0.60298 -2.4362,-1.76665 -3.3603,-2.58594 -0.924,-0.81928 -3.6267,-2.44149 -6.0059,-3.60491 -4.6095,-2.25402 -6.7768,-4.06192 -6.3144,-5.26716 0.232,-0.60448 0.9282,-0.38619 3.9259,1.23088 3.5544,1.91739 4.956,2.18867 3.4317,0.6642 -0.8735,-0.87357 -0.5603,-2.16928 0.5244,-2.16928 0.4066,0 1.6255,0.72564 2.7088,1.61253 1.0833,0.88688 3.2031,2.27032 4.7108,3.0743 1.5077,0.80398 3.3979,1.92932 4.2003,2.50076 1.1619,0.82738 1.459,0.89143 1.459,0.31451 0,-0.39845 0.2258,-0.86402 0.5018,-1.03461 0.4739,-0.29288 6.1196,2.7684 8.5294,4.62493 0.6109,0.47062 1.3996,0.74483 1.7526,0.60935 0.353,-0.13548 1.644,0.5187 2.8689,1.45374 1.2249,0.93504 3.1364,1.92968 4.2478,2.21031 1.1114,0.28063 2.8848,0.82367 3.9409,1.20676 1.0561,0.38308 3.8643,1.12057 6.2404,1.63886 13.86,3.02317 14.1257,3.10712 14.1536,4.47185 0.012,0.58641 -2.4752,0.41245 -5.2884,-0.36988 -1.4436,-0.40147 -4.5689,-1.05961 -6.9451,-1.46253 -2.3761,-0.40292 -5.6754,-1.18549 -7.3318,-1.73904 -1.6564,-0.55355 -3.1241,-0.89393 -3.2616,-0.7564 -0.1375,0.13752 1.3699,1.46932 3.3497,2.95953 1.9799,1.49022 3.7228,2.90856 3.8732,3.15186 0.4559,0.73767 13.08,11.65467 15.6588,13.54131 1.3253,0.96958 3.244,1.90384 4.2637,2.07614 1.0197,0.17229 1.9797,0.64067 2.1332,1.04084 1.2751,3.32324 -6.0071,0.69812 -10.7646,-3.88045 -1.4521,-1.39747 -3.1537,-2.88168 -3.7812,-3.29823 -0.6276,-0.41656 -2.9666,-2.42822 -5.1978,-4.47037 -2.2312,-2.04214 -4.6339,-4.15031 -5.3394,-4.68481 -0.7054,-0.5345 -2.1643,-1.74053 -3.242,-2.68006 -1.0776,-0.93953 -2.4817,-2.13473 -3.1202,-2.656 -1.7132,-1.39865 -8.5676,-6.01325 -8.932,-6.01325 -0.1726,0 -0.7102,-0.35872 -1.1946,-0.79717 -0.4844,-0.43844 -0.9679,-0.70848 -1.0744,-0.60009 -0.1065,0.1084 1.4609,1.65074 3.4832,3.42742 9.1737,8.05983 14.3691,13.79889 17.8664,19.73606 0.9083,1.54191 2.3534,3.52949 3.2115,4.41685 1.7154,1.77403 2.083,3.59276 0.72,3.56276 -0.462,-0.0102 -1.3213,-0.71227 -1.9095,-1.56023 z m 27.2394,-1.53564 c -3.5331,-2.60689 -7.1397,-6.51887 -7.438,-8.06799 -1.0151,-5.27085 -1.3811,-6.1859 -3.3526,-8.38231 -2.6219,-2.92101 -4.5011,-6.65039 -4.8247,-9.57472 -0.4659,-4.21007 -0.7587,-4.90305 -2.782,-6.5839 -2.1991,-1.82679 -2.1335,-2.66722 0.1347,-1.72761 2.5413,1.05272 4.1363,3.37673 4.8242,7.02891 0.8153,4.32889 1.5771,6.06338 3.7295,8.4912 2.3405,2.63992 3.2757,4.42076 3.7017,7.04862 0.1926,1.18817 0.5951,2.62631 0.8944,3.19587 0.8158,1.55229 5.3881,6.23518 7.0418,7.21211 1.4904,0.88046 1.7322,2.19494 0.4492,2.44204 -0.3975,0.0766 -1.4677,-0.41044 -2.3782,-1.08222 z m -30.7302,-31.01058 c -2.5845,-2.21694 -5.4903,-3.77071 -8.0208,-4.28883 -1.265,-0.25899 -3.704,-0.78757 -5.4201,-1.17462 -1.9711,-0.44456 -5.8047,-0.70994 -10.4094,-0.72059 -7.5199,-0.0174 -9.7519,-0.40765 -9.7519,-1.70505 0,-0.61952 0.6124,-0.73976 3.4802,-0.68338 4.9234,0.0968 4.8215,0.11935 6.5895,-1.4592 1.24,-1.10721 1.8813,-1.36031 2.838,-1.12016 1.7143,0.43029 1.6194,0.44019 7.7038,-0.80381 5.0672,-1.03603 5.7695,-1.0721 10.027,-0.51505 5.6995,0.74573 6.8039,1.14721 6.8039,2.47333 0,0.83395 -0.2039,0.97201 -1.08,0.73134 -4.8706,-1.33785 -13.0804,-1.52181 -15.1125,-0.33862 -0.5655,0.3293 -0.6298,0.49899 -0.1926,0.50872 0.4042,0.009 0.5651,0.36236 0.4192,0.92034 -0.2003,0.76609 0.1735,0.98816 2.4243,1.44021 3.3864,0.68015 3.461,0.67615 3.461,-0.18564 0,-0.74443 1.6573,-0.97504 3.0809,-0.42871 1.2489,0.47929 0.8632,1.07771 -0.8008,1.24221 l -1.5601,0.15422 2.4002,1.26759 c 2.9652,1.56601 6.9561,4.75813 6.9586,5.56582 0,1.07934 -2.1223,0.59195 -3.8384,-0.88012 z m -15.1013,-8.56932 c -0.3897,-0.63067 -2.0227,-0.67464 -2.3997,-0.0646 -0.152,0.24607 0.3213,0.52085 1.0518,0.61063 1.5881,0.19518 1.7624,0.12458 1.3479,-0.54602 z m 21.9417,2.97779 c -0.33,-0.11513 -0.6,-0.53039 -0.6,-0.92281 0,-0.83411 1.983,-0.71645 2.2628,0.13427 0.2057,0.62538 -0.7845,1.09494 -1.6628,0.78854 z m -5.8763,-0.58999 c -0.5364,-0.34417 -0.5786,-0.59694 -0.1684,-1.00723 0.6701,-0.67013 2.6917,-0.11422 2.4311,0.66853 -0.2469,0.74161 -1.3723,0.91008 -2.2627,0.3387 z m 19.1972,-1.88089 c 0,-0.70845 -1.3656,-1.60172 -1.9224,-1.25754 -0.3747,0.23155 -0.3639,0.51753 0.038,1.00147 0.6205,0.74773 1.8847,0.91949 1.8847,0.25607 z m 4.5603,-1.97906 c 0.1631,-0.26403 0.081,-0.48007 -0.1834,-0.48007 -0.264,0 -0.6135,0.21604 -0.7767,0.48007 -0.1632,0.26404 -0.081,0.48007 0.1834,0.48007 0.264,0 0.6135,-0.21603 0.7767,-0.48007 z m -7.6482,-1.80796 c -0.4351,-0.43512 -1.7736,0.36039 -1.4601,0.86775 0.2151,0.34802 0.529,0.32765 1.0021,-0.065 0.3789,-0.31449 0.585,-0.67571 0.458,-0.80273 z m -75.1572,-0.92926 c -0.396,-0.14359 -1.3977,-0.90141 -2.226,-1.68406 -1.0899,-1.02983 -1.6075,-1.2587 -1.8735,-0.82837 -0.2212,0.35796 0,0.84444 0.546,1.22232 0.5023,0.34524 1.1294,0.84174 1.3934,1.10334 0.264,0.2616 1.02,0.46939 1.6801,0.46174 0.7032,-0.008 0.902,-0.12198 0.48,-0.27497 z m 3.8403,-0.54886 c 0,-0.22311 -0.4321,-0.79667 -0.9601,-1.27458 -0.528,-0.4779 -0.9601,-1.25293 -0.9601,-1.7223 0,-0.46936 0.4321,-0.99051 0.9601,-1.15812 0.528,-0.1676 0.9601,-0.50303 0.9601,-0.74539 0,-0.66927 -2.8479,1.20569 -3.7177,2.44761 -0.7245,1.03447 -0.7139,1.07926 0.1983,0.84069 0.636,-0.16633 1.2756,0.12626 1.8814,0.86068 0.9456,1.14619 1.638,1.46383 1.638,0.75141 z m 5.6557,-0.33716 c 1.9773,-0.82297 5.9647,-4.46834 5.5759,-5.09753 -0.394,-0.6375 -1.151,-0.46415 -1.151,0.26356 0,0.58963 -1.2947,1.29777 -2.6402,1.44402 -0.264,0.0287 -0.6086,0.37285 -0.7657,0.76477 -0.2125,0.52974 -0.4715,0.35818 -1.0094,-0.66863 -0.4427,-0.84502 -0.8519,-1.17371 -1.054,-0.8467 -0.1816,0.29398 0.01,1.18895 0.4217,1.98882 0.6263,1.21125 0.6394,1.45431 0.078,1.45431 -0.3706,0 -0.9811,-0.46275 -1.3566,-1.02834 -0.5852,-0.8815 -0.8346,-0.94705 -1.7463,-0.45906 -0.9274,0.49637 -1.1138,0.43375 -1.4551,-0.48891 -0.3478,-0.94039 -0.4273,-0.9646 -0.714,-0.21746 -0.1967,0.51258 0.065,1.38584 0.6718,2.23735 1.1416,1.60327 2.4608,1.77092 5.1447,0.6538 z m 74.0294,0.26276 c 0,-0.26404 -0.2287,-0.48007 -0.5083,-0.48007 -0.2796,0 -0.3749,0.21603 -0.2117,0.48007 0.1631,0.26403 0.3919,0.48007 0.5083,0.48007 0.1165,0 0.2117,-0.21604 0.2117,-0.48007 z m 3.2302,0.19002 c -0.1595,-0.15952 -0.5735,-0.17657 -0.92,-0.0379 -0.383,0.15325 -0.2692,0.26701 0.29,0.29005 0.506,0.0208 0.7895,-0.0926 0.63,-0.25215 z m -6.5904,-1.63023 c 0,-0.26404 -0.324,-0.48007 -0.72,-0.48007 -0.3961,0 -0.7201,0.21603 -0.7201,0.48007 0,0.26404 0.324,0.48007 0.7201,0.48007 0.396,0 0.72,-0.21603 0.72,-0.48007 z m 1.9201,-1.20018 c 0,-0.39605 -0.2032,-0.7201 -0.4517,-0.7201 -0.6053,0 -1.0388,0.74967 -0.6553,1.13321 0.5406,0.54065 1.107,0.32928 1.107,-0.41311 z m -3.7661,-1.3181 c -0.5497,-0.54977 -1.6546,-0.0175 -1.2667,0.6102 0.1448,0.23427 0.5949,0.29867 1.0002,0.14312 0.4813,-0.18471 0.5737,-0.44602 0.2665,-0.75332 z m -53.9272,-1.088 c 0.3468,-0.12512 0.5017,-0.43585 0.3443,-0.69051 -0.1573,-0.25466 0.369,-0.80181 1.1697,-1.2159 0.8007,-0.41408 1.4558,-0.95061 1.4558,-1.19228 0,-1.14607 -1.1043,-0.79617 -3.7393,1.18475 -3.0586,2.29931 -4.7577,2.9072 -3.1756,1.13606 l 0.9145,-1.02368 -2.0401,1.03343 c -1.9456,0.98554 -2.3694,1.48473 -1.7698,2.08443 0.2383,0.23829 5.1534,-0.7075 6.8405,-1.3163 z m 59.6135,1.4743 c 0,-0.11644 -0.2161,-0.34522 -0.4801,-0.50841 -0.264,-0.16318 -0.48,-0.0679 -0.48,0.21171 0,0.27962 0.216,0.5084 0.48,0.5084 0.264,0 0.4801,-0.0953 0.4801,-0.2117 z m -14.401,-0.48007 c 0,-0.11644 -0.216,-0.34522 -0.48,-0.5084 -0.264,-0.16319 -0.48,-0.0679 -0.48,0.2117 0,0.27962 0.216,0.5084 0.48,0.5084 0.264,0 0.48,-0.0953 0.48,-0.2117 z m -83.0454,-0.98847 c -0.3286,-0.39606 -0.8136,-0.72011 -1.0776,-0.72011 -0.2677,0 -0.2158,0.31841 0.1176,0.72011 0.3287,0.39605 0.8136,0.7201 1.0776,0.7201 0.2678,0 0.2158,-0.31841 -0.1176,-0.7201 z m 8.1606,-0.33141 c 0,-0.631 -1.091,-0.23587 -1.3302,0.48175 -0.1169,0.35081 0.1025,0.4581 0.57,0.27869 0.4181,-0.16045 0.7602,-0.50264 0.7602,-0.76044 z m 17.2811,-0.40559 c 0,-0.59259 -0.3177,-0.58382 -1.4851,0.041 -0.5181,0.27728 -0.8148,0.70993 -0.6594,0.96144 0.336,0.54359 2.1445,-0.3018 2.1445,-1.00242 z m 68.3839,1.0102 c 0.355,-0.57445 -0.548,-1.14363 -1.1874,-0.74843 -0.5368,0.33181 -0.1844,1.19533 0.4879,1.19533 0.2328,0 0.5476,-0.2011 0.6995,-0.4469 z m -96.0193,-0.45884 c 0.1447,-0.23413 -0.059,-0.69264 -0.4517,-1.01893 -0.5948,-0.49368 -0.7148,-0.42225 -0.7148,0.42568 0,1.02992 0.6822,1.37688 1.1665,0.59325 z m 13.9141,-0.36234 c 0.2633,-0.68604 0.1923,-0.70361 -0.5486,-0.13584 -0.4681,0.35869 -0.9411,0.71329 -1.0511,0.78801 -0.11,0.0747 0.1369,0.13584 0.5487,0.13584 0.4118,0 0.8847,-0.3546 1.051,-0.78801 z m 90.2649,0.3425 c 0.1514,-0.24502 -0.1761,-0.5888 -0.7279,-0.76393 -1.1396,-0.36173 -1.6576,-0.0583 -1.1906,0.69743 0.3895,0.63022 1.5454,0.67029 1.9185,0.0665 z m -11.3894,-0.3246 c -0.1595,-0.15952 -0.5735,-0.17658 -0.92,-0.0379 -0.383,0.15325 -0.2692,0.267 0.29,0.29004 0.506,0.0208 0.7895,-0.0926 0.63,-0.25214 z m -59.1969,-1.10251 c 1.0056,-1.11131 0.2626,-1.76758 -1.1471,-1.01311 -0.9998,0.53516 -1.2074,1.04799 -0.6499,1.60554 0.513,0.5131 0.9171,0.37989 1.797,-0.59243 z m 11.5638,0.43241 c -0.3749,-0.60674 -1.7014,-0.60674 -2.6401,0 -0.5345,0.34545 -0.2489,0.46726 1.1084,0.47272 1.0983,0.004 1.7099,-0.18435 1.5317,-0.47272 z m 33.8422,0.23352 c 0,-1.01881 -1.2324,-1.96859 -2.2916,-1.76608 -0.9554,0.18264 -1.5848,-0.19993 -3.0923,-1.87946 -1.041,-1.15983 -1.6596,-1.63691 -1.3746,-1.06018 0.6787,1.37361 0.6548,1.59178 -0.1747,1.59178 -0.3811,0 -1.0066,-0.44793 -1.39,-0.99539 -0.3834,-0.54747 -0.8272,-0.78499 -0.9861,-0.52781 -0.1589,0.25717 -0.9335,0.42296 -1.7213,0.36841 -0.7877,-0.0545 -1.4903,0.0487 -1.5612,0.2294 -0.071,0.1807 -0.8851,0.48984 -1.8091,0.68696 l -1.6801,0.3584 0.9144,-1.02012 c 0.503,-0.56107 1.1786,-1.02012 1.5014,-1.02012 0.3227,0 0.8557,-0.32405 1.1844,-0.72011 0.3287,-0.39606 0.4398,-0.7201 0.2469,-0.7201 -0.5313,0 -7.5878,4.7944 -7.1275,4.8427 0.2201,0.0231 3.6404,0.0796 7.6007,0.12561 5.5748,0.0647 7.5797,0.26317 8.8805,0.87897 1.7187,0.8136 2.8802,1.06652 2.8802,0.62714 z m -29.1135,-1.19655 c 0.3925,-0.36704 -1.0747,-1.06823 -1.9188,-0.91697 -1.0054,0.18017 -1.1988,-0.10005 -0.5885,-0.85253 0.5679,-0.70016 0.5594,-0.7561 -0.061,-0.40533 -1.7039,0.96297 -1.911,1.29784 -1.3967,2.25894 0.404,0.75496 0.8046,0.87712 2.0301,0.61912 0.8397,-0.17678 1.7105,-0.49323 1.9351,-0.70323 z m -52.4369,-1.03277 c -0.537,-0.61856 -1.3021,-1.55671 -1.7004,-2.08479 -0.5549,-0.73584 -0.7277,-0.78887 -0.7394,-0.22701 -0.017,0.82489 2.7744,4.07815 3.1645,3.68795 0.1384,-0.13832 -0.1878,-0.75759 -0.7247,-1.37615 z m 11.7059,1.03566 c 0.3755,-0.60757 -0.26,-0.60757 -1.2001,0 -0.6205,0.40105 -0.6078,0.46639 0.092,0.47272 0.4464,0.004 0.9452,-0.20868 1.1084,-0.47272 z m 7.7128,-0.84782 c -0.4351,-0.43512 -1.7736,0.36039 -1.4601,0.86774 0.2151,0.34803 0.529,0.32766 1.0021,-0.065 0.3789,-0.31448 0.585,-0.67571 0.458,-0.80272 z m 69.4608,0.36775 c 0.9392,-1.09695 0.8751,-1.1355 -0.8174,-0.49195 -0.6772,0.2575 -1.2313,0.68957 -1.2313,0.96014 0,0.82041 1.1755,0.55179 2.0487,-0.46819 z m -47.1353,-0.80535 1.1637,-1.28542 -1.5601,1.07808 c -1.5744,1.08795 -1.89,1.49276 -1.1637,1.49276 0.218,0 0.92,-0.57844 1.5601,-1.28542 z m 19.434,-0.32849 1.6567,-1.60907 -1.3807,0.0513 c -0.8342,0.031 -1.2967,0.27163 -1.1683,0.60798 0.2055,0.53825 -1.5933,1.42925 -2.4267,1.20207 -0.6365,-0.17351 -2.2305,0.42338 -2.2305,0.83524 0,0.20296 0.8759,0.40335 1.9465,0.4453 1.6133,0.0632 2.2299,-0.19909 3.603,-1.53279 z m -48.0322,0.65377 c 0.1632,-0.26404 0.068,-0.48007 -0.2117,-0.48007 -0.2796,0 -0.5084,0.21603 -0.5084,0.48007 0,0.26404 0.095,0.48007 0.2117,0.48007 0.1165,0 0.3452,-0.21603 0.5084,-0.48007 z m 45.0378,-2.82162 c 1.6462,-1.16562 2.1352,-1.75041 1.6925,-2.02404 -0.3825,-0.2364 -1.1828,0.0355 -2.0751,0.7049 -1.3655,1.02448 -4.6111,3.30987 -4.9807,3.50711 -0.092,0.0493 -0.027,0.31771 0.145,0.59638 0.3335,0.5396 1.1064,0.12722 5.2183,-2.78435 z m -66.6906,0.34897 c -0.095,-1.35996 -0.2828,-2.58227 -0.4168,-2.71623 -0.1339,-0.13397 -0.011,-0.52313 0.272,-0.86481 0.3963,-0.47757 0.095,-0.79688 -1.302,-1.38073 -0.9997,-0.41772 -2.1516,-0.69516 -2.5599,-0.61654 -1.0975,0.21138 -0.9013,1.54728 0.2515,1.71211 0.7882,0.11271 0.9535,0.41549 0.7996,1.4643 -0.2177,1.48355 1.5321,4.87455 2.5153,4.87455 0.4411,0 0.5649,-0.69514 0.4403,-2.47265 z m 47.7589,0.33672 c -0.4256,-0.42561 -2.3731,1.22125 -2.0543,1.73713 0.1871,0.30289 0.6933,0.1086 1.3014,-0.49958 0.5473,-0.54737 0.8861,-1.10427 0.7529,-1.23755 z m 9.7917,-1.08389 c -0.1673,-0.43593 -0.5183,-0.39201 -1.38,0.17263 -1.1756,0.77036 -1.3919,1.21069 -0.8573,1.74538 0.4677,0.46771 2.4881,-1.26437 2.2373,-1.91801 z m -22.9073,0.4491 c -0.1609,-0.16092 -0.6654,0.0978 -1.1212,0.57505 -0.7921,0.82944 -0.7793,0.84232 0.2926,0.29258 0.6166,-0.31628 0.9895,-0.70671 0.8286,-0.86763 z m 26.132,0.37037 c 0,-0.26403 -0.216,-0.48006 -0.48,-0.48006 -0.264,0 -0.48,0.21603 -0.48,0.48006 0,0.26404 0.216,0.48007 0.48,0.48007 0.264,0 0.48,-0.21603 0.48,-0.48007 z m -19.62,-0.84012 c 0.5971,-0.76141 0.5801,-0.77839 -0.1813,-0.18125 -0.462,0.36238 -0.84,0.74043 -0.84,0.84012 0,0.39512 0.3942,0.14081 1.0213,-0.65887 z m 54.6623,0.36006 c 0,-0.26404 -0.2033,-0.48007 -0.4517,-0.48007 -0.2484,0 -0.5852,0.21603 -0.7484,0.48007 -0.1632,0.26403 0.04,0.48006 0.4517,0.48006 0.4116,0 0.7484,-0.21603 0.7484,-0.48006 z m -62.875,-0.7311 c 0.5073,-0.61129 0.4776,-0.68154 -0.1812,-0.42871 -0.4334,0.16632 -0.7879,0.49531 -0.7879,0.7311 0,0.61735 0.2778,0.53065 0.9691,-0.30239 z m -9.1297,-0.22904 c 0,-0.26404 -0.2287,-0.48007 -0.5083,-0.48007 -0.2796,0 -0.3749,0.21603 -0.2117,0.48007 0.1632,0.26403 0.3919,0.48007 0.5083,0.48007 0.1165,0 0.2117,-0.21604 0.2117,-0.48007 z m 31.1881,0.0187 c 0.3884,-0.24564 0.6041,-0.54872 0.4793,-0.6735 -0.1248,-0.12479 -0.6458,0.0795 -1.1579,0.45396 -1.0241,0.74892 -0.4513,0.93421 0.6786,0.21954 z m 9.5791,-0.69612 c 0.4016,-0.48394 0.4124,-0.76991 0.038,-1.00147 -0.5569,-0.34418 -1.9225,0.5491 -1.9225,1.25755 0,0.66342 1.2642,0.49165 1.8847,-0.25608 z m -20.056,-1.61969 c -0.2977,-0.0992 -0.8672,0.14553 -1.2656,0.54394 -1.134,1.13411 -0.8507,1.37796 0.5413,0.46584 0.6961,-0.45613 1.022,-0.91054 0.7243,-1.00978 z m 14.8111,1.11195 c 0,-0.42947 -0.2814,-0.59703 -0.72,-0.42871 -0.396,0.15198 -0.7201,0.46925 -0.7201,0.70504 0,0.23579 0.3241,0.42871 0.7201,0.42871 0.396,0 0.72,-0.31727 0.72,-0.70504 z m 16.3823,-0.13509 c 0.5971,-0.76141 0.5801,-0.77839 -0.1812,-0.18125 -0.7996,0.62715 -1.0539,1.02138 -0.6588,1.02138 0.1,0 0.4777,-0.37806 0.84,-0.84013 z m -87.1361,-0.007 c 0.292,-0.19398 0.6769,-1.14734 0.8554,-2.11857 0.3223,-1.75373 1.4838,-3.22194 4.62,-5.83999 1.4457,-1.20693 1.5396,-1.41835 0.8108,-1.82623 -0.6664,-0.373 -1.4737,0.18708 -4.2184,2.92655 -3.0836,3.07772 -3.3654,3.51952 -3.0783,4.82666 0.3528,1.60668 0,1.80389 -1.2349,0.68747 -1.0718,-0.97001 -1.6859,-0.0776 -0.6557,0.95271 0.807,0.80699 2.0278,0.9717 2.9011,0.3914 z m 42.912,-0.11266 c 0,-0.26404 -0.216,-0.48007 -0.48,-0.48007 -0.264,0 -0.48,0.21603 -0.48,0.48007 0,0.26404 0.216,0.48007 0.48,0.48007 0.264,0 0.48,-0.21603 0.48,-0.48007 z m 7.8846,-0.53821 c -0.3111,-0.50339 -1.1641,-0.0993 -1.1641,0.55147 0,0.24017 0.3227,0.3128 0.7173,0.1614 0.3945,-0.1514 0.5955,-0.47219 0.4468,-0.71287 z m 50.6792,-0.12312 c 0,-0.0997 -0.3289,-0.45429 -0.731,-0.788 -0.6113,-0.50733 -0.6815,-0.47763 -0.4287,0.18125 0.2582,0.67293 1.1597,1.14459 1.1597,0.60675 z m 22.5615,-0.29881 c 0,-0.26404 -0.216,-0.48007 -0.4801,-0.48007 -0.264,0 -0.48,0.21603 -0.48,0.48007 0,0.26404 0.216,0.48007 0.48,0.48007 0.2641,0 0.4801,-0.21603 0.4801,-0.48007 z m -105.6069,-0.2117 c 0,-0.11644 -0.216,-0.34522 -0.48,-0.50841 -0.264,-0.16318 -0.48,-0.0679 -0.48,0.21171 0,0.27962 0.216,0.5084 0.48,0.5084 0.264,0 0.48,-0.0953 0.48,-0.2117 z m 55.7005,-0.52875 c 1.0174,-1.22601 -0.2231,-2.05654 -1.4343,-0.96031 -0.9968,0.90221 -0.9091,1.70076 0.1869,1.70076 0.3481,0 0.9095,-0.33321 1.2474,-0.74045 z m 4.0634,0.26038 c -0.1632,-0.26404 -0.5127,-0.48007 -0.7767,-0.48007 -0.264,0 -0.3465,0.21603 -0.1834,0.48007 0.1632,0.26404 0.5127,0.48007 0.7768,0.48007 0.264,0 0.3465,-0.21603 0.1833,-0.48007 z m 5.7604,-0.48007 c -0.1632,-0.26404 -0.554,-0.47676 -0.8684,-0.47272 -0.3435,0.004 -0.2843,0.1931 0.1483,0.47272 0.9222,0.59602 1.0884,0.59602 0.7201,0 z m 19.4412,-0.24004 c 0,-0.39605 -0.324,-0.7201 -0.72,-0.7201 -0.7496,0 -0.9524,0.56778 -0.4,1.12016 0.5523,0.55239 1.12,0.34961 1.12,-0.40006 z m -73.0947,-0.05 c -0.1595,-0.15953 -0.5735,-0.17658 -0.92,-0.0379 -0.383,0.15325 -0.2692,0.267 0.29,0.29004 0.506,0.0208 0.7895,-0.0926 0.63,-0.25214 z m 23.9198,-0.4148 c 0.5125,-0.38766 0.6795,-0.71171 0.371,-0.7201 -0.9119,-0.0248 -2.0794,0.53448 -2.0794,0.99623 0,0.62916 0.6506,0.52401 1.7084,-0.27613 z m -40.1108,-0.2553 c 0,-0.26404 -0.2288,-0.48007 -0.5084,-0.48007 -0.2796,0 -0.3749,0.21603 -0.2117,0.48007 0.1632,0.26404 0.392,0.48007 0.5084,0.48007 0.1164,0 0.2117,-0.21603 0.2117,-0.48007 z m 5.2803,0 c 0,-0.26404 -0.2288,-0.48007 -0.5084,-0.48007 -0.2796,0 -0.3748,0.21603 -0.2116,0.48007 0.1631,0.26404 0.3919,0.48007 0.5083,0.48007 0.1164,0 0.2117,-0.21603 0.2117,-0.48007 z m -23.2815,-0.48007 c 0.1632,-0.26404 0.068,-0.48007 -0.2117,-0.48007 -0.2796,0 -0.5083,0.21603 -0.5083,0.48007 0,0.26404 0.095,0.48007 0.2116,0.48007 0.1165,0 0.3452,-0.21603 0.5084,-0.48007 z m 85.8591,-1.20017 c -0.1519,-0.39606 -0.4956,-0.72011 -0.7637,-0.72011 -0.281,0 -0.2343,0.30504 0.1101,0.72011 0.3287,0.39605 0.6724,0.7201 0.7638,0.7201 0.091,0 0.042,-0.32405 -0.1102,-0.7201 z m -29.4694,-0.22129 c 0.3884,-0.24564 0.5887,-0.56414 0.445,-0.70779 -0.1436,-0.14365 -0.6774,0.0538 -1.1861,0.4387 -1.0121,0.76575 -0.3971,0.98902 0.7411,0.26909 z m -36.9484,-1.4076 c 0,-1.08356 -0.9456,-1.53102 -2.4203,-1.14534 -1.009,0.26388 -0.9761,0.33204 0.5537,1.14721 0.8946,0.47667 1.6805,0.87572 1.7465,0.88679 0.066,0.0111 0.1201,-0.38883 0.1201,-0.88866 z m -16.3211,-0.0514 c 0,-0.26404 -0.2033,-0.48007 -0.4517,-0.48007 -0.2484,0 -0.5852,0.21603 -0.7484,0.48007 -0.1631,0.26404 0.04,0.48007 0.4517,0.48007 0.4116,0 0.7484,-0.21603 0.7484,-0.48007 z m 66.4532,-1.01044 c -0.335,-0.54216 -1.649,-0.56583 -1.649,-0.0297 0,0.67558 0.5404,0.98686 1.2442,0.71674 0.3687,-0.1415 0.5509,-0.45066 0.4048,-0.68703 z m 37.4735,-1.40623 c 5.9624,-1.5163 8.9418,-2.65606 9.5045,-3.63587 0.2111,-0.36764 0.8592,-0.67684 1.4401,-0.68712 1.2939,-0.0229 7.0645,-3.55584 12.1539,-7.441 3.0471,-2.32609 11.6289,-10.72671 15.9199,-15.58366 5.836,-6.60535 7.59,-11.87625 6.132,-18.42854 -1.022,-4.59279 -3.257,-9.08408 -5.296,-10.63891 -0.928,-0.7084 -2.752,-1.41655 -4.399,-1.70824 -4.1072,-0.72739 -8.8769,-1.24615 -10.2537,-1.11521 -6.5081,0.61894 -8.5718,1.0055 -13.1038,2.45455 -4.5588,1.45764 -12.5686,4.83249 -15.4581,6.51312 -2.4051,1.39888 -6.4107,3.40639 -8.1605,4.08978 -1.0561,0.41246 -3.4322,1.72118 -5.2804,2.90827 -1.8481,1.18709 -6.1684,3.84257 -9.6006,5.90107 -3.4322,2.05849 -7.1044,4.37078 -8.1605,5.13842 -1.0561,0.76764 -5.3349,3.29489 -9.5084,5.61611 -6.8153,3.79047 -7.5134,4.29533 -6.853,4.95581 0.486,0.486 1.4721,0.69725 2.908,0.62291 2.3365,-0.12095 2.9314,0.61786 1.0926,1.35702 -0.7088,0.28491 -0.8158,0.44463 -0.3112,0.4646 0.7714,0.0305 1.5031,0.68342 5.9516,5.31034 2.2328,2.32247 6.0035,5.28162 6.7299,5.28162 0.1742,0 0.6753,0.41956 1.1136,0.93235 0.4384,0.51279 2.2011,1.60619 3.9172,2.42978 1.7161,0.8236 3.6603,1.81846 4.3203,2.2108 2.4902,1.48027 5.6433,2.68804 9.299,3.56195 2.0782,0.49681 3.8984,1.02316 4.0449,1.16967 0.5154,0.51542 6.6349,-0.35139 11.8577,-1.67962 z m -7.9205,-5.69922 c -1.9801,-0.72458 -4.7343,-1.89531 -6.1204,-2.60163 -1.3861,-0.70632 -3.6542,-1.83547 -5.0403,-2.50922 -5.1094,-2.48356 -5.7886,-2.90101 -8.3565,-5.13592 -1.441,-1.25418 -2.7889,-2.28033 -2.9951,-2.28033 -0.2063,0 -0.6153,-0.52719 -0.9088,-1.17153 -0.502,-1.10176 -0.7128,-1.15757 -3.5402,-0.9372 -3.3215,0.25887 -3.9108,0.51772 -2.7093,1.19016 0.4419,0.2473 1.9522,1.43083 3.3562,2.63006 1.4041,1.19924 4.119,3.11294 6.0331,4.25268 3.1266,1.86166 4.3962,2.33915 9.4806,3.56577 2.291,0.5527 1.2153,1.2792 -1.7631,1.19085 -2.1762,-0.0645 -3.6238,-0.52788 -7.206,-2.3063 -2.4655,-1.22403 -5.2363,-2.88897 -6.1573,-3.69987 -0.9211,-0.8109 -2.5387,-2.01969 -3.5948,-2.68619 -2.1908,-1.38263 -2.7227,-2.01574 -2.4102,-2.86855 0.3108,-0.84817 -0.1122,-0.74933 -1.733,0.40487 -0.7762,0.55273 -1.7435,0.87743 -2.1497,0.72156 -1.3573,-0.52089 -0.4522,-1.95467 1.9726,-3.12472 2.0181,-0.97378 3.1644,-1.16484 7.2005,-1.20017 4.3945,-0.0385 6.1454,0.081 14.2121,0.96926 1.6806,0.18508 3.0804,0.0881 3.7273,-0.25814 0.8414,-0.45033 1.0895,-0.41533 1.3203,0.1863 0.34,0.88611 4.4838,1.04688 5.3241,0.20656 0.3134,-0.3135 0.7994,-0.36677 1.176,-0.12892 2.017,1.27371 23.8782,-0.90346 29.5707,-2.94495 1.6539,-0.59315 3.1248,-0.88809 3.2685,-0.65544 0.6851,1.10849 -1.5132,2.36519 -6.0356,3.45038 -3.2049,0.76905 -4.8926,1.0122 -10.9207,1.57339 -2.4702,0.22996 -3.4802,0.51498 -3.4802,0.98206 0,0.78593 -2.1969,0.89537 -2.6681,0.13291 -0.2279,-0.3688 -2.1301,-0.41004 -6.3887,-0.1385 -3.3353,0.21267 -7.0128,0.38413 -8.1722,0.38102 -2.0378,-0.005 -2.0728,0.0191 -1.0519,0.73858 0.5808,0.40933 2.2855,1.78904 3.7881,3.06602 2.7323,2.32201 6.0654,4.15916 7.546,4.15916 1.0597,0 0.6613,1.01808 -0.5778,1.47648 -1.3008,0.48121 -4.9793,-1.22591 -7.8364,-3.63664 -1.1881,-1.00246 -3.1811,-2.45412 -4.4289,-3.22591 -1.2478,-0.77178 -2.2199,-1.62691 -2.1602,-1.90029 0.1514,-0.69254 -3.6263,-1.70831 -7.2227,-1.9421 l -3.0112,-0.19574 1.793,1.83631 c 2.1362,2.18783 15.4859,9.01734 21.8704,11.18854 2.3102,0.78563 4.2003,1.70108 4.2003,2.03434 0,1.00111 -3.2953,0.64003 -7.2005,-0.789 z m 23.1515,-6.85628 c 0.2967,-0.89016 1.3301,-1.0378 1.3301,-0.19003 0,0.41806 -0.342,0.76011 -0.76,0.76011 -0.4181,0 -0.6746,-0.25653 -0.5701,-0.57008 z m -6.8304,-1.3808 c -2.2442,-0.19479 -6.2713,-0.37561 -8.9493,-0.40182 -4.074,-0.0399 -4.9191,-0.17832 -5.176,-0.84803 -0.1689,-0.44021 -0.138,-0.9624 0.069,-1.16042 0.2067,-0.19803 3.823,-0.16372 8.0363,0.0762 4.3701,0.24889 7.8407,0.25609 8.08,0.0168 0.6311,-0.63114 3.2991,0.86736 3.1266,1.75611 -0.1875,0.96643 -0.3343,0.98232 -5.1862,0.56116 z m -2.1602,-2.81878 c -1.8412,-0.35863 -1.9103,-1.60681 -0.093,-1.68636 1.4405,-0.0631 2.704,0.95811 1.9691,1.59141 -0.2396,0.2065 -1.0837,0.24923 -1.8758,0.095 z m -30.7804,-7.93557 c -0.4833,-0.3534 -0.695,-0.9173 -0.5179,-1.37905 0.2343,-0.61053 0.6446,-0.70435 1.8782,-0.42948 0.8681,0.19344 3.6305,0.35109 6.1386,0.35033 4.5538,-10e-4 8.9998,-0.99437 13.4409,-3.00194 0.9241,-0.41772 2.8682,-1.23118 4.3203,-1.8077 1.4521,-0.57652 3.302,-1.45814 4.111,-1.95916 2.1863,-1.3541 10.4476,-6.84097 11.0668,-7.3502 2.0384,-1.67646 13.6974,-6.28258 15.9025,-6.28258 0.604,0 1.082,0.29499 1.082,0.66798 0,0.74643 -1.9528,1.61455 -7.0181,3.12021 -1.8797,0.55873 -3.9659,1.44718 -4.636,1.97433 -0.6701,0.52715 -1.3938,0.95845 -1.6082,0.95845 -0.6131,0 -9.3069,5.91332 -9.0588,6.1615 0.1221,0.12213 1.4036,0.30876 2.8477,0.41473 1.4441,0.10596 4.0942,0.64042 5.889,1.18769 4.7927,1.46129 6.0148,1.29889 9.8267,-1.30585 2.0074,-1.37174 3.5727,-2.12695 4.0377,-1.94841 1.176,0.45147 0.702,1.04567 -2.904,3.64096 -4.244,3.05408 -5.5728,3.3052 -10.2078,1.92909 -2.0036,-0.59485 -5.2659,-1.26356 -7.2495,-1.48603 -1.9836,-0.22247 -3.7572,-0.64838 -3.9414,-0.94646 -0.2291,-0.37058 -0.9238,-0.15365 -2.1972,0.686 -1.0242,0.67538 -3.3743,1.7833 -5.2224,2.46205 -1.8481,0.67875 -3.7922,1.4424 -4.3203,1.697 -1.4878,0.71738 -5.0146,1.91832 -7.8925,2.68756 -3.2374,0.86532 -12.5659,0.83752 -13.7673,-0.041 z m -14.7039,-1.0181 c -0.953,-0.95313 0,-1.53356 4.0817,-2.48888 4.5875,-1.07342 9.6632,-2.03043 10.7688,-2.03043 0.3475,0 0.6319,0.30668 0.6319,0.68152 0,0.7806 -2.7886,1.76 -8.4006,2.95046 -5.3515,1.1352 -6.6689,1.30026 -7.0818,0.88733 z m 24.443,-4.83936 c -0.6922,-0.69227 -0.2642,-1.6009 0.76,-1.61322 1.6448,-0.0198 6.9091,-2.4312 10.847,-4.96869 1.9396,-1.24984 4.6398,-2.79188 6.0004,-3.42677 1.3606,-0.63489 3.4459,-1.73201 4.634,-2.43804 5.9088,-3.51143 16.0811,-6.375 16.0811,-4.52697 0,0.46619 -0.884,0.90518 -2.5819,1.28226 -2.7468,0.61002 -8.4912,2.95097 -12.0591,4.91431 -1.1881,0.65378 -3.7802,2.02686 -5.7604,3.05129 -1.9801,1.02444 -4.8963,2.70349 -6.4804,3.73123 -4.3666,2.83298 -10.471,4.96438 -11.4407,3.9946 z m -7.5132,-0.76011 c 0.012,-0.94219 0.5677,-1.52441 2.6329,-2.75627 1.056,-0.62994 3.1082,-2.04188 4.5602,-3.13763 3.4424,-2.59757 13.5132,-8.35298 15.6473,-8.94228 1.7273,-0.47696 3.554,-0.183 3.554,0.57193 0,0.23826 -0.9181,0.70977 -2.0401,1.04781 -2.5631,0.77215 -11.2667,5.54006 -14.761,8.08617 -7.7681,5.66024 -9.6118,6.64622 -9.5933,5.13027 z m -83.0527,31.80461 c 0,-0.26404 -0.216,-0.48007 -0.48,-0.48007 -0.264,0 -0.4801,0.21603 -0.4801,0.48007 0,0.26404 0.2161,0.48007 0.4801,0.48007 0.264,0 0.48,-0.21603 0.48,-0.48007 z m 11.5208,-0.48007 c 0,-0.26403 -0.2161,-0.48007 -0.4801,-0.48007 -0.264,0 -0.48,0.21604 -0.48,0.48007 0,0.26404 0.216,0.48007 0.48,0.48007 0.264,0 0.4801,-0.21603 0.4801,-0.48007 z m 58.3237,-0.48007 c -0.1631,-0.26403 -0.5539,-0.47676 -0.8684,-0.47271 -0.3435,0.004 -0.2843,0.19309 0.1484,0.47271 0.9222,0.59602 1.0884,0.59602 0.72,0 z m -5.0403,-1.44021 c 0,-0.26403 -0.3113,-0.48006 -0.6917,-0.48006 -0.3805,0 -0.8252,0.21603 -0.9884,0.48006 -0.1632,0.26404 0.1481,0.48007 0.6917,0.48007 0.5436,0 0.9884,-0.21603 0.9884,-0.48007 z m -28.2066,-1.4402 c 0.2886,0 0.3993,-0.12552 0.2459,-0.27893 -0.1534,-0.15342 -0.7586,-0.0222 -1.3449,0.29163 -0.846,0.45278 -0.9288,0.65641 -0.4012,0.9864 0.4443,0.27785 0.7164,0.18108 0.8201,-0.29164 0.085,-0.38911 0.3914,-0.70746 0.6801,-0.70746 z m -23.3596,-2.32277 c -1.025,-0.20006 -1.4417,0.16323 -1.0025,0.87393 0.2374,0.38425 0.543,0.35939 1.0829,-0.0881 0.6775,-0.56165 0.6696,-0.63949 -0.08,-0.78585 z m 26.6142,0.63092 c 0.8566,-1.03224 0.2446,-1.42108 -0.9356,-0.59439 -0.5434,0.38066 -0.8454,0.83476 -0.6711,1.0091 0.4954,0.49542 0.9485,0.37848 1.6067,-0.41471 z m -31.6917,-1.18857 c 0,-0.26404 -0.2287,-0.48007 -0.5083,-0.48007 -0.2796,0 -0.3749,0.21603 -0.2117,0.48007 0.1632,0.26404 0.3919,0.48007 0.5083,0.48007 0.1165,0 0.2117,-0.21603 0.2117,-0.48007 z m 25.9829,-0.36005 c 0.5971,-0.76142 0.5802,-0.7784 -0.1812,-0.18126 -0.462,0.36238 -0.84,0.74044 -0.84,0.84013 0,0.39511 0.3941,0.1408 1.0212,-0.65887 z m -1.5013,-2.06863 c 0,-0.24846 -0.3172,-0.45174 -0.705,-0.45174 -0.4282,0 -0.5969,0.28161 -0.4297,0.71735 0.2834,0.73847 1.1347,0.53919 1.1347,-0.26561 z m 1.9201,-1.41188 c 0,-0.26404 -0.2287,-0.48007 -0.5083,-0.48007 -0.2796,0 -0.3749,0.21603 -0.2117,0.48007 0.1632,0.26404 0.3919,0.48007 0.5084,0.48007 0.1164,0 0.2116,-0.21603 0.2116,-0.48007 z m -31.9884,-0.7201 c -0.152,-0.39606 -0.4957,-0.72011 -0.7638,-0.72011 -0.281,0 -0.2343,0.30504 0.1101,0.72011 0.3287,0.39605 0.6724,0.7201 0.7638,0.7201 0.091,0 0.042,-0.32405 -0.1101,-0.7201 z m 28.3423,-0.0534 c 0.2172,-0.56618 0.092,-0.69488 -0.4679,-0.48007 -0.4206,0.16141 -0.8679,0.29348 -0.9939,0.29348 -0.126,0 -0.096,0.21603 0.068,0.48007 0.4403,0.71251 1.0581,0.58247 1.3942,-0.29348 z m -15.7951,-1.83509 c 1.1588,-0.12785 1.5318,-2.11531 0.6917,-3.68529 -0.5061,-0.94559 -0.616,-0.9742 -1.0136,-0.26377 -0.3035,0.54238 -1.0808,0.79687 -2.4339,0.79687 -1.7369,0 -1.8815,0.0779 -1.1444,0.6169 0.7964,0.58241 0.7875,0.6677 -0.1596,1.52489 -1.2698,1.14925 -0.4357,1.86324 1.6596,1.42057 0.7921,-0.16734 1.8722,-0.35192 2.4002,-0.41017 z m 18.4812,0.47666 c 0,-0.5067 -0.9213,-0.71958 -1.1953,-0.2762 -0.1658,0.26835 0.035,0.4879 0.4469,0.4879 0.4116,0 0.7484,-0.0953 0.7484,-0.2117 z m -4.4503,-0.55841 c -0.1595,-0.15952 -0.5735,-0.17658 -0.9201,-0.0379 -0.3829,0.15325 -0.2692,0.26701 0.2901,0.29004 0.506,0.0208 0.7895,-0.0926 0.63,-0.25214 z m -6.5904,-4.03058 c 0,-0.26404 -0.216,-0.48007 -0.4801,-0.48007 -0.264,0 -0.48,0.21603 -0.48,0.48007 0,0.26403 0.216,0.48007 0.48,0.48007 0.2641,0 0.4801,-0.21604 0.4801,-0.48007 z m 30.4402,-3.21035 c -0.6493,-0.47481 -0.9596,-0.50643 -1.0913,-0.11123 -0.2239,0.67161 0.9097,1.44767 1.5429,1.05631 0.2506,-0.1549 0.047,-0.58019 -0.4516,-0.94508 z m -1.0915,-3.9533 1.1332,-0.92275 -1.8001,0.56015 c -0.99,0.30807 -1.8001,0.72331 -1.8001,0.92274 0,0.67083 1.3245,0.37009 2.467,-0.56014 z m 33.3371,-37.63297 c -0.6737,-0.49266 -0.7542,-0.75804 -0.3127,-1.03094 0.6937,-0.42874 1.6612,0.37028 1.3995,1.15569 -0.1249,0.37462 -0.4559,0.33663 -1.0868,-0.12475 z m -1.7219,-6.57083 c 0,-0.26404 0.216,-0.48007 0.48,-0.48007 0.2641,0 0.4801,0.21603 0.4801,0.48007 0,0.26403 -0.216,0.48007 -0.4801,0.48007 -0.264,0 -0.48,-0.21604 -0.48,-0.48007 z m -1.8822,-0.76011 c 0.023,-0.55926 0.1368,-0.67301 0.29,-0.29005 0.1387,0.34655 0.1216,0.76061 -0.038,0.92014 -0.1595,0.15952 -0.273,-0.12402 -0.2521,-0.63009 z"
         id="path1" /></g></g></svg>
