<?xml version="1.0" encoding="UTF-8" standalone="no"?>
<!-- Created with Inkscape (http://www.inkscape.org/) -->

<svg
   width="61.221001mm"
   height="62.240601mm"
   viewBox="0 0 61.221 62.240601"
   version="1.1"
   id="svg1"
   xml:space="preserve"
   xmlns="http://www.w3.org/2000/svg"
   xmlns:svg="http://www.w3.org/2000/svg"><defs
     id="defs1" /><g
     id="layer1"
     transform="translate(1472.671,3650.7208)"><g
       id="g945"
       transform="matrix(0.26458333,0,0,0.26458333,-3913.9426,-3789.8158)"><path
         style="fill:#000000"
         d="m 9300.4723,735.04747 c -1.2226,-1.91722 -2.3803,-3.59404 -2.5724,-3.72626 -0.1922,-0.13222 -0.4968,-0.71344 -0.6768,-1.29158 -0.1801,-0.57815 -1.4859,-2.28803 -2.9019,-3.79973 -1.4159,-1.5117 -2.4818,-2.99044 -2.3685,-3.28609 0.1174,-0.3065 -1.5584,-1.22931 -3.8989,-2.14702 -2.2577,-0.88521 -5.5461,-2.55753 -7.3076,-3.71627 -2.7566,-1.81336 -3.5535,-2.10679 -5.7218,-2.10679 -3.2005,0 -7.1009,0.82365 -9.3882,1.98248 -2.2488,1.13935 -3.3805,1.16535 -3.1704,0.0728 0.2744,-1.42708 6.285,-3.58484 10.7039,-3.84266 4.36,-0.25438 5.9862,0.24425 9.4614,2.90107 5.5784,4.26472 22.7024,8.13841 29.1395,6.59177 2.1371,-0.5135 3.0082,-0.47571 6.1903,0.26852 2.0367,0.47636 4.9855,1.49943 6.5528,2.27349 3.8899,1.92119 5.1996,2.00519 13.3255,0.8547 10.4865,-1.4847 18.6386,-1.79906 22.4773,-0.86676 1.7356,0.42153 5.0242,0.74131 7.4333,0.7228 2.7246,-0.0209 5.2902,0.25981 6.9456,0.76005 1.4439,0.43629 4.4068,0.93042 6.5844,1.09806 3.8116,0.29344 4.0244,0.25493 5.7108,-1.03333 1.4387,-1.09908 2.6209,-1.45324 6.6173,-1.98248 7.414,-0.98181 8.5192,-0.89995 10.64,0.78811 2.5327,2.01586 3.4383,2.13927 8.715,1.18769 2.9609,-0.53395 5.8521,-0.74534 8.0303,-0.58716 3.3846,0.24579 11.8889,2.72805 13.5737,3.96191 1.9058,1.39571 -0.051,1.1936 -5.4529,-0.56325 -6.6106,-2.14995 -10.5867,-2.37877 -17.5572,-1.01041 -4.6751,0.91777 -5.9234,0.70205 -8.1286,-1.40474 -1.4628,-1.39751 -2.9634,-1.5404 -9.4367,-0.89863 -3.4365,0.3407 -4.3458,0.63366 -6.4356,2.0734 -2.4048,1.65678 -2.4768,1.67282 -6.0793,1.35312 -2.0051,-0.17794 -5.4818,-0.76768 -7.7261,-1.31054 -3.165,-0.76556 -4.8712,-0.91668 -7.6048,-0.67358 -2.71,0.24101 -4.0966,0.12168 -6.0008,-0.51642 -2.8278,-0.9476 -6.1798,-1.07494 -13.0377,-0.49528 -6.296,0.53217 -6.4109,0.54638 -12.0015,1.48434 -5.5642,0.93355 -6.8734,0.7766 -11.7614,-1.41003 -4.2834,-1.91613 -9.1417,-2.92388 -10.5239,-2.18299 -1.5345,0.82255 -8.3002,0.57714 -12.6086,-0.45735 -2.195,-0.52704 -4.5174,-0.95977 -5.1609,-0.96162 l -1.1699,-0.003 1.2174,1.32222 c 2.6409,2.86841 8.5634,12.28278 8.5634,13.61245 0,1.2364 -1.1842,0.10966 -3.1895,-3.03467 z m 38.8308,2.88485 c -0.8242,-1.03035 -2.5172,-4.61591 -2.5172,-5.33106 0,-0.37483 -0.324,-0.95085 -0.7201,-1.28005 -0.8979,-0.7464 -0.9454,-2.40404 -0.069,-2.40404 0.3582,0 1.4062,1.67769 2.3289,3.7282 0.9226,2.05051 2.0337,4.02427 2.4691,4.38614 0.4353,0.36187 0.7915,0.84782 0.7915,1.07988 0,0.64039 -1.7369,0.50417 -2.2834,-0.17907 z m 37.8631,-3.33931 c -2.1538,-2.30814 -2.7673,-3.63856 -2.0121,-4.36333 0.4904,-0.47069 0.7283,-0.40933 1.1664,0.30083 0.3027,0.49067 1.1445,1.65633 1.8706,2.59036 2.3072,2.96803 1.4799,4.15645 -1.0249,1.47214 z m -7.3049,-10.8477 c -2.6214,-1.75939 -9.6536,-8.85467 -11.0415,-11.14057 -0.4584,-0.7549 -1.0608,-1.5133 -1.3387,-1.68533 -0.278,-0.17203 -0.9466,-1.22336 -1.486,-2.3363 -0.5393,-1.11293 -1.9486,-3.5283 -3.1317,-5.36747 -1.419,-2.20592 -1.9894,-3.50589 -1.676,-3.81978 0.5757,-0.57661 1.4925,0.38141 3.8723,4.04664 6.693,10.30781 6.8042,10.44379 14.2704,17.45518 1.6391,1.53928 2.9802,2.99973 2.9802,3.24545 0,0.69695 -1.0791,0.52166 -2.449,-0.39782 z m 40.7505,-1.50595 c -1.683,-1.48231 -3.3263,-3.72338 -8.2958,-11.31285 -3.1146,-4.75655 -3.6577,-6.05748 -2.5223,-6.04108 0.8628,0.0125 3.2293,3.03638 5.6374,7.20346 2.295,3.97134 3.7698,6.0501 6.1218,8.62912 2.5919,2.84202 1.8746,4.00146 -0.9411,1.52135 z m 23.4673,-2.84861 c -0.4221,-0.46706 -1.9091,-1.25037 -3.3046,-1.74069 -3.0424,-1.06899 -10.314,-4.84356 -11.6584,-6.05173 -1.6745,-1.5048 -4.7134,-2.78302 -7.4409,-3.12973 -3.1878,-0.40523 -6.8149,-2.1414 -12.9315,-6.18996 -2.5249,-1.67121 -5.735,-3.61819 -7.1335,-4.32663 -2.8658,-1.45162 -10.8251,-3.65477 -13.1851,-3.64965 -2.0942,0.005 -8.8529,1.66704 -10.8318,2.66441 -1.0617,0.53511 -2.7505,0.79967 -5.0406,0.78965 -3.4828,-0.0152 -5.511,-0.42061 -13.7649,-2.75111 -6.3324,-1.78797 -15.2313,-1.85474 -24.2434,-0.18191 -11.0204,2.0456 -17.0544,1.25069 -22.3414,-2.94325 -1.8737,-1.48631 -9.5284,-4.89014 -12.9005,-5.73654 -0.9475,-0.23781 -3.6669,-1.0122 -6.0432,-1.72087 -5.678,-1.69333 -15.7298,-1.96458 -19.8256,-0.53501 -2.5885,0.90349 -5.1259,0.76016 -4.783,-0.27019 0.251,-0.75398 6.562,-2.21672 10.89,-2.52401 4.0505,-0.28758 11.3005,0.66767 15.6388,2.06054 1.5842,0.50863 3.5973,1.08112 4.4735,1.27221 2.9947,0.6531 12.2915,4.59867 13.5112,5.73418 1.7,1.58262 7.3616,3.71831 10.6484,4.01681 1.5148,0.13758 3.7144,0.008 4.8878,-0.28793 4.3447,-1.09571 12.6603,-1.99384 18.2891,-1.97531 6.175,0.0203 9.6441,0.54871 17.3186,2.63776 6.1395,1.67124 8.8881,1.63828 14.9731,-0.17956 6.7878,-2.0278 10.0446,-2.33441 13.7441,-1.29397 7.3127,2.05659 10.3383,3.40615 16.1684,7.21194 7.5193,4.9085 9.6341,5.9277 13.0392,6.28399 2.9557,0.30927 4.5539,1.07176 10.3044,4.91644 2.0789,1.38985 5.3943,3.20126 7.3676,4.02536 3.9744,1.65982 5.7354,2.77195 5.7582,3.63644 0.026,0.99643 -0.7883,1.11898 -1.584,0.23832 z m -106.6543,-0.54428 c -1.4929,-0.61198 -2.3649,-1.83346 -4.8238,-6.75758 -3.2307,-6.46953 -6.8725,-12.43225 -7.944,-13.0066 -1.3076,-0.70086 -1.188,-2.00432 0.1662,-1.81169 1.3044,0.18554 5.336,6.1174 8.7642,12.89505 2.6568,5.25264 4.0665,6.97528 6.3168,7.71911 0.8806,0.29106 1.6011,0.72879 1.6011,0.97273 0,0.54001 -2.7545,0.53258 -4.0805,-0.011 z m 37.0446,-5.15489 c -0.7464,-0.74752 -0.088,-1.27507 4.1205,-3.30185 5.9348,-2.85819 10.493,-3.76128 17.6213,-3.49127 4.466,0.16916 5.9312,0.41193 7.5492,1.25087 1.1042,0.57253 2.1441,1.26195 2.3107,1.53204 0.5757,0.93297 -1.1167,1.03175 -2.7148,0.15847 -1.351,-0.7382 -2.7377,-0.8754 -8.8045,-0.87107 -4.6038,0.003 -7.8934,0.23123 -9.1211,0.63204 -3.0513,0.99615 -5.6199,2.12203 -7.5514,3.30998 -1.8247,1.12224 -2.8375,1.35415 -3.4099,0.78079 z m -8.7211,-0.76361 c -1.7905,-1.07061 -7.1621,-2.7776 -9.6693,-3.07274 -3.35,-0.39434 -14.6433,1.66021 -15.341,2.79094 -0.4047,0.65587 -1.633,0.46181 -1.633,-0.25801 0,-1.12351 1.1007,-1.67401 5.911,-2.95634 3.4173,-0.91096 5.8732,-1.24287 9.3252,-1.2603 4.2613,-0.0215 5.0345,0.1225 8.5267,1.58823 4.9089,2.06032 5.7318,2.55961 5.3197,3.22744 -0.4257,0.69001 -1.2185,0.67077 -2.4393,-0.0592 z m -67.3361,-3.01834 c -0.7688,-0.93415 -1.9187,-2.68346 -2.5553,-3.88736 -0.6366,-1.2039 -1.3762,-2.54915 -1.6436,-2.98943 -0.2674,-0.44029 -1.1172,-1.88234 -1.8885,-3.20456 -1.3557,-2.32419 -3.6893,-5.57735 -4.9393,-6.88586 -0.3339,-0.34944 -0.607,-0.83626 -0.607,-1.08182 0,-0.24555 -0.3241,-0.44646 -0.7201,-0.44646 -0.8048,0 -0.9826,-1.22316 -0.2444,-1.68016 0.634,-0.39242 2.5907,1.10573 3.6843,2.82087 0.4843,0.75961 1.2047,1.8765 1.6007,2.48197 0.873,1.33455 3.7195,6.06899 5.045,8.39084 1.451,2.54182 3.8979,5.99128 4.7557,6.70432 1.0276,0.85412 0.9582,1.4761 -0.1645,1.4761 -0.5089,0 -1.5542,-0.7643 -2.323,-1.69845 z m 24.3512,-0.0303 c -0.9134,-0.95797 -2.5248,-2.31318 -3.5809,-3.01157 -1.7973,-1.18847 -2.2738,-1.26945 -7.4409,-1.26445 -3.2461,0.003 -6.1141,0.24841 -6.9609,0.59529 -2.2446,0.91943 -4.8006,0.98363 -4.8006,0.12058 0,-1.08712 7.3041,-2.82013 12.036,-2.85571 5.2597,-0.0395 7.8812,0.92264 11.1481,4.09186 2.4012,2.32937 2.9237,3.51031 1.7295,3.90901 -0.2583,0.0862 -1.2169,-0.62703 -2.1303,-1.58501 z m 125.7951,-6.99813 c -0.9241,-0.5667 -3.2181,-1.53506 -5.0977,-2.15192 -5.2844,-1.73424 -7.6268,-2.85683 -9.6255,-4.61297 -2.4914,-2.18895 -8.6863,-6.81748 -10.5799,-7.90472 -0.8471,-0.48638 -4.0875,-2.41467 -7.2009,-4.28508 -8.1689,-4.9076 -14.4186,-7.61642 -21.4967,-9.31744 -2.4386,-0.58605 -11.4611,-0.76362 -14.2888,-0.28122 -0.8575,0.1463 -4.1604,0.4652 -7.3398,0.70866 -6.7572,0.51745 -10.6621,0.11909 -18.2223,-1.85896 -8.5173,-2.22846 -10.4252,-2.82272 -12.9616,-4.03717 -1.3202,-0.63211 -3.5884,-1.53634 -5.0406,-2.00939 -1.4522,-0.47305 -5.842,-2.49432 -9.7552,-4.49171 -4.7211,-2.40983 -7.6632,-3.63162 -8.745,-3.63162 -0.8967,0 -1.5287,-0.10179 -1.4045,-0.2262 0.1242,-0.12441 -1.0434,-0.78888 -2.5947,-1.47659 -1.5513,-0.68771 -3.2063,-1.57037 -3.6777,-1.96147 -0.6783,-0.56279 -2.3682,-0.70236 -8.1026,-0.66924 -7.6251,0.044 -11.7106,0.78067 -21.5708,3.88934 -3.6032,1.13599 -5.1171,1.19811 -5.1171,0.20997 0,-0.57967 4.3658,-1.99703 11.8895,-3.85995 5.8382,-1.4456 8.1295,-1.76068 15.8945,-2.18574 2.2116,-0.12106 4.0937,-0.29288 4.1825,-0.38181 0.089,-0.0889 -0.7486,-1.34735 -1.8608,-2.79646 -2.3425,-3.05212 -3.4589,-4.95762 -4.4019,-7.5138 -0.3709,-1.0052 -1.1236,-3.01764 -1.6728,-4.47209 -2.9708,-7.8682 -4.863,-21.71206 -4.285,-31.3494 0.4458,-7.43053 1.6811,-11.28827 5.5556,-17.34934 3.937,-6.15882 6.4433,-8.91662 11.1829,-12.30517 6.6627,-4.76344 11.7232,-7.11602 16.6767,-7.75285 2.1437,-0.2756 3.4164,-0.74014 4.4774,-1.63434 0.8153,-0.68712 1.9519,-1.25261 2.5257,-1.25666 1.3501,-0.01 1.9637,-0.48357 2.1691,-1.67547 0.2346,-1.36188 0.2933,-1.39054 3.5865,-1.74951 6.3254,-0.68948 8.5165,-1.16909 11.2348,-2.45917 0.693,-0.32889 2.8739,-0.38024 6.2408,-0.14693 2.8465,0.19725 6.5797,0.3925 8.2959,0.43389 3.4024,0.0821 6.2528,1.20725 9.3961,3.70917 0.9775,0.77801 1.9782,1.41457 2.2237,1.41457 0.2455,0 1.6078,0.91955 3.0273,2.04344 1.4194,1.12388 3.586,2.78793 4.8146,3.69788 1.2286,0.90995 3.0135,2.47859 3.9665,3.48586 0.953,1.00727 2.0046,1.83141 2.337,1.83141 0.3323,0 0.8632,0.48681 1.1796,1.08181 0.3165,0.595 1.4414,2.23265 2.4999,3.63921 1.0585,1.40657 1.9559,2.92111 1.9943,3.36566 0.039,0.44455 0.4333,1.5007 0.8775,2.34702 0.4442,0.84631 0.8076,1.95572 0.8076,2.46537 0,0.50964 0.3092,1.1836 0.687,1.49769 0.3779,0.31409 0.9238,1.67683 1.2132,3.02831 0.2894,1.35149 0.9492,3.1427 1.4661,3.98048 0.628,1.01771 0.9228,2.30608 0.8884,3.88207 -0.06,2.72713 -0.7693,5.48409 -1.4116,5.48409 -0.9554,0 -0.3783,1.38473 0.6373,1.52919 1.4226,0.20235 2.1969,2.60093 2.1025,6.51222 -0.051,2.09915 -0.3155,3.23651 -0.8867,3.8086 -0.7431,0.74427 -0.7472,0.86485 -0.047,1.37758 0.5857,0.42899 0.6877,0.98646 0.4311,2.3566 -0.2638,1.40833 -0.6372,1.89976 -1.7342,2.2828 -1.0633,0.37123 -1.4717,0.88101 -1.7054,2.12875 -0.169,0.90234 -0.5899,1.64063 -0.9353,1.64063 -0.4831,0 -0.5234,0.37903 -0.1748,1.64346 0.2491,0.90391 0.8406,3.47037 1.3144,5.70326 0.8601,4.05394 0.8597,4.06582 -0.2521,8.2605 -1.2739,4.80611 -4.2236,10.8049 -6.6562,13.53656 -0.9151,1.02759 -1.7814,2.23591 -1.9252,2.68516 -0.1438,0.44925 -0.6656,0.94531 -1.1596,1.10235 -0.4941,0.15704 -1.6449,1.11325 -2.5574,2.12491 -1.4486,1.6059 -5.6294,4.85087 -6.2498,4.85087 -0.1211,0 -1.6068,0.81136 -3.3014,1.80303 l -3.0811,1.80303 h 8.4286 c 8.9749,0 10.1144,0.19537 17.5496,3.00878 7.8559,2.97262 22.8427,11.91361 29.8674,17.81861 3.6602,3.07686 4.7369,3.67829 9.7375,5.43943 1.7162,0.60442 3.6605,1.37713 4.3206,1.71714 0.66,0.34001 1.4325,0.61953 1.7165,0.62116 0.7384,0.004 2.6762,2.17444 2.2883,2.56287 -0.4835,0.48426 -0.7299,0.41614 -2.5647,-0.709 z m -76.8875,-29.5735 c 1.9172,-0.23058 2.6485,-0.54117 2.9041,-1.23339 0.188,-0.50886 1.6272,-1.58168 3.1984,-2.38404 1.5711,-0.80236 3.9039,-1.9949 5.1839,-2.65009 2.2469,-1.15014 3.5904,-2.43089 10.7914,-10.28706 4.6022,-5.02093 7.2838,-11.23123 7.2838,-16.86815 0,-2.84775 -1.8353,-8.70027 -3.4834,-11.10798 -1.0619,-1.55125 -1.2165,-2.22114 -1.0646,-4.61109 0.2326,-3.66016 -0.083,-4.82747 -1.2228,-4.52882 -0.49,0.12835 -1.337,-0.18703 -1.8913,-0.70423 -1.8011,-1.6806 -4.4381,-2.25342 -7.5199,-1.63354 -3.5462,0.71329 -4.0203,0.69543 -4.0203,-0.15139 0,-0.80672 4.1179,-2.18227 6.533,-2.18227 0.857,0 2.9856,0.74517 4.7302,1.65593 l 3.172,1.65593 -0.2569,-1.53573 c -0.1413,-0.84465 -0.4687,-3.33573 -0.7275,-5.53574 -0.2589,-2.20001 -0.7216,-4.8389 -1.0283,-5.8642 -0.502,-1.67801 -0.6868,-1.83831 -1.8509,-1.60512 -0.7618,0.1526 -1.5723,-0.008 -1.972,-0.39191 -0.3733,-0.35804 -1.2942,-0.92405 -2.0464,-1.2578 -1.1379,-0.50481 -1.6143,-0.48365 -2.8341,0.12581 -0.8065,0.40295 -1.6492,0.73263 -1.8727,0.73263 -0.8744,0 -0.3422,-1.46228 0.8066,-2.21616 1.5535,-1.01948 5.2583,-0.59044 6.7119,0.77728 1.2835,1.20766 2.3875,1.27478 1.9185,0.11666 -0.1874,-0.46278 -0.7236,-1.92323 -1.1916,-3.24546 -0.7387,-2.0868 -4.0462,-8.20634 -4.8076,-8.89495 -0.1462,-0.13222 -0.6533,-0.84988 -1.1269,-1.5948 -0.6987,-1.09889 -0.9916,-1.24597 -1.5526,-0.77965 -0.5677,0.47189 -0.785,0.30599 -1.2141,-0.92701 -0.4296,-1.23424 -0.7167,-1.45299 -1.6117,-1.22801 -0.733,0.18425 -1.1838,0.0263 -1.379,-0.48324 -0.1595,-0.41634 -0.5689,-0.75698 -0.9097,-0.75698 -0.3408,0 -0.8947,-0.44111 -1.2309,-0.98025 -0.5785,-0.92775 -0.6554,-0.93586 -1.4357,-0.15147 -0.7798,0.784 -0.8374,0.74021 -1.0644,-0.81009 -0.1579,-1.07805 -0.6167,-1.82642 -1.3406,-2.18692 -0.6053,-0.30142 -1.6057,-1.23369 -2.223,-2.0717 -0.8131,-1.10391 -1.1947,-1.33479 -1.385,-0.83805 -0.1445,0.37708 0.2618,1.17908 0.9028,1.78222 0.641,0.60313 1.1654,1.36029 1.1654,1.68257 0,0.32228 0.3378,0.71576 0.7506,0.87441 0.4127,0.15864 0.616,0.50634 0.4517,0.77265 -0.4004,0.64885 -1.2023,0.6171 -1.2023,-0.0476 0,-0.64892 -2.461,-2.64587 -3.0314,-2.45977 -0.2253,0.0735 -0.8598,-0.43951 -1.41,-1.14008 -0.9283,-1.18194 -4.0603,-2.89943 -4.4945,-2.4646 -0.1051,0.10526 0.2423,0.5842 0.772,1.0643 0.5297,0.48011 0.963,1.27212 0.963,1.76002 0,1.06646 -0.7468,1.17573 -1.1337,0.16588 -0.152,-0.39666 -0.5837,-0.72121 -0.9594,-0.72121 -0.3757,0 -0.8187,-0.54091 -0.9843,-1.20202 -0.3297,-1.31542 -1.2431,-1.65118 -1.2431,-0.45693 0,0.4098 0.34,1.40354 0.7555,2.20832 0.857,1.6598 0.6907,2.07399 -0.6601,1.64458 -0.6401,-0.20348 -1.0338,-0.9031 -1.242,-2.20754 -0.1677,-1.0503 -0.5184,-1.90964 -0.7793,-1.90964 -0.2609,0 -0.4744,0.21636 -0.4744,0.48081 0,0.26444 -0.324,0.4808 -0.7201,0.4808 -0.396,0 -0.7201,-0.32454 -0.7201,-0.72121 0,-0.39666 -0.243,-0.72121 -0.54,-0.72121 -0.5193,0 -0.425,1.01989 0.3444,3.72626 0.1779,0.62545 0.097,1.08182 -0.1912,1.08182 -0.7532,0 -1.6188,-3.09805 -1.2626,-4.51926 0.2386,-0.95237 0.1321,-1.25044 -0.4468,-1.25044 -0.5886,0 -0.6951,0.32558 -0.4721,1.44243 0.3287,1.646 -0.7134,2.0882 -1.133,0.48081 -0.1381,-0.52889 -0.4651,-0.96162 -0.7266,-0.96162 -0.2614,0 -0.3537,0.31762 -0.205,0.70581 0.4716,1.23072 -0.6197,1.3242 -1.1763,0.10077 -0.572,-1.25726 -2.0678,-1.2796 -2.5435,-0.038 -0.142,0.37061 -0.5041,0.67383 -0.8047,0.67383 -0.3006,0 -0.4221,-0.32454 -0.2702,-0.72121 0.1684,-0.43932 8e-4,-0.72121 -0.4287,-0.72121 -0.3877,0 -0.705,0.32455 -0.705,0.72121 0,0.39667 -0.324,0.72121 -0.7201,0.72121 -0.396,0 -0.7201,-0.41995 -0.7201,-0.93324 0,-0.51328 -0.216,-1.06696 -0.48,-1.23039 -0.2899,-0.17946 -0.4801,0.47581 -0.4801,1.65445 0,2.3117 -0.7449,2.58484 -1.2142,0.44517 -0.2422,-1.10443 -0.4416,-1.32897 -0.7472,-0.84141 -0.2293,0.36576 -0.2945,1.05884 -0.1448,1.54017 0.1912,0.61519 -0.026,0.95321 -0.7311,1.1379 -0.5695,0.14917 -1.0032,0.65415 -1.0032,1.16828 0,1.29416 -0.9532,1.12508 -0.9938,-0.17628 -0.019,-0.595 -0.2108,-1.51454 -0.4272,-2.04343 -0.3688,-0.90143 -0.4254,-0.88071 -0.9033,0.33099 -0.691,1.75208 -0.9578,6.10592 -0.3858,6.29687 0.6174,0.20612 -0.044,2.74789 -0.7154,2.74789 -0.2898,0 -0.4228,-0.39886 -0.2955,-0.88636 0.1392,-0.53311 -0.1255,-1.10959 -0.6641,-1.44649 -0.8185,-0.512 -0.8955,-0.39304 -0.8955,1.38408 0,2.18829 -1.3433,4.76856 -1.9612,3.76719 -0.2483,-0.40238 -0.4798,-0.13052 -0.6919,0.81272 -0.8754,3.89224 -1.8342,6.94664 -2.1806,6.94664 -0.4342,0 -0.1155,-2.87765 0.5537,-5.00003 0.5832,-1.84969 0.5548,-2.23544 -0.154,-2.09189 -0.3562,0.0722 -0.7128,-0.64847 -0.892,-1.80303 -0.2142,-1.3802 -0.3177,-0.72403 -0.3666,2.32391 -0.051,3.16078 -0.2216,4.196 -0.6682,4.0472 -0.33,-0.10996 -0.7192,-0.83118 -0.8648,-1.60269 -0.2087,-1.1054 -0.3401,-0.77282 -0.6202,1.56892 -0.1954,1.63443 -0.5894,3.04981 -0.8754,3.14529 -0.286,0.0955 -0.5175,0.81368 -0.5144,1.59599 0,0.78232 -0.2214,1.85512 -0.4987,2.38401 -0.451,0.86032 -0.42,0.8921 0.2945,0.30173 0.6831,-0.56435 0.7987,-0.55491 0.7987,0.0652 0,0.39881 -0.3227,1.34485 -0.7171,2.1023 -0.3944,0.75745 -0.7185,1.75582 -0.7201,2.2186 0,0.51989 -0.3698,0.84141 -0.9631,0.84141 -1.2544,0 -1.2111,0.43405 0.2401,2.40404 0.66,0.89609 1.2001,1.82703 1.2001,2.06877 0,0.24174 -0.5401,0.30376 -1.2001,0.13783 -0.8346,-0.20977 -1.2002,-0.1047 -1.2002,0.34487 0,0.35561 0.5401,1.15472 1.2002,1.77581 1.3283,1.24988 1.6349,2.67402 0.48,2.23016 -0.396,-0.15221 -0.7201,-0.20112 -0.7201,-0.10868 0,0.53811 2.5452,6.85058 2.9152,7.23023 0.6388,0.65539 0.5486,1.22606 -0.1937,1.22606 -0.6445,0 -1.4663,-1.31578 -1.9795,-3.1694 -0.1531,-0.55318 -0.8148,-1.51044 -1.4703,-2.12725 -1.0386,-0.97718 -1.1919,-1.01198 -1.1919,-0.27047 0,0.46805 0.4457,1.47792 0.9905,2.24416 0.9766,1.37374 0.8837,2.68675 -0.1451,2.04991 -0.3544,-0.21931 -0.4114,-0.0238 -0.1733,0.59317 1.1295,2.92613 0.7448,4.55349 -0.6721,2.84352 -0.8304,-1.00207 -1.4402,-0.90027 -1.4402,0.2404 0,0.53423 0.32,0.96162 0.7201,0.96162 0.4069,0 0.7201,0.43054 0.7201,0.98999 0,0.56944 -0.2143,0.85735 -0.5044,0.67776 -0.7506,-0.46457 -0.4113,3.99688 0.3784,4.97669 0.5722,0.70997 0.616,0.62392 0.3605,-0.70877 -0.2849,-1.48649 0.3656,-2.58079 0.9608,-1.61624 0.5809,0.94141 1.1455,0.47476 1.2946,-1.07004 0.1007,-1.04327 0.4354,-1.61278 1.0123,-1.72228 0.7153,-0.13578 0.8517,0.14964 0.8019,1.67889 -0.033,1.01337 0.083,2.29981 0.2572,2.85877 0.2364,0.7577 -0.015,1.27765 -0.9867,2.04344 -0.7171,0.56493 -1.7165,1.02714 -2.2209,1.02714 -0.7934,0 -0.8765,0.24327 -0.6155,1.80303 0.166,0.99167 0.6362,2.88485 1.0449,4.20707 1.1412,3.69171 7.118,15.53877 9.3772,18.58723 2.0805,2.80732 3.6303,3.65993 11.8825,6.53704 1.1882,0.41424 2.5924,0.913 3.1204,1.10835 3.015,1.11535 4.0695,1.40232 6.2408,1.69841 1.3202,0.18002 2.9404,0.53735 3.6004,0.79407 2.8063,1.09139 8.8709,1.54923 13.3637,1.00887 z m -9.23,-8.11195 c -3.2143,-1.3367 -5.7132,-3.10478 -6.8552,-4.85044 -1.4009,-2.14141 -0.047,-2.22006 2.2532,-0.13088 3.4258,3.11156 5.7837,3.9969 10.4578,3.92664 3.4826,-0.0523 3.9691,0.0417 3.8346,0.74124 -0.3355,1.74487 -5.8216,1.92232 -9.6904,0.31344 z m 8.3479,-16.14775 c -0.9241,-0.21297 -2.5764,-0.2729 -3.6718,-0.13318 -2.3223,0.29621 -3.1991,-0.50648 -1.4333,-1.31226 1.272,-0.58046 5.7751,-0.23503 7.0255,0.53893 1.186,0.73416 -0.078,1.33102 -1.9204,0.90651 z m 6.633,-4.08544 c -0.6553,-0.65631 -1.0385,-0.68726 -2.5054,-0.20238 -2.6594,0.87905 -11.3285,-0.25978 -11.3285,-1.48818 0,-0.53704 1.545,-0.75312 2.8804,-0.40283 0.66,0.17315 2.7819,0.36345 4.7153,0.42288 3.4196,0.10512 3.5007,0.081 2.9835,-0.88695 -0.5974,-1.11797 -1.7861,-1.26282 -3.5938,-0.43791 -1.0183,0.4647 -1.3815,0.41143 -2.1898,-0.3212 -0.9416,-0.85347 -1.0781,-0.84027 -4.8274,0.46694 -4.1528,1.44791 -6.7576,1.32263 -7.0773,-0.3404 -0.1333,-0.69305 0.2683,-0.79135 2.877,-0.70416 2.0585,0.0688 3.5313,-0.15623 4.5873,-0.70082 2.3726,-1.22362 4.1086,-1.47375 5.1147,-0.73694 0.6873,0.50339 1.3163,0.53847 2.7555,0.15372 1.6658,-0.44531 1.941,-0.38972 2.5776,0.52062 0.392,0.56054 1.7942,1.6856 3.1159,2.50013 2.4,1.47902 3.1661,2.93229 1.5459,2.93229 -0.4715,0 -1.2054,-0.34867 -1.6309,-0.77481 z m -51.2785,-6.91812 c 0,-0.26444 0.2287,-0.48081 0.5084,-0.48081 0.2796,0 0.3748,0.21637 0.2117,0.48081 -0.1632,0.26445 -0.392,0.48081 -0.5084,0.48081 -0.1165,0 -0.2117,-0.21636 -0.2117,-0.48081 z m 52.65,-8.68105 c -0.6955,-0.99445 -0.8449,-1.01339 -3.2083,-0.40671 -2.3852,0.61225 -2.5102,0.59466 -3.3085,-0.46536 -0.7038,-0.93448 -1.0982,-1.05121 -2.5989,-0.76924 -2.0329,0.38197 -2.3538,-0.27156 -0.7022,-1.43017 1.4529,-1.01926 2.9318,-0.93994 3.9737,0.21314 1.0575,1.17033 2.5244,1.22981 4.0437,0.16396 1.1005,-0.77202 1.1772,-0.7487 2.3871,0.72555 0.6876,0.83776 1.6462,1.52125 2.1302,1.51886 1.3307,-0.007 0.671,1.1756 -0.7507,1.34534 -0.8377,0.10002 -1.472,-0.18885 -1.9661,-0.89537 z m 5.304,0.69445 c -0.6138,-0.61472 -0.3694,-2.11037 0.3449,-2.11037 0.3804,0 0.8056,0.18449 0.9447,0.40998 0.3438,0.55708 -0.8541,2.13655 -1.2896,1.70039 z m -19.9559,-1.56576 c -0.9938,-0.86328 -1.4488,-2.94865 -0.6433,-2.94865 0.5934,0 2.9702,2.61809 2.9702,3.27176 0,0.85566 -1.1544,0.69536 -2.3269,-0.32311 z m 10.1248,-8.35774 c 0.306,-0.93309 2.7634,-1.06839 2.7634,-0.15214 0,0.52082 -0.4566,0.75315 -1.4802,0.75315 -0.9692,0 -1.4122,-0.20748 -1.2832,-0.60101 z m 4.2931,-5.96273 c -0.4633,-0.86701 -0.7125,-3.31732 -0.6161,-6.05747 0.064,-1.81752 1.0066,-1.67921 1.0066,0.14769 0,0.80846 0.2452,2.44523 0.5449,3.63728 0.3781,1.50372 0.3917,2.32084 0.044,2.66858 -0.3472,0.34773 -0.6473,0.22645 -0.9799,-0.39608 z m -15.0487,0.0755 c -0.6189,-0.61977 -5.966,-1.68569 -8.4672,-1.68787 -1.5053,-0.001 -3.7581,0.36422 -5.0063,0.81227 -2.5882,0.9291 -3.547,0.50395 -1.8927,-0.8393 2.2491,-1.82628 6.6056,-2.35377 11.6575,-1.41153 3.6014,0.6717 5.2978,1.43585 5.1284,2.31006 -0.1499,0.7735 -0.9838,1.25301 -1.4197,0.81637 z m -34.0069,-14.63893 c 0,-0.5445 0.216,-0.98999 0.48,-0.98999 0.2641,0 0.4801,0.31177 0.4801,0.69283 0,0.38106 -0.216,0.82656 -0.4801,0.99 -0.264,0.16343 -0.48,-0.14834 -0.48,-0.69284 z m 28.1661,-1.49156 c -1.9387,-1.52736 -5.6352,-2.10294 -7.7695,-1.20978 -2.221,0.92944 -2.6344,0.93657 -2.6344,0.0454 0,-2.0604 6.8975,-2.48089 10.4722,-0.63842 1.1966,0.61678 2.2554,1.36092 2.3528,1.65364 0.3289,0.98823 -1.2338,1.08448 -2.4211,0.14912 z m -24.8057,-4.75894 c 0,-0.24884 0.216,-0.58616 0.4801,-0.74959 0.264,-0.16344 0.48,0.0402 0.48,0.45243 0,0.41227 -0.216,0.74959 -0.48,0.74959 -0.2641,0 -0.4801,-0.2036 -0.4801,-0.45243 z m 5.2806,-10.33738 c 0,-0.38106 0.2161,-0.82655 0.4801,-0.98999 0.264,-0.16344 0.4801,0.14834 0.4801,0.69284 0,0.54449 -0.2161,0.98999 -0.4801,0.98999 -0.264,0 -0.4801,-0.31178 -0.4801,-0.69284 z m -9.9242,77.50193 c -2.64,-3.60066 -6.332,-10.25376 -8.3379,-15.02525 -0.6424,-1.52813 -1.0844,-4.17828 -1.0148,-6.0851 0.055,-1.51749 -0.1191,-1.82178 -1.2758,-2.22564 -1.6074,-0.56122 -4.4103,-3.26058 -4.4103,-4.24736 0,-0.38739 -0.4321,-1.16881 -0.9602,-1.73651 -1.0075,-1.08311 -1.2566,-3.23633 -0.5332,-4.60872 0.2531,-0.48023 0.2341,-1.7882 -0.047,-3.21385 -0.2604,-1.32222 -0.5607,-3.37767 -0.6673,-4.56767 -0.35,-3.90642 -0.795,-5.9898 -1.5141,-7.08909 -0.4774,-0.72975 -0.6001,-1.59267 -0.3763,-2.64637 0.1827,-0.85994 0.3048,-2.70556 0.2713,-4.10137 -0.053,-2.22882 0.1174,-2.71632 1.4027,-4.00365 1.1297,-1.13143 1.4635,-1.89246 1.4635,-3.33604 0,-1.50819 0.3365,-2.2072 1.7382,-3.61108 1.5,-1.50236 1.6698,-1.89115 1.2391,-2.83784 -0.391,-0.85946 -0.2996,-1.42546 0.4221,-2.61406 0.5067,-0.83439 0.9212,-2.02787 0.9212,-2.65218 0,-0.68021 0.4809,-1.45073 1.2001,-1.92269 0.6601,-0.43318 1.2002,-1.19874 1.2002,-1.70124 0,-0.5025 0.54,-1.55648 1.2001,-2.34216 0.6601,-0.78569 1.2002,-1.77037 1.2002,-2.18818 0,-0.41781 0.6939,-1.11909 1.5421,-1.5584 3.2541,-1.68535 5.8398,-5.47646 3.7353,-5.47646 -1.3205,0 -10.1168,4.6906 -13.0105,6.93782 -1.4808,1.15 -3.1468,2.33444 -3.7021,2.63209 -1.0708,0.57398 -6.5419,7.75064 -9.0689,11.89612 -0.8295,1.36077 -2.0021,4.06531 -2.6059,6.0101 -0.9821,3.16387 -1.0971,4.49739 -1.0926,12.67134 0,8.39212 0.1264,9.70256 1.4962,16.10708 2.3428,10.95349 5.3254,17.82379 10.072,23.20037 0.8762,0.99243 1.593,2.0312 1.593,2.30837 0,0.27718 0.8101,0.83901 1.8002,1.24852 0.9901,0.40951 2.1243,1.01958 2.5203,1.35573 0.3961,0.33614 2.2323,1.10256 4.0805,1.70315 1.8483,0.6006 4.6566,1.81184 6.2408,2.69165 3.0771,1.70894 3.9851,1.9939 3.2774,1.02857 z m -2.0487,-7.87465 c -0.5438,-1.01611 -0.9887,-1.55952 -0.9887,-1.20757 0,0.73308 1.541,3.49206 1.8036,3.22909 0.095,-0.0957 -0.2712,-1.00541 -0.8149,-2.02152 z m -2.16,-4.92995 c -0.6797,-1.34345 -1.5443,-3.76697 -1.9213,-5.3856 -0.8925,-3.83178 -1.4049,-4.25225 -1.1236,-0.92192 0.2198,2.60218 1.764,6.64076 3.1723,8.29688 1.2214,1.43632 1.1657,0.56637 -0.1274,-1.98936 z m -3.82,-12.8431 c -1.0653,-2.78063 -1.2919,-9.96802 -0.4912,-15.58159 0.3583,-2.51223 0.6609,-8.0295 0.6724,-12.26061 0.013,-4.9422 0.2572,-8.58169 0.6817,-10.17852 0.5865,-2.20607 4.2063,-9.34238 6.4328,-12.68174 0.4488,-0.67314 1.4552,-2.18769 2.2364,-3.36566 3.2813,-4.94801 12.8887,-10.11343 19.9853,-10.74514 3.3396,-0.29728 8.7659,0.10859 14.8388,1.10988 5.8379,0.96253 9.3316,2.3111 11.7123,4.5209 0.6678,0.61986 2.0986,1.3924 3.1795,1.71676 1.0809,0.32436 2.3381,0.95598 2.7938,1.4036 0.4556,0.44762 1.5889,1.38744 2.5184,2.08848 1.4838,1.11908 2.0802,2.1201 3.824,6.41831 1.2202,3.00775 2.1256,4.89132 2.6579,5.52929 0.3309,0.39667 1.0567,1.91121 1.6129,3.36566 0.5563,1.45444 1.2013,3.07717 1.4335,3.60606 1.0935,2.49075 1.8886,5.12457 2.6127,8.65454 0.434,2.11556 1.0343,5.03647 1.3341,6.49091 0.2997,1.45445 0.5397,4.54611 0.5334,6.87037 -0.01,3.31068 0.1692,4.44958 0.8233,5.25864 l 0.8349,1.03272 0.587,-1.78115 c 0.3742,-1.13559 1.0944,-2.04398 1.9871,-2.50634 1.6247,-0.84147 1.8146,-2.13319 0.44,-2.99296 -1.2836,-0.80291 -1.2104,-1.48009 0.3347,-3.09535 1.2104,-1.26535 1.2554,-1.46271 0.69,-3.02855 -0.3326,-0.92125 -0.4692,-1.89456 -0.3036,-2.16292 0.4148,-0.67225 -0.187,-2.40254 -0.8356,-2.40254 -0.9228,0 -2.2858,-1.55227 -2.2858,-2.6033 0,-0.55652 0.4321,-1.28209 0.9602,-1.61239 0.528,-0.33029 0.9601,-1.11438 0.9601,-1.74241 0,-0.7375 -0.34,-1.23091 -0.9601,-1.39333 -1.3361,-0.34994 -1.1986,-1.23611 0.279,-1.79878 1.4357,-0.54671 1.3223,-1.59776 -0.1966,-1.82161 -1.1195,-0.16498 -1.5144,-1.98603 -0.4425,-2.04047 0.3301,-0.0168 0.114,-0.22616 -0.48,-0.46532 -1.1154,-0.44901 -1.4441,-1.6262 -0.6001,-2.14865 0.8294,-0.51342 0.5259,-1.6862 -0.7407,-2.86191 -0.9565,-0.88782 -1.1512,-1.41094 -0.8993,-2.41615 0.2362,-0.94252 0.1461,-1.25856 -0.3394,-1.19095 -1.9325,0.26911 -2.6462,-0.97647 -1.0668,-1.86172 1.1601,-0.65023 0.4453,-2.00664 -1.0574,-2.00664 -1.1366,0 -1.2245,-0.13139 -0.944,-1.41086 0.256,-1.16717 0.097,-1.55042 -0.9219,-2.21893 -0.6773,-0.44445 -1.2314,-1.21593 -1.2314,-1.7144 0,-1.18173 -0.7902,-1.16108 -1.4306,0.0374 -0.7828,1.46486 -1.9294,0.73144 -1.4537,-0.9298 0.3986,-1.39226 -0.1258,-2.41795 -1.2362,-2.41795 -0.3125,0 -0.6904,-0.46831 -0.8398,-1.04069 -0.226,-0.86552 -0.3935,-0.93948 -0.9951,-0.43941 -0.9992,0.8305 -1.7256,0.24406 -1.7256,-1.39306 0,-1.53726 -0.7616,-2.03131 -2.0813,-1.35019 -1.0605,0.5473 -1.3908,0.2832 -1.4639,-1.17052 -0.038,-0.75013 -0.3968,-1.14562 -1.1353,-1.25068 -0.5941,-0.0845 -1.0802,-0.45553 -1.0802,-0.8245 0,-0.90159 -1.5277,-1.6663 -3.3288,-1.6663 -1.1517,0 -1.4718,-0.20911 -1.4718,-0.96162 0,-0.63971 -0.32,-0.96162 -0.956,-0.96162 -0.5258,0 -1.2259,-0.43272 -1.5557,-0.96161 -0.3591,-0.57596 -1.1195,-0.96162 -1.8959,-0.96162 -0.7131,0 -1.4299,-0.21636 -1.5931,-0.48081 -0.5028,-0.81483 -2.1201,-0.53225 -2.7517,0.48081 -0.7198,1.15428 -1.8089,1.26764 -1.8089,0.18828 0,-0.5882 -0.2921,-0.6999 -1.2202,-0.46659 -0.8104,0.20371 -1.4778,0.0488 -1.9871,-0.46126 -0.6063,-0.60725 -1.4696,-0.72008 -4.1249,-0.53909 -1.8469,0.1259 -3.4911,0.43521 -3.6536,0.68736 -0.4059,0.62956 -3.1924,1.13261 -5.9419,1.0727 -1.6826,-0.0367 -2.3636,0.15278 -2.58,0.71771 -0.2307,0.60225 -0.8756,0.73696 -2.9947,0.62562 -2.7858,-0.14637 -2.9148,-0.0388 -2.398,2.00018 0.1316,0.51922 -0.4854,0.78624 -2.3926,1.03536 -2.7831,0.36354 -3.2477,0.64319 -3.5081,2.11145 -0.1251,0.70493 -0.6175,1.00419 -1.8449,1.1211 -2.2912,0.21824 -2.9865,0.89758 -2.6216,2.56157 0.262,1.19431 0.1591,1.36674 -0.8187,1.37318 -1.5999,0.0105 -2.355,0.59787 -1.8405,1.43162 0.6814,1.1043 -0.357,1.92685 -2.0137,1.59501 -1.4053,-0.2815 -1.4418,-0.24439 -1.135,1.15445 0.2819,1.28548 0.1551,1.51244 -1.1465,2.05242 -1.4939,0.61978 -1.8898,1.79425 -0.9292,2.75643 0.8017,0.80288 0.066,1.58048 -1.4943,1.58048 -1.7869,0 -2.1936,0.71256 -1.2393,2.17128 0.737,1.12657 0.7133,1.19348 -0.6787,1.91443 -1.6779,0.86901 -1.6465,0.74498 -0.7393,2.9195 0.6903,1.65468 0.6793,1.69558 -0.6001,2.24117 -0.7167,0.30565 -1.6812,0.87197 -2.1433,1.25848 -0.906,0.75789 -1.1443,3.19349 -0.36,3.67898 0.9205,0.56982 0.4696,1.5705 -0.9785,2.17125 -2.0528,0.85162 -2.5568,2.00808 -1.7344,3.9794 0.5678,1.36117 0.5695,1.74194 0.011,2.50692 -0.9052,1.23983 -0.8249,2.34163 0.2412,3.30787 0.7553,0.68464 0.8841,1.43443 0.8026,4.67284 -0.085,3.38302 0.022,3.94066 0.8686,4.53481 0.8633,0.6056 0.8971,0.80591 0.3186,1.88848 -0.5147,0.9632 -0.5293,1.46993 -0.072,2.47621 0.4737,1.04134 0.4386,1.47453 -0.1986,2.44843 -0.7333,1.12092 -0.7089,1.27744 0.4635,2.97183 0.6807,0.98373 1.2376,2.01287 1.2376,2.28697 0,0.27411 0.8075,1.07384 1.7945,1.77719 2.0427,1.45567 3.759,1.72281 3.2954,0.51293 z m 5.4544,-42.68592 c -0.016,-0.96357 -0.057,-0.95318 -0.7031,0.17907 -0.8987,1.5746 -0.8987,2.18946 0,1.44243 0.3961,-0.32921 0.7124,-1.05888 0.7031,-1.6215 z m 6.6531,-8.41191 c 0.018,-1.94582 -0.07,-3.43476 -0.1956,-3.30874 -0.4772,0.47795 -1.0387,5.47979 -0.7946,7.07792 0.3958,2.59082 0.9502,0.48025 0.9902,-3.76918 z m 52.1712,-1.02518 c -0.4808,-0.53213 -0.9822,-0.85933 -1.1143,-0.72711 -0.132,0.13223 0.1534,0.67579 0.6342,1.20792 0.4809,0.53213 0.9823,0.85933 1.1143,0.72711 0.132,-0.13222 -0.1534,-0.67579 -0.6342,-1.20792 z m -3.0854,-3.04215 c -0.3667,-0.36723 -0.6651,-0.36554 -1.036,0.006 -0.3745,0.37509 -0.2736,0.97642 0.3589,2.13959 l 0.8798,1.61787 0.1561,-1.62376 c 0.086,-0.89307 -0.076,-1.85589 -0.3588,-2.1396 z m -7.388,-3.2985 c -0.1533,-0.38356 -0.267,-0.26963 -0.29,0.29048 -0.021,0.50686 0.093,0.79083 0.2521,0.63106 0.1595,-0.15976 0.1766,-0.57446 0.038,-0.92154 z m -31.2918,-2.31389 c 0.1632,-0.26445 0.068,-0.48081 -0.2117,-0.48081 -0.2796,0 -0.5084,0.21636 -0.5084,0.48081 0,0.26444 0.095,0.4808 0.2117,0.4808 0.1165,0 0.3452,-0.21636 0.5084,-0.4808 z m 18.9624,-0.69284 c 0,-0.38106 -0.1934,-0.81254 -0.4298,-0.95885 -0.4942,-0.3059 -1.09,0.93086 -0.6573,1.36428 0.5151,0.51591 1.0871,0.3026 1.0871,-0.40543 z m -15.4161,-0.54273 c 0.4827,0.29881 1.2836,-0.57824 0.8889,-0.97351 -0.3894,-0.39002 -2.755,0.72145 -2.755,1.29443 0,0.4014 0.1904,0.39337 0.6991,-0.0295 0.3845,-0.31959 0.9096,-0.45074 1.167,-0.29143 z m 6.8925,-0.44726 c 0.2112,-1.10664 0.092,-1.1996 -1.5042,-1.17155 -1.5219,0.0268 -1.6017,0.0836 -0.6536,0.46532 0.5941,0.23916 1.0802,0.76635 1.0802,1.17154 0,1.19769 0.8285,0.83995 1.0776,-0.46531 z m 5.8168,0.48081 c -0.152,-0.39667 -0.3612,-0.72122 -0.465,-0.72122 -0.1037,0 -0.1887,0.32455 -0.1887,0.72122 0,0.39666 0.2093,0.72121 0.465,0.72121 0.2558,0 0.3407,-0.32455 0.1887,-0.72121 z m -3.8051,-0.67083 c 0.1461,-0.23674 -0.046,-0.55027 -0.4273,-0.69673 -0.4622,-0.17764 -0.604,-0.0343 -0.4259,0.43043 0.3094,0.80767 0.4852,0.86255 0.8532,0.2663 z m 77.9065,114.09945 c -1.6119,-0.87548 -1.2934,-1.71036 0.5142,-1.34826 1.1451,0.22936 1.4773,-0.0171 2.7418,-2.0343 0.7913,-1.26241 1.8928,-2.84739 2.4477,-3.52219 0.5548,-0.6748 1.6612,-2.4169 2.4587,-3.87135 1.4995,-2.73508 1.8729,-4.81041 2.3243,-12.91982 0.1232,-2.21368 0.3517,-4.23177 0.5077,-4.48464 0.1561,-0.25287 0.4636,-3.20168 0.6835,-6.5529 0.3688,-5.6207 0.5281,-6.33881 2.0547,-9.26159 0.9102,-1.74265 3.0447,-5.20447 4.7433,-7.69293 1.6986,-2.48847 3.4512,-5.44841 3.8948,-6.57765 1.0103,-2.57232 1.0582,-7.69081 0.089,-9.55147 -0.3945,-0.75745 -0.7185,-1.71254 -0.7201,-2.12243 0,-0.40989 -0.1867,-0.9508 -0.4114,-1.20202 -0.2246,-0.25123 -1.2088,-2.90616 -2.1872,-5.89985 -1.5448,-4.72703 -1.7416,-5.83394 -1.4961,-8.41414 0.2851,-2.99558 2.0446,-7.15675 4.3057,-10.18318 1.7381,-2.32631 2.4451,-6.35165 1.2262,-6.98169 -1.2208,-0.63106 -10.2164,-3.30058 -12.134,-3.60088 -0.997,-0.15613 -5.1015,-0.27441 -9.1211,-0.26283 -6.0776,0.0175 -8.1978,0.22724 -12.5891,1.24537 -6.937,1.60836 -11.4325,1.9498 -13.9217,1.0574 -2.323,-0.83278 -3.1518,-2.6815 -0.8877,-1.97988 2.5533,0.79121 9.342,0.46755 14.4931,-0.69099 6.9191,-1.55621 19.9635,-1.5924 25.7595,-0.0715 5.1866,1.36104 7.9377,2.30482 9.2981,3.1897 1.7578,1.14345 1.1824,4.04059 -2.0843,10.49414 l -2.7308,5.39481 0.2076,3.79609 c 0.1996,3.65007 1.3948,8.24204 3.6787,14.13346 0.5638,1.45444 1.151,3.94262 1.3048,5.52929 0.4682,4.82997 -0.6424,7.49191 -7.9376,19.02454 -2.8903,4.56912 -3.4168,6.09017 -3.4168,9.87203 0,1.66641 -0.2068,4.06821 -0.4596,5.33734 -0.2528,1.26913 -0.6738,5.3366 -0.9356,9.03882 -0.3085,4.36357 -0.78,7.49534 -1.3405,8.9034 -0.8308,2.08702 -2.6847,5.36301 -3.7271,6.58597 -1.1984,1.40603 -1.5651,1.89185 -1.7531,2.32249 -0.6875,1.57474 -2.5274,4.06187 -2.9929,4.04565 -0.3039,-0.0106 -1.1531,-0.3454 -1.887,-0.74404 z M 9242.5512,647.5404 c -1.01,-0.75262 -1.655,-4.15278 -1.8403,-9.70189 -0.096,-2.86603 0.036,-4.35264 0.3959,-4.47286 0.9675,-0.32298 1.3056,0.98728 1.6162,6.26348 0.2476,4.20667 0.4972,5.45335 1.3129,6.55839 1.355,1.83554 0.3689,2.73405 -1.4847,1.35288 z m 2.748,-37.9094 c -0.8098,-0.90207 -0.912,-1.6866 -0.8222,-6.31219 0.096,-4.93894 0.201,-5.45843 1.6182,-7.99641 1.765,-3.16071 4.0195,-6.03867 7.4527,-9.51334 1.349,-1.36524 3.261,-3.93 4.249,-5.69945 1.5597,-2.79332 1.8265,-3.73393 2.0253,-7.13916 0.327,-5.59903 0.6874,-6.28541 4.1669,-7.93473 3.4982,-1.65821 4.2601,-1.93596 6.7886,-2.47505 1.0562,-0.22517 4.5126,-0.97168 7.681,-1.65891 7.7052,-1.67126 22.7031,-2.53561 30.0037,-1.72914 7.1677,0.79179 11.1659,1.79866 13.5391,3.40959 1.1346,0.77016 2.3509,1.40423 2.7029,1.40904 1.1747,0.016 0.2651,1.20851 -1.0399,1.36317 -0.8308,0.0985 -1.3883,-0.11499 -1.5754,-0.60328 -1.2251,-3.19763 -17.2591,-4.93506 -33.5492,-3.63537 -5.943,0.47417 -9.3647,1.09871 -16.802,3.06677 -5.469,1.44721 -6.4377,1.84265 -8.2451,3.36582 -1.2978,1.09375 -1.5092,1.63642 -1.8038,4.6311 -0.1836,1.86569 -0.6386,4.4204 -1.0112,5.67713 -0.6656,2.24472 -5.0208,9.12749 -6.2081,9.81096 -1.0728,0.61755 -5.8629,6.7977 -6.9665,8.98802 -1.2496,2.48014 -1.8293,8.46038 -1.0816,11.15881 0.6382,2.30372 0.099,3.17687 -1.1224,1.81662 z"
         id="path1" /></g></g></svg>
