<?xml version="1.0" encoding="UTF-8" standalone="no"?>
<!-- Created with Inkscape (http://www.inkscape.org/) -->

<svg
   width="61.221001mm"
   height="62.240601mm"
   viewBox="0 0 61.221 62.240601"
   version="1.1"
   id="svg1"
   xml:space="preserve"
   xmlns="http://www.w3.org/2000/svg"
   xmlns:svg="http://www.w3.org/2000/svg"><defs
     id="defs1" /><g
     id="layer1"
     transform="translate(1472.671,3650.7208)"><g
       id="g1008"
       transform="matrix(0.26458333,0,0,0.26458333,-4128.5321,-3729.0057)"><path
         style="fill:#000000"
         d="m 10198.787,510.51441 c -1.719,-0.9487 -5.614,-2.77695 -8.654,-4.06279 -3.041,-1.28583 -5.854,-2.52141 -6.25,-2.74573 -0.397,-0.22431 -2.236,-1.21883 -4.087,-2.21004 -1.851,-0.99121 -4.015,-2.32249 -4.808,-2.9584 -0.793,-0.63592 -2.597,-1.94659 -4.008,-2.91261 -1.617,-1.10654 -3.84,-3.43734 -6.01,-6.29955 -4.716,-6.22127 -8.492,-11.63112 -8.492,-12.16585 0,-0.24452 -0.666,-1.9053 -1.481,-3.69061 -0.814,-1.78531 -1.675,-3.67865 -1.913,-4.20742 -0.373,-0.82923 -1.176,-4.32077 -2.212,-9.61404 -0.155,-0.79315 -0.528,-1.65842 -0.829,-1.9228 -1.186,-1.04239 -5.484,-6.85767 -5.797,-7.84513 -0.576,-1.81356 -1.112,-1.15281 -1.672,2.05796 -0.735,4.21983 -0.752,8.77234 -0.04,9.63385 0.441,0.53203 0.463,1.39761 0.09,3.52674 -0.469,2.66339 -0.349,6.16599 0.267,7.76868 0.153,0.39658 0.236,0.90445 0.185,1.1286 -0.176,0.78028 0.911,5.86707 2.07,9.68719 1.571,5.17677 2.516,8.98906 3.158,12.7386 0.294,1.71851 0.742,3.9151 0.994,4.88131 0.879,3.36169 -1.158,5.77107 -2.14,2.53029 -0.233,-0.77156 -0.615,-1.83546 -0.848,-2.36423 -0.75,-1.70064 -1.353,-4.15718 -3.068,-12.49825 -0.925,-4.49456 -1.982,-9.46982 -2.349,-11.05614 -0.368,-1.58631 -1.125,-5.04737 -1.684,-7.69123 -0.559,-2.64386 -1.238,-5.32397 -1.51,-5.95581 -1.051,-2.44662 -1.352,-7.89361 -0.72,-13.03191 0.772,-6.27313 2.971,-16.02602 4.119,-18.26666 0.474,-0.92535 1.082,-2.49514 1.352,-3.48842 0.76,-2.80109 -0.09,-3.03355 -8.324,-2.28044 -7.825,0.71559 -25.254,0.37593 -32.337,-0.63018 -2.446,-0.34744 -4.447,-0.45584 -4.447,-0.2409 0,0.68935 -2.471,0.42171 -10.096,-1.09356 -11.4,-2.26536 -11.585,-2.30706 -14.664,-3.30826 -1.587,-0.51592 -4.832,-1.27169 -7.212,-1.6795 -5.994,-1.02712 -7.188,-1.4058 -7.367,-2.3367 -0.23,-1.19257 1.147,-1.49542 2.937,-0.64607 0.865,0.41012 3.621,0.9644 6.126,1.23173 2.505,0.26734 7.043,0.80756 10.083,1.20049 6.975,0.90121 10.949,1.24768 17.308,1.5089 2.777,0.11405 6.996,0.43909 9.375,0.7223 5.782,0.68806 27.899,1.71485 32.573,1.51218 3.605,-0.15633 3.726,-0.2003 3.726,-1.35694 0,-0.65746 0.236,-1.63702 0.525,-2.17679 0.38,-0.70975 0.38,-1.1268 0,-1.50664 -0.289,-0.28888 -0.525,-0.90135 -0.525,-1.36105 0,-0.63497 -0.549,-0.90714 -2.284,-1.13268 -7.003,-0.91047 -14.566,-2.37326 -16.407,-3.1736 -1.158,-0.50311 -2.348,-0.91487 -2.644,-0.91502 -0.297,-1.5e-4 -4.8,-1.39733 -10.006,-3.10485 -7.171,-2.3523 -10.005,-3.51704 -11.695,-4.80675 -1.227,-0.93619 -2.501,-1.70217 -2.831,-1.70217 -0.33,0 -1.083,-0.51294 -1.672,-1.13988 -0.589,-0.62693 -1.87,-1.54627 -2.846,-2.04298 -0.977,-0.4967 -2.878,-1.71429 -4.225,-2.70573 -1.347,-0.99145 -2.808,-1.80263 -3.247,-1.80263 -0.439,0 -0.798,-0.20593 -0.798,-0.45761 0,-0.25169 -0.947,-1.10943 -2.105,-1.9061 -1.158,-0.79667 -3.809,-3.09214 -5.89,-5.10105 -2.081,-2.00891 -5.568,-4.84841 -7.75,-6.31001 -2.58,-1.72838 -3.966,-2.96819 -3.966,-3.5463 0,-1.40564 0.966,-1.63635 2.091,-0.4995 1.709,1.72539 10.238,7.05086 23.149,14.45356 2.909,1.66771 6.619,3.84315 8.245,4.8343 1.626,0.99116 3.465,1.95823 4.087,2.14904 0.621,0.19082 1.346,0.50696 1.611,0.70253 0.264,0.19557 1.084,0.49991 1.822,0.67631 0.738,0.1764 1.216,0.52441 1.062,0.77336 -0.744,1.20416 5.652,4.55326 11.539,6.04164 1.587,0.40114 3.642,0.93869 4.567,1.19455 5.478,1.5143 18.751,3.90572 18.751,3.37831 0,-0.15685 -0.671,-0.58206 -1.491,-0.94491 -2.477,-1.0961 -10.331,-9.39541 -12.791,-13.51532 -2.79,-4.67176 -4.486,-8.47463 -4.236,-9.49386 0.409,-1.65928 1.549,-1.28635 2.205,0.72106 0.325,0.99144 0.999,2.34342 1.498,3.00438 0.5,0.66097 1.884,2.54258 3.076,4.18137 3.257,4.47822 11.454,12.47465 13.468,13.13926 0.935,0.30864 1.83,0.43144 1.989,0.27289 0.158,-0.15854 -0.04,-0.28826 -0.44,-0.28826 -1.533,0 -4.721,-3.83227 -4.721,-5.67522 0,-0.67059 -0.314,-1.56672 -0.699,-1.99141 -1.018,-1.12509 -1.073,-4.01548 -0.105,-5.4932 0.934,-1.42585 1.291,-1.49497 3.534,-0.68406 1.966,0.71062 2.58,0.22795 2.998,-2.35535 0.224,-1.39098 0.543,-1.86261 1.334,-1.97597 1.43,-0.20483 4.958,2.09504 4.958,3.23201 0,0.52804 0.704,1.32321 1.682,1.90056 0.926,0.54597 1.681,0.83774 1.679,0.64836 0,-0.18937 -0.967,-2.183 -2.144,-4.43028 -4.297,-8.20424 -7.988,-15.9432 -8.265,-17.32821 -0.531,-2.65275 1.091,-1.56733 3.848,2.57503 2.749,4.13091 7.457,13.54516 8.46,16.91634 2.926,9.83378 4.411,5.95989 4.421,-11.53684 0,-14.9348 -0.407,-18.23962 -3.172,-25.1865 -1.199,-3.01275 -2.357,-5.7167 -2.572,-6.00877 -0.215,-0.29208 -0.676,-1.72078 -1.025,-3.17491 -0.348,-1.45412 -0.761,-2.86017 -0.918,-3.12456 -0.156,-0.26438 -0.33,-0.80517 -0.386,-1.20175 -0.163,-1.15668 -1.609,-6.1415 -3.136,-10.81579 -0.778,-2.37948 -1.598,-5.29974 -1.823,-6.48948 -0.527,-2.78342 -1.874,-8.7378 -2.131,-9.41727 -0.335,-0.88375 0.463,-1.68952 1.34,-1.3532 0.829,0.31817 1.32,1.24276 4.116,7.75244 1.959,4.56057 7.718,22.07026 7.718,23.46448 0,0.39461 0.206,1.09309 0.458,1.55218 0.251,0.45909 0.76,1.59181 1.129,2.51716 0.37,0.92535 1.602,3.79921 2.737,6.38635 1.596,3.63599 1.967,4.94556 1.632,5.76842 -0.244,0.60167 -0.301,6.08077 -0.13,12.60137 0.166,6.34527 0.33,14.95819 0.363,19.13983 l 0.06,7.60298 1.322,-0.1521 c 1.171,-0.1347 1.663,-0.83925 4.301,-6.15427 1.638,-3.30119 3.523,-7.6275 4.189,-9.61403 0.666,-1.98654 1.833,-5.35221 2.595,-7.47928 0.761,-2.12707 1.766,-5.47996 2.233,-7.45088 0.467,-1.97091 1.123,-4.44874 1.457,-5.50628 0.334,-1.05755 0.776,-4.62676 0.983,-7.93158 0.207,-3.30482 0.446,-7.09035 0.531,-8.41228 0.09,-1.32193 0.24,-4.24219 0.346,-6.48947 0.105,-2.24729 0.35,-4.46452 0.544,-4.9272 0.194,-0.46267 0.247,-1.11589 0.118,-1.45159 -0.129,-0.3357 0.04,-2.76925 0.374,-5.40789 0.334,-2.63865 0.586,-5.23017 0.561,-5.75894 -0.08,-1.62034 0.741,-6.00877 1.123,-6.00877 1.847,0 1.99,4.76519 0.793,26.4386 -0.08,1.45412 0.03,5.88695 0.246,9.85073 0.371,6.82122 0.326,7.47716 -0.839,12.2579 -2.354,9.65855 -6.328,21.74584 -9.721,29.56681 -1.672,3.85378 -2.609,6.48947 -2.307,6.48947 0.06,0 0.957,-0.4043 1.999,-0.89845 4.21,-1.99827 13.61,-2.52087 19.468,-1.08244 4.868,1.19522 7.404,2.37445 10.558,4.90801 1.452,1.16614 3.829,2.99827 5.282,4.0714 1.454,1.07314 3.941,2.90805 5.528,4.07758 1.586,1.16953 4.182,2.9865 5.769,4.03773 5.908,3.91496 19.471,15.75031 19.471,16.99147 0,1.3061 -1.097,0.89422 -3.69,-1.38478 -4.639,-4.07665 -13.245,-9.82039 -22.895,-15.27956 -1.112,-0.62879 -3.29,-1.98077 -4.84,-3.00439 -1.551,-1.02362 -3.053,-1.86113 -3.339,-1.86113 -0.286,0 -1.073,-0.50562 -1.748,-1.12359 -2.401,-2.19613 -9.702,-4.60744 -13.969,-4.61383 l -2.164,-0.003 2.136,1.78874 c 4.824,4.03996 8.02,7.6264 9.519,10.68173 1.626,3.31547 2.913,4.45786 7.096,6.29874 4.677,2.0587 12.915,9.2149 16.821,14.61179 0.765,1.05754 1.978,2.57175 2.696,3.36491 0.717,0.79316 1.652,2.48643 2.078,3.76283 1.017,3.04681 2.176,5.27825 2.989,5.75492 0.361,0.21142 0.656,0.74878 0.656,1.19413 0,0.44535 0.579,2.00289 1.287,3.4612 0.708,1.45832 1.459,3.08411 1.669,3.61289 2.338,5.90076 3.495,8.97404 3.997,10.62108 0.805,2.63708 0.963,9.61383 0.229,10.0675 -0.761,0.47045 -1.241,-0.43965 -1.596,-3.02933 -0.164,-1.19889 -0.474,-2.41794 -0.688,-2.709 -0.215,-0.29106 -0.677,-1.70467 -1.028,-3.14135 -0.551,-2.25539 -1.976,-5.74128 -3.353,-8.20364 -0.401,-0.71637 -4.404,-9.75709 -6.194,-13.98853 -1.043,-2.46467 -9.198,-11.25821 -13.496,-14.55328 -3.543,-2.71599 -8.23,-5.74914 -8.487,-5.49226 -0.116,0.11634 0.194,1.71067 0.689,3.54297 2.141,7.92699 2.545,12.694 1.768,20.87282 -0.627,6.60116 -3.58,12.84495 -6.566,13.88595 -0.93,0.32421 -1.305,0.72039 -1.124,1.19028 0.415,1.08323 -1.313,1.40002 -7.714,1.41341 -8.708,0.0182 -16.177,-1.88674 -26.128,-6.66469 -2.99,-1.4356 -5.654,-2.61018 -5.919,-2.61018 -1.355,0 1.54,10.56602 4.118,15.03158 2.107,3.64996 2.837,4.84374 3.151,5.15789 0.132,0.1322 0.978,1.32193 1.879,2.64386 1.548,2.26903 5.174,5.94358 5.91,5.98828 0.186,0.0113 1.7,0.9715 3.366,2.13383 1.665,1.16233 4.542,2.85812 6.393,3.76841 3.158,1.55316 8.359,4.59628 8.894,5.20408 0.133,0.15017 2.08,1.27764 4.327,2.50548 4.919,2.68702 7.013,4.31207 6.54,5.0765 -0.525,0.84921 -1.213,0.66879 -4.616,-1.20954 z m -13.703,-8.80563 c -0.163,-0.26439 -0.554,-0.47739 -0.869,-0.47334 -0.344,0.004 -0.285,0.19335 0.148,0.47334 0.924,0.5968 1.09,0.5968 0.721,0 z m -25.917,-26.30727 c -1.21,-3.55697 -1.991,-6.98759 -2.466,-10.83007 -0.233,-1.88506 -0.522,-2.41042 -1.648,-2.9925 -1.217,-0.62898 -1.397,-0.62384 -1.655,0.0471 -0.378,0.98642 0.78,5.38795 2.545,9.66622 1.476,3.57874 3.889,7.99578 4.199,7.68608 0.1,-0.0995 -0.339,-1.70906 -0.975,-3.5768 z m 35.506,-4.05562 c 0.08,-0.0889 0.37,-0.61032 0.655,-1.15867 0.284,-0.54834 1.384,-1.25664 2.443,-1.57398 2.608,-0.78106 4.537,-3.24621 5.593,-7.1452 1.052,-3.88853 1.237,-17.37192 0.285,-20.80839 -0.33,-1.18973 -0.81,-3.24473 -1.068,-4.56666 -0.257,-1.32193 -0.76,-3.05246 -1.118,-3.84562 -2.198,-4.87684 -2.613,-5.91157 -2.895,-7.21052 -1.068,-4.92171 -11.032,-15.2464 -15.397,-15.95473 -0.931,-0.15102 -1.692,-0.45242 -1.692,-0.66978 0,-0.70032 -3.511,-1.39637 -7.057,-1.39913 -3.18,-0.002 -3.531,0.0995 -4.474,1.29797 -0.85,1.08108 -1.17,1.20868 -1.896,0.75584 -0.662,-0.41329 -1.333,-0.38601 -2.782,0.11302 -2.13,0.73379 -5.411,2.50892 -6.147,3.32641 -0.265,0.29339 -1.406,1.20465 -2.537,2.02502 -5.857,4.24954 -11.682,10.48249 -10.931,11.69708 0.166,0.2685 -0.454,2.398 -1.377,4.73222 -1.799,4.54721 -1.802,4.9375 -0.09,9.58247 0.414,1.1257 0.875,3.06916 1.025,4.3188 0.591,4.92175 6.183,12.14713 12.108,15.64559 2.089,1.23346 4.54,2.57522 5.446,2.9817 0.906,0.40648 1.972,0.9462 2.368,1.19937 2.56,1.6337 9.658,4.41029 13.943,5.45378 2.776,0.67617 5.481,1.33679 6.009,1.46803 1.002,0.24861 9.35,0.0182 9.589,-0.26462 z m -5.799,-2.78348 c -1.353,-0.77606 -3.097,-2.01785 -3.875,-2.75952 -0.779,-0.74167 -2.051,-1.92176 -2.828,-2.62241 -1.89,-1.70332 -3.645,-4.06977 -4.603,-6.20488 -0.835,-1.8605 -5.156,-5.67669 -8.169,-7.21324 -0.996,-0.50821 -2.008,-1.27464 -2.247,-1.70319 -0.58,-1.03506 -1.48,-0.70701 -6.128,2.2319 -3.699,2.3396 -3.927,2.41442 -6.95,2.28234 l -3.125,-0.13656 -0.147,-2.04298 c -0.111,-1.53162 0.03,-2.04299 0.548,-2.04299 0.384,0 0.833,0.54079 0.999,1.20176 0.255,1.01516 0.58,1.20061 2.095,1.19439 2.808,-0.0115 3.192,-0.48956 3.279,-4.09012 0.09,-3.60351 0.729,-5.16641 2.441,-5.9462 0.647,-0.29472 1.046,-0.74677 0.887,-1.00457 -0.466,-0.75298 0.595,-2.2769 1.794,-2.57785 3.447,-0.86479 4.271,-4.28188 1.627,-6.73889 -0.892,-0.82882 -2.002,-2.25347 -2.466,-3.16589 -0.465,-0.91242 -1.148,-1.96249 -1.519,-2.33348 -0.371,-0.371 -1.153,-1.57131 -1.738,-2.66737 l -1.063,-1.99283 -0.153,1.55339 c -0.114,1.15497 0.22,2.01803 1.301,3.36492 0.8,0.99633 1.714,2.9388 2.032,4.3166 0.553,2.40133 0.522,2.584 -0.744,4.4106 -0.727,1.04804 -1.609,2.01617 -1.962,2.15141 -1.183,0.4539 -1.145,-1.02459 0.07,-2.64981 0.983,-1.31706 1.15,-1.96038 0.918,-3.53308 -0.173,-1.16957 -0.727,-2.29942 -1.414,-2.88421 -1.57,-1.33531 -2.215,-2.75445 -2.215,-4.86975 0,-3.29771 3.605,-7.0146 5.415,-5.58297 0.327,0.25873 1.784,0.6155 3.239,0.79281 4.421,0.53911 5.712,1.14126 6.627,3.09293 0.708,1.50715 1.085,1.7814 2.628,1.90916 1.044,0.0864 1.803,-0.0655 1.803,-0.36053 0,-0.28034 0.291,-0.50972 0.646,-0.50972 0.356,0 1.039,-0.43289 1.518,-0.96199 1.41,-1.55881 5.96,-3.45154 9.289,-3.86427 3.571,-0.44283 4.412,-0.24157 4.412,1.05595 0,0.51362 0.324,1.55989 0.72,2.32506 0.527,1.01891 0.594,1.7194 0.253,2.6175 -0.488,1.28311 -4.727,7.748 -6.542,9.97673 -1.484,1.82348 -1.228,5.01037 0.601,7.45783 2.086,2.79119 4.002,4.7712 4.004,4.13765 0,-1.07972 -0.989,-3.17306 -2.174,-4.58152 -2.289,-2.71907 -1.101,-6.14539 2.129,-6.14539 2.705,0 3.341,0.99484 3.483,5.44849 0.07,2.05986 0.293,3.85254 0.506,3.98374 0.212,0.1312 0.386,0.65841 0.386,1.17158 0,0.88894 -0.471,1.14189 -1.803,0.96891 -0.331,-0.0429 -0.601,0.23791 -0.601,0.62404 0,0.38614 -0.219,0.77505 -0.487,0.86426 -0.508,0.16945 1.501,4.38012 3.861,8.08986 1.909,3.00059 2.367,5.41605 1.638,8.63885 -0.59,2.6068 -2.327,4.82079 -3.781,4.82079 -0.351,0 -0.752,0.43264 -0.89,0.96141 -0.328,1.25318 -0.6,1.21775 -3.523,-0.45865 z m 4.564,-2.72648 c 2.425,-2.17639 3.027,-4.85589 1.714,-7.62352 -0.464,-0.97783 -1.134,-1.88932 -1.489,-2.02552 -0.355,-0.1362 -0.646,-0.45985 -0.646,-0.71921 0,-1.40711 -3.743,-8.65716 -5.579,-10.80572 -3.413,-3.99409 -4.505,-6.2499 -4.511,-9.32027 0,-2.32916 0.174,-2.84694 1.393,-4.01411 2.162,-2.07097 2.191,-3.00288 0.105,-3.3479 -2.574,-0.4256 -3.289,-0.36706 -3.994,0.32683 -0.971,0.95661 -4.899,2.73911 -6.036,2.73911 -2.757,0 -3.219,1.13622 -1.21,2.9715 2.793,2.55084 8.448,9.29966 11.378,13.57887 2.914,4.2565 3.941,6.30841 5.397,10.7853 0.656,2.01827 1.505,4.14869 1.885,4.73426 0.889,1.3693 0.885,2.5406 -0.01,2.5406 -0.403,0 -0.948,-0.82069 -1.278,-1.92281 -0.317,-1.05754 -0.843,-1.92281 -1.168,-1.92281 -1.279,0 -9.656,-8.25326 -11.969,-11.79148 -3.283,-5.02234 -6.999,-13.39288 -6.999,-15.76558 0,-0.51395 -0.541,-1.43563 -1.202,-2.0482 -0.736,-0.68162 -1.202,-1.64067 -1.202,-2.47184 0,-0.74696 -0.292,-1.78479 -0.65,-2.30629 -0.357,-0.5215 -0.783,-1.48898 -0.947,-2.14994 -0.353,-1.4246 -4.144,-5.77526 -5.029,-5.77123 -0.339,0.002 -0.772,-0.41309 -0.962,-0.92142 -0.299,-0.80143 -0.462,-0.8387 -1.223,-0.28054 -0.825,0.60468 -0.718,0.88635 1.768,4.64966 1.455,2.20329 3.257,4.62246 4.003,5.37593 0.747,0.75348 1.62,1.83506 1.941,2.40351 1.492,2.64125 -0.03,7.1256 -2.771,8.15986 -0.78,0.29445 -1.419,0.81961 -1.419,1.16704 0,0.34743 -0.757,1.3888 -1.682,2.31415 -1.475,1.47494 -1.683,1.97943 -1.683,4.0902 v 2.40775 l 2.284,-1.30479 c 1.256,-0.71764 2.5,-1.45403 2.764,-1.63644 0.265,-0.1824 1.094,-0.47826 1.843,-0.65747 1.103,-0.26379 1.409,-0.14706 1.608,0.61308 0.135,0.51639 1.172,1.44437 2.304,2.06217 3.218,1.75607 8.084,6.13191 8.942,8.04235 1.674,3.72605 9.576,11.29232 12.067,11.55416 0.177,0.0186 1.195,-0.75058 2.263,-1.70924 z m -4.748,-7.21411 c 0,-0.65156 -3.35,-6.82197 -5.315,-9.79024 -2.963,-4.47608 -9.848,-12.39975 -10.343,-11.9045 -0.36,0.35988 1.675,5.54656 3.155,8.04112 2.593,4.36944 3.944,6.10174 7.794,9.99233 3.588,3.62494 4.709,4.49678 4.709,3.66129 z m 3.24,-19.31641 c -0.227,-3.34298 -0.532,-3.93347 -2.034,-3.93347 -1.845,0 -1.892,1.49038 -0.134,4.24487 0.865,1.35499 1.749,2.46842 1.965,2.47429 0.216,0.006 0.307,-1.2477 0.203,-2.78569 z m -19.809,-9.99809 c 0.653,-0.42729 1.581,-0.67353 2.065,-0.54721 0.483,0.12633 1.281,-0.0648 1.773,-0.42485 0.493,-0.36001 1.362,-0.65455 1.931,-0.65455 0.57,0 1.448,-0.45841 1.952,-1.01869 0.821,-0.91366 1.262,-0.98974 4.281,-0.73787 3.745,0.31249 3.914,0.25115 5.481,-1.99196 0.849,-1.21562 1.037,-1.96111 0.805,-3.19644 -0.427,-2.27881 -1.071,-2.63764 -3.916,-2.18276 -3.23,0.51647 -5.894,1.66624 -7.659,3.30552 -1.825,1.69543 -5.652,3.13179 -7.266,2.72691 -0.843,-0.21148 -1.504,-0.95431 -2.15,-2.41388 -0.727,-1.64411 -1.257,-2.17951 -2.403,-2.43132 -1.933,-0.42441 -2.274,0.006 -1.055,1.33273 1.319,1.43685 3.98,6.8094 3.98,8.03615 0,1.17759 0.603,1.23236 2.181,0.19822 z m -0.235,30.61154 c -0.384,-0.24659 -1.79,-0.5957 -3.125,-0.77579 -3.24,-0.43713 -3.929,-0.86349 -5.096,-3.15081 -1.378,-2.6988 -1.13,-5.30908 0.558,-5.89904 1.79,-0.62521 3.471,-0.0622 5.197,1.73994 4.254,4.44207 4.763,5.17365 4.685,6.73276 -0.08,1.6277 -0.959,2.16218 -2.219,1.35294 z m -1.298,-3.66733 c -3.854,-4.82208 -5.533,-5.69178 -5.843,-3.02682 -0.209,1.80346 1.687,3.81583 4.02,4.2648 3.189,0.6136 3.263,0.56318 1.823,-1.23798 z m -22.466,-7.808 c -0.132,-0.21343 -0.07,-1.63609 0.137,-3.16148 0.283,-2.08729 0.692,-3.06641 1.653,-3.95771 0.703,-0.65136 1.278,-1.4973 1.278,-1.87986 0,-0.77648 3.42,-3.11114 4.558,-3.11114 1.263,0 0.796,1.3224 -0.832,2.35345 -3.354,2.12416 -5.161,4.95906 -5.166,8.10181 0,1.45696 -0.201,2.04298 -0.695,2.04298 -0.381,0 -0.801,-0.17462 -0.933,-0.38805 z m -7.988,11.32402 c 0,-1.66294 1.006,-8.00331 1.961,-12.37807 0.474,-2.17399 0.452,-3.07102 -0.126,-5.04737 l -0.702,-2.40351 -0.869,2.88421 c -1.357,4.50708 -2.274,15.06961 -1.513,17.42544 0.516,1.59537 1.247,1.31412 1.249,-0.4807 z m 82.685,-15.27423 c -0.823,-1.53766 -10.087,-10.62825 -12.724,-12.4863 -2.293,-1.61528 -7.561,-4.38099 -7.834,-4.11255 -0.522,0.51282 0.88,1.95043 2.899,2.97327 1.324,0.67079 2.649,1.41633 2.945,1.65674 3.5,2.84563 4.887,3.91924 5.536,4.28559 0.424,0.23947 2.703,2.28517 5.065,4.546 2.362,2.26083 4.371,4.1106 4.464,4.1106 0.09,0 -0.07,-0.438 -0.351,-0.97335 z m -93.985,-18.76259 c 2.505,-0.18635 -5.939,-0.87198 -13.943,-1.1321 -4.231,-0.1375 -9.315,-0.46703 -11.298,-0.73228 -1.983,-0.26525 -4.038,-0.48238 -4.567,-0.4825 l -0.962,-2.2e-4 0.962,0.57013 c 1.247,0.73979 5.087,1.18631 13.702,1.59368 3.834,0.18129 7.012,0.36213 7.063,0.40187 0.117,0.0925 7.143,-0.0773 9.043,-0.21858 z m -32.933,-1.65529 c 0,-0.39658 -0.312,-0.72105 -0.693,-0.72105 -0.803,0 -1.346,0.6861 -0.897,1.13471 0.575,0.57451 1.59,0.31039 1.59,-0.41366 z m -3.847,-0.25543 c 0,-0.57548 -1.356,-1.19278 -1.751,-0.79734 -0.421,0.42096 0.293,1.29312 1.059,1.29312 0.381,0 0.692,-0.2231 0.692,-0.49578 z m -4.327,-0.94632 c 0,-0.26439 -0.77,-0.4807 -1.711,-0.4807 -1.018,0 -1.59,0.19463 -1.414,0.4807 0.164,0.26439 0.934,0.4807 1.712,0.4807 0.777,0 1.413,-0.21631 1.413,-0.4807 z m 55.29,-1.23012 c 0,-0.69768 -0.208,-1.10154 -0.481,-0.93304 -0.265,0.1634 -0.481,0.71696 -0.481,1.23013 0,0.51316 0.216,0.93303 0.481,0.93303 0.264,0 0.481,-0.55356 0.481,-1.23012 z m 4.483,-1.88889 2.284,-2.15761 -2.518,0.25064 c -1.385,0.13785 -2.577,0.30895 -2.648,0.38022 -0.128,0.12768 0.377,3.68436 0.523,3.68436 0.04,0 1.103,-0.97093 2.359,-2.15761 z m 66.671,-3.31518 c 0,-0.54404 -2.389,-1.66904 -2.65,-1.24763 -0.163,0.26368 0.205,0.6802 0.817,0.92559 1.236,0.49583 1.833,0.60073 1.833,0.32204 z m -64.998,-1.02876 c 0.08,-0.0661 -0.882,-0.47015 -2.137,-0.89794 -2.448,-0.83399 -3.694,-0.43594 -2.634,0.84138 0.407,0.4898 1.169,0.6174 2.6,0.43493 1.113,-0.14202 2.09,-0.31229 2.171,-0.37837 z m -10.602,-1.78587 c -0.109,-0.32791 -1.263,-0.76182 -2.564,-0.96425 -8.29,-1.28996 -21.217,-4.32933 -24,-5.64297 -1.22,-0.57584 -6.387,-2.38595 -7.813,-2.73704 -0.595,-0.1465 -1.082,-0.0531 -1.082,0.20751 0,0.49393 11.502,4.45898 18.991,6.54646 4.689,1.30702 10.878,2.5724 13.942,2.8504 1.058,0.096 2.104,0.21083 2.324,0.25527 0.22,0.0444 0.311,-0.18748 0.202,-0.51538 z m 3.965,0.11549 c 0,-0.26439 -0.217,-0.48071 -0.481,-0.48071 -0.264,0 -0.481,0.21632 -0.481,0.48071 0,0.26438 0.217,0.4807 0.481,0.4807 0.264,0 0.481,-0.21632 0.481,-0.4807 z m 12.346,-2.67976 c 0.851,-4.08916 0.812,-7.72488 -0.09,-8.06952 -0.45,-0.17244 -0.722,-0.9056 -0.722,-1.94586 0,-2.28372 -0.893,-2.6791 -0.934,-0.41382 -0.02,0.99686 -0.195,3.21852 -0.391,4.93703 -0.324,2.83067 -0.459,3.12097 -1.439,3.08639 -0.595,-0.021 -1.082,0.15984 -1.082,0.40185 0,0.24201 -1.244,0.36734 -2.764,0.27852 -2.629,-0.15356 -2.765,-0.10582 -2.765,0.97039 0,0.94321 0.481,1.31154 2.885,2.2096 1.587,0.59274 3.147,0.98742 3.467,0.87707 0.321,-0.11035 0.97,0.024 1.443,0.29859 1.382,0.80295 1.761,0.38586 2.388,-2.63024 z m 54.482,2.18397 c 0,-0.57548 -1.356,-1.19278 -1.752,-0.79734 -0.421,0.42096 0.293,1.29313 1.059,1.29313 0.381,0 0.693,-0.22311 0.693,-0.49579 z m -3.847,-2.29228 c 0,-0.71952 -1.15,-1.5383 -2.139,-1.52226 -0.945,0.0153 -0.939,0.0552 0.149,0.96141 1.187,0.98822 1.99,1.21471 1.99,0.56085 z m -42.232,-5.01558 c -1.909,-1.25895 -2.795,-1.07468 -3.141,0.65321 -0.565,2.82808 -0.454,2.90966 2.059,1.50664 l 2.36,-1.3172 z m -4.751,0.0137 c 0.06,-0.87105 -0.109,-1.69188 -0.373,-1.82407 -0.285,-0.14238 -0.531,0.83735 -0.603,2.40351 -0.09,1.98388 10e-4,2.43922 0.373,1.82407 0.272,-0.45089 0.543,-1.53247 0.603,-2.40351 z m 42.641,2.14172 c 0,-0.46268 -0.524,-1.21131 -1.147,-1.66362 -1.424,-1.03446 -5.758,-2.76613 -7.972,-3.18535 -3.84,-0.72699 -15.385,-0.11738 -15.385,0.81236 0,0.68001 7.03,2.1311 12.019,2.4809 4.461,0.31274 10.273,1.45133 10.971,2.14923 0.565,0.56531 1.528,0.18784 1.514,-0.59352 z m -50.766,-2.10307 c 0.564,-2.82143 0.414,-3.40498 -0.782,-3.03269 -0.595,0.18531 -1.938,1.01107 -2.985,1.83503 l -1.904,1.4981 2.384,0.55473 c 1.312,0.3051 2.52,0.5755 2.686,0.60088 0.165,0.0254 0.435,-0.62984 0.601,-1.45605 z m 17.622,-0.87454 c -0.664,-1.24134 -1.207,-1.53449 -2.162,-1.16808 -0.656,0.25167 -0.56,0.45247 0.558,1.16817 1.777,1.13828 2.214,1.13825 1.604,-9e-5 z m -24.405,-2.31011 c 1.16,-0.99145 3.259,-2.59256 4.664,-3.55803 l 2.554,-1.75539 -1.486,-0.76829 c -2.095,-1.08333 -3.64,-0.95683 -5.292,0.43347 -0.786,0.66096 -1.779,1.20175 -2.208,1.20175 -0.67,0 -2.681,2.56023 -2.686,3.42026 0,0.34157 1.904,2.82886 2.168,2.82886 0.1,0 1.125,-0.81118 2.286,-1.80263 z m -42.437,-0.57251 c 0,-1.2735 -0.721,-1.61872 -1.477,-0.70749 -0.516,0.62116 -0.504,0.82857 0.07,1.1891 1.051,0.66508 1.411,0.54218 1.411,-0.48161 z m 69.641,-1.10995 c 0.503,-1.12364 1.394,-3.12456 1.981,-4.44649 4.177,-9.41901 10.537,-30.29467 9.808,-32.19446 -0.739,-1.92553 -1.315,-0.60173 -3.966,9.12078 -1.688,6.19167 -5.57,16.9777 -8.261,22.95417 -2.057,4.56852 -2.187,5.16269 -1.317,6.03215 0.784,0.78432 0.727,0.83224 1.755,-1.46615 z m -9.551,0.72106 c -0.02,-1.07226 -0.937,-1.67098 -2.105,-1.37784 -1.638,0.41109 -1.602,1.14099 0.07,1.39406 0.727,0.11014 1.484,0.23267 1.682,0.27228 0.199,0.0396 0.358,-0.0902 0.354,-0.2885 z m -63.731,-1.40368 c 0.312,-0.81217 -0.424,-1.57984 -1.527,-1.59335 -1.372,-0.0168 -0.524,2.1822 0.91,2.3582 0.17,0.0209 0.448,-0.32331 0.617,-0.76485 z m -5.07,-4.06321 c -0.629,-0.48381 -1.361,-0.81276 -1.625,-0.73102 -1.006,0.31076 -0.694,1.54579 0.586,2.32236 1.209,0.73319 1.373,0.73771 1.759,0.0485 0.309,-0.55173 0.111,-1.00136 -0.72,-1.6398 z m 68.89,-2.70504 c 0.339,-7.97009 -0.347,-29.89981 -0.953,-30.50609 -0.466,-0.46611 -0.517,0.4664 -0.245,4.44273 0.483,7.03227 0.477,25.28571 0,27.74581 -0.331,1.67883 -0.273,2.04299 0.323,2.04299 0.57,0 0.759,-0.79453 0.883,-3.72544 z m -73.266,0.79297 c 0.07,-0.37931 -0.546,-1.09124 -1.377,-1.58209 -1.247,-0.73623 -1.582,-0.7773 -1.918,-0.23465 -0.277,0.449 0,0.99608 0.896,1.72366 1.409,1.15224 2.187,1.18245 2.399,0.0931 z m -5.448,-3.2756 c 0.149,-0.2418 -0.458,-0.89075 -1.351,-1.44211 -2.836,-1.75287 -3.818,-1.0675 -1.146,0.80018 1.707,1.19353 2.094,1.29303 2.497,0.64193 z m 100.748,-30.75454 c 0,-0.2361 -0.325,-0.55378 -0.721,-0.70597 -0.733,-0.28117 -0.985,0.23088 -0.401,0.81477 0.459,0.45941 1.122,0.39517 1.122,-0.1088 z m -23.336,-2.09441 c -0.444,-2.06884 -0.606,-2.29044 -1.44,-1.97056 -0.977,0.3751 -0.882,1.23962 0.275,2.48079 1.33,1.42714 1.559,1.32677 1.165,-0.51023 z m 23.17,-2.60945 c -0.138,-0.13797 -0.492,-0.10178 -0.787,0.0804 -0.385,0.23779 -0.36,0.54382 0.09,1.0844 0.562,0.67852 0.64,0.67055 0.787,-0.0804 0.09,-0.45844 0.05,-0.94642 -0.09,-1.0844 z m -25.644,-3.92479 c -0.968,-2.35588 -1.327,-2.65924 -2.077,-1.75515 -0.948,1.14157 0.517,4.10987 1.856,3.75993 0.892,-0.23336 0.904,-0.34334 0.221,-2.00478 z m 25.81,-1.27717 c 0,-1.18973 -0.188,-2.16315 -0.418,-2.16315 -0.485,0 -1.11,3.31896 -0.738,3.9207 0.629,1.01807 1.156,0.21768 1.156,-1.75755 z m -27.892,-3.48508 c -0.01,-1.62678 -0.593,-3.00439 -1.266,-3.00439 -1.02,0 -1.34,1.35499 -0.633,2.67629 0.725,1.35461 1.909,1.55911 1.899,0.3281 z m 27.249,-3.60527 c -0.134,-0.33048 -0.243,-0.0601 -0.243,0.60088 0,0.66097 0.109,0.93136 0.243,0.60088 0.133,-0.33048 0.133,-0.87127 0,-1.20176 z m 0.48,-2.40351 c -0.133,-0.33048 -0.242,-0.0601 -0.242,0.60088 0,0.66097 0.109,0.93136 0.242,0.60088 0.134,-0.33048 0.134,-0.87127 0,-1.20176 z m -29.167,0.72106 c 0,-0.19829 -0.226,-1.16205 -0.498,-2.14168 -0.35,-1.26071 -0.7,-1.70217 -1.199,-1.51085 -0.724,0.27769 -0.93,1.9044 -0.413,3.25269 0.289,0.75122 2.115,1.09739 2.11,0.39984 z m 29.474,-4.12956 c 0.136,-0.35446 0.06,-0.94933 -0.181,-1.32193 -0.313,-0.49304 -0.431,-0.3176 -0.437,0.64447 0,1.43549 0.228,1.69397 0.618,0.67746 z m -31.572,-2.84062 c -0.16,-0.59487 -0.293,-1.24381 -0.297,-1.4421 0,-0.48895 -1.331,-0.45928 -1.638,0.0368 -0.518,0.8385 0.319,2.48693 1.263,2.48693 0.762,0 0.901,-0.22385 0.672,-1.08158 z m 31.909,-0.84123 c 0,-0.52877 -0.08,-0.9614 -0.185,-0.9614 -0.101,0 -0.297,0.43263 -0.436,0.9614 -0.138,0.52878 -0.06,0.96141 0.185,0.96141 0.239,0 0.436,-0.43263 0.436,-0.96141 z m -33.174,-3.54655 c 0,-0.0999 -0.343,-1.00225 -0.762,-2.00521 -0.581,-1.3893 -0.865,-1.66085 -1.195,-1.14029 -0.603,0.95367 -0.551,2.06965 0.13,2.7503 0.533,0.53287 1.827,0.81278 1.827,0.3952 z m -2.569,-5.81142 c -0.306,-0.65232 -0.631,-0.96966 -0.722,-0.70519 -0.235,0.6838 0.293,1.89123 0.827,1.89123 0.252,0 0.205,-0.52298 -0.105,-1.18604 z"
         id="path1" /></g></g></svg>
